<svg id="Layer_1" data-name="Layer 1" xmlns="http://www.w3.org/2000/svg" viewBox="0 0 727.65 734.04"><defs><style>.cls-1{fill:#c1e8f6;}.cls-2{fill:#d26253;}.cls-3{fill:#722d16;}.cls-4{fill:#a66e52;}.cls-5{fill:#1c3c53;}.cls-6{fill:#5fa0ae;}.cls-16,.cls-7{fill:#43231b;}.cls-7{stroke:#543025;stroke-miterlimit:10;stroke-width:1.57px;}.cls-8{fill:#010101;}.cls-9{fill:#231f1f;}.cls-10{fill:#161412;}.cls-11{fill:#643c2a;}.cls-12{fill:#311811;}.cls-13{fill:#f1edf6;}.cls-14,.cls-28{fill:#fff;}.cls-14{opacity:0.14;}.cls-15{fill:#273339;}.cls-17{fill:#395557;}.cls-18{fill:#a14123;}.cls-19{fill:#f37260;}.cls-20{fill:#98722b;}.cls-21{fill:#dfa826;}.cls-22{opacity:0.3;}.cls-23{fill:#632b13;}.cls-24{fill:#cd8c2a;}.cls-25{fill:#151312;}.cls-26{fill:#b16028;}.cls-27{fill:#df8c28;}.cls-29{fill:#6796a2;}.cls-30{fill:#593526;}.cls-31{fill:#475c66;}</style></defs><circle class="cls-1" cx="363.09" cy="392.33" r="322.52"/><path class="cls-2" d="M334.12,539.64c11.21-13.81,13.12-25.86,13.28-29.67.61-14.56-2.24-31.92-3-35.55-8.12-36.68-4.91-73.21-4.91-73.21l-32.16-8.88L296.1,388l-.69-.44a6.08,6.08,0,0,0-.07,1.65l.08.89a31,31,0,0,1-25,14.6,73.88,73.88,0,0,1-10.61-.35c-11.55-1.22-20-7.2-26.35-16.95l-7.8,4.9-14.25-3.42-46.53,13.4,12.82,172.81L173.37,584l-22.65,49.89c28.5,28,68.8,45.92,68.8,45.92,49.21,31,123.45,34.47,123.45,34.47l-3.42-31h.1c-.95-9.19-2-17.91-3-25.4-.14-1-.29-2-.43-3l0-.27h0q-2.35-16.77-5.19-33.47c-1.83-10.82-5.1-21.7-3-32.69A359,359,0,0,0,334.12,539.64Z"/><path class="cls-3" d="M666.29,348.58a8.61,8.61,0,0,0,2.37-11.1c-8.13-18.24,1-1.9-12.66-15.94a123.49,123.49,0,0,0-46.15-29.63,113.17,113.17,0,0,0-54.14-4.35c-18.55,2.53-37.82,3.42-56.58,1.34-19.2-2.06-36.67-4.84-54.86-11.09-3.9-1.34-15.89-5.2-16.72-1.32-1,4.56,9.46,15.7,13.37,17,20,6.87,40.32,13.31,61.56,14.83a277.15,277.15,0,0,0,56-1.91c17.06-2.87,33.52,1.58,49.66,7.52,31.57,12.49,33.31,1,47.61,32.37A7.34,7.34,0,0,0,666.29,348.58Z"/><path class="cls-2" d="M306.68,494.16c-9.41-7.63,3.34-36.47-2.35-47.22-5.49-10.4-7.72-36.33-8.35-48,2.6-1.75,45.46-5.61,53.74-9.91,21.75-11.3,27.25-12.28,30.95-15.11,5.77-4.38,115.15-55.26,116.76-58l39.45,33.21s-84.43,29.35-115.22,68.55C396.32,450,338,458,306.68,494.16Z"/><path class="cls-4" d="M436.05,259.6s2.82,28.91-2.25,40.48c-1.5,3.44-48.14,24-48.14,24l106,35.06,55.91-17.42S516,331.18,514,327.23c-5.53-10.86-2.06-65.09-2.06-65.09"/><path class="cls-5" d="M560.59,647.33,403.3,622.25c0,.72-4.82,55.52-5.76,90C467,705,519.72,680.37,560.59,647.33Z"/><path class="cls-6" d="M333.19,98c-32,40.72-84.12,110.46-79.79,127.81,6.22,24.91,90.83,145.11,90.83,145.11l24.83,98.51,26.18,88.47s-11.22,5-5,22.45,14.26,25,6.23,28.67c-13,5.91-4.44,16.33-4.44,16.33l61.22,19.6c68.58,10.32,103.57,3.31,106.3,3.25,0,0,30.94-25.41,42.21-39.1-6.6-46.89-18.38-152.78-15.63-171.27,4.72-31.81-7-96.73-7-96.73l-46.8-13.13-16.21-6.29c-29.48,11.1-65.39,1-79.05-29.39a3.52,3.52,0,0,1-.31-1.37l-25.33-9.82s-29.91-11.22-43.62-22.42-27.24-50.72-27.24-50.72L393.43,98.13l-40.7-28.21Z"/><path class="cls-7" d="M461,236.82a20.72,20.72,0,0,0-1.43-5.4,13,13,0,0,0-4.27-5.47,9.43,9.43,0,0,0-6.1-1.9l.62.68a78.18,78.18,0,0,0-.6-8.1,15.56,15.56,0,0,0-.46-3.12c-.15,0-.28,1.22-.29,3.14s.2,4.84.14,7.9l0,.71.64,0a8.52,8.52,0,0,1,5.28,1.76c3.74,2.67,5,7,5.56,10s.82,5,1,4.93S461.39,240,461,236.82Z"/><path class="cls-4" d="M426.68,212.23s-6-11.55-10-11.53c-2.46,0-8.41,6.59-8.34,12.87.09,8.4,5.94,18,7.4,22.84s1.21,11.94,7.74,11.9c2.59,0,5.78-5.42,5.78-5.42S428,219.85,426.68,212.23Z"/><path class="cls-8" d="M424.94,223.58a55.22,55.22,0,0,0-5.26-9.18,17.75,17.75,0,0,0-3.69-3.9,5.08,5.08,0,0,0-1.94-.94,1.89,1.89,0,0,0-2.22,1.29c-1.45,2.82-1.33,6.21-.58,9.21.09.35,1.8-.09,1.71-.46a14.09,14.09,0,0,1-.09-7.43,7,7,0,0,1,1.15-2.46l-1.4.49c.13,0-.17,0,0,0l.36.09a6.23,6.23,0,0,1,1.3.7,20.19,20.19,0,0,1,5,5.8,66.6,66.6,0,0,1,3.93,7.24c.18.4,1.83-.19,1.7-.45Z"/><path class="cls-8" d="M422.22,224.59c-5.07-.17-2.19,5.91-2.61,8.67a2.37,2.37,0,0,0-.09.36c0-.09,0,.12-.06.1s.76-.11.76-.12-.64-1-.68-1.08a21.14,21.14,0,0,1-1.22-4.3,16.43,16.43,0,0,1-.33-5.13c.21-2,.68-4.89,2.7-5.78,1.07-.47.12-1.33-.73-.95-2.15.95-3.06,3.27-3.48,5.43a14.46,14.46,0,0,0-.22,4.73,31,31,0,0,0,1.18,5.39c.28.85.64,2.13,1.46,2.64a1.63,1.63,0,0,0,2.24-.77,4.67,4.67,0,0,0,.12-2.49c-.1-.85-1.23-5.57.36-5.51.38,0,.94-.11,1.11-.51s-.13-.66-.51-.68Z"/><path class="cls-4" d="M522.66,212.23s6-11.55,10-11.53c2.46,0,8.41,6.59,8.34,12.87-.09,8.4-5.94,18-7.4,22.84s-1.21,11.94-7.74,11.9c-2.59,0-5.78-5.42-5.78-5.42S521.31,219.85,522.66,212.23Z"/><path class="cls-8" d="M526.07,223.91a46.58,46.58,0,0,1,6.36-10.55,14,14,0,0,1,2.15-2.07l.42-.3c.06,0,.24-.15.07-.05l.21-.12c.2-.11.4-.2.61-.29-.32.14.14,0,.26-.05-.19.05-.22,0-.06,0l-.71-.26a7,7,0,0,1,1.1,2.38,14,14,0,0,1-.11,7.27c-.21.84,1.54.64,1.73-.12a13.91,13.91,0,0,0-.34-8.79c-.32-.74-.69-1.84-1.66-1.74a5.31,5.31,0,0,0-2.24.95,16.22,16.22,0,0,0-3.62,3.59,53.56,53.56,0,0,0-5.81,9.92c-.41.88,1.31.91,1.64.21Z"/><path class="cls-8" d="M527.35,225.84c1.9-.07,1,3.58.87,4.62s-.87,4.49,1.28,4.34c1-.07,1.6-1.09,2-1.94a22.41,22.41,0,0,0,1.32-4.76,17,17,0,0,0,.22-5.64c-.32-2.38-1.12-5.17-3.51-6.22-.75-.33-2,.75-1,1.19,1.83.81,2.42,3.22,2.7,5a13.65,13.65,0,0,1,.09,4.23,29.51,29.51,0,0,1-1.12,5,8,8,0,0,1-.66,1.57c0,.08-.27.29-.27.37l.2-.09c1.31.38.41.09.42,0s-.17-.53-.18-.77a7.55,7.55,0,0,1,.09-1.26c.11-1,.3-2,.39-2.94a5.3,5.3,0,0,0-.29-2.82,2.39,2.39,0,0,0-2.41-1.16c-1,0-1.3,1.34-.14,1.3Z"/><path class="cls-4" d="M528.42,217.73c-.84,9.15-2.6,17.68-3,27.25s-1.21,22.12-2.71,25.68c-.76,1.83-3.12,3.47-4.56,4.83-7.8,7.39-17.48,15-27.5,19.08-4.37,1.8-15.68,1.8-15.68,1.8s-11.32,0-15.68-1.8c-6.14-2.52-11.68-7-17.12-10.75s-11.94-8.19-15.42-13.76c-1.07-1.72-1-4-1.16-6-.69-6.34-.8-12.74-1.08-19.11-.42-9.57-2.19-18.1-3-27.25s-1.87-47.18.83-54.47,34.75-26.84,52.65-26.84c12.56,0,32.09,9.64,43.55,17.91,4.86,3.51,8.27,6.77,9.08,8.93C530.29,170.55,529.25,208.57,528.42,217.73Z"/><path class="cls-9" d="M478.2,241.51c-2.44,1-4.23,1-5.83-.38-.35-.31-1.6,0-1.1.47,2.11,1.86,6.13,1.58,8.34,0,.22-.16.2-.39-.06-.51s-1.12.29-1.35.46"/><path class="cls-9" d="M470.38,240.48a12.39,12.39,0,0,0-4.81-.35,1,1,0,0,0-.65.38c-.11.15-.11.33.09.41a4.8,4.8,0,0,0,2.63.14.92.92,0,0,0,.71-.49c.09-.26-.19-.36-.4-.31a3.77,3.77,0,0,1-2.13-.12l-.56.79a11,11,0,0,1,4.31.33.91.91,0,0,0,.81-.26c.15-.15.28-.44,0-.52"/><path class="cls-9" d="M480.5,240.85a12.61,12.61,0,0,1,4.81-.41,1,1,0,0,1,.66.37c.11.16.1.34-.09.41a4.62,4.62,0,0,1-2.63.17.9.9,0,0,1-.71-.47c-.1-.26.18-.36.39-.32a3.86,3.86,0,0,0,2.13-.14l.57.78a11.14,11.14,0,0,0-4.3.38,1,1,0,0,1-.82-.25c-.15-.14-.28-.43,0-.52"/><path class="cls-9" d="M464.06,241.22a5.07,5.07,0,0,1-4.24-2.49,5.42,5.42,0,0,1,1.9-6.6c.22-.17.1-.38-.11-.44a1,1,0,0,0-.85.23,6.23,6.23,0,0,0-2.59,5.6,5,5,0,0,0,3.66,4.07,6.66,6.66,0,0,0,1.76.32c.24,0,.68-.09.79-.33s-.1-.36-.32-.36"/><path class="cls-9" d="M487,241.28a5.06,5.06,0,0,0,4.23-2.49,5.41,5.41,0,0,0-1.9-6.6c-.21-.16-.1-.37.12-.43a1,1,0,0,1,.85.22,6.26,6.26,0,0,1,2.58,5.61,5,5,0,0,1-3.66,4.07,6.91,6.91,0,0,1-1.76.31c-.24,0-.67-.09-.79-.33s.11-.35.33-.36"/><path class="cls-10" d="M449.11,207.68a4.21,4.21,0,0,0-4.54.82,4.09,4.09,0,0,0-1.23,1.91,4.17,4.17,0,0,0,1,3.81,3.89,3.89,0,0,0,4.48.78,4.3,4.3,0,0,0,2.11-5,3.83,3.83,0,0,0-1.81-2.32"/><path class="cls-10" d="M502.54,207.68a4.21,4.21,0,0,1,4.54.82,4.09,4.09,0,0,1,1.23,1.91,4.17,4.17,0,0,1-1,3.81,3.91,3.91,0,0,1-4.48.79,4.31,4.31,0,0,1-2.11-5,3.85,3.85,0,0,1,1.81-2.32"/><path class="cls-10" d="M488.8,214.16s9.28-6.74,14-7.18c6.92-.63,15.45,2.91,17.9,6.08,0,0-11.28-5.3-16.15-4.72C499.93,208.9,488.8,214.16,488.8,214.16Z"/><path class="cls-10" d="M463.38,213.74s-9.28-6.74-14-7.18c-6.92-.63-15.45,2.91-17.9,6.08,0,0,11.29-5.3,16.15-4.72C452.26,208.48,463.38,213.74,463.38,213.74Z"/><path class="cls-10" d="M463.92,189.39c0,1.65,0,3.31,0,5,0,1.26.05,4.14,0,5.4-3.71-1.09-7.05-2.7-9.45-3.16-4.75-.93-9.62-2.24-14.44-1.46a15.37,15.37,0,0,0-6.26,2.26c-.61.4-2.25,2.13-3.16,1.68-.37-.19.25-2.22.32-2.43,1.26-4.09,4.52-5.78,8.5-6.73,8.11-1.95,16.26-1.69,24.49-.53"/><path class="cls-10" d="M488.51,189.39c0,1.65,0,3.31,0,5,0,1.26-.05,3.54,0,4.79,3.65-1.08,6.8-2.36,9.16-2.83,4.68-.92,9.61-2,14.35-1.18a14.94,14.94,0,0,1,6.16,2.26c.6.4,2.22,2.13,3.11,1.68.37-.19-.24-2.22-.3-2.43-1.25-4.09-4.46-5.78-8.37-6.73-8-1.95-16-1.69-24.11-.53"/><path class="cls-10" d="M425.61,264.53s2,4.05,4.57,5.75c7.27,4.84,21.44,11.63,25.63,14.82,4,3,6.18,3.58,6.18,3.58a63.6,63.6,0,0,1,13.44-2.24A32,32,0,0,1,488.34,289s23.84-15.2,31.24-19c.52-.27,3.94-4.49,4.27-4.59,0,0,2.81,5.79-13.63,17-11.43,7.81-14.43,11.55-23.58,13.47s-21.79,1.27-27.37-1.34c-8.64-4-28.42-18.62-31.52-22.46C425.76,269.65,425.61,264.53,425.61,264.53Z"/><path class="cls-10" d="M467.94,268.64l16.94-.65c-.37.95-1.69,8-8.91,7.24C469.59,274.57,471,271.47,467.94,268.64Z"/><path class="cls-11" d="M476.23,253.5c-8.31,0-21.79-.95-21.79-.95s2.52,19.67,21.79,19.67S498,252.55,498,252.55,484.55,253.5,476.23,253.5Z"/><path class="cls-12" d="M476.31,253.5c-3.95,0-19.88-.65-19.88-.65s5.51,13,19.8,13c15.5,0,19.82-12.88,19.82-12.88Z"/><path class="cls-13" d="M476.49,254.07c-4,0-16-.65-16-.65s4.34,4.21,16.19,4.21,15.63-4.09,15.63-4.09Z"/><path class="cls-11" d="M498.9,251.36c-.43-.1-2.73.65-4.69.48-3.27-.27-7.23-1.11-9.6-1.29-4.05-.3-6.62,1.25-8.38,1.25s-4.33-1.55-8.37-1.25c-2.37.18-6.33,1-9.6,1.29-2,.17-4.27-.58-4.69-.48-.58.14.55,4.31,22.67,4.31S499.48,251.5,498.9,251.36Z"/><path class="cls-10" d="M473.52,245.1l-.6,3.81A1.33,1.33,0,0,1,471.8,250c-3.88.53-18.63,2.55-22.14,2.5a.93.93,0,0,1-.24,0l-1.11,1c-1.31-.26.26-3.94,1.51-4.43a85.47,85.47,0,0,1,9.43-3.29c2.63-.61,9.8-2.23,13-2.19A1.33,1.33,0,0,1,473.52,245.1Z"/><path class="cls-10" d="M477.21,245.11l1.1,3.92a1.35,1.35,0,0,0,1.13,1.06c3.89.5,18.66,2.38,22.17,2.3a.93.93,0,0,0,.24,0l1.13-.23c1.31-.27.4-2.86-.85-3.33A83.83,83.83,0,0,0,492,245.7c-2.64-.59-10.3-2.26-13.47-2.2A1.34,1.34,0,0,0,477.21,245.11Z"/><path class="cls-14" d="M515.6,225.82c-1.35,1.9-20.59,2.7-24.88-.14-3-2-4.37-11.22-5.58-16.55,9.77-5.55,28.42-7.2,38.76-1.76a111.46,111.46,0,0,1-8.3,18.45Z"/><path class="cls-14" d="M437.07,225.82a111.46,111.46,0,0,1-8.3-18.45c10.35-5.44,29-3.79,38.77,1.76-1.22,5.33-2.61,14.59-5.59,16.55-4.29,2.84-23.52,2-24.88.14Z"/><path class="cls-15" d="M421.06,211.87l6.25-1.31.84,2.1c1.26,4.07,4.83,12.05,6.37,14.2,2.17,3,24.14,2.95,28.29.2,3.81-2.52,5.55-13.33,6.57-17.42,1.41-.5,5-1.72,7.09-1.65a38.12,38.12,0,0,1,6.7,1.21c1,3.69,2.73,15.24,6.69,17.86,4.16,2.75,26.12,2.8,28.29-.2,1.54-2.15,5.11-10.13,6.37-14.2l.85-2.11a2.2,2.2,0,0,1,0-1l6.46,1.36.5-1.78L526.14,207q.35-1,.75-1.89l-5-1.74c-11.63-5.28-28.41-2.79-38.44,3a28.7,28.7,0,0,0-7-1,34,34,0,0,0-7.27,1c-10-5.8-26.79-8.29-38.4-3l-5,1.74c.4.92.75,1.86,1.06,2.81l-6.28,2.16Zm64.08-2.74c9.77-5.55,28.42-7.2,38.76-1.76a111.46,111.46,0,0,1-8.3,18.45c-1.35,1.9-20.59,2.7-24.88-.14C487.74,223.72,486.35,214.46,485.14,209.13Zm-56.37-1.76c10.35-5.44,29-3.79,38.77,1.76-1.22,5.33-2.61,14.59-5.59,16.55-4.29,2.84-23.53,2-24.88.14A111.46,111.46,0,0,1,428.77,207.37Z"/><path class="cls-10" d="M528.42,217.73s-1.16-41.09-1-47.78-20.59-24.33-31.37-28.13,12.32-2.56,18-1.5,6.06,4.58,6.06,4.58,3.66.36,5.16,2.12l1.5,1.77s4.59,1.05,4.77,3.17.8,6.7.8,6.7,3.64-1.22,3.64,4.07.23,2.69.23,2.69,3.1,3.48,1.59,6.3-1,2.47-1,2.47a15.7,15.7,0,0,1,1.34,3.21c.66,2.08,1.9,10.25-.31,15.19a25.71,25.71,0,0,0-2.13,9.79Z"/><path class="cls-10" d="M421.23,217.73s1.16-41.09,1-47.78,20.58-24.33,31.37-28.13c11.17-3.94-12-2.61-18-1.5-5.66,1.06-6.05,4.58-6.05,4.58s-3.66.36-5.17,2.12l-1.5,1.77s-4.59,1.05-4.76,3.17-.81,6.7-.81,6.7-3.64-1.22-3.64,4.07-.22,2.69-.22,2.69-3.1,3.48-1.6,6.3,1,2.47,1,2.47a15.7,15.7,0,0,0-1.34,3.21c-.65,2.08-1.9,10.25.31,15.19a25.71,25.71,0,0,1,2.13,9.79Z"/><path class="cls-10" d="M513.54,140.44s-7.32-4-9.54-3.71a4.82,4.82,0,0,0-3.23,1.85s-.75-2.91-3.44-2.57a20.11,20.11,0,0,0-3.71.72s-1.88-2.25-3.07-2.25-2.9,1.53-2.9,1.53a2.74,2.74,0,0,0-2.89-1.53c-2,.34-2.55,1.36-2.55,1.36a2.9,2.9,0,0,0-3.24-1.4,9.73,9.73,0,0,0-3.48,1.57s-2.14-2.49-3.5-1.67l-1.37.82s-1.53-2.14-2.72-1a12.79,12.79,0,0,1-2,1.66s-.51-1-2.22-.68a5.87,5.87,0,0,0-2.38.89,9.06,9.06,0,0,0-3.07-.41c-1.36.14-1.53,1.67-1.53,1.67s-1-2.52-3.3-1.26L451,137.31a18.86,18.86,0,0,0-4.6,1.77c-1.53,1-.85,4.26-.85,4.26l-9.16,9.24S450.91,142,474.05,142a90.58,90.58,0,0,1,40.59,9.85Z"/><path class="cls-10" d="M488.82,141.25a8.6,8.6,0,0,1,3.68,1.08,1.23,1.23,0,0,1-.3,2.29c-1.29.41-3.2-.29-4.09.44s.88,2,.3,2.95c-.37.6-1.51.79-2.25,1.21-.89.51-1.18,1.34-2,1.88a4.36,4.36,0,0,1-3.35.42c-1.11-.31-1.87-1.09-1.82-1.88a1.11,1.11,0,0,0,0-.6c-.5-.93-3.09.1-4.12-.63-.46-.32-.34-.83-.51-1.25a2.67,2.67,0,0,0-.89-1l-2.48-2a2.51,2.51,0,0,1-.75-.82c-.28-.68.41-1.39,1.34-1.74a10.37,10.37,0,0,1,3.1-.46q6.36-.29,12.74-.25"/><path class="cls-10" d="M460.37,140.48a7.94,7.94,0,0,0-3.69,1.25,1.5,1.5,0,0,0,.31,2.65c1.29.46,3.19-.34,4.08.5s-.88,2.3-.29,3.4c.36.68,1.5.9,2.24,1.39.89.58,1.19,1.54,2,2.16a3.88,3.88,0,0,0,3.35.49,2.36,2.36,0,0,0,1.81-2.17,1.35,1.35,0,0,1,0-.69c.49-1.07,3.09.11,4.11-.72.46-.37.34-1,.51-1.45a3.28,3.28,0,0,1,.89-1.14l2.48-2.34a2.77,2.77,0,0,0,.75-.95c.29-.78-.41-1.6-1.33-2a9.05,9.05,0,0,0-3.1-.53c-4.24-.23-8.49-.32-12.74-.3"/><path class="cls-10" d="M467.78,143a7.94,7.94,0,0,0-3.69,1.25,1.49,1.49,0,0,0,.31,2.64c1.29.47,3.19-.33,4.08.51s-.88,2.3-.29,3.4c.36.68,1.5.9,2.24,1.39s1.19,1.54,2,2.16a3.9,3.9,0,0,0,3.36.49,2.36,2.36,0,0,0,1.81-2.17,1.35,1.35,0,0,1,0-.69c.49-1.07,3.09.11,4.11-.72.46-.37.34-1,.51-1.45a3.17,3.17,0,0,1,.89-1.14l2.48-2.34a2.77,2.77,0,0,0,.75-.95c.28-.78-.41-1.6-1.33-2a9.05,9.05,0,0,0-3.1-.53c-4.24-.23-8.49-.32-12.74-.3"/><path class="cls-10" d="M502.42,250.27c1.11,1,2.31,2.13,2.41,3.62a5.8,5.8,0,0,1-.2,1.6l-.53,2.45a.83.83,0,0,1-.19.46,1,1,0,0,1-.48.23,4,4,0,0,1-1.72.17,1.37,1.37,0,0,1-1.15-1.14,2.1,2.1,0,0,0,0-.71c-.19-.43-.79-.38-1.24-.49-1.12-.3-1.35-1.75-1.84-2.81a6,6,0,0,0-3.6-2.88,12.19,12.19,0,0,1-2.23-.84,2.29,2.29,0,0,1-1.23-1.92"/><path class="cls-10" d="M449.64,251.06c-1.11,1-2.31,2.13-2.41,3.62a5.79,5.79,0,0,0,.19,1.6l.54,2.45a.93.93,0,0,0,.18.46,1.06,1.06,0,0,0,.49.23,4,4,0,0,0,1.72.17,1.36,1.36,0,0,0,1.14-1.14,2.1,2.1,0,0,1,0-.71c.19-.43.79-.38,1.23-.49,1.13-.3,1.36-1.75,1.85-2.81a6,6,0,0,1,3.6-2.88,12.47,12.47,0,0,0,2.23-.84,2.31,2.31,0,0,0,1.23-1.92"/><path class="cls-4" d="M440,42.82c.92.07-6.35,31.93-9.73,35.3s-21,10.38-26.11,8.55-12.54,6.46-15,8.51L359.34,74.51l8-10.18,10.05-30.66A27.63,27.63,0,0,1,385.65,21c4.21-3.61,9.62-7.12,12.6-4.44,5.42,4.87,4.72,6.82,4.72,6.82s8-3.31,7.74,3.77c0,0,9.9-3,11,5.89,0,0,10.5-2.1,8.57,10.57l-2,8.39S430.78,42.13,440,42.82Z"/><path class="cls-16" d="M399.76,69.91A15.19,15.19,0,0,1,404.85,67a34.61,34.61,0,0,1,19.64-1.88l-.67.4c1.38-3.86,2.14-7.33,2.94-9.78A14.07,14.07,0,0,1,428.33,52a18.52,18.52,0,0,1-.83,4A91.62,91.62,0,0,1,425,65.9l-.18.5-.48-.17a36.38,36.38,0,0,0-5.5-.57,39.13,39.13,0,0,0-13.57,2.12C401.68,69,399.71,70.05,399.76,69.91Z"/><path class="cls-16" d="M391.64,28.34a5.46,5.46,0,0,1,.16,2.13,8.64,8.64,0,0,1-1.88,5.65c-.89,1.06-2.48,1.36-3.14,2.33a4.05,4.05,0,0,0-.16,3.88,5.89,5.89,0,0,0,7.93,2.59l.15-.07a9,9,0,0,0,3.19-4c.72-1.56,1.32-3.16,1.85-4.66a70.68,70.68,0,0,0,2.41-8.2,14.19,14.19,0,0,0,.56-5.61,19,19,0,0,0-.68-2c.1-.07.72.47,1.15,1.85A13.11,13.11,0,0,1,403,28.2a63.71,63.71,0,0,1-2.19,8.38A48.2,48.2,0,0,1,399,41.39a10,10,0,0,1-3.61,4.47,7,7,0,0,1-9.58-2.69c-.08-.16-.16-.31-.24-.48a5.08,5.08,0,0,1,.5-4.94,5,5,0,0,1,1.86-1.33,5.37,5.37,0,0,0,1.48-1,8.66,8.66,0,0,0,2-5.07A9.89,9.89,0,0,1,391.64,28.34Z"/><path class="cls-16" d="M394.41,45.59a5.94,5.94,0,0,0,.33,1.5A5.22,5.22,0,0,0,397.35,50a6,6,0,0,0,5.64-.36,11.64,11.64,0,0,0,4.77-5.51,30,30,0,0,0,3-13.46,39.61,39.61,0,0,0-.45-5.87,13.71,13.71,0,0,1,1.21,5.81,27.6,27.6,0,0,1-2.75,14,12.42,12.42,0,0,1-5.38,6,6.79,6.79,0,0,1-6.62.19,5.34,5.34,0,0,1-2.68-3.52C394.08,46.14,394.34,45.56,394.41,45.59Z"/><path class="cls-16" d="M404.33,50.05s.18.49.56,1.27a6,6,0,0,0,2.58,2.54,6.33,6.33,0,0,0,5.16.37,9.93,9.93,0,0,0,5-4.2c2.47-4.24,2.52-8.88,3.13-12.06a22.34,22.34,0,0,1,1.11-5.24,22.64,22.64,0,0,1-.22,5.33c-.16,1.65-.29,3.58-.64,5.78a18.72,18.72,0,0,1-2.31,6.85A10.71,10.71,0,0,1,413,55.34a7.07,7.07,0,0,1-6-.71,5.89,5.89,0,0,1-2.6-3.11C404.13,50.59,404.16,50,404.33,50.05Z"/><path class="cls-16" d="M416.32,53.38a15.63,15.63,0,0,1-.06,1.59,10,10,0,0,0,.39,4.11,5.07,5.07,0,0,0,4.14,3.58,5.41,5.41,0,0,0,5-4.26,82.5,82.5,0,0,0,3.6-13.66,47.94,47.94,0,0,1,1-5.82,19.66,19.66,0,0,1-.16,5.93,62.25,62.25,0,0,1-3.3,14,6.48,6.48,0,0,1-6.27,5,6,6,0,0,1-4.87-4.49,9.35,9.35,0,0,1,0-4.43A3.4,3.4,0,0,1,416.32,53.38Z"/><g id="freepik--Character--inject-2"><path class="cls-6" d="M633.05,534.12c8.2,2.21,15,2.89,22.46-1.54a42.12,42.12,0,0,0,4-2.4,21.91,21.91,0,0,0,5.91-7.9c19.66-45.79,36.39-135.49,36.39-135.49l-37.35-15.41-41.89,90.23a4.53,4.53,0,0,1,.15.44,108.51,108.51,0,0,1,2.31,21.5c.18,6.33.21,12.67.86,19a73.47,73.47,0,0,0,4.92,19.62C632.19,525.54,631.54,530.83,633.05,534.12Z"/><path class="cls-6" d="M633.05,534.12c-.4-2.86,4.14-3.57,3.89-6.45-1.21-14.43-1.26-29.23,3.18-43.13,3.84-12.05,9.65-23.4,12.07-35.87l-52.48-91.56c-3.71-6.44-9.81-13.7-17-15.5l-7.76-1.74c-2.28,27.21-11.13,55.87-11.51,83.25-.23,16.27,2.43,32.43,6.13,48.23a247.4,247.4,0,0,0,14.51,43.45l-2.39-32.92C593.75,500.53,610.68,527.42,633.05,534.12Z"/><path class="cls-17" d="M637.72,429.48c-.07-.5-.16-1-.24-1.49l-.09.11a34.88,34.88,0,0,0-7.86,24.51,12.87,12.87,0,0,0,1.16,5.32A46,46,0,0,1,637.72,429.48Z"/><path class="cls-17" d="M594.18,544.65c-.2-1.31-.37-2.76-.61-4.61-.53-4.26-1.22-10-2-17-1.58-14.6-3.81-34.22-6.12-56.12s-4.27-41.77-5.63-56.14c-.64-7-1.14-12.76-1.55-17.06-.13-1.85-.23-3.36-.31-4.64a5.18,5.18,0,0,1,0-1.62,6.3,6.3,0,0,1,.19,1.62c.21,1.34.39,2.79.66,4.63.68,4.21,1.37,10,2.22,16.93,1.6,14.23,3.8,34.2,6.12,56.13s4.24,41.78,5.6,56.15c.63,7,1.11,12.77,1.48,17.05"/><path class="cls-18" d="M640.07,309.35c-22-9.42-74.47,10.24-99.06,10.1-23.64,0-31.08,2.22-54.48-2.33-17.34-3.46-43.64-16.22-58.47-34.62l-7.38,12.79c4.22,14.58,14.8,21.17,27.27,28.58,13,7.54,48.25,17.62,87.66,17.74,34.62.13,69.08-22.29,95.65-11.29"/><path class="cls-4" d="M696.14,353.51a156,156,0,0,0,4.59-15L690.24,310.1,670,339.75s7.54,25.44,8.37,26.43C678.41,366.18,695.56,353.63,696.14,353.51Z"/><path class="cls-19" d="M627.86,286.46h0a43.52,43.52,0,1,1-19.73,58.3A43.52,43.52,0,0,1,627.87,286.45Z"/><path class="cls-20" d="M627.86,286.46h0a43.52,43.52,0,1,1-19.73,58.3A43.52,43.52,0,0,1,627.87,286.45Z"/><path class="cls-21" d="M624.94,281.63h0a43.52,43.52,0,1,1-19.73,58.29A43.51,43.51,0,0,1,625,281.63Z"/><path class="cls-15" d="M612,328.9a33.87,33.87,0,0,1,12.53-34.5,34.36,34.36,0,0,1,16.76-6.71,32.29,32.29,0,0,1,9.86.29,33,33,0,0,1,9.65,3.35,34.27,34.27,0,0,1,9.09,54.28,34.59,34.59,0,0,1-2.8,2.62,33.92,33.92,0,0,1-47.79-4.31,26.07,26.07,0,0,1-4.3-7.11,62.72,62.72,0,0,0,4.79,6.66c.64.73,1.3,1.42,2,2.09a33.16,33.16,0,0,0,46.9-1,30.32,30.32,0,0,0,5.46-7.68,31.52,31.52,0,0,0,3.1-9.31,32.62,32.62,0,0,0-17.15-34.65,30.65,30.65,0,0,0-9.29-3.19,31.52,31.52,0,0,0-9.4-.34,32.92,32.92,0,0,0-25.85,17.89A33.83,33.83,0,0,0,612.58,329a69.76,69.76,0,0,0,2.39,7.86A25.31,25.31,0,0,1,612,328.9Z"/><g class="cls-22"><path class="cls-8" d="M639.82,307.59,652.14,335l-6.36,2.86-10-22.35L630.26,318,628,312.91Z"/></g><path class="cls-4" d="M668.32,372.89l29.42,12.27,15.53-29.36s10-18.16,9-21.92a17.63,17.63,0,0,0-3.31-6.35s4-4.37,1.55-8.14a17.07,17.07,0,0,0-8-5.51s-.68-8.62-3.69-10.19-37-5.62-37-5.62-3.26,7,1.84,8.45L667.58,308c0,.22-.08.44-.1.67a6,6,0,0,0,5.37,6.52l-7.41,2.57s1.86,6.92,6.65,8.14l-6.91,1.89a12.11,12.11,0,0,0,6.05,9.49c5.68,2.9,18.27-.37,18.27-.37l6.81,7.85S678.7,358.53,674.7,364,668.32,372.89,668.32,372.89Z"/><path class="cls-16" d="M671.56,325.68a78.39,78.39,0,0,1,14.75-4.05,24.63,24.63,0,0,1,8.56.35,55.58,55.58,0,0,1,6.56,2.09c3.64,1.35,5.94,1.75,5.93,2s-2.5.22-6.27-.85c-2.07-.58-4.08-1.2-6.55-1.68a25.51,25.51,0,0,0-8-.18,117.57,117.57,0,0,0-14.58,3.49,16.71,16.71,0,0,1-6.26,1A37.14,37.14,0,0,1,671.56,325.68Z"/><path class="cls-16" d="M696.63,344.75l-.14,1.34a42.75,42.75,0,0,1-3.66-3.59,44.07,44.07,0,0,1-4.36-5.63l1,.25a20.39,20.39,0,0,1-8.26,1.65c-2,0-3.18-.21-3.18-.4s1.18-.26,3.13-.56a23.65,23.65,0,0,0,7.51-2.07l.62-.37.35.58a48.37,48.37,0,0,0,4.31,5.36c1.09,1.18,2.37,2.46,3.51,3.53l.85.78-1,.59c-6.53,3.57-10.69,7.53-10.91,7.17A28.85,28.85,0,0,1,696.63,344.75Z"/><path class="cls-16" d="M698.86,315l-6.28-1.12a17.25,17.25,0,0,0-3.58-.5,23.13,23.13,0,0,0-3.9.3c-5.36.84-10.21,2.29-13.74,3.13a18.7,18.7,0,0,1-5.83,1,24.19,24.19,0,0,1,5.5-2.19A84.93,84.93,0,0,1,684.87,312a24.48,24.48,0,0,1,4.18-.28,16.31,16.31,0,0,1,3.86.64l6.24,1.49a20.59,20.59,0,0,1,5.53,1.64A20.72,20.72,0,0,1,698.86,315Z"/><path class="cls-16" d="M699.39,307l-6-.73-3.53-.49L688,305.5l-.94-.12h-.84c-5,.52-9.64,1.45-13.12,2a22,22,0,0,1-5.54.56,17.56,17.56,0,0,1,5.32-1.73,98.12,98.12,0,0,1,13.26-2.53,6,6,0,0,1,1.12,0l1,.14,1.85.29,3.54.61,5.91,1.07c3.37.67,5.45,1.2,5.41,1.46A19.55,19.55,0,0,1,699.39,307Z"/></g><path class="cls-20" d="M651,323.16a.46.46,0,0,1-.38,0,.42.42,0,0,1-.23-.3l-.5-2.88-2.25.75a.52.52,0,0,1-.41,0,.49.49,0,0,1-.25-.32l-.26-.77a.53.53,0,0,1,0-.41.52.52,0,0,1,.32-.25l2.52-.84-.74-4.19-2.52.84a.52.52,0,0,1-.41,0,.52.52,0,0,1-.25-.32l-.26-.77a.48.48,0,0,1,0-.41.5.5,0,0,1,.31-.25l2.79-.93-.5-2.88a1,1,0,0,1,0-.39.42.42,0,0,1,.29-.26l.84-.28a.53.53,0,0,1,.39,0,.41.41,0,0,1,.22.3l.51,2.88,3.36-1.12-.51-2.88a1,1,0,0,1,0-.38.42.42,0,0,1,.29-.26l.84-.28a.52.52,0,0,1,.39,0,.41.41,0,0,1,.22.3l.51,2.89,2.2-.73a.55.55,0,0,1,.42,0,.47.47,0,0,1,.27.31l.26.77a.48.48,0,0,1,0,.41.6.6,0,0,1-.33.27l-2.45.81.74,4.19L659,315a.55.55,0,0,1,.42,0,.49.49,0,0,1,.27.31l.25.77a.55.55,0,0,1,0,.42.58.58,0,0,1-.33.26l-2.73.9.51,2.89a.5.5,0,0,1-.37.64l-.83.28a.48.48,0,0,1-.39,0,.42.42,0,0,1-.23-.3l-.5-2.88-3.34,1.11.51,2.88a.51.51,0,0,1-.37.65Zm.39-5.67,3.33-1.11-.74-4.2-3.33,1.11Z"/><path class="cls-23" d="M353.12,427.72a25.74,25.74,0,0,0-3.43,5.75,71.78,71.78,0,0,0-7.33,31.26,25.38,25.38,0,0,0,.51,6.68c.18,0,.2-2.57.32-6.66a88.35,88.35,0,0,1,7.27-30.94A62,62,0,0,0,353.12,427.72Z"/><path class="cls-4" d="M296.69,385.23c-.52-2,.91-22.54.91-22.54l-30.67,3.36-30.27-6s-.38,22.78-1.07,24.69-18.66,5.34-18.66,5.34,8.41,20.45,48,22.18,50.7-17.87,50.7-17.87S297.21,387.19,296.69,385.23Z"/><path class="cls-16" d="M236.68,361.24c.47.38,3.79,5.2,4.29,5.58,12.12,9.41,13.88,11.91,24.67,12.82,10.82,0,15.53-1.25,27.63-11.58,4.07-3.47,3.26-4.73,4.15-5.37C278,361.79,256.14,362,236.68,361.24Z"/><path class="cls-4" d="M219.67,299.46s-5.45-9.23-8.78-9c-2,.13,2.44,4.87,2.79,10,.47,6.91-4.65,7.57-3.22,11.53s2.91,17.62,8.28,17.28c2.12-.14,4.5-4.74,4.5-4.74S221.14,305.66,219.67,299.46Z"/><path class="cls-24" d="M216.74,324.65a5.14,5.14,0,0,0-4.89,4.22,4.48,4.48,0,0,0,.76,3.06,4,4,0,0,0,1.92,1.47,5.48,5.48,0,0,0,4.94-.5c.28-.18.42-.59.1-.79a1.11,1.11,0,0,0-1.16.11,3.15,3.15,0,0,1-2.85.16,2.68,2.68,0,0,1-.42-.19l-.36-.21-.13-.09c.11.08-.09-.1-.12-.13l-.27-.31a3.65,3.65,0,0,1,0-4.55,2.88,2.88,0,0,1,.43-.43,2,2,0,0,1,.33-.24l0,0,.14-.08.39-.18c-.12.05.2-.06.24-.07l.18,0,.08,0a3.75,3.75,0,0,1,.47-.05c.34,0,.86-.25.91-.64s-.45-.5-.75-.48Z"/><path class="cls-4" d="M317,303.43s5.33-9.3,8.66-9.13c2,.1-2.37,4.9-2.65,10.07-.38,6.91,4.75,7.5,3.38,11.48s-2.67,17.66-8,17.39c-2.13-.11-4.56-4.67-4.56-4.67S315.63,309.65,317,303.43Z"/><path class="cls-4" d="M324,309.36a.08.08,0,0,0,0,0c-1.45,6-3.19,12.22-4.52,19.43-3.5,19-9.58,27.58-23,35.46-14,8.28-18.25,11.55-30,11.48-11.75-1-15.69-4.59-28.93-14-12.63-9-18-18.06-19.78-37.33-.4-4.29-1-8.27-1.57-12-.44-2.81-.89-5.51-1.3-8.15a.36.36,0,0,0,0-.11v0c-1.46-9.69-2.21-18.6.83-29.2,3.13-11,12.89-24.31,27.21-32.38h0a55.09,55.09,0,0,1,29.66-7.18c30.21,1.32,49.79,26.57,53.24,44.37C328,290.68,326.34,299.64,324,309.36Z"/><path class="cls-8" d="M272.26,332a5.28,5.28,0,0,1-5.56-.52c-.33-.26-1.52,0-1.05.34a7.4,7.4,0,0,0,7.57.55c.21-.12.19-.3-.06-.41a1.16,1.16,0,0,0-.9,0"/><path class="cls-8" d="M264.88,331.25a11.78,11.78,0,0,0-4.05-1.19.87.87,0,0,0-.63.17c-.13.1-.16.24,0,.33a4.52,4.52,0,0,0,2.23.61.83.83,0,0,0,.7-.24c.14-.18-.09-.31-.28-.32a3.47,3.47,0,0,1-1.79-.5l-.64.51A10.42,10.42,0,0,1,264,331.7a.88.88,0,0,0,.76-.05c.15-.08.32-.28.1-.4"/><path class="cls-8" d="M259.32,331.18a4.57,4.57,0,0,1-3.64-2.15c-1-1.92.11-4.1,1.91-5.21.19-.13.1-.3-.09-.36a1.07,1.07,0,0,0-.76.15,4.84,4.84,0,0,0-2.46,4.39,4.11,4.11,0,0,0,3.07,3.4,6.7,6.7,0,0,0,1.54.32c.21,0,.59,0,.7-.24s-.07-.28-.27-.3"/><path class="cls-8" d="M273.94,331.65a11.84,11.84,0,0,1,4.13-.84.91.91,0,0,1,.62.22c.12.11.14.26,0,.34a4.51,4.51,0,0,1-2.27.41.81.81,0,0,1-.68-.3c-.12-.19.12-.3.3-.29a3.57,3.57,0,0,0,1.83-.34l.6.56a10.53,10.53,0,0,0-3.7.76.88.88,0,0,1-.74-.12c-.15-.09-.3-.31-.07-.4"/><path class="cls-8" d="M279.48,332.06a4.53,4.53,0,0,0,3.81-1.83c1.12-1.82.25-4.09-1.44-5.36-.18-.13-.07-.3.12-.34a1,1,0,0,1,.74.22,4.82,4.82,0,0,1,2.07,4.58,4.11,4.11,0,0,1-3.36,3.12,6.2,6.2,0,0,1-1.55.18c-.21,0-.59-.09-.69-.29s.1-.28.3-.28"/><path class="cls-25" d="M284.51,289.85c0,1.09-.07,2.18-.11,3.27,0,.83-.06,1.67-.08,2.49,3.05-.58,5.66-.93,7.63-1.15,4.16-.48,6.28-.7,8.67-.24a24,24,0,0,1,5.43,1.82,14.64,14.64,0,0,1,2.84,1.52c2,1.43,2.75,3,3.09,2.87s-.13-1.47-.18-1.61a13,13,0,0,0-4.12-5.7,17.06,17.06,0,0,0-5.49-2.58c-2.35-.65-8.91-1.31-17.68-.69"/><path class="cls-25" d="M294.42,303.45a3.7,3.7,0,0,1,4,.89,3.65,3.65,0,0,1,1,1.72,3.72,3.72,0,0,1-1,3.32,3.43,3.43,0,0,1-4,.51,3.77,3.77,0,0,1-1.67-4.48,3.35,3.35,0,0,1,1.68-2"/><path class="cls-25" d="M283.09,308.07s7.7-5.1,11.53-5.28c5.58-.27,12.31,2.88,14.17,5.51,0,0-8.88-4.65-12.81-4.36C292.22,304.23,283.09,308.07,283.09,308.07Z"/><path class="cls-25" d="M257.64,288.79c-.05,1.09-.11,2.18-.17,3.27-.05.84-.09,1.67-.14,2.49-3-.84-5.56-1.42-7.5-1.81-4.1-.84-6.2-1.25-8.62-1a24.82,24.82,0,0,0-5.57,1.33,15.42,15.42,0,0,0-3,1.27c-2.1,1.26-3,2.74-3.33,2.59s.27-1.45.33-1.59a13,13,0,0,1,4.59-5.32A17,17,0,0,1,240,288c2.4-.45,9-.53,17.67.84"/><path class="cls-25" d="M246.59,301.48a3.7,3.7,0,0,0-4,.54,3.75,3.75,0,0,0-1.15,1.63,3.69,3.69,0,0,0,.73,3.39,3.42,3.42,0,0,0,3.9.86,3.78,3.78,0,0,0,2.05-4.32,3.34,3.34,0,0,0-1.5-2.1"/><path class="cls-25" d="M257.47,307.07s-7.22-5.75-11-6.27c-5.54-.75-12.52,1.8-14.6,4.26,0,0,9.25-3.86,13.14-3.22C248.71,302.44,257.47,307.07,257.47,307.07Z"/><path class="cls-26" d="M207.9,253.69s25.41-11.05,57.07-5.63,46.08,26.2,50.83,40.78a102.85,102.85,0,0,1,4.64,29.05s7.64,4.31,14.6-24.59c10.14-42.12-34.69-81.63-45-82.08S224.77,206.82,207.9,253.69Z"/><path class="cls-26" d="M214.15,241.53s-3.87-33.72,19.48-39,72.43-14.39,85.3,16.81Z"/><path class="cls-27" d="M210,310.27a20.15,20.15,0,0,1-4.7-8.92c-2.18-9.15-5.85-28-1.36-36.15,1.95-3.53,3.14-14.27,3.45-17.43,1.62-16.54-2.54-11.64,21.59-29.45s27.94-12.45,62.82-8.69,44.4,15.54,40.27,48.19c0,0-46.49-15.59-69.21-4.56s-48.31,48.64-47.3,62.63C215.55,316.33,212.5,313.07,210,310.27Z"/><path class="cls-26" d="M202,281.83s37.58-44,79.21-42.55c0,0-53-9.27-78.26,28.15Z"/><path class="cls-26" d="M332.39,242.65s-40.47-16.75-56.19-18.73S326,227.3,332,234.73Z"/><ellipse class="cls-28" cx="268.79" cy="345.68" rx="2.91" ry="13.85" transform="translate(-88.28 599.15) rotate(-87.5)"/><path class="cls-24" d="M320.57,330.77a3.72,3.72,0,0,1,3.5,3.13,3.63,3.63,0,0,1-.49,2.41,2.76,2.76,0,0,1-.39.51s-.29.3-.12.15l0,0-.24.16c-.16.1.11-.05,0,0s-.2.11-.3.15l-.31.14c-.13,0,.11,0,0,0l-.21.07a2.78,2.78,0,0,1-.71.12,3.18,3.18,0,0,1-1.89-.52,1.15,1.15,0,0,0-1.17.12c-.25.18-.45.57-.1.78a5.23,5.23,0,0,0,4.35.46,4.68,4.68,0,0,0,2.17-1.29,4.49,4.49,0,0,0,.07-5.95,5,5,0,0,0-3.49-1.6,1.11,1.11,0,0,0-1.06.48c-.18.35.15.61.48.63Z"/><path class="cls-11" d="M269.23,342.83c-8-.35-21.73-4.61-21.73-4.61s2.85,22.22,21.29,23,22.94-21.33,22.94-21.33S277.18,343.18,269.23,342.83Z"/><path class="cls-12" d="M269.31,342.83c-3.78-.16-21.12-3.48-21.12-3.48s6.92,14.65,20.6,15.25c14.83.64,21.77-13.3,21.77-13.3Z"/><path class="cls-13" d="M269.45,343.39c-3.78-.16-15.26-1.29-15.26-1.29s4,4.21,15.31,4.71,15.11-3.26,15.11-3.26Z"/><path class="cls-11" d="M291.76,339.34c-.4-.11-4.29,1.81-6.16,1.57-3.11-.4-6-.28-8.23-.55-3.86-.45-6.39.92-8.07.85s-4.08-1.66-8-1.54c-2.28.07-4.67-.37-7.81-.24-1.88.07-5.59-1.9-6-1.82-.56.1.45,6.38,21.61,7.3S292.31,339.5,291.76,339.34Z"/><path class="cls-2" d="M175.75,467.76s-11.14,30-8.17,44.36,20.65,32.07,20.65,32.07S194.22,483.72,175.75,467.76Z"/><path class="cls-4" d="M109.63,267.28l-2.57-18.37s4.83-23.19,4-26.42-2.38-18.9-2.38-18.9L91.86,186.75a5.62,5.62,0,0,0-5.16,3.58s-7.24-.25-8.58,4.79a4.12,4.12,0,0,0-5.88,3.67,20,20,0,0,0-.17,4.64c-1,.29-6.9,2.08-6.79,5.06a46.1,46.1,0,0,0,3.28,13.23,5,5,0,0,0,3.82,2.83h0l2.23,8s2.33,13.2,5.67,19.24l2.45,3.55,1.7,18A45.55,45.55,0,0,0,109.63,267.28Z"/><path class="cls-16" d="M93.29,193.09a3.65,3.65,0,0,1-.18,1.27A26.48,26.48,0,0,1,92,197.64l-.82,2.3a9.41,9.41,0,0,1-1.41,2.41,7,7,0,0,1-2.39,2,4.21,4.21,0,0,1-3.33.31,2.33,2.33,0,0,1-1.33-1.23,3.4,3.4,0,0,1-.13-1.7,22.31,22.31,0,0,1,.52-3,27.75,27.75,0,0,1,1.71-4.86c.6-1.35,1.17-2.28,1.57-3.11a7.41,7.41,0,0,1,.69-1.06,4.81,4.81,0,0,1-.51,1.16c-.35.73-.87,1.81-1.43,3.13a34.67,34.67,0,0,0-1.56,4.85,22.58,22.58,0,0,0-.5,3,2.9,2.9,0,0,0,.11,1.46,1.58,1.58,0,0,0,1,.94,3.68,3.68,0,0,0,2.94-.26,6.82,6.82,0,0,0,2.27-1.83,8.79,8.79,0,0,0,1.38-2.27c.33-.78.59-1.56.89-2.3.56-1.35,1-2.42,1.25-3.2S93.27,193.09,93.29,193.09Z"/><path class="cls-16" d="M84.18,204.43a.82.82,0,0,1,0,.35,5.8,5.8,0,0,1,0,1,8.92,8.92,0,0,1-.78,3.71A11.53,11.53,0,0,1,79.92,214a4.24,4.24,0,0,1-3.25.91,3.11,3.11,0,0,1-1.67-.87,3,3,0,0,1-.73-1.79,16.5,16.5,0,0,1,.41-3.57c.2-1.13.42-2.3.67-3.23.51-2,1-3.84,1.35-5.41s.65-2.81.82-3.66a7.93,7.93,0,0,1,.33-1.36,7.16,7.16,0,0,1,0,1.39,27.65,27.65,0,0,1-.69,3.72c-.33,1.57-.77,3.41-1.23,5.44-.22,1-.45,2.09-.65,3.2a16,16,0,0,0-.38,3.45,2.56,2.56,0,0,0,.6,1.48,2.3,2.3,0,0,0,1.37.72,3.77,3.77,0,0,0,2.91-.8,11.68,11.68,0,0,0,3.37-4.23,10.24,10.24,0,0,0,.92-3.56A14.09,14.09,0,0,1,84.18,204.43Z"/><path class="cls-16" d="M80.93,213.19a2,2,0,0,1,.17.4,8.16,8.16,0,0,1,.33,1.17,13.89,13.89,0,0,1,.26,4.5,9.93,9.93,0,0,1-2.53,6.11,5.43,5.43,0,0,1-3.59,1.73,2.89,2.89,0,0,1-2.09-.77,4.18,4.18,0,0,1-1-2,54.28,54.28,0,0,1-.32-8.16l.23-6.64a32,32,0,0,0,0-4.46,14.89,14.89,0,0,1,.06-1.64v.41c0,.28.09.68.12,1.22.1,1.05.16,2.58.16,4.48s0,4.16,0,6.62a58.71,58.71,0,0,0,.37,8.07,3.33,3.33,0,0,0,.82,1.77,2.29,2.29,0,0,0,1.72.65A5.07,5.07,0,0,0,78.82,225a9.78,9.78,0,0,0,2.53-5.81A18.52,18.52,0,0,0,80.93,213.19Z"/><path class="cls-29" d="M200,123.08l-.56-1.17-.67,1.1a5.57,5.57,0,0,1-2.24,2l-1.16.53,1.1.69a5.31,5.31,0,0,1,2,2.24l.53,1.14.69-1.07a5.13,5.13,0,0,1,2.24-2l1.14-.56-1.07-.67A5.47,5.47,0,0,1,200,123.08Z"/><path class="cls-29" d="M234.83,113.43l-.32-.67-.38.62a3.36,3.36,0,0,1-1.3,1.18l-.69.31.64.39a3,3,0,0,1,1.16,1.3l.34.69.39-.64a3.12,3.12,0,0,1,1.29-1.18l.66-.32-.61-.39A3.12,3.12,0,0,1,234.83,113.43Z"/><path class="cls-29" d="M57.77,134.46l-.56-1.17-.66,1.1a5.45,5.45,0,0,1-2.27,2l-1.14.56,1.07.66a5.2,5.2,0,0,1,2,2.24l.54,1.14.69-1.07a5.28,5.28,0,0,1,2.23-2l1.15-.56-1.08-.66A5.57,5.57,0,0,1,57.77,134.46Z"/><path class="cls-29" d="M63.69,91.37l-.93-1.93-1.13,1.84a9.1,9.1,0,0,1-3.78,3.36l-1.93.93,1.84,1.13a8.91,8.91,0,0,1,3.36,3.78l.93,1.93,1.13-1.84A8.91,8.91,0,0,1,67,97.21l1.93-.8-1.84-1.13A8.87,8.87,0,0,1,63.69,91.37Z"/><path class="cls-29" d="M166.46,85.36l-1.3-1.71-.74,2a8.9,8.9,0,0,1-3,4.07l-1.71,1.3,2,.73a8.94,8.94,0,0,1,4.06,3l1.3,1.71.74-2a9.08,9.08,0,0,1,3-4.07l1.71-1.3-2-.74A8.88,8.88,0,0,1,166.46,85.36Z"/><path class="cls-29" d="M167.33,249.6l.5-1.84-1.8.56a8.29,8.29,0,0,1-4.42,0l-1.84-.51.57,1.81a8.32,8.32,0,0,1,0,4.51l-.53,1.84,1.83-.57a8.22,8.22,0,0,1,4.32,0l1.84.53-.56-1.84A8,8,0,0,1,167.33,249.6Z"/><path class="cls-2" d="M113.74,251.5l5.62,100.75,96.43,38.23c-.8,3.86-24.45,20.83-25.31,24.67-3.74,16.73-8.32,33.38-16.23,48.68-1.74,3.37-.61,19-2.64,22.14-1.16-6.77-5-23.63-5-23.63a727.54,727.54,0,0,1-86.22-81.09C68.41,368,77.17,259.56,76,258.12S113.74,251.5,113.74,251.5Z"/><path class="cls-21" d="M194.39,182.82c3.45,3.68,7,7.22,10.35,11.07a14.88,14.88,0,0,1,3.9,12,16.23,16.23,0,0,1-7.1,10.92c-11.38,8.9-25.49,16.46-40.32,15.5a39.68,39.68,0,0,1-26.16-13c-2.8-3,1.84-7.32,4.66-4.35a33.26,33.26,0,0,0,19.5,10.83,38.7,38.7,0,0,0,19.09-2.63,73.58,73.58,0,0,0,16.29-9,21.89,21.89,0,0,0,6.84-6.15,8.43,8.43,0,0,0-1.34-9.68c-3.35-3.79-6.89-7.4-10.34-11.07a3.18,3.18,0,0,1,4.63-4.34Z"/><path class="cls-21" d="M124.41,116.47c-3.25-3.46-6.47-6.94-9.74-10.39a9.07,9.07,0,0,0-7.17-3.39c-3.75.22-6,2.93-8.23,5.54-8,9.27-15.29,21-15.43,33.63a32.88,32.88,0,0,0,9.56,22.67c2.75,3-1.88,7.37-4.66,4.48A40.25,40.25,0,0,1,77.59,145.1a45.44,45.44,0,0,1,4.69-22.6,81.84,81.84,0,0,1,11.87-17.93,21.24,21.24,0,0,1,9.41-7.47,14.66,14.66,0,0,1,13.34,2.43A120.28,120.28,0,0,1,129,112.22a3.18,3.18,0,0,1-4.63,4.25Z"/><path class="cls-21" d="M84,208.49l6.81,4.58h0l.11.19h.19l4.2,7.27S84.28,232.4,80,244.86L69.44,233.58l-.29-.32L58.58,222C71.38,218.66,84,208.49,84,208.49Z"/><rect class="cls-21" x="87.33" y="195.04" width="10.65" height="33.38" rx="5.25" transform="translate(-119.62 120.34) rotate(-43.07)"/><path class="cls-21" d="M135.29,98.25l36.62,39.2,2,2.07,34.62,37c-.55,1-74,76.9-113.07,32.45h0C53.58,166.9,134.32,98.77,135.29,98.25Z"/><path class="cls-21" d="M84,242.42,60.57,217.35a16.26,16.26,0,0,0-23-.78l-.18.18h0l45.66,48.84h0l.19-.17a16.24,16.24,0,0,0,.77-23Z"/><rect class="cls-30" x="26.86" y="213.66" width="40.04" height="83.2" transform="translate(-161.69 100.81) rotate(-43.07)"/><rect class="cls-20" x="37.61" y="225.32" width="19.63" height="58.88" transform="translate(-161.2 101.05) rotate(-43.07)"/><path class="cls-15" d="M80.09,206s3.6,4.05,8.16,8.93,8.29,8.81,8.36,8.74-3.67-4-8.14-8.85S80.13,206,80.09,206Z"/><path class="cls-15" d="M87.48,198.44s3.89,4.36,8.82,9.6,9,9.6,9,9.44-3.89-4.37-8.82-9.6S87.55,198.4,87.48,198.44Z"/><path class="cls-15" d="M60.79,217.3s4.85,5.39,10.94,12S82.91,241,82.91,241s-4.83-5.4-10.94-12S60.84,217.25,60.79,217.3Z"/><path class="cls-31" d="M135.29,98.25v.25l.37.74,1.43,2.81,1,2,1.31,2.37c1,1.71,2,3.67,3.28,5.74.64,1,1.32,2.13,2,3.29s1.47,2.38,2.2,3.5l1.21,1.83c.2.3.4.64.62,1l.64.92,2.75,3.86a199.2,199.2,0,0,0,13.36,16.35,203.66,203.66,0,0,0,15.12,14.7l3.61,3,.88.73.88.7,1.81,1.27c1.16.88,2.26,1.78,3.31,2.44l3.12,2.25c2,1.46,3.84,2.64,5.45,3.74l2.27,1.49,2,1.19,2.69,1.62.7.42.25.15-.22-.17-.71-.44L204,174.36,202,173.15c-.7-.44-1.45-1-2.27-1.52-1.61-1.1-3.47-2.28-5.44-3.76l-3.1-2.27c-1.07-.78-2.27-1.68-3.29-2.44l-1.71-1.36-.91-.68-.85-.75-3.61-3.05a199.11,199.11,0,0,1-15.07-14.7,200.38,200.38,0,0,1-13.37-16.28l-2.65-3.81-.67-.92-.62-1-1.21-1.83c-.79-1.18-1.59-2.37-2.2-3.46l-2-3.3c-1.3-2.07-2.35-4-3.31-5.69-.48-.85-.94-1.64-1.33-2.37s-.74-1.42-1.07-2l-1.48-2.79-.4-.74Z"/><polygon class="cls-20" points="151.79 155.05 136 159.82 123.12 149.5 122.78 166 108.99 175.06 124.57 180.48 128.94 196.38 138.9 183.23 155.38 184.02 145.96 170.47 151.79 155.05"/><path class="cls-31" d="M135.29,98.25l-.24.2-.69.58c-.6.51-1.49,1.25-2.61,2.23-2.26,2-5.47,4.87-9.27,8.64s-8.23,8.38-12.77,13.82A152.78,152.78,0,0,0,96.2,142.36a98.93,98.93,0,0,0-9.81,20.81A62.32,62.32,0,0,0,84,173l-.18,1.15,0,1.14,0,1.14,0,1.09-.15,4.22a41.16,41.16,0,0,0,2.31,12.43c.49,1.42.94,2.5,1.26,3.21l.39.82.13.26a1.62,1.62,0,0,0-.11-.28,2.69,2.69,0,0,0-.36-.82c-.3-.73-.73-1.79-1.22-3.21a40.72,40.72,0,0,1-2.19-12.43,41.51,41.51,0,0,1,.15-4.17l0-1.12,0-1.11,0-1.14.2-1.15a65.27,65.27,0,0,1,2.38-9.74,99.59,99.59,0,0,1,9.78-20.75,158.78,158.78,0,0,1,13.47-18.62c4.54-5.43,9-10.06,12.73-13.86a117.66,117.66,0,0,1,9.29-8.66c1.1-1,2-1.77,2.58-2.23l.67-.58Z"/><path class="cls-28" d="M102.89,218.11a2.9,2.9,0,0,1-.54,3.56,7,7,0,0,1-2.37,1.45l-1.09.45a3.5,3.5,0,0,0,1.15-.26,6,6,0,0,0,2.37-1.45,3.3,3.3,0,0,0,.89-2.71,1.8,1.8,0,0,0-.32-.8C103,218.19,102.91,218.11,102.89,218.11Z"/><path class="cls-4" d="M107.4,222.08l-19-19.38a10.49,10.49,0,0,0-1.61,11.42,30.46,30.46,0,0,0,7.42,9.66c-7.6,3.61-12.69,12.82-6.36,22.56"/><path class="cls-16" d="M106.9,221.6l-1-1.08L102,216.43l-13.45-14-.16-.17-.16.18a8.66,8.66,0,0,0-2.5,4.93,12.1,12.1,0,0,0,.47,5.82,18.71,18.71,0,0,0,3.6,6A56.81,56.81,0,0,0,94,223.72a17.62,17.62,0,0,0-7.11,6.77A18.65,18.65,0,0,0,84.34,238a16.11,16.11,0,0,0,0,3.47h0a16.57,16.57,0,0,1,.08-3.45A19.08,19.08,0,0,1,87,230.66a17.35,17.35,0,0,1,7.2-6.72l0,0,0,.05v-.08l.21-.1-.2-.2v0h0a54.67,54.67,0,0,1-4.34-4.79A18.55,18.55,0,0,1,86.58,213a12.13,12.13,0,0,1-.45-5.61A8.37,8.37,0,0,1,88.31,203l13.47,13.66,4,4,1.08,1c.24.33.41.33.41.33Z"/><path class="cls-23" d="M271.59,534.53s-9-6.14-15.78-6.14-15.68,3.07-15.68,3.07,12.27-1.36,17.39,0S271.59,534.53,271.59,534.53Z"/><path class="cls-10" d="M461.77,291.11a6.1,6.1,0,0,0,2.82.95l1.1.34c3.24,0,6.49,0,9.72-.22a7.06,7.06,0,0,0,2.37-.4l.22-.11c2.4.07,4.8.12,7.21.11l1.1-.3a6.63,6.63,0,0,0,2.81-.83.94.94,0,0,0-.23-1.75c-1-.31-2.44.22-3.12-.33s.67-1.53.23-2.26c-.28-.45-1.15-.6-1.72-.92s-.9-1-1.54-1.44a3.38,3.38,0,0,0-2.54-.32c-.91-.07-2.13.31-2.42-.32a1,1,0,0,1,0-.52,1.8,1.8,0,0,0-1.38-1.66,3,3,0,0,0-2.56.37c-.63.48-.86,1.21-1.54,1.65a4.72,4.72,0,0,1-.71.36,2.37,2.37,0,0,0-.85-.49,3,3,0,0,0-2.56.37c-.63.48-.86,1.21-1.54,1.66s-1.43.54-1.71,1.06c-.45.84,1,1.89.23,2.6s-2.14,0-3.13.38A1.14,1.14,0,0,0,461.77,291.11Z"/><path class="cls-8" d="M425.85,269c1.58,2.34,3.07,4.83,3.38,7.64,1-.72,2.37.31,3,1.38s1.31,2.41,2.55,2.53c.73.08,1.57-.3,2.14.16s.38,1.45.58,2.21c.65,2.41,5.13,1.6,6,4,.25.72,0,1.58.47,2.22,1.05,1.62,4.14-.23,5.37,1.26.49.59.45,1.49,1,2,1,1.06,3-.15,4.24.65.87.56,1,1.88,1.83,2.47,1.11.77,2.75-.12,3.95.48,1.35.68,1.65,2.94,3.15,3,1.14.07,1.87-1.26,3-1.52,2-.46,3.55,2.74,5.53,2.19.69-.19,1.19-.81,1.86-1,1.7-.61,3.46,1.4,5.2.93,1.2-.33,2-1.77,3.22-1.75a8.48,8.48,0,0,1,2,.69s2.34,1.35,3.45-.31l1.11-1.67a6.17,6.17,0,0,0,3.24.12c1.39-.46,2.76-3,2.76-3s3.44-.27,4.06-1.2,1.64-2.34,1.64-2.34a10,10,0,0,0,3.48-.77,5.85,5.85,0,0,0,1.51-2.61s3.6,0,4.23-.95a11.45,11.45,0,0,0,1.08-2.8,4.15,4.15,0,0,0,3.26,0c1.55-.77,2.24-4.25,2.24-4.25a13.22,13.22,0,0,0,2.88-.86c.77-.47,1.93-3.49,1.93-3.49s4.79-1.79,3.66-2.56,0-6.78,0-6.78-3.09,5.23-4.64,6.23-3.92.27-4.41,1.63-3,2.82-3,2.82a5.37,5.37,0,0,0-3.61,2,16,16,0,0,0-2.51,3.26s-.13-2.95-2.62-.47a18.2,18.2,0,0,1-3.74,3.11s-2.88-1.71-3.51-.16a15,15,0,0,1-3,3.72s-1.88-2.32-3.43-.62a14.84,14.84,0,0,1-3.73,2.82l-22.64-.15a2.29,2.29,0,0,0-1.71-.81c-1.08,0-3.45-.12-3.45-.12s-.47-3.11-1.75-2.51a5.21,5.21,0,0,1-3.17,0,9.77,9.77,0,0,0-2-1.83c-1-.64-2.83-1.56-2.83-1.56s.57-2.93-1.24-2.51a5.2,5.2,0,0,1-3.5-.62s-.11-2.62-1.47-2.17a17,17,0,0,1-3.1.62,20.2,20.2,0,0,0-1.88-2.35l-1.53-.91s-2-3.84-2.95-3.85-2.48,0-2.48,0-1.71-4.31-2.79-3.68-2.28-3.94-2.28-3.94A5.84,5.84,0,0,0,425.85,269Z"/><path class="cls-23" d="M157.07,421.6a55.6,55.6,0,0,0,3,5.83,108.77,108.77,0,0,1,6.4,14.44,105.63,105.63,0,0,1,4.19,15.23,54.62,54.62,0,0,0,1.32,6.45,25.65,25.65,0,0,0-.47-6.6A82.89,82.89,0,0,0,160.87,427,27.24,27.24,0,0,0,157.07,421.6Z"/></svg>