<svg id="Layer_1" data-name="Layer 1" xmlns="http://www.w3.org/2000/svg" viewBox="0 0 727.65 734.04"><defs><style>.cls-1{fill:#c1e8f6;}.cls-2{fill:#cdb731;}.cls-3{fill:#a66e52;}.cls-4{fill:#b6bc81;}.cls-5{fill:#5f605f;}.cls-6{fill:#853424;}.cls-7{fill:#43231b;}.cls-8{fill:#010101;}.cls-9{fill:#151312;}.cls-10{fill:#868686;}.cls-11,.cls-20,.cls-26,.cls-27,.cls-28{fill:none;}.cls-11{stroke:#010101;stroke-width:1.48px;}.cls-11,.cls-18,.cls-20,.cls-21,.cls-22,.cls-26,.cls-27,.cls-28{stroke-miterlimit:10;}.cls-12{fill:#273339;}.cls-13{fill:#622716;}.cls-14{fill:#643c2c;}.cls-15{fill:#311811;}.cls-16{fill:#f1edf6;}.cls-17{fill:#898b5b;}.cls-18,.cls-19{fill:#907e2f;}.cls-18{stroke:#907e2f;stroke-width:1.58px;}.cls-20{stroke:#704634;stroke-width:1.19px;}.cls-21,.cls-22,.cls-23{fill:#161412;}.cls-21,.cls-22{stroke:#171413;}.cls-21{stroke-width:0.48px;}.cls-22{stroke-width:0.58px;}.cls-24{fill:#171413;}.cls-25{fill:#231f1f;}.cls-26,.cls-27,.cls-28{stroke:#43231b;}.cls-26{stroke-width:1.39px;}.cls-27{stroke-width:1.04px;}.cls-28{stroke-width:1.26px;}.cls-29{fill:#643c2a;}.cls-30{fill:#c6443b;}</style></defs><circle class="cls-1" cx="362.72" cy="392.33" r="322.52"/><path class="cls-2" d="M372.46,341.5,273.2,469.31c-15.78,16.82-40.08,49.6-22.82,64.9h0c15.63,13.86,46.56,15,62,1l133.8-79.69Z"/><path class="cls-3" d="M260.81,493l32.06-18.5,28.22-17.23,30.49,78.49,10.89,8.85a171.69,171.69,0,0,1,25.75,26l66.94,83.66-17,22.11S325.5,596,310.44,579.71C302.46,571.06,279,526,260.81,493Z"/><path class="cls-3" d="M194.45,345.43l.38,19.22,8.11.57s10.45,1.87,17.68,5.94,28.93,52.72,8.66,64.31-119-49-119-49L128,375.82l9.71-9.81,14.95-17.73Z"/><path class="cls-4" d="M323.38,455.91c-2.19-4.67-4.53-9.27-6.88-13.87-3.5-5.81-7.13-11.54-10.84-17.19-7.27-11.11-12-16.47-19.83-27.28A133.07,133.07,0,0,0,275.25,385a13.91,13.91,0,0,0-7.23-4.14c-7.3-1.69-20-4.69-25.78-6.13-6.38-1.57-21-5.42-27.29-7.09l.09,1s18.27,29-6.19,36.59C153.79,422.33,132,372.11,132,372.11c-13.1,5.44-32.32,18-57,30.31-3.13,1.57-16.38,13.58-18.39,16,1,39,6.71,56.76,20.3,91.15l9.46,2.46.6.61s0,9.1-.07,19.58c31.48,96,107.92,152.56,207.15,175.17l15.45,3.05L291.89,522l.43,4.06c25.7-8,42.66-18.82,50.12-24.57l1-.77a11.47,11.47,0,0,1-1.32-2.35C336.15,484.08,330,469.91,323.38,455.91Z"/><g id="freepik--character-1--inject-1332"><path class="cls-3" d="M443.42,301.23,549,284.35l17,37.45s-23.79,29.32-26.46,30.91-66.18,24.87-66.18,24.87S395.66,359.93,396.69,360,443.42,301.23,443.42,301.23Z"/></g><path class="cls-3" d="M518.19,204.76s8.13,41.51,23.7,69c2.17,3.84,30.42,15.49,30.42,15.49l-36.23,18.51c-20.7,8.16-68.78,14.39-90.6,10.06l-19-8.35s21.13-8.08,21.44-13.27-9.28-42.65-9.28-42.65"/><path class="cls-2" d="M399.16,324.32l45.28-23.52c-1.67,3.94-14.14,30.62,24.37,36.42l9.25-.88c48-7.38,77.68-57.53,77.68-57.53l10.75,6.39,89.26,242C606.07,635.35,501,710,375.29,714.35c2-59.82,7.39-156.63,7.39-156.63l-5.29-23.63-20-37.74c-7.62-24.22-9.89-42.27-4.68-53Z"/><path class="cls-5" d="M531.16,82.55c-6.87-7.19-16.53-11.26-25.56-7.33-2.3-18.43-21.68-26.63-40.12-24.44-9.4,1.55-18.47,7.23-27.83,5.43-5.84-1.12-10.68-4.85-16-7.79-22-11.8-50.73,9.91-64.91,30.52s-7,40.21,5,62.12c5.6,10.19,5.82,16.15,8.74,27.49,2.75,10.69,12.31,29.91,14,40.68s-13.48,24.55-2.46,23.8l116.48-31.46c18.13.88,28.59-6.11,35.32-23,4.32-11.41,2.29-11.61,1.29-23.74-.92-15.93,13.31-30.11,10-45.72C543.47,99.28,537.61,90.21,531.16,82.55Z"/><path class="cls-6" d="M545.78,79.72s-44-14.27-96-.61-73,49.88-78.85,74.48,7.64,47.58,7.64,47.58-12.69,5.53-28.5-40.75C327,93,391.73,40.66,408.86,38.37S510.82,5.49,545.78,79.72Z"/><path class="cls-7" d="M446.35,288.65s8.6-2.81,14.42-5.46,16.29-3.9,40.56-32.55c0,0-3.61,31.17-38.4,43.1,0,0-8.95,3.36-15.26,2.83Z"/><path class="cls-3" d="M386.77,111.44a4.85,4.85,0,0,1-.26.69l.34-.36ZM371.84,119l.06.28c.21-.27.41-.53.58-.79C372.39,118.14,371.84,119,371.84,119Zm146.34,95.41.6-5.95c9.43,8.44,20-2,17.73-16.3,2.39-7.89,2.69-32.58-4.66-38.69l-.93-.92c-4.77-2.32-12.38-2.19-14.31,3.89-.51,2.58.95,5.37.44,8-.43,2.91-4.31-3.39-5.54-.63,0,0-4-.87-5.18-7.23s2.47-55.67-10.89-61.83c0,0-17.58,10-24.25,4.64l-2-.21c-1.08.27-1.72.77-2.8,1-.08-.33.2-.75,0-1.41-1.64,1.11-3.16,1.13-4.6,1.49.28-.42.92-.93.84-1.26a20.08,20.08,0,0,1-4.32,1.07c.28-.42.83-1.26.75-1.59-1.63,1.1-2.88.71-4.32,1.07a2.52,2.52,0,0,0,.4-1.5c-1.28,1-2.8,1-4.24,1.39.28-.41.48-1.16.75-1.58-1.63,1.1-2.87.71-4.31,1.06-.36.09.55-.83.47-1.16A13.93,13.93,0,0,1,444.38,99c-.09-.33.55-.84.47-1.17-2,1.19-3.24.8-4.67,1.15l.75-1.58a5.27,5.27,0,0,1-4.15,1.72c.27-.41.83-1.25.75-1.58a7.39,7.39,0,0,1-5.6,2.08c.36-.09.84-1.26.76-1.59-1.48,1.77-3,1.79-4.8,2.24.28-.42.48-1.17,1-2-1.84,1.86-4.19,3.14-6.6,2.68.37-.09.48-1.17.4-1.5-1.11,1.68,1.18-.64-.7-.53,0,0-3.82,2.35-3.9,2-1.19,1.34,2.41-6.54.62-6.1.19-.75-10.18,3.17-9.62,2.33-1.47,1.76-1.27,1-3.51,1.2,0,0-6.5,5.8-6.22,5.38-1.39,2.09-2.55.91-4.79,1.11.28-.42,1.64,1.06,1.92.65-1.11,1.67-1-.1-2.84.35-.08-.33-6.42-.69-6.5-1-1.55,1.43-.93,1.43-3.09,2-.08-.33-.45,4-.17,3.56-1.11,1.67-1.31.57-3.2.69l-1.48,1.67c-1.39,2.09.9.76-1.33,1-.06-.23,8.37-1,8.59-1.49a13.28,13.28,0,0,1-4.13,3.19c-.08-.33.12-1.08,0-1.41a7.45,7.45,0,0,1-5.27,3.41c.36-.09.56-.84.48-1.17-1.39,2.09-3.31,3.62-5.71,3.16l0,0a11.57,11.57,0,0,1-4.45,3.61,1.47,1.47,0,0,1,.4-1.5l-1.44.35c-1.15,3.09-6.12,2.45-6,5.93,0,0-4.16,25.42-.78,37.55s10.75,32.41,12.41,37.61a108.85,108.85,0,0,1,3.44,16.7c1.38,11,2,13.79,7.31,23.83,5.11,9.71,9.06,14.6,17.15,22.06,8.43,7.78,19.2,13.68,29.46,19.55,6.76,3.86,15.49,6.19,23.57,4.59,22.55-4.46,40.93-25,51.62-42.9"/><path class="cls-8" d="M423.14,229a10.61,10.61,0,0,0,9.23-2.9c.5-.51,2.56-.65,1.86.07-3,3-8.75,4.68-12.61,3.75-.39-.1-.39-.37,0-.62a2.34,2.34,0,0,1,1.52-.3"/><path class="cls-8" d="M435.19,225.11a17.09,17.09,0,0,1,5.42-2.86,1.32,1.32,0,0,1,1,.06c.2.11.29.3.1.48a6.48,6.48,0,0,1-3,1.5,1.21,1.21,0,0,1-1.07-.14c-.25-.22,0-.47.3-.54a5.08,5.08,0,0,0,2.41-1.22l1.06.54a15.43,15.43,0,0,0-4.84,2.57,1.27,1.27,0,0,1-1.09.15c-.24-.08-.54-.31-.26-.54"/><path class="cls-8" d="M443.17,223.4c2.32-.64,4.82-2.33,5.53-4.36,1.08-3.06-1.56-6.84-4.89-7.81-.37-.1-.26-.38.05-.53a2,2,0,0,1,1.31,0,8.31,8.31,0,0,1,5.62,6.44c.22,2.4-1.62,4.56-4.24,5.92a12.92,12.92,0,0,1-2.5,1c-.35.09-1,.15-1.26-.09s0-.43.38-.52"/><path class="cls-8" d="M418.58,228.86a.31.31,0,0,0-.4-.37,2.78,2.78,0,0,1-2-.14c-.15.3-.29.6-.43.9a8.48,8.48,0,0,1,4,.4.69.69,0,0,0,.72-.3c.12-.16.21-.49-.05-.59"/><path class="cls-8" d="M420.43,228.76a9.32,9.32,0,0,0-4.45-.42.76.76,0,0,0-.55.43.32.32,0,0,0,.13.47"/><path class="cls-8" d="M413.81,230.37a4.92,4.92,0,0,1-4.75-1.81,7,7,0,0,1,0-7.91.29.29,0,0,0-.24-.46.94.94,0,0,0-.74.46,7.83,7.83,0,0,0-.91,6.94,5.66,5.66,0,0,0,6.41,3.67c.23,0,.62-.25.66-.56s-.19-.37-.41-.33"/><path class="cls-9" d="M387.26,189.07a5.77,5.77,0,0,0-5.64,2.41,5.83,5.83,0,0,0-.68,2.73,5.34,5.34,0,0,0,2.4,4.43,5,5,0,0,0,5.79-.4,5.5,5.5,0,0,0,1.09-6.86,4.88,4.88,0,0,0-3-2.31"/><path class="cls-9" d="M406.74,191.32s-11.61-5.25-16.7-4.52c-7.44,1.07-15.38,7.3-17.06,11.54,0,0,10.34-8.94,15.6-9.54C393.61,188.22,406.74,191.32,406.74,191.32Z"/><path class="cls-9" d="M445.05,174.85c1.74-1.53,5-2,6.62-1.2a5.1,5.1,0,0,1,2.1,2,5.35,5.35,0,0,1-.06,5,5,5,0,0,1-5.3,2.34,5.5,5.5,0,0,1-4.17-5.56c0-.42-.56-1.08.84-2.31"/><path class="cls-9" d="M433.76,183.31s9.25-9.7,14.61-11.19c7.83-2.18,18.37.11,21.86,3.25,0,0-14.09-3.73-19.56-2.05C445.44,174.93,433.76,183.31,433.76,183.31Z"/><path class="cls-10" d="M401.36,167.44q.22,2.25.45,4.53c.11,1.15.22,2.3.32,3.45-3.94-.58-7.3-.87-9.84-1-5.34-.34-8.08-.49-11.08.34a29.23,29.23,0,0,0-6.77,2.92A18.68,18.68,0,0,0,371,180c-2.39,2.13-3.23,4.35-3.68,4.21s0-2,.09-2.24a17.76,17.76,0,0,1,4.73-8.22,20.87,20.87,0,0,1,6.76-4c2.94-1.08,11.25-2.49,22.5-2.3"/><path class="cls-10" d="M423.43,161l1.74,4.21c.44,1.07.89,2.14,1.34,3.2,3.53-2.49,6.62-4.44,9-5.86,5-3,7.55-4.5,10.84-5.28a34.12,34.12,0,0,1,7.92-.84,21.22,21.22,0,0,1,4.46.29c3.33.68,5.21,2.2,5.57,1.86s-1-1.78-1.16-1.93a17.93,17.93,0,0,0-8.49-4.84,23.52,23.52,0,0,0-8.43-.1c-3.35.53-12,3.47-22.77,9.29"/><path class="cls-11" d="M518.61,183.3c4.63-20.46,10.33-21.63,10.33-21.63s4.66,3.7,4.35,12.87"/><path class="cls-11" d="M521.89,184.49c5-1.44,2.84,8.88,4.67,10.88s2.62-4.34,1.94-11.7c0,0-1.77-9.78-7-10.68"/><path class="cls-7" d="M381,153.81s16-.77,28.82-2.72S434,140.6,434,140.6s-19.39,7.17-26.51,8.63S381,153.81,381,153.81Z"/><path class="cls-10" d="M364.86,111.72h0c2.43-5,3.66-10.08,6.3-15s5.19-9.14,8-13.76c.16-.27,4.32-1.07,4.49-1.34l.18-.29.28-.43c.21-.34.43-.67.65-1,18.38-11.91,42.1-17.08,64.78-14,44.06,5.94,77.9,38.16,71.95,82.22-.5,3.77-4.55,19.95-4.63,21.56-.17,3.28-3.36,5.25-6.62-3a26.63,26.63,0,0,1-9-8.19c-12-15.82-18.74-43-17.78-62.86-1.73,4-18.5,2.91-21.7,5.86a31.16,31.16,0,0,1-44.05-1.78,47.67,47.67,0,0,1-3.9,6.8c-13.56,19.74-33.55,31.53-53.39,22.44C359.72,128.68,363.35,114.88,364.86,111.72Z"/><path class="cls-12" d="M517.78,163.73l.83-4.25-52.22,3.63h0c-16.45-2.33-36.52,7-46.82,17.94l-10.64,3.18.06-.2c-14.89-6.37-36.11-2.75-50.27,8.57l.85,1.61h0c0,.11.2.33.37.67l.76,1.4c4.73,8.93,10,18.31,13.27,20.33,2.2,1.35,8.22.81,13.1,0,1.84-.27,3.52-.59,4.72-.82,1.44-.29,14.23-2.89,15.85-5.41s1.58-18.35,1.46-23.32l10.93-3.2c2.31,3.33,9,18.45,15.22,20.35s33.5-6.06,35.1-10.58c1.13-3.24,2.65-14.47,2.73-20l.67-7.23ZM406,209.22c-1.85,2.48-27.24,7.94-31.06,5.6-3.22-2-10-14.72-12.5-19.51l-.06-.21c12.86-9.3,32-12.59,44.86-7.28.05,8.62-.24,19.79-1.26,21.36Zm60.8-15.93c-1,2.86-24.61,10.89-31,8.92-4.43-1.35-9.54-12.36-13-18.53,10.12-10.47,32.7-19.33,47.55-16.36a145.71,145.71,0,0,1-3.58,26Z"/><path class="cls-13" d="M540.65,161.1s35.28-35.21,15.17-63.84C552,91.76,552,93.77,551,88.65c-5.18-26.86,5.29-21.92-39.26-47.22s-50.27-23.85-109.91-9.79c-30.76,7.25-45.74,23-51.12,44-2.42,9.48-2.9,20-2,31.39,0,0,60.74-28.22,101.85-13.79s91.4,74.62,86.7,97.22C535.9,196.84,540.65,161.1,540.65,161.1Z"/><path class="cls-6" d="M560.54,127.67S494.1,57.59,421.77,66.58c0,0,87.37-23.59,136.76,33.67l1.77,7.36a41.08,41.08,0,0,1,.89,14Z"/><path class="cls-14" d="M434.09,240c11.39-2.93,29.5-9.09,29.5-9.09s4,25.9-22.41,32.69-33.42-17.33-33.42-17.33S422.69,242.89,434.09,240Z"/><path class="cls-15" d="M434,240c5.41-1.4,27-8,27-8a32.54,32.54,0,0,1-23.57,22.72c-21.25,5.46-27.77-8.57-27.77-8.57Z"/><path class="cls-16" d="M434,240.9c5.42-1.39,21.66-6.6,21.66-6.6s-4.33,7.78-20.59,12-23-.56-23-.56Z"/><path class="cls-14" d="M406.11,244.78a23.78,23.78,0,0,1,2.7-.94c4.38-1.56,6.87-3.52,10.05-4.62,5.43-1.88,9.55-.48,12-1.1s5.34-3.83,11-4.81c3.31-.57,11.68-1.4,16.27-2.15,2.75-.44,5.62-2.36,6.24-2.36.85,0,.89,6.59-29.43,14.39S405.36,245.19,406.11,244.78Z"/><polygon class="cls-17" points="292.32 526.04 288.65 426.49 295.89 524.9 292.32 526.04"/><polygon class="cls-17" points="103.32 516.65 84.07 513.95 84.64 512.24 103.82 514.6 103.32 516.65"/><path class="cls-2" d="M444.44,300.8S375.82,324.87,369.12,348c-10.18,35.11-23.42,83.91-23.42,83.91L388,453.46Z"/><path class="cls-18" d="M349.89,477.45c.11-8.46,2.38-16.92,4.26-25.12q3.12-13.63,7.4-27a409.23,409.23,0,0,1,17.16-45.45c3.7-8.52,7.39-17.15,11.19-25.62-6,16-9.86,25.25-16.27,41.11-6.57,16.25-10.34,30.65-14.65,47.65-5.07,20-8.74,29-4.09,45.57s17.94,36,17.94,36l-1.64,1.4S349.69,494,349.89,477.45Z"/><path class="cls-19" d="M376,557.63c-.21-8.51-.64-15.46-1.43-19.29-3.32-16.15-12.62-30.45-13.92-32.38,1.54,2.28,14,21,16.93,29.45.88,2.59,1.17,10.81,1.14,21.22A11.5,11.5,0,0,0,376,557.63Z"/><path class="cls-3" d="M619.05,503.14c2.21,9.37,9.38,26.47,11.43,35.87,4.41,20.28-43,20.81-39.85,41.39L446.21,565.51,436,524.36Z"/><path class="cls-2" d="M555.74,278.81s70.49,2,97.73,37,53,157,57.41,180.19c6.85,36.06-4.38,61.89-35.56,74.48-58.44,23.58-160.73,11.75-160.73,11.75l-7.84-70.41L595.21,500l-1.94-84.15-34.7-107.26Z"/><path class="cls-18" d="M596.67,479.84Q586.89,446.6,578.41,413c-5.14-20.22-11.28-40.37-13.13-61.23-1.27-14.25,7.32-27.17,16.84-37,3.71-3.86,8.35-6.79,12-10.56-23.53,24-25.48,38.16-25.48,38.16a184.7,184.7,0,0,0,2.71,30.38c3.8,22.86,30.35,113.92,29.36,118.65s-4.08,3.72-4.08,3.72l-.1-.87S602.11,494.47,596.67,479.84Z"/><path class="cls-18" d="M617.53,584.22c-26.34,2.45-104.39,3-104.39,3l-.7-13.65,1.14.21.66,12.76s52.26,4.53,101.29-.34Z"/><path class="cls-18" d="M596.52,493.63s13.65-1.13,36.57,12.33l-36.57-12.33"/><path class="cls-3" d="M209.87,302.28s3.09,57.74,4.39,63.1l1,3.18,3.73,8.59c-21.16,21-26.77,21.82-55.79,15l-29.1-17.69a10.5,10.5,0,0,0,2.28-8.08c-.79-4.67-12.44-54.34-12.44-54.34"/><path class="cls-3" d="M59.91,453c-1.36-3.27-2.66-4.28-3.91-4.51q1.39-1.22,2.85-2.34a127.81,127.81,0,0,1,11.37-7.6c3.68-2.25,7.34-4.57,11.07-6.74s7.54-4.24,11.4-6.18c23.18,25.9,22.36,50.71,31.74,90.48,3.47,14.68,10.54,60.34,14,75,2.76,11.63-2.86,11.83-3.45,23.38-.07,1.54-.16,3.07-.26,4.6A43.66,43.66,0,0,1,130,629.44a23.15,23.15,0,0,1-2.66,3.4,24.56,24.56,0,0,1-6.39,1.48c-5,.47-6.2,4.42-8,6.21,10.29,7-10.28,3.27-18.69-6.28-8.06-9.15-10.13-8.82-15.63-20-4.94-10-18.44-56.47-21.16-67.23-4.41-17.44-4.09-30.12-5.43-38.41C46.56,474.75,71.73,481.44,59.91,453Z"/><path class="cls-4" d="M72.25,401.84S115,382.58,115,382.59c5.68,1.72-19.34,12.27-14.23,15.31a86.76,86.76,0,0,1,15.27,11.7l1.4,1.32c4.38,34.18,28.1,126.35,22,129.11-23.6,10.65-98.55,10.94-98.28,5.53,1.28-25.79-3.61-73.87-1.16-93.16,1.93-15.24,2.93-28.53,14.19-39.55C62.23,405,69,403.57,72.25,401.84Z"/><path class="cls-3" d="M98.74,603.41c1.13-5.92,4.93-10.92,10.66-12.18,18.17-4,40.7-6.18,52.57-6.08,32.75.28,72.09-8.71,116.8-14,2.46-.29-.93,5.21,6.94.88,6.75-3.72,16.33,26.81,4.6,32.07-17.43,7.8-114,40.64-123,43.32-.41.12-13.35,2.69-13.78,2.78-14.42,2.81-35.66,10.3-58.33-2.76-15.16-8.74-24.36-62.8-29.31-82.14Z"/><path class="cls-20" d="M374.23,543.41a11,11,0,0,0-8.06-3.45"/><path class="cls-17" d="M129.58,542.85s6-2.36,6-2.62c3.9-1.28,3.58-1.51,4.73-2.24a10.76,10.76,0,0,1,3.24-1.58l.39,3.13s-8.5,3.9-13.91,5.67C130,544.59,129.4,543.23,129.58,542.85Z"/><path class="cls-7" d="M137.78,586.9s-16.34-.82-30.65,13.19c0,0,14.42-15.29,29.81-16Z"/><path class="cls-18" d="M597.85,492.23a2.68,2.68,0,0,0-.4,2.13l-91.1,21.82-1.52-2.59Z"/><path class="cls-21" d="M123.27,317.14s-8,2.78-15.61.1-13.75-9.78-13.42-13.59a8,8,0,0,0-1.63-5.94s-6.24-2.16-7.15-5.82-.62-9.91-.62-9.91l18.25-5.69L118,271.57l6.17,46.19Z"/><path class="cls-7" d="M152.11,338.84s3,21,45.52,26.7c0,0,9.64,1.14,16.29-2.36l-.78-6.28Z"/><path class="cls-22" d="M231,211.42h0c.42-9.1.13-14.6-3.5-20.09-2.57-3.87-10.85-6.71-10.85-6.71s-4.31-12.32-9.67-9.34c0,0-9.23-15.69-25-7.76,0,0-5.37-.2-7.53,3.56,0,0-11-12.86-23.2.32,0,0-6.32-2.38-7.25,2.42,0,0-11.61-7.07-19.53,2.35,0,0-25.25.43-27.93,16.88,0,0-13-3.43-16.69,9,0,0-6,1.79-4.19,10.22,0,0-8.51,4.62-8.16,10.33,0,0-4.34,5.27-2.09,14,.64,2.5,1.34,1.65,2.89,4.88-2.84,11.14,5.06,10.7,5.06,10.7-5.78,11,6.51,20.52,6.51,20.52s-2.31,8.07.81,12.25c4.26,5.7,18,10,18,10s-.74-17.66-3.74-28.32,1.79-31.36,3.83-36.06,24.55-1.85,56.63-8.65,37.3-13.9,41.34-13.69c8.38.44,21,27.11,22.63,35.65s7.61,24,7.61,24,15.49-10.89,7.88-24.18c0,0,3.41-11.47-.1-17.21a6.52,6.52,0,0,0-2.71-3.48S236.45,215.5,231,211.42Z"/><path class="cls-3" d="M147,341.93c15.8,12.08,37.12,18.14,56,18.37,18.53.22,23.4-6.85,25.38-10,10.85-17.07,16.92-33.44,18.78-51.36a42.63,42.63,0,0,0-1.58-14.88c-1.93-7.52-6.16-21.86-7.45-29.16-3.27-18.6-8.55-35-21.75-48.64-27.49-28.39-78.06-18-95.16-5.46-20,14.67-25.83,37.81-22.85,60.66a62.25,62.25,0,0,0,6.1,20.22,66.11,66.11,0,0,1,10.27,9.63"/><path class="cls-23" d="M217,209.42s1.74,1.06,15.7,21.79c-3.74-6.73-7.07-17.28-15.08-26.14-28-30.93-93.8-13.38-110.76-.11C87,220.47,83.17,244.65,86.48,269.29c1.34,10,2.13,16.39,6.65,24,.16.08,2.24,1.56,2.24,1.56s20.64,0,29.54,10.83l-1.74-10.58s2.44-14.1,2-37.52c0,0-2.33-12.44-3.22-16.15-2.74-11.4,8-11,15.54-10.52,4.66.28,14.41-.87,19-1.85,11.66-2.49,26.13-7.1,31.63-8.11C195.83,219.57,217,209.42,217,209.42Z"/><path class="cls-24" d="M216.17,209.7a7,7,0,0,1,1.4,1.57c2.37,2.94,4.54,6,6.7,9.14,2.56,3.64,5.06,7.33,7.55,11,.25.36,1.79-.21,1.66-.44-2.57-4.67-4.51-9.65-7-14.35a55.17,55.17,0,0,0-10.3-14.09c-6.28-6-14.25-9.92-22.58-12.2-17.56-4.79-36.71-3.17-54.22,1a124.69,124.69,0,0,0-22.51,7.5A52,52,0,0,0,99,211.58c-7.37,8.26-11.69,18.61-13.43,29.47-1.9,11.83-.83,23.8,1,35.55a47.38,47.38,0,0,0,5.06,15.91,4.33,4.33,0,0,0,1.62,1.77,4.78,4.78,0,0,0,1.51.94,11.33,11.33,0,0,0,1.65.06c7.68.4,15.88,2,22.45,6.21a22.15,22.15,0,0,1,5.19,4.51c.21.24,1.67-.15,1.61-.51l-.87-5.28-.61-3.68c-.06-.41-.27-1.34-.27-1.54a15.38,15.38,0,0,1,.33-2.23q.42-3.12.7-6.25c.73-7.77,1-15.58,1-23.38a42.12,42.12,0,0,0-.49-8c-.55-2.89-1.11-5.79-1.68-8.67-.93-4.64-3.73-12,2.17-14.44,2.48-1,5.43-1,8.06-.86a81.43,81.43,0,0,0,9.11,0,126,126,0,0,0,22.8-4.06c7.17-1.86,14.28-4.26,21.55-5.7,5.36-1.06,10.48-3.26,15.49-5.37,4.58-1.93,9.11-4,13.6-6.11l.77-.36c1-.47-.57-.38-1-.2-3.42,1.64-6.87,3.21-10.35,4.74-5.42,2.38-11,4.94-16.75,6.39-2.57.65-5.17,1.16-7.74,1.84-4,1.07-8,2.2-11.95,3.28a139.59,139.59,0,0,1-24,4.76,74.49,74.49,0,0,1-9.91.17,31.3,31.3,0,0,0-8.14.48c-2.2.49-4.54,1.41-5.87,3.34-1.65,2.38-1.13,5.4-.54,8,.63,2.78,1.17,5.58,1.71,8.38.44,2.27,1,4.56,1.31,6.85a37.29,37.29,0,0,1,.1,5.07c0,2.36,0,4.73-.07,7.09-.09,4-.26,8.09-.54,12.12-.3,4.31-.68,8.63-1.34,12.9a6.83,6.83,0,0,0,.17,2.21l1.21,7.36.26,1.61,1.61-.5c-5.54-6.63-14.73-9.23-23-10.34-2.21-.29-4.44-.28-6.65-.53,0,0-.09,0-.14,0,.45.13,0-.09-.09-.18-.65-.61-1.54-.91-2.08-1.62A19.88,19.88,0,0,1,91.84,289a37.15,37.15,0,0,1-1.43-3.67c-1.83-5.5-2.48-11.35-3.21-17.07a109.94,109.94,0,0,1-.91-17.3c.35-10.91,2.72-21.87,8.29-31.35a48.85,48.85,0,0,1,18.51-18.28A97.7,97.7,0,0,1,133,193.54c17.05-4.92,35.67-7.17,53.24-3.93,8.5,1.57,16.84,4.58,23.87,9.71,8.91,6.5,14.1,16,18.65,25.81,1,2.12,2,4.25,3.09,6.3l1.66-.44c-3.74-5.54-7.49-11.08-11.44-16.47a49.77,49.77,0,0,0-3.93-5,1.91,1.91,0,0,0-.38-.37C217.34,208.9,216,209.57,216.17,209.7Z"/><path class="cls-3" d="M132.32,326.72c-11.31,16-20.56-1.9-20.56-1.9C100.61,315.62,98.41,304,97.24,296s7.6-9.56,7.6-9.56c7.59-.59,6.7.48,20.78,19.73"/><path class="cls-25" d="M118.81,307.34a65.07,65.07,0,0,0-7-9.58,21,21,0,0,0-4.8-4.13,6.08,6.08,0,0,0-2.46-.92,2.18,2.18,0,0,0-.57,0c-.72.12-.89.61-1.14,1.21-1.38,3.44-.79,7.4.48,10.78.12.34,1.36,0,1.25-.34a16.42,16.42,0,0,1-1.08-8.51,8.42,8.42,0,0,1,1-3l-.73.37h-.12l.34,0a6.38,6.38,0,0,1,1.63.65,23.33,23.33,0,0,1,6.4,5.85,72,72,0,0,1,5.54,7.88c.21.34,1.39-.12,1.25-.34Z"/><path class="cls-25" d="M119,311.06c-5,1.28.32,7.24.47,10,0,.14,0,.29,0,.42a1.34,1.34,0,0,1-.09.24s.35-.07.36-.12-.91-.76-1-.85a21,21,0,0,1-2.67-4.11,20.17,20.17,0,0,1-2.25-5.95c-.47-2.51-.83-6,1.35-7.87.23-.2.08-.42-.14-.52a1,1,0,0,0-.89.24c-2,1.72-2.08,4.72-1.78,7.16a18.21,18.21,0,0,0,1.88,6.16,30.86,30.86,0,0,0,2.75,4.68c.52.7,1.26,1.75,2.22,1.86,2.45.3,1.23-2.94.76-4-.6-1.36-3.38-6-.76-6.63.77-.19.57-.92-.19-.73Z"/><path class="cls-23" d="M172.13,274.69c-2.38-.6-4.65.93-5.75,2.49a5.53,5.53,0,0,0-1,2.9,5.7,5.7,0,0,0,2.5,4.74,5.28,5.28,0,0,0,6.15-.36,5.83,5.83,0,0,0,1.25-7.27,5.18,5.18,0,0,0-3.12-2.5"/><path class="cls-23" d="M184.76,281.25s-10-9.29-18-7.43c-11.16,2.63-12.26,9.74-13.9,13.68,0,0,5.38-9.63,14.07-11.44C174.82,274.41,184.76,281.25,184.76,281.25Z"/><path class="cls-23" d="M227.13,262.11c1.73-1.57,4.27-1.17,5.86-.24a5.6,5.6,0,0,1,2.1,2.16,6,6,0,0,1-.05,5.33,4.68,4.68,0,0,1-5.27,2.34c-2.71-.64-4.23-3.58-4.16-6a5.26,5.26,0,0,1,1.52-3.59"/><path class="cls-23" d="M214.22,274.35s3.86-12.56,10.71-14.19c9.65-2.28,13.44,3.68,16.33,6.56,0,0-8.12-6.45-15.52-4.47C219,264,214.22,274.35,214.22,274.35Z"/><path class="cls-8" d="M212.48,304.12a8.19,8.19,0,0,1-7.43,1.17c-.52-.19-2,.44-1.27.7a11.57,11.57,0,0,0,10.08-1.76c.23-.2.14-.39-.21-.43a1.83,1.83,0,0,0-1.17.32"/><path class="cls-8" d="M202.75,305.59a13.17,13.17,0,0,0-4.77-.12,1,1,0,0,0-.64.37c-.11.15-.1.31.09.37a5,5,0,0,0,2.61,0,1,1,0,0,0,.7-.47c.09-.24-.2-.32-.4-.27a4,4,0,0,1-2.11,0l-.55.74a11.77,11.77,0,0,1,4.27.13,1,1,0,0,0,.8-.28c.15-.14.27-.41,0-.47"/><path class="cls-8" d="M196.6,307.17c-1.84.36-4.16,0-5.36-1.14-1.81-1.78-1.32-5.56.67-7.39.22-.2,0-.36-.22-.36a1.51,1.51,0,0,0-.93.42,6.88,6.88,0,0,0-1.65,6.68c.68,1.76,2.7,2.65,5,2.69a10.49,10.49,0,0,0,2.08-.17c.28-.06.76-.25.84-.5s-.18-.29-.44-.23"/><path class="cls-8" d="M215.62,302.44a.24.24,0,0,1,.15-.39,2.21,2.21,0,0,0,1.32-.79l.61.49a6.53,6.53,0,0,0-2.63,1.66.52.52,0,0,1-.61,0c-.14-.07-.31-.27-.16-.43"/><path class="cls-8" d="M214.3,303a7.25,7.25,0,0,1,2.94-1.85.63.63,0,0,1,.54.11.27.27,0,0,1,.08.38"/><path class="cls-8" d="M219.46,301.85a3.83,3.83,0,0,0,2.68-2.93,5.5,5.5,0,0,0-2.72-5.56.23.23,0,0,1,0-.41.72.72,0,0,1,.68.06,6.17,6.17,0,0,1,3,4.56,4.41,4.41,0,0,1-3.19,4.81.66.66,0,0,1-.66-.16c-.14-.2,0-.33.17-.37"/><path class="cls-23" d="M176.75,253.31l1.62,5.23c.41,1.33.82,2.66,1.22,4-4.26.1-7.83.41-10.51.72-5.31.6-10.72,1.64-15.53,4.06a17.1,17.1,0,0,0-5.83,4.46c-.51.63-1.66,3-2.76,2.82-.45-.07-.48-2.41-.48-2.65,0-4.73,2.83-7.59,6.69-9.92,7.88-4.75,16.54-7.19,25.58-8.71"/><path class="cls-23" d="M236.74,245.4a14,14,0,0,1-1.69-3.06,22.68,22.68,0,0,0-2.88-.11c-9.06.21-17.53,2.79-25.83,6.36q.74,2.63,1.47,5.28c.37,1.34.75,2.68,1.12,4,3.58-2.2,6.7-3.85,9.08-5,4.72-2.34,9.75-4.36,15-4.9,1.53-.15,2.4.36,3.83.54Z"/><path class="cls-17" d="M104.79,418.4s10.75,9.22,15.61,19,23.53,101.94,23.53,101.94l-3.45.88s-18.62-94-21.95-101.19S104.79,418.4,104.79,418.4Z"/><path class="cls-3" d="M277.81,601.35c.89-.13,13.95-2.88,21.78-1.82S323.23,598,323.23,598s25.22-8.91,27.68-11.37,3.36-9.07,3.36-9.07a27.61,27.61,0,0,1,5.84-3.42c5.47-2.84,4.39-10,4.39-10l-8.3,1.11a220.49,220.49,0,0,0,23.22-3.88c2.1-.8,1.76-2.16.78-3.57a9.52,9.52,0,0,0-6.7-3.65l-42.76-4.94A80,80,0,0,0,337.53,534c1.77-5.36-2.84-6.56-4.33-6.7S320.91,538,320.91,538s-20.94,9.84-24.72,12.87-23,20.26-23,20.26l-8.12,1.15S276.92,601.48,277.81,601.35Z"/><path class="cls-26" d="M329.91,595.66s19.23-6.32,21.75-8.73,3.53-9,3.53-9a27.46,27.46,0,0,1,5.91-3.29s7.22-4.75,3.4-10.52l3.07-.47"/><path class="cls-27" d="M330.74,549.18A80,80,0,0,0,337.53,534c1.77-5.36-2.84-6.56-4.33-6.7S320.91,538,320.91,538s-7.93,2.66-11.71,5.68l-14.28,8.24"/><path class="cls-7" d="M322.66,548.55a56.92,56.92,0,0,0-12.17.77c7.52.23,15.35.74,19.42.47,4,.24,17.88,1.54,21.91,1.27C347.88,550,326.75,548.33,322.66,548.55Z"/><path class="cls-7" d="M345.33,566.2c4.94-.08,9.42-.21,12.65-.49a16.61,16.61,0,0,0,5.21-.83,26.54,26.54,0,0,0-5.27-.13c-3.23,0-7.72,0-12.66.07-9.88.09-17.89,1.26-17.78,1.7S335.46,566.3,345.33,566.2Z"/><path class="cls-7" d="M340.36,579.94a40.41,40.41,0,0,0,13.78-2.56c-.16-.25-6.28.86-13.93,1.33s-13.9,0-13.93.44A41.68,41.68,0,0,0,340.36,579.94Z"/><path class="cls-3" d="M465.19,529.39l-7.82,20.83-.14,13.14s-43.79,13-52.76,10.61-31-9.06-31-9.06a12.31,12.31,0,0,1-.8,8.32,12.1,12.1,0,0,1-7.56,5.81l-7.22-15.81c-3.66,6.22-8.83.31-8.83.31l-4.89-13.68c-4.19,7.9-11.08.38-11.08.38L331.94,532a28,28,0,0,1-9.22,5.87c-4.38,1.27-4.63-5.93-4.63-5.93l19.73-25.08L381.26,501l64.06,26.56Z"/><path class="cls-7" d="M363.89,508.9a62.88,62.88,0,0,0-8.27,1.6c-3.05.78-6.43,1.62-9.9,2.86a47.32,47.32,0,0,0-9.42,4.35,6.45,6.45,0,0,0-3.08,3.84,28.86,28.86,0,0,0-.8,3.89,17.93,17.93,0,0,0-.38,7.71c.26,0,.59-2.75,1.7-7.34.29-1.14.58-2.46,1-3.67a4.93,4.93,0,0,1,2.5-2.82,55.88,55.88,0,0,1,9.16-4.06c3.35-1.17,6.62-2,9.67-2.9s5.73-1.63,8-2a22.63,22.63,0,0,1,7.39.19A9.81,9.81,0,0,0,363.89,508.9Z"/><path class="cls-7" d="M368.53,525.43c-4.38.89-10.56,1.48-17.29,3.27a12.35,12.35,0,0,0-5,2.16,16.67,16.67,0,0,0-2.5,4.3,16.49,16.49,0,0,0-1.86,8,31.75,31.75,0,0,0,1.23,5.27,13,13,0,0,0,.66,1.87,6.9,6.9,0,0,0,.05-2,33.38,33.38,0,0,1-.61-5.18,16.09,16.09,0,0,1,2.1-7.34,17.3,17.3,0,0,1,2.2-3.64,11.72,11.72,0,0,1,4.17-1.67c6.51-1.72,12.74-2.56,17.09-3.82a18.64,18.64,0,0,0,6.83-2.71A55.36,55.36,0,0,0,368.53,525.43Z"/><path class="cls-7" d="M356.91,558.34a8.87,8.87,0,0,1-.13-5.25,6.49,6.49,0,0,1,4.38-4.07,20.83,20.83,0,0,1,6.71-.75l5.84-.08c1.48,0,2.85-.19,3.7-.17a6.13,6.13,0,0,1,1.32.26c.15,0-.17-.71-1.2-1a24.65,24.65,0,0,0-3.94-.47l-5.82-.33a19.71,19.71,0,0,0-7.41.7,8.16,8.16,0,0,0-5.49,5.41,9.93,9.93,0,0,0,.55,6.18c1.43,3.18,2.84,4.58,3,4.58S357.68,561.39,356.91,558.34Z"/><path class="cls-28" d="M372.65,564.23a12,12,0,0,1-.78,8.14,11.82,11.82,0,0,1-7.38,5.67l-7.05-15.44c-3.58,6.07-8.63.3-8.63.3L344,549.53c-4.09,7.72-10.82.38-10.82.38l-1.15-17.85a27.44,27.44,0,0,1-9,5.73c-4.28,1.24-4.52-5.8-4.52-5.8l19.28-24.5"/><path class="cls-29" d="M208,317.57c-9.39,1.7-24.8,3.4-24.8,3.4s8,20.09,29.75,16.15,17.32-24,17.32-24S217.39,315.87,208,317.57Z"/><path class="cls-15" d="M208.09,317.56c-4.46.8-22.59,3.34-22.59,3.34s11.12,11.56,27.26,8.64c17.51-3.17,15.9-15.05,15.9-15.05Z"/><path class="cls-16" d="M208.4,318.16c-4.46.81-18.18,2.55-18.18,2.55s5.74,3.79,19.13,1.36,16.83-7.73,16.83-7.73Z"/><path class="cls-29" d="M230.71,311c-.47,0-2.8,1.24-4.94,1.44-3.57.33-5.94-.2-8.53.07-4.41.45-6.86,2.67-8.76,3s-5-.88-9.25.25c-2.52.66-8.66,2.73-12.12,3.67-2.08.56-4.7.19-5.14.38-.59.27,1.46,4.68,25.24.37S231.36,311.06,230.71,311Z"/><path class="cls-17" d="M140.13,521.15s-63.75,21.62-98.85,6.05c0,0,.33,10.88,59.16,6.7l40.24-7.75Z"/><path class="cls-17" d="M336.84,485.92c-5.58,4.72-17.91,13.15-43.09,23l2.49,2.19s23.22-6.47,41.68-22.7Z"/><path class="cls-17" d="M230.64,375.82s20.92,29.85-22.82,42.37c-45.56,13-75.85-19.61-87.74-37.88,0,0,25.09,55.82,89.6,40.4C255.83,409.67,230.64,375.82,230.64,375.82Z"/><g id="NcBidl.tif"><path class="cls-30" d="M290.94,196.13a24.66,24.66,0,0,0-1.72-2.08c-1.79-1.76-3.62-3.49-5.47-5.2a20,20,0,0,1-3.84-4.22,8,8,0,0,1-.94-7.06,6.11,6.11,0,0,1,5.61-4.22,6.26,6.26,0,0,1,6.1,3.22l.19.31a17.3,17.3,0,0,1,1.95-2.13,6.46,6.46,0,0,1,10.43,4.13,8.11,8.11,0,0,1-2.24,6.88c-1.51,1.65-3.19,3.14-4.83,4.66a33.11,33.11,0,0,0-5.11,5.6A.75.75,0,0,1,290.94,196.13Z"/></g><g id="NcBidl.tif-2" data-name="NcBidl.tif"><path class="cls-30" d="M260.67,164.5a39.82,39.82,0,0,0-2.78-3.37c-2.91-2.86-5.88-5.66-8.86-8.43-2.28-2.11-4.62-4.15-6.23-6.84-2.15-3.58-3-7.43-1.53-11.45a9.92,9.92,0,0,1,9.09-6.84c4.3-.33,7.61,1.56,9.89,5.22l.31.5a29.09,29.09,0,0,1,3.17-3.45,10.47,10.47,0,0,1,16.9,6.69A13.21,13.21,0,0,1,277,147.69c-2.44,2.68-5.17,5.09-7.84,7.55a53.69,53.69,0,0,0-8.28,9.09A1,1,0,0,1,260.67,164.5Z"/></g><g id="NcBidl.tif-3" data-name="NcBidl.tif"><path class="cls-30" d="M285.05,115.33a58.27,58.27,0,0,0-4.09-5c-4.27-4.19-8.63-8.3-13-12.37-3.33-3.1-6.78-6.09-9.14-10-3.15-5.27-4.42-10.92-2.24-16.82a14.58,14.58,0,0,1,13.35-10c6.31-.48,11.17,2.3,14.52,7.67l.45.73a42.58,42.58,0,0,1,4.65-5.07,15.39,15.39,0,0,1,24.82,9.83c.92,6.31-1.15,11.83-5.33,16.4-3.59,3.92-7.59,7.47-11.51,11.07a79.39,79.39,0,0,0-12.16,13.35A1.69,1.69,0,0,1,285.05,115.33Z"/></g></svg>