<svg xmlns="http://www.w3.org/2000/svg" viewBox="0 0 637.33 635.77"><defs><style>.cls-1{fill:#c1e7f6;}.cls-2{fill:#d16152;}.cls-3{fill:#42221a;}.cls-4{fill:#a86e57;}.cls-5{fill:#cd8c2a;}.cls-6{fill:#12100e;}.cls-7{fill:#b05e27;}.cls-8{fill:#de8b26;}.cls-9{fill:#fff;}.cls-10{fill:#643b29;}.cls-11{fill:#14110f;}.cls-12{fill:#f0edf6;}.cls-13{fill:#812a23;}</style></defs><g id="Layer_1" data-name="Layer 1"><circle class="cls-1" cx="319.06" cy="340.56" r="288.85"/><path class="cls-2" d="M145.43,387.93l-31,159.94A295.56,295.56,0,0,0,186.24,598L207,513.73V316.35l-22,7C169.2,331.14,149,358.56,145.43,387.93Z"/><path class="cls-3" d="M518.15,311s1.26,5,3.19,6.94,14.11,9.62,14.11,9.62-13.77-6.28-15.64-8.28-1.66-9-1.66-9"/><path class="cls-4" d="M506.25,260.71l-3.76,42.94-3.08,7.78s1.29,23.05,2.17,27.83,13,27.91,13,27.91l-8.31,25.26,41.43,5.27s5.37-22.54,7.68-25.5a25.13,25.13,0,0,0,2.34-14.53c-.37-4.54-1.08-31.93-1.08-31.93s9.67-32.77,2.41-32.54a25,25,0,0,0-5.24,1.39s-5.49,21.37-8.14,22.33l-4.39-1.27s.84-30.8-.1-36.3-3-9.05-7.29-8.64c0,0-2.8,2-2.75,3.46s.07,35.57-1.86,35.4-1.8-3.3-1.8-3.3,1-41.48-.13-43.73a6.28,6.28,0,0,0-7.56-3.83L517,282.12s-.66-19-4.47-21.44A5.18,5.18,0,0,0,506.25,260.71Z"/><path class="cls-2" d="M553.1,391.45l-46.05-16.53L486.4,443.36l-26.33-91.19c-3.43-12.8-17.48-31.79-30-36.2l-30.52-9.74L423.89,535l6.16,17.31a45.63,45.63,0,0,0,22.54,23.88c18.8,9.16,45.16,13.65,59-1.36,10.69-11.57,20.63-34,23.85-49.43"/><path class="cls-2" d="M200.5,604.14C236,620.32,278.19,628.77,318,628.77c34.5,0,77.63-8.3,108.4-19.18,0-3.33.17-21.66,0-25-3.35-66.14-1.23-139.46-.84-153,.55-19.43-26-125.39-26-125.39L376,298.08,362.7,296.9l-1.09-.64a9,9,0,0,0,0,2.54l.19,1.35a47.54,47.54,0,0,1-37.29,24,113.85,113.85,0,0,1-16.27.17c-17.77-1.09-31.17-9.68-41.49-24.19l-.2-3.59-26.23,6.51-54.4,20.08L201.8,586.25"/><path class="cls-3" d="M504.86,301.63l9.46-14.71-1.68.59A8.34,8.34,0,0,1,516,290c2.57,3.15,2.11,7.19,1.48,10.93a55.2,55.2,0,0,1-2.45,10,11.39,11.39,0,0,0-.53,3.51l-.38,7.5a.46.46,0,0,0,.25.46,39.9,39.9,0,0,1,15.77,14.28,36.31,36.31,0,0,1,4.49,10.1c.24.88,2.42.29,2.18-.59-2.75-10-9.79-18.5-18.66-23.81a23,23,0,0,0-2.07-1.13l.24.46.35-6.82c.05-1,.07-2,.15-3,0-.28-.1.25,0-.08s.24-.6.34-.89a56.13,56.13,0,0,0,2.56-10.39c.62-3.8,1-7.78-1.44-11.06a9,9,0,0,0-4.35-3.22,1.62,1.62,0,0,0-1.68.59l-9.46,14.71c-.6.93,1.61.84,2.06.14Z"/><path class="cls-3" d="M525.14,314c8.63-.14,18.13,2.88,24.48,8.76.58.54,2.64-.29,2-.87a34.92,34.92,0,0,0-16.43-8.1,40.42,40.42,0,0,0-9.23-1.08c-.43,0-1.25.14-1.44.61s.15.69.6.68Z"/><path class="cls-4" d="M362.14,290.35c-.94-3-.11-34.57-.11-34.57L315.28,263l-46.75-7.19s.93,34.9,0,37.87-28.21,9.43-28.21,9.43,14.24,30.75,75,30.75,72.8-31.58,72.8-31.58S363.07,293.32,362.14,290.35Z"/><path class="cls-3" d="M268.64,263.05c.74.55,6.15,7.71,6.93,8.26,19.2,13.6,22.06,17.31,38.64,18,16.58-.67,23.7-3,41.53-19.57,6-5.6,4.69-7.48,6-8.52C332,261.12,298.48,262.84,268.64,263.05Z"/><path class="cls-4" d="M238.46,171.3s-9-13.77-14.05-13.22c-3.09.34,4.06,7.3,4.94,15.18,1.19,10.55-6.61,11.91-4.16,17.88S230.83,217.92,239,217c3.25-.36,6.58-7.56,6.58-7.56S241.13,180.69,238.46,171.3Z"/><path class="cls-5" d="M236.1,210.4c-3.58.39-7.16,2.51-7.61,6.38a6.2,6.2,0,0,0,1.21,4.48,5.58,5.58,0,0,0,2.94,2.06,9.1,9.1,0,0,0,7.87-1.23c.4-.27.31-.55-.16-.59a2.89,2.89,0,0,0-1.76.47,3.41,3.41,0,0,1-2,.69,6.41,6.41,0,0,1-2.16-.45,4.68,4.68,0,0,1-2.19-1.61,6.06,6.06,0,0,1-.12-7.23,5.6,5.6,0,0,1,1.51-1.4,3.57,3.57,0,0,1,.74-.35c.21-.08-.16,0,0,0l.33-.09c-.21.05.39-.06.32,0a2.61,2.61,0,0,0,1.67-.61c.32-.42-.29-.49-.61-.45Z"/><path class="cls-4" d="M387.79,170.87s7.53-14.59,12.65-14.56c3.11,0-3.3,7.67-3.39,15.6-.11,10.61,7.79,11.18,5.94,17.36s-2.9,27.22-11.14,27.17c-3.27,0-7.3-6.85-7.3-6.85S386.09,180.49,387.79,170.87Z"/><path class="cls-4" d="M398.85,179.5a.11.11,0,0,0,0,.05c-1.82,9.22-4.07,18.93-5.62,30.06-4.09,29.37-12.83,42.87-32.79,55.84-20.91,13.61-27.18,18.9-45.24,19.58-18.05-.68-24.33-6-45.23-19.58-19.95-13-28.7-26.47-32.78-55.84-.92-6.55-2.07-12.6-3.23-18.35-.86-4.26-1.73-8.37-2.52-12.38,0-.07,0-.12,0-.18v0c-2.88-14.74-4.63-28.34-.68-44.77,4.07-17,18.12-38.09,39.51-51.41h0a84.37,84.37,0,0,1,44.94-13c46.35,0,78,37.36,84.51,64.4C403.71,150.62,401.82,164.44,398.85,179.5Z"/><path d="M321.17,217.61a8,8,0,0,1-8.54-.42c-.54-.38-2.35.05-1.6.59a11.33,11.33,0,0,0,11.63.34c.32-.2.27-.48-.12-.62a1.8,1.8,0,0,0-1.37.11"/><path d="M309.82,217a18.24,18.24,0,0,0-6.29-1.56,1.46,1.46,0,0,0-1,.31c-.18.16-.22.38,0,.51A6.93,6.93,0,0,0,306,217a1.34,1.34,0,0,0,1.06-.41c.19-.3-.16-.49-.45-.48a5.4,5.4,0,0,1-2.78-.64l-.95.81a16.05,16.05,0,0,1,5.61,1.42,1.37,1.37,0,0,0,1.15-.13c.23-.14.48-.45.14-.62"/><path d="M301.29,217.23a7,7,0,0,1-5.71-3.06c-1.59-2.87-.11-6.28,2.57-8.11.29-.2.13-.46-.16-.53a1.48,1.48,0,0,0-1.14.28,7.42,7.42,0,0,0-3.49,6.88c.33,2.52,2.37,4.27,4.94,5a10,10,0,0,0,2.37.39c.32,0,.91-.11,1.06-.41s-.13-.43-.44-.44"/><path d="M323.71,217A18.19,18.19,0,0,1,330,215.4a1.42,1.42,0,0,1,1,.31c.19.16.22.38,0,.51a6.93,6.93,0,0,1-3.45.79,1.32,1.32,0,0,1-1.06-.41c-.2-.3.16-.49.45-.48a5.45,5.45,0,0,0,2.78-.64l.94.81a16.11,16.11,0,0,0-5.61,1.42,1.37,1.37,0,0,1-1.15-.13c-.23-.14-.47-.45-.13-.62"/><path d="M332.23,217.23c2.14-.06,4.66-1.16,5.71-3.06,1.59-2.87.11-6.28-2.56-8.11-.29-.2-.14-.46.16-.53a1.49,1.49,0,0,1,1.14.28,7.42,7.42,0,0,1,3.49,6.88c-.33,2.52-2.38,4.27-4.94,5a10,10,0,0,1-2.37.39c-.33,0-.91-.11-1.07-.41s.14-.43.44-.44"/><path class="cls-6" d="M337.11,152.25c0,1.66,0,3.34.05,5,0,1.27,0,2.55,0,3.82,4.63-1.1,8.6-1.81,11.6-2.28,6.34-1,9.58-1.49,13.27-.94a37.63,37.63,0,0,1,8.44,2.41,23.17,23.17,0,0,1,4.44,2.14c3.13,2.07,4.42,4.4,4.93,4.19s-.31-2.24-.39-2.45a19.79,19.79,0,0,0-6.69-8.45,26,26,0,0,0-8.57-3.58c-3.65-.84-13.74-1.41-27.13.12"/><path class="cls-6" d="M353.19,172.41c2.17-1.13,4.71-.15,6.13,1.1a5.42,5.42,0,0,1,1.65,2.57,5.66,5.66,0,0,1-1.33,5.15,5.25,5.25,0,0,1-6,1.05,5.8,5.8,0,0,1-2.85-6.75,5.17,5.17,0,0,1,2.44-3.12"/><path class="cls-6" d="M336.16,180.24s11.44-8.32,17.29-8.85c8.54-.79,19.06,3.58,22.08,7.5,0,0-13.92-6.54-19.92-5.82C349.88,173.75,336.16,180.24,336.16,180.24Z"/><path class="cls-6" d="M295.89,152.43c0,1.66,0,3.34,0,5,0,1.27,0,2.55-.05,3.82-4.64-1.1-8.6-1.81-11.6-2.28-6.34-1-9.58-1.49-13.27-.94a37.63,37.63,0,0,0-8.44,2.41,22.88,22.88,0,0,0-4.44,2.14c-3.14,2.07-4.42,4.4-4.93,4.19s.31-2.24.39-2.45a19.88,19.88,0,0,1,6.68-8.45,26.1,26.1,0,0,1,8.58-3.58c3.65-.84,13.73-1.41,27.12.12"/><path class="cls-6" d="M279.82,172.59c-2.17-1.13-4.71-.15-6.13,1.1a5.49,5.49,0,0,0-1.66,2.57,5.69,5.69,0,0,0,1.34,5.15,5.24,5.24,0,0,0,6,1.05,5.79,5.79,0,0,0,2.86-6.75,5.17,5.17,0,0,0-2.44-3.12"/><path class="cls-6" d="M296.85,180.42s-11.44-8.32-17.29-8.85c-8.54-.79-19.06,3.58-22.08,7.5,0,0,13.92-6.54,19.92-5.83C283.13,173.93,296.85,180.42,296.85,180.42Z"/><path class="cls-7" d="M217.38,102s38.17-18.62,87-12.43,72.31,37,80.56,59.05,9,44.18,9,44.18,12,6.08,20.72-38.63C427.44,89,356.14,31.47,340.32,31.47S240.08,29.09,217.38,102Z"/><path class="cls-7" d="M226.14,83S218,31.58,253.37,22s110-26.88,131.74,20Z"/><path class="cls-8" d="M224.31,188.5a31,31,0,0,1-7.8-13.34c-3.94-13.88-10.82-42.55-4.5-55.27,2.76-5.54,3.86-22.06,4.13-26.92,1.37-25.45-4.67-17.67,31.1-46.55s41.95-20.93,95.61-17.49,69,20.82,64.89,71.09c0,0-72.23-20.77-106.29-2.36s-70.73,77.72-68.25,99.07C233.27,197.41,228.39,192.61,224.31,188.5Z"/><path class="cls-7" d="M210.21,145.48S264.81,75.66,328.67,75c0,0-81.73-10.65-118,48.35Z"/><path class="cls-7" d="M407.27,76.76S344.18,53.82,320,51.84s76.45,1.85,86.11,12.83Z"/><ellipse class="cls-9" cx="316.76" cy="238.8" rx="21.23" ry="4.46"/><path class="cls-5" d="M394.65,212.11a6.18,6.18,0,0,1,6,4.86,6,6,0,0,1-.56,4,5.46,5.46,0,0,1-1.06,1.46c-.08.07-.18.13-.27.2l-.13.08-.36.21a5.79,5.79,0,0,1-.63.3l-.25.08c.23-.08-.22,0,0,0l-.42.07a5.49,5.49,0,0,1-3.11-.75c-.43-.23-1.17,0-1.6.18-.11,0-1.11.46-.76.65a8.37,8.37,0,0,0,6.74.33,8.27,8.27,0,0,0,3.19-1.73,6.4,6.4,0,0,0,.16-8.79,7.1,7.1,0,0,0-5.25-2.15,3.46,3.46,0,0,0-1.77.48c-.38.23-.37.48.13.48Z"/><path class="cls-10" d="M317.25,234.4c-12.2,0-32-1.39-32-1.39s3.38,32,31.67,32,32.29-32,32.29-32S329.45,234.4,317.25,234.4Z"/><path class="cls-11" d="M317.37,234.4c-5.8,0-29.19-1-29.19-1s7.42,21,28.41,21c22.75,0,29.74-20.78,29.74-20.78Z"/><path class="cls-12" d="M317.62,235.25c-5.8,0-23.46-.95-23.46-.95s6.36,6.17,23.76,6.17,22.94-6,22.94-6Z"/><path class="cls-10" d="M350.51,231.27c-.62-.14-4,.95-6.87.71-4.81-.41-10.62-1.64-14.1-1.9-5.94-.44-9.71,1.84-12.29,1.84s-6.35-2.28-12.3-1.84c-3.48.26-9.28,1.49-14.09,1.9-2.88.24-6.25-.85-6.87-.71-.86.21.8,6.32,33.27,6.32S351.37,231.48,350.51,231.27Z"/><path class="cls-13" d="M431.42,378.71c-1.21,3.56-2.2,7.21-3.07,10.86-1.38,5.78-2.74,12.07-2,18a30.18,30.18,0,0,0,1.66,5.72q1.26,3.69,2.44,7.41c2.16,6.78,4.14,13.62,5.87,20.52a186.88,186.88,0,0,1,4.5,23.19c.92,7.64,1,15.21-1,22.69-3.09,11.25-9.65,21.92-17.54,30.48a2.16,2.16,0,0,0-.73,1.75V540c0,1.42,3,.9,3-.29V519a1.75,1.75,0,0,0,0-.56c-.17-.32.13.34-.25.34.14,0,.56-.6.64-.7.47-.5.92-1,1.37-1.54q2.31-2.73,4.41-5.63A79.92,79.92,0,0,0,441,492.46a54.84,54.84,0,0,0,3.09-11.39,54,54,0,0,0,.34-11.22A144.57,144.57,0,0,0,440.88,447a339.16,339.16,0,0,0-10.68-36.83c-1.81-5.25-.88-11,.14-16.33a122.76,122.76,0,0,1,3.8-14.63c.08-.26.17-.53.26-.79.23-.7-.91-.87-1.33-.84a1.82,1.82,0,0,0-1.65,1.12Z"/><path class="cls-13" d="M189.4,379.21c1.21,3.56,2.2,7.21,3.07,10.86,1.36,5.72,2.83,12.09,1.9,18a35.68,35.68,0,0,1-1.73,5.64q-1.27,3.78-2.48,7.57C188,428.1,186,435,184.28,442a183.8,183.8,0,0,0-4.41,23.17c-.86,7.58-.92,15.1,1.12,22.51,3.14,11.46,9.78,22.26,17.75,31a5.06,5.06,0,0,0,.62.67c-.14.06,0-.68-.11-.33a2.15,2.15,0,0,0,0,.62v20.63c0,1.42,3,.9,3-.29V521.6c0-.92.34-2.65-.13-3.5a13.5,13.5,0,0,0-1.72-1.91c-1.49-1.72-2.89-3.49-4.24-5.32a80.28,80.28,0,0,1-10.31-18.33,54.41,54.41,0,0,1-3.12-11.47,52.71,52.71,0,0,1-.3-11.37A149.12,149.12,0,0,1,186,446.8a343.44,343.44,0,0,1,10.61-36.39c1.81-5.25.79-11.26-.23-16.57a123.11,123.11,0,0,0-3.8-14.62c-.08-.27-.17-.53-.26-.8-.41-1.22-3.36-.4-3,.79Z"/><path class="cls-13" d="M485.51,444.33C484,454.1,479.62,463,475.71,472a133.14,133.14,0,0,0-8.95,28.86,128.44,128.44,0,0,0-2,17.06c0,1.08,2.91.47,3-.42a128.76,128.76,0,0,1,5.06-29.93c2.84-9.62,7.24-18.53,11-27.78a69.17,69.17,0,0,0,4.66-15.85c.16-1-2.8-.5-2.94.42Z"/></g></svg>