<svg id="Layer_1" data-name="Layer 1" xmlns="http://www.w3.org/2000/svg" xmlns:xlink="http://www.w3.org/1999/xlink" viewBox="0 0 205.83 139.18"><defs><style>.cls-1{fill:none;}.cls-2{clip-path:url(#clip-path);}.cls-3{fill:#ccb631;}.cls-4{fill:#9e684a;}.cls-5{fill:#1c3b53;}.cls-6{fill:#5fa0ae;}.cls-7{fill:#603a2c;}.cls-8{fill:#587c81;}.cls-9{fill:#242f34;}.cls-10{fill:#010101;}.cls-11{fill:#231f20;}.cls-12{fill:#151210;}.cls-13{fill:#653c29;}.cls-14{fill:#31160e;}.cls-15{fill:#f1eef7;}.cls-16,.cls-27,.cls-39{fill:#fff;}.cls-16{opacity:0.14;}.cls-17{fill:#273238;}.cls-18{fill:#4f2e25;}.cls-19{fill:#161312;}.cls-20{fill:#714533;}.cls-21{fill:#c95744;}.cls-22{fill:#993a2f;}.cls-23{fill:#ce8d2a;}.cls-24{fill:#13110f;}.cls-25{fill:#b15e27;}.cls-26{fill:#df8c26;}.cls-28{fill:#a99231;}.cls-29{fill:#cdb731;}.cls-30{fill:#966244;}.cls-31{fill:#020202;}.cls-32{fill:#878787;}.cls-33{fill:#161412;}.cls-34{fill:#863424;}.cls-35{fill:#622616;}.cls-36{fill:#653d2a;}.cls-37{fill:#311811;}.cls-38{fill:#28343a;}.cls-39{isolation:isolate;opacity:0.14;}.cls-40{fill:#89762e;}.cls-41{fill:#7f65ac;}.cls-42{opacity:0.5;}.cls-43{fill:#ffce07;}.cls-44{fill:#cb892a;}.cls-45{fill:#273339;}.cls-46{fill:#022f3d;}.cls-47{fill:#ffefaf;}.cls-48{fill:#5bc6d0;}.cls-49{fill:#ffce09;}.cls-50{fill:#ea2754;}.cls-51{fill:#f39e24;}.cls-52{fill:#5954a4;}</style><clipPath id="clip-path"><rect class="cls-1" y="0.56" width="205.83" height="138.61"/></clipPath></defs><g class="cls-2"><path class="cls-3" d="M24.39,119.91,28.56,99l-4-23.74s-4.43.38-6.78,7.56c-2.11,7.92-5.9,33.51-5.61,38.58.09,1.48.46,14.21,1.11,18.44H24.81Z"/><path class="cls-4" d="M122.86,37.27l.49,9.12c.32.78,10.43,5.42,10.43,5.42l-23,7.89L94.71,51.81l11.41-5.1.31-8.86"/><path class="cls-5" d="M138,142.87a180.56,180.56,0,0,0,0-26.52l-50.93-4.67L87,129.06l-.23,11.37L86.63,149h50.88C137.69,146.92,137.87,144.86,138,142.87Z"/><path class="cls-6" d="M137.69,52s2.94.37,6.86,5.22,7,34.15,8.06,40.76-2,33.31-2,33.31-5.73,1.35-8-.31l-2.17-32.47L137,71.6Z"/><path class="cls-4" d="M73.3,47.32l-.17,4.77H66.19a7.1,7.1,0,0,0-.75-5.16c-1-1.41-5.39-11.56-5.94-12.79s-.34-2,.15-1.89c.86.11,3.55,6,4,5.87s-3-7.24-2.89-8.6c.06-.65.38-.74.71-.65a1.18,1.18,0,0,1,.79.73c.26.69,1.49,3.17,2.15,4.57a13.83,13.83,0,0,0,1.66,3.12,10,10,0,0,0-1.22-3.43c-.56-1.3-1.32-3.61-1.74-4.85l0-.1c-.48-1.31.21-2.24,1-1.22,1.16,1.49,4.07,8.83,4,8.75s-.35-2-.56-3.37-2.57-7-.81-6.37c.85.28,2.26,4,2.87,5.63l2.77,7.07A41.46,41.46,0,0,1,73,34.83c.49-1.91,1.78-1.76,1.78-1.76s.29,9.67,0,11.33A5.48,5.48,0,0,1,73.3,47.32Z"/><path class="cls-7" d="M70.8,40a4.29,4.29,0,0,0-3.4,1.78,5.47,5.47,0,0,0-.84,2c0,.14.36.08.39,0a4.52,4.52,0,0,1,1.62-2.74,3.83,3.83,0,0,1,1.74-.71,1.27,1.27,0,0,1,.28,0h.06c.08,0,.22,0,.26-.11s0-.11-.11-.11Z"/><g id="freepik--Character--inject-1209"><path class="cls-6" d="M131,49.61l-5.89-2.75s-3.94,6.86-10.51,6.75S104.52,47.05,104.5,47a9.93,9.93,0,0,0-1.68.09c-.87,0-1.74-.08-2.61-.14a48.59,48.59,0,0,0-5.66,0,13.75,13.75,0,0,0-5,.82,13.32,13.32,0,0,0-6.3,6.34,10.43,10.43,0,0,0-.41,1.23L77.78,67,74.46,49.85l-.93.62a12.76,12.76,0,0,1-8.21.33l-.54-.16s1.8,30.15,2.65,34.44c2.06,6.42,4.69,10.9,12,7.38,2.39-1.14,5.4-5.08,8-9.19l.27,17.06s-1.57,20-2.41,26.5c-.12,1,12.82,4.3,13.61,4.43,6.18,1.06,19.86-.11,26.12-1,.9-.12,10.89-4.94,10.89-9.94,0-.36-7.54-18.13-7.54-18.13Z"/></g><path class="cls-6" d="M123.73,122.59c1.29-.54,2.54-1.18,3.79-1.8s2.54-1.19,3.79-1.84a34.08,34.08,0,0,0,4.24-2.69c-.49-5.07-1-9.12-1-9.12l5-42.55c-.06-3.87-.21-7.76-.17-11.64,0-.36-3.61-1.83-4.08-2.06-1.54-.73-3.09-1.44-4.65-2.11s-3.42-1-5-1.63c-.72-.27-.18.83-.53,1.5-.16.31-.83.78-.83,1.14l-3.78,32c-.12,2.65-1,13.94-1,14,0,1.1-.93,17-.55,20.84a36.11,36.11,0,0,0,1.65,6.92A14.3,14.3,0,0,0,123.73,122.59Z"/><polygon class="cls-8" points="87.5 83.27 85.87 62.59 86.55 84.71 87.5 83.27"/><polygon class="cls-8" points="136.64 83.35 138.27 62.66 137.58 84.79 136.64 83.35"/><path class="cls-8" d="M77.78,67s2.85,9.33,2.68,13.52"/><path class="cls-9" d="M141.78,66.77l-2.66,24-.38,3.39c0,.12.37,0,.38-.06l2.66-24,.38-3.39c0-.12-.37,0-.38.06Z"/><path class="cls-4" d="M125.14,26.6s1.34-2.6,2.25-2.59c.56,0,1.9,1.48,1.88,2.9,0,1.89-1.34,4-1.66,5.14s-.28,2.69-1.75,2.68c-.58,0-1.3-1.22-1.3-1.22S124.83,28.32,125.14,26.6Z"/><path class="cls-10" d="M125.9,29.23a10.86,10.86,0,0,1,1.44-2.38,3.39,3.39,0,0,1,.47-.46l.1-.07,0,0s0,0,0,0l.14-.07s0,0,0,0h0c-.08,0,0,0-.06,0l-.11-.05a1.47,1.47,0,0,1,.25.54,3.15,3.15,0,0,1,0,1.64c0,.18.35.13.39,0a3.12,3.12,0,0,0-.08-2c-.07-.17-.15-.41-.37-.38a1.2,1.2,0,0,0-.51.21,3.66,3.66,0,0,0-.81.81,11.86,11.86,0,0,0-1.31,2.23c-.09.19.3.19.36,0Z"/><path class="cls-10" d="M126.14,29.63c.48,0,.3.77.26,1.05s-.22,1,.22,1a.53.53,0,0,0,.48-.38,4.78,4.78,0,0,0,.31-1,4,4,0,0,0,.06-1.29,1.62,1.62,0,0,0-.75-1.39.29.29,0,0,0-.27,0s-.12.12,0,.16a1.43,1.43,0,0,1,.65,1.14,3.38,3.38,0,0,1,0,.95,7.35,7.35,0,0,1-.25,1.15,1.94,1.94,0,0,1-.15.36s-.07.11-.07.12h0l.18,0,0,0c0-.05,0-.12,0-.17a1.38,1.38,0,0,1,0-.29c0-.22.07-.44.09-.66,0-.43,0-.91-.55-.89-.07,0-.21,0-.25.11s0,.12.11.11Z"/><path class="cls-4" d="M103.52,26.6S102.17,24,101.26,24c-.55,0-1.89,1.48-1.88,2.9,0,1.89,1.34,4,1.67,5.14s.27,2.69,1.74,2.68c.59,0,1.31-1.22,1.31-1.22S103.82,28.32,103.52,26.6Z"/><path class="cls-10" d="M103.13,29.16A13.55,13.55,0,0,0,102,27.1a4,4,0,0,0-.84-.89,1.21,1.21,0,0,0-.47-.23c-.25,0-.37.11-.47.3a3,3,0,0,0-.13,2.09c0,.11.42,0,.39-.11a3.19,3.19,0,0,1,0-1.65,1.67,1.67,0,0,1,.25-.54l-.25.1c-.07,0,0,0,0,0h0a1,1,0,0,1,.29.16,4.6,4.6,0,0,1,1.12,1.28,13,13,0,0,1,.89,1.64c.06.12.43,0,.39-.1Z"/><path class="cls-10" d="M102.52,29.4c-1.16,0-.49,1.33-.6,2,0,0,0,.05,0,.07s0,0,0,0,.18-.06.19,0l-.06-.07a.71.71,0,0,1-.08-.15,4,4,0,0,1-.29-1c0-.2-.07-.39-.1-.59a.62.62,0,0,1,0-.12,4.15,4.15,0,0,1,0-.49c0-.43.15-1.11.61-1.31.06,0,.14-.09.09-.17s-.19,0-.25,0a1.54,1.54,0,0,0-.79,1.21,3.15,3.15,0,0,0,0,1.06,7.39,7.39,0,0,0,.27,1.22c.06.18.14.48.32.58a.38.38,0,0,0,.51-.17,1,1,0,0,0,0-.55c0-.19-.28-1.27.07-1.26.08,0,.22,0,.26-.11s0-.13-.11-.13Z"/><path class="cls-4" d="M102.22,27.84c.19,2.06.59,4,.68,6.14a28.21,28.21,0,0,0,.61,5.79,3.91,3.91,0,0,0,1,1.08,21.24,21.24,0,0,0,6.19,4.3,15.44,15.44,0,0,0,7.07,0,22,22,0,0,0,3.85-2.42,12.3,12.3,0,0,0,3.48-3.1,3.24,3.24,0,0,0,.26-1.34c.15-1.43.18-2.87.24-4.31.1-2.16.49-4.08.68-6.14s.42-10.63-.19-12.27-7.82-6-11.85-6c-2.83,0-7.23,2.17-9.81,4a6.15,6.15,0,0,0-2,2C101.8,17.21,102,25.78,102.22,27.84Z"/><path class="cls-11" d="M113.53,33.2a1.15,1.15,0,0,0,1.32-.09c.08-.07.36,0,.25.11a1.66,1.66,0,0,1-1.89,0s0-.09,0-.11.25.06.3.1"/><path class="cls-11" d="M115.29,33a2.86,2.86,0,0,1,1.09-.08.25.25,0,0,1,.15.08s0,.08,0,.1a1.07,1.07,0,0,1-.59,0c-.06,0-.14-.05-.16-.11s0-.08.09-.07a.87.87,0,0,0,.48,0l.13.18a2.43,2.43,0,0,0-1,.07.2.2,0,0,1-.19-.06s-.06-.09,0-.11"/><path class="cls-11" d="M113,33.05a2.62,2.62,0,0,0-1.08-.09.22.22,0,0,0-.15.08s0,.08,0,.09a1,1,0,0,0,.6,0,.21.21,0,0,0,.16-.1c0-.06,0-.09-.09-.08a.79.79,0,0,1-.48,0l-.13.18a2.64,2.64,0,0,1,1,.08.2.2,0,0,0,.18,0s.07-.1,0-.12"/><path class="cls-11" d="M116.72,33.13a1.11,1.11,0,0,0,1-.56,1.2,1.2,0,0,0-.43-1.48.06.06,0,0,1,0-.1.22.22,0,0,1,.19.05A1.39,1.39,0,0,1,118,32.3a1.11,1.11,0,0,1-.82.92,1.76,1.76,0,0,1-.4.07s-.15,0-.17-.08,0-.08.07-.08"/><path class="cls-11" d="M111.55,33.15a1.16,1.16,0,0,1-1-.56A1.23,1.23,0,0,1,111,31.1s0-.08,0-.1a.22.22,0,0,0-.19.05,1.41,1.41,0,0,0-.58,1.27,1.1,1.1,0,0,0,.82.91,1.4,1.4,0,0,0,.4.07.24.24,0,0,0,.18-.07c0-.06,0-.08-.08-.08"/><path class="cls-12" d="M120.09,25.58a.94.94,0,0,1,1,.18.89.89,0,0,1,.28.43,1,1,0,0,1-.23.86.88.88,0,0,1-1,.18,1,1,0,0,1-.47-1.13.83.83,0,0,1,.41-.52"/><path class="cls-12" d="M108.05,25.58a.94.94,0,0,0-1,.18.89.89,0,0,0-.28.43.94.94,0,0,0,.22.86.89.89,0,0,0,1,.18,1,1,0,0,0,.48-1.13.87.87,0,0,0-.41-.52"/><path class="cls-12" d="M111.14,27A10.18,10.18,0,0,0,108,25.42a5.53,5.53,0,0,0-4,1.37s2.55-1.19,3.64-1.06A18.28,18.28,0,0,1,111.14,27Z"/><path class="cls-12" d="M116.87,26.94A10,10,0,0,1,120,25.33a5.4,5.4,0,0,1,4,1.37s-2.54-1.2-3.64-1.07A19.28,19.28,0,0,0,116.87,26.94Z"/><path class="cls-12" d="M116.75,21.46c0,.37,0,.74,0,1.12s0,.93,0,1.21c.84-.24,1.59-.6,2.13-.71a9.43,9.43,0,0,1,3.25-.33,3.62,3.62,0,0,1,1.41.51c.14.09.51.48.71.38s0-.5-.07-.55a2.29,2.29,0,0,0-1.91-1.51,14.64,14.64,0,0,0-5.52-.12"/><path class="cls-12" d="M111.21,21.46c0,.37,0,.74,0,1.12s0,.79,0,1.08c-.82-.25-1.53-.53-2.06-.64a9.36,9.36,0,0,0-3.24-.27,3.48,3.48,0,0,0-1.38.51c-.14.09-.5.48-.7.38s0-.5.06-.55a2.29,2.29,0,0,1,1.89-1.51,14.17,14.17,0,0,1,5.43-.12"/><path class="cls-12" d="M125.38,38.39s.09-.21-.32.35c-1,1.38-4.15,3.71-5.1,4.43a16.59,16.59,0,0,1-3,1.52,4.7,4.7,0,0,0-2.77-1.37c-1.53-.06-3.18,1.5-3.18,1.5A81.26,81.26,0,0,0,104.23,40c-.12-.06-.91-1.42-1-1.45s-.63,1.31,3.07,3.84c2.58,1.76,3.25,2.6,5.31,3a12.13,12.13,0,0,0,6.17-.3,36.29,36.29,0,0,0,7.1-5.06A3.45,3.45,0,0,0,125.38,38.39Z"/><path class="cls-12" d="M115.84,38.85,112,38.71c.08.21.38,1.8,2,1.63C115.47,40.19,115.16,39.49,115.84,38.85Z"/><path class="cls-13" d="M114,35.9c1.87,0,4.9-.21,4.9-.21s-.56,3.6-4.9,3.6-4.91-3.6-4.91-3.6S112.1,35.9,114,35.9Z"/><path class="cls-14" d="M114,35.9c.89,0,4.48-.15,4.48-.15s-1.19,1.92-4.41,1.92c-3.49,0-4.52-1.89-4.52-1.89Z"/><path class="cls-15" d="M113.92,36c.89,0,3.6-.15,3.6-.15s-1,.95-3.65.95-3.52-.92-3.52-.92Z"/><path class="cls-13" d="M108.87,35.42a7.74,7.74,0,0,0,1.06.11c.73-.07,1.62-.25,2.16-.29a8.16,8.16,0,0,1,1.89.28,8,8,0,0,1,1.88-.28c.54,0,1.43.22,2.17.29a7.53,7.53,0,0,0,1-.11c.13,0-.12,1-5.11,1S108.74,35.45,108.87,35.42Z"/><path class="cls-12" d="M114.59,34l.13.86a.32.32,0,0,0,.25.24c.88.12,4.2.57,5,.56H120l.25.22c.29-.06-.06-.89-.34-1a20,20,0,0,0-2.13-.74,17.44,17.44,0,0,0-2.92-.49A.29.29,0,0,0,114.59,34Z"/><path class="cls-12" d="M113.76,34l-.25.88a.31.31,0,0,1-.26.24c-.87.11-4.29.27-5,.52a.07.07,0,0,1-.06,0l-.25,0c-.29-.06-.09-.64.19-.75a19.48,19.48,0,0,1,2.29-.7,18.93,18.93,0,0,1,3-.49A.3.3,0,0,1,113.76,34Z"/><path class="cls-16" d="M105.11,29.66a24.17,24.17,0,0,1-1.87-4.15c2.33-1.23,6.53-.85,8.73.4-.27,1.19-.59,3.28-1.26,3.72-1,.64-5.3.46-5.6,0Z"/><path class="cls-16" d="M122.8,29.66c-.31.43-4.64.61-5.61,0-.67-.44-1-2.53-1.25-3.72,2.2-1.25,6.4-1.63,8.73-.4a25,25,0,0,1-1.87,4.15Z"/><path class="cls-17" d="M126.52,26.12l-1.42-.49q.11-.31.24-.63l-1.13-.39a10.43,10.43,0,0,0-8.65.68,7.21,7.21,0,0,0-1.64-.23,6.47,6.47,0,0,0-1.57.23c-2.25-1.31-6-1.87-8.65-.68l-1.14.39a3.2,3.2,0,0,1,.17.43l-1.39.48.11.4,1.46-.31a.54.54,0,0,1,0,.22l.19.48a17.41,17.41,0,0,0,1.43,3.2c.49.68,5.44.66,6.38,0s1.28-3.19,1.5-4a8.79,8.79,0,0,1,1.51-.27,5.62,5.62,0,0,1,1.6.37c.23.92.62,3.36,1.48,3.92s5.88.64,6.37,0a17.38,17.38,0,0,0,1.44-3.2l.19-.47,1.4.29Zm-15.81,3.51c-1,.64-5.3.46-5.6,0a24.17,24.17,0,0,1-1.87-4.15c2.33-1.23,6.53-.85,8.73.4C111.7,27.1,111.38,29.19,110.71,29.63Zm12.09,0c-.31.43-4.64.61-5.61,0-.67-.44-1-2.53-1.25-3.72,2.2-1.25,6.4-1.63,8.73-.4A25,25,0,0,1,122.8,29.66Z"/><path class="cls-12" d="M102.22,27.84s.26-9.25.23-10.76,4.63-5.48,7.06-6.34-2.77-.57-4.05-.34-1.36,1-1.36,1a2.14,2.14,0,0,0-1.17.47l-.33.4s-1,.24-1.08.72-.18,1.51-.18,1.51-.82-.28-.82.91,0,.61,0,.61-.7.78-.36,1.42.23.55.23.55a4.08,4.08,0,0,0-.3.73,6.12,6.12,0,0,0,.07,3.42,5.72,5.72,0,0,1,.48,2.2Z"/><path class="cls-12" d="M126.37,27.84s-.26-9.25-.23-10.76-4.63-5.48-7.06-6.34,2.71-.59,4-.34,1.36,1,1.36,1a2.09,2.09,0,0,1,1.16.47l.34.4s1,.24,1.08.72.18,1.51.18,1.51.82-.28.82.91.05.61.05.61.7.78.36,1.42-.24.55-.24.55a3.62,3.62,0,0,1,.31.73,6.31,6.31,0,0,1-.07,3.42,5.72,5.72,0,0,0-.48,2.2Z"/><path class="cls-12" d="M105.57,10.43a7.09,7.09,0,0,1,2.15-.84,1.08,1.08,0,0,1,.73.42s.17-.65.77-.58a4.88,4.88,0,0,1,.84.16s.42-.5.69-.5a1.37,1.37,0,0,1,.65.34.62.62,0,0,1,.66-.34c.46.08.57.31.57.31a.66.66,0,0,1,.73-.32,2.08,2.08,0,0,1,.78.35s.49-.56.79-.37l.31.18s.34-.48.61-.22a3.25,3.25,0,0,0,.46.38s.12-.23.5-.16a1.37,1.37,0,0,1,.54.2,2.08,2.08,0,0,1,.69-.09c.31,0,.35.38.35.38a.51.51,0,0,1,.74-.29l.52.29a4.13,4.13,0,0,1,1,.39c.34.24.19,1,.19,1l2.06,2.09a15.35,15.35,0,0,0-8.47-2.4A20.47,20.47,0,0,0,105.32,13Z"/><path class="cls-18" d="M107.9,18.14s7.42-1,12.5,0"/><path class="cls-12" d="M111.14,10.61a2.08,2.08,0,0,0-.83.25c-.21.15-.21.43.07.51s.72-.06.92.1-.2.45-.07.67.34.17.51.27.27.3.45.42a1,1,0,0,0,.76.1c.25-.07.42-.25.41-.43a.19.19,0,0,1,0-.13c.12-.21.7,0,.93-.14s.08-.19.12-.29a.58.58,0,0,1,.2-.22l.56-.46c.06,0,.14-.11.16-.18s-.09-.32-.3-.39a2.22,2.22,0,0,0-.69-.11c-1,0-1.92-.06-2.87-.06"/><path class="cls-12" d="M117.55,10.44a1.82,1.82,0,0,1,.83.28.34.34,0,0,1-.07.6c-.29.1-.72-.08-.92.11s.2.52.07.77-.34.2-.51.31-.27.35-.45.49a.91.91,0,0,1-.76.11.54.54,0,0,1-.41-.49.29.29,0,0,0,0-.16c-.12-.24-.7,0-.93-.16s-.08-.21-.11-.33a.8.8,0,0,0-.21-.25l-.55-.53a.66.66,0,0,1-.17-.21c-.07-.18.09-.36.3-.45a1.81,1.81,0,0,1,.7-.12c1-.05,1.91-.08,2.87-.07"/><path class="cls-12" d="M115.88,11a1.82,1.82,0,0,1,.83.28.34.34,0,0,1-.07.6c-.29.1-.72-.08-.92.11s.2.52.07.76-.34.21-.51.32-.26.35-.45.49a.91.91,0,0,1-.76.11.53.53,0,0,1-.4-.49.43.43,0,0,0,0-.16c-.11-.24-.7,0-.93-.16s-.08-.22-.11-.33a.8.8,0,0,0-.21-.25l-.55-.53a.69.69,0,0,1-.17-.22c-.07-.17.09-.36.3-.45a2.28,2.28,0,0,1,.7-.12c1-.05,1.91-.07,2.87-.06"/><path class="cls-12" d="M108.08,35.17a1.35,1.35,0,0,0-.55.82,1.49,1.49,0,0,0,0,.36l.12.55s0,.08,0,.1a.22.22,0,0,0,.11,0,.75.75,0,0,0,.39,0,.3.3,0,0,0,.26-.25c0-.06,0-.11,0-.16s.18-.09.28-.11c.26-.07.18-.8.29-1s.6-.13.94-.24a2.18,2.18,0,0,0,.5-.2.53.53,0,0,0,.28-.43"/><path class="cls-12" d="M120,35.35a1.29,1.29,0,0,1,.54.82,1.47,1.47,0,0,1,0,.36l-.12.55a.19.19,0,0,1,0,.1s-.07,0-.11,0a.81.81,0,0,1-.38,0,.31.31,0,0,1-.26-.26.43.43,0,0,0,0-.16c0-.09-.18-.08-.28-.11a.65.65,0,0,1-.41-.63c0-.23.16-.49-.17-.61-.17-.06-1-.14-1.15-.23a.5.5,0,0,1-.27-.43"/><path class="cls-19" d="M105.17,10.86a2.72,2.72,0,0,1,2.18-.92,1.72,1.72,0,0,0,.75,0c.27-.11.45-.38.69-.55a1.72,1.72,0,0,1,1.69,0,.86.86,0,0,0,.43.11c.23,0,.36-.28.51-.46a1.17,1.17,0,0,1,1.42-.24c.26.15.47.4.77.41.55,0,.89-.77,1.44-.73s.8.65,1.24.51c.22-.07.34-.3.54-.4.59-.28,1.08.69,1.73.71.46,0,1-.45,1.33-.18.12.09.19.26.31.35s.57.09.86.11a2,2,0,0,1,1.23.83l.84.94"/><path class="cls-12" d="M105.61,10.83c1-1,2.06-.32,3-1,.14-.1.25-.27.39-.36.4-.24.65-.07,1,0a1.52,1.52,0,0,0,.87.08,2.3,2.3,0,0,0,.75-.46c.67-.46.7-.05,1.3.16a1.9,1.9,0,0,0,1.61-.42c.25-.15.17-.16.43-.1s.3.24.46.3a1.31,1.31,0,0,0,.76,0c.23-.06.52-.31.72-.3s.63.45.9.55a1.55,1.55,0,0,0,.88,0c.29-.07.35-.15.63-.06s.33.26.57.35c.48.18,1,0,1.41.38a12.23,12.23,0,0,1,1.29,1.4c.17.18,1.07-.15.91-.34A7,7,0,0,0,122,9.49c-.42-.22-.93,0-1.32-.25s-.28-.38-.58-.46a1.1,1.1,0,0,0-.51,0,5,5,0,0,1-.64.17c-.35,0-.52-.17-.8-.36a1.32,1.32,0,0,0-1-.31c-.27,0-.68.4-.88.4a3.27,3.27,0,0,0-.52-.4,1.24,1.24,0,0,0-.38-.09,1.83,1.83,0,0,0-1,.26c-.13.08-.4.39-.52.41s-.37-.22-.53-.31a1.89,1.89,0,0,0-1.22-.12,2.19,2.19,0,0,0-.92.41,1.43,1.43,0,0,0-.31.34c.09-.1,0-.16-.2-.15s-.55-.12-.85-.12a2.66,2.66,0,0,0-1.07.25c-.21.1-.35.27-.54.37a1.14,1.14,0,0,1-.79.19,3.79,3.79,0,0,0-2.65,1.16c-.21.21.7.11.87-.06Z"/><path class="cls-20" d="M184.51,66.24a2.85,2.85,0,0,0,.48,1c.29.29,2.12,1.45,2.12,1.45a17.52,17.52,0,0,1-2.35-1.25c-.28-.3-.25-1.35-.25-1.35"/><g id="freepik--character-2--inject-2"><path class="cls-4" d="M182.58,59.2,182,65.32l-.44,1.11s.19,3.28.31,4a37.35,37.35,0,0,0,1.86,4L182.59,78l5.9.75a24.32,24.32,0,0,1,1.09-3.63,3.6,3.6,0,0,0,.34-2.07c-.06-.64-.16-4.55-.16-4.55s1.38-4.66.35-4.63a3.19,3.19,0,0,0-.75.2s-.78,3-1.16,3.18l-.63-.18s.12-4.39,0-5.17-.42-1.29-1-1.23c0,0-.4.28-.39.49s0,5.07-.27,5-.25-.47-.25-.47.14-5.91,0-6.23a.89.89,0,0,0-1.08-.54l-.4,3.33s-.09-2.7-.63-3A.74.74,0,0,0,182.58,59.2Z"/><path class="cls-21" d="M182.85,75.81l-3.64,12.06-4.49-17.21c-.51-1.92-1.25-3.35-3.13-4l-4.66-1.13,3.47,34.27.92,2.59a6.81,6.81,0,0,0,3.37,3.58c2.82,1.37,5.75.45,7.82-1.8A13.12,13.12,0,0,0,185.65,98l4.1-19.66Z"/><path class="cls-21" d="M172.57,125.24c-.33-2.07-1-4.1-1.5-6.13-.29-1.14-.47-2.31-.67-3.46s-.6-2.24-.72-3.37a10.05,10.05,0,0,1,.07-2.45A140.83,140.83,0,0,0,171,84.31c.09-2.91.66-17.59.66-17.59l-8-2.16-2.11-.43-.17-.1a1.47,1.47,0,0,0,0,.38l0,.2a7.12,7.12,0,0,1-5.58,3.6,16.66,16.66,0,0,1-2.44,0,8,8,0,0,1-6.22-3.63l-.05-.87-5,1.43-10.54,3.54,5.91,39.11-.91,2.07a127.25,127.25,0,0,0-8.45,32.82,52.87,52.87,0,0,0-.27,6.33h47.4C174.73,141.06,173.88,133.1,172.57,125.24Z"/><path class="cls-21" d="M136.54,89.71l-4.9-21s-3.73,1-5.86,7.43c-1.85,6.93-6.19,29.31-5.93,33.78s4.68,29.78,4.68,29.78l9.47-1.87-1.23-29.29Z"/></g><path class="cls-4" d="M133.9,147.17s-1-3-1.27-3.64a13.91,13.91,0,0,0-1.29-1.85l-.08-3.19-5.93,1c.22,1,.48,1.84.8,2.93l.12,6.61h8Z"/><path class="cls-22" d="M170.75,100.8c.22-2.21-.25-1.71.26-2.79s5-3.48,3.27-9.89c-.84-3.15-2.69-11.88-2.69-11.88s2.38,8.37,2.93,10.6,1.09,6.3-.66,8.45-2.12,2.19-2.36,2.74a27.06,27.06,0,0,0-.47,3.55Z"/><path class="cls-22" d="M179.21,87.87s-2.81,6.31-3,9.29l-.36-.73S177.19,89.87,179.21,87.87Z"/><path class="cls-22" d="M135.37,95.56c.7-3.47,1.17-10.16,1.17-10.16a21,21,0,0,0-2.16-11.53s3.6,4.45,2.79,14.06l-1.33,8.61Z"/><polygon class="cls-22" points="131.26 138.5 134 137.82 133.23 119.35 134.77 138.07 131.26 138.5"/><path class="cls-7" d="M182.2,65.29l1.53-2.39-.28.09c1.24.39.74,2.17.49,3.05a3.33,3.33,0,0,0-.18.67l-.06,1.23v0a5.64,5.64,0,0,1,2.91,3.5c0,.07.33,0,.31-.09a5.52,5.52,0,0,0-1.51-2.5,6.09,6.09,0,0,0-.84-.68,3.11,3.11,0,0,1-.53-.32c-.07-.08,0-.29,0-.44,0-.31,0-.65.05-1s.12-.34.17-.5a7.81,7.81,0,0,0,.31-1.6,1.41,1.41,0,0,0-.85-1.52.31.31,0,0,0-.28.09l-1.54,2.39s.26,0,.31,0Z"/><path class="cls-7" d="M184.08,66.94a5.14,5.14,0,0,1,3.48,1.25c.09.08.38,0,.29-.12a4.93,4.93,0,0,0-2.34-1.16,5.87,5.87,0,0,0-1.32-.15c-.06,0-.17,0-.2.08s0,.1.09.1Z"/><path class="cls-4" d="M161.14,63.15c-.14-.45,0-5.18,0-5.18l-7,1.07-7-1.07s.14,5.22,0,5.67-4.22,1.41-4.22,1.41,2.13,4.61,11.23,4.61,11.45-4.61,11.45-4.61S161.28,63.59,161.14,63.15Z"/><path class="cls-18" d="M147.14,58.24c.11.09.92,1.16,1,1.24,2.87,2,3.3,2.59,5.78,2.69,2.49-.1,3.56-.44,6.23-2.93.9-.84.7-1.12.9-1.27C156.62,58,151.61,58.21,147.14,58.24Z"/><path class="cls-4" d="M142.62,44.24s-1.34-2.06-2.11-2c-.46.05.61,1.09.74,2.28.18,1.57-1,1.78-.62,2.67s.84,4,2.07,3.88c.49-.05,1-1.13,1-1.13S143,45.65,142.62,44.24Z"/><path class="cls-23" d="M142.21,50.06a1.16,1.16,0,0,0-1.09,1,1,1,0,0,0,.19.7.93.93,0,0,0,.44.32,1.27,1.27,0,0,0,1.15-.15c.06,0,.1-.12,0-.17a.26.26,0,0,0-.27,0,.72.72,0,0,1-.67.07l-.17-.08s0,0,0,0a.8.8,0,0,1-.13-.13.86.86,0,0,1,0-1,.87.87,0,0,1,.23-.2h0l0,0h0s0,0,0,0l.16,0c.08,0,.2,0,.21-.14s-.1-.11-.16-.1Z"/><path class="cls-4" d="M165,44.18S166.12,42,166.88,42c.47,0-.49,1.15-.51,2.33,0,1.59,1.17,1.68.89,2.6S166.83,51,165.59,51c-.48,0-1.09-1-1.09-1S164.73,45.62,165,44.18Z"/><path class="cls-4" d="M166.64,45.47h0c-.27,1.38-.61,2.83-.84,4.5-.61,4.4-1.92,6.42-4.91,8.36s-4.07,2.84-6.78,2.94c-2.7-.1-3.64-.9-6.77-2.94s-4.3-4-4.91-8.36c-.14-1-.31-1.89-.49-2.75-.13-.64-.26-1.25-.37-1.85v0h0a14.66,14.66,0,0,1-.1-6.7,13.47,13.47,0,0,1,5.91-7.7h0A12.69,12.69,0,0,1,154.11,29a13.51,13.51,0,0,1,12.66,9.65A14.94,14.94,0,0,1,166.64,45.47Z"/><path class="cls-10" d="M155,51.18a1.23,1.23,0,0,1-1.28-.06c-.08-.06-.35,0-.24.08a1.68,1.68,0,0,0,1.74,0c.05,0,0-.07,0-.09a.27.27,0,0,0-.2,0"/><path class="cls-10" d="M153.31,51.08a2.55,2.55,0,0,0-.94-.23.2.2,0,0,0-.15,0s0,.06,0,.08a1,1,0,0,0,.52.12.21.21,0,0,0,.16-.06c0-.05,0-.08-.07-.08a.73.73,0,0,1-.41-.09l-.15.12a2.36,2.36,0,0,1,.84.21.19.19,0,0,0,.18,0s.07-.06,0-.09"/><path class="cls-10" d="M152,51.12a1,1,0,0,1-.86-.46,1,1,0,0,1,.39-1.21s0-.07,0-.08a.23.23,0,0,0-.18,0,1.13,1.13,0,0,0-.52,1,1,1,0,0,0,.74.75,2.25,2.25,0,0,0,.36.06.23.23,0,0,0,.16-.06s0-.07-.07-.07"/><path class="cls-10" d="M155.39,51.08a2.5,2.5,0,0,1,.94-.23.17.17,0,0,1,.14,0s0,.06,0,.08a1,1,0,0,1-.52.12.25.25,0,0,1-.16-.06c0-.05,0-.08.07-.08a.74.74,0,0,0,.42-.09l.14.12a2.42,2.42,0,0,0-.84.21.17.17,0,0,1-.17,0s-.07-.06,0-.09"/><path class="cls-10" d="M156.66,51.12a1,1,0,0,0,.86-.46.94.94,0,0,0-.38-1.21s0-.07,0-.08a.2.2,0,0,1,.17,0,1.09,1.09,0,0,1,.52,1,.94.94,0,0,1-.74.75,2,2,0,0,1-.35.06s-.14,0-.16-.06,0-.07.06-.07"/><path class="cls-24" d="M157.4,41.39v.75c0,.19,0,.38,0,.57.69-.16,1.29-.27,1.74-.34a6.45,6.45,0,0,1,2-.14,5.61,5.61,0,0,1,1.26.36,3.78,3.78,0,0,1,.67.32c.46.31.66.66.73.63s0-.34-.05-.37a2.93,2.93,0,0,0-1-1.26,3.75,3.75,0,0,0-1.28-.54,14.53,14.53,0,0,0-4.06,0"/><path class="cls-24" d="M159.8,44.41a.84.84,0,0,1,.92.16A.83.83,0,0,1,161,45a.85.85,0,0,1-.2.77.8.8,0,0,1-.9.16.87.87,0,0,1-.43-1,.75.75,0,0,1,.36-.47"/><path class="cls-24" d="M157.25,45.58a8.35,8.35,0,0,1,2.59-1.33,4.5,4.5,0,0,1,3.31,1.13,8.69,8.69,0,0,0-3-.87A15.34,15.34,0,0,0,157.25,45.58Z"/><path class="cls-24" d="M151.22,41.41c0,.25,0,.5,0,.76v.57c-.7-.17-1.29-.27-1.74-.34a6.17,6.17,0,0,0-2-.14,5.12,5.12,0,0,0-1.26.36,3.78,3.78,0,0,0-.67.32c-.47.31-.66.66-.74.63s.05-.34.06-.37a3.08,3.08,0,0,1,1-1.27,4,4,0,0,1,1.29-.53,14.37,14.37,0,0,1,4.06,0"/><path class="cls-24" d="M148.81,44.43a.87.87,0,0,0-.92.17.78.78,0,0,0-.24.38.87.87,0,0,0,.2.78.78.78,0,0,0,.9.15.86.86,0,0,0,.43-1,.78.78,0,0,0-.37-.47"/><path class="cls-24" d="M151.36,45.61a8.23,8.23,0,0,0-2.59-1.33,4.49,4.49,0,0,0-3.3,1.12,8.92,8.92,0,0,1,3-.87A15,15,0,0,1,151.36,45.61Z"/><path class="cls-25" d="M139.46,33.86a25.22,25.22,0,0,1,13-1.86c7.32.92,10.84,5.55,12.07,8.84a23.66,23.66,0,0,1,1.36,6.62s1.79.91,3.1-5.79c1.91-9.76-8.77-18.37-11.14-18.37S142.86,22.94,139.46,33.86Z"/><path class="cls-25" d="M140.77,31s-1.22-7.7,4.08-9.14,16.47-4,19.74,3Z"/><path class="cls-26" d="M140.5,46.82a4.77,4.77,0,0,1-1.17-2c-.59-2.08-1.62-6.37-.67-8.28a15.41,15.41,0,0,0,.61-4c.21-3.81-.7-2.65,4.66-7s6.29-3.13,14.32-2.62S168.6,26,168,33.56c0,0-10.81-3.11-15.92-.35s-10.59,11.64-10.22,14.84A9.29,9.29,0,0,1,140.5,46.82Z"/><path class="cls-25" d="M138.39,40.37s8.18-10.46,17.74-10.55c0,0-12.24-1.6-17.67,7.24Z"/><path class="cls-25" d="M167.91,30.08s-9.46-3.44-13.08-3.73,11.45.27,12.9,1.92Z"/><ellipse class="cls-27" cx="154.35" cy="54.35" rx="3.18" ry="0.67"/><path class="cls-23" d="M166.12,50.43a.77.77,0,0,1,.53.21.79.79,0,0,1,.26.48.77.77,0,0,1-.11.55,1.47,1.47,0,0,0-.1.13s0,0,0,0l0,0-.06,0s0,0,0,0l0,0-.06,0-.07,0s0,0,0,0h0a.51.51,0,0,1-.17,0,.75.75,0,0,1-.44-.1c-.16-.09-.43.15-.21.26a1.25,1.25,0,0,0,1.45-.25,1.05,1.05,0,0,0-.05-1.4,1.18,1.18,0,0,0-.86-.34.2.2,0,0,0-.2.15c0,.1.09.14.17.14Z"/><path class="cls-13" d="M154.42,53.69c-1.83,0-4.79-.21-4.79-.21s.55,3.52,4.79,3.52,4.79-3.52,4.79-3.52S156.25,53.69,154.42,53.69Z"/><path class="cls-14" d="M154.44,53.69c-.87,0-4.37-.14-4.37-.14s1.15,1.87,4.3,1.87c3.41,0,4.41-1.84,4.41-1.84Z"/><path class="cls-15" d="M154.48,53.82c-.87,0-3.52-.14-3.52-.14s.95.92,3.56.92,3.44-.9,3.44-.9Z"/><path class="cls-13" d="M159.4,53.22a6,6,0,0,1-1,.11c-.72-.06-1.59-.24-2.11-.28a7.85,7.85,0,0,0-1.84.27,7.85,7.85,0,0,0-1.84-.27c-.52,0-1.39.22-2.11.28a6,6,0,0,1-1-.11c-.13,0,.12,1,5,1S159.53,53.26,159.4,53.22Z"/><path class="cls-4" d="M160.79,62.17a2.19,2.19,0,0,0,1,1.39A23.35,23.35,0,0,0,165,64.74l.36.12s-1.63,1.26-1.72,1.77.07,1.37.34,1.45a2.38,2.38,0,0,0,.93-.1s-.6.9-.2,1.41,1,.35,1.39.3a7,7,0,0,0,1.32-.44s-.13,1.1.49,1.3,3.2-.55,3.2-.55-.42,1.18.3,1.4a2.87,2.87,0,0,0,2.16-.53c.65-.38,1.49-.89,1.52-1.28a1.43,1.43,0,0,0-.38-1.08l-.87-.84a2.35,2.35,0,0,0,0-1.09c-.18-.47-1.22-2.14-1.22-2.14s.31-.94,0-1.42a5.87,5.87,0,0,0-1.29-1.13s-.56-1.58-.92-1.68a3.71,3.71,0,0,0-2-.2,42.81,42.81,0,0,0-4.47.71,2.19,2.19,0,0,0-1.38.08C161.9,61.11,160.68,61.31,160.79,62.17Z"/><path class="cls-20" d="M173.86,67.78a2.35,2.35,0,0,1-.44.82c-.25.22-1.79,1.07-1.79,1.07a13.51,13.51,0,0,0,2-.9c.24-.23.26-1.08.26-1.08"/><path class="cls-20" d="M172.45,64.92s.06,1.65-.64,2.19a43.1,43.1,0,0,1-3.95,2,29.65,29.65,0,0,0,3.93-2.53A9.13,9.13,0,0,0,172.45,64.92Z"/><path class="cls-20" d="M171.11,62.25s-.53,2.33-1,2.68-4.33,2.41-4.6,2.55l-.39.16s4.52-2.76,4.85-3.1A15.44,15.44,0,0,0,171.11,62.25Z"/><path class="cls-20" d="M163.7,63.09A4.58,4.58,0,0,0,165,64.74a1.3,1.3,0,0,0,1.8-.82,2.12,2.12,0,0,0-.39-1.58,4.13,4.13,0,0,0-.88-1,12.06,12.06,0,0,1,1.06,2c0,.32-.06,1.26-.7,1.3a1.47,1.47,0,0,1-1.44-.62A4.72,4.72,0,0,1,163.7,63.09Z"/><path class="cls-20" d="M166.61,64.35s1-.65,1.1-1a9.59,9.59,0,0,0,.11-1.31,3.24,3.24,0,0,1-.39,1.35Z"/><polygon class="cls-20" points="161.08 61.43 161.09 63.14 161.44 63.4 161.08 61.43"/><path class="cls-20" d="M161.21,63l4.2,1.89-.16.13s-2.51-1-2.82-1.06a10,10,0,0,1-1.17-.65Z"/><path class="cls-20" d="M165.35,64.86s-1.95,1-1.74,2.25c0,0-.75-1.28,1.33-2.25Z"/><path class="cls-4" d="M78.69,80.72l-.45,2.62,6.52.94a24.64,24.64,0,0,1,.08-2.49c1-1.08,6.55-8.89,7.17-9.88s.53-1.64.1-1.64c-.75,0-3.43,3.82-3.8,3.67S91,68.9,91,67.72c.06-.93-.7-.66-1-.49a33.39,33.39,0,0,1-1.94,3.06c-1.14,1.68-1.93,3.14-2,3.08a14.18,14.18,0,0,1,1.76-3.24,32.6,32.6,0,0,1,2.29-3.4c.21-.91-.52-1.62-1.24-.94a50.3,50.3,0,0,0-4.17,6.15s.54-1.65.9-2.83,1.72-3.7,1-3.88-1.93,1.69-2.66,3L80.65,74a38.32,38.32,0,0,0,0-4c-.19-1.71-1.32-1.74-1.32-1.74s-1.91,8.22-1.91,9.68A5.33,5.33,0,0,0,78.69,80.72Z"/><path class="cls-18" d="M81.9,81.54c1,.13,1.78,0,1.77.14a5.5,5.5,0,0,1-3.15-.41Z"/><path class="cls-18" d="M81.11,74.53a6.36,6.36,0,0,1,2.36,3.79"/><path class="cls-28" d="M70.24,131.89s-44.63-10.73-47.41,0c-1.22,4.7-1.44,10.88-1.32,17.71H71C73,141.38,70.24,131.89,70.24,131.89Z"/><path class="cls-29" d="M67.5,76.28c-2.37-1.26-13.51.79-8.19,15,2.63,13.5,4.78,15.92,8.55,21,3.81,4.14,10.71,4.28,11.46-1.17S72.26,78.82,67.5,76.28Z"/><path class="cls-29" d="M66.39,117.33c-2.65-16.77,1.66-40.61,1.07-41.24-1.24-1.35-12.19-4-15-4.78l-14.17.34c-2.22,0-13.34,2.72-14.58,4.07-.59.63,5.44,29.19,2.34,41.76C25,122,67.11,121.87,66.39,117.33Z"/><path class="cls-30" d="M52.21,70.11c-.13-.43,0-4.45,0-4.45l-6.86,1.06-6.86-1.06s.13,4.51,0,4.94S35.66,72,35.66,72s.61,5.55,9.52,5.55,10.36-5.5,10.36-5.5S52.35,70.55,52.21,70.11Z"/><path class="cls-18" d="M38,66.27c.11.09.95,1.13,1.08,1.22,3,2,3.43,2.54,6,2.64,2.58-.1,3.69-.44,6.47-2.88.93-.82.73-1.09.93-1.24C47.81,66,42.6,66.24,38,66.27Z"/><path class="cls-30" d="M33.34,52.21s-1.32-2-2.06-1.94c-.46,0,.59,1.08.72,2.23.17,1.56-1,1.75-.61,2.62s.83,3.94,2,3.81c.48-.06,1-1.11,1-1.11S33.73,53.59,33.34,52.21Z"/><path class="cls-23" d="M33.66,57.91a1.16,1.16,0,0,0-1.07,1,1,1,0,0,0,.19.69.89.89,0,0,0,.43.31,1.26,1.26,0,0,0,1.13-.15c.06,0,.1-.12,0-.16a.25.25,0,0,0-.26,0,.68.68,0,0,1-.65.06l-.17-.08h0a.34.34,0,0,1-.12-.12.84.84,0,0,1,0-1,.74.74,0,0,1,.23-.2s0,0,0,0l0,0,0,0h0l.15,0c.08,0,.2,0,.21-.13s-.1-.11-.17-.1Z"/><path class="cls-30" d="M56.72,50.08s1.11-2.14,1.86-2.13c.45,0-.49,1.12-.5,2.29,0,1.55,1.14,1.64.87,2.54s-.43,4-1.63,4c-.48,0-1.08-1-1.08-1S56.48,51.5,56.72,50.08Z"/><path class="cls-30" d="M57.6,53.42h0c-.27,1.35-.6,2.77-.82,4.41-.61,4.31-1.32,7.08-4.62,8.6S48.31,69,45.66,69.1c-2.65-.1-3.64-.9-7-2.23-3.15-1.22-4.14-4.73-4.74-9-.13-1-.3-1.85-.46-2.69-.13-.63-.26-1.23-.37-1.82v0h0a14.42,14.42,0,0,1-.1-6.58,13.18,13.18,0,0,1,5.8-7.54h0a12.34,12.34,0,0,1,6.58-1.89,13.22,13.22,0,0,1,12.4,9.45A14.62,14.62,0,0,1,57.6,53.42Z"/><path class="cls-31" d="M46.2,59.52A1.18,1.18,0,0,1,45,59.46c-.08-.06-.35,0-.24.08a1.67,1.67,0,0,0,1.71.05s0-.07,0-.09a.24.24,0,0,0-.2,0"/><path class="cls-31" d="M44.53,59.42a2.65,2.65,0,0,0-.92-.23.24.24,0,0,0-.14.05,0,0,0,0,0,0,.07,1.13,1.13,0,0,0,.51.12.22.22,0,0,0,.15-.06s0-.07-.06-.07a.8.8,0,0,1-.41-.1l-.14.12a2.36,2.36,0,0,1,.82.21.2.2,0,0,0,.17,0s.07-.06,0-.09"/><path class="cls-31" d="M43.28,59.46a1,1,0,0,1-.83-.45.92.92,0,0,1,.37-1.19s0-.07,0-.08a.22.22,0,0,0-.17,0,1.07,1.07,0,0,0-.51,1,.94.94,0,0,0,.72.73,1.41,1.41,0,0,0,.35,0,.22.22,0,0,0,.16,0c0-.05,0-.07-.07-.07"/><path class="cls-31" d="M46.57,59.42a2.71,2.71,0,0,1,.92-.23.25.25,0,0,1,.15.05s0,0,0,.07a1.13,1.13,0,0,1-.51.12.19.19,0,0,1-.15-.06s0-.07.06-.07a.83.83,0,0,0,.41-.1l.14.12a2.31,2.31,0,0,0-.82.21.2.2,0,0,1-.17,0s-.07-.06,0-.09"/><path class="cls-31" d="M47.82,59.46a1,1,0,0,0,.84-.45.93.93,0,0,0-.37-1.19s0-.07,0-.08a.22.22,0,0,1,.17,0,1.08,1.08,0,0,1,.52,1,.93.93,0,0,1-.73.73,2,2,0,0,1-.35.06c-.05,0-.13,0-.15-.06s0-.06.06-.07"/><path class="cls-32" d="M48.54,49.42v.73c0,.19,0,.38,0,.57.68-.16,1.26-.27,1.71-.34a6.15,6.15,0,0,1,1.94-.14,5.42,5.42,0,0,1,1.25.36,3.51,3.51,0,0,1,.65.31c.46.3.65.64.72.61s0-.33,0-.36a3,3,0,0,0-1-1.24,3.58,3.58,0,0,0-1.26-.52,14.21,14.21,0,0,0-4,0"/><path class="cls-33" d="M50.9,52.38a.81.81,0,0,1,.9.16.8.8,0,0,1,.24.38.82.82,0,0,1-.19.75.78.78,0,0,1-.89.16.86.86,0,0,1-.42-1,.74.74,0,0,1,.36-.47"/><path class="cls-33" d="M48.4,53.53a8.15,8.15,0,0,1,2.54-1.3,4.35,4.35,0,0,1,3.24,1.1,8.75,8.75,0,0,0-2.93-.86A14.88,14.88,0,0,0,48.4,53.53Z"/><path class="cls-32" d="M42.49,49.44v1.3c-.68-.15-1.26-.26-1.71-.33a6.2,6.2,0,0,0-2-.14,6,6,0,0,0-1.24.35,3.87,3.87,0,0,0-.65.31c-.47.31-.65.65-.72.63s0-.33.05-.36a3,3,0,0,1,1-1.25,3.86,3.86,0,0,1,1.26-.52,14.37,14.37,0,0,1,4,0"/><path class="cls-33" d="M40.13,52.4a.86.86,0,0,0-.9.16.76.76,0,0,0,0,1.13.76.76,0,0,0,.88.16.86.86,0,0,0,.42-1,.74.74,0,0,0-.36-.47"/><path class="cls-33" d="M42.63,53.55a8.15,8.15,0,0,0-2.54-1.3,4.44,4.44,0,0,0-3.24,1.1,8.49,8.49,0,0,1,2.93-.85A15,15,0,0,1,42.63,53.55Z"/><path class="cls-34" d="M31,42a24.73,24.73,0,0,1,12.77-1.82c7.17.91,11.74,3.59,12.95,6.82s.93,8,.93,8,1,1.22,2.3-5.34c1.87-9.57-8.59-18-10.91-18S34.3,31.34,31,42Z"/><path class="cls-34" d="M32.25,39.25s-1.2-7.54,4-8.95,16.14-3.95,19.33,2.94Z"/><path class="cls-35" d="M32,54.74a4.49,4.49,0,0,1-1.15-2c-.58-2-1.59-6.24-.66-8.11a15.69,15.69,0,0,0,.61-4c.2-3.73-.69-2.59,4.56-6.84s6.16-3.07,14-2.57,10.13,3.06,9.52,10.44c0,0-13-3-18-.31s-9.4,6.41-7.64,14.5A8.81,8.81,0,0,1,32,54.74Z"/><path class="cls-34" d="M58.84,38.34S49.57,35,46,34.68s11.22.27,12.63,1.89Z"/><path class="cls-23" d="M57,56a.89.89,0,0,1,.84.71.9.9,0,0,1-.1.58.51.51,0,0,1-.09.13l0,0h0l0,0h0l0,0a.63.63,0,0,1-.23.08.8.8,0,0,1-.43-.1.29.29,0,0,0-.24,0s-.17.09-.11.12a1.23,1.23,0,0,0,1,.07,1.21,1.21,0,0,0,.46-.28,1,1,0,0,0,0-1.31,1.12,1.12,0,0,0-.8-.31.31.31,0,0,0-.24.1C56.9,56,57,56,57,56Z"/><path class="cls-36" d="M45.62,61.86c-1.95,0-5.12-.22-5.12-.22s.59,3.76,5.12,3.76,5.13-3.76,5.13-3.76S47.58,61.86,45.62,61.86Z"/><path class="cls-37" d="M45.64,61.86c-.93,0-4.68-.16-4.68-.16s1.24,2,4.61,2c3.65,0,4.72-2,4.72-2Z"/><path class="cls-15" d="M45.69,62c-.94,0-3.77-.16-3.77-.16s1,1,3.82,1,3.68-1,3.68-1Z"/><path class="cls-36" d="M51,61.36a5.86,5.86,0,0,1-1.1.11c-.78-.06-1.71-.26-2.26-.3a8.59,8.59,0,0,0-2,.3,8.58,8.58,0,0,0-2-.3c-.56,0-1.49.24-2.26.3a6.92,6.92,0,0,1-1.11-.11c-.13,0,.13,1,5.34,1S51.1,61.39,51,61.36Z"/><path class="cls-32" d="M34.12,47.43s7.56-3.57,9.19-6c-.18.26,1.51.81,1.65.9,1.6.91,4.37,1.74,6,1.11a2.1,2.1,0,0,0,1.18-.8s2,4,4.53,4.43a12.21,12.21,0,0,0-10.75-6.51S40.18,39.11,34.12,47.43Z"/><path class="cls-38" d="M34,51.89l.47,1.24a17.79,17.79,0,0,0,1.43,3.42c.51.72,5.9.9,6.94.28s1.58-3.59,1.84-4.29l2.16.08c.21.88.94,3.69,1.36,4.06s2.89.25,3.16.24.56,0,.91-.07a5.11,5.11,0,0,0,2.4-.6c.51-.5,1-2.4,1.48-4.19l.08-.29a.79.79,0,0,0,0-.13h0l.08-.32a10.29,10.29,0,0,0-9.64.75l0,0L44.58,52c-2.41-1.47-7.06-2.27-10-1.12h0l-2.83,2.24v.78Zm14.44,4.5a17.48,17.48,0,0,1-1.23-3.73c2.12-1.52,5.78-1.8,8.58-.74v0c-.24,1-.88,3.53-1.38,4s-5.51.77-6,.41Zm-11.91-.06a26.25,26.25,0,0,1-1.87-4.44c2.59-1.19,7.15-.65,9.5.75-.35,1.24-.77,3.42-1.52,3.87C41.51,57.14,36.8,56.79,36.48,56.33Z"/><path class="cls-39" d="M48.45,56.35a16.76,16.76,0,0,1-1.24-3.73c2.12-1.51,5.78-1.8,8.58-.74v0c-.24,1-.88,3.53-1.38,4s-5.51.77-6,.41Z"/><path class="cls-39" d="M36.48,56.33a26.25,26.25,0,0,1-1.87-4.44c2.59-1.19,7.15-.65,9.5.75-.35,1.24-.77,3.42-1.52,3.87C41.51,57.14,36.8,56.79,36.48,56.33Z"/><polygon class="cls-38" points="56.3 51.32 58.16 53.13 58.06 53.78 56.07 51.98 56.3 51.32"/><path class="cls-29" d="M29,84.41s-4.11,4.42-4.11,12.32c0,4.19,7.15,7.83,7.15,7.83"/><path class="cls-29" d="M61.61,77.82s3.27,4.42,3.27,12.32c0,4.19-6.3,7.83-6.3,7.83"/><path class="cls-29" d="M65.47,113.18s-31,3.86-38,0c0,0-1.53,3.44-3,8A63.31,63.31,0,0,0,21.66,132c7,4,16,4.08,24,4.08,9.56,0,19.62-.68,25.33-4.37A93.87,93.87,0,0,0,65.47,113.18Z"/><path class="cls-40" d="M23,85.51a6.1,6.1,0,0,1,1.21,2.59c.07,1.11-.88,4.45-.81,8.87s.47,6.81,4.35,8.74a9.34,9.34,0,0,1-2.46-2.42c-1.05-1.53-1.51-3.17-1.38-7s.85-7.39.51-8.9a2.55,2.55,0,0,0-1.65-1.89"/><path class="cls-40" d="M68.4,85.77a6.22,6.22,0,0,0-1,2.69c0,1.12,1.29,4.35,1.64,8.76s.16,6.82-3.52,9.1a9.23,9.23,0,0,0,2.22-2.63c.91-1.63,1.21-3.3.73-7S67,89.36,67.17,87.82a2.55,2.55,0,0,1,1.47-2"/><path class="cls-29" d="M71,108.42a44.09,44.09,0,0,1,2-6.91c.78-1.84.65-3,1.66-4.77.85-1.5-.13.08.4-1.52.9-2.71,2-10.58,2.68-13.33,0,0,.89.33,1.71.64a8.5,8.5,0,0,0,2.86.56l3.83.07-3,24.16a12.92,12.92,0,0,1-3.32,6.73c-2.5,2.46-5.46,2-8.86.49a25.48,25.48,0,0,1-2.17-1.36C69,110.79,70.47,110.63,71,108.42Z"/><path class="cls-40" d="M75.83,92.93A100.22,100.22,0,0,0,73,103.65S72.64,97.12,75.83,92.93Z"/><path class="cls-40" d="M66,106.06s-.33,3.94-.24,5.22l-.17-5Z"/><path class="cls-40" d="M27,105.29s0,4-.16,5.22l.55-4.93Z"/><path class="cls-40" d="M23,132.71,21.66,132s1.06-7.22,2.75-11.19c0,0-3.15,8-3.15,11.47l1.94.56"/></g><path class="cls-12" d="M111.26,44.54a1.31,1.31,0,0,0,.62.21l.24.07c.71,0,1.42,0,2.13,0a1.5,1.5,0,0,0,.52-.09l0,0c.53,0,1.06,0,1.58,0l.24-.06a1.42,1.42,0,0,0,.62-.19.21.21,0,0,0,0-.39c-.22-.07-.53.05-.68-.07s.14-.34,0-.5-.26-.14-.38-.21-.2-.23-.34-.32a.74.74,0,0,0-.55-.07c-.2,0-.47.07-.53-.07a.25.25,0,0,1,0-.12.41.41,0,0,0-.3-.37.64.64,0,0,0-.56.08c-.14.11-.19.27-.34.37l-.16.08a.78.78,0,0,0-.18-.11.64.64,0,0,0-.56.09c-.14.1-.19.27-.34.36s-.31.12-.38.24.22.42,0,.58-.46,0-.68.09A.26.26,0,0,0,111.26,44.54Z"/><path class="cls-10" d="M103.39,39.61a4,4,0,0,1,.74,1.71c.22-.17.52.07.66.3s.29.54.56.57.34-.07.47,0,.08.33.13.49c.14.54,1.12.36,1.3.89,0,.16,0,.35.1.49.23.36.91-.05,1.18.28.11.13.1.34.21.46s.66,0,.93.14.22.42.4.55.6,0,.87.11.36.66.69.67.41-.28.65-.34c.44-.1.78.61,1.21.49.15,0,.26-.18.41-.23.37-.14.76.31,1.14.2s.43-.39.71-.38.28.11.42.15.52.3.76-.07l.24-.37a1.38,1.38,0,0,0,.71,0c.31-.11.61-.67.61-.67s.75-.06.89-.27.36-.52.36-.52a2.13,2.13,0,0,0,.76-.17,1.35,1.35,0,0,0,.33-.58s.79,0,.93-.21a2.78,2.78,0,0,0,.23-.63.88.88,0,0,0,.72,0c.34-.17.49-.94.49-.94a2.6,2.6,0,0,0,.63-.2c.17-.1.42-.77.42-.77s1-.4.8-.57,0-1.51,0-1.51a6.59,6.59,0,0,1-1,1.38c-.34.23-.86.06-1,.37s-.66.63-.66.63a1.14,1.14,0,0,0-.79.44,3.37,3.37,0,0,0-.55.72s0-.65-.58-.1a4.07,4.07,0,0,1-.82.69s-.63-.38-.77,0a3.51,3.51,0,0,1-.65.83s-.41-.52-.75-.14a3.31,3.31,0,0,1-.82.63l-5,0a.48.48,0,0,0-.37-.18l-.76,0s-.1-.7-.38-.56a1.17,1.17,0,0,1-.7,0,1.84,1.84,0,0,0-.43-.41c-.23-.14-.62-.35-.62-.35s.12-.65-.27-.56a1.09,1.09,0,0,1-.77-.14s0-.58-.32-.48a3.81,3.81,0,0,1-.68.14A6,6,0,0,0,106,41l-.34-.2S105.24,40,105,40h-.55s-.37-1-.61-.82-.5-.87-.5-.87A1.3,1.3,0,0,0,103.39,39.61Z"/><path class="cls-41" d="M147.56,92.71c0,.11-2.74,9.32-2.74,9.32l2.36-1,1.29,2.85,1.66-11Z"/><polygon class="cls-41" points="149.57 93.1 150.13 103.67 152.19 100.77 154.84 102.67 152.19 92.29 149.57 93.1"/><g class="cls-42"><path class="cls-10" d="M147.38,93.41a1,1,0,0,0,.91.71c.24,0,.51-.07.71.06s.29.44.53.47.45-.33.71-.42.74.32,1.1.18.33-.38.58-.44a.7.7,0,0,1,.32,0,.65.65,0,0,0,.36-.07l-.13-.51-.22-1h-4.78Z"/></g><path class="cls-43" d="M150.17,85.18a3.13,3.13,0,0,1,.69.14.2.2,0,0,1,0-.11l.6-1.62h0a.64.64,0,0,1-.2-.2.59.59,0,0,0-.54-.29c-.11.46-.24,1.08-.34,1.47A1.76,1.76,0,0,1,150.17,85.18Z"/><path class="cls-43" d="M147.27,90.1a3.16,3.16,0,0,1-.36-.71.24.24,0,0,1-.11.06l-.05,0-.1,0-.31.1-.38.1-.69.18A1.5,1.5,0,0,1,145,90l.28-.1.24-.07-.56.13c-.07.31-.29.65-.1.9l.08.06c.71-.26,1.62-.6,2.21-.76Z"/><path class="cls-43" d="M149.09,85.1v.17a3,3,0,0,1,.78-.1v0l0-.58v-.12a8,8,0,0,1,0-.84c-.12-.14-.23-.43-.47-.46a.39.39,0,0,0-.38.08C149.11,83.78,149.09,84.52,149.09,85.1Z"/><path class="cls-44" d="M146,87.15l.14.06-.63-.26C145.68,87,145.84,87.09,146,87.15Z"/><path class="cls-43" d="M146.73,88.18a3.39,3.39,0,0,1,.13-.72l-.19-.07a3.67,3.67,0,0,1-.67-.18,5.79,5.79,0,0,1-.71-.34l-.25-.14-.13-.06c-.09.14-.23.26-.32.4a.53.53,0,0,0-.08.27,9.87,9.87,0,0,1,2.21.82Z"/><path class="cls-43" d="M147,87.1a3.08,3.08,0,0,1,.33-.59l-.05,0a6.25,6.25,0,0,1-1-.85h0l-.38-.34a.27.27,0,0,1-.07.13c-.18.18-.5.07-.69.22a.3.3,0,0,0-.12.22A19.87,19.87,0,0,1,146.74,87Z"/><path class="cls-43" d="M147.28,86c.08.11.15.2.2.28a2.75,2.75,0,0,1,.59-.54l-.24-.32-.27-.33c-.14-.18-.27-.34-.35-.47a1.37,1.37,0,0,1-.13-.2.5.5,0,0,1,.08.08c-.07-.11-.15-.2-.21-.29a.62.62,0,0,1-.22.26,1.53,1.53,0,0,1-.48.11,11.77,11.77,0,0,1,.89,1.21Z"/><path class="cls-43" d="M148.27,85.62a3,3,0,0,1,.57-.27.24.24,0,0,0,0-.08c0-.15-.09-.36-.14-.59a4.5,4.5,0,0,1-.09-.61,1.94,1.94,0,0,1,0-.24v0a.58.58,0,0,1-.42-.14.74.74,0,0,0-.74,0c.26.61.64,1.45.85,2Z"/><path class="cls-44" d="M147.45,86.32h0Z"/><path class="cls-43" d="M146.85,89.21a3.26,3.26,0,0,1-.12-.76h-1c-.26,0-.5,0-.67,0l-.19,0h-.17a1,1,0,0,0-.11.17.6.6,0,0,0-.07.56h0l2.21.07A.39.39,0,0,1,146.85,89.21Z"/><path class="cls-43" d="M147.89,90.85l0,0a3.29,3.29,0,0,1-.55-.57.2.2,0,0,1-.09.09.15.15,0,0,1-.06.09c-.15.11-.35.23-.57.38s-.43.27-.58.36a1.16,1.16,0,0,1-.24.14,1.18,1.18,0,0,1,.22-.17l.29-.2-.62.38c0,.17,0,.36.05.51a.48.48,0,0,0,.41.23l1.32-1A1.83,1.83,0,0,1,147.89,90.85Z"/><path class="cls-44" d="M153.94,91.36l.18.15v0l0,0Z"/><path class="cls-43" d="M152.29,90.41a3.06,3.06,0,0,1-.57.51,1.56,1.56,0,0,1,.16.2h0a1,1,0,0,1,.22.31l.23.39h0l.43.73a.61.61,0,0,1,.07-.1c.23-.24.7,0,.94-.23a.27.27,0,0,0,.07-.08c-.46-.49-1.06-1.18-1.44-1.58A1.15,1.15,0,0,1,152.29,90.41Z"/><path class="cls-44" d="M150,83.6h0v0Z"/><path class="cls-43" d="M153,88.7a3.09,3.09,0,0,1-.15.67l.09,0,.3.16a1.75,1.75,0,0,1-.29-.18c.32.14.63.3.94.47l.59.33.1,0a.4.4,0,0,1,0-.15c.08-.25.4-.39.52-.61Z"/><path class="cls-43" d="M152.44,90.23l.22.17,0,0,.71.49.69.51.07,0c.11-.08.25-.13.36-.2-.57-.5-1.25-1.19-1.76-1.59A3.3,3.3,0,0,1,152.44,90.23Z"/><path class="cls-43" d="M148.81,91.36l0-.06a3.55,3.55,0,0,1-.58-.3v0l-.14.16-.36.41-.41.4a.93.93,0,0,1-.18.16.17.17,0,0,1,0-.06l-.26.27c.12.25,0,.63.21.83a.38.38,0,0,0,.13.09c.45-.6,1-1.38,1.49-1.86A.18.18,0,0,1,148.81,91.36Z"/><path class="cls-43" d="M150.08,91.5a.24.24,0,0,1,0,.14.78.78,0,0,1,0,.34c0,.14,0,.28-.05.44s-.06.39-.08.55,0,.43-.05.61a1.46,1.46,0,0,0,.38.27.66.66,0,0,0,.6-.18,21.43,21.43,0,0,1-.06-2.24l0,.08s0-.06,0-.06a1.17,1.17,0,0,1,.1.26c.06.16.13.38.21.63a1.17,1.17,0,0,1,.05.2c.08.26.15.53.2.78a.57.57,0,0,1,.25-.06c.2,0,.41.13.59.15a15.09,15.09,0,0,1-.78-2.36A3.24,3.24,0,0,1,150.08,91.5Z"/><path class="cls-43" d="M149.77,91.51h0a3.34,3.34,0,0,1-1-.19l0,0v0c.06,0,.08.12.07.19s0,.06,0,.1a1,1,0,0,1-.07.29c-.05.13-.11.26-.18.4a5.9,5.9,0,0,1-.4.69,1.33,1.33,0,0,1-.15.22l.12,0c.31.13.48.58.81.54h0c.19-.62.39-1.47.58-2A.75.75,0,0,1,149.77,91.51Z"/><path class="cls-43" d="M152.53,86.57a.52.52,0,0,1,.11-.1.62.62,0,0,1,.14-.14,2.9,2.9,0,0,1,.29-.19c.21-.13.41-.23.55-.3l.21-.1.2-.11h0c-.2-.31.06-.78-.18-1.06l0,0c-.58.43-1.33.92-2,1.31A3,3,0,0,1,152.53,86.57Z"/><path class="cls-43" d="M153,87.82a2.92,2.92,0,0,1,0,.51v.1h.4c.19,0,.46,0,.75,0l.71.07c0-.21.3-.31.38-.52a.5.5,0,0,0,0-.32c-.68,0-1.6.1-2.17.11Z"/><path class="cls-43" d="M152.25,83.88l-1.13,1.42a.3.3,0,0,1-.08.08,3,3,0,0,1,.7.38v0h0a.41.41,0,0,1,.07-.11l.18-.2c.33-.41.71-.81,1-1.15a.45.45,0,0,1-.17-.11c-.14-.14-.17-.38-.34-.48a.27.27,0,0,0-.17-.06h0A.35.35,0,0,1,152.25,83.88Z"/><path class="cls-43" d="M153,87.49l.09,0,.22-.1.54-.21.55-.19a1.05,1.05,0,0,1,.24-.06l-.08,0,.28-.1a1.26,1.26,0,0,0,0-.67.69.69,0,0,0-.11-.13,15.91,15.91,0,0,1-2,.75A3.41,3.41,0,0,1,153,87.49Z"/><path class="cls-44" d="M154.91,88.6h0l-.25,0Z"/><path class="cls-44" d="M148.86,85.26a.25.25,0,0,1,0,.07h0s0-.08-.05-.13S148.86,85.24,148.86,85.26Z"/><path class="cls-10" d="M151.75,85.76v0Z"/><path class="cls-44" d="M152.58,86.65a.3.3,0,0,1,0-.1.2.2,0,0,1,0-.08.52.52,0,0,0-.11.1Z"/><path class="cls-10" d="M154.62,90.25v0l-.1,0Z"/><path class="cls-10" d="M152.66,90.4l-.22-.17v0Z"/><path class="cls-10" d="M152.76,92.55l0,0v0c-.14-.22-.28-.48-.43-.73Z"/><path class="cls-44" d="M150,91.5a.34.34,0,0,1,.12.12v0a.24.24,0,0,0,0-.14Z"/><path class="cls-44" d="M148.84,91.36a.79.79,0,0,1,.06.22v.07s0-.07,0-.1S148.9,91.38,148.84,91.36Z"/><path class="cls-10" d="M148.2,91h0a1.44,1.44,0,0,1-.12.17l0,0,.14-.16Z"/><path class="cls-10" d="M146.88,87.38a.28.28,0,0,1-.13,0l-.09,0,.19.07Z"/><path class="cls-10" d="M148.11,85.72a.91.91,0,0,1-.17-.17l-.12-.12.25.32Z"/><path class="cls-10" d="M149.09,85.27h0v-.08S149.09,85.24,149.09,85.27Z"/><path class="cls-10" d="M149.88,85.17h0c0-.13,0-.36,0-.63l0,.58Z"/><path class="cls-44" d="M150.89,85.21a.2.2,0,0,0,0,.11l.18.06a.3.3,0,0,0,.08-.08l1.13-1.42a.33.33,0,0,0,.1-.23v0c-.2,0-.44.09-.64,0l-.15,0c-.05.17-.15.44-.26.74a9.53,9.53,0,0,1-.38.93c.09-.32.2-.64.32-1s.22-.57.29-.74h0Z"/><path class="cls-44" d="M152.3,85.1c.18-.21.36-.39.48-.52a2.09,2.09,0,0,1,.22-.2,2.11,2.11,0,0,1-.19.23l-.47.53c-.19.2-.36.39-.49.51a.26.26,0,0,0-.08.13l.07,0a23.33,23.33,0,0,0,2-1.3.42.42,0,0,0-.18-.11h0c-.19-.07-.42-.06-.61-.14-.31.34-.7.74-1,1.15Z"/><path class="cls-44" d="M153.86,85.74a1.64,1.64,0,0,1-.22.14l-.54.31c-.2.13-.41.23-.47.38a.2.2,0,0,0,0,.13l0,.08a15.77,15.77,0,0,0,2-.74c-.18-.15-.46-.21-.59-.41l-.2.11Z"/><path class="cls-44" d="M154.37,87l-.55.21-.55.19a.86.86,0,0,1-.23.06h0l-.09,0a3.4,3.4,0,0,1,.07.34h.08l2.17-.11a1,1,0,0,0-.13-.23,1.39,1.39,0,0,1-.32-.48.57.57,0,0,1,0-.18l-.29.09Z"/><path class="cls-44" d="M154.2,88.54l-.74-.05-.31,0a1,1,0,0,1,.24,0l-.28,0h-.05a2.45,2.45,0,0,1,0,.27c.59.23,1.45.53,2.13.78a.4.4,0,0,0,0-.15c0-.27-.31-.47-.29-.73l-.25,0Z"/><path class="cls-44" d="M153.28,89.57l-.3-.15-.09,0a2.88,2.88,0,0,1-.13.31c.52.4,1.2,1.09,1.77,1.59a.44.44,0,0,0,.17-.16c.14-.25,0-.54-.07-.82l-.73-.38Z"/><path class="cls-44" d="M153.37,91c-.28-.19-.52-.37-.7-.51l-.25-.19-.13.15a.75.75,0,0,0,.14.17c.38.4,1,1.09,1.43,1.58.11-.17.08-.42.21-.59a.1.1,0,0,1,.05-.06l-.18-.15Z"/><path class="cls-44" d="M152.3,91.86c-.08-.14-.16-.27-.22-.4a1.21,1.21,0,0,0-.2-.3.25.25,0,0,0-.22,0s-.06.06-.07,0,0,0,.06-.07a.26.26,0,0,1,.24,0,1.63,1.63,0,0,0-.17-.2l-.17.12a13.33,13.33,0,0,0,.78,2.37.36.36,0,0,0,.25-.06c.2-.15.12-.47.19-.71l-.05-.07Z"/><path class="cls-44" d="M151.4,93a1.26,1.26,0,0,1,0,.27,2,2,0,0,1-.08-.26l-.19-.63c-.07-.24-.13-.45-.19-.64s0-.16,0-.2l0-.08a21.57,21.57,0,0,0,.06,2.24,2.75,2.75,0,0,1,.53-.36c0-.25-.12-.51-.2-.78C151.33,92.7,151.37,92.85,151.4,93Z"/><path class="cls-44" d="M150,93.2a2,2,0,0,1-.06.32c0-.11,0-.22,0-.33s.06-.48.1-.78l.06-.43a.61.61,0,0,0,0-.33.24.24,0,0,0-.12-.14h-.19a.6.6,0,0,0-.13.25c-.19.58-.39,1.43-.58,2,.23,0,.38-.33.61-.34a.44.44,0,0,1,.29.11c0-.19,0-.4.06-.61A1.7,1.7,0,0,1,150,93.2Z"/><path class="cls-44" d="M148.6,92.31c.06-.14.13-.27.18-.39a.78.78,0,0,0,.07-.33.59.59,0,0,0,0-.23.18.18,0,0,0-.11.07c-.44.48-1,1.26-1.49,1.86.25.09.58-.07.87,0l.14-.24C148.32,92.83,148.46,92.59,148.6,92.31Z"/><path class="cls-44" d="M147.13,92.1l.51-.54.53-.57-.21-.15a3.11,3.11,0,0,1-.28.23,1.36,1.36,0,0,1-.35.24,1.64,1.64,0,0,1,.31-.28c.1-.07.18-.14.25-.18a1.79,1.79,0,0,0-.38.22l-1.32,1c.23,0,.49,0,.63.23l.06.08Z"/><path class="cls-44" d="M146.62,90.76l.58-.36a.16.16,0,0,0,.06-.08.11.11,0,0,0,0-.08s0,0,0-.06a.07.07,0,0,1,.06,0,.1.1,0,0,1,0,.09v0a.24.24,0,0,0,.08-.09l-.1-.15-.14,0c-.59.16-1.5.5-2.21.76.22.16.63.09.77.34a.19.19,0,0,1,0,.1l.63-.38Z"/><path class="cls-44" d="M146,89.67l.38-.1.31-.09a.63.63,0,0,0,.24-.16.28.28,0,0,1,0,.07l-.09.08.05,0a.24.24,0,0,0,.11-.06l-.06-.18a.25.25,0,0,0-.15,0l-2.21-.07c.11.17.34.25.43.43a.53.53,0,0,1,0,.37l.56-.13Z"/><path class="cls-44" d="M144.74,88.36a1.31,1.31,0,0,1,.28,0l.68,0h1l-.28,0H146a6.41,6.41,0,0,0,.76,0h0v-.26h0a9.43,9.43,0,0,0-2.21-.83.26.26,0,0,0,.17.29h0a.28.28,0,0,1,.15.4,1.35,1.35,0,0,1-.17.34h.17Z"/><path class="cls-44" d="M145,86.71l.29.13.23.11.63.26a4,4,0,0,0,.59.16.27.27,0,0,0,.13,0h0c0-.07.05-.13.07-.2l-.43-.23a3.58,3.58,0,0,1-.52-.34,3.6,3.6,0,0,1,.55.29l.18.11A16.9,16.9,0,0,0,145,85.85a4,4,0,0,1,0,.69.42.42,0,0,1-.06.14l.14,0Z"/><path class="cls-44" d="M146.08,85.42a1.18,1.18,0,0,1,.21.18l.48.44c.19.16.38.3.51.4l.05,0,.12-.16h0l-.21-.27a2,2,0,0,1-.26-.44,1.2,1.2,0,0,1,.17.21,12,12,0,0,0-.9-1.22.41.41,0,0,0-.24.13c-.12.15-.08.39-.14.57l.38.33A1.56,1.56,0,0,1,146.08,85.42Z"/><path class="cls-44" d="M147.6,85.07a7.84,7.84,0,0,1,.51.65l.16-.1s0,0,0,0c-.21-.53-.59-1.37-.85-2a.24.24,0,0,0-.11.06c-.19.11-.25.35-.35.55.06.08.14.18.21.29S147.42,84.83,147.6,85.07Z"/><path class="cls-44" d="M148.58,83.82a1.84,1.84,0,0,1,0,.25c0,.15.06.36.11.6l.11.53s0,.09.05.13l.18-.06a2.25,2.25,0,0,1-.06-.36,1.63,1.63,0,0,1,0-.38,1.18,1.18,0,0,1,.09.37,1.5,1.5,0,0,1,0,.2c0-.58,0-1.32,0-1.9a4.32,4.32,0,0,0-.31.46.34.34,0,0,1-.23.13v0S148.57,83.82,148.58,83.82Z"/><path class="cls-44" d="M150,84.42c0,.32,0,.6,0,.75h.22a1.76,1.76,0,0,0,.25-.62c.1-.39.23-1,.34-1.47a.46.46,0,0,0-.2,0c-.17.1-.38.51-.48.51a.12.12,0,0,1-.1-.05v.82Z"/><path class="cls-45" d="M153.27,87.39l.55-.19.55-.21.14-.06.08,0a1.05,1.05,0,0,0-.24.06l-.55.19-.54.21-.22.1h0A.86.86,0,0,0,153.27,87.39Z"/><path class="cls-45" d="M153.46,88.45h-.07a1,1,0,0,0-.24,0,1.06,1.06,0,0,0,.31,0l.74.06.46,0,.25,0v0h0c-.19,0-.44,0-.71-.07S153.66,88.45,153.46,88.45Z"/><path class="cls-45" d="M153.93,89.86c-.31-.17-.62-.33-.94-.47a1.75,1.75,0,0,0,.29.18l.62.34.73.38v-.05l-.11-.06Z"/><path class="cls-46" d="M149.93,93.52a1.91,1.91,0,0,0,.06-.33c0-.06,0-.14,0-.22s.05-.35.07-.56l.06-.43a.66.66,0,0,0,0-.34v0a.43.43,0,0,0-.11-.12h.06a3.14,3.14,0,0,0,1.46-.46l.18-.12a3.36,3.36,0,0,0,.56-.51l.13-.15.26.19c.17.14.42.32.69.51l.58.4.13.1.06,0,0,0-.06,0-.7-.51c-.27-.19-.52-.37-.71-.49l0,0a1.34,1.34,0,0,0-.24-.15l0,0a3.3,3.3,0,0,0,.32-.55,2.88,2.88,0,0,0,.13-.31,2.6,2.6,0,0,0,.15-.67,2.45,2.45,0,0,0,0-.27v-.1a3,3,0,0,0-.41-1.55l0-.08a.32.32,0,0,1,0-.14c.05-.14.26-.24.47-.37l.53-.32a1,1,0,0,0,.22-.14h0l-.2.1a5.42,5.42,0,0,0-.55.3,2.08,2.08,0,0,0-.29.19.5.5,0,0,0-.15.14.2.2,0,0,0,0,.08.3.3,0,0,0,0,.1.56.56,0,0,0-.05-.08,3.23,3.23,0,0,0-.69-.74l-.06,0a.24.24,0,0,1,.07-.13c.13-.12.3-.31.49-.51l.48-.53a1.3,1.3,0,0,0,.18-.23,1.34,1.34,0,0,0-.21.2l-.49.52-.3.33-.18.2a.41.41,0,0,0-.07.11h0v0h0a3.13,3.13,0,0,0-.7-.37l-.17-.07a3.35,3.35,0,0,0-.69-.13l-.23,0a6.49,6.49,0,0,0,0-.74c0-.35,0-.64,0-.78V83.6h0c0,.06,0,.41,0,.83v.75h0a3.41,3.41,0,0,0-.78.11h0a.28.28,0,0,0,0-.09V85.1a1.68,1.68,0,0,0,0-.2,1.18,1.18,0,0,0-.09-.37,1.58,1.58,0,0,0,0,.38,2.38,2.38,0,0,0,.06.37l-.18,0h0s0,0,0-.08,0,0,0-.06l-.11-.53c0-.23-.08-.45-.11-.6a2.21,2.21,0,0,0,0-.25h0a2.09,2.09,0,0,0,0,.25c0,.15.05.37.09.6a5.51,5.51,0,0,0,.15.59.19.19,0,0,0,0,.08,3.06,3.06,0,0,0-.58.27l-.16.1s-.22-.3-.5-.65-.35-.44-.44-.56-.08-.09-.08-.08a.82.82,0,0,0,.12.2l.35.47.27.33.11.12a1,1,0,0,0,.18.17l0,0a2.75,2.75,0,0,0-.59.54l-.2-.29-.15-.19a.68.68,0,0,0-.17-.21,2,2,0,0,0,.27.44l.21.27h0l-.12.16,0,0c-.13-.1-.32-.24-.51-.41s-.36-.32-.49-.43a1.21,1.21,0,0,0-.2-.19,1.73,1.73,0,0,0,.17.21h0a5.06,5.06,0,0,0,1,.85l.05,0a2.66,2.66,0,0,0-.34.59l-.23-.15-.18-.11a4.18,4.18,0,0,0-.56-.28,2.85,2.85,0,0,0,.52.33l.44.24c0,.06,0,.13-.08.19h0a.17.17,0,0,1-.12,0,3,3,0,0,1-.59-.15l-.15-.06c-.18-.06-.34-.14-.48-.2l-.23-.11a1.94,1.94,0,0,0-.3-.13l0,0,.25.14a5.79,5.79,0,0,0,.71.34,3.67,3.67,0,0,0,.67.18l.09,0a.27.27,0,0,0,.12,0s0,0,0,.08a2.85,2.85,0,0,0-.12.72v.27a3.26,3.26,0,0,0,.12.76c0,.06,0,.12,0,.18a3.16,3.16,0,0,0,.36.71l.11.15a3.35,3.35,0,0,0,.56.57l0,0-.24.18a1.43,1.43,0,0,0-.32.28,1.21,1.21,0,0,0,.35-.24,3.11,3.11,0,0,0,.28-.23l.21.15-.53.57-.51.54s0,0,0,.06l.19-.16c.11-.1.25-.24.4-.4l.36-.41,0,0a1.59,1.59,0,0,0,.12-.16h0a2.42,2.42,0,0,0,.58.29l0,.07a.54.54,0,0,1,.05.22.94.94,0,0,1-.08.33c0,.12-.11.26-.18.4s-.28.52-.38.69-.11.2-.14.25h0l.16-.23a7.69,7.69,0,0,0,.39-.69c.07-.14.13-.27.18-.4a1,1,0,0,0,.07-.29v-.07a.73.73,0,0,0-.06-.21v0l0,0a3.05,3.05,0,0,0,1,.19H150a.36.36,0,0,1,.11.16.65.65,0,0,1,0,.34l-.06.43c0,.3-.07.58-.09.78m0-2.08a2.78,2.78,0,1,1,2.77-2.78h0A2.77,2.77,0,0,1,149.9,91.11Z"/><path class="cls-45" d="M152.36,91.84h0l-.23-.39a1.16,1.16,0,0,0-.22-.31h0a.24.24,0,0,0-.23,0c-.06,0-.06.07-.06.07a.16.16,0,0,1,.07,0,.19.19,0,0,1,.21,0,1.21,1.21,0,0,1,.2.3c.07.12.15.25.22.39l.42.71,0,.07,0,0,0,0Z"/><path class="cls-45" d="M151.17,92.35l.19.63a2,2,0,0,0,.08.26,1.26,1.26,0,0,0,0-.27c0-.12-.07-.27-.12-.44a1.94,1.94,0,0,0-.05-.2c-.08-.25-.15-.47-.21-.63a1.09,1.09,0,0,0-.1-.25.28.28,0,0,0,0,.06s0,.11,0,.2S151.1,92.11,151.17,92.35Z"/><path class="cls-45" d="M147.28,90.23a.07.07,0,0,0-.06,0s0,0,0,.06a.11.11,0,0,1,0,.08.16.16,0,0,1-.06.08l-.58.36-.27.18-.29.2a1.24,1.24,0,0,0-.23.17,1.23,1.23,0,0,0,.25-.14l.58-.36c.22-.14.42-.27.57-.38a.35.35,0,0,0,.06-.09v0A.1.1,0,0,0,147.28,90.23Z"/><path class="cls-45" d="M146.84,89.39a.28.28,0,0,0,0-.07.63.63,0,0,1-.24.16l-.31.09-.38.1-.45.12-.24.07L145,90a1.36,1.36,0,0,0,.29-.06l.7-.18.38-.1.31-.1.09,0Z"/><path class="cls-45" d="M146.65,88.4h-1l-.68,0a1.31,1.31,0,0,0-.28,0,.15.15,0,0,0,.09,0l.19,0c.17,0,.41,0,.67,0h.68A1.27,1.27,0,0,0,146.65,88.4Z"/><path class="cls-45" d="M150.91,85.28a7.55,7.55,0,0,0,.38-.93c.12-.3.21-.57.27-.75h0c-.07.17-.18.44-.29.74A8.22,8.22,0,0,0,150.91,85.28Z"/><circle class="cls-47" cx="149.9" cy="88.33" r="2.78"/><path class="cls-45" d="M149.59,93.54s.15,2.27.3,5.06.26,5.07.24,5.07-.15-2.27-.3-5.06S149.58,93.54,149.59,93.54Z"/><path class="cls-44" d="M150.11,86.77l.39.8a.18.18,0,0,0,.1.07l.88.12a.13.13,0,0,1,.1.16.09.09,0,0,1,0,.07l-.63.61a.14.14,0,0,0,0,.12l.15.87a.13.13,0,0,1-.11.15.08.08,0,0,1-.08,0l-.78-.41a.15.15,0,0,0-.13,0l-.78.41a.13.13,0,0,1-.18,0,.14.14,0,0,1,0-.09l.15-.87a.17.17,0,0,0,0-.12l-.63-.61a.14.14,0,0,1,0-.19l.07,0,.87-.12a.15.15,0,0,0,.1-.07l.39-.8a.13.13,0,0,1,.18,0A.1.1,0,0,1,150.11,86.77Z"/><path class="cls-41" d="M98.19,72c0,.11-2.75,9.32-2.75,9.32l2.36-1.05,1.29,2.85,1.66-11Z"/><polygon class="cls-41" points="100.19 72.36 100.75 82.92 102.81 80.03 105.47 81.92 102.81 71.55 100.19 72.36"/><g class="cls-42"><path class="cls-10" d="M98,72.67a1,1,0,0,0,.9.71c.24,0,.51-.07.72.06s.28.44.52.47.45-.33.72-.42.74.32,1.09.18.34-.38.58-.44a.69.69,0,0,1,.32,0,.68.68,0,0,0,.37-.07l-.14-.51-.22-1H98.1Z"/></g><path class="cls-43" d="M100.8,64.44a3.25,3.25,0,0,1,.69.14.36.36,0,0,1,0-.11l.6-1.62h0a.51.51,0,0,1-.2-.21.65.65,0,0,0-.54-.29c-.11.46-.25,1.09-.35,1.48A1.74,1.74,0,0,1,100.8,64.44Z"/><path class="cls-43" d="M97.89,69.36a3.16,3.16,0,0,1-.36-.71.24.24,0,0,1-.11.06l0,0-.09,0-.31.1-.38.1c-.27.08-.52.14-.7.18a1.36,1.36,0,0,1-.29.06l.28-.1.25-.07-.56.12c-.07.32-.3.66-.1.9a.23.23,0,0,0,.07.07c.71-.26,1.62-.6,2.22-.76Z"/><path class="cls-43" d="M99.72,64.36v.17a2.93,2.93,0,0,1,.78-.1v-.05l0-.58v-.12c0-.42,0-.77,0-.84s-.23-.43-.46-.46a.42.42,0,0,0-.39.08C99.73,63,99.71,63.78,99.72,64.36Z"/><path class="cls-44" d="M96.64,66.41l.15.06-.63-.26Z"/><path class="cls-43" d="M97.36,67.44a3,3,0,0,1,.12-.73l-.19-.06a3.9,3.9,0,0,1-.67-.18,6.59,6.59,0,0,1-.71-.34L95.66,66l-.13-.06c-.09.14-.22.26-.32.4a.5.5,0,0,0-.08.27,9.69,9.69,0,0,1,2.21.82Z"/><path class="cls-43" d="M97.6,66.36a2.66,2.66,0,0,1,.34-.59l0,0a5.84,5.84,0,0,1-1-.85h0a4.33,4.33,0,0,1-.38-.34.29.29,0,0,1-.08.13c-.17.18-.5.06-.69.22a.34.34,0,0,0-.12.22,20,20,0,0,1,1.76,1.11Z"/><path class="cls-43" d="M97.9,65.26l.2.29a3.32,3.32,0,0,1,.59-.54,3.78,3.78,0,0,0-.24-.32l-.27-.33-.35-.47a.82.82,0,0,1-.12-.2l.08.08-.22-.29a.59.59,0,0,1-.21.26,1.94,1.94,0,0,1-.49.11,11.86,11.86,0,0,1,.9,1.21Z"/><path class="cls-43" d="M98.89,64.88a3.06,3.06,0,0,1,.58-.27.24.24,0,0,1,0-.08,4.15,4.15,0,0,1-.14-.6c0-.23-.08-.44-.1-.6a1.93,1.93,0,0,1,0-.24v0a.56.56,0,0,1-.41-.14.75.75,0,0,0-.74,0c.25.61.63,1.45.84,2Z"/><path class="cls-44" d="M98.08,65.58h0Z"/><path class="cls-43" d="M97.48,68.47a2.88,2.88,0,0,1-.12-.77h0a6.41,6.41,0,0,1-.76,0h-.26c-.27,0-.51,0-.68,0l-.19,0h-.17l-.11.18a.59.59,0,0,0-.07.56h0l2.22.07A.26.26,0,0,1,97.48,68.47Z"/><path class="cls-43" d="M98.51,70.11l0,0a3.35,3.35,0,0,1-.56-.57.2.2,0,0,1-.09.09.18.18,0,0,1-.06.09c-.14.11-.34.23-.56.38l-.58.36a1.23,1.23,0,0,1-.25.14,1.18,1.18,0,0,1,.22-.17l.3-.2-.63.38c0,.16,0,.36.06.51s.23.2.4.23l1.33-1A1.43,1.43,0,0,1,98.51,70.11Z"/><path class="cls-44" d="M104.57,70.62l.18.14h0l-.06,0Z"/><path class="cls-43" d="M102.91,69.67a3.06,3.06,0,0,1-.57.51,1.63,1.63,0,0,1,.17.2h0a1.16,1.16,0,0,1,.22.31l.23.39h0c.14.25.29.51.43.73a.27.27,0,0,1,.06-.1c.23-.24.7,0,1-.23l.06-.08c-.45-.49-1-1.18-1.44-1.58A1.15,1.15,0,0,1,102.91,69.67Z"/><path class="cls-44" d="M100.6,62.86h0v0Z"/><path class="cls-43" d="M103.67,68a3.11,3.11,0,0,1-.16.67l.09,0,.31.16a1.49,1.49,0,0,1-.3-.18,8.24,8.24,0,0,1,.94.47l.6.33.1,0a.77.77,0,0,1,0-.15c.09-.26.41-.39.52-.61Z"/><path class="cls-43" d="M103.06,69.49l.22.17,0,0c.19.12.44.3.71.49l.7.51.07,0c.11-.08.24-.13.36-.2-.58-.5-1.25-1.19-1.77-1.59A3,3,0,0,1,103.06,69.49Z"/><path class="cls-43" d="M99.43,70.62l0-.06a3.19,3.19,0,0,1-.58-.3l0,0-.14.16a3.9,3.9,0,0,1-.36.41,5.32,5.32,0,0,1-.4.41,1.19,1.19,0,0,1-.18.15l0,0a3.08,3.08,0,0,0-.25.27c.12.25,0,.62.21.83a.22.22,0,0,0,.13.08c.44-.59,1-1.37,1.48-1.85A.19.19,0,0,1,99.43,70.62Z"/><path class="cls-43" d="M100.7,70.76a.24.24,0,0,1,0,.14.66.66,0,0,1,0,.34l-.06.43c0,.21,0,.39-.08.56s0,.42,0,.61a1.4,1.4,0,0,0,.39.26.64.64,0,0,0,.59-.17c0-.71-.08-1.6,0-2.24l0,.08a.28.28,0,0,1,0-.06,1.36,1.36,0,0,1,.11.25c.06.16.13.39.2.63l.06.2c.08.27.15.53.2.78a.7.7,0,0,1,.25,0c.19,0,.4.13.59.15a14.11,14.11,0,0,1-.78-2.36A3.32,3.32,0,0,1,100.7,70.76Z"/><path class="cls-43" d="M100.4,70.77h0a3.34,3.34,0,0,1-1-.19l0,0v0c.07,0,.09.11.08.18s0,.07,0,.11a1,1,0,0,1-.07.29,3.34,3.34,0,0,1-.18.4,7.69,7.69,0,0,1-.39.69l-.15.22.12,0c.31.12.47.57.81.54h0c.19-.62.38-1.47.58-2A.6.6,0,0,1,100.4,70.77Z"/><path class="cls-43" d="M103.15,65.83l.11-.1a.54.54,0,0,1,.15-.15l.29-.18c.21-.13.4-.23.55-.31l.2-.09.2-.12h0c-.19-.3.06-.77-.17-1l0,0a23.51,23.51,0,0,1-2,1.3A3.23,3.23,0,0,1,103.15,65.83Z"/><path class="cls-43" d="M103.65,67.08a4.38,4.38,0,0,1,0,.51v.1h.4c.19,0,.45,0,.74,0l.71.07c0-.21.31-.32.38-.52a.4.4,0,0,0,0-.32l-2.17.11Z"/><path class="cls-43" d="M102.87,63.14l-1.13,1.42a.3.3,0,0,1-.08.08,2.64,2.64,0,0,1,.7.38l0,0h0a.29.29,0,0,1,.07-.12l.17-.2c.34-.4.72-.8,1-1.14a.42.42,0,0,1-.18-.11c-.14-.14-.17-.38-.33-.49a.35.35,0,0,0-.18,0h0A.31.31,0,0,1,102.87,63.14Z"/><path class="cls-43" d="M103.57,66.75l.1,0,.21-.1.55-.21.55-.19.23-.07-.08,0,.29-.1a1.26,1.26,0,0,0-.06-.67.45.45,0,0,0-.11-.13,13.43,13.43,0,0,1-2,.74A2.79,2.79,0,0,1,103.57,66.75Z"/><path class="cls-44" d="M105.53,67.86h0l-.25,0Z"/><path class="cls-44" d="M99.49,64.52a.2.2,0,0,1,0,.07h0l0-.13A.13.13,0,0,0,99.49,64.52Z"/><path class="cls-10" d="M102.37,65s0,0,0,0l0,0Z"/><path class="cls-44" d="M103.2,65.91a.43.43,0,0,1,0-.11l0-.07-.11.1A.22.22,0,0,1,103.2,65.91Z"/><path class="cls-10" d="M105.25,69.5h0l-.1,0Z"/><path class="cls-10" d="M103.29,69.66l-.22-.17h0Z"/><path class="cls-10" d="M103.38,71.8l0,0v0L103,71.1Z"/><path class="cls-44" d="M100.64,70.76a.25.25,0,0,1,.11.12s0,0,0,0a.24.24,0,0,0-.05-.14Z"/><path class="cls-44" d="M99.46,70.62a.43.43,0,0,1,.06.22v.07s0-.07,0-.11S99.53,70.64,99.46,70.62Z"/><path class="cls-10" d="M98.82,70.26h0a1.54,1.54,0,0,1-.13.17,0,0,0,0,0,0,0l.13-.16Z"/><path class="cls-10" d="M97.5,66.64a.17.17,0,0,1-.12,0h-.09l.19.06A.25.25,0,0,1,97.5,66.64Z"/><path class="cls-10" d="M98.73,65a1.37,1.37,0,0,1-.17-.17l-.11-.12.24.32Z"/><path class="cls-10" d="M99.71,64.53h0v-.08A.25.25,0,0,1,99.71,64.53Z"/><path class="cls-10" d="M100.5,64.43h0c0-.13,0-.36,0-.63l0,.58A.09.09,0,0,0,100.5,64.43Z"/><path class="cls-44" d="M101.51,64.47a.36.36,0,0,0,0,.11l.17.06a.3.3,0,0,0,.08-.08l1.13-1.42a.3.3,0,0,0,.1-.23v0c-.2,0-.43.09-.64,0l-.14,0c-.06.18-.15.45-.27.75a7.55,7.55,0,0,1-.38.93,8.22,8.22,0,0,1,.33-1c.11-.3.22-.57.29-.74h0C101.91,63.39,101.71,63.93,101.51,64.47Z"/><path class="cls-44" d="M102.92,64.36l.49-.52a2,2,0,0,1,.21-.2,1.3,1.3,0,0,1-.18.23l-.48.53-.48.51a.26.26,0,0,0-.08.13l.06,0a23.33,23.33,0,0,0,2-1.3.42.42,0,0,0-.18-.11h0c-.18-.07-.42-.07-.6-.14-.32.34-.7.74-1,1.14Z"/><path class="cls-44" d="M104.49,65l-.23.14-.53.31c-.21.13-.41.23-.47.37a.39.39,0,0,0,0,.14l0,.08a15.77,15.77,0,0,0,2-.74c-.19-.15-.47-.21-.6-.41l-.19.11S104.49,65,104.49,65Z"/><path class="cls-44" d="M105,66.25l-.54.21-.55.19a1.05,1.05,0,0,1-.24.06h0l-.09,0a3.38,3.38,0,0,1,.08.34h.08c.57,0,1.49-.07,2.17-.12a1.59,1.59,0,0,0-.13-.22,1.29,1.29,0,0,1-.33-.48.55.55,0,0,1,0-.18l-.29.09Z"/><path class="cls-44" d="M104.83,67.8l-.75,0-.31,0h-.08a2.45,2.45,0,0,1,0,.27l2.12.77a.33.33,0,0,0,0-.14c0-.27-.32-.47-.3-.73l-.25,0Z"/><path class="cls-44" d="M103.91,68.83l-.31-.16-.09,0a1.66,1.66,0,0,1-.12.31c.51.4,1.19,1.09,1.76,1.59a.49.49,0,0,0,.18-.17c.14-.24,0-.53-.08-.81l-.72-.38Z"/><path class="cls-44" d="M104,70.22l-.69-.51a2.23,2.23,0,0,1-.26-.2,1,1,0,0,1-.13.16,1.15,1.15,0,0,0,.14.17c.38.4,1,1.09,1.44,1.58.1-.17.08-.42.2-.59l.06-.07-.18-.14Z"/><path class="cls-44" d="M102.92,71.12l-.22-.4a1.21,1.21,0,0,0-.2-.3.2.2,0,0,0-.21,0c-.05,0-.07.06-.07,0s0,0,.06-.07a.24.24,0,0,1,.23,0,1.56,1.56,0,0,0-.16-.2l-.18.12a14.11,14.11,0,0,0,.78,2.36.34.34,0,0,0,.26,0c.2-.16.12-.47.18-.71l0-.07C103.23,71.65,103.08,71.39,102.92,71.12Z"/><path class="cls-44" d="M102,72.23a1.28,1.28,0,0,1,0,.27,1.14,1.14,0,0,1-.09-.26l-.18-.63c-.07-.24-.14-.46-.19-.64l-.06-.2,0-.08c0,.63,0,1.52,0,2.24a2.82,2.82,0,0,1,.54-.36c0-.25-.12-.52-.2-.78C102,72,102,72.11,102,72.23Z"/><path class="cls-44" d="M100.61,72.45a1.91,1.91,0,0,1-.06.33,1.22,1.22,0,0,1,0-.33c0-.2.05-.48.09-.78l.06-.43a.65.65,0,0,0,0-.34.53.53,0,0,0-.12-.14h-.18v0a.62.62,0,0,0-.14.25c-.19.58-.38,1.43-.58,2,.23,0,.38-.33.62-.35a.45.45,0,0,1,.29.12c0-.19,0-.4,0-.62C100.63,72.31,100.62,72.39,100.61,72.45Z"/><path class="cls-44" d="M99.22,71.57c.07-.14.14-.27.19-.39a1,1,0,0,0,.07-.34.59.59,0,0,0,0-.22.26.26,0,0,0-.11.07c-.43.48-1,1.26-1.48,1.86.24.09.58-.07.87,0a1.9,1.9,0,0,1,.14-.24C99,72.09,99.08,71.85,99.22,71.57Z"/><path class="cls-44" d="M97.75,71.36l.51-.55.53-.56-.21-.15a3.11,3.11,0,0,1-.28.23,1.61,1.61,0,0,1-.34.24,1.18,1.18,0,0,1,.31-.28,2.11,2.11,0,0,1,.24-.18,1.72,1.72,0,0,0-.37.22l-1.33,1a1.05,1.05,0,0,1,.64.22.41.41,0,0,1,0,.09C97.57,71.54,97.66,71.46,97.75,71.36Z"/><path class="cls-44" d="M97.25,70l.57-.36a.22.22,0,0,0,.07-.09.09.09,0,0,0,0-.07.1.1,0,0,0,0-.06s0,0,.07,0a.14.14,0,0,1,0,.09v0a.2.2,0,0,0,.09-.09l-.11-.15-.13,0c-.6.16-1.51.5-2.22.76.22.16.63.09.77.34a.42.42,0,0,1,0,.1L97,70.2Z"/><path class="cls-44" d="M96.57,68.93l.39-.11.31-.08a.63.63,0,0,0,.24-.16.21.21,0,0,1-.05.07.24.24,0,0,1-.09.08l0,0a.24.24,0,0,0,.11-.06,1.21,1.21,0,0,1,0-.18.4.4,0,0,0-.15,0l-2.21-.06c.1.17.33.25.42.43a.45.45,0,0,1,0,.36l.56-.12Z"/><path class="cls-44" d="M95.37,67.62a1.31,1.31,0,0,1,.28,0l.67,0H97a1.31,1.31,0,0,1,.28,0,1.27,1.27,0,0,1-.28,0h-.42a6.4,6.4,0,0,0,.76,0h0v-.27h0a9.69,9.69,0,0,0-2.21-.82.28.28,0,0,0,.17.29h0a.28.28,0,0,1,.16.4,1.54,1.54,0,0,1-.17.34h.16Z"/><path class="cls-44" d="M95.63,66l.3.13.23.11.63.26a4,4,0,0,0,.59.16.25.25,0,0,0,.12,0l0,0a1.46,1.46,0,0,1,.07-.19l-.43-.24a2.62,2.62,0,0,1-.53-.33,3.31,3.31,0,0,1,.56.29l.18.11a19.31,19.31,0,0,0-1.76-1.12c0,.21,0,.48,0,.69l-.06.13.13.06Z"/><path class="cls-44" d="M96.71,64.67a1.8,1.8,0,0,1,.2.19l.49.44c.19.16.37.3.51.4l0,0,.12-.16h0a2.33,2.33,0,0,1-.21-.27,2,2,0,0,1-.27-.44.87.87,0,0,1,.17.21,11.9,11.9,0,0,0-.89-1.22.38.38,0,0,0-.24.13c-.13.15-.08.39-.14.56.11.11.24.22.38.34A.83.83,0,0,1,96.71,64.67Z"/><path class="cls-44" d="M98.23,64.33a6.57,6.57,0,0,1,.5.65l.16-.1v0c-.21-.54-.59-1.37-.84-2l-.12.07c-.18.11-.25.35-.35.55.07.08.14.18.22.29Z"/><path class="cls-44" d="M99.2,63.08a1,1,0,0,1,0,.25c0,.15.07.36.12.59s.07.39.11.54l0,.13.19-.06a2.2,2.2,0,0,1-.06-.37,1.55,1.55,0,0,1,0-.37.93.93,0,0,1,.1.37,1.41,1.41,0,0,1,0,.2c0-.58,0-1.32,0-1.9a3.46,3.46,0,0,0-.31.46.32.32,0,0,1-.23.13v0Z"/><path class="cls-44" d="M100.6,63.68c0,.32,0,.6,0,.75h.22a1.74,1.74,0,0,0,.24-.62c.1-.39.24-1,.35-1.48a.66.66,0,0,0-.2.06c-.17.1-.38.51-.49.51a.12.12,0,0,1-.1,0v.82Z"/><path class="cls-45" d="M103.9,66.65l.55-.19.54-.21.14-.06c.05,0,.08,0,.08,0l-.23.07-.55.19-.55.21-.21.1h0A1,1,0,0,0,103.9,66.65Z"/><path class="cls-45" d="M104.08,67.71h-.31a1.65,1.65,0,0,0,.31,0l.75.06.45,0,.25,0v0h0c-.18,0-.43,0-.7-.07A7.41,7.41,0,0,0,104.08,67.71Z"/><path class="cls-45" d="M104.55,69.12a10.3,10.3,0,0,0-.94-.47,1.49,1.49,0,0,0,.3.18l.62.34.72.37v0l-.1-.06Z"/><path class="cls-46" d="M100.55,72.77a1.65,1.65,0,0,0,.06-.32,1.24,1.24,0,0,0,0-.22c0-.16,0-.35.08-.56s0-.29,0-.43a.66.66,0,0,0,0-.34s0,0,0,0a.25.25,0,0,0-.11-.12h.06a3.14,3.14,0,0,0,1.46-.46l.18-.12a3.06,3.06,0,0,0,.57-.51l.13-.16a1.37,1.37,0,0,0,.25.2c.18.13.42.32.7.51l.57.4.14.09,0,0,0,0-.06,0-.7-.51-.71-.49,0,0-.24-.16h0a3.08,3.08,0,0,0,.33-.55,2.88,2.88,0,0,0,.13-.31,3.82,3.82,0,0,0,.15-.67,2.45,2.45,0,0,0,0-.27v-.1a3.4,3.4,0,0,0-.11-.84,3.23,3.23,0,0,0-.3-.72l0-.07a.32.32,0,0,1,0-.14c.06-.14.27-.24.47-.37s.4-.24.54-.32a1.35,1.35,0,0,0,.22-.14h0l-.21.09-.55.31-.29.18a.67.67,0,0,0-.14.15.25.25,0,0,0,0,.07.22.22,0,0,0,0,.11l-.06-.08a3.42,3.42,0,0,0-.68-.74l-.07,0a.26.26,0,0,1,.08-.13l.49-.51.47-.53a2.11,2.11,0,0,0,.19-.23,2.09,2.09,0,0,0-.22.2l-.49.52-.3.33-.17.2a.26.26,0,0,0-.07.11h0s0,0,0,0h0a3.37,3.37,0,0,0-.7-.38l-.17-.06a3.12,3.12,0,0,0-.69-.13l-.22,0c0-.14,0-.42,0-.75v-.82h0a5.53,5.53,0,0,0,0,.83v.75h0a3.47,3.47,0,0,0-.78.1h0a.22.22,0,0,0,0-.08v-.09a1.41,1.41,0,0,0,0-.2,1,1,0,0,0-.1-.37,1.64,1.64,0,0,0,0,.38,2.58,2.58,0,0,0,.06.37l-.19,0h0a.24.24,0,0,0,0-.08.13.13,0,0,1,0-.06l-.11-.53c0-.24-.09-.45-.12-.6a1,1,0,0,0-.05-.25h0a1.94,1.94,0,0,0,0,.24,4.5,4.5,0,0,0,.09.61c0,.23.1.44.14.59s0,.06,0,.08a3,3,0,0,0-.57.27l-.16.1a7.84,7.84,0,0,0-.51-.65l-.44-.56c0-.06-.07-.09-.08-.09a.74.74,0,0,0,.13.21,5.57,5.57,0,0,0,.35.47c.09.12.19.23.27.33l.11.12a1.37,1.37,0,0,0,.17.17l0,0a3.08,3.08,0,0,0-.59.55l-.2-.29-.14-.2a1.63,1.63,0,0,0-.17-.2,2.82,2.82,0,0,0,.26.44c.08.11.16.2.22.27h0l-.12.15,0,0c-.14-.1-.32-.24-.52-.41s-.36-.32-.48-.44l-.2-.18a.78.78,0,0,0,.16.2h0a5.77,5.77,0,0,0,1,.85l0,0a3.51,3.51,0,0,0-.33.6l-.24-.15-.18-.11a2.93,2.93,0,0,0-.56-.28,3.61,3.61,0,0,0,.53.33l.43.23a1.59,1.59,0,0,0-.07.2h0a.16.16,0,0,1-.12,0,3,3,0,0,1-.59-.15l-.15-.06-.48-.2-.23-.11a1.08,1.08,0,0,0-.29-.13l0,0,.25.14a6.59,6.59,0,0,0,.71.34,3.9,3.9,0,0,0,.67.18h.09a.19.19,0,0,0,.13,0l0,.07a3.59,3.59,0,0,0-.12.73v.26a3.34,3.34,0,0,0,.12.77l.06.18a3.16,3.16,0,0,0,.36.71l.1.15a3.77,3.77,0,0,0,.56.57l0,0a2.11,2.11,0,0,0-.24.18,1.18,1.18,0,0,0-.31.28,2,2,0,0,0,.35-.24,3,3,0,0,0,.27-.23l.22.15c-.08.07-.29.3-.54.56l-.51.55,0,.05a.65.65,0,0,0,.18-.15c.11-.1.25-.24.41-.41s.26-.29.36-.41a0,0,0,0,0,0,0,1,1,0,0,0,.13-.16h0a3.14,3.14,0,0,0,.58.29l0,.06a.59.59,0,0,1,0,.23.93.93,0,0,1-.07.33c0,.12-.12.26-.19.39-.14.28-.27.53-.37.7l-.14.25h0l.15-.23a5.83,5.83,0,0,0,.39-.69c.07-.14.14-.27.19-.4a.94.94,0,0,0,.06-.29v-.07a.43.43,0,0,0-.06-.22v0s0,0,0,0a3.28,3.28,0,0,0,1,.19h.18a.25.25,0,0,1,.11.16.66.66,0,0,1,0,.34l-.06.43c0,.3-.07.58-.1.78m0-2.08a2.78,2.78,0,1,1,2.78-2.78h0A2.78,2.78,0,0,1,100.52,70.37Z"/><path class="cls-45" d="M103,71.1h0l-.23-.39a1,1,0,0,0-.22-.31h0a.21.21,0,0,0-.23,0,.13.13,0,0,0-.06.07s0,0,.07,0a.2.2,0,0,1,.22,0,1.21,1.21,0,0,1,.2.3l.22.39.42.71,0,.07a.08.08,0,0,1,0,0l0,0Z"/><path class="cls-45" d="M101.8,71.61l.18.63a1.14,1.14,0,0,0,.09.26,1.28,1.28,0,0,0,0-.27c0-.12-.06-.27-.11-.44l-.06-.2c-.07-.25-.14-.47-.2-.63a1.12,1.12,0,0,0-.11-.25.28.28,0,0,0,0,.06l.06.2C101.66,71.15,101.73,71.37,101.8,71.61Z"/><path class="cls-45" d="M97.91,69.49a.09.09,0,0,0-.07,0,.1.1,0,0,1,0,.06.09.09,0,0,1,0,.07.22.22,0,0,1-.07.09l-.57.36L97,70.2l-.3.2a1.18,1.18,0,0,0-.22.17,1.23,1.23,0,0,0,.25-.14l.57-.36a6.21,6.21,0,0,0,.57-.38.18.18,0,0,0,.06-.09v0A.14.14,0,0,0,97.91,69.49Z"/><path class="cls-45" d="M97.46,68.65a.21.21,0,0,0,.05-.07.63.63,0,0,1-.24.16l-.31.08-.39.11-.44.12-.24.07-.29.1a1.59,1.59,0,0,0,.3-.06l.69-.18.38-.1.31-.1.1,0A.3.3,0,0,0,97.46,68.65Z"/><path class="cls-45" d="M97.28,67.66h-1l-.68,0a1.31,1.31,0,0,0-.28,0l.09,0,.19,0a5.92,5.92,0,0,0,.68,0H97A1.33,1.33,0,0,0,97.28,67.66Z"/><path class="cls-45" d="M101.54,64.54a9.53,9.53,0,0,0,.38-.93c.11-.3.21-.57.27-.75h0l-.29.74C101.74,63.9,101.63,64.22,101.54,64.54Z"/><circle class="cls-47" cx="100.52" cy="67.59" r="2.78"/><path class="cls-45" d="M100.22,72.8s.15,2.26.3,5.06.25,5.07.23,5.07-.14-2.27-.29-5.07S100.2,72.8,100.22,72.8Z"/><path class="cls-44" d="M100.74,66l.39.79a.14.14,0,0,0,.1.08l.87.12a.15.15,0,0,1,.11.16.25.25,0,0,1,0,.07l-.63.61a.17.17,0,0,0,0,.12l.15.87a.12.12,0,0,1-.1.15.14.14,0,0,1-.09,0l-.78-.41a.13.13,0,0,0-.12,0l-.78.41a.14.14,0,0,1-.18,0,.15.15,0,0,1,0-.09l.15-.87a.14.14,0,0,0,0-.12l-.63-.61a.13.13,0,0,1,0-.19l.07,0,.87-.12a.16.16,0,0,0,.1-.08l.39-.79a.14.14,0,0,1,.18-.06Z"/><path class="cls-41" d="M35.22,100.37c0,.11-2.75,9.32-2.75,9.32l2.36-1,1.3,2.85,1.66-11Z"/><polygon class="cls-41" points="37.23 100.76 37.79 111.33 39.84 108.43 42.5 110.33 39.84 99.95 37.23 100.76"/><g class="cls-42"><path class="cls-10" d="M35,101.07a1,1,0,0,0,.91.71c.24,0,.5-.07.71.06s.29.44.53.47.44-.33.71-.42.74.32,1.1.18.33-.38.57-.44a.69.69,0,0,1,.32,0,.67.67,0,0,0,.37-.07l-.13-.51-.23-1H35.13Z"/></g><path class="cls-43" d="M37.83,92.84a3.13,3.13,0,0,1,.69.14.36.36,0,0,1,0-.11c.21-.54.41-1.08.61-1.62h0A.64.64,0,0,1,39,91a.6.6,0,0,0-.54-.29c-.11.46-.24,1.08-.34,1.47A1.76,1.76,0,0,1,37.83,92.84Z"/><path class="cls-43" d="M34.92,97.76a2.76,2.76,0,0,1-.35-.71.27.27,0,0,1-.12.06l0,0-.1.05-.31.1-.38.1-.69.18a1.59,1.59,0,0,1-.3.06l.29-.1.24-.07-.56.13c-.07.31-.3.65-.1.9l.07.06c.71-.26,1.62-.6,2.22-.76Z"/><path class="cls-43" d="M36.75,92.76v.17a3,3,0,0,1,.78-.1v0l0-.58v-.12a8,8,0,0,1,0-.84c-.12-.14-.23-.43-.47-.46a.42.42,0,0,0-.39.08C36.76,91.44,36.74,92.18,36.75,92.76Z"/><path class="cls-44" d="M33.67,94.81l.15.06-.63-.26C33.33,94.67,33.5,94.75,33.67,94.81Z"/><path class="cls-43" d="M34.39,95.84a3,3,0,0,1,.13-.73,1.52,1.52,0,0,1-.2-.06,3.9,3.9,0,0,1-.67-.18,6.44,6.44,0,0,1-.7-.34,1.45,1.45,0,0,1-.25-.14l-.14-.06c-.08.14-.22.26-.31.4a.45.45,0,0,0-.08.27,9.87,9.87,0,0,1,2.21.82Z"/><path class="cls-43" d="M34.63,94.76a3.12,3.12,0,0,1,.34-.59l0,0a5.84,5.84,0,0,1-1-.85h0a4.33,4.33,0,0,1-.38-.34.29.29,0,0,1-.08.13c-.17.18-.49.07-.68.22a.32.32,0,0,0-.13.22,18.66,18.66,0,0,1,1.76,1.11Z"/><path class="cls-43" d="M34.94,93.67l.2.28a2.75,2.75,0,0,1,.59-.54l-.24-.32-.27-.33a4.31,4.31,0,0,1-.35-.47.86.86,0,0,1-.13-.2l.08.08-.21-.29a.62.62,0,0,1-.22.26,1.53,1.53,0,0,1-.48.11,11.77,11.77,0,0,1,.89,1.21Z"/><path class="cls-43" d="M35.92,93.28A3.38,3.38,0,0,1,36.5,93s0-.05,0-.08-.1-.36-.14-.59a4.5,4.5,0,0,1-.09-.61,1.94,1.94,0,0,1,0-.24v0a.56.56,0,0,1-.41-.14.75.75,0,0,0-.74,0c.26.61.64,1.45.85,2Z"/><path class="cls-44" d="M35.11,94h0Z"/><path class="cls-43" d="M34.51,96.87a3.26,3.26,0,0,1-.12-.76h0c-.22,0-.48,0-.76,0h-.26c-.26,0-.5,0-.68,0l-.18,0h-.17l-.12.17a.62.62,0,0,0-.06.56h0l2.21.07A.39.39,0,0,1,34.51,96.87Z"/><path class="cls-43" d="M35.54,98.51l.05,0a3.77,3.77,0,0,1-.56-.57A.24.24,0,0,1,35,98a.35.35,0,0,1-.06.09c-.15.11-.35.23-.57.38l-.58.36a1.23,1.23,0,0,1-.25.14,1.24,1.24,0,0,1,.23-.17l.29-.2-.63.38c0,.17,0,.36.06.51s.23.2.4.23l1.33-1A1.76,1.76,0,0,1,35.54,98.51Z"/><path class="cls-44" d="M41.6,99l.18.15v0l-.06,0Z"/><path class="cls-43" d="M39.94,98.07a2.72,2.72,0,0,1-.56.51,1.56,1.56,0,0,1,.16.2h0a1.16,1.16,0,0,1,.22.31l.23.39h0l.43.73a.53.53,0,0,1,.06-.1c.24-.24.71,0,1-.23a.16.16,0,0,0,.06-.08c-.45-.49-1.05-1.18-1.43-1.58A1.22,1.22,0,0,1,39.94,98.07Z"/><path class="cls-44" d="M37.64,91.26h0v0Z"/><path class="cls-43" d="M40.7,96.36a3.82,3.82,0,0,1-.15.67l.08,0,.31.16a2.38,2.38,0,0,1-.3-.18,9.15,9.15,0,0,1,.94.47l.6.33.1,0a.77.77,0,0,1,0-.15c.09-.25.41-.39.52-.61Z"/><path class="cls-43" d="M40.09,97.89l.23.17,0,0,.7.49.7.51.07,0c.11-.08.24-.13.36-.2-.57-.5-1.25-1.19-1.76-1.59A2.77,2.77,0,0,1,40.09,97.89Z"/><path class="cls-43" d="M36.47,99l0-.06a3.19,3.19,0,0,1-.58-.3v0l-.14.17-.36.41-.41.4a.93.93,0,0,1-.18.16l0-.06-.25.27c.12.25,0,.63.21.83a.38.38,0,0,0,.13.09c.45-.6,1.05-1.38,1.48-1.86A.24.24,0,0,1,36.47,99Z"/><path class="cls-43" d="M37.74,99.16a.34.34,0,0,1,0,.14.78.78,0,0,1,0,.34c0,.14,0,.28-.06.44s0,.39-.07.55,0,.42-.06.61a1.7,1.7,0,0,0,.39.27.65.65,0,0,0,.59-.18c0-.71-.08-1.6-.05-2.24l0,.08a.21.21,0,0,1,0-.06,1.19,1.19,0,0,1,.11.26c.06.16.13.38.21.63,0,.06,0,.13,0,.2.08.26.15.53.2.78a.54.54,0,0,1,.25-.06c.2,0,.4.13.59.15a14.11,14.11,0,0,1-.78-2.36A3.28,3.28,0,0,1,37.74,99.16Z"/><path class="cls-43" d="M37.43,99.17h0a3.28,3.28,0,0,1-1-.19s0,0,0,0v0c.07,0,.09.12.08.19a.44.44,0,0,1,0,.1.94.94,0,0,1-.06.29,2.87,2.87,0,0,1-.19.4,4.7,4.7,0,0,1-.39.69,2.53,2.53,0,0,1-.15.22l.12,0c.31.12.48.58.81.54h0c.19-.62.39-1.47.58-2A.6.6,0,0,1,37.43,99.17Z"/><path class="cls-43" d="M40.18,94.23l.11-.1a.5.5,0,0,1,.15-.14,2.9,2.9,0,0,1,.29-.19,5.42,5.42,0,0,1,.55-.3l.21-.1.2-.11h0c-.2-.31.05-.78-.18-1.06l0,0c-.58.43-1.33.92-2,1.31A3.16,3.16,0,0,1,40.18,94.23Z"/><path class="cls-43" d="M40.68,95.48a2.92,2.92,0,0,1,0,.51v.1h.4c.19,0,.45,0,.75,0l.7.07c0-.21.31-.31.39-.52a.45.45,0,0,0,0-.32c-.68,0-1.6.1-2.16.11Z"/><path class="cls-43" d="M39.91,91.54,38.78,93l-.09.08a2.64,2.64,0,0,1,.7.38l0,0h0a.41.41,0,0,1,.07-.11l.18-.2c.33-.41.71-.81,1-1.15a.34.34,0,0,1-.17-.11c-.15-.14-.18-.38-.34-.48a.27.27,0,0,0-.17-.06h0A.35.35,0,0,1,39.91,91.54Z"/><path class="cls-43" d="M40.61,95.15l.09,0,.22-.1.54-.21.55-.19a.86.86,0,0,1,.23-.06l-.08,0,.29-.1a1.26,1.26,0,0,0-.05-.67.69.69,0,0,0-.11-.13,15.91,15.91,0,0,1-2,.75A3.41,3.41,0,0,1,40.61,95.15Z"/><path class="cls-44" d="M42.56,96.26h0l-.24,0Z"/><path class="cls-44" d="M36.52,92.92a.64.64,0,0,0,0,.07h0a.5.5,0,0,1-.05-.13S36.52,92.9,36.52,92.92Z"/><path class="cls-10" d="M39.4,93.42s0,0,0,0l0,0Z"/><path class="cls-44" d="M40.24,94.31a.16.16,0,0,1,0-.1.2.2,0,0,1,0-.08.52.52,0,0,0-.11.1Z"/><path class="cls-10" d="M42.28,97.91v0l-.1,0Z"/><path class="cls-10" d="M40.32,98.06l-.22-.17v0Z"/><path class="cls-10" d="M40.41,100.21l0,0v0L40,99.5C40.17,99.77,40.31,100,40.41,100.21Z"/><path class="cls-44" d="M37.67,99.16a.25.25,0,0,1,.11.12s0,0,0,0a.24.24,0,0,0,0-.14Z"/><path class="cls-44" d="M36.49,99a.43.43,0,0,1,.06.22v.07a.44.44,0,0,0,0-.1C36.58,99.13,36.56,99,36.49,99Z"/><path class="cls-10" d="M35.85,98.66h0a1.44,1.44,0,0,1-.12.17l0,0,.14-.16Z"/><path class="cls-10" d="M34.53,95a.27.27,0,0,1-.12,0l-.09,0,.19.06A.14.14,0,0,0,34.53,95Z"/><path class="cls-10" d="M35.77,93.38a1,1,0,0,1-.18-.17l-.11-.12c.09.12.18.23.24.32Z"/><path class="cls-10" d="M36.74,92.93h0v-.08A.22.22,0,0,1,36.74,92.93Z"/><path class="cls-10" d="M37.54,92.83h0c0-.13,0-.36,0-.63l0,.58Z"/><path class="cls-44" d="M38.54,92.87a.36.36,0,0,0,0,.11l.17.06.09-.08,1.13-1.42a.33.33,0,0,0,.1-.23v0c-.21,0-.44.09-.64,0l-.15,0c-.06.17-.15.44-.26.74a7.61,7.61,0,0,1-.39.93,8.22,8.22,0,0,1,.33-1c.11-.3.22-.57.29-.74h0Z"/><path class="cls-44" d="M40,92.76l.49-.52a2.09,2.09,0,0,1,.22-.2,2.11,2.11,0,0,1-.19.23L40,92.8c-.19.2-.36.39-.49.51a.26.26,0,0,0-.08.13l.07,0a23.33,23.33,0,0,0,2-1.3.49.49,0,0,0-.18-.11h0c-.19-.07-.42-.06-.61-.14-.32.34-.7.74-1,1.15Z"/><path class="cls-44" d="M41.52,93.4a1.64,1.64,0,0,1-.22.14l-.54.31c-.21.13-.41.23-.47.38a.31.31,0,0,0,0,.13l.05.08a15.77,15.77,0,0,0,2-.74c-.19-.15-.46-.21-.6-.41l-.19.11S41.52,93.39,41.52,93.4Z"/><path class="cls-44" d="M42,94.65l-.55.21-.55.19a.86.86,0,0,1-.23.06h0l-.1,0a3.38,3.38,0,0,1,.08.34h.08l2.17-.11a1,1,0,0,0-.13-.23,1.58,1.58,0,0,1-.33-.48,1.1,1.1,0,0,1,0-.18l-.29.09Z"/><path class="cls-44" d="M41.86,96.2l-.75,0-.3,0a1,1,0,0,1,.24,0l-.28,0h-.05a2.45,2.45,0,0,1,0,.27c.59.23,1.45.53,2.12.78a.28.28,0,0,0,0-.15c0-.27-.31-.47-.3-.73l-.24,0Z"/><path class="cls-44" d="M40.94,97.23l-.31-.15-.08,0a2.88,2.88,0,0,1-.13.31c.52.4,1.19,1.09,1.77,1.59a.44.44,0,0,0,.17-.16c.14-.25,0-.54-.07-.82l-.73-.38Z"/><path class="cls-44" d="M41,98.62c-.28-.19-.53-.37-.7-.51l-.26-.19-.13.15a1.15,1.15,0,0,0,.14.17c.39.4,1,1.09,1.44,1.58.1-.17.08-.42.2-.59a.17.17,0,0,1,.06-.06L41.6,99Z"/><path class="cls-44" d="M40,99.52l-.23-.4a1.17,1.17,0,0,0-.19-.3.25.25,0,0,0-.22,0s-.06.06-.07,0,0,0,.06-.07a.23.23,0,0,1,.23,0,1.56,1.56,0,0,0-.16-.2l-.18.12a15.18,15.18,0,0,0,.78,2.37.39.39,0,0,0,.26-.06c.2-.15.12-.47.19-.71l0-.07Z"/><path class="cls-44" d="M39.05,100.63a.86.86,0,0,1,.05.27,1.14,1.14,0,0,1-.09-.26l-.18-.63c-.07-.24-.13-.45-.19-.64a1,1,0,0,0-.06-.2l0-.08c0,.63,0,1.52.05,2.24a3.17,3.17,0,0,1,.54-.36c0-.25-.12-.51-.2-.78A4,4,0,0,1,39.05,100.63Z"/><path class="cls-44" d="M37.64,100.86a2,2,0,0,1-.06.32,1.83,1.83,0,0,1,0-.33c0-.2.06-.48.1-.78l.06-.43a.61.61,0,0,0,0-.33.28.28,0,0,0-.12-.14h-.19a.6.6,0,0,0-.13.25c-.2.58-.39,1.43-.58,2,.23,0,.37-.33.61-.34a.44.44,0,0,1,.29.11c0-.19,0-.4.06-.61C37.67,100.71,37.65,100.79,37.64,100.86Z"/><path class="cls-44" d="M36.25,100c.07-.14.14-.27.19-.39a1,1,0,0,0,.07-.33.59.59,0,0,0,0-.23.24.24,0,0,0-.12.07c-.43.48-1,1.26-1.48,1.86.24.09.58-.07.87,0l.14-.24C36,100.49,36.12,100.25,36.25,100Z"/><path class="cls-44" d="M34.78,99.76l.51-.54c.25-.27.46-.5.54-.57l-.22-.15a3,3,0,0,1-.27.23A1.36,1.36,0,0,1,35,99a1.64,1.64,0,0,1,.31-.28l.24-.18a1.72,1.72,0,0,0-.37.22l-1.32,1c.23,0,.49,0,.63.23l.06.08Z"/><path class="cls-44" d="M34.28,98.42l.57-.36a.18.18,0,0,0,.07-.08.11.11,0,0,0,0-.08c0-.05-.05-.05,0-.06s0,0,.06,0A.14.14,0,0,1,35,98v0a.2.2,0,0,0,.09-.09l-.11-.15-.13,0c-.6.16-1.51.5-2.22.76.23.16.63.09.78.34l0,.1L34,98.6Z"/><path class="cls-44" d="M33.61,97.33l.38-.1.31-.09a.63.63,0,0,0,.24-.16.28.28,0,0,1,0,.07l-.09.08,0,0a.23.23,0,0,0,.12-.06l-.06-.18a.26.26,0,0,0-.15,0l-2.21-.07c.1.17.34.25.43.43a.53.53,0,0,1,0,.37l.56-.13Z"/><path class="cls-44" d="M32.4,96h.28l.68,0h1a1.27,1.27,0,0,1-.28,0h-.41a6.24,6.24,0,0,0,.75,0h0v-.26h0A9.43,9.43,0,0,0,32.17,95a.26.26,0,0,0,.17.29h0a.28.28,0,0,1,.15.4,1.35,1.35,0,0,1-.17.34h.17Z"/><path class="cls-44" d="M32.67,94.37l.29.13.23.11.63.26a4,4,0,0,0,.59.16.23.23,0,0,0,.12,0h0a1.59,1.59,0,0,1,.07-.2l-.43-.23a3.67,3.67,0,0,1-.53-.34,3.71,3.71,0,0,1,.56.29l.18.11a18,18,0,0,0-1.76-1.12,4,4,0,0,1,0,.69.42.42,0,0,1-.06.14l.13,0S32.66,94.37,32.67,94.37Z"/><path class="cls-44" d="M33.74,93.08a.86.86,0,0,1,.2.18l.49.44c.19.16.38.3.51.4l.05,0a1.67,1.67,0,0,1,.12-.16h0l-.21-.27a2,2,0,0,1-.27-.44.68.68,0,0,1,.17.21,11.9,11.9,0,0,0-.89-1.22.38.38,0,0,0-.24.13c-.12.15-.08.39-.14.57l.38.33A1.56,1.56,0,0,1,33.74,93.08Z"/><path class="cls-44" d="M35.26,92.73c.28.35.51.63.51.65l.15-.1v0c-.21-.54-.59-1.37-.85-2a.34.34,0,0,0-.12.06c-.18.11-.24.35-.34.55l.21.29Z"/><path class="cls-44" d="M36.23,91.48a1,1,0,0,1,.06.25c0,.15.06.36.11.59s.08.39.11.54,0,.09.05.13l.18-.06a2.25,2.25,0,0,1-.06-.36,1.64,1.64,0,0,1,0-.38,1,1,0,0,1,.1.37c0,.07,0,.14,0,.2,0-.58,0-1.32,0-1.9a3.18,3.18,0,0,0-.31.46.36.36,0,0,1-.23.13v0Z"/><path class="cls-44" d="M37.64,92.08c0,.32,0,.6,0,.75h.22a2,2,0,0,0,.25-.62c.09-.39.23-1,.34-1.48a.66.66,0,0,0-.2.06c-.17.1-.38.51-.49.51a.14.14,0,0,1-.1,0v0C37.64,91.44,37.64,91.74,37.64,92.08Z"/><path class="cls-45" d="M40.93,95.05l.55-.19.55-.21.13-.06.08,0a.86.86,0,0,0-.23.06l-.55.19-.54.21-.22.1h0A.86.86,0,0,0,40.93,95.05Z"/><path class="cls-45" d="M41.12,96.11h-.07a1,1,0,0,0-.24,0,1,1,0,0,0,.3,0l.75.06.46,0,.24,0v0h0c-.18,0-.43,0-.7-.07S41.31,96.11,41.12,96.11Z"/><path class="cls-45" d="M41.58,97.52a9.15,9.15,0,0,0-.94-.47,2.38,2.38,0,0,0,.3.18c.16.1.38.21.62.34l.72.38v0l-.1-.06Z"/><path class="cls-46" d="M37.58,101.18a1.3,1.3,0,0,0,.07-.33c0-.06,0-.14,0-.22s0-.35.08-.56,0-.29.05-.43a.57.57,0,0,0,0-.34v0a.25.25,0,0,0-.11-.12h.07a3.21,3.21,0,0,0,1.46-.46l.17-.12a3.06,3.06,0,0,0,.57-.51l.13-.15.25.19.7.51.57.4.14.1.06,0,0,0-.06,0-.7-.51c-.28-.19-.52-.37-.71-.49l0,0a1.83,1.83,0,0,0-.24-.15v0a2.77,2.77,0,0,0,.33-.55,2.88,2.88,0,0,0,.13-.31,3.82,3.82,0,0,0,.15-.67,2.45,2.45,0,0,0,0-.27V96a3.4,3.4,0,0,0-.11-.84,3,3,0,0,0-.3-.71l0-.08a.22.22,0,0,1,0-.14c.06-.14.27-.24.47-.37l.54-.32a1,1,0,0,0,.22-.14h0l-.21.1c-.14.07-.33.17-.54.3a1.62,1.62,0,0,0-.29.19.5.5,0,0,0-.15.14.2.2,0,0,0,0,.08.3.3,0,0,0,0,.1l-.05-.08a3.47,3.47,0,0,0-.69-.74l-.07,0a.26.26,0,0,1,.08-.13c.13-.12.3-.31.49-.51l.47-.53a2.11,2.11,0,0,0,.19-.23,2.09,2.09,0,0,0-.22.2c-.12.13-.3.31-.48.52s-.21.23-.3.33l-.18.2a.41.41,0,0,0-.07.11h0v0h0a3.36,3.36,0,0,0-.7-.37L38.52,93a3.12,3.12,0,0,0-.69-.13l-.22,0c0-.14,0-.42,0-.74s0-.64,0-.78v0h0a7.55,7.55,0,0,0,0,.83v.75h0a3.34,3.34,0,0,0-.78.11h0s0-.06,0-.09v-.09a1.68,1.68,0,0,0,0-.2,1,1,0,0,0-.1-.37,1.58,1.58,0,0,0,0,.38,2.38,2.38,0,0,0,.06.37l-.18,0h0a.31.31,0,0,0,0-.08s0,0,0-.06l-.11-.53c0-.23-.08-.45-.11-.6a1.14,1.14,0,0,0-.06-.25h0a2.11,2.11,0,0,0,0,.25c0,.15.05.37.09.6s.1.45.14.59l0,.08a2.8,2.8,0,0,0-.58.27l-.16.1s-.22-.3-.5-.65-.35-.44-.44-.56-.08-.09-.09-.08a1.37,1.37,0,0,0,.13.2c.08.13.21.29.35.47l.27.33.11.12a1.37,1.37,0,0,0,.17.17l0,0a3.06,3.06,0,0,0-.6.54L35,93.66l-.15-.19a.87.87,0,0,0-.17-.21,2,2,0,0,0,.27.44l.21.27h0a.61.61,0,0,0-.12.16l0,0a6.09,6.09,0,0,1-.51-.41c-.2-.16-.37-.32-.49-.43a1.8,1.8,0,0,0-.2-.19,1.12,1.12,0,0,0,.17.21h0a5.12,5.12,0,0,0,1,.85l0,0a3.08,3.08,0,0,0-.33.59l-.24-.15-.18-.11a3.55,3.55,0,0,0-.55-.28,2.85,2.85,0,0,0,.52.33l.43.24-.07.19h0a.17.17,0,0,1-.12,0,3.1,3.1,0,0,1-.6-.15l-.14-.06c-.18-.06-.34-.14-.48-.2L33,94.49a1.3,1.3,0,0,0-.3-.13l0,0a1.45,1.45,0,0,0,.25.14,6.44,6.44,0,0,0,.7.34,3.9,3.9,0,0,0,.67.18l.1,0a.27.27,0,0,0,.12,0,.19.19,0,0,0,0,.07,3.6,3.6,0,0,0-.13.73v.27a3.36,3.36,0,0,0,.13.76,1.21,1.21,0,0,0,0,.18,3.16,3.16,0,0,0,.36.71l.11.15a3.29,3.29,0,0,0,.55.57l0,0c-.07,0-.15.11-.25.18A1.64,1.64,0,0,0,35,99a1.36,1.36,0,0,0,.35-.24,3.11,3.11,0,0,0,.28-.23l.21.15-.53.57-.51.54s0,0,0,.06a.93.93,0,0,0,.18-.16c.12-.1.25-.24.41-.4l.36-.41,0,0,.12-.16h0a3.49,3.49,0,0,0,.58.29.16.16,0,0,1,0,.07.54.54,0,0,1,0,.22.75.75,0,0,1-.07.33l-.18.4c-.14.27-.28.52-.38.69s-.11.2-.14.25h0a1.53,1.53,0,0,0,.15-.23,5.9,5.9,0,0,0,.4-.69c.07-.14.13-.27.18-.4a1,1,0,0,0,.07-.29v-.07a.73.73,0,0,0-.06-.21v0l0,0a3.05,3.05,0,0,0,1,.19h.17a.31.31,0,0,1,.12.16.65.65,0,0,1,0,.34l-.06.43c0,.3-.07.58-.09.78m-.06-2.08A2.78,2.78,0,1,1,40.33,96h0A2.77,2.77,0,0,1,37.55,98.77Z"/><path class="cls-45" d="M40,99.5h0l-.23-.39a1,1,0,0,0-.23-.31h0a.24.24,0,0,0-.23,0c-.06,0-.07.07-.06.07a.16.16,0,0,1,.07,0,.19.19,0,0,1,.21,0,1.21,1.21,0,0,1,.2.3c.07.12.15.25.22.39l.42.71.05.07s0,0,0,0l0,0C40.31,100,40.17,99.77,40,99.5Z"/><path class="cls-45" d="M38.83,100l.18.63a1.14,1.14,0,0,0,.09.26.86.86,0,0,0-.05-.27,4,4,0,0,0-.11-.44c0-.06,0-.13,0-.2-.08-.25-.15-.47-.21-.63a1.12,1.12,0,0,0-.11-.25.28.28,0,0,0,0,.06,1.81,1.81,0,0,1,.06.2C38.7,99.56,38.76,99.77,38.83,100Z"/><path class="cls-45" d="M34.94,97.89s-.06,0-.06,0,0,0,0,.06a.11.11,0,0,1,0,.08.18.18,0,0,1-.07.08l-.57.36L34,98.6l-.29.2a1.24,1.24,0,0,0-.23.17,1.23,1.23,0,0,0,.25-.14l.58-.36c.22-.14.42-.27.56-.38A.22.22,0,0,0,35,98v0A.1.1,0,0,0,34.94,97.89Z"/><path class="cls-45" d="M34.5,97.05a.28.28,0,0,0,0-.07.63.63,0,0,1-.24.16l-.31.09-.38.1-.45.12-.24.07-.28.1a1.5,1.5,0,0,0,.29-.06l.69-.18.39-.1.31-.1.09-.05Z"/><path class="cls-45" d="M34.31,96.06h-1l-.67,0H32.4l.09,0,.18,0c.18,0,.42,0,.68,0H34A1.33,1.33,0,0,0,34.31,96.06Z"/><path class="cls-45" d="M38.57,92.94A7.55,7.55,0,0,0,39,92c.11-.3.21-.57.27-.75h0c-.08.17-.18.44-.29.74A8.22,8.22,0,0,0,38.57,92.94Z"/><circle class="cls-47" cx="37.55" cy="95.99" r="2.78"/><path class="cls-45" d="M37.25,101.2s.15,2.27.3,5.06.25,5.07.24,5.07-.15-2.27-.3-5.06S37.23,101.2,37.25,101.2Z"/><path class="cls-44" d="M37.77,94.43l.39.8a.18.18,0,0,0,.1.07l.87.12a.14.14,0,0,1,.11.16.15.15,0,0,1,0,.07l-.63.61a.11.11,0,0,0,0,.12l.15.87a.13.13,0,0,1-.11.15.1.1,0,0,1-.09,0L37.71,97a.13.13,0,0,0-.12,0l-.78.41a.13.13,0,0,1-.18,0,.1.1,0,0,1,0-.09l.14-.87a.13.13,0,0,0,0-.12l-.64-.61a.14.14,0,0,1,0-.19l.07,0L37,95.3a.18.18,0,0,0,.1-.07l.39-.8a.13.13,0,0,1,.18-.05A.1.1,0,0,1,37.77,94.43Z"/><polygon class="cls-48" points="89.11 17.91 89.78 19.56 91.56 19.69 90.2 20.84 90.63 22.58 89.11 21.64 87.59 22.58 88.02 20.84 86.65 19.69 88.44 19.56 89.11 17.91"/><polygon class="cls-49" points="61.1 9.77 61.64 11.18 63.08 11.29 61.98 12.27 62.33 13.74 61.1 12.94 59.87 13.74 60.21 12.27 59.1 11.29 60.55 11.18 61.1 9.77"/><polygon class="cls-50" points="136.63 11.76 137.18 13.16 138.62 13.28 137.51 14.26 137.86 15.73 136.63 14.93 135.4 15.73 135.75 14.26 134.64 13.28 136.08 13.16 136.63 11.76"/><polygon class="cls-49" points="90.65 28.13 91.07 29.17 92.18 29.25 91.33 29.97 91.59 31.06 90.65 30.47 89.7 31.06 89.97 29.97 89.11 29.25 90.22 29.17 90.65 28.13"/><polygon class="cls-49" points="152.11 10.69 152.53 11.72 153.65 11.8 152.79 12.52 153.06 13.61 152.11 13.02 151.16 13.61 151.43 12.52 150.57 11.8 151.69 11.72 152.11 10.69"/><polygon class="cls-51" points="80.51 12.15 81.18 13.8 82.96 13.93 81.6 15.08 82.03 16.81 80.51 15.87 78.99 16.81 79.42 15.08 78.05 13.93 79.84 13.8 80.51 12.15"/><polygon class="cls-50" points="80.51 23.02 81.46 25.35 83.97 25.53 82.04 27.15 82.64 29.59 80.51 28.27 78.37 29.59 78.98 27.15 77.05 25.53 79.56 25.35 80.51 23.02"/><polygon class="cls-51" points="54.2 17.65 54.95 19.49 56.93 19.63 55.41 20.91 55.89 22.83 54.2 21.79 52.52 22.83 52.99 20.91 51.48 19.63 53.45 19.49 54.2 17.65"/><polygon class="cls-52" points="70.49 14.92 71.36 17.04 73.67 17.21 71.89 18.68 72.45 20.89 70.49 19.68 68.52 20.89 69.07 18.68 67.3 17.21 69.61 17.04 70.49 14.92"/><polygon class="cls-52" points="136.63 19.33 137.09 20.43 138.29 20.52 137.37 21.29 137.66 22.45 136.63 21.82 135.6 22.45 135.89 21.29 134.96 20.52 136.17 20.43 136.63 19.33"/><polygon class="cls-48" points="180.29 34.83 180.99 36.56 182.85 36.7 181.43 37.9 181.88 39.72 180.29 38.73 178.7 39.72 179.15 37.9 177.72 36.7 179.59 36.56 180.29 34.83"/><polygon class="cls-49" points="176.37 23.71 177.09 25.55 178.97 25.7 177.52 26.98 177.98 28.91 176.37 27.85 174.76 28.91 175.22 26.98 173.77 25.7 175.66 25.55 176.37 23.71"/><polygon class="cls-50" points="169.77 15.05 170.48 16.89 172.37 17.04 170.92 18.32 171.38 20.25 169.77 19.2 168.16 20.25 168.61 18.32 167.16 17.04 169.05 16.89 169.77 15.05"/><polygon class="cls-50" points="15.38 25.01 16.09 26.85 17.98 27 16.53 28.28 16.98 30.21 15.38 29.16 13.77 30.21 14.22 28.28 12.77 27 14.66 26.85 15.38 25.01"/><polygon class="cls-48" points="19.07 15.72 19.37 16.49 20.16 16.56 19.55 17.09 19.74 17.9 19.07 17.46 18.39 17.9 18.58 17.09 17.98 16.56 18.77 16.49 19.07 15.72"/><polygon class="cls-50" points="41.83 14.94 42.19 15.86 43.13 15.93 42.41 16.57 42.63 17.53 41.83 17.01 41.03 17.53 41.25 16.57 40.53 15.93 41.47 15.86 41.83 14.94"/><polygon class="cls-49" points="189.11 13.84 189.66 15.19 191.12 15.3 190 16.24 190.35 17.66 189.11 16.89 187.87 17.66 188.22 16.24 187.1 15.3 188.56 15.19 189.11 13.84"/><polygon class="cls-48" points="143.06 13.9 143.74 15.56 145.52 15.69 144.15 16.84 144.59 18.57 143.06 17.63 141.54 18.57 141.98 16.84 140.61 15.69 142.39 15.56 143.06 13.9"/><polygon class="cls-50" points="187.11 23.3 187.98 25.43 190.27 25.6 188.51 27.08 189.06 29.31 187.11 28.1 185.15 29.31 185.71 27.08 183.95 25.6 186.24 25.43 187.11 23.3"/><polygon class="cls-51" points="20.83 35.56 21.62 37.49 23.69 37.63 22.1 38.97 22.6 40.99 20.83 39.9 19.07 40.99 19.56 38.97 17.98 37.63 20.05 37.49 20.83 35.56"/><polygon class="cls-52" points="27.86 19.81 29 22.57 32.01 22.79 29.7 24.71 30.43 27.61 27.86 26.03 25.29 27.61 26 24.71 23.69 22.79 26.72 22.57 27.86 19.81"/><polygon class="cls-52" points="179.29 11.56 179.9 13.04 181.52 13.16 180.28 14.19 180.67 15.75 179.29 14.9 177.91 15.75 178.29 14.19 177.06 13.16 178.68 13.04 179.29 11.56"/></svg>