<svg xmlns="http://www.w3.org/2000/svg" xmlns:xlink="http://www.w3.org/1999/xlink" viewBox="0 0 1303.15 1057.31"><defs><style>.cls-1,.cls-19,.cls-29,.cls-33{fill:none;}.cls-2{clip-path:url(#clip-path);}.cls-3{fill:#404f80;}.cls-4{fill:#f8e494;opacity:0.51;}.cls-5{fill:#231f20;}.cls-6{fill:#797979;}.cls-14,.cls-7{fill:#f9f2df;}.cls-8{fill:#273339;}.cls-9{fill:#8a3427;}.cls-10{fill:#383838;}.cls-11{fill:#919191;}.cls-12{fill:#4a1611;}.cls-13,.cls-21{fill:#fff;}.cls-14,.cls-19,.cls-21{stroke:#231f20;stroke-width:1.47px;}.cls-14,.cls-19,.cls-21,.cls-24,.cls-27,.cls-28,.cls-29,.cls-33,.cls-44,.cls-45{stroke-miterlimit:10;}.cls-15{fill:#956243;}.cls-16,.cls-24,.cls-27,.cls-28{fill:#151210;}.cls-17{fill:#010101;}.cls-18{fill:#684133;}.cls-20{fill:#ffd215;}.cls-22{fill:#31160e;}.cls-23{fill:#653c29;}.cls-24,.cls-27,.cls-28,.cls-29{stroke:#161311;}.cls-24{stroke-width:0.5px;}.cls-25{fill:#13110f;}.cls-26{fill:#ce8d2a;}.cls-27{stroke-width:0.49px;}.cls-28{stroke-width:0.51px;}.cls-29{stroke-width:1.2px;}.cls-30{fill:#18343f;}.cls-31{fill:#dbad63;}.cls-32{fill:#a06c29;}.cls-33{stroke:#777;stroke-width:1.23px;}.cls-34{fill:#777;}.cls-35{fill:#ec9a6f;}.cls-36{fill:#343535;}.cls-37{fill:#070808;}.cls-38{clip-path:url(#clip-path-2);}.cls-39{fill:#1c3b53;}.cls-40{fill:#1a305a;}.cls-41{fill:#262626;}.cls-42{fill:#653c2a;}.cls-43{fill:#82a8b3;}.cls-44,.cls-45{fill:#557c81;stroke:#557c81;}.cls-44{stroke-width:1.11px;}.cls-45{stroke-width:1.16px;}.cls-46{fill:#825639;}.cls-47{fill:#161312;}.cls-48{fill:#171514;}.cls-49{fill:#181615;}.cls-50{fill:#714534;}.cls-51{fill:#191716;}.cls-52{fill:#040404;}.cls-53{fill:#513835;}.cls-54{fill:#745245;}</style><clipPath id="clip-path"><rect class="cls-1" x="-0.41" width="1303.55" height="1056.41"/></clipPath><clipPath id="clip-path-2"><polygon class="cls-1" points="752.18 -2.28 1302.14 734.38 1303.15 0 752.18 -2.28"/></clipPath></defs><g id="Layer_14" data-name="Layer 14"><g class="cls-2"><rect class="cls-3" x="-625.08" y="-192" width="2051.63" height="1441.91"/><polygon class="cls-4" points="320.55 107.45 324.33 119.08 336.56 119.08 326.67 126.27 330.45 137.9 320.55 130.71 310.66 137.9 314.44 126.27 304.54 119.08 316.77 119.08 320.55 107.45"/><polygon class="cls-4" points="247.73 48.64 250.18 56.18 258.11 56.18 251.7 60.84 254.15 68.38 247.73 63.72 241.32 68.38 243.77 60.84 237.35 56.18 245.28 56.18 247.73 48.64"/><polygon class="cls-4" points="914.73 -1.07 918.29 9.88 929.81 9.88 920.49 16.65 924.05 27.6 914.73 20.83 905.42 27.6 908.98 16.65 899.66 9.88 911.17 9.88 914.73 -1.07"/><polygon class="cls-4" points="486.89 50.31 490.54 61.55 502.36 61.55 492.8 68.5 496.45 79.74 486.89 72.79 477.33 79.74 480.98 68.5 471.42 61.55 483.24 61.55 486.89 50.31"/><g id="freepik--Characters--inject-342"><path class="cls-5" d="M319.32,481.09l-60.38-46.63-94.81-323.2L34.64,94,95.25,331.24H-613.28l60.7-237.48-128,17.27-97.61,327.89L-842,481.09ZM52.14,111l90.39,7.66L225,407.74l-99.12-76.9h-5.35Zm-715.51,7.66,93.42-7.66-73.87,236.11,2.49.85-103.84,68.93Z"/><path class="cls-6" d="M136.21,495.29,125.84,347.14A67.24,67.24,0,0,0,58.78,284.8H-77.35a67.19,67.19,0,0,0-67,62.34l-10.42,148.15Z"/><path class="cls-7" d="M299.56,506.49a1.85,1.85,0,0,1,.24-.73c-1.39-5,13.6-20.56,17.88-23.43,13.92-9.3-7.21-23.39-13.11-31.23-6.59-8.76-12.07-18.26-18.42-27.19-5.16-7.27-11.86-14-16.07-21.86-26.93-50.44-38.58-47.7-45.66-52.53-13.8-9.19-95.88-28.18-95.88-28.18l-123,1.39s-87.62,23-93.87,31.7c-15.26,19-35.63,45.56-45.18,67.95-1.43,3.5-20.72,35.63-22.19,39.12-15.45,37.57-1.1,63.64,2.58,69.3l455.52-.09C300.18,522.77,298.67,514.69,299.56,506.49Z"/><polygon class="cls-5" points="136.97 457.98 127.66 446.04 31.34 506.47 -37.77 506.47 -133.42 452.01 -141.39 460.65 -94.32 527.35 83 527.35 136.97 457.98"/><path class="cls-5" d="M-93.16,525.13H81.89L134.12,458l-7-8.91L32.5,508.43a2.22,2.22,0,0,1-1.15.35H-37.77a1.8,1.8,0,0,1-1.06-.31L-133,455l-5.48,5.79Z"/><path class="cls-8" d="M206,515.46a2.29,2.29,0,0,1-1.29-.4,2.22,2.22,0,0,1-.53-3.07,35.06,35.06,0,0,0,3.87-7.44,2.24,2.24,0,0,1,4.19,1.56,40.5,40.5,0,0,1-4.46,8.37A2.2,2.2,0,0,1,206,515.46Z"/><path class="cls-8" d="M113.15,499.92a2.23,2.23,0,0,1-.94-4.23l34.6-15.36a2.23,2.23,0,0,1,1.78,4.1L114,499.74A2.28,2.28,0,0,1,113.15,499.92Z"/><path class="cls-8" d="M152.82,482.33a2.18,2.18,0,0,1-2-1.33,2.23,2.23,0,0,1,1.11-2.94l6.86-3a2.22,2.22,0,0,1,2.93,1.15h0a2.28,2.28,0,0,1-1.11,2.94l-6.86,3A2.34,2.34,0,0,1,152.82,482.33Z"/><path class="cls-5" d="M295.9,819.92v281.25H-803.64V819.92h-286.67V1231c0,32,105.92,57.89,137.89,57.89h91.24A57.89,57.89,0,0,0-803.29,1231h0v-19h100.15l46.89-29.84H144.63l59.8,34.07h91.65V1231A57.89,57.89,0,0,0,354,1288.87H444.9A57.89,57.89,0,0,0,502.79,1231h0V819.92Z"/><path class="cls-5" d="M444.9,1290.91H353.66A60,60,0,0,1,293.5,1231v-12.56H204.43a2.16,2.16,0,0,1-1.06-.26l-59.19-33.8H-655.94l-46.35,29.34a2.16,2.16,0,0,1-1.2.36h-98v16.74a60,60,0,0,1-59.94,59.94h-91.2c-33.08,0-139.89-26.85-139.93-59.94V819.92a2.22,2.22,0,0,1,2.22-2.23h286.67a2.22,2.22,0,0,1,2.22,2.23v279H293.49v-279a2.23,2.23,0,0,1,2.23-2.23H502.79a2.22,2.22,0,0,1,2.22,2.23V1231a60,60,0,0,1-60.11,59.93Zm-240-76.9h91a2.23,2.23,0,0,1,2.23,2.23V1231a55.57,55.57,0,0,0,55.53,55.48H444.9A55.57,55.57,0,0,0,500.43,1231V822.14H298v279a2.23,2.23,0,0,1-2.23,2.23H-803.64a2.23,2.23,0,0,1-2.23-2.23v-279h-282.21V1231c0,30.63,104.85,55.46,135.48,55.48h91.25A55.52,55.52,0,0,0-805.87,1231v-19a2.23,2.23,0,0,1,2.23-2.23H-704l46.31-29.48a2,2,0,0,1,1.2-.35h801.1a2.23,2.23,0,0,1,1.07.26Z"/><path class="cls-9" d="M460,617.48c-7.66-15.32-63.54-73.65-74.76-85.32a22.14,22.14,0,0,1-3.3-4.45c-13.67-26.1-129.63-337.19-150-375-37.27-69.55-67.24-59.09-107.09-64.16C123.7,88.55,19.44,80,18.24,80L-181.2,73.27a1486.61,1486.61,0,0,0-149.58,0L-576.45,85.56C-644.8,89-710.66,84.63-748.2,152.62c-20.84,37.68-136.31,348.77-150,375a21.14,21.14,0,0,1-3.3,4.45c-11.31,11.71-147.1,70-154.76,85.32-8.51,17-42.62,81-42.62,93.51,0,11,7.93,193.35,43,336.21,10.16,42.81,122.6,76.83,164.88,89a29.84,29.84,0,0,0,6.41,1.34h265.45a20.08,20.08,0,0,0,17.36-10L-539,1018.92a19.71,19.71,0,0,1,4.81-5.56,150.73,150.73,0,0,1,92.93-31.49H-74.73A151.13,151.13,0,0,1,18,1013.36a20.47,20.47,0,0,1,4.76,5.56L85.54,1127.4a20.09,20.09,0,0,0,17.37,10H368.35a29.84,29.84,0,0,0,6.41-1.34,121.92,121.92,0,0,0,84.88-88.66c35-142.85,43-325.07,43-336.2C502.79,698.44,468.5,634.54,460,617.48ZM-842,481.09C-788.59,376.71-688.62,129.2-688.62,129.2c346-34.73,630.83-26.47,769.85-15.7,57.07,4.42,93.15,13.56,93.15,13.56h0a275.6,275.6,0,0,1,39.56,71.44L319.28,481.09C-11,449.16-842,481.09-842,481.09Z"/><path class="cls-6" d="M-607.58,1137.42l-14.91,34.06H102l-10.64-34.06L21.06,1015.94s-27.7-32-95.88-34.07-366.52,0-366.52,0a141.87,141.87,0,0,0-95.88,34.07Z"/><path class="cls-10" d="M-545.81,732.55S-488.28,835-471.22,851.89s36.24,17,59.67,19.15,345.2,0,345.2,0,25.56-4.45,38.38-23.42,55.4-115.07,55.4-115.07Z"/><path class="cls-5" d="M383.27,530.11S393.91,447,413.1,447s104.43,23.42,106.52,40.48-16.83,36-34.07,40.48-53.43,8.55-53.43,8.55l-8.55,31.92Z"/><path class="cls-5" d="M423.75,570.68a2.13,2.13,0,0,1-1.52-.58l-40.48-38.38a2.14,2.14,0,0,1-.71-1.87c1.11-8.91,11.53-85.06,32.06-85.06,18.22,0,106.34,23.34,108.75,42.44,2.27,18.26-17.82,38.39-35.63,42.93-15.23,3.78-44.93,7.52-52.05,8.37L426,569a2.23,2.23,0,0,1-1.52,1.61Z"/><path class="cls-6" d="M142.09,721.91S103.75,762.38,91,837c0,0,181.11-8.55,251.42-36.25s78.86-29.83,81-42.61-4.45-104.42-32-119.34-57.54-10.64-85.23,10.69-61.81,53.43-81,59.67S142.09,721.91,142.09,721.91Z"/><path class="cls-11" d="M277.69,722.2a50,50,0,1,0,50-50h0a49.92,49.92,0,0,0-50,49.88Z"/><path class="cls-11" d="M188.49,780.38a23.2,23.2,0,1,0,23.2-23.2h0A23.2,23.2,0,0,0,188.49,780.38Z"/><path class="cls-10" d="M370.49,911.56S172.33,949.9,163.78,956.09s-25.56,42.62-25.56,42.62l40.48-10.65s93.78,4.46,125.7-10.64S370.49,911.56,370.49,911.56Z"/><path class="cls-12" d="M272.12,518.58a2.05,2.05,0,0,1-.89-4c5.48-3.16,11-6.1,16.48-8.91a2.23,2.23,0,0,1,1.91,4c-5.34,2.58-10.78,5.48-16.16,8.59A2.51,2.51,0,0,1,272.12,518.58Z"/><path class="cls-12" d="M37.53,821.08a2.42,2.42,0,0,1-.93,0,2.18,2.18,0,0,1-1.09-2.89l0-.05c35.63-78.42,111.33-220.56,216.86-291.9a2.18,2.18,0,0,1,3,.53l0,.05a2.23,2.23,0,0,1-.56,3.1l0,0C150.15,600.47,75,741.72,39.67,819.78A2.24,2.24,0,0,1,37.53,821.08Z"/><path class="cls-12" d="M18.79,865.29a1.4,1.4,0,0,1-.76,0,2.23,2.23,0,0,1-1.34-2.85s2.72-7.17,7.75-19.1a2.24,2.24,0,0,1,2.91-1.22l0,0A2.22,2.22,0,0,1,28.54,845c-5,11.89-7.62,18.93-7.66,19A2.3,2.3,0,0,1,18.79,865.29Z"/><path class="cls-13" d="M354,628.7a445.71,445.71,0,0,0,12.6-70.58"/><path class="cls-12" d="M354,630.93a1.89,1.89,0,0,1-.67,0,2.19,2.19,0,0,1-1.49-2.7l0-.06A444.89,444.89,0,0,0,364.34,558a2.24,2.24,0,0,1,4.46.49,443.16,443.16,0,0,1-12.7,70.94A2.17,2.17,0,0,1,354,630.93Z"/><path class="cls-12" d="M137.24,1077a2.33,2.33,0,0,1-1.74-.81c-2-2.4-48.31-58.78-50.9-84.34-2.71-27.25,33.94-65.28,44.53-67.9s179.37-36.39,186.59-37.85a2.26,2.26,0,0,1,2.62,1.78,2.18,2.18,0,0,1-1.7,2.57h0c-1.78.36-176.48,35.31-186.41,37.81-9.26,2.31-43.55,39-41.14,63.14,2.27,22.58,43.28,73.83,49.2,81.09L414.88,1060l15-194.6a2.27,2.27,0,0,1,2.4-2,2.23,2.23,0,0,1,2.05,2.39v0l-15.14,196.6a2.23,2.23,0,0,1-2.09,2.05L137.33,1077Z"/></g><ellipse class="cls-14" cx="65.91" cy="443.89" rx="5.2" ry="3.53"/><path class="cls-15" d="M112.89,339.76a37,37,0,0,1-7.83,9.84c-3.92,3.24-.35,1.8-5.27,3.13l-.65,1.7c-3.91.88-11.06,83-15.07,82.8L58.88,354c-1.88-.24-8.3-2.33-10.09-2.79-14.8-3.78-18.88-6.3-25-20,1.39-19.88-1.75-62.39-1.75-62.39l88.92,12s2,37,3.87,41.89c.1.27,13.17,5.91,7.84,7.12C122.83,333.83,114.85,336.41,112.89,339.76Z"/><path class="cls-15" d="M87.74,318.3l29.77-3.75,14.63-4.7c1.52-.11,6.75-16,7.62-18,2.67-6.3,6.16-14.57,7.55-21.29,1.5-7.21,5.39-13.68,5.72-22.22.23-6.25-.13-10.59-4.33-20.38a14.24,14.24,0,0,1-.93-7.84c.84-5.92.72-12.74,1.67-20.65.08-.62.54-3.63.23-4.28,0,0-3-28.88-9.88-40S125.16,144,116.45,142.53s-33.61-5.75-33.61-5.75L49.1,138.89,20.84,156.08,7.53,189.2l5.79,41.46L21,267.47"/><path class="cls-16" d="M25.16,209c.46,3.2,2.19,37.73,2.83,40.84L11.31,251C5.32,240.44-1.85,228-4,225.21c-3.39-4.35-5.85-26.72-6.77-35.14l-.2-1.81c-.91-8.08,5.68-21.61,17.64-36.21C19.8,136,44.73,125.31,70.14,124.86c2.41,0,4.83,0,7.18.14,22.22,1.3,40.64,5.91,56.27,23,11.26,12.34,14,23.32,14,32.61a54.3,54.3,0,0,0-12.57-29c-7.14-11.84-15.27-7.64-20.73-8a18.22,18.22,0,0,0-8.86,1.64c-5.22,1.67-10.42,1.44-16.12,1.11-4.24-.25-7.64-.68-8.56-.8-3-1.71-7.37-2.78-12.65-3.08-12.25-.72-29.59,3-32.74,8.61-3.48,6.26-18.66,7.72-18.29,12.64"/><path class="cls-15" d="M22.67,268.16c-9,10.74-16.92-7.83-16.92-7.83C-4.51,249.74-5.4,237.69-5.67,229.43s8.79-8.81,8.79-8.81c7.76.26,11.51,4.14,19.87,29.6"/><path class="cls-16" d="M-4.63,224.14S-19,200.08-15.38,172.31s35.88-44.26,50.05-47.86S94,117.53,107,122.2s37,12.24,39.81,53.71c0,0-1.93-26.33-29.92-24.43-12.51.84-35,4-52,4.47-7.05.2-33.67-.66-36.34,3.57-6.11,9.68,6.77,28.74-2.58,58.71-3.09,9.89-19.36-9.12-23.8-2.42S-4.63,224.14-4.63,224.14Z"/><path class="cls-5" d="M16.35,245.86a67,67,0,0,0-6.9-10.35,21.66,21.66,0,0,0-4.72-4.4A6.52,6.52,0,0,0,2.14,230c-.94-.12-1.31.58-1.64,1.35-1.55,3.54-1.14,7.63,0,11.2.18.57,1.48.21,1.3-.34a16.86,16.86,0,0,1-.72-8.73,8.45,8.45,0,0,1,1.15-3l-.68.39s-.16-.07,0,0a.88.88,0,0,0,.17,0c.12,0-.07,0,.14,0a6,6,0,0,1,1.61.72,23.85,23.85,0,0,1,6.42,6.48,76.41,76.41,0,0,1,5.26,8.26c.26.48,1.51,0,1.19-.56Z"/><path class="cls-5" d="M13.36,247.56c-5.48.19-1.31,7.48-1.82,10.34,0,.06-.17.47-.16.49l0,0q-.16.22.39,0s-.19-.14-.18-.11c-.24-.46-.66-.86-.91-1.34a26.55,26.55,0,0,1-1.76-5,19.63,19.63,0,0,1-.82-6.07c.09-2.45.45-6.14,2.9-7.43.79-.41.07-.94-.54-.62-2.41,1.27-3.24,4-3.54,6.53A17,17,0,0,0,7,249.84a37.77,37.77,0,0,0,1.86,6.34c.37.93.89,2.42,1.86,2.9a1.48,1.48,0,0,0,2-.78,4.75,4.75,0,0,0,0-2.77c-.28-1.51-2.24-7.06.54-7.16.68,0,1-.84.15-.81Z"/><path class="cls-16" d="M78.59,220.07a5,5,0,0,0-5.34,1.35,4.81,4.81,0,0,0-1.3,2.37,5,5,0,0,0,1.49,4.45,4.66,4.66,0,0,0,5.39.57,5.15,5.15,0,0,0,2.11-6.13,4.62,4.62,0,0,0-2.35-2.61"/><path class="cls-16" d="M136,216.65a5,5,0,0,1,5.48.6,4.91,4.91,0,0,1,1.61,2.17,5,5,0,0,1-.87,4.62,4.63,4.63,0,0,1-5.25,1.29,5.12,5.12,0,0,1-2.93-5.78,4.55,4.55,0,0,1,2-2.9"/><path class="cls-16" d="M120.57,225s7.17-8.24,12.78-9.15c8.18-1.32,10.42.39,13.59,4,0,0-5.66-3.57-11.4-2.48C130.06,218.37,120.57,225,120.57,225Z"/><path class="cls-16" d="M91.53,224.84s-12-6.49-17.71-6.24c-8.28.35-17.79,5.91-20.18,10.05,0,0,12.49-8.07,18.32-8.16C77.55,220.4,91.53,224.84,91.53,224.84Z"/><path class="cls-16" d="M91.22,203.89q-.75,2.87-1.52,5.73c-.38,1.45-1.16,4.8-1.55,6.25-4.27-2.43-7.92-5.35-10.74-6.64C71.8,206.65,66.17,203.6,60,203a20.62,20.62,0,0,0-8.41.62c-.87.27-3.42,1.75-4.4.94-.41-.33,1-2.48,1.1-2.7,2.78-4.33,7.31-5.24,12.51-5.09,10.6.32,20.6,3.2,30.44,7.15"/><path class="cls-16" d="M147.59,190.87l-3.5.45c-9.72,1.21-18.55,4.89-27.09,9.62.71,1.83,1.43,3.67,2.14,5.52.55,1.4,1.45,4,2,5.36,3.6-2.75,6.57-5.51,9-7,4.82-3,9.87-6.26,15.49-7.4.44-.09,2.86-.54,3.29-.6C149.62,193.6,148.48,191,147.59,190.87Z"/><path class="cls-16" d="M108.44,262.93l-.09,2a1.28,1.28,0,0,1-1.12,1.1c-4.46,1-21.42,4.63-25.57,5h-.29L80,271c-1.6-.07-2.14-1.68-.77-2.27,4.19-1.81,10-4.27,12.41-5,3-.88,11.22-1.76,15-2.12C107.6,261.55,108.47,262.17,108.44,262.93Z"/><path class="cls-16" d="M114,262.45l.31,2a1.24,1.24,0,0,0,1.16,1c4.21.49,18,2.12,21.87,2.08l.27,0,1.25-.2c1.46-.23,1.77-1.87.44-2.31-4.06-1.34-7.49-2.95-9.76-3.39-2.84-.56-10.53-.56-14-.54A1.41,1.41,0,0,0,114,262.45Z"/><path class="cls-16" d="M101.27,289.29l22.31-1.79s-4.79,6.41-10.18,6.78C110,294.51,105.09,292.41,101.27,289.29Z"/><path class="cls-17" d="M116.42,257.73a9.12,9.12,0,0,1-8.57,0c-.57-.3-2.34.15-1.55.58a12.92,12.92,0,0,0,11.66-.24c.3-.19.22-.43-.17-.54a2.05,2.05,0,0,0-1.37.16"/><path class="cls-17" d="M105.2,257.72a14.55,14.55,0,0,0-5.36-1,1.14,1.14,0,0,0-.79.31c-.14.15-.16.34,0,.45A5.74,5.74,0,0,0,102,258a1.11,1.11,0,0,0,.87-.42c.14-.26-.16-.41-.41-.39a4.41,4.41,0,0,1-2.36-.39l-.75.76a13.43,13.43,0,0,1,4.79.89,1.1,1.1,0,0,0,1-.17c.19-.13.38-.42.08-.54"/><path class="cls-17" d="M98,258.45c-2.14.09-4.7-.69-5.86-2.25-1.75-2.37-.54-6.3,2-8.06.28-.19.11-.4-.19-.45a1.73,1.73,0,0,0-1.11.32,7.52,7.52,0,0,0-3,7.07c.48,2.14,2.62,3.52,5.2,4a11.82,11.82,0,0,0,2.38.17c.33,0,.9-.15,1-.42s-.16-.37-.46-.35"/><path class="cls-17" d="M99.6,256.36a.28.28,0,0,1,.24-.43,2.44,2.44,0,0,0,1.61-.67c.2.23.4.45.61.67a7.32,7.32,0,0,0-3.25,1.45.61.61,0,0,1-.69-.06c-.14-.11-.31-.38-.11-.53"/><path class="cls-17" d="M118.65,256.79a8.13,8.13,0,0,1,3.64-1.6.66.66,0,0,1,.58.22.3.3,0,0,1,0,.44"/><path class="cls-17" d="M124.68,256.35a4.37,4.37,0,0,0,3.51-2.89,6.54,6.54,0,0,0-2.14-6.88.26.26,0,0,1,.07-.46.79.79,0,0,1,.75.19,7.27,7.27,0,0,1,2.67,5.78,5.05,5.05,0,0,1-4.41,5,.76.76,0,0,1-.71-.31c-.12-.25.06-.38.26-.4"/><path class="cls-18" d="M113.9,315l.7,6s-28,5.77-33.37,5.41-18.48-8.46-39.39-37c0,0,25,27.36,43.7,28.95Z"/><path class="cls-19" d="M84.07,437.23c1,7.9.54,18.56-.08,30.46"/><path class="cls-19" d="M235.74,402.05s-4.5,34.38-7.41,54.46"/><path class="cls-20" d="M43,363c8.32,8.15,20.08,15.42,31.63,17.51,10.71,1.94,19-4,27.36-10,4.07-2.94,8.59-6.17,11.66-10.22,0,0-4.82-3.2-5.31-2.56a38.36,38.36,0,0,1-6.06,5.89c-6.15,5.15-13.71,11.28-21.38,13.77-12,3.92-24.35-3.86-32.71-12-1.21-1.19-4.49-1.64-5.19-2.33Z"/><path class="cls-7" d="M19,306.14,1.26,322.73s6.5,37.38,40.58,52.65c0,0,9.78-22,17-21.39C58.88,354,23.07,328.86,19,306.14Z"/><path class="cls-7" d="M118.52,315.3s5.12-1.23,11.65,7.54c0,0,1.6,37.72-16.3,54.71,0,0-7.47-23.76-14.73-23.12C99.14,354.43,118.1,339.57,118.52,315.3Z"/><path class="cls-19" d="M1.26,325.2s7.88,34.79,42,50.07c0,0,9.77-22,17-21.4"/><path class="cls-19" d="M131.55,322.73s1.6,37.72-16.3,54.71c0,0-8.85-23.65-16.11-23"/><path class="cls-5" d="M150.62,471c-26-63.49-89.06-105.4-161.49-101.84a166.57,166.57,0,0,0-143.72,98c8.3.09,25.78-.25,25.78-.25,25.5-48.18,76.53-78,134.5-74.57A143.66,143.66,0,0,1,125.2,470.28Z"/><path class="cls-21" d="M280.37,453.56c-60-3-122.32,17.46-122.32,17.46"/><polygon class="cls-15" points="63.67 194.49 56.09 205.13 54.23 204.52 62.34 194.05 63.67 194.49"/><polygon class="cls-15" points="-13.29 201.32 32.33 191.11 32.37 192.72 -12.9 202.83 -13.29 201.32"/><polygon class="cls-15" points="-11.08 209.4 35.33 199.08 35.38 200.69 -10.48 210.84 -11.08 209.4"/><polygon class="cls-15" points="-8.68 216.28 37.78 206.25 37.82 207.86 -7.98 217.74 -8.68 216.28"/><polygon class="cls-15" points="-5.68 221.75 40.17 211.53 40.22 213.14 -4.89 223.22 -5.68 221.75"/><polygon class="cls-15" points="-1.87 226.34 44.27 216.88 44.32 218.49 -1.49 227.84 -1.87 226.34"/><polygon class="cls-15" points="2.77 231.1 48.91 221.64 48.96 223.25 5.33 232.23 2.77 231.1"/><polygon class="cls-15" points="12.67 234.76 45.55 228.25 45.59 229.86 13.06 236.27 12.67 234.76"/><polygon class="cls-15" points="17.73 238.93 63.88 230.95 63.92 232.56 18.11 240.44 17.73 238.93"/><polygon class="cls-15" points="19.63 242.96 65.78 234.98 65.82 236.59 20.02 244.47 19.63 242.96"/><polygon class="cls-15" points="20.43 247.15 66.57 239.17 66.62 240.78 20.81 248.66 20.43 247.15"/><path class="cls-5" d="M22,268.08c-1.2,1.42-2.78,3-4.76,3a6.82,6.82,0,0,1-4.18-1.63,22,22,0,0,1-5.47-6.91c-.42-.74-.74-1.55-1.16-2.29a2.3,2.3,0,0,0-.46-.61,41.7,41.7,0,0,1-3.14-3.74,38.89,38.89,0,0,1-6.59-14.71A51.71,51.71,0,0,1-5.09,228.5a7.77,7.77,0,0,1,6-7.33A9.88,9.88,0,0,1,10.45,224c2.39,2.46,4,5.68,5.34,8.78a180.67,180.67,0,0,1,6.49,17.49c.11.35,1.4,0,1.29-.34a181.39,181.39,0,0,0-6.36-17.23,33,33,0,0,0-5.1-8.69,11,11,0,0,0-10.6-3.52c-2.91.65-5.86,2.2-7.17,5-.94,2-.74,4.25-.63,6.42a65.43,65.43,0,0,0,.72,7A40.57,40.57,0,0,0,.37,254.61,41.89,41.89,0,0,0,3,258.1a26.84,26.84,0,0,1,2.13,2.43c.49.76.81,1.67,1.25,2.46,1.67,3,3.86,6.27,7,7.89,3.68,1.9,7.39.06,9.87-2.86.29-.34-1-.2-1.19.06Z"/><path class="cls-18" d="M97.92,201.34s8,3.43,2.07,12-.46-5.14-.46-5.14S100.82,205.23,97.92,201.34Z"/><path class="cls-18" d="M113,200.65s-7.95,3.43-2.07,12,.46-5.15.46-5.15S110.06,204.54,113,200.65Z"/><path class="cls-22" d="M114.65,270.86c-7.87.82-24.76,7.15-28,10.39,0,0,9.6,4.93,27.84,3s20.65-8.07,20.65-8.07S124.67,269.82,114.65,270.86Z"/><path class="cls-13" d="M93.84,276.57s9.35-1.29,16.84-1.75,16.92-.34,16.92-.34.88-5.35-12.7-4.51S93.84,276.57,93.84,276.57Z"/><path class="cls-23" d="M114.14,282.09c-8.64-.62-17.59-3.06-27.55-1.86,0,0,3.48,10.63,25,9.3s23.66-12.31,23.66-12.31C125.22,277.25,122.65,280.41,114.14,282.09Z"/><path class="cls-23" d="M124.07,266.42c-4.54,0-7.31,1.76-9.28,1.88s-4.93-1.32-9.43-.72c-4.21.55-21.53,11.42-19.44,12.56s15.52-6.88,29.13-7.72,18.93,6,20.85,4.63S128.32,266.45,124.07,266.42Z"/><path class="cls-15" d="M724.23,255.26c-.69-2.21-.08-25.68-.08-25.68l-34.72,5.34-23.79-1s-3.2,17.05-3.89,19.25-27,14.71-27,14.71,18.24,12.81,63.34,12.81,49.43-12.47,49.43-12.47S724.93,257.46,724.23,255.26Z"/><path class="cls-15" d="M723.3,203.1s1.06,50.5,2.05,55.36l6.25,15.15h0c-15.3-.53-25.71,2.26-51-4.72l-30.27,1s7.72-10.12,9.14-14.08C668.78,230,658,198.24,658,198.24"/><path class="cls-18" d="M682.1,230.61s4.85,16.63,31,23.09c0,0,7.58,1.77,12,.25l-.4-6.7Z"/><path class="cls-24" d="M766.27,198.23c-9.06-6.86-10.49-18.79-9-29.34,1.38-10.1-5.84-25.85,6.57-25,.24,0-4.21-8.81-.57-8-2.08-5.66,6.12-4.89,7.45-11.16.26-1.27,2.39-12.44-5.62-13.43C737.25,70.17,698.18,77.61,676.33,80c-42.87,4.58-63.71,6.48-55.25,74.38,5.68,45.58,47.93,59.18,91,59,18.42-.06,40.27,1.25,54.52-14.88C766.52,198.41,766.39,198.33,766.27,198.23Z"/><path class="cls-24" d="M680.66,41.08C679.48,38.65,668.2,29.42,661.24,30c-5,.42-10.76,2.47-19.27,9.69-7.81-2.44-17.45-4.2-22.23-.24a26.66,26.66,0,0,0-5,5.94h0l-.07.14a57.25,57.25,0,0,0-3.69,6.73c-5.61,7.3-17.21,22.85-19.43,29.83-1.11,3.48,3.81,11.07,10.4,19.21a13.77,13.77,0,0,0-3.73,6.55c-1.57,6.54,5.35,20.89,22.78,14.57,4.5,4.62,7.68,7.69,7.68,7.69l5.11-4.08-1-2.56,6.24-4.87-4.18-3.85a34.59,34.59,0,0,1,4.65-3.73c6.07-5,12.66-12.16,18.52-17.44,2.7-2.44,9.82-3.64,12.64-6a12.93,12.93,0,0,0-4.4-2l2.28-1.86a57.16,57.16,0,0,1,5.24,2.47c2.48-2,8.83-3.78,11.28-5.81.42.71.83,1.43,1.22,2.17,2.24-1.87,7-3.91,9.19-5.79-.3-11.16-4.89-20.8-15.16-26C680.79,46.63,681.23,42.27,680.66,41.08ZM605.34,110a15.7,15.7,0,0,1-.73-5.39c2.78,3.29,5.73,6.59,8.58,9.67C609.94,114.18,606.4,113.28,605.34,110Zm68.35-69.2c-.12,1.89-1.6,4.73-2.86,6.82l-.81-.17a126.49,126.49,0,0,0-12.95-2.22c2.23-3.31,4.48-6.48,5.16-7C665.76,35.66,673.89,37.51,673.69,40.8Z"/><path class="cls-15" d="M742.43,108.54l.33.22a3.82,3.82,0,0,1-.33-.49Zm12.21,2.36c.18.17.38.33.58.49v-.22S754.64,110.64,754.64,110.9Zm-76,115.7c11.53,11.54,31.2,19.41,44.28,21.13,6.4.84,12,2.56,18.42-2.08,16.16-11.63,32.33-32.93,29.82-53.75-.46-3.85-2.76-11-2.51-14.7.27-4.27.13-24.82-3.8-37.77-4.79-15.77-9.58-23.6-9.58-23.6-.59-2.66,6.1-1.48,4.64-3.61h-1.16a1.17,1.17,0,0,1,.59,1.07,9.19,9.19,0,0,1-4.08-1.9v0c-1.74.81-3.48,0-4.94-1.31,0,.26.29.79.58.79a5.81,5.81,0,0,1-4.65-1.58c0,.27.29.8.29,1.06a10.43,10.43,0,0,1-3.74-1.63c.27.35,6.82-.69,6.82-.51-1.74.27.25.85-1.2-.48l-1.45-1c-1.45.27-1.39,1.15-2.56.09.29.26-.81-2.94-.81-2.67-1.74,0-1.27-.11-2.72-.91,0,.27-4.75,1.75-4.75,2-1.45,0-1.06,1.33-2.23.27.3.27,1-1.12,1.34-.86-1.74.28-2.39,1.4-3.85.07.29.27-5.75-2.91-5.75-2.91-1.75.27-1.45.82-2.91-.24.59.53-8-.47-7.75.06-1.45,0,2.79,5.32,1.63,4.52,0,.27-3.35-.79-3.35-.79-1.45.28.73,1.6-.43.54,0,.27.29,1.06.58,1.06-1.74.81-3.77.28-5.52-.78.58.53.88,1.07,1.17,1.33-1.46,0-2.62.28-4.07-.79,0,.27.58,1.07.87,1.07a5.73,5.73,0,0,1-4.65-.52c0,.27.59.8.88,1.06a4.12,4.12,0,0,1-3.49-.52l.87,1.07c-1.16,0-2,.54-3.77,0,0,.26.58.53.58.8a11,11,0,0,1-2.9-.26c0,.26.87.8.58.8-1.16,0-2,.54-3.49,0,.29.26.59.8.88,1.06a8,8,0,0,1-3.49-.25,1.94,1.94,0,0,0,.59,1.06c-1.17,0-2,.54-3.49,0,0,.27.58.8.88,1.06a15.09,15.09,0,0,1-3.49,0c0,.26.58.53.87.79a9.27,9.27,0,0,1-3.78-.25c0,.53.3.8.3,1.06-.87,0-1.46-.26-2.33-.25l-1.45.53c-4,5.35-14.75,16-14.75,16-9,7.23-9.12,19.73-8.82,24.8S659,181.34,659,181.34c-1.46-1.86-2.75-6.16-3.63-8.29-.88-1.86-2.22-4-3.09-5.82-2.63-4.26-8.44-2.91-11.62-.23l-.54.88c-4.42,6-3,21.05,5.34,31,1,11.33,12.4,16.66,15.08,8.3l1.59,4.41"/><path class="cls-17" d="M740.35,201.16a7.54,7.54,0,0,1-6.68-.32c-.42-.25-1.82,0-1.23.36a10.59,10.59,0,0,0,9.09.29c.24-.12.2-.3-.11-.4a1.69,1.69,0,0,0-1.07.07"/><path class="cls-17" d="M731.61,200.69a12.2,12.2,0,0,0-4.12-.94.94.94,0,0,0-.63.21c-.12.1-.14.24,0,.32a4.45,4.45,0,0,0,2.26.47.85.85,0,0,0,.69-.27c.13-.18-.11-.3-.3-.3a3.64,3.64,0,0,1-1.82-.38l-.62.53a10.52,10.52,0,0,1,3.69.85.9.9,0,0,0,.75-.09c.15-.09.31-.3.08-.4"/><path class="cls-17" d="M726,200.94c-1.66,0-3.62-.69-4.45-1.89-1.26-1.81-.14-4.89,1.92-6.08.23-.13.1-.29-.12-.34a1.48,1.48,0,0,0-.89.19,5.8,5.8,0,0,0-2.65,5.31c.27,1.6,1.87,2.69,3.87,3.13a8.65,8.65,0,0,0,1.84.22c.26,0,.71-.07.83-.27s-.11-.27-.35-.27"/><path class="cls-17" d="M743.39,200.3a.21.21,0,0,1,.2-.3,2.07,2.07,0,0,0,1.29-.43l.45.52a5.88,5.88,0,0,0-2.6.93.48.48,0,0,1-.53-.08c-.11-.08-.23-.28-.07-.39"/><path class="cls-17" d="M742.13,200.55a6.67,6.67,0,0,1,2.9-1,.58.58,0,0,1,.45.19.22.22,0,0,1,0,.33"/><path class="cls-17" d="M746.84,200.47a3.4,3.4,0,0,0,2.87-2,4.62,4.62,0,0,0-1.36-5.14c-.15-.12-.07-.29.08-.34a.65.65,0,0,1,.57.17,5.2,5.2,0,0,1,1.82,4.36,3.73,3.73,0,0,1-2.46,3.21,4.09,4.09,0,0,1-1.19.26.58.58,0,0,1-.54-.25c-.09-.19.06-.28.21-.29"/><path class="cls-5" d="M655.89,186.6a61.38,61.38,0,0,0-5.73-10,20,20,0,0,0-4.13-4.39,5.53,5.53,0,0,0-2.24-1.1c-.83-.15-1.16.55-1.5,1.21-1.58,3.14-1.44,6.87-.59,10.2.1.41,1.09.15,1-.27a15.77,15.77,0,0,1-.15-8,8.69,8.69,0,0,1,1.22-2.68l-.46.2c-.29,0,0,0,0,0s-.09,0,.06,0l.24.07a5.43,5.43,0,0,1,1.44.77,22.08,22.08,0,0,1,5.46,6.24,69.15,69.15,0,0,1,4.4,8c.19.4,1.16.1,1-.26Z"/><path class="cls-25" d="M768.94,155c-5.89-4.16-10.1-5.54-21.77-7.59l-.1.25c-.62,1.4-.27.62-.89,2-.47,1.07-.94,2.14-1.4,3.21,3.83.62,6.72.73,9.11,1.33,4.52,1.13,9.88,1.91,14,4.29C768.19,157.37,768.54,156.19,768.94,155Z"/><path class="cls-25" d="M717.28,146.59c.48,1.45.21.64.69,2.11.36,1.11.71,2.23,1.07,3.34-3.87.23-6.76.05-9.2.4-4.83.7-10.54.92-14.94,3.14-2.1,1.07-5.09,2.66-6,5.17-.25.67-.42,2.85-1.42,2.74-.41-.05-.41-2-.41-2.24,0-4,2.64-6.53,6.17-8.65,7.21-4.31,11.22-5.33,24-6.27"/><path class="cls-26" d="M652.14,205.1a6.43,6.43,0,0,0-2,8.68,6.33,6.33,0,0,0,4,2.72,6.56,6.56,0,0,0,2.82-.17,7,7,0,0,0,4.62-3.59c.34-.67-1.1-.59-1.35-.1a5.27,5.27,0,0,1-3.26,2.78,6.49,6.49,0,0,1-1.41.22H655a5.47,5.47,0,0,1-3.31-2.17,5.56,5.56,0,0,1-1-3.79,5.63,5.63,0,0,1,2.41-4c.23-.17.39-.46.11-.65a1.06,1.06,0,0,0-1,.11Z"/><path class="cls-5" d="M655.72,186.65c-1.62,0-3.94.37-3.58,2.49s1.7,3.67,1.82,5.71c0,.68-.28,2.33-1.06,2.31-1.17,0-2.35-1.66-2.9-2.5a11.68,11.68,0,0,1-2-6.82c.11-2.43.54-6.26,3.09-7.4.6-.26-.32-.24-.57-.14-2.38,1.06-3.09,3.91-3.38,6.27a12.06,12.06,0,0,0,1,6.79c.82,1.8,2.87,5.1,5.32,4,2.08-.92,1.48-3.54.85-5.17a18.28,18.28,0,0,1-1.21-3.34c-.24-1.41.68-1.8,2-1.81.2,0,.56,0,.7-.19s.19-.23-.06-.22Z"/><path class="cls-25" d="M757.68,165.54a4.36,4.36,0,0,1,4.72.84,4.19,4.19,0,0,1,1.28,2,4.36,4.36,0,0,1-1,4,4,4,0,0,1-4.64.83,4.48,4.48,0,0,1-2.21-5.19,4,4,0,0,1,1.87-2.41"/><path class="cls-25" d="M743.66,171.59s8.22-6.43,12.43-6.86c6.14-.62,11.87,2.73,14.06,5.73,0,0-8.19-5-12.5-4.44C753.52,166.56,743.66,171.59,743.66,171.59Z"/><path class="cls-25" d="M709.59,166a4.39,4.39,0,0,0-4.72.87,4,4,0,0,0-.22,5.93,4,4,0,0,0,4.65.8,4.48,4.48,0,0,0,2.18-5.2,4,4,0,0,0-1.89-2.4"/><path class="cls-25" d="M719.89,171.8s-8.83-6.35-13.33-6.77c-8.11-.76-15.64,3.85-18,6.87,0,0,11.69-6.11,16.3-5.57C709.31,166.84,719.89,171.8,719.89,171.8Z"/><path class="cls-27" d="M755.9,114.52c1.15,7.33,11.09,1.1,5.63-.68.66-3.55-4.37-5-4.23-8.61-.22.32-.36.57-.36.57s-.14-4.35-1.6-5.4-8-4.32-8-4.32l-2,1.5c0-.11.75-1.53-.27-2.39S733,88.57,725.93,89a5.19,5.19,0,0,0-.7.07l-2.93,1.53-.11.05.11-.06c.52-.31,1.64-1.07,1.06-1.69a2.53,2.53,0,0,0-1.31-.58,25.43,25.43,0,0,0-4.28-.4v0h-1v0a26.07,26.07,0,0,0-4.28.43,2.61,2.61,0,0,0-1.31.59c-.57.63.55,1.38,1.07,1.68l.11.07-.1-.06-2.94-1.51c-.23,0-.46-.06-.7-.07-7.07-.41-18.11,5.41-19.13,6.28s-.31,2.29-.25,2.4l-2-1.49s-8.46,3.33-9.91,4.38a7.46,7.46,0,0,0-2.1,3.56s-2.58,1-3.51.66-5.73,2.21-7.7,5.07c-1.27,1.83-.8,3.55-1.43,5.16h0c-.35.9-.55,1.5-.55,1.5l-5,1.67c-4,1.93-3,10.14-3,10.14-7.8,9.64-8.16,17.83-4.62,26.64,1.36,3.4-8.33,6.86-2.11,6.71S659,181.34,659,181.34s5.32-7.71,5.57-11.28S663,155.89,663,155.89l3-.44s1.84-.75,4.06-4.81-1.89-11.25-1.89-11.25L667,135l5.93.39c5.72-1,6-7.21,6-7.21l-1-10.32,3.45,3.45a4.2,4.2,0,0,0,3.31,1.48c8.87-.7,9.9-6.23,9.9-6.23l1.17-5.21,2.26,1.49c2.39,2,9.68,4.93,13.38,3.33,1-.42,5.06-3.6,5.72-4,2.38-1.74,2.71-5,2.76-6.28-.35-.33-.68-.75-1-1.11-1.27-1.38-1.88-.8-.61.58,2.19,2.37,5.9,5.7,9.17,5.84s9.92-1.21,10.76-2.67c.56-1-.44-1.1.71-1a3.82,3.82,0,0,1,2.52,1.49c1.51,1.73,2.53,4.26,4.65,5.33,3.08,1.56,4.93-.13,8-.8A1.46,1.46,0,0,1,755.9,114.52Z"/><path class="cls-28" d="M763.24,108.78s2.1-6.68-1.77-10.51-18.75-19.21-44.26-19.16Z"/><path class="cls-29" d="M623.32,124.87s-19.61,11.26-28.13-4.54,14-21.46,14-21.46"/><path class="cls-29" d="M636.8,38.28S646.61,22.1,660,24.85s4.92,24.66,4.92,24.66"/><path class="cls-22" d="M738.05,211.89c-6.49.36-20.62,4.9-23.37,7.43,0,0,7.47,7.75,22.52,6.91s17.5-9.15,17.5-9.15S746.32,211.43,738.05,211.89Z"/><path class="cls-13" d="M720.73,215.76s7.73-.69,13.91-.78,13.91.39,13.91.39.93-4.36-10.26-4.2S720.73,215.76,720.73,215.76Z"/><path class="cls-23" d="M737.19,224.68c-7.07-.85-14.32-6.8-22.55-6.2,0,0,2.43,12.46,20.16,12.21s19.92-12.77,19.92-12.77C746.48,217.55,744.24,223.64,737.19,224.68Z"/><path class="cls-23" d="M746,208.61c-3.73-.21-6.07,1.16-7.69,1.18s-4-1.28-7.72-1c-3.48.29-18.13,8.53-16.46,9.55s13-5,24.23-5.2,15.3,5.69,16.94,4.62S749.45,208.8,746,208.61Z"/><path class="cls-18" d="M739.08,146.32s-8.42,5.29,0,10.59C739.08,156.91,736.22,151,739.08,146.32Z"/><path class="cls-18" d="M726.76,146.32s8.43,5.29,0,10.59C726.76,156.91,729.63,151,726.76,146.32Z"/><path class="cls-15" d="M767.16,523.9s34.69,145.62,31.78,294.68c-8.78,102.71-38.44,262.55-38.44,262.55l-28.44,1.13s-8.36-166.19-12.6-275.32c-7-102.46-17.89-157.54-17.89-157.54L705,502.2Z"/><path class="cls-15" d="M647.46,498.7s-38,68.11-38.37,140.41c-.22,43.24,50.9,445.5,50.9,445.5l29.18,1.17L726.1,662.27l19.08-131.91Z"/><path class="cls-30" d="M800.46,524s-30.82,29.22-85.1,26.12S599.61,524,599.61,524s-15.32,87.82-13.56,108.5,22.17,237.23,22.17,237.23S646.63,896.16,730,884.4s83.81-15.94,83.81-15.94S825,714.24,825,673.89,811.1,562.31,811.1,562.31"/><g id="freepik--character-2--inject-2"><path class="cls-31" d="M783,372.86c13.26-3.14,25.58-5,36.47-13.79l-20.88-53.84c-2.44-9.13-13.79-26-22.7-29.1L739.2,264.71l22.62,99.56C766.69,364.21,778.23,374,783,372.86Z"/><path class="cls-31" d="M764.17,469.09c-.85,5.71,4.94,21.15,6.44,26.76.76,2.81,17.52,3.57,18.4,6.35.52,9.07,13,15.69,15,27.76-11,6-42.65,21.46-54.63,25a239.63,239.63,0,0,1-47.77,8.91,234.73,234.73,0,0,1-49.43-.88,166.13,166.13,0,0,1-45.68-12.12A124.33,124.33,0,0,1,593.1,544c9.84-41.81,20.32-65.42,20.32-65.42l4.32-9.85L603.49,278.9l36.32-13.28,13.85-5.22L663.83,263c7.35,10.35,16.91,16.48,29.59,17.26a82.06,82.06,0,0,0,11.6-.12,33.88,33.88,0,0,0,26.06-16.25l.46.27,8.61.92,38.09,18.15s14,94.69,13.62,108.55C791.59,401.38,773.69,404.54,764.17,469.09Z"/></g><path class="cls-15" d="M742.41,265.65s-9-3-15.84-5.76a7.65,7.65,0,0,1-2.09.29c-12.89.06-26,.73-38.65-2.33a213.65,213.65,0,0,1-29.09-9.55c-2.18,4.69-4.19,9.09-4.48,10-.66,2.11-20.9,9.92-20.9,9.92s26.18,17.16,69.49,17.16S742.41,265.65,742.41,265.65Z"/><path class="cls-32" d="M797.15,369.23l-4.82-16.31-15.42-45.26s8.22,29.92,11.37,47.64h0l4.16,15.17s1.47-.34,2.8-.72"/><path class="cls-31" d="M779.33,319.26s16.32,64.94,15,75.17c-1.44,10.91-6,19.83-14.53,28.74s4.23,21.47,3,27.69,13.73,53.23,19.66,73.15-91.53-47-91.53-47l40.34-74.83Z"/><path d="M576.62,596.24s-7-124.42,46-130.87l-2.52-4.86s-20,6.42-30.41,26-12.89,34.37-22.21,110Z"/><path d="M565.4,652.46H677c11.46,0,20.22-8.53,18.48-18L685,577.13c-1.4-7.62-9.25-13.25-18.48-13.25H575.92c-9.24,0-17.09,5.63-18.49,13.25l-10.52,57.34C545.18,643.93,553.94,652.46,565.4,652.46Z"/><path class="cls-32" d="M612.8,295.78s13.85,10.44,13.14,32.49-11.47,61.65-11.47,61.65l-.76,5,2.33-4.37s7.84-28,10.94-47,.41-31.44-4.79-38.24S612.8,295.78,612.8,295.78Z"/><path class="cls-33" d="M676,566.05s-2.89,25.83-13.38,29.16-41.42,2-41.42,2-41.47,1.53-45.14-3.36c-5.36-7.15-6.89-28.57-6.89-28.57"/><rect class="cls-34" x="602.87" y="593.12" width="30.49" height="8.6" rx="4.3" transform="translate(1236.23 1194.84) rotate(180)"/><path d="M628.44,460.51s21.64,5.73,30.18,26.15c7.43,17.75,12.61,27.68,15.18,80h-4.56c-1.41-35-8.68-94-41.39-102.45Z"/><path class="cls-15" d="M614.71,461a5.57,5.57,0,0,0,.63,4.86s.38-.11-1.23,2-.1,5.87-.1,5.87c-2.25.45-2.11,8.14,3.44,7.38A218.53,218.53,0,0,0,646,474.22l20.09-13.81,84,12.08-9.8-40.65s-88.06,1.08-100.8,5.1c-9.3,2.92-16,6.05-20.64,10.44"/><path class="cls-35" d="M613.32,474.05c-.23-.29,2.11-2.4,5.83-3.51a9.67,9.67,0,0,1,6.68-.36,37.88,37.88,0,0,1-6.27,1.75A37,37,0,0,1,613.32,474.05Z"/><path class="cls-35" d="M622.47,463.2c0,.41-1.76.79-3.81,1.51s-3.67,1.5-3.92,1.17,1.17-1.76,3.44-2.48S622.44,462.81,622.47,463.2Z"/><path class="cls-35" d="M626.52,457c0,.16-.38.19-.77.29a10.22,10.22,0,0,1-1.8.35c-1.43.11-2.62-.21-2.73-.5s1.06-.82,2.6-1a5.35,5.35,0,0,1,1.95.17C626.4,456.38,626.67,456.79,626.52,457Z"/><path class="cls-15" d="M818.53,379.13c-1-4.46-2.49-10-4.26-16.52-8.12,5.16-17.74,6.21-26.69,9.59-3.93,1.48-8.5-1.13-12.53,0l1.71,16.73c.3,10.55,1.85,22.47,2.91,33l-2.76,5.58c-9,1.06-21.25,2.3-30.29,3.44-3.85.49-13.09,1-13.09,1-1.74,7.92,3.52,16.29,5.53,24.15,1.22,4.78,9.76,11.62,11,16.4,0,0,41.63,3.05,63.6-4C830.8,463.1,821.8,393.25,818.53,379.13Z"/><path class="cls-15" d="M658.88,370.23l-35.69-10.78-4,19.08-10.12-52.2c-1.12.15-2.24.31-3.37.43-11,1.22-16,1.12-27,.67,2.06,25.95,3.79,78.15,13.8,109.92,5.21,16.49,19.43,28.89,36.74,28.31,3.55-.12,7,.23,10.28.37a11.7,11.7,0,0,0,10.88-6l0-.06c6-11.24,8.5-24.16,10.33-36.66a358.69,358.69,0,0,0,4-50.17A19.73,19.73,0,0,0,658.88,370.23Z"/><path class="cls-15" d="M616,390.54l24.88-123.83,29.26,14.87-6,103.22s-11.1,13.71-26.88,6.1C628,386.5,616.08,400.81,616,390.54Z"/><polygon class="cls-36" points="646.23 177.87 698.02 233.11 684.18 269.29 679.96 270.11 635.36 214.69 642.01 178.69 646.23 177.87"/><polygon class="cls-37" points="642.01 178.69 693.8 233.92 679.96 270.11 631.14 215.5 642.01 178.69"/><path class="cls-15" d="M671,285a22.1,22.1,0,0,0,7-13.28c.63-7.65.27-26.19.27-26.19s11.85-19.75,11.85-22.52-.43-2.81-4.07-2-16.41,18.57-16.41,18.57l-2.23-14.34s10.53-13.82,11.43-15.68,2.29-3.56,0-4-21,14.54-21,14.54l-.11,15.45s-.46,1.21-2.67-1.19.11-20.63.11-20.63,6.89-10.27,6.91-11.85,1.36-3.16.49-5.94-4.55,0-4.55,0l-12.8,13.8-2.63-15.15s.48-3.12-3.62-3.54l-3,48,6.5,37.83Z"/><path class="cls-18" d="M690.2,220.72a1.77,1.77,0,0,0-1.11-1,3.58,3.58,0,0,0-1.13-.09c-.67.08-1.26.2-1.86.31a5.1,5.1,0,0,0-1.88.74,12.06,12.06,0,0,0-1.49,1.18,59.29,59.29,0,0,0-5,5.38c-2.77,3.29-5.41,6.75-8,10.3l-1.9-12.22,5.27-7c2.09-2.88,4.19-5.53,6.12-8.7.36-.77.78-1.46,1.16-2.39a1.89,1.89,0,0,0-.17-2,2.34,2.34,0,0,0-1.66-.69,3.87,3.87,0,0,0-1.59.48c-.41.19-.8.4-1.19.63l-2.24,1.39c-5.75,3.88-11.08,8-16.33,12.18l-.27.23,0,.49q0,7.54-.07,14.9l-.07,0a6.72,6.72,0,0,1-1-.89,4.47,4.47,0,0,1-.8-2.45,39.52,39.52,0,0,1-.09-6c.13-4,.51-7.94,1-11.81l0,.3a98.88,98.88,0,0,0,6.68-11.14,3.22,3.22,0,0,0,.3-.94,2.61,2.61,0,0,1,.06-.69,14.24,14.24,0,0,0,.4-1.47,6.69,6.69,0,0,0,.27-3.38,3.21,3.21,0,0,0-.72-1.69,2.2,2.2,0,0,0-1.9-.74,6.56,6.56,0,0,0-3.1,1.32l-12,12.94-2.45-13.93,0,.19a3.58,3.58,0,0,0-1.27-3.12,5.25,5.25,0,0,0-2.85-1.07l-.57,0-.06.74c-1.16,19.49-2.13,35.68-2.84,48,1.56,9,2.77,15.94,3.62,20.72l1,5.34c.24,1.21.38,1.81.38,1.81s0-.59-.21-1.85-.44-3.06-.78-5.36c-.76-4.8-1.85-11.76-3.28-20.77.81-12.14,1.9-28.12,3.19-47.36a4.31,4.31,0,0,1,1.7.74,2.49,2.49,0,0,1,.85,2.1v.19c.85,4.83,1.7,9.89,2.61,15.12l.2,1.21.82-.9,12.83-13.77A5.28,5.28,0,0,1,661,195.1c.78,0,1.05.39,1.27,1.41a5.58,5.58,0,0,1-.22,2.75c-.12.46-.41,1.29-.44,1.54s0,.69-.07.86a2.81,2.81,0,0,1-.18.56,104.66,104.66,0,0,1-6.6,10.88v.13c-.33,3.94-.79,7.89-1,12a45.51,45.51,0,0,0,.1,6.18,5.5,5.5,0,0,0,1.17,3.26,7.09,7.09,0,0,0,1.29,1.1,2.89,2.89,0,0,0,1,.42,1.25,1.25,0,0,0,1.44-.72q0-7.47.11-15.12c5.16-4.05,10.43-8.13,16-11.87.71-.5,1.81-1.15,2.16-1.35s.73-.44,1.08-.6a3.7,3.7,0,0,1,.86-.32,1,1,0,0,1,.68.06s.24-.18,0,.49-.76,1.49-1.13,2.29c-1.72,2.77-4,5.66-6,8.46l-5.35,7.12-.18.27,0,.27c.73,4.59,1.44,9.11,2.1,13.35-.11.17-.23.32-.35.48l.45.11.06.41.27,1.74,1-1.42c2.83-4,5.92-7.93,9-11.61A54.7,54.7,0,0,1,684.3,223a9.59,9.59,0,0,1,1.33-1.05,3.36,3.36,0,0,1,1.41-.55c1-.22,2.5-.46,2.47-.1a5.42,5.42,0,0,1,.16,1.45c0,.27,0,.41,0,.66l-.29.78c-.42,1.05-.92,2.11-1.42,3.12-1.09,2.08-2.17,4.09-3.27,6.08q-3.32,6-6.67,11.64v.17l0,.19c.27,7.56.44,14.92.11,22a23,23,0,0,1-2.08,9.83,19.94,19.94,0,0,1-5.9,7l.49.62a20.8,20.8,0,0,0,5.8-7,24,24,0,0,0,2.27-10.34c.34-7.13.2-14.38,0-21.85,2.23-3.68,4.48-7.6,6.68-11.57,1.13-2,2.24-4,3.27-6.14.53-1,1-2.1,1.49-3.23l.32-.88a6.56,6.56,0,0,0,.09-1.08A6.49,6.49,0,0,0,690.2,220.72Z"/><path class="cls-18" d="M645.17,235.66a58,58,0,0,1-.52-13.23,59.14,59.14,0,0,1,1.08-13.21,62.56,62.56,0,0,1,.49,13.26A62.6,62.6,0,0,1,645.17,235.66Z"/><path class="cls-31" d="M781.88,326.7s14.34,42.78,12.47,56.79c-2.23,16.75-9.73,17.73-12.66,24.64s-1.37,19.5-1.37,19.5l-19.86,1.73-15.11-110.1,4.7-33.87Z"/><path class="cls-31" d="M604.39,278.61s-12.9,6.5-22.13,29.05-15.88,71.12-15.88,71.12,39.49,11.14,51.58,11.14c0,0,11.22-63.75,11.22-66.48C629.18,300.88,604.39,278.61,604.39,278.61Z"/><polyline class="cls-18" points="640.69 266.83 639.73 272.67 639.33 272.48 640.61 266.49"/><path class="cls-18" d="M659.77,434.5s-6.19,27.87-12.72,31.55-28,2.22-33.75-3.17c0,0,23.08,7.33,32.9,1.54,7.64-4.51,14.13-36.58,12.74-29.86C658.92,434.68,659.77,434.5,659.77,434.5Z"/><path class="cls-18" d="M618,389.92s-6.21,29.6-6.68,31.72l4.76-31.8Z"/><path class="cls-32" d="M611.75,281.92s21.43,7.35,19.61,32.4l1.58-7.89A30.13,30.13,0,0,0,611.75,281.92Z"/><path class="cls-18" d="M780.15,428s18.18-.07,26.57,6.12a41.11,41.11,0,0,0-26.54-7.79Z"/></g><g class="cls-38"><polygon class="cls-39" points="1309.02 607.88 1307.42 700.81 1230.02 609.86 1309.02 607.88"/><polygon class="cls-13" points="754.77 1.02 1302.14 735.65 1303.15 0 754.77 1.02"/><rect class="cls-40" x="1226.38" y="600.14" width="82.28" height="138.57"/><path class="cls-15" d="M1058,214.25l-10.87,10.65-16.28-15.58-4.61-11.71-20.61-18.27a98.5,98.5,0,0,0,.08,11.78L994.3,213.39l.28,41.45-11.33,22.53L1027.79,290l7.91-27.36a87.75,87.75,0,0,0,18.82-15.37c6.41-7.87,12.4-45.45,12.4-45.45C1063.58,201,1060.35,211.78,1058,214.25Z"/><path class="cls-16" d="M1022.85,220.15a4.35,4.35,0,0,1-1.23-4.32l6.22-22.6,18.51-60.85a4.3,4.3,0,0,1,5.34-2.89,4.16,4.16,0,0,1,1.63.9l26.1,22.91a4.3,4.3,0,0,1,1.28,4.53l-26,82.85a4.33,4.33,0,0,1-5.46,2.78,4.26,4.26,0,0,1-1.54-.89Z"/><path class="cls-41" d="M1027,217a3.8,3.8,0,0,1-1.09-3.81l5.49-20.42,16.34-55.12a3.78,3.78,0,0,1,6.11-1.75L1077.06,156a3.78,3.78,0,0,1,1.12,4L1054,235.17a3.78,3.78,0,0,1-4.76,2.45,3.84,3.84,0,0,1-1.37-.79Z"/><path class="cls-15" d="M1026.09,197.61s2.34.73,8.47,3.18c7.27,2.76,9-1,9-1h0a5.17,5.17,0,0,0-2.89-6.68L1026,187.23l.17-3.08a131.65,131.65,0,0,0,13.21.85c11.71-.08,7.24-10.11,7.24-10.11l-13.5-1.66,6.79-10a7.47,7.47,0,0,0-.77-10.54c-.17-.15-.35-.29-.53-.42L1013.4,173.4s-7.35,3.09-7.82,6.14a98.35,98.35,0,0,0,.09,11.77Z"/><path class="cls-42" d="M1041.56,201.54a10.93,10.93,0,0,1-5.76,0,58.43,58.43,0,0,1-13.26-4.05l-1.85-.79,1-.33c-2.56,4.09-4.37,8.08-6,10.81a13.26,13.26,0,0,1-3,4.13,22.7,22.7,0,0,1,2-4.67,97.36,97.36,0,0,1,5.58-11.2l.36-.59.68.29,1.82.76a89.76,89.76,0,0,0,13,4.44C1039.39,201.2,1041.56,201.29,1041.56,201.54Z"/><path class="cls-42" d="M1026.15,187.81c0,.19-1.23-.51-3.24-1.15a14.42,14.42,0,0,0-7.54-.49,14.07,14.07,0,0,0-6.67,3.6c-1.48,1.37-2.15,2.47-2.38,2.35s0-1.43,1.5-3.25a12.68,12.68,0,0,1,7.18-4.45,13,13,0,0,1,8.39,1C1025.4,186.58,1026.28,187.64,1026.15,187.81Z"/><path class="cls-42" d="M1046.14,174.58c0,.49-7-1.1-15.68-1.46s-15.7.48-15.79-.07a38.92,38.92,0,0,1,15.86-1.68A40.22,40.22,0,0,1,1046.14,174.58Z"/><path class="cls-42" d="M1027,255.58c-.26,0,.34-2.39.44-6.21a30.76,30.76,0,0,0-12.25-25.8c-3-2.34-5.26-3.2-5.17-3.59a13.77,13.77,0,0,1,5.85,2.61,28.67,28.67,0,0,1,12.77,26.84A13.76,13.76,0,0,1,1027,255.58Z"/><path class="cls-43" d="M1116.71,251.09l-41,6.75a38.52,38.52,0,0,0-11.09,4.44c-12.79,7.58-28.38,18.56-34.26,31.83l-6.71,50.45,6.75-63.34-42.83-19S952.46,346,943.79,393.13c-6.67,36.3-14.47,78.83,15.28,94.91,49.09,25.5,72.36-21.23,94.35-49.61l31.33-64.17Z"/><path class="cls-44" d="M1030.41,281.22c-2.23,13.94-3.65,31.95-6.34,48.1-2.75,16.51-5.31,32.31-7.36,46.66s-3.83,27.27-6.31,37.92a145.29,145.29,0,0,1-8,24.57c-2.36,5.53-3.76,8.64-3.76,8.64A11.72,11.72,0,0,0,1000,445a67.87,67.87,0,0,0,3.28-6.3,132.93,132.93,0,0,0,8.63-24.57c2.71-10.72,4.78-23.68,6.79-38s4.8-29.88,7.49-46.56l5.27-48.23"/><path class="cls-15" d="M1205.61,173.93s-6.76,29.94,8.88,60c1.5,2.89,17.41,9.1,17.41,9.1l-25.2,8.86c-17.29,4.4-56.17,5.32-73.11.5l-14.26-7.54s17.63-4.31,18.39-8.07-3.13-31.89-3.13-31.89"/><path class="cls-15" d="M1133.61,240.13l83.16-2.1,12.34,26.42S1207.25,284.08,1205,285s-55.15,13.17-55.15,13.17-60.08-18.78-59.26-18.64S1133.61,240.13,1133.61,240.13Z"/><path class="cls-43" d="M1309.62,584.35c.62,2.84,5.46,11.44,11.09,23.42-89.78.85-172.34,3.41-262.12,3.82-7.13-87.52-15.37-277.39-15.37-277.39l7.72-56.13a159.13,159.13,0,0,1,31.13-13.89c10.65-3.42,26.93-6.69,33.26-8.68-1.63,8.41.46,16,6.24,20.6a48.07,48.07,0,0,0,28.5,10.26c9.89.26,19.87-2,29.17-5.26,17.38-6.13,37.48-26,41.53-45l6.83,2.79s72,28.48,80.41,31.92-17.59,220.47-17.59,220.47Z"/><path class="cls-45" d="M1049,461.84c-.38,0-.12-6.06-.51-6-.24-11.38-2.5-78.2-2.61-86.94-.08-9.36-.16-17-.1-22.19a76.84,76.84,0,0,1,.21-8.18,63.64,63.64,0,0,1,.64,8.16c0,5.68.31,13,.71,22.23.26,8.74,1.34,82.3,1.68,93.68C1048.79,462.49,1049.22,461.82,1049,461.84Z"/><path class="cls-45" d="M1263.74,334.2a84.32,84.32,0,0,0,2.62-9A104.67,104.67,0,0,1,1287.64,286a82.41,82.41,0,0,0,6.1-7.1,33.72,33.72,0,0,0-7.07,6.21,87.92,87.92,0,0,0-21.58,39.78A32.33,32.33,0,0,0,1263.74,334.2Z"/><path class="cls-46" d="M1209.34,183.78c0,.09,0,.18,0,.27A.42.42,0,0,0,1209.34,183.78Z"/><path class="cls-15" d="M1145.34,241.7l-31.53-.1-15.86-3c-1.6.09-9.09-15.83-10.25-17.84-3.6-6.24-8.29-14.41-10.61-21.25-2.48-7.32-7.37-13.57-8.8-22.44-1-6.49-1.22-11.06,1.91-21.81a15,15,0,0,0,0-8.3c-1.63-6.06-2.39-13.2-4.39-21.33-.15-.63-1-3.72-.79-4.43,0,0-2.63-34.1,3.12-46.53s14.76-18.34,23.67-21,35.47-1.94,35.47-1.94l36.45-6.52,31.68,14.31,17.13,37.27-.74,44-3.32,39.38"/><path class="cls-16" d="M1201.25,137.87c-.06,3.4-3.73,20.47-4,23.79l17.54-.93c4.89-11.81,10.79-25.71,12.69-28.89,3-5-6.82-28.83-6.93-37.73l0-1.92c-.09-8.53-8.69-21.81-23-35.5-24.67-23.58-23.5-23.89-60.2-20-2.53.26-5,.62-7.48,1.06-23,4.19-42.34,4.48-56.45,24.33-10.17,14.32-2.7-3.49-1.48,6.2,0-19.21-3.15-3.27-1.24-5.59,11.18-13.58,17.38.32,23-.71a19.15,19.15,0,0,1,9.45.57c5.66,1.08,11,.18,16.95-.9,4.4-.8,15.5-3.7,16.45-3.94,2.91-2.17,0-13.63,5.41-14.63,12.69-2.31,30.31,2.73,36.56,5.39,7.39,3.14,25,9.9,23.26,29.5"/><path class="cls-16" d="M1101.22,234.29a1.47,1.47,0,0,0,.59-.24c3.27-2.34,3.48-3.6,5.11-4.05a9.57,9.57,0,0,1,1.73-.46c4.7-.83,7.56-1.42,20.51,6.15.26.15,16.77-2.56,17.09-2.59l8.41-4.36c1.4-.94,32.5-29.11,32.5-29.11.45-.92,6-7.55,6.22-8.42a1.73,1.73,0,0,1,.3-.16l.2-.09a1.54,1.54,0,0,1,0,.17,5.23,5.23,0,0,1,.07,1.12,18.57,18.57,0,0,1-.71,4.79c-.66,2.4-1,4.85-1.57,7.26-.2.85-.44,1.69-.71,2.52-3.57,2.41-25.77,32.55-38.8,39.59-.85.26-3.53,1.12-10.74,2-13.55,1.64-26.66,2.1-40.17-1.3a12,12,0,0,1-8-6.46c-4.33-9.09-13.9-29.31-16.57-43,4,7.86,12.42,24.7,18.23,36.16.17.35,5.34.45,5.77.56"/><path class="cls-15" d="M1204.71,184.73c14.68,13.31,16.65-10.32,16.65-10.32,9.34-12.37,8.73-25,8-33.7s-10.3-8.07-10.3-8.07c-8,1.27-11.47,5.79-16.94,33.42"/><path class="cls-16" d="M1098.53,54c13.16-.63,47.45-10.82,65.28-12.51,7.39-.69,32.52,16.85,35.85,20.92,7.62,9.32-8.62,31.78,5,61.84,4.49,9.94,9.8-7.86,15.28-1.44s7.58,9,7.58,9c3-29.28,2.91-28.25-4.42-56.84s-39-40.09-54.25-42-63.73,4.38-76.69,10.91"/><path class="cls-5" d="M1209.78,160.75a60.69,60.69,0,0,1,7.17-13.53,14.15,14.15,0,0,1,4.37-4.16l.19-.09h0c.18-.07,0-.06.1,0-.09,0-.06,0-.25,0l-.23-.08a9.27,9.27,0,0,1,1.63,3.09,18,18,0,0,1,.37,9.32c0,.08,1.29,0,1.37-.37.7-3.6.67-7.51-1-10.85a4.34,4.34,0,0,0-1-1.53.94.94,0,0,0-.72,0c-2.88.55-5.1,3.38-6.68,5.6a64.21,64.21,0,0,0-6.7,12.9c-.07.17,1.21.07,1.34-.26Z"/><path class="cls-5" d="M1211.63,162.78c2.9-.26,2.24,4.12,2.08,5.87-.11,1.17-1,5.25,1.16,5.21a2.43,2.43,0,0,0,2.07-1.74,22.28,22.28,0,0,0,1.41-5.79,22,22,0,0,0,.05-7.29c-.5-2.8-1.55-6.31-4.49-7.42-.33-.12-1.56.4-1.11.57,2.55,1,3.55,4,4.08,6.42a18.09,18.09,0,0,1,.4,5.63,37,37,0,0,1-1.1,6.36,11,11,0,0,1-.68,1.92,7.1,7.1,0,0,0-.41.7s-.17.16-.16.16c.55,0,.73-.06.53-.19a.69.69,0,0,1-.13-.11,6.91,6.91,0,0,1-.41-1.08,8.13,8.13,0,0,1,0-1.48c.06-1.24.23-2.47.3-3.71.13-2.25-.11-4.91-3-4.65-.41,0-1.47.7-.58.62Z"/><path class="cls-16" d="M1138.39,137.31c2-1.15,4.36-.37,5.74.73a5,5,0,0,1,1.66,2.3,5.25,5.25,0,0,1-1,4.84,4.89,4.89,0,0,1-5.55,1.27,5.39,5.39,0,0,1-3-6.12,4.79,4.79,0,0,1,2.11-3"/><path class="cls-16" d="M1080.33,140.8c-2.07-.94-4.37.09-5.63,1.33a5.1,5.1,0,0,0-1.41,2.46,5.26,5.26,0,0,0,1.5,4.71,4.87,4.87,0,0,0,5.65.68,5.38,5.38,0,0,0,2.31-6.4,4.79,4.79,0,0,0-2.42-2.78"/><path class="cls-16" d="M1097.49,147.54s-8.54-7.68-14.5-7.91c-8.7-.33-10.82,1.74-13.68,5.87,0,0,5.45-4.45,11.58-4.05C1086.74,141.84,1097.49,147.54,1097.49,147.54Z"/><path class="cls-16" d="M1125.5,143.94s11.73-8.31,17.68-8.78c8.68-.68,19.31,3.89,22.33,7.91,0,0-14-6.82-20.15-6.18C1139.52,137.51,1125.5,143.94,1125.5,143.94Z"/><path class="cls-16" d="M1122.63,109l-.9,6.16c-.23,1.57-.86,5.12-1.08,6.68,5.12-.58,9.86-1.89,13.13-2,6.48-.17,13.18-.8,19.42,1.15a21.91,21.91,0,0,1,7.87,4.09c.73.62,2.58,3.1,3.86,2.73.53-.16.1-2.8,0-3.07-.89-5.33-4.89-8.09-10-10.09-10.38-4.07-21.23-5.42-32.37-5.67"/><path class="cls-16" d="M1064.83,124.47l3-2.11c8.42-5.92,17.9-9.28,27.88-11.62q1.13,2.9,2.23,5.81c.57,1.48,1.67,4.11,2.23,5.59-4.75.4-9,.34-12,.88-5.88,1-12.1,2.09-17.28,5.16-.41.24-2.61,1.6-3,1.85C1065.16,128,1064.22,125.19,1064.83,124.47Z"/><path class="cls-16" d="M1125.89,215.4l-22.37,0s5.71,8.37,11.16,8.09C1118.09,223.33,1122.45,219.42,1125.89,215.4Z"/><path class="cls-17" d="M1106,181.16a9.65,9.65,0,0,0,9-1.06c.55-.39,2.46-.14,1.69.41-3.27,2.32-8.82,2.81-12.2,1.23-.33-.16-.29-.42.11-.58a2.12,2.12,0,0,1,1.45,0"/><path class="cls-17" d="M1117.71,179.7a15.68,15.68,0,0,1,5.46-1.71,1.29,1.29,0,0,1,.86.23c.17.14.21.34,0,.47a5.93,5.93,0,0,1-3,.88,1.14,1.14,0,0,1-1-.33c-.18-.25.12-.44.38-.45a4.78,4.78,0,0,0,2.42-.71l.87.69a14.08,14.08,0,0,0-4.88,1.55,1.18,1.18,0,0,1-1-.06c-.21-.12-.44-.39-.14-.56"/><path class="cls-17" d="M1125.31,179.54c2.24-.17,4.81-1.31,5.82-3.09,1.52-2.69-.24-6.64-3.12-8.15-.31-.16-.16-.41.14-.49a1.79,1.79,0,0,1,1.21.19,7.92,7.92,0,0,1,4,7c-.22,2.3-2.28,4-4.92,4.8a12,12,0,0,1-2.46.49c-.34,0-1-.05-1.14-.31s.12-.4.44-.43"/><path class="cls-17" d="M1101.84,180.21a.3.3,0,0,0-.3-.42,2.57,2.57,0,0,1-1.77-.49l-.55.78a7.73,7.73,0,0,1,3.57,1.09.61.61,0,0,0,.71-.15c.14-.13.28-.43,0-.57"/><path class="cls-17" d="M1103.55,180.45a8.6,8.6,0,0,0-4-1.2.75.75,0,0,0-.59.3.33.33,0,0,0,0,.47"/><path class="cls-17" d="M1097.21,180.77a4.59,4.59,0,0,1-4-2.57,6.87,6.87,0,0,1,1.35-7.45.27.27,0,0,0-.13-.47.83.83,0,0,0-.76.29,7.61,7.61,0,0,0-2,6.37,5.27,5.27,0,0,0,3.59,4.36,5.41,5.41,0,0,0,1.64.26.78.78,0,0,0,.7-.4c.1-.29-.11-.4-.32-.39"/><path class="cls-16" d="M1091.71,59.72a8.14,8.14,0,0,1,3.8-1.45l1.48-.53c4.44-.2,8.89-.27,13.32-.21a9.67,9.67,0,0,1,3.26.43l.31.14c3.28-.23,6.57-.42,9.86-.53l1.52.35a9.26,9.26,0,0,1,3.9,1,1.29,1.29,0,0,1-.23,2.41c-1.33.48-3.35-.17-4.25.62s1,2.06.43,3.08c-.36.63-1.54.88-2.3,1.35s-1.18,1.44-2,2a4.61,4.61,0,0,1-3.47.57c-1.24.14-2.93-.3-3.29.57a1.46,1.46,0,0,0,0,.72,2.48,2.48,0,0,1-1.81,2.34,4.08,4.08,0,0,1-3.52-.38c-.89-.62-1.24-1.6-2.19-2.18a8.22,8.22,0,0,0-1-.45,3.31,3.31,0,0,1-1.14.72,4.07,4.07,0,0,1-3.52-.38c-.89-.62-1.24-1.61-2.19-2.18s-2-.66-2.4-1.37c-.66-1.12,1.23-2.64.17-3.56s-2.93.07-4.29-.36A1.56,1.56,0,0,1,1091.71,59.72Z"/><path class="cls-16" d="M1127,237.67a6.73,6.73,0,0,1-3.16.92l-1.24.33q-5.39-.19-10.76-.7a7.41,7.41,0,0,1-2.6-.56,1.36,1.36,0,0,1-.24-.13c-2.67,0-5.33-.08-8-.21l-1.2-.38a7.43,7.43,0,0,1-3.08-1,1,1,0,0,1,.34-1.94c1.1-.29,2.69.36,3.47-.22s-.67-1.72-.15-2.51c.34-.49,1.3-.61,1.95-.94s1.05-1.09,1.77-1.52a3.71,3.71,0,0,1,2.83-.24c1,0,2.35.44,2.7-.24a1.3,1.3,0,0,0,0-.59,2,2,0,0,1,1.61-1.77,3.34,3.34,0,0,1,2.82.53c.68.56.9,1.38,1.63,1.91a6.2,6.2,0,0,0,.77.43,2.67,2.67,0,0,1,1-.51,3.33,3.33,0,0,1,2.82.53c.68.56.9,1.38,1.63,1.91s1.56.66,1.85,1.26c.45.94-1.17,2-.37,2.86s2.36.13,3.44.57A1.27,1.27,0,0,1,1127,237.67Z"/><path class="cls-47" d="M1225.82,133.69a8.38,8.38,0,0,0,3.9-.91,2.86,2.86,0,0,0,1.34-3.44c-.9-1.93-4.48-2.2-4.3-4.33,1.72-2.11,5.91-1.37,6.86-3.93.77-2.06-1.46-3.91-3.37-5,1.3-1.28.93-.13,2.7-.62s2.68-4.79,1.65-6.31c-1.17-1.71-1.77-.3-1.15-2.28,1.41-.46-1.72-1.61-.66-2.65a3.34,3.34,0,0,0,.76-4c-1-1.5-.82-2.63-.81-4.41,0-1.53-3-1.74-2.1-3,1.61-2.26-.67-5.2-2.77-7,1.2-.84-.28-1.07.46-2.32a3.51,3.51,0,0,0-.13-4.08A15.37,15.37,0,0,0,1226,77.9c-2.92-2.24-1.26-6.86.62-10a5.27,5.27,0,0,1-5.58-4.21c-.2-1.2,0-2.47-.44-3.59s-2.11-1.87-2.86-.92"/><path class="cls-16" d="M1225.1,134.35c2.62-.19,7.78-.91,7.81-4.5,0-1.27-1-2.07-2-2.67-.76-.46-2.39-1.08-2.47-2.14s1.74-1.2,2.46-1.41a8.89,8.89,0,0,0,3.5-1.65c2.67-2.38-.45-5.21-2.59-6.45l-.06.42c1-1-2.62-.06-1.4.22a3.92,3.92,0,0,0,.9.08,7.43,7.43,0,0,0,2.46-.49,4.24,4.24,0,0,0,2.59-2.8,5.88,5.88,0,0,0,.15-3.88,3.36,3.36,0,0,0-1.14-1.34,4.28,4.28,0,0,1-.43-.19c-.11-.24.14-.76.21-1l-.68.5c.74-.31,1.35-.73.79-1.47-.24-.32-.61-.54-.81-.89-.28-.5-.07-.62.27-1a3.64,3.64,0,0,0,.77-3.48,19.47,19.47,0,0,1-.87-1.92,7.34,7.34,0,0,1-.17-2c0-1.13-.07-1.71-1-2.38a4.88,4.88,0,0,1-1-.69c-.33-.44-.12-.57.11-1,1.36-2.62-1.2-5.37-3-7l-.06.43a1.15,1.15,0,0,0,.55-1.32c-.18-.93.26-1.37.49-2.27.54-2.12-.52-3.28-2.23-4.31-3.79-2.28-1.69-7.2,0-10.17.24-.42-.8-.37-.91-.36a4.7,4.7,0,0,1-4-2.24c-.94-1.45-.6-3-.91-4.59-.57-2.88-4.42-2.93-6.22-1.11-.51.52.46.54.78.53a3.81,3.81,0,0,0,2.2-.79c-1.46.07-1.88.23-1.28.48a.94.94,0,0,1,.28.15,3.85,3.85,0,0,1,.6.61,3.89,3.89,0,0,1,.43,1.81,7.44,7.44,0,0,0,.82,3.8,6.14,6.14,0,0,0,5.82,2.66l-.9-.36c-1.53,2.6-3.52,6.87-1.24,9.61,1.28,1.53,3.63,1.73,3.53,4.18,0,.92-.73,1.62-.79,2.49,0,.62.49,1-.1,1.46-.15.12-.21.29-.06.42a9.12,9.12,0,0,1,3.11,4.37,3.31,3.31,0,0,1-.42,2.38c-.18.41-.25.64,0,1,.56.82,1.88.89,2.06,2,.12.74,0,1.52,0,2.26a6.53,6.53,0,0,0,.87,2.41,2.81,2.81,0,0,1,.11,2.29c-.24.67-1,1.17-1.15,1.83s.75,1.68,1.21,2c.09.06.62-.38.19-.16a1.62,1.62,0,0,0-.39.25,1.92,1.92,0,0,0-.35.93c-.07.46,0,.52.3.79a3.1,3.1,0,0,1,1.47,3,6.66,6.66,0,0,1-.54,2.37c-.13.31-.4.61-.51.91s-.67.32.32.07.48,0,.33-.16c-.46-.34-1.55,0-2,.08a4.94,4.94,0,0,0-2.22,1.24c-.11.1-.26.32-.07.43a7.8,7.8,0,0,1,3.08,2.72,2.26,2.26,0,0,1-.53,3,11,11,0,0,1-2.58.84,8.57,8.57,0,0,0-2.91,1.46c-1.81,1.53.84,2.89,2,3.62.91.55,1.87,1.26,1.82,2.45a2.67,2.67,0,0,1-.84,1.76,3.59,3.59,0,0,1-2.24.54c-.58,0-1.86.23-2.2.78s.31.56.77.53Z"/><path class="cls-48" d="M1218.89,65c-.39-1.61-2-9.3-2.42-10.91a3.64,3.64,0,0,1-4.78-3c-.08-1.09.25-2.46-.65-3.08s-2.15.23-3.27.19c-2.49-.08-2.91-4.11-5.26-4.94-1.47-.51-3.14.46-4.63,0-2.26-.68-2.68-4-4.87-4.95-1.51-.62-3.27.2-4.85-.21-3.43-.87-4.69-5.89-8.23-5.87-1.3,0-2.48.91-3.78.82-2.31-.17,1.09-2.64-1.21-2.93-2.11-.26-3.75,2-5.87,2.27-3.44.43-5.84-5.29-9-3.92-1.37.58-2.09,2.17-3.43,2.81-3.14,1.51-6.51-3-9.88-2.13-1.69.44-2.88,2.15-4.61,2.4-2.69.4-4.82-2.9-7.52-2.65-2.16.2-3.71,2.61-5.87,2.53-1.52-.06,2.17-1.8.67-2-2.56-.33-4.42,2.53-6.94,3.11-2.11.48-4.2-.71-6.32-1.2s-6.66,3.71-6.69,5.87"/><path class="cls-16" d="M1220.54,64.6c-.87-3.62-1.55-7.29-2.42-10.92-.17-.71-1.92-.17-2.25,0,.39-.14-.35-.18-.46-.22a3.28,3.28,0,0,1-.87-.5,3.19,3.19,0,0,1-1-1.3c-.48-1.17.16-2.59-.55-3.67s-2.36-.91-3.5-.67c-.58.13-.88.32-1.39,0A4.29,4.29,0,0,1,1207,46c-1.26-1.86-2.17-3.6-4.71-3.58-1.25,0-2.7.66-3.79-.19a11.58,11.58,0,0,1-2.06-2.74,4.5,4.5,0,0,0-2.43-1.93c-1.57-.46-3.23.3-4.75-.16-2.11-.63-3.31-3-4.87-4.43-1.94-1.73-4.18-1.6-6.54-.84-1,.32-.92.14-.63-.67.2-.6.46-1.21-.11-1.67-.8-.65-2.39-.39-3.27-.18a16,16,0,0,0-3.82,1.82c-.47.26-.38.29-.79.24a3.31,3.31,0,0,1-1.37-.67c-.87-.58-1.62-1.31-2.44-1.95a5.56,5.56,0,0,0-5.71-1.09,7.89,7.89,0,0,0-3,2.16c-.21.21-.51.64-.79.75s.67,0-.21,0a5.26,5.26,0,0,1-1.72-.6c-2.31-1.05-4.33-2.29-7-1.76a9.52,9.52,0,0,0-3.56,1.66c-.42.29-.85.71-1.18.71a4.14,4.14,0,0,1-1.79-.77,17,17,0,0,0-3-1.63,6.48,6.48,0,0,0-4.08.13,15.71,15.71,0,0,0-3.26,1.8c-.07,0-.74.37-.74.4.08-1.17.83.21.6.28.21-.06.65-.6.8-.74,2.2-2.08-2.4-1.55-3.48-1.16a18.75,18.75,0,0,0-3.76,2.17,2.41,2.41,0,0,1-1.7.59,14.7,14.7,0,0,1-3.07-.85,7.59,7.59,0,0,0-7.11,1.4c-1.64,1.2-3.7,3.1-3.84,5.26,0,.66,3.22.22,3.29-.89.12-1.78,2.32-3.71,3.75-4.51a1.87,1.87,0,0,0,.31-.17c.4-.32,0,.08-.22,0,.64.23,1.33.39,2,.6a10.72,10.72,0,0,0,4.85.66,9.46,9.46,0,0,0,3.62-1.35c.53-.32,1-.67,1.54-1a8.12,8.12,0,0,0,1.28-.79h.16a.54.54,0,0,1-.27-.14s-.07.07-.11.1a4.28,4.28,0,0,0-.75.66c-.34.34-.74.74-.32,1.16.68.66,2.64.07,3.35-.17a17.62,17.62,0,0,0,3.38-1.85c.61-.36.48-.36,1.12-.16a6.72,6.72,0,0,1,1.5.73,12.62,12.62,0,0,0,3.32,1.67,6.27,6.27,0,0,0,3.38-.18,8.61,8.61,0,0,0,2-1,8.34,8.34,0,0,1,1.76-1.18c.8-.23,2,.49,2.79.85a18.88,18.88,0,0,0,3.19,1.41,6.91,6.91,0,0,0,6.73-2c.25-.24.48-.51.73-.75l.28-.27c.42-.26.35-.3-.2-.12a3.78,3.78,0,0,1,.87.32,16.25,16.25,0,0,1,2.52,1.94,6.36,6.36,0,0,0,5.47,1.77,10.64,10.64,0,0,0,3.56-1.5c.58-.35,1.52-1.2,1.39-.13-.06.54-.59,1-.4,1.63.26.8,1.5.79,2.17.76a8.72,8.72,0,0,0,2.42-.52,2.27,2.27,0,0,1,1.4-.21,6,6,0,0,1,2.49,1.9c1.43,1.57,2.74,3.43,4.95,3.88,1.37.27,2.75-.24,4.08,0s2,1.57,2.66,2.56a5.8,5.8,0,0,0,2.18,2.32c1.61.8,3,0,4.66.13,2.31.16,2.78,3.65,4.61,4.68a3.41,3.41,0,0,0,1.43.4c.82.07,1.56-.3,2.35-.3.53,0,.6-.07.83.52a2.88,2.88,0,0,1,.13,1,6.26,6.26,0,0,0,.21,2.28c1.09,2.76,4.4,3,6.83,2.12l-2.25,0c.87,3.62,1.54,7.29,2.41,10.91.21.89,3.52,0,3.3-.88Z"/><path class="cls-49" d="M1183.85,45.36c12.65,4.73,17.86,9.1,24.24,21l-72.35-24.07a64.43,64.43,0,0,1,15.55-1.82C1164.8,40.81,1171.2,40.63,1183.85,45.36Z"/><path class="cls-16" d="M1182.53,46.14c5.06,1.9,10.13,4.11,14.26,7.67s7.08,8.22,9.65,13l3-1.22-24.51-8.16L1146,44.48l-8.92-3L1136,43.1a62.53,62.53,0,0,1,13.76-1.72c3.92,0,7.86.13,11.78.33a70.26,70.26,0,0,1,21,4.43,2.78,2.78,0,0,0,2.33-.31c.38-.24,1.06-1,.3-1.26a74.25,74.25,0,0,0-22.37-4.69c-4.22-.22-8.49-.4-12.71-.33a72.84,72.84,0,0,0-14.55,1.94c-.4.09-2.3,1.19-1.1,1.59l24.51,8.16,38.91,12.94,8.92,3c.51.17,3.55-.15,3-1.23-2.64-4.9-5.63-9.72-9.89-13.39s-9.46-6-14.69-8a2.75,2.75,0,0,0-2.33.32C1182.45,45.13,1181.77,45.86,1182.53,46.14Z"/><path class="cls-49" d="M1080.57,47.71c.35-.16.69-.32,1-.51,1.69-.94,3-3.52,1.4-4.65,3.49,1.36,5.92-4.69,9.66-4.68a21.91,21.91,0,0,1,3.15.69,4.92,4.92,0,0,0,5.41-4.94,11.9,11.9,0,0,0,9,.88l25.51,7.79c-11.12,2.5-22.41,6.81-33.1,8.29-5.15.72-10.39,1.61-15,4.06-3.34,1.79-7.6,2.81-11,4.71C1077.93,55.46,1079.21,51.57,1080.57,47.71Z"/><path class="cls-16" d="M1081.27,48.57a7.1,7.1,0,0,0,3.68-3.21,2.83,2.83,0,0,0-.67-3.7L1082,43.58a6.1,6.1,0,0,0,5.61-1.24c1.29-1,2.65-2.87,4.25-3.31,1-.26,2.16.44,3.13.6a7,7,0,0,0,3.84-.53,6.32,6.32,0,0,0,4-5.63l-2.94,1.05a14.38,14.38,0,0,0,10.58,1l-1.25,0,22.33,6.82,3.18,1,.7-2c-8.3,1.88-16.37,4.64-24.65,6.64-7.72,1.86-16,1.94-23.26,5.55-3.78,1.9-7.9,3-11.62,5l2.36.7c1.29-3.88,2.58-7.77,3.93-11.63.27-.77-1-1-1.48-.94a2,2,0,0,0-1.84,1.25c-1.36,3.86-2.64,7.75-3.93,11.63-.39,1.16,1.88,1,2.36.71,3.24-1.76,6.83-2.68,10.14-4.26a40.74,40.74,0,0,1,5.16-2.26,45.11,45.11,0,0,1,5.84-1.4c3.93-.69,7.87-1.18,11.76-2.08,4-.93,8-2.08,12-3.23,4.56-1.31,9.12-2.63,13.74-3.67.93-.21,2.16-1.6.7-2l-24.52-7.5a7.21,7.21,0,0,0-1.36-.37,6.63,6.63,0,0,0-1.87.34,9.77,9.77,0,0,1-2.09.16,10.39,10.39,0,0,1-4.37-1.17c-.74-.38-3-.15-3,1.05,0,1.64-1,3.89-3,3.7-1.13-.11-2.16-.67-3.31-.71a6.49,6.49,0,0,0-2.68.51,14,14,0,0,0-3.88,2.75c-.73.64-1.7,1.84-2.72,1.49s-3.62.77-2.26,1.92-1,3-1.84,3.41c-.55.27-1.28.91-.82,1.56S1080.7,48.85,1081.27,48.57Z"/><path class="cls-50" d="M1143.89,95.41s-34.63-3.33-58,2.52"/><path class="cls-47" d="M1080.8,213a34.31,34.31,0,0,0,4,9.39c-1.22.41-.7,2.32.28,3.17s2.31,1.78,2,3c-.09.44-.38.82-.46,1.26-.26,1.39,1.46,2.24,2.82,2.58-.92.73-.12,2.22.81,2.94s2.13,1.64,1.82,2.77c-.15.56-.66,1-.64,1.6,0,1.21,2,1.19,2.69,2.19.39.59.23,1.36.4,2a2.25,2.25,0,0,0,3.44,1.13c.29,2.45,1.37,5.6,3.83,5.45,1.53-.09,3-1.57,4.36-1,.87.37,1.26,1.41,2.06,1.91,2.69,1.69,6-3.94,8.65-2.24,1.44.91,1.41,3.43,3,4s2.88-1.29,4.48-1.48,3.54,1.53,5.09.71c.68-.36,1-1.1,1.62-1.6,1.3-1.15,2.66.56,4.32,1.06,3,.9,3.23-1.24,3.23-1.24.86-2.09,2-1.94,4-.85a5,5,0,0,0,2,.95c1.84.07,2.67-3,4.51-2.81a5.89,5.89,0,0,1,1.83.83c2.24,1,5-2,3.74-4.12a5.14,5.14,0,0,0,4.89-5.57,4.65,4.65,0,0,0,5.79-4.09c3.06.82,6.26-2.84,5-5.76a3.68,3.68,0,0,0,4.69-3.42c0-1.17-.56-2.65.4-3.31.64-.44,1.5-.15,2.27-.17a2.94,2.94,0,0,0,2.45-4c3,.72,5.8-3.52,3.92-6,2.39.51,4.51-2.82,3-4.77,3.27-.13,5.45-4.52,3.59-7.21l-37.5,39.17-9.72,4.53s-34.55,3.43-41.1.54S1080.8,213,1080.8,213Z"/><path class="cls-16" d="M1079.15,213.41a36.06,36.06,0,0,0,4,9.39l.69-.68a1.93,1.93,0,0,0-1.27,2.51c.41,1.31,1.65,1.81,2.44,2.83a1.83,1.83,0,0,1,.25,2,2.11,2.11,0,0,0-.16,1.61c.46,1.16,1.94,1.67,3,2l-.14-.54c-1.69,1.73.83,3.23,1.88,4.36a1.66,1.66,0,0,1,.55,1.69c-.15.51-.55.87-.57,1.43,0,.77.55,1.15,1.18,1.46.84.41,1.58.67,1.74,1.71s.13,1.74.93,2.38c1.52,1.22,4.11.62,5.56-.4l-2.91.37c.33,2.54,1.37,5.72,4.42,5.7a7.75,7.75,0,0,0,2.51-.47c.36-.13.71-.28,1.06-.43s.56-.12.93.26c.91.95,1.54,1.84,3,1.91,2.46.13,5-1.45,6.87-2.85.63-.46-.32.18-.29,0s.51.17.55.19a3.51,3.51,0,0,1,1.18,1.62c.5,1.06,1,2.15,2.21,2.47a6.62,6.62,0,0,0,4.54-1,3.54,3.54,0,0,1,.85-.45,4.91,4.91,0,0,1,.87.29,8.54,8.54,0,0,0,2.33.62,5.67,5.67,0,0,0,4.41-1.63c.13-.14.63-.58.65-.75-.22,1.92-1.87-.28-1,.26.16.1.35.16.51.25a15.65,15.65,0,0,0,2,1c2,.69,5.32.34,6.29-1.82.1-.2.13-.41.23-.62s.48-.67.47-.71c.12.33-1.41-.05-1.19.42,0,0,.82.32.76.29,1.46.67,2.43,1.59,4.15,1.34a6.5,6.5,0,0,0,3.89-2.28,5,5,0,0,0,.65-.65c.12-.19.87-.33-.42,0-1,.29-.36.26.12.52a4.46,4.46,0,0,0,2,.65c2.59.07,7.08-2.23,5.5-5.46l-2.35,1.13c3.61-.14,7.6-2.66,7.24-6.69l-3,1.1c3.51,1,8.49-1.23,8.78-5.19l-3,1.1c3.76.81,9.67-2.35,8-6.86l-3,1.09a7.07,7.07,0,0,0,5.66-1c1.74-1.15,2.11-2.68,1.9-4.64a11.82,11.82,0,0,0,.06-1.4c.14-.25,0-.24-.35,0s-.55.18-.21.18a2.51,2.51,0,0,0,1,0,6.81,6.81,0,0,0,3-.87,3.52,3.52,0,0,0,1.82-4.31l-3,1.1a7,7,0,0,0,6.12-1.89,4.19,4.19,0,0,0,.8-5.21l-3,1.1a6.38,6.38,0,0,0,5.27-1.57,3.42,3.42,0,0,0,.77-4.3l-2.35,1.13a7.44,7.44,0,0,0,5.6-2.87,4.94,4.94,0,0,0,.34-5.48c-.49-.77-2.67.06-3.14.56L1172.57,218l-20.15,21.06a3.32,3.32,0,0,0-.37.38c-.27.39-.06-.44.41-.22-.09,0-.65.31-.73.35l-1.85.86-7.13,3.32,1.66-.45A265.13,265.13,0,0,1,1112.8,245a36.48,36.48,0,0,1-7.45-.65,9,9,0,0,1-4.48-3c-4.48-4.79-7.94-10.65-11.3-16.24-2.48-4.12-4.87-8.28-7.13-12.52-.44-.84-3.58.34-3.29.88,1.89,3.55,3.88,7,5.92,10.5a129.65,129.65,0,0,0,11.21,16.81c1.34,1.63,2.89,3.55,4.88,4.43a18.77,18.77,0,0,0,6.36,1.09,164.37,164.37,0,0,0,20.34-.36q7.32-.45,14.63-1.14a13.46,13.46,0,0,0,4.37-1.52c2.44-1.14,4.91-2.22,7.32-3.41a6.32,6.32,0,0,0,1.75-1.51l3.55-3.7,11.87-12.4,20.7-21.63.37-.38-3.14.55a4.25,4.25,0,0,1,.48,3.59,5.36,5.36,0,0,1-.81,1.6,4.36,4.36,0,0,1-.63.66c-.18.15-.59.26-.28.23-.23,0-2.73.56-2.35,1.13a2.59,2.59,0,0,1,.36,2.24,3.08,3.08,0,0,1-.5,1,3.2,3.2,0,0,1-.43.47c-.45.29-.27.27.52-.06-.34,0-3.46.42-3,1.09a3.3,3.3,0,0,1,.41,3,4.2,4.2,0,0,1-.72,1.31c-.13.17-.5.4-.6.59l-.16.11c.52-.06.57-.1.15-.13s-3.34.28-3,1.1a2.55,2.55,0,0,1,.09,1.92c-.13.34-.37.56-.51.88l-.22.22c.65-.1.69-.15.12-.16a5.35,5.35,0,0,0-4.16,1.12c-.91.88-.55,2.09-.46,3.21a3.07,3.07,0,0,1-.48,2,2.87,2.87,0,0,1-.62.68c-.2.11-.19.15,0,.13a1.81,1.81,0,0,1-.61-.14c-.46-.13-3.29.29-3,1.1a3.81,3.81,0,0,1-.2,3.1,4.35,4.35,0,0,1-.9,1.19c-.51.47-.42.5-1,.38-.7-.15-2.93.14-3,1.09-.11,1.47-1.2,3.43-2.79,3-.58-.16-3.08.19-3,1.09.13,1.47-.75,4.37-2.53,4.44-.29,0-2.67.49-2.36,1.13.66,1.34,0,2.15-.73,3.2l-.23.17c.84-.09,1-.17.49-.24a5,5,0,0,0-1-.52,3.64,3.64,0,0,0-2-.45,5.86,5.86,0,0,0-3.47,1.42c-.4.35-.74.77-1.11,1.15-.07.07-.53.42-.54.5,1.28-.07,1.5-.23.66-.49l-.49-.31c-2.08-1.28-5-1.87-6.91.16a3.54,3.54,0,0,0-.89,1.7c0,.1-.16.19-.17.28l-.12.11c1.06-.23,1.24-.38.55-.43a9.61,9.61,0,0,0-1.14-.43c-.41-.21-.78-.46-1.19-.67a4.44,4.44,0,0,0-3.34-.27,4.76,4.76,0,0,0-1.88,1,6.49,6.49,0,0,0-.66.73c-.14.17-.29.33-.44.48.83-.13,1-.24.37-.32a6.73,6.73,0,0,0-4.18-.74,8.39,8.39,0,0,0-2.19.66c-.31.15-.61.31-.91.48l-.59.34c-.44.21-.35.2.26,0,0,.15-1-1-1-1-.28-.49-.47-1-.74-1.51a3,3,0,0,0-2.43-1.79c-2.46-.25-4.54,1.25-6.5,2.48-.18.12-.41.21-.58.35-.47.38-.2-.18.14,0A5.7,5.7,0,0,1,1109,250c-1.16-1.34-2.46-1.5-4.16-1.07-.83.21-1.61.75-2.44.93.61-.13,0-.1-.28-.23a2.78,2.78,0,0,1-.85-.71,8.41,8.41,0,0,1-1.53-4.31c-.1-.79-2.59.15-2.91.37q1.29-.15.42-.36a1.67,1.67,0,0,1-.35-.24,1.64,1.64,0,0,1-.55-.77c-.27-.7,0-1.49-.44-2.17-.57-.93-2.19-.9-2.61-1.85-.3-.69.53-1.42.59-2.11a2.06,2.06,0,0,0-.57-1.5c-.64-.76-3.48-2.44-2.24-3.71.23-.24.18-.45-.15-.54-.89-.25-2.34-.73-2.52-1.81s.8-1.76.33-2.85c-.41-.93-1.33-1.46-2-2.14a3,3,0,0,1-.81-1.35,2,2,0,0,1-.08-.54c0-.26.22-.56,0-.47.12-.06.85-.42.69-.68a36.08,36.08,0,0,1-4.06-9.39C1082.23,211.76,1078.94,212.64,1079.15,213.41Z"/><path class="cls-51" d="M1200.63,139.94c-3.43-3.36.79-9.82-1.88-13.82-.61-.92-1.56-1.62-2.08-2.6-1.45-2.78,1.08-6.33-.13-9.22-.54-1.29-1.77-2.23-2.2-3.57-.82-2.55,1.57-5.15,1.28-7.82-.33-3-3.93-5.51-2.8-8.3.55-1.36,2.11-2.14,2.59-3.53.83-2.43-1.91-5.58-.08-7.38.63-.62,1.65-.79,2.17-1.5,1-1.45-.73-3.21-1.43-4.85s-.22-3.66-.45-5.5-1.95-3.84-3.63-3.07c1-2.9-.83-10.77-3.88-10.42-1.5.18-3.42.92-4.22-.36-.57-.92,0-2.19-.43-3.15-1.2-2.47-5.41,1.24-7.6-.41-.59-.45-.86-1.2-1.37-1.75-1.13-1.24-3.12-1.13-4.74-.65s-3.25,1.22-4.91.92-3.08-2.33-2.06-3.67a13.16,13.16,0,0,1-5.49,2.18c-2,.15-4.2-.87-4.75-2.78-.5,2.79-4.76,3.9-6.56,1.71-.72-.88-1.21-2.18-2.33-2.31a2.55,2.55,0,0,0-1.43.41c-2,1.09-4.61,7.18-5.68,9.16l.82-12.3,34.31-5L1200,57.1l10.74,35.68-11.54,49.45"/><path class="cls-16" d="M1202.16,139.3c-1.82-1.9-1.28-4.69-1-7.05s.49-5-1.07-7.06c-.85-1.13-1.93-1.91-2.16-3.39a14.53,14.53,0,0,1,.47-4.3,6.49,6.49,0,0,0-.36-4c-.68-1.34-2-2.35-2.18-3.92-.14-1.38.54-2.73,1-4a6.39,6.39,0,0,0,.16-4.33c-.74-2-3.3-4.28-2.6-6.57.41-1.32,1.82-2.06,2.45-3.27a4.88,4.88,0,0,0,.16-3.47,8.63,8.63,0,0,1-.6-3.28c.22-1.32,2.17-1.54,2.83-2.72s-.09-2.57-.74-3.67a9.23,9.23,0,0,1-1.13-5.35,5.41,5.41,0,0,0-1.44-4.22,4.22,4.22,0,0,0-4.54-.57l2.29.44c.72-2.36.13-5.34-.75-7.58a6.45,6.45,0,0,0-2-3c-1.13-.8-2.42-.59-3.71-.37-.79.15-1.53.37-1.81-.6s.15-1.86-.3-2.76c-.58-1.19-2-1.33-3.18-1.2s-2.5.8-3.75.85c-.71,0-1.06-.45-1.45-1a4.37,4.37,0,0,0-1.93-1.78c-1.85-.77-4-.32-5.86.27-1.1.35-2.52,1-3.62.39-.8-.48-1.52-1.63-1-2.53.84-1.33-2.1-.74-2.55-.48-1.32.77-2.88,1.85-4.49,1.74a3.52,3.52,0,0,1-3.08-2.32c-.38-1.1-3.08-.26-3.29.65a1.84,1.84,0,0,1-3.39.86c-.74-.86-1.13-1.94-2.26-2.39a4.8,4.8,0,0,0-3.88.58c-1.68.94-2.71,2.72-3.62,4.35s-1.8,3.57-2.74,5.34l3.18-.19.82-12.31-1.88,1.1,30-4.39,4.26-.62-1.08-.1,22.82,13.49,4.63,2.74c.09.06.76.56.87.51-.22.09-.41-.64-.17.16l3.39,11.25,4.89,16.28,1.72,5.69c.15.52.29,1.06.47,1.57.09.26.09.53.12.21a16.55,16.55,0,0,1-.54,2.29l-1.21,5.18-3.65,15.64c-2,8.6-4.24,17.18-6,25.83,0,.16-.08.32-.11.47-.28,1.18,3,.67,3.29-.42l7.53-32.28,3.71-15.92a3.44,3.44,0,0,0,.14-2l-1.86-6.17-6.23-20.71L1202,57.8a5.55,5.55,0,0,0-.34-1.14,3.15,3.15,0,0,0-1.14-.82l-16.14-9.54-8.39-5c-1.2-.71-2.64-2-4.11-1.88s-3.18.47-4.75.7l-10.05,1.47-18.33,2.67-1.15.17c-.51.08-1.84.42-1.88,1.1l-.83,12.3c-.08,1.33,2.8.53,3.18-.19,1-1.81,1.8-3.69,2.82-5.48a16.1,16.1,0,0,1,1.77-2.7,1.87,1.87,0,0,0,.34-.35c.17-.33.35,0,.06-.14s.2.39.28.47a8.54,8.54,0,0,1,.56.78,5,5,0,0,0,5.48,2.07c2.09-.4,4.3-1.64,4.81-3.85l-3.29.65c.73,2.15,2.92,3.16,5.08,3.26,2.83.12,5.44-1.25,7.81-2.63l-2.55-.49a2.83,2.83,0,0,0,1,3.89c1.65,1.17,3.9.82,5.72.3s3.83-1.63,5.23.15c.5.64.8,1.33,1.54,1.74a4.22,4.22,0,0,0,2,.44c1.49,0,2.81-.74,4.25-.86s.77,2.3,1.06,3.19c.56,1.67,2.68,1.62,4.09,1.42.4-.06.8-.15,1.2-.22.13,0,.73,0,.37-.07s0,.06,0,0a3.39,3.39,0,0,1,1,1,11.35,11.35,0,0,1,1.56,8.71c-.32,1.06,1.94.56,2.29.43-.72.26-.19.2.19.54a3.26,3.26,0,0,1,.73,1,4.44,4.44,0,0,1,.46,1.79c.14,1.7-.26,3.44.41,5.07.47,1.14,1.52,2.17,1.71,3.41.22,1.42-1.67,1.65-2.43,2.59-1.53,1.9.06,4.19.2,6.26.1,1.43-.76,2.18-1.65,3.16a4.15,4.15,0,0,0-1.28,3.26c.22,2.34,2.33,4,2.89,6.27.69,2.8-1.86,5.26-1.26,8.08.31,1.42,1.47,2.35,2.13,3.58a5.93,5.93,0,0,1,.3,3.88,18.85,18.85,0,0,0-.47,3.73,5.47,5.47,0,0,0,1.71,3.61c2.07,2.3,1.84,4.8,1.51,7.7-.29,2.52-.58,5.27,1.32,7.26.77.8,3.9-.4,3.06-1.28Z"/><path class="cls-47" d="M1201.2,162.26l-2.92.33a1.35,1.35,0,0,1-.89-.09c-.65-.39-.29-1.36-.09-2.1.44-1.7-.52-3.42-1.27-5s-1.27-3.65-.13-5c.61-.71,1.64-1.18,1.74-2.1.13-1.21-1.37-1.82-2.18-2.72a3,3,0,0,1,1.3-4.58s-2.14-2.31-1.41-6.92,2.06-9.53,2.06-9.53l6.83-3.89Z"/><path class="cls-16" d="M1201.49,161.56a8.21,8.21,0,0,1-2.44.28c-.58-.21-.34-.78-.24-1.27a5.7,5.7,0,0,0-.13-3.37c-.71-2-2.94-4.95-1.17-7,.59-.68,1.49-1.1,1.73-2a2.16,2.16,0,0,0-1-2.15c-.73-.63-1.51-1.11-1.7-2.13-.12-.66.07-2.16.84-2.44.31-.11,1.38-.57,1-1-1.62-1.81-1.6-4.84-1.24-7a91.3,91.3,0,0,1,2-9.08l-.66.56,6.83-3.89-2.62.15-2.67,36.47-.37,5.12c0,.6,3.21.19,3.29-.88l2.67-36.48.37-5.12c.06-.74-2.39,0-2.62.15l-4.46,2.54c-1.11.63-2.85,1.2-3.19,2.51a54.33,54.33,0,0,0-2,10.38,8.22,8.22,0,0,0,1.64,5.79l1-1.05c-2.05.73-4,3.09-2.53,5.26.59.89,2.12,1.42,2.33,2.52s-1.7,2-2.13,3.07c-1.26,3.07,2,5.64,1.93,8.6,0,1-1,2.56.29,3.19a3.25,3.25,0,0,0,1.75.13c1-.1,2.08-.23,3.12-.35.47-.06,1.82-.38,1.92-1S1201.82,161.52,1201.49,161.56Z"/><path class="cls-51" d="M1086.46,53.17c.41.95-.89,1.73-1.92,1.85s-2.37.33-2.53,1.35c-.11.63.35,1.26.25,1.89-.31,1.93-4,.32-5,2-.76,1.25.83,3.25-.29,4.2-.53.45-1.32.28-2,.34a3,3,0,0,0-2.57,2.2c-.21.88,0,1.87-.51,2.63-.59.91-1.84,1.05-2.83,1.51-2.59,1.21-3.16,4.6-3.19,7.46s0,6.14-2.2,8c-2-1.71.12-3.49,1.71-5.6a15.47,15.47,0,0,0,1.48-1.88,1.79,1.79,0,0,0-.22-2.2c-.31-.24-.74-.35-.93-.7-.52-1,1.38-1.26,2.27-1.94,1.11-.87.43-2.65-.43-3.77s-1.88-2.58-1.16-3.79,2.29-1.15,2.94-2.21-.22-2.77.09-4.14c.42-1.82,2.71-2.37,4.57-2.55a2.93,2.93,0,0,1,1.25-4.47c.7-.22,1.55-.22,2-.79.68-.86,0-2.39.78-3.11s1.89-.06,2.64-.6c1.19-.87-.28-2.88.38-4.2.86-1.74,4.69-1.09,4.49-3"/><path class="cls-16" d="M1084.81,53.61c.23.85-.69.63-1.35.79a5.42,5.42,0,0,0-2.39,1.08,2,2,0,0,0-.72,1.71,6.22,6.22,0,0,0,.24,1.32c.12.19-.09.15,0,.19-.11-.05,1.16-.15.35-.24a7.83,7.83,0,0,0-4.1.8,2.75,2.75,0,0,0-1.35,3.36,7,7,0,0,1,.18,1,2.09,2.09,0,0,0,0,.43l-.08.22.69-.36c-.32-.38-2.42.33-2.79.48a4.33,4.33,0,0,0-2.9,3.61c-.09.88,0,1.71-1,2.06a10.52,10.52,0,0,0-2.49,1.18,6.77,6.77,0,0,0-2.48,3.72c-1,3.53.61,8.67-2.35,11.43l2.84-.4c-2.54-2.41,3.49-5.61,3.57-8.18a1.83,1.83,0,0,0-.84-1.67c-.17-.12-.65-.3-.65-.57,0,.1.23-.08.46-.19,1.22-.58,2.53-1.3,2.47-2.85s-1.46-2.7-2.11-4.13c-1-2.19,1.16-2.22,2.36-3.41s.67-2.52.57-4c-.13-1.85,1.19-2.16,2.72-2.33.5-.05,2.4-.65,1.78-1.47a2.46,2.46,0,0,1,.09-3c.25-.24.78-.26,1.28-.43a4,4,0,0,0,1.66-.94,2.23,2.23,0,0,0,.65-1.42,8.74,8.74,0,0,0,.15-1.67c.07.1-1.6.28-.37.3a6,6,0,0,0,1.11-.12,4.49,4.49,0,0,0,1.88-.8c.92-.72.87-1.7.7-2.75-.13-.81-.42-1.78.49-2.15,1.5-.6,4.08-.84,4-3,0-.93-3.33-.32-3.29.88a.6.6,0,0,1-.08.33c.06-.1.37-.18-.08,0s-.81.23-1.21.35a5.81,5.81,0,0,0-2.75,1.55,3.38,3.38,0,0,0-.39,2.91,6.65,6.65,0,0,0,.12.91c-.14.36,0,.43.3.23s.46-.12,0-.08a5,5,0,0,0-2,.38,2.58,2.58,0,0,0-1.84,2.49,4.58,4.58,0,0,1,0,.83c-.12.59.24.2-.25.48s-1.26.34-1.82.66a3.63,3.63,0,0,0-1.38,5.35l1.77-1.47a9.87,9.87,0,0,0-5.16,1.74c-1.46,1.18-1.41,2.52-1.18,4.23.16,1.16,0,1.7-1,2.24a5,5,0,0,0-2,1.53c-1.11,1.69.46,3.33,1.34,4.69.38.59,1.07,1.9.54,2.59-.3.4-1.34.63-1.77.9s-1.12.85-1,1.54c.15.84,1.23.87,1.45,1.65s-.54,1.67-1.07,2.29c-.7.82-1.39,1.67-2,2.53-1.07,1.44-1.66,2.93-.2,4.32.66.62,2.28.12,2.84-.41,2.84-2.64,2.32-6.29,2.6-9.8.13-1.64.44-3.62,1.63-4.85s3.06-1,4.12-2.43a4.54,4.54,0,0,0,.63-2.4,3,3,0,0,1,.37-1.24c.38-.58.33-.44.89-.45,1.48,0,3.71-.61,3.84-2.42a12.27,12.27,0,0,0-.3-2.08c0-.33.1-.65.08-.95,0,.07-.57,0,0,0a6.83,6.83,0,0,0,4.27-1,1.87,1.87,0,0,0,.86-1.43c0-.59-.22-1.14-.22-1.72,0-.19.07-.29-.12-.13.11-.09.45-.07.59-.09,1.45-.25,4.49-1.11,3.95-3.15-.28-1.06-3.58-.19-3.3.88Z"/><path class="cls-52" d="M1205.08,144.74l-.23-4-41.66-10.3h0c-14.94-5.2-35.55-.37-47.33,7.77l-10.59.93.1-.16c-12.69-8.62-33.25-9.24-48.73-1.48l.48,1.63h0c0,.11.12.34.22.69l.44,1.42c2.67,9.08,5.76,18.67,8.44,21.13,1.79,1.66,7.53,2.27,12.25,2.47,1.78.1,3.41.11,4.58.12,1.41,0,13.88,0,15.9-2s5.07-16.55,5.93-21.15l10.85-.9c1.51,3.49,4.85,18.62,10.26,21.51s32.54.67,34.92-3.19c1.69-2.75,6.46-12.66,7.62-17.71l2-6.51Zm-107.44,16.82c-2.21,1.94-27.05,2.22-30.16-.63-2.63-2.42-6.45-15.37-7.89-20.24v-.21c13.85-6.15,32.39-5.62,43.41,1.66-1.64,7.93-4.1,18.13-5.35,19.38Zm60-3.32c-1.48,2.44-25.16,5.42-30.74,2.43-3.88-2.06-6.5-13.12-8.53-19.43,11.53-7.73,35.61-11.79,48.93-6.3-2.1,8-5.45,17.35-9.66,23.3Z"/><path class="cls-43" d="M1328.9,536.89c-5-7.87-13.91-2.16-19.44-9.59-6-8.08-18.7-7.48-26-14.12-5.77-5.22-2.64-13-9.16-17.08l-4.58-66.62-9.89-32.38s1.81-34.86,14.92-63.55,27.81-65.21,27.81-65.21,29.19,9.25,38.86,61.7c4.6,24.94,11.78,93.85,11.78,93.85s8.42,82.06,5.6,97.79c-2.18,12.14-6.29,35.85-22.4,47.44"/><path class="cls-43" d="M1176.5,650.91l32.7-44.42,41.34-45c7.16-4.45,6.78,2.12,14.63-.89a156.14,156.14,0,0,1,26.42-7.35c8.66-1.66-19.17-36.5-10.4-37.44,9-1,27.94,1,37,1.56,1.15.07,21.34,5.78,22.49,5.89.25,5.24,4.43,25.15,1.85,31.16-12.3,28.68-98.26,128.23-98.26,128.23L1219,687Z"/><path class="cls-53" d="M1157.68,404.54a.5.5,0,0,0-.21,0c0,.26-.15.52.06.76Z"/><path class="cls-53" d="M1144.36,478.82a.42.42,0,0,0,.18.08l.09-.49Z"/><path class="cls-54" d="M1097.13,394l.28,0-.27-.15A.17.17,0,0,0,1097.13,394Z"/><path class="cls-54" d="M1136,400.74l-.24-.19-.09.13Z"/><path class="cls-54" d="M1098,394.05l.37.06A.24.24,0,0,0,1098,394.05Z"/><path class="cls-54" d="M1156.82,404.41a.2.2,0,0,0-.31-.06Z"/><path class="cls-15" d="M1076.39,666.33c-3-1.55-5.77-3.54-6.22-7.15-.18-1.42,1-1.82,1.48-3.42l25.57-24.83c-5.88-3.09-18.84,7.09-24,2.93s1.79-6.76,3-7.79,24.69-12.39,24.69-12.39,23.07-2.67,28.56-2,20.61,4.92,20.61,4.92l6.77,1.42s16.23,25,21.32,34.1c.48.86-11.91,3.79-18.23,9.56s-22.38,12.74-22.38,12.74-28.85,6.46-32.77,5.52-9.28-6.91-9.28-6.91a29.83,29.83,0,0,0-7.61.17c-6.89.51-10.85-7.2-10.85-7.2l.06,0Z"/><path class="cls-18" d="M1094,634.06a94.34,94.34,0,0,0,11-7.26,52,52,0,0,0,10.57-8,55.55,55.55,0,0,0-11.5,6.59A37.46,37.46,0,0,0,1094,634.06Z"/><path class="cls-45" d="M1263.44,457.64c-.52-7.31-1.28-38.44-1.68-43.93-.39-6.37-.74-11.25-1-15-.08-1.46-.28-2.78-.21-3.75a7.83,7.83,0,0,1,.1-1.37,6.4,6.4,0,0,1,.13,1.31c.09.87.22,2.15.4,3.76.32,3.76.78,8.69,1.37,15,.38,4.82,1.79,33.94,2.28,40.16C1264.62,454.75,1263.69,456.75,1263.44,457.64Z"/><path class="cls-45" d="M1332.93,537.57a35.82,35.82,0,0,0-7.72-6.2,95.17,95.17,0,0,0-44.61-15.78,35.85,35.85,0,0,0-9.87,0,83.66,83.66,0,0,0,9.71,1.35,120.27,120.27,0,0,1,22.85,5.52,122.76,122.76,0,0,1,21.24,10A88.79,88.79,0,0,0,1332.93,537.57Z"/><path class="cls-45" d="M1308.66,511.24a52.92,52.92,0,0,0-38.48,3.3c.21.54,8.49-2.5,19.14-3.34S1308.56,511.82,1308.66,511.24Z"/><polygon class="cls-45" points="1208.86 603.01 1266.82 514.61 1263.1 450.66 1264.88 449.21 1268.86 515.25 1207.04 606.43 1208.86 603.01"/><path class="cls-16" d="M1143.86,191c1.38,1.11,2.86,2.4,3.06,4.15a6.82,6.82,0,0,1-.14,1.91l-.49,2.94a1.18,1.18,0,0,1-.2.55,1.09,1.09,0,0,1-.57.3,4.52,4.52,0,0,1-2,.29,1.6,1.6,0,0,1-1.42-1.28,2.58,2.58,0,0,0-.08-.84c-.25-.49-1-.4-1.49-.51-1.36-.29-1.71-2-2.35-3.22a7.1,7.1,0,0,0-4.42-3.22,13.64,13.64,0,0,1-2.69-.87,2.72,2.72,0,0,1-1.57-2.21"/><path class="cls-16" d="M1084.64,193c-1.26,1.24-2.62,2.66-2.65,4.43a6.46,6.46,0,0,0,.32,1.89l.76,2.87a1.13,1.13,0,0,0,.25.53,1.16,1.16,0,0,0,.59.25,4.75,4.75,0,0,0,2,.1,1.59,1.59,0,0,0,1.29-1.41,2.37,2.37,0,0,1,0-.84c.2-.52.91-.49,1.44-.66,1.32-.41,1.51-2.14,2-3.42a7.1,7.1,0,0,1,4.1-3.62,14,14,0,0,0,2.6-1.12,2.72,2.72,0,0,0,1.35-2.35"/><path class="cls-16" d="M1144.2,188.05a4.79,4.79,0,0,0-2.15-1.53,5.35,5.35,0,0,0-1.32-.28c-.41,0-1.12.14-1.49,0s-.62-.77-.89-1.13a4,4,0,0,0-1.06-1,3.79,3.79,0,0,0-2.6-.45,6.83,6.83,0,0,0-1.53.43,14.48,14.48,0,0,1-1.29.66c.59,0,.64-.11.16-.25a4.45,4.45,0,0,1-.51-.33c-.32-.2-.63-.42-1-.59a3.73,3.73,0,0,0-2.53-.19,5.23,5.23,0,0,0-1.36.52c-.15.08-1.2.64-.57.49l1.22-.13c-1.52-.05-2.22-2.12-3.81-2.37a5.43,5.43,0,0,0-2.3.21c-.38.1-.78.35-1.16.42-.22.06-.24.09-.06.08a.84.84,0,0,1-.41-.4c-.51-.73-3.7.31-3.08,1.19s2,.86,3.06.68c.5-.1,1.54-.66,1.83-.64s1.06.88,1.43,1.25a3.75,3.75,0,0,0,3.63,1,4.6,4.6,0,0,0,1.86-.83c1-.78-.68.08-.67,0a8.25,8.25,0,0,1,.8.49,4.33,4.33,0,0,0,3.21.82,6.9,6.9,0,0,0,1.88-.61,5.16,5.16,0,0,1,.92-.5c-.71.12.11.45.34.66,1,.91,1.08,1.9,2.6,2a7.87,7.87,0,0,1,2,.15,3.89,3.89,0,0,1,1.73,1.32c.58.72,3.74-.39,3.09-1.2Z"/><path class="cls-16" d="M1105.88,183.51a4.4,4.4,0,0,0-3.54.41c-.81.44-1.47,1.15-2.4,1.1a4.77,4.77,0,0,0-2.15.3c-.1,0-1.87,1.25-1.64,1.44l.84-.27a3.28,3.28,0,0,1-.52-.2c-.28-.12-.55-.27-.83-.4a3.65,3.65,0,0,0-2.3-.34,3.71,3.71,0,0,0-2.64,2.18,3.06,3.06,0,0,1-.3.49c.36-.16.39-.24.1-.22l-.45,0a6.65,6.65,0,0,0-2,.1,4.09,4.09,0,0,0-1.62.76,2.53,2.53,0,0,0-.69.8c0,.07-.37.87-.28.92s1.43-.49.08-.18a4.37,4.37,0,0,0-.8.25,1.94,1.94,0,0,0-1.2,1.42c-.27,1.55,3.09,1.08,3.32-.3l0-.17-.3.58c-.31.44-1.07.38-.51.32a4.19,4.19,0,0,0,1.09-.29,2.57,2.57,0,0,0,1.27-1,2.73,2.73,0,0,0,.29-.68c.11-.41.24-.54-.14-.36s-.12,0,.12,0l.76.06a4.52,4.52,0,0,0,3.65-1.19,5.57,5.57,0,0,0,.7-1,3.36,3.36,0,0,0,.34-.61.7.7,0,0,1-.58.19c-.59,0-.67.12-.24.23a5.19,5.19,0,0,0,1.57.71,4.1,4.1,0,0,0,1.74.18,3.64,3.64,0,0,0,1.87-.79c.19-.15.55-.42.61-.66s.06-.22-.38,0l.3,0a5.24,5.24,0,0,0,3.23-.69c.49-.26.94-.58,1.42-.86a4.08,4.08,0,0,1,.45-.24c0,.21-.82-.12-.21.11a2.35,2.35,0,0,0,2.33-.63.86.86,0,0,0-.4-1.48Z"/><path class="cls-50" d="M1117.47,106.58s-12.15,6.7-1.26,13.53C1116.21,120.11,1111.42,114.33,1117.47,106.58Z"/><path class="cls-50" d="M1103.42,120.62c10.1-8-2.71-13.31-2.71-13.31s3.78,5.27,3.54,7.73S1103.42,120.62,1103.42,120.62Z"/><path class="cls-22" d="M1111.22,194.35c7.93-.09,25.49,4.12,29,6.88,0,0-9.29,11.16-27.69,11.38s-21.23-10.8-21.23-10.8S1101.11,194.47,1111.22,194.35Z"/><path class="cls-13" d="M1132.61,197.53s-9.47-.2-17,.19-16.92,1.58-16.92,1.58-1.48-5.06,12.16-5.78S1132.61,197.53,1132.61,197.53Z"/><path class="cls-23" d="M1112.82,209.05c8.54-1.57,17.36-8.85,27.43-8.81,0,0-2.44,14.57-24,15.7s-24.81-13.14-24.81-13.14C1101.39,201.71,1104.15,208.38,1112.82,209.05Z"/><path class="cls-23" d="M1101.32,191.12c4.52-.54,7.49.88,9.46.77s4.77-1.82,9.32-1.75c4.27.06,22.76,8.6,20.81,9.94s-16.26-4.9-29.92-4.18-18.19,7.93-20.27,6.81S1097.08,191.63,1101.32,191.12Z"/><path class="cls-16" d="M1114.58,185.46l1.12,4.52a1.66,1.66,0,0,0,1.47,1.26c4.89.41,23.48,1.95,27.88,1.66.1,0-.29,1.85-.19,1.82l1-.13c1.62-.41.14-5.86-1.46-6.39a94.31,94.31,0,0,0-11.83-3.15c-3.33-.59-12.54-1.93-16.51-1.67A1.67,1.67,0,0,0,1114.58,185.46Z"/><path class="cls-16" d="M1108.88,186.26l.08,4.23a1.67,1.67,0,0,1-1.26,1.41c-4.48.94-19.17,4-23.25,4.22a1.41,1.41,0,0,1-.29,0l-1.31-.2c-1.54-.24-.86-3.69.57-4.39a73.16,73.16,0,0,1,9.54-4.1c3-.95,10.67-2.9,14.36-3.07A1.59,1.59,0,0,1,1108.88,186.26Z"/></g><polygon class="cls-4" points="508.27 199.69 510.41 206.29 517.35 206.29 511.74 210.37 513.88 216.97 508.27 212.9 502.65 216.97 504.8 210.37 499.19 206.29 506.13 206.29 508.27 199.69"/></g></svg>