<svg xmlns="http://www.w3.org/2000/svg" xmlns:xlink="http://www.w3.org/1999/xlink" viewBox="0 0 1303.15 1057.31"><defs><style>.cls-1,.cls-11{fill:none;}.cls-2{clip-path:url(#clip-path);}.cls-3{fill:#f2ebd1;}.cls-4{fill:#956243;}.cls-5{fill:#151210;}.cls-6{fill:#262626;}.cls-7{fill:#684133;}.cls-8{fill:#425c2b;}.cls-9{fill:#2c381e;stroke:#2c381e;stroke-width:1.37px;}.cls-11,.cls-35,.cls-36,.cls-47,.cls-9{stroke-miterlimit:10;}.cls-10{fill:#010101;}.cls-11{stroke:#010101;stroke-width:1.24px;}.cls-12{fill:#3a3a3a;}.cls-13{fill:#1d1e1e;}.cls-14{fill:#c9c9c9;}.cls-15{fill:#eae9e8;}.cls-16{fill:#fcb01a;}.cls-17,.cls-28{fill:#fff;}.cls-17{opacity:0.69;}.cls-18{fill:#905222;}.cls-19{fill:#663c18;}.cls-20{fill:#a8b87b;}.cls-21{fill:#cc9a2b;}.cls-22{fill:#a4752b;}.cls-23{fill:#97a756;}.cls-24{fill:#56352e;}.cls-25{fill:#e2b354;}.cls-26{fill:#c4d092;}.cls-27{fill:#31160e;}.cls-29{fill:#653c29;}.cls-30{clip-path:url(#clip-path-2);}.cls-31{fill:#1c3b53;}.cls-32{fill:#1a305a;}.cls-33{fill:#653c2a;}.cls-34{fill:#82a8b3;}.cls-35,.cls-36,.cls-47{fill:#557c81;stroke:#557c81;}.cls-35{stroke-width:1.13px;}.cls-36{stroke-width:1.19px;}.cls-37{fill:#825639;}.cls-38{fill:#231f20;}.cls-39{fill:#161312;}.cls-40{fill:#171514;}.cls-41{fill:#181615;}.cls-42{fill:#714534;}.cls-43{fill:#191716;}.cls-44{fill:#040404;}.cls-45{fill:#513835;}.cls-46{fill:#745245;}.cls-47{stroke-width:1.09px;}</style><clipPath id="clip-path"><polygon class="cls-1" points="1302.22 1057.17 -111 1057.17 -71 1 1302.22 1 1302.22 1057.17"/></clipPath><clipPath id="clip-path-2"><polygon class="cls-1" points="621.11 -1.6 2.88 831.41 0 1 621.11 -1.6"/></clipPath></defs><g id="Layer_1" data-name="Layer 1"><g class="cls-2"><polyline class="cls-3" points="0.28 1422.5 0.28 -18.12 1301.79 -18.12 1301.79 1422.5"/><path class="cls-4" d="M670.69,248.13l-9.53,9.22-14.09-13.68-4-10.23-17.85-16.05a88,88,0,0,0,0,10.27l-10,19.34v36.11l-10,19.57L644,314l7-23.8a76.54,76.54,0,0,0,16.5-13.28c5.63-6.82,11.08-39.53,11.08-39.53C675.68,236.61,672.8,246,670.69,248.13Z"/><path class="cls-5" d="M640.08,253.06a3.81,3.81,0,0,1-1.06-3.77l5.56-19.66,16.5-52.91a3.73,3.73,0,0,1,4.67-2.49,3.78,3.78,0,0,1,1.41.79l22.61,20.13a3.73,3.73,0,0,1,1.08,3.95l-23.1,72a3.79,3.79,0,0,1-6.12,1.61Z"/><path class="cls-6" d="M643.68,250.37a3.34,3.34,0,0,1-.93-3.32l4.91-17.77,14.57-47.93a3.3,3.3,0,0,1,4.13-2.16,3.1,3.1,0,0,1,1.2.67l20.13,17.62a3.29,3.29,0,0,1,1,3.47l-21.51,65.38a3.3,3.3,0,0,1-4.16,2.11,3.45,3.45,0,0,1-1.2-.7Z"/><path class="cls-4" d="M643,233.44s2,.64,7.36,2.82c6.32,2.45,7.87-.85,7.87-.85h0a4.52,4.52,0,0,0-2.48-5.84L643,224.39l.17-2.68a115.26,115.26,0,0,0,11.51.82c10.2,0,6.37-8.77,6.37-8.77l-11.76-1.53,6-8.65a6.52,6.52,0,0,0-.61-9.19l-.46-.37-22.11,18.24s-6.43,2.65-6.85,5.3a88,88,0,0,0,0,10.27Z"/><path class="cls-7" d="M655.89,236.9a9.5,9.5,0,0,1-5,0,51.26,51.26,0,0,1-11.53-3.6l-1.61-.71.91-.28c-2.26,3.55-3.87,7-5.31,9.39a11.53,11.53,0,0,1-2.62,3.58,19.85,19.85,0,0,1,1.78-4.06,83.74,83.74,0,0,1,4.93-9.73l.31-.51.6.26,1.57.67a79.37,79.37,0,0,0,11.28,4C654,236.59,655.89,236.68,655.89,236.9Z"/><path class="cls-7" d="M643.15,224.89c0,.17-1.08-.45-2.82-1a12.55,12.55,0,0,0-6.57-.48,12.29,12.29,0,0,0-5.84,3.1c-1.3,1.18-1.89,2.14-2.08,2s0-1.24,1.32-2.82a11,11,0,0,1,6.29-3.83,11.24,11.24,0,0,1,7.3,1C642.5,223.82,643.26,224.75,643.15,224.89Z"/><path class="cls-7" d="M659.25,213.45c0,.42-6.15-.93-13.68-1.22s-13.67.48-13.76,0a34.07,34.07,0,0,1,13.82-1.52A34.88,34.88,0,0,1,659.25,213.45Z"/><path class="cls-7" d="M643.46,284c-.23,0,.31-2.09.42-5.41A26.8,26.8,0,0,0,633.36,256c-2.65-2.06-4.56-2.82-4.48-3.16a12,12,0,0,1,5.08,2.32,24.93,24.93,0,0,1,11,23.45A11.94,11.94,0,0,1,643.46,284Z"/><g id="freepik--character-1--inject-2"><path class="cls-8" d="M719.62,278.8,689,291.52a65.87,65.87,0,0,0-28.91,31l-10.58,37L663.34,313l-56-21.52s-36.43,71.75-44.27,112.8c-6,31.58-14.31,74.35,10.61,80.74,28.51,9,51.24-2.9,70.58-27.5l48.85-69.84Z"/><path class="cls-9" d="M663.44,312.23l-.57-.16a2.7,2.7,0,0,1-.64,1.2,2,2,0,0,1-.4.32l.28.09c-3.46,11.8-7.16,24.34-11.27,38-4.2,14-8.15,27.35-11.5,39.53S633,414.37,629.7,423.3a126.93,126.93,0,0,1-9.6,20.36c-2.64,4.52-4.2,7.06-4.2,7.06a9.93,9.93,0,0,0,1.34-1.7,57.32,57.32,0,0,0,3.53-5.08,115.58,115.58,0,0,0,10.17-20.29c3.53-9,6.74-19.94,10.06-32.12s7.44-25.3,11.61-39.42L664,313.29l.25-.85Z"/></g><path class="cls-4" d="M804.48,193.18s-1.5,45.89,7.69,61.07c2.23,3.69,35.25,23.35,35.25,23.35L747.29,330.7l-39.17-23.09s23-29.57,23.53-34.62-6.59-38-6.59-38"/><path class="cls-7" d="M705.9,237.54c3.81,4,7.41,8.17,11.39,12a1,1,0,0,1,.13.18.59.59,0,0,1,.89,0c2.77,2.55,7.39,3.34,9.93,6.13,2.2,2.41,1.76,6.24,2.51,9.48,2.41,0,5.64-.8,8.63-1.13,19.94-3.87,19.88-6.47,43.62-27.43,7.54-6.65,4.73-12.76,6.13-14.26C761.59,226.57,734.57,232.47,705.9,237.54Z"/><path class="cls-5" d="M817,149.82s1.69-13,1.13-43.14c-.5-27-45.73-41.38-71.37-40.85-14.1.3-59,14.24-69.81,22s-14.2,24.87-11.5,48.15c0,0,3.18-24.16,17.86-26.22,12-1.68,49.29-14.44,60.11-11.94s34.56,7.56,42,43.51c2,9.8,17.64-3.69,23.5,1.39S817,149.82,817,149.82Z"/><path class="cls-4" d="M804.64,195.57l-2.39-36.2-5.36-40L775.94,92l-30.71-8.65-31.9,6.77s-24.56,11-32.28,14.58-11.66,14.53-15.17,26.6,2.16,30,2.16,30c-.12.68,1.09,3.36,1.32,3.92,2.93,7.1,4.59,13.47,6.9,18.75a13.75,13.75,0,0,1,1.17,7.53c-1.37,10.19-.58,14.31,1.26,20.06,2.51,7.85,5.23,14.43,9.33,20.23,4.34,6.14,9.6,12.68,10.66,13.95,0,0,11.53,13.45,13.71,14.58a16.55,16.55,0,0,0,6.66,1.89c1.37-.09,19.23-2.15,19.23-2.15l8.16-1.67a21.63,21.63,0,0,0,7.75-3.29c6.34-4.32,24.37-17.09,29.07-21.85,6.33-6.39,11.14-29.11,11.14-29.11"/><path class="cls-5" d="M790.66,162.72c.41,3.1,2.73,15.26,2.94,18.31l15.79-3.25c2.83-11.39,6.27-24.81,7.56-28,2-4.92-1.49-26.35-2.81-34.41l-.28-1.74c-1.25-7.74-10.88-18.6-25.77-29.07-16.39-11.52-42.31-15-66.05-8.82-2.25.59-4.49,1.26-6.63,2-20.32,7-35.73,20.6-45.82,40.55-7.27,14.39-5.24,28.9-2.81,37.53a79,79,0,0,1,1.35-31.32c3.57-12.85,10.27-17.58,15.26-19.29a17.68,17.68,0,0,1,8.66-.78c5.29.2,12.59-1.88,17.81-3.66,3.88-1.33,6.92-2.61,7.75-3,2.34-2.37,6.13-4.49,10.95-6.15,11.2-3.83,28.27-4.9,32.65-.47,4.87,4.91,17.18,23.34,18.11,28"/><path class="cls-4" d="M803.28,196.64C814.37,204.3,817,185,817,185c6.78-12.51,4.5-23.93,2.61-31.67s-10.46-5.92-10.46-5.92c-7.14,2.26-9.61,6.83-10.79,32.66"/><path class="cls-5" d="M668.87,115.5c3.66-9.6,11.92-22.35,16.22-31.68,2.75-.82,16.58-3.84,19.48-4.53,29.49-7,72.75,2.29,78.69,12.36,3.71,6.28,9.28,43.34,8.64,46.93-1.77,9.86-.83,22.15-.83,22.15-3.91-13.55-16.77-27-18.93-31.47s-.22-28.13-1.94-28.78-30.47-3.66-60.71,2.74a227.72,227.72,0,0,0-25.47,7C684.06,110.15,668.84,115.6,668.87,115.5Z"/><path class="cls-5" d="M737.05,161.05a4.86,4.86,0,0,1,5.31-.13,4.73,4.73,0,0,1,1.82,1.86,4.83,4.83,0,0,1-.23,4.53,4.47,4.47,0,0,1-4.86,1.92,5,5,0,0,1-3.55-5.15,4.42,4.42,0,0,1,1.51-3"/><path class="cls-5" d="M685.82,172.93a4.82,4.82,0,0,0-4.93,2,4.61,4.61,0,0,0-.94,2.43,4.83,4.83,0,0,0,2,4.07,4.48,4.48,0,0,0,5.22-.16,5,5,0,0,0,1.23-6.13,4.45,4.45,0,0,0-2.58-2.19"/><path class="cls-5" d="M702.23,177.08s-8.81-5.8-14.25-5.19c-7.94.89-9.58,3.06-11.61,7.2,0,0,4.34-4.79,10-5.26C691.69,173.37,702.23,177.08,702.23,177.08Z"/><path class="cls-5" d="M726.34,169.66s9.67-9,15-10.13c7.82-1.68,18,1.19,21.28,4.47,0,0-13.62-4.49-19.09-3.16C738.32,162.11,726.34,169.66,726.34,169.66Z"/><path class="cls-5" d="M724.22,135.14c-.37,1.86-.75,3.73-1.12,5.6-.28,1.42-1,4.65-1.31,6.07,4.79-.28,9.25-1.24,12.29-1.16,6,.17,12.28-.07,18,2a20.62,20.62,0,0,1,7.13,4.14c.65.61,2.25,3,3.46,2.7.5-.12.22-2.56.19-2.81-.59-4.93-4.18-7.66-8.81-9.75-9.46-4.26-19.48-6-29.82-6.82"/><path class="cls-5" d="M668.87,165.52l1-1.64c4.62-7.82,11.06-13.87,18.31-19.25,1.34,1.34,2.68,2.7,4,4.05,1,1,2.93,2.84,3.94,3.87-3.72,2-7.21,3.39-9.43,4.86-4.39,2.9-9.06,5.9-12.12,10.24-.24.34-2.75,3.16-3,3.5C668.57,170.46,668.65,166.33,668.87,165.52Z"/><path class="cls-10" d="M712.75,206.79a8.85,8.85,0,0,0,8-2.18c.44-.43,2.21-.47,1.59.14a12.5,12.5,0,0,1-10.9,2.79c-.33-.1-.32-.34,0-.54a2,2,0,0,1,1.31-.21"/><path class="cls-10" d="M723.18,203.87a14.3,14.3,0,0,1,4.72-2.3,1.13,1.13,0,0,1,.81.09c.18.1.24.28.08.42a5.33,5.33,0,0,1-2.61,1.21,1,1,0,0,1-.91-.16c-.2-.21.05-.42.28-.47a4.37,4.37,0,0,0,2.1-1l.89.51a12.78,12.78,0,0,0-4.22,2.07,1.05,1.05,0,0,1-.93.08c-.21-.07-.46-.29-.21-.48"/><path class="cls-10" d="M730.06,202.68c2-.46,4.18-1.85,4.86-3.6,1-2.65-1.14-6.05-4-7-.3-.11-.2-.35.06-.46a1.63,1.63,0,0,1,1.13,0,7.34,7.34,0,0,1,4.62,5.85c.12,2.12-1.52,3.95-3.8,5a10.76,10.76,0,0,1-2.17.77c-.31.07-.87.09-1.07-.12s0-.38.34-.45"/><path class="cls-10" d="M708.85,206.51a.28.28,0,0,0-.34-.34,2.34,2.34,0,0,1-1.67-.2l-.39.77a7.05,7.05,0,0,1,3.39.51.56.56,0,0,0,.62-.24c.11-.14.19-.42,0-.52"/><path class="cls-10" d="M710.43,206.49a7.81,7.81,0,0,0-3.79-.54.66.66,0,0,0-.49.35.3.3,0,0,0,.1.42"/><path class="cls-10" d="M704.72,207.65a4.2,4.2,0,0,1-4-1.78,6.28,6.28,0,0,1,.21-6.94.26.26,0,0,0-.19-.42.79.79,0,0,0-.65.37,7,7,0,0,0-1,6.06,4.87,4.87,0,0,0,5.38,3.48c.2,0,.54-.2.58-.47s-.15-.33-.34-.3"/><path class="cls-11" d="M804.83,172.19c4.13-17.06,8.92-18,8.92-18s3.85,3.15,3.47,10.81"/><path class="cls-11" d="M807.55,173.23c4.24-1.14,2.27,7.46,3.77,9.16s2.25-3.6,1.77-9.77c0,0-1.35-8.2-5.68-9"/><g id="freepik--character-1--inject-2-2" data-name="freepik--character-1--inject-2"><path class="cls-12" d="M908.18,656.77l-1.89,73.41L858.48,958s6.91,110.89,11.28,173.64c3.82,54.4-5.8,155.6-5.8,155.6l-91.58-2.38-25.93-323L731.22,764.72l-30.92-103Z"/><path class="cls-12" d="M655.71,673.6l28.12,298a125.13,125.13,0,0,0,7.43,44.49L736,1235.22l3.88,28.22,55-11.87-26.61-594.8Z"/><path class="cls-13" d="M733.29,726.11v21.78c0,14,.39,34.28,1,59.33,1.47,50.09,4.83,119.24,10.89,195.42s13,145,18,194.81c2.61,24.82,4.73,44.91,6.2,58.93.75,6.88,1.34,12.27,1.73,16,.23,1.76.39,3.26.52,4.17a9.5,9.5,0,0,0,.23,1.4,11.37,11.37,0,0,0,0-1.43c0-1-.2-2.42-.33-4.18-.32-3.78-.81-9.16-1.43-16-1.34-14.06-3.26-34.18-5.65-59-4.79-49.81-11.54-118.62-17.48-194.81s-9.59-145.26-11.38-195.29c-.81-25.05-1.4-45.31-1.6-59.33-.16-6.91-.29-12.33-.36-16.11v-4.21A9.94,9.94,0,0,0,733.29,726.11Z"/><path class="cls-8" d="M896.78,292.7s25.28,15.08,33,60.51c4.13,24.23,12,165.21,13.94,201.75a73,73,0,0,1-1.1,17.15L917.76,707.7A10.68,10.68,0,0,1,905,716.22L871.63,709a11.37,11.37,0,0,1-9-11.79l8.82-151.83L858.36,406.75Z"/><path class="cls-8" d="M896.86,292.7c-13.41-16-61.43-30.38-80.41-38.34-1.37,4.1-2,9.77-3.9,13.65-8.78,18.09-39.7,42.77-68.14,48.1,0,0-6.37-7.87-9.72-15.93-4.41-10.58-4.57-18.8-6.34-25.25-.05,0-3.81,1.47-3.86,1.49l-4.87,2.38-23.06,11.92-29.81,93.61L660.13,551.8c-2.89,51.65-13.63,76-5.15,124.5l232.31.36a981.92,981.92,0,0,0-13.35-114.31C863.79,505.51,870,432,871.11,422.13,873.22,401.71,917,316.62,896.86,292.7Z"/><path class="cls-9" d="M668.75,356a7.39,7.39,0,0,0-.37,2.23c-.18,1.72-.37,3.85-.62,6.43-.51,5.58-1.09,13.64-1.75,23.62-1.32,19.95-2.8,47.53-4,78s-1.69,58.07-1.83,78c-.12,10-.11,18.08,0,23.68l.14,6.42a7.88,7.88,0,0,0,.18,2.22,7.21,7.21,0,0,0,.28-2.21c.09-1.72.19-3.84.35-6.42.16-6,.43-14,.8-23.66.64-20.39,1.56-47.68,2.6-78s2.35-57.71,3.19-78c.41-9.75.72-17.75.93-23.67l.18-6.4A6.66,6.66,0,0,0,668.75,356Z"/><path class="cls-9" d="M845.26,359.1c.35,0-.38-4.78.62-12.38A60.41,60.41,0,0,1,878.4,300c6.79-3.52,11.48-4.61,11.39-4.93a11.87,11.87,0,0,0-3.23.59,50.75,50.75,0,0,0-8.61,3.16,58,58,0,0,0-33.36,47.82,50.38,50.38,0,0,0,0,9.19A11.75,11.75,0,0,0,845.26,359.1Z"/></g><path class="cls-9" d="M863.79,676.77c1.71-27,3.69-58.44,5.71-91.95l2.1-32.57c-3.86-42.44-21.66-157.34-24.15-184.72l.82-.07c2.63,27.41,20.65,142.32,24.74,184.79-.54,10.48-1.35,21.41-2.07,32.59-2.21,33.58-4.28,65-6.07,92.09A1.83,1.83,0,0,0,863.79,676.77Z"/><path class="cls-4" d="M845.46,786.11c5.73-6.16,13.29-14.57,13.27-16s1.37-11,2.62-19.41a7.83,7.83,0,0,0-6.17-9.21c-1.11-.22-10.08,18.46-18.42,14.07l4.2-17.24a68.25,68.25,0,0,1,8.47-15.15c4.64-5.54,18.2-14.06,18.2-14.06l.25-1.37L907,716.16l1,22.33s-7.32,40.57-11.69,44.71-17.39,7.06-17.39,7.06c-4.79,6.36-15.65,4.73-15.65,4.73-11.34,7.9-11.47-.89-11.47-.89a2.58,2.58,0,0,1-1.2.76C845.61,796.36,842,789.76,845.46,786.11Z"/><path class="cls-7" d="M873.87,754.35a23.78,23.78,0,0,1,.39,7.24,37.66,37.66,0,0,1-3.86,17,33.58,33.58,0,0,1-12.54,11.94,22.79,22.79,0,0,1-6.4,3.13,33.36,33.36,0,0,1,5.65-4.24,37.79,37.79,0,0,0,11.63-11.78A42.69,42.69,0,0,0,873,761.39,32.11,32.11,0,0,1,873.87,754.35Z"/><path class="cls-7" d="M883.16,758.37a13.53,13.53,0,0,1,.73,6.61,47.72,47.72,0,0,1-.81,7.15,21.74,21.74,0,0,1-3.1,8.38,38.16,38.16,0,0,1-6.12,6.26l-5.36,4.49a21.88,21.88,0,0,1-5.26,3.79,22.45,22.45,0,0,1,4.38-4.8c1.41-1.39,3.14-3,5.09-4.8a42.05,42.05,0,0,0,5.74-6,21.44,21.44,0,0,0,3.1-7.72,63.88,63.88,0,0,0,1.19-6.86A51.56,51.56,0,0,0,883.16,758.37Z"/><path class="cls-7" d="M893.83,764c.76.12-.52,7.37-2.63,15.94a7.17,7.17,0,0,1-1.78,3.13,23.6,23.6,0,0,1-2.16,2.2,26.16,26.16,0,0,1-4.09,3.17c-2.5,1.57-4.32,2-4.4,1.81s1.44-1.1,3.63-2.89a43.71,43.71,0,0,0,3.66-3.28,25,25,0,0,0,2-2.16,5.53,5.53,0,0,0,1.37-2.38c1-4.39,2.13-8.21,2.93-11A21.2,21.2,0,0,1,893.83,764Z"/><path class="cls-14" d="M1157.72,607.92h61.48s10.3,18.55,1.65,55.64-4.53,62.24-4.53,62.24,2.06,12.36-3.71,12.78-48.23,0-48.23,0S1157,739,1158.2,727c3.3-32.56,2.48-32.83-3.78-64.23C1149.27,637,1157.72,607.92,1157.72,607.92Z"/><path class="cls-15" d="M1216.24,663.89l-56.11-.63-.89-15a99.12,99.12,0,0,1,2-26.51l1.77-8.3h52.22l3,13.21c1.1,8,.06,16.07-.72,24.09Z"/><path class="cls-16" d="M1158.48,637.47h60.15a149.74,149.74,0,0,1-2.75,27.62c-6.21,31.54-5,52.52-5,52.52s1.74,10.44-3.13,10.79-38.33,0-38.33,0-6.24.35-5.22-9.74c2.78-27.48,3.92-28.49-4.4-54.2C1155.7,651.85,1158.48,637.47,1158.48,637.47Z"/><path class="cls-17" d="M1179.15,626.61s-3.26,30,.7,44.21,1.2,49.41,1.2,49.41h-9.49s3.54-29.1-1.2-43.21-1.51-50.57-1.51-50.57Z"/><path class="cls-18" d="M1084.29,934.17q64.59,0,129.18,0c18.52,0,22,8.58,21.93,26.16,0,16.15-3.71,25.63-22.45,25.68-4.22,0-8.53.46-12.65-.09-12.39-1.64-14.88,2.85-13.26,12.23,15.86,91.5,31.33,236.73,47.15,328.23,1.08,6.23.1,8.7-8.46,8.8-21.38.26-21.82.68-24.79-16.46-10.1-58.37-20-176.75-29.52-235.19-1.29-8-4.58-10.35-14.23-10.27q-73.44.6-146.9,0c-9.4-.08-9.73,2.73-10.91,9.91-10,61.55-23,183-33.08,244.58-.94,5.73-3.8,7.44-10.6,7.54-22,.33-22.64.48-19.8-16.78C946.16,1256,960.42,1133.44,971,1070.9c4.5-26.59,5.39-46.89,10.3-73.43,1.51-8.19-.26-12.83-11.76-11.27-2.47.34-5.07-.1-7.59.07-33,2.29-30.33-20.8-28.42-42.15.74-8.28,9.51-10.23,19-10.19q65.85.33,131.71.24Zm-1,118.14c24.46,0,48.91-.19,73.36.11,7.49.09,10.83-1.26,9.56-8.17-3.94-21.35-7.52-27.89-10.92-49.31-1-6.49-3.77-9.24-12.64-9.13-38.78.48-77.58.55-116.36,0-9.62-.14-12.28,2.87-13.36,9.75-3.25,20.73-6.72,26.58-10.57,47.24-1.34,7.16.61,9.92,10.1,9.71C1036,1052,1059.64,1052.31,1083.25,1052.31Z"/><path class="cls-19" d="M971.1,1069.79c-1.63,9.65-3.27,20.5-4.9,30.15,10.26,2,19.25,3.09,29.43,5.51,1.28-7.79,2.58-15.59,3.85-23.38,1.17-7.18,1.5-10,10.9-9.91,49,.4,96.74.4,145.71,0,9.64-.08,12.94,2.32,14.23,10.27,1.22,7.56,2.48,15.12,3.72,22.68,9.8-3.45,18.2-7.45,27.56-12-5.6-31.62-8.8-63.46-14.46-96.1a17.62,17.62,0,0,1-.05-7.6q-10,.66-20.11,1-6.17.22-12.34.37a17.78,17.78,0,0,1,.7,3c3.4,21.42,4.59,27.95,8.53,49.31,1.27,6.91-2.07,8.26-9.56,8.17-24.45-.3-46.51-.12-71-.12-23.61,0-47.24-.34-70.83.17-9.49.21-9-2.55-7.71-9.71,3.85-20.66,4.92-26.51,8.18-47.24a13.08,13.08,0,0,1,2.4-6.43c-11.62-.35-23.25-.63-34.88-.77,1.58,2,1.63,5.15.89,9.15C976.5,1022.9,975.61,1043.2,971.1,1069.79Z"/><rect class="cls-18" x="990.79" y="736.76" width="570.66" height="57.17" rx="18.84"/><rect class="cls-18" x="844.42" y="1071.28" width="544.09" height="39.02" transform="translate(25.68 2207.26) rotate(-90)"/><rect class="cls-19" x="1031.48" y="793.93" width="494.36" height="39.02"/><rect class="cls-18" x="1117.48" y="883.47" width="320.93" height="39.02"/><path class="cls-20" d="M1122.37,558.94q.87,7.84,1.73,15.69,1.37,12.54,2.71,25.08c.24,2.24.52,4.48.7,6.72a14.49,14.49,0,0,0,4.43,9.51c1.57,1.53,3.27,2.91,4.83,4.43a9.58,9.58,0,0,1,3,6.92c.07,4.9,0,9.81,0,14.72l-.26.09H1139a.23.23,0,0,0-.34,0h-4.22a.77.77,0,0,0,0-.15,38.12,38.12,0,0,0-1.09-10.37,14.31,14.31,0,0,0-2-4.82c-.89-1.26-2.26-1.58-3.19-.67a6.16,6.16,0,0,0-1.49,2.06c-1.86,4.42-2.27,9.08-2.33,13.8l0,.14-20.2,0a.18.18,0,0,0-.16,0l0-.14c-.26-3.79-.49-7.59-.79-11.39s-.46-7.41-.46-11.11c0-8.44-.29-16.88.16-25.32.15-2.89.16-5.78.23-8.67a3,3,0,0,1,0-.43c.69-4.3.55-8.66,1-13,.27-2.33.52-4.66.79-7l.72-6.24c1.5,0,3-.05,4.49-.05,3.9,0,7.79,0,11.68.06Z"/><path class="cls-21" d="M1134.43,642.11h5.08l.25.06c0,.29,0,.57,0,.86v67.44c0,.25,0,.5,0,.75l-20,0-.43-.08a3.51,3.51,0,0,0-.5-1.5,19.82,19.82,0,0,1-1.18-2.62c-.71-2-1.51-4-2.24-6-1-2.77-1.91-5.58-2.69-8.41-1.39-5-2.72-10-3.66-15.12-.23-1.29-.71-2.55-.88-3.84-.28-2.15-.73-4.27-1-6.41-.54-3.51-1.09-7-1.57-10.53-.28-2.08-.54-4.16-.71-6.25-.22-2.8-.88-5.56-.79-8.38l20.2,0c0,2,.24,4,.43,6.07a22.93,22.93,0,0,0,2.46,8.77c1.07,2,2.94,2.11,4.22.27a15.06,15.06,0,0,0,2.13-5.45A38.58,38.58,0,0,0,1134.43,642.11Z"/><path class="cls-22" d="M1104.09,642.12c-.09,2.82.57,5.58.79,8.38.17,2.09.43,4.17.71,6.25.48,3.52,1,7,1.57,10.53.32,2.14.77,4.26,1,6.41.17,1.29.65,2.55.88,3.84.94,5.11,2.27,10.13,3.66,15.12.78,2.83,1.68,5.64,2.69,8.41.73,2,1.53,4,2.24,6a19.82,19.82,0,0,0,1.18,2.62,3.51,3.51,0,0,1,.5,1.5l-1.18,0h-33.56c-.32,0-.64,0-1,0l-.18-.41c0-.25,0-.5,0-.75V643.54c0-.25,0-.5,0-.75.23-.18.17-.44.18-.68l.61,0h19.66A.18.18,0,0,1,1104.09,642.12Z"/><path class="cls-23" d="M1083.66,711.16c.32,0,.64,0,1,0h33.56l1.18,0,.43.08a14.59,14.59,0,0,0,1.76,4.07,52.69,52.69,0,0,0,5.5,8.44,30.77,30.77,0,0,0,4.88,4.8,13.26,13.26,0,0,0,7.83,3.05c.51,3.18-1.86,5.72-5.3,5.7-15.28-.11-30.57,0-45.85,0-3.23,0-5.16-1.9-5.16-5.11q0-10.47,0-20.94A.35.35,0,0,0,1083.66,711.16Z"/><path class="cls-23" d="M1103.62,642.08h-19.07a.17.17,0,0,0-.28,0l-.61,0a.61.61,0,0,0-.18-.05c0-4.84,0-9.67,0-14.51,0-3.54,1.74-6.27,4.38-8.5a43.94,43.94,0,0,0,4-3.6,16,16,0,0,0,4.05-9.71c1.33-13,2.76-26.07,4.15-39.1.27-2.56.53-5.13.8-7.69a20.4,20.4,0,0,1,4.75-.12l-.72,6.24c-.27,2.33-.52,4.66-.79,7-.5,4.31-.36,8.67-1,13a3,3,0,0,0,0,.43c-.07,2.89-.08,5.78-.23,8.67-.45,8.44-.16,16.88-.16,25.32,0,3.7.16,7.43.46,11.11s.53,7.6.79,11.39Z"/><path class="cls-20" d="M1139.76,731.61a13.26,13.26,0,0,1-7.83-3.05,30.77,30.77,0,0,1-4.88-4.8,52.69,52.69,0,0,1-5.5-8.44,14.59,14.59,0,0,1-1.76-4.07l20,0Z"/><path class="cls-24" d="M1105.6,558.83a20.4,20.4,0,0,0-4.75.12,3,3,0,0,0-1.57-.15c-.62,0-.93-.25-.93-.89,0-1.39,0-2.79,0-4.19a2.76,2.76,0,0,1,2.92-2.79q10.37,0,20.74,0a2.78,2.78,0,0,1,2.9,2.92c0,1.25,0,2.51,0,3.76,0,.88-.25,1.28-1.16,1.19a9.24,9.24,0,0,0-1.39.06l-.63,0c-3.89,0-7.78-.05-11.68-.06C1108.6,558.78,1107.1,558.81,1105.6,558.83Z"/><path class="cls-25" d="M1134.43,642.11a38.58,38.58,0,0,1-.9,9.65,15.06,15.06,0,0,1-2.13,5.45c-1.28,1.84-3.15,1.73-4.22-.27a22.93,22.93,0,0,1-2.46-8.77c-.19-2-.43-4-.43-6.07l0-.14h10.09A.77.77,0,0,1,1134.43,642.11Z"/><path class="cls-26" d="M1134.41,642h-10.09c.06-4.72.47-9.38,2.33-13.8a6.16,6.16,0,0,1,1.49-2.06c.93-.91,2.3-.59,3.19.67a14.31,14.31,0,0,1,2,4.82A38.12,38.12,0,0,1,1134.41,642Z"/><path class="cls-20" d="M1366.9,718.31,1351.22,720l-25.08,2.71c-2.25.24-4.48.52-6.73.7a14.51,14.51,0,0,0-9.51,4.43c-1.52,1.57-2.9,3.27-4.43,4.83a9.58,9.58,0,0,1-6.91,3c-4.91.06-9.82,0-14.72,0a2.77,2.77,0,0,0-.1-.26v-.52a.23.23,0,0,0,0-.34v-4.22l.15,0a37.7,37.7,0,0,0,10.37-1.1,14.13,14.13,0,0,0,4.82-2c1.26-.89,1.58-2.27.67-3.2a6.13,6.13,0,0,0-2.06-1.48c-4.41-1.86-9.08-2.27-13.8-2.33a.32.32,0,0,0-.14,0q0-10.1,0-20.2a.18.18,0,0,0,0-.16l.14,0c3.8-.26,7.59-.49,11.39-.8s7.41-.46,11.11-.45c8.44,0,16.88-.29,25.32.16,2.89.15,5.79.15,8.68.23a3,3,0,0,1,.42,0c4.3.69,8.66.54,13,1l7,.79,6.25.72c0,1.5,0,3,0,4.49,0,3.89,0,7.79-.06,11.68Z"/><path class="cls-21" d="M1283.73,730.37c0,1.41,0,2.81,0,4.22v.86l-.06.25c-.28,0-.57,0-.85,0h-67.45c-.25,0-.5,0-.75,0q0-10,0-20l.09-.43a3.75,3.75,0,0,0,1.5-.5,18,18,0,0,1,2.61-1.18c2-.71,4-1.52,6-2.24,2.77-1,5.59-1.91,8.41-2.7,5-1.38,10-2.71,15.12-3.65,1.29-.24,2.55-.72,3.85-.88,2.14-.28,4.26-.73,6.4-1,3.51-.54,7-1.1,10.54-1.57,2.08-.28,4.15-.54,6.25-.71,2.79-.22,5.55-.88,8.38-.79q0,10.1,0,20.2c-2,0-4,.24-6.07.43a22.75,22.75,0,0,0-8.77,2.46c-2,1.07-2.11,2.94-.26,4.22a15.12,15.12,0,0,0,5.44,2.13A38.62,38.62,0,0,0,1283.73,730.37Z"/><path class="cls-22" d="M1283.73,700c-2.83-.09-5.59.57-8.38.79-2.1.17-4.17.43-6.25.71-3.52.47-7,1-10.54,1.57-2.14.32-4.26.77-6.4,1-1.3.16-2.56.64-3.85.88-5.11.94-10.13,2.27-15.12,3.65-2.82.79-5.64,1.68-8.41,2.7-2,.72-4,1.53-6,2.24a18,18,0,0,0-2.61,1.18,3.75,3.75,0,0,1-1.5.5c0-.4,0-.79,0-1.18V680.56c0-.32,0-.64,0-1l.41-.18.75,0h66.46l.75,0c.18.23.44.17.68.18l0,.6v19.67A.18.18,0,0,1,1283.73,700Z"/><path class="cls-23" d="M1214.68,679.6c0,.32,0,.64,0,1v33.56c0,.39,0,.78,0,1.18l-.09.43a14.59,14.59,0,0,0-4.07,1.76,52.6,52.6,0,0,0-8.43,5.5,29.94,29.94,0,0,0-4.8,4.88,13.27,13.27,0,0,0-3.06,7.83c-3.17.51-5.72-1.86-5.7-5.3.11-15.28,0-30.57,0-45.86,0-3.22,1.9-5.15,5.11-5.15l20.94,0A.61.61,0,0,0,1214.68,679.6Z"/><path class="cls-23" d="M1283.76,699.56V680.49a.18.18,0,0,0,0-.29l0-.6a.41.41,0,0,0,0-.19c4.84,0,9.68,0,14.51,0a11,11,0,0,1,8.5,4.38,45.33,45.33,0,0,0,3.6,4,16,16,0,0,0,9.72,4.05c13,1.33,26.06,2.76,39.09,4.15l7.69.8a21,21,0,0,1,.13,4.75l-6.25-.72-7-.79c-4.31-.51-8.67-.36-13-1a3,3,0,0,0-.42,0c-2.89-.08-5.79-.08-8.68-.23-8.44-.45-16.88-.16-25.32-.16-3.7,0-7.42.16-11.11.45s-7.59.54-11.39.8Z"/><path class="cls-20" d="M1194.23,735.7a13.27,13.27,0,0,1,3.06-7.83,29.94,29.94,0,0,1,4.8-4.88,52.6,52.6,0,0,1,8.43-5.5,14.59,14.59,0,0,1,4.07-1.76q0,10,0,20Z"/><path class="cls-25" d="M1283.73,730.37a38.62,38.62,0,0,1-9.65-.9,15.12,15.12,0,0,1-5.44-2.13c-1.85-1.28-1.74-3.15.26-4.22a22.75,22.75,0,0,1,8.77-2.46c2-.19,4-.43,6.07-.43a.32.32,0,0,1,.14,0v10.09Z"/><path class="cls-26" d="M1283.88,730.35V720.26c4.72.06,9.39.47,13.8,2.33a6.13,6.13,0,0,1,2.06,1.48c.91.93.59,2.31-.67,3.2a14.13,14.13,0,0,1-4.82,2A37.7,37.7,0,0,1,1283.88,730.35Z"/><path class="cls-27" d="M720.34,217.67c8.28-1.7,27.54-.71,31.84,1.56,0,0-8.19,8.12-27.38,12.08s-23.66-1.56-23.66-1.56S709.8,219.85,720.34,217.67Z"/><path class="cls-28" d="M743.39,216.77s-9.95,1.7-17.73,3.65-17.35,5.13-17.35,5.13-2.62-5.17,11.49-8.7S743.39,216.77,743.39,216.77Z"/><path class="cls-29" d="M724.48,229c8.61-3.43,16.94-8.81,27.47-10.8,0,0-.11,12-22.47,17.55s-28.08-4.91-28.08-4.91C711.63,227.6,715.28,230,724.48,229Z"/><path class="cls-29" d="M709.31,216.19c4.61-1.51,8-.57,10.05-1.08s4.61-2.94,9.38-3.78c4.48-.8,25.63,4.69,23.87,6.52s-18-2-32.17,1.54-17.35,12.24-19.76,11.45S705,217.59,709.31,216.19Z"/><path class="cls-7" d="M711.18,141s-6,13.4,5.88,13.51C717.06,154.54,709.46,149.89,711.18,141Z"/><path class="cls-7" d="M702.81,142.84s7.67,12.51-4.07,14.16C698.74,157,705.66,151.4,702.81,142.84Z"/></g></g><g id="Layer_14" data-name="Layer 14"><g class="cls-30"><polygon class="cls-31" points="45.73 635.57 49.77 730.43 126.46 635.56 45.73 635.57"/><polygon class="cls-28" points="646.91 0.4 -50.65 905.4 -72.99 0.46 646.91 0.4"/><polygon class="cls-32" points="-5.07 882.63 225.72 877.35 219.59 635.13 -11.19 640.42 -5.07 882.63"/><path class="cls-4" d="M292,227.14l11.37,10.6,16.22-16.33L324,209.33l20.57-19.19a102.74,102.74,0,0,1,.22,12l12.18,22.45.78,42.33,12.15,22.71L324.7,303.72,315.93,276a89.36,89.36,0,0,1-19.62-15.21c-6.75-7.87-13.84-46.09-13.84-46.09C285.86,213.75,289.44,224.68,292,227.14Z"/><path class="cls-5" d="M327.94,232.26a4.46,4.46,0,0,0,1.16-4.44l-6.94-22.92-20.48-61.66a4.38,4.38,0,0,0-7.16-1.85l-26.07,24.07a4.4,4.4,0,0,0-1.18,4.65L295.9,254a4.41,4.41,0,0,0,7.2,1.76Z"/><path class="cls-6" d="M323.66,229.19a3.89,3.89,0,0,0,1-3.92l-6.13-20.71L300.43,148.7a3.86,3.86,0,0,0-6.28-1.63l-23.21,21.08a3.87,3.87,0,0,0-1.05,4.09l26.62,76.16a3.88,3.88,0,0,0,4.93,2.38,3.8,3.8,0,0,0,1.38-.85Z"/><path class="cls-4" d="M324.06,209.33s-2.37.8-8.57,3.46c-7.35,3-9.23-.82-9.23-.82h0a5.29,5.29,0,0,1,2.78-6.9l14.82-6.35-.26-3.14a132.87,132.87,0,0,1-13.46,1.21c-12,.22-7.66-10.14-7.66-10.14l13.75-2-7.19-10a7.63,7.63,0,0,1,.52-10.79c.17-.15.34-.3.53-.44l26.3,20.91s7.59,3,8.14,6.06a100.6,100.6,0,0,1,.22,12Z"/><path class="cls-33" d="M308.36,213.74a11.21,11.21,0,0,0,5.89-.11,59.37,59.37,0,0,0,13.43-4.47l1.87-.86-1.06-.32c2.72,4.12,4.68,8.15,6.41,10.89a13.75,13.75,0,0,0,3.15,4.14,22.91,22.91,0,0,0-2.17-4.72,98.26,98.26,0,0,0-6-11.29l-.37-.59-.69.31-1.84.83a93.22,93.22,0,0,1-13.13,4.87C310.57,213.34,308.36,213.48,308.36,213.74Z"/><path class="cls-33" d="M323.74,199.32c0,.2,1.25-.55,3.28-1.25a14.71,14.71,0,0,1,7.69-.71,14.43,14.43,0,0,1,6.91,3.51c1.54,1.36,2.26,2.47,2.49,2.34s0-1.46-1.62-3.28a13,13,0,0,0-7.45-4.36,13.24,13.24,0,0,0-8.54,1.28C324.48,198.05,323.6,199.15,323.74,199.32Z"/><path class="cls-33" d="M303,186.33c0,.49,7.16-1.31,16-1.9s16,.09,16.12-.48a39.57,39.57,0,0,0-16.23-1.3A40.8,40.8,0,0,0,303,186.33Z"/><path class="cls-33" d="M324.65,268.55c.26,0-.41-2.44-.61-6.34a31.38,31.38,0,0,1,11.84-26.66c3.06-2.47,5.29-3.4,5.18-3.8a14.17,14.17,0,0,0-5.9,2.82,29.26,29.26,0,0,0-12.34,27.73A13.9,13.9,0,0,0,324.65,268.55Z"/><path class="cls-34" d="M232.91,266.27l42,5.84a39.47,39.47,0,0,1,11.44,4.25c13.25,7.4,29.46,18.22,35.8,31.61l8.15,51.35-8.52-64.5,43.24-20.52s38,84.63,48.09,132.56C420.9,443.75,430,487,400,504.17c-49.47,27.3-74.43-19.82-97.63-48.23l-33.64-64.72Z"/><path class="cls-35" d="M321.81,294.82c2.63,14.17,4.54,32.52,7.71,48.94,3.24,16.8,6.26,32.87,8.72,47.46s4.62,27.75,7.42,38.56a149.21,149.21,0,0,0,8.78,24.89c2.55,5.58,4.06,8.73,4.06,8.73a12.34,12.34,0,0,1-1.37-2.14,71.44,71.44,0,0,1-3.51-6.34A136.68,136.68,0,0,1,344.18,430c-3.05-10.87-5.49-24.05-7.91-38.64s-5.68-30.4-8.86-47.35l-6.62-49.12"/><path class="cls-4" d="M140.13,189.78s7.67,30.4-7.51,61.54c-1.46,3-17.54,9.74-17.54,9.74l26,8.4c17.77,4,57.5,4,74.67-1.38L230.07,260s-18.11-3.94-19-7.77,2.37-32.64,2.37-32.64"/><path class="cls-4" d="M215.36,255.53h-85l-11.92,27.3s22.84,19.48,25.19,20.4,56.66,12,56.66,12,60.86-20.73,60-20.57S215.36,255.53,215.36,255.53Z"/><path class="cls-34" d="M3.43,575.59c-.55,2.92-3.69,75.27-.55,76.66,67.29,44.24,136.8,35.89,298.68-19.35,5-89.55,8.54-283.65,8.54-283.65l-9.34-57.12a161.79,161.79,0,0,0-32.15-13.38c-11-3.22-27.67-6.14-34.18-8,1.88,8.55-.06,16.37-5.84,21.2a49.13,49.13,0,0,1-28.84,11.21c-10.1.52-20.35-1.51-29.92-4.62-17.91-5.81-39-25.61-43.58-44.84l-6.89,3s-72.74,30.94-81.29,34.67S61.73,516.06,61.73,516.06Z"/><path class="cls-36" d="M307.5,479.73c.39,0,0-6.18.36-6.16-.05-11.63.53-79.91.42-88.84-.16-9.57-.27-17.34-.47-22.67a77.25,77.25,0,0,0-.43-8.34,66.54,66.54,0,0,0-.44,8.35c.15,5.79,0,13.29-.15,22.72,0,8.93.75,84.07.71,95.7C307.72,480.4,307.26,479.72,307.5,479.73Z"/><path class="cls-36" d="M84.91,354.94a83.28,83.28,0,0,1-2.9-9.12,107,107,0,0,0-22.75-39.49,88.05,88.05,0,0,1-6.42-7.1,33.86,33.86,0,0,1,7.38,6.17,89.82,89.82,0,0,1,23.07,40.05A33,33,0,0,1,84.91,354.94Z"/><path class="cls-37" d="M136.58,199.93a2.46,2.46,0,0,0,0,.28C136.56,200.09,136.54,200,136.58,199.93Z"/><path class="cls-4" d="M203.42,257.43l32.2-.92L251.74,253c1.63.05,8.87-16.4,10-18.48,3.51-6.47,8.09-14.93,10.28-22,2.34-7.55,7.17-14.06,8.4-23.15.9-6.66,1-11.33-2.51-22.22a15.34,15.34,0,0,1-.18-8.48c1.51-6.23,2.09-13.53,3.93-21.89.14-.65.94-3.83.69-4.55,0,0,1.8-34.88-4.39-47.43S262.43,66.48,253.27,64,217,63,217,63L179.6,57.24l-32,15.44-16.54,38.5,1.9,44.89,4.4,40.13"/><path class="cls-5" d="M143.65,152.85c.15,3.47,4.34,20.8,4.7,24.18l-17.93-.49c-5.3-11.94-11.68-26-13.71-29.18-3.17-5,6.22-29.61,6.1-38.7l0-2c-.14-8.72,8.31-22.5,22.6-36.85,24.58-24.71,23.38-25,61-22,2.58.21,5.16.51,7.66.89,23.61,3.69,43.34,3.49,58.26,23.39,10.76,14.36,2.67-3.64,1.68,6.29-.49-19.61,3.13-3.42,1.12-5.73-11.77-13.58-17.74.77-23.54-.14a19.63,19.63,0,0,0-9.64.83c-5.76,1.25-11.28.46-17.34-.48-4.51-.7-15.92-3.38-16.89-3.6-3-2.14-.3-13.92-5.9-14.8-13-2-30.88,3.57-37.19,6.45-7.47,3.4-25.32,10.76-23,30.72"/><path class="cls-5" d="M248.28,248.72a1.37,1.37,0,0,1-.6-.23c-3.4-2.31-3.65-3.59-5.32-4a9.21,9.21,0,0,0-1.78-.42c-4.82-.73-7.76-1.27-20.79,6.8-.26.16-17.19-2.18-17.52-2.21l-8.7-4.23c-1.45-.92-33.94-28.88-33.94-28.88-.48-.93-6.34-7.56-6.56-8.44a2.29,2.29,0,0,0-.31-.16l-.21-.08a1.54,1.54,0,0,0-.05.17,5.54,5.54,0,0,0,0,1.15,18.86,18.86,0,0,0,.85,4.87c.73,2.44,1.15,4.92,1.79,7.37.22.87.49,1.72.79,2.56,3.71,2.37,27.16,32.57,40.64,39.43.87.24,3.64,1.05,11,1.75,13.87,1.32,27.28,1.45,41-2.37a12.29,12.29,0,0,0,7.94-6.8c4.2-9.39,13.44-30.29,15.82-44.36-3.88,8.13-12.05,25.55-17.68,37.4-.17.36-5.45.59-5.89.72"/><path class="cls-4" d="M141.33,200.78c-14.65,14-17.27-10.11-17.27-10.11-9.86-12.38-9.57-25.34-9-34.2s10.31-8.5,10.31-8.5c8.26,1.08,11.86,5.61,18.16,33.69"/><path class="cls-5" d="M246.38,64.55c-13.46-.31-48.73-9.83-67-11.09-7.56-.52-32.77,18.05-36.06,22.28C135.79,85.46,153,108,139.86,139c-4.33,10.26-10.21-7.78-15.64-1.08s-7.51,9.41-7.51,9.41c-3.8-29.82-3.7-28.77,3.05-58.15s38.8-41.95,54.31-44.33,65.19,2.83,78.59,9.16"/><path class="cls-38" d="M136.91,176.36a69.32,69.32,0,0,0-6.45-12,21.81,21.81,0,0,0-4.57-5.06,5.78,5.78,0,0,0-2.36-1.21c-1.15-.19-1.68.55-2.16,1.43-1.93,3.55-1.89,7.86-1,11.7,0,.25,1.46-.08,1.39-.37a18.24,18.24,0,0,1,.16-9.56,9.24,9.24,0,0,1,1.56-3.1l-1.14.39c-.18,0,0,0,0,0a3.71,3.71,0,0,0,.41.12,6.81,6.81,0,0,1,1.74,1c2.63,2,4.56,4.84,6.23,7.6a81,81,0,0,1,4.79,9.43c.13.3,1.48-.17,1.39-.37Z"/><path class="cls-38" d="M133.84,177.92c-6-.38-2.78,7.25-3.27,10.55a2.19,2.19,0,0,1-.14.56c0,.06-.11.18-.11.25l-.06.07c-.19.21,0,.2.55,0,0,0-.39-.32-.41-.34a4,4,0,0,1-.54-.95A29.63,29.63,0,0,1,128,175.55c.34-2.64,1.11-6.72,3.9-7.86.91-.37.06-.63-.5-.4-2.67,1.09-3.84,3.8-4.43,6.45a18.24,18.24,0,0,0-.47,5.93,40.75,40.75,0,0,0,1.32,6.93c.28,1,.68,2.71,1.68,3.23a1.82,1.82,0,0,0,2.2-.78,5.13,5.13,0,0,0,.23-2.91c-.12-1.34-1.52-7.75,1-7.59.34,0,1.6-.58.89-.63Z"/><path class="cls-5" d="M207.83,150.65c-2-1.12-4.47-.27-5.85.89a5.23,5.23,0,0,0-1.63,2.39,5.37,5.37,0,0,0,1.13,4.92,5,5,0,0,0,5.69,1.16,5.51,5.51,0,0,0,2.89-6.33,4.9,4.9,0,0,0-2.23-3"/><path class="cls-5" d="M267.2,152.72c2.09-1,4.47,0,5.79,1.21a5.15,5.15,0,0,1,1.5,2.48,5.36,5.36,0,0,1-1.41,4.84,5,5,0,0,1-5.75.85,5.54,5.54,0,0,1-2.53-6.49,4.94,4.94,0,0,1,2.4-2.89"/><path class="cls-5" d="M249.85,160s8.53-8.06,14.61-8.45c8.88-.57,11.09,1.49,14.11,5.64,0,0-5.68-4.4-11.92-3.84C260.69,153.94,249.85,160,249.85,160Z"/><path class="cls-5" d="M221.16,157.08s-12.2-8.17-18.28-8.5c-8.88-.48-19.62,4.47-22.6,8.65,0,0,14.18-7.33,20.42-6.82C206.68,150.89,221.16,157.08,221.16,157.08Z"/><path class="cls-5" d="M223.19,121.35l1.08,6.26c.27,1.6,1,5.21,1.27,6.8-5.24-.46-10.11-1.68-13.45-1.68-6.62,0-13.48-.48-19.8,1.67a22,22,0,0,0-7.93,4.38c-.73.65-2.56,3.23-3.88,2.88-.54-.14-.17-2.85-.13-3.13.78-5.47,4.78-8.38,9.93-10.56,10.49-4.43,21.54-6.08,32.91-6.62"/><path class="cls-5" d="M282.61,135.64l-3.15-2.08c-8.76-5.82-18.53-9-28.78-11.14l-2.13,6c-.53,1.53-1.6,4.24-2.13,5.76,4.87.29,9.21.12,12.26.59,6,.92,12.41,1.82,17.78,4.82.43.24,2.7,1.57,3.11,1.82C282.36,139.29,283.26,136.36,282.61,135.64Z"/><path class="cls-5" d="M222.61,230.07l22.84-.55s-5.62,8.7-11.19,8.55C230.78,238,226.22,234.09,222.61,230.07Z"/><path class="cls-10" d="M242,194.59a9.84,9.84,0,0,1-9.16-.85c-.57-.38-2.52-.08-1.72.46,3.4,2.28,9.08,2.65,12.49.94.34-.17.28-.43-.13-.58a2.2,2.2,0,0,0-1.48,0"/><path class="cls-10" d="M230,193.4a16,16,0,0,0-5.62-1.6,1.22,1.22,0,0,0-.87.26c-.17.15-.21.35,0,.48a6.09,6.09,0,0,0,3.09.81,1.15,1.15,0,0,0,1-.35c.19-.27-.13-.45-.39-.46a4.69,4.69,0,0,1-2.49-.66l-.88.73a14.3,14.3,0,0,1,5,1.45,1.19,1.19,0,0,0,1-.08c.21-.13.44-.41.13-.58"/><path class="cls-10" d="M222.27,193.44c-2.28-.12-5-1.22-6-3-1.63-2.71.07-6.78,3-8.4.32-.18.16-.42-.15-.5a1.85,1.85,0,0,0-1.23.22,8.07,8.07,0,0,0-3.93,7.25c.28,2.34,2.43,4,5.15,4.78a12.41,12.41,0,0,0,2.52.43c.35,0,1-.08,1.15-.35s-.13-.41-.46-.42"/><path class="cls-10" d="M246.26,193.51a.3.3,0,0,1,.3-.43,2.57,2.57,0,0,0,1.79-.55l.58.78a7.8,7.8,0,0,0-3.62,1.21.64.64,0,0,1-.73-.14c-.14-.13-.29-.43-.07-.57"/><path class="cls-10" d="M244.51,193.81a8.92,8.92,0,0,1,4.05-1.34.74.74,0,0,1,.61.3.33.33,0,0,1,0,.48"/><path class="cls-10" d="M251,194a4.66,4.66,0,0,0,4.05-2.72,7,7,0,0,0-1.58-7.57.28.28,0,0,1,.13-.49.85.85,0,0,1,.78.28,7.79,7.79,0,0,1,2.25,6.45,5.37,5.37,0,0,1-3.56,4.54,5,5,0,0,1-1.66.31c-.22,0-.63-.11-.73-.39s.11-.4.32-.41"/><path class="cls-5" d="M253.49,70.21a8.45,8.45,0,0,0-3.91-1.38l-1.53-.5q-6.81-.14-13.61.13a9.75,9.75,0,0,0-3.32.53,1.77,1.77,0,0,0-.31.15c-3.36-.16-6.72-.27-10.08-.29l-1.55.39a9.43,9.43,0,0,0-4,1.1,1.32,1.32,0,0,0,.29,2.46c1.37.45,3.42-.26,4.36.53s-1,2.12-.36,3.14c.39.65,1.6.87,2.39,1.33.94.55,1.24,1.44,2.12,2a4.7,4.7,0,0,0,3.56.51c1.27.11,3-.39,3.37.48a1.54,1.54,0,0,1,0,.74,2.52,2.52,0,0,0,1.91,2.34,4.1,4.1,0,0,0,3.58-.47c.9-.66,1.23-1.67,2.18-2.28a7.27,7.27,0,0,1,1-.49,3.14,3.14,0,0,0,1.18.7,4.13,4.13,0,0,0,3.58-.47c.9-.66,1.23-1.68,2.18-2.28.8-.52,2-.73,2.42-1.46.64-1.16-1.33-2.67-.27-3.64s3,0,4.37-.48A1.59,1.59,0,0,0,253.49,70.21Z"/><path class="cls-5" d="M222,252.84a7,7,0,0,0,3.25.86l1.27.3q5.5-.33,11-1a7.93,7.93,0,0,0,2.65-.64l.24-.14c2.72-.09,5.44-.22,8.15-.42l1.22-.42a7.51,7.51,0,0,0,3.12-1.14,1.07,1.07,0,0,0-.39-2c-1.14-.27-2.74.44-3.55-.14s.64-1.78.08-2.56c-.35-.5-1.34-.59-2-.92s-1.1-1.08-1.84-1.5a3.87,3.87,0,0,0-2.91-.18c-1,0-2.38.51-2.75-.17a1.08,1.08,0,0,1-.07-.59,2.06,2.06,0,0,0-1.7-1.77,3.38,3.38,0,0,0-2.86.61c-.68.59-.88,1.43-1.61,2a7.28,7.28,0,0,1-.78.46,2.6,2.6,0,0,0-1-.49,3.38,3.38,0,0,0-2.86.61c-.68.59-.88,1.43-1.61,2s-1.58.72-1.86,1.33c-.44,1,1.25,2.06.45,2.92s-2.41.19-3.49.67A1.29,1.29,0,0,0,222,252.84Z"/><path class="cls-39" d="M118.46,149.21a8.64,8.64,0,0,1-4-.82,2.93,2.93,0,0,1-1.46-3.48c.88-2,4.52-2.37,4.28-4.54-1.81-2.11-6.07-1.25-7.11-3.83-.84-2.08,1.39-4,3.32-5.19-1.36-1.28-1-.12-2.77-.57s-2.87-4.83-1.85-6.4c1.15-1.78,1.8-.35,1.11-2.35-1.45-.44,1.71-1.7.61-2.73a3.43,3.43,0,0,1-.89-4.1c1-1.55.77-2.7.73-4.52,0-1.56,3-1.86,2.06-3.1-1.7-2.26.54-5.33,2.64-7.23-1.24-.82.26-1.1-.53-2.36a3.6,3.6,0,0,1,0-4.17,16.9,16.9,0,0,1,2.23-1.58c2.92-2.36,1.11-7-.89-10.21a5.38,5.38,0,0,0,5.59-4.44c.18-1.23-.08-2.53.35-3.69s2.11-2,2.9-1"/><path class="cls-5" d="M119.55,148.53c-1.61-.07-3.45-.18-4.48-1.6a2.27,2.27,0,0,1,.41-3.32c.94-.74,4.17-2,3.43-3.75-.35-.8-1.78-1.21-2.53-1.45a20,20,0,0,1-3.22-1,2.48,2.48,0,0,1-1.43-2.79c.36-1.46,1.83-2.5,3-3.24.19-.12.56-.38.3-.61a2.31,2.31,0,0,0-1.46-.73,3.5,3.5,0,0,0-.91.07,3.61,3.61,0,0,0-.57.12c-.38.14.3-.08.33,0a4.65,4.65,0,0,1-.79-.32,2.42,2.42,0,0,1-.58-.69,6.06,6.06,0,0,1-.72-1.79c-.3-1.19-.51-2.91.54-3.81.19-.16.75-.33.93-.67a1.62,1.62,0,0,0-.24-1.41c-.22-.41-.42,0-.13-.56s.72-.66.91-1.12a.89.89,0,0,0-.15-1,5.11,5.11,0,0,1-1.19-2.25c-.14-1,.39-1.61.74-2.51a6.14,6.14,0,0,0,.36-2.29c0-.65-.22-1.49.14-2s.89-.69,1.29-1,.78-.61.77-1.09c0-.64-.66-1.2-.75-1.89-.27-2.15,1.61-4.17,3-5.51.13-.12.25-.3.07-.43-.67-.51-.19-.79-.19-1.45,0-.82-.72-1.58-.85-2.41-.4-2.6,2.14-2.91,3.44-4.57,2.26-2.88.17-7.12-1.47-9.77l-2.77,1.13A8.92,8.92,0,0,0,122,79.82a5.54,5.54,0,0,0,1.25-3.3,13.23,13.23,0,0,1,.15-2.52,3.1,3.1,0,0,1,.46-1l.22-.2c-1.11,0-1.41.25-.91.62.63.6,3.68-.66,3.18-1.14-1.64-1.57-5.56.14-6.21,2.07-.49,1.45,0,3-.54,4.47-.39,1-1.36,2.54-2.59,2.48-.32,0-3.14.54-2.77,1.13,1.75,2.83,4.21,8,.47,10.27-1.67,1-2.88,2.3-2.38,4.41.19.81.86,1.46.72,2.3s-.24.94.44,1.46l.07-.44a10.62,10.62,0,0,0-3.21,4.49,3.9,3.9,0,0,0-.07,2.14c.17.53.86,1.09.51,1.61-.23.36-.89.6-1.21.87a2.15,2.15,0,0,0-.87,1.32c-.13.78.07,1.62,0,2.42a10.19,10.19,0,0,1-.94,2.63,3.37,3.37,0,0,0,.08,2.34c.23.57,1.15,1.29,1.22,1.83.11.83-1.36,1.21-1.21,2.06,0,.16.22.22.29.34s.26.82.36.88.8-.51,0,0a3.9,3.9,0,0,0-.78.57,4,4,0,0,0-1,3.54c.17,1.29.7,3,1.92,3.74a3.94,3.94,0,0,0,2.12.35,4.06,4.06,0,0,0,1.31-.24c.4-.24-1.08.26-1,.07a4.6,4.6,0,0,1,.67.53l.3-.61c-2,1.21-5.4,3.94-3.21,6.48a5.88,5.88,0,0,0,3.06,1.49c1,.25,2.73.47,3.36,1.37s-.88,1.85-1.6,2.29a5.76,5.76,0,0,0-2.47,2.26,3.08,3.08,0,0,0,1.25,3.57c1.34,1,3.19,1,4.78,1.12a4.07,4.07,0,0,0,2.38-.64c.51-.35.49-.69-.19-.72Z"/><path class="cls-40" d="M123.76,78.93c.36-1.66,1.83-9.55,2.18-11.21a3.73,3.73,0,0,0,4.82-3.15c.05-1.12-.33-2.5.58-3.16s2.2.18,3.34.11c2.54-.14,2.86-4.27,5.24-5.18,1.49-.56,3.22.38,4.74-.12,2.29-.76,2.63-4.2,4.84-5.18,1.52-.67,3.34.12,4.95-.34,3.48-1,4.63-6.14,8.25-6.2,1.32,0,2.56.86,3.87.73,2.36-.23-1.17-2.66,1.17-3,2.15-.32,3.88,1.94,6,2.16,3.52.36,5.83-5.55,9.12-4.23,1.41.56,2.19,2.16,3.58,2.78,3.24,1.46,6.56-3.22,10-2.43,1.74.4,3,2.12,4.77,2.34,2.75.33,4.85-3.1,7.61-2.91,2.21.15,3.86,2.57,6.06,2.43,1.55-.09-2.27-1.78-.74-2,2.61-.4,4.59,2.47,7.17,3,2.17.44,4.28-.83,6.42-1.38s6.9,3.61,7,5.82"/><path class="cls-5" d="M125.43,78.67c.8-3.72,1.39-7.49,2.18-11.21l-3,1a6.78,6.78,0,0,0,7.17-2.32,4.92,4.92,0,0,0,.66-3.23,8.61,8.61,0,0,0,.08-1l.16-.34c-1.27.22-1.52.38-.74.46a5.52,5.52,0,0,0,2.28.26c2.58-.19,3.88-1.76,5.12-3.8a9.1,9.1,0,0,1,.77-1.14c.12-.15.31-.43.5-.5-.56.21.58.18.63.19a8.18,8.18,0,0,0,4.71-.59,5.91,5.91,0,0,0,2.33-2.16c.48-.73,1.17-2.56,2.06-2.83a10.46,10.46,0,0,1,1.78.17,8.63,8.63,0,0,0,2.53-.28,8.09,8.09,0,0,0,3.3-1.8,20.72,20.72,0,0,0,2.14-2.35c.31-.37.62-.74.95-1.08a7.27,7.27,0,0,1,.57-.54c.07,0,.62-.35.29-.28a4.49,4.49,0,0,1,1.79.44,6.68,6.68,0,0,0,2.22.28c1-.06,2.73-.37,3.15-1.4.24-.57-.14-1.09-.32-1.62a3,3,0,0,0-.12-.45c.07.06-1.23.23-1.21.42,0-.07,2.1.9,2.26,1a7,7,0,0,0,7.05.36c1.79-.91,3.19-2.46,4.8-3.64.16-.12-.29.1-.34.06a5.14,5.14,0,0,0,.59.22,6.89,6.89,0,0,1,1.52,1.28A5.21,5.21,0,0,0,186.54,44c2.64.24,4.91-1.27,7.17-2.37a2.47,2.47,0,0,1,2.85.23c1.19.72,2.23,1.6,3.66,1.77,2.75.32,4.86-1.33,7.09-2.61,1-.57,1.88.12,2.76.67a8.1,8.1,0,0,0,3.5,1.47c.8.06,3.19-.1,3.43-1.19.14-.61-.72-1-1.08-1.37a1.6,1.6,0,0,0-.33-.31c-.46-.25-1.87.43-1.33.88a4.4,4.4,0,0,0,.75.25,8.84,8.84,0,0,1,1.23.7A12.4,12.4,0,0,0,220,44.05a9.84,9.84,0,0,0,5.2-.53c1.46-.47,2-1.08,3.32-.43,1.79.89,4.37,3,4.57,5.13.07.83,3.46.16,3.36-.9-.21-2.3-2.89-4.43-4.75-5.43a5.41,5.41,0,0,0-3.47-.72c-1.78.26-3.58,1.62-5.39,1.45-1.62-.16-3-1.5-4.34-2.26a6.09,6.09,0,0,0-4.48-.67c-.78.18-2.31.71-1.69,1.7.17.27,1.29,1.1,1.27,1.13l.67-.59c1.67-1,1.29-.14.76-.48-.22-.15-.54-.22-.78-.35-.47-.25-.9-.55-1.35-.83a7.24,7.24,0,0,0-2.63-1.09,8.85,8.85,0,0,0-5.85,1.67c-.54.35-1.37,1.14-2,1.21s-1.91-.92-2.57-1.34a6.55,6.55,0,0,0-5.58-.79,14.69,14.69,0,0,0-2.85,1.16A15,15,0,0,1,189,42.33c-1.65.45-3-2-4.27-2.71-3.35-1.77-6.43,1.28-8.8,3.21-.3.24-.61.45-.92.67s-.33.11-.14.1c-.91,0-2.12-.93-3-1.37a5.87,5.87,0,0,0-5.66-.19,1.66,1.66,0,0,0-.55,2.64c0,.06,0,.29.07.32s1.57-.23.88-.64a6.45,6.45,0,0,0-1.77-.5,6.67,6.67,0,0,0-3.14.09,8.73,8.73,0,0,0-4.36,2.92c-.83,1-2.06,3-3.26,3.19s-2.36-.19-3.53,0a6.75,6.75,0,0,0-3.1,1.28,7.41,7.41,0,0,0-1.63,2,7.07,7.07,0,0,1-1.54,2.22c-.74.48,0,0-.14,0a7.13,7.13,0,0,1-1.21-.14,8.65,8.65,0,0,0-2,0,6.36,6.36,0,0,0-3.21,1.3,7.68,7.68,0,0,0-1.65,2.06c-.24.39-.46.79-.71,1.18-.15.22-.68.68-.74.91-.09.38.51-1,.39-.18L134,60.46a5.38,5.38,0,0,0-1.79,0A4,4,0,0,0,129.33,62c-.56,1-.1,2.19-.31,3.26a2.78,2.78,0,0,1-.74,1.43c-.46.48-.39.46-1,.28s-2.84.06-3,1c-.8,3.72-1.39,7.48-2.19,11.2-.2,1,3.14.44,3.34-.52Z"/><path class="cls-41" d="M159,57.93c-12.8,5.15-18,9.75-24.22,22.07l73.26-26.44a65.49,65.49,0,0,0-15.93-1.46C178.37,52.79,171.83,52.77,159,57.93Z"/><path class="cls-5" d="M158.38,57.25c-5.4,2.19-10.79,4.75-15.16,8.67s-7.36,8.91-10,14.06c-.65,1.28,1.66.9,2.22.69l24.85-9,39.33-14.2,9.08-3.28c.73-.26,1.63-1.33.37-1.57a69.54,69.54,0,0,0-15.35-1.54c-4.22.13-8.45.36-12.65.69a76.81,76.81,0,0,0-22.73,5.44c-.46.19-1.36.75-.91,1.33s1.72.22,2.23,0a70.34,70.34,0,0,1,20.94-5c3.92-.31,7.87-.53,11.8-.64A65.77,65.77,0,0,1,207,54.46l.38-1.57-24.84,9-39.33,14.2-9.09,3.28,2.23.7c2.45-4.86,5.26-9.69,9.31-13.4s9-6,14-8c.46-.19,1.35-.74.9-1.33S158.88,57.05,158.38,57.25Z"/><path class="cls-41" d="M264.56,57.67c-.36-.16-.72-.32-1.06-.5-1.75-.92-3.13-3.52-1.55-4.72-3.53,1.49-6.16-4.63-10-4.52a22.81,22.81,0,0,0-3.19.78,5,5,0,0,1-5.66-4.9,12.18,12.18,0,0,1-9.19,1.13l-25.84,8.62c11.42,2.25,23.06,6.37,34,7.61,5.27.59,10.64,1.37,15.39,3.75,3.45,1.74,7.83,2.67,11.38,4.52C267.45,65.51,266,61.57,264.56,57.67Z"/><path class="cls-5" d="M265.87,56.76c-1.08-.48-4.14-2.46-2.54-3.89a.82.82,0,0,0-.07-1.33,2.33,2.33,0,0,0-2,0c-.72.27-2.36-1.38-2.85-1.78a12.9,12.9,0,0,0-4-2.7,6,6,0,0,0-2.6-.26c-1.09.13-2.17.78-3.25.81-2,0-3.67-2.14-3.68-4,0-1.16-1.66-1.13-2.41-.72A10.09,10.09,0,0,1,235.32,44a3.86,3.86,0,0,0-2.24.1l-5.28,1.76-16,5.33-4,1.34c-.52.18-1.2.47-1.37,1a.82.82,0,0,0,.65,1c8.31,1.66,16.41,4.18,24.68,6,4,.87,7.92,1.43,11.93,1.94a40.26,40.26,0,0,1,11.69,2.9c2,.9,3.91,1.75,5.95,2.46a47.53,47.53,0,0,1,6.22,2.45c.77.38,3.5,0,3-1.37-1.42-3.93-2.83-7.87-4.31-11.77-.53-1.39-3.87-.43-3.37.9,1.49,3.91,2.9,7.84,4.31,11.77l3-1.36c-3.48-1.77-7.31-2.61-10.84-4.26A43.35,43.35,0,0,0,248,60.75c-4.07-.67-8.17-1-12.22-1.82-4.2-.85-8.34-1.93-12.49-3-4.71-1.23-9.43-2.46-14.21-3.41l-.71,2.08L231,47,234.2,46l-1.27,0a14.92,14.92,0,0,0,10.9-1.3L241.42,44a5.86,5.86,0,0,0,3.72,5.43,6.62,6.62,0,0,0,3.91.35c1.09-.22,2.19-.94,3.3-.55,1.77.64,3.09,2.29,4.58,3.36a5.8,5.8,0,0,0,5.73.77L260.56,52c-2.65,2.37.38,5.52,2.68,6.54a2.48,2.48,0,0,0,2.41-.25C266.09,58,266.66,57.1,265.87,56.76Z"/><path class="cls-42" d="M201.13,108s35.28-4.29,59.27,1.08"/><path class="cls-39" d="M268.59,226.43a35.65,35.65,0,0,1-3.89,9.68c1.26.39.76,2.35-.21,3.25s-2.31,1.87-2,3.16c.11.44.41.83.51,1.28.3,1.41-1.43,2.31-2.82,2.7,1,.72.18,2.27-.75,3s-2.12,1.72-1.79,2.87c.17.57.7,1,.7,1.61,0,1.24-2,1.27-2.69,2.32-.38.6-.2,1.39-.35,2.09a2.3,2.3,0,0,1-3.48,1.24c-.24,2.5-1.27,5.75-3.78,5.66-1.56-.05-3.07-1.53-4.48-.87-.87.41-1.24,1.47-2,2-2.72,1.79-6.19-3.88-8.9-2.07-1.45,1-1.35,3.54-3,4.13s-3-1.25-4.62-1.4-3.57,1.66-5.18.86c-.69-.35-1.09-1.1-1.68-1.6-1.37-1.14-2.71.64-4.4,1.2-3,1-3.33-1.18-3.33-1.18-.93-2.12-2.11-1.94-4.11-.77a5.06,5.06,0,0,1-2,1c-1.87.12-2.81-2.95-4.67-2.75a6,6,0,0,0-1.85.89c-2.26,1.09-5.12-1.91-3.93-4.11a5.25,5.25,0,0,1-5.14-5.55,4.74,4.74,0,0,1-6-4c-3.1.91-6.47-2.74-5.31-5.76a3.74,3.74,0,0,1-4.87-3.37c0-1.2.5-2.71-.5-3.37-.67-.43-1.54-.12-2.33-.11a3,3,0,0,1-2.6-4.07c-3.07.82-6-3.44-4.16-6-2.43.58-4.68-2.76-3.23-4.79-3.35,0-5.69-4.48-3.85-7.28l39.3,39,10,4.37s35.37,2.61,42-.51S268.59,226.43,268.59,226.43Z"/><path class="cls-5" d="M266.93,226.71a36.86,36.86,0,0,1-3.9,9.69.22.22,0,0,0,.08.29c2.26,1-1.27,3.66-1.86,4.52a2.32,2.32,0,0,0-.12,2.55A1.53,1.53,0,0,1,260,246c-.21.06-2,.61-1.43,1.13,1.37,1.34-1.38,3-2.07,3.85a2.36,2.36,0,0,0-.63,1.58c.05.67,1,1.45.71,2.09-.18.46-.78.59-1.18.82a3.71,3.71,0,0,0-1.29,1,3,3,0,0,0-.45,1.73,8.27,8.27,0,0,1-.27,1.09c-.42.4-.24.44.55.11a1.25,1.25,0,0,1-.57-.27c-.67-.45-3.17.1-3.27,1a9.36,9.36,0,0,1-1.08,3.77c-.16.27-.41.49-.56.75l-.18.16c.52-.18.53-.31,0-.36a6,6,0,0,0-2.42-.8,5.76,5.76,0,0,0-4.17,1.09,8.64,8.64,0,0,0-1.08,1.18l-.21.25c-.55.45-.26.44.87,0a5.76,5.76,0,0,0-.82-.21c-2-.79-3.5-2.56-5.76-2.57a6.3,6.3,0,0,0-3.43,1,6.38,6.38,0,0,0-2,3c-.12.24-.3.47-.4.72l-.21.22c1.16-.16,1.37-.33.63-.49a9.84,9.84,0,0,0-1.83-.93,6.21,6.21,0,0,0-4.47.09c-.35.11-1.31.66-1.65.61.26,0-.51-.45-.56-.49a8.06,8.06,0,0,1-.68-.74c-1.12-1.19-2.53-1.11-4-.62a9.67,9.67,0,0,0-1.84.87c-.39.23-.84.66-1.28.57-.59-.12-.74-.64-.95-1.1-1.11-2.54-3.65-2.13-5.84-1.1a10,10,0,0,0-.92.48,7.16,7.16,0,0,0-.66.39q-.85.47.48.18s-.59-.3-.67-.35a6,6,0,0,1-.59-.54c-.89-.86-1.64-1.79-3-1.87a6,6,0,0,0-2.57.51,4.32,4.32,0,0,0-1,.5c-.43.23-.39.25.11.08a1.76,1.76,0,0,1-.58-.25,2.88,2.88,0,0,1-1.4-3.63c.15-.33-.38-.42-.58-.42a4.91,4.91,0,0,1-4.53-5.3c0-.51-1.73-.13-1.83-.09-.9.27-2.07-.48-2.72-1.05a4.26,4.26,0,0,1-1.47-2.88c-.05-.53-1.65-.15-1.83-.1-.93.23-2.39-1.21-2.86-1.87a4,4,0,0,1-.63-3.63c.26-.81-2-.2-2.26-.12.74-.25.05-.12-.35-.27a3.28,3.28,0,0,1-.86-.48,3.39,3.39,0,0,1-1.26-1.74c-.38-1.27.46-2.82-.31-4-.93-1.41-2.65-.31-3.88-.84a2.82,2.82,0,0,1-1.39-3.5c.23-.58-1.18-.4-1.35-.36-1.15.25-2.39-1.15-2.86-2a3.48,3.48,0,0,1,.05-3.63c.36-.54-1.29-.37-1.35-.36-.77.14-1.73-1.19-2-1.73a2.69,2.69,0,0,1,.1-2.7c.2-.33-.42-.41-.58-.42-3.15-.17-4.78-4.35-3.27-6.85l-3.25.87,18.68,18.55,13.29,13.19,4.76,4.73a27.85,27.85,0,0,0,2.44,2.42,19.92,19.92,0,0,0,4.25,1.93l4.27,1.86a9.7,9.7,0,0,0,2.16.85c1.12.18,2.31.16,3.44.23q4.14.25,8.28.44c7,.31,14.11.53,21.15.22,4.88-.22,10.39-.36,14.05-4a46,46,0,0,0,5.36-6.84c2-3,3.86-6,5.65-9.11q4.13-7.1,7.83-14.4l.42-.83c.29-.57-1.16-.4-1.35-.36-.58.09-1.67.33-2,.93-1.76,3.52-3.62,7-5.53,10.43a138.72,138.72,0,0,1-10.75,17.24,34.07,34.07,0,0,1-2.59,3,14.41,14.41,0,0,1-1.07,1l-.43.32-.21.14c-.29.19.16-.09-.09.06s.22-.06-.23.09.24,0-.28.09l-.48.12-.71.13c-1.2.21-2.28.31-3.55.41a177.83,177.83,0,0,1-20.26,0c-4.7-.18-9.4-.6-14.1-.75-.89,0,.43.3-.23,0-1.07-.56-2.24-1-3.35-1.46l-4.17-1.82a13.08,13.08,0,0,1-2.2-1,13.1,13.1,0,0,1-1.5-1.48l-4-3.94-12.52-12.43-21-20.82-.37-.37c-.63-.62-2.86.24-3.25.87-2,3.33.78,7.5,4.43,7.7l-.57-.42a3.29,3.29,0,0,0,.41,3.9,4.13,4.13,0,0,0,4.18,1.25l-1.36-.36a4.09,4.09,0,0,0,.48,4.82,4.87,4.87,0,0,0,5,1.57l-1.36-.36a3.3,3.3,0,0,0,1.41,4,4,4,0,0,0,2.33.46c.62,0,1.3-.21,1.63.44a2.77,2.77,0,0,1,.14,1.43c-.11,1.78,0,3.27,1.6,4.38a6,6,0,0,0,5.44.32l-2.25-.12a4.67,4.67,0,0,0,1.48,5,6,6,0,0,0,5.64,1l-1.83-.1c.37,3.85,4.62,5.1,7.84,4.13l-1.83-.1a5.67,5.67,0,0,0,5.73,5.81l-.57-.42c-1.21,2.62,1.55,4.93,4,4.75a7.37,7.37,0,0,0,2.53-.68c.13-.06.91-.39.93-.53,0,.33-.85-.22-.6.2.07.13.39.25.52.36.9.74,1.54,1.83,2.72,2.17,1.57.46,3.35-.28,4.66-1.12a8.17,8.17,0,0,0,1.11-.67c.46-.39-.49.22-.47,0a2.25,2.25,0,0,1,.3.16c.23.43.64.78.85,1.27,1,2.22,3.66,1.75,5.59,1.07a12.17,12.17,0,0,0,2.14-1.06c.21-.12,1.24-.71.26-.28-.75.32-.41,0-.18.31a6.67,6.67,0,0,0,.59.6,3.7,3.7,0,0,0,3.93,1.19,15,15,0,0,0,2.36-.74c.77-.3,1.33.11,2,.49a5.31,5.31,0,0,0,4.31.57,4.47,4.47,0,0,0,3-2.63c.26-.57.58-1.12.84-1.68,0,0,.27-.31.28-.3.16.27-1.33-.08-1,.28.09.12.69.19.87.27,2.21,1,3.82,2.79,6.43,2.45,1.53-.2,3.47-1,4.18-2.54.12-.26.73-.38-.31-.07-.87.27-.43.17,0,.31s.93.38,1.39.54A5.44,5.44,0,0,0,248,266c3.7-.5,5.11-3.35,5.47-6.76l-3.27,1c1.63,1.08,4.23.43,5.69-.68a2.73,2.73,0,0,0,1.13-2.13c.11-1.37.4-1.52,1.5-2.12.62-.34,1.32-.77,1.44-1.52.19-1.14-1.16-1.75-.47-3s4.18-3,2.24-4.9l-1.43,1.13c1.49-.45,4.12-1.28,4.36-3.13.14-1.06-.88-1.81-.36-2.88s1.54-1.47,2.15-2.33a2.92,2.92,0,0,0,.62-2.27c-.08-.3-.52-.59-.57-.8s.68-1.33.82-1.61a36.48,36.48,0,0,0,2.91-7.89C270.44,225.37,267.14,225.84,266.93,226.71Z"/><path class="cls-43" d="M144.34,154.94c3.42-3.52-1.06-10,1.56-14.15a32.94,32.94,0,0,0,2.06-2.72c1.41-2.87-1.26-6.43-.11-9.41.52-1.34,1.75-2.33,2.15-3.71.78-2.63-1.72-5.22-1.5-8,.26-3.07,3.87-5.73,2.65-8.55-.6-1.38-2.21-2.13-2.74-3.54-.91-2.45,1.81-5.75-.11-7.53-.66-.62-1.71-.76-2.26-1.48-1.11-1.45.66-3.29,1.34-5s.13-3.74.31-5.63,1.9-4,3.63-3.22c-1.07-2.94.58-11,3.7-10.74,1.53.14,3.52.84,4.3-.49.55-.94-.1-2.22.35-3.22,1.16-2.55,5.57,1.12,7.76-.62.59-.47.85-1.25,1.35-1.82,1.13-1.29,3.16-1.23,4.82-.79s3.35,1.17,5,.82,3.09-2.46,2-3.8a13.51,13.51,0,0,0,5.66,2.08c2,.1,4.26-1,4.78-3,.58,2.84,5,3.86,6.74,1.58.71-.91,1.18-2.26,2.32-2.42a2.62,2.62,0,0,1,1.48.38c2,1.06,4.89,7.21,6,9.21L206.5,56.73,171.34,52.5,142.83,70.34l-10,36.71,13.06,50.19"/><path class="cls-5" d="M145.9,155c3.54-3.88-.58-9.26,1.27-13.59.53-1.26,1.72-2.08,2.35-3.28a5.76,5.76,0,0,0,.46-3.52c-.17-1.33-.59-2.62-.71-3.95-.15-1.7.57-2.74,1.47-4.07a5.24,5.24,0,0,0,1.09-3.42,18.16,18.16,0,0,0-1.26-4.12,5.35,5.35,0,0,1,0-3.78c.46-1.16,1.2-2.19,1.76-3.3a5.39,5.39,0,0,0,.73-3.06c-.16-1.39-1.23-2.25-2.12-3.2-2-2.19-.17-4.49-.25-7A3,3,0,0,0,148.78,96c-.79-.43-1.5-.77-1.38-1.81a6.19,6.19,0,0,1,.89-2,8.37,8.37,0,0,0,1.12-4.75,12.55,12.55,0,0,1,0-2.74,4,4,0,0,1,.36-1.06,3.82,3.82,0,0,1,.37-.58c.37-.29.31-.36-.17-.23.63.21,3.43-.06,3-1.25-.82-2.45-.2-5.73.87-8,.21-.46.7-.91.85-1.36-.09.27.18-.09.15-.14s-.43.16-.45.13-1-.35.18.06a4.63,4.63,0,0,0,.83.13c1.71.24,3.74.22,5.05-1.09a2.88,2.88,0,0,0,.74-2.35,10.85,10.85,0,0,1,.06-1.4c0-.34.55-.45-.22-.15-1.39.54-.35.1-.32.18a12.25,12.25,0,0,0,1.9.42,12.75,12.75,0,0,0,2.21.37,5.38,5.38,0,0,0,4.52-1.79c.45-.58.68-1.46,1.47-1.58a7.61,7.61,0,0,1,3,.61c2.33.68,4.85.94,7-.47,1.48-1,2.53-2.79,1.43-4.42l-2.91,1.45c2.46,1.36,5.07,2.57,7.95,2.11,2.33-.37,4.76-1.64,5.51-4L189.4,61a4.76,4.76,0,0,0,4.48,3.28,6.36,6.36,0,0,0,6-2.8,3.71,3.71,0,0,0,.45-.69c.29-.29.26-.34-.09-.16s-.37.15.07.26c.22.25.57.45.8.71a16,16,0,0,1,1.84,2.56c1.11,1.82,2,3.74,3.06,5.59.57,1,3.48.34,3.36-.9l-1.16-12.54c0-.25-.46-.42-.64-.45l-33.93-4.08c-.41,0-.82-.12-1.23-.15a4.2,4.2,0,0,0-2.72.82l-6.31,3.95L145.12,67.78l-2.62,1.64a3.14,3.14,0,0,0-1.35,1.14A26.93,26.93,0,0,0,140,74.72L134.35,95.4l-2.43,8.9a11,11,0,0,0-.8,3.26,24.68,24.68,0,0,0,1,3.93l2.18,8.39,9.64,37,.2.78c.3,1.13,3.67.24,3.37-.91l-3.47-13.33L137.69,119l-2.37-9.11-.66-2.55c0-.19-.11-.39-.16-.59s0,.2,0,.06a59,59,0,0,1,1.6-5.82l3.15-11.52,3.26-11.93c.64-2.32,1.51-4.68,1.93-7.05,0-.11.06-.23.09-.34l-.64.69,25-15.62L172.38,53l-2.08.42,30.78,3.71,4.38.52-.64-.44L206,69.72l3.36-.9c-1-1.78-1.89-3.62-2.92-5.38-.94-1.59-2-3.57-3.8-4.35a4.6,4.6,0,0,0-4.07.31c-1.12.66-1.44,1.78-2.28,2.67-1.19,1.28-3.21-.84-3.5-2s-3.1-.17-3.36.67c-1.12,3.51-5.39,1-7.41-.14-.72-.39-3.68.31-2.91,1.45a1.67,1.67,0,0,1-.33,2.09c-.66.52-1.86,0-2.66-.23a11.15,11.15,0,0,0-5.83-.52,6.16,6.16,0,0,0-2.6,1.28,4.43,4.43,0,0,0-.79.94,7.14,7.14,0,0,0-.41.65c-.05.09-.49.57-.09.32.24-.15-.08,0-.34-.06a9.37,9.37,0,0,1-.92-.19c-.72-.17-1.44-.38-2.18-.49a5.21,5.21,0,0,0-4.25,1,2.64,2.64,0,0,0-.87,1.88c0,.39,0,.78,0,1.17,0,.15-.1.65-.08.84,0-.07,1,.1,0,0a7.49,7.49,0,0,0-4.47.2,5.51,5.51,0,0,0-2.6,2.7c-1.26,2.51-2,6.2-1.1,8.94l3-1.25a5.19,5.19,0,0,0-6.61,3.91c-.3,1.55.15,3.15-.06,4.71s-1.44,2.88-1.88,4.47a2.45,2.45,0,0,0,1.36,3c1.3.74,2,1.25,1.76,2.87a28.58,28.58,0,0,0-.7,3.76,4.33,4.33,0,0,0,1.52,3.27c1,1,1.9,2,1.56,3.47a16.38,16.38,0,0,1-1.87,3.83,6.84,6.84,0,0,0-.94,3.29c0,1.6.79,3,1.28,4.51a4.34,4.34,0,0,1-.27,3.89c-.83,1.32-1.82,2.39-1.94,4-.19,2.75,1.85,6,.12,8.46-.92,1.35-2.07,2.31-2.46,4a11.64,11.64,0,0,0-.07,4c.31,2.7,1.36,6-.69,8.31-.56.61.47.93.9,1a2.88,2.88,0,0,0,2.22-.91Z"/><path class="cls-39" d="M144.33,177.75l3,.26a1.47,1.47,0,0,0,.91-.11c.65-.42.26-1.4,0-2.15-.5-1.73.44-3.5,1.17-5.15s1.2-3.76,0-5.1c-.64-.7-1.71-1.16-1.83-2.1-.17-1.23,1.35-1.9,2.16-2.84a3,3,0,0,0-1.45-4.63s2.12-2.42,1.26-7.1-2.35-9.68-2.35-9.68l-7.08-3.8Z"/><path class="cls-5" d="M143.26,178.5c2,.18,7.65,1.09,6.91-2.46a5.7,5.7,0,0,1-.26-2.57,11.18,11.18,0,0,1,.85-2.37,9,9,0,0,0,1.09-4.15c-.1-1.57-1.09-2.09-2.06-3.12-1.29-1.36.42-2.2,1.3-3.12a3.33,3.33,0,0,0-1.4-5.48l.17.62a8.52,8.52,0,0,0,1.6-5.77c-.16-3.55-1.37-7.22-2.33-10.62-.16-.55-.17-.78-.62-1.07-.71-.46-1.53-.82-2.28-1.22l-4.5-2.42c-.64-.34-3.37,0-3.26,1.05l3.66,37.2.52,5.2c.07.77,3.46.11,3.36-.9l-3.66-37.2-.52-5.2-3.26,1,4.08,2.19,2.49,1.34c.61.32.38,0,.57.7a69.49,69.49,0,0,1,2.29,9.76c.25,1.92.09,4.54-1.21,6.07-.23.26-.18.5.16.62a2.66,2.66,0,0,1,.83,4.46c-.64.59-1.52,1.13-1.79,2s.34,1.67,1,2.25a3.36,3.36,0,0,1,1.49,2.68,8.27,8.27,0,0,1-1,3.42,9.9,9.9,0,0,0-1,3.35,4.85,4.85,0,0,0,.21,1.69c.12.46.42,1.11,0,1.49l.93-.56c.92-.11,1-.18.35-.2l-.86-.07L145.4,177a3.65,3.65,0,0,0-2.38.63C142.52,178,142.56,178.44,143.26,178.5Z"/><path class="cls-43" d="M258.68,63.39c-.39,1,.95,1.74,2,1.84s2.43.28,2.62,1.32c.13.64-.33,1.29-.21,1.93.37,2,4.14.22,5.21,1.91.81,1.26-.76,3.34.4,4.28.56.45,1.36.26,2.08.3a3,3,0,0,1,2.68,2.18c.24.89.07,1.91.59,2.67.62.92,1.91,1,2.93,1.47,2.67,1.17,3.34,4.62,3.45,7.54s.2,6.26,2.45,8.12c2-1.8-.21-3.56-1.89-5.68a15.4,15.4,0,0,1-1.56-1.88,1.84,1.84,0,0,1,.16-2.25c.31-.26.76-.38.94-.74.5-1-1.45-1.25-2.37-1.93-1.16-.85-.51-2.69.35-3.85s1.85-2.68,1.08-3.9c-.68-1.07-2.36-1.12-3.06-2.18s.16-2.84-.2-4.23c-.47-1.85-2.83-2.34-4.73-2.48a3,3,0,0,0-1.39-4.53c-.72-.22-1.59-.19-2.08-.76-.72-.86,0-2.44-.87-3.15s-1.94,0-2.72-.56c-1.23-.85.21-2.94-.49-4.27-.93-1.76-4.82-1-4.66-3"/><path class="cls-5" d="M257,63.62c-.4,1.71,1.62,2.32,2.94,2.5.79.1,1.69.18,1.67,1.15s-.48,1.58.12,2.31c.78,1,2.34.82,3.43.86a1.82,1.82,0,0,1,1.45.41c.53.62.14,1.62,0,2.33-.25,1.72.62,2.62,2.37,2.68.91,0,1.59,0,2.24.77s.53,1.92.81,2.93c.55,2,2.56,1.84,4,2.74a6.14,6.14,0,0,1,2.36,4.15c.77,3.74-.32,8.31,2.88,11.14.69.6,2.33.16,2.91-.41,1.43-1.43,1.35-2.74.18-4.33-.65-.88-1.39-1.71-2.11-2.53-.57-.66-1.42-1.32-1.47-2.27s1.05-1,1.38-1.88a1.11,1.11,0,0,0-.53-1.39c-.52-.37-1.16-.5-1.71-.82-.84-.48-.83-1.3-.54-2.14.56-1.64,2.43-2.95,2.11-4.86s-3.1-1.72-3.58-3.51.78-3.28-.62-4.82c-1.13-1.25-3.11-1.54-4.69-1.67l.51.86a3.46,3.46,0,0,0-1.59-5.3c-.53-.19-1.29-.14-1.72-.51s-.37-1.15-.41-1.71a2.07,2.07,0,0,0-2.17-2.08c-.54,0-1.2.16-1.48-.43a3.22,3.22,0,0,1,.06-1.6,2.89,2.89,0,0,0-.63-2.77,5.77,5.77,0,0,0-2.49-1c-.76-.2-1.65-.3-1.65-1.25s-3.35-.33-3.36.9c0,1.84,2.58,1.83,3.79,2.35,2.26,1-.16,3.6,1.38,5a2.64,2.64,0,0,0,1.51.56c.53.06,1.19-.15,1.52.35s.12,1.21.19,1.7a2.11,2.11,0,0,0,.69,1.39c.91.75,2.24.39,3,1.33a2.6,2.6,0,0,1,.21,3.11c-.31.43,0,.82.51.86,1.38.11,3.37.3,4,1.78s-.63,3.26.41,4.71c.88,1.23,3.47,1.27,3.18,3.19-.26,1.69-2,2.79-2.24,4.52-.25,1.51.59,2.29,1.87,2.86.35.15,1.24.37,1.05.78-.06.13-.66.48-.78.61a2.11,2.11,0,0,0-.55,1c-.64,2.74,6.31,6.35,4.06,8.6l2.9-.42c-2.76-2.44-2-6.48-2.49-9.76a9.2,9.2,0,0,0-1.62-4.45c-1.06-1.4-2.47-1.54-3.94-2.27-1-.52-1-1.53-1.15-2.55a3.58,3.58,0,0,0-1.1-2.17,4.06,4.06,0,0,0-2-1c-.81-.14-2.09.28-2.2-.82-.14-1.31.85-2.71-.29-3.84-.93-.92-2.49-.8-3.68-.85-.5,0-1,0-1.18-.51-.33-.92.61-1.78-.14-2.71a3.34,3.34,0,0,0-2-.94c-.73-.14-2.56-.14-2.28-1.32s-3.1-.62-3.36.46Z"/><path class="cls-44" d="M174.9,149.13l2.26,6.6c1.31,5.12,6.44,15.12,8.23,17.89,2.53,3.88,30.3,5.45,35.75,2.35s8.47-18.63,9.92-22.23l11.11.65c1,4.66,4.49,19.43,6.6,21.43s14.85,1.69,16.28,1.65c1.2,0,2.86-.1,4.68-.24,4.81-.33,10.65-1.1,12.44-2.84,2.67-2.58,5.58-12.46,8.08-21.8l.41-1.46c.08-.35.2-.6.2-.7h0l.45-1.69c-16-7.52-37-6.36-49.72,2.77l.1.17L230.86,151c-12.25-8-33.41-12.41-48.53-6.71h0l-42.28,11.59-.13,4.08Zm75.17,25.19c-1.32-1.25-4.09-11.6-6-19.65,11.07-7.72,30-8.74,44.28-2.81v.2c-1.35,5-4.91,18.34-7.53,20.87-3.11,3-28.48,3.35-30.78,1.43Zm-61.38-1.8c-4.45-6-8.12-15.47-10.47-23.54,13.46-5.95,38.16-2.43,50.13,5.17-1.91,6.49-4.3,17.85-8.21,20.06-5.62,3.19-29.87.77-31.45-1.69Z"/><path class="cls-34" d="M23.6,563.6c4.93-8.17,14.15-2.57,19.61-10.3,5.94-8.41,18.91-8.12,26.22-15.09,5.77-5.48,2.37-13.36,8.92-17.67l3-68.16,9.26-33.31s-2.75-35.55-16.87-64.51-30.09-65.87-30.09-65.87S-.25,303.59-8.76,357.4c-4.05,25.58,4.68,91.44,4.68,91.44s-6.48,84-3.2,100c2.54,12.35,22.57,78.36,39.32,89.78"/><path class="cls-34" d="M183.11,766.33l-27.56-62.9-30.07-62.09c-7.31-7.27-22.5-2.1-30.63-7.81a186.07,186.07,0,0,0-27.51-15.84c-9.07-4.28,22.58-39.26,13.35-42.7-9.52-3.55-29.65-6.12-39.31-7.81-1.23-.22-23,1.42-24.18,1.25-.59,6.3-6.26,29.35-3.91,37.32,11.24,38,104.77,181.33,104.77,181.33L135.86,799Z"/><path class="cls-45" d="M195,424a.75.75,0,0,1,.21,0c0,.26.17.53,0,.78Z"/><path class="cls-45" d="M210.55,499.53a.66.66,0,0,1-.19.09l-.1-.5Z"/><path class="cls-46" d="M256.59,411.66h-.29l.27-.16A.17.17,0,0,1,256.59,411.66Z"/><path class="cls-46" d="M217.06,419.58l.25-.19.1.13Z"/><path class="cls-46" d="M255.74,411.77l-.37.07A.24.24,0,0,1,255.74,411.77Z"/><path class="cls-46" d="M195.9,423.88a.2.2,0,0,1,.32-.07Z"/><path class="cls-7" d="M266,656.76a95.43,95.43,0,0,1-11.4-7.14,52.85,52.85,0,0,1-11-7.85,57.12,57.12,0,0,1,11.92,6.43A38.46,38.46,0,0,1,266,656.76Z"/><path class="cls-36" d="M88.41,481c.34-7.48.31-39.29.57-44.9.24-6.52.47-11.51.59-15.34a36.37,36.37,0,0,0,.12-3.84,8.19,8.19,0,0,0-.13-1.4,6.82,6.82,0,0,0-.1,1.35c-.07.88-.17,2.19-.31,3.85-.23,3.85-.58,8.89-1,15.39-.27,4.93-1,34.7-1.3,41.07C87.12,478.06,88.12,480.08,88.41,481Z"/><path class="cls-36" d="M19.51,564.4a36.59,36.59,0,0,1,7.72-6.54A97.38,97.38,0,0,1,72.38,540.6a36.21,36.21,0,0,1,10.08-.24A86.73,86.73,0,0,1,72.57,542a123.33,123.33,0,0,0-23.19,6.23A125.06,125.06,0,0,0,28,559,95,95,0,0,1,19.51,564.4Z"/><path class="cls-36" d="M43.62,536.89a43.14,43.14,0,0,1,19.85-2.54A43,43,0,0,1,83,539.26c-.2.56-8.74-2.33-19.63-2.92S43.72,537.47,43.62,536.89Z"/><polygon class="cls-36" points="148.44 664.9 86.42 539.24 88.57 473.84 86.72 472.41 84.36 539.95 157.33 687.98 148.44 664.9"/><path class="cls-5" d="M203.62,205.62c-1.37,1.17-2.85,2.53-3,4.33a7.07,7.07,0,0,0,.19,1.94l.58,3a1.1,1.1,0,0,0,.22.56,1.18,1.18,0,0,0,.58.29,5,5,0,0,0,2.08.25,1.66,1.66,0,0,0,1.42-1.35,2.45,2.45,0,0,1,.06-.86c.24-.51,1-.43,1.51-.57,1.37-.32,1.69-2.08,2.31-3.34a7.24,7.24,0,0,1,4.43-3.4,14.25,14.25,0,0,0,2.73-1,2.77,2.77,0,0,0,1.54-2.3"/><path class="cls-5" d="M264.15,206.12c1.32,1.23,2.74,2.65,2.82,4.45a7.1,7.1,0,0,1-.27,1.94l-.71,3a1.15,1.15,0,0,1-.24.54,1.14,1.14,0,0,1-.6.27,4.91,4.91,0,0,1-2.08.16,1.64,1.64,0,0,1-1.36-1.41,2.24,2.24,0,0,0,0-.86c-.21-.52-.94-.48-1.48-.63-1.36-.39-1.59-2.15-2.16-3.45a7.24,7.24,0,0,0-4.28-3.58,13.94,13.94,0,0,1-2.68-1.09,2.75,2.75,0,0,1-1.44-2.35"/><path class="cls-5" d="M206.34,203.13a1.78,1.78,0,0,1,1.47-.92,8.7,8.7,0,0,0,2-.24,3.85,3.85,0,0,0,1.91-1.13c.36-.43.53-1.14,1-1.46-.45.29-.09.26.33.47a6.92,6.92,0,0,0,1,.44,4.14,4.14,0,0,0,1.75.12,6.11,6.11,0,0,0,2.12-.67,4.49,4.49,0,0,0,1.44-.94c.39-.26.08-.23-.95.08l.34.21a3.07,3.07,0,0,0,.74.49,3.24,3.24,0,0,0,1.87.25,6.06,6.06,0,0,0,3.73-2c.05-.06.64-.77.71-.73q-.93.19-.36.33l.56.21a5.06,5.06,0,0,0,1.76.35,4.42,4.42,0,0,0,3.63-1.49c.72-1.09-2.58-.66-3.09.11,1.2-.08,1.47-.17.8-.27l-.37-.14a10.75,10.75,0,0,0-1.13-.39,5,5,0,0,0-2.31,0,6.12,6.12,0,0,0-3.42,2.25c-.53.45-.44.44.29,0l-.26-.2a2.38,2.38,0,0,0-.76-.43,3.82,3.82,0,0,0-1.9,0,6.49,6.49,0,0,0-1.91.72c-.29.17-.55.36-.82.54s-1.1.73-.17.29c.54,0,.58-.12.11-.23l-.31-.15a10.66,10.66,0,0,0-1-.47,4.31,4.31,0,0,0-2.11-.22,5.6,5.6,0,0,0-3.76,2,3.33,3.33,0,0,0-.43.67c-.46.58-.21.6.76,0h-.38a6.47,6.47,0,0,0-2.31.29,6.82,6.82,0,0,0-3.65,2.33c-.46.61.41.75.85.74a3.18,3.18,0,0,0,2.24-.85Z"/><path class="cls-5" d="M244,199c-.85.33-.42,0-.25.16a2.18,2.18,0,0,0,.56.31c.42.25.82.51,1.26.73a5.24,5.24,0,0,0,1.47.51c.55.1,1.29-.14,1.78,0,.15,0,.51.56.74.77a2.63,2.63,0,0,0,1.58.65,5.38,5.38,0,0,0,3.55-1.06c.32-.3-.49-.25-.45,0a3.33,3.33,0,0,0,.37.58,4.91,4.91,0,0,0,.65,1,3.88,3.88,0,0,0,3.27.87c.29,0,.75-.19,1-.08s.32.76.49,1.12a1.76,1.76,0,0,0,1,.92,4.46,4.46,0,0,0,.8.2l.23,0c.37.08.3,0-.22-.2.28,1.45,3.66.59,3.36-.9a1.4,1.4,0,0,0-1.05-1c-.2-.07-.61,0-.78-.16s.09.35-.17-.28a2.61,2.61,0,0,0-.79-1.38,3.32,3.32,0,0,0-1.55-.6,7.24,7.24,0,0,0-1.74,0c-.66.07-.81.13-1.18-.43-.62-.95-1.06-1.83-2.31-2a4.49,4.49,0,0,0-2.31.44c-.28.13-.55.29-.83.43-.69.35-.2.05-.11.24-.69-1.46-2.23-1.42-3.58-1.42-.87,0-1.67-.72-2.5-1.14a4.42,4.42,0,0,0-3.81-.12c-.61.23-1.28,1-.82,1.63s1.65.43,2.27.19Z"/><path class="cls-42" d="M228.39,118.73S241,125.26,230,132.51C230,132.51,234.77,126.49,228.39,118.73Z"/><path class="cls-42" d="M243.1,132.7c-10.51-7.86,2.43-13.66,2.43-13.66s-3.73,5.48-3.42,8S243.1,132.7,243.1,132.7Z"/><path class="cls-27" d="M237.05,208.2c-8.11.1-25.93,4.86-29.49,7.77,0,0,9.78,11.15,28.58,10.9s21.4-11.57,21.4-11.57S247.37,208.06,237.05,208.2Z"/><path class="cls-28" d="M215.28,212s9.67-.45,17.36-.24S250,212.93,250,212.93s1.38-5.21-12.56-5.59S215.28,212,215.28,212Z"/><path class="cls-29" d="M235.79,223.24c-8.77-1.38-18-8.58-28.23-8.28,0,0,2.86,14.81,24.95,15.41s25-14.06,25-14.06C247.27,215.45,244.63,222.34,235.79,223.24Z"/><path class="cls-29" d="M247.07,204.64c-4.63-.44-7.62,1.09-9.64,1s-4.92-1.73-9.57-1.55c-4.35.18-23,9.38-21,10.69s16.48-5.42,30.45-5,18.78,7.63,20.87,6.43S251.41,205.05,247.07,204.64Z"/><path class="cls-5" d="M233.38,199.2l-1,4.65a1.7,1.7,0,0,1-1.47,1.32c-5,.55-23.93,2.6-28.43,2.41-.11,0,.35,1.88.24,1.86l-1-.1c-1.67-.38-.29-6,1.32-6.56a96.37,96.37,0,0,1,12-3.53c3.38-.69,12.75-2.29,16.81-2.13A1.7,1.7,0,0,1,233.38,199.2Z"/><path class="cls-5" d="M239.22,199.87l0,4.32a1.72,1.72,0,0,0,1.33,1.41c4.6.84,19.67,3.63,23.85,3.71a1,1,0,0,0,.29,0l1.34-.24c1.56-.28.77-3.79-.71-4.46a74.22,74.22,0,0,0-9.84-3.94c-3.12-.89-11-2.68-14.74-2.77A1.63,1.63,0,0,0,239.22,199.87Z"/></g><polygon class="cls-47" points="40.72 611.96 -0.22 541.38 0.32 548.01 39.2 611.32 40.72 611.96"/></g></svg>