<svg xmlns="http://www.w3.org/2000/svg" xmlns:xlink="http://www.w3.org/1999/xlink" viewBox="0 0 1221.96 991.43"><defs><style>.cls-1,.cls-21,.cls-34{fill:none;}.cls-2{clip-path:url(#clip-path);}.cls-3{fill:#f2ebd1;}.cls-4{fill:#956243;}.cls-5,.cls-6{fill:#653c2a;}.cls-34,.cls-6{stroke:#653c2a;}.cls-17,.cls-21,.cls-32,.cls-34,.cls-6{stroke-miterlimit:10;}.cls-6{stroke-width:0.69px;}.cls-7{fill:#de994d;}.cls-8{fill:#3ba448;}.cls-9{fill:#a56530;}.cls-10{fill:#8c542a;}.cls-11{fill:#993a2f;}.cls-12{fill:#0f3a5b;}.cls-13{fill:#5e5f5f;}.cls-14{fill:#853324;}.cls-15{fill:#ec9a6f;}.cls-16{fill:#a99231;}.cls-17{fill:#7c471d;stroke:#7c471d;stroke-width:1.04px;}.cls-18{fill:#010101;}.cls-19{fill:#13110f;}.cls-20{fill:#878787;}.cls-21{stroke:#010101;stroke-width:1.57px;}.cls-22{fill:#273339;}.cls-23{fill:#fff;opacity:0.14;}.cls-24{fill:#622515;}.cls-25{fill:#513835;}.cls-26{fill:#132e38;}.cls-27{fill:#151312;}.cls-28{fill:#946343;}.cls-29{fill:#221f20;}.cls-30{fill:#cc8d2a;}.cls-31{fill:#b7b338;}.cls-32{fill:#6d6a2c;stroke:#6d6a2c;}.cls-32,.cls-34{stroke-width:1.39px;}.cls-33{fill:#09283a;}.cls-35{fill:#653c29;}.cls-36{fill:#31160e;}.cls-37{fill:#f1eef7;}</style><clipPath id="clip-path"><rect class="cls-1" y="-1" width="1221.96" height="991.43"/></clipPath></defs><g id="Layer_2" data-name="Layer 2"><g class="cls-2"><polyline class="cls-3" points="1221.96 990.43 1221.96 -1 0 -1 0 990.43"/><path class="cls-4" d="M648.75,357.6l3-15.51s-4.47-18-3-26.55,11.39-33.48,11.39-33.48l42.21,4.28s8,13.71,8.64,20.92-10.55,31.19-10.55,31.19a44.2,44.2,0,0,1-3.22,4.51c-1.8,1.92-3.71,15.47-5.58,17.06C675.63,373.75,648.75,357.6,648.75,357.6Z"/><path class="cls-4" d="M700.45,338.45l-43.74,3.64s-8-12.38-8-22.59c0-3.95,4.67-19.48,7.18-26.37s8-19.71,8-19.71,6.06-17.36,7.33-27.62,5.18-13.11,7.36-14c6-2.32,7.4,3,7.1,9.06-.07,1.65-4.94,32.38-4.94,32.38A11.36,11.36,0,0,1,692.15,272c4.84,2.35,4.83,9.35,4.83,9.35a7,7,0,0,1,6.12-.33c3.34,1.41,3.14,6.43,3.14,6.43a8,8,0,0,1,6.29.06c6.21,2.46,3.83,8.61,2.05,14.78a80.24,80.24,0,0,1-3.11,9.2C710.25,314.61,700.45,338.45,700.45,338.45Z"/><path class="cls-5" d="M685.4,285.72l-2.6,5.52a20.31,20.31,0,0,0-1.32,3.25,5.26,5.26,0,0,0,0,3.48A3.22,3.22,0,0,0,684,300.1a5,5,0,0,0,3.22-.84,39.86,39.86,0,0,0,4.76-3.85c2.62-2.35,4.15-3.89,4.26-3.81a5.51,5.51,0,0,1-.92,1.22c-.66.74-1.66,1.79-2.89,3-.62.64-1.33,1.29-2.1,2a17,17,0,0,1-2.67,2.11,5.64,5.64,0,0,1-3.82,1,4,4,0,0,1-3.18-2.67,6.07,6.07,0,0,1,0-4,19.5,19.5,0,0,1,1.43-3.36l2.74-5.43a32.51,32.51,0,0,1,2.75-4.92A35.41,35.41,0,0,1,685.4,285.72Z"/><path class="cls-6" d="M668.26,291.36c-1.32-3.29-2.91-5.76-2.68-5.9s2.18,2.17,3.57,5.57,1.59,6.38,1.36,6.41S669.59,294.65,668.26,291.36Z"/><path class="cls-4" d="M667.11,316.91c4.41-1.3,9.11-1.14,13.7-1.37s9.41-1,13-3.76,5.34-8.13,2.82-11.6-7.73-3.86-12.19-3.63a58.06,58.06,0,0,0-16.42,2.9,29.48,29.48,0,0,0-13.51,9.2"/><path class="cls-6" d="M668.12,316.62a24.19,24.19,0,0,1,2.52-.58,80.58,80.58,0,0,1,9.44-.74,43.33,43.33,0,0,0,6.43-.72,18.26,18.26,0,0,0,6.73-2.7,10.27,10.27,0,0,0,4.2-6.26,7.09,7.09,0,0,0-.27-3.87,6.49,6.49,0,0,0-2.58-3.06,15.37,15.37,0,0,0-8.25-1.78,80.32,80.32,0,0,0-8.2.6,45.28,45.28,0,0,0-13.35,3.66,30.17,30.17,0,0,0-7.7,5.08c-1.6,1.47-2.39,2.45-2.4,2.38a3.52,3.52,0,0,1,.49-.72,16.82,16.82,0,0,1,1.67-1.9,27.9,27.9,0,0,1,7.66-5.38A44.3,44.3,0,0,1,678,296.72a77.29,77.29,0,0,1,8.32-.66,16.32,16.32,0,0,1,8.77,1.9,7.38,7.38,0,0,1,2.92,3.49,7.7,7.7,0,0,1,.28,4.33,10.89,10.89,0,0,1-4.66,6.76,18.86,18.86,0,0,1-7.07,2.76A42.51,42.51,0,0,1,680,316c-4,.09-7.2.17-9.4.45s-3.42.56-3.42.56A3.4,3.4,0,0,1,668.12,316.62Z"/><path class="cls-4" d="M693.21,288.76l-8.77,28.84c1.91.34,6.23,1.51,7.75.32a13.09,13.09,0,0,0,3.61-6,239.79,239.79,0,0,1,9.56-22.54"/><path class="cls-6" d="M692.66,291,691,297.12c-1.51,5.18-3.64,12.4-6.11,20.55l-.34-.54c1.46.27,3,.62,4.49.77a4,4,0,0,0,3.13-.57,8.61,8.61,0,0,0,2-2.66c1-1.93,1.67-4,2.46-5.94,1.5-3.85,2.84-7.31,4.19-10.2s2.45-5.24,3.27-6.76a14.5,14.5,0,0,1,1.37-2.39,16.45,16.45,0,0,1-1,2.53c-.7,1.6-1.71,4-2.91,6.84s-2.55,6.36-4,10.24c-.78,1.94-1.42,4-2.43,6.09A9.55,9.55,0,0,1,692.8,318a2.71,2.71,0,0,1-.89.57,4,4,0,0,1-1,.26,10.58,10.58,0,0,1-1.95,0c-1.54-.18-3.06-.44-4.57-.77l-.48-.09.13-.45c2.49-8.16,4.73-15.35,6.38-20.5l2-6.06a14,14,0,0,1,.84-2.18A11.26,11.26,0,0,1,692.66,291Z"/><path class="cls-4" d="M678.88,277.22A176.83,176.83,0,0,1,674,305.37c-.76,3-1.61,6-1,9s3.07,5.89,6.28,5.89a7.2,7.2,0,0,0,5.74-3.36,19.74,19.74,0,0,0,2.46-6.23l8.08-30.46"/><path class="cls-6" d="M678.88,278.2c0,.61-.1,1.5-.2,2.66-.21,2.3-.59,5.63-1.23,9.74s-1.6,9-3,14.33a26.65,26.65,0,0,0-1.3,8.32,7.71,7.71,0,0,0,1.39,4,6.2,6.2,0,0,0,3.58,2.51,5.54,5.54,0,0,0,4.28-1,8.54,8.54,0,0,0,2.83-3.33,51.11,51.11,0,0,0,2.56-8.16l3.86-14.1,2.66-9.49.77-2.58a3.61,3.61,0,0,1,.33-.88,3.93,3.93,0,0,1-.15.91l-.61,2.62c-.58,2.37-1.39,5.61-2.38,9.56l-3.64,14.15a51.75,51.75,0,0,1-2.57,8.33,9.6,9.6,0,0,1-3.13,3.68,6.41,6.41,0,0,1-5,1.09,6.9,6.9,0,0,1-4.11-2.87,8.54,8.54,0,0,1-1.54-4.44,27.35,27.35,0,0,1,1.38-8.6c1.38-5.32,2.39-10.14,3.12-14.22s1.2-7.4,1.53-9.7l.36-2.64a3.66,3.66,0,0,1,.18-.92A4,4,0,0,1,678.88,278.2Z"/><path class="cls-6" d="M682.2,334.57c3.16-3.56,3.6-7.48,3.87-7.42a4.87,4.87,0,0,1-.22,2.51,14.05,14.05,0,0,1-3,5.46,14.64,14.64,0,0,1-5.08,3.77,5.4,5.4,0,0,1-2.57.69C675.13,339.34,679,338.13,682.2,334.57Z"/><path class="cls-4" d="M601.07,491.29c-.8-.67-13.55-11.32-21.88-15s-22.26-15.91-22.26-15.91-19.35-24.07-20.27-28,2.22-11,2.22-11a31.65,31.65,0,0,0-3.67-6.91C531.57,408.38,537,402,537,402l7.47,6.14A258.63,258.63,0,0,1,524,390.22c-1.57-2.07-.41-3.19,1.41-4a11.05,11.05,0,0,1,8.8.49l47.94,30.95c.2-6.48-18.66-12.62-17.14-18.83s6.78-4.72,8.33-4,23.46,9.74,23.46,9.74,13.43,20.62,15.3,25.89,11.31,38.05,11.31,38.05"/><path class="cls-4" d="M749.32,599.87c-6-16.53-6.09-25.7-15.75-40.43-3.43-5.23-9.43-9.61-14.06-13.87-3-2.75-12.82-11.75-19.75-16.8L623,471.55l-29.26,11.32s48.66,63.66,72.47,90c13.24,14.62,36.38,40.36,54.1,49.33,16.15,8.18,51.56-13.39,53.78-25.87.36-2.09-16.05-2.93-16.71-4.94C756.89,589.87,749.85,601.32,749.32,599.87Z"/><polygon class="cls-7" points="465.41 568.2 580.32 619.55 566.24 674.4 457.44 645.66 465.41 568.2"/><path class="cls-7" d="M673.44,359.71c-9.34-.78-19.55-7.86-28.8-10.23l-46,119c1.11,16.38,5.07,12.66,4.22,28.93-.59,11.14.83,22.45,2.66,33.42,1.66,9.9-.56,21.43,2.15,31.09,35.75,7,52.37-9.37,66.81-35.81,14.71-26.92,26.68-158.34,26.68-158.34l1-9.59C691.19,356.43,684.57,360.63,673.44,359.71Z"/><path class="cls-7" d="M529.09,351.08l51.65,62,80.69,75c1.86,9.27-27.42,20.55-28.07,29.89-.73,10.73-10.91,1.91-10.38,12.68.55,11.28-16.21-5.6-13.57,5.36,1.78,7.4,2.56,20.16,4.9,27.39C550.46,550.64,526,515,526,515Z"/><path class="cls-8" d="M606.21,974.34l2.71-4c-.76-.57-1.56-1.13-2.45-1.68A26.61,26.61,0,0,1,606.21,974.34Z"/><path class="cls-9" d="M282.12,857.67q73.69,0,147.38,0c21.12,0,25,10,25,30.49,0,18.84-4.23,29.89-25.6,29.94-4.82,0-9.74.54-14.43-.1-14.15-1.91-17,3.33-15.13,14.26C417.44,1039,435.09,1138.34,453.14,1245c1.23,7.27.11,10.14-9.66,10.26-24.39.31-24.89.79-28.28-19.19Q397.92,1134,381.52,1031.82c-1.46-9.26-5.22-12.06-16.22-12q-83.8.69-167.6,0c-10.72-.09-13.84,3.19-15.17,11.56-11.46,71.77-23.46,143.47-35,215.23-1.07,6.68-4.34,8.67-12.1,8.79-25.13.38-25.81.56-22.59-19.56,11.71-73,23.88-145.86,36-218.77,5.13-31,10.26-54.67,15.85-85.62,1.73-9.55-.29-15-13.41-13.14-2.82.39-5.79-.12-8.66.08-37.68,2.66-34.61-24.25-32.42-49.14.85-9.66,10.85-11.93,21.71-11.88,50.09.25,100.18,6.23,150.26,6.23ZM280.94,995.4c27.9,0,55.8-.21,83.69.13,8.54.11,12.36-1.46,10.9-9.52-4.49-24.9-8.58-32.52-12.46-57.49-1.17-7.57-4.3-10.78-14.41-10.65-44.25.56-88.51.64-132.75,0-11-.17-14,3.35-15.24,11.36-3.71,24.18-7.67,31-12.06,55.09-1.52,8.34.7,11.56,11.53,11.32C227.06,995,254,995.4,280.94,995.4Z"/><path class="cls-10" d="M148.9,1017.19q-2.81,16.88-5.6,33.76c11.7,2.29,23.33,5,34.94,7.82q2.2-13.63,4.39-27.26c1.34-8.38,4.46-11.65,15.18-11.56q83.79.7,167.59,0c11-.09,14.76,2.71,16.23,12q2.1,13.23,4.25,26.45a317.14,317.14,0,0,0,32.81-13.94c-6.38-36.87-12.78-74-19.23-112.05-.61-3.59-.7-6.55-.06-8.86q-11.46.75-22.94,1.19-7,.25-14.08.42a22.21,22.21,0,0,1,.8,3.49c3.88,25,8,32.6,12.46,57.5,1.46,8-2.36,9.62-10.9,9.52-27.89-.35-55.79-.13-83.69-.13-26.94,0-53.88-.4-80.8.2-10.83.24-13.05-3-11.53-11.33,4.39-24.09,8.35-30.91,12.06-55.08.49-3.21,1.29-5.68,2.75-7.5-13.27-.41-26.53-.73-39.8-.89,1.8,2.33,1.87,6,1,10.67C159.15,962.52,154,986.19,148.9,1017.19Z"/><path class="cls-10" d="M109.71,874.35s160,24.64,229,15.73,115.48-11.73,112.69-22.41-51.63-33.6-100.79-35.22-183.94,10.74-183.94,10.74-45.24,7.61-50,14.2S109.71,874.35,109.71,874.35Z"/><path class="cls-11" d="M512.26,377.66a150.45,150.45,0,0,0-10.06,37.62A149.6,149.6,0,0,0,512.26,377.66Z"/><path class="cls-12" d="M152.86,741.26s-28.38,107.9,22.59,122.5,267.33,18.13,267.33,18.13,4.2,64.21,12.43,123.46c7.58,54.5,20.63,133,20.63,133s162.58,11,180-20.54c15.21-112.36,29.58-226,23-339.62-2.13-36.9-35.79-60.63-66-70.19-29.94-9.49-77.46-13.23-110.13-15.48-32-2.2-89,5.75-89,5.75S260.37,781.34,152.86,741.26Z"/><path class="cls-13" d="M388.44,97.42c7.38-7.51,17.65-11.65,27.13-7.37,2.72-19.44,23.34-27.81,42.79-25.21,9.92,1.79,19.42,7.94,29.34,6.17,6.19-1.09,11.36-5,17-8,23.49-12.14,53.48,11.26,68.15,33.27s6.81,42.61-6.25,65.58c-6.07,10.69-6.4,17-9.66,28.92-3.08,11.27-13.47,31.44-15.45,42.8s13.87,26.16,2.23,25.2L421.06,223.74c-19.18.64-30.13-6.91-37-24.83-4.39-12.14-2.24-12.31-1-25.12,1.22-16.83-13.61-32-9.92-48.49C375.17,114.91,381.5,105.4,388.44,97.42Z"/><path class="cls-14" d="M373,94.2s46.72-14.41,101.5.84,76.44,53.85,82.2,80-8.82,50.17-8.82,50.17,13.33,6.05,30.76-42.63c25.41-71-42.18-127.24-60.26-129.93S411.13,16.26,373,94.2Z"/><path class="cls-4" d="M401.65,224.14s-9.24,43.77-26.12,72.61c-2.35,4-41.95,16-41.95,16l47.57,20c21.75,9,72.48,16.28,95.62,12l20.17-8.54s-23.79-9.47-23.47-11.83C474.23,319,485,277,485,277"/><g id="freepik--character-2--inject-1332"><path class="cls-15" d="M406.89,393.46a67.7,67.7,0,0,1-3.3-8,29,29,0,0,1-1-9.22c.19-3.8,13.85-.53,15.54-3.94a28.84,28.84,0,0,1,4.82-6.87l.31-.29-.17-.48c-1.61-5.64-2.77-11-3.79-14.53a22.1,22.1,0,0,0-1.88-5.67,3.23,3.23,0,0,0,.19,1.56l.91,4.2c.78,3.7,1.65,8.74,3.34,14.92l.18-.76c-4.93,5.07-20.5,4.8-20.77,11.87a28,28,0,0,0,1.43,9.56,25.17,25.17,0,0,0,2.64,5.84A8.14,8.14,0,0,0,406.89,393.46Z"/><path class="cls-15" d="M357.66,373.85a45.28,45.28,0,0,0-4.14-5.23,24.1,24.1,0,0,1-6.23-14c-.06-3,.62-6,.48-8.84a9.36,9.36,0,0,0-2.79-6.92,5.82,5.82,0,0,0-4.82-1.43c-1.22.28-1.68.85-1.65.9a6.9,6.9,0,0,1,1.72-.36,5.65,5.65,0,0,1,4.1,1.62,8.84,8.84,0,0,1,2.11,6.24c.08,2.62-.64,5.56-.6,8.81a19.05,19.05,0,0,0,2.57,8.58,34.17,34.17,0,0,0,4.39,5.89A26.49,26.49,0,0,0,357.66,373.85Z"/><path class="cls-15" d="M374.76,364.34a70,70,0,0,0-6.2-6.34,42,42,0,0,1-11.24-17.54,23,23,0,0,1-.85-5.83,39.86,39.86,0,0,1,.48-5.56c.79-3.3,12.84.2,10.92-2.61a5.38,5.38,0,0,0-3.55-1.94c-1-.13-14.68-7-15.59-6.54-1.5.81-1.67,1.89-1.62,1.86a3.63,3.63,0,0,1,1.82-1.33c1.94-.69,16.78,6.92,18,8.54,1.61,2.64-10.62-1.17-11.41,1.82a39.44,39.44,0,0,0-.57,5.74,23.43,23.43,0,0,0,.88,6.23,39.43,39.43,0,0,0,11.85,17.84c2,1.87,3.75,3.31,5,4.27A7.1,7.1,0,0,0,374.76,364.34Z"/></g><g id="freepik--character-1--inject-1332"><path class="cls-4" d="M464.06,322.89l-105-10.14-29.9,32.94s25.75,30.51,28.6,32.14,70.46,24.94,70.46,24.94c87-21.55,88.61-20.89,80.68-20.13C507.81,382.74,464.06,322.89,464.06,322.89Z"/><path class="cls-7" d="M519.84,694c-30.13,1-60.28,4.64-89.19,13.47-15.09,4.6-29.61,10.84-44.24,16.69l-23.26,9.3c-7.26,2.91-14.55,5.71-21.61,9.09-15.17,7.26-29.78,15.93-46,20.84-1.51.46-.43,1.13-4.4,2-38.13,10.17-74.79,18.5-110.84.71-11.09-5.48-24.5-13-31.61-19.48-6.09-12-2.39-14.54-1.39-22,6.47-48.22,70.76-134.48,70.76-134.48l45.58-235.89,96.11-52.1c-3.56,1.93,31,37.84,33.54,39.7,21.71,16.28,59.66,27.95,81.3,4.79,2.73-2.92,10.45-16.74,4.88-20.69l38.6,27.39,16.5,115.26c5.72,11.18,20.51,89.95-16.91,124.77l-20.08,3.78L508.3,657.1c.82,4.4,6.73,10.39,8.65,14.67a53,53,0,0,1,4.86,16.74l.32,5.47Z"/></g><line class="cls-16" x1="259.37" y1="541.24" x2="261.19" y2="540.43"/><path class="cls-7" d="M479.5,326s52.07,14.55,58.8,39.09c10.22,37.26,0,119,0,119l-34.24-3.39Z"/><path class="cls-17" d="M534.42,564.23c-8.42,19.12-9.09,21.19-8.62,21.22.27,0,4.5-7.33,7.75-12.84a38.8,38.8,0,0,0,5.13-15.46c.6-5.45.94-11.15,1-15.68q.08-13.54-1.13-27.05c-1.63-18.65-1.59-20.12-5.24-38.54-1.75-8.85,2.19-23,6.67-35.76-9.83,16-11.61,25.13-8.83,41.49,2.85,16.77,5.45,33.07,5.79,50C537.19,546.17,537.3,554.89,534.42,564.23Z"/><path class="cls-5" d="M474.91,316.59s-9.05-3.1-15.16-6-17.16-4.37-42.38-35c0,0,3.34,33,39.93,46.15,0,0,9.41,3.69,16.08,3.22Z"/><path class="cls-4" d="M541.08,130.81l.35.39a5,5,0,0,1-.26-.74Zm15.09,7.31q.27.42.6.84l.07-.29S556.26,137.77,556.17,138.12ZM414.56,271.57c11,19.05,30.13,41.08,53.9,46.14,8.52,1.82,17.79-.5,25-4.48,10.94-6.05,22.41-12.12,31.45-20.21,8.67-7.76,12.91-12.87,18.46-23.06,5.75-10.53,6.47-13.51,8.11-25.07a115.22,115.22,0,0,1,3.89-17.61c1.84-5.46,9.94-26.79,13.7-39.56s-.24-39.71-.24-39.71c.15-3.68-5.12-3.08-6.28-6.36l-1.52-.39a1.53,1.53,0,0,1,.39,1.59,12.36,12.36,0,0,1-4.64-3.89l0,.06c-2.55.44-4.55-1.2-6-3.44-.09.35.11,1.15.49,1.25a7.86,7.86,0,0,1-5.52-3.68c-.09.35.11,1.14,0,1.49a14.28,14.28,0,0,1-4.32-3.44c.23.55,9.13,1.47,9.07,1.71-2.36-.25,0,1.19-1.4-1l-1.54-1.79c-2-.15-2.22,1-3.37-.78.29.45,0-4.1-.13-3.76-2.27-.59-1.61-.58-3.23-2.12-.09.34-6.79.63-6.88,1-1.9-.5-1.85,1.37-3-.42.29.45,1.76-1.1,2-.65-2.36-.25-3.6,1-5-1.25.29.45-6.49-5.79-6.49-5.79-2.36-.25-2.17.57-3.7-1.32.58.9-10.32-3.4-10.12-2.61-1.9-.5,1.79,7.9.55,6.46-.09.34-4.09-2.2-4.09-2.2-2-.14.4,2.34-.75.55-.09.35,0,1.49.4,1.59-2.55.45-5-.94-6.93-2.93.58.89.77,1.69,1.06,2.14-1.9-.5-3.5-.55-5-2.44-.09.35.39,1.59.77,1.69a7.75,7.75,0,0,1-5.88-2.29c-.09.35.49,1.24.77,1.69a5.57,5.57,0,0,1-4.36-1.89l.77,1.69c-1.52-.4-2.84,0-4.93-1.3-.09.35.58.9.49,1.25a14.31,14.31,0,0,1-3.7-1.35c-.09.35.86,1.34.48,1.24-1.51-.39-2.83,0-4.54-1.19.28.45.48,1.24.77,1.69-1.52-.4-3.12-.45-4.46-1.54a2.71,2.71,0,0,0,.39,1.59c-1.51-.4-2.83,0-4.54-1.2-.1.35.48,1.25.77,1.69-1.52-.4-3.13-.45-4.55-1.19-.09.34.58.89.86,1.34-1.51-.4-3.12-.45-4.83-1.64-.19.69.1,1.14,0,1.49-1.14-.3-1.8-.85-2.94-1.15l-2.08.2c-7.13,5.56-25.56-5.28-25.56-5.28-14.21,6.3-11.1,58.48-12.46,65.19s-5.59,7.56-5.59,7.56c-1.26-2.93-5.46,3.67-5.87.58-.5-2.73,1.09-5.66.59-8.39-2-6.47-10-6.72-15.07-4.34l-1,1c-7.87,6.34-7.94,32.44-5.53,40.82C379,228.58,390,239.74,400.12,231l.54,6.31"/><path class="cls-18" d="M500.36,253.88c-3.17.72-7.34-.74-9.7-3.21-.53-.55-2.7-.73-2,0,3.12,3.27,9.17,5.09,13.27,4.16.41-.1.42-.39,0-.65a2.49,2.49,0,0,0-1.61-.34"/><path class="cls-18" d="M487.68,249.6a18,18,0,0,0-5.68-3.11,1.46,1.46,0,0,0-1,0c-.22.11-.31.31-.11.5a6.85,6.85,0,0,0,3.13,1.64,1.3,1.3,0,0,0,1.14-.13c.26-.23,0-.5-.32-.57a5.52,5.52,0,0,1-2.53-1.33l-1.12.55a16,16,0,0,1,5.07,2.79,1.34,1.34,0,0,0,1.15.17c.26-.07.58-.31.28-.56"/><path class="cls-18" d="M479.27,247.66c-2.44-.7-5-2.53-5.77-4.68-1.1-3.26,1.76-7.21,5.29-8.18.39-.11.28-.41,0-.57a2.08,2.08,0,0,0-1.39-.07c-3.08.85-5.76,4-6,6.72-.27,2.53,1.64,4.85,4.39,6.33a14.14,14.14,0,0,0,2.63,1.09c.37.1,1.07.17,1.33-.07s-.05-.47-.4-.57"/><path class="cls-18" d="M505.19,253.82a.33.33,0,0,1,.43-.38,3,3,0,0,0,2.07-.12c.15.32.3.64.44,1a9,9,0,0,0-4.21.36.73.73,0,0,1-.75-.33c-.12-.17-.21-.53.07-.62"/><path class="cls-18" d="M503.24,253.69a9.83,9.83,0,0,1,4.7-.38.81.81,0,0,1,.58.46.35.35,0,0,1-.14.5"/><path class="cls-18" d="M510.21,255.49a5.19,5.19,0,0,0,5-1.84,7.41,7.41,0,0,0,.15-8.36.3.3,0,0,1,.26-.48,1,1,0,0,1,.78.49,8.3,8.3,0,0,1,.85,7.36,5.81,5.81,0,0,1-5,3.87,6.16,6.16,0,0,1-1.87-.09c-.24-.06-.65-.28-.69-.6s.21-.4.44-.35"/><path class="cls-19" d="M538.91,212.24c2.39-.54,4.87,1.06,5.93,2.64a6.12,6.12,0,0,1,.67,2.9,5.63,5.63,0,0,1-2.6,4.64,5.25,5.25,0,0,1-6.11-.51,5.81,5.81,0,0,1-1-7.27,5.16,5.16,0,0,1,3.16-2.4"/><path class="cls-19" d="M518.28,214.32S530.64,209,536,209.8c7.84,1.25,16.14,8,17.85,12.46,0,0-10.79-9.61-16.34-10.32C532.22,211.25,518.28,214.32,518.28,214.32Z"/><path class="cls-19" d="M474.94,196.27c-1.81-1.64-5.27-2.23-7-1.38a5.43,5.43,0,0,0-2.25,2.07,5.65,5.65,0,0,0,0,5.33,5.27,5.27,0,0,0,5.57,2.56,5.82,5.82,0,0,0,4.49-5.82c0-.44.62-1.13-.85-2.45"/><path class="cls-19" d="M486.75,205.39s-9.63-10.39-15.27-12.06c-8.24-2.42-19.42-.16-23.15,3.1,0,0,14.94-3.73,20.7-1.86C474.53,196.35,486.75,205.39,486.75,205.39Z"/><path class="cls-20" d="M533.05,181.24l-2.94,3.81c-.75,1-1.5,1.93-2.24,2.9,3.86,1.71,7,3.33,9.39,4.61,5,2.71,7.51,4.11,9.74,6.54a31.5,31.5,0,0,1,4.41,6.42,19.51,19.51,0,0,1,1.8,4c.95,3.26.45,5.72.93,5.84s1.11-1.85,1.18-2.06a18.64,18.64,0,0,0,.39-10A22.11,22.11,0,0,0,551.9,196c-2-2.62-8.67-8.56-18.85-14.72"/><path class="cls-20" d="M496.8,171.39c.07,1.6.13,3.2.2,4.81.05,1.22.09,2.44.13,3.66-4.49-.83-8.32-1.32-11.21-1.63-6.12-.66-9.25-1-12.75-.26a35.49,35.49,0,0,0-8,2.71,21.74,21.74,0,0,0-4.15,2.26c-2.9,2.12-4,4.42-4.52,4.25s.19-2.16.25-2.37a19.09,19.09,0,0,1,6-8.41,24.89,24.89,0,0,1,8.05-3.84c3.45-1,13.08-2,26-1.18"/><path class="cls-21" d="M400.14,204.11c-4.57-21.7-10.58-23-10.58-23s-5,3.84-4.79,13.53"/><path class="cls-21" d="M396.67,205.32c-5.31-1.6-3.14,9.34-5.11,11.42s-2.7-4.63-1.87-12.39c0,0,2-10.31,7.52-11.19"/><path class="cls-5" d="M487.22,156.12s11.94,9.19,25.43,11.45,30.42,3.33,30.42,3.33"/><path class="cls-20" d="M563.79,130.82c-.13-.27.06.12,0,0-2.49-5.31-3.71-10.71-6.43-15.9s-5.34-9.74-8.29-14.67c-.17-.29-4.56-1.2-4.73-1.49l-.19-.31-.29-.46c-.22-.35-.44-.71-.67-1.06C524,84.05,499,78.22,474.93,81.1a85.12,85.12,0,0,0-74.36,94.65c.48,4-2.61,8.18.72,11s4,1.82,7.91,0a28.26,28.26,0,0,0,9.66-8.52c12.91-16.55,20.48-45.21,19.77-66.18,1.77,4.25,19.51,3.36,22.85,6.53a33,33,0,0,0,46.6-1.2,49.68,49.68,0,0,0,4,7.25c14,21.08,35,33.85,56.1,24.54C569,148.83,565.34,134.18,563.79,130.82Z"/><path class="cls-22" d="M444.75,185.92l.6,7.65c0,5.83,1.44,17.72,2.58,21.16,1.62,4.81,30.38,13.65,36.94,11.73s13.91-17.79,16.4-21.28l11.51,3.55c-.21,5.26-.5,22,1.18,24.68s15.15,5.63,16.67,6c1.27.26,3,.63,5,.95,5.15.89,11.5,1.56,13.85.16,3.5-2.08,9.21-11.91,14.34-21.29l.83-1.46c.18-.35.37-.59.4-.7h0l.92-1.69c-14.8-12.19-37.17-16.34-53-9.83l.06.2-11.21-3.52c-10.72-11.73-31.78-21.9-49.21-19.69h0l-51.4-4.05L400,182.79Zm71,46.21c-1.05-1.67-1.18-13.48-1-22.6,13.7-5.41,33.86-1.64,47.3,8.4l-.06.22c-2.76,5-10.09,18.39-13.52,20.43-4.07,2.41-30.83-3.75-32.74-6.4Zm-64-17.73a152.57,152.57,0,0,1-3.38-27.51c15.74-2.92,39.47,6.8,50,18-3.75,6.47-9.32,18-14,19.39-6.77,2-31.61-6.87-32.61-9.91Z"/><path class="cls-23" d="M516.07,232c-1.05-1.68-1.18-13.48-1-22.6,13.7-5.42,33.86-1.64,47.3,8.39l-.06.22c-2.76,5-10.09,18.39-13.52,20.43-4.07,2.41-30.83-3.74-32.74-6.39Z"/><path class="cls-23" d="M451.69,214.4a152.57,152.57,0,0,1-3.38-27.51c15.74-2.92,39.47,6.8,50,18-3.75,6.47-9.32,18-14,19.39-6.77,2-31.61-6.87-32.61-9.91Z"/><path class="cls-24" d="M377.19,180.3s-36.75-37.77-15.05-67.72c4.17-5.75,4.15-3.63,5.27-9,5.89-28.31-5.25-23.25,42.23-49.31S463.15,29.81,526,45.6c32.4,8.14,48,25,53.36,47.33,2.41,10,2.75,21.22,1.62,33.21,0,0-63.76-30.76-107.44-16.15s-97.79,77.47-93.17,101.43C381.66,218.15,377.19,180.3,377.19,180.3Z"/><path class="cls-14" d="M356.69,144.66S428,71.6,504.32,82.22c0,0-92-26.28-145.09,33.47l-2,7.77a43.41,43.41,0,0,0-1.16,14.8Z"/><path class="cls-7" d="M359.79,302.16s-88,3.4-117.88,68.48c-19.21,41.85,17.94,208.45,26.43,231.51,24,65.08,211,86.36,211,86.36L490,635.08,343.14,550.72l-23.26-97.39Z"/><path class="cls-17" d="M609.54,440.72s-7.53,17.74-9.33,30.39c0,0,.39-24.37,7-32.18Z"/><path class="cls-5" d="M510.07,174.92s5.41,12.7-6.55,16.59l2-3.93a45.24,45.24,0,0,0,3.19-8Z"/><path class="cls-5" d="M521.9,179.73s-10.9,8.48-2.34,17.69Z"/><path class="cls-25" d="M716.28,621.48l.21.06V621Z"/><path class="cls-9" d="M910.83,870.06q72,0,143.94,0c20.64,0,24.46,9.56,24.43,29.14,0,18-4.13,28.57-25,28.62-4.7,0-9.5.51-14.09-.1-13.82-1.82-16.59,3.18-14.78,13.63,17.67,101.95,34.91,196.93,52.54,298.89,1.2,7,.11,9.7-9.43,9.81-23.83.29-24.31.75-27.62-18.34q-16.87-97.56-32.9-195.23c-1.43-8.85-5.1-11.52-15.85-11.44q-81.84.66-163.7,0c-10.47-.09-13.51,3-14.82,11-11.18,68.59-22.9,137.11-34.18,205.69-1.06,6.38-4.25,8.29-11.82,8.4-24.55.37-25.22.54-22.07-18.69,11.44-69.73,23.32-139.4,35.12-209.08,5-29.63,10-52.24,15.49-81.82,1.68-9.13-.29-14.3-13.11-12.56-2.75.38-5.65-.11-8.45.08-36.81,2.55-33.8-23.17-31.67-47,.83-9.23,10.59-11.4,21.21-11.35,48.92.24,97.84,6,146.77,6Zm-1.16,131.63c27.25,0,54.5-.21,81.74.12,8.35.11,12.07-1.4,10.65-9.09-4.39-23.8-8.38-31.09-12.17-55-1.15-7.24-4.2-10.3-14.08-10.17-43.21.53-86.45.61-129.66,0-10.71-.16-13.68,3.19-14.88,10.85-3.63,23.11-7.49,29.62-11.78,52.65-1.49,8,.68,11.05,11.26,10.82C857,1001.31,883.36,1001.69,909.67,1001.69Z"/><path class="cls-10" d="M780.7,1022.51q-2.73,16.13-5.47,32.26c11.43,2.2,22.79,4.78,34.13,7.48q2.14-13,4.29-26.06c1.31-8,4.35-11.13,14.82-11q81.84.66,163.7,0c10.74-.08,14.42,2.59,15.85,11.44,1.37,8.43,2.77,16.85,4.15,25.28a313.47,313.47,0,0,0,32-13.33c-6.23-35.23-12.48-70.71-18.78-107.08a19.74,19.74,0,0,1-.06-8.47q-11.19.72-22.4,1.14-6.88.25-13.76.4a20.5,20.5,0,0,1,.79,3.34c3.79,23.86,7.78,31.15,12.17,55,1.42,7.69-2.31,9.19-10.65,9.09-27.24-.33-54.49-.12-81.74-.12-26.31,0-52.63-.38-78.93.19-10.57.23-12.74-2.85-11.26-10.82,4.29-23,8.16-29.54,11.79-52.65.48-3.06,1.25-5.42,2.68-7.16-13-.39-25.92-.7-38.88-.85,1.77,2.22,1.83,5.73,1,10.19C790.72,970.27,785.71,992.88,780.7,1022.51Z"/><path class="cls-10" d="M742.42,886s156.27,28.12,223.65,19.6,112.79-15.78,110.06-26-50.42-32.1-98.44-33.65S798,856.23,798,856.23s-44.19,7.27-48.83,13.56S742.42,886,742.42,886Z"/><path class="cls-4" d="M819.5,775.22s-100.67,12.84-125.89,14.44c-37,2.37-39.93,15.06-45.14,37.45-10.85,46.62,44.39,335.09,44.39,335.09l34.38,6.35L709.41,891.3l109.66-29.14Z"/><path class="cls-4" d="M856.55,846.3S741.08,813.08,711,823.73s-27.23,35.7-27.83,63.57S714.3,1187,714.3,1187l44.05-17.44s23.06-159.69,21.92-189.11-18.92-72-18.92-72S845,856,865.76,857.39,856.55,846.3,856.55,846.3Z"/><path class="cls-5" d="M689.91,857.05A22.73,22.73,0,0,1,695,860.9a114.87,114.87,0,0,1,19.85,22.83,20.69,20.69,0,0,1,3,5.43c-.4.24-5.65-7.69-13.38-16.53S689.59,857.38,689.91,857.05Z"/><path class="cls-26" d="M868,696.77c-3.56,9.57-28.27,8.54-37.72,8.79l-35.82.34S646.36,752.73,640.66,767l2,13.27s25.58-5.74,49.19,36.16c19.45,34.53,38.79,79.39,38.79,79.39L919.71,886c50.94-4.78,79.58-17.21,103.31-52.33,31.58-62.21-7.52-118.46-7.48-127.17-4.87,3.33-5.5-8.52-10.8-6.3"/><path class="cls-5" d="M701.26,1104.88q-6.91-54.69-11.39-109.55c-1.32-16.23-2.78-32.52-4-48.81l-1.24-.3c3.94,52.27,7.91,104.48,15,156.37l4.86,35.67,2.43,17.84c.62,4.5,2.92,11.19,2.13,15.6.36,2.65.72,5.36.07,7.93-1.48,5.92-7.68,9.36-11.34,14.31,4-5.27,11.4-8.33,13-14.68.65-2.51.25-5.17-.15-7.76Q705.47,1138.24,701.26,1104.88Z"/><path class="cls-26" d="M778.66,722.5s-131.8,16.81-147.51,62.92c-7.42,21.8,11.08,155.08,19.26,239.42,4.08,42.07,0,69.76,0,69.76s112.76,21.17,133.48,10.31c0,0,16.48-214.3-10.81-260.53S778.66,722.5,778.66,722.5Z"/><path class="cls-26" d="M850.69,891.42s-41.42.81-41.74,29,.9,153.3,9.26,177.28c2.2,6.3-65.71,19.91-96.62,11.94C692,1102,670.53,1096,670.53,1096L692,799.71l158.69,85.95"/><path class="cls-4" d="M836.62,394.21c.72-2.69-.81-30.51-.81-30.51l42.81,4.38,29.06-2.59s4.9,20.29,5.88,22.9,39.08,19.54,39.08,19.54-11.64,30-66.85,32.64-76.56-31.89-76.56-31.89S835.89,396.9,836.62,394.21Z"/><path class="cls-27" d="M987.17,331.34c-4.39-2.21-8.87-5.13-11.18-9.56a23.37,23.37,0,0,1-2.25-10.17,6.6,6.6,0,0,1-1-1.41c-3.9-7.85,1.32-18.55-4.19-25.42-5-6.25-16.67-4.16-21.46-10.59-3.74-5-1.17-10.36-3-15s-9.47-7.8-14.36-6.49l-30.27,61.23c-.72,19.11-2.91,29.45,2.95,39.82,3.57,5.38-3.81,11.16-1.51,17.17,1.85,6.18,1.34,13.54-3.33,18.06,23.58-1.73,55.35-12.87,73.7-27.47l5.17-4.16c-9.12-3.16-17.62-17.61-17.62-17.61,4.9,5.41,13.72,12.93,20.18,15.4.21.13,2.82-1.66,3.07-1.74,4.07-1.42,13.87-11.24,19.89-17.55A43.55,43.55,0,0,1,987.17,331.34Z"/><path class="cls-27" d="M800.46,228.52a42.64,42.64,0,0,0-11.9,7.56,40,40,0,0,0-3.12,3.14c-12.38,12.49-17.38,29.81-13.36,46.35,2,7.87,5.85,16.63,1.25,23.53s-15.45,8.18-19.73,15.13c-5,8.18,2,18.29,1.26,27.7-1,9.12-9.05,16.2-18.93,16.71a83.25,83.25,0,0,0,41.13,10l8.63-14.36a12.73,12.73,0,0,0,3.52,16.06,32.6,32.6,0,0,0,17.58,6.56c14.43.88,45.55-8,84.26-25.29L813.31,224.27"/><path class="cls-27" d="M963.17,264.14c-2.87-5.32-7-10-9.29-15.6-4.9-12-.71-26.82-9-37-5.9-7.28-16.31-9.75-26-11.1s-20-2.15-27.91-7.48c-5.83-3.9-9.74-9.86-15.57-13.79-8.27-5.63-19.25-6.33-29.43-5.47a64.63,64.63,0,0,0-29.67,8.92,31,31,0,0,0-15.13,24.48c0,4.77,1.39,9.56.55,14.25-.93,5.18-4.46,9.61-6.28,14.59-3.66,10.91,1.09,22.74,11.54,28.75L892.25,340c15.82,3.13,51-8.41,60.87-20.36S970.35,277.57,963.17,264.14Z"/><path class="cls-28" d="M833.54,332.9s2.38,56,1.58,61.44l3.53,7.47-7,6.22c23.43,18.8,29.17,19.1,57.86,9.62L922.53,400s-6.06-9.35-8-13.63c-8-17.67,6.31-58.44,6.31-58.44"/><path class="cls-4" d="M941.38,294.39l-.6-1c-3.7-3.17-10.52-4.86-13.72,0-1.08,2.14-2.7,4.54-3.78,6.68-1.08,2.44-2.71,7.38-4.48,9.5,0,0-11.43-25.09-10.95-31s20-18.55,9.55-27.12c0,0-10.9-11.11-16.09-17.67-1.16-.64-2.33-1.25-3.53-1.83a10.74,10.74,0,0,1-1.86.19c0-.24.22-.49.32-.89l-.43-.2a13.42,13.42,0,0,1-4,.08c.35-.3,1-.6,1-.91a18.22,18.22,0,0,1-4.11-.09c.35-.3,1.05-.9,1.05-1.21-1.72.58-2.74-.06-4.11-.09a2.29,2.29,0,0,0,.72-1.22c-1.39.59-2.75.25-4.12.22.35-.3.7-.91,1.05-1.21-1.72.58-2.74-.06-4.11-.1-.32,0,.56-.52.69-.84l-.14,0a14,14,0,0,1-3.28.2c0-.27.52-.54.66-.8l-.23,0c-1.88.44-2.87-.13-4.17-.16l.49-.57-.61-.1a5.47,5.47,0,0,1-2.95,0l.44-.39-1.17-.17a6.23,6.23,0,0,1-3.71-.16.73.73,0,0,0,.43-.25l-1.31-.15a14.56,14.56,0,0,1-2.88,0,3.18,3.18,0,0,0,.25-.26l-1.77-.13a5.84,5.84,0,0,1-3.19-.18c-2.12-.1-4.23-.16-6.34-.16-15.79-.06-33.19,1-45.31,12.1A148,148,0,0,0,795,258.66c-4.94,14.89-5.58,38.67-5.35,43.61.2,4.29-2.67,12.52-3.31,17-3.44,24,15.13,49,33.93,62.88,7.5,5.52,14.11,3.65,21.68,2.82,15.46-1.7,38.84-10.35,52.71-23.45l19.79-17,2-5.07c3,9.74,16.52,3.82,18-9.27C944.47,318.81,946.46,301.48,941.38,294.39Z"/><path class="cls-18" d="M822.38,330.64a9.06,9.06,0,0,0,7.88-.22c.51-.28,2.16.06,1.45.45A12.75,12.75,0,0,1,821,331c-.28-.16-.23-.36.13-.46a2,2,0,0,1,1.27.1"/><path class="cls-18" d="M832.7,330.29a14.58,14.58,0,0,1,4.88-1,1.18,1.18,0,0,1,.74.25c.14.12.16.29,0,.38a5.51,5.51,0,0,1-2.68.49,1,1,0,0,1-.81-.33c-.14-.22.14-.35.36-.34a4.37,4.37,0,0,0,2.16-.4l.72.62a13.35,13.35,0,0,0-4.37.9,1,1,0,0,1-.89-.12c-.17-.1-.36-.34-.08-.46"/><path class="cls-18" d="M839.34,330.71c2,0,4.3-.72,5.3-2.09,1.53-2.06.28-5.65-2.13-7.08-.26-.15-.11-.34.16-.38a1.6,1.6,0,0,1,1,.24,6.68,6.68,0,0,1,3,6.2c-.36,1.84-2.28,3.07-4.64,3.53a11.27,11.27,0,0,1-2.18.22c-.3,0-.83-.11-1-.33s.13-.32.41-.31"/><path class="cls-18" d="M818.82,329.58a.25.25,0,0,0-.24-.36,2.37,2.37,0,0,1-1.51-.52l-.53.58a7.15,7.15,0,0,1,3,1.14.56.56,0,0,0,.63-.07c.13-.1.28-.33.09-.46"/><path class="cls-18" d="M820.29,329.89a8,8,0,0,0-3.4-1.25.65.65,0,0,0-.53.2.25.25,0,0,0,0,.38"/><path class="cls-18" d="M814.74,329.7a4,4,0,0,1-3.33-2.36,5.27,5.27,0,0,1,1.72-5.92c.17-.14.09-.33-.09-.39a.78.78,0,0,0-.68.18,5.91,5.91,0,0,0-2.24,5,4.31,4.31,0,0,0,2.82,3.77,4.92,4.92,0,0,0,1.4.33c.2,0,.55-.06.65-.28s-.07-.32-.25-.33"/><path class="cls-29" d="M923.48,315.76A60.56,60.56,0,0,1,932,302.49a13.69,13.69,0,0,1,4.76-3.76c.2-.07.17,0,.36-.09-.13,0,.12,0,0,0l-.2-.08a9.07,9.07,0,0,1,1.42,3.17,17.86,17.86,0,0,1-.31,9.51c-.07.23,1.05.09,1.13-.2,1-3.6,1.3-7.58-.17-11.1a4.39,4.39,0,0,0-.91-1.67.88.88,0,0,0-.66-.06c-3,.44-5.5,3.22-7.3,5.39A66,66,0,0,0,922.35,316c-.09.16,1,.09,1.13-.2Z"/><path class="cls-27" d="M786.35,278.68c6.32-5.68,11-7.9,24.38-12l.15.27c.91,1.52.4.67,1.31,2.21.69,1.16,1.37,2.33,2,3.5-4.38,1.29-7.74,1.85-10.45,2.9-5.12,2-11.27,3.67-15.72,7C787.53,281.26,787,280,786.35,278.68Z"/><path class="cls-27" d="M850.44,268.78c-.51,1.7-.22.75-.72,2.46-.38,1.3-.76,2.6-1.13,3.9,4.57.16,8-.13,10.85.21,5.71.68,12.44.77,17.71,3.23,2.52,1.17,6.1,2.94,7.3,5.82.33.77.61,3.29,1.79,3.13.48-.06.4-2.36.39-2.6-.17-4.65-3.37-7.5-7.61-9.85-8.66-4.79-13.42-5.87-28.5-6.6"/><path class="cls-30" d="M925.13,339a6.57,6.57,0,0,1,1.94,8.76,5.84,5.84,0,0,1-3.88,2.63h-.49a7.24,7.24,0,0,1-1.54-.22,6.66,6.66,0,0,1-4.47-3.55c-.32-.65-2-.14-1.68.45a7.59,7.59,0,0,0,4.54,4,8.49,8.49,0,0,0,3.43.45,7.61,7.61,0,0,0,6.72-7.79,7.44,7.44,0,0,0-3.26-5.56c-.51-.37-2,.37-1.31.88Z"/><path class="cls-29" d="M922.86,316.44c1.07,0,2.71.16,2.76,1.54a7.92,7.92,0,0,1-1,3.18c-.91,2-2.22,4.82-.44,6.78,2.13,2.36,5.27-1.21,6.36-2.92a13.85,13.85,0,0,0,2.23-8.18c-.16-3.09-.8-7.19-4-8.64-.51-.23-1.33.5-.66.81,2.68,1.23,3.25,5,3.42,7.58a13.18,13.18,0,0,1-1.76,7.62c-.87,1.54-4.4,5.82-5.28,1.92-.52-2.27,1.25-4.61,2-6.65a3.13,3.13,0,0,0,0-2.72c-.73-1.09-2.36-1.16-3.53-1.2-.67,0-.86.86-.09.88Z"/><path class="cls-5" d="M835.32,385.12a96.12,96.12,0,0,0,50.42-14.56S873.92,393.45,835.32,391Z"/><path class="cls-27" d="M895.86,198.51c-5-2.62-11.09-2.12-16.73-1.38a313.29,313.29,0,0,0-71.08,18c-.27,5.71,5.46,10.23,11.19,11.21s11.62-.55,17.39-1.38,12.21-.76,16.78,2.83,6.33,10.58,11,14.61c8,7,21.85,3.13,29.83,10.1,6,5.3,6,14.35,9,21.87,5.64,14.63,21.27,18,36.18,12.45a29.57,29.57,0,0,0,3.54-1.58c-12.4-25.6-23.77-47.17-36.18-72.76C904.05,207,901.15,201.3,895.86,198.51Z"/><path class="cls-27" d="M723.34,353.29a8.83,8.83,0,0,0,1,5.89,8.24,8.24,0,0,0,5.59,4.1,8.61,8.61,0,0,0,8.18-3.58,7.65,7.65,0,0,0,1.28-5.1,15.94,15.94,0,0,0-1.82-5.65c-1.84-3.67-5-7.49-5.41-12.61a18.33,18.33,0,0,1,5-14.26,21.86,21.86,0,0,1,6.64-4.82,32.87,32.87,0,0,1,8.13-2.44,45.92,45.92,0,0,0,7.91-2,10.83,10.83,0,0,0,5.66-4.76,12.67,12.67,0,0,0,1.21-7.09,25.19,25.19,0,0,0-1.7-7,53.59,53.59,0,0,1-4.19-13,20.29,20.29,0,0,1,2.43-11.79,26.24,26.24,0,0,1,6.61-7.4,52.56,52.56,0,0,0,5.41-5,15.46,15.46,0,0,0,3-5.39v.41a6,6,0,0,1-.3,1.18,11.61,11.61,0,0,1-2.33,4.13,46.28,46.28,0,0,1-5.32,5.25,26.08,26.08,0,0,0-6.25,7.32,19.28,19.28,0,0,0-2.16,11.17,53.52,53.52,0,0,0,4.24,12.73,25.71,25.71,0,0,1,1.83,7.27,13.94,13.94,0,0,1-1.33,7.8,12,12,0,0,1-6.34,5.41,45.93,45.93,0,0,1-8.16,2.11,31.93,31.93,0,0,0-7.79,2.32,20.25,20.25,0,0,0-6.26,4.53,17.22,17.22,0,0,0-4.76,13.26c.31,4.68,3.27,8.35,5.17,12.23a16.55,16.55,0,0,1,1.85,6.06,8.47,8.47,0,0,1-1.52,5.68,9.41,9.41,0,0,1-9,3.8,8.86,8.86,0,0,1-6.9-9.19A5.43,5.43,0,0,1,723.34,353.29Z"/><path class="cls-27" d="M973.69,309c0-.21,0-.42,0-.62a1.61,1.61,0,0,1,.26-.88c1.46-7.84,5.23-18,5.2-27.23,0-13-22.08-25.76-22.08-25.76l.14,45.17s18.56,23.7,16.52,16A17,17,0,0,1,973.69,309Z"/><path class="cls-27" d="M1001,317.76a8.81,8.81,0,0,1-1,5.89,8.23,8.23,0,0,1-5.57,4.14,8.61,8.61,0,0,1-8.2-3.53,7.63,7.63,0,0,1-1.31-5.09,15.94,15.94,0,0,1,1.79-5.66c1.82-3.69,4.95-7.52,5.33-12.65a18.38,18.38,0,0,0-5.12-14.23,22,22,0,0,0-6.67-4.78,32.94,32.94,0,0,0-8.14-2.38,46.93,46.93,0,0,1-7.93-2,10.86,10.86,0,0,1-5.69-4.72,12.7,12.7,0,0,1-1.25-7.09,24.76,24.76,0,0,1,1.66-7,53.73,53.73,0,0,0,4.1-13.08,20.26,20.26,0,0,0-2.5-11.77,26.38,26.38,0,0,0-6.65-7.36,51.6,51.6,0,0,1-5.45-5,15.65,15.65,0,0,1-3-5.38v.41a5.38,5.38,0,0,0,.3,1.18,11.64,11.64,0,0,0,2.35,4.11,46.47,46.47,0,0,0,5.36,5.23,26,26,0,0,1,6.29,7.28,19.17,19.17,0,0,1,2.23,11.15,53.39,53.39,0,0,1-4.16,12.76A26.14,26.14,0,0,0,956,265.5a14.11,14.11,0,0,0,1.37,7.8,12,12,0,0,0,6.38,5.37,46.78,46.78,0,0,0,8.17,2.06A32.1,32.1,0,0,1,979.7,283a20.5,20.5,0,0,1,6.29,4.49,17.26,17.26,0,0,1,4.84,13.23c-.29,4.68-3.22,8.37-5.1,12.26a16.6,16.6,0,0,0-1.81,6.07,8.49,8.49,0,0,0,1.55,5.68,9.41,9.41,0,0,0,9,3.74,8.86,8.86,0,0,0,6.84-9.24A5,5,0,0,0,1001,317.76Z"/><path class="cls-5" d="M823.17,263.65s5.6,1.54,4.51,7.42-6.95,6-6.95,6,4.32-4.73,4.4-8.57S823.17,263.65,823.17,263.65Z"/><path class="cls-5" d="M835,263.86s-5.3,2.38-3.32,8,7.8,4.87,7.8,4.87-5-4-5.67-7.79S835,263.86,835,263.86Z"/><path class="cls-31" d="M996,663,982.73,513.11,962.4,405.65l-37.73-16.92s-16.56,45.76-59.95,44.3c-37.51-1.26-31.46-38.18-31.46-38.18s-27.79,14-39.73,15.76c-.34,10.17,29,8.46,27.58,18.55-3.28,23.33-9.23,46.2-16.23,68.68-3.25,10.41-7.11,20.66-10.06,31.16-2.42,8.61-4.49,17.59-8.7,25.54l10.47,84.09-27.13,72.79S841,739.28,888.89,736.74s134.57-12.9,134.57-12.9Z"/><path class="cls-4" d="M946.14,596.6c-17.23-3.56-25.07-8.31-42.67-7.82-6.26.17-13.13,3-19.19,4.68-3.92,1.11-16.74,4.74-24.68,8l-103.52,36.7,15.57,32.22s72.78-6.62,107.66-13.07c21.76-4,47.65-9.14,70.61-23.8,5.88-3.76,16-25,6.54-33.41a12.9,12.9,0,0,0-5.77-2.48C949.17,597.25,947.66,596.91,946.14,596.6Z"/><path class="cls-27" d="M803.06,287.54a4.89,4.89,0,0,0-5.25.81,4.57,4.57,0,0,0-1.47,2.12,4.68,4.68,0,0,0,1,4.34,4.57,4.57,0,0,0,5.13,1,4.84,4.84,0,0,0,2.57-5.61,4.33,4.33,0,0,0-2-2.66"/><path class="cls-27" d="M818.5,294.42s-9-7.17-13.65-7.73c-6.81-.81-13.24,2.72-15.74,5.94,0,0,9.2-5.27,14-4.57C807.66,288.74,818.5,294.42,818.5,294.42Z"/><path class="cls-27" d="M859.84,289.07a4.92,4.92,0,0,1,5.21,1.05,4.59,4.59,0,0,1,1.36,2.18,4.7,4.7,0,0,1-1.24,4.29,4.57,4.57,0,0,1-5.17.77,4.84,4.84,0,0,1-2.31-5.72,4.33,4.33,0,0,1,2.15-2.57"/><path class="cls-27" d="M848.28,295.15s9.94-6.73,14.94-7.09c9-.66,17.28,4.53,19.79,7.86,0,0-12.84-6.9-18-6.41C860.12,290,848.28,295.15,848.28,295.15Z"/><path class="cls-4" d="M800.5,414.52l4.69-.86c-3.05,32.38-2,55.06-7.3,87.14-2.51,15.11-1.31,20.15-4.92,35l13.52,6.79c-11,19-33.79,83.21-72.6,76.43,0,0-30.54-17.07-32.61-50.55l68.25-133"/><path class="cls-31" d="M735.1,502.59c3.23,4.41,12.57,9,18.79,13.16,4.83,3.24,11.08,6.44,15.63,10s30.19,56,35.12,59l25.24-188.34L809.29,406c-12.24,2.69-32.5,9.7-38.28,18.05l-45.47,66.08C728.4,493.54,732.46,499,735.1,502.59Z"/><path class="cls-31" d="M788,457.94S766.68,522.19,766.7,537,771,567.51,795,590.45Z"/><path class="cls-32" d="M773.94,567.06c-3.71-7.68-8.52-19.19-6.93-35s7.17-33.57,9.29-41.27,4.32-25.73,4.32-25.73c0,19.2-3.12,28.3-8.23,47.22a111.56,111.56,0,0,0-3.76,21c-1.56,15.36,5.78,35.34,16.65,46.71,2.59,2.72,3.82,2.33,5.63,6.47,0,0-7.93-6.62-11.15-10.6A65,65,0,0,1,773.94,567.06Z"/><path class="cls-17" d="M355,364.5c10.21,13.37,22.66,157.91,25,179.12.89-.42,3.16,2,4.05,1.57-2-16.49-14.77-144.48-20.84-170.24-6.54-27.69-44.41-38.67-44.41-38.67C348.72,351.69,355,364.5,355,364.5Z"/><path class="cls-17" d="M383.73,542c-1.23.57-2.46,1.13-3.69,1.67L516.28,591l.5-.75Z"/><path class="cls-17" d="M512,662.54c-65.57-9.74-170-29.57-216.16-60-9-6-51.94-140.6-51.94-140.6l-.58,1.93C246,485,285.9,604,293.09,605.36c53.75,37,162.7,51.11,207,57C500,661.16,512,663.71,512,662.54Z"/><path class="cls-17" d="M382,544.43s-15.71,11.17-23.86,21c0,0,13.1-20.55,22.83-23.73Z"/><polygon class="cls-4" points="577.26 625.85 599.26 634.51 584.24 674.91 566.24 669.22 577.26 625.85"/><path class="cls-12" d="M622.63,749.18s15-.56,18.38,27.62,8.65,240.44,8.65,240.44l-66-42.9Z"/><path class="cls-33" d="M600.65,741.26s33.52,2.89,39.3,23.11-5.2,48-5.2,48,8.58-44-5.21-55.94A71.5,71.5,0,0,0,600.65,741.26Z"/><path class="cls-4" d="M979.44,422.19s-24,3.23-33.05,9.34S897.84,596,897.84,596s30.88,53.26,55.1,32.79S1020.33,422.29,979.44,422.19Z"/><path class="cls-31" d="M928.66,441.88l-13.93,70.79,87.19,14.43c1-27.27,3.54-41.55,4.22-69,1.53-32.78-45.68-53.35-45.68-53.35Z"/><polygon class="cls-32" points="924.82 456.6 914.58 511.48 932.56 516.1 912.74 513.02 924.82 456.6"/><path class="cls-4" d="M583.88,674.63l44.39,15.65,28.88,3.84c8.86,1.89,18-.22,27.05.67,4-.43,3.92-2.74,3.68-4.52s-19.67-8.77-19.67-8.77,27.39,6.23,32.21,4.28,3.87-6.08,2.68-8.48-45.73-9.22-45.73-9.22l19.23-.56s24.06,8,30.38,6.44,4.86-9.18,4.86-9.18l-29.79-8.33-21-4.9,22.15,1.69s21.41,6.11,26.74,3.33,1-8.85,1-8.85l-30.58-10.17-34.68-4.39c4.32-1.62,10.65-1.22,14.37-4,5.25-4.14-1.15-7.22-1.15-7.22L629.62,620a7.59,7.59,0,0,0-3.67.66l-36.7,16.47Z"/><path class="cls-5" d="M646.5,633.51a25.16,25.16,0,0,0-25.59,1.79c.29.64,5.67-1.49,12.69-2s12.69.92,12.9.26Z"/><path class="cls-4" d="M777.51,669.93c-1,.38-16.4,6.54-23.63,12.11s-24.57,12-24.57,12-30.38,5.59-34.26,4.54-8.59-7.15-8.59-7.15a31.86,31.86,0,0,0-7.81-.06c-7.11.31-10.15-7.49-10.15-7.49l9-3.66A255.84,255.84,0,0,1,652,689.73c-2.57.4-3-1.15-2.84-3.13a11,11,0,0,1,4.61-7.51l40-29.55a91.44,91.44,0,0,1-15.56-11.34c-4.86-4.35-5.36-9.52.47-9.2,1.72.09,18.49,3.67,18.49,3.67s26.62-2.19,32.15-1.33,38.85,8.12,38.85,8.12"/><path class="cls-34" d="M680.83,640.7a97.83,97.83,0,0,0,12.25,8.24l-39.45,30.25a11,11,0,0,0-4.47,7.59c-.13,2,.33,3.53,2.89,3.08a257.66,257.66,0,0,0,25.31-9.92l-8.88,3.81s3.17,7.75,10.28,7.32"/><path class="cls-5" d="M688.2,675.47c-5.07,2.62-9.69,4.94-13.12,6.43a18.75,18.75,0,0,1-5.76,2,30.76,30.76,0,0,1,5.29-3c3.29-1.76,7.84-4.25,12.91-6.87,10.09-5.32,18.87-8.53,19-8S698.29,670.15,688.2,675.47Z"/><path class="cls-5" d="M700.79,686.7a46.51,46.51,0,0,1-15.41,5c0-.34,6.85-2.57,14.88-6.29s14.16-7.56,14.41-7.18A48.27,48.27,0,0,1,700.79,686.7Z"/><path class="cls-35" d="M488.38,266c-11.66-3.9-31-9.45-31-9.45s-3.71,23.28,23.34,32.32,38-11.58,38-11.58S500.05,269.91,488.38,266Z"/><path class="cls-36" d="M488.49,266.05c-5.54-1.85-27.57-7.53-27.57-7.53s3.08,12.59,23.14,19.3c21.75,7.27,29.22-.88,29.22-.88Z"/><path class="cls-37" d="M488.44,267c-5.54-1.86-22.09-8.49-22.09-8.49s3.94,8.43,20.58,14,24,1.12,24,1.12Z"/><path class="cls-35" d="M518.77,277.05c-.54-.35-4.69-4.39-7.48-6.32-4-2.77-3.74-3-7-4.36-5.53-2.36-9.92-1.21-12.39-2s-5.28-4.39-11.12-5.83a110.24,110.24,0,0,0-15.89-1.84c-3.41-.17-7-.72-7.68-.76-.89-.07-1,3,30,13.41S519.51,277.53,518.77,277.05Z"/><path class="cls-5" d="M716.76,539.9s15.16,8.57,19.79,22.92c0,0-14-18.31-22-20.64Z"/><path class="cls-5" d="M900.24,586.5s17.48,5.6,24.69,18.84c0,0-17.18-15.38-25.46-16.2Z"/><path class="cls-35" d="M830,343.36c9.47,0,24.92.7,24.92.7s-3,18.69-24.92,18.68-24.93-18.53-24.93-18.53S820.52,343.35,830,343.36Z"/><path class="cls-36" d="M829.89,343.36c4.5,0,22,1.3,22,1.3s-5.32,8.81-21.6,8.8c-17.64,0-21.11-8.13-21.11-8.13Z"/><path class="cls-37" d="M829.69,344.1c4.5,0,18.2-.83,18.2-.83s-4.93,5.42-18.43,5.41-17.79-5.27-17.79-5.27Z"/><path class="cls-35" d="M805.12,344c.47-.13,4.49-2.14,7-2.91,3.59-1.09,3.45-1.31,6.15-1.54,4.61-.38,7.54,1.62,9.54,1.62s4.93-2,9.54-1.61a82,82,0,0,1,12,2.65c2.52.75,5.31,1.26,5.79,1.38.66.18,0,2.57-25.21,2.56S804.45,344.19,805.12,344Z"/><path class="cls-32" d="M928,444a38.2,38.2,0,0,1,34.15-26.52,34,34,0,0,1,6.91.26,10,10,0,0,1,2.47.53,82.43,82.43,0,0,0-9.3,0C947,419.63,933.06,429.56,928,444"/></g></g></svg>