<svg id="Layer_1" data-name="Layer 1" xmlns="http://www.w3.org/2000/svg" viewBox="0 0 1221.96 991.43"><defs><style>.cls-1{fill:#f2ebd1;}.cls-2{fill:#956243;}.cls-3{fill:#653c2a;}.cls-4{fill:#bb997a;}.cls-5{fill:#c7e4e3;}.cls-6{fill:#a38166;}.cls-7{fill:#87654d;}.cls-8{fill:#5f6161;}.cls-9{fill:#3c803d;}.cls-10{fill:#343535;}.cls-11,.cls-24,.cls-39,.cls-40{fill:none;}.cls-11{stroke:#a38166;}.cls-11,.cls-20,.cls-24,.cls-39,.cls-40,.cls-41{stroke-miterlimit:10;}.cls-11,.cls-41{stroke-width:1.05px;}.cls-12,.cls-26{fill:#fff;}.cls-13{fill:#4d2f15;}.cls-14{fill:#1b120c;}.cls-15{fill:#5e5f5f;}.cls-16{fill:#853324;}.cls-17{fill:#de994d;}.cls-18{fill:#ec9a6f;}.cls-19{fill:#0f3a5b;}.cls-20{fill:#7c471d;stroke:#7c471d;stroke-width:0.79px;}.cls-21{fill:#010101;}.cls-22{fill:#13110f;}.cls-23{fill:#878787;}.cls-24{stroke:#010101;stroke-width:0.95px;}.cls-25{fill:#273339;}.cls-26{opacity:0.14;}.cls-27{fill:#622515;}.cls-28{fill:#a99231;}.cls-29{fill:#24180f;}.cls-30{fill:#653c29;}.cls-31{fill:#2b2927;}.cls-32{fill:#132e38;}.cls-33{fill:#151312;}.cls-34{fill:#946343;}.cls-35{fill:#221f20;}.cls-36{fill:#cc8d2a;}.cls-37{fill:#c8e8eb;}.cls-38{fill:#b7b338;}.cls-39,.cls-40{stroke:#653c2a;}.cls-39{stroke-width:1.02px;}.cls-40{stroke-width:1.01px;}.cls-41{fill:#6d6a2c;stroke:#6d6a2c;}</style></defs><polyline class="cls-1" points="1221.96 991.33 1221.96 0 0 0 0 991.33"/><path class="cls-2" d="M441.39,390.45l12.9-9.45s11.93,1.18,20.44-2.47a72.34,72.34,0,0,0,16.71-11l19.5-7.94s10.29,1.37,10.95-1.81-3-4.72-6.65-6.2-57.65-4.13-57.65-4.13a98,98,0,0,1,13.16-10.43c7.22-4.69,6.55-10.32,3-13.42s-13.95,4.73-15.93,9.31-13.48,5.37-20.1,11.12-8.05,17.62-8.05,17.62c-2.32,2.61-8.73,8.79-8.73,8.79C421,371.17,441.39,390.45,441.39,390.45Z"/><path class="cls-3" d="M499.43,359.74a5.27,5.27,0,0,0-2.69-2.53c-2.94-1.31-7.39-1.1-11.77.37a37.46,37.46,0,0,0-10.22,5.66,16.65,16.65,0,0,0-3.64,3.16,20.43,20.43,0,0,0,4.12-2.4,47.85,47.85,0,0,1,10.13-5.22c4.15-1.41,8.38-1.68,11-.73a5.41,5.41,0,0,1,2.61,2c.45.65.6,1.05.66,1.09S499.78,360.58,499.43,359.74Z"/><path class="cls-3" d="M474.36,357.14c-4.37,0-7.91.21-7.9.55s3.54.66,7.9.69,7.9-.2,7.89-.55S478.73,357.18,474.36,357.14Z"/><path class="cls-3" d="M462,359.1c2.71,3,3.52,6.19,3.85,6.22s0-3.7-2.91-7-6.65-4.1-6.67-3.78S459.31,356.09,462,359.1Z"/><polyline class="cls-4" points="0 991.33 1221.96 991.33 1221.96 921.4 0 921.4"/><rect class="cls-5" x="781.83" y="47.46" width="368.43" height="873.81"/><rect class="cls-4" x="1157.62" y="41.69" width="25.42" height="880.92"/><rect class="cls-4" x="773.06" y="41.69" width="20.69" height="880.92"/><rect class="cls-4" x="773.06" y="36.35" width="409.98" height="21.8"/><polygon class="cls-6" points="941.42 29.45 1162.88 59.22 1162.88 922.61 941.42 954.82 941.42 29.45"/><rect class="cls-7" x="917.57" y="29.42" width="23.85" height="924.62"/><path class="cls-8" d="M977.66,490h38.26c2.53,0,4.58,3.08,4.58,6.88h0c0,3.81-2,6.89-4.58,6.89H977.66c-2.53,0-4.58-3.08-4.58-6.89h0C973.08,493.1,975.13,490,977.66,490Z"/><path class="cls-8" d="M977.58,505.12a7.92,7.92,0,0,1-.85-.05,5.53,5.53,0,0,1-4.39-3,10.89,10.89,0,0,1-1-3.78,12.71,12.71,0,0,1,.28-4.57,6.16,6.16,0,0,1,4.41-4.35c.43-.14,5.68-.85,5.68-.45V464.17c0-7.16-4-13-9-13h0c-5,0-9,5.81-9,13v89.38c0,7.16,4,13,9,13h0c5,0,9-5.81,9-13V511.19c0-2.09,0-4.18,0-6.27C980.36,504.91,979,505.15,977.58,505.12Zm-2.73,37v5.06c0,1.1-.61,2-1.37,2s-1.36-.9-1.36-2v-5.06a4.83,4.83,0,0,1-1.76-4.08c0-2.42,1.42-4.34,3.1-4.29s3,2.06,3,4.48A5,5,0,0,1,974.85,542.08Z"/><rect class="cls-9" x="793.76" y="838.09" width="123.82" height="82.63"/><rect class="cls-8" x="925.41" y="459.7" width="9.27" height="94.68"/><path class="cls-10" d="M974.85,542.08v5.06c0,1.1-.61,2-1.37,2s-1.36-.9-1.36-2v-5.06a4.83,4.83,0,0,1-1.76-4.08c0-2.42,1.42-4.34,3.1-4.29s3,2.06,3,4.48A5,5,0,0,1,974.85,542.08Z"/><line class="cls-11" x1="773.06" y1="36.35" x2="793.76" y2="58.15"/><line class="cls-11" x1="1183.04" y1="36.35" x2="1162.52" y2="59.51"/><path class="cls-12" d="M879.23,151.21c-4.57-3.88-10.5-3.79-15.26.21-.47.4-1,.77-1.56,1.25-.41-14.08-12.72-23-24-15.6-.23-.93-.44-1.81-.65-2.69-3-12.13-14.62-18.36-24.39-12.93-1.74,1-2.56.63-3.84-.89a27.65,27.65,0,0,0-15.79-9.77v67.48h27.53c16.8,0,33.59,0,50.39,0,5.82,0,10.62-4.22,12.29-10.51S883.73,155,879.23,151.21Z"/><path class="cls-12" d="M917.56,284.62c-13.68,0-29.48,0-43.16,0-5.83,0-10.63-4.22-12.3-10.51s.25-12.71,4.74-16.53,10.5-3.8,15.26.21c.47.4.95.77,1.56,1.25.41-14.08,12.73-23,24-15.6.22-.93.43-1.82.65-2.7A20.16,20.16,0,0,1,917,228.2"/><path class="cls-9" d="M793.76,823.17a1019.3,1019.3,0,0,1,123.8-9.25v33.46H793.76Z"/><path class="cls-2" d="M284.38,889.64l38.68,20.08c2.86,2.4-35.7,23.9-74-10.09l4.29-10.44Z"/><path class="cls-13" d="M351.13,926.54s2-5.16-2-6.74-25.75-12.11-27.95-11.7c0,1.56-2,3.62-6.62,5s-9.86,3.19-21.82.9c-9-1.72-27.41-4.84-35.52-9.57-2.71-1.58-6.63-6.88-6.8-7.66-9.45,10.78-6.61,22.23-2.3,25.05s29.78,4.71,29.78,4.71l22.55,5.37,21.27,1,8.95-.2,10.73-1.58Z"/><path class="cls-14" d="M247,920.75c2.78,1,11.67,2.45,19.28,2.61,20.44.41,27.3,3,34.23,5.13a85.85,85.85,0,0,0,12.13,3c23.86,4,37.8-4.61,38.29-5a2.3,2.3,0,0,1,.64,1.16,18.92,18.92,0,0,1-4.93,3.24c-6.74,3-16.36,6.5-34.84,3.74-5.24-.78-8.39-1.16-11.85-2.21a85.93,85.93,0,0,0-22-4l0,3.46s-21.69.81-31.47-3.41C245.78,923.15,247,920.75,247,920.75Z"/><path class="cls-14" d="M246.26,925.37c13,3.36,27.15,3.45,31.65,3.48l0,3s-21.69.81-31.47-3.41A26.92,26.92,0,0,1,246.26,925.37Z"/><g id="freepik--character-1--inject-1332"><path class="cls-2" d="M184.78,846.74s3.23,45.39,3,48l21.79,6.12,9.3-5.54,9.4-48.67Z"/></g><path class="cls-2" d="M219,893.24l38.68,20.08c2.86,2.4-35.7,23.9-74-10.08L188,892.79Z"/><path class="cls-13" d="M285.73,930.14s2-5.16-2-6.74-25.75-12.11-27.94-11.7c0,1.56-2,3.62-6.63,5s-9.85,3.18-21.82.89c-9-1.72-27.41-4.84-35.51-9.57-2.71-1.57-6.64-6.88-6.81-7.66-9.45,10.78-6.61,22.23-2.3,25.06s29.78,4.7,29.78,4.7L235,935.52l21.27,1,9-.2L276,934.74Z"/><path class="cls-14" d="M181.58,924.35c2.77,1,11.66,2.46,19.27,2.61,20.45.41,27.3,3,34.23,5.13a85.85,85.85,0,0,0,12.13,3c23.86,4,37.8-4.61,38.29-5a2.3,2.3,0,0,1,.64,1.16,18.62,18.62,0,0,1-4.93,3.25c-6.73,3-16.36,6.49-34.84,3.73-5.24-.78-8.39-1.16-11.85-2.21a85.93,85.93,0,0,0-22-4l0,3.47s-21.69.81-31.47-3.42C180.38,926.75,181.58,924.35,181.58,924.35Z"/><path class="cls-14" d="M180.86,929c13,3.35,27.16,3.44,31.65,3.47l0,3s-21.69.81-31.47-3.42A26.91,26.91,0,0,1,180.86,929Z"/><path class="cls-2" d="M249.14,865.75s4.09,24.38,3.89,27l7.19.86h26.9l4.59-26.1Z"/><path class="cls-8" d="M255.08,474.81l-38.21,1.74c-2.53.12-4.44,3.29-4.27,7.09h0c.18,3.8,2.37,6.79,4.89,6.67l38.21-1.74c2.53-.11,4.44-3.29,4.27-7.09h0C259.79,477.68,257.61,474.7,255.08,474.81Z"/><path class="cls-8" d="M251.68,489.89c.07,2.09.17,4.17.27,6.26l1.19,26.08.74,16.24c.32,7.15,4.6,12.77,9.55,12.54h0c4.95-.22,8.7-6.21,8.38-13.36l-4.07-89.29c-.32-7.15-4.6-12.77-9.55-12.54h0c-4.95.22-8.7,6.21-8.38,13.36l1.13,24.69c0-.39,5.26.08,5.69.19a6.21,6.21,0,0,1,4.61,4.15,12.8,12.8,0,0,1,.48,4.55,10.7,10.7,0,0,1-.78,3.82,5.51,5.51,0,0,1-4.25,3.22,8,8,0,0,1-.84.1C254.47,490,253.07,489.81,251.68,489.89Zm6.83,33c-.15-2.42,1.09-4.48,2.76-4.61s3.14,1.72,3.29,4.14a4.8,4.8,0,0,1-1.58,4.15l.23,5.07c.05,1.08-.51,2-1.26,2s-1.42-.83-1.47-1.93l-.23-5.06A5,5,0,0,1,258.51,522.88Z"/><rect class="cls-8" x="294.23" y="439.66" width="9.27" height="94.68" transform="matrix(-0.99, 0.15, -0.15, -0.99, 666.94, 924.04)"/><path class="cls-10" d="M259.77,528.32l.76,5c.16,1.09.9,1.88,1.66,1.76s1.2-1.09,1-2.17l-.75-5a4.82,4.82,0,0,0,1.13-4.29c-.39-2.39-2.05-4.08-3.7-3.78s-2.67,2.48-2.27,4.87A5,5,0,0,0,259.77,528.32Z"/><path class="cls-15" d="M192,124.47c3.63-5.24,9.33-8.77,15.43-7.2-.39-11.88,11-19,22.92-19.47,6.11,0,12.41,2.73,18.15.65,3.58-1.3,6.26-4.14,9.31-6.52,12.76-9.68,33.08,1.18,44.11,12.79s8.47,24.73,3.06,39.79c-2.52,7-2.06,10.79-2.77,18.25-.68,7-4.79,20.16-4.8,27.14s11,14.17,3.94,14.8l-76.81-8.22c-11.38,2.37-18.7-1-24.64-11-3.87-6.79-2.61-7.12-3.19-14.89-1-10.16-11.43-17.71-10.93-27.91C185.91,136.28,188.71,130,192,124.47Z"/><path class="cls-16" d="M182.49,124.15s26.39-13.43,60.65-10,51.19,24.22,57.33,39.2-.07,30.85-.07,30.85,8.58,2.23,13.94-28.62c7.82-45-38.34-71.57-49.4-71.3S197.16,73.7,182.49,124.15Z"/><path class="cls-2" d="M212.76,202.31s-1,27.07-8.08,46C203.7,251,187,261.17,187,261.17l24.76,8.08c13.91,3.09,49.5,16.41,62.87,11.49l7.21-17.29s-14.79-7.09-15.51-10.33,1.6-27.91,1.6-27.91"/><path class="cls-17" d="M342.33,327.05l37.08,99.08c6.29,13.36,9.49,27.06-4,33L362.71,461c-12.26,5.36-13.53,9.11-20.18-2.5L286.37,353.86Z"/><path class="cls-17" d="M322.61,432.4a25.48,25.48,0,0,0-1.68,8.13Z"/><path class="cls-17" d="M359.54,401.69c.29.51-.61.7-1.1,1.1a25.59,25.59,0,0,0-7.47,9.74c-3,7.1-2.87,15.5-1.19,23.8,1.06,5.25-10.24,19.06-7.86,23.94,7.3,13.65,27.77,10.91,37.38-.53l71.63-65.51L422.46,359.7Z"/><g id="freepik--character-2--inject-1332"><path class="cls-18" d="M208,297.37a26.52,26.52,0,0,0-3-2.69,14.58,14.58,0,0,1-5.17-7.7c-.35-1.79-.24-3.63-.62-5.32a5.64,5.64,0,0,0-2.39-3.84,3.47,3.47,0,0,0-3-.36c-.7.29-.91.68-.89.71a4.37,4.37,0,0,1,1-.4,3.4,3.4,0,0,1,2.61.55,5.36,5.36,0,0,1,1.91,3.5c.31,1.56.19,3.39.55,5.32A11.55,11.55,0,0,0,201.4,292a21.25,21.25,0,0,0,3.23,3.06A16.25,16.25,0,0,0,208,297.37Z"/><path class="cls-18" d="M217.24,289.93a42.36,42.36,0,0,0-4.36-3.15,25.29,25.29,0,0,1-8.52-9.3,14,14,0,0,1-1.11-3.39,23.7,23.7,0,0,1-.29-3.37,7.28,7.28,0,0,0-2.05-5.54,3.22,3.22,0,0,0-2.31-.79,3.11,3.11,0,0,0-1.69.57c-.81.64-.8,1.3-.78,1.28a2.28,2.28,0,0,1,1-1,2.88,2.88,0,0,1,3.36.38,6.86,6.86,0,0,1,1.67,5.12,23.87,23.87,0,0,0,.26,3.48,13.64,13.64,0,0,0,1.17,3.63,23.89,23.89,0,0,0,8.91,9.42c1.42.9,2.58,1.58,3.41,2A4.64,4.64,0,0,0,217.24,289.93Z"/></g><path class="cls-19" d="M314.9,875.73l27-294-14.57-88.06H148.49L130,578.39l36.95,301.17s57.38,3.76,78.63,3.76S314.9,875.73,314.9,875.73Z"/><path class="cls-17" d="M346.59,490.63c-4.74-35.28-5.82-35.76-5.82-35.76l-3.35-16.69L334,377c3.11-16,9.07-27.71,5-34.13l-31.45-67.44-32.38-16.5c1.34,2.39,10.73,14.33-13.36,20.76l-5.94.1c-31.1-1.26-55.16-31.75-55.16-31.75l-26.83,11.87L154.61,413.76s-26.19,65.78-27.4,95.22c-1.48,36.15-.54,72.47-.09,108.63,0,3.45,48.81,8.7,53.75,9.19a392.38,392.38,0,0,0,55.91,1.53c36.64-1.61,72-10.17,107.62-17.4C344.4,610.93,351.33,525.91,346.59,490.63Z"/><path class="cls-2" d="M149.55,435.32c-4.74-.23-13.75-2.19-18.5-2.34-10.24-.32-17.72-2.91-28-2.6L136,530.92l23.13-8.62Z"/><path class="cls-17" d="M276.22,259.5s41.22,9.8,47.77,23.75c10,21.18,18.64,44.49,18.64,44.49l-24.58,17.87Z"/><path class="cls-20" d="M344.23,356.22c-.91-5.34-3.2-10.46-5.21-15.46q-3.33-8.31-7.38-16.31c-5.57-11.06-12-21.67-18.61-32.11-3.19-5-.35-.64-3.6-5.62,5.4,9.52,4.23,9.95,9.87,19.34,5.79,9.62,11.31,19,15.74,29.32,5.21,12.16,8.42,17.44,7.15,28.4s-10.33,25.42-10.33,25.42l1.17.73S346,366.64,344.23,356.22Z"/><path class="cls-3" d="M266.3,246.31s-5.72-.91-9.67-2-10.69-.83-28.91-16.51c0,0,5.41,19.34,28.6,23.4,0,0,6,1.23,9.93.26Z"/><path class="cls-2" d="M286.21,128.49l.25.2a2.38,2.38,0,0,1-.23-.41Zm9.76,2.8c.14.15.29.3.44.44l0-.18S296,131.08,296,131.29Zm-70.69,94.29c8.55,10.22,22.23,21.39,36.94,22,5.27.2,10.56-2.15,14.45-5.27,5.9-4.73,12.11-9.55,16.67-15.31A45.11,45.11,0,0,0,302,211.29c2.34-6.88,2.47-8.73,2.24-15.8a70.2,70.2,0,0,1,.5-10.91c.54-3.45,3.16-17,4.08-25s-4.25-23.67-4.25-23.67c-.29-2.21-3.37-1.31-4.41-3.15l-.94-.08a1,1,0,0,1,.4.91,7.37,7.37,0,0,1-3.18-1.84v0c-1.48.53-2.84-.24-3.93-1.43,0,.22.18.67.42.69a4.73,4.73,0,0,1-3.67-1.62c0,.21.18.67.16.88a8.47,8.47,0,0,1-2.93-1.6c.19.31,5.6-.07,5.59.08-1.44.1.14.71-.95-.48l-1.1-.9c-1.2.11-1.22.83-2.09-.12.22.24-.45-2.45-.47-2.23-1.42-.12-1-.18-2.15-.93,0,.21-4,1.08-4,1.29-1.18-.1-1,1-1.84.07.22.23.94-.84,1.15-.6-1.43.09-2.05,1-3.13-.23.21.24-4.48-2.78-4.48-2.78-1.43.1-1.23.56-2.34-.4.44.47-6.51-1-6.31-.51-1.18-.1,1.89,4.52,1,3.79,0,.22-2.67-.88-2.67-.88-1.2.11.48,1.35-.39.4,0,.22.16.89.4.91a4.88,4.88,0,0,1-4.44-1c.44.48.64.93.86,1.17-1.19-.1-2.15,0-3.26-.93,0,.21.4.9.64.93a4.73,4.73,0,0,1-3.75-.76c0,.21.42.69.63.93a3.38,3.38,0,0,1-2.79-.68l.63.93c-.94-.08-1.69.29-3.07-.26,0,.21.44.47.42.69a8.67,8.67,0,0,1-2.35-.42c0,.22.65.71.42.69-1-.08-1.7.29-2.84-.24.22.23.42.69.64.93a6.54,6.54,0,0,1-2.82-.46,1.61,1.61,0,0,0,.4.91c-.95-.09-1.7.29-2.84-.25,0,.22.42.69.63.93A12.21,12.21,0,0,1,237,128c0,.21.43.47.65.71a7.6,7.6,0,0,1-3.06-.48c0,.43.18.67.17.89-.71-.06-1.17-.32-1.88-.38l-1.22.33c-3.68,4.06-15.8-.51-15.8-.51-7.83,5.24-.57,36.05-.68,40.2s-2.56,5.09-2.56,5.09c-1.05-1.62-2.88,2.75-3.44,1-.58-1.58.06-3.49-.52-5.07-1.83-3.66-6.65-3-9.44-1l-.49.68c-4,4.6-1.38,20.18.92,24.93,0,9.3,7.73,14.82,12.85,8.53l1,3.71"/><path class="cls-21" d="M275,206.26a6.81,6.81,0,0,1-6.12-.92c-.37-.27-1.69-.15-1.17.23a9.55,9.55,0,0,0,8.35,1.11c.23-.1.2-.27-.07-.39a1.47,1.47,0,0,0-1,0"/><path class="cls-21" d="M267,205a10.87,10.87,0,0,0-3.71-1.26.88.88,0,0,0-.6.13c-.12.09-.15.22,0,.31a4.21,4.21,0,0,0,2,.66.81.81,0,0,0,.66-.2c.13-.16-.07-.3-.25-.31a3.42,3.42,0,0,1-1.65-.53c-.2.15-.4.3-.61.44a9.72,9.72,0,0,1,3.32,1.15.82.82,0,0,0,.7,0c.15-.07.31-.25.11-.37"/><path class="cls-21" d="M261.77,204.73a5.32,5.32,0,0,1-3.93-2.2c-1-1.83.3-4.49,2.31-5.43.22-.1.13-.27-.08-.33a1.27,1.27,0,0,0-.84.1,5.31,5.31,0,0,0-2.91,4.63c.11,1.54,1.48,2.73,3.28,3.33a8.52,8.52,0,0,0,1.68.37c.23,0,.66,0,.78-.17s-.07-.28-.29-.3"/><path class="cls-21" d="M277.87,205.72a.2.2,0,0,1,.22-.27,1.74,1.74,0,0,0,1.22-.29l.37.53a5.43,5.43,0,0,0-2.48.65.43.43,0,0,1-.48-.12c-.09-.09-.18-.29,0-.38"/><path class="cls-21" d="M276.69,205.84a6,6,0,0,1,2.77-.71.5.5,0,0,1,.4.22.21.21,0,0,1,0,.31"/><path class="cls-21" d="M281,206.2a3.15,3.15,0,0,0,2.82-1.62,4.46,4.46,0,0,0-.78-5,.19.19,0,0,1,.11-.32.59.59,0,0,1,.51.22,5,5,0,0,1,1.27,4.29,3.52,3.52,0,0,1-2.55,2.83,4,4,0,0,1-1.13.14c-.15,0-.42-.1-.48-.29s.09-.26.23-.25"/><path class="cls-22" d="M293.69,177.42a3.28,3.28,0,0,1,4.52,2.62,3.42,3.42,0,0,1-1.08,3,3.18,3.18,0,0,1-3.7.33,3.54,3.54,0,0,1-1.38-4.23,3.18,3.18,0,0,1,1.64-1.76"/><path class="cls-22" d="M281.6,180.79s6.82-4.48,10.11-4.52c4.81-.07,10.46,3.07,11.94,5.58,0,0-7.43-4.61-10.82-4.47C289.59,177.52,281.6,180.79,281.6,180.79Z"/><path class="cls-22" d="M253.87,174.51a4.45,4.45,0,0,0-4.3-.1,3.36,3.36,0,0,0-1.14,1.47,3.45,3.45,0,0,0,.55,3.18,3.19,3.19,0,0,0,3.59.95,3.53,3.53,0,0,0,2.07-3.94c0-.26.25-.73-.76-1.37"/><path class="cls-22" d="M261.86,178.73s-6.82-5.21-10.36-5.61c-5.17-.6-11.61,1.91-13.5,4.24,0,0,8.54-3.77,12.16-3.25C253.63,174.6,261.86,178.73,261.86,178.73Z"/><path class="cls-23" d="M286,159.38c-.36.9-.71,1.8-1.07,2.71l-.81,2.07c2.54.33,4.66.74,6.25,1.08,3.35.73,5.06,1.11,6.77,2.15a18.82,18.82,0,0,1,3.65,3,12,12,0,0,1,1.74,2c1.1,1.74,1.23,3.25,1.53,3.24s.33-1.27.34-1.4a11.32,11.32,0,0,0-1.48-5.88,13.38,13.38,0,0,0-3.47-3.64c-1.62-1.18-6.49-3.51-13.45-5.35"/><path class="cls-23" d="M263.56,156.85c.17,1,.33,1.92.49,2.88.13.73.25,1.46.37,2.19-2.77-.15-5.11-.16-6.87-.12-3.72.08-5.63.13-7.68.83a21.15,21.15,0,0,0-4.57,2.24,13.18,13.18,0,0,0-2.32,1.68c-1.58,1.5-2.08,3-2.39,2.9s-.05-1.31,0-1.44a11.49,11.49,0,0,1,3-5.52,15,15,0,0,1,4.53-2.92c2-.85,7.7-2.22,15.51-2.72"/><path class="cls-24" d="M210.05,186.93c-5-12.47-8.7-12.64-8.7-12.64s-2.58,2.8-1.46,8.57"/><path class="cls-24" d="M208.1,188c-3.34-.41-.91,5.9-1.87,7.35s-2.09-2.49-2.4-7.21c0,0,.14-6.36,3.33-7.45"/><path class="cls-3" d="M259.59,147s8.08,4.25,16.36,4.2,18.5-1.16,18.5-1.16"/><path class="cls-20" d="M340.36,375.17s-9.75,14.89-10.79,20.92,12.13,68,12.13,68l2.48,2S331.25,409,331.76,397.64,340.36,375.17,340.36,375.17Z"/><path class="cls-23" d="M300.11,126.26c-.1-.15.05.06,0,0-2-2.91-3.32-6-5.48-8.82s-4.2-5.26-6.47-7.9c-.13-.15-2.84-.24-3-.4L285,109l-.22-.25c-.16-.19-.34-.37-.51-.56a62.17,62.17,0,0,0-42.37-2.38A51.53,51.53,0,0,0,207.37,170c.7,2.34-.71,5.15,1.56,6.48s2.55.68,4.73-.81a17.18,17.18,0,0,0,4.88-6.08c6-11.21,7.54-29.1,4.94-41.54,1.5,2.36,12,0,14.31,1.54A20,20,0,0,0,265.48,124a31.08,31.08,0,0,0,3.14,3.91c10.55,11.12,24.38,16.57,36,8.84C305.06,136.47,301.39,128.11,300.11,126.26Z"/><path class="cls-25" d="M234.78,171.46l1.15,4.5a63.7,63.7,0,0,0,3.73,12.36c1.46,2.7,19.54,5,23.26,3.18s6.46-12.06,7.58-14.4l7.24.93c.42,3.16,2,13.18,3.25,14.61s9.63,1.79,10.57,1.83c.78,0,1.87.06,3.07.05,3.16,0,7-.26,8.28-1.34,1.87-1.6,4.26-8.06,6.35-14.19l.35-1c.07-.24.16-.4.16-.46h0l.38-1.11c-10.09-5.74-23.87-5.9-32.65-.38l.06.11-7.05-.94c-7.61-5.89-21.23-9.78-31.41-6.65h0L208,171.51l-.29,2.72Zm47.14,20.23c-.8-.89-2.1-7.92-2.93-13.38,7.61-4.65,20-4.49,29.09.11v.14c-1.13,3.28-4.12,12-6,13.59-2.17,1.86-18.78.95-20.19-.43Zm-40.05-3.95A93.91,93.91,0,0,1,237,171.67c9.1-3.37,24.26,0,31.71,5.58-1.56,4.25-3.69,11.72-6.36,13-3.83,1.88-19.57-.83-20.48-2.53Z"/><path class="cls-26" d="M282.11,191.56c-.81-.89-2.11-7.92-2.94-13.38,7.62-4.65,20-4.48,29.1.11l0,.14c-1.12,3.28-4.11,12-5.95,13.59-2.18,1.86-18.78,1-20.2-.43Z"/><path class="cls-26" d="M241.87,187.74A93.91,93.91,0,0,1,237,171.67c9.1-3.37,24.26,0,31.71,5.58-1.56,4.25-3.69,11.72-6.36,13-3.83,1.88-19.57-.83-20.48-2.53Z"/><path class="cls-27" d="M193.89,175.1s-25.84-18.74-16-38.86c1.89-3.86,2.1-2.59,2.21-5.93.58-17.5-5.54-13.33,20.1-33.79s29.4-20.12,68.53-17.2c20.18,1.5,31.22,9.94,36.74,22.72a62.14,62.14,0,0,1,4.4,19.65s-41.23-11.76-65.79,1.48S193.76,179.52,199,193.34C200.47,197.22,193.89,175.1,193.89,175.1Z"/><path class="cls-16" d="M178,156s35-51,81.64-52.53c0,0-57.62-6.17-83.12,35l-.38,4.84a26.56,26.56,0,0,0,.84,9Z"/><path class="cls-20" d="M368.73,396.61s-9.06,7.66-10.73,18a20.53,20.53,0,0,1,10.16-19.35Z"/><polyline class="cls-28" points="168.34 504.83 163.64 507.15 163.54 508.11 168.75 505.71 168.34 504.83"/><path class="cls-17" d="M91.35,407.64l68.76,22.41,13.48-85.31,11.55-89S143.06,267,129.88,291.82s-40.3,97.23-39,112.17C91,405.22,91.18,406.43,91.35,407.64Z"/><path class="cls-17" d="M151.12,422.37l.32-.3L96,382.88c-27.23,58.8,26.52,138,26.52,138l43.15-14.61Z"/><path class="cls-20" d="M190.76,300.77c1.67,10.52-36.09,101.19-41.17,113.71.62,0,1.16,2.07,1.78,2.1,3.85-9.8,36.46-91.32,40.82-107.51,4.69-17.42-13.13-34.95-13.13-34.95C191.1,291.72,190.76,300.77,190.76,300.77Z"/><path class="cls-20" d="M151.71,416c-.72-.47-1.42-1-2.12-1.45l17.31,91.73,1.43-1.43Z"/><path class="cls-2" d="M179,590.16a129.07,129.07,0,0,0-15-10.95l-6-13.89,2.17-7.25,4.63-.32s2.09,18.47,6.08,21.41,6,2.84,6,2.84l3-4.41-6.39-27.08s-5-11.42-6.6-14a57.85,57.85,0,0,0-6.57-7l-1.71-13.61L132.15,519c1.2,3.7,2.46,10,4.13,14.18l-.73,29.25,8.67,12.11L155,585.14l25.35,11.13S183.83,594.75,179,590.16Z"/><path class="cls-3" d="M271.25,157.61a3.69,3.69,0,0,1,1.62,4.8,4.29,4.29,0,0,1-4.72,2.53s3.07-2.14,3.6-4.31S271.25,157.61,271.25,157.61Z"/><path class="cls-3" d="M278.8,158.7a3.69,3.69,0,0,0-2.91,4.14,4.3,4.3,0,0,0,3.81,3.77s-2.34-2.92-2.23-5.16S278.8,158.7,278.8,158.7Z"/><path class="cls-29" d="M271.62,214.29c-6.06-.63-19.85,2-22.8,4.19,0,0,6.39,5.85,20.45,7.31s16.91-3.44,16.91-3.44S279.34,215.09,271.62,214.29Z"/><path class="cls-12" d="M254.82,216.28s7.28.13,13,.72,12.89,2,12.89,2,1.4-4.5-9-5.58S254.82,216.28,254.82,216.28Z"/><path class="cls-30" d="M269.49,223.75c-6.48-1.68-12.94-5-20.67-5.27,0,0,1.18,9.65,17.71,11.36s19.65-7.49,19.65-7.49C278.56,221,276.17,223.43,269.49,223.75Z"/><path class="cls-30" d="M279.17,211.52c-3.44-.63-5.79.55-7.3.39s-3.56-1.79-7.06-1.87c-3.28-.08-17.91,7-16.49,8.27s12.73-3.88,23.18-2.8,13.55,7.72,15.2,6.77S282.4,212.11,279.17,211.52Z"/><path class="cls-2" d="M685.89,493.13S657,597.73,659.78,704.35C666.67,777.78,689.06,892,689.06,892l23.87,3.27s7-103.39,6.76-195.11c4.63-73.33,14.63-117.54,14.63-117.54L731.1,477.32Z"/><path class="cls-2" d="M736,503s-31.86,103.77-32,210.43c2,30.93,6.59,69.15,11.2,103.05,6.35,46.75,12.79,85.31,12.79,85.31l23.77,3.91s9.94-121.55,14.71-199.55c6.68-73.17,15.46-112.4,15.46-112.4l-.25-105.34Z"/><path class="cls-2" d="M717.55,900.48S672.06,926,661.2,926.06A14.86,14.86,0,0,1,647,916.74s23.63-16.35,38.28-20.85c5.11-1.58-2.3-46.31-2.3-46.31l31.16,3.16-1.68,40.63Z"/><path class="cls-31" d="M631.44,928.12s-2.67-4.63.77-6.24,14.13-5.83,16.11-5.71c-1.28.57-2.36,1.69,1.92,2.36a57.28,57.28,0,0,0,23.9-1.27c7.78-2.18,25-9.21,31.69-13.66,2.24-1.48,7-6.34,11.78-5.41,2.66,2.92,5.72,15.86,2.18,18.47s-25.93,6.44-25.93,6.44l-19.45,6.3-18.75,2.76-8,.68L640,931.16Z"/><path class="cls-14" d="M720.66,915.7c-2.36,1-10.1,3-16.83,3.83-18.08,2.22-23.9,4.9-29.83,7.19a82,82,0,0,1-10.45,3.48c-20.74,5.38-32.21-3.28-32.68-3.52a1.79,1.79,0,0,0-.45,1,48.37,48.37,0,0,0,4.45,2.72c4.16,2.19,13.64,6.11,29.75,2.24a79.3,79.3,0,0,0,10.28-2.83,85.06,85.06,0,0,1,19.11-5.2l.31,2.72s19.31-1.38,27.55-5.59C722,917.47,720.66,915.7,720.66,915.7Z"/><path class="cls-14" d="M721.76,919.26c-11.2,3.83-23.73,5.21-27.71,5.65l.27,2.39s19.31-1.38,27.55-5.59A18,18,0,0,0,721.76,919.26Z"/><path class="cls-2" d="M756.41,908s-46.2,24.27-57.06,24-14-8.91-14-8.91,24.21-16.49,39-20.6c5.14-1.43-1-46.36-1-46.36l31.06,4-2.83,40.57Z"/><path class="cls-31" d="M669.55,933.3s-2.54-4.69,1-6.21,13.89-5.18,15.87-5c.09,1.23-2,1.36,2.24,2.15a57.23,57.23,0,0,0,23.93-.63c7.84-2,25.23-8.53,32.06-12.79,2.28-1.43,7.14-6.15,11.93-5.09,2.58,3,5.27,16,1.66,18.52s-26.1,5.74-26.1,5.74l-19.62,5.77L693.65,938l-8,.46L678,936.58Z"/><path class="cls-14" d="M759.08,923.3c-2.38,1-10.17,2.73-16.93,3.38-18.13,1.73-24,4.25-30,6.38a83.86,83.86,0,0,1-10.55,3.19c-20.88,4.82-32.11-4.15-32.57-4.4a1.83,1.83,0,0,0-.48,1,47.49,47.49,0,0,0,4.38,2.83c4.09,2.31,13.46,6.49,29.67,3.05a79.3,79.3,0,0,0,10.35-2.55,85,85,0,0,1,19.26-4.68l.23,2.72s19.34-.85,27.7-4.84C760.34,925.11,759.08,923.3,759.08,923.3Z"/><path class="cls-14" d="M760.08,926.89c-11.3,3.53-23.86,4.57-27.86,4.9l.21,2.39s19.34-.85,27.7-4.84A16,16,0,0,0,760.08,926.89Z"/><path class="cls-32" d="M645.13,496.94s31.77,20.77,69.4,15.61,71.83-18.22,71.83-18.22,27.21,14,4.76,126.84c-9.26,46.52-16.76,221.31-16.76,221.31s-4.73,16-63.46,12.14-52.15-6.79-52.15-6.79S638.4,642.5,636.06,613.73s2.51-96.51,2.51-96.51"/><path class="cls-2" d="M694.75,320.46c.52-1.65.4-18.92.4-18.92l26.38,4,18.07-.75s2.43,12.71,3,14.35,18.6,8.65,18.6,8.65-11.67,22.44-45.93,22.44-37.87-21.6-37.87-21.6S694.22,322.1,694.75,320.46Z"/><path class="cls-33" d="M791,276.48c-2.72-1.38-5.49-3.2-6.92-6a14.76,14.76,0,0,1-1.37-6.31,3.91,3.91,0,0,1-.59-.87c-2.4-4.87.85-11.5-2.55-15.77-3.11-3.89-10.32-2.61-13.28-6.61-2.31-3.12-.71-6.42-1.86-9.3s-5.86-4.86-8.89-4l-18.89,37.9c-.48,11.84-1.86,18.25,1.75,24.69,2.21,3.34-2.38,6.91-1,10.64,1.13,3.83.8,8.4-2.1,11.19,14.62-1,34.34-7.88,45.74-16.89l3.21-2.57c-5.65-2-10.89-10.94-10.89-10.94,3,3.36,8.48,8,12.48,9.58a15,15,0,0,0,1.91-1.08c2.52-.87,8.62-6.93,12.36-10.84A26.93,26.93,0,0,1,791,276.48Z"/><path class="cls-33" d="M675.4,212.38A26.57,26.57,0,0,0,668,217a25.34,25.34,0,0,0-1.94,1.94,30.45,30.45,0,0,0-8.37,28.71c1.2,4.89,3.59,10.33.73,14.59s-9.6,5-12.26,9.34c-3.15,5.07,1.2,11.34.73,17.18-.66,5.65-5.65,10-11.77,10.32a51.57,51.57,0,0,0,25.47,6.28l5.38-8.89a7.89,7.89,0,0,0,2.15,10A20.2,20.2,0,0,0,679,310.58c8.94.57,28.25-4.9,52.29-15.52l-47.94-85.29"/><path class="cls-33" d="M776.2,234.77c-1.77-3.3-4.34-6.24-5.73-9.69-3-7.42-.39-16.62-5.51-23-3.64-4.53-10.09-6.08-16.09-6.94s-12.39-1.37-17.29-4.69c-3.61-2.42-6-6.13-9.63-8.57-5.12-3.51-11.92-4-18.23-3.45a40,40,0,0,0-18.41,5.47,19.2,19.2,0,0,0-9.43,15.15c0,3,.84,5.93.31,8.83-.58,3.21-2.78,6-3.92,9a15,15,0,0,0,7.1,17.85l52.72,46.89c9.8,2,31.62-5.11,37.77-12.51S780.63,243.11,776.2,234.77Z"/><path class="cls-34" d="M695.71,282.5s1.37,34.71.86,38.09l2.17,4.64-4.38,3.84c14.49,11.7,18,11.89,35.85,6.07l20.53-10.9s-6-5.49-7.14-8.15c-4.91-11,3.66-36.53,3.66-36.53"/><path class="cls-2" d="M762.63,253.48l-.37-.63c-2.28-2-6.51-3-8.5,0-.67,1.32-1.69,2.81-2.36,4.13-.67,1.52-1.69,4.57-2.79,5.88,0,0-7-15.57-6.73-19.2s12.42-11.46,6-16.8c0,0-6.73-6.91-9.94-11q-1.08-.6-2.19-1.14a6.7,6.7,0,0,1-1.15.11c0-.15.14-.3.2-.55l-.26-.12a8.23,8.23,0,0,1-2.47,0c.21-.18.64-.36.65-.55a11.46,11.46,0,0,1-2.55-.07c.22-.18.65-.56.66-.75-1.07.36-1.7,0-2.55-.06a1.34,1.34,0,0,0,.44-.76,5.66,5.66,0,0,1-2.55.13c.22-.18.44-.56.66-.75-1.07.36-1.7,0-2.55-.06-.2,0,.35-.33.42-.53l-.08,0a8.21,8.21,0,0,1-2,.12c0-.17.32-.33.41-.49l-.14,0a7.57,7.57,0,0,1-2.59-.11l.31-.35-.38-.07a3.35,3.35,0,0,1-1.83,0l.27-.25-.73-.1a3.87,3.87,0,0,1-2.29-.11c.07,0,.17-.06.27-.15l-.82-.1a8.92,8.92,0,0,1-1.79,0,.8.8,0,0,0,.16-.16l-1.09-.08a3.59,3.59,0,0,1-2-.12c-1.32-.07-2.63-.1-3.93-.11-9.79-.07-20.58.55-28.12,7.41a92.7,92.7,0,0,0-6.36,15c-3.09,9.22-3.53,24-3.4,27,.12,2.66-1.68,7.75-2.08,10.5-2.18,14.9,9.29,30.44,20.91,39.05,4.64,3.43,8.74,2.29,13.44,1.79,9.58-1,24.1-6.35,32.72-14.44l12.3-10.48,1.24-3.14c1.81,6,10.23,2.4,11.16-5.71C764.5,268.63,765.77,257.89,762.63,253.48Z"/><path class="cls-21" d="M688.79,275.73a5.64,5.64,0,0,0,4.89-.12c.31-.17,1.34,0,.89.28a7.93,7.93,0,0,1-6.65.06c-.17-.1-.14-.22.09-.29a1.28,1.28,0,0,1,.78.07"/><path class="cls-21" d="M695.19,275.53a9.08,9.08,0,0,1,3-.6.81.81,0,0,1,.46.15c.08.08.1.18,0,.24a3.46,3.46,0,0,1-1.66.3.66.66,0,0,1-.51-.21c-.08-.13.09-.21.23-.21a2.65,2.65,0,0,0,1.34-.24l.44.39a7.75,7.75,0,0,0-2.71.55.71.71,0,0,1-.55-.08c-.11-.07-.22-.22,0-.29"/><path class="cls-21" d="M699.31,275.8a4.25,4.25,0,0,0,3.29-1.28c.95-1.28.18-3.5-1.31-4.39-.16-.1-.07-.21.1-.24a1,1,0,0,1,.64.15,4.15,4.15,0,0,1,1.86,3.85c-.23,1.14-1.42,1.9-2.89,2.18a6.06,6.06,0,0,1-1.35.13c-.18,0-.51-.06-.6-.2s.09-.2.26-.2"/><path class="cls-21" d="M686.59,275.06c.07-.13-.05-.22-.15-.22a1.41,1.41,0,0,1-.93-.33c-.11.13-.22.25-.34.37a4.24,4.24,0,0,1,1.88.71.35.35,0,0,0,.39,0c.09-.06.17-.2.06-.28"/><path class="cls-21" d="M687.5,275.26a4.84,4.84,0,0,0-2.1-.78.41.41,0,0,0-.34.12c-.06.08-.08.17,0,.24"/><path class="cls-21" d="M684.06,275.13a2.48,2.48,0,0,1-2.06-1.47,3.27,3.27,0,0,1,1.07-3.66.14.14,0,0,0-.05-.25.45.45,0,0,0-.42.12,3.65,3.65,0,0,0-1.4,3.09,2.67,2.67,0,0,0,1.74,2.34,3,3,0,0,0,.87.21c.12,0,.34,0,.4-.17s0-.2-.15-.21"/><path class="cls-35" d="M751.5,266.7a37.07,37.07,0,0,1,5.33-8.21,8.43,8.43,0,0,1,3-2.32l.22-.06c-.08,0,.08,0,0,0l-.13-.05a6,6,0,0,1,.88,2,11.06,11.06,0,0,1-.22,5.9c0,.14.66.05.71-.13a10.6,10.6,0,0,0-.09-6.88,2.92,2.92,0,0,0-.56-1,.58.58,0,0,0-.41,0c-1.85.26-3.42,2-4.54,3.32a41.16,41.16,0,0,0-4.84,7.65c0,.1.61.06.71-.12Z"/><path class="cls-33" d="M666.55,243.45c3.94-3.51,6.87-4.88,15.14-7.4l.1.17c.56.94.24.41.8,1.37.43.72.85,1.45,1.27,2.17-2.72.79-4.81,1.13-6.49,1.78-3.18,1.22-7,2.26-9.76,4.33C667.28,245.05,666.93,244.25,666.55,243.45Z"/><path class="cls-33" d="M706.3,237.43c-.31,1.06-.13.47-.45,1.53-.23.8-.47,1.61-.7,2.42,2.83.1,4.93-.07,6.72.15,3.54.43,7.72.5,11,2,1.56.73,3.78,1.83,4.52,3.62.2.48.37,2,1.1,1.95.3,0,.26-1.47.25-1.61-.1-2.88-2.07-4.66-4.7-6.13-5.35-3-8.3-3.66-17.66-4.14"/><path class="cls-36" d="M752.47,280.45a4.06,4.06,0,0,1,1.19,5.43,3.6,3.6,0,0,1-2.41,1.62h-.31a4.36,4.36,0,0,1-1-.14,4.17,4.17,0,0,1-2.77-2.21c-.19-.4-1.21-.08-1,.28a4.7,4.7,0,0,0,2.81,2.45,5.12,5.12,0,0,0,2.13.29,4.73,4.73,0,0,0,4.18-4.82,4.64,4.64,0,0,0-2-3.45c-.32-.23-1.26.23-.82.55Z"/><path class="cls-35" d="M751,267.12c.64,0,1.72.05,1.79.89a4.29,4.29,0,0,1-.61,1.95c-.57,1.28-1.45,3.05-.33,4.29,1.28,1.42,3.18-.62,3.87-1.67a8.61,8.61,0,0,0,1.48-5.19c-.09-1.92-.48-4.46-2.43-5.37-.32-.14-.82.31-.41.5,1.66.77,2,3.1,2.1,4.71a8.09,8.09,0,0,1-1.06,4.65c-.53.95-2.72,3.68-3.31,1.29-.34-1.38.73-2.84,1.19-4.08a2,2,0,0,0,.07-1.74c-.42-.67-1.4-.75-2.11-.77-.36,0-.72.52-.24.54Z"/><path class="cls-3" d="M695.07,309.79a59.52,59.52,0,0,0,31-9.87s-7,14.39-30.9,13.52Z"/><path class="cls-33" d="M734.6,194c-3.1-1.63-6.87-1.34-10.37-.89a193.94,193.94,0,0,0-44.1,11c-.17,3.54,3.36,6.35,6.92,7s7.2-.32,10.78-.82,7.57-.45,10.4,1.79,3.9,6.57,6.79,9.07c5,4.33,13.54,2,18.47,6.32,3.72,3.3,3.72,8.91,5.51,13.57,3.46,9.08,13.15,11.19,22.4,7.8a18.87,18.87,0,0,0,2.2-1C756,231.9,749,218.5,741.31,202.61,739.66,199.24,737.87,195.7,734.6,194Z"/><path class="cls-33" d="M627.35,289.58a5.47,5.47,0,0,0,.62,3.65,5.11,5.11,0,0,0,3.46,2.56,5.33,5.33,0,0,0,5.07-2.21,4.68,4.68,0,0,0,.8-3.16,9.69,9.69,0,0,0-1.11-3.5c-1.14-2.28-3.09-4.66-3.33-7.83a11.36,11.36,0,0,1,3.14-8.83,13.71,13.71,0,0,1,4.13-3,20.15,20.15,0,0,1,5-1.49,28.51,28.51,0,0,0,4.91-1.25,6.7,6.7,0,0,0,3.52-2.93,7.88,7.88,0,0,0,.76-4.4,15.83,15.83,0,0,0-1-4.33,33.37,33.37,0,0,1-2.57-8.1,12.56,12.56,0,0,1,1.53-7.3,16.33,16.33,0,0,1,4.11-4.58,31.91,31.91,0,0,0,3.37-3.1,9.65,9.65,0,0,0,1.86-3.34v.25a3.56,3.56,0,0,1-.19.73A7.32,7.32,0,0,1,660,230a29,29,0,0,1-3.31,3.25,16.19,16.19,0,0,0-3.89,4.52,12,12,0,0,0-1.36,6.92,33,33,0,0,0,2.61,7.9,15.94,15.94,0,0,1,1.11,4.51,8.57,8.57,0,0,1-.83,4.83,7.42,7.42,0,0,1-3.95,3.34,28.26,28.26,0,0,1-5.06,1.3,20.17,20.17,0,0,0-4.83,1.42,12.59,12.59,0,0,0-3.89,2.8,10.63,10.63,0,0,0-3,8.21c.19,2.9,2,5.18,3.18,7.59a10.19,10.19,0,0,1,1.14,3.76,5.27,5.27,0,0,1-.95,3.52,5.85,5.85,0,0,1-5.58,2.34,5.5,5.5,0,0,1-4.26-5.72A3.19,3.19,0,0,1,627.35,289.58Z"/><path class="cls-33" d="M782.63,262.6v-.38a1,1,0,0,1,.16-.54c.92-4.86,3.28-11.13,3.28-16.88,0-8.07-13.64-16-13.64-16v28s11.46,14.72,10.21,10A10.7,10.7,0,0,1,782.63,262.6Z"/><path class="cls-33" d="M799.53,268.09a5.52,5.52,0,0,1-.62,3.65,5.09,5.09,0,0,1-3.46,2.55,5.35,5.35,0,0,1-5.08-2.2,4.79,4.79,0,0,1-.8-3.16,9.84,9.84,0,0,1,1.12-3.5c1.13-2.29,3.09-4.66,3.33-7.83a11.43,11.43,0,0,0-3.14-8.84,14,14,0,0,0-4.13-3,20.25,20.25,0,0,0-5-1.5,28.71,28.71,0,0,1-4.91-1.24,6.68,6.68,0,0,1-3.51-2.94,7.85,7.85,0,0,1-.77-4.39,15.41,15.41,0,0,1,1-4.33,33.05,33.05,0,0,0,2.56-8.1,12.48,12.48,0,0,0-1.52-7.3,16.33,16.33,0,0,0-4.11-4.58,33,33,0,0,1-3.37-3.1,9.74,9.74,0,0,1-1.86-3.34v.25a3,3,0,0,0,.19.73,7.17,7.17,0,0,0,1.45,2.56,29,29,0,0,0,3.31,3.24,16.23,16.23,0,0,1,3.89,4.53,11.89,11.89,0,0,1,1.35,6.92,32.54,32.54,0,0,1-2.6,7.9,16,16,0,0,0-1.12,4.51,8.68,8.68,0,0,0,.84,4.83,7.36,7.36,0,0,0,3.94,3.34,28.7,28.7,0,0,0,5.06,1.3,19.37,19.37,0,0,1,4.84,1.42,12.73,12.73,0,0,1,3.89,2.79,10.74,10.74,0,0,1,3,8.22c-.19,2.9-2,5.18-3.19,7.59a10.31,10.31,0,0,0-1.13,3.76,5.23,5.23,0,0,0,.95,3.52,5.82,5.82,0,0,0,5.58,2.33,5.49,5.49,0,0,0,4.26-5.71A3.56,3.56,0,0,0,799.53,268.09Z"/><path class="cls-37" d="M721.13,255.88a1.08,1.08,0,0,1,.86.72,6.87,6.87,0,0,1,.5,2.5c-.09.83,0,2.06.89,1.78s-.15-1.48-.48-2.51-.83-2-.34-2.62S721.13,255.88,721.13,255.88Z"/><path class="cls-37" d="M724.61,266.36a8.61,8.61,0,0,0-.42,2.41c.16.42,1.26.5,1.09-.59A4.73,4.73,0,0,0,724.61,266.36Z"/><path class="cls-37" d="M729.22,280.1a8.61,8.61,0,0,0-.42,2.41c.16.42,1.26.51,1.09-.59A4.73,4.73,0,0,0,729.22,280.1Z"/><path class="cls-37" d="M668.68,251.47s5.58,4.38,9.07,4.33a22.74,22.74,0,0,0,7.41-1.8s-6.13.32-7.77.38A17.48,17.48,0,0,1,668.68,251.47Z"/><path class="cls-37" d="M723.74,255.17s-6.36,3.15-9.76,2.38a28.77,28.77,0,0,1-6.88-2.79s4.3,1.48,5.89,1.88S720,256.63,723.74,255.17Z"/><path class="cls-37" d="M672.65,253.64a3.71,3.71,0,0,1,.83,1.69,7.29,7.29,0,0,1-.28,2.53c-.32.76-.55,2,.28,2s.29-1.45.29-2.54-.15-2.18.46-2.6S672.65,253.64,672.65,253.64Z"/><path class="cls-37" d="M669.81,278.2a9.06,9.06,0,0,0-.78,2.31c.07.44,1.07.7,1.1-.41A4.86,4.86,0,0,0,669.81,278.2Z"/><path class="cls-37" d="M672.85,260.67a9.14,9.14,0,0,0-.39,2.41c.15.42,1.17.5,1-.59A4.91,4.91,0,0,0,672.85,260.67Z"/><path class="cls-3" d="M690.56,236.9a3.93,3.93,0,0,1,2.78,4.61,4.56,4.56,0,0,1-4.32,3.71s2.69-2.92,2.75-5.3S690.56,236.9,690.56,236.9Z"/><path class="cls-3" d="M698.63,236.3a3.93,3.93,0,0,0-2.07,5,4.57,4.57,0,0,0,4.82,3s-3.09-2.49-3.5-4.84S698.63,236.3,698.63,236.3Z"/><path class="cls-33" d="M668.68,251.47s4.85,3.06,7.92,3.43c4.48.55,8.64-.16,10.29-2.28,0,0-6,1.86-9.13,1.39A76,76,0,0,1,668.68,251.47Z"/><path class="cls-29" d="M691.07,283.23c4.82.3,15.28,4.12,17.3,6.26,0,0-5.77,3.75-17,3.05s-12.8-4.91-12.8-4.91S684.92,282.85,691.07,283.23Z"/><path class="cls-12" d="M704,287s-5.72-.85-10.3-1.14-10.35-.15-10.35-.15-.51-3.71,7.8-3.19S704,287,704,287Z"/><path class="cls-30" d="M691.5,290.92c5.29-.48,10.78-2.22,16.87-1.43,0,0-2.19,7.4-15.35,6.58s-14.41-8.44-14.41-8.44C684.75,287.61,686.31,289.79,691.5,290.92Z"/><path class="cls-30" d="M685.52,280.07c2.78,0,4.46,1.19,5.66,1.27s3-.94,5.78-.55c2.57.37,13.1,7.83,11.82,8.63s-9.46-4.7-17.78-5.22-11.61,4.27-12.78,3.32S682.92,280.12,685.52,280.07Z"/><path class="cls-33" d="M727.51,253.27s-6.55,3.22-9.85,3.43c-5.94.36-11.37-2-13-4,0,0,8.45,3.43,11.83,3.15S727.51,253.27,727.51,253.27Z"/><path class="cls-38" d="M652.8,471.13l-16,47.34s45.07,15.17,74.75,13.71,89.49-19,89.49-19l-18.14-35.05L779,421.75,778.85,332,744,321.43s-1.49,24-28.39,23C692.4,343.54,691.2,321,691.2,321s-33.46,3.23-44.61,12.92S616.1,391.7,616.1,391.7l43.28,21.69Z"/><path class="cls-25" d="M651,369.13c.33,5,.76,11.68,1.23,19.06s.92,14,1.25,19.07c.12,2.32.23,4.26.32,5.78a10.73,10.73,0,0,1,0,2.12,10.56,10.56,0,0,1-.33-2.1c-.15-1.51-.35-3.44-.57-5.76-.45-4.87-1-11.6-1.5-19.06-1-14.86-1.42-27.07-.56-27C650.62,361.23,650.64,364.1,651,369.13Z"/><path class="cls-2" d="M651,305.59l5.53-9.67,6.9-8.56a8.2,8.2,0,0,1,6.45-2.94h0l2.33-2.85a3.33,3.33,0,0,1,.39-.36,2.47,2.47,0,0,1,3.21.25c2.15,2.42-.43,6.4-.43,6.4l.64-.48a2.62,2.62,0,0,1,.78-.4,2.37,2.37,0,0,1,3,1.29,4.65,4.65,0,0,1,.17,2.22c-.14,1-1.55,3.1-3.12,6.2a66.72,66.72,0,0,0-3.82,9.45l3.7-3.81c2.08-1.86,4.64-1.75,5.11.75.25,1.34-.59,2.25-1,3.3-1.28,3.05-7.08,9.63-7,17.82.05,6.11-6.4,22-6.4,22l-20-6.66s-.88-6.09-1.1-9.08-1.16-8.56-.52-11.88-1-12.51-1.64-14.06,2-2.65,2-2.65C649.24,302,651,305.59,651,305.59Z"/><path class="cls-39" d="M644.1,304.54c-.6-1.56,2-2.65,2-2.65,3.14.11,4.85,3.7,4.85,3.7l5.53-9.67,6.9-8.56a8.2,8.2,0,0,1,6.45-2.94h0l2.33-2.85a3.33,3.33,0,0,1,.39-.36,2.47,2.47,0,0,1,3.21.25c2.15,2.42-.43,6.4-.43,6.4l.64-.48a2.62,2.62,0,0,1,.78-.4,2.37,2.37,0,0,1,3,1.29,4.65,4.65,0,0,1,.17,2.22c-.14,1-1.55,3.1-3.12,6.2a66.72,66.72,0,0,0-3.82,9.45l3.7-3.81c2.08-1.86,4.64-1.75,5.11.75.25,1.34-.59,2.25-1,3.3"/><path class="cls-3" d="M669.32,285.62c-1.39,1.9-3.28,4.48-5.18,7.44s-3.41,5.75-4.5,7.76a28,28,0,0,1-1.82,3.25,2.86,2.86,0,0,1,.32-.93c.25-.59.63-1.41,1.13-2.46a72.89,72.89,0,0,1,4.35-7.87c1.92-3,3.88-5.56,5.31-7.39.7-.93,1.32-1.67,1.76-2.17a7.51,7.51,0,0,1,.71-.74A28.55,28.55,0,0,1,669.32,285.62Z"/><path class="cls-3" d="M673.37,305.68c.15.08-1.2,2.15-2.51,4.84s-2,4.94-2.21,5A20.26,20.26,0,0,1,673.37,305.68Z"/><path class="cls-3" d="M665.1,304.6c.87-1.91,2.16-4.51,3.79-7.31s3.25-5.26,4.49-7a18.69,18.69,0,0,1,2.16-2.72,26.06,26.06,0,0,1-1.8,2.92c-1.15,1.77-2.71,4.25-4.32,7s-2.92,5.35-3.93,7.22a24.25,24.25,0,0,1-1.63,3A16.89,16.89,0,0,1,665.1,304.6Z"/><path class="cls-3" d="M648.84,310.72a17.64,17.64,0,0,1,2.32-5.53c.13.06-.88,2.51-1.74,5.64s-1.22,5.7-1.39,5.71A16.06,16.06,0,0,1,648.84,310.72Z"/><path class="cls-2" d="M726.07,338.89s15.16,86.6,22.86,101.29c13.64,26,41.72,34.68,56.33,16.74,9.35-11.45,4.52-60.82,4.52-60.82L773,384.38l1.75,14.55-28.47-65Z"/><path class="cls-3" d="M789.69,431.25a72.42,72.42,0,0,0-9.42-24.92c-1.77-2.92-3-4.67-3-4.71a9.13,9.13,0,0,1,1,1.13c.63.74,1.44,1.91,2.4,3.32a62.63,62.63,0,0,1,9.49,25.11,39.19,39.19,0,0,1,.42,4,5.31,5.31,0,0,1,0,1.49C790.51,436.72,790.31,434.59,789.69,431.25Z"/><path class="cls-2" d="M716.1,287.43a2,2,0,0,1,1-1.26,2.27,2.27,0,0,1,3,.88l1.75,2.9s-1.11-4.13-1.3-5.72-1.11-4.6,1.3-4.85c2.58-.24,4,2.87,4,2.87a7.39,7.39,0,0,1,5.13.89c2.16,1.51,6.36,12,6.36,12l3.44,10.05,1-3.9c2.34-7.05,7-4.31,7-4.31-1.72,3.91,1.55,16.47,1.06,21.17s-3,17.36-3,17.36l-20.52,4.59c-3.95-4.61-4.07-11.69-4.73-14.5s-7.67-22.15-8.47-24.46a2.19,2.19,0,0,1-.1-.95c.21-2,3.2-2.34,4.28-.54l5.17,7.24-2.69-7.73s-2.12-5.3-3.27-8.55A5.82,5.82,0,0,1,716.1,287.43Z"/><path class="cls-40" d="M748.7,297.05s-4.62-2.74-7,4.31l-1,3.9-3.44-10s-4.2-10.53-6.35-12a7.45,7.45,0,0,0-5.14-.9s-1.43-3.11-4-2.87c-2.41.25-1.49,3.25-1.3,4.85s1.3,5.72,1.3,5.72l-1.75-2.9a2.28,2.28,0,0,0-3-.88,2,2,0,0,0-1,1.26,5.84,5.84,0,0,0,.38,3.22c1.15,3.25,3.27,8.55,3.27,8.55l2.69,7.73-5.17-7.25c-1.08-1.8-4.07-1.48-4.28.54a2.24,2.24,0,0,0,.1,1c.8,2.3,7.81,21.65,8.47,24.46s.78,9.89,4.73,14.49l.55,3"/><path class="cls-3" d="M734.32,303.52a91.65,91.65,0,0,0-3.46-9.28c-1.53-3.57-3-6.78-4-9.15-.52-1.18-.86-2.14-1.1-2.8a4.33,4.33,0,0,1-.32-1.06,4.68,4.68,0,0,1,.52,1l1.26,2.74c1.06,2.32,2.58,5.52,4.11,9.1a64.91,64.91,0,0,1,3.33,9.37c.33,1.23.55,2.23.67,2.92a5.08,5.08,0,0,1,.12,1.1A37.25,37.25,0,0,1,734.32,303.52Z"/><path class="cls-3" d="M739,299.66c.69,1.84,1.61,4.39,2.52,7.23a66.25,66.25,0,0,1,2,7.37,11.07,11.07,0,0,1,.36,3.13c-.08,0-.29-1.19-.74-3.06s-1.21-4.46-2.11-7.3l-2.36-7.25a17.35,17.35,0,0,1-.84-3.06A20.15,20.15,0,0,1,739,299.66Z"/><path class="cls-3" d="M723.16,292.39c.78,1.57,1.67,3.75,2.58,6.21s1.63,4.7,2.09,6.35a11.44,11.44,0,0,1,.59,2.7,17.78,17.78,0,0,1-1-2.61c-.55-1.61-1.35-3.86-2.24-6.29s-1.8-4.65-2.4-6.22a16.38,16.38,0,0,1-1-2.61A12.73,12.73,0,0,1,723.16,292.39Z"/><path class="cls-38" d="M768.78,376.33l6,22.6,1.68,1.78,3.87,4.82,34-4.11c-2.15-16.78-2.26-22.27-7.51-38.35C797.1,334.23,777.88,332,777.88,332Z"/><path class="cls-41" d="M759.48,368.22a20.66,20.66,0,0,1-.2-4.23,23.67,23.67,0,0,1,16.32-21.26,21.4,21.4,0,0,1,4.18-.93,6.36,6.36,0,0,1,1.57-.07,50.83,50.83,0,0,0-5.58,1.46A24.18,24.18,0,0,0,759.82,364a50.49,50.49,0,0,0,0,5.77A5.91,5.91,0,0,1,759.48,368.22Z"/><path class="cls-38" d="M665,363.08s-16.2,38.7-16.89,47.88,2.45,29,14.59,29.4Z"/><path class="cls-2" d="M667.39,346l-13.57,71.15c-1.7,8.11-4.58,17.18-9.78,23.63-3.76,4.67-9.73,9.36-10.23,8.69-1-1.38-17.77-49.36-17.77-49.36l31.22-61.19Z"/><path class="cls-3" d="M606.34,425.9c.09-.9.3-2.19.62-3.77a72.28,72.28,0,0,1,9.29-23.44c.86-1.37,1.59-2.45,2.14-3.18a5.13,5.13,0,0,1,.88-1.09c.09.06-1,1.73-2.59,4.52a88.37,88.37,0,0,0-9.22,23.27c-.75,3.13-1.09,5.08-1.2,5.07A4.93,4.93,0,0,1,606.34,425.9Z"/><path class="cls-37" d="M723.31,255.47s5.23,11.38,5.43,18.57l.19,7.18.81-.47a74.21,74.21,0,0,0-1-11.13c-.91-4.28-4.59-14.7-4.59-14.7Z"/><path class="cls-37" d="M672.32,253.57s-3.67,12-2.9,19.12l.76,7.15-.86-.37a73.18,73.18,0,0,1-.49-11.16c.33-4.36,2.59-15.18,2.59-15.18Z"/><path class="cls-2" d="M641.72,443.37s-6.11,8.33-10.88,9.29-20.2-3-22.86-8.09-2.54-16.36-1-22.44,6.65-22.88,12.31-27.71S641.72,443.37,641.72,443.37Z"/></svg>