<svg id="Layer_1" data-name="Layer 1" xmlns="http://www.w3.org/2000/svg" viewBox="0 0 205.83 138.61"><defs><style>.cls-1{fill:#a66e53;}.cls-2{fill:#af6c5d;}.cls-12,.cls-3{fill:#4f2e25;}.cls-3{stroke:#4f2e25;stroke-miterlimit:10;stroke-width:0.27px;}.cls-4{fill:#dfa826;}.cls-5{fill:#273339;}.cls-6{fill:#475c66;}.cls-7{fill:#98722b;}.cls-8{fill:#fff;}.cls-9{fill:#d36253;}.cls-10{fill:#242f34;}.cls-11{fill:#642b11;}.cls-13{fill:#ce8d2a;}.cls-14{fill:#010101;}.cls-15{fill:#13110f;}.cls-16{fill:#b15e27;}.cls-17{fill:#df8c26;}.cls-18{fill:#653c29;}.cls-19{fill:#31160e;}.cls-20{fill:#f1eef7;}.cls-21{fill:#593526;}.cls-22{fill:#7f65ac;}.cls-23{opacity:0.5;}.cls-24{fill:#ffce07;}.cls-25{fill:#cb892a;}.cls-26{fill:#022f3d;}.cls-27{fill:#ffefaf;}.cls-28{fill:#5bc6d0;}.cls-29{fill:#ffce09;}.cls-30{fill:#ea2754;}.cls-31{fill:#f39e24;}.cls-32{fill:#5954a4;}</style></defs><path class="cls-1" d="M52.42,71.44l-3.05-5.53S48.08,58,47.42,57s-3.05-5.72-3.05-5.72L37,48a1.91,1.91,0,0,0-1.2,1.77s-2.34.8-2.15,2.56a1.41,1.41,0,0,0-1.5,1.3,1.32,1.32,0,0,0,.08.59,6.73,6.73,0,0,0,.51,1.49c-.29.22-1.94,1.5-1.55,2.44A16.2,16.2,0,0,0,33.82,62a1.71,1.71,0,0,0,1.56.43h0l1.68,2.27s2.34,3.92,4.14,5.43l1.21.83,2.73,5.51A15.47,15.47,0,0,0,52.42,71.44Z"/><path class="cls-2" d="M35.9,53.84a10.81,10.81,0,0,1-.12-4.35l2.42.34a13.73,13.73,0,0,1,.07,2.22,2.66,2.66,0,0,1-.91,2.21,1,1,0,0,1-1.27.08A1.13,1.13,0,0,1,35.9,53.84Z"/><path class="cls-3" d="M38.2,49.83a1.07,1.07,0,0,1,.09.43,9.31,9.31,0,0,1,0,1.18c0,.26,0,.52,0,.83a3.3,3.3,0,0,1-.15.94,2.47,2.47,0,0,1-.52.92,1.45,1.45,0,0,1-1,.5.77.77,0,0,1-.57-.23,1.26,1.26,0,0,1-.25-.52,7.21,7.21,0,0,1-.2-1,10.24,10.24,0,0,1-.05-1.75c0-.5.1-.87.12-1.18a3.15,3.15,0,0,1,.09-.42,1.25,1.25,0,0,1,0,.43c0,.28-.05.68-.07,1.17a12.46,12.46,0,0,0,.09,1.73c.05.34.12.67.2,1a1.05,1.05,0,0,0,.22.45.54.54,0,0,0,.44.18,1.28,1.28,0,0,0,.9-.44,2.26,2.26,0,0,0,.5-.86,2.74,2.74,0,0,0,.16-.89c0-.29,0-.57,0-.84,0-.5,0-.89,0-1.17S38.19,49.84,38.2,49.83Z"/><path class="cls-3" d="M36.68,54.55a.36.36,0,0,1,0,.11,1.42,1.42,0,0,1,.11.33A3.06,3.06,0,0,1,37,56.26a4,4,0,0,1-.54,1.86,1.45,1.45,0,0,1-.93.69,1.09,1.09,0,0,1-.64-.08,1,1,0,0,1-.44-.48,5.4,5.4,0,0,1-.31-1.18c-.07-.39-.14-.79-.18-1.11-.08-.71-.16-1.34-.23-1.88s-.13-1-.18-1.27a1.84,1.84,0,0,1-.06-.47,3,3,0,0,1,.15.45,8.07,8.07,0,0,1,.23,1.26c.09.54.17,1.18.27,1.88.06.35.12.72.19,1.1a5,5,0,0,0,.3,1.14.8.8,0,0,0,.37.4.77.77,0,0,0,.52.06,1.29,1.29,0,0,0,.83-.61A4,4,0,0,0,37,56.27,3.79,3.79,0,0,0,36.8,55,3.59,3.59,0,0,1,36.68,54.55Z"/><path class="cls-3" d="M36.71,57.73a.57.57,0,0,1,.11.11,2,2,0,0,1,.24.33,4.59,4.59,0,0,1,.63,1.39,3.37,3.37,0,0,1-.06,2.26,1.82,1.82,0,0,1-.93,1,1,1,0,0,1-.76,0,1.38,1.38,0,0,1-.55-.52,18.62,18.62,0,0,1-1.1-2.56l-.73-2.14A11,11,0,0,0,33,56.17a4.72,4.72,0,0,1-.18-.53l.05.14c0,.09.11.2.18.37s.37.8.6,1.41.5,1.32.8,2.1a20.21,20.21,0,0,0,1.1,2.52,1.15,1.15,0,0,0,.48.47.79.79,0,0,0,.62,0,1.7,1.7,0,0,0,.82-.89,3.31,3.31,0,0,0,.1-2.15A6.39,6.39,0,0,0,36.71,57.73Z"/><path class="cls-4" d="M69.1,34.27c1.54.75,3.1,1.44,4.63,2.26a5.07,5.07,0,0,1,2.7,3.34,5.51,5.51,0,0,1-.92,4.33C73,48.42,69.4,52.54,64.57,54a13.53,13.53,0,0,1-9.91-1,1.09,1.09,0,0,1,1-2,11.34,11.34,0,0,0,7.52,1.07A13.13,13.13,0,0,0,68.88,49,24.93,24.93,0,0,0,73,44.19a7.54,7.54,0,0,0,1.42-2.79,2.87,2.87,0,0,0-1.6-2.92c-1.52-.79-3.09-1.51-4.63-2.26a1.07,1.07,0,0,1-.43-1.47,1.08,1.08,0,0,1,1.37-.47Z"/><path class="cls-4" d="M38.77,21.68l-4.36-2.12a3.1,3.1,0,0,0-2.69-.2c-1.17.52-1.55,1.66-1.94,2.76-1.43,3.93-2.31,8.54-.82,12.57a11.22,11.22,0,0,0,5.8,6.05,1.1,1.1,0,0,1-.94,2,13.72,13.72,0,0,1-6.45-6.25,15.39,15.39,0,0,1-1.26-7.75,27.74,27.74,0,0,1,1.59-7.15,7.23,7.23,0,0,1,2.09-3.52,5,5,0,0,1,4.53-.85,39.9,39.9,0,0,1,5.41,2.56,1.08,1.08,0,0,1-1,1.91Z"/><path class="cls-4" d="M37.13,55.86l2.72.62h0l.06.05.06,0h0l2.22,1.8a27.65,27.65,0,0,0-1.92,9.6l-4.73-2.3-.13-.07-4.73-2.3A27.63,27.63,0,0,0,37.13,55.86Z"/><rect class="cls-4" x="38.45" y="50.16" width="3.63" height="11.36" rx="1.79" transform="translate(-27.57 67.56) rotate(-64.01)"/><path class="cls-4" d="M40,14.57l16.41,8,.87.42,15.51,7.56c0,.38-14.17,33.45-32,24.07h0C22.39,46.34,39.77,14.85,40,14.57Z"/><path class="cls-5" d="M35.57,55.55s1.64.85,3.69,1.85S43,59.19,43,59.16s-1.65-.82-3.67-1.82S35.59,55.55,35.57,55.55Z"/><path class="cls-5" d="M37,52.24s1.77.91,4,2,4,2,4,1.91-1.77-.91-4-2S37,52.22,37,52.24Z"/><path class="cls-5" d="M30.81,61.48S33,62.61,35.75,64s5,2.35,5,2.35-2.19-1.13-4.94-2.48S30.82,61.46,30.81,61.48Z"/><path class="cls-6" d="M40,14.57l0,.08.2.19.8.72.58.52.7.59c.52.42,1.08.92,1.75,1.42.33.26.68.52,1,.81s.76.57,1.13.84l.61.44.31.22.31.22,1.35.89a67.4,67.4,0,0,0,6.23,3.58,71.19,71.19,0,0,0,6.6,2.83l1.52.53.37.13.36.11.73.19c.48.14.94.29,1.35.37l1.27.33c.8.23,1.54.38,2.18.53l.91.2.76.14,1.06.19.27.05h.1l-.09,0-.28-.06-1-.21-.76-.14-.91-.21c-.64-.15-1.38-.3-2.19-.54L66,29.18l-1.34-.38-.71-.22-.37-.11-.37-.13-1.51-.53A67.25,67.25,0,0,1,55.11,25a69.48,69.48,0,0,1-6.23-3.55l-1.31-.89-.33-.21-.31-.23-.61-.44c-.39-.28-.79-.56-1.12-.83l-1-.8c-.67-.5-1.24-1-1.75-1.41L41.7,16l-.58-.51-.81-.71-.22-.18Z"/><polygon class="cls-7" points="52.17 31.39 47.73 34.82 42.38 33.11 44.28 38.4 41 42.96 46.61 42.78 49.93 47.31 51.5 41.92 56.84 40.16 52.2 37 52.17 31.39"/><path class="cls-6" d="M40,14.57l-.05.09-.15.27c-.13.23-.32.57-.56,1-.48.9-1.15,2.22-1.9,3.88s-1.6,3.66-2.38,5.94a53.63,53.63,0,0,0-2,7.58,34.08,34.08,0,0,0-.59,7.81,22.92,22.92,0,0,0,.44,3.4l.09.39.12.36.13.37.12.35.47,1.36A14.18,14.18,0,0,0,36,51.07c.33.38.6.67.79.86l.23.22.07.06a.46.46,0,0,0-.07-.07c0-.06-.12-.13-.22-.22s-.44-.48-.77-.87a14,14,0,0,1-2.21-3.69A13.25,13.25,0,0,1,33.33,46l-.12-.36-.13-.36L33,44.93l-.08-.39a22.77,22.77,0,0,1-.43-3.39A33.82,33.82,0,0,1,33,33.37a53,53,0,0,1,2-7.56c.78-2.28,1.62-4.29,2.36-6A40.73,40.73,0,0,1,39.32,16c.23-.46.42-.81.55-1l.14-.26Z"/><path class="cls-8" d="M47.33,54.58l.08,0,.25.07a7.79,7.79,0,0,0,1,.12,7.07,7.07,0,0,0,1.52-.16A9.44,9.44,0,0,0,52.09,54a16.3,16.3,0,0,0,2.14-1.24l1.12-.79,1.16-.9a36.78,36.78,0,0,0,4.61-4.56A54.47,54.47,0,0,0,65,41.3c1.11-1.66,2-3.21,2.83-4.5s1.37-2.36,1.78-3.12l.48-.85.12-.21,0-.08,0,.07-.13.22-.49.84-1.82,3.08C67,38,66.07,39.57,65,41.22a56.21,56.21,0,0,1-3.91,5.18A38.84,38.84,0,0,1,56.44,51c-.39.3-.76.62-1.14.9l-1.12.8a17.39,17.39,0,0,1-2.13,1.24,10.61,10.61,0,0,1-1.92.66,7.78,7.78,0,0,1-1.52.17,6.27,6.27,0,0,1-1-.11l-.25-.06Z"/><path class="cls-8" d="M44.29,56.62a1,1,0,0,1,.27,1.2,2.52,2.52,0,0,1-.58.75l-.29.27a1.19,1.19,0,0,0,.33-.22,2,2,0,0,0,.58-.75,1.14,1.14,0,0,0-.05-1,.67.67,0,0,0-.2-.21C44.34,56.63,44.3,56.62,44.29,56.62Z"/><path class="cls-1" d="M46.21,57.34l-8.38-3.86a3.54,3.54,0,0,0,.88,3.82,10.16,10.16,0,0,0,3.53,2.17c-2,2.08-2.39,6.67.81,9"/><path class="cls-3" d="M41.91,67.35a.46.46,0,0,0-.1-.13,1.76,1.76,0,0,1-.28-.38,5.44,5.44,0,0,1-.71-1.62,6.4,6.4,0,0,1-.1-2.72,6.06,6.06,0,0,1,1.5-3.1l.05.13a18.65,18.65,0,0,1-2-1,6.31,6.31,0,0,1-1.87-1.46,4.14,4.14,0,0,1-.86-1.79,2.93,2.93,0,0,1,.2-1.87l0-.08.07,0,6,2.81,1.73.82.45.22.16.09s0,0-.17-.06l-.47-.2-1.75-.78-6-2.75.12,0a2.78,2.78,0,0,0-.19,1.73A4.13,4.13,0,0,0,38.48,57a6.3,6.3,0,0,0,1.77,1.44,20.22,20.22,0,0,0,2,1l.1,0-.08.08a6,6,0,0,0-1.48,3,6.62,6.62,0,0,0,.08,2.66,5.72,5.72,0,0,0,.67,1.62Z"/><path class="cls-9" d="M70.36,109c-.26-7.44-1.15-6.78-3.55-13.73C65,89.86,61.42,85.08,58.72,80.06c-.52-1-6.86-12.16-7.4-11.79A17.54,17.54,0,0,1,47.81,71c-2.71.81-3.23,1.06-6.05.76l-.64,1.69a17.15,17.15,0,0,1,.81,2.9c.54,2,1.17,2.33,1.72,4.28,2.78,9.75,5.52,23,11.66,31.47,1.83,2.53,5.25,5.89,8.83,5.67,5.77-.35,8.65-3.41,10.46-5.25C74.34,112.28,70.38,109.41,70.36,109Z"/><path class="cls-9" d="M72.5,99a22.5,22.5,0,0,0-1.88-4.44,70.19,70.19,0,0,1,2.38,7A15.69,15.69,0,0,0,72.5,99Z"/><path class="cls-9" d="M91.74,71.43c-3-.15-9.68,2.82-11.48,5.17L66.81,94.94c0,8.66,4.45,12.35-.78,19.8a41,41,0,0,0,4.59.94c1.81-.5,3.77-2.38,5.71-3.83,7-5.2,9.82-10.31,16-16.28l11.31-24.71Z"/><path class="cls-10" d="M97,74.86l-4,35.86-.56,5c0,.17.55.06.57-.09l4-35.87.55-5c0-.18-.55-.07-.56.09Z"/><path class="cls-9" d="M163.54,89.78l-4.64,15.38-6.61-21.35c-.77-2.86-2.76-6.71-5.55-7.7l-7-1.68L135.06,99.6,145.41,125c1,2.34,4.24,6.16,6.52,7.25,4.2,2.05,8.29,3.2,12.1.63a19.49,19.49,0,0,0,3.78-4.94c1.73-3.29,4.12-13.83,4.43-17.53l3-18.91Z"/><path class="cls-9" d="M141.41,139.17a76.09,76.09,0,0,1-.32-16.68c.34-2.47,3.86-4,5.29-8.72,1.26-4.16-4.81-39-4.81-39l-11.88-3.22-3.15-.65-.24-.14a2,2,0,0,0,0,.57l0,.3A10.62,10.62,0,0,1,118,77a26.16,26.16,0,0,1-3.64,0,11.83,11.83,0,0,1-9.27-5.41l-.08-1.3-7.45,2.14-6.51,4.73-7.45,31.11c.32,5.84-.4,4.13,2,9.45l3.46,3.42-.79,18"/><path class="cls-11" d="M158.9,105.16s-5,12-5.33,16.47l-.54-1.09S155.87,108.15,158.9,105.16Z"/><path class="cls-1" d="M125.87,69.45c-.21-.66,0-7.73,0-7.73l-10.45,1.61L105,61.72s.2,7.8,0,8.47-6.69.93-6.69.93,3.56,8,17.13,8,17.09-6.88,17.09-6.88S126.08,70.11,125.87,69.45Z"/><path class="cls-12" d="M105,62.14c.17.12,1.38,1.72,1.55,1.84,4.29,3,4.93,3.87,8.63,4,3.71-.15,5.3-.66,9.29-4.37,1.34-1.26,1-1.67,1.34-1.91C119.12,61.71,111.64,62.09,105,62.14Z"/><path class="cls-1" d="M98.23,41.24s-2-3.07-3.14-3c-.7.08.9,1.63,1.1,3.39.27,2.36-1.48,2.66-.93,4s1.26,6,3.09,5.79c.73-.08,1.47-1.69,1.47-1.69S98.82,43.35,98.23,41.24Z"/><path class="cls-13" d="M97.6,49.89A1.75,1.75,0,0,0,96,51.38a1.5,1.5,0,0,0,.29,1.06,1.38,1.38,0,0,0,.66.5,1.88,1.88,0,0,0,1.72-.22.18.18,0,0,0,0-.3.35.35,0,0,0-.4,0,1.09,1.09,0,0,1-1,.1l-.18-.07,0,0,0,0a.9.9,0,0,1-.2-.19,1.23,1.23,0,0,1,0-1.52l.07-.09.06-.06.1-.07,0,0h0l.13-.06.05,0h0a.79.79,0,0,1,.24,0c.12,0,.29-.09.3-.24s-.14-.21-.26-.19Z"/><path class="cls-1" d="M131.6,41.15s1.68-3.26,2.83-3.25c.69,0-.74,1.71-.76,3.48,0,2.37,1.74,2.5,1.33,3.88s-.65,6.09-2.49,6.07c-.73,0-1.64-1.53-1.64-1.53S131.22,43.3,131.6,41.15Z"/><path class="cls-1" d="M134.07,43.08h0c-.41,2.06-.91,4.23-1.26,6.72-.91,6.56-2.86,9.58-7.32,12.48-4.68,3-6.08,4.22-10.11,4.37-4-.15-5.44-1.33-10.11-4.37-4.46-2.9-6.42-5.92-7.33-12.48-.2-1.47-.46-2.82-.72-4.1-.19-1-.39-1.87-.57-2.77v0h0a22.17,22.17,0,0,1-.15-10c.91-3.8,4.05-8.51,8.83-11.49h0a18.91,18.91,0,0,1,10-2.9c10.35,0,17.43,8.35,18.88,14.39A22.29,22.29,0,0,1,134.07,43.08Z"/><path class="cls-14" d="M116.71,51.6a1.81,1.81,0,0,1-1.91-.1c-.12-.08-.52,0-.36.13a2.53,2.53,0,0,0,2.6.08c.08-.05.06-.11,0-.14a.41.41,0,0,0-.31,0"/><path class="cls-14" d="M114.17,51.45a4.18,4.18,0,0,0-1.4-.35.36.36,0,0,0-.22.07s0,.08,0,.12a1.55,1.55,0,0,0,.77.17.3.3,0,0,0,.24-.09c0-.07,0-.11-.1-.11a1.24,1.24,0,0,1-.63-.14l-.21.18a3.4,3.4,0,0,1,1.26.32.32.32,0,0,0,.25,0c.06,0,.11-.1,0-.14"/><path class="cls-14" d="M112.27,51.51a1.56,1.56,0,0,1-1.28-.68,1.43,1.43,0,0,1,.58-1.82c.06,0,0-.1,0-.11a.3.3,0,0,0-.26.06,1.65,1.65,0,0,0-.77,1.54,1.4,1.4,0,0,0,1.1,1.11,2.35,2.35,0,0,0,.53.09c.07,0,.2,0,.24-.09s0-.1-.1-.1"/><path class="cls-14" d="M117.28,51.45a4.18,4.18,0,0,1,1.4-.35.34.34,0,0,1,.22.07s0,.08,0,.12a1.55,1.55,0,0,1-.77.17.27.27,0,0,1-.23-.09c0-.07,0-.11.1-.11a1.23,1.23,0,0,0,.62-.14l.21.18a3.35,3.35,0,0,0-1.25.32.34.34,0,0,1-.26,0s-.11-.1,0-.14"/><path class="cls-14" d="M119.18,51.51a1.56,1.56,0,0,0,1.28-.68,1.44,1.44,0,0,0-.57-1.82c-.07,0,0-.1,0-.11a.3.3,0,0,1,.26.06A1.68,1.68,0,0,1,121,50.5a1.41,1.41,0,0,1-1.11,1.11,2.35,2.35,0,0,1-.53.09c-.07,0-.2,0-.24-.09s0-.1.1-.1"/><path class="cls-15" d="M120.27,37c0,.37,0,.74,0,1.12s0,.57,0,.85c1-.24,1.93-.4,2.6-.51a9.69,9.69,0,0,1,3-.21,8.8,8.8,0,0,1,1.89.54,5.7,5.7,0,0,1,1,.48c.7.46,1,1,1.1.94s-.07-.5-.08-.55a4.45,4.45,0,0,0-1.5-1.89,5.68,5.68,0,0,0-1.91-.8,22,22,0,0,0-6.07,0"/><path class="cls-15" d="M123.87,41.49a1.28,1.28,0,0,1,1.37.25,1.4,1.4,0,0,1,.37.57,1.28,1.28,0,0,1-.3,1.15,1.18,1.18,0,0,1-1.35.24,1.3,1.3,0,0,1-.64-1.51,1.22,1.22,0,0,1,.55-.7"/><path class="cls-15" d="M120.06,43.24s2.56-1.85,3.87-2a6.69,6.69,0,0,1,4.93,1.67s-3.11-1.46-4.45-1.3A22.87,22.87,0,0,0,120.06,43.24Z"/><path class="cls-15" d="M111.06,37c0,.37,0,.74,0,1.12s0,.57,0,.85c-1-.24-1.92-.4-2.59-.51a9.75,9.75,0,0,0-3-.21,8.66,8.66,0,0,0-1.88.54,5.81,5.81,0,0,0-1,.48c-.7.46-1,1-1.1.94s.07-.5.09-.55a4.54,4.54,0,0,1,1.49-1.89A5.8,5.8,0,0,1,105,37a22,22,0,0,1,6.06,0"/><path class="cls-15" d="M107.47,41.53a1.27,1.27,0,0,0-1.37.25,1.22,1.22,0,0,0-.37.57,1.25,1.25,0,0,0,.3,1.15,1.18,1.18,0,0,0,1.35.24,1.3,1.3,0,0,0,.63-1.51,1.15,1.15,0,0,0-.54-.7"/><path class="cls-15" d="M111.28,43.28s-2.56-1.85-3.87-2A6.66,6.66,0,0,0,102.48,43s3.11-1.46,4.45-1.3A22.87,22.87,0,0,1,111.28,43.28Z"/><path class="cls-16" d="M93.52,25.76A37.56,37.56,0,0,1,113,23c10.92,1.38,16.16,8.28,18,13.2a35.41,35.41,0,0,1,2,9.87s2.68,1.36,4.63-8.64C140.46,22.85,124.53,10,121,10S98.59,9.46,93.52,25.76Z"/><path class="cls-16" d="M95.47,21.5S93.64,10,101.56,7.87s24.57-6,29.44,4.48Z"/><path class="cls-17" d="M95.06,45.09a7,7,0,0,1-1.74-3c-.88-3.1-2.42-9.51-1-12.35.61-1.24.86-4.94.92-6,.3-5.69-1-3.95,7-10.4s9.37-4.68,21.37-3.91,15.42,4.65,14.5,15.89c0,0-16.15-4.65-23.76-.53S96.5,42.16,97.05,46.93A14.09,14.09,0,0,1,95.06,45.09Z"/><path class="cls-16" d="M91.91,35.47s12.21-15.6,26.48-15.74c0,0-18.27-2.38-26.37,10.8Z"/><path class="cls-16" d="M136,20.12s-14.1-5.13-19.5-5.57,17.08.41,19.24,2.86Z"/><ellipse class="cls-8" cx="115.73" cy="56.33" rx="4.74" ry="1"/><path class="cls-13" d="M133.13,50.37a1.37,1.37,0,0,1,1.33,1.08,1.33,1.33,0,0,1-.12.9,1.12,1.12,0,0,1-.24.33l-.06,0,0,0-.08,0-.14.07h0s-.05,0,0,0h-.09a1.2,1.2,0,0,1-.69-.16c-.1-.06-.27,0-.36,0s-.25.11-.17.15a1.82,1.82,0,0,0,1.5.07,1.92,1.92,0,0,0,.72-.38,1.44,1.44,0,0,0,0-2,1.59,1.59,0,0,0-1.17-.48.8.8,0,0,0-.4.11c-.08.05-.08.11,0,.11Z"/><path class="cls-18" d="M115.6,55.51c-3,0-7.88-.37-7.88-.37s.91,6.1,7.88,6.1,7.88-6.1,7.88-6.1S118.61,55.51,115.6,55.51Z"/><path class="cls-19" d="M115.63,55.51c-1.43,0-7.19-.25-7.19-.25s1.91,3.23,7.07,3.23c5.61,0,7.25-3.18,7.25-3.18Z"/><path class="cls-20" d="M115.69,55.73c-1.43,0-5.78-.25-5.78-.25s1.57,1.6,5.86,1.6,5.65-1.56,5.65-1.56Z"/><path class="cls-18" d="M123.79,54.69a9.83,9.83,0,0,1-1.69.19c-1.18-.11-2.61-.43-3.47-.49-1.46-.12-2.39.47-3,.47s-1.56-.59-3-.47c-.85.06-2.29.38-3.47.49a9.83,9.83,0,0,1-1.69-.19c-.21.06.2,1.64,8.19,1.64S124,54.75,123.79,54.69Z"/><path class="cls-11" d="M121.57,119.27a16.87,16.87,0,0,0-7.54-1.48c-4.16.2-5.45.73-5.45.73s5.69,0,7.34-.27S121.57,119.27,121.57,119.27Z"/><path class="cls-4" d="M41.25,66.65,30.74,61.53a5.53,5.53,0,0,0-7.39,2.54l0,.08h0l20.46,10h0l0-.08a5.52,5.52,0,0,0-2.55-7.39Z"/><rect class="cls-21" x="23.24" y="60.12" width="14.71" height="30.57" transform="translate(-50.59 69.85) rotate(-64.01)"/><rect class="cls-7" x="27.11" y="64.34" width="7.21" height="21.64" transform="translate(-50.3 69.83) rotate(-64.01)"/><path class="cls-8" d="M40.35,66.88a.84.84,0,0,0,.24.14,7.14,7.14,0,0,1,.65.41,5.56,5.56,0,0,1,1.65,1.86,5.63,5.63,0,0,1,.69,2.4c0,.32,0,.59,0,.76l0,.29v-.08a1,1,0,0,0,0-.2,5,5,0,0,0,0-.77A5.47,5.47,0,0,0,43,69.25,5.39,5.39,0,0,0,40.61,67l-.2-.08Z"/><path class="cls-11" d="M66.74,95.06s2.51,5.5,2.71,8.92a25.37,25.37,0,0,0-2.08-9.77Z"/><path class="cls-11" d="M89.5,121.34c-.56-1.19-2-2.12-2.79-3.13a11.93,11.93,0,0,1-2.66-6.65,25.4,25.4,0,0,1,.81-7c.5-2,1.11-3.45,1.59-5.5a39.58,39.58,0,0,0,1.26-5.91,8.71,8.71,0,0,0-1-5.17c1.46,2.49.65,6.19-.14,8.74s-1.85,6.1-2.31,8c-.82,3.33-1.62,9.39,1,12.61s3.16,3.26,3.52,4.08a25.3,25.3,0,0,1,.39,4.79C89.29,123.93,90.12,122.66,89.5,121.34Z"/><path class="cls-11" d="M89.15,126.16a9.5,9.5,0,0,0,0,1.59v-1.09S89.16,126.47,89.15,126.16Z"/><path class="cls-11" d="M140.83,126.2c0,.69-.05,1.17-.05,1.17C140.82,126.94,140.83,126.56,140.83,126.2Z"/><path class="cls-11" d="M145.82,104.81c-.74-3-1.88-5.89-2.6-8.9-.62-2.59-1.07-5.66.24-8.11a8.72,8.72,0,0,0-1.1,5.7c.68,4.87,2.23,8,3.29,12.75a21,21,0,0,1,.1,7.34,14.05,14.05,0,0,1-4,6.56,5.42,5.42,0,0,0-1.12,1.32c-.66,1.4.22,2.34.24,4.73a27.81,27.81,0,0,1,.49-4.7c.36-.82.92-.87,3.52-4.08S146.65,108.14,145.82,104.81Z"/><path class="cls-1" d="M166.44,88.61s-2.28-5.12-2.05-7.7c.07-.73-1.73-7.23-1.73-7.23s1.46-1.08,2.64,1.38,1.61,3.49,1.61,3.49l.63.51,2.82-3.62s2.51-4.63,3.22-5.7,2.12-3.4,3.7-3c0,0,.92-1.8,1.82-1.46a1.48,1.48,0,0,1,1,.88l-.22,1s.46-.37,1.12.36-2.64,8.78-2.64,8.78l.11.54s3.08-5,3.62-4.89,1,.13.83,1.07S178,85.26,174.36,89.87a7.21,7.21,0,0,0-1.27,1.9L166,90Z"/><path class="cls-12" d="M179.49,67.37a27.87,27.87,0,0,1-1.74,4.14,26.82,26.82,0,0,1-2.05,4,27.78,27.78,0,0,1,1.72-4.14A27.43,27.43,0,0,1,179.49,67.37Z"/><path class="cls-12" d="M177.44,66.85c.09.06-.88,1.75-1.94,3.92s-1.81,4-1.91,3.93a17.23,17.23,0,0,1,1.58-4.09A17.11,17.11,0,0,1,177.44,66.85Z"/><path class="cls-12" d="M168.86,79.15a9.25,9.25,0,0,1,4.53,6.51S173.11,79.13,168.86,79.15Z"/><path class="cls-22" d="M97.08,121.61l3.58-1.6,2,4.32,2.52-16.66-3.9-.22c0,.17-4.16,14.16-4.16,14.16"/><polygon class="cls-22" points="104.3 108.05 105.14 124.09 108.27 119.69 112.3 122.57 108.27 106.81 104.3 108.05"/><g class="cls-23"><path class="cls-14" d="M101,108.51a1.55,1.55,0,0,0,1.38,1.08c.36,0,.77-.1,1.08.1s.44.67.8.72.68-.51,1.08-.65,1.13.49,1.67.28c.35-.13.51-.58.88-.67a1.11,1.11,0,0,1,.48,0,1,1,0,0,0,.56-.1l-.2-.78-.34-1.5h-7.25Z"/></g><path class="cls-24" d="M105.21,96a4.66,4.66,0,0,1,1.05.21.55.55,0,0,1,0-.17c.31-.82.61-1.64.92-2.45l0,0a.81.81,0,0,1-.3-.31,1,1,0,0,0-.83-.44c-.17.7-.37,1.65-.52,2.25A2.59,2.59,0,0,1,105.21,96Z"/><path class="cls-24" d="M100.8,103.5a5.07,5.07,0,0,1-.55-1.09.37.37,0,0,1-.17.1l-.07,0-.14.08a4.26,4.26,0,0,1-.47.15l-.58.16-1.06.27a1.64,1.64,0,0,1-.44.09,3.12,3.12,0,0,1,.43-.15l.36-.11-.84.19c-.11.48-.45,1-.15,1.37a.52.52,0,0,0,.11.1c1.08-.4,2.46-.92,3.36-1.16A.5.5,0,0,1,100.8,103.5Z"/><path class="cls-24" d="M103.57,95.9v.26a4.8,4.8,0,0,1,1.19-.16v-.06l0-.89v-.19c0-.64,0-1.17.06-1.27-.18-.21-.35-.65-.71-.7a.62.62,0,0,0-.58.12C103.59,93.9,103.56,95,103.57,95.9Z"/><path class="cls-25" d="M98.9,99l.22.08-1-.39C98.38,98.81,98.63,98.91,98.9,99Z"/><path class="cls-24" d="M100,100.57a5,5,0,0,1,.2-1.09l-.3-.1a5.23,5.23,0,0,1-1-.28,10.64,10.64,0,0,1-1.08-.51l-.38-.22-.2-.08c-.13.21-.34.39-.48.6a.78.78,0,0,0-.12.41,14.64,14.64,0,0,1,3.36,1.25Z"/><path class="cls-24" d="M100.36,98.94a4.4,4.4,0,0,1,.5-.9l-.07-.05a8.51,8.51,0,0,1-1.52-1.29h0c-.21-.17-.41-.35-.58-.51a.47.47,0,0,1-.12.2c-.26.26-.75.09-1,.32a.58.58,0,0,0-.19.34A28.47,28.47,0,0,1,100,98.72Z"/><path class="cls-24" d="M100.82,97.27c.11.17.22.32.3.43a4.7,4.7,0,0,1,.9-.82c-.11-.13-.23-.29-.37-.48l-.41-.5c-.22-.27-.4-.52-.53-.71a1.23,1.23,0,0,1-.19-.31.84.84,0,0,1,.12.13l-.33-.44A.85.85,0,0,1,100,95a2.28,2.28,0,0,1-.74.17A18.6,18.6,0,0,1,100.6,97Z"/><path class="cls-24" d="M102.32,96.69a4.65,4.65,0,0,1,.87-.42l0-.11c-.07-.23-.15-.55-.22-.9s-.11-.68-.14-.92,0-.25,0-.37v-.06a.89.89,0,0,1-.63-.21,1.09,1.09,0,0,0-1.12-.06c.39.93,1,2.2,1.28,3C102.31,96.66,102.31,96.67,102.32,96.69Z"/><path class="cls-25" d="M101.08,97.75h0v0Z"/><path class="cls-24" d="M100.17,102.14A5.11,5.11,0,0,1,100,101h0c-.34,0-.74,0-1.16,0h-.39a9.23,9.23,0,0,1-1-.06l-.29,0-.25,0a2.46,2.46,0,0,0-.17.27.93.93,0,0,0-.11.85l0,0,3.36.1A.61.61,0,0,1,100.17,102.14Z"/><path class="cls-24" d="M101.74,104.63l.07,0a5.38,5.38,0,0,1-.85-.87.35.35,0,0,1-.13.14.3.3,0,0,1-.09.13c-.22.17-.52.36-.86.58l-.88.55a2.71,2.71,0,0,1-.37.21,1.64,1.64,0,0,1,.33-.26l.45-.3-1,.57c.05.25,0,.55.08.78a.73.73,0,0,0,.62.35l2-1.49A2.36,2.36,0,0,1,101.74,104.63Z"/><path class="cls-25" d="M110.93,105.41l.28.22v0l-.08-.06Z"/><path class="cls-24" d="M108.42,104a4.25,4.25,0,0,1-.86.78l.25.29s0,0,0,0a1.53,1.53,0,0,1,.34.46l.35.6v0c.23.37.45.77.65,1.11a.56.56,0,0,1,.1-.15c.36-.37,1.07,0,1.44-.36a.52.52,0,0,0,.1-.11c-.69-.75-1.6-1.8-2.18-2.41A1.38,1.38,0,0,1,108.42,104Z"/><path class="cls-25" d="M104.91,93.62h0v0Z"/><path class="cls-24" d="M109.57,101.37a5.09,5.09,0,0,1-.23,1l.13.07.46.24a3,3,0,0,1-.45-.28,12.75,12.75,0,0,1,1.43.72l.9.49.16.07a.85.85,0,0,1,0-.23c.14-.38.62-.58.79-.92Z"/><path class="cls-24" d="M108.65,103.69l.33.26,0,0c.28.19.66.45,1.07.75s.8.57,1.06.77l.11.07c.16-.12.37-.19.54-.3-.87-.76-1.89-1.81-2.67-2.41A5.32,5.32,0,0,1,108.65,103.69Z"/><path class="cls-24" d="M103.14,105.41a.93.93,0,0,1,0-.1,5.66,5.66,0,0,1-.89-.44l0,0-.21.24c-.14.17-.33.39-.55.62s-.45.47-.61.62a1.23,1.23,0,0,1-.28.23l0-.07-.38.4c.18.38,0,1,.32,1.26a.5.5,0,0,0,.19.13c.68-.91,1.6-2.09,2.26-2.81A.25.25,0,0,1,103.14,105.41Z"/><path class="cls-24" d="M105.07,105.61a.48.48,0,0,1,.07.23,1,1,0,0,1,0,.51q0,.32-.09.66c0,.3-.08.59-.11.84s-.06.64-.08.93a2.31,2.31,0,0,0,.58.4,1,1,0,0,0,.9-.26c-.06-1.09-.12-2.44-.08-3.4l0,.12c0-.06,0-.09,0-.09a1.8,1.8,0,0,1,.16.38c.09.24.2.58.31,1l.09.3c.12.4.22.81.3,1.18a.83.83,0,0,1,.38-.07,8.26,8.26,0,0,1,.89.22,21.39,21.39,0,0,1-1.18-3.59A4.76,4.76,0,0,1,105.07,105.61Z"/><path class="cls-24" d="M104.6,105.63h0a4.82,4.82,0,0,1-1.5-.3l0,.06,0,0c.1,0,.13.17.12.28l0,.15a1.34,1.34,0,0,1-.1.44,4.67,4.67,0,0,1-.28.61c-.18.36-.38.71-.59,1-.1.16-.18.27-.23.34a.48.48,0,0,1,.17,0c.48.18.73.87,1.23.81h0c.29-.94.59-2.24.88-3.11A1.2,1.2,0,0,1,104.6,105.63Z"/><path class="cls-24" d="M108.78,98.13,109,98a1.15,1.15,0,0,1,.22-.22l.45-.28c.31-.2.61-.35.82-.46l.32-.15.3-.17h0c-.3-.47.09-1.18-.26-1.61,0,0,0,0,0,0-.88.65-2,1.39-3,2A4.77,4.77,0,0,1,108.78,98.13Z"/><path class="cls-24" d="M109.54,100a5.12,5.12,0,0,1,.06.78V101h.08c.14,0,.28,0,.42,0h.1c.29,0,.7,0,1.14.06l1.07.1c.07-.32.47-.48.58-.79a.66.66,0,0,0,0-.48c-1,0-2.43.14-3.29.17Z"/><path class="cls-24" d="M108.36,94.05l-1.71,2.15a.49.49,0,0,1-.13.12,4.54,4.54,0,0,1,1.06.58l0,0h0a.48.48,0,0,1,.1-.17l.27-.31c.51-.6,1.09-1.22,1.57-1.73a.78.78,0,0,1-.26-.17c-.22-.22-.26-.57-.51-.74a.5.5,0,0,0-.27-.08v0A.51.51,0,0,1,108.36,94.05Z"/><path class="cls-24" d="M109.42,99.53l.15-.06a1.66,1.66,0,0,1,.33-.15c.2-.09.5-.2.82-.32l.83-.29a1.61,1.61,0,0,1,.36-.1l-.12.07.43-.15a1.94,1.94,0,0,0-.08-1,.52.52,0,0,0-.17-.19,22.84,22.84,0,0,1-3,1.12A4.88,4.88,0,0,1,109.42,99.53Z"/><path class="cls-25" d="M112.4,101.21h0l-.38,0Z"/><path class="cls-25" d="M103.22,96.14l0,.12h0c0-.06,0-.13-.07-.2A.24.24,0,0,0,103.22,96.14Z"/><path class="cls-14" d="M107.6,96.91s0,0,0,0l0,0Z"/><path class="cls-25" d="M108.86,98.25a.5.5,0,0,1,0-.16L109,98l-.16.15Z"/><path class="cls-14" d="M112,103.71v0l-.16-.07Z"/><path class="cls-14" d="M109,104l-.34-.26,0,0Z"/><path class="cls-14" d="M109.13,107.21l0,.06v0c-.2-.34-.43-.74-.66-1.11C108.76,106.55,109,106.93,109.13,107.21Z"/><path class="cls-25" d="M105,105.62a.49.49,0,0,1,.17.18.08.08,0,0,0,0,0,.4.4,0,0,0-.08-.23Z"/><path class="cls-25" d="M103.18,105.41a.9.9,0,0,1,.09.33v.1l0-.15C103.31,105.58,103.28,105.44,103.18,105.41Z"/><path class="cls-14" d="M102.21,104.87h0l-.19.24,0,0,.21-.25Z"/><path class="cls-14" d="M100.2,99.36a.39.39,0,0,1-.18,0l-.14,0,.29.1Z"/><path class="cls-14" d="M102.08,96.84a1.66,1.66,0,0,1-.27-.26l-.17-.18.37.48Z"/><path class="cls-14" d="M103.56,96.16h0V96A.59.59,0,0,1,103.56,96.16Z"/><path class="cls-14" d="M104.76,96h.07c0-.19,0-.54,0-1l-.06.89A.13.13,0,0,0,104.76,96Z"/><path class="cls-25" d="M106.29,96.06a.51.51,0,0,0,0,.17l.26.1.13-.12,1.71-2.16a.48.48,0,0,0,.15-.36s0,0,0,0c-.31,0-.66.13-1,0l-.22-.08c-.09.27-.23.68-.4,1.13a14.57,14.57,0,0,1-.58,1.42,14.53,14.53,0,0,1,.49-1.45c.17-.46.33-.86.44-1.12l0,0,0,0C106.9,94.43,106.6,95.25,106.29,96.06Z"/><path class="cls-25" d="M108.43,95.9l.74-.79a2.42,2.42,0,0,1,.33-.31,2,2,0,0,1-.28.35l-.72.81c-.28.31-.55.58-.74.78a.37.37,0,0,0-.12.2l.1.07a35.55,35.55,0,0,0,3-2,1,1,0,0,0-.28-.17h0c-.28-.09-.63-.09-.91-.2-.49.51-1.07,1.13-1.58,1.73C108.12,96.25,108.27,96.08,108.43,95.9Z"/><path class="cls-25" d="M110.81,96.87a1.94,1.94,0,0,1-.34.21l-.81.48c-.31.19-.62.35-.71.57a.34.34,0,0,0,0,.2l.06.12a21.61,21.61,0,0,0,3-1.13c-.28-.22-.7-.31-.9-.62l-.3.17S110.81,96.86,110.81,96.87Z"/><path class="cls-25" d="M111.58,98.77l-.83.31-.83.29a1.61,1.61,0,0,1-.36.1h0l-.14.06a4.64,4.64,0,0,1,.11.51h.13c.86,0,2.26-.11,3.29-.17a1.68,1.68,0,0,0-.2-.34,2.23,2.23,0,0,1-.49-.73.86.86,0,0,1,0-.28l-.44.15Z"/><path class="cls-25" d="M111.33,101.13,110.2,101a2.42,2.42,0,0,1-.47-.05,1.53,1.53,0,0,1,.37,0l-.42,0h-.08c0,.14,0,.27,0,.41.89.34,2.2.8,3.22,1.17a.43.43,0,0,0,.06-.22c0-.4-.48-.71-.45-1.1l-.38,0Z"/><path class="cls-25" d="M109.93,102.69l-.46-.24-.13-.06a3.9,3.9,0,0,1-.2.47c.79.6,1.81,1.65,2.68,2.41a.81.81,0,0,0,.27-.25c.21-.37-.07-.82-.12-1.24l-1.1-.57Z"/><path class="cls-25" d="M110.06,104.8,109,104l-.39-.3a2.11,2.11,0,0,1-.19.23,1.33,1.33,0,0,0,.21.26c.58.61,1.5,1.66,2.18,2.41.16-.27.12-.65.31-.91l.09-.09-.28-.22Z"/><path class="cls-25" d="M108.44,106.16c-.12-.21-.24-.41-.34-.6a2.27,2.27,0,0,0-.3-.46.33.33,0,0,0-.33-.07.27.27,0,0,0-.1.07s0-.06.09-.1a.36.36,0,0,1,.35,0,3.23,3.23,0,0,0-.25-.29,1.81,1.81,0,0,1-.27.18,22.12,22.12,0,0,0,1.19,3.59.49.49,0,0,0,.39-.09c.3-.23.18-.71.28-1.07l-.07-.11C108.91,107,108.68,106.58,108.44,106.16Z"/><path class="cls-25" d="M107.07,107.85a1.85,1.85,0,0,1,.07.41,2,2,0,0,1-.13-.39l-.28-1c-.11-.35-.21-.68-.29-1l-.09-.31,0-.12c0,1,0,2.32.08,3.4a4.47,4.47,0,0,1,.82-.54c-.08-.38-.18-.79-.3-1.19C107,107.44,107,107.67,107.07,107.85Z"/><path class="cls-25" d="M104.92,108.19a2.65,2.65,0,0,1-.09.49,2.1,2.1,0,0,1,0-.5c0-.3.08-.72.15-1.18l.09-.65a1,1,0,0,0,0-.51.41.41,0,0,0-.18-.21h-.29a1.2,1.2,0,0,0-.2.39c-.29.87-.59,2.17-.88,3.11.35-.07.57-.5.93-.52a.66.66,0,0,1,.44.17c0-.29.06-.61.08-.93A3.26,3.26,0,0,1,104.92,108.19Z"/><path class="cls-25" d="M102.81,106.85c.11-.21.21-.41.29-.6a1.45,1.45,0,0,0,.11-.5,1,1,0,0,0-.07-.34.25.25,0,0,0-.17.11c-.66.73-1.58,1.9-2.26,2.81.38.14.89-.1,1.32,0a4,4,0,0,0,.21-.37C102.4,107.64,102.6,107.27,102.81,106.85Z"/><path class="cls-25" d="M100.58,106.54c.12-.14.43-.46.78-.84l.81-.86-.32-.22c-.14.12-.28.24-.43.35a2.68,2.68,0,0,1-.52.36,1.93,1.93,0,0,1,.47-.43l.37-.27a2.33,2.33,0,0,0-.57.34l-2,1.5a1.53,1.53,0,0,1,1,.34.6.6,0,0,1,.09.13C100.32,106.81,100.45,106.68,100.58,106.54Z"/><path class="cls-25" d="M99.82,104.5c.34-.22.66-.41.87-.56a.29.29,0,0,0,.1-.12.24.24,0,0,0,0-.12.1.1,0,0,0-.07-.08s.06,0,.1.07a.22.22,0,0,1,0,.14l0,0a.38.38,0,0,0,.14-.14c-.06-.07-.11-.15-.16-.22a.5.5,0,0,0-.21,0c-.9.24-2.28.76-3.36,1.16.34.24,1,.14,1.17.52a.34.34,0,0,1,0,.14l1-.57Z"/><path class="cls-25" d="M98.8,102.84l.58-.16c.18-.05.34-.08.47-.13a1,1,0,0,0,.36-.24.28.28,0,0,1-.06.11l-.14.11.07,0a.32.32,0,0,0,.17-.1,2.13,2.13,0,0,1-.08-.27.85.85,0,0,0-.23,0l-3.35-.1c.15.27.5.39.64.66a.75.75,0,0,1,0,.55l.85-.19Z"/><path class="cls-25" d="M97,100.85h.43c.26,0,.62,0,1,0l1,0a2,2,0,0,1,.43,0,1.54,1.54,0,0,1-.43,0l-.63,0c.42,0,.82,0,1.15,0h0v-.41l0,0a14.86,14.86,0,0,0-3.35-1.25.41.41,0,0,0,.26.44h0c.27.12.32.33.23.62a1.83,1.83,0,0,1-.26.5l.26,0A.35.35,0,0,1,97,100.85Z"/><path class="cls-25" d="M97.37,98.35a2.88,2.88,0,0,1,.45.19l.35.17,1,.4a6.61,6.61,0,0,0,.9.24.37.37,0,0,0,.18,0l0,0c0-.1.07-.19.11-.29l-.66-.36a4.51,4.51,0,0,1-.8-.51,5.26,5.26,0,0,1,.85.44l.27.17A28.67,28.67,0,0,0,97.33,97a7.41,7.41,0,0,1,0,1,1.21,1.21,0,0,1-.09.2l.2.09Z"/><path class="cls-25" d="M99,96.38a2,2,0,0,1,.31.28c.18.17.44.41.73.66s.58.47.78.62l.07,0,.18-.23v0c-.09-.11-.2-.25-.32-.42a2.77,2.77,0,0,1-.4-.66,1.53,1.53,0,0,1,.26.31,17.47,17.47,0,0,0-1.36-1.84.6.6,0,0,0-.36.19c-.19.23-.12.59-.21.86l.57.51A1.83,1.83,0,0,1,99,96.38Z"/><path class="cls-25" d="M101.31,95.85c.42.54.78,1,.77,1l.24-.15,0,0c-.32-.81-.89-2.09-1.28-3a.76.76,0,0,0-.18.09c-.28.17-.37.53-.53.83l.33.45C100.76,95.18,101,95.49,101.31,95.85Z"/><path class="cls-25" d="M102.78,94a2.62,2.62,0,0,1,.09.38c0,.23.09.56.16.91s.12.59.17.81,0,.14.07.2l.28-.09a5,5,0,0,1-.09-.56,2.16,2.16,0,0,1,0-.57,1.59,1.59,0,0,1,.14.56c0,.12,0,.22,0,.31,0-.87,0-2,0-2.89a6.21,6.21,0,0,0-.47.7.45.45,0,0,1-.34.2v0Z"/><path class="cls-25" d="M104.91,94.86c0,.5,0,.92,0,1.14a1.88,1.88,0,0,1,.34,0,2.64,2.64,0,0,0,.37-.94c.15-.59.36-1.54.52-2.24a.8.8,0,0,0-.3.09c-.26.14-.57.77-.74.77a.19.19,0,0,1-.15-.08v1.24Z"/><path class="cls-5" d="M109.92,99.37l.83-.29.83-.31.21-.09c.08,0,.12-.06.12-.07a1.61,1.61,0,0,0-.36.1l-.83.29c-.33.12-.62.23-.82.32a1.66,1.66,0,0,0-.33.15h0A1.54,1.54,0,0,0,109.92,99.37Z"/><path class="cls-5" d="M110.2,101h-.1a2.29,2.29,0,0,0-.37,0,3.55,3.55,0,0,0,.47.06l1.13.08.69.05.38,0v-.06c-.29,0-.66-.07-1.08-.1S110.5,101,110.2,101Z"/><path class="cls-5" d="M110.91,103.13a12.75,12.75,0,0,0-1.43-.72,3,3,0,0,0,.45.28l.94.51c.44.24.85.44,1.1.57v-.06l-.15-.09Z"/><path class="cls-26" d="M104.84,108.68a3.86,3.86,0,0,0,.09-.49c0-.1,0-.22.06-.34s.07-.53.11-.84.06-.45.08-.66a.92.92,0,0,0,0-.52,0,0,0,0,0,0,0,.49.49,0,0,0-.17-.18h.1a4.83,4.83,0,0,0,2.21-.7c.09,0,.18-.12.27-.18a4.25,4.25,0,0,0,.86-.78,2.2,2.2,0,0,0,.2-.23c.06,0,.19.16.39.3l1,.77.88.61.2.14.09.06,0,0-.1-.07c-.27-.2-.64-.48-1.06-.77s-.79-.56-1.07-.75l-.05,0-.36-.24,0,0a4.64,4.64,0,0,0,.49-.83,4,4,0,0,0,.2-.48,5.09,5.09,0,0,0,.23-1l0-.42v-.14a5.06,5.06,0,0,0-.17-1.28,4.76,4.76,0,0,0-.46-1.09l-.06-.11a.49.49,0,0,1,0-.21c.09-.22.4-.37.71-.57l.82-.48a1.85,1.85,0,0,0,.33-.21h0l-.32.15c-.22.11-.51.26-.83.46-.16.09-.31.19-.44.28A.92.92,0,0,0,109,98a.3.3,0,0,0-.06.11.5.5,0,0,0,0,.16.83.83,0,0,1-.08-.12A4.86,4.86,0,0,0,107.74,97l-.1-.07a.37.37,0,0,1,.12-.2c.19-.2.46-.47.74-.78l.72-.81a1.6,1.6,0,0,0,.28-.35,2.34,2.34,0,0,0-.32.31c-.2.2-.46.48-.74.79l-.46.5-.26.31a.39.39,0,0,0-.11.17h0s0,0,0,0h0a4.82,4.82,0,0,0-1.07-.58l-.26-.09a4.68,4.68,0,0,0-1-.21l-.34,0c0-.22,0-.64,0-1.13s0-1,0-1.18v-.08l0,0c0,.1,0,.63-.06,1.27V96h-.06a4.8,4.8,0,0,0-1.19.16h0a.66.66,0,0,0,0-.14v-.12c0-.09,0-.2,0-.31a1.33,1.33,0,0,0-.15-.56,2.76,2.76,0,0,0,.06.57,3.63,3.63,0,0,0,.09.56l-.28.08h0a.52.52,0,0,0,0-.11s0-.07,0-.1c0-.22-.11-.5-.17-.81s-.12-.67-.17-.9a1.61,1.61,0,0,0-.08-.38v0c0,.12,0,.24,0,.36s.07.57.14.92a8.51,8.51,0,0,0,.22.9s0,.08,0,.12a4.61,4.61,0,0,0-.87.41l-.24.15s-.34-.45-.77-1l-.67-.84c-.07-.09-.12-.14-.12-.13a1.44,1.44,0,0,0,.19.31c.13.19.31.44.53.71l.41.5.17.18a2.13,2.13,0,0,0,.26.26l-.06,0a5,5,0,0,0-.9.82l-.3-.43-.21-.3a1.94,1.94,0,0,0-.26-.31,2.77,2.77,0,0,0,.4.66c.12.17.23.31.32.42h0l-.18.24-.07,0c-.2-.16-.48-.37-.78-.62s-.55-.49-.73-.67L99,96.37a1.26,1.26,0,0,0,.25.31v0A9.35,9.35,0,0,0,100.81,98l.08,0a5.06,5.06,0,0,0-.51.91l-.36-.23-.27-.17a6.15,6.15,0,0,0-.85-.43,4.51,4.51,0,0,0,.8.51l.66.36a2.49,2.49,0,0,0-.11.29l0,0a.28.28,0,0,1-.18,0,4.59,4.59,0,0,1-.9-.24L98.92,99c-.27-.1-.51-.21-.73-.31l-.35-.17a2.88,2.88,0,0,0-.45-.19l0,0c.06,0,.19.12.38.22a9.4,9.4,0,0,0,1.07.5,5.16,5.16,0,0,0,1,.29l.14,0a.65.65,0,0,0,.19,0,.36.36,0,0,0,0,.11,5.16,5.16,0,0,0-.18,1.1v.4a4.6,4.6,0,0,0,.18,1.17l.09.26a4.82,4.82,0,0,0,.54,1.09c.05.08.11.15.16.22a4.67,4.67,0,0,0,.85.87l-.07.05a4.12,4.12,0,0,0-.37.27,2.13,2.13,0,0,0-.48.42,2.12,2.12,0,0,0,.53-.35,5,5,0,0,0,.42-.36l.33.23c-.11.1-.43.45-.81.86s-.66.69-.78.83-.06.07,0,.08a2,2,0,0,0,.28-.23c.17-.16.38-.37.61-.62s.41-.46.55-.63l0,0a2.75,2.75,0,0,0,.19-.25h0a5.22,5.22,0,0,0,.88.45l.06.09a1,1,0,0,1,.07.34,1.46,1.46,0,0,1-.12.51,6.19,6.19,0,0,1-.28.6c-.21.42-.41.79-.57,1.06s-.17.29-.21.36h0c0-.06.14-.18.24-.33a12,12,0,0,0,.59-1.06,6.5,6.5,0,0,0,.28-.61,1.58,1.58,0,0,0,.1-.43v-.11a1,1,0,0,0-.09-.33l0,0,0,0a4.81,4.81,0,0,0,1.5.29h.27a.39.39,0,0,1,.17.25,1.06,1.06,0,0,1,0,.5l-.1.66c-.06.46-.11.88-.14,1.18m-.08-3.15a4.22,4.22,0,1,1,4.22-4.22h0A4.22,4.22,0,0,1,104.79,105Z"/><path class="cls-5" d="M108.52,106.14v0l-.34-.6a2,2,0,0,0-.34-.46l0,0a.36.36,0,0,0-.35,0,.18.18,0,0,0-.09.11.22.22,0,0,1,.11-.08.3.3,0,0,1,.32.08,1.59,1.59,0,0,1,.3.46c.11.18.22.38.34.59.25.43.47.81.64,1.08l.07.11a.19.19,0,0,1,0-.07l0-.07C109,106.93,108.76,106.55,108.52,106.14Z"/><path class="cls-5" d="M106.73,106.9l.28,1a2,2,0,0,0,.13.39,1.85,1.85,0,0,0-.07-.41c0-.18-.1-.41-.17-.67,0-.09-.06-.2-.09-.3-.11-.38-.22-.72-.31-1a1.8,1.8,0,0,0-.16-.38.62.62,0,0,0,0,.09c0,.05.05.17.09.31S106.62,106.55,106.73,106.9Z"/><path class="cls-5" d="M100.82,103.69c0-.08-.1-.08-.1-.07s0,0,.07.08a.24.24,0,0,1,0,.12.29.29,0,0,1-.1.12c-.21.15-.53.34-.87.56l-.41.27-.45.3a2,2,0,0,0-.34.26,2.82,2.82,0,0,0,.38-.21l.87-.55a9,9,0,0,0,.86-.58.26.26,0,0,0,.1-.13s0,0,0,0A.22.22,0,0,0,100.82,103.69Z"/><path class="cls-5" d="M100.15,102.42a.28.28,0,0,0,.06-.11,1,1,0,0,1-.36.24c-.13,0-.29.08-.47.13l-.58.16-.68.18-.37.11a3.12,3.12,0,0,0-.43.15,1.8,1.8,0,0,0,.45-.09l1-.27.58-.16a3.68,3.68,0,0,0,.47-.15l.14-.08Z"/><path class="cls-5" d="M99.87,100.92a2.1,2.1,0,0,0-.43,0h-1l-1,0H97a.31.31,0,0,0,.13,0l.29,0c.26,0,.63,0,1,.06h.39a6,6,0,0,0,.64,0A2.09,2.09,0,0,0,99.87,100.92Z"/><path class="cls-5" d="M106.33,96.18a13.23,13.23,0,0,0,.58-1.42c.17-.46.32-.87.41-1.13l0,0c-.11.26-.27.67-.44,1.13A13.76,13.76,0,0,0,106.33,96.18Z"/><circle class="cls-27" cx="104.79" cy="100.81" r="4.22"/><path class="cls-5" d="M104.33,108.71s.23,3.44.45,7.69.39,7.69.36,7.7-.22-3.45-.45-7.69S104.31,108.71,104.33,108.71Z"/><path class="cls-25" d="M105.12,98.44l.59,1.2a.21.21,0,0,0,.15.11l1.33.2a.2.2,0,0,1,.16.23.16.16,0,0,1,0,.1l-1,.94a.19.19,0,0,0-.06.18l.23,1.32a.2.2,0,0,1-.16.23.19.19,0,0,1-.13,0l-1.19-.62a.21.21,0,0,0-.19,0l-1.18.62a.21.21,0,0,1-.28-.08.3.3,0,0,1,0-.13l.23-1.32a.19.19,0,0,0-.06-.18l-1-.94a.2.2,0,0,1,0-.28.16.16,0,0,1,.11,0l1.32-.2a.19.19,0,0,0,.15-.11l.6-1.2a.2.2,0,0,1,.27-.09A.2.2,0,0,1,105.12,98.44Z"/><polygon class="cls-28" points="82.07 54.53 82.99 56.8 85.43 56.98 83.56 58.56 84.14 60.94 82.07 59.65 79.98 60.94 80.57 58.56 78.69 56.98 81.14 56.8 82.07 54.53"/><polygon class="cls-29" points="82.06 43.38 82.81 45.31 84.79 45.47 83.27 46.81 83.75 48.84 82.06 47.73 80.38 48.84 80.85 46.81 79.33 45.47 81.32 45.31 82.06 43.38"/><polygon class="cls-30" points="26.04 44.22 26.79 46.15 28.77 46.3 27.25 47.64 27.73 49.67 26.04 48.56 24.36 49.67 24.83 47.64 23.31 46.3 25.29 46.15 26.04 44.22"/><polygon class="cls-29" points="45.57 7.99 46.15 9.41 47.67 9.52 46.5 10.51 46.87 12 45.57 11.19 44.27 12 44.63 10.51 43.46 9.52 44.99 9.41 45.57 7.99"/><polygon class="cls-31" points="78.69 8.15 79.62 10.42 82.06 10.6 80.19 12.18 80.78 14.55 78.69 13.27 76.61 14.55 77.2 12.18 75.33 10.6 77.77 10.42 78.69 8.15"/><polygon class="cls-30" points="78.69 21.45 80 24.65 83.43 24.9 80.8 27.12 81.63 30.47 78.69 28.65 75.77 30.47 76.59 27.12 73.95 24.9 77.4 24.65 78.69 21.45"/><polygon class="cls-31" points="25.32 9.3 26.34 11.82 29.05 12.01 26.98 13.76 27.63 16.4 25.32 14.97 23.01 16.4 23.66 13.76 21.58 12.01 24.29 11.82 25.32 9.3"/><polygon class="cls-32" points="68.91 57.39 70.11 60.29 73.27 60.52 70.84 62.54 71.61 65.57 68.91 63.91 66.21 65.57 66.97 62.54 64.54 60.52 67.72 60.29 68.91 57.39"/><polygon class="cls-32" points="66.62 15.98 67.25 17.5 68.91 17.62 67.63 18.68 68.04 20.27 66.62 19.4 65.21 20.27 65.6 18.68 64.33 17.62 66 17.5 66.62 15.98"/><polygon class="cls-28" points="166.68 38.33 168.03 41.65 171.59 41.91 168.86 44.22 169.72 47.69 166.68 45.8 163.63 47.69 164.49 44.22 161.75 41.91 165.34 41.65 166.68 38.33"/><polygon class="cls-29" points="146.14 45.61 146.88 47.49 148.8 47.64 147.32 48.95 147.79 50.92 146.14 49.85 144.5 50.92 144.96 48.95 143.48 47.64 145.42 47.49 146.14 45.61"/><polygon class="cls-30" points="152.83 34.25 153.56 36.13 155.49 36.28 154 37.59 154.47 39.57 152.83 38.49 151.18 39.57 151.64 37.59 150.16 36.28 152.1 36.13 152.83 34.25"/><polygon class="cls-30" points="164.74 14.14 165.47 16.03 167.4 16.18 165.92 17.49 166.38 19.46 164.74 18.39 163.1 19.46 163.56 17.49 162.08 16.18 164.01 16.03 164.74 14.14"/><polygon class="cls-30" points="54.18 9.86 54.59 10.91 55.68 11 54.84 11.74 55.11 12.85 54.18 12.24 53.26 12.85 53.52 11.74 52.68 11 53.77 10.91 54.18 9.86"/><polygon class="cls-30" points="157.42 50.8 157.79 51.74 158.75 51.81 158.01 52.47 158.24 53.45 157.42 52.92 156.6 53.45 156.83 52.47 156.09 51.81 157.06 51.74 157.42 50.8"/><polygon class="cls-29" points="177.57 29.2 178.13 30.59 179.62 30.7 178.48 31.66 178.84 33.11 177.57 32.33 176.3 33.11 176.65 31.66 175.51 30.7 177 30.59 177.57 29.2"/><polygon class="cls-28" points="13.96 17.37 14.88 19.64 17.33 19.82 15.45 21.4 16.05 23.77 13.96 22.48 11.88 23.77 12.47 21.4 10.6 19.82 13.04 19.64 13.96 17.37"/><polygon class="cls-28" points="189.97 26.36 190.79 28.38 192.96 28.53 191.3 29.93 191.82 32.04 189.97 30.9 188.12 32.04 188.65 29.93 186.98 28.53 189.16 28.38 189.97 26.36"/><polygon class="cls-30" points="184.13 39.46 185.02 41.63 187.37 41.8 185.56 43.32 186.13 45.61 184.13 44.37 182.13 45.61 182.7 43.32 180.9 41.8 183.25 41.63 184.13 39.46"/><polygon class="cls-31" points="165.22 26.96 166.02 28.93 168.14 29.08 166.51 30.45 167.03 32.52 165.22 31.4 163.41 32.52 163.91 30.45 162.29 29.08 164.41 28.93 165.22 26.96"/><polygon class="cls-32" points="150.95 21.09 152.12 23.92 155.2 24.15 152.83 26.11 153.58 29.08 150.95 27.46 148.32 29.08 149.05 26.11 146.69 24.15 149.78 23.92 150.95 21.09"/><polygon class="cls-32" points="17.33 29.17 18.65 32.36 22.12 32.61 19.45 34.83 20.3 38.16 17.33 36.34 14.37 38.16 15.2 34.83 12.54 32.61 16.02 32.36 17.33 29.17"/><polygon class="cls-32" points="177.68 18.74 178.31 20.26 179.96 20.38 178.69 21.43 179.09 23.02 177.68 22.15 176.27 23.02 176.66 21.43 175.39 20.38 177.05 20.26 177.68 18.74"/></svg>