<svg id="Layer_1" data-name="Layer 1" xmlns="http://www.w3.org/2000/svg" xmlns:xlink="http://www.w3.org/1999/xlink" viewBox="0 0 205.83 138.61"><defs><style>.cls-1{fill:none;}.cls-2{clip-path:url(#clip-path);}.cls-3{fill:#50939e;}.cls-4{clip-path:url(#clip-path-2);}.cls-5{fill:#a66e53;}.cls-6{fill:#283f3f;}.cls-7{fill:#010101;}.cls-8{fill:#231f20;}.cls-9{fill:#151210;}.cls-10{fill:#653c29;}.cls-11{fill:#31160e;}.cls-12{fill:#f1eef7;}.cls-13{fill:#fff;opacity:0.14;}.cls-14{fill:#273238;}.cls-15{fill:#161312;}.cls-16{fill:#ebebeb;}.cls-17{fill:#16465b;}.cls-18{fill:#273339;}.cls-19{fill:#4f2e25;}.cls-20{fill:#7f65ac;}.cls-21{opacity:0.5;}.cls-22{fill:#ffce07;}.cls-23{fill:#cb892a;}.cls-24{fill:#022f3d;}.cls-25{fill:#ffefaf;}.cls-26{fill:#5bc6d0;}.cls-27{fill:#ffce09;}.cls-28{fill:#ea2754;}.cls-29{fill:#f39e24;}.cls-30{fill:#5954a4;}</style><clipPath id="clip-path"><rect class="cls-1" x="-20.51" y="-179.45" width="246.86" height="141.24"/></clipPath><clipPath id="clip-path-2"><rect class="cls-1" x="-14.51" y="-2.81" width="246.86" height="141.24"/></clipPath></defs><g class="cls-2"><path class="cls-3" d="M74.14-110.76S55.14-106.1,49-99c-9,10.35-9.83,53.13-11.48,63.12s3,50.39,3,50.39S51.54,16.6,55,14.09L58.25-35,63.52-75.8Z"/><g id="freepik--Character--inject-1209"><path class="cls-3" d="M72.6-109.06l8.91-4.16s.81,10.73,15.91,10.2c14.94-.53,15.21-9.91,15.25-10a15.11,15.11,0,0,1,2.56-.09c1.31,0,2.62.1,3.93,0a74.26,74.26,0,0,1,8.57,0c2.52.12,5.26.18,7.6,1.25a20.14,20.14,0,0,1,9.53,9.58c.2.49,1.4,3.47,1.53,4l6.71,15.5,7.19-25.55.45,1a17.09,17.09,0,0,0,11.63.77l1.41-1s-3.73,45.61-5,52.11c-3.13,9.72-7.1,16.5-18.23,11.17-3.62-1.73-8.17-7.68-12.14-13.9L138-32.33s2.38,30.2,3.65,40.11c.19,1.57-19.4,6.5-20.59,6.7-9.36,1.6-29,1.73-38.47.41-1.36-.19-21.83-1.78-21.83-9.34,0-.54.84-71.33.84-71.33Z"/></g><path class="cls-3" d="M83.58,1.35c-2-.81-3.84-1.77-5.73-2.72S74-3.16,72.11-4.16a51,51,0,0,1-6.42-4.06C66.43-15.9,67.15-22,67.15-22L59.52-86.39c.09-5.87.31-11.76.25-17.63,0-.53,5.47-2.76,6.19-3.1,2.32-1.12,4.66-2.18,7-3.2s5.17-1.55,7.58-2.46c1.08-.41.27,1.24.79,2.26.25.48,1.26,1.18,1.26,1.73l5.73,48.42c.17,4,1.45,21.11,1.45,21.15-.07,1.66,1.42,25.73.84,31.53A55.13,55.13,0,0,1,88.15,2.77,20.55,20.55,0,0,1,83.58,1.35Z"/></g><g class="cls-4"><path class="cls-5" d="M90.89,48.91l-.74,13.8c-.49,1.17-15.77,8.19-15.77,8.19l34.74,11.95L133.49,70.9l-17.27-7.72-.47-13.4"/><path class="cls-3" d="M80.14,65.88S61.14,70.54,55,77.67C46,88,45.13,130.8,43.48,140.79s3,50.39,3,50.39,11.08,2.06,14.5-.45l3.29-49.13,5.27-40.76Z"/><g id="freepik--Character--inject-1209-2" data-name="freepik--Character--inject-1209"><path class="cls-3" d="M162.14,117.67A102.14,102.14,0,0,0,158.59,104c-1-3.32-1.94-6.7-3.16-10-1.67-4.47-.77,3.7-3.88,1.17-1.44,11.4-9.07,22.3-11.54,33.52a23.24,23.24,0,0,0,5.72,4.57,19.39,19.39,0,0,0,11.3.82,7.85,7.85,0,0,0,3.19-1.8c3.05-2.89,2.57-9.55,2.11-13.3C162.28,118.59,162.21,118.13,162.14,117.67Z"/><path class="cls-3" d="M144.4,118.51c1.63,2.55,3.36,5.06,5.08,7.25,2.8-11.21,7.44-22.05,8.3-33.58a.41.41,0,0,1,0-.43c0-.27,0-.53,0-.8l-.19-.44c-1.48-2.37,1.64,5.27,0,3-2.07-2.89-1.53-5.29-4.16-7.67s-3.54-10-11.1-14.72c-5.63-3.51-16.92-6.92-23.55-7l-.24,0c-.32,2-2.28,9-15.19,9.48-15.1.53-15.91-10.2-15.91-10.2L78.6,67.58l-11,43.28s-.84,70.79-.84,71.33c0,7.56,20.47,9.15,21.83,9.34,9.47,1.32,29.11,1.19,38.47-.41,1.19-.2,20.78-5.13,20.59-6.7-1.27-9.91-3.65-40.11-3.65-40.11Z"/></g><path class="cls-3" d="M89.58,178c-2-.81-3.84-1.77-5.73-2.72s-3.86-1.79-5.74-2.79a51,51,0,0,1-6.42-4.06c.74-7.68,1.46-13.8,1.46-13.8L65.52,90.25c.09-5.87.31-11.76.25-17.63,0-.54,5.47-2.76,6.19-3.1,2.32-1.12,4.66-2.18,7-3.2s5.17-1.55,7.58-2.46c1.08-.41.27,1.24.79,2.26.25.48,1.26,1.18,1.26,1.73l5.73,48.42c.17,4,1.45,21.11,1.45,21.15-.07,1.66,1.42,25.73.84,31.53a55.13,55.13,0,0,1-2.49,10.46A20.55,20.55,0,0,1,89.58,178Z"/><polygon class="cls-6" points="144.4 118.5 146.86 87.21 145.82 120.69 144.4 118.5"/><polygon class="cls-6" points="67.71 115.04 66.38 87.33 66.13 105.72 66.71 121.86 67.71 115.04"/><polygon class="cls-6" points="145.38 133.14 143.73 98.78 143.47 117.16 144.16 132.47 145.38 133.14"/><path class="cls-5" d="M87.44,32.76s-2-3.93-3.41-3.93c-.84,0-2.86,2.25-2.84,4.39,0,2.86,2,6.12,2.52,7.79s.41,4.07,2.64,4.05c.88,0,2-1.85,2-1.85S87.9,35.36,87.44,32.76Z"/><path class="cls-7" d="M86.85,36.63a19.73,19.73,0,0,0-1.78-3.13,6.49,6.49,0,0,0-1.3-1.37,1.79,1.79,0,0,0-.69-.34.51.51,0,0,0-.42.06,1,1,0,0,0-.28.4,4.58,4.58,0,0,0-.19,3.18c0,.23.63.08.58-.15a4.71,4.71,0,0,1,0-2.47,2.59,2.59,0,0,1,.24-.6,1,1,0,0,1,.1-.17s.07-.09,0,0l-.35.12h0s-.07,0,0,0l.08,0h0l.11,0a2.26,2.26,0,0,1,.26.16,6.69,6.69,0,0,1,1.67,1.92,21.23,21.23,0,0,1,1.35,2.48c.11.22.68,0,.58-.16Z"/><path class="cls-7" d="M85.92,37c-1.73-.06-.74,2-.89,3,0,0,0,.1,0,.12s0,0,0,0a2.34,2.34,0,0,1,.26,0s-.22-.34-.23-.37a6.67,6.67,0,0,1-.41-1.47,5.72,5.72,0,0,1-.12-1.75c.07-.66.23-1.66.92-2,.37-.16,0-.46-.25-.33A2.35,2.35,0,0,0,84,36a5.18,5.18,0,0,0-.08,1.62,11.49,11.49,0,0,0,.4,1.83c.1.29.22.73.5.9a.55.55,0,0,0,.77-.26,1.63,1.63,0,0,0,0-.85c0-.29-.42-1.89.12-1.87.13,0,.32,0,.38-.18a.18.18,0,0,0-.18-.24Z"/><path class="cls-5" d="M120.16,32.76s2-3.93,3.41-3.93c.84,0,2.87,2.25,2.84,4.39,0,2.86-2,6.12-2.52,7.79s-.41,4.07-2.64,4.05c-.88,0-2-1.85-2-1.85S119.7,35.36,120.16,32.76Z"/><path class="cls-7" d="M121.31,36.73a16.33,16.33,0,0,1,2.17-3.61,5.23,5.23,0,0,1,.72-.7l.29-.2c.05,0-.06,0,0,0l0,0,.1-.05c.06,0-.08,0,0,0h0c.06,0,.08,0,0,0h0l-.16-.06a2.2,2.2,0,0,1,.38.82,4.78,4.78,0,0,1,0,2.49c-.06.23.53.15.59-.07a4.68,4.68,0,0,0-.12-3c-.11-.26-.22-.6-.55-.56a3.6,3.6,0,0,0-2,1.55,17.4,17.4,0,0,0-2,3.36c-.13.27.45.23.54,0Z"/><path class="cls-7" d="M121.76,37.4c.64,0,.35,1.22.29,1.58s-.29,1.53.44,1.48c.35,0,.55-.37.67-.66a7.73,7.73,0,0,0,.45-1.63,5.64,5.64,0,0,0,.07-1.92,2.5,2.5,0,0,0-1.19-2.12c-.26-.11-.67.26-.33.41.62.27.82,1.09.92,1.7a4.7,4.7,0,0,1,0,1.45,11,11,0,0,1-.38,1.7,2.83,2.83,0,0,1-.23.54s-.09.09-.09.12l.07,0c.44.13.14,0,.14,0s-.06-.18-.06-.26a3,3,0,0,1,0-.43c0-.34.1-.67.13-1a1.77,1.77,0,0,0-.1-1,.8.8,0,0,0-.82-.39c-.34,0-.44.46,0,.44Z"/><path class="cls-5" d="M122.12,34.64c-.29,3.12-.89,6-1,9.29s-.41,7.54-.92,8.75c-.26.62-1.07,1.18-1.55,1.64a32.36,32.36,0,0,1-9.38,6.51c-1.49.61-5.35.61-5.35.61s-3.85,0-5.34-.61a32.82,32.82,0,0,1-5.83-3.67c-1.82-1.25-4.07-2.79-5.26-4.69a4.81,4.81,0,0,1-.39-2c-.24-2.16-.28-4.34-.37-6.51-.14-3.27-.75-6.17-1-9.29S85,18.56,86,16.07s11.84-9.14,17.94-9.14c4.29,0,10.94,3.28,14.85,6.1a9.32,9.32,0,0,1,3.09,3C122.76,18.56,122.4,31.52,122.12,34.64Z"/><path class="cls-8" d="M105,42.74a1.71,1.71,0,0,1-2-.13c-.12-.1-.55,0-.38.16a2.5,2.5,0,0,0,2.85,0c.07-.06.06-.13,0-.17s-.38.09-.46.15"/><path class="cls-8" d="M102.34,42.39a4.33,4.33,0,0,0-1.64-.12.32.32,0,0,0-.22.13c0,.05,0,.12,0,.14a1.59,1.59,0,0,0,.89.05.32.32,0,0,0,.25-.17c0-.08-.07-.12-.14-.1a1.35,1.35,0,0,1-.72,0c-.07.09-.13.18-.2.26a3.83,3.83,0,0,1,1.47.12.32.32,0,0,0,.28-.09s.09-.15,0-.18"/><path class="cls-8" d="M105.79,42.52a4.32,4.32,0,0,1,1.64-.14.34.34,0,0,1,.22.13.08.08,0,0,1,0,.14,1.59,1.59,0,0,1-.89.05.29.29,0,0,1-.25-.16c0-.09.07-.12.14-.11a1.26,1.26,0,0,0,.72,0l.2.27a3.84,3.84,0,0,0-1.47.13.3.3,0,0,1-.28-.09c-.05,0-.1-.14,0-.17"/><path class="cls-8" d="M100.18,42.64a1.7,1.7,0,0,1-1.44-.85,1.85,1.85,0,0,1,.65-2.25c.07,0,0-.12,0-.14a.38.38,0,0,0-.29.07,2.13,2.13,0,0,0-.88,1.91,1.68,1.68,0,0,0,1.25,1.39,2.36,2.36,0,0,0,.59.11c.09,0,.23,0,.27-.11s0-.12-.11-.13"/><path class="cls-8" d="M108,42.66a1.71,1.71,0,0,0,1.44-.84,1.84,1.84,0,0,0-.65-2.25c-.07-.06,0-.13,0-.15a.34.34,0,0,1,.29.08,2.11,2.11,0,0,1,.88,1.91,1.68,1.68,0,0,1-1.25,1.38,2.36,2.36,0,0,1-.6.11c-.08,0-.22,0-.26-.11s0-.12.11-.13"/><path class="cls-9" d="M95.09,31.21a1.44,1.44,0,0,0-1.55.28,1.51,1.51,0,0,0-.42.65,1.44,1.44,0,0,0,.34,1.3,1.32,1.32,0,0,0,1.52.27A1.47,1.47,0,0,0,95.71,32a1.34,1.34,0,0,0-.62-.79"/><path class="cls-9" d="M113.3,31.21a1.46,1.46,0,0,1,1.55.28,1.51,1.51,0,0,1,.42.65,1.44,1.44,0,0,1-.34,1.3,1.33,1.33,0,0,1-1.53.27,1.48,1.48,0,0,1-.72-1.71,1.34,1.34,0,0,1,.62-.79"/><path class="cls-9" d="M108.62,33.42s3.16-2.3,4.78-2.45c2.35-.21,5.26,1,6.1,2.08,0,0-3.85-1.81-5.51-1.61A28.5,28.5,0,0,0,108.62,33.42Z"/><path class="cls-9" d="M100,33.28s-3.16-2.3-4.78-2.45c-2.35-.22-5.26,1-6.1,2.07,0,0,3.85-1.8,5.51-1.6A27.8,27.8,0,0,1,100,33.28Z"/><path class="cls-9" d="M100.14,25c0,.56,0,1.13,0,1.69s0,1.41,0,1.84c-1.27-.37-2.41-.92-3.22-1.08A14.18,14.18,0,0,0,92,26.94a5.2,5.2,0,0,0-2.14.77c-.21.13-.77.73-1.08.57-.12-.06.09-.75.11-.83a3.48,3.48,0,0,1,2.9-2.29,21.91,21.91,0,0,1,8.35-.18"/><path class="cls-9" d="M108.52,25c0,.56,0,1.13,0,1.69s0,1.21,0,1.64c1.24-.37,2.32-.81,3.12-1a14,14,0,0,1,4.89-.4,5,5,0,0,1,2.1.77c.21.13.76.73,1.06.57.13-.06-.08-.75-.1-.83a3.45,3.45,0,0,0-2.86-2.29,21.2,21.2,0,0,0-8.21-.18"/><path class="cls-9" d="M87.08,50.59a6,6,0,0,0,1.56,2c2.47,1.65,7.3,4,8.73,5.05a6.91,6.91,0,0,0,2.11,1.22,21.64,21.64,0,0,1,4.58-.76,11,11,0,0,1,4.4.86s8.13-5.18,10.65-6.46c.18-.09,1.34-1.53,1.45-1.57s1,2-4.64,5.8c-3.9,2.67-4.92,3.94-8,4.59s-7.43.44-9.33-.45c-2.94-1.37-9.69-6.35-10.74-7.66A5.26,5.26,0,0,1,87.08,50.59Z"/><path class="cls-9" d="M101.51,51.3l5.77-.22c-.13.32-.58,2.72-3,2.47C102.07,53.32,102.54,52.26,101.51,51.3Z"/><path class="cls-10" d="M104.33,46.83c-2.83,0-7.42-.33-7.42-.33S97.76,52,104.33,52s7.43-5.46,7.43-5.46S107.17,46.83,104.33,46.83Z"/><path class="cls-11" d="M104.36,46.83c-1.35,0-6.78-.22-6.78-.22s1.8,2.89,6.67,2.89c5.29,0,6.84-2.85,6.84-2.85Z"/><path class="cls-12" d="M104.42,47C103.07,47,99,46.8,99,46.8s1.48,1.44,5.52,1.44,5.33-1.4,5.33-1.4Z"/><path class="cls-10" d="M112.06,46.1a10,10,0,0,1-1.6.16c-1.11-.09-2.46-.37-3.27-.43a12.1,12.1,0,0,0-2.86.42,12,12,0,0,0-2.85-.42c-.81.06-2.16.34-3.27.43a9.83,9.83,0,0,1-1.6-.16c-.2,0,.19,1.47,7.73,1.47S112.26,46.15,112.06,46.1Z"/><path class="cls-9" d="M103.41,44l-.2,1.3a.46.46,0,0,1-.39.36c-1.32.18-6.35.87-7.54.85h-.09l-.37.33c-.45-.08.08-1.34.51-1.51a31.32,31.32,0,0,1,3.21-1.12,27.28,27.28,0,0,1,4.43-.75A.47.47,0,0,1,103.41,44Z"/><path class="cls-9" d="M104.67,44l.37,1.34a.46.46,0,0,0,.39.36c1.32.17,6.49.4,7.55.78a.14.14,0,0,0,.09,0l.38-.08c.45-.09.14-1-.29-1.13a27.69,27.69,0,0,0-3.47-1.06,29.13,29.13,0,0,0-4.59-.75A.46.46,0,0,0,104.67,44Z"/><path class="cls-13" d="M117.75,37.4a38.55,38.55,0,0,0,2.83-6.29c-3.53-1.86-9.88-1.29-13.21.6.41,1.81.88,5,1.9,5.64,1.46,1,8,.69,8.48,0Z"/><path class="cls-13" d="M91,37.4c.47.64,7,.92,8.48,0,1-.67,1.49-3.83,1.91-5.64-3.33-1.89-9.69-2.46-13.21-.6A38.5,38.5,0,0,0,91,37.4Z"/><path class="cls-14" d="M85.53,32.64l2.13-.45.28.72a25.84,25.84,0,0,0,2.18,4.84c.74,1,8.22,1,9.64.07s1.89-4.55,2.24-5.94a8.36,8.36,0,0,1,2.42-.56,13.07,13.07,0,0,1,2.28.41c.34,1.26.93,5.19,2.28,6.09s8.9,1,9.64-.07a26.53,26.53,0,0,0,2.17-4.84l.29-.72a.78.78,0,0,1,0-.34l2.2.47.17-.61L121.34,31c.08-.21.17-.43.26-.64l-1.71-.59c-4-1.8-9.69-.95-13.1,1a9.85,9.85,0,0,0-2.37-.35,12,12,0,0,0-2.48.34c-3.42-2-9.13-2.82-13.09-1l-1.71.59q.19.46.36,1L85.36,32Zm21.84-.93c3.33-1.89,9.68-2.46,13.21-.6a38.55,38.55,0,0,1-2.83,6.29c-.46.64-7,.92-8.48,0C108.25,36.68,107.78,33.52,107.37,31.71Zm-19.21-.6c3.52-1.86,9.88-1.29,13.21.6-.42,1.81-.89,5-1.91,5.64-1.46,1-8,.69-8.48,0A38.5,38.5,0,0,1,88.16,31.11Z"/><path class="cls-9" d="M122.12,34.64s-.39-14-.34-16.29-7-8.29-10.69-9.59,4.2-.87,6.13-.51,2.06,1.57,2.06,1.57a3.15,3.15,0,0,1,1.76.72l.51.6s1.57.36,1.63,1.08.27,2.29.27,2.29,1.24-.42,1.24,1.38.08.92.08.92,1,1.18.54,2.14-.35.85-.35.85a5,5,0,0,1,.46,1.09,9.42,9.42,0,0,1-.11,5.18,8.76,8.76,0,0,0-.72,3.34Z"/><path class="cls-9" d="M85.58,34.64s.4-14,.35-16.29,7-8.29,10.69-9.59-4.1-.89-6.13-.51-2.07,1.57-2.07,1.57a3.18,3.18,0,0,0-1.76.72l-.51.6s-1.56.36-1.62,1.08-.28,2.29-.28,2.29S83,14.09,83,15.89s-.07.92-.07.92S81.88,18,82.39,19s.35.85.35.85a5.36,5.36,0,0,0-.45,1.09,9.31,9.31,0,0,0,.1,5.18,8.66,8.66,0,0,1,.73,3.34Z"/><path class="cls-9" d="M117.05,8.29S114.55,6.92,113.8,7a1.59,1.59,0,0,0-1.1.63s-.26-1-1.18-.87a6.32,6.32,0,0,0-1.26.24s-.64-.77-1.05-.77-1,.53-1,.53a1,1,0,0,0-1-.53c-.7.12-.87.47-.87.47a1,1,0,0,0-1.1-.48,3.29,3.29,0,0,0-1.19.54s-.73-.85-1.19-.57l-.47.28s-.52-.73-.93-.34a4.56,4.56,0,0,1-.69.57s-.18-.35-.76-.23a1.91,1.91,0,0,0-.81.3,3,3,0,0,0-1-.14c-.46,0-.52.57-.52.57a.77.77,0,0,0-1.12-.43l-.79.43a6.2,6.2,0,0,0-1.57.6c-.52.35-.29,1.45-.29,1.45l-3.12,3.15a23.32,23.32,0,0,1,12.82-3.62,30.92,30.92,0,0,1,13.83,3.36Z"/><path class="cls-9" d="M108.62,8.57a2.87,2.87,0,0,1,1.26.37.42.42,0,0,1-.11.78c-.43.14-1.08-.1-1.39.15s.3.68.1,1-.51.27-.76.42-.41.45-.69.64a1.48,1.48,0,0,1-1.14.14c-.38-.11-.64-.37-.62-.64a.44.44,0,0,0,0-.2c-.17-.32-1.05,0-1.4-.22-.16-.11-.12-.28-.18-.43a1,1,0,0,0-.3-.33l-.85-.7a.74.74,0,0,1-.25-.28c-.1-.23.14-.47.45-.59a3.67,3.67,0,0,1,1.06-.16c1.44-.06,2.89-.09,4.34-.08"/><path class="cls-9" d="M98.93,8.31a2.62,2.62,0,0,0-1.26.42.52.52,0,0,0,.1.91c.44.15,1.09-.12,1.4.17s-.3.78-.1,1.16c.12.23.51.3.76.47s.4.52.69.74a1.3,1.3,0,0,0,1.14.16.81.81,0,0,0,.62-.74.36.36,0,0,1,0-.23c.17-.37,1,0,1.4-.25.16-.12.12-.32.18-.49a1,1,0,0,1,.3-.39l.84-.8a.86.86,0,0,0,.26-.32c.1-.27-.14-.55-.46-.68a3,3,0,0,0-1-.18c-1.45-.08-2.89-.11-4.34-.1"/><path class="cls-9" d="M101.45,9.15a2.74,2.74,0,0,0-1.25.43.51.51,0,0,0,.1.9c.44.16,1.09-.11,1.39.17s-.3.79-.1,1.16.51.31.77.48.4.52.68.73a1.34,1.34,0,0,0,1.14.17.8.8,0,0,0,.62-.74.65.65,0,0,1,0-.24c.17-.36,1.06,0,1.41-.24.15-.13.11-.33.17-.49a1,1,0,0,1,.31-.39l.84-.8a1,1,0,0,0,.26-.33c.09-.26-.14-.54-.46-.68a3.32,3.32,0,0,0-1.06-.18C104.84,9,103.39,9,101.94,9"/><path class="cls-9" d="M113.26,45.73a2,2,0,0,1,.82,1.23,2,2,0,0,1-.07.55l-.18.83a.28.28,0,0,1-.06.16.34.34,0,0,1-.17.08,1.44,1.44,0,0,1-.58.06.47.47,0,0,1-.39-.39c0-.08,0-.17,0-.24s-.26-.13-.42-.17c-.38-.1-.26-1.2-.43-1.56s-.91-.2-1.42-.38a3.85,3.85,0,0,1-.76-.29.76.76,0,0,1-.42-.65"/><path class="cls-9" d="M95.27,46a1.94,1.94,0,0,0-.82,1.23,2.06,2.06,0,0,0,.06.55l.19.83a.28.28,0,0,0,.06.16.38.38,0,0,0,.17.08,1.43,1.43,0,0,0,.58,0,.46.46,0,0,0,.39-.38.69.69,0,0,1,0-.25c.07-.14.27-.12.42-.16a1,1,0,0,0,.63-1c0-.35-.25-.75.26-.93.25-.09,1.5-.2,1.73-.34a.78.78,0,0,0,.42-.65"/><path class="cls-15" d="M117.65,8.94a4.07,4.07,0,0,0-3.3-1.39,2.81,2.81,0,0,1-1.12,0c-.42-.16-.68-.57-1-.83a2.64,2.64,0,0,0-2.57-.08,1.2,1.2,0,0,1-.66.16c-.34,0-.53-.42-.76-.68a1.78,1.78,0,0,0-2.15-.37c-.39.22-.71.6-1.16.63-.84.05-1.34-1.18-2.18-1.12s-1.21,1-1.88.78c-.32-.1-.51-.45-.82-.6-.88-.43-1.63,1-2.62,1.06-.7,0-1.44-.68-2-.27-.19.15-.29.39-.48.54-.35.27-.85.13-1.29.17a3,3,0,0,0-1.86,1.24L90.49,9.58"/><path class="cls-9" d="M118.33,8.67A4.6,4.6,0,0,0,116,7.31c-.89-.21-1.88.08-2.67-.44A3.74,3.74,0,0,0,111.59,6a4.12,4.12,0,0,0-1.11.07,6.84,6.84,0,0,1-1.13.34c-.15,0-.38-.46-.47-.55a2.17,2.17,0,0,0-.94-.57,3,3,0,0,0-1.67,0c-.86.26-1.08.78-1.9.14A2.07,2.07,0,0,0,103,4.86a2.76,2.76,0,0,0-1.36.46c-.63.39-.36.16-1-.18a1.34,1.34,0,0,0-.62-.17,2.68,2.68,0,0,0-1.43.39c-.83.46-.9.71-1.86.46A2.22,2.22,0,0,0,95.12,6a3.42,3.42,0,0,0-.4.26,1.59,1.59,0,0,1-1,.33c-1.76.21-2.83,1.83-3.91,3-.37.42,1.06.3,1.34,0,.59-.67,1.4-2,2.25-2.22a13.62,13.62,0,0,0,1.65-.3c.19-.09.34-.22.52-.32.49-.27,0-.16.62-.05a3.2,3.2,0,0,0,1.34.1,3.47,3.47,0,0,0,1.19-.5c.13-.08.53-.52.7-.51s.45.38.67.48a1.74,1.74,0,0,0,1.29,0c.29-.09.93-.66,1.17-.66s.86.74,1.23.91a1.94,1.94,0,0,0,1.19.11c.7-.13,1.14-.68,1.83-.6s.86.83,1.57,1A2.42,2.42,0,0,0,109.57,7c.79-.16,1.52-.38,2.19.19a4.8,4.8,0,0,0,.59.51,3,3,0,0,0,1.71.23A3.77,3.77,0,0,1,117,9.21c.31.33,1.69-.2,1.36-.54Z"/><path class="cls-6" d="M159.1,93.83s-1.25,6.81-1.78,10.93l-.53,4.13a57.72,57.72,0,0,1,1.61-16.68Z"/></g><path class="cls-16" d="M111.1,91.29c.92-1.59.72-2.22,2.52-2.53,2.37-.44,16.76,2,21.93,2.86,1.67.28,3.12.2,4.39,1.29l.35.3a11.46,11.46,0,0,1,1.52-2.95c1.59-1.56,16.39-9,16.39-9l1.39,1.56L146,124.29l-16.71,4.26L117,125.49l-8-2.24Z"/><polygon class="cls-17" points="143.57 94.38 138.34 95.97 109.28 89.63 107.11 126.4 134.26 131.01 139.34 129.21 155.24 123.06 161.15 82.39 143.57 94.38"/><path class="cls-18" d="M138.58,96.34c.1,0-.77,7.78-2,17.36S134.37,131,134.26,131s.77-7.78,2-17.36S138.47,96.32,138.58,96.34Z"/><path class="cls-18" d="M143.57,94.38c.11,0-.77,7.79-2,17.36s-2.26,17.34-2.37,17.32.77-7.79,2-17.37S143.46,94.37,143.57,94.38Z"/><path class="cls-18" d="M132.72,103.48c0,.12-4.21-.24-9.39-.78s-9.37-1.08-9.36-1.18,4.22.24,9.4.78S132.75,103.37,132.72,103.48Z"/><path class="cls-18" d="M132.39,105.58c0,.12-4.22-.23-9.4-.78s-9.34-1.06-9.37-1.17,4.21.24,9.39.78S132.4,105.48,132.39,105.58Z"/><path class="cls-18" d="M132,107.69c0,.11-4.22-.24-9.4-.78s-9.36-1.07-9.35-1.18,4.22.24,9.4.78S132.05,107.58,132,107.69Z"/><path class="cls-18" d="M155.1,99.53a40.86,40.86,0,0,1-5,2.83,44,44,0,0,1-5.24,2.48,40.26,40.26,0,0,1,5.05-2.83A41.61,41.61,0,0,1,155.1,99.53Z"/><path class="cls-18" d="M156.21,100.84a72.32,72.32,0,0,1-6.63,3.65,74.83,74.83,0,0,1-6.81,3.29,67.68,67.68,0,0,1,6.62-3.65A75,75,0,0,1,156.21,100.84Z"/><path class="cls-5" d="M154.22,110s1.47-2.12,3.22-1.58,3.2,1.18,2.76,2.67a3.34,3.34,0,0,1-1.89,2.05l-1.3,1a8.85,8.85,0,0,1,1,4,3.08,3.08,0,0,1-1.79,2.34s1,2.35-.3,4.07a14.28,14.28,0,0,1-1.66,2,3.14,3.14,0,0,1-2.59,2,4.86,4.86,0,0,1-3.7-1.46l-5.18-6.65a3.11,3.11,0,0,1,.26-1.41,1.88,1.88,0,0,1-.56-2.11,1.63,1.63,0,0,1,1.76-1,2.52,2.52,0,0,1,.76-2.14c1-.7,10,.08,10,.08l.81-.83s-2.08-.54-2.17-1.54A1.67,1.67,0,0,1,154.22,110Z"/><path class="cls-19" d="M153.5,119.22a14,14,0,0,1-4.84-.93,14.3,14.3,0,0,1-4.4-2.24c.07-.11,2,1,4.52,1.85S153.51,119.09,153.5,119.22Z"/><path class="cls-19" d="M152.12,123.79a26.06,26.06,0,0,1-4.72-2.06,24.73,24.73,0,0,1-4.41-2.66c1.57.69,3.11,1.46,4.6,2.3A45.75,45.75,0,0,1,152.12,123.79Z"/><path class="cls-19" d="M158.19,111.94s0,.22-.25.47a2.28,2.28,0,0,1-1.08.66,2.34,2.34,0,0,1-1.26,0c-.31-.06-.46-.23-.45-.27a4.74,4.74,0,0,0,1.59-.13C157.57,112.41,158.09,111.87,158.19,111.94Z"/><path class="cls-20" d="M76.52,124.25l4.25-1.9,2.33,5.14,3-19.79-4.63-.26c0,.2-5,16.81-5,16.81"/><polygon class="cls-20" points="85.09 108.14 86.1 127.2 89.81 121.97 94.6 125.4 89.81 106.68 85.09 108.14"/><g class="cls-21"><path class="cls-7" d="M81.15,108.7A1.83,1.83,0,0,0,82.78,110c.43,0,.91-.12,1.28.12s.52.79,1,.85.8-.61,1.28-.77c.65-.21,1.34.58,2,.34.41-.16.6-.69,1-.81a1.62,1.62,0,0,1,.58,0,1.12,1.12,0,0,0,.65-.12l-.23-.92-.4-1.78H81.31Z"/></g><path class="cls-22" d="M86.18,93.87a5.25,5.25,0,0,1,1.24.25.78.78,0,0,1,0-.21c.37-1,.73-1.94,1.09-2.92l0,0a.89.89,0,0,1-.36-.36,1.15,1.15,0,0,0-1-.52c-.2.82-.44,2-.62,2.66A3,3,0,0,1,86.18,93.87Z"/><path class="cls-22" d="M80.94,102.74a5.78,5.78,0,0,1-.65-1.29.82.82,0,0,1-.2.12l-.09,0-.17.09a5.22,5.22,0,0,1-.56.18l-.68.19-1.26.32a3,3,0,0,1-.52.11,2.3,2.3,0,0,1,.5-.18l.44-.13-1,.22c-.13.57-.54,1.19-.18,1.63a.69.69,0,0,0,.13.11c1.28-.47,2.92-1.09,4-1.37A1,1,0,0,1,80.94,102.74Z"/><path class="cls-22" d="M84.23,93.72V94a5.56,5.56,0,0,1,1.41-.18v-.08l.06-1.06v-.21c0-.76,0-1.39.07-1.51-.21-.25-.41-.78-.84-.84s-.54,0-.69.15C84.25,91.34,84.22,92.68,84.23,93.72Z"/><path class="cls-23" d="M78.68,97.42l.26.1-1.13-.47C78.07,97.17,78.36,97.3,78.68,97.42Z"/><path class="cls-22" d="M80,99.27A5.72,5.72,0,0,1,80.2,98l-.35-.12a6.28,6.28,0,0,1-1.2-.33,13.62,13.62,0,0,1-1.28-.6,3.7,3.7,0,0,1-.45-.26l-.24-.11c-.16.26-.4.47-.57.72a.88.88,0,0,0-.15.49,17.56,17.56,0,0,1,4,1.48Z"/><path class="cls-22" d="M80.41,97.33A5.38,5.38,0,0,1,81,96.26l-.09-.06a10.19,10.19,0,0,1-1.81-1.53v0c-.25-.2-.48-.41-.69-.6a.58.58,0,0,1-.14.24c-.31.31-.89.11-1.24.38a.64.64,0,0,0-.22.4,34.53,34.53,0,0,1,3.17,2Z"/><path class="cls-22" d="M81,95.35c.14.2.27.37.36.51a5.79,5.79,0,0,1,1.06-1L82,94.31c-.15-.17-.31-.37-.49-.59s-.48-.62-.63-.84a1.83,1.83,0,0,1-.23-.38,1.3,1.3,0,0,1,.15.16c-.14-.2-.27-.37-.39-.52a1,1,0,0,1-.38.45,2.9,2.9,0,0,1-.88.21A20.56,20.56,0,0,1,80.71,95Z"/><path class="cls-22" d="M82.74,94.65a5.8,5.8,0,0,1,1-.49.93.93,0,0,0,0-.13c-.08-.27-.17-.65-.25-1.08a10.25,10.25,0,0,1-.17-1.09,3.11,3.11,0,0,1,0-.43v-.08a1.07,1.07,0,0,1-.75-.24A1.31,1.31,0,0,0,81.2,91c.46,1.11,1.15,2.62,1.52,3.58Z"/><path class="cls-23" d="M81.27,95.92l0,0,0,0Z"/><path class="cls-22" d="M80.19,101.13A5.84,5.84,0,0,1,80,99.75h0c-.4,0-.87,0-1.37,0H78.1c-.48,0-.91,0-1.22-.07a2.27,2.27,0,0,1-.34,0l-.31,0-.2.32a1.11,1.11,0,0,0-.12,1l0,0,4,.12A.84.84,0,0,1,80.19,101.13Z"/><path class="cls-22" d="M82.06,104.09l.08,0a5.86,5.86,0,0,1-1-1,.41.41,0,0,1-.15.17.46.46,0,0,1-.11.16c-.26.2-.62.42-1,.69s-.77.49-1,.65a2.76,2.76,0,0,1-.44.25,2.38,2.38,0,0,1,.4-.31l.53-.36-1.13.69c.07.29,0,.64.1.92s.42.36.73.42l2.39-1.78A2.93,2.93,0,0,1,82.06,104.09Z"/><path class="cls-23" d="M93,105l.33.26,0,0-.1-.07Z"/><path class="cls-22" d="M90,103.3a5.94,5.94,0,0,1-1,.92c.1.11.2.23.29.35l0,0a2.07,2.07,0,0,1,.41.56l.41.7v0c.27.44.54.91.78,1.32A.57.57,0,0,1,91,107c.41-.44,1.26,0,1.7-.42a.53.53,0,0,0,.12-.14c-.82-.89-1.9-2.13-2.59-2.86A1.48,1.48,0,0,1,90,103.3Z"/><path class="cls-23" d="M85.83,91h0v.1Z"/><path class="cls-22" d="M91.35,100.21a6.23,6.23,0,0,1-.27,1.21l.15.08.56.28a3,3,0,0,1-.54-.33,18,18,0,0,1,1.7.85l1.07.59.19.08a.68.68,0,0,1,0-.28c.15-.45.73-.69.93-1.08C94,101.16,92.41,100.61,91.35,100.21Z"/><path class="cls-22" d="M90.26,103l.4.31.06,0,1.27.89c.5.35.94.68,1.26.92l.12.09a5.93,5.93,0,0,1,.65-.36c-1-.9-2.25-2.15-3.18-2.87A6.11,6.11,0,0,1,90.26,103Z"/><path class="cls-22" d="M83.72,105a.41.41,0,0,0-.07-.11,6,6,0,0,1-1-.53l0,0-.25.29c-.17.2-.39.46-.65.74s-.54.55-.73.74a1.7,1.7,0,0,1-.33.27l.06-.09-.46.48c.23.46,0,1.13.38,1.5a.61.61,0,0,0,.24.15c.8-1.08,1.9-2.48,2.68-3.34A.31.31,0,0,1,83.72,105Z"/><path class="cls-22" d="M86,105.26a.54.54,0,0,1,.09.26,1.27,1.27,0,0,1,0,.61c0,.25-.07.51-.1.78s-.1.7-.14,1-.06.76-.1,1.1a2.77,2.77,0,0,0,.7.47,1.16,1.16,0,0,0,1.07-.31,39.77,39.77,0,0,1-.09-4l.06.14c0-.07,0-.1,0-.11a2.62,2.62,0,0,1,.19.46c.1.29.24.69.37,1.14,0,.12.07.24.1.36.14.47.26,1,.36,1.4a1.13,1.13,0,0,1,.45-.09,9.13,9.13,0,0,1,1.06.27,26.87,26.87,0,0,1-1.41-4.27A5.72,5.72,0,0,1,86,105.26Z"/><path class="cls-22" d="M85.46,105.28s0,0,0,0a5.69,5.69,0,0,1-1.78-.35l0,.07,0,0c.11,0,.15.2.14.33a1.29,1.29,0,0,1,0,.19,1.86,1.86,0,0,1-.11.52c-.09.23-.21.47-.33.72a13.9,13.9,0,0,1-.71,1.25c-.12.19-.22.32-.28.4a.79.79,0,0,1,.22.06c.56.22.86,1,1.46,1h0c.35-1.11.7-2.66,1-3.69A1.13,1.13,0,0,1,85.46,105.28Z"/><path class="cls-22" d="M90.42,96.37l.2-.18a1,1,0,0,1,.27-.26l.52-.34a10.73,10.73,0,0,1,1-.54,2.41,2.41,0,0,1,.37-.17l.36-.21h0c-.35-.56.1-1.4-.31-1.91l-.06-.07c-1.05.78-2.4,1.66-3.58,2.36A5.56,5.56,0,0,1,90.42,96.37Z"/><path class="cls-22" d="M91.32,98.63a5.62,5.62,0,0,1,.07.92v.17h.1l.5,0h.12c.34,0,.82,0,1.35.07l1.27.12c.08-.38.55-.57.69-.93a.78.78,0,0,0,0-.58c-1.23.07-2.89.17-3.91.2Z"/><path class="cls-22" d="M89.92,91.52l-2,2.56a.67.67,0,0,1-.15.14A5.54,5.54,0,0,1,89,94.9l0,0h0a.45.45,0,0,1,.12-.2l.32-.36c.6-.73,1.29-1.46,1.86-2.07A.79.79,0,0,1,91,92c-.25-.25-.31-.68-.6-.87a.63.63,0,0,0-.32-.1v0A.58.58,0,0,1,89.92,91.52Z"/><path class="cls-22" d="M91.18,98l.17-.08a2.2,2.2,0,0,1,.39-.17c.25-.11.61-.24,1-.38l1-.35a2.09,2.09,0,0,1,.43-.11L94,97l.52-.17c0-.42.12-.87-.1-1.22a.74.74,0,0,0-.2-.23,26.86,26.86,0,0,1-3.55,1.34A5.53,5.53,0,0,1,91.18,98Z"/><path class="cls-23" d="M94.71,100h0l-.44,0Z"/><path class="cls-23" d="M83.82,94l0,.13h0q0-.1-.09-.24Z"/><path class="cls-7" d="M89,94.91s0,0,0,0l0,0Z"/><path class="cls-23" d="M90.52,96.51a.57.57,0,0,1,0-.18.64.64,0,0,1,.08-.14l-.21.18Z"/><path class="cls-7" d="M94.21,103v0l-.19-.08Z"/><path class="cls-7" d="M90.67,103.28l-.4-.31,0,0Z"/><path class="cls-7" d="M90.83,107.15l0,.08v0c-.24-.41-.51-.88-.78-1.32C90.4,106.37,90.65,106.82,90.83,107.15Z"/><path class="cls-23" d="M85.89,105.26a.47.47,0,0,1,.2.22,0,0,0,0,0,0,0,.54.54,0,0,0-.09-.26Z"/><path class="cls-23" d="M83.77,105a.9.9,0,0,1,.1.39.29.29,0,0,1,0,.13,1.29,1.29,0,0,0,0-.19C83.92,105.21,83.88,105.05,83.77,105Z"/><path class="cls-7" d="M82.61,104.37h0a2.72,2.72,0,0,1-.22.29l0,0,.25-.29Z"/><path class="cls-7" d="M80.23,97.83a.54.54,0,0,1-.22,0l-.17,0,.35.12S80.22,97.88,80.23,97.83Z"/><path class="cls-7" d="M82.46,94.83a2.27,2.27,0,0,1-.32-.3l-.2-.22.44.57Z"/><path class="cls-7" d="M84.22,94h0v-.16A.78.78,0,0,1,84.22,94Z"/><path class="cls-7" d="M85.65,93.84h.07c0-.23,0-.65,0-1.14l-.06,1.06A.22.22,0,0,0,85.65,93.84Z"/><path class="cls-23" d="M87.46,93.91a.71.71,0,0,0,0,.2l.31.11a.5.5,0,0,0,.15-.14l2-2.56a.56.56,0,0,0,.18-.42v0c-.37,0-.79.16-1.15,0a1.14,1.14,0,0,1-.26-.09c-.11.32-.28.81-.48,1.35a17.44,17.44,0,0,1-.69,1.68,14.53,14.53,0,0,1,.59-1.72c.2-.55.39-1,.52-1.34l0,0,0,0C88.19,92,87.83,92.94,87.46,93.91Z"/><path class="cls-23" d="M90,93.72l.88-.94a2.6,2.6,0,0,1,.38-.36,2.2,2.2,0,0,1-.33.41c-.21.25-.52.59-.86,1s-.65.69-.88.93a.36.36,0,0,0-.13.23l.11.09c1.18-.7,2.53-1.58,3.57-2.35a.83.83,0,0,0-.32-.2h0c-.34-.12-.76-.11-1.09-.25-.58.61-1.27,1.34-1.87,2.07Z"/><path class="cls-23" d="M92.83,94.87a2.42,2.42,0,0,1-.4.25l-1,.57c-.37.23-.74.41-.84.67a.45.45,0,0,0-.05.25l.08.14a27.39,27.39,0,0,0,3.55-1.34c-.34-.27-.84-.37-1.07-.74l-.35.2S92.83,94.86,92.83,94.87Z"/><path class="cls-23" d="M93.74,97.12l-1,.38-1,.34a1.66,1.66,0,0,1-.42.12h0l-.17.07a6,6,0,0,1,.13.61h.15c1,0,2.69-.13,3.91-.2a2.06,2.06,0,0,0-.23-.41,2.75,2.75,0,0,1-.59-.86,1.24,1.24,0,0,1,0-.33L94,97Z"/><path class="cls-23" d="M93.44,99.93l-1.34-.1a3.57,3.57,0,0,1-.56-.07,2.26,2.26,0,0,1,.45,0l-.51,0h-.09a4.21,4.21,0,0,1,0,.5c1.06.4,2.61.94,3.83,1.39a.6.6,0,0,0,.07-.27c0-.48-.57-.84-.54-1.31l-.44,0Z"/><path class="cls-23" d="M91.79,101.78l-.56-.28-.15-.07a5.31,5.31,0,0,1-.23.55c.93.72,2.15,2,3.18,2.87a.92.92,0,0,0,.32-.3c.25-.44-.09-1-.14-1.47l-1.31-.68Z"/><path class="cls-23" d="M91.94,104.29c-.5-.35-.94-.68-1.26-.92a5.4,5.4,0,0,1-.46-.36,3.25,3.25,0,0,1-.23.29,1.81,1.81,0,0,0,.25.3c.69.73,1.78,2,2.59,2.86.19-.32.14-.77.37-1.08a.52.52,0,0,1,.1-.11L93,105Z"/><path class="cls-23" d="M90,105.9c-.14-.24-.28-.48-.4-.71a2.12,2.12,0,0,0-.36-.54.38.38,0,0,0-.38-.09c-.1,0-.12.1-.13.09s0-.07.11-.13a.42.42,0,0,1,.42,0,3.27,3.27,0,0,0-.3-.35,3.53,3.53,0,0,1-.32.21,26.87,26.87,0,0,0,1.41,4.27.62.62,0,0,0,.47-.11c.35-.27.21-.85.33-1.28l-.08-.13C90.57,106.86,90.3,106.41,90,105.9Z"/><path class="cls-23" d="M88.38,107.91a2,2,0,0,1,.09.49,2.6,2.6,0,0,1-.16-.47L88,106.79c-.13-.43-.24-.82-.34-1.14s-.08-.29-.1-.38l-.06-.14a39.77,39.77,0,0,0,.09,4,5.3,5.3,0,0,1,1-.65c-.1-.44-.22-.92-.36-1.4C88.27,107.42,88.33,107.7,88.38,107.91Z"/><path class="cls-23" d="M85.84,108.32a3,3,0,0,1-.12.58,3.81,3.81,0,0,1,0-.59c0-.36.1-.86.18-1.41l.1-.77a1.15,1.15,0,0,0,0-.61.59.59,0,0,0-.22-.25h-.32s0,0,0,0a1,1,0,0,0-.24.46c-.35,1-.7,2.58-1,3.69.41-.08.68-.59,1.11-.62a.82.82,0,0,1,.52.2c0-.34.06-.71.1-1.1C85.88,108.06,85.86,108.2,85.84,108.32Z"/><path class="cls-23" d="M83.33,106.73c.13-.25.25-.49.34-.71a1.8,1.8,0,0,0,.13-.61,1.14,1.14,0,0,0-.08-.4.31.31,0,0,0-.2.13c-.78.87-1.88,2.26-2.68,3.34.44.17,1-.11,1.57-.06,0-.09.13-.24.25-.43S83.08,107.22,83.33,106.73Z"/><path class="cls-23" d="M80.68,106.35l.92-1c.46-.48.83-.9,1-1l-.38-.27a5,5,0,0,1-.5.42,2.66,2.66,0,0,1-.63.42,3,3,0,0,1,.57-.5l.44-.32a2.71,2.71,0,0,0-.68.4L79,106.28c.42.07.89.09,1.15.4a.6.6,0,0,1,.09.15Z"/><path class="cls-23" d="M79.78,103.93l1-.66a.44.44,0,0,0,.12-.15.33.33,0,0,0,0-.14c0-.08-.08-.09-.08-.1s.07,0,.11.09a.2.2,0,0,1,0,.17,0,0,0,0,1,0,0,.44.44,0,0,0,.16-.17,2.48,2.48,0,0,1-.19-.26,1,1,0,0,0-.25,0c-1.07.28-2.71.9-4,1.37.4.3,1.13.17,1.39.62a.55.55,0,0,1,.06.18l1.14-.69Z"/><path class="cls-23" d="M78.56,102l.69-.19.56-.15a1.13,1.13,0,0,0,.43-.29.3.3,0,0,1-.07.13l-.17.14.09,0a.67.67,0,0,0,.2-.12,3,3,0,0,1-.1-.32.63.63,0,0,0-.27,0q-2-.07-4-.12c.19.31.61.45.77.77a1,1,0,0,1,0,.66l1-.22C78,102.1,78.27,102,78.56,102Z"/><path class="cls-23" d="M76.38,99.6a2.18,2.18,0,0,1,.51,0l1.22,0h1.22a2.9,2.9,0,0,1,.51,0,2.22,2.22,0,0,1-.51.06l-.75,0c.49,0,1,0,1.36,0h0v-.48l0,0a17.12,17.12,0,0,0-4-1.49.49.49,0,0,0,.31.52h0c.32.14.38.39.28.73a2.62,2.62,0,0,1-.31.6l.3,0A.45.45,0,0,1,76.38,99.6Z"/><path class="cls-23" d="M76.86,96.63a2.58,2.58,0,0,1,.54.23l.41.2,1.13.47a6.74,6.74,0,0,0,1.07.28.34.34,0,0,0,.22,0l0,0c0-.12.08-.23.13-.35a8.78,8.78,0,0,1-.78-.43,5.24,5.24,0,0,1-1-.6,6.43,6.43,0,0,1,1,.52l.32.2a36.15,36.15,0,0,0-3.17-2,10.51,10.51,0,0,1,0,1.25.66.66,0,0,1-.11.24l.24.1Z"/><path class="cls-23" d="M78.8,94.29a2.35,2.35,0,0,1,.37.33c.22.2.52.49.87.79s.68.55.93.73l.08.06c.07-.09.14-.19.22-.28l0,0c-.1-.12-.24-.29-.38-.49a3.51,3.51,0,0,1-.47-.79,2.11,2.11,0,0,1,.3.37,22.81,22.81,0,0,0-1.61-2.19.79.79,0,0,0-.43.23c-.23.28-.14.7-.25,1,.2.19.44.39.68.61A2.63,2.63,0,0,1,78.8,94.29Z"/><path class="cls-23" d="M81.54,93.67c.51.63.93,1.14.92,1.17l.28-.18a.05.05,0,0,0,0,0c-.37-1-1.06-2.48-1.52-3.58l-.21.11c-.34.2-.45.64-.63,1l.39.53C80.89,92.86,81.21,93.24,81.54,93.67Z"/><path class="cls-23" d="M83.3,91.41a2.15,2.15,0,0,1,.09.44c0,.28.12.66.2,1.08s.15.7.21,1a1.35,1.35,0,0,0,.08.24l.33-.1a5,5,0,0,1-.11-.66,3.13,3.13,0,0,1-.06-.68,1.89,1.89,0,0,1,.17.67,2.38,2.38,0,0,1,0,.36c0-1,0-2.38,0-3.43a6.28,6.28,0,0,0-.56.83.54.54,0,0,1-.41.23v.08S83.29,91.41,83.3,91.41Z"/><path class="cls-23" d="M85.83,92.49c0,.58,0,1.09,0,1.35a2.68,2.68,0,0,1,.4,0,3.35,3.35,0,0,0,.44-1.11c.18-.7.42-1.84.62-2.67a.89.89,0,0,0-.36.11c-.31.17-.68.92-.88.92a.25.25,0,0,1-.18-.1v.09C85.83,91.34,85.83,91.87,85.83,92.49Z"/><path class="cls-18" d="M91.77,97.84l1-.34,1-.38L94,97c.1,0,.15-.07.15-.08a2.09,2.09,0,0,0-.43.11c-.25.09-.6.2-1,.35s-.73.27-1,.38a2.2,2.2,0,0,0-.39.17h0A1.63,1.63,0,0,0,91.77,97.84Z"/><path class="cls-18" d="M92.1,99.76H92a1.7,1.7,0,0,0-.45,0,3.55,3.55,0,0,0,.56.06l1.34.1.83.06.44,0V100l-1.27-.12C92.93,99.79,92.46,99.76,92.1,99.76Z"/><path class="cls-18" d="M93,102.31a18,18,0,0,0-1.7-.86,3.77,3.77,0,0,0,.54.34c.29.16.68.38,1.11.6s1,.53,1.31.68V103l-.19-.1C93.73,102.73,93.36,102.52,93,102.31Z"/><path class="cls-24" d="M85.73,108.89a2.9,2.9,0,0,0,.12-.57c0-.13,0-.26.06-.41s.09-.63.14-1,.07-.54.1-.78a1.26,1.26,0,0,0,0-.61s0,0,0,0a.47.47,0,0,0-.2-.22H86a5.73,5.73,0,0,0,2.63-.83c.11-.06.21-.14.32-.21a5.59,5.59,0,0,0,1-.92,3.25,3.25,0,0,0,.23-.29c.07.07.24.19.46.36l1.26.92,1,.72.24.17.1.07.06,0-.11-.09L92,104.2l-1.28-.89,0,0-.43-.28,0,0a6,6,0,0,0,.82-1.55,5.57,5.57,0,0,0,.27-1.21c0-.16,0-.32,0-.49v-.17a6,6,0,0,0-.2-1.52,5.86,5.86,0,0,0-.54-1.29l-.08-.14a.56.56,0,0,1,.05-.25c.11-.25.48-.44.85-.67s.71-.42,1-.57a2.06,2.06,0,0,0,.4-.25l0,0a2.88,2.88,0,0,0-.38.17,10.74,10.74,0,0,0-1,.54l-.53.34a1.07,1.07,0,0,0-.26.26.37.37,0,0,0-.07.14.39.39,0,0,0,0,.18.71.71,0,0,0-.1-.14A5.41,5.41,0,0,0,89.18,95L89.07,95a.43.43,0,0,1,.14-.23c.23-.24.54-.56.88-.93s.64-.71.85-1a2.25,2.25,0,0,0,.34-.41,3.33,3.33,0,0,0-.39.36l-.88.94q-.3.32-.54.6l-.32.36a.67.67,0,0,0-.12.2h0a.07.07,0,0,0,0,.05l0,0a5.89,5.89,0,0,0-1.26-.68l-.31-.11a5.89,5.89,0,0,0-1.25-.25l-.4,0c0-.26,0-.76,0-1.35s0-1.15,0-1.39V91l0,0c0,.12,0,.75-.07,1.51v1.35h-.07a6.05,6.05,0,0,0-1.41.18h0a.78.78,0,0,0,0-.16v-.14a2.51,2.51,0,0,0,0-.37,2,2,0,0,0-.18-.67,3.82,3.82,0,0,0,.07.68,4.93,4.93,0,0,0,.11.67l-.33.1h0a.89.89,0,0,0,0-.14l0-.11c0-.26-.12-.59-.2-1s-.14-.8-.2-1.08a3.58,3.58,0,0,0-.09-.45v0a3.17,3.17,0,0,0,0,.44c0,.28.09.67.17,1.09s.18.8.26,1.07a.57.57,0,0,0,0,.14,5.58,5.58,0,0,0-1,.49l-.28.18s-.4-.54-.91-1.17l-.79-1a.75.75,0,0,0-.15-.16,1.48,1.48,0,0,0,.23.38c.15.22.37.52.63.84s.34.42.48.59l.21.22a1.77,1.77,0,0,0,.31.3l-.07,0a5.54,5.54,0,0,0-1.07,1c-.09-.14-.22-.32-.36-.51L80.73,95a1.8,1.8,0,0,0-.3-.37,3.21,3.21,0,0,0,.48.79c.14.2.27.36.38.49v0h0a3,3,0,0,0-.22.28L81,96.14c-.24-.18-.57-.44-.92-.74s-.66-.58-.88-.79a2.82,2.82,0,0,0-.36-.33,1.52,1.52,0,0,0,.3.37h0A10.24,10.24,0,0,0,81,96.2l.08,0a6,6,0,0,0-.6,1.07L80,97.06l-.33-.2a6.73,6.73,0,0,0-1-.51,5.76,5.76,0,0,0,.94.6l.78.42c0,.12-.09.24-.13.35l0,0a.37.37,0,0,1-.21,0A5.62,5.62,0,0,1,79,97.5l-.27-.1c-.32-.12-.6-.25-.86-.37l-.42-.2a3.54,3.54,0,0,0-.53-.23l0,0,.45.26a10,10,0,0,0,1.28.6,5.47,5.47,0,0,0,1.2.33l.17,0a.59.59,0,0,0,.22,0,.74.74,0,0,0,0,.14,5.7,5.7,0,0,0-.22,1.3v.48a5.93,5.93,0,0,0,.22,1.39c0,.1.06.21.1.31a5.58,5.58,0,0,0,.65,1.29l.19.27a6.09,6.09,0,0,0,1,1l-.08,0-.44.32a2.47,2.47,0,0,0-.56.51,3.27,3.27,0,0,0,.62-.43,5,5,0,0,0,.5-.42,4.56,4.56,0,0,0,.39.27c-.13.12-.51.54-1,1l-.92,1-.07.09a1.7,1.7,0,0,0,.33-.27c.2-.18.45-.44.73-.74a8.56,8.56,0,0,0,.65-.74l0,0a2.28,2.28,0,0,0,.23-.29h0a5.74,5.74,0,0,0,1.05.53l.06.11a1.14,1.14,0,0,1,.08.4,1.59,1.59,0,0,1-.13.61c-.09.22-.21.46-.33.71-.25.5-.5.94-.68,1.26l-.25.43h0l.27-.4a13.9,13.9,0,0,0,.71-1.25c.12-.25.24-.49.33-.72a2.44,2.44,0,0,0,.12-.52v-.13a1,1,0,0,0-.11-.39l0,0,0-.06a5.69,5.69,0,0,0,1.78.35h.32a.51.51,0,0,1,.21.29,1.11,1.11,0,0,1,0,.6l-.1.78c-.08.55-.14,1-.18,1.41m-.09-3.75a5,5,0,1,1,5-5h0A5,5,0,0,1,85.68,104.56Z"/><path class="cls-18" d="M90.11,105.88v0l-.41-.7a2,2,0,0,0-.4-.56l0,0a.4.4,0,0,0-.41,0,.18.18,0,0,0-.11.12.27.27,0,0,1,.13-.09.41.41,0,0,1,.39.09,2.24,2.24,0,0,1,.35.55c.13.22.27.46.4.71.29.5.56.95.76,1.28l.08.12a.41.41,0,0,1,0-.08l0-.08C90.65,106.82,90.4,106.37,90.11,105.88Z"/><path class="cls-18" d="M88,106.79l.33,1.14a2.6,2.6,0,0,0,.16.47,2,2,0,0,0-.09-.49c0-.21-.11-.49-.2-.79,0-.12-.06-.24-.1-.36-.13-.45-.27-.85-.37-1.14a2.25,2.25,0,0,0-.19-.45.35.35,0,0,0,0,.1c0,.07,0,.2.1.38S87.85,106.36,88,106.79Z"/><path class="cls-18" d="M81,103a.13.13,0,0,0-.11-.09s.05,0,.08.1a.33.33,0,0,1,0,.14.44.44,0,0,1-.12.15l-1,.66-.49.32-.53.36a2.45,2.45,0,0,0-.41.31,2.46,2.46,0,0,0,.45-.25l1-.65c.4-.25.76-.49,1-.69a.36.36,0,0,0,.11-.16l0,0A.25.25,0,0,0,81,103Z"/><path class="cls-18" d="M80.17,101.46a.3.3,0,0,0,.07-.13,1.13,1.13,0,0,1-.43.29l-.56.15-.69.19-.8.22-.44.13a2.38,2.38,0,0,0-.51.18,3.12,3.12,0,0,0,.53-.11l1.25-.32.69-.19a5.22,5.22,0,0,0,.56-.18l.17-.09A1.07,1.07,0,0,0,80.17,101.46Z"/><path class="cls-18" d="M79.83,99.68a2.18,2.18,0,0,0-.51,0c-.31,0-.74,0-1.22,0l-1.22,0h-.5a.42.42,0,0,0,.16,0l.34,0c.31,0,.74.06,1.22.07h.47c.29,0,.55,0,.75,0A2.94,2.94,0,0,0,79.83,99.68Z"/><path class="cls-18" d="M87.51,94.05a16.62,16.62,0,0,0,.69-1.69c.2-.54.38-1,.48-1.34l-.06,0c-.13.31-.32.79-.52,1.34A16.59,16.59,0,0,0,87.51,94.05Z"/><circle class="cls-25" cx="85.68" cy="99.55" r="5.01"/><path class="cls-18" d="M85.13,108.94s.27,4.08.54,9.13.46,9.13.43,9.14-.27-4.09-.54-9.14S85.1,108.94,85.13,108.94Z"/><path class="cls-23" d="M86.07,96.74l.7,1.42a.25.25,0,0,0,.18.14l1.58.22a.24.24,0,0,1,.19.28.31.31,0,0,1-.06.13L87.52,100a.26.26,0,0,0-.07.22l.27,1.57a.23.23,0,0,1-.19.27.22.22,0,0,1-.16,0l-1.4-.74a.24.24,0,0,0-.23,0l-1.41.74A.24.24,0,0,1,84,102a.26.26,0,0,1,0-.15l.27-1.57a.29.29,0,0,0-.07-.22l-1.14-1.1a.24.24,0,0,1,0-.35.23.23,0,0,1,.12-.06l1.57-.22a.24.24,0,0,0,.18-.14l.71-1.42a.24.24,0,0,1,.32-.11A.29.29,0,0,1,86.07,96.74Z"/><polygon class="cls-26" points="47.31 37.91 48.23 40.18 50.67 40.36 48.8 41.94 49.39 44.32 47.31 43.03 45.22 44.32 45.81 41.94 43.94 40.36 46.39 40.18 47.31 37.91"/><polygon class="cls-27" points="28.91 46.82 29.66 48.75 31.64 48.91 30.12 50.25 30.6 52.27 28.91 51.17 27.23 52.27 27.7 50.25 26.18 48.91 28.17 48.75 28.91 46.82"/><polygon class="cls-28" points="35.76 35.19 36.51 37.11 38.49 37.27 36.97 38.61 37.45 40.64 35.76 39.53 34.08 40.64 34.55 38.61 33.03 37.27 35.01 37.11 35.76 35.19"/><polygon class="cls-27" points="54.77 31.37 55.35 32.79 56.87 32.9 55.7 33.89 56.07 35.37 54.77 34.57 53.47 35.37 53.84 33.89 52.66 32.9 54.19 32.79 54.77 31.37"/><polygon class="cls-29" points="55.53 50.08 56.45 52.35 58.9 52.53 57.02 54.11 57.62 56.48 55.53 55.19 53.45 56.48 54.04 54.11 52.17 52.53 54.61 52.35 55.53 50.08"/><polygon class="cls-28" points="65.21 35.87 66.51 39.06 69.95 39.31 67.31 41.53 68.14 44.88 65.21 43.06 62.28 44.88 63.11 41.53 60.47 39.31 63.91 39.06 65.21 35.87"/><polygon class="cls-29" points="43.93 20.56 44.96 23.08 47.67 23.28 45.59 25.03 46.24 27.67 43.93 26.23 41.63 27.67 42.27 25.03 40.2 23.28 42.91 23.08 43.93 20.56"/><polygon class="cls-29" points="164.16 54.94 165.18 57.46 167.89 57.65 165.81 59.4 166.47 62.04 164.16 60.61 161.85 62.04 162.5 59.4 160.42 57.65 163.13 57.46 164.16 54.94"/><polygon class="cls-30" points="41.79 53.89 42.99 56.79 46.15 57.02 43.72 59.03 44.49 62.07 41.79 60.41 39.09 62.07 39.85 59.03 37.42 57.02 40.59 56.79 41.79 53.89"/><polygon class="cls-30" points="63.11 17.69 63.74 19.2 65.39 19.33 64.12 20.38 64.53 21.98 63.11 21.11 61.7 21.98 62.09 20.38 60.82 19.33 62.48 19.2 63.11 17.69"/><polygon class="cls-26" points="153.84 35.84 155.36 39.58 159.37 39.88 156.3 42.47 157.26 46.39 153.84 44.26 150.41 46.39 151.38 42.47 148.3 39.88 152.33 39.58 153.84 35.84"/><polygon class="cls-27" points="135.65 46.55 136.47 48.67 138.65 48.84 136.98 50.31 137.5 52.54 135.65 51.33 133.8 52.54 134.32 50.31 132.65 48.84 134.84 48.67 135.65 46.55"/><polygon class="cls-28" points="140.18 33.77 141 35.88 143.17 36.05 141.5 37.53 142.03 39.75 140.18 38.54 138.33 39.75 138.85 37.53 137.18 36.05 139.36 35.88 140.18 33.77"/><polygon class="cls-28" points="156.59 11.12 157.41 13.24 159.59 13.41 157.92 14.89 158.44 17.11 156.59 15.9 154.74 17.11 155.26 14.89 153.59 13.41 155.77 13.24 156.59 11.12"/><polygon class="cls-28" points="50.67 11.56 51.08 12.62 52.17 12.71 51.33 13.44 51.6 14.55 50.67 13.95 49.74 14.55 50.01 13.44 49.17 12.71 50.26 12.62 50.67 11.56"/><polygon class="cls-28" points="181.64 52.4 182.05 53.45 183.14 53.54 182.3 54.28 182.57 55.39 181.64 54.78 180.72 55.39 180.98 54.28 180.14 53.54 181.23 53.45 181.64 52.4"/><polygon class="cls-28" points="148.35 52.4 148.76 53.45 149.85 53.54 149.01 54.28 149.28 55.39 148.35 54.78 147.43 55.39 147.69 54.28 146.85 53.54 147.94 53.45 148.35 52.4"/><polygon class="cls-27" points="171.04 28.08 171.67 29.64 173.34 29.77 172.06 30.85 172.46 32.48 171.04 31.6 169.6 32.48 170.01 30.85 168.72 29.77 170.4 29.64 171.04 28.08"/><polygon class="cls-26" points="28.91 19.08 29.83 21.34 32.28 21.52 30.4 23.1 30.99 25.48 28.91 24.19 26.82 25.48 27.42 23.1 25.54 21.52 27.99 21.34 28.91 19.08"/><polygon class="cls-26" points="181.64 31.99 182.56 34.25 185.01 34.43 183.13 36.01 183.72 38.38 181.64 37.1 179.56 38.38 180.15 36.01 178.27 34.43 180.72 34.25 181.64 31.99"/><polygon class="cls-28" points="171.16 41.91 172.16 44.36 174.8 44.55 172.77 46.26 173.41 48.83 171.16 47.43 168.91 48.83 169.55 46.26 167.52 44.55 170.16 44.36 171.16 41.91"/><polygon class="cls-29" points="157.13 25.55 158.03 27.77 160.42 27.94 158.59 29.49 159.16 31.82 157.13 30.55 155.09 31.82 155.66 29.49 153.83 27.94 156.22 27.77 157.13 25.55"/><polygon class="cls-30" points="140.65 14.85 141.96 18.03 145.43 18.29 142.76 20.5 143.61 23.84 140.65 22.02 137.68 23.84 138.51 20.5 135.85 18.29 139.33 18.03 140.65 14.85"/><polygon class="cls-30" points="18.62 30.88 19.93 34.06 23.4 34.32 20.73 36.53 21.58 39.87 18.62 38.05 15.65 39.87 16.48 36.53 13.82 34.32 17.3 34.06 18.62 30.88"/><polygon class="cls-30" points="171.16 16.3 171.87 18.01 173.73 18.14 172.3 19.33 172.75 21.12 171.16 20.14 169.57 21.12 170.02 19.33 168.59 18.14 170.46 18.01 171.16 16.3"/><path class="cls-7" d="M87.34,52a6,6,0,0,1,1.13,2.61c.34-.24.8.11,1,.48s.44.82.85.86c.25,0,.53-.1.72.06s.13.5.2.75c.21.83,1.71.55,2,1.36.08.25,0,.54.16.76.35.56,1.38-.08,1.8.44.16.2.15.51.32.69.35.37,1,0,1.42.22s.33.65.62.85.91,0,1.32.17.55,1,1.05,1,.63-.43,1-.52c.67-.16,1.19.94,1.85.75.23-.07.4-.28.62-.36.57-.21,1.16.48,1.74.32.41-.11.67-.61,1.08-.6a2.76,2.76,0,0,1,.66.24s.78.46,1.15-.11l.38-.57a2,2,0,0,0,1.08,0c.47-.16.93-1,.93-1s1.15-.1,1.35-.41.55-.81.55-.81a3.12,3.12,0,0,0,1.17-.26,2,2,0,0,0,.51-.89s1.2,0,1.41-.33a3.87,3.87,0,0,0,.36-1,1.34,1.34,0,0,0,1.09,0c.52-.26.75-1.45.75-1.45a4.32,4.32,0,0,0,1-.3c.26-.16.64-1.19.64-1.19s1.61-.62,1.23-.88,0-2.32,0-2.32a10.25,10.25,0,0,1-1.55,2.13c-.52.34-1.31.09-1.48.56s-1,1-1,1a1.78,1.78,0,0,0-1.21.68,5.65,5.65,0,0,0-.84,1.11s0-1-.88-.16A6.07,6.07,0,0,1,112.24,57s-1-.59-1.18-.06a5,5,0,0,1-1,1.28s-.63-.8-1.15-.21a5,5,0,0,1-1.25,1l-7.58-.05a.76.76,0,0,0-.57-.28c-.37,0-1.16,0-1.16,0s-.15-1.06-.58-.86a1.67,1.67,0,0,1-1.06,0,3.25,3.25,0,0,0-.67-.62c-.35-.23-1-.54-1-.54s.19-1-.41-.86a1.72,1.72,0,0,1-1.17-.21s0-.9-.49-.74A5.94,5.94,0,0,1,92,55a8,8,0,0,0-.63-.81l-.51-.31s-.68-1.31-1-1.32-.83,0-.83,0-.58-1.47-.94-1.26-.76-1.35-.76-1.35A2.06,2.06,0,0,0,87.34,52Z"/></svg>