<svg id="Layer_1" data-name="Layer 1" xmlns="http://www.w3.org/2000/svg" xmlns:xlink="http://www.w3.org/1999/xlink" viewBox="0 0 205.83 138.61"><defs><style>.cls-1{fill:none;}.cls-2{clip-path:url(#clip-path);}.cls-3{fill:#d36253;}.cls-4{fill:#242f34;}.cls-5{fill:#642b11;}.cls-6{fill:#a66e53;}.cls-7{fill:#4f2e25;}.cls-8{fill:#ce8d2a;}.cls-9{fill:#010101;}.cls-10{fill:#13110f;}.cls-11{fill:#b15e27;}.cls-12{fill:#df8c26;}.cls-13{fill:#fff;}.cls-14{fill:#653c29;}.cls-15{fill:#31160e;}.cls-16{fill:#f1eef7;}.cls-17{fill:#7f65ac;}.cls-18{opacity:0.5;}.cls-19{fill:#ffce07;}.cls-20{fill:#cb892a;}.cls-21{fill:#273339;}.cls-22{fill:#022f3d;}.cls-23{fill:#ffefaf;}.cls-24{fill:#5bc6d0;}.cls-25{fill:#ffce09;}.cls-26{fill:#ea2754;}.cls-27{fill:#f39e24;}.cls-28{fill:#5954a4;}</style><clipPath id="clip-path"><rect class="cls-1" width="205.83" height="138.61"/></clipPath></defs><g class="cls-2"><path class="cls-3" d="M68.2,137.63l5.65-28.3L68.38,77.14s-6,.52-9.19,10.26c-2.78,10.42-8,45.58-7.61,52.3.12,2,.79,6.81,1.67,12.55H68.82Z"/><path class="cls-4" d="M81,75l-4,35.86L76.42,116c0,.18.55.07.57-.09L81,80l.57-5.16c0-.17-.55-.06-.56.09Z"/><path class="cls-3" d="M146.42,89.16l-4.66,15.43-6.63-21.42c-.77-2.87-2.76-6.74-5.57-7.72l-7-1.7L117.84,99l9.34,21.21c1,2.35,6.25,7.94,8.54,9,3.88,1.86,7.2,2.25,10.85-.34,3.27-2.32,4.82-6,5.87-9.74a63.58,63.58,0,0,0,2.47-11.73l3.22-16.61Z"/><path class="cls-3" d="M127.83,148.12a26.43,26.43,0,0,0-1.49-4.45,18.86,18.86,0,0,1-.78-4.18,76.14,76.14,0,0,1-.33-16.74c.34-2.49,3.88-4,5.31-8.75,1.26-4.17-4.83-39.13-4.83-39.13l-11.92-3.23L110.63,71l-.24-.15a2,2,0,0,0,0,.57l0,.3a10.64,10.64,0,0,1-8.36,5.39,24.84,24.84,0,0,1-3.65,0,11.85,11.85,0,0,1-9.3-5.42L89,70.42l-7.47,2.15L67.62,77.34l-.29,28.44c.32,5.86-.18,6.9,2.26,12.23L73,121.48l.24,18s-2,4.87-4.54,12.56h59.76C128.23,150.82,128.05,149.37,127.83,148.12Z"/><path class="cls-5" d="M105.64,119.52A16.88,16.88,0,0,0,98.08,118c-4.18.2-5.47.74-5.47.74s5.71-.06,7.36-.27S105.64,119.52,105.64,119.52Z"/><path class="cls-6" d="M109.54,69.41c-.21-.66,0-7.75,0-7.75L99,63.27,88.54,61.66s.21,7.83,0,8.49-6.32,2.12-6.32,2.12S85.41,79.16,99,79.16s17.14-6.89,17.14-6.89S109.75,70.08,109.54,69.41Z"/><path class="cls-7" d="M88.57,62.07c.17.13,1.38,1.73,1.55,1.86,4.31,3.05,4.95,3.88,8.67,4,3.72-.15,5.31-.66,9.31-4.39,1.35-1.26,1.05-1.68,1.35-1.91C102.77,61.64,95.26,62,88.57,62.07Z"/><path class="cls-6" d="M81.8,41.11s-2-3.08-3.15-3c-.69.07.91,1.64,1.11,3.4.27,2.37-1.48,2.67-.93,4s1.26,6,3.1,5.81c.73-.08,1.47-1.69,1.47-1.69S82.4,43.22,81.8,41.11Z"/><path class="cls-8" d="M81.2,49.86a1.76,1.76,0,0,0-1.64,1.44,1.46,1.46,0,0,0,.28,1,1.36,1.36,0,0,0,.64.46,2,2,0,0,0,1.74-.23c.07-.05.17-.14,0-.2a.48.48,0,0,0-.4.06.93.93,0,0,1-.51.18,1.44,1.44,0,0,1-.46-.08l-.28-.14s0,0,0,0l0,0a1.07,1.07,0,0,1-.18-.19,1.31,1.31,0,0,1,0-1.61,1.24,1.24,0,0,1,.32-.29.6.6,0,0,1,.19-.08l.11,0s0,0,0,0l.09,0c.1,0,.3-.06.32-.18s-.17-.11-.23-.1Z"/><path class="cls-6" d="M115.29,41s1.69-3.28,2.84-3.27c.69,0-.75,1.72-.76,3.5,0,2.38,1.74,2.51,1.33,3.89s-.65,6.11-2.5,6.1c-.73,0-1.64-1.54-1.64-1.54S114.91,43.18,115.29,41Z"/><path class="cls-6" d="M117.77,43h0c-.41,2.07-.92,4.25-1.26,6.74-.92,6.59-2.88,9.62-7.36,12.53-4.68,3.05-6.09,4.24-10.14,4.39-4.05-.15-5.46-1.34-10.14-4.39-4.48-2.91-6.44-5.94-7.36-12.53-.2-1.46-.46-2.82-.72-4.11-.19-1-.39-1.88-.56-2.78v0h0a22.3,22.3,0,0,1-.15-10c.91-3.81,4.07-8.54,8.86-11.53h0A18.94,18.94,0,0,1,99,18.28c10.39,0,17.5,8.38,18.95,14.44A22.41,22.41,0,0,1,117.77,43Z"/><path class="cls-9" d="M100.35,51.5a1.8,1.8,0,0,1-1.92-.1c-.12-.08-.52,0-.35.14a2.53,2.53,0,0,0,2.6.07c.08,0,.06-.1,0-.14a.41.41,0,0,0-.31,0"/><path class="cls-9" d="M97.8,51.35A4.18,4.18,0,0,0,96.4,51a.32.32,0,0,0-.22.07s-.05.09,0,.12a1.49,1.49,0,0,0,.78.17.27.27,0,0,0,.23-.09c0-.06,0-.11-.1-.11a1.13,1.13,0,0,1-.62-.14l-.21.18a3.9,3.9,0,0,1,1.26.32.28.28,0,0,0,.25,0c.06,0,.11-.1,0-.14"/><path class="cls-9" d="M95.89,51.41a1.56,1.56,0,0,1-1.28-.68,1.43,1.43,0,0,1,.58-1.82c.06,0,0-.1,0-.12a.36.36,0,0,0-.25.06,1.66,1.66,0,0,0-.79,1.55,1.45,1.45,0,0,0,1.11,1.12,2.34,2.34,0,0,0,.53.08c.07,0,.21,0,.24-.09s0-.1-.1-.1"/><path class="cls-9" d="M100.92,51.35a4.18,4.18,0,0,1,1.41-.35.31.31,0,0,1,.21.07s0,.09,0,.12a1.45,1.45,0,0,1-.77.17c-.09,0-.2,0-.24-.09s0-.11.1-.11a1.09,1.09,0,0,0,.62-.14l.22.18a3.83,3.83,0,0,0-1.26.32.3.3,0,0,1-.26,0s-.11-.1,0-.14"/><path class="cls-9" d="M102.83,51.41a1.56,1.56,0,0,0,1.28-.68,1.41,1.41,0,0,0-.57-1.82c-.07,0,0-.1,0-.12a.39.39,0,0,1,.26.06,1.67,1.67,0,0,1,.78,1.55,1.42,1.42,0,0,1-1.11,1.12,2.34,2.34,0,0,1-.53.08.27.27,0,0,1-.24-.09c0-.07,0-.1.1-.1"/><path class="cls-10" d="M103.93,36.84V38c0,.28,0,.57,0,.85,1-.24,1.93-.4,2.6-.51a9.77,9.77,0,0,1,3-.21,8.94,8.94,0,0,1,1.9.54,5.7,5.7,0,0,1,1,.48c.7.47,1,1,1.11.94s-.07-.5-.09-.55a4.3,4.3,0,0,0-1.5-1.89,5.93,5.93,0,0,0-1.92-.81,22.55,22.55,0,0,0-6.08,0"/><path class="cls-10" d="M107.53,41.36a1.29,1.29,0,0,1,1.38.25,1.38,1.38,0,0,1,.37.58,1.29,1.29,0,0,1-.3,1.15,1.19,1.19,0,0,1-1.36.24,1.31,1.31,0,0,1-.64-1.52,1.22,1.22,0,0,1,.55-.7"/><path class="cls-10" d="M103.71,43.12s2.57-1.87,3.88-2a6.77,6.77,0,0,1,5,1.68s-3.12-1.46-4.47-1.3A22.88,22.88,0,0,0,103.71,43.12Z"/><path class="cls-10" d="M94.68,36.88c0,.37,0,.75,0,1.13s0,.57,0,.85c-1-.24-1.93-.4-2.6-.51a9.82,9.82,0,0,0-3-.21,9,9,0,0,0-1.89.54,6.19,6.19,0,0,0-1,.48c-.7.47-1,1-1.1.94s.07-.5.09-.55a4.3,4.3,0,0,1,1.5-1.89,5.67,5.67,0,0,1,1.92-.8,22,22,0,0,1,6.08,0"/><path class="cls-10" d="M91.08,41.4a1.32,1.32,0,0,0-1.75.83,1.25,1.25,0,0,0,.3,1.15,1.18,1.18,0,0,0,1.35.24,1.3,1.3,0,0,0,.64-1.52,1.15,1.15,0,0,0-.54-.7"/><path class="cls-10" d="M94.9,43.16s-2.57-1.87-3.88-2a6.7,6.7,0,0,0-5,1.69s3.12-1.47,4.46-1.31A22.77,22.77,0,0,1,94.9,43.16Z"/><path class="cls-11" d="M77.08,25.57a37.75,37.75,0,0,1,19.51-2.79c11,1.39,16.21,8.31,18.07,13.25a35.22,35.22,0,0,1,2,9.9s2.69,1.37,4.65-8.66c2.85-14.62-13.14-27.51-16.69-27.51S82.17,9.22,77.08,25.57Z"/><path class="cls-11" d="M79,21.3S77.2,9.78,85.14,7.62s24.66-6,29.55,4.5Z"/><path class="cls-12" d="M78.63,45a6.87,6.87,0,0,1-1.75-3c-.88-3.11-2.43-9.54-1-12.4.62-1.24.87-4.94.93-6,.3-5.71-1-4,7-10.44s9.41-4.7,21.44-3.92,15.48,4.67,14.55,15.94c0,0-16.2-4.66-23.83-.53S80.07,42,80.62,46.82A13.92,13.92,0,0,1,78.63,45Z"/><path class="cls-11" d="M75.47,35.32S87.71,19.67,102,19.52c0,0-18.33-2.38-26.45,10.85Z"/><path class="cls-11" d="M119.66,19.91s-14.15-5.14-19.58-5.59,17.15.42,19.32,2.88Z"/><ellipse class="cls-13" cx="99.36" cy="56.25" rx="4.76" ry="1"/><path class="cls-8" d="M116.83,50.27a1.37,1.37,0,0,1,1.33,1.09,1.34,1.34,0,0,1-.12.9,1.27,1.27,0,0,1-.24.33l-.06,0,0,0-.08.05-.14.06-.06,0s-.05,0,0,0l-.09,0a1.22,1.22,0,0,1-.7-.17c-.1-.05-.26,0-.36,0s-.25.11-.17.15a1.89,1.89,0,0,0,1.51.07,1.81,1.81,0,0,0,.72-.39,1.44,1.44,0,0,0,0-2,1.55,1.55,0,0,0-1.17-.48.77.77,0,0,0-.4.11c-.09.05-.08.1,0,.11Z"/><path class="cls-14" d="M99.47,55.26c-2.74,0-7.17-.31-7.17-.31s.83,5.27,7.17,5.27S106.64,55,106.64,55,102.21,55.26,99.47,55.26Z"/><path class="cls-15" d="M99.5,55.26c-1.3,0-6.55-.21-6.55-.21s1.74,2.8,6.44,2.8c5.1,0,6.6-2.76,6.6-2.76Z"/><path class="cls-16" d="M99.55,55.45c-1.3,0-5.26-.21-5.26-.21s1.43,1.39,5.33,1.39,5.14-1.35,5.14-1.35Z"/><path class="cls-14" d="M106.93,54.56a10.54,10.54,0,0,1-1.54.16c-1.08-.09-2.38-.37-3.16-.42a12,12,0,0,0-2.76.41,11.88,11.88,0,0,0-2.76-.41c-.78.05-2.08.33-3.16.42A10.54,10.54,0,0,1,92,54.56c-.19,0,.18,1.42,7.46,1.42S107.12,54.61,106.93,54.56Z"/><path class="cls-6" d="M149.24,87.27s-2.28-5.14-2.05-7.73c.07-.73-1.73-7.26-1.73-7.26s1.46-1.08,2.64,1.39,1.62,3.5,1.62,3.5l.63.52,2.83-3.64s2.52-4.65,3.23-5.71,2.13-3.42,3.71-3c0,0,.92-1.81,1.83-1.46a1.48,1.48,0,0,1,1,.88l-.22,1s.46-.37,1.12.37-2.64,8.81-2.64,8.81l.11.54s3.09-5,3.63-4.92,1,.14.83,1.08-4.92,12.28-8.61,16.9l-.73,2.07-8-1.15Z"/><path class="cls-7" d="M162.34,66a28,28,0,0,1-1.74,4.15,28.51,28.51,0,0,1-2.06,4A26.92,26.92,0,0,1,160.27,70,27,27,0,0,1,162.34,66Z"/><path class="cls-7" d="M160.29,65.43c.08.06-.89,1.76-1.95,3.93s-1.82,4-1.92,4A17.41,17.41,0,0,1,158,69.2,17.07,17.07,0,0,1,160.29,65.43Z"/><path class="cls-7" d="M151.68,77.77a9.29,9.29,0,0,1,4.54,6.54S155.94,77.76,151.68,77.77Z"/><path class="cls-5" d="M142,104.28s-4.21,9.44-4.56,13.92l-.54-1.11S138.91,107.28,142,104.28Z"/><path class="cls-5" d="M73.39,122.12c-.56-1.19-2-2.12-2.79-3.14a11.79,11.79,0,0,1-2.67-6.67,25.22,25.22,0,0,1,.8-7c.5-2.06,1.12-3.46,1.6-5.52a41,41,0,0,0,1.27-5.92,8.91,8.91,0,0,0-1-5.19c1.46,2.49.64,6.21-.15,8.76s-1.86,6.13-2.32,8c-.82,3.34-1.62,9.43,1,12.65s3.18,3.28,3.54,4.1A25.42,25.42,0,0,1,73,127C73.18,124.72,74,123.44,73.39,122.12Z"/><path class="cls-5" d="M73,127a9.61,9.61,0,0,0,0,1.6v-1.09S73.05,127.26,73,127Z"/><path class="cls-5" d="M124.9,127c0,.7-.06,1.18-.06,1.18A10,10,0,0,0,124.9,127Z"/><path class="cls-5" d="M129.91,105.53c-.75-3-1.9-5.91-2.62-8.93-.62-2.59-1.07-5.67.24-8.13a8.75,8.75,0,0,0-1.1,5.71c.68,4.89,2.24,8,3.3,12.8a21,21,0,0,1,.1,7.37,14.13,14.13,0,0,1-4.05,6.58,5.46,5.46,0,0,0-1.13,1.32c-.66,1.4.22,2.35.25,4.74a26.94,26.94,0,0,1,.49-4.71c.36-.82.92-.87,3.53-4.1S130.73,108.87,129.91,105.53Z"/></g><path class="cls-17" d="M79.08,124.21l3.59-1.61,2,4.33,2.52-16.66-3.9-.22c0,.17-4.17,14.16-4.17,14.16"/><polygon class="cls-17" points="86.3 110.64 87.15 126.68 90.27 122.28 94.3 125.17 90.27 109.41 86.3 110.64"/><g class="cls-18"><path class="cls-9" d="M83,111.11a1.54,1.54,0,0,0,1.37,1.08c.37,0,.78-.1,1.08.1s.44.66.81.71.68-.51,1.08-.64c.55-.18,1.12.48,1.67.28.34-.13.5-.58.87-.68a1.16,1.16,0,0,1,.49,0,1,1,0,0,0,.55-.11l-.2-.77-.34-1.5H83.12Z"/></g><path class="cls-19" d="M87.22,98.62a4.77,4.77,0,0,1,1,.21.32.32,0,0,1,0-.17l.91-2.46,0,0a.81.81,0,0,1-.31-.3,1,1,0,0,0-.82-.44c-.17.69-.37,1.65-.52,2.24A2.72,2.72,0,0,1,87.22,98.62Z"/><path class="cls-19" d="M82.8,106.09a4.82,4.82,0,0,1-.54-1.09.42.42,0,0,1-.17.1l-.07,0-.15.07a3.68,3.68,0,0,1-.47.15l-.58.17-1,.27a3.43,3.43,0,0,1-.44.09,1.5,1.5,0,0,1,.42-.15l.37-.11-.85.19c-.11.48-.45,1-.15,1.36l.11.1c1.08-.4,2.46-.91,3.37-1.15A.64.64,0,0,1,82.8,106.09Z"/><path class="cls-19" d="M85.58,98.5v.25a4.66,4.66,0,0,1,1.18-.15v-.07l.06-.89v-.18a10.67,10.67,0,0,1,.06-1.27c-.18-.22-.35-.66-.72-.71s-.45,0-.58.13C85.6,96.5,85.57,97.62,85.58,98.5Z"/><path class="cls-20" d="M80.9,101.61l.23.08-1-.39C80.39,101.4,80.63,101.51,80.9,101.61Z"/><path class="cls-19" d="M82,103.17a5.17,5.17,0,0,1,.19-1.1l-.29-.09a5.16,5.16,0,0,1-1-.29,9.4,9.4,0,0,1-1.07-.5,2.78,2.78,0,0,1-.38-.22l-.2-.09c-.14.22-.34.39-.49.61a.93.93,0,0,0-.12.41A14.3,14.3,0,0,1,82,103.15Z"/><path class="cls-19" d="M82.36,101.54a5.43,5.43,0,0,1,.51-.91l-.07,0a9,9,0,0,1-1.53-1.29v0l-.57-.51a.56.56,0,0,1-.12.2c-.26.26-.76.1-1,.33a.52.52,0,0,0-.18.34A30.6,30.6,0,0,1,82,101.31Z"/><path class="cls-19" d="M82.82,99.87c.12.17.23.31.3.43a5,5,0,0,1,.9-.82L83.66,99c-.13-.14-.27-.31-.41-.49s-.41-.53-.54-.71a2.07,2.07,0,0,1-.19-.32,1,1,0,0,1,.13.14l-.33-.45a.94.94,0,0,1-.32.39,2.35,2.35,0,0,1-.74.17,17.38,17.38,0,0,1,1.35,1.84Z"/><path class="cls-19" d="M84.32,99.28a4.7,4.7,0,0,1,.88-.41.84.84,0,0,0,0-.12c-.06-.22-.14-.54-.21-.9a9.11,9.11,0,0,1-.14-.92c0-.12,0-.24,0-.36V96.5a.83.83,0,0,1-.62-.2A1.09,1.09,0,0,0,83,96.24c.38.92,1,2.19,1.28,3C84.31,99.26,84.32,99.27,84.32,99.28Z"/><path class="cls-20" d="M83.08,100.35v0Z"/><path class="cls-19" d="M82.17,104.74a4.6,4.6,0,0,1-.18-1.17h0a11,11,0,0,1-1.15,0h-.4c-.4,0-.76,0-1,0l-.29,0h-.26l-.17.27a.88.88,0,0,0-.1.84l0,0,3.35.1A.59.59,0,0,1,82.17,104.74Z"/><path class="cls-19" d="M83.74,107.23l.08,0a4.38,4.38,0,0,1-.85-.87.47.47,0,0,1-.13.15.31.31,0,0,1-.1.13c-.21.17-.52.35-.86.58l-.87.55a2,2,0,0,1-.38.2c.11-.09.22-.18.34-.26l.45-.3-1,.58c.06.25,0,.54.09.78a.76.76,0,0,0,.61.35l2-1.5A2.46,2.46,0,0,1,83.74,107.23Z"/><path class="cls-20" d="M92.94,108l.27.21,0,0-.09-.06Z"/><path class="cls-19" d="M90.43,106.56a5.39,5.39,0,0,1-.87.78,2.26,2.26,0,0,1,.25.29l0,0a1.77,1.77,0,0,1,.34.47l.35.59v0l.65,1.11a1.3,1.3,0,0,1,.1-.15c.35-.36,1.07,0,1.44-.35a.47.47,0,0,0,.09-.12c-.68-.75-1.6-1.79-2.18-2.4A1.71,1.71,0,0,1,90.43,106.56Z"/><path class="cls-20" d="M86.92,96.22v0Z"/><path class="cls-19" d="M91.57,104a5,5,0,0,1-.23,1l.13.06.47.25a3.4,3.4,0,0,1-.45-.28,15.84,15.84,0,0,1,1.43.71l.9.5.16.07a.5.5,0,0,1,0-.24c.13-.38.62-.58.79-.91C93.77,104.76,92.46,104.3,91.57,104Z"/><path class="cls-19" d="M90.65,106.28l.34.26.05,0,1.07.75,1.06.77.1.08a5.86,5.86,0,0,1,.55-.3c-.87-.76-1.9-1.82-2.68-2.42A4.31,4.31,0,0,1,90.65,106.28Z"/><path class="cls-19" d="M85.14,108a.41.41,0,0,0,0-.09,4.87,4.87,0,0,1-.88-.45l0,0-.22.24c-.13.17-.32.39-.54.63l-.62.62a1.49,1.49,0,0,1-.27.23.3.3,0,0,1,0-.08l-.39.4c.19.39,0,1,.32,1.27a.51.51,0,0,0,.2.12c.68-.9,1.6-2.08,2.25-2.81A.36.36,0,0,1,85.14,108Z"/><path class="cls-19" d="M87.07,108.21a.35.35,0,0,1,.08.22,1.15,1.15,0,0,1,0,.52c0,.2-.05.42-.08.65s-.08.59-.12.85,0,.64-.08.93a2.45,2.45,0,0,0,.59.4,1,1,0,0,0,.9-.27c-.07-1.08-.12-2.43-.08-3.4l0,.12a.32.32,0,0,1,0-.09,1.71,1.71,0,0,1,.17.39c.08.24.2.58.31,1,0,.11.06.21.08.31.12.4.22.8.3,1.18a1,1,0,0,1,.38-.08,8.46,8.46,0,0,1,.9.23,22.78,22.78,0,0,1-1.19-3.59A4.81,4.81,0,0,1,87.07,108.21Z"/><path class="cls-19" d="M86.61,108.23l0,0a4.54,4.54,0,0,1-1.5-.29l0,0a.08.08,0,0,0,0,0c.09,0,.12.16.11.27a.88.88,0,0,1,0,.16,1.65,1.65,0,0,1-.1.44c-.08.19-.17.39-.28.61a10.93,10.93,0,0,1-.6,1.05l-.23.34a.58.58,0,0,1,.18,0c.47.19.73.87,1.23.81h0c.29-.93.58-2.23.88-3.11A1.07,1.07,0,0,1,86.61,108.23Z"/><path class="cls-19" d="M90.79,100.72l.17-.14a.77.77,0,0,1,.22-.22c.13-.1.28-.19.44-.29.32-.19.61-.35.83-.46l.32-.14.3-.18h0c-.3-.46.09-1.17-.26-1.6l-.06-.06a33.84,33.84,0,0,1-3,2A5.22,5.22,0,0,1,90.79,100.72Z"/><path class="cls-19" d="M91.54,102.63a5.12,5.12,0,0,1,.06.78v.14h.08l.43,0h.1c.29,0,.69,0,1.13.06s.79.07,1.08.11c.07-.32.46-.48.58-.79a.64.64,0,0,0,0-.49c-1,.06-2.43.14-3.29.17Z"/><path class="cls-19" d="M90.37,96.64,88.65,98.8a.46.46,0,0,1-.12.12,4.93,4.93,0,0,1,1.06.57l0,0h0a.62.62,0,0,1,.11-.17c.07-.09.17-.19.27-.3.5-.61,1.08-1.23,1.57-1.74a.65.65,0,0,1-.27-.17c-.21-.21-.26-.57-.51-.73a.62.62,0,0,0-.26-.09v0A.51.51,0,0,1,90.37,96.64Z"/><path class="cls-19" d="M91.43,102.12l.14-.06.33-.15.83-.31.83-.3a1.46,1.46,0,0,1,.36-.09.5.5,0,0,1-.13.06l.44-.14a2,2,0,0,0-.08-1,.77.77,0,0,0-.17-.19A23,23,0,0,1,91,101,4.62,4.62,0,0,1,91.43,102.12Z"/><path class="cls-20" d="M94.4,103.81h0l-.37,0Z"/><path class="cls-20" d="M85.23,98.74a.52.52,0,0,1,0,.11h0c0-.06,0-.12-.07-.2A.36.36,0,0,0,85.23,98.74Z"/><path class="cls-9" d="M89.6,99.5a.06.06,0,0,0,0,0l0,0Z"/><path class="cls-20" d="M90.87,100.85a.41.41,0,0,1,0-.16.39.39,0,0,1,.06-.11l-.17.14Z"/><path class="cls-9" d="M94,106.31v0l-.16-.07Z"/><path class="cls-9" d="M91,106.54l-.34-.26,0,0Z"/><path class="cls-9" d="M91.14,109.8l0,.07v0c-.2-.34-.42-.73-.65-1.11Z"/><path class="cls-20" d="M87,108.21a.39.39,0,0,1,.17.19s0,0,0,0a.42.42,0,0,0-.08-.22Z"/><path class="cls-20" d="M85.19,108a.9.9,0,0,1,.09.32v.11a.88.88,0,0,0,0-.16C85.31,108.17,85.28,108,85.19,108Z"/><path class="cls-9" d="M84.21,107.46h0a2.75,2.75,0,0,1-.19.25l0,0c.08-.08.15-.17.21-.24Z"/><path class="cls-9" d="M82.21,102a.58.58,0,0,1-.19,0l-.14,0,.29.09S82.2,102,82.21,102Z"/><path class="cls-9" d="M84.08,99.43a1.54,1.54,0,0,1-.26-.25L83.65,99c.14.19.26.36.37.49Z"/><path class="cls-9" d="M85.57,98.76h0v-.13A.62.62,0,0,1,85.57,98.76Z"/><path class="cls-9" d="M86.77,98.6h.06c0-.19,0-.55,0-1l0,.89A.17.17,0,0,0,86.77,98.6Z"/><path class="cls-20" d="M88.3,98.66a.32.32,0,0,0,0,.17l.26.09a.46.46,0,0,0,.12-.12l1.72-2.16a.51.51,0,0,0,.15-.35v0c-.31,0-.66.13-1,0l-.22-.07c-.09.26-.24.67-.41,1.13a12.29,12.29,0,0,1-.58,1.41c.14-.49.31-1,.5-1.45s.33-.86.44-1.12l0,0,0,0C88.91,97,88.6,97.84,88.3,98.66Z"/><path class="cls-20" d="M90.44,98.49l.74-.78a1.93,1.93,0,0,1,.33-.31c-.09.12-.18.24-.28.35l-.72.8c-.29.31-.55.59-.75.79a.31.31,0,0,0-.11.19l.09.08c1-.59,2.13-1.33,3-2a.65.65,0,0,0-.27-.17h0c-.29-.1-.64-.1-.92-.21-.48.51-1.06,1.13-1.57,1.74Z"/><path class="cls-20" d="M92.82,99.47a1.68,1.68,0,0,1-.34.2l-.81.48c-.32.19-.63.35-.72.57a.52.52,0,0,0,0,.21l.07.12a23,23,0,0,0,3-1.13c-.28-.23-.7-.31-.9-.62l-.3.17S92.81,99.45,92.82,99.47Z"/><path class="cls-20" d="M93.58,101.36l-.82.32-.84.29a1.4,1.4,0,0,1-.35.1h0l-.14.06c0,.17.08.33.11.51h.13c.86,0,2.25-.11,3.29-.17a1.45,1.45,0,0,0-.2-.34,2.38,2.38,0,0,1-.5-.73,1.33,1.33,0,0,1,0-.28l-.44.14Z"/><path class="cls-20" d="M93.33,103.73l-1.13-.09a2.52,2.52,0,0,1-.47-.06h.38l-.43,0H91.6a3,3,0,0,1,0,.42l3.23,1.17a.59.59,0,0,0,0-.22c0-.41-.47-.72-.45-1.11l-.37,0Z"/><path class="cls-20" d="M91.94,105.29l-.47-.24-.13-.07a3.85,3.85,0,0,1-.19.47c.78.6,1.81,1.66,2.68,2.42a.75.75,0,0,0,.27-.26c.21-.36-.08-.81-.12-1.24-.26-.13-.66-.33-1.1-.57S92.19,105.43,91.94,105.29Z"/><path class="cls-20" d="M92.07,107.39c-.42-.29-.79-.57-1.06-.76s-.33-.25-.39-.31l-.19.24a1.71,1.71,0,0,0,.21.26c.58.61,1.49,1.65,2.18,2.4.16-.26.12-.65.31-.91l.08-.09-.27-.21Z"/><path class="cls-20" d="M90.44,108.76l-.33-.6a2,2,0,0,0-.3-.46.34.34,0,0,0-.33-.08c-.08,0-.1.09-.11.08s0-.06.09-.11a.36.36,0,0,1,.36,0,3.47,3.47,0,0,0-.25-.29l-.27.18a22.67,22.67,0,0,0,1.18,3.59.57.57,0,0,0,.4-.09c.3-.23.18-.72.28-1.08l-.07-.11C90.91,109.56,90.69,109.18,90.44,108.76Z"/><path class="cls-20" d="M89.07,110.45a1.41,1.41,0,0,1,.07.41,2.67,2.67,0,0,1-.13-.4l-.28-1c-.1-.36-.2-.69-.28-1l-.09-.32,0-.11c0,1,0,2.31.08,3.4a4,4,0,0,1,.81-.55c-.08-.38-.18-.78-.3-1.18C89,110,89,110.26,89.07,110.45Z"/><path class="cls-20" d="M86.93,110.79a2.56,2.56,0,0,1-.1.48,2.7,2.7,0,0,1,0-.49c0-.31.08-.73.14-1.19l.09-.65a1,1,0,0,0,0-.51.52.52,0,0,0-.18-.21h-.27l0,0a.81.81,0,0,0-.2.39c-.3.87-.59,2.17-.89,3.1.35-.07.58-.49.94-.52a.66.66,0,0,1,.44.17c0-.28,0-.6.08-.93C87,110.57,87,110.69,86.93,110.79Z"/><path class="cls-20" d="M84.82,109.45c.1-.21.21-.42.28-.6a1.26,1.26,0,0,0,.11-.51.83.83,0,0,0-.07-.34.45.45,0,0,0-.17.11c-.65.73-1.58,1.91-2.25,2.82.37.14.88-.1,1.32-.05l.21-.37C84.4,110.24,84.61,109.87,84.82,109.45Z"/><path class="cls-20" d="M82.59,109.13c.12-.14.42-.46.77-.83s.7-.76.81-.86l-.32-.23a5,5,0,0,1-.42.36,2.32,2.32,0,0,1-.53.35,2.13,2.13,0,0,1,.48-.42l.36-.27a2.39,2.39,0,0,0-.57.34l-2,1.5c.35.06.74.07,1,.34a.57.57,0,0,1,.08.13C82.32,109.4,82.45,109.28,82.59,109.13Z"/><path class="cls-20" d="M81.83,107.09l.87-.55a.3.3,0,0,0,.09-.13.11.11,0,0,0,0-.11c0-.07-.06-.08-.06-.09s.06,0,.1.07a.26.26,0,0,1,0,.15,0,0,0,0,1,0,0,.37.37,0,0,0,.13-.15c0-.07-.11-.14-.16-.22a.64.64,0,0,0-.2,0c-.91.24-2.29.75-3.37,1.15.34.25,1,.14,1.18.52a.88.88,0,0,1,0,.15l1-.58Z"/><path class="cls-20" d="M80.8,105.43l.58-.16.47-.12a1,1,0,0,0,.37-.24.25.25,0,0,1-.07.1.49.49,0,0,1-.13.12l.07,0a.42.42,0,0,0,.17-.1c0-.08-.06-.16-.09-.26a.54.54,0,0,0-.22,0l-3.36-.1c.16.26.51.38.65.65a.83.83,0,0,1,0,.56l.84-.19Z"/><path class="cls-20" d="M79,103.45a1.48,1.48,0,0,1,.42,0l1,0h1a2.1,2.1,0,0,1,.43,0,1.57,1.57,0,0,1-.43,0l-.63,0a11,11,0,0,0,1.15,0h0v-.4l0,0a14.64,14.64,0,0,0-3.36-1.25.4.4,0,0,0,.26.43h0a.46.46,0,0,1,.24.62,1.79,1.79,0,0,1-.27.51h.26Z"/><path class="cls-20" d="M79.37,100.94a2.28,2.28,0,0,1,.45.2l.35.17,1,.39a4.59,4.59,0,0,0,.9.24.29.29,0,0,0,.18,0l0,0,.11-.3c-.15-.07-.39-.2-.65-.35a5.44,5.44,0,0,1-.8-.51,5.55,5.55,0,0,1,.84.43l.28.17a30.9,30.9,0,0,0-2.67-1.7,9.48,9.48,0,0,1,0,1.06.72.72,0,0,1-.09.2l.2.08S79.37,101,79.37,100.94Z"/><path class="cls-20" d="M81,99a2.68,2.68,0,0,1,.3.28c.19.17.44.42.74.67s.57.46.78.62l.07,0,.18-.24v0c-.09-.1-.2-.25-.32-.41a2.83,2.83,0,0,1-.4-.67,1.54,1.54,0,0,1,.25.32,17.5,17.5,0,0,0-1.35-1.85.62.62,0,0,0-.37.2c-.18.23-.11.59-.21.86l.58.5A1.5,1.5,0,0,1,81,99Z"/><path class="cls-20" d="M83.31,98.45a11,11,0,0,1,.77,1,1.58,1.58,0,0,1,.24-.15s0,0,0,0c-.32-.81-.9-2.08-1.28-3l-.18.09c-.28.17-.38.54-.53.84l.33.44Z"/><path class="cls-20" d="M84.79,96.55a1.61,1.61,0,0,1,.08.38c0,.23.1.55.17.9s.12.59.17.81.05.14.07.2l.28-.08a5.43,5.43,0,0,1-.09-.56,2.76,2.76,0,0,1-.06-.57,1.33,1.33,0,0,1,.15.56c0,.11,0,.22,0,.31,0-.88,0-2,0-2.89a5.38,5.38,0,0,0-.47.7.48.48,0,0,1-.35.19v0Z"/><path class="cls-20" d="M86.92,97.46c0,.49,0,.92,0,1.14a1.94,1.94,0,0,1,.34,0,2.93,2.93,0,0,0,.37-.94c.15-.59.35-1.55.52-2.25a.75.75,0,0,0-.3.09c-.26.15-.58.77-.74.78a.24.24,0,0,1-.15-.08v1.24Z"/><path class="cls-21" d="M91.92,102l.84-.29.82-.32.21-.09a.5.5,0,0,0,.13-.06,1.46,1.46,0,0,0-.36.09c-.21.07-.51.17-.83.3l-.83.31-.33.15h0A2,2,0,0,0,91.92,102Z"/><path class="cls-21" d="M92.21,103.58h-.1a1.61,1.61,0,0,0-.38,0,2.5,2.5,0,0,0,.47,0l1.13.09.7,0,.37,0v-.07l-1.07-.1C92.9,103.61,92.5,103.58,92.21,103.58Z"/><path class="cls-21" d="M92.92,105.72a15.84,15.84,0,0,0-1.43-.71,3.4,3.4,0,0,0,.45.28c.25.14.57.32.94.51l1.1.57v-.07l-.16-.09Z"/><path class="cls-22" d="M86.84,111.27a2.73,2.73,0,0,0,.1-.48c0-.11,0-.22,0-.34s.08-.54.12-.85.06-.45.08-.65a1.14,1.14,0,0,0,0-.52,0,0,0,0,0,0,0,.52.52,0,0,0-.17-.19h.09a4.82,4.82,0,0,0,2.22-.69l.27-.18a5.32,5.32,0,0,0,.86-.78l.19-.24c.06.06.2.16.39.31s.64.47,1.06.76l.87.62.2.13.09.06,0,0-.09-.08-1.06-.77L91,106.57l0,0a4,4,0,0,0-.37-.23l0,0a4.94,4.94,0,0,0,.5-.83,3.85,3.85,0,0,0,.19-.47,4.44,4.44,0,0,0,.23-1,2.73,2.73,0,0,0,0-.41v-.14a4.32,4.32,0,0,0-.17-1.29A4.26,4.26,0,0,0,91,101l-.07-.12a.41.41,0,0,1,0-.21c.08-.21.4-.37.71-.56s.6-.36.81-.48a2.39,2.39,0,0,0,.34-.21h0l-.31.14c-.22.11-.51.27-.83.46-.16.1-.31.19-.44.29a.8.8,0,0,0-.23.22l-.06.11a.41.41,0,0,0,0,.16l-.08-.13a5,5,0,0,0-1-1.11l-.1-.08a.39.39,0,0,1,.12-.19l.74-.79.72-.8a3.07,3.07,0,0,0,.28-.35,1.93,1.93,0,0,0-.33.31l-.74.78q-.25.27-.45.51l-.27.3a.59.59,0,0,0-.1.17h0a.06.06,0,0,0,0,0h0a4.71,4.71,0,0,0-1.06-.57,1.34,1.34,0,0,0-.26-.09,4.66,4.66,0,0,0-1-.21l-.34,0c0-.22,0-.65.05-1.14s0-1,0-1.17v-.09h0c0,.1,0,.63-.06,1.27v1.14h-.07a4.77,4.77,0,0,0-1.18.15h0s0-.09,0-.13V98.5a1.89,1.89,0,0,0,0-.31,1.59,1.59,0,0,0-.14-.56,2.69,2.69,0,0,0,.06.57,3.43,3.43,0,0,0,.08.56l-.27.09h0a.5.5,0,0,0,0-.12.47.47,0,0,1,0-.09c0-.22-.1-.5-.16-.81s-.13-.68-.17-.91,0-.25-.08-.38v0a2.3,2.3,0,0,0,0,.37c0,.23.07.56.14.92s.15.67.21.9a.76.76,0,0,1,0,.11,4.74,4.74,0,0,0-.88.42,1.58,1.58,0,0,0-.24.15s-.34-.46-.77-1l-.66-.85c-.07-.09-.12-.13-.13-.13a1.61,1.61,0,0,0,.19.31c.13.19.32.44.54.72s.28.35.41.49l.17.19a1.24,1.24,0,0,0,.26.25l-.06,0a4.67,4.67,0,0,0-.9.82c-.08-.12-.18-.27-.3-.43l-.22-.3a1.59,1.59,0,0,0-.26-.32,2.87,2.87,0,0,0,.41.67,4.59,4.59,0,0,0,.32.41v0h0a1.3,1.3,0,0,0-.18.23l-.07,0c-.21-.15-.49-.37-.78-.62s-.55-.49-.74-.66A1.58,1.58,0,0,0,81,99a1.48,1.48,0,0,0,.25.31h0a8.17,8.17,0,0,0,1.52,1.29l.07,0a4.4,4.4,0,0,0-.5.9l-.36-.22-.28-.17a5.55,5.55,0,0,0-.84-.43,4.68,4.68,0,0,0,.8.5,7.1,7.1,0,0,0,.65.36l-.11.3,0,0a.38.38,0,0,1-.18,0,4.59,4.59,0,0,1-.9-.24l-.23-.08-.73-.31-.35-.17a2.28,2.28,0,0,0-.45-.2l0,0a2.78,2.78,0,0,0,.38.22,9.56,9.56,0,0,0,1.07.51,5.14,5.14,0,0,0,1,.28l.14,0a.39.39,0,0,0,.18,0l0,.12a4.45,4.45,0,0,0-.19,1.09v.41a5.11,5.11,0,0,0,.19,1.16,2.76,2.76,0,0,0,.08.27,5.07,5.07,0,0,0,.55,1.09c0,.07.1.15.16.22a5.31,5.31,0,0,0,.84.87l-.07,0-.37.27a2.38,2.38,0,0,0-.47.43,2.75,2.75,0,0,0,.53-.36c.14-.11.29-.23.42-.35l.32.22-.81.86-.77.84s-.06.07,0,.07a1.18,1.18,0,0,0,.27-.23c.17-.15.38-.37.62-.62s.4-.45.54-.62l0,0,.19-.25h0a4.82,4.82,0,0,0,.88.44.47.47,0,0,1,0,.1.8.8,0,0,1,.07.34,1.25,1.25,0,0,1-.11.5c-.08.19-.18.39-.28.6-.21.42-.42.8-.57,1.06l-.21.37h0c0-.07.13-.18.23-.34a10.93,10.93,0,0,0,.6-1.05c.1-.21.2-.42.27-.61a1.34,1.34,0,0,0,.1-.44.17.17,0,0,0,0-.1.63.63,0,0,0-.09-.33s0,0,0,0l0-.06a4.49,4.49,0,0,0,1.5.29h.27a.53.53,0,0,1,.17.25,1,1,0,0,1,0,.51l-.09.65c-.06.47-.11.89-.14,1.19m-.09-3.16A4.22,4.22,0,1,1,91,103.41h0A4.22,4.22,0,0,1,86.79,107.62Z"/><path class="cls-21" d="M90.53,108.73v0l-.35-.59a1.77,1.77,0,0,0-.34-.47l0,0a.34.34,0,0,0-.35,0c-.09,0-.1.1-.1.1a.38.38,0,0,1,.11-.07.33.33,0,0,1,.33.07,2,2,0,0,1,.3.46l.34.6c.24.42.47.8.64,1.08l.06.1s0,0,0-.07l0-.07Z"/><path class="cls-21" d="M88.73,109.5l.28,1a2.67,2.67,0,0,0,.13.4,1.41,1.41,0,0,0-.07-.41c0-.19-.1-.42-.17-.67,0-.1-.05-.2-.08-.31-.11-.37-.23-.71-.31-1a1.92,1.92,0,0,0-.17-.39.27.27,0,0,0,0,.09c0,.06,0,.17.09.32S88.63,109.14,88.73,109.5Z"/><path class="cls-21" d="M82.83,106.28a.12.12,0,0,0-.1-.07.14.14,0,0,1,.06.09.11.11,0,0,1,0,.11.3.3,0,0,1-.09.13l-.87.55-.42.27-.44.3a3,3,0,0,0-.34.26,1.65,1.65,0,0,0,.37-.2l.88-.55c.34-.22.64-.42.86-.58a.38.38,0,0,0,.09-.13,0,0,0,0,0,0,0A.2.2,0,0,0,82.83,106.28Z"/><path class="cls-21" d="M82.15,105a.25.25,0,0,0,.07-.1,1,1,0,0,1-.37.24l-.47.12-.58.16-.67.19-.37.11a1.69,1.69,0,0,0-.43.15,3.12,3.12,0,0,0,.44-.09l1.06-.27.58-.17a4.26,4.26,0,0,0,.47-.15.61.61,0,0,0,.14-.07A.37.37,0,0,0,82.15,105Z"/><path class="cls-21" d="M81.87,103.51a3,3,0,0,0-.43,0h-1l-1,0a3.09,3.09,0,0,0-.43,0,.35.35,0,0,0,.14,0l.29,0c.26,0,.62,0,1,.06h.4a6.22,6.22,0,0,0,.64,0A1.5,1.5,0,0,0,81.87,103.51Z"/><path class="cls-21" d="M88.34,98.77a13.62,13.62,0,0,0,.58-1.42c.17-.45.31-.86.4-1.13l0,0c-.1.26-.26.66-.43,1.12A13.08,13.08,0,0,0,88.34,98.77Z"/><circle class="cls-23" cx="86.79" cy="103.41" r="4.22"/><path class="cls-21" d="M86.34,111.31s.22,3.44.45,7.69.39,7.69.36,7.69-.23-3.44-.45-7.69S86.31,111.31,86.34,111.31Z"/><path class="cls-20" d="M87.12,101l.6,1.2a.18.18,0,0,0,.15.11l1.32.19a.21.21,0,0,1,.17.24.31.31,0,0,1,0,.1l-1,.93a.21.21,0,0,0-.06.18l.22,1.32a.21.21,0,0,1-.16.24.2.2,0,0,1-.13,0L87,104.9a.21.21,0,0,0-.19,0l-1.19.63a.2.2,0,0,1-.27-.09.19.19,0,0,1,0-.13L85.6,104a.21.21,0,0,0-.06-.18l-1-.93a.21.21,0,0,1,0-.29.31.31,0,0,1,.1,0l1.33-.19a.21.21,0,0,0,.15-.11l.59-1.2A.2.2,0,0,1,87,101,.2.2,0,0,1,87.12,101Z"/><polygon class="cls-24" points="47.02 41.05 47.95 43.32 50.38 43.5 48.52 45.08 49.1 47.46 47.02 46.17 44.94 47.46 45.53 45.08 43.65 43.5 46.1 43.32 47.02 41.05"/><polygon class="cls-25" points="28.63 49.96 29.38 51.89 31.35 52.05 29.83 53.39 30.31 55.41 28.63 54.31 26.94 55.41 27.42 53.39 25.9 52.05 27.89 51.89 28.63 49.96"/><polygon class="cls-26" points="35.48 38.32 36.23 40.25 38.2 40.41 36.68 41.75 37.16 43.77 35.48 42.67 33.79 43.77 34.26 41.75 32.74 40.41 34.73 40.25 35.48 38.32"/><polygon class="cls-25" points="54.49 34.51 55.06 35.93 56.59 36.04 55.42 37.03 55.79 38.51 54.49 37.71 53.19 38.51 53.55 37.03 52.38 36.04 53.91 35.93 54.49 34.51"/><polygon class="cls-27" points="55.25 53.22 56.17 55.49 58.61 55.67 56.74 57.24 57.33 59.62 55.25 58.33 53.16 59.62 53.76 57.24 51.88 55.67 54.33 55.49 55.25 53.22"/><polygon class="cls-26" points="62.82 40.54 64.13 43.73 67.56 43.98 64.92 46.2 65.75 49.55 62.82 47.73 59.89 49.55 60.72 46.2 58.08 43.98 61.53 43.73 62.82 40.54"/><polygon class="cls-27" points="43.65 23.7 44.67 26.22 47.39 26.42 45.31 28.17 45.96 30.81 43.65 29.37 41.34 30.81 41.99 28.17 39.92 26.42 42.63 26.22 43.65 23.7"/><polygon class="cls-28" points="41.51 57.03 42.7 59.93 45.86 60.16 43.43 62.17 44.2 65.21 41.51 63.55 38.81 65.21 39.56 62.17 37.14 60.16 40.31 59.93 41.51 57.03"/><polygon class="cls-28" points="62.83 20.82 63.45 22.34 65.11 22.47 63.84 23.52 64.24 25.11 62.83 24.24 61.41 25.11 61.81 23.52 60.54 22.47 62.2 22.34 62.83 20.82"/><polygon class="cls-24" points="158.49 41.5 160.01 45.23 164.02 45.53 160.95 48.12 161.91 52.04 158.49 49.91 155.06 52.04 156.03 48.12 152.95 45.53 156.98 45.23 158.49 41.5"/><polygon class="cls-25" points="135.37 49.69 136.19 51.81 138.36 51.98 136.69 53.45 137.22 55.68 135.37 54.47 133.51 55.68 134.04 53.45 132.37 51.98 134.55 51.81 135.37 49.69"/><polygon class="cls-26" points="142.89 36.9 143.71 39.02 145.88 39.19 144.22 40.67 144.74 42.89 142.89 41.68 141.04 42.89 141.56 40.67 139.89 39.19 142.07 39.02 142.89 36.9"/><polygon class="cls-26" points="156.31 14.26 157.13 16.38 159.3 16.55 157.63 18.03 158.16 20.25 156.31 19.04 154.46 20.25 154.98 18.03 153.31 16.55 155.49 16.38 156.31 14.26"/><polygon class="cls-26" points="50.39 14.7 50.8 15.76 51.88 15.85 51.05 16.58 51.31 17.69 50.39 17.09 49.46 17.69 49.72 16.58 48.89 15.85 49.98 15.76 50.39 14.7"/><polygon class="cls-26" points="148.07 55.53 148.48 56.59 149.56 56.68 148.73 57.41 148.99 58.53 148.07 57.92 147.14 58.53 147.4 57.41 146.57 56.68 147.66 56.59 148.07 55.53"/><polygon class="cls-25" points="170.75 31.22 171.39 32.78 173.06 32.91 171.78 33.99 172.18 35.62 170.75 34.74 169.32 35.62 169.72 33.99 168.43 32.91 170.11 32.78 170.75 31.22"/><polygon class="cls-24" points="28.63 22.22 29.55 24.48 31.99 24.66 30.12 26.24 30.71 28.61 28.63 27.33 26.54 28.61 27.13 26.24 25.26 24.66 27.7 24.48 28.63 22.22"/><polygon class="cls-24" points="184.72 28.02 185.64 30.29 188.09 30.46 186.21 32.04 186.81 34.42 184.72 33.13 182.64 34.42 183.23 32.04 181.35 30.46 183.8 30.29 184.72 28.02"/><polygon class="cls-26" points="178.14 42.77 179.14 45.22 181.78 45.41 179.76 47.12 180.39 49.69 178.14 48.29 175.89 49.69 176.53 47.12 174.5 45.41 177.15 45.22 178.14 42.77"/><polygon class="cls-27" points="156.84 28.69 157.74 30.91 160.14 31.08 158.31 32.63 158.88 34.95 156.84 33.69 154.81 34.95 155.38 32.63 153.55 31.08 155.94 30.91 156.84 28.69"/><polygon class="cls-28" points="140.78 22.09 142.09 25.27 145.57 25.53 142.9 27.74 143.74 31.08 140.78 29.25 137.81 31.08 138.64 27.74 135.98 25.53 139.47 25.27 140.78 22.09"/><polygon class="cls-28" points="18.33 34.02 19.64 37.2 23.12 37.46 20.45 39.67 21.3 43.01 18.33 41.19 15.37 43.01 16.2 39.67 13.53 37.46 17.02 37.2 18.33 34.02"/><polygon class="cls-28" points="170.88 19.44 171.58 21.14 173.45 21.28 172.01 22.47 172.47 24.26 170.88 23.28 169.29 24.26 169.73 22.47 168.3 21.28 170.17 21.14 170.88 19.44"/></svg>