<svg xmlns="http://www.w3.org/2000/svg" xmlns:xlink="http://www.w3.org/1999/xlink" viewBox="0 0 637.33 635.77"><defs><style>.cls-1,.cls-13{fill:none;}.cls-2{clip-path:url(#clip-path);}.cls-3{fill:#c1e7f6;}.cls-4{fill:#a86e57;}.cls-5{fill:#6c2716;}.cls-6{fill:#df9a48;}.cls-7{fill:#cdb54c;}.cls-8{fill:#343535;}.cls-9{fill:#5e5f5e;}.cls-10{fill:#502e26;}.cls-11{fill:#12100e;}.cls-12{fill:#aaa;}.cls-13{stroke:#000;stroke-width:1.23px;}.cls-13,.cls-23{stroke-miterlimit:10;}.cls-14{fill:#b5512f;}.cls-15{fill:#323d1f;}.cls-16{fill:#663a2c;}.cls-17{fill:#32150f;}.cls-18{fill:#f0edf5;}.cls-19{fill:#0a0d0d;}.cls-20{fill:#523735;}.cls-21{fill:#755146;}.cls-22{fill:#7b4c27;}.cls-23,.cls-24{fill:#14110f;}.cls-23{stroke:#151211;stroke-width:0.47px;}.cls-25{fill:#151211;}.cls-26{fill:#221e1f;}</style><clipPath id="clip-path"><path class="cls-1" d="M628.18,246.57A147.75,147.75,0,0,0,480.42,98.81c-1.19,0-2.39,0-3.58,0A287.53,287.53,0,0,0,318.67,51.71a291.54,291.54,0,0,0-41.84,3A147.76,147.76,0,0,0,47.44,241a288.25,288.25,0,0,0-17.62,99.57c0,159.53,129.32,288.85,288.85,288.85S607.52,500.09,607.52,340.56c0-5.93-.2-11.82-.56-17.67A147,147,0,0,0,628.18,246.57Z"/></clipPath></defs><g id="Layer_1" data-name="Layer 1"><g class="cls-2"><circle class="cls-3" cx="319.06" cy="340.56" r="288.85"/><path class="cls-4" d="M203.56,92.73l.33.26a3.64,3.64,0,0,1-.3-.54Zm12.61,3.62q.27.29.57.57l0-.24S216.2,96.07,216.17,96.35ZM124.86,218.13c11,13.21,34,27.65,53,28.38,6.8.26,13.31,0,18.74-8s10.3-11.16,16.18-18.61c5.65-7.13,8.24-11.65,11.15-20.24,3-8.88,3.18-11.27,2.9-20.4a89.83,89.83,0,0,1,.64-14.09c.69-4.46,4.08-22,5.28-32.33s-5.5-30.57-5.5-30.57c-.37-2.86-4.36-1.69-5.69-4.06l-1.22-.1a1.21,1.21,0,0,1,.51,1.17,9.65,9.65,0,0,1-4.1-2.37v0c-1.91.69-3.67-.31-5.08-1.84,0,.28.24.86.54.89a6.16,6.16,0,0,1-4.74-2.1c0,.28.24.87.21,1.15A11.25,11.25,0,0,1,203.89,93c.25.39,7.23-.09,7.21.1-1.85.13.19.92-1.22-.62l-1.42-1.17c-1.55.15-1.57,1.08-2.7-.15.28.31-.58-3.16-.6-2.88-1.84-.15-1.33-.23-2.78-1.2,0,.27-5.15,1.39-5.17,1.67-1.53-.13-1.25,1.31-2.37.08.28.31,1.2-1.08,1.48-.77-1.85.12-2.64,1.24-4-.29.28.3-5.78-3.6-5.78-3.6-1.85.13-1.59.73-3-.52.56.61-8.41-1.24-8.16-.66-1.52-.13,2.44,5.85,1.29,4.9,0,.28-3.44-1.14-3.44-1.14-1.55.15.62,1.75-.5.52,0,.28.21,1.15.51,1.18-1.9.68-4-.06-5.73-1.34.56.61.82,1.2,1.1,1.51-1.53-.13-2.77,0-4.2-1.21,0,.28.51,1.17.82,1.2a6.08,6.08,0,0,1-4.84-1c0,.28.54.9.82,1.2a4.34,4.34,0,0,1-3.61-.87l.82,1.2c-1.22-.11-2.19.37-4-.34,0,.28.56.61.54.89a11.29,11.29,0,0,1-3-.54c0,.28.84.92.53.89-1.22-.1-2.18.38-3.66-.31.28.31.54.89.82,1.2-1.22-.11-2.47.07-3.64-.6a2.08,2.08,0,0,0,.52,1.18c-1.23-.11-2.19.38-3.67-.31,0,.27.54.89.82,1.19a15.48,15.48,0,0,1-3.66-.31c0,.28.56.61.84.92a9.88,9.88,0,0,1-3.95-.62c0,.56.24.87.21,1.15-.91-.08-1.5-.41-2.41-.49l-1.58.43c-4.75,5.24-20.41-.66-20.41-.66-10.11,6.76-.74,46.56-.89,51.91s-3.3,6.58-3.3,6.58c-1.36-2.09-3.72,3.55-4.44,1.23-.75-2,.08-4.51-.67-6.55-2.37-4.72-8.59-3.84-12.19-1.32l-.64.87c-5.21,5.94-1.78,26.07,1.19,32.21,0,12,10,19.13,16.59,11l1.27,4.79"/><path class="cls-5" d="M71.84,93.56s34.08-17.35,78.34-12.92,66.12,31.3,74,50.64-.09,39.85-.09,39.85,11.08,2.88,18-37c10.1-58.1-49.52-92.44-63.81-92.09S90.79,28.4,71.84,93.56Z"/><path class="cls-6" d="M464.76,360c-5.11.59-21.6,10.5-23.07,11.68-24.51,19.81-22.95,24-26.67,40.36-9.68,42.5-4,89.63-9.19,117.53-.26,15.78-3.85,26.48-2.82,42.24,1.14,17.64,1.56,36.38,5.82,53.54,1.24,5,4.91,8.6,6.42,13.52,2.13-19.13,16.62-25,22.75-22,27.75-3.57,26-145.38,50.33-184.95C488.33,431.92,476.19,358.69,464.76,360Z"/><path class="cls-7" d="M183.13,362.57C218.25,399,246.05,493,311.69,491.64c38.07-4.54,4.8-55.46,12.74-64.1,2.47-2.7-8.58-1.8-8.78-5.46-.09-1.65,14.15,8.95,13.3,7.53C313,403.22,294.37,360.71,270,315.49c-8.67-16.08-9.72-30.16-40.39-45.53-1.83-.92-52.83-13.83-58.4-13.28C158.74,257.93,183.13,362.57,183.13,362.57Z"/><path class="cls-7" d="M356.24,430.8q7.17-23.54,12.33-47.61c1-4.58,11.28-69.74,11-69.85-11.76-4.77-27-9.07-38.51-13.93-17.2,37.4-36,75.53-57.26,111-3.11,5.2-10.43,12.62-6.69,19.27s13.13,11.86,18.1,18.35c0,0,8.72,43.26,8.8,43.29,9.21,3.28,27.54-2,37.68-19.58C346,464.21,349.34,452.16,352,444Q354.23,437.43,356.24,430.8Z"/><path class="cls-8" d="M177,611.15l1,6.62c.21,1.43,1.19,2.47,2.19,2.32s1.59-1.44,1.38-2.86l-1-6.62a6.36,6.36,0,0,0,1.5-5.67c-.52-3.15-2.71-5.38-4.89-5s-3.52,3.28-3,6.43A6.57,6.57,0,0,0,177,611.15Z"/><path class="cls-9" d="M81.77,87.77c4.69-6.77,12-11.34,19.93-9.3-.51-15.35,14.26-24.55,29.61-25.15,7.88,0,16,3.52,23.43.83,4.63-1.67,8.1-5.34,12-8.42,16.48-12.49,42.72,1.53,57,16.53s10.94,31.93,3.94,51.39c-3.25,9-2.65,13.94-3.58,23.58-.86,9.09-6.18,26-6.18,35s14.18,18.31,5.09,19.13L123.8,180.77c-14.7,3.06-24.15-1.3-31.82-14.2-5-8.76-3.37-9.18-4.13-19.22-1.31-13.13-14.76-22.87-14.12-36C73.88,103,77.49,94.85,81.77,87.77Z"/><path class="cls-5" d="M69.46,87.35S103.55,70,147.8,74.43s66.12,31.29,74,50.64-.09,39.84-.09,39.84,11.08,2.88,18-37c10.1-58.09-49.52-92.43-63.81-92.09S88.41,22.19,69.46,87.35Z"/><path class="cls-4" d="M108.55,185.39s-1.27,35-10.42,59.44c-1.28,3.42-22.85,19-22.85,19l32,8c18,4,63.93,21.2,81.2,14.84l9.31-22.32s-19.1-9.16-20-13.36,2.06-36,2.06-36"/><path class="cls-7" d="M52.89,678.19c44.65,14.06,93.35,13,139.67,11.35a585.28,585.28,0,0,0,86-9.36c2.13-36.17,4.37-91.54.46-120.67-6.12-45.57-7.52-46.19-7.52-46.19l-6.08-19.7-4.07-26.44c4-20.61,13.07-90.21,7.81-98.51l-40.61-87.11-47.69-27c1.49,2.63,16.41,17.58-.37,26.09a39.7,39.7,0,0,1-17.36,4.14l-1.34,0c-40.16-1.63-69.08-35.42-69.08-35.42L55.89,261.52,31.05,460.22s-33.82,85-35.39,123c-1,24,1,16,1.22,40.11C16.92,629,33,671.92,52.89,678.19Z"/><path class="cls-10" d="M177.71,245.14s-7.39-1.18-12.48-2.59-13.81-1.08-37.35-21.34c0,0,7,25,37,30.23,0,0,7.74,1.59,12.82.34Z"/><path class="cls-4" d="M203.43,93l.32.26a4.85,4.85,0,0,1-.3-.54ZM216,96.58a7.66,7.66,0,0,0,.57.57l0-.24S216.06,96.3,216,96.58ZM124.73,218.36c11,13.21,34,27.65,53,28.38,6.81.26,13.32,0,18.75-8s10.29-11.16,16.18-18.61c5.64-7.13,8.23-11.64,11.15-20.24,3-8.88,3.18-11.27,2.89-20.4a89.82,89.82,0,0,1,.65-14.09c.69-4.46,4.08-22,5.27-32.33s-5.5-30.57-5.5-30.57c-.37-2.86-4.35-1.69-5.69-4.06l-1.22-.1a1.2,1.2,0,0,1,.52,1.17,9.65,9.65,0,0,1-4.1-2.37v0c-1.91.69-3.66-.31-5.07-1.84,0,.28.23.86.54.89a6.16,6.16,0,0,1-4.75-2.1c0,.28.24.87.22,1.15a11.3,11.3,0,0,1-3.79-2.07c.25.39,7.23-.09,7.22.1-1.86.13.19.92-1.22-.62l-1.43-1.17c-1.55.15-1.57,1.08-2.7-.15.28.31-.57-3.16-.6-2.88-1.83-.15-1.32-.23-2.78-1.2,0,.27-5.15,1.39-5.17,1.67-1.52-.13-1.24,1.31-2.37.08.28.31,1.21-1.08,1.49-.77-1.86.12-2.65,1.24-4.06-.29.29.3-5.77-3.6-5.77-3.6-1.86.13-1.6.73-3-.52.57.61-8.41-1.24-8.15-.66-1.53-.13,2.44,5.85,1.29,4.9C176.44,88.4,173,87,173,87c-1.55.15.63,1.75-.5.52,0,.28.21,1.15.52,1.18-1.91.68-4-.06-5.73-1.34.56.61.82,1.2,1.1,1.51-1.53-.13-2.77,0-4.21-1.21,0,.28.52,1.17.82,1.2a6.06,6.06,0,0,1-4.83-1c0,.28.54.9.81,1.2a4.34,4.34,0,0,1-3.61-.87l.82,1.2c-1.22-.11-2.18.37-4-.34,0,.28.56.61.54.89a11.29,11.29,0,0,1-3-.54c0,.28.84.92.54.89-1.22-.1-2.19.38-3.66-.31.27.31.53.89.82,1.2-1.23-.11-2.47.07-3.65-.6a2.12,2.12,0,0,0,.52,1.18c-1.22-.11-2.19.38-3.67-.31,0,.28.54.89.83,1.19a15.57,15.57,0,0,1-3.67-.31c0,.28.56.61.85.92a9.86,9.86,0,0,1-3.95-.62c-.05.56.23.87.21,1.15-.92-.08-1.5-.41-2.42-.49l-1.58.43c-4.75,5.24-20.4-.66-20.4-.66-10.12,6.76-.74,46.56-.89,51.91s-3.3,6.58-3.3,6.58c-1.36-2.09-3.72,3.55-4.45,1.23-.74-2,.08-4.51-.67-6.55-2.36-4.72-8.59-3.84-12.19-1.32l-.64.87c-5.21,5.94-1.77,26.07,1.2,32.21,0,12,10,19.13,16.59,11l1.26,4.78"/><path d="M189,193.4a8.77,8.77,0,0,1-7.91-1.18c-.48-.35-2.18-.19-1.51.3A12.34,12.34,0,0,0,190.31,194c.3-.13.27-.35-.08-.5a2,2,0,0,0-1.28,0"/><path d="M178.6,191.8a14.23,14.23,0,0,0-4.8-1.64,1.16,1.16,0,0,0-.77.17c-.15.12-.19.29,0,.41a5.45,5.45,0,0,0,2.64.84,1,1,0,0,0,.86-.25c.17-.22-.1-.39-.32-.4a4.27,4.27,0,0,1-2.13-.69l-.79.58a12.5,12.5,0,0,1,4.28,1.47,1.07,1.07,0,0,0,.91,0c.19-.09.4-.32.14-.47"/><path d="M171.86,191.43c-2-.22-4.23-1.28-5.08-2.84-1.28-2.37.4-5.79,3-7,.29-.14.16-.35-.11-.43a1.56,1.56,0,0,0-1.07.13,6.86,6.86,0,0,0-3.77,6c.14,2,1.92,3.52,4.24,4.29a10.51,10.51,0,0,0,2.17.49,1.32,1.32,0,0,0,1-.23c.17-.22-.1-.35-.38-.38"/><path d="M192.66,192.71a.25.25,0,0,1,.28-.35,2.32,2.32,0,0,0,1.58-.37l.47.68a7,7,0,0,0-3.2.84.57.57,0,0,1-.62-.15c-.12-.12-.24-.38,0-.49"/><path d="M191.14,192.87a7.77,7.77,0,0,1,3.57-.92.65.65,0,0,1,.51.28.27.27,0,0,1,0,.4"/><path d="M196.75,193.33a4.07,4.07,0,0,0,3.64-2.1,5.78,5.78,0,0,0-1-6.46.23.23,0,0,1,.13-.4.77.77,0,0,1,.67.27,6.48,6.48,0,0,1,1.64,5.56,4.67,4.67,0,0,1-4.76,3.82c-.19,0-.54-.13-.61-.37s.11-.33.29-.32"/><path class="cls-11" d="M213.09,156.15a4.24,4.24,0,0,1,5.83,3.39,4.44,4.44,0,0,1-1.38,3.93,4.12,4.12,0,0,1-4.78.42,4.54,4.54,0,0,1-1.78-5.46,4,4,0,0,1,2.11-2.28"/><path class="cls-11" d="M197.47,160.51s8.81-5.79,13.06-5.85c6.21-.08,13.51,4,15.43,7.22,0,0-9.61-6-14-5.77C207.8,156.29,197.47,160.51,197.47,160.51Z"/><path class="cls-11" d="M161.66,152.4c-1.62-1-4.37-1-5.56-.13a4.34,4.34,0,0,0-1.46,1.89,4.44,4.44,0,0,0,.7,4.11A4.11,4.11,0,0,0,160,159.5a4.55,4.55,0,0,0,2.68-5.08c-.06-.34.33-1-1-1.78"/><path class="cls-11" d="M172,157.85s-8.82-6.73-13.39-7.25c-6.67-.77-15,2.47-17.43,5.48,0,0,11-4.87,15.71-4.21C161.35,152.51,172,157.85,172,157.85Z"/><path class="cls-12" d="M200.53,137.23c-.06,1.25-.12,2.51-.17,3.76-.05,1-.09,1.92-.12,2.87,3.23-.65,6-1,8.08-1.28,4.4-.52,6.65-.76,9.17-.21a24.39,24.39,0,0,1,5.71,2.11,16.18,16.18,0,0,1,3,1.77c2.07,1.66,2.86,3.46,3.22,3.32s-.12-1.69-.17-1.85a14.67,14.67,0,0,0-4.26-6.58,17.34,17.34,0,0,0-5.76-3c-2.48-.76-9.4-1.57-18.68-.92"/><path class="cls-12" d="M176,135.69c-.26,1.23-.52,2.45-.79,3.68-.2.94-.4,1.87-.61,2.8-3.24-1.5-6-2.62-8.18-3.42-4.5-1.69-6.81-2.54-9.61-2.69a28,28,0,0,0-6.56.5,17,17,0,0,0-3.59.91c-2.61,1-3.9,2.56-4.25,2.33s.57-1.6.66-1.74a14.76,14.76,0,0,1,6.18-5.2,19.51,19.51,0,0,1,6.84-1.34c2.81-.07,10.31,1,19.91,4.17"/><path class="cls-13" d="M105.05,168.44c-6.42-16.11-11.23-16.33-11.23-16.33s-3.33,3.62-1.89,11.07"/><path class="cls-13" d="M102.53,169.84c-4.3-.53-1.17,7.61-2.4,9.48s-2.7-3.2-3.1-9.3c0,0,.18-8.22,4.3-9.63"/><path class="cls-10" d="M214.07,120.74s-13.19,1.44-23.89,1.5-21.13-5.43-21.13-5.43,16.79,4.19,21.21,4.31S214.07,120.74,214.07,120.74Z"/><path class="cls-12" d="M221.38,90.08c-.13-.2.06.08,0,0-2.63-3.76-4.29-7.76-7.08-11.4s-5.42-6.79-8.35-10.2c-.17-.2-3.67-.31-3.84-.51l-.19-.21-.28-.32-.66-.73c-16.55-7.35-36.6-8.51-54.73-3.07a66.57,66.57,0,0,0-44.66,82.88c.9,3-.92,6.65,2,8.37s3.3.88,6.1-1A21.9,21.9,0,0,0,116,146c7.73-14.48,9.74-37.58,6.39-53.65,1.93,3,15.49,0,18.48,2a25.79,25.79,0,0,0,35.76-7.15,39.37,39.37,0,0,0,4.06,5c13.63,14.37,31.49,21.41,46.52,11.41C227.78,103.27,223,92.46,221.38,90.08Z"/><path class="cls-14" d="M84.18,153.16S50.81,129,63.53,103c2.44-5,2.71-3.35,2.86-7.66.75-22.61-7.16-17.22,26-43.65s38-26,88.52-22.21c26.06,1.94,40.33,12.83,47.45,29.35,3.2,7.42,5,16,5.69,25.37,0,0-53.26-15.18-85,1.92s-65,72.77-58.24,90.63C92.69,181.73,84.18,153.16,84.18,153.16Z"/><path class="cls-5" d="M63.61,128.42s45.2-65.84,105.45-67.85c0,0-74.42-8-107.36,45.19L61.21,112a34,34,0,0,0,1.09,11.57Z"/><path class="cls-7" d="M-26.12,478.14l60.58,3.12L51.88,371.08,60.57,260.2s-36.8,4.4-53.83,36.47S-24.19,419.44-25.65,438.76C-26.66,452.13-26.34,476.57-26.12,478.14Z"/><path class="cls-15" d="M254.18,320a46.64,46.64,0,0,0-2.12,5.36c-.72,2.2-1.63,4.88-1.36,7.23.24,2.17,1.32,4.4,2.08,6.41,3.42,9.06,7.06,18,10.3,27.15,4,11.16,7.63,22.57,9.67,34.26A69.85,69.85,0,0,1,274,415.43a85.49,85.49,0,0,1-3.65,21.23c-1.55,5.09-3.65,10-5.68,14.88A50.24,50.24,0,0,0,260.88,464a28.88,28.88,0,0,0-.25,3.35c0,.24,1.44,0,1.45-.39.18-9.53,5.36-18.06,8.46-26.84,4-11.47,5.91-23.87,4.31-36-1.53-11.54-5-22.81-8.7-33.8-3.33-9.76-7.12-19.35-10.84-29a85.19,85.19,0,0,1-2.9-8.07,8.13,8.13,0,0,1-.07-3.77,37.07,37.07,0,0,1,2.58-8.27c.22-.53.45-1,.69-1.57.11-.23-1.25-.13-1.43.25Z"/><path class="cls-16" d="M182.19,204.64c-8.69-.65-22.69-2.83-22.69-2.83s-2.87,22,22,24.12c20.13,1.73,21.91-20.71,21.91-20.71S190.88,205.29,182.19,204.64Z"/><path class="cls-17" d="M182.27,204.64c-4.13-.31-20.73-2.32-20.73-2.32s5.89,15,20.83,16.14c16.21,1.22,18.91-12.89,18.91-12.89Z"/><path class="cls-18" d="M182.4,205.34c-4.13-.31-16.64-2-16.64-2s4.15,5.31,16.54,6.24S199,206,199,206Z"/><path class="cls-16" d="M204.39,203.89c-.43-.15-2.9.55-4.94.2-3.39-.58-3.78-1.73-6.24-2.12-4.21-.68-7,1-8.87.82s-4.39-2.18-8.65-2.14c-2.49,0-8.7.56-12.15.62-2.06,0-4.4-1-4.85-.93-.62.12.19,5.13,23.31,6.87S205,204.11,204.39,203.89Z"/><path class="cls-4" d="M159.78,477.41c.12,2.09-.16,14.67-.08,16.76.45,11.69.73,12.89.35,24.57L182.6,516l-.51-34.78Z"/><path class="cls-4" d="M173.58,516.65l23.87-2.4s12.42,4.47,22.49,2.88a79.33,79.33,0,0,0,20.8-7.21l23-3.22s10.61,4.24,12.18,1-2-5.85-5.43-8.41-60.43-20-60.43-20a107.45,107.45,0,0,1,16.85-7.58c9-3.07,9.78-9.26,6.83-13.52s-16.17,1.28-19.52,5.64-15.84,2.09-24.45,6.45S176.38,487,176.38,487C162.16,496.61,173.58,516.65,173.58,516.65Z"/><path class="cls-7" d="M-26.18,460.5c-.8,10.48-.87,21.18,2,31.29,3.59,12.8,4.61,17.9,15.71,25.21s32.38,11,45.56,9.18c1.39-.18-4.74,5.36-3.54,4.62,1.67-1,2.64-2.87,3.54-4.62l11.1-21.58c3.72-7.25,7.51-14.68,8.52-22.77a5.74,5.74,0,0,0-.31-3.34,6.22,6.22,0,0,0-3.15-2.43A150.74,150.74,0,0,0,9.3,463.52"/><path class="cls-15" d="M284.86,439.71c-2.77-5.82-1.57-12.55-.84-18.69a57,57,0,0,1,4.68-17.35c1.32-2.85,3-5.57,4.49-8.32l5.63-10.1,3.92-7c.14-.25-1.22-.16-1.44.23l-9,16.22c-1.33,2.38-2.73,4.75-4,7.17A54.59,54.59,0,0,0,282.74,420c-.86,6.51-2.27,13.91.67,20.08.19.39,1.59-.09,1.45-.39Z"/><path class="cls-19" d="M454.88,392.15c-8.1,8.5-16.09,13.81-15.83,14.16a21.91,21.91,0,0,0,5.37-3.33,82.87,82.87,0,0,0,11.46-10,85.3,85.3,0,0,0,9.37-11.88,23.72,23.72,0,0,0,3-5.53C467.88,375.4,463,383.65,454.88,392.15Z"/><path class="cls-4" d="M472.55,281.83s16.76,55.35,13.55,68.35c-.78,3.15-38.94,24.11-38.94,24.11l99.2,18,38.91-22.88s-35.55-18.28-37-21.82c-10.18-24.3,7.46-52.15,7.46-52.15"/><path class="cls-6" d="M591.18,366.58c1,.47,15.66,7.57,16.56,8,5.65,2.94-15,150.29-15,150.29l20.56,56.16c9.39,62.28-14,80.81-39.1,101.16,0,0-111-55.63-124.86-57.39-16.05-2.05-14.13,0-17.27-7.59-1.14-2.77-22-53.61-8.84-81.59,9.57-20.31,5-30.74,5.91-54.74,1.69-42.64,4.62-80.3,4.62-80.3l1.59-18.49C443.67,380.08,450,368.24,459,363c2.54-1.48,13-6.4,15.73-7.51,2.52-1,4.85-2.51,7.44-3.36-.19.38,3.67-2.09,3.41-1.33-6.21,17.88,7,33.4,25.5,29.49,22.27-4.68,32.7-14.42,43.2-30,2.7,1,24,10.41,27.34,11.75Z"/><path class="cls-20" d="M497,463.3h-.14c-.05.18-.16.36,0,.55Z"/><path class="cls-20" d="M482.46,502.28l.12.08.11-.36Z"/><path class="cls-21" d="M455.4,450.7h.19l-.17-.12A.1.1,0,0,0,455.4,450.7Z"/><path class="cls-21" d="M482.13,458.78l-.16-.16-.07.09Z"/><path class="cls-21" d="M456,450.83l.25.07A.17.17,0,0,0,456,450.83Z"/><path class="cls-22" d="M424.44,418.11c-.26,12.55-.13,25.11,0,37.66.16,15.72.44,31.44,1,47.16.22,6.11.46,12.22.86,18.32a72.2,72.2,0,0,1,.24,7.63q-.63,17.43-.81,34.88c-.15,14.47-.26,29,.95,43.48.12,1.34.24,2.67.4,4,0,.34,1.49,0,1.45-.38-1.59-13.86-1.46-28-1.4-41.87q.11-19,.78-38a60.84,60.84,0,0,0,.08-6.75c-.45-5.54-.69-11.1-.91-16.66-.61-15.45-.91-30.92-1.11-46.39-.17-13.43-.3-26.88-.12-40.32,0-1,0-2.09.05-3.13,0-.29-1.44-.08-1.45.39Z"/><path class="cls-6" d="M641.45,561.11,550,525.23l16.62-89.69,38-62.52s21.37,8.41,25.75,37.77,13.69,117.38,14,133.21C644.61,557.16,642.05,560,641.45,561.11Z"/><path class="cls-6" d="M585.18,524l0-.46,57.59,30.53c4.43,40.54-130.48,59.14-130.48,59.14l-16.58-43.47Z"/><path class="cls-22" d="M584.74,529.66q-1.1-7.93-2.12-15.9-2.37-18.11-4.49-36.25c-1.51-13.08-2.94-26.18-4-39.31-.42-5.2-.79-10.41-1-15.62s-.1-10.4,1.41-15.45c3.11-10.41,11.44-19.33,20.91-24.31l.55-.28c1-.49.1-1.19-.69-.82a41.86,41.86,0,0,0-7.36,4.72,44.91,44.91,0,0,0-12.3,14.18,38,38,0,0,0-4.23,18.28c0,4.74.29,9.48.61,14.2.9,13,2.28,25.89,3.73,38.79Q578,491,580.44,510q.85,6.66,1.75,13.32a54.06,54.06,0,0,0,.87,6.47,1.35,1.35,0,0,1,0,.28c.09.65,1.74.26,1.64-.44Z"/><path class="cls-22" d="M613.93,586.06c-7.69,3-15.39,5.93-23.13,8.76-2.09.77-4.19,1.54-6.3,2.22-1,.31-.74,1.28.25,1,9.07-2.93,18-6.54,26.84-10l3-1.17c1.06-.41.11-1.11-.68-.81Z"/><path class="cls-22" d="M598.2,536.88c.95,0,1.25-1.24.14-1.24-1,0-1.25,1.24-.14,1.24Z"/><path class="cls-22" d="M583.78,530.15c.63,0,1.74-.95.63-.95-.62,0-1.73.95-.63.95Z"/><path class="cls-10" d="M486.63,340s10.57,2.34,14.85,1.68,11.32.43,32.37-13.82c0,0-3.73,11.37-32.34,19.17,0,0-11.74,1.87-15.75.38Z"/><path class="cls-23" d="M458.85,227.22h0c-1.14-7.3-1.39-11.75,1-16.5,1.73-3.34,8.15-6.36,8.15-6.36s2.39-10.31,7-8.38c0,0,6.05-13.46,19.47-8.47,0,0,4.31-.63,6.38,2.21,0,0,7.71-11.33,18.72-1.8,0,0,4.88-2.47,6.06,1.31,0,0,8.72-6.72,15.94.17,0,0,20.38-1.88,24,11.13,0,0,10.18-3.91,14.24,5.79,0,0,5,.91,4.28,7.87,0,0,7.26,3,7.49,7.59,0,0,4,3.86,2.92,11.11-.3,2.07-.94,1.44-1.9,4.19,3.28,8.72-3.13,9.07-3.13,9.07,5.63,8.35-3.43,17.1-3.43,17.1s2.57,6.3.43,9.94c-2.93,5-13.57,9.68-13.57,9.68s-1-14.3.5-23.15-4.21-25.11-6.27-28.72-19.95.69-46.39-2-31.28-7.9-34.52-7.37c-6.71,1.09-14.56,23.69-15.08,30.72s-4,20-4,20-13.45-7.41-8.48-18.79c0,0-3.77-9-1.45-13.87a5.3,5.3,0,0,1,1.88-3.05S454.84,231,458.85,227.22Z"/><path class="cls-4" d="M538.11,325c-11.66,11.12-28.3,17.89-43.5,19.74-14.91,1.82-19.45-3.45-21.32-5.78-10.26-12.79-16.59-25.45-19.68-39.72a34.77,34.77,0,0,1,0-12.13c.89-6.23,3-18.15,3.43-24.15,1-15.28,3.79-29,13.22-41.12,19.64-25.29,61.3-21.4,76.19-12.8,17.4,10,24.15,28.18,23.77,46.85a50.35,50.35,0,0,1-3.13,16.84,54,54,0,0,0-7.42,8.66"/><path class="cls-24" d="M470,224.36s-1.3,1-10.72,18.94c2.42-5.75,4.17-14.54,9.84-22.38,19.79-27.4,74.39-19.08,89.23-9.89,17.35,10.75,22.56,29.9,22.07,50-.2,8.17-.27,13.4-3.24,19.95-.12.08-1.67,1.47-1.67,1.47s-16.63,1.83-22.84,11.33l.47-8.68s-3.21-11.15-4.92-30c0,0,.77-10.23,1.16-13.3,1.2-9.43-7.45-8.13-13.45-7.11a78.19,78.19,0,0,1-15.45.2c-9.62-1-21.69-3.42-26.21-3.74C487.93,230.68,470,224.36,470,224.36Z"/><path class="cls-25" d="M469.41,224.43a10.17,10.17,0,0,0-1.85,2.74c-3.2,5.29-6.06,10.79-8.93,16.26l1.32-.25c1.41-3.4,2.42-7,3.7-10.41a49.88,49.88,0,0,1,6.14-12,38.43,38.43,0,0,1,13.1-11.2c10.89-5.83,23.76-7.34,35.94-7.06,10.78.24,21.9,1.83,32.07,5.55,11.78,4.31,20.55,13.93,24.89,25.61a69.66,69.66,0,0,1,4,22.3c.12,4.11,0,8.25-.24,12.36a36.71,36.71,0,0,1-2.43,11.52,3.94,3.94,0,0,1-1.09,1.74l-1.07.94.9-.31a47.2,47.2,0,0,0-9.74,2.27c-5.36,1.8-10.84,4.61-14.06,9.43l1.33-.3.24-4.34a28.7,28.7,0,0,0,.23-4.34,14,14,0,0,0-.46-1.77c-.42-1.66-.78-3.33-1.13-5-1.27-6.21-2.2-12.49-2.88-18.79a33.8,33.8,0,0,1-.3-6.43q.27-3.59.59-7.15c.34-3.84,1.84-9.5-2.71-11.4-4-1.65-8.52-.11-12.57.27-12.92,1.2-25.43-2.18-38.16-3.65-8.55-1-16.8-3.85-24.9-6.66l-.65-.23c-.37-.12-1.33.42-1.27.44,2.86,1,5.75,2,8.65,2.88a102.59,102.59,0,0,0,14,3.71c2,.32,4,.45,6.05.75,3.21.48,6.41,1,9.62,1.53a125.92,125.92,0,0,0,19.36,2,55.34,55.34,0,0,0,8.44-.47,38.4,38.4,0,0,1,6.76-.72c2,.05,4.31.52,5.57,2.29s1,4.34.78,6.53c-.26,2.38-.45,4.76-.64,7.14-.14,1.65-.39,3.35-.4,5A43,43,0,0,0,548,260q.32,2.91.71,5.79c.43,3.13.92,6.25,1.49,9.35.6,3.29,1.35,6.54,2.13,9.79a5.77,5.77,0,0,1,0,1.81l-.32,6L552,294c0,.23,1.22-.14,1.33-.31,4.1-6.14,11.82-9,18.77-10.44,1.16-.24,3-.18,4-.85a9.27,9.27,0,0,0,1.37-1.21,6.6,6.6,0,0,0,1.23-2.47,31.79,31.79,0,0,0,1.64-6.36,92.21,92.21,0,0,0,.74-14.86,82.12,82.12,0,0,0-1.27-14.09c-1.61-8.78-5-17.3-10.89-24.11A40,40,0,0,0,553,208a87,87,0,0,0-17.33-4.46c-14.2-2.31-29.34-2.34-43.22,1.8a49.65,49.65,0,0,0-18.22,9.48c-7,6-10.6,14.19-13.48,22.73-.67,2-1.32,4-2.13,5.92-.07.18,1.17,0,1.32-.25,2.85-5.43,5.69-10.88,8.86-16.14a13.43,13.43,0,0,1,1.81-2.74C470.86,224.11,469.65,224.24,469.41,224.43Z"/><path class="cls-4" d="M548.57,311.39c7.08,8.56,16.39-3.34,16.39-3.34,8.18-8.4,8.92-18,9.16-24.53s-7-7-7-7c-6.17.19-5.36,1-15,17.73"/><path class="cls-26" d="M558.76,294.6a44.07,44.07,0,0,1,6-9.87,9.82,9.82,0,0,1,3.3-2.71c.19-.07-.05,0,.13,0s.06,0,.06,0,.05,0,0,0l-.26-.07a6.92,6.92,0,0,1,1.05,2.31,13.38,13.38,0,0,1-.12,6.88c-.09.32.93.17,1-.14a12.75,12.75,0,0,0-.27-8.12,3.47,3.47,0,0,0-.71-1.29.65.65,0,0,0-.53-.07c-2.19.29-4,2.51-5.29,4.1a48.69,48.69,0,0,0-5.42,9.18c-.12.25.87.16,1-.14Z"/><path class="cls-26" d="M557.7,298.23c3.61.5-2.39,8.43.56,8.59.76,0,1.33-.66,1.72-1.22a17.54,17.54,0,0,0,1.88-3.78,16.2,16.2,0,0,0,1.29-5.32c.12-2.18,0-4.95-2-6.28-.31-.21-1.24.23-.8.53,1.69,1.13,1.89,3.55,1.84,5.4a13.76,13.76,0,0,1-.7,4.13,27.67,27.67,0,0,1-1.82,4.27,8.61,8.61,0,0,1-.74,1.18c0,.06-.37.33-.39.41l0,0c-.1.06,0,.07.2,0,0,0-.1-.07-.11-.13a3.42,3.42,0,0,1-.11-.79,6.71,6.71,0,0,1,.26-1.18c.26-.9.59-1.77.85-2.66.46-1.65.63-3.55-1.48-3.85-.44-.06-1.06.55-.38.65Z"/><path class="cls-26" d="M512.54,273.05a4.61,4.61,0,0,1,4.85,1.5,4.4,4.4,0,0,1,1.09,2.24,4.64,4.64,0,0,1-1.59,4,4.3,4.3,0,0,1-5,.26,4.76,4.76,0,0,1-1.64-5.76,4.2,4.2,0,0,1,2.29-2.28"/><path class="cls-26" d="M502.3,279.39s7.27-8.37,13.83-7.57c9.22,1.13,10.74,6.76,12.41,9.79,0,0-5.19-7.28-12.35-8C509.7,273,502.3,279.39,502.3,279.39Z"/><path class="cls-26" d="M467.26,267.5a4.09,4.09,0,0,0-4.74.32,4.56,4.56,0,0,0-1.5,1.93,4.87,4.87,0,0,0,.51,4.29,3.81,3.81,0,0,0,4.45,1.42,4.85,4.85,0,0,0,2.82-5.2,4.19,4.19,0,0,0-1.54-2.76"/><path class="cls-26" d="M478,276.44s-4.22-9.79-9.88-10.49c-8-1-10.5,4.15-12.57,6.73,0,0,6-5.92,12.11-5C473.18,268.55,478,276.44,478,276.44Z"/><path d="M482,300.27a6.66,6.66,0,0,0,6.09.28c.41-.19,1.66.18,1.09.45a9.35,9.35,0,0,1-8.28-.52c-.2-.14-.15-.31.14-.37a1.47,1.47,0,0,1,1,.16"/><path d="M490,300.59a10.73,10.73,0,0,1,3.83-.52.88.88,0,0,1,.55.25c.09.11.1.24,0,.3a4,4,0,0,1-2.09.25.8.8,0,0,1-.61-.32c-.09-.18.13-.27.3-.25a3.24,3.24,0,0,0,1.69-.21l.51.56a9.6,9.6,0,0,0-3.42.47A.8.8,0,0,1,490,301c-.12-.09-.25-.3,0-.38"/><path d="M495.05,301.32a5.19,5.19,0,0,0,4.22-1.39c1.3-1.59.57-4.59-1.2-5.9-.19-.14-.06-.28.15-.3a1.26,1.26,0,0,1,.79.25,5.6,5.6,0,0,1,1.92,5.24c-.39,1.48-1.95,2.37-3.8,2.61a8.66,8.66,0,0,1-1.69.05c-.23,0-.64-.14-.73-.33s.13-.25.34-.23"/><path d="M479.31,299.19a.19.19,0,0,0-.16-.3,1.82,1.82,0,0,1-1.13-.52l-.45.45a5.3,5.3,0,0,1,2.27,1.11.42.42,0,0,0,.49,0c.1-.07.23-.25.1-.36"/><path d="M480.43,299.54a6,6,0,0,0-2.54-1.23.54.54,0,0,0-.43.14.21.21,0,0,0,0,.31"/><path d="M476.16,299.05a3.1,3.1,0,0,1-2.42-2.12,4.48,4.48,0,0,1,1.7-4.72.18.18,0,0,0,0-.33.6.6,0,0,0-.54.11,5,5,0,0,0-2,3.95,3.52,3.52,0,0,0,1.93,3.24,3.73,3.73,0,0,0,1.07.35.54.54,0,0,0,.51-.19c.09-.17,0-.27-.17-.29"/><path class="cls-24" d="M506.45,256.75c-.14,1.47-.27,2.95-.41,4.42l-.3,3.37c3.4-.63,6.28-1,8.46-1.18a37.07,37.07,0,0,1,13,.63,13.79,13.79,0,0,1,5.37,2.57c.51.41,1.82,2.1,2.66,1.77.35-.13,0-2-.06-2.18-.76-3.76-3.51-5.55-7-6.75-7-2.46-14.31-2.95-21.74-2.65"/><path class="cls-24" d="M457.19,255.76a11.61,11.61,0,0,0,.95-2.67,20,20,0,0,1,2.28-.47c7.28-1,14.39-.08,21.5,1.68l-.48,4.41c-.12,1.13-.24,2.25-.37,3.37-3.15-1.29-5.86-2.2-7.92-2.83a36.15,36.15,0,0,0-12.66-1.93,16,16,0,0,0-3.52.59Z"/><path class="cls-16" d="M486.53,311.49c7.32.58,21.42.9,21.42.9s-6,18.41-23,17.07-16.46-20.23-16.46-20.23S479.22,310.91,486.53,311.49Z"/><path class="cls-17" d="M486.46,311.49c3.48.27,18.64.92,18.64.92S498.29,324,485.71,323c-13.64-1.08-15.48-13.21-15.48-13.21Z"/><path class="cls-18" d="M486.27,312c3.48.27,14.11.53,14.11.53s-4.12,3.5-14.55,2.67-13.45-4.79-13.45-4.79Z"/><path class="cls-16" d="M467.84,308.1c.37-.06,2.35.77,4.08.76,2.9,0,3.67-.75,5.77-.74,3.58,0,5.73,1.59,7.28,1.71s3.92-1.1,7.46-.54c2.08.32,9.36,1.72,12.22,2.2,1.71.29,3.79-.22,4.15-.1s-3,3.61-22.43,2.07S467.31,308.19,467.84,308.1Z"/><path class="cls-4" d="M342.69,300.42l5.25-12.37s.83-13.44,2.5-17.72,12.7-18.92,13.44-19.42,4.77-23.06,9.07-23.44,7.85,1.84,8.07,7.64-6.23,19.08-3.25,20.27a19.29,19.29,0,0,0,7.28.84s-.43-6.62,2.53-9.52,7.78-.49,7.78-.49l.77,2.71,2.66-4s.47-13.63,5.95-14.91a23,23,0,0,1,3.6-8.6,4.85,4.85,0,0,1,6.84-.71,4.43,4.43,0,0,1,.95,1h0L413.46,253l-19.67,36.45S379.2,298.74,376.34,301l-3.82,9.68Z"/><path class="cls-10" d="M378.32,256c.14-.34-1.66-1.3-4.14-1.43s-4.36.66-4.25,1,1.95.28,4.2.39S378.21,256.4,378.32,256Z"/><path class="cls-10" d="M410.28,253.8a30.88,30.88,0,0,1-.92-6.41c-.39-4-.86-9.68-1.32-16.19l.61.71a32.21,32.21,0,0,0-3.31-.66,3.74,3.74,0,0,0-2.78,1.08,8.56,8.56,0,0,0-2.34,4.86,29.92,29.92,0,0,0-.55,5.42c0,3.53.3,6.81.46,9.45a57.12,57.12,0,0,1,.31,8.77c-.21.05-.8-3.24-1.46-8.67-.3-2.7-.66-5.89-.79-9.53a29.85,29.85,0,0,1,.47-5.74,10.11,10.11,0,0,1,2.82-5.78,5.5,5.5,0,0,1,3.93-1.46,27.93,27.93,0,0,1,3.62.72l.57.11,0,.6c.38,6.53.64,12.19.77,16.24A30.52,30.52,0,0,1,410.28,253.8Z"/><path class="cls-10" d="M380.88,287.22a8.89,8.89,0,0,1-.18-1.27,18.21,18.21,0,0,1,.35-3.53,43.82,43.82,0,0,1,4.55-12.1l-.1.3c.51-6-3.17-13.58.07-22A6.64,6.64,0,0,1,390.2,245a9.69,9.69,0,0,1,5.48.52l.42.15.1.44c1,8.36,1.81,15.58,2.31,20.72a13.45,13.45,0,0,1-.42,6.11c-.4,1.37-.76,2-.88,1.93a10.6,10.6,0,0,1,.35-2.15,14.48,14.48,0,0,0-.05-5.9c-.78-5.09-1.78-12.28-2.87-20.58l.48.62a8.64,8.64,0,0,0-4.56-.39A5.13,5.13,0,0,0,387,249.3a12.17,12.17,0,0,0-1.13,5.44,49.28,49.28,0,0,0,.17,5.57c.15,1.84.47,3.48.69,5.29a30.06,30.06,0,0,1,.13,5l0,.15-.07.14a49.39,49.39,0,0,0-4.95,11.55C381,285.45,381.07,287.22,380.88,287.22Z"/><path class="cls-10" d="M347.94,288.05s4.48,5.89,14.55,5.63C362.49,293.68,350.25,297.59,347.94,288.05Z"/><path class="cls-12" d="M223.76,96.29c-.13-.19.06.08,0,0-2.63-3.76-4.29-7.76-7.08-11.39s-5.42-6.8-8.35-10.2c-.17-.2-3.67-.32-3.85-.52L204.3,74l-.29-.32c-.21-.24-.44-.48-.65-.73-16.56-7.35-36.6-8.51-54.74-3.07-35.22,10.56-59.25,44.54-48.69,79.76.9,3,3.12,9.78,6.06,11.49s3.29.88,6.1-1a22.13,22.13,0,0,0,6.31-7.86c7.73-14.47,9.73-37.58,6.39-53.64,1.93,3,15.48,0,18.48,2A25.77,25.77,0,0,0,179,93.38a40.33,40.33,0,0,0,4.07,5.05c13.63,14.37,31.48,21.41,46.51,11.42C230.15,109.48,225.4,98.68,223.76,96.29Z"/><path class="cls-14" d="M86.56,159.37s-33.37-24.2-20.65-50.18c2.44-5,2.71-3.35,2.85-7.67.76-22.6-7.15-17.21,26-43.65s38-26,88.51-22.21C209.3,37.6,223.57,48.5,230.69,65c3.2,7.43,4.95,16,5.69,25.38,0,0-53.26-15.19-85,1.91s-65,72.78-58.25,90.63C95.06,188,86.56,159.37,86.56,159.37Z"/><path class="cls-5" d="M66,134.64s45.2-65.85,105.44-67.86c0,0-74.42-8-107.35,45.2l-.49,6.24a33.93,33.93,0,0,0,1.08,11.57Z"/><path class="cls-7" d="M-26.27,478.47l60.58,3.12L51.73,371.41l8.7-110.88S23.62,264.93,6.6,297-24.34,419.77-25.79,439.09C-26.8,452.46-26.48,476.9-26.27,478.47Z"/><path class="cls-7" d="M-26.33,460.83c-.79,10.48-.87,21.18,2,31.29,3.6,12.8,4.61,17.9,15.72,25.21s32.38,10.95,45.55,9.18c1.39-.18-4.73,5.36-3.54,4.62,1.67-1,2.64-2.87,3.54-4.62L48,504.93c3.73-7.25,7.52-14.69,8.52-22.77a5.74,5.74,0,0,0-.31-3.34,6.14,6.14,0,0,0-3.14-2.43A150.52,150.52,0,0,0,9.16,463.85"/><path class="cls-23" d="M589.62,245.27s6.4-.34,3.12-9.06c1-2.75,1.61-2.13,1.9-4.2,1-7.24-2.92-11.1-2.92-11.1-.22-4.63-7.48-7.6-7.48-7.6.69-6.95-4.29-7.86-4.29-7.86-4.06-9.7-14.24-5.79-14.24-5.79-3.61-13-24-11.13-24-11.13-7.22-6.89-16-.17-16-.17-1.17-3.78-6-1.31-6-1.31-11-9.53-18.73,1.8-18.73,1.8-2.07-2.84-6.37-2.21-6.37-2.21-13.43-5-19.47,8.47-19.47,8.47-4.59-1.93-7,8.38-7,8.38s-6.42,3-8.14,6.36c-2.44,4.74-2.19,9.2-1,16.5h0a5.44,5.44,0,0,0-1.62,5.1A37.84,37.84,0,0,1,487.67,219a9.06,9.06,0,0,1,7.57,4.36c4.94,1.57,12.7,3.49,25.64,4.78,26.45,2.65,29.55,2.27,31.61,5.88s2.64,17.15,8.45,24c17.61,20.77,12.61,32.24,12.61,32.24s8.81-.83,13.06-18c1-4.1-.43-9.94-.43-9.94S595.24,253.63,589.62,245.27Z"/><path class="cls-15" d="M161.8,477.43v-7.87a.16.16,0,0,0-.13-.07L151,468.07l-26-3.46-31.93-4.24-28.78-3.83-16.47-2.19c-.2,0-1,0-1.12-.15.1.11.25-.26.36-.52.21-.5.4-1,.58-1.53,1.2-3.48,2.06-7.09,2.93-10.66,2.81-11.63,5.2-23.36,7.65-35.07,2.76-13.23,5.49-26.48,8.5-39.66,1.24-5.47,2.53-10.93,4-16.36.65-2.42,1.41-4.82,2-7.25a46.49,46.49,0,0,0,1.52-12.37c-.16-11.62-4.73-23.21-11.88-32.31-.41-.52-.83-1-1.28-1.53-.23-.26-1.56.26-1.37.48a42.66,42.66,0,0,1,4.41,6,57.65,57.65,0,0,1,6.94,15.66A47.26,47.26,0,0,1,71.67,342c-1.14,5-2.73,9.83-4,14.78-2.94,12-5.49,24-8,36.11-2.6,12.36-5.13,24.73-7.84,37.07-1.06,4.8-2.14,9.61-3.34,14.38a76.51,76.51,0,0,1-2.64,9c-.16.41-.33.82-.53,1.22,0,.08,0,.13.12.14l12.94,1.72,30.34,4,35.42,4.71L152,468.9l7.21,1c.25,0,1,0,1.25.16s-.15-.15-.09,0a4.1,4.1,0,0,1,0,1.16v6.64c0,.2,1.45,0,1.45-.39Z"/><path class="cls-15" d="M46.61,454.41a26.55,26.55,0,0,0-25.69,11.77c-.42.68,1.39.48,1.69,0a23.59,23.59,0,0,1,22.87-10.84,1.64,1.64,0,0,0,1.29-.34c.21-.26.28-.54-.16-.6Z"/><path class="cls-15" d="M15.51,526.33c3.61.79,7.28,1.34,10.94,1.87,9.62,1.4,19.32,2.28,29,2.75a327.71,327.71,0,0,0,41.81-.6A289,289,0,0,0,139,524l20.27-4.66.57-.13c.91-.21.62-1.28-.28-1.07l-18.88,4.34A295.55,295.55,0,0,1,103,528.71a321.87,321.87,0,0,1-42.8,1.3c-10.29-.36-20.57-1.2-30.78-2.57-3.05-.42-6.09-.88-9.12-1.41-1.37-.24-2.76-.62-4.14-.78l-.18,0c-.76-.17-1.44.91-.49,1.12Z"/><path class="cls-19" d="M138.7,147.53l1.31,5.86c.64,4.51,3.07,13.57,4.33,16.1,1.78,3.55,25,7.22,29.9,5s8.81-15.32,10.36-18.29l9.3,1.48c.42,4.09,2,17.09,3.63,19s12.36,2.69,13.57,2.78c1,.06,2.42.15,4,.18,4.09.12,9.08,0,10.75-1.4,2.47-2,5.81-10.24,8.76-18.06L235,159c.11-.29.23-.5.24-.59h0l.53-1.41c-12.81-7.8-30.59-8.55-42.14-1.77l.07.15-9.07-1.49c-9.59-7.9-27-13.45-40.28-9.82h0l-40.24,2.54-.48,3.49Zm60.06,28c-1-1.18-2.4-10.31-3.26-17.4,10-5.7,26-5,37.56,1.29l0,.18c-1.58,4.19-5.79,15.35-8.22,17.31-2.88,2.31-24.29.5-26.06-1.34Zm-51.55-6.67a120.39,120.39,0,0,1-5.65-20.94c11.87-4,31.32.92,40.72,8.45-2.19,5.43-5.23,15-8.72,16.56-5,2.28-25.24-1.83-26.35-4.07Z"/></g></g></svg>