<svg xmlns="http://www.w3.org/2000/svg" viewBox="0 0 1303.15 1057.31"><defs><style>.cls-1{fill:#f2ebd1;}.cls-2{fill:#bb997a;}.cls-3{fill:#a56530;}.cls-4{fill:#956243;}.cls-5{fill:#59341c;}.cls-6{fill:#231f20;}.cls-7{fill:#eb9944;}.cls-8{fill:#010101;}.cls-9{fill:#1c3b53;}.cls-10{fill:#8c542a;}.cls-11{fill:#f9a01b;}.cls-12{fill:#513835;}.cls-13{fill:#745245;}.cls-14{fill:#82a8b3;}.cls-15{fill:none;stroke:#132b3a;}.cls-15,.cls-19{stroke-miterlimit:10;stroke-width:1.07px;}.cls-16{fill:#132b3a;}.cls-17,.cls-19{fill:#557c81;}.cls-18{fill:#4163ae;}.cls-19{stroke:#557c81;}.cls-20{fill:#825639;}.cls-21{fill:#2b1710;}.cls-22{fill:#684133;}.cls-23{fill:#a8b87b;}.cls-24{fill:#cc9a2b;}.cls-25{fill:#a4752b;}.cls-26{fill:#97a756;}.cls-27{fill:#56352e;}.cls-28{fill:#151210;}.cls-29{fill:#161312;}.cls-30{fill:#171514;}.cls-31{fill:#181615;}.cls-32{fill:#714534;}.cls-33{fill:#191716;}.cls-34{fill:#040404;}.cls-35,.cls-37{fill:#fff;}.cls-35{opacity:0.14;}.cls-36{fill:#31160e;}.cls-38{fill:#653c29;}</style></defs><g id="Layer_10" data-name="Layer 10"><polyline class="cls-1" points="0 1055.24 0 -0.69 1303.15 -0.69 1303.15 1055.24"/><rect class="cls-2" y="983.87" width="1303.15" height="73.44"/><path class="cls-3" d="M491.55,660.07q65.59,0,131.2,0c18.8,0,22.29,8.71,22.27,26.56,0,16.41-3.77,26-22.8,26.08-4.29,0-8.66.47-12.84-.08-12.6-1.67-15.12,2.89-13.47,12.41C612,818,627.73,904.55,643.79,997.48c1.1,6.33.1,8.84-8.6,8.94-21.71.26-22.15.69-25.17-16.72-10.25-59.28-20.36-118.58-30-177.94-1.31-8.06-4.65-10.5-14.45-10.42q-74.6.6-149.2,0c-9.54-.07-12.32,2.78-13.51,10.07-10.19,62.51-20.87,125-31.16,187.47-1,5.82-3.86,7.55-10.77,7.66-22.38.33-23,.49-20.11-17,10.42-63.55,21.25-127,32-190.56,4.57-27,9.13-47.62,14.11-74.57,1.54-8.32-.26-13-11.94-11.45-2.51.34-5.15-.1-7.71.07-33.54,2.32-30.8-21.12-28.86-42.81.75-8.41,9.66-10.39,19.33-10.34,44.59.21,89.18,5.42,133.77,5.42Zm-1.05,120c24.83,0,49.67-.19,74.5.11,7.61.09,11-1.28,9.71-8.29-4-21.69-7.64-28.33-11.1-50.09-1-6.59-3.82-9.38-12.83-9.27-39.39.49-78.79.56-118.18,0-9.76-.15-12.47,2.91-13.56,9.89-3.31,21.06-6.83,27-10.74,48-1.35,7.27.63,10.08,10.26,9.87C442.53,779.7,466.52,780.05,490.5,780.05Z"/><rect class="cls-4" x="586.27" y="929.12" width="70.63" height="31.64"/><rect class="cls-4" x="645.44" y="918.98" width="72.65" height="31.64"/><path class="cls-5" d="M829.47,993s1.8-12.63-8.23-16.81-32.59-11-49.39-19.54c-23.33-11.92-37.46-30.64-47.63-31.11-10.35-.47-7.71,17.92-30.2,19.38-22.29,1.45-39.53-10.81-40.59-11.16-4.95,3.49-12.8,41.87-6.44,51.16s61,11.48,61,11.48l43.92,7.91,43.68.15Z"/><path class="cls-6" d="M688.93,994.94c0-7.36-.85-18.1-8.52-21.66-2.66-1.23-5.58-2-8.35-3-2.4-.83-4.8-1.65-7.15-2.6-4.08-1.65-8.14-3.77-10.85-7.35-3.78-5-4.06-11.51-3.39-17.52.09-.77-1.55-.52-1.63.15-.6,5.36-.47,10.95,2.11,15.81a20,20,0,0,0,9,8.19c4.51,2.3,9.41,3.77,14.18,5.44,2.51.88,5.27,1.55,7.3,3.35a13.88,13.88,0,0,1,3.55,5.31c1.78,4.4,2.2,9.31,2.17,14,0,.8,1.63.52,1.63-.14Z"/><path class="cls-6" d="M650.65,937c7.39,5.43,15.48,9.64,24.62,11.08a67.47,67.47,0,0,0,17,.16,83.08,83.08,0,0,0,12.83-2.09,65.83,65.83,0,0,0,8-2.73c4.65-1.87,9.81-3.93,14.91-3.33,5.39.63,10.39,3.45,14.95,6.24,5.3,3.24,10.36,6.86,15.57,10.26,2.92,1.9,5.88,3.75,8.93,5.47,1.3.73,1.93,1.24,3.33,1a4.91,4.91,0,0,0,3-1.58c1.24-1.52.94-3.73.53-5.49-.08-.36-1.71,0-1.62.44.38,1.64.73,3.76-.41,5.2a2.09,2.09,0,0,1-1.59.85,8.46,8.46,0,0,1-2-1.09c-1.36-.77-2.7-1.57-4-2.39-2.47-1.52-4.9-3.1-7.31-4.71-4.91-3.26-9.73-6.68-14.83-9.65-4.07-2.36-8.48-4.57-13.2-5.18-7.75-1-14.8,3.19-21.94,5.46a60.77,60.77,0,0,1-10.67,2.23,77.82,77.82,0,0,1-17,.68c-10.28-.93-19.36-5.34-27.58-11.39-.37-.27-1.77.38-1.53.56Z"/><path class="cls-6" d="M722.47,998.58l-5.31-1-3.14-.57a4.44,4.44,0,0,1-.67-.12c0,.24.58-.38.64-.46.37-.41.75-.82,1.13-1.22A35.77,35.77,0,0,1,736,984.74c4.59-.64,9.29-.73,13.92-1s9.21-.64,13.81-1.07c7.27-.69,14.83-1.42,21.77-3.84,2.39-.84,5-2,6.69-4,2.44-3,.91-7.12-.71-10.12-.21-.4-1.75.19-1.62.44,1.37,2.53,2.86,6,1.47,8.85a8.27,8.27,0,0,1-4,3.45c-5.09,2.46-11.11,3.18-16.64,3.86-7.35.91-14.74,1.39-22.12,1.88-6.8.45-13.63.61-20.15,2.84a37.55,37.55,0,0,0-16.54,11.29c-.09.11-.11.22.07.25l9.15,1.65c.38.07,1.77-.55,1.33-.63Z"/><path class="cls-7" d="M716.05,997.65l.21.25-.37-.07Z"/><path class="cls-6" d="M715.29,997.93l.18.22,0,0,1.42-.62-.33,0h0l.07.29.17-.18a.15.15,0,0,0,.06-.14.09.09,0,0,0,0-.11.49.49,0,0,0-.17-.06.7.7,0,0,0-.25,0l-.2,0a1.62,1.62,0,0,0-.43.12l-.19.08a.87.87,0,0,0-.26.18l-.16.18a.19.19,0,0,0-.07.18.19.19,0,0,0,.15.12l.32.05h.05a.85.85,0,0,0,.23,0l.29,0,.22,0a1.82,1.82,0,0,0,.3-.11.56.56,0,0,0,.17-.09.8.8,0,0,0,.19-.13l.06-.09a.13.13,0,0,0,0-.16l-.18-.22,0,0a.49.49,0,0,0-.17-.06.7.7,0,0,0-.25,0,1.65,1.65,0,0,0-.31,0,1.19,1.19,0,0,0-.32.1l-.19.08a.87.87,0,0,0-.26.18l-.06.09A.11.11,0,0,0,715.29,997.93Z"/><path class="cls-7" d="M700.61,992.58l1.8-.08a27.86,27.86,0,0,0,.36,3.63l-1.85-.12A31.7,31.7,0,0,1,700.61,992.58Z"/><path class="cls-6" d="M700.08,992.88l1.8-.07-.28-.09a29.36,29.36,0,0,0,.36,3.63l1.34-.53-1.85-.11.28.09a30.53,30.53,0,0,1-.31-3.44c0-.09-.25-.09-.27-.09a2.27,2.27,0,0,0-.59.09,2.72,2.72,0,0,0-.56.22c-.08,0-.2.11-.19.22a30.33,30.33,0,0,0,.3,3.43c0,.09.24.09.28.09l1.84.12a2.31,2.31,0,0,0,.9-.2c.1,0,.47-.16.45-.33a27.57,27.57,0,0,1-.36-3.62c0-.09-.25-.09-.28-.09l-1.79.07a2.57,2.57,0,0,0-1.15.31c-.06,0-.22.12-.19.22S700,992.89,700.08,992.88Z"/><path class="cls-7" d="M692.49,990.68c.1,1.53.15,3.11.13,4.71h-.27l-1.54-.14c0-1.5,0-3-.11-4.43Z"/><path class="cls-6" d="M691.67,990.74c.1,1.57.14,3.14.13,4.71l.89-.66h-.15a1.12,1.12,0,0,1-.31,0l-1.14-.1.54.53c0-1.48,0-3-.11-4.43l-.9.66,1.8-.15c.36,0,.85-.25.89-.66s-.43-.56-.75-.53l-1.79.15c-.3,0-.92.26-.89.65.09,1.48.13,3,.11,4.43a.54.54,0,0,0,.54.53c.67.06,1.34.14,2,.15.32,0,.88-.28.89-.66,0-1.57,0-3.15-.13-4.72,0-.39-.37-.57-.75-.53S691.65,990.33,691.67,990.74Z"/><path class="cls-8" d="M641.87,985.49l1.72.15.3-1.77c6.73.6,29.92,2.77,44.11,4.94,4.33.66,9.79,1.85,16.11,3.22,14.67,3.18,34.76,7.52,55.94,8.5,3.8.17,7.55.24,11.16.18A240.7,240.7,0,0,0,831.42,992l.27,1.78,1.25-.37,1,4.63h0c0,.21.08.39.12.58.18.79.34,1.52.45,2-14.56,9.81-78.7,12.24-93.3,8.28-.92-.25-1.91-.51-3-.77l-1.34-.32-2.09-.5c-15.64-3.66-38.84-7.67-38.84-7.67s.17,2.49.22,5.41h0v.09c0,1.24,0,2.55,0,3.78-27.1.85-55.35-3.44-55.35-3.44Z"/><path class="cls-6" d="M641.59,986.05l1.71.15c.4,0,1-.17,1.11-.63l.3-1.78-1.1.63c10.3.94,20.61,2,30.89,3.19,5.85.7,11.72,1.41,17.52,2.51,6.91,1.31,13.77,2.92,20.65,4.36,14.82,3.09,29.78,5.63,44.9,6.49a220.83,220.83,0,0,0,45.73-2.43,226.83,226.83,0,0,0,26.93-5.67l1.33-.38-.95-.3.27,1.78c.06.38.7.38,1,.3l1.25-.37-1-.31c.34,1.55.68,3.09,1,4.63.1.46.87.38,1.16.23h0l-1.16-.23.57,2.63.28-.56a30.63,30.63,0,0,1-8.45,3.53,108.46,108.46,0,0,1-12.6,2.77,270.92,270.92,0,0,1-31,3.14,263.15,263.15,0,0,1-28.78.1,75.56,75.56,0,0,1-9.73-1.05c-2.37-.45-4.7-1.17-7-1.73-3.15-.76-6.32-1.45-9.49-2.12-10-2.1-20-4-30-5.75l-.56-.09c-.47-.09-1.13.25-1.1.77.12,1.76.18,3.51.21,5.27a.51.51,0,0,0,.53.49h0l-.52-.49c0,1.29,0,2.58,0,3.87l.9-.63a323.82,323.82,0,0,1-51.32-2.91c-1.28-.17-2.55-.34-3.82-.53l.53.49,1-20c0-.81-1.6-.55-1.63.14l-1,20c0,.32.26.45.53.49a333.53,333.53,0,0,0,38,3.37c5.86.21,11.71.25,17.57.07.31,0,.88-.25.9-.63,0-1.29,0-2.58,0-3.87a.51.51,0,0,0-.53-.49h0l.53.49c0-1.86-.11-3.71-.23-5.56l-1.09.77q13.39,2.32,26.72,5c6.36,1.3,12.64,2.85,19,4.35a57.91,57.91,0,0,0,9,1.21,245.81,245.81,0,0,0,28.21.19,290.66,290.66,0,0,0,31.73-2.91,129.31,129.31,0,0,0,13.36-2.65,44,44,0,0,0,9.61-3.44c.59-.32,1.17-.66,1.73-1a.56.56,0,0,0,.28-.56l-.57-2.62c-.1-.46-.88-.38-1.16-.23h0l1.16.23c-.35-1.55-.69-3.09-1-4.63-.09-.37-.68-.39-1-.3l-1.25.37,1,.3-.27-1.78c-.06-.38-.69-.37-1-.3a207.91,207.91,0,0,1-23.54,5.28,224.66,224.66,0,0,1-44.69,3.35c-15.38-.5-30.64-2.84-45.71-5.88-6.78-1.37-13.52-2.9-20.3-4.31-5.83-1.21-11.69-2.11-17.6-2.86-11-1.39-22-2.5-33.08-3.52l-2.18-.2c-.4,0-1,.16-1.1.63l-.31,1.77,1.11-.63-1.72-.15C641.41,984.86,640.49,986,641.59,986.05Z"/><path class="cls-8" d="M731.12,936.44a1.3,1.3,0,0,1-1.22.75,1.23,1.23,0,0,1-.62-.2,1.59,1.59,0,0,1-.49-2.06l4.19-8.1c.76.47,1.54,1,2.33,1.53Z"/><path class="cls-6" d="M730.33,936.59c-.05.09-.11.17-.16.25s-.31.18.05.09.07-.07-.1-.16l-.19-.12a1.51,1.51,0,0,1-.5-1,1.71,1.71,0,0,1,.21-1c.26-.52.54-1,.81-1.57L733.1,928l.68-1.32-1.56.42c.39.24.77.49,1.15.74l.5.34c.11.07.22.16.34.23s.32.16.3.12-.12.24-.15.28l-.91,1.77L731,935.4l-.62,1.19c-.12.24.56.13.63.12.26-.05.82-.15,1-.42l3.65-7,.54-1c0-.05,0-.09,0-.11-.77-.53-1.54-1.05-2.33-1.54a1.74,1.74,0,0,0-1.56.42L730,931.26l-1.45,2.81a5.14,5.14,0,0,0-.71,1.61c-.3,2.4,3.22,2.15,4.11.61.14-.23-.57-.12-.64-.11C731,936.23,730.48,936.33,730.33,936.59Z"/><path class="cls-8" d="M737.9,940.82a1.33,1.33,0,0,1-1.23.75,1.16,1.16,0,0,1-.61-.2,1.61,1.61,0,0,1-.5-2.06l4-7.77c.72.56,1.46,1.14,2.21,1.75Z"/><path class="cls-6" d="M737.14,940.76c-.18.31-.18.36-.45.18a1.19,1.19,0,0,1-.49-.9,1.43,1.43,0,0,1,.19-.79c.26-.52.53-1,.79-1.54l2.52-4.85.65-1.27L739,932l2.22,1.74-.13-.48-3.9,7.53c-.39.75,1.24.67,1.52.11l3.91-7.53a.35.35,0,0,0-.13-.48l-2.22-1.75a1.14,1.14,0,0,0-1.4.37l-2.12,4.11-1.4,2.69a5.26,5.26,0,0,0-.73,1.71,1.91,1.91,0,0,0,1.39,2,2.47,2.47,0,0,0,2.7-1.16c.2-.34-.17-.55-.46-.58A1.19,1.19,0,0,0,737.14,940.76Z"/><path class="cls-8" d="M748.19,938.41l-3.51,6.79a1.34,1.34,0,0,1-1.23.75,1.21,1.21,0,0,1-.62-.21,1.59,1.59,0,0,1-.49-2l3.64-7Z"/><path class="cls-6" d="M747.44,938.41l-3.34,6.45c-.06.11-.11.22-.17.32s-.25.3-.25.35,0,.07,0,0,.21.11,0,0a2.92,2.92,0,0,1-.37-.24,1.51,1.51,0,0,1-.15-1.78l1.84-3.55,1.69-3.27-1.5.31,2.2,1.76a1.13,1.13,0,0,0,1.07,0c.15-.06.72-.39.44-.62-.74-.58-1.47-1.17-2.2-1.76a1.27,1.27,0,0,0-1.51.3l-3.57,6.9a2,2,0,0,0,.07,2.19c.89,1.16,3,.67,3.66-.47s1.09-2.09,1.62-3.13l1.93-3.71C749.28,937.77,747.67,938,747.44,938.41Z"/><path class="cls-8" d="M751.45,949.57a1.3,1.3,0,0,1-1.23.75,1.16,1.16,0,0,1-.61-.2,1.61,1.61,0,0,1-.5-2.06l3.29-6.35,2.24,1.7Z"/><path class="cls-6" d="M750.69,949.52a1.51,1.51,0,0,1-.22.28c-.06.05,0,0,0,0a.87.87,0,0,1-.62-.49,1.36,1.36,0,0,1,0-1.21c.16-.36.37-.72.55-1.08l2.15-4.13.58-1.12-1.4.37,2.24,1.7-.13-.49-3.19,6.17c-.39.75,1.24.66,1.52.11l3.2-6.17a.35.35,0,0,0-.13-.48l-2.24-1.7a1.14,1.14,0,0,0-1.4.38l-1.86,3.59-1.14,2.19a2.82,2.82,0,0,0-.48,1.93c.4,2,3.19,1.78,4.05.26.2-.34-.17-.56-.46-.58A1.17,1.17,0,0,0,750.69,949.52Z"/><path class="cls-8" d="M758.23,954a1.33,1.33,0,0,1-1.23.75,1.23,1.23,0,0,1-.62-.2,1.6,1.6,0,0,1-.49-2.06l3.07-5.92c.75.53,1.51,1.06,2.29,1.58Z"/><path class="cls-6" d="M757.47,953.93c-.05.08-.2.21-.21.29s0,0,0,0a1.14,1.14,0,0,1-.59-.47,1.39,1.39,0,0,1-.07-1.3c.14-.33.33-.64.49-1l2-3.91.54-1.05-1.4.38,2.3,1.58-.11-.42-3,5.85c-.36.69,1.26.53,1.51,0l3-5.84a.29.29,0,0,0-.11-.43c-.78-.51-1.54-1.05-2.3-1.58a1.23,1.23,0,0,0-1.4.38l-1.78,3.42-1,2a2.61,2.61,0,0,0-.43,1.84c.46,1.92,3.21,1.64,4,.17.19-.32-.16-.48-.44-.49A1.28,1.28,0,0,0,757.47,953.93Z"/><path class="cls-7" d="M634.54,963.71h0v0Z"/><path class="cls-6" d="M634.07,963.59h0l1.28-.09v0l-1.47.54h0l-.1,0h0a.37.37,0,0,0,.17,0,.7.7,0,0,0,.25,0,1.67,1.67,0,0,0,.31,0,1.92,1.92,0,0,0,.32-.09l.18-.08a1,1,0,0,0,.27-.17l.06-.09a.1.1,0,0,0,0-.14l-.14-.06-.14,0a1.34,1.34,0,0,0-.28,0l-.2,0-.33.09-.18.08-.15.09a.37.37,0,0,0-.15.13.13.13,0,0,0,0,.12s0,0,0,0a.18.18,0,0,0,.15.1.81.81,0,0,0,.31,0,2,2,0,0,0,.42-.07,1.93,1.93,0,0,0,.4-.15h0a.74.74,0,0,0,.21-.13.37.37,0,0,0,.12-.13.08.08,0,0,0,0-.11.13.13,0,0,0-.12-.07l-.14,0a1.59,1.59,0,0,0-.38,0l-.22.05A3.25,3.25,0,0,0,634.07,963.59Z"/><path class="cls-9" d="M812.93,616.87C796,684.29,755.39,835.49,736.51,918.79c0,0-78.11,17.9-87.69-.84,0,0,44.69-343.45,81.22-382.92,20.19-21.82,40.57-15,57-.8A82.57,82.57,0,0,1,812.93,616.87Z"/><path class="cls-10" d="M372.94,799l-5,29.41c10.42,2,20.77,4.35,31.11,6.81,1.3-7.92,2.62-15.83,3.91-23.75,1.19-7.29,4-10.14,13.51-10.07q74.6.62,149.2,0c9.79-.08,13.14,2.36,14.45,10.42,1.24,7.69,2.52,15.36,3.78,23a283,283,0,0,0,29.2-12.15c-5.68-32.11-11.37-64.44-17.12-97.59a18,18,0,0,1,0-7.72q-10.2.66-20.42,1-6.27.22-12.53.36a19.73,19.73,0,0,1,.71,3c3.46,21.76,7.09,28.4,11.09,50.09,1.3,7-2.1,8.38-9.7,8.29-24.83-.3-49.67-.11-74.51-.11-24,0-48-.35-71.93.17-9.64.21-11.62-2.6-10.26-9.87,3.91-21,7.43-26.92,10.73-48a13.35,13.35,0,0,1,2.45-6.53c-11.81-.35-23.62-.63-35.43-.77,1.6,2,1.66,5.22.91,9.29C382.08,751.4,377.52,772,372.94,799Z"/><path class="cls-10" d="M338.06,674.6s142.42,25.63,203.84,17.86,102.81-14.38,100.32-23.68-46-29.26-89.73-30.67-163.75,9.35-163.75,9.35-40.27,6.63-44.5,12.37S338.06,674.6,338.06,674.6Z"/><path class="cls-11" d="M862.41,370.8l.69,0,0,.06,0,0Z"/><path class="cls-12" d="M820.35,462.22a.41.41,0,0,1,.19,0c0,.27.06.55-.19.75Z"/><path class="cls-12" d="M820.55,538.12a.46.46,0,0,1-.2,0v-.5Z"/><path class="cls-13" d="M882.17,462.33l-.27-.07.28-.11A.17.17,0,0,1,882.17,462.33Z"/><path class="cls-13" d="M842.48,462.24l.28-.14.06.15Z"/><path class="cls-13" d="M881.33,462.26H881A.25.25,0,0,1,881.33,462.26Z"/><path class="cls-13" d="M821.21,462.24a.2.2,0,0,1,.32,0Z"/><path class="cls-14" d="M796,316.59s-34.39-14.76-56.9-8.1c0,0-.93,21.27-19.72,93.53-3.51-14.5,8.81-57.8,7-90.12a40.7,40.7,0,0,0-11.21-25.73l-59.74-62.69s-38,61.17-53.78,101.33,78.55,181,115.16,192.09c38.21,11.54,31.25,0,52.81-12.35C776.49,495.55,783,528.55,796,316.59Z"/><path class="cls-9" d="M724.32,641.46c.94-5.67,2.17-11.29,3.63-16.83A234.65,234.65,0,0,1,741,588.08a252.24,252.24,0,0,1,19.17-35,215.06,215.06,0,0,1,16.27-21.74C658.83,505.89,386,508.05,386,508.05s-63.05,15.79-44.53,107.57c17,84.45,290.63,51.55,381.58,26.21Z"/><path class="cls-9" d="M744.7,555.18a171.55,171.55,0,0,0-32.36,2.9,73.43,73.43,0,0,0,2.72-14.57q-3.1-2.6-6.51-5.26a215.82,215.82,0,0,0-29.94,15.11,256.69,256.69,0,0,0-31.67,22.51A223.39,223.39,0,0,0,620.29,602c-2.28,2.67-4.49,5.4-6.6,8.2l1,.14c-30.43,43.78-16.12,128.54-25.05,208.91-6.55,58.94-15.94,107.63-15.94,107.63,11.37,17.69,110.81,9.08,110.81,9.08C698.63,823.59,744.7,555.18,744.7,555.18Z"/><path class="cls-15" d="M715.06,543.51q-3.1-2.6-6.51-5.26a215.82,215.82,0,0,0-29.94,15.11"/><path class="cls-16" d="M684.51,935.91C702.79,828,744.7,555.18,744.7,555.18h4.76L687.88,935.71Z"/><path class="cls-15" d="M613.69,610.15l1,.14"/><path class="cls-4" d="M579.07,190.1s31.45,100.68,78.69,123.2c0,0,4.26,2.34-3.38-20.89,6.24-4.77,8.16-6.19,13-10.18,16-13.34,47.08-44.86,47.08-44.86l-26.18-62-4.76-33.31c-7.68,8.81-16.37,15.11-23.53,21.92C620.65,201.43,579.07,190.1,579.07,190.1Z"/><path class="cls-14" d="M646.27,466.92c-20.92,49.55-19.32-.55-21.82,3.59-9,14.9-21.88,1.25-30.73,13.19l-.83,1.14c-17.44,23.45-44.09,29.91-43.26,35.79,1.66,11.79-77.94-2.56-127.07,10-57,14.57-73.45,50.36-90.15,31.09-5.59-6.47-7.27-4.5-6.65-19.29,1.22-31.16,51.37-155.5,51.37-155.5,67.11-203.07,248.34-204.24,248.34-204.24s-14.07,92.59,61.83,115c.05.09-17.3,101.84-32.88,152.59C652.17,457.57,648.31,462.09,646.27,466.92Z"/><path class="cls-17" d="M560.34,521c-3,1.15-6.7,3.21-11.86,4.38-16.67,3.74-38.85-6.64-46.13-22.09-40.37-85.68,1.43-240.9,1.43-240.9l76.08,221.3C562.05,507.75,566,518.85,560.34,521Z"/><path class="cls-14" d="M767.12,501.21S656.08,468,588.49,451.9c6-79.73,44.32-318.21-78.47-221.71,0,0-49,192.17-2.88,273.85a43.53,43.53,0,0,0,28.22,21.06C581.89,535.7,722.74,567,753,565.19c0,0,1.84,2.35,4.5-1.34C766,552.05,767.12,501.21,767.12,501.21Z"/><path class="cls-18" d="M583.76,800.49s-.06,0-.09-.06C583.54,800.21,583.57,800.26,583.76,800.49Z"/><path class="cls-19" d="M575,222.43s17.65,12.71,28.72,36.86a56.71,56.71,0,0,1,4.77,28.62L593.72,453.16l53.83,14.51,1.4-1.06L595.87,451s16.42-160.34,14.46-175.69C608.51,261,593.81,237.1,575,222.43Z"/><path class="cls-20" d="M662.22,162.11l-.14.25C662.12,162.24,662.16,162.14,662.22,162.11Z"/><path class="cls-19" d="M707.64,316.5,646.27,466.92l1.81.75S696,348.76,707.64,316.5Z"/><polyline class="cls-19" points="719 404.24 715.18 457.7 717.27 393.37 719.36 402.02"/><polygon class="cls-19" points="667.99 472.23 767.12 503.48 767.12 501.21 666.13 469.85 667.99 472.23"/><path class="cls-14" d="M394.56,343.45s35.69-94,114.89-143.4a90.37,90.37,0,0,1,43.08-13.49l72.94-3.88-87,45.34Z"/><path class="cls-16" d="M593.27,664.46l-3.07.33c4.52-36.86,24.49-54.5,24.49-54.5s-17.18,25.06-17.78,53.78Z"/><path class="cls-5" d="M762.3,1003.15s1.81-12.63-8.22-16.81-32.59-11-49.39-19.54c-23.33-11.93-37.47-30.64-47.64-31.11-10.34-.48-7.71,17.91-30.19,19.38-22.3,1.45-39.54-10.81-40.59-11.17-5,3.5-12.8,41.88-6.45,51.16s60.95,11.49,60.95,11.49l43.93,7.91,43.68.14Z"/><path class="cls-6" d="M621.77,1005.08c0-7.36-.85-18.09-8.53-21.65-2.66-1.23-5.57-2-8.35-3-2.39-.82-4.79-1.65-7.15-2.6-4.07-1.64-8.14-3.77-10.84-7.35-3.79-5-4.06-11.5-3.39-17.51.08-.77-1.56-.52-1.64.15-.59,5.35-.47,10.94,2.11,15.8a20.08,20.08,0,0,0,8.95,8.2c4.52,2.29,9.42,3.77,14.18,5.44,2.51.87,5.27,1.55,7.31,3.34A14.07,14.07,0,0,1,618,991.2c1.77,4.41,2.19,9.32,2.17,14,0,.79,1.62.51,1.63-.15Z"/><path class="cls-6" d="M583.49,947.13c7.38,5.43,15.48,9.64,24.61,11.08a67.48,67.48,0,0,0,17,.17,81.73,81.73,0,0,0,12.83-2.1,66.58,66.58,0,0,0,8-2.73c4.65-1.86,9.8-3.92,14.9-3.32,5.39.63,10.4,3.45,15,6.23,5.3,3.25,10.37,6.87,15.57,10.26,2.93,1.91,5.89,3.76,8.93,5.48,1.3.73,1.93,1.24,3.34,1a5,5,0,0,0,3-1.58c1.23-1.52.93-3.73.53-5.49-.09-.36-1.71,0-1.62.43.38,1.64.72,3.77-.42,5.21a2.08,2.08,0,0,1-1.59.84,7.72,7.72,0,0,1-1.95-1.09c-1.36-.77-2.71-1.57-4-2.38-2.48-1.52-4.91-3.1-7.32-4.71-4.9-3.27-9.72-6.69-14.82-9.65-4.07-2.36-8.48-4.57-13.2-5.18-7.75-1-14.8,3.19-21.94,5.45a60.71,60.71,0,0,1-10.68,2.24,77.73,77.73,0,0,1-17,.68c-10.29-.93-19.36-5.34-27.59-11.39-.36-.27-1.77.37-1.52.55Z"/><path class="cls-6" d="M655.31,1008.73l-5.31-1-3.15-.56a5.59,5.59,0,0,1-.66-.12c0,.23.57-.39.64-.46.36-.42.74-.82,1.13-1.22a35.68,35.68,0,0,1,20.92-10.52c4.59-.65,9.29-.73,13.91-1s9.22-.63,13.82-1.06c7.27-.69,14.82-1.42,21.76-3.84,2.39-.84,5-2,6.7-4,2.44-3,.9-7.13-.71-10.12-.22-.4-1.76.18-1.62.43,1.37,2.54,2.85,6,1.46,8.86a8.24,8.24,0,0,1-4,3.45c-5.08,2.46-11.1,3.17-16.64,3.86-7.34.9-14.73,1.38-22.11,1.88-6.81.45-13.64.61-20.16,2.83a37.67,37.67,0,0,0-16.54,11.29c-.09.11-.1.23.07.26l9.16,1.65c.38.07,1.77-.55,1.33-.63Z"/><path class="cls-7" d="M648.88,1007.79l.21.25-.37-.06C648.78,1007.92,648.83,1007.85,648.88,1007.79Z"/><path class="cls-6" d="M648.12,1008.08l.19.22,0,0,1.42-.62-.32-.06h0l.08.3.16-.19a.15.15,0,0,0,.07-.13.09.09,0,0,0-.05-.11.27.27,0,0,0-.17-.06.65.65,0,0,0-.24,0l-.21,0a2.26,2.26,0,0,0-.43.11l-.18.08a1,1,0,0,0-.26.18l-.17.19a.19.19,0,0,0-.07.17.18.18,0,0,0,.15.12l.33.06h0a.62.62,0,0,0,.23,0,.93.93,0,0,0,.29,0l.22,0a1.6,1.6,0,0,0,.31-.1.83.83,0,0,0,.16-.09.67.67,0,0,0,.19-.14l.06-.09a.11.11,0,0,0,0-.15l-.18-.22,0,0a.27.27,0,0,0-.17-.06.65.65,0,0,0-.24,0,1.77,1.77,0,0,0-.32.05,1.92,1.92,0,0,0-.32.09l-.18.08a1,1,0,0,0-.26.18l-.07.1A.12.12,0,0,0,648.12,1008.08Z"/><path class="cls-7" d="M633.45,1002.72l1.8-.07a28.67,28.67,0,0,0,.35,3.63l-1.85-.12A32.35,32.35,0,0,1,633.45,1002.72Z"/><path class="cls-6" d="M632.92,1003l1.79-.07-.27-.09a27.55,27.55,0,0,0,.35,3.62l1.34-.52-1.84-.11.27.08a32.6,32.6,0,0,1-.3-3.43c0-.09-.25-.09-.28-.09a2.41,2.41,0,0,0-.59.09,1.86,1.86,0,0,0-.55.22c-.08,0-.2.11-.2.21a33,33,0,0,0,.3,3.44c0,.09.24.08.28.09l1.85.11a2.26,2.26,0,0,0,.89-.19c.11,0,.48-.17.45-.33a27.53,27.53,0,0,1-.35-3.63c0-.08-.26-.09-.28-.08l-1.8.07a2.49,2.49,0,0,0-1.14.31c-.07,0-.23.12-.2.21S632.86,1003,632.92,1003Z"/><path class="cls-7" d="M625.33,1000.82c.1,1.53.14,3.12.12,4.71h-.26l-1.54-.13c0-1.5,0-3-.12-4.43Z"/><path class="cls-6" d="M624.51,1000.88c.1,1.57.14,3.14.12,4.72l.89-.66h-.19c-.13,0,0,0,0,0s-.24,0-.32,0l-1.13-.1.54.53c0-1.48,0-3-.12-4.43l-.89.66,1.8-.15c.35,0,.84-.25.89-.66s-.43-.56-.75-.53l-1.8.14c-.3,0-.92.26-.89.66.1,1.47.13,3,.12,4.43a.54.54,0,0,0,.54.53c.67.06,1.34.13,2,.14.32,0,.89-.28.89-.66q0-2.36-.12-4.71a.62.62,0,0,0-.75-.53C625.1,1000.26,624.48,1000.48,624.51,1000.88Z"/><path class="cls-8" d="M574.71,995.63l1.71.16.31-1.78c6.73.61,29.92,2.78,44.11,5,4.32.66,9.78,1.84,16.11,3.21,14.67,3.18,34.76,7.53,55.94,8.5,3.79.18,7.55.24,11.15.19a241.22,241.22,0,0,0,60.22-8.74l.27,1.78,1.24-.38,1,4.63h0c.05.2.09.38.13.58.17.79.33,1.51.45,2-14.57,9.8-78.71,12.24-93.3,8.28-.93-.26-1.92-.51-3-.77l-1.34-.33-2.09-.5c-15.64-3.65-38.83-7.67-38.83-7.67s.17,2.49.22,5.41h0v.1c0,1.24,0,2.54,0,3.78-27.1.85-55.35-3.45-55.35-3.45Z"/><path class="cls-6" d="M574.42,996.19l1.71.15c.4,0,1-.16,1.11-.63l.31-1.77-1.11.63c10.31.93,20.61,2,30.89,3.19,5.86.7,11.73,1.4,17.53,2.51,6.91,1.31,13.76,2.92,20.65,4.35,14.81,3.09,29.77,5.64,44.9,6.5a220.78,220.78,0,0,0,45.72-2.44,227,227,0,0,0,26.94-5.66l1.33-.38-.95-.31.27,1.78c0,.39.69.38.95.31l1.24-.38-.95-.3c.35,1.54.69,3.08,1,4.63.1.46.87.38,1.16.23h0l-1.16-.22c.19.87.39,1.75.58,2.62l.28-.55a30.76,30.76,0,0,1-8.45,3.53,110.7,110.7,0,0,1-12.61,2.76,273.26,273.26,0,0,1-31,3.15,263.33,263.33,0,0,1-28.79.1,75.56,75.56,0,0,1-9.73-1.05c-2.37-.46-4.69-1.17-7-1.74-3.15-.76-6.31-1.44-9.48-2.11-10-2.11-20-4-30-5.75l-.56-.1c-.47-.08-1.14.25-1.1.78.11,1.75.17,3.51.21,5.27a.5.5,0,0,0,.53.48h0l-.53-.48c0,1.29,0,2.58,0,3.87l.89-.63a322.72,322.72,0,0,1-51.32-2.92c-1.27-.16-2.55-.33-3.82-.52l.53.48,1-20c0-.8-1.61-.54-1.64.14l-1,20c0,.31.25.44.53.48a328.84,328.84,0,0,0,38,3.37c5.85.21,11.71.25,17.56.08.31,0,.89-.26.9-.63,0-1.29,0-2.58,0-3.88a.5.5,0,0,0-.53-.48h0l.53.48c0-1.85-.1-3.71-.22-5.56l-1.1.78q13.39,2.32,26.72,5c6.36,1.31,12.65,2.85,19,4.35a57,57,0,0,0,9,1.21,241.36,241.36,0,0,0,28.21.19,288.59,288.59,0,0,0,31.74-2.9,134.64,134.64,0,0,0,13.35-2.65,44.35,44.35,0,0,0,9.62-3.45c.59-.31,1.17-.65,1.73-1a.57.57,0,0,0,.28-.56c-.19-.88-.39-1.75-.58-2.63-.1-.46-.87-.38-1.16-.22h0l1.16.22c-.34-1.54-.69-3.08-1-4.63-.08-.37-.68-.39-1-.3l-1.24.38,1,.3-.27-1.78c-.06-.38-.7-.38-1-.3a208.53,208.53,0,0,1-23.55,5.27,224.51,224.51,0,0,1-44.68,3.35c-15.38-.5-30.64-2.84-45.71-5.87-6.78-1.37-13.53-2.91-20.3-4.31-5.84-1.21-11.7-2.11-17.61-2.86-11-1.4-22-2.51-33.08-3.53l-2.17-.2c-.4,0-1,.17-1.11.63l-.31,1.78,1.11-.63-1.71-.16C574.24,995,573.33,996.1,574.42,996.19Z"/><path class="cls-8" d="M664,946.59a1.33,1.33,0,0,1-1.23.75,1.23,1.23,0,0,1-.62-.2,1.62,1.62,0,0,1-.49-2.06l4.2-8.11c.76.48,1.53,1,2.33,1.54Z"/><path class="cls-6" d="M663.16,946.74c0,.09-.11.17-.16.25s-.3.17.06.08.06-.07-.11-.16a.94.94,0,0,1-.18-.12,1.46,1.46,0,0,1-.51-1,1.68,1.68,0,0,1,.21-1l.82-1.58,2.64-5.1.69-1.32-1.57.42c.39.24.77.49,1.15.74l.51.33a2.44,2.44,0,0,0,.33.23s.32.17.31.12-.13.25-.15.29l-.91,1.76-2.51,4.84-.62,1.19c-.12.24.57.13.64.11.25,0,.82-.15,1-.41l3.65-7.05.53-1a.08.08,0,0,0,0-.12c-.76-.53-1.54-1-2.33-1.53a1.72,1.72,0,0,0-1.56.41l-2.21,4.29-1.46,2.8a5.71,5.71,0,0,0-.71,1.62c-.29,2.4,3.22,2.15,4.12.61.13-.24-.58-.13-.64-.12C663.85,946.37,663.32,946.47,663.16,946.74Z"/><path class="cls-8" d="M670.73,951a1.31,1.31,0,0,1-1.22.76,1.24,1.24,0,0,1-.62-.21,1.59,1.59,0,0,1-.49-2.06l4-7.77,2.22,1.75Z"/><path class="cls-6" d="M670,950.91c-.18.3-.17.35-.45.18a1.2,1.2,0,0,1-.48-.91,1.46,1.46,0,0,1,.18-.79l.8-1.54,2.51-4.85.66-1.26-1.4.37c.74.58,1.48,1.16,2.21,1.75l-.13-.48-3.9,7.53c-.39.75,1.24.66,1.53.11l3.9-7.53a.35.35,0,0,0-.13-.49c-.73-.59-1.47-1.17-2.21-1.75a1.14,1.14,0,0,0-1.4.38l-2.13,4.11-1.39,2.69a5,5,0,0,0-.73,1.71,1.89,1.89,0,0,0,1.38,2A2.47,2.47,0,0,0,671.5,951c.2-.34-.18-.55-.47-.58A1.18,1.18,0,0,0,670,950.91Z"/><path class="cls-8" d="M681,948.56l-3.51,6.78a1.3,1.3,0,0,1-1.23.75,1.23,1.23,0,0,1-.62-.2,1.61,1.61,0,0,1-.49-2.06l3.65-7Z"/><path class="cls-6" d="M680.27,948.56,676.93,955c0,.11-.11.21-.16.32a2.42,2.42,0,0,0-.26.35s0,.07,0,0,.22.1,0,0a2.9,2.9,0,0,1-.36-.25,1.47,1.47,0,0,1-.15-1.77l1.83-3.55,1.7-3.28-1.5.31,2.2,1.77a1.16,1.16,0,0,0,1.07,0c.14-.06.72-.39.44-.61l-2.21-1.77a1.26,1.26,0,0,0-1.5.31l-3.57,6.89a2,2,0,0,0,.06,2.2c.89,1.15,3,.67,3.67-.48s1.08-2.08,1.62-3.12l1.92-3.72C682.11,947.91,680.5,948.11,680.27,948.56Z"/><path class="cls-8" d="M684.28,959.72a1.32,1.32,0,0,1-1.22.75,1.2,1.2,0,0,1-.62-.2,1.6,1.6,0,0,1-.49-2.06l3.29-6.35,2.24,1.7Z"/><path class="cls-6" d="M683.52,959.66a1,1,0,0,1-.21.28c-.06.06,0,0,.05,0a.87.87,0,0,1-.63-.49,1.36,1.36,0,0,1,0-1.21c.17-.37.37-.72.56-1.08l2.14-4.13.58-1.13-1.4.38,2.24,1.7-.13-.49-3.19,6.16c-.39.76,1.24.67,1.53.11l3.19-6.16a.34.34,0,0,0-.13-.48l-2.24-1.7a1.13,1.13,0,0,0-1.4.37l-1.86,3.6-1.13,2.19a2.79,2.79,0,0,0-.49,1.92c.41,2,3.19,1.79,4.06.26.19-.33-.17-.55-.47-.58A1.19,1.19,0,0,0,683.52,959.66Z"/><path class="cls-8" d="M691.06,964.1a1.33,1.33,0,0,1-1.23.75,1.24,1.24,0,0,1-.62-.21,1.6,1.6,0,0,1-.49-2l3.07-5.92c.76.52,1.52,1.06,2.3,1.58Z"/><path class="cls-6" d="M690.31,964.07c0,.08-.2.22-.22.3s0,0,.06,0a1.17,1.17,0,0,1-.6-.47,1.44,1.44,0,0,1-.07-1.31c.15-.32.33-.64.5-1l2-3.9.55-1-1.4.37c.76.54,1.52,1.07,2.3,1.59l-.12-.43-3,5.85c-.36.7,1.25.54,1.51,0l3-5.85a.27.27,0,0,0-.11-.42l-2.3-1.58a1.23,1.23,0,0,0-1.39.37l-1.78,3.43-1.06,2a2.59,2.59,0,0,0-.42,1.85c.46,1.92,3.2,1.64,4,.17.18-.33-.17-.48-.45-.49A1.25,1.25,0,0,0,690.31,964.07Z"/><path class="cls-7" d="M567.38,973.85l0,0a0,0,0,0,0,0,0Z"/><path class="cls-6" d="M566.91,973.73l0,0,1.28-.1a0,0,0,0,0,0,0l-1.47.54h0l-.1,0h0a.35.35,0,0,0,.17.06H567a1.55,1.55,0,0,0,.31,0l.32-.1.19-.07a1,1,0,0,0,.26-.18l.07-.08a.12.12,0,0,0,0-.15l-.13-.05-.14,0a1.29,1.29,0,0,0-.28,0l-.21,0a1.68,1.68,0,0,0-.32.09l-.19.08-.15.08a.35.35,0,0,0-.14.13.17.17,0,0,0-.05.13v0a.17.17,0,0,0,.15.11,1.15,1.15,0,0,0,.32,0,3.07,3.07,0,0,0,.42-.07,2.62,2.62,0,0,0,.39-.15h0a1.07,1.07,0,0,0,.21-.13.49.49,0,0,0,.12-.13c0-.05,0-.09,0-.11a.14.14,0,0,0-.12-.08l-.14,0a1.5,1.5,0,0,0-.37,0l-.22.05A1.9,1.9,0,0,0,566.91,973.73Z"/><path class="cls-21" d="M762.43,1000.62s.86-10.8-8.35-14.28-35.83-14.53-45.46-20-34-22.93-34-22.93l8.45,1.16s15.64,13,25.27,18.22S754.11,983.2,758.48,986,765,994,762.43,1000.62Z"/><g id="freepik--Character--inject-2"><path class="cls-4" d="M750.21,306.8l3-14.39s-2-14.58-1.12-19.53,9.56-23,10.24-23.69.17-25.75,4.7-27.07,8.81.29,10.28,6.46-2.58,21.78.87,22.42a21.06,21.06,0,0,0,8-.66s-1.88-7,.68-10.75,8.23-2.19,8.23-2.19l1.41,2.74,2-4.85S796,220.58,801.64,218a25.06,25.06,0,0,1,2-10,5.32,5.32,0,0,1,7.18-2.23,5.5,5.5,0,0,1,1.24.91h0l3.84,34.1-13.27,43.29s-10.57,11-13.14,14.1-1.58,15.34-3.4,14.72C770.87,307.76,750.21,306.8,750.21,306.8Z"/><path class="cls-22" d="M778.9,251.56c.07-.4-2.07-1.05-4.75-.65s-4.53,1.65-4.33,2,2.14-.13,4.58-.48S778.86,252,778.9,251.56Z"/><path class="cls-22" d="M812.68,242.34a33.35,33.35,0,0,1-2.36-6.68c-1.28-4.24-3-10.19-4.88-17.07l.8.63c-1.19,0-2.69-.13-3.69,0A4.16,4.16,0,0,0,799.8,221a9.36,9.36,0,0,0-1.47,5.71,32.82,32.82,0,0,0,.57,5.93c.81,3.78,1.79,7.23,2.52,10a62.19,62.19,0,0,1,2.22,9.34c-.22.1-1.56-3.31-3.42-9-.91-2.82-2-6.17-2.89-10a32.22,32.22,0,0,1-.73-6.26,10.92,10.92,0,0,1,1.79-6.8,6,6,0,0,1,3.89-2.41,30.11,30.11,0,0,1,4,0H807l.15.63c1.81,6.92,3.31,12.94,4.31,17.25A33,33,0,0,1,812.68,242.34Z"/><path class="cls-22" d="M788.32,284.46a9.28,9.28,0,0,1-.45-1.32,19.22,19.22,0,0,1-.39-3.86,48.19,48.19,0,0,1,2.28-13.94l0,.34c-.74-6.54-6.31-13.88-4.64-23.57a7.32,7.32,0,0,1,4.2-4.86,10.64,10.64,0,0,1,6-.62l.48.08.21.45c2.87,8.74,5.27,16.3,6.91,21.71a14.57,14.57,0,0,1,.86,6.64c-.13,1.55-.38,2.36-.52,2.26a10.52,10.52,0,0,1-.09-2.38,15.84,15.84,0,0,0-1.32-6.32c-1.93-5.29-4.54-12.78-7.49-21.44l.65.56a9.38,9.38,0,0,0-5,.56,5.6,5.6,0,0,0-3.2,3.75,13.28,13.28,0,0,0,0,6.08,57.24,57.24,0,0,0,1.37,5.93c.55,1.94,1.25,3.63,1.87,5.52a32.76,32.76,0,0,1,1.22,5.36l.07.15,0,.16a54.19,54.19,0,0,0-2.83,13.44C788.05,282.55,788.53,284.42,788.32,284.46Z"/></g><path class="cls-22" d="M753.2,292.41s6,5.36,16.79,2.92C770,295.33,757.72,302.14,753.2,292.41Z"/><path class="cls-23" d="M861.27,474.54a.64.64,0,0,0-.08.14l-20.92-7.39a.23.23,0,0,0-.16-.08v-.16c1.13-4,2.28-8.05,3.36-12.09s2.23-7.84,3.59-11.67c3.1-8.74,5.89-17.59,9.44-26.17,1.22-2.93,2.29-5.93,3.42-8.89.06-.15.11-.3.18-.44,2.28-4.2,3.74-8.77,5.84-13q1.7-3.48,3.37-6.95,1.51-3.1,3-6.2c1.55.53,3.12,1,4.67,1.59l12.07,4.34.59.33-4,16.87q-3.19,13.49-6.38,27c-.57,2.41-1.11,4.83-1.74,7.22a15.92,15.92,0,0,0,1.1,11.47c1.07,2.15,2.32,4.21,3.39,6.35a10.54,10.54,0,0,1,.56,8.27c-1.72,5.1-3.58,10.16-5.39,15.24H877l-.54-.18a.24.24,0,0,0-.35-.13l-4.37-1.54,0-.16"/><path class="cls-24" d="M871.69,478.4l4.37,1.54.35.13.54.18a1.88,1.88,0,0,1,.23.16c-.09.3-.16.6-.26.9l-24.71,69.84c-.09.26-.21.51-.32.76l-20.7-7.27-.41-.25a3.74,3.74,0,0,0,0-1.73,22.18,22.18,0,0,1-.26-3.15c0-2.34-.11-4.68-.13-7,0-3.24.07-6.48.3-9.69.39-5.68.85-11.37,1.75-17,.23-1.42.19-2.9.49-4.31.51-2.32.82-4.68,1.26-7,.74-3.83,1.44-7.67,2.24-11.49.47-2.25,1-4.5,1.56-6.73.79-3,1.12-6.07,2.25-9l20.92,7.39"/><path class="cls-25" d="M840.27,467.29c-1.13,2.9-1.46,6-2.25,9-.6,2.23-1.09,4.48-1.56,6.73-.8,3.82-1.5,7.66-2.24,11.49-.44,2.33-.75,4.69-1.26,7-.3,1.41-.26,2.89-.49,4.31-.9,5.63-1.36,11.32-1.75,17-.23,3.21-.33,6.45-.3,9.69,0,2.34.14,4.68.13,7a22.18,22.18,0,0,0,.26,3.15,3.74,3.74,0,0,1,0,1.73l-1.23-.39L794.8,531.71c-.33-.12-.66-.27-1-.4l0-.49c.08-.26.15-.53.24-.79q12.16-34.41,24.35-68.82c.09-.26.2-.51.3-.77.31-.1.34-.39.44-.64l.64.2.3.1,19.74,7,.32.12A.23.23,0,0,1,840.27,467.29Z"/><path class="cls-26" d="M793.82,531.31c.32.13.65.28,1,.4L829.55,544l1.23.39.41.25a16.19,16.19,0,0,0,.34,4.86,58.5,58.5,0,0,0,2.6,10.75,33.25,33.25,0,0,0,3.3,6.75,14.56,14.56,0,0,0,7,6c-.64,3.47-4,5.24-7.57,4-15.79-5.71-31.65-11.25-47.47-16.85-3.35-1.18-4.65-3.86-3.47-7.18q3.84-10.85,7.7-21.67A.74.74,0,0,0,793.82,531.31Z"/><path class="cls-26" d="M839.79,467.09l-19.74-7a.2.2,0,0,0-.3-.1l-.64-.2a.66.66,0,0,0-.17-.12c1.77-5,3.49-10,5.31-15,1.34-3.65,4.1-5.86,7.66-7.2a48.86,48.86,0,0,0,5.45-2.26,17.61,17.61,0,0,0,7.75-8.58c6.16-13,12.4-26,18.62-39,1.22-2.55,2.43-5.11,3.65-7.66a22.29,22.29,0,0,1,5,1.61q-1.53,3.09-3,6.2-1.68,3.46-3.37,6.95c-2.1,4.27-3.56,8.84-5.84,13-.07.14-.12.29-.18.44-1.13,3-2.2,6-3.42,8.89-3.55,8.58-6.34,17.43-9.44,26.17-1.36,3.83-2.55,7.75-3.59,11.67s-2.23,8.06-3.36,12.09Z"/><path class="cls-23" d="M844.42,573a14.56,14.56,0,0,1-7-6,33.25,33.25,0,0,1-3.3-6.75,58.5,58.5,0,0,1-2.6-10.75,16.19,16.19,0,0,1-.34-4.86l20.7,7.27Z"/><path class="cls-27" d="M872.34,381.6a22.29,22.29,0,0,0-5-1.61,3.28,3.28,0,0,0-1.58-.73c-.64-.23-.87-.6-.63-1.26.52-1.45,1-2.92,1.55-4.34a3,3,0,0,1,4-1.82q10.75,3.77,21.49,7.6a3.05,3.05,0,0,1,1.93,4.08c-.44,1.31-.95,2.59-1.36,3.91-.28.91-.72,1.22-1.64.8a11.77,11.77,0,0,0-1.46-.45l-.64-.25L877,383.19C875.46,382.64,873.89,382.13,872.34,381.6Z"/><path class="cls-4" d="M876.81,516.38c2.44-3.12,3.74-4.66,2.44-8.71-.5-1.58-2.06-2.79-3.35-4.26l-39-13.44c4.7-6.15,23.41-1.72,26.85-8.66s-5.2-6.28-7-6.77-32.21-1-32.21-1-25.73,8.48-31.21,11.91-19.41,15.3-19.41,15.3l-8.73,5.3s0,31.89-3.6,47.33c-.26,1.12,14.46-3.09,24-.08s29.93,2.53,29.93,2.53,33.71-7.29,37.4-10.21,6.43-11.85,6.43-11.85a34.76,34.76,0,0,1,8.15-3.56c7.53-2.83,8-12.94,8-12.94h-.07C875.69,517.25,876.49,516.38,876.81,516.38Z"/><path class="cls-22" d="M841.86,491.71a109.75,109.75,0,0,1-15.18-2.31,60.88,60.88,0,0,1-15.08-3.25,64.73,64.73,0,0,1,15.4,1.34A43.53,43.53,0,0,1,841.86,491.71Z"/><path class="cls-22" d="M828.59,513.25c0-.62,10.27-.65,22.64,1.18,6.19.86,11.8,1.79,15.84,2.41a31.22,31.22,0,0,1,6.56,1.22,19,19,0,0,1-6.73.11c-4.1-.26-9.73-1-15.92-1.82C838.61,514.52,828.58,513.7,828.59,513.25Z"/><path class="cls-22" d="M824,530.45c.14-.54,7.85,1.26,17.52,2.14s17.61.55,17.73.93a47.25,47.25,0,0,1-17.85.8A47.87,47.87,0,0,1,824,530.45Z"/><path class="cls-4" d="M687.33,248.38l28,17.12,15.72,6c1.37.95,16.7-9.07,18.83-10.22,6.59-3.56,15.21-8.25,21-13.05,6.19-5.13,13.94-8,20-15.09,4.48-5.19,7.13-9.13,10.22-20.37a15.54,15.54,0,0,1,4.56-7.34c4.75-4.49,9.31-10.4,15.52-16.51.49-.48,2.94-2.75,3.12-3.5,0,0,20.95-28.8,22.64-42.95s-3.08-24.32-9.54-31.5-30.38-21.09-30.38-21.09L778.32,64.17l-35.89-4.6L706.89,83.26l-23.35,39.39L665,159.37"/><path class="cls-28" d="M694.45,125.83c-1.8,3-7.86,20.18-9.44,23.27l-15-10.4c2.11-13.14,4.47-28.68,4.52-32.54.08-6,21.78-21.82,26.73-29.66l1.07-1.68c4.73-7.53,19.61-14.59,39.8-18.91C776.82,48.48,776,47.56,806.4,71c2.09,1.61,4.13,3.3,6,5,18.12,16.28,35.09,27.08,36.76,52.38,1.21,18.24,4.3-1.63-2.06,6.3,10.48-17,4.57-1.18,4.14-4.28-2.5-18.14-15.58-9.2-20-13.21a20,20,0,0,0-8.69-4.64c-5.61-2.14-9.89-5.88-14.54-10.06C804.55,99.4,796.3,90.78,795.59,90c-1.4-3.51,7.49-12.05,3.19-15.92-10-9-28.36-14.12-35.35-15.17-8.26-1.25-27.6-4.89-36.72,13.45"/><path class="cls-28" d="M730.49,265.9a1.59,1.59,0,0,1-.39-.54c-1.62-3.86-1.12-5.09-2.32-6.38a9.79,9.79,0,0,0-1.28-1.34c-3.71-3.31-5.92-5.39-21.54-5.76-.31,0-13.47-11.41-13.73-11.62l-5.08-8.45c-.73-1.6-12.92-43.55-12.92-43.55.1-1.06-1.22-10-.92-10.86-.06-.1-.11-.2-.18-.3l-.13-.19-.13.12a5.76,5.76,0,0,0-.68,1,19.36,19.36,0,0,0-2,4.63c-.73,2.49-1.76,4.85-2.57,7.29-.29.87-.54,1.74-.75,2.63,1.85,4.08,5.08,42.92,12.78,56.27a61.18,61.18,0,0,0,8.44,7.63c11.12,8.84,22.49,16.41,36.32,20.77A12.5,12.5,0,0,0,734,275.82c8.81-5.69,28.32-18.4,38.17-29.09-7.82,4.79-24.49,15.11-35.89,22.11-.35.21-5-2.52-5.43-2.66"/><path class="cls-4" d="M665.8,165.47c-20.28,3.8-9.12-18.23-9.12-18.23-1.53-16.06,5.93-27,11.33-34.21s13.54-1.54,13.54-1.54c6.45,5.52,7,11.39-3.23,38.88"/><path class="cls-28" d="M831.28,107.55c-11.32-7.75-36.15-35.5-51-46.72-6.17-4.65-38-2.82-43.19-1-11.84,4.11-9.71,32.88-38.16,52.12-9.4,6.35-4.39-12.32-12.75-9.62s-11.65,3.86-11.65,3.86c13.33-27.58,12.84-26.63,34.94-48s56.46-14.25,71-7.65,54.11,38.67,62,51.53"/><path class="cls-6" d="M675.63,141.84A72.79,72.79,0,0,0,676.79,128a22,22,0,0,0-1.13-7.07,5.25,5.25,0,0,0-1.33-2.25c-.75-.55-2.06.31-2.73.7-3.56,2.08-5.88,5.7-7.3,9.48-.16.43,1.24.26,1.42-.19a18.37,18.37,0,0,1,5.19-7.8,10.67,10.67,0,0,1,2.1-1.4c.17-.08.37-.14.53-.23s.2-.07.11-.05l-.75-.06a4.75,4.75,0,0,1,1.34,2.18c1.16,3.08,1.23,6.59,1.13,9.83A82.63,82.63,0,0,1,674.21,142c-.08.52,1.34.27,1.42-.19Z"/><path class="cls-6" d="M672.11,141.39c-4.41-3.32-6.61,5.09-8.4,7.43-.12.15-.4.57-.62.59.11,0,.12.1,0-.07a1.44,1.44,0,0,1-.08-.62,14.63,14.63,0,0,1,1.35-5,24,24,0,0,1,3.71-6.9c1.78-2.17,4.57-5.2,7.7-4.6.7.14,1.43-.86.49-1-3.13-.61-6,1.59-8,3.69a20.68,20.68,0,0,0-4.08,6,34.09,34.09,0,0,0-2.3,6.16c-.21.87-.69,2.54.13,3.25s2,0,2.52-.57a11.38,11.38,0,0,0,1.8-2.92,23.43,23.43,0,0,1,2.15-3.89c.76-1,1.44-1.44,2.52-.62.51.38,1.75-.33,1.09-.83Z"/><path class="cls-28" d="M750.48,159.64c-1.11-2.09-3.67-2.71-5.49-2.49a5.36,5.36,0,0,0-2.73,1.13,5.47,5.47,0,0,0-1.76,4.83,5.08,5.08,0,0,0,4.21,4.16,5.62,5.62,0,0,0,6-3.8,5,5,0,0,0-.22-3.83"/><path class="cls-28" d="M800,194.42c2.34.3,3.83,2.47,4.27,4.26a5.38,5.38,0,0,1-.1,2.95,5.5,5.5,0,0,1-3.9,3.36,5.1,5.1,0,0,1-5.38-2.48,5.6,5.6,0,0,1,1.45-6.94,5,5,0,0,1,3.66-1.15"/><path class="cls-28" d="M781.15,191s11.76-2.14,17.17.91c7.9,4.45,8.64,7.44,8.92,12.66,0,0-2.4-6.92-8-9.9C793.79,191.84,781.15,191,781.15,191Z"/><path class="cls-28" d="M758.28,172.55s-5.86-13.77-10.88-17.43c-7.32-5.35-19.24-7.09-24.11-5.18,0,0,16.18,1.63,21.24,5.53C749.36,159.2,758.28,172.55,758.28,172.55Z"/><path class="cls-28" d="M776.58,143.65c-.7,2-1.4,4.08-2.11,6.12-.54,1.56-1.66,5.15-2.2,6.69-4.46-3-8.21-6.46-11.18-8.11-5.91-3.26-11.81-7-18.51-8.23a22.42,22.42,0,0,0-9.23,0c-1,.22-3.87,1.63-4.88.67-.41-.4,1.25-2.63,1.42-2.86,3.38-4.5,8.4-5.14,14.06-4.55,11.55,1.2,22.22,5.15,32.63,10.26"/><path class="cls-28" d="M820.13,193.13s-1-3.7-1-3.73c-2.63-10.39-7.84-19.47-14.13-28.1l-5.7,3.08c-1.45.78-4.11,2.11-5.55,2.89,3.48,3.55,6.88,6.39,8.86,8.83,3.93,4.82,8.13,9.86,10.14,15.81.16.46,1,3,1.1,3.49C817.45,195.72,820.13,194.12,820.13,193.13Z"/><path class="cls-28" d="M721.81,231.78,741.62,244s-9.64,4.3-14.31,1.07C724.39,243.07,722.65,237.21,721.81,231.78Z"/><path class="cls-8" d="M755.26,216.19a10,10,0,0,1-7.36-5.82c-.28-.65-2.1-1.47-1.72-.57,1.63,3.85,6.28,7.32,10.14,7.75.38,0,.48-.21.21-.57a2.2,2.2,0,0,0-1.27-.79"/><path class="cls-8" d="M745.67,208.51a16.3,16.3,0,0,0-3.91-4.5,1.28,1.28,0,0,0-.89-.26c-.22,0-.37.18-.26.41a6.31,6.31,0,0,0,2.18,2.41,1.21,1.21,0,0,0,1,.24c.3-.13.13-.46-.09-.61a4.9,4.9,0,0,1-1.75-1.95l-1.16.14a14.41,14.41,0,0,1,3.48,4,1.22,1.22,0,0,0,.94.5c.25,0,.61-.1.43-.41"/><path class="cls-8" d="M739,204.22c-1.89-1.38-3.55-3.79-3.47-5.92.12-3.22,3.83-5.76,7.21-5.52.37,0,.37-.28.14-.52a1.88,1.88,0,0,0-1.17-.49,8.21,8.21,0,0,0-7.38,4c-1.06,2.16-.17,4.79,1.73,6.95a12.92,12.92,0,0,0,1.92,1.77c.29.21.87.48,1.17.34s.12-.42-.15-.61"/><path class="cls-8" d="M759.46,217.62a.31.31,0,0,1,.5-.2,2.7,2.7,0,0,0,1.83.53c0,.33.05.65.07,1a8.09,8.09,0,0,0-3.76-1,.63.63,0,0,1-.55-.52c0-.19,0-.53.26-.53"/><path class="cls-8" d="M757.81,216.9A9,9,0,0,1,762,218a.76.76,0,0,1,.35.59.34.34,0,0,1-.29.4"/><path class="cls-8" d="M763.26,220.64a4.76,4.76,0,0,0,5-.08,7.12,7.12,0,0,0,2.87-7.33.28.28,0,0,1,.38-.35.87.87,0,0,1,.51.67,7.94,7.94,0,0,1-1.67,6.76,5.49,5.49,0,0,1-5.56,1.9,5.3,5.3,0,0,1-1.59-.66.82.82,0,0,1-.41-.74c.07-.3.32-.28.5-.17"/><path class="cls-28" d="M834.21,116.34a8.55,8.55,0,0,0-2.58-3.36l-1-1.28q-5.73-3.9-11.69-7.45a9.92,9.92,0,0,0-3.13-1.4,2,2,0,0,0-.34,0c-2.79-2-5.6-4-8.45-5.86l-1.54-.52a9.53,9.53,0,0,0-4-1.26,1.35,1.35,0,0,0-1.12,2.27c.92,1.14,3.07,1.67,3.43,2.87s-2,1.27-2,2.49c0,.76.88,1.62,1.29,2.45.5,1,.27,1.93.68,2.92a4.84,4.84,0,0,0,2.76,2.41c1,.8,2.77,1.32,2.62,2.29a1.62,1.62,0,0,1-.39.65,2.58,2.58,0,0,0,.33,3.06,4.21,4.21,0,0,0,3.32,1.59c1.13-.07,2-.75,3.13-.74a9.17,9.17,0,0,1,1.13.14,3.37,3.37,0,0,0,.62,1.26,4.23,4.23,0,0,0,3.33,1.59c1.12-.07,2-.75,3.13-.74,1,0,2.12.5,2.87.1,1.2-.64.35-3,1.79-3.25s2.56,1.66,4,2A1.63,1.63,0,0,0,834.21,116.34Z"/><path class="cls-28" d="M705.76,254.8a7,7,0,0,0,2.3,2.54l.91,1q4.89,2.78,9.93,5.26a8.16,8.16,0,0,0,2.61.92h.28c2.38,1.44,4.77,2.84,7.2,4.18l1.28.32a7.56,7.56,0,0,0,3.3.75,1.08,1.08,0,0,0,.76-1.89c-.82-.87-2.59-1.15-3-2.1s1.54-1.16,1.5-2.14c0-.62-.82-1.25-1.21-1.9s-.34-1.53-.74-2.31a3.88,3.88,0,0,0-2.38-1.76c-.88-.58-2.32-.89-2.26-1.68a1.24,1.24,0,0,1,.27-.55,2.08,2.08,0,0,0-.46-2.45,3.46,3.46,0,0,0-2.79-1.07c-.91.13-1.55.73-2.48.8a5.77,5.77,0,0,1-.92,0,2.51,2.51,0,0,0-.58-1,3.42,3.42,0,0,0-2.79-1.07c-.9.13-1.54.73-2.47.8s-1.75-.27-2.33.11c-.92.59-.09,2.45-1.24,2.74s-2.17-1.18-3.36-1.37A1.31,1.31,0,0,0,705.76,254.8Z"/><path class="cls-29" d="M675,108.71a8.74,8.74,0,0,1-3-2.93,3,3,0,0,1,.68-3.79c1.86-1.21,5.19.5,6.19-1.49-.37-2.81-4.49-4.44-4-7.22.44-2.25,3.44-2.68,5.72-2.59-.45-1.86-.75-.63-2-2s.24-5.71,2-6.49c2-.88,1.74.7,2.26-1.4-1-1.18,2.41-.49,2-2a3.49,3.49,0,0,1,1.52-4c1.68-.79,2.16-1.88,3.13-3.46.83-1.35,3.6.09,3.49-1.49-.2-2.88,3.43-4.25,6.28-4.72-.61-1.39.83-.78.85-2.3a3.68,3.68,0,0,1,2.35-3.55,18.31,18.31,0,0,1,2.78-.11c3.81-.38,4.86-5.38,4.92-9.21a5.49,5.49,0,0,0,7.25-.69c.83-.95,1.33-2.2,2.34-2.95s2.89-.5,3,.75"/><path class="cls-28" d="M676.57,108.13c-1.2-.86-2.56-1.8-3.05-3.26a3.29,3.29,0,0,1-.07-1.94c.06-.17.52-.78.52-.88,0,.22-.8.14.1.15a14.05,14.05,0,0,0,3.55-.22c.9-.22,2.48-.68,2.86-1.67.65-1.71-2.52-4-3.31-5.24a2.67,2.67,0,0,1-.27-2.89c.58-1,1.63-.83,2.62-.8.45,0,3-.37,2.83-1.15A1.85,1.85,0,0,0,681.6,89c-.51-.31-1-.36-1.43-.91-.8-1.11-.23-2.91.28-4a13.87,13.87,0,0,1,1.06-1.62c.19.28-1.06,0-.78.16a2.19,2.19,0,0,0,1,0c1.07-.14,2.92-.73,2.74-2.19,0-.07-.09-.36-.17-.39.23.1-1.64.5-.87.48a2,2,0,0,0,.26-.06,6.59,6.59,0,0,0,1.93-.71c1.48-.84.52-2,.93-3.38.48-1.63,2.4-2.09,3.4-3.41a10.42,10.42,0,0,0,.63-1,3.1,3.1,0,0,0,.37-.61c.29-.87.56.52-.86,0a4.82,4.82,0,0,0,2-.15,4.17,4.17,0,0,0,2.29-1c.48-.55.21-1.32.46-2,.62-1.67,2.49-2.24,4.07-2.51.23,0,2.25-.51,2-1.09-.32-.86.25-.72.63-1.38s.24-1.83.68-2.67c.12-.23.28-.41.41-.63l.22-.23c-.26.1-.25.14.05.11a12.85,12.85,0,0,0,2-.07,9.07,9.07,0,0,0,2.91-.92c3.35-1.74,4-6,4-9.38l-3.33,1c2.3,1.67,5.48,1.36,8,.27a7.15,7.15,0,0,0,3.05-2.44c.23-.31.42-.64.64-1s.61-.6.68-.86c.35-.3.12-.29-.69.05a.93.93,0,0,1,.39.15c.18.31.4.37.49.77.16.72,3.61-.12,3.43-.91-.58-2.63-5.14-1.14-6.44,0s-1.63,2.51-2.82,3.41-2.54.06-3.47-.61c-.59-.43-3.31.16-3.33,1a15.68,15.68,0,0,1-1,5.6,5.72,5.72,0,0,1-1.42,2.22,2,2,0,0,1-.36.29c-.14.09-.09.08.17,0h-.44a7.65,7.65,0,0,0-2,0c-2,.26-4.12,1.22-4.81,3.29-.24.75-.08,1.62-.61,2.22s-.79.72-.49,1.53l2-1.08c-3,.52-8,1.78-8.32,5.49,0,.06,0,.54,0,.54-.27-.31,2-.27,1.46-.55a2.82,2.82,0,0,0-1.08,0,7.11,7.11,0,0,0-2.79.75c-1.63.87-1.93,3-3.62,3.9a4,4,0,0,0-2.16,4.26c.09.59,0,.69.49.46s-.33.05-.44.08a4.11,4.11,0,0,0-2,.9c-.34.39-.18.82-.18,1.29,0,.13-.12.23-.12.35,0,.4,2.41-.87,2.69-.75a2.85,2.85,0,0,0-1-.06,6.4,6.4,0,0,0-4.53,2A6.73,6.73,0,0,0,676.41,88a2.51,2.51,0,0,0,1.26,1.83c.79.45,1,.29,1.25,1.31L681.75,90c-2.57-.07-6.79.27-8.23,2.8s1.71,4.61,2.94,6.49a4.87,4.87,0,0,1,.47.87,4.6,4.6,0,0,1,.08.91c.76-.17.92-.24.49-.21l-.6,0-.9,0a8.72,8.72,0,0,0-4.64,1.14,3.25,3.25,0,0,0-1.32,3.68c.46,1.63,2,2.73,3.29,3.67.54.38,1.67,0,2.21-.21.2-.07,1.51-.61,1-1Z"/><path class="cls-30" d="M718.57,51.64c1.22-1.22,6.87-7.14,8.09-8.36a3.79,3.79,0,0,0,5.87,0c.66-.92,1.11-2.31,2.25-2.37s1.78,1.37,2.79,2c2.25,1.29,4.82-2.06,7.36-1.5,1.59.34,2.54,2.11,4.11,2.53,2.38.62,4.59-2.13,7-1.74,1.68.27,2.8,2,4.42,2.47,3.52,1.09,7.37-2.67,10.5-.72,1.14.72,1.7,2.16,2.9,2.79,2.14,1.11.48-2.93,2.67-1.93,2,.92,2.24,3.82,4,5.21,2.81,2.26,8.06-1.5,10.14,1.45.9,1.27.67,3.07,1.51,4.37,2,3,7.4.9,9.92,3.5,1.26,1.31,1.38,3.48,2.78,4.65,2.16,1.81,5.85,0,8.11,1.75,1.81,1.36,1.87,4.34,3.83,5.45,1.37.77-.95-2.78.49-2.13,2.44,1.11,2.54,4.65,4.45,6.54,1.61,1.58,4.12,1.67,6.25,2.39s3.89,6.92,2.74,8.86"/><path class="cls-28" d="M720.14,51.58c2.75-2.74,5.34-5.62,8.09-8.36l-3.17.68c1.67,2.08,5,1.84,7.13.78a6,6,0,0,0,2.55-2.51,5.89,5.89,0,0,0,.6-.84l-1.41.38a1.78,1.78,0,0,1,.48.33c.47.39.81.91,1.31,1.26,2.28,1.63,5.14,0,7.31-1,.61-.27.57-.29,1.18,0a9.51,9.51,0,0,1,1.55,1.21,5,5,0,0,0,3.49,1.24,11.05,11.05,0,0,0,4.15-1.26,4.7,4.7,0,0,1,1.27-.58c.66-.09,1.37.51,1.87.87A7.75,7.75,0,0,0,760,45.54a10.73,10.73,0,0,0,4.21-.41,22.07,22.07,0,0,1,3.53-1c1.52-.14,2.35,1,3.24,2a3.58,3.58,0,0,0,2.72,1.48c1,0,2.51-.42,3-1.45a4.45,4.45,0,0,0,.36-1.51l-2.14.67a1.72,1.72,0,0,1,.52.27,3.52,3.52,0,0,1,.62.6,10.1,10.1,0,0,1,1.14,1.93,6.53,6.53,0,0,0,1.91,2.55,6,6,0,0,0,3.51.79c1.81-.06,4.87-1.36,6.25.28.87,1.05.75,2.59,1.25,3.8a4.11,4.11,0,0,0,2.54,2.33c2.16.77,4.68.21,6.76,1.21,2.46,1.19,2.12,4.65,4.58,5.88s5.88-.37,7.81,1.68c1.45,1.54,1.65,4.92,4.15,5.32.92.15,3-.29,3-1.51a2.67,2.67,0,0,0-.23-.87c0-.16-.09-.33-.14-.48a1.5,1.5,0,0,1-.06-.29q-.1-1.53-2.64.85c.52.58,1.12.86,1.55,1.59a18.4,18.4,0,0,1,.88,1.85,8.16,8.16,0,0,0,2.38,3.47,12.67,12.67,0,0,0,4.44,1.61,3.69,3.69,0,0,1,2.89,2c1,1.79,2,4.87,1,6.81-.33.62,1.2.52,1.42.49a2.68,2.68,0,0,0,2-1c1.08-2,0-5.31-1-7.19A4.14,4.14,0,0,0,829,77.07c-1.75-.55-3.77-.64-5.26-1.8-2.31-1.79-2.15-6-5.17-7-.93-.33-3.19,0-3.5,1.14a2,2,0,0,0,.15,1,3.65,3.65,0,0,0,.2.64c.35.58-.57.42.67-.15l2.1-.46c.29,0-.11-.08-.19-.18s-.37-.33-.53-.52a6.21,6.21,0,0,1-.69-1.13A20.46,20.46,0,0,0,815.47,66c-1.26-1.78-3.33-2-5.35-2a7.38,7.38,0,0,1-3-.33,4.4,4.4,0,0,1-2-2.51c-.82-1.9-1.76-3.29-3.85-3.83-1.74-.46-3.57-.31-5.3-.74-2.41-.6-2.46-2.53-3.09-4.56-1.32-4.21-6-2-9.12-2.15-3.87-.18-3.21-6.79-7.67-6.09-1.49.24-2.53,1-2.67,2.51,0,.12-.09.24-.1.35l0,.07c.24.73,1,.49,2.17-.71-.24-.31-.75-.52-1-.83A8.26,8.26,0,0,0,772.07,43c-1.83-.88-4-.43-5.89.12-2.14.62-3.75,1.4-5.74,0s-3.45-2.13-5.81-1.56a15.51,15.51,0,0,0-3,1.16c-.93.45-1.23.64-2.16,0a14.74,14.74,0,0,0-2.72-1.93,5.7,5.7,0,0,0-3.49,0,17.46,17.46,0,0,0-3.17,1.3c-.86.41-1,.23-1.86-.58a3.48,3.48,0,0,0-2.77-1.37,4.93,4.93,0,0,0-3.29,1.38c-.55.58-1,2.18-1.79,2.41-.62.18-1.71-.67-2.14-1.21-.6-.75-2.67.17-3.18.68-2.75,2.74-5.35,5.62-8.1,8.36-.57.57.5.75.86.74a3.5,3.5,0,0,0,2.29-.86Z"/><path class="cls-31" d="M760.37,53.32c-13.79-2.71-20.8-1.69-33,5.39l77.27,18.15a66.79,66.79,0,0,0-12.8-10.11C779.74,59.69,774.17,56,760.37,53.32Z"/><path class="cls-28" d="M761.77,52.6c-6-1.17-12.12-2-18.2-1s-11.82,3.68-17.16,6.78c-.27.16-1.21.84-.39,1l26.09,6.13,41.6,9.77,9.58,2.26c.48.11,3.84-.52,3-1.33a78.72,78.72,0,0,0-8.63-7.38,108,108,0,0,0-9.38-5.76,91.7,91.7,0,0,0-15.51-7.6,80,80,0,0,0-11-2.91,3.74,3.74,0,0,0-2.41.4c-.28.15-1.2.87-.38,1a72.9,72.9,0,0,1,17.41,5.57c2.68,1.3,5.28,2.76,7.86,4.25,3,1.73,6.09,3.41,9,5.36a74.88,74.88,0,0,1,9.87,8.26l3-1.33L780,70l-41.6-9.78L728.81,58l-.38,1c4.54-2.63,9.32-5.11,14.55-6s10.77-.06,16,1a3.66,3.66,0,0,0,2.4-.4C761.66,53.48,762.58,52.76,761.77,52.6Z"/><path class="cls-31" d="M850.64,111.78c-.22-.34-.44-.67-.63-1-1-1.76-.71-4.75,1.3-4.89-3.84-.7-2.69-7.39-6-9.42a22.41,22.41,0,0,0-3.17-1.11A5.12,5.12,0,0,1,840,88a12.37,12.37,0,0,1-8.48-4.15l-26.86-7c8.5,8.28,16.15,18.26,24.82,25.42,4.17,3.44,8.33,7.09,11,11.76,2,3.41,5.21,6.64,7.21,10.19C848.74,120.08,849.73,115.94,850.64,111.78Z"/><path class="cls-28" d="M852.23,111.1a5.36,5.36,0,0,1-1-2.57,3.49,3.49,0,0,1,.09-1.16c0-.16.13-.33.16-.48.09-.47.67-.2-.38-.06a2.62,2.62,0,0,0,1.84-.91c.28-.5,0-.87-.55-1-1.54-.34-2.05-2.17-2.46-3.47a14.59,14.59,0,0,0-1.93-4.7c-1.43-1.85-3.93-1.45-5.52-2.93a4.66,4.66,0,0,1-.83-5.78c.45-.69-.38-1-.93-1A11.25,11.25,0,0,1,834,84a3.93,3.93,0,0,0-1.85-1.23l-5.38-1.4L810,77l-4.25-1.11c-.57-.15-3.64.63-2.64,1.61,6.11,6,11.58,12.56,17.56,18.66,2.93,3,6.05,5.69,9.23,8.41a43.54,43.54,0,0,1,8.3,8.85c1.26,1.9,2.45,3.8,3.85,5.61a53.32,53.32,0,0,1,4.15,5.85c.54.94,3.1,0,3.3-.89,1-4.15,2-8.29,2.87-12.45.28-1.3-3.17-.76-3.43.42-.91,4.16-1.89,8.31-2.87,12.45l3.31-.88c-2.05-3.56-5-6.5-7.1-10a40.16,40.16,0,0,0-7.89-9.16c-3.12-2.76-6.34-5.35-9.3-8.29s-5.87-6.14-8.73-9.27c-3.28-3.61-6.57-7.22-10.06-10.63l-2.64,1.61,26.17,6.83a3.13,3.13,0,0,1,.62.16c.27.16-.57-.41-.21,0a8.4,8.4,0,0,0,1.43,1.3A14.2,14.2,0,0,0,839.36,89l-.93-1a5.71,5.71,0,0,0,.05,6.26,5.31,5.31,0,0,0,2.68,2.1c1.24.45,2.57.54,3.47,1.59,2.33,2.71,1.35,7.95,5.63,8.88l1.28-1.89a4.06,4.06,0,0,0-3.69,2.88,5.84,5.84,0,0,0,1.19,4.65C849.67,113.42,853,112.3,852.23,111.1Z"/><path class="cls-32" d="M768.47,119.5s32.52,15.95,50,33.87"/><path class="cls-29" d="M760.23,258.15a36.18,36.18,0,0,1-8.71,6.11c.86,1-.65,2.43-2,2.65s-3,.32-3.47,1.58c-.16.44-.11.94-.28,1.38-.53,1.37-2.51,1.18-3.91.74.42,1.15-1.11,2-2.33,2.17s-2.77.29-3.12,1.46c-.17.58,0,1.26-.31,1.76-.69,1.05-2.43-.05-3.57.48-.66.31-.95,1.08-1.47,1.59a2.34,2.34,0,0,1-3.66-.87c-1.6,2-4.28,4.21-6.38,2.73-1.3-.91-1.77-3-3.34-3.23-1-.14-1.88.57-2.86.57-3.32,0-3.13-6.75-6.45-6.71-1.78,0-3.13,2.27-4.86,1.86s-1.84-2.72-3.16-3.76-4-.57-4.9-2.15a10.89,10.89,0,0,1-.56-2.3c-.53-1.73-2.66-1-4.41-1.43-3.14-.83-2.19-2.86-2.19-2.86.38-2.32-.73-2.82-3.08-2.94a5.22,5.22,0,0,1-2.31-.25c-1.66-.94-.75-4.09-2.46-5a6.23,6.23,0,0,0-2.08-.27c-2.53-.33-3.3-4.47-1.06-5.7a5.32,5.32,0,0,1-1.3-7.59,4.85,4.85,0,0,1-2.9-6.79c-3.16-1-4-5.93-1.33-7.87A3.81,3.81,0,0,1,669.5,218c.68-1,1.94-2,1.45-3.15-.33-.74-1.25-.95-1.92-1.39a3.06,3.06,0,0,1,0-4.92c-3.09-1-3.23-6.29-.2-7.46-2.4-.86-2.47-5-.1-5.9-2.83-1.9-2.37-7,.76-8.35L681.39,242l6.14,9.32s28.75,21.89,36.14,22.91S760.23,258.15,760.23,258.15Z"/><path class="cls-28" d="M758.68,258.26a35.15,35.15,0,0,1-8.16,5.74c-.11.06-.89.45-.72.72a1,1,0,0,1,0,1.25c-.34.48-.31.33-.9.43a10.09,10.09,0,0,0-3.1,1,2.69,2.69,0,0,0-1.54,1.93,3.74,3.74,0,0,0-.17.86l-.12.25.78-.2a13.83,13.83,0,0,0-1.47-.28c-.53-.15-3.33.25-3.12,1.14a.93.93,0,0,1-.36,1.09c.36-.26-.36,0-.57,0a10.49,10.49,0,0,0-2.45.62A3.88,3.88,0,0,0,735,274a2.08,2.08,0,0,0-.35,1c0,.3,0,.61-.08.92,1.54-.12,2-.2,1.34-.24a6.42,6.42,0,0,0-4.81.75,4.2,4.2,0,0,0-1.47,1.58c-.34.33-.07.27.8-.19a1.57,1.57,0,0,1-.55-.23,1.9,1.9,0,0,1-.75-.91c-.35-.84-2.89.1-3.27.57a12.72,12.72,0,0,1-1.6,1.68c-.81.69-1,.88-1.84.17s-1.34-2.17-2.44-2.82c-1.31-.76-3.12-.29-4.44.22-.35.13.14,0,.19,0s-.15,0-.17-.05-.37-.2-.48-.28a3.6,3.6,0,0,1-1-1.17c-.9-1.52-1.38-3.79-3-4.77a4.38,4.38,0,0,0-3.24-.24,8.46,8.46,0,0,0-2.23.89c-.27.15-.53.32-.79.49s-1.14.58-.32.4c.65-.15.1-.15-.22-.41a3.06,3.06,0,0,1-.58-.71c-.36-.57-.63-1.2-1-1.76a4.43,4.43,0,0,0-3-1.73,5.76,5.76,0,0,1-2-.58,2.64,2.64,0,0,1-1-2.09,2.34,2.34,0,0,0-2.38-2.21c-1.73-.2-4.86-.07-4.44-2.62a2.78,2.78,0,0,0-.35-2.45,4.29,4.29,0,0,0-2.94-1c-.89-.06-2,.22-2.63-.59a4.32,4.32,0,0,1-.6-1.79c-.26-1.27-.54-2.57-2-2.94-.79-.21-1.67,0-2.4-.36a2.57,2.57,0,0,1-1.09-1.34c-.44-1.07-.45-2.7.64-3.37.17-.11.62-.46.3-.67a5.14,5.14,0,0,1-1.22-7.3c.15-.2-.17-.35-.29-.38a4.59,4.59,0,0,1-2.6-6.4c.11-.22-.14-.33-.29-.39-2.89-1-3.53-5.46-1.18-7.3.28-.22.15-.49-.15-.57a3.56,3.56,0,0,1-2.52-3.44c0-1.74,1.62-2.49,2-4s-1.33-1.93-2.29-2.75-1.28-3.2,0-4.09c.34-.24.59-.56.08-.75-2.25-.84-3.11-5.44-.61-6.53.39-.17,1.09-.65.41-.93-1.58-.66-2.33-4.14-.5-5,.19-.09,1-.55.62-.85-2.18-1.58-2.64-6.17.13-7.51l-2.71.21,5.59,26,4,18.81,1.44,6.69c.24,1.13.39,2.34.74,3.45A17.73,17.73,0,0,0,682,246l2.62,4a14.54,14.54,0,0,0,1.31,2,20.37,20.37,0,0,0,2.74,2.05q3.4,2.55,6.87,5c5.82,4.17,11.73,8.3,17.91,11.92a42.08,42.08,0,0,0,7.14,3.56,11.36,11.36,0,0,0,6.51,0C733.68,273,740,269.73,746,266.7c5-2.53,9.93-5.22,14.79-8,.27-.15.54-.3.8-.46.6-.35.38-.72-.21-.79a4.2,4.2,0,0,0-2.43.65c-3.41,2-6.88,3.89-10.37,5.74a134.33,134.33,0,0,1-18.75,8.68,28.31,28.31,0,0,1-3.21.9,4.33,4.33,0,0,1-1.88.08,22.49,22.49,0,0,1-6.23-2.74A191,191,0,0,1,701,259.42c-2.51-1.77-5-3.58-7.48-5.4-1.37-1-2.7-2.13-4.12-3.07a1.78,1.78,0,0,1-.27-.21c.18.17,0-.08-.17-.25-.68-1.06-1.38-2.1-2.08-3.16l-2.62-4a5.85,5.85,0,0,1-1.65-4l-1.22-5.64-3.76-17.51-6.31-29.37-.12-.55c-.16-.75-2.37,0-2.71.21-3.44,1.65-4.79,6.72-1.37,9.2l.62-.85c-2.84,1.29-3.51,5.5-.32,6.83l.41-.93A4.6,4.6,0,0,0,665,205a4.17,4.17,0,0,0,2.7,4.15l.09-.75a3.53,3.53,0,0,0-1.47,4.11,3.18,3.18,0,0,0,1.53,1.7c.85.47,1.83.88,1.4,2.05-.32.84-1.14,1.43-1.56,2.22a3.9,3.9,0,0,0-.36,2.28,4.14,4.14,0,0,0,3.1,3.44l-.15-.56a5,5,0,0,0,1.48,8.43l-.29-.38a5.12,5.12,0,0,0,3.18,7.17l-.29-.39a5.61,5.61,0,0,0,1.38,7.9l.3-.67a3.63,3.63,0,0,0-.53,5.76,3.17,3.17,0,0,0,1.51.69c.94.17,2-.14,2.53.83s.41,2.49,1.08,3.57c1.37,2.2,6.54-.26,6,3.39a3.3,3.3,0,0,0-.08,1.68c.45,1.24,2,1.74,3.16,1.92,1.4.22,3.18-.3,3.57,1.47a4.93,4.93,0,0,0,.68,2.23,3.3,3.3,0,0,0,1.74,1c1.54.45,2.91.44,3.84,1.93.64,1,1.07,2.36,2.32,2.81a6,6,0,0,0,4.55-.79c.26-.14,1.76-.86,1.84-1.13-.06.21-.8,0-.71.2,0,.05.22.06.28.11s.38.25.54.4c1.58,1.48,1.68,4,3.33,5.46,1.11,1,2.69.8,4,.45.27-.07.54-.16.81-.25.55-.18.2,0,.06,0a3.57,3.57,0,0,1,.91.73c.54.62.9,1.38,1.48,2,1.38,1.39,3.55,1.11,5.23.52a10.94,10.94,0,0,0,4.77-3.57l-3.27.58c.87,2,3.52,1.91,5.29,1.26a4.84,4.84,0,0,0,2.28-1.76c.86-1.11-.67,0-.66-.09s.74.08.78.09a6.15,6.15,0,0,0,1.66-.05,4,4,0,0,0,2.77-1.4,5,5,0,0,0,.3-1.76c.08-.49.11-.38.7-.46,1.56-.2,5.31-1.06,4.77-3.34l-3.12,1.14a7.85,7.85,0,0,0,4.53,0,4.66,4.66,0,0,0,2.06-1.11,3.69,3.69,0,0,0,.66-1.85c.19-.75.51-.63,1.2-.74a8.87,8.87,0,0,0,2.53-.79c1-.53,2.62-1.74,1.78-3l-.72.71a39.57,39.57,0,0,0,9.28-6.48c.57-.54-.51-.61-.82-.6A3.86,3.86,0,0,0,758.68,258.26Z"/><path class="cls-33" d="M693.87,128c4.88-1.1,4.66-9.14,9.2-11.22a31.69,31.69,0,0,0,3.27-1.18c2.8-1.66,2.5-6.19,5.15-8.09,1.18-.86,2.78-1,3.9-2,2.12-1.82,1.42-5.42,3.14-7.63,1.92-2.48,6.49-2.74,7-5.83.25-1.51-.71-3-.37-4.54.58-2.61,4.74-3.91,4.09-6.5-.22-.89-1-1.6-1.1-2.52-.14-1.86,2.39-2.44,3.91-3.52s2.2-3.12,3.4-4.63,3.83-2.34,4.9-.73c.72-3.11,6.62-9.1,9.12-7.12,1.23,1,2.54,2.68,4,2,1-.5,1.15-2,2.09-2.56,2.41-1.53,4.13,4,7,3.79a13.44,13.44,0,0,0,2.16-.81c1.69-.48,3.39.71,4.56,2s2.22,2.86,3.85,3.5,4-.38,3.83-2.12a13.65,13.65,0,0,0,3.68,4.92c1.67,1.21,4.19,1.52,5.72.13-1.07,2.74,2.1,6,4.89,5.09,1.11-.38,2.26-1.27,3.32-.77a2.6,2.6,0,0,1,1,1.15c1.15,2,.17,8.87,0,11.21l6-11.35L773.9,55.52l-34.27-.61-29,25.76L693.87,130.8"/><path class="cls-28" d="M694,128.49a8.17,8.17,0,0,0,5.37-4.2c1.13-2.05,1.83-4.46,3.39-6.25,1-1.13,2.12-1.26,3.47-1.76a6.36,6.36,0,0,0,3.26-2.44c1.43-2.18,1.55-5.66,4.21-6.8,1.38-.59,2.84-1.05,3.82-2.27a9.11,9.11,0,0,0,1.42-3.86,6.84,6.84,0,0,1,1.7-3.76,14.48,14.48,0,0,1,3.22-1.91,8,8,0,0,0,2.75-2.07c.93-1.24.66-2.62.38-4a4,4,0,0,1,1.19-4,15,15,0,0,0,2.42-2.55c.94-1.51,0-2.43-.56-3.85-.69-1.79,1.16-2.45,2.42-3.14a8.57,8.57,0,0,0,3.33-3.37,15.05,15.05,0,0,1,1.37-2.15c.16-.18.36-.32.52-.49.38-.41.21,0-.1-.13.45.22.72.21,1.07.66s3.22,0,3.41-.78a9.55,9.55,0,0,1,2-3.55A15,15,0,0,1,745.81,64a20.1,20.1,0,0,0,1.79-1.27s-.39,0-.35,0,.55.24.62.29A24.56,24.56,0,0,0,750.2,65a5.07,5.07,0,0,0,5.25-1,5,5,0,0,0,.67-.91,8.63,8.63,0,0,0,.72-1.11c0,.55-2-.22-1.48.4a3.79,3.79,0,0,0,.34.18,4,4,0,0,1,.77.6,17.56,17.56,0,0,0,2.94,2.78c1.49.84,3.32.41,4.8-.21a3.85,3.85,0,0,1,.71-.33c-.5,0,.43.36.41.35a6,6,0,0,1,1.38.9,26.56,26.56,0,0,1,2.38,2.59,5.41,5.41,0,0,0,5.4,1.91c1.71-.33,4.17-1.2,4.13-3.29l-3.43.92c1.24,2.33,2.67,4.9,5.32,5.82a8,8,0,0,0,7.34-1.38l-3.24.46a4.31,4.31,0,0,0,2.3,5.12,5.49,5.49,0,0,0,3.34.4,10.19,10.19,0,0,0,1.89-.53,6.6,6.6,0,0,1,1.14-.5c-.19,0,.4.87.46,1,.94,1.53.69,3.8.61,5.5-.09,2-.35,3.92-.47,5.88,0,.62,3.12-.24,3.4-.77l6-11.35a.17.17,0,0,0-.07-.26L776.54,55.8a5.9,5.9,0,0,0-1-.85,4.13,4.13,0,0,0-1.49-.12l-8-.14-21.77-.39c-1.92,0-4.58-.46-6.2.76C737,55.9,736,57,734.9,57.89L718.55,72.42l-7.08,6.29A12.53,12.53,0,0,0,708.93,81a20.84,20.84,0,0,0-1.27,3.79l-2.78,8.32L692.46,130.3l-.27.82c-.19.56,3.09.22,3.37-.63L700,117.18l8.13-24.35,3.08-9.2.85-2.52c.08-.24.38-.93.14-.62a11.06,11.06,0,0,1,1.45-1.29l3.08-2.74,9.19-8.16c5-4.42,10.13-8.7,15-13.3l.28-.25-2.67.82,15.89.29,11.35.2c2.23,0,4.52.26,6.75.12.64,0-.29.07-.21-.08,0,0,.31.26.32.27.62.62,1.36,1.14,2,1.7l7.42,6.21L798.33,77.9a15.44,15.44,0,0,1,1.58,1.33c.13.14,0-.34,0-.18a2.15,2.15,0,0,1-.19.37,17.46,17.46,0,0,0-1,2l-4.73,9,3.41-.78c.11-1.85.35-3.7.45-5.56.1-1.71.34-3.88-.41-5.5a2.6,2.6,0,0,0-2.44-1.65,6.79,6.79,0,0,0-2,.32,17.07,17.07,0,0,1-2,.77c.35,0-.44-.16-.52-.19a3.17,3.17,0,0,1-.55-.28,4.42,4.42,0,0,1-1.36-1.26A3.57,3.57,0,0,1,788,73c.28-.83-2.93.22-3.24.47s-.39.32.18.1h-.32c-.36-.14-.81-.13-1.19-.28a5.79,5.79,0,0,1-2-1.28,15.57,15.57,0,0,1-2.84-4.19c-.37-.69-3.45.14-3.43.92a2.36,2.36,0,0,1-.39,1.16c-.28.63-.07-.2.25,0-.16-.1-.51-.14-.7-.23a7.94,7.94,0,0,1-2.47-2.14c-1.34-1.55-2.74-3.23-4.94-3.4a7.63,7.63,0,0,0-3.23.53c-.24.1-.51.2-.75.32-.82.44.3-.27.44,0,0,0-.78-.3-.85-.34a23.46,23.46,0,0,1-2.93-2.8,3.69,3.69,0,0,0-3.75-.69,5.08,5.08,0,0,0-2.12,1,4,4,0,0,0-.7.88c-.11.18-.2.37-.31.55a4.25,4.25,0,0,1-.25.39c-.33.43,0,.37,1.1-.2-.08-.19-.93-.61-1.13-.77-.37-.31-.71-.66-1.08-1a2.77,2.77,0,0,0-1.48-.68,8.42,8.42,0,0,0-4.81,1.17c-2.65,1.42-5.63,4.29-6.41,7.29l3.4-.77c-1.74-2.26-6-.7-7.73.89-1.2,1.11-1.75,2.71-2.72,4s-2.42,1.69-3.69,2.56c-1,.71-1.85,1.71-1.33,3s1.5,2.23.54,3.67a27.45,27.45,0,0,1-2.6,2.69,4.27,4.27,0,0,0-1,4c.31,1.59.54,3.07-.81,4.22a19.32,19.32,0,0,1-3.32,1.88,7.67,7.67,0,0,0-2.86,2.47,14.21,14.21,0,0,0-1.3,4.21,4.37,4.37,0,0,1-2.73,3.51,8.12,8.12,0,0,0-3.7,2.42c-1.49,2-1.67,6.07-4.24,7-1.64.59-3.25,1-4.55,2.2a11.47,11.47,0,0,0-2.24,3.23c-.65,1.28-1.18,2.62-1.89,3.86-.45.8-1.21,2.24-2.18,2.48-.29.08-1.72.46-1.58,1s1.62.08,1.84,0Z"/><path class="cls-29" d="M681.18,147.47l2.4,1.89a1.51,1.51,0,0,0,.84.41c.79,0,1-1.06,1.24-1.81.53-1.76,2.32-2.75,3.86-3.75s3.11-2.54,2.83-4.36c-.15-.95-.81-1.93-.4-2.81.55-1.14,2.22-.87,3.43-1.22a3.06,3.06,0,0,0,1.34-4.76s3.16-.89,5-5.37,3.38-9.57,3.38-9.57l-3.93-7.18Z"/><path class="cls-28" d="M679.57,148.08c1.19.94,2.51,2.49,4.13,2.46a3.54,3.54,0,0,0,3.48-2.26,6,6,0,0,1,2.79-3.39,11.19,11.19,0,0,0,3.39-2.88c1-1.42.68-2.5.3-4a4,4,0,0,1,0-1.2c-.48.09-.51.1-.08,0l.47,0a10,10,0,0,0,2.22-.53c2.3-.92,3.82-3.6,2.07-5.76l-1.44,1.23a9.89,9.89,0,0,0,5.3-4,24.64,24.64,0,0,0,2.53-5.58q.91-2.5,1.71-5a3,3,0,0,0,.33-1.55,10.63,10.63,0,0,0-1.2-2.19l-2.66-4.86c-.51-.93-3,0-3.41.74l-6.78,13L682,143l-2.48,4.79c-.32.61,1.19.48,1.4.45a2.83,2.83,0,0,0,2-1l6.77-13.06,10.75-20.69,2.48-4.79-3.41.74,2.32,4.23,1.27,2.33a3,3,0,0,1,.32.58c0-.17,0,0-.11.32-1,3.06-2,6.14-3.23,9.11a9.85,9.85,0,0,1-2.75,3.89,5.11,5.11,0,0,1-1,.63c-.3.16.24,0,0,0s-.17.05.24-.07c-.33.1-1.95.61-1.44,1.23a2.71,2.71,0,0,1,.36,2.66,2.62,2.62,0,0,1-.68,1c.34-.32.24-.08-.17-.06-.25,0-.51.06-.76.1a6.06,6.06,0,0,0-3,1.21,2.29,2.29,0,0,0-.5,2.64,3.27,3.27,0,0,1-.39,3.33,11,11,0,0,1-2.78,2.2,9.68,9.68,0,0,0-2.46,2.09,4.89,4.89,0,0,0-.74,1.39c-.07.19-.11.4-.18.6-.32.92-.47.43.94.2h1.1c-1.06-.22-2.19-1.52-3-2.19S678.92,147.58,679.57,148.08Z"/><path class="cls-33" d="M842.44,113.4c-.89.62-.16,2,.69,2.68s1.92,1.59,1.51,2.59c-.26.62-1,.92-1.26,1.53-.78,1.88,3.41,2.5,3.39,4.53,0,1.53-2.51,2.43-2,3.88.22.69,1,1,1.6,1.41a3.09,3.09,0,0,1,1.08,3.35c-.29.89-1,1.67-1,2.61,0,1.13,1.06,1.94,1.68,2.88,1.64,2.49.29,5.81-1.24,8.36s-3.31,5.46-2.42,8.3c2.72-.41,1.8-3.16,1.54-5.9a16,16,0,0,1-.28-2.47,1.85,1.85,0,0,1,1.39-1.83c.4,0,.85.09,1.2-.12,1-.59-.53-1.86-.94-3-.52-1.37,1.06-2.58,2.43-3.1s3.08-1.26,3.1-2.73c0-1.29-1.4-2.27-1.4-3.56,0-1.47,1.71-2.33,2.18-3.72.62-1.85-1.11-3.58-2.66-4.76a3,3,0,0,0,1.33-4.63c-.49-.59-1.26-1-1.35-1.81-.14-1.13,1.35-2.08,1-3.17-.29-.92-1.65-1.1-2-2-.58-1.41,1.82-2.4,2-3.92.18-2-3.57-3.53-2.33-5.13"/><path class="cls-28" d="M841.06,113.12c-1.4,1.33-.46,2.8.76,3.86.7.61,1.55,1.3.82,2.18-.5.58-1.1,1-1.07,1.89.08,2.09,4.87,2.74,3,5-.77.92-2.08,1.94-1.39,3.28.34.67,1,.91,1.57,1.33a2.67,2.67,0,0,1,1.07,2.59,22.19,22.19,0,0,1-1,2.26,2.8,2.8,0,0,0,.44,2.36,16.17,16.17,0,0,1,1.5,2.11,5.16,5.16,0,0,1,.24,3.06c-.87,4.49-5.59,8-4.27,12.93.15.53,1.07.57,1.48.49a4.67,4.67,0,0,0,3.5-2,5.93,5.93,0,0,0,.23-3.44c-.1-.76-.18-1.52-.28-2.27-.06-.42-.16-.82-.21-1.24a3.65,3.65,0,0,1,0-.74,5.27,5.27,0,0,0,.19-.62l.08-.16-.87.29a1.91,1.91,0,0,0,.63,0,4.47,4.47,0,0,0,1.29-.29c.64-.24,1.44-.7,1.58-1.45.24-1.31-1.62-2.13-1.32-3.42s2.66-1.68,3.63-2.29,2.16-1.77,1.93-3.18-1.79-2.36-1.22-3.75,2.17-2.13,2.15-3.91-1.57-3.24-2.91-4.28l-.91,1.38c2.13-.82,3.84-3.32,2.56-5.55a16.92,16.92,0,0,0-1.25-1.42c-.48-.65-.19-1.13.17-1.75.58-1,.93-2-.07-2.94s-2-1.09-1-2.33c.67-.81,1.52-1.56,1.55-2.69a3.8,3.8,0,0,0-1.24-2.46c-.42-.47-1.69-1.46-1.21-2.18s-.39-1-.93-1a2.79,2.79,0,0,0-2.27.94c-1.19,1.82,1,3,1.87,4.4,1.26,2-2.15,2.89-1.68,4.91.27,1.16,1.77,1.24,2.08,2.22s-1,1.92-1,2.89c0,1.3,1.34,1.73,1.78,2.81.32.78.21,2.39-.72,2.75-.33.13-1.54.89-.91,1.37a7.3,7.3,0,0,1,2.44,2.71c.49,1.2-.09,2-.85,2.93a3.87,3.87,0,0,0-1.24,2.63c.06,1.09.91,1.8,1.25,2.79.38,1.15-.33,1.69-1.3,2.1a10.23,10.23,0,0,0-3,1.65,2.92,2.92,0,0,0-1.18,2.54c.05.3,1.39,2.51,1.37,2.53l1.15-.57c.25-.08-.44,0-.53,0a4.7,4.7,0,0,0-1,.18,4.19,4.19,0,0,0-1.64.9,3.52,3.52,0,0,0-.88,3.2c.17,1.21.36,2.41.49,3.62a7.14,7.14,0,0,1,.07,1.53c0,.21-.11.42-.12.62s-.47.3.19.17l1.48.49c-1.12-4.18,2.76-7.6,4-11.31a6.54,6.54,0,0,0-.11-5,17.14,17.14,0,0,0-1.38-1.91,2.22,2.22,0,0,1,0-2.6,3.84,3.84,0,0,0-.23-4.4c-.48-.59-1.33-.8-1.78-1.37s0-1.09.4-1.57c.8-.89,1.82-1.91,1.32-3.22-.4-1-1.53-1.58-2.37-2.2-.37-.27-1-.68-1-1.22.08-.71,1.19-1.16,1.37-1.95a2.48,2.48,0,0,0-.95-2.27c-.3-.28-2.27-1.73-1.63-2.34s.37-1-.32-1.21a3,3,0,0,0-2.43.65Z"/><path class="cls-34" d="M723.2,140l-1.74,6.88c-1.73,5.11-2.91,16.5-2.92,19.86,0,4.72,22.85,21.51,29.22,21.89s17.6-11.2,20.84-13.47l9.13,6.73c-1.75,4.53-7,19.09-6.29,22s11.75,9.69,13,10.46c1.05.63,2.5,1.5,4.13,2.39,4.29,2.4,9.71,5,12.21,4.5,3.71-.72,11.69-7.54,19-14.13l1.16-1c.27-.25.51-.4.57-.48h0l1.32-1.19c-9.49-15.33-28.06-26-44-25.29v.2l-8.88-6.6c-6-13.65-21.63-29.18-37.72-32.72h0l-42.55-13.61-2.38,3.4Zm50.19,63.3c-.43-1.79,3-12.17,5.83-20.1,13.74-.43,30.46,9.22,39.38,22.23l-.12.17c-3.93,3.53-14.38,12.93-18,13.64-4.32.83-26.18-13-27.08-15.9ZM722,167.68c-.48-7.58,1.67-17.73,4.15-25.93,14.81,2.4,33.94,19.15,39.94,32.29-5.24,4.49-13.6,12.86-18.17,12.57-6.57-.4-25.94-16-25.92-18.93Z"/><path class="cls-35" d="M773.74,203.32c-.43-1.8,3-12.18,5.83-20.11,13.74-.43,30.46,9.22,39.38,22.23l-.12.17c-3.93,3.53-14.39,12.93-18,13.64-4.31.83-26.17-13-27.08-15.9Z"/><path class="cls-35" d="M722,167.68c-.43-8.21,1.67-17.73,4.15-25.93,14.81,2.4,33.94,19.15,39.94,32.29-5.24,4.49-13.6,12.86-18.17,12.57-6.57-.4-25.94-16-25.92-18.93Z"/><path class="cls-22" d="M658.48,165.55a13.2,13.2,0,0,0,9-.19s-8.12,6.19-12.74,3.33Z"/><path class="cls-32" d="M784.68,146.06s4.85,13-7.83,11.05C776.85,157.11,784.23,155.85,784.68,146.06Z"/><path class="cls-32" d="M789.33,164.74c-5.5-11.57,8.31-10.68,8.31-10.68s-5.71,3-6.58,5.33S789.33,164.74,789.33,164.74Z"/><path class="cls-36" d="M744.39,224.33c-7-4.73-25.31-11.11-30.17-10.64,0,0,4.52,10.65,20.86,21.62s22.56,7.53,22.56,7.53S753.36,230.35,744.39,224.33Z"/><path class="cls-37" d="M722.78,215.3s8.81,5,15.49,9.48,14.64,10.74,14.64,10.74,4.23-4-7.89-12.12S722.78,215.3,722.78,215.3Z"/><path class="cls-38" d="M736.48,233.24c-7-6.17-13-14.08-22.26-19.55,0,0-4,11.33,15.24,24.22s28.18,4.93,28.18,4.93C749.07,236.33,744.82,237.34,736.48,233.24Z"/><path class="cls-38" d="M755.15,226.35c-3.84-3-7.37-3.27-9.12-4.45s-3.35-4.33-7.57-6.76c-4-2.27-25.78-4.29-24.75-2s17.71,4.26,29.85,12.41,12.2,17.46,14.75,17.54S758.75,229.15,755.15,226.35Z"/><path class="cls-28" d="M716.32,204.25c-1.83.24-3.84.57-5,2a6.77,6.77,0,0,0-.92,1.77l-1.17,2.87a1.24,1.24,0,0,0-.12.6,1.16,1.16,0,0,0,.34.57,4.76,4.76,0,0,0,1.63,1.37,1.67,1.67,0,0,0,2-.37c.18-.23.28-.54.53-.69.49-.31,1.07.16,1.6.35,1.36.49,2.6-.84,3.84-1.57a7.33,7.33,0,0,1,5.67-.43,15.18,15.18,0,0,0,2.87.69,2.81,2.81,0,0,0,2.59-1.11"/><path class="cls-28" d="M767.73,238.34c.45,1.78.87,3.78-.06,5.37a7,7,0,0,1-1.32,1.5l-2.25,2.13a1.24,1.24,0,0,1-.51.34,1.15,1.15,0,0,1-.65-.11,4.94,4.94,0,0,1-1.87-1,1.69,1.69,0,0,1-.38-2c.16-.26.41-.46.46-.75.11-.56-.54-.93-.92-1.36-.94-1.09-.16-2.73.07-4.15a7.38,7.38,0,0,0-1.66-5.44,14.39,14.39,0,0,1-1.69-2.42,2.81,2.81,0,0,1,.09-2.81"/><path class="cls-28" d="M719.3,203.35c1.16-.41,2.58,1.3,3.8,1.37a5.07,5.07,0,0,0,2-.35c.63-.23,1-.66,1.55-.19.93.72,1,2.06,2.15,2.61s2.14.05,3.2.32.91,1.87,2,2.34c1.21.53,2.52.16,3.74-.06,1.5-.27,1.74,1.3,2.77,2.08a3.84,3.84,0,0,0,3.8.14c.38-.15,1.41-.61,1-1.15s-1.81-.07-2.24.1l.67-.34-.27-.23a8.61,8.61,0,0,0-.55-.68,4.53,4.53,0,0,0-1-1.16,4,4,0,0,0-2.9-.45c-1.33.2-2,.83-2.71-.59a2.24,2.24,0,0,0-1.79-1.56c-.82-.15-1.83.18-2.6-.11s-1.14-1.64-1.76-2.29a3.42,3.42,0,0,0-2.66-.86,7.53,7.53,0,0,0-1.82.3c-.56.16-1.09.53-1.64.66l1.26-.13c-.59,0-1.09-.57-1.61-.83a5.32,5.32,0,0,0-1.74-.53,8.43,8.43,0,0,0-3.88.54c-.38.13-1.4.62-1,1.15s1.79.05,2.23-.1Z"/><path class="cls-28" d="M753.75,221c-.17,0,0,.05.06.11s.22.26.32.41a10,10,0,0,1,.56,1.08,5.14,5.14,0,0,0,1.77,2.29c.34.21.85.32,1.1.63s.15,1.12.37,1.6c.5,1.1,1.77,1.39,2.86,1.52.32,0,1,0,1.21.22s0,1,0,1.33a2.83,2.83,0,0,0,1.57,2.68,8,8,0,0,1,1.46.82c.51.47.28.73.12,1.3a1.67,1.67,0,0,0,.26,1.54,5.79,5.79,0,0,0,.51.48,1.22,1.22,0,0,1,.17.15c.15.23.19.15.1-.24-.76,1.72,2.69,1.6,3.26.3a1.3,1.3,0,0,0-.21-1.52c-.16-.19-.41-.3-.55-.5s-.11-.12-.09-.43.2-.5.24-.75a2.07,2.07,0,0,0-.12-1,3.28,3.28,0,0,0-1.45-1.52,9.81,9.81,0,0,1-1.42-.78c-.46-.4-.38-.89-.35-1.45a2.39,2.39,0,0,0-2.15-2.84c-.52-.09-1.07-.07-1.59-.18s-.53-.29-.6-.82a2.37,2.37,0,0,0-.92-1.81c-.4-.3-.91-.44-1.3-.76a7.16,7.16,0,0,1-1.39-2.34,3.39,3.39,0,0,0-2.59-1.87,2.31,2.31,0,0,0-2.24,1c-.38.8.35,1.2,1,1.32Z"/><path class="cls-28" d="M745.3,215.32l-3.45,3.4a1.77,1.77,0,0,1-2,.31c-4.56-2.3-21.88-11.09-25.62-13.75-.09-.06-.75,1.8-.82,1.72l-.85-.67c-1.21-1.25,3.08-5.28,4.78-4.87a94.51,94.51,0,0,1,12.21,3.67c3.28,1.29,12.17,5.12,15.55,7.52A1.74,1.74,0,0,1,745.3,215.32Z"/><path class="cls-28" d="M749.92,219.14l-2.38,3.7a1.72,1.72,0,0,0,.35,1.94c3.46,3.28,14.78,14.05,18.3,16.44a1.65,1.65,0,0,0,.26.14l1.28.54c1.49.63,2.77-2.8,1.88-4.2a76.15,76.15,0,0,0-6.21-8.84c-2.17-2.5-7.88-8.39-11.06-10.56A1.65,1.65,0,0,0,749.92,219.14Z"/><path class="cls-19" d="M545.57,466.11a26.93,26.93,0,0,1,6.22-4.29,72.69,72.69,0,0,1,34.86-9.55,27.43,27.43,0,0,1,7.51.56,64.17,64.17,0,0,1-7.47.49A91.6,91.6,0,0,0,569,456.25a94.43,94.43,0,0,0-16.73,6.43A71.31,71.31,0,0,1,545.57,466.11Z"/><path class="cls-19" d="M565.52,447.4a40.44,40.44,0,0,1,29.12,4.65c-.19.4-6.33-2.37-14.39-3.61S565.55,447.84,565.52,447.4Z"/></g></svg>