<svg xmlns="http://www.w3.org/2000/svg" viewBox="0 0 1221.96 991.43"><defs><style>.cls-1{fill:#f2ebd1;}.cls-2{fill:#308c43;}.cls-3{fill:#3ba448;}.cls-4{fill:#8e8e8e;}.cls-5{fill:#a3a2a0;}.cls-6{fill:#9ddaea;opacity:0.2;}.cls-7{fill:#e0d6b8;}.cls-8{fill:#956243;}.cls-9{fill:#ccb631;}.cls-10{fill:#5e5f5f;}.cls-11{fill:#853324;}.cls-12{fill:#ec9a6f;}.cls-13{fill:#5c5c5c;}.cls-14,.cls-26{fill:#a99231;}.cls-14{stroke:#a99231;}.cls-14,.cls-19,.cls-29,.cls-30{stroke-miterlimit:10;}.cls-15{fill:#684032;}.cls-16{fill:#010101;}.cls-17{fill:#13110f;}.cls-18{fill:#878787;}.cls-19,.cls-29{fill:none;}.cls-19{stroke:#010101;stroke-width:0.72px;}.cls-20{fill:#273339;}.cls-21{fill:#fff;opacity:0.14;}.cls-22{fill:#622515;}.cls-23{fill:#684133;}.cls-24{fill:#31160e;}.cls-25{fill:#f1eef7;}.cls-27{fill:#606161;}.cls-28{fill:#825639;}.cls-29,.cls-30{stroke:#161311;}.cls-29{stroke-width:0.89px;}.cls-30{fill:#151210;stroke-width:0.37px;}.cls-31{fill:#151312;}.cls-32{fill:#946343;}.cls-33{fill:#221f20;}.cls-34{fill:#cc8d2a;}.cls-35{fill:#653c2b;}.cls-36{fill:#311811;}.cls-37{fill:#f0ecf6;}.cls-38{fill:#a56129;}.cls-39{fill:#e89843;}.cls-40{fill:#162c33;}.cls-41{fill:#b6bc80;}.cls-42{fill:#8a8c5a;}.cls-43{fill:#7c2a17;}.cls-44{fill:#070707;}.cls-45{fill:#2a5059;}.cls-46{fill:#231f20;}.cls-47{fill:#ce8d2a;}</style></defs><g id="Layer_1" data-name="Layer 1"><rect class="cls-1" width="1221.96" height="991.43"/><rect class="cls-2" y="838.18" width="1221.96" height="153.26"/><path class="cls-2" d="M145.57,819.49c-6.26,2.12-10.19,4.86-14.4,7.52a3.94,3.94,0,0,1-3.25,1c-2.48-.27-1.79-1.22-1.41-1.81,2.88-4.48,4.62-9.11,9.92-13.3,1.06-.84,3.17-1.69,1.11-3.2-14.16,4.81-21.81,11.38-30.58,17.7,0-3.57.22-7-1.48-10.42-3.49,2.71-2.34,5.88-6.52,9.13.12-6.81.28-12.95,1.62-19.09L98.33,807l-8.89,15.63c-3-5.17-2.87-10-8.8-14.26.55,5,1.88,9.89-2.56,15.55a43.9,43.9,0,0,0-15.54-14.46c3,7.79,6.07,15.5,4.81,23.46L56.25,819.7c-1.43,4.47.07,8.91-2.7,13.57A6.91,6.91,0,0,1,52.18,832a159.22,159.22,0,0,1,1.73,20.91,1.72,1.72,0,0,1-3.4.33c-.13.41-.27.81-.39,1.22.07,1.79.14,3.59.24,5.38.4,7.71,1,15.41,1.55,23.11h59.14A462.77,462.77,0,0,1,135.32,842l.76-1.14A44.78,44.78,0,0,1,140,833.5c.6-.91,1.22-1.8,1.87-2.69-.47.34-1,.67-1.45,1C139.39,827.12,143.33,823.39,145.57,819.49Z"/><path class="cls-2" d="M90.26,807.82c-6.26,2.12-10.19,4.86-14.4,7.52a4,4,0,0,1-3.25,1c-2.49-.26-1.79-1.22-1.41-1.81,2.88-4.48,4.62-9.11,9.92-13.3,1.06-.84,3.17-1.69,1.11-3.19-14.17,4.81-21.82,11.37-30.58,17.69,0-3.57.22-7-1.48-10.42-3.5,2.71-2.34,5.88-6.52,9.13.12-6.8.27-13,1.61-19.09L43,795.32,34.12,811c-3-5.17-2.86-10-8.79-14.25.54,5,1.88,9.88-2.56,15.54A43.86,43.86,0,0,0,7.22,797.78c3,7.79,6.08,15.5,4.82,23.46L.94,808c-1.43,4.47.07,8.91-2.71,13.57a7.11,7.11,0,0,1-1.36-1.29A159.22,159.22,0,0,1-1.4,841.22a1.72,1.72,0,0,1-3.4.33c-.14.41-.27.81-.4,1.22.07,1.79.15,3.59.24,5.38.4,7.71,1,15.41,1.56,23.11H55.74A463.22,463.22,0,0,1,80,830.31l.75-1.14a45.62,45.62,0,0,1,3.89-7.34c.59-.91,1.22-1.8,1.86-2.69-.47.34-.94.68-1.45,1C84.07,815.46,88,811.72,90.26,807.82Z"/><path class="cls-2" d="M1227.82,824.73c-6.25,2.13-10.18,4.87-14.39,7.52a3.93,3.93,0,0,1-3.25,1c-2.49-.27-1.79-1.22-1.42-1.81,2.88-4.48,4.62-9.11,9.92-13.3,1.06-.84,3.18-1.69,1.12-3.2-14.17,4.81-21.82,11.38-30.58,17.7,0-3.57.22-7-1.48-10.42-3.5,2.71-2.34,5.88-6.52,9.13.11-6.81.27-12.95,1.61-19.09l-2.24-.06-8.9,15.63c-3-5.17-2.86-10-8.8-14.26.55,5,1.88,9.89-2.55,15.55a44,44,0,0,0-15.55-14.46c3,7.79,6.08,15.5,4.81,23.46L1138.51,825c-1.43,4.47.07,8.91-2.71,13.57-.6-.44-14.8,5.74-15.14,5.32.94,6.94,15.49,7.29,15.5,14.3,0,2.1-3.07,2.2-3.4.33l-.39,1.22c.07,1.79.15,3.59.24,5.38.4,7.71,1,15.41,1.56,23.11h59.14a458,458,0,0,1,24.27-40.94l.75-1.14a45.62,45.62,0,0,1,3.89-7.34c.59-.91,1.22-1.8,1.86-2.69-.47.34-.95.67-1.45,1C1221.64,832.37,1225.59,828.64,1227.82,824.73Z"/><path class="cls-2" d="M1063.86,824.73c6.26,2.13,10.19,4.87,14.4,7.52a3.91,3.91,0,0,0,3.25,1c2.48-.27,1.79-1.22,1.41-1.81-2.88-4.48-4.62-9.11-9.92-13.3-1.06-.84-3.17-1.69-1.11-3.2,14.17,4.81,21.81,11.38,30.58,17.7,0-3.57-.22-7,1.48-10.42,3.49,2.71,2.34,5.88,6.52,9.13-.12-6.81-.27-12.95-1.61-19.09l2.24-.06,8.9,15.63c3-5.17,2.86-10,8.79-14.26-.54,5-1.88,9.89,2.56,15.55a43.86,43.86,0,0,1,15.55-14.46c-3,7.79-6.08,15.5-4.82,23.46l11.1-13.21c1.43,4.47-.07,8.91,2.7,13.57a6.91,6.91,0,0,0,1.37-1.29,159.22,159.22,0,0,0-1.73,20.91,1.72,1.72,0,0,0,3.4.33c.13.41.27.81.4,1.22-.07,1.79-.15,3.59-.24,5.38-.4,7.71-1,15.41-1.56,23.11h-59.14a460.35,460.35,0,0,0-24.27-40.94c-.25-.38-.51-.76-.75-1.14-1.06-2.56-8.74.46-10.25-1.87-.6-.91-12.94.19-13.58-.69.47.33,19-6.8,19.52-6.46C1070.05,832.37,1066.1,828.64,1063.86,824.73Z"/><path class="cls-3" d="M406.93,735.13l1.7-2.54c-.47-.36-1-.71-1.54-1.06A17.26,17.26,0,0,1,406.93,735.13Z"/><path class="cls-3" d="M546.84,744.85a1.28,1.28,0,0,1,.07-.34,1.28,1.28,0,0,0-.07.34Z"/><path class="cls-3" d="M521.12,751.09l.13.2-.13-.2Z"/><path class="cls-4" d="M90.22,94.25V531.32h447.1V94.25Zm429,417.23H110V113.63H519.24Z"/><path class="cls-4" d="M519.76,110.23v405l145.38,42.2V80.09ZM643.89,531.47,529.81,495.3V132.72l111.27-22.91Z"/><path class="cls-5" d="M507.13,113.19V511.53l146.55,42.19L652.51,83.05ZM636.6,529.61,525.18,493.44V130.86L634.79,108Z"/><polygon class="cls-6" points="635.64 525.79 525.17 493.44 525.89 131.7 634.78 107.95 635.64 525.79"/><rect class="cls-7" x="302.32" y="113.89" width="204.81" height="397.64"/></g><g id="Layer_5" data-name="Layer 5"><path class="cls-8" d="M393.73,416.13c3.51-1.82,9.61-6.39,13.16-8.14,7.64-3.79,11.79,25.12,19.68,21.81L439.73,482l-15.52,8.45Z"/><path class="cls-9" d="M416.69,382.2l17.52,54.26c6.55,30.64,8.77,30-2.34,32.13l-12.59,1.83c-10.06,2-11.44-7.09-14.48-16.88l-24.49-87.63Z"/><path class="cls-9" d="M376.61,297.38s36.87,19.83,39.41,31.36c3.86,17.51,3.69,62.24,3.69,62.24l-10.87-12Z"/><path class="cls-10" d="M334.59,190c3.36-3.48,8.07-5.42,12.44-3.48,1.18-9,10.63-12.87,19.58-11.74,4.56.79,8.95,3.58,13.5,2.73,2.84-.52,5.21-2.32,7.78-3.73,10.75-5.66,24.62,5,31.44,15.05s3.28,19.56-2.64,30.16c-2.75,4.94-2.88,7.83-4.34,13.33-1.37,5.19-6.08,14.49-7,19.72s6.47,12,1.12,11.57L350,248c-8.81.36-13.87-3.07-17.08-11.28-2.06-5.57-1.08-5.65-.55-11.54.5-7.74-6.37-14.68-4.73-22.25C328.55,198.11,331.43,193.72,334.59,190Z"/><path class="cls-11" d="M327.49,188.6a91,91,0,0,1,46.65,0c25.23,6.81,35.33,24.48,38.07,36.45s-3.88,23.09-3.88,23.09,6.15,2.73,14-19.7c11.42-32.7-19.84-58.33-28.16-59.5S344.73,152.65,327.49,188.6Z"/><path class="cls-8" d="M340.47,250.87s-4.09,20.14-11.75,33.46c-1.06,1.85-14.83,7.42-14.83,7.42l17.54,9.11c10,4,33.37,7.23,44,5.2l9.24-4s-10.24-4-10.37-6.51,4.65-20.7,4.65-20.7"/><path class="cls-8" d="M392.63,443.65a19,19,0,0,0-.35,6.28Z"/><g id="freepik--character-2--inject-1332"><path class="cls-12" d="M349.33,331.83a30.41,30.41,0,0,1-1.54-3.68,13.41,13.41,0,0,1-.5-4.23,12.71,12.71,0,0,1,1.27-5,13.34,13.34,0,0,1,2.19-3.18l.14-.13-.08-.22c-.76-2.59-1.31-5-1.79-6.67a10,10,0,0,0-.89-2.6,1.6,1.6,0,0,0,.1.72l.43,1.93c.37,1.69.79,4,1.59,6.84l.08-.35a12.77,12.77,0,0,0-3,13.09,11.38,11.38,0,0,0,1.24,2.67A3.64,3.64,0,0,0,349.33,331.83Z"/><path class="cls-12" d="M326.64,323a20.93,20.93,0,0,0-1.92-2.39,11,11,0,0,1-2.91-6.4c0-1.38.26-2.75.19-4.06a4.34,4.34,0,0,0-1.31-3.17,2.65,2.65,0,0,0-2.22-.64c-.56.13-.77.39-.75.41a4.65,4.65,0,0,1,.78-.17,2.59,2.59,0,0,1,1.89.74,4.09,4.09,0,0,1,1,2.86c0,1.2-.28,2.55-.25,4.05a8.81,8.81,0,0,0,1.21,3.93,15.74,15.74,0,0,0,2,2.69A12.05,12.05,0,0,0,326.64,323Z"/><path class="cls-12" d="M334.47,318.56a32.73,32.73,0,0,0-2.88-2.89,19.36,19.36,0,0,1-5.23-8A11.51,11.51,0,0,1,326,305a18.14,18.14,0,0,1,.21-2.55,5.55,5.55,0,0,0-.85-4.41,2.5,2.5,0,0,0-1.64-.88,2.35,2.35,0,0,0-1.33.22c-.69.38-.76.87-.74.86a1.75,1.75,0,0,1,.83-.62,2.2,2.2,0,0,1,2.47.7,5.21,5.21,0,0,1,.62,4,16.61,16.61,0,0,0-.24,2.64,10.64,10.64,0,0,0,.42,2.86,18.21,18.21,0,0,0,5.51,8.16c1,.85,1.74,1.5,2.3,1.94A3.26,3.26,0,0,0,334.47,318.56Z"/><path class="cls-12" d="M325.65,291.64a8,8,0,0,1,1.81,3,17,17,0,0,1,.65,3.81,21.41,21.41,0,0,0,.85,4.9,17.76,17.76,0,0,0,4.84,7.55A15.87,15.87,0,0,0,336,312.6a3.33,3.33,0,0,0,.91.44c0-.11-1.17-.83-2.75-2.45a18.8,18.8,0,0,1-4.54-7.42,22.27,22.27,0,0,1-.78-4.72,16.15,16.15,0,0,0-.81-4A4.67,4.67,0,0,0,325.65,291.64Z"/></g><g id="freepik--character-1--inject-1332"><path class="cls-8" d="M376.47,298l-51.23-8.56-8.39,18.14s11.46,14.32,12.76,15.1S361.68,335,361.68,335s37.81-8.31,37.3-8.28S376.47,298,376.47,298Z"/><path class="cls-9" d="M413.16,508.47a353.38,353.38,0,0,0-5.42-53.35L407.69,412l9.84-18.27c3.78-11.74,1-24.88-1.51-30.08L397.82,310l-21.21-12.62c.8,1.92,6.05,16-12.68,18.66l-4.49-.46c-23.32-3.75-36.67-27.71-36.67-27.71l-6.12,2.56-45.5,117s-25.64,47.22-29.19,69.3l-1.72,34.51,170.93.28H415Z"/></g><path class="cls-13" d="M430.44,511.63,399.11,386.21a3.92,3.92,0,1,0-7.61,1.9l30.9,123.73C425.08,511.83,427.76,511.72,430.44,511.63Z"/><path class="cls-8" d="M315.77,408.77c-1.42,3.65-5.27,10.14-6.62,13.82-2.92,7.93-6.86,13-9.29,21.15l85.69,3.36L385,426.49Z"/><path class="cls-14" d="M421.33,383.93c0-4.11-1.1-8.23-2-12.22q-1.47-6.63-3.5-13.13c-2.8-9-6.28-17.7-9.95-26.34-1.77-4.16-3.59-8.29-5.4-12.42,2.86,7.8,5.33,15.74,8.39,23.47a183.36,183.36,0,0,1,8.15,23.9c2.39,9.75,4.15,14.1,1.83,22.15S410,406.78,410,406.78l.79.69S421.37,392,421.33,383.93Z"/><path class="cls-15" d="M375.1,290.45s-4.16-1.39-7-2.7-7.9-1.95-19.6-15.95c0,0,1.65,15.15,18.51,21.07,0,0,4.34,1.66,7.4,1.42Z"/><path class="cls-8" d="M404.61,204.71l.16.18a2.79,2.79,0,0,1-.12-.34Zm7,3.3a4.73,4.73,0,0,0,.28.39l0-.14S411.61,207.85,411.57,208ZM347,269.85c5.14,8.71,14,18.77,24.94,21a17.2,17.2,0,0,0,11.47-2.15c5-2.82,10.25-5.65,14.38-9.4a34.11,34.11,0,0,0,8.4-10.66c2.6-4.86,2.93-6.23,3.64-11.55a53,53,0,0,1,1.72-8.11c.83-2.52,4.48-12.35,6.16-18.23s-.25-18.25-.25-18.25c.05-1.69-2.37-1.39-2.91-2.9l-.7-.17a.7.7,0,0,1,.19.73,5.64,5.64,0,0,1-2.15-1.77v0a2.76,2.76,0,0,1-2.76-1.55c-.05.16.05.52.22.57a3.64,3.64,0,0,1-2.55-1.68c0,.16.06.53,0,.69a6.63,6.63,0,0,1-2-1.56c.11.25,4.2.64,4.17.75-1.08-.11,0,.55-.64-.48l-.72-.81c-.91-.06-1,.47-1.55-.35.14.21,0-1.88-.07-1.72-1-.27-.74-.27-1.49-1,0,.16-3.12.31-3.16.47-.87-.22-.85.64-1.38-.18.13.21.8-.51.93-.3-1.09-.11-1.65.46-2.32-.56.13.21-3-2.64-3-2.64-1.09-.1-1,.27-1.71-.59.27.41-4.75-1.53-4.66-1.16-.87-.22.85,3.62.28,3,0,.16-1.89-1-1.89-1-.91-.06.19,1.07-.34.25,0,.16,0,.69.18.73a3.65,3.65,0,0,1-3.19-1.32c.27.41.36.77.5,1a3.53,3.53,0,0,1-2.33-1.11c0,.16.19.73.37.78a3.58,3.58,0,0,1-2.72-1c0,.16.23.57.36.77a2.57,2.57,0,0,1-2-.85l.36.77a5.56,5.56,0,0,1-2.27-.58c0,.16.27.41.23.57a6.63,6.63,0,0,1-1.7-.6c0,.16.4.61.22.57-.69-.18-1.3,0-2.09-.53.13.2.23.56.36.77a4.9,4.9,0,0,1-2.05-.69,1.25,1.25,0,0,0,.18.73c-.7-.18-1.3,0-2.09-.54,0,.16.23.57.36.78a9.53,9.53,0,0,1-2.1-.54c0,.16.27.41.41.62a5.91,5.91,0,0,1-2.23-.74c-.08.32,0,.52,0,.68-.52-.13-.83-.38-1.36-.51l-.95.1C360.41,201,351.9,196,351.9,196c-6.51,3-4.89,26.92-5.49,30s-2.55,3.5-2.55,3.5c-.58-1.34-2.49,1.7-2.69.29s.48-2.61.24-3.86c-.92-3-4.61-3.05-6.94-1.94l-.45.44c-3.59,2.95-3.53,14.94-2.4,18.79-1.14,7,3.95,12,8.56,8l.28,2.9"/><path class="cls-16" d="M386.58,261.54a5.17,5.17,0,0,1-4.47-1.44c-.24-.26-1.24-.33-.91,0a7.29,7.29,0,0,0,6.12,1.87c.19-.05.19-.18,0-.3a1.11,1.11,0,0,0-.74-.15"/><path class="cls-16" d="M380.74,259.61a8.42,8.42,0,0,0-2.63-1.4.66.66,0,0,0-.46,0c-.1,0-.14.15,0,.23a3.2,3.2,0,0,0,1.45.75.59.59,0,0,0,.52-.07c.12-.1,0-.23-.15-.26a2.49,2.49,0,0,1-1.16-.6l-.52.25a7.48,7.48,0,0,1,2.34,1.27.66.66,0,0,0,.53.08c.12,0,.27-.15.13-.27"/><path class="cls-16" d="M376.87,258.76a4,4,0,0,1-2.67-2.14c-.52-1.49.78-3.32,2.4-3.78.18-.05.13-.18,0-.25a.94.94,0,0,0-.64,0,4,4,0,0,0-2.75,3.1,3.19,3.19,0,0,0,2,2.9,6.39,6.39,0,0,0,1.21.49c.17.05.49.08.61,0s0-.21-.18-.25"/><path class="cls-16" d="M388.8,261.49a.15.15,0,0,1,.2-.17,1.37,1.37,0,0,0,.95-.07c.07.15.13.3.2.44a4.27,4.27,0,0,0-1.93.18.32.32,0,0,1-.35-.15c-.05-.07-.1-.24,0-.28"/><path class="cls-16" d="M387.9,261.44a4.58,4.58,0,0,1,2.16-.19.38.38,0,0,1,.27.21.16.16,0,0,1-.06.23"/><path class="cls-16" d="M391.11,262.24a2.38,2.38,0,0,0,2.31-.86,3.39,3.39,0,0,0,0-3.84.14.14,0,0,1,.12-.22.44.44,0,0,1,.36.22,3.84,3.84,0,0,1,.42,3.38,2.68,2.68,0,0,1-2.27,1.79,2.75,2.75,0,0,1-.86,0c-.11,0-.3-.13-.32-.28s.1-.18.2-.16"/><path class="cls-17" d="M404.15,242.26a2.8,2.8,0,0,1,2.73,1.2,2.7,2.7,0,0,1,.32,1.33,2.57,2.57,0,0,1-1.18,2.14,2.42,2.42,0,0,1-2.81-.21,2.69,2.69,0,0,1-.51-3.34,2.4,2.4,0,0,1,1.45-1.12"/><path class="cls-17" d="M394.68,243.29s5.66-2.51,8.13-2.14c3.61.55,7.44,3.6,8.25,5.67,0,0-5-4.38-7.55-4.69S394.68,243.29,394.68,243.29Z"/><path class="cls-17" d="M374.7,235.15a3.4,3.4,0,0,0-3.22-.61,2.43,2.43,0,0,0-1,3.41,2.43,2.43,0,0,0,2.57,1.16,2.68,2.68,0,0,0,2-2.69c0-.2.28-.52-.4-1.13"/><path class="cls-17" d="M380.16,239.3s-4.47-4.74-7.07-5.48c-3.79-1.09-8.92,0-10.63,1.5,0,0,6.86-1.77,9.51-.93S380.16,239.3,380.16,239.3Z"/><path class="cls-18" d="M397.93,230.71l-.51,2.15c-.13.55-.25,1.1-.38,1.64,1.94,0,3.58.05,4.81.13,2.6.18,3.92.28,5.32.87a14.67,14.67,0,0,1,3.07,1.84,9.66,9.66,0,0,1,1.53,1.34c1,1.18,1.28,2.31,1.5,2.27s.11-1,.1-1.09a8.69,8.69,0,0,0-1.75-4.26,10.18,10.18,0,0,0-3-2.35c-1.34-.71-5.26-1.92-10.68-2.54"/><path class="cls-18" d="M385.27,227.81l-.82,2.05-.63,1.56c-1.73-1.19-3.25-2.11-4.4-2.79-2.45-1.42-3.7-2.14-5.3-2.5a16.57,16.57,0,0,0-3.85-.36,10.62,10.62,0,0,0-2.17.17c-1.62.35-2.52,1.1-2.69.94s.48-.87.55-.95a8.79,8.79,0,0,1,4.09-2.4,11.3,11.3,0,0,1,4.1-.1,43.34,43.34,0,0,1,11.12,4.38"/><path class="cls-19" d="M340.35,239c-2.18-10-5-10.54-5-10.54s-2.28,1.78-2.15,6.23"/><path class="cls-19" d="M338.75,239.59c-2.44-.72-1.41,4.3-2.3,5.27s-1.26-2.12-.91-5.69c0,0,.9-4.75,3.42-5.17"/><path class="cls-15" d="M380.19,216.65s5.52,4.19,11.73,5.18,14,1.42,14,1.42"/><path class="cls-14" d="M407.06,423l1.31,0a63.94,63.94,0,0,1,.77-9.58,49.39,49.39,0,0,1,6.88-15.7c-.71,1-6.89,10.14-8.33,14.27C407.23,413.31,407.07,417.6,407.06,423Z"/><path class="cls-18" d="M415.29,204.76c-.05-.13,0,.05,0,0-1.16-2.43-1.74-4.91-3-7.29s-2.49-4.45-3.86-6.71c-.08-.13-2.1-.54-2.18-.67l-.09-.14-.13-.21c-.1-.16-.21-.32-.31-.49a47.25,47.25,0,0,0-31.43-7A39.13,39.13,0,0,0,340.44,226c.24,1.83-1.17,3.76.37,5s1.83.82,3.64,0a13.05,13.05,0,0,0,4.41-3.95c5.87-7.65,9.25-20.85,8.85-30.48.82,1.94,9,1.47,10.52,2.92a15.15,15.15,0,0,0,21.41-.72,23,23,0,0,0,1.87,3.32c6.53,9.63,16.2,15.43,25.87,11.08C417.73,213,416,206.3,415.29,204.76Z"/><path class="cls-20" d="M360.78,230.5l.3,3.52a49.12,49.12,0,0,0,1.27,9.71c.76,2.21,14,6.17,17,5.26s6.33-8.23,7.46-9.84l5.3,1.6c-.08,2.41-.16,10.1.63,11.33s7,2.54,7.68,2.68,1.4.28,2.29.42c2.37.39,5.29.68,6.37,0,1.6-1,4.19-5.51,6.51-9.84l.38-.67c.08-.17.17-.28.18-.33h0l.42-.78c-6.85-5.54-17.14-7.37-24.4-4.33l0,.1-5.16-1.58c-5-5.36-14.69-10-22.69-8.88h0l-23.63-1.67-.55,2Zm32.79,21c-.49-.77-.59-6.19-.54-10.38,6.28-2.54,15.55-.88,21.77,3.69l0,.1c-1.25,2.32-4.57,8.48-6.14,9.44-1.86,1.12-14.18-1.62-15.07-2.83Zm-29.5-7.92a70.81,70.81,0,0,1-1.65-12.63c7.23-1.4,18.17,3,23.05,8.1-1.7,3-4.22,8.32-6.38,9-3.1.94-14.55-3-15-4.43Z"/><path class="cls-21" d="M393.72,251.42c-.49-.77-.59-6.2-.53-10.39,6.27-2.53,15.55-.87,21.76,3.69l0,.11c-1.25,2.31-4.57,8.48-6.15,9.43-1.86,1.12-14.18-1.61-15.06-2.82Z"/><path class="cls-21" d="M364.07,243.57a70.81,70.81,0,0,1-1.65-12.63c7.23-1.4,18.17,3,23.05,8.1-1.7,3-4.22,8.32-6.38,9-3.1.94-14.55-3-15-4.43Z"/><path class="cls-22" d="M329.71,228.16s-17-17.23-7.15-31.07c1.89-2.66,1.89-1.68,2.39-4.17,2.6-13-2.5-10.66,19.23-22.81s24.51-11.42,53.44-4.38c14.92,3.62,22.15,11.31,24.69,21.56a46.91,46.91,0,0,1,.86,15.26s-29.41-13.92-49.43-7.05-44.67,35.95-42.46,46.95C331.9,245.54,329.71,228.16,329.71,228.16Z"/><path class="cls-11" d="M320.16,211.85s32.52-33.83,67.63-29.22c0,0-42.37-11.75-66.56,15.9l-.88,3.58a20,20,0,0,0-.48,6.81Z"/><path class="cls-23" d="M380.92,267.84c-5.53-1.47-14.31-4.52-14.31-4.52s-1.38,12,11.44,15.35S395.58,271,395.58,271,386.44,269.3,380.92,267.84Z"/><path class="cls-24" d="M381,267.85c-2.63-.69-13.1-4-13.1-4s1.89,7,11.39,9.55c10.31,2.73,14.93-2.5,14.93-2.5Z"/><path class="cls-25" d="M381,268.3c-2.63-.7-10.51-3.28-10.51-3.28s2.08,3.79,10,5.88,11.17-.2,11.17-.2Z"/><path class="cls-23" d="M396.39,270.29a21.24,21.24,0,0,1-3.21-.48c-2.12-.77-3.32-1.74-4.86-2.28-2.64-.93-4.64-.27-5.81-.57s-2.58-1.88-5.33-2.38c-1.61-.29-5.67-.72-7.9-1.1a19.63,19.63,0,0,1-3-1.16c-.42,0-.46,3.19,14.25,7.08S396.75,270.49,396.39,270.29Z"/><path class="cls-9" d="M323.92,286.69s-39.16,2.1-53.64,21.19-31.24,82-33.46,94.62c-3.46,19.54,2.79,33.42,19.72,40,31.75,12.34,86.95,5.24,86.95,5.24l3.75-38.1-47.89-5.79.47-45.49Z"/><path class="cls-26" d="M297.53,403.34s-7.4,0-19.15,8.25"/><path class="cls-8" d="M380.11,425.74,399,420.38s21.63,3.44,24.31,6.16,5.83,6.7.59,9.54c0,0,2.53,6.12-.54,7.73s-6.68-.41-6.68-.41,4.26,4.94.78,7.34-5.07.63-5.07.63-.23,2.93-2.11,2.83a49.62,49.62,0,0,1-7.84-2.21s-10.46,1.41-16.16-.11a27,27,0,0,1-10.49-6.27Z"/><path class="cls-15" d="M412.46,433.09a14.2,14.2,0,0,1,11,2.75"/><path class="cls-14" d="M297.53,403a1.49,1.49,0,0,1,.29,1.19l49,11.11.78-1.51Z"/><path class="cls-14" d="M298.55,395q6.87-18.36,13-37c3.72-11.2,8-22.32,9.9-34,1.3-8-3-15.64-8-21.6-1.95-2.33-4.44-4.17-6.37-6.45,12.3,14.52,12.83,22.58,12.83,22.58a104.72,104.72,0,0,1-2.77,17c-3.08,12.75-21.79,62.69-21.42,65.41s2.06,3.27,2.06,3.27l.2-1.12S294.88,403,298.55,395Z"/><path class="cls-14" d="M254.32,441.57s29.28,10.24,57.1,10.71,31.16.4,31.16.4l1.11-7.15.66,0-1.19,7.65s-35,.64-48.65-.87S253.25,444,253.25,444Z"/><path class="cls-8" d="M444.05,511.59a37.1,37.1,0,0,0,1.79-5.68,22.07,22.07,0,0,0-1.08-10.66l-6.41-17.59s-1.46.52-6.16,7c0,0-5.83,1.92-8,5.86s-1.24,9.89-3.33,11.36-4.85,7.55-2.88,9,4.88,1.28,6.43-2.87c1-2.69,1.39-4.78,2.86-7.24,0,0,1.57,5.21,3.13,10.74Z"/><path class="cls-5" d="M110.13,113.89V512.22H302.32V113.89ZM282,494.13H127.46V131.55H282Z"/><rect class="cls-27" x="110.03" y="138.42" width="2.91" height="63.3"/><rect class="cls-27" x="110.03" y="410.16" width="2.91" height="63.3"/><rect class="cls-6" x="127.39" y="130.76" width="153.64" height="362.58"/><rect class="cls-27" x="292.7" y="264.94" width="5.25" height="83.93" rx="2.62"/><path class="cls-28" d="M804.05,276c2.07-14.08,8.6-42.48,8.6-42.48l-21.48-5.86-15.26,46.63C784.36,278.31,795.39,272.47,804.05,276Z"/><path class="cls-28" d="M803.08,245.68l11.66-12.29s8.71-3.33,13.36-8.83a56.31,56.31,0,0,0,7.81-13.45l10.8-12.31s7.63-2.62,7-5.07-3.76-2.22-6.79-2-41.53,17.18-41.53,17.18a77.09,77.09,0,0,1,5.52-11.83c3.39-5.77,1-9.45-2.58-10.37s-8.06,8.13-7.84,12-7.51,8.42-10.11,14.73.53,15,.53,15C787.73,240.22,803.08,245.68,803.08,245.68Z"/><path class="cls-23" d="M838.75,202.89a4.13,4.13,0,0,0-2.75-.82c-2.51.11-5.53,1.8-8.07,4.35a29.6,29.6,0,0,0-5.14,7.49,13.31,13.31,0,0,0-1.43,3.47,15.74,15.74,0,0,0,2-3.11,37.77,37.77,0,0,1,5.22-7.15c2.4-2.43,5.25-4.08,7.42-4.34a4.2,4.2,0,0,1,2.49.45c.54.3.79.53.84.53S839.28,203.35,838.75,202.89Z"/><path class="cls-23" d="M820.41,209.81c-3.06,1.49-5.44,2.89-5.31,3.13s2.7-.77,5.74-2.27,5.42-2.89,5.29-3.13S823.46,208.31,820.41,209.81Z"/><path class="cls-23" d="M812.5,215.46c2.93,1.15,4.6,3.08,4.85,3s-1.28-2.58-4.48-3.88-6-.54-6-.31S809.57,214.31,812.5,215.46Z"/><path class="cls-29" d="M625.44,263.92s4.14,16.41-9,19.35-12.63-14.41-12.63-14.41"/><path class="cls-29" d="M592.69,266s-9.77,10.23-19.07,6.08.37-18.8.37-18.8"/><path class="cls-30" d="M583.58,208c5.84-6.34,13.71-7.7,21.8-5.65.91,2,1.42,5.8,2.32,7.78-.61.13-1.22.29-1.82.45,1,2.17,1,7.1,1.91,9.29-.44.4-1.56,1.71-2.84,3.28.29.67.58,1.34.88,2a9.74,9.74,0,0,1,2.34-2.75c1.1,2.49.52,7.86,1.73,10.3,2.62,5.29,6.41,11.47,8.81,16.86.54,1.64,2.55-3.75,3.14-2.62l2.23,4.5,2.24,5.47,2-.23,1.91,4.51s-2.85,1.67-7.09,4c1,13.83-10.71,15.92-15.1,13.46a10.2,10.2,0,0,1-4-4c-7.2,3.09-13.66,5.1-15.94,3.6-4.58-3-13.43-14.51-17.55-20a43.34,43.34,0,0,1-4.1-4l-.09-.08v0a19.75,19.75,0,0,1-3.25-4.84c-1.89-4.24,1.33-10.83,4.67-16-3.48-7.59-3.78-12.17-3.08-15.84,1-5.12,9.92-11.38,11.91-11.74C577.67,205.51,580.72,206.71,583.58,208Z"/><path class="cls-8" d="M1111.69,259.29c1.48-13.1,6.67-39.6,6.67-39.6l-20.07-4.77-12.71,43.64C1093.53,262,1103.56,256.27,1111.69,259.29Z"/><path class="cls-8" d="M1110.29,234.14l11.53-13s8.8-3.7,13.38-9.49a57.61,57.61,0,0,0,7.54-14l10.65-13s7.73-2.94,7-5.43-3.92-2.14-7-1.81-42,19-42,19a78.47,78.47,0,0,1,5.26-12.3c3.27-6,.67-9.72-3-10.54s-8,8.61-7.63,12.57-7.4,8.88-9.85,15.42,1,15.41,1,15.41C1094.39,229.07,1110.29,234.14,1110.29,234.14Z"/><path class="cls-31" d="M880,244.37c2.74-1.42,5.53-3.29,7-6.12a15.15,15.15,0,0,0,1.39-6.47,4.86,4.86,0,0,0,.6-.9c2.41-5-.87-11.81,2.56-16.2,3.13-4,10.41-2.68,13.39-6.78,2.32-3.21.71-6.6,1.87-9.56s5.91-5,9-4.16l19,38.93c.48,12.16,1.87,18.74-1.77,25.36-2.22,3.43,2.4,7.09,1,10.93-1.15,3.93-.81,8.62,2.11,11.49-14.73-1.05-34.6-8.09-46.09-17.35l-3.23-2.64c5.69-2,11-11.24,11-11.24-3.05,3.45-8.55,8.26-12.58,9.84a14.55,14.55,0,0,1-1.91-1.1c-2.55-.9-8.69-7.13-12.47-11.14A27,27,0,0,0,880,244.37Z"/><path class="cls-31" d="M996.4,178.53a26.74,26.74,0,0,1,7.44,4.79,24.33,24.33,0,0,1,2,2,31.67,31.67,0,0,1,8.43,29.49c-1.21,5-3.62,10.6-.74,15s9.67,5.18,12.36,9.6c3.17,5.2-1.21,11.64-.74,17.64a12.32,12.32,0,0,0,11.86,10.6,51.25,51.25,0,0,1-25.67,6.45l-5.42-9.13a8.21,8.21,0,0,1-2.16,10.23,20.23,20.23,0,0,1-11,4.22c-9,.58-28.47-5-52.69-15.95l48.3-87.59"/><path class="cls-31" d="M894.83,201.53c1.78-3.39,4.37-6.41,5.77-9.95,3-7.63.39-17.08,5.55-23.6,3.67-4.65,10.17-6.24,16.22-7.12s12.48-1.41,17.42-4.82c3.64-2.49,6.06-6.3,9.7-8.81,5.16-3.6,12-4.07,18.37-3.54a39.79,39.79,0,0,1,18.55,5.62,19.76,19.76,0,0,1,9.5,15.56c0,3-.85,6.09-.32,9.07.6,3.3,2.81,6.11,4,9.28a15.57,15.57,0,0,1-7.16,18.33L939.28,249.7c-9.88,2-31.87-5.25-38.07-12.84S890.37,210.1,894.83,201.53Z"/><path class="cls-32" d="M975.93,246.75s-1.38,35.66-.87,39.13l3.33,1.87-1.1,6.84c-14.6,12-18.19,12.21-36.12,6.24l-20.69-11.21s6-5.63,7.19-8.36c5-11.27-3.68-37.53-3.68-37.53"/><path class="cls-32" d="M976.7,284.77c-.5-1.59-.06-18.51-.06-18.51l-25,3.85-17.14-.72s-6.76,13-7.26,14.59-21.88,11.16-21.88,11.16,23.13,27.53,55.63,27.53,36.55-29.24,36.55-29.24S977.19,286.36,976.7,284.77Z"/><path class="cls-32" d="M908.5,220.75l.37-.66c2.31-2,6.56-3.12,8.57,0,.68,1.35,1.7,2.88,2.37,4.24.69,1.55,1.71,4.69,2.82,6,0,0,7.09-16,6.78-19.73s-12.51-11.77-6-17.25c0,0,6.79-7.09,10-11.28.72-.41,1.46-.8,2.2-1.17a6.89,6.89,0,0,0,1.16.12c0-.16-.14-.32-.2-.57l.27-.13a8.06,8.06,0,0,0,2.49,0c-.22-.19-.66-.37-.66-.57a11.64,11.64,0,0,0,2.57-.07c-.22-.19-.66-.57-.66-.77,1.08.37,1.71,0,2.56-.06a1.39,1.39,0,0,1-.44-.78,5.74,5.74,0,0,0,2.57.13c-.22-.19-.45-.58-.66-.77,1.08.37,1.71,0,2.56-.06.2,0-.35-.34-.42-.54l.08,0a8.4,8.4,0,0,0,2,.12c0-.17-.33-.34-.41-.51l.14,0a7.23,7.23,0,0,0,2.61-.11l-.31-.36.37-.07a3.32,3.32,0,0,0,1.85,0l-.27-.25.73-.11a3.86,3.86,0,0,0,2.31-.11.53.53,0,0,1-.27-.16l.82-.1a9,9,0,0,0,1.8,0,1.17,1.17,0,0,1-.15-.16l1.1-.09a3.54,3.54,0,0,0,2-.12q2-.11,4-.12c9.86-.06,20.74.57,28.33,7.62a96.28,96.28,0,0,1,6.41,15.41c3.11,9.47,3.56,24.61,3.43,27.76-.12,2.73,1.69,8,2.09,10.78,2.2,15.31-9.35,31.26-21.07,40.11-4.67,3.52-8.8,2.35-13.53,1.83-9.67-1.05-24.29-6.51-33-14.82L925.44,252.6l-1.25-3.22c-1.83,6.2-10.3,2.46-11.24-5.87C906.61,236.3,905.34,225.27,908.5,220.75Z"/><path class="cls-16" d="M982.9,243.59a5.54,5.54,0,0,1-4.92-.12c-.32-.18-1.35,0-.91.29a7.85,7.85,0,0,0,6.71.06c.17-.1.14-.23-.09-.29a1.24,1.24,0,0,0-.79.06"/><path class="cls-16" d="M976.46,243.39a9,9,0,0,0-3.06-.62.76.76,0,0,0-.46.16c-.08.08-.1.18,0,.24a3.39,3.39,0,0,0,1.67.31.65.65,0,0,0,.51-.21c.09-.14-.09-.22-.22-.22a2.63,2.63,0,0,1-1.36-.25l-.44.4a8.11,8.11,0,0,1,2.73.56.63.63,0,0,0,.55-.07c.11-.07.23-.23.06-.3"/><path class="cls-16" d="M972.31,243.67a4.28,4.28,0,0,1-3.32-1.32c-1-1.31-.18-3.6,1.32-4.51.16-.1.07-.22-.1-.24a1,1,0,0,0-.65.15,4.29,4.29,0,0,0-1.87,4c.23,1.17,1.43,1.95,2.91,2.24a7.65,7.65,0,0,0,1.36.13c.19,0,.52-.07.6-.21s-.08-.2-.25-.2"/><path class="cls-16" d="M985.12,242.91a.16.16,0,0,1,.15-.23,1.44,1.44,0,0,0,.94-.33l.34.37a4.28,4.28,0,0,0-1.9.73.34.34,0,0,1-.39,0c-.08-.06-.17-.2-.06-.29"/><path class="cls-16" d="M984.2,243.11a4.88,4.88,0,0,1,2.12-.8.39.39,0,0,1,.34.13.16.16,0,0,1,0,.24"/><path class="cls-16" d="M987.67,243a2.52,2.52,0,0,0,2.08-1.51,3.39,3.39,0,0,0-1.09-3.76.14.14,0,0,1,.05-.25.46.46,0,0,1,.43.11,3.81,3.81,0,0,1,1.41,3.18,2.75,2.75,0,0,1-1.75,2.41,3,3,0,0,1-.88.21c-.12,0-.34,0-.4-.18s0-.2.15-.21"/><path class="cls-33" d="M920.44,234.28A46,46,0,0,0,916,227a15,15,0,0,0-3.11-3.15,4.39,4.39,0,0,0-1.62-.76c-.63-.11-.87.37-1.12.88a10.84,10.84,0,0,0-.28,7.53c.07.27.8.08.72-.2a11.56,11.56,0,0,1-.23-6,5.64,5.64,0,0,1,.87-2l-.38.2c-.21,0,0,0,0,0s.15,0,.23.06a4.14,4.14,0,0,1,1.09.55,16.37,16.37,0,0,1,4.13,4.52,51.7,51.7,0,0,1,3.36,5.82c.14.26.85,0,.73-.2Z"/><path class="cls-31" d="M1001.69,205.5c-5.24-.88-8.47-.45-16.87,1.91v.2c0,1.13,0,.5,0,1.63,0,.87.07,1.73.1,2.59,2.74-.81,4.7-1.67,6.48-2,3.36-.7,7.16-1.89,10.64-1.62C1001.94,207.29,1001.8,206.4,1001.69,205.5Z"/><path class="cls-31" d="M966.14,207.57c0,1.13,0,.5,0,1.64l0,2.58c-2.77-.67-4.77-1.42-6.57-1.69-3.55-.54-7.62-1.62-11.2-1-1.71.3-4.16.78-5.36,2.35-.32.42-.91,1.92-1.59,1.63-.28-.12.14-1.52.19-1.67.87-2.82,3.26-4,6.21-4.77,6-1.49,9-1.35,18.26.73"/><path class="cls-34" d="M918,248a5,5,0,0,0-2,3.12,4.55,4.55,0,0,0,.68,3.31,4.66,4.66,0,0,0,3.09,2,4.88,4.88,0,0,0,2-.2,5.14,5.14,0,0,0,3.32-2.7c.24-.5-.83-.44-1-.07a3.87,3.87,0,0,1-2.31,2.1,4.31,4.31,0,0,1-1.06.2h-.44a4,4,0,0,1-2.46-1.5,4.06,4.06,0,0,1-.82-2.81,4.2,4.2,0,0,1,1.7-3c.17-.13.29-.34.08-.48a.75.75,0,0,0-.75.08Z"/><path class="cls-33" d="M920.23,234.32c-1.23.05-2.85.4-2.51,2s1.36,2.68,1.44,4.19a2.15,2.15,0,0,1-.19,1,1.6,1.6,0,0,1-.29.44c-.17.18-.13.19-.33.17-.89-.13-1.69-1.16-2.15-1.84a8.51,8.51,0,0,1-1.53-4.94c0-1.79.29-4.63,2.15-5.5.43-.21-.25-.19-.42-.11-1.74.82-2.22,2.92-2.39,4.67a8.93,8.93,0,0,0,.89,5.1c.65,1.3,2.18,3.58,3.94,2.77,1.56-.71,1-2.71.5-3.92a10.69,10.69,0,0,1-.92-2.41c-.17-1.05.59-1.28,1.5-1.31.2,0,.79-.32.31-.3Z"/><path class="cls-31" d="M995.07,217.06a3.22,3.22,0,0,1,3.49.54,3.08,3.08,0,0,1,1,1.43,3.22,3.22,0,0,1-.69,2.94,3,3,0,0,1-3.4.68,3.29,3.29,0,0,1-1.72-3.78,3,3,0,0,1,1.34-1.81"/><path class="cls-31" d="M984.84,221.75s5.95-4.87,9-5.26a12.21,12.21,0,0,1,10.46,4s-6.11-3.55-9.28-3.06S984.84,221.75,984.84,221.75Z"/><path class="cls-31" d="M959.65,218.22a3.2,3.2,0,0,0-3.46.72,3.15,3.15,0,0,0-.9,1.48,3.2,3.2,0,0,0,.84,2.89,3,3,0,0,0,3.43.51,3.28,3.28,0,0,0,1.52-3.87,3,3,0,0,0-1.43-1.73"/><path class="cls-31" d="M967.33,222.31s-6.61-4.53-9.93-4.77c-6-.43-11.46,3.1-13.11,5.36,0,0,8.5-4.69,11.91-4.38C959.46,218.83,967.33,222.31,967.33,222.31Z"/><path class="cls-35" d="M978.83,252.63c-6.23.15-16.33-.37-16.33-.37s2.19,12.92,16.62,12.57,16-13.36,16-13.36S985.05,252.48,978.83,252.63Z"/><path class="cls-36" d="M978.89,252.63c-3,.07-14.9-.17-14.9-.17s4.11,6.79,14.81,6.53c11.6-.28,14.85-7.15,14.85-7.15Z"/><path class="cls-37" d="M979,253.09c-3,.08-12-.23-12-.23s3.32,3.33,12.2,3.12,11.62-3.6,11.62-3.6Z"/><path class="cls-35" d="M995.75,250.49a21.46,21.46,0,0,1-3.5.47c-2.45-.16-4-.8-5.78-.9-3-.17-4.93,1.13-6.25,1.16s-3.27-1.18-6.29-.86c-1.77.19-6.15,1-8.59,1.26a22.86,22.86,0,0,1-3.52-.31c-.44.13.49,3.49,17,3.08S996.19,250.59,995.75,250.49Z"/><path class="cls-15" d="M976.58,279.17A59.25,59.25,0,0,1,945.34,269s7,14.78,31.14,13.89Z"/><path class="cls-31" d="M936.75,159.61c3.12-1.68,6.92-1.37,10.44-.91A192.55,192.55,0,0,1,991.63,170c.17,3.64-3.39,6.53-7,7.16s-7.26-.33-10.87-.84-7.63-.46-10.47,1.83-3.93,6.75-6.84,9.32c-5,4.45-13.65,2-18.62,6.5-3.74,3.38-3.75,9.15-5.55,13.94-3.49,9.32-13.25,11.49-22.57,8a17.58,17.58,0,0,1-2.21-1c7.69-16.33,14.75-30.08,22.46-46.4C931.64,165,933.44,161.4,936.75,159.61Z"/><path class="cls-31" d="M1044.81,257.82a5.74,5.74,0,0,1-.62,3.75,5.13,5.13,0,0,1-3.49,2.62,5.33,5.33,0,0,1-5.11-2.26,4.92,4.92,0,0,1-.81-3.25,10.17,10.17,0,0,1,1.13-3.59c1.14-2.35,3.11-4.78,3.35-8.05a11.82,11.82,0,0,0-3.17-9.07,13.6,13.6,0,0,0-4.16-3.05,20,20,0,0,0-5.08-1.54,29.24,29.24,0,0,1-4.95-1.27,6.81,6.81,0,0,1-3.54-3,8.19,8.19,0,0,1-.77-4.52,16.15,16.15,0,0,1,1-4.44,34.77,34.77,0,0,0,2.59-8.32,13.12,13.12,0,0,0-1.54-7.5,16.66,16.66,0,0,0-4.14-4.71,31.89,31.89,0,0,1-3.39-3.18,9.93,9.93,0,0,1-1.88-3.43v.26a3.75,3.75,0,0,0,.19.75,7.51,7.51,0,0,0,1.46,2.62,29.26,29.26,0,0,0,3.34,3.34,16.54,16.54,0,0,1,3.92,4.65,12.4,12.4,0,0,1,1.36,7.1,34.09,34.09,0,0,1-2.62,8.12,16.76,16.76,0,0,0-1.12,4.63,9,9,0,0,0,.84,5,7.55,7.55,0,0,0,4,3.43,29,29,0,0,0,5.1,1.33,19.26,19.26,0,0,1,4.87,1.46,12.61,12.61,0,0,1,3.92,2.87,11.07,11.07,0,0,1,3,8.43c-.19,3-2,5.32-3.2,7.8a10.46,10.46,0,0,0-1.15,3.86,5.49,5.49,0,0,0,1,3.62,5.85,5.85,0,0,0,5.62,2.4,5.63,5.63,0,0,0,4.29-5.87A3.39,3.39,0,0,0,1044.81,257.82Z"/><path class="cls-31" d="M888.35,230.11v-.39a1,1,0,0,0-.17-.56c-.92-5-3.3-11.43-3.3-17.33,0-8.29,13.75-16.44,13.75-16.44v28.76s-11.55,15.12-10.29,10.23A11.27,11.27,0,0,0,888.35,230.11Z"/><path class="cls-28" d="M492.93,852.31s18.21,17.84,29.15,22.36,14.57-3.3,14.57-3.3-9.92-14.26-10.15-16.67c-1-11.09,27.09-41.55,27.09-41.55L505,834.23Z"/><path class="cls-28" d="M587.58,620.1,577.14,723.36s-19.12,6.89-35.62,38.93c-12.37,24-36.49,71.94-36.49,71.94l25.49,8.91s22-27.73,54.36-60.65,40.6-30,50.8-55.42,38.66-194.91,38.66-194.91l-62.73,6.12Z"/><path class="cls-28" d="M657,891.26s24.14,8.18,35.95,7.51,11.7-9.29,11.7-9.29-14.6-9-16.36-10.62c-6.25-5.89,6.4-49.19,6.4-49.19l-34.73,23.17Z"/><path class="cls-28" d="M641.59,641l29.7,92.74s-10,23.68-9.95,59.71c.12,42.89-2.74,76.46-2.74,76.46l28.21-3.56s7.88-34.17,22.74-77.85,18.56-44.46,16.72-71.81S681.66,524.1,681.66,524.1l-53.88,32.71Z"/><path class="cls-38" d="M705.09,492.2l9,75.26c6,24.68,5,54.13,16.92,76.24l22.49,45.83s-47.06,30.34-65.26,30.34c-8.45,0-18.93-1.65-27.74-3.42a109.15,109.15,0,0,0-39.23-.79l-.36.06L542.64,699s17.52-63.16,8.76-111.24,16.85-92.78,30.33-113Z"/><polygon class="cls-8" points="1012.28 882.63 1023.33 823.48 982.49 818.32 981.8 887.35 1013.67 884.61 1012.28 882.63"/><path class="cls-28" d="M622.14,249.64,624,260.57a63.76,63.76,0,0,1,.77,13.87l-.47,9-15.77,5.84s62.7,49,74.78,42.83,5.3-35,1.36-37.73-4.77-8.15-4.77-8.15l-14.28-1.93,2-9.36Z"/><path class="cls-39" d="M726.46,311.3l37.93,8.63s6.38-38.05,13.92-57.44,11.21-31.63,11.21-31.63l24.6,14.84s-6.19,43.75-8.64,60.48-6.92,34-11.67,40.35-9.44,13.73-19.78,15.09-33.43-5.79-33.43-5.79Z"/><path class="cls-28" d="M514.33,507.17l-13.45,20.65s-31.59,7.56-34.46,11.49-10.56,14-10.56,14L454,567.29a2.54,2.54,0,0,0,3.72,2.58c3.64-2,8.31-5.71,8.56-12l6.34-7.39L490,548.6s-11.81,12.63-8.44,13.29,15.89-10.5,22.29-12.23,11.84-2.32,14-17.51c0,0,2.82-7.8,6.8-19C519.11,509.42,520.6,509.17,514.33,507.17Z"/><path class="cls-32" d="M946.37,441.94a10.24,10.24,0,0,0-12.94-1.57c-14.85,9.38-44.91,16.53-58.1,50.3-4.41,11.29-7.41,31.18-5.15,45.09,4.11,25.37,8.81,31.12,14.08,44.11,17.41,42.88,36.07,90.56,34.56,101.07-2.48,17.23-20,21-33.47,50.58C874.23,755.93,853.18,805,846.67,821c-1.9,4.7-11.9,13.57-7.55,16.16,8.08,4.82.32,7.2,11.88,9.39,4,.75,8,6.73,10.26,3.44C877.72,826.62,982.6,722.52,986.2,706.32c4.08-18.36,6.13-65.41-2.41-105.72-5.69-26.86-7.91-42.46-8.75-49.88a10.26,10.26,0,0,1,3.24-8.72c7.17-6.61,15.79-22.32,26.24-40.56a10.28,10.28,0,0,0-3.38-13.83C985.8,477.86,959.6,455.92,946.37,441.94Z"/><path class="cls-39" d="M594.9,369.39s4.47,33.16,4,38.27-1.62,29.6-9.89,40.44c-5.68,7.44-14.22,22.46-15.82,24.74s39.71,31.63,131.58,29.45c0,0,6.93-6.5,9.95-39.25s-2.45-53.26,1.7-59.17,19.42-15.14,12.24-38.62C724.34,351.28,724,352,724,352l33.49,8.15,3.77-40.9s-52-30.52-59.4-32.09-24.05-1.89-24.05-1.89,10.54,25.71-10.39,27.9c-30.26,3.17-51.62-26.85-51.62-26.85s-14.14,3.35-29.67,8.86c-22.72,8.07-25.81,24.82-30.37,33.25s-60.63,194.24-60.63,194.24l33.43,14.23Z"/><polygon class="cls-38" points="724.28 352.34 717.25 321.19 728.16 353.28 724.28 352.34"/><path class="cls-38" d="M596.65,308.81s16.4,25.63-1.75,60.58l.46,3.51S616.45,337.35,596.65,308.81Z"/><path class="cls-40" d="M901.26,679.76s-37.82-101.15-37.55-135.83c.28-35.09,8.5-53.26,8.5-53.26l136.35,4.93S1057.16,635.44,1057,678c-.09,23.52-7.15,71-16.84,99.55-3,13.68.87,37.18,2.73,49.71,0,0-29.48,13.22-50.06,9.13h0a38,38,0,0,1-12.72-1.15c-18.2-5.38-15.53-12.18-29.91-16.94s-17.66-1.22-32.89-1.9-26.64-10.67-32.9-20.91-30.63-26-30.63-26S876.24,698.25,901.26,679.76Z"/><path class="cls-8" d="M1022.52,311.18l43.33.5s13.22-37.5,21.26-56.86a272.51,272.51,0,0,0,11.76-34.25l15.51,12.1s-4.45,47.29-7.39,63.86-7.87,33.73-12.74,40.15-7.56,10.81-17.77,12.53-46.35-2.7-46.35-2.7Z"/><path class="cls-8" d="M784.31,530.11c2.52-3.14,26.39-8.7,32.87-10.16a89.1,89.1,0,0,0,9.59,3.7,47,47,0,0,0,8.52,1.72c-2.59,12.51-7.82,13.07-14,14.58-6.41,1.58-19.07,11.91-22.41,11.27s8.64-12.34,8.64-12.34l-17.33,1.68L786,546.41c5.3,15.3-1.78,15.51-1.78,15.51l-8.47-19.79S781.38,533.75,784.31,530.11Z"/><path class="cls-8" d="M825,525a90.55,90.55,0,0,1-8.57-3.28l27.31-97.84,15.24-80,43.84-1-22.18,72.78s.35,3.58-2.35,18.3c-2.47,13.45-37.48,81.28-43.55,93A47.75,47.75,0,0,1,825,525Z"/><path class="cls-41" d="M897.38,375.87s2.34,26.68,2,31.82-7.33,33.24-16.79,50.41c-4.68,8.49-13.15,19.94-14.7,29.43-3.2,19.53,118.3,35,149.67,24.62,0,0-17.53-33.34-12.59-63.58,7-43.09,5.69-42.36,9.77-48.47s14.4-22.51,10.39-36.64-3.21-12.53-3.21-12.53l26.42,5,1.36-48.72c0-2-8.56-1.35-10.41-2-10-3.65-37.21-17.27-43.8-18.32a78.13,78.13,0,0,0-14.77-.87s9.69,15.18-5.78,21.09c-30.14,11.53-56.4-20.92-56.4-20.92s-22.44,7.33-37.23,15.89-17.31,18.7-21.71,27.35-16.28,40.37-16.28,40.37l50.33,14.64Z"/><polygon class="cls-42" points="1022.14 351.13 1011.57 316.55 1026.11 351.24 1022.14 351.13"/><path class="cls-42" d="M888.55,313.15s32,8.46,8.83,62.72l.34,4.06S926,325.06,888.55,313.15Z"/><path class="cls-28" d="M674.93,871.55s37.12,17.12,51.44,27.81c16.83,12.57-2.06,8-2.06,8S712,909.5,705,910s-50.24-20.49-50.24-20.49l3.67-16.79Z"/><path class="cls-43" d="M749.34,909.13s2.31-5.52-1.52-7-21-4.33-23.07-4c.34,4.39-1.32,4.13-5.78,5.36s-10.23,3.21-21.54,1.08c-8.49-1.6-21.14-7.72-28.75-12-2.54-1.43-8.75-7-14-7.76-2.49,3.6-4.27,18.54-.24,21.1s28.18,4.4,28.18,4.4l21.31,5,20.17,1,8.51-.12,8-2.74Z"/><path class="cls-44" d="M653.46,905c2.61.88,11,2.28,18.25,2.46,19.4.51,25.86,2.89,32.39,4.82A85.27,85.27,0,0,0,715.56,915c22.57,3.78,33.75-7.28,34.22-7.59a2.05,2.05,0,0,1,.59,1,49.59,49.59,0,0,1-4.42,3.56c-4.15,2.94-13.76,8.42-31.25,5.83a78.72,78.72,0,0,1-11.2-2.06,85.92,85.92,0,0,0-20.83-3.75l0,3.1s-20.61.58-29.81-3.26C652.27,907.13,653.46,905,653.46,905Z"/><path class="cls-44" d="M652.69,909.13c12.29,3.09,25.71,3.26,30,3.31l0,2.73s-20.61.58-29.81-3.26A20.46,20.46,0,0,1,652.69,909.13Z"/><path class="cls-28" d="M518.17,843.43s25.9,31.64,34.1,47.51c9.64,18.66-5.34,6.28-5.34,6.28s-12-3.46-18.54-6.05-36.22-40.39-36.22-40.39l10.63-13.5Z"/><path class="cls-43" d="M568.66,909.77s4.49-3.95,1.68-6.92-17-13.07-19-13.66c-1.63,4.1-3,3.14-7.55,2.29s-10.6-1.58-19.85-8.45c-6.93-5.14-15.63-16.18-20.6-23.36-1.66-2.4-4.82-10.11-9.17-13.08-3.81,2.15-12,14.81-9.43,18.87s23.42,16.29,23.42,16.29l17,13.77,17.69,9.75,7.7,3.61,8.35,1Z"/><path class="cls-44" d="M484.24,864.13c2,1.93,8.92,6.86,15.33,10.19,17.23,8.94,22,13.9,27,18.5a84.45,84.45,0,0,0,9.1,7.49c18.65,13.27,33.53,8.22,34.09,8.14a2,2,0,0,1,.08,1.2,51,51,0,0,1-5.53,1.26c-5,.83-16.06,1.56-30.66-8.42a79.38,79.38,0,0,1-9.17-6.74,85.59,85.59,0,0,0-17.09-12.49L506,886.05s-18.79-8.49-25.38-16C482.23,865.53,484.24,864.13,484.24,864.13Z"/><path class="cls-44" d="M481.74,867.51c9.7,8.15,21.69,14.18,25.51,16.09L506,886.05s-18.79-8.49-25.38-16A21.22,21.22,0,0,1,481.74,867.51Z"/><path class="cls-8" d="M1000.05,876.64s37.13,17.12,51.44,27.81c16.83,12.57-2.06,8-2.06,8s-12.34,2.16-19.32,2.67-50.24-20.49-50.24-20.49l3.67-16.79Z"/><path class="cls-45" d="M1074.46,914.22s2.31-5.52-1.52-7-21-4.33-23.07-4c.34,4.4-1.32,4.13-5.78,5.36s-10.23,3.21-21.54,1.08c-8.49-1.6-21.14-7.72-28.75-12-2.54-1.43-8.75-7-14-7.76-2.49,3.6-4.27,18.54-.24,21.1s28.18,4.4,28.18,4.4l21.31,5,20.17,1,8.51-.12,8-2.74Z"/><path class="cls-44" d="M978.58,910.08c2.61.88,11,2.28,18.25,2.46,19.4.51,25.86,2.89,32.39,4.82a85.27,85.27,0,0,0,11.46,2.77c22.57,3.78,33.75-7.28,34.22-7.59a2,2,0,0,1,.59,1,49.59,49.59,0,0,1-4.42,3.56c-4.15,2.94-13.76,8.42-31.25,5.83a78.72,78.72,0,0,1-11.2-2.06,85.92,85.92,0,0,0-20.83-3.75l0,3.1s-20.61.58-29.81-3.26C977.39,912.22,978.58,910.08,978.58,910.08Z"/><path class="cls-44" d="M977.81,914.22c12.29,3.09,25.71,3.26,30,3.31l0,2.73s-20.61.58-29.81-3.26A20.46,20.46,0,0,1,977.81,914.22Z"/><path class="cls-8" d="M854.78,837.84s23.44,33.49,30.42,49.94c8.21,19.33-5.8,5.85-5.8,5.85s-11.74-4.35-18-7.43-33.08-43-33.08-43l11.63-12.66Z"/><path class="cls-45" d="M900.12,907.79s4.78-3.61,2.2-6.78-15.94-14.31-17.93-15c-1.92,4-3.22,2.9-7.69,1.72s-10.46-2.38-19.16-9.92c-6.52-5.65-14.37-17.32-18.79-24.85-1.47-2.52-4-10.45-8.15-13.73-4,1.85-13,13.86-10.83,18.1s22.13,18,22.13,18l15.9,15,16.91,11.06,7.4,4.18,8.25,1.63Z"/><path class="cls-44" d="M819.38,855.91c1.82,2.08,8.38,7.52,14.53,11.32,16.5,10.21,20.88,15.52,25.56,20.48a83.24,83.24,0,0,0,8.5,8.16c17.6,14.64,32.82,10.72,33.39,10.69a2.14,2.14,0,0,1,0,1.2,50.51,50.51,0,0,1-5.61.84c-5.07.45-16.13.35-29.93-10.7a81.19,81.19,0,0,1-8.65-7.42,85.47,85.47,0,0,0-16.09-13.74l-1.59,2.67s-18.09-9.87-24.11-17.83C817.28,857.17,819.38,855.91,819.38,855.91Z"/><path class="cls-44" d="M816.64,859.1c9.05,8.86,20.56,15.77,24.23,18l-1.4,2.34s-18.09-9.87-24.11-17.83A20.84,20.84,0,0,1,816.64,859.1Z"/><path class="cls-28" d="M674.49,251.44s-1.36,36.2-.84,39.72l.07,3.24-.4,6.68c-14.81,12.21-15.64,8.12-33.85,2.07l-18.05-14.08a4.3,4.3,0,0,0,4.12-2.55c5-11.45-3.78-38.09-3.78-38.09"/><path class="cls-23" d="M641.66,267.17s3.15,11.1,22.78,15.48c0,0,5.72,1.69,9,.48l.07-4Z"/><path class="cls-30" d="M700.89,241.73c-6.9-5-8.18-13.87-7.29-21.78.85-7.58-4.83-19.23,4.47-18.81.18,0-3.3-6.51-.56-5.93-1.66-4.2,2.25-4.61,2.79-9.38.52-4.54-.4-8.69-1.87-9-19.55-27.55-38.93-29.22-55.14-27.65-1.63.16-6.69,3-8.17,3.15-1.92.25-6.33-2.09-8.12-1.76-28.1,5.12-38.08,20.34-35.46,60.94,2.21,34.29,36.89,43.41,69.13,42.54,13.78-.37,30.13.23,40.5-12.08Z"/><path class="cls-30" d="M611.1,273.86a11.68,11.68,0,0,1-4-.56c2.93-1.34,5.91-2.79,8.7-4.22C615,271.4,613.67,273.76,611.1,273.86Zm-36-63.22c1.33.47,3.08,2.11,4.33,3.44-.1.18-.19.36-.28.55a92,92,0,0,0-4.23,8.88,42.36,42.36,0,0,1-4-5.13C569.78,215.31,572.76,209.83,575.09,210.64Z"/><path class="cls-28" d="M681.47,175.08l.25.16a3.9,3.9,0,0,1-.25-.36Zm9.17,1.55.45.36v-.17S690.64,176.43,690.64,176.63ZM635.83,264.5c8.83,8.43,23.68,14,33.49,15,4.8.52,9,1.71,13.73-1.87,11.89-9,21.63-27.19,19.39-42.72-.41-2.86-2-6-1.87-8.76.13-3.2,1.35-18.76-1.82-28.38-3.86-11.71-7.58-17.47-7.58-17.47-.49-2,4.54-1.22,3.41-2.79l-.87,0a.85.85,0,0,1,.46.78,6.84,6.84,0,0,1-3.08-1.34v0c-1.29.63-2.61.07-3.72-.9,0,.2.23.59.45.59a4.36,4.36,0,0,1-3.51-1.11c0,.2.24.6.24.8a8.07,8.07,0,0,1-2.83-1.16c.21.26,5.09-.64,5.09-.5-1.29.23.21.63-.91-.34l-1.09-.71c-1.08.23-1,.88-1.92.11.23.19-.65-2.18-.65-2-1.3,0-1-.06-2-.63,0,.2-3.52,1.4-3.51,1.6-1.09,0-.78,1-1.67.24.23.19.77-.86,1-.66-1.3.23-1.77,1.08-2.88.11.22.2-4.36-2.07-4.36-2.07-1.29.24-1.06.64-2.17-.13.45.39-6-.21-5.8.19-1.08,0,2.18,3.92,1.3,3.35a11.45,11.45,0,0,1-2.52-.53c-1.08.22.58,1.18-.31.4,0,.2.24.8.46.79a4.46,4.46,0,0,1-4.15-.49c.45.39.68.78.9,1-1.09,0-2,.25-3.06-.52,0,.2.46.79.67.78a4.32,4.32,0,0,1-3.48-.3c0,.19.45.58.67.77a3.08,3.08,0,0,1-2.62-.32l.68.78c-.87,0-1.51.44-2.83.07,0,.2.45.39.45.59a7.93,7.93,0,0,1-2.17-.14c0,.2.66.58.44.58-.86,0-1.5.44-2.6.07.22.2.45.59.67.78a5.64,5.64,0,0,1-2.61-.13,1.45,1.45,0,0,0,.46.79c-.87,0-1.51.44-2.61.07,0,.2.45.59.67.78a11.39,11.39,0,0,1-2.61.07c0,.2.45.39.67.58a7.08,7.08,0,0,1-2.83-.12c0,.4.24.59.24.79-.65,0-1.09-.17-1.74-.15l-1.08.42c-2.93,4.07-10.75,12.27-10.75,12.27-6.59,5.56-6.47,14.92-6.15,18.7S620.37,231,620.37,231c-1.13-1.37-2.17-4.55-2.87-6.13-.69-1.38-1.72-2.93-2.41-4.3-2.05-3.14-6.36-2-8.7,0l-.38.67c-3.2,4.59-1.9,15.79,4.54,23.1,1,8.45,9.57,12.24,11.42,5.94l1.27,3.27"/><path class="cls-16" d="M681.56,244.38a5.64,5.64,0,0,1-5-.12c-.32-.18-1.37,0-.92.29a7.93,7.93,0,0,0,6.81.06c.18-.1.14-.23-.09-.3a1.2,1.2,0,0,0-.8.07"/><path class="cls-16" d="M675,244.18a9.31,9.31,0,0,0-3.11-.62.7.7,0,0,0-.46.16c-.09.08-.1.18,0,.24a3.42,3.42,0,0,0,1.71.32.67.67,0,0,0,.51-.22c.09-.14-.09-.23-.23-.22a2.77,2.77,0,0,1-1.37-.25l-.45.4a8.34,8.34,0,0,1,2.77.57.69.69,0,0,0,.56-.08c.11-.07.23-.22.06-.3"/><path class="cls-16" d="M670.8,244.47a4.38,4.38,0,0,1-3.37-1.33c-1-1.33-.18-3.66,1.34-4.59.16-.1.07-.22-.1-.24a1,1,0,0,0-.66.15,4.34,4.34,0,0,0-1.89,4c.23,1.19,1.45,2,3,2.27a6.33,6.33,0,0,0,1.38.13c.19,0,.53-.07.62-.21s-.09-.2-.27-.2"/><path class="cls-16" d="M683.81,243.68a.16.16,0,0,1,.15-.23,1.45,1.45,0,0,0,1-.34l.34.38a4.33,4.33,0,0,0-1.92.74.37.37,0,0,1-.4,0c-.09-.07-.18-.21-.06-.3"/><path class="cls-16" d="M682.88,243.89a5.11,5.11,0,0,1,2.15-.82.46.46,0,0,1,.34.13.17.17,0,0,1,0,.25"/><path class="cls-16" d="M686.4,243.75a2.57,2.57,0,0,0,2.11-1.53,3.45,3.45,0,0,0-1.11-3.82.15.15,0,0,1,.05-.26.52.52,0,0,1,.44.12,3.88,3.88,0,0,1,1.43,3.22,2.78,2.78,0,0,1-1.78,2.45,3.41,3.41,0,0,1-.89.22.45.45,0,0,1-.41-.18c-.06-.14,0-.21.16-.22"/><path class="cls-46" d="M618.14,235a45,45,0,0,0-4.52-7.42,14.33,14.33,0,0,0-3.1-3.12,4.07,4.07,0,0,0-1.58-.73c-.66-.1-.93.31-1.2.84a10.87,10.87,0,0,0-.29,7.62c0,.17.78,0,.74-.19a11.78,11.78,0,0,1-.24-6.15,6,6,0,0,1,.9-2.05l-.52.21c-.17,0,0,0,0,0l.3.06a4.29,4.29,0,0,1,1.13.57A16.66,16.66,0,0,1,614,229.3a54,54,0,0,1,3.41,5.89c.09.18.79-.08.73-.2Z"/><path class="cls-17" d="M700.59,205.69c-5.32-.88-8.6-.44-17.13,2l0,.2c0,1.15,0,.51.06,1.66,0,.88.06,1.75.1,2.63,2.78-.83,4.76-1.7,6.57-2.07,3.41-.71,7.27-1.93,10.8-1.66C700.85,207.51,700.71,206.6,700.59,205.69Z"/><path class="cls-17" d="M644.64,209.21a7.26,7.26,0,0,0-1.09.21,20,20,0,0,0-3.41,1.35c.32-.14.9-1.33,1.21-1.62a8.07,8.07,0,0,1,2.25-1.44,24.43,24.43,0,0,1,9.82-1.81c1.22,0,11.1,1,11.09,1.73v.2c0,1.15,0,.51,0,1.66,0,.88,0,1.75,0,2.63-2.82-.68-4.85-1.44-6.67-1.71-2.49-.38-5-.95-7.47-1.13A30.28,30.28,0,0,0,644.64,209.21Z"/><path class="cls-47" d="M615.67,248.88a5.08,5.08,0,0,0-2.07,3.17,4.64,4.64,0,0,0,.7,3.36,4.73,4.73,0,0,0,3.13,2,4.89,4.89,0,0,0,2.05-.2,5.18,5.18,0,0,0,3.36-2.75c.25-.5-.83-.44-1-.07a4,4,0,0,1-2.34,2.14,4.47,4.47,0,0,1-1.08.2l-.18,0H618a4,4,0,0,1-2.49-1.52,4.16,4.16,0,0,1-.84-2.85,4.26,4.26,0,0,1,1.73-3.07c.17-.12.29-.34.07-.48a.77.77,0,0,0-.76.08Z"/><path class="cls-46" d="M617.94,235c-1.25.05-2.9.41-2.55,2s1.38,2.72,1.46,4.26a2.2,2.2,0,0,1-.18,1,1.9,1.9,0,0,1-.3.44c-.17.19-.13.2-.34.18-.91-.13-1.72-1.17-2.18-1.86a8.69,8.69,0,0,1-1.56-5c0-1.81.29-4.69,2.18-5.59.43-.2-.25-.19-.43-.1-1.77.83-2.25,3-2.42,4.74a9.06,9.06,0,0,0,.91,5.18c.66,1.31,2.22,3.62,4,2.8,1.59-.72,1-2.75.5-4a11,11,0,0,1-.93-2.45c-.18-1.06.6-1.3,1.52-1.33.2,0,.8-.32.32-.31Z"/><path class="cls-17" d="M691.89,217.32a3.28,3.28,0,0,1,3.55.54,3.21,3.21,0,0,1,1,1.45,3.27,3.27,0,0,1-.69,3,3,3,0,0,1-3.46.7,3.33,3.33,0,0,1-1.74-3.84,2.94,2.94,0,0,1,1.35-1.83"/><path class="cls-17" d="M683.5,222.21s5.29-4.93,8-5.32a10.34,10.34,0,0,1,9.34,4.07s-5.47-3.62-8.29-3.13S683.5,222.21,683.5,222.21Z"/><path class="cls-17" d="M653.83,218.39a3.27,3.27,0,0,0-3.51.73,3.31,3.31,0,0,0-.91,1.5,3.24,3.24,0,0,0,.85,2.94,3,3,0,0,0,3.49.52,3.35,3.35,0,0,0,1.54-3.93,3,3,0,0,0-1.46-1.76"/><path class="cls-17" d="M665.73,222.79S659,218.2,655.65,218c-6.08-.43-11.63,3.16-13.31,5.46,0,0,8.63-4.78,12.09-4.46S665.73,222.79,665.73,222.79Z"/><path class="cls-23" d="M677.43,253.56c-6.32.16-16.58-.37-16.58-.37s2.25,13.12,16.89,12.75S694,252.36,694,252.36,683.75,253.4,677.43,253.56Z"/><path class="cls-24" d="M677.49,253.56c-3,.07-15.12-.16-15.12-.16s4.18,6.89,15,6.62c11.78-.3,15.07-7.28,15.07-7.28Z"/><path class="cls-25" d="M677.63,254c-3,.07-12.15-.23-12.15-.23s3.37,3.38,12.39,3.15,11.78-3.66,11.78-3.66Z"/><path class="cls-23" d="M694.61,251.37a21.81,21.81,0,0,1-3.55.48c-2.5-.16-4.07-.81-5.87-.91-3.09-.17-5,1.16-6.34,1.19s-3.33-1.19-6.4-.87c-1.79.19-6.23,1-8.71,1.28a22.57,22.57,0,0,1-3.57-.3c-.44.12.5,3.53,17.31,3.11S695.05,251.47,694.61,251.37Z"/><path class="cls-30" d="M647.62,178.72s21,16.48,48.65,12.2l0-.7s5.21-11.41-1-17.11-24.54-7.78-24.54-7.78-31.26,0-43,9.2-16.24,27.78-16,34.18S620.37,231,620.37,231s-.66-14-.12-20.17S640.11,195.57,647.62,178.72Z"/><path class="cls-30" d="M645.9,182.1s-5.31,15.5-12.1,21.44l-6.79,6s9.55-9.69,11-18.37S645.9,182.1,645.9,182.1Z"/><path class="cls-23" d="M1142.11,192.47a4.11,4.11,0,0,0-2.75-.82c-2.51.11-5.53,1.8-8.06,4.35a29.52,29.52,0,0,0-5.14,7.49,13.31,13.31,0,0,0-1.43,3.47,15.7,15.7,0,0,0,2-3.11,37.39,37.39,0,0,1,5.23-7.15c2.4-2.43,5.24-4.08,7.41-4.34a4.2,4.2,0,0,1,2.49.45c.55.3.79.53.84.53S1142.64,192.94,1142.11,192.47Z"/><path class="cls-23" d="M1123.77,199.39c-3,1.49-5.43,2.9-5.31,3.13s2.7-.77,5.74-2.27,5.42-2.89,5.3-3.13S1126.82,197.89,1123.77,199.39Z"/><path class="cls-23" d="M1115.86,205c2.94,1.15,4.61,3.08,4.85,3s-1.27-2.58-4.48-3.88-6-.54-6-.31S1112.93,203.89,1115.86,205Z"/></g></svg>