<svg xmlns="http://www.w3.org/2000/svg" viewBox="0 0 1221.96 991.43"><defs><style>.cls-1{fill:#f2ebd1;}.cls-2{fill:#bb997a;}.cls-3{fill:#5e5f5f;}.cls-4{fill:#853324;}.cls-5{fill:#956243;}.cls-6{fill:#68461c;}.cls-7{fill:#070707;}.cls-8{fill:#825639;}.cls-9{fill:#a56129;}.cls-10{fill:#ccb631;}.cls-11{fill:#ec9a6f;}.cls-12,.cls-21{fill:#a99231;}.cls-13{fill:#465b65;}.cls-14{fill:#273339;}.cls-15,.cls-17,.cls-25,.cls-30,.cls-39{fill:none;}.cls-15{stroke:#5c5c5c;stroke-linecap:round;stroke-width:8.08px;}.cls-15,.cls-17,.cls-21,.cls-25,.cls-30,.cls-39,.cls-40{stroke-miterlimit:10;}.cls-16{fill:#f5a644;}.cls-17{stroke:#dc8327;stroke-width:2.73px;}.cls-18{fill:#5c5c5c;}.cls-19{fill:#474848;}.cls-20{fill:#684032;}.cls-21{stroke:#a99231;}.cls-22{fill:#010101;}.cls-23{fill:#13110f;}.cls-24{fill:#878787;}.cls-25{stroke:#010101;stroke-width:0.74px;}.cls-26{fill:#946343;}.cls-27{fill:#6d6d6d;}.cls-28{fill:#afdaef;}.cls-29{fill:#959696;}.cls-30{stroke:#6d6d6d;stroke-width:1.8px;}.cls-31{fill:#162c33;}.cls-32{fill:#7c2a17;}.cls-33{fill:#2a5059;}.cls-34{fill:#684133;}.cls-35{fill:#31160e;}.cls-36{fill:#f1eef7;}.cls-37{fill:#fff;opacity:0.14;}.cls-38{fill:#622515;}.cls-39,.cls-40{stroke:#161311;}.cls-39{stroke-width:0.94px;}.cls-40{fill:#151210;stroke-width:0.39px;}.cls-41{fill:#151312;}.cls-42{fill:#221f20;}.cls-43{fill:#cc8d2a;}.cls-44{fill:#653c2b;}.cls-45{fill:#311811;}.cls-46{fill:#f0ecf6;}.cls-47{fill:#e89843;}.cls-48{fill:#b6bc80;}.cls-49{fill:#8a8c5a;}.cls-50{fill:#231f20;}.cls-51{fill:#ce8d2a;}</style></defs><g id="Layer_3" data-name="Layer 3"><rect class="cls-1" x="1.3" y="-0.22" width="1221.96" height="991.43"/><polyline class="cls-2" points="0.3 991.21 1222.25 991.21 1222.25 783.34 0.3 783.34"/><path class="cls-3" d="M199.62,133.62c3.09-3.91,7.71-6.4,12.39-4.87.28-9.29,9.56-14.29,18.85-14.06,4.76.32,9.55,2.73,14.13,1.39,2.86-.83,5.09-2.92,7.59-4.63,10.43-6.93,25.75,2.54,33.79,12.15s5.4,19.71.44,31.2c-2.31,5.34-2.14,8.32-3.06,14.11-.87,5.46-4.73,15.49-5.07,20.94s7.87,11.6,2.34,11.75l-59.54-10.19c-9,1.29-14.54-1.7-18.69-9.79-2.69-5.49-1.68-5.68-1.76-11.77-.29-8-8.05-14.38-7.16-22.32C194.27,142.53,196.76,137.74,199.62,133.62Z"/><path class="cls-4" d="M192.2,132.9A93.62,93.62,0,0,1,240,128.07c26.58,4.35,38.76,21.42,42.82,33.41s-1.57,24.07-1.57,24.07,6.59,2.16,12.29-21.66c8.31-34.71-26.41-57.73-35.06-58.06S206.13,94.24,192.2,132.9Z"/></g><g id="Layer_1" data-name="Layer 1"><path class="cls-5" d="M248.65,740.4s33.31,15.36,46.15,25c15.09,11.28-1.86,7.16-1.86,7.16s-11.06,1.93-17.32,2.39-45.06-18.38-45.06-18.38l3.28-15.06Z"/><path class="cls-6" d="M315.4,774.11s2.07-5-1.36-6.24-18.82-3.89-20.69-3.57c.29,4-1.19,3.72-5.19,4.82s-9.18,2.88-19.33,1c-7.6-1.43-19-6.92-25.78-10.76-2.28-1.29-7.85-6.27-12.52-7-2.23,3.22-3.84,16.63-.21,18.92s25.27,4,25.27,4l19.11,4.44,18.1.93,7.63-.1,7.13-2.46Z"/><path class="cls-7" d="M229.39,770.4a76.33,76.33,0,0,0,16.37,2.21c17.4.45,23.2,2.59,29.06,4.32a76,76,0,0,0,10.28,2.48c20.25,3.39,30.28-6.52,30.7-6.81a1.92,1.92,0,0,1,.52.94,44.7,44.7,0,0,1-4,3.19c-3.72,2.63-12.34,7.55-28,5.23a73.2,73.2,0,0,1-10.05-1.84,76.19,76.19,0,0,0-18.68-3.37l0,2.78s-18.48.52-26.74-2.93C228.33,772.32,229.39,770.4,229.39,770.4Z"/><path class="cls-7" d="M228.71,774.11c11,2.77,23.06,2.93,26.89,3l0,2.45s-18.48.52-26.74-2.93A17.52,17.52,0,0,1,228.71,774.11Z"/><path class="cls-8" d="M1141.33,858.4s-19.21,18.81-30.74,23.58-15.38-3.48-15.38-3.48,10.47-15,10.71-17.58c1.09-11.71-28.58-43.84-28.58-43.84l51.23,22.24Z"/><path class="cls-8" d="M1041.49,613.43l11,108.93s20.17,7.27,37.58,41.07c13,25.33,38.49,75.89,38.49,75.89l-26.89,9.4s-23.24-29.26-57.34-64-42.83-31.62-53.59-58.45S950,520.66,950,520.66l66.18,6.45Z"/><path class="cls-8" d="M968.3,899.48s-25.47,8.63-37.93,7.92S918,897.6,918,897.6s15.41-9.46,17.26-11.2c6.6-6.21-6.75-51.89-6.75-51.89L965.18,859Z"/><path class="cls-8" d="M984.51,635.44l-31.33,97.84s10.59,25,10.49,63c-.12,45.24,2.89,80.66,2.89,80.66l-29.75-3.76s-8.31-36-24-82.12-19.58-46.91-17.64-75.76,47.06-203.13,47.06-203.13l56.84,34.51Z"/><path class="cls-9" d="M917.52,478.51l-9.47,79.39c-6.39,26-5.28,57.1-17.85,80.43l-23.72,48.34s49.64,32,68.84,32c8.91,0,20-1.74,29.27-3.61a115.07,115.07,0,0,1,41.37-.83l.39.06,82.55-17.67s-18.49-66.64-9.25-117.36-17.77-97.87-32-119.17Z"/><polygon class="cls-5" points="593.47 890.38 581.81 827.97 624.9 822.54 625.62 895.36 592 892.46 593.47 890.38"/><path class="cls-5" d="M212,195.38s-2.09,21.08-8.56,35.52c-.9,2-14.43,9.15-14.43,9.15l18.93,7.52c10.71,3.09,35,3.93,45.64.75l9.05-5.06s-10.91-3-11.31-5.6,2.62-21.7,2.62-21.7"/><path class="cls-10" d="M308.46,299.92l24.08,79.14c4.25,10.73,9.54,30.47-1.31,34.42h0c-9.83,3.58-24.44-1.58-29.07-11L263.47,318.1Z"/><path class="cls-5" d="M285.52,387.58a19.67,19.67,0,0,0,.29,6.48Z"/><path class="cls-5" d="M321.49,379.59c-.08.38-.72.11-1.21.11a23.33,23.33,0,0,0-9.32,1.9c-5.33,2.36-9.34,6.68-12.38,11.56a36.57,36.57,0,0,0-4.12,9.85,28,28,0,0,0,28.62,13.14l69.76-11.48,2-19.73Z"/><g id="freepik--character-2--inject-1332"><path class="cls-11" d="M229.5,277.46a30.88,30.88,0,0,1-2-3.62,13.36,13.36,0,0,1-.95-4.29,13.19,13.19,0,0,1,.77-5.28,14,14,0,0,1,1.92-3.49l.13-.15-.1-.22c-1.05-2.57-1.87-5-2.53-6.65a11.08,11.08,0,0,0-1.18-2.57,1.61,1.61,0,0,0,.17.73l.64,1.93c.56,1.7,1.23,4,2.34,6.85l0-.37a13.57,13.57,0,0,0-2.83,9.3,13,13,0,0,0,1.16,4.42,11.86,11.86,0,0,0,1.54,2.62A3.94,3.94,0,0,0,229.5,277.46Z"/><path class="cls-11" d="M205.31,270.76a19.66,19.66,0,0,0-2.22-2.25,11.45,11.45,0,0,1-3.65-6.27c-.18-1.41,0-2.84-.23-4.18a4.41,4.41,0,0,0-1.67-3.11,2.75,2.75,0,0,0-2.34-.43c-.56.19-.75.49-.73.51a3.79,3.79,0,0,1,.79-.26,2.67,2.67,0,0,1,2,.55,4.24,4.24,0,0,1,1.31,2.83c.17,1.23,0,2.66.17,4.18a9,9,0,0,0,1.65,3.91,16.82,16.82,0,0,0,2.37,2.55A13,13,0,0,0,205.31,270.76Z"/><path class="cls-11" d="M212.87,265.4a31.9,31.9,0,0,0-3.24-2.67,19.91,19.91,0,0,1-6.2-7.68,11.29,11.29,0,0,1-.7-2.7,17.88,17.88,0,0,1,0-2.64,5.73,5.73,0,0,0-1.33-4.42,2.52,2.52,0,0,0-1.77-.73,2.39,2.39,0,0,0-1.35.36c-.66.45-.69,1-.67,1a1.85,1.85,0,0,1,.79-.72,2.25,2.25,0,0,1,2.6.46,5.34,5.34,0,0,1,1.06,4.08,17.77,17.77,0,0,0,0,2.73,11.15,11.15,0,0,0,.73,2.89,18.73,18.73,0,0,0,6.5,7.79c1.06.77,1.93,1.36,2.55,1.75A3.52,3.52,0,0,0,212.87,265.4Z"/><path class="cls-11" d="M201,238.72a8.19,8.19,0,0,1,2.18,2.93,18.13,18.13,0,0,1,1.06,3.83,21.57,21.57,0,0,0,1.38,4.94,18.31,18.31,0,0,0,5.75,7.23,15.65,15.65,0,0,0,2.4,1.48,3.51,3.51,0,0,0,1,.36c0-.11-1.28-.73-3.07-2.23a19.45,19.45,0,0,1-5.43-7.14,23,23,0,0,1-1.29-4.75,16.1,16.1,0,0,0-1.25-4A4.75,4.75,0,0,0,201,238.72Z"/></g><path class="cls-12" d="M282.3,739.43l21.15-229.89L295,440.69H155.16L140.7,506.92l28.89,235.51s44.87,2.94,61.49,2.94S282.3,739.43,282.3,739.43Z"/><path class="cls-5" d="M253.8,239.94l-53.41-3.44L193.67,256s13.24,13.49,14.65,14.16,34.16,9.28,34.16,9.28S280.37,267,279.86,267,253.8,239.94,253.8,239.94Z"/><path class="cls-13" d="M201.52,258.15s18.75,14.07,34.56,12.5a60.44,60.44,0,0,0,27.88-11L283.68,325,252.82,447.48l-49.2.58-2-119.88Z"/><path class="cls-10" d="M313.32,451.9a364.62,364.62,0,0,0-11.12-54.13l-2.38-13.1,6-50.86c2.65-12.43,2.93-21.53-.17-26.61L276.93,250,253.87,239.3c1,1.89,7.87,15.74-11.05,20.44h-4.66c-24.29-1.41-40.6-23.73-40.6-23.73l-5.88,2.41L157.21,363.1s-21.36,51.08-22.71,74.08,2.5,95.23,2.5,95.23l89.89,1.19.07-.76,76.48,2.08S316.54,479.54,313.32,451.9Z"/><path class="cls-14" d="M206.08,408.35a17.18,17.18,0,0,1-2.71-.89c-1.06-.37-2.09-.79-3.1-1.26-1.18-.52-2.56-1.11-4-1.87a96.85,96.85,0,0,1-9.94-5.84,129.6,129.6,0,0,1-11.19-8.63,154.82,154.82,0,0,1-17.73-18.48c-2.08-2.54-3.7-4.65-4.84-6.14A19.57,19.57,0,0,1,151,362.9a15.35,15.35,0,0,1,1.87,2.08c1.15,1.42,2.84,3.45,5,5.94a176.48,176.48,0,0,0,17.84,18.23,134.75,134.75,0,0,0,11.06,8.6,96.66,96.66,0,0,0,9.78,6c1.41.81,2.76,1.42,3.92,2s2.18,1,3,1.4A19.25,19.25,0,0,1,206.08,408.35Z"/><path class="cls-10" d="M191.68,238.42s-35.57,5.44-47.08,24.17-33.72,69.23-34.48,80.93c-1.61,24.68,26.53,55.34,26.53,55.34l36.73-28.67L162,357.33,176.12,306Z"/><path class="cls-5" d="M183.84,743.31s-.07,10.92-.07,13l19.35,6.36,7.51-9.78.88-8.34Z"/><path class="cls-5" d="M425.73,381.91a93,93,0,0,0-11.7-4.17,2.79,2.79,0,0,1-.74-.35,13.57,13.57,0,0,1-6.62.64c-2.49-.34-4.91-1.08-7.39-1.47l-.94,1.07-12.56,7.68c1.3,8.28-1.51,15.21,6.09,19.52l6.37.77,16.54,3.59s4.47-1.2,5-2.41a3.83,3.83,0,0,0,0-2.5l3.14-1.06a8.13,8.13,0,0,0,1.49-2.72c.38-1.38-1.49-3.11-1.49-3.11l.86-.31a3.67,3.67,0,0,0,2.35-2.8l.08-.62a6,6,0,0,0-1.13-3.41s3-1,3.36-2.25A6,6,0,0,0,425.73,381.91Z"/><path class="cls-5" d="M411.8,378.91c-.18-.43-1.6-3-1.53-3.45a2.71,2.71,0,0,1,.09-.41,38.71,38.71,0,0,0,2-11.53c-.15-4.25-2.35-5.62-3.87-6.08a1.21,1.21,0,0,0-1.51.82,1.55,1.55,0,0,0,0,.21,65.17,65.17,0,0,1-1.29,8.09c-.41,1.32-4.34,7.25-6.78,10.87C402.8,377.71,408.22,380.56,411.8,378.91Z"/><line class="cls-15" x1="435.02" y1="717.3" x2="410.88" y2="328.59"/><polygon class="cls-16" points="390.14 720.95 397.08 791.79 487.01 791.79 475.66 720.95 390.14 720.95"/><line class="cls-17" x1="409.73" y1="791.79" x2="399.46" y2="720.95"/><line class="cls-17" x1="423.17" y1="791.79" x2="412.9" y2="720.95"/><line class="cls-17" x1="436.61" y1="791.79" x2="426.34" y2="720.95"/><line class="cls-17" x1="450.05" y1="791.79" x2="439.78" y2="720.95"/><line class="cls-17" x1="463.5" y1="791.79" x2="453.22" y2="720.95"/><line class="cls-17" x1="476.94" y1="791.79" x2="466.66" y2="720.95"/><path class="cls-18" d="M391.15,708.34h83a9,9,0,0,1,9,9V727.7a0,0,0,0,1,0,0h-101a0,0,0,0,1,0,0V717.38A9,9,0,0,1,391.15,708.34Z"/><line class="cls-15" x1="239.49" y1="396.35" x2="345.71" y2="751.77"/><polygon class="cls-19" points="342.38 750.31 342.38 791.79 397.58 791.79 392.68 750.31 342.38 750.31"/><polygon class="cls-18" points="317.93 750.31 317.93 791.79 381.93 791.79 393.45 791.79 350.37 750.31 317.93 750.31"/><path class="cls-5" d="M171.83,371.4c-3,2.68-9.61,6.82-12.58,9.56-6.4,5.89-12.42,8.72-18.47,15l77,43.4,9.17-19.17Z"/><path class="cls-5" d="M223.61,418.53l19.82-4.09s22,5.15,24.52,8.15,5.49,7.32-.11,9.85c0,0,2.14,6.47-1.13,7.9s-6.84-.93-6.84-.93,4,5.41.26,7.61-5.26.26-5.26.26-.46,3-2.38,2.76a52.44,52.44,0,0,1-7.9-2.86s-10.85.66-16.59-1.32a27.76,27.76,0,0,1-10.31-7.24Z"/><path class="cls-20" d="M256.31,428.51a14.57,14.57,0,0,1,11.13,3.65"/><path class="cls-20" d="M406.15,396.23a23,23,0,0,0-2.08-3.48,21.32,21.32,0,0,0-3-2.75A9,9,0,0,1,406.15,396.23Z"/><path class="cls-5" d="M419.23,381.65,421,406.73l-.68,1.72s-2.85,1-3.78.18-7.06-4.94-7.06-4.94l-.18-21.83s.23-.53,2.84-.76A36.11,36.11,0,0,1,419.23,381.65Z"/><path class="cls-20" d="M424.9,389.92a1.2,1.2,0,0,1-.38,0l-1.1-.12-4-.5-5.95-.78A31,31,0,0,1,410,388a4.13,4.13,0,0,1-3-2.32,2.9,2.9,0,0,1,0-2,4.16,4.16,0,0,1,1.12-1.57,5.5,5.5,0,0,1,3.36-1.25,21.7,21.7,0,0,1,3.22.15l2.76.26,4,.39,1.1.12c.24,0,.37,0,.37.08h-.38l-1.1-.07-4-.27-2.75-.25a22.25,22.25,0,0,0-3.16-.1,5.12,5.12,0,0,0-3.16,1.16,2.72,2.72,0,0,0,.08,4.57,5.15,5.15,0,0,0,1.65.72c1.17.29,2.36.39,3.48.57l5.89.89,4,.61,1.08.18Z"/><path class="cls-20" d="M422.41,396.91a3,3,0,0,1-.85-.08l-2.31-.36c-1.95-.34-4.63-.89-7.54-1.64a19.87,19.87,0,0,1-2.13-.61,4.25,4.25,0,0,1-1.74-1.18,3.25,3.25,0,0,1-.37-3.44,3.06,3.06,0,0,1,1.77-1.52,2.82,2.82,0,0,1,.64-.14c.15,0,.22,0,.22,0a6.21,6.21,0,0,0-.81.24,3.28,3.28,0,0,0-1.56,1.56,3,3,0,0,0,.41,3.1,3.84,3.84,0,0,0,1.62,1.07c.65.25,1.37.41,2.09.61,2.91.73,5.56,1.33,7.48,1.72l2.29.49A3.57,3.57,0,0,1,422.41,396.91Z"/><path class="cls-20" d="M419.09,402.86a5.12,5.12,0,0,1-.77-.2l-2.05-.67-6.72-2.36a16.74,16.74,0,0,1-1.93-.75,3.62,3.62,0,0,1-1.48-1.26,2.15,2.15,0,0,1-.29-1.78,2.35,2.35,0,0,1,.93-1.24,3.27,3.27,0,0,1,2.11-.52,2.76,2.76,0,0,1,.8.15h-.79a3.32,3.32,0,0,0-1.94.55,2.13,2.13,0,0,0-.79,1.12,1.78,1.78,0,0,0,.29,1.51,3.46,3.46,0,0,0,1.36,1.13,17.45,17.45,0,0,0,1.83.67c2.62.95,5,1.8,6.68,2.45l2,.78A2.93,2.93,0,0,1,419.09,402.86Z"/><path class="cls-20" d="M415.53,407.88a13.1,13.1,0,0,1-2-1.17c-1.23-.77-2.9-1.87-4.74-3.07l-1.34-.89a6.16,6.16,0,0,1-1.22-.95,2.09,2.09,0,0,1-.61-1.29,1.45,1.45,0,0,1,.45-1.18,2,2,0,0,1,1.69-.46c.41.06.6.22.58.23s-.22-.07-.6-.09a2,2,0,0,0-1.49.5,1.13,1.13,0,0,0-.33,1,1.94,1.94,0,0,0,.56,1.1,6.24,6.24,0,0,0,1.17.87l1.34.89c1.84,1.2,3.49,2.32,4.69,3.15A14.85,14.85,0,0,1,415.53,407.88Z"/><path class="cls-21" d="M183.85,251.19s12.34,14.86,7.83,28.22-29.63,58-29.63,58l11.33,32.73h-1.49l-11-33.21s31.66-55.43,30.81-64.42C191.68,272.56,192.39,265.52,183.85,251.19Z"/><path class="cls-10" d="M253.87,239.3s34.74,9.24,39.17,20.44c6.73,17,15.63,40.73,15.63,40.73L288.6,313.21Z"/><path class="cls-21" d="M308.73,323.37c-.46-4.21-2-8.32-3.31-12.32q-2.19-6.65-5-13.09c-3.81-8.9-8.28-17.5-12.95-26-2.24-4.07-4.53-8.12-6.82-12.16,3.74,7.7,7.1,15.58,11.05,23.18,4,7.79,7.89,15.38,10.83,23.65,3.48,9.75,5.72,14,4.19,22.52S299.52,348,299.52,348l.88.62S309.61,331.59,308.73,323.37Z"/><path class="cls-20" d="M251.61,232.35s-4.42-1-7.45-2-8.3-1.18-21.75-14.31c0,0,3.27,15.36,21.17,19.67,0,0,4.62,1.25,7.74.69Z"/><path class="cls-5" d="M272.93,141.38l.19.16a1.66,1.66,0,0,1-.16-.33Zm7.48,2.66.32.37,0-.14S280.44,143.87,280.41,144Zm-59.8,70.12c6.17,8.39,16.3,17.78,27.75,18.94a17.68,17.68,0,0,0,11.54-3.39c4.84-3.41,9.92-6.86,13.76-11.14a35.17,35.17,0,0,0,7.51-11.8c2.16-5.26,2.35-6.69,2.52-12.22a54.74,54.74,0,0,1,.93-8.49c.58-2.67,3.3-13.13,4.41-19.33s-2.16-18.68-2.16-18.68c-.11-1.74-2.56-1.19-3.28-2.67l-.73-.11a.72.72,0,0,1,.26.73,5.91,5.91,0,0,1-2.39-1.59v0a2.85,2.85,0,0,1-3-1.3c0,.17.11.53.3.56a3.74,3.74,0,0,1-2.79-1.45c0,.17.11.53.08.7a6.6,6.6,0,0,1-2.2-1.4c.13.25,4.37.23,4.35.34-1.12,0,.08.56-.71-.42l-.82-.76c-.94,0-1,.59-1.62-.19.16.19-.23-1.93-.26-1.77-1.1-.16-.79-.19-1.63-.83,0,.17-3.16.65-3.19.81-.92-.13-.8.75-1.43,0,.16.2.77-.6.92-.41-1.12,0-1.64.65-2.43-.33.15.2-3.36-2.39-3.36-2.39-1.12,0-1,.38-1.81-.43.32.39-5-1.07-4.9-.71-.92-.13,1.25,3.63.59,3,0,.17-2-.82-2-.82-.95,0,.31,1.08-.33.3,0,.17.09.7.27.73a3.8,3.8,0,0,1-3.41-1c.32.39.45.76.61,1a3.59,3.59,0,0,1-2.5-.88c0,.16.27.72.45.75a3.66,3.66,0,0,1-2.88-.77c0,.17.29.56.45.75a2.63,2.63,0,0,1-2.15-.66l.45.75a5.7,5.7,0,0,1-2.39-.35c0,.17.32.39.29.56a6.84,6.84,0,0,1-1.81-.44c0,.16.48.58.29.56-.73-.11-1.33.14-2.2-.33.16.19.29.56.45.75a5.09,5.09,0,0,1-2.18-.49,1.27,1.27,0,0,0,.27.72c-.73-.1-1.33.15-2.2-.32,0,.16.29.56.45.75a9.51,9.51,0,0,1-2.2-.33c0,.17.31.4.47.59a6.09,6.09,0,0,1-2.36-.52c0,.33.11.53.08.7-.55-.09-.89-.31-1.44-.39l-1,.2c-3.07,3-12.3-1.17-12.3-1.17-6.37,3.7-2.22,28.1-2.51,31.33s-2.25,3.85-2.25,3.85c-.74-1.32-2.38,2-2.73.57-.37-1.26.22-2.72-.16-4-1.24-2.94-5-2.65-7.31-1.26l-.42.5c-3.38,3.39-2.06,15.68-.5,19.51-.45,7.25,5.3,11.93,9.6,7.28l.59,2.94"/><path class="cls-22" d="M260.36,201.51a5.29,5.29,0,0,1-4.73-1c-.28-.23-1.31-.2-.92.13a7.5,7.5,0,0,0,6.46,1.27c.18-.07.17-.2,0-.31a1.26,1.26,0,0,0-.78-.08"/><path class="cls-22" d="M254.18,200.15a8.75,8.75,0,0,0-2.84-1.17.64.64,0,0,0-.47.08c-.1.06-.13.16,0,.24a3.22,3.22,0,0,0,1.56.61.65.65,0,0,0,.53-.12c.11-.12,0-.24-.18-.25a2.55,2.55,0,0,1-1.26-.5l-.5.32a7.54,7.54,0,0,1,2.53,1,.62.62,0,0,0,.55,0c.12,0,.26-.18.11-.28"/><path class="cls-22" d="M250.12,199.67a4.11,4.11,0,0,1-3-1.91c-.69-1.47.45-3.48,2.07-4.12.17-.07.11-.2,0-.26a.94.94,0,0,0-.66,0,4.18,4.18,0,0,0-2.5,3.47,3.3,3.3,0,0,0,2.4,2.75,6.38,6.38,0,0,0,1.29.38c.18,0,.51,0,.62-.1s0-.22-.21-.25"/><path class="cls-22" d="M262.63,201.24a.16.16,0,0,1,.19-.2,1.46,1.46,0,0,0,1-.17c.08.15.17.29.25.43a4.25,4.25,0,0,0-2,.39.34.34,0,0,1-.37-.12c-.07-.07-.13-.23,0-.29"/><path class="cls-22" d="M261.71,201.28a4.56,4.56,0,0,1,2.19-.42.37.37,0,0,1,.3.19.17.17,0,0,1,0,.24"/><path class="cls-22" d="M265.08,201.77a2.48,2.48,0,0,0,2.28-1.13,3.49,3.49,0,0,0-.36-3.94.14.14,0,0,1,.1-.24.45.45,0,0,1,.39.19,3.91,3.91,0,0,1,.78,3.42,2.77,2.77,0,0,1-2.13,2.08,3,3,0,0,1-.89,0,.43.43,0,0,1-.36-.25c0-.15.08-.19.19-.18"/><path class="cls-23" d="M276.37,179.93a2.88,2.88,0,0,1,2.92.94,2.77,2.77,0,0,1,.47,1.33,2.66,2.66,0,0,1-1,2.32,2.49,2.49,0,0,1-2.9.07,2.76,2.76,0,0,1-.87-3.37,2.45,2.45,0,0,1,1.37-1.29"/><path class="cls-23" d="M266.76,182s5.55-3.17,8.12-3c3.75.18,8,2.91,9,4.95,0,0-5.57-4-8.22-4S266.76,182,266.76,182Z"/><path class="cls-23" d="M245.43,175.7a3.48,3.48,0,0,0-3.35-.29,2.49,2.49,0,0,0-.69,3.6,2.49,2.49,0,0,0,2.76.92,2.75,2.75,0,0,0,1.81-3c0-.21.23-.56-.53-1.11"/><path class="cls-23" d="M251.46,179.39s-5.07-4.4-7.81-4.89c-4-.72-9.15.92-10.74,2.65,0,0,6.84-2.53,9.65-2S251.46,179.39,251.46,179.39Z"/><path class="cls-24" d="M268.63,169.06l-.21,2.27-.15,1.73c2-.31,3.66-.47,4.92-.56,2.68-.19,4.05-.28,5.56.12a14.33,14.33,0,0,1,3.39,1.44,9.07,9.07,0,0,1,1.76,1.15c1.2,1.06,1.63,2.17,1.86,2.09s0-1-.06-1.12a8.75,8.75,0,0,0-2.4-4.09,10.26,10.26,0,0,0-3.4-2c-1.48-.53-5.64-1.21-11.27-1.06"/><path class="cls-24" d="M255.49,166.73c-.18.73-.37,1.47-.55,2.21-.14.56-.29,1.12-.43,1.68-1.93-1-3.61-1.71-4.88-2.24-2.69-1.11-4.07-1.67-5.76-1.82a17.53,17.53,0,0,0-4,.17,10.2,10.2,0,0,0-2.19.48c-1.6.57-2.42,1.47-2.62,1.32s.38-.95.43-1a9,9,0,0,1,3.85-3,11.86,11.86,0,0,1,4.17-.67c1.7,0,6.21.83,12,2.93"/><path class="cls-25" d="M210.62,183.25c-3.27-10-6.17-10.3-6.17-10.3s-2.14,2.06-1.56,6.62"/><path class="cls-25" d="M209.05,184c-2.58-.48-1,4.56-1.82,5.64s-1.51-2-1.52-5.74c0,0,.42-4.95,3-5.65"/><path class="cls-20" d="M249.14,156.17s6.1,3.71,12.57,4.08,14.49,0,14.49,0"/><polygon class="cls-10" points="332.94 380.11 294.05 393.61 304.78 371.06 332.94 380.11"/><path class="cls-21" d="M304.78,338s-6,10.94-7.12,15.6,4.62,43.29,4.62,43.29l1.69,7.3s-5.63-40.45-4.67-49.28A50.93,50.93,0,0,1,304.78,338Z"/><path class="cls-26" d="M663,425.48a10.82,10.82,0,0,1,13.66-1.65c15.66,9.9,47.37,17.44,61.28,53.06,4.65,11.91,7.82,32.9,5.44,47.57-4.34,26.77-9.29,32.83-14.85,46.53-18.37,45.24-38.06,95.53-36.46,106.62,2.61,18.17,21.11,22.19,35.31,53.35,11.73,25.76,33.93,77.49,40.8,94.45,2,5,12.56,14.31,8,17.05-8.53,5.08-.35,7.59-12.54,9.9-4.16.79-8.38,7.09-10.82,3.62-17.36-24.69-128-134.5-131.8-151.59-4.3-19.37-6.47-69,2.54-111.53,6-28.34,8.34-44.79,9.23-52.62a10.77,10.77,0,0,0-3.42-9.19c-7.56-7-16.65-23.55-27.68-42.8a10.86,10.86,0,0,1,3.56-14.58C621.4,463.38,649,440.24,663,425.48Z"/><path class="cls-27" d="M46,696.5c.8-1.9,2.61-2.5,4.29-3.18a56.16,56.16,0,0,1,13.29-3.2,217.8,217.8,0,0,1,45.58-1.44,128.23,128.23,0,0,1,22.16,3.09,24.14,24.14,0,0,1,7.18,2.69c1.08.67,2.26,1.36,2,3a8.53,8.53,0,0,1-6.92,4,5.51,5.51,0,0,0-.76-.31c-10.27-2.85-20.82-3.54-31.38-3.94a212.84,212.84,0,0,0-33.86,1.28,79.54,79.54,0,0,0-15.19,3,11.41,11.41,0,0,1-4.73-1.95C46.62,698.92,45.63,698,46,696.5Z"/><path class="cls-28" d="M133.61,701.46c-2.73,1.52-5.81,1.85-8.8,2.31A227.09,227.09,0,0,1,98.88,706c-6.26.25-12.5.06-18.71-.26a131.4,131.4,0,0,1-26.39-3.62,11.5,11.5,0,0,1-1.36-.57,79.54,79.54,0,0,1,15.19-3,212.84,212.84,0,0,1,33.86-1.28c10.56.4,21.11,1.09,31.38,3.94A5.51,5.51,0,0,1,133.61,701.46Z"/><path class="cls-29" d="M140.53,697.42a8.53,8.53,0,0,1-6.92,4c-2.73,1.52-5.81,1.85-8.8,2.31A227.09,227.09,0,0,1,98.88,706c-6.26.25-12.5.06-18.71-.26a131.4,131.4,0,0,1-26.39-3.62,11.5,11.5,0,0,1-1.36-.57,11.41,11.41,0,0,1-4.73-1.95c-1.07-.66-2.06-1.55-1.7-3.08a13.93,13.93,0,0,0,.34,7.33c.23,1.9.47,3.8.7,5.69,0,.56,0,1.12.11,1.67.49,3.92,1,7.85,1.47,11.78q1.64,13.29,3.25,26.56c1.16,9.46,2.42,18.91,3.42,28.39a8.15,8.15,0,0,0,4.21,6.74A30,30,0,0,0,68.38,788a116.93,116.93,0,0,0,47.68.39,32.1,32.1,0,0,0,11.42-4.14,7.62,7.62,0,0,0,3.67-6c.84-7.87,1.89-15.72,2.85-23.58q1.92-15.69,3.83-31.38c.56-4.69,1.08-9.39,1.62-14.08a1.17,1.17,0,0,0-.2.06,1.17,1.17,0,0,1,.2-.06l.69-5.37C141,701.73,140.64,699.57,140.53,697.42Zm-21,39.57c1.23-.94,2.41-1.91,3.54-2.94-1.13,1-2.31,2-3.54,2.94-.24.18-.49.35-.75.52C119.05,737.34,119.3,737.17,119.54,737Zm-48.8.67a3.53,3.53,0,0,0-.56,0A3.53,3.53,0,0,1,70.74,737.66Zm-2.31.37h0l-1.81-1.33Zm-8.05-7c-.77-.84-1.5-1.7-2.2-2.58C58.88,729.34,59.61,730.2,60.38,731ZM48.72,705.43c2.07.61,4.11,1.33,6.2,1.88-2.09-.55-4.13-1.27-6.2-1.88a2.86,2.86,0,0,0-1.37-1.19A2.86,2.86,0,0,1,48.72,705.43Zm70.07,33.92a3.6,3.6,0,0,1-.66,2.25,3.6,3.6,0,0,0,.66-2.25l.17,0Z"/><path class="cls-30" d="M87.19,716.81S63,746.15,47.35,742.54"/><circle class="cls-27" cx="87.19" cy="716.81" r="4.25"/><path class="cls-31" d="M710.59,676.37s39.89-106.71,39.6-143.29c-.29-37-9-56.19-9-56.19l-139.84,5.2S542.13,649.61,542.3,694.55c.09,24.81,9.53,54.94,19.76,85,3.13,14.43,1.08,39.22-.89,52.43,0,0,31.1,14,52.82,9.63h0a40.58,40.58,0,0,0,13.43-1.21c19.19-5.68,16.37-12.85,31.55-17.87s18.62-1.3,34.69-2,28.1-11.25,34.71-22S760.71,771,760.71,771,737,695.88,710.59,676.37Z"/><path class="cls-8" d="M949.34,878.68S910.18,896.75,895.08,908c-17.75,13.26,2.17,8.42,2.17,8.42s13,2.27,20.38,2.81,53-21.61,53-21.61l-3.86-17.72Z"/><path class="cls-32" d="M870.85,918.34s-2.44-5.83,1.59-7.35,22.14-4.57,24.34-4.19c-.35,4.64,1.4,4.36,6.1,5.66s10.79,3.38,22.73,1.14c8.95-1.69,22.3-8.15,30.32-12.66,2.69-1.51,9.24-7.38,14.73-8.19,2.63,3.79,4.51,19.56.25,22.26s-29.73,4.64-29.73,4.64l-22.47,5.24L897.43,926l-9-.12-8.38-2.9Z"/><path class="cls-7" d="M972,914c-2.75.92-11.63,2.4-19.25,2.59-20.46.54-27.28,3.05-34.17,5.08a89,89,0,0,1-12.09,2.92c-23.81,4-35.61-7.67-36.1-8a2.1,2.1,0,0,0-.62,1.1,51.87,51.87,0,0,0,4.66,3.75c4.38,3.1,14.51,8.88,33,6.15,5.23-.77,8.37-1.15,11.81-2.17a90.74,90.74,0,0,1,22-4l0,3.28s21.73.61,31.44-3.45C973.24,916.22,972,914,972,914Z"/><path class="cls-7" d="M972.8,918.33c-13,3.26-27.12,3.44-31.63,3.5l0,2.88s21.73.61,31.44-3.45A19.65,19.65,0,0,0,972.8,918.33Z"/><path class="cls-8" d="M1114.71,849s-27.33,33.37-36,50.12c-10.16,19.68,5.64,6.62,5.64,6.62s12.7-3.65,19.56-6.39,38.21-42.6,38.21-42.6l-11.22-14.25Z"/><path class="cls-32" d="M1061.45,919s-4.74-4.17-1.78-7.31,17.91-13.78,20.06-14.41c1.71,4.33,3.16,3.32,8,2.43s11.19-1.68,20.94-8.92c7.31-5.42,16.49-17.07,21.74-24.64,1.75-2.53,5.08-10.67,9.66-13.8,4,2.26,12.61,15.62,10,19.91s-24.71,17.17-24.71,17.17L1107.36,904l-18.67,10.28-8.12,3.81-8.81,1.07Z"/><path class="cls-7" d="M1150.51,870.86c-2.08,2-9.42,7.24-16.18,10.75-18.17,9.43-23.21,14.67-28.52,19.51a89.17,89.17,0,0,1-9.59,7.91c-19.67,14-35.38,8.67-36,8.59a2.21,2.21,0,0,0-.08,1.26,55.9,55.9,0,0,0,5.83,1.33c5.3.87,16.94,1.65,32.34-8.88,4.37-3,7-4.7,9.68-7.12a90.72,90.72,0,0,1,18-13.16l1.46,2.93s19.81-9,26.77-16.84C1152.62,872.34,1150.51,870.86,1150.51,870.86Z"/><path class="cls-7" d="M1153.14,874.43c-10.23,8.6-22.89,15-26.92,17l1.29,2.58s19.81-9,26.77-16.84A21.52,21.52,0,0,0,1153.14,874.43Z"/><path class="cls-5" d="M606.37,884.05S567.2,902.12,552.1,913.4c-17.75,13.26,2.18,8.42,2.18,8.42s13,2.27,20.38,2.81,53-21.61,53-21.61l-3.86-17.72Z"/><path class="cls-33" d="M527.87,923.71s-2.43-5.83,1.6-7.35,22.13-4.57,24.34-4.19c-.35,4.64,1.39,4.36,6.1,5.66s10.79,3.38,22.73,1.14c8.94-1.69,22.3-8.15,30.32-12.66,2.68-1.51,9.23-7.38,14.73-8.19,2.62,3.79,4.51,19.56.25,22.26S598.21,925,598.21,925l-22.47,5.24-21.29,1.09-9-.12-8.39-2.9Z"/><path class="cls-7" d="M629,919.34c-2.76.92-11.63,2.4-19.25,2.59-20.47.54-27.28,3.05-34.18,5.08a88.48,88.48,0,0,1-12.08,2.92c-23.82,4-35.61-7.67-36.11-8a2.24,2.24,0,0,0-.62,1.1,55.39,55.39,0,0,0,4.66,3.75c4.38,3.1,14.52,8.88,33,6.15,5.23-.77,8.38-1.15,11.82-2.17a90.74,90.74,0,0,1,22-4l0,3.28s21.73.61,31.44-3.45C630.27,921.59,629,919.34,629,919.34Z"/><path class="cls-7" d="M629.83,923.7c-13,3.26-27.13,3.44-31.63,3.5l0,2.88s21.73.61,31.44-3.45A22.77,22.77,0,0,0,629.83,923.7Z"/><path class="cls-5" d="M759.62,843.12s-24.74,35.34-32.1,52.69c-8.65,20.4,6.12,6.17,6.12,6.17s12.39-4.58,19-7.83,34.89-45.37,34.89-45.37l-12.26-13.36Z"/><path class="cls-33" d="M711.78,916.92s-5-3.81-2.32-7.15,16.82-15.1,18.91-15.88c2,4.18,3.41,3.06,8.12,1.81s11-2.51,20.21-10.46c6.88-6,15.16-18.27,19.82-26.22,1.56-2.65,4.26-11,8.6-14.48,4.18,2,13.75,14.62,11.43,19.1s-23.34,19-23.34,19l-16.78,15.84-17.84,11.66-7.81,4.41-8.7,1.73Z"/><path class="cls-7" d="M797,862.19c-1.92,2.19-8.84,7.93-15.33,11.94-17.4,10.77-22,16.38-27,21.61a89.52,89.52,0,0,1-9,8.61c-18.56,15.44-34.62,11.31-35.22,11.27a2.17,2.17,0,0,0,0,1.26,54.22,54.22,0,0,0,5.92.9c5.34.47,17,.36,31.57-11.3,4.13-3.3,6.66-5.21,9.12-7.82a89.73,89.73,0,0,1,17-14.49l1.67,2.81s19.09-10.42,25.43-18.81C799.17,863.51,797,862.19,797,862.19Z"/><path class="cls-7" d="M799.85,865.55c-9.55,9.35-21.69,16.64-25.56,19l1.47,2.47s19.09-10.42,25.43-18.81A21.06,21.06,0,0,0,799.85,865.55Z"/><path class="cls-5" d="M199.67,746.93s33.3,15.36,46.14,25C260.91,783.15,244,779,244,779s-11.06,1.93-17.33,2.39-45-18.38-45-18.38L184.86,748Z"/><path class="cls-6" d="M266.41,780.64s2.08-4.95-1.35-6.24-18.82-3.89-20.7-3.57c.3,3.95-1.18,3.71-5.18,4.81s-9.18,2.88-19.33,1c-7.61-1.43-19-6.92-25.79-10.76-2.27-1.29-7.84-6.27-12.52-7-2.23,3.22-3.83,16.63-.21,18.92s25.28,4,25.28,4l19.11,4.45,18.09.93,7.63-.1,7.14-2.46Z"/><path class="cls-7" d="M180.41,776.93a75.63,75.63,0,0,0,16.37,2.2c17.4.46,23.2,2.59,29.06,4.33a76,76,0,0,0,10.28,2.48c20.24,3.39,30.27-6.53,30.69-6.81a1.86,1.86,0,0,1,.53.94,46.46,46.46,0,0,1-4,3.19c-3.73,2.63-12.34,7.55-28,5.23a71.25,71.25,0,0,1-10-1.85,77.28,77.28,0,0,0-18.68-3.37l0,2.79s-18.49.52-26.74-2.93C179.35,778.85,180.41,776.93,180.41,776.93Z"/><path class="cls-7" d="M179.72,780.64c11,2.77,23.07,2.93,26.9,3l0,2.45s-18.49.52-26.74-2.93A17.67,17.67,0,0,1,179.72,780.64Z"/><path class="cls-34" d="M255.59,206.65c-6.24-1-16.23-3.37-16.23-3.37s-.17,13.3,14.29,15.6,18.42-10.41,18.42-10.41S261.83,207.64,255.59,206.65Z"/><path class="cls-35" d="M255.65,206.66c-3-.47-14.84-2.9-14.84-2.9s2.86,7.53,13.59,9.23c11.63,1.85,16.13-4.41,16.13-4.41Z"/><path class="cls-36" d="M255.71,207.15c-3-.48-11.91-2.44-11.91-2.44s2.71,3.94,11.6,5.35,12.26-1.46,12.26-1.46Z"/><path class="cls-34" d="M272.87,207.61a22.5,22.5,0,0,1-3.57-.16c-2.42-.62-3.85-1.54-5.61-2-3-.73-5.12.23-6.44,0s-3.05-1.78-6.13-2c-1.8-.14-6.31-.16-8.8-.33a21.93,21.93,0,0,1-3.46-.95c-.45,0-.14,3.57,16.46,6.21S273.29,207.8,272.87,207.61Z"/><path class="cls-21" d="M161.69,336.46s-4.89-2.9-15.64.5c0,0,7.58-2.2,11.95-.73,4.21,1.41,4.21,1.74,4.21,1.74l-.52-1.51"/></g><g id="Layer_2" data-name="Layer 2"><path class="cls-24" d="M283.89,140.32h0c-1.45-2.37-2.3-4.85-3.85-7.16s-3-4.31-4.65-6.48c-.1-.12-2.21-.33-2.31-.45l-.1-.14-.16-.2-.37-.47a48.59,48.59,0,0,0-32.95-3.93,40.3,40.3,0,0,0-30.14,48.38c.43,1.86-.8,4,.91,5.13s1.95.66,3.72-.4a13.26,13.26,0,0,0,4.11-4.51c5.23-8.45,7.31-22.33,5.9-32.17,1.05,1.91,9.36.58,11.09,1.9a15.61,15.61,0,0,0,21.88-3,24.73,24.73,0,0,0,2.26,3.21c7.69,9.19,18.21,14.13,27.67,8.66C287.25,148.53,284.79,141.82,283.89,140.32Z"/><path class="cls-14" d="M230.69,172.38l.67,3.57a49.72,49.72,0,0,0,2.31,9.83c1,2.18,15,4.86,18,3.62s5.63-9.09,6.63-10.86l5.6,1.08c.17,2.49.89,10.38,1.82,11.56s7.43,1.87,8.16,1.95,1.46.14,2.39.19c2.47.15,5.49.14,6.53-.64,1.54-1.16,3.72-6.08,5.65-10.76l.32-.73c.07-.18.14-.3.15-.35h0l.35-.84c-7.6-5-18.34-5.78-25.46-1.91l0,.1-5.46-1.08c-5.65-5-16.09-8.68-24.18-6.74h0l-24.4.74-.36,2.11Zm35.79,18.11c-.58-.74-1.25-6.29-1.63-10.59,6.17-3.26,15.85-2.52,22.7,1.52l0,.1c-1,2.51-3.8,9.18-5.31,10.32-1.79,1.34-14.71-.18-15.74-1.33Zm-31.06-5.06a72.71,72.71,0,0,1-3-12.77c7.26-2.19,18.93,1.17,24.47,5.91-1.43,3.24-3.46,9-5.6,9.85-3.08,1.28-15.23-1.61-15.86-3Z"/><path class="cls-37" d="M266.63,190.4c-.58-.74-1.25-6.29-1.63-10.59,6.17-3.26,15.86-2.52,22.7,1.51l0,.11c-1,2.51-3.8,9.18-5.31,10.32-1.79,1.34-14.71-.18-15.74-1.33Z"/><path class="cls-37" d="M235.42,185.43a72.71,72.71,0,0,1-3-12.77c7.26-2.19,18.93,1.17,24.47,5.91-1.43,3.24-3.46,9-5.6,9.85-3.08,1.28-15.23-1.61-15.86-3Z"/><path class="cls-38" d="M198.59,173.22S179.35,157.33,188,142.11c1.67-2.92,1.77-1.92,2-4.52,1.31-13.63-3.67-10.68,17.34-25.39S231.31,98,261.71,102.14c15.67,2.17,23.88,9.29,27.55,19.54a48.24,48.24,0,0,1,2.48,15.55s-31.6-11.2-51.42-2.07-42,41.5-38.63,52.54C202.65,190.81,198.59,173.22,198.59,173.22Z"/><path class="cls-4" d="M187.1,157.49s29.82-38.06,66.29-37c0,0-44.66-7.64-66.58,23.23l-.53,3.75a20.75,20.75,0,0,0,.21,7Z"/><path class="cls-8" d="M812.36,263.34c-2.18-14.85-9.07-44.81-9.07-44.81L826,212.34l16.1,49.19C833.13,265.76,821.5,259.59,812.36,263.34Z"/><path class="cls-8" d="M813.39,231.33l-12.3-13s-9.19-3.51-14.1-9.31a59.11,59.11,0,0,1-8.23-14.18l-11.4-13s-8.05-2.77-7.37-5.35,4-2.34,7.16-2.1S811,192.55,811,192.55a79.9,79.9,0,0,0-5.83-12.47c-3.57-6.1-1-10,2.73-11s8.5,8.58,8.27,12.67,7.92,8.89,10.66,15.54-.55,15.88-.55,15.88C829.58,225.57,813.39,231.33,813.39,231.33Z"/><path class="cls-34" d="M775.76,186.19a4.43,4.43,0,0,1,2.9-.87c2.65.13,5.83,1.91,8.51,4.6a30.58,30.58,0,0,1,5.42,7.9,14.13,14.13,0,0,1,1.51,3.66A16.81,16.81,0,0,1,792,198.2a40.08,40.08,0,0,0-5.52-7.55c-2.53-2.56-5.53-4.31-7.82-4.57a4.44,4.44,0,0,0-2.63.47c-.57.31-.83.55-.89.56S775.2,186.68,775.76,186.19Z"/><path class="cls-34" d="M795.11,193.49c3.22,1.57,5.73,3.06,5.6,3.3s-2.85-.81-6.05-2.39-5.72-3.05-5.59-3.3S791.89,191.91,795.11,193.49Z"/><path class="cls-34" d="M803.45,199.45c-3.1,1.21-4.86,3.25-5.11,3.16s1.34-2.72,4.72-4.1,6.39-.57,6.28-.32S806.54,198.24,803.45,199.45Z"/><path class="cls-39" d="M1000.79,250.57s-4.37,17.31,9.45,20.41,13.32-15.19,13.32-15.19"/><path class="cls-39" d="M1035.33,252.75s10.31,10.8,20.12,6.42-.39-19.83-.39-19.83"/><path class="cls-40" d="M1044.94,191.56c-6.16-6.69-14.46-8.12-23-6-1,2.09-1.5,6.11-2.44,8.21.64.14,1.28.3,1.91.47-1,2.29-1,7.49-2,9.8.47.42,1.64,1.8,3,3.46l-.93,2.13a10.16,10.16,0,0,0-2.47-2.91c-1.16,2.63-.55,8.3-1.82,10.87-2.77,5.58-6.77,12.1-9.3,17.79-.57,1.72-2.69-4-3.31-2.77l-2.35,4.75-2.37,5.77-2.16-.24-2,4.75s3,1.76,7.49,4.2c-1.08,14.58,11.3,16.78,15.93,14.19a10.87,10.87,0,0,0,4.18-4.23c7.59,3.27,14.4,5.39,16.81,3.8,4.83-3.18,14.17-15.3,18.51-21.13a43.43,43.43,0,0,0,4.33-4.24l.09-.08v0a21,21,0,0,0,3.43-5.1c2-4.48-1.41-11.43-4.92-16.84,3.66-8,4-12.84,3.24-16.71-1-5.41-10.46-12-12.56-12.38C1051.17,189,1048,190.22,1044.94,191.56Z"/><path class="cls-5" d="M487.83,245.69c-1.56-13.82-7-41.77-7-41.77l21.18-5,13.41,46C507,248.56,496.41,242.5,487.83,245.69Z"/><path class="cls-5" d="M489.31,219.16l-12.16-13.7s-9.29-3.9-14.12-10a60.75,60.75,0,0,1-8-14.8L443.84,167s-8.15-3.1-7.37-5.72,4.15-2.26,7.4-1.91,44.27,20,44.27,20a83.49,83.49,0,0,0-5.55-13c-3.45-6.36-.71-10.25,3.15-11.12s8.42,9.08,8.05,13.26,7.81,9.37,10.4,16.27-1.11,16.25-1.11,16.25C506.08,213.81,489.31,219.16,489.31,219.16Z"/><path class="cls-20" d="M452.3,171.66a4.5,4.5,0,0,1,3-.79c2.7.22,5.91,2.15,8.56,5a31.68,31.68,0,0,1,5.28,8.28,14.27,14.27,0,0,1,1.42,3.8,17.63,17.63,0,0,1-2.08-3.43,41,41,0,0,0-5.39-7.92c-2.51-2.7-5.53-4.6-7.86-5a4.53,4.53,0,0,0-2.71.4c-.6.3-.87.54-.93.54S451.71,172.15,452.3,171.66Z"/><path class="cls-20" d="M471.87,179.79c3.24,1.72,5.76,3.32,5.62,3.57s-2.89-.93-6.12-2.65-5.75-3.32-5.61-3.58S468.62,178.07,471.87,179.79Z"/><path class="cls-20" d="M480.21,186.18c-3.21,1.14-5.09,3.16-5.35,3s1.47-2.73,5-4,6.56-.37,6.44-.12S483.42,185,480.21,186.18Z"/><path class="cls-41" d="M732.28,229.94c-2.89-1.49-5.84-3.46-7.35-6.44a16.09,16.09,0,0,1-1.46-6.84,4,4,0,0,1-.63-.94c-2.55-5.28.91-12.46-2.71-17.09-3.3-4.21-11-2.83-14.12-7.16-2.45-3.38-.75-7-2-10.08s-6.22-5.26-9.45-4.39l-20.07,41.07c-.51,12.83-2,19.77,1.86,26.75,2.35,3.62-2.53,7.49-1,11.53,1.2,4.15.85,9.09-2.24,12.12,15.54-1.11,36.5-8.53,48.62-18.3l3.42-2.78c-6-2.14-11.57-11.86-11.57-11.86,3.21,3.64,9,8.71,13.26,10.38a15.07,15.07,0,0,0,2-1.16c2.69-.95,9.17-7.52,13.15-11.75A28.22,28.22,0,0,1,732.28,229.94Z"/><path class="cls-41" d="M609.46,160.49a28.24,28.24,0,0,0-7.86,5,27,27,0,0,0-2.06,2.11,33.4,33.4,0,0,0-8.9,31.1c1.28,5.29,3.82,11.19.78,15.81s-10.2,5.46-13,10.12c-3.34,5.49,1.28,12.29.78,18.61a13,13,0,0,1-12.51,11.19,54.14,54.14,0,0,0,27.08,6.8l5.72-9.63a8.65,8.65,0,0,0,2.28,10.79,21.28,21.28,0,0,0,11.58,4.45c9.5.61,30-5.31,55.57-16.82l-51-92.4"/><path class="cls-41" d="M716.6,184.76c-1.88-3.58-4.61-6.77-6.09-10.5-3.21-8-.41-18-5.85-24.9-3.88-4.9-10.73-6.58-17.11-7.51s-13.17-1.48-18.38-5.08c-3.83-2.63-6.4-6.65-10.23-9.3-5.44-3.79-12.67-4.29-19.38-3.73A42,42,0,0,0,620,129.67a20.83,20.83,0,0,0-10,16.41c0,3.2.89,6.43.33,9.57-.62,3.48-3,6.45-4.17,9.79a16.43,16.43,0,0,0,7.55,19.34l56,50.79c10.42,2.14,33.61-5.53,40.16-13.54S721.31,193.79,716.6,184.76Z"/><path class="cls-26" d="M631,232.46s1.46,37.62.92,41.27l-3.5,2,1.15,7.2c15.4,12.68,19.19,12.89,38.11,6.58l21.82-11.81s-6.32-5.95-7.59-8.83c-5.21-11.89,3.89-39.58,3.89-39.58"/><path class="cls-26" d="M630.24,272.57c.52-1.68.06-19.53.06-19.53l26.4,4.06,18.08-.76s7.14,13.71,7.66,15.39,23.08,11.78,23.08,11.78-24.4,29-58.68,29-38.56-30.84-38.56-30.84S629.71,274.24,630.24,272.57Z"/><path class="cls-26" d="M702.18,205l-.4-.69c-2.42-2.14-6.91-3.29-9,0-.72,1.43-1.79,3-2.51,4.47-.72,1.64-1.8,5-3,6.38,0,0-7.48-16.88-7.15-20.81s13.2-12.42,6.35-18.2c0,0-7.16-7.48-10.57-11.9-.76-.43-1.54-.85-2.32-1.24a6.63,6.63,0,0,1-1.23.13,6.11,6.11,0,0,1,.22-.6l-.29-.13a8.92,8.92,0,0,1-2.62,0c.23-.2.69-.4.69-.61a11.18,11.18,0,0,1-2.71-.07c.23-.2.7-.6.7-.81-1.14.39-1.8,0-2.71-.07a1.57,1.57,0,0,0,.48-.82,6,6,0,0,1-2.72.14c.23-.2.47-.61.7-.81-1.14.39-1.81-.05-2.71-.07-.21,0,.37-.35.45-.57l-.09,0a8.78,8.78,0,0,1-2.16.13c0-.18.35-.36.44-.54l-.15,0a7.5,7.5,0,0,1-2.75-.12l.32-.38-.4-.07a3.46,3.46,0,0,1-1.94,0l.29-.27-.77-.11a4.15,4.15,0,0,1-2.45-.11.56.56,0,0,0,.29-.18l-.86-.1a9.37,9.37,0,0,1-1.91,0,.91.91,0,0,0,.17-.17l-1.16-.09a3.78,3.78,0,0,1-2.11-.13c-1.39-.07-2.79-.11-4.17-.12-10.41-.07-21.88.6-29.89,8a101.81,101.81,0,0,0-6.76,16.25c-3.28,10-3.75,26-3.61,29.29.12,2.88-1.79,8.4-2.22,11.38-2.31,16.14,9.87,33,22.23,42.3,4.93,3.72,9.29,2.48,14.28,1.94,10.19-1.11,25.62-6.87,34.78-15.64l13.08-11.36,1.31-3.4c1.93,6.55,10.88,2.6,11.87-6.19C704.17,221.44,705.51,209.8,702.18,205Z"/><path class="cls-22" d="M623.69,229.13a5.88,5.88,0,0,0,5.2-.13c.33-.19,1.42,0,1,.3a8.26,8.26,0,0,1-7.07.07c-.19-.11-.15-.24.09-.31a1.29,1.29,0,0,1,.83.07"/><path class="cls-22" d="M630.49,228.92a9.49,9.49,0,0,1,3.22-.66.77.77,0,0,1,.49.17c.09.09.1.19,0,.26a3.66,3.66,0,0,1-1.77.32.68.68,0,0,1-.53-.22c-.09-.15.09-.24.24-.23a2.76,2.76,0,0,0,1.42-.27l.47.43a8.27,8.27,0,0,0-2.88.59.73.73,0,0,1-.58-.08c-.12-.07-.24-.24-.06-.31"/><path class="cls-22" d="M634.87,229.21a4.52,4.52,0,0,0,3.5-1.39c1-1.38.19-3.79-1.39-4.76-.17-.1-.08-.23.1-.26a1.08,1.08,0,0,1,.69.17,4.55,4.55,0,0,1,2,4.17c-.24,1.23-1.51,2.06-3.07,2.36a6.83,6.83,0,0,1-1.44.14c-.19,0-.54-.07-.63-.22s.09-.21.27-.21"/><path class="cls-22" d="M621.35,228.41a.16.16,0,0,0-.16-.24,1.55,1.55,0,0,1-1-.36l-.35.4a4.45,4.45,0,0,1,2,.77.38.38,0,0,0,.42,0c.09-.07.18-.22.06-.3"/><path class="cls-22" d="M622.32,228.63a5.1,5.1,0,0,0-2.24-.86.45.45,0,0,0-.35.14.17.17,0,0,0,0,.26"/><path class="cls-22" d="M618.66,228.48a2.65,2.65,0,0,1-2.19-1.59,3.57,3.57,0,0,1,1.14-4c.12-.09.07-.22-.05-.27a.51.51,0,0,0-.45.13,4,4,0,0,0-1.49,3.35,2.92,2.92,0,0,0,1.85,2.54,3.32,3.32,0,0,0,.93.22c.12,0,.36,0,.42-.18s0-.22-.16-.23"/><path class="cls-42" d="M690.33,219.43a49,49,0,0,1,4.37-7.3,15.85,15.85,0,0,1,3.15-3.34,5.6,5.6,0,0,1,1-.61,1.91,1.91,0,0,1,.59-.21s.13,0,.06,0c-.38-.22-.14,0-.09.1s.22.4.32.61a11.26,11.26,0,0,1,.23,7.66c-.09.3.69.19.77-.09a11.69,11.69,0,0,0-.09-7.44c-.19-.48-.43-1.36-1.06-1.29a4,4,0,0,0-1.7.69,13.33,13.33,0,0,0-3.07,2.88,44.31,44.31,0,0,0-5.17,8.32c-.18.35.59.28.72,0Z"/><path class="cls-41" d="M603.87,188.94c5.53-.92,8.94-.47,17.8,2v.21c0,1.19,0,.53-.06,1.72,0,.91-.07,1.82-.1,2.73-2.89-.86-5-1.76-6.83-2.14-3.55-.73-7.56-2-11.23-1.71C603.61,190.83,603.75,189.89,603.87,188.94Z"/><path class="cls-41" d="M641.37,191.13c0,1.19,0,.53,0,1.72,0,.91,0,1.82,0,2.73,2.94-.7,5.05-1.5,6.94-1.78,3.75-.58,8-1.71,11.81-1.05,1.81.31,4.4.82,5.66,2.47.34.44,1,2,1.68,1.72.29-.13-.15-1.61-.2-1.76-.92-3-3.45-4.26-6.55-5-6.34-1.57-9.55-1.43-19.27.77"/><path class="cls-43" d="M691.38,234.24a4.45,4.45,0,0,1,1.27,5.86,3.81,3.81,0,0,1-2.57,1.79h-.31a5.43,5.43,0,0,1-1.06-.16,4.38,4.38,0,0,1-2.9-2.39c-.21-.43-1.31-.09-1.12.3a5,5,0,0,0,3,2.66,5.58,5.58,0,0,0,2.26.31,5.07,5.07,0,0,0,4.44-5.27,5,5,0,0,0-2.13-3.69c-.34-.25-1.35.24-.87.59Z"/><path class="cls-42" d="M689.72,219.67c.75,0,1.88.12,2,1.05a4.26,4.26,0,0,1-.6,2.13c-.58,1.34-1.59,3.21-.48,4.56s3.24-.48,4-1.48a9.18,9.18,0,0,0,1.81-5.61c-.06-2-.39-4.93-2.45-5.9-.21-.1-.82.22-.73.26,1.79.85,2.22,3.21,2.36,5a9.15,9.15,0,0,1-.88,5,6.56,6.56,0,0,1-2.12,2.71c-.74.5-1.31,0-1.57-.79-.51-1.5.61-3.15,1.13-4.49a2.38,2.38,0,0,0,.2-1.91c-.4-.71-1.46-.76-2.17-.78-.17,0-.87.3-.49.32Z"/><path class="cls-41" d="M610.85,201.14a3.4,3.4,0,0,0-3.68.57,3.36,3.36,0,0,0-1,1.51,3.4,3.4,0,0,0,.72,3.1,3.15,3.15,0,0,0,3.59.72,3.48,3.48,0,0,0,1.82-4,3.09,3.09,0,0,0-1.42-1.91"/><path class="cls-41" d="M621.65,206.09s-6.28-5.14-9.54-5.55a12.89,12.89,0,0,0-11,4.2s6.44-3.74,9.79-3.23S621.65,206.09,621.65,206.09Z"/><path class="cls-41" d="M648.22,202.36a3.39,3.39,0,0,1,3.65.76,3.34,3.34,0,0,1,1,1.56,3.41,3.41,0,0,1-.88,3.06,3.14,3.14,0,0,1-3.63.53,3.48,3.48,0,0,1-1.6-4.08,3.12,3.12,0,0,1,1.51-1.83"/><path class="cls-41" d="M640.11,206.67s7-4.78,10.48-5c6.32-.45,12.09,3.27,13.84,5.65,0,0-9-5-12.57-4.62S640.11,206.67,640.11,206.67Z"/><path class="cls-44" d="M628,238.66c6.57.16,17.23-.39,17.23-.39s-2.32,13.63-17.54,13.27-16.87-14.11-16.87-14.11S621.43,238.5,628,238.66Z"/><path class="cls-45" d="M627.93,238.66c3.12.08,15.72-.17,15.72-.17s-4.34,7.16-15.63,6.89c-12.24-.3-15.67-7.55-15.67-7.55Z"/><path class="cls-46" d="M627.78,239.15c3.12.08,12.63-.25,12.63-.25s-3.5,3.52-12.87,3.29-12.25-3.79-12.25-3.79Z"/><path class="cls-44" d="M610.14,236.41c.33-.08,2.14.6,3.69.5,2.59-.18,4.22-.85,6.1-1,3.2-.18,5.2,1.2,6.59,1.23s3.45-1.24,6.64-.91c1.87.2,6.48,1,9.06,1.32a22.4,22.4,0,0,0,3.71-.32c.46.13-.52,3.68-18,3.25S609.68,236.51,610.14,236.41Z"/><path class="cls-20" d="M630.36,266.66A62.55,62.55,0,0,0,663.31,256s-7.38,15.59-32.84,14.65Z"/><path class="cls-41" d="M672.38,140.53c-3.3-1.77-7.3-1.44-11-1a203,203,0,0,0-46.88,11.92c-.18,3.83,3.58,6.88,7.36,7.55s7.66-.35,11.46-.89,8.05-.48,11.05,1.94,4.15,7.12,7.22,9.83c5.26,4.69,14.39,2.15,19.64,6.85,3.95,3.57,3.95,9.65,5.85,14.7,3.68,9.84,14,12.13,23.81,8.44a18,18,0,0,0,2.33-1c-8.11-17.22-15.56-31.73-23.69-49C677.76,146.26,675.86,142.42,672.38,140.53Z"/><path class="cls-41" d="M558.39,244.14a6,6,0,0,0,.65,4,5.39,5.39,0,0,0,3.68,2.77,5.62,5.62,0,0,0,5.39-2.39,5.13,5.13,0,0,0,.85-3.42,10.79,10.79,0,0,0-1.18-3.8c-1.21-2.47-3.28-5-3.54-8.48a12.46,12.46,0,0,1,3.34-9.57A14.49,14.49,0,0,1,572,220a21,21,0,0,1,5.36-1.62,31.52,31.52,0,0,0,5.22-1.35,7.14,7.14,0,0,0,3.73-3.18,8.71,8.71,0,0,0,.82-4.77,17.18,17.18,0,0,0-1.11-4.68,36.51,36.51,0,0,1-2.73-8.78,13.85,13.85,0,0,1,1.62-7.91,17.44,17.44,0,0,1,4.37-5,34.56,34.56,0,0,0,3.58-3.37,10.62,10.62,0,0,0,2-3.61V176a4.16,4.16,0,0,1-.2.79,8,8,0,0,1-1.54,2.77,31.62,31.62,0,0,1-3.52,3.52,17.71,17.71,0,0,0-4.14,4.9,13.17,13.17,0,0,0-1.44,7.5,35.84,35.84,0,0,0,2.77,8.56,17.51,17.51,0,0,1,1.19,4.88,9.64,9.64,0,0,1-.89,5.24,7.9,7.9,0,0,1-4.2,3.62,29.28,29.28,0,0,1-5.37,1.41,20.33,20.33,0,0,0-5.14,1.54,13.43,13.43,0,0,0-4.14,3,11.74,11.74,0,0,0-3.16,8.9c.2,3.15,2.13,5.62,3.38,8.23a11.21,11.21,0,0,1,1.21,4.07,5.83,5.83,0,0,1-1,3.82,6.17,6.17,0,0,1-5.93,2.53,5.93,5.93,0,0,1-4.53-6.19A3.41,3.41,0,0,1,558.39,244.14Z"/><path class="cls-41" d="M723.44,214.91v-.42a1.11,1.11,0,0,1,.17-.59c1-5.26,3.48-12.06,3.48-18.28,0-8.74-14.5-17.34-14.5-17.34v30.34s12.18,15.95,10.86,10.79A11.66,11.66,0,0,1,723.44,214.91Z"/><path class="cls-8" d="M1004.26,235.51,1002.35,247a68.37,68.37,0,0,0-.81,14.64l.5,9.46,16.63,6.16S952.53,329,939.79,322.47s-5.59-36.93-1.44-39.8,5-8.6,5-8.6l15.07-2-2.09-9.88Z"/><path class="cls-47" d="M894.22,300.56l-40,9.1s-6.73-40.14-14.69-60.59-11.82-33.37-11.82-33.37l-26,15.66s6.53,46.15,9.12,63.8,7.3,35.87,12.31,42.56,10,14.48,20.86,15.92,35.27-6.11,35.27-6.11Z"/><path class="cls-8" d="M1118,507.18,1132.18,529s33.33,8,36.35,12.12,11.14,14.81,11.14,14.81l2,14.71a2.67,2.67,0,0,1-3.92,2.72c-3.85-2.08-8.77-6-9-12.64l-6.68-7.8-18.33-2s12.46,13.32,8.9,14-16.76-11.07-23.51-12.89-12.49-2.45-14.8-18.48c0,0-3-8.23-7.17-20.07C1113,509.56,1111.37,509.29,1118,507.18Z"/><path class="cls-47" d="M1033,361.83s-4.72,35-4.17,40.37,1.71,31.23,10.44,42.67c6,7.85,15,23.69,16.68,26.09s-41.89,33.37-138.8,31.07c0,0-7.31-6.85-10.5-41.41s2.58-56.18-1.79-62.42-20.49-16-12.92-40.73c4.51-14.74,4.89-14,4.89-14L861.5,352l-4-43.14s54.8-32.19,62.67-33.85,25.36-2,25.36-2-11.11,27.12,11,29.44c31.91,3.34,54.45-28.33,54.45-28.33s14.92,3.54,31.3,9.35c24,8.51,27.23,26.18,32,35.07s64,204.91,64,204.91l-35.27,15Z"/><polygon class="cls-9" points="896.51 343.85 903.93 310.99 892.42 344.84 896.51 343.85"/><path class="cls-9" d="M1031.15,297.93s-17.3,27,1.85,63.9l-.49,3.71S1010.26,328,1031.15,297.93Z"/><path class="cls-5" d="M581.9,300.43l-45.71.53s-14-39.57-22.43-60a288,288,0,0,1-12.41-36.13L485,217.6s4.68,49.9,7.79,67.37,8.3,35.59,13.44,42.36,8,11.4,18.75,13.21,48.89-2.84,48.89-2.84Z"/><path class="cls-5" d="M833.19,531.38c-2.66-3.32-27.84-9.18-34.68-10.72a91.1,91.1,0,0,1-10.12,3.9,49.14,49.14,0,0,1-9,1.82c2.73,13.2,8.25,13.78,14.73,15.38,6.75,1.66,20.11,12.56,23.64,11.89s-9.12-13-9.12-13l18.28,1.77,4.52,6.17c-5.6,16.15,1.88,16.36,1.88,16.36l8.93-20.87S836.28,535.21,833.19,531.38Z"/><path class="cls-5" d="M790.24,526a91.38,91.38,0,0,0,9-3.45L770.48,419.3,754.4,334.91l-46.25-1.05,23.4,76.77s-.37,3.78,2.48,19.31c2.6,14.19,39.54,85.74,45.94,98.08A49.47,49.47,0,0,0,790.24,526Z"/><path class="cls-48" d="M713.91,368.67s-2.47,28.15-2.13,33.57,7.73,35.06,17.71,53.18c4.94,9,13.87,21,15.51,31,3.37,20.6-124.8,36.87-157.89,26,0,0,18.49-35.16,13.28-67.06-7.42-45.47-6-44.7-10.3-51.13s-15.19-23.75-11-38.67,3.38-13.21,3.38-13.21l-27.86,5.3-1.44-51.39c0-2.08,9-1.42,11-2.13,10.6-3.85,39.26-18.22,46.21-19.32A82.39,82.39,0,0,1,626,273.9s-10.22,16,6.1,22.25c31.79,12.16,59.5-22.07,59.5-22.07s23.67,7.73,39.27,16.75,18.26,19.74,22.9,28.86,17.18,42.58,17.18,42.58l-53.1,15.45Z"/><polygon class="cls-49" points="582.3 342.57 593.45 306.09 578.11 342.69 582.3 342.57"/><path class="cls-49" d="M723.22,302.5s-33.77,8.93-9.31,66.17l-.36,4.29S683.7,315.07,723.22,302.5Z"/><path class="cls-8" d="M949,237.41s1.44,38.18.89,41.89l-.08,3.42.43,7c15.61,12.88,16.49,8.56,35.7,2.18l19-14.85a4.54,4.54,0,0,1-4.34-2.69c-5.29-12.07,4-40.18,4-40.18"/><path class="cls-34" d="M983.67,254s-3.32,11.71-24,16.32c0,0-6,1.79-9.51.51l-.06-4.18Z"/><path class="cls-40" d="M921.19,227.17c7.27-5.25,8.63-14.63,7.69-23-.9-8,5.09-20.29-4.72-19.84-.19,0,3.49-6.87.6-6.26,1.74-4.43-2.38-4.87-3-9.89-.55-4.8.42-9.18,2-9.54,20.62-29.06,41.07-30.83,58.17-29.17,1.72.17,7,3.11,8.62,3.32,2,.26,6.67-2.2,8.56-1.86,29.65,5.41,40.18,21.47,37.42,64.3-2.34,36.17-38.92,45.79-72.93,44.87-14.54-.39-31.79.24-42.73-12.75Z"/><path class="cls-40" d="M1011,256c3,1.51,6.09,3.05,9.18,4.46a12.4,12.4,0,0,1-4.26.59C1013.2,261,1011.76,258.46,1011,256Zm47.3-53.48a44.93,44.93,0,0,1-4.2,5.41,102,102,0,0,0-4.46-9.37l-.3-.57c1.32-1.4,3.16-3.14,4.57-3.63C1056.36,193.51,1059.5,199.3,1058.29,202.53Z"/><path class="cls-8" d="M941.68,156.65a2.89,2.89,0,0,1-.27.37l.26-.16Zm-10.15,2v.17c.16-.12.32-.24.47-.37S931.53,158.69,931.53,158.69Zm71.57,81,1.34-3.45c1.95,6.64,11,2.65,12-6.27,6.79-7.71,8.17-19.52,4.79-24.37l-.4-.71c-2.47-2.17-7-3.34-9.18,0-.72,1.45-1.82,3.08-2.54,4.54-.74,1.66-1.84,5-3,6.46,0,0,5.38-15.87,5.72-19.86s.46-13.86-6.49-19.73c0,0-8.25-8.64-11.34-12.93l-1.14-.46c-.69,0-1.15.18-1.84.16,0-.2.24-.41.25-.83a7.47,7.47,0,0,1-3,.13c.23-.2.7-.4.7-.61a12.06,12.06,0,0,1-2.75-.08c.24-.2.71-.61.71-.82-1.15.39-1.83-.05-2.75-.07a1.5,1.5,0,0,0,.48-.83A6.1,6.1,0,0,1,982,160c.23-.2.48-.61.71-.82-1.16.39-1.83-.05-2.75-.07-.23,0,.47-.41.47-.62a8.44,8.44,0,0,1-2.29.15c0-.21.47-.41.47-.62-1.38.38-2.06-.06-3-.08l.71-.82a3.25,3.25,0,0,1-2.76.34c.24-.2.71-.61.71-.82a4.55,4.55,0,0,1-3.68.32c.23,0,.71-.61.71-.82-1.16.81-2.07.57-3.22.54.23-.2.47-.61.94-1a4.7,4.7,0,0,1-4.37.51c.23,0,.48-.62.48-.83-.93.82.81-.19-.33-.43,0,0-2.66.77-2.65.56-.93.61,2.51-3.5,1.37-3.53.24-.42-6.59.21-6.12-.2-1.17.81-.92.39-2.29.14,0,0-4.83,2.39-4.6,2.18-1.17,1-1.66.13-3-.12.23-.2.8.9,1,.7-.94.82-.61-.23-1.76-.26,0-.21-3.71-1.47-3.7-1.67-1.17.6-.79.7-2.17.66,0-.21-.92,2.29-.69,2.09-.94.82-.87.13-2-.11l-1.15.75c-1.18,1,.41.6-1,.35,0-.14,5.15.8,5.37.53a8.25,8.25,0,0,1-3,1.22c0-.21.25-.62.26-.83a4.61,4.61,0,0,1-3.7,1.16c.23,0,.47-.41.47-.62-1.17,1-2.56,1.62-3.92,1v0a7.24,7.24,0,0,1-3.25,1.43.9.9,0,0,1,.48-.83l-.92,0c-1.19,1.65,4.12.85,3.6,2.94,0,0-3.92,6.08-8,18.44-3.34,10.14-2.05,26.55-1.91,29.93.12,2.92-1.54,6.22-2,9.24-2.36,16.39,7.92,35.58,20.46,45.06,5,3.78,9.42,2.53,14.49,2,10.34-1.11,26-6.95,35.32-15.84"/><path class="cls-22" d="M941.58,230a6,6,0,0,0,5.28-.13c.34-.18,1.44,0,1,.31a8.4,8.4,0,0,1-7.18.06c-.18-.1-.14-.24.1-.31a1.32,1.32,0,0,1,.84.07"/><path class="cls-22" d="M948.48,229.75a9.54,9.54,0,0,1,3.28-.66.79.79,0,0,1,.49.17c.09.09.11.2,0,.26a3.66,3.66,0,0,1-1.8.33.69.69,0,0,1-.54-.23c-.09-.15.1-.24.24-.23a2.85,2.85,0,0,0,1.45-.27l.48.43a8.75,8.75,0,0,0-2.93.6.72.72,0,0,1-.59-.08c-.12-.08-.24-.24-.06-.32"/><path class="cls-22" d="M952.93,230.05a4.59,4.59,0,0,0,3.55-1.4c1-1.41.2-3.86-1.41-4.84-.17-.1-.07-.23.11-.26a1.13,1.13,0,0,1,.7.17,4.61,4.61,0,0,1,2,4.24c-.25,1.25-1.53,2.08-3.11,2.39a7.09,7.09,0,0,1-1.46.14c-.2,0-.56-.07-.65-.23s.09-.21.28-.21"/><path class="cls-22" d="M939.2,229.23a.17.17,0,0,0-.15-.25,1.53,1.53,0,0,1-1-.36l-.36.4a4.74,4.74,0,0,1,2,.78.38.38,0,0,0,.42,0c.09-.07.18-.23.06-.31"/><path class="cls-22" d="M940.19,229.45a5.12,5.12,0,0,0-2.27-.87.43.43,0,0,0-.36.14.17.17,0,0,0,0,.26"/><path class="cls-22" d="M936.47,229.3a2.71,2.71,0,0,1-2.22-1.62,3.64,3.64,0,0,1,1.17-4,.15.15,0,0,0,0-.27.51.51,0,0,0-.46.12,4.1,4.1,0,0,0-1.52,3.41,2.93,2.93,0,0,0,1.88,2.57,3.08,3.08,0,0,0,.94.23.48.48,0,0,0,.43-.18c.07-.15,0-.22-.17-.23"/><path class="cls-50" d="M1009.25,220.1a49.11,49.11,0,0,1,4.5-7.46,16.39,16.39,0,0,1,3.13-3.31,6.07,6.07,0,0,1,1.06-.66l.31-.12c-.11,0,.29-.08.12,0,.1,0,.17,0,.07,0h.07c-.34-.07-.16,0-.09.13s.24.42.34.64a11.46,11.46,0,0,1,.22,7.79c-.06.22.71.11.77-.12a11.78,11.78,0,0,0-.09-7.58,3.05,3.05,0,0,0-.61-1.17.61.61,0,0,0-.44,0c-2,.26-3.72,2.23-4.9,3.67a45.3,45.3,0,0,0-5.23,8.41c-.08.17.66.1.77-.12Z"/><path class="cls-23" d="M921.5,189.15c5.61-.94,9.07-.47,18.07,2.07v.21c0,1.21,0,.53-.06,1.75,0,.92-.07,1.84-.11,2.76-2.94-.87-5-1.78-6.93-2.18-3.6-.74-7.68-2-11.39-1.74C921.23,191.07,921.38,190.11,921.5,189.15Z"/><path class="cls-23" d="M980.53,192.86a8.36,8.36,0,0,1,1.15.22,20.51,20.51,0,0,1,3.59,1.43c-.33-.16-.94-1.41-1.28-1.72a8.26,8.26,0,0,0-2.36-1.51,25.72,25.72,0,0,0-10.37-1.92c-1.28,0-11.7,1.07-11.69,1.84v.21c0,1.21,0,.53,0,1.75,0,.92,0,1.84,0,2.77,3-.72,5.12-1.52,7-1.81,2.63-.4,5.23-1,7.88-1.18A32,32,0,0,1,980.53,192.86Z"/><path class="cls-51" d="M1010.28,235.22a4.53,4.53,0,0,1,1.29,5.95A3.88,3.88,0,0,1,1009,243h-.32a5.53,5.53,0,0,1-1.07-.16,4.52,4.52,0,0,1-3-2.43c-.21-.44-1.32-.1-1.13.3a5.09,5.09,0,0,0,3,2.7,5.56,5.56,0,0,0,2.29.32,5,5,0,0,0,2.36-9.09c-.35-.26-1.37.24-.89.6Z"/><path class="cls-50" d="M1008.61,220.42c.77,0,1.92.12,2,1.08a4.42,4.42,0,0,1-.6,2.16c-.6,1.35-1.62,3.26-.5,4.62s3.29-.48,4-1.5a9.34,9.34,0,0,0,1.83-5.69c0-2-.39-5-2.48-6-.21-.1-.83.22-.73.27,1.81.86,2.24,3.25,2.39,5a9.38,9.38,0,0,1-.9,5,6.89,6.89,0,0,1-2.16,2.76c-.75.5-1.33,0-1.6-.81-.5-1.52.63-3.19,1.16-4.55a2.37,2.37,0,0,0,.2-1.94c-.4-.72-1.48-.78-2.2-.8-.17,0-.88.31-.5.32Z"/><path class="cls-23" d="M930.68,201.41a3.45,3.45,0,0,0-3.74.57,3.24,3.24,0,0,0-1,1.53,3.44,3.44,0,0,0,.72,3.15,3.21,3.21,0,0,0,3.65.74,3.53,3.53,0,0,0,1.84-4.05,3.14,3.14,0,0,0-1.43-1.94"/><path class="cls-23" d="M939.53,206.57S934,201.37,931,201a10.91,10.91,0,0,0-9.85,4.29s5.77-3.81,8.75-3.3S939.53,206.57,939.53,206.57Z"/><path class="cls-23" d="M970.83,202.54a3.45,3.45,0,0,1,3.7.77,3.34,3.34,0,0,1,1,1.59,3.43,3.43,0,0,1-.89,3.1,3.19,3.19,0,0,1-3.68.54,3.53,3.53,0,0,1-1.63-4.14,3.17,3.17,0,0,1,1.54-1.86"/><path class="cls-23" d="M958.28,207.18s7.08-4.84,10.63-5.09c6.42-.45,12.27,3.33,14,5.76,0,0-9.1-5-12.75-4.71C966.71,203.46,958.28,207.18,958.28,207.18Z"/><path class="cls-34" d="M945.94,239.64c6.66.17,17.48-.38,17.48-.38s-2.36,13.84-17.81,13.45-17.12-14.33-17.12-14.33S939.27,239.47,945.94,239.64Z"/><path class="cls-35" d="M945.87,239.64c3.17.08,16-.16,16-.16s-4.41,7.26-15.87,7c-12.43-.32-15.9-7.68-15.9-7.68Z"/><path class="cls-36" d="M945.72,240.14c3.17.08,12.83-.24,12.83-.24s-3.57,3.56-13.07,3.32S933,239.36,933,239.36Z"/><path class="cls-34" d="M927.82,237.33c.34-.07,2.17.62,3.74.51,2.63-.17,4.29-.85,6.19-1,3.26-.18,5.28,1.22,6.69,1.25s3.51-1.26,6.74-.91c1.9.2,6.59,1.05,9.2,1.35,1.57.18,3.43-.42,3.77-.32s-.54,3.73-18.26,3.28S927.35,237.44,927.82,237.33Z"/><path class="cls-40" d="M977.39,160.7s-22.14,17.38-51.32,12.87l-.05-.74s-5.49-12,1.08-18.06,25.89-8.2,25.89-8.2,33,0,45.37,9.71,17.12,29.3,16.86,36.06-9.09,23.5-9.09,23.5.69-14.73.13-21.27S985.3,178.47,977.39,160.7Z"/><path class="cls-40" d="M979.2,164.26s5.6,16.35,12.76,22.62l7.16,6.27s-10.07-10.22-11.62-19.38S979.2,164.26,979.2,164.26Z"/></g></svg>