<svg xmlns="http://www.w3.org/2000/svg" viewBox="0 0 1303.15 1057.31"><defs><style>.cls-1{fill:#f2ebd1;}.cls-2{fill:#bb997a;}.cls-3{fill:#d1c5a6;}.cls-4{fill:#a38166;}.cls-5{fill:#87654d;}.cls-6{fill:#5f6161;}.cls-7{fill:#343535;}.cls-13,.cls-8{fill:none;stroke-miterlimit:10;}.cls-8{stroke:#a38166;stroke-width:0.85px;}.cls-9{fill:#7c4b3a;}.cls-10{fill:#f4f4f4;}.cls-11{fill:#dbad63;}.cls-12{fill:#a66f54;}.cls-13{stroke:#4f2e25;stroke-width:1.19px;}.cls-14{fill:#a66e53;}.cls-15{fill:#4f2e25;}.cls-16{fill:#010101;}.cls-17{fill:#13110f;}.cls-18{fill:#ce8d2a;}.cls-19{fill:#18343f;}.cls-20{fill:#030303;}.cls-21{fill:#24180f;}.cls-22{fill:#fff;}.cls-23{fill:#643c2a;}.cls-24{fill:#c95744;}.cls-25{fill:#681c0e;}.cls-26{fill:#c8e8eb;}.cls-27{fill:#372112;}.cls-28{fill:#9f9f9f;}.cls-29{fill:#97a07f;}.cls-30{fill:#033a51;}.cls-31{fill:#252525;}</style></defs><g id="Layer_12" data-name="Layer 12"><polyline class="cls-1" points="1324.07 828.58 1324.07 -14 -12.33 -14 -12.33 828.58"/><polyline class="cls-2" points="-2.33 1068.57 1324.07 1068.57 1324.07 765.91 -2.33 765.91"/><rect class="cls-3" x="922.85" y="59.89" width="297.42" height="707.28"/><rect class="cls-2" x="1226.22" y="55.23" width="20.52" height="711.15"/><rect class="cls-2" x="915.77" y="55.23" width="16.71" height="711.94"/><rect class="cls-2" x="915.77" y="50.91" width="330.97" height="17.6"/><polygon class="cls-4" points="1051.69 45.35 1230.47 69.38 1230.47 766.38 1051.69 792.38 1051.69 45.35"/><rect class="cls-5" x="1032.44" y="45.32" width="19.25" height="746.43"/><path class="cls-6" d="M1081,417.15h30.88c2,0,3.69,2.49,3.69,5.56h0c0,3.07-1.65,5.56-3.69,5.56H1081c-2,0-3.7-2.49-3.7-5.56h0C1077.25,419.64,1078.9,417.15,1081,417.15Z"/><path class="cls-6" d="M1080.87,429.35c-.22,0-.45,0-.68-.05a4.46,4.46,0,0,1-3.54-2.44,8.56,8.56,0,0,1-.77-3.05,10.58,10.58,0,0,1,.22-3.69,5,5,0,0,1,3.57-3.52c.34-.11,4.58-.68,4.58-.36V396.29c0-5.78-3.24-10.47-7.24-10.47h0c-4,0-7.24,4.69-7.24,10.47v72.15c0,5.78,3.24,10.47,7.24,10.47h0c4,0,7.24-4.69,7.24-10.47v-34.2c0-1.68,0-3.37,0-5.05C1083.12,429.17,1082,429.37,1080.87,429.35Zm-2.19,29.83v4.09c0,.89-.5,1.61-1.12,1.61s-1.09-.73-1.09-1.61v-4.09a3.87,3.87,0,0,1-1.42-3.29c0-2,1.14-3.51,2.5-3.47s2.42,1.66,2.39,3.62A4,4,0,0,1,1078.68,459.18Z"/><rect class="cls-6" x="1038.76" y="392.68" width="7.48" height="76.43"/><path class="cls-7" d="M1078.68,459.18v4.09c0,.89-.5,1.61-1.12,1.61s-1.09-.73-1.09-1.61v-4.09a3.87,3.87,0,0,1-1.42-3.29c0-2,1.14-3.51,2.5-3.47s2.42,1.66,2.39,3.62A4,4,0,0,1,1078.68,459.18Z"/><line class="cls-8" x1="915.77" y1="50.91" x2="932.48" y2="68.51"/><path class="cls-9" d="M627.94,734.12v300.8h-29V966.7H-296.69v68.22h-29V732.51a9.31,9.31,0,0,1,9.23-9.37h10.52a9.31,9.31,0,0,1,9.25,9.37V854.76H598.87V731h0a9.31,9.31,0,0,1,9.25-9.37h10.49C623.73,721.6,627.87,725.79,627.94,734.12Z"/><g id="freepik--Character--inject-2"><path class="cls-10" d="M563.47,766H-275.39c-11.76,0-21.3,9.08-21.3,20.28v82c0,13.31,11.34,24.1,25.32,24.1H599.14V799.93c0-18.79-16-34-35.74-34Z"/><path d="M563.84,765.35H-271.4c-8,0-15.85,1.43-21.42,8-4.81,5.68-4.86,12.16-4.86,19.08v27.84c0,16-.32,32.06,0,48.07.3,15.16,13.09,24.64,27.43,24.69,12.34,0,24.67,0,37,0h832c.37,0,1.36-.18,1.36-.74V811.54c0-5.83.52-12.09-.56-17.86-3.17-17-19-28.12-35.81-28.4-.33,0-1.87.47-1.27,1l.07.07c.57.54,2.44-.24,1.82-.82l-.07-.07-1.27,1c17,.29,32.57,12.09,34.83,29.44.7,5.36.27,11,.27,16.39v80.12l1.36-.73H-268.78c-13.94,0-26.57-8.72-26.91-23.69-.37-16.13,0-32.31,0-48.44v-27.4c0-8.54.59-16.67,8.55-22.1,5.4-3.69,11-3.52,17-3.52H563.11C564,766.61,565.17,765.35,563.84,765.35Z"/><path class="cls-11" d="M599.84,909.83v-157c0-21.25-15.46-38.48-34.52-38.54l-43.43-.22-1.54-1.52a17.73,17.73,0,0,1-4.72.61c-46.78,0-93.53-1.88-140.27-3.83-81.48-3.41-162.67-5.65-244.16-1.13-79.4,4.4-153.59-5.91-233.13-9.89-5.28-.27-17.68,0-18.87,10.65-5.66,2.31-6.71,6.09-10.67,15.5-9.08,21.54-12.69,123-13.88,169.23l-4.89,67.71c26.42.9,49.05-23.91,75.39-26.58,31.64-3.22,60.77,25.94,92.45,23,25.17-2.35,46.63-24.72,71.83-27.56,29.28-3.4,57.51,20.25,86.64,15.52,21.53-3.57,41.14-22.44,62.62-18.45,16.63,3,30,19.49,46.78,21.29,24,2.6,43.45-25.31,67.5-27.89,31.62-3.43,56.6,37.18,88.41,36.78,24.81-.38,45.48-25.73,70.29-26.39,12.36-.33,24.11,5.58,35.82,10.26s24.68,8.18,36.26,3.12S600.76,938.21,599.84,909.83Z"/></g><path class="cls-12" d="M285.34,636.45s79.39,20.25,96.8,26.13c25.52,8.62,31.72,31.57,31.33,48.78-.82,35.83-105.28,214.52-105.28,214.52l-25.28-1.83,62.66-197.68L243.16,716.22Z"/><path class="cls-12" d="M283.94,921.26l10.13-32c.66.51,1.34,1,2.05,1.46,8.48,5.56,18.6,6,28.37,6.63-7.89,14.26-13.66,24.45-15.66,28,3.8,4.73,21.94,27.41,32.61,43.18l-.58,2s-6,11.08-14.25,8.79-49-43.14-49-43.14l5.21-15Z"/><path class="cls-12" d="M278.84,665.18s96,8.92,113.71,24.31,9.37,32.2,2.66,51.88-107.83,196-107.83,196L263,917.58s25.08-118,33.36-138.31,31.19-45.46,31.19-45.46-79.3-11.19-93.71-15.67S278.84,665.18,278.84,665.18Z"/><path class="cls-12" d="M301.92,917.9l20.89,43.35c1,3.87-44.87-.87-57.15-54.28l9.95-6.56Z"/><path d="M362.86,1000.33s4.33-4.67.88-8.26-21-25-23.41-25.58c-.65,1.72-3.59,3-9,2.41s-11.46-1.08-22.67-9.09c-8.41-6-25.87-17.88-32.08-26.74-2.07-3-3.75-10.54-3.59-11.46-14.39,7.35-16.51,21.09-13.34,26.14S288,966.58,288,966.58l20.67,16.22L330,993.69l9.23,3.91,11.65,3.22Z"/><path d="M259,946.05c2.41,2.32,10.84,8.05,18.54,11.72,20.7,9.87,26.56,15.86,32.71,21.34A96.77,96.77,0,0,0,321.34,988c22.6,15.38,40.64,12.41,41.29,12.25a2.92,2.92,0,0,1,.15,1.55,19.73,19.73,0,0,1-6.47,1.26c-8.2.18-19.55-.49-37.22-12-5-3.26-8.06-5.12-11.13-7.85-4.61-4.11-9.35-8.33-20.72-14.53l-1.48,3.79s-22.5-9.11-30.64-18.21C256.74,948.11,259,946.05,259,946.05Z"/><path d="M256.26,950.75c11.82,9.64,26.22,16.25,30.8,18.35l-1.3,3.33s-22.5-9.11-30.64-18.21A30.76,30.76,0,0,1,256.26,950.75Z"/><path class="cls-12" d="M273.38,869.43a43.13,43.13,0,0,0,4.91,6,61.84,61.84,0,0,0,8.68,7.16A40.56,40.56,0,0,0,297.24,888c5.75,1.92,11.79,2.31,17.74,3.21-10.7,19.49-23.26,35.09-23.49,42.62l22.24,47.65c1,4.25-47.22,1.33-60.28-57.37l10.05-9.51S267.78,894.48,273.38,869.43Z"/><path d="M328,1019.67s5.14-3.63,2.46-7.9-15.66-29.09-17.92-30.17c-1,1.54-4.09,2.18-9.24.39s-11-3.56-20.4-13.85c-7-7.71-21.82-23.17-26.17-33.21-1.45-3.35-1.62-11.14-1.28-12C240,927,235.21,940,237.33,945.62s24.06,24.63,24.06,24.63l17.06,20.41L297.14,1006l8.27,5.85,10.77,5.7Z"/><path d="M237,943.81c1.91,2.8,9,10.24,15.86,15.52,18.32,14.2,22.88,21.35,27.83,28.06a98.47,98.47,0,0,0,9.11,11.08c19.1,20,37.31,21,38,21a2.93,2.93,0,0,1-.16,1.55,19.9,19.9,0,0,1-6.56-.18c-8.06-1.62-19-4.76-34.06-19.89-4.27-4.28-6.89-6.78-9.36-10.13a98.57,98.57,0,0,0-17.43-18.75l-2.18,3.39S237.81,961.64,231.63,951C234.4,945.32,237,943.81,237,943.81Z"/><path d="M233.41,947.8c9.69,12,22.48,21.66,26.56,24.71l-1.92,3S237.81,961.64,231.63,951A29.76,29.76,0,0,1,233.41,947.8Z"/><path class="cls-13" d="M278.84,665.18s96,8.92,113.71,24.31,9.37,32.2,2.66,51.88S294,925.17,294,925.17s-4.13,5.24-.38,13.28l10.49,22.49"/><path d="M139.66,331.22a12.44,12.44,0,0,1,10.47-20.28A13.61,13.61,0,0,1,167,294.49,10.05,10.05,0,0,1,184.1,287c.19-.19.39-.36.59-.53a14.3,14.3,0,0,1,20.15,1.76,11.84,11.84,0,0,1,14.29,6.69l22.72,87.95a22.59,22.59,0,0,1-21.49,13,19.68,19.68,0,0,1-26.73,5.95,11.43,11.43,0,0,1-19.9.05q-1.53.27-3.09.42c1.07-3.21-.58-7.45-5-7.43s-8.78-4-9.36-8.37c-.39-2.95-4.18-4.54-6.74-3.84a5.35,5.35,0,0,0-1,.4,10.05,10.05,0,0,1,1.54-2.86l-.43-.18A16.81,16.81,0,0,1,141,357.91a17.41,17.41,0,0,1-1.5-1.35A17.91,17.91,0,0,1,139.66,331.22Z"/><path class="cls-14" d="M176.44,378.78s7.06,23.83,2.48,41c-.64,2.39-12.31,7.53-12.32,7.53.5-.28,11.2,7.09,11.66,7.37,8.12,5,7.46,19.69,17.92,20.73,11.07,1.1,27.66,4.33,38,.24,7.26-2.87,6.92-15.76,12.78-20.66,0,0-12.39-8.05-13.29-10.82s-.49-26.24-.49-26.24"/><path class="cls-15" d="M195.1,406.13s-.21,12.83,26.13,16.92c0,0,11.23.88,12.16.2l.37-7Z"/><circle cx="168.24" cy="395.76" r="7.48"/><circle cx="157.94" cy="384.31" r="9.64"/><path d="M253.32,374.41a13.3,13.3,0,0,0,8.32-14.88,16.19,16.19,0,0,0,3.9-21.57l-.48-.69a11.35,11.35,0,0,0,1.29-15.34c-1.78-2.2-3.25-4.3-6-4.44,1.83-7.81-1.74-15.28-8.89-18.07a13.21,13.21,0,0,0-7.21-.67c1.19-7.35-4-13.07-10.94-14.12-3.19-.48-5.92-.74-8.62,1.21a17.58,17.58,0,0,0-25.8-2.15,18.17,18.17,0,0,0-1.53,1.51c-14.82-5.29-18.77-1.35-23.47,7.51-.08.15-.16.3-.23.45-5.12-5-14.19-3.07-19,2.6s-6.1,13.71-5.58,21.18a12.93,12.93,0,0,0-6,16.46,11.82,11.82,0,0,0,4,5c-6.6,9.31-5.16,22.27,3.27,29.28-1.37,9.82,3,19.38,11,24.21"/><path class="cls-14" d="M237.69,314.67l.24.16a3.9,3.9,0,0,1-.25-.36Zm9,1.66a4,4,0,0,0,.44.35v-.16S246.72,316.13,246.72,316.33Zm-55.37,86c8.6,8.45,21.5,16.18,31.17,17.36,4.74.58,14.21.07,18.94-3.4,11.86-8.7,20-24.86,18-40.23-.37-2.83-2.11-8.1-2-10.84.18-3.15-.07-18.33-3.06-27.87-3.65-11.62-7.24-17.36-7.24-17.36-.45-2,4.5-1.14,3.41-2.71l-.86,0a.85.85,0,0,1,.44.78,6.74,6.74,0,0,1-3-1.38v0c-1.29.6-2.58,0-3.67-.94,0,.19.23.59.44.58a4.28,4.28,0,0,1-3.45-1.14c0,.2.23.59.23.79a8,8,0,0,1-2.78-1.18c.2.25,5-.56,5-.43-1.28.22.2.63-.89-.34l-1.07-.72c-1.07.21-1,.86-1.89.08.22.19-.62-2.16-.62-2-1.29,0-.94-.07-2-.65,0,.2-3.49,1.33-3.49,1.52-1.07,0-.77,1-1.64.22.22.19.76-.84,1-.64-1.28.21-1.76,1.05-2.84.07.21.2-4.28-2.1-4.28-2.1-1.28.21-1.06.61-2.14-.16.43.39-5.95-.29-5.73.1-1.07,0,2.1,3.9,1.24,3.32a11.08,11.08,0,0,1-2.48-.56c-1.07.21.55,1.18-.32.4,0,.2.23.79.44.78a4.35,4.35,0,0,1-4.08-.54c.43.39.65.79.87,1-1.08,0-1.93.22-3-.55,0,.19.44.78.65.78a4.28,4.28,0,0,1-3.44-.36c0,.2.44.59.65.78a3,3,0,0,1-2.57-.36l.65.78c-.86,0-1.5.42-2.79,0,0,.19.44.39.44.58a7.78,7.78,0,0,1-2.15-.17c0,.2.65.59.43.59-.85,0-1.49.41-2.57,0,.22.19.44.59.65.78a5.75,5.75,0,0,1-2.57-.16,1.45,1.45,0,0,0,.44.78c-.86,0-1.5.41-2.58,0,0,.2.44.59.65.78a11,11,0,0,1-2.57,0c0,.2.43.39.65.58a6.78,6.78,0,0,1-2.79-.16c0,.4.22.59.22.79-.64,0-1.07-.19-1.72-.18l-1.07.41c-2.95,4-10.79,11.95-10.79,11.95-6.58,5.4-6.6,14.64-6.34,18.38S176.55,369,176.55,369c-1.09-1.36-2.07-4.52-2.74-6.09-.66-1.37-1.66-2.91-2.32-4.28-2-3.13-6.25-2.09-8.59-.09l-.38.65c-3.23,4.49-2.1,15.57,4.15,22.88.83,8.36,9.28,12.22,11.2,6l1.21,3.25"/><path class="cls-16" d="M237.87,383a5.59,5.59,0,0,1-4.94-.18c-.31-.18-1.35,0-.9.27a7.79,7.79,0,0,0,6.71.15c.18-.09.15-.22-.08-.29a1.24,1.24,0,0,0-.79.05"/><path class="cls-16" d="M231.41,382.71a8.77,8.77,0,0,0-3-.66.7.7,0,0,0-.47.15c-.08.08-.1.18,0,.24a3.3,3.3,0,0,0,1.67.33.61.61,0,0,0,.51-.2c.09-.14-.08-.23-.22-.22a2.69,2.69,0,0,1-1.35-.27l-.45.39a8.15,8.15,0,0,1,2.73.6.63.63,0,0,0,.55-.07c.11-.06.23-.22.06-.29"/><path class="cls-16" d="M227.25,382.93a4.3,4.3,0,0,1-3.31-1.36c-.94-1.33-.13-3.61,1.38-4.51.17-.09.08-.21-.09-.24a1,1,0,0,0-.66.14,4.29,4.29,0,0,0-1.92,3.94c.21,1.18,1.4,2,2.88,2.29a6.93,6.93,0,0,0,1.37.15c.18,0,.52-.06.6-.21s-.08-.2-.25-.2"/><path class="cls-16" d="M240.11,382.34a.16.16,0,0,1,.15-.23,1.4,1.4,0,0,0,.94-.32l.33.38a4.35,4.35,0,0,0-1.9.7.35.35,0,0,1-.4-.05c-.08-.06-.17-.21,0-.29"/><path class="cls-16" d="M239.18,382.53a5,5,0,0,1,2.14-.78.41.41,0,0,1,.33.14.16.16,0,0,1,0,.24"/><path class="cls-16" d="M242.66,382.44a2.49,2.49,0,0,0,2.1-1.48,3.41,3.41,0,0,0-1-3.79c-.11-.09-.05-.21.06-.25a.47.47,0,0,1,.42.12,3.83,3.83,0,0,1,1.38,3.21,2.77,2.77,0,0,1-1.8,2.39,3.31,3.31,0,0,1-.88.2c-.12,0-.34,0-.4-.18s.05-.21.16-.22"/><path d="M174.93,372.92a45.34,45.34,0,0,0-4.32-7.33,14.17,14.17,0,0,0-3.05-3.18,3.92,3.92,0,0,0-1.62-.77c-.63-.09-.87.33-1.13.83a10.76,10.76,0,0,0-.4,7.54c.05.19.78,0,.73-.2a11.56,11.56,0,0,1-.16-6,5.75,5.75,0,0,1,.9-2l-.48.18c-.12,0,0,0,0,0l.25.06a4.42,4.42,0,0,1,1.12.58,16.56,16.56,0,0,1,4.13,4.65,51,51,0,0,1,3.28,5.86c.1.2.8,0,.73-.2Z"/><path class="cls-17" d="M258.87,349.66c-3.47-4-6.24-5.78-14.23-9.35l-.11.16-1,1.29c-.53.69-1.06,1.37-1.58,2.06,2.63,1.13,4.69,1.73,6.29,2.58,3,1.63,6.74,3.14,9.24,5.58C257.92,351.2,258.38,350.42,258.87,349.66Z"/><path class="cls-17" d="M220.5,341.87c.42,1.05.19.46.6,1.52.31.81.63,1.62.94,2.42-3,.41-5.27.45-7.16.86-3.74.82-8.18,1.32-11.53,3.24-1.61.92-3.89,2.29-4.54,4.21-.18.51-.24,2.14-1,2.12-.32,0-.38-1.48-.39-1.64-.11-3,1.86-5,4.55-6.8,5.48-3.64,8.57-4.64,18.5-6.12"/><path class="cls-18" d="M171.66,386.61a5,5,0,0,0-2.08,3.1,4.55,4.55,0,0,0,.64,3.33,4.68,4.68,0,0,0,3.07,2,4.94,4.94,0,0,0,2-.18,5.11,5.11,0,0,0,3.36-2.67c.25-.49-.82-.43-1-.07a3.86,3.86,0,0,1-2.35,2.07,4.71,4.71,0,0,1-1.06.19h-.45a4,4,0,0,1-2.44-1.54,4.11,4.11,0,0,1,1-5.83c.17-.12.28-.34.08-.48a.77.77,0,0,0-.76.08Z"/><path d="M174.72,373c-1.14,0-2.79.31-2.56,1.8s1.13,2.56,1.36,3.94a2.15,2.15,0,0,1-.47,1.89c-.2.22-.3.19-.64,0a3.49,3.49,0,0,1-1-.76,8.08,8.08,0,0,1-1.76-3c-.28-.76-.33-1.58-.63-2.33-.6-1.49-1.23-4.1.64-5,.43-.19-.25-.18-.42-.1-1.8.82-1.72,2.83-1.22,4.47a15.84,15.84,0,0,1,.49,1.62,9.47,9.47,0,0,0,1.51,3.65c.75,1.07,2.35,2.61,3.65,1.36s.48-2.8-.05-4a7,7,0,0,1-.74-2.21c-.06-1,.76-1.08,1.55-1.1.2,0,.79-.31.31-.3Z"/><path d="M351.35,709.87a15.79,15.79,0,0,0-3.46,2.53,77.94,77.94,0,0,0-13.76,15.12,13.94,13.94,0,0,0-2.11,3.63c.26.17,3.93-5.11,9.28-11S351.56,710.1,351.35,709.87Z"/><path class="cls-19" d="M153,621.93c5.13,2.15-1.58,5.72,3.8,5.42,4.81-.28,10,4.4,14.67,3.3s5.71,3.62,10.36,2.27c9.54-2.77,17.3,4.93,26.4.79,16.94-7.7,21.12-7.3,34.27-21.33,2.41,6.46,19.11.82,25.49,1l45.45,17.37s86,34.68,89.83,44.3l-3.43-1.32s-22.36-8.82-38.32,19.49c-13.14,23.34-31,43-31,43L206,737c-26,4-52.26-8.34-68.3-32.07-10.9-20.26-3.92-66.31-3.49-74.55a.35.35,0,0,1,.58-.25C137.26,632.31,149.63,620.53,153,621.93Z"/><path d="M263.93,708l.15,0v-.37Z"/><path class="cls-17" d="M252.55,357a2.42,2.42,0,0,1,2.67.21,2.37,2.37,0,0,1,.81,1,2.42,2.42,0,0,1-.35,2.26,2.24,2.24,0,0,1-2.53.7,2.49,2.49,0,0,1-1.51-2.75,2.23,2.23,0,0,1,.91-1.44"/><path class="cls-17" d="M213.68,355.54a2.45,2.45,0,0,0-2.57.74,2.31,2.31,0,0,0-.59,1.16,2.42,2.42,0,0,0,.79,2.14,2.24,2.24,0,0,0,2.62.2,2.5,2.5,0,0,0,.93-3,2.25,2.25,0,0,0-1.18-1.23"/><path class="cls-14" d="M333.42,460l4.32-7.68s1.51-8.7,2.91-11.37,9.65-11.42,10.16-11.68,4.78-14.69,7.61-14.63,5,1.77,4.7,5.56-5.43,12-3.58,13a12.85,12.85,0,0,0,4.69,1.08s.19-4.35,2.34-6,5.1.24,5.1.24l.31,1.83,2-2.41s1.29-8.85,4.95-9.29a15.22,15.22,0,0,1,3-5.35,3.19,3.19,0,0,1,4.51,0,3.31,3.31,0,0,1,.55.74h0l-4,20.19-15.45,22.34s-10.18,5-12.21,6.27l-3.19,6Z"/><path class="cls-15" d="M359.86,433.63c.11-.21-1-1-2.6-1.23s-2.89.12-2.84.38,1.24.32,2.7.55S359.76,433.88,359.86,433.63Z"/><path class="cls-15" d="M380.85,434.5a19.47,19.47,0,0,1-.14-4.25c0-2.65.14-6.37.31-10.64l.35.5c-.68-.21-1.52-.56-2.12-.67a2.49,2.49,0,0,0-1.88.51,5.52,5.52,0,0,0-1.88,3,19,19,0,0,0-.75,3.49c-.23,2.31-.3,4.46-.39,6.19a35.53,35.53,0,0,1-.43,5.74c-.14,0-.28-2.17-.32-5.76,0-1.77,0-3.88.17-6.26a20.3,20.3,0,0,1,.73-3.71,6.59,6.59,0,0,1,2.25-3.56,3.62,3.62,0,0,1,2.66-.68,18.27,18.27,0,0,1,2.31.74l.37.11,0,.39c-.23,4.29-.47,8-.68,10.65A19.9,19.9,0,0,1,380.85,434.5Z"/><path class="cls-15" d="M359.27,454.15a5.32,5.32,0,0,1,0-.83,11,11,0,0,1,.48-2.28,29.09,29.09,0,0,1,3.83-7.56l-.08.19c.77-3.87-1.09-9.08,1.63-14.32a4.4,4.4,0,0,1,3.28-2,6.4,6.4,0,0,1,3.54.73l.26.13,0,.3c0,5.52.06,10.28,0,13.67a8.8,8.8,0,0,1-.71,3.95c-.36.86-.65,1.28-.72,1.2a7.23,7.23,0,0,1,.38-1.38,9.48,9.48,0,0,0,.4-3.85c-.14-3.38-.28-8.13-.39-13.62l.27.44a5.54,5.54,0,0,0-2.94-.58,3.35,3.35,0,0,0-2.51,1.56,8,8,0,0,0-1.13,3.46,34.11,34.11,0,0,0-.29,3.64c0,1.21.05,2.31.07,3.5a20,20,0,0,1-.28,3.28v.1l-.06.09a32.64,32.64,0,0,0-4.06,7.16C359.46,453,359.39,454.17,359.27,454.15Z"/><path class="cls-15" d="M337.74,452.32s2.49,4.16,9.07,4.71C346.81,457,338.56,458.7,337.74,452.32Z"/><path d="M202,283.14a18,18,0,0,0-13.17-4.09c-7.77.87-11.8,8.08-11.8,10.86S202,283.14,202,283.14Z"/><path class="cls-19" d="M287.21,731.15s9.46,6-3.34,53c-3.14,11.58-10.28,39.17-10.28,39.17l114.18,7s41.59-113.73,23.39-144.86C400.27,666.87,368.6,655,368.6,655Z"/></g><g id="Layer_11" data-name="Layer 11"><path class="cls-20" d="M716,108.52c-1.92-1.26-4.12-3.31-3.26-5.44a19.09,19.09,0,0,1,1.1-1.76c.78-1.45.45-3.24.79-4.86s2.16-3.23,3.51-2.27a8.2,8.2,0,0,1,1-7.43c1.59-2,4.86-2.81,6.9-1.2a4.81,4.81,0,0,1,8.5-4c-.63-2.73-.27-5.91,1.78-7.83s6-1.72,7.17.81c.73-3.88,6.37-5.7,9.23-3a6.06,6.06,0,0,1,10.68-2.55,6.4,6.4,0,0,1,11.82-.54c2.46-3.72,8.83-3.74,11.32,0A6.4,6.4,0,0,1,798,67.64c1-2.08,4.21-2.23,6-.71s2.25,4,2.14,6.35c1.25-1.83,4.19-1.79,5.92-.4s2.45,3.69,2.75,5.89c2.83-1.71,2.66-.85,4.72,1.74a6,6,0,0,0,1.5,1.63,7.26,7.26,0,0,0,2.24.52,5.06,5.06,0,0,1,3.85,3.76c.49,2.18-.51,4.54.23,6.64a23.09,23.09,0,0,0,2.06,3.34c2.33,4.17,3,9.88,3.14,14.66.14,3.93,6.16,39.46-4.17,49.2-7.75-15-17.48-65.73-33.32-71.58a69.19,69.19,0,0,0-49.52.8s-16,2.28-19.52,5S716,108.52,716,108.52Z"/><path d="M731.92,69.27c.05-.14.11-.29.17-.43A16.81,16.81,0,0,1,754,59.65c.41-.53.85-1,1.31-1.53a17.92,17.92,0,0,1,25.34-.54,12.44,12.44,0,0,1,20.54,10A13.59,13.59,0,0,1,818.09,84,10.05,10.05,0,0,1,826,100.86c.19.18.37.38.55.58a14.3,14.3,0,0,1-1.24,20.18A11.85,11.85,0,0,1,819,136.09l-87.32,25c-8.4-3.64-11.54-17.08-11.38-26.23-9-5.61-14.18-12.28-8.87-21.48-1.83-1-1.79-1.54-2.87-3.32-3.26-5.4-3.1-13.3,2.3-16.56,0,0,.68-12.45,10.61-12C721.47,81.5,719.81,70,731.92,69.27Z"/><path d="M741.37,72.49l.17-.44c4.62-11.28,6.9-15.33,21.92-9.18a17.57,17.57,0,0,1,1.32-1.54,17.93,17.93,0,0,1,25.34-.53,12.44,12.44,0,0,1,20.54,9.94A13.6,13.6,0,0,1,827.54,87.2a10.06,10.06,0,0,1,7.92,16.87c.19.19.37.38.55.58a14.3,14.3,0,0,1-1.24,20.19,11.83,11.83,0,0,1-6.32,14.46l-87.32,25a22.61,22.61,0,0,1-13.6-21.15,19.67,19.67,0,0,1-6.64-26.56,11.43,11.43,0,0,1-.57-19.89s.68-12.44,10.6-12C730.92,84.71,729.27,73.18,741.37,72.49Z"/><path class="cls-20" d="M716.49,108.49c-1.92-1.27-4.11-3.31-3.26-5.45a18.94,18.94,0,0,1,1.1-1.75c.79-1.46.45-3.24.79-4.86s2.16-3.23,3.51-2.27a8.2,8.2,0,0,1,1-7.43c1.59-2,4.86-2.82,6.9-1.2a4.81,4.81,0,0,1,8.5-4c-.63-2.73-.26-5.91,1.78-7.83s6-1.72,7.17.82c.73-3.88,6.37-5.71,9.23-3A6.06,6.06,0,0,1,763.84,69a6.4,6.4,0,0,1,11.82-.54c2.46-3.72,8.83-3.74,11.32,0a6.39,6.39,0,0,1,11.55-.82c1-2.08,4.21-2.23,6-.71s2.25,4,2.14,6.35c1.26-1.84,4.19-1.8,5.92-.4s2.45,3.69,2.76,5.89c2.82-1.72,2.65-.85,4.71,1.73a5.85,5.85,0,0,0,1.5,1.63,7,7,0,0,0,2.24.52,5.09,5.09,0,0,1,3.85,3.77c.49,2.17-.51,4.54.24,6.64a22.59,22.59,0,0,0,2,3.33c2.33,4.18,3,9.88,3.14,14.66.14,3.94,6.16,39.47-4.17,49.21-7.75-15-17.48-65.73-33.32-71.59a69.16,69.16,0,0,0-49.51.81s-16,2.28-19.52,5S716.49,108.49,716.49,108.49Z"/><path class="cls-14" d="M816.78,173.08s-.61,34.34,7,43.29c2,2.34,21.79,12.52,21.79,12.52l-85,39.58-24.49-23.59s20.2-15,21-18.58-3.36-31.21-3.36-31.21"/><path class="cls-15" d="M756.28,213.32l1,10.81s29.63-.51,38.84-7.72,11.09-25.66,11.09-25.66Z"/><path class="cls-21" d="M235.07,390.6c-5.23.15-14.68,3.06-16.94,5.16,0,0,4.33,7.35,16.45,7s13.78-7.32,13.78-7.32S241.73,390.4,235.07,390.6Z"/><path class="cls-22" d="M221,394s6.21-.69,11.17-.83,11.19.17,11.19.17.69-3.73-8.31-3.47S221,394,221,394Z"/><path class="cls-23" d="M235.66,401.45c-5.7-.65-12.11-5.35-18.72-4.74,0,0,2.63,10.31,16.88,9.89s15.34-10.84,15.34-10.84C242.53,395.55,241.31,400.47,235.66,401.45Z"/><path class="cls-23" d="M241.18,387.58c-3-.13-4.86,1.06-6.16,1.1s-3.24-1-6.22-.73c-2.8.29-13,8-11.67,8.81s9-4.92,18-5.18S247.68,396.92,249,396,244,387.71,241.18,387.58Z"/><path class="cls-14" d="M183.33,416.68l1-22.46L197.8,380.4a2.7,2.7,0,0,1,.33.22,2.18,2.18,0,0,1,.32,3.06l5.25-4.74c3.93,2.75-1.38,10.66-1.38,10.66l6.33-6.7c3.41,3.2-.33,8.84-.33,8.84L202,401.94s-.27,7,.3,9.31,1,4.75,1,4.75l1.48-7.77,8.75-13.64s1.73,1.43,1.92,5.06-5.25,12.06-5.25,12.06,1.67,23,.69,27.73"/><path class="cls-15" d="M184,416.57l.82-18.32.16-3.55c0-.65,0-.45.39-.9l6.85-7,6.21-6.37-.81.17a2.14,2.14,0,0,1,.66,3.14c-.21.31.67.09.8,0l5.25-4.74-.81.17c3.25,2.45.35,7.93-1.38,10.51-.19.3.67.11.8,0l6.33-6.7-.81.18c3.61,3.63-.36,8.77-2.43,12.1l-3.86,6.17c-.79,1.28-.49,2.9-.49,4.38a32.35,32.35,0,0,0,.25,5.11c.3,1.77.78,3.51,1.07,5.29,0,.23.83,0,.87-.18l.94-5a10,10,0,0,1,.74-3.13c1.94-3.35,4.21-6.55,6.3-9.81l2.25-3.51-.84.23a6.7,6.7,0,0,1,1.81,4.19,10.73,10.73,0,0,1-1.28,5.7,50.12,50.12,0,0,1-2.7,5.19,8.94,8.94,0,0,0-1.19,2,7.63,7.63,0,0,0,.12,1.84c.1,1.37.18,2.73.26,4.1.23,3.84.43,7.68.54,11.52.1,3.31.43,6.93-.22,10.21,0,.24.82.1.86-.14a40.32,40.32,0,0,0,.28-8.58c-.09-4-.28-8-.51-11.94-.09-1.54-.18-3.08-.28-4.62a12.78,12.78,0,0,1-.17-2.46,6.59,6.59,0,0,1,.91-1.63,54.38,54.38,0,0,0,2.73-5.11c.84-1.82,1.75-3.86,1.57-5.92-.14-1.58-.64-3.58-1.92-4.67-.2-.18-.71,0-.84.22l-5.44,8.47-2.89,4.51a6.37,6.37,0,0,0-.78,2.57L203,416.08l.87-.19c-.27-1.65-.66-3.28-1-4.92a23.26,23.26,0,0,1-.32-4.33c0-1.39,0-2.77,0-4.15a1.58,1.58,0,0,1,.35-1.13c2-3.25,4.28-6.71,6.17-9.88,1.56-2.62,2.6-6.28.17-8.73-.17-.17-.67,0-.81.18l-6.33,6.69.8,0c1.78-2.66,4.77-8.26,1.4-10.79-.21-.16-.64,0-.81.17l-5.25,4.74.8,0a2.31,2.31,0,0,0-.64-3.42.81.81,0,0,0-.81.17l-12.68,13a2.79,2.79,0,0,0-.82,1,12.14,12.14,0,0,0-.12,2.7l-.51,11.24-.37,8.38c0,.18.86.06.87-.23Z"/><path class="cls-15" d="M193.89,409c0-2.39,0-5.68.08-9.31l0-1v-.16l.11-.12c2.21-2.6,4.23-4.9,5.7-6.5a15.74,15.74,0,0,1,2.52-2.49,15,15,0,0,1-2.05,2.88c-1.32,1.72-3.29,4.09-5.49,6.69l.11-.28a6.63,6.63,0,0,0,0,1c-.08,3.64-.2,6.93-.34,9.31a16.77,16.77,0,0,1-.4,3.85A17,17,0,0,1,193.89,409Z"/><path class="cls-15" d="M188.4,402.41c0-2.18,0-5.24,0-8.64v-.18l.13-.12.74-.79c2.54-2.64,4.86-5,6.58-6.67a17.12,17.12,0,0,1,2.92-2.59,16.36,16.36,0,0,1-2.45,3c-1.61,1.79-3.89,4.18-6.4,6.85l-.75.79.13-.31c-.08,3.46-.19,6.47-.32,8.66a14.94,14.94,0,0,1-.37,3.52A15.17,15.17,0,0,1,188.4,402.41Z"/><path class="cls-24" d="M174.42,423.52s-32.82,4.4-43.52,21.7c-14.56,23.54-42.46,152.85,11,138.9C180.64,574,183.07,482.7,183.07,482.7l-7-49.56"/><path class="cls-24" d="M275.45,592.12c.11,13.73,12.61,18.37,4.78,31.31-11.11,18.35-32.61,32.23-52.41,32.14-17.88-.08-35.67-2.25-53.32-5-8-1.25-16.22-3.46-24.22-3.1-1.25.06-21.12.67-20.4-1.56l14-45.86,3.75-18.1-14.2-132.49,22.27-21.23,18.24-5.39,8.29,7c6.2,7.7,16.89,14.42,27.14,14.63,3,.06,11.06-.11,14.26-.48,8.94-1,14.19-8.19,12.59-17.48-.05-.3,17.72,4.63,19.05,4.81,7.08,1,20.12,5.57,21.82,8.23,0,0,4.9,72.64,4.94,83.26C282.05,530.14,275.12,547.83,275.45,592.12Z"/><path class="cls-14" d="M215.86,399c.19,3.74-5.4,12.4-5.4,12.4s1.72,23.68.72,28.5c-.25,1.19-6,4.64-7.32,7.9a26.6,26.6,0,0,0-1.55,8.69l-19.14-12.07,1.3-3.66-1.53-24.26,1-23.09,13.83-14.2a2.54,2.54,0,0,1,.34.23,2.23,2.23,0,0,1,.33,3.14l5.4-4.87c4,2.82-1.43,11-1.43,11l6.51-6.88c3.51,3.29-.33,9.08-.33,9.08l-6.55,10.5s-.28,7.19.3,9.56,1,4.88,1,4.88l1.52-8,9-14S215.67,395.27,215.86,399Z"/><path class="cls-15" d="M184.18,432.15l-.45-12.86c-.1-2.71,0-5.34.12-8.05l.7-15.5c0-.67.09-1.35.09-2,0-.44,0-.26.12-.46a40.94,40.94,0,0,1,3.74-3.83l10-10.23-.83.18a2.21,2.21,0,0,1,.67,3.24c-.21.3.69.08.82,0l5.4-4.88-.83.18c3.37,2.53.33,8.2-1.45,10.86-.12.18.73,0,.86-.09l6.5-6.88-.83.18c3.72,3.73-.38,9.05-2.53,12.49l-3.92,6.28c-.81,1.29-.52,2.88-.52,4.38a37.5,37.5,0,0,0,.23,5.19c.27,1.89.82,3.75,1.12,5.64,0,.23.86,0,.9-.19l1-5.08a10.53,10.53,0,0,1,.76-3.22c2-3.46,4.34-6.77,6.5-10.13l2.3-3.57-.87.23c1.37,1.17,1.91,3.45,1.94,5.17,0,2.06-1,4.15-1.84,6a57.55,57.55,0,0,1-2.92,5.34,2.69,2.69,0,0,0-.61,1.4c0,1,.14,2.09.21,3.11.11,1.8.22,3.6.32,5.41.23,4.28.43,8.57.47,12.86a52.73,52.73,0,0,1-.14,5.62,3.83,3.83,0,0,1-.59,2,20.45,20.45,0,0,1-4.11,3.53c-.37.29.52.2.7.06,1.57-1.22,4.41-2.76,4.79-4.94a27.84,27.84,0,0,0,.25-4.18c.05-4.28-.14-8.56-.35-12.82-.17-3.43-.38-6.86-.61-10.29-.05-.65-.13-.81.18-1.29a49.34,49.34,0,0,0,2.78-4.9c1-2,2.29-4.42,2.37-6.76.07-1.83-.52-4.36-2-5.62-.2-.18-.74,0-.86.23l-5.57,8.68-3,4.69a6.56,6.56,0,0,0-.8,2.65l-1.14,6,.89-.19c-.28-1.73-.71-3.42-1-5.14a25.55,25.55,0,0,1-.31-4.54c0-1.37,0-2.75,0-4.12a1.61,1.61,0,0,1,.37-1.15c2.11-3.39,4.3-6.74,6.34-10.17,1.6-2.69,2.65-6.45.16-8.94-.17-.17-.69,0-.83.18l-6.5,6.88.85-.09c1.82-2.72,4.85-8.45,1.4-11-.21-.16-.66,0-.83.18l-5.4,4.88.82,0a2.37,2.37,0,0,0-.65-3.52.82.82,0,0,0-.83.18L189,388.12l-4.59,4.71a1.86,1.86,0,0,0-.68,1.72l-.67,14.81c-.13,2.86-.38,5.74-.28,8.61l.52,14.42c0,.2.9.05.89-.24Z"/><path class="cls-15" d="M193.79,408.56c0-2.46,0-5.84.08-9.57l0-1v-.16l.12-.13c2.27-2.67,4.34-5,5.86-6.68a15.1,15.1,0,0,1,2.59-2.56,15.91,15.91,0,0,1-2.11,3c-1.36,1.77-3.38,4.2-5.64,6.88l.11-.29a5,5,0,0,0,0,1c-.09,3.75-.2,7.13-.35,9.58a18.12,18.12,0,0,1-.41,4A17,17,0,0,1,193.79,408.56Z"/><path class="cls-15" d="M188.15,401.84c0-2.25,0-5.39,0-8.89v-.18l.13-.13.76-.8c2.61-2.72,5-5.14,6.77-6.87a16.36,16.36,0,0,1,3-2.65,17.9,17.9,0,0,1-2.52,3.11c-1.65,1.84-4,4.29-6.58,7l-.77.81.13-.32c-.08,3.56-.2,6.65-.33,8.9a15.15,15.15,0,0,1-.38,3.62A15.14,15.14,0,0,1,188.15,401.84Z"/><path class="cls-25" d="M150,582.31a84.27,84.27,0,0,0,19.1-18.69,71.71,71.71,0,0,0,9-15.6c1.59-3.79,3-7.64,4.43-11.51,3.73-10.23,7.19-20.57,10.6-30.92q4.94-15,9.68-30.08c1.09-3.45,2.18-6.92,3.25-10.38.53-1.67,1.14-3.35,1.57-5.06,0-.07,0-.15.07-.23a.45.45,0,0,0-.14-.55l-4.63-4.21c-.53-.47-1.87.31-1.2.92l4.63,4.2-.15-.55q-2,6.33-3.94,12.64-4.53,14.4-9.2,28.73c-3.42,10.49-6.91,21-10.61,31.37-3.11,8.73-6.12,17.75-11.08,25.64a84.2,84.2,0,0,1-21.9,23.21l-.47.33c-.86.6.4,1.18,1,.74Z"/><path class="cls-25" d="M126.48,542.65c.83-12.59,7.55-24.5,14.61-34.65,2.11-3,4.34-6,6.73-8.85a12.3,12.3,0,0,0,1.41-2.13L159,479.93l13.41-23.56,5.19-9.11a35.87,35.87,0,0,0,2.63-4.62,1.59,1.59,0,0,1,.13-.22l-1.5.4,2,1.59c.32.25,1.67-.37,1.47-.52l-2-1.59c-.28-.22-1.33.11-1.5.41l-6.52,11.45L159,477.51l-10.63,18.67-1.17,2.06a5.09,5.09,0,0,1-.36.59c-1.76,2.26-3.62,4.42-5.31,6.74-7.13,9.72-13.76,20.82-16,32.82a40.54,40.54,0,0,0-.59,4.67c0,.19,1.53,0,1.56-.41Z"/><path class="cls-25" d="M142.5,443.67a19.29,19.29,0,0,1,6,2.76,28.21,28.21,0,0,1,10.34,12.44,42.15,42.15,0,0,1,3.2,13.41c0,.33,1.6,0,1.56-.42-1-11.55-6.32-23.4-17.6-28.06a14,14,0,0,0-2.26-.76c-.39-.09-1.75.53-1.27.63Z"/><path class="cls-15" d="M227.53,347.59s4.53.89,4.39-3.16-1.46-5.09-1.46-5.09.85,4.58,0,6.09A3.67,3.67,0,0,1,227.53,347.59Z"/><path class="cls-15" d="M239.36,347.59s-4.54.89-4.39-3.16,1.45-5.09,1.45-5.09-.84,4.58,0,6.09A3.64,3.64,0,0,0,239.36,347.59Z"/><path class="cls-26" d="M253.78,364.22a1.07,1.07,0,0,1,.7.86,6.55,6.55,0,0,1,0,2.5c-.24.79-.34,2,.53,1.89s.13-1.45,0-2.51a3.78,3.78,0,0,1,1.15-2.86C256.76,363.61,253.78,364.22,253.78,364.22Z"/><path class="cls-26" d="M254.88,375a8.3,8.3,0,0,0-.85,2.25c.08.43,1.12.72,1.16-.37A4.65,4.65,0,0,0,254.88,375Z"/><path class="cls-26" d="M257.36,386s-1.34,2.62-1.23,3.25,1.62,1.05,1.68-.53A6.71,6.71,0,0,0,257.36,386Z"/><path class="cls-26" d="M202.3,359.44s1.47,1.34,1.47,2a7,7,0,0,1-.27,2.49c-.31.75-.54,1.93.27,1.93s.29-1.42.29-2.49-.15-2.14.45-2.56S202.3,359.44,202.3,359.44Z"/><path class="cls-26" d="M198.6,374.66a12,12,0,0,0-1.31,2.92c0,.59,1.31,1.05,1.48-.4A6.39,6.39,0,0,0,198.6,374.66Z"/><path class="cls-26" d="M201.72,368.42a8.86,8.86,0,0,0-.38,2.37c.15.41,1.15.49,1-.58A4.9,4.9,0,0,0,201.72,368.42Z"/><path class="cls-26" d="M257.43,383.16c-.39,2.32-.66,3.94-.84,5a1.42,1.42,0,0,1,.75.41,66.11,66.11,0,0,0,.92-9.7c-.08-4.29-1.68-15.38-1.68-15.38l-.9.58S258.59,376.2,257.43,383.16Z"/><path class="cls-26" d="M198.7,375.5c.86-6.9,4.45-15.55,4.45-15.55l-.85-.51s-3.22,10.37-4,14.6c-.08.44-.15.92-.21,1.41A2.09,2.09,0,0,1,198.7,375.5Z"/><path class="cls-17" d="M222.54,360s-6.12-4.89-9.33-5.3c-5.8-.75-11.35,2.48-13.11,4.65,0,0,8.58-4.24,11.87-3.74S222.54,360,222.54,360Z"/><path class="cls-17" d="M240.83,359.94s6.22-4.11,9.25-4.33a9.2,9.2,0,0,1,8.74,4.08s-4.93-3.35-8-3S240.83,359.94,240.83,359.94Z"/><polygon class="cls-14" points="811.23 978.88 769.15 961.76 766.8 941.02 813.09 935.76 811.23 978.88"/><path class="cls-27" d="M691.52,999.33s-1.3-8.32,5.91-11.08,23.41-7.23,35.48-12.89c16.76-7.87,26.92-20.21,34.22-20.52s5.54,11.81,21.69,12.78,28.41-7.13,29.17-7.37c3.56,2.31,9.19,27.63,4.63,33.75s-43.79,7.58-43.79,7.58l-31.56,5.21-31.38.1Z"/><path d="M793.64,1000.62a23.78,23.78,0,0,1,1.21-8.42,9.77,9.77,0,0,1,2.44-3.92c1.4-1.3,3.27-1.74,5-2.32,5.72-1.85,13.27-3.27,16.86-8.65,2.22-3.32,2.38-7.33,1.92-11.18-.06-.55-1.18-.27-1.11.3.44,3.72.28,7.72-2,10.87-1.82,2.51-4.65,4-7.48,5.05-3.68,1.43-7.52,2.37-11.22,3.73a9.33,9.33,0,0,0-5.37,5.54,24.13,24.13,0,0,0-1.43,9.07c0,.62,1.14.47,1.14-.07Z"/><path d="M819.08,962a41.26,41.26,0,0,1-17.3,7.14,51.61,51.61,0,0,1-12,.06,59.44,59.44,0,0,1-8.9-1.37c-4.91-1.22-9.52-3.81-14.65-4.05-7-.32-13.63,4.36-19.3,7.86-4,2.47-8,4.82-12.13,7.07a1.44,1.44,0,0,1-1.81,0c-1.27-.78-1-2.48-.72-3.71.12-.48-1-.33-1.13.11-.46,1.9-.29,4.06,1.93,4.58a2.91,2.91,0,0,0,1.21.06A13.05,13.05,0,0,0,737,978.4c.94-.5,1.86-1,2.78-1.54,3.8-2.18,7.46-4.55,11.21-6.8,3.51-2.1,7.2-4.24,11.21-5.18,6-1.4,11.53,1.84,17.17,3.39a52.18,52.18,0,0,0,8.23,1.47,59.81,59.81,0,0,0,12.33.33c7.3-.7,13.87-3.58,19.91-7.65.62-.42-.31-.71-.72-.43Z"/><path d="M768.79,1003.53l6.58-1.09c.15,0,.85-.24.59-.52A26.62,26.62,0,0,0,765.6,995c-4.55-1.66-9.27-1.87-14.06-2.16-5.23-.32-10.47-.62-15.68-1.15a57.32,57.32,0,0,1-12.54-2.26,9.55,9.55,0,0,1-3.92-2.18c-1.73-1.85-.62-4.55.48-6.44.26-.45-.85-.34-1,0-1,1.68-2,3.92-1.17,5.87a5,5,0,0,0,2.17,2.16c3,1.79,6.86,2.35,10.28,2.85,5,.74,10,1.09,15,1.42,5.42.36,11.08.23,16.38,1.49a26.56,26.56,0,0,1,13.42,7.76l.6-.52-6.58,1.09c-.53.08-.92.74-.15.61Z"/><path class="cls-28" d="M773,1002.4l-.15.17.27-.05Z"/><path d="M772.49,1002.43l-.15.17a.16.16,0,0,0-.05.11.12.12,0,0,0,.07.07.31.31,0,0,0,.13,0,1.1,1.1,0,0,0,.26,0l.24,0h0l.3-.08a1,1,0,0,0,.23-.12.34.34,0,0,0,.12-.12.07.07,0,0,0,0-.1l-.11-.13a.27.27,0,0,0-.12,0,.33.33,0,0,0-.17,0,.76.76,0,0,0-.21,0,2,2,0,0,0-.23.06l-.12.06a.76.76,0,0,0-.19.12l0,.06a.07.07,0,0,0,0,.1l.12.13.62-.42-.24,0h0l.41.19.15-.16a.14.14,0,0,0,0-.09.07.07,0,0,0,0-.08.27.27,0,0,0-.12,0,.33.33,0,0,0-.17,0h-.14l-.3.08-.12.06A.76.76,0,0,0,772.49,1002.43Z"/><path class="cls-28" d="M784.09,999.06l-1.29,0a17.16,17.16,0,0,1-.26,2.39l1.33-.08A17.55,17.55,0,0,0,784.09,999.06Z"/><path d="M784.13,998.62l-1.29,0c-.24,0-.6.21-.61.47a17.45,17.45,0,0,1-.25,2.39.34.34,0,0,0,.14.31.63.63,0,0,0,.38.09l1.33-.07a.64.64,0,0,0,.61-.47,19.17,19.17,0,0,0,.22-2.27c0-.28-.28-.42-.53-.4s-.6.18-.61.47a17.27,17.27,0,0,1-.22,2.27l.61-.47-1.32.07.52.4a19.19,19.19,0,0,0,.26-2.39l-.61.47,1.29,0c.24,0,.6-.2.61-.47S784.38,998.63,784.13,998.62Z"/><path class="cls-28" d="M789.93,997.8c-.08,1-.11,2.06-.09,3.11H790l1.1-.09c0-1,0-2,.09-2.92Z"/><path d="M789.37,998c-.08,1-.1,2.07-.09,3.11,0,.07.17.08.2.08.47,0,.94,0,1.41-.09a1.79,1.79,0,0,0,.56-.15c.09,0,.24-.11.24-.23,0-1,0-1.95.08-2.92,0-.07-.17-.08-.19-.08l-1.29-.1a1.36,1.36,0,0,0-.79.21s-.15.1-.13.17.14.08.2.08l1.29.1-.2-.08c-.07,1-.09,1.94-.08,2.92l.79-.38-.82.07h-.17c-.17,0,.08,0,0,0h-.15l.19.08c0-1,0-2.07.09-3.11C790.49,997.49,789.39,997.61,789.37,998Z"/><path d="M826.29,994.38l-1.23.1-.22-1.17c-4.83.4-21.5,1.83-31.69,3.26-3.11.44-7,1.22-11.57,2.12-10.54,2.1-25,5-40.19,5.61-2.73.12-5.42.16-8,.12a187.1,187.1,0,0,1-43.27-5.77l-.19,1.18-.89-.25s-.39,1.6-.74,3.06h0c0,.13-.06.25-.1.38-.12.52-.24,1-.32,1.35,10.47,6.47,56.55,8.07,67,5.46.66-.17,1.38-.34,2.13-.51l1-.21,1.5-.33c11.23-2.41,27.9-5.06,27.9-5.06s-.12,1.64-.16,3.57h0v.06c0,.82,0,1.68,0,2.49a274.88,274.88,0,0,0,39.76-2.27Z"/><path d="M826.37,994.07l-1.23.1.48.16-.22-1.17c0-.19-.36-.18-.48-.16-7.26.6-14.51,1.26-21.75,2-4.21.46-8.43.91-12.61,1.63-4.85.83-9.66,1.86-14.49,2.8a245.16,245.16,0,0,1-31.92,4.37,169.56,169.56,0,0,1-33.47-1.53,167.76,167.76,0,0,1-20.23-4c-.24-.07-.84.06-.89.37l-.2,1.18.9-.38-.89-.24c-.27-.08-.83.06-.9.37-.25,1-.5,2-.74,3.05l1-.34h0c-.27-.13-.92,0-1,.34l-.42,1.74c0,.09,0,.15.12.2a24.11,24.11,0,0,0,6.15,2.4,82.53,82.53,0,0,0,9.18,1.88,211.61,211.61,0,0,0,22.33,2.12c7,.34,14,.46,21,.1a61.81,61.81,0,0,0,7.19-.69c3.74-.63,7.43-1.66,11.15-2.39,7.6-1.49,15.23-2.81,22.87-4l-.48-.24c-.08,1.18-.13,2.38-.16,3.57l.78-.39h0c-.28,0-.78.12-.78.47,0,.85,0,1.7,0,2.55,0,.14.25.17.34.17a242.17,242.17,0,0,0,39.91-2.27c.23,0,.65-.17.63-.47l-.72-13.19c0-.36-1.14-.14-1.12.3l.73,13.19.63-.46a241,241,0,0,1-39.63,2.26l.35.17c0-.85,0-1.7,0-2.55l-.77.47h0c.18,0,.76-.1.77-.39,0-1.19.07-2.38.16-3.57,0-.24-.31-.27-.49-.25q-9.51,1.51-19,3.29c-4.61.87-9.2,1.81-13.77,2.88a39.12,39.12,0,0,1-6.2.81,185.41,185.41,0,0,1-20.28.14,225.14,225.14,0,0,1-22.91-1.93,92.41,92.41,0,0,1-10.44-2,32.87,32.87,0,0,1-4.12-1.31,16.24,16.24,0,0,1-1.6-.71c-.15-.08-.52-.19-.62-.34s.21-1.26.3-1.66l-1,.34h0c.27.13.92,0,1-.34.25-1,.5-2,.74-3.06l-.89.38.89.25c.25.06.85-.07.9-.38l.19-1.17-.9.37a162.89,162.89,0,0,0,17.23,3.53,176.15,176.15,0,0,0,31.78,2.21,213.42,213.42,0,0,0,33-3.82c9.19-1.69,18.28-3.71,27.57-4.8,8.44-1,16.91-1.75,25.38-2.46l-.49-.16.22,1.17c0,.18.36.17.49.16l1.23-.1C826.77,994.65,827.14,994,826.37,994.07Z"/><path d="M762.17,962a1,1,0,0,0,.88.49.93.93,0,0,0,.45-.13,1,1,0,0,0,.35-1.36l-3-5.35c-.54.32-1.1.65-1.67,1Z"/><path d="M761.65,962.25a1.67,1.67,0,0,0,2.88-.67,2,2,0,0,0-.43-1.24l-2.1-3.73-.61-1.08c-.17-.3-.67-.15-.9,0-.57.33-1.12.67-1.67,1-.08,0-.28.2-.21.32l2.62,4.65.38.68c.22.37,1.29,0,1.12-.3l-2.63-4.66-.38-.67-.21.32c.55-.35,1.11-.69,1.67-1l-.9,0,2.93,5.2a1.54,1.54,0,0,1,.19.46.73.73,0,0,1-.2.69c-.05,0-.06,0-.16,0a.82.82,0,0,1-.35-.34C762.49,961.49,761.41,961.85,761.65,962.25Z"/><path d="M757.3,964.91a1,1,0,0,0,.88.5,1,1,0,0,0,.8-1.49l-2.89-5.13-1.59,1.15Z"/><path d="M756.75,965.06a1.71,1.71,0,0,0,2.88-.48,1.65,1.65,0,0,0-.35-1.28l-2-3.58-.6-1.08c-.16-.27-.81,0-1,.11-.53.38-1.07.77-1.59,1.16,0,0-.16.12-.13.18l2.45,4.34.36.63c.17.31,1.23-.09,1.11-.3l-2.45-4.33-.35-.64-.13.19,1.59-1.15-1,.11,2.82,5a1.28,1.28,0,0,1,.2.5.9.9,0,0,1,0,.4c0,.11-.14.2-.17.3l0,0c-.07.06,0,.05.12,0l-.15,0a.89.89,0,0,1-.41-.36C757.67,964.46,756.63,964.88,756.75,965.06Z"/><path d="M749.91,963.33l2.53,4.47a1,1,0,0,0,.88.5.91.91,0,0,0,.44-.14,1,1,0,0,0,.35-1.36l-2.62-4.64Z"/><path d="M749.4,963.57c.83,1.48,1.65,3,2.5,4.43a1.57,1.57,0,0,0,2.1.48,1.4,1.4,0,0,0,.62-1.93c-.41-.75-.84-1.49-1.26-2.23l-1.35-2.4c-.16-.28-.69-.14-.88,0l-1.59,1.16c-.19.14-.28.4-.06.56a.77.77,0,0,0,.8-.07l1.58-1.17H751l2.43,4.31a1.19,1.19,0,0,1,.26.78c0,.26-.19.5-.46.35a.78.78,0,0,1-.3-.35c-.43-.74-.84-1.48-1.26-2.22l-1.23-2.19C750.19,962.67,749.12,963.07,749.4,963.57Z"/><path d="M747.57,970.69a1,1,0,0,0,.88.49.9.9,0,0,0,.44-.13,1,1,0,0,0,.36-1.36l-2.37-4.19c-.52.38-1.06.75-1.61,1.12Z"/><path d="M747,970.84a1.23,1.23,0,0,0,1.24.55,2,2,0,0,0,1.51-.75,1.21,1.21,0,0,0-.09-1.34l-1.7-3-.53-.95c-.13-.23-.83,0-1,.14l-1.61,1.12s-.16.11-.13.16l2.29,4.07c.15.26,1.2-.15,1.12-.3l-2.3-4.07-.13.16,1.61-1.12-1,.14c.78,1.39,1.59,2.76,2.34,4.16a1,1,0,0,1,.11.81,1,1,0,0,1-.16.28l-.08.09a.18.18,0,0,1-.07,0l.26-.08a1.11,1.11,0,0,1-.29-.1,1,1,0,0,1-.31-.32C748,970.27,746.93,970.7,747,970.84Z"/><path d="M742.7,973.58a1,1,0,0,0,1.33.36,1,1,0,0,0,.35-1.36l-2.2-3.91c-.55.35-1.09.7-1.66,1.05Z"/><path d="M742.18,973.79c.57.93,2.15.66,2.69-.17a1.27,1.27,0,0,0,0-1.39l-1.59-2.8-.51-.91c-.15-.27-.69-.12-.89,0-.55.35-1.1.7-1.66,1-.06,0-.28.18-.21.3l2.17,3.85c.2.35,1.27,0,1.12-.29l-2.18-3.86-.22.29c.56-.34,1.11-.69,1.66-1h-.9c.73,1.3,1.5,2.58,2.2,3.9a.94.94,0,0,1,0,.85l-.17.21s-.06.07,0,0,.07,0,0,0a1,1,0,0,1-.48-.41C743,973.08,742,973.42,742.18,973.79Z"/><path class="cls-28" d="M831.56,980h0v0Z"/><path d="M831.11,980.25h0l.1,0h.26a1,1,0,0,0,.23-.06l.13-.05.12-.06.09-.07a.21.21,0,0,0,.08-.1v0a.11.11,0,0,0,0-.11.58.58,0,0,0-.17-.06h-.26l-.3.08h0l-.18.09a.58.58,0,0,0-.12.1.14.14,0,0,0,0,.1.06.06,0,0,0,0,.08l.07,0a.53.53,0,0,0,.22,0h.13a1.32,1.32,0,0,0,.3-.08h0l-.76-.08v0l1-.33h0l-.16,0h-.2a1.41,1.41,0,0,0-.22.06l-.2.08-.11.07a.3.3,0,0,0-.12.13v.06A.13.13,0,0,0,831.11,980.25Z"/><polygon class="cls-14" points="843.74 980.32 797.15 975.48 797.15 959.46 843.74 959.46 843.74 980.32"/><path class="cls-27" d="M728.66,1009.55s-1.3-8.33,5.91-11.09,23.41-7.22,35.48-12.89c16.76-7.86,26.92-20.21,34.22-20.52s5.54,11.82,21.7,12.79,28.4-7.13,29.16-7.37c3.56,2.31,9.2,27.63,4.63,33.75s-43.79,7.57-43.79,7.57L784.41,1017l-31.38.1Z"/><path d="M830.77,1010.73a24.36,24.36,0,0,1,1.23-8.48,10.39,10.39,0,0,1,2.26-3.76c1.51-1.52,3.6-2,5.58-2.64,5.55-1.78,12.79-3.19,16.37-8.28,2.32-3.3,2.51-7.35,2-11.22,0-.29-1.16-.06-1.12.29.45,3.77.29,7.75-1.95,11-1.83,2.61-4.73,4.09-7.63,5.21-3.63,1.39-7.42,2.34-11.07,3.67a9.26,9.26,0,0,0-5.38,5.39,23.74,23.74,0,0,0-1.46,9.16c0,.25,1.12.07,1.12-.3Z"/><path d="M856.21,972.16a41.41,41.41,0,0,1-17.3,7.15,52.17,52.17,0,0,1-12,.06A59.31,59.31,0,0,1,818,978c-4.92-1.21-9.53-3.8-14.66-4-7-.34-13.63,4.36-19.3,7.86-4,2.47-8,4.82-12.13,7.06a1.5,1.5,0,0,1-1.81,0c-1.26-.77-1-2.47-.71-3.68.13-.54-1-.41-1.13.09-.46,1.91-.28,4.09,1.94,4.62a2.79,2.79,0,0,0,1.22.07,12.81,12.81,0,0,0,2.66-1.35c1-.55,2-1.12,3-1.7,3.79-2.19,7.46-4.57,11.21-6.81,3.43-2,7-4.09,10.94-5,6-1.41,11.51,1.82,17.16,3.37a52.2,52.2,0,0,0,8.23,1.48,60.54,60.54,0,0,0,12.33.34c7.31-.7,13.87-3.59,19.91-7.66.62-.43-.29-.82-.74-.52Z"/><path d="M806,1013.81l6.57-1.09c.2,0,.87-.29.58-.6a26.92,26.92,0,0,0-10.12-6.84c-4.62-1.76-9.44-2-14.31-2.27-5.23-.32-10.47-.62-15.68-1.15a58.14,58.14,0,0,1-12.37-2.2,9.61,9.61,0,0,1-4.08-2.2c-1.72-1.84-.6-4.51.49-6.39.29-.51-.83-.47-1.06-.09-1,1.7-2,3.95-1.16,5.9a5.14,5.14,0,0,0,2.18,2.2c3,1.75,6.68,2.32,10,2.83,5.05.77,10.16,1.13,15.25,1.47,5.41.35,11.08.22,16.38,1.48a26.49,26.49,0,0,1,13.41,7.73l.57-.61-6.57,1.09c-.58.1-.88.87-.12.74Z"/><path class="cls-28" d="M810.14,1012.62l-.15.16.27,0Z"/><path d="M809.64,1012.66l-.15.17a.1.1,0,0,0,0,.1.06.06,0,0,0,.06.05.27.27,0,0,0,.13,0l.26,0,.23,0h0a1.47,1.47,0,0,0,.3-.08l.24-.1a.43.43,0,0,0,.12-.11.06.06,0,0,0,0-.09l-.12-.12a.23.23,0,0,0-.11,0h-.17l-.21,0a1,1,0,0,0-.23.06l-.12,0a1.18,1.18,0,0,0-.19.11l0,.06a.06.06,0,0,0,0,.08l.12.12.63-.38-.24,0h0l.4.14.15-.16a.1.1,0,0,0,.05-.08,0,0,0,0,0,0-.06.23.23,0,0,0-.11,0h-.17l-.14,0-.3.08-.12,0A1.18,1.18,0,0,0,809.64,1012.66Z"/><path class="cls-28" d="M821.23,1009.27l-1.29,0a17.5,17.5,0,0,1-.25,2.4l1.32-.08A17.55,17.55,0,0,0,821.23,1009.27Z"/><path d="M821.44,1008.92l-1.29,0a.94.94,0,0,0-.5.11c-.1.06-.26.16-.27.29a17.43,17.43,0,0,1-.25,2.4c0,.26.32.29.49.28l1.33-.08c.21,0,.58-.15.62-.4a19.17,19.17,0,0,0,.22-2.27c0-.25-.29-.31-.49-.28a.89.89,0,0,0-.42.15c-.08,0-.2.14-.21.25a19.17,19.17,0,0,1-.22,2.27l.63-.4-1.33.07.5.29a17.43,17.43,0,0,0,.25-2.4l-.77.41,1.29,0a.93.93,0,0,0,.44-.08.7.7,0,0,0,.3-.24C821.87,1009.07,821.65,1008.93,821.44,1008.92Z"/><path class="cls-28" d="M827.07,1008c-.08,1-.11,2.05-.09,3.11h.19l1.1-.09c0-1,0-2,.09-2.93Z"/><path d="M826.51,1008.08c-.07,1-.1,2.07-.09,3.11,0,.19.17.28.35.27.48,0,1-.05,1.43-.09a1,1,0,0,0,.43-.15c.07-.05.2-.14.2-.25,0-1,0-2,.09-2.92,0-.2-.18-.26-.35-.27l-1.29-.1a.83.83,0,0,0-.73.31c-.14.24.11.35.31.36l1.29.1-.35-.27c-.07,1-.09,2-.08,2.92l.62-.4-.81.07h-.18c-.17,0,.11,0,0,0h-.15l.35.27c0-1,0-2.07.09-3.11,0-.25-.3-.29-.49-.26S826.53,1007.83,826.51,1008.08Z"/><path d="M863.43,1004.59l-1.23.11-.22-1.17c-4.83.4-21.49,1.83-31.69,3.26-3.1.43-7,1.22-11.57,2.12-10.54,2.1-25,5-40.19,5.61-2.73.11-5.42.15-8,.12a187.1,187.1,0,0,1-43.27-5.77l-.19,1.18-.89-.25-.74,3.05h0l-.09.38c-.13.52-.24,1-.33,1.35,10.47,6.47,56.55,8.08,67,5.47l2.13-.51,1-.21,1.5-.34c11.24-2.41,27.9-5.06,27.9-5.06s-.12,1.65-.16,3.58h0v.06c0,.81,0,1.68,0,2.49a275.08,275.08,0,0,0,39.77-2.27Z"/><path d="M863.51,1004.28l-1.23.1.48.17-.22-1.17c0-.19-.35-.18-.48-.17-7.26.6-14.51,1.27-21.75,2-4.21.46-8.43.91-12.61,1.63-4.85.83-9.66,1.87-14.49,2.8a243.46,243.46,0,0,1-31.92,4.37,169.56,169.56,0,0,1-33.47-1.53,167.76,167.76,0,0,1-20.23-4c-.25-.07-.84.06-.89.38l-.2,1.17.9-.37-.89-.25c-.27-.08-.82.06-.9.38-.25,1-.49,2-.74,3l1-.34h0c-.28-.14-.92,0-1,.34-.14.58-.28,1.15-.41,1.73,0,.1,0,.16.11.21a24.11,24.11,0,0,0,6.15,2.4,82.24,82.24,0,0,0,9.19,1.88,211.36,211.36,0,0,0,22.33,2.12c7,.34,14,.46,21,.1a61.8,61.8,0,0,0,7.19-.68c3.74-.63,7.43-1.66,11.15-2.4,7.6-1.49,15.23-2.81,22.88-4L824,1014q-.12,1.79-.15,3.57l.77-.39h0c-.18,0-.78.1-.78.39,0,.88,0,1.76,0,2.64,0,.14.26.17.35.18a243.15,243.15,0,0,0,39.9-2.28c.24,0,.65-.17.63-.47l-.72-13.19c0-.38-1.14-.15-1.11.29l.72,13.2.63-.47a239.82,239.82,0,0,1-39.62,2.26l.34.18c0-.82,0-1.65,0-2.47l-.77.39h0c.19,0,.77-.1.77-.39,0-1.19.07-2.38.16-3.57,0-.25-.3-.28-.49-.25q-9.51,1.5-19,3.28c-4.61.87-9.2,1.81-13.77,2.88a39.12,39.12,0,0,1-6.2.81,185.4,185.4,0,0,1-20.28.14,222.32,222.32,0,0,1-22.91-1.93,92.84,92.84,0,0,1-10.44-2,34.56,34.56,0,0,1-4.12-1.3c-.54-.22-1.08-.45-1.59-.71-.15-.08-.53-.2-.63-.34-.19-.29.21-1.27.31-1.66l-1,.34h0c.27.13.91,0,1-.34.24-1,.49-2,.74-3.06l-.9.38.89.25c.25.06.85-.06.9-.38l.19-1.18-.89.38a163.22,163.22,0,0,0,17.22,3.53,176.21,176.21,0,0,0,31.78,2.21,213.42,213.42,0,0,0,33-3.82c9.19-1.69,18.29-3.71,27.58-4.79,8.44-1,16.9-1.76,25.37-2.47l-.48-.17.22,1.17c0,.19.35.18.48.17l1.23-.1C863.92,1004.87,864.28,1004.21,863.51,1004.28Z"/><path d="M799.31,972.24a1,1,0,0,0,.88.5,1.06,1.06,0,0,0,.45-.13,1,1,0,0,0,.35-1.36l-3-5.35c-.55.31-1.11.65-1.67,1Z"/><path d="M798.8,972.47a1.65,1.65,0,0,0,2.88-.66,2.12,2.12,0,0,0-.47-1.31l-2.1-3.72-.62-1.11c-.15-.27-.7-.07-.87,0-.56.32-1.12.66-1.67,1-.16.1-.26.26-.16.43l2.63,4.66.38.67c.2.37,1.28,0,1-.46l-2.63-4.65-.38-.68-.16.44c.55-.35,1.11-.69,1.67-1l-.87,0,2.93,5.19a1.18,1.18,0,0,1,.16.38.71.71,0,0,1-.19.65c-.19.12-.43-.18-.53-.34C799.6,971.66,798.52,972,798.8,972.47Z"/><path d="M794.45,975.13a1,1,0,0,0,.88.5.91.91,0,0,0,.44-.14,1,1,0,0,0,.35-1.36L793.23,969l-1.59,1.15Z"/><path d="M793.93,975.34a1.68,1.68,0,0,0,2.87-.61,1.83,1.83,0,0,0-.39-1.23l-2-3.59-.59-1c-.19-.33-.78-.1-1,.07l-1.59,1.15c-.05,0-.16.16-.12.23l2.45,4.34.36.63c.2.36,1.27,0,1.11-.3l-2.44-4.34-.36-.63-.11.23c.52-.39,1-.77,1.59-1.15l-1,.07,2.83,5a1.27,1.27,0,0,1,.19.5.79.79,0,0,1-.22.65s-.07,0,0,0a.55.55,0,0,1-.17-.05,1,1,0,0,1-.35-.35C794.78,974.62,793.69,975,793.93,975.34Z"/><path d="M787.05,973.54l2.53,4.48a.94.94,0,0,0,.88.49.9.9,0,0,0,.44-.13,1,1,0,0,0,.36-1.36l-2.62-4.64C788.12,972.76,787.6,973.15,787.05,973.54Z"/><path d="M786.54,973.79c.84,1.48,1.65,3,2.51,4.44a1.56,1.56,0,0,0,2.11.5,1.45,1.45,0,0,0,.6-2c-.41-.75-.84-1.48-1.26-2.22l-1.35-2.4c-.17-.3-.68-.18-.89,0l-1.58,1.17a.38.38,0,0,0,0,.61.73.73,0,0,0,.8-.06l1.58-1.17-.88,0,2.43,4.31a1.15,1.15,0,0,1,.25.75c0,.26-.22.48-.48.34a.87.87,0,0,1-.29-.34c-.42-.73-.83-1.48-1.25-2.21l-1.23-2.19C787.3,972.83,786.25,973.27,786.54,973.79Z"/><path d="M784.71,980.9a.94.94,0,0,0,.88.5,1.06,1.06,0,0,0,.45-.13,1,1,0,0,0,.35-1.36L784,975.72l-1.6,1.12Z"/><path d="M784.2,981.16a1.62,1.62,0,0,0,2.76-.25,1.53,1.53,0,0,0-.2-1.49l-1.69-3-.54-.94c-.17-.3-.67-.17-.88,0L782,976.57a.38.38,0,0,0-.13.52l2.29,4.07c.26.45,1.32,0,1-.51l-2.29-4.06-.14.52c.54-.37,1.08-.74,1.61-1.12l-.88,0,1.08,1.92c.42.74.88,1.47,1.26,2.23a.72.72,0,0,1,0,.64c-.18.37-.5.16-.67-.11C784.94,980.2,783.88,980.64,784.2,981.16Z"/><path d="M779.84,983.79a1,1,0,0,0,.88.5,1,1,0,0,0,.45-.14,1,1,0,0,0,.35-1.35l-2.2-3.91c-.55.35-1.09.7-1.65,1Z"/><path d="M779.33,984a1.62,1.62,0,0,0,2.72-.16,1.49,1.49,0,0,0-.12-1.52l-1.59-2.82-.51-.9c-.18-.31-.67-.17-.89,0-.51.33-1,.66-1.53,1-.22.14-.4.34-.25.61l2.17,3.85c.26.47,1.32,0,1-.5l-2.18-3.86-.25.61,1.77-1.12-.88,0,1,1.84c.38.68.81,1.35,1.15,2a.71.71,0,0,1,0,.65c-.2.34-.51.1-.66-.14C780.07,983.08,779,983.53,779.33,984Z"/><path class="cls-28" d="M868.7,990.23h0v0Z"/><path d="M868.17,990.41h0l.07,0h.28a.87.87,0,0,0,.22,0,1.43,1.43,0,0,0,.27-.09.71.71,0,0,0,.15-.08.32.32,0,0,0,.09-.08v0s0-.06,0-.07a.29.29,0,0,0-.16,0,1,1,0,0,0-.25,0,1.47,1.47,0,0,0-.3.08l-.16.06a.39.39,0,0,0-.14.08.22.22,0,0,0-.09.07s0,0,0,.06a.08.08,0,0,0,.08,0h.09a1.15,1.15,0,0,0,.26,0l.15,0a2.15,2.15,0,0,0,.27-.1h0l-.13.05h-.72v0l1.07-.29h0l-.12,0H869a1.46,1.46,0,0,0-.22,0l-.22.07-.13,0a.81.81,0,0,0-.18.1l-.05.05A.05.05,0,0,0,868.17,990.41Z"/><path class="cls-14" d="M557.77,267s-14.7-32.06-16.69-35.74c-1.75-3.24-28.85-21.32-36.22-26.45h0a8.53,8.53,0,0,0,1,10.61c6.36,6.61,19,18.72,19,18.72s-3.83,2.39-4.73,2.49c-7.74.86-11.48,5.17-11.48,5.17s-.49,3.4-4.8,7.32,3.26,7.58,3.26,7.58-2.74.17-3.57,6.2,10.26,4.59,10.26,4.59-1.13.26,5.81,10.61,21.75,11.78,21.75,11.78l15.86,26,26.64-21.34Z"/><path class="cls-15" d="M544.94,273.11a7.81,7.81,0,0,1-2.74.34,17.86,17.86,0,0,1-7.3-1.54,15.23,15.23,0,0,1-7.7-7.37,15.62,15.62,0,0,1,0-13.13l.83.86a29,29,0,0,1-7.84,1.12,27.82,27.82,0,0,1-4.51-.36,5.88,5.88,0,0,1-2.24-.78,2.1,2.1,0,0,1-1.06-2.32,3.52,3.52,0,0,1,1.66-1.91c.67-.41,1.29-.68,1.9-1l3.58-1.8c4.71-2.29,8.78-4.51,12.53-6a9.72,9.72,0,0,1,4.64-1,7.49,7.49,0,0,1,3.79,1.31,8.44,8.44,0,0,1,2.45,2.66c-.15.07-1.08-1.16-2.8-2.23a7.4,7.4,0,0,0-3.54-1,9.25,9.25,0,0,0-4.18,1.09c-3.51,1.57-7.65,3.93-12.3,6.26l-3.56,1.84c-1.19.61-2.6,1.24-2.78,2s1,1.38,2.25,1.55a27,27,0,0,0,4.25.33,27.34,27.34,0,0,0,7.41-1l1.42-.4-.59,1.26a14.74,14.74,0,0,0-.18,12.17,14.56,14.56,0,0,0,7,7.09,18.75,18.75,0,0,0,6.88,1.85C544,273.1,544.94,273,544.94,273.11Z"/><path class="cls-15" d="M520.34,252.79c.08-.13,1.34.62,1.5,2.68a4.81,4.81,0,0,1-1.19,3.41,6.63,6.63,0,0,1-4.24,2.07,10,10,0,0,1-7.41-2.43c-1.46-1.21-2.18-2.1-2.05-2.23s1.14.49,2.71,1.46,3.87,2.21,6.65,1.87a5.5,5.5,0,0,0,3.33-1.51,4.24,4.24,0,0,0,1.17-2.59C520.94,253.83,520.15,252.92,520.34,252.79Z"/><path class="cls-15" d="M513.21,250.7c-.19.32-2.72-.83-4.09-3.63s-.74-5.42-.37-5.35.47,2.31,1.7,4.73S513.47,250.38,513.21,250.7Z"/><path class="cls-15" d="M522.67,244.66c-.19.28-2.64-.6-3.87-3s-.48-4.64-.12-4.6.36,2,1.47,4S522.94,244.37,522.67,244.66Z"/><path class="cls-15" d="M514.22,260.08c.13-.14.74.06,1.6.6a5,5,0,0,1,2.37,3.28,3.37,3.37,0,0,1-.5,2.43,3.33,3.33,0,0,1-1.77,1.27c-1.28.37-1.95-.23-1.82-.36s.71-.07,1.45-.5a2.38,2.38,0,0,0,1.2-2.57,5.84,5.84,0,0,0-1.65-2.83C514.47,260.71,514.08,260.23,514.22,260.08Z"/><path class="cls-29" d="M676.21,301.46l-28,41-80.42-68.85-32.41,31S572.29,353.13,593,380c14.16,18.39,41.23,45.5,72.52,42.75,20.2-1.77,72.6-53.79,72.6-53.79L681,303.65"/><path class="cls-29" d="M727.57,235.17s-32.64,8.82-42.32,37.34c-11.17,32.9-45.41,79.9-45.41,79.9l56.25,44.16,28.78-43.82Z"/><path class="cls-30" d="M899,505.08l.94,42.39a308.16,308.16,0,0,1-16.09,90.09l-19,82s-3.34,79.42,0,124.36c3,39-4.49,130.31-4.49,130.31l-70.93-1.71L769.35,722.38,757.56,581.17l-23.95-73.8Z"/><path class="cls-30" d="M708.85,515.9,729.1,761.69c-.17,10.86.82,30.1,4.51,40.31l21.06,135,2.78,20.22,39.43.54L777.82,503.84Z"/><path class="cls-29" d="M891,326.61s-5,67.62.87,94.81,13.61,88.43,12.62,106.17-79.31,20.1-120.33,18.91-79.24,4.76-81.29-15.18c-7.25-70.74,129.4-222.72,129.4-222.72Z"/><path class="cls-29" d="M758.59,251.38c7.6,5.95,20.76,5.54,29.54,2.16,17.74-6.81,34.37-23.62,39.85-34.18l.46-.73c14.47,5.66,48.63,14.38,58.83,25.83,15.33,17.1-23.68,77.41-25.33,92-.85,7.1-5.74,59.75,1.91,100.45a665.21,665.21,0,0,1,10,81.86l-45.45,6.93a247.8,247.8,0,0,1-67.07,1l-57.06,9.74c.52-28.19-4-56.4-1.68-93.42l-2.31-133.33L716,249.59a72.33,72.33,0,0,1,2.79-9.12c2.23-4.87,33.32-14.21,38.2-15.12C757,225.35,750,244.62,758.59,251.38Z"/><path class="cls-31" d="M818,174.83a1.28,1.28,0,0,1,0,.19A.24.24,0,0,0,818,174.83Z"/><path class="cls-14" d="M817.16,172.43l-.11-26.88-2.14-29.85L801.07,91.48l-22.32-7.8-24.31,6.61s-18,1.13-23.91,3.44-10.76,9.44-13.91,18.21-.19,29.13-.19,29.13a11.22,11.22,0,0,0,.8,3c1.84,5.39,2.78,10.18,4.25,14.19a10.26,10.26,0,0,1,.52,5.62c-1.48,7.47-1.08,10.55,0,14.89,1.5,5.92,5.19,9.87,7.31,14.68,2,4.49,2.7,8,5.51,12,.91,1.3,6.92,13.59,13.43,14.67l8.71.7,10.3-1.06s20.82-.65,29-9.86,12-21.91,12-21.91"/><path d="M717.37,100.22c.09.48.18,1.08.27,1.81.28-.45.58-1,.92-1.53a34.65,34.65,0,0,1,2.29-3.43A10.73,10.73,0,0,0,717.37,100.22Z"/><path d="M820.2,113.41l-.13-1.3c-.57-5.78-7.2-14.25-17.73-22.67-18.13-14.5-17.35-14.78-42-10-1.7.33-3.38.73-5,1.17-14,3.85-26.13,5.33-34.5,16.44a5.44,5.44,0,0,1,3.33-.6,2.57,2.57,0,0,1,2.33-2.06c10.41-1.17,19.46-7.79,29.62-10.24,2.1-.51,7.27-2,10.72-1.26,8.13-1.2,18.22.8,22.13,2.06,5.19,1.69,17.55,5.21,17.52,18.6l3.25,40.65c.16,2.31-.6,5.15-.58,7.41l11.12,7.26c2.61-8.29,5.77-18.06,6.87-20.34C828.88,135,820.81,119.44,820.2,113.41Z"/><path class="cls-14" d="M814.91,175.76c10.74,8.14,10.66-8,10.66-8,5.58-8.94,4.41-17.5,3.37-23.31s-7.46-4.85-7.46-4.85c-5.39,1.34-7.43,4.61-9.48,23.66"/><path d="M735.12,93.55c8.88-1.22,31.5-10.18,43.49-12.39,5-.91,23,9.47,25.53,12,5.73,5.86-3.93,22.06,7.08,41.61,3.64,6.46,6.16-5.92,10.26-1.9s5.68,5.67,5.68,5.67c.27-20,.28-19.32-6.4-38.25s-28.84-24.82-39.28-25.23-42.92,6.79-51.3,12"/><path d="M816.92,159.28a40.21,40.21,0,0,1,4.13-9.71,8.39,8.39,0,0,1,2.68-2.93c-.06,0,.32-.22.18-.1.06,0,.21,0,0,0l-.37-.08a6.08,6.08,0,0,1,1.26,1.93,12.13,12.13,0,0,1,.81,6.22c0,.39.89.22.93-.11a11.9,11.9,0,0,0-1.25-7.21c-.32-.54-.73-1.43-1.47-1.25a4.11,4.11,0,0,0-1.54.92,13,13,0,0,0-2.57,3.33,44.32,44.32,0,0,0-3.74,9.11c-.1.34.83.22.93-.11Z"/><path d="M818.37,160.44c1.85-.34,1.66,2.77,1.65,3.86,0,.86-.33,3.62,1.17,3.45.72-.08,1-.62,1.25-1.24a19.6,19.6,0,0,0,.22-8.88c-.5-1.88-1.42-4.24-3.49-4.82-.23-.06-1,.3-.75.38,1.8.51,2.67,2.53,3.17,4.17a12,12,0,0,1,.59,3.62,25.06,25.06,0,0,1-.38,4.58,7.91,7.91,0,0,1-.36,1.35,2.49,2.49,0,0,0-.26.48c0,.11.3.45.36,0l-.19-.15a4.51,4.51,0,0,1-.39-1.82c0-.83,0-1.66,0-2.49a4.34,4.34,0,0,0-.53-2.3,1.76,1.76,0,0,0-1.88-.54c-.38.07-.81.5-.16.39Z"/><path d="M767.13,147.61a3.58,3.58,0,0,1,3.93.14,3.32,3.32,0,0,1,.88,4.8,3.3,3.3,0,0,1-3.68,1.2,3.66,3.66,0,0,1-2.38-4,3.23,3.23,0,0,1,1.25-2.17"/><path d="M728,153.45a3.6,3.6,0,0,0-3.74,1.24,3.48,3.48,0,0,0-.8,1.75,3.57,3.57,0,0,0,1.29,3.11,3.34,3.34,0,0,0,3.87.12,3.69,3.69,0,0,0,1.19-4.48,3.33,3.33,0,0,0-1.81-1.74"/><path d="M740,157s-6.25-4.69-10.3-4.49c-5.92.3-7.23,1.83-8.91,4.8,0,0,3.42-3.34,7.59-3.44C732.4,153.77,740,157,740,157Z"/><path d="M758.79,152.87s7.45-6.33,11.45-7c5.84-1,13.32,1.48,15.61,4,0,0-9.93-3.78-14-3C767.91,147.68,758.79,152.87,758.79,152.87Z"/><path d="M753.94,135.8l1.94,3.76c.5,1,1.56,3.17,2,4.12,2.6-2.35,4.7-5,6.47-6.3a40.23,40.23,0,0,1,11.49-6.51c2-.67,5.5-2.38,7.55-2.21.65.05,1.38.35,1.94-.37.23-.29-1-1.58-1.19-1.71-2.61-2.59-6.51-1.4-10.12-.48-7.35,1.86-13.88,5.42-20.13,9.7"/><path d="M716.29,135.05l2.51-.15c7-.44,13.68,1,20.3,3.17-.25,1.39-.51,2.77-.77,4.16-.2,1.06-.49,3-.69,4-2.9-1.45-5.35-3-7.26-3.74-3.79-1.48-7.76-3.09-11.86-3.15h-2.39C715.22,137.24,715.68,135.25,716.29,135.05Z"/><path d="M747.81,179.26a6.57,6.57,0,0,0,6-1.26c.35-.29,1.66-.24,1.17.18a9.21,9.21,0,0,1-8.19,1.56c-.24-.08-.22-.26,0-.39a1.4,1.4,0,0,1,1-.09"/><path d="M755.65,177.57a10.85,10.85,0,0,1,3.6-1.49.84.84,0,0,1,.6.11c.12.08.17.21,0,.32a4.08,4.08,0,0,1-2,.77.77.77,0,0,1-.66-.16c-.14-.17,0-.31.22-.33a3.16,3.16,0,0,0,1.6-.63l.63.42a9.36,9.36,0,0,0-3.21,1.34.8.8,0,0,1-.69,0c-.15-.07-.33-.24-.14-.37"/><path d="M760.8,177a5.19,5.19,0,0,0,3.76-2.44c.87-1.91-.56-4.48-2.61-5.33-.22-.1-.13-.27.07-.34a1.18,1.18,0,0,1,.83.05,5.37,5.37,0,0,1,3.15,4.49c0,1.57-1.31,2.85-3,3.56a8.33,8.33,0,0,1-1.64.47c-.23,0-.65,0-.78-.14s.05-.28.27-.32"/><path d="M744.94,178.87a.21.21,0,0,0-.24-.27,1.73,1.73,0,0,1-1.22-.23l-.33.56a5.22,5.22,0,0,1,2.48.53.44.44,0,0,0,.48-.15c.08-.09.16-.3,0-.38"/><path d="M746.11,178.93a5.85,5.85,0,0,0-2.78-.58.5.5,0,0,0-.38.24.23.23,0,0,0,0,.32"/><path d="M741.83,179.52A3.12,3.12,0,0,1,739,178a4.63,4.63,0,0,1,.47-5.12.19.19,0,0,0-.12-.32.58.58,0,0,0-.5.25,5.18,5.18,0,0,0-1,4.43,3.58,3.58,0,0,0,2.7,2.74,3.51,3.51,0,0,0,1.12.08c.15,0,.41-.12.45-.32s-.1-.25-.24-.24"/><path d="M792.41,82.58c8.85,2.45,12.65,5.09,17.68,12.78l-50.46-12a43.88,43.88,0,0,1,10.43-2.17C779.23,80.64,783.55,80.13,792.41,82.58Z"/><path d="M791.5,83.05a31.37,31.37,0,0,1,10.13,4.36A30.17,30.17,0,0,1,809,95.66l2-.77-17.11-4.06-27.12-6.44-6.23-1.47-.79.89a43.42,43.42,0,0,1,9.14-2c2.67-.24,5.37-.38,8.05-.48a47.76,47.76,0,0,1,14.56,1.74,2.21,2.21,0,0,0,1.57-.26c.2-.12.77-.54.25-.68a50.66,50.66,0,0,0-15.44-1.83c-2.92.1-5.86.25-8.77.55A48.53,48.53,0,0,0,759.52,83c-.15,0-1.58.71-.8.89l17.11,4.06L803,94.35l6.23,1.48c.27.06,2.38-.24,2-.77a30.89,30.89,0,0,0-7.48-8.46,32.27,32.27,0,0,0-10.41-4.49,2.16,2.16,0,0,0-1.57.26C791.54,82.49,791,82.91,791.5,83.05Z"/><path d="M753.59,188.26c5.63-.87,18.54.39,21.35,2a27.42,27.42,0,0,1-18.84,12.27c-13,2-15.83-6.89-15.83-6.89S746.43,189.37,753.59,188.26Z"/><path class="cls-22" d="M769.29,188.86s-6.77.54-12.11,1.37-11.95,2.36-11.95,2.36-1.43-3.57,8.25-5.07S769.29,188.86,769.29,188.86Z"/><path class="cls-23" d="M756,200c6-1.76,11.71-9.05,18.9-9.75,0,0-.64,12.13-16,14.5s-18.7-9.12-18.7-9.12C747.33,194.14,749.8,200.17,756,200Z"/><path class="cls-23" d="M746.49,186.47c3.18-.72,5.4.09,6.8-.12s3.27-1.67,6.52-1.95c3.05-.26,16.88,4.61,15.59,5.72s-12-2.39-21.66-.88-12.39,7.07-14,6.4S743.5,187.14,746.49,186.47Z"/><path class="cls-14" d="M832.25,510.43l16.6-7.12s-8.51-1.31-7.45-5.71c0,0,22.23-7.35,24.26-6.5s9.74,3.64,9.74,3.64a74.41,74.41,0,0,0,7.59,6.52,18,18,0,0,0,8.75,3.7,14.07,14.07,0,0,0,4.36-1l33.71-87.14s28.66,16.31,29.72,17S938.84,498.18,911,526.38l-.22-.08c-1.18,1.7-5.3,7.36-8.51,8.71-11.43,4.83-28-6.06-28-6.06l-5.62-.41s-20.05,6.13-22.59-.12l-.43-1.82,19.6-7.11,7.7-.66-14-1.67S839.9,521,838,520.93s-4.48-2.36-4.12-4.12l2.48-2.21S832.75,513.3,832.25,510.43Z"/><path class="cls-15" d="M835.47,515.4a6,6,0,0,0,1.57-.65l4.22-1.91c3.61-1.54,8.62-3.61,14.17-5.79a14.72,14.72,0,0,1,2-.72,5.82,5.82,0,0,1,2-.29c1.32.19,2.69.43,3.93.7,2.51.5,4.76,1,6.71,1.54a39.46,39.46,0,0,1,4.33,1.48c1,.4,1.55.67,1.58.63a4.11,4.11,0,0,0-1.42-.93,27.87,27.87,0,0,0-4.33-1.76,56.89,56.89,0,0,0-6.75-1.78c-1.27-.26-2.58-.55-4-.76a7.15,7.15,0,0,0-2.26.17,15.31,15.31,0,0,0-2.15.77c-5.55,2.18-10.55,4.31-14.1,6-1.75.85-3.06,1.57-4.13,2.14A7,7,0,0,0,835.47,515.4Z"/><path class="cls-15" d="M848.85,503.79a32,32,0,0,1,3.59-2,21,21,0,0,1,9.49-2.21,21.23,21.23,0,0,1,9.31,2.3c2.23,1.13,3.54,2.15,3.53,2.05a10.15,10.15,0,0,0-3.27-2.61,19.17,19.17,0,0,0-19.26-.09A10.24,10.24,0,0,0,848.85,503.79Z"/><path class="cls-29" d="M873,235.48l22,11.57c24,13.77,84,126.54,81.39,150.51C972.58,432.84,933.54,512,933.54,512s-44-14.63-39.88-32.3,24.72-76.56,24.72-76.56-48.33-74.74-54.1-85C857.33,305.91,827.32,237.44,873,235.48Z"/><path d="M874,252.54a21.89,21.89,0,0,0-8.35,6.92c-5.88,7.58-7.26,17.58-6.5,26.91.84,10.28,4.37,20.32,8.23,29.82a282,282,0,0,0,13.13,27.46c2.6,4.82,5.27,9.61,8.15,14.27.17.27,1.07-.07.95-.26a291.72,291.72,0,0,1-19.21-36.81c-4.11-9.45-7.86-19.29-9.62-29.47-1.67-9.65-1.31-20.36,3.75-29,2.21-3.77,5.84-7.9,9.83-9.53.62-.26,0-.47-.36-.31Z"/><path d="M918.46,403.48a37.24,37.24,0,0,1,6.12-1.12c3.81-.42,8-.48,11.59,1.13a8.7,8.7,0,0,1,4.54,4.53c.17.4,1.11.12.95-.26-3.25-7.67-14.06-6.77-20.75-5.48-.87.16-1.75.35-2.61.59-.58.16-.42.77.16.61Z"/><path d="M694.33,286.3l.72,11.31,1.75,27.14,2.1,32.85L700.72,386l.61,9.39.18,2.89a6.5,6.5,0,0,0,.1,1.53.67.67,0,0,1,0,.2c0,.37,1,.16,1-.26l-.72-11.3-1.74-27.14L698,328.45l-1.82-28.4-.6-9.39-.19-2.88a6.08,6.08,0,0,0-.1-1.54,1.15,1.15,0,0,1,0-.19c0-.37-1-.16-.95.25Z"/><path d="M646,341.79a35.17,35.17,0,0,1,6.6,7c3.86,5.3,6.29,11.62,5.71,18.25,0,.48.93.34,1-.08.87-9.84-4.88-19.8-12.53-25.74-.33-.25-1.16.22-.74.55Z"/><path d="M754.55,591.93a34.59,34.59,0,0,1,13.5,13.46c2.38,4.49,2.6,9.15,2.75,14.07.38,12.46.31,24.93.3,37.39q0,23.68-.27,47.35-.14,16.37-.33,32.73-.15,12.51.27,25a290.86,290.86,0,0,0,2.38,31.21c.57,4,1.17,7.94,1.63,11.94,1.41,12.38,2.51,24.79,3.63,37.2q2.13,24,4.09,47.93Q784.3,912.1,786,934q.94,12,1.87,23.91L788,959c0,.38,1.49.1,1.45-.39q-.66-8.51-1.33-17-1.59-20.22-3.23-40.42-2-24.24-4.07-48.47c-1.2-13.75-2.42-27.51-3.85-41.25-1.24-11.92-3.24-23.73-4-35.7s-1.16-24.2-1-36.3q.17-13.14.28-26.3.22-23.11.33-46.23c.05-14,.1-27.93-.14-41.89-.06-3.83-.09-7.68-.39-11.5-.62-7.89-5.68-14.41-11.72-19.15a34.59,34.59,0,0,0-4.56-3.11c-.36-.19-1.7.35-1.16.65Z"/><path d="M898.17,462.28l-6.85,21.27-1,3c0,.09,0,.17.11.22l9.09,7.52c.31.25,1.15-.19.74-.53l-6.14-5.09c-.94-.77-1.89-1.54-2.82-2.32-.24-.21-.07.23,0,0s.16-.51.24-.77L897.26,468l1.87-5.81c.14-.41-.83-.3-1,.08Z"/><path class="cls-20" d="M810.79,132.66c-6.16-3.28-10.41-11.32-11.62-18.2s1.38-11.32-3.65-16.16-22.09-5-27.73-.91c-3.58,2.59-8.65,4.39-12.33,6.85s-8.16,3-12.49,3.47c-3.4.39-8.47,1.32-11.45-.35-2.68-1.51-3.1-1.31-4.16-4.2-.76-2-3.57-1.76-7.11.53s-1.16,4.83-3.63,8.25c-3-8.87,3.89-17.66,11.15-23.54,10.06-8.16,20.52-15.11,33.41-16.36s25.81-2.75,38.17,1.13c5.93,1.86,9.18,5.34,14,9.26,7.44,6,14.47,17.56,16.66,26.88A58.11,58.11,0,0,1,831.35,130c-.17,1.34-1.87,21.81-1.76,20.47.91-11.21-9.71-15.21-14-12.21-6.41,4.47,3.47,16.76-7.18,21.3a347.64,347.64,0,0,1-3.17-34.84"/><path class="cls-15" d="M754.49,144.28s-4.42,2-5.22-2.95.28-6.47.28-6.47.22,5.73,1.44,7.38A3.89,3.89,0,0,0,754.49,144.28Z"/><path class="cls-24" d="M272.29,436.42c6.71,3.69,12.54,8.53,17.24,19.78l14.81,50.45c-.09.13,13.15,34.16,13.2,34.33,0,0,.51.52-3.06,13.67-2.39,8.82-21.2,17.26-21.1,26.63-24.27-2.58-27.68-23.09-31.92-35l-2.34-14.48c-.63-10.81-.82-21.65-.66-32.49.35-23-9.81-46.29-7.84-69.21Z"/><path class="cls-24" d="M279.28,535.9l55.86-81.13s4.28,11.35,20.71,12.65c0,0-23.57,111.45-62.47,113.86Z"/><path class="cls-25" d="M278.57,471.83c-2.08,2.17-2.45,6.31-2.17,9.09.42,4.12,2.05,8.19,3.38,12.07a124.09,124.09,0,0,1,4.3,13.69,38.09,38.09,0,0,1,.43,11.77,45.42,45.42,0,0,1-3.6,14.42,24.16,24.16,0,0,1-3.7,6c-.6.69-1.06,1-1.09,1.84l-.58,16.55L275,573.31c0,.82,1.55.6,1.57-.11l1.1-31.53a6,6,0,0,1,0-1.59c.05-.12.88-.86,1.11-1.13a24.59,24.59,0,0,0,1.91-2.72,38.45,38.45,0,0,0,4.72-13.32,49.27,49.27,0,0,0,.72-13.11c-.35-4.11-1.71-8.06-3-11.94-1.65-4.91-3.6-9.79-4.76-14.86a16.09,16.09,0,0,1-.15-6.84,7.93,7.93,0,0,1,1.64-3.86c.67-.7-.82-1-1.31-.47Z"/><path d="M221.12,307.5l19.17-8.63c5.92,2.65,7.68,6.94,12.3,12.14,6.44,7.25,11,14.74,11,24.63a11.11,11.11,0,0,0,.75,4.13c-.22.16-.45.31-.68.45a6.56,6.56,0,0,1-5.33,1.25,6.26,6.26,0,0,1-3.53-3.13,11.06,11.06,0,0,1-1-7.58,13.5,13.5,0,0,1-8.13-10.63,8,8,0,0,1-9.84-4.06,8.3,8.3,0,0,1-8.16,2.52A9.39,9.39,0,0,1,221.12,307.5Z"/><path d="M225.74,308.52,207,299c-6,2.37-11.81,5.41-16.67,10.39-6.77,6.94-7.87,15.36-8.35,25.24a10.89,10.89,0,0,1-.94,4.09c.22.17.43.34.66.49a6.54,6.54,0,0,0,5.27,1.49,6.28,6.28,0,0,0,3.67-3,11.11,11.11,0,0,0,1.31-7.53A13.47,13.47,0,0,0,200.56,320a8,8,0,0,0,10-3.6,8.31,8.31,0,0,0,8,2.9A9.38,9.38,0,0,0,225.74,308.52Z"/><path d="M193.05,331.88a6.26,6.26,0,0,1-6.5,6c1.71,5.15-.61,16.65-9.8,16.63-9.47-.4-16.2-.71-24.37-6a20.85,20.85,0,0,1-4.08-3.46,9.3,9.3,0,0,1,.87-3.48,86.2,86.2,0,0,1,5.4-9.18,3.33,3.33,0,0,0,.59-2.08,4.48,4.48,0,0,0-1.47-2.15,7.79,7.79,0,0,1,4.52-12.9,4.48,4.48,0,0,1,.28-6.18,21.5,21.5,0,0,1,5.77-3.74c3.75-2.17,7-5.59,11.2-6.42A10.73,10.73,0,0,1,186.69,304a15.37,15.37,0,0,1,8.95-.58,6.23,6.23,0,0,1,4.53,6.9l.8.22c.1.45.17.91.23,1.37a12.87,12.87,0,0,1-11.34,14.23A6.26,6.26,0,0,1,193.05,331.88Z"/><path d="M179.78,348s1.91,16.86-.3,19.8-2.2,3.15-3.86-2.39a91.19,91.19,0,0,0-4.25-11Z"/><path class="cls-20" d="M750,182.7a2.73,2.73,0,0,1-1.64,3,.65.65,0,0,1-.51.05c-.16-.07-.26-.23-.39-.34-.54-.45-1.36,0-1.84.54a7.55,7.55,0,0,0-1.12,1.62c-.21.41-.43.89-.86,1a3.78,3.78,0,0,1-.95.08,2.24,2.24,0,0,0-1.67,1.39,15.52,15.52,0,0,0-.64,2.17,3.09,3.09,0,0,1-1.24,1.84,1.43,1.43,0,0,1-2-.43,2.22,2.22,0,0,1,.47-2.06,27.88,27.88,0,0,1,4.49-5.9,9.41,9.41,0,0,1,6.7-2.72"/><path class="cls-20" d="M752.18,205.42a7.1,7.1,0,0,0,2.33,3.16,1.25,1.25,0,0,0,1,.35c.3-.06.52-.3.81-.42a1.58,1.58,0,0,1,1.53.38A14.24,14.24,0,0,0,759.1,210a1.32,1.32,0,0,0,1.54,0,1.76,1.76,0,0,0,.38-.68,7.26,7.26,0,0,1,1.46-2.53,7.53,7.53,0,0,0,1.09-1.17,1.17,1.17,0,0,0-.1-1.46,1.6,1.6,0,0,0-1.36-.13,41.39,41.39,0,0,1-9.93,1.45"/><path class="cls-20" d="M754.53,180.77a2,2,0,0,0,3,2,3,3,0,0,1,.64-.33c.57-.14,1.09.33,1.53.72s1.08.75,1.56.42c.23-.16.35-.43.55-.61a1.4,1.4,0,0,1,1.41-.18,7.18,7.18,0,0,1,1.29.74,12.31,12.31,0,0,0,4.13,1.35l4.52.92a.63.63,0,0,0,.51,0,.48.48,0,0,0,.12-.4c0-.87-.94-1.44-1.78-1.69a6.44,6.44,0,0,1-2.43-.93,10.45,10.45,0,0,0-.83-.8,2.85,2.85,0,0,0-1.25-.41,52.77,52.77,0,0,0-11.37-.63"/><path class="cls-20" d="M755.51,181.22c2.87-.08,5.92-1,8.75-.25a14.33,14.33,0,0,1,3.82,1.89l4.12,2.51,2.31-1.36c-2.27-1-4.15-2.68-6.38-3.76-2.6-1.25-5.32-1.09-8.08-.55-.51.1-1.54.33-1.66,1s.87.63,1.24.56a12.82,12.82,0,0,1,3.75-.37,8.47,8.47,0,0,1,3.14,1.13c1.93,1.07,3.64,2.49,5.68,3.39a2.43,2.43,0,0,0,2-.29c.43-.26.84-.72.27-1.07l-4.4-2.68a14.2,14.2,0,0,0-4.05-1.87c-3.11-.76-6.28.11-9.4.19a2.42,2.42,0,0,0-1.92.78c-.34.56.29.8.77.79Z"/><path class="cls-20" d="M760.47,181.54c.42,0,.84-.06,1.27-.07h.4l.63.06q.32,0,.63.09l.29.05.19,0-.1,0a13,13,0,0,1,1.26.36,2,2,0,0,0,2.05-.54.82.82,0,0,0-.37-1.38,14.12,14.12,0,0,0-6-.7,2.26,2.26,0,0,0-1.09.4,1.18,1.18,0,0,0-.51.76c0,.71.74,1,1.33.93Z"/><path class="cls-20" d="M749.68,183.19c-.38-1.8-3-1.41-4.18-1a22.8,22.8,0,0,0-4.1,2.06,7.8,7.8,0,0,0-2.91,2.85c-.63,1.23-.54,2.72-1.24,3.9-.33.57.29.8.77.81a2.42,2.42,0,0,0,1.92-.78,12.93,12.93,0,0,0,1-3.23,4.38,4.38,0,0,1,1.61-2.33,15,15,0,0,1,2.6-1.51l.84-.39c.25-.11.42-.23.55-.22a.35.35,0,0,1-.18,0c-.16,0-.15,0,0,0,0,0,.07,0,.11.07a.67.67,0,0,1,.29.46c.2.95,3.11.23,2.89-.77Z"/><path class="cls-20" d="M771.54,184.86l.3.66c0,.09.09.19.14.29s0,.21.12,0l.77-.61-.1,0,.77-.21h-.12l.7,0c-1.52-.24-2.53-1.5-3.58-2.55a2.57,2.57,0,0,0-3.24-.2,1.43,1.43,0,0,0-.71,1.4,2.73,2.73,0,0,0,.19.57c0,.05,0,.14.05.15s0,0,0,.05q0,.31.3-.33l1.1-.38c.47-.09.58.17.3-.07-.11-.1-.21-.22-.32-.33l-.75-.8L766,181.08a1.77,1.77,0,0,0-1.94-.11c-.39.19-1.22.79-.74,1.3L765,184a6.22,6.22,0,0,0,1.58,1.45,2.52,2.52,0,0,0,3-.75,1.34,1.34,0,0,0,.14-1,1.93,1.93,0,0,0-.11-.34c0-.09-.07-.18-.1-.27q-.06-.54-.54.42l-.77.21c-.37.06-.5-.2-.34,0s.25.27.37.4a10.19,10.19,0,0,0,.8.81,8.18,8.18,0,0,0,1.92,1.39,3.52,3.52,0,0,0,3.12.28c.55-.27,1.06-.75.88-1.41a8,8,0,0,0-.51-1.12c-.28-.61-1.11-.62-1.67-.46-.39.12-1.5.62-1.23,1.23Z"/><path class="cls-20" d="M810.28,132.7c-6.16-3.29-13.46-10.67-14.67-17.55s-.28-8.24-5.31-13.09-17-6.57-22.62-2.48c-3.58,2.6-5.93,4.27-13.71,6.48-4.2,1.19-7.18,1.19-11.52,1.68-3.39.39-7.05.72-10-.95,0,0-2.38-3.67-5.58-2.81s-8.16,1.92-10.74,8c-3-8.86,3.88-17.66,11.14-23.54,10.07-8.15,20.52-15.11,33.42-16.36s25.81-2.75,38.16,1.13c5.94,1.86,9.18,5.34,14,9.26,7.44,6,14.47,17.57,16.66,26.88A58.18,58.18,0,0,1,830.84,130c-.17,1.34-1.87,21.8-1.76,20.46.91-11.21-9.71-15.2-14-12.21-6.42,4.48,3.47,16.76-7.18,21.3q-2.46-17.33-3.18-34.84"/><path class="cls-25" d="M301.94,502.46a51.93,51.93,0,0,0-7.33,33.73c0,.35,1.61,0,1.55-.42a51.79,51.79,0,0,1,7.31-33.57c.15-.23-1.28-.15-1.53.26Z"/></g></svg>