<svg xmlns="http://www.w3.org/2000/svg" viewBox="0 0 1303.15 1057.31"><defs><style>.cls-1{fill:#f2ebd1;}.cls-2{fill:#a66e53;}.cls-3{fill:#653c2a;}.cls-4{fill:#7c4b3a;}.cls-5{fill:#dbad63;}.cls-6{fill:#a66f54;}.cls-7{fill:none;stroke:#4f2e25;stroke-miterlimit:10;stroke-width:1.32px;}.cls-8{fill:#4f2e25;}.cls-9{fill:#010101;}.cls-10{fill:#13110f;}.cls-11{fill:#ce8d2a;}.cls-12{fill:#18343f;}.cls-13{fill:#030303;}.cls-14{fill:#24180f;}.cls-15{fill:#fff;}.cls-16{fill:#643c2a;}.cls-17{fill:#c95744;}.cls-18{fill:#97a07f;}.cls-19{fill:#033a51;}.cls-20{fill:#252525;}.cls-21{fill:#681c0e;}</style></defs><g id="Layer_11" data-name="Layer 11"><polyline class="cls-1" points="1324.07 1141.48 1324.07 -36.57 -26.81 -36.57 -26.81 1141.48"/><path class="cls-2" d="M661.72,265.33c-3.3-5.9-7.32-21.84-10.59-21.34s-6.27,2.78-6.39,8.29,8,17.13,4.49,22.13c-2.51,3.62-6.49.85-6.49.85s-22.09-15.45-29.06-21.93S599,242.89,597.55,245.6s-1.07,5.14,4.71,10.49,16.07,12.9,15.56,14.63-3.2.95-6.61-2.13S590.88,252.11,588.34,253a4.44,4.44,0,0,0-1.92,6.79h0a16.22,16.22,0,0,0,5,4.87c7.23,4.52,17.21,11,22,15.49a.53.53,0,0,1-.59.86,169.35,169.35,0,0,1-14.59-9.18l-7.14-5.74c-1.77-1.43-4.41-1.23-5.45.61a2.72,2.72,0,0,0-.3,1.94c.63,3.21,5.45,6.06,5.45,6.06l22.9,17.15s.3,2.28-1,2.64-18-14.74-19.47-13-3.7,1.33.63,6.69,18.42,14.31,23.21,18.36,17,10.95,23.57,15.55a13.66,13.66,0,0,0,12.87,1.74l13.28-5.31c.62-.28,11.19-9.71,7.76-24S665,271.23,661.72,265.33Z"/><polygon class="cls-2" points="649.12 321.65 656.59 331.89 678.77 308.02 672.72 298.75 649.12 321.65"/><path class="cls-3" d="M641.11,285.38c-6.07,5.13-4.22,15.3-1.66,21.72.26.65,1.77.22,1.53-.41a30.51,30.51,0,0,1-2.3-11.55c0-3.29.8-6.89,3.43-9.11.78-.67-.44-1.12-1-.65Z"/><path d="M862,58.11l.21-.52a20.07,20.07,0,0,1,26.18-11A22.92,22.92,0,0,1,890,44.79a21.41,21.41,0,0,1,30.27-.65A14.86,14.86,0,0,1,944.76,56a16.25,16.25,0,0,1,20.18,19.66,12,12,0,0,1,9.46,20.15c.22.23.44.46.65.7a17.08,17.08,0,0,1-1.48,24.11A14.15,14.15,0,0,1,966,137.92l-104.3,29.87c-10-4.36-13.79-20.41-13.59-31.34-10.77-6.7-17-14.67-10.6-25.65-2.19-1.16-2.14-1.85-3.42-4-3.9-6.45-3.71-15.89,2.74-19.79,0,0,.81-14.86,12.67-14.33C849.52,72.71,847.54,58.94,862,58.11Z"/><path d="M873.29,62l.21-.52c5.52-13.48,8.24-18.32,26.19-11a19.44,19.44,0,0,1,1.57-1.83A21.39,21.39,0,0,1,931.52,48a14.85,14.85,0,0,1,24.54,11.87,16.24,16.24,0,0,1,20.17,19.66,12,12,0,0,1,9.46,20.16c.22.22.44.45.65.69a17.08,17.08,0,0,1-1.48,24.11,14.15,14.15,0,0,1-7.54,17.28L873,171.63a27,27,0,0,1-16.24-25.26,23.51,23.51,0,0,1-7.94-31.73,13.65,13.65,0,0,1-.68-23.76S849,76,860.82,76.55C860.82,76.55,858.84,62.78,873.29,62Z"/><path class="cls-4" d="M726.05,837.35H713.52a11.12,11.12,0,0,0-11.06,11.19V996.41h-974v133.71H702.55v81.49h34.64V852.31C737.11,842.36,732.16,837.35,726.05,837.35Z"/><g id="freepik--Character--inject-2"><path class="cls-5" d="M703.63,1062.2V874.65c0-25.39-18.47-46-41.24-46l-51.88-.26c-.59-.6-1.23-1.21-1.84-1.81a21.92,21.92,0,0,1-5.64.73c-55.87,0-111.71-2.25-167.54-4.59-97.33-4.07-194.32-6.74-291.65-1.35C49,826.59-39.63,814.28-134.64,809.52c-6.31-.32-21.12,0-22.54,12.73-6.76,2.76-8,7.27-12.75,18.5-10.84,25.73-15.15,146.88-16.57,202.16l-5.84,80.87c31.56,1.07,58.59-28.56,90.05-31.75,37.79-3.84,72.59,31,110.43,27.48,30.07-2.79,55.71-29.52,85.8-32.91,35-4.06,68.69,24.19,103.5,18.54,25.71-4.27,49.14-26.81,74.8-22,19.85,3.62,35.84,23.28,55.87,25.43,28.73,3.1,51.91-30.23,80.63-33.31,37.77-4.1,67.6,44.41,105.6,43.93,29.64-.45,54.33-30.74,84-31.53,14.77-.39,28.8,6.67,42.78,12.26s29.49,9.78,43.32,3.73S704.72,1096.1,703.63,1062.2Z"/></g><path class="cls-6" d="M341.38,745.46s89.12,22,108.67,28.39c28.64,9.37,19.21,73.62,18.76,92.32C467.89,905.1,367,1060,367,1060l-28.37-2L409,843.17l-115-11Z"/><path class="cls-6" d="M339.81,1055l11.37-34.74c.74.56,1.51,1.09,2.3,1.59,9.52,6,20.88,6.46,31.85,7.21-8.86,15.49-15.33,26.57-17.58,30.41,4.26,5.13,24.63,29.78,36.6,46.91l-.65,2.12s-6.78,12-16,9.56-55-46.89-55-46.89l5.85-16.34Z"/><path class="cls-6" d="M334.09,776.68s107.79,9.69,127.64,26.41,10.52,35,3,56.38-121,213-121,213L316.34,1051s28.15-128.22,37.45-150.3,35-49.39,35-49.39-89-12.16-105.19-17S334.09,776.68,334.09,776.68Z"/><path class="cls-6" d="M347.76,1071.84l25,51.78c1.18,4.62-53.6-1-68.27-64.84l11.89-7.83Z"/><path d="M428.4,1140.87s4.87-5.08,1-9-23.56-27.19-26.28-27.8c-.73,1.86-4,3.29-10.07,2.61s-12.87-1.18-25.46-9.87c-9.44-6.52-29-19.43-36-29.06-2.33-3.22-4.21-11.45-4-12.46-16.16,8-18.54,22.93-15,28.42s31.83,20.45,31.83,20.45l23.2,17.63,23.9,11.83,10.37,4.25,13.08,3.5Z"/><path class="cls-6" d="M328,998.63a46.35,46.35,0,0,0,5.51,6.46,69.53,69.53,0,0,0,9.74,7.78,46.16,46.16,0,0,0,11.53,5.94c6.45,2.08,13.24,2.51,19.92,3.48-12,21.18-26.11,38.14-26.37,46.31l25,51.78c1.18,4.62-53,1.45-67.67-62.34l11.29-10.33S321.67,1025.85,328,998.63Z"/><path d="M389.27,1161.88s5.78-3.94,2.77-8.58-17.58-31.62-20.12-32.79c-1.08,1.67-4.6,2.37-10.37.43s-12.34-3.87-22.91-15c-7.91-8.38-24.49-25.18-29.37-36.09-1.63-3.65-1.82-12.1-1.44-13-17.39,4.41-22.72,18.53-20.35,24.66s27,26.77,27,26.77l19.15,22.18,21,16.64,9.28,6.35,12.09,6.2Z"/><path class="cls-7" d="M334.09,776.68s107.79,9.69,127.64,26.41,10.52,35,3,56.38-113.58,199.72-113.58,199.72-4.64,5.7-.43,14.44l11.78,24.43"/><path d="M300.06,363.13a14.87,14.87,0,0,0-13.52-23.68,16.25,16.25,0,0,0-21-18.78,12,12,0,0,0-20.75-8.07c-.24-.21-.49-.41-.74-.6a17.07,17.07,0,0,0-23.95,3.11,14.15,14.15,0,0,0-16.73,8.71l-22.7,106.09A27,27,0,0,0,207,444.4a23.49,23.49,0,0,0,32.19,5.76,13.65,13.65,0,0,0,23.75-.93c1.23.16,2.47.27,3.72.34-1.45-3.78.31-8.92,5.55-9.12S282.48,435.26,283,430c.31-3.55,4.76-5.63,7.84-4.93a6.76,6.76,0,0,1,1.27.43,11.79,11.79,0,0,0-2-3.33l.5-.24a20.08,20.08,0,0,0,9.16-26.88,21.36,21.36,0,0,0,.31-31.92Z"/><path class="cls-2" d="M186.31,436.54s12.83,19.78,7.36,40.27c-.77,2.86-14.71,9-14.72,9,.6-.33,13.39,8.47,13.94,8.81,9.69,5.92,8.9,23.51,21.4,24.75,13.22,1.32,33,5.18,45.41.29C268.38,516.23,268,500.83,275,495c0,0-14.31-9.82-15.88-12.93-9-17.74-2.94-49-2.94-49"/><path class="cls-8" d="M237.64,455.31s-5.26,15.46-30.34,21.5c0,0-13.35,1.62-14.5.86l-.78-8.31Z"/><circle cx="269.18" cy="441.58" r="8.93"/><circle cx="282.72" cy="428" r="11.52"/><path d="M167.76,420.32A15.9,15.9,0,0,1,157.09,403a19.35,19.35,0,0,1-5.73-25.55c.17-.29.35-.57.53-.84a13.56,13.56,0,0,1-2.31-18.25c2-2.71,3.78-5.55,7.08-5.86a16.67,16.67,0,0,1,8.58-22.15,15.13,15.13,0,0,1,8.33-1.59c-1.79-8.71,5.91-15.68,14.13-17.28,3.78-.74,6.49-.47,9.81,1.73,7.18-10,23-12.3,32.79-4.41.67.54-.8,1.65-.2,2.26,9.63-6,22.34-2.54,28.39,7.79l.3.53c5.86-6.25,20.67-1.59,26.67,4.93s8.15,16.11,3.83,22.21a15.46,15.46,0,0,1,8,19.35,14,14,0,0,1-4.48,6.15c8.35,10.79,7.27,26.33-2.43,35.11,2.13,11.66-2.6,23.28-12,29.45"/><path class="cls-2" d="M182.22,348.05a2.89,2.89,0,0,1-.27.44l.28-.2ZM171,351v.2c.18-.15.35-.3.5-.45C171.53,350.49,171,351,171,351Zm85,85.9,1.28-3.94c2.6,7.3,12.48,2.27,13.05-7.75,7.1-9,7.89-22.31,3.82-27.51l-.5-.76c-2.88-2.27-8-3.3-10.24.53-.72,1.67-1.84,3.56-2.56,5.23-.71,1.91-1.73,5.73-3,7.41,0,0,5-18.06,5.12-22.54s-.36-15.5-8.49-21.61c0,0-9.75-9.13-13.47-13.73l-1.3-.43c-.77,0-1.27.27-2,.29,0-.23.24-.47.23-.94a8.27,8.27,0,0,1-3.33.33c.25-.24.76-.49.75-.73a13.15,13.15,0,0,1-3.07.09c.25-.24.74-.73.74-1-1.27.51-2.05.06-3.08.09a1.77,1.77,0,0,0,.49-1,6.87,6.87,0,0,1-3.07.33c.25-.24.49-.72.74-1-1.27.5-2,.06-3.07.09-.26,0,.49-.49.49-.72A10.13,10.13,0,0,1,223,348c0-.24.5-.49.49-.72-1.52.51-2.3.06-3.33.1l.74-1a3.6,3.6,0,0,1-3.06.56c.25-.24.75-.73.74-1a5.09,5.09,0,0,1-4.08.59c.25,0,.74-.73.74-1-1.26,1-2.29.77-3.57.81.25-.24.49-.72,1-1.21a5.25,5.25,0,0,1-4.85.85c.26,0,.5-.72.49-.95-1,1,.89-.27-.4-.47,0,0-2.92,1-2.93.8-1,.73,2.59-4.07,1.31-4,.24-.48-7.34.65-6.84.16-1.25,1-1,.49-2.55.3,0,0-5.24,3-5,2.73-1.25,1.21-1.86.24-3.4,0,.25-.24.95,1,1.2.72-1,1-.69-.22-2-.18,0-.23-4.24-1.4-4.24-1.64-1.27.75-.84.84-2.38.88,0-.23-.89,2.62-.64,2.38-1,1-1,.19-2.26,0l-1.24.91c-1.25,1.21.49.65-1.05.46,0-.17,5.8.56,6,.25a9.52,9.52,0,0,1-3.26,1.55c0-.24.24-.71.23-1a5.14,5.14,0,0,1-4.06,1.53c.26,0,.5-.48.5-.72-1.25,1.22-2.77,2-4.33,1.31v0A8.06,8.06,0,0,1,167.5,353a1,1,0,0,1,.48-1l-1,0c-1.23,1.92,4.64.69,4.2,3.06,0,0-7,7.24-10.79,21.29-3.09,11.53.39,29.46.76,33.21.32,3.26-1.5,9.63-1.8,13-1.61,18.44,8.9,37.31,23.5,47.11,5.81,3.9,17.14,4,22.76,3.1,11.49-1.9,26.5-11.76,36.34-22.28"/><path class="cls-9" d="M185.44,429.84a6.63,6.63,0,0,0,5.88-.47c.37-.23,1.61,0,1.1.28a9.35,9.35,0,0,1-8,.52c-.22-.1-.18-.26.08-.35a1.46,1.46,0,0,1,.95,0"/><path class="cls-9" d="M193.13,429.18a10.59,10.59,0,0,1,3.62-.95.92.92,0,0,1,.56.16c.1.09.13.21,0,.29a4.08,4.08,0,0,1-2,.48.75.75,0,0,1-.62-.22c-.12-.16.09-.27.25-.27a3.24,3.24,0,0,0,1.6-.39l.56.45a9.36,9.36,0,0,0-3.23.85.77.77,0,0,1-.66-.06c-.14-.07-.28-.25-.09-.34"/><path class="cls-9" d="M198.11,429.23a5.1,5.1,0,0,0,3.88-1.79c1.06-1.63,0-4.32-1.87-5.31-.2-.11-.1-.25.1-.3a1.25,1.25,0,0,1,.79.14,5.15,5.15,0,0,1,2.49,4.61c-.2,1.42-1.58,2.43-3.32,2.87a8,8,0,0,1-1.63.25c-.22,0-.62-.05-.73-.21s.09-.25.29-.26"/><path class="cls-9" d="M182.74,429.17a.19.19,0,0,0-.19-.26,1.75,1.75,0,0,1-1.15-.34c-.12.16-.25.31-.38.47a5.2,5.2,0,0,1,2.32.75.46.46,0,0,0,.47-.08c.09-.08.19-.26,0-.35"/><path class="cls-9" d="M183.85,429.36a5.85,5.85,0,0,0-2.59-.83.49.49,0,0,0-.39.18.2.2,0,0,0,0,.29"/><path class="cls-9" d="M179.7,429.43a3,3,0,0,1-2.59-1.67,4.06,4.06,0,0,1,1-4.57.17.17,0,0,0-.07-.3.58.58,0,0,0-.51.17,4.54,4.54,0,0,0-1.47,3.89,3.27,3.27,0,0,0,2.25,2.76,4,4,0,0,0,1.07.2.54.54,0,0,0,.47-.24c.06-.17-.07-.24-.2-.24"/><path d="M260.92,414.7a55,55,0,0,1,4.57-8.66,18.55,18.55,0,0,1,3.32-3.91,6.47,6.47,0,0,1,1.11-.77,3.37,3.37,0,0,1,.55-.24c.06,0,0-.06.08,0s-.26-.07-.27,0a6.58,6.58,0,0,0,.63,1,12.92,12.92,0,0,1,.68,8.56c-.06.24.8.11.86-.14a13.35,13.35,0,0,0-.54-8.38c-.26-.55-.55-1.48-1.27-1.38-2.22.34-4,2.71-5.26,4.36a50.84,50.84,0,0,0-5.32,9.74c-.08.19.76.11.86-.13Z"/><path class="cls-10" d="M159.67,383.76c6.35.46,10,1.88,19.09,7l-.07.23c-.36,1.3-.16.57-.53,1.88l-.84,3c-3-1.72-5-3.27-7-4.2-3.71-1.76-7.8-4.23-11.92-4.9Q159.1,385.28,159.67,383.76Z"/><path class="cls-10" d="M197.39,389.76l.84,1.76c.44.94.89,1.87,1.34,2.8,2.81-2.29,4.7-4.22,6.6-5.52,3.77-2.59,7.84-6,12.26-7.39,2.11-.65,5.17-1.52,7.37-.51.6.27,2.07,1.54,2.69.84.26-.28-1-1.54-1.1-1.67-2.51-2.54-5.89-2.49-9.64-1.61-7.66,1.79-11.06,3.66-20.47,11.09"/><path class="cls-11" d="M263.75,431.43A5.06,5.06,0,0,1,265.6,438a4.64,4.64,0,0,1-2.74,2.23c-.18.06,0,0-.17,0h-.24a5.49,5.49,0,0,1-1.21-.1,5.09,5.09,0,0,1-3.51-2.61c-.23-.42-1.45,0-1.17.53a6.1,6.1,0,0,0,6.09,3,5.56,5.56,0,0,0,2.09-10.26c-.4-.27-1.55.3-1,.67Z"/><path d="M260.31,415.05c.79,0,2,0,2.24,1a4,4,0,0,1-.41,2.28c-.55,1.5-1.63,3.58-.64,5.13,1.13,1.75,3.2.37,4.16-.81a10.54,10.54,0,0,0,1.94-4c.16-.64.18-1.32.35-1.95.06-.23.17-.46.25-.7.62-2,1-4.84-1.39-5.79-.2-.08-1,.23-.72.34,2.1.85,1.85,3.45,1.36,5.24a12.16,12.16,0,0,0-.45,1.75,11.4,11.4,0,0,1-1.51,4.24,6.92,6.92,0,0,1-1.1,1.42c-.26.26-.69.69-1.08.7-.76,0-1.23-1.15-1.3-1.74-.2-1.67.81-3.28,1.26-4.83a2.21,2.21,0,0,0-.06-2c-.55-.72-1.73-.69-2.53-.68-.24,0-.94.37-.37.36Z"/><path d="M201.68,338l-23.32-9.33c-6.93,3.46-8.58,9-13.83,15.48-7.32,9-12.64,17.76-12.16,29.57a13.21,13.21,0,0,1-.69,5c.28.18.55.36.84.51a7.82,7.82,0,0,0,6.42,1.22,7.5,7.5,0,0,0,4.06-3.91,13.26,13.26,0,0,0,.76-9.09,16.1,16.1,0,0,0,9.17-13.1A9.52,9.52,0,0,0,184.47,349a9.91,9.91,0,0,0,9.86,2.59C199.87,350,203.16,343.92,201.68,338Z"/><path d="M196.22,339.49l21.9-12.29c7.32,2.53,14.36,5.86,20.41,11.57,8.43,7.94,10.16,17.94,11.23,29.71a13.17,13.17,0,0,0,1.33,4.83c-.25.21-.5.42-.77.61a7.79,7.79,0,0,1-6.21,2.05,7.48,7.48,0,0,1-4.52-3.35,13.26,13.26,0,0,1-2-8.92,16.1,16.1,0,0,1-10.79-11.78,9.53,9.53,0,0,1-12.14-3.79,9.93,9.93,0,0,1-9.44,3.86C199.56,351.1,195.51,345.51,196.22,339.49Z"/><path d="M236.63,366.52a7.49,7.49,0,0,0,8.06,6.85c-1.78,6.23,1.57,19.84,12.54,19.36,11.27-1,19.3-1.67,28.78-8.36A24.3,24.3,0,0,0,290.7,380a10.87,10.87,0,0,0-1.21-4.11,104.52,104.52,0,0,0-6.9-10.68,3.94,3.94,0,0,1-.81-2.45,5.39,5.39,0,0,1,1.65-2.65A9.3,9.3,0,0,0,277.38,345a5.36,5.36,0,0,0-.64-7.36,26.25,26.25,0,0,0-7.07-4.17c-4.59-2.4-8.62-6.32-13.7-7.1A12.8,12.8,0,0,0,242.83,333a18.22,18.22,0,0,0-10.72-.24,7.45,7.45,0,0,0-5.05,8.46l-.94.29a15.35,15.35,0,0,0,14,18.07A7.48,7.48,0,0,0,236.63,366.52Z"/><path d="M253.28,385.05s-1.44,20.22,1.35,23.61,2.78,3.65,4.49-3a108.89,108.89,0,0,1,4.51-13.38Z"/><path d="M406.81,823.34a18.81,18.81,0,0,0-4.14,3,92.86,92.86,0,0,0-16.43,18.07,16.71,16.71,0,0,0-2.53,4.33c.31.2,4.69-6.1,11.09-13.1S407.06,823.62,406.81,823.34Z"/><path class="cls-12" d="M169.86,718.3c6.13,2.56-1.88,6.84,4.54,6.47,5.74-.33,11.93,5.26,17.52,4s6.83,4.32,12.38,2.7c11.4-3.3,20.66,5.9,31.53,1,20.24-9.2,25.23-8.72,40.95-25.48,2.87,7.72,22.82,1,30.44,1.18l54.29,20.75s87.41,24.64,110.65,66.44l-10.64,2.46S438,769.62,419,803.45c-15.7,27.87-37.08,51.42-37.08,51.42l-148.66.83c-31,4.79-62.43-10-81.59-38.31-13-24.2-4.68-79.21-4.17-89a.42.42,0,0,1,.7-.29C151.08,730.7,165.85,716.62,169.86,718.3Z"/><path d="M302.39,821.07a.48.48,0,0,0,.17,0v-.45Z"/><path class="cls-10" d="M166.66,400.71a2.91,2.91,0,0,0-3.17.38,2.85,2.85,0,0,0-.92,1.27,2.89,2.89,0,0,0,.53,2.67,2.7,2.7,0,0,0,3.06.72,3,3,0,0,0,1.66-3.37,2.66,2.66,0,0,0-1.16-1.67"/><path class="cls-10" d="M213,397.06a2.9,2.9,0,0,1,3.1.75,2.74,2.74,0,0,1,.77,1.36,2.89,2.89,0,0,1-.83,2.59,2.68,2.68,0,0,1-3.12.36,3,3,0,0,1-1.26-3.53,2.61,2.61,0,0,1,1.34-1.53"/><path class="cls-13" d="M843,105c-2.3-1.51-4.92-3.95-3.89-6.5a20.86,20.86,0,0,1,1.3-2.1c.94-1.73.55-3.87,1-5.8s2.58-3.86,4.19-2.72c-.93-3-.77-6.42,1.13-8.87s5.81-3.36,8.25-1.44a5.74,5.74,0,0,1,10.15-4.73c-.75-3.26-.32-7.06,2.12-9.35s7.14-2.06,8.57,1c.87-4.64,7.61-6.81,11-3.57a7.23,7.23,0,0,1,12.76-3,7.63,7.63,0,0,1,14.11-.65c2.94-4.44,10.55-4.47,13.52-.06a7.64,7.64,0,0,1,13.8-1c1.21-2.49,5-2.66,7.11-.85s2.69,4.83,2.56,7.59c1.49-2.19,5-2.15,7.06-.48s2.94,4.41,3.3,7c3.37-2,3.17-1,5.63,2.07a7.07,7.07,0,0,0,1.79,1.94,8.82,8.82,0,0,0,2.68.63,6,6,0,0,1,4.59,4.5c.59,2.59-.6,5.41.29,7.92.52,1.48,1.68,2.63,2.45,4,2.79,5,3.55,11.8,3.76,17.51.16,4.7,7.35,47.14-5,58.78-9.26-17.93-20.88-78.52-39.8-85.51a82.55,82.55,0,0,0-59.14,1S859.1,85,854.93,88.17,843,105,843,105Z"/><path class="cls-2" d="M962.77,182.15s-.74,41,8.34,51.7c2.38,2.8,26,15,26,15L895.6,296.09l-29.27-28.18s24.14-18,25.06-22.19-4-37.29-4-37.29"/><path class="cls-8" d="M890.5,230.21l1.19,12.92s35.41-.61,46.41-9.22,13.24-30.66,13.24-30.66Z"/><path class="cls-14" d="M189.16,438.77c6.25-.08,17.67,2.93,20.48,5.31,0,0-4.8,9-19.28,9.17s-16.81-8-16.81-8S181.21,438.87,189.16,438.77Z"/><path class="cls-15" d="M206.12,442.11s-7.44-.5-13.37-.43-13.34.77-13.34.77-1-4.42,9.74-4.56S206.12,442.11,206.12,442.11Z"/><path class="cls-16" d="M189,451.75c6.77-1.05,14.19-7,22.1-6.59,0,0-2.62,12.44-19.65,12.65s-18.85-12.16-18.85-12.16C180.51,445.05,182.2,450.87,189,451.75Z"/><path class="cls-16" d="M181.71,435.49c3.58-.31,5.86,1,7.42,1s3.81-1.4,7.38-1.18c3.36.2,16,8.85,14.37,9.93s-10.94-5.42-21.71-5.29-14.74,7-16.34,6S178.37,435.78,181.71,435.49Z"/><path class="cls-17" d="M316.14,682.69c.13,16.4,15.06,33.89,5.71,49.34-13.27,21.92-39,26.56-62.61,26.45-21.35-.09-42.61-2.68-63.68-6-9.55-1.5-19.38-4.14-28.93-3.7-1.5.07-25.23.8-24.37-1.87L159,692.15l4.48-21.62-17-158.26,28.71-21.43L192,481l6.59,9.08C206,499.27,225,506,237.2,506.26c3.59.08,13.22-.13,17.05-.57,10.67-1.22,16.94-9.78,15-20.88-.06-.36,21.17,5.53,22.75,5.74,8.46,1.17,21,12.46,23,15.64,0,0,8.92,81,9,93.65C324,608.66,315.75,629.79,316.14,682.69Z"/><path class="cls-8" d="M194.55,395.6s-5.37,1.29-5.4-3.55,1.48-6.15,1.48-6.15-.78,5.52.31,7.27A4.35,4.35,0,0,0,194.55,395.6Z"/><path class="cls-8" d="M181.74,396.14s5.46.84,5.08-4-2-6-2-6,1.24,5.43.3,7.26A4.33,4.33,0,0,1,181.74,396.14Z"/><path class="cls-10" d="M202.62,402.78s7.07-6.13,10.88-6.79c6.88-1.18,13.67,2.39,15.88,4.89,0,0-10.45-4.62-14.36-3.86C211.29,397.75,202.62,402.78,202.62,402.78Z"/><path class="cls-10" d="M180.8,403.67s-7.63-4.6-11.26-4.71a11,11,0,0,0-10.23,5.32s5.73-4.26,9.46-4C172.34,400.45,180.8,403.67,180.8,403.67Z"/><path class="cls-18" d="M796.78,335.84l-30.16,44.07L680.1,305.83l-34.88,33.32s39.75,52.28,62,81.24c15.24,19.79,44.37,49,78,46,21.74-1.91,78.12-57.88,78.12-57.88L802,338.19"/><path class="cls-18" d="M856.2,256.31s-39,10.54-50.56,44.6c-13.34,39.31-54.23,95.45-54.23,95.45L818.6,449.1,853,396.77Z"/><path class="cls-19" d="M1060.94,578.72l1.14,50.63A368.12,368.12,0,0,1,1042.85,737l-22.71,98s-4,94.87.06,148.56c3.53,46.54-5.37,155.64-5.37,155.64l-84.73-2-24-298.85L892,669.61l-28.6-88.15Z"/><path class="cls-19" d="M833.84,591.64,858,885.25c-.2,13,1,35.94,5.4,48.14l25.15,161.27,3.32,24.16,47.1.64L916.22,577.25Z"/><path class="cls-18" d="M1051.4,365.54s-5.92,80.77,1,113.25,16.26,105.63,15.08,126.82-94.74,24-143.73,22.59-94.66,5.69-97.1-18.13C818,525.57,981.24,344,981.24,344Z"/><path class="cls-18" d="M893.26,275.68c9.07,7.1,24.79,6.61,35.28,2.58,21.18-8.14,41.06-28.21,47.6-40.84l.55-.87c17.29,6.77,58.08,17.18,70.27,30.86,18.31,20.43-28.29,92.47-30.26,109.94-1,8.48-6.85,71.37,2.28,120a790.68,790.68,0,0,1,11.92,97.78l-54.28,8.28a296.54,296.54,0,0,1-80.12,1.25l-68.15,11.64c.62-33.68-4.75-67.38-2-111.59l-2.77-159.27,18.8-71.89s1.85-7.64,3.34-10.9c2.66-5.81,39.81-17,45.64-18C891.35,244.59,883,267.6,893.26,275.68Z"/><path class="cls-20" d="M964.2,184.24a1.77,1.77,0,0,0,0,.23A.34.34,0,0,0,964.2,184.24Z"/><path class="cls-2" d="M963.22,181.37l-.14-32.11-2.55-35.65L944,84.67l-26.66-9.31-29,7.89s-21.55,1.35-28.57,4.11-12.85,11.28-16.61,21.75-.23,34.8-.23,34.8c-.14.59.78,3,1,3.53,2.2,6.43,3.32,12.15,5.07,16.94a12.16,12.16,0,0,1,.62,6.72c-1.76,8.92-1.29,12.6,0,17.79,1.79,7.07,6.2,11.78,8.73,17.53,2.37,5.37,3.23,9.56,6.58,14.35,1.09,1.54,8.27,16.23,16,17.52l10.4.83,12.3-1.26s24.88-.78,34.58-11.77,14.3-26.18,14.3-26.18"/><path d="M844,95.11c.1.58.21,1.3.31,2.16.34-.53.7-1.12,1.11-1.82a42.92,42.92,0,0,1,2.73-4.1A12.76,12.76,0,0,0,844,95.11Z"/><path d="M966.85,110.87l-.16-1.55c-.68-6.9-8.59-17-21.18-27.09-21.65-17.31-20.73-17.64-50.16-11.91-2,.4-4,.87-6,1.4-16.74,4.6-31.21,6.36-41.21,19.63a6.54,6.54,0,0,1,4-.71,3.08,3.08,0,0,1,2.78-2.47c12.43-1.39,23.25-9.3,35.38-12.23,2.51-.61,8.69-2.39,12.81-1.5,9.72-1.43,21.77,1,26.43,2.46,6.2,2,21,6.23,20.94,22.21l3.87,48.56c.2,2.76-.71,6.15-.69,8.86L967,165.2c3.12-9.91,6.9-21.58,8.21-24.29C977.21,136.67,967.57,118.07,966.85,110.87Z"/><path class="cls-2" d="M960.52,185.34c12.84,9.73,12.74-9.54,12.74-9.54,6.67-10.68,5.27-20.89,4-27.84s-8.92-5.79-8.92-5.79c-6.43,1.6-8.87,5.5-11.32,28.26"/><path d="M865.22,87.15c10.61-1.46,37.63-12.16,51.94-14.8,5.93-1.09,27.53,11.3,30.51,14.36,6.83,7-4.7,26.34,8.45,49.7,4.34,7.71,7.36-7.07,12.26-2.26s6.78,6.76,6.78,6.76c.32-23.91.33-23.07-7.65-45.68S933.07,65.57,920.6,65.09s-51.27,8.11-61.29,14.32"/><path d="M962.93,165.66a47.88,47.88,0,0,1,4.93-11.6,10.06,10.06,0,0,1,3.2-3.5c-.07,0,.39-.26.22-.11.07-.07.25,0,0,0l-.44-.1a7.25,7.25,0,0,1,1.5,2.31,14.51,14.51,0,0,1,1,7.43c-.05.47,1.07.27,1.11-.13a14.08,14.08,0,0,0-1.49-8.61c-.38-.65-.87-1.71-1.75-1.49a4.72,4.72,0,0,0-1.84,1.09,15.55,15.55,0,0,0-3.08,4,53.1,53.1,0,0,0-4.46,10.87c-.13.41,1,.27,1.11-.13Z"/><path d="M964.66,167c2.21-.39,2,3.32,2,4.62,0,1-.4,4.32,1.4,4.12.85-.09,1.25-.74,1.5-1.48a23.55,23.55,0,0,0,.26-10.61c-.6-2.25-1.7-5.06-4.17-5.76-.27-.07-1.26.36-.9.46,2.15.61,3.19,3,3.78,5a14.54,14.54,0,0,1,.71,4.33,30.29,30.29,0,0,1-.45,5.47,8.92,8.92,0,0,1-.44,1.61,5.45,5.45,0,0,0-.31.58c0,.13.37.54.43,0,0,0-.21-.16-.22-.18a5.5,5.5,0,0,1-.47-2.18c0-1,0-2,0-3a5.13,5.13,0,0,0-.64-2.75,2.1,2.1,0,0,0-2.24-.65c-.46.08-1,.6-.19.46Z"/><path d="M903.45,151.72a4.29,4.29,0,0,1,4.7.17,4.22,4.22,0,0,1,1.51,1.75,4.27,4.27,0,0,1-.46,4,4,4,0,0,1-4.39,1.43,4.38,4.38,0,0,1-2.85-4.75,3.88,3.88,0,0,1,1.49-2.59"/><path d="M856.71,158.7a4.28,4.28,0,0,0-4.46,1.48,4.14,4.14,0,0,0-1,2.1,4.25,4.25,0,0,0,1.54,3.7,4,4,0,0,0,4.62.15,4.39,4.39,0,0,0,1.42-5.35,3.91,3.91,0,0,0-2.16-2.08"/><path d="M871.08,162.93s-7.46-5.6-12.3-5.36c-7.07.35-8.63,2.17-10.65,5.72,0,0,4.09-4,9.08-4.1C862,159.08,871.08,162.93,871.08,162.93Z"/><path d="M893.49,158s8.9-7.56,13.68-8.36c7-1.18,15.91,1.76,18.64,4.79,0,0-11.86-4.51-16.75-3.55C904.38,151.8,893.49,158,893.49,158Z"/><path d="M887.69,137.62l2.33,4.49c.59,1.14,1.85,3.79,2.45,4.92,3.1-2.81,5.61-5.92,7.72-7.52a48,48,0,0,1,13.73-7.78c2.41-.8,6.56-2.84,9-2.64.78.06,1.65.41,2.32-.44.27-.36-1.26-1.89-1.42-2.05-3.12-3.1-7.79-1.67-12.1-.58-8.78,2.23-16.58,6.48-24,11.6"/><path d="M842.72,136.72l3-.18c8.35-.52,16.34,1.17,24.26,3.79l-.93,5c-.23,1.26-.58,3.56-.82,4.82-3.46-1.74-6.39-3.59-8.67-4.48-4.53-1.77-9.28-3.69-14.17-3.76-.39,0-2.49,0-2.86,0C841.44,139.33,842,137,842.72,136.72Z"/><path d="M880.38,189.52a7.8,7.8,0,0,0,7.16-1.49c.42-.36,2-.29,1.4.21a11,11,0,0,1-9.78,1.87c-.28-.11-.27-.32.05-.48a1.77,1.77,0,0,1,1.17-.11"/><path d="M889.75,187.51a12.65,12.65,0,0,1,4.29-1.77,1,1,0,0,1,.72.12c.15.1.2.26,0,.38a4.77,4.77,0,0,1-2.37.92.92.92,0,0,1-.79-.19c-.17-.2.06-.37.27-.4a3.69,3.69,0,0,0,1.9-.75l.76.51a11.29,11.29,0,0,0-3.84,1.59.93.93,0,0,1-.83,0c-.17-.08-.38-.29-.15-.44"/><path d="M895.89,186.83c1.8-.3,3.8-1.4,4.49-2.92,1-2.28-.67-5.35-3.11-6.37-.27-.11-.16-.32.08-.4a1.46,1.46,0,0,1,1,.06,6.42,6.42,0,0,1,3.76,5.37c0,1.88-1.56,3.4-3.64,4.24a9.21,9.21,0,0,1-2,.57c-.27,0-.77,0-.94-.17s.07-.33.33-.38"/><path d="M876.94,189.06a.24.24,0,0,0-.27-.32,2.08,2.08,0,0,1-1.47-.27l-.39.67a6.18,6.18,0,0,1,3,.63.5.5,0,0,0,.56-.18c.1-.11.2-.36,0-.46"/><path d="M878.34,189.13a7,7,0,0,0-3.32-.69.6.6,0,0,0-.45.29.27.27,0,0,0,.07.38"/><path d="M873.23,189.84a3.73,3.73,0,0,1-3.44-1.79,5.56,5.56,0,0,1,.56-6.12.22.22,0,0,0-.14-.38.71.71,0,0,0-.6.29,6.2,6.2,0,0,0-1.19,5.3,4.27,4.27,0,0,0,3.22,3.27,4.34,4.34,0,0,0,1.34.1c.18,0,.49-.15.54-.38s-.12-.31-.29-.29"/><path d="M933.65,74c10.58,2.93,15.11,6.09,21.12,15.27L894.5,75A51.92,51.92,0,0,1,907,72.42C917.91,71.73,923.07,71.12,933.65,74Z"/><path d="M932.56,74.61c4.25,1.18,8.5,2.61,12.11,5.2S951,86,953.43,89.67l2.43-.93-20.33-4.82-32.45-7.7-7.49-1.77-1,1.06a51.71,51.71,0,0,1,10.85-2.4c3.19-.29,6.42-.46,9.62-.58a56.9,56.9,0,0,1,17.46,2.08,2.74,2.74,0,0,0,1.88-.31c.25-.14.91-.65.3-.82a60.66,60.66,0,0,0-18.52-2.19c-3.46.14-7,.3-10.42.67a58.38,58.38,0,0,0-11.44,2.55c-.17,0-1.88.84-1,1.06l20.33,4.83,32.45,7.69,7.5,1.78c.32.08,2.84-.28,2.42-.92-2.48-3.77-5.23-7.45-8.93-10.1s-8.08-4.16-12.44-5.37a2.69,2.69,0,0,0-1.88.31C932.61,73.93,932,74.44,932.56,74.61Z"/><path d="M887.28,200.28c6.72-1.05,22.14.46,25.5,2.41a32.76,32.76,0,0,1-22.5,14.66c-15.57,2.42-18.91-8.23-18.91-8.23S878.73,201.6,887.28,200.28Z"/><path class="cls-15" d="M906,201s-8.09.64-14.46,1.63-14.28,2.82-14.28,2.82-1.71-4.26,9.85-6S906,201,906,201Z"/><path class="cls-16" d="M890.2,214.34c7.15-2.1,14-10.82,22.58-11.65,0,0-.77,14.49-19.08,17.33s-22.33-10.9-22.33-10.9C879.8,207.31,882.76,214.5,890.2,214.34Z"/><path class="cls-16" d="M878.8,198.14c3.8-.86,6.45.11,8.13-.15s3.9-2,7.79-2.32c3.64-.31,20.15,5.5,18.61,6.83s-14.29-2.85-25.87-1.05-14.8,8.44-16.67,7.64S875.23,198.94,878.8,198.14Z"/><path d="M816.49,317.39l.87,13.59,2.08,32.36L822,402.58l2.17,33.92.72,11.2.22,3.45a10,10,0,0,0,.12,1.81,1,1,0,0,1,0,.24c0,.44,1.17.19,1.14-.3l-.87-13.59L823.4,407l-2.52-39.24-2.18-33.92-.72-11.2-.22-3.45a10,10,0,0,0-.11-1.81,1.94,1.94,0,0,1,0-.24c0-.44-1.17-.19-1.14.3Z"/><path d="M758.82,378.89a40.69,40.69,0,0,1,13.51,19.3,28.23,28.23,0,0,1,1.19,10.88c0,.58,1.1.42,1.15-.09,1-11.12-5-21.5-12.88-28.9a26.32,26.32,0,0,0-2.1-1.84c-.39-.3-1.39.25-.87.65Z"/><path d="M888.42,682.46a41.38,41.38,0,0,1,16.14,16.08c2.84,5.36,3.1,10.93,3.27,16.8.46,14.89.38,29.79.36,44.68q0,28.28-.32,56.55-.17,19.54-.4,39.1-.16,14.94.33,29.88a346.62,346.62,0,0,0,2.84,37.28c.68,4.76,1.41,9.49,2,14.27,1.68,14.78,3,29.61,4.33,44.43q2.57,28.62,4.9,57.26Q924,1064.89,926,1091q1.13,14.28,2.24,28.55c0,.45.07.9.1,1.35s1.78.12,1.73-.46q-.78-10.15-1.58-20.31-1.9-24.14-3.86-48.28-2.37-28.95-4.87-57.89c-1.43-16.43-2.89-32.87-4.6-49.28-1.48-14.23-3.87-28.35-4.82-42.64s-1.39-28.91-1.21-43.36q.2-15.71.34-31.42.27-27.6.39-55.22c.06-16.68.12-33.36-.16-50-.08-4.57-.11-9.17-.47-13.73-.74-9.42-6.78-17.21-14-22.88a41.76,41.76,0,0,0-5.44-3.71c-.43-.24-2,.42-1.4.77Z"/><path class="cls-13" d="M955.61,133.87c-7.36-3.93-16.08-12.75-17.52-21s-.35-9.84-6.35-15.63-20.28-7.84-27-3c-4.28,3.1-7.08,5.1-16.37,7.74-5,1.43-8.58,1.43-13.76,2-4.05.46-8.42.86-12-1.14,0,0-2.84-4.39-6.66-3.35s-9.75,2.29-12.83,9.54C839.58,98.53,847.76,88,856.43,81c12-9.74,24.52-18,39.91-19.54s30.84-3.28,45.6,1.35c7.08,2.22,11,6.38,16.73,11.06,8.88,7.2,17.28,21,19.89,32.11a69.76,69.76,0,0,1,1.61,24.71c-.21,1.6-2.24,26-2.11,24.44,1.09-13.39-11.6-18.16-16.73-14.58-7.67,5.34,4.15,20-8.58,25.44q-2.93-20.7-3.79-41.62"/><path class="cls-8" d="M888.35,147.75s-5.27,2.37-6.24-3.53.34-7.73.34-7.73.27,6.85,1.72,8.82C885.43,147,886.15,147.58,888.35,147.75Z"/><path class="cls-17" d="M191.59,477.87s17.27,28.61,46.49,25.62,21-22.67,21-22.67c5.48,2.17,39.6,13.46,39.6,13.46s16.51,41.72,19.25,73.23-10.8,51.59-10.8,51.59l7.44,68.61-56.05,38.44L165,705.83s-1.56-41.56-14.91-92-9-52.06-8.21-73.29-7.67-32.95-3.61-32l27.3-16.68"/><path class="cls-17" d="M346.3,660.41a36.62,36.62,0,0,0,16.79-8.3c4.31-3.83,8.22-9.14,8.22-15.82,0-14.85-11.15-34.11-15-43.44-2.72-6.63-21.79-61.92-41.29-86.66-4.83-6.13-9.22-8.77-16.37-11.91L292.4,493l18.52,118.88L275.19,623l2.54,48.54Z"/><path class="cls-17" d="M142.06,507s-19.36,2.88-19.75,44.55,52,109.8,60.35,116.66,17.84,11.53,43,7.79C257.1,671.3,279,667.1,279,667.1l-4.39-38.05-56.16-2.55-45.65-93.82S157.66,505.15,142.06,507Z"/><polygon class="cls-2" points="226.37 623.85 232.89 623.56 239.19 623.19 243.51 651.1 232.46 650.98 226.37 623.85"/><path class="cls-21" d="M158.56,516.21c14.41,4.38,23.05,18,29,30.93,7,15.18,11.4,31.37,17.19,47a157.45,157.45,0,0,0,11.89,25.69c.31.51,2.06-.16,1.86-.5-8.68-14.68-13.79-30.93-19.2-47-2.68-8-5.5-15.93-8.93-23.63C187.31,541.79,183.79,535,179,529c-4.95-6.16-11.28-11.29-18.93-13.61-.46-.14-2.13.6-1.51.78Z"/><path class="cls-21" d="M154.75,632.34a123.51,123.51,0,0,1,7.45,10.58c3.18,4.87,6.34,9.75,9.67,14.52q3.3,4.72,6.77,9.32a54.43,54.43,0,0,0,6.68,7.7c5,4.53,11.42,6,18,6.59,10.42,1,21,.37,31.43-.46,12.26-1,24.48-2.46,36.68-4.09,10.57-1.42,21.12-3,31.7-4.39l3.1-.4c.48-.06,1.12-.38,1-1l-.86-4.44c-.17-.9-2-.42-1.86.5l.86,4.44,1-1c-21.94,2.76-43.76,6.36-65.79,8.39-10.83,1-21.78,1.8-32.66,1.25-5.64-.28-11.69-.75-16.76-3.43a27.19,27.19,0,0,1-8.09-7.09c-2.38-2.89-4.57-5.93-6.76-9-4-5.55-7.78-11.26-11.51-17a135.33,135.33,0,0,0-8.33-11.93c-.57-.69-2.32.07-1.7.83Z"/><path class="cls-21" d="M240,649.65a4.09,4.09,0,0,1,.12,1.6c0,1.09.06,2.18.09,3.27s0,2,.11,3c0,.55,0,1,.48,1.21a6.25,6.25,0,0,0,1.57.2l1.93.27c1.29.19,2.58.38,3.87.59,2.89.45,5.77.93,8.66,1.41,12.85,2.15,25.75,4.44,38.77,5.26,5.86.37,11.87.49,17.65-.7,1.13-.23.89-1.07-.22-.84a60.34,60.34,0,0,1-15.07.65c-6.21-.32-12.4-1.06-18.55-1.92-11.7-1.63-23.3-3.93-35-5.55-.66-.09-1.32-.21-2-.26-.34,0-.14.12-.17,0a1.14,1.14,0,0,1,0-.37c-.06-1-.1-1.95-.13-2.92,0-1.19-.05-2.39-.09-3.58a4.89,4.89,0,0,0-.13-1.91c-.33-.59-2.11.05-1.86.5Z"/><path class="cls-21" d="M237.73,623.34c19-3.36,38.22-6.07,57.32-9.09,4.52-.71,9-1.43,13.54-2.19.35-.06,1-.25,1-.7s-.48-.59-.84-.53c-19.26,3.26-38.61,6-57.9,9.13-4.32.69-8.64,1.38-12.95,2.14-.35.07-1,.25-1,.71s.48.59.83.53Z"/><path class="cls-21" d="M304.92,526.61c-.86,5.44-1.91,11.09-1,16.59s4.49,10,7.22,14.64c5,8.58,9.59,17.43,12.55,26.95a106.55,106.55,0,0,1,3.79,17.83c.08.57,1.95.16,1.86-.5a103.19,103.19,0,0,0-8.21-29.37c-2-4.5-4.37-8.85-6.83-13.14-1.33-2.33-2.7-4.64-4.08-6.94s-3.07-4.81-3.89-7.57c-1.81-6.1-.55-12.61.43-18.74.1-.67-1.76-.34-1.86.25Z"/><path class="cls-2" d="M189.5,643.07c1.65-.08,1.17,1.19,1,1.61a34.94,34.94,0,0,1-4.9.4c-3,.17-7.19.51-11.75,1.22-4.33.68-8.14,1.48-11.1,2.2a3.11,3.11,0,0,0-.3.67c-.87,2.33,1.43,3.89,3.46,5s29.1-1.29,29.1-1.29l-7.94,3.22a74.45,74.45,0,0,0-11.34,2.38c-2.17,1.09-2,3.47,0,4.84s15.36-3.52,30.49-3.09c10-.11,20.71-4.33,29.37-9.42l-8.74-26.63a128.81,128.81,0,0,0-12.69-5.85,94.89,94.89,0,0,0-19.05-6,118.09,118.09,0,0,1-15.36-5,7,7,0,0,0-1.09,7.06c1.54,4.53,16.24,6.7,16.24,6.7l-19,1.29s-14.94,4.58-16,8.68,3.81,3.54,3.81,3.54l12.25-3.41,14,.56-14.6,2.9s-11.34,4.61-12.22,5.06c-1.71,1.14-2.45,1.4-2.79,3.43-.24,2.38,4.31,2,4.31,2l16.69-2.51Z"/><path class="cls-2" d="M304.84,612.26l6.57-21.21,5.24-16.15,13.24-11.47s4.65.52,3.19,4.12-8.41,10.05-8.41,10.05l-4.13,11.49,6.71-11.69,9.8-4.84,9.68.72s1.79,4.32-2.75,4.48h-4.84l-7.35,5.91-4.59,11,6.93-10.76,10.21-3.66,6.46,1.68s1.79,2.75-1.43,3.22a31.59,31.59,0,0,1-5.5.36L338,589.09l-5.2,11,9.13-7.54,11.86-1.43s1.95,2.75-1.1,3.93-6.17,2.73-9.14,4.32l-6.62,8.06Z"/><path class="cls-2" d="M1175.08,220.06c1-6.26-.56-21.59,2.55-22.22s6.55.4,8.46,5.2-1.55,17.65,3.2,20.92c3.44,2.36,6.11-1.38,6.11-1.38s14.82-20.78,19-28.76,11.62-17.07,13.83-15.17,2.64,4.18-.81,10.77-12.08,19.69-11.06,21,3.19-.21,5.24-4,14.76-24.22,17.33-24.27a4.16,4.16,0,0,1,4,5.34h0a15.63,15.63,0,0,1-2.9,5.91c-5.28,6.65-14.42,19.34-17,24.71a.37.37,0,0,0,.61.42c2-2.13,8.08-10.34,12.58-16.59l4.55-7.38c1.12-1.83,3.56-2.52,5.1-1.24a2.56,2.56,0,0,1,.9,1.61c.49,3-2.92,7.1-2.92,7.1l-16.84,25.66s.47,2.1,1.76,2,13.18-21.92,15.1-20.92,3.77,0,1.62,6.09-13.74,21.7-16.72,26.82-11.76,15.19-16.12,21.36a13.25,13.25,0,0,1-11,5.73l-13.68-.33c-.66,0-13.24-4.89-14.84-18.58S1174,226.32,1175.08,220.06Z"/><polygon class="cls-2" points="1203.9 268.04 1199.34 279.05 1168.97 267.25 1176.68 252.61 1203.9 268.04"/><path class="cls-3" d="M1199.42,231.87c3,1.07,4.95,3.88,6.09,6.77a27.84,27.84,0,0,1,1.78,11c0,.73,1.45.49,1.46-.12a28,28,0,0,0-2-11.77c-1.28-3-3.33-5.7-6.49-6.81-.58-.2-1.69.64-.84.94Z"/><path class="cls-18" d="M1108.35,424.37a78.89,78.89,0,0,1,1.88-35.72c2.87-10.34,2.06-12.4,3.76-23l53.33-103.45,41.73,17.3S1175.44,437.57,1150.89,459c-6.1,5.34-13,6-24.23,5.93C1112.79,453.78,1110.49,436.84,1108.35,424.37Z"/><path class="cls-18" d="M974.48,237.79s64.86,1.4,91.11,35.09c12.05,15.45,50.18,84.55,57.84,98.34-3.62,11.2,1.74,18.94-1.36,30.32-3.45,12.65,2.67,20,4.28,32.89,1.38,11.1,8,19.42,13.26,28.57-23.2,7.72-44.52-8.74-56.74-21.31-16.35-16.74-50-51.06-76.46-91-2.53-3.7-9.56-18.37-15.48-33C982.26,302.86,969.65,246.54,974.48,237.79Z"/><path d="M1035.94,269.58c-4.24.32-8.55,2.41-11.92,4.89-9.15,6.73-12.78,18.2-13.64,29.1-1.19,15.29,2.52,30.56,7.74,44.84a243.77,243.77,0,0,0,18.41,38.51c2.5,4.3,5.1,8.55,7.82,12.71a49.77,49.77,0,0,0,4,6,1.74,1.74,0,0,1,.19.26c.18.24,1.27-.12,1.06-.41-3.45-4.81-6.59-9.86-9.64-14.93A260.56,260.56,0,0,1,1021.92,355c-5.56-13.57-10-28-10.58-42.79-.46-12.13,1.52-26,10.49-35a24.39,24.39,0,0,1,13.5-7.09c.23,0,0,0,.13,0,.35,0,1.23-.59.48-.53Z"/><path d="M1115.88,361.1c-8.93,11.39-14.59,26.77-12.66,41.34,0,.44,1.2.17,1.13-.31-1.91-14.44,3.75-29.68,12.6-41,.34-.43-.81-.4-1.07-.07Z"/><path class="cls-13" d="M883.19,192.88a3.28,3.28,0,0,1-2,3.62.89.89,0,0,1-.62.05c-.19-.08-.3-.27-.46-.4-.65-.55-1.63,0-2.2.64a9.51,9.51,0,0,0-1.34,1.93c-.25.5-.51,1.06-1,1.26a4.67,4.67,0,0,1-1.13.09,2.67,2.67,0,0,0-2,1.66,19.27,19.27,0,0,0-.77,2.59,3.66,3.66,0,0,1-1.47,2.2,1.72,1.72,0,0,1-2.36-.51,2.65,2.65,0,0,1,.56-2.46,33.34,33.34,0,0,1,5.36-7,11.29,11.29,0,0,1,8-3.26"/><path class="cls-13" d="M885.75,220a8.48,8.48,0,0,0,2.78,3.77,1.51,1.51,0,0,0,1.19.43c.35-.07.62-.36,1-.5a1.9,1.9,0,0,1,1.83.44,15.25,15.25,0,0,0,1.51,1.28,1.56,1.56,0,0,0,1.84,0,2.06,2.06,0,0,0,.45-.82,8.84,8.84,0,0,1,1.74-3,8.54,8.54,0,0,0,1.3-1.39,1.39,1.39,0,0,0-.12-1.75,2,2,0,0,0-1.62-.16c-3.31.66-4.25,1.37-11.86,1.74"/><path class="cls-13" d="M888.56,192.11a2.44,2.44,0,0,0,3.59,2.38,3.22,3.22,0,0,1,.76-.39c.68-.17,1.3.38,1.82.85s1.29.89,1.87.5c.27-.18.41-.5.66-.73a1.68,1.68,0,0,1,1.68-.21,8.44,8.44,0,0,1,1.54.89,14.81,14.81,0,0,0,4.93,1.61l5.4,1.1a.71.71,0,0,0,.61-.07.56.56,0,0,0,.14-.47c-.06-1-1.12-1.73-2.13-2a7.6,7.6,0,0,1-2.9-1.1,11.22,11.22,0,0,0-1-1,3.65,3.65,0,0,0-1.49-.49,63,63,0,0,0-13.58-.75"/><path class="cls-13" d="M889.73,192.65c3.43-.1,7.07-1.16,10.45-.3a17.09,17.09,0,0,1,4.57,2.26l4.91,3,2.77-1.63c-2.72-1.19-5-3.2-7.63-4.49-3.11-1.5-6.35-1.3-9.65-.66-.6.12-1.84.39-2,1.14s1,.77,1.48.68a14.72,14.72,0,0,1,4.48-.44,10.11,10.11,0,0,1,3.75,1.34c2.3,1.28,4.35,3,6.78,4.06a2.93,2.93,0,0,0,2.44-.35c.52-.31,1-.86.33-1.28l-5.26-3.2a17.24,17.24,0,0,0-4.85-2.24c-3.71-.9-7.49.13-11.22.24a2.89,2.89,0,0,0-2.29.92c-.4.67.34,1,.92,1Z"/><path class="cls-13" d="M895.66,193c.5-.05,1-.07,1.5-.08h.49l.75.07.75.11.34.06.23,0c-.19,0-.23,0-.11,0,.51.13,1,.27,1.51.44a2.37,2.37,0,0,0,2.44-.66,1,1,0,0,0-.44-1.65,17,17,0,0,0-7.15-.83,2.67,2.67,0,0,0-1.3.48,1.44,1.44,0,0,0-.61.91c0,.85.88,1.18,1.6,1.11Z"/><path class="cls-13" d="M882.77,193.47c-.47-2.16-3.54-1.69-5-1.15a26.3,26.3,0,0,0-4.89,2.45,9.24,9.24,0,0,0-3.48,3.4c-.75,1.47-.65,3.25-1.48,4.67-.4.68.34.95.92,1a2.88,2.88,0,0,0,2.29-.93,15.21,15.21,0,0,0,1.21-3.86,5.26,5.26,0,0,1,1.94-2.78,18,18,0,0,1,3.09-1.8l1-.47a2.15,2.15,0,0,1,.66-.27.41.41,0,0,1-.22,0c-.18,0-.18,0,0,0l.13.08a.81.81,0,0,1,.34.56c.24,1.14,3.72.27,3.46-.92Z"/><path class="cls-13" d="M908.88,197l.36.78c0,.12.11.23.16.35s0,.25.15,0l.91-.74-.12.06.92-.25h-.13l.83.06c-1.81-.3-3-1.8-4.28-3.06a3.07,3.07,0,0,0-3.87-.23,1.7,1.7,0,0,0-.85,1.67,3.49,3.49,0,0,0,.23.69s0,.16.06.18,0,0,0,.05c0,.25.08.12.36-.4l1.31-.45c.56-.11.7.2.37-.08-.14-.12-.26-.27-.39-.4l-.9-.95-1.72-1.83a2.14,2.14,0,0,0-2.32-.13c-.46.22-1.46.94-.88,1.55l1.93,2a7.61,7.61,0,0,0,1.89,1.74,3,3,0,0,0,3.63-.9,1.64,1.64,0,0,0,.18-1.17,2.35,2.35,0,0,0-.14-.4c-.05-.11-.08-.21-.12-.32,0-.44-.26-.28-.65.49l-.92.25c-.44.08-.59-.23-.4,0s.3.32.44.48c.31.33.62.66,1,1a10.11,10.11,0,0,0,2.29,1.65,4.18,4.18,0,0,0,3.73.33c.65-.31,1.27-.89,1.05-1.67a9.62,9.62,0,0,0-.61-1.35c-.33-.72-1.33-.74-2-.54-.45.14-1.79.74-1.46,1.47Z"/><path d="M228.19,309.32s26.14-14.15,35.72,6.84S228.19,309.32,228.19,309.32Z"/><path class="cls-12" d="M311,854.3s11.69,7.35-4.12,65.48c-3.88,14.3-12.69,36-12.69,36l150.72,8.7s51.36-128.12,28.89-166.58c-13.46-23-42.27-37.66-42.27-37.66Z"/></g></svg>