<svg xmlns="http://www.w3.org/2000/svg" viewBox="0 0 637.33 635.77"><defs><style>.cls-1{fill:#c1e7f6;}.cls-2{fill:#a86e57;}.cls-3{fill:#42221a;}.cls-4{fill:#14110f;}.cls-5{fill:none;stroke:#000;stroke-miterlimit:10;stroke-width:1.22px;}.cls-6{fill:#0c0906;}.cls-7{fill:#fff;}.cls-8{fill:#643b29;}.cls-9{fill:#de8b26;}.cls-10{fill:#a15a25;}.cls-11{fill:#5e9fae;}.cls-12{fill:#231f20;}.cls-13{fill:#465b65;}.cls-14{fill:#221e1f;}.cls-15{fill:#151212;}.cls-16{fill:#171413;}.cls-17{fill:#171514;}.cls-18{fill:#181615;}.cls-19{fill:#020303;}.cls-20{fill:#f0edf6;}.cls-21{fill:#385456;}</style></defs><g id="Layer_1" data-name="Layer 1"><circle class="cls-1" cx="319.06" cy="340.56" r="288.85"/><path class="cls-2" d="M235.69,448.65l-56.23,13.49L194.6,569.65l5.78,34.26a260.83,260.83,0,0,0,51.48,17.48c.5-17.7-10.19-57-10.61-72.2C239.78,496.63,235.69,448.65,235.69,448.65Z"/><path class="cls-2" d="M58.07,241.34s.48,46.82-7.32,62.38c-1.9,3.78-10.22,16.19-10.22,16.19l53.83,39.87L192,345.37s-51.9-27.41-52.77-32.31,3.51-37.65,3.51-37.65"/><path class="cls-3" d="M159.07,272.83c-3.08,4.44-5.93,9.05-9.2,13.35a.93.93,0,0,0-.1.2.58.58,0,0,0-.87.09c-2.3,2.89-6.65,4.37-8.68,7.46-1.76,2.67-.75,6.31-1,9.57-2.34.32-5.59.09-8.54.22-19.91-.7-19.39-3.87-46.45-19.9-8.49-5-6.53-11.63-8.12-12.87C103.44,270.73,130.52,272.31,159.07,272.83Z"/><path class="cls-4" d="M38.06,204.84s-3.62-12.31-7.69-41.62c-3.65-26.25,38-47.09,62.9-50.5,13.7-1.87,59.28,4.78,71,10.58s17.57,21.93,18.52,44.89c0,0-6.78-22.92-21.33-22.67-11.86.21-50-6.44-60-2.37s-32.33,12.62-34,48.57c-.45,9.8-17.66-.87-22.56,4.94S38.06,204.84,38.06,204.84Z"/><path class="cls-2" d="M57,247.27l-3.22-35.43-.93-39.59L69,142.56l28.43-13.08,32,1.69s25.46,6.87,33.5,9.18,13.51,12.3,18.76,23.45,2.51,29.43,2.51,29.43c.21.64-.55,3.42-.69,4-1.75,7.34-2.39,13.76-3.82,19.23a13.54,13.54,0,0,0,0,7.47c2.89,9.66,2.75,13.77,1.85,19.63-1.23,8-2.85,14.78-5.94,21-3.27,6.62-7.36,13.76-8.19,15.15,0,0-9.12,14.8-11.06,16.22a16.18,16.18,0,0,1-6.16,2.85c-1.34.12-19,.86-19,.86l-8.17-.37a21.07,21.07,0,0,1-8-2c-6.8-3.22-26.22-12.83-31.51-16.72-7.11-5.23-15.24-26.5-15.24-26.5"/><path class="cls-4" d="M65.51,213.31c.08,3.06-.31,15.2-.05,18.19l-15.8-.73c-4.47-10.6-9.86-23.08-11.6-25.93-2.71-4.47-2.58-25.76-2.54-33.77v-1.73c0-7.69,7.69-19.69,20.52-32.11,14.11-13.66,38.7-21,62.63-18.64,2.28.22,4.55.53,6.74.91,20.75,3.63,37.77,14.49,50.59,32.28,9.25,12.83,9.5,27.19,8.46,35.93a77.63,77.63,0,0,0-6.09-30.14c-5.43-11.9-12.65-15.47-17.75-16.36a17.15,17.15,0,0,0-8.5.58c-5.09,1-12.49.1-17.81-.83-4-.69-7.11-1.47-8-1.68-2.64-1.94-6.63-3.42-11.55-4.28-11.45-2-28.14-.43-31.71,4.54-4,5.5-13.07,25.24-13.26,29.9"/><path class="cls-2" d="M58.47,248.1c-9.57,9.12-15-9.19-15-9.19-8.48-11.08-8-22.49-7.37-30.29s9.23-7.32,9.23-7.32c7.26,1.09,10.36,5.14,15.45,30"/><path class="cls-4" d="M176.27,148.93c-5-8.74-15-19.83-20.55-28.21-2.8-.37-16.66-1.18-19.57-1.41C106.5,117,66,132.66,61.8,143.33c-2.62,6.65-2.35,43.4-1.18,46.78,3.21,9.29,4.18,21.33,4.18,21.33,1.72-13.72,12.12-28.7,13.53-33.38s-4.08-27.29-2.53-28.18,29-8.2,59.24-6.63a224.24,224.24,0,0,1,25.76,2.92C160.75,146.08,176.32,149,176.27,148.93Z"/><path class="cls-4" d="M112.77,204.11a4.74,4.74,0,0,0-5.16.69,4.52,4.52,0,0,0-1.48,2.08,4.72,4.72,0,0,0,.92,4.35,4.4,4.4,0,0,0,5,1.12,4.87,4.87,0,0,0,2.65-5.54,4.29,4.29,0,0,0-1.92-2.7"/><path class="cls-4" d="M166.88,207.3a4.78,4.78,0,0,1,5.08,1.16,4.63,4.63,0,0,1,1.28,2.21,4.71,4.71,0,0,1-1.32,4.25,4.39,4.39,0,0,1-5.08.65,4.84,4.84,0,0,1-2.12-5.75,4.28,4.28,0,0,1,2.16-2.52"/><path class="cls-4" d="M153.38,213.69s7.64-7,13-7.2c7.83-.36,9.75,1.49,12.34,5.19,0,0-4.93-4-10.44-3.57C163,208.49,153.38,213.69,153.38,213.69Z"/><path class="cls-4" d="M128.88,210.2s-10.74-7.23-16.1-7.52c-7.83-.43-17.3,3.91-19.93,7.59,0,0,12.51-6.44,18-6C116.12,204.72,128.88,210.2,128.88,210.2Z"/><path class="cls-4" d="M126.59,177.86q.75,2.69,1.51,5.39c.38,1.37,1.35,4.47,1.73,5.84-4.7.09-9.13-.52-12.1-.22-5.89.61-12,.85-17.45,3.33a19.87,19.87,0,0,0-6.66,4.57c-.59.64-2,3.08-3.19,2.9-.5-.08-.4-2.49-.39-2.74.21-4.87,3.51-7.8,7.89-10.19,8.94-4.86,18.61-7.35,28.66-8.88"/><path class="cls-4" d="M184.08,194.36l-2.51-2c-7-5.55-15-8.86-23.5-11.27-.76,1.7-.79,3.33-1.55,5.05-.58,1.3-.82,3.69-1.39,5,4.1.51,6.2.6,8.74,1.17,5,1.13,10.37,2.26,14.68,5.17.34.23,3.93,2.24,4.25,2.48A5.38,5.38,0,0,0,184.08,194.36Z"/><path d="M147.73,244.09a8.66,8.66,0,0,1-8.06-.9c-.5-.34-2.22-.11-1.52.38a12.23,12.23,0,0,0,11,1c.3-.15.26-.38-.1-.52a1.93,1.93,0,0,0-1.3,0"/><path d="M137.18,242.85a14,14,0,0,0-4.93-1.5,1.1,1.1,0,0,0-.77.21c-.15.13-.19.3,0,.42a5.26,5.26,0,0,0,2.71.77,1,1,0,0,0,.86-.3c.16-.23-.11-.39-.34-.4a4.14,4.14,0,0,1-2.18-.63l-.79.63a12.73,12.73,0,0,1,4.41,1.36,1,1,0,0,0,.91-.06c.19-.1.4-.35.13-.5"/><path d="M130.33,242.75c-2-.14-4.34-1.15-5.25-2.74-1.39-2.42.17-6,2.76-7.42.28-.15.14-.37-.13-.44a1.58,1.58,0,0,0-1.09.18A7.19,7.19,0,0,0,123,238.7c.21,2.07,2.07,3.59,4.45,4.3a10.37,10.37,0,0,0,2.22.42c.31,0,.86,0,1-.28s-.11-.37-.4-.39"/><path d="M151.47,243.22a.27.27,0,0,1,.27-.38,2.34,2.34,0,0,0,1.59-.45l.5.69a6.94,6.94,0,0,0-3.21,1A.56.56,0,0,1,150,244c-.12-.11-.25-.38,0-.51"/><path d="M149.93,243.44a7.63,7.63,0,0,1,3.59-1.1.64.64,0,0,1,.53.27.3.3,0,0,1,0,.42"/><path d="M155.64,243.69a4.12,4.12,0,0,0,3.61-2.34,6.15,6.15,0,0,0-1.26-6.69.25.25,0,0,1,.12-.43.76.76,0,0,1,.69.26,6.86,6.86,0,0,1,1.87,5.72,4.75,4.75,0,0,1-3.21,3.94,4.68,4.68,0,0,1-1.47.25.71.71,0,0,1-.64-.36c-.08-.25.1-.35.29-.35"/><path class="cls-5" d="M53.23,224.65c-6.62-15.89-11.39-16-11.39-16s-3.25,3.65-1.71,11"/><path class="cls-5" d="M50.75,226.08c-4.28-.46-1,7.57-2.25,9.45s-2.73-3.15-3.21-9.19c0,0,.05-8.16,4.12-9.62"/><path class="cls-6" d="M145.22,255c-7-.29-22.75,3.35-26,5.94,0,0,7.81,9.87,24.13,10.54s19.25-8.77,19.25-8.77S154.18,255.33,145.22,255Z"/><path class="cls-7" d="M126,258.16s8.41-.33,15.09-.05,15,1.28,15,1.28,1.28-4.92-10.83-5.42S126,258.16,126,258.16Z"/><path class="cls-8" d="M143.47,269.24c-7.6-1.39-15.3-8.53-24.23-8.34,0,0,2.09,14.27,21.27,15.06s22.11-13.29,22.11-13.29C153.73,261.76,151.16,268.47,143.47,269.24Z"/><path class="cls-8" d="M153.72,251.51c-4-.46-6.64,1-8.39.89s-4.25-1.7-8.29-1.57c-3.79.12-20.13,8.66-18.39,9.92s14.39-5,26.52-4.48,16.21,7.42,18,6.3S157.48,251.94,153.72,251.51Z"/><path class="cls-9" d="M221,350.13c-13.63-9.29-82.08-37.29-82.08-37.29s15.52,41.39-39,32.75c-17.34-2.75-41.13-20.36-49.11-42.69a109.42,109.42,0,0,1-18.86,4.9,323.1,323.1,0,0,0,3.77,92c19.8,94.87,86.12,172.64,174,208.38a68.54,68.54,0,0,0-1.39-8.1A269.25,269.25,0,0,0,195.09,564l.49-88.06,63.16-10.42S234.6,359.42,221,350.13Z"/><path class="cls-10" d="M198.39,475.66l.5-8.87,1.21-21.44,1.46-25.83,1.26-22.35.42-7.44c.07-1.14.24-2.34.2-3.49,0-.05,0-.1,0-.15.09-1.58-2.87-1.23-2.95.18l-.5,8.87-1.21,21.44-1.46,25.83-1.26,22.35-.42,7.44c-.06,1.14-.23,2.34-.2,3.49a.38.38,0,0,1,0,.15c-.08,1.58,2.87,1.23,2.95-.18Z"/><path class="cls-11" d="M553.2,234s78.63,29,78.49,81.38c0,15.91-9.51,126.74-46.17,219.9-5.32,13.51-12.07,39.82-37.81,51.48-17.13,7.77-79,.53-114.13-4.14Z"/><path class="cls-11" d="M576.91,348.71A287.91,287.91,0,0,0,553.2,234c-12.79-4-25.48-8-26.1-8.05l-1.92-.33c-.15.2-1.56.35-5.79.33-30.91,11.09-43.29,11.56-75,2.88-4.6.71-8.07,3.4-11.86,5.74-4.17,2.58-9.07,4.32-13.51,6.4-9.58,4.48-25.72,6.1-35.16,10.86-12.74,6.43-20.8,13.49-30.93,23.55-7,6.91-15.24,15.59-12.84,27.58s5.68,12.84,13.08,22.11L354.76,412s4.46,142.48,3.27,214.13C529.23,598.81,576.91,484.54,576.91,348.71Z"/><path class="cls-11" d="M241,398.16s-28.2,9.13-37,23.75-5.12,36.95,1.88,48.54,21.06,21.13,35,20.28-.4-80.49-.4-80.49Z"/><path class="cls-2" d="M225.13,587.29l4.7,9.19s31.62,14.86,40.64,12.31,20.34-39.06,20.34-39.06L352.33,577,363,507.29,278.62,518a38.47,38.47,0,0,0-24.86,13.7L241.06,543l-12.13,10.78a30.72,30.72,0,0,0-3.8,33.5Z"/><polygon class="cls-12" points="299.98 513.32 307.41 573.13 317.03 572.21 313.04 510.75 299.98 513.32"/><path class="cls-12" d="M293.69,540.41a16.77,16.77,0,1,1,0,.05Z"/><path class="cls-7" d="M304.34,521.4l.05,0a12.48,12.48,0,1,1-.05,0Z"/><path class="cls-13" d="M311.37,550.73a19,19,0,0,0,9-3.65,11.36,11.36,0,0,1-9,4.74,11.51,11.51,0,0,1-9.57-3.35A19.68,19.68,0,0,0,311.37,550.73Z"/><path class="cls-12" d="M310.34,532.75h0l-1.28,1.7a23,23,0,0,1-1.83-10c.4-.46,2.4,3.64,4.24,9.2l.74,1.61h-1.83c-5.78,0-10.43-.49-10.43-1.22S304.61,532.65,310.34,532.75Z"/><path class="cls-11" d="M413.21,352.93c-45.16,51.2-65.42,80.36-122,115.94-8.83,6.22-28.79,27.12-39.5,28.3-18.59,1-24.48,4.74-38.94-10-12.77-13-14.15-33.93-9.58-41.71C248.7,367.93,303,343.91,347.86,281.53"/><path class="cls-2" d="M302.88,498a19.29,19.29,0,0,0,7.42,4.83,2.77,2.77,0,0,0,1.23.22,2.46,2.46,0,0,0,1-.42c3.59-2.39,2.08-6.58.94-9.92-2.17-6.34-6.47-12-10-17.63q-5.08-8-10.32-16-6.31-9.61-12.75-19.15a.1.1,0,0,1,0-.05,36.12,36.12,0,0,0-7.61-8.87c-2.2-1.64-13.2-6.78-23.16-11.28-1.33-.6-2.69-1.16-4.06-1.67-4.69-.56-9.34-1.36-14,.22-4.41,1.51-7.94,4.5-11.18,7.75-5.58,5.62-11.18,11.9-14.3,19.28a19.45,19.45,0,0,0-1.71,9.48l1.77.65a100.12,100.12,0,0,1,4.67,10c1.83,4.75,25.3,21.8,25.3,21.8s7.45,3.5,12,3.32,7.26-5.32,7.26-5.32,5.14,1.09,8.15.08,6.75-5.47,6.75-5.47,2.13,2.88,7.7.68a7.54,7.54,0,0,0,5.24-7.1c2.41,2.67,4.75,5.41,7.06,8.16q3.19,3.81,6.25,7.73c1,1.26,2.06,2.51,3,3.8s1.49,2.58,2.46,3.76Q302.37,497.46,302.88,498Z"/><polygon class="cls-11" points="339.13 508.2 325.2 575.96 359.97 580.88 370.69 503.93 339.13 508.2"/><path class="cls-2" d="M437.57,253a37.65,37.65,0,0,0,9.73,8.52,38.63,38.63,0,0,0,15.2,4.45l5.95.36a50,50,0,0,0,12.63-.83l10.3-2a51.18,51.18,0,0,0,5.6-1.9c14.84-6.1,27.94-16.67,32.15-31.22-10.36-18.63-8.07-65.76-8.07-65.76l-90.8,29.58s-.46,38.4,4.85,38.53c5.66.14-.77,11-1.18,11.44C434.42,248.1,435,250,437.57,253Z"/><path class="cls-2" d="M461.89,227.72l-30.15.87-15.26-2.4c-1.52.13-9.18-14.85-10.35-16.74-3.63-5.85-8.37-13.52-10.8-20-2.6-6.93-7.47-12.75-9.11-21.18-1.2-6.18-1.51-10.54,1.15-20.91a14.35,14.35,0,0,0-.29-7.94c-1.75-5.74-2.69-12.54-4.85-20.25-.17-.6-1.09-3.52-.89-4.21,0,0-3.58-32.52,1.53-44.57s13.54-18,22-20.78,33.85-3,33.85-3l34.07-11.32L504.06,52l17.53,35.1.66,42.06-2,37.75"/><path class="cls-4" d="M513.75,127.66c0,3.26-2.94,19.68-3.09,22.86l16.73-1.43c4.32-11.44,9.52-24.91,11.24-28,2.7-4.85-2.73-27.93-3.11-36.43l-.08-1.84c-.35-8.15-9-20.58-23.12-33.23-26.26-23.51-24.69-21.95-62.86-16.71-2.4.33-4.8.75-7.11,1.25-21.87,4.72-44.14,8.05-57,27.46-9.28,14-5.34,4.35-3.87,13.58-.6-18.36,3.34-13.08,5.1-15.36,10.26-13.33,16.62-.24,22-1.4a18.39,18.39,0,0,1,9.05.26c5.45.85,10.57-.18,16.18-1.39,4.18-.9,14.7-4,15.6-4.28,2.71-2.16-.48-13,4.71-14.15,12.07-2.6,29.25-3.49,35.12,4,4.73,6,24.24,8.69,23.15,27.47"/><path class="cls-4" d="M421.12,222.94a1.66,1.66,0,0,0,.56-.25c3-2.34,3.21-3.55,4.75-4a8.75,8.75,0,0,1,1.64-.49c4.47-.94,7.18-1.6,19.8,5.23.25.14,15.95-3,16.26-3L472,216c1.31-.94,30.17-28.83,30.17-28.83.4-.9,5.51-7.41,5.68-8.25a2.54,2.54,0,0,1,.28-.16l.19-.09a1.42,1.42,0,0,1,0,.16,5.55,5.55,0,0,1,.11,1.07,18.31,18.31,0,0,1-.54,4.6c-.55,2.32-.8,4.66-1.27,7-.16.82-.37,1.63-.6,2.43-3.34,2.41-23.63,31.91-35.86,39.05A56.07,56.07,0,0,1,460,235.18c-12.9,2-25.42,2.83-38.44,0a11.51,11.51,0,0,1-7.8-5.93c-4.42-8.56-15.48-26.76-18.46-39.78,4.06,7.39,13.93,22.4,19.83,33.17.18.33,5.12.26,5.54.36"/><path class="cls-2" d="M518.51,172.34C532,183.76,534.11,162,534.11,162c8.54-12.11,7.57-24.21,6.56-32.45s-10.1-7.4-10.1-7.4c-7.66,1.46-10.78,5.89-15.16,32.48"/><path class="cls-4" d="M538.63,121.08s6.57-27.76-1.3-54.78S499.26,28.36,484.63,27s-65.94,7.57-78.12,14.21-29.94,11.1-25.82,43.45c0,0-3.22-31.1,32.26-34,12.56-1,45-11.83,62-14,7-.89,31.61,15.09,34.91,18.88,7.57,8.68-7.25,30.65,6.67,59,4.6,9.35,9.11-7.83,14.56-1.86S538.63,121.08,538.63,121.08Z"/><path class="cls-14" d="M522.6,149.47a56.28,56.28,0,0,1,6.53-13.3,12.8,12.8,0,0,1,4-3.92l.3-.12c-.24.09,0,0,.08,0s0,0,0,0l-.53-.17a8.35,8.35,0,0,1,1.6,2.79,17,17,0,0,1,.64,8.78c-.1.62,1.23.44,1.32-.12a16.62,16.62,0,0,0-1.23-10.29c-.39-.77-.92-2.06-1.95-1.85a5.36,5.36,0,0,0-2.12,1.12,18.26,18.26,0,0,0-3.94,4.55,61.51,61.51,0,0,0-5.94,12.44c-.26.68,1,.64,1.24.12Z"/><path class="cls-14" d="M524.65,151.32c2.66-.32,2,4,1.93,5.57-.08,1.19-.65,5,1.47,4.93,1.08,0,1.58-1.23,1.88-2.1a25.75,25.75,0,0,0,1.12-5.85,20,20,0,0,0-.27-6.59c-.59-2.72-1.76-6-4.65-7-.56-.19-1.53.62-.75.89,2.41.82,3.41,3.67,4,5.92a16.78,16.78,0,0,1,.53,5.22,36.83,36.83,0,0,1-.85,6.11,9.63,9.63,0,0,1-.63,1.9c-.06.12-.34.45-.35.57l0,0q-.16.13.3,0c0-.08-.17-.13-.19-.22-.55-2-.14-4-.14-6.08s-.55-4.53-3.23-4.2c-.72.09-1,1.07-.11,1Z"/><path class="cls-4" d="M453.64,129.08a5,5,0,0,1,5.51.51,4.94,4.94,0,0,1,1.66,2.15,5,5,0,0,1-.8,4.66,4.67,4.67,0,0,1-5.26,1.39,5.18,5.18,0,0,1-3-5.76,4.6,4.6,0,0,1,1.93-2.95"/><path class="cls-4" d="M398.25,134.21a5.07,5.07,0,0,0-5.35,1.45,4.91,4.91,0,0,0-1.26,2.4,5,5,0,0,0,1.57,4.45,4.66,4.66,0,0,0,5.42.48,5.15,5.15,0,0,0,2-6.19,4.61,4.61,0,0,0-2.4-2.59"/><path class="cls-4" d="M414.86,140.12s-8.4-7.07-14.11-7.1c-8.33-.06-10.29,2-12.89,6,0,0,5.07-4.42,10.94-4.23C404.4,135,414.86,140.12,414.86,140.12Z"/><path class="cls-4" d="M441.52,135.81s11-8.3,16.63-8.94c8.28-.92,18.58,3.12,21.59,6.87,0,0-13.64-6.09-19.46-5.28C454.73,129.24,441.52,135.81,441.52,135.81Z"/><path class="cls-4" d="M438.2,110.31c.18,2,.37,3.94.55,5.93.15,1.5.36,5,.51,6.45,4.63-1.7,8.73-4,11.75-4.81,6-1.63,12.07-3.72,18.31-3.32a20.7,20.7,0,0,1,8.24,2c.81.41,3.1,2.3,4.21,1.66.45-.26-.55-2.62-.65-2.86-2-4.75-6.38-6.41-11.56-7.12-10.57-1.43-21-.23-31.36,2.06"/><path class="cls-4" d="M381.67,117.13,385,116c9.33-3.14,18.94-3.65,28.73-3.09.16,2,.31,4,.47,5.93.11,1.51.42,4.22.53,5.73-4.47-.92-8.36-2.13-11.23-2.44-5.68-.63-11.67-1.37-17.25,0-.44.11-2.83.75-3.25.88C381,120.49,380.91,117.62,381.67,117.13Z"/><path class="cls-4" d="M444,202l-22.44,1.66s5.75,5.63,11.16,5.17C436.07,208.54,440.65,205.68,444,202Z"/><path d="M424,172a9.21,9.21,0,0,0,8.52-1.29c.51-.39,2.35-.21,1.63.33-3.05,2.32-8.35,3-11.62,1.56-.33-.14-.29-.39.08-.55A2,2,0,0,1,424,172"/><path d="M435.18,170.24a15,15,0,0,1,5.17-1.8,1.2,1.2,0,0,1,.83.19c.17.13.22.32,0,.45a5.71,5.71,0,0,1-2.85.93,1.08,1.08,0,0,1-.92-.28c-.19-.24.1-.43.34-.45a4.46,4.46,0,0,0,2.29-.75l.86.64a13.28,13.28,0,0,0-4.61,1.62,1.12,1.12,0,0,1-1,0c-.2-.1-.44-.36-.16-.53"/><path d="M442.45,169.85c2.13-.23,4.56-1.4,5.46-3.13,1.38-2.62-.43-6.34-3.23-7.7-.3-.15-.17-.38.12-.47a1.7,1.7,0,0,1,1.16.14,7.59,7.59,0,0,1,4.07,6.56c-.15,2.2-2.06,3.9-4.56,4.75a11.36,11.36,0,0,1-2.34.53c-.32,0-.91,0-1.09-.26s.1-.38.41-.42"/><path d="M420,171.22a.28.28,0,0,0-.3-.39,2.48,2.48,0,0,1-1.71-.41l-.5.75a7.36,7.36,0,0,1,3.45.94.59.59,0,0,0,.67-.17c.13-.13.25-.42,0-.54"/><path d="M421.68,171.4a8.35,8.35,0,0,0-3.86-1,.7.7,0,0,0-.55.31.31.31,0,0,0,.05.45"/><path d="M415.62,171.9a4.41,4.41,0,0,1-3.93-2.33,6.57,6.57,0,0,1,1.06-7.16.26.26,0,0,0-.14-.45.8.8,0,0,0-.72.3,7.28,7.28,0,0,0-1.75,6.15,5,5,0,0,0,3.57,4.05,5,5,0,0,0,1.57.21c.21,0,.58-.14.66-.41s-.12-.37-.32-.36"/><path class="cls-4" d="M460.54,180.24c1.35,1,2.8,2.2,3,3.87a6.32,6.32,0,0,1-.08,1.84l-.38,2.82a1,1,0,0,1-.17.53,1,1,0,0,1-.53.3,4.44,4.44,0,0,1-1.93.35,1.53,1.53,0,0,1-1.39-1.19,2.35,2.35,0,0,0-.11-.8c-.25-.46-.92-.35-1.44-.44-1.3-.23-1.69-1.86-2.34-3a6.8,6.8,0,0,0-4.33-2.93,12.94,12.94,0,0,1-2.6-.76,2.57,2.57,0,0,1-1.56-2.06"/><path class="cls-4" d="M404,184c-1.17,1.22-2.41,2.63-2.39,4.32a6.13,6.13,0,0,0,.36,1.79l.82,2.73a1.14,1.14,0,0,0,.26.5,1,1,0,0,0,.57.21,4.48,4.48,0,0,0,2,0,1.55,1.55,0,0,0,1.19-1.39,2.22,2.22,0,0,1,0-.81c.17-.49.85-.49,1.35-.67,1.25-.43,1.37-2.1,1.83-3.34a6.84,6.84,0,0,1,3.81-3.58,12.78,12.78,0,0,0,2.45-1.16,2.57,2.57,0,0,0,1.22-2.28"/><path class="cls-4" d="M406.6,56.35a7.79,7.79,0,0,1,3.59-1.5l1.4-.55q6.36-.49,12.73-.61a9,9,0,0,1,3.13.31,1.88,1.88,0,0,1,.3.12c3.13-.32,6.27-.61,9.41-.82l1.46.29a8.75,8.75,0,0,1,3.76.82,1.23,1.23,0,0,1-.14,2.31c-1.26.49-3.21-.06-4.05.73s1,1.93.51,2.92c-.33.62-1.45.89-2.16,1.37s-1.09,1.41-1.87,2a4.39,4.39,0,0,1-3.3.66c-1.19.18-2.81-.2-3.13.64a1.51,1.51,0,0,0,0,.7A2.36,2.36,0,0,1,426.6,68a3.9,3.9,0,0,1-3.38-.25c-.87-.57-1.24-1.5-2.16-2a6.56,6.56,0,0,0-1-.4,3.11,3.11,0,0,1-1.06.72,3.87,3.87,0,0,1-3.38-.25c-.87-.57-1.24-1.5-2.16-2s-1.93-.58-2.34-1.24c-.66-1.05,1.1-2.56.05-3.41s-2.79.16-4.11-.21A1.5,1.5,0,0,1,406.6,56.35Z"/><path class="cls-4" d="M445.9,225.37a6.3,6.3,0,0,1-3,1l-1.17.36q-5.16,0-10.31-.34a7.36,7.36,0,0,1-2.51-.45,1.27,1.27,0,0,1-.23-.12c-2.55.06-5.1.09-7.65.05l-1.16-.33a7.06,7.06,0,0,1-3-.9,1,1,0,0,1,.27-1.86c1-.31,2.58.26,3.31-.32s-.7-1.63-.22-2.39c.3-.48,1.23-.63,1.83-1s1-1.07,1.64-1.5a3.53,3.53,0,0,1,2.71-.32c1-.06,2.25.34,2.57-.31a1.18,1.18,0,0,0,0-.56,1.93,1.93,0,0,1,1.49-1.75,3.17,3.17,0,0,1,2.71.42c.66.52.89,1.29,1.61,1.77a5.29,5.29,0,0,0,.75.39,2.45,2.45,0,0,1,.91-.51,3.13,3.13,0,0,1,2.71.42c.66.51.9,1.29,1.61,1.77s1.52.58,1.81,1.14c.46.89-1.06,2-.27,2.75s2.27.06,3.31.44A1.21,1.21,0,0,1,445.9,225.37Z"/><path class="cls-15" d="M537.1,122.9a8.07,8.07,0,0,0,3.7-1,2.74,2.74,0,0,0,1.18-3.33c-.93-1.82-4.36-2-4.25-4,1.58-2.07,5.61-1.49,6.44-4,.67-2-1.52-3.7-3.38-4.68,1.2-1.27.88-.16,2.56-.67s2.42-4.67,1.38-6.09c-1.17-1.6-1.7-.23-1.16-2.14,1.33-.49-1.7-1.49-.72-2.52a3.2,3.2,0,0,0,.61-3.88c-1-1.39-3.45-1.78-3.5-3.48-.05-1.46,1.78-2.16,2.58-3.37,1.47-2.21-.79-5-2.85-6.62a9.78,9.78,0,0,0,2.94-2.93,3.36,3.36,0,0,0-.26-3.9A14.5,14.5,0,0,0,540.21,69c-2.86-2-1.42-6.52.28-9.6A5,5,0,0,1,535,55.53c-.23-1.14,0-2.36-.53-3.42s-2.07-1.72-2.76-.79"/><path class="cls-4" d="M537,124.12c2.76-.29,7.24-1.45,6.79-5.15a3.8,3.8,0,0,0-2.12-2.73c-.51-.29-1.06-.54-1.55-.86-.2-.13-.39-.34-.59-.46s.07-.48-.28,0c.57-.71,2-.9,2.84-1.18a6.3,6.3,0,0,0,3.08-1.91c2.15-2.81-.78-5.52-3.16-6.8l.13,1.45c.59-.59-1.38-.13-.55.12a3.42,3.42,0,0,0,.77.06,4.58,4.58,0,0,0,2.08-.55,4.86,4.86,0,0,0,2.14-3.2,6.34,6.34,0,0,0,0-3.76,3.62,3.62,0,0,0-1.23-1.56,1.75,1.75,0,0,0-.64-.35c-.35-.16-.24,0,.33.56a3.21,3.21,0,0,1,.11-.52l-.8.78c.9-.41,1.6-1.32,1-2.27a2.59,2.59,0,0,0-.75-.76,1.32,1.32,0,0,1-.24-.29c-.1,0-.13,0-.08.32a2.25,2.25,0,0,0,.34-.41,4.44,4.44,0,0,0,.82-3.78,5.16,5.16,0,0,0-2.52-2.61c-.88-.56-1.72-1.14-.79-2.1s1.87-1.52,2.34-2.74c1.09-2.82-1.51-5.53-3.48-7.16l-.14,1.72c1.57-1.18,3.22-2.52,3.78-4.48a3.94,3.94,0,0,0-1.84-4.7,4.76,4.76,0,0,1-2.08-1.62,4,4,0,0,1-.4-2.35A13.08,13.08,0,0,1,542,59.6c.48-.9-.68-1.51-1.4-1.43a3.62,3.62,0,0,1-3.23-1.42c-1-1.28-.75-2.74-1.06-4.24a3.45,3.45,0,0,0-5.92-1.7,1,1,0,0,0,.43,1.62,2.09,2.09,0,0,0,2.23-.6c-.68.08-.88.18-.61.3a.83.83,0,0,1,.18.13c.09.21.34.42.44.67a8.24,8.24,0,0,1,.26,2.16,5.81,5.81,0,0,0,1.17,3.09,6.61,6.61,0,0,0,5.87,2.42L539,59.17c-1.44,2.67-3,6.52-1.24,9.4a4.88,4.88,0,0,0,1.58,1.55c.82.51,1.86.77,2.14,1.81.54,2-1.46,3.44-2.82,4.46a1,1,0,0,0-.15,1.71c1.19,1,2.72,2.41,2.91,4.05.17,1.49-1.37,2.14-2.2,3.13a2.8,2.8,0,0,0-.32,3.54c.79,1.09,2.27,1.38,3.06,2.41,1.14,1.5-.74,2.42-.87,3.77a1.77,1.77,0,0,0,.44,1.27c.11.14.75.92.88.91-.32,0,1.12-1.33.3-1a1.2,1.2,0,0,0-.44.37,2.53,2.53,0,0,0-.41,1.11,1.42,1.42,0,0,0,.28,1.37c.24.24.59.3.85.51a2,2,0,0,1,.64,1.47c0,.6-.08,2.94-.78,3.2-.29.12-1.05-.11-1.42,0a4,4,0,0,0-1.94,1.27,1,1,0,0,0,.12,1.45c1.32.71,4.84,3.25,2.11,4.45-1.76.77-4,1-5.21,2.64-1.39,1.85,1.2,3.3,2.51,4,.77.43,1.8,1,1.57,2-.32,1.47-2.14,1.55-3.34,1.68-.71.07-1.65.5-1.72,1.31s.81,1.19,1.48,1.12Z"/><path class="cls-16" d="M533,56.91c-.43-1.53-2.22-8.83-2.65-10.36a3.49,3.49,0,0,1-4.67-2.69c-.1-1,.17-2.36-.71-2.92s-2,.28-3.12.28c-2.38,0-2.91-3.84-5.18-4.55-1.42-.45-3,.53-4.43.14-2.18-.59-2.69-3.79-4.8-4.58-1.47-.55-3.13.28-4.65,0-3.31-.73-4.2-6.31-7.58-6.18-1.24.05-2.35.95-3.59.9-2.21-.09,1-2.56-1.25-2.76-2-.19-3.52,2-5.54,2.35-3.27.52-6.21-4.06-9.22-2.65-1.29.6-1.93,2.14-3.19,2.8-3,1.53-6.32-2.66-9.51-1.73-1.61.46-2.69,2.14-4.33,2.44-2.56.46-4.7-2.63-7.28-2.31-2.05.26-3.46,2.62-5.53,2.6-1.45,0-2.66-1.2-4.1-1.34-2.46-.23-4.15,2.56-6.54,3.19-2,.53-4-.55-6.08-.95s-6.25,3.75-6.22,5.83"/><path class="cls-4" d="M534.6,56.48c-.94-3.43-1.7-6.92-2.64-10.35-.19-.68-1.83-.18-2.15-.06-.73.28-2.15-1.3-2.39-2-.35-1,.12-2.31-.54-3.25s-2-.86-2.94-.67a5,5,0,0,1-1.49.31c-.42-.08-.84-.62-1.1-.93-1.2-1.45-1.92-3.35-4-3.65a6.92,6.92,0,0,0-2,.07,4.25,4.25,0,0,1-2,.13c-1-.35-1.58-1.47-2.13-2.27a6,6,0,0,0-1.95-2,6.31,6.31,0,0,0-3.77-.35,3.21,3.21,0,0,1-2.87-.75,13.07,13.07,0,0,1-1.87-2.25c-1.08-1.5-2.22-3-4.2-3.15a10.92,10.92,0,0,0-3.62.74c-.43.11-.37.26-.47-.06s.22-.67.27-.87c.59-2.09-2.2-1.79-3.5-1.43A11.54,11.54,0,0,0,486,25.26a2.46,2.46,0,0,1-1,.52,3.63,3.63,0,0,1-1.67-.55c-1.86-.91-3.52-2.41-5.71-2.4a6.66,6.66,0,0,0-3.2.85c-1.14.65-1.74,1.83-2.79,2.56-.28.19.37.08-.11,0a6,6,0,0,1-.86-.22,14.24,14.24,0,0,1-1.45-.6A15.09,15.09,0,0,0,466,24.17c-2.5-.51-4.59.54-6.55,2-.56.42-.59.52-1,.42a6.85,6.85,0,0,1-1.66-.74,11.61,11.61,0,0,0-3.05-1.42c-2.63-.6-4.68.83-6.75,2.18-.65.43-.77.26-1.57-.09a11.5,11.5,0,0,0-2-.82,6.48,6.48,0,0,0-4,.48A19.5,19.5,0,0,0,436,28.33a2.33,2.33,0,0,1-2,.49c-.94-.15-1.85-.5-2.77-.74a7.24,7.24,0,0,0-6.59,1.72c-1.46,1.19-3.28,3-3.35,5,0,.66,3.11.2,3.15-.85.06-1.71,2-3.53,3.35-4.39.13-.09.54-.24.62-.36.17-.27.25,1.18-.34.07.11.21,1.6.45,1.91.54a10.37,10.37,0,0,0,4.49.48A9.09,9.09,0,0,0,437.86,29c.47-.3.92-.63,1.37-1s1-.93,1.53-1c.65-.09,2.2,1,3.05,1.22a6,6,0,0,0,3.79-.37,17,17,0,0,0,2.89-1.76c.51-.34.48-.38,1.06-.22a9.11,9.11,0,0,1,1.81.86c2.05,1.17,4,1.84,6.3,1a12.23,12.23,0,0,0,2.9-1.78c.5-.36.54-.48,1-.36a13.27,13.27,0,0,1,1.62.52c2,.85,3.89,1.94,6.19,1.55a6.39,6.39,0,0,0,3.1-1.42A13.61,13.61,0,0,0,475.59,25a3.88,3.88,0,0,1,.73-.73c-.25.16-.32-.08.16.06,2,.57,3.61,2.21,5.68,2.72,2.43.6,4.57-.48,6.56-1.74a6.1,6.1,0,0,1,.54-.34c.29-.15.21-.24.3-.11s.06.29,0,.52c-.07.53-.54,1-.29,1.6s1.47.64,2.06.61a8.18,8.18,0,0,0,1.95-.42,3.83,3.83,0,0,1,1.5-.43c1.56.21,2.72,2.55,3.56,3.66A5.53,5.53,0,0,0,503.33,33c1.26-.06,2.53-.54,3.6.38a15.28,15.28,0,0,1,1.94,2.51,4.06,4.06,0,0,0,2.76,1.73c1.27.16,3-.69,4.15-.11,1.82.92,2.1,3.56,4.12,4.27a4,4,0,0,0,1.69.16c.55,0,1.58-.53,2-.32.86.41.4,2.76.76,3.56,1.15,2.54,4.29,2.73,6.58,1.85L528.81,47c.94,3.44,1.7,6.92,2.64,10.36.24.86,3.39,0,3.15-.85Z"/><path class="cls-17" d="M423.53,31.67a11.39,11.39,0,0,1-8.65-.56,4.71,4.71,0,0,1-5,4.89,21.09,21.09,0,0,0-3-.56c-3.58.11-5.71,6-9.09,4.77,1.54,1,.39,3.53-1.2,4.49s-3.65,1.54-4.36,3.25c-.25.6-.29,1.28-.59,1.86a5.16,5.16,0,0,1-1.76,1.68,20,20,0,0,0-6.34,7.69c-2.47,5.29-4.29,9.88-3.05,23.05-1.65-15.81,4.68-18.35,8.41-23,3.18-3.94,9.35-5.08,13.73-7.62s9.29-3.5,14.19-4.34c15-2.58,31-11.06,46.2-11.18,12.91-.09,23.71-1.05,35.95,3.08s17.36,8.14,23.82,19.33c0,0-15.49-25.3-31.69-27.4s-43.29,2-43.29,2Z"/><path class="cls-4" d="M423.24,30.57a9.88,9.88,0,0,1-7.45-.53c-.73-.35-2.56.16-2.51,1.19.08,1.65-1,3.73-2.88,3.61-1.18-.07-2.23-.64-3.44-.57a6.29,6.29,0,0,0-2.29.58,14.27,14.27,0,0,0-3.59,2.79c-.56.54-1.55,1.77-2.43,1.49s-3.57.84-2.12,2-1,2.83-1.87,3.26a8.31,8.31,0,0,0-3.77,2.94c-.43.75-.41,1.74-.91,2.43a11.33,11.33,0,0,1-2.15,1.73,21.56,21.56,0,0,0-4.07,4.41A31.41,31.41,0,0,0,378.67,70a64.92,64.92,0,0,0,.19,12.62l3.16-.85c-.48-4.71-.51-9.86,1.65-14.2C385,65,387.07,63.1,389,61A18.17,18.17,0,0,1,393.66,57c2.38-1.29,5-2.16,7.42-3.28,1.28-.59,2.48-1.32,3.75-1.94a29.63,29.63,0,0,1,4.92-1.82c3.08-.86,6.25-1.3,9.38-1.94,12.94-2.65,25.06-8.71,38.23-10.34a90.6,90.6,0,0,1,9.88-.43c3.32-.06,6.64-.14,10-.1a68.12,68.12,0,0,1,19.47,2.7c5.16,1.6,10.38,3.62,14.68,7s7.28,7.83,9.95,12.44l2.89-1.4a90,90,0,0,0-11.08-14.33A56.48,56.48,0,0,0,502,34a28.66,28.66,0,0,0-13.13-4.31c-10.64-.89-21.46,0-32,1.16-2.82.31-5.7.57-8.5,1.07-.22,0-.82.06,0,.07-.18,0-.36,0-.54,0l-3.34-.2-20.35-1.22a2.05,2.05,0,0,0-2.05,1,1,1,0,0,0,1,1.35l17.65,1.06c2.18.13,4.37.33,6.55.39a36.42,36.42,0,0,0,5.49-.67,206.44,206.44,0,0,1,29.91-1.89c4.78.1,9.54.36,13.93,2.41a43.26,43.26,0,0,1,11.59,8.57A87.52,87.52,0,0,1,521.3,59.21c.76,1.22,3.72,0,2.89-1.4A45.78,45.78,0,0,0,515,45.9,40.65,40.65,0,0,0,502.29,39a67.36,67.36,0,0,0-19.7-4c-6.88-.38-13.86-.23-20.74,0-13.87.51-26.69,6.77-40,10.07-6.6,1.65-13.53,2.1-19.61,5.43-4.89,2.68-11,3.88-14.73,8.3-2.18,2.58-4.78,4.72-6.46,7.69-2.78,4.88-2.75,10.79-2.21,16.21.15,1.46,3.3.68,3.16-.85-.58-6.25-.82-12.83,1.41-18.81a26.11,26.11,0,0,1,4.07-7.59,34,34,0,0,1,4.37-3.94,4.57,4.57,0,0,0,1.5-2.21,3.34,3.34,0,0,1,1.3-2.22c1.55-1,3.32-1.49,4.46-3.09s1.38-3.41-.18-4.66l-2.12,2a5.61,5.61,0,0,0,5.22-1.17c1.31-1,2.45-2.76,4-3.37,1-.39,2.2.3,3.23.42a6.44,6.44,0,0,0,3.43-.57A6.11,6.11,0,0,0,416.48,31L414,32.19a13.48,13.48,0,0,0,9.85.58c.62-.2,1.5-.74,1.29-1.52S423.85,30.37,423.24,30.57Z"/><path class="cls-3" d="M457.59,88.85s-33.21-2.11-55.34,4.21"/><path class="cls-15" d="M400.93,203.19A32.9,32.9,0,0,0,405.1,212c-1.16.43-.6,2.24.36,3s2.26,1.63,2.05,2.85c-.07.42-.34.79-.4,1.22-.21,1.33,1.46,2.09,2.78,2.37-.86.73-.05,2.13.86,2.79s2.08,1.5,1.83,2.59c-.13.54-.6,1-.56,1.55.07,1.15,2,1.07,2.63,2,.39.55.26,1.29.45,1.94a2.15,2.15,0,0,0,3.32,1c.36,2.33,1.49,5.31,3.83,5.09,1.46-.13,2.79-1.59,4.14-1.06.84.34,1.25,1.32,2,1.77,2.64,1.53,5.58-4,8.21-2.42,1.41.83,1.46,3.25,3,3.7s2.72-1.32,4.25-1.55,3.43,1.35,4.88.52c.64-.36,1-1.09,1.5-1.58,1.21-1.14,2.56.45,4.17.87,2.88.77,3.05-1.28,3.05-1.28.75-2,1.87-1.92,3.79-.94a4.73,4.73,0,0,0,2,.85c1.76,0,2.46-2.92,4.22-2.83a5.61,5.61,0,0,1,1.78.74c2.17.89,4.68-2.06,3.45-4.06a4.91,4.91,0,0,0,4.5-5.47,4.44,4.44,0,0,0,5.4-4.09c3,.69,5.9-2.91,4.65-5.67a3.51,3.51,0,0,0,4.38-3.41c-.08-1.12-.62-2.51.28-3.18.6-.44,1.43-.19,2.17-.23a2.81,2.81,0,0,0,2.21-3.94c2.92.6,5.44-3.55,3.56-5.86,2.3.41,4.23-2.84,2.77-4.66,3.12-.23,5.07-4.49,3.2-7l-34.63,38.61L462,230.9s-32.91,4.35-39.27,1.79S400.93,203.19,400.93,203.19Z"/><path class="cls-4" d="M399.36,203.61a34.44,34.44,0,0,0,4.16,8.85l.66-.65c-1,.53-1.58,1.27-1.15,2.45s1.68,1.7,2.46,2.68c1,1.21-.4,2.21.17,3.44.49,1.06,1.91,1.5,2.94,1.75l-.14-.52c-1.49,1.63.7,3,1.79,4A2,2,0,0,1,411,227c0,.54-.46,1-.56,1.47-.15.81.37,1.24,1,1.55s1.55.55,1.81,1.47.1,1.72.94,2.38c1.45,1.16,4,.58,5.37-.43l-2.79.35c.41,2.46,1.5,5.41,4.44,5.34a7.47,7.47,0,0,0,2.19-.43c.34-.12.68-.26,1-.41.16-.07.31-.16.48-.23l.29-.13c.16-.1.18-.08,0,.05a4.35,4.35,0,0,0,.54.68,6.75,6.75,0,0,0,.83.86,2.8,2.8,0,0,0,1.47.56c2.52.27,4.51-1.39,6.48-2.66.08-.06.61-.32.61-.36s-.45,0-.46.09a1.39,1.39,0,0,1,.26.1,5.5,5.5,0,0,1,1.22,1.4c.51,1,.95,2.09,2.11,2.43a6,6,0,0,0,4.32-.92c.3-.17.59-.35.88-.54.13-.08.46-.12.18-.11s.2.12.21.13a8.9,8.9,0,0,0,2.16.61,5.58,5.58,0,0,0,4.29-1.06,5.66,5.66,0,0,0,.71-.76,3.73,3.73,0,0,0,.34-.43c.16.29-1.41-.36-1,.15a5,5,0,0,0,1.16.55,9,9,0,0,0,1,.46c1.81.71,5.33.56,6.27-1.53.08-.18.08-.36.14-.53s.35-.51.37-.72c0-.53-.95.27-.93.13l.56.17c1.49.57,2.44,1.53,4.15,1.25a5.84,5.84,0,0,0,3.58-2.14,5.1,5.1,0,0,0,.63-.69c.13-.23.68-.3-.34,0s-.3.24.16.46a4.32,4.32,0,0,0,2,.54c2.48,0,6.66-2.27,5.05-5.3L472,231.83c3.46-.25,7.23-2.66,6.75-6.55l-2.86,1.05c3.39.8,8.1-1.29,8.27-5.14l-2.87,1.05c3.62.65,9.23-2.38,7.52-6.72l-2.87,1a6.84,6.84,0,0,0,5.4-1.1c1.71-1.19,1.92-2.66,1.67-4.59a5.49,5.49,0,0,1,0-.7c0-.56.33-.53-.28-.52-.93,0,0,.12.17.12a5.15,5.15,0,0,0,.68,0,6.24,6.24,0,0,0,2.84-.93,3.3,3.3,0,0,0,1.48-4.07l-2.87,1a6.67,6.67,0,0,0,5.79-1.88,4,4,0,0,0,.64-5L498.83,200c2.76.32,7.65-2.49,5.35-5.74l-2.25,1.08a7.09,7.09,0,0,0,5.28-2.82,4.73,4.73,0,0,0,.18-5.27c-.49-.72-2.56,0-3,.53L488.56,205.4l-11.69,13c-2.26,2.52-4.64,5-6.8,7.58-.5.6-.2,0,.17,0-.18,0-.58.3-.73.37l-1.48.75L464,229.23a25.67,25.67,0,0,0-2.67,1.35c-.55.36,1.14-.24,1-.28a1.34,1.34,0,0,0-.44.06l-.43,0-1.24.15q-3.56.44-7.11.81c-6.42.68-12.87,1.27-19.32,1.44a46.13,46.13,0,0,1-7.62-.25,7.55,7.55,0,0,1-4.3-2.12c-4.39-4-7.74-9.3-11-14.22q-4.12-6.25-7.9-12.75l-.41-.7c-.46-.8-3.43.36-3.15.84,1.9,3.32,3.9,6.58,5.95,9.8a122.87,122.87,0,0,0,11.32,15.84,14.48,14.48,0,0,0,4.65,4,17.17,17.17,0,0,0,6.13.89,158.74,158.74,0,0,0,19.37-.95q7.2-.68,14.36-1.59a12.06,12.06,0,0,0,3.86-1.5c2.3-1.16,4.61-2.29,6.89-3.49a5.31,5.31,0,0,0,1.62-1.44l3.32-3.7,10.94-12.2,19.12-21.32.35-.39-3,.53a4.06,4.06,0,0,1,.58,3.39,4.86,4.86,0,0,1-.72,1.57,4.3,4.3,0,0,1-.52.61c-.19.17-.77.41-.3.35-.2,0-2.62.55-2.25,1.08a2.51,2.51,0,0,1,.4,2.23,3.12,3.12,0,0,1-.55,1.09,4,4,0,0,1-.41.41q1.15-.1.39-.15c-.31,0-3,.55-2.59,1.08a3.16,3.16,0,0,1,.49,2.85,4,4,0,0,1-.64,1.29,6.28,6.28,0,0,1-.49.54c-.34.37-.53.06-.06.13-.38-.05-3.22.28-2.87,1a2.45,2.45,0,0,1,.15,1.84c-.08.25-.25.46-.34.7a1.39,1.39,0,0,1-.31.37l.51,0c-.17.12-.85,0-1.1,0a6.7,6.7,0,0,0-1.18.16,4.81,4.81,0,0,0-1.85.78c-1,.8-.76,1.93-.6,3.06.13,1-.32,3.19-1.45,2.89-.42-.11-3.17.28-2.87,1.05a3.59,3.59,0,0,1-.05,2.89,4.65,4.65,0,0,1-.76,1.16,3.22,3.22,0,0,1-.63.54c-.26.15.34.15-.34,0s-2.82.12-2.86,1c-.06,1.37-1.1,3.39-2.54,3.05-.54-.13-3,.17-2.87,1a4.37,4.37,0,0,1-.51,2.72c-.31.57-1,1.62-1.74,1.67-.26,0-2.56.49-2.25,1.08a2.55,2.55,0,0,1-.72,3.21c.33-.29.73.23,0-.28a4.13,4.13,0,0,0-.89-.45,3.87,3.87,0,0,0-2.21-.14,5.42,5.42,0,0,0-2.91,1.55c-.31.32-.58.68-.88,1-.74.78.24,0,.24,0s-1.14-.64-1.28-.71c-1.92-.91-4.76-.91-6.07,1a3.55,3.55,0,0,0-.63,1.46s-.17.2-.17.23l.92-.29a3.27,3.27,0,0,1-.76-.13,14,14,0,0,1-2-.95,4.48,4.48,0,0,0-3.45,0,4.27,4.27,0,0,0-1.66,1.08,3,3,0,0,0-.57.72c-.27.27-.1.28.51.06l-.66-.17a8,8,0,0,0-3.69-.52,7.85,7.85,0,0,0-2.15.7c-.35.17-1.58.66-1.77,1l.69-.18a1.5,1.5,0,0,1-.48-.3,2.38,2.38,0,0,1-.55-.71c-.24-.41-.42-.85-.65-1.26a3,3,0,0,0-2.36-1.72c-2.29-.24-4.26,1.13-6,2.36-.16.11-1,.76-1.09.68l.49-.11a1.49,1.49,0,0,1-.37-.14c-.3-.33-.68-.61-1-.93a3.58,3.58,0,0,0-3.9-.84c-.71.19-1.35.65-2,.81s-.05.22-.59,0a2.5,2.5,0,0,1-.77-.6,7.94,7.94,0,0,1-1.62-4.09c-.12-.75-2.47.12-2.78.35.7-.09.79-.21.25-.35l-.24-.17a1.68,1.68,0,0,1-.58-1c-.16-.63-.06-1.27-.46-1.83-.58-.81-2.21-.8-2.54-1.73-.21-.58.43-1.2.51-1.77a1.89,1.89,0,0,0-.56-1.58c-.63-.73-3.42-2.23-2.27-3.48.2-.23.18-.44-.14-.52-.85-.21-2.23-.6-2.47-1.6s.68-1.71.25-2.72a6.32,6.32,0,0,0-1.88-1.94,2.92,2.92,0,0,1-.9-1.21,6.4,6.4,0,0,1-.17-1.14c.11-.05.82-.41.66-.65a34.59,34.59,0,0,1-4.16-8.85C402.28,202,399.14,202.9,399.36,203.61Z"/><path class="cls-4" d="M460.77,177.39a5.12,5.12,0,0,0-3.34-1.74c-.5-.06-1.35.16-1.79-.11s-.66-1-1-1.31a3.93,3.93,0,0,0-3.53-.85,6.13,6.13,0,0,0-1.67.69l-.43.26c-.22.11-.19.12.09,0a3.88,3.88,0,0,1-.63-.35,4.32,4.32,0,0,0-2.9-.85,4.25,4.25,0,0,0-1.71.62s-.76.52-.75.6l.71-.29a1.86,1.86,0,0,1-.52-.36c-1-.8-1.66-1.65-3-1.75a5.24,5.24,0,0,0-2,.32,8.32,8.32,0,0,1-1,.43c-.34.05,0,.25-.24-.15-.67-.89-3.72.2-2.92,1.26s2.07.95,3.12.71a9.88,9.88,0,0,0,1.65-.6c.37-.17.45-.2.26-.1s-.12.18.28.28c.21.21.43.41.65.61a3.89,3.89,0,0,0,3.23,1.27,4.25,4.25,0,0,0,1.92-.76c.13-.09.57-.33.62-.49-1,0-1.29.12-.88.26a2.31,2.31,0,0,1,.35.18,5.59,5.59,0,0,0,2.88,1.06,5,5,0,0,0,2-.48c.27-.13.53-.28.78-.43l.43-.26,0,.17c.62.24.89,1,1.29,1.42a2.28,2.28,0,0,0,1.46.8c.59.1,1.18-.06,1.77,0a3.13,3.13,0,0,1,2,1.18c.74.86,3.76-.28,2.92-1.26Z"/><path class="cls-4" d="M424,174.28a4.23,4.23,0,0,0-3.38.45c-.74.42-1.4,1.18-2.25,1.17a4.66,4.66,0,0,0-2.18.37c-.2.1-1.51.94-1.41,1.35q1.15-.15.54-.3l-.27-.1c-.32-.13-.62-.29-.94-.42a3.39,3.39,0,0,0-4.62,2.11c-.26.7-.08-.22.13.12a3.59,3.59,0,0,0-.76,0,6,6,0,0,0-2,.21,3.64,3.64,0,0,0-1.59.92,2.57,2.57,0,0,0-.42.63,5.43,5.43,0,0,0-.17.53q-.21.61.54,0a2.41,2.41,0,0,0-2.36,1.71c-.19,1.52,3,1.05,3.18-.28-.08.62-1.35.8-.47.61a3.44,3.44,0,0,0,.77-.24,2.38,2.38,0,0,0,1.17-1,2.13,2.13,0,0,0,.27-.64c0-.13.05-.26.07-.39s0-.17-.09-.08-.15-.06,0,.1.63,0,.72,0A4.35,4.35,0,0,0,412,180a4.2,4.2,0,0,0,.65-1c.06-.1.32-.47.3-.59.15-.17,0-.12-.35.15-.47.12-.53.22-.17.31a4.74,4.74,0,0,0,3.35.58,3.23,3.23,0,0,0,1.58-.91,2.06,2.06,0,0,0,.51-.67c.21-.25,0-.19-.56.19l.29,0a5.07,5.07,0,0,0,3.21-.8c.42-.24.79-.52,1.19-.78.15-.09.27-.18.43-.26-.07,0-.38,0-.21.06a2.27,2.27,0,0,0,2.23-.59.82.82,0,0,0-.38-1.42Z"/><path class="cls-18" d="M513.21,129.66c-3.38-3.11.46-9.42-2.21-13.15a29.68,29.68,0,0,1-2.08-2.43c-1.47-2.6.83-6.08-.41-8.8-.56-1.23-1.76-2.09-2.21-3.35-.87-2.42,1.33-5,1-7.52-.4-2.85-3.92-5.14-2.93-7.84.49-1.32,2-2.12,2.37-3.46.72-2.34-2-5.28-.31-7,.59-.61,1.56-.8,2-1.5,1-1.42-.79-3-1.52-4.59s-.32-3.5-.59-5.25-2-3.61-3.57-2.82c.84-2.8-1.13-10.27-4-9.84-1.43.22-3.25,1-4.05-.22-.57-.85,0-2.08-.51-3-1.22-2.32-5.14,1.35-7.28-.16-.58-.41-.86-1.12-1.36-1.63-1.12-1.15-3-1-4.55-.47s-.74-1.54-2.33-1.77-3-3.27-2.08-4.58c-1.6,1-5.63,3.34-7.52,3.54s-4.23-3.35-4.82-5.16c-.39,2.68-4.24,9.17-6,7.14-.72-.81-1.23-2-2.31-2.13a2.38,2.38,0,0,0-1.35.43c-1.85,1.1-4.18,7-5.14,8.93l.4-11.78,32.64-5.86,32.3,14.55,6.69,34.36-9.5,47.63"/><path class="cls-4" d="M514.68,129c-1.81-1.78-1.38-4.44-1.2-6.73s.3-4.81-1.27-6.73c-.93-1.15-2-1.92-2.2-3.51a19.63,19.63,0,0,1,.4-4,6.1,6.1,0,0,0-.49-3.58c-.69-1.28-2-2.2-2.21-3.72s.5-2.76.85-4a5.91,5.91,0,0,0-.05-4c-.77-1.85-3.26-4-2.68-6.14.34-1.28,1.64-2,2.22-3.19a4.86,4.86,0,0,0,0-3.58c-.27-.92-1-2.34-.53-3.31.23-.5.75-.65,1.18-.93a3.34,3.34,0,0,0,1.46-1.58c.45-1.27-.42-2.44-1.06-3.47-1-1.67-1.05-3.18-1.12-5.07-.12-3.3-2.55-5.59-5.87-4.28l2.2.46c.67-2.48-.1-5.64-1.24-7.86a4.86,4.86,0,0,0-2.33-2.48,3.88,3.88,0,0,0-1.82-.18c-.62.07-1.78.62-2.39.4-.88-.31-.5-1.84-.61-2.52a2.12,2.12,0,0,0-1.07-1.58c-1.18-.65-2.75-.25-3.95.11a15.44,15.44,0,0,1-1.76.52c-.81.14-1.16-.33-1.62-1a4.71,4.71,0,0,0-4.62-1.81,11.69,11.69,0,0,0-1.65.31c-.21.05-1,.24-.11.16.68-.06.29.1.26-.25a2.09,2.09,0,0,0-1.24-1.44,2.88,2.88,0,0,1-1.78-1.31,2.77,2.77,0,0,1-.36-2.54c.78-1.31-2-.79-2.44-.5-.95.59-1.91,1.15-2.89,1.67s-2.19.88-3.2,1.42c-.37.2.13.14-.1,0a4.79,4.79,0,0,1-.58-.33,6.2,6.2,0,0,1-1.21-1.19,10.49,10.49,0,0,1-1.81-3.14c-.37-1.06-3-.32-3.15.62a12.77,12.77,0,0,1-2.79,5.63,9.94,9.94,0,0,0-.92.91c0-.06.89-.18.88-.07s-.44-.5-.37-.4c-.85-1-1.45-2.1-2.94-2.16-5-.2-6.85,6.69-8.58,10.23l3-.17L451.38,41l-1.79,1.07L478.14,37l4.09-.74-1-.11L504.6,46.66l6,2.72c.23.11,2.63,1.42,2.82,1.27-.26.21-.29-.72-.2.14.06.56.22,1.12.33,1.67l1.18,6.06,3.18,16.34,1.28,6.59c.2,1,.5,2.12.62,3.18,0-.14,0-.2-.05.13s-.16.8-.24,1.2l-.94,4.7-3,15c-1.72,8.63-3.63,17.25-5.16,25.91l-.09.47c-.24,1.19,2.93.68,3.15-.4l6.37-32,3-14.87a4.68,4.68,0,0,0-.05-2l-1.39-7.15-4-20.57-.67-3.47a12.92,12.92,0,0,0-.38-2c-.32-.83-1.75-1.15-2.51-1.49l-17.72-8-8.71-3.93c-1.22-.55-2.45-1.24-3.72-1.67s-3.44.32-4.78.56l-9.52,1.71-18.27,3.27-1.1.2c-.48.09-1.77.4-1.79,1.08l-.41,11.78c0,1.29,2.68.59,3-.16,1-2.1,1.89-4.27,3.05-6.3a14.76,14.76,0,0,1,1-1.53,3.44,3.44,0,0,1,.47-.54c.31-.27,0,0-.15-.09.86.72,1.26,2,2.38,2.34,4.13,1.39,7.66-5.33,8.2-8.49l-3.15.62c.87,2.52,3.11,6,6.18,5.62s6.15-2.35,8.71-3.95l-2.44-.51a3.77,3.77,0,0,0,.45,4,3.61,3.61,0,0,0,1.5,1.29c.79.34.89.31,1.28,1.08.79,1.59,2.46.75,3.8.56,2.11-.3,2.35,1.93,4,2.58a7,7,0,0,0,4.43-.29c1.24-.38,2.12-.93,2.24.84.05.87-.08,1.74.58,2.43a3,3,0,0,0,2.15.71A13.67,13.67,0,0,0,498.3,53c.38-.08-.13-.13.1,0a3,3,0,0,1,.65.48A9,9,0,0,1,501,57.69a9.15,9.15,0,0,1,.18,4.41c-.28,1,1.82.6,2.2.45-.6.24-.26.06.19.43a2.81,2.81,0,0,1,.56.63,4,4,0,0,1,.67,1.94c.16,1.48-.11,3,.4,4.46.41,1.16,1.33,2,1.76,3.19.61,1.63-1,1.76-1.91,2.72-1.69,1.81-.1,4.06.16,6.09.34,2.59-3,3.66-2.58,6.39.31,2.2,2.34,3.74,2.95,5.83.76,2.66-1.6,5.1-.95,7.78a9.15,9.15,0,0,0,1.86,2.95,5.33,5.33,0,0,1,.71,4.07,18.42,18.42,0,0,0-.35,3.55,5.09,5.09,0,0,0,1.62,3.35,6,6,0,0,1,1.89,3.5,18.34,18.34,0,0,1-.07,3.92c-.2,2.42-.41,5.08,1.47,6.92.79.78,3.77-.4,2.93-1.23Z"/><path class="cls-15" d="M514.46,151l-2.78.4a1.27,1.27,0,0,1-.86-.06c-.63-.35-.32-1.29-.16-2,.38-1.64-.59-3.25-1.36-4.75s-1.33-3.45-.28-4.77c.56-.69,1.53-1.17,1.6-2.06.09-1.16-1.37-1.7-2.18-2.54a2.82,2.82,0,0,1,1.11-4.41s-2.11-2.14-1.56-6.57,1.68-9.17,1.68-9.17l6.4-3.93Z"/><path class="cls-4" d="M514.73,150.31l-2.09.31-.46.06q-.42.16-.12-.21a2.16,2.16,0,0,1,0-.76,6,6,0,0,0-.09-3.24c-.69-1.91-3-4.67-1.53-6.74.53-.73,1.46-1.15,1.69-2.09a1.94,1.94,0,0,0-.92-1.94c-.72-.61-1.55-1-1.79-2-.15-.59-.06-2.17.67-2.46.28-.1,1.34-.55.92-1-1.24-1.28-1.59-3.48-1.55-5.17a50.3,50.3,0,0,1,1.61-9.64,1.72,1.72,0,0,0,.09-.44c-.09-.52.52.58-.28.17,0,0,.34-.21.39-.24.75-.39,1.46-.89,2.18-1.34l3.83-2.34-2.8.31-1.42,34.88-.2,5c0,.61,3.11.17,3.15-.85l1.42-34.88.2-5c0-.83-2.53.15-2.8.31l-4.23,2.6c-.66.4-1.33.78-2,1.2a1.57,1.57,0,0,0-.71,1.2,52,52,0,0,0-1.62,9.9,7.82,7.82,0,0,0,1.75,5.44l.91-1c-1.93.76-3.73,3-2.29,5.06.57.83,1.94,1.25,2.28,2.22.41,1.18-1.55,2.12-1.92,3.19-1,3,2.11,5.27,2.12,8.1,0,1-.86,2.49.37,3.06s3.37-.15,4.65-.34c.39,0,1.81-.37,1.83-.92S515.12,150.25,514.73,150.31Z"/><path class="cls-18" d="M399.67,52.7c.42.89-.79,1.68-1.77,1.82s-2.26.4-2.39,1.38c-.08.61.38,1.19.3,1.79-.23,1.86-3.85.44-4.77,2.07-.68,1.23.9,3.08-.14,4-.49.44-1.26.31-1.92.39a2.85,2.85,0,0,0-2.39,2.18c-.17.84,0,1.79-.4,2.53-.54.89-1.73,1.06-2.66,1.53-2.44,1.24-2.88,4.5-2.82,7.23s.15,5.87-1.86,7.73a5.21,5.21,0,0,1-1-6.82,15.77,15.77,0,0,0,1.35-1.84,1.7,1.7,0,0,0-.27-2.09c-.3-.23-.73-.32-.91-.65-.53-.93,1.28-1.24,2.1-1.92,1-.86.33-2.55-.53-3.59s-1.87-2.41-1.22-3.59,2.15-1.17,2.74-2.2-.3-2.64,0-4c.34-1.76,2.52-2.35,4.29-2.58a2.8,2.8,0,0,1,1.05-4.31c.66-.24,1.48-.26,1.9-.82.63-.84-.12-2.28.65-3s1.81-.13,2.51-.67c1.11-.86-.36-2.74.23-4,.77-1.69,4.45-1.18,4.19-3"/><path class="cls-4" d="M398.09,53.12c.24.78-.81.66-1.33.79a5.35,5.35,0,0,0-2.13,1,1.94,1.94,0,0,0-.69,1.74,4.23,4.23,0,0,0,.29,1.07c.2.45-.47.27.29.16.29,0,.2,0,0,0a7.31,7.31,0,0,0-3.82.84,2.6,2.6,0,0,0-1.27,3.14,8.85,8.85,0,0,1,.23,1,2.12,2.12,0,0,0,0,.44l0,.12c-.12.31.08.25.58-.19-.06-.25-2.29.36-2.53.45a4.18,4.18,0,0,0-2.75,3.6c-.08,1,0,1.65-1.05,2.07a8.46,8.46,0,0,0-2.17,1.13,6.49,6.49,0,0,0-2.25,3.65c-.85,3.4.85,8.25-1.88,11l2.73-.36a4.81,4.81,0,0,1-1.69-4.28c.21-1.69,1.54-2.48,2.16-4a2.27,2.27,0,0,0-.05-2.09c-.21-.34-1.24-.87-1.26-1s1.15-.56,1.42-.74a2.72,2.72,0,0,0,1.29-1.59c.33-1.49-.8-2.73-1.6-3.82-.45-.63-1.26-1.8-.58-2.57.43-.49,1.27-.71,1.78-1.12,1.3-1,1.19-2.28.94-3.8-.34-2,.67-2.51,2.42-2.76.5-.07,2.35-.67,1.68-1.49a2.26,2.26,0,0,1,0-2.9c.34-.29,1-.32,1.38-.5A3.41,3.41,0,0,0,389.79,51a2.51,2.51,0,0,0,.38-1.44c0-.26,0-.51,0-.77a1.49,1.49,0,0,1,.06-.51l-.59.23a8.55,8.55,0,0,0,1.76-.25,3.37,3.37,0,0,0,1.62-1c1.05-1.27-.77-3.81.77-4.46s3.8-.93,3.68-3c-.06-1-3.22-.36-3.15.84,0,.37.1.15-.21.32a8.15,8.15,0,0,1-1.18.39,5.14,5.14,0,0,0-2.46,1.5,3.11,3.11,0,0,0-.33,2.69,6.26,6.26,0,0,1,.14.73l0,.28c-.12.31-.05.38.21.22s.31-.11-.11-.06l-.34,0a6.27,6.27,0,0,0-1.06.24,2.56,2.56,0,0,0-2,2.28c0,.56.18,1.25-.28,1.56s-1.17.36-1.67.66a3.52,3.52,0,0,0-1.15,5.2l1.68-1.48a9.26,9.26,0,0,0-5,1.92c-1.53,1.4-.85,2.77-.77,4.54s-2.62,1.88-3.1,3.68,1.42,3.15,2.11,4.68c.4.89.41,1.55-.47,2a4.51,4.51,0,0,0-1.67,1.15,1.11,1.11,0,0,0,.1,1.56c.3.3.78.36,1,.74a1.57,1.57,0,0,1-.18,1.48c-.41.75-1.11,1.3-1.51,2.07a5.49,5.49,0,0,0-.62,2.45,5.65,5.65,0,0,0,2,4.46,2.39,2.39,0,0,0,2.73-.36c2.64-2.65,2-6.13,2.18-9.53a7.9,7.9,0,0,1,1.26-4.45c1-1.29,3-1.19,4-2.61a4.28,4.28,0,0,0,.55-2.33,2.68,2.68,0,0,1,.37-1.27c.27-.46.48-.4,1-.44,1.43-.11,3.36-.73,3.39-2.45a14.79,14.79,0,0,0-.35-2,2.24,2.24,0,0,1,.09-.89c-.05.2-.52.13.25,0a7.39,7.39,0,0,0,3.61-.91,1.87,1.87,0,0,0,.94-1.73c0-.41-.4-1-.28-1.42s.42-.25.79-.32c1.36-.26,3.9-1.27,3.36-3.08-.33-1.09-3.48-.23-3.16.85Z"/><path class="cls-19" d="M517.62,134.11l-.34-3.81-40.15-8.55h0c-14.44-4.51-34,.75-45,8.9L422,131.87l.08-.16c-12.39-7.85-32.07-7.81-46.62.09l.51,1.55h0c0,.1.13.32.23.65l.46,1.34c2.84,8.6,6.09,17.68,8.72,19.94,1.77,1.53,7.27,1.94,11.79,2,1.71,0,3.27,0,4.38,0,1.35,0,13.28-.44,15.14-2.42s4.33-16,5-20.4l10.35-1.2c1.55,3.29,5.21,17.65,10.47,20.25s31.13-.37,33.29-4.14c1.53-2.68,5.78-12.31,6.73-17.16l1.75-6.29ZM415.43,153.52c-2.05,1.92-25.78,3-28.85.33-2.58-2.23-6.64-14.49-8.16-19.1l0-.19c13.05-6.31,30.79-6.38,41.55.23-1.32,7.63-3.35,17.46-4.52,18.69Zm57.28-5c-1.34,2.38-23.88,5.95-29.31,3.27-3.77-1.85-6.63-12.34-8.76-18.31,10.78-7.75,33.68-12.37,46.58-7.54-1.76,7.67-4.67,16.76-8.51,22.58Z"/><path class="cls-2" d="M529.13,230.34s-18.8,51.19-68.36,49.14c-40.08-1.67-26.35-35.42-26.35-35.42Z"/><path class="cls-8" d="M431.53,184.39c9.66-.68,25.24-3,25.24-3s-1.53,23.1-23.93,24.66S406.12,185,406.12,185,421.86,185.06,431.53,184.39Z"/><path class="cls-4" d="M431.43,184.39c4.6-.32,23.06-2.42,23.06-2.42a25.7,25.7,0,0,1-22,15.15c-18,1.26-24-11.78-24-11.78Z"/><path class="cls-20" d="M431.28,185.12c4.6-.32,18.52-2.1,18.52-2.1s-4.66,5.58-18.45,6.55-18.52-3.81-18.52-3.81Z"/><path class="cls-8" d="M405,183.58c.48-.16,3.22.58,5.48.21,3.78-.6,6.09-1.81,8.83-2.22,4.68-.71,7.8,1,9.85.87s4.89-2.28,9.63-2.24c2.77,0,9.66.59,13.49.67,2.29,0,4.9-1.07,5.4-1,.69.13-.26,5.4-26,7.2S404.33,183.8,405,183.58Z"/><path class="cls-4" d="M432.37,175.84l1.21,4.29a1.59,1.59,0,0,0,1.45,1.15c4.68.25,22.51,1.14,26.7.73.1,0-.22,1.77-.12,1.75l1-.16c1.54-.44-.05-5.61-1.58-6.06a91.08,91.08,0,0,0-11.42-2.65c-3.2-.46-12-1.45-15.83-1.09A1.61,1.61,0,0,0,432.37,175.84Z"/><path class="cls-4" d="M427,176.78l.21,4a1.6,1.6,0,0,1-1.17,1.39c-4.25,1-18.19,4.46-22.09,4.76a.81.81,0,0,1-.27,0l-1.27-.15c-1.47-.17-.93-3.5.42-4.2a68,68,0,0,1,9-4.22c2.86-1,10.11-3.1,13.63-3.38A1.51,1.51,0,0,1,427,176.78Z"/><path class="cls-3" d="M241.06,543s-17.54,12.39-18.91,26,7.28,27.28,9.46,28.26S250.5,605,250.5,605l.44,3.23S230.77,600,228.27,596.9s-8.26-14.3-7.88-23.77a28.71,28.71,0,0,1,7.3-18.7C230.77,551,241,541.94,241,541.94Z"/><path class="cls-21" d="M568.27,278.4a26.65,26.65,0,0,0-9.14,5.58c-7.11,6.18-11.9,14.68-15.1,23.44-2.63,7.18-4.11,14.72-5.67,22.18s-3,14.69-4.46,22q-2.64,13.38-5.19,26.78-2.75,14.35-5.43,28.72-2.6,13.86-5.17,27.73-2.24,12.12-4.46,24.23Q512,468,510.4,476.89c-.52,2.82-1.27,5.7-1.56,8.55a2.2,2.2,0,0,1-.07.37l1.65-1-14.9,1.93-35.78,4.63L416.46,497l-37.29,4.82c-6,.78-12.11,1.47-18.14,2.35l-.26,0c-.49.07-1.57.36-1.65,1s.84.65,1.24.6l14.91-1.93,35.78-4.63,43.28-5.59,37.28-4.82c6.05-.79,12.12-1.47,18.15-2.35l.26,0c.5-.07,1.54-.36,1.65-1l1.05-5.78q1.41-7.77,2.83-15.53,2.06-11.24,4.13-22.45,2.48-13.43,5-26.86,2.66-14.25,5.36-28.49,2.6-13.69,5.26-27.37,2.3-11.79,4.68-23.56c1.16-5.67,2.33-11.33,3.63-17,2.44-10.6,6.4-21.17,13.49-29.58a38.45,38.45,0,0,1,7-6.49,29.49,29.49,0,0,1,2.73-1.69l.52-.27c-.23.11.08-.05.29-.14l.76-.34c.32-.13.86-.3.29-.12.41-.13,1.43-.49,1.27-1.1s-1.27-.43-1.64-.31Z"/><path class="cls-21" d="M509,486.21a64.65,64.65,0,0,1,9,3.83c5.63,2.85,11.19,6.45,15.24,11.37a20.31,20.31,0,0,1,4.55,9.73c.1.66,3,0,2.9-.78-1-6.62-5.75-11.87-10.92-15.77a65.32,65.32,0,0,0-15.05-8.29c-1.12-.45-2.25-.9-3.4-1.27a3.08,3.08,0,0,0-2,.35c-.29.16-1,.63-.33.83Z"/><path class="cls-21" d="M359.38,581.62l10.87.64,26,1.52,31.39,1.84,27.14,1.59c4.39.26,8.82.71,13.22.77h.2c1,.06,3.1-1.37,1.17-1.48l-10.87-.64-26-1.52-31.39-1.84L374,580.92c-4.4-.25-8.83-.7-13.23-.77h-.19c-1-.06-3.11,1.37-1.17,1.48Z"/><path class="cls-21" d="M356.47,417.66l-1.37-26.22-2.18-41.75-.49-9.52c-.05-.84-3-.27-2.9.78l1.37,26.23,2.18,41.75.5,9.51c0,.84,2.95.28,2.89-.78Z"/><path class="cls-21" d="M234.2,401.19a58.24,58.24,0,0,1,11.9.88c8.39,1.34,16.74,4.17,23.7,9.14a39,39,0,0,1,11.4,12.62c.48.86,3.25-.15,2.9-.77-4.92-8.77-13-15-22.21-18.63a69.14,69.14,0,0,0-21.83-4.58c-1.55-.08-3.12-.15-4.67-.08-.56,0-1.63.2-1.93.75s.25.69.74.67Z"/></g></svg>