<svg xmlns="http://www.w3.org/2000/svg" viewBox="0 0 637.33 635.77"><defs><style>.cls-1{fill:#c1e7f6;}.cls-2{fill:#1b3b53;}.cls-3{fill:#d16152;}.cls-4{fill:#722b14;}.cls-5{fill:#42221a;}.cls-6{fill:#a86e57;}.cls-7{fill:#221e1f;}.cls-8{fill:#14110f;}.cls-9{fill:#643b29;}.cls-10{fill:#f0edf6;}.cls-11{fill:#263238;}.cls-12{fill:#5e9fae;}.cls-13{fill:#a03f22;}.cls-14{fill:#f2725f;}.cls-15{fill:#97712b;}.cls-16{fill:#dea726;}.cls-17{opacity:0.3;}.cls-18{fill:#cd8c2a;}.cls-19{fill:#12100e;}.cls-20{fill:#b05e27;}.cls-21{fill:#de8b26;}.cls-22{fill:#fff;}.cls-23{fill:#6696a3;}.cls-24{fill:#593425;}.cls-25{fill:#465b65;}.cls-26{fill:#385456;}.cls-27{fill:#632a11;}</style></defs><g id="Layer_1" data-name="Layer 1"><circle class="cls-1" cx="318.06" cy="340.56" r="288.85"/><path class="cls-2" d="M340.73,628.4a288,288,0,0,0,187.18-89.23l-180.1-3.3C347.81,536.77,338,579.28,340.73,628.4Z"/><path class="cls-3" d="M298.25,341.5l-30.05-9.57-8-2-.61-.39a5.07,5.07,0,0,0-.07,1.45l.08.78a27.22,27.22,0,0,1-21.93,12.82,66.28,66.28,0,0,1-9.32-.31c-10.14-1.07-17.59-6.32-23.13-14.88l0-2.15-19.32,3.45L145,342.46l11.26,151.7-3.82,7.75s-9.79,23.73-19.54,60A287.5,287.5,0,0,0,301.77,628.4c-1.35-20-3.62-44.48-6-61.6q-2.21-16.17-4.95-32.26c-1.61-9.5-4.48-19-2.63-28.7A313.28,313.28,0,0,0,293.57,463c9.84-12.12,11.52-22.7,11.66-26.05.54-12.77-2-28-2.67-31.2C295.44,373.57,298.25,341.5,298.25,341.5Z"/><path class="cls-4" d="M584.27,301a7.58,7.58,0,0,0,2.08-9.74c-7.14-16,.88-1.67-11.12-14a108.48,108.48,0,0,0-40.51-26,99.41,99.41,0,0,0-47.52-3.82c-16.28,2.23-33.2,3-49.66,1.19-16.86-1.82-32.2-4.26-48.16-9.75-3.43-1.17-13.95-4.56-14.68-1.15-.85,4,8.31,13.78,11.73,14.95,17.56,6,35.4,11.69,54,13a243,243,0,0,0,49.2-1.67c15-2.53,29.43,1.38,43.59,6.6,27.71,11,29.25.88,41.8,28.41A6.45,6.45,0,0,0,584.27,301Z"/><path class="cls-5" d="M404.1,196.7a18.91,18.91,0,0,0-1.25-4.75,11.57,11.57,0,0,0-3.76-4.8,8.3,8.3,0,0,0-5.35-1.67l.55.6q-.09-3.57-.53-7.11a13.34,13.34,0,0,0-.41-2.74,7.48,7.48,0,0,0-.25,2.75c0,1.69.18,4.26.12,7l0,.62.57,0a7.46,7.46,0,0,1,4.63,1.54c3.28,2.35,4.35,6.12,4.88,8.77s.72,4.35.89,4.33S404.4,199.45,404.1,196.7Z"/><path class="cls-3" d="M268.6,422.59c-8.26-6.7,2.93-32-2.06-41.45-4.82-9.13-6.78-31.89-7.34-42.12,2.29-1.53,39.92-4.92,47.18-8.69,19.09-9.92,23.92-10.78,27.17-13.26,5.06-3.85,101.08-48.51,102.49-50.94l34.63,29.15s-74.11,25.77-101.14,60.18C347.29,383.79,296.1,390.88,268.6,422.59Z"/><path class="cls-6" d="M382.16,216.69s2.48,25.38-2,35.53c-1.32,3-42.26,21.09-42.26,21.09L431,304.09l49.07-15.29s-27.72-9.28-29.48-12.75c-4.85-9.53-1.81-57.13-1.81-57.13"/><path class="cls-6" d="M373.94,175.11S368.7,165,365.15,165c-2.16,0-7.38,5.78-7.32,11.29.08,7.38,5.21,15.76,6.49,20.06s1.07,10.48,6.8,10.44c2.27,0,5.07-4.76,5.07-4.76S375.12,181.8,373.94,175.11Z"/><path d="M372.41,185.07a49,49,0,0,0-4.6-8.06,16,16,0,0,0-3.33-3.53,4.69,4.69,0,0,0-1.79-.88,1.32,1.32,0,0,0-1.08.15,2.65,2.65,0,0,0-.71,1,11.87,11.87,0,0,0-.5,8.2c.15.6,1.64.21,1.49-.4a12.43,12.43,0,0,1-.1-6.35,7.17,7.17,0,0,1,.62-1.55c.08-.15.17-.29.26-.43s.19-.25,0-.05l-.89.31h.1s-.2-.06,0,0l.19,0,.16.06.24.11a6.68,6.68,0,0,1,.67.41,17.11,17.11,0,0,1,4.29,4.94,54.73,54.73,0,0,1,3.49,6.38c.27.58,1.74.13,1.49-.4Z"/><path d="M370.23,186.14a3.12,3.12,0,0,0-2.34.72,2.54,2.54,0,0,0-.59,1.84c0,1.63.65,3.3.44,4.92,0,.12-.08.26-.09.38s-.07.1-.06.14l0,.07.85-.19s-.27-.26-.28-.28a3.4,3.4,0,0,1-.38-.67,17.38,17.38,0,0,1-1.08-3.67,15.24,15.24,0,0,1-.36-4.75c.17-1.66.58-4.51,2.34-5.28,1-.42.06-.71-.54-.44-1.9.84-2.72,2.68-3.09,4.62a12,12,0,0,0-.25,3.82,28.52,28.52,0,0,0,1,4.92c.23.7.54,1.91,1.26,2.3a1.67,1.67,0,0,0,2-.65,3.31,3.31,0,0,0,.15-2c-.11-1.05-.33-2.08-.39-3.13a4.18,4.18,0,0,1,.12-1.45c.05-.18.18-.32.24-.49s.07-.07.1-.1-.26,0,0,0a1.52,1.52,0,0,0,1.06-.28c.19-.17.23-.39-.11-.4Z"/><path class="cls-6" d="M458.19,175.11S463.42,165,467,165c2.16,0,7.38,5.78,7.32,11.29-.08,7.38-5.22,15.76-6.5,20.06s-1.07,10.48-6.8,10.44c-2.27,0-5.07-4.76-5.07-4.76S457,181.8,458.19,175.11Z"/><path d="M461.16,185.3a40.92,40.92,0,0,1,5.59-9.28,13.75,13.75,0,0,1,1.85-1.82,7.29,7.29,0,0,1,.74-.49c.13-.08,0,0,0,0l.13-.07.28-.12c.15-.06-.18,0,.05,0s.2,0,0,0c.11,0,.26,0-.05,0l-.4-.15a6.1,6.1,0,0,1,1,2.12,12.38,12.38,0,0,1-.09,6.42c-.15.59,1.36.37,1.5-.17a12.05,12.05,0,0,0-.29-7.69c-.29-.68-.57-1.53-1.43-1.42-2.15.28-3.93,2.4-5.16,4a45.18,45.18,0,0,0-5.09,8.68c-.32.68,1.17.54,1.4.06Z"/><path d="M462.31,187.05c1.66-.06.89,3.15.76,4.06s-.77,3.94,1.12,3.81c.91-.06,1.41-1,1.73-1.7a20.18,20.18,0,0,0,1.16-4.19,14.92,14.92,0,0,0,.19-4.94c-.28-2.09-1-4.54-3.08-5.46-.65-.29-1.73.65-.85,1,1.61.71,2.12,2.83,2.37,4.4a11.85,11.85,0,0,1,.08,3.71,25.46,25.46,0,0,1-1,4.4,7.17,7.17,0,0,1-.57,1.38c-.05.07-.24.25-.24.32l.18-.08c1.15.34.35.09.36,0s-.15-.47-.15-.68a6.7,6.7,0,0,1,.07-1.1c.11-.86.27-1.72.35-2.58a4.64,4.64,0,0,0-.26-2.48,2.11,2.11,0,0,0-2.11-1c-.87,0-1.14,1.18-.12,1.14Z"/><path class="cls-6" d="M463.24,179.93c-.73,8-2.28,15.52-2.65,23.92s-1.06,19.42-2.37,22.55c-.68,1.61-2.75,3-4,4.23-6.85,6.5-15.35,13.14-24.15,16.76C426.24,249,416.3,249,416.3,249s-9.93,0-13.76-1.57c-5.38-2.22-10.25-6.15-15-9.44S377,230.76,374,225.87c-.93-1.51-.83-3.53-1-5.24-.6-5.56-.7-11.19-.94-16.78-.37-8.4-1.92-15.89-2.65-23.92s-1.65-41.41.73-47.81,30.5-23.55,46.2-23.55c11,0,28.18,8.45,38.23,15.71,4.27,3.08,7.27,5.94,8,7.84C464.88,138.52,464,171.89,463.24,179.93Z"/><path class="cls-7" d="M419.16,200.81c-2.14.87-3.71.9-5.12-.33-.31-.28-1.4,0-1,.41,1.86,1.63,5.39,1.39,7.33,0,.19-.14.17-.34-.06-.44s-1,.25-1.18.4"/><path class="cls-7" d="M412.3,199.91a10.77,10.77,0,0,0-4.23-.31.84.84,0,0,0-.57.33c-.09.14-.09.29.08.36a4.22,4.22,0,0,0,2.31.12.78.78,0,0,0,.62-.42c.09-.23-.17-.32-.35-.28a3.36,3.36,0,0,1-1.86-.1l-.5.69a9.65,9.65,0,0,1,3.78.29.84.84,0,0,0,.72-.23c.13-.13.24-.38,0-.45"/><path class="cls-7" d="M421.18,200.23a11.13,11.13,0,0,1,4.22-.36.88.88,0,0,1,.58.33.22.22,0,0,1-.08.36,4.22,4.22,0,0,1-2.31.15.81.81,0,0,1-.62-.42c-.09-.22.16-.32.35-.28a3.2,3.2,0,0,0,1.86-.13l.5.69a9.6,9.6,0,0,0-3.77.34.8.8,0,0,1-.72-.23c-.13-.12-.25-.37,0-.45"/><path class="cls-7" d="M406.75,200.55a4.43,4.43,0,0,1-3.72-2.18,4.77,4.77,0,0,1,1.67-5.8c.19-.14.09-.33-.11-.38a.91.91,0,0,0-.74.2,5.49,5.49,0,0,0-2.27,4.92,4.34,4.34,0,0,0,3.21,3.57,5.88,5.88,0,0,0,1.55.28c.21,0,.59-.08.69-.29s-.09-.31-.28-.32"/><path class="cls-7" d="M426.87,200.61a4.43,4.43,0,0,0,3.71-2.19,4.74,4.74,0,0,0-1.66-5.79c-.19-.15-.09-.33.1-.38a.91.91,0,0,1,.74.2,5.46,5.46,0,0,1,2.27,4.92,4.33,4.33,0,0,1-3.21,3.57,5.79,5.79,0,0,1-1.54.27c-.22,0-.6-.07-.7-.29s.09-.31.29-.31"/><path class="cls-8" d="M393.63,171.12a3.67,3.67,0,0,0-4,.72,3.52,3.52,0,0,0-1.08,1.67,3.7,3.7,0,0,0,.87,3.35,3.42,3.42,0,0,0,3.93.68,3.78,3.78,0,0,0,1.86-4.39,3.35,3.35,0,0,0-1.59-2"/><path class="cls-8" d="M440.52,171.12a3.67,3.67,0,0,1,4,.72,3.52,3.52,0,0,1,1.08,1.67,3.7,3.7,0,0,1-.87,3.35,3.42,3.42,0,0,1-3.93.68,3.79,3.79,0,0,1-1.86-4.39,3.35,3.35,0,0,1,1.59-2"/><path class="cls-8" d="M428.47,176.8s8.14-5.92,12.3-6.3c6.08-.56,13.56,2.55,15.72,5.34,0,0-9.91-4.65-14.18-4.15C438.23,172.18,428.47,176.8,428.47,176.8Z"/><path class="cls-8" d="M406.15,176.44s-8.14-5.93-12.3-6.31c-6.08-.56-13.57,2.56-15.72,5.34,0,0,9.91-4.65,14.18-4.14C396.39,171.81,406.15,176.44,406.15,176.44Z"/><path class="cls-8" d="M406.62,155.06l0,4.36c0,1.11.05,3.63,0,4.74-3.25-.95-6.18-2.37-8.29-2.78-4.17-.81-8.44-2-12.67-1.28a13.64,13.64,0,0,0-5.5,2c-.53.35-2,1.87-2.77,1.47-.33-.16.22-1.94.27-2.13,1.12-3.59,4-5.07,7.47-5.91,7.12-1.71,14.27-1.48,21.49-.46"/><path class="cls-8" d="M428.21,155.06l0,4.36c0,1.11,0,3.1,0,4.21,3.21-.95,6-2.08,8-2.48,4.11-.82,8.43-1.73,12.6-1.05a13.3,13.3,0,0,1,5.41,2c.52.35,1.95,1.87,2.73,1.47.32-.16-.22-1.94-.27-2.13-1.1-3.59-3.91-5.07-7.35-5.91-7-1.71-14-1.48-21.16-.46"/><path class="cls-8" d="M373,221s1.78,3.55,4,5c6.38,4.25,18.82,10.21,22.5,13,3.5,2.67,5.42,3.14,5.42,3.14a56.23,56.23,0,0,1,11.8-2,28,28,0,0,1,11.33,2.23s20.93-13.34,27.42-16.65c.46-.24,3.46-4,3.75-4,0,0,2.47,5.08-12,14.94-10,6.86-12.67,10.13-20.7,11.82s-19.13,1.11-24-1.17C395,243.85,377.6,231,374.87,227.67,373.13,225.51,373,221,373,221Z"/><path class="cls-8" d="M410,224.58l14.87-.57c-.33.83-1.48,7-7.82,6.36C411.45,229.78,412.65,227.06,410,224.58Z"/><path class="cls-9" d="M417.43,211.33c-7.29,0-19.12-.83-19.12-.83s2.2,16,19.12,16,19.13-16,19.13-16S424.73,211.33,417.43,211.33Z"/><path class="cls-8" d="M417.5,211.33c-3.46,0-17.45-.57-17.45-.57s4.62,9.46,17.17,9.46c13.61,0,17.61-9.35,17.61-9.35Z"/><path class="cls-10" d="M417.66,211.84c-3.47,0-14-.57-14-.57s3.8,3.69,14.21,3.69,13.71-3.59,13.71-3.59Z"/><path class="cls-9" d="M437.33,209.46c-.37-.09-2.39.56-4.12.42-2.87-.24-6.34-1-8.42-1.13-3.55-.27-5.81,1.09-7.36,1.09s-3.8-1.36-7.35-1.09c-2.08.15-5.55.89-8.43,1.13-1.72.14-3.74-.51-4.11-.42s.48,3.78,19.9,3.78S437.84,209.58,437.33,209.46Z"/><path class="cls-8" d="M415.05,204l-.52,3.35a1.17,1.17,0,0,1-1,.93c-3.41.47-16.36,2.24-19.44,2.2a.83.83,0,0,1-.22,0l-1,.86c-1.15-.23.23-3.47,1.33-3.89a75.3,75.3,0,0,1,8.28-2.89c2.3-.54,8.6-2,11.39-1.93A1.17,1.17,0,0,1,415.05,204Z"/><path class="cls-8" d="M418.29,204l1,3.44a1.18,1.18,0,0,0,1,.93c3.41.44,16.38,2.09,19.46,2l.21,0,1-.21c1.15-.24.35-2.51-.75-2.92a71.66,71.66,0,0,0-8.92-2.72c-2.31-.52-9-2-11.83-1.93A1.17,1.17,0,0,0,418.29,204Z"/><path class="cls-11" d="M369,174.79l5.48-1.15.74,1.85c1.1,3.56,4.24,10.57,5.59,12.46,1.9,2.64,21.18,2.59,24.84.17,3.34-2.21,4.87-11.7,5.76-15.28,1.24-.45,4.4-1.52,6.23-1.45a32.14,32.14,0,0,1,5.88,1.06c.88,3.23,2.39,13.37,5.86,15.67,3.65,2.42,22.94,2.47,24.84-.17,1.35-1.89,4.49-8.9,5.59-12.46l.74-1.86a2.12,2.12,0,0,1,0-.87l5.68,1.19.44-1.55-5.43-1.88c.21-.55.42-1.11.66-1.65l-4.41-1.53c-10.2-4.64-24.94-2.45-33.74,2.66a25.09,25.09,0,0,0-6.1-.91,30.3,30.3,0,0,0-6.39.89c-8.8-5.09-23.51-7.27-33.7-2.64l-4.41,1.53c.35.8.65,1.63.92,2.46l-5.5,1.9Zm56.24-2.4c8.58-4.87,24.95-6.32,34-1.55A99,99,0,0,1,452,187c-1.19,1.67-18.07,2.37-21.84-.12C427.53,185.19,426.32,177.06,425.25,172.39Zm-49.48-1.55c9.08-4.77,25.45-3.32,34,1.55-1.07,4.67-2.28,12.8-4.9,14.53-3.77,2.49-20.65,1.79-21.84.12A99,99,0,0,1,375.77,170.84Z"/><path class="cls-8" d="M463.24,179.93s-1-36.06-.87-41.93-18.07-21.36-27.54-24.7,10.82-2.25,15.79-1.32,5.31,4,5.31,4,3.21.31,4.53,1.86l1.32,1.55s4,.92,4.18,2.78.71,5.89.71,5.89,3.2-1.08,3.2,3.56.19,2.37.19,2.37,2.72,3,1.4,5.53-.9,2.17-.9,2.17a13.92,13.92,0,0,1,1.18,2.81c.57,1.83,1.66,9-.28,13.34a22.54,22.54,0,0,0-1.87,8.59Z"/><path class="cls-8" d="M369.15,179.93s1-36.06.88-41.93,18.07-21.36,27.53-24.7c9.81-3.46-10.56-2.29-15.78-1.32-5,.93-5.32,4-5.32,4s-3.21.31-4.53,1.86l-1.32,1.55s-4,.92-4.18,2.78-.71,5.89-.71,5.89-3.19-1.08-3.19,3.56-.2,2.37-.2,2.37-2.72,3-1.4,5.53.9,2.17.9,2.17a13.63,13.63,0,0,0-1.17,2.81c-.58,1.83-1.67,9,.27,13.34a22.54,22.54,0,0,1,1.87,8.59Z"/><path class="cls-8" d="M450.18,112.09s-6.42-3.53-8.37-3.26a4.24,4.24,0,0,0-2.84,1.62s-.66-2.54-3-2.24a16.81,16.81,0,0,0-3.26.62s-1.64-2-2.69-2-2.54,1.35-2.54,1.35a2.41,2.41,0,0,0-2.54-1.35c-1.8.3-2.24,1.2-2.24,1.2a2.54,2.54,0,0,0-2.84-1.24,8.51,8.51,0,0,0-3.06,1.39s-1.88-2.19-3.07-1.47l-1.2.72s-1.34-1.88-2.39-.87a11.44,11.44,0,0,1-1.79,1.47s-.45-.9-1.95-.6a5.23,5.23,0,0,0-2.09.78,7.91,7.91,0,0,0-2.69-.37c-1.2.13-1.35,1.47-1.35,1.47a2,2,0,0,0-2.89-1.1l-2,1.1a16.44,16.44,0,0,0-4,1.56c-1.34.9-.74,3.73-.74,3.73l-8.05,8.12s12.71-9.29,33-9.33a79.54,79.54,0,0,1,35.63,8.65Z"/><path class="cls-8" d="M428.48,112.8a7.52,7.52,0,0,1,3.23,1,1.08,1.08,0,0,1-.26,2c-1.13.35-2.81-.25-3.59.39s.78,1.75.26,2.59c-.32.52-1.32.69-2,1.06s-1,1.17-1.77,1.65a3.88,3.88,0,0,1-2.94.37c-1-.28-1.63-1-1.59-1.65a1,1,0,0,0,0-.53c-.44-.82-2.72.08-3.62-.55-.4-.28-.29-.73-.44-1.1a2.45,2.45,0,0,0-.78-.87l-2.18-1.79a2.06,2.06,0,0,1-.66-.73c-.25-.59.36-1.21,1.17-1.52a9.27,9.27,0,0,1,2.72-.4c3.73-.17,7.46-.25,11.19-.22"/><path class="cls-8" d="M403.51,112.13a6.93,6.93,0,0,0-3.24,1.09,1.31,1.31,0,0,0,.27,2.32c1.13.41,2.8-.29,3.59.44s-.78,2-.26,3c.32.6,1.32.79,2,1.22s1,1.35,1.76,1.9a3.41,3.41,0,0,0,2.95.43,2.09,2.09,0,0,0,1.59-1.9,1.25,1.25,0,0,1,0-.61c.44-.94,2.71.1,3.62-.63.4-.33.29-.84.44-1.27a2.84,2.84,0,0,1,.78-1l2.18-2a2.48,2.48,0,0,0,.66-.84c.25-.68-.36-1.4-1.18-1.75A8,8,0,0,0,416,112q-5.58-.28-11.18-.26"/><path class="cls-8" d="M410,114.31a6.85,6.85,0,0,0-3.23,1.09,1.31,1.31,0,0,0,.26,2.32c1.14.41,2.81-.29,3.59.44s-.77,2-.26,3c.32.61,1.32.8,2,1.23s1,1.35,1.77,1.9a3.43,3.43,0,0,0,2.94.43,2.1,2.1,0,0,0,1.6-1.91,1.22,1.22,0,0,1,0-.6c.44-.94,2.72.09,3.62-.64.4-.32.3-.84.44-1.27a2.74,2.74,0,0,1,.79-1l2.17-2.06a2.33,2.33,0,0,0,.66-.83c.25-.68-.36-1.41-1.17-1.76a8.13,8.13,0,0,0-2.72-.46c-3.72-.2-7.45-.28-11.18-.26"/><path class="cls-8" d="M440.42,208.49c1,.87,2,1.88,2.11,3.18a4.47,4.47,0,0,1-.17,1.41l-.46,2.15a.76.76,0,0,1-.17.4.75.75,0,0,1-.42.2,3.4,3.4,0,0,1-1.51.15,1.2,1.2,0,0,1-1-1,1.6,1.6,0,0,0,0-.62c-.16-.37-.69-.33-1.08-.43-1-.26-1.19-1.54-1.62-2.46a5.25,5.25,0,0,0-3.16-2.53,10.27,10.27,0,0,1-2-.74,2,2,0,0,1-1.08-1.69"/><path class="cls-8" d="M394.09,209.19c-1,.87-2,1.87-2.11,3.18a4.75,4.75,0,0,0,.16,1.4l.47,2.16a.84.84,0,0,0,.17.4.91.91,0,0,0,.42.2,3.55,3.55,0,0,0,1.51.15,1.21,1.21,0,0,0,1-1,1.62,1.62,0,0,1,0-.62c.16-.37.69-.33,1.08-.43,1-.26,1.19-1.53,1.62-2.46a5.25,5.25,0,0,1,3.16-2.53,10.27,10.27,0,0,0,2-.74,2,2,0,0,0,1.08-1.68"/><path class="cls-6" d="M385.61,26.4c.81.06-5.57,28-8.54,31s-18.44,9.12-22.92,7.51S340.56,73,338.43,74.76L313.68,55.68l8.19-10.4,8.82-26.91a24.22,24.22,0,0,1,7.23-11.13c3.7-3.17,8.45-6.25,11.06-3.9,4.76,4.27,4.15,6,4.15,6s7-2.9,6.79,3.32c0,0,8.69-2.61,9.63,5.16,0,0,9.22-1.83,7.52,9.29l-1.79,7.36S377.53,25.79,385.61,26.4Z"/><path class="cls-5" d="M350.3,50.18a13.35,13.35,0,0,1,4.47-2.55A30.38,30.38,0,0,1,372,46l-.6.35c1.22-3.38,1.88-6.43,2.59-8.58a12.29,12.29,0,0,1,1.38-3.28,17.14,17.14,0,0,1-.73,3.47,79.81,79.81,0,0,1-2.24,8.73l-.15.44-.42-.15a31.39,31.39,0,0,0-4.83-.5,34.21,34.21,0,0,0-11.91,1.86C352,49.37,350.26,50.3,350.3,50.18Z"/><path class="cls-5" d="M343.18,13.69a4.9,4.9,0,0,1,.14,1.87,7.63,7.63,0,0,1-1.65,5c-.78.93-2.18,1.19-2.76,2a3.59,3.59,0,0,0-.14,3.41,5.18,5.18,0,0,0,7,2.28l.13-.07a7.87,7.87,0,0,0,2.81-3.49c.62-1.37,1.15-2.78,1.62-4.09a62.44,62.44,0,0,0,2.11-7.2,12.27,12.27,0,0,0,.49-4.93,16.14,16.14,0,0,0-.59-1.72c.08,0,.63.41,1,1.63a11.66,11.66,0,0,1-.13,5.19,56.34,56.34,0,0,1-1.93,7.35,40.06,40.06,0,0,1-1.62,4.23,8.85,8.85,0,0,1-3.16,3.92,6.17,6.17,0,0,1-8.41-2.37c-.08-.13-.15-.27-.22-.41a4.46,4.46,0,0,1,.44-4.34,4.33,4.33,0,0,1,1.63-1.17,4.53,4.53,0,0,0,1.3-.86A7.55,7.55,0,0,0,343,15.47,8.18,8.18,0,0,1,343.18,13.69Z"/><path class="cls-5" d="M345.61,28.83a5.39,5.39,0,0,0,.29,1.32,4.57,4.57,0,0,0,2.3,2.55,5.25,5.25,0,0,0,4.94-.31,10.29,10.29,0,0,0,4.19-4.84A26.38,26.38,0,0,0,360,15.74a33.39,33.39,0,0,0-.4-5.16,12,12,0,0,1,1.07,5.1A24.44,24.44,0,0,1,358.23,28a11,11,0,0,1-4.73,5.27,6,6,0,0,1-5.81.16,4.7,4.7,0,0,1-2.35-3.09C345.32,29.31,345.55,28.81,345.61,28.83Z"/><path class="cls-5" d="M354.32,32.74a10,10,0,0,0,.49,1.12,5.29,5.29,0,0,0,2.26,2.23,5.54,5.54,0,0,0,4.54.32A8.78,8.78,0,0,0,366,32.73c2.16-3.72,2.21-7.79,2.74-10.59a19.55,19.55,0,0,1,1-4.6,19.83,19.83,0,0,1-.2,4.68c-.14,1.45-.25,3.14-.56,5.08a16.28,16.28,0,0,1-2,6,9.43,9.43,0,0,1-5,4.08,6.21,6.21,0,0,1-5.24-.63A5.17,5.17,0,0,1,354.41,34C354.14,33.22,354.17,32.71,354.32,32.74Z"/><path class="cls-5" d="M364.84,35.67a13.07,13.07,0,0,1,0,1.39,8.8,8.8,0,0,0,.34,3.61,4.46,4.46,0,0,0,3.64,3.15,4.75,4.75,0,0,0,4.35-3.74,73,73,0,0,0,3.16-12A40.38,40.38,0,0,1,377.2,23a17.84,17.84,0,0,1-.14,5.21,55.49,55.49,0,0,1-2.9,12.27,5.68,5.68,0,0,1-5.51,4.38,5.28,5.28,0,0,1-4.27-3.94,8.12,8.12,0,0,1,0-3.89A3.14,3.14,0,0,1,364.84,35.67Z"/><path class="cls-12" d="M512.66,374.8c4.14-27.92-6.16-84.9-6.16-84.9l-41.08-11.53-14.23-5.52c-25.88,9.74-57.4.89-69.39-25.8a3,3,0,0,1-.27-1.2l-22.23-8.62S333,227.38,321,217.55,297.09,173,297.09,173l47.5-98.68L311.75,50.19S215.11,166.83,220.57,188.7s79.72,127.37,79.72,127.37l21.8,86.47,23,77.66s-9.86,4.39-4.37,19.71,12.51,22,5.46,25.17c-11.38,5.18-3.89,14.33-3.89,14.33l102,12.86c10.29,1.29,67.57-5.58,77.83-7.15l8.13-8.55S508.58,402.18,512.66,374.8Z"/><g id="freepik--Character--inject-2"><path class="cls-12" d="M555.09,457.66c7.2,1.94,13.13,2.54,19.71-1.35a36.37,36.37,0,0,0,3.56-2.11,19,19,0,0,0,5.18-6.93c17.26-40.2,32-118.94,32-118.94l-32.78-13.52L545.93,394a2.55,2.55,0,0,1,.13.39,95,95,0,0,1,2,18.87c.16,5.56.19,11.13.76,16.66a64.28,64.28,0,0,0,4.31,17.22C554.33,450.13,553.76,454.77,555.09,457.66Z"/><path class="cls-12" d="M555.09,457.66c-.35-2.5,3.63-3.13,3.42-5.66-1.07-12.67-1.11-25.66,2.78-37.86,3.37-10.58,8.48-20.54,10.6-31.49l-46.07-80.37a24,24,0,0,0-15-11.31l-8.75-2.17c-2,23.89-7.77,47.39-8.1,71.42-.2,14.29,2.13,28.47,5.37,42.34a217.87,217.87,0,0,0,12.74,38.14L510,411.81C520.59,428.17,535.45,451.78,555.09,457.66Z"/><path class="cls-13" d="M561.25,260.36c-19.34-8.27-65.37,9-86.95,8.87-20.76,0-27.28,1.95-47.82-2.05-15.23-3-38.31-14.24-51.33-30.39L368.67,248c3.71,12.8,13,18.58,23.94,25.08,11.42,6.62,42.35,15.47,76.94,15.58,30.39.11,60.64-19.57,84-9.91"/><path class="cls-6" d="M610.47,299.12a133.83,133.83,0,0,0,4-13.15l-9.2-25-17.73,26s6.62,22.33,7.34,23.2C594.9,310.24,610,299.23,610.47,299.12Z"/><path class="cls-14" d="M550.53,240.27h0a38.2,38.2,0,1,1-17.32,51.17A38.2,38.2,0,0,1,550.54,240.26Z"/><path class="cls-15" d="M550.53,240.27h0a38.2,38.2,0,1,1-17.32,51.17A38.2,38.2,0,0,1,550.54,240.26Z"/><path class="cls-16" d="M548,236h0a38.2,38.2,0,1,1-17.32,51.17A38.2,38.2,0,0,1,548,236Z"/><path class="cls-11" d="M536.59,277.52a29.71,29.71,0,0,1,11-30.28,30.08,30.08,0,0,1,14.72-5.89,28.2,28.2,0,0,1,8.65.25,29.19,29.19,0,0,1,8.47,2.94,30.09,30.09,0,0,1,8,47.65,31.43,31.43,0,0,1-2.46,2.3,29.78,29.78,0,0,1-42-3.78,23.19,23.19,0,0,1-3.78-6.25,57.79,57.79,0,0,0,4.21,5.85c.56.64,1.14,1.25,1.75,1.83a29.13,29.13,0,0,0,41.18-.85,28.65,28.65,0,0,0,7.51-14.92A28.64,28.64,0,0,0,578.8,246a27.07,27.07,0,0,0-8.15-2.8,27.84,27.84,0,0,0-8.25-.3,28.94,28.94,0,0,0-22.69,15.71,29.65,29.65,0,0,0-2.59,19,61.58,61.58,0,0,0,2.09,6.9A22.2,22.2,0,0,1,536.59,277.52Z"/><g class="cls-17"><path d="M561,258.81l10.82,24.08-5.59,2.51-8.81-19.61L552.64,268l-2-4.47Z"/></g><path class="cls-6" d="M586.05,316.13l25.82,10.77,13.63-25.77s8.77-15.94,7.91-19.24a15.31,15.31,0,0,0-2.9-5.57s3.53-3.84,1.36-7.15a14.92,14.92,0,0,0-7-4.83s-.59-7.57-3.23-8.95-32.51-4.94-32.51-4.94-2.86,6.12,1.62,7.43l-5.34,1.25a5.58,5.58,0,0,0-.09.59,5.24,5.24,0,0,0,4.71,5.72l-6.5,2.26s1.64,6.07,5.83,7.14l-6.06,1.66a10.67,10.67,0,0,0,5.31,8.34c5,2.54,16-.33,16-.33l6,6.89s-15.45,12.13-19,16.89S586.05,316.13,586.05,316.13Z"/><path class="cls-5" d="M588.89,274.69a69.17,69.17,0,0,1,13-3.55,21.54,21.54,0,0,1,7.51.31,48.18,48.18,0,0,1,5.76,1.83c3.2,1.18,5.22,1.54,5.21,1.74s-2.2.19-5.51-.75c-1.81-.51-3.58-1-5.75-1.48a22.53,22.53,0,0,0-7-.15,104.2,104.2,0,0,0-12.81,3.06,14.64,14.64,0,0,1-5.49.88A32.74,32.74,0,0,1,588.89,274.69Z"/><path class="cls-5" d="M610.9,291.43l-.12,1.18a36.74,36.74,0,0,1-3.21-3.15,38.14,38.14,0,0,1-3.83-4.94l.9.22a17.9,17.9,0,0,1-7.26,1.44c-1.77,0-2.79-.18-2.79-.35s1-.22,2.75-.49a20.71,20.71,0,0,0,6.6-1.82l.54-.32.31.51a44,44,0,0,0,3.78,4.71c1,1,2.08,2.16,3.08,3.09l.75.68-.86.52c-5.73,3.14-9.38,6.62-9.58,6.3A25.35,25.35,0,0,1,610.9,291.43Z"/><path class="cls-5" d="M612.86,265.34l-5.52-1a15.13,15.13,0,0,0-3.14-.44,19.56,19.56,0,0,0-3.42.27c-4.71.73-9,2-12.06,2.74a16.26,16.26,0,0,1-5.12.89,20.81,20.81,0,0,1,4.83-1.92,73.93,73.93,0,0,1,12.15-3.2,21.43,21.43,0,0,1,3.67-.25,14.94,14.94,0,0,1,3.38.57l5.48,1.3a18,18,0,0,1,4.86,1.45A17.89,17.89,0,0,1,612.86,265.34Z"/><path class="cls-5" d="M613.32,258.31l-5.25-.65-3.1-.43-1.63-.25-.83-.1h-.73c-4.41.46-8.47,1.28-11.52,1.76a18.93,18.93,0,0,1-4.86.49,15.41,15.41,0,0,1,4.67-1.52,87.19,87.19,0,0,1,11.64-2.22,5.35,5.35,0,0,1,1,0l.84.12,1.63.26,3.1.53,5.19.94c3,.59,4.79,1.06,4.75,1.28A17,17,0,0,1,613.32,258.31Z"/></g><path class="cls-15" d="M570.77,272.45a.44.44,0,0,1-.34,0,.36.36,0,0,1-.2-.27l-.44-2.53-2,.66a.49.49,0,0,1-.36,0,.5.5,0,0,1-.23-.28l-.22-.68a.45.45,0,0,1,0-.36.45.45,0,0,1,.28-.22l2.21-.74-.65-3.68-2.21.74a.45.45,0,0,1-.36,0,.43.43,0,0,1-.22-.28l-.23-.67a.44.44,0,0,1,.29-.59l2.45-.81-.44-2.53a1,1,0,0,1,0-.34.43.43,0,0,1,.26-.23l.74-.24a.42.42,0,0,1,.33,0,.34.34,0,0,1,.2.27l.45,2.52,3-1-.45-2.53a.76.76,0,0,1,.05-.33.34.34,0,0,1,.25-.23l.74-.25a.5.5,0,0,1,.34,0,.43.43,0,0,1,.2.27l.44,2.53,1.93-.64a.47.47,0,0,1,.37,0,.46.46,0,0,1,.24.27l.22.68a.41.41,0,0,1,0,.36.48.48,0,0,1-.29.23l-2.15.72.65,3.68,2.15-.72a.52.52,0,0,1,.37,0,.41.41,0,0,1,.23.28l.23.67a.47.47,0,0,1,0,.37.48.48,0,0,1-.29.22l-2.39.8.45,2.53a.46.46,0,0,1-.32.57l-.74.25a.44.44,0,0,1-.34,0,.43.43,0,0,1-.2-.27l-.44-2.53-2.93,1,.44,2.53a.44.44,0,0,1-.31.57Zm.33-5,2.93-1-.65-3.68-2.92,1Z"/><path class="cls-6" d="M259.83,327c-.46-1.73.8-19.79.8-19.79l-26.92,2.95-26.57-5.28s-.34,20-.94,21.67-16.38,4.69-16.38,4.69,7.38,18,42.12,19.46S276.44,335,276.44,335,260.29,328.69,259.83,327Z"/><path class="cls-5" d="M207.16,305.91c.41.34,3.32,4.56,3.76,4.9,10.64,8.26,12.19,10.45,21.65,11.25,9.51,0,13.64-1.1,24.26-10.16,3.57-3.06,2.86-4.16,3.64-4.72C243.43,306.39,224.23,306.53,207.16,305.91Z"/><path class="cls-6" d="M192.23,251.68s-4.79-8.1-7.71-7.91c-1.78.11,2.14,4.27,2.45,8.8.41,6.07-4.09,6.65-2.83,10.13s2.55,15.46,7.27,15.16c1.86-.12,3.94-4.16,3.94-4.16S193.52,257.12,192.23,251.68Z"/><path class="cls-18" d="M189.66,273.8a4.52,4.52,0,0,0-4.3,3.7,3.88,3.88,0,0,0,.66,2.67,3.36,3.36,0,0,0,1.69,1.28A4.78,4.78,0,0,0,192,281c.24-.15.38-.49.1-.67a1,1,0,0,0-1,.11,2.76,2.76,0,0,1-2.5.14,3.46,3.46,0,0,1-.68-.36.5.5,0,0,1-.12-.08c.09.07-.08-.09-.11-.12l-.23-.27a3.23,3.23,0,0,1,0-4,2.8,2.8,0,0,1,.82-.68,2.07,2.07,0,0,1,.34-.15l.21-.07.15,0h.08a2.7,2.7,0,0,1,.41-.05c.29,0,.75-.21.79-.54s-.39-.42-.64-.41Z"/><path class="cls-6" d="M277.67,255.16s4.67-8.16,7.6-8c1.78.09-2.08,4.3-2.33,8.84-.33,6.07,4.18,6.59,3,10.08s-2.34,15.5-7.06,15.26c-1.86-.09-4-4.1-4-4.1S276.46,260.62,277.67,255.16Z"/><path class="cls-6" d="M283.78,260.37v0c-1.27,5.23-2.8,10.73-4,17.06-3.07,16.7-8.41,24.21-20.15,31.13-12.31,7.26-16,10.13-26.37,10.07-10.32-.84-13.77-4-25.4-12.33-11.08-7.92-15.75-15.86-17.36-32.77-.35-3.77-.86-7.26-1.38-10.57-.39-2.46-.78-4.84-1.14-7.15,0,0,0-.07,0-.1v0c-1.28-8.51-1.94-16.33.73-25.64,2.75-9.62,11.32-21.34,23.89-28.42h0a48.36,48.36,0,0,1,26-6.3c26.51,1.16,43.71,23.32,46.74,38.95C287.28,244,285.86,251.83,283.78,260.37Z"/><path d="M238.39,280.24a4.62,4.62,0,0,1-4.88-.45c-.29-.24-1.34,0-.93.29a6.51,6.51,0,0,0,6.65.49c.19-.11.16-.27,0-.36a1,1,0,0,0-.79,0"/><path d="M231.91,279.58a10.4,10.4,0,0,0-3.56-1.05.82.82,0,0,0-.55.15c-.11.09-.14.22,0,.3a4,4,0,0,0,2,.54.8.8,0,0,0,.62-.21c.11-.17-.09-.28-.25-.29a3.17,3.17,0,0,1-1.58-.43L228,279a9.16,9.16,0,0,1,3.18,1,.77.77,0,0,0,.66-.05c.13-.07.28-.24.09-.35"/><path d="M227,279.52a4,4,0,0,1-3.19-1.89,3.61,3.61,0,0,1,1.67-4.57c.17-.11.08-.26-.08-.31a.85.85,0,0,0-.66.13,4.26,4.26,0,0,0-2.17,3.85,3.61,3.61,0,0,0,2.7,3,5.15,5.15,0,0,0,1.35.28c.18,0,.52,0,.62-.2s-.07-.25-.24-.27"/><path d="M239.86,279.93a10.39,10.39,0,0,1,3.63-.73.79.79,0,0,1,.54.19c.1.1.12.23,0,.3a4,4,0,0,1-2,.36.76.76,0,0,1-.6-.26c-.1-.17.11-.27.27-.26a3.18,3.18,0,0,0,1.61-.3l.52.49a9.2,9.2,0,0,0-3.25.67.79.79,0,0,1-.65-.1c-.13-.09-.26-.27-.06-.36"/><path d="M244.73,280.3a4,4,0,0,0,3.34-1.61,3.62,3.62,0,0,0-1.26-4.7c-.16-.13-.07-.27.1-.3a.89.89,0,0,1,.65.18,4.26,4.26,0,0,1,1.82,4,3.62,3.62,0,0,1-2.95,2.74,6.26,6.26,0,0,1-1.37.16c-.18,0-.51-.09-.6-.26s.09-.25.27-.24"/><path class="cls-19" d="M249.14,243.24c0,.95-.07,1.91-.1,2.87,0,.73,0,1.46-.07,2.19,2.68-.51,5-.82,6.7-1,3.65-.41,5.52-.61,7.61-.2a21.62,21.62,0,0,1,4.77,1.59,13,13,0,0,1,2.49,1.34c1.74,1.26,2.42,2.62,2.72,2.52s-.12-1.29-.17-1.41a11.4,11.4,0,0,0-3.61-5,14.85,14.85,0,0,0-4.82-2.26c-2.06-.57-7.82-1.15-15.52-.61"/><path class="cls-19" d="M257.84,255.18a3.18,3.18,0,0,1,3.46,5.2,3,3,0,0,1-3.47.46,3.34,3.34,0,0,1-1.47-3.94,2.93,2.93,0,0,1,1.48-1.72"/><path class="cls-19" d="M247.9,259.23s6.75-4.47,10.11-4.63c4.9-.24,10.81,2.53,12.45,4.84,0,0-7.8-4.09-11.25-3.83C255.91,255.86,247.9,259.23,247.9,259.23Z"/><path class="cls-19" d="M225.55,242.31c0,1-.09,1.92-.15,2.87l-.12,2.19c-2.62-.74-4.88-1.25-6.58-1.6-3.6-.73-5.44-1.09-7.57-.86a21.06,21.06,0,0,0-4.89,1.17,13,13,0,0,0-2.59,1.11c-1.85,1.1-2.64,2.41-2.93,2.28s.24-1.28.29-1.4a11.46,11.46,0,0,1,4-4.67,15.14,15.14,0,0,1,5-1.83c2.11-.39,7.89-.47,15.51.74"/><path class="cls-19" d="M215.85,253.45a3.23,3.23,0,0,0-3.53.48,3.09,3.09,0,0,0-1,1.43,3.21,3.21,0,0,0,.64,3,3,3,0,0,0,3.42.76,3.32,3.32,0,0,0,1.8-3.79,2.94,2.94,0,0,0-1.32-1.85"/><path class="cls-19" d="M225.4,258.36s-6.34-5.05-9.67-5.5c-4.86-.67-11,1.57-12.82,3.74,0,0,8.13-3.4,11.54-2.84S225.4,258.36,225.4,258.36Z"/><path class="cls-20" d="M181.9,211.5A96.5,96.5,0,0,1,232,206.56c27.79,4.76,40.45,23,44.62,35.8a90.48,90.48,0,0,1,4.07,25.49s6.71,3.78,12.81-21.58c8.91-37-30.45-71.65-39.5-72.05S196.7,170.36,181.9,211.5Z"/><path class="cls-20" d="M187.38,200.83s-3.4-29.6,17.1-34.22,63.58-12.64,74.87,14.75Z"/><path class="cls-21" d="M183.7,261.17a17.76,17.76,0,0,1-4.13-7.83c-1.91-8-5.13-24.62-1.19-31.74,1.71-3.1,2.76-12.52,3-15.29,1.42-14.53-2.23-10.23,19-25.86s24.53-10.93,55.14-7.62,39,13.64,35.35,42.29c0,0-40.81-13.68-60.75-4s-42.41,42.7-41.52,55C188.61,266.48,185.93,263.62,183.7,261.17Z"/><path class="cls-20" d="M176.71,236.2s33-38.58,69.53-37.35c0,0-46.5-8.13-68.7,24.71Z"/><path class="cls-20" d="M291.16,201.81s-35.52-14.71-49.31-16.44,43.7,3,49,9.49Z"/><ellipse class="cls-22" cx="235.34" cy="292.25" rx="2.56" ry="12.16" transform="translate(-66.89 514.63) rotate(-87.5)"/><path class="cls-18" d="M280.79,279.16a3.25,3.25,0,0,1,3.07,2.75,3.1,3.1,0,0,1-.43,2.12,3.72,3.72,0,0,1-.33.45s-.26.25-.11.13l0,0-.21.13c-.14.1.1,0,0,0l-.26.13-.27.12c-.11,0,.1,0,0,0l-.18.05a2.6,2.6,0,0,1-.62.11,2.92,2.92,0,0,1-1.67-.45,1,1,0,0,0-1,.1c-.22.16-.39.5-.09.68a4.58,4.58,0,0,0,3.82.41,4.2,4.2,0,0,0,1.91-1.14,3.94,3.94,0,0,0,.06-5.22,4.39,4.39,0,0,0-3.07-1.4,1,1,0,0,0-.93.42c-.16.3.13.53.42.55Z"/><path class="cls-9" d="M235.73,289.75c-7-.31-18.26-1.6-18.26-1.6s1.52,16.53,17.71,17.24,18.88-15.64,18.88-15.64S242.71,290.05,235.73,289.75Z"/><path class="cls-8" d="M235.79,289.75c-3.31-.14-16.67-1.27-16.67-1.27a18.5,18.5,0,0,0,16.12,10.84c13,.57,17.15-9.29,17.15-9.29Z"/><path class="cls-10" d="M235.92,290.24c-3.32-.14-13.4-1.13-13.4-1.13S226,292.8,236,293.24s13.27-2.86,13.27-2.86Z"/><path class="cls-9" d="M254.83,288.79a26.5,26.5,0,0,1-4,.23c-2.73-.35-6-1.2-8-1.44-3.39-.4-5.6.81-7.08.75s-3.58-1.47-7-1.36c-2,.06-5.35.62-8.11.73a26.14,26.14,0,0,1-3.91-.57c-.5.09.3,3.63,18.87,4.44S255.32,288.93,254.83,288.79Z"/><path class="cls-3" d="M153.67,399.41s-9.78,26.34-7.17,38.94,18.13,28.15,18.13,28.15S169.89,413.42,153.67,399.41Z"/><path class="cls-6" d="M95.63,223.43l-2.25-16.12s4.24-20.36,3.5-23.2-2.09-16.59-2.09-16.59L80,152.74a4.94,4.94,0,0,0-4.53,3.14s-6.35-.22-7.53,4.21a3.61,3.61,0,0,0-4.82,1.74,3.45,3.45,0,0,0-.34,1.48,17.33,17.33,0,0,0-.15,4.07c-.88.26-6,1.83-6,4.44a40.5,40.5,0,0,0,2.88,11.62,4.39,4.39,0,0,0,3.35,2.48h0l2,7s2,11.59,5,16.89L72,212.94l1.49,15.79A39.92,39.92,0,0,0,95.63,223.43Z"/><path class="cls-5" d="M81.29,158.31a3.21,3.21,0,0,1-.16,1.11,23.9,23.9,0,0,1-1,2.88c-.23.63-.45,1.27-.72,2a8.07,8.07,0,0,1-1.24,2.12,6.2,6.2,0,0,1-2.1,1.74,3.68,3.68,0,0,1-2.92.26A2.07,2.07,0,0,1,72,167.36a3,3,0,0,1-.11-1.49,18.5,18.5,0,0,1,.46-2.66,26,26,0,0,1,1.49-4.27c.53-1.18,1-2,1.38-2.72a7.19,7.19,0,0,1,.61-.94,4.73,4.73,0,0,1-.45,1c-.3.64-.77,1.58-1.25,2.75a28.87,28.87,0,0,0-1.38,4.25,20.57,20.57,0,0,0-.43,2.59,2.68,2.68,0,0,0,.09,1.29,1.47,1.47,0,0,0,.91.83,3.23,3.23,0,0,0,2.58-.24,5.94,5.94,0,0,0,2-1.6,7.68,7.68,0,0,0,1.21-2c.29-.68.52-1.36.79-2,.49-1.18.89-2.13,1.09-2.81S81.27,158.31,81.29,158.31Z"/><path class="cls-5" d="M73.29,168.26a.81.81,0,0,1,0,.31,4.39,4.39,0,0,1,0,.89,7.75,7.75,0,0,1-.68,3.26,10.17,10.17,0,0,1-3,4,3.72,3.72,0,0,1-2.87.8,2.69,2.69,0,0,1-1.46-.76,2.61,2.61,0,0,1-.64-1.57A14.87,14.87,0,0,1,65,172c.18-1,.37-2,.59-2.83.45-1.78.85-3.38,1.18-4.75s.58-2.47.72-3.22a8,8,0,0,1,.29-1.19,6.25,6.25,0,0,1,0,1.22,24.7,24.7,0,0,1-.6,3.26c-.3,1.38-.68,3-1.09,4.77-.19.89-.39,1.84-.57,2.82a13.9,13.9,0,0,0-.33,3,2.27,2.27,0,0,0,.53,1.31,2.07,2.07,0,0,0,1.2.63,3.3,3.3,0,0,0,2.55-.71,10.42,10.42,0,0,0,3-3.71,9.21,9.21,0,0,0,.8-3.13A10.79,10.79,0,0,1,73.29,168.26Z"/><path class="cls-5" d="M70.44,176a2.17,2.17,0,0,1,.15.35,7.52,7.52,0,0,1,.29,1,12.14,12.14,0,0,1,.23,3.94,8.71,8.71,0,0,1-2.23,5.37,4.68,4.68,0,0,1-3.15,1.52,2.51,2.51,0,0,1-1.83-.67A3.79,3.79,0,0,1,63,185.7a49,49,0,0,1-.28-7.16l.21-5.83a28.89,28.89,0,0,0,0-3.91,14.05,14.05,0,0,1,0-1.45v.37c0,.24.08.59.1,1.06.09.92.15,2.27.15,3.94s0,3.65,0,5.81a52.44,52.44,0,0,0,.33,7.09,2.82,2.82,0,0,0,.72,1.55,2,2,0,0,0,1.51.56,4.4,4.4,0,0,0,2.8-1.39,8.57,8.57,0,0,0,2.21-5.1A16.23,16.23,0,0,0,70.44,176Z"/><path class="cls-23" d="M175,96.85l-.49-1-.58,1a4.78,4.78,0,0,1-2,1.76l-1,.47,1,.61a4.6,4.6,0,0,1,1.77,2l.47,1,.6-.94a4.57,4.57,0,0,1,2-1.76l1-.5-.94-.58A4.92,4.92,0,0,1,175,96.85Z"/><path class="cls-23" d="M205.53,88.38l-.28-.58-.34.53a2.9,2.9,0,0,1-1.13,1l-.61.28.56.34a2.59,2.59,0,0,1,1,1.13l.3.61.34-.56a2.7,2.7,0,0,1,1.13-1l.59-.27-.54-.34A2.79,2.79,0,0,1,205.53,88.38Z"/><path class="cls-23" d="M50.11,106.84l-.49-1-.59,1a4.81,4.81,0,0,1-2,1.76l-1,.5,1,.58a4.56,4.56,0,0,1,1.78,2l.47,1,.61-1a4.63,4.63,0,0,1,2-1.76l1-.49-1-.59A5,5,0,0,1,50.11,106.84Z"/><path class="cls-23" d="M55.3,69l-.81-1.7-1,1.61a8,8,0,0,1-3.31,3l-1.7.81,1.62,1A7.75,7.75,0,0,1,53.05,77l.81,1.7,1-1.61a7.71,7.71,0,0,1,3.31-3l1.7-.7-1.62-1A7.87,7.87,0,0,1,55.3,69Z"/><path class="cls-23" d="M145.51,63.74l-1.14-1.5L143.73,64a7.89,7.89,0,0,1-2.64,3.57l-1.51,1.14,1.79.65A7.82,7.82,0,0,1,144.94,72l1.14,1.5.64-1.78a7.91,7.91,0,0,1,2.65-3.57l1.5-1.14-1.77-.65A7.93,7.93,0,0,1,145.51,63.74Z"/><path class="cls-23" d="M146.28,207.91l.44-1.61-1.58.49a7.3,7.3,0,0,1-3.88,0l-1.61-.45.49,1.59a7.3,7.3,0,0,1,.05,4l-.47,1.61,1.61-.49a7.17,7.17,0,0,1,3.79,0l1.62.46-.5-1.6A7.14,7.14,0,0,1,146.28,207.91Z"/><path class="cls-3" d="M99.24,209.57,104.18,298l84.64,33.56c-.71,3.38-21.46,18.28-22.22,21.65-3.29,14.69-7.31,29.3-14.25,42.73-1.52,3-.53,16.66-2.32,19.43-1-5.93-4.35-20.74-4.35-20.74A638.26,638.26,0,0,1,70,323.48c-10.54-11.67-2.85-106.83-3.9-108.09S99.24,209.57,99.24,209.57Z"/><path class="cls-16" d="M170,149.29c3,3.23,6.14,6.33,9.08,9.72a13,13,0,0,1,3.43,10.52,14.26,14.26,0,0,1-6.23,9.58c-10,7.81-22.38,14.45-35.39,13.61a34.82,34.82,0,0,1-23-11.46c-2.46-2.6,1.61-6.43,4.08-3.82A29.24,29.24,0,0,0,139.16,187a34,34,0,0,0,16.76-2.31,64.81,64.81,0,0,0,14.3-7.9,19.39,19.39,0,0,0,6-5.4,7.4,7.4,0,0,0-1.17-8.5c-3-3.32-6.06-6.49-9.08-9.71a2.79,2.79,0,0,1,4.06-3.81Z"/><path class="cls-16" d="M108.61,91.05c-2.85-3-5.68-6.09-8.55-9.12a8,8,0,0,0-6.3-3c-3.29.19-5.25,2.57-7.22,4.87C79.48,92,73.11,102.25,73,113.33a28.9,28.9,0,0,0,8.4,19.91c2.41,2.65-1.66,6.46-4.1,3.93a35.36,35.36,0,0,1-9.78-21,39.94,39.94,0,0,1,4.11-19.84A71.8,71.8,0,0,1,82,80.6,18.73,18.73,0,0,1,90.3,74,12.89,12.89,0,0,1,102,76.18a104.84,104.84,0,0,1,10.66,11.14,2.79,2.79,0,0,1-4.06,3.73Z"/><path class="cls-16" d="M73.17,171.83l6,4h0l.09.16h.17l3.69,6.39s-9.72,10.4-13.49,21.34l-9.26-9.91-.25-.27-9.28-9.9C62.05,180.75,73.17,171.83,73.17,171.83Z"/><rect class="cls-16" x="76.06" y="160.02" width="9.35" height="29.3" rx="4.6" transform="translate(-97.53 102.21) rotate(-43.07)"/><path class="cls-16" d="M118.15,75.05l32.15,34.42,1.71,1.81,30.39,32.49c-.48.88-64.94,67.5-99.26,28.49h0C46.43,135.32,117.3,75.51,118.15,75.05Z"/><path class="cls-16" d="M73.14,201.61l-20.58-22a14.25,14.25,0,0,0-20.15-.68l-.17.15h0L72.33,222h0l.16-.15a14.27,14.27,0,0,0,.68-20.16Z"/><rect class="cls-24" x="22.97" y="176.36" width="35.15" height="73.03" transform="translate(-134.45 85.06) rotate(-43.07)"/><rect class="cls-15" x="32.41" y="186.6" width="17.23" height="51.68" transform="translate(-134.02 85.27) rotate(-43.07)"/><path class="cls-11" d="M69.7,169.67s3.16,3.55,7.17,7.83,7.27,7.74,7.33,7.68-3.22-3.5-7.15-7.78S69.74,169.67,69.7,169.67Z"/><path class="cls-11" d="M76.19,163s3.41,3.83,7.74,8.43,7.86,8.43,7.86,8.28-3.41-3.83-7.74-8.42S76.25,163,76.19,163Z"/><path class="cls-11" d="M52.76,179.55s4.26,4.74,9.6,10.53,9.82,10.25,9.82,10.25-4.24-4.73-9.61-10.53S52.8,179.51,52.76,179.55Z"/><path class="cls-25" d="M118.15,75.05v.23l.32.64,1.26,2.47.92,1.79,1.15,2.08c.84,1.49,1.74,3.22,2.88,5,.56.92,1.16,1.87,1.75,2.89s1.3,2.09,1.93,3.07l1.07,1.61c.17.27.35.56.54.83l.56.81,2.41,3.39a175.49,175.49,0,0,0,11.73,14.35,179.48,179.48,0,0,0,13.27,12.9l3.17,2.68.78.64.77.62,1.59,1.11c1,.77,2,1.56,2.9,2.14l2.75,2c1.73,1.29,3.36,2.32,4.77,3.29l2,1.31,1.71,1,2.36,1.43.62.37.22.13-.2-.15-.62-.39-2.33-1.47-1.7-1.06c-.62-.39-1.27-.86-2-1.33-1.41-1-3.05-2-4.78-3.31l-2.72-2c-.94-.68-2-1.47-2.88-2.14l-1.51-1.19-.79-.6-.76-.66-3.16-2.68A175,175,0,0,1,144.91,114a180.36,180.36,0,0,1-11.74-14.29l-2.33-3.35-.58-.81-.54-.84-1.07-1.6c-.69-1.05-1.39-2.09-1.93-3.05L125,87.18c-1.14-1.82-2.06-3.52-2.91-5-.42-.75-.82-1.43-1.17-2.08l-.93-1.76-1.31-2.45-.34-.65Z"/><polygon class="cls-15" points="132.64 124.91 118.78 129.1 107.47 120.04 107.17 134.52 95.07 142.48 108.75 147.24 112.58 161.19 121.32 149.65 135.79 150.34 127.52 138.46 132.64 124.91"/><path class="cls-25" d="M118.15,75.05l-.21.18-.61.51c-.52.45-1.3,1.1-2.29,2-2,1.72-4.79,4.27-8.13,7.58S99.68,92.64,95.7,97.41a134.92,134.92,0,0,0-11.86,16.36A87.13,87.13,0,0,0,75.23,132a55.23,55.23,0,0,0-2.07,8.6l-.16,1,0,1,0,1,0,1-.13,3.71a35.92,35.92,0,0,0,2,10.91c.43,1.24.82,2.19,1.11,2.81l.34.73.11.23a1.06,1.06,0,0,0-.09-.25,2.35,2.35,0,0,0-.32-.72c-.26-.65-.64-1.58-1.07-2.81A35.92,35.92,0,0,1,73,148.29c0-1.22,0-2.44.13-3.66l0-1,0-1,0-1,.18-1a58.58,58.58,0,0,1,2.09-8.55A87.09,87.09,0,0,1,84,113.9,138.52,138.52,0,0,1,95.86,97.56c4-4.78,7.85-8.84,11.17-12.17a106.76,106.76,0,0,1,8.15-7.61c1-.88,1.75-1.55,2.27-2l.59-.51Z"/><path class="cls-22" d="M89.71,180.27a2.54,2.54,0,0,1-.47,3.12,6.13,6.13,0,0,1-2.08,1.28l-1,.39a3.16,3.16,0,0,0,1-.23,5.14,5.14,0,0,0,2.08-1.27,2.87,2.87,0,0,0,.78-2.38,1.52,1.52,0,0,0-.28-.7C89.81,180.34,89.73,180.27,89.71,180.27Z"/><path class="cls-6" d="M93.67,183.75,77,166.74a9.17,9.17,0,0,0-1.41,10,26.62,26.62,0,0,0,6.51,8.49c-6.67,3.17-11.14,11.25-5.59,19.8"/><path class="cls-5" d="M93.24,183.33l-.91-1-3.4-3.58-11.8-12.28-.14-.15-.15.16a7.66,7.66,0,0,0-2.19,4.33,10.68,10.68,0,0,0,.41,5.11,16.3,16.3,0,0,0,3.17,5.23,48.26,48.26,0,0,0,3.71,4,15.41,15.41,0,0,0-6.24,5.95,16.32,16.32,0,0,0-2.27,6.63,14,14,0,0,0,0,3h0a15.35,15.35,0,0,1,.07-3,16.88,16.88,0,0,1,2.26-6.49,15.36,15.36,0,0,1,6.33-5.89l0,0,0,0v-.06l.18-.1-.17-.17v0h0a47.6,47.6,0,0,1-3.81-4.21,16,16,0,0,1-2.94-5.09,10.7,10.7,0,0,1-.4-4.93A7.35,7.35,0,0,1,76.92,167l11.82,12,3.49,3.51.94.91c.22.29.36.3.36.3Z"/><path class="cls-8" d="M404.74,244.35a5.33,5.33,0,0,0,2.47.83l1,.3c2.84,0,5.69,0,8.53-.19a6.14,6.14,0,0,0,2.08-.36l.19-.09c2.11.06,4.22.11,6.33.09l1-.26a6,6,0,0,0,2.47-.72.83.83,0,0,0-.21-1.54c-.86-.27-2.14.19-2.73-.29s.59-1.34.19-2c-.24-.4-1-.53-1.5-.81s-.8-.9-1.35-1.26a3,3,0,0,0-2.24-.29c-.8-.06-1.86.27-2.12-.28a.89.89,0,0,1,0-.46,1.59,1.59,0,0,0-1.22-1.45,2.6,2.6,0,0,0-2.25.32c-.55.42-.75,1.06-1.34,1.45a4.13,4.13,0,0,1-.63.32,2,2,0,0,0-.74-.43,2.63,2.63,0,0,0-2.25.32c-.56.43-.76,1.07-1.35,1.45s-1.26.48-1.51.94c-.39.73.86,1.66.2,2.28s-1.87,0-2.74.33A1,1,0,0,0,404.74,244.35Z"/><path d="M373.21,225a15.47,15.47,0,0,1,3,6.71c.89-.63,2.08.28,2.65,1.22s1.14,2.11,2.23,2.22c.64.06,1.38-.26,1.89.13s.33,1.28.5,1.94c.57,2.12,4.5,1.41,5.22,3.48.22.63.05,1.39.42,1.95.92,1.43,3.63-.2,4.72,1.11.42.51.39,1.31.85,1.79.9.93,2.63-.13,3.72.57.77.49.86,1.65,1.61,2.17,1,.68,2.41-.11,3.47.42s1.45,2.58,2.77,2.65c1,.06,1.64-1.11,2.61-1.33,1.76-.41,3.11,2.4,4.85,1.92.61-.17,1-.72,1.63-.93,1.49-.53,3,1.24,4.57.82,1.05-.29,1.74-1.55,2.83-1.53a6.83,6.83,0,0,1,1.71.6s2.06,1.19,3-.27l1-1.47a5.4,5.4,0,0,0,2.84.11c1.22-.41,2.43-2.62,2.43-2.62s3-.24,3.56-1.05,1.44-2.06,1.44-2.06a8.63,8.63,0,0,0,3.05-.67,5.1,5.1,0,0,0,1.33-2.29s3.16,0,3.71-.84a10.33,10.33,0,0,0,.95-2.45,3.66,3.66,0,0,0,2.86,0c1.36-.68,2-3.74,2-3.74a11.06,11.06,0,0,0,2.52-.75c.68-.41,1.7-3.06,1.7-3.06s4.21-1.58,3.22-2.25,0-5.95,0-5.95-2.72,4.59-4.07,5.47-3.45.23-3.87,1.43-2.67,2.48-2.67,2.48a4.67,4.67,0,0,0-3.16,1.74,13.8,13.8,0,0,0-2.2,2.86s-.12-2.59-2.31-.41a15.73,15.73,0,0,1-3.28,2.73s-2.53-1.5-3.08-.14a13.34,13.34,0,0,1-2.62,3.27s-1.65-2.05-3-.55a13,13,0,0,1-3.27,2.47l-19.88-.13a2,2,0,0,0-1.49-.7c-1,0-3-.11-3-.11s-.41-2.73-1.54-2.21a4.53,4.53,0,0,1-2.78,0,8.47,8.47,0,0,0-1.74-1.6c-.91-.57-2.49-1.37-2.49-1.37s.5-2.57-1.09-2.2a4.6,4.6,0,0,1-3.07-.55s-.09-2.3-1.28-1.9a15.31,15.31,0,0,1-2.73.54,18.71,18.71,0,0,0-1.64-2.06l-1.35-.8s-1.77-3.37-2.59-3.38-2.18,0-2.18,0-1.5-3.78-2.45-3.23-2-3.46-2-3.46A5.12,5.12,0,0,0,373.21,225Z"/><path class="cls-26" d="M516.76,420.91c0-7.65-1.2-15.35-2.12-22.93-1.36-11.06-2.84-22.11-4.16-33.18-.74-6.15-1.43-12.31-2-18.48-.07-.8-3-.21-2.9.78,2,21.26,5.35,42.34,7.52,63.58a109.45,109.45,0,0,1,.76,11c0,.75,2.9.25,2.9-.78Z"/><path class="cls-26" d="M558.16,362.75A52.52,52.52,0,0,0,548,405.17c.15.76,3.07.07,2.9-.78a51.7,51.7,0,0,1,10-41.75c.4-.51-.36-.63-.73-.62a2.75,2.75,0,0,0-1.93.73Z"/><path class="cls-27" d="M153.14,397.69a56.68,56.68,0,0,0-11-30.86c-.58-.79-3.38.19-2.69,1.13a56,56,0,0,1,10.83,30.51c0,.92,2.95.33,2.9-.78Z"/><path class="cls-27" d="M301.08,393.63a28.87,28.87,0,0,1,1.4-5.39c.51-1.59,1-3.17,1.69-4.72a20.83,20.83,0,0,1,5.42-8c.51-.44.22-1.05-.33-1.23a2.23,2.23,0,0,0-2.05.54,22.42,22.42,0,0,0-5.78,8.49c-.65,1.57-1.21,3.18-1.74,4.8a31.57,31.57,0,0,0-1.53,5.8c-.16,1.34,2.78.88,2.92-.28Z"/></g></svg>