<svg xmlns="http://www.w3.org/2000/svg" viewBox="0 0 637.33 635.77"><defs><style>.cls-1{fill:#c1e7f6;}.cls-2{fill:#1b3b53;}.cls-3{fill:#5e9fae;}.cls-4{fill:#a86e57;}.cls-5{fill:#42221a;}.cls-6{fill:#14110f;}.cls-7{fill:none;stroke:#000;stroke-miterlimit:10;stroke-width:0.54px;}.cls-8{fill:#619f52;}.cls-9{fill:#a4704b;}.cls-10{fill:#dcb68d;}.cls-11{fill:#46484a;}.cls-12{fill:#d2882e;}.cls-13{fill:#221e1f;}.cls-14{fill:#151212;}.cls-15{fill:#171413;}.cls-16{fill:#171514;}.cls-17{fill:#181615;}.cls-18{fill:#020303;}.cls-19{fill:#4e5051;}.cls-20{fill:#fff;}.cls-21{fill:#263238;}.cls-22{fill:#231f20;}.cls-23{fill:#643b29;}.cls-24{fill:#f0edf6;}.cls-25{fill:#0d1011;}.cls-26{fill:#815121;}.cls-27{fill:#385456;}.cls-28{fill:#11202c;}</style></defs><g id="Layer_1" data-name="Layer 1"><circle class="cls-1" cx="319.06" cy="340.56" r="288.85"/><path class="cls-2" d="M449.34,245.29s-24.23,18.61-33,23.25-82.14,51.75-82.14,51.75c13.74,24.63,14.3,35.42,33.24,50.92l21.83-9.8c3-1,20-9.47,22.65-11.15L437,337.75s-7.19,22.41-10,31.23-15.15,60-12.87,65.49,15.61,13.12,25.37,24.1c10.66,12,35-4.47,35-4.47l50.6-110.6,13.37-19.32a6.36,6.36,0,0,0-.26-7.6C523.65,298.42,449.34,245.29,449.34,245.29Z"/><path class="cls-3" d="M424,263c15.9,3.57,26.45,4.49,43.36,14,26.05,14.58,63.95,42.27,71.75,54,0,0,9-10.82,15.17-31.35,9.37-31.1,19.17-78.57,9.23-115.64-10.2-38-.9-77.38-.9-77.38s-40.76-13.29-48.77-11.2c-4.15,1.08-42.05,8.17-47.77,9.9-7.86,2.37-18.86,14.54-19.87,17.9-2.09,7,6.56,61.82,7.67,74.89s-6.52,30-13.89,42.87c-2.05,3.58-7.79,5.78-9.6,8.58A67.52,67.52,0,0,0,424,263Z"/><path class="cls-4" d="M529.17,97.4s-5.91,24.1-24.6,25.78c-24.47,2.22-18.3-17.86-18.3-17.86Z"/><path class="cls-4" d="M137.73,109.33s.27,15.47-3.17,22.32c-.83,1.66-12.44,6.2-12.44,6.2L152,161.75l43-6.34s-22.84-12.06-23.23-14.21,1.55-16.57,1.55-16.57"/><path class="cls-5" d="M181.66,125.06c-1.5,1.84-2.91,3.77-4.5,5.55a.2.2,0,0,0,0,.08.26.26,0,0,0-.39,0c-1.11,1.19-3.06,1.69-4.06,3-.87,1.11-.55,2.74-.76,4.16-1,.06-2.46-.15-3.75-.19-8.71-1-8.38-2.36-19.71-10.32-3.55-2.5-2.46-5.33-3.12-5.93C157.32,122.24,169.15,123.86,181.66,125.06Z"/><path class="cls-6" d="M130.89,91.09s-1.17-5.52-1.95-18.52c-.71-11.64,18.27-19.36,29.32-20,6.08-.35,25.85,4.13,30.79,7.07S196,69.85,195.63,80c0,0-2.19-10.29-8.58-10.67-5.21-.32-21.7-4.54-26.27-3.1s-14.61,4.43-16.57,20.15c-.54,4.29-7.72-1-10.07,1.4S130.89,91.09,130.89,91.09Z"/><path class="cls-4" d="M137.74,110.36l-.2-15.66,1-17.4,8.08-12.48,12.92-4.76,14,1.83s10.94,3.88,14.39,5.17,5.51,5.86,7.43,10.93.09,13,.09,13a6.85,6.85,0,0,1-.43,1.73c-1,3.16-1.52,6-2.34,8.31a6,6,0,0,0-.24,3.28c.93,4.33.73,6.13.14,8.67a31.23,31.23,0,0,1-3.33,9c-1.66,2.79-3.7,5.79-4.11,6.37,0,0-4.51,6.18-5.41,6.74a7.27,7.27,0,0,1-2.8,1c-.59,0-8.34-.27-8.34-.27l-3.57-.45a9.14,9.14,0,0,1-3.45-1.15c-2.88-1.64-11.07-6.52-13.25-8.41-2.94-2.54-5.79-12.15-5.79-12.15"/><path class="cls-6" d="M142.64,95.75c-.07,1.35-.65,6.66-.64,8l-6.91-.86c-1.6-4.81-3.54-10.47-4.2-11.78-1-2-.26-11.39,0-14.9l.06-.76c.27-3.37,4-8.37,10.1-13.38,6.66-5.52,17.7-7.89,28.12-6,1,.18,2,.39,2.93.64a34,34,0,0,1,21.09,15.89,22.45,22.45,0,0,1,2.49,16,34.08,34.08,0,0,0-1.65-13.43c-2-5.41-5-7.22-7.23-7.78a7.46,7.46,0,0,0-3.75,0,24.55,24.55,0,0,1-7.78-1c-1.72-.44-3.07-.89-3.44-1A12.4,12.4,0,0,0,167,63.07c-4.95-1.27-12.33-1.15-14.07.91-1.92,2.28-6.6,10.63-6.84,12.67"/><path class="cls-4" d="M138.36,110.77c-4.51,3.68-6.28-4.54-6.28-4.54-3.35-5.15-2.75-10.15-2.2-13.54s4.3-2.9,4.3-2.9c3.14.72,4.37,2.61,5.75,13.68"/><path class="cls-6" d="M193.44,71.29c-1.9-4-5.88-9.22-8.05-13.08-1.22-.26-7.27-1.09-8.54-1.29-12.93-2-31.23,3.46-33.44,8-1.38,2.83-2.52,19-2.12,20.48a45.56,45.56,0,0,1,1.11,9.51c1.22-6,6.29-12.18,7.07-14.19s-.86-12.11-.14-12.45,13-2.61,26.22-.89a100.2,100.2,0,0,1,11.2,2.17S193.46,71.33,193.44,71.29Z"/><path class="cls-6" d="M163.69,93.33a2.1,2.1,0,0,0-2.29.12,2.07,2.07,0,0,0-.72.86,2.13,2.13,0,0,0,.26,2,1.94,1.94,0,0,0,2.15.66,2.13,2.13,0,0,0,1.35-2.34,1.87,1.87,0,0,0-.75-1.25"/><path class="cls-6" d="M187.33,96.58a2.09,2.09,0,0,1,2.18.68,2,2,0,0,1,.49,1,2.1,2.1,0,0,1-.72,1.82,1.91,1.91,0,0,1-2.25.11,2.12,2.12,0,0,1-.74-2.59,1.86,1.86,0,0,1,1-1"/><path class="cls-6" d="M181.18,98.92s3.59-2.79,6-2.72c3.45.12,4.22,1,5.24,2.71A7.48,7.48,0,0,0,187.92,97C185.59,97,181.18,98.92,181.18,98.92Z"/><path class="cls-6" d="M170.55,96.55s-4.46-3.54-6.8-3.85c-3.42-.46-7.73,1.13-9,2.65,0,0,5.71-2.4,8.11-2S170.55,96.55,170.55,96.55Z"/><path class="cls-6" d="M171.52,85.06c-.1.81-.2,1.63-.29,2.45-.08.62-.2,2-.28,2.66-1.93-.75-3.63-1.74-4.89-2.12-2.49-.74-5-1.67-7.65-1.58a8.83,8.83,0,0,0-3.48.75c-.35.16-1.33.92-1.79.64-.18-.12.26-1.08.3-1.18.91-2,2.74-2.58,4.93-2.82a37.72,37.72,0,0,1,13.15,1.2"/><path class="cls-6" d="M195.53,90.13l-1.22-.71A28.82,28.82,0,0,0,183.37,86c-.22.79-.14,1.5-.36,2.29-.17.61-.12,1.66-.29,2.27,1.82,0,2.73-.13,3.88,0a18.71,18.71,0,0,1,6.72,1.33c.16.08,1.85.74,2,.82A2.37,2.37,0,0,0,195.53,90.13Z"/><path d="M177.67,112.07a3.84,3.84,0,0,1-3.51-.67c-.21-.17-1-.13-.68.11a5.38,5.38,0,0,0,4.78.83c.14,0,.13-.16,0-.23a.81.81,0,0,0-.57,0"/><path d="M173.08,111.16a6.33,6.33,0,0,0-2.11-.83.53.53,0,0,0-.35.07c-.07,0-.09.13,0,.18a2.28,2.28,0,0,0,1.16.43.4.4,0,0,0,.38-.1c.08-.09,0-.18-.13-.19a1.77,1.77,0,0,1-.94-.35l-.36.25a5.7,5.7,0,0,1,1.88.75.45.45,0,0,0,.41,0c.08,0,.18-.14.07-.22"/><path d="M170.08,110.88a3,3,0,0,1-2.21-1.38,2.58,2.58,0,0,1,1.46-3.16c.13-.06.08-.16,0-.2a.72.72,0,0,0-.48,0,3.16,3.16,0,0,0-1.79,2.68,2.46,2.46,0,0,0,1.8,2,5.46,5.46,0,0,0,1,.26c.14,0,.38,0,.46-.09s0-.17-.16-.19"/><path d="M179.34,111.81a.12.12,0,0,1,.13-.16,1,1,0,0,0,.71-.14l.2.32a3,3,0,0,0-1.45.33.23.23,0,0,1-.27-.08s-.1-.17,0-.22"/><path d="M178.65,111.86a3.49,3.49,0,0,1,1.62-.37.29.29,0,0,1,.22.14.12.12,0,0,1,0,.18"/><path d="M181.15,112.16a1.82,1.82,0,0,0,1.67-.9,2.72,2.72,0,0,0-.33-3,.11.11,0,0,1,.07-.19.35.35,0,0,1,.29.14,3,3,0,0,1,.63,2.57,2.08,2.08,0,0,1-1.55,1.62,1.78,1.78,0,0,1-.65.06.29.29,0,0,1-.27-.18c0-.11.06-.15.14-.14"/><path class="cls-7" d="M136.87,100.31c-2.36-7.2-4.45-7.43-4.45-7.43s-1.55,1.49-1.13,4.77"/><path class="cls-7" d="M135.73,100.85c-1.86-.35-.72,3.28-1.31,4.06s-1.09-1.47-1.1-4.14c0,0,.31-3.57,2.14-4.07"/><line class="cls-5" x1="277.96" y1="178.47" x2="287.54" y2="169.31"/><path class="cls-8" d="M320.69,629c77,0,145.93-30.28,197.72-79.42-44.91-5-103.56-10.84-141.62-12-45.38-1.4-178.81,4.78-260.56,8.63C168.4,597.75,241.56,629,320.69,629Z"/><path class="cls-4" d="M536.23,492.58v0l0,.05Z"/><g id="freepik--character-1--inject-2"><path class="cls-4" d="M210.17,299.25,223,293.81l-10.59-39.08L211,225.51,186,226.7s3.39,29.44,5.44,35.72S210.17,299.25,210.17,299.25Z"/><path class="cls-9" d="M145.45,400.23l-47.92,7.3,3.53,34.54L89.63,468.75,113,481.9s22.35-24.38,23.94-29.89c0,0,0,0,0,0a21.45,21.45,0,0,0,1.6-5.51Z"/><path class="cls-10" d="M94.66,455.63l-1.8,2.51c-4,5.66-8.67,17-10.92,23.62l-8.36,28.45a23.69,23.69,0,0,1-3.21,6.73L67,521.88l16.63,15.5,38.34-64.18Z"/><path class="cls-9" d="M225.86,427.71c.59,5.57-4.12,53.49-4.12,53.49l-30.25-2.31-2.32-39.83-17.33-35.35,41.06-21.45,11.6,40A41,41,0,0,1,225.86,427.71Z"/><path class="cls-11" d="M221.53,386.26l-27.78-90.58-26.49,5.05-17.32,5.88-12.6,6.95-56.7-10.27c-5.28.41-1.64,31.14-1.26,36.43l14,76.55s37.29,8.08,59.59,2.53L151.46,354l-2,5.93,16.1,48.66C180.47,406.63,205.92,396.89,221.53,386.26Z"/><path class="cls-12" d="M196.56,152.63l-5.32-2.46-18.42-9.06c-.45,22.89-37,14.34-41.78-7.38,0,0-19.42,3.5-32.12,7.29-4.87,1.46-12.14,6.89-14.88,11.17-6.35,9.91-11.61,32.8-17,41.19-13.52,20.88-7.76,31.15-7.76,31.15s18.18-16.65,25.68-19.86S99,216.15,99,216.15V215c-3.53,13.77-18.38,41.73-21,64.67-4.86,44-3.51,40.65-3.51,40.65s52.83,6.16,65.53-1.19,43.48-18.47,60-15.39c0,0,2.26-7.39-6.43-14,0,0-1.07-18.1-7.18-23.78L192,227.13s.51.66,3.55,1.89c7.14,2.36,21.67-3.87,21.67-3.87s-1.05-17.63-2.48-37.47C212.93,162.87,196.6,152.65,196.56,152.63Z"/><path class="cls-10" d="M189.67,461l.75,9.12c-.43,6.75,1.28,18.62,2.68,25.29l7,28a23.89,23.89,0,0,1,.69,7.25l-.34,5.86,5.77,12.07,15-8.13L224.53,459Z"/><path class="cls-4" d="M129.64,189.1l-59.39,19a19.3,19.3,0,0,0-8.94,10.43c-1.61,4.87,2.16,12.37,6,15.4,10.86,8.59,32.55-9.17,41.69-15q14-8.85,27.57-18.23Z"/><path class="cls-4" d="M125.25,190.76l9-11.85s14.7-7.76,17.56-7.33,6.6,1.42,4.71,5.53c0,0,4.32,2.56,3.19,4.94s-4.25,2.79-4.25,2.79,4.84,1.06,3.82,4.11-2.8,2.68-2.8,2.68,1.2,1.89,0,2.68a38.36,38.36,0,0,1-5.76,2.24s-5.72,5.61-9.87,7.28a20.38,20.38,0,0,1-9.23,1Z"/></g><path class="cls-4" d="M323,178.52c-1.57-.55-4.69-1.9-5.25-2l-20.12-10.39-5.36,1.69-9.5.55s-12.56,8.89-11.45,10.92c1.24,2.28,6.61-.84,6.61-.84s-2.18,9-3,11.54,2.12,5.41,3.59,2.76a38.72,38.72,0,0,0,2.47-5.45s.26,3.08,1.71,3.89,2.92-1.65,2.92-1.65l-1.43-9.09,8.32-4.06s6.44.2,7.09,2.2-1.95,3.89-2.67,3.77c-2.75-.37-10.26-.47-10.26-.47a2.2,2.2,0,0,0-.23,3.11,1.88,1.88,0,0,0,.32.31c2,1.59,12.28,3.75,12.28,3.75s9.72,5.31,12,5.58c1.41.15,4.52-1,6.71-1.85,0-.05,1.87-1.06,1.92-1.11.39.1,1.57.4,3.36.82Z"/><path class="cls-4" d="M429.63,142.2c-26.17,18.25-40.43,24-43.09,25.72S348,174.11,323,178.41v14.11c14.5,3.33,54.35,13.69,70.79,8.53,8.58-2.69,48-28.42,48-28.42Z"/><path class="cls-3" d="M449,118.21c-15.46,18.73-62.82,48.51-62.82,48.51s-4.74,26.52,9.53,37.22c0,0,64.22-27.5,67.78-34.63Z"/><path class="cls-3" d="M566.67,109.38c22.85,21.55,42.28,100,42.28,100l-31.2,15.45s-36.26-62.93-42.22-74.45C527.16,134.21,550.45,94.07,566.67,109.38Z"/><path class="cls-4" d="M320.8,402l6,89,18.09,7.54,11.1-7.82-.62-8.75a46.58,46.58,0,0,1,1.21-14.31l-.72-59.58Z"/><path class="cls-4" d="M439.29,503l27.32,64.53,22.65,11.78,6.05-9.6-1.13-3.25a54.91,54.91,0,0,1-2.73-12.34L485.7,499,463.16,501Z"/><path class="cls-8" d="M416.38,543.14l-3.4-9.83L419.5,539l1.7-13.85,2.55,13.46s2.84-13,8.79-15.26c0,0-5.1,10.79-2.83,17.32l5.5-8.36s.45,6.65,1.3,8.36,8-10.84,7.28-15.2c0,0,4.86,8.51,1.06,17.25l8.32-10.41v11.47"/><path class="cls-2" d="M369.5,370.27s3.37,10.64.2,27.38-5.43,79.45-5.43,79.45-43.15.06-44.72-2.33-4.85-91.43-4.38-108.65-.19-37.3,21.66-47.1h0l32.67,51.25"/><path class="cls-2" d="M472.83,449.82s10.12,23.11,11.81,40.06S497,553.53,497,553.53s-37.68,8.8-39.86,7-34.56-92.19-39-108.84-9.34-26.16,8.84-41.74h0l45.84,39.92"/><path class="cls-3" d="M386.62,166.84l-59.8,8.95s3.6,16.41-2.09,19c0,0,42.55,16.05,68.25,9.67a7.94,7.94,0,0,0,3.44-.84C398.62,202.67,386.62,166.84,386.62,166.84Z"/><path class="cls-3" d="M576.38,220.65s-5.46,23-7,30.4c-2,9.65-12.93,52.15-12.93,52.15s19,6.32,24.68,10.58c0,0,28.23-79.55,29.44-84.31s-.56-15-2.31-23.58S576.38,220.65,576.38,220.65Z"/><path class="cls-4" d="M488.79,109.26a17.25,17.25,0,0,0,4.49,3.85,16.63,16.63,0,0,0,6.86,1.86l2.66.09a21.19,21.19,0,0,0,5.61-.57l4.55-1.08a22.06,22.06,0,0,0,2.46-1c6.5-3.06,12.14-8.18,13.75-15-9.09-11.52-4.75-29-4.75-29l-40,13.46s2.36,19.55,1.92,22c0,.14.1,1.25-.08,1.45C486.56,107.17,487.58,107.89,488.79,109.26Z"/><path class="cls-4" d="M498.5,99.2l-14.09.92-7.17-.87c-.71.08-4.54-6.79-5.12-7.65a59.86,59.86,0,0,1-5.39-9.17c-1.33-3.19-3.7-5.83-4.61-9.75-.67-2.86-.89-4.9.18-9.79a6.65,6.65,0,0,0-.27-3.71c-.91-2.65-1.46-5.81-2.6-9.38a7.72,7.72,0,0,1-.49-2s-2.22-15.14,0-20.86a16.42,16.42,0,0,1,9.92-10.09c3.9-1.44,15.78-2,15.78-2l16.07-4,14.58,5.42,8.79,16.12,1,19.66-.27,17.68"/><path class="cls-6" d="M521.06,51.55c.08,1.52-1,9.25-1.06,10.74l7.8-.95c1.83-5.43,4-11.81,4.79-13.29,1.17-2.31-1.75-13-2.07-17l-.07-.86c-.3-3.81-4.55-9.47-11.37-15.14-12.67-10.56-11.91-9.86-29.67-6.76-1.12.19-2.23.43-3.3.7-10.15,2.58-20.51,4.51-26.2,13.8-4.1,6.7-2.42,2.12-1.58,6.41-.59-8.57,1.34-6.17,2.13-7.26,4.57-6.41,7.76-.4,10.26-1a8.52,8.52,0,0,1,4.23,0A20.3,20.3,0,0,0,482.5,20c1.94-.49,6.8-2.13,7.22-2.26,1.23-1.06-.44-6.09,2-6.7,5.59-1.42,13.61.29,16.48,1.29,3.4,1.17,11.48,3.65,11.29,12.46"/><path class="cls-6" d="M479.35,97.65a.58.58,0,0,0,.26-.13c1.38-1.14,1.44-1.71,2.15-2a4.41,4.41,0,0,1,.76-.26c2.08-.51,3.33-.86,9.35,2.12.12.06,7.41-1.65,7.55-1.68l3.62-2.2c.6-.46,13.62-14,13.62-14,.17-.43,2.46-3.56,2.52-4a.57.57,0,0,1,.13-.08l.08,0,0,.08a2.74,2.74,0,0,1,.07.5,8.64,8.64,0,0,1-.17,2.15c-.22,1.1-.3,2.2-.48,3.29-.06.39-.15.77-.24,1.15-1.52,1.19-10.51,15.32-16.11,18.86a26.16,26.16,0,0,1-4.74,1.22c-6,1.14-11.84,1.75-18,.65a5.43,5.43,0,0,1-3.75-2.64c-2.21-3.93-7.68-12.26-9.3-18.3,2,3.39,6.89,10.24,9.83,15.18a19.9,19.9,0,0,0,2.6.08"/><path class="cls-4" d="M524,72.36c5.09,4.16,7.12-5.12,7.12-5.12,3.79-5.8,3.13-11.44,2.52-15.28s-4.85-3.29-4.85-3.29c-3.55.81-4.94,2.93-6.54,15.44"/><path class="cls-6" d="M532.59,48.05s2.6-13.09-1.54-25.59S512.62,5.36,505.76,5s-30.71,4.65-36.29,8-13.81,5.69-11.34,20.75c0,0-2-14.49,14.51-16.42,5.85-.69,20.85-6.29,28.76-7.58,3.28-.54,15,6.52,16.64,8.24,3.69,3.92-2.87,14.45,4.11,27.45,2.31,4.3,4.13-3.81,6.78-1.11S532.59,48.05,532.59,48.05Z"/><path class="cls-13" d="M525.58,61.54a26,26,0,0,1,2.83-6.32,5.65,5.65,0,0,1,1.81-1.92l.1,0c.08,0,0,0,0,0s0,0,0,0l-.24,0a4.18,4.18,0,0,1,.8,1.29,8,8,0,0,1,.45,4.1c0,.23.58.12.61-.08a7.74,7.74,0,0,0-.73-4.76c-.21-.37-.45-.93-.94-.81-1.23.3-2.15,1.73-2.75,2.72a28.68,28.68,0,0,0-2.59,6c-.07.2.54.12.61-.08Z"/><path class="cls-13" d="M526.55,62.43c1.23-.2,1,1.75,1,2.5,0,.58-.24,2.39.76,2.35.49,0,.71-.56.84-1a11.12,11.12,0,0,0,.43-2.63,9.58,9.58,0,0,0-.22-3.25c-.32-1.25-.93-2.79-2.29-3.2-.26-.08-.72.3-.35.41,1.14.35,1.66,1.65,2,2.7a8.28,8.28,0,0,1,.33,2.52,17.24,17.24,0,0,1-.29,2.78,4.25,4.25,0,0,1-.28.94,2.18,2.18,0,0,0-.14.25s.13,0,.13,0l-.1-.1a11.54,11.54,0,0,1-.16-2.82c0-1-.32-2.12-1.57-1.93-.33.06-.46.52-.05.46Z"/><path class="cls-6" d="M493,53.22a2.37,2.37,0,0,1,2.59.15,2.27,2.27,0,0,1,.81,1,2.35,2.35,0,0,1-.3,2.19,2.17,2.17,0,0,1-2.43.74,2.4,2.4,0,0,1-1.52-2.64,2.13,2.13,0,0,1,.85-1.41"/><path class="cls-6" d="M467.17,56.55a2.39,2.39,0,0,0-2.48.77,2.3,2.3,0,0,0-.55,1.14,2.37,2.37,0,0,0,.81,2.06,2.2,2.2,0,0,0,2.54.13,2.41,2.41,0,0,0,.84-2.93,2.13,2.13,0,0,0-1.16-1.17"/><path class="cls-6" d="M475,59s-4-3.16-6.71-3.08c-3.9.12-4.78,1.1-5.93,3a8.45,8.45,0,0,1,5.05-2.16C470.06,56.82,475,59,475,59Z"/><path class="cls-6" d="M487.43,56.57s5-4.07,7.62-4.46c3.86-.57,8.74,1.15,10.21,2.85,0,0-6.48-2.62-9.18-2.14S487.43,56.57,487.43,56.57Z"/><path class="cls-6" d="M485.45,44.7c.11.92.23,1.84.35,2.76.1.71.26,2.31.35,3,2.14-.87,4-2,5.41-2.44,2.77-.87,5.58-2,8.51-1.86A9.72,9.72,0,0,1,504,47c.39.18,1.49,1,2,.7.21-.13-.3-1.21-.35-1.32-1-2.19-3.09-2.89-5.52-3.13a41.6,41.6,0,0,0-14.63,1.48"/><path class="cls-6" d="M459.13,48.84l1.55-.58a35.49,35.49,0,0,1,13.38-1.93c.11.92.22,1.85.32,2.77.08.7.27,2,.35,2.67-2.11-.36-4-.86-5.29-1-2.67-.2-5.48-.45-8.07.31-.21.06-1.31.4-1.5.47C458.88,50.42,458.79,49.09,459.13,48.84Z"/><path class="cls-6" d="M489.67,88,479.2,89.16s2.79,2.54,5.31,2.23C486.08,91.2,488.18,89.79,489.67,88Z"/><path d="M479.86,73.78a4.3,4.3,0,0,0,4-.74c.24-.19,1.1-.14.77.13a6.08,6.08,0,0,1-5.41.92c-.15-.06-.14-.18,0-.26a1,1,0,0,1,.64,0"/><path d="M485,72.78a7,7,0,0,1,2.39-.93.53.53,0,0,1,.39.07c.08.06.11.15,0,.21a2.55,2.55,0,0,1-1.31.48.49.49,0,0,1-.44-.11c-.09-.11,0-.2.15-.21a2.12,2.12,0,0,0,1.06-.4l.41.29a6,6,0,0,0-2.13.84.51.51,0,0,1-.45,0c-.1,0-.21-.16-.09-.24"/><path d="M488.43,72.47a3.39,3.39,0,0,0,2.51-1.56c.59-1.24-.31-3-1.64-3.54-.15-.06-.09-.18,0-.22a.79.79,0,0,1,.55,0,3.53,3.53,0,0,1,2,3,2.79,2.79,0,0,1-2,2.3,5.54,5.54,0,0,1-1.08.29c-.15,0-.43,0-.52-.1s0-.19.18-.21"/><path d="M478,73.49a.14.14,0,0,0-.15-.18,1.18,1.18,0,0,1-.81-.16l-.22.36a3.39,3.39,0,0,1,1.63.38.29.29,0,0,0,.31-.09c.06-.06.11-.2,0-.26"/><path d="M478.75,73.54a3.84,3.84,0,0,0-1.82-.41.34.34,0,0,0-.26.15.15.15,0,0,0,0,.21"/><path d="M475.93,73.88a2.06,2.06,0,0,1-1.88-1,3.09,3.09,0,0,1,.37-3.37.12.12,0,0,0-.07-.21.38.38,0,0,0-.33.16,3.38,3.38,0,0,0-.72,2.9A2.38,2.38,0,0,0,475,74.18a2.3,2.3,0,0,0,.74.06.32.32,0,0,0,.3-.2c0-.13-.06-.17-.15-.16"/><path class="cls-6" d="M497.07,77a3.18,3.18,0,0,1,1.49,1.77,3,3,0,0,1,0,.85L498.42,81a.52.52,0,0,1-.07.25.47.47,0,0,1-.24.15,2,2,0,0,1-.9.19.71.71,0,0,1-.67-.53,1.15,1.15,0,0,0-.06-.37c-.13-.21-.44-.15-.68-.18-.62-.09-.83-.84-1.15-1.37a3.18,3.18,0,0,0-2.07-1.3,5.84,5.84,0,0,1-1.23-.31,1.21,1.21,0,0,1-.77-.93"/><path class="cls-6" d="M470.69,79.72a3.09,3.09,0,0,0-1.05,2.06,3,3,0,0,0,.2.83l.43,1.26a.48.48,0,0,0,.13.23.48.48,0,0,0,.27.09,2.15,2.15,0,0,0,.91,0,.73.73,0,0,0,.54-.68.93.93,0,0,1,0-.37c.07-.24.39-.25.62-.34.58-.22.61-1,.81-1.59a3.19,3.19,0,0,1,1.72-1.74,6,6,0,0,0,1.12-.58,1.2,1.2,0,0,0,.53-1.09"/><path class="cls-6" d="M469.77,20a3.61,3.61,0,0,1,1.65-.77l.65-.28q3-.33,5.94-.5a4.49,4.49,0,0,1,1.47.09l.14.06c1.45-.21,2.92-.39,4.38-.54l.69.11a4,4,0,0,1,1.77.32.57.57,0,0,1,0,1.08c-.58.25-1.5,0-1.88.41s.51.88.29,1.36c-.14.29-.66.44-1,.67s-.48.68-.84,1a2,2,0,0,1-1.53.36c-.55.1-1.32-.05-1.45.35a.58.58,0,0,0,0,.32,1.12,1.12,0,0,1-.74,1.1,1.82,1.82,0,0,1-1.58-.05c-.42-.26-.61-.69-1.05-.91a2.75,2.75,0,0,0-.46-.17,1.45,1.45,0,0,1-.48.35,1.82,1.82,0,0,1-1.58-.06c-.42-.25-.61-.68-1.05-.91s-.91-.23-1.11-.53c-.33-.48.47-1.22,0-1.6s-1.31.12-1.93,0A.69.69,0,0,1,469.77,20Z"/><path class="cls-6" d="M491,97.33a3,3,0,0,1-1.38.51l-.54.18c-1.61,0-3.22.06-4.83,0a3.55,3.55,0,0,1-1.18-.17l-.11-.05q-1.79.11-3.57.15l-.55-.14a3.33,3.33,0,0,1-1.41-.37.47.47,0,0,1,.09-.87c.49-.17,1.21.08,1.55-.21s-.36-.75-.15-1.11.56-.32.84-.48.44-.52.74-.74a1.65,1.65,0,0,1,1.26-.19c.45,0,1.06.12,1.2-.19a.46.46,0,0,0,0-.26.91.91,0,0,1,.67-.84,1.47,1.47,0,0,1,1.28.15c.32.23.44.59.78.8a3,3,0,0,0,.36.17,1.15,1.15,0,0,1,.41-.26,1.53,1.53,0,0,1,1.28.15c.32.23.44.59.78.8s.72.25.87.51-.46,1-.08,1.29,1.06,0,1.55.15A.57.57,0,0,1,491,97.33Z"/><path class="cls-14" d="M531.9,48.93a3.62,3.62,0,0,0,1.71-.53,1.29,1.29,0,0,0,.5-1.57C533.65,46,532,46,532.05,45c.71-1,2.6-.79,3-2,.28-.94-.77-1.7-1.66-2.13.54-.61.41-.09,1.19-.36s1.05-2.22.54-2.86-.8-.09-.58-1c.61-.25-.82-.66-.38-1.16a1.49,1.49,0,0,0,.22-1.82c-.48-.64-1.64-.78-1.69-1.58s.79-1,1.15-1.61c.65-1.06-.46-2.31-1.45-3.05a4.73,4.73,0,0,0,1.33-1.42,1.58,1.58,0,0,0-.19-1.82,7.49,7.49,0,0,0-1-.6c-1.38-.91-.78-3,0-4.49a2.35,2.35,0,0,1-2.62-1.71,7.71,7.71,0,0,0-.31-1.59c-.24-.48-1-.77-1.3-.32"/><path class="cls-6" d="M531.8,49.35c1.14-.16,2.7-.48,3.09-1.76a1.26,1.26,0,0,0-.41-1.41c-.37-.34-1.23-.47-1.49-.88-.4-.62,1-.87,1.46-1.08a2.33,2.33,0,0,0,1.14-.91c.72-1.27-.69-2.24-1.67-2.74v.49s-.66.09-.11,0c.16,0,.32,0,.49,0a2.14,2.14,0,0,0,1-.42,2.61,2.61,0,0,0,.77-2.11,2,2,0,0,0-.18-.87c-.14-.27-.6-.46-.7-.67,0,0-.1,0-.1-.09s.24-.17.25-.26a.54.54,0,0,0-.1-.5c-.12-.2-.43-.28-.43-.53,0-.42.52-.79.49-1.34-.07-1-.87-1.09-1.5-1.67-1-.9.85-1.72.93-2.76s-1-2-1.7-2.6l-.09.42c1-.84,2.48-2.42,1.19-3.7-.73-.71-1.62-.69-1.74-1.9a5.34,5.34,0,0,1,.73-2.83c.19-.4-.31-.47-.59-.45-1.21.12-1.88-.87-2-1.89-.11-.63-.1-1.27-.67-1.68a1.81,1.81,0,0,0-2.21.24c-.64.57.82.59,1.19.26-.18.16.19,1.68.28,2a2.62,2.62,0,0,0,.76,1.24,3.14,3.14,0,0,0,2.5.69l-.59-.44c-.56,1.15-1.2,2.69-.65,4,.28.65.77.83,1.31,1.2,1.48,1,.36,2.25-.64,3.06-.11.08-.24.31-.09.42,1.05.84,2.14,1.95,1,3.19-.41.46-1,.92-.73,1.62s1.26.81,1.64,1.42c.56.89-.55,1.39-.22,2.16a1.57,1.57,0,0,0,.43.46c.21.19.11-.4.09,0,0,0-.13.16-.15.22-.23.72.08.65.48,1s.58,2,.06,2.35c-.07.06-.66,0-.77.07a1.85,1.85,0,0,0-.77.52c-.16.16-.23.38,0,.5,1.11.56,2.32,1.83.62,2.49-.62.24-1.56.49-1.92,1.11s.09,1,.54,1.26.72.3,1,.53c1,.8,0,1.68-1,1.82-.72.1-1.22,1-.2.84Z"/><path class="cls-15" d="M528.89,18.14c-.23-.71-1.19-4.09-1.41-4.8a1.63,1.63,0,0,1-2.23-1.18c-.07-.48,0-1.1-.39-1.35s-1,.17-1.45.19C522.3,11,522,9.25,520.91,9c-.67-.18-1.39.3-2.07.14-1-.23-1.32-1.72-2.32-2.06-.69-.23-1.45.19-2.17.06-1.56-.29-2.07-2.88-3.65-2.76-.58,0-1.08.48-1.66.48-1,0,.4-1.22-.63-1.27s-1.62,1-2.55,1.19c-1.53.3-3-1.79-4.36-1.09-.59.31-.87,1-1.45,1.37-1.35.76-3-1.14-4.47-.65-.74.24-1.22,1-2,1.21-1.18.26-2.24-1.15-3.44-1-.95.15-1.57,1.28-2.54,1.3-.68,0-1.26-.51-1.94-.55-1.15-.07-1.9,1.26-3,1.6-.93.28-1.9-.19-2.86-.34S477,8.48,477,9.45"/><path class="cls-6" d="M529.62,17.94c-.49-1.59-.91-3.2-1.41-4.8-.09-.31-.84-.08-1,0-.75.27-1.19-1-1.25-1.46s0-.84-.41-1.12a1.33,1.33,0,0,0-.83-.14c-.84,0-1.21.29-1.8-.46S522,8.62,521,8.57c-.67,0-1.38.39-2,0s-.75-.94-1.14-1.34a1.94,1.94,0,0,0-.91-.56c-.75-.2-1.58.24-2.28,0-1-.3-1.4-1.47-2.08-2.11a2.2,2.2,0,0,0-2.15-.53,9.62,9.62,0,0,1-1.1.35c-.13-.2.26-.65.13-.91-.29-.55-1.32-.3-1.78-.15a6.64,6.64,0,0,0-1.18.62c-.94.53-1.32.26-2.23-.21A3.66,3.66,0,0,0,502,3.19a3,3,0,0,0-1.08.39c-.55.34-.93,1.21-1.62,1.2-1,0-1.83-.85-2.86-.85s-1.67.64-2.56,1.11-2.1-.78-3.13-.79a3.39,3.39,0,0,0-1.18.23c-.67.25-1.29,1.07-2,1-.53,0-1-.45-1.57-.46a3.46,3.46,0,0,0-1.45.33,13.71,13.71,0,0,0-1.34.91c-1.11.69-1.9.08-3,0-1.67-.08-3.84,1.67-3.94,3.37,0,.3,1.45.1,1.48-.39a2.47,2.47,0,0,1,.66-1.34,3.06,3.06,0,0,1,.75-.73c.44-.23.58-.13,1.09,0A4.56,4.56,0,0,0,483.31,7a12.86,12.86,0,0,0,1.16-.76c.49-.29.42-.56,1.26-.43.31.05.63.29.95.36a3.11,3.11,0,0,0,2.31-.5c.63-.39.92-.84,1.73-.56.49.17.9.51,1.41.67a3.1,3.1,0,0,0,2.5-.37c.5-.31.83-.84,1.48-.78a6.29,6.29,0,0,1,1.44.55,3.46,3.46,0,0,0,2.51.12c.91-.33,1.46-1.61,2.43-1.27s1.68,1,2.78,1a4.74,4.74,0,0,0,2.3-.9c1-.55,0,.42.57.85s1.55-.24,2.16-.31c1-.13,1.68,1.4,2.31,2a2.52,2.52,0,0,0,2.16.69,2,2,0,0,1,1.94.58,4.43,4.43,0,0,0,1.18,1.26c1.16.6,2.39-.42,3.32.76.59.75,1,1.39,2.08,1.29.14,0,.35-.09.5-.09.27-.18.48-.11.63.22a4.07,4.07,0,0,1,.07.61,1.78,1.78,0,0,0,.66,1.33,2.65,2.65,0,0,0,2.6.17l-1,0c.49,1.59.91,3.21,1.41,4.8.13.41,1.6,0,1.47-.4Z"/><path class="cls-16" d="M477.27,8.18a5.34,5.34,0,0,1-4.06-.11,2.21,2.21,0,0,1-2.27,2.37,10,10,0,0,0-1.42-.22c-1.67.11-2.57,2.89-4.17,2.39.74.45.24,1.64-.48,2.12s-1.69.78-2,1.59c-.11.28-.11.6-.24.88a2.3,2.3,0,0,1-.8.81A9.4,9.4,0,0,0,459,21.72c-1.07,2.51-1.84,4.69-1,10.83-1-7.37,1.88-8.66,3.55-10.89,1.41-1.9,4.28-2.54,6.29-3.8a20,20,0,0,1,6.56-2.27c7-1.45,14.31-5.69,21.41-6,6-.26,11.07-.89,16.86.84s8.26,3.51,11.47,8.63"/><path class="cls-6" d="M477.13,7.67a4.73,4.73,0,0,1-3.49-.11c-.35-.14-1.19.06-1.18.56a1.65,1.65,0,0,1-.86,1.69c-.48.19-1-.06-1.47-.12a2.91,2.91,0,0,0-1.64.3c-.83.42-2,2.27-2.89,2.07-.5-.11-1.37.49-.82,1,.27.23.07.83-.09,1.06a2.76,2.76,0,0,1-.87.6,4.91,4.91,0,0,0-1.09.75,2.72,2.72,0,0,0-.56.78c-.11.24-.12.51-.24.75a2.38,2.38,0,0,1-.73.82,11.26,11.26,0,0,0-3.26,4.72c-1.3,3.31-1.15,6.75-.71,10.22l1.48-.39c-.31-2.28-.42-4.77.63-6.89a14.76,14.76,0,0,1,2.36-3A8.39,8.39,0,0,1,464,20.37c1.15-.64,2.41-1.09,3.57-1.72A21.57,21.57,0,0,1,471.11,17c1.52-.49,3.09-.75,4.63-1.14,5.91-1.48,11.41-4.45,17.46-5.42a67.39,67.39,0,0,1,8.87-.56,32.27,32.27,0,0,1,9.69,1,20.89,20.89,0,0,1,6.9,3,19.5,19.5,0,0,1,4.77,5.57c.36.57,1.77,0,1.35-.66a21.35,21.35,0,0,0-4.54-5.43,18.88,18.88,0,0,0-5.94-3C508.08,8.26,501.45,8.55,495,9.1s-12.47,3.76-18.72,5.48c-3,.83-6.05,1.25-8.81,2.84-2.23,1.29-4.89,2-6.58,4A23.55,23.55,0,0,0,458,25.09c-1.24,2.34-1.13,5.11-.79,7.65.09.69,1.57.33,1.48-.39-.49-3.84-.52-7.55,1.25-11.08a9.6,9.6,0,0,1,2.53-3,3.25,3.25,0,0,0,.86-.95c.3-.64.31-1.17,1-1.62,1.07-.72,3.17-2.1,1.59-3.49l-.82,1a2.54,2.54,0,0,0,2.13-.55c.74-.56,1.39-1.76,2.39-1.82.53,0,1.05.25,1.6.2a3.14,3.14,0,0,0,1.33-.45A2.82,2.82,0,0,0,474,8l-1.17.56a6.48,6.48,0,0,0,4.61.12c.89-.29.63-1.33-.27-1Z"/><path class="cls-14" d="M469.58,88.76a15.21,15.21,0,0,0,2.1,4.06c-.54.22-.24,1.06.22,1.41s1.08.72,1,1.3c0,.2-.15.37-.17.57-.08.63.72,1,1.34,1.07-.39.35,0,1,.45,1.29s1,.66.9,1.18c-.05.25-.27.47-.24.73.05.54.94.47,1.27.9.19.25.14.6.24.9a1,1,0,0,0,1.56.39c.21,1.09.79,2.46,1.88,2.32.68-.09,1.28-.79,1.92-.56.4.14.6.59,1,.79,1.25.67,2.54-1.94,3.79-1.27.67.36.74,1.49,1.48,1.68s1.25-.67,2-.8,1.62.58,2.29.16c.29-.18.43-.52.67-.76.55-.55,1.21.17,2,.34,1.36.31,1.4-.65,1.4-.65.32-1,.84-.93,1.76-.51a2.19,2.19,0,0,0,.93.37c.82,0,1.1-1.41,1.92-1.4a2.75,2.75,0,0,1,.85.32,1.38,1.38,0,0,0,1.54-2,2.29,2.29,0,0,0,2-2.63,2.08,2.08,0,0,0,2.46-2,2,2,0,0,0,2.08-2.73,1.64,1.64,0,0,0,2-1.67c-.06-.52-.33-1.16.08-1.49s.66-.11,1-.14a1.33,1.33,0,0,0,1-1.89,1.79,1.79,0,0,0,1.56-2.79A1.44,1.44,0,0,0,517,83.06a2.17,2.17,0,0,0,1.38-3.33L502.82,98.37l-4.2,2.32s-15.32,2.58-18.33,1.49S469.58,88.76,469.58,88.76Z"/><path class="cls-6" d="M468.84,89a15.84,15.84,0,0,0,1.75,3.55,1,1,0,0,1,.22.52c0,.07-.14.21-.14.31a1.32,1.32,0,0,0,.3.91c.3.38.84.55,1.06,1s-.14.84,0,1.3a1.16,1.16,0,0,0,.68.66c.11.06.43.11.5.19s0,.28,0,.35a2.07,2.07,0,0,0,.63,1c.17.15.39.24.54.4.43.45.26.54.18,1-.16,1,.42.66,1,1.24s.22,1.49,1.32,1.71a2.68,2.68,0,0,0,1.92-.48l-1.3.16c.26,1.22.84,2.56,2.3,2.43.46,0,1.34-.66,1.71-.6.15,0,.51.57.68.68a1.47,1.47,0,0,0,.76.26,3,3,0,0,0,1.32-.28c.58-.24,1.06-.88,1.62-1.06.41-.13.47.07.76.52a5.76,5.76,0,0,0,.37.63,1.37,1.37,0,0,0,1.33.49,6.63,6.63,0,0,0,1.6-.65c.66-.23,1.34.22,2.06.11a2,2,0,0,0,1.31-.57c.27-.4-.11-.52.53-.25a3.42,3.42,0,0,0,1.15.35,2.33,2.33,0,0,0,2.25-.94c0-.08.17-.5.18-.51-.06.23-.71-.37-.06.09a4.29,4.29,0,0,0,.72.33,2,2,0,0,0,1.46.07,2.86,2.86,0,0,0,1.42-1c.36-.42,0-.19.41,0a1.68,1.68,0,0,0,.89.08c1.19-.14,2.68-1.15,2-2.5l-.87.48c1.61-.25,3.08-1.33,2.88-3.12l-1.34.49c1.67.24,3.69-.61,3.8-2.49l-1.21.51c1.74.16,4-1.23,3.29-3.24l-1.34.49a3.25,3.25,0,0,0,2.57-.61,1.88,1.88,0,0,0,.75-1.17c.09-.63-.34-1.24.08-1.8l-.47.31c.61-.25,1.27-.07,1.88-.52a1.52,1.52,0,0,0,.57-1.88l-1.21.5c1.64.11,4.08-1.46,2.78-3.3l-1.21.51c1.34,0,3.5-1.12,2.43-2.74l-.88.49c1.72-.34,3.46-2,2.26-3.82-.22-.33-1.21,0-1.41.25l-7.05,8.46-5.18,6.2a44.6,44.6,0,0,0-3.12,3.75c-.06.08-.13.15-.19.22.15-.17.29-.16,0,0s-.5.27-.74.41l-1.68.93a6.94,6.94,0,0,0-1.44.79c-.23.22.75-.11.26-.08-.29,0-.59.1-.88.14q-1.59.25-3.18.48c-3,.43-5.93.81-8.92,1-2,.13-4.19.46-5.8-.89-2.4-2-4.24-4.83-6-7.38-1.19-1.71-2.35-3.45-3.45-5.22-.23-.37-1.61.19-1.48.4a71.93,71.93,0,0,0,8.57,11.76,6.71,6.71,0,0,0,2.22,1.74,8,8,0,0,0,2.76.3,71.19,71.19,0,0,0,8.86-.73c2.31-.29,4.62-.6,6.92-1,1.7-.3,3.38-1.57,4.86-2.42a9.25,9.25,0,0,0,2.1-2.26l4.93-5.91,9-10.75-1.41.25a2,2,0,0,1,.34,1.55c-.08.4-.4,1.21-.85,1.3-.05,0-1,.26-.87.48a1.25,1.25,0,0,1,.27.72,4.64,4.64,0,0,1-.27,1c-.13,0-1.4.24-1.21.5a1.59,1.59,0,0,1,.33,1c0,.24-.29,1.34-.69,1.31-.17,0-1.35.19-1.21.51.22.53.1,1.25-.27,1.38s-.94.06-1.4.34a1,1,0,0,0-.53.82c0,.38.48,2.32-.5,2.16-.2,0-1.49.11-1.35.49.21.54.17,2.32-.86,2.22-.29,0-1.19.11-1.21.51s-.36,1.62-1.12,1.51c-.26,0-1.39.06-1.34.49.08.73-.21,2-1.14,2.15-.09,0-1,.23-.87.48a1.18,1.18,0,0,1,.07,1c-.24.52-.32.36-.74.23a2.15,2.15,0,0,0-1.28,0,2.38,2.38,0,0,0-1,.54c-.19.18-.31.45-.5.6s-.16.09-.12.09c.21,0-.38-.31-.41-.32a2.47,2.47,0,0,0-2.45.14c-.34.25-.34.62-.58.9q-.15.17-.06.15c-.27.06-.78-.34-1.06-.44-1.07-.36-1.58.2-2.4.7,0,0-.09.22-.12.23s-.41-.12-.5-.14a3.61,3.61,0,0,0-.72-.12,3.2,3.2,0,0,0-1.46.31c-.64.29-.71.67-1.19,0-.29-.42-.43-.88-.92-1.11a2.68,2.68,0,0,0-2.32.38,9.91,9.91,0,0,0-.85.59c-.4.3-.38.37-.78.15-.58-.32-.68-.74-1.42-.7s-1.34.6-1.85.52c-.76-.12-1.07-1.51-1.21-2.12-.08-.36-1.14.06-1.3.16s-.44-1.38-.55-1.52c-.37-.44-1.19-.29-1.19-1,0-.53.38-.6,0-1.17s-1.7-.89-1.16-1.79c.05-.08-.06-.15-.13-.16-.41-.1-1-.25-1.19-.72s.24-.78.08-1.22-2-1.54-1.32-2.09c0,0,.22-.15.17-.22a16.89,16.89,0,0,1-2.1-4.07C470.19,88.2,468.73,88.64,468.84,89Z"/><path class="cls-6" d="M497.14,75.74a2.25,2.25,0,0,0-1.58-.72c-.27,0-.62.1-.84-.06s-.34-.47-.57-.64a1.85,1.85,0,0,0-1.58-.25,2.68,2.68,0,0,0-.85.37,1.52,1.52,0,0,0-.33.2c.36,0,.46,0,.28-.1a.94.94,0,0,1-.23-.1,2.3,2.3,0,0,0-1.36-.4,2.34,2.34,0,0,0-.9.3,1.33,1.33,0,0,0-.3.23c-.13.11-.05.07.22-.1l-.14-.1a2.05,2.05,0,0,0-1.47-.78,2.82,2.82,0,0,0-.91.17c-.17.06-.32.15-.49.22s0,.08-.12-.1-1.67.17-1.38.54,1,.35,1.45.24c.26-.06.61-.32.86-.33.09-.07.1-.06,0,0l.14.1a2.43,2.43,0,0,0,.38.33,1.74,1.74,0,0,0,1.54.41,2.23,2.23,0,0,0,.87-.36c.13-.09.41-.25,0-.14s-.08.11.13.23a2.05,2.05,0,0,0,1.45.3,2.64,2.64,0,0,0,.9-.33,1.85,1.85,0,0,0,.33-.21c.18-.09.17-.1,0,0s-.2.07,0,.14c.36.39.71.89,1.27,1,.28,0,.56-.07.83,0a1.53,1.53,0,0,1,1,.56c.3.31,1.69-.21,1.38-.54Z"/><path class="cls-6" d="M479.91,74.87a2,2,0,0,0-1.7.31c-.29.18-.57.51-.9.53a2.45,2.45,0,0,0-1,.21c-.19.09-.63.4-.64.65.39-.06.48-.1.28-.14l-.2-.06c-.14-.06-.29-.13-.44-.18a1.7,1.7,0,0,0-1.09,0,1.39,1.39,0,0,0-.67.47c-.08.1-.4.55-.36.68s.1,0,.06,0h-.29a2.9,2.9,0,0,0-.93.12,1.6,1.6,0,0,0-.8.52c-.1.14-.31.53-.23.71.34-.19.41-.26.21-.19l-.13,0a1.82,1.82,0,0,0-.37.13.86.86,0,0,0-.51.63c-.06.72,1.44.49,1.49-.13,0,.22-.64.39-.23.27a2.17,2.17,0,0,0,.36-.12,1.11,1.11,0,0,0,.56-.46,1,1,0,0,0,.13-.56c.06.23-.27,0,0,.06a1.39,1.39,0,0,0,.35,0,2,2,0,0,0,1.49-.55,2,2,0,0,0,.33-.52s.13-.25.13-.28,0-.07-.18.05-.25.1-.06.14a1.82,1.82,0,0,0,.72.25,2,2,0,0,0,.84,0,1.59,1.59,0,0,0,.78-.48,2.54,2.54,0,0,0,.23-.34c0,.11-.57.14,0,.13a2.59,2.59,0,0,0,1.38-.44l.52-.37c.21-.16.18-.06.05-.1a1.08,1.08,0,0,0,1-.28.38.38,0,0,0-.18-.66Z"/><path class="cls-17" d="M520.85,52.49c-1.64-1.4,0-4.41-1.26-6.11a14.77,14.77,0,0,1-1-1.1c-.74-1.19.28-2.86-.34-4.11-.28-.56-.86-1-1.09-1.53-.45-1.11.54-2.35.33-3.53s-1.93-2.34-1.51-3.62c.21-.62.88-1,1-1.66.3-1.1-1-2.43-.26-3.28.26-.3.71-.41.92-.74.43-.68-.42-1.41-.78-2.12a8.59,8.59,0,0,1-.37-2.45c-.16-.81-1-1.65-1.72-1.25.35-1.33-.7-4.79-2-4.54-.66.13-1.5.52-1.89,0-.28-.39-.05-1-.29-1.39-.61-1.07-2.38.71-3.41,0-.28-.18-.42-.5-.66-.73a2.09,2.09,0,0,0-2.14-.15,4.79,4.79,0,0,1-2.16.56c-.75-.08-1.45-.94-1-1.57a5.9,5.9,0,0,1-2.38,1.14,2,2,0,0,1-2.2-1.1,1.77,1.77,0,0,1-2.88,1c-.35-.37-.61-.94-1.11-1a1.12,1.12,0,0,0-.63.22c-.84.55-1.83,3.35-2.25,4.27V12.2l15.16-3.29,15.35,6.26,3.7,16-3.64,22.42"/><path class="cls-6" d="M521.54,52.24c-1.19-1.18-.55-3-.69-4.5a3.16,3.16,0,0,0-.82-1.89,2.82,2.82,0,0,1-1-2.44A4.59,4.59,0,0,0,519,41c-.39-.79-1.19-1.23-1.2-2.21s.5-1.63.47-2.49a3.89,3.89,0,0,0-.93-2.05c-.46-.68-.89-1.33-.47-2.16.31-.62.91-1,1-1.7s-.42-1.33-.51-2c-.12-1,.74-1,1.12-1.66s-.26-1.32-.6-1.88c-.53-.89-.3-1.78-.54-2.74-.36-1.41-1.49-1.63-2.71-1.22l1,0a5.24,5.24,0,0,0-1.09-4.16,1.48,1.48,0,0,0-1.36-.52c-.53,0-1.1.39-1.47-.05s0-1.07-.45-1.48a1.59,1.59,0,0,0-1.41-.17c-.34.06-.65.2-1,.28a1.1,1.1,0,0,1-1.11-.14c-.19-.14-.29-.38-.46-.52a2.53,2.53,0,0,0-2.06-.34,13.68,13.68,0,0,0-1.38.42c-.84.26-2.37.12-1.87-1.12.14-.34-1.17,0-1.29.12-1.05.71-2.55,1.32-3.28-.14-.15-.3-1.41,0-1.47.33-.13.63-.56,1.18-1.25.75-.42-.26-.58-.83-1-1.06a2.37,2.37,0,0,0-2,.31c-1.45.86-1.93,3-2.57,4.49l1.47-.33V12l-.88.46,15.16-3.29h-.55L515.3,13.7l2.91,1.19a4.31,4.31,0,0,1,1.29.52s.17.8.22,1l.67,2.87,1.76,7.57.71,3.07a8.13,8.13,0,0,1,.32,1.38,15.65,15.65,0,0,1-.47,2.94l-1.15,7.06-2,12.44c0,.14,1.4,0,1.47-.39l2.47-15.19c.37-2.28.94-4.62,1.12-6.93.11-1.41-.59-3.08-.91-4.45l-2.2-9.46A7.78,7.78,0,0,0,521,15c-.23-.32-1-.47-1.36-.62L511,10.87l-4-1.61a5.85,5.85,0,0,0-1.75-.64,10.65,10.65,0,0,0-2.36.49l-5.24,1.13-7.82,1.7c-.18,0-.88.17-.88.46v5.51c0,.29,1.36-.08,1.46-.33.42-.95.77-1.92,1.25-2.84a7.22,7.22,0,0,1,.43-.77l.15-.21q.33-.47.18-.15c.11,0,.67,1,1,1.13,1.29.63,3.57-.21,3.88-1.65l-1.47.33c1.17,2.35,4.36.8,5.89-.23l-1.29.12c-.82,2.06,2.26,1.74,3.29,1.38.85-.3,1.55-.61,2.26.13.26.26.4.5.77.63a3.37,3.37,0,0,0,1.93-.19c.52-.16,1-.37,1.25.3.15.42-.06.85.32,1.2.55.49,1.33.09,2,0,1.54-.09,2.1,3.17,1.87,4.31-.07.33.85.06,1,0a5.68,5.68,0,0,1,.69,1.15,6.52,6.52,0,0,1,.14,1.4,5,5,0,0,0,.87,2.11c.38.68.23,1-.34,1.54a4.13,4.13,0,0,0-.39.34,1.42,1.42,0,0,0-.14,1.33c.19.76.66,1.47.28,2.26-.28.59-.9.94-1,1.65-.17,1.36,1.43,2.24,1.56,3.57a10.41,10.41,0,0,1-.43,2.32,2.5,2.5,0,0,0,.76,2c1.14,1.5-.06,3,.68,4.54.34.69,1.08,1,1.39,1.78a4.79,4.79,0,0,1,.24,2c0,1.31-.25,2.64.76,3.65.26.26,1.6-.29,1.39-.5Z"/><path class="cls-14" d="M521.79,62.44l-1.3.23a.61.61,0,0,1-.4,0c-.3-.16-.17-.6-.11-.93a3.4,3.4,0,0,0-.72-2.2,2.14,2.14,0,0,1-.2-2.23c.24-.33.69-.57.71-1s-.67-.77-1.06-1.15a1.32,1.32,0,0,1,.44-2.08,3.8,3.8,0,0,1-.84-3c.19-2.08.63-4.32.63-4.32l2.93-1.95Z"/><path class="cls-6" d="M521.91,62.12a6.37,6.37,0,0,1-1,.18c-.44,0-.33,0-.27-.48a2.79,2.79,0,0,0,0-1.15c-.27-1-1.43-2-1-3.15.24-.69,1.36-1.13.63-2-.31-.36-.82-.49-1-.94a1.13,1.13,0,0,1,.37-1.42c.12-.05.42-.23.26-.39-1.75-1.73-.34-4.82-.23-6.87a1.2,1.2,0,0,1,.06-.33c-.06.21-.23.15,0,0a9,9,0,0,0,1-.66l1.77-1.18-1.31.15-.07,16.32v2.34c0,.3,1.47.08,1.47-.39l.08-16.32V43.58c0-.39-1.18.05-1.31.14l-2,1.33c-.56.37-1,.53-1.17,1.21a23.73,23.73,0,0,0-.58,4.59,3.65,3.65,0,0,0,.91,2.49l.26-.39a1.6,1.6,0,0,0-.88,2.25c.29.46,1.4.79,1.14,1.46s-.84.74-.9,1.51a3.45,3.45,0,0,0,.59,1.82,3.32,3.32,0,0,1,.52,2.17c-.11,1.39,1.64.74,2.47.59.19,0,.84-.17.86-.43S522.08,62.09,521.91,62.12Z"/><path class="cls-17" d="M466.46,18.41c.22.42-.34.8-.8.89s-1,.22-1.09.68c0,.29.2.55.17.83-.08.88-1.79.27-2.19,1.05-.3.59.47,1.43,0,1.89-.22.21-.58.16-.89.21A1.33,1.33,0,0,0,460.58,25c-.07.4,0,.84-.15,1.19s-.79.52-1.22.76c-1.11.62-1.27,2.15-1.19,3.43s.17,2.74-.74,3.64a2.42,2.42,0,0,1-.58-3.17,6.51,6.51,0,0,0,.6-.88.81.81,0,0,0-.16-1c-.15-.1-.35-.13-.44-.28-.26-.43.58-.6.95-.94s.12-1.19-.3-1.66-.92-1.1-.64-1.66,1-.59,1.25-1.08-.19-1.23-.09-1.85c.13-.83,1.14-1.14,2-1.28a1.32,1.32,0,0,1,.42-2c.31-.12.69-.14.88-.42s-.1-1.06.25-1.41.85-.08,1.16-.35c.51-.42-.21-1.27,0-1.88.34-.81,2.07-.63,1.91-1.49"/><path class="cls-6" d="M465.73,18.61c.06.37-1.61.71-1.83,1.26-.14.35.19,1,.07,1.08s-.89.13-1.11.21c-.61.2-1.13.57-1.11,1.27a10.85,10.85,0,0,0,.33,1.1c-.07.09-1.07.24-1.26.35a1.93,1.93,0,0,0-.85.87c-.19.42,0,.88-.18,1.27s-.92.62-1.33.93a2.67,2.67,0,0,0-.79,1c-1,1.92.41,4.42-1.08,6.11l1.37-.27a2.29,2.29,0,0,1-.85-2.1c.12-.79.9-1.25,1-2a1.2,1.2,0,0,0-.07-.62c-.06-.12-.57-.53-.55-.63s.93-.6,1-.88a1.53,1.53,0,0,0-.34-1.44c-.23-.35-.78-.76-.8-1.21s.42-.69.7-.9a1.4,1.4,0,0,0,.69-1c0-.49-.28-1-.18-1.46s.64-.69,1.12-.78c.23,0,1.1-.3.79-.7a1,1,0,0,1,.31-1.52c.36-.18.76-.26,1-.62s0-1,.16-1.22.5-.09.64-.15a1.53,1.53,0,0,0,.56-.34,1,1,0,0,0,.24-1c-.1-.71-.24-1,.49-1.33s1.34-.51,1.32-1.3c0-.46-1.49-.17-1.47.4,0,.25-1.06.54-1.26.67a1.54,1.54,0,0,0-.65.71,1.57,1.57,0,0,0,0,.86c0,.08.24.81.32.68-.08.14-1.1.24-1.32.44-.37.32-.34.6-.37,1.05-.05.72-.43.5-1,.89a1.63,1.63,0,0,0-.37,2.37l.79-.69c-1.27.23-3,.75-2.79,2.35.09.69.19,1.05-.38,1.56-.23.21-.5.32-.67.59-.52.77.11,1.44.56,2.05.31.42.68.91.25,1.36-.22.22-.58.27-.79.52-.62.76.52.82.52,1.53,0,.45-.63,1-.81,1.38a2.48,2.48,0,0,0-.22,1.11,2.65,2.65,0,0,0,1,2,1.13,1.13,0,0,0,1.38-.27c1.52-1.73.26-4,1-6,.41-1.06,1.67-1,2.15-1.92.24-.47,0-1.22.33-1.63s1-.27,1.41-.51c.77-.46.49-1,.38-1.72s.19-.48.71-.57a2.82,2.82,0,0,0,1-.32,1.09,1.09,0,0,0,.49-.53c.2-.57-.33-.9.32-1.23s1.61-.5,1.44-1.44c-.09-.5-1.57-.15-1.47.39Z"/><path class="cls-18" d="M523,54.5l-.22-1.78L503.84,49.4h0C497,47.53,488,50.32,483,54.31l-4.7.74,0-.07c-5.93-3.46-15.13-3.11-21.8.83l.26.71h0s.07.15.12.3l.24.62c1.47,4,3.15,8.16,4.42,9.18.85.68,3.43.78,5.54.73.8,0,1.53-.06,2.05-.09s6.2-.43,7-1.39,1.75-7.54,2-9.62l4.82-.73c.77,1.51,2.73,8.16,5.23,9.29s14.55-.7,15.5-2.49a39.92,39.92,0,0,0,2.85-8.14l.72-3ZM475.53,65.29c-.93.93-12,1.82-13.49.64-1.24-1-3.34-6.67-4.13-8.79l0-.09c6-3.17,14.29-3.5,19.43-.59-.49,3.59-1.27,8.21-1.79,8.81ZM502.22,62c-.58,1.14-11.06,3.19-13.64,2-1.8-.81-3.31-5.66-4.41-8.42,4.91-3.8,15.54-6.35,21.65-4.3-.69,3.61-1.9,7.91-3.6,10.69Z"/><path class="cls-19" d="M193.07,555.07s-3.1,4.17-2.12,6.26,10.6,2.91,13.12,3.26,35.09,5.23,38.34,5.39,20.76-.24,23.36-4.09c0,0,4.42-6.49-1.38-8.93s-10.17-1.75-15.57-4.74a58.54,58.54,0,0,1-16.34-13.75s-5.18-5-7.75-4.36-5.58,5.64-7.69,6.79-13.17,2.25-15.57-2.87-2.07-3.09-4-2.42S192,545,192.63,549.14A25,25,0,0,1,193.07,555.07Z"/><path class="cls-13" d="M193.07,555.07s14.62,2,20.89,4.43,23,6.69,31.75,7,21.17-2.85,21.17-2.85.77,1.43-3.12,3.71-15.83,3.49-26.11,2-25.34-3.31-28.51-3.59-16.35-1.66-18-4.26C189.7,559.4,193.07,555.07,193.07,555.07Z"/><path class="cls-13" d="M261.26,558c.45,1.48-2.67,1-3.32,1a33,33,0,0,0-6.88.34,9.14,9.14,0,0,0-5.24,2.35,22.11,22.11,0,0,0-3.55,5.12c-.11.22,1,.13,1.17-.19a18.88,18.88,0,0,1,3.73-5.27c1.8-1.67,4.85-1.77,7.16-1.84,1.18,0,2.35,0,3.53,0a8.92,8.92,0,0,0,3.21-.27c.63-.21,1.63-.76,1.37-1.59-.09-.31-1.27,0-1.18.31Z"/><path class="cls-13" d="M214.56,559.34a24.15,24.15,0,0,0-2.64-8.37,13.21,13.21,0,0,0-4.34-5,21.51,21.51,0,0,0-4.36-1.93,43.47,43.47,0,0,0-4.16-1.29,22.89,22.89,0,0,0-4.51-.78c-.25,0-1.34.45-.77.47a20.65,20.65,0,0,1,3.49.57,32.6,32.6,0,0,1,8.71,3.07c3.76,2.12,5.71,6.47,6.76,10.47a22.11,22.11,0,0,1,.63,3.12c0,.21,1.22,0,1.19-.32Z"/><path class="cls-13" d="M215.82,542.12a22.73,22.73,0,0,0,5.67,2.3c2.87.81,6.31.77,8.84,2.49,2.16,1.46,3.5,3.91,5.51,5.58a12.94,12.94,0,0,0,8.34,3.09,44.76,44.76,0,0,0,7.16-1c.64-.11.91-1,.1-.86l-.16,0c-.64.11-.91,1-.11.86l.17,0,.1-.86c-1.69.29-3.38.61-5.09.87a12,12,0,0,1-9.6-2.74c-1.93-1.61-3.22-3.89-5.23-5.4s-4.74-1.78-7.18-2.27a24,24,0,0,1-7.61-2.71c-.44-.27-1.48.33-.91.68Z"/><path class="cls-20" d="M226.23,540.22l0-.06a1,1,0,0,1,.21-1.43l3.42-2.46a1.14,1.14,0,0,1,1.53.2l0,.06a1,1,0,0,1-.2,1.44l-3.43,2.45A1.13,1.13,0,0,1,226.23,540.22Z"/><path class="cls-20" d="M231.2,541.87l-.17-.21a.89.89,0,0,1,.18-1.3l2.55-1.83a1,1,0,0,1,1.38.18l.17.21a.89.89,0,0,1-.18,1.3l-2.55,1.83A1,1,0,0,1,231.2,541.87Z"/><path class="cls-20" d="M235.69,544.52l-.29-.36a.79.79,0,0,1,.16-1.16l1.83-1.31a.91.91,0,0,1,1.23.16l.3.37a.8.8,0,0,1-.17,1.16l-1.82,1.31A.93.93,0,0,1,235.69,544.52Z"/><path class="cls-20" d="M238.88,547.4l-.3-.36a.81.81,0,0,1,.17-1.17l1.82-1.3a.92.92,0,0,1,1.24.16l.29.36a.81.81,0,0,1-.16,1.17l-1.82,1.3A.92.92,0,0,1,238.88,547.4Z"/><path class="cls-19" d="M53.86,533.25s-4.61,2.51-4.6,4.84,8.48,7.17,10.64,8.56,29.94,19.71,32.85,21.24,19.13,8.6,23.15,6.18c0,0,6.81-4.08,2.54-8.78s-8.58-5.92-12.26-11a58.75,58.75,0,0,1-9.13-19.55s-2.62-6.81-5.26-7.28-7.51,2.79-9.93,3-13-3.54-13-9.25-.58-3.71-2.67-3.92-9,6.3-10.15,10.35A25.69,25.69,0,0,1,53.86,533.25Z"/><path class="cls-13" d="M53.86,533.25s12.57,8,17.27,12.94,18.2,15.89,26.13,19.92,20.6,6.39,20.6,6.39.11,1.63-4.43,2.07-16-3.54-24.8-9.22S66.81,551.54,64,550s-14.28-8.48-14.71-11.57C48.94,535.79,53.86,533.25,53.86,533.25Z"/><path class="cls-13" d="M115.58,564.18c-.06.41-.3.43-.67.34a17.92,17.92,0,0,1-3.44-1.54,26.48,26.48,0,0,0-6.76-2.46,8.65,8.65,0,0,0-5.78.87,24.63,24.63,0,0,0-4.41,2.71c-.48.39.7.26.93.08a19.19,19.19,0,0,1,5.33-3.11c2.39-.84,5.52.54,7.69,1.47,1.15.49,2.26,1.05,3.37,1.61a6.32,6.32,0,0,0,2.94,1c.67,0,1.86-.3,2-1.13,0-.34-1.14-.12-1.18.2Z"/><path class="cls-13" d="M71.72,546.08c1.33-4.06,1.8-9,.34-13.11-1.2-3.34-4.2-6-6.85-8.18a24.26,24.26,0,0,0-4.31-3.07c-.3-.16-1.25.34-1.13.4A23.46,23.46,0,0,1,63.83,525c2.72,2.25,5.81,4.9,7,8.3,1.46,4.05,1,9-.32,13-.06.21,1.09.08,1.18-.22Z"/><path class="cls-13" d="M80.24,531.19a23,23,0,0,0,4.48,4.72c2.34,2,5.59,3.43,7,6.29,1.15,2.29,1.38,4.92,2.53,7.24a12.89,12.89,0,0,0,6.1,6,45.52,45.52,0,0,0,7,2.1c.51.14,1.41-.61.69-.8l-.16,0c-.51-.14-1.42.61-.7.8l.17.05.69-.8c-1.8-.49-3.62-.92-5.4-1.48a12.14,12.14,0,0,1-7.09-6c-1.23-2.35-1.47-5-2.61-7.39s-3.45-3.8-5.53-5.3a24.67,24.67,0,0,1-6.11-6c-.29-.44-1.44,0-1.09.52Z"/><path class="cls-20" d="M91.49,534.16l0-.08a1,1,0,0,1,.79-1.22l4.19-.8a1.15,1.15,0,0,1,1.31.83l0,.07a1,1,0,0,1-.8,1.23l-4.18.8A1.15,1.15,0,0,1,91.49,534.16Z"/><path class="cls-20" d="M93.9,538.49l-.07-.27a.91.91,0,0,1,.72-1.11l3.12-.59a1,1,0,0,1,1.19.75l.06.27a.9.9,0,0,1-.72,1.11l-3.11.59A1,1,0,0,1,93.9,538.49Z"/><path class="cls-20" d="M96.89,542.83l-.11-.46a.81.81,0,0,1,.64-1l2.23-.42a.93.93,0,0,1,1.06.68l.12.45a.82.82,0,0,1-.65,1L98,543.5A.94.94,0,0,1,96.89,542.83Z"/><path class="cls-20" d="M98.59,546.82l-.12-.46a.82.82,0,0,1,.65-1l2.23-.42a.93.93,0,0,1,1.06.68l.12.45a.82.82,0,0,1-.65,1l-2.23.42A.92.92,0,0,1,98.59,546.82Z"/><path class="cls-19" d="M370.74,502.18s4.82,4.23,4.18,7-12,6.25-15,7.33S319,532,315.08,533s-25.12,5.1-29.25,1.13c0,0-7-6.68-.67-11.13s11.82-4.75,17.56-9.76a72,72,0,0,0,16.14-20.85s4.95-7.41,8.22-7.27,8.21,5.36,11.05,6.19,15.41.07,17-6.73,2.75-5,5.3-4.73,9,9.93,9.31,15.07A31.37,31.37,0,0,0,370.74,502.18Z"/><path class="cls-13" d="M370.74,502.18S353.6,508.35,346.67,513s-26,14-36.49,16.7-26.27,2.07-26.27,2.07-.57,1.92,4.73,3.67,20,.09,32-4.31,29.72-10.58,33.47-11.74,19.3-6.25,20.65-9.82C375.92,506.52,370.74,502.18,370.74,502.18Z"/><path class="cls-13" d="M347.41,512.76a30.05,30.05,0,0,1,.85-10.22,16.76,16.76,0,0,1,3.72-7.27,22.44,22.44,0,0,1,4.62-3.47,51.79,51.79,0,0,1,4.75-2.7,26.09,26.09,0,0,1,4.78-2c.85-.22.75-.66-.12-.43-4.9,1.29-9.68,4.23-13.7,7.21-4.54,3.37-6.05,9.31-6.39,14.69a29.78,29.78,0,0,0,0,4.53c0,.25,1.5,0,1.47-.39Z"/><path class="cls-13" d="M338.67,492l-.45.38c-.5.43-1,.83-1.57,1.21a34.75,34.75,0,0,1-5.77,3.31c-3.19,1.46-6.85,2.48-9.1,5.37-2.13,2.74-3.19,6.08-5.61,8.66a14.19,14.19,0,0,1-4.95,3.47c-2.43,1-5,1-7.56,1.14l-5.18.23c-.83,0-1.13,1.1-.14,1.06,5.85-.26,12.07.19,17-3.57,3.06-2.35,4.71-5.55,6.57-8.83a10.28,10.28,0,0,1,2.94-3.48,28.79,28.79,0,0,1,5.67-2.74,31.53,31.53,0,0,0,9.4-5.79c.66-.62-.75-.86-1.22-.42Z"/><path class="cls-20" d="M325.66,493.13l0-.08a1.22,1.22,0,0,0-.62-1.68l-4.77-2.07a1.42,1.42,0,0,0-1.79.64l0,.08a1.22,1.22,0,0,0,.62,1.68l4.77,2.07A1.41,1.41,0,0,0,325.66,493.13Z"/><path class="cls-20" d="M321.62,497.64l.15-.3a1.1,1.1,0,0,0-.56-1.52l-3.55-1.54a1.27,1.27,0,0,0-1.62.58l-.15.3a1.1,1.1,0,0,0,.56,1.52l3.55,1.54A1.27,1.27,0,0,0,321.62,497.64Z"/><path class="cls-20" d="M316.88,502l.26-.51a1,1,0,0,0-.5-1.37L314.1,499a1.14,1.14,0,0,0-1.45.52l-.26.51a1,1,0,0,0,.5,1.37l2.54,1.1A1.14,1.14,0,0,0,316.88,502Z"/><path class="cls-20" d="M313.79,506.31l.26-.51a1,1,0,0,0-.5-1.37l-2.54-1.1a1.14,1.14,0,0,0-1.45.52l-.26.51a1,1,0,0,0,.5,1.37l2.54,1.1A1.14,1.14,0,0,0,313.79,506.31Z"/><path class="cls-20" d="M431.28,589.78s1.29-8.6,11.34-9.77,10.11-1.53,10.11-1.53"/><path class="cls-13" d="M432.08,589.67a11.29,11.29,0,0,1,4.46-7c2.75-2,6-2.19,9.33-2.61,2-.26,4.09-.5,6.1-.93.41-.08,1.41-.21,1.55-.72s-1.45-.31-1.59.21c.07-.25.29-.25.43-.38-.12.12.22,0,0,0-.44.07-.65.15-1.08.23-2.69.48-5.41.78-8.12,1.11-4.89.58-9.4,2.84-11.65,7.4a10.27,10.27,0,0,0-1,2.94c-.09.58,1.52.3,1.6-.22Z"/><path class="cls-19" d="M501.33,589.36s3.69,5.34,2.37,7.92-13.36,3.16-16.52,3.49-44.06,5-48.12,5.07-25.93-1.2-29-6.12c0,0-5.23-8.3,2.11-11.1s12.78-1.74,19.66-5.24a73,73,0,0,0,21-16.47s6.7-6.06,9.87-5.11,6.73,7.29,9.31,8.81,15,3.51,18.18-2.78,4.12-3.89,6.54-3,6.4,12,5.41,17.1A31.73,31.73,0,0,0,501.33,589.36Z"/><path class="cls-13" d="M501.33,589.36S483,591.18,475,594s-29,7.35-40,7.37-26.31-4.47-26.31-4.47-1,1.74,3.73,4.76,19.62,5,32.52,3.7,31.8-3,35.77-3.25,20.49-1.36,22.7-4.53C505.35,594.91,501.33,589.36,501.33,589.36Z"/><path class="cls-13" d="M414,588a2.85,2.85,0,0,0,2.13,2.52,12.39,12.39,0,0,0,4.16.36c1.57,0,3.14,0,4.7.2,2.81.26,6.26.72,8.39,2.77a23.28,23.28,0,0,1,4.53,6.85c.18.4,1.62-.09,1.48-.4a28.21,28.21,0,0,0-4.2-6.53c-1.77-2.06-4.73-2.72-7.3-3.11-3-.47-6.06-.22-9.11-.46-1.4-.11-3.38-.87-3.29-2.6,0-.27-1.46-.08-1.49.4Z"/><path class="cls-13" d="M475.78,593.79a30.63,30.63,0,0,1,3.14-9.35,17.33,17.33,0,0,1,5.32-6.41,20.26,20.26,0,0,1,5-2.2,51.28,51.28,0,0,1,5.58-1.56,28.56,28.56,0,0,1,5.2-.74c.31,0,1.67-.59,1-.59a28.32,28.32,0,0,0-4.59.54,50.78,50.78,0,0,0-11.3,3.41c-5.21,2.32-8.15,7.78-9.77,13a28.82,28.82,0,0,0-1.05,4.31c0,.14,1.41,0,1.48-.4Z"/><path class="cls-13" d="M472.6,571.32a29.11,29.11,0,0,1-8.41,2.84c-3.53.7-7.44.71-10.49,2.87-2.88,2-4.73,5.16-7.67,7.16a14.15,14.15,0,0,1-6.14,2.4c-2.66.34-5.21-.27-7.79-.8l-5-1c-.72-.15-1.5.86-.52,1.07,5.88,1.21,11.87,3.15,17.66.59,3.67-1.62,6-4.49,8.79-7.28s6.21-3.1,9.94-3.71a31.54,31.54,0,0,0,10.29-3.25c.88-.49.08-1.27-.65-.86Z"/><path class="cls-20" d="M459.31,569.32l.06-.06a1.24,1.24,0,0,0-.19-1.81L455,564.24a1.44,1.44,0,0,0-1.92.18l-.06.07a1.23,1.23,0,0,0,.2,1.8l4.17,3.22A1.42,1.42,0,0,0,459.31,569.32Z"/><path class="cls-20" d="M454.22,572.75l.23-.26a1.11,1.11,0,0,0-.18-1.63l-3.1-2.39a1.28,1.28,0,0,0-1.73.17l-.23.26a1.12,1.12,0,0,0,.18,1.63l3.1,2.39A1.28,1.28,0,0,0,454.22,572.75Z"/><path class="cls-20" d="M448.5,575.87l.38-.44a1,1,0,0,0-.16-1.46l-2.22-1.71a1.16,1.16,0,0,0-1.55.15l-.38.44a1,1,0,0,0,.15,1.46l2.22,1.71A1.16,1.16,0,0,0,448.5,575.87Z"/><path class="cls-20" d="M444.39,579.33l.38-.44a1,1,0,0,0-.15-1.47l-2.22-1.71a1.16,1.16,0,0,0-1.55.15l-.39.44a1,1,0,0,0,.16,1.47l2.22,1.71A1.16,1.16,0,0,0,444.39,579.33Z"/><g id="freepik--Ball--inject-2"><path class="cls-21" d="M253.26,530.33c0,.21-1,.66-2.22,1.25s-2.27,1.08-2.38.92.77-1,2.08-1.56A4.15,4.15,0,0,1,253.26,530.33Z"/><circle class="cls-20" cx="284.52" cy="545.55" r="38.14"/><polygon class="cls-22" points="253.15 530.13 258.81 539.14 272.01 530.13 272.01 517.96 262.59 517.96 253.15 530.13"/><polygon class="cls-22" points="285.65 540.18 285.65 555.9 299.06 560.1 308.28 547.95 299.9 535.57 285.65 540.18"/><path class="cls-22" d="M290.26,507.85v5.49l12.34,8.23,9.84-2C312.37,518.77,300.57,508.14,290.26,507.85Z"/><polygon class="cls-22" points="257.88 556.58 253.15 562.75 263.82 575.57 273.08 575.57 272.01 563.46 257.88 556.58"/><path class="cls-21" d="M286.85,555.23a41.5,41.5,0,0,1-7.21,5,30.34,30.34,0,0,1-7.94,3.73c-.09-.18,3.44-1.85,7.58-4.35A78.94,78.94,0,0,1,286.85,555.23Z"/><path class="cls-21" d="M286.32,540.57a5.93,5.93,0,0,1-2.65-.83,31.55,31.55,0,0,1-5.65-3.55,54.89,54.89,0,0,1-5-4.33,11.31,11.31,0,0,1-1.85-2.06c.15-.17,3.22,2.74,7.33,5.83a50.32,50.32,0,0,0,5.48,3.67C285.36,540.13,286.35,540.47,286.32,540.57Z"/><path class="cls-21" d="M258.13,557.48a13.6,13.6,0,0,1-.15-2.85v-6.86a52.56,52.56,0,0,1,.57-9.71,11.84,11.84,0,0,1,.16,2.85v6.86A51.71,51.71,0,0,1,258.13,557.48Z"/><path class="cls-21" d="M299.9,535.57a57.81,57.81,0,0,1,1.25-7.5,72.48,72.48,0,0,1,1.37-7.46,27.58,27.58,0,0,1-.69,7.58A31.35,31.35,0,0,1,299.9,535.57Z"/><path class="cls-21" d="M290.26,513.35a96.13,96.13,0,0,1-9.47,2.47c-2.61.67-5,1.37-6.64,1.82a15.51,15.51,0,0,1-2.74.77,34.52,34.52,0,0,1,9.24-3.28c2.62-.66,5-1.14,6.78-1.45A11.18,11.18,0,0,1,290.26,513.35Z"/><path class="cls-21" d="M322.66,547.3a48.94,48.94,0,0,1-7.35.63,32.69,32.69,0,0,1-7.4-.09,47.65,47.65,0,0,1,7.35-.62A32.14,32.14,0,0,1,322.66,547.3Z"/><path class="cls-21" d="M300.2,574.83a57.23,57.23,0,0,1-1-7.61,32,32,0,0,1-.32-7.7,57.62,57.62,0,0,1,1,7.62A31.93,31.93,0,0,1,300.2,574.83Z"/><path class="cls-21" d="M289.49,580.32a23.76,23.76,0,0,1-8.55-1.44,25.36,25.36,0,0,1-7.89-3.58c.1-.18,3.57,1.52,8.11,2.89S289.5,580.13,289.49,580.32Z"/><path class="cls-22" d="M289.12,583.41v-2.75L299.75,574l9.6.57C309.49,574.74,297.57,584,289.12,583.41Z"/><path class="cls-21" d="M262.16,514.69c.19,0,.46.75.62,1.73s0,1.87-.16,1.85-.38-.76-.54-1.74S261.93,514.71,262.16,514.69Z"/><path class="cls-21" d="M253.79,562.88c0,.2-.86.18-1.83,0s-1.68-.39-1.7-.58.87-.36,1.85-.11S253.84,562.69,253.79,562.88Z"/><path class="cls-21" d="M263.53,577.41c-.19,0-.26-.55-.16-1.14s.36-1,.55-1,.26.55.16,1.14S263.67,577.44,263.53,577.41Z"/></g><path class="cls-23" d="M174.65,117c-4-.38-10.34-1.48-10.34-1.48s.41,8.28,9.6,9.16,11.18-7.16,11.18-7.16S178.62,117.37,174.65,117Z"/><path class="cls-6" d="M174.69,117c-1.88-.18-9.45-1.25-9.45-1.25s2.09,4.58,8.91,5.23c7.4.72,10-3.34,10-3.34Z"/><path class="cls-24" d="M174.75,117.29c-1.89-.18-7.6-1.06-7.6-1.06s1.86,2.34,7.52,2.89,7.65-1.37,7.65-1.37Z"/><path class="cls-23" d="M185.57,116.94a14.64,14.64,0,0,1-2.26,0c-1.55-.29-2.48-.81-3.61-1-1.91-.34-3.21.33-4,.25s-2-1-3.94-1c-1.14,0-4,.14-5.55.13a15.37,15.37,0,0,1-2.21-.46c-.29,0,.05,2.22,10.6,3.23S185.84,117,185.57,116.94Z"/><path class="cls-23" d="M483.51,79.48c4.37-.33,11.4-1.4,11.4-1.4s-.63,11.09-10.76,11.86S472,79.82,472,79.82,479.14,79.82,483.51,79.48Z"/><path class="cls-6" d="M483.46,79.49c2.08-.16,10.43-1.16,10.43-1.16s-2.41,7-9.92,7.55a10.72,10.72,0,0,1-10.9-5.9Z"/><path class="cls-24" d="M483.4,79.82c2.07-.16,8.37-1,8.37-1s-2.1,2.53-8.33,3-8.38-1.68-8.38-1.68Z"/><path class="cls-23" d="M471.51,79.19a15.4,15.4,0,0,0,2.48.08c1.71-.28,2.75-.84,4-1,2.11-.33,3.53.44,4.45.37s2.21-1,4.35-1c1.25,0,4.37.25,6.1.27a15.8,15.8,0,0,0,2.44-.46c.32.06-.1,2.45-11.72,3.33S471.21,79.29,471.51,79.19Z"/><path class="cls-6" d="M483.82,75.44l.64,2a.74.74,0,0,0,.7.51c2.19,0,10.54.16,12.49-.11.05,0-.07.84,0,.82l.46-.09c.71-.23-.12-2.62-.84-2.81a42.62,42.62,0,0,0-5.39-1,45,45,0,0,0-7.42-.24A.75.75,0,0,0,483.82,75.44Z"/><path class="cls-6" d="M481.3,76l.17,1.89a.76.76,0,0,1-.52.67c-2,.55-8.44,2.39-10.25,2.59h-.13l-.59,0c-.7-.06-.5-1.62.12-2A32.88,32.88,0,0,1,474.23,77a35.59,35.59,0,0,1,6.32-1.81A.7.7,0,0,1,481.3,76Z"/><path class="cls-25" d="M153,367.08a23.31,23.31,0,0,1,9.34-22.58c.8-.57-.4-1-1-.59a24.3,24.3,0,0,0-9.84,23.56c.11.61,1.56.25,1.45-.39Z"/><path class="cls-26" d="M200.88,182.68c-.21,8-.42,16.13-2,24a47.48,47.48,0,0,1-3.73,10.53,37.65,37.65,0,0,0-3.51,9.91c-.11.69,1.37.49,1.46-.13.56-3.62,2.18-6.94,3.71-10.24a46.77,46.77,0,0,0,3.53-10.19c1.62-7.9,1.83-16,2-24,0-.72-1.45-.49-1.46.12Z"/><path class="cls-26" d="M101.16,149.44c4,5.93,6.88,13.41,5.91,20.62s-3.29,14.43-5.54,21.39c-.61,1.89-1.23,3.77-1.89,5.64-.17.5,1.28.32,1.45-.17q2.66-7.51,4.78-15.21a92.21,92.21,0,0,0,2.58-11.35,25,25,0,0,0-1.25-12,41.59,41.59,0,0,0-4.69-9.5c-.28-.4-1.68.08-1.35.57Z"/><path class="cls-4" d="M221.08,344a77.7,77.7,0,0,1,3.84-10.72L223.45,323l-3.38-4-2.38,1s4.88,12.16,3.87,15-2,3.31-2,3.31l-2.88-2-5.53-18.68s-1.2-8.46-1.24-10.5a38.11,38.11,0,0,1,1-6.11l-3.52-9,13.94-4.77c.59,2.63,2,6.91,2.5,10l9.72,18.22-.39,9.84-1.91,9.44-8.87,13.5S220.16,348.15,221.08,344Z"/><path class="cls-12" d="M88.58,465.64a87.11,87.11,0,0,0,11.82,7.51l13.43,7.52c.89.49,3.54-.77,2.29-1.47l-13-7.28a86.17,86.17,0,0,1-11.86-7.45,1.9,1.9,0,0,0-1.93-.07c-.3.13-1.3.81-.75,1.24Z"/><path class="cls-12" d="M191,469.88a163.22,163.22,0,0,0,31.12-2.54c.5-.09,1.56-.35,1.64-1s-.83-.7-1.25-.63a158.78,158.78,0,0,1-30.39,2.51c-.58,0-1.62.2-1.91.79s.24.86.79.86Z"/><path class="cls-27" d="M552.36,117.21a30.58,30.58,0,0,0-6.35,10c-3,7.35-3.07,15.12-1.2,22.75a156.46,156.46,0,0,0,6.86,20.42c2.61,6.56,5.44,13,8.39,19.45,1.54,3.35,3.1,6.68,4.74,10,.22.46,1.63,0,1.44-.38-4.23-8.53-8.14-17.25-11.75-26a195.5,195.5,0,0,1-7.37-20.54c-2.1-7.38-3.08-14.86-.88-22.37a34.15,34.15,0,0,1,4.57-9.69,29.14,29.14,0,0,1,1.9-2.52c.2-.24.41-.47.62-.7,0,0,.39-.4.17-.19.58-.57-.83-.49-1.14-.18Z"/><path class="cls-27" d="M451.05,177.25c-.44-8.28-4.15-15.62-6-23.59-.13-.59-1.59-.22-1.44.39,1.84,8,5.55,15.31,6,23.58,0,.58,1.48.26,1.44-.38Z"/><path class="cls-28" d="M434.05,300.63a56.16,56.16,0,0,1,2.65,38.45c-.08.25,1.32.09,1.42-.27a56.22,56.22,0,0,0-2.63-38.57c-.14-.33-1.55.16-1.44.39Z"/><path class="cls-4" d="M535.75,355.27a83.26,83.26,0,0,1,11-5.93l6-9.25-.19-5.52-2.82-.84s-4.24,13.07-7.18,14.67-4.15,1.26-4.15,1.26l-1.16-3.58,8.28-18.73s4.92-7.59,6.33-9.25a41.39,41.39,0,0,1,5.18-4.21l3.23-9.61L576.09,310c-1.33,2.52-3.11,6.89-4.82,9.7L567.06,341l-7.3,7.6-8.4,6.24-17.47,4.69S532,357.93,535.75,355.27Z"/></g></svg>