<svg xmlns="http://www.w3.org/2000/svg" viewBox="0 0 637.33 635.77"><defs><style>.cls-1{fill:#c1e7f6;}.cls-10,.cls-13,.cls-2{fill:#fff;}.cls-2,.cls-3{stroke:#05090a;stroke-width:0.69px;}.cls-13,.cls-2,.cls-26,.cls-3,.cls-32,.cls-34,.cls-37,.cls-38,.cls-41{stroke-miterlimit:10;}.cls-3{fill:#eee8ca;}.cls-4{fill:#3e488c;}.cls-5{fill:#a86e57;}.cls-6{fill:#ccb631;}.cls-7{fill:#42221a;}.cls-8{fill:#619f52;}.cls-9{opacity:0.4;}.cls-11{opacity:0.5;}.cls-12{opacity:0.59;}.cls-13{stroke:#78b242;stroke-width:0.96px;}.cls-14{fill:#78b242;}.cls-15{opacity:0.58;}.cls-16{fill:#798090;}.cls-17{fill:#cd8c2a;}.cls-18{fill:#010101;}.cls-19{fill:#aaa;}.cls-20{fill:#151311;}.cls-21{fill:#843323;}.cls-22{fill:#622616;}.cls-23{fill:#653d2a;}.cls-24{fill:#301810;}.cls-25{fill:#f0edf6;}.cls-26,.cls-34,.cls-37,.cls-38,.cls-41{fill:none;}.cls-26{stroke:#42221a;}.cls-27{fill:#273339;}.cls-28{fill:#756525;}.cls-29{fill:#221f1f;}.cls-30{fill:#684135;}.cls-31,.cls-32{fill:#161312;}.cls-32{stroke:#181513;stroke-width:0.13px;}.cls-33{fill:#f8f5e6;stroke:#cbba9a;stroke-miterlimit:10;stroke-width:0.45px;}.cls-34{stroke:#ce9b32;stroke-width:0.39px;}.cls-35{fill:#9f2522;}.cls-36{fill:#ce9b32;}.cls-37,.cls-38,.cls-41{stroke:#221f1f;}.cls-37{stroke-width:0.45px;}.cls-38{stroke-width:0.23px;}.cls-39{fill:#dac325;}.cls-40{fill:#181d1e;}.cls-41{stroke-width:0.41px;}</style></defs><g id="Layer_1" data-name="Layer 1"><circle class="cls-1" cx="319.06" cy="340.56" r="288.85"/><polygon class="cls-2" points="618.76 380.8 492.93 368.48 504.51 245.72 630.33 258.05 618.76 380.8"/><polygon class="cls-3" points="615.82 377.54 496.43 365.82 507.45 248.98 626.83 260.7 615.82 377.54"/><path class="cls-4" d="M565.69,372.33l.1-4.83s6.11-53.09,5.49-53.78c-2.57-2.84-13.36-6-13.36-6S549,319.85,545,320c-1.11,0-10.33-16-10.33-16s-9.24,1.95-12.3,3.54a23.89,23.89,0,0,0-3.2,2.25c-2.27,8.84-2.66,18-2.7,27.06h0v.1c0,.5,0,1,0,1.49a1.54,1.54,0,0,1-.13.63c-.37,5.53-1.36,20.13-2,28.43Z"/><path class="cls-5" d="M563.68,504.29l-19.39-8.86s-22.65,13.87-26.09,22.8l-3.44,8.94,14.52,8.38Z"/><path class="cls-6" d="M511.49,479.68c-2.77,32-56.74,32.77-69,11.65-12-20.6-16.65-53.43-45.85-121.06-35.18-81.5,31.66-95.48,45.82-88.81C470.88,294.86,514.24,447.93,511.49,479.68Z"/><path class="cls-5" d="M75.43,509.23l19.39-8.85s22.65,13.87,26.08,22.81l3.44,8.94-14.52,8.37Z"/><path class="cls-5" d="M526.4,533.42,536.64,555s16.78,11.8,21.65,12.72S568.55,561,568.55,561s-2.44-4.84,1.32-.78,9.78-4.5,9.78-4.5l9.1,2.6a13.82,13.82,0,0,0,11.84-2.6c5.12-4.47-2-12.31-3.57-14.39s2-2.55,2-2.55a154.62,154.62,0,0,0,20,4.59c6.61.62,10.47,1.7,11-4.17s-12.17-8.75-16.23-10.38-17.31-12.72-17.84-17.72,4.3-6.3,16.15-9,23.48-5.77,22.36-12-19.32-4.31-26-1.24-23.75,0-37.44,4.15-23.44,20.54-23.44,20.54Z"/><path class="cls-7" d="M585.4,545.56a18,18,0,0,1-2.91-4.82,5.63,5.63,0,0,1,.71-5.92,5.77,5.77,0,0,1,5.87-1.19,11.34,11.34,0,0,1,4.55,3c2.2,2.42,3.31,4.24,3.54,4.08a12.22,12.22,0,0,0-2.66-4.8,11.38,11.38,0,0,0-5-3.59,7.22,7.22,0,0,0-7.52,1.48,5.89,5.89,0,0,0-1.62,3.9,8.41,8.41,0,0,0,.68,3.67,17,17,0,0,0,3.28,4.92c2.29,2.46,3.36,4,3.55,4.05S587.33,548.2,585.4,545.56Z"/><path class="cls-7" d="M562.52,541.66a94.23,94.23,0,0,1-4.66-13.15,26.1,26.1,0,0,1-1.15-7.9,4.57,4.57,0,0,1,1.7-3.17,3.65,3.65,0,0,1,3.81-.08c2.52,1,3.78,3.85,4.94,6.42l3.33,7.66,6,12.72a26.46,26.46,0,0,1,3.23,8.72,10.17,10.17,0,0,1-.31,3.34c.06,0,.27-.2.51-.77a5.82,5.82,0,0,0,.49-2.6,23.81,23.81,0,0,0-2.82-9.15l-5.66-13-3.4-7.58a12.44,12.44,0,0,0-5.77-7.28,5.34,5.34,0,0,0-5.11.36,6.23,6.23,0,0,0-2.34,4.33A26.81,26.81,0,0,0,556.6,529a81.86,81.86,0,0,0,5,13.21c1.72,3.62,3.29,6.48,4.38,8.45a14.16,14.16,0,0,0,1.87,3C568.07,553.5,565.84,549.08,562.52,541.66Z"/><path class="cls-7" d="M551.15,556.17c-.53-2-1.72-4.92-3-8.51l-4.68-12.56a15.89,15.89,0,0,1-1.15-7.37,5.94,5.94,0,0,1,1.53-3.31,2.93,2.93,0,0,1,3.06-1c2.13.79,3.34,3.83,4.75,6.08l3.84,6.91,6.27,11.84,4.1,8.08a13.94,13.94,0,0,0,1.76,2.85,13.69,13.69,0,0,0-1.16-3.23c-.85-2-2.14-4.75-3.78-8.21s-3.62-7.54-6-12c-1.1-2.25-2.41-4.59-3.77-7-.66-1.21-1.33-2.4-2.09-3.65a7,7,0,0,0-3.56-3.21,4.56,4.56,0,0,0-4.71,1.43,7.61,7.61,0,0,0-1.92,4.18,16.89,16.89,0,0,0,1.29,8.13c1.89,4.73,3.62,8.91,5.06,12.45s2.64,6.38,3.51,8.33a14.86,14.86,0,0,0,1.5,3A13.75,13.75,0,0,0,551.15,556.17Z"/><path class="cls-7" d="M611.08,495.19c.89,2.73,3.07,3.81,3.35,3.43s-1.07-1.82-1.81-4-.41-4.19-.88-4.23C611.36,490.2,610.18,492.46,611.08,495.19Z"/><path class="cls-7" d="M559.49,499.45s-14.51,8-17.55,14.14C541.94,513.59,546.18,500.69,559.49,499.45Z"/><path class="cls-5" d="M112.8,538.68l-8.38,24.71S88.1,575.82,83.27,576.93s-10.52-6.4-10.52-6.4,2.26-4.93-1.34-.73-9.94-4.12-9.94-4.12l-9,2.94a13.84,13.84,0,0,1-11.93-2.14c-5.29-4.27,1.55-12.38,3-14.51s-2.05-2.49-2.05-2.49a153,153,0,0,1-19.85,5.36c-6.58.87-10.39,2.1-11.11-3.75s11.83-9.21,15.82-11,16.82-13.37,17.15-18.39S39,515.58,27,513.31,3.36,508.44,4.25,502.13s19.14-5,26-2.22,23.73-.9,37.57,2.71S92,522.26,92,522.26Z"/><path class="cls-7" d="M55.34,555.79a18,18,0,0,0,2.72-4.93,5.65,5.65,0,0,0-.93-5.89,5.8,5.8,0,0,0-5.92-1,11.28,11.28,0,0,0-4.43,3.19c-2.11,2.5-3.15,4.36-3.39,4.2a12.5,12.5,0,0,1,2.48-4.9,11.41,11.41,0,0,1,4.82-3.76,7.23,7.23,0,0,1,7.58,1.18A6,6,0,0,1,60,547.75a8.49,8.49,0,0,1-.54,3.7,17,17,0,0,1-3.09,5c-2.2,2.55-3.2,4.15-3.39,4.17S53.51,558.5,55.34,555.79Z"/><path class="cls-7" d="M78.05,551A93.81,93.81,0,0,0,82.2,537.7a26.21,26.21,0,0,0,.86-7.94,4.59,4.59,0,0,0-1.82-3.1,3.65,3.65,0,0,0-3.81.06c-2.48,1.12-3.64,4-4.7,6.6l-3,7.79-5.52,12.94a26.28,26.28,0,0,0-2.89,8.83,10.14,10.14,0,0,0,.44,3.33c-.06,0-.28-.19-.54-.75a5.88,5.88,0,0,1-.59-2.58,23.6,23.6,0,0,1,2.46-9.24l5.17-13.21,3.11-7.7a12.39,12.39,0,0,1,5.48-7.49,5.37,5.37,0,0,1,5.13.16,6.24,6.24,0,0,1,2.5,4.24,26.66,26.66,0,0,1-1,8.52A81.29,81.29,0,0,1,79,551.55c-1.58,3.69-3,6.6-4,8.61a13.79,13.79,0,0,1-1.76,3C73,563.06,75,558.56,78.05,551Z"/><path class="cls-7" d="M90,565.09c.45-2.06,1.53-5,2.71-8.62l4.2-12.73a15.85,15.85,0,0,0,.86-7.41,6,6,0,0,0-1.65-3.25A2.92,2.92,0,0,0,93,532.2c-2.11.88-3.2,4-4.52,6.27l-3.57,7-5.82,12.07-3.79,8.24a13.72,13.72,0,0,1-1.65,2.91,13.85,13.85,0,0,1,1-3.27c.77-2,2-4.83,3.46-8.35s3.33-7.67,5.51-12.25c1-2.29,2.23-4.67,3.5-7.13.62-1.24,1.24-2.45,1.95-3.73a7,7,0,0,1,3.43-3.33,4.55,4.55,0,0,1,4.77,1.24A7.71,7.71,0,0,1,99.38,536a17,17,0,0,1-1,8.17c-1.71,4.8-3.28,9-4.59,12.63s-2.39,6.48-3.19,8.46a14.9,14.9,0,0,1-1.39,3A14.15,14.15,0,0,1,90,565.09Z"/><path class="cls-7" d="M25.85,505.75c-.79,2.77-2.92,3.93-3.22,3.56s1-1.85,1.65-4,.26-4.19.72-4.25C25.38,500.78,26.64,503,25.85,505.75Z"/><path class="cls-7" d="M79.47,508.73s14.8,7.45,18.07,13.46C97.54,522.19,92.82,509.45,79.47,508.73Z"/><path class="cls-8" d="M71.56,258.34s10.17,22.3-8.32,45.26C51.76,317.85,33.55,348.45,43,358.72L80.8,372.81a110.8,110.8,0,0,1,22-42.18c16.12-18.17,17.41-56.16,17.41-56.16Z"/><g class="cls-9"><path class="cls-10" d="M98.16,327.27A19.3,19.3,0,0,1,71.46,333a18.73,18.73,0,0,1-2.2-1.67c-7.32-6.93-4.33-21.82,2.46-29.09a18.24,18.24,0,0,1,25.75-.71C104.79,308.44,103.7,318.87,98.16,327.27Z"/></g><g class="cls-11"><path class="cls-10" d="M78.67,367.83l-34.37-13-.11-.36c-2.52-17.42,13.63-38.45,24.34-52.36,1.75-2.37,3.54-4.66,5.06-6.58,9.66-13.28,4-30,2.84-30.86l.54-1.14,37.3,13.31.12.37a75.13,75.13,0,0,1-20,57.32c-10,10.28-15.51,32.33-15.54,32.64ZM45.46,353.94l32.33,12.17c1-4,6.31-22.93,15.67-32.55a73.87,73.87,0,0,0,19.7-55.93L78.31,265.15a22.76,22.76,0,0,1,1.08,3.43c.91,3.72,3.2,16.71-4.76,27.61-1.44,2-3.21,4.28-5.08,6.59C59.1,316.56,43.3,337.13,45.46,353.94Z"/></g><g class="cls-12"><path class="cls-10" d="M74.34,320.22,73.13,322,71,320.61l4-6L77.16,316l-1.22,1.82,10.31,6.9-1.6,2.39Z"/><path class="cls-10" d="M85.6,318.82l.46.31c.55.36,1.07.55,1.4.05s.14-.71-.39-1.06-1-.47-2.5.19c-1.91.85-3,1-4.43,0a3,3,0,0,1-.9-4.66c1.47-2.19,3.08-2,4.73-.88l.42.28-1.47,2.21-.6-.4c-.62-.41-.95-.39-1.19,0s-.08.69.37,1,.82.26,1.9-.23c2.34-1.06,3.49-1.08,4.95-.11,1.92,1.29,2.4,2.84,1,5-1.68,2.51-3.49,1.85-4.91.91l-.36-.25Z"/><path class="cls-10" d="M80.44,305.35,84.37,308a2.38,2.38,0,0,1,.31-2.43c1-1.52,2.42-1.26,3.83-.31l7.45,5-1.61,2.41L87.49,308c-.59-.4-1.1-.57-1.47,0s-.17,1,.77,1.58L93.41,314l-1.6,2.39-13-8.68Z"/></g><path class="cls-13" d="M103.78,292.05s-2,24.42-29.39,35.41c-17,6.82-47.82,24.6-44.6,38.19l26.08,30.77a110.67,110.67,0,0,1,39.84-26c23-8,42.64-40.49,42.64-40.49Z"/><g class="cls-11"><path class="cls-14" d="M93.28,365.18a19.32,19.32,0,0,1-26.09-8.08,17.75,17.75,0,0,1-1.1-2.53C63.1,345,73,333.42,82.46,330.4a18.24,18.24,0,0,1,22.81,12C108.26,352,102.22,360.56,93.28,365.18Z"/></g><g class="cls-11"><path class="cls-14" d="M56.45,391,32.8,362.93l.08-.38c6.32-16.42,30.69-26.87,46.83-33.77,2.69-1.22,5.36-2.33,7.63-3.27,14.92-6.86,18.18-24.18,17.57-25.53l1-.73,26,29.85-.08.38A75.16,75.16,0,0,1,86.4,369.7c-13.76,4.06-29.34,20.61-29.51,20.86ZM34.27,362.67,56.51,389.1c2.82-3,16.73-16.92,29.59-20.73a73.86,73.86,0,0,0,44.53-39.16l-24.29-27.92a22.25,22.25,0,0,1-.74,3.52c-1,3.68-5.38,16.13-17.65,21.76-2.24,1-4.89,2.16-7.66,3.25C64.44,336.74,40.6,347,34.27,362.67Z"/></g><path class="cls-8" d="M102.9,346.42s-11.3,21.74-40.78,21.33c-18.3-.26-53.61,4.25-55.88,18l12.2,38.44a110.72,110.72,0,0,1,46.79-8.64c24.25,1.5,55-20.89,55-20.89Z"/><g class="cls-9"><path class="cls-10" d="M65,409.84a19.32,19.32,0,0,1-21-17.52,19.57,19.57,0,0,1,0-2.76c1-10,14.53-16.85,24.44-16a18.22,18.22,0,0,1,16.42,19.84C83.91,403.45,75,409,65,409.84Z"/></g><g class="cls-11"><path class="cls-10" d="M21.05,419.48l-11-35.06.22-.31C22.45,371.39,49,371.15,66.53,371c3-.08,5.84-.08,8.3-.07,16.41-.58,26.1-15.3,26.05-16.78l1.23-.28,12.5,37.59-.21.31a75.13,75.13,0,0,1-57.49,19.56c-14.27-1.56-35,7.7-35.28,7.86Zm-9.53-34.72,10.33,33c3.75-1.65,22-9.15,35.3-7.71a74,74,0,0,0,56.19-18.95L101.7,355.92a21.76,21.76,0,0,1-2,3c-2.36,3-11.18,12.81-24.67,13.26-2.47.1-5.35.11-8.32.06C49.37,372.47,23.43,372.7,11.52,384.76Z"/></g><g class="cls-15"><path class="cls-10" d="M55.8,386.68l-2.17.17-.19-2.54,7.22-.53.19,2.53-2.18.16.91,12.37-2.86.22Z"/><path class="cls-10" d="M63.84,394.7l0,.55c0,.65.23,1.18.82,1.13.44,0,.65-.33.6-1s-.24-1.07-1.69-1.85c-1.84-1-2.61-1.78-2.74-3.49A3,3,0,0,1,64,386.51c2.62-.2,3.46,1.19,3.61,3.18l0,.5-2.65.2,0-.71c-.05-.75-.28-1-.71-1s-.6.36-.56.9S64,390.43,65,391c2.28,1.18,3,2.08,3.13,3.83.18,2.3-.75,3.64-3.29,3.83-3,.22-3.61-1.61-3.74-3.3l0-.44Z"/><path class="cls-10" d="M71.27,382.33l.35,4.71a2.42,2.42,0,0,1,2.11-1.25c1.81-.14,2.48,1.14,2.6,2.83l.66,8.93-2.88.22-.61-8.23c0-.71-.23-1.22-.89-1.17s-.85.45-.77,1.57l.59,7.95-2.87.21L68.4,382.54Z"/></g><path class="cls-10" d="M74.17,347.63l-1.83,1.18L71,346.67l6.09-3.92,1.37,2.14-1.84,1.19,6.72,10.43-2.42,1.55Z"/><path class="cls-10" d="M85.06,350.83l.3.46c.35.55.75.93,1.26.61s.41-.6.06-1.13-.71-.83-2.37-.82c-2.08,0-3.14-.32-4.06-1.76a3,3,0,0,1,1-4.62c2.22-1.43,3.61-.61,4.69,1.07l.28.42L84,346.5l-.38-.6c-.41-.63-.72-.74-1.08-.5s-.36.6-.06,1.05.65.57,1.84.55c2.57-.05,3.63.39,4.58,1.87,1.25,1.94,1.07,3.56-1.07,4.94-2.53,1.63-3.94.31-4.86-1.12l-.23-.37Z"/><path class="cls-10" d="M85.68,336.41l2.56,4a2.39,2.39,0,0,1,1.25-2.11c1.53-1,2.72-.18,3.64,1.24L98,347.06l-2.44,1.57-4.46-6.94c-.38-.6-.79-1-1.34-.61s-.54.81.07,1.75l4.32,6.71-2.42,1.55L83.26,338Z"/><path class="cls-6" d="M510.18,465.29l44.09,31.07s-25.9,4-32.19,39.38c0,0-35.73-.06-64.1-21.93,0,0-20.75-22.13-23.39-46.83S510.18,465.29,510.18,465.29Z"/><path class="cls-6" d="M131.32,458.63,84.71,504.37s26.2-.22,38.12,33.68c0,0,35.25-5.83,59.72-32,0,0,26.29-18,15.54-50C190.17,432.53,131.32,458.63,131.32,458.63Z"/><path class="cls-6" d="M188.24,281.35c13.57-7.8,77.33,1,48.88,85.12-12.86,79.11-30.06,100.5-40.31,122-10.54,22.05-67.34,28.65-72.7-3C118.79,454,161,297,188.24,281.35Z"/><path class="cls-16" d="M235.57,516.77A546.55,546.55,0,0,0,295,520.58c20.58.25,41.16-.46,61.71-1.53,12.69-.66,25.44-1.45,38.15-2.28,1.45-.1,1.47-2.36,0-2.27-21.9,1.41-43.81,2.77-65.74,3.44-19.94.62-40,.63-60-.49q-16.85-.9-33.59-3c-1.45-.17-1.44,2.1,0,2.27Z"/><path class="cls-6" d="M438.21,523.83c-15.46-97.74,9.64-236.76,6.22-240.45-7.23-7.86-71.05-23.28-87.41-27.85H274.89c-12.95,0-78.26,17.85-85.49,25.7C186,284.93,221.13,451.44,203,524.71,196.58,550.81,442.41,550.32,438.21,523.83Z"/><path class="cls-5" d="M353.65,248.78c-.8-2.53-.09-26-.09-26l-40,6.16-40-6.16s.79,26.28,0,28.79-16.45,8.15-16.45,8.15,3.57,32.39,55.52,32.39,60.4-32,60.4-32S354.44,251.33,353.65,248.78Z"/><path class="cls-7" d="M270.54,225c.67.48,5.57,6.59,6.28,7.07,17.43,11.64,20,14.81,35.07,15.4,15.05-.58,21.51-2.53,37.7-16.75,5.44-4.8,4.25-6.4,5.44-7.25C328,223.36,297.61,224.83,270.54,225Z"/><path class="cls-5" d="M243.59,144.41s-7.67-11.77-12-11.29c-2.65.28,3.48,6.24,4.23,13,1,9.06-5.66,10.18-3.56,15.29s4.82,22.93,11.83,22.17c2.78-.3,5.63-6.46,5.63-6.46S245.88,152.46,243.59,144.41Z"/><path class="cls-17" d="M245.46,177.65c-3,.33-5.86,2.44-6.2,5.61a5.72,5.72,0,0,0,1.07,4,5.08,5.08,0,0,0,2.55,1.82,7.27,7.27,0,0,0,6.55-.86c.33-.22.59-.69.15-1a1.54,1.54,0,0,0-1.52.17,4.1,4.1,0,0,1-3.81.39,5.93,5.93,0,0,1-1-.48s-.21-.14-.09,0a4,4,0,0,1-.7-.72,4.88,4.88,0,0,1-.13-6,4.06,4.06,0,0,1,1.3-1.14c-.13.07,0,0,0,0l.29-.14.21-.09h.1a4,4,0,0,1,.91-.19c.41,0,1.12-.29,1.19-.79s-.6-.61-1-.57Z"/><path class="cls-5" d="M379.93,145.08s6.44-12.49,10.81-12.46c2.67,0-2.82,6.56-2.89,13.34-.1,9.06,6.65,9.56,5.09,14.86s-2.49,23.29-9.54,23.24c-2.8,0-6.26-5.86-6.26-5.86S378.5,153.31,379.93,145.08Z"/><path class="cls-5" d="M385.05,151.44h0c-1.55,7.89-3.47,16.19-4.8,25.72-3.5,25.13-7.7,41.27-26.93,50.18s-22.4,14.95-37.86,15.52c-15.45-.57-21.23-5.25-41.13-13-18.33-7.11-24.11-27.6-27.61-52.73-.78-5.61-1.76-10.78-2.72-15.7-.73-3.63-1.48-7.17-2.16-10.6v-.19c-2.46-12.62-4-24.26-.58-38.32,3.48-14.54,15.52-32.62,33.81-44h0a72.37,72.37,0,0,1,38.41-11.05c39.65,0,66.76,32,72.3,55.11C389.22,126.73,387.6,138.55,385.05,151.44Z"/><path class="cls-18" d="M318.59,187a6.87,6.87,0,0,1-7.31-.35c-.46-.33-2,0-1.37.49a9.68,9.68,0,0,0,10,.3c.28-.18.23-.41-.1-.53a1.49,1.49,0,0,0-1.17.09"/><path class="cls-18" d="M308.87,186.45a15.32,15.32,0,0,0-5.37-1.34,1.28,1.28,0,0,0-.82.26c-.16.14-.19.32,0,.44a5.78,5.78,0,0,0,2.94.67,1.11,1.11,0,0,0,.91-.35c.17-.25-.14-.41-.38-.41a4.74,4.74,0,0,1-2.39-.54l-.8.7a13.57,13.57,0,0,1,4.8,1.2,1.1,1.1,0,0,0,1-.11c.2-.11.41-.38.12-.52"/><path class="cls-18" d="M301.58,186.67a5.91,5.91,0,0,1-4.88-2.62c-1.36-2.45-.1-5.36,2.19-6.93.24-.17.12-.4-.14-.46a1.34,1.34,0,0,0-1,.25,6.34,6.34,0,0,0-3,5.88c.29,2.15,2,3.63,4.24,4.28a8.69,8.69,0,0,0,2,.33c.28,0,.77-.09.9-.35s-.12-.37-.38-.38"/><path class="cls-18" d="M320.76,186.45a15.43,15.43,0,0,1,5.37-1.34,1.3,1.3,0,0,1,.83.26c.15.14.19.32,0,.44a5.82,5.82,0,0,1-2.95.67,1.09,1.09,0,0,1-.9-.35c-.17-.25.14-.41.39-.41a4.68,4.68,0,0,0,2.38-.54l.81.7a13.62,13.62,0,0,0-4.81,1.2,1.08,1.08,0,0,1-1-.11c-.2-.11-.42-.38-.12-.52"/><path class="cls-18" d="M328.06,186.67a5.92,5.92,0,0,0,4.88-2.62c1.36-2.45.1-5.36-2.19-6.93-.25-.17-.12-.4.13-.46a1.35,1.35,0,0,1,1,.26,6.38,6.38,0,0,1,3,5.89c-.28,2.15-2,3.63-4.23,4.28a8.7,8.7,0,0,1-2,.33c-.29,0-.78-.1-.91-.35s.12-.37.38-.38"/><path class="cls-19" d="M332.23,128.11v4.3c0,1.1,0,2.18,0,3.28,4-.91,7.35-1.56,10-2,5.44-.9,8.16-1.28,11.35-.8a32.09,32.09,0,0,1,7.25,2.06,19.76,19.76,0,0,1,3.8,1.81c2.72,1.76,3.78,3.76,4.22,3.58s-.27-1.91-.33-2.09a17,17,0,0,0-5.72-7.25,22,22,0,0,0-7.35-3c-3.11-.73-11.78-1.22-23.2.09"/><path class="cls-20" d="M346,145.37a4.85,4.85,0,0,1,5.24.95,4.72,4.72,0,0,1,1.42,2.19,4.84,4.84,0,0,1-1.15,4.41,4.53,4.53,0,0,1-5.16.91,5,5,0,0,1-2.44-5.77,4.4,4.4,0,0,1,2.09-2.72"/><path class="cls-20" d="M331.42,152.08s9.78-7.12,14.79-7.58c7.31-.67,16.31,3.07,18.89,6.41,0,0-11.91-5.59-17-5C343.15,146.52,331.42,152.08,331.42,152.08Z"/><path class="cls-19" d="M297,128.27v7.57c-4-.9-7.37-1.56-10-2-5.43-.86-8.15-1.28-11.35-.81a32.12,32.12,0,0,0-7.25,2.07A19.68,19.68,0,0,0,264.6,137c-2.72,1.81-3.79,3.77-4.23,3.62s.27-1.91.34-2.09a17,17,0,0,1,5.72-7.25,22.21,22.21,0,0,1,7.33-3.06c3.13-.72,11.78-1.21,23.22.1"/><path class="cls-20" d="M283.21,145.52c-1.82-1-4-.13-5.25.91a4.62,4.62,0,0,0-1.41,2.19,4.84,4.84,0,0,0,1.14,4.41,4.53,4.53,0,0,0,5.16.91,5,5,0,0,0,2.44-5.77,4.37,4.37,0,0,0-2.08-2.72"/><path class="cls-20" d="M297.77,152.22S288,145.11,283,144.65c-7.3-.67-16.31,3.07-18.89,6.41,0,0,11.9-5.59,17-5C286,146.67,297.77,152.22,297.77,152.22Z"/><path class="cls-21" d="M229.78,85.11s32.66-15.93,74.46-10.63,68.44,21,75.5,39.79,5.43,46.63,5.43,46.63,6,7.12,13.44-31.15c10.87-55.77-50.12-105-63.66-105S249.2,22.73,229.78,85.11Z"/><path class="cls-21" d="M237.27,68.83s-7-44,23.3-52.2,94.09-23,112.73,17.14Z"/><path class="cls-22" d="M235.71,159.14A26.41,26.41,0,0,1,229,147.72c-3.37-11.87-9.26-36.4-3.85-47.29,2.36-4.74,3.31-18.88,3.54-23,1.17-21.74-4-15.11,26.61-39.86s35.89-17.91,81.8-15,59.08,17.81,55.53,60.83c0,0-75.65-17.52-104.79-1.76S233.06,119,243.31,166.15C243.43,166.75,239.2,162.66,235.71,159.14Z"/><path class="cls-21" d="M392.27,63.53s-54-19.63-74.7-21.34,65.43,1.6,73.69,11Z"/><path class="cls-17" d="M381.74,179.44a5.11,5.11,0,0,1,4.86,4.17,4.94,4.94,0,0,1-.54,3.35,4.44,4.44,0,0,1-.52.76c-.05.07-.11.13-.16.19s-.13.16-.05.09h0l-.28.2-.09.06a3.37,3.37,0,0,1-.32.19,3.21,3.21,0,0,1-1.35.44,4.46,4.46,0,0,1-2.5-.57,1.71,1.71,0,0,0-1.4.06c-.12,0-1,.51-.61.72a7.12,7.12,0,0,0,5.85.35,6.7,6.7,0,0,0,2.72-1.57,5.61,5.61,0,0,0,0-7.65,6.4,6.4,0,0,0-4.67-1.81,1.93,1.93,0,0,0-1.42.55c-.28.4.23.47.53.47Z"/><path class="cls-23" d="M315.23,200.66c-11.41,0-29.9-1.3-29.9-1.3s3.45,26,29.9,26,29.9-26,29.9-26S326.65,200.66,315.23,200.66Z"/><path class="cls-24" d="M315.34,200.66c-5.43,0-27.31-.9-27.31-.9a29.72,29.72,0,0,0,26.87,15.66c21.29,0,27.54-15.5,27.54-15.5Z"/><path class="cls-25" d="M315.6,201.45c-5.44,0-22-.91-22-.91s6,5.78,22.24,5.78,21.45-5.61,21.45-5.61Z"/><path class="cls-23" d="M346.4,197.76c-.58-.13-3.74.91-6.43.66-4.53-.38-10-1.53-13.18-1.77-5.57-.42-9.06,1.72-11.51,1.72s-5.94-2.14-11.51-1.72c-3.25.24-8.69,1.39-13.18,1.77-2.72.22-5.85-.79-6.43-.66-.8.19.75,5.92,31.13,5.92S347.15,197.93,346.4,197.76Z"/><path class="cls-19" d="M248.17,116.55s50.4-19.24,59.93-33.61c-1,1.55,10.1,9.38,11,9.87,9.33,5.29,20.48,7,30.14,3.36,3.68-1.38,3.68-2,6.12-5,0,0,9.78,20.42,24.42,23,0,0-17.17-37.27-62.64-37.93C317.1,76.35,283.49,68,248.17,116.55Z"/><path class="cls-26" d="M283.94,113.78s14.68,6.06,29,4.65,31.85-5,31.85-5"/><path class="cls-27" d="M247.16,142.54l2.72,7.25c1.6,5.66,6.29,16.85,8.38,19.89,2.95,4.24,34.38,5.26,40.47,1.67s9.17-21,10.72-25l12.57.43c1.23,5.16,5.51,21.51,7.94,23.68s16.82,1.48,18.44,1.4c1.35-.08,3.23-.19,5.29-.39,5.43-.5,12-1.51,14-3.5,3-2.93,6-14,8.65-24.46l.43-1.64c.09-.4.22-.67.22-.79h0l.47-1.88c-18.25-7.95-42-6.1-56.17,4.4l.11.18-12.26-.47c-14-8.59-41.16-13.27-58.14-6.53h0l-16.46,13-.06,4.53Zm84.22,26.23c-1.52-1.35-4.87-12.79-7.18-21.75,12.34-8.87,33.7-10.51,50-4.29V143c-1.41,5.6-5.15,20.54-8.05,23.43-3.45,3.4-32.12,4.47-34.77,2.4Zm-69.44-.36A152.6,152.6,0,0,1,251,142.55c15.09-7,41.68-3.78,55.37,4.36-2,7.24-4.47,19.93-8.84,22.54C291.26,173.15,263.79,171.09,261.94,168.41Z"/><polygon class="cls-27" points="377.44 139.22 388.32 149.75 387.75 153.58 376.15 143.04 377.44 139.22"/><path class="cls-6" d="M218.25,345.23s-24,25.75-24,71.8c0,24.46,41.68,45.68,41.68,45.68"/><path class="cls-6" d="M425.87,337.29S445,363,445,409.11c0,24.46-36.76,45.68-36.76,45.68"/><path class="cls-28" d="M129.83,457.28s19.35-5.34,36.63,8.11C166.46,465.39,146.84,444.31,129.83,457.28Z"/><path class="cls-28" d="M511.64,465.81s-20-1.65-34.49,14.76C477.15,480.57,492.52,456.22,511.64,465.81Z"/><path class="cls-6" d="M319.06,629.37a287.54,287.54,0,0,0,138-35c-8.21-42.37-16.83-82.69-21.78-94.43,0,0-185.16,22.47-225.94,0,0,0-17.12,49.75-27.6,94.82A287.62,287.62,0,0,0,319.06,629.37Z"/><path class="cls-28" d="M200.85,338.24s5.35,10.36,4.76,17.45-8.9,27.19-12.33,55.12-3.12,43.37,17.58,59.15a59.31,59.31,0,0,1-12.1-17.53c-4.75-10.65-6-21.38-2-45.09s11.26-45.79,10.61-55.62-7.94-13.43-7.94-13.43"/><path class="cls-28" d="M436.52,338.05s-4.73,10.71-3.72,17.74,10.47,26.52,15.53,54.15S454,453,434.25,470.2a60.48,60.48,0,0,0,11.05-18.34c4.12-11,4.71-21.76-.67-45.14S430.71,361.81,430.78,352s7.14-14,7.14-14"/><path class="cls-5" d="M557.06,309.22l-11.95,11.65-11-15.78c4.85-.26,4.7-2.23,4.7-2.23a56.11,56.11,0,0,0,.65-6.95l7.59,1.1,7.67.34s-1,7.22-.82,8.62C553.91,306,553.34,308,557.06,309.22Z"/><path class="cls-5" d="M534.59,288.74s-.75,1-1.27,1c-1.31-.11-1.13-1.52-1.33-2.53s-1.19-3-1-4.73c.1-1.26,1.42-2.48,1.92-2.43.82.07,1.8,2.51,1.8,2.51C534.78,284.09,534.59,288.74,534.59,288.74Z"/><path class="cls-29" d="M533.74,284.78a.26.26,0,0,0,.2.14s.19,0,.17-.05a10.58,10.58,0,0,0-1-2.1,2.14,2.14,0,0,0-1.13-1,.25.25,0,0,0-.17,0,.73.73,0,0,0-.2.27,2.71,2.71,0,0,0-.23,1.75c0,.12.38.21.36.08a2.83,2.83,0,0,1,.12-1.47,1.19,1.19,0,0,1,.27-.46H532c.06,0,0,0,0,0l.06,0c-.05,0,0,0,0,0l.14.11a4.31,4.31,0,0,1,.39.46,9.84,9.84,0,0,1,1.08,2.24Z"/><path class="cls-29" d="M533.47,285.17c.25,0,.17-.22,0-.24a.5.5,0,0,0-.52.18,1,1,0,0,0-.1.55c0,.2,0,.41,0,.61a.76.76,0,0,1,0,.26,1.31,1.31,0,0,0-.05.15s0,0,.06,0a.13.13,0,0,1,.1,0l0,0,0-.08a1.33,1.33,0,0,1-.1-.34,5.69,5.69,0,0,1-.13-1,2.59,2.59,0,0,1,.1-.87,1.28,1.28,0,0,1,.67-1c.09,0,0-.13,0-.17a.27.27,0,0,0-.26,0c-.49.16-.69.74-.79,1.19a3.24,3.24,0,0,0,0,1.16,4.21,4.21,0,0,0,.17.94.55.55,0,0,0,.37.41c.44.09.36-.58.35-.83s-.12-1,.26-.93Z"/><path class="cls-30" d="M555.7,298.17c-.26.19-.05.59-1.25,1.65-3.55,3.12-4.88,3.47-7.89,3.33-3-.43-3.44-1.24-6.65-4.37-.12-.13-1-1.69-1.09-1.82C544.22,297.43,550.31,297.64,555.7,298.17Z"/><path class="cls-5" d="M560.32,291.68s.54,1.15,1.06,1.2c1.31.13,1.39-1.29,1.78-2.25s1.74-2.76,1.92-4.45c.13-1.26-.94-2.69-1.44-2.74-.81-.08-2.23,2.13-2.23,2.13C561,287.07,560.32,291.68,560.32,291.68Z"/><path class="cls-29" d="M561.17,287.78c-.08.13.25.26.33.13a14.12,14.12,0,0,1,.88-1.3,3.56,3.56,0,0,1,1-1l.15-.08h.13s0,0,0,0h0l-.15-.09h0l0,.1a1.33,1.33,0,0,1,.1.34,2.65,2.65,0,0,1-.14,1.34c-.06.15.28.28.33.13a2.6,2.6,0,0,0,.06-1.78c-.06-.16-.14-.31-.34-.3a.87.87,0,0,0-.44.16,3.47,3.47,0,0,0-.79.69,11,11,0,0,0-1.15,1.64Z"/><path class="cls-29" d="M562.06,288.15c-.07,0-.14,0-.11.1s.16.11.23.12c.27,0,0,1-.06,1.13a.82.82,0,0,0,0,.49.38.38,0,0,0,.45.21c.18-.08.28-.34.34-.5a5.46,5.46,0,0,0,.34-1.06,3,3,0,0,0,0-.95,1.38,1.38,0,0,0-.61-1.14s-.2-.09-.25,0,0,.13.09.16c.38.21.41.84.42,1.22a3.19,3.19,0,0,1-.18,1.06,4.4,4.4,0,0,1-.33.85l-.09.13s-.05,0-.06.05.18.13.19.06,0,0,0,0,0,0,0-.07a1.71,1.71,0,0,1,.09-.51q.08-.3.12-.6a.71.71,0,0,0-.08-.45.67.67,0,0,0-.51-.24Z"/><path class="cls-5" d="M563,272.42c-.9-3.19-5.34-8-12.79-8.68a18.53,18.53,0,0,0-11.16,2.42h0a9.8,9.8,0,0,0-3.79,3.65c-.86,1.71-1.21,6.18-1.17,10h0a100.29,100.29,0,0,0,.52,10.06c.08.65.18,1.21.27,1.63.77,3.65,5.94,9.76,11.73,10.31s12-4.5,13.45-7.93c.37-.88.94-3.25,1.44-5,0-.09.05-.14.05-.17C563,283.61,563.85,275.32,563,272.42Z"/><path class="cls-29" d="M548.66,290.27a.26.26,0,0,1,.23,0c.06,0,.07.08,0,.12a1.64,1.64,0,0,1-1.92-.12c-.12-.1.18-.18.27-.1a1.17,1.17,0,0,0,1.41.11"/><path class="cls-29" d="M546.8,289.93c.06,0,0,.09,0,.11a.22.22,0,0,1-.21,0,2.69,2.69,0,0,0-.95-.37l.18-.14a.82.82,0,0,0,.47.17s.11.05.07.1a.23.23,0,0,1-.19.07,1.23,1.23,0,0,1-.59-.21.07.07,0,0,1,0-.1.22.22,0,0,1,.17-.05,2.9,2.9,0,0,1,1.07.41"/><path class="cls-29" d="M545.31,289.84c.06,0,.11,0,.07.09s-.14.07-.19.06a1.91,1.91,0,0,1-.41-.11,1.17,1.17,0,0,1-.77-1,1.46,1.46,0,0,1,.73-1.26.23.23,0,0,1,.21,0s.07.07,0,.1a1.28,1.28,0,0,0-.59,1.52,1.2,1.2,0,0,0,.94.68"/><path class="cls-29" d="M549.16,290.22c-.06,0,0,.09,0,.12a.24.24,0,0,0,.2.05,2.48,2.48,0,0,1,1-.18l-.15-.17a.86.86,0,0,1-.5.07c-.05,0-.12,0-.09.09a.21.21,0,0,0,.18.09,1.11,1.11,0,0,0,.62-.09s0-.07,0-.1a.22.22,0,0,0-.17-.07,3.07,3.07,0,0,0-1.12.19"/><path class="cls-29" d="M550.64,290.4s-.11,0-.08.08.12.09.17.1a2,2,0,0,0,.43,0,1.17,1.17,0,0,0,1-.88,1.46,1.46,0,0,0-.49-1.37.24.24,0,0,0-.19-.08s-.08.06,0,.1a1.28,1.28,0,0,1,.31,1.6,1.22,1.22,0,0,1-1.06.49"/><path class="cls-31" d="M542.09,281.24a1.14,1.14,0,0,1,.49.75,1.31,1.31,0,0,1-.79,1.45,1.17,1.17,0,0,1-1.32-.36,1.25,1.25,0,0,1-.19-1.18,1.12,1.12,0,0,1,.42-.54,1.27,1.27,0,0,1,1.4-.12"/><path class="cls-31" d="M541.61,281.51a5.91,5.91,0,0,0-3.77,1.19,3.94,3.94,0,0,1,3.89-1.61c1.82.17,3.31,2.53,3.31,2.53A6.58,6.58,0,0,0,541.61,281.51Z"/><path class="cls-31" d="M555.39,282.49a1.13,1.13,0,0,0-.62.65,1.3,1.3,0,0,0,.5,1.57,1.19,1.19,0,0,0,1.37-.11,1.26,1.26,0,0,0-1.26-2.12"/><path class="cls-31" d="M555.81,282.85a5.93,5.93,0,0,1,3.49,1.87,3.94,3.94,0,0,0-3.53-2.31c-1.81-.17-3.73,1.86-3.73,1.86A6.66,6.66,0,0,1,555.81,282.85Z"/><path class="cls-32" d="M565.7,276.51h0c.93.93-.17,4.61-.17,4.61.7,3.35-3.19,4.65-3.19,4.65a43,43,0,0,1,0-5.63c.23-1.93-.65-8.47-2.34-9.12-.82-.31-2.84.82-9.89.16s-11-2.72-11.72-1.85-3.06,5-3.14,7.46a36.13,36.13,0,0,1-1.07,6.29s-2.53-1.83-3-3.33c-.37-1.09.63-2.67.63-2.67s-1.9-2.84,0-4.81c0,0-1.65-.43-.34-2.62-.11-.8-.31-.66-.28-1.24a3.72,3.72,0,0,1,1.34-2.85c.3-1.24,2.35-1.67,2.35-1.67.18-1.92,1.54-1.91,1.54-1.91a2.85,2.85,0,0,1,4-.82c1.62-3.34,6.85-1.77,6.85-1.77,2.24-1.49,4.17.79,4.17.79.5-1,1.65,0,1.65,0a3.13,3.13,0,0,1,4.79,1.47,1.86,1.86,0,0,1,1.78-.27c3.76-.65,4.64,3.31,4.64,3.31,1.3-.28,1.39,2.64,1.39,2.64a5.74,5.74,0,0,1,1.79,2.15c.39,1.41.09,2.6-.59,4.52h0C567.72,275.19,565.7,276.51,565.7,276.51Z"/><path class="cls-31" d="M545.59,278.06a16,16,0,0,0-6-.44,2.56,2.56,0,0,0-2.25,1.46c0,.05-.22.54-.13.59s.66-.26.82-.34a3.79,3.79,0,0,1,1.59-.41,10.23,10.23,0,0,1,3.55.52,20.86,20.86,0,0,1,2.23.77l.08-.93.12-1.22"/><path class="cls-31" d="M552.34,278.7a15.54,15.54,0,0,1,5.91.68,2.51,2.51,0,0,1,1.9,1.85c0,.06.11.57,0,.61s-.59-.38-.73-.49a3.73,3.73,0,0,0-1.46-.7,10.21,10.21,0,0,0-3.53-.15c-.59.06-1.37.17-2.29.35l.08-.93.12-1.22"/><path class="cls-10" d="M542.43,313.08c1-.54,1.94,0,2.37,1.31s0,5,0,5l-4-4.77A5.94,5.94,0,0,1,542.43,313.08Z"/><path class="cls-10" d="M548.69,314c-.82-.7-1.9-.38-2.56.85s-1,4.93-1,4.93l4.85-3.93A6.1,6.1,0,0,0,548.69,314Z"/><g id="freepik--Character--inject-2"><path class="cls-4" d="M576,355.35a19.27,19.27,0,0,1,.55-5.3c.4-1.62,1-3.19,1.49-4.77a28.64,28.64,0,0,0,1.36-5.53s0-.08,0-.13l18.47-18.55,7.86,7.17s-8.61,16.71-17.59,26.27c-.57.62-3.21,3.29-5.86,3.93h0c-3.54.6-4.46-1.6-6.29-2.88C575.9,354.6,576,356.31,576,355.35Z"/><path class="cls-4" d="M564.92,344.58a52.34,52.34,0,0,1-1.49-12.71c.16-7.21-.6-15.11.07-22.27a30,30,0,0,1,8.87,3.36,12.85,12.85,0,0,1,2.62,2,18,18,0,0,1,3.07,5.64c.69,1.83,1.47,4,2.16,5.79,1.79,4.7,2.95,8.91,4.74,13.61-.66,3.27-.45,5.05-1.49,8.21-1.2,3.64-.73,5.68-.45,9.48.06.75-3.16-.1-3.06.66-5.87-1.82-8.73-6.05-11.86-11"/><path class="cls-5" d="M603.6,324.41c-.09-.32,1-7.23,1-7.23l8.14-4.78-.7,7.94a40.21,40.21,0,0,1-2.78,3.05C609.1,323.36,603.61,324.41,603.6,324.41Z"/><path class="cls-5" d="M603.4,321.78a40.6,40.6,0,0,1,5.74-1.69l-.58-2.06s-2.64-.5-3.45-1.54a2.5,2.5,0,0,1-.29-2.31l1.46.26c-.79-.65-.52-2.11-.52-2.11l1.61.17a1.23,1.23,0,0,1-.43-1.69l.08-.12,1.26.27c-.82-.72.4-1.74.4-1.74s6,3.77,6.43,4.33-.21,2.23-.21,2.23a2.19,2.19,0,0,1,.7,1.37,2.36,2.36,0,0,1-.71,1.74,3.52,3.52,0,0,1,.06,1.48c-.15.79-3.62,3.3-3.62,3.3l-5.5,4.12-4.41-4.9S602.18,322.44,603.4,321.78Z"/><path class="cls-30" d="M607,322.27c0,.11,1.45-.36,3.41-.48l.29,0-.11-.28c-.15-.38-.31-.83-.44-1.23a13.63,13.63,0,0,1-.42-1.76l0-.18-.18,0a6.38,6.38,0,0,1-2-.36,3.24,3.24,0,0,0-.8-.22c0,.05.23.23.71.46a5.5,5.5,0,0,0,2.15.54l-.21-.18a11.49,11.49,0,0,0,.4,1.83,12.15,12.15,0,0,0,.47,1.27l.19-.31A7.68,7.68,0,0,0,607,322.27Z"/></g><rect class="cls-33" x="573" y="307.43" width="44.04" height="29.49" transform="translate(267.39 914.22) rotate(-89.47)"/><path class="cls-34" d="M604.9,342.14v.12l-20.1-.18a2.44,2.44,0,0,0-2.2-2.45h-.31l.3-33.88a3,3,0,0,0,3-2.71c0-.09,0-.17,0-.25l19.66.18a2.44,2.44,0,0,0,2.21,2.45l.21,0-.31,34.49A2.45,2.45,0,0,0,604.9,342.14Z"/><g id="freepik--Label--inject-3"><path class="cls-35" d="M599.29,342.33l-4.5,8.25a.22.22,0,0,0,.26.32l3-1a.23.23,0,0,1,.28.13v0l.7,3a.21.21,0,0,0,.26.16.26.26,0,0,0,.15-.12l4.35-8.94Z"/><path class="cls-35" d="M604,344.21l.9,9.37a.22.22,0,0,0,.24.19.19.19,0,0,0,.15-.08l1.9-2.49a.23.23,0,0,1,.31,0h0l2.25,2.09a.23.23,0,0,0,.31,0,.23.23,0,0,0,.05-.18l-1.43-9.84Z"/><polygon class="cls-36" points="605.71 327.74 607.01 326.96 607.85 328.22 609.3 327.79 609.81 329.21 611.32 329.16 611.46 330.67 612.93 330.99 612.69 332.48 614.04 333.16 613.43 334.55 614.58 335.54 613.64 336.73 614.5 337.98 613.3 338.9 613.82 340.32 612.43 340.92 612.58 342.42 611.08 342.65 610.85 344.15 609.35 344 608.75 345.39 607.33 344.87 606.41 346.07 605.16 345.21 603.97 346.15 602.98 345 601.59 345.62 600.91 344.26 599.42 344.51 599.1 343.03 597.59 342.89 597.65 341.38 596.22 340.88 596.65 339.43 595.39 338.58 596.17 337.29 595.16 336.15 596.24 335.09 595.54 333.75 596.85 332.98 596.51 331.51 597.97 331.09 598.01 329.58 599.52 329.54 599.93 328.08 601.41 328.42 602.17 327.12 603.51 327.81 604.58 326.73 605.71 327.74"/><circle class="cls-10" cx="604.88" cy="336.5" r="6.86"/><path class="cls-36" d="M606.53,335l1.8.44a.37.37,0,0,1,.27.45.34.34,0,0,1-.13.2L607,337.27a.37.37,0,0,0-.14.32l.14,1.85a.38.38,0,0,1-.34.4.4.4,0,0,1-.22-.06l-1.56-1a.37.37,0,0,0-.34,0l-1.74.7a.33.33,0,0,1-.24,0,.36.36,0,0,1-.25-.45l.48-1.8a.35.35,0,0,0-.07-.33l-1.2-1.42h0a.37.37,0,0,1,0-.52.39.39,0,0,1,.23-.09l1.85-.09a.38.38,0,0,0,.3-.17l1-1.58a.35.35,0,0,1,.18-.16.37.37,0,0,1,.47.22l.66,1.74A.4.4,0,0,0,606.53,335Z"/></g><path class="cls-29" d="M586.75,333.35c0-.11-.31-.2-.32-.12a14.2,14.2,0,0,0-.13,1.45.56.56,0,0,0,.46.57.81.81,0,0,0,.81-.28c.16-.15.27-.34.42-.49s.38-.45.53-.44l-.18-.08c.09.1.09.34.11.47a3.54,3.54,0,0,0,.08.45.88.88,0,0,0,.41.57c.06,0,.21.1.26,0a5.21,5.21,0,0,1,.94-1.1,3.05,3.05,0,0,1,.49-.38.66.66,0,0,1,.27-.12c.25,0,.22.13.26.29a.72.72,0,0,0,.56.53,1.45,1.45,0,0,0,1-.22c.07,0-.21-.2-.3-.15-.25.13-.81.44-1,0-.06-.17,0-.33-.15-.47a.7.7,0,0,0-.69-.16,2.29,2.29,0,0,0-.95.64,5.33,5.33,0,0,0-.82,1l.26,0c-.43-.25-.32-.86-.46-1.26a.36.36,0,0,0-.27-.26c-.18,0-.29.07-.43.18a3.8,3.8,0,0,0-.52.54c-.15.19-.35.49-.62.51s-.21-.62-.19-.84l.09-.9Z"/><line class="cls-37" x1="600.41" y1="310.88" x2="590.37" y2="310.65"/><line class="cls-38" x1="603.52" y1="315.26" x2="585.75" y2="315.09"/><line class="cls-38" x1="593.81" y1="336.46" x2="585.55" y2="336.28"/><line class="cls-38" x1="604.78" y1="318.24" x2="585.67" y2="317.94"/><line class="cls-38" x1="604.68" y1="321.16" x2="585.56" y2="320.86"/><path class="cls-39" d="M540.85,314.6l4.15,5.06,4.87-4.12.64,1.66s-4.59,4.4-5.66,4.07-5-5.37-5-5.37Z"/><path class="cls-10" d="M533.76,306.62a30.4,30.4,0,0,0,3.44,6.75l2.4,3.3s1.3-3,3.17-3.68c.71-.25,2,1.4,2,1.4L541,309.28a16.64,16.64,0,0,1-1.78-3.09,9.37,9.37,0,0,1-.67-5.12h0l-1.12.21a12.26,12.26,0,0,0-2.94,2l-1.26,1.2Z"/><path class="cls-5" d="M605.62,316.24a2.33,2.33,0,0,1-.24-2.16l1.36.26c-.73-.62-.46-2-.46-2l1.51.19h0a1.17,1.17,0,0,1-.37-1.6l.08-.1,1.17.27c-.75-.7.41-1.62.41-1.62s1.7,1.1,3.29,2.18a9.58,9.58,0,0,1-.81,1.38,25.25,25.25,0,0,0-1.3,2.47c-.39.84.65,4.06.12,4.82,0,0-.77-1.48-.79-1.45l-.77-1.16S606.34,317.23,605.62,316.24Z"/><path class="cls-30" d="M605.44,314.13a3.2,3.2,0,0,0,1.17.37,21.06,21.06,0,0,1,2.83.64,4.78,4.78,0,0,1,1.38.72,11.11,11.11,0,0,1,1,.85,2.61,2.61,0,0,0,1,.68s-.34-.3-.86-.85a12,12,0,0,0-1-.92,4.72,4.72,0,0,0-1.46-.8,15.81,15.81,0,0,0-2.9-.56A8.29,8.29,0,0,0,605.44,314.13Z"/><path class="cls-30" d="M613.27,315.33a4.21,4.21,0,0,0-.82-.76l-1-.79a3.26,3.26,0,0,0-.61-.44,4.4,4.4,0,0,0-.75-.31,15.8,15.8,0,0,0-2.72-.55,4.84,4.84,0,0,0-1.14-.1,3.58,3.58,0,0,0,1.1.33c.69.16,1.66.32,2.66.64a4.65,4.65,0,0,1,.7.28,3.27,3.27,0,0,1,.58.39l1,.73A4,4,0,0,0,613.27,315.33Z"/><path class="cls-30" d="M614,313.92a3.58,3.58,0,0,0-.82-.71l-.93-.69-.57-.41-.29-.21-.16-.11-.19-.1a21.28,21.28,0,0,0-2.52-.69,3.22,3.22,0,0,0-1.07-.15,4.08,4.08,0,0,0,1,.37c.65.21,1.53.44,2.45.78l.14.07.16.1.29.21.58.39,1,.64A3.78,3.78,0,0,0,614,313.92Z"/><path class="cls-40" d="M565.7,364.14c.16-1.11.37-2.63.62-4.47.49-3.77,1.15-9,1.84-14.73s1.29-11,1.71-14.76c.19-1.84.35-3.36.42-4.48,0-.49.07-.87.11-1.23a2,2,0,0,0,0-.42,1.17,1.17,0,0,0-.1.41c-.05.33-.12.73-.19,1.21-.15,1.13-.35,2.63-.6,4.47-.49,3.78-1.14,9-1.83,14.74-.73,6.08-1.27,11-1.71,14.76-.19,1.84-.36,3.36-.47,4.48l-.11,1.22"/><path class="cls-23" d="M541.72,292.16s.27,4.33,5.42,4.82,6.22-3.73,6.22-3.73-3.62-.08-5.84-.29S541.72,292.16,541.72,292.16Z"/><path class="cls-24" d="M542.24,292.31s1,2.36,5.15,2.75c3.81.36,5.43-1.78,5.43-1.78s-4.27-.22-5.32-.32Z"/><path class="cls-25" d="M543.21,292.56s.91,1.19,4.07,1.49,4.43-.72,4.43-.72-3.22-.13-4.27-.23Z"/><path class="cls-23" d="M547.47,293.54c5.91.56,6.32-.53,6.17-.58a9.52,9.52,0,0,1-1.27,0c-.86-.16-1.9-.48-2.53-.58a9.13,9.13,0,0,0-2.27.12,9.61,9.61,0,0,0-2.21-.55c-.64,0-1.72.11-2.6.1a8.31,8.31,0,0,1-1.24-.24C541.36,291.84,541.56,293,547.47,293.54Z"/><path class="cls-10" d="M558.42,309.26a30.1,30.1,0,0,1-4.64,6l-3,2.79s-.7-3.22-2.42-4.2c-.65-.38-2.25,1-2.25,1l4.64-4.31a16.2,16.2,0,0,0,2.33-2.71,9.54,9.54,0,0,0,1.62-4.91h0l1.06.42a12.44,12.44,0,0,1,2.5,2.52l1,1.42Z"/><path class="cls-41" d="M550.81,318s-.7-3.23-2.42-4.21c-.66-.38-2.26,1-2.26,1"/><path class="cls-41" d="M539.62,316.5s1.29-3,3.16-3.68c.71-.25,2,1.4,2,1.4"/><path class="cls-4" d="M523.32,307.1s-9.71.81-13.31,12-5.9,47.26-5.9,47.26l11.74,1.31Z"/><path class="cls-40" d="M514,366.72c.11-1.12.26-2.64.43-4.49.32-3.79.76-9,1.2-14.8s.8-11.06,1.06-14.82c.11-1.85.21-3.37.23-4.49,0-.49,0-.88,0-1.23a2.07,2.07,0,0,0,0-.43,1.42,1.42,0,0,0-.08.42c0,.33-.08.73-.14,1.21-.09,1.14-.23,2.64-.4,4.5-.32,3.79-.75,9-1.19,14.8-.46,6.11-.79,11-1.06,14.82-.12,1.85-.22,3.38-.28,4.5l-.06,1.22"/></g></svg>