<svg xmlns="http://www.w3.org/2000/svg" viewBox="0 0 637.33 635.77"><defs><style>.cls-1{fill:#c1e7f6;}.cls-2{fill:#d16152;}.cls-3{fill:#a86e57;}.cls-4{fill:#42221a;}.cls-5{fill:#cd8c2a;}.cls-6{fill:#12100e;}.cls-7{fill:#b05e27;}.cls-8{fill:#de8b26;}.cls-9{fill:#fff;}.cls-10{fill:#643b29;}.cls-11{fill:#14110f;}.cls-12{fill:#f0edf6;}.cls-13{fill:#812a23;}</style></defs><g id="Layer_1" data-name="Layer 1"><circle class="cls-1" cx="319.06" cy="340.56" r="288.85"/><path class="cls-2" d="M417.17,329.23l-48.84-12-94.7,2.64-86.1,23.86c-1.39,7.24-.54,15.56-.71,22.88q-.58,24.3-1,48.58-.51,25.38-1,50.75c-.3,15.56-1.86,45.37,4.7,59.89a56.64,56.64,0,0,0,2.67,5.2c4.73,8.2,16.41,6.53,17,16,1.13,18.74,2.22,39.07-3.17,59.18A289.51,289.51,0,0,0,443,601.79c-.16-.51-.31-1-.44-1.36-4.32-13.37-.46-37.36,6-50.09,4.48-8.77,2.17-5.71,7-14.23,7.62-13.37,5.86-44.91,6.77-58.75.82-12.56,4.62-39.28-2.47-62.11C446.53,372,417.17,329.23,417.17,329.23Z"/><path class="cls-2" d="M101.51,623.33c-14,2.84-33.62-2.26-43.44-12.62-7.2-7.6-12.07-18.62-7.62-34.11,10.69-37.15,53-116.48,65.66-142S132,358.33,181.9,343.16c34.64-10.53,59.85-17.69,59.85-17.69s3.69,96.83-33.95,147L199,470.33,163.12,531.9l96-2.18-.52,59.82Z"/><path class="cls-2" d="M417.28,329.23l35.77,11.34s23.75,5.64,38.77,22.17,30.88,45.65,46,62.8c11.21,12.75,60.76,44.68,64.41,62.16s1.14,66.28-23,68.64c0,0-126.78-126.38-128.21-125.88s-13.82,12.33-13.82,12.33-13.95-34.5-20.32-52.91S417.28,329.23,417.28,329.23Z"/><path class="cls-2" d="M400.9,417.47s65.77,30.14,93.9,32.06,62.71,7.54,76.82,19.82,14.1,85.88,14.1,85.88-13.84,7.64-45.16-2.83S377.32,479,377.32,479Z"/><path class="cls-3" d="M378.42,537.14c-9.7.1-46.88,4.4-46.88,4.4a59.39,59.39,0,0,1,7.93-3.67c4.76-1.83,40.74-6.16,38.91-13.29s-33.83-1.08-33.83-1.08c-11.76,3.17-41.65,3.28-46.84,2.91s1.26-3.09,6.75-8.9,10.84-10.84,10.85-16.36c0-9.7-7.56-6.25-14-1.54-5.28,3.88-11,11.11-21.93,17.69s-20.57,20.55-20.57,20.55l3.93,40.21s5.28,4.19,23,5.61a103.22,103.22,0,0,0,33.32-3.14c4-.64,41.3-4.27,44.47-5.57s4-5.67,1.35-7.63-37.9-.47-37.9-.47,52.16-4.79,56.93-7.71a4.79,4.79,0,0,0,2.26-2.63,3.33,3.33,0,0,0-3.81-4.14c-3.88.62-22.36.74-30.14,1.65-12.14,1.42-18.9.21-18.93-.12s9.77-1.75,21.9-3.16c10.63-1.25,21.52-2.55,24.85-2.92a11.65,11.65,0,0,0,5.41-2.37C388.63,543.06,388.12,537.05,378.42,537.14Z"/><path class="cls-3" d="M281,402.8c9.37,2.49,44.34,15.86,44.34,15.86a59.64,59.64,0,0,0-6.78-5.52c-4.16-2.95-37.95-16-34.41-22.5s33,7.32,33,7.32c10.62,6,39.55,13.49,44.67,14.41s-.46-3.3-4.34-10.29-7.82-13.19-6.47-18.54c2.37-9.41,8.87-4.18,13.92,2,4.16,5.06,7.88,13.47,16.87,22.56s14.85,25,14.85,25l-13.76,38s-6.14,2.76-23.64-.25a103.26,103.26,0,0,1-31.51-11.29c-3.67-1.6-39-14.34-41.71-16.4s-2.45-6.47.59-7.71,36.84,8.91,36.84,8.91-49.36-17.54-53.26-21.55a4.82,4.82,0,0,1-1.54-3.11,3.34,3.34,0,0,1,4.72-3.07c3.6,1.56,21.48,6.25,28.79,9.06,11.41,4.37,18.26,4.88,18.38,4.57s-9-4.11-20.45-8.49c-10-3.83-20.22-7.79-23.35-9a11.78,11.78,0,0,1-4.66-3.63C269.61,406,271.59,400.31,281,402.8Z"/><path class="cls-4" d="M381.87,468.4a1.29,1.29,0,0,1-.36.12,15.24,15.24,0,0,1-1.48.37,35.12,35.12,0,0,1-6.55.56,87.91,87.91,0,0,1-26.68-4.33,104,104,0,0,1-17.55-7.4,62.76,62.76,0,0,0-7.52-3.14c-10.19-3.84-20.45-7.54-30.53-11.68-1.51-.61-3-1.22-4.48-2a4.39,4.39,0,0,1-2.05-6,3.65,3.65,0,0,1,1.49-1.37,3.23,3.23,0,0,1,.48,0,13.59,13.59,0,0,1,1.9.19c2.09.3,4.17.77,6.23,1.25,9.07,2.11,18.05,4.71,27,7.37l.58.17c.58.18,1.72-.64.84-1q-16.56-5.88-32.94-12.28c-6-2.36-12.21-4.64-17.9-7.72a11.12,11.12,0,0,1-2-1.24c-1.65-1.38-2.67-5.09.33-5.73,1.35-.29,3.47.89,4.78,1.31,2.08.66,4.18,1.28,6.28,1.9,4.83,1.43,9.69,2.82,14.49,4.37,5.15,1.66,10.14,3.74,15.4,5.06a47.74,47.74,0,0,0,5.81,1.15,6,6,0,0,0,2.5.06c1.19-.39.39-1.05-.28-1.39-1.62-.81-3.31-1.49-5-2.19-12-5-24.18-9.51-36.31-14.14a13.79,13.79,0,0,1-5.7-3.49c-1-1.16-1.85-2.57-1.38-4.19,1.22-4.2,7.54-2.39,10.43-1.51,7.55,2.28,15,5.07,22.36,7.79q9.56,3.51,19.08,7.14l1,.39c.34.13,1.58-.3,1.09-.78a37.41,37.41,0,0,0-8.25-6.43c-2.6-1.39-5.31-2.59-8-3.85-7.11-3.36-14.56-6.65-20.91-11.35-1.5-1.12-4.31-3.05-4.25-5.22.06-2.34,3.6-2.14,5.14-2a47.83,47.83,0,0,1,10.61,2.47c3.54,1.15,7,2.48,10.46,3.9,5.06,2.09,9.86,4.67,15,6.6a267.61,267.61,0,0,0,27.74,8.53c2.66.68,5.34,1.42,8.05,1.89.94.16,3.15.36,3-1.18a3.87,3.87,0,0,0-.78-1.62c-.72-1.1-1.54-2.12-2.32-3.18a80.34,80.34,0,0,1-5.24-8.49,41.77,41.77,0,0,1-4.35-9.55,10.6,10.6,0,0,1,1.06-8.45c1.26-1.93,3.12-1.66,4.9-.6,4.19,2.47,7.22,6.86,9.81,10.85A123.66,123.66,0,0,0,377.49,403c2.13,2.42,4.47,4.63,6.44,7.19a65.88,65.88,0,0,1,4.58,6.89,95.29,95.29,0,0,1,6,12.07c.25.62.51,1.25.74,1.88s1.67.22,1.45-.39A79.88,79.88,0,0,0,384.81,409c-2-2.59-4.45-4.83-6.59-7.32a86.46,86.46,0,0,1-6-7.88c-2.9-4.28-5.42-8.83-8.91-12.67-2.36-2.59-6.63-7.06-10.55-5-1.95,1.05-2.85,3.49-3.28,5.53-.58,2.8.22,5.68,1.29,8.27A84.61,84.61,0,0,0,361,407.38a23.26,23.26,0,0,1,1.37,2.22.53.53,0,0,1,0,.22c0,.08.32-.17.08-.1a3.37,3.37,0,0,1-1.33-.15c-1.21-.22-2.41-.52-3.61-.81-9.12-2.19-18.18-4.79-27.05-7.85a91.33,91.33,0,0,1-12.4-5c-1.57-.81-3.16-1.53-4.78-2.23-6.79-2.92-13.86-5.78-21.17-7.09-2.53-.46-5.88-1-8.22.46-1.87,1.16-1.84,3.11-.66,4.77,1.73,2.42,4.53,4.16,7,5.7,3.57,2.22,7.33,4.15,11.11,6,3.51,1.73,7.06,3.38,10.6,5.06a39.77,39.77,0,0,1,7.46,4.36,51.51,51.51,0,0,1,4.44,3.78l1.09-.78c-13-5-26.11-10-39.37-14.35-3.45-1.13-7.2-2.58-10.88-2.07-3.09.43-6.09,2.93-4.81,6.32,1.53,4,6.34,5.39,10,6.78l20,7.68c5.68,2.19,11.37,4.38,17,6.83.63.28,1.28.55,1.89.88.1.05.33.24.44.25-.06,0,.62-.39.45-.73,0-.09.19.1-.06,0a4.81,4.81,0,0,0-1.15-.07c-.85-.09-1.7-.23-2.54-.38-5.51-1-10.69-3-16-4.87-4.81-1.67-9.72-3.07-14.61-4.51-3.88-1.14-7.86-2.15-11.65-3.6-1.91-.73-4-.77-5.51.89s-.86,4.38.76,5.93a18.67,18.67,0,0,0,4.93,2.82c3,1.4,6,2.66,9,3.9,12.74,5.23,25.7,10,38.67,14.62l.82.29.84-1c-8.36-2.51-16.78-4.91-25.27-7-2.38-.59-4.76-1.14-7.16-1.59a14.75,14.75,0,0,0-4.43-.45c-2.57.34-4,3.25-3.51,5.59.38,2,1.82,3.16,3.56,4,4.23,2,8.65,3.61,13,5.29,5.69,2.19,11.39,4.32,17.09,6.46,3.36,1.25,7,2.4,10.18,3.88,1.47.68,3,1.61,4.55,2.36,3,1.49,6.1,2.84,9.24,4a97,97,0,0,0,28,6.17c4.36.29,9.25.49,13.47-.88a6.56,6.56,0,0,0,.62-.23c.91-.4.1-1.14-.63-.81Z"/><path class="cls-4" d="M263,577.34c2.17,1.71,5.35,2.52,8,3.22a95.26,95.26,0,0,0,27.18,2.75,111.39,111.39,0,0,0,19.61-2.26c3-.62,6-.93,9-1.32,11.16-1.45,22.38-2.72,33.49-4.6a27.91,27.91,0,0,0,4.23-.89c2.49-.85,4.32-3.53,3.44-6.17-.6-1.81-1.87-2.3-3.55-2.53a55.91,55.91,0,0,0-6.07-.41c-9.79-.29-19.63,0-29.42.44l-.64,0-.63.59c12.14-1.12,24.27-2.39,36.35-3.93,6.31-.81,12.83-1.44,19-3.12,2.57-.7,6.32-2.85,4.73-6.06-1-2.05-3.06-2-5-1.84-1.77.18-3.56.25-5.34.33-5,.21-10.09.35-15.13.59-5.41.26-10.79,1-16.2,1.22a63.55,63.55,0,0,1-7.56-.09c-.76-.06-1.51-.13-2.25-.25a6.12,6.12,0,0,0-1.15-.26c-.54.07-.49.25.06.14.85-.17,1.7-.31,2.54-.45,2.73-.43,5.46-.8,8.2-1.16,7.39-1,14.8-1.8,22.21-2.67l9.3-1.1a31.74,31.74,0,0,0,5.65-.94c2.84-.86,7-3.39,5.64-7s-6.68-3.79-9.92-3.69c-7.91.24-15.83,1.17-23.7,2q-10.5,1.07-21,2.27l-1.19.14.24.31a35.36,35.36,0,0,1,9.65-4.08c3.25-.73,6.54-1.3,9.8-1.94,7.63-1.5,15.73-2.86,22.83-6.14,1.69-.78,4.47-2,4.77-4.16s-2.42-3.31-4.15-3.74a37.49,37.49,0,0,0-10.52-.63c-3.94.16-7.87.58-11.78,1.1-5.5.74-10.88,2.08-16.37,2.75a254.41,254.41,0,0,1-29.85,1.54c-2.9,0-6.07.28-8.94-.22-2.29-.41.36-2.25,1.15-2.9A79.65,79.65,0,0,0,307,515.4c4.15-4.36,10.17-9.57,9.88-16.17-.08-1.84-.48-4.13-2.27-5.09-1.49-.79-3.39-.44-4.92,0-4.3,1.33-8.14,4.29-11.45,7.26-4.43,4-8.66,8.12-13.52,11.6-2.72,1.94-5.65,3.54-8.33,5.52a63.91,63.91,0,0,0-6.81,5.92,97.77,97.77,0,0,0-9.24,10.67c-.46.61-.92,1.23-1.35,1.86-.1.15,1.18.1,1.43-.25a76.17,76.17,0,0,1,17.67-18.59c2.74-2,5.71-3.6,8.44-5.6,2.37-1.73,4.63-3.6,6.82-5.55,3.69-3.28,7.12-6.9,11.24-9.64,2.92-1.94,8.9-5.56,10.47-.24,1.93,6.5-3.29,11.95-7.36,16.27a83.38,83.38,0,0,1-7.64,7.4c-1,.78-1.95,1.53-2.87,2.36-.39.35-1.16.94-1.24,1.5-.19,1.56,5.39,1.19,6.37,1.2,9.09.12,18.22-.14,27.29-.85A110.33,110.33,0,0,0,343,523.34c1.73-.36,3.42-.75,5.16-1,7.12-1.16,14.46-2.16,21.69-1.83,2.49.12,6,.22,7.94,2,1.7,1.6.45,3.43-1.11,4.5-2.67,1.83-6,2.76-9.12,3.63-3.91,1.11-7.89,2-11.87,2.79-3.54.72-7.1,1.38-10.65,2.09a39.18,39.18,0,0,0-8.77,2.82,48.26,48.26,0,0,0-4.37,2.2c-.37.22,0,.34.24.31,13.51-1.56,27-3.11,40.61-4.08,3.53-.26,7.53-.83,10.94.33a5.13,5.13,0,0,1,3.6,3.35,4,4,0,0,1-1.18,3.75,10.64,10.64,0,0,1-6.37,2.53l-7.35.86c-7.37.87-14.74,1.7-22.11,2.62-4.93.62-9.93,1.14-14.81,2.13-.26,0-2.18.35-1.94.85s1.85.45,2.19.5a67.08,67.08,0,0,0,14.72-.1c4.77-.45,9.52-.81,14.32-1s9.62-.31,14.42-.57c.75,0,1.5-.09,2.24-.15a8.46,8.46,0,0,1,2.65-.12,3.27,3.27,0,0,1,2.44,3,4.17,4.17,0,0,1-2.25,3.45,20,20,0,0,1-5.43,1.37c-3.25.61-6.52,1.08-9.79,1.53-13.3,1.84-26.67,3.2-40,4.45l-.79.07c-.37,0-1.59.63-.63.59,8.27-.35,16.56-.58,24.84-.53,2.49,0,5,0,7.47.18a19.69,19.69,0,0,1,4.65.53c2.69.83,2.5,4.74.95,6.49-1.06,1.19-2.34,1.27-3.91,1.55-10.54,1.91-21.25,3.06-31.87,4.44-3.47.45-7,.79-10.41,1.41-4.73.85-9.39,1.74-14.19,2.13A105.72,105.72,0,0,1,276.48,581c-4-.78-8.26-1.76-11.77-3.91a3.19,3.19,0,0,1-.38-.26c-.31-.24-1.58.33-1.37.5Z"/><path class="cls-3" d="M367.92,312.57c-1-3.12-.11-36.39-.11-36.39l-49.2,7.57-49.2-7.57s1,36.73,0,39.86S239.72,326,239.72,326s15,32.37,78.89,32.37S399.06,326,399.06,326,368.9,315.7,367.92,312.57Z"/><path class="cls-4" d="M269.52,278.13c.78.58,6.48,8.11,7.29,8.69C297,301.14,300,305,317.48,305.75c17.45-.71,24.94-3.11,43.71-20.6,6.32-5.9,4.93-7.87,6.32-9C336.16,276.1,300.92,277.9,269.52,278.13Z"/><path class="cls-3" d="M237.76,179.75s-9.43-14.48-14.79-13.9c-3.25.35,4.28,7.68,5.21,16,1.24,11.1-7,12.53-4.38,18.81s5.93,28.19,14.55,27.26c3.42-.37,6.92-7.95,6.92-7.95S240.57,189.64,237.76,179.75Z"/><path class="cls-5" d="M235.29,220.92c-3.78.42-7.53,2.64-8,6.7a6.56,6.56,0,0,0,1.28,4.72,5.87,5.87,0,0,0,3.09,2.15,9.66,9.66,0,0,0,8.29-1.3c.41-.28.33-.55-.16-.59a3.22,3.22,0,0,0-1.86.5,3.54,3.54,0,0,1-2.13.73,6.83,6.83,0,0,1-2.28-.48,5.07,5.07,0,0,1-2.32-1.72,6.39,6.39,0,0,1-.1-7.62,5.79,5.79,0,0,1,1.57-1.47,4.61,4.61,0,0,1,.78-.38c.22-.08-.17.05.05,0l.35-.09c-.23,0,.41-.06.33-.05a2.8,2.8,0,0,0,1.76-.63c.35-.44-.31-.48-.62-.45Z"/><path class="cls-3" d="M394.92,179.31S402.85,164,408.23,164c3.27,0-3.48,8.07-3.57,16.42-.12,11.17,8.2,11.76,6.26,18.27s-3.06,28.65-11.73,28.59c-3.44,0-7.69-7.21-7.69-7.21S393.13,189.43,394.92,179.31Z"/><path class="cls-3" d="M406.56,188.38a.15.15,0,0,0,0,.06c-1.92,9.7-4.29,19.92-5.91,31.63-4.31,30.92-13.51,45.12-34.52,58.77-22,14.32-28.6,19.9-47.6,20.6-19-.7-25.61-6.28-47.61-20.6-21-13.65-30.21-27.85-34.5-58.77-1-6.89-2.17-13.26-3.39-19.3-.91-4.49-1.82-8.82-2.66-13,0-.07,0-.13,0-.18a.28.28,0,0,1,0-.06c-3-15.51-4.87-29.83-.71-47.12,4.28-17.89,19.07-40.09,41.57-54.1h0a88.88,88.88,0,0,1,47.31-13.67c48.77,0,82.12,39.33,88.93,67.78C411.67,158,409.69,172.54,406.56,188.38Z"/><path d="M324.8,228.49a8.46,8.46,0,0,1-9-.43c-.56-.41-2.46.05-1.68.61a12,12,0,0,0,12.25.36c.33-.21.28-.5-.13-.65a1.91,1.91,0,0,0-1.45.11"/><path d="M312.86,227.81a19.13,19.13,0,0,0-6.61-1.64,1.54,1.54,0,0,0-1,.32c-.19.17-.23.4,0,.54a7.32,7.32,0,0,0,3.63.83,1.4,1.4,0,0,0,1.12-.43c.2-.31-.17-.51-.47-.51a5.77,5.77,0,0,1-2.93-.67l-1,.86a17,17,0,0,1,5.91,1.49,1.4,1.4,0,0,0,1.21-.14c.24-.14.5-.48.14-.65"/><path d="M303.89,228.09c-2.25-.06-4.9-1.22-6-3.22-1.67-3-.12-6.6,2.7-8.53.3-.21.14-.48-.17-.56a1.65,1.65,0,0,0-1.2.29,7.83,7.83,0,0,0-3.67,7.25c.34,2.64,2.5,4.49,5.19,5.26a10.53,10.53,0,0,0,2.5.41c.34,0,.95-.12,1.12-.43s-.14-.46-.46-.47"/><path d="M327.48,227.81a19.13,19.13,0,0,1,6.61-1.64,1.51,1.51,0,0,1,1,.32c.19.17.23.4,0,.54a7.25,7.25,0,0,1-3.62.83,1.4,1.4,0,0,1-1.12-.43c-.21-.31.17-.51.47-.51a5.77,5.77,0,0,0,2.93-.67l1,.86a17,17,0,0,0-5.91,1.49,1.4,1.4,0,0,1-1.21-.14c-.24-.14-.5-.48-.14-.65"/><path d="M336.45,228.09c2.25-.06,4.9-1.22,6-3.22,1.67-3,.11-6.6-2.7-8.53-.31-.21-.14-.48.17-.56a1.65,1.65,0,0,1,1.2.29,7.83,7.83,0,0,1,3.67,7.25c-.34,2.64-2.5,4.49-5.2,5.26a10.45,10.45,0,0,1-2.49.41c-.34,0-1-.12-1.12-.43s.14-.46.46-.47"/><path class="cls-6" d="M341.18,161.17c.12,1.75.25,3.51.38,5.27.1,1.34.21,2.68.31,4,4.8-1.47,8.92-2.49,12-3.19,6.58-1.48,10-2.21,13.87-1.88a39,39,0,0,1,9,2,24,24,0,0,1,4.82,2c3.42,1.95,4.93,4.31,5.46,4.06s-.48-2.33-.58-2.55a20.9,20.9,0,0,0-7.59-8.42,27.3,27.3,0,0,0-9.26-3.18c-3.88-.63-14.51-.55-28.47,2"/><path class="cls-6" d="M300.32,184.4s-12,8.75-18.19,9.32c-9,.83-20.06-3.78-23.24-7.89,0,0,14.65,6.88,21,6.12C285.89,191.23,300.32,184.4,300.32,184.4Z"/><path class="cls-6" d="M298.2,159.89c0,1.76,0,3.52,0,5.29,0,1.34,0,2.68-.05,4-4.88-1.15-9.06-1.91-12.21-2.4-6.67-1.06-10.09-1.57-14-1a39.45,39.45,0,0,0-8.88,2.54,24.49,24.49,0,0,0-4.68,2.25c-3.29,2.17-4.64,4.63-5.18,4.41s.32-2.35.41-2.58a20.84,20.84,0,0,1,7-8.89,27.31,27.31,0,0,1,9-3.77c3.84-.88,14.45-1.49,28.54.12"/><path class="cls-6" d="M341.7,184.21s12,8.76,18.19,9.32c9,.83,20.06-3.77,23.24-7.89,0,0-14.65,6.88-21,6.12C356.13,191.05,341.7,184.21,341.7,184.21Z"/><path class="cls-7" d="M215.58,106.81s40.17-19.6,91.57-13.08,76.11,39,84.79,62.15,9.52,46.49,9.52,46.49,12.62,6.4,21.8-40.65C436.64,93.12,361.61,32.6,345,32.6S239.47,30.09,215.58,106.81Z"/><path class="cls-7" d="M224.79,86.79s-8.61-54.08,28.66-64.21S369.17-5.71,392.1,43.67Z"/><path class="cls-8" d="M222.87,197.86a32.61,32.61,0,0,1-8.21-14c-4.15-14.61-11.39-44.78-4.73-58.17,2.9-5.83,4.06-23.22,4.34-28.33,1.45-26.78-4.92-18.59,32.73-49s44.15-22,100.62-18.41,72.65,21.91,68.29,74.82c0,0-76-21.86-111.85-2.49s-74.45,81.8-71.84,104.27C232.3,207.23,227.16,202.18,222.87,197.86Z"/><path class="cls-7" d="M208,152.58S265.5,79.1,332.69,78.43c0,0-86-11.21-124.14,50.88Z"/><path class="cls-7" d="M417.14,87.44s-66.4-24.14-91.86-26.23,80.46,1.95,90.63,13.51Z"/><ellipse class="cls-9" cx="320.17" cy="250.79" rx="22.34" ry="4.7"/><path class="cls-5" d="M402.53,223.08a6,6,0,0,1,5.9,4.87,5.79,5.79,0,0,1-.7,4,10.56,10.56,0,0,1-.62.87c-.1.12-.2.24,0,.1L407,233a4.56,4.56,0,0,1-.39.27,2.9,2.9,0,0,1-.29.19c-.16.1.19-.1,0,0l-.24.13-.5.23-.25.1c-.12.05.13,0-.11,0a5.47,5.47,0,0,1-1.12.25,5.3,5.3,0,0,1-3-.67,1.88,1.88,0,0,0-1.88.19c-.38.27-.75.92-.17,1.23a8.47,8.47,0,0,0,6.91.53,7.73,7.73,0,0,0,3.42-2.07,7.2,7.2,0,0,0-.06-9.67,8.05,8.05,0,0,0-5.78-2.43,1.89,1.89,0,0,0-1.72.78c-.29.54.24,1,.77,1Z"/><path class="cls-10" d="M320.68,246.17c-12.84,0-29.11.26-29.11.26s-.66,27.36,29.12,27.36,30.15-27.74,30.15-27.74S333.52,246.17,320.68,246.17Z"/><path class="cls-11" d="M320.8,246.17c-6.1,0-27.17.36-27.17.36s4.56,19.74,26.64,19.74c23.94,0,27.82-20.73,27.82-20.73Z"/><path class="cls-12" d="M321.07,247.06c-6.1,0-24.68-1-24.68-1s6.68,6.51,25,6.51,24.13-6.32,24.13-6.32Z"/><path class="cls-10" d="M341.21,242.61a38.68,38.68,0,0,0-7.59-1c-6.25-.47-10.22,1.93-12.94,1.93s-6.69-2.4-12.94-1.93a28.84,28.84,0,0,0-6.16,1.62c-2.77.86-3.66,1-7.38,2.3-.95.32-1.68.61-2.63.89,4.65,1.61,12.3,3.1,29.12,3.1,5.37,0,10.76,0,16.12-.42a70.43,70.43,0,0,0,8.05-1.09c2.48-.51,3.88-.4,6-2a20.8,20.8,0,0,0-3.56-1.05Z"/><path class="cls-9" d="M375.81,281.43c-.81-4.09,1.1-6.23,3.26-7.7a8.82,8.82,0,0,1,7.49-1.09,9.41,9.41,0,0,1,16.21-1.57,12.49,12.49,0,0,1,12.35-1.14,9.41,9.41,0,0,1,5.07,10.61c6.7,2,3.82,11.45-2.92,10.48,3.7,1.56,5.23,6.43,3.91,10.23s-4.87,6.48-8.67,7.79a20.56,20.56,0,0,1-22-6.27,11.18,11.18,0,0,1-14.18-.12c-3.87-3.41-5.14-7.37-2.31-11.69-10.45,1.08-20.9-6.11-27.12-14.58a61.07,61.07,0,0,0,28.91,5.05"/><path class="cls-13" d="M186.12,495a59.72,59.72,0,0,1,.17-12.25c.41-5,1-10,1.85-15,.34-2.05.71-4.09,1.17-6.12.54-2.33,1.29-4.6,1.74-6.95a32.05,32.05,0,0,0-.33-13.75c-1.41-5.93-3.11-11.65-3.67-17.76-.08-.8-3-.21-2.9.78a100.5,100.5,0,0,0,3.25,16.1,33,33,0,0,1,1,13.93c-.41,2.52-1.18,4.94-1.78,7.41-.47,1.95-.85,3.92-1.19,5.89-.82,4.82-1.44,9.68-1.88,14.55-.41,4.56-.88,9.33-.3,13.9.11.82,3,.2,2.9-.77Z"/><path class="cls-13" d="M163.36,530.5a148.57,148.57,0,0,0-28.54,4.1A91.91,91.91,0,0,0,122,538.44c-3.22,1.31-6.36,3.41-7.14,7-.32,1.45,2.65,1.12,2.94-.2.71-3.23,4.27-4.66,7.08-5.59,4-1.35,8.18-2.48,12.34-3.44a144.06,144.06,0,0,1,25.91-3.52c1.66-.08,2.21-2.27.24-2.18Z"/><path class="cls-13" d="M259.66,530.77,237,530.56l-36.07-.32-8.22-.07c-.59,0-1.63.2-1.91.79s.24.86.78.86l22.66.2,36.08.32,8.22.08c.58,0,1.62-.2,1.91-.79s-.24-.86-.79-.86Z"/><path class="cls-13" d="M207.61,600.67,226,596.25l29.26-7,6.75-1.63c.52-.13,1.28-.49,1.25-1.12l-.3-6.23c0-.93-3-.35-2.9.77l.3,6.24,1.26-1.12-18.35,4.42L214,597.58l-6.74,1.63c-.43.1-1.42.52-1.26,1.12s1.25.43,1.65.34Z"/><path class="cls-13" d="M397.31,430.92l1.44-3.75-2.22.8,15.52,3.94q16.44,4.14,32.9,8.19c10,2.44,19.94,4.89,30,7.06,9.24,2,18.66,2.79,28,3.84,7.32.82,14.63,1.69,21.9,2.82A134.37,134.37,0,0,1,544.42,458c1.21.39,2.41.8,3.6,1.28s3.38-1.25,1.68-1.93a92.23,92.23,0,0,0-17.77-4.58c-7.29-1.32-14.64-2.28-22-3.15-10.4-1.23-21-1.85-31.26-3.94-9.33-1.91-18.58-4.21-27.83-6.46q-16.83-4.09-33.63-8.34c-6.24-1.57-12.48-3.2-18.74-4.75l-.27-.07c-.71-.18-1.91,0-2.22.81l-1.44,3.75c-.59,1.54,2.31,1.5,2.76.32Z"/><path class="cls-13" d="M458.19,515.47l-7.94-3.71-19.07-8.93L408,492l-20-9.35-6.61-3.1a16.87,16.87,0,0,0-3.11-1.45.61.61,0,0,1-.14-.07l.54,1.12,2.17-5.66c.59-1.54-2.31-1.5-2.77-.31l-2.17,5.66c-.21.55.06.89.55,1.12l7.93,3.72,19.07,8.92,23.2,10.87,20,9.34,6.61,3.1c1,.48,2.06,1.07,3.12,1.46a.84.84,0,0,1,.14.06c1.19.56,3.34-1.15,1.68-1.93Z"/><path class="cls-13" d="M467.06,406.7a46.77,46.77,0,0,0-1.85,14.21c.05,6.92,1.88,13.78,3,20.58.17,1,.34,2,.49,3s3.06.26,2.9-.77c-.48-3.14-1.05-6.27-1.61-9.4a96.56,96.56,0,0,1-1.86-12.18,50.47,50.47,0,0,1,.65-10.7,37.16,37.16,0,0,1,1.15-5.12c.29-.95-2.6-.56-2.9.38Z"/></g></svg>