<svg id="Layer_1" data-name="Layer 1" xmlns="http://www.w3.org/2000/svg" xmlns:xlink="http://www.w3.org/1999/xlink" viewBox="0 0 205.83 138.61"><defs><style>.cls-1{fill:none;}.cls-2{clip-path:url(#clip-path);}.cls-3{fill:#956243;}.cls-4{fill:#c85844;}.cls-5{fill:#a56530;}.cls-6{fill:#8c542a;}.cls-7,.cls-8{fill:#662117;stroke:#662117;stroke-miterlimit:10;}.cls-7{stroke-width:0.21px;}.cls-8{stroke-width:0.1px;}.cls-9{fill:#2a120d;}.cls-10{fill:#44261f;}.cls-11{fill:#b15e27;}.cls-12{fill:#de8b27;}.cls-13{fill:#ce8d2a;}.cls-14{fill:#13110f;}.cls-15{fill:#231f20;}.cls-16{fill:#010101;}.cls-17{fill:#8e6528;}.cls-18{fill:#ddb98a;}.cls-19{fill:#273339;}.cls-20{fill:#653c29;}.cls-21{fill:#31160e;}.cls-22{fill:#f1eef7;}</style><clipPath id="clip-path"><rect class="cls-1" y="1.11" width="205.83" height="137.51"/></clipPath></defs><g class="cls-2"><path class="cls-3" d="M73.72,71.72l23,2.22s.62,7.62-.54,8.41-24.4-5.69-24.4-5.69Z"/><path class="cls-4" d="M75.72,71.08l16.55.62L98,60.16l9.79,11.1s-5,10.81-9.71,11.79c-6.42,1.33-20.11-2.72-23.7-3.53C74.57,76.88,75.61,74.78,75.72,71.08Z"/><path class="cls-5" d="M125.17,126c6.46,0,12.91-.81,19.37-.85,1.4,0,2.69.31,2.8,1.63.28,3.4.68,7.07-4.18,6.71-.37,0-.75,0-1.12,0-1.69-.25-1.95.49-1.72,1.79.72,4.23,1.38,7.46,2,11.7q2.34,14.94,4.63,29.89c.42,2.75.33,2.72-2.91,2.67-1,0-1.42-.29-1.56-1.2-1.49-9.8-3-19.6-4.51-29.4-.17-1.15-.57-1.6-2-1.58q-10.8.09-21.6,0c-1.41,0-1.9.37-2.09,1.63q-2.08,14-4.34,27.91c-.44,2.73-.5,2.66-3.64,2.62-1.26,0-1.41-.41-1.25-1.4,2.33-14.57,4.6-28.15,6.93-42.73.24-1.49-.12-2.21-2-1.94a14.4,14.4,0,0,1-1.86,0c-2.75,0-3.29-1.52-3.3-4.09,0-2.8.51-4.17,3.23-4.17h19Zm10.57,18c1.4,0,1.68-.4,1.49-1.54-.57-3.29-1.08-4.23-1.56-7.53-.16-1.09-.55-1.57-2-1.55-5.7.09-11.41.08-17.11,0-1.31,0-1.71.42-1.86,1.45-.5,3.41-1,4.45-1.61,7.85-.18,1.11.31,1.32,1.41,1.31,3.59-.05,7.19,0,10.79,0S132.27,143.94,135.74,144Z"/><path class="cls-6" d="M142.35,147l.72,4.62c-1.51.31-3,.68-4.51,1.06-.19-1.24-.38-2.48-.56-3.72s-.58-1.59-2-1.58q-10.8.09-21.6,0c-1.42,0-1.9.37-2.09,1.64s-.37,2.41-.55,3.61a40,40,0,0,1-4.23-1.91c.82-5,1.65-10.1,2.48-15.3a3.07,3.07,0,0,0,0-1.21c1,.07,2,.12,3,.16l1.82.06a3,3,0,0,0-.1.47c-.5,3.42-1,4.46-1.61,7.86-.19,1.1.3,1.31,1.4,1.3,3.6-.05,7.2,0,10.79,0s6.95,0,10.42,0c1.39,0,1.68-.41,1.48-1.55-.56-3.29-1.07-4.22-1.55-7.52a2.27,2.27,0,0,0-.36-1c1.71-.05,3.42-.1,5.13-.12a2,2,0,0,0-.13,1.46C141,139.51,141.68,142.74,142.35,147Z"/><path class="cls-6" d="M147.4,127.46s-17.46,2.09-28.26,1.8c-9-.25-16.14-1.25-15.78-2.71s6.65-4.59,13-4.81,23.71,1.46,23.71,1.46,6.25,1.4,6.86,2.3A3.09,3.09,0,0,1,147.4,127.46Z"/><path class="cls-7" d="M139,91.69s10.38,16,4,28.12c-3,5.74-12.12,5.73-12.12,5.73l-9.31-11.71V94.46Z"/><path class="cls-4" d="M105.28,81a35.72,35.72,0,0,0-.46-3.88c-.53-2.41-2.91-3.83-4.9-4.94A41.21,41.21,0,0,0,95.13,70a26.61,26.61,0,0,1,.32-3.59c1-3.43,1.72-7.33,2.93-10.7a21.91,21.91,0,0,1,2-4.48,17.32,17.32,0,0,1,2.66-2.16l6.92-3,3.37-1.22,8.56-3.91,5.75,2.34s8,2.48,9.64,3.69c2,1.49-.2,28.68-.2,28.68a49,49,0,0,0,6.74,21.56c0,.08.21.58.24.66.08.25-1.51,1.32-1.72,1.45a12.67,12.67,0,0,1-2.45.76,20,20,0,0,1-4.23.58c-2.09.29-4.19.5-6.3.58-2,.06-4-.33-5.94-.16l-21.82-1.25,2.3-9.83c.27-1.13.65-2.22.87-3.36a27.39,27.39,0,0,0,.45-3.61c0-.59,0-1.19,0-1.78A1.62,1.62,0,0,0,105.28,81Z"/><path class="cls-8" d="M134.36,56.59s-.05-.54,0-1.33a7.85,7.85,0,0,1,.77-3,8.33,8.33,0,0,1,.92-1.48,7.88,7.88,0,0,1,1-1c.62-.53,1.08-.76,1.06-.8s-.13,0-.34.13a2.71,2.71,0,0,0-.37.21,3.46,3.46,0,0,0-.46.32,7.17,7.17,0,0,0-1,1,7.54,7.54,0,0,0-1,1.52,7.3,7.3,0,0,0-.72,3.15,5.33,5.33,0,0,0,.09,1A1.08,1.08,0,0,0,134.36,56.59Z"/><path class="cls-8" d="M102.08,60.15a68,68,0,0,0-.76,8.67c.09,1.61,1.36,4.13,2.3,5.79,0,0,.56,1,.58,1,.5,1.06.24,1.43.19,1.53a58.87,58.87,0,0,1-2.76-5.64C100.13,67.85,102.08,60.15,102.08,60.15Z"/><path class="cls-7" d="M133.08,102s-5.7-.67-13.7-1.29c-13.18-2-32.8-3.81-37.78-2-4.7,1.69-6.38,4.68-6.07,14,.47,14.11,1.61,39.44,3.85,53.85,0,0,7.76,2.2,12.33,2,4.51.2,11.78.2,13.08-1.75-.64-6.32-.67-8-1-19.93-.25-8.44,2.12-16,3-22.34,15.39,3,32.57,3.61,35.91-6.46C146.57,106.23,133.08,102,133.08,102Z"/><path class="cls-9" d="M90.36,100.08s-6.39-.84-7.86,1.78-.71,6.22-.71,6.22-.66-6,2.39-7.08A19.68,19.68,0,0,1,90.36,100.08Z"/><path class="cls-3" d="M123.73,31.9S123.19,38,125,42c.25.56,4,1.93,4,1.93L124.21,46a28.47,28.47,0,0,1-9.61,1.08c-1.45-.14-3.51-.06-4.61-1h0s2.62-1,2.73-1.71-.68-6.72-.68-6.72"/><path class="cls-10" d="M112.6,42.38a14.87,14.87,0,0,1,2.16-1.13c.84-.29,2.31-.32,6.06-4a7.75,7.75,0,0,1-5.9,5.48,6.46,6.46,0,0,1-2.26.23Z"/><path class="cls-3" d="M106.74,16.8a.47.47,0,0,1,0,.1l.06,0Zm-2.17.85v0l.09-.1S104.57,17.65,104.57,17.65Zm19.07,15.18.16-.82c1.2,1.3,2.8,0,2.68-2,.43-1.07.8-4.49-.14-5.44l-.12-.14c-.63-.38-1.69-.46-2,.36-.1.35.06.75,0,1.11a10.09,10.09,0,0,1-.76,1.55,21.46,21.46,0,0,1-.63-2.79,7,7,0,0,0-2.85-4.42s-.42-3.15-1.28-4l-.27-.06c-.15,0-.24.09-.4.11s0-.1,0-.19a1.66,1.66,0,0,1-.65.14c0-.05.14-.11.13-.16a2.57,2.57,0,0,1-.61.09c0-.05.13-.16.12-.21-.24.13-.41.06-.61.09a.35.35,0,0,0,.07-.2,1.42,1.42,0,0,1-.6.14c0-.06.08-.16.12-.21-.24.13-.41.06-.61.09,0,0,.09-.11.08-.16a1.81,1.81,0,0,1-.51.12s.09-.1.09-.15a1.62,1.62,0,0,1-.67.1l.13-.21a.73.73,0,0,1-.6.18c0-.05.13-.16.12-.21a1,1,0,0,1-.8.22s.13-.17.12-.21a1,1,0,0,1-.69.24s.08-.15.17-.26a1.09,1.09,0,0,1-1,.29c.05,0,.08-.16.07-.21-.18.22.17-.07-.09-.08,0,0-.56.28-.57.23-.18.17.42-.88.17-.84,0-.1-1.46.31-1.37.2-.22.22-.19.12-.5.12,0,0-1,.72-.94.66-.22.28-.36.1-.67.09,0-.05.21.17.25.12-.17.22-.14,0-.4,0,0-.05-.88-.18-.88-.23-.24.18-.15.19-.46.24a1.66,1.66,0,0,0-.07.49c-.18.22-.19.06-.45.05l-.23.21c-.22.28.11.12-.2.12,0,0,1.18,0,1.21-.09a1.84,1.84,0,0,1-.61.38s0-.14,0-.19a1,1,0,0,1-.77.4s.08-.11.08-.15a.8.8,0,0,1-.84.36h0a1.59,1.59,0,0,1-.66.45.23.23,0,0,1,.07-.21l-.2,0a3.32,3.32,0,0,0-.44,1.27s-1.39,2.95-1.08,4.68,1.07,4.65,1.23,5.39a15.21,15.21,0,0,1,.26,2.37,7.34,7.34,0,0,0,.7,3.4,9.81,9.81,0,0,0,2.09,3.29,22.45,22.45,0,0,0,3.84,3.1,4.93,4.93,0,0,0,3.21.95c3.19-.33,6-2.94,7.73-5.28"/><path class="cls-11" d="M103.24,21.09c.83-2.92,3.79-4.91,10.13-6.66a23.43,23.43,0,0,1,11.76-.14c-4.39-8.81-13.74-7.11-15.83-6.79s-10.84,10.47-7,17.23l.28.7S103.09,21.62,103.24,21.09Z"/><path class="cls-11" d="M126.5,12.12s-.09-5.91-4.61-7.23c-6-1.76-13.94-1.76-15.82,4.61Z"/><path class="cls-12" d="M128,26.29c.4-.55.07-1.87.39-2.46a6.56,6.56,0,0,0-.43-7.21c-.45-.65-.14-2-.27-2.57-.65-3.2-1-3.25-6.34-5.85-4.32-2.12-8.54-1.37-11-.87-3.9.8-5.6,1.3-6.56,4.29-.13.39.11.66,0,1.12-.12.65-.89,1.34-.94,2.15a60.54,60.54,0,0,1,9.83,2.49c4.68,1.69,13.71,9.6,13.8,12.36A33.45,33.45,0,0,1,128,26.29Z"/><path class="cls-11" d="M129.25,19.84s-8.78-8-16.9-6.92c0,0,10.18-2.9,15.9,3.9l.15.29a7,7,0,0,1,.8,2.39Z"/><path class="cls-11" d="M103.77,12.86l.52-.29a14.81,14.81,0,0,1,3.85-1.45l2.26-.5s-5.65-.14-6.67,1.44Z"/><path class="cls-13" d="M124.59,31.39a1,1,0,0,1,1,.78.92.92,0,0,1-.11.67.63.63,0,0,1-.29.29.91.91,0,0,1-.85,0s-.25.05-.17.09a1.19,1.19,0,0,0,1,0,1.06,1.06,0,0,0,.43-.26,1,1,0,0,0,0-1.42,1.1,1.1,0,0,0-.86-.31.21.21,0,0,0-.15,0s0,.06.06.06Z"/><path class="cls-14" d="M122.06,23.78l1,4.53,1.31-2.26Z"/><path class="cls-15" d="M124.15,28.09c.15,0,.37-.05.42.14a1.24,1.24,0,0,1-.06.47c-.08.33-.21.77.09,1s.77-.27.9-.57a2.08,2.08,0,0,0,.11-1.28c-.1-.44-.3-1-.78-1.16-.09,0-.26.11-.13.15.41.11.58.61.67,1a1.93,1.93,0,0,1,0,1.14,1.2,1.2,0,0,1-.38.64c-.13.09-.24,0-.29-.16-.13-.31,0-.69.11-1a.51.51,0,0,0-.06-.42.6.6,0,0,0-.55-.1c-.12,0-.17.17,0,.15Z"/><path class="cls-11" d="M124.53,21.29s3.32,2.55,3.72,3.69l.16-1.15A6.06,6.06,0,0,0,124.53,21.29Z"/><path class="cls-16" d="M110.25,33.61a1.49,1.49,0,0,0,1.32-.29c.07-.06.36,0,.25,0a2.09,2.09,0,0,1-1.8.35s0-.05,0-.08a.34.34,0,0,1,.22,0"/><path class="cls-16" d="M112,33.23a2.29,2.29,0,0,1,.79-.33.19.19,0,0,1,.13,0s0,0,0,.07a1,1,0,0,1-.43.17.19.19,0,0,1-.15,0s0-.07.05-.08a.71.71,0,0,0,.35-.13l.14.08a2.24,2.24,0,0,0-.71.3.16.16,0,0,1-.15,0s-.07,0,0-.07"/><path class="cls-16" d="M113.1,33.09a1.16,1.16,0,0,0,.83-.53.94.94,0,0,0-.58-1.15s0-.05,0-.07a.31.31,0,0,1,.19,0,1.14,1.14,0,0,1,.69,1,.91.91,0,0,1-.66.76,1.65,1.65,0,0,1-.36.11s-.15,0-.18,0,0-.06.06-.07"/><path class="cls-16" d="M109.61,33.53s0-.06,0-.06a.37.37,0,0,1-.27,0l-.07.12a1.19,1.19,0,0,1,.55.1.08.08,0,0,0,.1,0s0-.06,0-.08"/><path class="cls-16" d="M109.87,33.54a1.28,1.28,0,0,0-.61-.12s-.06,0-.08.06a0,0,0,0,0,0,.06"/><path class="cls-16" d="M108.93,33.68a.7.7,0,0,1-.63-.32,1,1,0,0,1,.1-1.1,0,0,0,0,0,0-.06.13.13,0,0,0-.11,0,1.13,1.13,0,0,0-.22,1,.77.77,0,0,0,.6.58.69.69,0,0,0,.25,0s.09,0,.1-.07a0,0,0,0,0-.06,0"/><path class="cls-14" d="M105.18,27.74a.83.83,0,0,0-.82.26,1,1,0,0,0-.13.37.75.75,0,0,0,.28.65.69.69,0,0,0,.81,0,.77.77,0,0,0,.24-.94.72.72,0,0,0-.38-.36"/><path class="cls-14" d="M108.26,28.16a6.74,6.74,0,0,0-2.27-.85,3.52,3.52,0,0,0-2.52,1.38,6.91,6.91,0,0,1,2.3-1.12A12.28,12.28,0,0,1,108.26,28.16Z"/><path class="cls-14" d="M113.81,26.5a1,1,0,0,1,.93-.08.78.78,0,0,1,.27.31.75.75,0,0,1-.07.7.7.7,0,0,1-.77.25.77.77,0,0,1-.51-.82c0-.06-.06-.16.15-.32"/><path class="cls-14" d="M112.7,27.36A7.36,7.36,0,0,1,114.87,26a4,4,0,0,1,3,.74,7.82,7.82,0,0,0-2.69-.54A13.74,13.74,0,0,0,112.7,27.36Z"/><path class="cls-14" d="M102.87,27a.28.28,0,0,0,0-.09l-.06-.24a.88.88,0,0,0,0-.17h0a1.72,1.72,0,0,0,.07-.21A1,1,0,0,1,103,26a2.81,2.81,0,0,1,.89-.63,10.85,10.85,0,0,1,3.11-.56c0,.21.07.42.11.63s.06.32.08.48c-.55,0-1-.05-1.38,0a4.5,4.5,0,0,0-1.54.16,4.12,4.12,0,0,0-.91.48,2.82,2.82,0,0,0-.46.36Z"/><path class="cls-14" d="M112.14,23.87l.09.63c0,.16,0,.32.07.48.6-.22,1.13-.38,1.52-.5a6.65,6.65,0,0,1,1.78-.35,5.11,5.11,0,0,1,1.17.16,2.83,2.83,0,0,1,.64.19c.45.2.67.47.73.44s-.08-.28-.09-.31a2.61,2.61,0,0,0-1-.94,3.49,3.49,0,0,0-1.22-.29,13.78,13.78,0,0,0-3.65.49"/><polyline class="cls-3" points="144.09 92.03 130.89 106.74 127.62 103.77 137.05 86.02"/><path class="cls-3" d="M120.37,112.41c-.46,0-.7-.06-.93-.5a1.61,1.61,0,0,1-.09-.63l2.58-4.72c-.91-.11-2.05,1.83-2.92,1.56s-.11-1,0-1.14,2.54-2.81,2.54-2.81a34,34,0,0,1,3.54-1.66c.74-.19,2.87-.4,2.87-.4l1.49-.39a21.7,21.7,0,0,1,4.43,1.69c.11.07-2.14,2.39-2.66,3.44s-2,3.26-2,3.26a32.26,32.26,0,0,1-3.91,2.33,3.71,3.71,0,0,1-1.52-.43,5.84,5.84,0,0,0-1.17.43c-1.53.41-1.53-.41-1.53-.41l-.36.22S120.4,112.38,120.37,112.41Z"/><path class="cls-10" d="M121.67,107.11a11.79,11.79,0,0,0,1-1.47,6.78,6.78,0,0,0,1-1.53,7,7,0,0,0-1.14,1.41A5.11,5.11,0,0,0,121.67,107.11Z"/><path class="cls-10" d="M124.57,107.75a9,9,0,0,0-1.74,2l-1.09,1.54a4.07,4.07,0,0,0-.43.65,2.13,2.13,0,0,0,.56-.56c.31-.36.71-.9,1.14-1.49C123.86,108.7,124.61,107.78,124.57,107.75Z"/><path class="cls-10" d="M126.4,108.76c-.06,0-.53.76-1.24,1.65s-1.39,1.53-1.37,1.57a5.63,5.63,0,0,0,1.52-1.44A5.73,5.73,0,0,0,126.4,108.76Z"/><path class="cls-4" d="M137.31,47s5.6,1.59,7.56,6.49,6.33,21.87,4.75,31.15c-.56,3.29-14.05,19.11-14.05,19.11L129.11,100,139,78.16s-3.05-9.35-3.77-13.42S137.31,47,137.31,47Z"/><path class="cls-8" d="M137.32,72.54c-.09.07,0,0,0,.12a96.28,96.28,0,0,1-3-13S135.77,67.08,137.32,72.54Z"/><line class="cls-17" x1="111.44" y1="68.58" x2="111.44" y2="68.81"/><path class="cls-8" d="M137.32,81.05c0,.11-5.63,11.22-5.58,11.32l-3.44,7,1.19.91-.26.26-1.37-1.12Z"/><path class="cls-8" d="M139.23,78.16s3.93-.14,5.79,2.11C145,80.27,142.53,76.86,139.23,78.16Z"/><path class="cls-8" d="M92.18,71.74s2.46,2.57,2.21,4.89C94.39,76.63,95.16,73,92.18,71.74Z"/><path class="cls-3" d="M69.82,67.09c.3.22,5.16,5,5.16,5l-.82,2.35-1.75,1.69a2.68,2.68,0,0,1-3,.51l-2.23-1c-.48.34-1.34-.51-1.34-.51A1.27,1.27,0,0,1,65.72,77l-1-.63-.55,0-1.29-1.17-.56-1.68.63-1.62,1.91-.49.09-.17-1.85,0a12,12,0,0,1-1.25,2,.91.91,0,0,1-.18.21.87.87,0,0,1-1.21-.11l.43-2.7-.42-.28,1.41-3,1.72-1.14a1.2,1.2,0,0,1,.84-.19c1.14.16,4,.59,4.06.63A4.59,4.59,0,0,1,69.82,67.09Z"/><path class="cls-10" d="M66,74.47a1.77,1.77,0,0,0-.67-1.34l-.08-.06,0,.14a2.26,2.26,0,0,0,0-1.43,1,1,0,0,0-.31-.5,5.62,5.62,0,0,0,.15.55,2.49,2.49,0,0,1-.05,1.3l0,.09.06,0,.07,0a1.85,1.85,0,0,1,.66,1.16c0,.35,0,.59,0,.59S66,74.88,66,74.47Z"/><path class="cls-10" d="M65,75.81a1.37,1.37,0,0,0,0-.8,2.3,2.3,0,0,0-.42-.86q-.17-.23-.33-.42l0,.11A1.22,1.22,0,0,0,64,72.53c-.27-.23-.48-.26-.49-.23s.18.1.38.33a1.14,1.14,0,0,1,.21,1.13v.07l0,0c.11.13.22.27.32.41a1.7,1.7,0,0,1,.41,1.46,1.81,1.81,0,0,1-.33.57S64.84,76.26,65,75.81Z"/><path class="cls-10" d="M64.57,73.41c-.24.15-.42.32-.38.38s.26,0,.51-.18.41-.32.38-.38S64.82,73.26,64.57,73.41Z"/><path class="cls-10" d="M65.42,74.53c-.32-.38-.72-.48-.75-.41s.27.23.56.56.39.66.46.66S65.73,74.91,65.42,74.53Z"/><path class="cls-10" d="M67.59,73.35a4.13,4.13,0,0,0-.18-2.09c-.07,0,.08.93-.07,2.06s-.52,2-.46,2A4.09,4.09,0,0,0,67.59,73.35Z"/><path class="cls-10" d="M62.68,69.09a4.93,4.93,0,0,1-.57.86,1.85,1.85,0,0,1-.83.54c-.24.09-.42.06-.42.09s.17.11.46.08a1.67,1.67,0,0,0,1-.55,2.89,2.89,0,0,0,.54-1c.1-.26.13-.44.1-.44S62.8,68.87,62.68,69.09Z"/><path class="cls-10" d="M65.33,70.63c.13-.21.12-.42.06-.43s-.16.13-.26.3-.2.32-.16.37S65.2,70.85,65.33,70.63Z"/><path class="cls-18" d="M62,64.56s.06,8.86.06,9c.16,3-12.07,3.12-12.07.08l-.06-9Z"/><path class="cls-18" d="M61.68,67.18a3.81,3.81,0,0,1,1.49-.3,1.29,1.29,0,0,1,1,.39,1.52,1.52,0,0,1,.23.8,2.74,2.74,0,0,1-.48,2,1.93,1.93,0,0,1-1.12.6,6.08,6.08,0,0,1-1.28.08v1.38a5,5,0,0,0,2.14-.31,3.06,3.06,0,0,0,1.6-1.45,4.77,4.77,0,0,0,.23-2.34,2.43,2.43,0,0,0-.33-1.2,2.09,2.09,0,0,0-1.38-.71,7.24,7.24,0,0,0-2.18,0"/><path class="cls-19" d="M57.07,47.69a.62.62,0,0,1-.48-.29.6.6,0,0,1,0-.83.92.92,0,0,1,1.12-.06,1.29,1.29,0,0,1,.49,1.32,3.36,3.36,0,0,1-.84,1.55,5.67,5.67,0,0,0-1.17,1.7,2.13,2.13,0,0,0,.41,2.17c.52.6,1.17,1,1.65,1.44a1.7,1.7,0,0,1,.46.84,1.47,1.47,0,0,1-.14.9,3.71,3.71,0,0,1-1.24,1.25,5.71,5.71,0,0,0-1.24,1.06,3.42,3.42,0,0,0-.74,2.2,3.2,3.2,0,0,0,.07.63.83.83,0,0,0,.08.22,7.91,7.91,0,0,1-.06-.85,3.49,3.49,0,0,1,.79-2.09,5.86,5.86,0,0,1,1.22-1,3.82,3.82,0,0,0,1.33-1.32,1.64,1.64,0,0,0,.16-1,1.84,1.84,0,0,0-.51-1c-.51-.54-1.16-.91-1.64-1.45a1.9,1.9,0,0,1-.37-1.93,5.93,5.93,0,0,1,1.11-1.64,3.42,3.42,0,0,0,.87-1.66,1.48,1.48,0,0,0-.59-1.51,1.07,1.07,0,0,0-1.32.12.66.66,0,0,0-.18.55.89.89,0,0,0,.2.44.68.68,0,0,0,.58.28.43.43,0,0,0,.21-.09S57.22,47.67,57.07,47.69Z"/><path class="cls-3" d="M66.35,70.22l1.48.63A22.61,22.61,0,0,0,70.64,75c1.29,1.3,5.29-1.67,5.29-1.67L70.7,68.86l-4.2-1.19-3.7.18C61.46,70.2,66.35,70.22,66.35,70.22Z"/><path class="cls-10" d="M73.31,71l-.55-.5-2-1.79h0l-4.18-1.21h0l-3.7.16h-.1l0,.06,0,.07a1.57,1.57,0,0,0-.23.7,1.06,1.06,0,0,0,.23.71,2.43,2.43,0,0,0,1.19.71,9,9,0,0,0,2.48.34h0l1.49.62-.05,0a27,27,0,0,0,2,3.1q.31.41.66.78a2.91,2.91,0,0,0,.27.24,1.51,1.51,0,0,0-.22-.28c-.15-.18-.36-.45-.61-.81a29,29,0,0,1-1.88-3.12v0h0l-1.48-.64h0a9.3,9.3,0,0,1-2.41-.35,2.25,2.25,0,0,1-1.07-.63,1,1,0,0,1,0-1.16l0-.06-.1.06,3.7-.18h0l4.2,1.17h0l2.08,1.73.58.46a1,1,0,0,0,.2.15A.75.75,0,0,0,73.31,71Z"/><path class="cls-19" d="M56.91,61.71a2.4,2.4,0,0,1,.35-1.41,5.58,5.58,0,0,1,1.52-1.58,5.25,5.25,0,0,0,1.8-2.11,2.15,2.15,0,0,0,0-1.48A2.9,2.9,0,0,0,59.83,54a6.9,6.9,0,0,1-1.51-1.6,1.55,1.55,0,0,1,0-1.39,1.52,1.52,0,0,1,.37-.39s-.06,0-.14,0a.86.86,0,0,0-.31.29,1.58,1.58,0,0,0-.06,1.52,6.25,6.25,0,0,0,1.5,1.68,2.78,2.78,0,0,1,.72,1,1.82,1.82,0,0,1,0,1.3,5.05,5.05,0,0,1-1.73,2,5.86,5.86,0,0,0-1.53,1.68,2.41,2.41,0,0,0-.28,1.49,1.48,1.48,0,0,0,.12.41l.08.12S56.94,62.05,56.91,61.71Z"/><path class="cls-20" d="M111.92,35.52c1.57-.28,4.08-.92,4.08-.92a4.29,4.29,0,0,1-8.23,1.45S110.35,35.79,111.92,35.52Z"/><path class="cls-21" d="M111.9,35.52c.75-.13,3.73-.8,3.73-.8a4.23,4.23,0,0,1-3.38,2.39c-2.93.52-4.09-1-4.09-1Z"/><path class="cls-22" d="M111.89,35.64c.75-.13,3-.66,3-.66s-.66,1-2.9,1.4-3.1-.32-3.1-.32Z"/><path class="cls-20" d="M107.56,35.83a5.77,5.77,0,0,0,.9,0c.61-.17,1-.41,1.41-.52a6.48,6.48,0,0,1,1.63,0A6.28,6.28,0,0,1,113,34.7c.46,0,1.59-.07,2.22-.12a4.53,4.53,0,0,0,.87-.26c.11,0,0,.9-4.12,1.64S107.46,35.88,107.56,35.83Z"/></g></svg>