<svg xmlns="http://www.w3.org/2000/svg" viewBox="0 0 389.76 512.04"><defs><style>.cls-1{fill:#956243;}.cls-2{fill:#3f261c;}.cls-3{fill:#794c36;}.cls-4{fill:#e5e766;}.cls-5{fill:#f5f6f6;}.cls-6{fill:#696c6d;}.cls-7{fill:#273339;}.cls-14,.cls-15,.cls-8{fill:#151210;stroke:#161311;stroke-miterlimit:10;}.cls-8{stroke-width:0.15px;}.cls-9{fill:#96963a;}.cls-10{fill:#231f20;}.cls-11{fill:#1d170f;}.cls-12{fill:#1e180f;}.cls-13{fill:#080405;}.cls-14{stroke-width:0.22px;}.cls-15{stroke-width:0.2px;}.cls-16{fill:#24180f;}.cls-17{fill:#653c29;}</style></defs><g id="Layer_1" data-name="Layer 1"><path class="cls-1" d="M202.23,347.08s3.59,3.4,4.32,7.43c.66,3.7,2.7,14.18-8,20.18Z"/><path class="cls-1" d="M269.89,419.25l-.27-.68s-6.29-3.09-7.5-3.46-7.56,4-7.56,4l-2.4,10.21,6.76,1.91a12.37,12.37,0,0,0,4,.75,13.23,13.23,0,0,0,4.16-.39,1.75,1.75,0,0,0,1.24-2.15c2.59-.6,1.22-2.4,1.22-2.4,2.61-1.36.84-2.91.84-2.91s1.75-.39,1.54-2-2.12-3-2.12-3"/><path class="cls-2" d="M260,424.34a5.46,5.46,0,0,0,2-1.24,3.25,3.25,0,0,0,1-2.55l-.05-.48.42.25a3.54,3.54,0,0,0,.41.26,6.14,6.14,0,0,0,3,.73,3.72,3.72,0,0,0,2.35-.7,1.65,1.65,0,0,0,.61-1.44,1.87,1.87,0,0,0-.17-.6s.24.12.36.57a1.84,1.84,0,0,1-.57,1.73,4.07,4.07,0,0,1-2.57.88,6.14,6.14,0,0,1-3.22-.75,2.42,2.42,0,0,1-.45-.26l.36-.23a3.58,3.58,0,0,1-1.19,2.9,5.47,5.47,0,0,1-2.21,1.25,10.18,10.18,0,0,1-1.64.35,3.11,3.11,0,0,1-.61,0C257.87,425,258.72,424.81,260,424.34Z"/><path class="cls-2" d="M269.49,424.25a7.74,7.74,0,0,0-1.9-.45,2.74,2.74,0,0,0-2.49.94,1.67,1.67,0,0,0-.31,1.46,2.28,2.28,0,0,0,1.07,1.29,5,5,0,0,0,1,.45l2.17.78-2.28-.32a4.13,4.13,0,0,0-3,.33,1.72,1.72,0,0,0-.71,1,1.34,1.34,0,0,0,.2,1,3,3,0,0,0,1.31,1,5.33,5.33,0,0,1,.57.28,1.72,1.72,0,0,1-.63-.12,2.83,2.83,0,0,1-1.5-1,1.67,1.67,0,0,1-.33-1.28,2.12,2.12,0,0,1,.84-1.27,4.42,4.42,0,0,1,3.3-.46l-.11.45a5.31,5.31,0,0,1-1.06-.48,2.75,2.75,0,0,1-1.27-1.57,2.15,2.15,0,0,1,.41-1.86,2.71,2.71,0,0,1,1.42-.92,3.92,3.92,0,0,1,1.45-.09,6.35,6.35,0,0,1,1.95.62,2.52,2.52,0,0,1,.64.37A2.57,2.57,0,0,1,269.49,424.25Z"/><path class="cls-2" d="M267.57,423.32a2.18,2.18,0,0,1-1.06-1.3,1.54,1.54,0,0,1-.05-.43l-.33,0a.5.5,0,0,1-.13,0,1.9,1.9,0,0,0,.05.58,2.62,2.62,0,0,0,1.15,1.5,4.58,4.58,0,0,0-2.06.62,2.23,2.23,0,0,0-.87,1.31,1.67,1.67,0,0,0,.31,1.3,2.73,2.73,0,0,0,1.51,1,1.73,1.73,0,0,0,.64.12,5.33,5.33,0,0,0-.57-.28,2.85,2.85,0,0,1-1.32-1,1.31,1.31,0,0,1-.19-1,1.81,1.81,0,0,1,.74-1,4.24,4.24,0,0,1,3-.38l2.32.28-2.2-.76A4.53,4.53,0,0,1,267.57,423.32Z"/><path class="cls-1" d="M254.43,429c-8.66,1.2-16,2.43-24.66,1.35-12.41-1.76-23.85-10.7-25.67-11.39l10.25-17,20,11.12,21,6Z"/><path class="cls-3" d="M228.06,458.83s20.55,5.62,21.89,4.93,12.5-6.84,14-6.05c.86.45,1.8-.24,0,3.49-1.27,2.63-6.37,12.31-9.27,17.81a6.4,6.4,0,0,1-6.42,3.37l-29.9-3.65Z"/><path class="cls-4" d="M151.19,428.63c.92,4.91-4.3,10.62-4.78,12.74a6.64,6.64,0,0,0,6,8.71,21.66,21.66,0,0,0,5.57-.2l17.21-2.1"/><path class="cls-4" d="M197.3,383.64l13.32,8.9,1.53,32.54s-.75,17-1.9,19.77S151.19,452,151.19,452s-.68-21.61,0-32.4,19.28-41,19.28-41Z"/><path class="cls-3" d="M207.93,450.79S228.18,438,233.58,440s18.58,22.86,18.58,22.86L244.54,477l-17.1-12.83s.37,13.76-12.07,16.36S207.93,450.79,207.93,450.79Z"/><path class="cls-5" d="M150.89,449.2s-3.18,3.2-2.87,6.45,0,10.52,0,10.52,1.26,22.11,22.61,19.48l20.3-1.86s11.23.31,17-4.32,7.42-28.07,5.26-30.27l-1.69-1.39s-.06-1.91-1.19-2.53S150.89,449.2,150.89,449.2Z"/><path class="cls-6" d="M150.89,449.2l.3,0,.88-.08,3.43-.28,12.87-1,19.71-1.44,11.93-.81c2.1-.13,4.24-.25,6.44-.35,1.12-.05,2.2-.1,3.33-.08l.45,0a.94.94,0,0,1,.22.12l.18.14a2.36,2.36,0,0,1,.53.72,4.89,4.89,0,0,1,.42,1.68l-.05-.1,1.68,1.39h0a3.51,3.51,0,0,1,.63,1.61,15.94,15.94,0,0,1,.22,1.69c.09,1.12.11,2.27.09,3.43a63.54,63.54,0,0,1-.5,7A64.41,64.41,0,0,1,212.4,470a30,30,0,0,1-2.48,7,9.49,9.49,0,0,1-1.61,2.21,7.26,7.26,0,0,1-1.07.85,8.8,8.8,0,0,1-1.12.71,21.2,21.2,0,0,1-5,1.94,40.32,40.32,0,0,1-10.27,1.22h0l-16,1.45-3.79.35c-1.25.1-2.49.25-3.71.24a20,20,0,0,1-7-1.12,16.45,16.45,0,0,1-5.68-3.47,19,19,0,0,1-3.75-4.94,25.67,25.67,0,0,1-2.1-5.26,27.06,27.06,0,0,1-.93-5.05h0c.13-2.81.18-5.33.17-7.52,0-1.09,0-2.11-.12-3a5.92,5.92,0,0,1,.39-2.5,11.31,11.31,0,0,1,1.74-3,8.35,8.35,0,0,1,.8-.89l-.2.23c-.13.15-.32.38-.56.69a11.21,11.21,0,0,0-1.68,3,6,6,0,0,0-.37,2.47c.09.93.12,1.95.14,3.05,0,2.2,0,4.71-.13,7.52h0a27.13,27.13,0,0,0,3,10.21,19.58,19.58,0,0,0,3.71,4.87,16.54,16.54,0,0,0,5.62,3.41,20,20,0,0,0,6.94,1.08c1.22,0,2.44-.14,3.69-.25l3.79-.35,16-1.46h0a40,40,0,0,0,10.17-1.19,20.33,20.33,0,0,0,4.89-1.9,8.08,8.08,0,0,0,1.12-.7,6.82,6.82,0,0,0,1-.82,10,10,0,0,0,1.56-2.14,29.92,29.92,0,0,0,2.45-6.95,63.32,63.32,0,0,0,1.25-7.11,65.51,65.51,0,0,0,.5-7c0-1.12,0-2.28-.08-3.4-.06-.57-.12-1.13-.22-1.65a3.43,3.43,0,0,0-.56-1.48h0l-1.69-1.39,0,0v-.07a4.32,4.32,0,0,0-.39-1.58,2.25,2.25,0,0,0-.47-.64.58.58,0,0,0-.15-.11s-.11-.09-.14-.08a2.58,2.58,0,0,0-.39,0c-1.12,0-2.22,0-3.31.08-2.18.1-4.33.23-6.43.35l-11.91.79L168.38,448l-12.86.94-3.43.24-.88.06Z"/><path class="cls-1" d="M164.41,482.11s-5.1-6.51-3.4-13.63S169.49,449,180.56,447s15.9-.46,20.53,3,7.47,6.76,12.85,8.44,20.72,8.34,20.72,8.34l-2,15.33s-22,0-27.15-1.12a58.91,58.91,0,0,1-9-2.62,11.51,11.51,0,0,1-9,6.65C181,485.87,169.36,487.53,164.41,482.11Z"/><path class="cls-4" d="M196.47,383.48c5.05.7,19,9.8,20.48,14,3.17,5,10.87,11.93,10.87,11.93s-18.06,18.43-19.28,18.16-4.75-20.76-4.75-20.76Z"/><path class="cls-7" d="M171.67,485.56a6.67,6.67,0,0,1-1.94-.19,10.18,10.18,0,0,1-4.6-2.61,13.21,13.21,0,0,1-2.24-2.91,16.77,16.77,0,0,1-1.61-3.92,21,21,0,0,1-.85-4.58,9.4,9.4,0,0,1,.18-2.48l.26-1.23c.1-.41.22-.83.33-1.24a26,26,0,0,1,1.84-4.66c.34-.73.78-1.4,1.17-2.08a14.16,14.16,0,0,1,1.29-1.88,34.89,34.89,0,0,1,5.4-5.73,39.12,39.12,0,0,1,5.95-4.19s-.13.11-.41.3l-1.19.81c-1,.73-2.5,1.78-4.19,3.24a35.66,35.66,0,0,0-5.32,5.73c-.45.56-.84,1.24-1.27,1.88a12.38,12.38,0,0,0-1.12,2.06,24.43,24.43,0,0,0-1.82,4.61l-.33,1.22c-.11.4-.16.82-.25,1.22a8.86,8.86,0,0,0-.18,2.41,20.58,20.58,0,0,0,.8,4.54,17.37,17.37,0,0,0,1.56,3.85,12.58,12.58,0,0,0,2.2,2.88,10.06,10.06,0,0,0,4.49,2.64A13,13,0,0,0,171.67,485.56Z"/><path class="cls-1" d="M222.87,461.81s20.56,5.61,21.89,4.93,12.51-6.84,14-6.05c.85.45,1.8-.24,0,3.49-1.27,2.63-6.37,12.31-9.28,17.81a6.39,6.39,0,0,1-6.42,3.36l-29.89-3.64Z"/><path class="cls-2" d="M188.26,465.38c.06,0,.11.86.43,2.21a16.88,16.88,0,0,0,.73,2.32,16.39,16.39,0,0,0,3.15,5,15.53,15.53,0,0,0,1.75,1.69c1.06.88,1.82,1.32,1.79,1.36a2.23,2.23,0,0,1-.56-.27,4.78,4.78,0,0,1-.61-.38c-.26-.17-.52-.36-.77-.56a15.23,15.23,0,0,1-1.82-1.68,17.85,17.85,0,0,1-1.84-2.41A18.06,18.06,0,0,1,189.2,470a15.12,15.12,0,0,1-.68-2.36c-.07-.31-.12-.63-.16-.94a4.25,4.25,0,0,1-.06-.71A2.51,2.51,0,0,1,188.26,465.38Z"/><path class="cls-2" d="M196.42,478.2a2.84,2.84,0,0,1-.65-.1c-.42-.09-1-.22-1.76-.41a15.27,15.27,0,0,1-5.43-2.42,8.56,8.56,0,0,1-2.25-2.43,7.85,7.85,0,0,1-1-2.52,7.34,7.34,0,0,1-.1-1.81,2.08,2.08,0,0,1,.11-.66,11.67,11.67,0,0,0,.2,2.43,7.73,7.73,0,0,0,1,2.42,8.68,8.68,0,0,0,2.18,2.34,16.57,16.57,0,0,0,5.31,2.45l1.73.5A3.69,3.69,0,0,1,196.42,478.2Z"/><path class="cls-1" d="M168,380.93s-16,1.67-18.32,10.87-8.86,36.49-1.28,45S186.84,438,186.84,438l2.11-10.3-23.39-3.13s2.8-14,3.23-16.77S168,380.93,168,380.93Z"/><path class="cls-4" d="M170.08,379.24s-19.59,1.75-23.19,16.7-4.15,18.91-3.65,19.35,3.64.93,9.47,2.23,12,6.2,15.92,3.36,3.46-26.38,3.46-26.38Z"/><path class="cls-2" d="M166.51,425.07c0,.05-.64-.31-1.72-.64a10.88,10.88,0,0,0-1.94-.37,11.51,11.51,0,0,0-2.42.05,11.73,11.73,0,0,0-2.33.6,10.47,10.47,0,0,0-1.77.89c-1,.61-1.44,1.12-1.48,1.07s.1-.14.32-.37a3.24,3.24,0,0,1,.43-.4,7.11,7.11,0,0,1,.62-.46,9.52,9.52,0,0,1,1.78-1,9.89,9.89,0,0,1,4.87-.67,8.87,8.87,0,0,1,2,.44,5.7,5.7,0,0,1,.72.29,5,5,0,0,1,.52.26C166.37,425,166.52,425.05,166.51,425.07Z"/><path class="cls-1" d="M205.44,359.33a122.41,122.41,0,0,0-3.74-16.1c-.14-.52-.3-1-.45-1.52A4.22,4.22,0,0,1,201,341c-2.92-8.72-7.21-12.46-7.21-12.46a20.34,20.34,0,0,0-19.87-3.85c-8.1,2.59-14,9.71-16.32,15.82a13.13,13.13,0,0,0,0,9.4c2.62,6.94,9,15.29,10.42,18.82,1.93,4.84,2.2,12.25,2.2,12.25l1.43.76c9.09,8,15.6,5.32,23.76,4.14l.67-.1-.2-9.29C200.33,374.76,207.13,368.65,205.44,359.33Z"/><path class="cls-1" d="M168.68,369c.06.25-6.44,4.51-10.71-3.58-4.1-7.77,6.69-8,6.93-8C164.9,357.46,168.63,368.74,168.68,369Z"/><path class="cls-3" d="M195.93,379.92c-10.71,3.13-13.11-2-13.11-2,2.84,1.19,13-1.44,13-1.44Z"/><path class="cls-8" d="M177.6,321.57c-7.31.74-13.07,2.24-18.62,8.28-.92,1-3.93,4.16-4.82,6.66-3.51,9.91-.08,17.09,3.85,23.68l2.15-.7a.43.43,0,0,1,.34-.16h.16l.18-.06,0,.07a17.1,17.1,0,0,1,3.18.89,2.6,2.6,0,0,0,2.7-.48,2.79,2.79,0,0,0,.63-2.05,21.3,21.3,0,0,0-.89-4.31c-.3-.77-.62-1.52-1-2.26-1.46-3.11-2.31-4.85-2.16-7.85,0,0-.91-5.78,3.4-9.25,4.71-3.79,7.94-1.31,14.48-2.74,5.65-1.26,6.91-4,11.4-2.4s7.48,9.66,7.48,9.66C198.88,326.67,188.55,320.5,177.6,321.57Z"/><path class="cls-9" d="M209.48,402.33l2.67,22.75.68-.93S212.68,407.08,209.48,402.33Z"/><path class="cls-9" d="M166.3,389.73s5.6,4.15,5.77,10.66-1.39,20.2-3.43,21-2.45,0-2.45,0a3.78,3.78,0,0,0,2.94-2.67c.88-2.47,3-17.25,1.76-20.91A38.51,38.51,0,0,0,166.3,389.73Z"/><circle class="cls-10" cx="199.04" cy="346.69" r="1.86"/><path class="cls-10" d="M200.53,346.37a1.65,1.65,0,0,1-.67,1.72,1.49,1.49,0,0,1-1.74-.15,1.72,1.72,0,0,1-.53-1.8,1.5,1.5,0,0,1,1.37-1.07,1.64,1.64,0,0,1,1.57,1.3c.08.31.74.13.66-.18a2.09,2.09,0,0,0-1.81-1.59,2.29,2.29,0,0,0-2.3,1.18,2.07,2.07,0,0,0,.34,2.37,2.27,2.27,0,0,0,2.5.45,2.14,2.14,0,0,0,1.27-2.41C201.13,345.88,200.47,346.06,200.53,346.37Z"/><circle class="cls-11" cx="182.58" cy="351.66" r="1.86"/><path class="cls-12" d="M180.45,352.24a2,2,0,0,0,1.84,1.42,2.44,2.44,0,0,0,2.28-1.22,1.94,1.94,0,0,0-.43-2.28,2.35,2.35,0,0,0-2.53-.25,2,2,0,0,0-1.16,2.33c0,.16.7,0,.66-.18a1.82,1.82,0,0,1,.58-1.86,1.37,1.37,0,0,1,1.7.09,1.82,1.82,0,0,1,.67,1.86,1.5,1.5,0,0,1-1.27,1.23,1.78,1.78,0,0,1-1.68-1.32C181.07,351.9,180.4,352.08,180.45,352.24Z"/><path class="cls-13" d="M197.55,355.05s.06,0,0,0h0l.06,0a2.09,2.09,0,0,1,.28.24.82.82,0,0,1,.2.35.61.61,0,0,1,0,.46.89.89,0,0,1-.2.29,2.12,2.12,0,0,1-.39.33s-.09.08-.07.13.08.08.13.08a.72.72,0,0,0,.49-.13c.4-.28.88-.71.8-1.25a1.23,1.23,0,0,0-.52-.74l-.23-.14a.41.41,0,0,0-.22,0,.66.66,0,0,0-.27.09c-.09.05-.21.16-.07.24Z"/><path class="cls-13" d="M189.08,357.16a3.54,3.54,0,0,0,0,.92,1.23,1.23,0,0,0,.78,1.15,2,2,0,0,0,1.34-.23c.12-.06.28-.23.16-.37a.39.39,0,0,0-.47-.06l-.14.07-.07,0c-.07,0,.08,0,0,0l-.23.07h-.23c.07,0,0,0,0,0l-.08,0h0l-.06-.05s-.07-.06,0,0,0,0,0,0l0,0-.09-.12v0l0-.07a.88.88,0,0,1,0-.15,1.7,1.7,0,0,1-.06-.31.2.2,0,0,1,0-.07h0v0c0-.05,0-.1,0-.15a2.44,2.44,0,0,1,0-.27c0-.1,0-.2,0-.3s-.19-.25-.33-.24a.41.41,0,0,0-.38.29Z"/><path class="cls-13" d="M191.76,358.51a5,5,0,0,0,4.26,0,3,3,0,0,0,1.21-1.34c.16-.34-.56-.29-.67-.05a2.29,2.29,0,0,1-1.89,1.39,5,5,0,0,1-2-.23l-.32-.1-.09,0h0a.54.54,0,0,0-.51.06c-.09.06-.22.25-.06.31Z"/><path class="cls-14" d="M188,351.35s-3.77-2.82-6.75-1.67c-4.19,1.61-4.11,4.68-4.53,6.3,0,0,1.57-4.44,4.84-5.61C184.47,349.31,188,351.35,188,351.35Z"/><path class="cls-15" d="M201.79,344.13a6.15,6.15,0,0,0-4,.37c-2.7,1.07-2.93,4.9-2.93,4.9a6.41,6.41,0,0,1,3.33-4.19,6.72,6.72,0,0,1,3.81-.29A4.45,4.45,0,0,1,201.79,344.13Z"/><path class="cls-11" d="M181.14,344.4s-6.28,4-6.66,6.08c0,0-.27-2.35,4.77-6.17C179.25,344.31,182,342.86,181.14,344.4Z"/><path class="cls-11" d="M201,340.92a14.41,14.41,0,0,0-6.28-.59s-3,.71-1.37,1.31c0,0,5.08-.8,7.75-.31C201.05,341.2,201,341.06,201,340.92Z"/><path class="cls-16" d="M190.18,364.59c.06-.56,2.08-.66,6.48-2.16,3-1,4.33-1.95,4.69-1.58s-.86,2.38-2.69,3.5a8.28,8.28,0,0,1-2.87,1c-3,.51-6-.43-6-1.08"/><path class="cls-17" d="M189.67,364.25a11.67,11.67,0,0,0,3.27-1.19,19.58,19.58,0,0,1,3.94-1.71c1.76-.37,3.28-.23,4.93-1,0,0,.18.47-1,1-.64.29-6.32,3-9.43,3.1-1.65.07-1.7-.13-1.7-.13"/><path class="cls-17" d="M189.7,364.37c1.76,2.21,3.58,3.28,6.2,2.66a10.08,10.08,0,0,0,4-1.59c2-1.37,2-4.57,1.95-5.05-.17.58-1.41,1.92-3.42,3.27a8.18,8.18,0,0,1-3.46,1.29,7.45,7.45,0,0,1-2.69,0c-1.67-.28-1.72-.11-2.32-.55"/><path class="cls-10" d="M164.69,364.51a16.12,16.12,0,0,0-2.47-2,5.58,5.58,0,0,0-1.52-.72,2,2,0,0,0-.76-.06.9.9,0,0,0-.22.06c-.19.08-.19.21-.21.39a4,4,0,0,0,.86,2.73c.11.14.64,0,.52-.21a4.29,4.29,0,0,1-.83-2.05,2.15,2.15,0,0,1,0-.8l-.16.14s-.1,0,0,0c-.12,0,.08,0,0,0H160l.26.05a5.93,5.93,0,0,1,2,1.06,19.05,19.05,0,0,1,1.89,1.58c.13.12.65-.09.51-.21Z"/><path class="cls-10" d="M163.88,365.17c-1.34.47.19,1.82.31,2.6,0,0,0,.08,0,.12s0,.05,0,.07h0c-.06.11.06.08.34-.09,0,0-.09-.05-.12-.06l-.17-.15a5.28,5.28,0,0,1-.76-.95,5.58,5.58,0,0,1-.76-1.55c-.19-.65-.37-1.58.16-2.11.09-.09-.08-.11-.14-.11a.63.63,0,0,0-.37.14,2.13,2.13,0,0,0-.27,2,5.1,5.1,0,0,0,.74,1.65,6.92,6.92,0,0,0,.81,1.06.75.75,0,0,0,.67.32c.73-.11.37-.76.14-1.17s-.95-1.42-.36-1.63c.06,0,.22-.08.16-.17s-.3,0-.36,0Z"/><path class="cls-1" d="M186.15,437.83l6.76,1.91a12.43,12.43,0,0,0,4,.75,13.25,13.25,0,0,0,4.16-.39A1.75,1.75,0,0,0,202.3,438c2.59-.6,1.23-2.4,1.23-2.4,2.6-1.36.84-2.91.84-2.91s1.74-.39,1.53-2-2.11-3-2.11-3"/><path class="cls-1" d="M203.89,427.8l-.28-.68s-6.29-3.09-7.49-3.46-7.57,4-7.57,4l-2.4,10.21"/></g></svg>