<svg xmlns="http://www.w3.org/2000/svg" viewBox="0 0 389.76 512.04"><defs><style>.cls-1{fill:#956243;}.cls-2{fill:#794c36;}.cls-11,.cls-3,.cls-6{fill:#151210;}.cls-4{fill:#161311;}.cls-5{fill:#231f20;}.cls-11,.cls-6{stroke:#161311;stroke-miterlimit:10;}.cls-6{stroke-width:0.17px;}.cls-7{fill:#24180f;}.cls-8{fill:#e6e7e8;}.cls-9{fill:#653c29;}.cls-10{fill:#122347;}.cls-11{stroke-width:0.19px;}.cls-12{fill:#bdd6e2;}.cls-13{fill:#f37260;}.cls-14{fill:#714533;}.cls-15{fill:#ede6ad;}.cls-16{fill:#c35d28;}.cls-17{fill:#e2e1e0;}.cls-18{fill:#b7b7b7;}.cls-19{fill:#944221;}.cls-20{fill:#dddabf;}.cls-21{fill:#b96ead;}.cls-22{fill:#7d3174;}.cls-23{fill:#e0b1d2;}.cls-24{fill:#612670;}.cls-25{fill:#35163e;}</style></defs><g id="Layer_3" data-name="Layer 3"><path class="cls-1" d="M271.82,261c-.35-1.71,0-10.69,0-10.69l-9.46.46-9.45-.46s.35,9,0,10.69c0,0-5.21,4.66-11.14,5.55l20.8,6.69,22.55-9C280.4,263.2,271.82,261,271.82,261Z"/></g><g id="Layer_1" data-name="Layer 1"><path class="cls-2" d="M250,253.4c.19.16,1.7,1.47,1.9,1.63,4.94,4,5.61,5.18,9.87,5.37,4.27-.19,5.72-.66,10.31-5.53,1.54-1.65,1.54-1.71,1.88-2C266.25,252.83,257.63,253.33,250,253.4Z"/><path class="cls-3" d="M227.85,210.09l-.17.46c0,3,.93,5,3.21,5.89,0,0,0,4,5.57,5,4.83,1,6.78-1,6.78-1s1.89,2.71,3.11,2.71c2.74,0,7-3.18,6.59-5.41a5.67,5.67,0,0,0-2.07-3.44s2.7-2.3,2.08-4-4.6-4.85-4.6-4.85-.7-2.91-2-3.64a19.38,19.38,0,0,0-4.33-1.26,3.92,3.92,0,0,0-4.71-1.27s-2.25-.61-3.45,2.16a8.84,8.84,0,0,0-.6,2.31s-1.1-.27-3.16,1.11A7.25,7.25,0,0,0,227.85,210.09Z"/><path class="cls-4" d="M227.6,210.12A5.76,5.76,0,0,0,228,214a5.1,5.1,0,0,0,.94,1.48c.43.45,1,.61,1.45,1,.28.24.12,0,.27.34a5.59,5.59,0,0,1,.15.71,5.09,5.09,0,0,0,1.27,2.08c1.85,1.87,4.9,2.45,7.43,2.29a6.32,6.32,0,0,0,3.91-1.36l-.42.05c.79,1.11,2,2.81,3.51,2.75a8.49,8.49,0,0,0,5.3-2.7,3.65,3.65,0,0,0,.42-5.16,8.65,8.65,0,0,0-.9-1c-.21-.23-.21-.11-.21-.12,0-.19.58-.57.72-.72a7.46,7.46,0,0,0,1-1.31c1-1.83-.18-3.13-1.46-4.41-1-1-2.55-1.8-3-3.11a7.65,7.65,0,0,0-1.12-2.36,4.31,4.31,0,0,0-2.38-1.32,14.63,14.63,0,0,1-2.67-.63c-.21-.12-.73-.75-1.1-1a3.88,3.88,0,0,0-2.77-.61c-.35.05-.72.26-1,.29s-.45,0-.67,0c-2.43.13-3.33,2.64-3.65,4.69l.39-.16a5,5,0,0,0-3.46,1.17,7,7,0,0,0-2.35,5.31c0,.2.49.11.49-.06a7.62,7.62,0,0,1,1.55-4.49c.67-.84,2.3-1.91,3.47-1.66.11,0,.38,0,.4-.17.25-1.62.82-3.92,2.71-4.31a6.76,6.76,0,0,1,.9,0c.45,0,.86-.25,1.32-.3,1.43-.18,2.19.55,3.21,1.35a2.14,2.14,0,0,0,1.1.4c1.2.26,2.8.48,3.75,1.33s1.08,2,1.52,3a1.79,1.79,0,0,0,.7.83,29.49,29.49,0,0,1,2.4,2.21c.91.93,2,2,1.52,3.42a6.43,6.43,0,0,1-2,2.59s-.08.1,0,.14a5.33,5.33,0,0,1,1.87,2.66c.55,1.71-.5,3-1.77,4.08s-3.62,2.54-5.18,1.47a9.09,9.09,0,0,1-2.1-2.27c-.08-.11-.34,0-.42,0-2.07,2-6.5,1.3-8.78.18-1.58-.77-3.11-2.35-3.13-4.22a.12.12,0,0,0,0-.05,4.51,4.51,0,0,1-2.64-2.63,5.7,5.7,0,0,1-.35-3.63C228.15,209.9,227.66,210,227.6,210.12Z"/><path class="cls-1" d="M244.37,236s-1.58-3.07-2.65-3.06c-.66,0-2.24,1.74-2.22,3.41,0,2.23,1.58,4.76,2,6.06s.32,3.17,2.05,3.16c.69,0,1.54-1.44,1.54-1.44S244.73,238,244.37,236Z"/><path class="cls-5" d="M243.93,239a15.41,15.41,0,0,0-1.39-2.43,4.7,4.7,0,0,0-1-1.05,1.39,1.39,0,0,0-.56-.27c-.3-.06-.46.13-.58.37a3.59,3.59,0,0,0-.15,2.46c0,.16.53,0,.49-.13a3.79,3.79,0,0,1,0-1.95,1.92,1.92,0,0,1,.3-.63l-.33.13s-.06,0,0,0h.06a1.56,1.56,0,0,1,.34.18,5.31,5.31,0,0,1,1.32,1.51,16.41,16.41,0,0,1,1.05,1.93c.08.16.55,0,.49-.13Z"/><path class="cls-5" d="M243.27,239.35a1,1,0,0,0-.75.23.78.78,0,0,0-.17.57,5.42,5.42,0,0,0,.08.8,2.34,2.34,0,0,1,0,.7l0,.1,0,.05c0,.12.28-.1.3-.07s-.07,0-.08-.07a.67.67,0,0,1-.11-.18,4.93,4.93,0,0,1-.34-1.15,4.65,4.65,0,0,1-.11-1.44c0-.54.19-1.36.75-1.61.07,0,.14-.09.06-.14s-.27,0-.35.06a1.78,1.78,0,0,0-.89,1.4,3.78,3.78,0,0,0-.06,1.21,8.46,8.46,0,0,0,.31,1.43c.07.21.16.56.37.67a.54.54,0,0,0,.65-.22,1,1,0,0,0,0-.6c0-.32-.1-.63-.11-1a1.12,1.12,0,0,1,0-.41s.06-.11.07-.15,0,0,0,0-.1,0,0,0a.61.61,0,0,0,.35-.09c.06-.06.08-.12,0-.12Z"/><path class="cls-3" d="M294.34,210h0c0,3-1,6.33-3.29,7.17,0,0,0,4-5.57,5-4.83.95-6.78-1-6.78-1s-1.89,2.71-3.11,2.71c-2.75,0-6.95-3.18-6.59-5.41a5.67,5.67,0,0,1,2.07-3.44s-2.7-2.3-2.08-4,4.15-4.9,4.15-4.9,1.15-2.86,2.45-3.59a19.38,19.38,0,0,1,4.33-1.26,3.92,3.92,0,0,1,4.71-1.27s2.24-.61,3.45,2.16a8.84,8.84,0,0,1,.6,2.31s1.22-.16,3.28,1.22A5.13,5.13,0,0,1,294.34,210Z"/><path class="cls-4" d="M294.1,210c0,2.43-.62,6-3.14,7,0,0-.15.07-.15.14,0,2-1.75,3.62-3.48,4.34-2.25.94-6.41,1.51-8.4-.45-.11-.11-.37,0-.45.09a7.36,7.36,0,0,1-2.25,2.36c-1.53.77-3.87-.77-5-1.71s-2.11-2-2-3.37a5.12,5.12,0,0,1,2-3.33s.14-.11.08-.17a6.49,6.49,0,0,1-2.05-2.76c-.47-1.55,1.19-3.07,2.14-4.09a24.3,24.3,0,0,0,2-2c.76-1,.95-2.38,2-3.26,1.3-1.08,3.05-.8,4.48-1.46.57-.26.92-.86,1.5-1.18a3.2,3.2,0,0,1,2.1-.41c.38.06.71.29,1.08.32s.49-.07.73,0c2.18.15,2.89,2.67,3.16,4.45,0,.08.16.08.21.07a5.73,5.73,0,0,1,3.52,1.49,5.16,5.16,0,0,1,1.94,3.93c0,.16.49.06.48-.13a6,6,0,0,0-4.88-5.47,5.93,5.93,0,0,1-.87-.1c-.14-.13.05-.1,0-.38a6.37,6.37,0,0,0-.41-1.54,3.81,3.81,0,0,0-2.17-2.43,6.89,6.89,0,0,0-1.62-.12c-.36,0-.81-.32-1.26-.35a3.83,3.83,0,0,0-1.54.2,4.26,4.26,0,0,0-1.94,1.29,1.92,1.92,0,0,1-.18.22c-.14.11.36-.14.12-.07-.39.13-.83.16-1.22.26a9.69,9.69,0,0,0-3.4,1.18,7.07,7.07,0,0,0-2,2.72c-.71,1.44-2.18,2.49-3.29,3.83a4.24,4.24,0,0,0-1.33,2.54,4.72,4.72,0,0,0,1.56,2.83c.07.08.66.65.64.52s-.43.34-.56.47a5.23,5.23,0,0,0-1.56,3.22c-.05,2.55,3.49,4.64,5.61,5.14s3.45-1.09,4.58-2.7l-.45.09a6.33,6.33,0,0,0,4.14,1.33c2.54.07,5.58-.57,7.36-2.53a5.33,5.33,0,0,0,1.14-2,7.59,7.59,0,0,1,.16-.75c.11-.25,0-.07.19-.25.37-.36.86-.54,1.23-.95a6.16,6.16,0,0,0,1-1.66,11.62,11.62,0,0,0,.87-4.55C294.58,209.76,294.1,209.86,294.1,210Z"/><path class="cls-1" d="M279.05,235.75s1.59-3.06,2.66-3.06c.65,0,2.23,1.75,2.21,3.42,0,2.23-1.57,4.76-2,6.06s-.32,3.17-2.06,3.16c-.68,0-1.53-1.44-1.53-1.44S278.69,237.78,279.05,235.75Z"/><path class="cls-5" d="M280,238.86a12.36,12.36,0,0,1,1.69-2.79,3.29,3.29,0,0,1,.57-.55l.11-.08c.06,0,0,0,0,0l.05,0,.09,0s.1,0,0,0l.12,0c-.05,0-.07,0,0,0l-.21-.08a1.54,1.54,0,0,1,.29.62,3.72,3.72,0,0,1,0,1.93c0,.12.14.18.23.17a.27.27,0,0,0,.27-.2,3.67,3.67,0,0,0-.09-2.34c-.09-.21-.19-.51-.46-.48a1.38,1.38,0,0,0-.61.26,4.33,4.33,0,0,0-1,1,13.69,13.69,0,0,0-1.54,2.64c-.13.26.37.28.46.07Z"/><path class="cls-5" d="M280.22,239.32c.56,0,.35.93.3,1.25s-.26,1.14.27,1.13a.68.68,0,0,0,.59-.45,5.13,5.13,0,0,0,.36-1.23,4.51,4.51,0,0,0,.08-1.51,1.9,1.9,0,0,0-.88-1.64c-.14-.06-.58.13-.4.22.51.22.68.86.77,1.36,0,.22.05.45.06.67a1.52,1.52,0,0,1,0,.44,7.84,7.84,0,0,1-.29,1.36,3.07,3.07,0,0,1-.17.42l-.09.14s0,0,0,0l.27,0,0,0a.74.74,0,0,1-.05-.55c0-.26.07-.52.1-.78a1.55,1.55,0,0,0-.05-.74.57.57,0,0,0-.6-.29c-.09,0-.27,0-.32.12s0,.13.13.13Z"/><path class="cls-1" d="M279.68,239.85l-.05.23c-.43,2.37-.88,5.55-1.26,6.75-1.46,4.67-9,12-16.64,12s-15.17-7.37-16.63-12c-.17-.55-.36-1.27-.56-2.12a131.36,131.36,0,0,1-1.92-13.1h0c-.52-5-.62-10.93.28-13.27a13.12,13.12,0,0,1,4.53-5.25h0a24.38,24.38,0,0,1,14.31-4.55c9.84,0,17.25,5.72,18.83,9.8C282,222,280.92,233,279.68,239.85Z"/><path class="cls-3" d="M282.84,226.36c.14-.55.45-1.07.64-1.62a6.4,6.4,0,0,0-.78-5.18,2.55,2.55,0,0,1-.47-.61,2.6,2.6,0,0,1-.12-.74,6.27,6.27,0,0,0-1.46-3.55,2.78,2.78,0,0,0-1.89-1.1,4.65,4.65,0,0,0-4.45-3.89c-.27,0-1.08.23-1.28.13s-.21-.54-.43-.74a7,7,0,0,0-.83-.81,5.61,5.61,0,0,0-1.86-.89c-.78-.21-2.87-.6-3.55,0,0,0-.34.33-.29.39a4.25,4.25,0,0,0-2.88-1.2,3.12,3.12,0,0,0-1.46.83,1.73,1.73,0,0,0-1.58-.83,4.25,4.25,0,0,0-2.88,1.2c.05-.06-.24-.35-.29-.39-.67-.58-2.77-.19-3.55,0a5.61,5.61,0,0,0-1.86.89,7,7,0,0,0-.83.81c-.08.08-.37.81-.38.81a1.89,1.89,0,0,0-1-.29,7.06,7.06,0,0,0-3.71,1.59,4.19,4.19,0,0,0-.53.64,2.76,2.76,0,0,0-.43,1.78,2,2,0,0,0-1.35.4,2.07,2.07,0,0,0-.32.28c-.77.81-2.12,2.81-1.8,4.54,0,0-.76,1-1.31,1.81s-.38,4,.6,5.73a2.76,2.76,0,0,1-.19,1.72c-.51,1.22-.39,4,.59,4.89l2.17,2.26c-.29-.26.07-5.35.15-5.8.28-1.8.38-4.66,1.06-6.36a15,15,0,0,1,1.85-3.13q1-1.44,2.13-2.85a3.08,3.08,0,0,1,.55-.59c.73-.56,1.8-.43,2.66-.54s2-.21,2.94-.3a57.11,57.11,0,0,1,7-.47c4,.12,8,.54,12.06,1a1.81,1.81,0,0,1,.65.15,1.91,1.91,0,0,1,.63.57,33.56,33.56,0,0,1,3.34,4.54c1.84,3.18,1.79,9.44,2.36,13,.64-.5,1.35-2.09,2-1.3.51.63.79-3.25.71-4.06a20.25,20.25,0,0,1-.46-2.16A1.89,1.89,0,0,1,282.84,226.36Z"/><path class="cls-4" d="M283.08,226.32c.53-1.63,1.07-2.75.78-4.51a5.82,5.82,0,0,0-.68-2c-.2-.33-.56-.6-.7-1a5.23,5.23,0,0,1-.17-1.12,5.54,5.54,0,0,0-2.44-4,1.88,1.88,0,0,1-1.16-1.25,4.81,4.81,0,0,0-1.23-1.73,5.24,5.24,0,0,0-3.3-1.17l-.5.08a1.13,1.13,0,0,1-.83-.66c-.18-.18-.36-.43-.55-.59a5.59,5.59,0,0,0-1.82-1c-1.06-.37-4.07-1.12-4.65.4l.47-.13a3.33,3.33,0,0,0-4.79-.27l.47-.08c-1-1.64-3.86-.71-4.93.45l.47-.08c-.48-1.23-2.79-.7-3.71-.49a5,5,0,0,0-3.69,2.74l.47-.13a3.8,3.8,0,0,0-3.2.22c-1.51.58-3.11,1.85-2.92,3.65l.4-.17c-2-.17-3.43,2.29-3.8,4-.15.64,0,1.2-.31,1.74s-.79.94-1.06,1.49a5.87,5.87,0,0,0-.17,3.4c.24,1.4,1.07,2.4.65,3.84a6.9,6.9,0,0,0-.22,3.58c.36,1.6,1.83,2.69,2.92,3.83.08.09.53-.07.47-.15-.43-.68-.08-2.36,0-3.1.07-1.23.18-2.44.33-3.66a19.36,19.36,0,0,1,1.11-5.8,20.2,20.2,0,0,1,2.17-3.4c1-1.36,1.77-2.87,3.64-3.08,2.51-.28,5-.53,7.54-.72a50.59,50.59,0,0,1,8.07.16c1.29.1,2.57.22,3.86.35s3.32,0,4.28.72a13.58,13.58,0,0,1,2.06,2.52,16.14,16.14,0,0,1,1.94,3.08c1.66,3.79,1.37,8.22,2,12.24,0,.15.41,0,.46-.08.53-.48.76-1.1,1.54-1.19.08,0,.18.13.31.08.42-.14.48-.37.59-.8a12.37,12.37,0,0,0,.29-2.65c0-1.2-.63-2.34-.39-3.51,0-.13-.46,0-.48.08-.23,1.09.37,2.07.39,3.15a19.05,19.05,0,0,1-.29,3,1.17,1.17,0,0,1-.14.47s.5-.11,0-.18a1.13,1.13,0,0,0-.58,0c-.73.2-1.13,1.12-1.65,1.59l.47-.08c-.62-4.05-.3-8.58-2-12.37a15,15,0,0,0-1.53-2.47,14.69,14.69,0,0,0-2.54-3.15c-.76-.56-2-.43-2.89-.52-1.52-.15-3-.3-4.58-.43a56.34,56.34,0,0,0-8.42-.26c-2.84.19-5.72.45-8.54.8-1.9.24-2.71,1.84-3.76,3.28a14.08,14.08,0,0,0-3,6.64c-.24,1.72-.45,3.46-.57,5.19,0,.85-.1,1.7-.12,2.56,0,.44-.15,1.28.11,1.68l.47-.15c-.85-.89-2.12-1.83-2.63-3a6.09,6.09,0,0,1-.32-3.43c.15-.82.63-1.61.39-2.46a16.7,16.7,0,0,1-.88-3.37,4.3,4.3,0,0,1,.92-3.26,5,5,0,0,0,.66-.87c.19-.46,0-1.24.16-1.79.34-1.11,1.48-3.42,2.92-3.31.09,0,.42,0,.4-.17a3.42,3.42,0,0,1,2.33-3.26,3.31,3.31,0,0,1,2.85-.31.42.42,0,0,0,.47-.12,4.29,4.29,0,0,1,3-2.43c.85-.23,3-.71,3.39.39.05.14.4,0,.47-.07.87-.95,3.12-1.67,4-.3.08.13.39,0,.47-.07,1.14-1.1,2.89-.61,3.88.46.08.1.43,0,.47-.12.42-1.09,3.11-.37,3.93-.06a5,5,0,0,1,1.73,1.09c.26.27.51,1,.86,1.18a1.14,1.14,0,0,0,.52,0,4.92,4.92,0,0,1,2.4.21,4.74,4.74,0,0,1,2.77,3.51s.06,0,.09,0c1.51.21,2.49,1.75,2.94,3.08a18.09,18.09,0,0,1,.35,1.9,3.37,3.37,0,0,0,.72,1.22,5.71,5.71,0,0,1,.84,2.94,9.32,9.32,0,0,1-.86,3.59C282.56,226.52,283,226.46,283.08,226.32Z"/><path class="cls-5" d="M262.8,243.3a1.32,1.32,0,0,1-1.58,0c-.1-.07-.43,0-.29.15a1.85,1.85,0,0,0,2.15-.07c.06,0,0-.11,0-.13a.28.28,0,0,0-.25,0"/><path class="cls-5" d="M260.7,243.11a3.27,3.27,0,0,0-1.23-.34.24.24,0,0,0-.18.07s-.05.08,0,.11a1.29,1.29,0,0,0,.67.17.23.23,0,0,0,.21-.09c0-.06,0-.11-.09-.1a1,1,0,0,1-.54-.14l-.19.17a2.83,2.83,0,0,1,1.1.31.27.27,0,0,0,.23,0s.09-.1,0-.13"/><path class="cls-5" d="M259,243.16a1.33,1.33,0,0,1-1.12-.65,1.45,1.45,0,0,1,.5-1.75c.06,0,0-.09,0-.11a.31.31,0,0,0-.23.06,1.65,1.65,0,0,0-.68,1.48,1.31,1.31,0,0,0,1,1.07,1.87,1.87,0,0,0,.46.09.26.26,0,0,0,.21-.09c0-.07,0-.09-.08-.1"/><path class="cls-5" d="M263.35,243.17a3.45,3.45,0,0,1,1.23-.33.27.27,0,0,1,.19.06s0,.09,0,.12a1.19,1.19,0,0,1-.67.16.26.26,0,0,1-.21-.08c0-.07,0-.11.09-.11a.92.92,0,0,0,.54-.13l.19.17a3,3,0,0,0-1.1.3.24.24,0,0,1-.23,0s-.09-.1,0-.14"/><path class="cls-5" d="M265,243.23a1.3,1.3,0,0,0,1.11-.66,1.42,1.42,0,0,0-.5-1.74.06.06,0,0,1,0-.11.27.27,0,0,1,.23.06,1.65,1.65,0,0,1,.68,1.48,1.32,1.32,0,0,1-1,1.07,1.44,1.44,0,0,1-.46.08.24.24,0,0,1-.21-.08c0-.07,0-.1.09-.1"/><path class="cls-6" d="M253.24,232.47a1.69,1.69,0,0,0-1.82.33,1.58,1.58,0,0,0-.49.76,1.69,1.69,0,0,0,.4,1.52,1.56,1.56,0,0,0,1.79.32,1.73,1.73,0,0,0,.84-2,1.5,1.5,0,0,0-.72-.92"/><path class="cls-6" d="M257.39,235.22s-2.25-3.33-4.65-3.33c-3.38,0-4.17,2-4.9,3,0,0,2.19-2.4,4.8-2.33C255,232.59,257.39,235.22,257.39,235.22Z"/><path class="cls-6" d="M270.78,232.46a1.73,1.73,0,0,1,2.3,1.09,1.68,1.68,0,0,1-.39,1.53,1.57,1.57,0,0,1-1.79.31,1.72,1.72,0,0,1-.84-2,1.49,1.49,0,0,1,.72-.93"/><path class="cls-6" d="M266.63,235.22s2.25-3.34,4.65-3.34c3.38,0,4.17,2,4.9,3,0,0-2.19-2.39-4.8-2.33C269,232.59,266.63,235.22,266.63,235.22Z"/><path class="cls-7" d="M254.68,247.3c.24-.57,2.85.28,8.22-.05,3.7-.24,5.44-.83,5.73-.34s-1.69,2.27-4.07,2.94a10.2,10.2,0,0,1-3.52.29c-3.46-.3-6.63-2.18-6.36-2.84"/><path class="cls-8" d="M254.51,247c.23.32,0,.37.86.71a19.19,19.19,0,0,0,3.87.76,27.51,27.51,0,0,0,5.27-.19,14.25,14.25,0,0,0,4.35-.88c.43-.34-.29-.52-.2-.78-1.13.16-2.81.38-4.87.61-1.25.13-1.93.21-2.59.25a25.51,25.51,0,0,1-6.69-.48"/><path class="cls-9" d="M254.19,246.81a17.64,17.64,0,0,0,4-.19c1.61-.09,2.14-.3,3.86-.31.4,0,.72,0,1,0l2.09.13a12.86,12.86,0,0,0,4.11.1s.05.55-1.41.78c-.8.13-9.39.25-11.57.26-1.91,0-2.11-.79-2.11-.79"/><path class="cls-9" d="M254.19,246.81c1.31,2.84,3.37,5,6.49,5.09a12.45,12.45,0,0,0,4.89-.56c2.69-.87,3.57-4.27,3.71-4.78a8,8,0,0,1-4.29,3.16,10,10,0,0,1-4.25.38,10.4,10.4,0,0,1-3.22-.89,8.84,8.84,0,0,1-3.33-2.4"/><path class="cls-6" d="M266.32,228.43c0,.47,0,.21,0,.69s0,.72,0,1.09c1.17-.32,2-.65,2.75-.79a15.41,15.41,0,0,1,4.71-.54,3.4,3.4,0,0,1,2.19.94c.14.17.5.79.78.66.12-.06-.08-.64-.1-.7a3.15,3.15,0,0,0-2.66-1.94c-2.55-.56-3.83-.47-7.69.51"/><path class="cls-6" d="M257.33,228.42c0,.48,0,.21,0,.69s0,.73,0,1.09c-1.16-.31-2-.65-2.75-.78a15.42,15.42,0,0,0-4.71-.55,3.29,3.29,0,0,0-2.2.81c-.14.17-.49.92-.77.79-.12-.05.08-.64.1-.7a3.18,3.18,0,0,1,2.67-1.94c2.54-.56,3.82-.47,7.68.51"/><path class="cls-1" d="M240.07,294.44,234,349.24l-7.28,1.45s-2.72-17-3-25.05,2.56-36.06,2.56-36.06Z"/><path class="cls-1" d="M181.13,327.39s1.39,16.52,1.15,19-7.19,8.48-9,8.37-2.15-.43-1.72-2.14a1.63,1.63,0,0,1-1.2-2,1.21,1.21,0,0,1,0-.18c.45-1.83,3.66-4,3.66-4l2.3-1.5.84-7.51s-1.56,7.74-3.27,8.18-2.6-.08-2.44-3.13c.14-2.68.89-9.45.89-13a42.1,42.1,0,0,1,.52-6.54h8.17Z"/><path class="cls-1" d="M168.47,308.22,136.62,314,103,308.22l-2.43,24.29c.71,1.78,14.28,129.21,14.28,129.21l12.12.73,2.1-18.78,5.68-94.54a2,2,0,0,1,2-2.1,2.09,2.09,0,0,1,1,.21l.5.26L143,418.62l2.57,44.56,12.17-1.46s3.12-17.31,6.8-35.66c3.72-18.59,7.06-83.25,7.51-90S168.47,308.22,168.47,308.22Z"/><path class="cls-10" d="M102.87,314.63s-3.16,9.75-2.28,29.18.4,63.37.4,63.37L111.44,409a49.59,49.59,0,0,0,16,.22l6.5-1L137.46,355l3.69,53.45,10.56,1a52.06,52.06,0,0,0,9.09,0l12-1s2.85-62.35-.5-88.76Z"/><path class="cls-1" d="M125.9,185.19s-1.82-3.52-3.05-3.51c-.75,0-2.56,2-2.54,3.92,0,2.56,1.81,5.46,2.25,7s.37,3.64,2.36,3.63c.79,0,1.76-1.65,1.76-1.65S126.31,187.51,125.9,185.19Z"/><path class="cls-5" d="M125.39,188.64a17.09,17.09,0,0,0-1.6-2.79,5,5,0,0,0-1.14-1.21,1.68,1.68,0,0,0-.64-.32c-.33-.06-.52.15-.65.42a4,4,0,0,0-.18,2.84c0,.19.61,0,.56-.15a4.22,4.22,0,0,1,0-2.23,2.19,2.19,0,0,1,.33-.73l-.36.15h0s.12,0,.07,0a1.62,1.62,0,0,1,.39.21,6,6,0,0,1,1.51,1.73,19.09,19.09,0,0,1,1.21,2.22c.09.19.63,0,.56-.15Z"/><path class="cls-5" d="M124.55,189a.87.87,0,0,0-1,1,5.75,5.75,0,0,0,.1.92,2.83,2.83,0,0,1,0,.77s0,.06,0,.09l0,0s.26-.11.28-.06-.15-.2-.19-.29a6,6,0,0,1-.38-1.31c0-.27-.09-.53-.13-.8s0-.1,0-.06v0a.19.19,0,0,1,0-.08c0-.22,0-.43,0-.65.06-.58.2-1.49.81-1.76.09,0,.22-.15.14-.25s-.28-.07-.38,0a2.12,2.12,0,0,0-1.07,1.66,4.34,4.34,0,0,0-.07,1.44,10.21,10.21,0,0,0,.36,1.64c.09.26.2.65.45.8a.54.54,0,0,0,.72-.25,1.46,1.46,0,0,0,0-.75c0-.25-.35-1.69.07-1.68.12,0,.32,0,.37-.16s0-.19-.16-.19Z"/><path class="cls-1" d="M118.26,192.44s-1.82-3.52-3.05-3.51c-.75,0-2.56,2-2.54,3.92,0,2.55,1.81,5.46,2.25,7s.37,3.64,2.36,3.63c.79,0,1.76-1.66,1.76-1.66S118.67,194.76,118.26,192.44Z"/><path class="cls-5" d="M117.75,195.89a17.71,17.71,0,0,0-1.6-2.81,5.65,5.65,0,0,0-1.16-1.23,1.64,1.64,0,0,0-.69-.33c-.32-.05-.47.19-.59.44a4.17,4.17,0,0,0-.17,2.87c.06.25.62.11.56-.15a4.32,4.32,0,0,1,0-2.2,3,3,0,0,1,.22-.52l0-.09v0l0,0-.26.12h0s0,0,0,0l.07,0,.07,0,.06,0,.23.14a5.88,5.88,0,0,1,1.48,1.7,19,19,0,0,1,1.21,2.21c.11.24.67.08.56-.15Z"/><path class="cls-5" d="M117.52,197.09a1.06,1.06,0,0,0-.86.32,1.08,1.08,0,0,0-.19.7,6.25,6.25,0,0,0,.1,1,2.91,2.91,0,0,1,.06.83.53.53,0,0,0,0,.12s0,0,0,0,.32,0,.31-.06l-.09-.1a2.53,2.53,0,0,1-.13-.22,6.16,6.16,0,0,1-.4-1.41,5.24,5.24,0,0,1-.12-1.72c.06-.61.21-1.61.85-1.89.09,0,.23-.13.16-.24s-.31,0-.39,0a2.2,2.2,0,0,0-1.15,1.74,4.64,4.64,0,0,0-.08,1.53,10.53,10.53,0,0,0,.39,1.75c.08.26.2.69.47.84a.61.61,0,0,0,.76-.26,1.37,1.37,0,0,0,0-.8c0-.26-.37-1.82.08-1.8.11,0,.33-.05.39-.17s-.05-.17-.16-.17Z"/><path class="cls-1" d="M150.26,224.37c-.43-2.08,0-13.07,0-13.07l-11.55.57-11.56-.57s.43,8.47,0,10.55a38,38,0,0,1-13.62,5.32L139.14,248l24.58-18.36C158,228.34,150.26,224.37,150.26,224.37Z"/><path class="cls-2" d="M126.31,213c.2.18,1.68,2.41,1.9,2.58,5.26,4.25,6,5.41,10.59,5.62,4.55-.21,6.51-.92,11.4-6.11,1.65-1.75,1.28-2.34,1.65-2.66C143.67,212.37,134.49,212.91,126.31,213Z"/><path class="cls-1" d="M158.63,192.65s1.82-3.52,3.05-3.51c.75,0,2.56,2,2.54,3.92,0,2.56-1.81,5.46-2.25,7s-.37,3.63-2.36,3.62c-.79,0-1.76-1.65-1.76-1.65S158.22,195,158.63,192.65Z"/><path class="cls-5" d="M159.59,196.72a14.34,14.34,0,0,1,1.93-3.21,4.3,4.3,0,0,1,.65-.63l.13-.09h0l.06,0,.1-.05h0l.13,0s-.08,0,0,0l-.23-.09a2.14,2.14,0,0,1,.33.72,4.15,4.15,0,0,1,0,2.21c0,.14.16.2.27.2a.32.32,0,0,0,.3-.24,4.24,4.24,0,0,0-.1-2.68c-.1-.23-.22-.58-.53-.55a1.58,1.58,0,0,0-.69.3,5,5,0,0,0-1.11,1.1,16,16,0,0,0-1.77,3c-.14.3.43.31.54.08Z"/><path class="cls-5" d="M160,198c.65,0,.41,1.12.36,1.47s-.3,1.3.3,1.26a.76.76,0,0,0,.67-.47,5.18,5.18,0,0,0,.4-1.34,5.28,5.28,0,0,0,.13-1.77c-.08-.69-.29-1.59-1-1.9a.5.5,0,0,0-.36,0s-.26.12-.17.16a2,2,0,0,1,.92,1.57,4.12,4.12,0,0,1,0,1.31,8.35,8.35,0,0,1-.34,1.56,2.82,2.82,0,0,1-.19.48,1.51,1.51,0,0,1-.1.17s0,0,0,0c.3,0,.42,0,.33-.08l0,0a.69.69,0,0,1-.1-.25,2,2,0,0,1,0-.35c0-.31.08-.61.12-.91a1.79,1.79,0,0,0-.05-.89.65.65,0,0,0-.68-.31c-.09,0-.32,0-.37.14s0,.1.13.09Z"/><path class="cls-1" d="M159.35,197.36s0,.14,0,.26c-.5,2.72-1,6.36-1.45,7.74-1.68,5.36-10.31,13.82-19.09,13.82s-17.41-8.46-19.09-13.82c-.2-.63-.42-1.46-.64-2.43a149.37,149.37,0,0,1-2.2-15h0c-.6-5.76-.72-12.54.32-15.22a15,15,0,0,1,5.19-6h0a27.92,27.92,0,0,1,16.42-5.23c11.3,0,18.64,6.57,20.45,11.25C160.84,176.88,160.78,189.47,159.35,197.36Z"/><path class="cls-5" d="M140.14,201.53a1.77,1.77,0,0,1-2.13,0c-.14-.1-.59.06-.39.2a2.48,2.48,0,0,0,2.9-.1c.08-.06.06-.14,0-.17a.37.37,0,0,0-.34.05"/><path class="cls-5" d="M137.3,201.27a4.56,4.56,0,0,0-1.66-.45.34.34,0,0,0-.25.09c0,.05-.06.11,0,.15a1.81,1.81,0,0,0,.91.23.32.32,0,0,0,.28-.12c.06-.09,0-.14-.11-.14a1.36,1.36,0,0,1-.74-.19l-.25.24a3.81,3.81,0,0,1,1.48.41.31.31,0,0,0,.31,0c.06,0,.12-.13,0-.18"/><path class="cls-5" d="M135.05,201.35a1.8,1.8,0,0,1-1.51-.89,1.94,1.94,0,0,1,.67-2.36c.08,0,0-.13,0-.15a.37.37,0,0,0-.3.08,2.21,2.21,0,0,0-.92,2,1.77,1.77,0,0,0,1.3,1.46,2.68,2.68,0,0,0,.63.11c.09,0,.24,0,.28-.12s0-.13-.11-.13"/><path class="cls-5" d="M140.89,201.37a4.33,4.33,0,0,1,1.66-.46.38.38,0,0,1,.25.09c0,.05.06.11,0,.15a1.63,1.63,0,0,1-.91.23.35.35,0,0,1-.29-.12c0-.09.05-.14.12-.14a1.28,1.28,0,0,0,.74-.19l.25.24a4.09,4.09,0,0,0-1.49.41.32.32,0,0,1-.3,0c-.06,0-.13-.14,0-.18"/><path class="cls-5" d="M143.14,201.44a1.77,1.77,0,0,0,1.51-.89,1.93,1.93,0,0,0-.68-2.35c-.07-.06,0-.14.05-.16a.37.37,0,0,1,.3.08,2.23,2.23,0,0,1,.92,2,1.75,1.75,0,0,1-1.3,1.46,2.78,2.78,0,0,1-.63.11.35.35,0,0,1-.29-.12c0-.09,0-.12.12-.13"/><path class="cls-11" d="M129,188.88a1.93,1.93,0,0,0-2.08.38,1.82,1.82,0,0,0-.56.87,1.9,1.9,0,0,0,.45,1.75,1.79,1.79,0,0,0,2.05.36,2,2,0,0,0,1-2.3,1.74,1.74,0,0,0-.83-1.06"/><path class="cls-11" d="M133.77,192s-2.58-3.83-5.33-3.83c-3.87,0-4.79,2.26-5.63,3.43,0,0,2.51-2.75,5.51-2.68C131,189,133.77,192,133.77,192Z"/><path class="cls-11" d="M149.14,188.88a1.9,1.9,0,0,1,2.08.37,1.82,1.82,0,0,1,.56.87,1.89,1.89,0,0,1-.45,1.75,1.77,1.77,0,0,1-2.05.36,2,2,0,0,1-1-2.29,1.69,1.69,0,0,1,.83-1.06"/><path class="cls-11" d="M144.38,192s2.58-3.83,5.33-3.83c3.88,0,4.79,2.25,5.63,3.42,0,0-2.51-2.75-5.51-2.68C147.12,189,144.38,192,144.38,192Z"/><path class="cls-7" d="M131.45,205.76c.26-.66,3.08.32,8.88-.07,4-.26,5.86-.94,6.18-.38s-1.82,2.6-4.39,3.37a10.1,10.1,0,0,1-3.8.33c-3.74-.34-7.16-2.49-6.87-3.25"/><path class="cls-8" d="M131.27,205.39c.25.37,0,.43.93.81a19.65,19.65,0,0,0,4.17.88,27.4,27.4,0,0,0,5.69-.23c2.84-.32,4.42-.77,4.7-1,.47-.39-.31-.6-.21-.9-1.22.19-3,.44-5.27.7-1.34.16-2.08.24-2.79.29a26.34,26.34,0,0,1-7.22-.55"/><path class="cls-9" d="M130.93,205.2a18.36,18.36,0,0,0,4.35-.22c1.74-.11,2.31-.35,4.17-.36.43,0,.77,0,1.07,0,1.18.07,2,.14,2.26.16a13.51,13.51,0,0,0,4.43.11s.06.62-1.52.9c-.86.15-10.14.28-12.49.29-2.06,0-2.27-.9-2.27-.9"/><path class="cls-9" d="M130.93,205.2c1.4,3.26,3.63,5.72,7,5.83a12.55,12.55,0,0,0,5.28-.64c2.9-1,3.85-4.9,4-5.48a8.86,8.86,0,0,1-4.63,3.63A10.15,10.15,0,0,1,138,209a10.74,10.74,0,0,1-3.48-1,9.63,9.63,0,0,1-3.58-2.75"/><path class="cls-11" d="M165.2,174.44h0c.75-3,1-4.82.24-6.88-.55-1.46-3-3-3-3s-.54-4.37-2.45-3.76c0,0-1.88-5.83-7.45-4.32a2.82,2.82,0,0,0-2.63.65s-2.63-5-7.41-1.52c0,0-1.86-1.23-2.48.29,0,0-3.22-3.15-6.38-.59,0,0-8.07-1.62-10,3.62,0,0-3.92-2-5.93,1.81,0,0-2,.17-2,3.08,0,0-3,.93-3.3,2.84a5.63,5.63,0,0,0-1.61,4.48c0,.87.32.64.59,1.82-1.66,3.48.89,3.89.89,3.89-2.58,3.23.69,7.23.69,7.23s-1.28,2.51-.57,4.11c1,2.18,5,4.57,5,4.57a55.07,55.07,0,0,0,.72-9.62c-.23-3.73,2.69-10.23,3.65-11.64s7.21,1.11,17.88,1.11,13.56-2,14.84-1.63c2.64.73,4.87,10.43,4.8,13.36a65.36,65.36,0,0,0,.8,8.47s5.67-2.52,4.14-7.44c0,0,1.14-5.69-.4-7h0S166.65,176.16,165.2,174.44Z"/><path class="cls-3" d="M133.79,183.61c0,.62,0,1.23,0,1.85,0,.47,0,.94,0,1.41-1.38-.4-2.57-.67-3.46-.84a15.4,15.4,0,0,0-5.41-.28,5.6,5.6,0,0,0-2.33.85c-.23.14-.84.79-1.18.62-.14-.07.09-.82.12-.9.47-1.53,1.68-2.16,3.16-2.51a24.17,24.17,0,0,1,9.13-.2"/><path class="cls-3" d="M144.06,183.61c0,.62,0,1.23,0,1.85,0,.47,0,.94,0,1.41,1.36-.4,2.52-.67,3.4-.84a14.94,14.94,0,0,1,5.33-.28,5.53,5.53,0,0,1,2.29.85c.22.14.83.79,1.16.62.14-.07-.09-.82-.12-.9a3.73,3.73,0,0,0-3.11-2.51,23.39,23.39,0,0,0-9-.2"/><path class="cls-1" d="M77.75,230.45l5,24.84,9.76-12,13.78,9.59s-17.6,27.76-23.94,28.24-12.53.67-14.33-9.67-.23-36.16-.23-36.16Z"/><path class="cls-2" d="M81.25,268.28a27.88,27.88,0,0,1,1.61-12.89c.18,0-.54,2.87-1,6.43S81.43,268.28,81.25,268.28Z"/><path class="cls-1" d="M180.77,265.07s3.84,23.61,3.56,33-3.47,29.31-3.47,29.31l-8.51-1.69-7.11-64.14Z"/><path class="cls-12" d="M105.7,243,100,327.39s19.14,7.33,41.13,4,31.67-5.86,31.67-5.86-2.39-45.27-2.16-58.69,3.69-35.3,3.69-35.3l-20.37-7s-6,8.32-14.77,7c-5.1-.68-11.22-4.88-13.56-9.46l-16.42,2.08Z"/><path class="cls-12" d="M109.22,224.2s-4.84,1.07-9.92,7.43c-2.61,3.28-13.13,15.07-13.13,15.07s15.48,17.6,15.48,17.13,8-13.31,8-13.31Z"/><path class="cls-12" d="M174.34,231.58a11.12,11.12,0,0,1,7,8c.67,3,4,27,4,27l-17.31,1.8V242.17Z"/><path class="cls-13" d="M170.93,273.28l-2.24-31.41"/><path class="cls-10" d="M168.69,241.87c.16,0,.81,7,1.42,15.69s1,15.71.82,15.72-.8-7-1.42-15.69S168.53,241.88,168.69,241.87Z"/><path class="cls-10" d="M105.7,237.41c.16,0,0,5.63-.34,12.55s-.77,12.52-.93,12.52,0-5.62.34-12.55S105.52,237.4,105.7,237.41Z"/><path class="cls-1" d="M67.9,238.52A10.48,10.48,0,0,0,66.06,231c-1.67-1.94-7.62-13.33-8.61-15.07s-.77-2.84,0-2.82c1.27,0,4.09,5.34,4.73,5.12s-3.47-7.29-3.5-9.31c0-1,.46-1.15,1-1.07a1.73,1.73,0,0,1,1.27,1,31.19,31.19,0,0,0,1.83,3.45c1.77,3,2.76,4.47,2.89,4.38s-.49-1.9-2.28-4.9c-1-1.85-.48-2.16-1.26-3.92l-.06-.15c-.89-1.87,0-3.35,1.33-1.95,1.93,2,5.28,9.49,5.18,9.37s-.8-2.87-1.32-4.91-2.79-6.92-.09-6.3c1.29.3,1.91,2.64,3.05,4.93l5.09,10.06a31.37,31.37,0,0,1,.28-4.84c.45-2.91,2.38-2.87,2.38-2.87s1.8,12.27,1.67,14.76a8.13,8.13,0,0,1-1.82,4.54l.42,7.08"/><path class="cls-14" d="M73,220a6,6,0,0,0-1.8.51,6.38,6.38,0,0,0-2.94,2.59,7.79,7.79,0,0,0-.94,3c0,.22.54.12.57-.07a6.76,6.76,0,0,1,2-4.32,5.82,5.82,0,0,1,2.5-1.32l.36-.07.15,0c.28,0,.48-.34.08-.31Z"/><path class="cls-14" d="M77.38,230.15a3.46,3.46,0,0,1-2.69,1.9,7.07,7.07,0,0,1-2.34,0c-.26,0-.58.33-.2.39,2,.32,4.41,0,5.58-1.85a1.33,1.33,0,0,0,.19-.35c.12-.3-.45-.28-.54-.06Z"/><path class="cls-15" d="M112.9,444.68s10,4.24,16.43-.64l-2,15.91H114.73Z"/><path class="cls-15" d="M144.44,444.66s10.53,4.25,17-.63L159,460h-14Z"/><path class="cls-16" d="M145.49,460.24a29.3,29.3,0,0,0-1.51,9.37c.19,4.46-1.27,2.81-1.21,7.35,0,0,2.15,3.12,10.41,2.87s8.8-2.37,8.8-2.37-.5-5.1-.74-6.43a30.62,30.62,0,0,0-2-7.78,18.19,18.19,0,0,0-1.82-3.54A31.19,31.19,0,0,0,145.49,460.24Z"/><path class="cls-17" d="M162,478.08l-.05,3.39s-1.84,2.07-9.64,2-10-2.9-10-2.9l0-3.72a11,11,0,0,1,9.22-4C157.73,473.13,161.23,475.74,162,478.08Z"/><path class="cls-18" d="M142.32,476.9a13.23,13.23,0,0,0,10,3.34c6.55-.34,9.64-2.12,9.64-2.12s-2.79,2.94-9.85,2.66S143.26,478.53,142.32,476.9Z"/><path class="cls-19" d="M155.66,463a21,21,0,0,0,0,4.95c.35,2.14,4,7.17,4,7.17s-3.47-6.09-3.8-8.58A17.73,17.73,0,0,1,155.66,463Z"/><path class="cls-19" d="M149.35,462.2a21,21,0,0,1,0,4.95c-.36,2.14-4,7.17-4,7.17s3.47-6.08,3.8-8.57A18.91,18.91,0,0,0,149.35,462.2Z"/><path class="cls-20" d="M156.59,466.44s-7.91-.53-8.4,0,.25.42,1.67.57,7.42.08,7.42.08S158,466.76,156.59,466.44Z"/><path class="cls-20" d="M156.34,464.77s-7.92-.54-8.41,0,.26.42,1.67.58,7.43.07,7.43.07S157.77,465.09,156.34,464.77Z"/><path class="cls-20" d="M156.16,463.09s-7.91-.53-8.4,0,.25.42,1.67.57,7.42.08,7.42.08S157.59,463.41,156.16,463.09Z"/><path class="cls-20" d="M156.16,461.28s-7.91-.54-8.4,0,.25.42,1.67.57,7.42.08,7.42.08S157.59,461.6,156.16,461.28Z"/><path class="cls-16" d="M127.17,460.24a29.61,29.61,0,0,1,1.51,9.37c-.19,4.46,1.27,2.81,1.2,7.35,0,0-2.14,3.12-10.4,2.87s-8.81-2.37-8.81-2.37.51-5.1.75-6.43a29.78,29.78,0,0,1,2-7.78,18.91,18.91,0,0,1,1.81-3.54A68.45,68.45,0,0,1,127.17,460.24Z"/><path class="cls-17" d="M110.68,478.08l0,3.39s1.85,2.07,9.65,2,10-2.9,10-2.9l-.06-3.72a11,11,0,0,0-9.21-4C114.93,473.13,111.42,475.74,110.68,478.08Z"/><path class="cls-18" d="M130.33,476.9s-3.45,3.68-10,3.34-9.65-2.12-9.65-2.12,2.8,2.94,9.86,2.66S129.4,478.53,130.33,476.9Z"/><path class="cls-19" d="M117,463a21,21,0,0,1,0,4.95c-.36,2.14-4,7.17-4,7.17s3.47-6.09,3.8-8.58A18.82,18.82,0,0,0,117,463Z"/><path class="cls-19" d="M123.31,462.2a21,21,0,0,0,0,4.95c.35,2.14,4,7.17,4,7.17s-3.47-6.08-3.8-8.57A17.81,17.81,0,0,1,123.31,462.2Z"/><path class="cls-20" d="M116.07,466.44s7.91-.53,8.4,0-.26.42-1.67.57-7.43.08-7.43.08S114.63,466.76,116.07,466.44Z"/><path class="cls-20" d="M116.32,464.77s7.91-.54,8.4,0-.25.42-1.67.58-7.42.07-7.42.07S114.89,465.09,116.32,464.77Z"/><path class="cls-20" d="M116.5,463.09s7.91-.53,8.4,0-.26.42-1.67.57-7.43.08-7.43.08S115.06,463.41,116.5,463.09Z"/><path class="cls-20" d="M116.44,461.28s7.92-.54,8.41,0-.26.42-1.67.57-7.43.08-7.43.08S115,461.6,116.44,461.28Z"/><path class="cls-1" d="M226.55,346.93h7a34.93,34.93,0,0,1,.45,5.59c0,3,.64,8.8.76,11.1.14,2.6-.62,3-2.08,2.67s-2.8-7-2.8-7l.72,6.42,2,1.29s2.75,1.83,3.13,3.39c0,.05,0,.11.05.16a1.39,1.39,0,0,1-1,1.68c.36,1.46.09,1.75-1.47,1.83s-7.5-5-7.71-7.15,1-16.23,1-16.23Z"/><path class="cls-1" d="M234.27,358.11c.38,5.76,3.23,61,6.41,76.9,3.14,15.68,5.81,30.47,5.81,30.47l10.4,1.25,2.2-38.08,4.08-60.78.43-.21a1.72,1.72,0,0,1,2.51,1.61L271,450.06l1.79,16.05,10.36-.63s11.6-108.9,12.2-110.42l-5.51-20.17-25.28,4.32-27.22-4.91S233.88,352.34,234.27,358.11Z"/><path class="cls-21" d="M299.2,419s-2.33-32.82-1.58-49.43-5.5-34-5.5-34H235.76c-7.39,27.58-5.09,84.55-5.09,84.55s19.34.83,34.11.91S299.2,419,299.2,419Z"/><path class="cls-1" d="M323.33,272s1.34,22.07-.2,30.91-6.83,8.67-12.25,8.26S290.43,287,290.43,287l11.77-8.2,8.34,10.25,4.3-21.24Z"/><path class="cls-2" d="M311.3,294.65c-.37-3-1-5.49-.83-5.49a23.77,23.77,0,0,1,1.38,11C311.7,300.18,311.68,297.69,311.3,294.65Z"/><path class="cls-21" d="M287.94,262.55l-13-1.65c-2,3.91-2.8,10-12.24,10.56-7.52,1.12-14.26-8.17-14.26-8.17L231.91,270s2.16,16.09,3.54,29c.55,5.08,2.64,15.08,2.22,25.17l-2.56,13.75s5.95,3.77,24.75,6.58a50.68,50.68,0,0,0,33-6.65l-3.42-13.68,2.16-45.39Z"/><path class="cls-21" d="M287.6,285a56.73,56.73,0,0,0,3.81,8.38c.2.35,16.23-11.63,16.23-11.63s-9-10.08-11.22-12.88c-4.33-5.44-8.48-6.35-8.48-6.35Z"/><path class="cls-21" d="M238.53,278.47v15.37l-14.79-1.54s2.88-13.51,3.46-16.06a9.49,9.49,0,0,1,6-6.82Z"/><path class="cls-22" d="M234.6,291c.76,7.39,1.26,13.4,1.12,13.41s-.86-6-1.63-13.36-1.27-13.39-1.13-13.41S233.84,283.6,234.6,291Z"/><path class="cls-22" d="M291.75,284.52c-.32,5.92-.68,10.71-.82,10.7s0-4.81.31-10.72.68-10.72.82-10.7A102.91,102.91,0,0,1,291.75,284.52Z"/><path class="cls-1" d="M323.26,274.74a9,9,0,0,1,1.57-6.44c1.42-1.66,6.51-11.39,7.36-12.88s.65-2.43,0-2.41c-1.1,0-3.5,4.56-4.05,4.37s3-6.22,3-7.95c0-.83-.39-1-.82-.92a1.51,1.51,0,0,0-1.08.84,30.17,30.17,0,0,1-1.57,3c-1.51,2.55-2.36,3.81-2.47,3.73s.42-1.62,1.95-4.18c.86-1.58.41-1.84,1.08-3.35l.05-.13c.76-1.6,0-2.86-1.13-1.66-1.66,1.74-4.52,8.1-4.43,8s.68-2.45,1.12-4.19,2.39-5.92.08-5.39c-1.11.25-1.63,2.26-2.61,4.21l-4.35,8.6a26.13,26.13,0,0,0-.23-4.14c-.39-2.48-2-2.45-2-2.45s-1.53,10.49-1.43,12.62a6.87,6.87,0,0,0,1.56,3.87l-.36,6.06"/><path class="cls-14" d="M318.88,259.14h.06l.3.06a5.55,5.55,0,0,1,.95.31,5.11,5.11,0,0,1,2.36,2.12,6.56,6.56,0,0,1,.76,2.49c0,.16.51.05.49-.13a6,6,0,0,0-1.83-3.82,5.49,5.49,0,0,0-2.33-1.21,5.67,5.67,0,0,0-.57-.1c-.18,0-.52.25-.19.27Z"/><path class="cls-14" d="M314.68,267.68a3.44,3.44,0,0,0,2.68,1.87,6.74,6.74,0,0,0,2.15,0c.1,0,.26-.07.27-.19s-.12-.17-.22-.15c-1.53.24-3.37.05-4.26-1.39a.86.86,0,0,1-.13-.25c-.08-.21-.57-.07-.49.13Z"/><path class="cls-23" d="M284.11,458.13s-6.58,3.56-12.39-.45l.61,6.85h11Z"/><path class="cls-23" d="M257.77,458.1s-7,3.55-12.88-.46l1.74,8.14,10.31-1.25Z"/><path class="cls-24" d="M257.06,464.76a24.21,24.21,0,0,1,1.25,7.71c-.16,3.68,1,2.32,1,6,0,0-1.77,2.57-8.56,2.36s-7.25-1.95-7.25-1.95.42-4.19.61-5.29a25.28,25.28,0,0,1,1.61-6.4c1.13-2.51.76-2.24.76-2.24A23.17,23.17,0,0,1,257.06,464.76Z"/><path class="cls-17" d="M243.5,479.44l0,2.8s1.52,1.69,7.94,1.66,8.24-2.39,8.24-2.39l-.05-3.07a9,9,0,0,0-7.58-3.28C247,475.37,244.11,477.52,243.5,479.44Z"/><path class="cls-18" d="M259.67,478.47a10.85,10.85,0,0,1-8.23,2.75c-5.39-.28-7.94-1.74-7.94-1.74s2.3,2.42,8.11,2.18S258.9,479.82,259.67,478.47Z"/><path class="cls-25" d="M247.61,466.5a19.55,19.55,0,0,1,0,4.64c-.33,2-3.79,6.72-3.79,6.72s3.25-5.7,3.56-8A17,17,0,0,0,247.61,466.5Z"/><path class="cls-25" d="M253.89,466.38a17.1,17.1,0,0,0,0,4.07c.29,1.76,3.33,5.9,3.33,5.9s-2.86-5-3.14-7.06A15,15,0,0,1,253.89,466.38Z"/><path class="cls-20" d="M247.93,469.87s6.51-.45,6.91,0-.21.35-1.37.47-6.11.06-6.11.06S246.75,470.13,247.93,469.87Z"/><path class="cls-20" d="M248.14,468.49s6.51-.44,6.91,0-.21.35-1.37.47-6.11.06-6.11.06S247,468.75,248.14,468.49Z"/><path class="cls-20" d="M248.28,467.11s6.52-.44,6.92,0-.21.35-1.38.47-6.11.07-6.11.07S247.1,467.37,248.28,467.11Z"/><path class="cls-20" d="M248.28,465.62s6.52-.44,6.92,0-.21.35-1.38.47-6.11.07-6.11.07S247.1,465.88,248.28,465.62Z"/><path class="cls-24" d="M272.49,464.76a24.34,24.34,0,0,0-1.24,7.71c.16,3.68-1,2.32-1,6,0,0,1.77,2.57,8.56,2.36s7.25-1.95,7.25-1.95-.42-4.19-.61-5.29a25.28,25.28,0,0,0-1.61-6.4,15.59,15.59,0,0,0-1.49-2.91A55.55,55.55,0,0,0,272.49,464.76Z"/><path class="cls-17" d="M286.06,479.44l0,2.8s-1.52,1.69-7.94,1.66-8.24-2.39-8.24-2.39l.05-3.07a9,9,0,0,1,7.58-3.28C282.56,475.37,285.45,477.52,286.06,479.44Z"/><path class="cls-18" d="M269.89,478.47a10.85,10.85,0,0,0,8.23,2.75c5.39-.28,7.94-1.74,7.94-1.74s-2.3,2.42-8.11,2.18S270.66,479.82,269.89,478.47Z"/><path class="cls-25" d="M280.86,467a17.2,17.2,0,0,0,0,4.08c.29,1.76,3.33,5.9,3.33,5.9s-2.86-5-3.13-7.06A14.81,14.81,0,0,1,280.86,467Z"/><path class="cls-25" d="M276,466.38a17.1,17.1,0,0,1,0,4.07c-.29,1.76-3.32,5.9-3.32,5.9s2.85-5,3.13-7.06A15,15,0,0,0,276,466.38Z"/><path class="cls-20" d="M281.63,469.87s-6.51-.45-6.91,0,.21.35,1.37.47,6.11.06,6.11.06S282.81,470.13,281.63,469.87Z"/><path class="cls-20" d="M281.42,468.49s-6.51-.44-6.91,0,.21.35,1.37.47S282,469,282,469,282.6,468.75,281.42,468.49Z"/><path class="cls-20" d="M281.28,467.11s-6.52-.44-6.92,0,.21.35,1.38.47,6.11.07,6.11.07S282.45,467.37,281.28,467.11Z"/><path class="cls-20" d="M281.32,465.62s-6.51-.44-6.92,0,.21.35,1.38.47,6.11.07,6.11.07S282.5,465.88,281.32,465.62Z"/></g></svg>