<svg id="Layer_1" data-name="Layer 1" xmlns="http://www.w3.org/2000/svg" xmlns:xlink="http://www.w3.org/1999/xlink" viewBox="0 0 1221.96 991.43"><defs><style>.cls-1,.cls-12,.cls-21{fill:none;}.cls-2{clip-path:url(#clip-path);}.cls-3{fill:#f2ebd1;}.cls-4{fill:#6e8c53;}.cls-5{fill:#374923;stroke:#374923;}.cls-12,.cls-16,.cls-18,.cls-20,.cls-21,.cls-5{stroke-miterlimit:10;}.cls-16,.cls-18,.cls-20,.cls-5{stroke-width:1.18px;}.cls-6{fill:#956243;}.cls-7{fill:#653c2a;}.cls-8{fill:#a56530;}.cls-9{fill:#8c542a;}.cls-10{fill:#151210;}.cls-11{fill:#010101;}.cls-12{stroke:#010101;stroke-width:1.17px;}.cls-13{fill:#513835;}.cls-14{fill:#745245;}.cls-15{fill:#273339;}.cls-16{fill:#465b65;stroke:#465b65;}.cls-17{fill:#abaeaf;}.cls-18{fill:#666766;stroke:#666766;}.cls-19{fill:#3a3a3a;}.cls-20{fill:#1d1e1e;stroke:#1d1e1e;}.cls-21{stroke:#132b3a;stroke-width:0.99px;}.cls-22{fill:#4163ae;}.cls-23{fill:#825639;}.cls-24{fill:#231f20;}.cls-25{fill:#161312;}.cls-26{fill:#171514;}.cls-27{fill:#181615;}.cls-28{fill:#191716;}.cls-29{fill:#040404;}.cls-30,.cls-32{fill:#fff;}.cls-30{opacity:0.14;}.cls-31{fill:#31160e;}.cls-33{fill:#653c29;}</style><clipPath id="clip-path"><rect class="cls-1" width="1221.96" height="990.43"/></clipPath></defs><g class="cls-2"><polyline class="cls-3" points="1344.11 1172.43 1344.11 -0.99 -102.15 -0.99 -102.15 1172.43"/><path class="cls-4" d="M305.57,478.86c-1.18-16.46-1.7-33-1.67-49.5.06-35.08-7.91-70.85-5.39-105.82L318.36,332c10.29,5.48,20,15.94,27.37,33l35.37,93.49,35-57c5.81-12.94,18.82-16.12,30.83-8.56l8.65,5.45c15.55,9.78,11.11,31.72,2.6,48C438.44,484.09,418.3,561,360.82,556.82c-25.5-1.86-44.17-61.11-53-84.92Z"/><path class="cls-5" d="M381.63,456.78a34.54,34.54,0,0,0-15,20.62"/><path class="cls-6" d="M439.21,407.86a14.44,14.44,0,0,1-7.52-6.52,14.08,14.08,0,0,1-.89-9.27l6-8.15s3.5-14.38,6.14-18.7,17.42-18,18.31-18.4,9.65-24,14.37-23.61,8.14,3.52,7.25,9.83-10.44,19.44-7.45,21.31a21.34,21.34,0,0,0,7.72,2.33s.81-7.25,4.58-9.82,8.51,1,8.51,1l.32,3.09,3.65-3.81s3.15-14.66,9.33-15a25.1,25.1,0,0,1,5.57-8.6,5.34,5.34,0,0,1,7.54.56,5.87,5.87,0,0,1,.83,1.3l-9,33.33-28.36,35.64s-14,6.43-17.49,8.35c-1.1.6-4.37,5.36-8.42,11.64a69.36,69.36,0,0,1-9.51-1.58,45,45,0,0,1-10.66-4A1.45,1.45,0,0,0,439.21,407.86Z"/><path class="cls-7" d="M465.1,351.34c-2.44-.41-4.45-.51-4.53-.95s2.09-1.07,4.77-.62,4.54,1.72,4.35,2.08S467.54,351.74,465.1,351.34Z"/><path class="cls-7" d="M512.31,352c.66-4.4,1.47-10.59,2.33-17.73l.08-.65-.6-.23a32.24,32.24,0,0,0-3.78-1.49,6.07,6.07,0,0,0-4.53.83,11,11,0,0,0-4.17,5.7,33.39,33.39,0,0,0-1.63,6.13c-.57,4-.8,7.48-1,10.46-.34,6-.34,9.69-.11,9.67a61.55,61.55,0,0,0,1.37-9.55c.35-2.89.7-6.49,1.33-10.32a34.1,34.1,0,0,1,1.65-5.76,9.5,9.5,0,0,1,3.48-4.81,4.21,4.21,0,0,1,3.22-.63c1,.25,2.34.93,3.45,1.36l-.51-.89c-.77,7.14-1.36,13.34-1.72,17.78a33.27,33.27,0,0,0-.25,7.12A32.66,32.66,0,0,0,512.31,352Z"/><path class="cls-7" d="M474.64,384.45a55,55,0,0,1,7.6-11.54l.11-.13v-.17a33.51,33.51,0,0,0,.84-5.46c.1-2,.08-3.84.28-5.85a53.63,53.63,0,0,1,.89-6.06,13.32,13.32,0,0,1,2.28-5.67,5.59,5.59,0,0,1,4.38-2.33,9.32,9.32,0,0,1,4.85,1.3l-.4-.76c-.43,9.19-.74,17.16-.89,22.82a15.88,15.88,0,0,1-1.09,6.4,11.66,11.66,0,0,0-.79,2.26c.1.14.63-.52,1.33-1.92a14.71,14.71,0,0,0,1.63-6.53c.46-5.66,1-13.63,1.53-22.87l0-.49-.42-.25a10.73,10.73,0,0,0-5.83-1.63,7.33,7.33,0,0,0-5.71,3c-5.14,8.45-2.63,17.37-4.35,23.76l.17-.3a48.54,48.54,0,0,0-7.27,12.21,19.55,19.55,0,0,0-1.06,3.75,8.81,8.81,0,0,0-.05,1.41C472.83,389.45,473.07,387.52,474.64,384.45Z"/><path class="cls-7" d="M436.82,383.92s3.69,7.24,14.64,8.91C451.46,392.83,437.47,394.69,436.82,383.92Z"/><path class="cls-8" d="M209.17,786.35q60.68,0,121.35,0c17.39,0,20.62,8.06,20.6,24.57,0,15.17-3.49,24.08-21.09,24.12-4,0-8,.43-11.88-.08-11.65-1.54-14,2.67-12.46,11.48,14.9,85.95,29.43,166,44.3,252,1,5.85.09,8.17-8,8.26-20.08.25-20.49.64-23.28-15.46Q304.52,1009,291,926.65c-1.21-7.46-4.31-9.71-13.36-9.64q-69,.56-138,0c-8.83-.08-11.4,2.56-12.5,9.31-9.43,57.81-19.31,115.58-28.82,173.39-.88,5.38-3.57,7-10,7.08-20.7.31-21.26.46-18.6-15.75,9.64-58.78,19.66-117.51,29.6-176.26,4.23-25,8.45-44,13.06-69,1.42-7.7-.25-12.06-11-10.59-2.32.32-4.76-.09-7.13.07-31,2.14-28.49-19.54-26.69-39.59.7-7.79,8.93-9.62,17.88-9.57,41.24.19,82.48,5,123.72,5Zm-1,111c23,0,45.94-.18,68.91.1,7,.09,10.17-1.18,9-7.67-3.7-20.06-7.07-26.2-10.26-46.32-1-6.1-3.54-8.68-11.88-8.58-36.42.46-72.87.52-109.3,0-9-.13-11.53,2.7-12.54,9.15-3.06,19.48-6.32,25-9.94,44.38-1.25,6.72.58,9.32,9.5,9.12C163.83,897,186,897.32,208.2,897.32Z"/><path class="cls-9" d="M99.47,914.87q-2.3,13.59-4.61,27.19c9.64,1.86,19.22,4,28.77,6.3q1.82-11,3.62-22c1.1-6.75,3.67-9.38,12.5-9.31q69,.57,138,0c9.05-.07,12.15,2.19,13.36,9.65,1.15,7.1,2.33,14.2,3.49,21.31a265.66,265.66,0,0,0,27-11.24c-5.26-29.7-10.52-59.61-15.84-90.27a16.78,16.78,0,0,1,0-7.14q-9.44.61-18.88,1c-3.87.14-7.73.26-11.6.34a18.13,18.13,0,0,1,.67,2.81c3.19,20.12,6.55,26.26,10.26,46.32,1.19,6.5-1.95,7.76-9,7.67-23-.27-45.94-.1-68.91-.1-22.18,0-44.37-.32-66.53.16-8.92.19-10.75-2.4-9.5-9.12,3.62-19.41,6.88-24.91,9.93-44.38a12.26,12.26,0,0,1,2.27-6c-10.93-.33-21.85-.59-32.78-.72,1.49,1.88,1.54,4.83.85,8.6C107.92,870.83,103.7,889.89,99.47,914.87Z"/><path class="cls-9" d="M67.2,799.79s131.74,23.7,188.54,16.52,95.09-13.3,92.79-21.9S306,767.34,265.54,766s-151.46,8.66-151.46,8.66-37.25,6.13-41.16,11.44S67.2,799.79,67.2,799.79Z"/><path class="cls-6" d="M190.37,239.46s1,43.1-6.28,58.15c-1.78,3.66-27.06,19.84-27.06,19.84L221.34,354l66.44-14.71s-23.45-25.94-24.29-30.66,3.21-36.3,3.21-36.3"/><path class="cls-7" d="M284.29,273.08c-3.27,4.05-6.33,8.29-9.78,12.19a.54.54,0,0,0-.1.18.57.57,0,0,0-.85,0c-2.41,2.62-6.69,3.74-8.86,6.57-1.88,2.44-1.16,6-1.61,9.13-2.27.15-5.38-.3-8.22-.38-19.09-2.05-19.24-4.5-43.27-22.35-7.63-5.67-5.47-11.64-6.92-12.94C231,267.19,256.88,270.59,284.29,273.08Z"/><path class="cls-10" d="M172.68,199.31s-2.62-12.08-4.5-40.54c-1.68-25.48,39.77-42.62,64-44.17,13.3-.85,56.66,8.71,67.5,15.1S315,152,314.33,174.14c0,0-4.93-22.51-18.92-23.27-11.42-.63-47.58-9.67-57.57-6.46s-32,9.89-36.05,44.33c-1.12,9.39-16.92-2.06-22,3.19S172.68,199.31,172.68,199.31Z"/><path class="cls-6" d="M187.93,241.42l-.63-34.28L189.15,169,206.7,141.6,234.94,131l30.59,3.83s24,8.38,31.57,11.16,12.13,12.76,16.41,23.84.36,28.47.36,28.47c.16.62-.76,3.25-.93,3.79-2.2,6.93-3.26,13.06-5,18.21a13.13,13.13,0,0,0-.5,7.19c2.1,9.49,1.69,13.43.41,19-1.73,7.6-3.77,14-7.17,19.8-3.6,6.13-8,12.71-8.93,14,0,0-9.79,13.58-11.75,14.82a15.49,15.49,0,0,1-6.12,2.31c-1.3,0-18.28-.49-18.28-.49l-7.82-.93a20,20,0,0,1-7.56-2.47c-6.32-3.57-24.32-14.16-29.13-18.26-6.47-5.52-12.81-26.53-12.81-26.53"/><path class="cls-10" d="M198.48,209.37c-.14,2.95-1.35,14.59-1.31,17.48L182,225.05c-3.57-10.5-7.89-22.87-9.36-25.74-2.29-4.47-.69-24.93-.09-32.63l.12-1.66c.56-7.39,8.77-18.39,22-29.44,14.52-12.16,38.66-17.49,61.5-13.58,2.17.37,4.33.83,6.41,1.35,19.69,4.93,35.3,16.55,46.39,34.54,8,13,7.25,26.8,5.65,35.12a74.73,74.73,0,0,0-3.77-29.39c-4.39-11.82-11.08-15.74-15.92-17a16.71,16.71,0,0,0-8.22,0c-5,.61-12-.77-17.06-2-3.76-.94-6.73-1.9-7.54-2.17-2.4-2-6.13-3.74-10.8-4.91-10.86-2.72-27-2.36-30.8,2.16-4.19,5-14.32,23.36-14.82,27.82"/><path class="cls-6" d="M189.3,242.32c-9.84,8.1-13.83-9.88-13.83-9.88-7.38-11.24-6.14-22.18-5-29.62s9.38-6.41,9.38-6.41c6.9,1.56,9.6,5.66,12.77,29.9"/><path class="cls-10" d="M309.42,155.17c-4.21-8.75-13-20.1-17.79-28.54-2.67-.55-15.93-2.3-18.72-2.72-28.34-4.25-68.34,8-73.13,17.93-3,6.21-5.28,41.56-4.39,44.89,2.44,9.15,2.54,20.79,2.54,20.79,2.61-13.07,13.64-26.75,15.32-31.14s-2-26.52-.47-27.27,28.42-5.88,57.41-2.26a217.52,217.52,0,0,1,24.55,4.59C294.7,151.35,309.47,155.27,309.42,155.17Z"/><path class="cls-10" d="M248.85,203.52a4.59,4.59,0,0,0-5,.3,4.47,4.47,0,0,0-1.56,1.9,4.54,4.54,0,0,0,.58,4.25,4.23,4.23,0,0,0,4.72,1.42,4.69,4.69,0,0,0,2.93-5.14,4.12,4.12,0,0,0-1.65-2.73"/><path class="cls-10" d="M298.05,210.62a4.59,4.59,0,0,1,4.8,1.47,4.45,4.45,0,0,1,1.08,2.21,4.58,4.58,0,0,1-1.56,4,4.23,4.23,0,0,1-4.93.27,4.67,4.67,0,0,1-1.65-5.67,4.18,4.18,0,0,1,2.26-2.27"/><path class="cls-10" d="M282.92,215.83s7.83-6.16,13-6c7.55.2,9.27,2.12,11.5,5.86,0,0-4.46-4.17-9.79-4.16C292.55,211.51,282.92,215.83,282.92,215.83Z"/><path class="cls-10" d="M259.61,210.77s-9.81-7.69-15-8.34c-7.5-1-16.9,2.56-19.69,5.91,0,0,12.47-5.32,17.73-4.5C247.73,204.62,259.61,210.77,259.61,210.77Z"/><path class="cls-10" d="M260.1,180.46c.27,1.78.53,3.56.8,5.34.21,1.36.77,4.44,1,5.8-4.51-.48-8.68-1.59-11.55-1.64-5.7-.12-11.6-.62-17.08,1.11a19.31,19.31,0,0,0-6.91,3.59c-.64.54-2.27,2.71-3.4,2.39-.46-.13-.09-2.42-.05-2.66.78-4.63,4.28-7,8.76-8.81,9.12-3.6,18.66-4.84,28.46-5.12"/><path class="cls-10" d="M313.49,200.34l-2.12-2.24c-5.88-6.25-13.08-10.5-20.88-14l-2.87,4.57c-.72,1.17-2.11,3.22-2.83,4.39,3.84,1,7.36,1.63,9.7,2.52,4.66,1.77,9.59,3.57,13.31,6.94.29.27,1.86,1.74,2.13,2C312.58,203.3,313.87,201,313.49,200.34Z"/><path class="cls-11" d="M275.38,244.66a8.33,8.33,0,0,1-7.69-1.42c-.45-.37-2.12-.26-1.49.26a11.8,11.8,0,0,0,10.49,1.76c.3-.12.28-.35-.06-.51a1.88,1.88,0,0,0-1.25-.09"/><path class="cls-11" d="M265.33,242.74a13.58,13.58,0,0,0-4.64-1.79,1.12,1.12,0,0,0-.76.15c-.15.11-.2.28,0,.41a5.16,5.16,0,0,0,2.55.93,1,1,0,0,0,.85-.23c.17-.21-.08-.39-.3-.41a4.2,4.2,0,0,1-2.06-.76l-.8.56a11.88,11.88,0,0,1,4.14,1.61,1,1,0,0,0,.89,0c.19-.08.4-.31.16-.47"/><path class="cls-11" d="M258.75,242.17c-1.92-.28-4.09-1.41-4.86-3-1.17-2.41.59-5.78,3.17-6.93.28-.13.16-.34-.1-.43a1.51,1.51,0,0,0-1,.09,6.94,6.94,0,0,0-3.89,5.88c.06,2,1.74,3.6,4,4.44a10.75,10.75,0,0,0,2.11.56c.29,0,.83,0,1-.2s-.09-.36-.36-.4"/><path class="cls-11" d="M279,244.08a.26.26,0,0,1,.29-.34,2.21,2.21,0,0,0,1.56-.33l.43.71a6.62,6.62,0,0,0-3.15.74.54.54,0,0,1-.61-.17c-.11-.12-.21-.39,0-.49"/><path class="cls-11" d="M277.54,244.2a7.43,7.43,0,0,1,3.53-.82.63.63,0,0,1,.49.3.28.28,0,0,1-.06.4"/><path class="cls-11" d="M283,244.83a4,4,0,0,0,3.64-2,6,6,0,0,0-.75-6.52.24.24,0,0,1,.14-.41.76.76,0,0,1,.64.3,6.64,6.64,0,0,1,1.41,5.63,4.56,4.56,0,0,1-3.36,3.57,5,5,0,0,1-1.43.14.7.7,0,0,1-.59-.4c-.06-.24.12-.33.3-.31"/><path class="cls-12" d="M185.89,219.42c-5.26-15.74-9.84-16.21-9.84-16.21s-3.37,3.28-2.4,10.46"/><path class="cls-12" d="M183.41,220.61c-4.09-.74-1.54,7.21-2.82,8.93s-2.41-3.21-2.45-9c0,0,.62-7.84,4.63-9"/><path class="cls-6" d="M251.9,305H173.62l-5.48,21.26s20.33,16.56,22.41,17.32,49.73,9.38,49.73,9.38,52.75-19.32,52-19.17S251.9,305,251.9,305Z"/><g id="freepik--Character--inject-2"><path class="cls-4" d="M323.13,375,316,330.44a108.53,108.53,0,0,0-28-11.57c-9.64-2.47-13-4.44-18.76-5.87,1.85,7,.34,13.38-4.59,17.41A43.92,43.92,0,0,1,239.71,340c-8.8.57-17.8-.93-26.23-3.33-15.78-4.5-34.63-20.38-39.13-36l-13.12,2.56s-51.51,21.49-58.89,24.67,22,188.24,22,188.24l-19.8,68.08c-1.3,7.56-27.32,66.22-5.22,106.47,0,0,166.11-34.1,183.65-35,20.37-1.1,30.84-4.17,35.49-13.49,1.69-3.38,9.47-18.5,0-76.05-4.58-27.94,2.09-59.35,3.09-89.62C323.36,422.66,323.13,375,323.13,375Z"/><path class="cls-5" d="M319.68,500.44c.34,0,.37-5,.71-5,1.79-23.78,4.71-50.91,6.13-72.36.49-7.81.89-14.16,1.06-18.51a60,60,0,0,0,.17-6.83,50,50,0,0,0-.92,6.78c-.25,4.73-.85,10.83-1.61,18.5-.61,7.28-4.79,68.56-5.59,78C319.83,501,319.48,500.41,319.68,500.44Z"/></g><path class="cls-13" d="M237.83,448.05a.41.41,0,0,1,.19,0c0,.23.15.46,0,.68Z"/><path class="cls-13" d="M252.89,513.69a.42.42,0,0,1-.16.09l-.1-.44Z"/><path class="cls-14" d="M291.35,436h-.25l.23-.14A.12.12,0,0,1,291.35,436Z"/><path class="cls-14" d="M257,443.73l.21-.18.08.12Z"/><path class="cls-14" d="M290.61,436.13l-.32.07A.22.22,0,0,1,290.61,436.13Z"/><path class="cls-14" d="M238.59,447.9a.17.17,0,0,1,.27-.06Z"/><path class="cls-15" d="M500.09,723.63c-12.64,64.4-31.57,220.76-50.23,299.14,0,0-83.44,15.1-91.42-2.8,0,0,4.55-158.11-19.27-255-21-85.3-72.37-110.34-50.94-116.68,33.72-10,164.24-24.86,183.84-11.83C495.6,652.12,510,672.91,500.09,723.63Z"/><path class="cls-15" d="M432.79,763c.8-5,1.87-9.89,3.12-14.75a209.17,209.17,0,0,1,11.29-32,222.43,222.43,0,0,1,16.53-30.67,188.51,188.51,0,0,1,14-19.06C376.28,644.2,164,655.26,164,655.26s-79.32,18.81-61.45,85.11c23.69,87.87,250.72,45.18,329.18,23Z"/><path class="cls-15" d="M450.37,689.34A138.38,138.38,0,0,0,422.45,692a72,72,0,0,0,2.34-13.47q-2.67-2.4-5.61-4.87a183.07,183.07,0,0,0-25.83,14A223.33,223.33,0,0,0,366,708.47a198.83,198.83,0,0,0-23,24.13q-3,3.69-5.7,7.57l.87.14C312,780.8,324.3,859.2,316.6,933.53c-6.76,65.27-7.54,73.43-13.75,107.94,9.8,16.37,95.59,10.86,95.59,10.86C416.45,952.08,450.37,689.34,450.37,689.34Z"/><path class="cls-16" d="M398.44,1041.47c15.77-99.8,51.93-352.13,51.93-352.13h4.1l-53.13,351.95Z"/><path class="cls-15" d="M454.47,689.34s7.9-43.42-28-47.33c-37.38-4.07-252.55,12.92-252.55,12.92l280.57,34.41"/><path class="cls-16" d="M450.37,689.34s9.31-38-36.29-48.91c0,0,47.18,3.09,40.39,48.91Z"/><path class="cls-6" d="M1018.53,198.72s-7.77,29.37,6.35,59.77c1.36,2.92,22.13,8,22.13,8L1016.57,276c-17.09,3.67-55.18,3.05-71.56-2.38l-13.66-8s17.42-3.57,18.31-7.26-1.82-31.68-1.82-31.68"/><path class="cls-6" d="M945.51,261.41l84-.94,8.48,28.76s-22.16,18.57-24.43,19.43-54.48,10.87-54.48,10.87-58.05-20.95-57.26-20.79S945.51,261.41,945.51,261.41Z"/><path class="cls-17" d="M844.63,351.63l18.51-55.93a154.36,154.36,0,0,1,31-12.52c10.55-3,26.62-5.56,32.88-7.28-1.92,8.25-.17,15.87,5.31,20.63a46.75,46.75,0,0,0,27.48,11.27c9.67.65,19.53-1.18,28.75-4.05,17.25-5.39,37.69-24.29,42.39-42.87l19,6.43s59.92,22.62,68.07,26.36-28.84,222.49-28.84,222.49L1104.34,609c1.55,9,39.25,67.84,8.6,132.39,0,0-176.48-58.17-195.74-59.23-22.38-1.23-58.08-2.84-63.33-13.87S844.63,351.63,844.63,351.63Z"/><path class="cls-6" d="M619.8,474.07s-16.13-21.62-27.45-26.76c-3.18-1.45-26.21-24.32-26.21-24.32s-7.85,3.56-.32,14.31,10.87,15,10.87,15l.68,3.86-21.62,3.23s-25.18-.41-31.24,0-19.1.83-20.9,8.49c0,0-9.66-.42-10.32,4.17a7,7,0,0,0,1.35,6.35l4.51,1.37s-2.57,1-1,5.54S540.85,495,540.85,495l2,1.75s-28,1-28.8,3.56-1.76,4.5,2.56,6,80.43,9.15,89.26,8.23a108.51,108.51,0,0,1,10.87-.85l9.79-38.5Z"/><path class="cls-7" d="M501,478.54a132.61,132.61,0,0,0,21.29,2.53,130.68,130.68,0,0,0,21.39.8,130.29,130.29,0,0,0-21.27-2.54A131,131,0,0,0,501,478.54Z"/><path class="cls-7" d="M503.51,468.76c0,.48,9.37.43,20.84,1.13s20.78,1.78,20.85,1.28a83.34,83.34,0,0,0-20.75-3.05A80.24,80.24,0,0,0,503.51,468.76Z"/><path class="cls-17" d="M815.43,531.69c-18.66,17.42-42.81-40.44-59.28-60,6.13-5.77,9.89-16.42,13.7-23.74,7.74-14.85,15.16-29.86,22.53-44.9,9.24-18.86,17.85-38.05,27.92-56.49a293.91,293.91,0,0,1,16.53-27.05c5.16-7.43,10.19-14.64,17.78-19.66a110.63,110.63,0,0,1,24.93-12l39.2,86.24s-27.36,59.32-49,72.12c-.81.49-15.2,39.54-16.17,40C853.15,485.74,848.27,501,815.43,531.69Z"/><path class="cls-17" d="M625.93,469.2l36.23,3.46s86,1.15,104.36-2.12c1.77,3.5,3.5,7,5.19,10.53,9.65,20.1,49.87,45.11,49.87,45.11C790.82,572.67,697.13,543.86,680,538.34c-18.59-6-65-18.05-65-18.05Z"/><path class="cls-18" d="M847.35,496c-.37,0-.14-6-.51-6-.29-11.27-2.77-77.44-2.91-86.1-.12-9.27-.23-16.82-.19-22a78,78,0,0,1,.18-8.1,66.17,66.17,0,0,1,.65,8.08c0,5.62.36,12.88.79,22,.29,8.66,1.64,81.51,2,92.78C847.16,496.6,847.58,495.93,847.35,496Z"/><path class="cls-7" d="M575.82,462.39s-.54,21.15,16.74,34.33C592.56,496.72,565.93,480.12,575.82,462.39Z"/><path class="cls-18" d="M754.75,471.84s14.76,2.64,22.22,14.46C777,486.3,766.32,468,754.75,471.84Z"/><path class="cls-8" d="M996.42,787.53c41.24,0,82.48-4.82,123.72-5,8.95,0,17.18,1.79,17.88,9.57,1.8,20,4.33,41.74-26.7,39.59-2.36-.16-4.81.25-7.12-.06-10.81-1.47-12.47,2.89-11,10.58,4.61,24.93,8.83,44,13.06,69,9.94,58.74,20,117.47,29.6,176.25,2.66,16.21,2.1,16.07-18.6,15.76-6.39-.1-9.08-1.7-10-7.09-9.51-57.81-19.39-115.57-28.82-173.39-1.1-6.75-3.67-9.38-12.5-9.31q-69,.57-138,0c-9-.07-12.15,2.19-13.36,9.65q-13.35,82.34-27.73,164.57c-2.79,16.1-3.2,15.71-23.28,15.47-8-.1-9-2.42-8-8.27,14.87-85.95,29.4-166,44.3-252,1.52-8.81-.82-13-12.46-11.49-3.87.51-7.92.09-11.88.08-17.6,0-21.07-8.95-21.09-24.12,0-16.51,3.21-24.56,20.6-24.57q60.67,0,121.35,0Zm67.5,106.33c8.92.19,10.75-2.4,9.5-9.12-3.62-19.41-6.88-24.91-9.94-44.38-1-6.46-3.51-9.29-12.54-9.16-36.43.55-72.88.49-109.31,0-8.33-.11-10.9,2.47-11.87,8.57-3.19,20.12-6.56,26.26-10.26,46.32-1.19,6.49,2,7.76,9,7.67,23-.27,45.94-.1,68.91-.1C1019.57,893.7,1041.76,893.38,1063.92,893.86Z"/><path class="cls-19" d="M654.83,699.2c11.51,64.52,28,246.63,45.47,325.21,0,0,81.44,2.74,90.31-14.94,0,0,97.45-376.5,49.79-391-35.13-10.7-139.57-19.67-160.5-7.11C654.77,626.42,645.75,648.4,654.83,699.2Z"/><path class="cls-9" d="M1106.12,911.25q2.3,13.61,4.61,27.2c-9.64,1.85-19.22,4-28.77,6.3q-1.82-11-3.62-22c-1.1-6.74-3.67-9.38-12.5-9.31q-69,.57-138,0c-9.05-.08-12.15,2.18-13.36,9.64q-1.72,10.65-3.5,21.31a264.17,264.17,0,0,1-27-11.24c5.25-29.7,10.52-59.61,15.84-90.27a16.78,16.78,0,0,0,.05-7.14q9.43.62,18.88,1,5.81.22,11.59.34a19.4,19.4,0,0,0-.66,2.81c-3.19,20.13-6.56,26.27-10.26,46.33-1.19,6.49,2,7.75,9,7.67,23-.28,45.94-.11,68.91-.11,22.18,0,44.37-.32,66.53.16,8.92.19,10.75-2.4,9.5-9.12-3.62-19.41-6.88-24.9-9.94-44.38a12.2,12.2,0,0,0-2.26-6c10.93-.33,21.85-.59,32.77-.72-1.48,1.88-1.53,4.84-.84,8.6C1097.67,867.21,1101.89,886.27,1106.12,911.25Z"/><path class="cls-9" d="M1138.39,796.17s-131.74,23.7-188.54,16.52-95.09-13.3-92.79-21.9,42.51-27.07,83-28.37,151.46,8.65,151.46,8.65,37.25,6.13,41.15,11.44S1138.39,796.17,1138.39,796.17Z"/><path class="cls-13" d="M654.22,669.94a.61.61,0,0,0,.18,0v-.47Z"/><path class="cls-19" d="M751.9,751.48c-.43-5.4-1.15-10.78-2.07-16.09a225,225,0,0,0-9.32-35.34,239.29,239.29,0,0,0-15-34.33,204.3,204.3,0,0,0-13.37-21.64c110.38-15.26,336.36,14.77,336.36,14.77s73.72-.59,58.37,96.57c-12.69,80.27-271.84,27-353.78-3.5Z"/><path class="cls-19" d="M705.42,677.39a155.32,155.32,0,0,1,29.93,2.73,70.2,70.2,0,0,1-2.51-13.75c1.91-1.62,3.91-3.28,6-5a198.39,198.39,0,0,1,27.69,14.26,237,237,0,0,1,29.29,21.24,206,206,0,0,1,24.65,24.6c2.12,2.51,14.29,5.09,16.25,7.73-.31,0,2,15.34,1.74,15.38,28.15,41.3,12.24,106,20.5,181.84,6,55.6,4.6,114.19,4.6,114.19-10.51,16.69-102.48,8.57-102.48,8.57C741.78,947,705.42,677.39,705.42,677.39Z"/><path class="cls-20" d="M761.09,1036.55c-16.91-101.79-55.67-359.16-55.67-359.16H701l57,359Z"/><path class="cls-21" d="M857.4,736.56l-.93.13"/><path class="cls-22" d="M885.07,912.61s.06,0,.09-.06S885.25,912.39,885.07,912.61Z"/><path class="cls-20" d="M854.56,779.39l2.84.3c-4.18-34.77-22.66-51.4-22.66-51.4s15.89,23.64,16.45,50.73Z"/><path class="cls-19" d="M711.83,659.67s-3.35-35.44,34.1-44.48C811.36,599.38,1014.5,652,1014.5,652l-302.67,7.68"/><path class="cls-23" d="M1021.8,208.61a2.64,2.64,0,0,0,0,.28A.47.47,0,0,0,1021.8,208.61Z"/><path class="cls-6" d="M956.93,263.42l-30.85-1.34-15.4-3.63c-1.57,0-8.29-16-9.34-18.06-3.28-6.32-7.55-14.59-9.55-21.45-2.14-7.34-6.69-13.72-7.74-22.55-.77-6.47-.77-11,2.72-21.51a15.16,15.16,0,0,0,.29-8.22c-1.36-6.07-1.82-13.15-3.46-21.28-.13-.64-.86-3.72-.6-4.42,0,0-1.25-33.85,4.86-45.92s15.15-17.58,24-19.82,34.78-.53,34.78-.53l35.92-5L1013,85.08l15.32,37.56-2.44,43.5L1021.07,205"/><path class="cls-10" d="M1015.67,162.86c-.19,3.37-4.45,20.11-4.84,23.39L1028,186c5.25-11.5,11.55-25,13.54-28.1,3.11-4.81-5.55-28.79-5.31-37.6l0-1.91c.25-8.45-7.66-21.92-21.15-36C991.94,58.07,993.09,57.8,957,60.15c-2.48.17-5,.42-7.35.76-22.69,3.24-41.6,2.77-56.18,21.86C883,96.54,891,79.21,891.8,88.85c.75-19-2.95-3.36-1-5.58,11.47-13,17,1,22.57.2a18.55,18.55,0,0,1,9.22.94c5.5,1.29,10.81.61,16.63-.22,4.34-.62,15.31-3,16.24-3.26,2.94-2,.48-13.49,5.87-14.26,12.51-1.79,29.55,3.89,35.56,6.77,7.1,3.4,24.11,10.78,21.61,30.11"/><path class="cls-10" d="M914.05,254.35a1.32,1.32,0,0,0,.58-.22c3.29-2.18,3.55-3.42,5.15-3.8a8.62,8.62,0,0,1,1.72-.38c4.63-.64,7.45-1.12,19.83,6.88.25.16,16.5-1.87,16.82-1.89l8.4-4c1.41-.87,32.93-27.53,32.93-27.53.48-.89,6.19-7.24,6.41-8.09.1-.05.2-.11.3-.15l.2-.08.05.17a7,7,0,0,1,0,1.12,19,19,0,0,1-.89,4.71c-.74,2.35-1.17,4.75-1.82,7.12-.22.84-.49,1.66-.79,2.47-3.59,2.24-26.49,31.19-39.5,37.65-.85.23-3.5,1-10.59,1.55-13.32,1.08-26.17,1-39.26-2.87a11.83,11.83,0,0,1-7.52-6.71c-3.89-9.16-12.46-29.55-14.54-43.23C895.16,225,902.75,242,908,253.6c.16.35,5.22.65,5.63.78"/><path class="cls-6" d="M1017.24,209.37c13.84,13.76,16.69-9.56,16.69-9.56,9.62-11.87,9.52-24.44,9.1-33s-9.77-8.39-9.77-8.39c-7.93.93-11.44,5.27-17.88,32.41"/><path class="cls-10" d="M918.42,75.82c12.91-.11,46.85-8.85,64.37-9.81,7.25-.4,31.16,17.95,34.26,22.1,7.09,9.53-9.67,31.12,2.45,61.41,4,10,9.89-7.4,15-.83s7.07,9.23,7.07,9.23c4.06-28.85,4-27.84-2.11-56.42S1002.85,60.28,988,57.76s-62.53,1.83-75.46,7.78"/><path class="cls-24" d="M1023.13,185.83a72.53,72.53,0,0,1,5.81-10.77,24.52,24.52,0,0,1,4.35-5.07,9.15,9.15,0,0,1,1.4-1l.25-.12.13-.06.21-.08s-.12.06,0,0,0,.09,0,0,.3,0-.07,0c.24,0-.27,0-.25-.05s.68,1.12.74,1.26c1.65,3.39,1.55,7.38.7,11-.07.31,1.25.11,1.33-.23.83-3.53,1-7.39-.53-10.77a4.5,4.5,0,0,0-1-1.67.93.93,0,0,0-.68,0c-2.86.45-5.15,3.26-6.78,5.39a64.34,64.34,0,0,0-7,12.45c-.1.22,1.17.12,1.33-.23Z"/><path class="cls-24" d="M1025.09,188.12c4.69-.23-1.38,11.42,2.78,11.09,1.09-.08,1.66-1.3,2-2.17a28.22,28.22,0,0,0,1.52-5.86,21.11,21.11,0,0,0,.18-6.91c-.4-2.83-1.36-6.26-4.23-7.5-.57-.24-1.56.58-.77.92,2.37,1,3.17,4,3.57,6.34a17.67,17.67,0,0,1,.18,5.33,37.73,37.73,0,0,1-1.31,6.32,10.68,10.68,0,0,1-.78,2c-.07.12-.36.42-.36.54s-.08,0-.09.08c.32.05.4,0,.26-.08l-.08-.11c0-.35-.26-.71-.27-1.1a10.33,10.33,0,0,1,.08-1.57c.13-1.22.34-2.43.44-3.65.17-2.28-.19-4.76-3-4.62-.76,0-1,1-.12,1Z"/><path class="cls-10" d="M954.19,159.83c2-1.06,4.28-.19,5.59.95a5,5,0,0,1,1.53,2.34,5.26,5.26,0,0,1-1.15,4.75,4.76,4.76,0,0,1-5.48,1,5.37,5.37,0,0,1-2.68-6.18,4.77,4.77,0,0,1,2.19-2.91"/><path class="cls-10" d="M897.24,161c-2-1-4.28-.08-5.56,1.1a5,5,0,0,0-1.47,2.38,5.23,5.23,0,0,0,1.28,4.72,4.73,4.73,0,0,0,5.5.89,5.36,5.36,0,0,0,2.51-6.24,4.72,4.72,0,0,0-2.26-2.85"/><path class="cls-10" d="M913.77,168.35s-8.06-7.94-13.88-8.4c-8.5-.67-10.66,1.29-13.61,5.27,0,0,5.5-4.19,11.48-3.55C903.47,162.28,913.77,168.35,913.77,168.35Z"/><path class="cls-10" d="M941.32,165.88s11.8-7.75,17.64-8c8.52-.34,18.74,4.6,21.54,8.7,0,0-13.49-7.31-19.48-6.9C955.29,160.08,941.32,165.88,941.32,165.88Z"/><path class="cls-10" d="M939.1,133c-.2,2-.41,4.08-.61,6.13-.15,1.56-.61,5.11-.76,6.66,5-.8,9.56-2.31,12.75-2.55,6.33-.46,12.86-1.38,19,.27a21,21,0,0,1,7.88,3.69c.74.58,2.66,3,3.9,2.53.51-.18,0-2.77-.08-3-1.12-5.24-5.15-7.78-10.22-9.53-10.33-3.57-21-4.42-31.91-4.16"/><path class="cls-10" d="M881.54,143.88l3.09-1.92c8.58-5.37,18-8.14,27.93-9.88.62,2,1.23,3.91,1.85,5.88.46,1.49,1.4,4.16,1.86,5.65-4.67.12-8.83-.18-11.76.17-5.82.71-12,1.37-17.2,4.11-.41.22-2.64,1.43-3,1.66C881.67,147.42,880.91,144.55,881.54,143.88Z"/><path class="cls-10" d="M938.73,232l-21.89-.85s5.27,8.51,10.61,8.44C930.79,239.56,935.21,235.86,938.73,232Z"/><path class="cls-11" d="M920.79,202a9.35,9.35,0,0,0,8.8-.69c.55-.36,2.41,0,1.64.47-3.29,2.17-8.75,2.44-12,.74-.32-.17-.27-.43.13-.57a2.08,2.08,0,0,1,1.42,0"/><path class="cls-11" d="M932.3,201a15.06,15.06,0,0,1,5.41-1.47,1.23,1.23,0,0,1,.83.26c.16.14.2.34,0,.46a5.64,5.64,0,0,1-3,.75,1.11,1.11,0,0,1-.92-.36c-.17-.26.14-.43.38-.43a4.64,4.64,0,0,0,2.4-.61l.83.72a13.75,13.75,0,0,0-4.84,1.34,1.12,1.12,0,0,1-1-.1c-.2-.12-.42-.4-.12-.56"/><path class="cls-11" d="M939.75,201.11c2.19-.08,4.76-1.1,5.81-2.83,1.6-2.6,0-6.57-2.73-8.19-.3-.17-.15-.41.15-.48a1.78,1.78,0,0,1,1.18.24,7.84,7.84,0,0,1,3.66,7.08c-.3,2.26-2.38,3.87-5,4.56a11.42,11.42,0,0,1-2.42.38c-.33,0-.93-.08-1.1-.35s.13-.39.45-.41"/><path class="cls-11" d="M916.75,200.85a.29.29,0,0,0-.28-.42,2.52,2.52,0,0,1-1.71-.56l-.57.75a7.37,7.37,0,0,1,3.45,1.22.61.61,0,0,0,.71-.12c.14-.13.28-.41.07-.56"/><path class="cls-11" d="M918.42,201.16a8.38,8.38,0,0,0-3.86-1.35.7.7,0,0,0-.59.28.32.32,0,0,0,0,.46"/><path class="cls-11" d="M912.2,201.22a4.46,4.46,0,0,1-3.84-2.7,6.83,6.83,0,0,1,1.61-7.31.27.27,0,0,0-.11-.48.83.83,0,0,0-.76.26,7.63,7.63,0,0,0-2.24,6.22,5.22,5.22,0,0,0,3.35,4.46,5.11,5.11,0,0,0,1.59.32.75.75,0,0,0,.7-.37c.1-.28-.09-.39-.3-.4"/><path class="cls-10" d="M911.53,81.2a8,8,0,0,1,3.77-1.28l1.47-.46q6.54,0,13.05.32a9.18,9.18,0,0,1,3.17.55,2.1,2.1,0,0,1,.3.15c3.22-.1,6.44-.16,9.66-.14l1.48.41a8.79,8.79,0,0,1,3.77,1.12,1.28,1.28,0,0,1-.31,2.38c-1.32.41-3.27-.31-4.19.44s.9,2.08.3,3.06c-.38.62-1.54.81-2.3,1.25-.91.52-1.21,1.38-2.06,2a4.49,4.49,0,0,1-3.42.43c-1.22.09-2.85-.42-3.24.43a1.42,1.42,0,0,0,0,.71,2.45,2.45,0,0,1-1.86,2.25,4,4,0,0,1-3.43-.51c-.85-.65-1.15-1.64-2.06-2.24a6.16,6.16,0,0,0-1-.49,3.11,3.11,0,0,1-1.14.66,4,4,0,0,1-3.43-.51c-.84-.65-1.15-1.64-2-2.24s-1.93-.74-2.3-1.45c-.6-1.14,1.31-2.56.31-3.52s-2.87,0-4.19-.52A1.56,1.56,0,0,1,911.53,81.2Z"/><path class="cls-10" d="M939.17,258.71a6.48,6.48,0,0,1-3.13.79l-1.22.28q-5.27-.4-10.5-1.12a7.73,7.73,0,0,1-2.53-.65l-.22-.14c-2.61-.13-5.22-.3-7.82-.53l-1.16-.42a7.09,7.09,0,0,1-3-1.16,1,1,0,0,1,.4-1.9c1.09-.24,2.62.47,3.41-.08s-.59-1.73,0-2.49c.35-.47,1.3-.55,1.94-.86s1.07-1,1.79-1.43a3.62,3.62,0,0,1,2.79-.13c1,0,2.27.53,2.64-.13a1.22,1.22,0,0,0,.08-.57,2,2,0,0,1,1.64-1.69,3.22,3.22,0,0,1,2.74.63c.64.59.82,1.4,1.52,1.95a5.84,5.84,0,0,0,.74.46,2.45,2.45,0,0,1,1-.46,3.18,3.18,0,0,1,2.74.63c.64.58.82,1.4,1.51,1.95s1.51.72,1.76,1.32c.41.95-1.22,2-.47,2.82s2.31.22,3.34.7A1.26,1.26,0,0,1,939.17,258.71Z"/><path class="cls-25" d="M1039.87,159.69a8.24,8.24,0,0,0,3.85-.74,2.87,2.87,0,0,0,1.45-3.36c-.81-2-4.3-2.36-4-4.46,1.76-2,5.84-1.12,6.87-3.61.83-2-1.28-3.93-3.11-5.08,1.33-1.22.92-.1,2.67-.51s2.81-4.64,1.86-6.18c-1.08-1.74-1.72-.37-1-2.3,1.39-.4-1.63-1.66-.55-2.65a3.34,3.34,0,0,0,.9-4c-.89-1.52-.7-2.63-.63-4.4.06-1.51-2.85-1.84-1.93-3,1.66-2.17-.45-5.17-2.43-7,1.2-.78-.24-1.06.54-2.28a3.52,3.52,0,0,0,0-4,15,15,0,0,0-2.11-1.56c-2.77-2.33-1-6.83,1-9.89a5.17,5.17,0,0,1-5.3-4.39c-.15-1.19.12-2.44-.29-3.57s-2-1.93-2.76-1"/><path class="cls-10" d="M1039.69,160.76c2.79-.09,7.35-1,7.27-4.7a3.68,3.68,0,0,0-1.91-2.84c-.64-.46-2.27-1.09-2.29-2.05,0,.19-.13.15.15,0a2.89,2.89,0,0,1,.63-.26c.65-.22,1.33-.33,2-.51a6.86,6.86,0,0,0,3.4-1.8c2.42-2.66-.52-5.57-2.76-7l.06,1.26c.76-.67-1.76-.14-.74.16a3.88,3.88,0,0,0,1,.1,4.78,4.78,0,0,0,2.47-.67,5.39,5.39,0,0,0,2.08-3,6,6,0,0,0,.16-3.69,3.32,3.32,0,0,0-1.15-1.56c-.17-.13-.38-.2-.55-.33.17.42.27.47.3.14s.13-.43.21-.65l-1,1c.89-.33,1.68-1.13,1.11-2.07a4.5,4.5,0,0,0-.72-.85.85.85,0,0,1-.19-.3c0-.15-.07-.11-.1.13a3,3,0,0,0,.35-.37,4.45,4.45,0,0,0,1.16-3.49,13.79,13.79,0,0,0-.8-2,6.52,6.52,0,0,1-.17-2.2,2.73,2.73,0,0,0-1-2.72c-.2-.16-.88-.47-1-.71s.16-.42.31-.74c1.27-2.65-1-5.52-2.82-7.27l-.45,1.31c.59-.44,1.15-.94,1.08-1.73,0-.22-.18-.44-.18-.65,0-.37.33-.72.47-1a3.92,3.92,0,0,0-1.28-5,5.58,5.58,0,0,1-2.09-1.88,4.38,4.38,0,0,1-.31-2.53,13.63,13.63,0,0,1,2.25-5.44c.58-.91-.78-1.2-1.35-1.18a4,4,0,0,1-3.19-1.94c-.94-1.41-.56-3-.76-4.53-.38-3-3.87-3.73-5.91-1.84-.56.52-.27,1.17.37,1.39a2.45,2.45,0,0,0,2.29-.61c-.83.09-1.06.24-.68.45a.93.93,0,0,1,.23.21,9.06,9.06,0,0,1,.38.83,10.86,10.86,0,0,1,.11,2.42,5.69,5.69,0,0,0,1,3,6.55,6.55,0,0,0,5.82,2.71l-1.36-1.19c-1.64,2.61-3.62,6.57-1.86,9.59.89,1.53,3.34,2,3.49,3.9.08,1-.52,1.65-.79,2.57a2,2,0,0,0,0,1,2.24,2.24,0,0,0,.11.34c0,.24.08.21.14-.09-.33.25-.89.88-.45,1.31a9.07,9.07,0,0,1,2.8,4.16,2.66,2.66,0,0,1-.41,2.09,1.37,1.37,0,0,0-.1,1.44c.43.8,1.73,1,1.94,1.93a16.55,16.55,0,0,1,0,2.33,6.4,6.4,0,0,0,.72,2.37,2.43,2.43,0,0,1,0,2.24c-.3.59-1,1-1.13,1.66a1.6,1.6,0,0,0,.3,1.23c.08.12.68,1,.82.95-.21,0,1.16-1,.4-.72a1.45,1.45,0,0,0-.47.34,2.7,2.7,0,0,0-.47,1.05,1.15,1.15,0,0,0,.2,1.29c.29.28.66.36.92.7a2.56,2.56,0,0,1,.44,1.64,6.52,6.52,0,0,1-.41,2.09c-.12.33-.37.63-.48.95s-.35.18,0,.17a11.43,11.43,0,0,0-1.38-.15,4.4,4.4,0,0,0-2.35,1.25.77.77,0,0,0,.06,1.26c1.22.78,4.71,3.87,1.92,4.94-1.86.72-4.65.72-5.84,2.63s1.55,3.22,2.7,4c.85.59,1.6,1.37,1.14,2.48-.57,1.36-2.27,1.23-3.49,1.27-.63,0-1.74.49-1.81,1.22s.87.92,1.45.91Z"/><path class="cls-26" d="M1035.76,91.48c-.32-1.62-1.62-9.29-1.94-10.9a3.57,3.57,0,0,1-4.56-3.13c0-1.08.34-2.42-.52-3.07s-2.11.14-3.2.06c-2.44-.17-2.69-4.18-5-5.09-1.42-.57-3.09.32-4.53-.18-2.19-.77-2.47-4.12-4.57-5.1-1.45-.67-3.21.07-4.74-.39-3.32-1-4.36-6-7.82-6.14-1.27,0-2.47.8-3.73.66-2.26-.25,1.17-2.57-1.08-2.94-2.05-.35-3.75,1.83-5.82,2-3.39.29-5.51-5.46-8.68-4.24-1.37.53-2.14,2.07-3.48,2.66-3.13,1.36-6.25-3.23-9.58-2.5-1.67.36-2.9,2-4.6,2.19-2.65.29-4.61-3.06-7.26-2.92-2.12.11-3.73,2.44-5.85,2.27-1.47-.11,2.21-1.69.74-1.94-2.49-.42-4.42,2.33-6.91,2.8-2.09.4-4.08-.87-6.13-1.43s-6.67,3.41-6.78,5.55"/><path class="cls-10" d="M1037.38,91c-.71-3.62-1.22-7.28-1.93-10.9-.12-.57-1.52-.27-1.79-.19-1,.32-2.29-1.15-2.6-2-.44-1.2.3-2.72-.47-3.8s-2.2-.85-3.29-.65c-.53.1-.84.24-1.33-.05a3.39,3.39,0,0,1-1-1.15c-1.2-1.87-1.93-3.77-4.45-3.91-1.32-.07-2.79.58-3.89-.4a12,12,0,0,1-1.88-2.78,4.43,4.43,0,0,0-2.31-2c-1.51-.5-3.18.19-4.64-.35-2-.72-3-3-4.4-4.38-1.86-1.94-4-1.92-6.51-1.23-.86.24-1,.13-.66-.68.23-.58.56-1.22,0-1.72-.77-.68-2.35-.44-3.22-.24a14.83,14.83,0,0,0-3.8,1.68c-1.33.72-3.28-1.64-4.31-2.55a5.25,5.25,0,0,0-5.44-1.37,7.42,7.42,0,0,0-3,1.88,6.09,6.09,0,0,0-.78.74l-.27.2c.34,0,.38,0,.1,0a5.31,5.31,0,0,1-1.6-.54c-2.08-1-3.87-2.41-6.3-2.27A8.17,8.17,0,0,0,964,53.55c-.51.31-1.18,1-1.77,1.1.15,0,.29,0-.17-.06a3.88,3.88,0,0,1-1.18-.51c-2.1-1.19-3.68-2.71-6.28-2.31A10.26,10.26,0,0,0,951,53.29a4,4,0,0,0-.89.53l-.3.15c.17,0,.28.09.34.29,0,0,.33-.27.44-.37.35-.29,1.2-.84,1-1.39-.35-.94-2.73-.46-3.37-.3a14.26,14.26,0,0,0-4,2,3.33,3.33,0,0,1-1.67.72,7.6,7.6,0,0,1-2.57-.72,7.4,7.4,0,0,0-4-.74,9.45,9.45,0,0,0-3.38,1.39c-1.68,1.06-4.09,3-4.32,5.13-.11,1,3.12.39,3.21-.5.2-1.81,2.12-3.45,3.58-4.31.36-.22.84-.24.28-.3a9.31,9.31,0,0,1,2,.71,10.35,10.35,0,0,0,4.32.85,9.19,9.19,0,0,0,3.91-1.23c.5-.28,1-.6,1.47-.91s1.19-.6,1.38-.76-.1,0-.2,0a3.43,3.43,0,0,0-.63.51c-.41.36-1,.86-.34,1.29s2.34.09,3.12-.14c1.34-.4,2.35-1.43,3.63-1.85.85-.29,1.91.57,2.62,1.05A10.26,10.26,0,0,0,959.6,56a6.24,6.24,0,0,0,3.6-.28,9.33,9.33,0,0,0,1.59-.77c.3-.18.59-.38.88-.57s1-.55.78-.52c.88-.13,2,.61,2.77,1a17,17,0,0,0,3.18,1.56,6.77,6.77,0,0,0,6.58-1.8,9.4,9.4,0,0,1,1.28-1.14l-.57.12a1,1,0,0,1,.25.06c.13.09.37.13.52.21a11.72,11.72,0,0,1,2.38,2c1.5,1.37,3.06,2.41,5.18,2.14a9.89,9.89,0,0,0,3.41-1.18c.51-.28,1.82-1.41,1.82-.33,0,.53-.57,1-.49,1.55.12.92,1.42,1,2.13.95a8.74,8.74,0,0,0,2-.33,3.35,3.35,0,0,1,1.55-.29,5.11,5.11,0,0,1,2.51,2c1.3,1.55,2.46,3.44,4.51,4.06,1.3.39,2.59,0,3.89.17,1.46.18,2.13,1.45,2.8,2.59a6,6,0,0,0,2.15,2.51c1.43.76,2.86.2,4.36.28,2.31.13,2.68,3.53,4.31,4.71a4.58,4.58,0,0,0,3.68.36c.84-.17,1,.41,1.07,1.2s-.12,1.35,0,2c.43,3,3.9,3.74,6.33,3l-1.79-.2c.71,3.62,1.23,7.28,1.94,10.9.17.86,3.43.09,3.24-.87Z"/><path class="cls-27" d="M1002.24,70.62c12.19,5.18,17.13,9.71,22.9,21.74L955.29,65.69a62.91,62.91,0,0,1,15.29-1.19C983.78,65.37,990.05,65.44,1002.24,70.62Z"/><path class="cls-10" d="M1000.94,71.36c4.89,2.09,9.74,4.48,13.64,8.17s6.61,8.44,8.94,13.27l2.92-1.18-23.56-9L965.2,68.24,956.59,65l-1.54,1.56A62.77,62.77,0,0,1,969,65.3c3.85.17,7.71.44,11.54.8a68.55,68.55,0,0,1,20.41,5.26,2.81,2.81,0,0,0,2.29-.33c.39-.24,1-.86.31-1.16a71,71,0,0,0-21.35-5.45c-4-.37-8.09-.67-12.13-.83a67.55,67.55,0,0,0-14.53,1.28c-.39.08-2.82,1.08-1.54,1.57l23.56,9,37.68,14.39,8.61,3.28c.51.2,3.4-.18,2.92-1.17-2.38-4.94-5.13-9.83-9.15-13.63s-9-6.28-14.07-8.43a2.81,2.81,0,0,0-2.29.34C1000.86,70.44,1000.23,71.06,1000.94,71.36Z"/><path class="cls-27" d="M901.1,68.89c.34-.15.69-.3,1-.47,1.69-.87,3-3.37,1.56-4.55,3.36,1.49,6-4.41,9.63-4.25a19.62,19.62,0,0,1,3.05.81,4.84,4.84,0,0,0,5.49-4.68,11.54,11.54,0,0,0,8.8,1.22l24.65,8.72c-11,2-22.19,5.86-32.71,6.9-5.07.51-10.23,1.18-14.81,3.43-3.33,1.64-7.55,2.48-11,4.22C898.22,76.45,899.62,72.65,901.1,68.89Z"/><path class="cls-10" d="M901.74,69.56a7.13,7.13,0,0,0,3.65-2.85,2.68,2.68,0,0,0-.22-3.48l-2.79,1.43a6.16,6.16,0,0,0,5.69-.92c.8-.54,1.52-1.16,2.26-1.77a5.54,5.54,0,0,1,2.14-1.42c1-.14,2.1.63,3.06.79a7.19,7.19,0,0,0,3.78-.46,6.2,6.2,0,0,0,4.16-5.33l-2.92,1a13.86,13.86,0,0,0,10.31,1.25l-1.51,0,21.52,7.62,3.13,1.1,1.51-1.69c-8.16,1.52-16.12,3.89-24.25,5.57-7.73,1.59-16,1.34-23.32,4.6-3.85,1.72-8,2.73-11.78,4.61l2.26.47c1.42-3.79,2.82-7.59,4.3-11.36.27-.69-1.05-.74-1.41-.7a2.19,2.19,0,0,0-1.84,1.11c-1.47,3.77-2.88,7.56-4.29,11.35-.39,1,1.92.65,2.26.48,3.23-1.6,6.77-2.37,10.06-3.8a38.92,38.92,0,0,1,5.31-2.07,43.42,43.42,0,0,1,5.74-1.12c3.8-.5,7.59-.84,11.36-1.57s7.75-1.69,11.59-2.65c4.51-1.11,9-2.26,13.57-3.11a2.61,2.61,0,0,0,1.63-.75c.22-.29.36-.78-.12-.95l-23.8-8.42a6.29,6.29,0,0,0-1.52-.44,14.3,14.3,0,0,0-2,.33,8.85,8.85,0,0,1-2.12,0,10.52,10.52,0,0,1-4-1.39c-.63-.36-2.89,0-2.91,1,0,1.5-1,3.84-2.88,3.59-1-.14-2-.7-3-.81a6.45,6.45,0,0,0-2.72.32,12.45,12.45,0,0,0-4,2.46c-.61.51-1.79,1.91-2.66,1.57a2.63,2.63,0,0,0-2.12.21c-.34.17-1.17.76-.68,1.22,1.48,1.37-.43,3.15-1.71,3.7-.45.2-1.3.73-.86,1.31S901.25,69.77,901.74,69.56Z"/><path class="cls-7" d="M961.19,118.58s-33.75-4.66-56.82.21"/><path class="cls-25" d="M894.89,232.45a34.81,34.81,0,0,0,3.6,9.45c-1.21.35-.77,2.26.15,3.14s2.19,1.86,1.88,3.1c-.11.43-.4.79-.5,1.23-.31,1.36,1.34,2.26,2.66,2.66-.93.69-.2,2.19.68,2.94s2,1.7,1.67,2.82c-.17.55-.68,1-.69,1.55,0,1.2,1.93,1.26,2.55,2.28.35.59.17,1.35.31,2a2.19,2.19,0,0,0,3.32,1.25c.19,2.44,1.13,5.6,3.54,5.55,1.49,0,3-1.44,4.3-.78.83.4,1.18,1.44,1.94,2,2.57,1.78,6-3.67,8.55-1.88,1.38,1,1.25,3.46,2.82,4s2.87-1.16,4.45-1.28,3.4,1.65,5,.9c.67-.33,1.06-1.05,1.64-1.52,1.33-1.09,2.58.65,4.19,1.22,2.89,1,3.21-1.1,3.21-1.1.92-2,2.06-1.85,3.95-.69a4.85,4.85,0,0,0,1.94,1c1.79.14,2.73-2.82,4.51-2.6a5.89,5.89,0,0,1,1.77.89c2.14,1.08,4.92-1.78,3.82-3.93a5.07,5.07,0,0,0,5-5.31,4.56,4.56,0,0,0,5.82-3.83c3,.93,6.23-2.56,5.16-5.5a3.61,3.61,0,0,0,4.73-3.2c0-1.16-.45-2.64.52-3.26.64-.41,1.47-.09,2.23-.08a2.91,2.91,0,0,0,2.55-3.91c2.94.84,5.82-3.25,4.07-5.78,2.32.59,4.53-2.61,3.17-4.61,3.2,0,5.51-4.26,3.79-7l-38.22,37.29-9.68,4.1s-33.94,2-40.24-1.08S894.89,232.45,894.89,232.45Z"/><path class="cls-10" d="M893.27,232.88a35.48,35.48,0,0,0,3.6,9.45l.68-.67a1.93,1.93,0,0,0-1.36,2.32c.29,1.32,1.43,1.92,2.21,2.9a1.86,1.86,0,0,1,.26,2.15,2.1,2.1,0,0,0-.19,1.64c.44,1.13,1.83,1.66,2.88,2l-.14-.53c-1.72,1.65.71,3.23,1.69,4.39a1.67,1.67,0,0,1,.46,1.7c-.17.49-.58.84-.62,1.39,0,.75.52,1.16,1.12,1.49.81.44,1.51.74,1.63,1.76s0,1.72.82,2.39c1.47,1.28,4,.67,5.46-.29l-2.88.37c.22,2.33,1,5.56,3.83,5.78a6.9,6.9,0,0,0,2.34-.29,10.93,10.93,0,0,0,1.1-.37l.51-.2c.38-.12.45-.16.19-.1s-.19.06.06.14c.18.26.64.54.86.81s.38.51.6.74a2.73,2.73,0,0,0,1.55.79c2.4.39,4.85-1.15,6.77-2.4a3,3,0,0,1,.4-.21c-.42.16-.26,0,0,.17a3.49,3.49,0,0,1,1.21,1.61c.45,1,.82,2.23,2,2.64,1.39.47,3.06-.12,4.31-.72a8.13,8.13,0,0,0,.88-.46c.14-.09.54-.15.09-.11s.2.12.36.17c.74.21,1.42.61,2.17.8a5.65,5.65,0,0,0,4.48-.84,5,5,0,0,0,.89-.83,3.74,3.74,0,0,0,.39-.42c.15.34-1.45-.32-1,.27.1.16.68.36.86.47a12.55,12.55,0,0,0,1.18.69c1.87.92,5.43.92,6.6-1.2a5.55,5.55,0,0,0,.2-.52c.1-.21.26-.42.34-.64s.78-.43-.42-.11-.59.1-.21.31c1.31.71,2.55,1.83,4.13,1.72a6.34,6.34,0,0,0,4-1.92l.68-.68a3.74,3.74,0,0,0,.29-.25c.37-.26.11-.12-.79.39l.34.21a3.39,3.39,0,0,0,2,.77c2.61.19,7.07-2.05,5.67-5.28l-2.67,1.12c3.67,0,7.88-2.29,7.67-6.43l-3,1.08c3.43,1.1,8.34-1.08,8.77-4.9l-2.95,1.08c3.71,1,9.49-2.16,8.12-6.59l-3,1.08a6.79,6.79,0,0,0,5.72-1c1.75-1.18,2-2.64,1.87-4.6,0-.19.21-1.33.19-1.35s-2.13.25-.59.41a6.16,6.16,0,0,0,.75.05,6.76,6.76,0,0,0,3-.72,3.57,3.57,0,0,0,2.08-4.3l-3,1.08c3.51.81,9.58-2.73,7-6.87l-2.95,1.08c2.87.55,8.26-2.08,6.12-5.68l-2.32,1.11c3.84-.15,8.5-4,6.11-8.11-.46-.79-2.64.1-3.09.54l-17.24,16.83-20.51,20c-.15.15-.8.65-.21.29s-.31.07-.49.15l-1.78.75-7.15,3,1.64-.43a252.29,252.29,0,0,1-31.23.37,34.08,34.08,0,0,1-7.12-1,9.19,9.19,0,0,1-4.32-3.35c-4.15-4.95-7.28-10.83-10.34-16.48-2.23-4.12-4.39-8.29-6.41-12.53-.39-.82-3.52.29-3.24.87,1.7,3.57,3.5,7.09,5.36,10.58A126.57,126.57,0,0,0,909,260.55c1.24,1.64,2.65,3.61,4.53,4.56a17.67,17.67,0,0,0,6,1.33,156.75,156.75,0,0,0,20.1.45q7.21-.15,14.42-.55a13.35,13.35,0,0,0,4.4-1.42c2.41-1,4.87-2,7.24-3.06a6.54,6.54,0,0,0,1.74-1.41l3.65-3.57,12.05-11.76,21.13-20.61.38-.38-3.09.54a4.22,4.22,0,0,1,.32,3.57,5,5,0,0,1-.88,1.58c-.18.22-.44.38-.62.59a1.87,1.87,0,0,1-.29.2c.38-.07.38-.09,0-.05s-2.66.53-2.32,1.11a2.56,2.56,0,0,1,.28,2.19,3.23,3.23,0,0,1-.46.93,3.44,3.44,0,0,1-.45.49c-.37.24-.23.21.42-.08-.36-.07-3.38.39-3,1.07a3.28,3.28,0,0,1,.28,3,4.14,4.14,0,0,1-.78,1.31,6.15,6.15,0,0,0-.53.49l-.18.11q.71-.12.09-.18c-.44-.1-3.25.27-3,1.08a2.55,2.55,0,0,1,0,1.9,5.32,5.32,0,0,1-.54.85l-.23.22c.64-.17.68-.25.12-.26a5,5,0,0,0-4.1,1c-.91.86-.6,2.05-.57,3.17a3,3,0,0,1-.54,1.94,2.33,2.33,0,0,1-.65.64c-.21.12-.19.14.06,0a2.28,2.28,0,0,1-.63-.18c-.47-.16-3.2.28-2.95,1.08a3.76,3.76,0,0,1-.31,3,4.06,4.06,0,0,1-.95,1.19,1.86,1.86,0,0,1-.52.36c.32-.1-.26-.09-.43-.14-.71-.18-2.85.16-3,1.08a3.88,3.88,0,0,1-1.14,2.34,1.3,1.3,0,0,1-1.72.4c-.6-.19-3,.2-3,1.08a4.55,4.55,0,0,1-.64,2.62c-.29.48-1.05,1.58-1.68,1.58-.37,0-3,.39-2.67,1.11a2.34,2.34,0,0,1,.1,1.8,2.82,2.82,0,0,1-.4.77s-.65.64-.65.63l.62-.15a1.84,1.84,0,0,1-.7-.31c-.23-.12-.44-.3-.68-.43a3.37,3.37,0,0,0-2-.36,5.92,5.92,0,0,0-3.25,1.37c-.41.36-.77.79-1.18,1.16-.9.82.31-.47.68,0a7,7,0,0,0-1.23-.77c-2-1.29-4.89-1.62-6.59.38a4.06,4.06,0,0,0-.81,1.52,2.5,2.5,0,0,1-.22.28l.84-.38a4.64,4.64,0,0,1-.73-.2c-.77-.29-1.4-.85-2.14-1.21a4.28,4.28,0,0,0-3.42-.05,4.58,4.58,0,0,0-1.71,1.05,4.45,4.45,0,0,0-.51.56q-.66.58.36,0c-.23-.06-.44-.14-.66-.22a7.37,7.37,0,0,0-3.74-.74,8.49,8.49,0,0,0-2.16.62c-.31.13-.6.28-.89.43l-.59.31q-.51.25.18-.12c-.24-.4-.67-.64-.91-1.11s-.42-1.09-.7-1.61a2.86,2.86,0,0,0-2.26-1.67c-2.33-.3-4.42,1.13-6.33,2.24-.19.11-.41.21-.6.33s0-.06.22,0a3.11,3.11,0,0,1-1.49-1.27c-1.06-1.32-2.35-1.41-3.93-1-.6.14-1.55.75-2.13.73s-1.14-.65-1.44-1.06a8.82,8.82,0,0,1-1.24-4.22c-.07-.78-2.56.17-2.87.37,1.14-.75,1.19.05.31-.53a1.81,1.81,0,0,1-.68-.82c-.25-.64,0-1.35-.25-2-.43-1.25-2-1.12-2.58-2.13-.36-.68.39-1.25.56-1.85a2,2,0,0,0-.45-1.83c-.61-.79-3.29-2.54-2-3.76.25-.23.16-.44-.14-.53-.85-.28-2.22-.82-2.38-1.86s.82-1.73.45-2.79a6.33,6.33,0,0,0-1.79-2.14,3,3,0,0,1-.78-1.21c0-.14-.29-1.17-.08-1.25s.83-.41.68-.68a36.17,36.17,0,0,1-3.6-9.45C896.34,231.28,893.08,232.08,893.27,232.88Z"/><path class="cls-28" d="M1015,164.88c-3.23-3.45,1.16-9.68-1.29-13.74a30.69,30.69,0,0,1-1.94-2.67c-1.32-2.8,1.3-6.22.23-9.12-.48-1.3-1.64-2.28-2-3.62-.71-2.56,1.73-5,1.55-7.69-.21-3-3.63-5.61-2.42-8.33.6-1.32,2.15-2,2.67-3.39.91-2.37-1.65-5.6.21-7.3.65-.59,1.65-.72,2.19-1.41,1.08-1.39-.59-3.19-1.21-4.85s-.08-3.63-.23-5.46-1.76-3.88-3.43-3.18c1.07-2.84-.4-10.7-3.39-10.46-1.48.11-3.39.77-4.12-.53-.52-.93.13-2.16-.29-3.13-1.08-2.49-5.35,1-7.43-.71a12.26,12.26,0,0,1-1.27-1.79c-1.06-1.27-3-1.23-4.61-.83s-3.23,1.09-4.84.73-2.93-2.43-1.88-3.72A12.78,12.78,0,0,1,976,75.62c-1.94.07-4.08-1-4.54-2.94-.6,2.74-4.81,3.67-6.49,1.44-.66-.9-1.1-2.21-2.19-2.38a2.45,2.45,0,0,0-1.41.35c-2,1-4.79,6.92-5.92,8.84l1.29-12.14,33.76-3.61,27.08,17.7,9.12,35.73-13.21,48.49"/><path class="cls-10" d="M1016.47,164.19c-1.68-1.93-1-4.62-.66-6.91s.63-4.89-.73-7c-.79-1.2-1.94-2-2.07-3.58a18,18,0,0,1,.71-4.35,6.45,6.45,0,0,0-.27-3.79c-.6-1.36-2-2.46-2-4a11.64,11.64,0,0,1,1.14-3.87,6.65,6.65,0,0,0,.35-4c-.54-2-3.22-4.62-2.33-6.8.47-1.12,1.73-1.78,2.37-2.81a4.94,4.94,0,0,0,.45-3.62c-.18-1-.78-2.34-.49-3.37.14-.5.41-.6.85-.82a4.65,4.65,0,0,0,1.89-1.48c.88-1.35.25-2.72-.43-4a7.78,7.78,0,0,1-.92-2.23,14.51,14.51,0,0,1,0-3.09,5.72,5.72,0,0,0-1.3-4.36,3.82,3.82,0,0,0-4.06-1l1.82,1.19a12.52,12.52,0,0,0-.28-7.63,7.27,7.27,0,0,0-1.84-3.22,4,4,0,0,0-3.47-.78c-.56.08-1.5.41-1.88-.11s0-2-.2-2.8a2.78,2.78,0,0,0-2.95-1.78c-1.32,0-2.55.55-3.85.68a1.15,1.15,0,0,1-1.28-.58A6.11,6.11,0,0,0,993.27,76c-1.82-1-4.1-.68-6-.15-1,.3-2.48.93-3.51.32a1.66,1.66,0,0,1-.74-2.3c.85-1.24-1.62-1.37-2.24-1-1.44.77-3.13,1.84-4.82,1.69a3.23,3.23,0,0,1-2.85-2.24c-.42-1.44-3-.51-3.26.58a1.87,1.87,0,0,1-3.35.59c-.73-.88-1-2-2.15-2.5a4.21,4.21,0,0,0-3.73.33c-1.71.89-2.82,2.76-3.79,4.35s-1.9,3.47-2.89,5.18h3.18l1.29-12.14-1.8,1.26,29.55-3.17,4.21-.45-1.1-.21,21.83,14.27,4.45,2.91c.08,0,.7.54.78.51-.22.1-.45-.89-.21.07l2.91,11.4,4.14,16.21,1.45,5.7c.13.5.24,1,.39,1.52s0,.38.07.12c-2.13,7.57-4.14,15.18-6.2,22.76l-4.34,15.94c-.85,3.09-1.82,6.18-2.54,9.31l-.12.44c-.4,1.45,2.91,1,3.28-.29l8.61-31.6,4.23-15.54a3.73,3.73,0,0,0,.23-2.1c-.46-2-1-4-1.52-5.95l-5.28-20.69-1.85-7.27a8.77,8.77,0,0,0-.34-1.34c-.2-.44-.57-.61-1-.86l-15.14-9.9L995,66.39c-1.18-.77-2.83-2.36-4.33-2.33s-2.93.32-4.37.47l-9.79,1-18.5,2-1.1.11c-.66.07-1.72.47-1.8,1.26l-1.28,12.14c-.18,1.66,2.68.87,3.18,0,1-1.76,1.9-3.58,3-5.32a16.31,16.31,0,0,1,1.81-2.49l.28-.26c.07-.07.37-.05.15-.17s.2.32.26.39A6.64,6.64,0,0,1,963,74a5,5,0,0,0,5.36,2.39,5.58,5.58,0,0,0,4.77-3.87l-3.26.58a5.37,5.37,0,0,0,4.6,3.56c2.73.41,5.37-.86,7.71-2.11l-2.24-1a3,3,0,0,0,.8,4c1.53,1.35,3.67,1.21,5.54.78s4.09-1.61,5.36.34a4,4,0,0,0,3.58,2.25,31.52,31.52,0,0,0,4-.68c1.34-.14.6,2,.79,2.85.42,1.8,2.34,2.08,3.9,1.94.4,0,.79-.11,1.19-.16.15,0,.74,0,.54-.06a2.28,2.28,0,0,1,.89.93c1.34,2.06,2.06,5.88,1.24,8.25-.39,1.12,1,1.46,1.81,1.19.37-.12,1,.86,1.18,1.21a4.51,4.51,0,0,1,.37,1.92c0,1.57-.34,3.17.15,4.71.38,1.19,1.44,2.28,1.58,3.54.08.68-.2.8-.73,1.07a5.21,5.21,0,0,0-1.77,1.31c-1.63,2,.15,4.41,0,6.66-.09,1.19-1.05,1.81-1.8,2.62a4.31,4.31,0,0,0-1.29,3.4c.23,2.41,2.35,4.17,2.63,6.56.31,2.67-2.08,4.91-1.59,7.65.23,1.31,1.17,2.27,1.8,3.39a5.67,5.67,0,0,1,.22,4.17,15.14,15.14,0,0,0-.55,3.72,5.67,5.67,0,0,0,1.57,3.57,5.74,5.74,0,0,1,1.52,3.52,21.23,21.23,0,0,1-.43,4.2c-.37,2.47-.68,5.17,1.09,7.2.91,1,4-.22,3-1.39Z"/><path class="cls-25" d="M1014.68,187l-2.87.21a1.36,1.36,0,0,1-.87-.13c-.62-.41-.23-1.36,0-2.08.51-1.67-.37-3.4-1-5s-1.1-3.66.07-4.94c.62-.67,1.65-1.1,1.78-2,.18-1.19-1.27-1.86-2-2.78a2.94,2.94,0,0,1,1.45-4.48s-2-2.37-1.1-6.9,2.39-9.35,2.39-9.35l6.83-3.58Z"/><path class="cls-10" d="M1015.36,186.27l-2.15.16c-.91.06-1.08-.17-.88-1a6.2,6.2,0,0,0,.07-3.57c-.6-2-2.63-4.89-1-6.85.57-.68,1.5-1,1.83-1.91a1.94,1.94,0,0,0-.67-2.1c-.71-.73-1.61-1.22-1.78-2.32a2.68,2.68,0,0,1,.15-1.4,3.22,3.22,0,0,1,.25-.53c.2-.3.71-.54.1-.34.3-.1,1.85-.58,1.36-1.17-1.53-1.87-1.35-5-.88-7.25.61-2.93,1.37-5.83,2.25-8.69l-.65.55,6.84-3.58-2.57,0-4,35.89-.58,5.16c-.11,1,3.12.33,3.21-.53l4-35.88.58-5.16c.11-1-2.19-.23-2.57,0l-4.38,2.3c-1.16.6-2.88,1.09-3.28,2.42a53.38,53.38,0,0,0-2.4,10.14,8.19,8.19,0,0,0,1.38,5.84l1.36-1.17c-2,.65-4.37,2.59-3.22,5,.5,1.07,2,1.59,2.3,2.72s-1.51,1.9-2,2.8c-1.57,2.76,1.15,5.54,1.38,8.25.09,1-1,2.9,0,3.69a2.73,2.73,0,0,0,1.71.28c1,0,1.92-.14,2.87-.21.61,0,1.83-.22,2.17-.81S1015.87,186.23,1015.36,186.27Z"/><path class="cls-28" d="M906.65,74.51c.36,1-.94,1.68-1.95,1.76s-2.33.24-2.54,1.24c-.12.62.3,1.26.18,1.88-.38,1.9-4,.16-5,1.78-.79,1.21.69,3.25-.45,4.14-.53.43-1.3.23-2,.27a2.9,2.9,0,0,0-2.59,2.07c-.25.86-.11,1.85-.61,2.58s-1.84,1-2.83,1.38c-2.58,1.11-3.27,4.44-3.41,7.27s-.28,6.07-2.46,7.84c-1.92-1.77.25-3.45,1.89-5.49a14.48,14.48,0,0,0,1.52-1.8,1.79,1.79,0,0,0-.13-2.18c-.29-.25-.71-.38-.88-.73-.47-1,1.4-1.19,2.29-1.83,1.13-.81.53-2.61-.27-3.75s-1.74-2.62-1-3.79,2.28-1.06,3-2.07-.11-2.76.24-4.1c.48-1.79,2.75-2.24,4.58-2.34a2.91,2.91,0,0,1,1.39-4.37c.69-.2,1.53-.16,2-.71.7-.83,0-2.36.88-3s1.86,0,2.61-.5c1.2-.81-.16-2.86.53-4.14.92-1.69,4.64-.89,4.51-2.81"/><path class="cls-10" d="M905,75c.16.69-1,.51-1.49.62a5.05,5.05,0,0,0-2.32,1.07,2,2,0,0,0-.69,1.68,7.87,7.87,0,0,0,.18,1.35c.1.13.91,0,.59-.23,0,0-.3,0-.32,0a7.52,7.52,0,0,0-4.18.78c-1.27.77-1.45,1.9-1.24,3.26.05.31.05.71.13,1,.15.51-.29.2.25.28s.05-.11-.07-.13a5.15,5.15,0,0,0-2.82.6,4.68,4.68,0,0,0-1.88,1.56,6.35,6.35,0,0,0-.73,2.56c-.21,1-.61,1-1.49,1.31a7.46,7.46,0,0,0-2.21,1.13,7.12,7.12,0,0,0-2.38,3.77c-1,3.39.28,8.29-2.68,10.86l2.81-.37c-2.35-2.46,3.84-5.42,3.83-8.06,0-.89-.39-1.21-1-1.73-.22-.18-.36-.49-.54-.22.11-.15.61-.24.8-.33,1.28-.57,2.43-1.38,2.33-2.92s-1.43-2.71-2-4.2c-.69-2,1.31-1.94,2.43-2.94,1.36-1.23.75-2.69.8-4.26s1.41-1.79,2.79-1.89c.59,0,2.33-.67,1.73-1.53s-.6-2.32.24-2.93a4.55,4.55,0,0,1,1.1-.26,4.41,4.41,0,0,0,1.63-.79,2.36,2.36,0,0,0,.84-1.32,7.22,7.22,0,0,0,.17-1.67c-.12-.11-1,.16,0,.13a5.8,5.8,0,0,0,1-.12,3.87,3.87,0,0,0,1.82-.85,2.74,2.74,0,0,0,.65-2.65c-.1-.86-.31-1.62.49-2,1.38-.58,4.09-.66,4.11-2.72,0-1.33-3.23-.66-3.24.41,0,.27-.15.49,0,.36a4.6,4.6,0,0,1-1.3.33,5.84,5.84,0,0,0-2.73,1.42,3.42,3.42,0,0,0-.58,3,6.46,6.46,0,0,0,.07.78,1.16,1.16,0,0,1-.05.42l.83-.27c-.17-.27-1.93.13-2.2.21A2.74,2.74,0,0,0,896.37,72c0,.31,0,.62-.07.93s.12.22,0,.31c-.47.29-1.29.29-1.83.55a3.74,3.74,0,0,0-1.75,5.45l1.73-1.53a9.9,9.9,0,0,0-4.81,1.38c-1.59,1-1.76,2.45-1.6,4.22.11,1.21,0,1.71-1,2.23a5.11,5.11,0,0,0-1.87,1.31c-1.32,1.66,0,3.36.89,4.83.34.55,1,1.82.59,2.48-.29.46-1.32.64-1.78.92a1.89,1.89,0,0,0-1.1,1.39c0,.87.78,1,1.18,1.56.67,1-.45,2-1,2.61s-1.34,1.52-2,2.31c-1.15,1.4-1.77,2.91-.37,4.37.66.69,2.21.15,2.81-.37,2.81-2.45,2.51-6.09,2.87-9.47a8.12,8.12,0,0,1,1.62-4.65c1-1.15,2.86-1,4-2.12a3.68,3.68,0,0,0,1-2.34,3.58,3.58,0,0,1,.33-1.37c.27-.47.41-.47.87-.52,1.52-.19,3.68-.33,4-2.26a6.84,6.84,0,0,0-.18-1.91,9.21,9.21,0,0,0,0-1s0-.29-.15,0-.21,0,.12,0a7.08,7.08,0,0,0,4.11-.73A2.14,2.14,0,0,0,904,79c.06-.54-.31-1.18-.18-1.69,0-.15-.3.13,0-.07s.53,0,.73-.08c1.49-.19,4.23-1.1,3.79-3.08-.25-1.11-3.5-.3-3.25.87Z"/><path class="cls-29" d="M1019.15,169.81l-.07-3.95L978.72,154h0c-14.42-5.73-34.77-1.76-46.61,5.83l-10.4.5.1-.15c-12.08-9-32.18-10.46-47.62-3.39l.41,1.64h0c0,.1.1.34.18.68l.37,1.43c2.27,9.09,4.92,18.71,7.44,21.25,1.7,1.71,7.28,2.54,11.89,2.92,1.74.17,3.34.24,4.48.3,1.38.06,13.59.54,15.63-1.37s5.61-16.18,6.63-20.69l10.66-.47c1.33,3.51,4,18.62,9.19,21.7s31.82,1.94,34.3-1.78c1.76-2.67,6.81-12.29,8.14-17.23l2.25-6.37ZM913.37,182.23c-2.24,1.83-26.55,1.13-29.49-1.81-2.47-2.5-5.71-15.47-6.92-20.35v-.2c13.79-5.54,31.91-4.28,42.41,3.35-1.91,7.78-4.71,17.78-6,19Zm58.86-.92c-1.55,2.35-24.83,4.37-30.17,1.19-3.72-2.19-5.86-13.24-7.6-19.57,11.58-7.19,35.31-10.26,48.12-4.3-2.36,7.79-6,17-10.35,22.68Z"/><path class="cls-30" d="M913.11,182c1.28-1.19,4.08-11.19,6-19-10.5-7.63-28.61-8.89-42.4-3.34v.2c1.22,4.87,4.45,17.84,6.93,20.34,2.93,2.94,27.24,3.64,29.48,1.81Z"/><path class="cls-30" d="M972.23,181.31c4.64-6.26,8-14.89,10.35-22.68-12.81-6-36.54-2.89-48.12,4.3,1.74,6.33,3.88,17.38,7.6,19.57,5.34,3.18,28.62,1.16,30.17-1.19Z"/><path class="cls-7" d="M933.54,132.07s-10.58,7.67.32,12.88C933.86,145,928.76,140.05,933.54,132.07Z"/><path class="cls-7" d="M920.38,145.09c10.37-6.22-.88-12.85-.88-12.85s2.87,5.43,2.34,7.71S920.38,145.09,920.38,145.09Z"/><path class="cls-31" d="M925,214.15c8,0,25.59,4.66,29.13,7.61,0,0-9.11,6-27.62,6s-21.57-6-21.57-6S914.84,214.15,925,214.15Z"/><path class="cls-32" d="M946.61,218.48s-9.5-.73-17.07-.73-17.06.72-17.06.72-1.22-5.4,12.51-5.39S946.61,218.48,946.61,218.48Z"/><path class="cls-33" d="M926.5,225.38c8.67-1.18,17.53-4.23,27.63-3.62,0,0-2.84,11-24.6,11s-24.59-11.06-24.59-11.06C915.05,221.14,917.84,224.2,926.5,225.38Z"/><path class="cls-33" d="M915.54,210c4.57-.32,7.47,1.33,9.45,1.33s4.89-1.65,9.46-1.32c4.28.3,22.39,10.29,20.36,11.58s-16.06-6-29.82-6-18.69,7.31-20.71,6S911.26,210.33,915.54,210Z"/><path class="cls-10" d="M957.45,213.19c1.3,1.15,2.7,2.49,2.83,4.23a6.69,6.69,0,0,1-.21,1.89l-.6,2.89a1.08,1.08,0,0,1-.21.53,1.14,1.14,0,0,1-.57.28,4.51,4.51,0,0,1-2,.21,1.59,1.59,0,0,1-1.34-1.33,2.29,2.29,0,0,0-.05-.83c-.22-.5-.91-.43-1.44-.57-1.31-.34-1.59-2-2.17-3.28a6.94,6.94,0,0,0-4.2-3.35,13.36,13.36,0,0,1-2.6-1,2.66,2.66,0,0,1-1.44-2.24"/><path class="cls-10" d="M899.43,212.83c-1.29,1.17-2.67,2.52-2.77,4.27a6.65,6.65,0,0,0,.24,1.88l.64,2.88a1.09,1.09,0,0,0,.22.53,1,1,0,0,0,.57.27,4.5,4.5,0,0,0,2,.18,1.58,1.58,0,0,0,1.32-1.35,2.55,2.55,0,0,1,0-.83c.21-.5.91-.45,1.43-.59,1.31-.36,1.56-2.06,2.12-3.31a6.9,6.9,0,0,1,4.15-3.41,13.55,13.55,0,0,0,2.59-1,2.67,2.67,0,0,0,1.41-2.26"/><path class="cls-10" d="M957.89,210.24a4.58,4.58,0,0,0-3-1.83c-.67-.11-1.54.09-2-.42s-.61-1-1-1.47a3.57,3.57,0,0,0-3.41-.84,8.28,8.28,0,0,0-2,.71c-1.07.52.24,0,.28.13a8.49,8.49,0,0,1-.82-.44,4.23,4.23,0,0,0-2.79-1.11,5.29,5.29,0,0,0-1.91.49,5,5,0,0,0-.84.47l-.25.19c1-.12,1.2-.32.61-.6a7.6,7.6,0,0,0-1.27-1.33,3,3,0,0,0-1.55-.82,5.17,5.17,0,0,0-2.07.15c-.39.09-.77.27-1.16.36s-.23.21-.52-.26c-.55-.85-3.57.37-3.25.87.63,1,1.84,1,2.92.85.29-.05.58-.11.87-.19s.94-.46,1.14-.4c0,0,.57.58.57.58.27.26.49.55.74.82a3.39,3.39,0,0,0,3.41,1,4.76,4.76,0,0,0,2.07-.87l.25-.19c-1.29,0-1.66.12-1.12.34.11.17.56.35.74.48a4,4,0,0,0,3,1,6.83,6.83,0,0,0,2.07-.6s.92-.43.91-.45c-.7,0-.85.11-.43.25a1.66,1.66,0,0,1,.49.3c1,.83,1,2.11,2.55,2.31a7.52,7.52,0,0,1,2.12.27,4,4,0,0,1,1.65,1.39c.48.67,3.6-.38,3-1.14Z"/><path class="cls-10" d="M920.54,204.24a4.31,4.31,0,0,0-3.57.39,17,17,0,0,1-1.55.87c-.08,0-.4.1-.17.09a8.27,8.27,0,0,1-.87-.09,3.94,3.94,0,0,0-2.26.5,4,4,0,0,0-.86.73l-.17.22c-.4.41-.18.37.64-.11,0-.1-.62-.29-.77-.37a6.89,6.89,0,0,0-1-.49,3.35,3.35,0,0,0-2.21-.07,3.22,3.22,0,0,0-1.55,1c-.07.09-.92,1.18-.85,1.33s0,.11.19,0,.3-.1.06-.08a3.2,3.2,0,0,0-.89-.1,5.62,5.62,0,0,0-2,.13,3.67,3.67,0,0,0-1.66.91,2.37,2.37,0,0,0-.46.63l-.18.54c-.18.46,0,.44.62-.06a3.1,3.1,0,0,0-1.42.34,2,2,0,0,0-1.2,1.38c-.32,1.5,3,1.06,3.28-.29l0-.16-.29.56c-1,.33-1.25.46-.82.4l.32-.05a4.62,4.62,0,0,0,.74-.15,2.88,2.88,0,0,0,1.5-.93,2.38,2.38,0,0,0,.39-.8l.06-.26c.12-.27.07-.3-.15-.11-.78,0-.09.14-.11.11a4.27,4.27,0,0,0,.82.11,4.66,4.66,0,0,0,3.46-.84,4.29,4.29,0,0,0,1-1.17c.06-.1.3-.38.29-.5.15-.2,0-.19-.44.05-.57,0-.65.12-.24.25a4,4,0,0,0,1.38.7,3.85,3.85,0,0,0,1.84.27,3.64,3.64,0,0,0,1.7-.64,2.91,2.91,0,0,0,.67-.64l.17-.22c-.54.12-.59.19-.14.2a4.79,4.79,0,0,0,3.13-.58c.47-.23.9-.53,1.36-.78.16-.08.33-.17.5-.24-.19.08-.57,0-.15.14,1.27.53,3.77-1.3,1.9-2.08Z"/><path class="cls-10" d="M929,206.55l.91,4.51a1.65,1.65,0,0,0,1.4,1.31c4.76.6,22.89,2.86,27.21,2.74.1,0-.36,1.82-.26,1.8l1-.09c1.61-.34.37-5.8-1.17-6.38a90.49,90.49,0,0,0-11.46-3.59c-3.24-.71-12.19-2.4-16.08-2.3A1.65,1.65,0,0,0,929,206.55Z"/><path class="cls-10" d="M923.41,207.11l-.09,4.19a1.63,1.63,0,0,1-1.29,1.35c-4.42.75-18.91,3.25-22.92,3.27a1.24,1.24,0,0,1-.27,0l-1.28-.25c-1.49-.29-.69-3.69.73-4.32a70.15,70.15,0,0,1,9.49-3.68c3-.82,10.56-2.45,14.18-2.47A1.56,1.56,0,0,1,923.41,207.11Z"/><path class="cls-20" d="M705.42,677.39s-16.89-68,71.65-55.49c0,0-93.05-18.32-76.05,55.49Z"/><path class="cls-17" d="M852.56,583.89s-19.14,25.25-18.72,30.5c.15,2-.74,2.6.77,2.7,4.8.33,4.34,1,10,2.14,2.11.42,21.4,2.57,22.9,3.08,4.82,1.63,20.14-.37,20.14-.37Z"/><path class="cls-13" d="M962.66,425.06a.68.68,0,0,0-.2,0c-.05.25-.17.51,0,.76Z"/><path class="cls-13" d="M946.74,498.05a.77.77,0,0,0,.18.1l.1-.49Z"/><path class="cls-14" d="M903.83,412.21h.27l-.25-.16A.14.14,0,0,0,903.83,412.21Z"/><path class="cls-14" d="M941.6,420.45l-.23-.2-.09.13Z"/><path class="cls-14" d="M904.64,412.33l.36.08A.24.24,0,0,0,904.64,412.33Z"/><path class="cls-14" d="M961.83,424.91a.19.19,0,0,0-.3-.07Z"/><path class="cls-16" d="M418.6,641.28s-23.9-.27-65.1,3.31-58.48,4-58.48,4,113-10.29,123.58-7.33Z"/><path class="cls-4" d="M321,619s7.29,7.46,9.1,14.66S331.38,644,331.38,644a59.77,59.77,0,0,0-11,1.13,152.8,152.8,0,0,1-22.33,2c-5.71.07-83.83-2-107,4.82S110,663.84,105.29,684.52s-4.43,18.91.58,39.58c0,0-24.5-13-14.16-66.47s111.58-54.57,111.58-54.57L318.36,620Z"/><path class="cls-16" d="M323.36,786.36s4.41-23.82,16.56-37.37c0,0-18.3,16.69-21.4,37.91Z"/><path class="cls-4" d="M139.33,435.25,120.7,555.46l16.81,163.61-60.9,7.7L49.81,581.1a69.28,69.28,0,0,1-1.13-16.2C50.34,530.34,67.76,408,71.53,385c7-43,30.83-57.38,30.83-57.38Z"/><path class="cls-5" d="M152,387a46.72,46.72,0,0,0,0-8.69,54.82,54.82,0,0,0-31.8-45,48.45,48.45,0,0,0-8.16-2.94,11,11,0,0,0-3.06-.53c-.08.3,4.36,1.3,10.8,4.59a57.08,57.08,0,0,1,31,44c1,7.18.33,11.68.66,11.7A11.16,11.16,0,0,0,152,387Z"/><path class="cls-5" d="M148.93,412.1c-2.2,25.9-24.9,109.69-28.31,149.82l2.17,30.78c2.95,44.39,12.82,95.88,14.91,126.45l-.43.05-.27,0-.17,0c-.08-.73-.09-1-.17-1.76-2.2-30.39-12.09-81.19-15.23-124.79-.74-10.57-1.57-20.89-2.14-30.79,3.62-40.18,26.54-124,28.86-149.9Z"/><path class="cls-6" d="M145,803.4a2.48,2.48,0,0,1-1.14-.71s-.07,8.3-10.83.91c0,0-10.26,1.59-14.82-4.39,0,0-12.33-2.68-16.48-6.57s-11.3-42.2-11.3-42.2l1-25.15L127.93,720l.46,2.49s12.87,8,17.3,13.19a64.39,64.39,0,0,1,8.08,14.27l4.07,16.27c-7.85,4.19-16.44-13.41-17.49-13.2a7.42,7.42,0,0,0-5.78,8.75c1.23,7.92,2.6,17,2.59,18.33s7.18,9.25,12.63,15.05C153.08,798.53,149.71,804.79,145,803.4Z"/><path class="cls-7" d="M123.65,771.89a40.38,40.38,0,0,0,4.09,15.3,35.6,35.6,0,0,0,11.06,11.06,31.56,31.56,0,0,1,5.36,4,21.37,21.37,0,0,1-6.06-2.93,31.64,31.64,0,0,1-11.93-11.21,35.56,35.56,0,0,1-3.74-16,22.43,22.43,0,0,1,.33-6.84A30.33,30.33,0,0,1,123.65,771.89Z"/><path class="cls-7" d="M114.43,775.2a62.21,62.21,0,0,0,1.16,6.47,20.28,20.28,0,0,0,3,7.28,40.18,40.18,0,0,0,5.46,5.68c1.86,1.66,3.5,3.2,4.84,4.51a21,21,0,0,1,4.17,4.51,20.73,20.73,0,0,1-5-3.55L123,795.88a36,36,0,0,1-5.82-5.88,20.62,20.62,0,0,1-3-7.9,45.2,45.2,0,0,1-.81-6.76,12.8,12.8,0,0,1,.66-6.25A45.36,45.36,0,0,0,114.43,775.2Z"/><path class="cls-7" d="M105.41,778.72c.77,2.66,1.83,6.27,2.83,10.41a5.25,5.25,0,0,0,1.31,2.24,25.45,25.45,0,0,0,1.85,2,42.32,42.32,0,0,0,3.48,3.08c2.08,1.68,3.52,2.49,3.45,2.71s-1.79-.22-4.17-1.69a24.32,24.32,0,0,1-3.88-3,21.19,21.19,0,0,1-2.06-2.07,6.7,6.7,0,0,1-1.7-3c-2-8.09-3.29-14.93-2.58-15A20.07,20.07,0,0,1,105.41,778.72Z"/><path class="cls-7" d="M283.63,183.36s-11.59,7-.67,13.24C283,196.6,278.05,191.16,283.63,183.36Z"/><path class="cls-7" d="M268.94,194.33c11.25-5.58.09-13.26.09-13.26s2.55,5.79,1.83,8.09S268.94,194.33,268.94,194.33Z"/><path class="cls-31" d="M269.09,254.36c-7.46-.78-24.38,1.79-28,4.17,0,0,7.94,6.46,25.25,8.26s20.75-3.45,20.75-3.45S278.59,255.35,269.09,254.36Z"/><path class="cls-32" d="M248.65,255.59s8.94.63,16,1.66,15.78,3,15.78,3,1.86-4.79-10.91-6.67S248.65,255.59,248.65,255.59Z"/><path class="cls-33" d="M266.43,264.69c-7.9-2.27-15.73-6.29-25.21-7.12,0,0,1.15,10.55,21.38,13.52s24.37-6.8,24.37-6.8C277.65,262.36,274.65,264.79,266.43,264.69Z"/><path class="cls-33" d="M278.7,252.08c-4.2-.92-7.13.2-9-.07s-4.33-2.19-8.62-2.52c-4-.3-22.21,6.4-20.5,7.87s15.75-3.36,28.55-1.48,16.39,9.29,18.45,8.38S282.64,252.94,278.7,252.08Z"/><path class="cls-17" d="M1151.34,558.69c-5.17-7.62-13.69-1.67-19.35-8.85-6.15-7.79-18.55-6.78-25.94-13.1-5.83-5-16.45,9.49-23,5.68l6.76-88.09-10.74-31.71s.63-34.57,12.51-63.41,25.08-65.47,25.08-65.47,28.87,8.18,40,59.78c5.32,24.53,7.52,92.51,7.52,92.51s4.38,75,3.84,90.75c-1.07,31.31-11.59,54.63-27,66.64"/><path class="cls-17" d="M979.71,640.39l46.79-28.64,46.77-40c7.87-2.51,5.92,3.7,14.1,2.75,9-1-20.69-39.45-11.71-38.9,8.62.53,29.24-1.4,37.79-.15,8.82,1.29,26.26,7.82,34.74,10.6,1.08.35,13.81,3.53,14.89,3.92-1,5.09-14,44.84-17.91,50-18.65,24.5-103.58,72-103.58,72l-26.42,13.46Z"/><path class="cls-6" d="M904.35,702.24c-3.23-1.26-6.24-3-7.07-6.68-.33-1.43.84-2,1.14-3.67l23.34-28.24c-6.3-2.54-18.39,9.3-24.08,5.58s1.1-7.13,2.25-8.33,23.77-15.37,23.77-15.37,23.15-5.21,28.8-5.08S974,643.3,974,643.3l7,.73s19.13,23.93,25.27,32.75c.58.83-11.7,5.17-17.51,11.77S967.35,704,967.35,704s-28.62,9.73-32.69,9.19-10.15-6.11-10.15-6.11a30.44,30.44,0,0,0-7.72,1c-6.94,1.26-11.78-6.24-11.78-6.24l.06,0Z"/><path class="cls-7" d="M918.83,667.21a94.15,94.15,0,0,0,10.38-8.64,52.83,52.83,0,0,0,9.89-9.3,57,57,0,0,0-11,8A38.56,38.56,0,0,0,918.83,667.21Z"/><path class="cls-7" d="M938.46,677.58c-.25-.48-8,4.16-16.5,11.15-4.27,3.46-8.07,6.71-10.83,9a26.18,26.18,0,0,0-4.38,3.9,16.64,16.64,0,0,0,5.1-3c3-2,6.89-5.14,11.16-8.6C931.49,683.09,938.67,677.92,938.46,677.58Z"/><path class="cls-7" d="M949.64,688.57c-.35-.34-5.34,4.52-12.22,9.57s-13,8.4-12.92,8.74a41,41,0,0,0,13.78-7.48A42,42,0,0,0,949.64,688.57Z"/><path class="cls-18" d="M1084.66,482.42c-.74-7.22-2.51-38-3.08-43.43-.6-6.29-1.1-11.11-1.43-14.82a36,36,0,0,1-.33-3.7c0-.46-.78-19.87-.72-20.32.1.43.92,19.82.94,20.25.11.86.28,2.12.51,3.72.44,3.7,1,8.56,1.83,14.83.54,4.76,2.88,33.54,3.56,39.68C1085.73,479.52,1084.88,481.53,1084.66,482.42Z"/><path class="cls-18" d="M987.56,652c-3.06-3.84-6.09-7.66-8.88-11.25l-.76-.63.8-.57,40.34-29.82,45.88-47a3.4,3.4,0,0,1,.24.66l.27.79-45.18,46.94-39.48,29.27c2.65,3.37,5.45,6.91,8.29,10.48l26,33.66c30-16,66.36-38.43,97.18-56.5.37.31.14,1,.51,1.27-32,19.17-67,41.09-97.39,57.3l-.69.39-.59-.5C1005.56,675.64,996.87,663.78,987.56,652Z"/><path class="cls-18" d="M1128.11,543.06a51.27,51.27,0,0,0-37.57-4.29c.09.57,8.63-.77,19,.48S1127.91,543.6,1128.11,543.06Z"/><polygon class="cls-18" points="1063.71 563.97 1089.85 538.7 1084.1 475.52 1085.79 474.03 1091.86 539.28 1063.71 565.96 1063.71 563.97"/><path class="cls-18" d="M1107.39,300.15s-35.7,9.31-28.29,73.66C1079.1,373.81,1063.27,313.92,1107.39,300.15Z"/></g></svg>