<svg xmlns="http://www.w3.org/2000/svg" viewBox="0 0 1221.96 991.43"><defs><style>.cls-1{fill:#f2ebd1;}.cls-2{fill:#956243;}.cls-3{fill:#6e8c53;}.cls-4{fill:#bb997a;}.cls-5{fill:#a56530;}.cls-6{fill:#8c542a;}.cls-7{fill:#656766;}.cls-8{fill:#383838;}.cls-9{fill:#565353;}.cls-10{fill:#273339;}.cls-11{fill:#465b65;stroke:#465b65;}.cls-11,.cls-16,.cls-20,.cls-21,.cls-27,.cls-36{stroke-miterlimit:10;}.cls-12{fill:#f8e494;opacity:0.51;}.cls-13{fill:#653c2a;}.cls-14{fill:#151210;}.cls-15{fill:#010101;}.cls-16,.cls-21{fill:none;}.cls-16{stroke:#010101;stroke-width:0.84px;}.cls-17{fill:#24180f;}.cls-18,.cls-35{fill:#fff;}.cls-19{fill:#653c29;}.cls-20{fill:#374923;stroke:#374923;}.cls-21{stroke:#653c2b;stroke-width:0.8px;}.cls-22{fill:#abaeaf;}.cls-23{fill:#59341c;}.cls-24{fill:#231f20;}.cls-25{fill:#eb9944;}.cls-26{fill:#3a3a3a;}.cls-27{fill:#1d1e1e;stroke:#1d1e1e;}.cls-28{fill:#825639;}.cls-29{fill:#161312;}.cls-30{fill:#171514;}.cls-31{fill:#181615;}.cls-32{fill:#714534;}.cls-33{fill:#191716;}.cls-34{fill:#040404;}.cls-35{opacity:0.14;}.cls-36{fill:#666766;stroke:#666766;}</style></defs><g id="Layer_1" data-name="Layer 1"><polyline class="cls-1" points="1221.96 991.43 1221.96 0 0 0 0 991.43"/><path class="cls-2" d="M632.45,340.32,623.51,337,616,356.45l.14,5.5,9.37,3.24C634.43,355.75,630.53,347.69,632.45,340.32Z"/><path class="cls-3" d="M446.81,569.74a81.41,81.41,0,0,1,7.48-32.52c3.79-8.48,9.2-17.26,17.23-22.58l-13.07-62.12c-3.24-12.35-8.81-20.48-15.36-25.31l-12.88-7.87c-5.69,23.4-4.16,48.48-8.14,72.21-1.88,11.18-3.38,22.41-4.41,33.68l2.33-4.47c3.5,17.09,9.84,59.22,27.4,63.27.55.13,1.1.24,1.65.34A45.45,45.45,0,0,1,446.81,569.74Z"/><path class="cls-2" d="M389.21,357.42S379.4,392,371.55,401.13c-1.9,2.22-22.18,7.72-22.18,7.72L389,442.54l67.53,6.56s-29.95-27.07-29.7-30.51,8.73-24.74,8.73-24.74"/><path class="cls-3" d="M429.13,575.57c0-4.35,2.54-12.43,2.67-16.77.43-13.52-.48-23.22,2.78-36.35,2.66-10.71,6.6-21,10.22-31.43,3.84-11,7.52-22.15,9.65-33.63,1.41-7.65,2.22-15.8.87-23.55a16.51,16.51,0,0,1-6-2.17l-20.44-10.31c-15.06,29.12-47.71,9.58-60.91-24.1,0,0-21.19,3.14-42.16,7.67-4.22.92-10.87,3.76-17,7.19a5.45,5.45,0,0,1,.42,3.72c-1.51,7-5.18,12.76-9.43,18.43-4.54,6.05-8.81,12.14-12.76,18.6s-7.6,12.94-11.45,19.39c-3.56,6-6.91,11.9-8.78,18.53l12.71,16.91,3.59,15c-7.78,22.13-9.24,45.06-16.19,81.15-.91,4.84-1.92,3.1-2.81,7.95-.52,2.88-8.57,10.87-9.25,42.24-.25,11.35,10.59,36.68,13.14,38.22,27.24,16.54,102.64-10.48,102.64-10.48,12.64,1.14,23.06,2.48,35.13-.46,8.55-2.09,10.55-4.06,15.52-6.67.25-10.69,17.13-33.31,8.06-63.55C425.57,598.36,426.75,587.59,429.13,575.57Z"/><polyline class="cls-4" points="0.13 990.43 1222.09 990.43 1222.09 925.27 0.13 925.27"/><path class="cls-5" d="M343.1,723.06q41,0,82,0c11.75,0,13.92,5.44,13.91,16.59,0,10.25-2.35,16.27-14.24,16.29a59.7,59.7,0,0,1-8-.05c-7.87-1-9.45,1.81-8.41,7.76,10.06,58.06,19.88,112.15,29.92,170.21.68,4,.06,5.52-5.38,5.58-13.56.17-13.84.43-15.72-10.44q-9.62-55.56-18.74-111.18c-.81-5-2.9-6.56-9-6.51q-46.61.38-93.22,0c-6-.05-7.7,1.73-8.44,6.29-6.37,39-13,78.07-19.47,117.12-.6,3.64-2.41,4.72-6.73,4.79-14,.21-14.36.31-12.56-10.65,6.51-39.7,13.28-79.37,20-119,2.86-16.88,5.71-29.75,8.82-46.59,1-5.2-.16-8.15-7.46-7.16-1.56.22-3.22-.06-4.81,0-21,1.45-19.25-13.2-18-26.75.47-5.25,6-6.49,12.08-6.46,27.86.13,55.72,3.39,83.58,3.39Zm-.66,75c15.51,0,31-.12,46.55.07,4.75.06,6.87-.8,6.06-5.18-2.5-13.55-4.77-17.7-6.93-31.29-.65-4.12-2.39-5.87-8-5.8-24.61.31-49.23.35-73.83,0-6.1-.09-7.79,1.82-8.48,6.18-2.06,13.16-4.26,16.87-6.71,30-.84,4.54.39,6.3,6.42,6.16C312.47,797.8,327.46,798,342.44,798Z"/><path class="cls-6" d="M269,809.87q-1.55,9.2-3.11,18.37c6.51,1.25,13,2.73,19.44,4.26q1.21-7.43,2.44-14.84c.74-4.55,2.48-6.33,8.44-6.29q46.6.39,93.22,0c6.12,0,8.21,1.47,9,6.51.78,4.8,1.58,9.6,2.37,14.4a179.3,179.3,0,0,0,18.24-7.59c-3.55-20.07-7.1-40.27-10.69-61a11.31,11.31,0,0,1,0-4.82q-6.37.4-12.75.64-3.92.15-7.84.23a11.79,11.79,0,0,1,.45,1.9c2.16,13.59,4.43,17.74,6.93,31.29.81,4.39-1.31,5.24-6.06,5.18-15.52-.18-31-.07-46.55-.07-15,0-30-.21-44.94.11-6,.13-7.26-1.62-6.42-6.16,2.45-13.11,4.65-16.82,6.71-30a8.41,8.41,0,0,1,1.53-4.08c-7.38-.22-14.76-.4-22.14-.48,1,1.26,1,3.26.57,5.8C274.7,780.12,271.85,793,269,809.87Z"/><path class="cls-6" d="M247.2,732.14s89,16,127.35,11.16,64.24-9,62.68-14.8-28.71-18.28-56.06-19.16-102.31,5.84-102.31,5.84-25.16,4.14-27.8,7.73S247.2,732.14,247.2,732.14Z"/><polygon class="cls-2" points="455.5 905.75 490.39 903.49 489.28 883.76 454.39 886.02 455.5 905.75"/><path class="cls-7" d="M446.06,923.16s-4.26,7-2.42,10.12,17,3,21,3.22,55.76,3.19,60.88,3,32.51-3.34,36-9.75c0,0,6-10.81-3.43-13.81s-16.19-1.28-25.09-5.2a91.9,91.9,0,0,1-27.58-19.23s-8.85-7.14-12.77-5.72-7.95,9.64-11.09,11.74-18.56,5.46-23.06-2.22-5.45-4.6-8.43-3.26-7.19,15.52-5.6,21.89S446.06,923.16,446.06,923.16Z"/><path class="cls-8" d="M446.06,923.16s23.21,1,33.39,4,36.95,7.21,50.78,6.45S563,926.08,563,926.08s1.42,2.12-4.36,6.26-24.32,7.72-40.64,6.94-40.2-1.57-45.2-1.55-25.87-.27-28.88-4.1C441.41,930.42,446.06,923.16,446.06,923.16Z"/><path class="cls-9" d="M479.79,899.4a37.62,37.62,0,0,0,10.81,3c4.77.71,10.06.28,14.09,3.37,1.76,1.36,3.2,3.06,4.84,4.54a26.17,26.17,0,0,0,6.22,4.25,19.48,19.48,0,0,0,7.87,1.88,33.22,33.22,0,0,0,9.31-1.58l6.63-1.76c1.1-.29.91-1-.2-.73l-4.2,1.11c-3,.8-6.06,1.88-9.18,2.05a17.85,17.85,0,0,1-8.57-1.7,24.9,24.9,0,0,1-6.13-4.2c-1.64-1.48-3.09-3.18-4.85-4.53-3.45-2.65-7.78-2.86-11.95-3.25a38.5,38.5,0,0,1-13.18-3.29c-.45-.22-2.17.48-1.51.8Z"/><path class="cls-9" d="M553.86,915.26a2.7,2.7,0,0,1-1.65,2.55,12.08,12.08,0,0,1-4.36.59c-1.43.08-2.85.19-4.27.35a36.38,36.38,0,0,0-8.69,1.9,12.22,12.22,0,0,0-6.19,4.79,38.57,38.57,0,0,0-4,7.36c-.21.55,1.64.33,1.86-.25A36.21,36.21,0,0,1,530,926a10.87,10.87,0,0,1,3.09-3.48,15,15,0,0,1,4.08-1.72,44.67,44.67,0,0,1,9.28-1.4c2.56-.17,5.43,0,7.62-1.59a3.55,3.55,0,0,0,1.62-3.07c-.06-.55-1.94-.16-1.87.5Z"/><rect class="cls-2" x="421.58" y="899.55" width="44.13" height="19.76" transform="translate(887.3 1818.87) rotate(-180)"/><path class="cls-7" d="M414.86,936.29s-4.65,6.72-3,10,16.83,4,20.81,4.4S488.17,957,493.29,957s32.65-1.51,36.53-7.71c0,0,6.6-10.46-2.65-14s-16.09-2.19-24.76-6.6A92,92,0,0,1,476,908s-8.43-7.62-12.43-6.43-8.47,9.18-11.72,11.1-18.84,4.41-22.91-3.51-5.17-4.9-8.23-3.73-8.05,15.1-6.81,21.55S414.86,936.29,414.86,936.29Z"/><path class="cls-9" d="M414.55,935.86c-1.69,2.47-3.67,5.9-3.38,9,.32,3.31,4.88,3.94,7.46,4.43,5.66,1.08,11.44,1.32,17.16,2,14.35,1.6,28.69,3.23,43,4.72,4.81.5,9.69,1.2,14.53,1.34a112.47,112.47,0,0,0,20-1.63,63.27,63.27,0,0,0,11.78-2.7c2.28-.81,4.89-1.89,6.22-4a14.57,14.57,0,0,0,2.27-7.5,7.07,7.07,0,0,0-1.77-4.77c-1.8-1.93-4.56-2.71-7-3.4-5.93-1.67-12.21-1.83-18-4s-11.23-5.89-16.12-9.62a97,97,0,0,1-7.87-6.73c-1.94-1.87-3.66-4-5.62-5.82a31.57,31.57,0,0,0-8.42-5.74,7.48,7.48,0,0,0-4.84-.7c-1.14.3-.84,1.44.3,1.14,1.58-.41,3.53.72,4.84,1.46a36.37,36.37,0,0,1,4.73,3.25,19.52,19.52,0,0,1,2.48,2.24,97.05,97.05,0,0,0,7.12,7.08A92,92,0,0,0,498,926.55a50.73,50.73,0,0,0,7.73,3.87,46.1,46.1,0,0,0,8.34,2.1c3,.51,5.93.93,8.84,1.68,2.54.67,5.62,1.36,7.41,3.45,2.23,2.6,1.5,6.38.24,9.26a7.16,7.16,0,0,1-3.46,3.94,37,37,0,0,1-10.17,3,131.85,131.85,0,0,1-21.54,2.19,101,101,0,0,1-12-.94c-14.35-1.46-28.69-3.08-43-4.69-4.25-.48-8.49-.87-12.74-1.28-3.93-.37-8.07-.71-11.82-2-1.19-.43-2.39-1-2.66-2.3-.38-1.92.62-4.09,1.45-5.77a26.44,26.44,0,0,1,1.77-3c.54-.78-1.36-.74-1.77-.14Z"/><path class="cls-8" d="M414.86,936.29S438,938.57,448,942.11s36.48,9.27,50.33,9.28,33.14-5.63,33.14-5.63,1.3,2.2-4.7,6-24.71,6.35-41,4.66-40-3.83-45-4.09-25.81-1.72-28.6-5.71C409.8,943.27,414.86,936.29,414.86,936.29Z"/><path class="cls-9" d="M448.91,941.86a38.76,38.76,0,0,0-4.6-13,21.15,21.15,0,0,0-7.29-7.88,33.81,33.81,0,0,0-6.86-2.79,69.82,69.82,0,0,0-6.94-1.9,36.33,36.33,0,0,0-7.27-1c-1.08,0-1.42,1.4-.15,1.41H416l1.19.09c1.32.13,2.64.33,3.95.58a52.88,52.88,0,0,1,13.65,4.23c6,3,9.29,9.8,11.13,15.95a36,36,0,0,1,1.15,4.82c.13.89,2,.42,1.87-.5Z"/><path class="cls-9" d="M449.89,914.54a37.6,37.6,0,0,0,10.69,3.66c4.69,1,10,.84,13.8,4.13,1.74,1.5,3.13,3.35,4.76,5a25.67,25.67,0,0,0,5.68,4.37,19.62,19.62,0,0,0,7.67,2.38c3.28.29,6.41-.4,9.6-1.06l6.72-1.38c1.14-.24.88-1.14-.24-.9l-4.4.9c-3.09.64-6.23,1.54-9.41,1.49a17.8,17.8,0,0,1-8.16-2.16,24.69,24.69,0,0,1-5.94-4.58c-1.54-1.56-2.88-3.32-4.54-4.75-3.3-2.85-7.61-3.31-11.77-3.93a38.47,38.47,0,0,1-13-4c-.51-.29-2.23.47-1.49.88Z"/><path class="cls-9" d="M522.94,934.5a2.75,2.75,0,0,1-1.81,2.51c-1.35.51-3,.28-4.39.29s-2.92,0-4.38.13a35.81,35.81,0,0,0-8.67,1.44,12.26,12.26,0,0,0-6.45,4.43,38,38,0,0,0-4.4,7.11c-.17.36,1.62.2,1.85-.31a35.93,35.93,0,0,1,3.84-6.34,11,11,0,0,1,3.28-3.32,14.93,14.93,0,0,1,4.25-1.49,47.32,47.32,0,0,1,9.28-.82c2.58,0,5.4.25,7.68-1.21a3.47,3.47,0,0,0,1.79-2.92c0-.39-1.9-.07-1.87.5Z"/><path class="cls-1" d="M468.22,911.58l-.05-.06c-.39-.43-.11-1.24.61-1.81l5.21-4.1c.72-.57,1.63-.68,2-.25l.05,0c.38.43.11,1.25-.61,1.82l-5.21,4.1C469.51,911.9,468.61,912,468.22,911.58Z"/><path class="cls-1" d="M474.24,914.69l-.15-.16c-.28-.3,0-1,.68-1.49l3.87-3.07c.65-.51,1.41-.69,1.69-.38l.14.15c.28.31,0,1-.67,1.49l-3.87,3.07C475.28,914.82,474.52,915,474.24,914.69Z"/><path class="cls-1" d="M479.21,917.66l-.25-.27c-.25-.27,0-.87.61-1.34l2.76-2.19c.59-.46,1.27-.62,1.52-.35l.25.27c.25.27,0,.88-.61,1.34l-2.76,2.19C480.14,917.78,479.46,917.93,479.21,917.66Z"/><path class="cls-1" d="M483.21,920.83l-.29-.32c-.29-.32-.05-1,.54-1.43l2.76-2.18c.59-.47,1.31-.58,1.6-.26l.29.32c.29.32.05,1-.54,1.43l-2.77,2.18C484.22,921,483.5,921.15,483.21,920.83Z"/><path class="cls-10" d="M539.61,680.69c-8.54,43.5-21.33,149.13-33.93,202.07,0,0-56.36,10.2-61.75-1.89,0,0,3.07-106.8-13-172.23C416.73,651,382,634.1,396.5,629.82c22.78-6.75,110.94-16.79,124.18-8C536.58,632.39,546.33,646.43,539.61,680.69Z"/><path class="cls-1" d="M494.2,894.81l-.06,0c-.45-.36-.32-1.22.3-1.9l4.44-4.92c.62-.68,1.49-.94,1.95-.58l.06,0c.45.36.32,1.22-.3,1.9l-4.44,4.92C495.53,894.91,494.66,895.17,494.2,894.81Z"/><path class="cls-1" d="M500.66,896.87l-.17-.14c-.33-.25-.14-1,.41-1.58l3.3-3.68c.56-.61,1.28-.92,1.6-.66l.17.13c.33.25.14,1-.41,1.58l-3.3,3.68C501.71,896.82,501,897.12,500.66,896.87Z"/><path class="cls-1" d="M506.06,899l-.29-.23c-.29-.23-.13-.87.37-1.42l2.36-2.63c.49-.55,1.14-.82,1.44-.6l.29.23c.29.22.12.86-.38,1.42l-2.35,2.63C507,898.91,506.35,899.18,506.06,899Z"/><path class="cls-1" d="M510.53,901.4l-.33-.26c-.35-.27-.22-.94.28-1.5l2.37-2.62c.5-.56,1.18-.79,1.52-.52l.34.26c.34.27.21,1-.29,1.5l-2.36,2.62C511.56,901.44,510.88,901.67,510.53,901.4Z"/><path class="cls-10" d="M494.15,707.3c.54-3.35,1.26-6.68,2.11-10a141,141,0,0,1,7.62-21.64A150.81,150.81,0,0,1,515.05,655a125.85,125.85,0,0,1,9.49-12.87c-68.56-15.07-212-7.6-212-7.6S259,647.22,271,692c16,59.35,169.36,30.52,222.36,15.52Z"/><path class="cls-10" d="M506,657.53a92.7,92.7,0,0,0-18.86,1.81,49.1,49.1,0,0,0,1.59-9.11c-1.21-1.07-2.47-2.17-3.79-3.28a122,122,0,0,0-17.45,9.44,149.23,149.23,0,0,0-18.45,14.06,134.63,134.63,0,0,0-15.54,16.3q-2,2.49-3.85,5.12l.59.09c-17.73,27.35-9.4,80.31-14.6,130.52-4.56,44.09-5.09,49.6-9.28,72.92C413,906.45,471,902.73,471,902.73,483.11,835,506,657.53,506,657.53Z"/><path class="cls-11" d="M471,895.4C481.6,828,506,657.53,506,657.53h2.77L472.91,895.27Z"/><path class="cls-10" d="M508.79,657.53s5.34-29.33-18.92-32c-25.25-2.75-170.6,8.73-170.6,8.73l189.52,23.24"/><path class="cls-11" d="M506,657.53s6.3-25.64-24.51-33c0,0,31.87,2.09,27.28,33Z"/><path class="cls-11" d="M484.56,625.06s-16.14-.17-44,2.24-39.5,2.71-39.5,2.71,76.29-7,83.47-5Z"/><path class="cls-11" d="M420.23,723.06s3-16.09,11.18-25.24c0,0-12.36,11.28-14.45,25.61Z"/><polygon class="cls-12" points="321.55 403.57 317.39 412.37 307.87 411.11 314.81 417.81 310.65 426.62 319.11 421.96 326.05 428.67 324.33 419.08 332.79 414.42 323.27 413.15 321.55 403.57"/><path class="cls-13" d="M446.53,402.09c-3,2.24-5.89,4.65-9,6.75a.35.35,0,0,0-.1.11.41.41,0,0,0-.6-.13c-2.14,1.4-5.33,1.41-7.35,3-1.75,1.37-1.89,4-2.76,6.08-1.61-.31-3.69-1.18-5.66-1.74-12.94-4.85-11.9-6.82-26.16-23.33-4.48-5.18-1.73-9.1-2.5-10.26C410.41,388.44,427.87,395.45,446.53,402.09Z"/><path class="cls-14" d="M382.81,331s.34-8.9,4.13-29.07c3.39-18.07,35.36-22.59,52.5-19.34,9.43,1.79,37.94,16.23,44.35,22.62s6.72,18.3,2.28,33.61c0,0,.59-16.57-9-19.61-7.84-2.49-31.43-15.26-39-14.81S414,305.53,405,328.81c-2.47,6.35-11.42-4.47-15.93-1.72S382.81,331,382.81,331Z"/><path class="cls-2" d="M385.9,363.05l5.7-24,8.12-26.25,17.15-16,21.58-2.33,20.64,8.15s15.23,10.13,20,13.43,6.17,11.07,7.16,19.56-4.84,19.91-4.84,19.91a10.78,10.78,0,0,1-1.33,2.48c-2.77,4.43-4.61,8.52-6.76,11.8a9.37,9.37,0,0,0-1.63,4.92c-.23,7-1.23,9.66-3.12,13.31-2.57,5-5.13,9.09-8.54,12.52-3.61,3.63-7.88,7.42-8.73,8.15,0,0-9.26,7.72-10.85,8.23a11.32,11.32,0,0,1-4.68.52c-.91-.22-12.66-3.62-12.66-3.62l-5.28-2.05a14.38,14.38,0,0,1-4.83-3.08c-3.77-3.62-14.42-14.22-17-17.94-3.53-5-4.18-20.8-4.18-20.8"/><path class="cls-14" d="M399,342.6c-.63,2-3.56,9.92-4.05,11.95l-10.23-4c-.6-8-1.4-17.35-1.91-19.61-.79-3.54,4-17.51,5.78-22.77l.39-1.14c1.71-5.05,9.4-11.25,20.58-16.59,12.29-5.87,30.08-5.26,45.3,1.56,1.45.65,2.87,1.35,4.23,2.08,12.84,7,21.64,17.87,26.15,32.39,3.26,10.48.25,20-2.36,25.5a53.68,53.68,0,0,0,2.64-21.16c-.94-9-4.9-13-8.06-14.68a12.05,12.05,0,0,0-5.72-1.5c-3.57-.46-8.23-2.68-11.53-4.47-2.45-1.33-4.35-2.53-4.86-2.86a19.44,19.44,0,0,0-6.66-5.36c-7.08-3.85-18.41-6.49-21.85-4-3.82,2.75-14.17,13.72-15.32,16.75"/><path class="cls-2" d="M386.69,363.92c-8.31,3.89-7.87-9.36-7.87-9.36-3.13-9.16-.31-16.56,1.84-21.55s7.68-2.78,7.68-2.78c4.53,2.32,5.68,5.67,3.55,23.13"/><path class="cls-14" d="M486,324.69c-1.37-6.85-5.46-16.34-7.29-23.09-1.76-.86-10.69-4.45-12.56-5.24-19-8.05-49.07-6.69-54.19-.61-3.2,3.8-11.13,28-11.1,30.51a71.41,71.41,0,0,1-2,14.95c4.16-8.64,14.3-16.2,16.26-19s3.34-18.85,4.56-19.09,20.86,1,40.42,8.71a156.35,156.35,0,0,1,16.3,7.6C476.46,319.39,486.06,324.76,486,324.69Z"/><path class="cls-14" d="M461.07,359.24s2.39,6.41,5.39,8c4.38,2.28,6,1.61,8.53-.05,0,0-3.94,1.22-7-.48S461.07,359.24,461.07,359.24Z"/><path class="cls-14" d="M421.59,344.06s4.54,7.37,7.7,8.94c4.61,2.28,11.5,1.93,14.07.25,0,0-9.28.91-12.48-.79S421.59,344.06,421.59,344.06Z"/><path class="cls-14" d="M449,333.41c-.08,1.29-.17,2.58-.26,3.88-.07,1-.15,3.24-.23,4.22-3.09-1-5.85-2.46-7.86-2.95-4-1-8.05-2.24-12.17-1.88a13.81,13.81,0,0,0-5.42,1.45c-.53.28-2,1.55-2.76,1.15-.3-.17.32-1.72.38-1.88,1.27-3.14,4.11-4.29,7.53-4.83,7-1.11,13.87-.49,20.79.84"/><path class="cls-14" d="M480.58,357.18l-1-2c-2.77-5.52-6.87-9.92-11.54-13.92-1,.86-1.46,1.87-2.44,2.73-.74.66-1.59,2.09-2.32,2.75,2.43,1.51,3.73,2.17,5.17,3.27,2.84,2.17,5.88,4.43,7.75,7.51.15.25,1.82,2.56,1.95,2.8A3.7,3.7,0,0,0,480.58,357.18Z"/><path class="cls-15" d="M446.28,381a6,6,0,0,1-5.11-2.37c-.25-.34-1.43-.57-1.08-.09a8.52,8.52,0,0,0,7,3.11c.23,0,.25-.2.05-.37a1.36,1.36,0,0,0-.86-.28"/><path class="cls-15" d="M439.62,377.84a9.74,9.74,0,0,0-2.91-2.08.73.73,0,0,0-.56,0c-.13,0-.19.15-.1.27a3.77,3.77,0,0,0,1.61,1.11.72.72,0,0,0,.64,0c.15-.11,0-.29-.14-.34a2.89,2.89,0,0,1-1.3-.9l-.65.25A8.72,8.72,0,0,1,438.8,378a.74.74,0,0,0,.62.17c.15,0,.34-.15.2-.3"/><path class="cls-15" d="M435.13,376.26a4.77,4.77,0,0,1-2.85-3c-.38-1.89,1.45-3.93,3.45-4.26.22,0,.18-.21,0-.32a1.14,1.14,0,0,0-.76-.13,5,5,0,0,0-3.76,3.41c-.32,1.4.57,2.81,2,3.81a7.61,7.61,0,0,0,1.37.76c.19.08.57.16.73,0s0-.26-.18-.34"/><path class="cls-15" d="M448.93,381.23a.18.18,0,0,1,.26-.19,1.67,1.67,0,0,0,1.15,0c.06.19.12.38.17.57a4.7,4.7,0,0,0-2.33-.05.38.38,0,0,1-.39-.23c-.06-.1-.08-.31.08-.34"/><path class="cls-15" d="M447.87,381a5.3,5.3,0,0,1,2.6.06.44.44,0,0,1,.29.29.2.2,0,0,1-.11.27"/><path class="cls-15" d="M451.57,382.46a2.87,2.87,0,0,0,2.89-.74,4.28,4.28,0,0,0,.65-4.68.17.17,0,0,1,.17-.26.56.56,0,0,1,.4.32,4.79,4.79,0,0,1,0,4.18,3.29,3.29,0,0,1-3,1.88,3.24,3.24,0,0,1-1-.16.47.47,0,0,1-.33-.38c0-.18.14-.2.26-.16"/><path class="cls-16" d="M388.42,347.35c-.85-11.92-4-13.07-4-13.07s-2.94,1.68-3.55,6.87"/><path class="cls-16" d="M386.47,347.73c-2.71-1.24-2.36,4.75-3.56,5.72s-1.1-2.67-.09-6.75c0,0,1.84-5.35,4.83-5.41"/><path class="cls-17" d="M442.23,387.57c-4.56-1.74-15.7-2.81-18.4-1.82,0,0,3.85,5.58,14.43,9.62S452,396.48,452,396.48,448.05,389.79,442.23,387.57Z"/><path class="cls-18" d="M428.88,385.44s5.6,1.63,9.93,3.29,9.6,4.16,9.6,4.16,1.93-3-5.93-6S428.88,385.44,428.88,385.44Z"/><path class="cls-19" d="M438.81,394c-4.69-2.6-9.06-6.36-15-8.2,0,0-.89,7.21,11.56,12S452,396.48,452,396.48C446.33,393.92,444,395.13,438.81,394Z"/><path class="cls-19" d="M448.58,387.18c-2.54-1.19-4.57-.84-5.71-1.27s-2.42-2.05-5.11-2.86c-2.51-.75-15.15,1.25-14.28,2.47s10.56-.1,18.43,2.9,9,8.46,10.47,8.13S451,388.29,448.58,387.18Z"/><path class="cls-13" d="M463.27,340.11s-9.11,3.81-2.21,9.86C461.06,350,457.92,345.17,463.27,340.11Z"/><path class="cls-13" d="M454.36,336.5s4.1,9-5.07,8.74c0,0,6.13-2.43,5.07-8.74"/><path class="cls-3" d="M344.42,441.09s-18.73,10.19-22.32,15.05a15,15,0,0,0-2.81,10.2l-18.86,14.91,68.4-84.16-36.28-1.94C298.8,391.92,287,426.24,287,426.24s-34.14,70.49-37.6,85.71,2.09,42,16.91,48.15,38.16-7,57.33-25.65c20-19.52,44-55.57,44-55.57Z"/><path class="cls-20" d="M335.79,443.71a74.22,74.22,0,0,0-5-17.64,53.14,53.14,0,0,0-5.77-9.92,41.07,41.07,0,0,0-3.31-3.78c-.56-.55-1.08-1.1-1.62-1.59l-1.63-1.34a24.23,24.23,0,0,0-2.93-2.08c-.45-.28-.85-.58-1.25-.79l-1.11-.57-1.55-.75a2,2,0,0,0-.51-.23,1.81,1.81,0,0,0,.5.33l1.49.85,1.08.59c.38.23.77.53,1.21.83a24.67,24.67,0,0,1,2.86,2.13l1.58,1.34c.53.49,1,1.05,1.59,1.6a42.83,42.83,0,0,1,3.23,3.77,54,54,0,0,1,5.66,9.84,78.32,78.32,0,0,1,5.1,17.6C335.52,443.84,335.65,443.76,335.79,443.71Z"/><path class="cls-2" d="M419.46,381.45c-.84,4.08-9.28,11.81-9.28,11.81s-5.29,28.85-7.73,33.76-26.12,30.86-26.12,30.86l-15.49-29.36,13.14-11L379.15,391l7.6-24.53,18.87-11.39a2.43,2.43,0,0,1,.3.34,2.49,2.49,0,0,1-.53,3.48l7.18-3.73c3.54,4.17-4.61,11.38-4.61,11.38l8.93-5.58c2.85,4.53-2.91,9.68-2.91,9.68l-10,9.44s-2.31,7.66-2.35,10.37-.32,5.53-.32,5.53l3.88-8.16,13.62-12.55S420.31,377.38,419.46,381.45Z"/><path class="cls-13" d="M420.1,381.26l.16-.71a11.73,11.73,0,0,0,.09-2.9,7.23,7.23,0,0,0-.9-2.9l-.28-.47-.42.39c-4.33,4-8.93,8.21-13.6,12.57l-.07.07,0,.08c-.88,1.84-1.81,3.79-2.75,5.8,0-.45.05-.89.07-1.35,0-.66.08-1.33.11-2a18.91,18.91,0,0,1,.29-2c.5-2.57,1.22-5.2,2-7.81l5.91-5.63c1-1,2.06-1.95,3.09-2.94.51-.5,1.06-1,1.58-1.52a16.22,16.22,0,0,0,1.39-1.71,9.79,9.79,0,0,0,1.67-3.79,5.66,5.66,0,0,0-.76-4.13l-.28-.43-.42.27-5.64,3.54a23.39,23.39,0,0,0,1.72-2.45,9.38,9.38,0,0,0,1.23-3.28,4.42,4.42,0,0,0-1-3.48l-.27-.32-.35.21-5.75,3.23a3.23,3.23,0,0,0,.14-.51,3,3,0,0,0-.77-2.47l-.28-.31-.35.21L386.9,365.82l-.15.08,0,.18c-2.69,8.83-5.18,17.05-7.47,24.57-.56,3-4.18,17.31-4.7,20.09l.54.28c.55-2.8,4.18-17.1,4.78-20.13q3.45-11.19,7.52-24.37l18.31-10.9A2,2,0,0,1,406,357a3.34,3.34,0,0,1-.93,1.68l-2.59,2.55,3.14-1.77.19-.11.06.08.19-.21,6.59-3.71a3.37,3.37,0,0,1,.48,2.34,8.22,8.22,0,0,1-1.11,2.92,22.5,22.5,0,0,1-4.17,5l.61.82.13-.08.07.09c.14-.12.26-.26.4-.39l7.85-4.92a4.62,4.62,0,0,1,.38,2.95,8.82,8.82,0,0,1-1.51,3.38,13.66,13.66,0,0,1-1.3,1.63c-.47.51-1,1-1.52,1.48l-3.09,2.93-6,5.74-.11.09,0,.13c-.77,2.7-1.5,5.36-2,8.05a16,16,0,0,0-.29,2.06c0,.67-.07,1.34-.11,2-.07,1.31-.14,2.61-.2,3.88l-.14,2.54,1.08-2.27.06-.12.1,0c0-.09,0-.19,0-.28,1.27-2.65,2.51-5.28,3.63-7.7l13-12.1a6,6,0,0,1,.52,1.95,10,10,0,0,1-.06,2.67A10.68,10.68,0,0,1,417,385a62.53,62.53,0,0,1-6.94,7.61l-.1.1-.05.23c-1.71,9.35-3.37,17.86-5.09,25.32-.41,1.87-.82,3.67-1.35,5.36a14.15,14.15,0,0,1-1.94,4.62L397.93,433c.17.15.17,0,.32.14l3.87-4.5a15.18,15.18,0,0,0,2.09-4.79c.49-1.72,1-3.52,1.4-5.38,1.77-7.43,3.48-15.89,5.23-25.19a62,62,0,0,0,7-7.61,21.12,21.12,0,0,0,1.53-2.32,10.33,10.33,0,0,0,.6-1.31Z"/><path class="cls-13" d="M394.32,385.24c.6-2.67,1.47-6.32,2.51-10.34l.28-1.11,0-.18.16-.11c3.13-2.31,6-4.35,8-5.74s3.37-2.24,3.45-2.12a17.16,17.16,0,0,1-3,2.68c-1.92,1.57-4.72,3.68-7.84,6l.19-.29a8.08,8.08,0,0,0-.29,1.1c-1,4-2,7.67-2.79,10.28s-1.31,4.21-1.45,4.18S393.73,387.91,394.32,385.24Z"/><path class="cls-13" d="M389.91,376.53c.53-2.44,1.33-5.83,2.28-9.61l0-.19.17-.11,1-.68c3.5-2.28,6.71-4.29,9.05-5.72s3.84-2.23,3.92-2.11-1.27,1.15-3.51,2.73-5.42,3.64-8.9,6l-1,.68.22-.31c-1,3.83-1.89,7.14-2.61,9.54a16.72,16.72,0,0,1-1.33,3.83A17.83,17.83,0,0,1,389.91,376.53Z"/><path class="cls-2" d="M475.78,435.87l1.31,19.43-22.55,8.39,1.06-15.16a111.83,111.83,0,0,1-4.67-10.74c-1.52-4.43.48-9.75.48-9.75l3.12-14s-2.88-9.67-4.31-13.87,2.82-6.08,2.82-6.08l6.7,11.81,1.9-9.8L458,386c-.23-6.41,3.46-5.36,3.46-5.36a3.3,3.3,0,0,1-.2-1,3.51,3.51,0,0,1,3.38-3.63l9.32,14.37a54.75,54.75,0,0,1-.84-8.48c0-4,4.07-3.09,4.07-3.09s4.74,17.39,4.75,18.66-5.23,19.68-5.23,19.68Z"/><path class="cls-21" d="M470.32,384.13l-5.7-8.18a3.51,3.51,0,0,0-3.38,3.63,3.3,3.3,0,0,0,.2,1s-3.69-1.05-3.46,5.36l3.66,10.17-1.9,9.8L453,394.13s-4.24,1.88-2.82,6.08,4.31,13.87,4.31,13.87l-3.12,14s-2,5.32-.48,9.75a111.83,111.83,0,0,0,4.67,10.74l-.31,3.62"/><path class="cls-13" d="M474.85,400.11c.46-1.71.9-3.22,1.32-4.58l0,.32c-1.51-3.2-2.42-5.44-2.24-5.52s1.41,2,3.05,5.11l.07.15,0,.18c-.34,1.38-.76,3-1.21,4.62-1.61,5.7-3.1,10.22-3.38,10.18S473.25,405.81,474.85,400.11Z"/><path class="cls-13" d="M468.69,395.88l0,.34L467,392.84c-3.34-6.65-5.82-12.18-5.57-12.27s3.15,5.19,6.48,11.84l1.69,3.4.08.17,0,.18c-1.43,5.46-2.58,9.29-2.82,9.26S467.4,401.36,468.69,395.88Z"/><path class="cls-20" d="M358.9,426.44l-.64-.68s-64.17,48.66-76.34,66.45c-9.1,13.32-11.31,20.46-6.26,37.9,0,0-4.68-18.48,6.11-35.36,7-11,45.46-43.64,45.46-43.64Z"/><path class="cls-20" d="M378.73,460.28s-4.7,12.33-17.89,32.64c-11.27,17.36-32.26,39.75-47.07,49.93-32.14,22.08-38.16,17.95-38.16,17.95l-.46,2.82s25.35.59,63.69-41.61c21.86-24.06,37.05-50.65,40.7-60.94Z"/><path class="cls-20" d="M430.91,563.28l15.22-76.1s-14.19,61.34-15.86,74.47-1.81,17.49-1.81,17.49Z"/><path class="cls-3" d="M484.68,449.1c0,.27,0,.56.05.84,1.88,31.48,17.73,112.25-13.24,133.49-25.36,12.37-31.33-5.44-36.23-15.51-3-6.11,2.8-2.45,3.13-9.07.36-7.47-2.07-11.6-1.1-19,1.89-14.37,1.34-19.52,1.33-34.08,0-13.34,5.9-39.16,6-52.52Z"/><path class="cls-20" d="M453.75,452.31l-9.76,1s-5.58,48.41-5.09,98.21c0,0-3.11-28.26,1.2-72.45l2.37-27.15Z"/><path class="cls-22" d="M740.59,212.75S727,222.48,719.14,235.5s-14.73,88.55-15.6,105.17-14.52,24-14.52,24L752.74,380l-5.18-171.75Z"/><path class="cls-23" d="M739.27,930.71s-1.29-8.26,5.85-11,23.2-7.16,35.16-12.77c16.61-7.8,26.68-20,33.92-20.34s5.49,11.71,21.49,12.67,28.15-7.07,28.9-7.3c3.53,2.28,9.12,27.37,4.59,33.44s-43.39,7.51-43.39,7.51l-31.28,5.17-31.09.1Z"/><path class="cls-24" d="M840.45,931.87a24.29,24.29,0,0,1,1.22-8.42,10.36,10.36,0,0,1,2.29-3.79c1.43-1.42,3.33-1.89,5.19-2.49,5.54-1.79,12.77-3.17,16.43-8.17,2.38-3.25,2.57-7.34,2.11-11.2,0-.19-1.14,0-1.1.3.43,3.64.3,7.46-1.77,10.63-1.77,2.71-4.68,4.26-7.63,5.41-3.62,1.41-7.4,2.35-11.06,3.67a9.1,9.1,0,0,0-5.33,5.28,23.37,23.37,0,0,0-1.45,9.08c0,.16,1.1,0,1.1-.3Z"/><path class="cls-24" d="M865.61,893.9c-5.46,3.68-11.36,6.42-18,7.17a56.68,56.68,0,0,1-12.35-.24,52.85,52.85,0,0,1-8-1.4c-4.89-1.31-9.61-4-14.81-3.82-6.84.22-13.15,4.65-18.75,8.11-1.89,1.16-3.76,2.33-5.67,3.45-1,.59-2,1.16-3,1.72a24.45,24.45,0,0,1-3.39,1.8s.31,0,.07.06a1.67,1.67,0,0,1-.39,0,2.39,2.39,0,0,1-1-.41c-1.19-.86-1-2.5-.69-3.75.06-.21-1-.07-1.08.2-.45,1.84-.32,4,1.88,4.38a2.72,2.72,0,0,0,1.17,0,9.89,9.89,0,0,0,2-1c1-.54,2.05-1.09,3.06-1.67,3.76-2.13,7.4-4.48,11.11-6.72s7.37-4.44,11.5-5.36c5.95-1.32,11.46,2,17,3.48a54.61,54.61,0,0,0,8.6,1.46,57.91,57.91,0,0,0,12,.2,43.07,43.07,0,0,0,19.49-7.59c.44-.3-.65-.15-.84,0Z"/><path class="cls-24" d="M815.87,935l6.52-1.08c.23,0,.86-.33.55-.66a26.61,26.61,0,0,0-10-6.8c-4.5-1.72-9.19-2-13.94-2.25-5.17-.32-10.35-.61-15.5-1.13a59,59,0,0,1-12.59-2.21,9.62,9.62,0,0,1-4-2.12c-1.72-1.81-.59-4.46.49-6.31.31-.54-.81-.58-1.06-.14-1,1.69-2,3.93-1.15,5.88a5.1,5.1,0,0,0,2.21,2.22c3,1.76,6.73,2.33,10.11,2.83,5,.75,10,1.11,15.09,1.44,5.29.34,10.8.23,16,1.43a26.25,26.25,0,0,1,13.35,7.65l.55-.67L816,934.14c-.61.1-.83,1-.09.84Z"/><path class="cls-25" d="M820,933.74l-.15.17.27,0Z"/><path class="cls-24" d="M819.51,933.77l-.15.17a.13.13,0,0,0-.05.12.11.11,0,0,0,.07.06.28.28,0,0,0,.13,0,1.13,1.13,0,0,0,.26,0l.23,0h0a1.63,1.63,0,0,0,.3-.07,1,1,0,0,0,.23-.12.3.3,0,0,0,.12-.13.1.1,0,0,0,0-.1l-.12-.12a.16.16,0,0,0-.12,0,.43.43,0,0,0-.16,0,.78.78,0,0,0-.22,0,.83.83,0,0,0-.21.06l-.13.06a.57.57,0,0,0-.18.12l0,.06a.09.09,0,0,0,0,.11l.12.12.62-.43-.24,0h0l.41.2.15-.16a.12.12,0,0,0,0-.09.06.06,0,0,0,0-.08.16.16,0,0,0-.12,0,.43.43,0,0,0-.16,0h-.14l-.29.08-.13.06A.57.57,0,0,0,819.51,933.77Z"/><path class="cls-25" d="M831,930.43l-1.28,0a17,17,0,0,1-.25,2.37l1.31-.07A17.37,17.37,0,0,0,831,930.43Z"/><path class="cls-24" d="M831.36,930.22l-1.28-.05a1.64,1.64,0,0,0-.61.14c-.09,0-.3.1-.3.22a17.16,17.16,0,0,1-.25,2.37c0,.06.18.06.19.06l1.43-.08a1.55,1.55,0,0,0,.56-.15c.09,0,.22-.09.24-.2a17,17,0,0,0,.21-2.25c0-.06-.17-.06-.19-.06a1.84,1.84,0,0,0-.4.06,1.77,1.77,0,0,0-.38.15c-.05,0-.13.08-.13.15a18.67,18.67,0,0,1-.22,2.24l.8-.34h-.25l-.33,0-.62,0,.19.06a17,17,0,0,0,.25-2.37l-.91.36,1.28,0a1.52,1.52,0,0,0,.78-.21s.15-.08.13-.15S831.4,930.22,831.36,930.22Z"/><path class="cls-25" d="M836.78,929.19c-.07,1-.1,2-.08,3.08h.18l1.1-.09c0-1,0-2,.08-2.9Z"/><path class="cls-24" d="M836.22,929.23c-.07,1-.1,2-.08,3.08,0,.28.26.37.51.36.43,0,.85,0,1.28-.08.22,0,.61-.18.61-.45,0-1,0-1.93.08-2.9a.35.35,0,0,0-.37-.36l-1.27-.1a.73.73,0,0,0-.72.34.35.35,0,0,0,.33.47l1.28.1-.37-.37c-.06,1-.09,1.93-.08,2.9l.61-.45c-.43,0-.86.09-1.29.09l.51.37c0-1,0-2.06.09-3.08C837.38,928.57,836.26,928.72,836.22,929.23Z"/><path class="cls-15" d="M872.82,925.79l-1.22.1-.22-1.15c-4.79.39-21.3,1.81-31.4,3.23-3.08.43-7,1.2-11.47,2.1-10.44,2.08-24.75,4.92-39.83,5.56-2.7.11-5.37.15-7.94.12A185.43,185.43,0,0,1,737.87,930l-.19,1.17-.88-.25-.74,3h0l-.09.38c-.12.51-.24,1-.32,1.33,10.37,6.41,56,8,66.43,5.42.65-.17,1.36-.34,2.1-.51l1-.21,1.48-.33c11.14-2.38,27.65-5,27.65-5s-.12,1.63-.15,3.54h0v.06c0,.81,0,1.66,0,2.47a271.64,271.64,0,0,0,39.41-2.25Z"/><path class="cls-24" d="M873.05,925.54l-1.22.1.32.11-.21-1.16c0-.12-.25-.12-.33-.11-7.2.6-14.39,1.26-21.57,2-4.15.45-8.31.9-12.42,1.6-4.81.81-9.58,1.84-14.36,2.77a243.22,243.22,0,0,1-31.68,4.35,167.81,167.81,0,0,1-32.69-1.43,164.94,164.94,0,0,1-20.57-4c-.22-.06-.94,0-1,.32l-.2,1.16,1-.32-.89-.24c-.23-.07-.92,0-1,.32-.25,1-.49,2-.74,3l1-.32h0c-.22-.1-.93,0-1,.32-.13.58-.27,1.15-.41,1.72a.11.11,0,0,0,0,.11c4.36,2.66,10,3.44,15,4.22a240.09,240.09,0,0,0,43.32,2.23,61.26,61.26,0,0,0,7-.68c3.74-.62,7.43-1.65,11.15-2.39,7.5-1.47,15-2.77,22.59-4l-.46-.1c-.09,1.18-.13,2.36-.16,3.54l.78-.41h0c-.21,0-.78.12-.78.41,0,.84,0,1.68,0,2.53,0,.12.26.11.32.11a240.07,240.07,0,0,0,39.55-2.27c.16,0,.65-.14.64-.39l-.72-13.07c0-.26-1.12-.06-1.1.29L873,939l.64-.4a237.7,237.7,0,0,1-39.27,2.24l.32.11c0-.84,0-1.68,0-2.53l-.79.41h0c.21,0,.77-.12.78-.41q0-1.77.15-3.54c0-.15-.4-.1-.46-.09q-9.37,1.49-18.72,3.24c-4.56.85-9.1,1.78-13.62,2.84a39.26,39.26,0,0,1-6.21.82,187.36,187.36,0,0,1-20.11.14A225.56,225.56,0,0,1,753.21,940a90.8,90.8,0,0,1-10.62-2,37.2,37.2,0,0,1-3.88-1.23,16.74,16.74,0,0,1-1.63-.71c-.18-.09-.56-.2-.68-.37-.3-.4.09-1.25.21-1.74l-1,.32h0c.22.11.93,0,1-.32.24-1,.49-2,.73-3l-1,.32.88.24c.22.06.95,0,1-.32l.19-1.16-1,.32a161.09,161.09,0,0,0,17,3.49A176,176,0,0,0,785.61,936a210.37,210.37,0,0,0,32.81-3.73c9-1.66,18-3.68,27.09-4.76,8.53-1,17.09-1.78,25.64-2.5l-.32-.11.22,1.16c0,.12.24.12.32.11l1.22-.1C872.93,926,873.78,925.48,873.05,925.54Z"/><path class="cls-15" d="M809.28,893.74a1,1,0,0,0,.87.49.91.91,0,0,0,.44-.14,1,1,0,0,0,.35-1.34l-3-5.3c-.54.31-1.1.64-1.66,1Z"/><path class="cls-24" d="M808.73,893.88a1.32,1.32,0,0,0,1.48.51,1.61,1.61,0,0,0,1.38-1,1.71,1.71,0,0,0-.38-1.26l-2.08-3.69-.62-1.1c-.13-.23-.82.06-1,.15-.56.32-1.11.65-1.66,1,0,0-.16.1-.13.15l2.6,4.62.38.66c.14.26,1.18-.16,1.1-.29l-2.6-4.62-.38-.66-.13.15c.54-.35,1.1-.69,1.66-1l-1,.15,2.91,5.16a1.28,1.28,0,0,1,.21.53.86.86,0,0,1,0,.39,2.16,2.16,0,0,1-.22.36c-.13.23-.08-.38.17,0a1,1,0,0,0-.2-.06,1,1,0,0,1-.39-.36C809.67,893.33,808.65,893.77,808.73,893.88Z"/><path class="cls-15" d="M804.46,896.6a1,1,0,0,0,.87.49,1,1,0,0,0,.44-.13,1,1,0,0,0,.35-1.35l-2.87-5.08-1.57,1.14Z"/><path class="cls-24" d="M804,896.84a1.61,1.61,0,0,0,2.84-.61,2,2,0,0,0-.43-1.33l-2-3.55-.6-1.06c-.16-.28-.68-.14-.87,0l-1.58,1.15a.36.36,0,0,0-.14.48l2.43,4.3.35.63c.24.42,1.29,0,1-.49l-2.42-4.29-.36-.63-.14.49,1.58-1.15h-.87l2.79,5a.88.88,0,0,1,.15.4c0,.17,0,.45-.21.54s-.42-.15-.52-.31C804.7,895.94,803.65,896.36,804,896.84Z"/><path class="cls-15" d="M797.13,895l2.5,4.44a1,1,0,0,0,.88.49,1,1,0,0,0,.79-1.48l-2.6-4.6Z"/><path class="cls-24" d="M796.58,895.17l2.48,4.4a1.53,1.53,0,0,0,2,.53,1.32,1.32,0,0,0,.76-1.79c-.39-.75-.83-1.48-1.24-2.21l-1.35-2.38c-.16-.28-.67-.19-.89,0l-1.57,1.15c-.16.12-.32.31-.1.45a.86.86,0,0,0,.79-.11l1.57-1.15-.9,0,2.41,4.27a1.55,1.55,0,0,1,.31.8.72.72,0,0,1-.16.46l-.07.07c0,.06,0,0,0,0a.37.37,0,0,1-.18,0,.82.82,0,0,1-.35-.34c-.43-.72-.82-1.47-1.24-2.2l-1.22-2.16C797.47,894.5,796.4,894.86,796.58,895.17Z"/><path class="cls-15" d="M794.81,902.32a1,1,0,0,0,.87.49,1,1,0,0,0,.44-.13,1,1,0,0,0,.35-1.35l-2.34-4.15-1.59,1.11Z"/><path class="cls-24" d="M794.3,902.56a1.62,1.62,0,0,0,2.74-.25,1.5,1.5,0,0,0-.2-1.46l-1.68-3-.52-.93c-.16-.29-.68-.14-.87,0-.53.38-1.06.75-1.6,1.11a.37.37,0,0,0-.14.49l2.27,4c.24.43,1.3,0,1-.48l-2.28-4-.14.49,1.6-1.11h-.88l1.08,1.91c.41.73.87,1.45,1.25,2.21a.74.74,0,0,1,0,.65c-.17.38-.49.16-.66-.11C795.06,901.66,794,902.07,794.3,902.56Z"/><path class="cls-15" d="M790,905.18a1,1,0,0,0,.87.49.9.9,0,0,0,.44-.13,1,1,0,0,0,.35-1.35l-2.18-3.87c-.54.35-1.08.7-1.64,1Z"/><path class="cls-24" d="M789.47,905.4a1.68,1.68,0,0,0,2.67-.17,1.28,1.28,0,0,0,0-1.38l-1.57-2.78-.5-.9c-.17-.29-.67-.15-.9,0-.54.35-1.08.7-1.63,1-.07,0-.28.2-.21.31l2.15,3.83c.21.37,1.28,0,1.11-.3l-2.16-3.82-.21.31,1.64-1-.9,0c.73,1.28,1.49,2.55,2.18,3.86a.88.88,0,0,1,0,.83,1.73,1.73,0,0,1-.17.21s.07,0,0,0-.16,0-.23-.09a.89.89,0,0,1-.25-.3C790.31,904.66,789.23,905,789.47,905.4Z"/><path class="cls-25" d="M878,911.56h0v0Z"/><path class="cls-24" d="M877.52,911.75h0l.07,0h.28l.22,0,.14,0,.13-.05a.42.42,0,0,0,.14-.09.18.18,0,0,0,.08-.09v0a.06.06,0,0,0,0-.09.37.37,0,0,0-.17-.05l-.25,0-.3.08h0a.75.75,0,0,0-.18.08l-.13.09s0,0,0,.09,0,.05,0,.07l.07,0a.74.74,0,0,0,.21,0l.14,0a1.37,1.37,0,0,0,.29-.07h0l-.74-.05v0l1.07-.28h0a.25.25,0,0,0-.12,0h-.16a.71.71,0,0,0-.21,0,.79.79,0,0,0-.22.06l-.13.06a.78.78,0,0,0-.18.11l0,.06A.1.1,0,0,0,877.52,911.75Z"/><path class="cls-23" d="M739.27,931.24s-1.29-8.25,5.85-11,23.2-7.16,35.16-12.78c16.61-7.79,26.68-20,33.92-20.33s5.49,11.71,21.49,12.67,28.15-7.07,28.9-7.3c3.53,2.28,9.12,27.37,4.59,33.44s-43.39,7.5-43.39,7.5l-31.28,5.18-31.09.09Z"/><path class="cls-24" d="M840.45,932.41a24,24,0,0,1,1.23-8.41,10.11,10.11,0,0,1,2.29-3.78c1.43-1.42,3.33-1.88,5.2-2.48,5.59-1.8,13-3.2,16.54-8.36,2.26-3.25,2.43-7.24,2-11,0-.26-1.14,0-1.1.29.44,3.7.29,7.63-1.89,10.8-1.79,2.6-4.65,4.09-7.52,5.2-3.62,1.41-7.41,2.35-11.06,3.67a9.15,9.15,0,0,0-5.32,5.32,23.37,23.37,0,0,0-1.45,9.08c0,.23,1.1.06,1.1-.29Z"/><path class="cls-24" d="M865.68,894.25a40.88,40.88,0,0,1-17.43,7.12,53,53,0,0,1-12,0,56.91,56.91,0,0,1-8.51-1.36c-4.87-1.22-9.47-3.82-14.57-4-6.89-.22-13.37,4.34-19,7.8-2,1.2-3.91,2.42-5.89,3.59s-4.26,2.29-6.34,3.52a1.36,1.36,0,0,1-1.59-.1c-1.25-.79-1-2.47-.71-3.69.11-.46-1-.31-1.12.11-.45,1.85-.3,4,1.85,4.51a2.83,2.83,0,0,0,1.26.07,12.62,12.62,0,0,0,2.64-1.34c.85-.46,1.71-.93,2.55-1.41,3.83-2.18,7.53-4.59,11.31-6.85,3.47-2.08,7.13-4.2,11.11-5.13,5.93-1.38,11.35,1.79,16.9,3.33a52.54,52.54,0,0,0,8.07,1.47,60.44,60.44,0,0,0,12.1.37c7.35-.64,14-3.52,20-7.61.62-.42-.31-.67-.7-.4Z"/><path class="cls-24" d="M815.85,935.44l6.52-1.08c.17,0,.85-.27.57-.57a26.48,26.48,0,0,0-10-6.76c-4.5-1.71-9.19-1.94-13.94-2.23-5.17-.32-10.35-.61-15.5-1.13a58.92,58.92,0,0,1-12.59-2.22,9.52,9.52,0,0,1-4-2.17c-1.73-1.83-.62-4.49.47-6.36.27-.48-.84-.41-1-.06-1,1.67-2,3.9-1.16,5.84a5.1,5.1,0,0,0,2.19,2.17c3,1.75,6.74,2.31,10.11,2.81,5,.74,10,1.1,15.09,1.43,5.37.35,11,.22,16.24,1.51a26.17,26.17,0,0,1,13.11,7.63l.58-.57L816,934.76c-.55.09-.89.8-.13.68Z"/><path class="cls-25" d="M820,934.28l-.15.16.27,0Z"/><path class="cls-24" d="M819.51,934.31l-.15.16a.13.13,0,0,0-.05.12.1.1,0,0,0,.07.07.28.28,0,0,0,.13,0,1.14,1.14,0,0,0,.26,0l.23,0h0a1.67,1.67,0,0,0,.3-.08l.23-.11a.49.49,0,0,0,.12-.13.09.09,0,0,0,0-.1,1.36,1.36,0,0,0-.12-.12.22.22,0,0,0-.12-.05h-.16l-.22,0-.21.06-.13,0a.83.83,0,0,0-.18.13l0,.06a.09.09,0,0,0,0,.11l.12.12.62-.43-.24,0h0l.41.21.15-.17a.1.1,0,0,0,0-.09s0,0,0-.07a.22.22,0,0,0-.12-.05h-.16l-.14,0a1.38,1.38,0,0,0-.29.08l-.13,0A.83.83,0,0,0,819.51,934.31Z"/><path class="cls-25" d="M831,931l-1.28-.05a17,17,0,0,1-.25,2.37l1.31-.08A17,17,0,0,0,831,931Z"/><path class="cls-24" d="M831.36,930.76l-1.28,0a1.63,1.63,0,0,0-.61.13c-.09,0-.3.11-.3.23a17.33,17.33,0,0,1-.25,2.37s.18.06.19.06l1.43-.09a1.77,1.77,0,0,0,.56-.14c.09,0,.22-.1.24-.2a17.11,17.11,0,0,0,.21-2.25c0-.06-.17-.06-.19-.06a1.84,1.84,0,0,0-.4.06,1.77,1.77,0,0,0-.38.15c-.05,0-.13.07-.13.15a18.67,18.67,0,0,1-.22,2.24l.8-.35h-.19s-.14,0-.06,0l-.33,0-.62,0,.19.06a17,17,0,0,0,.25-2.37l-.91.36,1.28,0a1.52,1.52,0,0,0,.78-.21s.15-.09.13-.15S831.4,930.76,831.36,930.76Z"/><path class="cls-25" d="M836.78,929.72c-.07,1-.1,2-.08,3.08h.18l1.1-.08c0-1,0-2,.08-2.9Z"/><path class="cls-24" d="M836.22,929.76c-.07,1-.1,2.06-.08,3.09,0,.28.26.36.51.36.43,0,.85-.05,1.28-.09.22,0,.61-.17.61-.45,0-1,0-1.93.08-2.89a.35.35,0,0,0-.37-.36l-1.27-.1a.73.73,0,0,0-.72.34.35.35,0,0,0,.33.47l1.28.09-.37-.36c-.06,1-.09,1.93-.08,2.9l.61-.45c-.43,0-.86.08-1.29.09l.51.36c0-1,0-2,.09-3.08C837.38,929.11,836.26,929.26,836.22,929.76Z"/><path class="cls-15" d="M872.82,926.33l-1.22.1-.22-1.16c-4.79.4-21.3,1.82-31.4,3.23-3.08.44-7,1.21-11.47,2.11-10.44,2.07-24.75,4.92-39.83,5.55-2.7.12-5.37.16-7.94.12a185.06,185.06,0,0,1-42.87-5.71l-.19,1.16-.88-.24s-.39,1.58-.74,3h0c0,.14-.06.25-.09.38-.12.52-.24,1-.32,1.34,10.37,6.41,56,8,66.43,5.41l2.1-.5,1-.21,1.48-.33c11.14-2.39,27.65-5,27.65-5s-.12,1.63-.15,3.54h0v.06c0,.81,0,1.66,0,2.47a273.27,273.27,0,0,0,39.41-2.25Z"/><path class="cls-24" d="M872.9,926l-1.22.1.47.15-.21-1.16c0-.18-.36-.16-.48-.15-7.27.61-14.55,1.28-21.81,2.07-4.15.45-8.31.91-12.42,1.62-4.81.83-9.57,1.85-14.36,2.77a238.1,238.1,0,0,1-31.79,4.32,168.43,168.43,0,0,1-32.59-1.51,166.23,166.23,0,0,1-20.28-4c-.23-.07-.84.06-.89.36l-.19,1.17.89-.37-.88-.25c-.25-.07-.82.07-.9.37-.24,1-.49,2-.73,3l1-.34h0c-.26-.12-.91,0-1,.34-.14.57-.27,1.14-.41,1.71,0,.1,0,.15.11.19a23.21,23.21,0,0,0,6.08,2.37,80.12,80.12,0,0,0,9.07,1.86,206.7,206.7,0,0,0,22.22,2.11c6.93.33,13.91.46,20.85.1a62.72,62.72,0,0,0,7.1-.69c3.77-.64,7.5-1.68,11.26-2.41,7.44-1.46,14.92-2.76,22.4-4l-.47-.22c-.09,1.18-.13,2.36-.16,3.54l.77-.38h0c-.26,0-.77.12-.77.45,0,.85,0,1.69,0,2.54,0,.13.25.15.33.15a240,240,0,0,0,39.55-2.26c.21,0,.65-.15.63-.44l-.72-13.08c0-.34-1.12-.12-1.1.3l.72,13.07.63-.44a238.86,238.86,0,0,1-39.27,2.24l.33.16c0-.85,0-1.69,0-2.53l-.77.45h0c.17,0,.76-.1.77-.38q0-1.77.15-3.54c0-.23-.3-.25-.47-.22q-9.48,1.5-18.91,3.27c-4.52.85-9,1.78-13.49,2.83a40.39,40.39,0,0,1-6.29.81,182,182,0,0,1-20.09.13,222.9,222.9,0,0,1-22.65-1.91,90.27,90.27,0,0,1-10.44-2,36.05,36.05,0,0,1-3.94-1.25c-.54-.22-1.08-.45-1.59-.72-.17-.08-.53-.18-.63-.33-.2-.3.2-1.26.29-1.67l-1,.34h0c.26.12.92,0,1-.34.25-1,.49-2,.74-3l-.89.36.88.25c.24.06.84-.07.89-.37l.19-1.16-.89.36a158.89,158.89,0,0,0,17.28,3.53,174.31,174.31,0,0,0,31.28,2.16,212.13,212.13,0,0,0,32.75-3.79c9-1.66,17.93-3.65,27-4.72,8.45-1,16.94-1.77,25.43-2.47l-.48-.15.22,1.16c0,.18.35.16.47.15l1.22-.1C873.28,926.58,873.67,926,872.9,926Z"/><path class="cls-15" d="M809.28,894.27a.94.94,0,0,0,.87.49.9.9,0,0,0,.44-.13,1,1,0,0,0,.35-1.35L808,888c-.54.3-1.1.64-1.66,1Z"/><path class="cls-24" d="M808.77,894.52a1.61,1.61,0,0,0,2.86-.66,2.24,2.24,0,0,0-.47-1.33l-2.08-3.69-.62-1.1c-.13-.23-.57-.19-.75-.08-.6.34-1.19.7-1.78,1.08a.37.37,0,0,0-.14.49l2.61,4.62.37.67c.25.43,1.3,0,1-.49l-2.61-4.62-.37-.66-.14.49q.75-.48,1.53-.93l-.75-.08,2.9,5.14a.93.93,0,0,1,.15.37.62.62,0,0,1-.19.59c-.22.11-.43-.15-.52-.3C809.52,893.61,808.47,894,808.77,894.52Z"/><path class="cls-15" d="M804.46,897.13a.93.93,0,0,0,.87.49.8.8,0,0,0,.44-.13,1,1,0,0,0,.35-1.34l-2.87-5.08c-.51.37-1,.74-1.57,1.14Z"/><path class="cls-24" d="M804,897.37a1.61,1.61,0,0,0,2.84-.61,2,2,0,0,0-.42-1.32l-2-3.55-.6-1.06c-.16-.28-.68-.13-.87,0L801.32,892a.35.35,0,0,0-.15.48l2.43,4.29.35.63c.23.41,1.29,0,1-.48l-2.42-4.3-.36-.62-.14.47,1.58-1.14h-.87l2.79,5a1,1,0,0,1,.15.41.63.63,0,0,1-.21.55c-.19.11-.42-.16-.52-.32C804.71,896.49,803.65,896.9,804,897.37Z"/><path class="cls-15" d="M797.13,895.56l2.5,4.43a1,1,0,0,0,.88.49.8.8,0,0,0,.44-.13,1,1,0,0,0,.35-1.34l-2.6-4.61C798.19,894.79,797.67,895.17,797.13,895.56Z"/><path class="cls-24" d="M796.58,895.71c.83,1.46,1.63,2.94,2.48,4.39a1.51,1.51,0,0,0,2,.5,1.29,1.29,0,0,0,.77-1.76c-.39-.74-.83-1.47-1.24-2.2l-1.35-2.38c-.17-.32-.77-.09-1,.07l-1.57,1.16c-.19.14-.11.31.1.35a1,1,0,0,0,.78-.21l1.57-1.15-1,.07,2.41,4.27a1.62,1.62,0,0,1,.31.81.75.75,0,0,1-.16.48c-.06.07-.14.08,0,.09a.73.73,0,0,1-.19-.07.93.93,0,0,1-.35-.36c-.43-.72-.82-1.46-1.24-2.19l-1.22-2.17C797.49,895.06,796.43,895.44,796.58,895.71Z"/><path class="cls-15" d="M794.81,902.86a1,1,0,0,0,.87.49.91.91,0,0,0,.44-.14,1,1,0,0,0,.35-1.34l-2.34-4.15-1.59,1.11Z"/><path class="cls-24" d="M794.3,903.08a1.66,1.66,0,0,0,2.73-.27,1.43,1.43,0,0,0-.18-1.41l-1.68-3-.53-.94c-.14-.25-.7-.07-.86,0l-1.59,1.11c-.15.1-.26.24-.16.41l2.27,4c.19.34,1.27,0,1-.45l-2.27-4-.16.42,1.59-1.11-.86,0,1.07,1.9c.42.74.87,1.46,1.25,2.21a.87.87,0,0,1,0,.71.7.7,0,0,1-.14.21s-.1,0,0,0c-.21,0-.4-.23-.49-.38C795.11,902.29,794,902.66,794.3,903.08Z"/><path class="cls-15" d="M790,905.72a1,1,0,0,0,.87.49.91.91,0,0,0,.44-.14,1,1,0,0,0,.35-1.34l-2.18-3.87c-.54.34-1.08.69-1.64,1Z"/><path class="cls-24" d="M789.43,905.86a1.19,1.19,0,0,0,1.13.56,2.12,2.12,0,0,0,1.55-.68,1.16,1.16,0,0,0,0-1.34l-1.58-2.79-.5-.9c-.13-.23-.82,0-1,.14l-1.64,1s-.16.1-.13.15l2.15,3.82c.15.26,1.19-.15,1.11-.29l-2.16-3.82-.13.15,1.64-1-1,.14c.73,1.28,1.49,2.55,2.18,3.86a1,1,0,0,1,.06.87.88.88,0,0,1-.18.25s-.06,0-.07.06,0,.05.25-.06h-.06c-.08,0-.19-.06-.27-.11a.89.89,0,0,1-.28-.3C790.38,905.31,789.35,905.74,789.43,905.86Z"/><path class="cls-25" d="M878,912.09h0v0Z"/><path class="cls-24" d="M877.52,912.29h0l.07,0a.39.39,0,0,0,.15,0h.13l.22,0,.14,0,.13,0a.67.67,0,0,0,.14-.09.18.18,0,0,0,.08-.09v0a.08.08,0,0,0,0-.1.53.53,0,0,0-.17,0,1.06,1.06,0,0,0-.25,0,1.47,1.47,0,0,0-.3.08h0a.75.75,0,0,0-.18.08.38.38,0,0,0-.13.09.11.11,0,0,0,0,.09.06.06,0,0,0,0,.07l.07,0a.75.75,0,0,0,.21,0l.14,0a1.38,1.38,0,0,0,.29-.08h0l-.74,0v0l1.07-.29h0a.24.24,0,0,0-.12,0h-.16l-.21,0a.79.79,0,0,0-.22.06l-.13,0a.57.57,0,0,0-.18.12l0,.06A.1.1,0,0,0,877.52,912.29Z"/><polygon class="cls-2" points="859 910.97 817.3 894 814.97 873.46 860.84 868.24 859 910.97"/><polygon class="cls-2" points="891.22 919.01 845.04 914.21 845.04 898.33 891.22 898.33 891.22 919.01"/><path class="cls-23" d="M767.26,948s-1.28-8.25,5.86-11,23.2-7.16,35.16-12.78c16.61-7.79,26.68-20,33.92-20.33s5.48,11.71,21.49,12.67,28.15-7.07,28.9-7.3c3.53,2.28,9.11,27.37,4.59,33.44s-43.39,7.51-43.39,7.51l-31.28,5.17-31.1.09Z"/><path class="cls-24" d="M868.45,949.14a24.29,24.29,0,0,1,1.22-8.42,10.21,10.21,0,0,1,2.3-3.78c1.42-1.42,3.33-1.88,5.19-2.49,5.54-1.79,12.76-3.16,16.42-8.17,2.38-3.26,2.57-7.34,2.11-11.21,0-.23-1.14,0-1.11.29.44,3.64.31,7.47-1.76,10.63-1.77,2.71-4.7,4.25-7.64,5.39-3.62,1.41-7.4,2.35-11,3.68a9.09,9.09,0,0,0-5.33,5.29,23.41,23.41,0,0,0-1.45,9.09c0,.19,1.1,0,1.1-.3Z"/><path class="cls-24" d="M893.61,911.18c-5.46,3.68-11.36,6.41-18,7.16a56.06,56.06,0,0,1-12.35-.23,51.66,51.66,0,0,1-8-1.41c-4.89-1.31-9.61-4-14.81-3.82-6.84.23-13.15,4.65-18.75,8.12A116.16,116.16,0,0,1,810,927.81c-.35.17,0,.16-.24.22a1.27,1.27,0,0,1-.39,0,2.39,2.39,0,0,1-1-.41c-1.19-.86-1-2.51-.69-3.75.05-.2-1-.06-1.08.2-.46,1.84-.33,4,1.88,4.37a2.67,2.67,0,0,0,1.16,0,10.51,10.51,0,0,0,2-1c1-.54,2.05-1.09,3.06-1.67,3.76-2.13,7.4-4.48,11.1-6.72s7.37-4.45,11.5-5.36c5.95-1.32,11.46,2,17,3.48a54.22,54.22,0,0,0,8.6,1.46,57.21,57.21,0,0,0,12,.2,43.11,43.11,0,0,0,19.49-7.59c.43-.3-.66-.13-.84,0Z"/><path class="cls-24" d="M843.84,952.14l6.52-1.08c.15,0,.84-.25.58-.53a26.4,26.4,0,0,0-10.26-6.84c-4.44-1.63-9-1.85-13.7-2.14-5.17-.31-10.34-.61-15.5-1.12a56.78,56.78,0,0,1-12.75-2.29,9.29,9.29,0,0,1-3.82-2.12c-1.73-1.83-.63-4.51.46-6.39.26-.45-.84-.35-1,0-1,1.67-2,3.9-1.16,5.83a5,5,0,0,0,2.19,2.16c3,1.79,6.91,2.34,10.35,2.84,4.92.71,9.88,1.06,14.84,1.39,5.38.35,11,.23,16.25,1.51A26.28,26.28,0,0,1,849.92,951l.58-.53L844,951.52c-.53.08-.91.75-.15.62Z"/><path class="cls-25" d="M848,951l-.15.17.27,0Z"/><path class="cls-24" d="M847.51,951l-.15.16a.16.16,0,0,0-.05.12.1.1,0,0,0,.07.07.28.28,0,0,0,.13,0,1.13,1.13,0,0,0,.26,0l.23,0h0a1.11,1.11,0,0,0,.3-.08,1.2,1.2,0,0,0,.23-.11.28.28,0,0,0,.11-.13.08.08,0,0,0,0-.1l-.12-.12a.17.17,0,0,0-.12,0,.32.32,0,0,0-.17,0l-.21,0a.9.9,0,0,0-.22.06l-.12.06a.57.57,0,0,0-.18.12l0,.06a.11.11,0,0,0,0,.11l.12.12.61-.43-.23,0h0l.41.2.14-.17a.09.09,0,0,0,0-.09s0,0,0-.07a.17.17,0,0,0-.12,0,.32.32,0,0,0-.17,0h-.13a1.67,1.67,0,0,0-.3.08l-.12.06A.57.57,0,0,0,847.51,951Z"/><path class="cls-25" d="M859,947.7l-1.28-.05a17,17,0,0,1-.25,2.37l1.31-.08A17,17,0,0,0,859,947.7Z"/><path class="cls-24" d="M859.36,947.49l-1.28,0a1.63,1.63,0,0,0-.61.13c-.09,0-.3.11-.3.23a17.16,17.16,0,0,1-.25,2.37c0,.06.18.06.19.06l1.43-.08a2.21,2.21,0,0,0,.56-.15c.08,0,.22-.1.23-.2a19,19,0,0,0,.22-2.25c0-.06-.17-.06-.19-.06a1.84,1.84,0,0,0-.4.06,1.77,1.77,0,0,0-.38.15c-.05,0-.13.07-.13.15a18.67,18.67,0,0,1-.22,2.24l.8-.35h-.19s-.14,0-.06,0l-.34,0-.61,0,.19.06a17,17,0,0,0,.25-2.37l-.91.36,1.28,0a1.55,1.55,0,0,0,.78-.21s.15-.08.13-.15S859.4,947.49,859.36,947.49Z"/><path class="cls-25" d="M864.78,946.45q-.1,1.51-.09,3.09h.19l1.1-.08c0-1,0-2,.08-2.9Z"/><path class="cls-24" d="M864.22,946.5c-.07,1-.1,2-.09,3.08,0,.28.27.36.51.36.43,0,.86-.05,1.29-.09.22,0,.61-.17.61-.44,0-1,0-1.94.08-2.9a.36.36,0,0,0-.37-.36l-1.28-.1a.73.73,0,0,0-.72.34c-.11.24.1.45.34.47l1.28.1-.37-.37c-.07,1-.09,1.93-.08,2.9L866,949c-.43,0-.86.09-1.29.09l.51.36c0-1,0-2,.09-3.08C865.38,945.84,864.26,946,864.22,946.5Z"/><path class="cls-15" d="M900.82,943.06l-1.22.1-.22-1.16c-4.79.4-21.3,1.82-31.4,3.24-3.08.43-7,1.2-11.47,2.1-10.45,2.08-24.75,4.92-39.83,5.55-2.7.12-5.37.16-7.94.13a185.43,185.43,0,0,1-42.87-5.72l-.19,1.17-.89-.25-.73,3h0l-.09.37c-.12.52-.24,1-.32,1.34,10.37,6.41,56,8,66.43,5.41l2.1-.5,1-.21,1.49-.33c11.13-2.39,27.65-5,27.65-5s-.12,1.63-.16,3.54h0v.06c0,.81,0,1.66,0,2.47a273.41,273.41,0,0,0,39.41-2.25Z"/><path class="cls-24" d="M900.9,942.78l-1.22.1.47.13-.22-1.16c0-.17-.35-.14-.47-.13-7.27.6-14.55,1.27-21.81,2.06-4.15.46-8.31.91-12.42,1.62-4.8.83-9.57,1.86-14.36,2.78a237.94,237.94,0,0,1-31.78,4.31A181.07,181.07,0,0,1,766.21,947c-.22-.06-.84.07-.89.36l-.19,1.16.89-.36-.78-.22c-.27-.07-.91,0-1,.34-.24,1-.49,2-.73,3l1-.33h0c-.24-.12-.92,0-1,.33-.14.57-.28,1.15-.41,1.72,0,.09,0,.13.11.18a24,24,0,0,0,6.07,2.37,85,85,0,0,0,9.08,1.86,209.33,209.33,0,0,0,22.21,2.1c6.94.33,13.91.46,20.85.1a62.49,62.49,0,0,0,7.1-.69c3.78-.64,7.5-1.68,11.26-2.41,7.44-1.46,14.92-2.76,22.41-3.95l-.47-.21c-.09,1.21-.13,2.41-.16,3.61l.77-.44h0c-.25,0-.77.12-.77.44,0,.85,0,1.69,0,2.54,0,.13.25.14.33.14a239.88,239.88,0,0,0,39.54-2.26c.21,0,.65-.15.64-.43l-.72-13.08c0-.31-1.12-.1-1.1.3l.71,13.08.64-.44a238.87,238.87,0,0,1-39.27,2.25l.33.14c0-.84,0-1.69,0-2.53l-.77.44h0c.26,0,.77-.11.78-.44,0-1.16.07-2.31.15-3.47,0-.23-.31-.23-.47-.21q-9.48,1.51-18.91,3.28c-4.52.85-9,1.78-13.49,2.83a41.13,41.13,0,0,1-6.36.81,185.69,185.69,0,0,1-20,.13,220.08,220.08,0,0,1-22.65-1.92,92.41,92.41,0,0,1-10.44-2,38.42,38.42,0,0,1-3.94-1.26c-.54-.22-1.08-.45-1.6-.72-.16-.08-.52-.19-.62-.34-.2-.3.19-1.26.29-1.67l-1,.33h0c.25.12.92,0,1-.33.24-1,.49-2,.73-3l-1,.34,1,.27c.22.06.84-.07.89-.36l.19-1.16-.89.35a158.71,158.71,0,0,0,17.27,3.53,174.36,174.36,0,0,0,31.29,2.16,212,212,0,0,0,32.74-3.79c9-1.66,17.93-3.65,27-4.72,8.46-1,16.94-1.77,25.43-2.47l-.47-.14.22,1.16c0,.17.36.15.47.14l1.22-.1C901.26,943.3,901.67,942.72,900.9,942.78Z"/><path class="cls-15" d="M837.28,911a.93.93,0,0,0,.87.49.8.8,0,0,0,.44-.13,1,1,0,0,0,.35-1.34l-3-5.3c-.54.31-1.09.64-1.65,1Z"/><path class="cls-24" d="M836.76,911.22a1.67,1.67,0,0,0,2.86-.66,2,2,0,0,0-.43-1.22l-2.08-3.7-.6-1.07c-.17-.29-.67-.13-.9,0-.56.33-1.11.66-1.65,1-.07,0-.28.18-.21.3l2.6,4.61.38.67c.2.36,1.26,0,1.1-.29l-2.6-4.62-.38-.67-.21.3c.54-.34,1.09-.68,1.65-1h-.89l2.91,5.15a1.39,1.39,0,0,1,.19.45.79.79,0,0,1-.2.7s-.08,0,0,0a.3.3,0,0,1-.16-.05.91.91,0,0,1-.35-.35C837.61,910.5,836.53,910.85,836.76,911.22Z"/><path class="cls-15" d="M832.45,913.86a1,1,0,0,0,.88.5.91.91,0,0,0,.44-.14,1,1,0,0,0,.35-1.34l-2.87-5.08-1.57,1.14Z"/><path class="cls-24" d="M832,914.1a1.61,1.61,0,0,0,2.84-.61,1.92,1.92,0,0,0-.43-1.31l-2-3.56-.6-1.06c-.15-.27-.69-.12-.87,0l-1.57,1.14a.34.34,0,0,0-.15.47l2.42,4.29.36.63c.22.4,1.28,0,1-.47l-2.42-4.3-.36-.63-.14.47,1.57-1.14h-.86l2.79,5a1.12,1.12,0,0,1,.15.41.66.66,0,0,1-.21.56c-.19.11-.42-.16-.52-.32C832.71,913.24,831.65,913.64,832,914.1Z"/><path class="cls-15" d="M825.13,912.29l2.5,4.43a1,1,0,0,0,.87.5,1,1,0,0,0,.45-.14,1,1,0,0,0,.34-1.34l-2.59-4.6Z"/><path class="cls-24" d="M824.58,912.44c.82,1.46,1.63,2.94,2.48,4.39a1.51,1.51,0,0,0,2,.47,1.26,1.26,0,0,0,.78-1.73c-.4-.74-.83-1.47-1.25-2.2L827.25,911c-.16-.29-.79,0-1,.1l-1.57,1.15c-.18.13-.13.28.08.31a1.14,1.14,0,0,0,.78-.21l1.57-1.15-1,.09,2.41,4.27a1.76,1.76,0,0,1,.31.81.83.83,0,0,1-.16.5l-.08.09,0,0,.15,0-.24-.07a1,1,0,0,1-.35-.38c-.42-.72-.82-1.46-1.24-2.19l-1.22-2.17C825.5,911.83,824.45,912.21,824.58,912.44Z"/><path class="cls-15" d="M822.81,919.59a1,1,0,0,0,.87.49,1,1,0,0,0,.44-.13,1,1,0,0,0,.35-1.35l-2.34-4.15c-.52.37-1,.74-1.6,1.11Z"/><path class="cls-24" d="M822.26,919.73a1.68,1.68,0,0,0,2.72-.16,1.27,1.27,0,0,0-.09-1.36l-1.68-3-.53-.93c-.17-.3-.78,0-1,.09l-1.59,1.11s-.15.14-.12.21l2.28,4c.18.33,1.24-.05,1.1-.29l-2.27-4-.12.21,1.59-1.11-1,.09c.77,1.37,1.56,2.73,2.32,4.11a.94.94,0,0,1,.11.75,1,1,0,0,1-.12.25c-.06.09-.14.1,0,.1a.79.79,0,0,1-.5-.37C823.16,919.11,822.12,919.51,822.26,919.73Z"/><path class="cls-15" d="M818,922.45a1,1,0,0,0,.88.49,1,1,0,0,0,.79-1.48l-2.19-3.87-1.63,1Z"/><path class="cls-24" d="M817.48,922.69a1.6,1.6,0,0,0,2.69-.16,1.45,1.45,0,0,0-.12-1.5l-1.58-2.79-.5-.9c-.17-.3-.67-.15-.88,0l-1.51,1c-.21.13-.4.32-.26.58l2.16,3.82c.25.45,1.3,0,1-.49l-2.16-3.82-.25.58c.59-.36,1.17-.73,1.75-1.11H817l1,1.82c.38.67.8,1.33,1.14,2a.68.68,0,0,1,0,.7c-.21.28-.49,0-.62-.19C818.22,921.76,817.17,922.19,817.48,922.69Z"/><path class="cls-25" d="M906,928.83h0v0Z"/><path class="cls-24" d="M905.52,929h0l.06,0h.29l.22,0,.14,0,.13-.05a.42.42,0,0,0,.14-.09.24.24,0,0,0,.08-.09v0a.06.06,0,0,0,0-.09.3.3,0,0,0-.16,0l-.26,0a1.57,1.57,0,0,0-.29.08h0l-.17.08-.13.09a.09.09,0,0,0,0,.09s0,0,0,.07l.07,0a.74.74,0,0,0,.21,0l.14,0a1.38,1.38,0,0,0,.29-.08h0l-.74,0v0l1.07-.29h0a.19.19,0,0,0-.12,0h-.17l-.21,0-.22.06-.12,0a.57.57,0,0,0-.18.12l0,.06A.07.07,0,0,0,905.52,929Z"/><path class="cls-26" d="M942.6,465.71l-1.19,42.51A300.53,300.53,0,0,1,925.73,596l-18.52,79.94s-3.26,77.39,0,121.18c2.88,38-4.38,108.59-4.38,108.59l-69.11-1.66-19.57-225.4-11.5-137.6-23.33-71.9Z"/><path class="cls-26" d="M758,477.46l14.11,208a87.13,87.13,0,0,0,5.19,31l31.18,153,2.71,19.7,38.42-8.29L831,465.71Z"/><path class="cls-22" d="M901.32,266.51s8.81,91.79,17.43,117.4,20.62,57.72,21.94,75-68.77,28.62-105.78,32.24-73.36,9.1-78-9.86,69-59.83,69-59.83Z"/><path class="cls-2" d="M824.2,130.55s1,32,8.09,42.19C834,175.2,853.77,188,853.77,188l-69.54,41.74-31.49-14.12s19.53-18.61,19.65-22.15S764.46,164,764.46,164"/><path class="cls-27" d="M806.62,514.1v15.21c0,9.76.27,23.92.72,41.4,1,35,3.37,83.22,7.61,136.39s9.1,101.19,12.54,135.95c1.82,17.32,3.3,31.34,4.32,41.13.53,4.8.94,8.56,1.21,11.18.16,1.23.27,2.27.36,2.91a8,8,0,0,0,.16,1,5.57,5.57,0,0,0,0-1c0-.73-.13-1.69-.22-2.92-.23-2.64-.57-6.39-1-11.19-.93-9.81-2.27-23.86-3.93-41.2-3.35-34.76-8.06-82.79-12.2-136s-6.7-101.38-7.95-136.29c-.57-17.48-1-31.62-1.11-41.4-.12-4.83-.21-8.61-.25-11.25V515.1A7.31,7.31,0,0,0,806.62,514.1Z"/><path class="cls-22" d="M896.45,200.12c-11-9.84-44.59-18.88-58.83-22.62-.61,3,1-2.87,0,0-3.8,10.88-26.28,33-42,41.71a14.31,14.31,0,0,1-19.17-5.15l-.09-.16c-3.8-6.45-3-16.24-4.56-20.42-.6-.19.58-2.51,0-2.7l-24.2,17.43-14.72,13.43,1.45,57L746.43,395c2.47,36,7.48,59,10.51,86.28l56,.45a226.11,226.11,0,0,0,62.6-9.1l41.63-12.18a665.15,665.15,0,0,0-19.54-77.9c-12.22-38.42-14.22-89.89-14.31-96.84C883.09,271.35,912.92,214.8,896.45,200.12Z"/><path class="cls-28" d="M827.59,143.07v.18A.27.27,0,0,0,827.59,143.07Z"/><path class="cls-2" d="M789.05,184.85l-20.68,1.8-10.59-1.06c-1,.15-6.9-9.84-7.77-11.09-2.73-3.88-6.29-9-8.22-13.3-2.06-4.66-5.64-8.47-7.1-14.2-1.07-4.2-1.46-7.18,0-14.42a9.9,9.9,0,0,0-.51-5.44c-1.43-3.88-2.34-8.51-4.14-13.72a11.33,11.33,0,0,1-.78-2.86s-3.74-22.21-.71-30.7S737.1,67,742.79,64.71s23.15-3.37,23.15-3.37l23.51-6.44,21.62,7.51,13.44,23.43,2.12,28.88.16,26"/><path class="cls-14" d="M819.56,113.45c.16,2.23-1.23,13.64-1.21,15.83l11.44-1.65c2.52-8,5.56-17.49,6.62-19.69,1.66-3.44-6.18-18.5-6.78-24.33l-.13-1.26c-.56-5.59-7-13.79-17.2-21.92-17.57-14-16.83-14.27-40.67-9.58-1.64.32-3.27.71-4.84,1.14-14.84,4.11-27.5,5.45-35.57,19.3-5.83,10-2-2.14-.61,4.15-1.14-12.6-2.26-2-1.14-3.59C736,62.28,740.88,71,744.53,70a12.63,12.63,0,0,1,6.23-.18c3.78.37,7.26-.54,11.07-1.59,2.84-.79,9.94-3.34,10.55-3.56,1.78-1.6-.84-8.94,2.68-9.91,8.19-2.27,20,0,24.29,1.36,5,1.63,17,5,17,18"/><path class="cls-14" d="M759.68,182.6a.83.83,0,0,0,.37-.2c2-1.72,2.07-2.56,3.11-3a5.68,5.68,0,0,1,1.11-.4c3-.83,4.87-1.39,13.81,2.81.18.09,10.85-2.67,11.06-2.71l5.26-3.35c.86-.7,19.58-21,19.58-21,.24-.63,3.5-5.31,3.58-5.89a1.22,1.22,0,0,1,.19-.12l.12-.07a.93.93,0,0,1,0,.1,3.67,3.67,0,0,1,.11.74,12.12,12.12,0,0,1-.18,3.18c-.29,1.61-.37,3.24-.6,4.85-.08.57-.19,1.14-.32,1.7-2.2,1.79-15,22.87-23.09,28.26a39,39,0,0,1-6.93,1.94c-8.79,1.87-17.36,2.95-26.42,1.52a7.92,7.92,0,0,1-5.6-3.76c-3.38-5.71-10.85-18.4-13.41-27.23,3.08,4.91,9.61,15.46,14.09,22.63.14.22,3.53,0,3.82,0"/><path class="cls-2" d="M824.61,144c10.41,7.86,10.31-7.76,10.31-7.76,5.39-8.66,4.24-16.93,3.22-22.56s-7.23-4.68-7.23-4.68c-5.21,1.3-7.18,4.47-9.13,22.92"/><path class="cls-14" d="M747.24,64.53c8.59-1.19,30.47-9.91,42.07-12.07,4.8-.89,22.32,9.12,24.74,11.59,5.55,5.67-3.77,21.36,6.92,40.27,3.53,6.24,5.95-5.74,9.93-1.85s5.51,5.47,5.51,5.47c.22-19.38.23-18.7-6.27-37s-27.95-24-38.06-24.36-41.53,6.65-49.64,11.7"/><path class="cls-24" d="M826.51,128.13a47.61,47.61,0,0,1,3-7.67,15.47,15.47,0,0,1,2.46-3.68,4,4,0,0,1,1.36-1c-.2.08,0,0,.06,0h0s-.63.06-.41-.06c0,0,0-.07,0,0s.09.1.13.14c.15.19.29.37.42.57a10.71,10.71,0,0,1,1.37,7c0,.49.87.38.92,0a11.65,11.65,0,0,0-1.21-7c-.28-.49-.76-1.47-1.45-1.31a3.48,3.48,0,0,0-1.42.84,12.41,12.41,0,0,0-2.49,3.22,41.73,41.73,0,0,0-3.64,8.86c-.16.51.74.53.86.12Z"/><path class="cls-24" d="M828.1,129.25c1.69-.3,1.44,2.75,1.44,3.71s-.27,3.46,1.18,3.39c.73,0,1-.81,1.21-1.39a16.51,16.51,0,0,0,.56-4,14.18,14.18,0,0,0-.44-4.73c-.5-1.83-1.44-4.09-3.46-4.65-.39-.11-1.06.46-.51.61,1.71.48,2.52,2.42,3,4a11.85,11.85,0,0,1,.55,3.87,22.16,22.16,0,0,1-.39,4.14,5.17,5.17,0,0,1-.36,1.2c0,.08-.17.23-.18.31l.23,0,0,0s-.13-.11-.15-.17c-.53-1.32-.22-2.9-.32-4.3a3.82,3.82,0,0,0-.56-2,1.85,1.85,0,0,0-1.92-.54c-.57.11-.39.73.17.62Z"/><path class="cls-14" d="M778.31,116.8a3.47,3.47,0,0,1,3.81.14,3.35,3.35,0,0,1,1.22,1.41,3.42,3.42,0,0,1-.36,3.23,3.21,3.21,0,0,1-3.56,1.17,3.57,3.57,0,0,1-2.32-3.84,3.21,3.21,0,0,1,1.21-2.11"/><path class="cls-14" d="M740.44,122.53a3.48,3.48,0,0,0-3.61,1.2,3.36,3.36,0,0,0-.78,1.7,3.48,3.48,0,0,0,1.26,3,3.22,3.22,0,0,0,3.75.11,3.55,3.55,0,0,0,1.14-4.33,3.22,3.22,0,0,0-1.76-1.68"/><path class="cls-14" d="M752.09,125.93s-6.05-4.53-10-4.33c-5.73.3-7,1.78-8.62,4.66,0,0,3.31-3.24,7.35-3.34C744.71,122.83,752.09,125.93,752.09,125.93Z"/><path class="cls-14" d="M770.25,121.91s7.2-6.14,11.07-6.8c5.66-1,12.9,1.41,15.12,3.86,0,0-9.62-3.64-13.59-2.85C779.06,116.87,770.25,121.91,770.25,121.91Z"/><path class="cls-14" d="M768,97.35c-.08,1.36-.15,2.72-.23,4.09-.05,1-.26,3.41-.31,4.45,3.33-.69,6.35-1.83,8.49-2.08,4.24-.5,8.6-1.31,12.81-.4a14.55,14.55,0,0,1,5.4,2.21c.51.37,1.87,1.89,2.7,1.56.33-.13-.11-1.84-.15-2-.91-3.44-3.69-5-7.15-6-7-2.06-14.24-2.3-21.56-1.8"/><path class="cls-14" d="M728.48,112.05l1.83-1.61c5.05-4.52,11-7.45,17.34-9.74.64,1.2,1.27,2.41,1.9,3.63.49.92,1.42,2.55,1.89,3.48-3.07.62-5.86.91-7.76,1.49-3.77,1.14-7.76,2.3-10.91,4.71-.25.19-1.58,1.24-1.81,1.44C729,114.36,728.14,112.57,728.48,112.05Z"/><path class="cls-14" d="M774.26,165.83l-14.67,1.34s4.24,5.16,7.8,4.65C769.61,171.5,772.24,168.67,774.26,165.83Z"/><path class="cls-15" d="M759.67,147.47a6.33,6.33,0,0,0,5.8-1.22c.34-.29,1.61-.24,1.14.17a9,9,0,0,1-7.93,1.53c-.23-.09-.22-.26,0-.39a1.43,1.43,0,0,1,.95-.09"/><path class="cls-15" d="M767.26,145.83a10.2,10.2,0,0,1,3.48-1.45.84.84,0,0,1,.58.1c.12.08.16.21,0,.31a3.88,3.88,0,0,1-1.92.75.73.73,0,0,1-.64-.16c-.14-.15.05-.29.22-.32a3,3,0,0,0,1.54-.61l.62.41a9,9,0,0,0-3.11,1.3.75.75,0,0,1-.67,0c-.15-.06-.32-.23-.13-.35"/><path class="cls-15" d="M772.23,145.27a5.06,5.06,0,0,0,3.64-2.37c.84-1.86-.55-4.34-2.53-5.16-.22-.09-.13-.26.06-.33a1.18,1.18,0,0,1,.81.05,5.21,5.21,0,0,1,3,4.35c0,1.52-1.26,2.76-2.94,3.44a7.66,7.66,0,0,1-1.59.46,1,1,0,0,1-.76-.13c-.13-.17.06-.28.26-.31"/><path class="cls-15" d="M756.88,147.1a.2.2,0,0,0-.22-.26,1.68,1.68,0,0,1-1.19-.21l-.32.54a5,5,0,0,1,2.41.5.4.4,0,0,0,.46-.14c.08-.09.15-.3,0-.37"/><path class="cls-15" d="M758,147.16a5.62,5.62,0,0,0-2.69-.56.5.5,0,0,0-.37.24.21.21,0,0,0,0,.3"/><path class="cls-15" d="M753.88,147.74a3,3,0,0,1-2.8-1.45,4.52,4.52,0,0,1,.45-5,.18.18,0,0,0-.11-.3.55.55,0,0,0-.49.23,5.07,5.07,0,0,0-1,4.3,3.45,3.45,0,0,0,2.62,2.64,3.29,3.29,0,0,0,1.08.08c.15,0,.4-.12.44-.31s-.1-.25-.23-.23"/><path class="cls-14" d="M743.1,68.68a5.44,5.44,0,0,1,2.41-1.17l.94-.44q4.35-.58,8.72-.92a6.27,6.27,0,0,1,2.17.09l.21.07c2.14-.35,4.28-.67,6.43-.93l1,.14a6,6,0,0,1,2.61.41.85.85,0,0,1,0,1.6c-.85.38-2.21.08-2.76.65s.78,1.29.47,2c-.2.44-1,.67-1.43,1s-.69,1-1.21,1.46a3,3,0,0,1-2.24.58c-.8.17-1.94,0-2.12.57a.94.94,0,0,0,0,.47,1.61,1.61,0,0,1-1.05,1.64,2.68,2.68,0,0,1-2.33,0c-.62-.36-.9-1-1.56-1.3a5,5,0,0,0-.68-.24,2.09,2.09,0,0,1-.7.53,2.68,2.68,0,0,1-2.33,0c-.63-.36-.91-1-1.57-1.3s-1.34-.32-1.66-.76c-.49-.69.66-1.8-.09-2.34s-1.92.22-2.84,0A1,1,0,0,1,743.1,68.68Z"/><path class="cls-14" d="M778.52,182a4.34,4.34,0,0,1-2,.92l-.76.34c-2.36.28-4.72.5-7.08.64a5.35,5.35,0,0,1-1.75-.1l-.17-.06c-1.73.25-3.47.48-5.22.67l-.82-.13a4.83,4.83,0,0,1-2.11-.37.69.69,0,0,1,0-1.29c.69-.3,1.79,0,2.24-.5s-.61-1-.35-1.61c.17-.36.79-.53,1.17-.81s.57-.82,1-1.17a2.41,2.41,0,0,1,1.82-.44c.65-.13,1.57,0,1.73-.43a.86.86,0,0,0,0-.39,1.32,1.32,0,0,1,.87-1.31,2.15,2.15,0,0,1,1.89.06c.5.29.72.8,1.25,1.07a4.46,4.46,0,0,0,.55.2,1.63,1.63,0,0,1,.57-.42,2.15,2.15,0,0,1,1.89.06c.5.29.72.8,1.25,1.07s1.09.27,1.33.63c.4.57-.55,1.46,0,1.9s1.55-.15,2.3,0A.83.83,0,0,1,778.52,182Z"/><path class="cls-29" d="M835.43,109.25a5.46,5.46,0,0,0,2.5-.83,1.89,1.89,0,0,0,.68-2.33c-.71-1.22-3.07-1.18-3.08-2.59,1-1.49,3.8-1.25,4.27-3,.38-1.4-1.19-2.48-2.51-3.08.78-.92.6-.14,1.73-.56s1.48-3.31.71-4.24-1.18-.09-.88-1.43c.89-.39-1.23-.95-.6-1.7a2.2,2.2,0,0,0,.27-2.69,4.43,4.43,0,0,1-.8-2.84c-.09-1-2.06-1-1.56-1.83.93-1.57-.74-3.37-2.22-4.44.73-.61-.25-.68.16-1.54a2.3,2.3,0,0,0-.33-2.67,10.86,10.86,0,0,0-1.54-.85c-2.05-1.29-1.23-4.42-.19-6.6a3.47,3.47,0,0,1-3.91-2.43,10.62,10.62,0,0,0-.5-2.33c-.36-.71-1.49-1.1-1.93-.43"/><path class="cls-14" d="M835.22,109.64c1.62-.27,4.33-.8,4.63-2.81s-2.3-1.72-3.05-3c-.54-1,1.17-1.34,1.82-1.61a4.79,4.79,0,0,0,1.85-1.14c1.47-1.72-.76-3.3-2.16-4l0,.27c.81-.88-1.89,0-.73.09a4,4,0,0,0,.69,0,4.36,4.36,0,0,0,1.79-.59,3.88,3.88,0,0,0,.91-4.3c-.23-.4-.81-.54-1-.83s.22-.54.21-.84-.19-.45-.46-.71c-.6-.6-.34-.63,0-1.36a2.45,2.45,0,0,0,.2-1.68c-.21-.74-.79-1.24-.94-2-.11-.58,0-1.32-.34-1.81s-.7-.44-1-.69c-.61-.44-.17-.7-.07-1.33.25-1.62-1.38-3-2.53-3.87l0,.28c.35-.37.31-.45.31-.89s-.14-.32-.06-.77c0-.22.17-.44.22-.66a2.28,2.28,0,0,0-1.5-2.7c-2.75-1.36-1.84-4.48-.78-6.76.17-.35-.79-.2-.86-.19A3.12,3.12,0,0,1,829.46,64c-.51-1-.2-2.29-.89-3.18-.87-1.12-3-.78-3.85.18-.32.35.29.34.51.33a2.43,2.43,0,0,0,1.45-.51c-.7.11-.84.26-.41.46a1.45,1.45,0,0,1,.43.71,5.84,5.84,0,0,1,.21,1.18,3.85,3.85,0,0,0,.92,2.17,4.32,4.32,0,0,0,4,1.15l-.87-.19c-.81,1.75-1.82,4.45-.42,6.17.82,1,2.45,1,2.71,2.46.11.68-.25,1.15-.32,1.77-.05.39.32.84,0,1.15-.08.08-.16.19,0,.28a7.53,7.53,0,0,1,2,2,2.64,2.64,0,0,1,.23,2.32c-.18.91.56.84,1.16,1.35s.38,1,.47,1.62a4.88,4.88,0,0,0,.79,1.93,2.09,2.09,0,0,1-.14,2.19c-.23.39-.42.52-.21,1,.14.29.6.41.72.69s-.15.25-.2.75,0,.37.33.62a2,2,0,0,1,1,1.28,4.3,4.3,0,0,1,0,1.82,3.33,3.33,0,0,1-.26.75,1.85,1.85,0,0,1-.21.33c-.25.26-.07.24.51-.07-.08-.18-1.12.06-1.23.09a2.83,2.83,0,0,0-1.44.87c0,.06-.19.21,0,.28,1.15.55,3.63,2.16,2,3.63-1,.89-2.51.88-3.48,1.85s.43,1.68,1.22,2c.58.29,1.28.55,1.56,1.19.61,1.37-.84,2.15-2,2.34-.85.14-1.94,1-.41.77Z"/><path class="cls-30" d="M826.82,64.64c-.35-1-1.88-6-2.23-7A2.41,2.41,0,0,1,821.27,56c-.11-.72,0-1.63-.6-2s-1.4.27-2.14.31c-1.63.1-2.15-2.52-3.74-2.92-1-.25-2,.48-3,.27-1.52-.31-2-2.5-3.48-3-1-.32-2.13.32-3.2.15-2.3-.37-3.42-3.58-5.74-3.36-.85.08-1.57.74-2.43.76-1.52,0,.56-1.79-1-1.85s-2.34,1.53-3.71,1.84c-2.23.49-4.14-3.13-6.15-2-.87.47-1.25,1.55-2.09,2.05-2,1.17-4.44-1.58-6.6-.81-1.09.38-1.76,1.58-2.88,1.85-1.74.41-3.34-1.63-5.09-1.3-1.41.26-2.28,1.93-3.7,2-1,0,1.32-1.31.32-1.35-1.7-.06-2.75,1.92-4.37,2.45-1.35.44-2.8-.22-4.21-.41s-4.15,2.83-4,4.25"/><path class="cls-14" d="M827.9,64.35c-.78-2.32-1.44-4.69-2.23-7-.15-.46-1.23-.14-1.48,0-.74.32-1.63-.91-1.8-1.48s.05-1.6-.6-2.13a2.2,2.2,0,0,0-1.91-.21c-.45.1-.9.32-1.33.11a3,3,0,0,1-.8-.84c-1-1.21-1.73-2.08-3.4-1.9-1.05.11-1.92.54-2.76-.32A20.9,20.9,0,0,0,810,48.72c-1.59-1.28-3.53.21-5.12-.74-1.25-.74-2-2.09-3.38-2.71a3.63,3.63,0,0,0-1.75-.3c-.31,0-2.31.78-2.36.74s.21-.93.19-1.12c-.06-.53-.5-.65-1-.7a4.28,4.28,0,0,0-2,.37c-.77.32-1.35,1-2.09,1.32-1.2.51-2.79-1.37-3.87-1.83a3.86,3.86,0,0,0-3.72.52c-.54.41-1,1.41-1.54,1.68s-1.79-.44-2.37-.66a5.49,5.49,0,0,0-4.37,0c-.76.34-1.26,1-2,1.39s-1.76-.41-2.45-.72a4.64,4.64,0,0,0-4.33.19c-.25.14-1.69,1-1.7,1.24,0,.79.91-.27,1-.43.73-1.31-2.14-.57-2.61-.38A9.38,9.38,0,0,0,762.46,48a2.44,2.44,0,0,1-2.1.65c-.61-.07-1.19-.28-1.8-.38a4.86,4.86,0,0,0-4,1.34c-1,.88-2.22,2.21-2.22,3.63,0,.48,2.17.13,2.17-.58,0-1.53,1.52-2.4,2.4-3.38.3-.33.19-.06-.13-.08a8.09,8.09,0,0,1,1.09.22c.41.09.83.2,1.25.26a6,6,0,0,0,2.67-.15,6.36,6.36,0,0,0,2-1c.3-.23.59-.49.89-.73s.71-.75.49-.65c-.64.29-1.15,1.26-.2,1.4,1.46.2,2.75-.83,3.83-1.64.73-.55,1.22-.24,2,.13a7.47,7.47,0,0,0,2.27.83c1.74.21,2.83-.74,4.15-1.66s3.23.7,4.6.86a4.48,4.48,0,0,0,3.79-1.34c.26-.28.48-.61.73-.89s.25-.29.8,0,1.16.79,1.75,1.16a4.23,4.23,0,0,0,3.77.61,6.69,6.69,0,0,0,1.87-1c.66-.47,1-1,.81,0-.26,1.19.76,1.26,1.76,1.08.69-.12,1.45-.69,2.12-.68s1.51.87,2,1.33c1,1,2.07,2,3.6,2.05,1,0,2.1-.54,3-.05.68.38,1.09,1.19,1.59,1.76a2.85,2.85,0,0,0,1.9,1.08c1,.12,2.34-.61,3.2-.06,1.21.77,1.52,2.49,3.14,2.69.66.08,2-.58,2.36-.1s.11,1.73.61,2.44c1,1.42,3,1.43,4.42.82l-1.49,0c.79,2.32,1.45,4.69,2.23,7,.21.61,2.36,0,2.17-.58Z"/><path class="cls-31" d="M802.67,53.81c8.58,2.35,12.26,4.91,17.14,12.34L771,54.65A42.46,42.46,0,0,1,781,52.53C789.91,52,794.1,51.46,802.67,53.81Z"/><path class="cls-14" d="M801.77,54.2a30.71,30.71,0,0,1,9.83,4.23,29.51,29.51,0,0,1,7.13,8l2-.68-16.55-3.9-26.25-6.18-6.07-1.42-.53.59a60.8,60.8,0,0,1,16.6-2.36,46.68,46.68,0,0,1,13.86,1.71,2.62,2.62,0,0,0,1.52-.29c.18-.1.74-.37.28-.49a48.72,48.72,0,0,0-15.34-1.69c-2.84.13-5.72.23-8.54.59a51.94,51.94,0,0,0-9.11,2.13c-.13,0-1.1.46-.53.59l16.55,3.9,26.25,6.18,6.06,1.42c.25.06,2.2-.36,2-.68a30,30,0,0,0-7.25-8.14,31.2,31.2,0,0,0-10.08-4.3,2.5,2.5,0,0,0-1.51.29C801.87,53.81,801.32,54.08,801.77,54.2Z"/><path class="cls-31" d="M735.09,61.47l.63-.39c1.06-.73,1.75-2.49.65-3.14,2.37.69,3.6-3.42,6.06-3.64a13.88,13.88,0,0,1,2.1.27A3.25,3.25,0,0,0,747.79,51a7.86,7.86,0,0,0,6,0L771,54.65c-7.15,2.29-14.3,5.79-21.22,7.4-3.34.77-6.72,1.66-9.58,3.54-2.08,1.37-4.82,2.29-6.95,3.74C733.82,66.71,734.43,64.08,735.09,61.47Z"/><path class="cls-14" d="M735.76,61.8c1.26-.75,3.41-2.93,1.62-4.29l-1.67,1a4.12,4.12,0,0,0,3.48-.89c.92-.72,1.73-2.27,2.84-2.65.78-.27,1.84.26,2.7.18a4.91,4.91,0,0,0,2.1-.68,4,4,0,0,0,2-3.77l-2,.82a9.89,9.89,0,0,0,7.26,0l-1.1.14,17.19,3.6.52-1.14c-6.91,2.24-13.5,5.49-20.57,7.24a41,41,0,0,0-9.16,3c-1.44.75-2.77,1.66-4.23,2.36a39.47,39.47,0,0,0-4.31,2.3l1.76.2c.61-2.63,1.22-5.25,1.88-7.86.2-.8-2-.48-2.17.27-.66,2.61-1.27,5.23-1.89,7.86-.18.8,1.48.38,1.76.19a39.45,39.45,0,0,1,4.21-2.24c1.33-.65,2.55-1.45,3.84-2.16,3-1.62,6.26-2.18,9.47-3.05,6.75-1.8,13.07-4.86,19.7-7,.45-.14,1.54-.93.52-1.14L761.32,51.9l-5.84-1.22c-.35-.08-.7-.18-1.05-.23a6,6,0,0,0-2,.42,6.48,6.48,0,0,1-3.79-.39c-.54-.21-2,0-1.94.82a2.74,2.74,0,0,1-.55,1.93c-.63.79-1.33.67-2.23.53a4.76,4.76,0,0,0-3,.44,8,8,0,0,0-2,1.67c-.42.45-1.23,1.61-1.84,1.48-.33-.08-2.36.49-1.67,1,1.18.89-.07,2.25-1,2.77-.38.23-.55.56-.19.86S735.43,62,735.76,61.8Z"/><path class="cls-32" d="M779.43,89s-22.9-.14-37.87,5.08"/><path class="cls-29" d="M745,169.83a22.62,22.62,0,0,0,3.22,5.91c-.78.34-.32,1.56.36,2.06s1.62,1,1.53,1.88c0,.29-.2.56-.23.86-.09.92,1.08,1.37,2,1.52-.56.53.05,1.46.71,1.88s1.49.95,1.35,1.71c-.06.38-.37.7-.32,1.08.1.79,1.39.66,1.89,1.28.29.36.23.88.38,1.32a1.48,1.48,0,0,0,2.32.53c.34,1.59,1.24,3.59,2.84,3.35,1-.15,1.85-1.21,2.81-.89.58.2.9.85,1.45,1.13,1.87,1,3.68-2.94,5.55-2,1,.51,1.13,2.17,2.22,2.42s1.82-1,2.86-1.24,2.41.8,3.38.17c.42-.28.61-.79,1-1.15.79-.83,1.78.21,2.9.44,2,.41,2-1,2-1,.44-1.43,1.21-1.4,2.57-.8a3.12,3.12,0,0,0,1.38.5c1.21-.06,1.58-2.1,2.79-2.11a4,4,0,0,1,1.25.44,2,2,0,0,0,2.21-2.93,3.37,3.37,0,0,0,2.87-3.93,3.06,3.06,0,0,0,3.55-3,3,3,0,0,0,3-4.08,2.42,2.42,0,0,0,2.87-2.52c-.1-.76-.52-1.7.07-2.19.39-.33,1-.19,1.48-.25a1.93,1.93,0,0,0,1.36-2.79c2,.29,3.6-2.66,2.22-4.17a2.1,2.1,0,0,0,1.71-3.31,3.2,3.2,0,0,0,1.93-4.95l-22.27,27.92-6.11,3.54s-22.45,4.3-26.91,2.79S745,169.83,745,169.83Z"/><path class="cls-14" d="M743.94,170.12a23.85,23.85,0,0,0,3.21,5.91l.25-.33a1.16,1.16,0,0,0-.51,1.58c.34.83,1.17,1.09,1.75,1.71.76.81-.12,1.53.29,2.38s1.38,1,2.08,1.12l-.18-.24c-1,1.49,1.48,2.08,1.95,3.09.32.68-.49,1.32-.1,2,.23.39.73.47,1.11.63,1.3.55.7,2.27,2.26,2.66a3.87,3.87,0,0,0,3.17-.82l-2.07.36c.41,1.79,1.33,3.74,3.46,3.51a5.23,5.23,0,0,0,1.17-.27c.25-.08,1.3-.77,1.49-.72-.44-.11.13.4.1.34a2.72,2.72,0,0,0,.57.55,2.22,2.22,0,0,0,1.13.49c1.65.2,3-.9,4.23-1.83.16-.12.5-.46.7-.49-.4.07-.07.05.09.26.33.44.63.86.93,1.33a2,2,0,0,0,1.92,1.05,4.9,4.9,0,0,0,2.42-.88c.63-.41.7-.34,1.46-.18a4.65,4.65,0,0,0,1.44.16,3.68,3.68,0,0,0,2.34-1c.09-.1.69-.89.68-.9.13.41-1.39-.24-.54.32a5.26,5.26,0,0,0,1.76.65c1.27.22,3.21-.07,3.77-1.41a1.48,1.48,0,0,0,.11-.45l0-.12c.27-.36.13-.42-.41-.18,0,0,.65.22.58.19,1.06.42,1.76.85,2.92.53a3.9,3.9,0,0,0,2.13-1.57,2.52,2.52,0,0,0,.33-.39c.37-.31.18-.31-.56,0l.55.23a3.1,3.1,0,0,0,1.37.26c1.75-.1,4.33-1.71,3.19-3.75l-1.28.71c2.32-.34,4.58-2.06,4.16-4.64l-2,.72c2.41.37,5.51-1,5.53-3.75l-1.79.75c2.53.26,6-1.93,4.76-4.83l-2,.72a4.82,4.82,0,0,0,3.52-.74,2.82,2.82,0,0,0,1.19-3.18c0,.07-.24-1.42-.49-1,0-.08.72,0,.89-.06a4.16,4.16,0,0,0,1.8-.68,2.24,2.24,0,0,0,.85-2.82l-1.79.74c2.49.19,6-2.37,3.94-5l-1.72.83c1.92.06,5.22-1.78,3.5-4l-1.28.71c2.47-.47,5.11-3.1,3.2-5.66-.34-.46-1.77,0-2.06.37l-10.13,12.69-7.47,9.35c-1.47,1.85-3.06,3.65-4.44,5.57-.07.1-.4.43-.1.19a10.37,10.37,0,0,1-1.41.82,46.47,46.47,0,0,0-4.49,2.61c-.56.41,1.49-.33.53-.21-.41,0-.83.15-1.24.23-1.55.28-3.11.55-4.67.81-4.39.72-8.81,1.4-13.25,1.77-2.83.24-6,.79-8.38-1.12-3.2-2.59-5.74-6.15-8.18-9.43-2-2.72-4-5.51-5.86-8.34l-.31-.47c-.36-.55-2.36.29-2.17.58,3.84,5.88,7.92,11.94,12.88,16.94a9.86,9.86,0,0,0,3.43,2.59,12.21,12.21,0,0,0,4.13.36,103.52,103.52,0,0,0,13.35-1.42c3.26-.49,6.53-1,9.78-1.64a7.78,7.78,0,0,0,2.43-1c1.6-.93,3.21-1.82,4.79-2.78,1.26-.77,2.14-2.4,3-3.53l7-8.79L812.6,161c1.53-1.92,3.26-3.78,4.64-5.81.07-.11.16-.2.23-.3l-2.07.37a2.77,2.77,0,0,1,.53,2.34c-.11.54-.58,1.78-1.17,1.89-.06,0-1.51.4-1.28.71a1.82,1.82,0,0,1,.41,1.25,2.36,2.36,0,0,1-.19.69c-.11.23-.59.61-.15.62-.27,0-2.13.32-1.72.83a2.18,2.18,0,0,1,.37,1.94c-.07.26-.51,1.43-.87,1.4s-2,.29-1.78.75.36,1.78-.36,2.07-1.53.1-2.23.63-.59,1.11-.46,1.85a2.77,2.77,0,0,1,0,1.51c-.09.28-.46,1-.81,1s-2.2.19-2,.72a2.59,2.59,0,0,1,.1,1.95c-.17.5-.69,1.45-1.29,1.39-.4,0-1.78.17-1.78.74,0,.75-.52,2.47-1.58,2.31-.35-.06-2.07.1-2,.72.17,1-.27,3-1.6,3.23-.1,0-1.47.36-1.28.71a1.64,1.64,0,0,1,.22,1.26,3.93,3.93,0,0,1-.45.94c-.12,0-1-.41-1.26-.44a3.32,3.32,0,0,0-1.21.11,3.4,3.4,0,0,0-1.65.93c-.24.25-.42.55-.64.81-.07.08-.26.35-.34.37.49-.09-.24-.57-.26-.58a3.57,3.57,0,0,0-4,.38,2.86,2.86,0,0,0-.6,1.19c-.08.25-.24.34-.13.31.34-.09-.46-.29-.51-.31-.23-.09-.45-.2-.69-.29a3.13,3.13,0,0,0-2.11-.17c-1.08.28-1.32.91-2.07,1.62.23-.21.6.07,0-.19a5.68,5.68,0,0,0-.71-.18,4.67,4.67,0,0,0-1.12-.1,4.88,4.88,0,0,0-2.38.76c-.17.1-.38.34-.56.37s0,.06-.28-.11-.54-.77-.73-1.09a2.3,2.3,0,0,0-1.48-1.2,5,5,0,0,0-3.79,1.3,9.35,9.35,0,0,1-1.13.86c-.33.18-.14,0,0,.05a2.06,2.06,0,0,1-.69-.52,2.42,2.42,0,0,0-2.3-.72c-.81.14-2,1.08-2.66.62a4.83,4.83,0,0,1-1.47-2.92c-.14-.59-1.84.18-2.07.37l.58-.19-.38-.16c-.14-.2-.34-.31-.45-.55-.2-.45-.1-.95-.42-1.36s-1.51-.47-1.79-1,.23-.88.26-1.29a1.25,1.25,0,0,0-.34-1c-.56-.69-2.53-1.38-1.74-2.54.09-.12-.09-.22-.18-.24-.64-.12-1.62-.34-1.79-1.09s.43-1.11,0-1.86c-.26-.49-3-2.19-2-2.89,0,0,.33-.23.25-.34a23.85,23.85,0,0,1-3.21-5.91C745.91,169,743.77,169.67,743.94,170.12Z"/><path class="cls-33" d="M819.28,114.84c-2.45-2-.06-6.49-2-9a20.71,20.71,0,0,1-1.52-1.59c-1.12-1.73.33-4.21-.63-6-.43-.82-1.29-1.36-1.65-2.21-.69-1.63.72-3.47.37-5.21-.39-1.94-2.9-3.38-2.33-5.27.28-.93,1.26-1.53,1.49-2.47.4-1.64-1.58-3.55-.49-4.83.38-.45,1-.62,1.34-1.12.6-1-.67-2.06-1.23-3.09s-.36-2.39-.62-3.58-1.5-2.41-2.56-1.8c.47-2-1.18-7-3.16-6.6-1,.2-2.19.8-2.79,0-.43-.57-.1-1.44-.47-2-.93-1.55-3.48,1.13-5,.18-.41-.26-.63-.74-1-1.07a3.08,3.08,0,0,0-3.14-.15,7.16,7.16,0,0,1-3.17.9c-1.1-.09-2.16-1.34-1.57-2.28a8.64,8.64,0,0,1-3.47,1.75,3,3,0,0,1-3.28-1.54,2.59,2.59,0,0,1-4.2,1.51c-.52-.53-.92-1.36-1.67-1.37a1.59,1.59,0,0,0-.91.35c-1.23.83-2.6,5-3.18,6.34l-.19-8.12,22.2-5.32L814,60.55l9.15,22.77-4.63,33.11"/><path class="cls-14" d="M820.3,114.47c-2.6-2.35.15-6.65-2.29-9.22-.75-.78-1.49-1.34-1.63-2.49a16.3,16.3,0,0,1,.13-2.79,3.76,3.76,0,0,0-.73-2.56c-.65-.83-1.4-1.42-1.45-2.53-.1-2,1.2-3.59,0-5.56-.79-1.33-2.47-2.7-1.61-4.38.37-.72,1.08-1.22,1.29-2a4,4,0,0,0-.38-2.34c-.23-.67-.67-1.57-.27-2.26s1.58-.85,1.66-1.9-1-1.9-1.45-2.82c-.51-1.13-.24-2.39-.59-3.56-.61-2-2.52-2.18-4.22-1.47l1.69-.07a7.77,7.77,0,0,0-1.7-6.06,2.3,2.3,0,0,0-2.32-.73c-.81.14-1.78.76-2.11-.37-.18-.61,0-1.32-.46-1.82-.67-.66-1.88-.34-2.66-.12-.51.15-1,.44-1.51.54-.93.18-1.08-.62-1.71-1.12-1.09-.87-2.67-.6-3.91-.23-.73.22-1.45.7-2.19.85a1.51,1.51,0,0,1-1.74-2c.21-.48-1.72.05-1.9.18-.81.57-1.79,1.43-2.83,1.35a2.41,2.41,0,0,1-2-1.41c-.24-.5-2.09.1-2.17.58-.12.71-.56,1.48-1.3,1.34s-1.11-1-1.66-1.48c-1-.86-2.69-.34-3.64.37-1.88,1.4-2.49,4.45-3.35,6.5l2.15-.48-.18-8.12-1,.61,19.39-4.64,2.81-.67-1.11,0,15.77,7.5,3.18,1.51c.56.27.52.14.7.55,1,2.37,1.93,4.81,2.89,7.2l4.18,10.4,1.45,3.59a6,6,0,0,1,.5,1.27,7.74,7.74,0,0,1-.21,1.5l-.48,3.42-1.47,10.5-2.48,17.67c0,.22,2.08.06,2.17-.58l3-21.67,1.49-10.65A2,2,0,0,0,824,82.6c-.51-1.36-1.09-2.69-1.63-4L817.08,65.3l-1.78-4.42c-.27-.67-.36-.72-1-1L803,54.48l-5.7-2.71c-1-.49-1.82-1.09-3-.85-7.18,1.53-14.31,3.43-21.45,5.15l-.74.17c-.25.06-1,.27-1,.61l.18,8.12c0,.43,2-.12,2.16-.49.57-1.36,1-2.75,1.67-4.08.28-.6.63-1.12,1-1.69a2.17,2.17,0,0,1,.32-.36c-.46.08-.51.2-.15.38a3.49,3.49,0,0,0,.87,1c1.83,1.68,5.92.26,6.31-2.16l-2.17.58c1.67,3.48,6.53,1,8.66-.48l-1.9.17c-.55,1.24.55,2.33,1.75,2.51,1.55.23,2.87-.59,4.29-1s1.63.22,2.61,1.06a2.08,2.08,0,0,0,1.47.51,6,6,0,0,0,1.52-.24,8.37,8.37,0,0,1,1.66-.57c1.22,0,.42,2.24,1.59,2.73a3.06,3.06,0,0,0,1.59.05c.39-.06.77-.22,1.15-.27s.1-.16.44,0c1.73,1,2.6,4.44,2.24,6.27-.11.55,1.5,0,1.69-.06-1.24.52-.46-.08-.19.36.13.22.51.45.64.65a2.84,2.84,0,0,1,.44,1.15,17.88,17.88,0,0,0,.42,3c.34.88,1.16,1.5,1.44,2.39.37,1.16-.8,1.35-1.37,2.09-1,1.29.41,2.84.51,4.19.12,1.65-1.87,2.45-1.57,4.17.27,1.49,1.76,2.47,2.25,3.89.64,1.83-.92,3.63-.31,5.45.29.86,1.05,1.36,1.53,2.1a3.84,3.84,0,0,1,.52,2.46c-.11,1.88-.39,3.34,1.09,4.75s1.63,3,1.58,5c0,1.71-.11,3.47,1.25,4.71.42.37,2.36-.46,2-.74Z"/><path class="cls-29" d="M821,129.44l-1.9.39a.92.92,0,0,1-.59,0c-.45-.22-.27-.88-.19-1.37.2-1.15-.54-2.21-1.12-3.22s-1-2.31-.38-3.26c.35-.5,1-.87,1-1.48,0-.8-1-1.12-1.6-1.66a1.93,1.93,0,0,1,.58-3.07,5.6,5.6,0,0,1-1.33-4.46c.21-3.06.79-6.37.79-6.37l4.25-3Z"/><path class="cls-14" d="M821.16,129a6.3,6.3,0,0,1-1.42.3q-.63.36-.45-.18l0-.51a3.89,3.89,0,0,0-.13-1.91c-.53-1.43-2.36-3.16-1.35-4.77.58-.92,1.65-1.59.54-2.63-.5-.46-1.17-.64-1.46-1.31a1.64,1.64,0,0,1,.52-2c.17-.08.62-.35.38-.58-2.62-2.46-.73-7.19-.56-10.19,0,0,.12-.63,0-.29s0,0,.16-.08c.5-.29,1-.67,1.45-1l2.52-1.75-1.93.22.41,24,.06,3.43c0,.46,2.18.11,2.17-.58l-.41-24-.06-3.43c0-.57-1.72.07-1.92.21l-2.81,2c-.74.51-1.61.84-1.76,1.76a35.46,35.46,0,0,0-.73,6.8,5.49,5.49,0,0,0,1.41,3.72l.38-.58c-1.2.6-2.1,2.08-1.21,3.35.41.59,1.55.88,1.74,1.59s-1.16,1.66-1.28,2.51c-.29,2.12,2,3.54,1.8,5.63-.05.66-.29,1.37.49,1.64s2.21-.21,3.09-.39c.28-.06,1.23-.24,1.26-.63S821.42,128.93,821.16,129Z"/><path class="cls-33" d="M739.27,64.7c.33.6-.48,1.18-1.14,1.32s-1.54.36-1.59,1c0,.42.31.81.28,1.23-.09,1.28-2.63.45-3.2,1.61-.42.87.74,2.08.07,2.77-.33.33-.86.26-1.31.34a2,2,0,0,0-1.55,1.6c-.09.58.09,1.22-.18,1.75s-1.15.8-1.77,1.16c-1.63,1-1.8,3.2-1.65,5.08s.34,4-1,5.39c-1.43-1-.13-2.3.79-3.78a9.93,9.93,0,0,0,.86-1.32,1.18,1.18,0,0,0-.27-1.43c-.22-.14-.51-.19-.65-.41-.4-.62.83-.9,1.37-1.4s.12-1.77-.51-2.45-1.38-1.58-1-2.41,1.43-.9,1.8-1.63-.31-1.8-.19-2.72c.16-1.22,1.64-1.71,2.85-1.94a1.92,1.92,0,0,1,.55-3c.44-.19,1-.24,1.27-.64.4-.61-.17-1.56.33-2.09s1.24-.15,1.7-.55c.72-.64-.36-1.87,0-2.77.47-1.2,3-1,2.77-2.25"/><path class="cls-14" d="M738.19,65c.16.55-1.53.87-1.89,1.1a1.68,1.68,0,0,0-.84,1.11,2.65,2.65,0,0,0,.19.92.77.77,0,0,1,.05.5c.29-.14.32-.18.08-.11a9.59,9.59,0,0,1-1.47.25c-.94.26-1.9.84-1.86,1.93,0,.36.53,1.47.39,1.69,0,.05-1.47.38-1.76.55A2.93,2.93,0,0,0,730,74.11c-.38.75,0,2-.64,2.54-.45.37-1.11.49-1.59.87a3.93,3.93,0,0,0-1.17,1.56c-1.23,2.81.81,6.42-1.32,8.88l2-.4c-1.78-1.49,1.91-3.79,1.84-5.51a1.43,1.43,0,0,0-.46-1c-.09-.1-.33-.13-.38-.22-.25-.45-.07-.22.2-.47.62-.58,1.33-.78,1.28-1.79s-.82-1.61-1.37-2.33-.76-1.27-.1-1.83c.34-.3.77-.47,1.09-.81a2.2,2.2,0,0,0,.35-2.22c-.36-1.55.31-2,1.75-2.33.3-.06,1.26-.51.86-1a1.43,1.43,0,0,1,.26-2.22c.56-.31,1.2-.38,1.57-1a1.77,1.77,0,0,0,.23-.9c0-.22,0-.43,0-.65-.29-.24-.25-.33.13-.29.57-.32,1.23-.23,1.71-.8a1.66,1.66,0,0,0,.21-1.6c-.21-1-.32-1.37.63-1.76s2.09-.79,2-2c-.06-.71-2.24-.25-2.17.58,0,.44-1,.62-1.34.78a2.67,2.67,0,0,0-1.35,1.15,3,3,0,0,0,.14,2.1c.21.59.09.33-.44.46a2.88,2.88,0,0,0-.94.39,1.62,1.62,0,0,0-.74,1.54c0,.64.13.76-.45,1a4.86,4.86,0,0,0-1,.5,2.37,2.37,0,0,0-.45,3.47l.86-1c-2,.42-4.19,1.41-3.67,3.82.2.92.24,1.35-.55,2a3.47,3.47,0,0,0-1.1,1c-.55,1,.22,2,.86,2.73.44.51,1.13,1.29.69,1.94-.29.42-.89.54-1.24.92-.8.86.05,1.1.55,1.7.75.9-1.26,2.91-1.73,3.76s-.65,1.84.26,2.6c.56.47,1.6.08,2-.4,2.23-2.58.24-6,1.35-8.91.58-1.52,2.29-1.41,3-2.72.35-.62.12-1.26.25-1.91.23-1.15,1.1-.81,1.93-1.18,1.34-.58,1.13-1.45.87-2.64-.2-.93-.05-.81.78-1a5,5,0,0,0,1.38-.38,1.81,1.81,0,0,0,1-1c.18-.6-.52-1.27.1-1.71s1.31-.35,1.86-.82a1.29,1.29,0,0,0,.53-1.4c-.22-.76-2.39-.17-2.17.58Z"/><path class="cls-34" d="M822.48,117.72l-.38-2.6-27.93-4.28h0c-10.11-2.53-23.34,1.86-30.58,7.89L756.7,120l0-.11c-8.82-4.9-22.35-4.09-32,1.91l.41,1h0c0,.06.11.21.19.43l.37.91c2.29,5.8,4.89,11.9,6.78,13.36,1.28,1,5.08,1,8.19.89,1.17,0,2.24-.13,3-.19.92-.08,9.1-.83,10.3-2.26s2.35-11.16,2.64-14.22l7.06-1.24c1.2,2.2,4.29,11.93,8,13.5s21.38-1.48,22.72-4.16c.94-1.9,3.48-8.68,3.94-12.06l1-4.39ZM753,135.12c-1.33,1.4-17.6,3-19.81,1.37-1.87-1.43-5.14-9.7-6.37-12.81l0-.13c8.72-4.85,20.9-5.6,28.56-1.49-.61,5.3-1.61,12.13-2.36,13Zm39.17-5.73c-.83,1.68-16.18,5-20,3.41-2.66-1.12-5-8.22-6.74-12.24,7.1-5.75,22.65-9.84,31.71-7-.9,5.34-2.55,11.69-4.95,15.85Z"/><path class="cls-35" d="M752.83,135c.75-.89,1.76-7.72,2.36-13-7.66-4.12-19.84-3.37-28.56,1.49l0,.13c1.23,3.1,4.5,11.37,6.37,12.8,2.21,1.69,18.48,0,19.81-1.37Z"/><path class="cls-35" d="M792.19,129.39c2.55-4.53,4-10.51,4.95-15.85-9.06-2.82-24.61,1.27-31.71,7,1.7,4,4.08,11.12,6.74,12.24,3.84,1.63,19.19-1.73,20-3.41Z"/><path class="cls-14" d="M785.08,151.69a4.6,4.6,0,0,1,2.25,2.54,4.91,4.91,0,0,1,0,1.27l-.15,1.95a.66.66,0,0,1-.1.37.7.7,0,0,1-.35.23,3.2,3.2,0,0,1-1.31.32,1.08,1.08,0,0,1-1-.76,1.42,1.42,0,0,0-.1-.55c-.19-.31-.65-.2-1-.25-.9-.11-1.23-1.2-1.73-2A4.65,4.65,0,0,0,778.5,153a9.43,9.43,0,0,1-1.82-.42,1.77,1.77,0,0,1-1.15-1.35"/><path class="cls-14" d="M746.36,156.5a4.55,4.55,0,0,0-1.48,3.06,4.78,4.78,0,0,0,.32,1.22l.68,1.84a.69.69,0,0,0,.19.33.79.79,0,0,0,.4.13,3.07,3.07,0,0,0,1.35-.06,1,1,0,0,0,.76-1,1.74,1.74,0,0,1-.05-.55c.1-.35.57-.38.91-.52.84-.35.86-1.49,1.13-2.36A4.62,4.62,0,0,1,753,156a9.64,9.64,0,0,0,1.64-.9,1.74,1.74,0,0,0,.74-1.61"/><path class="cls-14" d="M785.17,149.86a3,3,0,0,0-1.64-.9c-.62-.12-1.6.22-2-.27a3.23,3.23,0,0,0-1.3-1.1,3.34,3.34,0,0,0-1.93.08,4.19,4.19,0,0,0-1.67.84c-.21.13-.14.1.2-.06s.42-.12.22-.18c0-.06-.31-.16-.38-.2a5.23,5.23,0,0,0-.72-.34,2.88,2.88,0,0,0-1.74.07,3.48,3.48,0,0,0-.87.36,2.51,2.51,0,0,0-.49.46l1.07-.21c-.59,0-1-.53-1.46-.86a2.1,2.1,0,0,0-1.27-.48,4.59,4.59,0,0,0-1.56.29,6.14,6.14,0,0,0-.7.3,5.06,5.06,0,0,0-.46.24c.56,0,.65-.15.3-.35-.41-.48-2.28.46-2.17.58a2,2,0,0,0,2,.33,5.64,5.64,0,0,0,1.27-.45c.85-.41,0-.12,0-.06l.6.4a2.79,2.79,0,0,0,2.36.85,4.36,4.36,0,0,0,1.39-.45,2.08,2.08,0,0,0,.48-.36c.29-.23.18-.24-.34,0-.57,0-.66.09-.25.19a3.17,3.17,0,0,0,2.09.64,4.68,4.68,0,0,0,1.52-.4,5,5,0,0,0,.6-.32l.15-.1q.51-.33-.12,0a13,13,0,0,1,1,1,1.27,1.27,0,0,0,.86.44c.49,0,1-.13,1.47,0a2.57,2.57,0,0,1,1.39.81c.36.37,2.32-.43,2-.71Z"/><path class="cls-14" d="M759.79,149.08a3,3,0,0,0-2.5.49c-.45.29-.85.81-1.38.83a3.16,3.16,0,0,0-1.45.31,2,2,0,0,0-.6.47,1.89,1.89,0,0,0-.33.5c.47-.07.58-.13.34-.19l-.26-.09c-.2-.07-.4-.17-.6-.23a2.53,2.53,0,0,0-1.61,0,2.42,2.42,0,0,0-1.5,1.71l-.07.13c.24-.11.31-.15.18-.12a2.13,2.13,0,0,0-.43,0,4.18,4.18,0,0,0-1.36.19,2.39,2.39,0,0,0-1.17.77c-.11.15-.49.86-.33,1-.25-.29.7-.27.14-.22a1.54,1.54,0,0,0-.54.2,1.22,1.22,0,0,0-.75.93c-.06,1.06,2.14.72,2.19-.19-.67.39-.82.53-.47.42l.13,0a3.75,3.75,0,0,0,.53-.19,1.7,1.7,0,0,0,.85-.76,1.22,1.22,0,0,0,.13-.53l0-.18c0-.08,0-.08-.11,0s-.3,0,.11,0a3.84,3.84,0,0,0,.48,0,2.52,2.52,0,0,0,2.69-1.67c0-.09.17-.28.16-.37,0,.28-.92.07-.29.3a3.43,3.43,0,0,0,2.25.27,2.19,2.19,0,0,0,1.12-.71,1.47,1.47,0,0,0,.28-.42c.13-.19,0-.16-.35.1h.3a3.87,3.87,0,0,0,2.12-.68c.26-.17.49-.38.75-.56l.24-.18c.24-.21,0,0-.18,0a1.57,1.57,0,0,0,1.53-.41.56.56,0,0,0-.26-1Z"/><path class="cls-22" d="M757.85,363.63c-10.83-3.24-21.11-8.2-31-13.66-6.59-3.65-13-7.58-19.38-11.61l-76.9-6.29-8.27,42.14s87.28,20.47,97.1,20.55c27,.22,36.47-9.86,45.06-29.43C762.25,364.86,760,364.28,757.85,363.63Z"/><path class="cls-36" d="M746.13,399.71a7.75,7.75,0,0,1,1.06-1l-.06-.42c-2.38-14.58-5.54-34.1-9-55.8s-6.38-41.34-8.6-55.84c-1.08-7-2-12.71-2.64-16.95l-.77-4.57a4.92,4.92,0,0,0-.38-1.6,5.23,5.23,0,0,0,0,1.63c.11,1.25.27,2.79.46,4.66.41,4,1.12,9.84,2,17,1.85,14.37,4.64,34.17,8.07,56s6.89,41.49,9.57,55.68C746,398.91,746.05,399.31,746.13,399.71Z"/><path class="cls-17" d="M763.51,156.17c5-.62,16.53,1.1,19,2.77,0,0-5.28,4.66-17,6.08s-14.11-2.32-14.11-2.32S757.09,156.94,763.51,156.17Z"/><path class="cls-18" d="M777.5,157.36s-6,.25-10.83.83S756,160,756,160s-1.2-3.46,7.47-4.51S777.5,157.36,777.5,157.36Z"/><path class="cls-19" d="M765.36,163.45c5.38-1.44,10.73-4.13,17.16-4.51,0,0-.92,7.5-14.65,9.17s-16.42-5.41-16.42-5.41C757.79,161.54,759.79,163.34,765.36,163.45Z"/><path class="cls-19" d="M757.21,154.18c2.86-.56,4.82.3,6.07.15s3-1.46,5.87-1.6c2.72-.13,15,5.06,13.78,6.07s-10.62-2.75-19.31-1.69-11.21,6.26-12.6,5.56S754.53,154.7,757.21,154.18Z"/><path class="cls-14" d="M765.55,149.79l1,2.89a1.09,1.09,0,0,0,1,.74c3.23,0,15.51-.11,18.38-.56.07,0-.08,1.23,0,1.21l.67-.15c1-.36-.26-3.85-1.33-4.1a61.62,61.62,0,0,0-7.95-1.37c-2.22-.19-8.34-.52-10.93-.12A1.1,1.1,0,0,0,765.55,149.79Z"/><path class="cls-14" d="M761.86,150.65l.3,2.77a1.07,1.07,0,0,1-.74,1c-2.89.89-12.33,3.79-15,4.15h-.19l-.87,0c-1-.07-.78-2.37.11-2.91a47.3,47.3,0,0,1,6-3.26,52.74,52.74,0,0,1,9.23-2.86A1,1,0,0,1,761.86,150.65Z"/><path class="cls-22" d="M899.84,202.92c21.09,19.19,18.87,53,17.93,78.82-.82,22.54.45,47.82-4.24,69.91-2.21,10.46-1.9,19.82-10.32,27.44-21.06,19.07-120.52,56-120.52,56s-11.87-32.37,2.39-44.62,70.83-38.12,70.83-38.12-1.46-110.25,7.16-118.73c7.15-7,4.46-22.56,8.89-31.38C878.33,189.53,890.93,194.81,899.84,202.92Z"/><path class="cls-36" d="M777.2,432.64s34.29-3.69,122.65-37.86c0,0,6.2-4,12.56-36.14h0l-.6,2.74s-2.68,29.18-11.28,34.3c-9.81,5.84-99.91,37.74-121.75,38.32a15.12,15.12,0,0,1-1.68,0Z"/><path class="cls-36" d="M854.6,351.26c.07-10.51.28-53.85-.66-86.2l-1.5,86.19C853.16,351.24,853.88,351.23,854.6,351.26Z"/><path class="cls-36" d="M854.79,351.26c-.09,0-.3-2-.39-2.07-.57-.14-1,1.71-1.59,1.58l-89.55,46.32.7,5,1-.19-.65-4.6C780.15,389.57,846,355.74,854.79,351.26Z"/><path class="cls-36" d="M853.05,350.64s12.77,4.51,17.62,10.64c0,0-7.52-10.48-17.62-10.64"/><path class="cls-2" d="M618.7,360.86c11.64-19.91,7-20.42-.3-30S603.57,317,599.17,313.8s-12.74-13.74-15-12.07-3.62,4.57-1.84,8.81,11.59,9.91,10.76,15.07c-.6,3.74-4.45,3.2-4.45,3.2s-17.88-2.54-25.16-4.73-14.22-2.18-14.37.46,1,4.33,7,6.13,16.08,3.5,16.29,5-2,2-5.54,1S546.5,332.12,545,333.8a3.88,3.88,0,0,0,.89,5.92l3.67,2.24s-3,2.71-1.43,4.9,6,2.46,6,2.46l22.5,4.05s1,1.61.17,2.4-18.08-4.15-18.61-2.26-2.25,2.46,2.72,4.84,18.23,3.86,23.14,4.84a109.46,109.46,0,0,0,25.74,1.7Z"/><path class="cls-13" d="M580.74,346.39c0,.39-7.17.13-15.87-1.08L549.51,342S574.4,343.43,580.74,346.39Z"/><path class="cls-13" d="M595.89,331.18a16.39,16.39,0,0,0-1.33,10.7c.6,2.65,1.6,3.95,1.39,4.15l3.56,4.13A28.62,28.62,0,0,1,595.89,331.18Z"/><polygon class="cls-2" points="765.19 401.51 753.02 406.02 764.78 433.31 776.24 428.77 765.19 401.51"/><path class="cls-2" d="M692.22,432.72c.81-.6,11.52-7.44,11.52-7.44l14.4-5.76-14.41,2.05-11.84,5.77s-4.89,1.48-4.54-2.92,14.73-11.75,14.73-11.75l19.18-4.89s-14.24-.68-16.64-5c-1.45-2.26-2.7-3.9-1.39-6.25a120.66,120.66,0,0,0,16.61,2.2,101.6,101.6,0,0,1,20.55,2.61,135.65,135.65,0,0,1,14,3.6l13.51,27.18s-12.11,11.13-27.63,13.52-28.32,9.89-30.57,8.86-2.88-3.41-.9-4.93A74.54,74.54,0,0,1,720,445l7.53-4.82s-27.15,7.49-29.57,6.78-4.86-1.85-4.47-4.43a3.54,3.54,0,0,1,2.66-3s-5.93,1.31-6.15-1.14C689.21,435.11,690.71,434.22,692.22,432.72Z"/><path class="cls-13" d="M724.79,429.78a32.68,32.68,0,0,1-4.57,1.2c-2.83.7-6.71,1.75-10.9,3.2s-7.9,3-10.53,4.19a39.74,39.74,0,0,1-4.34,1.88,19.77,19.77,0,0,1,4.08-2.42,83.95,83.95,0,0,1,21.54-7.43A20.3,20.3,0,0,1,724.79,429.78Z"/><polygon class="cls-36" points="776.24 428.77 778.78 434 777.51 434.47 775.2 429.19 776.24 428.77"/><path class="cls-36" d="M703.27,337.86s12.77,4.51,17.61,10.64c0,0-7.52-10.48-17.61-10.64"/><path class="cls-32" d="M752.91,98.67s4.21.38,3.72,4.26-2.51,4.3-2.51,4.3S756.39,101.2,752.91,98.67Z"/><path class="cls-32" d="M761.27,96.51s-3.73,2-1.78,5.37,4,3,4,3S759,100.19,761.27,96.51Z"/></g><g id="Layer_2" data-name="Layer 2"><path class="cls-36" d="M854.41,250.92c.26,0-.11-3.47.89-8.93a43.72,43.72,0,0,1,25.17-32.67c5-2.3,8.47-2.93,8.41-3.16a8.12,8.12,0,0,0-2.35.31,36.12,36.12,0,0,0-6.34,2,42,42,0,0,0-25.82,33.4,36.06,36.06,0,0,0-.29,6.65A8.27,8.27,0,0,0,854.41,250.92Z"/></g></svg>