<svg xmlns="http://www.w3.org/2000/svg" xmlns:xlink="http://www.w3.org/1999/xlink" viewBox="0 0 1303.15 1057.31"><defs><style>.cls-1,.cls-26,.cls-36,.cls-55{fill:none;}.cls-2{clip-path:url(#clip-path);}.cls-3{fill:#c7e4e3;}.cls-4{fill:#2d2d2d;}.cls-5{fill:#494a4b;}.cls-6{fill:#606161;}.cls-7{fill:#956243;}.cls-8{fill:#231f20;}.cls-9{fill:#797979;}.cls-10,.cls-17{fill:#f9f2df;}.cls-11{fill:#273339;}.cls-12{fill:#772515;}.cls-13{fill:#383838;}.cls-14{fill:#919191;}.cls-15{fill:#4a1611;}.cls-16,.cls-27,.cls-58{fill:#fff;}.cls-17,.cls-26,.cls-27,.cls-54{stroke:#231f20;}.cls-17,.cls-21,.cls-26,.cls-27,.cls-31,.cls-34,.cls-35,.cls-36,.cls-44,.cls-54,.cls-55,.cls-56{stroke-miterlimit:10;}.cls-17,.cls-44,.cls-54{stroke-width:1.13px;}.cls-18{fill:#ffd215;}.cls-19{fill:#bc93b4;}.cls-20,.cls-21{fill:#896081;}.cls-21{stroke:#896081;stroke-width:0.84px;}.cls-22{fill:#284e66;}.cls-23,.cls-31,.cls-34,.cls-35,.cls-56{fill:#151210;}.cls-24{fill:#010101;}.cls-25{fill:#653c2a;}.cls-26,.cls-27{stroke-width:2.25px;}.cls-28{fill:#653c29;}.cls-29{fill:#31160e;}.cls-30{fill:#f1eef7;}.cls-31,.cls-34,.cls-35,.cls-36,.cls-55,.cls-56{stroke:#161311;}.cls-31{stroke-width:0.35px;}.cls-32{fill:#13110f;}.cls-33{fill:#ce8d2a;}.cls-34{stroke-width:0.35px;}.cls-35{stroke-width:0.37px;}.cls-36{stroke-width:0.85px;}.cls-37{fill:#4d2f15;}.cls-38{fill:#1b120c;}.cls-39{fill:#b7b338;}.cls-40{fill:#825639;}.cls-41{fill:#772115;}.cls-42{fill:#a53b23;}.cls-43{fill:#2b2927;}.cls-44{fill:#6d6a2c;stroke:#6d6a2c;}.cls-45{fill:#132e38;}.cls-46{fill:#151312;}.cls-47{fill:#946343;}.cls-48{fill:#221f20;}.cls-49{fill:#cc8d2a;}.cls-50{fill:#653c2b;}.cls-51{fill:#311811;}.cls-52{fill:#f0ecf6;}.cls-53{fill:#1b3e4f;}.cls-54{fill:#0c1d27;}.cls-55{stroke-width:0.88px;}.cls-56{stroke-width:0.37px;}.cls-57{fill:#040404;}.cls-58{opacity:0.14;}.cls-59{clip-path:url(#clip-path-2);}</style><clipPath id="clip-path"><rect class="cls-1" width="1301.13" height="1059.25"/></clipPath><clipPath id="clip-path-2"><rect class="cls-1" x="1710.92" y="5.02" width="1297.75" height="1052.29"/></clipPath></defs><g id="Layer_2" data-name="Layer 2"><g class="cls-2"><rect class="cls-3" x="-154.3" y="-62.26" width="1468.81" height="1101.61"/><polygon class="cls-4" points="1105.78 1134.7 -154.51 1134.7 -153.76 983.8 895.71 983.8 1105.78 1134.7"/><polygon class="cls-5" points="629.33 934.73 629.33 983.8 828.26 1134.7 869.2 1134.7 922.75 1134.7 629.33 934.73"/><polygon class="cls-6" points="1314.29 1134.7 922.75 1134.7 632.42 936.91 1314.72 936.91 1314.29 1134.7"/><path class="cls-7" d="M942.59,473.62s-8.91,42.56-8.47,69.16v11.14h21.53L975,469.37Z"/><g id="freepik--Characters--inject-342"><rect class="cls-8" x="-88.01" y="183.35" width="131.97" height="53.11" rx="13.57"/><path class="cls-8" d="M30.39,238.15H-74.43a15.31,15.31,0,0,1-15.28-15.27V197a15.32,15.32,0,0,1,15.28-15.31H30.39A15.31,15.31,0,0,1,45.66,197v25.93A15.27,15.27,0,0,1,30.39,238.15Zm-104.82-53.1A11.9,11.9,0,0,0-86.3,197v25.93a11.87,11.87,0,0,0,11.87,11.87H30.39a11.88,11.88,0,0,0,11.87-11.87V197a11.9,11.9,0,0,0-11.87-11.9Z"/><path class="cls-8" d="M431.6,455.35l-46.14-35.62L313,172.8,214.1,159.6l46.3,181.27H-280.9l46.37-181.44-97.78,13.2-74.57,250.5-48.79,32.22ZM227.47,172.63l69.06,5.85,63,220.83-75.73-58.75h-4.08Zm-546.64,5.85,71.37-5.85L-304.24,353l1.9.65-79.33,52.66Z"/><path class="cls-9" d="M291.7,466.2,283.77,353a51.37,51.37,0,0,0-51.23-47.63h-104A51.33,51.33,0,0,0,77.34,353l-8,113.19Z"/><path class="cls-10" d="M416.5,474.76a1.37,1.37,0,0,1,.18-.56c-1.06-3.79,10.39-15.71,13.66-17.9,10.63-7.11-5.51-17.87-10-23.86-5-6.69-9.22-14-14.06-20.78C402.31,406.11,397.19,401,394,395c-20.57-38.54-29.47-36.45-34.88-40.14-10.54-7-73.25-21.53-73.25-21.53l-94,1.06S124.94,352,120.16,358.58c-11.65,14.5-27.22,34.81-34.51,51.92-1.09,2.67-15.83,27.21-17,29.88-11.81,28.7-.85,48.62,2,52.95l348-.07C417,487.19,415.82,481,416.5,474.76Z"/><polygon class="cls-8" points="292.28 437.69 285.17 428.57 211.58 474.74 158.78 474.74 85.7 433.13 79.61 439.73 115.58 490.69 251.05 490.69 292.28 437.69"/><path class="cls-8" d="M116.46,489H250.2l39.9-51.3-5.34-6.8-72.29,45.35a1.75,1.75,0,0,1-.89.27h-52.8a1.45,1.45,0,0,1-.81-.24L86,435.44l-4.18,4.43Z"/><path class="cls-11" d="M99.31,469.74a1.56,1.56,0,0,1-.68,0L72.2,458a1.71,1.71,0,1,1,1.39-3.13h0L100,466.64a1.66,1.66,0,0,1,.92,2.17l0,.08A1.78,1.78,0,0,1,99.31,469.74Z"/><path class="cls-11" d="M69,456.3a1.94,1.94,0,0,1-.68,0L63.05,454a1.71,1.71,0,1,1,1.39-3.13h0l5.24,2.31a1.72,1.72,0,0,1,.85,2.24A1.7,1.7,0,0,1,69,456.3Z"/><path class="cls-11" d="M345,481.61a1.73,1.73,0,0,1-1-.31,1.68,1.68,0,0,1-.41-2.34,27.15,27.15,0,0,0,3-5.68,1.7,1.7,0,1,1,3.19,1.19,31.1,31.1,0,0,1-3.4,6.39A1.66,1.66,0,0,1,345,481.61Z"/><path class="cls-11" d="M274.08,469.74a1.7,1.7,0,0,1-.72-3.23l26.44-11.74a1.71,1.71,0,0,1,1.36,3.13l-26.4,11.7A1.8,1.8,0,0,1,274.08,469.74Z"/><path class="cls-11" d="M304.39,456.3a1.66,1.66,0,0,1-1.53-1,1.71,1.71,0,0,1,.85-2.25l5.24-2.31a1.7,1.7,0,0,1,2.24.87h0a1.75,1.75,0,0,1-.86,2.25l-5.23,2.31A1.78,1.78,0,0,1,304.39,456.3Z"/><path class="cls-8" d="M413.7,714.21V929.09h-840V714.21H-584.23v314A44.23,44.23,0,0,0-540,1072.49h69.71a44.23,44.23,0,0,0,44.23-44.23h0v-14.49h76.51l35.83-22.8H298.13l45.69,26h70v11.26a44.23,44.23,0,0,0,44.22,44.23h69.47a44.23,44.23,0,0,0,44.23-44.23h0v-314Z"/><path class="cls-8" d="M527.53,1074.05h-69.7a45.87,45.87,0,0,1-46-45.76v-9.59h-68a1.72,1.72,0,0,1-.82-.21l-45.21-25.82H-313.5l-35.41,22.42a1.68,1.68,0,0,1-.92.27h-74.85v12.8A45.85,45.85,0,0,1-470.47,1074h-69.67a45.87,45.87,0,0,1-45.8-45.79v-314a1.71,1.71,0,0,1,1.71-1.7h157.89a1.7,1.7,0,0,1,1.7,1.7V927.39h836.5V714.21a1.7,1.7,0,0,1,1.7-1.7h158.2a1.7,1.7,0,0,1,1.7,1.7v314a45.86,45.86,0,0,1-45.93,45.79ZM344.16,1015.3H413.7a1.7,1.7,0,0,1,1.7,1.7v11.26a42.46,42.46,0,0,0,42.43,42.39h69.7A42.46,42.46,0,0,0,570,1028.26V715.91H415.27V929.09a1.71,1.71,0,0,1-1.71,1.7h-839.9a1.7,1.7,0,0,1-1.7-1.7V715.91H-582.53v312.35a42.42,42.42,0,0,0,42.39,42.39h69.71A42.43,42.43,0,0,0-428,1028.26v-14.49a1.71,1.71,0,0,1,1.7-1.71h76.14l35.38-22.52a1.58,1.58,0,0,1,.92-.27h612a1.77,1.77,0,0,1,.82.2Z"/><path class="cls-12" d="M539.07,559.55c-5.85-11.7-48.55-56.27-57.12-65.18a16.74,16.74,0,0,1-2.52-3.4C469,471,380.39,233.36,364.85,204.47c-28.48-53.14-51.38-45.14-81.82-49-.89,0-80.54-6.54-81.46-6.54L49.2,143.78a1134.39,1134.39,0,0,0-114.28,0l-187.69,9.39C-305,155.82-355.31,152.45-384,204.4c-15.92,28.79-104.14,266.46-114.58,286.46a16.18,16.18,0,0,1-2.52,3.41c-8.64,8.94-51.27,53.48-57.12,65.18-6.5,13-32.56,61.85-32.56,71.44,0,8.44,6.06,147.72,32.83,256.86a93.15,93.15,0,0,0,64.85,68,22.71,22.71,0,0,0,4.9,1H-285.4a15.33,15.33,0,0,0,13.27-7.65l48-82.88a15.14,15.14,0,0,1,3.68-4.25,115.13,115.13,0,0,1,71-24h280a115.42,115.42,0,0,1,70.84,24,15.62,15.62,0,0,1,3.64,4.25l48,82.88a15.33,15.33,0,0,0,13.26,7.65h202.8a22.71,22.71,0,0,0,4.9-1A93.14,93.14,0,0,0,538.79,888c26.78-109.13,32.84-248.35,32.84-256.85C571.76,621.4,545.57,572.58,539.07,559.55Zm-994.74-104.2c40.83-79.75,117.2-268.84,117.2-268.84,264.33-26.53,482-20.22,588.16-12,43.61,3.38,71.17,10.37,71.17,10.37h0a210,210,0,0,1,30.22,54.58l80.48,215.89C179.26,431-455.67,455.35-455.67,455.35Z"/><path class="cls-9" d="M-276.55,956.78l-11.4,26H265.57l-8.13-26L203.72,864s-21.16-24.43-73.24-26-280,0-280,0a108.36,108.36,0,0,0-73.25,26Z"/><path class="cls-13" d="M-229.36,647.46s44,78.25,57,91.18,27.7,13,45.59,14.63,263.73,0,263.73,0,19.53-3.4,29.33-17.9,42.32-87.91,42.32-87.91Z"/><path class="cls-9" d="M-185.75,658.08s35.21,62.56,45.66,73,22.15,10.41,36.5,11.73,211.2,0,211.2,0,15.62-2.62,23.44-14.35,34-70.39,34-70.39Z"/><path class="cls-13" d="M173.27,929.09l-9.76-26.88A42.22,42.22,0,0,0,123,874.35L-141.42,877a42.25,42.25,0,0,0-39.87,30.93l-6.6,21.16Z"/><polygon class="cls-13" points="-191.94 942.12 -200.04 968.18 187.43 968.18 177.97 942.12 -191.94 942.12"/><path class="cls-8" d="M480.45,492.8s8.13-63.48,22.79-63.48,79.78,17.9,81.38,30.93-12.86,27.52-26,30.92-40.83,6.53-40.83,6.53l-6.53,24.4Z"/><path class="cls-8" d="M511.37,523.8a1.61,1.61,0,0,1-1.15-.45L479.29,494a1.64,1.64,0,0,1-.54-1.43c.85-6.8,8.81-65,24.49-65,13.92,0,81.25,17.83,83.08,32.42,1.74,13.95-13.61,29.33-27.21,32.8-11.64,2.89-34.33,5.75-39.78,6.39l-6.22,23.31a1.68,1.68,0,0,1-1.16,1.22Z"/><path class="cls-9" d="M296.19,639.33s-29.29,30.93-39.05,87.91c0,0,138.36-6.53,192.08-27.69s60.25-22.8,61.88-32.56-3.4-79.78-24.43-91.18-43.95-8.13-65.11,8.17-47.22,40.82-61.89,45.59S296.19,639.33,296.19,639.33Z"/><path class="cls-14" d="M399.79,639.55A38.17,38.17,0,1,0,438,601.38h0a38.13,38.13,0,0,0-38.17,38.11Z"/><path class="cls-14" d="M331.64,684a17.73,17.73,0,1,0,17.73-17.73h0A17.73,17.73,0,0,0,331.64,684Z"/><path class="cls-13" d="M470.69,784.23s-151.4,29.29-157.93,34-19.53,32.56-19.53,32.56l30.93-8.14s71.65,3.41,96-8.13S470.69,784.23,470.69,784.23Z"/><path class="cls-15" d="M395.53,484a1.57,1.57,0,0,1-.68-3c4.19-2.41,8.44-4.66,12.59-6.8a1.7,1.7,0,0,1,1.46,3.06c-4.08,2-8.23,4.19-12.35,6.57A1.87,1.87,0,0,1,395.53,484Z"/><path class="cls-15" d="M216.31,715.1a2.12,2.12,0,0,1-.71,0,1.67,1.67,0,0,1-.84-2.21l0,0c27.22-59.91,85-168.5,165.68-223a1.67,1.67,0,0,1,2.32.41l0,0a1.69,1.69,0,0,1-.42,2.36l0,0c-80,53.89-137.41,161.8-164.43,221.44A1.71,1.71,0,0,1,216.31,715.1Z"/><path class="cls-15" d="M202,748.88a1.14,1.14,0,0,1-.58,0,1.71,1.71,0,0,1-1-2.18s2.07-5.48,5.92-14.59a1.7,1.7,0,0,1,2.22-.93h0a1.69,1.69,0,0,1,.89,2.21c-3.81,9.08-5.82,14.46-5.85,14.49A1.78,1.78,0,0,1,202,748.88Z"/><path class="cls-16" d="M458.06,568.13a339,339,0,0,0,9.63-53.93"/><path class="cls-15" d="M458.06,569.83a1.46,1.46,0,0,1-.51,0,1.67,1.67,0,0,1-1.13-2.07v0A340.55,340.55,0,0,0,466,514.13a1.71,1.71,0,0,1,3.4.38,338.7,338.7,0,0,1-9.69,54.19A1.67,1.67,0,0,1,458.06,569.83Z"/><path class="cls-15" d="M292.48,910.58a1.79,1.79,0,0,1-1.32-.61c-1.5-1.84-36.92-44.91-38.89-64.44-2.07-20.82,25.92-49.87,34-51.88s137-27.79,142.55-28.92a1.75,1.75,0,0,1,2,1.36,1.67,1.67,0,0,1-1.3,2h0c-1.36.27-134.82,27-142.41,28.88-7.08,1.77-33.27,29.84-31.44,48.24,1.74,17.25,33.07,56.41,37.6,61.95l211.33-9.52L516,749a1.75,1.75,0,0,1,1.84-1.57,1.7,1.7,0,0,1,1.57,1.83h0l-11.57,150.2a1.71,1.71,0,0,1-1.6,1.57l-213.72,9.62Z"/><path class="cls-13" d="M-3.19,698.43q-5.2,0-10.21-.41l-157.11-12.59a1.7,1.7,0,0,1-1.56-1.84,1.7,1.7,0,0,1,1.84-1.56L-13.4,694.62a127.92,127.92,0,0,0,19.77,0l144.79-11.27a1.64,1.64,0,0,1,1.83,1.42c0,.05,0,.1,0,.15a1.7,1.7,0,0,1-1.56,1.84h0L6.64,698Q1.78,698.43-3.19,698.43Z"/><path class="cls-13" d="M-3.19,714c-3.47,0-6.87-.13-10.21-.41L-160.16,701.9a1.77,1.77,0,0,1-1.57-1.84,1.7,1.7,0,0,1,1.83-1.57h0L-13.4,710.23a133.13,133.13,0,0,0,19.77,0l139.72-10.85a1.6,1.6,0,0,1,1.82,1.34,1.64,1.64,0,0,1,0,.22,1.71,1.71,0,0,1-1.57,1.81L6.64,713.6Q1.78,714-3.19,714Z"/><path class="cls-13" d="M-3.19,729.66q-5.2,0-10.21-.41l-136.08-10.92a1.72,1.72,0,0,1-1.57-1.84,1.7,1.7,0,0,1,1.84-1.56l135.81,11a125.47,125.47,0,0,0,19.77,0l132.68-10.2a1.6,1.6,0,0,1,1.82,1.34,1.64,1.64,0,0,1,0,.22,1.74,1.74,0,0,1-1.57,1.84L6.64,729.32C3.4,729.54.12,729.66-3.19,729.66Z"/></g><ellipse class="cls-17" cx="237.99" cy="426.93" rx="3.97" ry="2.7"/><path class="cls-16" d="M101,401.85A29.15,29.15,0,0,0,85,399.31c-9.5,1.08-21.35,3.5-29.53,12.92-3.29,3.79-2,7.67-3.32,11.31-1.91,5.4-5.34,10.26-4.65,13.46,1.16,5.35-.4,7.57-.4,7.57l20.31,0"/><ellipse class="cls-18" cx="63.36" cy="410.5" rx="10.26" ry="4.12" transform="translate(-298.1 205.88) rotate(-51.71)"/><path class="cls-18" d="M58.5,415.93s-4.86,13.88,1.12,16.39,20.56-30.38,20.56-30.38S60.27,407.75,58.5,415.93Z"/><path class="cls-7" d="M761.38,337.07c-6.62,0-14.26,2.65-22.51,9.22l-43.65,45.82c1.35,3.39-1,5.26-.88,8.9.34,7.89-4.8,10.94-8.22,18-2.37,4.92-9.22,14.08-5.88,17.82,22.88,8.13,38.89-13.43,49-22.35l-.62-.42c5-7.93,9.66-16.07,14-24.35,9.33-17.59,22.87-33.38,30.94-51.58Z"/><path class="cls-7" d="M775.31,507.44s-31.72,103.3-32.45,209.64C747.19,790.48,765.34,905,765.34,905l23.22,4s10.23-102.81,13-194.22c6.92-72.93,18.15-116.66,18.15-116.66l.31-105Z"/><path class="cls-7" d="M823.94,518.85s-34.56,102.38-38.22,208.66c1,30.9,4.18,69.13,7.58,103.06C798,877.36,803,916,803,916l23.1,4.66S839.82,799.85,847,722.28c8.93-72.71,18.81-111.52,18.81-111.52l3.2-105Z"/><g id="freepik--character-2--inject-2"><path class="cls-19" d="M707.21,378.92c1.94,3.08,3.86,6.17,6,9.1a59.33,59.33,0,0,0,7.74,8.49,99.47,99.47,0,0,0,8.94,7.3l55.53-83-27.21,5.29c-8.24,1.19-22,4.86-26.22,10.11l-29.7,35.32C704,373.92,705.64,376.41,707.21,378.92Z"/><path class="cls-19" d="M743.55,470.83c.6,4.08-3.53,15.09-4.6,19.09-.54,2-1.15,4-1.78,6-.36,6.47-4.2,16.49-7.87,26.1a124.9,124.9,0,0,0,24.77,10.09,170.85,170.85,0,0,0,34.07,6.36,167.48,167.48,0,0,0,35.25-.63A118.15,118.15,0,0,0,856,529.17a85.88,85.88,0,0,0,9.59-4.93c-7-29.82-14.49-46.65-14.5-46.66l-3.08-7,13.74-137.72-22.84-8.1L828.75,322l-7.25,1.82c-5.25,7.38-12.07,11.75-21.11,12.31a59,59,0,0,1-8.28-.09,24.19,24.19,0,0,1-18.59-11.59l-.32.19-6.14.66-27.18,13s-10,67.54-9.71,77.43C730.36,422.54,736.75,424.79,743.55,470.83Z"/></g><path class="cls-20" d="M727.35,401.89l4.66-38.6s-.22,29.49-2.43,40.36c-.44,2.16.08-1.93,0,0"/><path class="cls-20" d="M728.59,401.79,732.67,368l.57-4.78-2.47.21c-.08,10.62-.37,21.29-1.32,31.87-.15,1.72-.33,3.43-.56,5.14-.09.69-.2,1.39-.32,2.08-.05.33-.11.66-.17,1s-.22.86-.15.71l1.29-.74h0l1.1.53c0,.3,0-.23,0-.34,0-.35.28-.63-.1-.19l-2.14.2c-.19-.35-.09-.17-.1.11,0,1.22,2.44.83,2.47-.21a1.63,1.63,0,0,0-.12-1c-.37-.7-1.76-.24-2.14.2a2.64,2.64,0,0,0-.37,1.83c.08.45.75.56,1.1.52,1.58-.15,1.58-1.74,1.79-3,.23-1.38.41-2.78.56-4.18.39-3.5.64-7,.84-10.55.39-6.65.59-13.3.71-20q0-2.14.06-4.29c0-1.24-2.35-.82-2.47.21l-4.08,33.81-.57,4.79c-.15,1.19,2.34.83,2.47-.21Z"/><path class="cls-19" d="M737.12,363.29s-11.62,46.53-10.66,53.83c1,7.78,6.25,14.61,12.33,21s6.88,23.11,7.78,27.55-14.69,45.79-18.92,60,53.9-49.14,53.9-49.14l-22.39-53.38Z"/><path class="cls-21" d="M763.34,442.18s11.46-4.48,22.77-4.58,22.23,4.58,22.23,4.58S776.85,437.5,763.34,442.18Z"/><path class="cls-22" d="M729.3,514.08s36.42,17.56,73.37,13.63S865,511.86,865,511.86s13.36,62.09,12.84,76.88-15.79,174-15.79,174-16.84,15.79-74.13,10-59.27-8.44-59.27-8.44-11.2-109.8-12.55-138.55,5.78-79.94,5.78-79.94"/><path class="cls-7" d="M860.62,481.89l-1.58,8a88,88,0,0,0-1.74,22.73l2.34,62.31h15.87s16.67-71.24,16.67-92c0-.29-.53-7.92-.54-8.25Z"/><path class="cls-7" d="M891.59,479.67c.36-20.35-1.1-90.52-6.23-113-6.43-22.25-19-25.93-19-25.93l-15.74,70.8L860.12,486Z"/><path class="cls-19" d="M861.73,332.84s16.15,5.62,22.73,21.71S898,402.46,898,402.46s-42.77,10.22-51.39,10.22c0,0-6.79-31.81-6.79-47.9S861.73,332.84,861.73,332.84Z"/><path class="cls-21" d="M855.9,341.52S845.36,348,844.38,363.7s4,44.55,4,44.55l.2,3.6-1.36-3.26s-3.67-20.44-4.59-34.15,1.83-22.35,6-26.82A30.21,30.21,0,0,1,855.9,341.52Z"/><path class="cls-7" d="M273.88,347.37a28,28,0,0,1-6,7.52c-3,2.47-.27,1.38-4,2.4l-.49,1.29c-3,.68-8.45,63.39-11.52,63.26l-19.24-63.6c-1.44-.18-6.34-1.77-7.71-2.12-11.31-2.89-14.42-4.82-19.09-15.26,1.07-15.19-1.33-47.67-1.33-47.67l67.94,9.17s1.49,28.25,2.95,32c.08.21,10.06,4.52,6,5.44C281.48,342.85,275.38,344.82,273.88,347.37Z"/><path class="cls-7" d="M254.67,331l22.74-2.86,11.18-3.6c1.16-.08,5.16-12.22,5.82-13.78,2-4.82,4.7-11.13,5.77-16.27,1.14-5.5,4.12-10.45,4.36-17,.18-4.78-.09-8.09-3.3-15.57a10.85,10.85,0,0,1-.71-6c.64-4.52.55-9.73,1.28-15.78a12.77,12.77,0,0,0,.18-3.27s-2.31-22.06-7.56-30.52-11.17-8.57-17.83-9.68-25.68-4.39-25.68-4.39l-25.77,1.61L203.56,207l-10.17,25.31L197.81,264l5.88,28.12"/><path class="cls-23" d="M206.86,247.5c.35,2.45,1.67,28.83,2.16,31.21l-12.74.88c-4.58-8.09-10.06-17.6-11.72-19.73-2.59-3.33-4.46-20.42-5.17-26.85l-.16-1.38c-.69-6.17,4.35-16.51,13.48-27.66,10-12.28,29.09-20.43,48.51-20.78,1.84,0,3.69,0,5.49.11,17,1,31,4.52,43,17.59,8.61,9.43,10.69,17.82,10.67,24.92a41.53,41.53,0,0,0-9.6-22.14c-5.46-9-11.66-5.84-15.84-6.08a13.85,13.85,0,0,0-6.77,1.25c-4,1.27-8,1.1-12.31.85-3.25-.19-5.84-.52-6.54-.61a22.65,22.65,0,0,0-9.67-2.36c-9.36-.55-22.61,2.27-25,6.58-2.66,4.78-14.26,5.9-14,9.66"/><path class="cls-7" d="M205,292.67c-6.83,8.2-12.92-6-12.92-6-7.84-8.09-8.52-17.29-8.73-23.6s6.72-6.74,6.72-6.74c5.93.2,8.79,3.16,15.18,22.62"/><path class="cls-23" d="M184.1,259s-11-18.38-8.21-39.6,27.41-33.81,38.23-36.56,45.3-5.29,55.22-1.72,28.23,9.35,30.42,41c0,0-1.47-20.11-22.86-18.66-9.56.64-26.73,3.05-39.75,3.42-5.39.15-25.72-.51-27.76,2.72-4.67,7.4,5.17,22-2,44.85-2.37,7.57-14.8-7-18.19-1.84S184.1,259,184.1,259Z"/><path class="cls-8" d="M200.16,275.72a50.32,50.32,0,0,0-5.26-7.91,16.23,16.23,0,0,0-3.6-3.37,5,5,0,0,0-1.91-.8,1.5,1.5,0,0,0-.56,0c-.47.13-.63.56-.81,1-1.2,2.67-.87,5.8,0,8.5.1.29,1.08,0,1-.26a13,13,0,0,1-.55-6.7,6.7,6.7,0,0,1,.87-2.31l-.66.26c.12,0-.06,0,0,0l.27,0a4.72,4.72,0,0,1,1.26.56,18.57,18.57,0,0,1,4.88,4.88,58.48,58.48,0,0,1,4.07,6.39c.17.29,1.11-.05,1-.26Z"/><path class="cls-8" d="M197.83,276.88c-4.19.14-1,5.77-1.38,7.93,0,.05-.13.36-.13.37l0,0c-.09.09,0,.08.27,0,0,0-.13-.14-.11-.07,0-.08-.22-.24-.28-.32a4.72,4.72,0,0,1-.37-.61,18.32,18.32,0,0,1-1.38-3.86,15,15,0,0,1-.62-4.63c.06-1.88.34-4.64,2.22-5.63.6-.32.06-.86-.44-.59-1.84,1-2.47,3.09-2.7,5a13,13,0,0,0,.09,4.18,29,29,0,0,0,1.42,4.85,4.33,4.33,0,0,0,1.43,2.24,1.07,1.07,0,0,0,1.5-.59,3.75,3.75,0,0,0,0-2.15c-.21-1.17-1.71-5.34.43-5.41.57,0,.76-.76.09-.73Z"/><path class="cls-23" d="M247.68,255.93a3.85,3.85,0,0,0-4.08,1,3.81,3.81,0,0,0-1,1.81,3.88,3.88,0,0,0,1.14,3.41,3.57,3.57,0,0,0,4.12.43,3.92,3.92,0,0,0,1.61-4.68,3.49,3.49,0,0,0-1.79-2"/><path class="cls-23" d="M291.53,253.32a3.83,3.83,0,0,1,4.18.46,3.7,3.7,0,0,1,1.24,1.65,3.84,3.84,0,0,1-.66,3.53,3.55,3.55,0,0,1-4,1,3.93,3.93,0,0,1-2.24-4.41,3.47,3.47,0,0,1,1.5-2.22"/><path class="cls-23" d="M279.75,259.7s5.48-6.3,9.76-7c6.25-1,8,.29,10.39,3,0,0-4.33-2.72-8.71-1.89C287,254.63,279.75,259.7,279.75,259.7Z"/><path class="cls-23" d="M257.56,259.57s-9.2-4.95-13.53-4.76c-6.32.27-13.59,4.51-15.41,7.67,0,0,9.53-6.16,14-6.23C246.88,256.18,257.56,259.57,257.56,259.57Z"/><path class="cls-23" d="M257.28,242.56c-.3,1.48-.59,3-.89,4.44-.23,1.13-.66,3.71-.89,4.84-3.37-1.65-6.29-3.71-8.51-4.57-4.39-1.7-8.82-3.77-13.57-4a15.91,15.91,0,0,0-6.39.87c-.65.25-2.52,1.5-3.31.93-.33-.24.61-1.94.71-2.12,1.92-3.43,5.33-4.34,9.3-4.46,8.1-.25,15.86,1.48,23.55,4"/><path class="cls-23" d="M302,236.89l-2.66-.44c-7.38-1.27-14.65-.53-21.94,1,.12,1.5.23,3,.35,4.51.08,1.15.17,3.22.27,4.37,3.24-1.22,6-2.58,8.14-3.15,4.19-1.14,8.61-2.39,13-2,.34,0,2.21.24,2.54.29C302.87,239.34,302.61,237.18,302,236.89Z"/><path class="cls-23" d="M270.65,289.63l-.19,1.53a1,1,0,0,1-.92.77c-3.45.46-16.6,2.17-19.78,2.21h-.22l-1-.13c-1.21-.15-1.52-1.41-.44-1.78,3.3-1.11,7.9-2.62,9.76-3,2.32-.48,8.65-.63,11.53-.67C270.1,288.53,270.73,289.05,270.65,289.63Z"/><path class="cls-23" d="M274.64,289.46l.41,1.47a1,1,0,0,0,1,.63c3.24,0,13.86,0,16.78-.33l.2,0,.94-.26c1.08-.31,1.18-1.58.13-1.79-3.2-.67-5.94-1.59-7.7-1.73-2.21-.18-8,.49-10.68.82A1.08,1.08,0,0,0,274.64,289.46Z"/><path class="cls-23" d="M265,308.82l17.05-1.37s-3.66,4.9-7.78,5.18C271.7,312.81,267.93,311.2,265,308.82Z"/><path class="cls-24" d="M276.58,284.71a7,7,0,0,1-6.55,0c-.43-.24-1.79.11-1.19.44a9.87,9.87,0,0,0,8.91-.19c.23-.14.18-.33-.13-.41a1.53,1.53,0,0,0-1,.13"/><path class="cls-24" d="M268,284.69a11.54,11.54,0,0,0-4.09-.75.9.9,0,0,0-.6.25c-.11.11-.12.26,0,.33a4.18,4.18,0,0,0,2.24.37.83.83,0,0,0,.66-.32c.11-.2-.13-.31-.31-.29a3.49,3.49,0,0,1-1.81-.3l-.57.58a10.11,10.11,0,0,1,3.66.68.86.86,0,0,0,.73-.13c.14-.1.28-.32.05-.42"/><path class="cls-24" d="M262.5,285.25a5.52,5.52,0,0,1-4.47-1.72c-1.34-1.8-.42-4.81,1.53-6.15.21-.15.08-.31-.15-.34a1.27,1.27,0,0,0-.85.24,5.76,5.76,0,0,0-2.29,5.4c.37,1.64,2,2.69,4,3a8.49,8.49,0,0,0,1.82.13c.24,0,.68-.12.79-.32s-.13-.28-.36-.27"/><path class="cls-24" d="M263.73,283.66a.21.21,0,0,1,.18-.33,1.9,1.9,0,0,0,1.23-.51l.47.51a5.54,5.54,0,0,0-2.48,1.1.45.45,0,0,1-.53,0c-.11-.09-.24-.29-.09-.41"/><path class="cls-24" d="M278.28,284a6.34,6.34,0,0,1,2.78-1.22.54.54,0,0,1,.45.17.24.24,0,0,1,0,.34"/><path class="cls-24" d="M282.89,283.65a3.33,3.33,0,0,0,2.68-2.21,5,5,0,0,0-1.64-5.25.21.21,0,0,1,.06-.36.62.62,0,0,1,.57.15,5.52,5.52,0,0,1,2,4.41,3.82,3.82,0,0,1-2.21,3.46,4,4,0,0,1-1.15.34c-.16,0-.46,0-.55-.23s.05-.29.2-.31"/><path class="cls-25" d="M274.65,328.46l.54,4.57s-21.41,4.41-25.5,4.13-14.11-6.46-30.09-28.3c0,0,19.13,20.91,33.39,22.12Z"/><path class="cls-26" d="M251.86,421.84c.74,6,.41,14.18-.06,23.27"/><path class="cls-26" d="M134.81,388s8.14,41.73,10.36,57.07"/><path class="cls-26" d="M367.74,395s-3.44,26.26-5.66,41.6"/><path class="cls-18" d="M220.45,365.12c6.25,6.1,14.92,11.46,23.53,13.25,8.22,1.71,14.33-2.43,20.83-7,3.36-2.38,7.09-5,9.62-8.32,0,0-3.68-2.45-4.06-1.95-4.51,5.91-12.94,11.69-19.61,14.5-9.53,4-19.57-2.08-26.34-8.68-.93-.91-3.43-1.25-4-1.78Z"/><path class="cls-10" d="M202.11,321.69,188.6,334.36s5,28.56,31,40.23c0,0,7.47-16.83,13-16.35C232.62,358.24,205.26,339.05,202.11,321.69Z"/><path class="cls-10" d="M278.18,328.69s3.92-.94,8.9,5.76c0,0,1.22,28.82-12.45,41.8,0,0-5.71-18.16-11.25-17.67C263.38,358.58,277.86,347.23,278.18,328.69Z"/><path class="cls-26" d="M188.6,336.25s6,26.58,32.06,38.26c0,0,7.47-16.84,13-16.35"/><path class="cls-26" d="M288.14,334.36s1.22,28.82-12.45,41.8c0,0-6.77-18.07-12.31-17.58"/><path class="cls-8" d="M302.71,447.66c-19.87-48.51-68-80.53-123.38-77.81A127.27,127.27,0,0,0,69.53,444.7c6.34.07,19.69-.19,19.69-.19C108.7,407.7,147.69,385,192,387.54a109.72,109.72,0,0,1,91.3,59.55Z"/><path class="cls-7" d="M110.13,406.2l-.3.21a50.49,50.49,0,0,0-18.42-10.89,7.84,7.84,0,0,0-8.28,3.35,11.67,11.67,0,0,0-2.75-.43,11.17,11.17,0,0,0-11.51,10.82,9.38,9.38,0,0,0-7.58,9.39,14.05,14.05,0,0,0-4.15,6.8c-.45,4.41,2.18,10.4,6.2,12.28,7.27,2.45,12.34,2.28,19.94,3.26,3.88.33,5.19-4.32,5.19-4.32a7.58,7.58,0,0,0,5.5-1.14,8.31,8.31,0,0,0,3.4-5.66c11.56,1.67,9.4-6.62,9.4-6.62s1.74,3.81,7.51,2.68c5.34-1,3-9.76,2.55-11.08A26.11,26.11,0,0,0,110.13,406.2Z"/><path class="cls-25" d="M68.29,427.64a43.62,43.62,0,0,0,9.92,4.78,69.24,69.24,0,0,1,6.92,3.21c1.67.95,2.82,1.5,2.94,1.34s-.75-1.06-2.44-2.18a44.31,44.31,0,0,0-7-3.56A46.57,46.57,0,0,0,68.29,427.64Z"/><path class="cls-25" d="M74,418.11a62.49,62.49,0,0,0,11.25,6.73,46.92,46.92,0,0,0,12.09,5.08,89.24,89.24,0,0,0-11.47-6.29A63.67,63.67,0,0,0,74,418.11Z"/><path class="cls-25" d="M84,408c-.18.37,5.55,2.94,12.14,7a70.72,70.72,0,0,1,8.07,5.54,16.78,16.78,0,0,1,2.52,3c.09-.09.07-1.82-1.77-3.8a41.65,41.65,0,0,0-8.06-6A40.38,40.38,0,0,0,84,408Z"/><path class="cls-25" d="M96.59,397.66c-.32.33,5.37,3.3,11.3,8.07a61.91,61.91,0,0,1,7,6.79,17.5,17.5,0,0,1,2,3.41c.11.11.33-1.79-1.23-4a39.82,39.82,0,0,0-6.92-7.23A36.35,36.35,0,0,0,96.59,397.66Z"/><path class="cls-27" d="M401.84,434.31C356,432,308.38,447.66,308.38,447.66"/><path class="cls-28" d="M272.3,295.13c-7,.17-18.37-.42-18.37-.42s2.47,14.54,18.7,14.14,18-15,18-15S279.3,295,272.3,295.13Z"/><path class="cls-29" d="M272.37,295.13c-3.33.08-16.77-.19-16.77-.19s4.63,7.64,16.67,7.35c13.05-.32,16.7-8.05,16.7-8.05Z"/><path class="cls-30" d="M272.52,295.65c-3.32.08-13.47-.27-13.47-.27s3.74,3.75,13.73,3.51,13.06-4.05,13.06-4.05Z"/><path class="cls-28" d="M291.34,292.72c-.36-.08-2.28.64-3.94.53-2.76-.18-4.5-.9-6.5-1-3.42-.19-5.55,1.28-7,1.32s-3.68-1.33-7.08-1c-2,.21-6.92,1.09-9.67,1.41-1.65.19-3.6-.44-4-.34s.55,3.91,19.18,3.46S291.83,292.84,291.34,292.72Z"/><polygon class="cls-7" points="235.83 236.68 230.55 245.15 229.1 244.76 234.8 236.4 235.83 236.68"/><polygon class="cls-7" points="177.48 241.61 212.33 233.81 212.37 235.03 177.78 242.76 177.48 241.61"/><polygon class="cls-7" points="179.17 247.78 214.63 239.89 214.66 241.12 179.63 248.88 179.17 247.78"/><polygon class="cls-7" points="181 253.03 216.5 245.37 216.53 246.6 181.54 254.15 181 253.03"/><polygon class="cls-7" points="183.3 257.21 218.32 249.41 218.36 250.63 183.9 258.34 183.3 257.21"/><polygon class="cls-7" points="186.2 260.72 221.46 253.49 221.49 254.72 186.5 261.87 186.2 260.72"/><polygon class="cls-7" points="189.75 264.36 225 257.13 225.04 258.36 191.71 265.22 189.75 264.36"/><polygon class="cls-7" points="197.31 267.15 222.43 262.18 222.47 263.41 197.61 268.31 197.31 267.15"/><polygon class="cls-7" points="201.18 270.34 236.44 264.24 236.47 265.47 201.47 271.49 201.18 270.34"/><polygon class="cls-7" points="202.63 273.42 237.89 267.32 237.92 268.55 202.93 274.57 202.63 273.42"/><polygon class="cls-7" points="203.24 276.62 238.5 270.52 238.53 271.75 203.54 277.77 203.24 276.62"/><path class="cls-7" d="M777.13,318.06c.5-1.57.06-18.32.06-18.32L802,303.55l17-.71s2.28,12.16,2.77,13.73,21.24,9.81,21.24,9.81-15,9.82-47.19,9.82-35.26-10.55-35.26-10.55S776.64,319.63,777.13,318.06Z"/><path class="cls-7" d="M777.8,280.85s-.76,36-1.47,39.49l-4.45,10.81h0c10.91-.37,18.34,1.62,36.38-3.37l21.59.7s-5.51-7.22-6.52-10c-6.64-18.42,1.06-41.05,1.06-41.05"/><path class="cls-25" d="M807.19,300.48S803.72,312.34,785.1,317c0,0-5.4,1.26-8.57.18l.28-4.78Z"/><path class="cls-31" d="M747.15,277.39c6.46-4.9,7.48-13.41,6.45-20.93-1-7.21,4.17-18.44-4.69-17.83-.16,0,3-6.28.41-5.67,1.48-4-4.36-3.49-5.31-8-.19-.91-1.7-8.87,4-9.58C767.85,186,795.71,191.35,811.3,193c30.58,3.27,45.45,4.63,39.41,53.06-4.05,32.51-34.19,42.22-64.94,42.12-13.15,0-28.73.89-38.89-10.61Z"/><path class="cls-31" d="M808.55,172.2c-7.33,3.73-10.6,10.6-10.81,18.56,1.58,1.34,5,2.8,6.55,4.13.28-.53.57-1,.87-1.55,1.75,1.45,6.27,2.72,8,4.15.48-.31,2-1,3.74-1.77l1.63,1.33a9.32,9.32,0,0,0-3.14,1.44c2,1.65,7.09,2.5,9,4.24,4.18,3.77,8.88,8.85,13.21,12.45a24.49,24.49,0,0,1,3.32,2.66l-3,2.74,4.45,3.47-.74,1.83,3.65,2.92s2.26-2.2,5.47-5.49c12.44,4.51,17.38-5.73,16.25-10.39a9.77,9.77,0,0,0-2.65-4.67c4.7-5.81,8.2-11.23,7.41-13.71-1.58-5-9.85-16.07-13.86-21.27a40.39,40.39,0,0,0-2.63-4.81l-.05-.1h0a18.7,18.7,0,0,0-3.6-4.23c-3.41-2.83-10.29-1.57-15.86.17-6.07-5.15-10.2-6.61-13.74-6.91-5-.42-13,6.16-13.85,7.9C807.81,166.14,808.12,169.25,808.55,172.2Zm47.79,45.3c2-2.2,4.14-4.55,6.12-6.89a11.06,11.06,0,0,1-.52,3.84C861.18,216.79,858.66,217.43,856.34,217.5Zm-35-54.23a39.19,39.19,0,0,1,3.68,5,87.09,87.09,0,0,0-9.24,1.59l-.58.11a13.41,13.41,0,0,1-2-4.86C813,162.74,818.84,161.42,821.36,163.27Z"/><path class="cls-7" d="M764.15,213.22a1.85,1.85,0,0,1-.23.34l.23-.15ZM755,215.28v.16a4.71,4.71,0,0,0,.41-.35C755.44,214.9,755,215.28,755,215.28Zm66.41,71.65,1.13-3.15c1.91,6,10,2.16,10.76-5.92,6-7.11,7-17.82,3.8-22.13l-.37-.62c-2.28-1.91-6.42-2.88-8.29.16-.63,1.33-1.58,2.83-2.21,4.16-.63,1.52-1.55,4.58-2.59,5.9,0,0,4.52-14.46,4.74-18.07s.12-12.53-6.29-17.69c0,0-7.64-7.63-10.53-11.45l-1-.38c-.62,0-1,.19-1.66.19,0-.19.21-.38.21-.76a6.91,6.91,0,0,1-2.7.18c.21-.19.63-.38.63-.57a10.91,10.91,0,0,1-2.49,0c.21-.19.62-.57.63-.76-1,.38-1.66,0-2.49,0a1.48,1.48,0,0,0,.42-.77,5.57,5.57,0,0,1-2.49.19c.21-.19.42-.57.62-.76-1,.38-1.66,0-2.48,0-.21,0,.41-.38.41-.57a7.65,7.65,0,0,1-2.07.19c0-.2.41-.38.42-.57a6.52,6.52,0,0,1-2.7,0l.62-.76a2.92,2.92,0,0,1-2.48.37c.2-.19.62-.57.62-.76a4.08,4.08,0,0,1-3.32.37c.21,0,.63-.57.63-.76a4,4,0,0,1-2.9.56c.2-.18.41-.57.83-.94a4.25,4.25,0,0,1-3.94.55c.21,0,.42-.57.42-.76-.84.76.72-.18-.31-.38a10.92,10.92,0,0,1-2.39.57c-.83.56,2.2-3.22,1.16-3.23.21-.38-6,.34-5.53,0-1,.75-.83.36-2.07.17,0,0-4.31,2.26-4.1,2.07-1,1-1.51.15-2.75,0,.21-.19.74.8,1,.61-.83.75-.55-.19-1.59-.2,0-.19-3.38-1.25-3.38-1.44-1,.57-.7.66-1.95.65,0-.19-.78,2.09-.57,1.9-.83.76-.79.14-1.83-.06l-1,.71c-1,.95.38.54-.86.34,0-.13,4.68.61,4.87.36a7.51,7.51,0,0,1-2.67,1.17c0-.19.21-.57.21-.76a4.13,4.13,0,0,1-3.32,1.13c.21,0,.41-.38.41-.57-1,.95-2.28,1.52-3.52.94v0a6.5,6.5,0,0,1-2.91,1.35.82.82,0,0,1,.42-.76h-.83c-1,1.52,3.73.68,3.31,2.58,0,0-3.41,5.58-6.83,16.83-2.8,9.24-2.91,23.9-2.71,26.94.17,2.64-1.46,7.75-1.79,10.49-1.79,14.85,9.74,30,21.27,38.34,4.6,3.31,8.57,2.08,13.14,1.48,9.33-1.23,23.36-6.83,31.58-15.07"/><path class="cls-24" d="M765.63,279.47a5.39,5.39,0,0,0,4.77-.22c.3-.18,1.3,0,.88.25a7.58,7.58,0,0,1-6.49.21c-.17-.09-.14-.22.08-.28a1.22,1.22,0,0,1,.76,0"/><path class="cls-24" d="M771.87,279.14a8.63,8.63,0,0,1,2.94-.67.66.66,0,0,1,.45.15c.08.07.1.17,0,.23a3.3,3.3,0,0,1-1.62.33.61.61,0,0,1-.49-.19c-.09-.13.08-.22.21-.21a2.61,2.61,0,0,0,1.3-.28l.44.38a7.89,7.89,0,0,0-2.63.61.62.62,0,0,1-.53-.07c-.11-.06-.22-.21-.06-.28"/><path class="cls-24" d="M775.89,279.31a4.12,4.12,0,0,0,3.18-1.34c.9-1.29.1-3.49-1.37-4.34-.16-.09-.08-.21.09-.24a1,1,0,0,1,.63.14,4.15,4.15,0,0,1,1.89,3.79c-.19,1.13-1.34,1.91-2.76,2.23a6.36,6.36,0,0,1-1.32.15.78.78,0,0,1-.59-.19c-.08-.14.08-.19.25-.2"/><path class="cls-24" d="M763.47,278.86a.15.15,0,0,0-.15-.22,1.35,1.35,0,0,1-.91-.3c-.11.12-.22.24-.32.37a4.13,4.13,0,0,1,1.85.66.34.34,0,0,0,.38-.05c.07-.06.16-.2,0-.28"/><path class="cls-24" d="M764.37,279a4.73,4.73,0,0,0-2.07-.73.36.36,0,0,0-.32.13.15.15,0,0,0,0,.23"/><path class="cls-24" d="M761,279a2.4,2.4,0,0,1-2-1.41,3.31,3.31,0,0,1,1-3.67c.11-.09.05-.2,0-.24a.5.5,0,0,0-.42.12,3.73,3.73,0,0,0-1.29,3.11,2.65,2.65,0,0,0,1.75,2.29,3.17,3.17,0,0,0,.85.19c.12,0,.33-.05.39-.18s0-.2-.16-.21"/><path class="cls-8" d="M826.56,269.19a46.07,46.07,0,0,1,3.84-6.77,15.45,15.45,0,0,1,2.83-3.15,5.71,5.71,0,0,1,.89-.59,1.65,1.65,0,0,1,.53-.21s.11,0,.05,0c-.32-.07-.15-.07-.08.1s.23.37.32.57a10.33,10.33,0,0,1,.36,7c-.06.26.64.16.7-.08a10.71,10.71,0,0,0-.23-6.83c-.19-.45-.41-1.22-1-1.15a3.69,3.69,0,0,0-1.55.66,12.33,12.33,0,0,0-2.77,2.72,41,41,0,0,0-4.56,7.72c-.14.31.56.23.66,0Z"/><path class="cls-32" d="M746.42,245.07c4.89-1.56,8.05-1.6,16.43-.5v.19c.13,1.08.06.48.18,1.57.09.83.18,1.66.26,2.49-2.74-.4-4.73-.94-6.48-1-3.32-.2-7.13-.82-10.42-.07C746.43,246.82,746.43,246,746.42,245.07Z"/><path class="cls-32" d="M781.13,243.76c0,1.1,0,.49-.06,1.58,0,.84-.05,1.67-.08,2.51,2.7-.6,4.65-1.3,6.39-1.53,3.45-.46,7.41-1.43,10.86-.77,1.65.32,4,.82,5.15,2.36.3.41.85,1.87,1.51,1.6.27-.11-.11-1.47-.15-1.61-.8-2.75-3.1-4-5.93-4.72-5.79-1.55-8.74-1.47-17.69.39"/><path class="cls-33" d="M827.83,282.75a4.09,4.09,0,0,1,1.31,5.31,3.6,3.6,0,0,1-2.29,1.72c-.14,0,0,0-.12,0h-.2a4.93,4.93,0,0,1-.94-.11,4.05,4.05,0,0,1-2.76-2.14c-.2-.39-1.2-.08-1,.27a4.9,4.9,0,0,0,4.87,2.63,4.77,4.77,0,0,0,3-1.75,4.45,4.45,0,0,0,.95-3.16,4.65,4.65,0,0,0-2-3.35c-.32-.22-1.25.23-.8.55Z"/><path class="cls-8" d="M826,269.41c.68,0,1.71.06,1.87.9a3.66,3.66,0,0,1-.47,1.95c-.51,1.25-1.42,3-.37,4.23s3-.55,3.67-1.49a8.5,8.5,0,0,0,1.48-5.21c-.1-1.82-.48-4.43-2.36-5.26-.19-.09-.75.2-.67.24,1.65.73,2.09,2.85,2.26,4.46a8.41,8.41,0,0,1-.71,4.65,6.06,6.06,0,0,1-1.93,2.54c-.66.45-1.19-.09-1.41-.77-.46-1.35.51-2.86,1-4.09a2.18,2.18,0,0,0,.14-1.76c-.38-.64-1.36-.67-2-.68-.16,0-.8.29-.46.29Z"/><path class="cls-32" d="M753.28,254.07a3.14,3.14,0,0,0-3.37.59,3,3,0,0,0-.91,1.41,3.12,3.12,0,0,0,.72,2.83,2.91,2.91,0,0,0,3.31.59,3.19,3.19,0,0,0,1.58-3.7,2.81,2.81,0,0,0-1.33-1.72"/><path class="cls-32" d="M763.28,258.38s-5.86-4.58-8.87-4.89a11.81,11.81,0,0,0-10,4.09s5.84-3.57,8.92-3.17S763.28,258.38,763.28,258.38Z"/><path class="cls-32" d="M787.58,254.41a3.11,3.11,0,0,1,3.36.62,3,3,0,0,1,.9,1.41,3.11,3.11,0,0,1-.74,2.82,2.88,2.88,0,0,1-3.31.57,3.19,3.19,0,0,1-1.56-3.71,2.89,2.89,0,0,1,1.35-1.71"/><path class="cls-32" d="M780.23,258.53s6.3-4.53,9.51-4.83c5.79-.54,11.16,2.75,12.81,4.9,0,0-8.34-4.35-11.63-4S780.23,258.53,780.23,258.53Z"/><path class="cls-34" d="M754.55,217.67c-.82,5.23-7.92.79-4-.48-.47-2.53,3.12-3.56,3-6.14a3.17,3.17,0,0,1,.25.4s.11-3.1,1.15-3.85,5.7-3.08,5.7-3.08l1.41,1.07a1.45,1.45,0,0,1,.2-1.71c.73-.62,8.63-4.72,13.67-4.39l.49,0,2.09,1.09.08,0-.08,0c-.37-.22-1.16-.76-.76-1.21a1.92,1.92,0,0,1,.94-.41,17,17,0,0,1,3.06-.29v0h.69v0a17.64,17.64,0,0,1,3.05.31,1.82,1.82,0,0,1,.93.42c.41.45-.39,1-.76,1.2l-.08,0,.08,0,2.09-1.09.5,0c5-.3,12.92,3.85,13.64,4.48s.23,1.63.19,1.71l1.41-1.06a72.62,72.62,0,0,1,7.07,3.12,5.3,5.3,0,0,1,1.5,2.54,6.42,6.42,0,0,0,2.5.47c.66-.21,4.09,1.58,5.5,3.62.9,1.3.57,2.53,1,3.68h0c.25.65.39,1.07.39,1.07l3.54,1.2c2.84,1.37,2.11,7.23,2.11,7.23,5.57,6.88,5.83,12.72,3.3,19-1,2.43,5.94,4.89,1.5,4.78s-8.24,14-8.24,14-3.8-5.49-4-8,1.1-10.11,1.1-10.11l-2.17-.31s-1.31-.54-2.89-3.43,1.34-8,1.34-8l.86-3.1-4.23.28c-4.08-.72-4.29-5.14-4.29-5.14l.73-7.37-2.47,2.47a3,3,0,0,1-2.36,1c-6.33-.5-7.06-4.45-7.06-4.45l-.84-3.71-1.61,1.07c-1.7,1.38-6.9,3.51-9.54,2.37-.69-.3-3.61-2.57-4.08-2.88-1.7-1.24-1.94-3.6-2-4.48.25-.24.49-.54.72-.8.91-1,1.34-.56.43.42-1.56,1.69-4.2,4.07-6.53,4.16s-7.08-.86-7.68-1.9c-.4-.7.31-.78-.51-.75a2.68,2.68,0,0,0-1.79,1.07c-1.08,1.23-1.81,3-3.32,3.8-2.2,1.11-3.52-.1-5.72-.57A1,1,0,0,0,754.55,217.67Z"/><path class="cls-35" d="M749.31,213.58s-1.5-4.77,1.26-7.5,13.37-13.7,31.57-13.67Z"/><path class="cls-36" d="M849.11,225.05s14,8,20.07-3.23-10-15.31-10-15.31"/><path class="cls-36" d="M839.5,163.29s-7-11.54-16.51-9.58-3.52,17.59-3.52,17.59"/><path class="cls-8" d="M204.44,292.59c-1,1.15-2.28,2.35-3.91,2.29a5.52,5.52,0,0,1-3.17-1.42,17.84,17.84,0,0,1-4.06-5.3c-.27-.5-.48-1.05-.77-1.54-.72-1.22-2-2.24-2.8-3.4a29.89,29.89,0,0,1-4.95-11.05,38.17,38.17,0,0,1-1-9.87,5.91,5.91,0,0,1,4.65-5.5,6.13,6.13,0,0,1,3.5,0,7.63,7.63,0,0,1,3.81,2.27,23.45,23.45,0,0,1,4.07,6.77A138.08,138.08,0,0,1,204.65,279c.11.32,1.1,0,1-.26a137.08,137.08,0,0,0-4.87-13.19,24.57,24.57,0,0,0-4-6.71,8.44,8.44,0,0,0-8.15-2.61,7.53,7.53,0,0,0-5.37,3.9,10.15,10.15,0,0,0-.46,4.74,49.46,49.46,0,0,0,.56,5.43A30.88,30.88,0,0,0,188,282.39a28.39,28.39,0,0,0,2,2.73,18.56,18.56,0,0,1,1.55,1.79c.39.61.65,1.33,1,2,1.28,2.27,2.93,4.71,5.31,5.93,2.82,1.45,5.59,0,7.49-2.21.26-.31-.72-.23-.92,0Z"/><path class="cls-19" d="M743.55,470.83l-18.8,50.8s35.68,11.9,67.39,11.85,65.48-6.76,65.48-6.76l-.45-15Z"/><path class="cls-7" d="M700.8,332.62c-.15,1.3-2.28,6.05-2.56,6.74-.59,1.49-3.51,7.42-4.15,8.89-1.4,3.25-2.89,6.47-4.38,9.68-1.63,3.5-3.27,7-4.88,10.5s-3.31,7.3-4.86,11-3,7.39-4.31,11.16a110.82,110.82,0,0,0-3.23,11,65.61,65.61,0,0,0-1.65,10.52,38.9,38.9,0,0,0,.48,9.7,26.18,26.18,0,0,0,3.11,8.57,23.69,23.69,0,0,0,2.4,3.4,10.71,10.71,0,0,0,3.26,3,.71.71,0,0,0,.33.1,4.52,4.52,0,0,0,1.48-.72c.57-.31,1.14-.63,1.7-1,1.1-.65,2.17-1.35,3.2-2.1,10.69-7.77,19.74-21.19,19.14-34.86l-.64.36.47-2.24c0-.37.64,2.51.59,2.14-.09-.56-1.1-1.39-.71-1.56l3.75-8.55L718,338.16"/><path class="cls-7" d="M711.69,339.2c1.78.72,2.31,2.45,4.23,2.07,1.41-.27,1.38-1.83,2.55-3.52l3.78-7.21s4.36-7.18,5-10,.23-14.22,0-14.73,5.77-13.53,3.7-15.25-4.68-1.85-6.85,1-3.6,12-5.55,11.55a12.23,12.23,0,0,1-4-2.16s2.58-3.24,2.1-5.78-3.81-3-3.81-3l-1.37,1.12.06-3s4.61-7.15,2.26-9.76a14.37,14.37,0,0,0,1.22-5.7,3,3,0,0,0-3.25-2.79,2.76,2.76,0,0,0-.86.19l-9.77,17L698.24,315s3,8.18,3.68,10.37c.2.68-.39,3.91-1.28,8.05a39.82,39.82,0,0,0,4.44,3.18,25.62,25.62,0,0,0,5.88,2.68A.84.84,0,0,1,711.69,339.2Z"/><path class="cls-25" d="M724,306.11c1.15.82,2,1.59,2.2,1.44s-.4-1.26-1.66-2.16-2.52-1.13-2.58-.91S722.81,305.3,724,306.11Z"/><path class="cls-25" d="M703.43,287.1c1.68-2.27,4.09-5.41,6.9-9l.25-.33.38.17a19.76,19.76,0,0,1,2.36,1,3.83,3.83,0,0,1,1.66,2.4,6.94,6.94,0,0,1-.68,4.43,20.48,20.48,0,0,1-2,3.48c-1.51,2-3,3.71-4.24,5.14-2.53,2.84-4.18,4.49-4.28,4.38a39.66,39.66,0,0,1,3.66-4.89c1.15-1.46,2.6-3.23,4-5.23a21.08,21.08,0,0,0,1.84-3.32,6,6,0,0,0,.59-3.72,2.6,2.6,0,0,0-1.16-1.72,22.17,22.17,0,0,0-2.16-.94l.63-.17c-2.85,3.55-5.36,6.59-7.19,8.75a21,21,0,0,1-3.08,3.3A21,21,0,0,1,703.43,287.1Z"/><path class="cls-25" d="M707.13,316.53a33.19,33.19,0,0,0,1.66-8.13v-.1l.08-.06a19,19,0,0,1,2-2.68c.8-.89,1.59-1.66,2.36-2.6a35.18,35.18,0,0,0,2.19-2.95,8,8,0,0,0,1.43-3.37,3.35,3.35,0,0,0-.87-2.85,5.54,5.54,0,0,0-2.61-1.5l.49-.16c-3.71,4.09-7,7.6-9.29,10.07a9.4,9.4,0,0,0-2.25,3.18,7,7,0,0,1-.63,1.29c-.1,0,0-.48.26-1.38a8.75,8.75,0,0,1,2.07-3.46c2.21-2.6,5.36-6.21,9-10.36l.23-.19.28.07a6.49,6.49,0,0,1,3.16,1.78,4.42,4.42,0,0,1,1.16,3.7c-1.41,5.76-6.26,8.49-8.23,11.93l.06-.2a29.18,29.18,0,0,1-2.1,8.26,11.32,11.32,0,0,1-1.14,2,4.44,4.44,0,0,1-.57.62C705.78,319.41,706.49,318.49,707.13,316.53Z"/><path class="cls-25" d="M722.25,330.54s-4.39,1.43-9.46-2.29C712.79,328.25,717.67,334.61,722.25,330.54Z"/><path class="cls-28" d="M770.56,287.27c5.69-.07,14.89-.76,14.89-.76s-1.6,10-14.78,10.19-15-9.86-15-9.86S764.88,287.33,770.56,287.27Z"/><path class="cls-29" d="M770.48,287.17c3,0,14.95-.42,14.95-.42s-3.92,3.39-14.67,3.51c-11.66.13-15.12-3.14-15.12-3.14Z"/><path class="cls-28" d="M755.05,285.91a17.94,17.94,0,0,0,3.21.34c2.23-.24,3.62-.92,5.24-1.08,2.77-.27,4.54.94,5.74.93s3-1.26,5.72-1.05c1.62.12,5.64.74,7.88.93a19.88,19.88,0,0,0,3.2-.41c.4.1-.34,3.41-15.46,3.57S754.65,286,755.05,285.91Z"/><path class="cls-25" d="M710.17,383.58s0,24.91-3.6,33.54C706.57,417.12,713,412.07,710.17,383.58Z"/><path class="cls-7" d="M846.88,627.52a96.86,96.86,0,0,1,10.48-10l4.28-12.6-1.48-6.55-3.23-.27s-1.54,16.73-4.33,19.41-4.17,2.59-4.17,2.59l-2.07-4,4.58-24.55s3.53-10.35,4.66-12.7c1.37-2.26,3.36-3,5.06-5l.8-13.7,17.44-1.5c-.85,3.36-1.71,12.72-2.9,16.53l1.24,27-6.1,11-7.58,9.65-17.71,10.2S843.46,631.69,846.88,627.52Z"/><path class="cls-7" d="M792.91,914.38s-45.31,24-55.93,23.69a14.59,14.59,0,0,1-13.53-9.75s23.63-15.53,38.1-19.55c5-1.4-.73-46.22-.73-46.22l30.36,4.16-3,40.43Z"/><path class="cls-37" d="M707.82,939.16s-2.46-4.69,1-6.19,14-5.35,15.94-5.17c-1.27.52-2.37,1.61,1.79,2.41a55.05,55.05,0,0,0,23.41-.5c7.68-1.92,24.72-8.37,31.43-12.59,2.24-1.41,7-6.09,11.7-5,2.5,3,5.06,16,1.52,18.47S769,936.17,769,936.17l-19.22,5.65L731.36,944l-7.8.42-7.46-1.92Z"/><path class="cls-38" d="M795.45,929.65c-2.34.93-10,2.67-16.58,3.28-17.75,1.63-23.52,4.12-29.39,6.21a82.3,82.3,0,0,1-10.33,3.13c-20.46,4.69-31.39-4.31-31.84-4.56a1.8,1.8,0,0,0-.48.95,45.24,45.24,0,0,0,4.27,2.85c4,2.32,13.14,6.53,29,3.19a76.45,76.45,0,0,0,10.14-2.48,81.14,81.14,0,0,1,18.86-4.57l.21,2.72s18.92-.76,27.12-4.69C796.67,931.46,795.45,929.65,795.45,929.65Z"/><path class="cls-38" d="M796.41,933.23c-11.08,3.46-23.37,4.44-27.28,4.75l.19,2.39s18.92-.76,27.12-4.69A17.67,17.67,0,0,0,796.41,933.23Z"/><path class="cls-7" d="M830.65,923.13s-46,22.7-56.57,22.13-13.4-9.33-13.4-9.33,24.2-15.65,38.78-19.27c5.08-1.27.54-46.23.54-46.23l30.23,5-4.09,40.33Z"/><path class="cls-37" d="M744.91,945.55s-2.33-4.76,1.13-6.16,13.74-4.72,15.68-4.48c0,1.23-2,1.29,2.12,2.21a54.87,54.87,0,0,0,23.41.15c7.73-1.71,24.94-7.69,31.77-11.72,2.27-1.35,7.18-5.9,11.83-4.69,2.42,3.07,4.62,16.12,1,18.51s-25.7,4.88-25.7,4.88l-19.37,5.12L768.31,951l-7.81.2-7.4-2.12Z"/><path class="cls-38" d="M832.77,938.47a80.85,80.85,0,0,1-16.66,2.81c-17.79,1.15-23.63,3.47-29.56,5.4a81.56,81.56,0,0,1-10.41,2.84c-20.58,4.13-31.26-5.17-31.7-5.43a1.69,1.69,0,0,0-.5.94,46.49,46.49,0,0,0,4.19,3c3.92,2.43,12.94,6.9,28.9,4a77,77,0,0,0,10.21-2.2,81.18,81.18,0,0,1,19-4l.14,2.72s18.94-.23,27.24-3.93C833.93,940.3,832.77,938.47,832.77,938.47Z"/><path class="cls-38" d="M833.62,942.07c-11.16,3.15-23.47,3.79-27.39,4l.12,2.39s18.94-.23,27.24-3.93A15.69,15.69,0,0,0,833.62,942.07Z"/><polygon class="cls-25" points="790.63 773.04 793.3 830.57 786.32 772.62 790.63 773.04"/><path class="cls-7" d="M953.84,550.08l-19.72-7.3s-.75,7.3-2.74,22.15a151.36,151.36,0,0,1-4.1,18.37l5.82,23.25,6.91,7,7.66,2,9.3.61c.49-5.82-9.67-9.45-9.67-9.45l-.54-13.13,3.06-2.4A62.07,62.07,0,0,0,951.63,605c1.7,5.73,5.79,4.31,5.79,4.31s.09-15.39.16-25.29-5.72-20.47-5.75-21.22Z"/><path class="cls-39" d="M938.86,471.39c6.08.67,6.57,2.45,12.73,2.51,4,.05,8.08.15,12.12.24,3.75-18.8,7.55-36.41,10.35-46.12,8-27.85,1-97.12,1-97.12-2.43,1.09-28.1,2.4-32.45,22.25s6.69,77.05,1.65,94.89Q941.16,459.64,938.86,471.39Z"/><path class="cls-40" d="M1265.29,918.68s-47.15,26.44-58.41,26.52a15.4,15.4,0,0,1-14.67-9.67s24.49-16.94,39.67-21.61c5.3-1.63-2.38-48-2.38-48l32.3,3.29-1.75,42.11Z"/><path class="cls-41" d="M1176,947.33s-2.77-4.79.8-6.47,14.64-6,16.7-5.91c-1.33.58-2.45,1.75,2,2.44a59.09,59.09,0,0,0,24.78-1.32c8.06-2.25,25.89-9.54,32.84-14.15,2.33-1.54,7.22-6.57,12.22-5.61,2.75,3,5.92,16.44,2.25,19.15s-26.87,6.67-26.87,6.67l-20.16,6.53-19.44,2.86-8.25.7-8-1.73Z"/><path class="cls-38" d="M1268.51,934.46c-2.44,1-10.46,3.11-17.44,4-18.74,2.3-24.77,5.08-30.91,7.45a86,86,0,0,1-10.84,3.61c-21.5,5.57-33.39-3.4-33.87-3.65a1.83,1.83,0,0,0-.47,1,49.77,49.77,0,0,0,4.62,2.81c4.3,2.27,14.13,6.34,30.83,2.33a81.73,81.73,0,0,0,10.65-2.94,88.28,88.28,0,0,1,19.81-5.39l.32,2.82s20-1.43,28.56-5.79C1269.87,936.29,1268.51,934.46,1268.51,934.46Z"/><path class="cls-38" d="M1269.65,938.14c-11.6,4-24.59,5.41-28.72,5.86l.28,2.48s20-1.43,28.56-5.79A17.79,17.79,0,0,0,1269.65,938.14Z"/><path class="cls-40" d="M1231.88,913.92s3.62-3.53-3.13-60.51l-6.74-57,47.26,3.76s.38,41.73-4,65.73a373.42,373.42,0,0,0-5.24,45.4Z"/><path class="cls-40" d="M1271.84,920.54s3.62-3.53-3.13-60.51l-6.74-57,47.26,3.76s.38,41.73-4,65.73a372.14,372.14,0,0,0-5.23,45.4Z"/><path class="cls-40" d="M1305.57,926.48s-47.88,25.16-59.14,24.92-14.52-9.23-14.52-9.23,25.09-17.09,40.39-21.35c5.34-1.49-1-48.05-1-48.05l32.19,4.16L1300.54,919Z"/><path class="cls-40" d="M1271.66,281.8l-1.87,10.78a63.61,63.61,0,0,0-.86,13.71l.4,8.86,19.83,7.51s-8.77,61.39-78.5,40.16c-12.81-3.9-11.83-34.87-7.19-35.78,11.81-2.32,18.91-4.52,18.91-4.52l6.72-3.82-2.49-12.26Z"/><path class="cls-42" d="M1302.73,324l-15-3.38s-14.08,38.61-43.3,38.95c-18.92.21-38.89-34.33-38.89-34.33l-8.64,1.28s-7.59,38.35-13.6,58.53c-7.4,25,3.4,46,3.4,46l-.16,13.83c-7.35,19.24-19.08,56.46-19.08,98,0,100.64,17.63,170.5,18.23,202.64a562.76,562.76,0,0,1-2.47,61.36s56.15,22.81,84.41,17.9l47.46-8V378.28Z"/><path class="cls-16" d="M633.69,74.53a35.19,35.19,0,0,0-8.52,1,52.19,52.19,0,0,0-99.85-8.82A35,35,0,0,0,473.8,95.55a25.85,25.85,0,1,0-17.12,48.39v.63h177a35,35,0,0,0,0-70Zm-98.42,46.18h-.2l.1-.12Z"/><path class="cls-16" d="M1123.6,83a23.81,23.81,0,0,0,23.81,23.82h120.35v-.43a17.58,17.58,0,1,0-11.63-32.91,23.82,23.82,0,0,0-35-19.57,35.49,35.49,0,0,0-67.89,6A23.83,23.83,0,0,0,1123.6,83Zm90.8-12.49.06.08h-.13Z"/><path class="cls-7" d="M996.07,507.07s-29.18,105.45-26.32,213c7,74,29.52,189.19,29.52,189.19l24.06,3.29s7.06-104.24,6.83-196.71c4.65-73.94,14.74-118.51,14.74-118.51l-3.24-106.16Z"/><path class="cls-7" d="M1046.56,517s-32.13,104.63-32.3,212.16c2,31.19,6.65,69.72,11.29,103.91,6.41,47.13,12.9,86,12.9,86l24,3.94s10-122.55,14.83-201.19c6.74-73.78,15.59-113.33,15.59-113.33l-.25-106.2Z"/><path class="cls-7" d="M1028,917.76s-45.86,25.72-56.81,25.79a15,15,0,0,1-14.27-9.39s23.82-16.48,38.59-21c5.15-1.58-2.32-46.69-2.32-46.69l31.41,3.2-1.69,41Z"/><path class="cls-43" d="M941.18,945.63s-2.7-4.66.77-6.29,14.25-5.87,16.25-5.75c-1.29.57-2.39,1.7,1.93,2.37a57.58,57.58,0,0,0,24.1-1.28c7.84-2.19,25.18-9.28,31.95-13.77,2.26-1.5,7-6.39,11.88-5.45,2.68,2.95,5.76,16,2.19,18.62s-26.14,6.49-26.14,6.49l-19.61,6.36-18.91,2.78-8,.68-7.75-1.69Z"/><path class="cls-38" d="M1031.13,933.11c-2.38,1-10.18,3-17,3.86-18.23,2.24-24.09,4.94-30.07,7.25a83.45,83.45,0,0,1-10.54,3.51c-20.91,5.42-32.48-3.31-32.95-3.54a1.77,1.77,0,0,0-.46,1,47.6,47.6,0,0,0,4.5,2.74c4.18,2.21,13.75,6.16,30,2.26A79.68,79.68,0,0,0,985,947.31a85.81,85.81,0,0,1,19.27-5.25l.31,2.74s19.47-1.38,27.78-5.63C1032.44,934.89,1031.13,933.11,1031.13,933.11Z"/><path class="cls-38" d="M1032.24,936.69c-11.29,3.87-23.93,5.27-27.94,5.71l.27,2.4s19.47-1.38,27.78-5.63A18.51,18.51,0,0,0,1032.24,936.69Z"/><path class="cls-7" d="M1067.17,925.35s-46.57,24.47-57.52,24.24-14.13-9-14.13-9,24.41-16.62,39.29-20.77c5.2-1.44-1-46.73-1-46.73l31.31,4-2.84,40.9Z"/><path class="cls-43" d="M979.6,950.86s-2.56-4.74.95-6.27,14-5.22,16-5.05c.09,1.24-2,1.38,2.27,2.17a57.78,57.78,0,0,0,24.12-.63c7.9-2,25.44-8.6,32.33-12.9,2.3-1.44,7.2-6.2,12-5.13,2.59,3,5.31,16.14,1.67,18.67s-26.32,5.79-26.32,5.79l-19.78,5.81-19,2.27-8,.47-7.7-1.9Z"/><path class="cls-38" d="M1069.87,940.78c-2.41,1-10.26,2.75-17.07,3.4-18.28,1.74-24.22,4.28-30.26,6.43a85.58,85.58,0,0,1-10.63,3.22c-21.06,4.86-32.38-4.19-32.85-4.43a1.79,1.79,0,0,0-.48,1,49.66,49.66,0,0,0,4.42,2.86c4.12,2.32,13.57,6.53,29.91,3.07a80.33,80.33,0,0,0,10.44-2.57,85.07,85.07,0,0,1,19.41-4.72l.24,2.75s19.5-.87,27.92-4.89C1071.13,942.59,1069.87,940.78,1069.87,940.78Z"/><path class="cls-38" d="M1070.88,944.39c-11.4,3.56-24.06,4.61-28.09,4.94l.21,2.42s19.5-.87,27.92-4.89A17.82,17.82,0,0,0,1070.88,944.39Z"/><path class="cls-41" d="M1215.54,952.71s-2.63-4.87,1-6.45,14.4-5.37,16.45-5.19c.09,1.28-2.09,1.42,2.33,2.23a59.36,59.36,0,0,0,24.8-.65c8.12-2,26.14-8.84,33.23-13.26,2.36-1.48,7.4-6.38,12.37-5.27,2.67,3.1,5.45,16.59,1.71,19.19s-27.05,6-27.05,6l-20.33,6-19.52,2.33-8.26.48-7.91-1.95Z"/><path class="cls-38" d="M1308.34,942.34c-2.47,1-10.55,2.83-17.55,3.5-18.79,1.79-24.9,4.4-31.11,6.61a87.81,87.81,0,0,1-10.93,3.31c-21.65,5-33.28-4.3-33.76-4.56a1.84,1.84,0,0,0-.5,1,51.55,51.55,0,0,0,4.54,2.94c4.24,2.39,14,6.72,30.76,3.16a83.21,83.21,0,0,0,10.73-2.64,87.54,87.54,0,0,1,20-4.86l.24,2.83s20-.89,28.72-5C1309.64,944.21,1308.34,942.34,1308.34,942.34Z"/><path class="cls-38" d="M1309.38,946.05c-11.72,3.66-24.74,4.75-28.88,5.08l.21,2.49s20-.89,28.72-5A20.58,20.58,0,0,0,1309.38,946.05Z"/><g id="freepik--character-2--inject-2-2" data-name="freepik--character-2--inject-2"><path class="cls-39" d="M960.92,456.41c.62,4.12-.5,28.13-1.61,32.17-.55,2-1.18,4-1.82,6.05-.38,6.54-4.34,16.67-8.13,26.38a131,131,0,0,0,25.54,10.22,179.5,179.5,0,0,0,35.12,6.42,175.17,175.17,0,0,0,36.34-.63,124,124,0,0,0,33.59-8.75c3.39-1.46,13.27-3.12,16.45-5-7.23-30.16-14.94-47.18-14.94-47.18l-3.18-7.11,9-137-25-10.4-10.45-2.79-7.48,1.84c-5.41,7.46-12.43,11.88-21.76,12.45a62.59,62.59,0,0,1-8.53-.09A25,25,0,0,1,995,321.24l-.33.19-6.33.67-28,13.09s-18,68.29-17.69,78.3C942.8,420.44,953.92,409.85,960.92,456.41Z"/></g><path class="cls-39" d="M956,351.73s-16.57,53.21-15.58,60.59c1,7.87,3.68,17.41,9.94,23.84s7.09,23.37,8,27.86-4.28,27.41-8.64,41.78,44.7-30.8,44.7-30.8l-23.08-54Z"/><path class="cls-44" d="M952.94,360.41c-1,12.71-3.51,18.58-7.85,30.84A73.7,73.7,0,0,0,941.53,405c-1.82,10.09,2,23.7,8.64,31.78,5.64,6.88,6.94,22.23,7.87,26.72,0,0,.72,3.57-.59,10.68s1.68-18.61-6.1-33.84c0,0-7.38-11.08-8-12.73-2.06-5.27-4.66-13.14-2.81-23.5s6.47-21.86,8.26-26.84S952.94,360.41,952.94,360.41Z"/><path class="cls-44" d="M984.46,440.3s11.8-4.52,23.46-4.63,22.92,4.63,22.92,4.63S998.38,435.57,984.46,440.3Z"/><path class="cls-45" d="M948.9,515.31S987,531.85,1025,526.65s72.42-18.37,72.42-18.37,27.43,14.08,4.79,127.88c-9.33,46.9-16.89,223.12-16.89,223.12s-4.77,16.14-64,12.24-52.58-6.84-52.58-6.84-27.27-207-29.63-236,3.25-81,3.25-81"/><path class="cls-7" d="M1084.73,480.46l-1.63,8.07a87.39,87.39,0,0,0-1.8,23l2.41,63h16.37s17.17-72,17.17-93c0-.3-.54-8-.55-8.34Z"/><path class="cls-39" d="M1082.49,329.74s16.65,5.68,23.43,21.95,14,136.73,14,136.73-32.55-3-41.44-3c0,0-18.49-107.12-18.49-123.39S1082.49,329.74,1082.49,329.74Z"/><path class="cls-44" d="M1076.57,339.59s-12,7.64-11.61,30.82c.28,15.91,13.43,91.62,13.43,91.62l2.78,22.4-3.7-22.19s-13.19-67.43-14.14-81.28,1.88-29.2,5.71-34.11C1074.35,340.07,1076.57,339.59,1076.57,339.59Z"/><path class="cls-39" d="M960.92,464.85l-18.33,63s37.87,10.11,70.56,10.06,68.67-5.64,68.67-5.64l-.65-21.65Z"/><path class="cls-7" d="M1070.56,627.72a100,100,0,0,1,10.8-10.09l4.41-12.75-1.52-6.62-3.33-.27s-1.58,16.91-4.46,19.63-4.3,2.62-4.3,2.62l-2.13-4,4.72-24.82s3.64-10.47,4.8-12.85c1.41-2.28,3.46-3,5.21-5.08l.83-13.86,18-1.51c-.87,3.4-1.77,12.86-3,16.71l1.28,27.32-6.29,11.12-7.82,9.76-18.25,10.31S1067,631.94,1070.56,627.72Z"/><path class="cls-7" d="M997.92,315.17c.53-1.66.06-19.3.06-19.3l26.6,4,18.22-.75s2.46,12.81,3,14.47,18.75,8.72,18.75,8.72-12.08,12-46.63,12-36-9.27-36-9.27S997.39,316.82,997.92,315.17Z"/><path class="cls-46" d="M1094.57,270.61c-2.74-1.39-5.53-3.23-7-6a14.55,14.55,0,0,1-1.38-6.36,4,4,0,0,1-.6-.88c-2.42-4.92.86-11.59-2.57-15.9-3.13-3.92-10.41-2.63-13.39-6.66-2.33-3.15-.71-6.48-1.88-9.38s-5.9-4.9-9-4.09l-19,38.22c-.49,11.94-1.87,18.4,1.76,24.89,2.23,3.37-2.4,7-1,10.73,1.15,3.86.81,8.46-2.12,11.28,14.74-1,34.62-7.94,46.12-17l3.24-2.59c-5.7-2-11-11-11-11,3.05,3.39,8.55,8.11,12.59,9.67a15.11,15.11,0,0,0,1.91-1.09c2.55-.88,8.7-7,12.47-10.93A27.23,27.23,0,0,1,1094.57,270.61Z"/><path class="cls-46" d="M978.07,206a26.79,26.79,0,0,0-7.45,4.7,22.46,22.46,0,0,0-2,2,30.67,30.67,0,0,0-8.44,28.94c1.21,4.93,3.62,10.41.73,14.71s-9.67,5.08-12.36,9.42c-3.17,5.1,1.21,11.43.74,17.32-.67,5.69-5.69,10.1-11.87,10.4a52.09,52.09,0,0,0,25.69,6.33l5.42-9a8,8,0,0,0,2.17,10.05,20.44,20.44,0,0,0,11,4.14c9,.57,28.49-4.94,52.72-15.65l-48.33-86"/><path class="cls-46" d="M1079.7,228.56c-1.78-3.33-4.37-6.29-5.77-9.77-3-7.49-.4-16.76-5.56-23.17-3.67-4.56-10.18-6.12-16.22-7s-12.5-1.38-17.44-4.73c-3.63-2.44-6.07-6.18-9.7-8.65-5.16-3.53-12-4-18.38-3.47a40.27,40.27,0,0,0-18.56,5.52,19.32,19.32,0,0,0-9.51,15.27c0,3,.85,6,.31,8.9-.59,3.24-2.8,6-4,9.11a15.17,15.17,0,0,0,7.16,18l53.15,47.26c9.88,2,31.88-5.15,38.09-12.6S1084.17,237,1079.7,228.56Z"/><path class="cls-47" d="M998.55,276.67s1.38,35,.87,38.41l2.19,4.68-4.42,3.87c14.61,11.79,18.2,12,36.14,6.12l20.71-11s-6-5.54-7.2-8.22c-4.95-11.06,3.69-36.83,3.69-36.83"/><path class="cls-47" d="M1066,247.42l-.38-.64c-2.3-2-6.56-3.06-8.57,0-.68,1.34-1.7,2.83-2.38,4.17-.68,1.52-1.71,4.61-2.82,5.93,0,0-7.09-15.71-6.78-19.37s12.52-11.55,6-16.93c0,0-6.79-7-10-11.07-.73-.41-1.46-.79-2.21-1.15a8,8,0,0,1-1.16.11c0-.15.14-.31.2-.56l-.26-.12a8.38,8.38,0,0,1-2.49,0c.22-.19.65-.37.66-.56a11.71,11.71,0,0,1-2.58-.07c.22-.19.66-.56.67-.75-1.08.35-1.72,0-2.57-.07a1.46,1.46,0,0,0,.45-.76,5.94,5.94,0,0,1-2.58.13c.22-.19.45-.57.66-.76-1.08.36-1.71,0-2.56-.06-.21,0,.35-.33.42-.53l-.08,0a8.93,8.93,0,0,1-2.05.12c0-.17.33-.33.41-.5l-.14,0a7.46,7.46,0,0,1-2.61-.11l.31-.35-.38-.07a3.38,3.38,0,0,1-1.84,0l.27-.25-.73-.1a4,4,0,0,1-2.32-.11.53.53,0,0,0,.27-.16c-.27,0-.54-.07-.82-.09a9.83,9.83,0,0,1-1.8,0l.16-.16-1.11-.09a3.54,3.54,0,0,1-2-.12c-1.33-.07-2.65-.11-4-.11-9.87-.07-20.75.56-28.35,7.47a93.55,93.55,0,0,0-6.41,15.12c-3.12,9.3-3.56,24.17-3.43,27.26.11,2.67-1.7,7.81-2.1,10.58-2.2,15,9.36,30.69,21.09,39.37,4.67,3.46,8.8,2.31,13.54,1.8,9.67-1,24.3-6.39,33-14.55l12.4-10.57,1.25-3.16c1.83,6.09,10.31,2.42,11.25-5.76C1067.91,262.69,1069.19,251.87,1066,247.42Z"/><path class="cls-24" d="M991.58,269.85a5.64,5.64,0,0,0,4.92-.12c.32-.17,1.35,0,.91.28a8,8,0,0,1-6.71.06c-.18-.1-.14-.22.09-.29a1.32,1.32,0,0,1,.79.07"/><path class="cls-24" d="M998,269.65a9.31,9.31,0,0,1,3.06-.61.73.73,0,0,1,.46.16c.09.08.1.18,0,.24a3.5,3.5,0,0,1-1.67.3.66.66,0,0,1-.51-.21c-.09-.14.09-.22.23-.21a2.83,2.83,0,0,0,1.35-.25l.44.39a8.16,8.16,0,0,0-2.73.56.66.66,0,0,1-.55-.08c-.11-.07-.22-.22-.06-.29"/><path class="cls-24" d="M1002.18,269.92a4.32,4.32,0,0,0,3.32-1.29c1-1.29.18-3.53-1.32-4.43-.17-.09-.07-.21.1-.24a1,1,0,0,1,.65.15,4.18,4.18,0,0,1,1.86,3.89c-.22,1.15-1.42,1.91-2.9,2.2a7.76,7.76,0,0,1-1.37.13c-.18,0-.51-.07-.6-.21s.08-.2.26-.2"/><path class="cls-24" d="M989.35,269.18c.07-.13-.05-.22-.15-.23a1.46,1.46,0,0,1-.94-.33l-.33.37a4.34,4.34,0,0,1,1.89.72.37.37,0,0,0,.4,0c.08-.06.17-.2,0-.28"/><path class="cls-24" d="M990.27,269.38a4.89,4.89,0,0,0-2.12-.79.38.38,0,0,0-.33.12.16.16,0,0,0,0,.24"/><path class="cls-24" d="M986.8,269.25a2.53,2.53,0,0,1-2.08-1.49,3.31,3.31,0,0,1,1.09-3.69.14.14,0,0,0,0-.25.5.5,0,0,0-.43.12,3.7,3.7,0,0,0-1.41,3.12,2.7,2.7,0,0,0,1.76,2.36,3,3,0,0,0,.87.21.47.47,0,0,0,.41-.17c.06-.14-.05-.21-.16-.21"/><path class="cls-48" d="M1054.78,260.83a45.44,45.44,0,0,1,4.15-6.8,14.9,14.9,0,0,1,3-3.1,4.18,4.18,0,0,1,1.48-.76c-.14,0,.08,0,.08,0s.08.06,0,0c-.36-.22-.12,0-.08.09s.22.37.31.56a10.29,10.29,0,0,1,.21,7.13c-.08.29.65.19.72-.08a10.68,10.68,0,0,0-.08-6.93c-.18-.45-.41-1.27-1-1.21a3.93,3.93,0,0,0-1.6.65,12.25,12.25,0,0,0-2.92,2.69,42.07,42.07,0,0,0-4.9,7.73c-.17.33.56.29.68.05Z"/><path class="cls-46" d="M972.77,232.45c5.25-.86,8.48-.44,16.89,1.88v.2c0,1.1,0,.49-.06,1.6,0,.85-.06,1.69-.1,2.54-2.74-.8-4.7-1.64-6.47-2-3.37-.68-7.18-1.85-10.65-1.58C972.52,234.21,972.66,233.33,972.77,232.45Z"/><path class="cls-46" d="M1008.35,234.49c0,1.11,0,.49,0,1.6,0,.85,0,1.7,0,2.54,2.78-.66,4.78-1.39,6.58-1.66,3.56-.53,7.63-1.59,11.21-1,1.71.3,4.16.77,5.36,2.31.32.41.91,1.88,1.59,1.59.28-.12-.14-1.49-.19-1.63-.87-2.77-3.26-4-6.21-4.68-6-1.47-9.06-1.33-18.27.72"/><path class="cls-49" d="M1055.78,274.61a4.1,4.1,0,0,1,1.2,5.47,3.63,3.63,0,0,1-2.43,1.64h-.31a5.05,5.05,0,0,1-1-.14,4.19,4.19,0,0,1-2.79-2.23c-.2-.41-1.23-.09-1,.28a4.79,4.79,0,0,0,2.83,2.48,5.36,5.36,0,0,0,2.14.28,4.76,4.76,0,0,0,4.22-4.85,4.69,4.69,0,0,0-2-3.49c-.32-.23-1.27.23-.82.56Z"/><path class="cls-48" d="M1054.32,261.17c.64,0,1.73.05,1.81.9a4.47,4.47,0,0,1-.62,2c-.58,1.29-1.46,3.07-.33,4.33,1.28,1.43,3.19-.63,3.89-1.68a8.64,8.64,0,0,0,1.5-5.24c-.09-1.94-.49-4.5-2.45-5.41-.32-.14-.83.31-.41.51,1.67.77,2,3.11,2.12,4.74a8.31,8.31,0,0,1-1.08,4.69c-.53.95-2.74,3.71-3.34,1.3-.34-1.4.74-2.86,1.2-4.11a2,2,0,0,0,.07-1.76c-.42-.68-1.41-.75-2.12-.78-.36,0-.73.53-.24.55Z"/><path class="cls-46" d="M979.4,243.81a3.27,3.27,0,0,0-3.5.52,2.9,2.9,0,0,0-.29,4.29,3,3,0,0,0,3.41.67,3.21,3.21,0,0,0,1.72-3.71,2.89,2.89,0,0,0-1.34-1.77"/><path class="cls-46" d="M989.63,248.41s-6-4.78-9-5.16a12.36,12.36,0,0,0-10.47,3.91s6.12-3.49,9.29-3S989.63,248.41,989.63,248.41Z"/><path class="cls-46" d="M1014.84,244.94a3.26,3.26,0,0,1,3.46.71,3,3,0,0,1,.9,1.45,3.11,3.11,0,0,1-.83,2.84,3,3,0,0,1-3.44.5,3.19,3.19,0,0,1-1.52-3.8,2.89,2.89,0,0,1,1.43-1.7"/><path class="cls-46" d="M1007.15,249s6.62-4.44,9.94-4.68c6-.41,11.47,3,13.12,5.27,0,0-8.51-4.61-11.92-4.3C1015,245.54,1007.15,249,1007.15,249Z"/><path class="cls-50" d="M995.65,278.81c6.23.15,16.34-.46,16.34-.46s-2.23,14.22-16.67,13.88-16-14.65-16-14.65S989.42,278.67,995.65,278.81Z"/><path class="cls-51" d="M995.59,278.83c3,.07,14.91-.27,14.91-.27s-4.14,8.06-14.85,7.81c-11.62-.28-14.83-8.4-14.83-8.4Z"/><path class="cls-52" d="M995.45,279.17c3,.08,12-.23,12-.23s-3.33,3.28-12.21,3.06-11.62-3.53-11.62-3.53Z"/><path class="cls-50" d="M978.72,276.62a21.82,21.82,0,0,0,3.5.46c2.46-.15,4-.78,5.79-.88,3-.17,4.93,1.11,6.25,1.14s3.27-1.16,6.3-.85c1.77.19,6.15,1,8.59,1.24a23.29,23.29,0,0,0,3.52-.3c.44.12-.49,3.42-17.06,3S978.28,276.72,978.72,276.62Z"/><path class="cls-25" d="M997.9,304.19a60.07,60.07,0,0,0,31.26-9.95s-7,14.5-31.16,13.63Z"/><path class="cls-46" d="M1037.76,187.41c-3.13-1.65-6.93-1.35-10.45-.9a196,196,0,0,0-44.47,11.09c-.17,3.57,3.39,6.4,7,7s7.26-.32,10.87-.83,7.63-.45,10.48,1.8,3.94,6.63,6.85,9.15c5,4.37,13.65,2,18.62,6.38,3.75,3.32,3.75,9,5.56,13.68,3.49,9.15,13.25,11.28,22.59,7.85a17.3,17.3,0,0,0,2.21-1c-7.7-16-14.77-29.53-22.48-45.55C1042.86,192.73,1041.06,189.16,1037.76,187.41Z"/><path class="cls-46" d="M929.63,283.82a5.5,5.5,0,0,0,.62,3.68,5.15,5.15,0,0,0,3.49,2.57,5.37,5.37,0,0,0,5.12-2.22,4.76,4.76,0,0,0,.8-3.19,10.05,10.05,0,0,0-1.12-3.53c-1.15-2.3-3.11-4.69-3.36-7.89a11.52,11.52,0,0,1,3.17-8.91,13.91,13.91,0,0,1,4.16-3,20.44,20.44,0,0,1,5.09-1.51,29.18,29.18,0,0,0,4.95-1.25,6.75,6.75,0,0,0,3.54-3,7.9,7.9,0,0,0,.77-4.43,15.53,15.53,0,0,0-1.05-4.36,33.65,33.65,0,0,1-2.59-8.17,12.76,12.76,0,0,1,1.54-7.36,16.34,16.34,0,0,1,4.15-4.62,32.4,32.4,0,0,0,3.39-3.13,9.58,9.58,0,0,0,1.88-3.37v.26a3.83,3.83,0,0,1-.19.74,7.39,7.39,0,0,1-1.46,2.57,28.74,28.74,0,0,1-3.34,3.28,16.46,16.46,0,0,0-3.92,4.56,12,12,0,0,0-1.37,7,32.56,32.56,0,0,0,2.63,8,16.31,16.31,0,0,1,1.12,4.55,8.8,8.8,0,0,1-.84,4.87,7.47,7.47,0,0,1-4,3.37,28.93,28.93,0,0,1-5.1,1.31,19.82,19.82,0,0,0-4.88,1.43,12.61,12.61,0,0,0-3.92,2.82,10.75,10.75,0,0,0-3,8.28c.19,2.92,2,5.22,3.21,7.65a10.34,10.34,0,0,1,1.14,3.79,5.29,5.29,0,0,1-.95,3.55,5.91,5.91,0,0,1-5.63,2.36,5.55,5.55,0,0,1-4.3-5.76A3.19,3.19,0,0,1,929.63,283.82Z"/><path class="cls-46" d="M1086.19,256.61v-.38a1,1,0,0,1,.16-.55c.93-4.9,3.31-11.22,3.31-17,0-8.14-13.76-16.14-13.76-16.14v28.23s11.56,14.85,10.3,10.05A10.52,10.52,0,0,1,1086.19,256.61Z"/><path class="cls-46" d="M1103.22,262.15a5.49,5.49,0,0,1-.62,3.68,5.15,5.15,0,0,1-3.49,2.57,5.37,5.37,0,0,1-5.12-2.22,4.76,4.76,0,0,1-.8-3.19,10.05,10.05,0,0,1,1.12-3.53c1.15-2.3,3.12-4.69,3.36-7.89a11.52,11.52,0,0,0-3.17-8.91,13.91,13.91,0,0,0-4.16-3,20.87,20.87,0,0,0-5.09-1.51,29.18,29.18,0,0,1-5-1.25,6.7,6.7,0,0,1-3.54-3,7.9,7.9,0,0,1-.77-4.43,15.53,15.53,0,0,1,1-4.36,33.65,33.65,0,0,0,2.59-8.17,12.69,12.69,0,0,0-1.54-7.36,16.34,16.34,0,0,0-4.15-4.62,32.4,32.4,0,0,1-3.39-3.13,9.58,9.58,0,0,1-1.88-3.37v.26a3.83,3.83,0,0,0,.19.74,7.39,7.39,0,0,0,1.46,2.57,28.74,28.74,0,0,0,3.34,3.28,16.46,16.46,0,0,1,3.92,4.56,12,12,0,0,1,1.37,7,33,33,0,0,1-2.62,8,16,16,0,0,0-1.13,4.55,8.8,8.8,0,0,0,.84,4.87,7.47,7.47,0,0,0,4,3.37,28.93,28.93,0,0,0,5.1,1.31,19.82,19.82,0,0,1,4.88,1.43,12.61,12.61,0,0,1,3.92,2.82,10.75,10.75,0,0,1,3,8.28c-.19,2.92-2,5.22-3.21,7.65a10.34,10.34,0,0,0-1.14,3.79,5.29,5.29,0,0,0,1,3.55,5.89,5.89,0,0,0,5.63,2.36,5.55,5.55,0,0,0,4.3-5.76A3.19,3.19,0,0,0,1103.22,262.15Z"/><path class="cls-40" d="M1161.72,592.54c-.23-1.39-2.8-17.07-2.8-17.07l-4.1,25.22,7.32,9.17s8.57,4.12,8.41,7.19-8.41,2.1-8.41,2.1v0a2.71,2.71,0,0,1-2.55,2.87c-2.66.15-18.73-17.26-18.73-17.26V563.93l1.9-26.55,17.26-8.22a118.27,118.27,0,0,0,3.23,22.22c2.86,11.24,5.17,6.26,6.65,18.07s-.64,37.48-.64,37.48C1159.51,608.64,1162,593.92,1161.72,592.54Z"/><path class="cls-40" d="M1198,330.93l2.1,58.08,3.39,53.56-41,105.36-20.62,4.64c1.24-31.44,8.87-95.16,13.37-107.37S1157.85,407,1159,389c.59-9.42,4.19-30,8.69-41.62,5.94-15.31,18.33-18.42,29.76-20.35Z"/><path class="cls-53" d="M1196.93,326.53s-14.75.16-24.27,8-16.28,45-17,62.93-.67,33.28-6.65,64-10.24,82.34-10.24,85.33,26.88,2.56,26.88,2.56,36.28-90.51,37.77-111.39S1196.93,326.53,1196.93,326.53Z"/><path class="cls-54" d="M1182.21,355a80.51,80.51,0,0,1,2.25,9.16,77.6,77.6,0,0,1,1.12,9.36,13.48,13.48,0,0,1,0,3.91c-.34,0-.78-5.89-2.11-13.08s-3-13-2.64-13A14.31,14.31,0,0,1,1182.21,355Z"/><path class="cls-55" d="M1270.42,295.15s-3.23,16.41,9.85,18.62S1292,298.9,1292,298.9"/><path class="cls-55" d="M1302.84,295.47s10.18,9.59,19.14,5-1.35-18.53-1.35-18.53"/><path class="cls-56" d="M1308.78,237.74c-6.09-6-13.93-6.87-21.81-4.43-.79,2-1.1,5.8-1.88,7.81.61.1,1.22.21,1.82.34-.84,2.2-.58,7.06-1.39,9.27.45.37,1.62,1.61,3,3.09-.25.68-.5,1.36-.76,2a9.65,9.65,0,0,0-2.46-2.59c-1,2.52-.09,7.79-1.16,10.26-2.31,5.35-5.73,11.66-7.81,17.1-.45,1.64-2.71-3.57-3.24-2.43l-2,4.56-1.92,5.52-2-.12-1.65,4.55s2.9,1.5,7.21,3.55c-.29,13.7,11.41,15.15,15.61,12.49a10.22,10.22,0,0,0,3.7-4.16c7.26,2.67,13.74,4.31,15.91,2.71,4.36-3.21,12.5-15,16.27-20.68a41.88,41.88,0,0,0,3.84-4.19l.08-.08v0a19.56,19.56,0,0,0,3-4.94c1.64-4.29-1.88-10.62-5.44-15.51,3-7.67,3.09-12.21,2.2-15.79-1.25-5-10.38-10.71-12.36-11C1314.49,235,1311.54,236.34,1308.78,237.74Z"/><path class="cls-40" d="M1223.35,285.36s3.16,35.65,2.84,39.15l.1,3.21.73,6.57c14.69,11.28,7.34,5.18,24.32-1.73l15.81-12.48s5.8.05,4.51-2.63c-5.35-11,1.62-37.78,1.62-37.78"/><path class="cls-28" d="M1256.51,299s-2.52,11.12-21.67,16.47c0,0-5.55,2-8.87,1l-.27-3.91Z"/><path class="cls-56" d="M1194.79,277.22c6.54-5.27,7.34-14.12,6-21.88-1.24-7.43,3.75-19.23-5.41-18.33-.17,0,2.92-6.59.25-5.88,1.42-4.23-2.47-4.43-3.25-9.11-.75-4.46-.06-8.6,1.37-9,17.85-28.21,36.89-30.88,53-30.18,1.61.07,6.75,2.56,8.23,2.68,1.9.14,6.13-2.4,7.91-2.17,28,3.58,38.66,18.08,38.2,58.28-.38,34-34.12,44.78-66,45.62-13.61.36-29.72,1.8-40.6-9.8Z"/><path class="cls-56" d="M1280.23,299.73c2.84,1.27,5.85,2.55,8.81,3.71a11.37,11.37,0,0,1-4,.77C1282.55,304.25,1281.07,302,1280.23,299.73Zm41.58-52.39a40.08,40.08,0,0,1-3.66,5.28,94.09,94.09,0,0,0-4.63-8.54l-.31-.53c1.17-1.37,2.8-3.09,4.09-3.62C1319.56,239,1322.79,244.26,1321.81,247.34Z"/><path class="cls-40" d="M1210.44,210.23a2.41,2.41,0,0,1-.23.36l.24-.16Zm-9.39,2.41v.17c.15-.12.29-.25.42-.37S1201.05,212.64,1201.05,212.64Zm71,72.19,1.08-3.29c2.16,6.12,10.45,1.93,11-6.46,6-7.56,6.67-18.67,3.27-23l-.42-.64c-2.41-1.91-6.73-2.78-8.58.42-.61,1.4-1.55,3-2.16,4.38-.6,1.59-1.46,4.79-2.5,6.2,0,0,4.24-15.12,4.35-18.87s-.25-13-7-18.13c0,0-8.14-7.68-11.25-11.54l-1.09-.36c-.64,0-1.06.22-1.71.24,0-.2.21-.4.2-.8a6.8,6.8,0,0,1-2.79.27c.21-.2.63-.41.63-.6a11.13,11.13,0,0,1-2.58.06c.21-.2.63-.6.62-.8-1.06.42-1.71,0-2.57.07a1.54,1.54,0,0,0,.41-.8,5.8,5.8,0,0,1-2.57.26c.21-.2.41-.6.62-.8-1.06.42-1.72,0-2.58.06-.21,0,.42-.4.42-.6a7.86,7.86,0,0,1-2.15.26c0-.2.42-.41.42-.61-1.28.43-1.93,0-2.79.08l.62-.81a3,3,0,0,1-2.56.46c.2-.2.62-.6.62-.8a4.24,4.24,0,0,1-3.43.48c.22,0,.63-.61.63-.8-1.06.81-1.92.64-3,.67.21-.2.41-.6.83-1a4.4,4.4,0,0,1-4.06.7c.21,0,.41-.6.41-.8-.84.81.74-.22-.34-.39,0,0-2.44.86-2.45.66-.84.61,2.18-3.4,1.1-3.38.21-.4-6.15.53-5.73.13-1.05.81-.84.4-2.14.24,0,0-4.39,2.48-4.19,2.27-1,1-1.55.2-2.84,0,.21-.2.8.8,1,.6-.84.81-.59-.18-1.66-.15,0-.2-3.54-1.19-3.55-1.39-1.06.62-.7.7-2,.73,0-.2-.75,2.19-.54,2-.84.81-.82.16-1.9,0l-1,.77c-1,1,.41.54-.88.38,0-.14,4.86.49,5,.22a7.71,7.71,0,0,1-2.73,1.29c0-.19.2-.59.2-.79a4.3,4.3,0,0,1-3.41,1.27c.22,0,.42-.4.41-.6-1,1-2.32,1.64-3.62,1.08v0a6.64,6.64,0,0,1-3,1.49.86.86,0,0,1,.41-.8l-.86,0c-1,1.61,3.89.59,3.51,2.57,0,0-3.37,5.89-6.56,17.65-2.63,9.65-.6,24.94-.3,28.09.26,2.73-1.13,5.9-1.39,8.75-1.4,15.44,9.18,32.89,21.38,41.13,4.86,3.29,8.94,1.9,13.65,1.14,9.63-1.56,24-7.8,32.26-16.58"/><path class="cls-24" d="M1214,278.82a5.59,5.59,0,0,0,4.93-.38c.31-.2,1.35,0,.92.24a7.85,7.85,0,0,1-6.71.41c-.18-.09-.15-.22.07-.3a1.18,1.18,0,0,1,.79,0"/><path class="cls-24" d="M1220.45,278.28a8.92,8.92,0,0,1,3-.78.78.78,0,0,1,.47.13c.09.08.11.18,0,.25a3.47,3.47,0,0,1-1.66.39.68.68,0,0,1-.52-.18c-.09-.14.08-.23.22-.23a2.79,2.79,0,0,0,1.34-.32l.46.37a8,8,0,0,0-2.7.71.68.68,0,0,1-.56-.05c-.11-.06-.23-.21-.07-.29"/><path class="cls-24" d="M1224.62,278.34a4.31,4.31,0,0,0,3.26-1.49c.89-1.37,0-3.62-1.56-4.45-.17-.09-.08-.22.09-.25a1,1,0,0,1,.66.12,4.28,4.28,0,0,1,2.07,3.86c-.16,1.19-1.33,2-2.79,2.4a6.87,6.87,0,0,1-1.36.2c-.19,0-.52,0-.61-.18s.07-.2.24-.21"/><path class="cls-24" d="M1211.74,278.25a.15.15,0,0,0-.16-.22,1.45,1.45,0,0,1-.95-.29l-.32.39a4.44,4.44,0,0,1,1.93.63.35.35,0,0,0,.4-.06c.07-.07.16-.22,0-.29"/><path class="cls-24" d="M1212.68,278.41a5,5,0,0,0-2.17-.7.41.41,0,0,0-.33.15.16.16,0,0,0,0,.24"/><path class="cls-24" d="M1209.19,278.45a2.49,2.49,0,0,1-2.15-1.4,3.39,3.39,0,0,1,.89-3.83c.1-.09,0-.21-.07-.25a.49.49,0,0,0-.42.14,3.83,3.83,0,0,0-1.25,3.26,2.76,2.76,0,0,0,1.89,2.32,3,3,0,0,0,.89.16.42.42,0,0,0,.39-.19c.06-.15,0-.21-.17-.21"/><path class="cls-8" d="M1276.81,266.33a37.93,37.93,0,0,1,5-8.8,8,8,0,0,1,2.87-2.48,1.24,1.24,0,0,1,.32-.08l-.3-.09a5.61,5.61,0,0,1,1,2,11.48,11.48,0,0,1,.08,6c-.07.33.67.23.73-.06a11.19,11.19,0,0,0-.43-7c-.21-.44-.49-1.3-1.08-1.24a3.69,3.69,0,0,0-1.57.72,12.86,12.86,0,0,0-2.82,2.93,42.88,42.88,0,0,0-4.47,8.13c-.16.36.57.33.69.06Z"/><path class="cls-32" d="M1193,244c5-1.82,8.28-2,17-1.19l0,.19c.17,1.12.08.5.25,1.62.12.86.25,1.72.38,2.57-2.86-.3-4.94-.78-6.76-.82-3.45-.07-7.42-.55-10.79.35C1193.1,245.84,1193.07,244.93,1193,244Z"/><path class="cls-32" d="M1248.65,243.83a8.63,8.63,0,0,1,1.08.2,19.84,19.84,0,0,1,3.37,1.33c-.31-.14-.89-1.31-1.2-1.6a8,8,0,0,0-2.22-1.41,24.09,24.09,0,0,0-9.72-1.77c-1.2,0-11,1-11,1.75v.2c0,1.13,0,.49,0,1.63l0,2.6c2.78-.68,4.79-1.43,6.59-1.71,2.45-.38,4.89-1,7.37-1.13A29.53,29.53,0,0,1,1248.65,243.83Z"/><path class="cls-33" d="M1278.52,280.29a4.25,4.25,0,0,1,1.53,5.48,3.86,3.86,0,0,1-2.3,1.85c-.15.05,0,0-.14,0h-.2a5.66,5.66,0,0,1-1-.09,4.26,4.26,0,0,1-2.94-2.2c-.19-.35-1.22,0-1,.44a5.11,5.11,0,0,0,5.09,2.51,4.66,4.66,0,0,0,1.78-8.6c-.33-.22-1.3.26-.83.56Z"/><path class="cls-8" d="M1276.23,266.54c.69,0,1.76,0,2,.85a3.77,3.77,0,0,1-.43,2.05c-.48,1.29-1.35,3.08-.32,4.32,1.21,1.46,3.11-.46,3.79-1.5a8.66,8.66,0,0,0,1.42-5.43c-.15-1.9-.61-4.63-2.61-5.45-.2-.08-.77.22-.69.25,1.73.71,2.25,2.9,2.48,4.57a8.73,8.73,0,0,1-.58,4.78,6.49,6.49,0,0,1-1.9,2.71c-.3.22-.54.37-.87.16a1.73,1.73,0,0,1-.66-.87c-.51-1.41.47-3,.9-4.32a2.25,2.25,0,0,0,.08-1.76c-.41-.67-1.43-.67-2.1-.66a.79.79,0,0,0-.52.14c-.07.08-.13.17,0,.16Z"/><path class="cls-32" d="M1200.89,252.74a3.16,3.16,0,0,0-3.53,5.11,3,3,0,0,0,3.45.51,3.3,3.3,0,0,0,1.52-3.88,3,3,0,0,0-1.44-1.74"/><path class="cls-32" d="M1210.92,257s-5.47-4.59-8.22-4.82a10.18,10.18,0,0,0-9,4.5s5.2-3.86,8-3.52S1210.92,257,1210.92,257Z"/><path class="cls-32" d="M1237.56,251.86a3.24,3.24,0,0,1,3.51.54,3.09,3.09,0,0,1,1,1.43,3.21,3.21,0,0,1-.68,2.95,3,3,0,0,1-3.41.69,3.31,3.31,0,0,1-1.73-3.8,3,3,0,0,1,1.34-1.81"/><path class="cls-32" d="M1228.49,256.68s6.38-4.89,9.7-5.3c6-.74,11.64,2.51,13.41,4.69,0,0-8.76-4.26-12.16-3.76S1228.49,256.68,1228.49,256.68Z"/><path class="cls-56" d="M1244.05,212.24s-19.85,17.36-47.37,14.6l-.08-.69s-5.74-11,.11-17,23.81-9,23.81-9,30.85-1.63,42.93,6.82S1280.93,233.62,1281,240s-7.33,22.45-7.33,22.45-.09-13.82-1-19.91S1252.34,228.47,1244.05,212.24Z"/><path class="cls-56" d="M1245.92,215.48S1252,230.5,1259,236l7,5.51s-9.93-9.06-11.83-17.55S1245.92,215.48,1245.92,215.48Z"/><path class="cls-28" d="M1218.88,288.11c5.54-.39,14.46-1.62,14.46-1.62s-.95,10.31-13.78,11.21-15.22-9.18-15.22-9.18S1213.35,288.5,1218.88,288.11Z"/><path class="cls-29" d="M1218.94,288c2.92-.2,14.68-1.3,14.68-1.3s-3.65,3.84-14.21,4.58c-11.46.81-15.07-2.48-15.07-2.48Z"/><path class="cls-28" d="M1203.69,287.65a18.58,18.58,0,0,0,3.15.15c2.16-.36,3.48-1.1,5.05-1.35,2.67-.42,4.47.65,5.64.57s2.8-1.4,5.51-1.35c1.59,0,5.54.39,7.73.45a18.24,18.24,0,0,0,3.09-.58c.4.08-.13,3.34-14.85,4.37S1203.31,287.79,1203.69,287.65Z"/><path class="cls-53" d="M1217.59,322.59s1.07,10.62,9.16,13.91c0,0-3.83,58.56-4.84,70.95s-12,104.12-16.72,113.46-37.7-2.66-37.7-2.66,6-50.33,17.09-70.76l1.14-15.38s-8-6.81-8-19.93,8-46.15,8-46.15l6.93-39Z"/><path class="cls-54" d="M1166.69,518.48s6-50.33,17.08-70.76l1.14-15.38s-8-6.81-8-19.92c0-8.77,5.23-30.58,7.59-41.33,1.17-5.34-.15-4.84-.15-4.84l-6.15,25.93s-3,14.9-2.22,25.1a22.88,22.88,0,0,0,7.71,15.55l-.65,14.24s-.65,1.18-5,10.46-7.71,31.62-8.75,36.07-4.18,25.53-4.18,25.53,2.13,1.52,3.42,1l.15-1.44Z"/><path class="cls-57" d="M1278.06,256.11l-.11-2.55-26.56-6.95h0c-9.51-3.46-22.73-.56-30.34,4.55l-6.78.5.06-.11c-8-5.62-21.18-6.2-31.15-1.37l.3,1h0c0,.06.07.22.13.44l.27.91c1.63,5.83,3.52,12,5.21,13.59,1.13,1.08,4.8,1.52,7.81,1.69,1.14.07,2.18.1,2.93.12.9,0,8.88.12,10.19-1.15s3.39-10.54,4-13.47l7-.49c.93,2.25,2.93,11.95,6.37,13.85s20.8.72,22.36-1.73a56.45,56.45,0,0,0,5-11.26l1.36-4.14Zm-68.87,9.81c-1.43,1.22-17.32,1.18-19.28-.67-1.66-1.57-4-9.89-4.87-13v-.13c8.91-3.82,20.76-3.31,27.75,1.44-1.12,5.05-2.78,11.55-3.6,12.34Zm38.42-1.59c-1,1.55-16.14,3.24-19.68,1.28-2.46-1.35-4-8.45-5.29-12.5,7.44-4.84,22.89-7.23,31.35-3.6-1.41,5.07-3.63,11.05-6.38,14.82Z"/><path class="cls-58" d="M1209,265.77c.82-.79,2.48-7.3,3.6-12.35-7-4.75-18.84-5.26-27.75-1.44v.13c.88,3.12,3.21,11.44,4.87,13,2,1.85,17.85,1.89,19.28.67Z"/><path class="cls-58" d="M1247.61,264.33c2.93-4.12,5-9.75,6.38-14.82-8.46-3.63-23.91-1.24-31.35,3.6,1.24,4.05,2.83,11.15,5.29,12.5,3.54,2,18.71.27,19.68-1.28Z"/><path class="cls-53" d="M1302.87,323.35l-27.35-5.85s-2,13.76-10.2,17.05c0,0-2.78,45.28-1.79,57.73s4.22,60.41,4.11,73.22,4.61,54.18,8.38,59.67c1.93,2.81,21.09,1.21,39.35-1.15V326.61Z"/></g><g class="cls-59"><g id="freepik--Characters--inject-342-2" data-name="freepik--Characters--inject-342"><path class="cls-8" d="M2137.24,455.84l-45.89-35.43-72-245.6-98.39-13.13L1967,342H1428.58l46.12-180.46-97.24,13.13-74.18,249.15-48.52,32Zm-203-281.2,68.69,5.82,62.64,219.65-75.33-58.44h-4.06Zm-543.69,5.82,71-5.82-56.13,179.41,1.89.65-78.91,52.38Z"/><path class="cls-8" d="M2119.44,713.31V927H1283.93V713.31h-157v312.35a44,44,0,0,0,44,44h69.33a44,44,0,0,0,44-44h0v-14.42h76.1l35.63-22.67h608.56l45.45,25.89h69.64v11.2a44,44,0,0,0,44,44h69.1a44,44,0,0,0,44-44h0V713.31Z"/><path class="cls-8" d="M2232.66,1071.2h-69.33a45.62,45.62,0,0,1-45.72-45.51v-9.54h-67.67a1.73,1.73,0,0,1-.81-.2l-45-25.68h-608l-35.22,22.29a1.74,1.74,0,0,1-.91.28h-74.45v12.72A45.59,45.59,0,0,1,1240,1071.1h-69.3a45.61,45.61,0,0,1-45.55-45.54V713.31a1.7,1.7,0,0,1,1.7-1.7h157a1.7,1.7,0,0,1,1.69,1.7v212h832v-212a1.7,1.7,0,0,1,1.69-1.7h157.35a1.7,1.7,0,0,1,1.69,1.7v312.35a45.61,45.61,0,0,1-45.68,45.54Zm-182.38-58.43h69.16a1.69,1.69,0,0,1,1.69,1.69v11.2a42.23,42.23,0,0,0,42.2,42.16h69.33a42.24,42.24,0,0,0,42.2-42.16V715H2121V927a1.7,1.7,0,0,1-1.7,1.7H1283.93a1.7,1.7,0,0,1-1.7-1.7V715H1128.58v310.66a42.19,42.19,0,0,0,42.16,42.16h69.33a42.18,42.18,0,0,0,42.16-42.16v-14.42a1.7,1.7,0,0,1,1.7-1.69h75.72l35.2-22.4a1.52,1.52,0,0,1,.91-.27h608.73a1.67,1.67,0,0,1,.82.21Z"/><path class="cls-12" d="M2244.13,559.48c-5.82-11.64-48.28-56-56.81-64.83a16.63,16.63,0,0,1-2.51-3.39c-10.38-19.82-98.5-256.22-114-284.94-28.32-52.86-51.09-44.91-81.38-48.76-.88,0-80.11-6.51-81-6.51L1756.91,146a1128,1128,0,0,0-113.66,0l-186.69,9.34c-51.94,2.64-102-.71-130.51,51-15.83,28.62-103.57,265-114,284.91a16,16,0,0,1-2.5,3.39c-8.6,8.9-51,53.19-56.82,64.83-6.46,13-32.38,61.52-32.38,71.06,0,8.39,6,146.92,32.65,255.47a92.66,92.66,0,0,0,64.5,67.64,22.45,22.45,0,0,0,4.87,1h201.7a15.28,15.28,0,0,0,13.2-7.62L1485,864.53a15,15,0,0,1,3.66-4.23,114.56,114.56,0,0,1,70.62-23.93h278.51a114.82,114.82,0,0,1,70.45,23.93,15.47,15.47,0,0,1,3.62,4.23L1959.59,947a15.29,15.29,0,0,0,13.2,7.62h201.7a22.66,22.66,0,0,0,4.88-1,92.65,92.65,0,0,0,64.49-67.37c26.63-108.55,32.65-247,32.65-255.47C2276.65,621,2250.59,572.44,2244.13,559.48ZM1254.76,455.84c40.6-79.32,116.57-267.39,116.57-267.39,262.9-26.39,479.35-20.11,585-11.93,43.36,3.35,70.78,10.3,70.78,10.3h0a209.12,209.12,0,0,1,30.06,54.29l80,214.73C1886.27,431.58,1254.76,455.84,1254.76,455.84Z"/><path class="cls-8" d="M1211.07,493.09S1203,430,1188.4,430s-79.35,17.8-80.94,30.76,12.93,27.51,25.89,30.76S1174,498,1174,498l6.5,24.27Z"/><path class="cls-8" d="M1180.32,523.92h-.48a1.71,1.71,0,0,1-1.15-1.22l-6.19-23.18c-5.41-.64-28-3.38-39.56-6.36-13.73-3.38-28.89-18.75-27.07-32.62,1.83-14.52,68.79-32.25,82.63-32.25,15.6,0,23.69,58,24.37,64.63a1.64,1.64,0,0,1-.54,1.42l-30.76,29.17A1.6,1.6,0,0,1,1180.32,523.92Zm8.08-92.28c-16.1,0-77.82,18.31-79.28,29.27-1.49,11.88,12.32,25.85,24.64,28.93s40,6.4,40.26,6.43a1.71,1.71,0,0,1,1.46,1.25l5.75,21.53,28-26.6C1206.13,468.56,1197.81,431.64,1188.4,431.64Z"/><path class="cls-9" d="M1398.91,638.83s29.13,30.76,38.84,87.44c0,0-137.62-6.5-191-27.55s-59.92-22.67-61.55-32.38,3.39-79.35,24.3-90.68,43.72-8.09,64.76,8.12,47,40.6,61.55,45.34S1398.91,638.83,1398.91,638.83Z"/><path class="cls-14" d="M1304.6,643.53a37.93,37.93,0,1,1,0-.06Z"/><path class="cls-13" d="M1232.12,782.94s150.58,29.14,157.07,33.84,19.43,32.38,19.43,32.38l-30.76-8.08s-71.26,3.38-95.52-8.09S1232.12,782.94,1232.12,782.94Z"/><path class="cls-15" d="M1309.34,493.06a1.69,1.69,0,0,1-.88-.24c-6.77-4.09-13.74-7.92-20.74-11.4a1.69,1.69,0,1,1,1.12-3.19,1.22,1.22,0,0,1,.36.18,233.2,233.2,0,0,1,21,11.54,1.68,1.68,0,0,1,.5,2.33,1.66,1.66,0,0,1-1.38.78Z"/><path class="cls-1" d="M1242.51,569.9s-17.26-42.12-17.26-67"/><path class="cls-15" d="M1242.51,571.59a1.67,1.67,0,0,1-1.59-1c-.71-1.73-17.36-42.71-17.36-67.68a1.69,1.69,0,0,1,3.38,0c0,24.26,16.92,66,17.13,66.36a1.76,1.76,0,0,1-.92,2.23Z"/><path class="cls-15" d="M1407,908.62h0L1194.49,899a1.69,1.69,0,0,1-1.62-1.56L1181.4,748.13a1.69,1.69,0,0,1,1.54-1.83h0a1.66,1.66,0,0,1,1.79,1.51v0l11.37,147.87,210.23,9.48c4.47-5.52,35.66-44.46,37.22-61.62,1.83-18.31-24.26-46.22-31.3-48S1272,767.14,1270.66,766.87a1.63,1.63,0,0,1-1.34-1.87s0-.06,0-.09a1.68,1.68,0,0,1,2-1.35c5.49,1.11,134.2,26.86,141.78,28.76s35.9,30.89,33.84,51.6c-1.93,19.42-37.22,62.26-38.68,64.09A1.72,1.72,0,0,1,1407,908.62Z"/></g></g></g></svg>