<svg id="Layer_1" data-name="Layer 1" xmlns="http://www.w3.org/2000/svg" viewBox="0 0 1303.15 1057.31"><defs><style>.cls-1{fill:#c7e4e3;}.cls-2{fill:#956243;}.cls-3{fill:#284e66;}.cls-4{fill:#132e38;}.cls-5{fill:#a53b23;}.cls-6{fill:#1b3e4f;}.cls-7{fill:#b7b338;}.cls-8{fill:#bc93b4;}.cls-9{fill:#653c2a;}.cls-10,.cls-15,.cls-16,.cls-26{fill:#151210;}.cls-10,.cls-15,.cls-16,.cls-17,.cls-25,.cls-26{stroke:#161311;}.cls-10,.cls-15,.cls-16,.cls-17,.cls-18,.cls-24,.cls-25,.cls-26,.cls-31,.cls-33{stroke-miterlimit:10;}.cls-10{stroke-width:0.53px;}.cls-11{fill:#010101;}.cls-12{fill:#231f20;}.cls-13{fill:#13110f;}.cls-14{fill:#ce8d2a;}.cls-15{stroke-width:0.53px;}.cls-16{stroke-width:0.55px;}.cls-17,.cls-25,.cls-31{fill:none;}.cls-17{stroke-width:1.29px;}.cls-18{fill:#6d6a2c;stroke:#6d6a2c;}.cls-18,.cls-24,.cls-31{stroke-width:1.7px;}.cls-19{fill:#151312;}.cls-20{fill:#946343;}.cls-21{fill:#221f20;}.cls-22{fill:#cc8d2a;}.cls-23{fill:#825639;}.cls-24{fill:#0c1d27;stroke:#231f20;}.cls-25{stroke-width:1.33px;}.cls-26{stroke-width:0.55px;}.cls-27{fill:#653c29;}.cls-28{fill:#040404;}.cls-29,.cls-35{fill:#fff;}.cls-29{opacity:0.14;}.cls-30{fill:#f37260;}.cls-31{stroke:#6f453a;}.cls-32{fill:#6f453a;}.cls-33{fill:#896081;stroke:#896081;stroke-width:1.27px;}.cls-34{fill:#31160e;}</style></defs><rect class="cls-1" x="-1.18" y="-5.02" width="1303.78" height="1062.33"/><path class="cls-2" d="M691.42,560.6s15.43,63.75,16,103.86l.54,16.8-32.46,1L642.33,555.73Z"/><path class="cls-2" d="M676.34,676.39l29.39-11.93s1.48,11,5.17,33.27a230.46,230.46,0,0,0,7,27.5l-7.69,35.31-10.08,10.94-11.45,3.31-14,1.37c-1-8.76,14.13-14.71,14.13-14.71l.2-19.81-4.73-3.48a93.15,93.15,0,0,1-2.07,20.93c-2.3,8.72-8.53,6.77-8.53,6.77s-.86-23.2-1.43-38.11S680,696.63,680,695.49Z"/><path class="cls-3" d="M348.48,828.75c2.42-51.82-7.64-144-7.64-144l-10.76-57.15s-55.19,32.14-110.9,25.56-90-27.52-90-27.52S104.38,737.54,105,764.18c.48,22.34,15.23,227.42,20,293.13H329.61C334.41,1004.79,346.55,870.14,348.48,828.75Z"/><path class="cls-4" d="M690.63,800.43c3.56-43.75-4.9-122.13-4.9-122.13l-9.91-48.81s-57.48,25-114.7,17.1-109.22-27.7-109.22-27.7-41.36,21.24-7.23,192.86c8.69,43.66,16.36,161.65,21,245.56H658.88C671.27,961.85,688.39,828,690.63,800.43Z"/><path class="cls-5" d="M1143.75,920.68c5.56-53.75,43.28-153.6,24.6-279.76-1.93-13-5.91-27.26-10.92-41.48-9-39.86-24.92-64.71-35.77-78.65-1.47-2.72-2.83-5.2-4.05-7.39l3.25-68.84L1097.21,341l-22.57-5.11s-21.24,58.24-65.31,58.75c-28.53.32-58.65-51.77-58.65-51.77l-13,1.93s-11.45,57.83-20.51,88.26c-11.16,37.66,5.14,69.37,5.14,69.37L922,523.27c-11.08,29-28.77,85.15-28.76,147.77,0,151.78,26.58,257.14,27.48,305.61.62,33.2-1.35,64.34-2.66,80.66H1157.2C1150.9,1025.21,1139.68,960,1143.75,920.68Z"/><path class="cls-6" d="M893.26,544.9s15.9-.41,28.15-7.41,5.25-76.08,5.25-76.08L893.26,457,886,466.65Z"/><path class="cls-7" d="M699.75,561.8c-9.14,1.28-11.66,3.93-20.94,4.32-6.09.25-15.69-.34-21.78,0-6.53-28.17-12.06-61-16.74-75.49-13.39-41.59-14.21-152.2-14.21-152.2,3.72,1.52,45.53,8.15,53,37.87s6.24,99.63,8.63,133.09C688.58,521.42,697.07,550.05,699.75,561.8Z"/><path class="cls-2" d="M362.14,550c3.54-.3,10.4.75,10.72,0,10.88-25.74-15.28-106.47-15.28-106.47l-56,4.75,20.56,75.55C338.49,531.64,346.49,540.87,362.14,550Z"/><path class="cls-8" d="M298.06,350.08s10.31-8.57,36.39,22c15.95,18.7,27.24,60.91,33.61,77.68l-43.31,13.95Z"/><g id="freepik--character-2--inject-2"><path class="cls-8" d="M308.59,562.41c-.91,6.15,5.31,22.76,6.93,28.79.81,3,1.73,6,2.68,9,.55,9.76,6.34,24.87,11.88,39.36a189.89,189.89,0,0,1-37.36,15.23,258,258,0,0,1-51.39,9.58,252.71,252.71,0,0,1-53.17-.94c-16.81-2.15-35.21-1.58-50.76-8.4-5-2.18-12.26-4.09-16.92-6.86,10.59-45,25.94-75.59,25.94-75.59l4.65-10.6L130.35,354.3l34.44-12.22,15.3-4.16L191,340.66c7.92,11.14,18.2,17.73,31.84,18.57a88.7,88.7,0,0,0,12.49-.13,36.45,36.45,0,0,0,28-17.48l.5.29,9.26,1,41,19.53s15.08,101.86,14.65,116.77C328.47,489.58,318.83,493,308.59,562.41Z"/></g><path class="cls-8" d="M318.28,400.23s17.53,70.17,16.08,81.17c-1.54,11.75-9.43,22-18.6,31.62S305.39,547.87,304,554.57s19.67,51.63,26.05,73.07-78.81-56.7-78.81-56.7L285,490.45Z"/><path class="cls-2" d="M257.93,332c-.74-2.38-.08-27.63-.08-27.63l-37.36,5.74-25.59-1.07s-3.44,18.34-4.19,20.71S169.65,341,169.65,341s11.7,18.42,60.21,18.42S283,343.46,283,343.46,258.68,334.39,257.93,332Z"/><path class="cls-2" d="M256.93,275.9s1.14,54.33,2.21,59.56l6.72,16.3h0c-16.46-.57-27.66,2.43-54.87-5.08l-32.56,1.05s8.31-10.89,9.84-15.14c10-27.79-1.61-61.91-1.61-61.91"/><path class="cls-9" d="M212.61,305.5s5.22,17.89,33.3,24.84c0,0,8.15,1.9,12.93.26l-.42-7.2Z"/><path class="cls-10" d="M303.16,270.67c-9.75-7.38-11.29-20.21-9.74-31.56,1.48-10.87-6.29-27.82,7.07-26.89.25,0-4.53-9.47-.61-8.55-2.24-6.09,6.57-5.26,8-12,.29-1.36,2.58-13.38-6-14.44-29.9-44.32-71.93-36.31-95.43-33.8-46.12,4.93-68.54,7-59.44,80,6.11,49,51.56,63.67,97.94,63.52,19.82-.06,43.32,1.34,58.65-16Z"/><path class="cls-10" d="M211.06,101.61C209.79,99,197.65,89.07,190.17,89.7c-5.35.45-11.58,2.65-20.73,10.42-8.4-2.62-18.78-4.52-23.92-.26a28.57,28.57,0,0,0-5.43,6.39h0l-.07.15a60.75,60.75,0,0,0-4,7.24c-6,7.85-18.51,24.59-20.91,32.09-1.19,3.74,4.1,11.91,11.19,20.67a14.82,14.82,0,0,0-4,7c-1.69,7,5.76,22.47,24.51,15.68,4.84,5,8.26,8.27,8.26,8.27l5.5-4.4s-.42-1-1.12-2.75l6.71-5.23-4.5-4.15a38.39,38.39,0,0,1,5-4c6.52-5.42,13.61-13.08,19.91-18.76,2.91-2.63,10.57-3.91,13.6-6.4a14,14,0,0,0-4.73-2.18l2.45-2c2.67,1.17,4.92,2.2,5.64,2.66,2.67-2.15,9.5-4.06,12.13-6.25q.69,1.14,1.32,2.34c2.4-2,7.49-4.21,9.88-6.24-.32-12-5.25-22.36-16.3-28C211.2,107.58,211.67,102.89,211.06,101.61Zm-81,74.15a16.49,16.49,0,0,1-.79-5.8c3,3.53,6.16,7.08,9.23,10.4C135,180.26,131.17,179.28,130,175.76Zm73.52-74.44c-.12,2-1.72,5.08-3.07,7.32l-.87-.17a136.87,136.87,0,0,0-13.94-2.4c2.41-3.55,4.82-7,5.56-7.5C195,95.78,203.78,97.77,203.56,101.32Z"/><path class="cls-2" d="M277.51,174.18l.35.24a4,4,0,0,1-.35-.52Zm13.13,2.54c.2.18.41.36.63.53V177S290.64,176.44,290.64,176.72ZM208.85,301.19c12.4,12.42,33.56,20.87,47.63,22.73,6.88.9,12.88,2.75,19.81-2.24,17.39-12.51,34.78-35.42,32.08-57.83-.5-4.13-3-11.83-2.7-15.81.29-4.59.14-26.7-4.09-40.63-5.15-17-10.3-25.38-10.3-25.38-.64-2.87,6.56-1.6,5-3.89H295a1.24,1.24,0,0,1,.63,1.15,9.88,9.88,0,0,1-4.38-2v.05c-1.87.86-3.75,0-5.32-1.42,0,.29.32.86.63.86a6.28,6.28,0,0,1-5-1.71c0,.29.32.86.32,1.15a11.63,11.63,0,0,1-4-1.76c.29.37,7.34-.75,7.34-.55-1.87.3.27.91-1.29-.51l-1.56-1.07c-1.56.3-1.5,1.24-2.75.09.31.29-.87-3.15-.87-2.87-1.88,0-1.37-.12-2.93-1,0,.28-5.11,1.88-5.11,2.17-1.56,0-1.14,1.43-2.4.29.32.28,1.13-1.21,1.44-.92-1.87.29-2.57,1.5-4.14.07.31.29-6.19-3.13-6.19-3.13-1.88.29-1.56.88-3.12-.26.63.58-8.66-.5-8.34.07-1.57,0,3,5.72,1.75,4.86,0,.29-3.6-.85-3.6-.85-1.57.29.79,1.72-.47.58,0,.28.32,1.14.63,1.14-1.87.87-4.06.3-5.94-.84.63.57.94,1.15,1.26,1.43-1.57,0-2.82.3-4.38-.84,0,.28.63,1.14.94,1.14a6.16,6.16,0,0,1-5-.56c0,.29.63.86.94,1.15a4.43,4.43,0,0,1-3.75-.57l.94,1.15c-1.25,0-2.19.58-4.07,0,0,.29.63.57.63.86a11.34,11.34,0,0,1-3.12-.28c0,.29.94.86.62.86-1.25,0-2.18.58-3.75,0,.32.29.63.86,1,1.15-1.26,0-2.5.29-3.76-.28a2.14,2.14,0,0,0,.63,1.15c-1.25,0-2.18.58-3.75,0,0,.29.63.86.94,1.15a16.79,16.79,0,0,1-3.75,0c0,.28.63.57.94.85a10,10,0,0,1-4.06-.27c0,.58.31.86.31,1.15-.93,0-1.56-.28-2.5-.28l-1.56.58c-4.35,5.75-15.87,17.26-15.87,17.26-9.66,7.77-9.81,21.23-9.48,26.68s7.14,27.26,7.14,27.26c-1.57-2-3-6.62-3.91-8.92-.94-2-2.38-4.26-3.33-6.26-2.82-4.58-9.07-3.13-12.5-.25l-.57.94c-4.76,6.5-3.26,22.65,5.74,33.37,1.1,12.19,13.35,17.93,16.22,8.94l1.72,4.74"/><path class="cls-11" d="M275.27,273.82a8.12,8.12,0,0,1-7.18-.34c-.46-.27-2,0-1.33.39a11.42,11.42,0,0,0,9.78.31c.26-.14.21-.33-.11-.43a1.76,1.76,0,0,0-1.16.07"/><path class="cls-11" d="M265.87,273.32a12.84,12.84,0,0,0-4.44-1,1.05,1.05,0,0,0-.67.21c-.13.12-.15.27,0,.36a4.9,4.9,0,0,0,2.43.5.93.93,0,0,0,.75-.29c.13-.2-.12-.33-.32-.32a4,4,0,0,1-2-.41l-.66.56a11.87,11.87,0,0,1,4,.92,1,1,0,0,0,.81-.1c.16-.1.33-.31.08-.42"/><path class="cls-11" d="M259.81,273.58c-1.79,0-3.9-.74-4.8-2-1.35-1.95-.15-5.26,2.07-6.54.24-.14.11-.32-.13-.36a1.5,1.5,0,0,0-1,.2,6.27,6.27,0,0,0-2.85,5.71c.29,1.72,2,2.9,4.16,3.37a10.12,10.12,0,0,0,2,.24c.27,0,.76-.09.89-.29s-.12-.3-.37-.3"/><path class="cls-11" d="M278.54,272.9a.23.23,0,0,1,.22-.33,2.15,2.15,0,0,0,1.38-.46l.48.55a6.5,6.5,0,0,0-2.79,1,.52.52,0,0,1-.57-.08c-.12-.09-.24-.31-.07-.42"/><path class="cls-11" d="M277.19,273.17a7.12,7.12,0,0,1,3.12-1.11.57.57,0,0,1,.48.2.23.23,0,0,1,0,.35"/><path class="cls-11" d="M282.26,273.08a3.68,3.68,0,0,0,3.08-2.13,5,5,0,0,0-1.46-5.53.2.2,0,0,1,.08-.36.69.69,0,0,1,.62.18,5.55,5.55,0,0,1,1.95,4.68,4,4,0,0,1-2.64,3.46,4.38,4.38,0,0,1-1.29.28.65.65,0,0,1-.58-.27c-.09-.21.07-.3.24-.31"/><path class="cls-12" d="M184.42,258.15a66.76,66.76,0,0,0-6.17-10.73,20.82,20.82,0,0,0-4.43-4.7,6.08,6.08,0,0,0-2.36-1.17c-.92-.17-1.3.56-1.66,1.28-1.7,3.38-1.56,7.37-.65,10.94.09.38,1.15.1,1.06-.28a16.83,16.83,0,0,1-.15-8.74,8.55,8.55,0,0,1,1.35-2.92l-.7.29c.14,0-.06,0,0,0s.29.05.42.1a6.66,6.66,0,0,1,1.55.82,23.61,23.61,0,0,1,5.91,6.75,75.33,75.33,0,0,1,4.74,8.64c.18.37,1.21,0,1.06-.29Z"/><path class="cls-13" d="M304.94,226.08a5.24,5.24,0,0,0-2.39-6c-4.86-2.78-9.77-4.08-19.91-5.83l-.11.27c-.9,2.05.11-.24-2.15,4.93l.47.84c3.74.55,6.63.68,9,1.28,4.86,1.2,10.63,2,15,4.55Z"/><path class="cls-13" d="M248.52,214.6c.56,1.55.24.69.8,2.25.43,1.19.85,2.37,1.27,3.56-4.16.38-7.28.27-9.88.74-5.18.91-11.31,1.33-16,3.87-2.22,1.21-5.39,3-6.31,5.75-.25.73-.36,3.08-1.44,3-.44,0-.51-2.17-.52-2.39-.12-4.32,2.63-7.12,6.36-9.51,7.6-4.87,11.88-6.11,25.59-7.54"/><path class="cls-14" d="M180.38,278.06a6.92,6.92,0,0,0-2.17,9.34,6.8,6.8,0,0,0,4.3,2.93,6.91,6.91,0,0,0,3-.2,7.46,7.46,0,0,0,5-3.86c.36-.72-1.19-.63-1.46-.1a5.65,5.65,0,0,1-3.5,3,7.54,7.54,0,0,1-1.52.24h-.37l-.26,0a5.82,5.82,0,0,1-3.57-2.33,6,6,0,0,1-1.07-4.07,6.13,6.13,0,0,1,2.6-4.36c.25-.17.42-.48.11-.69a1.1,1.1,0,0,0-1.1.12Z"/><path class="cls-12" d="M184.23,258.21c-1.74,0-4.24.4-3.86,2.68s1.84,3.94,2,6.14c0,.73-.31,2.51-1.14,2.49-1.26,0-2.53-1.79-3.12-2.69a12.56,12.56,0,0,1-2.12-7.34c.12-2.62.58-6.74,3.33-8,.63-.28-.36-.26-.62-.15-2.56,1.14-3.33,4.2-3.63,6.74a13,13,0,0,0,1.05,7.31c.89,1.94,3.09,5.49,5.73,4.32,2.24-1,1.6-3.8.92-5.56a19.3,19.3,0,0,1-1.31-3.59c-.25-1.52.73-1.93,2.12-2a1.15,1.15,0,0,0,.75-.2c.1-.12.19-.25-.07-.24Z"/><path class="cls-13" d="M293.91,235.5a4.71,4.71,0,0,1,5.08.9,4.57,4.57,0,0,1,1.37,2.12,4.68,4.68,0,0,1-1.09,4.27,4.35,4.35,0,0,1-5,.89,4.8,4.8,0,0,1-2.38-5.58,4.29,4.29,0,0,1,2-2.6"/><path class="cls-13" d="M278.83,242s8.84-6.92,13.37-7.38c6.61-.67,12.77,2.93,15.13,6.16,0,0-8.81-5.38-13.45-4.77C289.44,236.6,278.83,242,278.83,242Z"/><path class="cls-13" d="M242.18,236a4.7,4.7,0,0,0-5.07.93,4.55,4.55,0,0,0-1.36,2.13,4.69,4.69,0,0,0,1.12,4.26,4.35,4.35,0,0,0,5,.85,4.79,4.79,0,0,0,2.35-5.59,4.29,4.29,0,0,0-2-2.58"/><path class="cls-13" d="M253.26,242.24s-9.5-6.83-14.34-7.29c-8.73-.82-16.82,4.15-19.32,7.4,0,0,12.57-6.58,17.54-6C241.89,236.9,253.26,242.24,253.26,242.24Z"/><path class="cls-15" d="M292,180.62c1.23,7.88,11.93,1.18,6.06-.73.71-3.82-4.71-5.37-4.56-9.27-.23.34-.38.61-.38.61s-.16-4.67-1.73-5.8-8.6-4.65-8.6-4.65l-2.13,1.61c.06-.11.81-1.65-.29-2.57s-13-7.12-20.62-6.62a6.34,6.34,0,0,0-.75.07l-3.15,1.65-.11.06.12-.07c.56-.33,1.75-1.15,1.14-1.82a2.81,2.81,0,0,0-1.41-.62A26.64,26.64,0,0,0,251,152v0l-.52,0H250v0a27.25,27.25,0,0,0-4.61.47,2.79,2.79,0,0,0-1.4.63c-.62.67.59,1.48,1.15,1.81l.12.07-.12-.06-3.16-1.63c-.24,0-.5-.06-.75-.07-7.6-.45-19.48,5.82-20.57,6.76s-.34,2.46-.28,2.58L218.19,161s-9.1,3.58-10.66,4.72-2.26,3.83-2.26,3.83-2.77,1-3.77.7-6.16,2.39-8.29,5.46c-1.36,2-.86,3.82-1.53,5.55h0c-.38,1-.6,1.61-.6,1.61l-5.34,1.8c-4.28,2.08-3.18,10.91-3.18,10.91-8.4,10.37-8.79,19.18-5,28.66,1.47,3.65-9,7.37-2.26,7.21s12.43,21.06,12.43,21.06,5.72-8.29,6-12.14-1.64-15.24-1.64-15.24l3.26-.47s2-.81,4.37-5.18-2-12.1-2-12.1l-1.29-4.68,6.37.42c6.16-1.08,6.48-7.75,6.48-7.75l-1.1-11.11,3.71,3.72a4.53,4.53,0,0,0,3.57,1.58c9.54-.75,10.65-6.7,10.65-6.7l1.26-5.6,2.43,1.6c2.56,2.1,10.41,5.31,14.39,3.58,1-.45,5.44-3.87,6.16-4.34,2.55-1.87,2.92-5.43,3-6.75-.37-.37-.73-.82-1.09-1.2-1.36-1.48-2-.86-.65.62,2.36,2.56,6.35,6.14,9.86,6.28s10.68-1.3,11.58-2.87c.6-1-.47-1.18.77-1.13a4.06,4.06,0,0,1,2.7,1.61c1.63,1.86,2.73,4.58,5,5.73,3.31,1.68,5.3-.14,8.62-.86A1.57,1.57,0,0,1,292,180.62Z"/><path class="cls-16" d="M299.9,174.44s2.26-7.18-1.91-11.3-20.17-20.67-47.61-20.62Z"/><path class="cls-17" d="M149.38,191.75s-21.1,12.11-30.27-4.88,15-23.09,15-23.09"/><path class="cls-17" d="M163.87,98.6s10.57-17.4,24.91-14.44,5.3,26.52,5.3,26.52"/><path class="cls-8" d="M308.59,562.41,336.94,639s-53.81,18-101.64,17.87-114.82-8.7-114.82-8.7l15.2-45.84Z"/><g id="freepik--character-2--inject-2-2" data-name="freepik--character-2--inject-2"><path class="cls-7" d="M657.68,540.66c-.93,6.21.76,42.42,2.43,48.52.84,3.06,1.78,6.09,2.76,9.12.57,9.87,6.54,25.14,12.25,39.8a197.35,197.35,0,0,1-38.51,15.4,270.41,270.41,0,0,1-53,9.68,264.16,264.16,0,0,1-54.8-.95c-17.33-2.17-34.62-6.29-50.66-13.19-5.12-2.2-20-4.71-24.81-7.52,10.91-45.48,22.52-71.15,22.53-71.15l4.79-10.72-11.45-210,35.51-12.35,15.77-4.21,11.27,2.77c8.16,11.26,18.75,17.93,32.81,18.77a92.58,92.58,0,0,0,12.87-.13,37.65,37.65,0,0,0,28.89-17.68l.51.3,9.54,1,42.25,19.74s27.11,103,26.67,118.08C685,486.42,668.24,470.45,657.68,540.66Z"/></g><path class="cls-7" d="M665.09,382.8s25,80.24,23.49,91.36c-1.59,11.88-5.55,26.27-15,36s-10.69,35.25-12.09,42,6.46,41.34,13,63S607.1,568.7,607.1,568.7l34.82-81.4Z"/><path class="cls-18" d="M667.22,520.08a33.76,33.76,0,0,1,5-9.09c10-12.18,15.77-32.7,13-47.91a111.48,111.48,0,0,0-5.37-20.68c-6.55-18.5-10.34-27.35-11.85-46.52,0,0,3.6,17.84,6.3,25.36s9.65,24.87,12.45,40.49-1.13,27.49-4.24,35.44c-1,2.49-12.11,19.2-12.11,19.2-.74,1.44-1.41,3-2,4.5A2.68,2.68,0,0,0,667.22,520.08Z"/><path class="cls-18" d="M622.19,516.37s-17.8-6.82-35.39-7-34.56,7-34.56,7S601.19,509.23,622.19,516.37Z"/><path class="cls-2" d="M471,576.93l2.45,12.18a130.92,130.92,0,0,1,2.71,34.65l-3.63,95H447.82s-25.9-108.64-25.9-140.25c0-.44.82-12.07.84-12.58Z"/><path class="cls-7" d="M469.24,349.63s-25.1,8.57-35.33,33.1-16,206.21-16,206.21,44-4.51,57.39-4.51c0,0,27.9-161.55,27.9-186.08S469.24,349.63,469.24,349.63Z"/><path class="cls-18" d="M483.27,364.49s13.51,5.6,17.52,46.48c2.29,23.34-20.26,138.17-20.26,138.17l-4.2,33.77,5.59-33.45s19.89-101.69,21.33-122.59-2.84-44-8.63-51.43C486.63,365.21,483.27,364.49,483.27,364.49Z"/><path class="cls-7" d="M657.68,553.39l27.65,95s-57.12,15.26-106.42,15.18S475.35,655,475.35,655l1-32.65Z"/><path class="cls-2" d="M492.34,799a150.19,150.19,0,0,0-16.29-15.21l-6.66-19.23,2.3-10,5-.4s2.39,25.5,6.73,29.59,6.48,4,6.48,4l3.22-6.06L486,744.25s-5.49-15.79-7.26-19.38c-2.12-3.44-5.21-4.61-7.85-7.67l-1.26-20.89L442.55,694c1.32,5.12,2.67,19.39,4.52,25.2l-1.93,41.19,9.48,16.77,11.79,14.73,27.53,15.54S497.65,805.38,492.34,799Z"/><path class="cls-2" d="M601.89,327.65c-.8-2.5-.1-29.11-.1-29.11l-40.11,6.06-27.48-1.14s-3.7,19.33-4.5,21.83-28.29,13.15-28.29,13.15,18.23,18,70.33,18,57.1-16.76,57.1-16.76S602.69,330.15,601.89,327.65Z"/><path class="cls-19" d="M456.12,260.45c4.14-2.1,8.35-4.87,10.52-9a22.22,22.22,0,0,0,2.09-9.59,6.46,6.46,0,0,0,.9-1.33c3.65-7.41-1.3-17.48,3.87-24,4.73-5.91,15.7-4,20.2-10,3.5-4.75,1.07-9.77,2.83-14.15s8.91-7.38,13.52-6.16l28.71,57.63c.73,18,2.82,27.75-2.66,37.55-3.36,5.08,3.62,10.5,1.46,16.17-1.72,5.83-1.21,12.77,3.2,17-22.23-1.55-52.21-12-69.55-25.68l-4.88-3.9c8.59-3,16.55-16.64,16.55-16.64-4.6,5.11-12.9,12.22-19,14.57a23.88,23.88,0,0,1-2.89-1.64c-3.84-1.32-13.11-10.55-18.81-16.48A41,41,0,0,0,456.12,260.45Z"/><path class="cls-19" d="M631.82,163a40.17,40.17,0,0,1,11.24,7.09,37.29,37.29,0,0,1,3,3c11.71,11.74,16.46,28,12.73,43.66-1.84,7.42-5.47,15.69-1.12,22.17s14.59,7.67,18.65,14.21c4.78,7.7-1.83,17.24-1.11,26.12,1,8.59,8.58,15.24,17.89,15.69a78.46,78.46,0,0,1-38.73,9.55l-8.18-13.51a12,12,0,0,1-3.27,15.14,30.71,30.71,0,0,1-16.56,6.25c-13.59.86-43-7.46-79.5-23.61Q583.26,223.86,619.7,159"/><path class="cls-19" d="M478.55,197c2.69-5,6.59-9.49,8.71-14.73,4.59-11.3.59-25.28,8.37-34.94,5.55-6.88,15.36-9.24,24.48-10.54s18.84-2.08,26.29-7.13c5.49-3.7,9.15-9.33,14.64-13,7.78-5.32,18.12-6,27.72-5.24a60.94,60.94,0,0,1,28,8.32,29.19,29.19,0,0,1,14.34,23c0,4.5-1.28,9-.48,13.44.9,4.88,4.24,9,6,13.73,3.48,10.28-1,21.44-10.79,27.14l-80.15,71.29c-14.91,3-48.09-7.77-57.45-19S471.82,209.71,478.55,197Z"/><path class="cls-20" d="M600.94,269.59s-2.08,52.79-1.31,57.92l-3.31,7.06,6.67,5.84c-22,17.79-27.44,18.09-54.51,9.24l-31.22-16.59s9-8.34,10.85-12.38c7.47-16.69-5.56-55.56-5.56-55.56"/><path class="cls-20" d="M499.18,225.48l.56-1c3.48-3,9.9-4.62,12.93,0,1,2,2.56,4.27,3.58,6.28,1,2.3,2.59,6.95,4.25,8.95,0,0,10.7-23.69,10.24-29.21s-18.89-17.43-9.08-25.53c0,0,10.24-10.51,15.11-16.71,1.09-.6,2.2-1.18,3.33-1.73a10.39,10.39,0,0,0,1.75.17c0-.23-.21-.46-.31-.84l.4-.19a12.58,12.58,0,0,0,3.76.06c-.33-.28-1-.55-1-.84a18,18,0,0,0,3.88-.1c-.34-.28-1-.85-1-1.14,1.64.54,2.59-.07,3.88-.1a2.16,2.16,0,0,1-.68-1.15c1.31.55,2.6.23,3.89.2-.33-.29-.67-.86-1-1.14,1.63.54,2.58-.07,3.87-.1.3,0-.53-.49-.64-.8l.13,0a12.35,12.35,0,0,0,3.08.18c0-.25-.49-.5-.62-.75l.21,0c1.78.41,2.71-.13,3.94-.16l-.47-.53.58-.1a5.05,5.05,0,0,0,2.78,0l-.41-.37,1.1-.15a6.11,6.11,0,0,0,3.5-.16.73.73,0,0,1-.42-.25l1.24-.14a13.73,13.73,0,0,0,2.72,0,2.71,2.71,0,0,1-.24-.24l1.67-.13a5.39,5.39,0,0,0,3-.18q3-.15,6-.17c14.88-.1,31.29.84,42.75,11.27a140.4,140.4,0,0,1,9.67,22.81c4.7,14,5.37,36.44,5.17,41.1-.17,4,2.56,11.79,3.17,16,3.31,22.65-14.12,46.28-31.8,59.37-7,5.22-13.28,3.48-20.42,2.72-14.58-1.56-36.65-9.65-49.76-21.95l-18.7-15.94-1.89-4.77c-2.76,9.18-15.55,3.64-17-8.69C496.33,248.51,494.41,232.18,499.18,225.48Z"/><path class="cls-11" d="M611.46,259.3a8.48,8.48,0,0,1-7.43-.18c-.48-.26-2,.06-1.37.43a12,12,0,0,0,10.12.09c.26-.15.21-.34-.13-.43a1.9,1.9,0,0,0-1.19.09"/><path class="cls-11" d="M601.73,259a13.76,13.76,0,0,0-4.61-.92,1,1,0,0,0-.69.23c-.13.12-.16.27,0,.36a5.29,5.29,0,0,0,2.53.46,1,1,0,0,0,.77-.32c.13-.2-.13-.32-.34-.31a4.14,4.14,0,0,1-2-.38l-.68.59a12.46,12.46,0,0,1,4.13.84,1,1,0,0,0,.83-.12c.16-.1.34-.33.08-.43"/><path class="cls-11" d="M595.47,259.42c-1.85,0-4.05-.67-5-1.95-1.44-1.94-.27-5.33,2-6.68.25-.15.11-.32-.15-.36a1.57,1.57,0,0,0-1,.22,6.31,6.31,0,0,0-2.81,5.86c.34,1.73,2.15,2.89,4.38,3.32A10.81,10.81,0,0,0,595,260c.28,0,.78-.1.91-.31s-.13-.3-.39-.29"/><path class="cls-11" d="M614.81,258.29c-.1-.2.07-.33.22-.34a2.21,2.21,0,0,0,1.42-.49l.51.55a6.63,6.63,0,0,0-2.86,1.08.54.54,0,0,1-.59-.07c-.13-.09-.26-.3-.09-.42"/><path class="cls-11" d="M613.42,258.6a7.54,7.54,0,0,1,3.2-1.2.61.61,0,0,1,.5.19.24.24,0,0,1,0,.36"/><path class="cls-11" d="M618.66,258.39a3.77,3.77,0,0,0,3.13-2.23,5,5,0,0,0-1.64-5.57.2.2,0,0,1,.08-.37.72.72,0,0,1,.65.17,5.61,5.61,0,0,1,2.12,4.7,4.08,4.08,0,0,1-2.65,3.57A4.62,4.62,0,0,1,619,259c-.18,0-.51-.05-.61-.26s.07-.3.24-.32"/><path class="cls-21" d="M517.19,245.52a67.35,67.35,0,0,0-6.64-10.77,21.59,21.59,0,0,0-4.69-4.66,6.56,6.56,0,0,0-2.44-1.13c-.94-.17-1.31.54-1.69,1.3-1.69,3.46-1.45,7.54-.42,11.15.12.43,1.21.14,1.08-.29a16.84,16.84,0,0,1-.35-8.85,8.4,8.4,0,0,1,1.32-3l-.57.31c-.27,0-.05,0,0,0s-.08,0,.09,0l.26.07a6.17,6.17,0,0,1,1.65.81A24.54,24.54,0,0,1,511,237.2a77.47,77.47,0,0,1,5.08,8.61c.21.41,1.27.07,1.08-.29Z"/><path class="cls-19" d="M641.77,203.75c-7.8-1.83-12.71-1.52-25.6,1.12v.29c-.06,1.67,0,.74-.08,2.42,0,1.28-.07,2.55-.11,3.83,4.21-.93,7.24-2,9.95-2.35,5.14-.68,11-2.06,16.18-1.31C642,206.42,641.85,205.09,641.77,203.75Z"/><path class="cls-19" d="M586.13,205.73c0,1.67,0,.74.07,2.42,0,1.28.08,2.55.11,3.83-4.21-.94-7.24-2-9.95-2.38-5.38-.73-11.54-2.24-16.92-1.25-2.58.48-6.27,1.24-8.05,3.58-.47.63-1.33,2.86-2.37,2.44-.42-.17.19-2.25.26-2.47,1.26-4.2,4.85-6,9.28-7.18,9-2.33,13.63-2.18,27.57.72"/><path class="cls-22" d="M513.5,265.77a7.43,7.43,0,0,0-3.08,4.64,6.62,6.62,0,0,0,1.06,4.91,7,7,0,0,0,4.63,2.87,7.37,7.37,0,0,0,3-.28,7.68,7.68,0,0,0,5-4c.36-.75-1.23-.65-1.5-.11a5.73,5.73,0,0,1-3.49,3.1,6,6,0,0,1-1.58.3l-.31,0c-.19,0,0,0-.07,0h-.31a6,6,0,0,1-5-6.3,6.18,6.18,0,0,1,2.58-4.55c.25-.18.43-.5.12-.71a1.12,1.12,0,0,0-1.13.12Z"/><path class="cls-21" d="M516.69,245.38c-2,.07-4.15.78-3.57,3.17.51,2.09,2,3.92,2.14,6.12,0,.75-.29,2.22-1.25,2.26-1.17.06-2.39-1.46-3-2.27A12.22,12.22,0,0,1,508.5,247c.07-2.61.44-6.6,3.16-7.85.67-.31.08-.95-.49-.68-2.69,1.24-3.45,4.55-3.7,7.23a13.2,13.2,0,0,0,1.31,7.37c.87,1.77,3.56,5.88,6.12,4.39,2.23-1.29,1.4-4.18.6-6.06a14.1,14.1,0,0,1-1.36-3.52c-.22-1.53,1.27-1.66,2.47-1.7.63,0,.82-.86.08-.84Z"/><path class="cls-19" d="M629.82,220a4.94,4.94,0,0,1,5.27.79,4.36,4.36,0,0,1,.44,6.47,4.54,4.54,0,0,1-5.13,1,4.84,4.84,0,0,1-2.6-5.6,4.34,4.34,0,0,1,2-2.67"/><path class="cls-19" d="M614.38,227s9-7.21,13.65-7.78c6.82-.84,13.27,2.67,15.78,5.89,0,0-9.22-5.25-14-4.53C625.22,221.24,614.38,227,614.38,227Z"/><path class="cls-19" d="M576.37,221.74a4.92,4.92,0,0,0-5.22,1.06,4.64,4.64,0,0,0-1.36,2.19,4.73,4.73,0,0,0,1.26,4.29,4.56,4.56,0,0,0,5.18.76,4.84,4.84,0,0,0,2.3-5.73,4.37,4.37,0,0,0-2.16-2.57"/><path class="cls-19" d="M588,227.79s-10-6.71-15-7.06c-9-.63-17.29,4.59-19.79,7.94,0,0,12.83-6.95,18-6.48C576.09,222.64,588,227.79,588,227.79Z"/><path class="cls-9" d="M601.91,311.1a90.62,90.62,0,0,1-47.13-15s10.56,21.87,47,20.56Z"/><path class="cls-19" d="M541.81,135c4.71-2.48,10.44-2,15.76-1.35a295.8,295.8,0,0,1,67.06,16.72c.26,5.38-5.12,9.66-10.52,10.6s-11-.48-16.39-1.24-11.52-.69-15.82,2.71-5.93,10-10.32,13.8c-7.53,6.59-20.59,3-28.09,9.61-5.65,5-5.66,13.55-8.37,20.64-5.27,13.8-20,17-34.07,11.85a27,27,0,0,1-3.34-1.49c11.61-24.16,22.27-44.53,33.89-68.69C534.11,143,536.82,137.62,541.81,135Z"/><path class="cls-19" d="M704.88,280.37a8.38,8.38,0,0,1-.93,5.55,7.75,7.75,0,0,1-5.27,3.88,8.14,8.14,0,0,1-7.72-3.35,7.19,7.19,0,0,1-1.21-4.8,15,15,0,0,1,1.69-5.33c1.73-3.47,4.7-7.08,5.07-11.91A17.33,17.33,0,0,0,691.73,251a21,21,0,0,0-6.28-4.52,31,31,0,0,0-7.67-2.28,43.69,43.69,0,0,1-7.47-1.88,10.22,10.22,0,0,1-5.34-4.47,11.92,11.92,0,0,1-1.16-6.69,23.62,23.62,0,0,1,1.58-6.57,50.51,50.51,0,0,0,3.91-12.32,19.17,19.17,0,0,0-2.32-11.1,24.91,24.91,0,0,0-6.25-7,48.7,48.7,0,0,1-5.12-4.72,14.5,14.5,0,0,1-2.83-5.07v.38a5.16,5.16,0,0,0,.28,1.11,11,11,0,0,0,2.21,3.89,43.46,43.46,0,0,0,5,4.94,24.5,24.5,0,0,1,5.91,6.88,18.09,18.09,0,0,1,2.07,10.52,50.52,50.52,0,0,1-4,12,24.3,24.3,0,0,0-1.7,6.86,13.23,13.23,0,0,0,1.27,7.35,11.25,11.25,0,0,0,6,5.08,43.39,43.39,0,0,0,7.69,2,29.93,29.93,0,0,1,7.36,2.16,19.17,19.17,0,0,1,5.91,4.25,16.24,16.24,0,0,1,4.53,12.48c-.29,4.42-3.06,7.89-4.84,11.55a15.57,15.57,0,0,0-1.73,5.71,8,8,0,0,0,1.45,5.36,8.87,8.87,0,0,0,8.48,3.55,8.35,8.35,0,0,0,6.48-8.68A4.72,4.72,0,0,0,704.88,280.37Z"/><path class="cls-19" d="M468.77,239.34v-.58a1.42,1.42,0,0,0-.25-.82c-1.39-7.39-5-16.93-5-25.66,0-12.27,20.74-24.34,20.74-24.34v42.58s-17.42,22.39-15.53,15.14A16.06,16.06,0,0,0,468.77,239.34Z"/><path class="cls-19" d="M443.08,247.69a8.33,8.33,0,0,0,.94,5.55,7.73,7.73,0,0,0,5.26,3.88,8.13,8.13,0,0,0,7.72-3.35,7.19,7.19,0,0,0,1.21-4.8,15,15,0,0,0-1.69-5.33c-1.73-3.47-4.7-7.08-5.07-11.91a17.36,17.36,0,0,1,4.78-13.43,20.84,20.84,0,0,1,6.28-4.52,31.08,31.08,0,0,1,7.67-2.28,43.69,43.69,0,0,0,7.47-1.88,10.22,10.22,0,0,0,5.34-4.47,11.92,11.92,0,0,0,1.16-6.69,23.62,23.62,0,0,0-1.58-6.57,50.06,50.06,0,0,1-3.9-12.32,19.09,19.09,0,0,1,2.31-11.1,24.79,24.79,0,0,1,6.26-7,49.71,49.71,0,0,0,5.12-4.72,14.64,14.64,0,0,0,2.82-5.07v.38a4.64,4.64,0,0,1-.28,1.11,11,11,0,0,1-2.21,3.89,43.46,43.46,0,0,1-5,4.94,24.5,24.5,0,0,0-5.91,6.88,18.09,18.09,0,0,0-2.07,10.52,50.52,50.52,0,0,0,4,12,24.3,24.3,0,0,1,1.7,6.86,13.23,13.23,0,0,1-1.27,7.35,11.25,11.25,0,0,1-6,5.08,43.39,43.39,0,0,1-7.69,2,29.93,29.93,0,0,0-7.36,2.16,19.17,19.17,0,0,0-5.91,4.25,16.2,16.2,0,0,0-4.52,12.48c.28,4.42,3.05,7.89,4.83,11.55a15.57,15.57,0,0,1,1.73,5.71,8.06,8.06,0,0,1-1.44,5.36,8.89,8.89,0,0,1-8.49,3.55,8.35,8.35,0,0,1-6.48-8.68A5.05,5.05,0,0,1,443.08,247.69Z"/><path class="cls-6" d="M877,504.46c2.57,1.13,5.17,2.2,7.78,3.22,20.87,1.57,41.22,7.76,61.75,11.92a62.7,62.7,0,0,0,1-6.79c2.24-31.48-9.86-168-9.86-168s-22.25.24-36.6,12-24.56,67.89-25.57,94.91c-.66,17.67-.89,33.69-3.48,55.61h1A2.9,2.9,0,0,1,877,504.46Z"/><path class="cls-23" d="M1050.35,277.33l-2.81,16.26a95.43,95.43,0,0,0-1.3,20.67l.6,13.37,29.9,11.33s-13.23,92.57-118.38,60.56c-19.32-5.88-17.85-52.59-10.85-54,17.82-3.5,28.53-6.81,28.53-6.81L986.17,333l-3.76-18.48Z"/><path class="cls-6" d="M1056.18,331.16s-3,20.76-15.38,25.73c0,0-4.2,68.28-2.71,87.06s6.36,91.1,6.21,110.42,6.94,81.72,12.63,90,104.25-8.8,116.57-10.43c0,0-27.08-82.63-36.68-98.18s-12.52-23.53-11.67-35.61,5.9-36.76,5.9-55.25c0-16.65-8.76-36.22-8.76-36.22L1121,346.75,1097.42,340Z"/><path class="cls-24" d="M917.79,386.28a122.15,122.15,0,0,1,3.39,13.82,115.55,115.55,0,0,1,1.68,14.11,20.11,20.11,0,0,1,0,5.9c-.5,0-1.17-8.88-3.17-19.72s-4.47-19.59-4-19.59A21.17,21.17,0,0,1,917.79,386.28Z"/><path class="cls-25" d="M1047.61,297.14S1043.14,322,1062.92,325s17.3-22.71,17.3-22.71"/><path class="cls-25" d="M1096.51,296.85s15.58,14.21,29,7.08S1123,276,1123,276"/><path class="cls-26" d="M1104.08,209.65c-9.33-8.82-21.17-10-33-6.15-1.15,3-1.52,8.76-2.65,11.81.93.13,1.84.3,2.75.47-1.22,3.34-.71,10.66-1.88,14,.7.54,2.49,2.38,4.56,4.58-.36,1-.73,2.06-1.1,3.09a14.44,14.44,0,0,0-3.77-3.86c-1.37,3.83,0,11.75-1.5,15.5-3.35,8.13-8.36,17.72-11.37,26-.64,2.48-4.17-5.32-4.94-3.58l-2.85,6.92-2.77,8.37-3.07-.13-2.38,6.9s4.42,2.18,11,5.18c-.1,20.66,17.56,22.56,23.83,18.45a15.33,15.33,0,0,0,5.48-6.36c11,3.86,20.84,6.17,24.07,3.71,6.49-4.95,18.48-23,24-31.59a62.87,62.87,0,0,0,5.69-6.39l.12-.13v0a29.76,29.76,0,0,0,4.33-7.53c2.37-6.5-3.1-16-8.58-23.25,4.39-11.64,4.37-18.49,2.94-23.86-2-7.53-15.91-15.91-18.91-16.24C1112.62,205.38,1108.21,207.47,1104.08,209.65Z"/><path class="cls-23" d="M976.39,283.51s5.63,53.68,5.24,59l.22,4.82,1.26,9.89c22.43,16.67,11.18,7.65,36.64-3.18l23.53-19.21s8.75-.06,6.73-4.06c-8.33-16.51,1.55-57,1.55-57"/><path class="cls-27" d="M1026.73,303.27s-3.53,16.83-32.28,25.35c0,0-8.33,3.11-13.35,1.64l-.5-5.88Z"/><path class="cls-26" d="M933.14,271.91c9.74-8.1,10.73-21.46,8.6-33.13-2-11.18,5.19-29.09-8.59-27.51-.27,0,4.24-10,.23-8.87,2-6.42-3.83-6.63-5.13-13.66-1.23-6.71-.29-13,1.85-13.64,26.24-43,54.89-47.45,79.15-46.78,2.44.06,10.24,3.7,12.48,3.83,2.87.18,9.18-3.75,11.88-3.45,42.31,4.73,58.72,26.34,59,87,.24,51.21-50.38,68.34-98.41,70.37-20.52.87-44.78,3.43-61.47-13.81Z"/><path class="cls-26" d="M1062.52,303.81c4.31,1.84,8.88,3.7,13.37,5.39a17.31,17.31,0,0,1-5.94,1.25C1066.12,310.57,1063.84,307.19,1062.52,303.81Zm61.45-80c-.27.9-2.77,4.45-5.4,8a138.68,138.68,0,0,0-7.19-12.77l-.47-.79c1.72-2.1,4.14-4.73,6.08-5.55C1120.37,211.3,1125.36,219.14,1124,223.82Z"/><path class="cls-23" d="M955.13,170.52a3.48,3.48,0,0,1-.33.55l.35-.25ZM941,174.39v.25a7.1,7.1,0,0,0,.63-.58C941.66,173.77,941,174.39,941,174.39ZM1049.8,281.54l1.56-5c3.4,9.18,15.81,2.66,16.37-10,8.82-11.53,9.61-28.31,4.37-34.82l-.63-.95c-3.69-2.82-10.22-4-12.93.84-.89,2.12-2.27,4.53-3.15,6.65-.87,2.42-2.1,7.26-3.63,9.41,0,0,6-22.9,6.11-28.56s-.7-19.58-11.07-27.17c0,0-12.46-11.38-17.24-17.13l-1.65-.52c-1,0-1.6.36-2.57.41,0-.3.29-.61.27-1.21a10.48,10.48,0,0,1-4.2.48c.31-.31,1-.64.94-.93a16.87,16.87,0,0,1-3.89.16c.31-.31.94-.93.92-1.23-1.59.66-2.58.11-3.88.17a2.25,2.25,0,0,0,.6-1.22c-1.27.65-2.58.41-3.87.46.31-.31.61-.92.92-1.23-1.59.67-2.59.11-3.88.17-.33,0,.62-.62.6-.92a11.78,11.78,0,0,1-3.22.43c0-.29.62-.62.61-.92-1.92.68-2.91.13-4.21.18l.92-1.23a4.58,4.58,0,0,1-3.85.76c.31-.31.93-.93.92-1.23a6.41,6.41,0,0,1-5.16.81c.33,0,.94-.93.92-1.23-1.56,1.26-2.87,1-4.49,1.09.31-.31.61-.92,1.23-1.54-1.89,1.27-4.13,2-6.11,1.15.33,0,.61-.92.6-1.22-1.24,1.25,1.12-.34-.51-.57,0,0-3.67,1.35-3.68,1.05-1.26.94,3.2-5.19,1.58-5.12.3-.61-9.26.95-8.64.32-1.57,1.26-1.26.63-3.22.42,0,0-6.57,3.84-6.26,3.53-1.56,1.55-2.34.34-4.29.12.31-.31,1.22,1.2,1.53.89-1.24,1.24-.88-.26-2.5-.2,0-.29-5.37-1.7-5.38-2-1.58,1-1,1.07-3,1.15,0-.3-1.08,3.32-.77,3-1.24,1.24-1.22.27-2.85,0l-1.56,1.17c-1.56,1.55.63.81-1.32.6,0-.21,7.35.62,7.63.21a11.86,11.86,0,0,1-4.09,2c0-.3.28-.91.27-1.2a6.53,6.53,0,0,1-5.1,2c.32,0,.62-.62.61-.92-1.56,1.55-3.46,2.53-5.44,1.72v-.05a10.11,10.11,0,0,1-4.43,2.32,1.29,1.29,0,0,1,.59-1.22l-1.29.06c-1.52,2.44,5.88.79,5.35,3.79,0,0-4.93,8.95-9.47,26.76-3.72,14.62-.3,37.63.22,42.37.46,4.11-1.56,8.93-1.88,13.23-1.74,23.32,14.63,49.37,33.22,61.51,7.41,4.84,13.53,2.65,20.62,1.38,14.47-2.58,36-12.33,48.24-25.77"/><path class="cls-11" d="M962.15,273.86a8.39,8.39,0,0,0,7.42-.69c.46-.3,2-.08,1.39.34a11.83,11.83,0,0,1-10.11.78c-.27-.13-.23-.33.1-.45a1.89,1.89,0,0,1,1.2,0"/><path class="cls-11" d="M971.86,272.9a13.55,13.55,0,0,1,4.55-1.25,1,1,0,0,1,.71.19c.13.11.17.26,0,.36a5.14,5.14,0,0,1-2.5.64,1,1,0,0,1-.79-.26c-.15-.21.11-.35.32-.35a4.13,4.13,0,0,0,2-.52l.71.55a12.1,12.1,0,0,0-4.07,1.14,1,1,0,0,1-.84-.07c-.17-.09-.36-.31-.11-.43"/><path class="cls-11" d="M978.15,272.89c1.85-.11,4-1,4.87-2.33,1.31-2.08-.09-5.45-2.45-6.67-.26-.14-.13-.33.12-.39a1.55,1.55,0,0,1,1,.17,6.49,6.49,0,0,1,3.22,5.78c-.22,1.79-1.95,3.09-4.15,3.68a10.57,10.57,0,0,1-2,.34c-.28,0-.78-.05-.93-.26s.11-.31.37-.32"/><path class="cls-11" d="M958.73,273.06a.24.24,0,0,0-.25-.33,2.21,2.21,0,0,1-1.45-.41l-.47.6a6.67,6.67,0,0,1,2.93.9.54.54,0,0,0,.59-.1c.12-.1.24-.33.06-.44"/><path class="cls-11" d="M960.14,273.28a7.32,7.32,0,0,0-3.29-1,.58.58,0,0,0-.49.23.24.24,0,0,0,0,.36"/><path class="cls-11" d="M954.89,273.43a3.81,3.81,0,0,1-3.29-2.07,5.14,5.14,0,0,1,1.25-5.79.21.21,0,0,0-.1-.37.7.7,0,0,0-.64.22,5.77,5.77,0,0,0-1.8,4.94,4.17,4.17,0,0,0,2.9,3.45,4.39,4.39,0,0,0,1.34.23c.19,0,.51-.09.59-.31s-.08-.3-.25-.3"/><path class="cls-12" d="M1056.55,253.53a57.37,57.37,0,0,1,7.31-13.35,12.37,12.37,0,0,1,4.28-3.84c.18-.08.22,0,.44-.15,0,0-.11,0,.05,0l-.45-.13a8.39,8.39,0,0,1,1.53,2.95,17.43,17.43,0,0,1,.26,9c-.1.5,1,.34,1.11-.11a16.88,16.88,0,0,0-.83-10.62c-.31-.63-.77-1.94-1.64-1.85a5.32,5.32,0,0,0-2.35,1.11,19,19,0,0,0-4.08,4.35,62.85,62.85,0,0,0-6.67,12.51c-.23.56.87.5,1,.09Z"/><path class="cls-13" d="M929.59,224.9c6.66-4.49,11.38-5.93,24.43-8l.11.28c.66,1.57.29.7,1,2.28.5,1.21,1,2.42,1.49,3.62-4.29.6-7.51.66-10.19,1.27-5.07,1.15-11,1.89-15.66,4.45C930.37,227.52,930,226.21,929.59,224.9Z"/><path class="cls-13" d="M1012.76,224a13.57,13.57,0,0,1,1.46.79,29.64,29.64,0,0,1,4.22,3.46c-.38-.35-.67-2.3-1-2.86a11.64,11.64,0,0,0-2.54-3.05,36.36,36.36,0,0,0-13.14-7c-1.74-.53-16.21-3.56-16.53-2.53l-.09.29c-.55,1.61-.24.71-.79,2.34-.41,1.24-.83,2.47-1.24,3.71,4.32.31,7.54.14,10.25.57,3.71.59,7.46.89,11.12,1.78A45.46,45.46,0,0,1,1012.76,224Z"/><path class="cls-14" d="M1059.46,274.53a6.39,6.39,0,0,1,2.45,8.21,5.83,5.83,0,0,1-3.42,2.87c-.23.08,0,0-.21.06a3.31,3.31,0,0,1-.44,0h-.57a7.35,7.35,0,0,1-.82-.1,6.38,6.38,0,0,1-4.47-3.23c-.3-.53-1.85,0-1.48.66a7.69,7.69,0,0,0,7.73,3.66,7,7,0,0,0,2.49-13c-.51-.32-2,.4-1.26.85Z"/><path class="cls-12" d="M1055.8,253.85c1.07,0,2.63,0,2.88,1.34a6.34,6.34,0,0,1-.67,3.15c-.7,2-1.91,4.69-.23,6.48,1.94,2.07,4.77-1.09,5.71-2.66a13.21,13.21,0,0,0,1.88-8.15c-.3-2.88-1.09-6.86-4.13-8-.25-.1-1.23.3-.9.43,2.63,1,3.44,4.47,3.81,7a13.21,13.21,0,0,1-.89,7.31,9.25,9.25,0,0,1-2.83,4c-.47.33-.78.45-1.27.11a2.71,2.71,0,0,1-1-1.37c-.7-2.15.74-4.53,1.33-6.53a3.09,3.09,0,0,0,0-2.61c-.69-.95-2.22-.89-3.25-.86-.3,0-1.19.48-.47.45Z"/><path class="cls-13" d="M941.75,234.86a4.85,4.85,0,0,0-5.21,1.17,4.6,4.6,0,0,0-1.32,2.26,4.82,4.82,0,0,0,1.33,4.36,4.52,4.52,0,0,0,5.21.69,5,5,0,0,0,2.2-5.89,4.4,4.4,0,0,0-2.21-2.59"/><path class="cls-13" d="M957,241.1s-8.37-6.79-12.51-7.08A15.39,15.39,0,0,0,931,241s7.75-5.94,12-5.51C947.07,235.94,957,241.1,957,241.1Z"/><path class="cls-13" d="M997,232.65a4.86,4.86,0,0,1,5.3.72,4.76,4.76,0,0,1,1.5,2.14,4.83,4.83,0,0,1-1,4.46,4.49,4.49,0,0,1-5.13,1.12,5,5,0,0,1-2.69-5.68,4.41,4.41,0,0,1,2-2.76"/><path class="cls-13" d="M983.46,240.13s9.51-7.52,14.5-8.22c9-1.26,17.61,3.5,20.34,6.75,0,0-13.32-6.22-18.43-5.39C995,234.07,983.46,240.13,983.46,240.13Z"/><path class="cls-26" d="M1005.86,172.75s-29.51,26.65-71.08,23.14l-.13-1s-8.92-16.44-.25-25.56,35.69-14.09,35.69-14.09,46.48-3.2,64.89,9.26,27,39.63,27.3,49.18-10.52,34-10.52,34-.47-20.84-1.91-30S1018.75,197,1005.86,172.75Z"/><path class="cls-26" d="M1008.76,177.59s9.49,22.5,20.2,30.64l10.71,8.14s-15.2-13.42-18.27-26.18S1008.76,177.59,1008.76,177.59Z"/><path class="cls-6" d="M968.82,338.85s1.61,16,13.81,21c0,0-5.79,88.32-7.31,107s-18.14,157-25.21,171.12-56.85-4-56.85-4,9-75.91,25.76-106.72l1.73-23.2s-12-10.27-12-30.05,13-68.86,13-68.86l9.39-59.55Z"/><path class="cls-24" d="M893.74,634.28s9-75.91,25.77-106.72l1.72-23.2s-12-10.27-12-30c0-13.22,7.89-46.12,11.44-62.34,1.76-8-.23-7.28-.23-7.28l-9.26,39.1s-4.54,22.47-3.35,37.84a34.45,34.45,0,0,0,11.62,23.46l-1,21.48s-1,1.78-7.49,15.77-11.63,47.7-13.21,54.4-6.3,38.51-6.3,38.51,3.21,2.28,5.17,1.5l.21-2.17Z"/><path class="cls-28" d="M1056.5,238.09l-.23-3.84-35.12-9.86h0c-14.42-5-34.29-.28-45.64,7.59l-10.21.92.09-.16c-12.25-8.29-32.09-8.84-47-1.33l.46,1.58h0c0,.1.12.33.21.66l.43,1.37c2.6,8.76,5.6,18,8.18,20.37,1.74,1.59,7.27,2.18,11.83,2.36,1.72.08,3.29.09,4.42.11,1.35,0,13.39,0,15.33-2s4.86-16,5.67-20.41l10.48-.89c1.45,3.36,4.71,17.95,9.93,20.73s31.4.58,33.69-3.15c1.62-2.66,6.2-12.23,7.31-17.1l2-6.29ZM958,254.53c-2.13,1.87-26.09,2.2-29.09-.55-2.54-2.32-6.25-14.81-7.65-19.51v-.19c13.35-6,31.23-5.49,41.88,1.51-1.57,7.65-3.92,17.49-5.13,18.7Zm57.9-3.32c-1.43,2.36-24.26,5.28-29.65,2.4-3.75-2-6.3-12.64-8.27-18.72,11.1-7.48,34.33-11.45,47.19-6.17-2,7.67-5.22,16.74-9.27,22.49Z"/><path class="cls-29" d="M957.72,254.3c1.21-1.21,3.56-11.05,5.13-18.71-10.65-7-28.53-7.46-41.88-1.5v.19c1.4,4.7,5.11,17.18,7.65,19.51,3,2.75,27,2.42,29.09.55Z"/><path class="cls-29" d="M1015.88,251.21c4.31-6.28,7.26-14.82,9.27-22.49-12.86-5.28-36.09-1.31-47.19,6.17,2,6.08,4.52,16.74,8.27,18.72,5.39,2.88,28.22,0,29.65-2.4Z"/><path class="cls-9" d="M259.35,210.34s12.81,7.51.49,15.8C259.84,226.14,263.84,217.25,259.35,210.34Z"/><path class="cls-9" d="M274.8,210.34s-12.32,8.29.5,15.8C275.3,226.14,270.75,217.52,274.8,210.34Z"/><path class="cls-2" d="M266.58,378.89l-10,23.2,34,12.93,8.33-29.84s14.19-18,14.72-22.48a22.34,22.34,0,0,0-2.27-10.06c.55-4.69-4.59-12.57-4.59-12.57-.64-8.07-10.4-10.39-10.4-10.39s-2.39-9.87-3.29-14.39-12.75-5.92-12.75-5.92a74.68,74.68,0,0,0-7,4.35c0,3.55,6.51,5.68,6.51,5.68l.47,7.1-4.92,6.5a41.34,41.34,0,0,1-1.17-10.69c-.18-7.78-5.8-12.44-10.34-15.09s-5.89-.12-6.75,2.17,3,16,3,16A87.67,87.67,0,0,1,257.75,346C255.21,355.51,266.58,378.89,266.58,378.89Z"/><path class="cls-9" d="M288.41,310.35c-.38-.15-.75-.31-1.14-.43a38.27,38.27,0,0,0-7.11-1.58l-.23,0-.21.13-3.85,2.24L274,311.86l-1,.64-.28.18-.19.2a1.06,1.06,0,0,0-.21.54l-.05.67a6.47,6.47,0,0,0,2.95,3.72,18.21,18.21,0,0,0,3.55,1.73c.15,2.14.3,4.24.45,6.32l-3.95,5.26a45.06,45.06,0,0,1-.85-6.94,20.91,20.91,0,0,0-1.34-8.1,21.94,21.94,0,0,0-10.69-10.39,4.66,4.66,0,0,0-3.71-.24,4.77,4.77,0,0,0-2.26,2.78,3.71,3.71,0,0,0-.38,1.7,12.36,12.36,0,0,0,.1,1.62c.13,1.07.3,2.05.5,3,.7,3.55,1.53,6.72,2.34,9.6l.47-.06a1.71,1.71,0,0,1,.39,0c-.75-2.89-1.53-6-2.17-9.53-.2-1-.34-2-.45-3a9.43,9.43,0,0,1-.08-1.5,2.45,2.45,0,0,1,.3-1.36,4,4,0,0,1,1.79-2.23,3.71,3.71,0,0,1,2.91.34,21.05,21.05,0,0,1,10,9.87,19.45,19.45,0,0,1,1.19,7.71,43.24,43.24,0,0,0,1.1,8.55l.33,1.22.81-1.06c1.6-2.09,3.21-4.27,4.91-6.51l0-.44c-.16-2.32-.3-4.68-.46-7.12l0-.44-.44,0a17.5,17.5,0,0,1-3.64-1.77,5.08,5.08,0,0,1-2.33-2.82v-.12h0l.86-.59,1.87-1.14,3.78-2.17a37.53,37.53,0,0,1,6.44,1.47l.88.32.36-.61c.06-.1.21-.32.31-.5,0,0,0,0,0-.14Z"/><path class="cls-9" d="M271,337.93a25.21,25.21,0,0,1,5.49-6.76,26.56,26.56,0,0,1-4.23,7.61,25.51,25.51,0,0,1-5.52,6.76A26.52,26.52,0,0,1,271,337.93Z"/><path class="cls-2" d="M167.14,563c-.25,2.73,6.54,2.49,6.54,2.49a4,4,0,0,0-3.53,2.76c-.94,2.76,1.52,4.5,4,5.77s33.9-1.5,33.9-1.5l-9.25,3.78a84.56,84.56,0,0,0-13.16,2.76c-2.49,1.27-2.26,4,0,5.6s17.86-4.08,35.42-3.58,33.12-9.3,33.12-9.3l-9.37-32.63a150.84,150.84,0,0,0-14.73-6.79,113.23,113.23,0,0,0-22.08-7,135.77,135.77,0,0,1-17.83-5.77,8.15,8.15,0,0,0-1.27,8.29c1.77,5.27,18.83,7.76,18.83,7.76l-22.09,1.51s-17.31,5.18-18.58,10,4.41,4.13,4.41,4.13l14.2-4,16.26.64-17,3.43s-13.16,5.38-14.18,5.87A8.66,8.66,0,0,0,167.14,563Z"/><path class="cls-30" d="M218.62,516.32a87.41,87.41,0,0,1,9.63-34.82"/><path class="cls-2" d="M321.84,520.31l-.08,2.09-71.71,19.76-9-4.94,13.15,34.56S349.3,574.14,372.86,550C370.3,517.14,340.8,519.92,321.84,520.31Z"/><path class="cls-2" d="M293.3,405.8s-26.6,133.78-56.46,161c-16.93,15.41-34.57,7.93-49.87-6.12s-74.85-97.17-74.85-97.17l58.95-44,40.42,74.22,51.39-104.43Z"/><path class="cls-31" d="M261.92,538.89l-12.16,2.79-19.65-9.32a113.23,113.23,0,0,0-22.08-7,135.77,135.77,0,0,1-17.83-5.77,8.15,8.15,0,0,0-1.27,8.29c1.77,5.27,18.83,7.76,18.83,7.76l-22.09,1.51s-17.31,5.18-18.58,10,4.41,4.13,4.41,4.13l14.2-4,16.26.64-17,3.43s-13.16,5.38-14.18,5.87a8.66,8.66,0,0,0-3.63,5.8c-.25,2.73,6.54,2.49,6.54,2.49a4,4,0,0,0-3.53,2.76c-.94,2.76,1.52,4.5,4,5.77s33.9-1.5,33.9-1.5l-9.25,3.78a84.56,84.56,0,0,0-13.16,2.76c-2.49,1.27-2.26,4,0,5.6s17.86-4.08,35.42-3.58,33.12-9.3,33.12-9.3"/><path class="cls-32" d="M201.89,560.26a93.86,93.86,0,0,0-12.76,1.07,92.69,92.69,0,0,0-12.44,2.76,22.17,22.17,0,0,0-5,1.84,43.18,43.18,0,0,0,5.15-1.19c3.13-.77,7.53-1.74,12.43-2.49s9.38-1.12,12.64-1.32a37.27,37.27,0,0,0,5.27-.39A23.12,23.12,0,0,0,201.89,560.26Z"/><path class="cls-8" d="M141.37,350.57S117,354.82,101.42,382c-19.11,33.29,12.65,104.52,12.65,104.52s66.32-22.89,87.61-41.77Z"/><path class="cls-9" d="M259.74,333.5s-1.55,9.35-2,12.5.2,11,.2,11h-1.07s-.6-8.1,0-12.3,2-11.9,2-11.9Z"/><path class="cls-32" d="M211.49,493.65a181.88,181.88,0,0,0-8.78,16.76,42.33,42.33,0,0,1,6.63-20.7Z"/><path class="cls-33" d="M190.49,454l5.4-3.19s-25.49-64.4-37-79.44a12.85,12.85,0,0,0-2.52-2.63c-9.74-6.75-30.94-3.39-30.94-3.39s26.12-2.81,34.15,10S193.79,450,193.79,450Z"/><path class="cls-33" d="M332,461.39s-14.37-41.81-14.4-50.49a96.46,96.46,0,0,1,1.25-15.73s-.06,14.55,2.31,22.86,13.32,43.36,13.32,43.36Z"/><path class="cls-34" d="M967.07,283.26c7.63.44,24.24,5.79,27.47,8.77,0,0-9,8.6-26.75,7.59s-20.32-10.27-20.32-10.27S957.34,282.71,967.07,283.26Z"/><path class="cls-35" d="M987.43,287.84s-9.65-.84-17.36-.95-17.36.42-17.36.42-1.16-5.13,12.8-4.92S987.43,287.84,987.43,287.84Z"/><path class="cls-27" d="M968.06,297.49c8.32-1,16.86-7.16,26.53-6.44,0,0-5.33,13.51-23.73,13.51-20.85,0-23.41-14.23-23.41-14.23C957.14,289.91,959.77,296.25,968.06,297.49Z"/><path class="cls-27" d="M957.77,279.39c4.38-.24,7.14,1.37,9,1.4s4.71-1.49,9.08-1.12c4.1.35,21.31,10.06,19.35,11.26s-15.31-5.95-28.49-6.15-18,6.67-19.94,5.42S953.66,279.62,957.77,279.39Z"/><path class="cls-34" d="M271.94,283.7c-7.25.43-23,5.79-26.09,8.77,0,0,8.59,5.2,25.41,4.19s19.29-6.87,19.29-6.87S281.18,283.14,271.94,283.7Z"/><path class="cls-35" d="M252.6,288.28s8.64-.83,15.53-.94,15.54.44,15.54.44,1-5.13-11.46-4.93S252.6,288.28,252.6,288.28Z"/><path class="cls-27" d="M271,294.53c-7.9-1-16-3.76-25.2-3,0,0,2.74,10.42,22.54,10.11s22.23-10.83,22.23-10.83C281.37,290.35,278.87,293.29,271,294.53Z"/><path class="cls-27" d="M280.77,279.83c-4.16-.24-6.78,1.37-8.58,1.4s-4.47-1.5-8.63-1.13c-3.89.35-20.24,10.07-18.37,11.27s14.53-5.95,27.05-6.15,17.11,6.67,18.94,5.41S284.67,280.05,280.77,279.83Z"/><path class="cls-23" d="M1164.36,376.73a90.48,90.48,0,0,0-33.3-24.08v98l63.54,46.18L1154,562.64l14.58,28.72s92.8-60,99.68-82S1202.84,420.74,1164.36,376.73Z"/><path class="cls-23" d="M1131.7,527.54l-26.79,1.65s-4.5,1.84-3.42,5.8c.76,3.3,7.1,5.81,7.1,5.81s-1.46,3.77,3.42,7.13c3.52,2.41,32.82,6.15,32.82,6.15h-19.69s-4,6.72-1.33,10.81,28.24,8.85,28.24,8.85l7.14,22.66c1,3,18.45-12.49,18.45-12.49l-10.49-28.53-7.23-2.69s-18.11-33.36-21.72-36-28.53.19-28.53.19C1101.77,530.46,1131.7,527.54,1131.7,527.54Z"/><path class="cls-32" d="M1158.27,563.78a17.66,17.66,0,0,0-3.84-5.42,12.9,12.9,0,0,0-3.55-1.43c-1.33-.35-2.76-.66-4.25-.95a136.15,136.15,0,0,0-15.34-1.9c-3.93-.22-6.34.16-6.34,0a11.54,11.54,0,0,1,6.34-1,85.12,85.12,0,0,1,15.6,1.45c1.52.29,3,.61,4.4,1a12.64,12.64,0,0,1,4,1.77,17.58,17.58,0,0,1,3.93,6.09,16.89,16.89,0,0,1,1.74,6.34A62.68,62.68,0,0,1,1158.27,563.78Z"/><path class="cls-32" d="M1126.15,538.8c-9.79.63-17.69,2.44-17.69,2a51.1,51.1,0,0,1,17.57-3.55,50.09,50.09,0,0,1,17.88,1.2C1143.88,538.89,1136,538.17,1126.15,538.8Z"/><path class="cls-6" d="M1121.78,449.73l68.41,47.35L1161,545.32l29.2,43.24s79.67-62,81.94-76.24-14.22-42.68-39.26-70-73.4-79.66-86.49-87.63-46.3-12.91-46.3-12.91Z"/><path class="cls-24" d="M1145.72,419.35c.46.11-4,8-8.6,18s-7.34,18.53-7.83,18.37a20.59,20.59,0,0,1,1.42-5.72,118.92,118.92,0,0,1,5-13.29,122.87,122.87,0,0,1,6.62-12.6A21.1,21.1,0,0,1,1145.72,419.35Z"/><path class="cls-18" d="M668.4,520.87a126.61,126.61,0,0,0-3.92,18.47c-.9,8.33-2.47,22.46-2.47,22.46a98.16,98.16,0,0,1,0-20.46,103,103,0,0,1,5.54-22.08Z"/><path class="cls-34" d="M608.16,269c-7.25.44-23,5.8-26.09,8.78,0,0,8.59,5.2,25.41,4.19s19.29-6.88,19.29-6.88S617.4,268.46,608.16,269Z"/><path class="cls-27" d="M607.22,278.14c-7.9-1-16-2.05-25.2-1.34,0,0,2.74,8.73,22.54,8.42s22.23-9.13,22.23-9.13C617.59,275.67,615.09,276.9,607.22,278.14Z"/><path class="cls-27" d="M617,266.85c-4.16-.24-6.78,1.36-8.58,1.39s-4.47-1.49-8.63-1.12c-3.89.35-20.24,8.37-18.37,9.57s14.53-4.26,27.05-4.46,17.11,5,18.94,3.72S620.89,267.07,617,266.85Z"/><path class="cls-23" d="M805.06,439l-11.61-17s-18.59.33-27.69-5.24a79.73,79.73,0,0,1-17-15.22l-21-12.31s-12.28-.24-12.35-3.93,4.61-4.77,9.14-5.8,68.06,5.35,68.06,5.35a106.73,106.73,0,0,0-13-14c-7.36-6.53-5.33-12.73-.5-15.59s15.19,7.72,16.47,13.21,14.51,8.37,20.93,16S822,405.62,822,405.62c2.12,3.33,8.2,11.38,8.2,11.38C830,417.77,805.06,439,805.06,439Z"/><path class="cls-27" d="M741.18,391.34a6.63,6.63,0,0,1,3.7-2.38c3.72-1,8.86,0,13.63,2.46a42,42,0,0,1,10.64,8.13,18.27,18.27,0,0,1,3.53,4.18,22.7,22.7,0,0,1-4.26-3.41,54,54,0,0,0-10.63-7.62c-4.53-2.31-9.39-3.34-12.68-2.73a6.73,6.73,0,0,0-3.47,1.75c-.68.64-.94,1.07-1,1.1S740.59,392.22,741.18,391.34Z"/><path class="cls-27" d="M771,392.76c5.1.72,9.17,1.61,9.08,2s-4.27.13-9.35-.59-9.15-1.6-9.07-2S765.86,392.05,771,392.76Z"/><path class="cls-27" d="M784.9,397.1c-3.83,2.91-5.48,6.35-5.88,6.33s.81-4.16,5-7.41,8.66-3.45,8.61-3.08S788.73,394.19,784.9,397.1Z"/><path class="cls-6" d="M893.19,473.65l-65.11-63.71s-10,24.93-31.51,25.77c0,0,48.93,116.89,99.4,108.78Z"/><path class="cls-24" d="M875.32,456.17a54.59,54.59,0,0,1,7.39,9.95l3.08,5.5s-4-12-10.33-19.26Z"/></svg>