<svg xmlns="http://www.w3.org/2000/svg" xmlns:xlink="http://www.w3.org/1999/xlink" viewBox="0 0 1303.15 1057.31"><defs><style>.cls-1,.cls-26,.cls-36,.cls-54{fill:none;}.cls-2{clip-path:url(#clip-path);}.cls-3{fill:#c7e4e3;}.cls-4{fill:#2d2d2d;}.cls-5{fill:#494a4b;}.cls-6{fill:#606161;}.cls-7{fill:#956243;}.cls-8{fill:#231f20;}.cls-9{fill:#797979;}.cls-10,.cls-17{fill:#f9f2df;}.cls-11{fill:#273339;}.cls-12{fill:#772515;}.cls-13{fill:#383838;}.cls-14{fill:#919191;}.cls-15{fill:#4a1611;}.cls-16,.cls-27,.cls-57{fill:#fff;}.cls-17,.cls-26,.cls-27,.cls-53{stroke:#231f20;}.cls-17,.cls-21,.cls-26,.cls-27,.cls-31,.cls-34,.cls-35,.cls-36,.cls-41,.cls-53,.cls-54,.cls-55{stroke-miterlimit:10;}.cls-17,.cls-41,.cls-53{stroke-width:1.12px;}.cls-18{fill:#ffd215;}.cls-19{fill:#bc93b4;}.cls-20,.cls-21{fill:#896081;}.cls-21{stroke:#896081;stroke-width:0.84px;}.cls-22{fill:#284e66;}.cls-23,.cls-31,.cls-34,.cls-35,.cls-55{fill:#151210;}.cls-24{fill:#010101;}.cls-25{fill:#653c2a;}.cls-26,.cls-27{stroke-width:2.24px;}.cls-28{fill:#653c29;}.cls-29{fill:#31160e;}.cls-30{fill:#f1eef7;}.cls-31,.cls-34,.cls-35,.cls-36,.cls-54,.cls-55{stroke:#161311;}.cls-31{stroke-width:0.35px;}.cls-32{fill:#13110f;}.cls-33{fill:#ce8d2a;}.cls-34{stroke-width:0.35px;}.cls-35{stroke-width:0.37px;}.cls-36{stroke-width:0.85px;}.cls-37{fill:#4d2f15;}.cls-38{fill:#1b120c;}.cls-39{fill:#b7b338;}.cls-40{fill:#2b2927;}.cls-41{fill:#6d6a2c;stroke:#6d6a2c;}.cls-42{fill:#132e38;}.cls-43{fill:#151312;}.cls-44{fill:#946343;}.cls-45{fill:#221f20;}.cls-46{fill:#cc8d2a;}.cls-47{fill:#653c2b;}.cls-48{fill:#311811;}.cls-49{fill:#825639;}.cls-50{fill:#772115;}.cls-51{fill:#a53b23;}.cls-52{fill:#1b3e4f;}.cls-53{fill:#0c1d27;}.cls-54{stroke-width:0.88px;}.cls-55{stroke-width:0.36px;}.cls-56{fill:#040404;}.cls-57{opacity:0.14;}</style><clipPath id="clip-path"><rect class="cls-1" y="5.02" width="1297.75" height="1052.29"/></clipPath></defs><g id="Layer_2" data-name="Layer 2"><g class="cls-2"><rect class="cls-3" x="-156.42" y="-58.98" width="1460.89" height="1095.67"/><polygon class="cls-4" points="1097.06 1130.52 -156.43 1130.52 -155.68 980.43 888.13 980.43 1097.06 1130.52"/><polygon class="cls-5" points="623.19 931.63 623.19 980.43 821.04 1130.52 861.76 1130.52 915.02 1130.52 623.19 931.63"/><polygon class="cls-6" points="1304.45 1130.52 915.02 1130.52 626.26 933.79 1304.88 933.79 1304.45 1130.52"/><path class="cls-7" d="M934.56,474s-8.87,42.33-8.42,68.79l0,11.08h21.42l19.28-84.09Z"/><g id="freepik--Characters--inject-342"><rect class="cls-8" x="-90.48" y="185.3" width="131.26" height="52.82" rx="13.5"/><path class="cls-8" d="M27.27,239.81H-77a15.22,15.22,0,0,1-15.2-15.19V198.84A15.23,15.23,0,0,1-77,183.61H27.27a15.22,15.22,0,0,1,15.19,15.23v25.78A15.19,15.19,0,0,1,27.27,239.81ZM-77,187a11.85,11.85,0,0,0-11.81,11.85v25.78A11.81,11.81,0,0,0-77,236.43H27.27a11.81,11.81,0,0,0,11.81-11.81V198.84A11.85,11.85,0,0,0,27.27,187Z"/><path class="cls-8" d="M426.32,455.84l-45.89-35.43-72-245.6L210,161.68,256.05,342H-282.34l46.12-180.46-97.25,13.13-74.17,249.15-48.52,32Zm-203-281.2L292,180.46l62.63,219.65-75.32-58.44h-4.06Zm-543.69,5.82,71-5.82-56.13,179.41,1.89.65-78.91,52.38Z"/><path class="cls-9" d="M287.18,466.63l-7.89-112.58a51.09,51.09,0,0,0-51-47.37H124.89A51.06,51.06,0,0,0,74,354.05L66.05,466.63Z"/><path class="cls-10" d="M411.3,475.14a1.37,1.37,0,0,1,.18-.55c-1.05-3.77,10.34-15.63,13.59-17.8,10.57-7.07-5.48-17.78-10-23.74-5-6.65-9.17-13.88-14-20.66-3.92-5.53-9-10.61-12.21-16.61-20.46-38.33-29.32-36.25-34.7-39.92-10.48-7-72.85-21.41-72.85-21.41L187.9,335.5S121.32,353,116.56,359.59C105,374,89.49,394.21,82.23,411.23,81.15,413.89,66.49,438.3,65.37,441c-11.74,28.55-.83,48.36,2,52.66l346.14-.07C411.77,487.51,410.62,481.37,411.3,475.14Z"/><polygon class="cls-8" points="287.75 438.27 280.68 429.21 207.49 475.13 154.97 475.13 82.29 433.74 76.23 440.31 112 490.99 246.74 490.99 287.75 438.27"/><path class="cls-8" d="M112.88,489.3h133l39.7-51-5.32-6.77-71.9,45.1a1.63,1.63,0,0,1-.88.27H155a1.39,1.39,0,0,1-.81-.23L82.63,436l-4.16,4.4Z"/><path class="cls-11" d="M95.83,470.15a1.56,1.56,0,0,1-.68,0L68.86,458.51a1.7,1.7,0,1,1,1.38-3.11h0L96.5,467.07a1.65,1.65,0,0,1,.91,2.16l0,.07A1.74,1.74,0,0,1,95.83,470.15Z"/><path class="cls-11" d="M65.64,456.78a1.52,1.52,0,0,1-.67,0l-5.22-2.3a1.7,1.7,0,0,1,1.39-3.11h0l5.21,2.3a1.72,1.72,0,0,1,.85,2.23A1.68,1.68,0,0,1,65.64,456.78Z"/><path class="cls-11" d="M340.2,482a1.79,1.79,0,0,1-1-.3,1.7,1.7,0,0,1-.41-2.34,26.43,26.43,0,0,0,2.95-5.65,1.7,1.7,0,1,1,3.18,1.18,31.39,31.39,0,0,1-3.39,6.37A1.7,1.7,0,0,1,340.2,482Z"/><path class="cls-11" d="M269.65,470.15a1.69,1.69,0,0,1-1.67-1.72,1.67,1.67,0,0,1,1-1.49l26.29-11.68a1.7,1.7,0,1,1,1.35,3.11L270.33,470A1.79,1.79,0,0,1,269.65,470.15Z"/><path class="cls-11" d="M299.8,456.78a1.64,1.64,0,0,1-1.52-1,1.68,1.68,0,0,1,.84-2.23l5.21-2.3a1.68,1.68,0,0,1,2.23.87h0a1.73,1.73,0,0,1-.85,2.23l-5.21,2.3A1.75,1.75,0,0,1,299.8,456.78Z"/><path class="cls-8" d="M408.52,713.31V927H-427V713.31H-584v312.35a44,44,0,0,0,44,44h69.34a44,44,0,0,0,44-44h0v-14.42h76.1L-315,988.57H293.57L339,1014.46h69.63v11.2a44,44,0,0,0,44,44h69.1a44,44,0,0,0,44-44h0V713.31Z"/><path class="cls-8" d="M521.74,1071.2H452.4a45.61,45.61,0,0,1-45.71-45.51v-9.54H339a1.77,1.77,0,0,1-.82-.2l-45-25.68h-608L-350,1012.56a1.75,1.75,0,0,1-.92.28h-74.44v12.72a45.61,45.61,0,0,1-45.54,45.54h-69.3a45.61,45.61,0,0,1-45.55-45.54V713.31a1.7,1.7,0,0,1,1.69-1.7h157a1.7,1.7,0,0,1,1.7,1.7v212h832v-212a1.7,1.7,0,0,1,1.69-1.7H565.73a1.7,1.7,0,0,1,1.69,1.7v312.35a45.61,45.61,0,0,1-45.68,45.54Zm-182.39-58.43h69.17a1.69,1.69,0,0,1,1.69,1.69v11.2a42.23,42.23,0,0,0,42.19,42.16h69.34a42.22,42.22,0,0,0,42.19-42.16V715H410.07V927a1.69,1.69,0,0,1-1.69,1.7H-427a1.7,1.7,0,0,1-1.69-1.7V715H-582.34v310.66a42.18,42.18,0,0,0,42.16,42.16h69.33a42.19,42.19,0,0,0,42.16-42.16v-14.42a1.69,1.69,0,0,1,1.69-1.69h75.73l35.19-22.4a1.58,1.58,0,0,1,.92-.27H293.57a1.63,1.63,0,0,1,.81.21Z"/><path class="cls-12" d="M533.21,559.48c-5.82-11.64-48.29-56-56.81-64.83a16.63,16.63,0,0,1-2.51-3.39c-10.39-19.82-98.5-256.22-114-284.94-28.32-52.86-51.1-44.91-81.38-48.76-.88,0-80.11-6.51-81-6.51L46,146a1128,1128,0,0,0-113.66,0l-186.68,9.34c-51.94,2.64-102-.71-130.51,51-15.83,28.62-103.58,265-114,284.91a16.36,16.36,0,0,1-2.51,3.39c-8.59,8.9-51,53.19-56.81,64.83-6.46,13-32.38,61.52-32.38,71.06,0,8.39,6,146.92,32.65,255.47a92.67,92.67,0,0,0,64.49,67.64,22.66,22.66,0,0,0,4.88,1h201.7a15.29,15.29,0,0,0,13.2-7.62l47.71-82.42a15,15,0,0,1,3.65-4.23,114.58,114.58,0,0,1,70.62-23.93H126.89a114.82,114.82,0,0,1,70.45,23.93,15.47,15.47,0,0,1,3.62,4.23L248.67,947a15.28,15.28,0,0,0,13.2,7.62h201.7a22.45,22.45,0,0,0,4.87-1,92.66,92.66,0,0,0,64.5-67.37c26.63-108.55,32.65-247,32.65-255.47C565.73,621,539.67,572.44,533.21,559.48ZM-456.16,455.84c40.6-79.32,116.57-267.39,116.57-267.39,262.89-26.39,479.35-20.11,585-11.93,43.36,3.35,70.78,10.3,70.78,10.3h0a209.42,209.42,0,0,1,30.06,54.29l80,214.73C175.34,431.58-456.16,455.84-456.16,455.84Z"/><path class="cls-9" d="M-278,954.57l-11.34,25.88H261.19l-8.09-25.88-53.43-92.31s-21-24.3-72.85-25.89-278.52,0-278.52,0a107.78,107.78,0,0,0-72.85,25.89Z"/><path class="cls-13" d="M-231.08,646.92s43.72,77.82,56.68,90.68,27.54,12.93,45.34,14.55,262.31,0,262.31,0,19.42-3.38,29.17-17.8,42.09-87.43,42.09-87.43Z"/><path class="cls-9" d="M-187.7,657.47s35,62.23,45.41,72.62,22,10.35,36.31,11.67,210.06,0,210.06,0,15.53-2.6,23.32-14.28,33.83-70,33.83-70Z"/><path class="cls-13" d="M169.39,927l-9.71-26.73a42,42,0,0,0-40.34-27.71l-263,2.64A42,42,0,0,0-183.27,906l-6.56,21Z"/><polygon class="cls-13" points="-193.86 939.98 -201.91 965.9 183.47 965.9 174.06 939.98 -193.86 939.98"/><path class="cls-8" d="M474.91,493.09S483,430,497.58,430s79.35,17.8,80.94,30.76-12.79,27.37-25.89,30.76S512,498,512,498l-6.5,24.27Z"/><path class="cls-8" d="M505.66,523.92a1.66,1.66,0,0,1-1.15-.44l-30.75-29.17a1.63,1.63,0,0,1-.55-1.42c.85-6.77,8.77-64.63,24.37-64.63,13.84,0,80.8,17.73,82.63,32.25,1.72,13.87-13.54,29.16-27.07,32.62-11.57,2.87-34.14,5.71-39.56,6.36l-6.19,23.18a1.67,1.67,0,0,1-1.15,1.21Z"/><path class="cls-9" d="M291.64,638.83s-29.13,30.76-38.84,87.44c0,0,137.61-6.5,191-27.55s59.93-22.67,61.55-32.38S502,587,481.1,575.66s-43.72-8.09-64.77,8.12-47,40.6-61.55,45.34S291.64,638.83,291.64,638.83Z"/><path class="cls-14" d="M394.68,639.05a38,38,0,1,0,38-38h0a37.92,37.92,0,0,0-38,37.89Z"/><path class="cls-14" d="M326.9,683.27a17.63,17.63,0,1,0,17.63-17.63h0A17.63,17.63,0,0,0,326.9,683.27Z"/><path class="cls-13" d="M465.2,782.94s-150.58,29.14-157.08,33.84-19.42,32.38-19.42,32.38l30.76-8.08S390.72,844.46,415,833,465.2,782.94,465.2,782.94Z"/><path class="cls-15" d="M390.45,484.33a1.56,1.56,0,0,1-.68-3c4.16-2.41,8.39-4.64,12.52-6.77a1.69,1.69,0,0,1,1.46,3c-4.06,2-8.19,4.17-12.29,6.54A2.06,2.06,0,0,1,390.45,484.33Z"/><path class="cls-15" d="M212.19,714.19a2.12,2.12,0,0,1-.71,0,1.67,1.67,0,0,1-.83-2.2l0,0c27.07-59.59,84.59-167.59,164.79-221.8a1.65,1.65,0,0,1,2.31.4l0,0a1.68,1.68,0,0,1-.42,2.35l0,0c-79.58,53.6-136.67,160.93-163.53,220.24A1.72,1.72,0,0,1,212.19,714.19Z"/><path class="cls-15" d="M198,747.79a1.14,1.14,0,0,1-.58,0,1.69,1.69,0,0,1-1-2.17s2.06-5.45,5.88-14.52a1.7,1.7,0,0,1,2.21-.92h0a1.7,1.7,0,0,1,.88,2.2c-3.79,9-5.79,14.38-5.82,14.42A1.78,1.78,0,0,1,198,747.79Z"/><path class="cls-16" d="M452.64,568a338.8,338.8,0,0,0,9.58-53.63"/><path class="cls-15" d="M452.64,569.7a1.46,1.46,0,0,1-.51,0,1.66,1.66,0,0,1-1.13-2.05l0,0a340.21,340.21,0,0,0,9.51-53.29,1.7,1.7,0,1,1,3.38.37,337.31,337.31,0,0,1-9.64,53.9A1.67,1.67,0,0,1,452.64,569.7Z"/><path class="cls-15" d="M288,908.62a1.82,1.82,0,0,1-1.32-.61c-1.48-1.83-36.71-44.67-38.67-64.09-2.07-20.71,25.78-49.61,33.84-51.6s136.29-27.65,141.78-28.77a1.73,1.73,0,0,1,2,1.36,1.65,1.65,0,0,1-1.29,2h0c-1.35.27-134.1,26.83-141.64,28.73-7,1.76-33.09,29.67-31.27,48,1.73,17.16,32.89,56.1,37.39,61.62l210.2-9.48L510.3,747.85a1.73,1.73,0,0,1,1.83-1.55,1.69,1.69,0,0,1,1.56,1.81h0l-11.5,149.4a1.69,1.69,0,0,1-1.59,1.55L288,908.65Z"/><path class="cls-13" d="M-6.13,697.61q-5.17,0-10.15-.41l-156.26-12.52a1.7,1.7,0,0,1-1.56-1.83,1.7,1.7,0,0,1,1.83-1.55l156,12.52a129,129,0,0,0,19.66,0l144-11.2a1.62,1.62,0,0,1,1.82,1.4.76.76,0,0,1,0,.15,1.69,1.69,0,0,1-1.54,1.83h0l-144,11.17Q-1.18,697.61-6.13,697.61Z"/><path class="cls-13" d="M-6.13,713.14q-5.17,0-10.15-.41l-146-11.67a1.77,1.77,0,0,1-1.56-1.83,1.7,1.7,0,0,1,1.82-1.56h0l145.7,11.68a131.65,131.65,0,0,0,19.66,0l139-10.8a1.59,1.59,0,0,1,1.81,1.34,1.64,1.64,0,0,1,0,.22,1.69,1.69,0,0,1-1.56,1.79l-139,10.8Q-1.18,713.14-6.13,713.14Z"/><path class="cls-13" d="M-6.13,728.67q-5.17,0-10.15-.41L-151.63,717.4a1.69,1.69,0,0,1-1.55-1.83,1.68,1.68,0,0,1,1.82-1.55L-16.28,725a129,129,0,0,0,19.66,0l132-10.15a1.58,1.58,0,0,1,1.81,1.33c0,.07,0,.15,0,.22a1.74,1.74,0,0,1-1.56,1.83l-132,10.15Q-1.18,728.68-6.13,728.67Z"/></g><ellipse class="cls-17" cx="233.76" cy="427.57" rx="3.95" ry="2.68"/><path class="cls-16" d="M97.54,402.62a29,29,0,0,0-16-2.51c-9.45,1.06-21.23,3.47-29.37,12.84-3.28,3.77-2,7.64-3.31,11.25-1.89,5.37-5.3,10.2-4.61,13.39,1.14,5.32-.41,7.53-.41,7.53l20.21,0"/><ellipse class="cls-18" cx="60.06" cy="411.23" rx="10.2" ry="4.1" transform="translate(-299.93 203.57) rotate(-51.71)"/><path class="cls-18" d="M55.23,416.64s-4.83,13.8,1.12,16.29,20.44-30.22,20.44-30.22S57,408.5,55.23,416.64Z"/><path class="cls-7" d="M754.33,338.2c-6.59,0-14.19,2.64-22.4,9.17l-43.41,45.57c1.35,3.37-9.27,5.53-9.12,9.15.34,7.85,3.47,10.58.07,17.62-2.36,4.9-9.17,14-5.85,17.73,21.09,11.42,38.68-13.36,48.69-22.23l-.61-.42q7.44-11.84,14-24.22c9.29-17.49,22.75-33.2,30.78-51.3Z"/><path class="cls-7" d="M768.17,507.65S736.63,610.39,735.9,716.16c4.31,73,22.36,186.92,22.36,186.92l23.1,4s10.17-102.25,12.94-193.17c6.88-72.53,18.05-116,18.05-116l.3-104.47Z"/><path class="cls-7" d="M816.54,519s-34.36,101.84-38,207.55c1,30.72,4.16,68.75,7.54,102.5,4.65,46.54,9.66,85,9.66,85l23,4.64s13.63-120.16,20.8-197.31c8.88-72.32,18.71-110.92,18.71-110.92L861.4,506Z"/><g id="freepik--character-2--inject-2"><path class="cls-19" d="M700.45,379.82c1.92,3.07,3.83,6.14,6,9.05a59.28,59.28,0,0,0,7.7,8.45,101.57,101.57,0,0,0,8.89,7.26L778.26,322l-27.07,5.26c-8.19,1.18-21.87,4.83-26.08,10.05l-29.54,35.13C697.29,374.85,698.88,377.33,700.45,379.82Z"/><path class="cls-19" d="M736.58,471.24c.6,4.05-3.5,15-4.57,19-.53,2-1.14,4-1.76,5.95-.37,6.44-4.19,16.4-7.84,26a124.45,124.45,0,0,0,24.64,10,169.75,169.75,0,0,0,33.89,6.32,166.37,166.37,0,0,0,35.06-.62,117.65,117.65,0,0,0,32.41-8.6,86.73,86.73,0,0,0,9.54-4.91C851,494.7,843.53,478,843.53,478l-3.07-7,13.67-137-22.71-8.06-10.09-2.74L814.12,325c-5.22,7.34-12,11.69-21,12.24a58.27,58.27,0,0,1-8.23-.09,24,24,0,0,1-18.49-11.52l-.32.19-6.11.65-27,12.88s-9.94,67.17-9.66,77C723.47,423.2,729.83,425.45,736.58,471.24Z"/></g><path class="cls-20" d="M720.48,402.67l4.63-38.39s-.22,29.33-2.42,40.14c-.44,2.15.08-1.92,0,0"/><path class="cls-20" d="M721.71,402.56l4.06-33.67.57-4.72-2.46.21c-.08,10.55-.37,21.14-1.31,31.65-.15,1.72-.33,3.43-.56,5.14-.09.7-.2,1.39-.31,2.09l-.18,1c0,.18-.22.86-.15.7l1.28-.73h0l1.1.52c0,.3,0-.22,0-.33,0-.35.27-.63-.1-.19l-2.13.2c-.18-.35-.09-.17-.1.11,0,1.22,2.43.83,2.46-.21a1.8,1.8,0,0,0-.12-.95c-.37-.69-1.76-.24-2.13.2a2.64,2.64,0,0,0-.37,1.83c.08.44.75.55,1.1.52,1.54-.16,1.55-1.66,1.76-2.86.24-1.43.42-2.86.58-4.29.39-3.51.64-7,.84-10.57.37-6.56.58-13.13.7-19.7,0-1.44.05-2.88.06-4.32,0-1.22-2.34-.81-2.46.21l-4.06,33.68-.57,4.72c-.15,1.18,2.33.83,2.46-.22Z"/><path class="cls-19" d="M730.19,364.28s-11.56,46.28-10.6,53.53c1,7.75,6.22,14.53,12.26,20.85s6.84,23,7.74,27.4S725,511.61,720.77,525.74s53.62-48.88,53.62-48.88l-22.28-53.08Z"/><path class="cls-21" d="M756.27,442.74s11.4-4.45,22.65-4.55S801,442.74,801,442.74,769.71,438.08,756.27,442.74Z"/><path class="cls-22" d="M722.41,514.25s36.23,17.47,73,13.56,62-15.76,62-15.76,13.29,61.75,12.78,76.46-15.71,173-15.71,173-16.75,15.71-73.73,10-59-8.39-59-8.39S710.61,654,709.28,625.37,715,545.86,715,545.86"/><path class="cls-7" d="M853,482.23l-1.57,7.95a87,87,0,0,0-1.73,22.6l2.32,62h15.79s16.57-70.85,16.57-91.46c0-.29-.52-7.88-.53-8.21Z"/><path class="cls-7" d="M883.83,480c.36-20.24-1.09-90-6.19-112.38-6.4-22.14-18.87-25.79-18.87-25.79l-15.65,70.42,9.41,74Z"/><path class="cls-19" d="M854.13,334s16.07,5.59,22.61,21.59,13.51,47.66,13.51,47.66S847.7,413.4,839.13,413.4c0,0-6.75-31.64-6.75-47.64S854.13,334,854.13,334Z"/><path class="cls-21" d="M848.33,342.62s-10.48,6.44-11.46,22.07,4,44.3,4,44.3l.2,3.58-1.35-3.24s-3.65-20.33-4.57-34,1.83-22.23,6-26.68A30,30,0,0,1,848.33,342.62Z"/><path class="cls-7" d="M269.46,348.44a27.9,27.9,0,0,1-6,7.48c-3,2.46-.26,1.37-4,2.38l-.49,1.29c-3,.67-8.41,63.05-11.46,62.92l-19.14-63.25c-1.43-.18-6.3-1.77-7.67-2.12-11.24-2.87-14.34-4.78-19-15.17,1.06-15.11-1.33-47.41-1.33-47.41L268,303.68s1.48,28.1,2.93,31.82c.08.21,10,4.5,6,5.42C277,343.94,271,345.9,269.46,348.44Z"/><path class="cls-7" d="M250.34,332.14,273,329.29l11.12-3.57c1.15-.08,5.13-12.16,5.79-13.71,2-4.79,4.68-11.07,5.74-16.18,1.14-5.47,4.1-10.39,4.34-16.88.18-4.75-.09-8.05-3.29-15.48a10.86,10.86,0,0,1-.7-6c.63-4.49.55-9.67,1.27-15.69a12.2,12.2,0,0,0,.17-3.25s-2.29-21.94-7.51-30.36-11.11-8.53-17.73-9.63-25.54-4.36-25.54-4.36L221,195.81l-21.47,13.06L189.39,234l4.4,31.5,5.85,28"/><path class="cls-23" d="M202.79,249.11c.35,2.44,1.66,28.68,2.15,31l-12.67.87c-4.56-8-10-17.5-11.65-19.62-2.58-3.3-4.45-20.3-5.15-26.7l-.15-1.38c-.69-6.13,4.32-16.42,13.4-27.51,10-12.21,28.94-20.32,48.25-20.66,1.83,0,3.67,0,5.46.11,16.88,1,30.88,4.49,42.75,17.49,8.56,9.38,10.63,17.72,10.61,24.79a41.26,41.26,0,0,0-9.55-22c-5.43-9-11.6-5.81-15.75-6.05a13.84,13.84,0,0,0-6.73,1.24c-4,1.27-7.92,1.1-12.25.85-3.23-.19-5.81-.52-6.51-.61a22.66,22.66,0,0,0-9.61-2.35c-9.31-.54-22.49,2.26-24.88,6.55-2.65,4.76-14.18,5.87-13.9,9.6"/><path class="cls-7" d="M200.89,294c-6.79,8.16-12.85-6-12.85-6-7.79-8-8.47-17.2-8.68-23.48s6.68-6.69,6.68-6.69c5.9.2,8.74,3.14,15.1,22.49"/><path class="cls-23" d="M180.16,260.59s-10.91-18.28-8.17-39.38,27.26-33.64,38-36.37,45.06-5.26,54.93-1.71,28.08,9.3,30.25,40.81c0,0-1.46-20-22.73-18.56-9.51.64-26.59,3-39.54,3.4-5.36.15-25.58-.51-27.61,2.7-4.65,7.37,5.14,21.85-2,44.62-2.34,7.52-14.71-6.93-18.08-1.84S180.16,260.59,180.16,260.59Z"/><path class="cls-8" d="M196.13,277.18a51.21,51.21,0,0,0-5.23-7.87,16.09,16.09,0,0,0-3.59-3.35,4.85,4.85,0,0,0-1.9-.8,1.46,1.46,0,0,0-.55,0c-.47.12-.62.55-.8.95-1.2,2.65-.87,5.77,0,8.46.09.29,1.07,0,1-.27a12.91,12.91,0,0,1-.55-6.66,6.64,6.64,0,0,1,.86-2.3l-.65.26c.12,0-.06,0,0,0a1.46,1.46,0,0,0,.26,0,4.75,4.75,0,0,1,1.26.56,18.23,18.23,0,0,1,4.85,4.86,57,57,0,0,1,4.06,6.35c.16.29,1.1-.05,1-.26Z"/><path class="cls-8" d="M193.81,278.33c-4.16.14-1,5.74-1.38,7.89,0,0-.12.36-.12.37l0,0c-.09.1,0,.09.26,0,0,0-.12-.14-.1-.07,0-.09-.22-.24-.28-.32a4.72,4.72,0,0,1-.37-.61,18.69,18.69,0,0,1-1.37-3.84,14.76,14.76,0,0,1-.62-4.6c.07-1.87.34-4.62,2.21-5.6.6-.32.06-.85-.44-.59-1.83,1-2.45,3.08-2.68,5a13,13,0,0,0,.09,4.17,28.92,28.92,0,0,0,1.41,4.82,4.39,4.39,0,0,0,1.42,2.23,1.09,1.09,0,0,0,1.5-.59,3.89,3.89,0,0,0,0-2.14c-.22-1.16-1.71-5.31.42-5.38.56,0,.76-.75.09-.73Z"/><path class="cls-23" d="M243.39,257.5a3.73,3.73,0,0,0-3.91,6.21,3.54,3.54,0,0,0,4.09.43,3.9,3.9,0,0,0,1.6-4.66,3.45,3.45,0,0,0-1.78-2"/><path class="cls-23" d="M287,254.9a3.8,3.8,0,0,1,4.16.46,3.58,3.58,0,0,1,1.22,1.64,3.8,3.8,0,0,1-.65,3.51,3.53,3.53,0,0,1-4,1,3.9,3.9,0,0,1-2.22-4.4,3.45,3.45,0,0,1,1.49-2.2"/><path class="cls-23" d="M275.29,261.24s5.45-6.26,9.71-7c6.21-1,7.92.3,10.33,3,0,0-4.3-2.71-8.66-1.89C282.5,256.2,275.29,261.24,275.29,261.24Z"/><path class="cls-23" d="M253.22,261.12s-9.15-4.93-13.46-4.74c-6.29.27-13.51,4.49-15.33,7.63,0,0,9.49-6.13,13.93-6.2C242.6,257.74,253.22,261.12,253.22,261.12Z"/><path class="cls-23" d="M253,245.8l-1.3,4.3c-.34,1.1-1,3.62-1.36,4.71-3.17-2-5.86-4.28-8-5.34-4.19-2.11-8.38-4.58-13.06-5.23a15.68,15.68,0,0,0-6.41.25c-.66.18-2.64,1.23-3.37.59-.29-.26.8-1.86.92-2,2.23-3.21,5.69-3.78,9.63-3.52,8.05.53,15.56,3,22.92,6.26"/><path class="cls-23" d="M297.4,238.56l-2.64-.44c-7.33-1.26-14.56-.53-21.81,1,.11,1.49.22,3,.34,4.48.08,1.15.17,3.21.26,4.34,3.24-1.2,6-2.56,8.11-3.13,4.17-1.13,8.55-2.37,12.89-2,.34,0,2.2.23,2.53.28C298.29,241,298,238.85,297.4,238.56Z"/><path class="cls-23" d="M266.24,291l-.19,1.53a1,1,0,0,1-.91.76c-3.44.46-16.52,2.16-19.68,2.2h-.22l-1-.13c-1.21-.15-1.52-1.41-.44-1.77,3.28-1.11,7.86-2.61,9.71-3,2.3-.48,8.61-.63,11.46-.67C265.69,289.92,266.32,290.44,266.24,291Z"/><path class="cls-23" d="M270.21,290.84l.41,1.47a.93.93,0,0,0,.95.62c3.22,0,13.78,0,16.69-.33a.71.71,0,0,0,.2,0l.93-.26c1.08-.3,1.17-1.56.13-1.78-3.18-.66-5.9-1.57-7.66-1.71-2.19-.18-8,.49-10.62.81A1.06,1.06,0,0,0,270.21,290.84Z"/><path class="cls-23" d="M260.62,310.1l16.95-1.37s-3.63,4.88-7.73,5.16C267.28,314.07,263.53,312.46,260.62,310.1Z"/><path class="cls-24" d="M272.14,286.12a7,7,0,0,1-6.52,0c-.43-.23-1.78.11-1.18.44a9.82,9.82,0,0,0,8.86-.19c.23-.14.18-.33-.13-.4a1.5,1.5,0,0,0-1,.12"/><path class="cls-24" d="M263.61,286.1a11.28,11.28,0,0,0-4.07-.74.87.87,0,0,0-.6.24c-.11.11-.13.26,0,.34a4.26,4.26,0,0,0,2.23.36.82.82,0,0,0,.66-.32c.11-.2-.12-.3-.31-.29a3.37,3.37,0,0,1-1.8-.3l-.56.58a9.92,9.92,0,0,1,3.63.68.86.86,0,0,0,.73-.13c.14-.1.28-.32.06-.42"/><path class="cls-24" d="M258.14,286.66a5.52,5.52,0,0,1-4.45-1.71c-1.33-1.8-.42-4.78,1.52-6.12.21-.15.08-.31-.15-.34a1.27,1.27,0,0,0-.85.24,5.72,5.72,0,0,0-2.27,5.37c.36,1.63,2,2.67,3.95,3a9.14,9.14,0,0,0,1.81.13c.25,0,.68-.12.79-.32s-.12-.28-.35-.27"/><path class="cls-24" d="M259.35,285.07a.21.21,0,0,1,.18-.32,1.9,1.9,0,0,0,1.23-.51l.46.51a5.45,5.45,0,0,0-2.46,1.1.47.47,0,0,1-.53-.05c-.11-.08-.23-.28-.09-.4"/><path class="cls-24" d="M273.83,285.4a6.22,6.22,0,0,1,2.76-1.22.54.54,0,0,1,.45.17.24.24,0,0,1,0,.34"/><path class="cls-24" d="M278.41,285.07a3.34,3.34,0,0,0,2.67-2.2,5,5,0,0,0-1.63-5.23.2.2,0,0,1,.05-.35.61.61,0,0,1,.58.15,5.51,5.51,0,0,1,2,4.39,3.82,3.82,0,0,1-3.34,3.77.59.59,0,0,1-.55-.23c-.09-.19.05-.29.2-.3"/><path class="cls-25" d="M270.22,329.64l.54,4.54s-21.3,4.38-25.36,4.11-14.05-6.43-29.93-28.15c0,0,19,20.79,33.2,22Z"/><path class="cls-26" d="M247.55,422.51c.73,6,.41,14.11-.06,23.15"/><path class="cls-26" d="M131.13,388.9s8.09,41.5,10.3,56.76"/><path class="cls-26" d="M362.8,395.78s-3.42,26.12-5.63,41.38"/><path class="cls-18" d="M216.31,366.1c6.15,6,14.64,11.24,23.08,13.11,8.19,1.81,14.21-2.13,20.72-6.7,3.45-2.42,7.3-5.09,9.89-8.49,0,0-3.66-2.44-4-1.95a29.26,29.26,0,0,1-4.5,4.4c-4.54,3.82-10,8.19-15.61,10.29-9.34,3.51-19-2.5-25.59-8.89-.92-.91-3.41-1.25-3.95-1.77Z"/><path class="cls-10" d="M198.07,322.9l-13.44,12.6s4.94,28.41,30.84,40c0,0,7.43-16.75,12.94-16.26C228.41,359.26,201.2,340.17,198.07,322.9Z"/><path class="cls-10" d="M273.73,329.86s3.89-.94,8.85,5.73c0,0,1.22,28.66-12.38,41.57,0,0-5.68-18.05-11.19-17.57C259,359.59,273.41,348.31,273.73,329.86Z"/><path class="cls-26" d="M184.63,337.38s6,26.44,31.89,38.05c0,0,7.43-16.74,12.94-16.26"/><path class="cls-26" d="M283.63,335.5s1.22,28.67-12.38,41.58c0,0-6.73-18-12.24-17.49"/><path class="cls-8" d="M298.13,448.19c-19.76-48.25-67.68-80.09-122.72-77.39A126.58,126.58,0,0,0,66.2,445.25c6.31.07,19.59-.2,19.59-.2,19.38-36.6,58.15-59.23,102.2-56.66a109.16,109.16,0,0,1,90.81,59.23Z"/><path class="cls-7" d="M106.59,407l-.3.2A50.43,50.43,0,0,0,88,396.33a7.8,7.8,0,0,0-8.23,3.34A11.11,11.11,0,0,0,65.54,410,9.34,9.34,0,0,0,58,419.33a14,14,0,0,0-4.12,6.77c-.45,4.39,2.17,10.35,6.16,12.22,7.23,2.43,12.28,2.26,19.84,3.24,3.86.33,5.16-4.29,5.16-4.29a7.6,7.6,0,0,0,5.47-1.14,8.3,8.3,0,0,0,3.39-5.63c11.5,1.66,9.34-6.58,9.34-6.58s1.73,3.78,7.48,2.66c5.31-1,2.92-9.71,2.53-11A26.07,26.07,0,0,0,106.59,407Z"/><path class="cls-25" d="M65,428.28A44,44,0,0,0,74.84,433a69.53,69.53,0,0,1,6.88,3.19c1.66.95,2.8,1.49,2.92,1.33s-.74-1.05-2.42-2.16a43.13,43.13,0,0,0-6.93-3.55A46,46,0,0,0,65,428.28Z"/><path class="cls-25" d="M70.63,418.8a62.44,62.44,0,0,0,11.19,6.7,46.53,46.53,0,0,0,12,5.05,88.21,88.21,0,0,0-11.4-6.26A63.66,63.66,0,0,0,70.63,418.8Z"/><path class="cls-25" d="M80.63,408.79c-.17.36,5.53,2.92,12.08,6.92a70.88,70.88,0,0,1,8,5.51,16.66,16.66,0,0,1,2.51,3c.08-.09.07-1.81-1.77-3.78a41,41,0,0,0-8-6A40.09,40.09,0,0,0,80.63,408.79Z"/><path class="cls-25" d="M93.12,398.46c-.32.33,5.34,3.28,11.24,8a61.28,61.28,0,0,1,6.91,6.76,17.74,17.74,0,0,1,2,3.38c.11.11.32-1.78-1.23-4a40,40,0,0,0-6.87-7.19A36.52,36.52,0,0,0,93.12,398.46Z"/><path class="cls-27" d="M396.72,434.92c-45.58-2.26-93,13.27-93,13.27"/><path class="cls-28" d="M267.88,296.48c-7,.17-18.27-.42-18.27-.42s2.45,14.47,18.6,14.07,17.9-14.95,17.9-14.95S274.84,296.31,267.88,296.48Z"/><path class="cls-29" d="M268,296.48c-3.32.08-16.68-.18-16.68-.18s4.6,7.59,16.58,7.3c13-.31,16.61-8,16.61-8Z"/><path class="cls-30" d="M268.1,297c-3.31.08-13.4-.27-13.4-.27s3.72,3.74,13.65,3.49,13-4,13-4Z"/><path class="cls-28" d="M286.81,294.09c-.35-.08-2.26.64-3.91.53-2.75-.18-4.48-.9-6.47-1-3.4-.19-5.51,1.27-7,1.31s-3.66-1.32-7-1c-2,.21-6.88,1.09-9.62,1.41-1.64.19-3.58-.44-3.93-.34s.55,3.89,19.08,3.44S287.3,294.2,286.81,294.09Z"/><polygon class="cls-7" points="232.32 237.9 226.27 245.78 224.88 245.26 231.32 237.53 232.32 237.9"/><polygon class="cls-7" points="173.57 243.25 208.23 235.49 208.27 236.71 173.87 244.4 173.57 243.25"/><polygon class="cls-7" points="175.25 249.39 210.52 241.55 210.55 242.77 175.71 250.49 175.25 249.39"/><polygon class="cls-7" points="177.08 254.62 212.38 247 212.41 248.22 177.6 255.72 177.08 254.62"/><polygon class="cls-7" points="179.36 258.77 214.19 251.01 214.23 252.23 179.95 259.89 179.36 258.77"/><polygon class="cls-7" points="182.25 262.26 217.31 255.07 217.35 256.29 182.54 263.4 182.25 262.26"/><polygon class="cls-7" points="185.77 265.88 220.84 258.69 220.88 259.91 187.72 266.74 185.77 265.88"/><polygon class="cls-7" points="193.3 268.66 218.28 263.71 218.31 264.93 193.59 269.8 193.3 268.66"/><polygon class="cls-7" points="197.14 271.83 232.21 265.76 232.24 266.99 197.44 272.98 197.14 271.83"/><polygon class="cls-7" points="198.59 274.89 233.65 268.82 233.69 270.05 198.88 276.04 198.59 274.89"/><polygon class="cls-7" points="199.19 278.07 234.26 272.01 234.29 273.23 199.49 279.22 199.19 278.07"/><path class="cls-7" d="M770,319.29c.49-1.56.06-18.22.06-18.22l24.63,3.79,16.88-.71s2.27,12.1,2.76,13.66,21.13,9.75,21.13,9.75-15,9.77-46.94,9.77-35.07-10.49-35.07-10.49S769.5,320.86,770,319.29Z"/><path class="cls-7" d="M770.65,282.29s-.75,35.83-1.46,39.27l-4.43,10.75h0c10.86-.37,18.25,1.61,36.19-3.35l21.47.7s-5.47-7.18-6.49-10c-6.6-18.32,1.06-40.83,1.06-40.83"/><path class="cls-25" d="M799.88,301.81s-3.44,11.79-22,16.38c0,0-5.38,1.25-8.53.17l.28-4.75Z"/><path class="cls-31" d="M740.17,278.84c6.42-4.87,7.44-13.34,6.42-20.82-1-7.17,4.14-18.34-4.67-17.73-.16,0,3-6.25.41-5.64,1.47-4-4.34-3.47-5.28-7.92-.19-.9-1.7-8.82,4-9.53C760.76,188,788.47,193.26,804,194.92c30.42,3.25,45.2,4.6,39.2,52.77-4,32.34-34,42-64.59,41.89-13.07,0-28.57.89-38.68-10.55Z"/><path class="cls-31" d="M801.23,174.22c-7.28,3.7-10.54,10.54-10.75,18.45,1.58,1.34,4.93,2.79,6.52,4.12.28-.53.57-1,.87-1.55,1.74,1.45,6.24,2.71,8,4.13.47-.3,2-1,3.72-1.76l1.61,1.32a9.13,9.13,0,0,0-3.11,1.44c2,1.64,7,2.49,9,4.22,4.16,3.75,8.83,8.8,13.14,12.37a24.82,24.82,0,0,1,3.3,2.65l-3,2.73,4.43,3.45-.74,1.82,3.63,2.9s2.25-2.18,5.44-5.46c12.37,4.48,17.28-5.7,16.17-10.34a9.84,9.84,0,0,0-2.65-4.64c4.68-5.78,8.16-11.17,7.38-13.63-1.58-4.95-9.8-16-13.79-21.16a41.33,41.33,0,0,0-2.61-4.78l0-.1h0a19,19,0,0,0-3.58-4.21c-3.4-2.81-10.24-1.56-15.78.17-6-5.13-10.14-6.58-13.67-6.87-4.94-.42-12.94,6.13-13.77,7.85C800.5,168.19,800.81,171.28,801.23,174.22Zm47.54,45.06c2-2.19,4.12-4.53,6.09-6.86a11.22,11.22,0,0,1-.52,3.82C853.59,218.56,851.08,219.21,848.77,219.28ZM814,165.33a41.1,41.1,0,0,1,3.66,4.95,88.76,88.76,0,0,0-9.19,1.59l-.57.11a13.36,13.36,0,0,1-2-4.83C805.71,164.81,811.48,163.5,814,165.33Z"/><path class="cls-7" d="M757.08,215a2.64,2.64,0,0,1-.23.35,1.88,1.88,0,0,0,.23-.16ZM748,217.07v.15a4.78,4.78,0,0,0,.42-.34C748.42,216.69,748,217.07,748,217.07Zm66,71.26,1.14-3.13c1.89,5.93,10,2.14,10.69-5.89,5.94-7.08,6.93-17.72,3.79-22l-.38-.62c-2.26-1.9-6.38-2.86-8.24.16-.63,1.32-1.57,2.81-2.2,4.13-.62,1.51-1.54,4.56-2.57,5.88,0,0,4.49-14.38,4.71-18s.12-12.46-6.26-17.59c0,0-7.59-7.59-10.46-11.39l-1-.38c-.62,0-1,.19-1.65.19,0-.19.2-.38.2-.76a6.62,6.62,0,0,1-2.68.18c.21-.19.62-.37.62-.56a11.33,11.33,0,0,1-2.47,0c.21-.19.62-.57.62-.76-1,.38-1.65,0-2.47,0a1.37,1.37,0,0,0,.41-.76,5.47,5.47,0,0,1-2.47.18c.21-.19.41-.56.62-.75-1,.37-1.65,0-2.47,0-.21,0,.41-.38.41-.57a7.58,7.58,0,0,1-2.06.19c0-.19.41-.38.41-.57a6.43,6.43,0,0,1-2.68,0l.62-.75a2.94,2.94,0,0,1-2.47.37c.21-.19.62-.57.62-.76a4.07,4.07,0,0,1-3.3.37c.21,0,.62-.57.62-.76-1,.76-1.85.57-2.89.56.21-.19.42-.56.83-.94a4.21,4.21,0,0,1-3.92.55c.21,0,.42-.56.42-.75-.83.75.72-.19-.31-.38a10.72,10.72,0,0,1-2.37.56c-.83.56,2.18-3.2,1.15-3.21.21-.37-5.91.34-5.5,0-1,.75-.82.36-2.06.17,0,0-4.29,2.25-4.08,2.06-1,1-1.5.15-2.73,0,.21-.19.74.79.95.6-.83.76-.56-.19-1.58-.19,0-.19-3.37-1.24-3.37-1.43-1,.56-.7.65-1.93.64,0-.19-.78,2.08-.58,1.9-.82.75-.78.13-1.81-.06l-1,.7c-1,.94.38.53-.85.34,0-.13,4.65.61,4.84.36a7.62,7.62,0,0,1-2.66,1.16c0-.19.21-.57.21-.76a4.14,4.14,0,0,1-3.3,1.13c.2,0,.41-.38.41-.57-1,.94-2.27,1.51-3.51.94v0a6.44,6.44,0,0,1-2.88,1.35.79.79,0,0,1,.41-.75h-.82c-1,1.51,3.71.68,3.29,2.57,0,0-3.4,5.55-6.8,16.74-2.79,9.18-2.89,23.77-2.69,26.79.17,2.63-1.45,7.7-1.78,10.43-1.78,14.78,9.68,29.88,21.15,38.14,4.58,3.29,8.53,2.07,13.07,1.47,9.28-1.22,23.23-6.8,31.41-15"/><path class="cls-24" d="M758.55,280.91a5.32,5.32,0,0,0,4.74-.22c.3-.18,1.3,0,.88.25a7.5,7.5,0,0,1-6.45.21c-.17-.09-.14-.22.07-.28a1.22,1.22,0,0,1,.76,0"/><path class="cls-24" d="M764.75,280.58a8.57,8.57,0,0,1,2.93-.66.66.66,0,0,1,.45.14c.08.07.1.17,0,.23a3.28,3.28,0,0,1-1.61.33.58.58,0,0,1-.49-.19c-.09-.13.08-.21.21-.21a2.74,2.74,0,0,0,1.3-.27l.43.37a7.89,7.89,0,0,0-2.61.6.64.64,0,0,1-.54-.06c-.1-.06-.22-.21-.06-.28"/><path class="cls-24" d="M768.76,280.75a4.09,4.09,0,0,0,3.16-1.34c.89-1.28.09-3.46-1.37-4.31-.16-.09-.07-.21.09-.24a1,1,0,0,1,.63.14,4.13,4.13,0,0,1,1.88,3.77c-.19,1.13-1.33,1.9-2.74,2.21a5.8,5.8,0,0,1-1.31.16c-.18,0-.5-.05-.59-.19s.08-.19.25-.2"/><path class="cls-24" d="M756.4,280.3c.07-.13,0-.21-.15-.21a1.43,1.43,0,0,1-.91-.31c-.1.13-.21.25-.31.37a4.4,4.4,0,0,1,1.84.66.32.32,0,0,0,.37-.05c.08-.06.16-.2,0-.28"/><path class="cls-24" d="M757.29,280.48a4.73,4.73,0,0,0-2.06-.73.42.42,0,0,0-.32.13.16.16,0,0,0,0,.24"/><path class="cls-24" d="M754,280.43a2.42,2.42,0,0,1-2-1.41,3.26,3.26,0,0,1,1-3.65c.11-.09,0-.2,0-.24a.48.48,0,0,0-.41.12,3.67,3.67,0,0,0-1.29,3.09,2.64,2.64,0,0,0,1.74,2.28,3.08,3.08,0,0,0,.85.19c.12,0,.33-.05.38-.18s0-.2-.15-.2"/><path class="cls-8" d="M819.15,270.68A46.06,46.06,0,0,1,823,264a15.61,15.61,0,0,1,2.82-3.14,5.8,5.8,0,0,1,.88-.58,2,2,0,0,1,.52-.21s.12,0,.06,0c-.32-.07-.15-.06-.08.1s.22.37.32.56a10.37,10.37,0,0,1,.36,7c-.07.26.63.16.69-.08a10.63,10.63,0,0,0-.23-6.8c-.19-.44-.41-1.21-1-1.14a3.74,3.74,0,0,0-1.55.66A12.4,12.4,0,0,0,823,263a40.28,40.28,0,0,0-4.53,7.67c-.15.31.55.23.65,0Z"/><path class="cls-32" d="M739,249.43a3.46,3.46,0,0,1,1.58-4c3.2-1.83,6.44-2.68,13.13-3.84l.07.18,1.42,3.25-.31.55c-2.47.37-4.37.45-6,.85-3.21.79-7,1.32-9.92,3Z"/><path class="cls-32" d="M776.2,241.86c-.37,1-.16.45-.53,1.48-.28.78-.56,1.57-.83,2.35,2.74.25,4.79.18,6.51.48,3.41.61,7.46.88,10.52,2.56,1.47.8,3.56,2,4.17,3.79.16.49.23,2,1,2,.29,0,.33-1.43.34-1.58.08-2.84-1.73-4.69-4.19-6.27-5-3.21-7.84-4-16.88-5"/><path class="cls-33" d="M820.41,284.17a4.06,4.06,0,0,1,1.31,5.28,3.64,3.64,0,0,1-2.28,1.72l-.12,0h-.2a5,5,0,0,1-.94-.11,4,4,0,0,1-2.74-2.13c-.2-.39-1.2-.07-1,.28a4.91,4.91,0,0,0,4.85,2.61,4.78,4.78,0,0,0,3-1.74,4.5,4.5,0,0,0,.94-3.15,4.58,4.58,0,0,0-2-3.32c-.32-.22-1.24.23-.8.54Z"/><path class="cls-8" d="M818.6,270.91c.67,0,1.69.06,1.86.89a3.81,3.81,0,0,1-.47,1.94c-.51,1.24-1.42,3-.37,4.21s3-.55,3.64-1.49a8.33,8.33,0,0,0,1.48-5.18c-.1-1.8-.47-4.4-2.35-5.24-.19-.08-.74.21-.66.24,1.64.73,2.08,2.84,2.25,4.44a8.42,8.42,0,0,1-.71,4.63,6,6,0,0,1-1.92,2.52c-.66.45-1.18-.09-1.41-.76-.45-1.35.51-2.84,1-4.07a2.15,2.15,0,0,0,.14-1.75c-.38-.64-1.35-.67-2-.67-.15,0-.79.28-.45.29Z"/><path class="cls-32" d="M746.26,255.64a3.11,3.11,0,0,0-3.35.6,3,3,0,0,0-.9,1.39,3.1,3.1,0,0,0,.72,2.82A2.85,2.85,0,0,0,746,261a3.16,3.16,0,0,0,1.57-3.68,2.83,2.83,0,0,0-1.33-1.71"/><path class="cls-32" d="M756.21,259.93s-5.83-4.56-8.82-4.86a11.74,11.74,0,0,0-10,4.06s5.8-3.55,8.87-3.15S756.21,259.93,756.21,259.93Z"/><path class="cls-32" d="M780.38,256a3.09,3.09,0,0,1,3.34.62,2.87,2.87,0,0,1,.9,1.4,3.08,3.08,0,0,1-.74,2.81,2.87,2.87,0,0,1-3.29.57,3.19,3.19,0,0,1-1.55-3.7,2.85,2.85,0,0,1,1.34-1.7"/><path class="cls-32" d="M773.07,260.08s6.27-4.5,9.46-4.8c5.76-.54,11.09,2.73,12.74,4.88,0,0-8.29-4.34-11.57-4S773.07,260.08,773.07,260.08Z"/><path class="cls-34" d="M747.52,219.45c-.81,5.2-7.87.78-4-.48-.47-2.52,3.1-3.55,3-6.12.16.23.26.41.26.41s.1-3.09,1.13-3.83,5.68-3.07,5.68-3.07l1.4,1.07c0-.08-.53-1.09.19-1.7s8.59-4.7,13.6-4.37a3.87,3.87,0,0,1,.49,0l2.08,1.09.08,0-.08,0c-.37-.22-1.16-.76-.75-1.2a1.83,1.83,0,0,1,.93-.41,18.86,18.86,0,0,1,3-.29v0h.68a18.29,18.29,0,0,1,3,.31,1.82,1.82,0,0,1,.93.42c.41.44-.39,1-.76,1.19l-.08.05.08,0,2.08-1.08.5,0c5-.3,12.84,3.83,13.57,4.45a1.44,1.44,0,0,1,.18,1.7l1.41-1.05a72.15,72.15,0,0,1,7,3.11,5.26,5.26,0,0,1,1.49,2.52,6.36,6.36,0,0,0,2.49.47c.66-.21,4.06,1.57,5.46,3.6.9,1.3.57,2.52,1,3.66h0c.25.64.39,1.07.39,1.07l3.52,1.18c2.83,1.37,2.1,7.2,2.1,7.2,5.54,6.84,5.79,12.65,3.28,18.9-1,2.41,5.91,4.86,1.5,4.75s-8.2,13.89-8.2,13.89-3.78-5.47-4-8,1.09-10.05,1.09-10.05l-2.15-.31s-1.31-.54-2.88-3.42,1.33-8,1.33-8l.86-3.09-4.21.28c-4.06-.71-4.27-5.11-4.27-5.11l.73-7.33-2.45,2.45a3,3,0,0,1-2.35,1.05c-6.3-.5-7-4.42-7-4.42l-.83-3.7-1.6,1.06c-1.69,1.38-6.87,3.5-9.49,2.36-.69-.3-3.59-2.55-4.06-2.86-1.69-1.24-1.93-3.58-2-4.45.25-.24.48-.54.72-.8.9-1,1.33-.56.43.42-1.56,1.68-4.19,4-6.5,4.14s-7.05-.86-7.64-1.89c-.4-.7.31-.78-.5-.75a2.71,2.71,0,0,0-1.79,1.06c-1.07,1.22-1.8,3-3.3,3.78-2.19,1.11-3.5-.1-5.69-.57A1.05,1.05,0,0,0,747.52,219.45Z"/><path class="cls-35" d="M742.32,215.38s-1.5-4.75,1.25-7.46,13.3-13.63,31.4-13.6Z"/><path class="cls-36" d="M841.58,226.79s13.92,8,20-3.22-9.91-15.23-9.91-15.23"/><path class="cls-36" d="M832,165.36s-7-11.48-16.42-9.53-3.5,17.49-3.5,17.49"/><path class="cls-8" d="M200.38,294c-1,1.16-2.29,2.35-3.93,2.27a5.52,5.52,0,0,1-3.18-1.47,17.8,17.8,0,0,1-3.94-5.17c-.28-.52-.5-1.09-.8-1.59-.77-1.26-2-2.32-2.9-3.53a29.57,29.57,0,0,1-4.84-11,38.31,38.31,0,0,1-1-9.66,5.92,5.92,0,0,1,4.66-5.47,6.17,6.17,0,0,1,3.51,0,7.57,7.57,0,0,1,3.79,2.29,23.75,23.75,0,0,1,4,6.69,138.18,138.18,0,0,1,4.85,13.11c.1.32,1.08,0,1-.26a136.59,136.59,0,0,0-4.84-13.12,24.8,24.8,0,0,0-4-6.67,8.38,8.38,0,0,0-8.07-2.6,7.51,7.51,0,0,0-5.36,3.84,9.85,9.85,0,0,0-.47,4.76,46.6,46.6,0,0,0,.55,5.4,31,31,0,0,0,4.34,11.67,30.23,30.23,0,0,0,2.24,3,20.45,20.45,0,0,1,1.52,1.73c.38.58.62,1.28,1,1.89,1.28,2.27,2.92,4.72,5.29,6,2.82,1.49,5.6.06,7.51-2.16.26-.31-.72-.23-.92,0Z"/><path class="cls-19" d="M736.58,471.24l-18.69,50.52s35.48,11.84,67,11.78S850,526.82,850,526.82l-.44-15Z"/><path class="cls-7" d="M686.65,411.24c-2.36-8.88,3.73-7.46,3.65-16.84,0-.59-2.52-7.56-6.79-14.46l-23.06-42.72-17.36,4.65c.58,1.17,1.36,6.29,1.51,7,.31,1.56,1.06,8.09,1.32,9.66.58,3.47,1.08,7,1.56,10.45.53,3.81,1,7.61,1.58,11.41s1.18,7.89,1.88,11.81,1.48,7.8,2.42,11.65a106.38,106.38,0,0,0,3.23,10.94,65.36,65.36,0,0,0,4.29,9.68,39.33,39.33,0,0,0,5.63,7.85,26.43,26.43,0,0,0,7.22,5.48,24.48,24.48,0,0,0,3.84,1.55,10.75,10.75,0,0,0,4.36.77.78.78,0,0,0,.33-.09c.36-.24.65-1,.85-1.4.31-.57.61-1.14.9-1.72.57-1.14,1.09-2.3,1.55-3.48a50.53,50.53,0,0,0,3.26-21.07A1.63,1.63,0,0,1,686.65,411.24Z"/><path class="cls-7" d="M655.74,341.5c1.88-.36,3.26.79,4.66-.56,1-1,.17-2.27.23-4.31l-.73-8.06s-.23-8.36-1.18-11.05-7.47-12-7.92-12.33-2.48-14.41-5.13-14.73-4.91,1-5.17,4.57,3.46,12,1.59,12.64a12,12,0,0,1-4.54.37s.41-4.1-1.37-6-4.81-.47-4.81-.47l-.54,1.67-1.56-2.54s0-8.46-3.38-9.37a14.3,14.3,0,0,0-2-5.42,3,3,0,0,0-4.23-.58,3.25,3.25,0,0,0-.61.62l1,19.46,11.43,23s6.94,5.21,8.66,6.69c.54.46,1.78,3.47,3.27,7.42a38,38,0,0,0,5.44.25,25.37,25.37,0,0,0,6.35-.92A.81.81,0,0,1,655.74,341.5Z"/><path class="cls-25" d="M648.15,307.23c1.39.07,2.52.25,2.61,0s-1-.84-2.56-.91-2.71.41-2.64.63S646.75,307.17,648.15,307.23Z"/><path class="cls-25" d="M620.74,302.41c.18-2.8.5-6.72.92-11.24l0-.41.4-.07a19.61,19.61,0,0,1,2.53-.41,3.8,3.8,0,0,1,2.68,1.11,6.91,6.91,0,0,1,1.82,4.07,21.27,21.27,0,0,1,.19,4c-.17,2.51-.5,4.72-.77,6.58-.58,3.75-1.07,6-1.22,6a39.66,39.66,0,0,1,.43-6.06c.17-1.83.42-4.09.54-6.54a20.73,20.73,0,0,0-.26-3.77,6,6,0,0,0-1.5-3.42,2.63,2.63,0,0,0-1.9-.82,21.72,21.72,0,0,0-2.31.38l.43-.48c-.47,4.5-.92,8.4-1.29,11.19a21.34,21.34,0,0,1-.79,4.42A21.07,21.07,0,0,1,620.74,302.41Z"/><path class="cls-25" d="M639.7,325a32.47,32.47,0,0,0-3-7.68l0-.1,0-.09a19.06,19.06,0,0,1,.19-3.29c.19-1.18.43-2.25.57-3.45a31.8,31.8,0,0,0,.24-3.65,8,8,0,0,0-.62-3.59,3.38,3.38,0,0,0-2.26-1.91,5.66,5.66,0,0,0-3,.15l.33-.39c-.9,5.41-1.72,10.1-2.34,13.42a9.36,9.36,0,0,0-.16,3.87,7.55,7.55,0,0,1,.17,1.42c-.07.07-.3-.38-.53-1.29a8.77,8.77,0,0,1-.14-4c.45-3.36,1.13-8.08,2-13.53l.08-.29.27-.09a6.44,6.44,0,0,1,3.61-.22,4.38,4.38,0,0,1,2.95,2.47c1.94,5.57-.64,10.47-.44,14.41l-.06-.2a28.62,28.62,0,0,1,2.71,8,11.37,11.37,0,0,1,.15,2.33,5.54,5.54,0,0,1-.14.82C640.13,328.15,640.23,327,639.7,325Z"/><path class="cls-25" d="M659.9,328.57s-2.9,3.56-9.14,3.18C650.76,331.75,658.27,334.43,659.9,328.57Z"/><path class="cls-28" d="M762.4,288.83c6-.07,15.82-.92,15.82-.92s-1.68,12.61-15.69,12.76-16-12.41-16-12.41S756.36,288.9,762.4,288.83Z"/><path class="cls-29" d="M762.34,288.83c2.87,0,14.44-.67,14.44-.67S773,294.88,762.64,295c-11.26.12-14.64-6.42-14.64-6.42Z"/><path class="cls-30" d="M762.22,289.29c2.87,0,11.61-.64,11.61-.64s-3.11,3.34-11.73,3.44S750.72,289,750.72,289Z"/><path class="cls-28" d="M745.92,287.34a21.85,21.85,0,0,0,3.41.33c2.37-.24,3.85-.91,5.57-1.07,2.94-.27,4.82.93,6.1.91s3.13-1.25,6.07-1.05c1.73.12,6,.74,8.38.92a20.22,20.22,0,0,0,3.4-.41c.42.11-.37,3.39-16.43,3.57S745.5,287.45,745.92,287.34Z"/><path class="cls-7" d="M839.36,627.08a97.64,97.64,0,0,1,10.42-9.92L854,604.62l-1.47-6.51-3.21-.27s-1.53,16.64-4.31,19.3-4.15,2.58-4.15,2.58l-2.06-4,4.56-24.41s3.51-10.3,4.64-12.64c1.36-2.24,3.33-3,5-5l.8-13.63,17.35-1.48c-.84,3.33-1.71,12.64-2.89,16.43l1.24,26.87-6.07,10.94-7.54,9.6-17.62,10.14S836,631.23,839.36,627.08Z"/><path class="cls-7" d="M785.68,912.4S740.62,936.23,730.05,936a14.49,14.49,0,0,1-13.45-9.69s23.5-15.44,37.89-19.44c5-1.4-.72-46-.72-46L784,865l-3,40.22Z"/><path class="cls-37" d="M701.05,937s-2.44-4.67,1-6.16,13.92-5.32,15.85-5.14c-1.26.52-2.36,1.6,1.78,2.4a54.61,54.61,0,0,0,23.28-.5c7.64-1.9,24.59-8.32,31.26-12.52,2.23-1.4,7-6.06,11.64-5,2.49,3,5,15.9,1.51,18.37s-25.42,5.56-25.42,5.56l-19.11,5.62-18.33,2.13-7.76.42-7.42-1.91Z"/><path class="cls-38" d="M788.21,927.59a80.5,80.5,0,0,1-16.49,3.25c-17.65,1.63-23.4,4.1-29.24,6.18a79.74,79.74,0,0,1-10.27,3.11c-20.35,4.67-31.22-4.28-31.67-4.53a1.86,1.86,0,0,0-.47.95,47.71,47.71,0,0,0,4.25,2.83c4,2.31,13.06,6.5,28.85,3.18a75.66,75.66,0,0,0,10.08-2.48A81.27,81.27,0,0,1,762,935.54l.21,2.7s18.82-.75,27-4.66C789.42,929.38,788.21,927.59,788.21,927.59Z"/><path class="cls-38" d="M789.16,931.15c-11,3.44-23.24,4.41-27.13,4.71l.19,2.38s18.82-.75,27-4.66A17.36,17.36,0,0,0,789.16,931.15Z"/><path class="cls-7" d="M823.22,921.1s-45.71,22.58-56.26,22-13.33-9.28-13.33-9.28,24.07-15.57,38.56-19.17c5.06-1.26.55-46,.55-46l30.06,5-4.06,40.12Z"/><path class="cls-37" d="M737.94,943.4s-2.32-4.74,1.12-6.13,13.68-4.69,15.6-4.45c0,1.22-2,1.28,2.11,2.19a54.48,54.48,0,0,0,23.29.15c7.68-1.7,24.8-7.65,31.59-11.65,2.26-1.35,7.14-5.87,11.77-4.67,2.4,3,4.59,16,1,18.41s-25.56,4.85-25.56,4.85l-19.27,5.1-18.38,1.62-7.76.21-7.37-2.11Z"/><path class="cls-38" d="M825.32,936.35a80,80,0,0,1-16.57,2.8c-17.69,1.14-23.5,3.45-29.39,5.37A81.18,81.18,0,0,1,769,947.35c-20.47,4.1-31.09-5.15-31.53-5.4a1.79,1.79,0,0,0-.5.93,45.37,45.37,0,0,0,4.17,2.94c3.9,2.42,12.88,6.86,28.75,4A76.14,76.14,0,0,0,780,947.6a81.18,81.18,0,0,1,18.87-4l.14,2.71s18.84-.23,27.09-3.91C826.48,938.18,825.32,936.35,825.32,936.35Z"/><path class="cls-38" d="M826.18,939.93c-11.11,3.14-23.35,3.78-27.25,4l.12,2.38s18.84-.23,27.09-3.91A17,17,0,0,0,826.18,939.93Z"/><polygon class="cls-25" points="783.41 771.82 786.07 829.04 779.13 771.4 783.41 771.82"/><path class="cls-7" d="M945.75,550.06l-19.61-7.26s-.76,7.26-2.74,22a150.11,150.11,0,0,1-4.07,18.27l5.79,23.12,6.87,7,7.62,1.94,9.25.62c.48-5.8-9.62-9.4-9.62-9.4l-.54-13.06,3-2.39a61.85,61.85,0,0,0,1.79,13.75c1.7,5.71,5.76,4.29,5.76,4.29s.1-15.31.17-25.15-5.7-20.36-5.73-21.11Z"/><path class="cls-39" d="M930.84,471.8c6.06.66,6.54,2.43,12.67,2.49,4,0,8,.15,12,.24,3.74-18.7,7.51-36.21,10.29-45.88,8-27.69,1-96.59,1-96.59-2.43,1.08-28,2.39-32.28,22.13s6.65,76.64,1.64,94.38Q933.13,460.11,930.84,471.8Z"/><path class="cls-16" d="M607.43,37.29a35.21,35.21,0,0,0-8.47,1,51.91,51.91,0,0,0-99.31-8.77A34.84,34.84,0,0,0,448.4,58.19a25.71,25.71,0,1,0-17,48.14V107h176a34.83,34.83,0,1,0,0-69.66ZM509.54,83.22h-.2l.1-.12Z"/><path class="cls-16" d="M1114.59,65.59a23.68,23.68,0,0,0,23.68,23.68H1258v-.42a17.48,17.48,0,1,0-11.58-32.73,23.69,23.69,0,0,0-34.84-19.47,35.3,35.3,0,0,0-67.53,6,23.25,23.25,0,0,0-5.76-.71A23.68,23.68,0,0,0,1114.59,65.59Zm90.31,7.47.06.07h-.13Z"/><path class="cls-7" d="M987.75,507.28s-29,104.88-26.18,211.8c6.91,73.64,29.36,188.17,29.36,188.17l23.93,3.28s7-103.68,6.79-195.66c4.63-73.53,14.66-117.87,14.66-117.87l-3.22-105.58Z"/><path class="cls-7" d="M1038,517.14s-32,104.06-32.12,211c2,31,6.61,69.34,11.23,103.34,6.37,46.88,12.83,85.55,12.83,85.55l23.83,3.92s10-121.89,14.75-200.11c6.7-73.38,15.51-112.72,15.51-112.72l-.26-105.63Z"/><path class="cls-7" d="M1019.5,915.76S973.88,941.34,963,941.41a14.88,14.88,0,0,1-14.19-9.35s23.69-16.38,38.38-20.9c5.12-1.58-2.31-46.44-2.31-46.44l31.25,3.17-1.69,40.75Z"/><path class="cls-40" d="M933.15,943.48s-2.68-4.64.77-6.26,14.17-5.84,16.16-5.72c-1.28.56-2.37,1.69,1.92,2.36a57.44,57.44,0,0,0,24-1.27c7.8-2.19,25-9.24,31.77-13.7,2.25-1.49,7-6.36,11.82-5.42,2.67,2.93,5.73,15.9,2.18,18.52s-26,6.46-26,6.46l-19.51,6.32-18.81,2.76-8,.68-7.7-1.68Z"/><path class="cls-38" d="M1022.62,931c-2.37,1-10.13,3-16.88,3.84-18.13,2.24-24,4.92-29.91,7.22a82.64,82.64,0,0,1-10.48,3.48c-20.8,5.4-32.31-3.29-32.78-3.52a1.83,1.83,0,0,0-.45,1,46.22,46.22,0,0,0,4.47,2.72c4.17,2.2,13.68,6.13,29.83,2.25a81.11,81.11,0,0,0,10.31-2.83,84,84,0,0,1,19.16-5.22l.31,2.73s19.37-1.39,27.63-5.61C1023.92,932.8,1022.62,931,1022.62,931Z"/><path class="cls-38" d="M1023.72,934.59c-11.23,3.85-23.79,5.23-27.79,5.67l.27,2.4s19.37-1.39,27.63-5.61A18.2,18.2,0,0,0,1023.72,934.59Z"/><path class="cls-7" d="M1058.46,923.3s-46.32,24.34-57.21,24.12-14-8.93-14-8.93,24.27-16.54,39.08-20.66c5.17-1.44-1-46.49-1-46.49l31.15,4-2.83,40.69Z"/><path class="cls-40" d="M971.37,948.68s-2.55-4.71.94-6.24,13.93-5.19,15.92-5c.09,1.24-2,1.37,2.25,2.15a57.29,57.29,0,0,0,24-.62c7.86-2,25.3-8.55,32.15-12.83,2.29-1.43,7.17-6.17,12-5.1,2.58,3,5.28,16.05,1.66,18.57s-26.17,5.75-26.17,5.75l-19.67,5.79-18.88,2.25-8,.47L979.87,952Z"/><path class="cls-38" d="M1061.15,938.65a84.39,84.39,0,0,1-17,3.38c-18.18,1.74-24.09,4.27-30.1,6.4a82.48,82.48,0,0,1-10.57,3.2c-21,4.83-32.21-4.16-32.67-4.41a1.83,1.83,0,0,0-.48,1,49.83,49.83,0,0,0,4.39,2.84c4.1,2.31,13.5,6.5,29.76,3.06a80.13,80.13,0,0,0,10.38-2.56,84.52,84.52,0,0,1,19.31-4.69l.23,2.73s19.39-.86,27.78-4.86C1062.41,940.46,1061.15,938.65,1061.15,938.65Z"/><path class="cls-38" d="M1062.15,942.24c-11.33,3.54-23.93,4.59-27.94,4.92l.21,2.4s19.39-.86,27.78-4.86A17.54,17.54,0,0,0,1062.15,942.24Z"/><g id="freepik--character-2--inject-2-2" data-name="freepik--character-2--inject-2"><path class="cls-39" d="M952.79,456.89c.62,4.1-.5,28-1.6,32-.55,2-1.18,4-1.82,6-.38,6.51-4.31,16.59-8.08,26.25a129.78,129.78,0,0,0,25.4,10.16,178.31,178.31,0,0,0,34.93,6.39,174.63,174.63,0,0,0,36.14-.63,123.38,123.38,0,0,0,33.41-8.7c3.38-1.45,13.2-3.11,16.36-5-7.19-30-14.85-46.92-14.85-46.93l-3.16-7.06,7.55-138.51-23.42-8.15-10.4-2.77-7.43,1.82c-5.38,7.43-12.37,11.83-21.64,12.39a62,62,0,0,1-8.49-.09,24.82,24.82,0,0,1-19.05-11.66l-.34.19-6.29.67-27.86,13s-17.88,67.92-17.59,77.87C934.76,421.12,945.83,410.59,952.79,456.89Z"/></g><path class="cls-39" d="M947.91,352.78S931.43,405.7,932.41,413c1.05,7.83,3.67,17.32,9.89,23.71s7.06,23.25,8,27.71S946,491.73,941.69,506s44.46-30.64,44.46-30.64l-23-53.68Z"/><path class="cls-41" d="M944.85,361.41c-1,12.65-3.49,18.48-7.81,30.68a73.73,73.73,0,0,0-3.54,13.64c-1.8,10,2,23.56,8.6,31.6,5.6,6.85,6.9,22.11,7.82,26.58,0,0,.72,3.55-.58,10.62S951,456,943.27,440.87c0,0-7.34-11-8-12.66-2-5.24-4.64-13.07-2.79-23.37s6.43-21.74,8.21-26.7S944.85,361.41,944.85,361.41Z"/><path class="cls-41" d="M976.2,440.87s11.74-4.49,23.34-4.6,22.79,4.6,22.79,4.6S990.05,436.17,976.2,440.87Z"/><path class="cls-42" d="M940.83,515.48s37.91,16.45,75.64,11.27,72-18.27,72-18.27,27.28,14,4.77,127.19c-9.28,46.66-16.81,221.93-16.81,221.93s-4.74,16-63.63,12.17-52.3-6.8-52.3-6.8-27.12-205.91-29.47-234.76,3.23-80.55,3.23-80.55"/><path class="cls-7" d="M1075.92,480.81l-1.61,8a86.48,86.48,0,0,0-1.79,22.86l2.4,62.67h16.27s17.09-71.65,17.09-92.49c0-.29-.54-8-.56-8.3Z"/><path class="cls-39" d="M1077.07,330.91s16.55,5.65,23.3,21.83,10.52,136,10.52,136-29-3-37.85-3c0,0-18.4-106.54-18.4-122.72S1077.07,330.91,1077.07,330.91Z"/><path class="cls-41" d="M1067.81,340.71s-12,7.59-11.55,30.65c.29,15.83,13.36,91.12,13.36,91.12l2.77,22.28-3.69-22.06s-13.11-67.07-14.06-80.85,1.87-29,5.69-33.92C1065.6,341.18,1067.81,340.71,1067.81,340.71Z"/><path class="cls-39" d="M952.79,465.29l-18.23,62.62s37.67,10.07,70.18,10,68.3-5.62,68.3-5.62l-.65-21.53Z"/><path class="cls-7" d="M1061.84,627.28a98.93,98.93,0,0,1,10.74-10l4.39-12.68-1.52-6.59-3.31-.27s-1.57,16.82-4.44,19.52-4.27,2.61-4.27,2.61l-2.13-4,4.7-24.69s3.62-10.42,4.78-12.78c1.4-2.27,3.44-3,5.18-5.06l.83-13.78,17.88-1.5c-.87,3.37-1.76,12.79-3,16.62l1.27,27.16-6.25,11.07-7.78,9.7-18.15,10.26S1058.33,631.48,1061.84,627.28Z"/><path class="cls-7" d="M989.59,316.41c.53-1.65.06-19.19.06-19.19l26.46,4,18.12-.75s2.44,12.75,3,14.39,18.65,8.68,18.65,8.68-12,11.89-46.38,11.89-37.66-11.05-37.66-11.05S989.06,318.06,989.59,316.41Z"/><path class="cls-43" d="M1085.72,272.09c-2.73-1.38-5.5-3.21-6.93-6a14.56,14.56,0,0,1-1.38-6.33,3.79,3.79,0,0,1-.6-.88c-2.4-4.88.86-11.52-2.55-15.81-3.12-3.89-10.35-2.61-13.32-6.62-2.31-3.13-.71-6.44-1.87-9.33s-5.87-4.87-8.91-4.07l-18.94,38c-.48,11.88-1.86,18.3,1.76,24.76,2.21,3.35-2.39,6.93-1,10.67,1.14,3.84.8,8.42-2.11,11.22,14.66-1,34.44-7.89,45.87-16.94l3.22-2.57c-5.66-2-10.91-11-10.91-11,3,3.37,8.5,8.06,12.51,9.61a14.87,14.87,0,0,0,1.91-1.07c2.53-.88,8.65-7,12.4-10.88A26.88,26.88,0,0,1,1085.72,272.09Z"/><path class="cls-43" d="M969.85,207.81a26.62,26.62,0,0,0-7.41,4.68,25.55,25.55,0,0,0-2,1.94,30.55,30.55,0,0,0-8.39,28.8c1.21,4.89,3.6,10.35.73,14.62s-9.62,5.06-12.3,9.37c-3.15,5.08,1.21,11.37.74,17.23-.66,5.66-5.66,10.05-11.81,10.35A51.88,51.88,0,0,0,955,301.09l5.39-8.91a7.91,7.91,0,0,0,2.16,10,20.31,20.31,0,0,0,10.92,4.12c9,.57,28.33-4.92,52.43-15.57L977.84,205.2"/><path class="cls-43" d="M1070.93,230.27c-1.77-3.31-4.35-6.26-5.74-9.72-3-7.44-.4-16.67-5.53-23-3.65-4.53-10.12-6.09-16.14-6.95s-12.42-1.37-17.34-4.7c-3.62-2.44-6-6.15-9.65-8.6-5.13-3.52-11.95-4-18.28-3.46a40.11,40.11,0,0,0-18.46,5.49,19.22,19.22,0,0,0-9.46,15.19c0,3,.84,5.94.31,8.85-.59,3.22-2.79,6-3.93,9.06a15.09,15.09,0,0,0,7.12,17.9l52.86,47c9.83,2,31.71-5.12,37.89-12.53S1075.37,238.63,1070.93,230.27Z"/><path class="cls-44" d="M990.21,278.13s1.38,34.81.87,38.19l2.18,4.66-4.4,3.85c14.53,11.73,18.1,11.93,35.95,6.09L1045.4,320s-6-5.5-7.16-8.17c-4.92-11,3.67-36.63,3.67-36.63"/><path class="cls-44" d="M1057.33,249l-.38-.64c-2.29-2-6.53-3-8.52,0-.68,1.33-1.69,2.81-2.37,4.14-.68,1.52-1.7,4.58-2.8,5.9,0,0-7.06-15.62-6.75-19.26s12.46-11.5,6-16.84c0,0-6.75-6.93-10-11q-1.08-.6-2.19-1.14a6.92,6.92,0,0,1-1.16.11,5.55,5.55,0,0,1,.21-.55l-.27-.13a8,8,0,0,1-2.48,0c.22-.18.65-.36.66-.56a11.53,11.53,0,0,1-2.56-.06c.22-.19.66-.56.66-.75-1.07.35-1.7,0-2.56-.07a1.34,1.34,0,0,0,.45-.75,5.7,5.7,0,0,1-2.56.12c.22-.18.44-.56.66-.75-1.08.36-1.7,0-2.56-.06-.2,0,.35-.33.43-.53l-.09,0a8.21,8.21,0,0,1-2,.12c0-.17.32-.33.41-.49l-.14,0a7.63,7.63,0,0,1-2.6-.11l.31-.35-.38-.07a3.25,3.25,0,0,1-1.83,0l.27-.24-.73-.1a3.9,3.9,0,0,1-2.3-.11.46.46,0,0,0,.27-.16l-.82-.09a8.92,8.92,0,0,1-1.79,0,1.17,1.17,0,0,0,.15-.16l-1.09-.08a3.63,3.63,0,0,1-2-.13c-1.31-.06-2.63-.1-3.94-.11-9.81-.06-20.63.56-28.19,7.44a91.9,91.9,0,0,0-6.38,15c-3.1,9.25-3.54,24-3.41,27.1.12,2.67-1.68,7.78-2.09,10.53-2.18,14.94,9.31,30.52,21,39.16,4.65,3.44,8.76,2.29,13.47,1.79,9.62-1,24.17-6.36,32.82-14.47l12.33-10.52,1.24-3.14c1.83,6.06,10.26,2.4,11.2-5.73C1059.2,264.22,1060.47,253.45,1057.33,249Z"/><path class="cls-24" d="M983.28,271.34a5.63,5.63,0,0,0,4.9-.12c.31-.17,1.34,0,.9.28a8,8,0,0,1-6.68.06c-.17-.1-.13-.22.09-.29a1.31,1.31,0,0,1,.79.07"/><path class="cls-24" d="M989.69,271.14a9.18,9.18,0,0,1,3-.6.67.67,0,0,1,.46.15c.08.08.1.18,0,.24a3.48,3.48,0,0,1-1.67.3.66.66,0,0,1-.5-.21c-.09-.13.09-.21.22-.21a2.67,2.67,0,0,0,1.35-.24l.44.39a7.85,7.85,0,0,0-2.72.55.67.67,0,0,1-.55-.08c-.1-.07-.22-.22,0-.29"/><path class="cls-24" d="M993.82,271.41a4.26,4.26,0,0,0,3.3-1.28c1-1.28.18-3.51-1.31-4.41-.16-.09-.07-.21.1-.24a1.1,1.1,0,0,1,.65.15,4.14,4.14,0,0,1,1.85,3.87c-.22,1.14-1.42,1.9-2.89,2.18a6.06,6.06,0,0,1-1.35.13c-.19,0-.52-.06-.61-.2s.09-.2.26-.2"/><path class="cls-24" d="M981.06,270.67a.15.15,0,0,0-.14-.22,1.46,1.46,0,0,1-.94-.33l-.33.36a4.43,4.43,0,0,1,1.88.72.37.37,0,0,0,.4-.05c.08-.06.17-.2.05-.28"/><path class="cls-24" d="M982,270.87a5,5,0,0,0-2.11-.79.42.42,0,0,0-.33.13.16.16,0,0,0,0,.24"/><path class="cls-24" d="M978.53,270.74a2.51,2.51,0,0,1-2.07-1.47,3.28,3.28,0,0,1,1.08-3.68.13.13,0,0,0,0-.24.47.47,0,0,0-.42.11,3.71,3.71,0,0,0-1.41,3.1,2.67,2.67,0,0,0,1.75,2.35,3,3,0,0,0,.87.21c.12,0,.34,0,.4-.17s0-.2-.15-.21"/><path class="cls-45" d="M1046.14,262.37a45.19,45.19,0,0,1,4.12-6.76,14.8,14.8,0,0,1,3-3.09,4.31,4.31,0,0,1,1.47-.76c-.14,0,.08,0,.08,0s.08.06,0,0c-.36-.22-.13,0-.09.09s.22.36.31.55a10.23,10.23,0,0,1,.21,7.09c-.08.29.64.2.72-.07a10.69,10.69,0,0,0-.08-6.89c-.18-.45-.41-1.27-1-1.21a4.05,4.05,0,0,0-1.6.64,12.74,12.74,0,0,0-2.9,2.68,41.09,41.09,0,0,0-4.87,7.69c-.17.33.55.28.67.05Z"/><path class="cls-43" d="M963,237.89c4.36-3,7.45-4,16-5.44l.07.18.63,1.46,1,2.33c-2.8.44-4.92.51-6.67.94-3.32.81-7.24,1.36-10.26,3.07C963.55,239.57,963.31,238.73,963,237.89Z"/><path class="cls-43" d="M1001.06,232.44l-.52,1.51-.81,2.39c2.83.23,4.95.15,6.73.45,3.53.58,7.71.84,10.9,2.52,1.53.8,3.71,2,4.37,3.82.18.49.28,2.06,1,2,.3,0,.32-1.46.32-1.6,0-2.89-1.87-4.76-4.44-6.34-5.24-3.23-8.16-4-17.51-4.93"/><path class="cls-46" d="M1047.14,276.07a4.09,4.09,0,0,1,1.18,5.45,3.59,3.59,0,0,1-2.41,1.63h-.1c.09,0,.08,0,0,0h-.19a5.07,5.07,0,0,1-.95-.14,4.21,4.21,0,0,1-2.78-2.22c-.19-.4-1.22-.09-1,.28a4.74,4.74,0,0,0,2.82,2.46,5.1,5.1,0,0,0,2.12.29A4.74,4.74,0,0,0,1050,279a4.64,4.64,0,0,0-2-3.47c-.32-.23-1.26.23-.81.55Z"/><path class="cls-45" d="M1045.68,262.71c.64,0,1.73.05,1.8.89a4.5,4.5,0,0,1-.61,1.95c-.58,1.29-1.46,3.06-.34,4.31,1.28,1.42,3.19-.63,3.88-1.68a8.64,8.64,0,0,0,1.49-5.21c-.09-1.92-.48-4.47-2.44-5.37-.32-.15-.83.31-.41.5,1.66.77,2,3.1,2.11,4.72a8.21,8.21,0,0,1-1.07,4.66c-.53.95-2.73,3.69-3.32,1.29-.34-1.38.74-2.84,1.19-4.09a2,2,0,0,0,.07-1.74c-.42-.68-1.4-.75-2.11-.78-.36,0-.72.53-.24.55Z"/><path class="cls-43" d="M971.16,245.44a3.23,3.23,0,0,0-3.47.52,2.88,2.88,0,0,0-.29,4.27,3,3,0,0,0,3.39.67,3.21,3.21,0,0,0,1.71-3.7,2.86,2.86,0,0,0-1.34-1.76"/><path class="cls-43" d="M981.35,250s-5.92-4.75-9-5.13a12.28,12.28,0,0,0-10.41,3.89s6.08-3.46,9.24-3S981.35,250,981.35,250Z"/><path class="cls-43" d="M1006.42,246.57a3.24,3.24,0,0,1,3.44.7,3,3,0,0,1,.89,1.44,3.07,3.07,0,0,1-.83,2.83,3,3,0,0,1-3.41.5,3.2,3.2,0,0,1-1.52-3.78,2.9,2.9,0,0,1,1.43-1.69"/><path class="cls-43" d="M998.77,250.56s6.58-4.43,9.88-4.66c6-.41,11.41,3,13.06,5.24,0,0-8.47-4.59-11.86-4.28S998.77,250.56,998.77,250.56Z"/><path class="cls-47" d="M987.34,280c6.19.14,16.24-.22,16.24-.22s-2.12,10.15-16.48,9.81-16-10.59-16-10.59S981.14,279.87,987.34,280Z"/><path class="cls-48" d="M987.33,280c3.24.08,16.3.06,16.3.06s-4.52,3.51-16.23,3.23c-12.71-.3-16.24-3.95-16.24-3.95Z"/><path class="cls-47" d="M970.49,278.08a24.32,24.32,0,0,0,3.48.46c2.44-.16,4-.79,5.76-.89,3-.16,4.9,1.11,6.21,1.14s3.26-1.15,6.27-.84c1.76.18,6.12.95,8.55,1.22a22.18,22.18,0,0,0,3.5-.29c.43.12-.49,3.4-17,3S970.05,278.17,970.49,278.08Z"/><path class="cls-25" d="M989.57,305.5a59.83,59.83,0,0,0,31.09-9.9s-7,14.42-31,13.56Z"/><path class="cls-43" d="M1029.21,189.34c-3.11-1.64-6.89-1.34-10.39-.89a195,195,0,0,0-44.23,11c-.17,3.55,3.37,6.37,6.94,7s7.22-.32,10.81-.82,7.59-.45,10.43,1.79,3.91,6.59,6.81,9.1c5,4.34,13.58,2,18.52,6.34,3.73,3.3,3.73,8.93,5.52,13.61,3.48,9.1,13.19,11.22,22.47,7.81a17.33,17.33,0,0,0,2.2-1c-7.65-15.93-14.68-29.37-22.35-45.3C1034.29,194.64,1032.5,191.09,1029.21,189.34Z"/><path class="cls-43" d="M921.67,285.23a5.48,5.48,0,0,0,.61,3.66,5.07,5.07,0,0,0,3.47,2.56,5.33,5.33,0,0,0,5.09-2.21,4.76,4.76,0,0,0,.81-3.17,9.89,9.89,0,0,0-1.12-3.51c-1.14-2.29-3.1-4.67-3.34-7.85a11.4,11.4,0,0,1,3.15-8.86,13.76,13.76,0,0,1,4.14-3,20.2,20.2,0,0,1,5.06-1.5,28.85,28.85,0,0,0,4.92-1.25,6.73,6.73,0,0,0,3.53-2.94,7.91,7.91,0,0,0,.76-4.41,15.81,15.81,0,0,0-1-4.34,33.19,33.19,0,0,1-2.58-8.13,12.64,12.64,0,0,1,1.53-7.32,16.56,16.56,0,0,1,4.12-4.59,32.11,32.11,0,0,0,3.38-3.11,9.63,9.63,0,0,0,1.87-3.35v.26a3.74,3.74,0,0,1-.19.73,7.19,7.19,0,0,1-1.46,2.56,28.41,28.41,0,0,1-3.32,3.26,16.13,16.13,0,0,0-3.89,4.54,12,12,0,0,0-1.37,6.93,32.81,32.81,0,0,0,2.62,7.93,16,16,0,0,1,1.11,4.52,8.66,8.66,0,0,1-.83,4.85,7.51,7.51,0,0,1-4,3.35,29.47,29.47,0,0,1-5.07,1.3,19.32,19.32,0,0,0-4.85,1.42,12.63,12.63,0,0,0-3.9,2.8,10.74,10.74,0,0,0-3,8.24c.19,2.91,2,5.2,3.19,7.61a10.19,10.19,0,0,1,1.14,3.77,5.24,5.24,0,0,1-1,3.53,5.84,5.84,0,0,1-5.6,2.34,5.5,5.5,0,0,1-4.27-5.72A3.19,3.19,0,0,1,921.67,285.23Z"/><path class="cls-43" d="M1077.38,258.18v-.39a1,1,0,0,1,.16-.54c.92-4.88,3.29-11.16,3.29-16.92,0-8.1-13.68-16.05-13.68-16.05v28.07s11.49,14.77,10.24,10A10.7,10.7,0,0,1,1077.38,258.18Z"/><path class="cls-43" d="M1094.32,263.68a5.5,5.5,0,0,1-.62,3.66,5.1,5.1,0,0,1-3.47,2.56,5.37,5.37,0,0,1-5.09-2.21,4.75,4.75,0,0,1-.8-3.17,9.89,9.89,0,0,1,1.12-3.51c1.14-2.29,3.1-4.67,3.34-7.85a11.43,11.43,0,0,0-3.15-8.86,13.8,13.8,0,0,0-4.15-3,20.25,20.25,0,0,0-5-1.5,28.72,28.72,0,0,1-4.93-1.25,6.71,6.71,0,0,1-3.52-2.94,7.94,7.94,0,0,1-.77-4.42,15.49,15.49,0,0,1,1-4.33,33.16,33.16,0,0,0,2.57-8.13,12.57,12.57,0,0,0-1.53-7.32,16.26,16.26,0,0,0-4.12-4.59,33.22,33.22,0,0,1-3.38-3.11,9.69,9.69,0,0,1-1.86-3.35v.26a3.14,3.14,0,0,0,.19.73,7.17,7.17,0,0,0,1.45,2.56,30.06,30.06,0,0,0,3.32,3.26,16.16,16.16,0,0,1,3.9,4.54,11.93,11.93,0,0,1,1.36,6.93,33,33,0,0,1-2.61,7.92,16.09,16.09,0,0,0-1.12,4.53,8.7,8.7,0,0,0,.84,4.84,7.4,7.4,0,0,0,4,3.35,27.85,27.85,0,0,0,5.08,1.3,20,20,0,0,1,4.85,1.43,12.75,12.75,0,0,1,3.9,2.8,10.7,10.7,0,0,1,3,8.24c-.18,2.91-2,5.19-3.19,7.61a10.38,10.38,0,0,0-1.14,3.77,5.3,5.3,0,0,0,1,3.53,5.85,5.85,0,0,0,5.59,2.34,5.5,5.5,0,0,0,4.27-5.73A3.19,3.19,0,0,0,1094.32,263.68Z"/><path class="cls-25" d="M769.06,239.05s-8.45,4.95-.33,10.42C768.73,249.47,766.1,243.61,769.06,239.05Z"/><path class="cls-25" d="M758.87,239.05s8.12,5.47-.33,10.42C758.54,249.47,761.54,243.78,758.87,239.05Z"/><path class="cls-25" d="M689.48,391.93a51.72,51.72,0,0,1,2.87,18.58s1.81-10.41-1.3-20.23Z"/><path class="cls-49" d="M1253.83,920.38s-46.9,26.3-58.1,26.37a15.31,15.31,0,0,1-14.59-9.61s24.36-16.85,39.46-21.49c5.27-1.63-2.37-47.75-2.37-47.75l32.12,3.27-1.73,41.89Z"/><path class="cls-50" d="M1165.06,948.88s-2.75-4.77.79-6.44,14.57-6,16.61-5.88c-1.32.58-2.44,1.74,2,2.43a59.07,59.07,0,0,0,24.64-1.31c8-2.25,25.75-9.49,32.67-14.08,2.31-1.53,7.18-6.54,12.15-5.58,2.74,3,5.88,16.35,2.24,19s-26.73,6.64-26.73,6.64l-20.05,6.5L1190,953l-8.2.7L1173.9,952Z"/><path class="cls-38" d="M1257,936.07c-2.43,1-10.4,3.1-17.34,3.95-18.64,2.29-24.64,5.05-30.75,7.41a84,84,0,0,1-10.78,3.59c-21.38,5.54-33.21-3.38-33.69-3.62a1.84,1.84,0,0,0-.47,1,49.71,49.71,0,0,0,4.6,2.8c4.28,2.26,14.06,6.31,30.66,2.31a80.14,80.14,0,0,0,10.6-2.91,87.21,87.21,0,0,1,19.7-5.36l.32,2.8s19.91-1.42,28.41-5.77C1258.38,937.9,1257,936.07,1257,936.07Z"/><path class="cls-38" d="M1258.17,939.74c-11.55,4-24.46,5.38-28.57,5.83l.28,2.46s19.91-1.42,28.41-5.77A17.43,17.43,0,0,0,1258.17,939.74Z"/><path class="cls-49" d="M1220.6,915.65s3.59-3.52-3.11-60.19l-6.71-56.68,47,3.75s.37,41.5-4,65.37a370.38,370.38,0,0,0-5.21,45.16Z"/><path class="cls-49" d="M1260.35,922.23s3.59-3.51-3.12-60.19l-6.7-56.67,47,3.74s.38,41.5-4,65.38a370.33,370.33,0,0,0-5.21,45.15Z"/><path class="cls-49" d="M1293.89,928.13s-47.62,25-58.82,24.8-14.44-9.19-14.44-9.19,24.95-17,40.17-21.24c5.31-1.47-1-47.78-1-47.78l32,4.13-2.91,41.82Z"/><path class="cls-49" d="M1260.16,286.93l-1.85,10.73a62.87,62.87,0,0,0-.86,13.63l.4,8.81,19.71,7.47s-8.72,61.06-78.06,39.95c-12.75-3.88-11.78-34.69-7.16-35.59,11.75-2.31,18.81-4.5,18.81-4.5l6.68-3.8-2.48-12.19Z"/><path class="cls-51" d="M1291.06,328.91l-14.88-3.36s-14,38.41-43.07,38.74c-18.82.21-38.68-34.14-38.68-34.14l-8.6,1.27s-7.54,38.14-13.52,58.21c-7.36,24.84,3.39,45.75,3.39,45.75l-.17,13.75c-7.31,19.14-19,56.16-19,97.46,0,100.09,17.53,169.58,18.13,201.54a561.19,561.19,0,0,1-2.46,61s55.84,22.69,84,17.8l47.2-8V382.89Z"/><path class="cls-50" d="M1204.35,954.22s-2.62-4.84,1-6.41,14.32-5.34,16.36-5.16c.09,1.27-2.08,1.4,2.32,2.21a59,59,0,0,0,24.66-.64c8.08-2,26-8.79,33-13.19,2.36-1.47,7.37-6.34,12.31-5.25,2.65,3.09,5.42,16.5,1.7,19.1s-26.9,5.91-26.9,5.91l-20.23,6-19.4,2.32-8.23.47-7.87-1.94Z"/><path class="cls-38" d="M1296.65,943.91c-2.47,1-10.49,2.81-17.46,3.48-18.69,1.78-24.77,4.38-30.94,6.58a86.87,86.87,0,0,1-10.87,3.29c-21.53,5-33.11-4.28-33.58-4.54a1.84,1.84,0,0,0-.5,1,51,51,0,0,0,4.52,2.92c4.22,2.37,13.88,6.68,30.59,3.14a81,81,0,0,0,10.67-2.63,87.82,87.82,0,0,1,19.85-4.82l.24,2.81s19.94-.88,28.55-5C1297.94,945.77,1296.65,943.91,1296.65,943.91Z"/><path class="cls-38" d="M1297.68,947.6c-11.65,3.64-24.6,4.72-28.72,5.06l.21,2.47s19.94-.88,28.55-5A18.72,18.72,0,0,0,1297.68,947.6Z"/><path class="cls-49" d="M1150.81,596c-.23-1.38-2.78-17-2.78-17L1144,604.1l7.27,9.12s8.53,4.1,8.37,7.15-8.37,2.09-8.37,2.09v0a2.7,2.7,0,0,1-2.53,2.86c-2.65.14-18.63-17.17-18.63-17.17V567.54l1.89-26.41,17.16-8.18a117.59,117.59,0,0,0,3.22,22.1c2.84,11.19,5.14,6.23,6.61,18s-.63,37.28-.63,37.28C1148.62,612,1151,597.37,1150.81,596Z"/><path class="cls-49" d="M1186.88,335.79l2.09,57.77,3.37,53.27-40.77,104.8-20.51,4.62c1.23-31.28,8.82-94.65,13.29-106.8s2.62-37.95,3.73-55.89c.58-9.36,4.16-29.88,8.63-41.4,5.92-15.22,18.23-18.31,29.61-20.23Z"/><path class="cls-52" d="M1185.83,331.42s-14.67.16-24.13,7.94-16.2,44.77-16.86,62.59-.67,33.1-6.61,63.65S1128,547.5,1128,550.47s26.74,2.55,26.74,2.55,36.08-90,37.56-110.79S1185.83,331.42,1185.83,331.42Z"/><path class="cls-53" d="M1171.2,359.77a82,82,0,0,1,2.24,9.12,78.63,78.63,0,0,1,1.1,9.3,13.35,13.35,0,0,1,0,3.89c-.33,0-.77-5.85-2.09-13s-2.94-12.92-2.63-12.92A14.1,14.1,0,0,1,1171.2,359.77Z"/><path class="cls-54" d="M1258.93,300.21s-3.21,16.32,9.8,18.52,11.64-14.79,11.64-14.79"/><path class="cls-54" d="M1291.17,300.53s10.13,9.54,19,5-1.34-18.43-1.34-18.43"/><path class="cls-55" d="M1297.08,243.11c-6.06-5.91-13.85-6.83-21.69-4.4-.78,2-1.09,5.76-1.87,7.76.61.1,1.21.21,1.81.34-.84,2.19-.58,7-1.39,9.22.46.37,1.62,1.6,3,3.07l-.75,2a9.58,9.58,0,0,0-2.45-2.58c-.94,2.51-.09,7.75-1.15,10.21-2.3,5.33-5.7,11.59-7.78,17-.44,1.63-2.69-3.55-3.22-2.41l-1.94,4.53-1.92,5.49-2-.12-1.63,4.53s2.89,1.48,7.17,3.53c-.29,13.62,11.34,15.06,15.52,12.42a10.11,10.11,0,0,0,3.68-4.14c7.23,2.66,13.67,4.29,15.83,2.7,4.34-3.2,12.43-14.94,16.18-20.58a41.36,41.36,0,0,0,3.82-4.16l.08-.08v0a19.54,19.54,0,0,0,2.93-4.92c1.64-4.26-1.87-10.56-5.41-15.42,3-7.63,3.07-12.14,2.19-15.7-1.24-5-10.33-10.66-12.3-10.91C1302.76,240.38,1299.83,241.72,1297.08,243.11Z"/><path class="cls-49" d="M1212.11,290.47s3.14,35.46,2.83,38.94l.1,3.19.72,6.53c14.62,11.23,7.3,5.16,24.2-1.71L1255.68,325s5.77.05,4.48-2.61c-5.32-11,1.62-37.58,1.62-37.58"/><path class="cls-28" d="M1245.09,304s-2.5,11.06-21.55,16.38c0,0-5.52,2-8.82.94l-.27-3.88Z"/><path class="cls-55" d="M1183.71,282.38c6.51-5.25,7.3-14,6-21.76-1.23-7.4,3.74-19.13-5.37-18.23-.17,0,2.9-6.56.25-5.85,1.4-4.21-2.46-4.41-3.24-9.06-.74-4.44-.06-8.56,1.36-9,17.75-28.05,36.69-30.71,52.69-30,1.6.07,6.71,2.55,8.18,2.67,1.9.14,6.1-2.38,7.87-2.16,27.85,3.57,38.45,18,38,58-.38,33.77-34,44.54-65.64,45.37-13.54.36-29.56,1.79-40.38-9.75Z"/><path class="cls-55" d="M1268.69,304.77c2.82,1.25,5.81,2.53,8.76,3.69a11.49,11.49,0,0,1-3.93.76C1271,309.26,1269.53,307,1268.69,304.77Zm41.36-52.11a41.81,41.81,0,0,1-3.64,5.25c-1.74-3.83-3.71-6.86-4.61-8.5-.1-.18-.21-.35-.31-.52,1.16-1.37,2.78-3.08,4.07-3.6C1307.81,244.37,1311,249.6,1310.05,252.66Z"/><path class="cls-49" d="M1199.28,215.75a3.61,3.61,0,0,1-.23.36l.23-.17Zm-9.34,2.4v.16a5,5,0,0,0,.42-.37C1190.36,217.75,1189.94,218.15,1189.94,218.15Zm70.6,71.8,1.07-3.28c2.15,6.09,10.4,1.92,10.91-6.43,5.93-7.51,6.63-18.57,3.24-22.91l-.41-.63c-2.39-1.9-6.69-2.77-8.53.42-.61,1.39-1.54,3-2.15,4.35-.6,1.58-1.46,4.76-2.49,6.16,0,0,4.22-15,4.33-18.76s-.25-12.92-7-18c0,0-8.1-7.63-11.19-11.47l-1.08-.36c-.64,0-1.06.22-1.71.24,0-.2.21-.4.2-.79a7.06,7.06,0,0,1-2.77.27c.2-.21.63-.41.62-.61a11,11,0,0,1-2.56.07c.21-.2.62-.61.62-.8-1.06.42-1.71,0-2.56.07a1.48,1.48,0,0,0,.4-.8,5.73,5.73,0,0,1-2.56.26c.21-.2.42-.6.62-.8-1,.42-1.7,0-2.56.07-.21,0,.42-.4.41-.6a7.71,7.71,0,0,1-2.13.25c0-.19.42-.4.42-.6-1.28.43-1.93.05-2.78.08l.62-.8a3,3,0,0,1-2.55.45c.21-.2.62-.6.62-.79a4.28,4.28,0,0,1-3.41.48c.22,0,.63-.61.62-.8-1,.81-1.9.63-3,.66.21-.2.41-.6.83-1a4.37,4.37,0,0,1-4.05.69c.22,0,.42-.6.41-.79-.83.81.75-.22-.33-.39a11.48,11.48,0,0,1-2.44.66c-.84.61,2.17-3.39,1.1-3.36.2-.4-6.12.53-5.7.12-1.05.82-.84.41-2.13.24,0,0-4.37,2.47-4.17,2.27-1,1-1.54.19-2.83,0,.21-.2.8.8,1,.6-.83.81-.57-.18-1.64-.15,0-.2-3.53-1.19-3.53-1.38-1,.62-.7.69-2,.73,0-.2-.75,2.18-.54,2-.83.81-.81.17-1.88,0l-1,.75c-1.05,1,.41.55-.88.38,0-.13,4.84.49,5,.23a7.82,7.82,0,0,1-2.72,1.28c0-.19.2-.59.19-.79a4.27,4.27,0,0,1-3.38,1.27c.21,0,.41-.4.41-.6-1,1-2.31,1.63-3.61,1.07v0a6.72,6.72,0,0,1-3,1.49.86.86,0,0,1,.41-.8l-.86,0c-1,1.6,3.87.59,3.5,2.56,0,0-3.35,5.85-6.53,17.55-2.61,9.6-.6,24.81-.3,27.94.25,2.71-1.13,5.87-1.38,8.7-1.39,15.36,9.13,32.71,21.26,40.91,4.84,3.27,8.89,1.89,13.58,1.13,9.57-1.55,23.86-7.75,32.08-16.49"/><path class="cls-24" d="M1202.82,284a5.53,5.53,0,0,0,4.9-.38c.31-.19,1.34,0,.91.25a7.8,7.8,0,0,1-6.67.4c-.18-.08-.15-.22.07-.29a1.25,1.25,0,0,1,.79,0"/><path class="cls-24" d="M1209.23,283.43a9.1,9.1,0,0,1,3-.78.69.69,0,0,1,.47.14c.09.07.11.17,0,.24a3.41,3.41,0,0,1-1.65.39.68.68,0,0,1-.52-.18c-.09-.14.08-.23.22-.23a2.64,2.64,0,0,0,1.33-.32l.47.38a7.75,7.75,0,0,0-2.7.7.66.66,0,0,1-.55,0c-.11-.06-.23-.21-.07-.29"/><path class="cls-24" d="M1213.38,283.49a4.28,4.28,0,0,0,3.24-1.49c.88-1.35,0-3.59-1.55-4.42-.17-.09-.08-.21.08-.25a1,1,0,0,1,.66.12,4.29,4.29,0,0,1,2.07,3.84c-.17,1.18-1.33,2-2.78,2.39a7.72,7.72,0,0,1-1.35.2.85.85,0,0,1-.62-.18c-.09-.14.08-.2.25-.21"/><path class="cls-24" d="M1200.57,283.4a.16.16,0,0,0-.16-.22,1.45,1.45,0,0,1-1-.29l-.32.39a4.44,4.44,0,0,1,1.93.63.35.35,0,0,0,.39-.06c.07-.07.16-.22,0-.29"/><path class="cls-24" d="M1201.5,283.56a4.91,4.91,0,0,0-2.16-.7.38.38,0,0,0-.32.15c-.06.08-.08.18,0,.24"/><path class="cls-24" d="M1198,283.6a2.47,2.47,0,0,1-2.14-1.4,3.36,3.36,0,0,1,.88-3.8.14.14,0,0,0-.06-.25.49.49,0,0,0-.42.14,3.81,3.81,0,0,0-1.24,3.24,2.76,2.76,0,0,0,1.87,2.31,3,3,0,0,0,.89.16c.12,0,.33-.05.39-.19s0-.21-.17-.21"/><path class="cls-8" d="M1265.28,271.55a38.46,38.46,0,0,1,5-8.76,8,8,0,0,1,2.87-2.46.87.87,0,0,1,.31-.09l-.29-.09a5.76,5.76,0,0,1,1,2,11.58,11.58,0,0,1,.08,6c-.08.32.66.23.73-.07a11.14,11.14,0,0,0-.44-7c-.2-.44-.48-1.29-1.07-1.23a3.49,3.49,0,0,0-1.56.72,12.28,12.28,0,0,0-2.8,2.91,42.76,42.76,0,0,0-4.46,8.09c-.15.36.57.32.69.06Z"/><path class="cls-32" d="M1181.94,249.36c5-1.82,8.23-2,16.91-1.19l0,.19c.17,1.12.07.49.24,1.61.13.86.25,1.71.38,2.56-2.84-.3-4.91-.78-6.72-.82-3.43-.06-7.38-.55-10.74.35C1182,251.16,1182,250.26,1181.94,249.36Z"/><path class="cls-32" d="M1237.28,249.16a8.81,8.81,0,0,1,1.07.21,19.27,19.27,0,0,1,3.35,1.32c-.3-.14-.88-1.31-1.19-1.59a7.77,7.77,0,0,0-2.21-1.41,24.14,24.14,0,0,0-9.66-1.76c-1.2,0-10.9,1-10.89,1.74v.2c0,1.13,0,.5,0,1.63l0,2.58c2.77-.67,4.76-1.43,6.55-1.7,2.45-.38,4.87-.95,7.34-1.12A30,30,0,0,1,1237.28,249.16Z"/><path class="cls-33" d="M1267,285.43a4.24,4.24,0,0,1,1.52,5.45,3.82,3.82,0,0,1-2.29,1.84c-.15,0,0,0-.14,0h-.2a5.47,5.47,0,0,1-1-.09,4.2,4.2,0,0,1-2.92-2.19c-.19-.35-1.22,0-1,.44a5.08,5.08,0,0,0,5.06,2.49,4.63,4.63,0,0,0,1.77-8.54c-.33-.23-1.29.25-.82.55Z"/><path class="cls-8" d="M1264.71,271.76c.69,0,1.75,0,2,.84a3.73,3.73,0,0,1-.43,2c-.48,1.28-1.34,3.07-.32,4.3,1.2,1.45,3.1-.47,3.77-1.5a8.63,8.63,0,0,0,1.41-5.4c-.15-1.88-.61-4.6-2.6-5.42-.19-.08-.76.22-.68.25,1.72.71,2.24,2.88,2.47,4.54a8.66,8.66,0,0,1-.58,4.76,6.5,6.5,0,0,1-1.89,2.7c-.29.22-.53.36-.87.15a1.72,1.72,0,0,1-.65-.87c-.5-1.4.47-3,.89-4.29a2.18,2.18,0,0,0,.08-1.75c-.4-.66-1.42-.66-2.09-.65a.81.81,0,0,0-.51.13c-.07.08-.13.17,0,.17Z"/><path class="cls-32" d="M1189.78,258a3.2,3.2,0,0,0-3.45.72,3.08,3.08,0,0,0-.9,1.47,3.23,3.23,0,0,0,.83,2.89,3,3,0,0,0,3.43.51,3.3,3.3,0,0,0,1.52-3.86,3,3,0,0,0-1.43-1.73"/><path class="cls-32" d="M1199.75,262.3s-5.44-4.56-8.17-4.79a10.17,10.17,0,0,0-9,4.48s5.18-3.84,8-3.51S1199.75,262.3,1199.75,262.3Z"/><path class="cls-32" d="M1226.25,257.15a3.22,3.22,0,0,1,3.49.54,3.12,3.12,0,0,1,1,1.42A3.19,3.19,0,0,1,1230,262a3,3,0,0,1-3.4.69,3.28,3.28,0,0,1-1.71-3.78,2.89,2.89,0,0,1,1.33-1.8"/><path class="cls-32" d="M1217.22,262s6.35-4.86,9.65-5.27c6-.74,11.58,2.49,13.35,4.66,0,0-8.72-4.24-12.1-3.74S1217.22,262,1217.22,262Z"/><path class="cls-55" d="M1232.7,217.75S1213,235,1185.59,232.26l-.08-.68s-5.71-10.93.11-16.85,23.68-8.92,23.68-8.92,30.68-1.62,42.69,6.78,17.39,26.42,17.48,32.72-7.29,22.32-7.29,22.32-.09-13.74-.94-19.8S1241,233.89,1232.7,217.75Z"/><path class="cls-55" d="M1234.56,221s6,14.94,13,20.42l7,5.48s-9.88-9-11.78-17.46S1234.56,221,1234.56,221Z"/><path class="cls-28" d="M1207.67,293.21c5.51-.39,14.38-1.62,14.38-1.62s-1,10.26-13.71,11.16-15.14-9.13-15.14-9.13S1202.17,293.59,1207.67,293.21Z"/><path class="cls-29" d="M1207.73,293.11c2.9-.2,14.59-1.3,14.59-1.3s-3.62,3.83-14.13,4.57c-11.39.79-15-2.47-15-2.47Z"/><path class="cls-28" d="M1192.56,292.75a17.28,17.28,0,0,0,3.13.15c2.15-.36,3.46-1.1,5-1.34,2.66-.42,4.45.65,5.61.57s2.79-1.39,5.48-1.35c1.58,0,5.51.39,7.69.45a18.28,18.28,0,0,0,3.08-.58c.39.08-.13,3.32-14.78,4.35S1192.18,292.89,1192.56,292.75Z"/><path class="cls-52" d="M1206.39,327.5s1.06,10.56,9.11,13.83c0,0-3.82,58.25-4.82,70.57s-12,103.56-16.63,112.85-37.49-2.64-37.49-2.64,6-50.06,17-70.38l1.14-15.3s-7.91-6.77-7.91-19.82,7.91-45.9,7.91-45.9l6.89-38.78Z"/><path class="cls-53" d="M1155.76,522.34s6-50.06,17-70.38l1.13-15.3s-7.9-6.77-7.9-19.81c0-8.72,5.2-30.42,7.54-41.11,1.16-5.31-.15-4.81-.15-4.81l-6.11,25.79s-3,14.82-2.21,25a22.69,22.69,0,0,0,7.67,15.46l-.65,14.17s-.65,1.17-4.94,10.4-7.67,31.46-8.71,35.88-4.15,25.39-4.15,25.39,2.11,1.51,3.4,1l.14-1.42Z"/><path class="cls-56" d="M1266.53,261.38l-.11-2.53L1240,251.93h0c-9.45-3.44-22.6-.55-30.17,4.52l-6.74.5.06-.1c-8-5.6-21.07-6.17-31-1.37l.3,1h0a4.35,4.35,0,0,0,.13.44l.26.91c1.63,5.8,3.51,11.93,5.19,13.52,1.13,1.07,4.77,1.51,7.77,1.68,1.13.07,2.17.09,2.91.11.9,0,8.83.12,10.13-1.14s3.37-10.48,4-13.4l6.91-.48c.93,2.23,2.92,11.89,6.34,13.78s20.69.71,22.24-1.72a56.64,56.64,0,0,0,5-11.2l1.36-4.13Zm-68.5,9.76c-1.42,1.21-17.22,1.17-19.18-.67-1.65-1.56-4-9.83-4.84-12.94v-.13c8.86-3.79,20.65-3.29,27.6,1.43-1.12,5-2.77,11.5-3.58,12.28Zm38.21-1.58c-1,1.54-16,3.22-19.57,1.27-2.45-1.35-4-8.4-5.26-12.44,7.4-4.81,22.76-7.18,31.18-3.57-1.4,5-3.62,11-6.35,14.74Z"/><path class="cls-57" d="M1197.86,271c.81-.78,2.46-7.25,3.58-12.28-7-4.72-18.73-5.22-27.6-1.43v.13c.87,3.11,3.18,11.38,4.83,12.94,2,1.84,17.76,1.88,19.18.67Z"/><path class="cls-57" d="M1236.24,269.56c2.91-4.1,5-9.7,6.35-14.74-8.42-3.61-23.78-1.24-31.18,3.57,1.23,4,2.81,11.09,5.26,12.44,3.52,1.95,18.61.27,19.57-1.27Z"/><path class="cls-52" d="M1291.2,328.26l-27.2-5.82s-2,13.68-10.14,17c0,0-2.77,45-1.78,57.42s4.19,60.08,4.09,72.82,4.58,53.89,8.33,59.35c1.92,2.79,21,1.21,39.13-1.15V331.5Z"/></g></g></svg>