<?xml version="1.0" encoding="utf-8"?>
<!-- Generator: Adobe Illustrator 26.0.1, SVG Export Plug-In . SVG Version: 6.00 Build 0)  -->
<svg version="1.1" id="Layer_1" xmlns="http://www.w3.org/2000/svg" xmlns:xlink="http://www.w3.org/1999/xlink" x="0px" y="0px"
	 viewBox="0 0 1303.2 1057.3" style="enable-background:new 0 0 1303.2 1057.3;" xml:space="preserve">
<style type="text/css">
	.st0{fill:#F2EBD1;}
	.st1{fill:#A66E53;}
	.st2{fill:#4F2E25;}
	.st3{fill:#151210;stroke:#161311;stroke-width:0.34;stroke-miterlimit:10;}
	.st4{fill:#010101;}
	.st5{fill:#231F20;}
	.st6{fill:#13110F;}
	.st7{fill:#CE8D2A;}
	.st8{fill:#151210;stroke:#161311;stroke-width:0.35;stroke-miterlimit:10;}
	.st9{fill:none;stroke:#161311;stroke-width:0.82;stroke-miterlimit:10;}
	.st10{fill:#24180F;}
	.st11{fill:#FFFFFF;}
	.st12{fill:#653C29;}
	.st13{fill:#465B65;}
	.st14{fill:url(#SVGID_1_);}
	.st15{fill:#151210;}
	.st16{fill:#BB997A;}
	.st17{fill:#A3A3A3;}
	.st18{fill:#3D3D3D;}
	.st19{fill:#222323;}
	.st20{fill:#273778;}
	.st21{fill:#6C916A;}
	.st22{fill:#C7E4E3;}
	.st23{fill:#513835;}
	.st24{fill:#A38166;}
	.st25{fill:#87654D;}
	.st26{fill:#5F6161;}
	.st27{fill:#3C803D;}
	.st28{fill:#343535;}
	.st29{fill:none;stroke:#131429;stroke-width:1.1;stroke-miterlimit:10;}
	.st30{fill:#163F51;}
	.st31{fill:#1B120C;}
	.st32{fill:#2E3A1C;}
	.st33{fill:#C95744;}
	.st34{fill:#681C0E;}
	.st35{fill:#4E2711;}
	.st36{fill:#1E1009;}
	.st37{fill:#636462;}
</style>
<g id="Layer_10">
	<polyline class="st0" points="-8.7,1023.8 -8.7,-18.2 1321.3,-18.2 1321.3,1023.8 	"/>
	<path class="st1" d="M266.8,326.2c0,0,5.6,22,1.3,37.8c-0.6,2.2-13.9,7-13.9,7c0.5-0.2,10.3,6.5,10.8,6.8
		c7.5,4.6,6.9,18.2,16.5,19.1c10.2,1,25.5,4,35.1,0.2c6.7-2.6,6.4-14.5,11.8-19.1c0,0-11.5-7.4-12.3-10s-0.5-24.2-0.5-24.2"/>
	<path class="st2" d="M280.5,349.9c0,0-0.2,11.8,24.1,15.6c0,0,10.4,0.8,11.2,0.2l-0.5-5.2L280.5,349.9z"/>
	<path class="st3" d="M337.6,324.9c-6.6-4.1-8.4-12.1-8.2-19.4c0.2-7-5.8-17.2,2.8-17.5c0.2,0-3.5-5.7-0.9-5.4
		c-1.8-3.7,3.8-3.8,4.3-8.1c0.1-0.9,0.8-8.6-4.8-8.8c-21.8-26.2-47.9-18.5-62.7-15.4c-28.9,6.1-46.7,9.1-36.3,54.9
		c7,30.7,21.2,33.4,50.6,30.4c12.6-1.3,46.8,1.4,55.4-10.5L337.6,324.9z"/>
	<path class="st3" d="M268.4,223.5c-1-1.6-9.3-7.1-14-6.2c-3.4,0.6-7.2,2.4-12.5,7.9c-5.5-1.1-12.2-1.7-15.2,1.4
		c-1.2,1.3-2.2,2.8-3,4.4l0,0v0.1c-0.8,1.6-1.5,3.2-2.1,4.8c-3.3,5.4-10.2,16.8-11.2,21.7c-0.5,2.5,3.4,7.3,8.4,12.4
		c-1.1,1.3-1.9,3-2.1,4.7c-0.6,4.6,5.1,13.9,16.5,8.4c3.4,2.8,5.8,4.7,5.8,4.7l3.2-3.1l-0.9-1.7l3.9-3.8l-3.1-2.3
		c0.9-1,1.9-2,2.9-2.9c3.8-3.9,7.8-9.2,11.4-13.2c1.7-1.9,6.5-3.1,8.2-4.9c-1-0.6-2-0.9-3.1-1.1l1.4-1.4c1.8,0.6,3.3,1.1,3.7,1.3
		c1.6-1.5,5.8-3.2,7.3-4.7c0.3,0.4,0.7,0.9,1,1.4c1.4-1.4,4.5-3.1,5.9-4.6c-1-7.6-4.8-13.9-12.1-16.7
		C268.9,227.3,268.9,224.3,268.4,223.5z M221.8,275.7c-0.5-1.1-0.8-2.4-0.9-3.6c2.1,2,4.4,4.1,6.5,6
		C225.2,278.2,222.7,277.9,221.8,275.7z M263.7,223.8c-0.2,1.7-0.7,3.3-1.5,4.9l-0.6-0.1c-3-0.4-6-0.6-9-0.6c0.9-1.8,1.9-3.5,3-5.1
		C257.9,220.9,263.6,221.6,263.7,223.8L263.7,223.8z"/>
	<path class="st1" d="M315.2,265.4l0.2,0.1c-0.1-0.1-0.2-0.2-0.3-0.3L315.2,265.4z M323.7,266.1l0.4,0.3v-0.2
		C324.1,266.3,323.7,265.9,323.7,266.1z M279.7,350.3c8.7,7.1,22.6,11.1,31.7,11.4c4.4,0.1,8.3,0.9,12.4-2.7
		c10.2-9,19.8-24.7,16.7-38.7c-0.6-2.6-2.6-7.3-2.7-9.9c-0.1-2.9-1.6-16.9-5.2-25.5c-4.4-10.4-8.1-15.4-8.1-15.4
		c-0.6-1.8,4.1-1.4,2.9-2.8l-0.8,0.1c0.3,0.1,0.5,0.4,0.5,0.7c-1-0.1-2-0.4-2.9-1l0,0c-1.1,0.7-2.4,0.2-3.5-0.6
		c0,0.2,0.3,0.5,0.5,0.5c-1.2,0.2-2.4,0-3.3-0.8c0,0.2,0.3,0.5,0.3,0.7c-0.9-0.1-1.8-0.4-2.7-0.9c0.2,0.2,4.6-0.9,4.6-0.8
		c-1.2,0.3,0.2,0.6-0.9-0.2l-1-0.6c-1,0.3-0.9,0.9-1.7,0.2c0.2,0.2-0.8-2-0.7-1.8c-1.2,0.1-0.9,0-1.9-0.4c0,0.2-3.1,1.5-3.1,1.7
		c-1,0.1-0.6,1-1.5,0.3c0.2,0.2,0.6-0.8,0.9-0.7c-1.2,0.3-1.5,1.1-2.6,0.3c0.2,0.2-4.1-1.6-4.1-1.6c-1.2,0.3-0.9,0.7-2,0
		c0.4,0.3-5.5,0.2-5.3,0.6c-1,0.1,2.3,3.4,1.4,3c-0.8,0-1.6-0.1-2.3-0.3c-1,0.3,0.6,1-0.3,0.4c0,0.2,0.3,0.7,0.5,0.7
		c-1.2,0.6-2.6,0.5-3.8-0.1c0.4,0.3,0.7,0.7,0.9,0.8c-0.9,0.3-2,0.2-2.8-0.3c0,0.2,0.5,0.7,0.7,0.7c-1,0.5-2.2,0.5-3.2,0
		c0,0.2,0.5,0.5,0.7,0.7c-0.8,0.3-1.7,0.3-2.4-0.1l0.7,0.7c-0.8,0.3-1.7,0.4-2.6,0.3c0,0.2,0.4,0.3,0.5,0.5c-0.7,0.1-1.3,0.1-2,0
		c0,0.2,0.6,0.5,0.5,0.5c-0.8,0.1-1.4,0.5-2.4,0.2c0.2,0.2,0.5,0.5,0.7,0.7c-0.8,0.2-1.6,0.2-2.4,0.1c0.1,0.3,0.2,0.5,0.5,0.7
		c-0.8,0.1-1.4,0.5-2.4,0.2c0,0.2,0.5,0.5,0.7,0.7c-0.8,0.2-1.6,0.3-2.4,0.2c0,0.2,0.4,0.3,0.6,0.5c-0.8,0.2-1.7,0.2-2.6,0.1
		c0,0.4,0.2,0.5,0.3,0.7c-0.6,0.1-1-0.1-1.6,0l-1,0.5c-2.4,3.9-9,12-9,12c-5.6,5.5-4.9,14.1-4.3,17.5s6.3,16.8,6.3,16.8
		c-1.1-1.2-2.3-4-3-5.4c-0.7-1.2-1.8-2.5-2.5-3.8c-2.1-2.7-6-1.4-8,0.6l-0.3,0.6c-2.6,4.4-0.6,14.6,5.8,20.8
		c1.5,7.7,9.6,10.5,10.9,4.6l1.4,2.9"/>
	<path class="st4" d="M320.1,328.7c-1.4,0.8-3.1,0.9-4.6,0.2c-0.3-0.1-1.2,0.1-0.8,0.3c2,0.8,4.3,0.6,6.2-0.4
		c0.1-0.1,0.1-0.2-0.1-0.3C320.6,328.5,320.3,328.6,320.1,328.7"/>
	<path class="st4" d="M314.1,329c-0.9-0.3-1.9-0.4-2.9-0.4c-0.2,0-0.3,0.1-0.4,0.2c-0.1,0.1-0.1,0.2,0,0.2c0.5,0.2,1,0.2,1.6,0.2
		c0.2,0,0.3-0.1,0.5-0.2c0.1-0.1-0.1-0.2-0.2-0.2c-0.4,0.1-0.9,0-1.3-0.1l-0.4,0.4c0.9,0,1.7,0.1,2.6,0.3c0.2,0,0.4,0,0.5-0.1
		C314.1,329.2,314.2,329,314.1,329"/>
	<path class="st4" d="M310.3,329.5c-1.2,0.1-2.3-0.2-3.2-1c-1-1.1-0.4-3.3,0.9-4.3c0.1-0.1,0-0.2-0.1-0.2c-0.2,0-0.4,0.1-0.6,0.2
		c-1.1,0.9-1.7,2.4-1.5,3.8c0.5,1.1,1.6,1.9,2.9,1.9c0.4,0,0.8,0,1.3,0c0.2,0,0.5-0.1,0.5-0.2S310.4,329.5,310.3,329.5"/>
	<path class="st4" d="M322.1,327.9c0-0.1,0-0.2,0-0.2c0,0,0.1,0,0.1,0c0.3,0,0.6-0.2,0.9-0.4l0.3,0.3c-0.6,0.1-1.2,0.4-1.7,0.8
		c-0.1,0.1-0.3,0.1-0.4,0c-0.1,0-0.2-0.2-0.1-0.3"/>
	<path class="st4" d="M321.3,328.1c0.6-0.4,1.2-0.8,1.9-0.9c0.1,0,0.2,0,0.3,0.1c0.1,0,0.1,0.1,0,0.2c0,0,0,0,0,0"/>
	<path class="st4" d="M324.5,327.8c0.8-0.1,1.5-0.7,1.8-1.5c0.3-1.3-0.2-2.7-1.3-3.4c-0.1,0-0.1-0.1-0.1-0.2c0,0,0-0.1,0.1-0.1
		c0.1,0,0.3,0,0.4,0.1c0.9,0.6,1.5,1.7,1.5,2.8c0,1-0.5,1.9-1.5,2.4c-0.3,0.1-0.5,0.2-0.8,0.3c-0.1,0-0.3,0-0.4-0.1
		C324.2,327.8,324.3,327.8,324.5,327.8"/>
	<path class="st5" d="M261.5,324.5c-1.3-2.2-2.8-4.4-4.5-6.3c-0.9-1.1-1.9-2-3.1-2.7c-0.5-0.3-1-0.5-1.6-0.6c-0.1,0-0.2,0-0.3,0
		c-0.4,0.1-0.5,0.4-0.7,0.8c-0.8,2.3-0.7,4.8,0.2,7.1c0.1,0.2,0.8,0,0.7-0.2c-0.7-1.8-0.9-3.7-0.6-5.5c0.1-0.7,0.3-1.3,0.7-1.9
		l-0.4,0.2c-0.1,0,0,0,0,0h0.2c0.4,0.1,0.7,0.2,1,0.4c1.6,1,3,2.4,4.2,3.9c1.3,1.6,2.5,3.4,3.5,5.1
		C260.9,324.9,261.5,324.7,261.5,324.5L261.5,324.5z"/>
	<path class="st6" d="M337.3,296.5c-3.8-3.2-6.6-4.4-14.4-6.4l-0.1,0.2c-0.5,0.9-0.2,0.4-0.7,1.3l-1.1,2.1c2.6,0.6,4.5,0.9,6.1,1.4
		c3,1,6.6,1.9,9.3,3.7C336.6,298.1,336.9,297.3,337.3,296.5z"/>
	<path class="st6" d="M300,291.4l0.7,1.3l1.2,2.1c-2.6,0.7-4.5,0.9-6.1,1.5c-3.2,1.1-7,2-9.6,4.1c-1.3,1-3.1,2.5-3.4,4.3
		c-0.1,0.5,0.1,2-0.6,2c-0.3,0-0.5-1.3-0.6-1.5c-0.5-2.7,0.9-4.8,3-6.6c4.3-3.8,6.9-5,15.3-7.4"/>
	<path class="st7" d="M260.1,337.4c-1.9,1.4-2.2,4.1-0.7,6c0.8,1,1.9,1.6,3.1,1.6c0.6,0,1.3-0.1,1.9-0.4c1.3-0.4,2.3-1.4,2.8-2.7
		c0.2-0.5-0.8-0.4-0.9-0.1c-0.3,1-1.1,1.8-2,2.2c-0.4,0.2-0.9,0.3-1.4,0.3c0.3,0-0.3,0-0.3-0.1c-0.3-0.1-0.5-0.1-0.8-0.2
		c-0.4-0.2-0.8-0.5-1.2-0.9c-0.6-0.7-1-1.6-1-2.6c0-1.2,0.5-2.3,1.4-3c0.2-0.1,0.1-0.4-0.1-0.4C260.6,337.2,260.3,337.3,260.1,337.4
		L260.1,337.4z"/>
	<path class="st5" d="M261.3,324.6c-1.1,0.1-2.7,0.5-2.2,2s1.4,2.4,1.6,3.8c0.1,0.3,0,0.6-0.1,0.9c-0.1,0.2-0.1,0.3-0.2,0.5
		c-0.1,0.2-0.2,0.2-0.3,0.3c-0.7,0.1-1.6-0.9-2-1.4c-1.1-1.3-1.8-2.9-1.9-4.7c-0.1-1.7,0-4.3,1.6-5.3c0.3-0.2-0.4-0.1-0.5,0
		c-1.6,0.9-1.8,3-1.8,4.7c0,1.7,0.4,3.3,1.3,4.7c0.7,1.1,2.3,2.9,3.8,2.1c1.4-0.8,0.6-2.6,0.1-3.6c-0.4-0.7-0.7-1.4-1-2.1
		c-0.2-1,0.4-1.3,1.3-1.4C261.2,324.9,261.8,324.6,261.3,324.6L261.3,324.6z"/>
	<path class="st6" d="M329.5,303.2c1-0.6,2.3-0.5,3.3,0.2c0.4,0.3,0.8,0.8,1,1.3c0.3,0.9,0.2,2-0.4,2.8c-0.7,0.9-2,1.3-3.1,0.9
		c-1.3-0.5-2.1-2-1.9-3.4C328.5,304.3,328.9,303.6,329.5,303.2"/>
	<path class="st6" d="M320.3,308.3c0,0,5.2-5,8-5.5c3.6-0.7,7.3,0.4,10,3c0,0-5.9-2.9-8.8-2.2S320.3,308.3,320.3,308.3z"/>
	<path class="st6" d="M296.7,306.8c-1.5-0.6-3.2,0.2-3.8,1.7c-0.5,1.2-0.1,2.5,0.9,3.3c0.9,0.7,2.2,0.8,3.2,0.2
		c1.2-0.8,1.7-2.3,1.1-3.7C297.9,307.6,297.3,307.1,296.7,306.8"/>
	<path class="st6" d="M304.1,310c0,0-6.5-3.7-9.6-3.7c-5.6,0-10.4,3.7-11.8,5.9c0,0,7.5-5,10.7-4.9S304.1,310,304.1,310z"/>
	<path class="st3" d="M324.8,268.5c1.3,4.9,7.6,0,3.8-0.9c0.2-2.5-3.3-3.1-3.5-5.6c-0.1,0.2-0.2,0.4-0.2,0.4s-0.4-3-1.5-3.6
		s-5.8-2.4-5.8-2.4l-1.2,1.2c0-0.1,0.4-1.1-0.4-1.6s-8.7-3.7-13.5-2.9c-0.2,0-0.3,0.1-0.5,0.1l-1.9,1.2h-0.1h0.1
		c0.3-0.2,1-0.8,0.6-1.2c-0.3-0.2-0.6-0.3-0.9-0.3c-1-0.1-2-0.1-3,0l0,0h-0.3h-0.3l0,0c-1,0.1-1.9,0.3-2.9,0.6
		c-0.3,0.1-0.6,0.2-0.9,0.5c-0.4,0.5,0.5,0.9,0.8,1.1h0.1h-0.1l-2.1-0.8h-0.5c-4.9,0.2-12,4.9-12.6,5.6c-0.4,0.5-0.4,1.2,0,1.6
		l-1.5-0.9c-2.2,1.1-4.4,2.3-6.5,3.7c-0.6,0.7-1,1.6-1.2,2.6c-0.7,0.4-1.5,0.6-2.4,0.7c-0.6-0.1-3.8,1.9-4.9,4
		c-0.7,1.3-0.3,2.5-0.6,3.6l0,0c-0.2,0.6-0.3,1.1-0.3,1.1l-3.3,1.5c-2.6,1.6-1.3,7.1-1.3,7.1c-4.7,7.1-4.4,12.7-1.3,18.5
		c1.2,2.2-5.2,5.2-1,4.7c4.2-0.5,9.2,12.6,9.2,12.6s3.1-5.6,3-8.1s-2-9.6-2-9.6l2-0.5c0,0,1.2-0.6,2.4-3.6s-2-7.5-2-7.5l-1.1-2.9
		l4.1-0.1c3.8-1.1,3.6-5.3,3.6-5.3l-1.4-7l2.6,2.1c0.6,0.6,1.5,0.9,2.4,0.8c6-1.1,6.3-4.9,6.3-4.9l0.4-3.6l1.6,0.9
		c1.8,1.2,6.9,2.7,9.4,1.4c0.6-0.4,3.2-2.8,3.6-3.1c1.5-1.4,1.5-3.6,1.5-4.5c-0.3-0.2-0.5-0.5-0.8-0.7c-1-0.9-1.3-0.4-0.4,0.4
		c1.7,1.5,4.4,3.5,6.6,3.4s6.7-1.5,7.2-2.6c0.3-0.7-0.4-0.7,0.4-0.8c0.7,0,1.3,0.3,1.8,0.9c1.2,1.1,2,2.7,3.5,3.3
		c2.2,0.9,3.4-0.4,5.4-1.1c0.5-0.2,1.1,0,1.3,0.5C324.8,268.4,324.8,268.4,324.8,268.5z"/>
	<path class="st8" d="M329.4,264.1c0,0,1-4.7-1.9-7S313.4,245.2,296,247L329.4,264.1z"/>
	<path class="st9" d="M235,284.6c0,0-12.6,9-19.5-1.2s8.1-15.6,8.1-15.6"/>
	<path class="st9" d="M238.3,224.6c0,0,5.6-11.7,14.9-10.7s5,16.5,5,16.5"/>
	<path class="st10" d="M318.4,335.7c-4.4,0.4-13.8,3.9-15.5,5.8c0,0,5,4.4,15.1,3.5s11.8-5.9,11.8-5.9S324,335.2,318.4,335.7z"/>
	<path class="st11" d="M306.8,339.2c0,0,5.2-0.9,9.3-1.3s9.4-0.4,9.4-0.4s0.4-3.1-7.1-2.5S306.8,339.2,306.8,339.2z"/>
	<path class="st12" d="M318,344.9c-4.8-0.2-9.6-4.3-15.1-3.5c0,0,3.8,8.8,15.7,7.7s11.2-10.2,11.2-10.2
		C324.2,339.2,322.6,343.8,318,344.9z"/>
	<path class="st12" d="M323.4,332.8c-2.5,0-4,1.1-5.1,1.2s-2.8-0.7-5.2-0.3c-2.3,0.4-11.7,7-10.5,7.6s8.5-4.2,16-5
		s10.6,3.2,11.7,2.4S325.7,332.8,323.4,332.8z"/>
	<path class="st2" d="M309.8,290.1c0,0,1.6,2.8,0.6,5.3c-0.7,2-2.8,3.1-4.8,2.5c0,0,3.6-0.7,4.1-3.8S309.8,290.1,309.8,290.1z"/>
	<path class="st2" d="M315.2,289.1c0,0-1.7,2.8-0.6,5.3c0.7,2,2.8,3.1,4.8,2.5c0,0-3.6-0.7-4.1-3.8S315.2,289.1,315.2,289.1z"/>
	<path class="st1" d="M633.4,256.2c0,0,12.7,46.5,10.2,56.6c-0.6,2.5-20.2,19.3-20.2,19.3l59.8,17.1l43-25.3c0,0-31.6-17-32.1-20
		c-2.5-13.3-2.1-26.9,1-40"/>
	<path class="st13" d="M689.3,193v0.6v0.5c0-0.2,0-0.4,0-0.5C689.3,193.4,689.3,193.2,689.3,193z"/>
	<path class="st2" d="M631.3,292c1.9,2.8,3.7,5.7,5.8,8.4c0,0,0,0.1,0,0.1c0.2-0.1,0.4-0.1,0.5,0c0,0,0,0,0,0
		c1.5,1.8,4.2,2.8,5.5,4.7c1.1,1.7,0.5,4,0.6,6c1.5,0.2,3.5,0.1,5.4,0.1c12.6-0.5,12.3-2.5,29.3-12.5c5.3-3.1,4.1-7.3,5.1-8.1
		C666.3,290.7,649.3,291.7,631.3,292z"/>
	<path class="st1" d="M694.8,276l2.1-22.3l0.6-24.9L687.3,210l-17.9-8.3l-20.1,1c0,0-16,4.3-21.1,5.8s-9.4,1.6-12.7,8.6
		s-0.7,24.6-0.7,24.6c0,0.9,0.2,1.7,0.4,2.5c1.1,4.6,1.5,8.7,2.4,12.1c0.4,1.5,0.4,3.2,0,4.7c-1.8,6.1-1.8,8.7-1.2,12.4
		c0.6,4.6,1.8,9,3.7,13.2c2.1,4.2,4.6,8.7,5.2,9.5c0,0,5.7,9.3,6.9,10.2c1.2,0.9,2.5,1.5,3.9,1.8c0.8,0.1,11.9,0.6,11.9,0.6l5.1-0.2
		c1.7-0.1,3.5-0.5,5-1.2c4.3-2,16.5-8.1,19.8-10.5c4.5-3.3,9.6-16.7,9.6-16.7"/>
	<path class="st1" d="M693.8,276.5c6,5.8,9.5-5.8,9.5-5.8c5.4-7,5.1-14.2,4.7-19.1s-5.4-5.4-5.4-5.4c-4.6,0.7-6.9,4-10.2,19.6"/>
	<path d="M620.4,210.9c3.2-5.5,8.8-9.4,12.4-14.7c1.8-0.2,10.5-0.7,12.3-0.9c18.7-1.4,44.1,8.5,46.8,15.2c1.6,4.2,1.4,27.3,0.7,29.4
		c-1.4,4.4-2.3,8.9-2.7,13.4c-1.1-8.6-7.6-18.1-8.5-21s2.6-17.2,1.6-17.8c-11.5-5.1-24-7.5-36.5-7.1c-5.6,0.3-11.1-0.3-16.1,0.5
		C630.4,208,620.3,211,620.4,210.9z"/>
	<path d="M656.7,249c1-0.6,2.2-0.6,3.2,0c0.4,0.3,0.8,0.8,0.9,1.3c0.3,1,0.1,2-0.6,2.7c-0.8,0.9-2.1,1.2-3.2,0.7
		c-1.3-0.6-2-2.1-1.7-3.5C655.6,250,655.8,249.5,656.7,249"/>
	<path d="M624.1,250.6c-1.1-0.4-2.4-0.1-3.2,0.7c-0.4,0.4-0.7,0.9-0.8,1.4c-0.2,1,0.1,2,0.8,2.7c0.9,0.8,2.2,1,3.2,0.4
		c1.3-0.7,1.8-2.2,1.3-3.6C625.3,251.5,624.8,250.9,624.1,250.6"/>
	<path d="M634.1,254.7c0,0-4.8-4.4-8.2-4.6c-4.9-0.2-6.1,0.9-7.8,3.3c0,0,3.1-2.5,6.6-2.2C628,251.4,634.1,254.7,634.1,254.7z"/>
	<path d="M649.5,252.6c0,0,6.8-4.5,10.1-4.7c4.9-0.3,10.9,2.5,12.5,4.8c0,0-7.9-4.1-11.3-3.8S649.5,252.6,649.5,252.6z"/>
	<path d="M645.8,238.8c0.4,1.1,0.8,2.2,1.2,3.3c0.3,0.8,1,2.8,1.3,3.6c2.4-1.7,4.4-3.7,6.1-4.6c3.2-1.9,6.4-4.1,10.1-4.8
		c1.7-0.4,3.4-0.4,5.1-0.1c0.5,0.1,2.2,0.8,2.7,0.3c0.2-0.2-0.7-1.4-0.8-1.5c-1.9-2.4-4.7-2.6-7.8-2.2
		C657.4,233.6,651.4,235.7,645.8,238.8"/>
	<path class="st4" d="M637.6,273.9c1.7,0.7,3.6,0.4,5.1-0.6c0.3-0.2,1.4-0.1,1,0.2c-2.1,1.3-4.6,1.5-6.9,0.6
		c-0.2-0.1-0.2-0.2,0.1-0.3C637.1,273.8,637.4,273.8,637.6,273.9"/>
	<path class="st4" d="M644.3,273.1c1-0.5,2-0.8,3.1-1c0.2,0,0.3,0,0.5,0.1c0.1,0.1,0.1,0.2,0,0.3c-0.5,0.3-1.1,0.5-1.7,0.5
		c-0.2,0-0.4-0.1-0.5-0.2c-0.1-0.1,0.1-0.2,0.2-0.3c0.5,0,1-0.1,1.4-0.4l0.5,0.4c-1,0.1-1.9,0.4-2.8,0.9c-0.2,0.1-0.4,0.1-0.6,0
		C644.2,273.4,644.1,273.2,644.3,273.1"/>
	<path class="st4" d="M648.6,273c1.3,0,2.5-0.7,3.3-1.7c0.9-1.5-0.1-3.8-1.7-4.7c-0.2-0.1-0.1-0.2,0.1-0.3c0.2,0,0.5,0,0.7,0.1
		c1.4,0.8,2.3,2.4,2.3,4c-0.3,1.4-1.4,2.4-2.8,2.7c-0.5,0.1-0.9,0.2-1.4,0.3c-0.2,0-0.5,0-0.6-0.2S648.4,273,648.6,273"/>
	<path class="st4" d="M635.3,273.3c0-0.1,0-0.2-0.1-0.2c0,0-0.1,0-0.1,0c-0.4,0-0.7-0.1-1-0.3l-0.3,0.4c0.7,0.1,1.4,0.3,2,0.6
		c0.1,0.1,0.3,0,0.4-0.1c0.1-0.1,0.2-0.2,0-0.3"/>
	<path class="st4" d="M636.2,273.5c-0.7-0.4-1.5-0.7-2.3-0.7c-0.1,0-0.3,0.1-0.3,0.2c-0.1,0.1-0.1,0.2,0,0.3"/>
	<path class="st4" d="M632.7,273.6c-1,0-1.8-0.6-2.3-1.5c-0.6-1.4-0.3-3.1,0.8-4.2c0.1,0,0.1-0.1,0-0.2c0,0-0.1-0.1-0.1-0.1
		c-0.2,0-0.3,0-0.4,0.2c-0.9,0.9-1.4,2.3-1.2,3.6c0.1,1.1,0.9,2.1,2,2.5c0.3,0.1,0.6,0.2,0.9,0.2c0.1,0,0.3-0.1,0.4-0.2
		S632.8,273.6,632.7,273.6"/>
	<path class="st4" d="M699.8,258.2c1.6,0.6,1.7,2.5,1.4,4c-0.2,1.6-0.6,3.2-1.3,4.6c-0.3,0.6-1,1.8-1.8,2s-0.8-1.2-0.8-1.7
		c0.1-0.7,0.3-1.4,0.6-2c0.3-0.5,0.5-1.1,0.5-1.7c0-1.2-1.6-0.6-2.3-0.4l0.3,0.1c0-0.3,0-0.7,0-1c0.1-0.7,0.3-1.3,0.6-1.9
		c0.5-1.3,1.1-2.7,1.7-4c0.6-1.4,1.4-2.7,2.3-3.9c0.2-0.2,0.4-0.4,0.7-0.6c0.1,0,0.1,0,0.2,0c0.2,0.1,0.3,0.3,0.5,0.4
		c1.6,1.8,2.3,4.2,1.7,6.6c0,0.2,0.5,0.1,0.6-0.1c0.5-2.3,0-4.7-1.5-6.5c-0.2-0.3-0.5-0.5-0.8-0.7c-1.6-0.8-3.1,2.5-3.6,3.4
		c-0.7,1.3-1.3,2.7-1.9,4.1c-0.5,0.9-0.8,1.9-1.1,2.9c0,0.4,0,0.8,0,1.2c0,0.2,0.2,0.2,0.3,0.1c0.4-0.1,1.4-0.7,1.6-0.1
		s-0.3,1.4-0.5,1.8c-0.4,1-1.3,3.1-0.2,4s2.5-1.1,2.9-1.8c0.8-1.5,1.3-3.2,1.6-5c0.3-1.6,0.3-3.7-1.5-4.4
		C700.1,257.9,699.6,258.2,699.8,258.2L699.8,258.2z"/>
	
		<linearGradient id="SVGID_1_" gradientUnits="userSpaceOnUse" x1="12187.6904" y1="34.5057" x2="12199.0303" y2="133.4757" gradientTransform="matrix(1.02 -4.000000e-02 -3.000000e-02 -1 -11776.1113 833.1956)">
		<stop  offset="0.16" style="stop-color:#A66E53"/>
		<stop  offset="0.53" style="stop-color:#A66E53"/>
		<stop  offset="0.62" style="stop-color:#7C523E"/>
		<stop  offset="0.75" style="stop-color:#472F23"/>
		<stop  offset="0.86" style="stop-color:#201510"/>
		<stop  offset="0.94" style="stop-color:#090604"/>
		<stop  offset="0.99" style="stop-color:#000000"/>
	</linearGradient>
	<path class="st14" d="M709.3,238.6c0.1-3.9,0.2-9,0.8-15c1.6-15.8-26-27.4-41.2-28.8c-8.4-0.8-36,4.3-43,8
		c-6.7,3.6-11.5,0.1-11.8,12.8c-1.4,5.2-0.3,17.4,0.3,20.9c-0.2-3.1-1-6.5,0-9.2c0,0-0.7-8.4,3-11.8c2.7-2.5,3-2.1,6.6-2.9l0.6-0.1
		c1.2-0.2,2.4-0.5,3.6-0.7c3.5-0.4,13.1-1.6,17.7-2.2c10.6-0.9,17.3-0.6,21.8,0c3.8,1.4,8.3,8.2,12.5,13.6
		c-0.5,4.1-1.1,8.8-0.6,10.3c0.8,2.3,5.5,8.6,7.9,15.3l0.8,5.4c0,1.1,0.2,4.1,0.3,6.8c0.5,0.3,1.9,4.5,2.8,4.4
		c2.4-0.2,2.3-5.9,2.9-8.1c1-3.5,1.9-6.5,4.8-9c1.3-0.9,2.8-1.3,4.3-1.1c1.7-0.1,3,1.2,3.8,2.3L709.3,238.6z"/>
	<path class="st15" d="M660.9,185.8c-11.4-0.6-23.5,0.5-33.7,5.9c-7.1,3.8-10.5,8.1-12.2,14.7c0,0.3-0.6,4.4-0.5,4.6
		c0.3,0.9,1.2-0.9,2.2-0.9l53.9-5.4c8.8-0.2,18.3-0.3,25.5,4.8c3.2,2.3,9.7,12.4,13.4,13.7c1.1,0.4,0.7-5.7,0.4-8.6
		C709.7,191.5,679.3,186.8,660.9,185.8z"/>
	<path d="M614.8,234.2l1.9,0.2c5.3,0.8,10.4,2.7,14.9,5.5c-0.4,1.1-1.2,1.8-1.6,2.9c-0.3,0.8-1.3,2-1.6,2.8
		c-1.9-1.6-2.9-2.5-4.2-3.4c-2.6-1.8-5.3-3.6-8.5-4.3c-0.2-0.1-1.1-0.3-1.3-0.4C613.1,235.7,614.2,234.2,614.8,234.2z"/>
	<path d="M609.1,248.9l0.2,0.8c1.5,5.3,3.2,11,4.8,12.5c1,1,3.4,1.2,6.2,1.4c1,0.1,2,0.1,2.7,0.1s8.1,0.1,9.3-1.1s3.1-9.7,3.6-12.4
		l6.4-0.4c0.9,2.1,2.7,11,5.8,12.7s19.1,0.6,20.5-1.6c1.9-3.3,3.4-6.7,4.6-10.3l1.2-3.8l22,4.5l1.6-2l-23.8-4.4l0,0
		c-11.7-3.7-24.9-1.2-31.9,3.4l-6.2,0.5l0-0.1c-7.4-5.1-18.4-5.5-27.5-1l0.3,1 M631.5,261.8c-1.3,1.1-14.9,1.3-16.7-0.4
		c-1.5-1.4-3.7-9.1-4.5-11.9v-0.1c8.2-3.5,18-3.2,24.4,1.1C633.8,255.1,632.3,261.1,631.5,261.8L631.5,261.8z M666.7,260.3
		c-0.9,1.4-14.8,3-18,1.2c-2.3-1.2-3.7-7.7-4.8-11.4c6.8-4.4,21-6.6,28.7-3.3C671.3,251.4,669.3,256.9,666.7,260.3L666.7,260.3z"/>
	<path class="st2" d="M641.7,243.6c-1.4-2.5-0.7-5.7,1.6-7.4c0.1-0.1,0.1-0.1,0-0.2c-0.2,0-0.4,0-0.5,0.1c-2.4,1.8-3.1,5-1.8,7.6
		C641.1,244,641.8,243.7,641.7,243.6L641.7,243.6z"/>
	<path class="st10" d="M640.7,281.7c4.6-0.4,14.8,1.5,17,3c0,0-4.3,5.2-14.9,6s-13.2-3.7-13.2-3.7S634.8,282.2,640.7,281.7z"/>
	<path class="st11" d="M653.2,283.2c0,0-5.5,0-9.8,0.4s-9.7,1.2-9.7,1.2s-0.9-3,6.9-3.6S653.2,283.2,653.2,283.2z"/>
	<path class="st12" d="M642.7,290.8c4.9-1.1,9.1-5.9,14.9-6c0,0-2.4,9.3-14.8,10.3s-13.3-8.1-13.3-8.1
		C635.3,286.2,637.7,290.5,642.7,290.8z"/>
	<path class="st12" d="M635.1,279.8c2.6-0.4,4.3,0.4,5.5,0.3s2.7-1.2,5.3-1.2c2.5,0,13.3,4.9,12.2,5.7s-9.5-2.7-17.3-2.1
		s-10.3,5-11.6,4.4S632.6,280.2,635.1,279.8z"/>
</g>
<g id="Layer_4">
	<polyline class="st16" points="1321.3,1087.1 -8.7,1087.1 -8.7,970 1321.3,970 	"/>
	
		<rect x="645.3" y="932.2" transform="matrix(0.9999 -9.999500e-03 9.999500e-03 0.9999 -9.384 6.6583)" class="st17" width="31.8" height="19.1"/>
	<path d="M690.3,968.9c0,0,5,5.9,3.7,9.1s-15.7,5.1-19.4,5.8s-52.3,10.4-57.2,10.9s-31.2,1.3-35.4-4.2c0,0-7.1-9.2,1.4-13.3
		s15.1-3.4,23-8.2c9.1-5.7,17-13,23.5-21.5c0,0,7.4-7.8,11.3-7s8.8,7.9,12.1,9.4s18.3,2.6,21.5-5.2s4.5-5,7.5-4.2s8.9,13.4,8.2,19.5
		S690.3,968.9,690.3,968.9z"/>
	<path class="st0" d="M637.5,950.2L637.5,950.2c0.3-0.4,0-1.2-0.7-1.7l-5.3-3.4c-0.7-0.5-1.6-0.5-1.9-0.1v0c-0.3,0.4,0,1.2,0.7,1.7
		l5.3,3.4C636.3,950.6,637.2,950.6,637.5,950.2z"/>
	<path class="st0" d="M632,953.6l0.1-0.2c0.2-0.3-0.1-0.9-0.8-1.3l-3.9-2.5c-0.7-0.4-1.4-0.5-1.6-0.2l-0.1,0.2
		c-0.2,0.3,0.1,0.9,0.8,1.3l3.9,2.5C631,953.8,631.8,953.9,632,953.6z"/>
	<path class="st0" d="M627.5,956.8l0.2-0.3c0.2-0.3-0.1-0.8-0.7-1.2l-2.8-1.8c-0.6-0.4-1.3-0.5-1.5-0.2l-0.2,0.3
		c-0.2,0.3,0.1,0.8,0.7,1.2l2.8,1.8C626.6,956.9,627.3,957,627.5,956.8z"/>
	<path class="st0" d="M624,960l0.2-0.3c0.2-0.3,0-0.9-0.6-1.3l-2.8-1.8c-0.6-0.4-1.3-0.4-1.5-0.1l-0.2,0.3c-0.2,0.3,0,0.9,0.6,1.3
		l2.8,1.8C623,960.3,623.7,960.4,624,960z"/>
	<polygon class="st17" points="725.2,959.5 693.2,961.2 695.1,937.8 726.8,940.5 	"/>
	<path class="st18" d="M746.5,556.9l2.9,21.9c2.4,18.4,2.3,37-0.4,55.3l-16.9,115.9c0,0,4.2,71.1,6.8,111.4c2.3,34.9-4.4,87-4.4,87
		l-55.6-1.5l-29.6-190.1l5.5-130.8l-18.8-66.1L746.5,556.9z"/>
	<path class="st18" d="M595.6,564.6l6.3,188.4c-0.1,9.7,1.4,19.3,4.5,28.5l32.4,146.4l2.3,9.3l42.6,2.1l-25.3-382.4L595.6,564.6z"/>
	<path class="st19" d="M676,930.2l-2.3-14.7l-5.5-35.9l-6.9-44.6l-6.3-40.9l-3.8-24.7c-0.4-3.1-0.5-6.2-0.4-9.4l0.2-33.7l0.3-44.8
		l0.2-37.2l0.1-9.5c-0.1-2.7-0.9-5.2-2.2-7.5c-1.9-3.8-4.7-7-8.7-8.6c-0.6-0.2-3,0.7-2.2,1.1c4.2,1.7,7.1,5.6,8.8,9.7
		c0.8,1.5,1.3,3.1,1.6,4.8c0.1,1.9,0.1,3.8,0,5.8l-0.2,32.6l-0.3,44.7l-0.2,37.8l-0.1,10.3c0,0.8,0,1.7,0.1,2.5
		c0.9,6.4,2,12.8,3,19.2l5.9,38.1l6.9,44.7l6,39l3.1,20.9l0.2,1C673.4,931.6,676.1,931,676,930.2L676,930.2z"/>
	<path class="st11" d="M630.4,992.1c-1.9-2.2-3.8-5-3.7-8.1c0.1-2.1,1.1-4.2,2.8-5.4c1.7-1.3,3.5-1.5,5.6-1.5c3,0,6-0.3,9-0.8
		c11.8-2.2,21.3-9.5,30.2-17.2c3.3-2.9,6.6-5.9,9.8-9.1c0.5-0.5-0.4-0.7-0.7-0.7c-0.7,0-1.3,0.2-1.8,0.7c-2.7,2.7-5.6,5.3-8.5,7.9
		c-4.9,4.5-10.1,8.5-15.7,12c-4.7,2.9-10,4.7-15.5,5.4c-5.1,0.7-10.4-0.3-14.7,3.1c-1.8,1.4-3,3.5-3.2,5.9c-0.2,3.4,1.7,6.4,3.9,8.8
		C628.5,993.7,631,992.8,630.4,992.1L630.4,992.1z"/>
	<path d="M738.1,979.8c0,0,1.6,6.7,0,9.8s-13.3,3.3-17.2,3.7s-53,5.7-57.9,5.8s-31.2-1.5-34.8-7.4c0,0-6.2-9.8,2.6-13.1
		s15.4-2,23.7-6.1c9.6-4.8,18.2-11.4,25.5-19.3c0,0,8.1-7.1,11.9-6s8,8.6,11.1,10.4s18,4.2,21.9-3.2s5-4.6,7.9-3.5
		s7.6,14.2,6.4,20.2S738.1,979.8,738.1,979.8z"/>
	<path class="st0" d="M687.3,956.5L687.3,956.5c0.4-0.5,0.1-1.2-0.6-1.8l-5-3.9c-0.7-0.5-1.5-0.6-1.9-0.2l0,0
		c-0.4,0.4-0.1,1.2,0.6,1.7l5,3.9C686.1,956.8,687,956.9,687.3,956.5z"/>
	<path class="st0" d="M681.6,959.4l0.1-0.2c0.3-0.3,0-0.9-0.6-1.4l-3.7-2.9c-0.6-0.5-1.3-0.7-1.6-0.4l-0.1,0.2
		c-0.3,0.3,0,0.9,0.6,1.4l3.7,2.9C680.6,959.5,681.3,959.6,681.6,959.4z"/>
	<path class="st0" d="M676.8,962.1l0.2-0.2c0.2-0.2,0-0.8-0.6-1.3l-2.6-2.1c-0.6-0.4-1.2-0.6-1.5-0.3l-0.2,0.2
		c-0.2,0.2,0,0.8,0.6,1.3l2.6,2.1C675.9,962.2,676.6,962.4,676.8,962.1z"/>
	<path class="st0" d="M673,965.1l0.3-0.3c0.3-0.3,0-0.9-0.5-1.3l-2.6-2.1c-0.5-0.4-1.2-0.5-1.5-0.2l-0.3,0.3c-0.3,0.3,0,0.9,0.5,1.3
		l2.6,2.1C672,965.3,672.7,965.4,673,965.1z"/>
	<path class="st20" d="M559.1,411.5c-0.4,0.6-0.8,1.2-1.1,1.8C558,413.3,558.4,412.7,559.1,411.5z"/>
	<path class="st21" d="M653.5,337.4c26.7,0.3,40.3-21.4,45.4-29.3c4.4,1.7,20.2,10.9,35.6,17.9c7,3.2,20.6,14.4,23.8,21.4
		c7.5,16.1,5.2,23.6,12,63.5L744,392.6v42.1c2.7,21.6,4.3,57.9,3.5,92.1c-0.1,4.6,1.5,19.6,1.4,24.2c-0.1,2.7,3.3,18.3,1.9,20.6
		s-9.5,0.5-12.1,1.4c-28,9.7-102.5,9.8-102.5,9.8c-11.7-1.5-21.5-2.3-31.8-7.3c-7.4-3.6-8.8-5.8-12.8-9.1c1.9-9.8,1.8-19.9,2-29.9
		c0.4-15.9,4.2-31.8,4.2-47.8c0-0.9-2.7-57.1-3.1-57.7c-1-12.1,1.6-28-4.7-30c-17.4-6-27.7,5.9-31,10.6c3-4.9,11.1-19.9,16.1-43.5
		c7.8-36.6,29.9-40.6,30-40.6l17.6-5.5l19.3-7c-4.4,5.6-11.2,21.5,8.2,22.6L653.5,337.4z"/>
	<path class="st20" d="M595.3,420.5c0.6-16.9-0.5-33.8-3.3-50.5c-0.2-1.1-3.2-0.4-3,0.8c2.8,16.5,3.9,33.3,3.3,50
		C592.3,422.1,595.3,421.5,595.3,420.5L595.3,420.5z"/>
	<rect x="780.8" y="60.2" class="st22" width="385.9" height="915.3"/>
	<rect x="771.6" y="54.2" class="st16" width="21.7" height="922.8"/>
	<path class="st11" d="M882.9,168.9c-4.8-4.1-11-4-16,0.2c-0.5,0.4-1,0.8-1.6,1.3c-0.4-14.8-13.3-24.1-25.1-16.3
		c-0.2-1-0.5-1.9-0.7-2.8c-3.2-12.7-15.3-19.2-25.5-13.5c-1.8,1-2.7,0.7-4-0.9c-4.2-5.2-10-8.8-16.5-10.2v70.7h28.8
		c17.6,0,35.2,0,52.8,0c6.1,0,11.1-4.4,12.9-11S887.6,172.9,882.9,168.9z"/>
</g>
<g id="Layer_7">
	<path class="st23" d="M34.6,970.6c0,0,0.1-0.1,0.1-0.2h-0.4L34.6,970.6z"/>
</g>
<g id="Layer_9">
	<path class="st1" d="M499.7,282c-0.9-4.9,0.4-17-2.1-17.3s-5.2,0.7-6.8,4.6s1.3,13.8-2.5,16.6c-2.8,2-4.9-0.7-4.9-0.7
		s-10-13-13.4-19s-7.9-10.4-9.6-8.8s-2.1,3.4,0.7,8.4s8.2,12.5,7.4,13.6s-2.6,0-4.2-2.9s-10.4-15.9-12.5-15.8
		c-1.9,0.1-3.4,1.8-3.3,3.7c0,0.2,0.1,0.5,0.1,0.7l0,0c0.4,1.7,1.2,3.2,2.3,4.5c4.7,5.4,11.3,13.5,12.7,17.2
		c-0.3,0.2-4.7-4.5-9.6-10.8l-3.7-5.5c-0.8-1.3-2.6-1.7-3.9-0.9c-0.1,0.1-0.2,0.1-0.2,0.2c-0.4,0.3-0.6,0.8-0.7,1.3
		c-0.4,2.4,2.4,5.4,2.4,5.4l12.1,16.9c0,0-0.4,1.7-1.4,1.7s-9.1-14.1-10.7-13.2s-3,0.2-1.3,4.9s8.5,14.8,12,17.8
		c2.2,1.9,7.5,8.7,11.1,13.4c2.1,2.7,5.4,4.2,8.9,3.9l11-1c0.5-0.1,10.6-4.6,11.9-15.4S500.5,286.9,499.7,282z"/>
	<path class="st2" d="M483.3,289.4c-2.6,2.1-4.4,5.1-5.1,8.3c-0.5,2.4-0.2,3.9-0.4,4l1.4,4.7C478.5,300.5,480,294.4,483.3,289.4z"/>
	<polygon class="st1" points="477.5,321.2 481.4,328.7 504.1,318.1 499.3,307.6 	"/>
	<path class="st1" d="M819.2,337l2.6-9l19.8,5.4l4.3,3.3L843,346C835.6,343.2,826.2,339.8,819.2,337z"/>
	<path class="st1" d="M871.7,286.4c-0.1-0.5-0.3-0.9-0.7-1.3c-1.1-0.9-2.8-0.8-3.7,0.3c-0.1,0.1-0.2,0.2-0.3,0.4l-2.9,4.5
		c-4.8,6.3-7.9,12.5-9.4,10.8c1.4-4,8-13.5,12.6-18.9l1.2-1.8c0.5-1.9-0.7-3.8-2.6-4.2c-0.2-0.1-0.4-0.1-0.7-0.1
		c-2-0.1-10.5,12.9-12.1,15.8s-3.3,4-4.1,2.9s4.5-8.6,7.1-13.5s2.3-6.8,0.5-8.3s-6.2,2.8-9.4,8.9s-12.9,19-12.9,19s-2.1,2.8-4.8,0.8
		c-3.8-2.7-1.2-12.6-2.8-16.4s-4.3-4.8-6.8-4.4s-1,12.3-1.8,17.2s-2.7,12.4-1.3,23.1s11.5,15,12,15.1l16.4,1.3
		c0,0,10.6-14.8,14-17.8s9.9-13.1,11.6-17.8s0.2-3.9-1.3-4.8s-9.3,13.2-10.3,13.3s-1.4-1.6-1.4-1.6l11.7-16.9
		C869.5,291.8,872.1,288.8,871.7,286.4z"/>
	<path class="st2" d="M831.5,306.9c3.1,1.1,5.8,3.1,7.7,5.9c1.3,2.1,1.5,3.5,1.8,3.5l0.4,4.9C839.7,315.5,836.3,310.4,831.5,306.9z"
		/>
	<rect x="1174.5" y="54.2" class="st16" width="26.6" height="922.8"/>
	<rect x="771.6" y="48.6" class="st16" width="429.5" height="22.8"/>
	<polygon class="st24" points="948,41.4 1180,72.5 1180,977 948,1010.7 	"/>
	<rect x="923" y="41.3" class="st25" width="25" height="968.6"/>
	<path class="st26" d="M986,523.8h40c2.7,0,4.8,3.2,4.8,7.2l0,0c0,4-2.2,7.2-4.8,7.2h-40c-2.7,0-4.8-3.2-4.8-7.2l0,0
		C981.2,527,983.3,523.8,986,523.8z"/>
	<path class="st26" d="M985.9,539.6c-0.3,0-0.6,0-0.9-0.1c-2-0.2-3.7-1.4-4.6-3.2c-0.6-1.3-0.9-2.6-1-4c-0.2-1.6-0.1-3.2,0.3-4.8
		c0.6-2.2,2.4-4,4.6-4.6c0.4-0.1,5.9-0.9,5.9-0.5v-25.9c0-7.5-4.2-13.6-9.4-13.6l0,0c-5.2,0-9.4,6.1-9.4,13.6v93.6
		c0,7.5,4.2,13.6,9.4,13.6l0,0c5.2,0,9.4-6.1,9.4-13.6V546c0-2.2,0-4.4,0-6.6C988.8,539.4,987.3,539.7,985.9,539.6z M983,578.3v5.3
		c0,1.2-0.7,2.1-1.5,2.1s-1.4-0.9-1.4-2.1v-5.3c-1.3-1-2-2.6-1.8-4.3c0-2.5,1.5-4.5,3.2-4.5s3.2,2.2,3.1,4.7
		C984.7,575.8,984.1,577.3,983,578.3z"/>
	<rect x="793.3" y="931.7" class="st27" width="129.7" height="43.3"/>
	<rect x="931.2" y="492.1" class="st26" width="9.7" height="99.2"/>
	<path class="st28" d="M983,578.3v5.3c0,1.2-0.7,2.1-1.5,2.1s-1.4-0.9-1.4-2.1v-5.3c-1.3-1-2-2.6-1.8-4.3c0-2.5,1.5-4.5,3.2-4.5
		s3.2,2.2,3.1,4.7C984.7,575.8,984.1,577.3,983,578.3z"/>
	<line class="st29" x1="771.6" y1="48.6" x2="793.3" y2="71.4"/>
	<line class="st29" x1="1201.1" y1="48.6" x2="1179.6" y2="72.8"/>
	<path class="st1" d="M276.8,938.4c0,0,35.5,37.6,45.7,40.5s8.6-6.8,8.6-6.8s-18.3-20.5-25.1-32.7c-7.3-13,50.1-88.7,50.1-88.7
		l-42.6-39.9l-13.3,43.9l-17.5,77.6L276.8,938.4z"/>
	<path class="st1" d="M250.8,961.3c0,0,44.3,26.7,54.9,26.7s9.4-7.2,9.4-7.2s-24.2-27.5-37.7-33.3c-4.8-2.1,26.7-127.7,26.7-127.7
		l-59.2,2.6l10,131.4L250.8,961.3z"/>
	<path class="st1" d="M292.1,890.7c9.7,4.1,19.9,6,30.2,7.5c-10,21.3-26.9,33.4-16.2,41c7.6,5.4,28.9,27.8,28.9,27.8
		s-2.2,14.7-12.4,11.8s-45.7-40.5-45.7-40.5l5.8-6.1L292.1,890.7z"/>
	<path class="st30" d="M353.8,548.5l5.6,24c6.2,26.8,11.5,86.7,9.1,159.2l-3.7,131l-0.1,9.6c8.6,0.3-34.9,4.9-43.8,3
		c-13.1-2.8-26.7-3.1-39.9-0.8l-6.8,1.1c-13.5,2.2-27.4,0.5-40-4.9l-21-12.2c0,0,27.6-123.4,2.2-211c-14.6-50.6,13.5-86,27.2-107.9
		L353.8,548.5z"/>
	<path d="M349.4,986.8c0,0,4.2-4.2,1.2-6.5c-10.7-7.8-15.5-14.2-17.5-14.6c1.1,0.9-0.9,4-5.2,3.6s-11.3-1.6-20.4-7.1
		c-6.8-4.1-17-12.4-22.1-18.5c-1.7-2-4.7-8.1-9.7-8.4c-3.5,2.3-10.5,14.5-7.9,18s23,12.9,23,12.9l16.8,11.2l17.2,7.4l7.5,2.7
		l7.9,0.2L349.4,986.8z"/>
	<path class="st31" d="M267.2,952.1c2,1.6,8.8,5.5,15,8c16.7,6.7,21.5,10.9,26.5,14.6c2.9,2.2,5.9,4.3,9,6.1
		c18.3,10.6,32.1,4.7,32.6,4.6c0.2,0.3,0.2,0.7,0.1,1.1c-1.7,0.6-3.4,1.2-5.1,1.6c-4.7,1.2-15.1,2.7-29.4-5.2
		c-3.1-1.6-6.1-3.4-9-5.4c-5.2-4-10.8-7.4-16.8-10l-1.2,2.7c0,0-18.2-6.2-24.8-12.5C265.4,953.5,267.2,952.1,267.2,952.1z"/>
	<path class="st31" d="M265,955.4c9.6,6.6,21.2,11.1,25,12.6l-1,2.3c0,0-18.2-6.2-24.8-12.5C264.4,957,264.7,956.2,265,955.4z"/>
	<path class="st1" d="M250.9,901.4c4.7,1.7,9.7,2.8,14.7,3.1c6.1,0.5,12.2,0.2,18.4,0.1c-3.3,25.8-12.1,43.3-3.6,48.5
		c11.5,7,39.1,22,39.1,22s-2.9,12.8-13.6,12.7S250.8,961,250.8,961l4-7.5L250.9,901.4z"/>
	<path d="M338.7,990.2c0,0,2.8-4.8-0.7-6.5s-19.8-9.8-21.8-9.6c-0.1,1.3,1.3,3.4-3.1,4.1s-12.7,1-23.3-2c-7.9-2.3-20-6.9-26.9-11.6
		c-2.3-1.5-7.1-6.6-12-5.7c-2.7,3-5.9,16.5-2.4,19.2s26.4,6.7,26.4,6.7l19.8,6.6l19.2,2.9l8.1,0.7l7.9-1.7L338.7,990.2z"/>
	<path class="st31" d="M247.7,977.1c2.4,1.1,10.3,3.2,17.2,4c18.4,2.3,24.4,5.2,30.4,7.5c3.5,1.4,7,2.7,10.6,3.6
		c21.1,5.6,32.9-3.4,33.4-3.6c0.2,0.3,0.4,0.6,0.5,1c-1.5,1-3,2-4.6,2.8c-4.2,2.3-14,6.3-30.4,2.3c-3.6-0.8-7.1-1.8-10.5-3
		c-6.2-2.6-12.8-4.4-19.5-5.5l-0.3,2.8c0,0-19.7-1.5-28.1-5.9C246.4,979,247.7,977.1,247.7,977.1z"/>
	<path class="st31" d="M246.6,980.8c11.4,4,24.2,5.5,28.2,5.9l-0.3,2.5c0,0-19.7-1.5-28.1-5.9C246.4,982.5,246.5,981.7,246.6,980.8z
		"/>
	<path class="st21" d="M605.1,336c-3.5-1.5-8-1-11.4,0.8c-9,4.5-9.4,5.1-22.1,20.1c-14.8,17.5-30.8,34.1-47.8,49.5l29,47.2
		c0,0,39.4-8.2,65.2-63.6C634.8,354.4,615.6,340.6,605.1,336z"/>
	<path class="st21" d="M563.7,449.6c0,0,2.2-15-7.5-40.4c-6.1-16-23.5-45-31.2-57.5c-19.9-32.4-19.5-34.9-19.5-34.9l-28,13.6
		c0,0,13.2,54.9,33,93.9C533,468.4,563.7,449.6,563.7,449.6z"/>
	<path class="st21" d="M699.1,309.2c-9.5,9.3-7.7,44.5-0.7,53.9c3.4,6.4,8.2,15.9,13,21.4c20.9,25.3,42.7,50.5,55,60.7
		c22.2,18.5,42.2,13.8,51.8,5.3s30.2-104,30.2-104l-27.7-14.7l-30,64.6c0,0-22.8-49.4-32.7-61.4S699.1,309.2,699.1,309.2z"/>
	<path class="st32" d="M596.1,425.4c-2.7-16.4-0.7-33.2-3.1-49.6c-0.1-0.8-2.4-0.3-2.2,0.6c2.4,16.4,0.4,33.2,3.1,49.6
		C594,426.8,596.2,426.2,596.1,425.4L596.1,425.4z"/>
	<path class="st32" d="M544.8,385.8c-0.5-0.1,0.2,0.1,0.3,0.2l0.2,0.1l0.3,0.2c0.3,0.2,0.5,0.4,0.8,0.6c1.8,1.9,3.2,4.1,4.1,6.5
		c1,2.5,1.9,5,2.6,7.6c0.2,0.6,2.4,0.1,2.2-0.6c-1-4.1-2.5-8.1-4.7-11.7c-0.8-1.5-2-2.7-3.4-3.7c-0.3-0.2-0.6-0.3-0.9-0.4
		c-0.6-0.1-1.1,0.1-1.6,0.4C544.2,385.5,544.3,385.7,544.8,385.8L544.8,385.8z"/>
	<path class="st32" d="M716.1,344c-2.6,3.5-3.2,8.7-3.8,12.9c-0.8,5.3,0.7,10.5,2.8,15.3c2.4,5.4,5.7,10.3,8.8,15.3l9.7,15.8l11,18
		c0.3,0.5,2.4-0.3,2.2-0.6l-19.2-31.5c-3.1-5-6.3-10-9-15.2c-2.5-4.8-4.4-10-4.2-15.5c0.2-2.7,0.6-5.5,1.3-8.1
		c0.4-2.4,1.3-4.8,2.7-6.9c0.2-0.3-0.8-0.2-0.9-0.2C717,343.5,716.5,343.7,716.1,344L716.1,344z"/>
	<path class="st32" d="M789.2,396.5c-4,7-6.2,14.9-6.5,23c0,1.2,2.4,0.8,2.4-0.2c0.3-7.9,2.4-15.7,6.3-22.6
		C792.1,395.5,789.7,395.6,789.2,396.5L789.2,396.5z"/>
	<path class="st23" d="M356.3,319.1c0,0,0,0.1,0.1,0.1l0.3-0.2L356.3,319.1z"/>
	<path class="st1" d="M269.6,361.2l0.9-20.7l12.5-12.8c0.1,0.1,0.2,0.1,0.3,0.2c0.9,0.7,1,2,0.3,2.8c0,0,0,0,0,0l4.9-4.4
		c3.6,2.5-1.3,9.8-1.3,9.8l5.8-6.2c3.1,3-0.3,8.2-0.3,8.2l-5.9,9.4c0,0-0.2,6.5,0.3,8.6s0.9,4.4,0.9,4.4l1.4-7.2l8.1-12.6
		c0,0,1.6,1.3,1.8,4.7s-4.8,11.1-4.8,11.1s1.5,21.3,0.6,25.6"/>
	<path class="st2" d="M270.2,361.1l0.8-16.8l0.2-3.4c0-0.6,0-0.4,0.4-0.8l6.3-6.4l5.8-5.9l-0.8,0.2c1,0.6,1.3,1.8,0.7,2.7
		c0,0.1-0.1,0.1-0.1,0.2c-0.2,0.3,0.6,0.1,0.7,0l4.8-4.4l-0.7,0.2c3,2.3,0.3,7.3-1.3,9.7c-0.2,0.3,0.6,0.1,0.7,0l5.9-6.2l-0.8,0.2
		c3.3,3.3-0.2,8-2.2,11L287,347c-0.7,1.1-0.5,2.5-0.5,3.8c-0.1,1.6,0,3.2,0.2,4.9c0.2,1.7,0.7,3.4,1,5.1c0,0.2,0.8,0,0.8-0.2
		l0.9-4.6c0.1-1,0.3-2,0.7-2.9c1.8-3.1,3.9-6.1,5.9-9.1l2-3.2l-0.8,0.2c1,1,1.6,2.4,1.7,3.8c0.1,1.8-0.3,3.6-1.1,5.2
		c-0.7,1.7-1.6,3.3-2.5,4.9c-0.5,0.6-0.8,1.2-1.1,1.9c0,0.6,0,1.1,0.1,1.7l0.2,3.8c0.2,3.5,0.4,7.1,0.5,10.6
		c0.1,3.1,0.4,6.4-0.2,9.4c0,0.2,0.8,0.1,0.8-0.1c0.4-2.6,0.4-5.3,0.2-7.9c-0.1-3.7-0.3-7.4-0.5-11c-0.1-1.4-0.2-2.8-0.3-4.2
		c-0.1-0.8-0.2-1.5-0.2-2.3c0.2-0.6,0.5-1.1,0.9-1.6c0.9-1.5,1.7-3.1,2.5-4.7c0.9-1.7,1.4-3.6,1.4-5.5c0-1.6-0.7-3.1-1.8-4.3
		c-0.2-0.2-0.7,0-0.8,0.2l-5,7.8l-2.7,4.2c-0.4,0.8-0.7,1.6-0.7,2.4l-1,5.3l0.8-0.2c-0.2-1.6-0.6-3.1-0.9-4.6
		c-0.2-1.4-0.3-2.7-0.3-4.1c0-1.5-0.4-3.5,0.4-4.8c1.9-3,4-6.2,5.7-9.1c1.4-2.4,2.3-5.8,0.1-8c-0.2-0.2-0.6,0-0.8,0.2l-5.8,6.1h0.7
		c1.6-2.5,4.4-7.6,1.3-10c-0.2-0.1-0.6,0-0.7,0.2l-4.9,4.4h0.7c0.7-0.9,0.6-2.3-0.4-3c-0.1-0.1-0.1-0.1-0.2-0.2
		c-0.3-0.1-0.5,0-0.8,0.2l-11.7,12c-0.3,0.2-0.6,0.6-0.8,0.9c-0.1,0.8-0.2,1.7-0.1,2.6l-0.5,10.4l-0.4,7.6
		C269.4,361.5,270.2,361.4,270.2,361.1L270.2,361.1z"/>
	<path class="st2" d="M279.4,354.1c0-2.2,0-5.2,0.1-8.6v-0.9v-0.1l0.1-0.1c2-2.4,3.9-4.5,5.3-6c0.7-0.9,1.5-1.6,2.3-2.3
		c-0.5,1-1.2,1.9-1.9,2.7c-1.2,1.6-3,3.8-5.1,6.2l0.1-0.3c0,0.3,0,0.6,0,0.9c-0.1,3.4-0.2,6.4-0.3,8.6c0,1.2-0.1,2.4-0.4,3.6
		C279.4,356.5,279.3,355.3,279.4,354.1z"/>
	<path class="st2" d="M274.3,348.1c0-2,0-4.8,0-8v-0.2l0.1-0.1l0.7-0.7c2.3-2.4,4.5-4.6,6.1-6.2c0.8-0.9,1.7-1.7,2.7-2.4
		c-0.6,1-1.4,2-2.3,2.8c-1.5,1.6-3.6,3.9-5.9,6.3l-0.7,0.7l0.1-0.3c-0.1,3.2-0.2,6-0.3,8c0,1.1-0.1,2.2-0.3,3.2
		C274.3,350.2,274.2,349.2,274.3,348.1z"/>
	<path class="st2" d="M358.5,356.8c0.5-2.2,1-5.1,1.6-8.5l0.2-0.9v-0.1l-0.1-0.1c-1.5-2.7-3-5.2-4-6.9c-0.5-1-1.1-1.9-1.8-2.7
		c0.3,1,0.8,2.1,1.3,3c0.9,1.8,2.2,4.3,3.8,7v-0.3c0,0.3-0.1,0.6-0.2,0.9c-0.6,3.3-1.1,6.3-1.4,8.5c-0.2,1.2-0.4,2.4-0.3,3.6
		C358,359.2,358.3,358,358.5,356.8z"/>
	<path class="st33" d="M261.4,367.5c0,0-30.3,4.1-40.2,20c-13.4,21.8-39.2,141.1,10.2,128.2c35.7-9.3,38-93.6,38-93.6l-6.5-45.7"/>
	<path class="st33" d="M354.6,523.2c0,4.3,6.1,44.7,7,48.8l-6.4,2.1c-7.8,3-16,5-24.4,5.8l-17.2,1.7c-13.5,1.1-46.9-2.7-60-6
		c-13.3-3.4-26.2-6-33.4-10.2l15.9-38.4l3-7.1l-15.6-128.4l22.9-19.4l16.9-5.1l5.2,6.4c5.7,7.1,15.6,13.3,25,13.5
		c2.8,0.1,10.2-0.1,13.2-0.4c8.2-0.9,13.1-7.6,11.6-16.1c0-0.3,16.4,4.3,17.6,4.4c6.5,0.9,18.6,5.1,20.1,7.6c0,0,4.5,67,4.6,76.9
		C360.7,466,354.3,482.3,354.6,523.2z"/>
	<path class="st33" d="M338.9,371.5c0,0,18.5,6.5,24.8,14.8s30.7,79.8,29.2,94.6s-11.4,24.2-20,24.5s-16.5-5.7-19.9-10
		c-4.8-6-3.3-10.8-3.3-10.8L338.9,371.5"/>
	<path class="st1" d="M299.6,344.9c0.2,3.5-5,11.4-5,11.4s1.6,21.9,0.7,26.3c-0.2,1.1-5.4,4.3-6.8,7.3c-2.6,6-4.6,12.2-5.8,18.6
		l-17.2-14.7l5.1-10.4l-1.4-22.4l1-21.3l12.8-13.1c0.1,0.1,0.2,0.1,0.3,0.2c0.9,0.7,1,2,0.3,2.9l5-4.5c3.7,2.6-1.3,10.1-1.3,10.1
		l6-6.4c3.2,3-0.3,8.4-0.3,8.4l-6,9.7c0,0-0.3,6.6,0.3,8.8s0.9,4.5,0.9,4.5l1.4-7.4l8.3-12.9C297.9,340.1,299.5,341.5,299.6,344.9z"
		/>
	<path class="st2" d="M270.4,375.5c-0.2-6.5-0.6-12.9-0.3-19.3l0.6-14.3c0-0.6,0.1-1.2,0.1-1.9c0-0.1,0-0.2,0-0.3c0,0.2,0,0.1,0.1,0
		c1.1-1.3,2.3-2.5,3.5-3.6l9.1-9.3l-0.7,0.1c0.9,0.6,1.2,1.8,0.6,2.8c0,0-0.1,0.1-0.1,0.1c-0.2,0.4,0.6,0.2,0.7,0.1l5-4.5l-0.7,0.1
		c3,2.3,0.2,7.5-1.4,9.9c-0.2,0.4,0.6,0.3,0.7,0.1l6-6.4l-0.7,0.1c3.4,3.4-0.4,8.3-2.4,11.5l-3.6,5.8c-0.8,1.2-0.5,2.9-0.5,4.3
		c0,1.6,0,3.2,0.2,4.7c0.3,1.7,0.7,3.4,1,5.1c0,0.3,0.8,0.1,0.8-0.1l0.9-4.6c0.1-1,0.3-2,0.7-3c2-3.1,4-6.2,6-9.3l2.1-3.3l-0.8,0.1
		c1.3,1.1,1.8,3.3,1.8,5c-0.2,1.9-0.8,3.8-1.8,5.5c-0.8,1.6-1.7,3.2-2.7,4.8c-0.3,0.3-0.5,0.8-0.5,1.2c0,2.5,0.3,5.2,0.5,7.7
		c0.2,4,0.4,8,0.4,12c0,1.7,0,3.4-0.1,5.1c0,0.6-0.2,1.2-0.5,1.8c-0.9,1.4-2.6,2.4-3.8,3.3c-0.4,0.3,0.2,0.5,0.5,0.3
		c1.5-1.1,4.1-2.5,4.5-4.6c0.2-1.3,0.3-2.6,0.2-3.9c0-4-0.1-7.9-0.3-11.8c-0.2-3.2-0.3-6.3-0.6-9.5c0-0.3-0.1-0.5-0.1-0.8
		c0-0.2,0,0.1,0,0c0.1-0.2,0.2-0.3,0.3-0.5c1-1.5,1.8-3.1,2.6-4.7c0.9-1.9,2-4,2.1-6.1c0-1.7-0.5-4-1.9-5.1
		c-0.3-0.2-0.6-0.1-0.8,0.1l-5.2,8.1l-2.8,4.3c-0.4,0.7-0.6,1.6-0.7,2.4l-1,5.5l0.8-0.1c-0.3-1.6-0.6-3.1-1-4.7
		c-0.2-1.5-0.3-2.9-0.3-4.4c0-1.6-0.3-3.5,0.4-4.8c2-3.1,4-6.2,5.9-9.4c1.5-2.5,2.4-5.9,0.1-8.2c-0.2-0.2-0.5-0.1-0.7,0.1l-6,6.4
		l0.7,0.1c1.7-2.6,4.5-7.9,1.2-10.3c-0.2-0.1-0.5,0-0.7,0.1l-5,4.5l0.7,0.1c0.8-1,0.6-2.4-0.4-3.2c-0.1-0.1-0.2-0.1-0.3-0.2
		c-0.2-0.1-0.5,0-0.7,0.1l-7.9,8.1l-4.3,4.4c-0.5,0.4-0.7,1-0.7,1.6l-0.6,13.7c-0.1,2.6-0.4,5.3-0.2,7.9l0.5,13.4
		C269.5,376.1,270.4,376,270.4,375.5L270.4,375.5z"/>
	<path class="st2" d="M279.3,353.7c0-2.3,0-5.4,0.1-8.8v-1v-0.1l0.1-0.1c2.1-2.5,4-4.6,5.4-6.2c0.7-0.9,1.5-1.7,2.4-2.4
		c-0.5,1-1.2,1.9-1.9,2.7c-1.2,1.6-3.1,3.9-5.2,6.4l0.1-0.3c0,0.3,0,0.6,0,0.9c-0.1,3.5-0.2,6.6-0.3,8.8c0,1.2-0.1,2.5-0.4,3.7
		C279.3,356.2,279.2,355,279.3,353.7z"/>
	<path class="st2" d="M274,347.5c0-2.1,0-5,0-8.2v-0.2l0.1-0.1l0.7-0.7c2.4-2.5,4.6-4.7,6.2-6.3c0.8-0.9,1.8-1.7,2.8-2.5
		c-0.7,1-1.4,2-2.3,2.9c-1.5,1.7-3.7,4-6.1,6.5l-0.7,0.7l0.1-0.3c-0.1,3.3-0.2,6.1-0.3,8.2c0,1.1-0.1,2.2-0.4,3.3
		C274,349.8,274,348.7,274,347.5z"/>
	<path class="st34" d="M238.9,514.1c5.5-3.9,10.5-8.5,14.8-13.8c4-4.6,7.3-9.8,9.9-15.3c1.4-3,2.5-6,3.7-9.1
		c6.3-16.8,11.6-34,16.8-51.2c1.4-4.5,2.8-9,4.1-13.6c0-0.1,0-0.2-0.1-0.2l-4.3-3.9c-0.5-0.4-1.8,0.2-1.3,0.6l3.6,3.2
		c0.2,0.2,0.4,0.4,0.6,0.5s0-0.2,0-0.1c0,0.1-0.1,0.3-0.1,0.4c-0.6,1.7-1.1,3.6-1.6,5.4c-2.4,7.8-4.8,15.6-7.2,23.4
		c-3,9.6-6.1,19.1-9.5,28.6c-3,8.6-6.1,17.3-11.3,24.9c-5.1,7.4-11.5,13.9-18.8,19.2l-0.4,0.3C237.1,514,238.3,514.4,238.9,514.1
		L238.9,514.1z"/>
	<path class="st34" d="M217.1,477.6c0.7-10.9,6.3-21.2,12.2-30.1c2.1-3.1,4.2-6.1,6.6-8.9c0.6-0.7,1.2-1.4,1.7-2.2l19.2-33l7.1-12.2
		l-1.2,0.3l1.8,1.5c0.5,0.4,1.7-0.3,1.1-0.8l-1.8-1.5c-0.4-0.2-1-0.1-1.2,0.3l-17.5,30.1l-8.5,14.6c-0.2,0.3-0.4,0.7-0.6,1
		c0,0.1,0.1-0.2,0,0s-0.4,0.5-0.6,0.7c-2,2.4-3.9,5-5.8,7.6c-6.7,9.6-13.1,20.8-13.9,32.7C215.7,478.4,217.1,478.2,217.1,477.6
		L217.1,477.6z"/>
	<path class="st34" d="M232.1,386.3c2,0.5,3.8,1.4,5.5,2.5c4.2,2.8,7.5,6.8,9.5,11.4c1.6,3.9,2.6,8.1,2.9,12.3
		c0.1,0.6,1.5,0.3,1.4-0.4c-0.9-10.8-5.9-21.7-16.4-26c-0.7-0.3-1.4-0.5-2.1-0.7C232.4,385.3,231.2,386.2,232.1,386.3L232.1,386.3z"
		/>
	<path class="st35" d="M333,375.8c-1.5,15.1-4.5,30.1-9,44.7c-14,44.7-41.1,113.4-68.4,131.7l-17.1,9.5l-2.4,6.2
		c0,0,25.2-8.4,38.1-23.5c25-29.1,50.2-105.7,55.1-117.3s10.1-51.6,10.1-51.6L333,375.8"/>
	<path class="st34" d="M355.8,497.7c-1.4-3.2-2.5-6.5-3.6-9.9c-2.8-8.3-5.1-16.8-6.9-25.4c-2.2-11.3-3.7-22.7-4.4-34.2
		c-0.6-7.8-1-15.6-1-23.5c-0.1-2.8,0-5.5,0.2-8.3l-0.6,0.5l20.2-6.3l2.9-0.9l-0.9-0.3c2.7,6.8,5.4,13.6,8,20.5
		c4.7,12.3,9.4,24.6,13.6,37.1c1.7,4.7,3.1,9.6,4.1,14.5c0.1,0.6,1.5,0.3,1.4-0.4c-0.8-4.3-2-8.5-3.5-12.5c-1.9-6-4.1-11.9-6.2-17.9
		c-4.2-11.5-8.6-22.9-13.1-34.3c-1-2.5-1.9-4.9-2.9-7.4c-0.2-0.3-0.5-0.4-0.9-0.3l-20.2,6.3l-2.9,0.9c-0.2,0.1-0.6,0.2-0.6,0.5
		c-0.2,2.2-0.2,4.4-0.2,6.6c-0.1,7,0.2,14.1,0.7,21.1c0.6,11.5,1.9,22.9,3.9,34.2c1.7,9.2,4,18.3,6.9,27.2c1.3,4.2,2.8,8.4,4.5,12.4
		C354.6,498.7,356.1,498.3,355.8,497.7L355.8,497.7z"/>
	<path class="st35" d="M226.1,548.8c8.4-0.5,16.9-0.3,25.3,0.6c2.6,0.3,5.3,0.7,7.2,2.1c2.4,1.9,2.4,4.8,2.3,7.5
		c-0.6,14.4-2.3,28.7-5,42.9c-0.1,1.1-0.6,2.1-1.3,2.9c-1.1,1-2.9,1.2-4.5,1.3c-13.6,1-24.4,2.1-38,0.7c-3.7-0.4-8-1.2-9.5-3.9
		c-1.2-2.1-0.3-4.5,0.6-6.6c1.4-3.4,4.6-24.2,5.6-27.8C214.6,549.4,217.7,548.5,226.1,548.8"/>
	<path class="st36" d="M252.1,553.2c-1.6,7.2-6.7,13.1-13.4,16c-4.1,1.7-8.7,2-13.1,2.1c-4.8,0-9.6-0.2-14.3-0.7
		c-0.8-0.1-1.5,0.2-1.9,0.9c-0.2,0.5,0.1,1,0.6,1.2c0.1,0,0.2,0.1,0.3,0.1c7.8,0.8,16.1,1.3,23.9-0.1c6.6-1.1,12.5-4.8,16.5-10.1
		c2.1-2.8,3.6-6.1,4.4-9.5C255.4,551.6,252.4,551.9,252.1,553.2L252.1,553.2z"/>
	<path class="st37" d="M218,569.2c-1-0.2-2-0.2-3-0.1c-1,0.1-1.9,0.6-2.5,1.4c-0.4,0.6-0.6,1.3-0.6,2c-0.1,1.4,0.4,2.8,1.4,3.8
		c1,1,2.5,1.4,3.9,0.9c1-0.4,1.9-1.2,2.4-2.2c0.3-0.5,0.5-1.1,0.6-1.7C220.2,571.7,219.4,570.1,218,569.2"/>
	<path class="st1" d="M333.5,340.8c-0.4,3.3,3.9,11.5,3.9,11.5s-3.2,21.1-2.7,25.5c0.1,1.1,4.9,4.6,6,7.6c3.3,9.1,2.6,10.9,2.6,10.9
		l18.3-5.7l-3-10.1l3.1-21.6l0.7-20.7l-11.4-13.7c-1,0.4-1.5,1.6-1.1,2.6c0.1,0.1,0.1,0.3,0.2,0.4l-4.5-4.8
		c-3.8,2.2,0.5,9.9,0.5,9.9l-5.3-6.6c-3.4,2.7-0.4,8.1-0.4,8.1l5.1,9.9c0,0-0.3,6.5-1,8.5s-1.2,4.3-1.2,4.3l-0.8-7.3l-7-13.2
		C335.7,336.3,333.9,337.5,333.5,340.8z"/>
	<path class="st2" d="M350.6,324.3c-1.1,0.5-1.6,1.8-1.1,2.9c0,0.1,0.1,0.2,0.1,0.3l0.8-0.3l-4.5-4.8c-0.1-0.1-0.6,0-0.7,0.1
		c-3.3,2.1-1.1,7.4,0.4,10l0.8-0.2l-5.3-6.6c-0.1-0.2-0.6,0.1-0.8,0.2c-3.4,2.9-0.8,7.5,0.8,10.6l3.3,6.3c0.2,0.4,0.4,0.8,0.6,1.2
		c0.1,0.9,0,1.8-0.1,2.6c-0.1,1.7-0.3,3.4-0.6,5.1c-0.4,1.7-1,3.4-1.4,5.1l0.8-0.2l-0.5-4.6c0-1-0.1-2-0.5-2.9
		c-1.5-3.3-3.4-6.4-5.1-9.6l-1.8-3.3c-0.1-0.2-0.6,0-0.7,0.1c-3,2.2-2.4,6.4-1.3,9.3c0.7,1.9,1.5,3.7,2.4,5.5
		c0.3,0.4,0.5,0.8,0.6,1.3c0.1,0.5,0.1,1,0,1.5c0,0.2,0.8,0,0.8-0.2c0.1-0.8-0.1-1.7-0.5-2.4c-0.8-1.6-1.6-3.3-2.2-5
		c-0.8-1.6-1.2-3.4-1.2-5.2c0.1-1.5,0.8-3.7,2.1-4.7l-0.7,0.1l4.3,8.1l2.4,4.4c0.4,0.8,0.5,1.6,0.5,2.5l0.6,5.4c0,0.2,0.8,0,0.8-0.2
		c0.8-2.7,1.5-5.5,1.9-8.4c0.1-1.3,0.2-2.5,0.3-3.8c0.1-0.4,0-0.7-0.1-1.1c-1.4-3.3-3.4-6.4-5-9.6c-1.3-2.5-2.1-6,0.3-8l-0.8,0.2
		l5.3,6.6c0.1,0.1,0.9-0.1,0.8-0.3c-1.4-2.5-3.7-7.8-0.6-9.8l-0.7,0.1l4.5,4.8c0.1,0.1,0.9-0.1,0.8-0.3c-0.6-0.9-0.4-2.1,0.5-2.7
		c0.1,0,0.1-0.1,0.2-0.1C351.5,324.2,350.8,324.2,350.6,324.3L350.6,324.3z"/>
	<path class="st2" d="M352.6,350.9c0.2-2.2,0.4-5.2,0.6-8.6l0.1-0.9v-0.1l-0.1-0.1c-1.8-2.5-3.5-4.8-4.8-6.4
		c-0.6-0.9-1.3-1.7-2.1-2.5c0.4,1,1,1.9,1.7,2.8c1.1,1.7,2.7,4,4.5,6.6l-0.1-0.3c0,0.3,0,0.6,0,0.9c-0.2,3.4-0.3,6.4-0.4,8.6
		c-0.1,1.2-0.1,2.4,0.1,3.6C352.4,353.3,352.5,352.1,352.6,350.9z"/>
	<path class="st2" d="M358.1,345.3c0.2-2,0.4-4.8,0.6-8v-0.2l-0.1-0.1l-0.6-0.8c-2.1-2.6-4.1-5-5.6-6.6c-0.7-1-1.6-1.8-2.5-2.6
		c0.5,1.1,1.2,2.1,2,3c1.4,1.8,3.3,4.1,5.4,6.8l0.6,0.8l-0.1-0.3c-0.2,3.2-0.3,6-0.4,8c-0.1,1.1-0.1,2.2,0.1,3.3
		C357.9,347.5,358.1,346.4,358.1,345.3z"/>
</g>
</svg>
