<svg xmlns="http://www.w3.org/2000/svg" xmlns:xlink="http://www.w3.org/1999/xlink" viewBox="0 0 1303.15 1057.31"><defs><style>.cls-1,.cls-24{fill:none;}.cls-2{fill:#e0e0e0;}.cls-3{fill:#6b421b;}.cls-4{fill:#392413;}.cls-5{fill:#25421d;stroke:#6b421b;stroke-width:21.66px;}.cls-20,.cls-22,.cls-23,.cls-24,.cls-5{stroke-miterlimit:10;}.cls-6{fill:#a66e53;}.cls-7{fill:#999;}.cls-8{fill:#fff;}.cls-9{fill:#1e485b;}.cls-10{fill:#24180f;}.cls-11{fill:#4f2e25;}.cls-12{fill:#513835;}.cls-13{fill:#231f20;}.cls-14{fill:#010101;}.cls-15{fill:#13110f;}.cls-16{fill:#653c29;}.cls-17{fill:#f1eef7;}.cls-18{fill:#273778;}.cls-19{fill:#3d3d3d;}.cls-20,.cls-22,.cls-23{fill:#151210;}.cls-20,.cls-22,.cls-23,.cls-24{stroke:#161311;}.cls-20{stroke-width:0.71px;}.cls-21{fill:#ce8d2a;}.cls-22{stroke-width:0.7px;}.cls-23{stroke-width:0.74px;}.cls-24{stroke-width:1.71px;}.cls-25{fill:#0d1737;}.cls-26{fill:#000018;}.cls-27{clip-path:url(#clip-path);}.cls-28{fill:#662160;}</style><clipPath id="clip-path"><rect class="cls-1" y="-1415.11" width="1303.15" height="1070.3"/></clipPath></defs><g id="Layer_10" data-name="Layer 10"><polyline class="cls-2" points="1337.06 1129.55 1337.06 -95.56 -50.28 -95.56 -50.28 1129.55"/><rect class="cls-3" x="172.76" y="889.93" width="1164.31" height="56.09"/><rect class="cls-4" x="326.04" y="902.02" width="873.93" height="5.76"/><rect class="cls-5" x="264.73" y="-95.57" width="1072.33" height="978.66"/><path class="cls-6" d="M876.2,1017.05a4.18,4.18,0,0,0,.46,2.22c3,5.87,18.05,30.2,20,54.17,1.78,21.58,4.38,52.92,5.29,63.78a4.22,4.22,0,0,1-4.49,4.58c-3.58-.28-8.42-2.44-11.78-10.84a165.7,165.7,0,0,1-7.09-28.42,4.27,4.27,0,0,0-7.13-2.47h0a4.25,4.25,0,0,0-1.31,3.65l4,30.09a4.25,4.25,0,0,0,2.92,3.49c5.79,1.87,19.75,7.19,24.25,16.32a4.23,4.23,0,0,1-3.8,6l-19.52.44a4.09,4.09,0,0,1-.78,0l-19.48-3.16a4.24,4.24,0,0,1-2.08-1l-18.45-15.66a4.28,4.28,0,0,1-1.27-1.84l-18.21-52.2a29.27,29.27,0,0,1-1.25-14.78,407.89,407.89,0,0,0,5.24-42.82c1.25-28,1.76-46.13,2-54.48a4.25,4.25,0,0,1,5.39-4l46.08,12.47a4.25,4.25,0,0,1,3.13,4.39Z"/><path class="cls-7" d="M907.48,408.28c-6.54,3-75.07,24.92-86.31,78.31s-.35,242.35-4.62,289.05c-5.72,54.46-10.64,90-12.7,159.9l5.4,74.9,38.14-3.26S888.84,749,909.8,674,907.48,408.28,907.48,408.28Z"/><polygon class="cls-8" points="813.18 1010.46 881.55 999.46 883.55 1018.77 817.29 1031.82 813.18 1010.46"/></g><g id="Layer_8" data-name="Layer 8"><path class="cls-9" d="M1210.41,880.51l7,50.36a438.46,438.46,0,0,1-.87,127.27l-40.92,266.54s10.19,163.51,16.64,256c5.62,80.22-10.58,200.12-10.58,200.12l-135-3.51-72-437.06L988,1039.69,942.39,887.77Z"/><path class="cls-9" d="M843.81,898.28l-.22,446.4a184.44,184.44,0,0,0,11,65.6l94.38,323.17,5.72,21.35,81.18-17.5L996.59,880.51Z"/></g><g id="Layer_9" data-name="Layer 9"><path class="cls-10" d="M951,287.47a4.16,4.16,0,0,1,.1.72v-.26a4.35,4.35,0,0,1-.24,1.56l.09-.25a5.07,5.07,0,0,1-.34.75c-.07.12-.18.24-.24.36l.11-.13-.09.1-.12.15a3.83,3.83,0,0,1-.28.29c-.09.08-.25.16.06-.05l-.16.12a3.78,3.78,0,0,1-.33.22c.37-.26.19-.1.07,0l-.21.1a1.63,1.63,0,0,0-.77.65.67.67,0,0,0,0,.73,1.78,1.78,0,0,0,2,.15,5.38,5.38,0,0,0,3.27-6,.81.81,0,0,0-.6-.52,2,2,0,0,0-1.1,0c-.53.16-1.38.6-1.22,1.3Z"/></g><g id="Layer_11" data-name="Layer 11"><path d="M1084.07,167.7a40.47,40.47,0,0,1-16.8,10.89,14,14,0,0,1-16.75-7.46c-.89-2.94-.81-6.52-3-8.44s-6.75-.95-10.34-.05c-12.13,3.1-28.53-8.45-33.4-20a11.25,11.25,0,0,1-14.32,5.22A38.49,38.49,0,0,1,978,140.26a17.68,17.68,0,0,0-15.61-5.16,42.46,42.46,0,0,1-9,3.37c-5.59.29-9.26-5.81-10.93-11.23s-3.25-11.78-8.36-14.06a22.29,22.29,0,0,0-15.2,1.88c-5,1.49-11.8,1.47-13.69-3.6a10.24,10.24,0,0,1,.8-8A27.74,27.74,0,0,1,936.9,88.39a37.66,37.66,0,0,1,67.35-17.08,38.18,38.18,0,0,1,62.41,5,27.68,27.68,0,0,1,36.61,35.2,26.29,26.29,0,0,1,17.27,18.59,15.06,15.06,0,0,1-12.16,17.47,15.76,15.76,0,0,1-2.47.23,15.33,15.33,0,1,1-24.15,18.89"/><path d="M882.88,162.35a20.7,20.7,0,0,1-14.39-38.6,21.5,21.5,0,0,1,13.39-38.56,25.79,25.79,0,0,1,35.47-26.45A29,29,0,0,1,952.58,53a20.56,20.56,0,0,1,22.94,32"/><path class="cls-6" d="M527.44,659.84l11.19-14.5s5.71-17.43,9.4-22.51,23.25-20.58,24.39-21,14.23-28.78,20-27.79,9.73,5.13,8,12.85-14.77,23-11.25,25.6a25.87,25.87,0,0,0,9.31,3.62s1.71-8.87,6.61-11.68,10.43,2,10.43,2l.08,3.85,4.89-4.35s5.3-17.81,13-17.62a31.22,31.22,0,0,1,7.71-10.1,6.63,6.63,0,0,1,9.26,1.42,6.51,6.51,0,0,1,.89,1.69h0l-14.28,40.32L598.6,663s-22.43,7.21-27,9.24l-8.37,11.44Z"/><path class="cls-11" d="M589.71,613.55c.3-.4-1.75-2.3-5-3.32s-6-.62-6-.07,2.47,1,5.39,2S589.43,614,589.71,613.55Z"/><path class="cls-11" d="M632.61,621.63a40.46,40.46,0,0,1,1-8.77c.86-5.45,2.19-13.06,3.83-21.81l.55,1.15c-1.33-.63-2.94-1.61-4.14-2a5.16,5.16,0,0,0-4,.47,11.77,11.77,0,0,0-4.77,5.61,40.88,40.88,0,0,0-2.59,7c-1.15,4.68-1.93,9.08-2.64,12.63a76.16,76.16,0,0,1-2.61,11.66c-.29,0,.06-4.55,1.07-11.93.52-3.66,1.14-8,2.23-12.84a41.5,41.5,0,0,1,2.6-7.41,13.66,13.66,0,0,1,5.71-6.64,7.47,7.47,0,0,1,5.67-.59,40.25,40.25,0,0,1,4.53,2.2l.72.35-.17.79c-1.75,8.75-3.35,16.31-4.58,21.69A40.52,40.52,0,0,1,632.61,621.63Z"/><path class="cls-11" d="M582.35,655.57a11,11,0,0,1,.2-1.73,23.68,23.68,0,0,1,1.67-4.53,59.88,59.88,0,0,1,10.16-14.39l-.23.36c2.73-7.73.49-19,7.65-28.95a9.09,9.09,0,0,1,7.35-3.16,13.22,13.22,0,0,1,7,2.57l.5.35v.61c-1.55,11.36-3,21.16-4.09,28.11a18.31,18.31,0,0,1-2.65,7.91c-1,1.67-1.72,2.44-1.83,2.25a14.9,14.9,0,0,1,1.2-2.71,19.46,19.46,0,0,0,2-7.81c.73-7,1.88-16.8,3.3-28.12l.42,1a11.51,11.51,0,0,0-5.87-2.08,7,7,0,0,0-5.63,2.45,16.75,16.75,0,0,0-3.37,6.79,68.9,68.9,0,0,0-1.68,7.4c-.44,2.48-.59,4.75-.91,7.2a41.29,41.29,0,0,1-1.57,6.68v.2l-.14.16a68.15,68.15,0,0,0-10.51,13.52C583.08,653.28,582.6,655.64,582.35,655.57Z"/><path class="cls-11" d="M538.63,645.34s3.87,9.31,17.24,12.42C555.87,657.76,538.4,658.71,538.63,645.34Z"/><path class="cls-12" d="M674.83,603.77a.87.87,0,0,0,.28,0l-.2-.65Z"/><path class="cls-6" d="M1087.74,369c.41,1.34,2.72,10.49,7,12.64-6.45,9.41-18.73,34.32-29.2,39.59-19.8,10-61.2,49.08-82.88,44.71-19.28-3.89-35.38-58.5-29.61-79.77,2.84-1.15,3.29-8.31,4-10.49,2-6.57.89-57.58.89-57.58l125.36-48.94S1075.52,329,1087.74,369Z"/><path class="cls-6" d="M892.31,235.51c-1.22-7.09-6.5-35.11-8.69-51.58-1.77-13.24,6.19-32.68,9.37-39.78,24.81-10.56,52.53-28.86,79.41-31.82,14.51-1.61,27.86,9.13,42.46,9.25,10,.09,21.6-10.4,31-7.17,4.89,11.79,5.14,43.27,5.14,43.27,16.39,10.49,24.78,34.43,25.17,43s4.72,26.58,4.72,26.58c2.12-3.37-1-21.18.13-24.91,1.15-3.27,7.52,3.37,8.67.1,3.66-7.6,13.66-6.38,19.49-2.47l5.42,3.79c7.12,7.79,1.44,35.12-6.21,46.71-2.16,3.27-2.39,3.88-2,7.77,1.92,16.9-13.64,24.22-23.52,12.57l-1.9,7.67-23.22,44.66c-17.33,21.39-33,42.18-63.42,43.89-10.9.61-44.74,8-52.89,1.7-7.9-6.09-11.28-16.68-17.24-24.51-5.4-7.08-8.69-15.78-13.52-23.35-10.8-16.94-20.59-42.5-20.3-62.8C890.52,251.53,893.38,241.66,892.31,235.51Z"/><path class="cls-13" d="M1094.73,230.64c3.82,1.21,5.21,6.1,5.92,9.58a25.17,25.17,0,0,1,.54,3.67c0,.09,0,.34,0,0a15.59,15.59,0,0,1-.19,2.46,20.51,20.51,0,0,1-1.25,4.87c-.78,2-2,4.35-3.83,5.51-1.24.75-2.24-.49-2.67-1.63-1.1-3,.8-6.54,1.46-9.44.3-1.3.54-2.9-.38-4-1.19-1.44-3.55-1.32-5.2-1.17l.95.67a74.08,74.08,0,0,1,2-15.34c.84-3.51,2-7.24,4.18-10.15a8.2,8.2,0,0,1,3.35-2.77c1.68-.66,4.1-1.2,5.81-.34s2.27,3.21,2,5c-.14,1,2,.76,2.09-.16a6.36,6.36,0,0,0-1.51-5.3c-2.77-2.73-8.3-1.44-11.1.59-3,2.2-4.71,6-5.84,9.42a62.39,62.39,0,0,0-2.48,12c-.28,2.37-.5,4.77-.56,7.16,0,.51.51.72,1,.67,1.32-.12,3.44-.34,3.86,1.33.35,1.4-.32,3.11-.71,4.44-.9,3.06-2.39,7.2.31,9.79,3.46,3.3,7.42-2,8.77-4.84a19.69,19.69,0,0,0,1.71-12.07c-.74-4.23-2.37-9.88-7-11.34-.88-.28-2.43,1-1.2,1.38Z"/><path class="cls-14" d="M948.38,280.79c3.56,1.53,8.65.57,11.81-2,.7-.57,3.26-.35,2.28.45-4.18,3.39-11.52,4.42-16.12,2.45-.45-.2-.41-.55.11-.8a2.78,2.78,0,0,1,1.92-.1"/><path class="cls-14" d="M963.82,278.07a20.4,20.4,0,0,1,7.14-2.69,1.65,1.65,0,0,1,1.16.27c.23.18.31.44,0,.64a7.7,7.7,0,0,1-3.92,1.39,1.5,1.5,0,0,1-1.29-.39c-.27-.34.12-.62.46-.64a6.06,6.06,0,0,0,3.16-1.14l1.22.91a17.79,17.79,0,0,0-6.37,2.42,1.48,1.48,0,0,1-1.36,0c-.29-.14-.62-.5-.24-.75"/><path class="cls-14" d="M973.92,277.38c3-.38,6.29-2.1,7.5-4.61,1.83-3.79-.81-9.23-4.75-11.13-.42-.21-.24-.55.15-.68a2.31,2.31,0,0,1,1.62.18c3.43,1.66,6,6.08,5.87,9.48-.13,3.17-2.73,5.64-6.18,6.91a15.37,15.37,0,0,1-3.24.81c-.45.06-1.27,0-1.53-.35s.14-.56.56-.61"/><path class="cls-14" d="M942.78,279.75a.4.4,0,0,0-.43-.55,3.35,3.35,0,0,1-2.38-.57c-.23.37-.45.74-.68,1.1a10.11,10.11,0,0,1,4.82,1.28.81.81,0,0,0,.94-.25c.17-.19.33-.6,0-.78"/><path class="cls-14" d="M945.07,280a11.27,11.27,0,0,0-5.39-1.41,1,1,0,0,0-.76.46.46.46,0,0,0,.09.64"/><path class="cls-14" d="M936.67,280.81a6.14,6.14,0,0,1-5.54-3.28,9.65,9.65,0,0,1,1.26-10.32.38.38,0,0,0-.21-.64,1.1,1.1,0,0,0-1,.45,10.65,10.65,0,0,0-2.24,8.88,7.24,7.24,0,0,0,5.09,5.76,7.14,7.14,0,0,0,2.19.26,1.06,1.06,0,0,0,.91-.6c.1-.39-.18-.53-.46-.51"/><path class="cls-15" d="M907.25,223.05c-2.85-1.12-6.23.38-7.85,2.13a7.6,7.6,0,0,0-1.4,3.44,7.07,7.07,0,0,0,2.33,6.23,6.61,6.61,0,0,0,7.67.53c3.16-1.88,3.82-6,2.7-8.76a6.41,6.41,0,0,0-3.45-3.57"/><path class="cls-15" d="M935.11,228.42s-14.27-9-21.09-8.95c-9.95,0-21.52,6.73-24.51,12,0,0,15.22-9.79,22.24-9.62C918.45,222,935.11,228.42,935.11,228.42Z"/><path class="cls-15" d="M988.94,214.52c2.57-1.68,7-1.75,8.91-.36a6.74,6.74,0,0,1,2.39,3,7,7,0,0,1-1,6.58,6.63,6.63,0,0,1-7.4,2.09c-3.47-1.2-5-5.06-4.43-8,.1-.54-.54-1.51,1.53-2.87"/><path class="cls-15" d="M977.08,222.61s13.94-11,21.25-12c10.67-1.42,24.09,3.5,28.08,8.23,0,0-17.79-7.45-25.28-6.25C994,213.79,977.08,222.61,977.08,222.61Z"/><path class="cls-15" d="M965.66,187.93c.49,2.6,1,5.2,1.49,7.82.38,2,.77,4,1.16,5.95,0,0,31.24-7.9,35.25-8.41s14.24-.95,14.24-.95c2.85.59,4.23,0,6.62,1.08,5.19,2.25,7.59,4.16,8.28,3.68s-1.09-3.4-1.27-3.7a29.85,29.85,0,0,0-12.25-11.12,36.77,36.77,0,0,0-13.64-2.93c-5.6-.18-20.61,2-39.88,8.58"/><path class="cls-15" d="M927.13,199l-1-7.9c-18.8.72-32.58,4-37.42,6.15-.81.37-1.58.75-2.3,1.14a10.08,10.08,0,0,0-2.28,2.79c-1.36,3.53,1.07,9.15,3.89,10.56,2.43-.82,5-1.66,6.61-2.07,3.66-1,33.32-4.65,33.32-4.65C927.65,203,927.39,201,927.13,199Z"/><path class="cls-16" d="M962.06,299.26c15.51-2,41.24-3.22,41.24-3.22s-1.22,30.63-37.17,35.21S925.7,304,925.7,304,946.55,301.24,962.06,299.26Z"/><path class="cls-10" d="M961.91,299.28c7.37-.94,37.24-3.52,37.24-3.52s-7.34,20.89-34,24.28C936.23,323.73,929,302.53,929,302.53Z"/><path class="cls-17" d="M961.73,300.47c7.37-.94,29.65-5.09,29.65-5.09s-7,9.39-29.13,12.2-30.18-4.4-30.18-4.4Z"/><path class="cls-16" d="M924.6,303.08a26,26,0,0,1,6.06-2.09c6-1.32,7.09-4.21,11.47-5.12,7.47-1.57,12.65.91,15.94.49s7.69-3.88,15.31-4.47c3.86-.31,13.34,2.56,21,2.54,3.71,0,9.59,1.23,10.4,1.33,1.13.14-.89,2.57-42.14,7.82S923.55,303.49,924.6,303.08Z"/><g id="freepik--character-2--inject-2"><path class="cls-7" d="M1078.52,1013.74A329.62,329.62,0,0,0,1156.45,996c22.42-8.14,67.6-21.41,73.58-48,5.51-24.58-7.61-52-9.76-76.3-1.45-16.49-3.92-25.74-3-53.46l2.31-177.05-8.77-185.44L1172.33,413,1123,385.64l-27.15-11.39c-.4-.17-24,32.58-27.07,35.63-13.77,13.54-24.41,3.51-31.79,21.71-8.7,21.49-40,48.21-57.79,45.87-21.4-2.82-26.75-69.4-26-94.17L934,390.8l-53.5,28.48S866.3,558.59,867.1,586.91c.55,19.7-2.4,55.36,4.76,209,1.49,32.08-23.7,77.27-32.41,107.83-1.43,5,2.2,76.72,6,76.37,15.84,8.44,32.53,9.14,49.48,12.35,22.23,4.2,44,11.19,66.28,15.56C999.39,1015.51,1039.26,1017.88,1078.52,1013.74Z"/></g><path class="cls-7" d="M860.9,692.77,1082,691.4l39.28-149.82L1236.46,600s-19.18,181.09-90.87,205.69c-74.43,25.54-252.07-50.09-276-59.68C874.07,739.67,850.56,724.25,860.9,692.77Z"/><path class="cls-13" d="M1214.6,703.19c-2.14,8.52-4.76,16.93-7.46,25.28a442.17,442.17,0,0,1-20.32,52.41c-7.89,16.75-17.17,34.12-30.77,47-5.1,4.83-11,9-17.83,10.82a89.76,89.76,0,0,1-17.34,2.51c-16.66,1.08-33.49-.09-50.08-1.67-20.58-2-41.06-4.92-61.45-8.29-21.27-3.52-42.46-7.55-63.57-11.93q-28.56-5.92-56.93-12.75c-13.88-3.35-27.74-6.83-41.47-10.76-4-1.15-8-2.32-12-3.7-.62-.22-1.24-.48-1.87-.68s-.71.06-.45-.73A97.86,97.86,0,0,0,836,779.12a161.43,161.43,0,0,0,2.87-21.36c0-.34-2.95,0-3,.8-.77,11.14-2.3,22.73-6,33.34a.15.15,0,0,0,.06.22c7.62,3.12,15.83,5.09,23.76,7.24,14.66,4,29.42,7.59,44.21,11q28.17,6.58,56.56,12.29c20.39,4.1,40.85,7.86,61.39,11.11,19.22,3,38.51,5.65,57.9,7.32,15.55,1.34,31.29,2.23,46.88,1.11a97.36,97.36,0,0,0,17.25-2.59,45.12,45.12,0,0,0,17.51-9.13c13.37-11,22.62-26.86,30.37-42.09a396.41,396.41,0,0,0,21.35-51.67c3.64-10.67,7-21.45,9.93-32.35.15-.59.31-1.18.46-1.77s-2.77-.17-3,.55Z"/><path class="cls-7" d="M1103.19,370.9s77.43,42.87,121,73.27c57.9,40.43,6.7,193.05,6.7,193.05s-110-29.29-150.71-55.43Z"/><path class="cls-1" d="M179.09,837.59c.58,2.83,1.26,5.65,2,8.42a.82.82,0,0,0-.17-.59C180.52,843.79,179.86,841.1,179.09,837.59Z"/><path class="cls-18" d="M413.3,725.9,441.88,775,516.54,663.5l54.4,35.19s-34,72.27-49.46,111.83c-17.18,44-40.75,88.79-90.49,81.82-38.43-5.38-85.55-68.89-85.55-68.89L413.3,725.9"/><path class="cls-19" d="M408.46,1510.22c-23,7-44.67,19.19-68.62,22.58-28.62,4-58.44,2.88-87.23,2-28-.89-55.45-3-82.84-9.41a410.26,410.26,0,0,1-78.13-27.07c9.57-67.62,26.42-222.58-.65-333.24-25.47-104.15,28.66-174.6,57.85-219l236.49,18.17,12,48.69c13.11,54.3,13.75,175.88,8.83,323Z"/><path class="cls-18" d="M402.11,1016.35,381.65,906.46s-4.29-64.76-.18-76.09c5.22-14.39,19.14-20.69,19.44-41,.53-35.72-18.49-73.78-18.49-73.78L366.89,605.91C359.63,598.4,312.76,590,312.76,590s-9.26,2.37-18.06,20.45c-4.19,8.62-11.33,40.43-9.57,40.43,1.47,0-8.72-33.35-21.23-40.43-34-19.23-81.71-27.92-81.71-27.92-20.18,7.71-16.85,9.49-26.7,13.75-4.77,2.06-35.75,23.69-35.75,23.69l1.57,73.13,11.36,189.85-26.93,133.37c16,4.05,32.21,9.81,48.35,12.21,25.64,3.83,51.94,4.25,77.8,5.25,32,1.24,64.17,2,96.14-.81C359.74,1030.12,371.54,1024.71,402.11,1016.35Z"/><path class="cls-18" d="M402.61,641c-11.15-19.28-15.69-22-29.06-30.38-6.27-4-36.32-10.5-36.32-10.5l-2.78,90,24.64,89.57,92-8.07S417.16,666.33,402.61,641Z"/><polygon class="cls-8" points="526.68 649.9 572.39 683.59 565.32 695.39 518.74 664.92 526.68 649.9"/><path class="cls-6" d="M305.94,590.38l.29-1.22-10.56-6.74c-.73-6.66,4.95-74.74,4.95-74.74l-100.48-8.81s12.77,50.69,2,71.94c-2.6,5.15-10.21,9.05-10.21,9.05l.1.08-5.82,2.66s40.35,27.17,75.64,33.88c9.45,1.8,16.06,32.89,23.85,29.57,4.24-1.8,5.65-29.63,9-33.48,4.28-4.93,12.94-10.93,15.22-19.94Z"/><path class="cls-11" d="M234.11,541.07s11,22.49,54.25,26.64c0,0,8.81.54,15.77-2.48l-1.34-7.72Z"/><path class="cls-20" d="M349,481.9c-14-8.29-17.95-25-17.61-40.23.33-14.57-12.48-35.79,5.31-36.58.33,0-7.41-11.83-2.1-11.19-3.87-7.72,7.9-7.94,8.77-17.07.18-1.84,1.39-18.06-10.16-18.17-46.15-54-100.46-37.14-131.12-30.29C141.9,341.82,105,348.73,128,443.83c15.44,63.85,45.13,69.12,106.37,61.95,26.17-3.06,97.54,1.65,115.18-23.56Z"/><path class="cls-20" d="M201.93,272.45c-2.07-3.27-19.58-14.55-29.38-12.6-7,1.4-14.89,5.24-25.81,16.88-11.49-2.2-25.48-3.15-31.63,3.26a38.2,38.2,0,0,0-6.22,9.24l0,0-.08.21a81.53,81.53,0,0,0-4.15,10.16c-6.8,11.27-20.76,35.25-22.79,45.53-1,5.11,7.2,15.1,17.88,25.61a19.63,19.63,0,0,0-4.23,9.91c-1.19,9.54,11,28.81,34.72,17,7.14,5.84,12.16,9.69,12.16,9.69l6.6-6.63s-.7-1.27-1.89-3.47l8.07-7.93-6.56-4.79a49.93,49.93,0,0,1,6-6.05c7.8-8.15,16-19.32,23.48-27.78,3.44-3.9,13.37-6.75,17-10.49a18.52,18.52,0,0,0-6.57-2.17c1-1,2-2,2.94-3,3.7,1.14,6.82,2.17,7.84,2.67,3.21-3.24,11.93-6.8,15.08-10.09.72.95,1.42,1.91,2.1,2.9,2.87-3,9.25-6.69,12.11-9.72-2.22-15.81-10.3-28.76-25.74-34.51C203,280.31,202.94,274.05,201.93,272.45ZM106.07,382.56a22.29,22.29,0,0,1-1.92-7.54c4.48,4.22,9.21,8.43,13.76,12.35C113.27,387.76,108.1,387,106.07,382.56ZM192,273.18c.14,2.7-1.52,7-3,10.14l-1.17-.1a184.89,184.89,0,0,0-18.78-1.07c2.65-5,5.33-9.93,6.22-10.75C179.89,267.16,191.74,268.47,192,273.18Z"/><path class="cls-6" d="M300.62,358.31l.49.26a5.38,5.38,0,0,1-.54-.64Zm17.72,1.38a10.23,10.23,0,0,0,.91.6l0-.31S318.3,359.32,318.34,359.69ZM229,536.38c18.25,14.54,47.47,22.53,66.33,22.86,9.23.17,17.43,1.71,25.83-5.92,21.09-19.15,40.61-52,33.68-81.21-1.27-5.38-5.69-15.18-5.94-20.47-.3-6.11-3.82-35.3-11.51-53.06-9.35-21.63-17.42-32-17.42-32-1.27-3.69,8.43-3.1,6-5.89l-1.65.19a1.63,1.63,0,0,1,1,1.42,13,13,0,0,1-6.09-2v.06c-2.35,1.43-4.95.58-7.24-1.07,0,.38.55,1.09,1,1a8.34,8.34,0,0,1-6.87-1.5c0,.38.55,1.09.59,1.47a15.48,15.48,0,0,1-5.59-1.72c.44.45,9.58-2.09,9.61-1.82-2.42.66.5,1.16-1.78-.49l-2.21-1.17c-2,.62-1.8,1.85-3.63.53.46.33-1.62-4-1.58-3.66-2.48.29-1.82.05-4-.85.05.38-6.46,3.26-6.41,3.63-2.06.24-1.3,2.07-3.13.75.46.33,1.31-1.76,1.76-1.43-2.43.67-3.17,2.37-5.46.72.46.33-8.64-3.2-8.64-3.2-2.44.66-1.92,1.4-4.17.12.92.66-11.5.63-11,1.35-2.06.24,4.82,7.1,3,6.15.05.38-4.88-.58-4.88-.58-2,.62,1.3,2.15-.53.83,0,.38.59,1.47,1,1.42-2.35,1.43-5.33,1-8-.22.92.66,1.42,1.37,1.87,1.7-2.06.24-3.66.82-5.91-.46.05.38,1,1.42,1.42,1.37a8.24,8.24,0,0,1-6.69,0c0,.38,1,1,1.41,1.37a5.92,5.92,0,0,1-5-.18l1.42,1.37c-1.65.19-2.8,1.1-5.37.63.05.38.92.66,1,1a15.3,15.3,0,0,1-4.17.1c.05.38,1.37,1,1,1-1.65.19-2.8,1.1-4.95.58.45.33,1,1,1.41,1.37-1.65.19-3.25.77-5,.2a2.75,2.75,0,0,0,1,1.42c-1.65.19-2.8,1.1-4.95.58,0,.38,1,1,1.42,1.37-1.66.19-3.27.77-5,.58.05.38.92.66,1.37,1-1.65.19-3.25.77-5.41.25.09.76.55,1.09.59,1.47-1.24.14-2.1-.14-3.34,0l-2,1c-4.89,8.25-18.37,25.19-18.37,25.19-11.59,11.72-9.76,29.51-8.51,36.66s13.53,34.93,13.53,34.93c-2.37-2.41-4.91-8.3-6.5-11.18-1.55-2.51-3.79-5.27-5.34-7.78-4.42-5.63-12.45-2.77-16.55,1.55l-.61,1.34c-5.31,9.3-.91,30.39,12.6,43.21,3.28,15.93,20.32,21.67,22.76,9.36l3,6"/><path class="cls-14" d="M312.64,490.25a10.75,10.75,0,0,1-9.54.62c-.65-.28-2.6.32-1.7.72,3.84,1.68,9.73,1.13,13-1.06.32-.22.23-.46-.22-.55a2.33,2.33,0,0,0-1.51.27"/><path class="cls-14" d="M300.15,491a17.38,17.38,0,0,0-6-.67,1.4,1.4,0,0,0-.86.39c-.15.17-.16.37.08.46a6.64,6.64,0,0,0,3.29.31,1.26,1.26,0,0,0,.94-.5c.15-.29-.2-.42-.47-.38a5.2,5.2,0,0,1-2.66-.25c-.26.28-.52.57-.79.85a15.4,15.4,0,0,1,5.38.61,1.27,1.27,0,0,0,1-.25c.2-.15.4-.47.06-.57"/><path class="cls-14" d="M292.17,492.26c-2.36.24-5.26-.4-6.64-2-2.07-2.37-1-6.93,1.76-8.95.29-.22.09-.44-.24-.46a2,2,0,0,0-1.23.41,8.34,8.34,0,0,0-2.91,8c.65,2.22,3.1,3.52,6,3.81a13.12,13.12,0,0,0,2.66,0c.36,0,1-.22,1.13-.51s-.2-.38-.54-.34"/><path class="cls-14" d="M316.81,488.54a.3.3,0,0,1,.25-.47,2.82,2.82,0,0,0,1.75-.81l.72.66a8.36,8.36,0,0,0-3.53,1.74.68.68,0,0,1-.77,0c-.17-.1-.37-.36-.16-.54"/><path class="cls-14" d="M315.07,489.1a9.53,9.53,0,0,1,4-1.94.79.79,0,0,1,.66.2.31.31,0,0,1,.05.46"/><path class="cls-14" d="M321.75,488.22a4.87,4.87,0,0,0,3.75-3.28,6.6,6.6,0,0,0-2.76-7.08.27.27,0,0,1,.05-.49.93.93,0,0,1,.85.14,7.4,7.4,0,0,1,3.28,5.9,5.31,5.31,0,0,1-3,5,5.75,5.75,0,0,1-1.65.56c-.24,0-.67,0-.81-.26s0-.41.26-.45"/><path class="cls-13" d="M190.31,483.29a88.92,88.92,0,0,0-9.6-13.05,28.69,28.69,0,0,0-6.56-5.63,8.18,8.18,0,0,0-3.32-1.21,2.56,2.56,0,0,0-.62,0c-1,.13-1.15.73-1.47,1.53-1.88,4.71-1.06,10.1.69,14.71.12.32,1.5-.12,1.4-.38a22.73,22.73,0,0,1-1.53-11.52,11.54,11.54,0,0,1,1.38-4.21l-1,.4c.11,0-.16-.05.06,0s.22,0,.49.06a8.29,8.29,0,0,1,2.24.88c3.48,1.88,6.32,5,8.81,8a101.69,101.69,0,0,1,7.62,10.78c.21.33,1.51-.21,1.41-.38Z"/><path class="cls-15" d="M342,411c-10.28.73-16.18,3-31,11.32l.12.36c.58,2.12.26.93.85,3.06q.67,2.41,1.36,4.83c4.8-2.79,8.1-5.29,11.29-6.79,6-2.84,12.65-6.84,19.33-7.91Q342.91,413.45,342,411Z"/><path class="cls-15" d="M267.5,414.29c1.15,1.86.5.82,1.66,2.7l2.61,4.28c-5.3,1.63-9.38,2.34-12.65,3.66-6.48,2.6-14.34,4.82-19.7,9.39-2.56,2.19-6.19,5.41-6.65,9.21-.12,1,.38,4.1-1.05,4.28-.59.08-1.26-2.68-1.33-3-1.33-5.58,1.48-10,5.68-14.1,8.56-8.42,13.79-11.19,31.24-16.8"/><path class="cls-21" d="M187.8,510.18c-3.65,3.24-4.49,8.87-1.21,12.69a9.12,9.12,0,0,0,6.35,3.12,10.25,10.25,0,0,0,3.91-.81,9.75,9.75,0,0,0,5.77-5.81c.18-.47-.64-.57-.91-.55a1.28,1.28,0,0,0-1.15.76,7.62,7.62,0,0,1-4.19,4.43,6.74,6.74,0,0,1-1,.34l-.44.11-.26.06-.11,0a8.39,8.39,0,0,1-1.11.13c-.11,0,.52.06,0,0-.23,0-.46-.06-.68-.11a7.64,7.64,0,0,1-4.14-2.28,8.07,8.07,0,0,1-2.12-5.32,8.28,8.28,0,0,1,2.91-6.29c.35-.31.17-.72-.23-.86a1.6,1.6,0,0,0-1.45.39Z"/><path class="cls-13" d="M189.92,483.36c-2.39.31-5.53,1.16-4.54,4.18.9,2.73,3.12,5,3.5,7.88.13,1-.21,3.3-1.3,3.33-1.56.05-3.33-1.87-4.23-2.92a16.6,16.6,0,0,1-4-9.51c-.25-3.57-.24-9,3.29-11.11.59-.35-.81-.21-1.08,0-3.27,1.92-3.72,6.36-3.69,9.78a17.13,17.13,0,0,0,2.87,9.65c1.51,2.3,4.85,6.18,8,4.29,2.79-1.66,1.28-5.42.14-7.59a21.62,21.62,0,0,1-2.18-4.42c-.52-2,.84-2.7,2.62-2.92.37-.05,1.52-.7.6-.59Z"/><path class="cls-15" d="M331.5,436.84c2.23-1.51,5.12-.77,6.84.42a6.08,6.08,0,0,1,2.13,2.6,6.21,6.21,0,0,1-.8,5.79,5.8,5.8,0,0,1-6.46,1.93,6.38,6.38,0,0,1-4-7,5.67,5.67,0,0,1,2.27-3.72"/><path class="cls-15" d="M312.55,447.7S323.19,437.24,329.1,436c8.63-1.88,17.32,1.95,20.91,5.86,0,0-12.44-5.78-18.48-4.29C325.75,439,312.55,447.7,312.55,447.7Z"/><path class="cls-15" d="M263.25,445.3c-2.52-.95-5.17.43-6.56,2a6,6,0,0,0-1.48,3,6.23,6.23,0,0,0,2.12,5.45,5.78,5.78,0,0,0,6.73.38,6.38,6.38,0,0,0,2.25-7.74,5.63,5.63,0,0,0-3.06-3.1"/><path class="cls-15" d="M278.81,451.85s-13.57-7.6-20-7.47c-11.65.23-21.6,8-24.4,12.67,0,0,15.61-10.58,22.26-10.56C263,446.5,278.81,451.85,278.81,451.85Z"/><path class="cls-22" d="M320.72,364.63c2.81,10.23,15.94-.22,7.89-1.87.36-5.15-7-6.39-7.41-11.56a9.54,9.54,0,0,0-.41.87s-.91-6.15-3.16-7.41-12.06-4.85-12.06-4.85L303,342.26c.05-.16.81-2.29-.78-3.35S284,331.46,274,333.26a7.38,7.38,0,0,0-1,.21l-3.92,2.65-.14.1.15-.11c.69-.52,2.14-1.78,1.23-2.57a3.64,3.64,0,0,0-2-.61,35.27,35.27,0,0,0-6.15.11v0l-.68.1-.68.06v0a35.79,35.79,0,0,0-6,1.31,3.57,3.57,0,0,0-1.76,1.05c-.71,1,1,1.86,1.79,2.21l.16.07-.15-.06-4.43-1.68c-.32,0-.66,0-1,0-10.11.55-24.85,10.6-26.16,12s-.07,3.3,0,3.45l-3.06-1.8s-11.48,6.1-13.37,7.83-2.41,5.4-2.41,5.4-3.51,1.77-4.88,1.5-7.78,4.08-10.12,8.45c-1.5,2.81-.57,5.18-1.19,7.57h0c-.36,1.33-.55,2.22-.55,2.22L181,386c-5.35,3.38-2.57,14.88-2.57,14.88-9.53,15-8.72,26.66-2.26,38.61,2.49,4.6-10.72,11.08-1.91,9.86s19.59,25.94,19.59,25.94,6.32-11.81,6.09-16.93-4.46-19.88-4.46-19.88l4.24-1.11s2.5-1.38,5-7.5-4.5-15.68-4.5-15.68l-2.41-6,8.48-.4c8-2.35,7.39-11.22,7.39-11.22L210.53,382l5.46,4.35a6,6,0,0,0,4.95,1.56c12.49-2.42,13.06-10.45,13.06-10.45l.82-7.59,3.45,1.76c3.71,2.38,14.55,5.44,19.55,2.56,1.31-.76,6.61-5.93,7.48-6.66,3.09-2.86,3-7.62,2.9-9.37-.55-.42-1.09-1-1.62-1.42-2-1.75-2.8-.83-.76.93,3.49,3,9.3,7.15,14,6.81,4.49-.33,13.91-3.32,14.86-5.53.64-1.49-.8-1.49.84-1.61a5.4,5.4,0,0,1,3.82,1.71c2.43,2.21,4.29,5.64,7.47,6.82,4.63,1.72,7-1,11.27-2.43A2.09,2.09,0,0,1,320.72,364.63Z"/><path class="cls-23" d="M330.22,355.29s1.91-9.83-4.22-14.65-29.74-24.26-66-20.07Z"/><path class="cls-24" d="M134,400.77S108,419.94,93.3,398.88s16.38-32.76,16.38-32.76"/><path class="cls-24" d="M139.16,275.56S150.5,251,169.89,252.74s11,34.23,11,34.23"/><path class="cls-8" d="M304.32,584.86s-3.07,13.44-11.52,18.42l-8.05,41.07-16-37.82s-58.81-34.31-67.25-48.62l-28.72,24.61s34.08,38.8,56.34,47.24l10.27,6.34,23.88-19.38,21.88,34.15,12.66-36.07,18.81,10s7.67-4.17,6.52-34.51Z"/><path class="cls-25" d="M130.83,819.75c2.84-14,5.67-27.94,8.63-41.89,3-14.35,6.43-28.61,8.79-43.1,2.49-15.2,4.73-30.44,7.07-45.67,1.1-7.16,2.29-14.56.53-21.72-.84-3.43-1.74-6.84-2.74-10.22a89.87,89.87,0,0,0-5.19-14.07c-1.51-3.07-3.67-7.34-7.45-8a5,5,0,0,0-4.06,1.09c-.85.78-.7,1.87.55,2.07a2.83,2.83,0,0,1,.4.08c-.58-.18-.11,0,0,0s.66.37.59.33a10.32,10.32,0,0,1,1.36,1.33,20.94,20.94,0,0,1,2.73,4.33,81.56,81.56,0,0,1,4.72,12.38c1.12,3.61,2.11,7.26,3,10.92a36.17,36.17,0,0,1,1.18,7.87,63.45,63.45,0,0,1-.91,10.92c-2.21,15-4.56,30.08-6.94,45.11-1.19,7.45-2.45,14.89-4,22.28-1.44,6.82-3,13.61-4.49,20.43-3.3,15.37-6.41,30.77-9.54,46.17-.45,2.2,5.35,1.28,5.75-.71Z"/><path class="cls-26" d="M399.27,682.4c-3.16,6.7-6.55,13.35-7.84,20.72a61,61,0,0,0,.42,20.92c2.44,14,7.91,27.5,9.22,41.73a82.54,82.54,0,0,1-4.54,34,63,63,0,0,1-7.43,15.16c-1.58,2.29-3.45,4.19-4.76,6.65A58.27,58.27,0,0,0,378,855.6c.06.46,2.65,0,2.57-.69a58.16,58.16,0,0,1,5.45-32.25c.52-1.07,1.08-2.13,1.68-3.15a21.46,21.46,0,0,1,1.82-2.33,55.67,55.67,0,0,0,8.23-14.51,85.31,85.31,0,0,0,6.07-33.79c-.4-13.62-5.37-26.67-8.3-39.86-1.71-7.68-2.85-15.59-2-23.46.92-8.5,4.66-16,8.25-23.63.16-.34-2.23-.18-2.53.47Z"/><path class="cls-26" d="M444.61,770.68q-3.71,5-7.31,10.12A94.91,94.91,0,0,0,430.63,791a29.22,29.22,0,0,0-2.17,21.68c.18.62,2.75-.09,2.57-.69a28.81,28.81,0,0,1,2.36-21.84,105.13,105.13,0,0,1,6.45-9.78q3.6-5.1,7.31-10.11c.29-.4-.94-.3-1-.29a2.39,2.39,0,0,0-1.5.72Z"/><path class="cls-11" d="M285.55,408.61s10.59,8.67-.41,17.63c0,0,9.94-4.05,8.51-12.07S285.55,408.61,285.55,408.61Z"/><path class="cls-18" d="M145.2,604.41s-10.59,2.87-37.65,25.15C40,685.18,125.73,868.79,125.73,868.79s58.43-88,87.84-104.38Z"/><path class="cls-26" d="M201.47,784a37.34,37.34,0,0,0-5,6.11,52.49,52.49,0,0,0-7.38,16.52,50,50,0,0,0-1.44,13.57c0,1.39,2.64,1,2.61-.17a49.49,49.49,0,0,1,11.34-33c.41-.49.83-1,1.26-1.43.12-.12.76-.75.29-.31,1.25-1.2-.75-2.19-1.72-1.25Z"/><path class="cls-6" d="M298.19,642.18l-13.2,32L329.76,692l9.27-33.9s23.71-35.37,24.4-41.5c.06-4.8,1.23-10-3-13.87,1.48-13.57-6-17.31-6-17.31-.84-11.13-17-11-17-11s-3.15-13.59-4.34-19.82-16.77-8.15-16.77-8.15a96,96,0,0,0-9.25,6c0,4.89,8.57,7.83,8.57,7.83l.61,9.78-6.47,9a59.77,59.77,0,0,1-1.54-14.73c-.24-10.73-7.63-17.14-13.61-20.79s-7.74-.17-8.87,3,3.89,22.05,3.89,22.05a126.62,126.62,0,0,1-3,28.4C283.23,610,298.19,642.18,298.19,642.18Z"/><path class="cls-11" d="M297.58,642.71,286,670.39l-1.68,4c-.12.28,0,.43.27.53l15.2,5.94,24.07,9.42,5.54,2.16a1.07,1.07,0,0,0,1.27-.56l7-25.08,1.72-6.2.49-1.74c0-.13.25-.69.11-.43a23,23,0,0,1,1.43-2.11q1.67-2.49,3.32-5c3.25-4.92,6.46-9.88,9.58-14.89,2.91-4.67,5.83-9.38,8.3-14.3a19.8,19.8,0,0,0,1.86-4.49,26.28,26.28,0,0,0,.26-4.44,16.47,16.47,0,0,0-.63-6.13,9.25,9.25,0,0,0-1.34-2.52c-.34-.46-1-.95-1.11-1.53a9.71,9.71,0,0,1,.13-1.85,24.23,24.23,0,0,0-.41-5.83,15.46,15.46,0,0,0-3.37-7.19,10.69,10.69,0,0,0-1.71-1.58c-.19-.15-.73-.37-.86-.57.13.2.06-.67.07-.62-.06-.34-.13-.69-.21-1a9.88,9.88,0,0,0-.84-2.11,10.11,10.11,0,0,0-2.53-3c-3.52-2.89-8.44-3.93-12.9-4.14q-.48,0-1,0l.5.3c-1.46-6.29-2.93-12.58-4.17-18.92-.57-2.9-2.67-4.52-5.25-5.75a38,38,0,0,0-9-2.76c-.92-.17-1.85-.36-2.78-.46-1.42-.16-2.78,1.09-3.93,1.79s-2.34,1.46-3.48,2.22l-1.9,1.3c-.39.27-1.22.65-1.39,1.11-.47,1.23.94,3.12,1.71,3.93a15.13,15.13,0,0,0,4,2.87,9,9,0,0,0,3,1.33c.45,0-.48.25-.15-.2,0,.05,0,.18,0,.23a5.51,5.51,0,0,0,.09,1.51l.29,4.67a14.24,14.24,0,0,1,.2,3.25c.11-.55-.3.22-.42.39l-1.18,1.61-4.86,6.64,1.54-.16a58.34,58.34,0,0,1-1.51-13,23.55,23.55,0,0,0-1.84-9.87c-2.29-5.08-6.45-9-11.1-11.93-2.17-1.37-4.93-2.84-7.53-1.76-1.89.79-3,2.75-3.56,4.62a9.82,9.82,0,0,0,0,4c.26,2.21.68,4.4,1.13,6.58.77,3.68,1.74,7.31,2.59,11a7.48,7.48,0,0,1,.12,1.78q0,3.24-.22,6.48a123.46,123.46,0,0,1-1.45,12.88c-.53,3.19-1.5,6.37-1.83,9.58a30.27,30.27,0,0,0,.14,6.24,79.58,79.58,0,0,0,3.4,14.76,173.09,173.09,0,0,0,8.22,21.32l.18.38c.28.61,1.84.13,1.58-.43-2.54-5.45-4.76-11.07-6.75-16.74a116.32,116.32,0,0,1-4.16-14.38c-.85-4-1.57-8.41-.85-12.54.64-3.58,1.51-7.11,2-10.72A121.41,121.41,0,0,0,290.56,576a37.31,37.31,0,0,0,.13-6.25,4.14,4.14,0,0,0-.15-.68q-.53-2-1-4.08a123.39,123.39,0,0,1-2.59-12.74,11.15,11.15,0,0,1-.12-4.19c.52-2,1.82-4.33,4.15-4,2.66.4,5.31,2.52,7.38,4.15a27.22,27.22,0,0,1,5.8,6.13,21,21,0,0,1,3.34,8.51,46.44,46.44,0,0,1,.27,5.9c.05,1.86.19,3.71.42,5.56a59.12,59.12,0,0,0,1.08,6.06c.15.66,1.31.15,1.54-.16l3-4.15,2.2-3a9.24,9.24,0,0,0,1.23-1.69,2.69,2.69,0,0,0,0-1.2l-.2-3.34-.34-5.45c0-.14-.22-.23-.32-.27a17.17,17.17,0,0,1-6.37-3.68,6.78,6.78,0,0,1-1.46-1.95,3.06,3.06,0,0,1-.36-1.12c0-.68.63-.9,1.16-1.27q3.78-2.62,7.78-4.88l-.8.21A34.89,34.89,0,0,1,329,552.06a8.81,8.81,0,0,1,3,2.5,9.32,9.32,0,0,1,1.07,3.56c.72,3.54,1.51,7.07,2.3,10.59q.8,3.52,1.61,7a.5.5,0,0,0,.5.29,24,24,0,0,1,10.5,2.26,10.47,10.47,0,0,1,5.51,5.74c.28.79.21,2.26.77,2.81.27.27.72.46,1,.71a12.6,12.6,0,0,1,3.62,5.16,18.81,18.81,0,0,1,1.17,4.91,22.75,22.75,0,0,1,.13,3.09c0,.61,0,1.21-.09,1.81a3.23,3.23,0,0,0,0,1.31c.17.4.94,1,1.23,1.34a8.41,8.41,0,0,1,.88,1.47,10.56,10.56,0,0,1,.85,3.06,37.48,37.48,0,0,1,0,6.53,11.5,11.5,0,0,1-1.31,4.62,141.13,141.13,0,0,1-7.61,13.43c-3.11,5.05-6.32,10-9.58,15-1.91,2.92-3.94,5.77-5.8,8.73a4.13,4.13,0,0,0-.49,1.25l-1.31,4.7-7.65,27.43L329,692l1.27-.56-15.19-5.94-24.07-9.42L285.51,674l.27.52,11.62-27.67,1.68-4C299.4,642,297.81,642.16,297.58,642.71Z"/><path class="cls-11" d="M311.13,576.54a56.85,56.85,0,0,0-4.32,4.46,35.81,35.81,0,0,0-6.34,9.46c-.36.87,1.24.92,1.53.22a34.47,34.47,0,0,1,6.16-9.15,51.79,51.79,0,0,1,4-4.2c.79-.73-.45-1.36-1.08-.79Z"/><path class="cls-18" d="M114.91,835.3s12.09,43.34,23.46,53.58,11.55-57.79,11.55-57.79Z"/><path class="cls-26" d="M125.13,865.45c3.51,7.38,7.57,14.57,13.11,20.63a66.09,66.09,0,0,0,21.86,15.27c9.06,4.08,19,5.66,28.85,6a104.19,104.19,0,0,0,26-2.07c8.3-1.88,15.6-6.91,21.86-12.48,8-7.17,14.82-15.7,21-24.49a322.77,322.77,0,0,0,19.87-32.69c6.48-12,12.44-24.35,18.06-36.8,5.5-12.18,10.67-24.49,15.6-36.9q6.43-16.18,12.33-32.57Q328,717.19,332.1,705c1.31-3.91,2.74-7.82,3.84-11.79.05-.17.11-.34.16-.51.11-.33-.26-.53-.51-.62l-19.84-7L284,673.84l-7.27-2.57a1.84,1.84,0,0,0-1.91.67l-7.37,11.24-17.69,27-21.32,32.51L210,770.77l-6.14,9.36a39.26,39.26,0,0,0-2.87,4.38,2.14,2.14,0,0,1-.13.19l2.41-.25-7.1-23.87-12.75-42.83c-2-6.77-4.11-13.52-6-20.32a185.56,185.56,0,0,0-11.87-30.9,106.68,106.68,0,0,0-12.92-20.79c-4.63-5.62-10.3-10.79-17.25-13.3a26.28,26.28,0,0,0-4.87-1.21c-1.08-.17-2.58,1.34-.92,1.59,7.05,1.09,13.06,5.6,17.85,10.66a89.78,89.78,0,0,1,13.68,19.9,182,182,0,0,1,13.54,33.74q2.55,8.71,5.16,17.41l12.54,42.12c2.78,9.33,5.39,18.74,8.34,28,.05.14.09.3.14.44.29,1,2.05.31,2.41-.25l7.37-11.23,17.7-27,21.31-32.5L268,686l6.14-9.36A37.91,37.91,0,0,0,277,672.3l.13-.2-1.91.67,19.84,7L326.85,691l7.26,2.56-.51-.62c-.82,2.64-1.68,5.28-2.54,7.9q-3.48,10.57-7.19,21.07-5.37,15.23-11.17,30.29-6.92,17.88-14.5,35.49c-5.36,12.39-11,24.66-17.13,36.7-5.87,11.59-12.13,23-19.1,33.94a187.15,187.15,0,0,1-20.41,27.18c-6,6.42-12.78,12.58-20.86,16.21-4.68,2.1-9.71,2.85-14.84,3.4a104,104,0,0,1-29.59-.74,67.11,67.11,0,0,1-26.37-11.12,60.25,60.25,0,0,1-16.48-17.66,109.91,109.91,0,0,1-5.81-10.8c-.45-1-2.9-.2-2.48.67Z"/><path class="cls-10" d="M310.67,505.09c-9.67,1.47-30.13,10.69-33.85,15.13,0,0,13.43,10.94,35.87,7.54s23.78-16.57,23.78-16.57S323,503.23,310.67,505.09Z"/><path class="cls-8" d="M285.3,514.63s11.38-2.68,20.57-4.07,20.83-2.2,20.83-2.2.42-7.17-16.23-4.65S285.3,514.63,285.3,514.63Z"/><path class="cls-16" d="M312.24,524.68c-10.74.08-22.88-5.47-35-2.84,0,0,6.4,16.95,32.78,13s26.87-22,26.87-22C324.5,513.89,322.51,521.58,312.24,524.68Z"/><path class="cls-16" d="M321.34,498.05c-5.6.43-8.79,3.09-11.2,3.45s-6.25-1.23-11.73,0c-5.13,1.17-24.74,19-22,20.26s17.91-12.34,34.59-14.86,24.89,9.24,27.09,7.2S326.59,497.66,321.34,498.05Z"/><polygon class="cls-8" points="332.32 693.17 338.44 677.72 288.4 660.51 281.46 674.67 332.32 693.17"/><path class="cls-8" d="M692.65,203.84c-.41,21.79-.21,43.59-.08,65.39,0,5.86.07,11.72.08,17.58,0,.64,2.69.2,2.69-.72-.07-21.77-.32-43.53-.2-65.29q0-8.84.2-17.68c0-.63-2.67-.21-2.69.72Z"/><path class="cls-8" d="M694.55,287.65q-26,.69-52.06,1.07c-19.52.27-39,.38-58.56.23q-16.14-.13-32.26-.56c-.5,0-1.53.2-1.79.69s.24.6.68.61c19.33.55,38.66.68,58,.62q28.46-.09,56.91-.7,14-.28,28-.65c.51,0,1.52-.19,1.79-.69s-.23-.63-.68-.62Z"/><path class="cls-8" d="M553.65,287.08c16.73-12.7,34.67-23.83,52.72-34.54,19.5-11.55,39.34-22.52,59.34-33.17q14.38-7.65,28.89-15.08c1.62-.83.17-2.32-1.2-1.62q-27.57,14.12-54.69,29.08c-20,11.09-39.89,22.57-59.16,34.94-9.44,6.06-18.76,12.35-27.69,19.13-1.45,1.1.71,2.08,1.79,1.26Z"/><path class="cls-8" d="M677,285.45c-.21-6.9,4.69-13.51,11.73-14.31.45-.05,1.44-.31,1.55-.85s-.83-.5-1.13-.46a17.45,17.45,0,0,0-10.71,5.26,15.44,15.44,0,0,0-4.12,11.08c0,.72,2.71.23,2.68-.72Z"/><path class="cls-8" d="M691.29,225.71a10.44,10.44,0,0,1-11.4-9c-.17-1.09-2.87-.44-2.69.72a12,12,0,0,0,4.48,7.58,12.73,12.73,0,0,0,9.31,2.43c.53-.07,1.41-.37,1.5-1s-.74-.8-1.2-.74Z"/><path class="cls-8" d="M582.66,287.1A18.76,18.76,0,0,0,580,272.33c-.42-.62-2.86.46-2.68.72A18.61,18.61,0,0,1,580,287.59c-.12.5,2.49.14,2.64-.49Z"/><path class="cls-8" d="M615.86,225.12c-.94-1.53-3.16-1.38-4.62-.85a4.67,4.67,0,0,0-3.09,3.82,10.45,10.45,0,0,0,0,2.68,4.85,4.85,0,0,0,.69,2.48c1.23,1.65,3.95.7,5.15-.47a4.37,4.37,0,0,0,1.25-2.64,17,17,0,0,1,.51-3.24l-2.69.52,2.06,6.7c.17.57,1.1.49,1.53.36s1.33-.5,1.15-1.08l-2.05-6.7c-.16-.52-1-.48-1.36-.4a1.64,1.64,0,0,0-1.33.91,9,9,0,0,0-.4,2.24,7.19,7.19,0,0,1-.4,2.21s-.1.18-.15.25-.23.3-.14.21l-.3.29c.16-.15-.13.07-.18.12.29-.23.07,0,0,0l-.09,0,.17,0c-.24.07,0,0,.09,0-.24,0,0,0,.06,0s-.22,0,0,0l-.17,0c.08,0,.1.07,0,0s0,0-.09-.06a2.72,2.72,0,0,1-.61-1.75,11.46,11.46,0,0,1-.16-2,5.67,5.67,0,0,1,.36-2,3.52,3.52,0,0,1,.43-.72c-.11.14.1-.1.15-.15l.15-.12c-.13.1-.07.05,0,0l.06,0c-.17.1.07,0,.11-.05s.15-.08.18-.07-.27.07,0,0,.18,0,0,0-.12,0,0,0h.09c.1,0,.19,0-.06,0h.23c.15,0-.18-.06,0,0l.22,0c-.2,0,.13.07.19.1l.09.06c-.07,0,.09.09.11.1a2.51,2.51,0,0,1,.27.37c.12.19.54.25.73.26a2.41,2.41,0,0,0,1.06-.2c.44-.21,1-.61.7-1.14Z"/><path class="cls-8" d="M630.27,299a54.64,54.64,0,0,0,1.36,13.19c.25,1.13,2.55.44,2.69-.48.4-2.51,2.78-6.21,5.49-3.68a2.42,2.42,0,0,1,.15,3.71c-1.36,1.13-3.45.58-5,.26a2,2,0,0,0-1.9.51.67.67,0,0,0,.32,1.17c2.32.49,4.68.86,6.94-.08,1.73-.72,3.32-2.31,3.16-4.3a4.58,4.58,0,0,0-3.14-3.64,6.09,6.09,0,0,0-5.6.94,8.24,8.24,0,0,0-3.13,5.36l2.7-.49A53.86,53.86,0,0,1,633,298.72c0-1.3-2.69-.84-2.7.25Z"/><path class="cls-8" d="M711.56,245a6,6,0,0,0-5.38,1.5,6.8,6.8,0,0,0-1.67,4.75c-.16,3.24.75,7.06,4.29,8a6.62,6.62,0,0,0,5.68-1.22c.49-.39-.43-.47-.64-.46a3.2,3.2,0,0,0-1.79.65c-.45.35,0,.14,0,.09-.08.12-.68,0-.8-.05a4.63,4.63,0,0,1-1.77-.82,6.23,6.23,0,0,1-2.13-3.91,12.39,12.39,0,0,1,0-4.74,5.19,5.19,0,0,1,1-2.22,3,3,0,0,1,.4-.4c.07-.06.32-.18.34-.24s-.17,0-.19,0a3.78,3.78,0,0,1,.44.09,2.89,2.89,0,0,0,1.88-.34c.25-.12.91-.55.33-.72Z"/><path class="cls-8" d="M571.85,429.94l3.44,7.44c1,2.25,2,4.58,3.19,6.74,1.8,3.21,4.52,5.75,8.43,4.62,4.19-1.23,5.39-5.87,6.69-9.52a143.58,143.58,0,0,0,7.11-29.92,14.34,14.34,0,0,1,.47-2.92c.53-1.53,1.8-1.2,3.16-1.13q3.93.19,7.86.32,16.13.49,32.26-.37,18.1-1,36-3.7c.33-.05,1.55-.32,1.56-.78s-.77-.4-1.1-.35a373.66,373.66,0,0,1-62.87,4.11q-3.95-.08-7.87-.23a57.69,57.69,0,0,0-7.07-.25c-1.69.14-3.62.73-4.44,2.34a8,8,0,0,0-.59,2.69c-.16,1.33-.34,2.65-.53,4a142.5,142.5,0,0,1-7.47,28.87,28.48,28.48,0,0,1-1.36,3.29c-.44.85-1.18,2.24-2.16,2.59-1.92.7-4-2.11-4.89-3.43a52.33,52.33,0,0,1-3.33-6.76l-3.85-8.34c-.34-.73-2.95.16-2.69.72Z"/><path class="cls-8" d="M620.53,421.21a27.32,27.32,0,0,0-3.22,11.8c-.14,2.2-.13,4.4-.08,6.6a34.92,34.92,0,0,0,.4,6c.7,3.39,3.89,6.17,7.45,4.75,3.34-1.33,4.46-6.15,3-9.2a5.6,5.6,0,0,0-9-1.15c-1.08,1.24,1.5,1.44,2.21.64,1-1.13,2.68-.49,3.55.51a5.64,5.64,0,0,1,.95,4.87,5.34,5.34,0,0,1-1.11,2.47c-.63.67-1.34.47-2.08.06-1.61-.9-2.19-2.75-2.42-4.46a56.87,56.87,0,0,1-.16-11.52,25.86,25.86,0,0,1,3-11.13c.69-1.22-2-1.11-2.54-.2Z"/><path class="cls-8" d="M635.51,426a55,55,0,0,1-1.65,19c-.27,1-.37,2.17.61,2.88a5.12,5.12,0,0,0,3,.6c3.23-.07,6.47-.33,9.7-.5.49,0,1.51-.18,1.79-.67s-.24-.56-.67-.54c-3,.16-6,.32-9,.46-1,.05-2.36.17-2.87-.88s.38-3.05.64-4.18a53.12,53.12,0,0,0,1.08-16.91c-.06-.62-2.76-.1-2.69.72Z"/><path class="cls-8" d="M643.62,438.67v18.79c0,.72,2.69.25,2.69-.72V438c0-.72-2.69-.25-2.69.72Z"/><path class="cls-8" d="M671.62,432.8a54,54,0,0,1,10,.23,1.71,1.71,0,0,0,1.74-.83c.27-.61-.24-1.11-.83-1.18a57.87,57.87,0,0,0-10.69-.25c-.6,0-1.41.44-1.48,1.11s.7,1,1.25.92Z"/><path class="cls-8" d="M672.1,438.43h8.45a1.5,1.5,0,0,0,1.47-1.14c.06-.71-.69-1-1.27-1H672.3a1.48,1.48,0,0,0-1.46,1.14c-.07.71.69,1,1.26,1Z"/><path class="cls-8" d="M573.88,408.12c1.1-.71,2.22-1.54,3.43-1.16A2.34,2.34,0,0,1,579,410c-.54,1.44-2,2.21-3.11,3.13a5,5,0,0,0-2.29,3.69c0,.19.4.27.5.28a46.33,46.33,0,0,0,7.9.2,2.53,2.53,0,0,0,1.79-.68c.35-.48-.31-.63-.68-.61a42.64,42.64,0,0,1-7.32-.18l.5.27c0-1.32,1.1-2.27,2.07-3a10.68,10.68,0,0,0,3-2.95,2.8,2.8,0,0,0-.32-3.44,4.64,4.64,0,0,0-3.75-1.14,12.44,12.44,0,0,0-5.5,2.29c-.47.29-.29.69.2.76a3,3,0,0,0,1.9-.51Z"/><path class="cls-8" d="M358.51,168.29l9.05,10.14c.66.75,3.23-.24,2.48-1.08L361,167.2c-.66-.74-3.23.25-2.48,1.09Z"/><path class="cls-8" d="M359.25,176.36a37.58,37.58,0,0,1,11-9.54c.48-.28,1-.87.62-1.44a1.52,1.52,0,0,0-1.83-.23A41.21,41.21,0,0,0,357,175.5a.84.84,0,0,0,.37,1.36,1.78,1.78,0,0,0,1.9-.5Z"/><path class="cls-8" d="M377.87,171.93h9.61a2.59,2.59,0,0,0,1.79-.67c.38-.49-.34-.56-.67-.56H379a2.59,2.59,0,0,0-1.79.67c-.38.49.33.56.66.56Z"/><path class="cls-8" d="M396.34,164.25a20.46,20.46,0,0,1-.51,5.68,21.67,21.67,0,0,1-.84,2.74c-.32.8-.74,1.55-1.06,2.35a2.13,2.13,0,0,0-.1,1.84c.48.76,1.73.38,2.47.34,2.05-.12,4.1-.13,6.15,0a3.26,3.26,0,0,0,1.9-.51c.4-.29.39-.62-.17-.64a68.15,68.15,0,0,0-8.21.16l.68.1c-.75-.66,0-1.88.35-2.57a20.54,20.54,0,0,0,1.23-3.22,21.39,21.39,0,0,0,.79-6.94c0-.52-2.72-.07-2.68.72Z"/><path class="cls-8" d="M401.11,164a134.62,134.62,0,0,0,.78,19.46c.13,1.18,2.83.54,2.69-.72a130.64,130.64,0,0,1-.75-19c0-1.36-2.68-.94-2.72.23Z"/><path class="cls-8" d="M362.29,185.37q22.2.3,44.39-.15c.76,0,2.92-1.18,1.15-1.14q-21.9.43-43.81.15a3.05,3.05,0,0,0-1.9.51c-.34.29-.43.62.17.63Z"/><path class="cls-8" d="M377.48,190.45c.55,2.69-.31,5.41-.06,8.11A6.17,6.17,0,0,0,381,204a9.49,9.49,0,0,0,3.81.59c1.27,0,2.93.07,3.86-1,.78-.88.51-2.32.08-3.31a5.2,5.2,0,0,0-2.19-2.53,5.54,5.54,0,0,0-7.2,1.8c-.36.56.31,1,.8,1.05a1.86,1.86,0,0,0,1.75-.81,1.91,1.91,0,0,1,2.73-.45,3.77,3.77,0,0,1,1.39,1.57c.27.59.65,1.62.25,2.2l.4-.44c.06-.05.36,0-.07,0l-.54,0c-.36,0-.72,0-1.09,0a6.6,6.6,0,0,1-2-.31,4.08,4.08,0,0,1-2.51-2.92c-.92-3.19.41-6.51-.24-9.75-.23-1.16-2.93-.48-2.69.72Z"/><path class="cls-8" d="M408.64,157.81c3.26.56,5.5,3.37,7.13,6.05a33.94,33.94,0,0,1,4,10c1.6,7,1.33,15.43-2.57,21.67-2.16,3.46-5.34,6.08-8.45,8.66-.46.38-.25.76.24.9a2.37,2.37,0,0,0,1.9-.5,44.09,44.09,0,0,0,8.1-8,24.29,24.29,0,0,0,4.06-11.06,35.12,35.12,0,0,0-4.48-22.22c-1.89-3.21-4.43-6.29-8.28-7a2.28,2.28,0,0,0-1.9.51c-.36.38-.37.8.24.91Z"/><path class="cls-8" d="M351.06,157.88c-8.27,12.26-14.2,28.45-6.38,42.43a23.64,23.64,0,0,0,7.62,8.28c.66.43,3-.65,2.52-.94-5.69-3.74-9.2-9.89-10.53-16.48-1.5-7.43,0-15,2.88-21.94a70.65,70.65,0,0,1,6.54-11.79c.3-.44-1-.34-1.09-.32a2.29,2.29,0,0,0-1.56.76Z"/><path class="cls-8" d="M435.62,178.82h7.85a3.8,3.8,0,0,0,1.9-.5c.12-.07.37-.22.32-.38s-.35-.17-.46-.17h-7.86a3.73,3.73,0,0,0-1.9.51c-.11.07-.36.21-.32.38s.36.16.47.16Z"/><path class="cls-8" d="M436,184.44h8.29a1.92,1.92,0,0,0,1.76-.79c.28-.55-.25-1-.79-1H437a1.93,1.93,0,0,0-1.76.8c-.28.55.25,1,.79,1Z"/><path class="cls-8" d="M471,156.14c-8.19,3.19-10.48,12.13-10.68,20.08-.2,8.14-.32,17.2,3.41,24.67,1.91,3.81,4.86,7.42,9.39,7.78,1,.08,2.85-1.36,1.05-1.5-3.73-.3-6.35-4.14-7.84-7.19a32.29,32.29,0,0,1-2.87-10.6,96.45,96.45,0,0,1-.48-11.14c0-4.19.16-8.49,1.58-12.47,1.29-3.65,3.79-7.1,7.49-8.54.42-.16,1-.58.73-1.07s-1.41-.16-1.78,0Z"/><path class="cls-8" d="M477.68,167.71l9.56,8.77c.12.12.55.07.68.05a4.14,4.14,0,0,0,1-.24c.18-.06,1.14-.4.82-.69l-9.56-8.78c-.13-.11-.55-.06-.68,0a4.14,4.14,0,0,0-1,.24c-.18.06-1.14.4-.82.7Z"/><path class="cls-8" d="M479.23,179.18a82,82,0,0,0,11.6-9.33.62.62,0,0,0-.29-1.1,2.13,2.13,0,0,0-1.9.51,78.38,78.38,0,0,1-11.12,9c-.41.27-.75.86-.2,1.19a2,2,0,0,0,1.91-.22Z"/><path class="cls-8" d="M502.36,167.07V178c0,.65.67.85,1.22.8s1.49-.4,1.49-1V166.83c0-.65-.66-.85-1.21-.8s-1.5.4-1.5,1Z"/><path class="cls-8" d="M498.36,172.74h10.48c.59,0,1.41-.45,1.48-1.09s-.72-.89-1.24-.89H498.6c-.59,0-1.41.45-1.48,1.09s.71.89,1.24.89Z"/><path class="cls-8" d="M526,165.06a50.51,50.51,0,0,0-7.48.16c-.33,0-2.11.32-1.91,1a37.37,37.37,0,0,1,1.6,7.84c.07.72,2.11-.07,2.39-.26a2.92,2.92,0,0,1,3.24.08,4.77,4.77,0,0,1,2.24,3.36,4.31,4.31,0,0,1-.11,2,3.07,3.07,0,0,1-.17.42c-.14.27-.48.46,0,.29s0-.09-.18-.09h-.73l-5.74,0a2.54,2.54,0,0,0-1.79.67c-.35.49.31.56.67.56h4.12a15.88,15.88,0,0,0,4-.17,3.33,3.33,0,0,0,2.43-1.88,4.93,4.93,0,0,0,.16-2.87c-1.08-4.63-6.86-5-10.2-2.61l2.39-.26a38,38,0,0,0-1.6-7.84l-1.9,1a45.29,45.29,0,0,1,6.89-.17,3,3,0,0,0,1.9-.51c.38-.3.39-.68-.19-.71Z"/><path class="cls-8" d="M475.78,186.27h52.39a3.19,3.19,0,0,0,1.9-.51c.34-.28.43-.59-.16-.59H477.52a3.14,3.14,0,0,0-1.89.51c-.35.28-.44.59.15.59Z"/><path class="cls-8" d="M506.84,192.28h-4.79c-1.44,0-3.29,0-4.16,1.37-.7,1.14-.35,2.89-.32,4.15l.09,5.13c0,1.08,1.64.71,2.21.35,1.9-1.18,4.63.18,5.83,1.89a4.4,4.4,0,0,1,.7,1.69c0,.16,0,.33,0,.49a1,1,0,0,1-.05.29l.3-.14a7,7,0,0,1-1.33.07,50.57,50.57,0,0,1-6.4-.19,1.93,1.93,0,0,0-1.77.77c-.29.58.26.9.77.94,1.5.14,3,.21,4.5.22a27.6,27.6,0,0,0,4.07-.13c1.22-.18,2.54-.84,2.62-2.21a4.75,4.75,0,0,0-.78-2.61c-2.07-3.41-7-4.08-10.21-2.07l2.2.36c0-2.61-.2-5.25-.14-7.86a3.14,3.14,0,0,0,.08-.73l.07-.16c-.26.07-.31.11-.15.1a2.66,2.66,0,0,0,.69,0h4.93a2,2,0,0,0,1.76-.78c.28-.54-.24-.94-.76-.94Z"/><path class="cls-8" d="M534.26,158.84a20.54,20.54,0,0,1,5.35,7.48,46.76,46.76,0,0,1,2.48,9.32,70.69,70.69,0,0,1,1,12.06c0,2.07,0,4.13-.05,6.2a24.67,24.67,0,0,1-.45,5.56c-1,4-4.89,5.34-8.47,6.35-.35.1-1.32.44-1.17,1s1.18.34,1.5.25c3.19-.9,6.63-2,8.95-4.48,2.68-2.9,2.29-7.14,2.35-10.81.13-8.24-.18-16.66-2.85-24.54a22,22,0,0,0-6.14-9.39c-.66-.59-3.16.43-2.5,1Z"/><path class="cls-8" d="M465.82,278c-14.38-1.69-31.83-2.91-42.37,9.1-5.41,6.14-7.72,14.36-8.33,22.37a108.76,108.76,0,0,0,.06,14.1c.23,4.2.14,8.61,2.61,12.21,2.2,3.2,5.62,5.66,8.86,7.72a45.39,45.39,0,0,0,10.7,5,41.62,41.62,0,0,0,23.2.79,38.58,38.58,0,0,0,18.25-10.81c5.5-5.91,8.27-13.13,9.18-21.09.95-8.32,1.48-17.63-1.63-25.57-2.6-6.64-8.49-12.28-15.81-13a15.64,15.64,0,0,0-5.32.42c-.4.1-1.31.48-1.16,1s1.15.4,1.52.31c6.66-1.64,13.36,3.28,16.58,8.78,4.06,6.92,4,15.51,3.56,23.27s-1.7,15.31-6.18,21.77a34.52,34.52,0,0,1-15.37,12.21c-13.63,5.52-29.78,1.17-40.57-8.3a18.9,18.9,0,0,1-3.54-3.93,12.87,12.87,0,0,1-1.79-5.57,127.34,127.34,0,0,1-.66-12.81c-.1-8,.77-16.24,4.57-23.38A25.37,25.37,0,0,1,438,279.84c6.76-1.88,14-1.61,20.9-1,1.77.16,3.55.36,5.32.56a2.31,2.31,0,0,0,1.9-.5c.33-.37.38-.88-.26-1Z"/><path class="cls-8" d="M432.29,288.5c6.94,6.68,15,12,22.85,17.54l25.12,17.64c1,.69,3.33-.68,2.06-1.57l-24.71-17.35c-7.83-5.5-15.94-10.8-22.86-17.45-.88-.85-3.42.26-2.46,1.19Z"/><path class="cls-8" d="M443,340.94a79,79,0,0,1,18.32-19.27,43.69,43.69,0,0,0,8.85-8.54c2.4-3.25,4.45-6.93,7.83-9.29.44-.31.32-.49-.15-.57a3.21,3.21,0,0,0-1.9.51c-3.32,2.31-5.45,5.65-7.75,8.9a43.21,43.21,0,0,1-9.31,9.2,80.26,80.26,0,0,0-18.54,19.54c-.26.4,1,.26,1.07.24a2.45,2.45,0,0,0,1.58-.72Z"/><path class="cls-8" d="M493.58,318.8a39.93,39.93,0,0,0,.26,8.32c.06.43.88.4,1.15.37a2.23,2.23,0,0,0,1.44-.71,6.35,6.35,0,0,1,3.2-2.08,3.6,3.6,0,0,1,3.2.46,2,2,0,0,1-.26,3.06,1.82,1.82,0,0,1-.23.15c.1,0,.07,0-.08,0,.15,0,.11,0-.1,0a3.71,3.71,0,0,1-1,.05,13.1,13.1,0,0,1-2.56-.54,2.27,2.27,0,0,0-1.9.51c-.44.39-.28.78.25.93a10.09,10.09,0,0,0,5.88.27c1.47-.48,3.06-1.66,3.3-3.3s-1-2.66-2.38-3.08a8.54,8.54,0,0,0-4.93.22,10.21,10.21,0,0,0-4.89,3.23l2.59-.34a38.35,38.35,0,0,1-.26-7.94c.05-.59-.73-.62-1.15-.57s-1.49.34-1.53.91Z"/><path class="cls-8" d="M425.59,267.88a12,12,0,0,0-7,2.4,5.2,5.2,0,0,0-1.88,5.14,3.71,3.71,0,0,0,4,2.58c1.92-.08,4.22-1,4.51-3.14a19.51,19.51,0,0,0,0-2.86,3.65,3.65,0,0,1,.12-1.19,1.84,1.84,0,0,1,.23-.51l.16-.17c-.12.11.12-.07.17-.1l-2.38.28a10.84,10.84,0,0,0,1.13,5.6c.35.71,2.94-.21,2.68-.72a10.92,10.92,0,0,1-1.12-5.59c0-.3-.86-.22-.94-.21a3.73,3.73,0,0,0-1.45.49c-1.42.83-1.32,2.39-1.24,3.83a6.78,6.78,0,0,1-.11,2.11,2.27,2.27,0,0,1-.38.78l-.11.12s-.22.18-.06.06l-.17.12c-.07.05-.05,0,.07,0-.13.06-.1.05.08,0l-.08,0c-.14.05-.11,0,.11,0-.23.07.09,0,.11,0-.22-.06-.14.19,0,0a1.09,1.09,0,0,1-.26,0c.28,0-.15,0-.23,0,.18,0-.1,0-.11,0l-.25-.07a2.64,2.64,0,0,1-1.45-1.16,4.29,4.29,0,0,1,.4-4.5,4.56,4.56,0,0,1,.9-.91l.3-.21.21-.14.27-.14.22-.11c-.12.05-.11.05,0,0l.23-.09.23-.08h0l.3-.08c.06,0,.5-.11.19,0l.73-.12c.4-.06-.24,0,.16,0l.5,0a2.76,2.76,0,0,0,1.79-.66c.41-.45-.37-.52-.65-.5Z"/><path class="cls-8" d="M573.51,343.25a7.35,7.35,0,0,0-6.86,2,10.68,10.68,0,0,0-2.84,7.19c-.17,2.6-.19,5.51,1,7.88a6,6,0,0,0,5.82,3.4c2.45-.26,5.1-2.7,4.14-5.34-.43-1.2-3.11-.45-2.68.72a2.07,2.07,0,0,1-.64,2.37,2,2,0,0,1-2.33-.16c-2-1.27-2.55-3.81-2.64-6a16.22,16.22,0,0,1,.92-7.15c.74-1.67,2.5-3.58,4.54-3.08a1.93,1.93,0,0,0,1.9-.51.76.76,0,0,0-.34-1.28Z"/><path class="cls-8" d="M578.91,334.93c1.66-.33,4-.65,4.75,1.34.81,2.2-.65,4.25-1.91,5.93-.51.68-.08,1.18.65,1.33a28.77,28.77,0,0,0,8.44.37c.58-.06,1.4-.4,1.48-1.06s-.72-.9-1.23-.85a25.84,25.84,0,0,1-7.75-.37L584,343c1.66-2.22,3.56-5.08,2.12-7.9s-5.09-2.42-7.68-1.9c-.52.1-1.27.63-1.11,1.25s1.08.63,1.59.53Z"/><path class="cls-8" d="M595.83,351.88h7a2.08,2.08,0,0,0,1.77-.76c.32-.54-.27-.88-.75-.88h-7a2.06,2.06,0,0,0-1.76.76c-.32.53.27.88.75.88Z"/><path class="cls-8" d="M596.16,358.3l.73-.09.4,0c.06,0,.39,0,.11,0a13.26,13.26,0,0,1,1.41,0c.24,0,.49,0,.73.06l.15,0,.33.05c.49.08,1,.18,1.44.3a2.23,2.23,0,0,0,1.9-.51c.41-.4.3-.82-.26-1a16.73,16.73,0,0,0-6.57-.35,2.64,2.64,0,0,0-1,.35,1.09,1.09,0,0,0-.51.57c-.12.6.81.64,1.16.59Z"/><path class="cls-8" d="M622.87,347.13c-3-3-9.55-.91-9.35,3.68a13.15,13.15,0,0,0,1.11,4.1,7.47,7.47,0,0,0,2.23,3.31,4.48,4.48,0,0,0,6.73-1.39,12,12,0,0,0,.87-4.3,36.86,36.86,0,0,0,0-5.46l-2.71.46,5.78,14.14a1.29,1.29,0,0,0,1.6.6c.48-.13,1.34-.69,1.09-1.32l-5.78-14.14a1.21,1.21,0,0,0-1.42-.64c-.47.09-1.33.48-1.29,1.09a34.93,34.93,0,0,1-.22,7.08,5.37,5.37,0,0,1-.68,2.39c-.37.54-.86.48-1.43.22-1.69-.77-2.3-3.1-2.82-4.71s-.66-3.14.74-4.07a2.74,2.74,0,0,1,1.55-.45,2.29,2.29,0,0,1,1.5.61,1.57,1.57,0,0,0,1.83.23c.42-.21,1.12-.94.63-1.43Z"/><path class="cls-8" d="M631.13,334.06a1.33,1.33,0,0,1,.45-1.06s.15-.17,0,0l.1,0a1.22,1.22,0,0,1-.24.1c-.08,0-.4,0-.14,0h.16a2.54,2.54,0,0,1,1.84,2.14c.63,2.89-1.65,5.27-2.7,7.75-.12.28.3.31.46.33l6.75.75a3.09,3.09,0,0,0,1.89-.51c.45-.29.35-.55-.16-.61l-6.75-.75.46.32c.73-1.71,1.94-3.21,2.52-5a4.93,4.93,0,0,0-.42-4.42c-1-1.28-2.65-1.29-4.09-.92-1.29.33-2.91,1.11-2.87,2.65,0,.48,2.7.06,2.69-.72Z"/><path class="cls-8" d="M650.27,346.59a72.32,72.32,0,0,0,.58,13.4c.09.66,2.8.09,2.69-.72a72.32,72.32,0,0,1-.59-13.4c0-.53-2.64-.16-2.68.72Z"/><path class="cls-8" d="M644.66,353.54h10.73a2,2,0,0,0,1.76-.78c.29-.54-.26-1-.78-1H645.64a2,2,0,0,0-1.76.78c-.29.55.25,1,.78,1Z"/><path class="cls-8" d="M671.31,339.41a57.94,57.94,0,0,0,1.22,19.29c.26,1.1,2.91.41,2.68-.72a5.32,5.32,0,0,1,1.52-4.83c1.39-1.31,3.22-.94,4.53.34a4.45,4.45,0,0,1,1.32,2.38c.15.78.08,2.17-.84,2.38a17.33,17.33,0,0,1-3.6,0l-4.07,0a1.91,1.91,0,0,0-1.76.78c-.27.55.24,1,.78,1l5.81.05c1.61,0,3.38.17,4.8-.75,2.69-1.75,1.73-5.5-.36-7.26-4.75-4-12,.86-10.81,6.7l2.68-.72A56.31,56.31,0,0,1,674,339.14c.13-1.24-2.59-.8-2.71.27Z"/><path class="cls-8" d="M690.73,334.09a2.16,2.16,0,0,1,.52-.65s.31-.18.14-.11c.05,0,.42-.16.17-.07h.36a2,2,0,0,1,.78.3,2.9,2.9,0,0,1,1.06,3.2c-.34,1.07-1.43,1.71-2.29,2.34a5.11,5.11,0,0,0-2.19,2.8c-.13.59.83.56,1.14.53a8.14,8.14,0,0,1,5.13,1.43,1.94,1.94,0,0,0,1.77,0c.22-.09,1.23-.69.73-1a11,11,0,0,0-7.24-1.81l1.15.53a3.92,3.92,0,0,1,1.86-2.21,7.45,7.45,0,0,0,2.44-2.49,3.53,3.53,0,0,0-.24-3.42,3.74,3.74,0,0,0-3.36-1.63,5.35,5.35,0,0,0-4.43,2.3c-.3.52.27.73.72.73a2.24,2.24,0,0,0,1.78-.72Z"/><rect class="cls-8" x="532.95" y="894.28" width="64.32" height="6.05"/><g class="cls-27"><path class="cls-28" d="M858.31-539.79c78.44,3.34,151.86,20,230.38,13,43.91-3.94,96.56-17.88,137.78-32.42,19.71,52.51,45.57,125.84,55.91,208.46,2.33,18.6-64.93,657.78-64.93,657.78s-116,49.39-260.51,42.77c-25.47-1.16-71.76-22-100.65-40.31-3-37.11,0-54.77-3.6-91.84C847.64,166,846.05,71.94,846.05,20.1c0,0-6.68-252.87-4.67-344.65S848.35-494.78,858.31-539.79Z"/><path class="cls-19" d="M441.52,101.8c-24.87,7.54-48.2,20.71-74,24.36-30.87,4.37-63,3.11-94.1,2.11-30.25-1-59.83-3.27-89.38-10.15A443.2,443.2,0,0,1,99.72,88.91C110,16,128.22-151.22,99-270.6,71.53-383,129.94-459,161.42-506.88l255.15,19.61,12.94,52.52C443.65-376.16,444.35-245,439-86.24Z"/></g><path d="M1109.17,199.94c-1.36-30-2.49-65.15-12.12-85.2-8.3-16.85-26.89-26.78-46.93-37.65-31.68-17.18-71-11.94-97.22-5.4s-83.55,49.09-74.59,94.37c0,0,20.77-43,37.09-54.2,19.76-13.38,32.09,8.44,51.76-.21s38.27-21.38,61-8.68c25.13,13.84,16.26,27.42,21.44,53.23,0,0,1.06,39.08,4.89,45s10.92,1.3,11.54,7-2.26,37.69,11.28,37.94c3.7.07,4.08-22.49,8.21-33.07S1100.69,196.53,1109.17,199.94Z"/><path d="M1068.9,128.48a31.53,31.53,0,0,1-13.1,8.5,10.94,10.94,0,0,1-13.08-5.82c-.69-2.29-.63-5.09-2.31-6.59s-5.26-.74-8.07,0c-9.47,2.41-22.26-6.59-26.06-15.58A8.78,8.78,0,0,1,995.1,113a30,30,0,0,1-9-6,13.76,13.76,0,0,0-12.17-4,33.91,33.91,0,0,1-7,2.62c-4.36.23-7.22-4.53-8.52-8.76s-2.54-9.19-6.53-11A17.34,17.34,0,0,0,940,87.41c-3.94,1.16-9.21,1.14-10.69-2.81a8,8,0,0,1,.63-6.23A21.63,21.63,0,0,1,954.05,66.6a29.39,29.39,0,0,1,52.56-13.34,29.78,29.78,0,0,1,48.7,3.94,21.6,21.6,0,0,1,28.58,27.46,20.53,20.53,0,0,1,13.47,14.51,11.74,11.74,0,0,1-9.48,13.63,11.47,11.47,0,0,1-1.93.19,12,12,0,0,1-18.85,14.74"/><path d="M867.57,152.8s10,12.25,23.17,9,15-24.7,15-24.7,12.73,11.9,29.5,5.59,14-22.82,14-22.82S880.82,108.3,867.57,152.8Z"/><path d="M944,123.58s10,12.26,23.17,9,15-24.69,15-24.69,12.73,11.9,29.5,5.58,14-22.81,14-22.81S957.21,79.09,944,123.58Z"/><path d="M979.18,108.13s.28,15.84,12.61,21.42,27.12-10.05,27.12-10.05,2.61,17.23,19.69,22.67,25.09-9.26,25.09-9.26S1017.15,81.42,979.18,108.13Z"/><path class="cls-15" d="M1037.71,335.11a5.62,5.62,0,0,1-2.4,1.91c-1.09.36-1.9,3.05-3,2.87a13.67,13.67,0,0,0-12,4.28c-2,2.24-3.46,5.3-6.29,6.35-3.7,1.37-8-1.4-11.67,0-3.25,1.24-5,5.39-8.41,5.91a4.49,4.49,0,0,1-1.94-.13,3.79,3.79,0,0,1-1.74,1.09,2.67,2.67,0,0,1-3.8.85c-3.75-2.19-8.73-5.05-11.33-9-.73,3.1-1.57,6-4.37,7.14-4,1.64-8.28-2.09-12.55-1.62-3.36.37-6,3.28-9.41,3.62-2.44.25-4.78-.89-7-2-5.52-2.8-10.66-7.45-16.18-10.26,2.19,6.19,4.78,13.94,8.46,19.38,1.54,2.28,4.07,4.76,6.63,3.73.14-1,.74,1,.88.05.87,3,2.16,3.61,5.26,3.41,2-.13,3.86-.43,5.85-.41,2.83,0,4.43,2.17,7.26,2.12s4.77-3.58,7.43-2.94c1.32.32,2.21,1.61,3.48,2.09,3.64,1.39,6.37-4.19,10.24-4.58,2.21-.22,4.29,1.32,6.49,1.13s3.84-2,6-2.35c3-.55,6,1.75,8.93,1,3.13-.78,8-3,11.23-3,1.37,0,3.74-.53,5.08-.22,3.58.82,7.07-1.47,9.93-3.77,13.47-10.8,29.59-41.27,37.22-56.75C1058,308,1043.26,328.67,1037.71,335.11Z"/><path class="cls-15" d="M954.47,357a5.26,5.26,0,0,1-1.94-3.46,2.69,2.69,0,0,1,2.28-2.88,3,3,0,0,0,1.2-.08c.67-.31.68-1.26.42-1.94a4.69,4.69,0,0,1-.65-2.07c.13-1.32,1.82-1.84,3.15-1.74s2.81.43,3.88-.36c.76-.55,1.09-1.52,1.74-2.2a3.2,3.2,0,0,1,4.88.64,11.7,11.7,0,0,0,.7,1.42c1.33,1.77,4.22.33,6.32,1s2.8,3.15,3.15,5.28.83,4.59,2.73,5.61c1.34.7,3.26.64,3.92,2a2.36,2.36,0,0,1-1,2.82,6.49,6.49,0,0,1-3.11.88c-8.85.89-17.77.19-26.64-.52"/><path d="M1083.3,212.3l4.29-6.33-65.66-4.86h0c-21.57-6.17-50.14,2.58-65.94,15.32l-14.83,2.27.11-.25c-18.72-11.28-47.77-10.37-68.82,2.14l.84,2.31h0c0,.15.21.48.37,1l.76,2c4.67,12.83,10,26.35,14,29.65,2.7,2.23,10.84,2.61,17.51,2.48,2.52,0,4.82-.14,6.47-.22,2-.13,19.57-1.23,22.21-4.3s5.51-24.24,6.27-30.92l15.21-2.25c2.47,4.88,8.67,26.34,16.58,30s45.93-1.89,48.91-7.65c2.11-4.11,6.23-18.86,7.36-26.21l2.24-9.55ZM932.6,251.59c-2.92,3-37.9,5.56-42.56,1.73-3.95-3.25-10.6-21.54-13.11-28.41l0-.29c18.92-10.06,45.09-10.93,61.34-1.43-1.53,11.55-4,26.43-5.63,28.34Zm84.28-10c-1.85,3.64-34.93,10-43.09,6.18-5.67-2.63-10.46-18.3-13.94-27.19,15.48-12.13,47.32-19.8,66.63-13.07a196.54,196.54,0,0,1-9.6,34.08Z"/><path class="cls-8" d="M964.78,409.73,978,462.09l26-46.5,31.32,25.1S1005.4,480.22,979,478.55s-32.34-53.33-32.34-53.33Z"/><path class="cls-8" d="M953.27,376.15s2.46,10.79,8.82,18.89A51.05,51.05,0,0,1,972,416.75l8,40.58L997.08,417a37.32,37.32,0,0,1,15-17.38c26.93-16.32,60.64-32.74,74.5-56.22l39.2,33.59s-39.52,48.95-69.9,60.48l-14,8.65-24.26-19.7a9.57,9.57,0,0,0-14.11,2.27l-24.08,37.58-12.63-36a12.07,12.07,0,0,0-17.06-6.67l-13.25,7s-10.48-5.68-8.91-47.1Z"/><path class="cls-13" d="M951.8,376.54a49.64,49.64,0,0,0,8.58,18.57,54.05,54.05,0,0,1,10.27,22.51L976.41,447l2.11,10.74c.14.74,2.69-.14,2.9-.64L988,441.56l9.41-22.24a56.07,56.07,0,0,1,3.71-7.64,36.53,36.53,0,0,1,7.13-8.4,60.37,60.37,0,0,1,9.13-6.12c12.73-7.55,25.72-14.69,38-22.94,11.2-7.52,22.27-16.06,30.12-27.19q1.35-1.9,2.54-3.92l-2.82.75,13.26,11.36,21.11,18.09,4.83,4.14,0-.41a328.16,328.16,0,0,1-22.91,25.27,252.46,252.46,0,0,1-22.11,20c-7.13,5.64-14.83,11.09-23.33,14.47-2.78,1.1-5.29,3-7.82,4.57l-7.54,4.66,2.5-.45-13.39-10.87-8.37-6.79c-1.94-1.57-3.76-3.27-6.25-3.93a12.45,12.45,0,0,0-13.21,4.95c-.87,1.32-1.71,2.67-2.56,4l-12.26,19.14-5.87,9.16c-1,1.65-2.28,3.28-3.21,5a1.82,1.82,0,0,1-.15.23l2.91-.64L971.5,439c-1.11-3.16-2.13-6.35-3.33-9.47-3-7.88-12.39-9.76-19.38-6.12-4.39,2.29-8.75,4.65-13.13,7l2.22-.29c-1.55-.85-2.62-2.86-3.4-4.34-3.23-6.18-4.3-13.5-5-20.35a169.18,169.18,0,0,1-.46-22.29l-1.33.87,22.47-6.46,3.19-.91c.29-.09,1.47-.41,1.34-.88s-1.36-.15-1.59-.08l-22.47,6.45-3.2.92c-.38.11-1.31.35-1.33.87a161.11,161.11,0,0,0,.68,24.46,65.7,65.7,0,0,0,3,14.15,24.42,24.42,0,0,0,3.42,6.73,6.19,6.19,0,0,0,1.85,1.86c1.12.52,2.48-.4,3.47-.92l6-3.16,5.5-2.92a9.41,9.41,0,0,1,6.65-1.1,11.75,11.75,0,0,1,7.86,5.81,19.6,19.6,0,0,1,1.26,3.07l3.72,10.61,8.31,23.65.16.48c.28.8,2.62-.19,2.91-.65l19.47-30.4,4-6.19c1.52-2.37,3.49-4.57,6.56-4.54s5,1.74,7.13,3.46l7.49,6.09,15,12.19c.57.46,2-.13,2.5-.45l6.48-4,4.64-2.86c.91-.57,1.93-1.08,2.8-1.73.25-.19-.21.13-.27.14a9.53,9.53,0,0,0,1.45-.58c1-.43,2-.88,3-1.36,2-1,4-2,5.9-3.15a120.2,120.2,0,0,0,11.81-8c14.77-11.16,27.91-24.49,40.16-38.31,2.76-3.11,5.49-6.25,8.11-9.48.1-.13.21-.27,0-.41l-13.25-11.36L1092.83,347l-4.83-4.14c-.59-.5-2.48.17-2.83.76-6.93,11.67-17.77,20.59-28.77,28.26-12.21,8.51-25.24,15.75-38.07,23.28-6.21,3.65-12.41,7.12-17.06,12.77a42.33,42.33,0,0,0-6.16,10.51l-8.66,20.45-5,11.78c-.92,2.18-2,4.35-2.79,6.59,0,.11-.09.22-.14.33l2.91-.64-5.14-26.21-2.6-13.23a53.62,53.62,0,0,0-8.14-20.11c-1.63-2.38-3.47-4.57-4.93-7.06a53.3,53.3,0,0,1-3.4-7,51.05,51.05,0,0,1-2.5-7.62C954.58,375.09,951.64,375.81,951.8,376.54Z"/><path class="cls-13" d="M839,515.36a266.61,266.61,0,0,1,2.67,32.79c.48,13.87.48,27.76.31,41.64-.18,15.05-.57,30.1-1,45.15-.43,14.16-.92,28.33-1.34,42.5-.34,11.44-.66,22.89-.64,34.33,0,1.14,0,2.28,0,3.42,0,1.3,3,.72,2.94-.33-.11-11,.18-22,.49-33.06.39-14,.88-28,1.31-42,.47-15,.89-30.1,1.12-45.15.21-14.15.27-28.31-.1-42.46A318.21,318.21,0,0,0,842.44,518c-.15-1.13-.32-2.26-.49-3.38s-3.12-.39-2.93.78Z"/><path class="cls-13" d="M838.28,796c-1.23,13.14-2.51,26.27-3.68,39.42-1.33,15.16-2.54,30.33-3.43,45.52-.86,14.6-1.47,29.23-1.34,43.85.09,11.48.43,23.16,2.62,34.46a44.75,44.75,0,0,0,3.4,11.16c1.18,2.41,2.78,4.85,5.25,6.08a8.34,8.34,0,0,0,1.75.64,2.66,2.66,0,0,0,2.34-.63c.49-.51.38-1.12-.34-1.29a6.37,6.37,0,0,1-2.55-1.35,12.59,12.59,0,0,1-2.46-3.07,34.81,34.81,0,0,1-3.57-10c-2.44-10.69-2.88-21.88-3.07-32.81-.25-14.28.26-28.58,1-42.84.82-15.1,2-30.18,3.27-45.24,1.16-13.38,2.44-26.75,3.71-40.12l.39-4.13c.13-1.43-3.22-.84-3.33.38Z"/><path class="cls-13" d="M838,703.9l6.3.51,17.25,1.41L887,707.9l31.16,2.55,34,2.78L986.39,716l32,2.62,27.15,2.22,19.43,1.59c3.08.25,6.17.59,9.25.75l.39,0c.49,0,2.3-.24,2.46-.86l2.74-10.6,6.87-26.65,9.14-35.42,9.4-36.45L1113,583l4.24-16.44c.75-2.94,1.37-5.92,2.09-8.87q3.72-15.3,8.37-30.37a262.28,262.28,0,0,1,13.69-36.09,93.85,93.85,0,0,1,8.39-14.51c2.46-3.39,5.38-6.87,9.12-8.88a6.61,6.61,0,0,1,3.54-1,3.64,3.64,0,0,0,2.12-.57c.35-.3.53-.6-.16-.58-9.1.17-15.45,8-19.91,15.07-6.71,10.56-11.35,22.46-15.48,34.22-4,11.43-7.43,23.06-10.49,34.78-1.41,5.41-2.66,10.84-4,16.28-.85,3.54-1.83,7.07-2.74,10.6l-7,27-9.27,36-9.54,37-7.75,30-4,15.62-.18.71,2.46-.86-6.3-.52L1053,720.17l-25.41-2.08-31.15-2.55-34-2.78L928.19,710l-32-2.62-27.15-2.22-19.44-1.59c-3.08-.25-6.16-.59-9.25-.76l-.39,0a3.45,3.45,0,0,0-2.12.57c-.4.34-.49.53.16.59Z"/><path class="cls-15" d="M977.24,351.8c1.66-.43,11.53,1,13.19,1.47,2.43.68,5-.64,7-2.09s4.17-3.14,6.69-3.36,5,1.11,7.51.83c3-.31,5.21-2.72,7-5.07s3.65-5,6.43-6c1.52-.57,3.19-.61,4.73-1.11,3-1,5.15-3.56,6.78-6.24s2.91-5.6,5-8c3.25-3.76,8.06-5.72,12.68-7.55-2.55,5.47-6.11,10.39-9.66,15.28-4,5.48-7.95,11-12.19,16.25-2.24,2.78-4.62,5.57-7.7,7.37a28.51,28.51,0,0,1-7.69,2.77,320.63,320.63,0,0,1-35.81,5.68"/><path class="cls-15" d="M951.55,286.46a12,12,0,0,1-.49,1.54c-.1.24-.21.48-.32.71l0,0-.11.21-.2.36a12.83,12.83,0,0,1-.89,1.29l-.54.63h0a1.59,1.59,0,0,0-.13.13l-.33.32c-.16.14-.36.37-.3.61s.36.34.56.38a2.67,2.67,0,0,0,2.07-.56,12.19,12.19,0,0,0,3.62-6c.16-.63-.88-.64-1.25-.59a2.92,2.92,0,0,0-1.11.37,1.21,1.21,0,0,0-.56.6Z"/><path class="cls-15" d="M946.86,287.62a11.3,11.3,0,0,1-.56,1.35l-.18.34s-.08.15,0,.08l-.07.11c-.13.22-.26.43-.4.63a10.07,10.07,0,0,1-.92,1.13l-.24.26-.09.08.08-.08s-.09.09-.11.11a7.34,7.34,0,0,1-.6.51l2.62-.22a.69.69,0,0,1,0-.2v.18a2.16,2.16,0,0,1,.05-.27c0-.09,0-.08,0,0,.07-.09.06-.08-.05,0,.14-.13.37-.34.31-.56s-.37-.31-.55-.33a2.68,2.68,0,0,0-1.09.09,2.39,2.39,0,0,0-1,.46,1.38,1.38,0,0,0-.56,1.36c.09.39.8.36,1.06.34a3,3,0,0,0,1.56-.56,11.52,11.52,0,0,0,3.73-5.28c.07-.22-.11-.37-.28-.45a1.91,1.91,0,0,0-1-.05,3.08,3.08,0,0,0-1.11.36,1.15,1.15,0,0,0-.57.56Z"/><path class="cls-15" d="M943.14,287.27c-.26.5-.54,1-.84,1.48-.12.21.08-.11,0,0a1,1,0,0,1-.11.17l-.21.34-.51.74a24.55,24.55,0,0,1-2.21,2.66.94.94,0,0,0,.41,1.51,1.94,1.94,0,0,0,2.07-.55,26.24,26.24,0,0,0,4.22-6c.34-.65-.3-1.25-.91-1.32a1.86,1.86,0,0,0-1.9.92Z"/><path class="cls-15" d="M938.37,288.61a13.8,13.8,0,0,1-3.21,6.12c-.42.47.38.5.69.47a4.39,4.39,0,0,0,1.14-.26,2.11,2.11,0,0,0,.82-.44,14.54,14.54,0,0,0,3.45-6.41c.12-.5-.93-.32-1.17-.27a4.39,4.39,0,0,0-1.12.34c-.17.09-.55.24-.6.45Z"/><path class="cls-15" d="M934.57,290.07s-.11.3-.05.15c0,.09-.07.17-.1.26l-.21.5c-.16.35-.33.69-.52,1s-.39.65-.61,1l-.16.22c.1-.14,0,0,0,.06s-.25.31-.38.47-.48.54-.74.79l-.44.41-.21.18c.22-.18,0,0,0,0-.3.23-.61.46-.93.67-.15.1-.3.2-.46.29s-.34.24,0,0a1.32,1.32,0,0,1-.29.15c-.45.24-1.17.81-.73,1.38s1.45.4,2,.14a14.06,14.06,0,0,0,6.94-8c.08-.24-.15-.53-.33-.64a1.62,1.62,0,0,0-1-.18,1.84,1.84,0,0,0-1.63,1.11Z"/><path class="cls-15" d="M930.64,290.77a14.29,14.29,0,0,1-1.23,2.32l-.16.23c0,.07,0,.07,0,0a1.13,1.13,0,0,1-.1.13c-.12.17-.25.34-.38.5-.28.34-.57.67-.87,1l-.45.44-.25.23-.05,0c-.33.28-.68.55-1,.8-.17.12-.34.24-.52.35l-.29.18c-.15.09.22-.12,0,0-.4.22-.81.42-1.23.61s-1.14.86-.71,1.43,1.42.41,2,.17a15.6,15.6,0,0,0,8.1-8.14c.63-1.49-2.31-1.39-2.78-.27Z"/><path class="cls-15" d="M957.22,286.44a6.47,6.47,0,0,0,3.94,3.32,2.22,2.22,0,0,0,1,.08,3.16,3.16,0,0,0,1.11-.37c.2-.13.52-.32.56-.59a.4.4,0,0,0-.28-.47,6.3,6.3,0,0,1-1.52-.68l.19.12a6.11,6.11,0,0,1-1.9-1.92l.1.16-.24-.43c-.27-.55-1.16-.42-1.64-.28a2.48,2.48,0,0,0-1,.47c-.14.12-.41.38-.3.59Z"/><path class="cls-15" d="M960.81,285.73A13.57,13.57,0,0,0,969,290a3.17,3.17,0,0,0,2.07-.55c.15-.11.38-.29.33-.5s-.37-.25-.53-.27a12.38,12.38,0,0,1-7.34-3.95c-.14-.16-.58-.16-.76-.15a3.76,3.76,0,0,0-1.14.25c-.28.11-1.23.51-.84.94Z"/><path class="cls-15" d="M965.68,284.22a32.8,32.8,0,0,0,9.54,6.33,2.45,2.45,0,0,0,2.07-.28c.37-.22.91-.82.26-1.1a31.7,31.7,0,0,1-9.15-6.08c-.47-.44-1.41-.22-1.93,0-.31.13-1.27.68-.79,1.13Z"/><path class="cls-15" d="M972.71,285a68.75,68.75,0,0,0,9.27,5.69,2,2,0,0,0,2.1-.18c.42-.32.82-1.18.15-1.53a67,67,0,0,1-9.26-5.68,1.88,1.88,0,0,0-2.1.17c-.51.38-.75,1.1-.16,1.53Z"/><path class="cls-15" d="M978.32,285.28q3.15,1.86,6.39,3.55c2.21,1.14,4.44,2,7,1.31.38-.11,1.42-.45,1.29-1s-1.32-.33-1.64-.24a3.81,3.81,0,0,1-2.37-.45c-.93-.38-1.82-.87-2.71-1.34q-2.82-1.49-5.57-3.11c-.72-.43-3.44.67-2.35,1.31Z"/><path class="cls-15" d="M983,283.87a82.44,82.44,0,0,1,7,4.91c2.21,1.59,4.59,2.72,7.38,2.38.51-.06,1.56-.36,1.67-1s-.88-.63-1.25-.59c-2.2.27-4.32-1.35-6-2.61a58.72,58.72,0,0,0-6.46-4.5,2.36,2.36,0,0,0-2.07.29c-.43.25-.86.76-.27,1.09Z"/><path class="cls-15" d="M993.21,286.61c2.12.16,4,1.38,5.88,2.23a21.65,21.65,0,0,0,6.72,1.7,2,2,0,0,0,1.91-.89c.3-.64-.28-1.14-.89-1.19a19.32,19.32,0,0,1-6.44-1.74c-2-.93-3.91-2-6.16-2.19a2,2,0,0,0-1.91.88c-.3.64.27,1.15.89,1.2Z"/><path class="cls-13" d="M1075.35,721.75c12.84,7.54,27.94,17,29.57,33.32.09.93,3,.3,2.92-.78-1.65-16.63-17.1-26.27-30.15-33.93-.8-.47-3.5.7-2.34,1.39Z"/><path class="cls-6" d="M836.12,759.45l-44.21-1.32s-22.26,9.79-41,8.17a147.63,147.63,0,0,1-39.18-10.52l-18.89,1.4a38.68,38.68,0,0,1-13.58-1.41l-10.18-2.93s-19,9.13-22.27,3.43,2.89-11,8.91-16.09,108.54-44.31,108.54-44.31a199.56,199.56,0,0,0-32-11.7c-16.9-4.47-19.18-15.69-14.3-23.87s29.9.26,36.62,7.81,29.39,1.79,45.8,8.66,26.7,28.74,26.7,28.74c5.14,3,17.1,1.45,17.1,6.2A144.52,144.52,0,0,1,836.12,759.45Z"/><polygon class="cls-8" points="849.54 705.27 837.22 773.4 818.34 768.89 828.03 702.05 849.54 705.27"/></g></svg>