<svg xmlns="http://www.w3.org/2000/svg" xmlns:xlink="http://www.w3.org/1999/xlink" viewBox="0 0 1303.15 1057.31"><defs><style>.cls-1{fill:#334872;}.cls-2{fill:url(#linear-gradient);}.cls-3{fill:#a66e53;}.cls-4{fill:#97a756;}.cls-5{fill:#543715;}.cls-6{fill:#f0efef;}.cls-7{fill:#2d2d2d;}.cls-8{fill:#494a4b;}.cls-9{fill:#606161;}.cls-10{fill:#59341c;}.cls-11{fill:#131429;}.cls-12{fill:#070708;}.cls-13{fill:#eb9944;}.cls-14{fill:#231f20;}.cls-15{fill:#010101;}.cls-16{fill:#b7b338;}.cls-17{fill:#151312;}.cls-18{fill:#513835;}.cls-19{fill:#797979;}.cls-20{fill:#273339;}.cls-21{fill:#772515;}.cls-22{fill:#383838;}.cls-23{fill:#919191;}.cls-24{fill:#4a1611;}.cls-25{fill:#fff;}.cls-26{fill:#54381f;}.cls-27{fill:#1b120c;}.cls-28{fill:#3d4c25;}.cls-29,.cls-35{fill:#4f2e25;}.cls-30{fill:#444545;}.cls-31{fill:#151210;}.cls-32{fill:#24180f;}.cls-33{fill:#653c29;}.cls-34{fill:#4a4849;}.cls-35{stroke:#4f2e25;stroke-miterlimit:10;stroke-width:0.1px;}.cls-36{fill:#ffd215;}.cls-37{fill:#231311;}.cls-38{fill:#7b7b7b;}</style><linearGradient id="linear-gradient" x1="545.39" y1="-589.87" x2="556.46" y2="909.16" gradientUnits="userSpaceOnUse"><stop offset="0" stop-color="#262262" stop-opacity="0"/><stop offset="0.33" stop-color="#24205c" stop-opacity="0.1"/><stop offset="0.65" stop-color="#1e1b49" stop-opacity="0.42"/><stop offset="0.97" stop-color="#13132a" stop-opacity="0.94"/><stop offset="1" stop-color="#121226"/></linearGradient></defs><g id="Layer_11" data-name="Layer 11"><rect class="cls-1" x="-278.48" y="-157.2" width="1658.59" height="1243.95"/><rect class="cls-2" x="-275.83" y="-58.15" width="1658.59" height="1123.14"/><path class="cls-3" d="M981.59,574.48c-4.55,10-.56,16.08,7.11,2.5,0,0-1.3,15-1.85,20.65s-11.22,8.06-4.67,12.43c4.23,2.82,8,13.46,9,9.82S997.71,598,997.71,598s-3.45,18.69-2.42,23.18,8.44,2.81,9.68.17a5.43,5.43,0,0,0,6.77.92c2.94-1.63,3.7-3.8,4.44-7.15,1.3-5.85-.24-13-.24-13l3.29-1.15s-1.29-1.07.73,3.19,8.06,3.21,9.2-1.43c1.42-5.81-.22-6.21.66-13.93.7-6.19,8.56-16.19.18-33.49l1-4.58,3.7-10.16L1006.11,536l-3.94,16,13.08,9.6"/><path class="cls-4" d="M959.32,584.48a8.94,8.94,0,0,0-5.63,5.36,33.7,33.7,0,0,1-1.9,3.92,13,13,0,0,1-6.65,5.37c-9.85,4-19.68,8.07-29.52,12.12l-1,.41c.1,1.33.12,2.68.09,4l.79-.33,2.71-1.13c.22.81.44,1.62.68,2.42.75,2.56,1.52,5.12,2.28,7.67l.18.38q5.32-.93,10.65-1.88,8.52-1.5,17-3c1.53-.27,3.05-.52,4.57-.83a9.93,9.93,0,0,1,7.1,1.09c1.31.74,2.54,1.59,3.84,2.33a6.59,6.59,0,0,0,5.13.64c3.24-.89,6.46-1.88,9.69-2.82a1.21,1.21,0,0,1,0-.19l-.1-.34a.17.17,0,0,1-.07-.23l-.8-2.77h-.1l-1.94-6.64.09,0q-1.8-6.18-3.61-12.38l2.35-.52,0-.22q-2.16-7.44-4.33-14.86a.15.15,0,0,1-.07-.23c0-.16-.07-.32-.11-.48a.38.38,0,0,1-.09-.13C966.85,582.28,963.07,583.34,959.32,584.48Z"/><path class="cls-4" d="M1017.57,566.06q-5.79,1.68-11.57,3.4a.29.29,0,0,1,0,.13c.08.22.16.44.22.67q3.45,11.78,6.88,23.56c.08.28.15.56.22.84,0,.09.09.19.14.28h0q2,7,4.07,14l11.27-3.29c1.86-.16,2.78-2.23,2.06-4.64-3.19-10.72-6.29-21.46-9.42-32.2C1020.79,566.59,1019.34,565.54,1017.57,566.06Z"/><path class="cls-4" d="M918.05,613.7a15.09,15.09,0,0,1-.83-3.15,2.07,2.07,0,0,1-.4-1c-.12-.41-.34-.56-.76-.44-.92.28-1.85.51-2.75.82a1.9,1.9,0,0,0-1.28,2.46q2,6.82,4,13.64a1.9,1.9,0,0,0,2.48,1.35c.83-.22,1.65-.5,2.48-.71.58-.14.79-.41.56-1a7.28,7.28,0,0,1-.23-.92c0-.14-.09-.28-.13-.42-.76-2.55-1.53-5.11-2.28-7.67C918.6,615.68,918.33,614.69,918.05,613.7Z"/><path class="cls-5" d="M1005.11,569.56c-12.24,3.57-29.65,9.1-41.89,12.68l-.41.14c0,.19-.21.19-.34.23l.11.43.06.21q2,6.69,3.91,13.39a1.72,1.72,0,0,0,.07.21.18.18,0,0,0,0,.11q2.07,7.1,4.13,14.19l2.09,7.12.86,3c0,.08,0,.16.07.24s.07.24.1.36l.09.17c.16,0,.32-.06.48-.11,12.42-3.62,30-9.2,42.43-12.83.14,0,.27-.1.41-.15q-2-7-4.07-14l-.14-.29c-.07-.28-.14-.56-.22-.83q-3.43-11.79-6.88-23.57c-.06-.22-.14-.44-.22-.67l-.26-.06Z"/><path class="cls-3" d="M995.56,618.29c.27-3.66,1.07-13.13,4-14.45,2.62-1.2,6.15,1.32,6.83,8.29,0,0,2.79-9.81,7.1-9.63,3.52.14,3.89,4.37,3.75,5.74-.15,1.58-.83,7.22-.83,7.22Z"/><path class="cls-3" d="M1006.32,537.21l12.35,23.34a62.24,62.24,0,0,1-9.36,9.49c-5.78,4.75-17.71,8.61-17.71,8.61l-2.23,2.44c7.74,21.48-.37,19.9-2.32,18.24s-12.92-15.61-8.37-25.58c0,0,10.33-11.59,15.21-16.61S1006.32,537.21,1006.32,537.21Z"/><path class="cls-3" d="M995.39,617.67c1.61-10.11-7.62-15.85-11.46-.45C981.55,626.71,993.75,627.91,995.39,617.67Z"/><path class="cls-3" d="M1017.45,611.81c1,4.3,6.6,4.68,8.65.72,2.57-4.94,1.65-13.54-2.67-13.33C1023.43,599.2,1014.89,600.32,1017.45,611.81Z"/><path class="cls-6" d="M1051,221.35c-3.55,1.61-40.75,13.53-46.85,42.51s-.19,131.56-2.51,156.91c-3.11,29.56-5.78,48.87-6.89,86.8l2.92,40.66,20.71-1.77s22.5-140.18,33.88-180.87S1051,221.35,1051,221.35Z"/><polygon class="cls-7" points="1144.41 1194.41 -278.72 1194.41 -277.87 1024.02 907.2 1024.02 1144.41 1194.41"/><polygon class="cls-8" points="568.49 968.61 568.49 1024.02 802.78 1194.41 851 1194.41 914.07 1194.41 568.49 968.61"/><polygon class="cls-9" points="1379.6 1194.41 915.85 1194.41 571.98 971.06 1380.1 971.06 1379.6 1194.41"/><polygon class="cls-3" points="1125.47 940.27 1076.6 936.97 1075.99 920.23 1124.68 918.46 1125.47 940.27"/><path class="cls-10" d="M995.86,975.54s-1.67-8.65,5.76-11.81,24.19-8.43,36.59-14.81c17.22-8.85,27.37-22.14,35-22.74s6.23,12.14,23.15,12.54,29.41-8.52,30.2-8.8c3.8,2.28,10.65,28.52,6.11,35.1s-45.47,9.57-45.47,9.57l-32.78,6.64-32.79,1.29Z"/><path class="cls-11" d="M1102.62,973a25.72,25.72,0,0,1,.93-8.82,10.59,10.59,0,0,1,2.28-4.12c1.36-1.46,3.21-2,5-2.67,6-2.18,13.74-3.9,17.46-9.57,2.32-3.54,2.35-7.85,1.71-11.89-.08-.51-1.24-.22-1.16.31.6,3.86.59,8-1.58,11.35-1.78,2.79-4.75,4.44-7.71,5.72-3.64,1.56-7.43,2.74-11.13,4.15a9.77,9.77,0,0,0-5.81,6,24.55,24.55,0,0,0-1.2,9.63c0,.58,1.19.38,1.17-.1Z"/><path class="cls-12" d="M1127.75,931.63a43.62,43.62,0,0,1-17.62,8.09,52.79,52.79,0,0,1-12.56.57,62.57,62.57,0,0,1-9.34-1.07c-5.16-1-10-3.52-15.36-3.7a20.26,20.26,0,0,0-9.52,2.46,91.22,91.22,0,0,0-10.66,6.48c-2,1.35-4,2.7-6,4-1.14.73-2.29,1.45-3.45,2.15a21.79,21.79,0,0,1-3.31,1.9,1.56,1.56,0,0,1-1.43-.11c-1.36-.73-1.16-2.52-.9-3.8.13-.59-1.07-.45-1.18.09-.41,2-.16,4.27,2.15,4.77a3.09,3.09,0,0,0,1.32.06,13.11,13.11,0,0,0,2.85-1.59c.93-.54,1.85-1.1,2.76-1.67,3.93-2.44,7.72-5.1,11.6-7.61,3.56-2.3,7.32-4.66,11.45-5.75,6.16-1.63,12,1.44,17.84,2.86a55.25,55.25,0,0,0,8.79,1.27,63.81,63.81,0,0,0,12.74-.09c7.67-1,14.46-4.25,20.66-8.77.64-.46-.3-.9-.78-.55Z"/><path class="cls-12" d="M1076.73,976.89l6.83-1.39c.09,0,.85-.21.66-.4a27.78,27.78,0,0,0-11.15-6.82c-4.91-1.58-10-1.56-15.07-1.69-5.49-.13-11-.25-16.47-.63a56.25,56.25,0,0,1-13-2,9.1,9.1,0,0,1-4.11-2.26c-1.7-1.93-.6-4.75.45-6.71.07-.13-1-.08-1.15.21-.94,1.77-2,4.23-.91,6.18a5.66,5.66,0,0,0,2.6,2.18c3.44,1.68,7.54,2.09,11.29,2.47,5.24.53,10.51.71,15.77.85,5.54.16,11.29-.16,16.73,1a27.9,27.9,0,0,1,14,7.56l.66-.39-6.83,1.38c-.45.09-1,.57-.22.41Z"/><path class="cls-13" d="M1081.13,975.67l-.15.18.28-.06Z"/><path class="cls-14" d="M1080.65,975.51l-.16.18-.07.1,0,.11v.1a.2.2,0,0,0,.08.13.23.23,0,0,0,.1.07l.12,0a.38.38,0,0,0,.15,0,.46.46,0,0,0,.23,0l.24-.05h0a1,1,0,0,0,.28-.13.62.62,0,0,0,.14-.14.46.46,0,0,0,.07-.16.25.25,0,0,0-.06-.2l-.13-.12a.21.21,0,0,0-.13-.1.47.47,0,0,0-.19-.06.58.58,0,0,0-.23,0,.6.6,0,0,0-.23.06l-.13.08a.52.52,0,0,0-.17.19l0,.11a.29.29,0,0,0,0,.2l.13.12.44-.63-.25.05h0l.58.53.15-.18a.24.24,0,0,0,.09-.15.22.22,0,0,0,0-.16.18.18,0,0,0-.09-.13.24.24,0,0,0-.15-.09l-.13,0a.8.8,0,0,0-.31,0l-.15.05A.66.66,0,0,0,1080.65,975.51Z"/><path class="cls-13" d="M1092.59,971.75h-1.35a16.8,16.8,0,0,1-.18,2.51l1.39-.13A20,20,0,0,0,1092.59,971.75Z"/><path class="cls-14" d="M1092.8,971.36h-1.35a.93.93,0,0,0-.52.12c-.11.06-.28.18-.28.32a17.54,17.54,0,0,1-.17,2.51c0,.29.32.36.52.35l1.39-.13c.23,0,.61-.17.65-.45a21,21,0,0,0,.14-2.38c0-.27-.29-.37-.53-.34a.91.91,0,0,0-.44.16c-.08.06-.21.17-.21.29a18.73,18.73,0,0,1-.14,2.37l.65-.44-1.39.13.53.34a17.55,17.55,0,0,0,.18-2.51l-.8.45h1.35a1,1,0,0,0,.46-.08.61.61,0,0,0,.3-.27C1093.25,971.56,1093.05,971.36,1092.8,971.36Z"/><path class="cls-13" d="M1098.64,970.22c0,1.06,0,2.15,0,3.25h.19l1.16-.14c0-1-.06-2.06,0-3.06Z"/><path class="cls-14" d="M1098.06,970.29c0,1.11,0,2.23,0,3.34,0,.2.39.2.51.19.45,0,.9-.09,1.35-.14.26,0,.67-.19.66-.51,0-1-.06-2,0-3,0-.21-.19-.28-.37-.29l-1.35,0a.88.88,0,0,0-.76.33c-.15.23.12.37.32.37l1.35.06-.36-.29c0,1,0,2.1,0,3.15l.66-.5c-.45,0-.9.12-1.35.14l.51.19c0-1.06-.06-2.11,0-3.17,0-.26-.31-.3-.52-.27S1098.07,970,1098.06,970.29Z"/><path class="cls-15" d="M1136.52,965.27l-1.29.15-.27-1.21c-5,.6-22.4,2.72-33,4.6-3.23.58-7.31,1.54-12,2.66-10.93,2.59-25.91,6.13-41.79,7.38-2.84.22-5.66.37-8.37.43a196.66,196.66,0,0,1-45.42-4.39l-.16,1.23-.94-.22s-.35,1.68-.66,3.22h0c0,.14-.06.27-.08.41-.11.54-.22,1.05-.29,1.42,11.18,6.36,59.4,6.3,70.26,3.18.68-.2,1.42-.41,2.2-.61l1-.26,1.56-.41c11.65-2.94,29-6.34,29-6.34s-.06,1.72,0,3.74h0s0,0,0,.06c0,.86,0,1.76.11,2.61a287,287,0,0,0,41.47-3.88Z"/><path class="cls-14" d="M1136.59,964.93l-1.28.15.51.19-.28-1.22c0-.19-.36-.2-.51-.19-7.7.93-15.39,1.91-23.06,3-4.3.63-8.6,1.26-12.85,2.15-4.93,1-9.82,2.26-14.73,3.4a256.67,256.67,0,0,1-33.25,5.81,178.44,178.44,0,0,1-34.74-.27,174.6,174.6,0,0,1-21.68-3.43c-.26-.06-.89.05-.94.4l-.15,1.24.93-.4-.94-.23c-.28-.07-.87.06-.94.4l-.66,3.22,1.05-.36h0c-.29-.13-1,0-1.05.36l-.36,1.83a.2.2,0,0,0,.12.22,25.13,25.13,0,0,0,6.6,2.31,87.21,87.21,0,0,0,9.37,1.57,217,217,0,0,0,23.77,1.41c7.28.08,14.59-.06,21.85-.69a67.92,67.92,0,0,0,7.54-1c3.91-.8,7.75-2,11.64-2.94,7.88-1.85,15.81-3.52,23.75-5.08l-.67-.24c0,1.24-.05,2.49,0,3.74l.66-.42h0c-.26,0-.67.2-.66.5,0,.9.05,1.78.12,2.67,0,.15.25.2.36.2a267.85,267.85,0,0,0,38.66-3.4c1-.16,2-.31,3-.48.25,0,.69-.18.66-.5l-1.25-13.77c0-.41-1.21-.15-1.17.32l1.26,13.76.65-.5a252.37,252.37,0,0,1-41.32,3.87l.36.19c-.06-.89-.07-1.78-.11-2.67l-.66.5h0c.18,0,.66-.17.66-.41,0-1.24,0-2.49,0-3.74,0-.34-.46-.29-.67-.24q-9.89,1.93-19.71,4.15c-4.77,1.07-9.51,2.26-14.24,3.53a43.23,43.23,0,0,1-6.6,1.07,195.09,195.09,0,0,1-21.21.89,235.57,235.57,0,0,1-23.75-1.14A97.47,97.47,0,0,1,999.49,983a41.49,41.49,0,0,1-4.1-1.14c-.57-.2-1.14-.42-1.69-.67-.16-.08-.65-.23-.76-.38s.16-1.3.25-1.73l-1,.36h0c.29.13,1,0,1-.36l.66-3.22-.94.4,1,.22c.26.06.89-.05.93-.4l.16-1.23-.94.4a171.3,171.3,0,0,0,18.17,3,185.63,185.63,0,0,0,33.08,1.13,222.17,222.17,0,0,0,34.29-5.19c9.54-2.1,19-4.59,28.65-6.08,8.87-1.36,17.77-2.5,26.69-3.57l-.51-.19.27,1.22c0,.19.36.2.51.19l1.28-.16C1137,965.55,1137.4,964.83,1136.59,964.93Z"/><path class="cls-15" d="M1068.28,933.88a1,1,0,0,0,.94.49.88.88,0,0,0,.46-.16,1,1,0,0,0,.32-1.43l-3.35-5.47c-.56.34-1.13.72-1.71,1.12Z"/><path class="cls-14" d="M1067.75,934.14a1.69,1.69,0,0,0,3-.81,2.4,2.4,0,0,0-.54-1.34l-2.34-3.81-.69-1.13c-.19-.31-.7-.15-.92,0-.58.36-1.14.74-1.71,1.12a.38.38,0,0,0-.14.52l2.92,4.78.42.68c.27.44,1.39,0,1.07-.51l-2.93-4.78-.42-.68-.14.52c.56-.38,1.13-.76,1.7-1.12h-.92l3.25,5.29a1.23,1.23,0,0,1,.19.4.68.68,0,0,1-.17.64c-.22.16-.45-.09-.56-.26C1068.52,933.2,1067.41,933.64,1067.75,934.14Z"/><path class="cls-15" d="M1063.31,937.09a1,1,0,0,0,.94.48.91.91,0,0,0,.46-.16A1,1,0,0,0,1065,936l-3.21-5.25-1.62,1.27Z"/><path class="cls-14" d="M1062.76,937.31a1.76,1.76,0,0,0,3-.67,1.87,1.87,0,0,0-.46-1.35l-2.26-3.68-.67-1.1c-.17-.28-.84,0-1,.14-.55.42-1.09.84-1.62,1.27-.11.08-.16.18-.08.3l2.72,4.45.39.64c.19.3,1.33-.06,1.09-.45l-2.73-4.45-.39-.63-.08.3,1.62-1.27-1,.15,3.13,5.11a1.21,1.21,0,0,1,.19.5c0,.21,0,.6-.27.71.1,0,0,0-.09-.06a.94.94,0,0,1-.38-.36C1063.65,936.56,1062.51,936.94,1062.76,937.31Z"/><path class="cls-15" d="M1055.52,935.71l2.81,4.58a1,1,0,0,0,.94.48,1,1,0,0,0,.46-.15,1.08,1.08,0,0,0,.32-1.44l-2.92-4.75Z"/><path class="cls-14" d="M1054.94,935.86c.92,1.51,1.83,3,2.77,4.53a1.62,1.62,0,0,0,2,.43,1.27,1.27,0,0,0,.87-1.81c-.43-.76-.92-1.5-1.38-2.25l-1.52-2.49c-.16-.25-1,.09-1.11.21l-1.61,1.28c-.21.16.18.17.26.16a1.5,1.5,0,0,0,.79-.27l1.61-1.28-1.11.21,2.72,4.44a1.62,1.62,0,0,1,.35.9,1,1,0,0,1-.19.54s-.1.09-.12.13.24-.14.25,0l-.35-.12a1.27,1.27,0,0,1-.35-.38l-1.4-2.29-1.35-2.21C1055.94,935.29,1054.86,935.74,1054.94,935.86Z"/><path class="cls-15" d="M1053.35,943.49a1,1,0,0,0,.94.48,1,1,0,0,0,.46-.15,1.06,1.06,0,0,0,.32-1.44l-2.63-4.28-1.64,1.23Z"/><path class="cls-14" d="M1052.77,943.64a1.84,1.84,0,0,0,2.88-.25,1.29,1.29,0,0,0-.15-1.41l-1.88-3.06-.6-1c-.16-.26-.85,0-1,.13l-1.64,1.23s-.17.12-.13.18l2.55,4.16c.18.31,1.27-.13,1.17-.31l-2.56-4.16-.13.19c.55-.41,1.1-.82,1.64-1.24l-1,.13c.86,1.42,1.75,2.82,2.6,4.25a1,1,0,0,1,.16.77.84.84,0,0,1-.12.31s-.2.18-.2.21.3,0,.14-.08a1.15,1.15,0,0,0-.17-.06,1,1,0,0,1-.33-.32C1053.73,943,1052.66,943.48,1052.77,943.64Z"/><path class="cls-15" d="M1048.37,946.69a1,1,0,0,0,.94.48,1,1,0,0,0,.46-.15,1.06,1.06,0,0,0,.32-1.44l-2.45-4c-.55.38-1.11.77-1.69,1.15Z"/><path class="cls-14" d="M1047.84,946.93a1.75,1.75,0,0,0,2.83-.25,1.46,1.46,0,0,0-.16-1.53l-1.76-2.87-.57-.93c-.16-.27-.73-.1-.91,0l-1.69,1.15c-.16.11-.27.27-.16.45l2.42,3.95c.22.37,1.35,0,1.07-.48l-2.42-4-.16.45,1.68-1.15-.91,0,1.16,1.88c.42.69.89,1.38,1.28,2.1a.85.85,0,0,1,0,.76c-.18.4-.48.18-.68-.12S1047.54,946.49,1047.84,946.93Z"/><path class="cls-13" d="M1141.48,950.06h0v0Z"/><path class="cls-14" d="M1140.92,950.25h0l.07,0h.3l.23,0,.29-.1.15-.08.09-.08v-.07l0,0-.07,0h-.16l-.13,0-.15,0-.16,0-.21.07h0a.51.51,0,0,0-.16.09.32.32,0,0,0-.09.08,0,0,0,0,0,0,.06.09.09,0,0,0,.08,0h.1l.27,0,.16,0a1.66,1.66,0,0,0,.29-.1h0l-.9.06v0l1.13-.3h0l-.12,0h-.18a.93.93,0,0,0-.22,0,1,1,0,0,0-.23.06l-.13,0-.2.11,0,.06A.05.05,0,0,0,1140.92,950.25Z"/><path class="cls-6" d="M1149.29,210.23s31.08,11.86,55.46,26.67c37.06,22.52,23.88,89,23.88,89s-60.93-2.3-84.29-13.71Z"/><path class="cls-3" d="M620.43,587.92a36.48,36.48,0,0,1-2.12,3.47,4.18,4.18,0,0,1-3.87.9,22.14,22.14,0,0,1-3.33-1.25c-.9-.67-.34-.16-1.26.48l-1.18.81a2.53,2.53,0,0,1-1.55.49,11,11,0,0,1-3.36-.61c-1.81-.72-3.18-4.49-3.18-4.49l-1.12,1a3.23,3.23,0,0,1-3.93.21l-.74-.41a7.78,7.78,0,0,1-1.72-1.81,2.75,2.75,0,0,0-3.4-.91,4.22,4.22,0,0,1-2.91.52,8.27,8.27,0,0,1-4.51-7.6,3.2,3.2,0,0,1,.09-.62,125.12,125.12,0,0,1,5-15.94c.14-.37.94-6.69,1-7.06,2.6-1.66,3.84,2,5.39-.78,1.44-2.56,2.5-5.3,3.78-7.94a2.7,2.7,0,0,1,2.21-1.48h0a3,3,0,0,0,.78-.19l16.67-6.64c1-.4,2.76-4.82,3.7-4.31,10.18,5.51,20.52,14.37,20.71,14.09s-6.32,6.45-6.33,9.73C635.19,557.63,628.54,575.48,620.43,587.92Z"/><path class="cls-16" d="M727.74,434.62c1.45-2.79,1.91-2.86,2-2.59,0-.41.07-1.27.27-2.89,0-.14,0-.27,0-.4,2-3.66,3.21-5.92,3.21-5.92l-2.53-3.29a182.59,182.59,0,0,0-2.45-32.77c-3.48-23,20.27-58.05,6.46-76.31l-33.94,14.92A75.38,75.38,0,0,0,690,336.48c-3.32,6.67-5.23,14.29-6.86,21.21L668.79,456.5c-4.29,3.9-21.63,25-28.81,39L615,533.3c11.8,11.89,19.19,13.2,27.1,22.23,12.83-8.56,52.86-55.5,64.25-66.61,9.88-5.41,9.19-18.26,9.19-18.26l-5.6,8.44a8,8,0,0,0,1.51-1.76c6.71-8.37,2.72-21.76,8.94-31.91,1,1.34,10.74-9.55,13.07-10.32C732,434.94,727.64,434.81,727.74,434.62Z"/><path class="cls-17" d="M871,259.05a5.87,5.87,0,0,1-.24,4,5.51,5.51,0,0,1-3.41,3.13,5.78,5.78,0,0,1-5.69-1.79,5.08,5.08,0,0,1-1.21-3.29,10.7,10.7,0,0,1,.79-3.87c1-2.58,2.78-5.34,2.67-8.76a12.21,12.21,0,0,0-4.37-9.1,14.61,14.61,0,0,0-4.76-2.71,21.92,21.92,0,0,0-5.56-1,30.68,30.68,0,0,1-5.4-.77,7.23,7.23,0,0,1-4.1-2.74,8.5,8.5,0,0,1-1.32-4.62,16.63,16.63,0,0,1,.63-4.75,35.67,35.67,0,0,0,1.82-9,13.5,13.5,0,0,0-2.47-7.64,17.42,17.42,0,0,0-4.92-4.44,33.37,33.37,0,0,1-3.95-2.93,10.33,10.33,0,0,1-2.38-3.37l0,.28a4.07,4.07,0,0,0,.28.76,8,8,0,0,0,1.85,2.57,32.45,32.45,0,0,0,3.91,3.1,17.37,17.37,0,0,1,4.68,4.4,12.84,12.84,0,0,1,2.24,7.24,35.48,35.48,0,0,1-1.88,8.76,17,17,0,0,0-.68,4.95,9.31,9.31,0,0,0,1.44,5.08,8,8,0,0,0,4.6,3.13,30.79,30.79,0,0,0,5.57.81,21.12,21.12,0,0,1,5.34,1,13.83,13.83,0,0,1,4.48,2.54,11.51,11.51,0,0,1,4.12,8.45c.13,3.13-1.56,5.78-2.54,8.49a11,11,0,0,0-.79,4.15,5.67,5.67,0,0,0,1.42,3.67,6.27,6.27,0,0,0,6.24,1.86,5.9,5.9,0,0,0,3.91-6.6A3.3,3.3,0,0,0,871,259.05Z"/><path class="cls-18" d="M881.17,266s0,.07,0,.11l.29,0Z"/><rect class="cls-14" x="-88.53" y="209.48" width="125.13" height="50.36" rx="12.87"/><path class="cls-14" d="M23.73,261.45H-75.66A14.51,14.51,0,0,1-90.14,247V222.38a14.51,14.51,0,0,1,14.48-14.51H23.73a14.5,14.5,0,0,1,14.48,14.51V247A14.48,14.48,0,0,1,23.73,261.45Zm-99.39-50.36a11.3,11.3,0,0,0-11.26,11.29V247a11.26,11.26,0,0,0,11.26,11.26H23.73A11.26,11.26,0,0,0,35,247V222.38a11.3,11.3,0,0,0-11.26-11.29Z"/><path class="cls-14" d="M404.16,467.39l-43.74-33.77L291.73,199.48,197.93,187l43.9,171.88H-271.44l44-172-92.71,12.52-70.71,237.52-46.26,30.55ZM210.61,199.32l65.48,5.55L335.8,414.26,264,358.55h-3.87Zm-518.33,5.55,67.67-5.55-53.52,171,1.81.61L-367,420.91Z"/><path class="cls-19" d="M271.51,477.68,264,370.36a48.7,48.7,0,0,0-48.58-45.16H116.8a48.68,48.68,0,0,0-48.55,45.16L60.7,477.68Z"/><polygon class="cls-14" points="272.06 450.65 265.32 442.01 195.54 485.78 145.47 485.78 76.18 446.33 70.41 452.59 104.51 500.91 232.96 500.91 272.06 450.65"/><path class="cls-14" d="M105.35,499.3h126.8L270,450.65l-5.06-6.45-68.55,43a1.66,1.66,0,0,1-.84.26H145.48a1.42,1.42,0,0,1-.78-.23L76.51,448.52l-4,4.2Z"/><path class="cls-20" d="M89.09,481a1.43,1.43,0,0,1-.65,0l-25.06-11.1a1.63,1.63,0,1,1,1.32-3h0l25,11.13a1.58,1.58,0,0,1,.87,2.06l0,.07A1.66,1.66,0,0,1,89.09,481Z"/><path class="cls-20" d="M60.31,468.3a1.72,1.72,0,0,1-.64,0l-5-2.2a1.62,1.62,0,0,1,1.32-3h0l5,2.19a1.54,1.54,0,0,1-.68,3Z"/><path class="cls-20" d="M322.06,492.3a1.76,1.76,0,0,1-.94-.29,1.62,1.62,0,0,1-.38-2.23,24.86,24.86,0,0,0,2.8-5.39,1.62,1.62,0,0,1,3,1.13,29.7,29.7,0,0,1-3.23,6.07A1.63,1.63,0,0,1,322.06,492.3Z"/><path class="cls-20" d="M254.8,481a1.62,1.62,0,0,1-.68-3.07l25.07-11.13a1.62,1.62,0,0,1,1.29,3l-25,11.1A1.64,1.64,0,0,1,254.8,481Z"/><path class="cls-20" d="M283.54,468.3a1.62,1.62,0,0,1-.64-3.1l5-2.19a1.6,1.6,0,0,1,2.12.83h0a1.63,1.63,0,0,1-.8,2.12l-5,2.2A1.72,1.72,0,0,1,283.54,468.3Z"/><path class="cls-14" d="M387.19,712.85V916.6H-409.34V712.85H-559.06v297.78a41.94,41.94,0,0,0,41.94,41.94H-451a41.94,41.94,0,0,0,41.93-41.94h0V996.89h72.55l34-21.61H277.61L320.93,1000h66.39v10.68a41.94,41.94,0,0,0,41.94,41.94h65.87a41.94,41.94,0,0,0,41.94-41.94h0V712.85Z"/><path class="cls-14" d="M495.13,1054.05H429a43.47,43.47,0,0,1-43.58-43.39v-9.09H320.93a1.58,1.58,0,0,1-.77-.2l-42.88-24.48H-302.34l-33.58,21.26a1.61,1.61,0,0,1-.87.26h-71v12.13A43.5,43.5,0,0,1-451.18,1054h-66.07a43.48,43.48,0,0,1-43.42-43.42V712.85a1.61,1.61,0,0,1,1.61-1.61h149.72a1.61,1.61,0,0,1,1.61,1.61V915H385.45V712.85a1.61,1.61,0,0,1,1.61-1.61h150a1.61,1.61,0,0,1,1.61,1.61v297.78a43.48,43.48,0,0,1-43.55,43.42ZM321.25,998.34h65.94a1.61,1.61,0,0,1,1.61,1.61v10.68a40.27,40.27,0,0,0,40.23,40.2h66.1a40.27,40.27,0,0,0,40.23-40.2V714.46H388.67V916.6a1.61,1.61,0,0,1-1.61,1.61h-796.4A1.61,1.61,0,0,1-411,916.6V714.46H-557.44v296.17a40.23,40.23,0,0,0,40.19,40.2h66.1a40.23,40.23,0,0,0,40.19-40.2V996.89a1.61,1.61,0,0,1,1.62-1.61h72.19l33.55-21.36a1.44,1.44,0,0,1,.87-.26H277.61a1.61,1.61,0,0,1,.77.2Z"/><path class="cls-21" d="M506.06,566.2c-5.54-11.09-46-53.35-54.16-61.81a15.6,15.6,0,0,1-2.38-3.22c-9.91-18.91-93.91-244.27-108.65-271.66-27-50.39-48.71-42.81-77.59-46.48-.83,0-76.36-6.2-77.23-6.2L41.57,172a1076,1076,0,0,0-108.36,0l-178,8.91c-49.52,2.51-97.23-.68-124.42,48.58-15.1,27.29-98.75,252.65-108.65,271.62a15.1,15.1,0,0,1-2.39,3.23c-8.19,8.48-48.61,50.71-54.16,61.81-6.16,12.35-30.87,58.64-30.87,67.74,0,8,5.74,140.07,31.13,243.55a88.33,88.33,0,0,0,61.48,64.49,21.73,21.73,0,0,0,4.65,1H-275.7a14.55,14.55,0,0,0,12.58-7.26L-217.63,857a14.49,14.49,0,0,1,3.48-4,109.25,109.25,0,0,1,67.33-22.8H118.7A109.42,109.42,0,0,1,185.86,853a14.73,14.73,0,0,1,3.46,4L234.8,935.6a14.56,14.56,0,0,0,12.58,7.26h192.3a21.64,21.64,0,0,0,4.64-1,88.33,88.33,0,0,0,61.49-64.23c25.38-103.48,31.13-235.49,31.13-243.55C537.07,624.85,512.23,578.56,506.06,566.2Zm-943.21-98.81C-398.44,391.78-326,212.48-326,212.48c250.63-25.16,457-19.17,557.7-11.38,41.34,3.2,67.48,9.83,67.48,9.83h0a199.58,199.58,0,0,1,28.66,51.75l76.31,204.71C164.9,444.26-437.15,467.39-437.15,467.39Z"/><path class="cls-19" d="M-267.31,942.86l-10.81,24.67H246.74L239,942.86l-50.94-88S168,831.69,118.64,830.18s-265.53,0-265.53,0a102.74,102.74,0,0,0-69.45,24.67Z"/><path class="cls-22" d="M-222.57,649.56s41.68,74.19,54,86.45,26.26,12.33,43.22,13.87,250.08,0,250.08,0,18.51-3.22,27.8-17,40.13-83.36,40.13-83.36Z"/><path class="cls-19" d="M-181.21,659.62s33.39,59.33,43.29,69.23,21,9.87,34.62,11.13S97,740,97,740s14.8-2.48,22.22-13.61,32.26-66.75,32.26-66.75Z"/><path class="cls-22" d="M159.22,916.6,150,891.11a40,40,0,0,0-38.45-26.42l-250.69,2.52A40.06,40.06,0,0,0-177,896.53l-6.26,20.07Z"/><polygon class="cls-22" points="-187.08 928.95 -194.76 953.66 172.64 953.66 163.67 928.95 -187.08 928.95"/><path class="cls-14" d="M450.48,502.91s7.71-60.19,21.62-60.19,75.64,17,77.16,29.32-12.19,26.1-24.68,29.32-38.71,6.2-38.71,6.2l-6.19,23.13Z"/><path class="cls-14" d="M479.81,532.3a1.55,1.55,0,0,1-1.1-.42l-29.32-27.81a1.54,1.54,0,0,1-.52-1.35c.81-6.45,8.35-61.62,23.23-61.62,13.19,0,77,16.91,78.77,30.75,1.65,13.22-12.9,27.8-25.8,31.09-11,2.74-32.55,5.45-37.72,6.07l-5.9,22.09a1.61,1.61,0,0,1-1.1,1.17Z"/><path class="cls-19" d="M275.77,641.85s-27.78,29.32-37,83.36c0,0,131.19-6.2,182.13-26.26s57.13-21.62,58.68-30.87-3.23-75.65-23.16-86.46-41.68-7.71-61.75,7.74S349.87,628.07,336,632.59,275.77,641.85,275.77,641.85Z"/><path class="cls-23" d="M374,642.06a36.2,36.2,0,1,0,36.19-36.19h0A36.15,36.15,0,0,0,374,642Z"/><path class="cls-23" d="M309.38,684.21a16.81,16.81,0,1,0,16.81-16.81h0A16.82,16.82,0,0,0,309.38,684.21Z"/><path class="cls-22" d="M441.22,779.24S297.67,807,291.48,811.5,273,842.37,273,842.37l29.33-7.71s67.93,3.23,91.06-7.71S441.22,779.24,441.22,779.24Z"/><path class="cls-24" d="M370,494.56a1.5,1.5,0,0,1-.64-2.88c4-2.29,8-4.42,11.94-6.45a1.61,1.61,0,0,1,1.38,2.91c-3.87,1.87-7.8,4-11.71,6.22A1.91,1.91,0,0,1,370,494.56Z"/><path class="cls-24" d="M200,713.69a1.52,1.52,0,0,1-.67,0,1.57,1.57,0,0,1-.79-2.09v0c25.81-56.81,80.65-159.78,157.1-211.46a1.59,1.59,0,0,1,2.21.39l0,0a1.62,1.62,0,0,1-.4,2.25h0c-75.87,51.1-130.29,153.42-155.91,210A1.62,1.62,0,0,1,200,713.69Z"/><path class="cls-24" d="M186.44,745.72a1,1,0,0,1-.54,0,1.61,1.61,0,0,1-1-2.06s2-5.2,5.61-13.84a1.6,1.6,0,0,1,2.1-.88h0a1.61,1.61,0,0,1,.84,2.09c-3.61,8.62-5.52,13.71-5.55,13.75A1.67,1.67,0,0,1,186.44,745.72Z"/><path class="cls-25" d="M429.26,574.33a323.58,323.58,0,0,0,9.13-51.13"/><path class="cls-24" d="M429.26,575.94a1.35,1.35,0,0,1-.49,0,1.56,1.56,0,0,1-1.07-2v0a322.81,322.81,0,0,0,9.06-50.8,1.62,1.62,0,1,1,3.23.35,321.06,321.06,0,0,1-9.2,51.39A1.55,1.55,0,0,1,429.26,575.94Z"/><path class="cls-24" d="M272.25,899.05a1.74,1.74,0,0,1-1.26-.58c-1.41-1.74-35-42.58-36.87-61.1-2-19.74,24.58-47.29,32.26-49.19s129.94-26.36,135.17-27.42a1.64,1.64,0,0,1,1.9,1.29,1.58,1.58,0,0,1-1.23,1.86h0c-1.29.25-127.84,25.58-135,27.38-6.71,1.68-31.55,28.3-29.81,45.75C239,853.4,268.7,890.53,273,895.79l200.4-9,10.84-141A1.64,1.64,0,0,1,486,744.3a1.61,1.61,0,0,1,1.48,1.73v0l-11,142.42A1.6,1.6,0,0,1,475,890l-202.65,9.13Z"/><path class="cls-22" d="M-8.11,697.88q-4.94,0-9.68-.38l-149-11.94a1.61,1.61,0,0,1-1.48-1.74,1.62,1.62,0,0,1,1.74-1.49l148.71,11.94a122.25,122.25,0,0,0,18.75,0l137.29-10.68a1.55,1.55,0,0,1,1.73,1.34.76.76,0,0,1,0,.15,1.61,1.61,0,0,1-1.47,1.74h0L1.21,697.46Q-3.4,697.88-8.11,697.88Z"/><path class="cls-22" d="M-8.11,712.69q-4.94,0-9.68-.39l-139.16-11.13a1.68,1.68,0,0,1-1.49-1.74A1.61,1.61,0,0,1-156.7,698h0l138.9,11.13a127.55,127.55,0,0,0,18.75,0l132.48-10.29a1.51,1.51,0,0,1,1.73,1.27,1.48,1.48,0,0,1,0,.21A1.61,1.61,0,0,1,133.7,702L1.21,712.27Q-3.4,712.69-8.11,712.69Z"/><path class="cls-22" d="M-8.11,727.5q-4.94,0-9.68-.39l-129-10.36a1.62,1.62,0,0,1-1.49-1.74,1.63,1.63,0,0,1,1.75-1.48L-17.79,724A122.25,122.25,0,0,0,1,724l125.81-9.68a1.52,1.52,0,0,1,1.72,1.27,1.49,1.49,0,0,1,0,.21A1.66,1.66,0,0,1,127,717.5L1.21,727.17Q-3.4,727.5-8.11,727.5Z"/><path class="cls-14" d="M282,460.1c-18.84-46-64.52-76.35-117-73.78a120.69,120.69,0,0,0-104.12,71c6,.06,18.68-.19,18.68-.19C98,422.22,135,400.64,177,403.09a104.09,104.09,0,0,1,86.58,56.47Z"/><path class="cls-3" d="M756.5,517.48s-28.79,113.24-23.35,227.91c3.81,33.15,10.73,74,17.47,110.2,9.3,49.93,18.26,91,18.26,91l25.75,3s4.28-131.2,5.29-215.3c3.33-79,10.71-121.66,10.71-121.66L804.8,499.39Z"/><path class="cls-3" d="M897.77,897.35s-20.08,52.86-28.58,60.88a26.69,26.69,0,0,1-18.73,7.26s7.37-34.43,15.61-48.72c2.87-5-40.51-30.55-40.51-30.55l31.6-24.6,28.48,33.24Z"/><path class="cls-26" d="M841.7,986.75s-6-1.56-4.2-5.42,11.29-17,13.13-18.44c-.68,1.41-.76,3.11,3.53.37a69.9,69.9,0,0,0,20.08-19.12c5.15-7.59,14.81-26.09,17.25-34.63.81-2.86,1.17-10.2,6.15-13.14,4.63.25,17.44,8,16.36,12.65s-17.81,24.67-17.81,24.67L884,953.33,869.6,969.71l-6.48,6.56L855,980.81Z"/><path class="cls-27" d="M914,907.62c-1.3,2.57-6.55,10-11.84,15.74C888,938.8,885,945.29,881.52,951.57A95.23,95.23,0,0,1,875,962.19c-14.08,19.92-32.92,23.83-33.51,24a1.7,1.7,0,0,0,.36,1.09c.3-.06,5.26-1.57,8.39-2.87,5.14-2.13,16.41-5.94,27.58-21.17a90.08,90.08,0,0,0,6.85-10,97.11,97.11,0,0,1,12.78-18.54l2.4,1.87s15.94-15.72,19.91-25.24C916.55,908,914,907.62,914,907.62Z"/><path class="cls-27" d="M917.77,909.54c-6.87,11.47-16.83,22.05-20,25.41l2.12,1.64s15.94-15.72,19.91-25.24A19.26,19.26,0,0,0,917.77,909.54Z"/><path class="cls-3" d="M799.83,949s-48.39,28.53-60.07,28.86-21.92-5.9-21.92-5.9S749.38,950,765,944.81C770.5,943,761.52,895,761.52,895l33.6,2.68-.89,43.76Z"/><path class="cls-26" d="M700.49,983.62s-3.2-4.92.74-6.74,15.76-6.3,18.06-6.21c.17,1.31-2.25,1.57,2.72,2.18a71,71,0,0,0,27.62-1.93c8.94-2.52,28.67-10.5,36.33-15.44,2.55-1.66,7.9-7,13.5-6.1,3.14,3.08,7,16.93,3,19.82s-29.84,7.55-29.84,7.55L750.24,984l-21.63,3.41-9.19.92-8.94-1.62Z"/><path class="cls-27" d="M803.4,968.15c-2.7,1.14-11.6,3.47-19.37,4.51-20.86,2.82-27.53,5.84-34.33,8.45a103.17,103.17,0,0,1-12,4c-23.87,6.27-37.35-2.77-37.89-3a1.76,1.76,0,0,0-.5,1,57.44,57.44,0,0,0,5.22,2.81c4.86,2.26,15.92,6.26,34.46,1.72a97.85,97.85,0,0,0,11.83-3.29,103.85,103.85,0,0,1,22-6l.42,2.92s22.31-1.94,31.74-6.67C805,970,803.4,968.15,803.4,968.15Z"/><path class="cls-27" d="M804.76,972c-12.86,4.39-27.32,6.17-31.92,6.73l.37,2.57s22.31-1.94,31.74-6.67A16.68,16.68,0,0,0,804.76,972Z"/><g id="freepik--character-2--inject-2"><path class="cls-16" d="M711.45,452.51c.71,4.38-.16,30-1.29,34.36-.57,2.18-1.21,4.33-1.87,6.48-.32,7-4.41,17.86-8.32,28.28a139.88,139.88,0,0,0,27.39,10.56,191.4,191.4,0,0,0,37.58,6.38,186.92,186.92,0,0,0,38.78-1.15,132.27,132.27,0,0,0,35.74-9.79c3.61-1.6,14.13-3.52,17.5-5.54-8.13-32.1-16.57-50.17-16.58-50.17l-3.49-7.54,8-149.41-24.52-7.57-13.64-3-8,2.06c-5.67,8-13.11,12.86-23.06,13.58a65.85,65.85,0,0,1-9.11,0A26.68,26.68,0,0,1,746,307.76l-.35.21-6.75.8-29.73,14.34s-18.27,73.15-17.83,83.82C691.61,414.36,703.35,402.9,711.45,452.51Z"/></g><path class="cls-16" d="M704.81,340.83s-14.08,57-12.93,64.85c1.23,8.39,1.27,18.58,8,25.35s7.88,24.85,8.93,29.63-4.2,29.33-8.66,44.73S747.5,471.9,747.5,471.9l-25.37-57.3Z"/><path class="cls-28" d="M696.44,518.57s40.69,17.66,81.19,12.1S855,511.06,855,511.06s36.38,26.48-.88,138c-16.18,48.42,40.24,199.4,40.24,199.4S837,900.69,773.72,898.85c-33.86-1-36.26-3-36.26-3s-37.45-191.43-40-222.4-1.3-145.61-1.3-145.61"/><path class="cls-16" d="M711.56,461.52,692.83,529s40.57,10.29,75.46,9.8,97.92-14.26,97.92-14.26l-27.58-56.39Z"/><path class="cls-3" d="M749.05,301.24c.55-1.78-.16-18.47-.16-18.47l28.45,3.93,19.44-1.05s2.79,13.65,3.37,15.41,20.19,6.34,20.19,6.34-12.82,13.51-49.69,14S732,312,732,312,748.51,303,749.05,301.24Z"/><path class="cls-17" d="M694.36,263.68c2.76-1.79,5.51-4.05,6.72-7.16a15.7,15.7,0,0,0,.76-6.9,4.39,4.39,0,0,0,.53-1c2-5.49-2.23-12.21.93-17.17,2.88-4.51,10.75-4,13.46-8.58,2.12-3.6,0-7,.93-10.17s5.72-5.87,9.06-5.35l24.53,38.41c1.87,12.62,4.07,19.32.94,26.63-2,3.83,3.34,7.12,2.25,11.28-.78,4.23.1,9.07,3.52,11.73-15.76.57-37.65-4.51-50.88-12.86l-3.73-2.38c5.82-2.76,10.4-13,10.4-13-2.85,3.94-8.16,9.57-12.26,11.68a16.35,16.35,0,0,1-2.16-.93c-2.8-.65-10-6.45-14.48-10.2A28.77,28.77,0,0,0,694.36,263.68Z"/><path class="cls-17" d="M810.73,181.9a28.61,28.61,0,0,1,8.44,4.14c.84.62,1.61,1.24,2.3,1.86a32.79,32.79,0,0,1,12.23,29.78c-.73,5.36-2.67,11.45.88,15.69s10.84,4.3,14.19,8.6c3.94,5.06,0,12.28,1.18,18.47,1.34,6,7.18,10.08,13.77,9.71a55.56,55.56,0,0,1-26.55,9.62l-6.77-8.9a8.49,8.49,0,0,1-1.17,10.91,21.72,21.72,0,0,1-11.18,5.63c-9.51,1.63-30.8-2-57.73-10.65L801.9,180"/><path class="cls-17" d="M705.4,217.36c1.51-3.74,3.92-7.18,5-11,2.38-8.29-1.48-17.83,3.27-25.21,3.39-5.26,10.12-7.66,16.44-9.26s13.11-2.88,18-7c3.59-3,5.75-7.25,9.33-10.28,5.08-4.33,12.3-5.6,19.12-5.77,7-.4,13.81-1.23,20.1,1.64s10.94,10.71,12.05,17.26c.33,3.16-.23,6.44.67,9.49,1,3.37,3.65,6,5.22,9.22,3.22,7,.93,15.16-5.56,19.91L758,262.53c-10.26,3.22-34.42-1.87-41.85-9.07S701.6,226.79,705.4,217.36Z"/><path class="cls-3" d="M798.78,259.47s2.59,40.78,3.51,44.33l-3.91-.58,5.13,3.61c-14.17,14.17-18,14.79-37.68,10.59l-23.22-9.33a16.46,16.46,0,0,0,3.87-4.71c9.7-18.66-2.88-41.62-2.88-41.62"/><path class="cls-3" d="M724.12,235.62l.32-.73c2.17-2.36,6.47-4,8.91-1,.85,1.34,2.09,2.81,2.94,4.15.88,1.55,2.3,4.71,3.6,6,0,0,5.61-17.46,4.87-21.31s-14.33-10.88-8.18-17.31c0,0,6.28-8.15,9.18-12.87.7-.5,1.42-1,2.16-1.46a7.14,7.14,0,0,0,1.22,0c0-.16-.18-.31-.27-.57l.26-.16a8.87,8.87,0,0,0,2.6-.23c-.25-.18-.72-.32-.75-.53a11.5,11.5,0,0,0,2.67-.35c-.25-.18-.75-.53-.78-.73,1.17.26,1.78-.24,2.67-.35a1.6,1.6,0,0,1-.56-.76,6,6,0,0,0,2.7-.15c-.25-.18-.53-.55-.78-.73,1.17.26,1.78-.24,2.67-.35.2,0-.41-.31-.51-.52l.09,0a8.43,8.43,0,0,0,2.14-.1c0-.18-.38-.31-.48-.48L761,185a7.58,7.58,0,0,0,2.7-.4l-.36-.35.39-.11a3.5,3.5,0,0,0,1.92-.22l-.32-.23.75-.19a4.07,4.07,0,0,0,2.4-.37.49.49,0,0,1-.3-.14l.84-.19a9.55,9.55,0,0,0,1.88-.2,1.19,1.19,0,0,1-.18-.15l1.13-.21a3.74,3.74,0,0,0,2.07-.36c1.37-.21,2.74-.4,4.1-.56,10.26-1.16,21.65-1.7,30.34,4.8a101.12,101.12,0,0,1,8.38,15.34c4.29,9.53,6.44,25.26,6.65,28.55.18,2.86,2.64,8.11,3.38,11,4,15.7-6.27,33.61-17.48,44.13-4.47,4.19-8.91,3.42-13.89,3.41-10.17,0-26-4.09-36-11.79l-12.66-8.85-3.09-4.22c-1.21,6.67-10.45,3.71-12.36-4.86C723.88,252,721.33,240.68,724.12,235.62Z"/><path class="cls-15" d="M803.62,251.22a6,6,0,0,1-5.25.43c-.36-.14-1.43.2-.93.41a8.48,8.48,0,0,0,7.13-.7c.18-.12.12-.25-.12-.29a1.41,1.41,0,0,0-.83.15"/><path class="cls-15" d="M796.75,251.75a9.72,9.72,0,0,0-3.32-.3.81.81,0,0,0-.47.21c-.08.1-.08.21,0,.25a3.68,3.68,0,0,0,1.81.14.71.71,0,0,0,.52-.28c.07-.16-.12-.22-.27-.2a2.88,2.88,0,0,1-1.46-.11l-.43.47a8.62,8.62,0,0,1,3,.27.7.7,0,0,0,.58-.14c.11-.08.22-.26,0-.31"/><path class="cls-15" d="M792.37,252.5a4.6,4.6,0,0,1-3.67-1c-1.16-1.26-.59-3.73.9-4.85.16-.12,0-.24-.13-.25a1.14,1.14,0,0,0-.68.24,4.47,4.47,0,0,0-1.54,4.33c.37,1.2,1.73,1.87,3.34,2a7.14,7.14,0,0,0,1.46,0c.2,0,.54-.13.62-.29s-.12-.2-.3-.18"/><path class="cls-15" d="M805.9,250.26A.16.16,0,0,1,806,250a1.58,1.58,0,0,0,1-.46l.4.35a4.66,4.66,0,0,0-1.93,1,.4.4,0,0,1-.42,0c-.1-.06-.21-.2-.09-.3"/><path class="cls-15" d="M805,250.58a5.24,5.24,0,0,1,2.16-1.08.43.43,0,0,1,.37.1.18.18,0,0,1,0,.25"/><path class="cls-15" d="M808.62,250.05a2.67,2.67,0,0,0,2-1.81,3.51,3.51,0,0,0-1.57-3.8c-.13-.08-.08-.21,0-.27a.53.53,0,0,1,.47.07,4,4,0,0,1,1.85,3.16,2.87,2.87,0,0,1-1.6,2.7,3.09,3.09,0,0,1-.91.32.47.47,0,0,1-.45-.13c-.08-.14,0-.22.15-.24"/><path d="M738,248.38a46.52,46.52,0,0,0-5.37-7,15.24,15.24,0,0,0-3.51-2.9,4.68,4.68,0,0,0-1.87-.67c-.62,0-.81.37-1,.91a11.23,11.23,0,0,0,.49,8c.13.31.88.09.77-.2a12.11,12.11,0,0,1-.92-6.2,6.07,6.07,0,0,1,.68-2.2l-.4.22c.11,0-.07,0,0,0a.83.83,0,0,0,.24,0,4.75,4.75,0,0,1,1.19.44,17.25,17.25,0,0,1,4.84,4.29,54.24,54.24,0,0,1,4.15,5.7c.16.25.9,0,.7-.32Z"/><path class="cls-17" d="M823,214.44c-4.52-3.41-7.79-4.62-16.89-6.61L806,208c-.52,1.07-.23.47-.74,1.54-.4.82-.79,1.63-1.17,2.45,3,.61,5.25.79,7.11,1.33,3.52,1,7.7,1.81,10.85,3.79C822.36,216.23,822.66,215.33,823,214.44Z"/><path class="cls-17" d="M779.31,210.43c.62,1,.27.45.9,1.46.48.77.95,1.54,1.42,2.31-2.91.92-5.14,1.34-6.93,2.07-3.56,1.46-7.87,2.72-10.81,5.24-1.41,1.21-3.4,3-3.66,5.05-.07.55.2,2.23-.58,2.34-.32,0-.69-1.45-.72-1.61-.72-3,.82-5.42,3.13-7.69,4.7-4.63,7.57-6.17,17.14-9.34"/><path d="M737.83,249.3c-1.4.2-2.87.83-2.27,2.47.51,1.42,1.66,2.58,1.92,4.1.09.53,0,1.59-.64,1.76s-1.7-.78-2.13-1.22a8.76,8.76,0,0,1-2.43-5.19c-.16-1.82-.24-4.8,1.56-5.9.43-.26,0-.71-.35-.47-1.82,1.11-2.08,3.51-2,5.46A9.59,9.59,0,0,0,733,255.5c.74,1.13,2.82,3.62,4.44,2.47,1.46-1.05.65-3,0-4.27a10.35,10.35,0,0,1-1.23-2.44c-.24-1,.72-1.25,1.55-1.37.42-.06.57-.66.06-.59Z"/><path class="cls-17" d="M813.6,222.2a3.5,3.5,0,0,1,3.77.17,3.21,3.21,0,0,1,1.19,1.38,3.33,3.33,0,0,1-.4,3.14,3.23,3.23,0,0,1-3.54,1.1,3.42,3.42,0,0,1-2.24-3.75,3.09,3.09,0,0,1,1.22-2"/><path class="cls-17" d="M803.25,228.25s5.78-5.75,9-6.51c4.74-1.09,9.55.89,11.55,3,0,0-6.88-3-10.2-2.14C810.45,223.4,803.25,228.25,803.25,228.25Z"/><path class="cls-17" d="M776.1,227.42a3.47,3.47,0,0,0-3.59,1.14,3.2,3.2,0,0,0-.79,1.64,3.3,3.3,0,0,0,1.2,2.92,3.24,3.24,0,0,0,3.71.15,3.43,3.43,0,0,0,1.18-4.21,3,3,0,0,0-1.71-1.64"/><path class="cls-17" d="M784.72,230.81s-7.53-4-11.08-3.85c-6.41.24-11.83,4.53-13.34,7.08,0,0,8.51-5.86,12.17-5.92C776,228.07,784.72,230.81,784.72,230.81Z"/><path class="cls-29" d="M800.8,288.6a64.39,64.39,0,0,1-34.32-7.23s9,15.39,34.51,11.73Z"/><path class="cls-17" d="M745.27,168.93c3.13-2.1,7.2-2.21,11-2.13a209,209,0,0,1,48.46,6.74c.59,3.77-2.88,7.18-6.61,8.25s-7.75.48-11.64.35-8.15.39-10.92,3.1-3.43,7.48-6.23,10.49c-4.81,5.2-14.27,3.67-19.06,8.87-3.6,4-3,10-4.34,15.15-2.68,10.12-12.8,13.48-23.1,10.9a19.46,19.46,0,0,1-2.45-.8c6.35-17.88,12.33-33,18.7-50.89C740.45,175.16,742,171.17,745.27,168.93Z"/><path class="cls-17" d="M701.68,247.88c0-.14,0-.28,0-.41a1.1,1.1,0,0,0-.24-.57c-1.53-5.09-4.77-11.53-5.43-17.68-.92-8.64,12.78-18.69,12.78-18.69l3.19,30s-10.59,17.07-9.8,11.83A11.25,11.25,0,0,0,701.68,247.88Z"/><path class="cls-17" d="M684.23,255.68a5.89,5.89,0,0,0,1.07,3.83,5.47,5.47,0,0,0,4,2.34,5.75,5.75,0,0,0,5.19-2.94,5,5,0,0,0,.49-3.47,10.57,10.57,0,0,0-1.59-3.62c-1.47-2.32-3.84-4.63-4.46-8a12.27,12.27,0,0,1,2.36-9.81,14.73,14.73,0,0,1,4.08-3.66,22,22,0,0,1,5.23-2.18,30.66,30.66,0,0,0,5.11-1.88,7.26,7.26,0,0,0,3.43-3.55,8.34,8.34,0,0,0,.31-4.79,16.51,16.51,0,0,0-1.6-4.51,35.5,35.5,0,0,1-3.67-8.38,13.52,13.52,0,0,1,.8-8,17.54,17.54,0,0,1,3.87-5.37,34.66,34.66,0,0,0,3.25-3.71,10.14,10.14,0,0,0,1.61-3.78l0,.27a4.28,4.28,0,0,1-.11.8,7.91,7.91,0,0,1-1.26,2.9,31.82,31.82,0,0,1-3.18,3.86,17.56,17.56,0,0,0-3.64,5.28,12.89,12.89,0,0,0-.67,7.56,35.48,35.48,0,0,0,3.69,8.16,17.55,17.55,0,0,1,1.71,4.7,9.38,9.38,0,0,1-.35,5.27,8,8,0,0,1-3.84,4,30.8,30.8,0,0,1-5.26,2,21,21,0,0,0-5,2.07,13.59,13.59,0,0,0-3.84,3.44,11.48,11.48,0,0,0-2.25,9.12c.53,3.09,2.74,5.32,4.27,7.77a11.06,11.06,0,0,1,1.64,3.89,5.64,5.64,0,0,1-.61,3.88,6.29,6.29,0,0,1-5.71,3.14,5.91,5.91,0,0,1-5.21-5.63A3.36,3.36,0,0,1,684.23,255.68Z"/><path class="cls-28" d="M701.94,353c2.27,12.46-3.94,24.22-7.88,35.67a56.44,56.44,0,0,0-3.49,17.65,46.61,46.61,0,0,0,7.5,26.09c1.71,2.64,3.74,5,5.58,7.58a27.46,27.46,0,0,1,4.39,8.64,33.64,33.64,0,0,1,1,10,48.89,48.89,0,0,1-1.23,10.92l-2.14,8.11-4.58,17.35c-.21.78,2.14.44,2.34-.32l3.93-14.87,2.45-9.25a48.73,48.73,0,0,0,1.31-8c.57-6.27.55-12.87-2.31-18.64s-7.62-10.2-10.59-15.87a46.8,46.8,0,0,1-5.14-17.4A48.85,48.85,0,0,1,695.24,392c3.88-12.85,11.59-25.69,9-39.59-.13-.74-2.5-.17-2.35.64Z"/><polygon class="cls-3" points="1185.99 948.21 1137.12 944.92 1136.51 928.17 1185.2 926.41 1185.99 948.21"/><path class="cls-10" d="M1056.38,983.49s-1.66-8.66,5.76-11.81,24.19-8.44,36.59-14.82c17.22-8.85,27.37-22.14,35-22.73s6.24,12.14,23.15,12.54,29.42-8.53,30.2-8.8c3.81,2.27,10.66,28.52,6.12,35.09s-45.48,9.57-45.48,9.57l-32.78,6.64-32.79,1.29Z"/><path class="cls-11" d="M1163.15,981a25.42,25.42,0,0,1,.92-8.81,10.81,10.81,0,0,1,2.28-4.13c1.37-1.46,3.21-2,5-2.67,6-2.18,13.75-3.9,17.46-9.57,2.32-3.54,2.35-7.85,1.72-11.89-.08-.5-1.25-.22-1.17.31.61,3.86.59,7.95-1.58,11.36-1.78,2.78-4.75,4.43-7.71,5.71-3.63,1.57-7.43,2.75-11.13,4.15a9.77,9.77,0,0,0-5.81,6,24.86,24.86,0,0,0-1.2,9.62c0,.59,1.2.38,1.18-.1Z"/><path class="cls-12" d="M1188.27,939.57a43.64,43.64,0,0,1-17.61,8.09,52.82,52.82,0,0,1-12.56.57,63.59,63.59,0,0,1-9.34-1.06c-5.17-1-10-3.52-15.37-3.71a20.41,20.41,0,0,0-9.52,2.46,92.14,92.14,0,0,0-10.66,6.49c-2,1.34-4,2.69-6,4-1.14.73-2.28,1.45-3.45,2.15a21.69,21.69,0,0,1-3.3,1.9,1.58,1.58,0,0,1-1.44-.11c-1.36-.73-1.16-2.52-.89-3.79.12-.59-1.07-.46-1.19.08-.41,2-.15,4.27,2.15,4.77a3.1,3.1,0,0,0,1.32.06,13,13,0,0,0,2.86-1.58q1.38-.82,2.76-1.68c3.92-2.44,7.71-5.1,11.6-7.61,3.55-2.3,7.31-4.66,11.45-5.75,6.16-1.63,12,1.44,17.83,2.86a55.59,55.59,0,0,0,8.79,1.27,63.91,63.91,0,0,0,12.75-.09c7.66-1,14.45-4.25,20.65-8.76.64-.47-.3-.91-.78-.56Z"/><path class="cls-12" d="M1137.25,984.83l6.83-1.39c.09,0,.85-.21.66-.39a27.67,27.67,0,0,0-11.15-6.82c-4.9-1.59-10-1.57-15.07-1.7-5.49-.13-11-.25-16.47-.63a56.33,56.33,0,0,1-13-2,9,9,0,0,1-4.1-2.26c-1.7-1.93-.61-4.74.44-6.71.07-.13-1-.08-1.14.21-1,1.77-2,4.23-.92,6.18a5.63,5.63,0,0,0,2.61,2.18c3.44,1.68,7.54,2.09,11.29,2.47,5.23.53,10.5.71,15.76.86,5.54.15,11.29-.17,16.74,1a27.8,27.8,0,0,1,14,7.56l.67-.4-6.84,1.38c-.44.1-1,.57-.22.41Z"/><path class="cls-13" d="M1141.65,983.61l-.15.18.28-.06Z"/><path class="cls-14" d="M1141.17,983.45l-.15.18-.07.1,0,.11v.1a.22.22,0,0,0,.09.14.17.17,0,0,0,.1.06.21.21,0,0,0,.12,0,.32.32,0,0,0,.14,0,.58.58,0,0,0,.23,0l.25,0h0a.9.9,0,0,0,.28-.13.47.47,0,0,0,.14-.14.33.33,0,0,0,.07-.16.29.29,0,0,0,0-.2l-.13-.12a.33.33,0,0,0-.14-.1.55.55,0,0,0-.42,0,.62.62,0,0,0-.23.07l-.13.07a.61.61,0,0,0-.17.19l0,.11a.25.25,0,0,0,.06.2l.13.12.43-.63-.24,0h0l.59.53.15-.17a.35.35,0,0,0,.08-.16.22.22,0,0,0,0-.16.3.3,0,0,0-.09-.13.42.42,0,0,0-.16-.09l-.13,0a.82.82,0,0,0-.31,0l-.15.06A.73.73,0,0,0,1141.17,983.45Z"/><path class="cls-13" d="M1153.11,979.7h-1.35a18.67,18.67,0,0,1-.17,2.51l1.38-.13A19.67,19.67,0,0,0,1153.11,979.7Z"/><path class="cls-14" d="M1153.32,979.3H1152a1,1,0,0,0-.52.12c-.11.06-.27.18-.27.33a19.26,19.26,0,0,1-.18,2.51c0,.28.32.36.53.34l1.38-.13c.24,0,.61-.17.65-.45a18.89,18.89,0,0,0,.14-2.38c0-.27-.29-.37-.53-.34a.84.84,0,0,0-.43.16c-.09.06-.21.17-.21.29a21.12,21.12,0,0,1-.15,2.38l.65-.45-1.38.13.53.34a19.13,19.13,0,0,0,.17-2.51l-.8.45h1.35a1,1,0,0,0,.46-.08.66.66,0,0,0,.31-.26A.33.33,0,0,0,1153.32,979.3Z"/><path class="cls-13" d="M1159.17,978.16c0,1.06,0,2.16,0,3.26h.2l1.15-.14c0-1-.06-2.06,0-3Z"/><path class="cls-14" d="M1158.58,978.23c0,1.11,0,2.23,0,3.34,0,.21.39.2.51.19.45,0,.9-.09,1.35-.14.26,0,.67-.18.65-.5,0-1,0-2,0-3,0-.2-.18-.28-.36-.28l-1.35-.06a.9.9,0,0,0-.77.33c-.14.24.12.37.32.38l1.36.05-.37-.29q0,1.58,0,3.15l.65-.5c-.45.05-.9.12-1.35.14l.51.19c0-1-.06-2.11,0-3.16,0-.26-.3-.31-.51-.28S1158.59,978,1158.58,978.23Z"/><path class="cls-15" d="M1197,973.21l-1.28.15-.28-1.21c-5,.6-22.39,2.73-33,4.61-3.23.57-7.3,1.53-12,2.65-10.93,2.59-25.91,6.13-41.78,7.38-2.85.22-5.66.37-8.37.43a195.58,195.58,0,0,1-45.43-4.39l-.16,1.23-.94-.22s-.35,1.68-.66,3.22h0c0,.14-.05.26-.08.4-.11.55-.21,1-.29,1.42,11.18,6.37,59.4,6.3,70.26,3.18.68-.2,1.42-.41,2.2-.61l1-.26,1.55-.4c11.65-2.95,29-6.35,29-6.35s-.07,1.73,0,3.74h0v.06c0,.86,0,1.76.11,2.61a287,287,0,0,0,41.47-3.88Z"/><path class="cls-14" d="M1197.11,972.87l-1.28.15.51.19-.27-1.22c0-.19-.37-.2-.51-.18-7.7.92-15.4,1.9-23.07,3-4.29.62-8.6,1.25-12.84,2.14-4.94,1-9.83,2.27-14.74,3.4a256.81,256.81,0,0,1-33.24,5.81,190.86,190.86,0,0,1-56.43-3.69c-.26-.06-.89,0-.93.4l-.16,1.23.94-.4-.95-.22c-.28-.07-.86,0-.94.4-.22,1.07-.43,2.14-.65,3.21l1-.36h0c-.29-.13-1,0-1,.36-.13.61-.25,1.22-.37,1.83a.22.22,0,0,0,.12.23,25.6,25.6,0,0,0,6.6,2.3,87.39,87.39,0,0,0,9.38,1.57,216.72,216.72,0,0,0,23.76,1.41c7.28.08,14.6-.05,21.86-.69a66.23,66.23,0,0,0,7.54-1c3.91-.8,7.75-2,11.64-2.94,7.88-1.84,15.8-3.51,23.74-5.07l-.67-.25c0,1.25,0,2.49,0,3.74l.66-.41h0c-.26,0-.67.19-.66.5,0,.89.06,1.78.12,2.67,0,.14.26.19.36.19a266.58,266.58,0,0,0,38.67-3.4c1-.15,2-.31,3-.48.24-.05.68-.18.66-.5l-1.26-13.76c0-.42-1.21-.16-1.16.31l1.25,13.76.66-.5A252.38,252.38,0,0,1,1157,990.5l.37.19c-.07-.89-.08-1.77-.12-2.67l-.66.5h0c.17,0,.66-.16.65-.41,0-1.24,0-2.49,0-3.73,0-.35-.45-.29-.67-.25q-9.87,1.93-19.71,4.15c-4.77,1.07-9.51,2.26-14.23,3.53a42.35,42.35,0,0,1-6.61,1.07,195,195,0,0,1-21.21.9c-7.92,0-15.86-.33-23.74-1.15a95,95,0,0,1-11.13-1.72,38.43,38.43,0,0,1-4.11-1.14c-.57-.2-1.14-.42-1.69-.67-.16-.08-.65-.23-.76-.38-.21-.3.17-1.3.25-1.73l-1,.36h0c.29.13,1,0,1-.36.21-1.07.43-2.15.65-3.22l-.93.4.94.23c.26.06.89,0,.94-.4l.15-1.24-.93.4a169,169,0,0,0,18.16,3,184.73,184.73,0,0,0,33.08,1.13,221.81,221.81,0,0,0,34.29-5.19c9.55-2.1,19-4.59,28.65-6.07,8.87-1.37,17.78-2.51,26.69-3.58l-.51-.18.27,1.21c0,.2.37.21.51.19l1.29-.15C1197.55,973.49,1197.92,972.77,1197.11,972.87Z"/><path class="cls-15" d="M1128.81,941.83a1,1,0,0,0,1.4.33,1.08,1.08,0,0,0,.32-1.44l-3.36-5.47c-.56.35-1.12.72-1.71,1.12Z"/><path class="cls-14" d="M1128.27,942.08a1.69,1.69,0,0,0,3-.8,2.4,2.4,0,0,0-.54-1.35l-2.33-3.81-.69-1.13c-.19-.3-.7-.14-.92,0-.58.37-1.15.74-1.71,1.13a.38.38,0,0,0-.15.52l2.93,4.77.41.68c.28.45,1.39,0,1.07-.51l-2.93-4.78-.41-.68-.15.52c.56-.38,1.13-.76,1.71-1.12h-.92l3.24,5.3a1.18,1.18,0,0,1,.19.39.65.65,0,0,1-.17.64c-.21.16-.44-.09-.56-.26C1129.05,941.14,1127.93,941.59,1128.27,942.08Z"/><path class="cls-15" d="M1123.83,945a1,1,0,0,0,.94.48,1,1,0,0,0,.46-.15,1.07,1.07,0,0,0,.32-1.44l-3.22-5.24c-.53.41-1.07.82-1.62,1.26Z"/><path class="cls-14" d="M1123.29,945.25a1.77,1.77,0,0,0,3-.66,2,2,0,0,0-.47-1.36l-2.25-3.68-.68-1.1c-.17-.27-.83,0-1,.15l-1.62,1.26c-.11.09-.15.18-.08.3l2.73,4.45.39.64c.18.3,1.32-.06,1.08-.44l-2.72-4.45-.39-.64-.08.3c.53-.42,1.07-.85,1.62-1.26l-1,.14,3.13,5.11a1,1,0,0,1,.19.5c0,.21,0,.6-.27.71.1,0,0,0-.09-.06a1,1,0,0,1-.38-.35C1124.17,944.51,1123,944.88,1123.29,945.25Z"/><path class="cls-15" d="M1116.05,943.65l2.8,4.58a1,1,0,0,0,.94.48,1,1,0,0,0,.46-.15,1.06,1.06,0,0,0,.32-1.44l-2.91-4.75Z"/><path class="cls-14" d="M1115.46,943.8c.93,1.51,1.84,3,2.78,4.53a1.59,1.59,0,0,0,2,.43,1.26,1.26,0,0,0,.88-1.8c-.44-.77-.93-1.51-1.39-2.26l-1.52-2.49c-.16-.25-1,.09-1.11.22l-1.61,1.27c-.21.17.19.17.27.16a1.47,1.47,0,0,0,.78-.27l1.61-1.27-1.11.21,2.72,4.43a1.65,1.65,0,0,1,.35.9,1,1,0,0,1-.18.54.8.8,0,0,0-.13.13c-.07.18.24-.14.25,0a1.62,1.62,0,0,1-.35-.12,1,1,0,0,1-.34-.38c-.48-.76-.94-1.52-1.41-2.29l-1.35-2.21C1116.47,943.23,1115.39,943.68,1115.46,943.8Z"/><path class="cls-15" d="M1113.88,951.43a1,1,0,0,0,.94.49,1.11,1.11,0,0,0,.45-.16,1.06,1.06,0,0,0,.32-1.44L1113,946c-.53.41-1.08.82-1.63,1.23Z"/><path class="cls-14" d="M1113.29,951.59a1.84,1.84,0,0,0,2.88-.26,1.28,1.28,0,0,0-.15-1.41l-1.87-3.06-.6-1c-.16-.26-.85,0-1,.13l-1.63,1.23s-.18.12-.14.18l2.55,4.17c.19.3,1.28-.14,1.17-.32l-2.55-4.16-.14.19,1.64-1.23-1,.12c.87,1.42,1.75,2.82,2.6,4.25a1.1,1.1,0,0,1,.17.77,1.27,1.27,0,0,1-.13.32s-.19.17-.19.2.29,0,.13-.08a.76.76,0,0,0-.16-.06.87.87,0,0,1-.34-.32C1114.26,951,1113.18,951.42,1113.29,951.59Z"/><path class="cls-15" d="M1108.9,954.63a1,1,0,0,0,.94.49,1.15,1.15,0,0,0,.46-.16,1.06,1.06,0,0,0,.32-1.43l-2.46-4c-.55.38-1.11.77-1.68,1.15Z"/><path class="cls-14" d="M1108.36,954.87a1.74,1.74,0,0,0,2.83-.25,1.44,1.44,0,0,0-.16-1.53l-1.76-2.87-.57-.93c-.16-.27-.73-.1-.91,0l-1.68,1.15c-.16.11-.28.27-.17.45l2.42,4c.23.38,1.36,0,1.08-.48l-2.42-3.95-.17.45c.57-.37,1.13-.76,1.69-1.15l-.91,0,1.15,1.88c.43.7.9,1.38,1.29,2.1a.9.9,0,0,1,0,.77c-.18.4-.48.17-.67-.13S1108.06,954.43,1108.36,954.87Z"/><path class="cls-13" d="M1202,958h0v0Z"/><path class="cls-14" d="M1201.45,958.19h0l.07,0h.16l.13,0a.86.86,0,0,0,.23-.05,1.42,1.42,0,0,0,.29-.1l.15-.08a.24.24,0,0,0,.09-.08v-.07l0,0-.07,0h-.16l-.14,0a.4.4,0,0,0-.15,0l-.15,0-.21.07,0,0a.36.36,0,0,0-.15.08.24.24,0,0,0-.09.08s0,0,0,.06a.1.1,0,0,0,.09,0h.1a1.09,1.09,0,0,0,.26,0l.16,0a1,1,0,0,0,.29-.1h0l-.91.06v0l1.12-.3h0l-.12,0h-.17l-.22,0-.24.06-.13.06a.52.52,0,0,0-.19.11l0,.05A0,0,0,0,0,1201.45,958.19Z"/><path class="cls-30" d="M1015.4,489.62l6.46,219.85a92.2,92.2,0,0,0,4.22,32.95l13.57,75.44L1060,922.56l66.06,3.09-2.56-444.28Z"/><path class="cls-30" d="M1212.52,463.42l1,22.6c9.61,17.4,7.47,44.2,6.09,53.54-9.3,62.93-12.66,58.6-23.45,86L1176.44,711c-.75,3.06,2.65,14.15,3.29,17.21,1.76,8.36,1.68,8.31,2.23,16.89,1.75,27.52,2.56,55.2,6.7,82.49,6,39.73,13.37,95.12,13.37,95.12l-88.21,6.65L1073,804.17c-.62-1.11-1.24-2.28-1.84-3.53a102.47,102.47,0,0,1-8.05-23.39l-.83-2.26.35-.06c-3.61-18.66-1.25-32.59-1.25-32.59L1060,704.93l-4.86-145.62-20.8-77Z"/><path class="cls-3" d="M1140.52,148.53s-1.47,28.75-.49,41.78c.82,10.87,15.42,22.9,15.42,22.9l-71.15,46.21-33-34.88s23.57-16,24.32-19.62-3.13-32-3.13-32"/><path class="cls-6" d="M1013.23,489.8c1.22,20.56,33.43,20.77,72.54,24s129.86-10.54,131.73-28.7-2.08-30.39-6.23-58.59c-2.58-17.56-10.15-47.69-8.16-78.56,5.68-20.84,13.36-46.63,14.25-70.24,1.29-34.06-39.29-54.81-39.29-54.81l-8-4.26c-11.1-5.57-21.89-8.29-28.87-11.17l-.46.75C1135.18,219,1128.64,219,1111,233.35c-7.3,5.92-27.33,23.35-34.57,16.85-5.75-5.16-10.45-27.29-11.64-34.38a2.24,2.24,0,0,0-.82-1.68,2.31,2.31,0,0,0-1.54-.08c-4.86.91-28.5,12.68-30.75,17.67-1.26,2.8-8,14-8,14l-8,50L1010.26,420"/><path class="cls-29" d="M1075.08,200.06l-.22,5s20.84,1.81,24.72,1.21,15.4-6.67,28.81-28.79c0,0-19,20.84-32.46,23.17Z"/><path class="cls-3" d="M1139.67,159.59l3.27-27.28,1.59-30.53-11.78-23.26L1111.09,67.8l-24.68.59s-17.85,4.71-24.1,6.31-11.88,2.21-16.18,10.7-4.67,29.7-4.67,29.7a12.41,12.41,0,0,0,.44,3.1c1.19,5.7,1.54,10.67,2.53,14.92a10.45,10.45,0,0,1-.18,5.77c-2.44,7.39-2.43,10.57-1.86,15.1.77,6.2,4,10.66,5.56,15.81,1.44,4.8,4.5,10.6,6.85,15,.51,1,2.78,6.74,4.66,10.81a7.08,7.08,0,0,0,6.19,4.09l6.78.24,17.71.91a28.32,28.32,0,0,0,14.93-3.37c3.15-1.7,6.81-3.79,9.93-5.9,7.19-4.87,14.71-16,14.71-16"/><path class="cls-31" d="M1133,117.33c-.13,2.36.8,27.6.53,29.9l12.21-.22c3.69-8.08,8.12-17.59,9.52-19.76,2.19-3.38,2.57-19.81,2.71-26l0-1.33c.15-5.93-5.5-15.36-15.13-25.23-10.59-10.86-29.4-17-47.92-15.77-1.76.12-3.52.31-5.22.56-16.09,2.34-29.21,6.87-39.49,20.31-7.42,9.69-8.7,17.86-8.1,24.62a39.64,39.64,0,0,1,7.31-21.88c4.45-9.07,10.63-6.53,14.59-7.11a13.44,13.44,0,0,1,6.55.63c3.91.89,7.67.39,11.8-.21,3.07-.45,5.51-1,6.18-1.12a21.69,21.69,0,0,1,9-3c8.87-1.29,21.72.29,24.37,4.2,2.93,4.33,14.07,4.44,14.11,8"/><path class="cls-3" d="M1138.51,160.19c7.19,7.25,11.82-6.76,11.82-6.76,6.79-8.36,6.68-17.18,6.35-23.21s-7-5.85-7-5.85c-5.62.68-8.1,3.73-12.58,22.8"/><path class="cls-31" d="M1155.59,126.43s8.92-18.41,4.54-38.39-28.91-29.94-39.45-31.67-43.58-1.28-52.74,2.94-26.12,11.24-25.58,41.6c0,0-.26-19.27,20.23-19.67,9.16-.17,25.72.7,38.15,0,5.14-.31,24.46-2.62,26.67.29,5.06,6.66-3.11,21.35,5.59,42.56,2.88,7,13.52-7.86,17.17-3.26S1155.59,126.43,1155.59,126.43Z"/><path d="M1142.62,143.66a49.65,49.65,0,0,1,4.17-7.69,16.57,16.57,0,0,1,3-3.49,6.33,6.33,0,0,1,1-.64l.29-.14c.2-.08,0,0,.19-.06,0,0-.08,0,0,0s-.32,0-.3,0,.5.81.53.87a11.51,11.51,0,0,1,.53,7.7c-.06.25.88.11.94-.16a11.87,11.87,0,0,0-.41-7.56,3.27,3.27,0,0,0-.68-1.17.69.69,0,0,0-.49-.05c-2,.31-3.69,2.36-4.83,3.87a45.18,45.18,0,0,0-4.9,8.71c-.09.2.82.11.94-.15Z"/><path d="M1144,145.26c3.32-.18-.94,8,2,7.77.76-.06,1.16-.91,1.42-1.53a20.11,20.11,0,0,0,1.06-4.12,14.63,14.63,0,0,0,.11-4.85c-.3-2-1-4.39-3-5.24-.4-.17-1.1.41-.54.64,1.67.7,2.26,2.81,2.55,4.44a12,12,0,0,1,.15,3.74,26.58,26.58,0,0,1-.91,4.43,7.49,7.49,0,0,1-.55,1.38c0,.09-.25.3-.25.38s-.06,0-.06.06c.22,0,.28,0,.17-.06l-.05-.07a7.17,7.17,0,0,1-.2-.77,6.7,6.7,0,0,1,.06-1.1c.08-.86.23-1.71.29-2.56.12-1.62-.16-3.35-2.15-3.24-.54,0-.73.73-.08.7Z"/><path class="cls-31" d="M1094.77,128.74a3.59,3.59,0,0,1,4.26,5.62,3.38,3.38,0,0,1-3.88.75,3.74,3.74,0,0,1-1.92-4.32,3.32,3.32,0,0,1,1.54-2"/><path class="cls-31" d="M1052.78,129.88a3.68,3.68,0,0,0-4,.79,3.53,3.53,0,0,0-1,1.67,3.65,3.65,0,0,0,.92,3.31,3.39,3.39,0,0,0,3.91.61,3.73,3.73,0,0,0,1.76-4.39,3.33,3.33,0,0,0-1.61-2"/><path class="cls-31" d="M1064.53,135s-5.74-5.54-9.88-5.84c-6-.45-7.55.93-9.64,3.74,0,0,3.9-3,8.14-2.53C1057.21,130.76,1064.53,135,1064.53,135Z"/><path class="cls-31" d="M1085.66,133s8.35-5.48,12.49-5.66c6-.27,13.32,3.17,15.32,6,0,0-9.6-5.08-13.85-4.78C1095.55,128.91,1085.66,133,1085.66,133Z"/><path class="cls-31" d="M1042,110.39l2.57.22c7.13.57,13.69,3,20.07,6.16-.46,1.36-.92,2.73-1.39,4.1-.35,1-.92,2.94-1.28,4-2.72-1.89-5-3.81-6.8-4.84-3.61-2-7.4-4.25-11.54-4.91l-2.42-.34C1040.55,112.45,1041.31,110.51,1042,110.39Z"/><path class="cls-31" d="M1082,184.29l-16.34-.47s3.73,4.5,7.67,4.56C1075.79,188.43,1079.31,186.7,1082,184.29Z"/><path class="cls-15" d="M1069.62,158.54a6.7,6.7,0,0,0,6.25-.51c.39-.26,1.71,0,1.16.32a9.46,9.46,0,0,1-8.5.56c-.23-.12-.19-.3.09-.4a1.48,1.48,0,0,1,1,0"/><path class="cls-15" d="M1077.79,157.82a10.81,10.81,0,0,1,3.84-1,.85.85,0,0,1,.59.18c.11.1.14.23,0,.32a4.11,4.11,0,0,1-2.1.54.82.82,0,0,1-.66-.25c-.12-.18.1-.31.27-.31a3.31,3.31,0,0,0,1.7-.43l.59.5a9.9,9.9,0,0,0-3.43,1,.79.79,0,0,1-.7-.06c-.15-.09-.3-.28-.09-.39"/><path class="cls-15" d="M1083.08,157.89a5.27,5.27,0,0,0,4.11-2c1.13-1.83,0-4.62-2-5.74-.22-.12-.11-.29.11-.34a1.3,1.3,0,0,1,.83.16,5.51,5.51,0,0,1,2.63,5c-.21,1.59-1.68,2.72-3.54,3.22a8.22,8.22,0,0,1-1.72.27c-.23,0-.66,0-.78-.24s.1-.28.32-.29"/><path class="cls-15" d="M1067.94,158a6,6,0,0,0-2.75-.93.52.52,0,0,0-.41.2.22.22,0,0,0,0,.32"/><path class="cls-15" d="M1063.53,158.06a3.19,3.19,0,0,1-2.74-1.89,4.76,4.76,0,0,1,1.12-5.13.19.19,0,0,0-.08-.34.59.59,0,0,0-.54.19,5.33,5.33,0,0,0-1.57,4.37,3.63,3.63,0,0,0,2.39,3.11,3.73,3.73,0,0,0,1.13.23c.15,0,.43-.08.5-.27s-.07-.27-.21-.27"/><path class="cls-31" d="M1115.62,113.7c-2.19-2.89-5.39-3.37-9-3l3.8,4.2a13.14,13.14,0,0,1,2.91.3c.65.15,2.59,1.08,3.26.44C1116.86,115.34,1115.74,113.85,1115.62,113.7Z"/><path class="cls-31" d="M1104.16,111.24c-7.36.94-13,3.1-19.69,6.4.47,1.36,1,2.72,1.42,4.09.37,1,1.12,3.43,1.49,4.46,3-2,5.46-4.34,7.45-5.45,3.93-2.2,7.86-4.74,12.33-5.55.55-.1-.08.23.46.18Z"/><polygon class="cls-3" points="1160.45 109.28 1126.61 104.74 1126.67 105.91 1160.26 110.41 1160.45 109.28"/><polygon class="cls-3" points="1159.35 115.3 1124.92 110.73 1124.99 111.9 1159.01 116.39 1159.35 115.3"/><polygon class="cls-3" points="1158.04 120.46 1123.6 116.1 1123.66 117.27 1157.62 121.56 1158.04 120.46"/><polygon class="cls-3" points="1156.2 124.63 1122.19 120.09 1122.26 121.27 1155.72 125.75 1156.2 124.63"/><polygon class="cls-3" points="1153.72 128.21 1119.54 124.24 1119.61 125.42 1153.54 129.33 1153.72 128.21"/><polygon class="cls-3" points="1148.92 132.12 1114.74 128.15 1114.81 129.33 1147.13 133.1 1148.92 132.12"/><polygon class="cls-3" points="1143.67 135.26 1119.34 132.6 1119.4 133.77 1143.48 136.38 1143.67 135.26"/><polygon class="cls-3" points="1140.25 138.61 1106.17 135.72 1106.23 136.9 1140.07 139.74 1140.25 138.61"/><polygon class="cls-3" points="1139.13 141.67 1105.04 138.78 1105.11 139.95 1138.94 142.79 1139.13 141.67"/><polygon class="cls-3" points="1138.81 144.76 1104.72 141.88 1104.79 143.05 1138.62 145.89 1138.81 144.76"/><path class="cls-29" d="M1079.56,114s-8.09,3.55-.8,10.37C1078.76,124.33,1076.1,116.7,1079.56,114Z"/><path class="cls-29" d="M1069.51,114s7.78,4.18,0,10.41C1069.48,124.36,1072.74,117,1069.51,114Z"/><path class="cls-32" d="M1072.56,167c5.64.07,18,3.64,20.53,5.85a24.19,24.19,0,0,1-19.57,9.31c-13.08-.16-15.2-9.73-15.2-9.73S1065.38,167,1072.56,167Z"/><path class="cls-25" d="M1087.8,170.41s-6.7-.62-12.06-.68-12.06.39-12.06.39-.82-4,8.89-3.87S1087.8,170.41,1087.8,170.41Z"/><path class="cls-33" d="M1073.53,179.42c6.14-.8,12.43-7.06,19.56-6.53,0,0-4.53,12.21-19.9,12s-14.87-12.45-14.87-12.45C1065.47,172.11,1067.42,178.47,1073.53,179.42Z"/><path class="cls-33" d="M1065.91,163.92c3.24-.2,5.27,1.05,6.67,1.06s3.47-1.17,6.7-.9c3,.26,15.73,7.78,14.29,8.71s-11.3-4.58-21-4.7-13.27,5.25-14.7,4.27S1062.89,164.11,1065.91,163.92Z"/><path class="cls-31" d="M1071.54,162.25v1.47a.9.9,0,0,1-.73.82c-3,.81-12.78,3.49-15.57,3.88h-1.12c-1.08,0-1.48-1.16-.57-1.62,2.79-1.41,5.09-2.94,6.68-3.51a78.94,78.94,0,0,1,10.06-1.91A1,1,0,0,1,1071.54,162.25Z"/><path class="cls-31" d="M1076.25,161.8l-.09,1.48a.94.94,0,0,0,.73.88c3.17,1,15.23,5,18.21,5.54l.21,0,1,.06c1.16.07,1.68-1.06.72-1.6-2.9-1.62-7-3.84-8.64-4.53a89.86,89.86,0,0,0-10.72-2.65C1077,160.87,1076.28,161.25,1076.25,161.8Z"/><path class="cls-32" d="M801,259.55c-4.81.67-15,5.36-16.86,7.7,0,0,6.08,3.39,17.26,1.83s12.44-6,12.44-6S807.17,258.7,801,259.55Z"/><path class="cls-25" d="M788.4,264.36s5.66-1.31,10.24-1.94,10.37-.93,10.37-.93.21-3.83-8.08-2.68S788.4,264.36,788.4,264.36Z"/><path class="cls-33" d="M801.2,267.43c-5.34-.08-11-1.45-17-.18,0,0,4.86,7.14,18,5.31s11.71-9.45,11.71-9.45C807.71,263.55,806.32,265.89,801.2,267.43Z"/><path class="cls-33" d="M806.35,255.91c-2.79.16-4.38,1.55-5.58,1.72s-3.11-.73-5.84-.13c-2.55.57-12.53,9-11.18,9.71s9.12-5.52,17.42-6.67,12,3.49,13.09,2.42S809,255.76,806.35,255.91Z"/><path class="cls-18" d="M894.53,297a.57.57,0,0,1-.18,0l0-.46Z"/><path class="cls-16" d="M710.47,429.4c-.17.63,0,.24,0,0Z"/><path class="cls-16" d="M713.28,433.26c.29.1.46.19.43.22C713.69,433.3,713.54,433.24,713.28,433.26Z"/><path class="cls-6" d="M1142.24,197.14s-17.42,28.74-49.28,39.73l-12.5,17.39s3.64,6.87,23.57-3.51S1158,217.22,1158,217.22,1154.76,201.45,1142.24,197.14Z"/><path class="cls-6" d="M1081.48,254.4l1.76-20.37s-9.3-17.13-8.93-24.42l.65-6.8-6.89,3.45s-7.87,6.2-8.76,11.5S1081.48,254.4,1081.48,254.4Z"/><path class="cls-34" d="M1082.55,235.84A11.64,11.64,0,0,0,1076,234c-5.11.15-8,4.33-9.47,8.81l2-.54a97.16,97.16,0,0,1-4.23-9c-2-4.82-4.18-10.3-4-15.61,0-1-2.06-.62-2.1.21-.21,5.45,1.94,11,4,16a100.17,100.17,0,0,0,4.39,9.32c.39.73,1.83,0,2-.53,1.12-3.53,3.38-7.51,7.61-7.23a10.07,10.07,0,0,1,4.67,1.57c.67.44,2.55-.51,1.62-1.12Z"/><path class="cls-34" d="M1093.89,240.37c.23,0,.34,0,.27,0a11.67,11.67,0,0,1,1.32.07,14.32,14.32,0,0,1,4.12,1.08c4.84,2.07,7.94,6.5,9.69,11.31.2.56,1.07.44,1.48.25,4.7-2.15,9.28-4.61,13.79-7.15,8.71-4.89,17.27-10.32,24.72-17a42.5,42.5,0,0,0,9.66-11.62c.51-1-1.59-.87-2-.15a39,39,0,0,1-8.21,10.18,98.06,98.06,0,0,1-11.91,9.38,193.55,193.55,0,0,1-22.27,13c-1.55.79-3.11,1.56-4.69,2.29l1.48.25c-1.87-5.14-5.19-9.76-10.34-11.95a15,15,0,0,0-6.91-1.3c-1.1.1-1.66,1.49-.23,1.36Z"/><path class="cls-29" d="M798.09,205s-7.31,5,1.11,10.34C799.2,215.32,795.19,208.31,798.09,205Z"/><path class="cls-29" d="M788.2,206.81s8.42,2.69,1.88,10.24C790.08,217.05,791.93,209.19,788.2,206.81Z"/><path class="cls-3" d="M597.61,564.3c-.64-.09-4.49-1-5.12-.78a3.15,3.15,0,0,0-.51.28,53.72,53.72,0,0,1-14.52,6.77c-5.67,1.33-8.27-1.09-9.43-2.93a1.68,1.68,0,0,1,.55-2.3,1.15,1.15,0,0,1,.25-.12,90.39,90.39,0,0,0,10.23-4.62c1.6-1,8.55-14.28,19.5-15.33C600.35,550.39,598.49,559,597.61,564.3Z"/><path class="cls-35" d="M611.1,567.61A30.53,30.53,0,0,1,608,563a27.83,27.83,0,0,1-1.65-5.35A12.31,12.31,0,0,0,611.1,567.61Z"/><path class="cls-35" d="M591.3,584.18a1.73,1.73,0,0,0,.27-.43l.7-1.29,2.5-4.76,3.66-7.11a42.59,42.59,0,0,0,2.07-4.27,6,6,0,0,0-.11-5.22,3.88,3.88,0,0,0-2.07-1.66,5.12,5.12,0,0,0-2.46-.09,6.78,6.78,0,0,0-3.79,2.62,26.93,26.93,0,0,0-2.28,3.62L588,568.8l-2.62,4.69-.7,1.3c-.14.29-.23.45-.2.47l.3-.41.75-1.26,2.75-4.59,1.82-3.18a29.4,29.4,0,0,1,2.26-3.53,6.35,6.35,0,0,1,3.57-2.46,3.76,3.76,0,0,1,4.07,1.53,4.62,4.62,0,0,1,.56,2.36,7.13,7.13,0,0,1-.5,2.39c-.58,1.5-1.38,2.89-2,4.25l-3.52,7.14-2.37,4.83-.63,1.33Z"/><path class="cls-35" d="M600.64,586.89a3.73,3.73,0,0,0,.54-1l1.34-2.8c1.08-2.4,2.49-5.75,3.86-9.54a27.52,27.52,0,0,0,1-2.82,6.46,6.46,0,0,0,.08-2.87,4.37,4.37,0,0,0-3.19-3.26,3.53,3.53,0,0,0-2.84.65,4.09,4.09,0,0,0-.61.57c-.11.16-.16.24-.14.27a7.58,7.58,0,0,1,.84-.68,3.64,3.64,0,0,1,2.72-.39,4,4,0,0,1,2.82,3,5.78,5.78,0,0,1-.11,2.65,28,28,0,0,1-.92,2.77c-1.39,3.77-2.74,7.13-3.75,9.55l-1.19,2.88A5,5,0,0,0,600.64,586.89Z"/><path class="cls-35" d="M609.92,588.48a8.21,8.21,0,0,0,.47-1.05l1.06-2.9,3.32-9.64a21.33,21.33,0,0,0,.86-2.82,4.77,4.77,0,0,0-.15-2.75,3.11,3.11,0,0,0-1.87-1.83,3.86,3.86,0,0,0-2.33,0,5,5,0,0,0-2.55,2,3.59,3.59,0,0,0-.55,1s.25-.34.71-.91a5,5,0,0,1,2.44-1.75,3.41,3.41,0,0,1,2,0,2.5,2.5,0,0,1,1.54,1.6A4.53,4.53,0,0,1,615,572a22.14,22.14,0,0,1-.86,2.65c-1.27,3.78-2.4,7.19-3.18,9.67l-.9,2.95A4.53,4.53,0,0,0,609.92,588.48Z"/><path class="cls-35" d="M619.1,588.6a17.05,17.05,0,0,0,.38-3.18c.16-2,.34-4.72.52-7.72l.13-2.2a9.4,9.4,0,0,0,0-2.12,2.91,2.91,0,0,0-.93-1.72,1.92,1.92,0,0,0-1.65-.47,2.77,2.77,0,0,0-1.9,1.46,1.3,1.3,0,0,0-.22.84,4.71,4.71,0,0,1,.38-.74,2.85,2.85,0,0,1,1.78-1.23,1.53,1.53,0,0,1,1.34.45,2.6,2.6,0,0,1,.75,1.5,9,9,0,0,1,0,2l-.13,2.19c-.19,3-.31,5.73-.4,7.72A21.5,21.5,0,0,0,619.1,588.6Z"/><path class="cls-35" d="M625.11,545.91a23.65,23.65,0,0,1,5.56,3.62,22.85,22.85,0,0,1,3.47,5.86C633.55,550.06,630.2,546.55,625.11,545.91Z"/><path class="cls-29" d="M589.57,565.47a12.89,12.89,0,0,0-6,2c-5.81,3.42-9.72,9.44-11.93,15.81s-2.89,13.15-3.55,19.85l-1.1,11c-.21,2.15.09,5.05,2.22,5.43,2.31.42,3.53-2.64,3.75-5,.6-6.14.66-12.39,2.33-18.32,1.43-5.09,3.37-13.24,5.91-17.88,2.68-4.85,6-6.25,8.66-11.1"/><path class="cls-29" d="M631.08,593.77c-.57-6.72-2.89-13.51-7.67-18.26a14.86,14.86,0,0,0-3.64-2.72,30.25,30.25,0,0,1-.14,6.51,29.22,29.22,0,0,1,3.37,7.42c1.33,5.12,1.2,13.49,1.33,18.78.16,6.16-1.33,12.23-2.26,18.33-.36,2.33.06,5.59,2.41,5.75,2.15.15,3.16-2.58,3.49-4.71q.82-5.49,1.66-11C630.64,607.22,631.65,600.48,631.08,593.77Z"/><path class="cls-29" d="M652.29,676.5c-1.19-12.5-4-33-5.91-45.41a61,61,0,0,0-2.86-12.33c-.3-.79.76-5.66.12-6.22s-3.5-2.9-4.53-3.08l-.18,0a5.87,5.87,0,0,1,.26-.87c-.81-1.53-1.54-1.46-1.54-1.46-23.16-1.49-43.58-3.29-66-2.31l-8.57-.16s-.52-.09-1.25.77l-.35,0c-1,.08-3.93,2.06-4.77,2.68-.68.5,0,5.45-.41,6.21a61.26,61.26,0,0,0-3.9,12c-3,12.2-7.51,32.39-9.76,44.74a10,10,0,0,0-.15,4.31,8.1,8.1,0,0,0,2.68,3.84c2.69,2.36,7.22,2.77,11.92,2.76a77.12,77.12,0,0,0,7.75.65c21,1,38.69,4.08,59.67,2.55,7-.51,18.93,3.35,24.56-.8a8,8,0,0,0,3-3.6A10.19,10.19,0,0,0,652.29,676.5Z"/><path class="cls-16" d="M826.28,308s33.07,8.72,41.82,27.82C880,361.85,891,495.5,841,479.35c-39.3-12.71-31.18-111.78-31.18-111.78l13.57-49.89"/><path class="cls-3" d="M801.23,277.57c-1.05,3.72,2.57,13.73,2.57,13.73s-7.19,23.44-7.29,28.53c0,1.25,4.8,6.06,5.54,9.64,2.27,10.9,1.73,15.49,1.73,15.49l23-12-2.27-10.43,5.86-19.76,4.28-23.48L824,261.81l-.39.15a2.31,2.31,0,0,0-1.06,3.09l-4.31-6.15c-4.71,1.91-1.09,11.35-1.09,11.35l-5-8.43c-4.3,2.51-1.77,9.23-1.77,9.23l4.18,12.07s-1.38,7.3-2.51,9.56-2.12,4.69-2.12,4.69l.31-8.39-5.83-16.19S802.28,273.86,801.23,277.57Z"/><path class="cls-29" d="M824.94,262.87l-.79-1.29c-.11-.19-.48-.09-.62,0a2.68,2.68,0,0,0-1.72,3.59l.89-.31-4.31-6.15c-.12-.18-.47-.1-.62,0-4.27,1.89-2.64,8.35-1.36,11.71l.89-.32-5-8.43c-.13-.22-.58-.07-.73,0-4.29,2.68-2.43,8.08-1.1,11.91l2.74,7.93a14.19,14.19,0,0,1,.6,1.69,12.08,12.08,0,0,1-.61,3,43.68,43.68,0,0,1-1.51,5.66c-.7,1.89-1.72,3.67-2.47,5.54l.9,0,.2-5.42a10.7,10.7,0,0,0,0-3.39c-1.18-4-2.81-7.81-4.2-11.69l-1.5-4.16c-.09-.24-.49-.19-.66-.1-3,1.56-3.89,5.5-3.53,8.58a40.42,40.42,0,0,0,1.41,6.42c.24.81.49,1.62.75,2.42a7.16,7.16,0,0,1,.47,1.37,11.85,11.85,0,0,1-.42,1.34c-.43,1.31-.86,2.63-1.28,3.94-1.2,3.77-2.36,7.55-3.43,11.36-1,3.39-2.25,7.07-2.36,10.63,0,.43.92.25.93-.1.09-2.91,1.06-5.9,1.82-8.69,1-3.86,2.21-7.69,3.41-11.5.46-1.49.94-3,1.42-4.45a16,16,0,0,0,.79-2.43,2.89,2.89,0,0,0-.31-1.38c-.57-1.72-1.09-3.45-1.52-5.21-.52-2.14-1.14-4.56-.79-6.77a8.48,8.48,0,0,1,1.6-3.69,6.78,6.78,0,0,1,1.43-1.39l-.66-.1,3.58,9.95,2,5.44a6.87,6.87,0,0,1,.21,2.9l-.23,6.21c0,.42.79.25.9,0,.67-1.65,1.46-3.23,2.19-4.85a25.23,25.23,0,0,0,1.33-4.25c.36-1.47.69-3,1-4.44a2.12,2.12,0,0,0,0-1.22c-1.18-4-2.77-7.85-4.08-11.79-1-2.92-1.38-7,1.62-8.85l-.72,0,5,8.43c.16.27,1,0,.9-.31-1.1-2.89-2.94-9.35.81-11l-.62,0,4.31,6.15c.18.25,1,0,.9-.31a2.06,2.06,0,0,1,1.18-2.9l-.62,0,.78,1.29c.18.3,1.08,0,.86-.38Z"/><path class="cls-29" d="M821.24,292.29c.59-2.48,1.35-5.88,2.13-9.66l.22-1,0-.16-.08-.16c-1.67-3.21-3.22-6.07-4.37-8.07a16.89,16.89,0,0,0-2-3.18,15.5,15.5,0,0,0,1.44,3.47c1,2.1,2.43,5,4.09,8.22l0-.31a5.41,5.41,0,0,1-.22,1c-.77,3.79-1.44,7.22-1.86,9.72a17.72,17.72,0,0,0-.49,4.08A18.47,18.47,0,0,0,821.24,292.29Z"/><path class="cls-29" d="M828.47,286.82c.56-2.26,1.28-5.42,2-9l0-.17-.1-.16-.58-1c-2-3.34-3.85-6.33-5.23-8.47a17.42,17.42,0,0,0-2.41-3.37,17.89,17.89,0,0,0,1.83,3.72c1.23,2.23,3,5.24,5,8.6l.59,1-.06-.35c-.74,3.6-1.33,6.73-1.72,9a15.67,15.67,0,0,0-.45,3.73A15.28,15.28,0,0,0,828.47,286.82Z"/><path class="cls-28" d="M802.59,343.6l-4.75,3.92-3,2.49c-.42.35-1.12.73-1.19,1.3a7.43,7.43,0,0,0,.26,1.68l.69,4.41q2.76,17.53,5.48,35.08,3,19.5,6,39c.4,2.63.73,5.29,1.23,7.9a55.34,55.34,0,0,0,3.89,12.3,60,60,0,0,0,11.72,17.12,55.57,55.57,0,0,0,9.12,7.64,7.77,7.77,0,0,0,1.76.86l7.45,2.82,1.83.69a1.91,1.91,0,0,0,1.66-.21c.27-.19.76-.72.21-.93L840,477.82c-1.76-.66-3.66-1.2-5.35-2a26.6,26.6,0,0,1-4.91-3.6,58.42,58.42,0,0,1-19.54-30.85c-1.22-5-1.76-10.27-2.54-15.39q-1.32-8.62-2.65-17.24-2.85-18.45-5.74-36.89L797.13,358l-.72-4.55A15.42,15.42,0,0,0,796,351a2.87,2.87,0,0,1,0-.31l-.23.51,8.72-7.2c.41-.34.21-.7-.22-.84a2,2,0,0,0-1.66.45Z"/><path class="cls-28" d="M862.1,437.17c1.9-12.58-2.38-25.31-8.84-36-.87-1.43-1.78-2.84-2.76-4.2-.23-.32-.45-.67-.71-1s-.12-.16-.07,0c-.48-1.24-.73-2.61-1.09-3.88l-5.89-21-7.13-25.45L833,336.09c-.44-1.57-.76-3.26-1.34-4.79,0-.07,0-.15-.07-.22-.19-.7-1.2-.65-1.7-.41l-2.36,1.16c-1.44.7-.16,2,1,1.44l2.37-1.16-1.71-.4,3.3,11.76,7,24.9,6.25,22.34,1.53,5.45a11.86,11.86,0,0,0,2,3.14c6.43,9.51,11.12,21.05,10.93,32.67a42,42,0,0,1-.45,5.37c-.19,1.21,2.22.92,2.38-.17Z"/><path class="cls-28" d="M854.29,325.45a20.31,20.31,0,0,0-5.93,1.52A23.61,23.61,0,0,0,838,335a28,28,0,0,0-4.29,9.28c-.28,1.05,2.12.75,2.37-.21a23.77,23.77,0,0,1,8.07-12.86,20.75,20.75,0,0,1,8.34-3.88l.38-.08.16,0c.28-.05-.28.05,0,0l.53-.09.49-.05c.47,0,1.26-.35,1.31-.9s-.63-.73-1.07-.7Z"/><path class="cls-36" d="M1072.2,237.3a32.79,32.79,0,0,0,6.41,13.65,12.91,12.91,0,0,0,9.15,5,19.59,19.59,0,0,0,12.35-4,26.16,26.16,0,0,0,5.84-5.57c1.14-1.53-1.65-2.12-2.51-1-3.18,4.28-8.42,8-13.86,8.22-6.78.23-10.67-6.55-12.81-12.08a37.12,37.12,0,0,1-1.59-5.06c-.33-1.44-3.31-.67-3,.8Z"/><path class="cls-37" d="M561.27,614.78a30.27,30.27,0,0,0,1.1,11.24c.88,3,2.13,6.5,5.16,7.9a15.87,15.87,0,0,0,5,1q3.18.33,6.34.7c4.21.49,8.43,1,12.65,1.49a207.19,207.19,0,0,0,24.89,1.61,71.7,71.7,0,0,0,12.08-.78,10.11,10.11,0,0,0,6.6-3.63c3.48-4.53,4.41-10.81,5.61-16.24.19-.87-2.55-.44-2.73.4-1,4.56-1.88,9.29-4,13.51-1,2-2.3,4-4.62,4.54-3.47.84-7.33.75-10.88.81A189.26,189.26,0,0,1,595.45,636c-7.57-.82-15.14-1.67-22.7-2.6a7.15,7.15,0,0,1-4.79-2.11,13.84,13.84,0,0,1-2.44-4.77A29.79,29.79,0,0,1,564,614.38c.08-1-2.66-.41-2.73.4Z"/><rect class="cls-38" x="589.8" y="633.52" width="16.94" height="8.01" rx="4" transform="translate(27.78 -24.97) rotate(2.45)"/><path class="cls-6" d="M1029,392.49l123.17-21.89,11.63-82.38,67.12,15.57s-2.17,141.08-48.84,148.27c-41.78,6.43-144-8.74-157.38-12.37C1026.66,436,1025.43,409.93,1029,392.49Z"/><path class="cls-14" d="M1210.31,424.42a24.35,24.35,0,0,1-1.65,4.29,48.74,48.74,0,0,1-4.61,8.45c-1.81,2.6-4,5.24-7,6.56a63.25,63.25,0,0,1-10.61,3.2c-15.42,3.8-31.46,4.78-47.28,4.49a353.9,353.9,0,0,1-48.63-4.57c-13.54-2.13-27-4.86-40.31-8.07-8-1.91-15.85-4-23.72-6.25l-1.34-.38.36.5a70.09,70.09,0,0,0,1.11-18.23c0-.86-1.67-.62-1.63.12a70,70,0,0,1-1.12,18.22.48.48,0,0,0,.36.5c7.23,2,14.46,4,21.75,5.83,13.21,3.26,26.53,6.07,39.94,8.31a371.67,371.67,0,0,0,49,5.13c16.26.52,32.71-.22,48.64-3.73,3.69-.81,7.35-1.78,10.94-2.94a21.07,21.07,0,0,0,4.56-1.85,17.52,17.52,0,0,0,3.64-3c4-4.23,6.81-9.83,8.78-15.29a8.35,8.35,0,0,0,.45-1.39c.14-.82-1.51-.63-1.64.11Z"/><path class="cls-14" d="M1028.69,393l12.44-.08,29.75-.19,36.1-.23,31.08-.2c5,0,10.08.09,15.1-.09h.21c.34,0,1.06-.15,1.12-.59l2.8-21.61,5-38.71,1.8-13.89c.19-1.43.45-2.87.53-4.32a156.18,156.18,0,0,1,3.53-26.89,73.11,73.11,0,0,1,6.52-18.35c2.7-5,6.47-9.81,11.86-12a15.62,15.62,0,0,1,3.87-1c.81-.1,1.3-1.13.19-1-12.64,1.63-18.87,14.73-22.22,25.57a133.31,133.31,0,0,0-5.29,32c-.26,5-1.11,10-1.76,15l-5,38.66-2.23,17.21-.76,5.81a30,30,0,0,0-.42,3.26c0,.13,0,.27-.05.4l1.11-.58-12.45.08-29.75.19-36.09.23-31.08.19c-5,0-10.08-.05-15.11.1h-.21c-.66,0-1.69,1-.6,1Z"/><path class="cls-14" d="M1150.62,392.29c4,1.79,7.58,4.58,11.05,7.22s6.65,6,7.65,10.55c.16.7,1.73.29,1.57-.42-1-4.59-4.14-8.07-7.78-10.85s-7.37-5.65-11.57-7.53c-.63-.29-1.82.62-.92,1Z"/><path class="cls-3" d="M1027.65,417.82,1008,416.17s-15.57,6.14-25.51,5.28a78.05,78.05,0,0,1-20.78-5.58l-10,.74a20.61,20.61,0,0,1-7.2-.74l-5.4-1.56s-10.06,4.84-11.81,1.82,1.54-5.82,4.73-8.53,57.57-23.51,57.57-23.51a106.57,106.57,0,0,0-17-6.2c-9-2.37-10.17-8.32-7.59-12.66s15.86.14,19.43,4.14,15.59.95,24.29,4.59,14.16,15.25,14.16,15.25c2.73,1.57,9.07.77,9.07,3.29Z"/><path class="cls-14" d="M1054.13,547.88c12.74,9.63,11.92,28.74,12.08,43,.18,16.65.1,33.31-.14,50s-.64,33.37-1.4,50c-.44,9.49-1.22,19-1.1,28.49.14,10.65,1.87,21.12,3.92,31.54,3.27,16.6,7.84,32.95,12.13,49.3,6.2,23.64,12.51,47.25,18.74,70.89,4.61,17.45,9.43,34.9,13.4,52.52.23,1,.45,2,.66,3.06.11.55,2.36,0,2.24-.6-3.23-16-7.82-31.85-12-47.65-6.22-23.68-12.54-47.32-18.78-71-4.46-16.94-9.21-33.87-12.94-51-1.7-7.81-3.21-15.71-4.19-23.65-1.31-10.59-1-21.18-.42-31.81.88-16.23,1.41-32.46,1.74-48.71q.53-25.89.42-51.79c0-7.59,0-15.22-.37-22.8-.42-7.74-1.44-15.89-5.22-22.79a24.57,24.57,0,0,0-6.7-7.85c-.52-.39-2.51.49-2.1.8Z"/><path class="cls-14" d="M1017.26,274.74c0,26.36-1,52.7-1.47,79.06q-.19,11.76-.2,23.51c0,.86,1.71.58,1.71-.14,0-26.37,1-52.71,1.46-79.07q.19-11.75.21-23.51c0-.85-1.71-.58-1.71.15Z"/><path class="cls-14" d="M1016.67,417.06c-1.24,10.48-2,21-2.48,31.58-.58,11.9-.85,23.83-.33,35.73a123.61,123.61,0,0,0,1.58,16.18c.12.67,1.82.25,1.69-.45-1.84-10.28-1.89-20.91-1.82-31.32.08-11.94.63-23.88,1.54-35.78.41-5.38.89-10.76,1.52-16.12.09-.76-1.62-.48-1.7.18Z"/><ellipse class="cls-36" cx="1023.03" cy="416.43" rx="11.39" ry="8.84" transform="translate(274.73 1228.86) rotate(-69.5)"/><path class="cls-36" d="M1027.15,388.41a100,100,0,0,0-9.05,24.84,1.31,1.31,0,0,0,.17,1.27,1.35,1.35,0,0,0,1.1.15,24.21,24.21,0,0,1,10.56.86c1.34-7.84,2.83-16,7.63-22.35.26-.35.56-.79.4-1.2a1.19,1.19,0,0,0-.83-.62c-3-1-6.56-.11-9-2"/><path d="M1134.91,65.49l2.15-1.3a3.35,3.35,0,0,1,0-.77,8.81,8.81,0,0,0,0-.89c0-.16-.08-.31-.12-.47a15.05,15.05,0,0,0-7.93-1,5.52,5.52,0,0,1-2.59.64,11.84,11.84,0,0,0-2.47,1.15,6.24,6.24,0,0,1,.84-1.42,4.56,4.56,0,0,1-3.17-3.13,13,13,0,0,0-.39-1.35c-.47-.71-.18-.53,0-.08l0,.08.06.1a5.69,5.69,0,0,1-.26-.56c0-.09-.12-.17-.17-.27a8.16,8.16,0,0,1-1.42-.58,5.71,5.71,0,0,1-3-3.8.66.66,0,0,1-.2-.06,2.11,2.11,0,0,1-.76-.69,9.55,9.55,0,0,1-1.74-3.69,30.36,30.36,0,0,1-2.65-3.79,17.89,17.89,0,0,0-.66,2.32c-1.35,1.42-4.45-.76-5-2.52s-2.15,3.4-1.87,1.59a2.28,2.28,0,0,0-.54-2.17c-.75-.63-2-.54-3-.81-1.86-.5-2.82-2.21-3.39-3.8s-1-3.32-2.49-4.4-4.38-.82-4.73.8c-.32,1.47,1.55,2.56,3.16,3.19-2.62.54-2.42,3.83-1.06,5.8.38.54.8,1.11,1.19,1.69,2.95.33,7.73-2.32,4.84-.24a.56.56,0,0,1-.07.35,1,1,0,0,1-1.05.4c-6.25,4.21-13.55,7.11-20.16,10.83-7.85,4.4-14.89,2-23.16,5.72-1,.43-9.58,7.35-3.42,7.11a26.72,26.72,0,0,0-6.14,5.08c-1.13,1.41-1.37,3.54-2.48,4.8s-2.91,1.31-4,2.59a9.81,9.81,0,0,0-1.58,3l-2.52,6.66c-.67,1.79-1.32,3.81-.27,5.46s4.62,1.92,5.13.1c.45-1.57-1.69-3-1.41-4.59a3.48,3.48,0,0,1,1.23-1.77,68.46,68.46,0,0,1,8.87-6.52l1.11-.72a10.39,10.39,0,0,0-3.12,8.44,1.6,1.6,0,0,0,.76,1.37,1,1,0,0,0,1.06-.17,11.52,11.52,0,0,0,.64,7c2.52-.92,3.66-3.42,4-5.73s.05-4.7.91-6.9,3.39-4.22,6.07-3.73a5.36,5.36,0,0,0,.48,9.16,3.73,3.73,0,0,0-2.62,4.65c.28.71.8,1.34,1,2.06.49,1.41-.16,2.91-.06,4.37s1.66,3.13,3.24,2.53c2.15-2.42,1.34-5.82,1.84-8.83a19.68,19.68,0,0,1,1.18-3.83q2.24-5.82,4.46-11.65a5.35,5.35,0,0,1,1.69-2.63,2.56,2.56,0,0,1,3.19.1,32.12,32.12,0,0,0-4.33,9.81,1.58,1.58,0,0,1,2,1.71c-.23,1-1.27,1.68-2.24,2.27s-2,1.28-2.22,2.27c-.56,2.48,4.18,3.91,4.09,6.44,1.51,1.08,3.91-.28,4.48-1.89s.15-3.37.64-5a16.45,16.45,0,0,1,1.67-3.15c1.61-2.82,2.09-6,3.16-9s3-6,6.36-7.35c-2.18.79-2.6,3.27-2.22,5.25s1.24,4,.43,5.94a6.06,6.06,0,0,0-.63,1.49c-.33,2,3.1,3.08,5,1.94s2.31-3.38,2.09-5.34-.93-3.91-.62-5.86a4.47,4.47,0,0,1,4.41-3.82c-2.14-.12,3-5,3.52-5.23,1.26-.56,6.34-1.39,3.4,1.29a18.82,18.82,0,0,1-2.36,1.36,3.65,3.65,0,0,0-.61,5.5,7.55,7.55,0,0,1,3.3-3.22c1.2-.61,2.77-1.18,2.91-2.42a2.58,2.58,0,0,0,1.74,2.61,3,3,0,0,0,3.21-.84c.53-.67.71-1.58,1.43-2.07,1-.7,2.75-.27,3.51-1.2.26-.32.38-.77.78-.92a1.38,1.38,0,0,1,1.22.34c5.11,3.57,7.06,7.37,7.76,13a20.7,20.7,0,0,0,1.78-6.58l1.41,1c-.44-.82-.88-1.65-1.31-2.48a20.91,20.91,0,0,0-.35-4.25,42.46,42.46,0,0,1,7.65-.62c.78-1.07,2.26-1.67,3-2.75S1136.33,65.12,1134.91,65.49Z"/><path d="M1163.9,94.22c-.35-1.51-.7-3-1.06-4.51a6.88,6.88,0,0,0-.72-2.07c-.54-.9-1.58-1.1-2.07-1.9s-.57-2.29-1.12-3.28a16.38,16.38,0,0,0-3.1-3.62c3.34.44-1-4.51-1.53-4.84-4.33-2.84-8.27-1.59-12.33-4.85-3.43-2.76-7.26-5-10.47-8.08a.5.5,0,0,1-.55-.31.46.46,0,0,1,0-.23c-1.48-1.51,1,.46,2.62.38.24-.36.5-.71.73-1.06.83-1.23,1.09-3.39-.3-3.86.9-.34,2-1,1.86-2s-1.68-1.39-2.53-.74a5.71,5.71,0,0,0-1.56,2.78c-.39,1-1,2.1-2,2.34-.56.13-1.21,0-1.65.4a1.69,1.69,0,0,0-.39,1.4c.06,1.2-.55-2.26-1-1.13s-2.19,2.42-2.86,1.42a13.34,13.34,0,0,0-.25-1.56,21.46,21.46,0,0,1-1.61,2.37,7,7,0,0,1-1.13,2.35,1.36,1.36,0,0,1-.44.42l-.11,0a4.38,4.38,0,0,1-.57,1.24c1.64,4.9,2.91,10.05,4.82,14.82l.15,0a1.72,1.72,0,0,0,1.07-1.64c0,.83.84,1.27,1.47,1.73a4.75,4.75,0,0,1,1.64,2.27,2.73,2.73,0,0,0-.07-3.64,9.91,9.91,0,0,1-1.22-1c-1.48-1.91,1.25-1.12,1.91-.69.29.18,2.83,3.62,1.66,3.61,1.27,0,2.15,1.42,2.23,2.72a18,18,0,0,1-.61,3.83,3.85,3.85,0,0,0,.88,3.61c1,.84,2.89.25,2.81-1.05a5.2,5.2,0,0,0-.27-1c-.36-1.28.2-2.6.51-3.89s.18-2.94-1-3.55c1.77,1,2.67,3.11,3.12,5.13a39.83,39.83,0,0,0,1.3,6.06,12,12,0,0,1,.76,2.15c.19,1.1-.12,2.23.12,3.32s1.47,2.1,2.35,1.46c.06-1.67,2.71-2.39,2.52-4a2.68,2.68,0,0,0-1.1-1.6,2.74,2.74,0,0,1-1.11-1.6c-.08-.66.63-1.39,1.19-1a24.08,24.08,0,0,0-1.9-6.66,1.21,1.21,0,0,1,1.74.08,3.75,3.75,0,0,1,.79,1.82l1.89,7.87a16.22,16.22,0,0,1,.46,2.58c.13,2-.47,4.2.59,5.9.83.46,1.76-.55,1.88-1.51a13.05,13.05,0,0,1,.17-2.88c.17-.47.48-.86.67-1.31A2.62,2.62,0,0,0,1150,94a3.94,3.94,0,0,0,.69-6c1.48-.2,2.76,1.24,3.13,2.73a23.4,23.4,0,0,1,.17,4.59c.06,1.53.56,3.23,1.89,4a9.08,9.08,0,0,0,.68-4.61.5.5,0,0,0,.57.17,1.15,1.15,0,0,0,.48-.87,7.85,7.85,0,0,0-1.31-5.7l.57.52a39.45,39.45,0,0,1,4.52,4.71,2.41,2.41,0,0,1,.59,1.22c.07,1.06-1.15,1.9-1,3,.2,1.23,2.15,1.22,2.8.18S1164.18,95.42,1163.9,94.22Z"/><path d="M1099.64,46.61c1.85,1.61,6.84-2.75,6.36-.48.79.16,1.78.57,1.62,1.27s-1.59.74-2.47.43A39.9,39.9,0,0,1,1093,41a11.25,11.25,0,0,0-3.64-2.4c-1.45-.47-3.39-.19-4.18,1,0-.68,0-1.36.07-2a26.48,26.48,0,0,1-6.88.2c-2.42-.36-4.66-1.38-7.11-1.57s-5.43.91-5.83,3c-.92-.61-2.45.74-1.71,1.51a22.78,22.78,0,0,1,9,2.11l-.45-.1c-5-1-10.27.46-15.15,2.05-5.88,1.91-11.67,4.07-17.33,6.46a14.55,14.55,0,0,0-4.31,2.43,5.86,5.86,0,0,0-2,4.19c2,1.22,4.71-.6,6.73-2,5.08-3.44,14.23-5.09,19.68-1.88-2.19,1.39-5.22.74-7.31,2.6-1.09,1-1.81,2.31-3.19,3-1.87.87-4.15.12-6.24.39-4.33.57-6.43,5.1-10.37,6.81-1.48.63-3.17.85-4.58,1.58s-2.5,2.34-1.68,3.52c.45.66,1.41,1.07,1.54,1.83.23,1.37-2.37,2.19-2.3,3.58.1,2,5.24,1.82,4.62,3.79a2.77,2.77,0,0,1-1,1.11c-2.26,1.93-2.81,4.81-3.24,7.49-.31,1.88-.18,4.37,1.94,4.85a3.54,3.54,0,0,0,3.86-2.57c.42-1.51,0-3.06,0-4.6a4.15,4.15,0,0,1,2.12-4,23.84,23.84,0,0,0,2.29-.82c1.41-.85,1.41-2.69,2.62-3.74s2.79-1,4-1.79a6.23,6.23,0,0,0,1.87-2.22c1-1.59,1.92-3.19,2.89-4.78a16.65,16.65,0,0,1,6.35-1.3c2.16.14,4.36,1.41,4.55,3.26l-8,3.78,3.21,3.55c-1.18.89-2.84,1-4.33,1.46s-3.07,1.38-3,2.7c0,.61.4,1.17.41,1.78,0,2.09-3.69,2.76-4.6,4.72-.64,1.4.75,3.11,2.49,3.06a9.67,9.67,0,0,0-5.32,6.12,4.7,4.7,0,0,0,.53,3.94,3.82,3.82,0,0,0,4,1.35c4.16-1.34,1.75-8.5,6-9.42a15.32,15.32,0,0,0,2.75-.35c1.73-.73,1.52-3.08,3.08-4s4.26-.1,5.35-1.47"/><path d="M1115.58,67.29c-.76,1.16-4.17-.44-3.55.73-.41.21-.88.59-.69.94s1,.16,1.42-.15a22.37,22.37,0,0,0,5.58-5.66,6.59,6.59,0,0,1,1.62-1.88,2.18,2.18,0,0,1,2.44-.11l-.36-1.11a15.25,15.25,0,0,0,3.8-1c1.27-.57,2.33-1.48,3.64-2s3.11-.35,3.65.74c.41-.48,1.46,0,1.18.56a12.89,12.89,0,0,0-4.58,2.55l.23-.12c2.58-1.32,5.68-1.35,8.6-1.25,3.51.13,7,.41,10.48.83a8.53,8.53,0,0,1,2.74.66,3.32,3.32,0,0,1,1.72,2c-.93,1-2.67.4-4,0-3.31-1.09-8.57-.56-11,2,1.41.41,3-.41,4.4.28a8.37,8.37,0,0,0,2.21,1.12c1.16.18,2.28-.59,3.47-.76,2.45-.37,4.31,1.78,6.73,2.1.91.12,1.86,0,2.75.15s1.73.89,1.47,1.66c-.14.43-.6.81-.56,1.24.09.79,1.64.83,1.82,1.6.26,1.12-2.58,1.82-1.94,2.79a1.63,1.63,0,0,0,.72.46c1.54.7,2.29,2.19,3,3.58.46,1,.78,2.37-.31,3a2,2,0,0,1-2.51-.81A8.93,8.93,0,0,1,1159,79a2.34,2.34,0,0,0-1.79-1.88c-.45-.07-.94,0-1.38-.09-.9-.25-1.19-1.25-2-1.64s-1.68-.11-2.46-.35a3.64,3.64,0,0,1-1.38-.92l-2.32-2.17a9.42,9.42,0,0,0-3.67.28c-1.17.42-2.17,1.45-2,2.5l5,.81-1.2,2.44a7.21,7.21,0,0,0,2.59.12c.88,0,1.9.28,2.08,1,.09.33,0,.7.06,1,.3,1.14,2.45.93,3.25,1.86a1.36,1.36,0,0,1-.88,2.06,5.52,5.52,0,0,1,3.86,2.52,2.67,2.67,0,0,1,.32,2.23,2.16,2.16,0,0,1-2,1.37c-2.48-.08-2.29-4.37-4.78-4.2a9.36,9.36,0,0,1-1.55.23c-1.06-.13-1.32-1.45-2.32-1.73s-2.34.61-3.15,0"/><path d="M1040.55,53.26a8.46,8.46,0,0,1-.39-3.91,3.28,3.28,0,0,1,2.8-2.63c1.18-.08,2.47.58,3.5,0,.68-.36,1-1.11,1.35-1.73s1.17-1.22,1.9-.93a2.45,2.45,0,0,1,.71.57,3.61,3.61,0,0,0,3.45,1.13c1.12-.33,1.78-1.37,2.77-1.95a3.8,3.8,0,0,1,3.6,0c.63.35,1.23.91,2,.84a2.4,2.4,0,0,0,.92-.38c1.24-.7,3-1.28,4.05-.36a2,2,0,0,1-.15,2.89,4.86,4.86,0,0,1-3.23,1.07c-1.18,0-2.37-.11-3.54,0a2.26,2.26,0,0,0-2.44,2l-1.69,5.65a3,3,0,0,1-1.52,2.16c-1.43.53-2.76-.9-4.16-1.52a2.08,2.08,0,0,0-1.36-.19.91.91,0,0,0-.74.95c-.71-.84.13-2.06,1.11-2.62s2.22-.92,2.76-1.85l-5.72.65a5.23,5.23,0,0,1-2,0c-1.27-.36-2.38-1.67-3.61-1.22"/><path d="M1035.58,64.49a8.55,8.55,0,0,1-.39-3.9A3.31,3.31,0,0,1,1038,58c1.19-.08,2.48.58,3.5,0,.69-.36,1-1.11,1.35-1.73s1.17-1.22,1.9-.92a2.06,2.06,0,0,1,.71.57A3.66,3.66,0,0,0,1048.9,57c1.12-.34,1.78-1.38,2.77-1.95a3.76,3.76,0,0,1,3.61,0c.62.35,1.22.91,2,.83a2.44,2.44,0,0,0,.93-.38c1.23-.7,3-1.28,4-.36a2,2,0,0,1-.14,2.9,5,5,0,0,1-3.24,1.07c-1.18,0-2.36-.12-3.54,0a2.88,2.88,0,0,0-1.78.66,2.81,2.81,0,0,0-.66,1.31l-1.69,5.65a3,3,0,0,1-1.52,2.16c-1.43.53-2.76-.9-4.16-1.52a2.07,2.07,0,0,0-1.36-.18.92.92,0,0,0-.74,1c-.71-.85.13-2.07,1.12-2.62s2.21-.92,2.75-1.86l-5.72.66a5.23,5.23,0,0,1-2,0c-1.26-.36-2.38-1.66-3.6-1.22"/><path d="M1104.85,44.49l-1-3.82a1.57,1.57,0,0,1,.06-1.36c.52-.7,1.79-.27,2.33.42s.81,1.61,1.59,2.09c.24.16.54.27.69.51a1.16,1.16,0,0,1,0,.76c-.15,1,.08,2.28,1.14,2.48a2.18,2.18,0,0,1,.86-1.38,1.1,1.1,0,0,1,1.52.29l1.38-2.8c.17-.34.42-.73.82-.74a1,1,0,0,1,.82.64,5.46,5.46,0,0,1,.69,3.22,3.77,3.77,0,0,0,0,1.38,1.06,1.06,0,0,0,1.09.8c.36-.06.68-.35,1-.26.52.15.37.85.33,1.35-.12,1.64,2.29,2.7,2.32,4.34,0,.52-.22,1-.23,1.52s.33,1.12.89,1.11.92-.73,1-1.31c.21-1.62.28-3.46,1.63-4.51,1.3,1-.18,3.15.86,4.37.27.32.69.52.95.85a2.48,2.48,0,0,1,.39,1.48l.37,8.34a1.43,1.43,0,0,1-.09.71c-.33.66-1.4.53-2.13.23a18.11,18.11,0,0,1-5.12-3.5c-4.56-4.16-8.15-9.23-13.26-12.83a10.58,10.58,0,0,1-3.38-3,1.85,1.85,0,0,0,1.22-1.18"/><path d="M1105.89,44.21l-.65-2.39a9.38,9.38,0,0,1-.5-2.06s.07-.48.1-.44l-.59.2.15,0a4.09,4.09,0,0,1,.64.37,6,6,0,0,1,1,1.42,3.45,3.45,0,0,0,1.2,1.11c.52.33.24,1,.25,1.5a2.07,2.07,0,0,0,1.58,2.17c.5.12,1.52-.12,1.68-.69.08-.3.29-.57.37-.85l.09-.1-.41.11c0-.07.26.19.25.17.33.59,1.74.28,2-.26l.85-1.73.42-.86.18-.36a1.37,1.37,0,0,1,.13-.2c.24-.3-.06-.25-.88.16.07.16.32.35.41.53a4.45,4.45,0,0,1,.33.78,5.09,5.09,0,0,1,.28,1.77c0,1.06-.38,2.32.86,2.84a2.43,2.43,0,0,0,1.68,0,2.58,2.58,0,0,0,.39-.14c.33-.19-.5-.15-.52,0s.06.41,0,.61a2.88,2.88,0,0,0,.68,2.17,9.41,9.41,0,0,1,1.45,1.89c.41,1-.38,1.92.08,2.85s2,.93,2.84.39c1-.63,1-1.8,1.12-2.85a4.43,4.43,0,0,1,1.27-3l-1.79.25c.88.74.33,2.12.39,3.11a2,2,0,0,0,.59,1.38c.21.22.5.37.71.59a1.9,1.9,0,0,1,.42,1.19c.14,1.81.16,3.64.24,5.45l.11,2.46c0,.24,0,.49,0,.73a3.87,3.87,0,0,0-.06.46c0,.22.39,0,.34-.14a3.1,3.1,0,0,0-.5-.11,13,13,0,0,1-4-2.47,44.81,44.81,0,0,1-3.41-3.2c-2.17-2.23-4.21-4.58-6.43-6.76a39,39,0,0,0-4-3.48c-1.32-1-3-1.82-3.83-3.29l-.63.69a3,3,0,0,0,1.85-1.72c.17-.44-.67-.46-.89-.43-.43,0-1,.25-1.18.7a1,1,0,0,1-.59.63c-.16.06-.8.41-.63.69a11.5,11.5,0,0,0,3.62,3.28,37.08,37.08,0,0,1,4.06,3.44c2.5,2.41,4.74,5.05,7.19,7.51a35.1,35.1,0,0,0,4,3.54,9.9,9.9,0,0,0,4.22,2.11,3.48,3.48,0,0,0,2.24-.43c.8-.51.77-1.22.73-2.07l-.26-5.89a9.73,9.73,0,0,0-.28-3.1c-.33-.77-1.26-1-1.48-1.82-.34-1.28.59-2.85-.6-3.86-.48-.4-1.38-.11-1.8.24a4.46,4.46,0,0,0-1.49,2.51,24,24,0,0,1-.46,2.82,1.65,1.65,0,0,0-.14.26c-.08.36.88.08.76-.21s-.26-.29-.3-.55c-.09-.6.26-1.21.22-1.82a3.73,3.73,0,0,0-1.09-2,3.8,3.8,0,0,1-1.23-2c-.06-.81.28-1.71-.82-1.9a2.28,2.28,0,0,0-.9,0,4,4,0,0,0-.49.15l-.09,0c-.24.08-.23.1,0,0s.19.09,0-.17a1.34,1.34,0,0,1-.18-.28,2.32,2.32,0,0,1,0-1.08,6,6,0,0,0-.56-3.42,1.82,1.82,0,0,0-1.07-1,2.5,2.5,0,0,0-2,.44,3.72,3.72,0,0,0-1,1.44l-1.06,2.16,2-.26a2,2,0,0,0-2.43-.65,2.88,2.88,0,0,0-2,2.14l1.68-.69c-.55-.13-.72-.83-.77-1.31-.06-.63.3-1.39-.19-1.9-.25-.25-.61-.36-.87-.59a3.23,3.23,0,0,1-.64-.83,4.32,4.32,0,0,0-1.25-1.56c-1.11-.7-3.28-.64-3.84.77a3.62,3.62,0,0,0,.26,2.19l.8,3c.19.7,2.27.15,2.08-.56Z"/></g></svg>