<svg xmlns="http://www.w3.org/2000/svg" xmlns:xlink="http://www.w3.org/1999/xlink" viewBox="0 0 1221.96 991.43"><defs><style>.cls-1,.cls-27{fill:none;}.cls-2{clip-path:url(#clip-path);}.cls-3{fill:#f2ebd1;}.cls-4{fill:#956243;}.cls-5{fill:#653c2a;}.cls-6{fill:#c98532;}.cls-7{fill:#517568;}.cls-8{fill:#a56530;}.cls-9{fill:#8c542a;}.cls-10{fill:#3a3a3a;}.cls-11{fill:#1d1e1e;stroke:#1d1e1e;}.cls-11,.cls-12,.cls-18,.cls-20,.cls-21,.cls-27{stroke-miterlimit:10;}.cls-11,.cls-18,.cls-21{stroke-width:1.37px;}.cls-12,.cls-13{fill:#151210;}.cls-12{stroke:#161311;stroke-width:0.63px;}.cls-14{fill:#161311;}.cls-15{fill:#231f20;}.cls-16{fill:#010101;}.cls-17{fill:#f1eef7;}.cls-18{fill:#304941;stroke:#304941;}.cls-19{fill:#3ba448;}.cls-20{fill:#993a2f;stroke:#993a2f;stroke-width:0.34px;}.cls-21{fill:#895522;stroke:#895522;}.cls-22{fill:#5e5f5f;}.cls-23{fill:#853324;}.cls-24{fill:#ec9a6f;}.cls-25{fill:#13110f;}.cls-26{fill:#878787;}.cls-27{stroke:#010101;stroke-width:1.49px;}.cls-28{fill:#273339;}.cls-29{fill:#fff;opacity:0.14;}.cls-30{fill:#622515;}.cls-31{fill:#663d18;}.cls-32{fill:#653c29;}.cls-33{fill:#31160e;}</style><clipPath id="clip-path"><rect class="cls-1" y="4" width="1221.96" height="987.43"/></clipPath></defs><g id="Layer_3" data-name="Layer 3"><g class="cls-2"><polyline class="cls-3" points="1388.89 1252.37 1388.89 -9.52 -166.4 -9.52 -166.4 1252.37"/><path class="cls-4" d="M732.9,491.62l-15.33,2.66,5.25,33.57,4.68,7.65,8.65-1.2C741,513.67,736.19,503.61,732.9,491.62Z"/><path class="cls-4" d="M732.32,511.56c-.46-.74-5.21-18.38,7.37-31.32s24.48-18.14,31.59-22.12,21.33-18.25,24.34-15.38,4.61,7.44,1.22,13.45-19,12.73-18.62,20.56c.25,5.67,6.06,5.53,6.06,5.53s27.05-.69,38.27-2.69,21.54-.78,21.31,3.17-2.18,6.29-11.46,7.92-24.54,2.43-25.12,4.64,2.65,3.3,8.07,2.41,31.15-3.22,33.17-.46,1.06,7.37-2.36,8.67l-5.85,2.69s4,4.55,1.28,7.55-9.39,2.62-9.39,2.62L798,520.92s-1.76,2.23-.66,3.55,27.62-3.05,28.08-.15,2.93,4.06-4.89,6.74-27.88,4.49-35.27,3.2-49.12,0-49.12,0Z"/><path class="cls-5" d="M773.14,484.56a24.48,24.48,0,0,1,.13,16.16c-1.35,3.83-3.07,5.6-2.79,5.94l-6,5.52S773.6,501.67,773.14,484.56Z"/><path class="cls-6" d="M473.09,357.15,523.83,423l79.57,74.49c1.08,8.92-27.48,17.47-28.77,26.28-1.48,10.1-10.48,1-10.76,11.24-.3,10.73-15-6.47-13.25,4.1,1.15,7.14,1,19.28,2.65,26.3-59.56-16.73-80.15-52.3-80.15-52.3Z"/><path class="cls-6" d="M542.89,528.15c8.52-6.27,17.48-12.33,27.18-16.62,14.16-6.27,9.29-8,22.7-16l126.38-12,1.43,20.56a66,66,0,0,0,3.67,17.57l7.31,20.51S623.15,578,594,577.15c-28.61-.87-45.42.72-81.45-28.73C519.58,542,535.22,533.81,542.89,528.15Z"/><path class="cls-4" d="M638.63,586.17l-13-1.22-3.14,28.25,2.09,7.21,13.52,1C646.62,605.85,638.66,596.58,638.63,586.17Z"/><path class="cls-4" d="M631.72,598.53c.2-.77-.27-17.42-14.64-25.41s-26.12-9.43-33.36-11-23.4-10.34-25.28-7-2.07,7.7,2.46,12.05,19.89,6.15,21.64,13.08c1.27,5-3.85,6.41-3.85,6.41s-23.79,6.48-34.1,7.67-19,5-17.78,8.35,3.55,4.92,12.08,3.91S561,602.2,562,604s-1.46,3.57-6.43,4.21-28,5.34-29.06,8.29,1,6.71,4.32,6.94l5.81.82s-2.26,5,.86,6.92,8.88-.17,8.88-.17l30.41-7.1s2.12,1.49,1.5,2.93-24.91,4.57-24.55,7.22-1.49,4.31,6,4.6,24.94-5,31.63-6.44a149,149,0,0,0,33.19-11.79Z"/><path class="cls-5" d="M578.23,612.91c.18.51-8.91,4-20.48,7.23l-21.07,4.1S568.69,612.62,578.23,612.91Z"/><path class="cls-5" d="M589,585.64a22.38,22.38,0,0,0,4.12,14.14c2.19,3,4.15,4.09,4,4.46l6.7,3.25S593.09,600.7,589,585.64Z"/><path class="cls-4" d="M955.41,258.4s-8.17,79.83.17,95.73c2,3.86,66.06,24,66.06,24L889.53,427.37,830.7,397.58s45-21.12,45.75-26.19-3.08-40.1-3.08-40.1"/><path class="cls-7" d="M1051.61,389.25c-6.12-9.36-28.85-19.34-39.59-22.46-28-8.08-45.46-14.3-45.46-14.3-21,44.37-75.07,59.39-92.75,18.55l-16.65,12L834,396c-.09.05-38.1,10.5-41.56,65-2.74,43.61-13.19,65.15-13.19,65.15s1.33,8.08,33.91,14.3c9.43,1.5,13.53,5.86,17.75,7.12h0c.61.9,16.42,81.4,16.61,82.72,3.26,23.06,1.22,46.77,4,69.88,1.72,14.38,4,29,3.36,43.54,6.48,4,9,6.85,20.4,10.47,16.07,5.1,30.3,4.25,47.52,3.88,0,0,107.48-15.86,145.91-35.73,3.59-1.85,7.07,52.41,8.46,49,16.92-41.27,1.91-80.55,1.46-84.5q-1.12-10-2.32-19.94c-6-49.51-36.79-111-45.27-141.72l27.28-15,21.83-12.12C1066,402.3,1065.76,410.88,1051.61,389.25Z"/><path class="cls-8" d="M973.72,850.85q66.87,0,133.75,0c19.17,0,22.73,9.07,22.7,27.67,0,17.1-3.84,27.13-23.24,27.18-4.37,0-8.83.48-13.09-.09-12.84-1.74-15.42,3-13.74,12.94,16.42,96.82,32.44,187,48.82,283.85,1.12,6.59.1,9.2-8.76,9.31-22.14.28-22.59.72-25.66-17.42q-15.69-92.65-30.57-185.4c-1.33-8.4-4.75-10.94-14.73-10.86q-76.05.63-152.1,0c-9.74-.08-12.56,2.89-13.78,10.49-10.39,65.14-21.28,130.21-31.76,195.34-1,6.06-3.94,7.87-11,8-22.81.35-23.43.51-20.5-17.76,10.63-66.21,21.67-132.37,32.63-198.55,4.66-28.14,9.31-49.61,14.39-77.7,1.57-8.67-.26-13.58-12.17-11.93-2.56.36-5.25-.1-7.86.08-34.2,2.41-31.41-22-29.42-44.61.76-8.76,9.84-10.82,19.7-10.78,45.46.23,90.92,5.66,136.38,5.66Zm-1.08,125c25.32,0,50.64-.19,76,.12,7.75.1,11.21-1.33,9.89-8.64-4.08-22.6-7.78-29.52-11.31-52.18-1.06-6.87-3.9-9.78-13.08-9.66-40.15.51-80.33.58-120.48,0-10-.15-12.71,3-13.83,10.31-3.37,21.94-7,28.13-10.94,50-1.38,7.57.63,10.49,10.46,10.27C923.74,975.49,948.2,975.85,972.64,975.85Z"/><path class="cls-9" d="M852.8,995.63q-2.53,15.32-5.08,30.63c10.62,2.09,21.18,4.54,31.71,7.1,1.33-8.25,2.68-16.49,4-24.74,1.22-7.6,4-10.57,13.77-10.49q76,.63,152.11,0c10-.08,13.4,2.46,14.73,10.87,1.27,8,2.57,16,3.85,24a286.35,286.35,0,0,0,29.78-12.66c-5.79-33.45-11.6-67.15-17.46-101.69a19.18,19.18,0,0,1,0-8q-10.39.69-20.82,1.08-6.39.24-12.78.39a19.64,19.64,0,0,1,.73,3.16c3.53,22.67,7.23,29.59,11.31,52.19,1.32,7.31-2.14,8.73-9.89,8.64-25.32-.32-50.64-.12-76-.12-24.45,0-48.9-.37-73.33.18-9.83.21-11.85-2.71-10.47-10.28,4-21.87,7.58-28.05,10.95-50a14.14,14.14,0,0,1,2.49-6.8q-18.06-.56-36.12-.81c1.64,2.12,1.7,5.45.93,9.69C862.11,946,857.46,967.49,852.8,995.63Z"/><path class="cls-9" d="M817.23,866s153,20,215.63,11.87,97-8.24,94.46-17.93-46.86-30.49-91.48-32-166.93,9.75-166.93,9.75-41.06,6.91-45.37,12.88S817.23,866,817.23,866Z"/><path class="cls-10" d="M668,784.72c13,63.67,19.68,250.53,38.68,328,0,0,94.47,20.57,102.25,2.8,0,0-4.27-194.88,18.66-290.93C847.81,740,914,716.26,892.77,710.13c-33.45-9.66-178.28-24.9-197.6-11.87C672,713.9,657.83,734.58,668,784.72Z"/><path class="cls-10" d="M723,822.17c-.55-4.95-1.36-9.87-2.37-14.73a206.16,206.16,0,0,0-9.59-32.23,218.8,218.8,0,0,0-14.84-31.14c-3.91-6.76,65.25-24.71,60.52-30.92,101.44-17.08,242,8.7,242,8.7s87.38,12,63.83,93.53c-25,86.56-261.94,33-338.42,7.17C723.75,822.43,723.4,822.3,723,822.17Z"/><path class="cls-11" d="M733.74,1089.26c-10-107.4-28.52-336.71-28.52-336.71l-4.05-.25L731,1089.09Z"/><path class="cls-11" d="M705.22,752.55s-6.89-38.07,38.83-46.12c0,0-46.8.18-42.88,45.87Z"/><path class="cls-11" d="M739.06,706.72s23.65-.13,64.42,3.63c40.34,3.72,40.29,3.75,57.87,4.3,0,0-111.75-10.8-122.29-7.93Z"/><path class="cls-11" d="M823.87,849.88s-3-24.63-14.58-39.25c0,0,17.67,18.22,19.5,40.12Z"/><path class="cls-12" d="M816.57,208.68h0c-2.73-9.46-3.8-15.32-1.36-22,1.72-4.71,9.71-9.77,9.71-9.77s1.45-14,7.84-12.25c0,0,5.76-18.81,24.35-14.44,0,0,5.59-1.55,8.8,1.86,0,0,8.32-16.27,24.48-5.49,0,0,6-4.07,8.22.73,0,0,10.43-10.34,21.13-2.42,0,0,26.65-5.88,33.59,10.74,0,0,12.82-6.87,19.81,5.29,0,0,6.73.38,7,9.69,0,0,10.1,2.72,11.17,8.81,0,0,5.87,4.45,5.71,14.2,0,2.79-1,2.07-1.82,5.87,5.78,11-2.63,12.51-2.63,12.51,8.83,10.12-1.71,23.21-1.71,23.21s3,7.5,2.23,13.08c-3.05,21.06-16.22,27-16.22,27s-3.79-30.69-3.31-42.64-9.74-32.53-13.06-37-26.28,4.22-61.71,5.12-42.7-5.27-46.89-4c-8.7,2.57-15.33,33.77-14.86,43.15s-2,27.15-2,27.15-19-7.56-14.34-23.44c0,0-6.47-11.21-4.22-18.12a7,7,0,0,1,2-4.33S811.9,214.34,816.57,208.68Z"/><path class="cls-4" d="M937.68,324.81c-13.58,16.66-34.47,28.38-54.27,33.35-19.43,4.89-26.32-1.33-29.18-4.1-15.69-15.22-26.17-30.92-32.63-49.29-1.75-5-2.15-10.43-2.06-16,.13-8.4,1-24.53.51-32.53-1.22-20.37.21-38.95,10.67-56.59,21.78-36.73,77.55-38.51,98.67-29.6,24.68,10.41,36.64,33.27,39.23,58a67.18,67.18,0,0,1-1.34,22.79,72.37,72.37,0,0,0-8.38,12.69"/><path class="cls-13" d="M830.87,203.06s-1.56,1.54-11,26.84c2.24-8,3.1-19.94,9.3-31.26,21.63-39.53,95.25-37.59,116.41-27.9,24.74,11.33,34.81,35.81,37.51,62.53,1.1,10.85,1.87,17.77-1,26.94-.15.13-2,2.21-2,2.21s-21.7,5.19-28.34,18.79L951,269.65s-6.1-14.21-11.51-38.94c0,0-.67-13.67-.67-17.78,0-12.68-11.21-9.53-19-7.17-4.83,1.46-15.37,2.7-20.42,2.82-12.88.3-29.25-.92-35.29-.6C855.62,208.43,830.87,203.06,830.87,203.06Z"/><path class="cls-14" d="M830.06,203.15a7.75,7.75,0,0,0-1.14,2c-1.77,3.7-3.27,7.53-4.78,11.34-1.78,4.49-3.49,9-5.19,13.53l1.76-.34c1.4-5.07,2.15-10.29,3.4-15.39a63.46,63.46,0,0,1,6.56-17,52.17,52.17,0,0,1,15.53-16.36c13.34-9.22,29.8-13.33,45.74-15,14.18-1.46,29-1.2,42.92,1.93a52.81,52.81,0,0,1,17.75,7.5,59.14,59.14,0,0,1,19.3,21.51,91.18,91.18,0,0,1,9.2,28.62c.9,5.51,1.47,11.11,1.85,16.68a49.88,49.88,0,0,1-1.29,16.56,4.71,4.71,0,0,1-1.09,2.29c-.45.5-.89,1-1.34,1.52l.82-.4a58.07,58.07,0,0,0-8.15,2.7,51.09,51.09,0,0,0-14.73,8.59,26,26,0,0,0-6.28,7.9l1.78-.41-.43-5.9-.28-3.94a11,11,0,0,0-.12-1.72,19.83,19.83,0,0,0-.92-2.31c-.86-2.23-1.66-4.48-2.42-6.74-2.76-8.19-5.06-16.54-7-25a37.69,37.69,0,0,1-1.14-5.22c-.08-.93-.09-1.87-.13-2.81-.15-3.19-.29-6.37-.4-9.56-.18-5.22.7-12.62-5.76-14.23-5.74-1.44-11.64,1.49-17.15,2.64a114.78,114.78,0,0,1-25,2c-8.5-.12-17-.78-25.51-.67-11.37.14-22.73-2.33-33.82-4.67l-.92-.2a2.11,2.11,0,0,0-1.25.25c-.13.07-.62.32-.23.4,3.94.86,7.91,1.63,11.88,2.35a133.93,133.93,0,0,0,19.21,2.59c2.66.1,5.33-.07,8,0,4.26.09,8.51.28,12.76.41,8.7.28,17.38.49,26-.57a75.54,75.54,0,0,0,11.38-2,54.51,54.51,0,0,1,8.63-2.08c2.61-.29,5.55-.11,7.53,1.82,2.28,2.21,2.29,5.58,2.34,8.53.06,3.16.2,6.32.33,9.48.1,2.28.07,4.62.32,6.89a48.05,48.05,0,0,0,1.29,5.8q.92,3.85,1.93,7.68,1.62,6.17,3.53,12.24c1.36,4.32,2.81,8.62,4.52,12.82a7.29,7.29,0,0,1,.37,2.39l.57,7.94.13,1.81c0,.33,1.64-.15,1.77-.41,4.33-8.71,13.93-13.81,22.74-16.92,1.23-.43,2.46-.83,3.71-1.18a4.94,4.94,0,0,0,1.89-.69,14.38,14.38,0,0,0,1.63-1.85c.83-1,1-2.63,1.28-3.9a43.55,43.55,0,0,0,1-9.18,132.56,132.56,0,0,0-1.75-20.47A106.64,106.64,0,0,0,979,209c-3.62-11-9.5-21.27-18.15-29A53.38,53.38,0,0,0,938,167.64a116.38,116.38,0,0,0-23.22-3,153.09,153.09,0,0,0-28.38,1.49,115.36,115.36,0,0,0-28.1,7.58c-8.44,3.56-16.44,8.47-22.75,15.17a49.18,49.18,0,0,0-8.24,11.82c-3.22,6.52-4.93,13.58-6.37,20.66-.59,2.91-1.15,5.84-1.94,8.71-.08.29,1.61.06,1.76-.34,2.51-6.69,5-13.38,7.81-20a58.15,58.15,0,0,1,2.91-6.37c.05-.09.42-.6.24-.42C832,202.64,830.36,202.85,830.06,203.15Z"/><path class="cls-4" d="M949.26,305.14c10.79,10.15,21.13-7.14,21.13-7.14,9.43-12.47,8.82-25.26,8-34S968,255.88,968,255.88c-8.12,1.28-6.93,2.18-16.9,25.95"/><path class="cls-15" d="M959.88,277.47a46,46,0,0,1,4.84-10.78,9.94,9.94,0,0,1,3.69-3.68,2.56,2.56,0,0,1,.59-.2c.23-.06,0,0,.17,0l.3,0h.12l.23,0c-.19,0,.14,0,.22.06s.1.06.05,0a11,11,0,0,1,.93,1.23c2,3.15,2.27,7.09,1.81,10.69-.08.63,1.3.42,1.37-.13a17.37,17.37,0,0,0-1.58-10.53c-.37-.69-.88-1.75-1.68-2.06-2.62-1-5.26,1.52-6.68,3.39-2.72,3.57-4.34,7.95-5.74,12.16-.19.56,1.19.4,1.36-.13Z"/><path class="cls-15" d="M959,283.2c5,.08-1.91,11.48,2.27,11.29,1-.05,1.65-1.1,2.07-1.9a24.65,24.65,0,0,0,1.84-5.3,22,22,0,0,0,.81-7.24c-.2-2.87-.88-6.57-3.72-8-.5-.26-1.7.43-1,.76,2.37,1.19,3,4.16,3.32,6.58a17.35,17.35,0,0,1-.14,5.43,37.63,37.63,0,0,1-1.7,6.15,13.1,13.1,0,0,1-.8,1.75c-.13.23-.32.44-.45.67,0,0-.21.18-.21.19l.38,0a.24.24,0,0,1-.09-.08c0-.16-.29-.76-.3-1a7.21,7.21,0,0,1,.15-1.61c.19-1.23.49-2.44.67-3.66.34-2.19.28-4.92-2.57-5-.63,0-1.39.94-.48.95Z"/><path class="cls-13" d="M895.22,260.4c2.36-1.23,5.12-.19,6.67,1.18a5.91,5.91,0,0,1,1.81,2.79,6.12,6.12,0,0,1-1.44,5.6,5.71,5.71,0,0,1-6.56,1.17,6.31,6.31,0,0,1-3.13-7.33,5.61,5.61,0,0,1,2.65-3.41"/><path class="cls-13" d="M882.72,270.49s8.23-12.28,17-12.31c12.4,0,15.34,7.16,18,10.9,0,0-8.07-8.78-17.66-8.51C891.46,260.81,882.72,270.49,882.72,270.49Z"/><path class="cls-13" d="M834.4,260.58c-2.21-1.22-4.78-.16-6.22,1.21a6.09,6.09,0,0,0-1.67,2.8,6.5,6.5,0,0,0,1.39,5.6,5.1,5.1,0,0,0,6.13,1.14c2.69-1.36,3.55-4.83,2.87-7.36a5.68,5.68,0,0,0-2.5-3.39"/><path class="cls-13" d="M850,270.63s-7.21-12.24-14.83-12.23c-10.71,0-13.2,7.24-15.51,11,0,0,6.91-8.82,15.2-8.6C842.4,261,850,270.63,850,270.63Z"/><path class="cls-16" d="M859.32,301.49a8.82,8.82,0,0,0,8.1-.64c.51-.32,2.23,0,1.51.42a12.47,12.47,0,0,1-11,.68c-.3-.15-.25-.38.12-.51a2,2,0,0,1,1.3.05"/><path class="cls-16" d="M869.92,300.6a14.2,14.2,0,0,1,5-1.33,1.17,1.17,0,0,1,.77.23c.15.13.18.31,0,.42a5.44,5.44,0,0,1-2.73.67,1,1,0,0,1-.85-.32c-.16-.23.12-.39.35-.39a4.19,4.19,0,0,0,2.2-.55l.77.65a12.62,12.62,0,0,0-4.45,1.2,1.1,1.1,0,0,1-.92-.09c-.18-.11-.38-.36-.11-.49"/><path class="cls-16" d="M876.78,300.71c2-.08,4.38-1,5.35-2.54,1.46-2.32,0-6.17-2.56-7.6-.27-.16-.13-.37.14-.43a1.62,1.62,0,0,1,1.09.21,7.44,7.44,0,0,1,3.41,6.61c-.27,2-2.18,3.46-4.59,4.08a11.12,11.12,0,0,1-2.24.34c-.3,0-.85-.07-1-.31s.12-.35.41-.36"/><path class="cls-16" d="M855.6,300.51a.26.26,0,0,0-.26-.37,2.4,2.4,0,0,1-1.58-.5c-.17.22-.34.45-.52.67a7,7,0,0,1,3.18,1.08.57.57,0,0,0,.65-.11c.13-.11.26-.37.07-.49"/><path class="cls-16" d="M857.14,300.79a7.78,7.78,0,0,0-3.57-1.2.62.62,0,0,0-.53.25.28.28,0,0,0,0,.41"/><path class="cls-16" d="M851.41,300.85a4.14,4.14,0,0,1-3.55-2.4,6,6,0,0,1,1.47-6.53.25.25,0,0,0-.11-.43.82.82,0,0,0-.7.23,6.69,6.69,0,0,0-2,5.56,4.68,4.68,0,0,0,3.1,4,4.63,4.63,0,0,0,1.47.29c.19,0,.55-.1.64-.34s-.08-.35-.27-.35"/><path class="cls-13" d="M880.09,242.58c.19,1.95.39,3.92.59,5.89.15,1.5.3,3,.46,4.48,4.28-1.69,8-2.88,10.77-3.7,5.54-1.63,11.36-2.87,17.17-2.48a18.27,18.27,0,0,1,7.68,2c.77.41,2.91,2.29,3.93,1.65.42-.26-.53-2.6-.63-2.85-2-4.72-6-6.36-10.84-7.06-9.84-1.42-19.49-.21-29.13,2.08"/><path class="cls-13" d="M818.72,250.3a15.1,15.1,0,0,0,.64-3.73,24.14,24.14,0,0,1,2.89-1.14c9.32-3,18.88-3.42,28.62-2.75q.2,2.94.39,5.91c.1,1.5.2,3,.29,4.5-4.43-1-8.21-1.54-11.06-1.88-5.64-.7-11.49-1-17.07.37a20.66,20.66,0,0,0-4.48,1.59Z"/><path class="cls-5" d="M876.55,359.52a153.31,153.31,0,0,0,15.34-2.23c9.48-2.12,20.23-7.52,28.55-12.55a161.59,161.59,0,0,0,13.44-9.17c-.73.54-1.34,3-1.78,3.84a49.28,49.28,0,0,1-6.29,9.07c-7.9,9.07-18.26,13.95-29.84,16.64-5.43,1.26-13.4,3.48-18.87,1.74C877.1,366.86,876.55,359.63,876.55,359.52Z"/><path class="cls-17" d="M866.94,316.29c4.64-.21,18.75-1.64,18.75-1.64s-4.86,5.32-18.8,6-18.59-4.09-18.59-4.09Z"/><path class="cls-10" d="M708.33,764.81a136.93,136.93,0,0,1,27.39,4.58,71.57,71.57,0,0,1-1.38-13.47q2.8-2.17,5.88-4.41a178.59,178.59,0,0,1,24.53,15.6,220,220,0,0,1,25.54,22.45,198.25,198.25,0,0,1,21,25.42c1.77,2.57,3.48,5.2,5.1,7.88l-.87.07c23.12,41.81,5.49,118.38,7.94,192.32,2.14,64.92,2.34,73,6.08,107.55-10.82,15.48-95.15,4.09-95.15,4.09C723.59,1026.64,708.33,764.81,708.33,764.81Z"/><path class="cls-7" d="M789,490.62l-3.58,16.86-37.71,89c2.55,7.09,33.36-.37,37.65,5.75,4.93,7,8.25-3.2,12.32,4.37,4.28,7.94,8.09-.89,10.8,7.68,1.84,5.8,5.88,3.94,7.27,9.84,16.36-15,30.86-73.88,30.86-73.88Z"/><path class="cls-7" d="M802.09,599.51c-7.78-4.28-15.92-8.33-24.47-10.83C765.13,585,769,583,756.94,577.87l-119.23,4.56,1.09,17.28a55.4,55.4,0,0,1-1.1,15l-3.81,17.9s88.88,11.55,113.35,12.22c24.89.68,65.64-3.74,75.18-32.58A220.67,220.67,0,0,0,802.09,599.51Z"/><path class="cls-18" d="M816,444.24a19.15,19.15,0,0,0,.36,4.14c.38,2.92.9,6.7,1.5,11.2,1.36,9.47,3.33,22.52,5.58,36.92s4.52,27.43,6,36.85l6.73,38.45a23.48,23.48,0,0,0,.91,4.05,19.79,19.79,0,0,0-.35-4.14c-.39-2.92-5.64-34-6.24-38.54-1.35-9.44-3.32-22.49-5.58-36.92s-4.51-27.43-6-36.83c-.77-4.48-1.47-8.23-2-11.13A20,20,0,0,0,816,444.24Z"/><path class="cls-18" d="M991.25,432.16a39.59,39.59,0,0,1,.17-7.3,46,46,0,0,1,27.51-37.22,39.7,39.7,0,0,1,6.9-2.32,9.37,9.37,0,0,1,2.57-.4c.07.26-3.68,1-9.14,3.66A48,48,0,0,0,992.44,425c-1,6-.48,9.8-.77,9.82A9.53,9.53,0,0,1,991.25,432.16Z"/><path class="cls-7" d="M1008,721.55c9.58,3.27,18.42,8.41,26.72,14.14,7.21,5,14.06,10.19,19.42,17.19,9.73,12.71,13,28.62,13.17,44.34,9.31-9.56,16.64-46.46,14.22-68.57-6-54.67-111.68-59.59-111.68-59.59l-117.81,7.46-2.6-1.26s-8,6.9-10.43,14a38.27,38.27,0,0,0-1.53,14.81s8.18,2,13.92,3.68a187.21,187.21,0,0,0,24.4,4.41c4.32.4,46.59-.74,77.19,2.35a2,2,0,0,1,1.35-.48,121.61,121.61,0,0,1,32.18,4.53C993.81,718.63,1001,719.16,1008,721.55Z"/><path class="cls-4" d="M1015.74,625.18c6.42.52,18.79-.51,25.2.13,13.82,1.39,24.2-.77,38,1.47l-56.63,129.14L992.2,740.24Z"/><path class="cls-19" d="M604.27,949.43l2.57-3.84c-.72-.54-1.48-1.07-2.33-1.6A25.3,25.3,0,0,1,604.27,949.43Z"/><path class="cls-8" d="M270,838.58q70,0,140,0c20.07,0,23.79,9.5,23.77,29,0,17.9-4,28.4-24.33,28.45-4.58,0-9.25.51-13.71-.09-13.44-1.82-16.14,3.15-14.38,13.54,17.19,101.36,34,195.79,51.11,297.15,1.17,6.91.11,9.64-9.18,9.75-23.17.29-23.64.75-26.86-18.23q-16.41-97-32-194.09c-1.39-8.8-5-11.46-15.42-11.37q-79.61.66-159.23,0c-10.19-.08-13.15,3-14.42,11-10.88,68.19-22.28,136.31-33.25,204.49-1,6.35-4.13,8.24-11.5,8.35-23.88.37-24.53.54-21.46-18.58,11.12-69.32,22.68-138.58,34.16-207.86,4.88-29.45,9.75-51.94,15.06-81.34,1.65-9.07-.28-14.22-12.74-12.48-2.68.37-5.5-.12-8.23.07-35.8,2.53-32.88-23-30.8-46.69.8-9.18,10.3-11.34,20.63-11.29,47.59.24,95.17,5.92,142.76,5.92Zm-1.12,130.86c26.5,0,53-.2,79.51.13,8.12.1,11.74-1.4,10.36-9.05-4.27-23.66-8.15-30.9-11.84-54.63-1.12-7.19-4.08-10.23-13.7-10.11-42,.53-84.09.61-126.12,0-10.42-.16-13.31,3.18-14.47,10.79-3.53,23-7.29,29.45-11.46,52.34-1.45,7.93.66,11,11,10.76C217.66,969.06,243.27,969.44,268.86,969.44Z"/><path class="cls-9" d="M143.4,990.14q-2.66,16-5.32,32.07c11.12,2.19,22.17,4.76,33.2,7.43q2.08-12.95,4.18-25.9c1.27-8,4.23-11.06,14.41-11q79.62.68,159.24,0c10.45-.09,14,2.57,15.42,11.37q2,12.57,4,25.13A300.44,300.44,0,0,0,399.73,1016c-6.06-35-12.14-70.3-18.27-106.46a20.16,20.16,0,0,1-.06-8.42q-10.89.72-21.79,1.13-6.69.26-13.38.41A21.26,21.26,0,0,1,347,906c3.68,23.73,7.56,31,11.83,54.63,1.39,7.65-2.24,9.14-10.35,9-26.5-.32-53-.12-79.52-.12-25.59,0-51.19-.38-76.77.19-10.28.23-12.4-2.83-10.95-10.76,4.17-22.89,7.93-29.37,11.46-52.34.47-3,1.22-5.39,2.61-7.12q-18.92-.59-37.82-.85c1.72,2.22,1.78,5.7,1,10.14C153.15,938.2,148.28,960.68,143.4,990.14Z"/><path class="cls-9" d="M106.17,854.43s152,23.41,217.55,14.94,109.72-11.14,107.06-21.29-49-31.92-95.76-33.46-174.76,10.21-174.76,10.21-43,7.23-47.49,13.48S106.17,854.43,106.17,854.43Z"/><path class="cls-20" d="M465.56,373.61a142.63,142.63,0,0,0-8.34,36A142.2,142.2,0,0,0,465.56,373.61Z"/><path class="cls-6" d="M289.35,301.64a273.15,273.15,0,0,0-38.78,20C228.06,335.5,197.5,353.3,189.15,399s9.48,123.61-13.39,178.16a519.91,519.91,0,0,0-31,104.46l226.9-275.93Z"/><path class="cls-21" d="M138.75,736.21s-18.54,94.28,29.88,108.16,254,17.22,254,17.22,4,61,11.82,117.3c7.19,51.78,19.59,126.39,19.59,126.39s154.47,10.47,171-19.51C639.45,979,653.1,871,646.87,763.1c-2-35.06-34-57.6-62.67-66.69-28.44-9-73.59-12.57-104.63-14.71-30.36-2.09-84.51,5.47-84.51,5.47S240.9,774.3,138.75,736.21Z"/><path class="cls-22" d="M310.08,99c6.77-7.36,16.39-11.63,25.53-7.86,1.95-18.55,21.26-27.16,39.82-25.32,9.47,1.38,18.69,6.91,28.05,4.91,5.84-1.23,10.63-5.07,15.88-8.12,21.91-12.28,51.14,9,65.79,29.39s7.83,40.24-3.83,62.48c-5.42,10.34-5.53,16.33-8.24,27.77-2.56,10.8-11.78,30.29-13.29,41.14s14,24.39,2.93,23.85l-117.6-29.34c-18.19,1.23-28.83-5.59-35.91-22.39-4.56-11.38-2.52-11.61-1.75-23.82.61-16-13.95-30-11-45.72C298,116,303.75,106.8,310.08,99Z"/><path class="cls-23" d="M295.34,96.43S339.25,81.25,391.75,94s74.32,48.68,80.63,73.27-6.76,47.93-6.76,47.93,12.85,5.31,27.84-41.47C515.3,105.48,449.3,54.22,432.05,52.25S329,21.2,295.34,96.43Z"/><path class="cls-4" d="M325.53,224.41s-7.37,41.85-22.47,69.78c-2.1,3.89-30.25,16.14-30.25,16.14l36.75,17.88c20.94,7.8,69.34,13.13,91.18,8.36l18.88-8.76s-21.38-7.7-21.79-12.9,8.49-43,8.49-43"/><g id="freepik--character-2--inject-1332"><path class="cls-24" d="M348.23,391.24a61.1,61.1,0,0,1-3.39-7.52,27.41,27.41,0,0,1-1.27-8.72,26.47,26.47,0,0,1,2.35-10.47,27.55,27.55,0,0,1,4.36-6.68l.28-.28-.17-.45c-1.71-5.31-3-10.34-4.07-13.68a20.51,20.51,0,0,0-2-5.32,3.11,3.11,0,0,0,.24,1.47l1,4c.87,3.48,1.86,8.23,3.66,14.05l.14-.73a27.21,27.21,0,0,0-7.06,18.17,26.73,26.73,0,0,0,1.66,9,23.8,23.8,0,0,0,2.7,5.47A7.55,7.55,0,0,0,348.23,391.24Z"/><path class="cls-24" d="M300.85,374.21a41.14,41.14,0,0,0-4.1-4.84,22.91,22.91,0,0,1-6.37-13.08c-.15-2.85.4-5.68.18-8.4a8.88,8.88,0,0,0-2.88-6.48,5.52,5.52,0,0,0-4.62-1.21c-1.15.31-1.56.87-1.53.91a6.77,6.77,0,0,1,1.62-.4,5.39,5.39,0,0,1,3.94,1.41A8.47,8.47,0,0,1,289.3,348c.15,2.48-.44,5.3-.29,8.38a18,18,0,0,0,2.72,8.07,31.79,31.79,0,0,0,4.36,5.45A24.8,24.8,0,0,0,300.85,374.21Z"/><path class="cls-24" d="M316.78,364.63a65.75,65.75,0,0,0-6.09-5.83,39.85,39.85,0,0,1-11.24-16.29,22.48,22.48,0,0,1-1-5.51,37.36,37.36,0,0,1,.29-5.29,11.47,11.47,0,0,0-2-9.06,5,5,0,0,0-3.43-1.72,4.87,4.87,0,0,0-2.73.51c-1.41.82-1.53,1.85-1.49,1.82a3.55,3.55,0,0,1,1.69-1.32,4.51,4.51,0,0,1,5.13,1.3,10.81,10.81,0,0,1,1.5,8.32,37,37,0,0,0-.35,5.47,21.87,21.87,0,0,0,1,5.89,37.56,37.56,0,0,0,11.82,16.56c2,1.71,3.67,3,4.86,3.89A7.1,7.1,0,0,0,316.78,364.63Z"/><path class="cls-24" d="M297.1,309.46a16.66,16.66,0,0,1,3.92,6.19,36.17,36.17,0,0,1,1.55,7.84,43.33,43.33,0,0,0,2,10.08A36.67,36.67,0,0,0,315,348.91a31.84,31.84,0,0,0,4.59,3.31,6.28,6.28,0,0,0,1.9.86c0-.22-2.46-1.65-5.82-4.91a39,39,0,0,1-9.78-15.1,45.78,45.78,0,0,1-1.86-9.71,33.66,33.66,0,0,0-1.9-8.21A9.65,9.65,0,0,0,297.1,309.46Z"/></g><g id="freepik--character-1--inject-1332"><path class="cls-4" d="M402.48,319.85,296.14,304.94l-16.36,37.94s24.47,29,27.18,30.53,67,23.69,67,23.69,77.68-19.22,76.64-19.12S402.48,319.85,402.48,319.85Z"/><path class="cls-6" d="M156.14,743.67c6.77,3.34,14,5.17,21.43,6.61a173.2,173.2,0,0,0,24.13,2.94,147.38,147.38,0,0,0,42-3.63,362.81,362.81,0,0,0,38.12-11.82c25.15-9.1,48.87-9.3,74.07-18.24s32-23.13,58.73-24.76c19-1.16,43.87-15.76,64.92-13.07,5.74-19.18-11.84-41.59-11.84-41.59l-10.14-57L479,559.62c14.75-24.25,19.2-88,13.77-98.6L447.24,343.51l-44.51-24.93c1.76,3.92,13.37,32.66-25.2,39.23l-9.3-.7c-48.39-6.48-78.88-55.47-78.88-55.47l-16.43,7.18-82.18,242.9s-59.81,106.74-66,152.55c-1,7.08-4.46,9.51,1.33,20.89C132.86,731.32,145.6,738.47,156.14,743.67Z"/></g><line class="cls-21" x1="231.22" y1="530.03" x2="232.95" y2="529.26"/><path class="cls-6" d="M402.73,318.58s68.1,23.7,75.28,46.78c10.91,35.06,15.7,108.42,15.7,108.42l-32.61-2.12Z"/><path class="cls-21" d="M488,540.11c1.28-8.41.4-17.16-.13-25.59q-.87-14-2.95-27.94c-2.85-19.21-7.14-38.17-11.88-57-2.27-9-4.66-18.07-7-27.09,3.34,16.84,5.84,33.85,9.62,50.61,3.86,17.18,7.47,33.87,9,51.42,1.77,20.7,3.95,30.13-3.35,45.84s-23.64,32.79-23.64,32.79l1.39,1.65S485.51,556.51,488,540.11Z"/><path class="cls-5" d="M399.24,304.33s-8.69-2.66-14.58-5.21-16.43-3.59-41.37-31.89c0,0,4.23,31.22,39.4,42.53,0,0,9.05,3.2,15.38,2.55Z"/><path class="cls-4" d="M456.1,125.79l.34.36a5,5,0,0,1-.26-.7Zm14.56,6.45c.18.26.38.52.59.78l.07-.28S470.74,131.91,470.66,132.24ZM340.49,263.52c11.08,17.73,29.94,38,52.67,42.08,8.15,1.45,16.87-1.05,23.58-5.06,10.2-6.09,20.89-12.23,29.21-20.21,8-7.64,11.85-12.64,16.8-22.49,5.11-10.18,5.71-13,6.88-24.06a110.73,110.73,0,0,1,3.13-16.85c1.57-5.25,8.58-25.76,11.74-38s-1.51-37.7-1.51-37.7c0-3.5-5-2.76-6.17-5.84l-1.45-.33a1.47,1.47,0,0,1,.42,1.5,11.65,11.65,0,0,1-4.54-3.54v0c-2.41.51-4.36-1-5.79-3.06-.08.33.13,1.08.5,1.16a7.46,7.46,0,0,1-5.36-3.31c-.08.33.14,1.08.06,1.41a13.75,13.75,0,0,1-4.21-3.12c.24.51,8.72,1.1,8.67,1.33-2.25-.16.07,1.13-1.37-1l-1.51-1.65c-1.9-.07-2.08,1-3.23-.63.29.42-.16-3.89-.24-3.56-2.18-.5-1.55-.51-3.14-1.92-.08.34-6.43.82-6.5,1.16-1.82-.42-1.72,1.36-2.87-.3.29.41,1.63-1.1,1.92-.69-2.25-.16-3.39,1.06-4.83-1,.29.41-6.35-5.29-6.35-5.29-2.25-.16-2,.61-3.55-1.13.57.83-9.91-2.9-9.7-2.15-1.82-.42,2,7.44.73,6.11-.08.33-4-1.95-4-1.95-1.89-.08.46,2.2-.69.54-.08.33.06,1.42.42,1.5-2.41.51-4.8-.74-6.67-2.57.57.84.79,1.59,1.07,2-1.81-.41-3.34-.41-4.85-2.15-.08.33.42,1.5.79,1.58a7.4,7.4,0,0,1-5.66-2c-.08.33.5,1.16.78,1.57a5.25,5.25,0,0,1-4.2-1.65l.79,1.58c-1.46-.33-2.69.09-4.72-1.07-.08.33.57.83.5,1.16a13.58,13.58,0,0,1-3.56-1.15c-.07.33.86,1.24.5,1.16-1.45-.33-2.69.09-4.35-1,.28.42.49,1.17.78,1.58-1.45-.33-3-.32-4.28-1.32a2.57,2.57,0,0,0,.43,1.5c-1.46-.33-2.7.09-4.36-1-.08.33.5,1.16.79,1.58a19.56,19.56,0,0,1-4.36-1c-.08.33.57.83.86,1.25-1.45-.33-3-.33-4.64-1.41-.15.67.13,1.09.06,1.42-1.09-.25-1.74-.75-2.83-1l-2,.25c-6.59,5.51-24.44-4.19-24.44-4.19-13.29,6.44-8.66,55.89-9.73,62.3s-5.07,7.36-5.07,7.36c-1.29-2.74-5.07,3.66-5.55.74-.56-2.58.85-5.41.28-8-2.05-6.07-9.69-6-14.44-3.63l-.91,1c-7.27,6.27-6.49,31.06-3.94,38.94-2,14.44,8.81,24.69,18.12,16l.72,6"/><path class="cls-16" d="M421.4,244a10.67,10.67,0,0,1-9.32-2.74c-.52-.5-2.59-.6-1.87.11,3.06,3,8.88,4.53,12.74,3.52.38-.11.38-.38,0-.62a2.34,2.34,0,0,0-1.53-.27"/><path class="cls-16" d="M409.22,240.3a17.27,17.27,0,0,0-5.5-2.77,1.38,1.38,0,0,0-1,.08c-.2.11-.28.31-.09.48a6.6,6.6,0,0,0,3,1.46,1.27,1.27,0,0,0,1.08-.16c.24-.23,0-.48-.32-.54a5.07,5.07,0,0,1-2.44-1.18l-1.06.56a15.38,15.38,0,0,1,4.91,2.49,1.29,1.29,0,0,0,1.1.13c.24-.08.54-.32.25-.55"/><path class="cls-16" d="M401.17,238.74c-2.34-.6-4.88-2.24-5.63-4.27-1.15-3.06,1.44-6.9,4.76-7.94.36-.11.25-.39-.06-.53a2,2,0,0,0-1.32,0c-2.89.91-5.34,4-5.52,6.58-.17,2.41,1.71,4.55,4.38,5.87a12.8,12.8,0,0,0,2.53,1c.35.09,1,.13,1.25-.11s-.06-.44-.39-.52"/><path class="cls-16" d="M426,243.75a.32.32,0,0,1,.4-.38,2.85,2.85,0,0,0,2-.18l.45.9a8.45,8.45,0,0,0-4,.47.67.67,0,0,1-.72-.28c-.13-.17-.22-.5,0-.6"/><path class="cls-16" d="M424.12,243.68a9.36,9.36,0,0,1,4.45-.51.79.79,0,0,1,.57.43.32.32,0,0,1-.12.47"/><path class="cls-16" d="M430.8,245.17a4.94,4.94,0,0,0,4.73-1.91,7,7,0,0,0-.13-7.94.29.29,0,0,1,.23-.47,1,1,0,0,1,.75.45,7.85,7.85,0,0,1,1.05,6.95,5.66,5.66,0,0,1-6.36,3.81c-.24,0-.63-.24-.68-.55s.19-.38.41-.34"/><path class="cls-25" d="M456.66,203.18a5.15,5.15,0,0,1,6.45,5,5.4,5.4,0,0,1-2.33,4.5,5,5,0,0,1-5.82-.29,5.53,5.53,0,0,1-1.23-6.87,4.92,4.92,0,0,1,2.93-2.38"/><path class="cls-25" d="M437.14,205.81s11.56-5.49,16.69-4.85c7.48.93,15.58,7,17.35,11.25,0,0-10.56-8.77-15.85-9.28C450.27,202.45,437.14,205.81,437.14,205.81Z"/><path class="cls-25" d="M395.41,190.07c-1.78-1.5-5.09-1.95-6.67-1.08a5.25,5.25,0,0,0-2.08,2,5.39,5.39,0,0,0,.16,5.06,5,5,0,0,0,5.38,2.24,5.53,5.53,0,0,0,4.07-5.66c0-.42.55-1.09-.89-2.31"/><path class="cls-25" d="M406.91,198.35s-9.48-9.56-14.89-10.95c-7.9-2-18.45.47-21.88,3.68,0,0,14.07-4,19.59-2.43C395,190.16,406.91,198.35,406.91,198.35Z"/><path class="cls-26" d="M444.33,180.36c-.26,1.5-.51,3-.76,4.51l-.57,3.44c4-.31,7.39-.38,9.93-.36,5.39,0,8.14.05,11.09,1.09a28.87,28.87,0,0,1,6.58,3.39,18.42,18.42,0,0,1,3.33,2.56c2.26,2.31,2.95,4.59,3.4,4.48s.1-2.05.07-2.26a17.79,17.79,0,0,0-4.18-8.55,20.86,20.86,0,0,0-6.51-4.46c-2.87-1.28-11.1-3.26-22.38-3.84"/><path class="cls-26" d="M416.87,173.2c-.44,1.45-.89,2.91-1.34,4.37-.35,1.11-.69,2.22-1,3.32-3.76-2.16-7-3.82-9.54-5-5.27-2.52-8-3.79-11.33-4.27a34.37,34.37,0,0,0-8-.09,21.36,21.36,0,0,0-4.44.71c-3.27,1-5,2.69-5.39,2.38s.86-1.88,1-2a18,18,0,0,1,8-5.64,23.71,23.71,0,0,1,8.42-.89c3.4.22,12.35,2.34,23.64,7.16"/><path class="cls-27" d="M324.63,199.93c-5-20.46-10.79-21.52-10.79-21.52s-4.61,3.8-4.12,13"/><path class="cls-27" d="M321.37,201.19c-5.09-1.35-2.68,9-4.48,11s-2.72-4.31-2.18-11.71c0,0,1.59-9.86,6.78-10.87"/><path class="cls-5" d="M405.77,151.55s11.63,8.35,24.52,10.06,29,2.18,29,2.18"/><path class="cls-26" d="M477.66,125.07c-.13-.26.06.1,0,0-2.54-5-3.87-10-6.62-14.9s-5.38-9.07-8.34-13.66c-.18-.27-4.37-1-4.54-1.26L458,95l-.29-.43-.67-1c-18.69-11.6-42.61-16.34-65.33-12.82A80.86,80.86,0,0,0,324.12,173c.59,3.78-2.21,7.85,1,10.41s3.81,1.6,7.51-.24a26.69,26.69,0,0,0,8.9-8.4c11.72-16.13,18-43.59,16.64-63.48,1.81,4,18.64,2.57,21.91,5.47a31.31,31.31,0,0,0,44.21-2.64,48.11,48.11,0,0,0,4,6.76c14,19.55,34.31,31,54.06,21.49C483.15,142,479.24,128.21,477.66,125.07Z"/><path class="cls-28" d="M366.4,181.21l.82,7.25c.19,5.53,1.93,16.79,3.13,20,1.69,4.52,29.29,12,35.46,9.95s12.63-17.34,14.88-20.73l11,3c0,5,.23,20.9,1.92,23.4s14.57,4.85,16,5.12c1.22.21,2.9.5,4.76.74,4.92.68,11,1.11,13.16-.3,3.25-2.08,8.35-11.6,12.93-20.67l.74-1.42c.16-.34.33-.57.36-.67h0l.82-1.64c-14.45-11.09-35.83-14.32-50.65-7.63l.06.19-10.75-3c-10.56-10.8-30.89-19.78-47.37-17.11h0l-48.93-2.19-1,4.16Zm68.89,41.61c-1.05-1.56-1.56-12.77-1.67-21.43,12.84-5.59,32.1-2.65,45.19,6.44l-.06.22c-2.45,4.85-9,17.78-12.18,19.83-3.78,2.42-29.39-2.56-31.29-5ZM373.91,208a145.78,145.78,0,0,1-4.1-26c14.86-3.27,37.7,5.19,48.07,15.51-3.35,6.27-8.27,17.42-12.69,18.87-6.36,2.09-30.24-5.51-31.28-8.36Z"/><path class="cls-29" d="M435.61,222.66c-1.06-1.56-1.56-12.77-1.67-21.43,12.84-5.59,32.09-2.65,45.18,6.45l-.05.21c-2.46,4.85-9,17.78-12.18,19.83-3.78,2.42-29.4-2.56-31.3-5Z"/><path class="cls-29" d="M373.91,208a145.78,145.78,0,0,1-4.1-26c14.86-3.27,37.7,5.19,48.07,15.51-3.35,6.27-8.27,17.42-12.69,18.87-6.36,2.09-30.24-5.51-31.28-8.36Z"/><path class="cls-30" d="M302.07,178.06S266,143.38,285.6,114.24c3.77-5.6,3.82-3.58,4.71-8.75,4.68-27.06-5.73-21.9,38.52-48.18s50-24.92,110.19-12c31,6.69,46.38,22.17,52.2,43.23,2.61,9.46,3.29,20.06,2.61,31.48,0,0-61.54-27.16-102.55-11.88s-90.36,76.71-85.2,99.32C307.53,213.86,302.07,178.06,302.07,178.06Z"/><path class="cls-23" d="M281.45,144.87s65.37-71.67,138.18-64c0,0-88.2-22-136.7,36.46l-1.63,7.43a41.5,41.5,0,0,0-.62,14.1Z"/><path class="cls-31" d="M556.6,736.17s31.85,2.75,37.34,22S589,803.71,589,803.71s8.15-41.79-4.94-53.16A68,68,0,0,0,556.6,736.17Z"/><path class="cls-6" d="M281.81,301.07s-74.65,7.05-101.4,41.68S128.77,520.06,127,543.34c-4.93,65.7,141.5,171.73,141.5,171.73l37.13-55.88L212,528.37,230.25,435Z"/><path class="cls-21" d="M261.27,389.79c-.15,16.12-33.54,130.05-38.55,147l3.28-.75c4.09-14.58,30.86-109.75,37.16-137.82,6-26.59-13-51.15-13-51.15C264.13,376.42,261.27,389.79,261.27,389.79Z"/><polygon class="cls-21" points="226 536.06 222.72 536.81 305.12 659.59 306.68 658.4 226 536.06"/><path class="cls-21" d="M159.77,614.54S217.64,693.33,262,714.47l15.28-15.54,2,.13-11.53,11.47-5.78,6.72s-29.35-17.49-43.78-31.82-59.46-68.21-59.46-68.21l1.08-2.68"/><polyline class="cls-4" points="301.44 663.09 332.57 685.18 319.4 725.38 270.01 706.29"/><path class="cls-4" d="M317.38,679.45l39.05-9.88s44.14,8.3,49.47,14,11.57,14.07.66,19.59c0,0,4.84,12.69-1.54,15.82s-13.68-1.24-13.68-1.24,8.45,10.39,1.17,15.11-10.43,1-10.43,1-.65,6-4.49,5.69a103.42,103.42,0,0,1-15.95-5s-21.52,2.28-33.12-1.16a55.35,55.35,0,0,1-21.14-13.47Z"/><path class="cls-5" d="M383.28,696.4a29,29,0,0,1,22.47,6.28"/><path class="cls-5" d="M376.91,715.07c5.62-1.52,11-.36,15,3.21"/><polygon class="cls-21" points="306.68 658.59 302.92 664.13 301.44 663.09 305.53 657.1 306.68 658.59"/><path class="cls-7" d="M1037.41,580.09c12.59,4.07,24.49,10.1,37.25,13.66,5,1.41,10.21,2.45,15.36,3.48,1.73-17.05-10.54-107.65-10.54-107.65l-77.61,5.87,22.74,81.43A92.89,92.89,0,0,1,1037.41,580.09Z"/><path class="cls-7" d="M1085.33,565.84c-6.09-2.43-32.08,7.68-37.9,4.68-8.68-4.46-11.7,5.84-21,3l2.06,9.07c-12.65,18.83-32.67,133.68-32.67,133.68l51.66,18.33c7.5-18.72,12.16-37.48,19.5-56.26a202.22,202.22,0,0,0,6.75-20.92c2.23-8.13,4.44-16.9,8.29-28.85,3.67-11.37,8-22.64,8.45-34.59a117.06,117.06,0,0,0-.84-16.53C1089.25,574.19,1089.11,567.34,1085.33,565.84Z"/><path class="cls-18" d="M1023.42,586.47C1020.3,551.2,997,472.35,995.51,451.1l-.65,0c1.39,21.22,24.51,100.06,27.46,135.3Z"/><path class="cls-18" d="M1022.3,586.44l-4.55,23.44c-7.29,38.4-20.73,80.23-25.28,103.9l.36.09.22.07.14,0c.14-.6.18-.85.32-1.45,4.92-25.11,18.33-66.46,25.37-102.49,1.56-8,3.14-15.87,4.54-23.45Z"/><polygon class="cls-18" points="1033.11 731.2 1048.86 737.04 1074.94 658.07 1074.37 654.9 1047.43 734.64 1033.73 729.78 1033.11 731.2"/><path class="cls-21" d="M600.53,494.78s-8.72,16.11-11.55,27.9c0,0,2.56-23,9.51-29.81Z"/><path class="cls-21" d="M225.47,538.84s-17.19,6.32-27.12,13.29c0,0,17.14-15.57,26.85-16.07Z"/><path class="cls-18" d="M755.6,577.73s16.22,8.51,25.15,16.71c0,0-14.41-17.55-24-19.31Z"/><path class="cls-18" d="M1023.46,587.21s0-4.37,29.86,4.49c0,0-20.5-9.8-29.9-7.34Z"/><path class="cls-4" d="M956.92,806.73a2.41,2.41,0,0,0,1.28-.42s-1.9,8.14,10.39,3.46c0,0,9.67,4,15.56-.77,0,0,12.7.31,17.69-2.51s21.1-38.62,21.1-38.62l5-24.86-33.4-14.79-1.5,4.38s-15.15,3.57-20.72,7.62a65.54,65.54,0,0,0-11.31,12l-7.85,15c6.69,6,19.29-9.22,20.26-8.76a7.48,7.48,0,0,1,3.58,9.94c-3.09,7.45-6.59,16-6.9,17.32s-9.23,7.35-16,11.73C950.15,800,952,807,956.92,806.73Z"/><path class="cls-5" d="M985.29,781a40.64,40.64,0,0,1-7.63,14,35.86,35.86,0,0,1-13.46,8.2,31.6,31.6,0,0,0-6.2,2.62,21.54,21.54,0,0,0,6.63-1.42A31.92,31.92,0,0,0,979,796.22a35.87,35.87,0,0,0,7.48-14.78,23.42,23.42,0,0,0,1.31-6.78A30.91,30.91,0,0,0,985.29,781Z"/><path class="cls-5" d="M993.54,786.39a64.1,64.1,0,0,1-2.68,6.06,20.61,20.61,0,0,1-4.64,6.42,41.48,41.48,0,0,1-6.7,4.26c-2.22,1.19-4.19,2.3-5.82,3.26a21.42,21.42,0,0,0-5.15,3.43,21.14,21.14,0,0,0,5.74-2.29l6-2.92a36.17,36.17,0,0,0,7.09-4.37,20.81,20.81,0,0,0,4.8-7,45.42,45.42,0,0,0,2.4-6.42,12.82,12.82,0,0,0,.84-6.28A47.83,47.83,0,0,1,993.54,786.39Z"/><path class="cls-5" d="M1001.53,792c-1.38,2.42-3.29,5.7-5.25,9.52a5.26,5.26,0,0,1-1.81,1.88,25,25,0,0,1-2.3,1.55,45.4,45.4,0,0,1-4.14,2.19c-2.43,1.14-4,1.6-4,1.83s1.81.21,4.49-.66a25.41,25.41,0,0,0,4.5-2,23.75,23.75,0,0,0,2.51-1.54,6.82,6.82,0,0,0,2.37-2.49c3.92-7.43,6.77-13.83,6.1-14.12A20.18,20.18,0,0,0,1001.53,792Z"/><path class="cls-32" d="M409.13,255.19c-11.8-2.67-30.6-8.46-30.6-8.46s-2,25.41,25.36,31.6,36.5-17.59,36.5-17.59S420.93,257.87,409.13,255.19Z"/><path class="cls-33" d="M409.24,255.22c-5.61-1.27-28-7.39-28-7.39s4.52,14.75,24.82,19.35c22,5,31.38-6.43,31.38-6.43Z"/><path class="cls-17" d="M409.29,256.16c-5.61-1.27-22.46-6.13-22.46-6.13s4.68,7.86,21.51,11.67S432,260.44,432,260.44Z"/><path class="cls-32" d="M442,259.2c-.56-.29-4.08.11-6.81-.77-4.55-1.47-7.17-3.42-10.47-4.45-5.64-1.77-9.83-.21-12.33-.77s-5.61-3.78-11.46-4.62c-3.42-.49-12.05-1.09-16.79-1.72-2.84-.38-5.85-2.26-6.48-2.24-.88,0-.72,6.8,30.68,13.91S442.82,259.6,442,259.2Z"/><path class="cls-32" d="M868.64,314.14c10.53-.59,27.52-2.75,27.52-2.75s-2,20.78-26.44,22.13S841,314.44,841,314.44,858.11,314.72,868.64,314.14Z"/><path class="cls-33" d="M868.54,314.14c5-.27,25.14-2.23,25.14-2.23s-6.07,11.31-24.17,12.31c-19.63,1.09-26-9.37-26-9.37Z"/><path class="cls-17" d="M868.36,314.9c5-.28,20.19-2,20.19-2s-5.18,5.73-20.2,6.56-20.07-4.17-20.07-4.17Z"/><path class="cls-32" d="M839.79,313c.53-.16,3.5.64,6,.29,4.12-.58,6.66-1.8,9.65-2.2,5.1-.67,8.46,1.15,10.69,1s5.37-2.3,10.52-2.19c3,.06,10.51.72,14.67.85,2.5.07,5.36-1.05,5.9-.95.75.14-.39,5.59-28.4,7.14S839.06,313.2,839.79,313Z"/></g></g></svg>