<svg xmlns="http://www.w3.org/2000/svg" viewBox="0 0 1221.96 991.43"><defs><style>.cls-1{fill:#f2ebd1;}.cls-2{fill:#c7e4e3;}.cls-3{fill:#bb997a;}.cls-4{fill:#3c803d;}.cls-5{fill:#956243;}.cls-6{fill:#4d2f15;}.cls-7{fill:#1b120c;}.cls-8{fill:#a56530;}.cls-9{fill:#8c542a;}.cls-10{fill:#a38166;}.cls-11{fill:#87654d;}.cls-12{fill:#5f6161;}.cls-13{fill:#343535;}.cls-14,.cls-28,.cls-40,.cls-41{fill:none;}.cls-14{stroke:#a38166;}.cls-14,.cls-21,.cls-28,.cls-40,.cls-41,.cls-46,.cls-50,.cls-51{stroke-miterlimit:10;}.cls-15,.cls-30{fill:#fff;}.cls-16{fill:#eaeae8;}.cls-17{fill:#5e5f5f;}.cls-18{fill:#853324;}.cls-19{fill:#c98532;}.cls-20{fill:#ec9a6f;}.cls-21{fill:#895522;stroke:#895522;}.cls-22{fill:#653c2a;}.cls-23{fill:#010101;}.cls-24{fill:#13110f;}.cls-25{fill:#878787;}.cls-26{fill:#24180f;}.cls-27{fill:#653c29;}.cls-28{stroke:#010101;stroke-width:0.9px;}.cls-29{fill:#273339;}.cls-30{opacity:0.14;}.cls-31{fill:#622515;}.cls-32{fill:#b7b7b8;}.cls-33{fill:#258f45;}.cls-34{fill:#e49024;}.cls-35{fill:#761515;}.cls-36{fill:#a51e24;}.cls-37{fill:#194a98;}.cls-38{fill:#b18962;}.cls-39{fill:#ccb193;}.cls-40,.cls-41{stroke:#b7b7b8;}.cls-40{stroke-width:2px;}.cls-41{stroke-width:0.95px;}.cls-42{fill:#656766;}.cls-43{fill:#383838;}.cls-44{fill:#565353;}.cls-45{fill:#517568;}.cls-46{fill:#304941;stroke:#304941;}.cls-47{fill:#513835;}.cls-48{fill:#745245;}.cls-49{fill:#3a3a3a;}.cls-50{fill:#1d1e1e;stroke:#1d1e1e;}.cls-51,.cls-52{fill:#151210;}.cls-51{stroke:#161311;stroke-width:0.36px;}.cls-53{fill:#161311;}.cls-54{fill:#231f20;}.cls-55{fill:#31160e;}.cls-56{fill:#f1eef7;}.cls-57{fill:#c9905d;}.cls-58{fill:#e8b582;}</style></defs><g id="Layer_1" data-name="Layer 1"><polyline class="cls-1" points="0.76 991.43 0.76 0 1222.71 0 1222.71 991.43"/><rect class="cls-2" x="78.97" y="80.02" width="350.31" height="830.84" transform="translate(508.26 990.87) rotate(-180)"/><polyline class="cls-3" points="1222.36 991.33 0.41 991.33 0.41 909.97 1222.36 909.97"/><rect class="cls-3" x="417.94" y="74.53" width="19.68" height="837.6"/><rect class="cls-4" x="300.22" y="856.38" width="117.73" height="53.96" transform="translate(718.16 1766.71) rotate(-180)"/><path class="cls-4" d="M417.94,846.63s-53.27-5.48-117.72-6v21.85H417.94Z"/><path class="cls-5" d="M517.67,895.46l36.79,19.08c2.71,2.29-34,22.73-70.36-9.58l4.08-9.94Z"/><path class="cls-6" d="M581.14,930.54s1.93-4.9-1.93-6.41S554.72,912.61,552.63,913c0,1.48-1.86,3.44-6.3,4.78s-9.37,3-20.74.84c-8.53-1.63-26.06-4.6-33.77-9.09-2.58-1.5-6.31-6.55-6.47-7.29-9,10.26-6.29,21.14-2.19,23.83s28.31,4.47,28.31,4.47l21.44,5.11,20.23,1,8.51-.19,10.2-1.51Z"/><path class="cls-7" d="M482.11,925c2.64.92,11.09,2.34,18.33,2.48,19.44.4,26,2.88,32.54,4.88a81.2,81.2,0,0,0,11.54,2.86c22.68,3.84,35.94-4.39,36.4-4.72a2.16,2.16,0,0,1,.61,1.1,17.83,17.83,0,0,1-4.69,3.09c-6.4,2.87-15.55,6.17-33.12,3.55-5-.74-8-1.1-11.27-2.1a82.14,82.14,0,0,0-20.93-3.84l0,3.3s-20.62.77-29.92-3.24C481,927.32,482.11,925,482.11,925Z"/><path class="cls-7" d="M481.43,929.43c12.37,3.19,25.82,3.28,30.1,3.3l0,2.9s-20.62.77-29.92-3.24A24.25,24.25,0,0,1,481.43,929.43Z"/><g id="freepik--character-1--inject-1332"><path class="cls-5" d="M423,854.67s3.07,43.15,2.88,45.68l20.72,5.82,8.84-5.27,8.94-46.28Z"/></g><path class="cls-5" d="M455.49,898.88,492.27,918c2.72,2.29-33.94,22.72-70.35-9.59l4.08-9.93Z"/><path class="cls-6" d="M519,934s1.93-4.91-1.94-6.41S492.53,916,490.45,916.43c0,1.49-1.86,3.44-6.3,4.78s-9.37,3-20.75.85c-8.52-1.64-26.06-4.61-33.77-9.09-2.57-1.51-6.3-6.55-6.46-7.29-9,10.25-6.29,21.14-2.19,23.82S449.29,934,449.29,934l21.44,5.11L491,940l8.51-.18,10.2-1.51Z"/><path class="cls-7" d="M419.93,928.46c2.63.91,11.09,2.33,18.33,2.48,19.43.39,26,2.87,32.54,4.88a81.5,81.5,0,0,0,11.53,2.85c22.69,3.85,35.95-4.38,36.41-4.72a2.19,2.19,0,0,1,.61,1.11,17.65,17.65,0,0,1-4.69,3.08c-6.4,2.88-15.55,6.18-33.13,3.56-5-.74-8-1.1-11.26-2.1a81.79,81.79,0,0,0-20.93-3.84l0,3.3s-20.62.77-29.92-3.25C418.79,930.74,419.93,928.46,419.93,928.46Z"/><path class="cls-7" d="M419.25,932.86c12.37,3.19,25.82,3.28,30.09,3.3l0,2.9s-20.62.77-29.92-3.25A22.26,22.26,0,0,1,419.25,932.86Z"/><path class="cls-5" d="M484.17,872.74s3.88,23.18,3.7,25.71l6.83.82h25.58l4.37-24.81Z"/><path class="cls-8" d="M1016.55,734.05c24.91,0,49.82-3,74.73-3.1,5.4,0,10.37,1.1,10.79,5.91,1.09,12.38,2.62,25.76-16.12,24.44-1.43-.1-2.9.15-4.3,0-6.53-.91-7.54,1.78-6.68,6.53,2.79,15.39,5.34,27.16,7.89,42.58,6,36.26,12.06,72.51,17.88,108.8,1.6,10,1.27,9.92-11.23,9.72-3.86-.06-5.49-1-6-4.37-5.75-35.68-11.71-71.34-17.41-107-.66-4.17-2.21-5.8-7.55-5.75q-41.67.35-83.34,0c-5.47,0-7.34,1.35-8.07,6q-8.07,50.84-16.75,101.6c-1.69,9.93-1.93,9.69-14.06,9.54-4.86-.06-5.42-1.49-4.81-5.1,9-53.06,17.76-102.49,26.75-155.54.93-5.44-.49-8-7.52-7.09a55.42,55.42,0,0,1-7.18,0c-10.63,0-12.72-5.53-12.73-14.89,0-10.19,1.93-15.16,12.44-15.17h73.29Zm40.77,65.63c5.38.12,6.49-1.48,5.73-5.63-2.18-12-4.15-15.37-6-27.39-.62-4-2.13-5.74-7.58-5.65-22,.34-44,.3-66,0-5-.07-6.58,1.53-7.17,5.29-1.93,12.42-4,16.21-6.19,28.59-.73,4,1.17,4.79,5.42,4.74,13.87-.17,27.74-.06,41.62-.06C1030.53,799.59,1043.94,799.39,1057.32,799.68Z"/><path class="cls-9" d="M1082.81,810.42q1.38,8.4,2.78,16.79c-5.82,1.14-11.6,2.49-17.38,3.89q-1.1-6.78-2.18-13.56c-.67-4.17-2.22-5.79-7.55-5.75q-41.67.35-83.35,0c-5.47,0-7.34,1.35-8.07,6-.69,4.38-1.41,8.77-2.11,13.15A157,157,0,0,1,948.63,824c3.18-18.33,6.36-36.79,9.57-55.72a10.53,10.53,0,0,0,0-4.41c3.8.26,7.6.45,11.41.6q3.5.12,7,.21a11,11,0,0,0-.4,1.73c-1.93,12.42-4,16.21-6.2,28.6-.72,4,1.18,4.78,5.42,4.73,13.87-.17,27.75-.06,41.62-.06,13.4,0,26.8-.2,40.19.09,5.38.12,6.49-1.48,5.73-5.63-2.18-12-4.15-15.37-6-27.39a7.67,7.67,0,0,0-1.36-3.73c6.59-.2,13.19-.36,19.79-.44-.9,1.16-.93,3-.51,5.3C1077.7,783.23,1080.25,795,1082.81,810.42Z"/><ellipse class="cls-9" cx="1016.61" cy="733.75" rx="84.45" ry="8.94"/><path class="cls-5" d="M934,502.22a18.63,18.63,0,0,1,1.94-10.14,8.17,8.17,0,0,1,4.07-4.16,3.88,3.88,0,0,1,5,2c.6,1.78-.57,3.61-1.21,5.4a13,13,0,0,0,.05,8.08,39.82,39.82,0,0,0,3.39,7.46"/><rect class="cls-3" x="47.81" y="74.53" width="24.17" height="837.6"/><rect class="cls-3" x="47.81" y="69.45" width="389.81" height="20.73"/><polygon class="cls-10" points="277.54 62.89 66.97 91.19 66.97 912.13 277.54 942.75 277.54 62.89"/><rect class="cls-11" x="277.54" y="62.86" width="22.68" height="879.15"/><path class="cls-12" d="M487.86,499.8H451.49c-2.41,0-4.36,2.94-4.36,6.55h0c0,3.62,1.95,6.55,4.36,6.55h36.37c2.41,0,4.36-2.93,4.36-6.55h0C492.22,502.74,490.27,499.8,487.86,499.8Z"/><path class="cls-12" d="M484,514c0,2,0,4,0,6v40.27c0,6.81,3.82,12.34,8.53,12.34h0c4.71,0,8.53-5.53,8.53-12.34v-85c0-6.81-3.82-12.33-8.53-12.33h0c-4.71,0-8.53,5.52-8.53,12.33v23.5c0-.37,5,.3,5.39.43a5.87,5.87,0,0,1,4.2,4.14,12.11,12.11,0,0,1,.27,4.34,10.15,10.15,0,0,1-.91,3.6,5.25,5.25,0,0,1-4.18,2.87,7,7,0,0,1-.79.06C486.62,514.2,485.3,514,484,514ZM489,545.61c0-2.3,1.23-4.21,2.82-4.26s2.91,1.78,2.95,4.08a4.57,4.57,0,0,1-1.68,3.87v4.82c0,1-.57,1.88-1.29,1.9s-1.31-.85-1.31-1.9V549.3A4.72,4.72,0,0,1,489,545.61Z"/><rect class="cls-12" x="528.73" y="470.98" width="8.82" height="90.02" transform="translate(1066.28 1031.98) rotate(-180)"/><path class="cls-13" d="M490.53,549.3v4.82c0,1,.59,1.9,1.31,1.9s1.29-.86,1.29-1.9V549.3a4.57,4.57,0,0,0,1.68-3.87c0-2.3-1.35-4.13-2.95-4.08s-2.85,2-2.82,4.26A4.72,4.72,0,0,0,490.53,549.3Z"/><line class="cls-14" x1="437.62" y1="69.45" x2="417.94" y2="90.18"/><line class="cls-14" x1="47.81" y1="69.45" x2="67.31" y2="91.48"/><path class="cls-15" d="M336.67,178.66c4.35-3.69,10-3.61,14.51.2.45.38.91.73,1.48,1.19.39-13.39,12.1-21.92,22.81-14.84.21-.88.41-1.72.62-2.55C379,151.13,390,145.2,399.28,150.37c1.65.92,2.43.6,3.64-.85a26.33,26.33,0,0,1,15-9.29v64.16H391.76c-16,0-31.93,0-47.9,0-5.54,0-10.1-4-11.69-10A15.49,15.49,0,0,1,336.67,178.66Z"/><path class="cls-16" d="M734.64,539.83s-15.38-37.42-19.45-39.16-6.8,2.43-6.8,2.43l17.25,43.68Z"/><path class="cls-5" d="M712.93,509.62a111.49,111.49,0,0,0-12.18-8.92A3,3,0,0,1,700,500a16.42,16.42,0,0,1-7.93-1.55c-2.79-1.25-5.1-3.5-7.86-4.81-.9.57-3.86.55-3.86.55l-15.16,5.5c-1.35,10.11-7,17.2.33,24.86l7.15,3.11,20.61,10.24s3.05-.17,4-1.42a4.7,4.7,0,0,0,.86-2.91l4-.14a10.12,10.12,0,0,0,2.68-2.66c.91-1.47-.66-4.13-.66-4.13l1.12-.07a4.47,4.47,0,0,0,3.7-2.45l.31-.69a7.32,7.32,0,0,0-.13-4.37s3.82-.08,4.69-1.45A7.34,7.34,0,0,0,712.93,509.62Z"/><path class="cls-5" d="M692.06,507.44c.29-.49,1.76-3.7,2.3-4a3.32,3.32,0,0,1,.47-.2,47.38,47.38,0,0,0,12.73-6.34c4.06-3.2,3.82-6.34,3.18-8.17a1.47,1.47,0,0,0-1.89-.89l-.24.11a78.72,78.72,0,0,1-8.86,4.55c-1.59.55-10.23,1-15.54,1.16C686.78,497.74,687.88,505.1,692.06,507.44Z"/><path class="cls-17" d="M484,160c4.15-4.42,10-6.93,15.52-4.59,1.32-11.22,13.08-16.31,24.31-15.06,5.74.91,11.28,4.32,17,3.18,3.55-.71,6.48-3,9.68-4.81,13.37-7.29,30.93,5.8,39.66,18.28s4.46,24.44-2.76,37.84c-3.36,6.23-3.46,9.86-5.19,16.77-1.63,6.52-7.36,18.27-8.35,24.83s8.32,14.89,1.61,14.48l-71.06-18.62c-11,.62-17.43-3.59-21.61-13.82-2.68-6.93-1.44-7.06-.89-14.45.49-9.7-8.24-18.26-6.33-27.78C476.62,170.25,480.14,164.7,484,160Z"/><path class="cls-18" d="M475.12,158.35s26.72-8.89,58.45-.81,44.69,30,48.34,45-4.43,29-4.43,29,7.75,3.31,17.16-24.94c13.72-41.18-25.91-72.72-36.35-74S496.06,113,475.12,158.35Z"/><path class="cls-5" d="M492.51,236.12s-4.76,25.32-14.11,42.13c-1.31,2.35-18.45,9.57-18.45,9.57l22.14,11.1c12.64,4.88,41.94,8.45,55.2,5.71l11.51-1.23s-12.91-8.76-13.12-11.92,5.46-26,5.46-26"/><path class="cls-19" d="M591.72,371l20.83,98.41c4,13.45,5.08,26.78-8.47,30.43H591.91c-12.29,3.3-14,6.64-18.63-5.21l-38-106.35Z"/><path class="cls-5" d="M566.74,466.42a24.48,24.48,0,0,0-3.8,6.91Z"/><path class="cls-19" d="M607,462c-.27.49-.88-.13-1.45-.32a24.12,24.12,0,0,0-11.62-1c-7.26,1.17-13.91,5.59-19.72,11.17a60.13,60.13,0,0,0-9.41,12c2.06,15.73,1.35,23,15.43,24.87l79.33,22.84,13.2-40.46Z"/><g id="freepik--character-2--inject-1332"><path class="cls-20" d="M503.18,335.5a38.85,38.85,0,0,1-2-4.59,16.61,16.61,0,0,1-.71-5.29,16.28,16.28,0,0,1,1.5-6.33,17,17,0,0,1,2.69-4l.18-.17-.11-.27c-1-3.23-1.73-6.29-2.36-8.32a12.79,12.79,0,0,0-1.16-3.24,1.84,1.84,0,0,0,.13.9l.58,2.41c.5,2.11,1.06,5,2.11,8.54l.09-.44a16.52,16.52,0,0,0-4.41,11,16.2,16.2,0,0,0,1,5.48,14.63,14.63,0,0,0,1.59,3.34A4.85,4.85,0,0,0,503.18,335.5Z"/><path class="cls-20" d="M474.59,324.83a26.54,26.54,0,0,0-2.45-3,13.86,13.86,0,0,1-3.77-8c-.07-1.73.28-3.44.17-5.09a5.43,5.43,0,0,0-1.7-3.95,3.35,3.35,0,0,0-2.79-.76c-.7.18-1,.51-.94.54a4,4,0,0,1,1-.23,3.27,3.27,0,0,1,2.38.88,5.1,5.1,0,0,1,1.29,3.57c.08,1.5-.3,3.21-.23,5.08a10.91,10.91,0,0,0,1.59,4.9,19.57,19.57,0,0,0,2.6,3.34A15.28,15.28,0,0,0,474.59,324.83Z"/><path class="cls-20" d="M484.31,319.14a39.67,39.67,0,0,0-3.65-3.57,24.26,24.26,0,0,1-6.7-10,14,14,0,0,1-.56-3.34,21.63,21.63,0,0,1,.21-3.21,6.94,6.94,0,0,0-1.14-5.5,3.11,3.11,0,0,0-2.07-1.07,3,3,0,0,0-1.66.29c-.86.49-.94,1.11-.92,1.1a2.16,2.16,0,0,1,1-.8,2.74,2.74,0,0,1,3.1.83,6.55,6.55,0,0,1,.85,5,23.09,23.09,0,0,0-.26,3.32,13.54,13.54,0,0,0,.59,3.57A22.69,22.69,0,0,0,480.19,316c1.2,1,2.2,1.86,2.91,2.39A4.32,4.32,0,0,0,484.31,319.14Z"/></g><g id="freepik--character-1--inject-1332-2" data-name="freepik--character-1--inject-1332"><path class="cls-21" d="M546.7,882.23l25.71-279.54L558.55,519H388.47l-17.59,80.53L406,885.88s54.56,3.57,74.76,3.57S546.7,882.23,546.7,882.23Z"/><path class="cls-5" d="M531.16,290.27l-64.95-4.18-8.16,23.67s16.1,16.41,17.81,17.22,41.54,11.28,41.54,11.28,46.07-15.15,45.45-15S531.16,290.27,531.16,290.27Z"/><path class="cls-19" d="M579.69,555.63c-1-33.83-1.11-66.73-1.11-66.73l-1.51-16.12,12.67-61c4.53-14.78,5.83-25.78,2.61-32.26l-27.58-69.17-28-18.54c1,2.39,7.87,19.9-15.55,23.6l-5.64-.49c-29.28-4.27-49-35.48-49-35.48L440,288.05,406.6,431.63S375.34,491.26,371.29,519s-4.15,115.62-4.15,115.62l64,6.6q7.13.74,14.29.91l37.63.9a260,260,0,0,0,31.2-1.13l57.07-5.51S580.69,589.46,579.69,555.63Z"/></g><path class="cls-5" d="M418.17,442.25c-4.22,2.51-13,5.95-17.2,8.54-9,5.58-16.83,7.58-25.49,13.72l82,69.41,15.33-20.8Z"/><path class="cls-22" d="M686,514.59a27.77,27.77,0,0,0,.81-4.88,24.66,24.66,0,0,0-.65-4.92A10.91,10.91,0,0,1,686,514.59Z"/><path class="cls-19" d="M544,298.87s32.53,14.33,36.71,28.37c6.36,21.32,11.23,44.47,11.23,44.47L566.26,385Z"/><path class="cls-21" d="M594.32,399.46c-.11-5.15-1.53-10.29-2.71-15.27q-2-8.29-4.63-16.39C583.31,356.62,578.8,345.73,574,335c-2.29-5.17-4.64-10.32-7-15.46,3.72,9.72,7,19.62,10.94,29.25,4.07,9.86,7.94,19.46,10.64,29.79,3.18,12.18,5.45,17.59,2.7,27.72S578,428.72,578,428.72l1,.84S594.52,409.51,594.32,399.46Z"/><path class="cls-22" d="M536.61,285.08s-5.24-1.67-8.8-3.25-9.93-2.3-24.84-19.63c0,0,2.34,19,23.58,26.06,0,0,5.46,2,9.3,1.65Z"/><path class="cls-5" d="M572,177.13l.2.22a3.61,3.61,0,0,1-.16-.42Zm8.78,4c.1.15.22.31.35.47l0-.17S580.85,180.94,580.81,181.15ZM501,259.78c6.58,10.82,17.87,23.26,31.62,25.88,4.92.93,10.23-.52,14.32-2.91,6.23-3.61,12.75-7.26,17.85-12a43,43,0,0,0,10.34-13.51c3.17-6.14,3.55-7.86,4.34-14.54a66.94,66.94,0,0,1,2-10.18c1-3.17,5.38-15.56,7.38-23s-.65-22.85-.65-22.85c0-2.12-3-1.71-3.69-3.58l-.88-.21a.87.87,0,0,1,.24.91,7.17,7.17,0,0,1-2.72-2.18v0c-1.46.29-2.63-.63-3.49-1.9,0,.21.07.66.29.71a4.52,4.52,0,0,1-3.22-2.05c-.05.21.08.66,0,.86a8.2,8.2,0,0,1-2.53-1.92c.14.31,5.28.73,5.24.87-1.36-.11,0,.68-.82-.58l-.91-1c-1.14-.07-1.26.61-1.94-.41.17.25-.08-2.36-.13-2.16-1.31-.32-.93-.32-1.89-1.18,0,.2-3.9.45-3.94.65-1.1-.26-1.05.81-1.74-.2.17.25,1-.66,1.17-.41-1.37-.11-2.07.62-2.92-.65.17.25-3.81-3.25-3.81-3.25-1.37-.11-1.24.36-2.15-.71.35.51-6-1.83-5.86-1.37-1.1-.27,1.13,4.52.4,3.7,0,.21-2.38-1.21-2.38-1.21-1.15-.06.26,1.35-.42.33,0,.2,0,.86.24.91a4.61,4.61,0,0,1-4-1.6c.34.51.46,1,.63,1.22-1.09-.27-2-.27-2.92-1.34,0,.2.24.91.46,1a4.48,4.48,0,0,1-3.41-1.24c-.05.2.29.71.46,1a3.21,3.21,0,0,1-2.53-1l.46,1c-.87-.21-1.63,0-2.85-.68,0,.2.34.51.3.71a8.4,8.4,0,0,1-2.15-.73c0,.2.51.76.29.71-.87-.21-1.63,0-2.63-.63.17.25.29.71.47,1a5.94,5.94,0,0,1-2.59-.83,1.52,1.52,0,0,0,.25.91c-.88-.21-1.64,0-2.64-.63,0,.2.3.71.47,1a11.86,11.86,0,0,1-2.63-.63c0,.2.34.5.51.76a7.2,7.2,0,0,1-2.8-.89c-.1.41.07.66,0,.86-.66-.16-1-.46-1.7-.62l-1.2.14c-4,3.29-14.78-2.71-14.78-2.71-8.1,3.81-5.65,33.81-6.34,37.69s-3.13,4.42-3.13,4.42c-.76-1.67-3.09,2.18-3.37.41-.32-1.57.56-3.27.23-4.84-1.2-3.7-5.83-3.74-8.72-2.3l-.56.56c-4.45,3.75-4.16,18.78-2.67,23.58-1.3,8.74,5.17,15,10.87,9.84l.4,3.62"/><path class="cls-23" d="M550.47,248.65a6.45,6.45,0,0,1-5.63-1.72c-.31-.31-1.56-.38-1.13,0a9.08,9.08,0,0,0,7.69,2.22c.24-.06.24-.22,0-.37a1.42,1.42,0,0,0-.93-.18"/><path class="cls-23" d="M543.12,246.35a10.6,10.6,0,0,0-3.32-1.72.83.83,0,0,0-.58.05.17.17,0,0,0-.06.29,4.09,4.09,0,0,0,1.83.9.74.74,0,0,0,.65-.09c.15-.14,0-.29-.19-.33a3.19,3.19,0,0,1-1.47-.73l-.64.33a9.41,9.41,0,0,1,3,1.55.8.8,0,0,0,.66.08c.15,0,.33-.19.16-.33"/><path class="cls-23" d="M538.25,245.35a5.08,5.08,0,0,1-3.39-2.63c-.67-1.86.93-4.17,2.95-4.78.22-.06.15-.23,0-.32a1.19,1.19,0,0,0-.79,0,5,5,0,0,0-3.4,3.94c-.12,1.46,1,2.77,2.61,3.59a8.07,8.07,0,0,0,1.53.59c.21.06.62.09.76-.06s0-.26-.23-.31"/><path class="cls-23" d="M553.25,248.56a.19.19,0,0,1,.24-.23,1.7,1.7,0,0,0,1.19-.09l.27.55a5.05,5.05,0,0,0-2.42.26.43.43,0,0,1-.44-.18c-.07-.1-.13-.3,0-.36"/><path class="cls-23" d="M552.12,248.51a5.71,5.71,0,0,1,2.7-.28.5.5,0,0,1,.35.26.21.21,0,0,1-.08.29"/><path class="cls-23" d="M556.16,249.46a3,3,0,0,0,2.88-1.13,4.26,4.26,0,0,0,0-4.81.17.17,0,0,1,.14-.28.53.53,0,0,1,.45.27,4.76,4.76,0,0,1,.59,4.22,3.37,3.37,0,0,1-2.81,2.3,3.48,3.48,0,0,1-1.07,0c-.15,0-.38-.16-.41-.34s.12-.23.25-.2"/><path class="cls-24" d="M572.13,224.19a3.11,3.11,0,0,1,3.87,3.1,3.25,3.25,0,0,1-1.44,2.71,3,3,0,0,1-3.52-.22,3.34,3.34,0,0,1-.7-4.17,3,3,0,0,1,1.79-1.42"/><path class="cls-24" d="M560.28,225.65s7.05-3.25,10.15-2.83c4.53.62,9.39,4.38,10.44,7,0,0-6.34-5.39-9.55-5.74S560.28,225.65,560.28,225.65Z"/><path class="cls-24" d="M535.1,215.81a4.26,4.26,0,0,0-4-.7,3.08,3.08,0,0,0-1.27,1.22,3.24,3.24,0,0,0,.06,3.07,3,3,0,0,0,3.24,1.4,3.37,3.37,0,0,0,2.51-3.41c0-.25.34-.65-.53-1.4"/><path class="cls-24" d="M542,220.91s-5.68-5.86-8.95-6.74c-4.78-1.29-11.19.15-13.29,2.07,0,0,8.56-2.33,11.89-1.33S542,220.91,542,220.91Z"/><path class="cls-25" d="M566.73,207.68l-1.21,2.49c-.31.63-.62,1.27-.92,1.9,2.37.51,4.35,1.05,5.83,1.5,3.13.94,4.72,1.43,6.26,2.54a17.47,17.47,0,0,1,3.24,3.1,11.36,11.36,0,0,1,1.49,2.06c.92,1.73.93,3.18,1.21,3.19s.41-1.18.43-1.3a10.82,10.82,0,0,0-1-5.69,12.6,12.6,0,0,0-3-3.71c-1.44-1.24-5.89-3.81-12.35-6.08"/><path class="cls-25" d="M547.89,202.86c-.07.92-.14,1.84-.22,2.76,0,.71-.11,1.41-.16,2.11-2.52-.78-4.68-1.32-6.31-1.69-3.45-.79-5.22-1.18-7.27-1a20.88,20.88,0,0,0-4.74,1,13,13,0,0,0-2.53,1c-1.8,1-2.6,2.26-2.87,2.12s.25-1.22.31-1.33a11,11,0,0,1,4-4.41,14.24,14.24,0,0,1,4.86-1.65c2-.33,7.62-.27,14.94,1.07"/><path class="cls-26" d="M546.28,255.45c-5-1-16.66-.3-19.28,1.16,0,0,4.89,5.12,16.48,7.54S557.8,263,557.8,263,552.64,256.77,546.28,255.45Z"/><path class="cls-15" d="M532.16,255.46s6,.76,10.78,1.75,10.59,2.7,10.59,2.7,1.49-3.37-7.1-5.16S532.16,255.46,532.16,255.46Z"/><path class="cls-27" d="M543.81,262.59c-5.27-1.9-10.4-5-16.81-6,0,0,.28,7.59,13.9,10.43s16.9-4,16.9-4C551.55,261.32,549.39,263,543.81,262.59Z"/><path class="cls-27" d="M552.76,254c-2.82-.8-4.86-.1-6.1-.36s-2.83-1.72-5.74-2.1c-2.72-.36-15.41,3.8-14.32,4.91s10.87-1.85,19.49-.06,10.7,7.23,12.14,6.64S555.4,254.75,552.76,254Z"/><path class="cls-22" d="M553.61,203.14s3.88,6.05-1.93,9.08Z"/><path class="cls-22" d="M560.74,205.07s-4.86,5.29.33,9.28Z"/><path class="cls-28" d="M492.14,221.29c-2.91-12.44-6.39-13.13-6.39-13.13s-2.82,2.28-2.59,7.86"/><path class="cls-28" d="M490.15,222c-3.07-.85-1.69,5.42-2.79,6.65s-1.62-2.64-1.24-7.12c0,0,1-6,4.19-6.53"/><path class="cls-22" d="M544.38,190.72s7,5.14,14.79,6.27,17.56,1.53,17.56,1.53"/><path class="cls-21" d="M588,416.72s-11.28,12.63-13.11,18.15S578.14,506,578.14,506l2.16,1.54s-5.66-60.32-3.57-70.91S588,416.72,588,416.72Z"/><path class="cls-25" d="M585.41,177c-.07-.16,0,.07,0,0-1.5-3-2.27-6.12-3.9-9.07s-3.2-5.54-5-8.34c-.11-.17-2.64-.64-2.75-.8l-.11-.17-.17-.27-.4-.6a59.09,59.09,0,0,0-39.5-8.24A49,49,0,0,0,492,205c.33,2.3-1.4,4.74.55,6.31s2.31,1,4.56-.09a16.11,16.11,0,0,0,5.45-5c7.22-9.69,11.21-26.29,10.54-38.35,1.07,2.43,11.27,1.69,13.24,3.47A19,19,0,0,0,553.17,170a29.29,29.29,0,0,0,2.4,4.12c8.35,12,20.57,19,32.61,13.41C588.62,187.3,586.35,178.92,585.41,177Z"/><path class="cls-29" d="M517.59,210.24l.44,4.4a61,61,0,0,0,1.75,12.15c1,2.74,17.67,7.46,21.42,6.28s7.78-10.42,9.17-12.46l6.67,1.9c0,3,0,12.66,1,14.19s8.8,3.05,9.68,3.22,1.75.32,2.88.48c3,.44,6.64.75,8-.09,2-1.24,5.15-7,8-12.43L587,227a4.64,4.64,0,0,0,.23-.41h0l.51-1c-8.68-6.83-21.61-8.93-30.64-5l0,.11-6.49-1.88c-6.32-6.62-18.58-12.21-28.59-10.71h0l-29.63-1.67-.66,2.51ZM559,235.94c-.63-.95-.85-7.75-.86-13,7.82-3.29,19.47-1.38,27.34,4.23l0,.13C584,230.22,579.91,238,578,239.23c-2.31,1.44-17.8-1.76-18.93-3.26Zm-37.1-9.39a87.76,87.76,0,0,1-2.29-15.8c9-1.88,22.81,3.42,29,9.74-2.08,3.78-5.14,10.5-7.83,11.35-3.87,1.22-18.28-3.56-18.9-5.29Z"/><path class="cls-30" d="M559.23,235.85c-.62-1-.85-7.75-.86-13,7.82-3.3,19.47-1.38,27.34,4.23l0,.12c-1.53,2.93-5.57,10.72-7.53,11.94-2.31,1.44-17.79-1.77-18.93-3.27Z"/><path class="cls-30" d="M521.94,226.55a87.76,87.76,0,0,1-2.29-15.8c9-1.88,22.81,3.42,29,9.74-2.08,3.78-5.14,10.5-7.83,11.35-3.87,1.22-18.28-3.56-18.9-5.29Z"/><path class="cls-31" d="M478.62,207.87s-21.64-21.28-9.53-38.8c2.33-3.36,2.34-2.14,2.92-5.26,3-16.37-3.32-13.32,23.68-28.93s30.5-14.74,66.87-6.46c18.76,4.27,28,13.77,31.32,26.57a58.58,58.58,0,0,1,1.36,19.1s-37.1-16.9-62.06-7.93-55.3,45.85-52.34,59.59C481.68,229.6,478.62,207.87,478.62,207.87Z"/><path class="cls-18" d="M466.36,187.61s40.12-43,84.2-37.83c0,0-53.3-14-83.11,21.12l-1,4.5a25.28,25.28,0,0,0-.48,8.54Z"/><path class="cls-16" d="M427.38,673.88s20.82-68.69,30.25-107.1a85.13,85.13,0,0,0,13.67,1.7c-2,15.15-7.78,35.34-7.8,36.29-.22,9.67,28.75,21.1,47.11,4.61,11.65-10.47-7.27-51.59-15.14-67.31-1.92-3.84-3.18-6.16-3.18-6.16s-6.17-11-13.33-8.67c-2.06-1.92-4.92,3.24-7.09,1.45,10.15-4.24,13.53-4.58,13.53-4.58,25,12.88,53.22,86.43,62.81,107.79s27.16,87.82-7.75,97.13c-2.22.6.47.6-67.2,2.17C419.43,732.48,427.38,673.88,427.38,673.88Z"/><path class="cls-32" d="M498.38,548s26.42,55.08,24.14,75.1-56.53,14.24-60.59,6.25,9.35-60.85,9.35-60.85-2.2,38.12,2.24,42.33S481,620,498.6,614.7s13.95-10.23,10.65-23.3S498.38,548,498.38,548Z"/><path class="cls-33" d="M493.4,596.27c-1.9,0-4.55,4.25-6,6.86l-.28-.53c1.29-4.34,3.56-12.67,1.68-11.65-1.66.88-3.09,4.95-3.87,7.65-.22-.38-.43-.76-.66-1.14,1.06-6.35-2.46-14.55-2.46-14.55l-.72,2.89a23.46,23.46,0,0,0,0,6.59c-2-3-3.93-5.23-5.45-5.95-7-3.28-9.49-.34-9.49-.34s9.72,4.67,11.38,7.64l1.65,3s-12-2.71-12-.49,13.6,5.43,13.6,5.43-11,.21-11.48,4,14.15-1.27,14.15-1.27l.64,1.93a9.62,9.62,0,0,0-4.27.54c-5.21,1.74,2.52,4.48,6.33,5.65l7.27,22,8.19-1.27-4.19-9s-3.48-8.15-7.86-16.91C491.58,603.68,495.48,596.22,493.4,596.27Z"/><path class="cls-34" d="M495.47,636.76s-3.11-29.62-33.81-21.59c0,0-3.37,11.56.27,14.16S476.15,638.41,495.47,636.76Z"/><path class="cls-35" d="M511.78,632.78a10.77,10.77,0,1,1,10.86-10.65A10.75,10.75,0,0,1,511.78,632.78Z"/><path class="cls-36" d="M493.91,630.3a10.74,10.74,0,1,1,21.48.24l0,1.85c-5.32,2.9-11.59,3.92-18.85,4.72C495.39,635.39,493.88,632.5,493.91,630.3Z"/><path class="cls-16" d="M456.83,568.71s12.37-40.54,16.59-42.58,12-2,12-2l-15.63,50.57Z"/><path class="cls-5" d="M464.1,501.77l24.55,1.72s24,13.26,26,17.6,4,10.38-3.35,11.5c0,0,.38,8.28-3.92,8.88s-7.7-3.34-7.7-3.34,2.92,7.65-2.21,9-6.24-1.43-6.24-1.43-1.52,3.36-3.69,2.44a63.69,63.69,0,0,1-8.31-5.93s-12.92-2.79-19-7a33.88,33.88,0,0,1-9.69-11.86Z"/><path class="cls-22" d="M499.11,524.2a17.71,17.71,0,0,1,11.83,7.93"/><path class="cls-16" d="M768.12,633.54c-6.08-15.64-24.8-64.42-33.62-94.19-4.52,1.21-6,1.13-10.58,1.64,2.54,14.21,8.92,33,9,33.91.64,9.12-26.2,21.19-44.26,6.44-11.46-9.36,4.57-49,11.29-64.19,1.65-3.71,2.73-6,2.73-6s5.34-10.64,12.2-8.77c1.86-1.91-.65.86,1.33-.93-9.77-3.55-7.54-1.74-7.54-1.74-23.06,13.27-46.39,83.94-54.49,104.53s-16.32,71.69,5.67,89.06c6.26,4.93,5.54,2.85,69.48,1.32,38.48-.9,42.06-32.57,41.53-47.93A40.27,40.27,0,0,0,768.12,633.54Z"/><path class="cls-32" d="M697.45,522.85S675,576,678,594.81s54,10.92,57.45,3.2-11.53-57-11.53-57,3.78,35.89-.23,40.06-6.6,9-23.5,4.78-13.62-9-11.09-21.51S697.45,522.85,697.45,522.85Z"/><path class="cls-37" d="M698.84,570.68c1.77-2.12,9.66-5.51,9.66-5.51l-.58-5.68,11.4-1.28,1,5.7a80.87,80.87,0,0,1,8.42,1.62c2.59.8,6.7,32.48,6.7,32.48-5.86,7.47-32.71,8.43-32.71,8.43S697.08,572.8,698.84,570.68Z"/><path class="cls-38" d="M677.72,586.05c30.59-8.56,35.43,19.77,35.43,19.77-19.4,2.38-28.69-4.19-32.21-7.32C677.17,596.37,677.72,586.05,677.72,586.05Z"/><path class="cls-39" d="M710.29,606.11s-1.95-27.24-32.54-18.67c0,0-.75,8.92,2.62,13.61C683.88,604.18,690.89,608.5,710.29,606.11Z"/><path class="cls-40" d="M770.42,655a54.58,54.58,0,0,0-3.61-23.41c-6.93-17.9-24.23-63.29-32.6-91.56h-.05q-1.3-3.13-2.64-6.25-2.29-5.36-4.67-10.66c-1.72-3.82-3.49-7.62-5.36-11.37-1.13-2.26-2.25-4.54-3.57-6.7-1.15-1.88-2.3-3.56-4.48-4.31a11,11,0,0,0-3.41-.53,4.5,4.5,0,0,0-1.51.12,6.33,6.33,0,0,0-1.27.77c-.55.34-1.07.73-1.59,1.12a35.86,35.86,0,0,0-3.16,2.74,60.3,60.3,0,0,0-6.29,7.26c-2.22,3-4.25,6-6.17,9.19-2.11,3.48-4.09,7-6,10.64-2,3.82-3.88,7.69-5.7,11.59s-3.64,8-5.37,12-3.34,8-5,12c-1.52,3.79-3,7.61-4.46,11.43q-2,5.18-3.92,10.38-1.63,4.41-3.28,8.84c-.83,2.22-1.66,4.44-2.53,6.65-8.1,20.59-16,71.06,6,88.43,6.26,4.93,5.25,3.48,69.19,1.95C761.9,694.53,769.3,671.29,770.42,655Z"/><path class="cls-41" d="M708.05,504.32s11.66,5.37,18.07,47.48"/><path class="cls-5" d="M707.14,507.4a76.6,76.6,0,0,0-9.75-3.43c-3.12-.64-3.57-.1-3.57-.1l-.06.21c-.9.3-2.56.75-2.82,1.41-.46,1.16-1.42,2.7.84,4.81l0,.75c-1.17.37-3,1.19-3.51,2.64a4,4,0,0,0,1.45,4.51l0,.1c-.85-.31-3.29-1-4.37.82-1.32,2.21,1.39,4.5,1.39,4.5s-1.88-1.41-3.1.24,1.57,3.94,1.57,3.94h0l1.32,1.57s5.7,7,6.51,8.2a3,3,0,0,0,2.07,1,4.79,4.79,0,0,0,2.16.07,2.3,2.3,0,0,0,1.18-1.14,25.46,25.46,0,0,0,1.77-5.33q1-3.42,1.93-6.84l3.25-11.56,1.78-6.32Z"/><path class="cls-21" d="M611,464.3s-9.79,5.6-13.12,15a19.52,19.52,0,0,1,12.82-16.36Z"/><path class="cls-21" d="M382.44,483.53s26.58,29,48.3,37.56h0l5.28-5.35,1.36,1.16-6.47,5.88s-14.39-7.41-24.12-15.13S382,485.23,382,485.23l.48-1.7"/><polyline class="cls-21" points="461.48 489.91 458.26 493.71 458.54 494.58 462.17 490.52 461.48 489.91"/><path class="cls-19" d="M461.48,284.22s-43.66,2.85-59.57,24.33-51.67,85.7-52.52,99.94c-3.9,65,81.35,112.6,81.35,112.6l30.43-30.82L413,425.15l22.48-60.65Z"/><path class="cls-21" d="M450.66,298.87s14.27,19,7.39,34.72-48,86.67-48,86.67l51.39,69.65-.71,1.79-52.7-71.38s49.9-83.76,49.81-94.74C457.88,325.58,459.48,317.13,450.66,298.87Z"/><path class="cls-22" d="M709.19,518.66a1.39,1.39,0,0,1-.45-.14L707.5,518,703,516l-6.66-3a36.75,36.75,0,0,1-3.9-1.86,5,5,0,0,1-2.72-3.75,3.52,3.52,0,0,1,.71-2.34,5,5,0,0,1,1.85-1.45,6.6,6.6,0,0,1,4.34-.28,25.4,25.4,0,0,1,3.71,1.28l3.13,1.26,4.55,1.85,1.23.52c.27.13.42.19.42.22l-.46-.12-1.26-.46-4.59-1.71L700.25,505a27.29,27.29,0,0,0-3.64-1.22,6.25,6.25,0,0,0-4.09.27,3.63,3.63,0,0,0-2.32,3.36,3.74,3.74,0,0,0,.84,2,6.15,6.15,0,0,0,1.67,1.42c1.25.73,2.62,1.26,3.85,1.86l6.56,3.08,4.44,2.09,1.2.59Z"/><path class="cls-22" d="M703.86,525.94a3.7,3.7,0,0,1-1-.38l-2.57-1.22c-2.15-1.08-5.07-2.64-8.2-4.53a22.52,22.52,0,0,1-2.28-1.45,5.27,5.27,0,0,1-1.62-2,4,4,0,0,1,.76-4.13,3.81,3.81,0,0,1,2.6-1.17,3.55,3.55,0,0,1,.79.06c.17.05.26.08.25.11a8.85,8.85,0,0,0-1,0,4,4,0,0,0-2.36,1.28,3.63,3.63,0,0,0-.6,3.75,4.84,4.84,0,0,0,1.52,1.81c.68.51,1.45.95,2.22,1.43,3.14,1.86,6,3.47,8.13,4.6l2.5,1.36A4.74,4.74,0,0,1,703.86,525.94Z"/><path class="cls-22" d="M697.94,531.73a5.82,5.82,0,0,1-.84-.5l-2.15-1.5-7-5.08a19.69,19.69,0,0,1-2-1.53,4.41,4.41,0,0,1-1.3-2,2.62,2.62,0,0,1,.28-2.18,2.91,2.91,0,0,1,1.52-1.12,4,4,0,0,1,2.63.13,2.82,2.82,0,0,1,.88.45l-.91-.28a4,4,0,0,0-2.46,0,2.62,2.62,0,0,0-1.3,1,2.18,2.18,0,0,0-.19,1.86,4.24,4.24,0,0,0,1.2,1.8,20.17,20.17,0,0,0,1.89,1.41c2.73,2,5.19,3.83,6.94,5.17l2.08,1.61A4.05,4.05,0,0,1,697.94,531.73Z"/><path class="cls-22" d="M692,536.35a15.27,15.27,0,0,1-1.95-2.07c-1.16-1.32-2.74-3.18-4.46-5.23l-1.25-1.49a7.52,7.52,0,0,1-1.1-1.53,2.57,2.57,0,0,1-.25-1.72,1.67,1.67,0,0,1,.93-1.21,2.46,2.46,0,0,1,2.12,0c.46.21.62.47.6.48a4.11,4.11,0,0,0-.66-.32,2.46,2.46,0,0,0-1.92.06,1.35,1.35,0,0,0-.71,1,2.29,2.29,0,0,0,.26,1.47,8.2,8.2,0,0,0,1.06,1.42l1.26,1.49c1.72,2.05,3.26,3.93,4.37,5.3A18,18,0,0,1,692,536.35Z"/><path class="cls-12" d="M244.43,503.94H208.06c-2.4,0-4.35,2.94-4.35,6.55h0c0,3.62,1.95,6.55,4.35,6.55h36.37c2.41,0,4.36-2.93,4.36-6.55h0C248.79,506.88,246.84,503.94,244.43,503.94Z"/><path class="cls-12" d="M240.55,518.12c0,2,0,4,0,6v40.27c0,6.81,3.82,12.33,8.53,12.33h0c4.71,0,8.53-5.52,8.53-12.33v-85c0-6.81-3.82-12.33-8.53-12.33h0c-4.71,0-8.53,5.52-8.53,12.33v23.5c0-.37,5,.3,5.4.43a5.86,5.86,0,0,1,4.19,4.14,12.11,12.11,0,0,1,.27,4.34,10.15,10.15,0,0,1-.91,3.6,5.24,5.24,0,0,1-4.17,2.87,7.36,7.36,0,0,1-.8.06C243.2,518.34,241.87,518.1,240.55,518.12Zm5.06,31.63c0-2.31,1.23-4.21,2.82-4.26s2.92,1.77,2.95,4.08a4.54,4.54,0,0,1-1.68,3.87v4.82c0,1-.57,1.88-1.28,1.89s-1.31-.84-1.31-1.89v-4.82A4.69,4.69,0,0,1,245.61,549.75Z"/><rect class="cls-12" x="285.3" y="475.12" width="8.82" height="90.02" transform="translate(579.42 1040.26) rotate(-180)"/><path class="cls-13" d="M247.11,553.44v4.82c0,1,.58,1.89,1.31,1.89s1.28-.85,1.28-1.89v-4.82a4.54,4.54,0,0,0,1.68-3.87c0-2.31-1.35-4.13-2.95-4.08s-2.85,2-2.82,4.26A4.69,4.69,0,0,0,247.11,553.44Z"/><polygon class="cls-5" points="905.5 893.12 878.83 886.79 882.28 871.68 908.95 878.02 905.5 893.12"/><path class="cls-42" d="M922.57,897.06s4.68,5.14,3.66,8.06-13.72,5.28-17,6.09-46,11.68-50.31,12.33-27.66,2.47-31.64-2.3c0,0-6.76-8,.63-12.08s13.3-3.69,20.09-8.4a78.24,78.24,0,0,0,19.9-20.5s6.22-7.39,9.73-6.84,8.19,6.75,11.14,8,16.37,1.55,18.89-5.59,3.79-4.72,6.5-4.08,8.51,11.79,8.21,17.36A33.76,33.76,0,0,0,922.57,897.06Z"/><path class="cls-43" d="M922.57,897.06s-19.2,4.58-27.22,8.71-29.66,12-41.31,13.59-28.56-.94-28.56-.94-.84,2,4.65,4.51,21.54,2.52,35-.77,33.28-7.82,37.46-8.61,21.54-4.41,23.43-8.1C927.63,902.37,922.57,897.06,922.57,897.06Z"/><path class="cls-44" d="M896.15,905.55a32.34,32.34,0,0,1,2.1-10.74A18.33,18.33,0,0,1,903,887.4a23.5,23.5,0,0,1,5.33-3.18,54.16,54.16,0,0,1,5.48-2.36,28.88,28.88,0,0,1,5.38-1.51c.62-.09,1.43-.71.31-.54a28.58,28.58,0,0,0-4.83,1.26,52.64,52.64,0,0,0-11.25,5.12c-5.16,3.18-7.43,9.36-8.4,15.07a31.1,31.1,0,0,0-.5,4.72c0,.21,1.58,0,1.59-.43Z"/><path class="cls-44" d="M889.18,882.56a30.47,30.47,0,0,1-8.8,4.29c-3.53,1.16-7.57,1.8-10.36,4.47-2.64,2.52-4.13,6-6.85,8.47a15,15,0,0,1-6,3.52c-2.7.77-5.47.45-8.22.26l-5.42-.36c-.33,0-1.8.56-1,.61,6.38.43,13,1.58,18.81-1.72,3.8-2.16,6-5.54,8.53-9a11.34,11.34,0,0,1,3.52-3.34,34.71,34.71,0,0,1,6.76-2.36,34.65,34.65,0,0,0,10.54-5c.3-.23-.27-.23-.37-.23a1.94,1.94,0,0,0-1.06.37Z"/><path class="cls-44" d="M829.74,908.07c.12,1.31,1.44,2.11,2.6,2.36a13.67,13.67,0,0,0,4.46-.21c1.66-.23,3.33-.41,5-.48,3-.14,6.75-.15,9.32,1.73a24.7,24.7,0,0,1,5.8,6.62c.23.36,1.69-.27,1.59-.42a30.12,30.12,0,0,0-5.39-6.31c-2.17-1.92-5.4-2.21-8.17-2.25-3.26-.05-6.39.57-9.62.82-1.53.11-3.84-.37-4-2.28,0-.24-1.62,0-1.59.42Z"/><path class="cls-1" d="M874.8,882.38l0,0c.28-.41,0-1.06-.72-1.46L869.26,878c-.68-.4-1.46-.39-1.73,0l0,.05c-.27.41,0,1.06.72,1.46l4.86,2.85C873.75,882.8,874.52,882.79,874.8,882.38Z"/><path class="cls-1" d="M870.09,885.69l.1-.15c.2-.28-.13-.81-.74-1.17l-3.61-2.14c-.61-.36-1.27-.42-1.47-.14l-.1.15c-.2.29.13.82.74,1.18l3.61,2.14C869.23,885.92,869.89,886,870.09,885.69Z"/><path class="cls-1" d="M866.24,888.76l.18-.25c.18-.26-.12-.74-.66-1.06l-2.58-1.53c-.55-.32-1.14-.38-1.32-.12l-.18.26c-.18.26.12.73.66,1.06l2.58,1.53C865.47,889,866.06,889,866.24,888.76Z"/><path class="cls-1" d="M863.24,891.89l.21-.3c.2-.31-.07-.82-.62-1.14l-2.58-1.52c-.55-.33-1.17-.34-1.37,0l-.21.31c-.21.3.07.81.61,1.13l2.59,1.53C862.41,892.18,863,892.19,863.24,891.89Z"/><path class="cls-5" d="M1050.67,401.53s-6.67,44.67-3.48,54.27c.77,2.33,33.87,19,33.87,19l-76.79,16.36L975.45,469.6s27-7.94,27.76-10.72-.06-23-.06-23"/><path class="cls-45" d="M1086.83,591.88s6.81-114.67,2.68-116.81-29-13.26-29-13.26l-8.67-4.12a.5.5,0,0,1,.22.21l-.22-.21c-7.12,10.55-18.43,18.13-27.81,23-12.18,6.35-26.83-3.31-25.39-17a8.31,8.31,0,0,1,.62-2.67c-1.9.62-3.87.94-5.71,1.69s-5.35,1.77-7.4,2.4c-6,1.83-9,3.25-13.34,4.52l-5.87,24.81s-2.15,27.52-3.38,58.67c-.69,17.54,1.84,36-2,51.92-7.88,32.86-4,41.92-3.19,43.95,2.29,5.58,8.22,7.79,19.94,9.29,10.1,1.28,109,31.88,109,31.88,14.47-22.32,2.24-49.62,1.8-54.05Z"/><path class="cls-45" d="M973.08,555.24c1.31-9.47,2.25-19,2.9-28.54,1.37-20.27,4.78-38.33,4.79-58.65L972,469.81c-5.85,2.73-11.57,8.36-16.31,17.9l-20.1,49.53-19.89-31.42c-2.67-7.72-9.67-10.11-16.54-6.25l-5,2.78c-8.91,5-5.35,17.87-1.34,27.64,9.3,22.66,26.32,63.1,49.9,65,14,1.11,28.63-30.45,34.44-43.84Z"/><path class="cls-46" d="M935.55,536.36a13,13,0,0,1,5,8.2"/><rect class="cls-5" x="903.78" y="875.24" width="31.37" height="23.88" transform="translate(-134.41 164.78) rotate(-9.55)"/><path class="cls-46" d="M963.6,567.11c-.2,0,0-2.93-.2-2.92,0-13.81-.58-29.62-.49-42.07.05-4.54.08-8.22.16-10.74a34.48,34.48,0,0,1,.2-3.95,29,29,0,0,1,.24,3.95c0,2.74,0,6.29.15,10.76.05,4.23-.12,39.82-.06,45.33C963.49,567.42,963.72,567.1,963.6,567.11Z"/><path class="cls-47" d="M1013.1,540.28h-.1c0,.13-.11.26,0,.4Z"/><path class="cls-47" d="M1002.45,568.77l.1.06.08-.26Z"/><path class="cls-48" d="M982.68,531.08h.15l-.13-.1A.1.1,0,0,0,982.68,531.08Z"/><path class="cls-48" d="M1002.22,537l-.12-.11-.05.06Z"/><path class="cls-48" d="M983.11,531.17l.18.06A.12.12,0,0,0,983.11,531.17Z"/><path class="cls-48" d="M1012.67,540.17a.09.09,0,0,0-.15,0Z"/><path class="cls-49" d="M864.13,685.63c5.39,36,3.71,140.75,12.09,184.64,0,0,52.25,14.27,57.12,4.55,0,0,3.29-109.16,18.92-162.23,13.77-46.74,51.5-58.09,39.79-62.14-18.43-6.38-99-19.12-110.21-12.4C868.41,646.13,859.89,657.28,864.13,685.63Z"/><path class="cls-49" d="M889.64,708c-.17-2.79-.48-5.57-.9-8.32a114.84,114.84,0,0,0-4.43-18.3,121.65,121.65,0,0,0-7.39-17.86c-2-3.9,37.23-11.93,34.76-15.54,57.26-6.59,132.36,15.7,132.36,15.7s42.71,14.84,29.12,50.41c-18,47.15-140.89,10.82-182.93-5.85Z"/><path class="cls-50" d="M891.18,857.94C888.74,797.56,885,668.72,885,668.72l-2.26-.26,6.86,189.3Z"/><path class="cls-50" d="M885,668.72s-2.75-21.5,23.06-24.67c0,0-26.19-1.26-25.32,24.41Z"/><path class="cls-50" d="M905.3,644.06s13.24.62,35.94,3.91c22.46,3.26,22.43,3.27,32.25,4.09,0,0-62.21-9.3-68.19-8Z"/><path class="cls-45" d="M958,628.71s-5.31,3.21-7.34,7-2.13,5.67-2.13,5.67a38.68,38.68,0,0,1,6.36,2.13,98.21,98.21,0,0,0,13,4.16c3.38.81,50,10.18,62.78,17.18s44.75,18.32,44.77,30.62.54,13.33-5.18,24.31c0,0,21.55-14,22.51-45.55s-62.83-38.61-62.83-38.61l-70.47-6Z"/><path class="cls-50" d="M948.58,726.64s-1-13.87-7-22.39c0,0,9.35,10.71,9.74,23Z"/><path class="cls-51" d="M971,369.34h0c-1.41-5.4-1.94-8.73-.46-12.48,1-2.65,5.65-5.4,5.65-5.4s1-7.94,4.61-6.83c0,0,3.54-10.58,14-7.83,0,0,3.19-.8,5,1.18,0,0,5-9.1,13.94-2.76,0,0,3.49-2.22,4.65.53,0,0,6.06-5.71,12-1.07,0,0,15.19-2.95,18.88,6.56,0,0,7.37-3.7,11.15,3.29,0,0,3.81.31,3.81,5.59,0,0,5.68,1.69,6.2,5.15,0,0,3.27,2.61,3,8.13-.07,1.58-.59,1.16-1.11,3.3,3.12,6.31-1.67,7.05-1.67,7.05,4.86,5.86-1.3,13.13-1.3,13.13s2.41,4.54,1.07,7.44c-1.83,4-9.48,8.29-9.48,8.29s-1.8-10.67-1.36-17.44-5-18.57-6.87-21.13-15,2-35,2-24.12-3.6-26.51-3c-5,1.33-9.17,18.92-9,24.24s-1.51,15.36-1.51,15.36-10.66-4.56-7.79-13.49c0,0-3.5-6.45-2.13-10.33a4,4,0,0,1,1.19-2.43S968.23,372.47,971,369.34Z"/><path class="cls-5" d="M1037.92,436.88c-7.93,9.24-19.93,15.58-31.23,18.11-11.08,2.49-14.89-1.13-16.47-2.74-8.67-8.85-14.39-17.89-17.78-28.39a26,26,0,0,1-.94-9.12c.19-4.75.91-13.88.76-18.42-.41-11.56.67-22.07,6.85-31.91,12.87-20.51,44.49-20.71,56.33-15.36,13.84,6.25,20.29,19.38,21.4,33.45a38.1,38.1,0,0,1-1.08,12.89,40.79,40.79,0,0,0-4.94,7.07"/><path class="cls-52" d="M979.15,366.35s-.91.86-6.64,15c1.38-4.5,2-11.25,5.71-17.57,12.83-22.09,54.51-19.94,66.37-14.14,13.85,6.77,19.21,20.78,20.35,36,.47,6.17.81,10.1-.93,15.26-.08.06-1.15,1.22-1.15,1.22s-12.36,2.63-16.32,10.24l-.3-6.56a134.79,134.79,0,0,1-6-22.23s-.18-7.75-.12-10.09c.19-7.18-6.22-5.55-10.65-4.33a58.75,58.75,0,0,1-11.61,1.3c-7.3,0-16.56-.93-20-.84C993.09,369.75,979.15,366.35,979.15,366.35Z"/><path class="cls-53" d="M978.69,366.4a7.72,7.72,0,0,0-1.18,2.19c-2,4.22-3.75,8.58-5.5,12.91l1-.19c1.82-6.06,2.57-12.26,5.86-17.81a29.06,29.06,0,0,1,9.11-9.35c7.76-5.13,17.26-7.24,26.42-7.93a75.76,75.76,0,0,1,24.34,1.76,32.11,32.11,0,0,1,20.6,17.28,54.31,54.31,0,0,1,4.91,18.34,70.21,70.21,0,0,1,.53,10.75,23.85,23.85,0,0,1-.79,5.1,5,5,0,0,1-.75,1.85c-.26.33-.58.62-.86.93l.59-.26c-6.28,1.34-13.76,4.6-16.92,10.49l1-.23-.15-3.4a22.15,22.15,0,0,0-.15-3.16,10.58,10.58,0,0,0-.51-1.39c-.45-1.26-.86-2.53-1.26-3.8-1.44-4.67-2.62-9.42-3.62-14.21a24.59,24.59,0,0,1-.61-4.66c0-1.87-.07-3.75-.09-5.63,0-2.88.5-6.86-3-7.85-3.12-.88-6.41.6-9.44,1.19-9.6,1.87-19.23.25-28.89.11-6.66-.1-13.27-1.69-19.72-3.26-.23-.05-1.09.31-.84.37,5.68,1.38,11.57,2.86,17.43,3.23,3.84.25,7.7.29,11.54.52a99.81,99.81,0,0,0,14.57.11,49.28,49.28,0,0,0,6.4-.9c1.69-.37,3.32-.93,5-1.14,1.57-.19,3.42-.15,4.64,1s1.29,3.25,1.27,4.95c0,3.07-.14,6.24.14,9.29a54.65,54.65,0,0,0,1.62,7.66q.84,3.53,1.84,7c.5,1.75,1,3.48,1.61,5.2.27.78.67,1.58.86,2.38a15.24,15.24,0,0,1,.15,2.62l.18,4c0,.19.93-.09,1-.23,2.66-5,8.3-7.74,13.47-9.36a10,10,0,0,0,2.87-.89,5.05,5.05,0,0,0,1.7-3.14,24.4,24.4,0,0,0,.72-5.17,73.39,73.39,0,0,0-.69-11.66,59.66,59.66,0,0,0-2.13-10.32,37.75,37.75,0,0,0-10-16.82,30.39,30.39,0,0,0-12.82-7.15,66.83,66.83,0,0,0-13.21-2c-10.71-.65-21.9.43-31.94,4.4a37.7,37.7,0,0,0-13.1,8.34c-4.94,5-7.14,11.52-8.69,18.27-.36,1.58-.71,3.17-1.18,4.73,0,.16.9,0,1-.19,1.74-4.29,3.46-8.6,5.44-12.78a12.15,12.15,0,0,1,1.16-2.23C979.78,366.13,978.86,366.24,978.69,366.4Z"/><path class="cls-5" d="M1044.77,425.9c6,5.9,12.07-3.75,12.07-3.75,5.52-6.93,5.36-14.18,5-19.14s-5.77-4.76-5.77-4.76c-4.62.61-3.95,1.14-9.94,14.46"/><path class="cls-54" d="M1051.16,412.62a33.31,33.31,0,0,1,3.78-7.89,10.23,10.23,0,0,1,1.41-1.66,3.91,3.91,0,0,1,.89-.65l.18-.09s0,0,0,0,0,0,0,0l-.31-.09a5.16,5.16,0,0,1,1,1.63,10,10,0,0,1,.43,5.17c0,.35.73.24.77-.07a9.81,9.81,0,0,0-.76-6c-.24-.45-.56-1.23-1.17-1.1a3.22,3.22,0,0,0-1.26.68,10.84,10.84,0,0,0-2.26,2.65,36,36,0,0,0-3.45,7.39c-.14.39.63.34.73.06Z"/><path class="cls-54" d="M1050.63,415.32c2.78.12-1.23,6.53,1.12,6.42.6,0,1-.64,1.22-1.1a15.88,15.88,0,0,0,1.15-3.13,11.9,11.9,0,0,0,.5-3.93c-.08-1.62-.42-3.69-2-4.54-.28-.15-1,.24-.59.44,1.32.7,1.66,2.4,1.78,3.77a9.86,9.86,0,0,1-.13,3,22.77,22.77,0,0,1-1,3.42,7.3,7.3,0,0,1-.54,1.13,4.15,4.15,0,0,0-.24.34s-.09.09-.09.09.12,0,.13,0-.12-.19-.13-.23a1.26,1.26,0,0,1,0-.33,4.06,4.06,0,0,1,.11-.92c.12-.68.3-1.35.43-2,.23-1.25.26-2.83-1.38-2.9-.37,0-.79.52-.27.54Z"/><path class="cls-52" d="M1014.79,399.77a3.49,3.49,0,0,1,3.76.76,3.36,3.36,0,0,1,1,1.61,3.48,3.48,0,0,1-.89,3.15,3.22,3.22,0,0,1-3.73.57,3.58,3.58,0,0,1-1.67-4.2,3.14,3.14,0,0,1,1.55-1.89"/><path class="cls-52" d="M1007.56,405.31s4.84-6.84,9.83-6.74c7,.16,8.59,4.28,10.07,6.44,0,0-4.45-5.09-9.88-5.08C1012.65,400,1007.56,405.31,1007.56,405.31Z"/><path class="cls-52" d="M980.32,399a3.1,3.1,0,0,0-3.54.6,3.22,3.22,0,0,0-1,1.56,3.65,3.65,0,0,0,.7,3.19,2.87,2.87,0,0,0,3.46.73,3.68,3.68,0,0,0,1.73-4.12,3.19,3.19,0,0,0-1.37-2"/><path class="cls-52" d="M989,404.92s-3.91-7-8.22-7.14c-6.07-.15-7.59,3.91-8.95,6,0,0,4-4.9,8.73-4.65C984.85,399.35,989,404.92,989,404.92Z"/><path class="cls-23" d="M993.86,422.54a5,5,0,0,0,4.6-.25c.29-.17,1.26,0,.85.26a7.07,7.07,0,0,1-6.27.23c-.16-.09-.13-.22.08-.29a1.1,1.1,0,0,1,.74.05"/><path class="cls-23" d="M999.87,422.18a8.38,8.38,0,0,1,2.85-.68.67.67,0,0,1,.43.14c.08.08.1.18,0,.24a3.08,3.08,0,0,1-1.56.34.59.59,0,0,1-.48-.19c-.08-.14.08-.22.21-.22a2.35,2.35,0,0,0,1.25-.28l.43.38a7.13,7.13,0,0,0-2.54.62.6.6,0,0,1-.52-.07c-.1-.06-.21-.2-.06-.28"/><path class="cls-23" d="M1003.76,422.34a3.9,3.9,0,0,0,3.07-1.36c.86-1.29.08-3.49-1.34-4.34-.16-.09-.07-.21.08-.24a.85.85,0,0,1,.61.13,4.21,4.21,0,0,1,1.84,3.79,3.12,3.12,0,0,1-2.66,2.25,5.89,5.89,0,0,1-1.27.16.75.75,0,0,1-.57-.19c-.08-.14.08-.19.24-.2"/><path class="cls-23" d="M991.76,421.93a.15.15,0,0,0-.14-.22,1.32,1.32,0,0,1-.89-.3l-.3.37a3.91,3.91,0,0,1,1.79.66.31.31,0,0,0,.36-.05c.08-.06.16-.21,0-.28"/><path class="cls-23" d="M992.63,422.11a4.35,4.35,0,0,0-2-.73.35.35,0,0,0-.31.13.16.16,0,0,0,0,.23"/><path class="cls-23" d="M989.38,422.06a2.35,2.35,0,0,1-2-1.41,3.36,3.36,0,0,1,.92-3.68.14.14,0,0,0-.05-.24.4.4,0,0,0-.4.12,3.76,3.76,0,0,0-1.24,3.12,2.64,2.64,0,0,0,1.7,2.29,2.57,2.57,0,0,0,.82.18c.11,0,.32,0,.37-.18s0-.19-.15-.2"/><path class="cls-52" d="M1009,388c0,1.12,0,2.24,0,3.36,0,.85,0,1.7,0,2.55,2.51-.73,4.66-1.21,6.28-1.52a28.17,28.17,0,0,1,9.81-.51,10.7,10.7,0,0,1,4.24,1.53c.41.27,1.52,1.45,2.13,1.14.25-.13-.17-1.5-.21-1.64-.86-2.77-3.06-3.91-5.75-4.55A43.61,43.61,0,0,0,1009,388"/><path class="cls-52" d="M971.86,390.93a8.69,8.69,0,0,0,.52-2.08,13.75,13.75,0,0,1,1.68-.52,42.31,42.31,0,0,1,16.29-.36l0,3.36c0,.85,0,1.7,0,2.55-2.47-.73-4.58-1.21-6.17-1.52a27.38,27.38,0,0,0-9.67-.51,12.58,12.58,0,0,0-2.6.71Z"/><path class="cls-22" d="M1003.56,454.79s4.62-.3,7.84-.88,8.56.13,24.22-11c0,0-5.74,15-24.49,16.5,0,0-4.86.53-7.92-.53Z"/><path class="cls-42" d="M950.59,909.57s4.81,5,3.86,8-13.57,5.64-16.85,6.53-45.69,12.86-50,13.62-27.59,3.18-31.69-1.49c0,0-7-7.87.32-12.09s13.2-4,19.86-8.91a78.16,78.16,0,0,0,19.37-21s6-7.54,9.55-7.09,8.36,6.54,11.35,7.71,16.4,1.13,18.73-6.07,3.68-4.81,6.4-4.25,8.81,11.57,8.65,17.15A34,34,0,0,0,950.59,909.57Z"/><path class="cls-43" d="M950.59,909.57s-19.08,5.07-27,9.4-29.34,12.75-41,14.65-28.57-.2-28.57-.2-.79,2,4.77,4.4,21.59,1.95,35-1.68,33.07-8.68,37.23-9.58,21.42-5,23.21-8.69C955.78,914.74,950.59,909.57,950.59,909.57Z"/><path class="cls-44" d="M924.4,918.76A32.24,32.24,0,0,1,926.24,908a17.66,17.66,0,0,1,4.8-7.62,26.06,26.06,0,0,1,5.24-3.22,55.91,55.91,0,0,1,5.23-2.38,38.81,38.81,0,0,1,3.94-1.33l1.15-.29.25,0c.72-.12,1.33-1,.23-.82a30.32,30.32,0,0,0-4.67,1.33,51.35,51.35,0,0,0-11.22,5.47c-5.08,3.36-7.21,9.66-8,15.43a32.13,32.13,0,0,0-.36,4.7c0,.44,1.59.15,1.59-.43Z"/><path class="cls-44" d="M917,895.45a30.84,30.84,0,0,1-8.75,4.57c-3.55,1.28-7.56,2-10.31,4.81a27.11,27.11,0,0,0-3.12,4.32A23.29,23.29,0,0,1,891,913.8a15.2,15.2,0,0,1-5.64,3.32,22.88,22.88,0,0,1-8.08.59l-5.81-.24c-.8,0-1.6,1.16-.53,1.2,6.37.27,13.06,1.34,18.74-2.27,3.6-2.3,5.66-5.67,8-9.09a11,11,0,0,1,3.43-3.35,33.78,33.78,0,0,1,6.39-2.43,34.09,34.09,0,0,0,10.57-5.3c.84-.67-.42-1.29-1.07-.78Z"/><path class="cls-44" d="M858.07,923c.15,1.32,1.49,2.09,2.66,2.33a12.34,12.34,0,0,0,4.36-.27c1.63-.27,3.27-.49,4.92-.62,3-.24,6.88-.41,9.53,1.42a25.15,25.15,0,0,1,6,6.45c.28.43,1.75-.18,1.58-.42a29.72,29.72,0,0,0-5.55-6.19c-2.18-1.84-5.33-2.08-8.06-2.08a66.86,66.86,0,0,0-9.47,1c-1.57.22-4.12,0-4.36-2.06,0-.36-1.64,0-1.58.43Z"/><path class="cls-1" d="M902.45,896.13l0-.06c.26-.41-.08-1.06-.76-1.44l-4.93-2.73c-.68-.37-1.46-.35-1.73.07l0,0c-.27.42.07,1.06.76,1.44l4.93,2.73C901.41,896.57,902.19,896.54,902.45,896.13Z"/><path class="cls-1" d="M897.83,899.56l.1-.16c.19-.29-.15-.81-.77-1.15l-3.66-2c-.62-.34-1.28-.39-1.48-.09l-.1.15c-.19.29.16.81.77,1.16l3.67,2C897,899.81,897.64,899.85,897.83,899.56Z"/><path class="cls-1" d="M894.06,902.73l.18-.26c.17-.27-.14-.73-.7-1L890.93,900c-.56-.31-1.15-.34-1.33-.08l-.17.26c-.17.26.14.73.7,1l2.61,1.46C893.3,903,893.89,903,894.06,902.73Z"/><path class="cls-1" d="M891.14,905.93l.2-.31c.2-.31-.09-.81-.64-1.12L888.08,903c-.56-.31-1.18-.3-1.38,0l-.2.31c-.2.31.09.82.65,1.12l2.62,1.46C890.32,906.24,890.94,906.24,891.14,905.93Z"/><path class="cls-27" d="M998.12,430.75c5.55-.11,14.52-1.06,14.52-1.06s-1.41,13-14.27,13.22-14.79-12.63-14.79-12.63S992.58,430.87,998.12,430.75Z"/><path class="cls-55" d="M998.07,430.8c2.64-.05,13.25-.88,13.25-.88a14.43,14.43,0,0,1-12.89,8.21c-10.34.21-13.53-7.56-13.53-7.56Z"/><path class="cls-56" d="M998,431c2.63,0,10.65-.66,10.65-.66s-2.83,2.94-10.74,3.11-10.48-2.59-10.48-2.59Z"/><path class="cls-27" d="M983,429.48a19.46,19.46,0,0,0,3.13.27c2.17-.23,3.53-.84,5.11-1,2.69-.26,4.43.77,5.6.74s2.87-1.12,5.57-1c1.58.09,5.51.59,7.7.73a22.33,22.33,0,0,0,3.11-.39c.39.08-.3,2.95-15.05,3.26S982.59,429.59,983,429.48Z"/><path class="cls-49" d="M886.42,675.67A76.44,76.44,0,0,1,901.6,679a40.51,40.51,0,0,1-.37-7.58c1.08-.75,2.23-1.52,3.41-2.29a100.58,100.58,0,0,1,13.28,9.44,124.08,124.08,0,0,1,13.63,13.31,109.84,109.84,0,0,1,11,14.83Q944,709,945.2,711.3l-.49,0c11.72,24.06-.38,66.39-1.16,107.83-.7,36.38-.82,40.93.27,60.35-6.51,8.35-53.36-.49-53.36-.49C887.32,822.61,886.42,675.67,886.42,675.67Z"/><path class="cls-57" d="M935.08,481.78a8.31,8.31,0,0,1-15.78,1.27,6.62,6.62,0,0,1-9.59-8.57c-.41-11.64-19.18,4.47-19.89,10.53-.3,2.57.84,5.13,3,7.44L889,525.3a6.13,6.13,0,0,0,5.36,6.79l29.73,3.47a6.12,6.12,0,0,0,6.79-5.36l3.79-32.4c3-1.8,4.92-4.17,5.24-6.93C940.28,487.67,938.43,484.48,935.08,481.78Z"/><path class="cls-58" d="M932.64,477.42a8.31,8.31,0,0,1-15.79,1.27,6.53,6.53,0,0,1-3.26,1.15,6.62,6.62,0,0,1-6.32-9.71c-10.79.29-19.19,4.46-19.9,10.53-.3,2.57.84,5.13,3,7.44L886.55,521a6.12,6.12,0,0,0,5.37,6.78l29.72,3.48a6.12,6.12,0,0,0,6.79-5.36l3.79-32.41c3-1.79,4.92-4.16,5.24-6.92C937.84,483.32,936,480.13,932.64,477.42Z"/><ellipse class="cls-57" cx="895.58" cy="522.81" rx="1.87" ry="3.03" transform="translate(272.23 1351.55) rotate(-83.33)"/><ellipse class="cls-57" cx="899.32" cy="516.94" rx="1.04" ry="1.68" transform="translate(281.35 1350.08) rotate(-83.33)"/><ellipse class="cls-57" cx="895.05" cy="486.76" rx="1.04" ry="1.68" transform="translate(307.57 1319.17) rotate(-83.33)"/><path class="cls-21" d="M409.44,421.83s-13.17,2.52-21.18,6.37c0,0,14.25-9.2,21.32-8.4Z"/></g><g id="Layer_2" data-name="Layer 2"><rect class="cls-9" x="1144.22" y="658.2" width="22.64" height="268.11"/><polygon class="cls-8" points="1166.31 614.69 1128.71 638.96 1225.72 638.96 1225.72 614.69 1166.31 614.69"/><rect class="cls-8" x="1128.71" y="638.96" width="97.01" height="19.24"/><rect class="cls-9" x="1153.88" y="658.2" width="71.83" height="21.11"/><rect class="cls-9" x="1128.71" y="638.96" width="97.01" height="1.48"/></g><g id="Layer_3" data-name="Layer 3"><path class="cls-45" d="M1079.19,473.17c-5.49.35-11.09,2.64-14.44,6.18a63.83,63.83,0,0,0-5.9,7.87c-5.79,8.45-11.1,17.23-16.37,26q-13.17,22-25.65,44.37c-.11.2-.22.41-.34.61L965,517.46l-23.47,29.32s67.63,65.35,80.95,65.35c10.06-.1,45.18-35.38,65-66.59a91.15,91.15,0,0,0,12.93-35.32c1.55-11-.37-28.1-10.75-34.73A17.55,17.55,0,0,0,1079.19,473.17Z"/><path class="cls-46" d="M1082.83,551.81C1063,583,1033,612.29,1023,612.39c-12.33,0-71.22-56-79.88-64.33-.7-.66-1.52-1.28-1.52-1.28l23.59-29.69L1017,558.47s35-61.29,40.55-67.72l-40.08,69.09-52.26-41.4-22.52,28.32s67.73,63.84,80.36,64.06c9,.16,23.75-16.56,29.46-21.85S1082.83,551.81,1082.83,551.81Z"/><path class="cls-5" d="M952.21,533.49c2.8-3.18,8.51-10.58,8.75-10.93l-1.42-1.63a16.71,16.71,0,0,1-2.47-4.07c-1.05-2.28-6.07-5.71-7.27-6.72q-5.2-4.38-10.75-8.33c-2.72-.73-22.65-5.14-25.37-5.39-4.54-.4-5,4.41-3.46,4.81,3.34.88,15.61,4.77,15.61,4.77l-17.66-2.7-3.94-.47s-2.15-.18-2.59,1.65c-.62,2.64.53,3.82,3.06,4.73,2.74,1,23.92,5.93,23.92,5.93L904.27,513a2.45,2.45,0,0,0-2.8,2,2.34,2.34,0,0,0,0,.38c-.14,2.46,2.27,3.6,5.73,4.37a2.61,2.61,0,0,0-.73,1.14,3.61,3.61,0,0,0,2.81,4.27l.12,0c2.44.69,31.77,10,31.77,10,2.88.13,6.31,2.45,7,3.23C948.13,538.47,951,534.86,952.21,533.49Z"/><path class="cls-22" d="M938.33,507.17a5.47,5.47,0,0,1-1.4,0c-.92-.06-2.23-.17-3.86-.32-3.25-.29-7.73-.75-12.68-1.37s-9.36-1.21-12.64-1.78c-1.61-.28-2.9-.52-3.8-.73a5.13,5.13,0,0,1-1.38-.37,6.27,6.27,0,0,1,1.37.09l3.83.51,12.65,1.59,12.66,1.56,3.83.53A5.35,5.35,0,0,1,938.33,507.17Z"/><path class="cls-22" d="M934,515.51c-.06.17-6.69-.23-14.92-.93s-14.88-1.41-14.82-1.58,6.7.22,14.93.92S934,515.31,934,515.51Z"/><path class="cls-22" d="M929.24,523.84a103.13,103.13,0,0,1-11.6-1.78,99.73,99.73,0,0,1-11.48-2.45,103.28,103.28,0,0,1,11.61,1.77A97.53,97.53,0,0,1,929.24,523.84Z"/><path class="cls-5" d="M887.83,510.37a9.25,9.25,0,0,0-7.71-2.07,4.36,4.36,0,0,0-1.63,8.27,11,11,0,0,0,5.43,1.19l2.89.14a5.39,5.39,0,0,0,3.36-.57,4.38,4.38,0,0,0,.88-5.42,5.45,5.45,0,0,0-4.76-2.61"/><path class="cls-5" d="M877.21,495.85s-4.75,6.77,0,10.47,11.38,3.86,12.34,2.43,2.28-4.69-.8-5.21S877.21,495.85,877.21,495.85Z"/><path class="cls-5" d="M890.08,497.59l0-.15c-.57-.2-.78-.4-.7-1.05.27-2.3.27-3,.51-4.36.07-.44.1-1.15.18-1.59l-4-2.13c-2.33-1.07-4.63-1.52-5.76-1.07-2.25.91-3.7,4.28-3.74,7-.06,4.4,11.72,11.33,13.65,9.36a4,4,0,0,0,.63-5.12A3.62,3.62,0,0,0,890.08,497.59Z"/><path class="cls-22" d="M890.11,503.32a4.54,4.54,0,0,0,.45-.6,3.13,3.13,0,0,0,.46-1.84,4.59,4.59,0,0,0-1.11-2.58,35.43,35.43,0,0,0-2.6-2.6,65.94,65.94,0,0,1-6.7-6.88,64.85,64.85,0,0,1,7.18,6.37,25.7,25.7,0,0,1,2.62,2.7,4.65,4.65,0,0,1,1.09,3,3.06,3.06,0,0,1-.73,2C890.42,503.21,890.14,503.36,890.11,503.32Z"/><path class="cls-22" d="M890.76,502.87a1.17,1.17,0,0,1-.33.69,2.33,2.33,0,0,1-1.72.79,7.45,7.45,0,0,1-2.66-.56,16.18,16.18,0,0,1-7.62-5.78,7.37,7.37,0,0,1-1.32-2.36,26.08,26.08,0,0,0,6.22,6.06,15.68,15.68,0,0,0,2.89,1.46,8.09,8.09,0,0,0,2.49.68,2.3,2.3,0,0,0,1.57-.49A3,3,0,0,0,890.76,502.87Z"/><path class="cls-22" d="M890.11,507.62a1.19,1.19,0,0,1-.13.72,2.37,2.37,0,0,1-1.4,1.21,8.37,8.37,0,0,1-2.54.19,18.3,18.3,0,0,1-3-.37,12.69,12.69,0,0,1-5.18-2.36,5.65,5.65,0,0,1-1.7-1.77,19.38,19.38,0,0,1,1.94,1.36,14.75,14.75,0,0,0,5.06,2.07,24.52,24.52,0,0,0,3,.42,9.32,9.32,0,0,0,2.36,0,2.25,2.25,0,0,0,1.31-.87C890,507.87,890.06,507.61,890.11,507.62Z"/><path class="cls-46" d="M1062.14,485a27.94,27.94,0,0,1,26.8-8.58S1073,470,1062.14,485Z"/><path class="cls-46" d="M1016.73,558.54a21.94,21.94,0,0,1,8.85,13.46"/></g></svg>