<svg xmlns="http://www.w3.org/2000/svg" viewBox="0 0 1221.96 991.43"><defs><style>.cls-1{fill:#f2ebd1;}.cls-2{fill:#956243;}.cls-3{fill:#653c2a;}.cls-4{fill:#c08384;}.cls-5{fill:#bb997a;}.cls-6{fill:#c7e4e3;}.cls-7{fill:#a38166;}.cls-8{fill:#87654d;}.cls-9{fill:#5f6161;}.cls-10{fill:#3c803d;}.cls-11{fill:#343535;}.cls-12,.cls-24,.cls-36,.cls-38{fill:none;}.cls-12{stroke:#a38166;}.cls-12,.cls-24,.cls-36,.cls-38,.cls-40{stroke-miterlimit:10;}.cls-13,.cls-26{fill:#fff;}.cls-14{fill:#4d2f15;}.cls-15{fill:#1b120c;}.cls-16{fill:#5e5f5f;}.cls-17{fill:#853324;}.cls-18{fill:#ec9a6f;}.cls-19{fill:#0f1f37;}.cls-20{fill:#7d3539;}.cls-21{fill:#010101;}.cls-22{fill:#13110f;}.cls-23{fill:#878787;}.cls-24{stroke:#010101;stroke-width:0.9px;}.cls-25{fill:#273339;}.cls-26{opacity:0.14;}.cls-27{fill:#622515;}.cls-28{fill:#653c29;}.cls-29{fill:#31160e;}.cls-30{fill:#f1eef7;}.cls-31{fill:#18163c;}.cls-32{fill:#7c7f82;}.cls-33{fill:#383838;}.cls-34{fill:#5d6061;}.cls-35{fill:#1e485b;}.cls-36{stroke:#273238;stroke-width:1.92px;}.cls-37{fill:#e39524;}.cls-38{stroke:#5d6061;stroke-width:0.5px;}.cls-39{fill:#5f3c15;}.cls-40,.cls-41{fill:#151210;}.cls-40{stroke:#161311;stroke-width:0.37px;}.cls-42{fill:#161311;}.cls-43{fill:#231f20;}</style></defs><g id="Layer_1" data-name="Layer 1"><polyline class="cls-1" points="1221.96 991.43 1221.96 0 0 0 0 991.43"/><path class="cls-2" d="M436.05,402.67l11.41-6.79s9.78,1.92,17.11-.42a60.29,60.29,0,0,0,14.7-7.75l16.76-5s8.4,1.95,9.21-.63-2.15-4.14-5-5.65-47.36-8-47.36-8a81.62,81.62,0,0,1,11.71-7.58c6.35-3.31,6.24-8,3.55-10.86s-11.91,2.8-13.91,6.43-11.58,3.37-17.51,7.6-8.06,13.94-8.06,13.94c-2.13,2-7.92,6.58-7.92,6.58C420.73,385.1,436.05,402.67,436.05,402.67Z"/><path class="cls-3" d="M486.5,381.88a4.4,4.4,0,0,0-2-2.31c-2.34-1.32-6-1.5-9.77-.63a31.26,31.26,0,0,0-8.91,3.87,14.15,14.15,0,0,0-3.26,2.33,17,17,0,0,0,3.6-1.66,40,40,0,0,1,8.79-3.52c3.55-.83,7.07-.72,9.18.28a4.47,4.47,0,0,1,2,1.82c.33.58.42.92.46,1S486.72,382.6,486.5,381.88Z"/><path class="cls-3" d="M466,377.73c-3.61-.38-6.57-.45-6.58-.17s2.88.83,6.48,1.2,6.55.46,6.57.17S469.58,378.11,466,377.73Z"/><path class="cls-3" d="M455.6,378.37c2,2.71,2.42,5.4,2.7,5.46s.3-3.06-1.86-6.06-5.17-3.92-5.21-3.65S453.6,375.67,455.6,378.37Z"/><path class="cls-4" d="M332.56,344l43.27,90.8c7.06,12.13,11.22,24.85-1.11,31.57l-9,13c-11.17,6.09-28.19-7.06-35.45-17.5L281.76,374Z"/><path class="cls-2" d="M325.62,443.05a24,24,0,0,0-2.08,7.6Z"/><path class="cls-4" d="M362.5,416.11c.24.5-.62.63-1.11,1a24.44,24.44,0,0,0-7.67,8.79c-3.31,6.56-3.65,14.55-2.56,22.52.69,5-10.85,17.48-8.88,22.25,6.1,13.38,25.7,12,35.5,1.73l71.89-57.88L424.72,380Z"/><path class="cls-4" d="M264.39,285.47s39.85,5.89,47.2,18.56c11.17,19.24,21.32,40.61,21.32,40.61l-21.82,18.95Z"/><polyline class="cls-5" points="0.13 991.33 1222.09 991.33 1222.09 909.97 0.13 909.97"/><rect class="cls-6" x="763.43" y="79.02" width="350.31" height="830.84"/><rect class="cls-5" x="1120.74" y="73.53" width="24.17" height="837.6"/><rect class="cls-5" x="755.09" y="73.53" width="19.68" height="837.6"/><rect class="cls-5" x="755.09" y="68.45" width="389.81" height="20.73"/><polygon class="cls-7" points="915.17 61.89 1125.74 90.19 1125.74 911.13 915.17 941.75 915.17 61.89"/><rect class="cls-8" x="892.5" y="61.86" width="22.68" height="879.15"/><path class="cls-9" d="M949.63,499.8H986c2.41,0,4.36,2.94,4.36,6.55h0c0,3.62-2,6.55-4.36,6.55H949.63c-2.4,0-4.35-2.93-4.35-6.55h0C945.28,502.74,947.23,499.8,949.63,499.8Z"/><path class="cls-9" d="M949.55,514.17a7.18,7.18,0,0,1-.8-.06,5.25,5.25,0,0,1-4.18-2.87,10.59,10.59,0,0,1-.91-3.6,12.34,12.34,0,0,1,.27-4.34,5.87,5.87,0,0,1,4.2-4.14c.4-.13,5.4-.8,5.4-.43v-23.5c0-6.81-3.82-12.33-8.53-12.33h0c-4.71,0-8.53,5.52-8.53,12.33v85c0,6.81,3.82,12.34,8.53,12.34h0c4.71,0,8.53-5.53,8.53-12.34V519.94c0-2,0-4,0-6C952.19,514,950.87,514.2,949.55,514.17ZM947,549.3v4.82c0,1-.59,1.9-1.31,1.9s-1.29-.86-1.29-1.9V549.3a4.59,4.59,0,0,1-1.68-3.87c0-2.3,1.36-4.13,3-4.08s2.86,2,2.82,4.26A4.72,4.72,0,0,1,947,549.3Z"/><rect class="cls-10" x="774.77" y="830.76" width="117.73" height="78.57"/><rect class="cls-9" x="899.95" y="470.98" width="8.82" height="90.02"/><path class="cls-11" d="M947,549.3v4.82c0,1-.59,1.9-1.31,1.9s-1.29-.86-1.29-1.9V549.3a4.59,4.59,0,0,1-1.68-3.87c0-2.3,1.36-4.13,3-4.08s2.86,2,2.82,4.26A4.72,4.72,0,0,1,947,549.3Z"/><line class="cls-12" x1="755.09" y1="68.45" x2="774.77" y2="89.18"/><line class="cls-12" x1="1144.91" y1="68.45" x2="1125.4" y2="90.48"/><path class="cls-13" d="M856,177.66c-4.34-3.69-10-3.61-14.51.2-.45.38-.9.73-1.48,1.19-.39-13.39-12.1-21.91-22.81-14.83-.21-.89-.41-1.73-.62-2.56-2.86-11.53-13.89-17.46-23.18-12.29-1.66.92-2.44.6-3.65-.85a26.3,26.3,0,0,0-15-9.29v64.16H801c16,0,31.94,0,47.91,0,5.53,0,10.1-4,11.69-10A15.49,15.49,0,0,0,856,177.66Z"/><path class="cls-13" d="M892.49,304.51c-13,0-28,0-41,0-5.53,0-10.1-4-11.69-10a15.51,15.51,0,0,1,4.51-15.72c4.35-3.69,10-3.61,14.51.2.45.38.91.73,1.48,1.19.39-13.39,12.1-21.92,22.81-14.84.21-.88.41-1.72.62-2.56a19.19,19.19,0,0,1,8.31-11.9"/><path class="cls-10" d="M774.77,816.57a970.44,970.44,0,0,1,117.72-8.79v31.81H774.77Z"/><path class="cls-2" d="M280.44,889.77l36.79,19.09c2.71,2.29-34,22.73-70.36-9.58l4.08-9.94Z"/><path class="cls-14" d="M343.91,924.86s1.93-4.9-1.93-6.41-24.49-11.52-26.58-11.12c0,1.48-1.86,3.44-6.3,4.77s-9.37,3-20.74.85c-8.53-1.63-26.06-4.6-33.77-9.09-2.58-1.5-6.31-6.55-6.47-7.29-9,10.26-6.29,21.14-2.19,23.82s28.31,4.47,28.31,4.47L295.68,930l20.23.95,8.51-.19,10.2-1.51Z"/><path class="cls-15" d="M244.88,919.35c2.64.91,11.09,2.34,18.33,2.48,19.44.4,26,2.88,32.54,4.88a82.58,82.58,0,0,0,11.54,2.86c22.68,3.84,35.94-4.39,36.4-4.72a2.16,2.16,0,0,1,.61,1.1,17.83,17.83,0,0,1-4.69,3.09c-6.4,2.87-15.55,6.17-33.12,3.55-5-.74-8-1.1-11.27-2.1a81.69,81.69,0,0,0-20.93-3.84l0,3.3s-20.62.77-29.92-3.24C243.74,921.64,244.88,919.35,244.88,919.35Z"/><path class="cls-15" d="M244.2,923.75c12.37,3.19,25.82,3.28,30.1,3.3l0,2.9s-20.62.77-29.92-3.24A24.39,24.39,0,0,1,244.2,923.75Z"/><g id="freepik--character-1--inject-1332"><path class="cls-2" d="M185.75,849s3.07,43.16,2.88,45.69l20.72,5.81,8.84-5.27,8.94-46.27Z"/></g><path class="cls-2" d="M218.26,893.2,255,912.29c2.72,2.28-33.94,22.72-70.35-9.59l4.08-9.93Z"/><path class="cls-14" d="M281.73,928.29s1.93-4.91-1.94-6.41-24.49-11.52-26.57-11.13c0,1.49-1.86,3.44-6.3,4.78s-9.37,3-20.74.85c-8.53-1.64-26.07-4.61-33.77-9.1-2.58-1.5-6.31-6.55-6.47-7.29-9,10.26-6.29,21.15-2.19,23.83s28.31,4.47,28.31,4.47l21.44,5.11,20.23,1,8.51-.19,10.2-1.51Z"/><path class="cls-15" d="M182.7,922.78c2.63.91,11.09,2.33,18.33,2.48,19.43.39,26,2.87,32.54,4.87A81.38,81.38,0,0,0,245.1,933c22.69,3.85,36-4.38,36.41-4.72a2.2,2.2,0,0,1,.61,1.1,17.83,17.83,0,0,1-4.69,3.09c-6.4,2.88-15.55,6.17-33.13,3.55-5-.74-8-1.1-11.26-2.1a81.89,81.89,0,0,0-20.93-3.83l0,3.29s-20.62.77-29.92-3.24C181.56,925.06,182.7,922.78,182.7,922.78Z"/><path class="cls-15" d="M182,927.18c12.37,3.19,25.82,3.27,30.09,3.3l0,2.89s-20.62.77-29.92-3.24A22.26,22.26,0,0,1,182,927.18Z"/><path class="cls-2" d="M246.94,867.06s3.88,23.18,3.7,25.71l6.83.82h25.58l4.37-24.82Z"/><path class="cls-9" d="M252.59,495.35,216.25,497c-2.4.11-4.21,3.13-4.05,6.74h0c.16,3.62,2.25,6.46,4.65,6.35l36.33-1.66c2.4-.11,4.22-3.12,4.05-6.74h0C257.07,498.08,255,495.24,252.59,495.35Z"/><path class="cls-9" d="M249.35,509.68c.07,2,.17,4,.26,6l1.13,24.79.7,15.44c.31,6.8,4.38,12.15,9.09,11.93h0c4.7-.21,8.27-5.9,8-12.71l-3.87-84.89c-.3-6.8-4.37-12.14-9.08-11.93h0c-4.71.22-8.27,5.9-8,12.71l1.07,23.48c0-.38,5,.06,5.41.17a5.89,5.89,0,0,1,4.38,3.95,12.05,12.05,0,0,1,.46,4.33,10.12,10.12,0,0,1-.74,3.63,5.26,5.26,0,0,1-4,3.06,7.25,7.25,0,0,1-.8.09C252,509.78,250.67,509.61,249.35,509.68Zm6.5,31.37c-.14-2.3,1-4.26,2.62-4.38s3,1.64,3.13,3.94a4.61,4.61,0,0,1-1.5,3.95l.22,4.81c.05,1-.49,1.9-1.2,2s-1.35-.79-1.39-1.83l-.22-4.82A4.69,4.69,0,0,1,255.85,541.05Z"/><rect class="cls-9" x="289.81" y="461.93" width="8.82" height="90.02" transform="matrix(-0.99, 0.15, -0.15, -0.99, 660.67, 964.38)"/><path class="cls-11" d="M257.05,546.22l.72,4.77c.15,1,.86,1.78,1.57,1.68s1.15-1,1-2.07l-.72-4.76a4.61,4.61,0,0,0,1.08-4.09c-.38-2.27-1.95-3.88-3.52-3.59s-2.53,2.36-2.16,4.63A4.72,4.72,0,0,0,257.05,546.22Z"/><path class="cls-16" d="M192.63,162.24c3.45-5,8.87-8.35,14.67-6.85-.37-11.29,10.5-18.07,21.8-18.51,5.8,0,11.79,2.59,17.25.61,3.4-1.22,6-3.93,8.85-6.2,12.13-9.19,31.45,1.13,41.94,12.17s8.06,23.51,2.91,37.83c-2.39,6.66-2,10.26-2.64,17.36-.63,6.69-4.55,19.16-4.55,25.8s10.44,13.48,3.74,14.07l-73-7.82c-10.82,2.25-17.78-.95-23.43-10.45-3.68-6.45-2.48-6.76-3-14.15-1-9.67-10.87-16.84-10.4-26.54C186.82,173.47,189.48,167.46,192.63,162.24Z"/><path class="cls-17" d="M183.57,161.93s25.09-12.77,57.67-9.51,48.67,23,54.5,37.28-.06,29.33-.06,29.33,8.16,2.12,13.25-27.22c7.44-42.76-36.45-68-47-67.79S197.52,114,183.57,161.93Z"/><path class="cls-2" d="M212.34,236.25S211.41,262,204.67,280c-.94,2.51-16.82,12.21-16.82,12.21l23.55,7.67c13.23,2.94,47.06,15.61,59.77,10.93L278,294.38s-14.07-6.74-14.74-9.82S264.8,258,264.8,258"/><g id="freepik--character-2--inject-1332"><path class="cls-18" d="M207.84,326.63a25.75,25.75,0,0,0-2.86-2.56,13.82,13.82,0,0,1-4.91-7.32c-.34-1.7-.24-3.44-.6-5.06a5.42,5.42,0,0,0-2.26-3.65,3.37,3.37,0,0,0-2.88-.34c-.67.28-.87.65-.85.67a6,6,0,0,1,1-.37,3.26,3.26,0,0,1,2.48.52,5.09,5.09,0,0,1,1.81,3.33c.3,1.48.18,3.22.53,5.06a11.06,11.06,0,0,0,2.3,4.62,20.05,20.05,0,0,0,3.07,2.9A15.3,15.3,0,0,0,207.84,326.63Z"/><path class="cls-18" d="M216.61,319.56a37.94,37.94,0,0,0-4.15-3,24.25,24.25,0,0,1-8.1-8.85,13.06,13.06,0,0,1-1.05-3.22,21.48,21.48,0,0,1-.27-3.2,6.92,6.92,0,0,0-2-5.27,3,3,0,0,0-2.2-.75,3,3,0,0,0-1.6.53c-.77.61-.76,1.24-.74,1.22a2.09,2.09,0,0,1,.9-.94,2.73,2.73,0,0,1,3.19.36,6.57,6.57,0,0,1,1.6,4.87,21.59,21.59,0,0,0,.24,3.31,13,13,0,0,0,1.11,3.45,22.7,22.7,0,0,0,8.48,9c1.34.86,2.45,1.5,3.23,1.93A4.35,4.35,0,0,0,216.61,319.56Z"/></g><g id="freepik--character-1--inject-1332-2" data-name="freepik--character-1--inject-1332"><path class="cls-19" d="M309.47,876.54,335.18,597l-13.86-83.72H151.24l-17.59,80.54,35.13,286.36s54.56,3.58,74.76,3.58S309.47,876.54,309.47,876.54Z"/><path class="cls-4" d="M339.6,510.39c-4.51-33.55-5.54-34-5.54-34l-3.18-15.87-3.29-58.16c3-15.17,8.62-26.35,4.75-32.46l-29.9-64.12L271.65,290.1c1.28,2.27,10.21,13.62-12.7,19.73l-5.65.1c-29.57-1.21-52.44-30.19-52.44-30.19L175.34,291,157.06,437.3s-24.9,62.54-26.05,90.54c-1.41,34.36-.52,68.9-.09,103.28,0,3.28,46.41,8.27,51.11,8.74a373,373,0,0,0,53.16,1.46c34.84-1.53,68.43-9.67,102.32-16.55C337.51,624.77,344.1,543.93,339.6,510.39Z"/></g><path class="cls-2" d="M152.25,457.8c-4.51-.22-13.08-2.08-17.59-2.22-9.74-.31-16.85-2.78-26.59-2.48l31.28,95.6,22-8.2Z"/><path class="cls-20" d="M337.35,382.59c-.87-5.08-3-9.94-5-14.7q-3.16-7.9-7-15.51c-5.3-10.51-11.38-20.6-17.69-30.53-3-4.77-6.12-9.51-9.21-14.24,5.13,9.05,9.81,18.36,15.17,27.29,5.5,9.14,10.75,18.06,15,27.87,5,11.57,8,16.58,6.8,27S325.59,414,325.59,414l1.12.69S339.05,392.5,337.35,382.59Z"/><path class="cls-3" d="M263.25,278.09s-5.43-.87-9.19-1.91-10.16-.79-27.48-15.71c0,0,5.13,18.4,27.19,22.26,0,0,5.7,1.17,9.44.24Z"/><path class="cls-2" d="M282.19,166.06l.23.19a3.84,3.84,0,0,1-.22-.39Zm9.28,2.67c.12.13.27.27.42.41V169S291.49,168.52,291.47,168.73Zm-67.22,89.64c8.13,9.73,21.14,20.35,35.13,20.88,5,.19,10-2,13.73-5,5.61-4.51,11.52-9.08,15.85-14.56a42.73,42.73,0,0,0,8.21-14.9c2.22-6.54,2.34-8.3,2.13-15a67.14,67.14,0,0,1,.48-10.38c.51-3.28,3-16.18,3.88-23.79s-4.05-22.51-4.05-22.51c-.27-2.1-3.2-1.24-4.18-3l-.9-.07a.88.88,0,0,1,.38.86,7.06,7.06,0,0,1-3-1.75v0c-1.4.5-2.7-.23-3.73-1.36,0,.2.17.64.4.66a4.56,4.56,0,0,1-3.5-1.55c0,.21.18.64.16.85a8.45,8.45,0,0,1-2.79-1.53c.19.29,5.33-.07,5.32.08-1.37.09.13.67-.9-.46l-1-.86c-1.14.11-1.16.79-2-.11.21.23-.42-2.33-.44-2.12-1.35-.11-1-.17-2.05-.89,0,.21-3.79,1-3.8,1.24-1.13-.1-.92,1-1.75.05.21.23.89-.79,1.09-.57-1.36.1-1.94.92-3-.21.21.23-4.25-2.64-4.25-2.64-1.37.09-1.17.53-2.23-.39.42.45-6.19-.92-6-.48-1.12-.1,1.79,4.3.95,3.6,0,.21-2.54-.84-2.54-.84-1.14.11.46,1.29-.37.39,0,.2.16.84.38.86a4.61,4.61,0,0,1-4.22-1c.42.45.61.88.82,1.11-1.13-.1-2,0-3.1-.89,0,.2.38.86.61.88a4.45,4.45,0,0,1-3.57-.72c0,.21.4.66.61.88a3.17,3.17,0,0,1-2.66-.64l.6.88c-.9-.07-1.61.28-2.92-.25,0,.21.41.46.4.66a8.25,8.25,0,0,1-2.24-.4c0,.21.62.68.4.66-.9-.08-1.61.28-2.7-.23.21.23.4.66.61.88a5.91,5.91,0,0,1-2.68-.43,1.51,1.51,0,0,0,.38.86c-.9-.08-1.61.28-2.7-.23,0,.21.4.66.6.88a12.27,12.27,0,0,1-2.7-.23c0,.21.42.45.63.68a7.37,7.37,0,0,1-2.91-.46c0,.41.17.64.15.85-.67-.06-1.1-.31-1.77-.36l-1.16.31c-3.5,3.86-15-.48-15-.48-7.44,5-.54,34.28-.65,38.21s-2.43,4.85-2.43,4.85c-1-1.54-2.74,2.61-3.27.9-.55-1.5.06-3.32-.5-4.82-1.74-3.47-6.32-2.83-9-1l-.47.65c-3.84,4.37-1.31,19.19.88,23.71,0,8.83,7.35,14.08,12.21,8.11l.93,3.52"/><path class="cls-21" d="M271.53,240a6.48,6.48,0,0,1-5.83-.87c-.35-.26-1.6-.14-1.11.22a9.06,9.06,0,0,0,7.94,1.05c.22-.09.2-.25-.06-.36a1.39,1.39,0,0,0-.94,0"/><path class="cls-21" d="M263.91,238.82a10.56,10.56,0,0,0-3.53-1.21.88.88,0,0,0-.57.13c-.11.09-.14.21,0,.3a3.94,3.94,0,0,0,1.94.62.77.77,0,0,0,.63-.18c.13-.16-.07-.29-.24-.3a3.17,3.17,0,0,1-1.56-.51l-.59.43a9.4,9.4,0,0,1,3.16,1.08.79.79,0,0,0,.67,0c.13-.07.29-.24.1-.35"/><path class="cls-21" d="M259,238.55a5.05,5.05,0,0,1-3.74-2.09c-.94-1.74.29-4.27,2.2-5.16.21-.1.12-.26-.08-.32a1.12,1.12,0,0,0-.79.1,5,5,0,0,0-2.77,4.4c.1,1.46,1.41,2.59,3.11,3.16a7.89,7.89,0,0,0,1.6.36c.22,0,.63,0,.75-.17s-.07-.26-.28-.28"/><path class="cls-21" d="M274.26,239.49a.19.19,0,0,1,.21-.26,1.69,1.69,0,0,0,1.16-.27c.12.17.23.34.35.5a5.16,5.16,0,0,0-2.36.62.42.42,0,0,1-.46-.11c-.09-.09-.17-.28,0-.36"/><path class="cls-21" d="M273.14,239.61a5.66,5.66,0,0,1,2.63-.68.5.5,0,0,1,.38.21.2.2,0,0,1,0,.29"/><path class="cls-21" d="M277.27,240A3,3,0,0,0,280,238.4a4.24,4.24,0,0,0-.74-4.75.18.18,0,0,1,.1-.3.55.55,0,0,1,.49.2,4.75,4.75,0,0,1,1.21,4.09,3.38,3.38,0,0,1-2.43,2.69,3.92,3.92,0,0,1-1.07.13.55.55,0,0,1-.46-.27c-.05-.18.09-.25.22-.24"/><path class="cls-22" d="M289.3,212.58a3.51,3.51,0,0,1,3.62.92,3.42,3.42,0,0,1,.67,1.57,3.27,3.27,0,0,1-1,2.9,3,3,0,0,1-3.52.31,3.36,3.36,0,0,1-1.31-4,3,3,0,0,1,1.56-1.68"/><path class="cls-22" d="M277.8,215.79s6.48-4.26,9.62-4.31c4.57-.06,9.94,2.93,11.35,5.32,0,0-7.07-4.39-10.29-4.25S277.8,215.79,277.8,215.79Z"/><path class="cls-22" d="M251.44,209.81a4.27,4.27,0,0,0-4.1-.09,3.23,3.23,0,0,0-1.07,1.4,3.27,3.27,0,0,0,.51,3,3,3,0,0,0,3.42.9,3.34,3.34,0,0,0,2-3.74c0-.25.24-.7-.72-1.31"/><path class="cls-22" d="M259,213.83s-6.48-5-9.85-5.34c-4.91-.56-11,1.82-12.83,4,0,0,8.11-3.59,11.56-3.1S259,213.83,259,213.83Z"/><path class="cls-23" d="M280.13,199.47l-.18,2.76-.12,2.11c2.39-.44,4.43-.69,6-.84,3.25-.32,4.91-.47,6.76,0a17.46,17.46,0,0,1,4.17,1.64,10.91,10.91,0,0,1,2.17,1.33c1.51,1.25,2.06,2.59,2.33,2.49s-.07-1.25-.1-1.36a10.81,10.81,0,0,0-3.05-4.9,12.73,12.73,0,0,0-4.21-2.28c-1.81-.59-6.89-1.27-13.73-.91"/><path class="cls-23" d="M262.89,197.71c-.13.91-.27,1.83-.4,2.74-.11.7-.21,1.4-.32,2.09-2.45-.95-4.57-1.64-6.17-2.12-3.39-1-5.13-1.54-7.19-1.51a20.22,20.22,0,0,0-4.79.68,13.22,13.22,0,0,0-2.6.84c-1.86.89-2.74,2.07-3,1.92s.34-1.2.4-1.31a10.94,10.94,0,0,1,4.29-4.12,14.42,14.42,0,0,1,5-1.31c2.06-.19,7.62.26,14.83,2.1"/><path class="cls-24" d="M209.77,221.63c-4.73-11.87-8.27-12-8.27-12s-2.45,2.67-1.39,8.15"/><path class="cls-24" d="M207.91,222.65c-3.16-.38-.86,5.61-1.77,7s-2-2.36-2.28-6.85c0,0,.13-6,3.16-7.09"/><path class="cls-3" d="M256.88,183.62s7.68,4,15.55,4S290,186.51,290,186.51"/><path class="cls-20" d="M331.26,404.45c1.4-2.29,2.42-3.85,2.42-3.85S332.62,402.06,331.26,404.45Z"/><path class="cls-20" d="M331.24,463.67c.51.58,1,1.17,1.49,1.76-3.77-18.36-7.48-38.06-7.23-43.45.31-6.79,3.46-13.48,5.76-17.53-2.82,4.62-7.18,12.22-7.85,16.05-.5,2.91,3.24,23.18,7,42.47A4.18,4.18,0,0,1,331.24,463.67Z"/><path class="cls-23" d="M295.4,163.94c-.09-.14.05.06,0,0-1.93-2.77-3.15-5.71-5.21-8.39s-4-5-6.15-7.51c-.12-.14-2.7-.23-2.83-.38l-.13-.15-.21-.24-.49-.53a59.14,59.14,0,0,0-40.29-2.27,49,49,0,0,0-32.87,61c.67,2.22-.68,4.9,1.49,6.16s2.42.65,4.49-.77a16.21,16.21,0,0,0,4.64-5.78c5.7-10.66,7.17-27.67,4.71-39.49,1.42,2.23,11.4,0,13.6,1.45a19,19,0,0,0,26.32-5.26,30.62,30.62,0,0,0,3,3.72c10,10.57,23.18,15.76,34.24,8.4C300.11,173.65,296.61,165.7,295.4,163.94Z"/><path class="cls-25" d="M233.29,206.91l1.09,4.29A60.71,60.71,0,0,0,237.93,223c1.39,2.57,18.58,4.75,22.11,3s6.14-11.47,7.21-13.69l6.88.88c.4,3,1.88,12.53,3.09,13.89s9.16,1.7,10,1.74,1.79.06,2.92.05c3,0,6.68-.25,7.87-1.27,1.78-1.53,4.06-7.67,6.05-13.49l.32-.91c.07-.22.15-.37.16-.44h0l.36-1c-9.6-5.46-22.7-5.61-31-.36l0,.11-6.7-.9c-7.24-5.6-20.19-9.3-29.86-6.33h0L207.84,207l-.27,2.58Zm44.82,19.24c-.77-.85-2-7.53-2.79-12.72,7.24-4.43,19.05-4.27,27.66.1v.13c-1.07,3.13-3.91,11.43-5.66,12.93-2.07,1.76-17.86.91-19.21-.41ZM240,222.39a88.27,88.27,0,0,1-4.63-15.28c8.65-3.2,23.07,0,30.15,5.31-1.49,4-3.51,11.15-6.05,12.38-3.64,1.79-18.61-.78-19.47-2.41Z"/><path class="cls-26" d="M278.28,226c-.76-.85-2-7.53-2.78-12.73,7.24-4.42,19.05-4.26,27.66.11v.13c-1.07,3.12-3.92,11.43-5.66,12.93-2.08,1.76-17.86.9-19.21-.41Z"/><path class="cls-26" d="M240,222.39a88.27,88.27,0,0,1-4.63-15.28c8.65-3.2,23.07,0,30.15,5.31-1.49,4-3.51,11.15-6.05,12.38-3.64,1.79-18.61-.78-19.47-2.41Z"/><path class="cls-27" d="M194.4,210.37s-24.56-17.81-15.2-36.94c1.8-3.67,2-2.46,2.1-5.64.56-16.64-5.26-12.67,19.11-32.13s28-19.13,65.16-16.35c19.19,1.43,29.69,9.45,34.93,21.6a58.73,58.73,0,0,1,4.19,18.68s-39.2-11.18-62.55,1.41-47.86,53.58-42.87,66.72C200.66,231.41,194.4,210.37,194.4,210.37Z"/><path class="cls-17" d="M179.26,192.17s33.27-48.47,77.62-49.95c0,0-54.78-5.86-79,33.27l-.36,4.59a25,25,0,0,0,.79,8.52Z"/><path class="cls-20" d="M365.79,413.68s-9.6,5.91-12.63,15.37a19.51,19.51,0,0,1,12.3-16.76Z"/><polyline class="cls-20" points="170.27 524.39 159.71 528.24 160.16 529.78 170.77 525.93 170.11 523.89"/><path class="cls-4" d="M96.91,431.48l65.37,21.31,12.83-81.11,11-84.61s-40,10.68-52.55,34.29S95.23,413.8,96.5,428C96.61,429.18,96.75,430.33,96.91,431.48Z"/><path class="cls-4" d="M153.74,445.48l.31-.28-52.76-37.26c-25.89,55.91,25.22,131.23,25.22,131.23l41-13.89Z"/><path class="cls-20" d="M191.43,329.86c1.59,10-34.32,96.21-39.15,108.13.6,0,1.1,2,1.7,2,3.66-9.32,34.66-86.83,38.81-102.23,4.46-16.55-12.48-33.22-12.48-33.22C191.76,321.27,191.43,329.86,191.43,329.86Z"/><path class="cls-20" d="M154.3,439.41c-.68-.45-1.35-.91-2-1.38l16.47,87.22,2,.36Z"/><path class="cls-28" d="M264.81,249c-6.71-.66-17.5-2.55-17.5-2.55s.66,14.12,16.21,15.65,19-12.19,19-12.19S271.52,249.68,264.81,249Z"/><path class="cls-29" d="M264.87,249c-3.19-.31-16-2.14-16-2.14s3.53,7.81,15.06,8.94c12.51,1.23,16.9-5.69,16.9-5.69Z"/><path class="cls-30" d="M265,249.55c-3.19-.32-12.84-1.84-12.84-1.84s3.14,4,12.71,4.95,12.95-2.32,12.95-2.32Z"/><path class="cls-28" d="M283.28,249c-.33-.12-2.25.34-3.82,0-2.62-.5-4.2-1.39-6.1-1.73-3.24-.58-5.44.56-6.86.42s-3.37-1.69-6.66-1.75c-1.93,0-6.73.23-9.4.21-1.59,0-3.39-.84-3.74-.79s.08,3.79,17.93,5.55S283.74,249.14,283.28,249Z"/></g><g id="Layer_3" data-name="Layer 3"><path class="cls-31" d="M666.7,358.6a68.24,68.24,0,0,0,11-5.59c7.27-4.3,76.94-11.75,85.92-9.2s18.94,11.43,24.51,20.83S829.33,471.16,829.33,491s-.88,36.5-15.82,37.37S666.7,358.6,666.7,358.6Z"/><path class="cls-2" d="M632.76,489.74a49.54,49.54,0,0,0,6-6.53,44.35,44.35,0,0,0,5-7c3.12-6,1.8-8.31,3.33-14.81-6-6.77-25.85-29.08-37.78-41.19a256.79,256.79,0,0,1-22.89-26.43l-9.5,17.12s19.83,42,29.66,55c11.63,15.4,16.39,20,24.95,24.78C632,490.32,632.33,490.12,632.76,489.74Z"/><path class="cls-2" d="M645.19,410.33l-20.79,39.6c1.53,3.77,3.45,7.36,5,11.1,1.75,4.13,4.25,3.87,4.38,8.4.08,3.18,0,6.4-.18,9.56-.14,2.55-3.56,7.24-2.82,10.51a2.28,2.28,0,0,0,1.61,1.65c8.25,2.4,13.27-1.19,19.6-9.31,6.67-8.53,20.14-43.12,20.14-43.12Z"/><path class="cls-3" d="M628.57,441.17s7.48,6.92,8.66,13.05C637.46,453.86,633.81,439.44,628.57,441.17Z"/><rect class="cls-2" x="704.53" y="877.93" width="28.3" height="17.03" transform="translate(50.04 -38.33) rotate(3.17)"/><path class="cls-32" d="M742.37,912.47s4.08,5.53,2.72,8.26-14.23,3.64-17.61,4.06-47.07,6.28-51.42,6.44-27.8-.66-31.21-5.76c0,0-5.81-8.6,2-11.71s13.64-2.12,20.93-6A77.73,77.73,0,0,0,689.88,890s7-6.51,10.45-5.59,7.38,7.5,10.18,9,16.1,3.33,19.41-3.35,4.31-4.18,6.93-3.26,7.13,12.44,6.2,17.84A32.47,32.47,0,0,0,742.37,912.47Z"/><path class="cls-33" d="M742.37,912.47s-19.61,2.34-28,5.47-30.85,8.4-42.63,8.67-28.29-4.09-28.29-4.09-1.06,1.86,4.12,4.93,21.13,4.84,34.92,3.13,34-3.94,38.23-4.25,21.92-1.91,24.21-5.29C746.8,918.21,742.37,912.47,742.37,912.47Z"/><path class="cls-34" d="M715,917.84a31.91,31.91,0,0,1,3.14-10,18,18,0,0,1,5.65-6.87,23.85,23.85,0,0,1,5.56-2.46,55.48,55.48,0,0,1,5.69-1.68,30.63,30.63,0,0,1,5.75-.94c.51,0,1.55-.8.58-.77a29,29,0,0,0-4.9.68,50.47,50.47,0,0,0-12,3.88c-5.31,2.62-8.28,8.3-9.89,13.76a30.61,30.61,0,0,0-1,4.55c-.07.53,1.39.26,1.45-.2Z"/><path class="cls-34" d="M711.09,894.47a31.06,31.06,0,0,1-8.93,3.15c-3.73.79-7.86.92-11.07,3.22-3,2.12-4.88,5.41-7.87,7.57a15.26,15.26,0,0,1-6.66,2.8c-2.81.41-5.53-.18-8.28-.68l-5.35-1c-.4-.07-1.69.57-.91.71,6.37,1.14,12.86,3.05,19.07.21,3.8-1.74,6.31-4.69,9.11-7.66a10.61,10.61,0,0,1,4.12-2.92,45.43,45.43,0,0,1,6.95-1.47A34.61,34.61,0,0,0,712,894.8c.84-.49-.46-.58-.87-.33Z"/><path class="cls-34" d="M648.9,913c0,1.42,1.38,2.35,2.58,2.68a14.79,14.79,0,0,0,4.15.2c1.71,0,3.42,0,5.12.1,3,.21,6.59.59,9,2.64a23.26,23.26,0,0,1,5.1,7.17c.2.39,1.59-.1,1.45-.39a27.39,27.39,0,0,0-4.82-6.94c-1.95-2-5-2.58-7.69-2.92-3.21-.41-6.38-.15-9.59-.26-1.52,0-3.85-.73-3.8-2.67,0-.27-1.44-.07-1.45.39Z"/><path class="cls-1" d="M696.52,892.85l0,0c.33-.37.08-1-.55-1.51l-4.5-3.32c-.63-.46-1.4-.54-1.73-.17l0,0c-.32.37-.07,1,.56,1.51l4.5,3.32C695.43,893.14,696.2,893.22,696.52,892.85Z"/><path class="cls-1" d="M691.46,895.56l.13-.13c.23-.26,0-.82-.61-1.24l-3.35-2.48c-.56-.42-1.21-.55-1.44-.3l-.12.14c-.23.26,0,.81.6,1.23l3.35,2.49C690.58,895.69,691.23,895.82,691.46,895.56Z"/><path class="cls-1" d="M687.29,898.13l.21-.23c.21-.23,0-.73-.54-1.11L684.57,895c-.51-.38-1.09-.5-1.3-.27l-.21.23c-.21.23,0,.73.54,1.11l2.39,1.78C686.5,898.24,687.08,898.36,687.29,898.13Z"/><path class="cls-1" d="M684,900.84l.24-.27c.24-.27,0-.8-.48-1.18l-2.4-1.77c-.5-.37-1.12-.46-1.36-.18l-.24.27c-.24.27,0,.8.49,1.18l2.39,1.77C683.1,901,683.71,901.12,684,900.84Z"/><polygon class="cls-2" points="775.56 909.42 747 909.07 750.05 888.43 778.05 892.57 775.56 909.42"/><path class="cls-2" d="M747.51,298.09s-3.38,37.13.41,46.38c.92,2.24,17.36,11.84,17.36,11.84L723.4,372.5l-52.9-12.39s27.61-10.33,28.31-13.11.63-24.9.63-24.9"/><path class="cls-35" d="M794.32,565.64l2.58,18.46a161.05,161.05,0,0,1-.32,46.66l-15,97.72s3.74,59.95,6.1,93.87c2.07,29.41-3.88,73.37-3.88,73.37l-49.5-1.29-26.4-160.24L712.78,624l-16.72-55.7Z"/><path class="cls-35" d="M659.92,572.15l-.08,163.66a67.45,67.45,0,0,0,4,24.05l34.6,118.49,2.1,7.82,29.76-6.41L715.93,565.64Z"/><path class="cls-36" d="M734.29,894.43l-26.4-160.24L712.78,624"/><path class="cls-37" d="M808.9,374.36c-2.93-6.16-19-14.11-25.22-16.94C767.49,350.08,749,343.81,749,343.81c-16.6,24.94-47.28,29.72-54.35,3.5l-13.89,7.24L669,359.67c-.06,0-23.61,11.49-30.18,32.63C630.92,417.77,623,432.35,623,432.35s9.38,8.38,28.51,15c5.56,1.74,7.08,1.82,9.52,2.95l2.39,13.33c.29.6-1.52,37.71-1.52,38.52-.06,14.22-3.39,28.36-3.76,42.56-.23,8.83-.14,17.88-1.81,26.59,3.56,3,4.83,4.93,11.39,8.12,9.26,4.5,17.93,5.24,28.36,6.54,0,0,66.31-.1,91.27-8.7,2.33-.81,12.76.14,14-1.73s-5-16.41-4.87-18.83q.21-6.12.36-12.25c.71-30.43-9.12-69.82-11.53-89.1l17.79-6.62,18.49-16c-1.11-6.45-2.14-11.94-3.13-16.7C814,394.66,815.51,388.26,808.9,374.36Z"/><path class="cls-2" d="M818,443.67,799,450.14l-18.22,6.45,11.19,45.33L790.1,510a100.57,100.57,0,0,0-2.51,21.52L787,586.44l16,4.11s18.6-79,19.65-92.07C823.21,491.52,821.63,465.69,818,443.67Z"/><path class="cls-2" d="M772,646a102.83,102.83,0,0,1,11-10.48l4.5-13.24L786,615.42l-3.39-.28S781,632.71,778,635.53s-4.37,2.72-4.37,2.72l-2.18-4.17,4.81-25.79s3.71-10.87,4.9-13.35a52.25,52.25,0,0,1,4.84-6.72l1.31-13h19.21c-.89,3.53-1.78,12.36-3,16.36l.4,27.8L797.51,631l-8,10.14-18.6,10.71S768.43,650.4,772,646Z"/><path class="cls-2" d="M180.2,605A121.26,121.26,0,0,0,166,594.62l-5.76-13.22,2.07-6.89,4.4-.3s2,17.56,5.78,20.36,5.67,2.69,5.67,2.69l2.86-4.18-6.08-25.76s-4.74-10.85-6.27-13.32a54.49,54.49,0,0,0-6.25-6.69l-2.68-19.08-24,9.13c1.14,3.51,2.34,9.48,3.93,13.48l-.7,27.81,8.25,11.51,10.29,10.09,24.1,10.58S184.84,609.38,180.2,605Z"/><path class="cls-38" d="M686.08,924.94c1.44-2.11,2.59-6.08,7.77-5.74,11.87.78,18.93-2.12,27.24-7.5a168.52,168.52,0,0,0,17.31-13.24"/><path class="cls-32" d="M785.93,928.2s3.54,5.87,1.94,8.47S773.36,939,770,939.13s-47.47,2-51.82,1.8-27.61-3.14-30.54-8.53c0,0-5-9.08,3.08-11.48s13.78-.89,21.39-4.06a78.3,78.3,0,0,0,23.68-15.73s7.6-5.86,10.93-4.63,6.65,8.13,9.29,9.91,15.73,4.76,19.64-1.59,4.69-3.78,7.21-2.63,5.94,13,4.51,18.32A32.39,32.39,0,0,0,785.93,928.2Z"/><path class="cls-33" d="M785.93,928.2s-19.75.57-28.45,2.93-31.5,5.6-43.25,4.81-27.79-6.6-27.79-6.6-1.23,1.76,3.64,5.27,20.59,6.71,34.48,6.25,34.21-.88,38.46-.8,22,.06,24.61-3.1C789.8,934.31,785.93,928.2,785.93,928.2Z"/><path class="cls-34" d="M758.2,931a31.47,31.47,0,0,1,4.24-9.89,17.45,17.45,0,0,1,6.4-6.2,27.29,27.29,0,0,1,6.07-1.91,55.16,55.16,0,0,1,5.54-1,28.35,28.35,0,0,1,5.52-.35c.52,0,1.55-.72.58-.78a29.51,29.51,0,0,0-4.88.25,52.2,52.2,0,0,0-12.09,2.74c-5.64,2.08-9.19,7.53-11.34,12.88a29.73,29.73,0,0,0-1.48,4.51c-.11.49,1.34.27,1.44-.2Z"/><path class="cls-34" d="M756.6,907.43a31.24,31.24,0,0,1-9.12,2.33c-3.78.47-7.92.21-11.34,2.18-3.23,1.84-5.44,5-8.66,6.91a15.23,15.23,0,0,1-7,2.17c-2.9.13-5.62-.74-8.38-1.5l-4.89-1.34c-.39-.1-1.69.5-1.17.65,6.09,1.67,12.25,4.11,18.55,2.06,4.16-1.35,7-4.14,10.24-7a10.65,10.65,0,0,1,4.18-2.47,39.31,39.31,0,0,1,6.92-.85,34.56,34.56,0,0,0,11.23-2.69c.92-.42.07-.77-.54-.48Z"/><path class="cls-34" d="M692.82,920.32A3,3,0,0,0,695,923.2a14.32,14.32,0,0,0,4.43.65c1.62.11,3.24.28,4.85.53,3,.47,6.61,1.2,8.79,3.48a23.7,23.7,0,0,1,4.4,7.59c.15.39,1.57-.05,1.45-.39a29.17,29.17,0,0,0-4-7.14c-1.74-2.3-4.89-3.21-7.58-3.79-3.14-.68-6.31-.69-9.47-1.1-1.5-.2-3.77-1.14-3.56-2.95,0-.41-1.39-.14-1.43.24Z"/><path class="cls-1" d="M742.1,904.55l0,0c.35-.34.17-1-.41-1.55l-4.18-3.71c-.58-.51-1.35-.66-1.7-.32l0,0c-.36.33-.17,1,.41,1.55l4.17,3.71C741,904.74,741.75,904.89,742.1,904.55Z"/><path class="cls-1" d="M736.81,906.8l.13-.13c.26-.23,0-.81-.48-1.28l-3.1-2.78c-.53-.46-1.16-.65-1.42-.42l-.13.13c-.25.23,0,.81.49,1.28l3.1,2.77C735.92,906.84,736.56,907,736.81,906.8Z"/><path class="cls-1" d="M732.42,909l.22-.21c.23-.21,0-.73-.43-1.15l-2.22-2c-.47-.42-1-.59-1.27-.37l-.22.21c-.23.21,0,.73.43,1.15l2.22,2C731.62,909,732.19,909.19,732.42,909Z"/><path class="cls-1" d="M728.84,911.38l.26-.25c.27-.25.1-.8-.37-1.21l-2.22-2c-.47-.42-1.07-.56-1.34-.31l-.26.25c-.27.25-.1.8.37,1.22l2.22,2C728,911.5,728.57,911.63,728.84,911.38Z"/><path class="cls-37" d="M824.34,446.32l-5-25.84-47,9.29,7.72,32.44S822,453.43,824.34,446.32Z"/><polygon class="cls-39" points="767.8 410.32 775.41 463.32 782.46 462.21 782.11 461.61 775.96 462.57 767.8 410.32"/><path class="cls-2" d="M589.66,434.28c-7-11.62-22.52-38.51-22.52-38.51l17.71-7.39,29,36.44C607.84,431.06,596,428.37,589.66,434.28Z"/><path class="cls-31" d="M676.71,356.3s-22.49,13.81-13.61,104.18c0,0-5.68-12.55-7.64-20.47-3.64-14.72-10.08-51.95-1.81-70.58C660.66,353.63,676.71,356.3,676.71,356.3Z"/><path class="cls-31" d="M791.94,361.75s-20.26,5.16-17.68,93.59c0,0-10.48-7.82-12.14-24.62-2.83-28.58-8.46-70.14,9.3-80.16C783.4,343.8,791.94,361.75,791.94,361.75Z"/><path class="cls-40" d="M666.16,254.09h0c-1.58-5.54-2.21-9-.77-12.87,1-2.76,5.7-5.7,5.7-5.7s.86-8.22,4.6-7.16c0,0,3.39-11,14.26-8.42,0,0,3.28-.9,5.15,1.1,0,0,4.89-9.5,14.33-3.18,0,0,3.54-2.37,4.81.44,0,0,6.12-6,12.37-1.39,0,0,15.6-3.4,19.63,6.33,0,0,7.52-4,11.59,3.12,0,0,3.94.23,4.06,5.68,0,0,5.91,1.61,6.53,5.17,0,0,3.43,2.61,3.32,8.32,0,1.63-.59,1.21-1.07,3.42,3.37,6.44-1.56,7.32-1.56,7.32,5.15,5.94-1,13.58-1,13.58s2.6,4.63,1.28,7.65c-1.79,4.13-9.58,8.79-9.58,8.79s-2.11-11-1.82-18-5.66-19-7.59-21.64-15.38,2.44-36.11,2.91-25-3.13-27.43-2.41c-5.1,1.49-9,19.74-8.75,25.23s-1.19,15.88-1.19,15.88-11.12-4.45-8.36-13.74c0,0-3.77-6.56-2.45-10.6a4.14,4.14,0,0,1,1.17-2.54S663.42,257.39,666.16,254.09Z"/><path class="cls-2" d="M738.19,322.1c-8,9.73-20.2,16.55-31.8,19.44-11.37,2.83-15.39-.82-17.06-2.44-9.16-8.93-15.28-18.13-19-28.88a26.94,26.94,0,0,1-1.19-9.39c.09-4.91.62-14.34.35-19-.69-11.92.17-22.79,6.31-33.09,12.8-21.47,45.43-22.43,57.77-17.19,14.43,6.12,21.4,19.51,22.88,34a39.32,39.32,0,0,1-.81,13.33,41.45,41.45,0,0,0-4.92,7.41"/><path class="cls-41" d="M675.86,250.72s-.92.9-6.5,15.69c1.33-4.69,1.84-11.66,5.48-18.28C687.56,225,730.63,226.26,743,232c14.46,6.66,20.32,21,21.87,36.64.63,6.34,1.07,10.4-.6,15.76-.09.07-1.16,1.29-1.16,1.29s-12.7,3-16.6,11l-.47-6.76s-3.55-8.33-6.68-22.8c0,0-.38-8-.37-10.41,0-7.41-6.54-5.58-11.09-4.22A61.6,61.6,0,0,1,715.94,254c-7.54.16-17.11-.58-20.64-.4C690.33,253.89,675.86,250.72,675.86,250.72Z"/><path class="cls-42" d="M675.39,250.77a7.82,7.82,0,0,0-1.17,2.28c-2,4.4-3.67,8.94-5.37,13.45l1-.19c1.76-6.37,2.37-12.9,5.74-18.75a30.42,30.42,0,0,1,9.17-9.72c7.91-5.46,17.69-7.85,27.14-8.77a78.38,78.38,0,0,1,25,1.27c9.47,2.19,17.15,8.76,21.63,17.31A55.59,55.59,0,0,1,764,266.18a74.75,74.75,0,0,1,.85,11.18,25.08,25.08,0,0,1-.71,5.52,4.92,4.92,0,0,1-.72,1.89c-.26.34-.59.65-.87,1l.48-.24a36.07,36.07,0,0,0-7.22,2.64c-3.94,1.9-7.84,4.55-9.87,8.55l1-.24-.24-3.5a20.77,20.77,0,0,0-.23-3.26,13,13,0,0,0-.57-1.46c-.49-1.28-1-2.58-1.38-3.88-1.61-4.81-3-9.71-4.09-14.65a24.11,24.11,0,0,1-.72-4.67c-.08-1.9-.16-3.8-.22-5.7-.1-3,.39-7.15-3.24-8.15-3.19-.88-6.54.68-9.61,1.38-9.83,2.24-19.85.82-29.8.85-6.95,0-13.85-1.41-20.63-2.89-.23-.05-1.12.32-.87.38,6,1.3,12.1,2.7,18.2,2.93,4,.15,8.1.12,12.15.26a100,100,0,0,0,14.89-.26,49.85,49.85,0,0,0,6.54-1.09,45,45,0,0,1,5.24-1.29c1.6-.21,3.46-.16,4.68,1s1.32,3.38,1.35,5.16a92.47,92.47,0,0,0,.35,9.42,62.1,62.1,0,0,0,1.85,7.82q.95,3.6,2.05,7.15c.57,1.81,1.16,3.62,1.82,5.4.28.79.7,1.6.92,2.41a14.87,14.87,0,0,1,.23,2.75l.28,4.12c0,.2,1-.09,1-.24,2.65-5.23,8.45-8.22,13.79-10a9.51,9.51,0,0,0,2.85-1,5.65,5.65,0,0,0,1.74-3.59,25.71,25.71,0,0,0,.55-5.4,79.94,79.94,0,0,0-1.06-12.06A61.88,61.88,0,0,0,762.43,254,38.74,38.74,0,0,0,751.53,237a31.37,31.37,0,0,0-13.25-6.9,68.59,68.59,0,0,0-13.7-1.73c-11-.42-22.52,1-32.74,5.27a38.79,38.79,0,0,0-13.24,8.81c-4.94,5.22-7.13,11.86-8.56,18.78-.37,1.77-.71,3.56-1.19,5.3-.05.17.94,0,1-.19,1.69-4.47,3.36-9,5.31-13.33a12.54,12.54,0,0,1,1.14-2.32C676.51,250.47,675.56,250.6,675.39,250.77Z"/><path class="cls-2" d="M745,310.6c6.3,5.95,12.38-4.15,12.38-4.15,5.53-7.28,5.18-14.76,4.74-19.87s-6.06-4.78-6.06-4.78c-4.76.74-4.06,1.27-9.93,15.16"/><path class="cls-43" d="M751.3,296.69a34.46,34.46,0,0,1,3.7-8.18,10.51,10.51,0,0,1,1.43-1.75,5,5,0,0,1,.88-.67l.19-.09c.08,0,0,.07,0,0s.17,0,0,0l-.32-.1a5.09,5.09,0,0,1,1,1.66,10.36,10.36,0,0,1,.56,5.32c-.05.38.76.26.8-.07a10.19,10.19,0,0,0-.92-6.2c-.25-.46-.62-1.27-1.24-1.12a3.25,3.25,0,0,0-1.29.73,11.12,11.12,0,0,0-2.29,2.82,37.53,37.53,0,0,0-3.38,7.74c-.12.34.69.25.8-.07Z"/><path class="cls-43" d="M750.78,299.55c2.92.05-1.14,6.71,1.31,6.6.6,0,1-.64,1.22-1.11a14.52,14.52,0,0,0,1.08-3.09,12.73,12.73,0,0,0,.48-4.24c-.11-1.68-.5-3.84-2.16-4.68-.3-.15-1,.25-.62.45,1.39.7,1.78,2.44,1.93,3.85a10,10,0,0,1-.09,3.18,21.5,21.5,0,0,1-1,3.59,6.81,6.81,0,0,1-.47,1c-.08.13-.19.25-.26.39l-.12.11.22,0s0,0-.06-.05-.17-.44-.17-.59a4.28,4.28,0,0,1,.09-.94c.11-.71.29-1.42.4-2.14.2-1.28.17-2.87-1.5-2.9-.37,0-.81.55-.28.56Z"/><path class="cls-41" d="M713.43,284.35a3.54,3.54,0,0,1,4.11,5.61,3.34,3.34,0,0,1-3.84.68,3.7,3.7,0,0,1-1.82-4.3,3.31,3.31,0,0,1,1.55-2"/><path class="cls-41" d="M706.11,290.24s4.83-7.18,10-7.18c7.26,0,9,4.21,10.55,6.4,0,0-4.71-5.15-10.32-5C711.23,284.59,706.11,290.24,706.11,290.24Z"/><path class="cls-41" d="M677.85,284.38a3.2,3.2,0,0,0-3.64.7,3.43,3.43,0,0,0-1,1.63A3.79,3.79,0,0,0,674,290a3,3,0,0,0,3.59.67,3.78,3.78,0,0,0,1.68-4.29,3.28,3.28,0,0,0-1.45-2"/><path class="cls-41" d="M687,290.28s-4.2-7.17-8.66-7.18c-6.27,0-7.73,4.22-9.09,6.41,0,0,4-5.15,8.9-5C682.53,284.63,687,290.28,687,290.28Z"/><path class="cls-21" d="M692.37,308.34a5.21,5.21,0,0,0,4.75-.35c.29-.19,1.3,0,.88.24a7.3,7.3,0,0,1-6.46.38c-.17-.09-.14-.22.07-.29a1.16,1.16,0,0,1,.76,0"/><path class="cls-21" d="M698.58,307.84a8.25,8.25,0,0,1,2.91-.77.7.7,0,0,1,.45.13c.09.08.11.18,0,.25a3.27,3.27,0,0,1-1.6.39.61.61,0,0,1-.5-.19c-.09-.14.07-.23.21-.23a2.4,2.4,0,0,0,1.29-.32l.44.38a7.49,7.49,0,0,0-2.6.7.64.64,0,0,1-.54-.05c-.11-.07-.22-.21-.06-.29"/><path class="cls-21" d="M702.59,307.91a4,4,0,0,0,3.13-1.48c.86-1.35,0-3.61-1.48-4.45-.16-.09-.08-.21.08-.25a1,1,0,0,1,.63.12,4.35,4.35,0,0,1,2,3.88,3.23,3.23,0,0,1-2.69,2.38,7.14,7.14,0,0,1-1.31.2c-.18,0-.5-.05-.59-.19s.07-.2.24-.21"/><path class="cls-21" d="M690.2,307.77a.15.15,0,0,0-.15-.22,1.42,1.42,0,0,1-.92-.29l-.31.39a4.06,4.06,0,0,1,1.86.64.34.34,0,0,0,.38-.07c.07-.06.15-.21,0-.29"/><path class="cls-21" d="M691.1,307.93a4.65,4.65,0,0,0-2.09-.71.4.4,0,0,0-.31.15.16.16,0,0,0,0,.24"/><path class="cls-21" d="M687.75,308a2.42,2.42,0,0,1-2.08-1.41,3.49,3.49,0,0,1,.87-3.82.15.15,0,0,0-.06-.25.47.47,0,0,0-.41.14,3.89,3.89,0,0,0-1.21,3.25,2.74,2.74,0,0,0,1.81,2.32,2.58,2.58,0,0,0,.86.17.41.41,0,0,0,.38-.19c.05-.15,0-.21-.16-.21"/><path class="cls-41" d="M708.33,269.32c-.27,1.12-.55,2.24-.82,3.37-.2.85-.41,1.71-.61,2.56,2.69-.11,5-.05,6.66,0a28.93,28.93,0,0,1,10,1.95,10.64,10.64,0,0,1,3.86,2.59c.34.37,1.17,1.82,1.85,1.67.29-.07.21-1.55.2-1.7-.16-3-2.08-4.67-4.62-6a45.14,45.14,0,0,0-16.48-4.49"/><path class="cls-41" d="M669.49,279a8.68,8.68,0,0,0-.17-2.21,15.18,15.18,0,0,1,1.49-1,43.78,43.78,0,0,1,15.86-5.59c.35,1.1.71,2.2,1.06,3.3.27.84.53,1.68.79,2.52-2.65.07-4.88.28-6.54.48a28,28,0,0,0-9.64,2.62,12.68,12.68,0,0,0-2.33,1.53Z"/><path class="cls-3" d="M699.15,342.48s6.93-.4,10.24-1.07,11-1.17,26.84-13c-.36.28-.67,1.54-.89,1.95a27.53,27.53,0,0,1-3.06,4.66,29.43,29.43,0,0,1-14.62,9.77,70.21,70.21,0,0,1-10.48,1.9c-.62.09-8.29.86-8.25.13Z"/><path class="cls-28" d="M697,316.6c5.72-.25,15-1.32,15-1.32s-1.24,11.38-14.5,12S682,316.58,682,316.58,691.25,316.85,697,316.6Z"/><path class="cls-29" d="M696.91,316.61c2.72-.12,13.66-1.06,13.66-1.06s-3.36,6.16-13.2,6.59c-10.66.46-14-5.32-14-5.32Z"/><path class="cls-30" d="M696.81,317c2.72-.12,11-.94,11-.94s-2.85,3.1-11,3.46-10.88-2.42-10.88-2.42Z"/><path class="cls-28" d="M681.31,315.77a20.05,20.05,0,0,0,3.24.2c2.24-.29,3.62-.94,5.25-1.14,2.77-.33,4.59.69,5.8.63s2.93-1.22,5.72-1.13c1.64.06,5.7.47,8,.57a22.28,22.28,0,0,0,3.21-.48c.41.08-.24,3.06-15.46,3.72S680.91,315.89,681.31,315.77Z"/><path class="cls-2" d="M591,346.88c-2.13-.71-4.7-.31-6.7,2.82s-1.26,12.23-5.07,14.05c-2.76,1.31-4.16-1.49-4.16-1.49s-6.51-13-8.39-18.87-5.08-10.44-6.9-9.33-2.44,2.63-.87,7.45,5.05,12.28,4.15,13.12-2.24-.43-3.19-3.23-6.34-15.62-8.16-15.89a3.14,3.14,0,0,0-3.53,3.31l0,.53a10.49,10.49,0,0,0,1.4,4.66c3.15,5.39,9.23,16.7,8.4,17.19s-1.62-.85-4.81-7.18l-4.39-10.18a2.5,2.5,0,0,0-3.48-1.28,2,2,0,0,0-.86,1c-.75,2,1.13,5.12,1.13,5.12l7.63,16.79s-.62,1.41-1.52,1.21-5.53-13.9-7-13.38-2.67-.37-2,4,5.79,13.87,7.39,17.58a87.73,87.73,0,0,0,10.68,17.87l3.89,3.63a9.83,9.83,0,0,0,13.93-.39c3.5-3.84,7-3.13,8.48-7.66,3-9.25,2.65-21.66,2.75-26S593.14,347.58,591,346.88Z"/><path class="cls-3" d="M576.82,368.13a13.18,13.18,0,0,0-7.71,4c-1.48,1.61-1.89,2.87-2.12,2.83l-1.11,4.25A23.1,23.1,0,0,1,576.82,368.13Z"/><path class="cls-3" d="M693,269.42s5.42,5.72-.12,10.26Z"/><path class="cls-3" d="M700.13,269.32s-4,6.79,2.33,10Z"/><path class="cls-20" d="M152.82,439.51s-10.75-3.42-19.89.47a19.51,19.51,0,0,1,20.72-1.63Z"/></g></svg>