<svg xmlns="http://www.w3.org/2000/svg" viewBox="0 0 1221.96 991.43"><defs><style>.cls-1{fill:#f2ebd1;}.cls-2{fill:#3c803d;}.cls-3{fill:#956243;}.cls-4{fill:#4d2f15;}.cls-5{fill:#1b120c;}.cls-6{fill:#eaeae8;}.cls-7{fill:#5e5f5f;}.cls-8{fill:#853324;}.cls-9{fill:#c98532;}.cls-10{fill:#ec9a6f;}.cls-11{fill:#895522;stroke:#895522;}.cls-11,.cls-19,.cls-31,.cls-32,.cls-35,.cls-42,.cls-43{stroke-miterlimit:10;}.cls-12{fill:#653c2a;}.cls-13{fill:#010101;}.cls-14{fill:#13110f;}.cls-15{fill:#878787;}.cls-16{fill:#24180f;}.cls-17,.cls-21{fill:#fff;}.cls-18{fill:#653c29;}.cls-19,.cls-31,.cls-32,.cls-35,.cls-43{fill:none;}.cls-19,.cls-43{stroke:#010101;}.cls-19{stroke-width:0.9px;}.cls-20{fill:#273339;}.cls-21{opacity:0.14;}.cls-22{fill:#622515;}.cls-23{fill:#b7b7b8;}.cls-24{fill:#258f45;}.cls-25{fill:#e49024;}.cls-26{fill:#761515;}.cls-27{fill:#a51e24;}.cls-28{fill:#194a98;}.cls-29{fill:#b18962;}.cls-30{fill:#ccb193;}.cls-31,.cls-32{stroke:#b7b7b8;}.cls-31{stroke-width:2px;}.cls-32{stroke-width:0.95px;}.cls-33{fill:#bb997a;}.cls-34{fill:#a38166;}.cls-35{stroke:#a38166;stroke-width:1.04px;}.cls-36{fill:#5f6161;}.cls-37{fill:#343535;}.cls-38{fill:#c2c1c0;}.cls-39{fill:#3ba448;}.cls-40{fill:#a56530;}.cls-41{fill:#8c542a;}.cls-42{fill:#993a2f;stroke:#993a2f;stroke-width:0.25px;}.cls-43{stroke-width:0.56px;}.cls-44{fill:#31160e;}.cls-45{fill:#f1eef7;}.cls-46{fill:#663d18;}.cls-47{fill:#f1ba61;}.cls-48{opacity:0.4;}.cls-49{fill:#989999;}</style></defs><g id="Layer_1" data-name="Layer 1"><rect class="cls-1" width="1221.96" height="991.43"/><polyline class="cls-2" points="0 991.29 1221.96 991.29 1221.96 925.89 0 925.89"/><path class="cls-3" d="M276.9,891.8l37.77,13.89c2.92,2.11-32.66,25.55-71.94-4.43Z"/><path class="cls-4" d="M342.88,919.88s1.59-5.11-2.44-6.34-25.65-9.83-27.73-9.27c.15,1.5-1.63,3.62-6,5.31s-9.26,3.77-20.94,2.41c-8.75-1-26.73-2.7-34.87-6.67-2.72-1.32-6.87-6.15-7.09-6.89-8.33,11.05-4.78,21.87-.43,24.28s29,2.4,29,2.4l22.09,3.57,20.54-.56,8.61-.83L333.81,925Z"/><path class="cls-5" d="M242.22,921.73c2.74.73,11.4,1.54,18.74,1.14,19.71-1.06,26.49,1,33.31,2.5a82.47,82.47,0,0,0,11.89,2c23.25,2.19,36.06-7.13,36.5-7.51a2.28,2.28,0,0,1,.7,1.07,17.71,17.71,0,0,1-4.52,3.48c-6.26,3.39-15.28,7.42-33.26,6.08-5.1-.37-8.16-.51-11.56-1.28a83,83,0,0,0-21.48-2.31l.29,3.33s-20.82,2.33-30.53-1C241.24,924.13,242.22,921.73,242.22,921.73Z"/><path class="cls-5" d="M241.86,926.24c12.77,2.3,26.38,1.38,30.72,1.08l.25,2.93s-20.82,2.33-30.53-1A23,23,0,0,1,241.86,926.24Z"/><path class="cls-6" d="M489.5,484.72s-13.61-38.11-17.59-40-6.9,2.1-6.9,2.1l15.17,44.45Z"/><path class="cls-3" d="M469.58,448.4a111.94,111.94,0,0,0-14.89-2.57,3.1,3.1,0,0,1-1-.26,16.44,16.44,0,0,1-7.79,2.14c-3.06.12-6.12-.86-9.18-.81-.56.91-3.22,2.21-3.22,2.21l-11.12,11.68c3.29,9.65,1.36,18.53,11.37,22.11l7.79-.4h23s2.66-1.51,3-3.06a4.64,4.64,0,0,0-.53-3l3.55-1.92a10.09,10.09,0,0,0,1.22-3.57c.16-1.73-2.43-3.42-2.43-3.42l1-.55a4.49,4.49,0,0,0,2.23-3.84l0-.76a7.41,7.41,0,0,0-2.06-3.86s3.39-1.76,3.55-3.38A7.32,7.32,0,0,0,469.58,448.4Z"/><path class="cls-3" d="M449.92,455.74c0-.57-.07-4.1.28-4.6a3.9,3.9,0,0,1,.33-.38,47.52,47.52,0,0,0,8.58-11.35c2.21-4.68.6-7.38-.79-8.73a1.47,1.47,0,0,0-2.09,0,1.56,1.56,0,0,0-.16.2,78.6,78.6,0,0,1-5.91,8c-1.18,1.19-8.74,5.41-13.4,7.95C440.87,449.4,445.13,455.51,449.92,455.74Z"/><path class="cls-7" d="M244,160c4.15-4.42,10-6.93,15.52-4.59,1.32-11.22,13.08-16.31,24.31-15.06,5.74.91,11.28,4.32,17,3.18,3.55-.71,6.48-3,9.68-4.81,13.37-7.29,30.93,5.8,39.66,18.28s4.46,24.44-2.76,37.84c-3.36,6.23-3.46,9.86-5.19,16.77-1.63,6.52-7.36,18.27-8.35,24.83s8.32,14.89,1.61,14.48l-71.06-18.62c-11,.62-17.43-3.59-21.61-13.82-2.68-6.93-1.44-7.06-.89-14.45.49-9.7-8.24-18.26-6.33-27.78C236.62,170.25,240.14,164.7,244,160Z"/><path class="cls-8" d="M235.12,158.35s26.72-8.89,58.45-.81,44.69,30,48.34,45-4.43,29-4.43,29,7.75,3.31,17.16-24.94c13.72-41.18-25.91-72.72-36.35-74S256.06,113,235.12,158.35Z"/><path class="cls-3" d="M252.51,236.12s-4.76,25.32-14.11,42.13c-1.31,2.35-18.45,9.57-18.45,9.57l22.14,11.1c12.64,4.88,41.94,8.45,55.2,5.71l11.51-1.23s-12.91-8.76-13.12-11.92,5.46-26,5.46-26"/><path class="cls-9" d="M351.72,371l20.83,98.41c4,13.45,5.08,26.78-8.47,30.43H351.91c-12.29,3.3-14,6.64-18.63-5.21l-38-106.35Z"/><path class="cls-3" d="M319.45,474.79a23.87,23.87,0,0,0-.33,7.89Z"/><path class="cls-9" d="M353.5,452.92c0,.55-.85.27-1.44.35a24.38,24.38,0,0,0-10.87,4.25c-6,4.28-10,11.2-12.68,18.78a60.27,60.27,0,0,0-3.07,15c8.85,13.17,11.44,20,24.89,15.4l81.2-14.87-6.19-42.1Z"/><g id="freepik--character-2--inject-1332"><path class="cls-10" d="M263.18,335.5a38.85,38.85,0,0,1-2-4.59,16.61,16.61,0,0,1-.71-5.29,16.28,16.28,0,0,1,1.5-6.33,17,17,0,0,1,2.69-4l.18-.17-.11-.27c-1-3.23-1.73-6.29-2.36-8.32a12.79,12.79,0,0,0-1.16-3.24,1.84,1.84,0,0,0,.13.9l.58,2.41c.5,2.11,1.06,5,2.11,8.54l.09-.44a16.52,16.52,0,0,0-4.41,11,16.2,16.2,0,0,0,1,5.48,14.63,14.63,0,0,0,1.59,3.34A4.85,4.85,0,0,0,263.18,335.5Z"/><path class="cls-10" d="M234.59,324.83a26.54,26.54,0,0,0-2.45-3,13.86,13.86,0,0,1-3.77-8c-.07-1.73.28-3.44.17-5.09a5.43,5.43,0,0,0-1.7-3.95,3.35,3.35,0,0,0-2.79-.76c-.7.18-1,.51-.94.54a4,4,0,0,1,1-.23,3.27,3.27,0,0,1,2.38.88,5.1,5.1,0,0,1,1.29,3.57c.08,1.5-.3,3.21-.23,5.08a10.91,10.91,0,0,0,1.59,4.9,19.57,19.57,0,0,0,2.6,3.34A15.28,15.28,0,0,0,234.59,324.83Z"/><path class="cls-10" d="M244.31,319.14a39.67,39.67,0,0,0-3.65-3.57,24.26,24.26,0,0,1-6.7-10,14,14,0,0,1-.56-3.34,21.63,21.63,0,0,1,.21-3.21,6.94,6.94,0,0,0-1.14-5.5,3.11,3.11,0,0,0-2.07-1.07,3,3,0,0,0-1.66.29c-.86.49-.94,1.11-.92,1.1a2.16,2.16,0,0,1,1-.8,2.74,2.74,0,0,1,3.1.83,6.55,6.55,0,0,1,.85,5,23.09,23.09,0,0,0-.26,3.32,13.54,13.54,0,0,0,.59,3.57A22.69,22.69,0,0,0,240.19,316c1.2,1,2.2,1.86,2.91,2.39A4.32,4.32,0,0,0,244.31,319.14Z"/></g><g id="freepik--character-1--inject-1332"><path class="cls-3" d="M241.6,882.75s2.24,14.41,2.24,16.94L255.9,902l24.07.62,2.13-21.18Z"/><path class="cls-11" d="M306.7,882.23l25.71-279.54L318.55,519H148.47l-17.59,80.53L166,885.88s54.56,3.57,74.76,3.57S306.7,882.23,306.7,882.23Z"/><path class="cls-3" d="M291.16,290.27l-65-4.18-8.16,23.67s16.1,16.41,17.81,17.22,41.54,11.28,41.54,11.28,46.07-15.15,45.45-15S291.16,290.27,291.16,290.27Z"/><path class="cls-9" d="M339.69,555.63c-1-33.83-1.11-66.73-1.11-66.73l-1.51-16.12,12.67-61c4.53-14.78,5.83-25.78,2.61-32.26l-27.58-69.17-28-18.54c1,2.39,7.87,19.9-15.55,23.6l-5.64-.49c-29.28-4.27-49-35.48-49-35.48L200,288.05,166.6,431.63S135.34,491.26,131.29,519s-4.15,115.62-4.15,115.62l64,6.6q7.13.74,14.29.91l37.63.9a260,260,0,0,0,31.2-1.13l57.07-5.51S340.69,589.46,339.69,555.63Z"/><path class="cls-3" d="M183.34,887s3.38,5.62-.92,18.5l24.36,5,9.13-11.89L217,888.45Z"/></g><path class="cls-3" d="M178.17,442.25c-4.22,2.51-13,5.95-17.2,8.54-9,5.58-16.83,7.58-25.49,13.72l82,69.41,15.33-20.8Z"/><path class="cls-12" d="M447.69,464.83a27.77,27.77,0,0,0-1.44-4.73,25.44,25.44,0,0,0-2.78-4.12A10.92,10.92,0,0,1,447.69,464.83Z"/><path class="cls-9" d="M304,298.87s32.53,14.33,36.71,28.37c6.36,21.32,11.23,44.47,11.23,44.47L326.26,385Z"/><path class="cls-11" d="M354.32,399.46c-.11-5.15-1.53-10.29-2.71-15.27q-2-8.29-4.63-16.39C343.31,356.62,338.8,345.73,334,335c-2.29-5.17-4.64-10.32-7-15.46,3.72,9.72,7,19.62,10.94,29.25,4.07,9.86,7.94,19.46,10.64,29.79,3.18,12.18,5.45,17.59,2.7,27.72S338,428.72,338,428.72l1,.84S354.52,409.51,354.32,399.46Z"/><path class="cls-12" d="M296.61,285.08s-5.24-1.67-8.8-3.25-9.93-2.3-24.84-19.63c0,0,2.34,19,23.58,26.06,0,0,5.46,2,9.3,1.65Z"/><path class="cls-3" d="M332,177.13l.2.22a3.61,3.61,0,0,1-.16-.42Zm8.78,4c.1.15.22.31.35.47l0-.17S340.85,180.94,340.81,181.15ZM261,259.78c6.58,10.82,17.87,23.26,31.62,25.88,4.92.93,10.23-.52,14.32-2.91,6.23-3.61,12.75-7.26,17.85-12a43,43,0,0,0,10.34-13.51c3.17-6.14,3.55-7.86,4.34-14.54a66.94,66.94,0,0,1,2-10.18c1-3.17,5.38-15.56,7.38-23s-.65-22.85-.65-22.85c0-2.12-3-1.71-3.69-3.58l-.88-.21a.87.87,0,0,1,.24.91,7.17,7.17,0,0,1-2.72-2.18v0c-1.46.29-2.63-.63-3.49-1.9-.05.21.07.66.29.71a4.52,4.52,0,0,1-3.22-2.05c-.05.21.08.66,0,.86a8.2,8.2,0,0,1-2.53-1.92c.14.31,5.28.73,5.24.87-1.36-.11,0,.68-.82-.58l-.91-1c-1.14-.07-1.26.61-1.94-.41.17.25-.08-2.36-.13-2.16-1.31-.32-.93-.32-1.89-1.18,0,.2-3.9.45-3.94.65-1.1-.26-1,.81-1.74-.2.17.25,1-.66,1.17-.41-1.37-.11-2.07.62-2.92-.65.17.25-3.81-3.25-3.81-3.25-1.37-.11-1.24.36-2.15-.71.35.51-6-1.83-5.86-1.37-1.1-.27,1.13,4.52.4,3.7-.05.21-2.38-1.21-2.38-1.21-1.15-.06.26,1.35-.42.33-.05.2,0,.86.24.91a4.61,4.61,0,0,1-4-1.6c.34.51.46,1,.63,1.22-1.09-.27-2-.27-2.92-1.34-.05.2.24.91.46,1a4.48,4.48,0,0,1-3.41-1.24c-.05.2.29.71.46,1a3.21,3.21,0,0,1-2.53-1l.46,1c-.87-.21-1.63,0-2.85-.68,0,.2.34.51.3.71a8.4,8.4,0,0,1-2.15-.73c-.05.2.51.76.29.71-.87-.21-1.63,0-2.63-.63.17.25.29.71.47,1a5.94,5.94,0,0,1-2.59-.83,1.52,1.52,0,0,0,.25.91c-.88-.21-1.64,0-2.64-.63,0,.2.3.71.47,1a11.86,11.86,0,0,1-2.63-.63c-.05.2.34.5.51.76a7.2,7.2,0,0,1-2.8-.89c-.1.41.07.66,0,.86-.66-.16-1-.46-1.7-.62l-1.2.14c-4,3.29-14.78-2.71-14.78-2.71-8.1,3.81-5.65,33.81-6.34,37.69s-3.13,4.42-3.13,4.42c-.76-1.67-3.09,2.18-3.37.41-.32-1.57.56-3.27.23-4.84-1.2-3.7-5.83-3.74-8.72-2.3l-.56.56c-4.45,3.75-4.16,18.78-2.67,23.58-1.3,8.74,5.17,15,10.87,9.84l.4,3.62"/><path class="cls-13" d="M310.47,248.65a6.45,6.45,0,0,1-5.63-1.72c-.31-.31-1.56-.38-1.13,0a9.08,9.08,0,0,0,7.69,2.22c.24-.06.24-.22,0-.37a1.42,1.42,0,0,0-.93-.18"/><path class="cls-13" d="M303.12,246.35a10.6,10.6,0,0,0-3.32-1.72.83.83,0,0,0-.58.05.17.17,0,0,0-.06.29,4.09,4.09,0,0,0,1.83.9.74.74,0,0,0,.65-.09c.15-.14,0-.29-.19-.33a3.19,3.19,0,0,1-1.47-.73l-.64.33a9.41,9.41,0,0,1,3,1.55.8.8,0,0,0,.66.08c.15,0,.33-.19.16-.33"/><path class="cls-13" d="M298.25,245.35a5.08,5.08,0,0,1-3.39-2.63c-.67-1.86.93-4.17,2.95-4.78.22-.06.15-.23,0-.32a1.19,1.19,0,0,0-.79,0,5,5,0,0,0-3.4,3.94c-.12,1.46,1,2.77,2.61,3.59a8.07,8.07,0,0,0,1.53.59c.21.06.62.09.76-.06s0-.26-.23-.31"/><path class="cls-13" d="M313.25,248.56a.19.19,0,0,1,.24-.23,1.7,1.7,0,0,0,1.19-.09l.27.55a5.05,5.05,0,0,0-2.42.26.43.43,0,0,1-.44-.18c-.07-.1-.13-.3,0-.36"/><path class="cls-13" d="M312.12,248.51a5.71,5.71,0,0,1,2.7-.28.5.5,0,0,1,.35.26.21.21,0,0,1-.08.29"/><path class="cls-13" d="M316.16,249.46a3,3,0,0,0,2.88-1.13,4.26,4.26,0,0,0,0-4.81.17.17,0,0,1,.14-.28.53.53,0,0,1,.45.27,4.76,4.76,0,0,1,.59,4.22,3.37,3.37,0,0,1-2.81,2.3,3.48,3.48,0,0,1-1.07,0c-.15,0-.38-.16-.41-.34s.12-.23.25-.2"/><path class="cls-14" d="M332.13,224.19a3.11,3.11,0,0,1,3.87,3.1,3.25,3.25,0,0,1-1.44,2.71,3,3,0,0,1-3.52-.22,3.34,3.34,0,0,1-.7-4.17,3,3,0,0,1,1.79-1.42"/><path class="cls-14" d="M320.28,225.65s7.05-3.25,10.15-2.83c4.53.62,9.39,4.38,10.44,7,0,0-6.34-5.39-9.55-5.74S320.28,225.65,320.28,225.65Z"/><path class="cls-14" d="M295.1,215.81a4.26,4.26,0,0,0-4-.7,3.08,3.08,0,0,0-1.27,1.22,3.24,3.24,0,0,0,.06,3.07,3,3,0,0,0,3.24,1.4,3.37,3.37,0,0,0,2.51-3.41c0-.25.34-.65-.53-1.4"/><path class="cls-14" d="M302,220.91s-5.68-5.86-8.95-6.74c-4.78-1.29-11.19.15-13.29,2.07,0,0,8.56-2.33,11.89-1.33S302,220.91,302,220.91Z"/><path class="cls-15" d="M326.73,207.68l-1.21,2.49c-.31.63-.62,1.27-.92,1.9,2.37.51,4.35,1.05,5.83,1.5,3.13.94,4.72,1.43,6.26,2.54a17.47,17.47,0,0,1,3.24,3.1,11.36,11.36,0,0,1,1.49,2.06c.92,1.73.93,3.18,1.21,3.19s.41-1.18.43-1.3a10.82,10.82,0,0,0-1-5.69,12.6,12.6,0,0,0-3-3.71c-1.44-1.24-5.89-3.81-12.35-6.08"/><path class="cls-15" d="M307.89,202.86c-.07.92-.14,1.84-.22,2.76-.05.71-.11,1.41-.16,2.11-2.52-.78-4.68-1.32-6.31-1.69-3.45-.79-5.22-1.18-7.27-1a20.88,20.88,0,0,0-4.74,1,13,13,0,0,0-2.53,1c-1.8,1-2.6,2.26-2.87,2.12s.25-1.22.31-1.33a11,11,0,0,1,4-4.41,14.24,14.24,0,0,1,4.86-1.65c2-.33,7.62-.27,14.94,1.07"/><path class="cls-16" d="M306.28,255.45c-5-1-16.66-.3-19.28,1.16,0,0,4.89,5.12,16.48,7.54S317.8,263,317.8,263,312.64,256.77,306.28,255.45Z"/><path class="cls-17" d="M292.16,255.46s6,.76,10.78,1.75,10.59,2.7,10.59,2.7,1.49-3.37-7.1-5.16S292.16,255.46,292.16,255.46Z"/><path class="cls-18" d="M303.81,262.59c-5.27-1.9-10.4-5-16.81-6,0,0,.28,7.59,13.9,10.43s16.9-4,16.9-4C311.55,261.32,309.39,263,303.81,262.59Z"/><path class="cls-18" d="M312.76,254c-2.82-.8-4.86-.1-6.1-.36s-2.83-1.72-5.74-2.1c-2.72-.36-15.41,3.8-14.32,4.91s10.87-1.85,19.49-.06,10.7,7.23,12.14,6.64S315.4,254.75,312.76,254Z"/><path class="cls-12" d="M313.61,203.14s3.88,6.05-1.93,9.08Z"/><path class="cls-12" d="M320.74,205.07s-4.86,5.29.33,9.28Z"/><path class="cls-19" d="M252.14,221.29c-2.91-12.44-6.39-13.13-6.39-13.13s-2.82,2.28-2.59,7.86"/><path class="cls-19" d="M250.15,222c-3.07-.85-1.69,5.42-2.79,6.65s-1.62-2.64-1.24-7.12c0,0,1-6,4.19-6.53"/><path class="cls-12" d="M304.38,190.72s7,5.14,14.79,6.27,17.56,1.53,17.56,1.53"/><path class="cls-11" d="M348,416.72s-11.28,12.63-13.11,18.15S338.14,506,338.14,506l2.16,1.54s-5.66-60.32-3.57-70.91S348,416.72,348,416.72Z"/><path class="cls-3" d="M215.91,896.6l37.77,13.89c2.92,2.11-32.66,25.55-72-4.43Z"/><path class="cls-15" d="M345.41,177c-.07-.16,0,.07,0,0-1.5-3-2.27-6.12-3.9-9.07s-3.2-5.54-5-8.34c-.11-.17-2.64-.64-2.75-.8l-.11-.17-.17-.27-.4-.6a59.09,59.09,0,0,0-39.5-8.24A49,49,0,0,0,252,205c.33,2.3-1.4,4.74.55,6.31s2.31,1,4.56-.09a16.11,16.11,0,0,0,5.45-5c7.22-9.69,11.21-26.29,10.54-38.35,1.07,2.43,11.27,1.69,13.24,3.47A19,19,0,0,0,313.17,170a29.29,29.29,0,0,0,2.4,4.12c8.35,12,20.57,19,32.61,13.41C348.62,187.3,346.35,178.92,345.41,177Z"/><path class="cls-20" d="M277.59,210.24l.44,4.4a61,61,0,0,0,1.75,12.15c1,2.74,17.67,7.46,21.42,6.28s7.78-10.42,9.17-12.46l6.67,1.9c-.05,3,0,12.66,1,14.19s8.8,3.05,9.68,3.22,1.75.32,2.88.48c3,.44,6.64.75,8-.09,2-1.24,5.15-7,8-12.43L347,227a4.64,4.64,0,0,0,.23-.41h0l.51-1c-8.68-6.83-21.61-8.93-30.64-5l0,.11-6.49-1.88c-6.32-6.62-18.58-12.21-28.59-10.71h0l-29.63-1.67-.66,2.51ZM319,235.94c-.63-.95-.85-7.75-.86-13,7.82-3.29,19.47-1.38,27.34,4.23l0,.13C344,230.22,339.91,238,338,239.23c-2.31,1.44-17.8-1.76-18.93-3.26Zm-37.1-9.39a87.76,87.76,0,0,1-2.29-15.8c9-1.88,22.81,3.42,29,9.74-2.08,3.78-5.14,10.5-7.83,11.35-3.87,1.22-18.28-3.56-18.9-5.29Z"/><path class="cls-21" d="M319.23,235.85c-.62-1-.85-7.75-.86-13,7.82-3.3,19.47-1.38,27.34,4.23l0,.12c-1.53,2.93-5.57,10.72-7.53,11.94-2.31,1.44-17.79-1.77-18.93-3.27Z"/><path class="cls-21" d="M281.94,226.55a87.76,87.76,0,0,1-2.29-15.8c9-1.88,22.81,3.42,29,9.74-2.08,3.78-5.14,10.5-7.83,11.35-3.87,1.22-18.28-3.56-18.9-5.29Z"/><path class="cls-22" d="M238.62,207.87s-21.64-21.28-9.53-38.8c2.33-3.36,2.34-2.14,2.92-5.26,3-16.37-3.32-13.32,23.68-28.93s30.5-14.74,66.87-6.46c18.76,4.27,27.95,13.77,31.32,26.57a58.58,58.58,0,0,1,1.36,19.1s-37.1-16.9-62.06-7.93-55.3,45.85-52.34,59.59C241.68,229.6,238.62,207.87,238.62,207.87Z"/><path class="cls-8" d="M226.36,187.61s40.12-43,84.2-37.83c0,0-53.3-14-83.11,21.12l-1,4.5a25.28,25.28,0,0,0-.48,8.54Z"/><path class="cls-2" d="M1177.51,905.46c-5.37,2.08-8.75,4.77-12.37,7.37a3.12,3.12,0,0,1-2.8,1c-2.13-.26-1.53-1.2-1.21-1.78,2.48-4.39,4-8.93,8.53-13,.91-.82,2.73-1.66.95-3.14-12.17,4.72-18.75,11.16-26.28,17.36,0-3.5.19-6.87-1.27-10.22-3,2.66-2,5.77-5.61,9,.1-6.68.24-12.7,1.39-18.73l-1.93-.06c-2.46,4.93-4.91,9.85-7.65,15.33-2.56-5.07-2.46-9.84-7.56-14,.47,4.88,1.62,9.7-2.2,15.25a40.29,40.29,0,0,0-13.36-14.18c2.56,7.63,5.22,15.2,4.14,23l-9.54-13c-1.23,4.39.06,8.74-2.33,13.31a6.41,6.41,0,0,1-1.17-1.27,175.86,175.86,0,0,1,1.48,20.52,1.47,1.47,0,0,1-2.92.32c-.11.39-.23.79-.34,1.19q.09,2.64.21,5.28c.34,7.56.84,15.11,1.34,22.66h50.83c6.25-13.84,13.41-27.12,20.87-40.15.21-.37,1.28,6.83,1.49,6.45.91-2.51,2.64,0,3.94-2.27.51-.9,8-15.71,8.6-16.58-.41.33-9.26,2.11-9.69,2.44C1172.2,913,1175.59,909.29,1177.51,905.46Z"/><path class="cls-2" d="M704.6,907.57c-6.13,2.08-10,4.77-14.12,7.38a3.87,3.87,0,0,1-3.19,1c-2.43-.26-1.75-1.2-1.38-1.77,2.82-4.4,4.53-8.94,9.73-13.05,1-.82,3.11-1.66,1.09-3.13-13.9,4.71-21.4,11.15-30,17.35,0-3.5.21-6.87-1.46-10.22-3.42,2.66-2.29,5.77-6.39,9,.11-6.68.27-12.7,1.58-18.73l-2.2-.06c-2.8,4.93-5.61,9.85-8.72,15.33-2.93-5.07-2.81-9.84-8.63-14,.53,4.88,1.84,9.7-2.51,15.25a43.13,43.13,0,0,0-15.25-14.18c2.92,7.64,6,15.2,4.72,23l-10.88-13c-1.4,4.39.07,8.74-2.66,13.31a6.89,6.89,0,0,1-1.34-1.27,156.72,156.72,0,0,1,1.7,20.52,1.69,1.69,0,0,1-3.34.32c-.12.4-.26.79-.38,1.19.07,1.76.14,3.52.23,5.28.4,7.56,1,15.11,1.53,22.67h58a448.84,448.84,0,0,1,23.8-40.15c.25-.38,1.47,6.82,1.71,6.44,1-2.51,3,0,4.49-2.27.58-.89,9.18-15.71,9.81-16.58-.46.33-10.56,2.11-11,2.44C698.54,915.06,702.41,911.4,704.6,907.57Z"/><path class="cls-2" d="M616.94,934.52s-6.43-31.69-18.83-37.2l3.21,26.18-17.91-12.4s10.57,18.82,5.51,23.42"/><path class="cls-6" d="M187.38,673.88s20.82-68.69,30.25-107.1a85.13,85.13,0,0,0,13.67,1.7c-2,15.15-7.78,35.34-7.8,36.29-.22,9.67,28.75,21.1,47.11,4.61,11.65-10.47-7.27-51.59-15.14-67.31-1.92-3.84-3.18-6.16-3.18-6.16s-6.17-11-13.33-8.67c-2.06-1.92-4.92,3.24-7.09,1.45,10.15-4.24,13.53-4.58,13.53-4.58,25,12.88,53.22,86.43,62.81,107.79s27.16,87.82-7.75,97.13c-2.22.6.47.6-67.2,2.17C179.43,732.48,187.38,673.88,187.38,673.88Z"/><path class="cls-23" d="M258.38,548s26.42,55.08,24.14,75.1-56.53,14.24-60.59,6.25,9.35-60.85,9.35-60.85-2.2,38.12,2.24,42.33S241,620,258.6,614.7s13.95-10.23,10.65-23.3S258.38,548,258.38,548Z"/><path class="cls-24" d="M253.4,596.27c-1.9,0-4.55,4.25-6,6.86l-.28-.53c1.29-4.34,3.56-12.67,1.68-11.65-1.66.88-3.09,4.95-3.87,7.65-.22-.38-.43-.76-.66-1.14,1.06-6.35-2.46-14.55-2.46-14.55l-.72,2.89a23.46,23.46,0,0,0,0,6.59c-2-3-3.93-5.23-5.45-5.95-7-3.28-9.49-.34-9.49-.34s9.72,4.67,11.38,7.64l1.65,3s-12-2.71-12.05-.49,13.6,5.43,13.6,5.43-11,.21-11.48,4,14.15-1.27,14.15-1.27l.64,1.93a9.62,9.62,0,0,0-4.27.54c-5.21,1.74,2.52,4.48,6.33,5.65l7.27,22,8.19-1.27-4.19-9s-3.48-8.15-7.86-16.91C251.58,603.68,255.48,596.22,253.4,596.27Z"/><path class="cls-25" d="M255.47,636.76s-3.11-29.62-33.81-21.59c0,0-3.37,11.56.27,14.16S236.15,638.41,255.47,636.76Z"/><path class="cls-26" d="M271.78,632.78a10.77,10.77,0,1,1,10.86-10.65A10.75,10.75,0,0,1,271.78,632.78Z"/><path class="cls-27" d="M253.91,630.3a10.74,10.74,0,1,1,21.48.24l0,1.85c-5.32,2.9-11.59,3.92-18.85,4.72C255.39,635.39,253.88,632.5,253.91,630.3Z"/><path class="cls-6" d="M216.83,568.71s12.37-40.54,16.59-42.58,12-2,12-2l-15.63,50.57Z"/><path class="cls-3" d="M224.1,501.77l24.55,1.72s24,13.26,26,17.6,4,10.38-3.35,11.5c0,0,.38,8.28-3.92,8.88s-7.7-3.34-7.7-3.34,2.92,7.65-2.21,9-6.24-1.43-6.24-1.43-1.52,3.36-3.69,2.44a63.69,63.69,0,0,1-8.31-5.93s-12.92-2.79-19-7a33.88,33.88,0,0,1-9.69-11.86Z"/><path class="cls-12" d="M259.11,524.2a17.71,17.71,0,0,1,11.83,7.93"/><path class="cls-6" d="M518.53,579.9c-5.33-15.91-21.74-65.51-29.15-95.67-4.57,1-6,.85-10.64,1.15,1.86,14.31,7.35,33.39,7.37,34.29.21,9.13-27.17,19.93-44.52,4.35-11-9.89,6.87-48.74,14.31-63.59,1.81-3.63,3-5.83,3-5.83s5.83-10.37,12.6-8.19c1.95-1.82-.68.84,1.37-.86-9.59-4-7.45-2.09-7.45-2.09-23.65,12.17-50.29,81.66-59.35,101.84s-19.68,70.85,1.48,89.23c6,5.23,5.4,3.12,69.34,4.6,38.48.91,43.55-30.56,43.73-45.93A40,40,0,0,0,518.53,579.9Z"/><path class="cls-23" d="M453.15,466s-25,52-22.8,71,53.41,13.45,57.24,5.9-8.83-57.49-8.83-57.49,2.08,36-2.12,40-7,8.72-23.69,3.68-13.19-9.66-10.07-22S453.15,466,453.15,466Z"/><path class="cls-28" d="M452.29,513.85c1.86-2,9.9-5.05,9.9-5.05l-.31-5.71,11.45-.74.76,5.74a79.84,79.84,0,0,1,8.33,2c2.55.91,5.17,32.75,5.17,32.75-6.21,7.19-33.07,6.88-33.07,6.88S450.43,515.88,452.29,513.85Z"/><path class="cls-29" d="M430.46,528.21c31-7.12,34.46,21.41,34.46,21.41-19.49,1.47-28.46-5.53-31.82-8.82C429.43,538.49,430.46,528.21,430.46,528.21Z"/><path class="cls-30" d="M462.05,549.78s-.66-27.3-31.62-20.18c0,0-1.17,8.87,2,13.71C435.77,546.6,442.56,551.25,462.05,549.78Z"/><path class="cls-31" d="M519.82,601.39a54.57,54.57,0,0,0-2.51-23.55c-6.08-18.2-21.22-64.36-28.25-93l-.05,0q-1.15-3.19-2.34-6.38c-1.36-3.63-2.74-7.26-4.17-10.86-1.54-3.9-3.12-7.78-4.81-11.61-1-2.31-2-4.64-3.25-6.86-1.06-1.94-2.13-3.66-4.28-4.52a10.83,10.83,0,0,0-3.38-.69,4.49,4.49,0,0,0-1.51.05,6.16,6.16,0,0,0-1.31.71c-.56.32-1.1.68-1.63,1a35.9,35.9,0,0,0-3.3,2.6,60.43,60.43,0,0,0-6.62,7,109.8,109.8,0,0,0-6.59,8.89c-2.28,3.37-4.42,6.84-6.47,10.35-2.17,3.72-4.24,7.49-6.24,11.3s-4,7.81-5.92,11.77-3.72,7.8-5.51,11.73q-2.55,5.58-5,11.21-2.24,5.07-4.4,10.18-1.84,4.34-3.7,8.68c-.93,2.18-1.86,4.36-2.83,6.52-9.07,20.19-19.36,70.23,1.8,88.61,6,5.23,5.08,3.73,69,5.21C509.45,640.52,517.93,617.66,519.82,601.39Z"/><path class="cls-32" d="M471.42,466.11a88.88,88.88,0,0,1,9,30.17"/><path class="cls-3" d="M463.4,449a78.85,78.85,0,0,0-10.26,1.26c-3.07.82-3.23,1.51-3.23,1.51l0,.21c-.68.67-2,1.81-1.9,2.52.1,1.24-.08,3.05,2.89,3.93l.31.68c-.88.86-2.2,2.43-2,3.94a4.07,4.07,0,0,0,3.31,3.39v.1c-.89.1-3.38.58-3.54,2.68-.21,2.56,3.25,3.41,3.25,3.41s-2.32-.43-2.68,1.6,3.16,2.82,3.16,2.82a14.29,14.29,0,0,0,1.39-1.91l.5,2.74s8.2,3.7,9.48,4.44a3,3,0,0,0,2.3,0,4.8,4.8,0,0,0,2-.9,2.26,2.26,0,0,0,.54-1.55,24.84,24.84,0,0,0-.78-5.55l-1.32-7-2.23-11.79-1.23-6.46Z"/><path class="cls-11" d="M368.9,452.23s-9.79,5.6-13.11,15a19.52,19.52,0,0,1,12.82-16.36Z"/><path class="cls-11" d="M142.44,483.53s26.58,29,48.3,37.56h0l5.28-5.35,1.36,1.16-6.47,5.88s-14.39-7.41-24.12-15.13S142,485.23,142,485.23l.48-1.7"/><polyline class="cls-11" points="221.48 489.91 218.26 493.71 218.54 494.58 222.17 490.52 221.48 489.91"/><path class="cls-4" d="M281.89,924.68s1.59-5.11-2.44-6.34-25.65-9.83-27.73-9.27c.14,1.5-1.63,3.62-6,5.31s-9.26,3.77-20.94,2.41c-8.75-1-26.73-2.7-34.87-6.67-2.72-1.33-6.87-6.16-7.09-6.89-8.33,11-4.78,21.87-.43,24.28s29,2.4,29,2.4l22.08,3.57,20.55-.56,8.6-.83,10.22-2.29Z"/><path class="cls-5" d="M181.23,926.53c2.73.73,11.4,1.54,18.74,1.14,19.71-1.06,26.49,1,33.31,2.5a82.47,82.47,0,0,0,11.89,2c23.25,2.19,36.06-7.13,36.5-7.51a2.28,2.28,0,0,1,.7,1.07,18,18,0,0,1-4.52,3.48c-6.26,3.39-15.28,7.42-33.26,6.08-5.1-.37-8.16-.51-11.56-1.28a83,83,0,0,0-21.48-2.31l.29,3.33s-20.82,2.33-30.53-1C180.25,928.93,181.23,926.53,181.23,926.53Z"/><path class="cls-5" d="M180.87,931c12.76,2.3,26.38,1.38,30.71,1.08l.26,2.93s-20.82,2.33-30.53-1A23,23,0,0,1,180.87,931Z"/></g><g id="Layer_3" data-name="Layer 3"><rect class="cls-33" x="695.5" y="61.43" width="20.92" height="865.04"/><rect class="cls-34" x="716.37" y="66.11" width="383.07" height="860.07"/><rect class="cls-33" x="695.5" y="53.26" width="425.44" height="21.11"/><line class="cls-35" x1="695.5" y1="53.26" x2="716.42" y2="74.37"/><path class="cls-36" d="M768,524.28h42.27c2.79,0,5.06,3,5.06,6.67h0c0,3.68-2.27,6.67-5.06,6.67H768c-2.8,0-5.06-3-5.06-6.67h0C762.91,527.27,765.17,524.28,768,524.28Z"/><path class="cls-36" d="M767.87,538.91l-.93-.06a6.15,6.15,0,0,1-4.85-2.93,9.43,9.43,0,0,1-1.06-3.66,10.93,10.93,0,0,1,.31-4.42,6.52,6.52,0,0,1,4.88-4.22c.47-.13,6.27-.81,6.27-.43V499.26c0-6.93-4.44-12.55-9.91-12.55h-3.51c-5.48,0-9.92,5.62-9.92,12.55v86.53c0,6.93,4.44,12.55,9.92,12.55h3.51c5.47,0,9.91-5.62,9.91-12.55v-41c0-2,0-4,0-6.07C770.94,538.7,769.4,538.94,767.87,538.91Z"/><path class="cls-37" d="M762.36,578.9v4.91a1.77,1.77,0,1,1-3.52,0V578.9a4.31,4.31,0,0,1-2.27-3.95,3.92,3.92,0,1,1,7.81.19A4.31,4.31,0,0,1,762.36,578.9Z"/><rect class="cls-33" x="1098.44" y="60.43" width="22.5" height="865.74"/><path class="cls-38" d="M634.54,450.72c-22.36-13.27-38.91-32.35-45.66-60.8a88.08,88.08,0,0,1,2.31-49.53,91,91,0,0,1,22.32-35.86c3.67-3.67,3.64-3.91.87-8.69a88.94,88.94,0,0,1-12.87-40.25c-1.52-24.81,6.83-49.09,22.74-66.14,19.12-21.58,44.88-33.83,71.8-34.15,6.78-.28,13.78.44,20.78.88,2.45.16,3.78-.6,4.34-3.51a59.08,59.08,0,0,1,2.59-9.24c10-27.7,28.27-45.55,52.13-56.62A103.59,103.59,0,0,1,878.47,97.05a96.12,96.12,0,0,1,24,25,4.2,4.2,0,0,0,.55,1,3.22,3.22,0,0,0,4.94.35,104.5,104.5,0,0,1,39-15.23,102.15,102.15,0,0,1,64.62,10.08,93.42,93.42,0,0,1,33.59,28.42c13.68,18.56,20.61,39.64,17.74,64.19-.38,3.26.46,4.62,3.33,5.34a153.55,153.55,0,0,1,23,6.61c19.48,7.69,32.27,22.46,43.65,42a87.49,87.49,0,0,1,10.5,58.21c-4.66,29.53-16.58,50-38.83,64.67a92.87,92.87,0,0,1-36.07,14.39c-4.06.72-4.79,1.87-4.06,6.49a86.65,86.65,0,0,1-5.25,46.62c-11,26.82-29.91,43.76-53.77,53.72a100.08,100.08,0,0,1-54,6.77,101.55,101.55,0,0,1-53.33-24.39,4,4,0,0,0-.57-.6,3.67,3.67,0,0,0-5.58.88c-15.29,16.44-34.58,27.22-55.35,30.92a103.51,103.51,0,0,1-34.36.76,98.43,98.43,0,0,1-44.51-18c-14.62-10.12-26.24-25-33.34-42.75-1.4-3.63-3.18-4.27-6.37-3.23a99.3,99.3,0,0,1-32.26,5.54A102.47,102.47,0,0,1,634.54,450.72Z"/><path class="cls-17" d="M641.9,438.68c-22.35-13.27-38.9-32.35-45.65-60.8a88,88,0,0,1,2.3-49.53,91.12,91.12,0,0,1,22.33-35.86c3.67-3.67,3.64-3.91.87-8.69a88.94,88.94,0,0,1-12.87-40.25c-1.52-24.81,6.83-49.09,22.74-66.14,19.12-21.58,44.87-33.83,71.79-34.15,6.79-.28,13.79.44,20.79.88,2.44.16,3.77-.6,4.33-3.51a60.19,60.19,0,0,1,2.59-9.24c10-27.7,28.27-45.55,52.13-56.62A103.6,103.6,0,0,1,885.84,85a96.45,96.45,0,0,1,24,25,3.86,3.86,0,0,0,.55,1,3.21,3.21,0,0,0,4.94.34,104.65,104.65,0,0,1,39-15.22,102.16,102.16,0,0,1,64.62,10.08,93.5,93.5,0,0,1,33.59,28.42c13.68,18.56,20.61,39.64,17.74,64.19-.39,3.26.45,4.62,3.32,5.34a153.21,153.21,0,0,1,23,6.61c19.49,7.69,32.28,22.46,43.66,42a87.55,87.55,0,0,1,10.5,58.21c-4.66,29.53-16.58,50-38.83,64.67A92.87,92.87,0,0,1,1075.86,390c-4.06.72-4.8,1.87-4.06,6.49a86.65,86.65,0,0,1-5.25,46.62c-11,26.82-29.91,43.75-53.78,53.72a100.06,100.06,0,0,1-54,6.77,101.55,101.55,0,0,1-53.32-24.39,4,4,0,0,0-.57-.6,3.68,3.68,0,0,0-5.59.88C884,496,864.69,506.74,843.92,510.44a103.45,103.45,0,0,1-34.35.76,98.43,98.43,0,0,1-44.51-18c-14.62-10.12-26.24-25-33.34-42.75-1.4-3.63-3.19-4.27-6.37-3.23a99.39,99.39,0,0,1-32.26,5.54A102.51,102.51,0,0,1,641.9,438.68Z"/><g id="freepik--character-1--inject-1332-2" data-name="freepik--character-1--inject-1332"><path class="cls-3" d="M830.26,415s-4.08,27.92-4.08,29.57l-13.76,2.79-5.49-3.86L803.34,413Z"/></g><path class="cls-3" d="M807,442.23l-24.85,10.64c-1.87,1.36,21,16.42,46.23-2.84l-2.18-6.66Z"/><path class="cls-4" d="M764,462s-1-3.28,1.57-4.07,16.49-6.32,17.82-6c-.09,1,1.05,2.33,3.87,3.41s6,2.42,13.45,1.55c5.63-.65,17.18-1.73,22.41-4.28a15.71,15.71,0,0,0,4.56-4.43c5.35,7.1,3.07,14.05.27,15.6s-18.63,1.54-18.63,1.54l-14.19,2.29-13.2-.35-5.53-.53-6.56-1.48Z"/><path class="cls-5" d="M828.68,463.18a51.81,51.81,0,0,1-12,.73c-12.66-.68-17,.62-21.4,1.61a53.87,53.87,0,0,1-7.64,1.3c-14.94,1.41-23.17-4.59-23.46-4.83a1.57,1.57,0,0,0-.45.69,11.72,11.72,0,0,0,2.91,2.24c4,2.18,9.82,4.76,21.37,3.9a50.11,50.11,0,0,0,7.43-.82,53.38,53.38,0,0,1,13.8-1.49l-.18,2.15s13.37,1.49,19.61-.67C829.32,464.72,828.68,463.18,828.68,463.18Z"/><path class="cls-5" d="M828.91,466.08a83.75,83.75,0,0,1-19.73.69l-.16,1.89s13.37,1.49,19.61-.67A13.15,13.15,0,0,0,828.91,466.08Z"/><path class="cls-9" d="M221.48,284.22s-43.66,2.85-59.57,24.33-51.67,85.7-52.52,99.94c-3.9,65,81.35,112.6,81.35,112.6l30.43-30.82L173,425.15l22.48-60.65Z"/><path class="cls-11" d="M210.66,298.87s14.27,19,7.39,34.72-48,86.67-48,86.67l51.39,69.65-.71,1.79-52.7-71.38s49.9-83.76,49.81-94.74C217.88,325.58,219.48,317.13,210.66,298.87Z"/><path class="cls-12" d="M470.25,458.16a1.43,1.43,0,0,1-.46.07l-1.34.08-4.9.24-7.28.3a36,36,0,0,1-4.32.06,5,5,0,0,1-4.11-2.14,3.56,3.56,0,0,1-.41-2.41,5.1,5.1,0,0,1,1-2.12,6.64,6.64,0,0,1,3.76-2.19,24.21,24.21,0,0,1,3.89-.5l3.36-.27,4.9-.36,1.34-.09c.29,0,.46,0,.46,0l-.46.09-1.33.14-4.87.52-3.34.28a25.68,25.68,0,0,0-3.81.53,6.2,6.2,0,0,0-3.54,2.06,3.66,3.66,0,0,0-.58,4,3.76,3.76,0,0,0,1.63,1.4,6,6,0,0,0,2.13.52c1.45.1,2.91,0,4.28,0l7.24-.16,4.9-.11h1.34Z"/><path class="cls-12" d="M468.72,467.05a3.63,3.63,0,0,1-1,.09l-2.84.05c-2.4,0-5.72-.1-9.37-.4a22,22,0,0,1-2.68-.29,5.2,5.2,0,0,1-2.33-1.05,4,4,0,0,1-1.16-4,3.72,3.72,0,0,1,1.81-2.19,3.3,3.3,0,0,1,.73-.3c.18,0,.27-.05.27,0a8.68,8.68,0,0,0-.92.45,4,4,0,0,0-1.54,2.2,3.65,3.65,0,0,0,1.13,3.63,4.85,4.85,0,0,0,2.17.94c.83.16,1.72.21,2.63.3,3.64.27,6.93.43,9.32.5l2.84.1A5.35,5.35,0,0,1,468.72,467.05Z"/><path class="cls-12" d="M466,474.87a5.29,5.29,0,0,1-1-.08l-2.59-.37L453.88,473a20.58,20.58,0,0,1-2.46-.49,4.51,4.51,0,0,1-2-1.2,2.67,2.67,0,0,1-.72-2.08,2.87,2.87,0,0,1,.86-1.68,3.9,3.9,0,0,1,2.42-1.05,2.75,2.75,0,0,1,1,0s-.35,0-.95.15a3.93,3.93,0,0,0-2.22,1.07,2.53,2.53,0,0,0-.7,1.49,2.12,2.12,0,0,0,.66,1.75,4,4,0,0,0,1.87,1.07,18.22,18.22,0,0,0,2.32.43c3.34.58,6.35,1.12,8.52,1.54l2.57.52A3.76,3.76,0,0,1,466,474.87Z"/><path class="cls-12" d="M462.77,481.63a15,15,0,0,1-2.67-1c-1.63-.67-3.86-1.63-6.32-2.7l-1.78-.78a7.62,7.62,0,0,1-1.67-.88,2.61,2.61,0,0,1-1-1.42,1.74,1.74,0,0,1,.29-1.5,2.44,2.44,0,0,1,1.92-.91,1.17,1.17,0,0,1,.76.16,7.4,7.4,0,0,0-.74,0,2.49,2.49,0,0,0-1.69.92,1.35,1.35,0,0,0-.19,1.23,2.33,2.33,0,0,0,.89,1.2,7.41,7.41,0,0,0,1.59.8l1.79.78c2.45,1.07,4.66,2.07,6.27,2.8A18.3,18.3,0,0,1,462.77,481.63Z"/><line class="cls-35" x1="1119.94" y1="53.26" x2="1099.2" y2="75.69"/><path class="cls-38" d="M548.64,231.43a32.21,32.21,0,1,1,18-42A32.42,32.42,0,0,1,548.64,231.43Z"/><path class="cls-38" d="M468.93,208.19a22.62,22.62,0,1,1,12.63-29.45A22.75,22.75,0,0,1,468.93,208.19Z"/><path class="cls-38" d="M418.8,238.2a15.14,15.14,0,1,1,8.45-19.72A15.24,15.24,0,0,1,418.8,238.2Z"/><path class="cls-17" d="M552.29,222.51a32.21,32.21,0,1,1,18-41.95A32.42,32.42,0,0,1,552.29,222.51Z"/><path class="cls-17" d="M472.58,199.27a22.62,22.62,0,1,1,12.63-29.45A22.75,22.75,0,0,1,472.58,199.27Z"/><path class="cls-17" d="M421.45,231.28a15.14,15.14,0,1,1,8.45-19.72A15.24,15.24,0,0,1,421.45,231.28Z"/><path class="cls-9" d="M915.4,149.07c-4.34-5.26-15.3-7.48-20.58-4.79s-42.22,61.37-42.22,61.37l-44.83-14.46-10.12,25.29s56.07,26.86,65.34,26.86c7-.07,37.94-34.06,51.73-55.79A36.82,36.82,0,0,0,919.19,158,27,27,0,0,0,915.4,149.07Z"/><path class="cls-39" d="M793.16,369.06c-.32-.47-.64-.95-.95-1.43.26-.2.55-.4.86-.6A9.77,9.77,0,0,0,793.16,369.06Z"/><path class="cls-40" d="M917.94,329.8c17.76,0,35.52-2.12,53.29-2.21,3.85,0,7.4.79,7.7,4.21.77,8.83,1.86,18.37-11.5,17.43-1-.07-2.07.11-3.07,0-4.65-.65-5.37,1.27-4.76,4.66,2,11,3.8,19.37,5.62,30.36,4.29,25.86,8.6,51.71,12.75,77.59,1.15,7.13.91,7.07-8,6.93-2.75,0-3.91-.75-4.29-3.12-4.09-25.44-8.35-50.87-12.41-76.32-.47-3-1.58-4.13-5.38-4.1q-29.71.26-59.44,0c-3.9,0-5.23,1-5.75,4.25q-5.75,36.24-12,72.44c-1.2,7.09-1.37,6.92-10,6.81-3.47,0-3.86-1.06-3.43-3.64,6.4-37.84,12.66-73.08,19.08-110.92.66-3.87-.35-5.73-5.37-5.05a37.85,37.85,0,0,1-5.11,0c-7.59,0-9.08-3.93-9.09-10.61,0-7.27,1.38-10.81,8.88-10.82h52.26ZM947,376.6c3.84.09,4.63-1.05,4.09-4-1.56-8.55-3-11-4.28-19.54-.43-2.84-1.51-4.09-5.4-4-15.69.25-31.39.22-47.08,0-3.58-.05-4.69,1.09-5.11,3.77-1.37,8.86-2.82,11.56-4.42,20.39-.51,2.86.84,3.42,3.87,3.38,9.89-.12,19.79-.05,29.68-.05C927.91,376.53,937.47,376.39,947,376.6Z"/><path class="cls-41" d="M965.19,384.26l2,12c-4.15.82-8.27,1.78-12.39,2.77l-1.56-9.66c-.47-3-1.58-4.13-5.38-4.1q-29.72.24-59.44,0c-3.9,0-5.23,1-5.75,4.24q-.75,4.69-1.51,9.38a112,112,0,0,1-11.63-4.94c2.26-13.08,4.53-26.24,6.82-39.74a7.35,7.35,0,0,0,0-3.14q4.06.27,8.13.42c1.67.06,3.33.11,5,.15a7.81,7.81,0,0,0-.29,1.24c-1.37,8.86-2.82,11.56-4.42,20.39-.51,2.86.84,3.41,3.87,3.38,9.89-.13,19.79-.05,29.68-.05,9.55,0,19.11-.14,28.65.07,3.84.09,4.63-1.06,4.09-4-1.56-8.54-3-11-4.27-19.53a5.53,5.53,0,0,0-1-2.66c4.71-.14,9.41-.26,14.12-.32-.64.83-.67,2.13-.37,3.79C961.55,364.87,963.36,373.26,965.19,384.26Z"/><path class="cls-41" d="M979.08,333.6s-56.73,8.44-81.2,5.27-41-3.85-40-7.64,18.31-11.91,35.74-12.49,65.23,3.81,65.23,3.81,16.05,2.7,17.73,5A18.89,18.89,0,0,1,979.08,333.6Z"/><path class="cls-9" d="M864.88,177.91,845.53,231,830.31,212.2c6.88-28.25,13.86-46.74,23.53-64.07Z"/><path class="cls-42" d="M857.83,152.38A53.48,53.48,0,0,1,859.92,166,53,53,0,0,1,857.83,152.38Z"/><path class="cls-9" d="M925.43,130.52A102.09,102.09,0,0,1,939.3,139c8,5.8,18.87,13.28,20.7,30.54s-7,45.74,0,66.68A194.68,194.68,0,0,1,968.63,276L891.89,167Z"/><g id="freepik--character-1--inject-1332-3" data-name="freepik--character-1--inject-1332"><path class="cls-3" d="M853.21,417.65s-4.08,27.93-4.08,29.58L835.37,450l-5.49-3.85-3.59-30.53Z"/></g><path class="cls-11" d="M973,294.34s6.92,32.37-11.16,37.55-94.8,6.43-94.8,6.43-1.49,22.77-4.41,43.78c-2.68,19.33-7.31,47.18-7.31,47.18s-53.07,3.9-59.23-7.29c0,0-23.1-86.76-6.52-124.22,4.8-10.85,45.19-21.8,56.21-24.56s31.55,0,31.55,0S934.91,308.56,973,294.34Z"/><path class="cls-7" d="M923.38,54.52c-2.31-2.93-5.78-4.79-9.28-3.65-.21-6.95-7.16-10.7-14.12-10.53-3.56.24-7.15,2-10.58,1-2.14-.62-3.81-2.19-5.68-3.47-7.81-5.18-19.28,1.91-25.31,9.1s-4,14.76-.32,23.37c1.73,4,1.6,6.23,2.29,10.56.65,4.09,3.54,11.6,3.8,15.69s-5.9,8.68-1.76,8.79L907,97.79c6.73,1,10.89-1.27,14-7.33,2-4.11,1.27-4.25,1.32-8.82.22-6,6-10.76,5.36-16.71C927.38,61.19,925.52,57.6,923.38,54.52Z"/><path class="cls-8" d="M928.94,54a70.13,70.13,0,0,0-35.82-3.61c-19.9,3.26-29,16-32.06,25s1.18,18,1.18,18S857.3,95,853,77.19c-6.22-26,19.78-43.23,26.26-43.48S918.51,25,928.94,54Z"/><path class="cls-3" d="M914.12,100.76s1.57,15.79,6.41,26.61c.67,1.5,10.81,6.85,10.81,6.85l-14.18,5.63c-8,2.31-26.18,2.94-34.17.56l-6.78-3.79s8.17-2.27,8.47-4.19-2-16.25-2-16.25"/><g id="freepik--character-2--inject-1332-2" data-name="freepik--character-2--inject-1332"><path class="cls-10" d="M901,162.23a22.91,22.91,0,0,0,1.48-2.71,10.1,10.1,0,0,0,.71-3.21,9.88,9.88,0,0,0-.58-4,10.09,10.09,0,0,0-1.44-2.61l-.09-.11.07-.17c.79-1.92,1.41-3.76,1.9-5a8,8,0,0,1,.88-1.93,1.06,1.06,0,0,1-.13.54l-.48,1.45c-.42,1.27-.92,3-1.75,5.13l0-.27a10.18,10.18,0,0,1,2.12,7,10.07,10.07,0,0,1-.87,3.31,8.8,8.8,0,0,1-1.16,2A3.22,3.22,0,0,1,901,162.23Z"/><path class="cls-10" d="M919.11,157.21a15.59,15.59,0,0,1,1.67-1.68,8.61,8.61,0,0,0,2.73-4.69c.14-1.06,0-2.13.17-3.14a3.35,3.35,0,0,1,1.25-2.33,2.09,2.09,0,0,1,1.76-.32c.42.15.56.37.54.38a2.73,2.73,0,0,0-.59-.19,2,2,0,0,0-1.51.41,3.19,3.19,0,0,0-1,2.12c-.13.92,0,2-.13,3.13a6.75,6.75,0,0,1-1.24,2.93,11.8,11.8,0,0,1-1.77,1.9A9.07,9.07,0,0,1,919.11,157.21Z"/><path class="cls-10" d="M913.45,153.2a24.34,24.34,0,0,1,2.43-2,14.69,14.69,0,0,0,4.64-5.75,8.36,8.36,0,0,0,.53-2,14.55,14.55,0,0,0,0-2,4.25,4.25,0,0,1,1-3.31,1.86,1.86,0,0,1,1.32-.55,1.83,1.83,0,0,1,1,.27c.5.34.51.73.5.72a1.38,1.38,0,0,0-.59-.54,1.69,1.69,0,0,0-2,.34,4,4,0,0,0-.79,3.05,14,14,0,0,1,0,2,8.47,8.47,0,0,1-.55,2.16,14,14,0,0,1-4.87,5.84c-.79.58-1.45,1-1.91,1.31A2.59,2.59,0,0,1,913.45,153.2Z"/><path class="cls-10" d="M922.32,133.22a6.17,6.17,0,0,0-1.63,2.19,13.68,13.68,0,0,0-.8,2.88,16,16,0,0,1-1,3.69,13.74,13.74,0,0,1-4.3,5.42,11.88,11.88,0,0,1-1.8,1.1,2.44,2.44,0,0,1-.74.27c0-.08,1-.55,2.31-1.66a14.62,14.62,0,0,0,4.06-5.35,17.53,17.53,0,0,0,1-3.56,12,12,0,0,1,.93-3A3.59,3.59,0,0,1,922.32,133.22Z"/></g><g id="freepik--character-1--inject-1332-4" data-name="freepik--character-1--inject-1332"><path class="cls-3" d="M882.81,134.14l40-2.58,5,14.58s-9.91,10.1-11,10.6-25.58,6.95-25.58,6.95-28.37-9.33-28-9.26S882.81,134.14,882.81,134.14Z"/><path class="cls-9" d="M962.64,302.73a31.61,31.61,0,0,1-8.16,1.86,65.29,65.29,0,0,1-9.06.42,55,55,0,0,1-15.54-2.53A134.3,134.3,0,0,1,916,297c-9.11-4.09-17.93-8.77-27.06-12.81s-18.54-7.39-28.44-8.74c-7-1-14.87-3.47-21.58-.42-3.1-15.72,6.42-18.46,6.42-18.46l4.19-35.07L843,204.3c-2-9.31-.07-16.34,2.25-20.14l20.22-42.47,17.26-8c-.76,1.41-5.89,11.78,8.28,15.3h3.49c18.19-1.06,30.91-18.44,30.91-18.44l5.91,3.14,23.79,92.7s17.52,40.56,18.52,57.79c.16,2.66.34,7.23.43,12.16C970.29,298.5,966.71,301.08,962.64,302.73Z"/></g><line class="cls-11" x1="938.52" y1="214.56" x2="937.88" y2="214.27"/><path class="cls-9" d="M882.75,133.66s-26,6.91-29.33,15.3c-5,12.75-8.87,39.92-8.87,39.92l12.2.12Z"/><path class="cls-11" d="M841.68,196.61a44.86,44.86,0,0,1,2.47-9.22c1.1-3.33,2.34-6.59,3.72-9.81,2.85-6.67,6.19-13.1,9.69-19.45,1.68-3,3.4-6.08,5.11-9.11-2.8,5.76-5.32,11.67-8.27,17.36a141.47,141.47,0,0,0-8.12,17.71c-2.6,7.3-4.28,10.5-3.13,16.87S848.57,215,848.57,215l-.66.46S841,202.77,841.68,196.61Z"/><path class="cls-12" d="M884.45,128.45s3.31-.75,5.57-1.53,6.22-.88,16.29-10.72c0,0-2.45,11.51-15.85,14.73a16.59,16.59,0,0,1-5.8.52Z"/><path class="cls-3" d="M868.46,60.2a1.42,1.42,0,0,1-.12.25l.14-.12Zm-5.84,2.29,0,.1c.08-.09.17-.18.24-.27S862.62,62.49,862.62,62.49Zm51.26,40.78.43-2.2c3.23,3.48,7.53,0,7.2-5.46,1.17-2.86,2.15-12.07-.38-14.61l-.31-.37c-1.7-1-4.54-1.26-5.48.94-.28,1,.16,2-.12,3s-1.49-1.42-2-.44c0,0-1.46-.46-1.68-2.88s2.89-20.69-1.88-23.46c0,0-6.92,3.11-9.22.88l-.72-.15c-.42.06-.67.23-1.08.29,0-.13.1-.27.06-.53a4.57,4.57,0,0,1-1.77.4c.12-.15.38-.32.36-.44a7.64,7.64,0,0,1-1.65.24c.12-.14.35-.44.33-.56-.65.35-1.09.16-1.64.24a1,1,0,0,0,.19-.54,3.73,3.73,0,0,1-1.63.37c.12-.15.22-.42.34-.57-.65.36-1.1.17-1.65.25-.13,0,.24-.29.22-.42a4.94,4.94,0,0,1-1.35.33c0-.13.23-.29.21-.42a4.12,4.12,0,0,1-1.78.27l.33-.57a2,2,0,0,1-1.61.5c.12-.15.36-.44.34-.57a2.76,2.76,0,0,1-2.16.58c.14,0,.35-.44.34-.56a2.69,2.69,0,0,1-1.87.66c.12-.14.22-.42.45-.71a2.84,2.84,0,0,1-2.55.77c.14,0,.22-.42.2-.55-.47.59.46-.2-.24-.22a7.67,7.67,0,0,1-1.53.62c-.49.46,1.13-2.36.45-2.26.1-.27-3.91.82-3.68.53-.61.61-.51.33-1.35.32,0,0-2.63,1.94-2.51,1.79-.59.74-1,.25-1.83.25.12-.15.58.45.7.31-.48.58-.39-.07-1.08,0,0-.13-2.37-.49-2.39-.61-.63.48-.39.5-1.22.62,0-.12-.31,1.47-.19,1.32-.47.59-.51.17-1.21.15l-.62.57c-.59.73.31.32-.53.31,0-.08,3.16-.06,3.26-.25a5.1,5.1,0,0,1-1.65,1c0-.13.08-.4.06-.53a2.78,2.78,0,0,1-2.09,1.09c.14,0,.24-.3.22-.42a2.15,2.15,0,0,1-2.24,1v0a4.49,4.49,0,0,1-1.79,1.2.55.55,0,0,1,.2-.55l-.55.08c-.54,1.11-2.37.7-2.46,2,0,0-2.45,9.34-1.62,14s2.87,12.48,3.31,14.48a41.13,41.13,0,0,1,.69,6.35c.13,4.14.27,5.22,1.89,9.15a26.52,26.52,0,0,0,5.62,8.84c2.88,3.2,6.69,5.79,10.31,8.34a13.19,13.19,0,0,0,8.64,2.54c8.57-.86,16.16-7.9,20.78-14.18"/><path class="cls-13" d="M877.89,105.36a4,4,0,0,0,3.55-.76c.2-.17,1-.15.69.09a5.64,5.64,0,0,1-4.84,1c-.14-.05-.13-.15,0-.23a.91.91,0,0,1,.58-.06"/><path class="cls-13" d="M882.52,104.34a6.53,6.53,0,0,1,2.13-.88.53.53,0,0,1,.35.06c.08,0,.1.12,0,.18a2.51,2.51,0,0,1-1.17.46.48.48,0,0,1-.39-.09c-.08-.09,0-.18.13-.19a2.13,2.13,0,0,0,.95-.37l.37.23a6.12,6.12,0,0,0-1.9.79.46.46,0,0,1-.41,0c-.08,0-.19-.14-.08-.21"/><path class="cls-13" d="M885.56,104a3.1,3.1,0,0,0,2.22-1.43,2.53,2.53,0,0,0-1.55-3.09c-.13,0-.08-.15,0-.19a.75.75,0,0,1,.49,0,3.12,3.12,0,0,1,1.87,2.6,2.46,2.46,0,0,1-1.79,2.07,5.39,5.39,0,0,1-1,.28c-.14,0-.38,0-.47-.08s0-.16.16-.18"/><path class="cls-13" d="M876.19,105.15a.12.12,0,0,0-.14-.15,1.08,1.08,0,0,1-.72-.12l-.19.32a3.2,3.2,0,0,1,1.47.29.24.24,0,0,0,.27-.09c0-.05.1-.17,0-.22"/><path class="cls-13" d="M876.88,105.18a3.36,3.36,0,0,0-1.64-.31.27.27,0,0,0-.22.14.12.12,0,0,0,0,.18"/><path class="cls-13" d="M874.36,105.55a1.84,1.84,0,0,1-1.71-.85,2.62,2.62,0,0,1,.27-3c.07-.08,0-.16-.07-.18a.36.36,0,0,0-.3.15,2.94,2.94,0,0,0-.58,2.56,2.06,2.06,0,0,0,1.6,1.55,1.84,1.84,0,0,0,.66,0c.09,0,.24-.07.27-.18s-.06-.15-.14-.14"/><path class="cls-14" d="M865.91,89.19a2.16,2.16,0,0,0-2.19.71,2.13,2.13,0,0,0-.36,1,2,2,0,0,0,.74,1.74,1.86,1.86,0,0,0,2.18.05,2.06,2.06,0,0,0,.65-2.52,1.88,1.88,0,0,0-1-1"/><path class="cls-14" d="M873.1,90.72S869,88.35,867,88.45c-2.81.13-6,2.18-6.77,3.7,0,0,4.17-3,6.16-3S873.1,90.72,873.1,90.72Z"/><path class="cls-14" d="M889.07,86a2.63,2.63,0,0,1,2.51-.22,1.94,1.94,0,0,1,.72.82,2,2,0,0,1-.2,1.88,1.87,1.87,0,0,1-2.07.68A2.06,2.06,0,0,1,888.68,87c0-.15-.18-.42.39-.83"/><path class="cls-14" d="M884.56,88.79s3.79-3.29,5.85-3.66c3-.54,6.85.69,8,2,0,0-5.13-1.89-7.23-1.45S884.56,88.79,884.56,88.79Z"/><path class="cls-15" d="M871.62,80.89c.07.56.14,1.13.2,1.69l.15,1.29c-1.49-.19-2.75-.27-3.7-.32a12.25,12.25,0,0,0-4.15.2,11.57,11.57,0,0,0-2.52,1.14,7.37,7.37,0,0,0-1.29.9c-.88.81-1.18,1.65-1.35,1.6s0-.77,0-.84a6.56,6.56,0,0,1,1.72-3.11,7.88,7.88,0,0,1,2.51-1.54,28.27,28.27,0,0,1,8.41-1"/><path class="cls-15" d="M881.54,79.38c.14.55.28,1.1.43,1.65l.33,1.26c1.44-.75,2.69-1.31,3.64-1.71a14.36,14.36,0,0,1,4.29-1.4,13.23,13.23,0,0,1,3,.09,8.63,8.63,0,0,1,1.64.34c1.2.43,1.82,1.09,2,1s-.29-.71-.33-.78a6.69,6.69,0,0,0-2.9-2.23,8.85,8.85,0,0,0-3.13-.48,33.66,33.66,0,0,0-8.93,2.28"/><path class="cls-43" d="M915.14,91.68c2.45-7.48,4.62-7.71,4.62-7.71s1.61,1.54,1.17,5"/><path class="cls-43" d="M916.32,92.24c1.93-.36.75,3.41,1.36,4.22s1.13-1.53,1.13-4.3c0,0-.31-3.71-2.21-4.23"/><path class="cls-12" d="M886.29,71.4a23.4,23.4,0,0,1-9.41,3.06c-4.84.28-10.85,0-10.85,0"/><path class="cls-11" d="M844.63,207.54s4.5,8.2,5.33,11.68-3.46,32.42-3.46,32.42l-1.27,5.47s4.22-30.29,3.51-36.9A38.12,38.12,0,0,0,844.63,207.54Z"/><path class="cls-15" d="M860.27,59.53c.06-.09,0,0,0,0,1.09-1.77,1.72-3.63,2.88-5.35s2.26-3.23,3.49-4.86c.07-.09,1.65-.25,1.73-.34l.08-.1.11-.15.28-.35a36.43,36.43,0,0,1,24.68-3,30.18,30.18,0,0,1,22.56,36.23c-.32,1.39.61,3-.67,3.85s-1.47.49-2.8-.3a10,10,0,0,1-3.07-3.38c-3.91-6.33-5.48-16.73-4.42-24.09-.79,1.43-7,.43-8.31,1.42a11.69,11.69,0,0,1-16.38-2.22,17.56,17.56,0,0,1-1.69,2.4C873,66.23,865.1,69.93,858,65.83,857.76,65.68,859.6,60.66,860.27,59.53Z"/><path class="cls-20" d="M916,84.17l-.27-1.58L897.48,82h0c-6.05-1.45-13.87,1.32-18.1,5l-4.09.81,0-.07c-5.33-2.9-13.38-2.3-19.07,1.43l.26.63h0s.07.13.12.26l.23.55c1.45,3.5,3.09,7.19,4.24,8,.77.59,3,.6,4.89.48.7,0,1.33-.1,1.79-.14s5.41-.58,6.11-1.46,1.23-6.79,1.36-8.65l4.2-.81c.74,1.32,2.72,7.2,5,8.13s12.72-1.08,13.47-2.71a37.74,37.74,0,0,0,1.73-7.36l.5-2.68Zm-42.72,13c-.77.86-10.44,2-11.78,1-1.14-.85-3.21-5.85-4-7.72l0-.08c5.13-3,12.38-3.58,17-1.14-.28,3.22-.78,7.38-1.22,7.93Zm23.26-3.8c-.47,1-9.57,3.19-11.88,2.23-1.6-.66-3.12-5-4.19-7.37,4.15-3.55,12.89-6.07,18.32-4.43a54.31,54.31,0,0,1-2.25,9.57Z"/><path class="cls-21" d="M873.2,97c.43-.55.93-4.7,1.22-7.93-4.62-2.43-11.87-1.88-17,1.14v.08c.78,1.88,2.85,6.87,4,7.72,1.34,1,11-.13,11.79-1Z"/><path class="cls-21" d="M896.57,93.32a54.31,54.31,0,0,0,2.25-9.57c-5.43-1.64-14.17.88-18.32,4.43,1.07,2.42,2.59,6.71,4.19,7.37,2.31,1,11.41-1.2,11.88-2.23Z"/><path class="cls-22" d="M924.15,84.17s14.41-11.9,7.91-23.3c-1.24-2.18-1.32-1.43-1.51-3.38-1-10.21,2.75-8-13-19S899.64,27.8,876.88,31c-11.73,1.62-17.88,7-20.63,14.63a36,36,0,0,0-1.85,11.64s23.66-8.39,38.5-1.55S924.38,86.75,921.83,95C921.11,97.34,924.15,84.17,924.15,84.17Z"/><path class="cls-8" d="M932.75,72.39s-22.32-28.5-49.64-27.7c0,0,33.45-5.72,49.86,17.39l.4,2.82a15.49,15.49,0,0,1-.16,5.26Z"/><path class="cls-18" d="M882.25,110.72c4.25-.67,11.07-2.29,11.07-2.29A11.6,11.6,0,0,1,871,112S878,111.4,882.25,110.72Z"/><path class="cls-44" d="M882.21,110.73c2-.32,10.12-2,10.12-2s-2,5.14-9.27,6.3c-7.93,1.26-11-3-11-3Z"/><path class="cls-45" d="M882.17,111.06c2-.32,8.12-1.66,8.12-1.66s-1.84,2.69-7.91,3.65-8.36-1-8.36-1Z"/><path class="cls-18" d="M870.46,111.38a15,15,0,0,0,2.44-.11c1.65-.42,2.63-1,3.82-1.34,2-.5,3.5.15,4.4,0s2.08-1.21,4.18-1.37c1.23-.1,4.31-.11,6-.22a15,15,0,0,0,2.36-.65c.31,0,.1,2.43-11.22,4.23S870.18,111.51,870.46,111.38Z"/><path class="cls-9" d="M949.86,149.34c-4.34-5.26-15.31-7.48-20.58-4.79s-42.23,61.37-42.23,61.37l-44.83-14.46L831,216.18s57.2,27.43,66.47,27.43c7-.07,37.93-34.07,51.73-55.79a36.78,36.78,0,0,0,4.46-29.51A27,27,0,0,0,949.86,149.34Z"/><path class="cls-11" d="M948.54,149.48A19.82,19.82,0,0,0,945,147a16.06,16.06,0,0,0-6.42-2.14,17.1,17.1,0,0,0-8.8,1.51,20.1,20.1,0,0,0-8.25,7l-6.82,10.38-15.57,23.78c-4,6.19-7.91,12.14-11.51,17.68-14.42-3.5-26.64-7.37-35.28-10.23l-10.15-3.52-.19-.07a.85.85,0,0,1-.11.26l.2.07c2.34.92,5.75,2.2,10.08,3.71,8.65,3,21,7,35.56,10.65H888l.17-.27,11.7-17.89c5.49-8.46,10.73-16.5,15.5-23.84l6.76-10.41a19.53,19.53,0,0,1,7.9-6.9,16.85,16.85,0,0,1,8.53-1.58,16.09,16.09,0,0,1,6.3,1.95,34.89,34.89,0,0,1,4.7,3.4A8.17,8.17,0,0,0,948.54,149.48Z"/><path class="cls-11" d="M896.74,242.42a10.76,10.76,0,0,0,4.41-1.53,44.24,44.24,0,0,0,5.15-3.68l4.83-3.78,16.79-13.05,11.34-8.75,3.11-2.33a9,9,0,0,1,1.13-.77,9.66,9.66,0,0,1-1,.9c-.74.63-1.75,1.44-3,2.48L928.27,221l-16.62,13.21c-1.57,1.22-3.17,2.5-4.82,3.8a42.14,42.14,0,0,1-5.24,3.77,11.59,11.59,0,0,1-5,1.67Z"/><path class="cls-11" d="M831.75,216.3l3.52,1.55,13.13,5.72c11.1,4.76,26.48,11.34,43.65,17.94a14.9,14.9,0,0,0,5.64,1c0,.33,0,.66,0,1a15.87,15.87,0,0,1-5.9-1c-17.22-6.63-32.56-13.28-43.61-18.21-5.53-2.46-10-4.54-13-6l-3.52-1.76a8.55,8.55,0,0,1-1.2-.63A7.05,7.05,0,0,1,831.75,216.3Z"/><path class="cls-46" d="M816.05,299.66s-11.88,1-13.93,8.2,1.84,17,1.84,17-3-15.6,1.85-19.84A25.34,25.34,0,0,1,816.05,299.66Z"/><path class="cls-3" d="M777,195.18a7.53,7.53,0,0,0-5.83-1.4,3.6,3.6,0,0,0-3,2.12,3.18,3.18,0,0,0,1.72,3.49,9.23,9.23,0,0,0,4.11.8l2.18.1a4.53,4.53,0,0,0,2.54-.39,2.76,2.76,0,0,0,.67-3.67,4.24,4.24,0,0,0-3.6-1.77"/><path class="cls-3" d="M777,202.81l9,5.65c2.62,1.63,5,3.43,7.86,2.15h0l4.7,3.62,7.6-13.14-11.08-7.21-17.81,3.06Z"/><path class="cls-3" d="M785.17,185.08c-.09-2,1.05-5.15,2.64-7.77a8.94,8.94,0,0,1,2.42-3,4.26,4.26,0,0,1,3.68-.59,2.07,2.07,0,0,1,1.62,2.14,6.11,6.11,0,0,1-1.22,2.75c-1.84,3.19-2.16,5.07-1.42,6.49"/><path class="cls-47" d="M775.22,187.06c.46,1.05,3,11.41,6.47,16.1,3.93,5.37,6.43,6.6,6.43,6.6l15-.42s10.7-7,10.7-23.28c0,0-3-3.68-19.28-3C783.59,182.87,779.06,184.82,775.22,187.06Z"/><path class="cls-47" d="M782.25,203.41c-2.9,1.73-7.88,2.48-10.8.8a8.18,8.18,0,0,1,4.16-15.39l1.18,4.5s-6.32,1.31-4.5,5.06,7.06.19,7.06.19Z"/><path class="cls-3" d="M768.85,185.33s-3.67,4.59,0,7.11,8.79,2.61,9.52,1.64,1.77-3.18-.61-3.53S768.85,185.33,768.85,185.33Z"/><path class="cls-3" d="M782.82,184.13l-3.68-2.08-3.41-1.83c-1.77-.73-3.52-1-4.37-.73-1.71.62-2.81,2.9-2.84,4.74,0,3,8.89,7.68,10.35,6.34a2.47,2.47,0,0,0,.48-3.47,2.32,2.32,0,0,0-.63-.58c-1.34-.87-3.37-2.08-3.37-2.08l2.45,1.5Z"/><path class="cls-12" d="M778.86,190.4a3.27,3.27,0,0,0,.3-.4,2.14,2.14,0,0,0,.31-1.25,3.1,3.1,0,0,0-.75-1.76,22.48,22.48,0,0,0-1.76-1.76,44.49,44.49,0,0,1-4.55-4.66,44.37,44.37,0,0,1,4.88,4.31,17.1,17.1,0,0,1,1.77,1.84,3.11,3.11,0,0,1,.74,2,2.09,2.09,0,0,1-.49,1.37C779.07,190.33,778.88,190.43,778.86,190.4Z"/><path class="cls-12" d="M779.3,190.1a.72.72,0,0,1-.26.46,1.92,1.92,0,0,1-1.34.54,6.88,6.88,0,0,1-2.06-.38,12.55,12.55,0,0,1-5.93-3.92,4.72,4.72,0,0,1-1-1.61,18.75,18.75,0,0,0,4.84,4.12,13.71,13.71,0,0,0,2.25,1,7.55,7.55,0,0,0,1.93.46,1.94,1.94,0,0,0,1.22-.33A3.39,3.39,0,0,0,779.3,190.1Z"/><path class="cls-20" d="M782.8,203.05c-.06,0,.16-.37.29-.92a2.82,2.82,0,0,0-2.05-3.42l-.16,0c-.58-.13-1-.06-1-.14s.37-.25,1-.19a2.88,2.88,0,0,1,2.65,3.1,3,3,0,0,1-.17.77C783.18,202.82,782.84,203.1,782.8,203.05Z"/><path class="cls-12" d="M778.86,193.32a.76.76,0,0,1-.1.49,1.78,1.78,0,0,1-1.09.81,6.93,6.93,0,0,1-2,.13,15.89,15.89,0,0,1-2.37-.25,10.67,10.67,0,0,1-4-1.59A4.36,4.36,0,0,1,768,191.7c.52.28,1,.59,1.51.92a12.23,12.23,0,0,0,3.94,1.41,22.21,22.21,0,0,0,2.3.28,8.09,8.09,0,0,0,1.84,0,1.72,1.72,0,0,0,1-.59C778.79,193.48,778.82,193.31,778.86,193.32Z"/><g class="cls-48"><path class="cls-13" d="M811,185.12c9.86,2.07-20.07,4.43-31.43,1.37a.28.28,0,0,1-.18-.36.25.25,0,0,1,.18-.18C782.54,184.87,793.87,181.54,811,185.12Z"/></g><path class="cls-3" d="M817.69,188.68a12.94,12.94,0,0,1-1.07-7.1,5.6,5.6,0,0,1,1.71-3.68,2.71,2.71,0,0,1,3.72.13c.8,1,.46,2.51.45,3.83a9.23,9.23,0,0,0,1.91,5.29,28,28,0,0,0,4,4.11"/><path class="cls-3" d="M835.57,206.08c.38-1.54,4.28-10.09,4.35-10.37l-3.36-1.93c.38-1.59-5.41-3.09-6.66-3.56-2.95-1.12-5.95-2.11-9-3-2,.16-16.06,1.88-17.91,2.35-3.07.79-2.24,4-1.15,4,2.39-.19,11.35-.49,11.35-.49L801,195.38l-2.7.61s-1.45.38-1.31,1.68c.2,1.88,1.23,2.39,3.11,2.4s17.07-1.66,17.07-1.66l-16.48,4.25a1.7,1.7,0,0,0-1.36,2,1,1,0,0,0,.07.25c.47,1.66,2.32,1.84,4.77,1.55a1.82,1.82,0,0,0-.21.91,2.52,2.52,0,0,0,2.83,2.16l.09,0c1.76-.11,23.18-.77,23.18-.77.61.45,3.19.69,3.85,1A27.8,27.8,0,0,0,835.57,206.08Z"/><path class="cls-12" d="M821.69,190.93a4.36,4.36,0,0,1-.92.32c-.62.18-1.51.41-2.61.69-2.2.56-5.25,1.3-8.64,2s-6.42,1.38-8.71,1.76c-1.12.2-2,.33-2.66.41a3.67,3.67,0,0,1-1,.07,4.74,4.74,0,0,1,.91-.26l2.64-.55,8.67-1.89,8.67-1.91,2.64-.54A3.72,3.72,0,0,1,821.69,190.93Z"/><path class="cls-12" d="M820.78,197.4c0,.13-4.45,1.41-10,2.86s-10.1,2.52-10.1,2.4,4.46-1.41,10-2.86S820.74,197.28,820.78,197.4Z"/><path class="cls-12" d="M819.58,204a70.4,70.4,0,0,1-8,1.52,71.4,71.4,0,0,1-8.11,1.06,70.8,70.8,0,0,1,8-1.54A66.78,66.78,0,0,1,819.58,204Z"/><path class="cls-49" d="M794.73,179.37a3.48,3.48,0,0,0,.63-1.26,5.65,5.65,0,0,0-.75-3.75c-.39-.72-.92-1.5-1.36-2.4a5.36,5.36,0,0,1-.67-3.16c.4-2.47,3-3.77,3.73-6.15a6.17,6.17,0,0,0,0-3.56,8.9,8.9,0,0,0-1.72-2.92,9.46,9.46,0,0,1-1.68-2.75,5.37,5.37,0,0,1-.14-2.81,11.48,11.48,0,0,1,1.61-3.67,7.23,7.23,0,0,1,.85-1.2,11.28,11.28,0,0,1-.68,1.29,12.23,12.23,0,0,0-1.45,3.67,5.11,5.11,0,0,0,.19,2.63,9.29,9.29,0,0,0,1.64,2.6,9.11,9.11,0,0,1,1.84,3,6.53,6.53,0,0,1,0,3.84,9.12,9.12,0,0,1-2.06,3.2,6.12,6.12,0,0,0-1.68,2.87,5,5,0,0,0,.59,2.93c.42.92.92,1.65,1.3,2.41a5.62,5.62,0,0,1,.64,3.95,2.84,2.84,0,0,1-.52,1A1.38,1.38,0,0,1,794.73,179.37Z"/><path class="cls-49" d="M789.83,177.26a3.15,3.15,0,0,0,.56-1.11,5,5,0,0,0-.66-3.28c-.35-.63-.8-1.3-1.19-2.09A4.69,4.69,0,0,1,788,168c.34-2.16,2.64-3.29,3.25-5.37a5.32,5.32,0,0,0,0-3.11,7.63,7.63,0,0,0-1.5-2.55,8.39,8.39,0,0,1-1.47-2.41,4.64,4.64,0,0,1-.12-2.45,10.14,10.14,0,0,1,1.41-3.21,5.57,5.57,0,0,1,.75-1,10.28,10.28,0,0,1-.61,1.13,10.85,10.85,0,0,0-1.26,3.21,4.46,4.46,0,0,0,.16,2.29,8.17,8.17,0,0,0,1.44,2.27,7.92,7.92,0,0,1,1.61,2.67,5.79,5.79,0,0,1,0,3.35,8,8,0,0,1-1.81,2.79,5.33,5.33,0,0,0-1.46,2.51,4.3,4.3,0,0,0,.51,2.56c.36.81.81,1.45,1.13,2.11a4.9,4.9,0,0,1,.57,3.45,2.46,2.46,0,0,1-.46.86A1.5,1.5,0,0,1,789.83,177.26Z"/><path class="cls-49" d="M799.15,177.26a3.15,3.15,0,0,0,.56-1.11,5,5,0,0,0-.66-3.28c-.35-.63-.81-1.3-1.19-2.09a4.77,4.77,0,0,1-.58-2.77c.35-2.16,2.64-3.29,3.25-5.37a5.24,5.24,0,0,0,0-3.11,7.63,7.63,0,0,0-1.5-2.55,8.52,8.52,0,0,1-1.47-2.41,4.85,4.85,0,0,1-.12-2.45,10,10,0,0,1,1.41-3.21,5.57,5.57,0,0,1,.75-1A10.28,10.28,0,0,1,799,149a10.56,10.56,0,0,0-1.25,3.21,4.46,4.46,0,0,0,.15,2.29,8,8,0,0,0,1.45,2.27,7.89,7.89,0,0,1,1.6,2.67,5.63,5.63,0,0,1,0,3.35,8,8,0,0,1-1.81,2.79,5.33,5.33,0,0,0-1.46,2.51,4.45,4.45,0,0,0,.51,2.56c.37.81.8,1.45,1.14,2.11a4.9,4.9,0,0,1,.55,3.45,2.29,2.29,0,0,1-.45.86A1.79,1.79,0,0,1,799.15,177.26Z"/><polygon class="cls-11" points="842.03 191.39 831.74 216.69 830.75 216.07 841.63 191.26 842.03 191.39"/><path class="cls-11" d="M887.38,204.93a13,13,0,0,1,5,8.21"/><path class="cls-11" d="M169.76,421.3s-11.28-.18-18.92,6.18a19.53,19.53,0,0,1,19.37-7.54Z"/><path class="cls-3" d="M829.93,444.84l-24.85,10.65c-1.87,1.36,21,16.42,46.23-2.85L849.13,446Z"/><path class="cls-4" d="M787,464.61s-1-3.29,1.57-4.08,16.48-6.31,17.82-5.95c-.09,1,1,2.32,3.87,3.41s5.95,2.42,13.45,1.55c5.63-.65,17.18-1.74,22.41-4.29a15.72,15.72,0,0,0,4.56-4.43c5.35,7.11,3.07,14.06.27,15.61S832.27,468,832.27,468l-14.19,2.29-13.21-.36-5.52-.53-6.57-1.47Z"/><path class="cls-5" d="M851.63,465.8a53,53,0,0,1-12,.73c-12.66-.68-17,.62-21.4,1.6a52.48,52.48,0,0,1-7.64,1.3c-14.94,1.41-23.17-4.58-23.46-4.82a1.49,1.49,0,0,0-.45.69,12.08,12.08,0,0,0,2.91,2.23c4,2.18,9.82,4.77,21.37,3.91a50.11,50.11,0,0,0,7.43-.82,53.32,53.32,0,0,1,13.8-1.49l-.18,2.14s13.37,1.5,19.61-.67C852.27,467.34,851.63,465.8,851.63,465.8Z"/><path class="cls-5" d="M851.86,468.69a84.47,84.47,0,0,1-19.73.7l-.16,1.88s13.37,1.5,19.61-.67A13,13,0,0,0,851.86,468.69Z"/><polyline class="cls-12" points="806.34 454.58 827.07 446.07 826.66 444.85 806.34 454.58"/></g></svg>