<svg xmlns="http://www.w3.org/2000/svg" xmlns:xlink="http://www.w3.org/1999/xlink" viewBox="0 0 1221.96 991.43"><defs><style>.cls-1,.cls-30{fill:none;}.cls-2{clip-path:url(#clip-path);}.cls-3{fill:#f2ebd1;}.cls-4{fill:#956243;}.cls-5{fill:#653c2a;}.cls-6{fill:#c98532;}.cls-7{fill:#517568;}.cls-8{fill:#a56530;}.cls-9{fill:#8c542a;}.cls-10{fill:#3a3a3a;}.cls-11{fill:#1d1e1e;stroke:#1d1e1e;}.cls-11,.cls-12,.cls-21,.cls-23,.cls-24,.cls-30{stroke-miterlimit:10;}.cls-11,.cls-21,.cls-24{stroke-width:1.37px;}.cls-12,.cls-13{fill:#151210;}.cls-12{stroke:#161311;stroke-width:0.63px;}.cls-14{fill:#161311;}.cls-15{fill:#231f20;}.cls-16{fill:#010101;}.cls-17{fill:#f1eef7;}.cls-18{fill:#24180f;}.cls-19,.cls-32{fill:#fff;}.cls-20{fill:#653c29;}.cls-21{fill:#304941;stroke:#304941;}.cls-22{fill:#3ba448;}.cls-23{fill:#993a2f;stroke:#993a2f;stroke-width:0.34px;}.cls-24{fill:#895522;stroke:#895522;}.cls-25{fill:#5e5f5f;}.cls-26{fill:#853324;}.cls-27{fill:#ec9a6f;}.cls-28{fill:#13110f;}.cls-29{fill:#878787;}.cls-30{stroke:#010101;stroke-width:1.49px;}.cls-31{fill:#273339;}.cls-32{opacity:0.14;}.cls-33{fill:#622515;}.cls-34{fill:#663d18;}.cls-35{fill:#31160e;}</style><clipPath id="clip-path"><rect class="cls-1" y="5.33" width="1221.96" height="986.1"/></clipPath></defs><g id="Layer_3" data-name="Layer 3"><g class="cls-2"><polyline class="cls-3" points="1379.47 1258.02 1379.47 -9.77 -183.1 -9.77 -183.1 1258.02"/><path class="cls-4" d="M728.75,494l-15.35,2.67,5.26,33.63,4.68,7.67L732,536.8C736.9,516.14,732.05,506.06,728.75,494Z"/><path class="cls-4" d="M728.17,514c-.46-.75-5.22-18.43,7.39-31.38s24.53-18.18,31.64-22.17,21.37-18.28,24.39-15.4,4.61,7.45,1.22,13.47-19,12.75-18.65,20.6c.24,5.68,6.07,5.54,6.07,5.54s27.1-.69,38.33-2.7,21.59-.77,21.36,3.18-2.19,6.3-11.49,7.94-24.58,2.43-25.16,4.64,2.66,3.31,8.09,2.42,31.2-3.23,33.22-.46,1.07,7.38-2.36,8.68l-5.86,2.7s4,4.56,1.28,7.56-9.4,2.62-9.4,2.62L794,523.4s-1.76,2.24-.66,3.56,27.67-3.06,28.14-.15,2.92,4.06-4.9,6.74-27.94,4.51-35.34,3.21-49.21,0-49.21,0Z"/><path class="cls-5" d="M769.07,487a24.57,24.57,0,0,1,.13,16.19c-1.36,3.84-3.08,5.61-2.8,5.95l-6,5.54S769.53,504.11,769.07,487Z"/><path class="cls-6" d="M468.46,359.33l50.84,65.94L599,499.9c1.09,8.93-27.53,17.49-28.82,26.32-1.48,10.12-10.49,1-10.78,11.27-.3,10.74-15-6.49-13.27,4.1,1.15,7.16,1,19.32,2.65,26.35-59.66-16.76-80.29-52.39-80.29-52.39Z"/><path class="cls-6" d="M538.4,530.64c8.53-6.28,17.51-12.35,27.23-16.65,14.18-6.28,9.31-8,22.74-16L715,485.9l1.43,20.6a66.19,66.19,0,0,0,3.68,17.6l7.32,20.55s-108.61,36-137.79,35.08c-28.66-.87-45.51.73-81.6-28.78C515.05,544.49,530.71,536.31,538.4,530.64Z"/><path class="cls-4" d="M634.31,588.77l-13-1.22-3.15,28.3,2.1,7.22,13.54,1C642.31,608.49,634.34,599.2,634.31,588.77Z"/><path class="cls-4" d="M627.39,601.15c.2-.77-.27-17.45-14.66-25.46s-26.17-9.44-33.43-11.06-23.44-10.36-25.32-7.06-2.08,7.71,2.46,12.08,19.92,6.16,21.68,13.1c1.27,5-3.85,6.42-3.85,6.42s-23.84,6.49-34.17,7.69-19.05,5-17.81,8.36,3.56,4.93,12.1,3.92,22.09-4.32,23.19-2.53-1.46,3.58-6.44,4.22-28.08,5.35-29.12,8.3,1,6.72,4.33,7l5.82.82s-2.26,5,.87,6.93,8.9-.17,8.9-.17l30.45-7.11s2.13,1.49,1.51,2.94-24.95,4.57-24.6,7.23-1.49,4.32,6.05,4.61,25-5,31.68-6.45a149.47,149.47,0,0,0,33.26-11.82Z"/><path class="cls-5" d="M573.81,615.56c.17.51-8.93,4-20.53,7.24l-21.11,4.11S564.24,615.27,573.81,615.56Z"/><path class="cls-5" d="M584.6,588.24a22.35,22.35,0,0,0,4.13,14.17c2.19,3,4.15,4.09,4,4.46l6.7,3.25S588.69,603.32,584.6,588.24Z"/><path class="cls-4" d="M950.13,259.62s-2.08,80.09,6.5,96c2.08,3.86,68.47,23.68,68.47,23.68l-137.44,50.1-60.92-29.55s46.79-21.42,47.64-26.51-3-40.19-3-40.19"/><path class="cls-7" d="M1048,391.48c-6.13-9.37-28.9-19.37-39.65-22.49-28-8.09-45.55-14.33-45.55-14.33-21,44.46-75.21,59.5-92.92,18.58l-16.68,12.05L830,398.24c-.09.05-38.17,10.51-41.64,65.15-2.74,43.69-13.21,65.26-13.21,65.26s1.33,8.1,34,14.33c9.45,1.51,13.55,5.88,17.78,7.14h0c.61.9,16.45,81.55,16.64,82.87,3.27,23.1,1.23,46.86,4,70,1.73,14.4,4,29.08,3.37,43.62,6.49,4,9,6.86,20.43,10.48,16.1,5.12,30.36,4.26,47.61,3.89,0,0,107.68-15.89,146.18-35.79,3.59-1.86,7.08,52.51,8.48,49.1,16.94-41.35,1.9-80.7,1.46-84.66q-1.12-10-2.32-20c-6.07-49.6-36.86-111.24-45.36-142l27.33-15,21.87-12.14C1062.43,404.56,1062.22,413.16,1048,391.48Z"/><path class="cls-8" d="M970,853.93q67,0,134,0c19.21,0,22.77,9.09,22.74,27.73,0,17.12-3.84,27.18-23.28,27.22-4.38,0-8.85.49-13.12-.09-12.86-1.74-15.44,3-13.76,13,16.45,97,32.5,187.37,48.91,284.38,1.12,6.6.1,9.22-8.78,9.33-22.18.27-22.63.71-25.71-17.45q-15.71-92.83-30.62-185.75c-1.34-8.41-4.75-11-14.76-10.88q-76.19.63-152.38,0c-9.75-.08-12.58,2.89-13.8,10.51-10.41,65.25-21.32,130.44-31.82,195.68-1,6.08-4,7.89-11,8-22.86.35-23.48.51-20.54-17.78,10.64-66.34,21.7-132.63,32.69-198.92,4.67-28.19,9.32-49.71,14.41-77.84,1.57-8.69-.27-13.61-12.2-11.95-2.55.35-5.26-.11-7.87.07-34.26,2.42-31.46-22-29.48-44.68.77-8.79,9.87-10.85,19.75-10.8,45.54.22,91.08,5.66,136.62,5.66Zm-1.07,125.24c25.36,0,50.73-.2,76.09.11,7.77.1,11.24-1.33,9.91-8.65-4.08-22.64-7.8-29.57-11.33-52.28-1.07-6.88-3.91-9.8-13.11-9.68-40.22.51-80.47.58-120.69,0-10-.15-12.74,3-13.86,10.33-3.37,22-7,28.18-11,50.09-1.39,7.58.64,10.51,10.48,10.29C919.94,978.8,944.44,979.17,968.94,979.17Z"/><path class="cls-9" d="M848.88,999q-2.55,15.35-5.09,30.7c10.64,2.09,21.21,4.55,31.77,7.11q2-12.39,4-24.79c1.22-7.61,4.05-10.59,13.8-10.51q76.18.64,152.38,0c10-.09,13.42,2.46,14.76,10.88q1.9,12,3.86,24.05a290.42,290.42,0,0,0,29.83-12.68c-5.8-33.52-11.62-67.28-17.49-101.88a19.27,19.27,0,0,1,0-8.06q-10.42.69-20.86,1.09-6.39.24-12.8.38a20,20,0,0,1,.73,3.17c3.53,22.71,7.25,29.64,11.33,52.28,1.32,7.33-2.14,8.75-9.91,8.66-25.36-.32-50.73-.12-76.1-.12-24.49,0-49-.36-73.46.18-9.85.22-11.87-2.71-10.49-10.3,4-21.9,7.6-28.1,11-50.08.45-2.92,1.17-5.17,2.5-6.82q-18.09-.56-36.19-.81c1.64,2.12,1.7,5.46.93,9.7C858.2,949.27,853.54,970.78,848.88,999Z"/><path class="cls-9" d="M813.24,869.09s153.3,20,216,11.89,97.17-8.25,94.62-18-46.94-30.55-91.64-32S865,840.77,865,840.77s-41.13,6.92-45.45,12.91S813.24,869.09,813.24,869.09Z"/><path class="cls-10" d="M663.76,787.68c13,63.79,19.72,251,38.76,328.59,0,0,94.64,20.61,102.44,2.81,0,0-4.29-195.24,18.69-291.46C843.88,742.88,910.21,719.1,888.92,713c-33.51-9.67-178.61-24.94-198-11.88C667.73,716.73,653.55,737.45,663.76,787.68Z"/><path class="cls-10" d="M718.88,825.2c-.56-5-1.37-9.89-2.38-14.76a205.39,205.39,0,0,0-9.6-32.28A218.62,218.62,0,0,0,692,747c-3.92-6.78,65.37-24.76,60.63-31,101.63-17.11,242.39,8.72,242.39,8.72s87.54,12,64,93.7c-25,86.72-262.42,33-339,7.18C719.59,825.46,719.24,825.33,718.88,825.2Z"/><path class="cls-11" d="M729.6,1092.78C719.63,985.18,701,755.45,701,755.45L697,755.2l29.86,337.41Z"/><path class="cls-11" d="M701,755.45s-6.91-38.13,38.9-46.2c0,0-46.89.18-43,46Z"/><path class="cls-11" d="M734.92,709.54s23.7-.13,64.55,3.64c40.41,3.73,40.36,3.75,58,4.3,0,0-112-10.82-122.52-7.94Z"/><path class="cls-11" d="M819.9,853s-3-24.67-14.61-39.32c0,0,17.69,18.26,19.53,40.19Z"/><path class="cls-12" d="M812.58,210.59h0c-2.73-9.47-3.8-15.34-1.36-22,1.73-4.72,9.73-9.79,9.73-9.79s1.46-14.07,7.85-12.27c0,0,5.78-18.85,24.4-14.46,0,0,5.6-1.56,8.82,1.86,0,0,8.33-16.3,24.52-5.5,0,0,6.05-4.08,8.24.73,0,0,10.45-10.36,21.17-2.43,0,0,26.7-5.89,33.65,10.76,0,0,12.85-6.89,19.84,5.3,0,0,6.75.38,7,9.71,0,0,10.12,2.73,11.19,8.83,0,0,5.88,4.45,5.71,14.22-.05,2.8-1,2.08-1.82,5.88,5.8,11-2.63,12.54-2.63,12.54,8.85,10.14-1.71,23.24-1.71,23.24s3,7.52,2.23,13.11c-3.06,21.1-16.25,27-16.25,27s-3.8-30.75-3.31-42.72-9.77-32.59-13.09-37-26.33,4.22-61.82,5.12-42.78-5.27-47-4c-8.72,2.57-15.35,33.83-14.88,43.23s-2,27.2-2,27.2-19.05-7.58-14.37-23.49c0,0-6.48-11.23-4.23-18.15a7.09,7.09,0,0,1,2-4.34S807.89,216.25,812.58,210.59Z"/><path class="cls-4" d="M933.91,326.93c-13.6,16.69-34.53,28.43-54.37,33.42-19.46,4.89-26.37-1.34-29.23-4.12-15.72-15.24-26.23-31-32.69-49.37-1.75-5-2.16-10.46-2.07-16.07.13-8.41,1-24.57.52-32.58-1.23-20.41.2-39,10.68-56.7,21.83-36.8,77.69-38.58,98.85-29.65,24.73,10.43,36.71,33.33,39.31,58.14a67.41,67.41,0,0,1-1.34,22.83,72.15,72.15,0,0,0-8.4,12.72"/><path class="cls-13" d="M826.9,205s-1.56,1.55-11.06,26.89c2.25-8,3.11-20,9.32-31.31,21.67-39.6,95.43-37.66,116.63-27.95,24.78,11.35,34.87,35.87,37.57,62.64,1.1,10.87,1.87,17.81-1,27-.15.13-2,2.22-2,2.22s-21.74,5.19-28.39,18.82l-.83-11.58s-6.11-14.24-11.53-39c0,0-.67-13.69-.67-17.82,0-12.69-11.23-9.54-19-7.18-4.83,1.47-15.39,2.71-20.45,2.83-12.91.3-29.31-.92-35.35-.6C851.7,210.34,826.9,205,826.9,205Z"/><path class="cls-14" d="M826.1,205A7.72,7.72,0,0,0,825,207.1c-1.77,3.71-3.28,7.55-4.79,11.36-1.78,4.5-3.5,9-5.2,13.55l1.76-.34c1.4-5.07,2.16-10.3,3.42-15.42a63.38,63.38,0,0,1,6.56-17.06,52.14,52.14,0,0,1,15.52-16.36c13.33-9.23,29.78-13.36,45.71-15,14.23-1.47,29.07-1.22,43.08,1.91a52.6,52.6,0,0,1,17.85,7.53,59.2,59.2,0,0,1,19.34,21.55,91.21,91.21,0,0,1,9.19,28.48c.92,5.59,1.49,11.26,1.88,16.9A50.08,50.08,0,0,1,978,260.78a4.79,4.79,0,0,1-1.09,2.29l-1.34,1.53.81-.41a60,60,0,0,0-8.16,2.71,51,51,0,0,0-14.75,8.61,26,26,0,0,0-6.3,7.91l1.78-.41-.43-6-.28-3.91a12.63,12.63,0,0,0-.11-1.63,20.55,20.55,0,0,0-.94-2.35c-.84-2.18-1.62-4.39-2.37-6.61-2.77-8.18-5.07-16.51-7-24.91a37.71,37.71,0,0,1-1.18-5.42c-.08-.9-.09-1.81-.13-2.71q-.23-4.85-.41-9.69c-.18-5.22.7-12.64-5.77-14.26-5.8-1.44-11.76,1.54-17.33,2.68a117,117,0,0,1-25.34,2c-8.42-.13-16.84-.78-25.26-.66-11.35.16-22.71-2.35-33.77-4.69l-.92-.19a2.06,2.06,0,0,0-1.24.24c-.13.08-.63.32-.24.41,4,.86,7.93,1.63,11.91,2.36a140.72,140.72,0,0,0,19,2.58c2.68.11,5.38-.07,8.06,0,4.32.09,8.63.28,12.94.42,8.65.28,17.29.49,25.9-.55a77.87,77.87,0,0,0,11.46-2,57.75,57.75,0,0,1,8.77-2.12c2.61-.29,5.56-.1,7.55,1.83,2.31,2.24,2.29,5.66,2.34,8.65.06,3.18.2,6.36.34,9.54.1,2.25.07,4.55.31,6.79a47.6,47.6,0,0,0,1.34,6q.89,3.72,1.86,7.43c1.1,4.14,2.28,8.27,3.57,12.36,1.37,4.32,2.81,8.63,4.52,12.82a7.06,7.06,0,0,1,.37,2.3l.57,8.05.13,1.81c0,.33,1.65-.15,1.78-.41,4.34-8.73,14-13.83,22.78-16.95,1.23-.43,2.47-.83,3.72-1.19a5,5,0,0,0,1.9-.69,14.31,14.31,0,0,0,1.62-1.85c.82-1,1-2.64,1.28-3.9a44.28,44.28,0,0,0,1-9.39,134.42,134.42,0,0,0-1.76-20.32,107,107,0,0,0-4.16-17.93c-3.65-11.05-9.58-21.41-18.31-29.21a53.52,53.52,0,0,0-22.91-12.19,116.4,116.4,0,0,0-23.37-3,153.39,153.39,0,0,0-28.25,1.5,115.79,115.79,0,0,0-28.1,7.57c-8.48,3.57-16.53,8.5-22.87,15.24a48.72,48.72,0,0,0-8.23,11.83c-3.23,6.52-4.94,13.59-6.39,20.69-.59,2.92-1.14,5.85-1.94,8.72-.08.29,1.62.06,1.76-.34,2.52-6.7,5-13.4,7.83-20a57.51,57.51,0,0,1,2.92-6.39c0-.09.41-.59.24-.41C828,204.54,826.39,204.75,826.1,205Z"/><path class="cls-4" d="M945.51,307.23c10.81,10.16,21.17-7.16,21.17-7.16,9.44-12.49,8.83-25.3,8.05-34s-10.4-8.15-10.4-8.15c-8.14,1.27-6.94,2.18-16.94,26"/><path class="cls-15" d="M956.15,279.5A46.39,46.39,0,0,1,961,268.7a9.89,9.89,0,0,1,3.7-3.68,1.73,1.73,0,0,1,.58-.2c.24-.06,0,0,.18,0l.3,0c-.12,0,0,0,.12,0l.23,0c-.2,0,.14,0,.22.06s.1.06,0,0a11,11,0,0,1,.93,1.23c2,3.16,2.27,7.1,1.82,10.71-.08.63,1.29.41,1.36-.13a17.35,17.35,0,0,0-1.58-10.55c-.37-.69-.87-1.76-1.68-2.06-2.62-1-5.27,1.52-6.7,3.39-2.72,3.58-4.34,8-5.74,12.18-.19.56,1.19.4,1.36-.13Z"/><path class="cls-15" d="M955.3,285.25c5,.07-1.92,11.5,2.28,11.3,1-.05,1.65-1.09,2.07-1.9a24.73,24.73,0,0,0,1.84-5.31,22,22,0,0,0,.81-7.25c-.2-2.87-.88-6.58-3.73-8-.5-.25-1.7.44-1.05.77,2.38,1.19,3.05,4.17,3.33,6.59a17.41,17.41,0,0,1-.14,5.44A38.36,38.36,0,0,1,959,293a14,14,0,0,1-.81,1.76c-.13.24-.32.44-.45.67,0,0-.21.18-.2.19l.37,0a.18.18,0,0,1-.09-.08c0-.16-.29-.76-.3-1a7.35,7.35,0,0,1,.15-1.62c.2-1.22.49-2.43.68-3.66.33-2.19.27-4.93-2.58-5-.63,0-1.39.94-.48,1Z"/><path class="cls-13" d="M891.37,262.4c2.36-1.23,5.13-.18,6.69,1.18a6,6,0,0,1,1.81,2.8,6.17,6.17,0,0,1-1.44,5.61,5.71,5.71,0,0,1-6.57,1.17,6.32,6.32,0,0,1-3.14-7.35,5.62,5.62,0,0,1,2.65-3.41"/><path class="cls-13" d="M878.85,272.51s8.25-12.3,17.07-12.33c12.42-.05,15.37,7.17,18.08,10.91,0,0-8.09-8.79-17.69-8.52C887.61,262.81,878.85,272.51,878.85,272.51Z"/><path class="cls-13" d="M830.44,262.58c-2.22-1.22-4.79-.16-6.23,1.22a6,6,0,0,0-1.67,2.8,6.46,6.46,0,0,0,1.39,5.61,5.08,5.08,0,0,0,6.14,1.14c2.69-1.36,3.55-4.84,2.87-7.37a5.65,5.65,0,0,0-2.5-3.4"/><path class="cls-13" d="M846.09,272.65s-7.21-12.26-14.84-12.25c-10.74,0-13.23,7.25-15.55,11,0,0,6.93-8.83,15.23-8.61C838.45,263,846.09,272.65,846.09,272.65Z"/><path class="cls-16" d="M855.41,303.57a8.87,8.87,0,0,0,8.11-.64c.51-.33,2.23,0,1.52.42A12.5,12.5,0,0,1,854,304c-.3-.15-.25-.38.12-.51a2,2,0,0,1,1.31.05"/><path class="cls-16" d="M866,302.67a14.42,14.42,0,0,1,5-1.33,1.14,1.14,0,0,1,.78.24c.14.12.18.3,0,.41a5.4,5.4,0,0,1-2.74.67,1,1,0,0,1-.85-.32c-.16-.23.12-.38.35-.38a4.42,4.42,0,0,0,2.21-.55l.77.64a12.85,12.85,0,0,0-4.46,1.21,1.1,1.1,0,0,1-.92-.09c-.19-.11-.39-.36-.11-.5"/><path class="cls-16" d="M872.9,302.78c2-.08,4.39-1,5.36-2.54,1.46-2.33,0-6.18-2.57-7.61-.27-.16-.13-.37.15-.43a1.6,1.6,0,0,1,1.08.2,7.45,7.45,0,0,1,3.42,6.63c-.27,2-2.19,3.46-4.6,4.08a10.46,10.46,0,0,1-2.24.35c-.3,0-.86-.07-1-.31s.12-.35.41-.37"/><path class="cls-16" d="M851.68,302.59a.26.26,0,0,0-.26-.38,2.38,2.38,0,0,1-1.58-.49l-.53.66a7.15,7.15,0,0,1,3.19,1.09.57.57,0,0,0,.65-.11c.13-.11.26-.37.07-.5"/><path class="cls-16" d="M853.22,302.86a7.9,7.9,0,0,0-3.57-1.2.65.65,0,0,0-.54.25.29.29,0,0,0,0,.42"/><path class="cls-16" d="M847.48,302.93a4.15,4.15,0,0,1-3.55-2.41,6,6,0,0,1,1.46-6.55.24.24,0,0,0-.1-.42.75.75,0,0,0-.7.23,6.68,6.68,0,0,0-2.05,5.57,4.7,4.7,0,0,0,3.1,4,5.25,5.25,0,0,0,1.47.29.74.74,0,0,0,.65-.34c.09-.25-.09-.35-.28-.35"/><path class="cls-13" d="M883.19,235.63q-.87,2.84-1.72,5.68c-.44,1.44-.87,2.88-1.3,4.33,4.62.07,8.49.39,11.39.7,5.75.63,11.61,1.71,16.84,4.3a18.7,18.7,0,0,1,6.34,4.8c.55.67,1.81,3.23,3,3,.49-.08.5-2.62.5-2.88,0-5.12-3.11-8.2-7.31-10.7-8.56-5.09-18-7.68-27.75-9.27"/><path class="cls-13" d="M814.49,254a15.94,15.94,0,0,0-.42-3.76,23,23,0,0,1,2.47-1.9c8.13-5.49,17.22-8.53,26.78-10.58l2,5.58c.51,1.42,1,2.83,1.52,4.25-4.53.3-8.33.8-11.16,1.25-5.63.9-11.34,2.26-16.33,5.1a20.56,20.56,0,0,0-3.88,2.77Z"/><path class="cls-5" d="M874,361.71a152,152,0,0,0,15.37-2.24c9.5-2.13,20.27-7.53,28.61-12.57,4.65-2.81,9.11-5.93,13.46-9.19-.73.55-1.35,3-1.79,3.85a48.92,48.92,0,0,1-6.3,9.08c-7.91,9.09-18.29,14-29.89,16.68-5.45,1.26-13.43,3.48-18.91,1.73C874.58,369.05,874,361.81,874,361.71Z"/><path class="cls-17" d="M863,318.4c4.66-.21,18.79-1.65,18.79-1.65s-4.87,5.33-18.83,6-18.63-4.11-18.63-4.11Z"/><path class="cls-10" d="M704.14,767.74a137.07,137.07,0,0,1,27.44,4.59,71.9,71.9,0,0,1-1.38-13.5c1.87-1.45,3.83-2.93,5.88-4.42A178.8,178.8,0,0,1,760.67,770a220.65,220.65,0,0,1,25.58,22.49A197.51,197.51,0,0,1,807.32,818c1.78,2.57,3.48,5.21,5.11,7.89l-.87.08c23.15,41.88,5.5,118.59,8,192.66,2.15,65,2.35,73.18,6.09,107.75-10.83,15.51-95.33,4.1-95.33,4.1C719.43,1030.05,704.14,767.74,704.14,767.74Z"/><path class="cls-18" d="M860.51,315.73c7.91-.43,25.66,3.82,29.35,6.91,0,0-8.68,7.2-27,8.18s-21.75-5.57-21.75-5.57S850.43,316.27,860.51,315.73Z"/><path class="cls-19" d="M882.21,319.4s-9.47-.31-17,.09-16.88,1.72-16.88,1.72-1.53-5.95,12.09-6.68S882.21,319.4,882.21,319.4Z"/><path class="cls-20" d="M862.67,328.16c8.53-1.77,17.13-5.65,27.19-5.52,0,0-2.16,12.47-23.73,13.62s-25.06-11-25.06-11C851.06,324.05,854,327.31,862.67,328.16Z"/><path class="cls-20" d="M850.88,311.64c4.51-.6,7.49,1.09,9.46,1s4.75-2.1,9.3-2c4.26.11,22.82,10.27,20.88,11.82s-16.29-5.87-29.93-5.14-18.1,9.15-20.19,7.82S846.65,312.21,850.88,311.64Z"/><path class="cls-5" d="M855.38,234.93s9.11,9.47-.21,17Z"/><path class="cls-5" d="M868.82,234.77S862,246,872.74,251.29Z"/><path class="cls-7" d="M785,493.05l-3.58,16.89-37.78,89.2c2.56,7.11,33.42-.37,37.72,5.77,4.94,7,8.26-3.2,12.35,4.38,4.28,8,8.09-.9,10.82,7.69,1.83,5.81,5.89,3.95,7.28,9.86,16.38-15.07,30.92-74,30.92-74Z"/><path class="cls-7" d="M798.07,602.13c-7.8-4.29-16-8.34-24.52-10.85-12.5-3.65-8.64-5.65-20.72-10.82L633.39,585l1.09,17.31a55.59,55.59,0,0,1-1.1,15.06l-3.82,17.93s89,11.58,113.56,12.24c24.94.68,65.76-3.74,75.31-32.64A221.33,221.33,0,0,0,798.07,602.13Z"/><path class="cls-21" d="M812,446.58a20,20,0,0,0,.35,4.15c.39,2.92.91,6.7,1.51,11.21,1.36,9.5,3.33,22.57,5.59,37s4.53,27.48,6,36.93l6.74,38.51a23.4,23.4,0,0,0,.92,4.06,19.3,19.3,0,0,0-.36-4.15c-.39-2.93-5.64-34.07-6.24-38.61-1.36-9.46-3.34-22.53-5.59-37s-4.53-27.48-6-36.89c-.78-4.49-1.48-8.25-2-11.15A21,21,0,0,0,812,446.58Z"/><path class="cls-21" d="M987.58,434.47a38.71,38.71,0,0,1,.17-7.3,46.1,46.1,0,0,1,27.55-37.29,39.39,39.39,0,0,1,6.92-2.33,9.44,9.44,0,0,1,2.58-.4c.06.26-3.69,1-9.16,3.67a48.07,48.07,0,0,0-26.88,36.48c-1,6-.48,9.81-.76,9.83A9.24,9.24,0,0,1,987.58,434.47Z"/><path class="cls-7" d="M1004.38,724.4c9.6,3.27,18.45,8.42,26.77,14.16,7.22,5,14.09,10.21,19.45,17.22,9.75,12.74,13,28.68,13.2,44.42,9.33-9.57,16.67-46.54,14.24-68.69-6-54.77-111.88-59.7-111.88-59.7l-118,7.47-2.6-1.25s-8,6.91-10.45,14a38.2,38.2,0,0,0-1.53,14.84s8.19,2,13.94,3.68A187.68,187.68,0,0,0,871.94,715c4.32.4,46.67-.74,77.33,2.36a1.93,1.93,0,0,1,1.35-.49,122.48,122.48,0,0,1,32.24,4.54C990.14,721.47,997.35,722,1004.38,724.4Z"/><path class="cls-4" d="M1012.11,627.84c6.44.53,18.82-.5,25.25.14,13.84,1.39,24.25-.77,38,1.47l-56.73,129.38-30.13-15.71Z"/><path class="cls-22" d="M599.89,952.69l2.57-3.84a27.81,27.81,0,0,0-2.33-1.6A26,26,0,0,1,599.89,952.69Z"/><path class="cls-8" d="M265,841.64q70.14,0,140.27,0c20.11,0,23.84,9.52,23.81,29,0,17.92-4,28.45-24.37,28.49-4.58,0-9.26.51-13.73-.09-13.47-1.82-16.17,3.16-14.4,13.57,17.21,101.55,34,196.15,51.2,297.7,1.17,6.91.1,9.65-9.2,9.77-23.22.28-23.69.75-26.91-18.27q-16.46-97.17-32.06-194.45c-1.4-8.81-5-11.48-15.45-11.39q-79.75.66-159.52,0c-10.2-.09-13.17,3-14.44,11-10.9,68.31-22.32,136.56-33.32,204.85-1,6.37-4.13,8.26-11.52,8.37-23.92.37-24.57.54-21.5-18.61,11.14-69.45,22.73-138.84,34.22-208.24,4.89-29.51,9.77-52,15.1-81.49,1.64-9.09-.29-14.25-12.77-12.51-2.68.37-5.51-.11-8.24.08C96.29,902,99.22,876.38,101.3,852.68c.8-9.19,10.32-11.36,20.67-11.31,47.67.24,95.34,5.93,143,5.93Zm-1.13,131.1c26.56,0,53.11-.2,79.66.13,8.13.1,11.76-1.4,10.38-9.07-4.28-23.7-8.17-30.95-11.86-54.72-1.12-7.21-4.09-10.26-13.72-10.13-42.11.53-84.25.6-126.36,0-10.44-.16-13.33,3.18-14.5,10.81-3.53,23-7.3,29.5-11.48,52.43-1.45,7.94.67,11,11,10.78C212.57,972.36,238.22,972.74,263.86,972.74Z"/><path class="cls-9" d="M138.18,993.48q-2.67,16.07-5.33,32.13c11.14,2.19,22.21,4.76,33.26,7.44q2.08-13,4.18-25.94c1.27-8,4.24-11.09,14.44-11q79.77.67,159.53,0c10.47-.09,14.05,2.58,15.45,11.39q2,12.6,4,25.18A301.47,301.47,0,0,0,395,1019.4c-6.07-35.09-12.16-70.42-18.3-106.65a20.21,20.21,0,0,1-.06-8.43q-10.91.72-21.83,1.13-6.7.25-13.4.4a22,22,0,0,1,.76,3.32c3.7,23.78,7.59,31,11.86,54.73,1.39,7.67-2.24,9.17-10.37,9.07-26.55-.33-53.11-.13-79.66-.13-25.64,0-51.29-.38-76.91.19-10.31.23-12.42-2.84-11-10.78,4.18-22.93,7.95-29.42,11.48-52.43.47-3.05,1.23-5.41,2.62-7.14-12.63-.38-25.26-.69-37.89-.85,1.72,2.22,1.78,5.72,1,10.16C147.94,941.45,143.07,964,138.18,993.48Z"/><path class="cls-9" d="M100.87,857.52s152.29,23.46,218,15,109.92-11.17,107.26-21.33-49.14-32-95.94-33.52-175.07,10.22-175.07,10.22-43.06,7.25-47.58,13.51S100.87,857.52,100.87,857.52Z"/><path class="cls-23" d="M460.93,375.82a142.66,142.66,0,0,0-8.36,36.11A143.09,143.09,0,0,0,460.93,375.82Z"/><path class="cls-6" d="M284.39,303.72a273.73,273.73,0,0,0-38.85,20C223,337.64,192.38,355.47,184,401.3s9.5,123.83-13.41,178.48A520.7,520.7,0,0,0,139.5,684.43L366.81,408Z"/><path class="cls-24" d="M133.52,739.09s-18.58,94.45,29.94,108.35S417.9,864.69,417.9,864.69s4,61.12,11.84,117.52c7.21,51.88,19.64,126.62,19.64,126.62s154.74,10.48,171.28-19.55C635.14,982.33,648.81,874.16,642.57,766c-2-35.12-34.07-57.71-62.78-66.81-28.5-9-73.74-12.59-104.82-14.73-30.42-2.1-84.67,5.47-84.67,5.47S235.85,777.24,133.52,739.09Z"/><path class="cls-25" d="M305.16,100.7c6.78-7.38,16.42-11.65,25.57-7.88,2-18.58,21.3-27.21,39.9-25.36,9.49,1.38,18.72,6.92,28.1,4.92,5.86-1.24,10.65-5.09,15.91-8.14,21.95-12.3,51.23,9,65.91,29.44s7.85,40.32-3.84,62.6c-5.43,10.36-5.53,16.36-8.25,27.82-2.57,10.82-11.81,30.34-13.32,41.21s14,24.44,2.94,23.9l-117.81-29.4c-18.23,1.24-28.89-5.59-36-22.42-4.57-11.41-2.53-11.64-1.76-23.87.62-16-14-30-11-45.8C293.1,117.76,298.82,108.52,305.16,100.7Z"/><path class="cls-26" d="M290.39,98.13s44-15.21,96.59-2.47,74.46,48.77,80.78,73.41-6.77,48-6.77,48,12.87,5.32,27.88-41.55c21.88-68.33-44.23-119.69-61.52-121.66S324.13,22.76,290.39,98.13Z"/><path class="cls-4" d="M320.64,226.34s-7.38,41.93-22.51,69.91c-2.11,3.9-30.31,16.17-30.31,16.17l36.82,17.92c21,7.81,69.47,13.15,91.35,8.37l18.91-8.77s-21.42-7.72-21.83-12.93,8.51-43.09,8.51-43.09"/><g id="freepik--character-2--inject-1332"><path class="cls-27" d="M343.38,393.49A63.7,63.7,0,0,1,340,386a27.54,27.54,0,0,1-1.27-8.74,26.32,26.32,0,0,1,2.36-10.48,27.22,27.22,0,0,1,4.37-6.7l.28-.28-.18-.45c-1.71-5.32-3-10.36-4.07-13.71a20.74,20.74,0,0,0-2-5.33,3.15,3.15,0,0,0,.24,1.48l1,4c.86,3.49,1.86,8.25,3.66,14.08l.14-.73a27.3,27.3,0,0,0-7.07,18.21,26.88,26.88,0,0,0,1.66,9,24.21,24.21,0,0,0,2.7,5.47A7.69,7.69,0,0,0,343.38,393.49Z"/><path class="cls-27" d="M295.92,376.42a43.34,43.34,0,0,0-4.11-4.85,22.82,22.82,0,0,1-6.38-13.1c-.16-2.86.39-5.7.17-8.42a8.9,8.9,0,0,0-2.88-6.49,5.51,5.51,0,0,0-4.63-1.21c-1.15.3-1.57.87-1.54.91a7.15,7.15,0,0,1,1.63-.4,5.39,5.39,0,0,1,3.95,1.42,8.47,8.47,0,0,1,2.21,5.86c.15,2.49-.44,5.32-.29,8.4a18.2,18.2,0,0,0,2.72,8.08,32,32,0,0,0,4.37,5.46A25,25,0,0,0,295.92,376.42Z"/><path class="cls-27" d="M311.87,366.82a66,66,0,0,0-6.1-5.84,39.83,39.83,0,0,1-11.26-16.32,22.47,22.47,0,0,1-1-5.52,36.15,36.15,0,0,1,.29-5.3,11.5,11.5,0,0,0-2-9.07,5,5,0,0,0-3.44-1.73,4.82,4.82,0,0,0-2.74.52c-1.41.82-1.53,1.85-1.49,1.82a3.52,3.52,0,0,1,1.7-1.33,4.53,4.53,0,0,1,5.14,1.31,10.83,10.83,0,0,1,1.5,8.33,36,36,0,0,0-.36,5.48,22.68,22.68,0,0,0,1,5.9A37.6,37.6,0,0,0,305,361.66c2,1.72,3.68,3,4.87,3.9A6.88,6.88,0,0,0,311.87,366.82Z"/><path class="cls-27" d="M292.16,311.55a16.7,16.7,0,0,1,3.92,6.2,36.37,36.37,0,0,1,1.56,7.86,43.6,43.6,0,0,0,2,10.1,36.62,36.62,0,0,0,10.43,15.36,32,32,0,0,0,4.6,3.32,6.28,6.28,0,0,0,1.9.86c0-.22-2.47-1.65-5.83-4.91A39,39,0,0,1,301,335.21a45.47,45.47,0,0,1-1.87-9.73,34.1,34.1,0,0,0-1.9-8.22A9.7,9.7,0,0,0,292.16,311.55Z"/></g><g id="freepik--character-1--inject-1332"><path class="cls-4" d="M397.73,322,291.2,307l-16.39,38s24.51,29,27.23,30.58,67.06,23.74,67.06,23.74,77.83-19.25,76.79-19.16S397.73,322,397.73,322Z"/><path class="cls-6" d="M150.94,746.56c6.78,3.35,14.06,5.18,21.46,6.62a175.64,175.64,0,0,0,24.18,3,147.59,147.59,0,0,0,42.11-3.65,361.72,361.72,0,0,0,38.19-11.83c25.19-9.12,48.95-9.32,74.2-18.27s32.08-23.18,58.84-24.82c19-1.16,43.95-15.78,65.05-13.08,5.74-19.22-11.87-41.67-11.87-41.67l-10.16-57.06,21.41-23.58c14.78-24.29,19.24-88.13,13.79-98.78L442.57,345.66l-44.59-25c1.76,3.93,13.39,32.72-25.24,39.3,0,0-9.3-.71-9.33-.7-48.47-6.49-79-55.57-79-55.57l-16.45,7.19L185.6,554.26s-59.92,106.93-66.08,152.83c-1,7.08-4.47,9.52,1.33,20.93C127.62,734.18,140.38,741.35,150.94,746.56Z"/></g><line class="cls-24" x1="226.16" y1="532.53" x2="227.89" y2="531.75"/><path class="cls-6" d="M398,320.69s68.23,23.74,75.42,46.87c10.92,35.12,15.73,108.61,15.73,108.61L456.45,474Z"/><path class="cls-24" d="M483.4,542.63c1.27-8.43.39-17.19-.13-25.64q-.88-14.06-3-28c-2.85-19.25-7.15-38.25-11.9-57.1-2.28-9.07-4.67-18.1-7.06-27.14,3.35,16.88,5.86,33.92,9.64,50.71,3.87,17.2,7.48,33.93,9,51.51,1.77,20.73,4,30.18-3.36,45.92s-23.68,32.85-23.68,32.85l1.4,1.66S480.91,559.05,483.4,542.63Z"/><path class="cls-5" d="M394.49,306.41s-8.71-2.66-14.62-5.21-16.46-3.61-41.44-32c0,0,4.24,31.29,39.48,42.61,0,0,9.06,3.21,15.4,2.55Z"/><path class="cls-4" d="M451.45,127.54l.34.37a6.71,6.71,0,0,1-.27-.7ZM466,134c.17.26.38.52.59.78l.06-.28S466.11,133.68,466,134ZM335.63,265.53c11.1,17.76,30,38.1,52.76,42.15,8.17,1.46,16.9-1.05,23.63-5.07,10.21-6.1,20.93-12.25,29.26-20.24,8-7.66,11.87-12.66,16.83-22.53,5.12-10.2,5.72-13.06,6.9-24.11a108.37,108.37,0,0,1,3.13-16.87c1.57-5.26,8.59-25.81,11.76-38.08S478.38,143,478.38,143c0-3.5-5-2.76-6.17-5.84l-1.46-.33a1.47,1.47,0,0,1,.43,1.5,11.64,11.64,0,0,1-4.55-3.55v.05c-2.42.51-4.37-1-5.81-3.07-.08.34.14,1.09.5,1.17a7.51,7.51,0,0,1-5.37-3.32c-.07.33.14,1.08.07,1.41a13.67,13.67,0,0,1-4.22-3.12c.24.51,8.73,1.1,8.68,1.33-2.25-.16.08,1.13-1.36-1l-1.53-1.65c-1.89-.08-2.07,1-3.22-.63.28.41-.17-3.91-.25-3.57-2.18-.5-1.55-.51-3.14-1.92-.08.33-6.44.82-6.52,1.15-1.82-.41-1.72,1.37-2.87-.3.29.42,1.63-1.1,1.92-.69-2.26-.15-3.4,1.06-4.83-1,.28.42-6.37-5.3-6.37-5.3-2.26-.16-2,.61-3.56-1.13.58.83-9.93-2.91-9.72-2.16-1.81-.41,2,7.45.74,6.12-.08.34-4-2-4-2-1.89-.08.46,2.21-.69.55-.08.33.06,1.41.42,1.5-2.41.5-4.8-.74-6.68-2.57.58.83.79,1.58,1.08,2-1.82-.42-3.35-.41-4.87-2.16-.07.33.43,1.5.79,1.58a7.38,7.38,0,0,1-5.67-2c-.07.33.5,1.16.79,1.58a5.3,5.3,0,0,1-4.21-1.66l.78,1.58c-1.45-.33-2.69.09-4.72-1.07-.08.33.58.83.5,1.17a13.87,13.87,0,0,1-3.56-1.16c-.08.33.86,1.25.5,1.16-1.46-.33-2.7.1-4.37-1,.29.42.5,1.17.79,1.59-1.45-.33-3-.33-4.29-1.33a2.58,2.58,0,0,0,.43,1.51c-1.46-.34-2.7.08-4.37-1-.07.34.5,1.17.79,1.59a19.69,19.69,0,0,1-4.36-1c-.08.33.57.83.86,1.24-1.45-.33-3-.32-4.65-1.4-.15.67.13,1.08.06,1.42-1.09-.25-1.74-.75-2.83-1l-2,.26c-6.6,5.52-24.48-4.21-24.48-4.21-13.32,6.46-8.68,56-9.75,62.42s-5.08,7.38-5.08,7.38c-1.29-2.75-5.08,3.66-5.56.74-.56-2.58.85-5.42.28-8-2.06-6.08-9.71-6.06-14.46-3.63l-.92,1c-7.28,6.28-6.5,31.11-3.95,39-2,14.47,8.83,24.73,18.16,16.06l.72,6"/><path class="cls-16" d="M416.68,245.93a10.69,10.69,0,0,1-9.34-2.74c-.51-.51-2.59-.6-1.87.11,3.07,3,8.89,4.54,12.76,3.52.39-.1.38-.38,0-.62a2.37,2.37,0,0,0-1.54-.27"/><path class="cls-16" d="M404.48,242.27a17.14,17.14,0,0,0-5.51-2.78,1.38,1.38,0,0,0-1,.08c-.2.11-.28.31-.09.48a6.44,6.44,0,0,0,3,1.46,1.24,1.24,0,0,0,1.08-.16c.24-.23-.05-.48-.32-.53a5.17,5.17,0,0,1-2.45-1.19c-.36.19-.7.38-1.06.56a15.25,15.25,0,0,1,4.92,2.5,1.29,1.29,0,0,0,1.1.12c.24-.07.54-.32.25-.54"/><path class="cls-16" d="M396.42,240.7c-2.35-.6-4.89-2.25-5.65-4.27-1.14-3.07,1.44-6.92,4.78-8,.36-.11.24-.39-.07-.53a2,2,0,0,0-1.31,0c-2.91.91-5.36,4-5.54,6.59-.17,2.42,1.72,4.56,4.39,5.88a12.8,12.8,0,0,0,2.53,1c.36.09,1,.13,1.26-.11s-.06-.44-.39-.52"/><path class="cls-16" d="M421.27,245.72a.32.32,0,0,1,.4-.38,2.85,2.85,0,0,0,2-.18c.16.3.3.6.46.9a8.52,8.52,0,0,0-4,.48.7.7,0,0,1-.73-.29c-.12-.16-.22-.5.05-.6"/><path class="cls-16" d="M419.41,245.65a9.41,9.41,0,0,1,4.46-.51.81.81,0,0,1,.57.43.33.33,0,0,1-.12.47"/><path class="cls-16" d="M426.1,247.15a4.94,4.94,0,0,0,4.74-1.92,7,7,0,0,0-.13-7.95.29.29,0,0,1,.23-.47.94.94,0,0,1,.76.44,7.9,7.9,0,0,1,1,7,5.56,5.56,0,0,1-4.59,3.85,5.9,5.9,0,0,1-1.78,0c-.24,0-.63-.25-.68-.55s.19-.38.41-.34"/><path class="cls-28" d="M452,205.07a5.85,5.85,0,0,1,5.72,2.33,5.77,5.77,0,0,1,.74,2.73,5.39,5.39,0,0,1-2.33,4.5,5,5,0,0,1-5.83-.29,5.52,5.52,0,0,1-1.23-6.88,4.93,4.93,0,0,1,2.93-2.39"/><path class="cls-28" d="M432.45,207.72s11.59-5.51,16.72-4.87c7.5.93,15.61,7.05,17.38,11.28,0,0-10.57-8.79-15.88-9.3C445.61,204.35,432.45,207.72,432.45,207.72Z"/><path class="cls-28" d="M390.64,191.94c-1.78-1.5-5.09-1.95-6.68-1.08a5.31,5.31,0,0,0-2.08,2A5.41,5.41,0,0,0,382,198a5,5,0,0,0,5.39,2.25,5.53,5.53,0,0,0,4.08-5.67c0-.42.55-1.1-.89-2.31"/><path class="cls-28" d="M402.17,200.24s-9.5-9.58-14.92-11c-7.91-2-18.48.47-21.92,3.69,0,0,14.09-4,19.63-2.44C390.25,192,402.17,200.24,402.17,200.24Z"/><path class="cls-29" d="M442.84,178l-2,4.13-1.5,3.15c3.93.81,7.21,1.69,9.66,2.41,5.18,1.51,7.82,2.31,10.38,4.12a30.46,30.46,0,0,1,5.39,5.09,19.38,19.38,0,0,1,2.49,3.4c1.53,2.84,1.56,5.23,2,5.25s.67-1.95.69-2.15a17.81,17.81,0,0,0-1.65-9.4,20.8,20.8,0,0,0-5-6.09c-2.41-2-9.78-6.23-20.48-9.91"/><path class="cls-29" d="M412,172.76c-.28,1.5-.57,3-.85,4.5-.22,1.15-.44,2.29-.67,3.43-4-1.73-7.43-3-10.05-3.93-5.53-1.93-8.36-2.89-11.76-3a34,34,0,0,0-8,.8,20.82,20.82,0,0,0-4.34,1.2c-3.14,1.35-4.68,3.24-5.1,3s.64-2,.74-2.14a18.1,18.1,0,0,1,7.38-6.51,23.56,23.56,0,0,1,8.28-1.82c3.41-.17,12.56.95,24.34,4.49"/><path class="cls-30" d="M319.74,201.82c-5.05-20.49-10.81-21.56-10.81-21.56s-4.62,3.81-4.13,13"/><path class="cls-30" d="M316.47,203.08c-5.1-1.35-2.69,9-4.49,11s-2.72-4.31-2.18-11.73c0,0,1.59-9.87,6.79-10.88"/><path class="cls-5" d="M401,153.35s11.66,8.36,24.57,10.08,29,2.18,29,2.18"/><path class="cls-29" d="M473.05,126.82c-.13-.26.06.11,0,0-2.55-5-3.88-10.07-6.63-14.92s-5.4-9.09-8.36-13.69c-.18-.27-4.37-1-4.55-1.26l-.19-.29-.29-.43-.67-1c-18.72-11.63-42.69-16.37-65.45-12.85a81,81,0,0,0-67.68,92.44c.58,3.78-2.22,7.86,1,10.42s3.83,1.6,7.54-.24a26.78,26.78,0,0,0,8.91-8.42c11.74-16.15,18-43.67,16.67-63.59,1.82,4,18.67,2.57,21.95,5.48a31.37,31.37,0,0,0,44.29-2.65,46.79,46.79,0,0,0,4.05,6.77c14,19.6,34.37,31.07,54.15,21.54C478.55,143.79,474.63,130,473.05,126.82Z"/><path class="cls-31" d="M361.59,183.07l.81,7.26c.19,5.54,1.94,16.82,3.14,20,1.69,4.52,29.34,12,35.52,10S413.72,203,416,199.57l11,3c0,5,.24,20.94,1.92,23.44s14.6,4.87,16.06,5.14c1.21.2,2.9.49,4.77.73,4.92.68,11,1.12,13.17-.29,3.26-2.09,8.38-11.63,13-20.71l.74-1.42c.16-.34.33-.57.36-.68h0l.82-1.64c-14.47-11.11-35.89-14.34-50.74-7.64l.06.19-10.77-3c-10.57-10.81-30.94-19.81-47.45-17.14h0l-49-2.19-1,4.16Zm69,41.68c-1.06-1.56-1.56-12.79-1.68-21.47,12.87-5.59,32.16-2.65,45.27,6.46l-.05.21c-2.46,4.87-9,17.82-12.2,19.87-3.79,2.43-29.45-2.57-31.35-5Zm-61.5-14.81a146.07,146.07,0,0,1-4.1-26.06c14.88-3.28,37.77,5.2,48.16,15.54-3.36,6.28-8.29,17.45-12.72,18.9-6.37,2.1-30.29-5.52-31.34-8.38Z"/><path class="cls-32" d="M430.92,224.59c-1.06-1.56-1.56-12.79-1.68-21.47,12.87-5.59,32.16-2.65,45.27,6.46l-.05.21c-2.46,4.87-9,17.82-12.2,19.88-3.79,2.42-29.45-2.57-31.36-5Z"/><path class="cls-32" d="M369.1,209.94a146.07,146.07,0,0,1-4.1-26.06c14.88-3.28,37.77,5.2,48.16,15.54-3.36,6.28-8.29,17.45-12.72,18.9-6.37,2.1-30.29-5.52-31.34-8.38Z"/><path class="cls-33" d="M297.14,179.91S261,145.17,280.64,116c3.78-5.61,3.82-3.58,4.72-8.76,4.69-27.12-5.75-21.95,38.58-48.27s50.12-25,110.4-12c31.09,6.7,46.47,22.21,52.29,43.31,2.61,9.48,3.3,20.09,2.61,31.53,0,0-61.65-27.21-102.73-11.9s-90.52,76.85-85.35,99.5C302.61,215.78,297.14,179.91,297.14,179.91Z"/><path class="cls-26" d="M276.48,146.66S342,74.86,414.91,82.51c0,0-88.36-22-137,36.52l-1.63,7.45a41.36,41.36,0,0,0-.63,14.12Z"/><path class="cls-34" d="M557.6,732.2s31.91,2.75,37.41,22-5,45.66-5,45.66,8.17-41.88-4.95-53.26A68.14,68.14,0,0,0,557.6,732.2Z"/><path class="cls-6" d="M276.84,303.15s-74.79,7.06-101.59,41.75-51.73,177.64-53.48,201c-5,65.82,141.76,172,141.76,172l37.19-56L206.86,530.86l18.32-93.53Z"/><path class="cls-24" d="M256.27,392c-.16,16.15-33.61,130.29-38.63,147.28l3.29-.74c4.09-14.61,30.91-110,37.22-138.08,6-26.64-13-51.24-13-51.24C259.13,378.63,256.27,392,256.27,392Z"/><polygon class="cls-24" points="220.93 538.57 217.64 539.31 300.19 662.33 301.75 661.13 220.93 538.57"/><path class="cls-24" d="M154.57,617.19s58,78.94,102.38,100.11l15.31-15.56,2,.13-11.56,11.48-5.79,6.74s-29.4-17.53-43.86-31.88-59.57-68.34-59.57-68.34l1.08-2.68"/><polyline class="cls-4" points="296.5 665.83 327.69 687.96 314.5 728.23 265.01 709.11"/><path class="cls-4" d="M312.47,682.22l39.12-9.9s44.23,8.32,49.56,14.06,11.6,14.09.67,19.63c0,0,4.84,12.7-1.55,15.85s-13.71-1.25-13.71-1.25S395,731,387.75,735.75s-10.46,1-10.46,1-.64,6-4.49,5.7a103.93,103.93,0,0,1-16-5s-21.55,2.28-33.17-1.16a55.41,55.41,0,0,1-21.18-13.5Z"/><path class="cls-5" d="M378.5,699.2A29.11,29.11,0,0,1,401,705.49"/><polygon class="cls-24" points="301.75 661.32 297.98 666.88 296.5 665.83 300.6 659.83 301.75 661.32"/><path class="cls-7" d="M1033.83,582.68c12.61,4.08,24.52,10.11,37.31,13.68,5,1.41,10.23,2.45,15.38,3.49C1088.26,582.77,1076,492,1076,492l-77.75,5.87L1021,579.46A93.1,93.1,0,0,1,1033.83,582.68Z"/><path class="cls-7" d="M1081.83,568.4c-6.1-2.43-32.14,7.7-38,4.69-8.7-4.47-11.72,5.85-21.08,3l2,9.08c-12.67,18.87-32.73,133.93-32.73,133.93l51.76,18.36c7.51-18.75,12.19-37.54,19.53-56.36a201.32,201.32,0,0,0,6.76-21c2.24-8.14,4.45-16.93,8.31-28.9,3.68-11.4,8-22.69,8.47-34.65a117.55,117.55,0,0,0-.84-16.57C1085.75,576.77,1085.61,569.91,1081.83,568.4Z"/><path class="cls-21" d="M1019.81,589.07c-3.13-35.33-26.47-114.33-28-135.62l-.66,0c1.39,21.26,24.56,100.25,27.51,135.55Z"/><path class="cls-21" d="M1018.68,589l-4.56,23.48c-7.29,38.47-20.77,80.38-25.32,104.09l.36.09.22.07.14,0c.14-.6.18-.85.32-1.45,4.93-25.16,18.36-66.58,25.42-102.68,1.56-8,3.14-15.89,4.54-23.49Z"/><polygon class="cls-21" points="1029.52 734.06 1045.29 739.91 1071.42 660.8 1070.85 657.63 1043.86 737.51 1030.14 732.64 1029.52 734.06"/><path class="cls-24" d="M596.14,497.21s-8.73,16.14-11.57,27.95c0,0,2.56-23,9.53-29.86Z"/><path class="cls-24" d="M220.39,541.35s-17.22,6.33-27.16,13.31c0,0,17.17-15.59,26.9-16.09Z"/><path class="cls-21" d="M751.5,580.31s16.24,8.52,25.2,16.75c0,0-14.45-17.59-24-19.35Z"/><path class="cls-21" d="M1019.84,589.81s0-4.38,29.92,4.5c0,0-20.53-9.82-30-7.35Z"/><path class="cls-5" d="M423.37,170.5s5.55,11.91-5.7,16l1.78-3.79a43.37,43.37,0,0,0,2.78-7.72Z"/><path class="cls-5" d="M434.77,174.7s-10.09,8.41-1.64,16.9Z"/><path class="cls-4" d="M953.19,809.73a2.44,2.44,0,0,0,1.28-.42s-1.91,8.16,10.41,3.47c0,0,9.68,4,15.58-.77,0,0,12.73.31,17.73-2.52s21.14-38.69,21.14-38.69l5-24.9-33.45-14.82-1.51,4.39s-15.18,3.58-20.76,7.63a65.16,65.16,0,0,0-11.33,12.07l-7.86,15c6.7,6,19.32-9.23,20.29-8.78a7.49,7.49,0,0,1,3.59,10c-3.09,7.47-6.6,16-6.91,17.36s-9.25,7.36-16,11.75C946.41,803,948.22,810,953.19,809.73Z"/><path class="cls-5" d="M981.61,783.91a40.69,40.69,0,0,1-7.65,14,36,36,0,0,1-13.48,8.22,31.69,31.69,0,0,0-6.21,2.62,21.66,21.66,0,0,0,6.64-1.42,32.11,32.11,0,0,0,14.37-8.16,35.94,35.94,0,0,0,7.49-14.81,23.42,23.42,0,0,0,1.31-6.79A30.51,30.51,0,0,0,981.61,783.91Z"/><path class="cls-5" d="M989.87,789.36a64.18,64.18,0,0,1-2.69,6.06,20.41,20.41,0,0,1-4.65,6.44,40.53,40.53,0,0,1-6.71,4.27c-2.22,1.18-4.19,2.3-5.82,3.26a21.32,21.32,0,0,0-5.16,3.44,21.36,21.36,0,0,0,5.75-2.3l6-2.92a36.07,36.07,0,0,0,7.11-4.38,20.87,20.87,0,0,0,4.81-7,46,46,0,0,0,2.4-6.43,13,13,0,0,0,.85-6.29A52.11,52.11,0,0,1,989.87,789.36Z"/><path class="cls-5" d="M997.87,795c-1.38,2.42-3.29,5.71-5.25,9.53a5.4,5.4,0,0,1-1.82,1.89,27.21,27.21,0,0,1-2.3,1.55,43.21,43.21,0,0,1-4.15,2.19c-2.44,1.15-4,1.6-4,1.84s1.81.21,4.49-.67a25.19,25.19,0,0,0,4.51-2,23.75,23.75,0,0,0,2.51-1.54,6.93,6.93,0,0,0,2.38-2.49c3.92-7.45,6.78-13.86,6.11-14.15A20.81,20.81,0,0,0,997.87,795Z"/><path class="cls-20" d="M404.39,257.19c-11.82-2.68-30.66-8.48-30.66-8.48s-2,25.45,25.41,31.66,36.57-17.63,36.57-17.63S416.22,259.86,404.39,257.19Z"/><path class="cls-35" d="M404.5,257.21c-5.62-1.27-28.05-7.4-28.05-7.4s4.53,14.78,24.86,19.38c22.05,5,31.45-6.43,31.45-6.43Z"/><path class="cls-17" d="M404.55,258.16c-5.62-1.28-22.5-6.15-22.5-6.15s4.69,7.88,21.55,11.7,23.65-1.27,23.65-1.27Z"/><path class="cls-20" d="M437.36,261.2c-.56-.29-4.09.11-6.83-.77C426,259,423.36,257,420.05,256c-5.65-1.77-9.85-.21-12.35-.77s-5.62-3.79-11.48-4.63c-3.43-.49-12.07-1.09-16.82-1.72-2.85-.38-5.86-2.26-6.5-2.25-.87,0-.72,6.82,30.74,13.94S438.15,261.6,437.36,261.2Z"/></g></g></svg>