<svg xmlns="http://www.w3.org/2000/svg" viewBox="0 0 1221.96 991.43"><defs><style>.cls-1{fill:#f2ebd1;}.cls-2{fill:#956243;}.cls-3{fill:#c98532;}.cls-4{fill:#517568;}.cls-5,.cls-6{fill:#151210;}.cls-5{stroke:#161311;stroke-width:0.8px;}.cls-14,.cls-15,.cls-20,.cls-24,.cls-5{stroke-miterlimit:10;}.cls-7{fill:#161311;}.cls-8{fill:#231f20;}.cls-9{fill:#010101;}.cls-10{fill:#653c2a;}.cls-11{fill:#653c29;}.cls-12{fill:#31160e;}.cls-13{fill:#f1eef7;}.cls-14{fill:#895522;stroke:#895522;}.cls-15{fill:#304941;stroke:#304941;}.cls-16{fill:#5e5f5f;}.cls-17{fill:#853324;}.cls-18{fill:#13110f;}.cls-19{fill:#878787;}.cls-20,.cls-24{fill:none;}.cls-20{stroke:#010101;stroke-width:2.1px;}.cls-21{fill:#273339;}.cls-22{fill:#fff;opacity:0.14;}.cls-23{fill:#622515;}.cls-24{stroke:#684137;stroke-width:2px;}</style></defs><g id="Layer_1" data-name="Layer 1"><polyline class="cls-1" points="1221.36 989.43 1221.36 -2 -0.59 -2 -0.59 989.43"/><path class="cls-2" d="M917.27,441.9S888.79,539.74,893,562.18c1,5.44,64,44.82,64,44.82L786.31,628.12l-42.12-45.83s39.48-15.2,42.14-21.18,9.44-57.18,9.44-57.18"/><path class="cls-3" d="M502.8,450.81c18.39-9.61,44.22-7.38,91.95,5.63,23.83,6.5,30.19,13.26,45.81,27,32.25,28.42,182.72,184.66,191.85,192.26,6.21,5.17-10.12,113.25-83.69,63.66-9-6.09-199.1-174.32-225.31-212.85-11.2-16.46-49.93-60.4-20.61-75.72"/><path class="cls-4" d="M998.54,955.69c-10.93-58.45-11.13-24.3-18.68-107-4-44.08,21.58-86.25,14.56-160-1.56-16.4-41.95-34.85-40.72-63.06.62-14.16-29-47.43-29-47.43l-26.1-18.3c.36,3.26-46.36,18-48.83,21.12-16,20.16-23.27,14.39-44.77-1.62-5.74-4.27-23.69,1.74-31-13l-30.68,9.11-1.64,10.22c-1.25,7.76-12.06,56-15,62.92-14.39,33.93-39.49,85.26-44.47,121.31-.48,3.45-.89,6.81-1.26,10.11a1.38,1.38,0,0,1,.12.56v5a1.47,1.47,0,0,1-.81,1.31c-3.22,35-1,63.65-2.91,101.33-1.71,33.11-1.07,69.09-1.31,103.19h328C1001.86,976.12,999.75,962.14,998.54,955.69Z"/><path class="cls-5" d="M758.29,339.79h0c-.76-12.57-.47-20.18,4.44-27.84,3.46-5.4,14.85-9.49,14.85-9.49s5.72-17.12,13.19-13.1c0,0,12.44-21.88,34.42-11.23,0,0,7.41-.38,10.47,4.77,0,0,14.92-18,32.08,0,0,0,8.68-3.4,10.06,3.2,0,0,15.91-10,27.05,2.87,0,0,34.91.09,38.94,22.76,0,0,17.92-5,23.24,12.13,0,0,8.31,2.35,6,14,0,0,11.85,6.22,11.49,14.11,0,0,6.09,7.19,3.16,19.32-.83,3.47-1.82,2.3-3.9,6.81C987.94,393.45,977,393,977,393c8.2,15.09-8.59,28.49-8.59,28.49s3.35,11.11-.88,16.94c-5.77,8-24.6,14.23-24.6,14.23s.66-24.42,4.59-39.2-3.09-43.32-6-49.77-34-2.06-78.45-10.82-51.83-18.47-57.4-18.09c-11.58.78-28.55,37.88-30.58,49.72s-10,33.34-10,33.34-21.63-14.75-11.37-33.26c0,0-5-15.8-.22-23.79,0,0,1.07-3.5,3.69-4.86C757.14,355.89,750.88,345.54,758.29,339.79Z"/><path class="cls-2" d="M880,518.91c-21.59,17-50.93,25.81-77,26.5-25.61.68-32.48-9-35.28-13.25-15.34-23.37-24-45.89-27-70.62-.79-6.71.22-13.62,1.89-20.59,2.51-10.44,8.08-30.33,9.71-40.45,4.16-25.77,11.12-48.57,29.09-67.66,37.43-39.78,107.53-26.46,131.41-9.45,27.91,19.88,36.46,51.75,32.8,83.38a86.1,86.1,0,0,1-8,28.07,92.33,92.33,0,0,0-14,13.51"/><path class="cls-6" d="M780.57,337.17s-2.38,1.49-21.26,30.42c5-9.38,9.43-24,20.32-36.42,38-43.32,129.37-20.38,153.08-2.38,27.72,21,33.47,54.4,29.39,88.51-1.65,13.84-2.62,22.7-8.71,33.35-.22.12-3.07,2.21-3.07,2.21s-28.53.43-40.61,15.55l2.19-14.65s-3.65-19.44-3.5-51.82c0,0,3-17.24,4.12-22.37,3.56-15.82-11.34-15-21.69-14.24-6.43.48-19.94-.91-26.27-2.17-16.17-3.22-36.26-9.3-43.88-10.58C810,350.78,780.57,337.17,780.57,337.17Z"/><path class="cls-7" d="M779.7,337.17a10.07,10.07,0,0,0-2.11,2.35c-3.25,4.13-6.2,8.5-9.14,12.84-3.48,5.11-6.88,10.27-10.26,15.45l2.25-.44c2.83-5.31,5-10.95,7.62-16.38a88.79,88.79,0,0,1,11.39-18.5,64.53,64.53,0,0,1,24.46-18,98.07,98.07,0,0,1,30-7.14,159.36,159.36,0,0,1,32.09.59,195.85,195.85,0,0,1,30,5.81,149.11,149.11,0,0,1,24.28,8.79,67.46,67.46,0,0,1,20.63,14.94,76.31,76.31,0,0,1,18,33.41c3.29,12.75,3.83,26.09,2.84,39.17-.53,7.06-1.35,14.17-2.57,21.14A60.33,60.33,0,0,1,953,449.47a5.39,5.39,0,0,1-.85,1.41,8.51,8.51,0,0,1-1,.74c-.63.45-1.24.91-1.86,1.36l1.78-.54a76.62,76.62,0,0,0-11.2,1.15,66.66,66.66,0,0,0-21.19,6.86,33.46,33.46,0,0,0-10.1,8.18l2.27-.52,1.14-7.57.75-5a14.54,14.54,0,0,0,.3-2.07,26,26,0,0,0-.52-3.26c-.44-3-.8-5.93-1.12-8.91-1.16-10.93-1.7-21.92-1.84-32.9a51,51,0,0,1,0-7.1c.16-1.14.39-2.27.59-3.4.72-4.07,1.44-8.15,2.2-12.21.7-3.77,2-7.78,1.78-11.63a8.85,8.85,0,0,0-5.28-7.81c-6.91-3.17-15.13-1.06-22.42-1.26a154.56,154.56,0,0,1-31.73-4.61c-10.45-2.5-20.77-5.68-31.29-7.85a81.47,81.47,0,0,1-9.6-2.48c-4.12-1.38-8.18-2.95-12.21-4.59-6.37-2.57-12.68-5.31-18.93-8.17l-1.06-.48a2.25,2.25,0,0,0-1.46.17c-.09,0-1,.43-.7.58,4.65,2.15,9.34,4.2,14.06,6.2,7.59,3.21,15.31,6.51,23.3,8.61,3.32.88,6.74,1.41,10.08,2.24,5.35,1.32,10.67,2.76,16,4.13,10.91,2.8,21.8,5.47,33,6.52a88.15,88.15,0,0,0,14.34.5,57.05,57.05,0,0,1,11.39-.07c3.28.41,6.88,1.48,8.78,4.4,2.19,3.38,1.35,7.5.59,11.17-.82,3.95-1.52,7.92-2.23,11.89-.52,2.95-1.19,5.92-1.56,8.9a55.67,55.67,0,0,0,0,7.42c.05,3.38.13,6.75.26,10.13.21,5.45.54,10.91,1,16.35.5,5.8,1.11,11.61,2.08,17.35a9.17,9.17,0,0,1-.2,3l-1.52,10.17-.34,2.24c0,.38,2.07-.27,2.27-.52,7.61-9.41,20.59-13,32.12-14.38,1.69-.2,3.38-.37,5.08-.46a8.78,8.78,0,0,0,2.8-.34,13.34,13.34,0,0,0,2.47-1.69c.31-.23.66-.43,1-.68a7.67,7.67,0,0,0,1.4-2.3,55.16,55.16,0,0,0,4.24-10.81c2.14-7.86,3-16.15,3.76-24.23a144.9,144.9,0,0,0,.47-24.2c-1.07-15.28-5.16-30.52-13.8-43.32a68.53,68.53,0,0,0-25.69-22.92,146.71,146.71,0,0,0-28.74-10.49,194.36,194.36,0,0,0-36.73-6.06,142.69,142.69,0,0,0-37.76,2.17c-11.77,2.41-23.33,6.73-33.07,13.89a63.91,63.91,0,0,0-14.07,14.36c-4.87,6.83-8.41,14.42-11.81,22.05-1.36,3-2.7,6.08-4.26,9-.13.24,1.93.05,2.25-.44,5-7.65,10-15.3,15.32-22.76a78.13,78.13,0,0,1,5.41-7.13s.63-.55.27-.32c.39-.25.26-.35-.12-.42A2.94,2.94,0,0,0,779.7,337.17Z"/><path class="cls-2" d="M899.89,497.59c10.64,15.67,28.37-3,28.37-3,15.24-12.94,18-29.07,19.5-40.17s-10.7-13.06-10.7-13.06c-10.49-.67-9.25.8-28.32,27.68"/><path class="cls-8" d="M919.86,470.84c3.38-5.62,7.09-11.27,11.86-15.82a22.08,22.08,0,0,1,3.78-3,9.36,9.36,0,0,1,2.14-1c.19-.05.46-.09.24-.06l.28,0c.32,0-.17,0,.05,0l-.49-.22a11.06,11.06,0,0,1,1.37,3.95,22.31,22.31,0,0,1-1.26,11.57c-.33.9,1.4.82,1.64.15,1.61-4.47,2.37-9.5.87-14.12-.34-1-.67-2.6-2-2.51a8.22,8.22,0,0,0-3.31,1.14,26.17,26.17,0,0,0-6.21,5.09,84.64,84.64,0,0,0-10.63,14.65c-.47.79,1.29.76,1.65.16Z"/><path class="cls-8" d="M917.39,476.76c3.66.87,1.05,5.71.12,7.84-.57,1.29-3.23,6.11-.62,6.83,1.26.35,2.44-.81,3.17-1.66a37.15,37.15,0,0,0,7-15c.59-3.75.77-8.6-2.47-11.24-.57-.46-2.1.36-1.34,1,2.69,2.2,2.57,6.4,2.18,9.52a23.9,23.9,0,0,1-2.13,7.38,43.1,43.1,0,0,1-3.7,6.64,11.63,11.63,0,0,1-1.41,1.72c-.13.13-.37.42-.57.45.27-.05.16.11.13-.12a6.32,6.32,0,0,1,.57-3.32c.6-1.48,1.3-2.9,1.87-4.39,1-2.56,1.72-6-1.76-6.8-.71-.17-2,.89-1,1.14Z"/><path class="cls-6" d="M844.91,426.67c3.28-.88,6.44,1.2,8,3.34a7.6,7.6,0,0,1,1.48,4,7.9,7.9,0,0,1-3.36,6.6,7.32,7.32,0,0,1-8.51-.37c-3.24-2.47-3.46-7.07-1.87-10a7.27,7.27,0,0,1,4.26-3.52"/><path class="cls-6" d="M826.5,435.79s13.69-13,24.7-10.62c15.48,3.4,17.15,13.21,19.49,18.63,0,0-7.64-13.2-19.67-15.54C840.1,426.14,826.5,435.79,826.5,435.79Z"/><path class="cls-6" d="M768.94,410c-2.42-2.14-5.92-1.53-8.1-.22a7.71,7.71,0,0,0-2.86,3,8.28,8.28,0,0,0,.17,7.37,6.51,6.51,0,0,0,7.34,3.13c3.73-.94,5.77-5,5.62-8.38a7.22,7.22,0,0,0-2.17-4.93"/><path class="cls-6" d="M785.65,426.85s-5.59-17.29-15.09-19.39c-13.38-3-18.5,5.34-22.43,9.38,0,0,11.08-9.07,21.36-6.49C778.81,412.7,785.65,426.85,785.65,426.85Z"/><path class="cls-9" d="M788.65,468c2.56,2.1,7,2.66,10.29,1.46.72-.26,2.78.57,1.77.94-4.32,1.58-10.66.5-14-2.22-.33-.27-.2-.54.29-.6a2.53,2.53,0,0,1,1.62.42"/><path class="cls-9" d="M802.13,469.8a18.17,18.17,0,0,1,6.58-.27,1.44,1.44,0,0,1,.9.51c.15.2.14.42-.13.51a7,7,0,0,1-3.6.08,1.36,1.36,0,0,1-1-.64c-.13-.33.26-.45.55-.38a5.59,5.59,0,0,0,2.9-.07l.78,1a16.41,16.41,0,0,0-5.89.26,1.36,1.36,0,0,1-1.12-.36c-.2-.19-.38-.56,0-.65"/><path class="cls-9" d="M810.66,471.85c2.54.46,5.75,0,7.38-1.67,2.47-2.5,1.71-7.71-1.07-10.21-.3-.27-.07-.49.3-.49a2,2,0,0,1,1.29.56,9.52,9.52,0,0,1,2.42,9.2c-.91,2.45-3.69,3.71-6.87,3.81a14,14,0,0,1-2.89-.19c-.38-.07-1.05-.33-1.17-.67s.25-.41.61-.34"/><path class="cls-9" d="M784.28,465.7a.34.34,0,0,0-.22-.54,3,3,0,0,1-1.83-1.06l-.84.69a9,9,0,0,1,3.67,2.24.72.72,0,0,0,.84,0c.19-.1.43-.38.22-.6"/><path class="cls-9" d="M786.12,466.47A10.13,10.13,0,0,0,782,464a.85.85,0,0,0-.74.16.38.38,0,0,0-.09.53"/><path class="cls-9" d="M779,465a5.33,5.33,0,0,1-3.76-4,7.64,7.64,0,0,1,3.65-7.75.31.31,0,0,0,0-.56,1,1,0,0,0-.94.1,8.48,8.48,0,0,0-4.1,6.37,6.11,6.11,0,0,0,4.5,6.58.92.92,0,0,0,.91-.24c.18-.28,0-.46-.25-.51"/><path class="cls-6" d="M837.21,398l-1.41,7.44q-.54,2.83-1.06,5.67c5.87-.53,10.83-.65,14.55-.65,7.39,0,15,.59,22,3.17a23.59,23.59,0,0,1,8.7,5.23c.79.78,2.74,3.86,4.23,3.45.61-.17.28-3.39.25-3.72-.69-6.5-5.07-10-10.74-12.59-11.56-5.3-23.82-7.31-36.48-8"/><path class="cls-6" d="M753.73,388.4a20.14,20.14,0,0,0,2-4.38,32.92,32.92,0,0,1,4-.43c12.52-.56,24.44,2.19,36.22,6.32-.5,2.46-1,4.94-1.52,7.42-.38,1.88-.77,3.77-1.17,5.64-5.14-2.69-9.6-4.67-13-6.07-6.72-2.77-13.85-5.08-21.17-5.32A26.29,26.29,0,0,0,753,392Z"/><path class="cls-10" d="M789.77,544.72s11.63,1.58,19,1.71,23.93,2.65,63.44-15.15c0,0-19.23,30.68-61.4,25.85,0,0-16.39.47-22.7-3.21Z"/><path class="cls-11" d="M794.56,487.75c12.32,2.17,32.55,4.23,32.55,4.23s-8,23.71-36.58,18.69-28-30-28-30S782.23,485.58,794.56,487.75Z"/><path class="cls-12" d="M794.44,487.73c5.86,1,29.65,4.19,29.65,4.19s-10.08,11.56-31.28,7.83c-23-4-27.49-18-27.49-18Z"/><path class="cls-13" d="M794,488.56c5.85,1,23.86,3.18,23.86,3.18s-7.55,5.28-25.12,2.19-22.07-10.3-22.07-10.3Z"/><path class="cls-11" d="M761.53,478.6c.65-.05,3.86,1.68,6.82,1.95,4.92.43,8.18-.31,11.74,0,6.08.59,9.48,3.63,12.09,4.08s6.83-1.23,12.75.28c3.47.89,11.94,3.7,16.72,5,2.86.76,6.47.23,7.07.49.83.36-2,6.41-34.75.65S760.63,478.66,761.53,478.6Z"/><g id="freepik--Character--inject-2"><path class="cls-3" d="M631,938.73c-1.34-16.49-80.52,7.59-81.49-2.53-4.74-49.44-.57-89.86,2.13-140.22,2.9-53.84-23.46-100-19.36-153.71,1-13.5,9.22-21.59,19.15-24.71C541,598.29,528.69,580,520.33,559.68c-2.38-5.82-3.48-7.45-2.58-13.28-7.46-1.73-14.71-7.19-22.31-8.06l-47.66-5.47c-10.83-1.24-21.68-2.48-32.57-2.69-38.84-.73-114.82,21.13-153.35,25.74L260,844.48c-60.82,77.46-58.91,130.39-60.82,146.95,0,0,453.15.06,456.45,0C650.9,991.51,634.17,951.63,631,938.73Z"/></g><path class="cls-4" d="M770.62,616.94c.28-13.7,1.89-39.11,10-49.82-34.3,7.72-49.24,9.58-76.19,22.69a99.87,99.87,0,0,0-8.32,6.14c-18.43,15.22-35.94,40.14-45.42,55.54-5,8.11-10.58,16.75-16.43,26,.05,1.17.12,2.33.15,3.5,1.27,50.21-34.16,88.76-28.13,138.62,4.15,34.31,7.9,40.6,8.74,59.52,1.05-.72,10.33,2.26,7,2.18-9.47-.21,148.71-195,159.69-233.93.89-3.15,1.92-6.28,3-9.37C778.55,633.7,770.48,623.46,770.62,616.94Z"/><path class="cls-3" d="M649.38,923.78c-5.44-54.45-12.84-86.1-16.19-140.73-3.05-50,23.95-60.92,25.65-111.07,1.43-41.86-6.64-79.3-16.3-120.6-2-8.48-35.83-80.81-38-89.59,0,0,2.62-2.78-9.81-5.35s-30.38-6.63-30.38-6.63l-153.14-33.5-86.88,19.26c-29.81,6.16-36.91,11.21-41.27,22.34-2.81,7.16,22.6,11.93,20.17,18.88-10.74,30.67-4.48,47.38-12.77,64.44-22.51,46.31-39.15,96.55-30.12,146.69a244.37,244.37,0,0,1,3.83,32.76c65.66,157.11,225,224.43,393.48,270.75"/><path class="cls-2" d="M692.86,830.35a65.73,65.73,0,0,0,7.84-9.68,48.47,48.47,0,0,0,6-13.92,43.27,43.27,0,0,0,1.37-14.64,48.17,48.17,0,0,0-.89-6c-10.55-2.12-21.74-4.74-33.86-8.14,0,0-60.22,6.48-43.27,21.52,6.12,5.42,31.61,18,61.71,31.94Z"/><path class="cls-4" d="M899.3,842c14.39,13.84,9.43,74.55,18.68,92.11,5.59,10.61,23.66,1.41,30.95-10.62l1.89-1.64C983.88,893.13,1036,673.4,1027,640.11c-12.38-45.94-129-93.25-129-93.25-.44,27.8.17,235.67-11.22,285A83,83,0,0,1,899.3,842Z"/><path class="cls-2" d="M777.15,577.43a32.31,32.31,0,0,0,9.55,10,59.77,59.77,0,0,0,23.75,9.43,73.32,73.32,0,0,0,13.24.8,159.9,159.9,0,0,0,17.64-1c11.5-1.34,23-4.5,32.71-10.94a72.47,72.47,0,0,0,7-5.47c2.34-2,4.74-3.94,7-6a38.9,38.9,0,0,0,6.26-7.06c1.13-1.74,2-3.61,3.08-5.37l-27.12-10.13L785.9,562.77,774,566.41A22.86,22.86,0,0,0,777.15,577.43Z"/><path class="cls-14" d="M285.26,720.63a1.12,1.12,0,0,1,1.16,1.14c0,10.28,3.28,20.28,6.92,29.79,3.3,8.61,7.13,17,10.19,25.73,3.36,9.59.35,23.79,3.1,33.54.87,3.12-22,6.56-46.45,9.75.17,4.22.2,8.45.2,12.69C352,821.65,516,760.81,516,760.81l-27.54-68.66-180.9,11.29s40.69-129.65,34-168.16c-4.3-24.55-9.9-33-22.75-48.82a160.64,160.64,0,0,0-13.44,29.63c-5,14.23-8.51,28.92-11.62,43.65a378.63,378.63,0,0,0-7.41,51.93C283.75,647.94,285.47,684.31,285.26,720.63Z"/><path class="cls-3" d="M228.36,491.41c-10.32,21.46-21.8,54.32-27.2,77.3-8.63,36.66-14.27,72.23-22.17,109.06-4,18.76-6.67,33.66-10.41,52.48-1.94,9.7-3.62,25-5.54,34.73-4.4,22.29-4.84,42.16,15.77,58.4,6.26,4.94,18.6,10.17,26.53,11,22.43,2.24,41.66,2.26,63.68-1.6C311.48,825.3,511.88,759,511.88,759l-23.39-64.54-187.71,14.9s45.81-152.63,41.85-191.52c-4.46-43.68-7.95-84.84-11.82-84.25C255.41,445.12,239.26,468.77,228.36,491.41Z"/><path class="cls-14" d="M636.82,517.82S656.59,605.68,659,638.77l4.64-6.58S659,591.19,636.82,517.82Z"/><path class="cls-14" d="M307.59,708.86s-30.88-.61-48.91,14.85c0,0,16.79-20.29,48.91-20.27Z"/><path class="cls-15" d="M889.82,807s20.14-4,32,13.14c0,0-18.53-10.44-30.75-11.86S889.82,807,889.82,807Z"/><path class="cls-4" d="M686.78,772.77s-10.66,52-19.1,58.23L713,853.92l27.51-71.69Z"/><path class="cls-16" d="M398.91,131.77c8.94-11,22.17-17.76,35.37-13.19,1.24-26.33,27.78-40.07,54.12-39,13.49,1.16,26.94,8.21,40,4.63,8.15-2.22,14.59-8,21.74-12.77,29.92-19.12,72.9,8.47,95.24,36.09s14.36,56.15-.28,88.48c-6.8,15-6.46,23.5-9.35,39.87C633,251.34,621.59,279.6,620.35,295s21.77,33.28,6.09,33.42L458.1,296.68c-25.57,3.23-41.15-5.52-52.52-28.65-7.36-15.69-4.51-16.18-4.42-33.47-.45-22.65-22.14-41.16-19.23-63.62C383.32,156.79,390.61,143.31,398.91,131.77Z"/><path class="cls-17" d="M377.9,129.36s60.71-25,135.84-11.38,108.86,62.61,119.78,96.8S627.91,283,627.91,283s18.57,6.45,35.88-60.81c25.24-98-72.09-165-96.6-166.33S419.25,20.44,377.9,129.36Z"/><path class="cls-2" d="M428.76,298.94s-.4,72.25-22.15,111.51c-3,5.47-41.19,16-41.21,16,2.81-1.19,17.08,8.27,19.84,9.73,10.33,5.47,20.17,11.09,31.25,15.07,22.95,8.25,47.34,11.73,71.53,13.91s61,3,80.51-15.21c-6.24-4.1-28.29-7-28.94-16.49-.5-7.36,12.63-60.68,12.63-60.68"/><path class="cls-10" d="M543.22,414.39s-14.16-3.2-22.68-6.31-23.49-3.73-61-41.63c0,0,8.53,43.72,59.08,56.8,0,0,12.24,4.37,21.11,2.93Z"/><path class="cls-2" d="M606.4,157.31l.51.49a6.85,6.85,0,0,1-.43-1Zm21.08,7.92c.27.35.58.7.9,1.05l.06-.4S627.56,164.75,627.48,165.23ZM454.54,361.14c17.09,24.12,45.36,51.23,77.77,55.07,11.62,1.38,23.72-2.87,32.87-9.08,13.88-9.43,28.47-19,39.56-30.9,10.64-11.44,15.68-18.81,21.86-33.11,6.38-14.79,7-18.86,7.74-34.53a154,154,0,0,1,3-24c1.79-7.54,10-37.06,13.45-54.6s-5.23-53.07-5.23-53.07c-.24-4.94-7.21-3.49-9.17-7.73l-2.08-.35a2.07,2.07,0,0,1,.72,2.08,16.45,16.45,0,0,1-6.69-4.62l0,.08c-3.35.91-6.23-1-8.43-3.86-.08.48.28,1.52.8,1.61a10.57,10.57,0,0,1-7.83-4.25c-.08.48.29,1.52.21,2a19.42,19.42,0,0,1-6.2-4.06c.38.7,12.39.83,12.34,1.16-3.19,0,.2,1.59-2-1.22l-2.28-2.2c-2.68,0-2.84,1.62-4.6-.63.44.56-.56-5.49-.63-5-3.12-.52-2.24-.58-4.59-2.45-.08.48-9,1.69-9.09,2.16-2.59-.43-2.3,2.06-4.06-.19.44.57,2.21-1.68,2.64-1.12-3.19,0-4.69,1.77-6.89-1.05.44.57-9.39-6.94-9.39-6.94-3.2,0-2.83,1-5.11-1.31.88,1.13-14.23-3.28-13.87-2.24-2.59-.43,3.38,10.34,1.54,8.56-.08.48-5.73-2.42-5.73-2.42-2.68,0,.82,3.07-.94.82-.08.48.2,2,.72,2.08-3.35.91-6.83-.64-9.62-3.07.88,1.13,1.24,2.17,1.68,2.73-2.6-.43-4.75-.3-7-2.64-.08.47.72,2.08,1.24,2.16a10.43,10.43,0,0,1-8.15-2.33c-.07.47.8,1.6,1.24,2.16a7.43,7.43,0,0,1-6.06-2L529.5,145c-2.07-.35-3.79.34-6.74-1.13-.08.48.88,1.13.8,1.6a19.36,19.36,0,0,1-5.12-1.34c-.07.48,1.32,1.69.8,1.6-2.07-.34-3.79.35-6.22-1,.43.56.8,1.6,1.24,2.16-2.08-.34-4.23-.21-6.15-1.51a3.58,3.58,0,0,0,.72,2.08c-2.08-.35-3.79.34-6.23-1-.08.47.8,1.6,1.24,2.16-2.08-.34-4.23-.21-6.23-1-.08.48.88,1.13,1.32,1.69-2.08-.34-4.23-.21-6.67-1.6-.16,1,.28,1.52.2,2-1.56-.26-2.51-.9-4.07-1.16l-2.76.52c-8.85,8.31-34.83-3.92-34.83-3.92-18.23,10.18-7.64,79.58-8.63,88.72s-6.55,10.8-6.55,10.8c-2-3.76-6.85,5.57-7.77,1.5-1-3.59.75-7.71-.25-11.3-3.4-8.4-14.18-7.75-20.68-3.94l-1.22,1.41c-9.73,9.45-6.61,44.37-2.36,55.28-1.62,20.54,14.46,34.11,26.88,21.13l1.51,8.36"/><path class="cls-9" d="M567.86,327.22c-4.16,1.35-9.92-.08-13.37-3.1-.77-.67-3.7-.64-2.63.3,4.57,4,12.9,5.68,18.26,3.93.53-.18.51-.57-.07-.87a3.32,3.32,0,0,0-2.19-.26"/><path class="cls-9" d="M550.38,323.06a24.28,24.28,0,0,0-8-3.46,1.93,1.93,0,0,0-1.34.19c-.28.18-.38.46-.09.69a9.23,9.23,0,0,0,4.4,1.8,1.75,1.75,0,0,0,1.5-.31c.32-.34-.11-.67-.49-.73a7.29,7.29,0,0,1-3.55-1.47l-1.44.88a21.59,21.59,0,0,1,7.13,3.11,1.85,1.85,0,0,0,1.56.09c.33-.13.73-.5.31-.79"/><path class="cls-9" d="M538.89,321.51c-3.35-.65-7.06-2.76-8.3-5.56-1.87-4.22,1.47-9.86,6.08-11.59.5-.19.31-.57-.14-.75a2.79,2.79,0,0,0-1.85.07c-4,1.51-7.22,6.07-7.26,9.73,0,3.42,2.79,6.29,6.66,7.93a18.75,18.75,0,0,0,3.64,1.13c.51.1,1.45.1,1.77-.26s-.12-.61-.6-.7"/><path class="cls-9" d="M574.31,326.55a.45.45,0,0,1,.53-.57,4,4,0,0,0,2.75-.41c.24.41.48.82.71,1.23a11.78,11.78,0,0,0-5.58,1,1,1,0,0,1-1.05-.35c-.19-.22-.35-.68,0-.84"/><path class="cls-9" d="M571.68,326.61a13.28,13.28,0,0,1,6.25-1.09,1.11,1.11,0,0,1,.83.55.47.47,0,0,1-.13.68"/><path class="cls-9" d="M581.23,328.17a7,7,0,0,0,6.52-3.09,10,10,0,0,0-.83-11.2.39.39,0,0,1,.28-.67,1.28,1.28,0,0,1,1.1.56,11.14,11.14,0,0,1,2.05,9.73,7.82,7.82,0,0,1-6.16,5.79,8.15,8.15,0,0,1-2.51.11c-.33,0-.9-.3-1-.72s.24-.56.55-.51"/><path class="cls-18" d="M618,267.43c3.13-1,6.64.82,8.25,2.8A8.27,8.27,0,0,1,627.5,274a7.6,7.6,0,0,1-2.91,6.54,7.06,7.06,0,0,1-8.24.06c-3.24-2.22-3.68-6.65-2.29-9.59a6.93,6.93,0,0,1,3.93-3.6"/><path class="cls-18" d="M587,272.1s15.87-8.7,23.16-8.22c10.63.71,22.56,8.65,25.4,14.46,0,0-15.61-11.51-23.12-11.79C605.21,266.29,587,272.1,587,272.1Z"/><path class="cls-18" d="M530.48,254c-2.63-2-7.33-2.33-9.5-1a7.34,7.34,0,0,0-2.76,3,7.62,7.62,0,0,0,.64,7.12,7.07,7.07,0,0,0,7.77,2.74c3.79-1.06,5.64-5.1,5.28-8.33-.07-.59.69-1.59-1.44-3.18"/><path class="cls-18" d="M543.69,264.05s-14.16-12.71-21.92-14.24c-11.31-2.23-26,2.17-30.58,7,0,0,19.53-6.82,27.46-5C526.23,253.46,543.69,264.05,543.69,264.05Z"/><path class="cls-19" d="M593.16,235q-.42,3.19-.86,6.41l-.63,4.88c5.63-.62,10.41-.87,14-1,7.61-.22,11.5-.3,15.72,1a41.33,41.33,0,0,1,9.45,4.48,26.43,26.43,0,0,1,4.83,3.47c3.29,3.15,4.37,6.34,5,6.16s0-2.91,0-3.19a25.24,25.24,0,0,0-6.3-11.89,29.52,29.52,0,0,0-9.41-6c-4.12-1.68-15.84-4.09-31.81-4.38"/><path class="cls-19" d="M555.73,228.61q-.86,3.1-1.73,6.23-.66,2.39-1.34,4.74c-5.4-2.91-10.09-5.12-13.66-6.71-7.55-3.36-11.42-5.05-16.19-5.59a48.42,48.42,0,0,0-11.3.18,29.67,29.67,0,0,0-6.24,1.18c-4.58,1.52-7,4-7.53,3.57s1.13-2.68,1.3-2.92A25.57,25.57,0,0,1,510.18,221,33.37,33.37,0,0,1,522,219.42c4.81.18,17.55,2.82,33.69,9.19"/><path class="cls-20" d="M427.71,273c-8.79-28.46-17-29.49-17-29.49s-6.19,5.75-4.74,18.68"/><path class="cls-20" d="M423.2,275.06c-7.29-1.49-3.05,12.87-5.42,15.91s-4.18-5.86-4-16.35c0,0,1.44-14,8.68-15.89"/><path class="cls-10" d="M538.24,198.1s17.1,10.82,35.42,12.19,41.09.7,41.09.7"/><path class="cls-19" d="M637.52,161.84c-.2-.35.09.15,0,0-4-6.79-6.28-13.87-10.56-20.47s-8.34-12.37-12.89-18.6c-.27-.37-6.24-1-6.51-1.41l-.29-.39-.44-.58-1-1.34c-27.32-14.85-61.47-19.57-93.24-12.75C450.84,119.54,393.43,183.36,424.78,242c2.55,4.77,1.52,21.26,6.31,24.6s5.52,1.95,10.59-1c4.88-3.22,4.94-17.53,7.87-22.58,15.22-23.71,21.81-63,18.28-90.93,2.89,5.46,26.51,2.09,31.36,5.92a44.26,44.26,0,0,0,62.17-7.35,67.46,67.46,0,0,0,6.26,9.2c21.36,26.45,51,40.95,78,25.91C646.66,185.28,640,166.14,637.52,161.84Z"/><path class="cls-21" d="M485.12,243.18l1.74,10.16c.72,7.8,4.11,23.53,6.06,28,2.76,6.24,42.31,14.51,50.85,11.14S560.18,267,563.08,262l15.82,3.34c.37,7.05,2,29.47,4.62,32.85s21,5.67,23,5.92c1.72.19,4.13.47,6.77.65,7,.56,15.57.68,18.54-1.49,4.42-3.21,10.84-17.06,16.56-30.23l.92-2.06c.2-.5.42-.83.45-1h0l1-2.37c-21.29-14.47-51.73-17.27-72.1-6.62l.11.27-15.43-3.33c-15.77-14.37-45.2-25.38-68.24-20.27h0l-69.22.92-1.12,6Zm100.61,53.07c-1.61-2.11-3.24-17.89-4.11-30.11,17.66-8.93,45.08-6.36,64.29,5.4l0,.3c-3.07,7.06-11.22,25.84-15.57,29-5.14,3.72-41.69-1.21-44.57-4.52ZM497.9,280.42A207.49,207.49,0,0,1,490,244.05c20.7-5.84,53.63,4.23,69.11,17.95-4.22,9.11-10.25,25.26-16.37,27.65-8.8,3.48-43.11-5.29-44.83-9.23Z"/><path class="cls-22" d="M586.17,296c-1.61-2.11-3.24-17.89-4.11-30.11,17.66-8.93,45.07-6.36,64.29,5.4l-.06.3c-3.07,7.06-11.22,25.84-15.56,29-5.14,3.72-41.69-1.21-44.57-4.52Z"/><path class="cls-22" d="M497.9,280.42A207.49,207.49,0,0,1,490,244.05c20.7-5.84,53.63,4.23,69.11,17.95-4.22,9.11-10.25,25.26-16.37,27.65-8.8,3.48-43.11-5.29-44.83-9.23Z"/><path class="cls-23" d="M394.08,244s-53.8-46-28.47-88.71c4.86-8.21,5.1-5.36,5.93-12.73,4.39-38.58-9.88-30.44,50.4-71.15s68.55-39.26,154.53-25.89c44.34,6.9,67.27,27.5,77.19,56.73,4.46,13.15,6.29,28,6.26,44.21,0,0-89.06-33.29-145.68-8.36S393,253.75,402.15,285.23C404.72,294.07,394.08,244,394.08,244Z"/><path class="cls-17" d="M362.26,198.86S448.63,92.36,552,97.17c0,0-126.27-23.82-189.91,62.64l-1.7,10.63a58.31,58.31,0,0,0,.28,19.94Z"/><path class="cls-11" d="M551,347.25c-16.07-2.84-41.76-9.41-41.76-9.41s-1.05,34.34,36.21,40.91,48-26.07,48-26.07S567.08,350.08,551,347.25Z"/><path class="cls-12" d="M551.17,347.28c-7.64-1.35-38.2-8.14-38.2-8.14s7,19.57,34.68,24.44c30,5.28,41.85-10.68,41.85-10.68Z"/><path class="cls-13" d="M551.29,348.54c-7.64-1.35-30.65-6.8-30.65-6.8s6.82,10.28,29.74,14.32,31.7-3.23,31.7-3.23Z"/><path class="cls-11" d="M595.6,350.51c-.78-.36-5.5.41-9.23-.6-6.22-1.69-9.87-4.14-14.39-5.31-7.71-2-13.25.36-16.65-.24s-7.8-4.73-15.73-5.47c-4.65-.44-16.3-.69-22.72-1.23-3.86-.32-8-2.66-8.88-2.6-1.18.1-.53,9.21,42.22,16.74S596.67,351,595.6,350.51Z"/><path class="cls-2" d="M876.82,548.69s-.14,7.57,6.26,9.88,20.35,5.2,26.27,6l3,.58s-11.49,11.48-11.63,15.55,1.86,10.62,4,11,7.16-1.7,7.16-1.7-3.74,7.6-.19,11.16,8,1.76,11.15,1,9.88-4.75,9.88-4.75.09,8.64,5.09,9.63,24.37-7.48,24.37-7.48-2,9.62,3.73,10.65,11.6-2.77,16.32-6.35,10.73-8.37,10.54-11.41a11,11,0,0,0-4-8.09l-7.61-5.69s.42-4.89-1.39-8.39-11.58-15.52-11.58-15.52,1.45-7.59-1.51-11.07-11.23-7.5-11.23-7.5-5.87-11.78-8.83-12.19-4-1.75-15.69.46-34.07,10-34.07,10-6.26-.92-10.7,2S875.08,542.08,876.82,548.69Z"/><path class="cls-10" d="M981,579.19s-.88,4.92-2.6,6.86-12.89,10.15-12.89,10.15,12.78-6.92,14.45-9,1-8.74,1-8.74"/><path class="cls-10" d="M967.79,555.33s2.1,12.81-2.81,17.64-28.73,19.86-28.73,19.86,26.16-19.46,28.12-23.58S967.79,555.33,967.79,555.33Z"/><path class="cls-10" d="M954.62,539.1s-1.81,18.71-5,21.86-31.34,23.1-33.28,24.48l-3,1.57s32.52-25.93,34.71-28.9S954.62,539.1,954.62,539.1Z"/><path class="cls-10" d="M897.67,553.06s6.22,9.44,11.68,11.51,13.32-2.48,13.26-8.16-2.39-9.92-4.59-11.92-4-5.13-7.87-7.12c0,0,9.87,12.21,10.23,14.7s.8,9.88-4.18,10.87-6.94.45-11.82-3.44A38.38,38.38,0,0,1,897.67,553.06Z"/><path class="cls-10" d="M921.62,559.92s7.48-6.11,7.63-8.73a89.32,89.32,0,0,0-.48-10.32s.32,8.1-1.66,11S921.62,559.92,921.62,559.92Z"/><path class="cls-10" d="M894.61,535s-3.81,22,.9,27.26Z"/><path class="cls-15" d="M982.06,858.93s-9.34,22.34-27.86,37.51c-17.83,14.61-20.5,11.43-20.5,11.43-156.41-13.25-256.32-72.06-256.32-72.06C795.77,904.94,936,910.06,936,910.06c22.25-4.26,42-40,42-40Z"/><path class="cls-15" d="M679.63,779.14a1.63,1.63,0,0,1,.31,0c-.92-21-3.06-77.2-3.46-84.68-.62-9-1.1-16.09-1.22-21.61a58.27,58.27,0,0,0-.84-7.92,72.67,72.67,0,0,0,0,7.95c0,5.08.3,12.49.59,21.6.9,25,3.34,56.77,4.59,84.54C679.58,779,679.6,779.08,679.63,779.14Z"/><path class="cls-2" d="M488.49,694.44l9,26,9.38,25.64s44.67,3.83,55.85,1.08,38.15-6,38.15-6a15.19,15.19,0,0,0,.74,10.33,15,15,0,0,0,9.17,7.43l9.42-19.35c4.35,7.8,10.93.64,10.93.64l6.48-16.78c4.94,9.91,13.7.81,13.7.81l2-22.57a34.74,34.74,0,0,0,11.23,7.54c5.38,1.71,5.91-7.2,5.91-7.2l-23.65-31.65-53.59-8.62-80.13,30.93Z"/><path class="cls-10" d="M614.52,672.18a79.31,79.31,0,0,1,10.2,2.24c3.75,1.05,7.91,2.2,12.16,3.84a59.25,59.25,0,0,1,11.52,5.67,8,8,0,0,1,3.71,4.85,37.57,37.57,0,0,1,.86,4.85,22.14,22.14,0,0,1,.23,9.55c-.32,0-.64-3.43-1.87-9.14-.32-1.42-.64-3.07-1.1-4.57a6.07,6.07,0,0,0-3-3.57,68.72,68.72,0,0,0-11.2-5.31c-4.11-1.55-8.14-2.74-11.89-3.88s-7-2.2-9.83-2.75a28,28,0,0,0-9.14,0A12.16,12.16,0,0,1,614.52,672.18Z"/><path class="cls-10" d="M608.27,692.5c5.39,1.24,13,2.15,21.3,4.58a15.32,15.32,0,0,1,6.09,2.83,20.9,20.9,0,0,1,3,5.4,20.37,20.37,0,0,1,2.06,9.92,39.22,39.22,0,0,1-1.7,6.49,16.28,16.28,0,0,1-.86,2.29,8.39,8.39,0,0,1,0-2.47,42.2,42.2,0,0,0,.91-6.4,20,20,0,0,0-2.38-9.15,21.74,21.74,0,0,0-2.6-4.57,14.34,14.34,0,0,0-5.13-2.19c-8-2.34-15.68-3.57-21-5.26a23.3,23.3,0,0,1-8.37-3.57A70.8,70.8,0,0,1,608.27,692.5Z"/><path class="cls-10" d="M621.65,733.6a11,11,0,0,0,.32-6.5,8,8,0,0,0-5.3-5.16,25.83,25.83,0,0,0-8.28-1.15l-7.23-.27c-1.82-.09-3.52-.32-4.57-.32a8.5,8.5,0,0,0-1.64.27c-.19,0,.22-.86,1.51-1.18a29.66,29.66,0,0,1,4.89-.46l7.22-.23a24.25,24.25,0,0,1,9.15,1.1,10.05,10.05,0,0,1,6.63,6.86,12.37,12.37,0,0,1-.87,7.63c-1.88,3.89-3.66,5.58-3.89,5.58C619.23,739.59,620.6,737.35,621.65,733.6Z"/><path class="cls-14" d="M277.86,454.45s42.42-3.09,63.38,68.74C341.24,523.19,333.2,453.25,277.86,454.45Z"/></g><g id="Layer_3" data-name="Layer 3"><path class="cls-15" d="M945.73,625.09s-13.45,5.16-20,29.19-32.4,154.56-32.4,154.56L685.43,779l.21-1,206.49,28.19,30.19-147.4S928.44,631.29,945.73,625.09Z"/><path class="cls-2" d="M654.7,813.35c-1.07-.26-10.87-5.12-20.52-4.74S605.59,804,605.59,804s-29.66-13.75-32.37-17-3-11.42-3-11.42a32.8,32.8,0,0,0-6.72-4.83c-6.33-4.09-4.18-12.69-4.18-12.69l10,2.32a273.36,273.36,0,0,1-27.8-7.41c-2.47-1.22-1.9-2.83-.54-4.44a11.67,11.67,0,0,1,8.58-3.67l52.6-1.06a97.4,97.4,0,0,1-6.5-19.32c-1.54-6.73,4.21-7.66,6-7.66s13.72,14.49,13.72,14.49,24.34,14.39,28.59,18.51,25.64,27.32,25.64,27.32l9.75,2.33S655.77,813.6,654.7,813.35Z"/><path class="cls-24" d="M569.88,775.6a33.07,33.07,0,0,0-6.71-4.82c-6.33-4.09-4.19-12.69-4.19-12.69l10,2.32A273.55,273.55,0,0,1,541.15,753c-2.46-1.22-1.89-2.83-.53-4.44a11.65,11.65,0,0,1,8.57-3.67l52.61-1.06a98.08,98.08,0,0,1-6.51-19.32c-1.53-6.73,4.22-7.66,6-7.66s13.73,14.49,13.73,14.49,11.86,4.81,16.11,8.93"/><path class="cls-10" d="M612,743.9a68.88,68.88,0,0,1,14.73,2.35,64.7,64.7,0,0,1-14.91-.68,115.84,115.84,0,0,1-14.76-1.48A46.8,46.8,0,0,1,612,743.9Z"/><path class="cls-10" d="M582.37,762.77c-6-.68-11.44-1.36-15.34-2.06a20.49,20.49,0,0,1-6.25-1.61,31.44,31.44,0,0,1,6.43.45c3.93.38,9.4.87,15.41,1.54,12,1.26,21.62,3.61,21.44,4.12S594.37,764,582.37,762.77Z"/><path class="cls-10" d="M586.83,780.05a49.07,49.07,0,0,1-16.47-4.7c.21-.29,7.54,1.78,16.79,3.22s16.91,1.68,16.91,2.16A51.14,51.14,0,0,1,586.83,780.05Z"/></g></svg>