<svg xmlns="http://www.w3.org/2000/svg" viewBox="0 0 1221.96 991.43"><defs><style>.cls-1{fill:#f2ebd1;}.cls-2{fill:#bb997a;}.cls-22,.cls-28,.cls-3,.cls-33,.cls-40,.cls-7{fill:none;}.cls-3{stroke:#5c5c5c;stroke-linecap:round;stroke-width:5.28px;}.cls-22,.cls-25,.cls-26,.cls-27,.cls-28,.cls-3,.cls-33,.cls-34,.cls-35,.cls-37,.cls-40,.cls-42,.cls-7{stroke-miterlimit:10;}.cls-4{fill:#956243;}.cls-5{fill:#684136;}.cls-6{fill:#f5a644;}.cls-7{stroke:#dc8327;stroke-width:1.79px;}.cls-8{fill:#5c5c5c;}.cls-9{fill:#b15e27;}.cls-10{fill:#df8c26;}.cls-11{fill:#ce8d2a;}.cls-12{fill:#13110f;}.cls-13{fill:#231f20;}.cls-14{fill:#010101;}.cls-15{fill:#f1eef7;}.cls-16{fill:#8e6244;}.cls-17{fill:#c95744;}.cls-18{fill:#9b3831;}.cls-19{fill:#361b10;}.cls-20{fill:#683721;}.cls-21{fill:#474848;}.cls-22{stroke:#714533;stroke-width:1.76px;}.cls-23{fill:#c3b3d7;}.cls-24{fill:#aebf9d;}.cls-25,.cls-26,.cls-27,.cls-31,.cls-34,.cls-35{fill:#151210;}.cls-25,.cls-26,.cls-27,.cls-28,.cls-33,.cls-34,.cls-35{stroke:#161311;}.cls-25{stroke-width:0.83px;}.cls-26{stroke-width:0.82px;}.cls-27{stroke-width:0.86px;}.cls-28{stroke-width:2px;}.cls-29{fill:#273339;}.cls-30,.cls-42{fill:#8a7aa9;}.cls-32{fill:#161311;}.cls-33{stroke-width:1.93px;}.cls-34{stroke-width:0.83px;}.cls-35{stroke-width:0.83px;}.cls-36{fill:#706189;}.cls-37{fill:#68725a;stroke:#68725a;}.cls-38{fill:#070808;}.cls-39{fill:#32383a;}.cls-40{stroke:#684137;stroke-width:2px;}.cls-41{fill:#714533;}.cls-42{stroke:#8a7aa9;}.cls-43{fill:#24180f;}.cls-44{fill:#fff;}.cls-45{fill:#653c29;}</style></defs><g id="Layer_1" data-name="Layer 1"><polyline class="cls-1" points="0.13 991.43 0.13 0 1222.09 0 1222.09 991.43"/><polyline class="cls-2" points="1221.96 991.33 0 991.33 0 540.19 1221.96 540.19"/><line class="cls-3" x1="170.06" y1="267.59" x2="164.26" y2="532.78"/><path class="cls-4" d="M125.87,251.3c-2,1.75-6.28,4.45-8.22,6.24-4.18,3.85-8.11,5.69-12.06,9.81l50.28,28.35,6-12.52Z"/><path class="cls-4" d="M159.69,282.08l12.94-2.67s14.36,3.37,16,5.32,3.59,4.78-.07,6.43c0,0,1.4,4.23-.74,5.17s-4.46-.61-4.46-.61,2.62,3.53.16,5-3.44.17-3.44.17-.29,2-1.55,1.8a34.22,34.22,0,0,1-5.16-1.87s-7.08.44-10.84-.86a18.18,18.18,0,0,1-6.73-4.73Z"/><path class="cls-5" d="M181.05,288.6a9.53,9.53,0,0,1,7.27,2.38"/><line class="cls-3" x1="225.17" y1="511.1" x2="209.4" y2="227.21"/><polygon class="cls-6" points="195.86 513.48 200.39 559.75 259.13 559.75 251.72 513.48 195.86 513.48"/><line class="cls-7" x1="208.65" y1="559.75" x2="201.94" y2="513.48"/><line class="cls-7" x1="217.43" y1="559.75" x2="210.72" y2="513.48"/><line class="cls-7" x1="226.21" y1="559.75" x2="219.5" y2="513.48"/><line class="cls-7" x1="234.99" y1="559.75" x2="228.28" y2="513.48"/><line class="cls-7" x1="243.77" y1="559.75" x2="237.06" y2="513.48"/><line class="cls-7" x1="252.55" y1="559.75" x2="245.84" y2="513.48"/><path class="cls-8" d="M196.52,505.24h54.19a5.9,5.9,0,0,1,5.9,5.9v6.74a0,0,0,0,1,0,0h-66a0,0,0,0,1,0,0v-6.74A5.9,5.9,0,0,1,196.52,505.24Z"/><path class="cls-4" d="M111.87,124.17s-2.9,18.25-6.1,21.78c-1.08,1.18-5.79,6.22-5.79,6.22L112.49,159a54.13,54.13,0,0,0,26.73,3.07l2.88,1.24s-5.32-7.41-5.39-9.29,3.74-15.35,3.74-15.35"/><path class="cls-5" d="M138.15,148.17A29.5,29.5,0,0,0,133,145c-2.14-.86-6-1.14-15.19-11.1a20.2,20.2,0,0,0,14.5,15.39,12.24,12.24,0,0,0,5.11.87Z"/><path class="cls-4" d="M153.36,81.78l.14.12a1.41,1.41,0,0,1-.13-.24Zm5.48,1.69.25.26v-.11S158.86,83.35,158.84,83.47ZM117.89,136c4.72,5.87,12.33,12.33,20.63,12.8a12.77,12.77,0,0,0,8.22-2.82c3.39-2.61,6.95-5.26,9.59-8.47a25.55,25.55,0,0,0,5-8.76,19.07,19.07,0,0,0,1.43-8.91,40.14,40.14,0,0,1,.4-6.15c.34-2,2-9.59,2.58-14.1s-3.33-12-3.33-12a8.54,8.54,0,0,0-1.28-3.22l-.53-.06a.53.53,0,0,1,.21.52,4.28,4.28,0,0,1-1.77-1.07v0a2.09,2.09,0,0,1-2.21-.85c0,.12.1.38.23.39a2.7,2.7,0,0,1-2.06-1c0,.13.1.38.09.51a5,5,0,0,1-1.64-.94c.1.17,3.16,0,3.15.11-.81,0,.08.4-.52-.28l-.62-.53c-.68,0-.7.46-1.18-.09.12.14-.22-1.38-.24-1.26-.8-.09-.57-.12-1.2-.55,0,.12-2.27.56-2.28.69-.67-.07-.55.56-1,0,.12.14.54-.46.66-.32-.81,0-1.17.52-1.77-.17.12.14-2.5-1.61-2.5-1.61-.81,0-.7.3-1.32-.26.24.27-3.67-.61-3.56-.35-.67-.07,1,2.57.52,2.15a7.18,7.18,0,0,1-1.49-.53c-.68,0,.26.77-.23.23,0,.12.09.5.22.51a2.72,2.72,0,0,1-2.5-.63c.24.27.35.53.47.67a2.63,2.63,0,0,1-1.83-.56c0,.12.22.51.35.53a2.67,2.67,0,0,1-2.11-.47c0,.12.23.4.35.53a1.89,1.89,0,0,1-1.57-.41l.35.53a4,4,0,0,1-1.74-.18c0,.12.25.27.23.39a4.68,4.68,0,0,1-1.32-.26c0,.13.36.41.23.4-.53-.06-1,.14-1.6-.17.12.14.23.4.35.53a3.51,3.51,0,0,1-1.59-.29,1,1,0,0,0,.22.52c-.54-.06-1,.15-1.6-.17,0,.12.22.4.35.53a7.21,7.21,0,0,1-1.61-.16c0,.12.25.27.37.4a4.19,4.19,0,0,1-1.73-.3c0,.25.1.38.09.5-.4,0-.66-.19-1.06-.23l-.69.18C120.39,83.78,119.66,92,119.66,92c-4.48,2.88-6.78,9.44-6.89,11.78a56.59,56.59,0,0,1-1.31,7.29,24,24,0,0,1-2.15-3.94c-.31-.9.08-2-.23-2.87-1-2.08-3.73-1.75-5.33-.68l-.28.38c-2.33,2.55-1,11.39.25,14.1-.09,5.25,3.5,6.77,7.17,5l.51,2.11"/><path class="cls-9" d="M105.43,77.25a60.73,60.73,0,0,1,30.48-1c16.65,3.82,24.93,8.52,27,16.11s.42,20.68.42,20.68-2.1,3.14,2.46-11.36c6.65-21.14-14.66-43.29-20.12-43.86S115.8,53.92,105.43,77.25Z"/><path class="cls-9" d="M101.63,71.78s-.93-17.31,11.13-19.27,34-5.45,39.59,10.86Z"/><path class="cls-10" d="M99.31,108.65c-1.09-1.36-.4-4.82-1.3-6.31-4.74-7.82-2.25-14.73.29-18.73,1.1-1.74.16-5.09.41-6.69,1.34-8.38,2.33-8.54,15.77-15.89,10.94-6,22-4.5,28.34-3.49,10.2,1.61,14.65,2.73,17.47,10.37.37,1-.21,1.71.06,2.9.39,1.67,2.9,2.11,3.11,4.2,0,0-13.71,3.92-25.63,8.84s-34.43,26.43-34.35,33.59C103.48,117.67,100.52,110.16,99.31,108.65Z"/><path class="cls-9" d="M95.38,92.08s21.84-21.85,43-19.85c0,0-26.71-6.36-40.77,11.93l-.36.75a18.52,18.52,0,0,0-1.8,6.3Z"/><path class="cls-9" d="M160.61,71.11l-1.38-.68a36.65,36.65,0,0,0-10.15-3.33l-5.9-1s14.63-1,17.45,3Z"/><path class="cls-11" d="M108.76,121.2a3.05,3.05,0,0,0-3.09,2.37,2.64,2.64,0,0,0,.44,2,2.25,2.25,0,0,0,1.08.84,3.24,3.24,0,0,0,2.8-.16c.08,0,.16-.13.05-.2s-.3,0-.39.06a2.42,2.42,0,0,1-2.91-.6,2.53,2.53,0,0,1,.08-3.2,2.22,2.22,0,0,1,1.71-.77c.11,0,.32,0,.38-.15s0-.14-.15-.14Z"/><path class="cls-12" d="M114.46,101.49l-1.95,11.83-3.64-5.69S112.86,103.23,114.46,101.49Z"/><path class="cls-13" d="M109.6,112.49c-.82-.08-1.79.1-1.71,1.12a20.32,20.32,0,0,1,.53,2.53c0,.27-.13.85-.48.89s-.89-.74-1.06-1a5,5,0,0,1-.62-3.22c.15-1,.48-2.63,1.58-3,.34-.11.25-.5-.1-.39a3.41,3.41,0,0,0-1.92,2.72,5.51,5.51,0,0,0,.09,3.09c.27.82,1.11,2.63,2.28,2.15,1-.41.85-1.65.62-2.48a5.9,5.9,0,0,1-.35-1.48c0-.58.47-.56,1-.51.27,0,.57-.37.19-.41Z"/><path class="cls-9" d="M107.79,95.32s-8.32,7-9.22,10l-.56-3A15.65,15.65,0,0,1,107.79,95.32Z"/><path class="cls-14" d="M144.82,125.25a3.85,3.85,0,0,1-3.45-.58c-.2-.16-1-.11-.66.12a5.42,5.42,0,0,0,4.71.71c.13,0,.12-.15,0-.22a.86.86,0,0,0-.57,0"/><path class="cls-14" d="M140.31,124.46a6,6,0,0,0-2.08-.75.45.45,0,0,0-.34.07c-.07,0-.09.12,0,.17a2.29,2.29,0,0,0,1.14.39.45.45,0,0,0,.38-.1c.08-.09,0-.17-.14-.18a1.85,1.85,0,0,1-.92-.32L138,124a5.55,5.55,0,0,1,1.86.68.47.47,0,0,0,.4,0c.08,0,.18-.14.06-.21"/><path class="cls-14" d="M137.37,124.25a3,3,0,0,1-2.2-1.29,2.43,2.43,0,0,1,1.37-3c.12-.06.07-.15,0-.19a.69.69,0,0,0-.47,0,3,3,0,0,0-1.7,2.58,2.41,2.41,0,0,0,1.82,1.92,4.88,4.88,0,0,0,1,.23c.13,0,.37,0,.44-.09s0-.16-.16-.17"/><path class="cls-14" d="M146.46,125a.11.11,0,0,1,.12-.15,1,1,0,0,0,.7-.15l.2.3a3.08,3.08,0,0,0-1.41.34.23.23,0,0,1-.27-.07c-.05,0-.1-.17,0-.21"/><path class="cls-14" d="M145.79,125a3.28,3.28,0,0,1,1.57-.38.27.27,0,0,1,.22.13.13.13,0,0,1,0,.18"/><path class="cls-14" d="M148.24,125.28a1.75,1.75,0,0,0,1.61-.88,2.55,2.55,0,0,0-.38-2.84.1.1,0,0,1,.06-.17.32.32,0,0,1,.29.12,2.86,2.86,0,0,1,.67,2.45,2,2,0,0,1-1.48,1.56,2,2,0,0,1-.64.07c-.08,0-.23-.06-.26-.17s0-.14.13-.14"/><path class="cls-12" d="M156.13,109.14a2.08,2.08,0,0,1,2.14.58,2.2,2.2,0,0,1,.38,1,1.93,1.93,0,0,1-.64,1.71,1.81,1.81,0,0,1-2.09.14,2,2,0,0,1-.74-2.4,1.81,1.81,0,0,1,.95-1"/><path class="cls-12" d="M148.83,110.93s4.2-2.42,6.21-2.4c2.94,0,6.37,1.9,7.26,3.35,0,0-4.51-2.73-6.58-2.7S148.83,110.93,148.83,110.93Z"/><path class="cls-12" d="M132.76,106.89a2.52,2.52,0,0,0-2.43-.11,1.8,1.8,0,0,0-.39,2.62,1.81,1.81,0,0,0,2,.58,2,2,0,0,0,1.22-2.2c0-.15.15-.42-.42-.79"/><path class="cls-12" d="M137.23,109.36s-3.8-3-5.8-3.29c-2.91-.39-6.58,1-7.67,2.26,0,0,4.86-2,6.91-1.71S137.23,109.36,137.23,109.36Z"/><path class="cls-12" d="M153.17,99.21l-.66,1.51-.51,1.15c1.54.3,2.82.62,3.78.89a13.81,13.81,0,0,1,4.09,1.52,12.17,12.17,0,0,1,2.19,1.86,7.74,7.74,0,0,1,1,1.25c.66,1,.73,1.91.91,1.92s.21-.72.21-.79a6.48,6.48,0,0,0-.85-3.43,8.43,8.43,0,0,0-2.08-2.23,31.89,31.89,0,0,0-8.12-3.65"/><path class="cls-12" d="M137.23,97.9c.09.54.17,1.08.25,1.63s.13.83.19,1.24c-1.56-.11-2.88-.14-3.88-.13a13.68,13.68,0,0,0-4.34.4,12.56,12.56,0,0,0-2.61,1.22,8,8,0,0,0-1.33.93c-.9.83-1.2,1.66-1.37,1.62s0-.75,0-.82a6.57,6.57,0,0,1,1.72-3.09,8.6,8.6,0,0,1,2.59-1.61,32.49,32.49,0,0,1,8.79-1.39"/><path class="cls-15" d="M141.62,130.79c-2-.21-8.12-1.21-8.12-1.21s2,2.53,8,3.16,8.21-1.39,8.21-1.39Z"/><path class="cls-16" d="M133.35,365.32c7.38,54.34-12.77,157.17-12.77,157.17l-13.91,5.24s-3.19-80.56-14.19-129.12"/><path class="cls-16" d="M111.44,401.82c7.38,54.34-4,127.66-4,127.66l-15.24-2.34s-3.67-76.64-14.67-125.2"/><path class="cls-17" d="M64.63,274.08s-9.1,10-7.07,38.34S70,461.71,70,461.71s50.08,13.89,72.78-5.33l4.56-151Z"/><path class="cls-17" d="M148.73,265.73s4.2,24.49-1.9,44.06-6.73,16.55-6.73,16.55L91.33,287.45l-4.08-9Z"/><path class="cls-16" d="M220.34,246.16l0,0a3.71,3.71,0,0,0,.19-1.84,3.32,3.32,0,0,0-.68-1.69c-.21-.25-1.13-1.17-1.47-1.19-1.18-.06-.59,0,.08-.85a4.54,4.54,0,0,0,1.08-3.95h0a2.43,2.43,0,0,0-2.48-1.74c-4.5.23-13.31.84-18.21,2.33-4.28,1.38-8.74-.2-12,2.88l3.44,17.45,6.14-.62,2.95-.35s2.43,1.45,4.32,2.46,9.41.74,9.41.74a12.31,12.31,0,0,0,2.95-2.47,2.33,2.33,0,0,0,.41-2.87,8.47,8.47,0,0,0,1.67-2.51c.69-1.58-.22-4.45-.22-4.45A5.49,5.49,0,0,0,220.34,246.16Z"/><path class="cls-17" d="M123.58,156.67l-17.19-11.09s-21.77,10.14-23,28.72c-.7,10.62-4,67.24-4,67.24s-12.74,26.51-14,29.62c-1,2.68-2.8,6.44-.25,8.24,4.6,3.28,17.53,6.28,23.15,5.85l42.83-1.39c4.83-.38,10.62,11.46,14.34,8.37,1.07-1.4,2.95-13.1,3.25-14.84,1-4.45-1.86-36.26-1.86-36.26s12-14.69,12-29.51c0-7.21-18.22-51.6-18.22-51.6"/><path class="cls-17" d="M192.08,261.43l-17.8,4.3s-54.11,7.49-63.4-7.29S98.3,175.22,98.3,175.22s6.52-21.56,26.44-16.37c9.92,2.59,12.56,22.84,12.56,22.84s1.35,49.23,2,50.1,48.15,5.79,48.15,5.79Z"/><path class="cls-18" d="M127.36,236.77c1.78-4.26,2.06-8.11,2.33-8a17.45,17.45,0,0,1-1.58,8.36c-1.82,4.45-4.8,7.11-4.92,6.94S125.58,241,127.36,236.77Z"/><path class="cls-18" d="M128.6,219c.11,2.3.22,4.57.37,6.86l.15,1.67a8.53,8.53,0,0,0,.1.85,1.14,1.14,0,0,0,.07.32l.06-.08h0l.09-.12a5.8,5.8,0,0,0,.34-.52l.11-.22c0-.13,0-.27,0-.38l-.14-1.66c-.15-2.23-.26-4.51-.37-6.86-.43-9.2-.75-18-1-26s-.26-15.19-1.45-21.17S124,161.09,121.7,158.5a8.42,8.42,0,0,0-3.08-2.4,5.52,5.52,0,0,0-1.34-.29,6.55,6.55,0,0,1,1.21.54,9,9,0,0,1,2.92,2.44c2.15,2.59,3.89,7.26,4.89,13.19s1,13.13,1.28,21.1S128.16,209.83,128.6,219Z"/><path class="cls-18" d="M141.52,232.09c0-.13,0-.26,0-.39-3.2-.92-6.52-1.89-9.94-3l-1.77-.59a4.46,4.46,0,0,1-.58.57c.71.25,1.41.47,2.11.7,3.47,1.08,6.84,2.05,10.09,3C141.46,232.29,141.5,232.19,141.52,232.09Z"/><path class="cls-18" d="M107.6,262.62c0-.21,0-.42.05-.64a12.8,12.8,0,0,1-1.11-.69,10.7,10.7,0,0,1-2.89-4A62,62,0,0,1,99.85,247c-1-3.67-1.95-7.52-2.8-11.48-3.3-15.85-5.3-30.42-6.72-41-.66-5.22-1.21-9.47-1.58-12.48-.19-1.44-.32-2.57-.42-3.4l-.14-.89a1,1,0,0,0,0-.29l-.07.3a4.52,4.52,0,0,0,.07.88c.06.84.17,2,.29,3.41.28,3,.73,7.24,1.33,12.51,1.3,10.56,3.18,25.15,6.54,41,.85,4,1.77,7.83,2.88,11.53A61,61,0,0,0,103,257.52a11.16,11.16,0,0,0,3.11,4.21A14.09,14.09,0,0,0,107.6,262.62Z"/><path class="cls-18" d="M107.65,262s15.06,6.52,31.66,6.4c0,0-5.29.22-10.28-.07-3.5-.21-19.7-4-21.86-5.92Z"/><path class="cls-4" d="M120,521s16,9.66,23.44,17.18h0s-3.67,7.9-8.1,7.37-28.72-15.81-28.72-15.81l2-8.64Z"/><polygon class="cls-19" points="116.36 545.12 110.83 546.69 111.19 531.18 115.7 534.25 116.36 545.12"/><polygon class="cls-19" points="111.24 530.75 110.83 546.69 105.33 544.55 107.11 531.18 111.24 530.75"/><path class="cls-19" d="M157.24,550.94a5,5,0,0,1-3,.78c-5.11-.28-21.13,0-24.55-1.21-5-1.73-4.26-.66-9.06-4.8s-12.88-5.12-14.68-6.17.7-8.8.7-8.8.2-1.55,1.63-1.26l.22,0,4.3,4.33,11.87,6.64,6.73,6.71,13.5.2,10.85-.47a12,12,0,0,1,2.86,1.1,1.58,1.58,0,0,1,.07,1.84A7.69,7.69,0,0,1,157.24,550.94Z"/><path class="cls-20" d="M107.17,527.14c7.06.76,12,7.92,17.72,11.52,2.56,1.62,7.81,4.84,10.83,2.86a10.24,10.24,0,0,0,2.63-1.3c3.57-2.33,5.61-2.16,5.61-2.16a10.83,10.83,0,0,0,3,2.53c2.14,1.32,6.75,3.11,9.23,4.86s1.47,2.85,1.47,2.85a8.57,8.57,0,0,1-3.6,1.4,79.69,79.69,0,0,1-8.23-.22c-3.7-.28-14.92-.16-17.63-1.6-2-1-4.47-1.26-8.44-5.48-3.65-3.87-14.4-4.29-14.83-5.69a12,12,0,0,1,.78-6.82C105.85,529.64,106.93,527.6,107.17,527.14Z"/><path class="cls-4" d="M105.77,525.56s14,9.67,21.44,17.19h0s-3.67,7.9-8.1,7.37-28.72-15.81-28.72-15.81l2-8.64Z"/><polygon class="cls-19" points="100.02 549.4 94.49 550.98 94.85 535.46 99.36 538.53 100.02 549.4"/><polygon class="cls-19" points="94.91 535.03 94.49 550.98 88.99 548.83 90.77 535.46 94.91 535.03"/><path class="cls-19" d="M140.91,555.23a5,5,0,0,1-3,.78c-5.11-.29-21.13,0-24.55-1.21-5-1.73-4.26-.67-9.06-4.81s-12.88-5.11-14.67-6.17.69-8.79.69-8.79.2-1.55,1.63-1.26l.23,0,4.3,4.32,11.86,6.65,6.74,6.71,13.49.2,10.85-.48a12.2,12.2,0,0,1,2.87,1.1,1.62,1.62,0,0,1,.07,1.85A8.45,8.45,0,0,1,140.91,555.23Z"/><path class="cls-20" d="M90.83,531.43c7.06.75,12,7.91,17.73,11.52,2.55,1.61,7.81,4.84,10.82,2.85a10.21,10.21,0,0,0,2.64-1.29c3.57-2.33,5.6-2.16,5.6-2.16a11,11,0,0,0,3,2.53c2.14,1.32,6.75,3.11,9.24,4.86s1.46,2.84,1.46,2.84a8.47,8.47,0,0,1-3.59,1.41,79.59,79.59,0,0,1-8.23-.22c-3.71-.29-14.92-.17-17.64-1.6-2-1.06-4.46-1.26-8.44-5.48C99.78,542.82,89,542.4,88.59,541a12.11,12.11,0,0,1,.78-6.81Z"/></g><g id="Layer_2" data-name="Layer 2"><polygon class="cls-21" points="164.26 532.78 164.26 559.88 200.32 559.88 197.12 532.78 164.26 532.78"/><polygon class="cls-8" points="148.3 532.78 148.3 559.88 190.1 559.88 197.63 559.88 169.49 532.78 148.3 532.78"/><path class="cls-22" d="M602.59,857.84l15.15,1.85,20.53-14.4"/><path class="cls-4" d="M572.2,818.37c15.56,54.16,35.95,173.23,35.95,173.23l54.38-.27h0c-1.9-50.59-8.68-85.05-21.75-134-9.78-34.71-7.59-148.75-16-187.36s-49.67-38.41-54.41-40.52C570.36,629.49,556.64,764.2,572.2,818.37Z"/><path class="cls-4" d="M915.08,766.08c-14.34,54.5-41.33,226.47-41.33,226.47l-89.56-1.12V955.36a677.85,677.85,0,0,1,19.14-150.2c9-34.92,4.23-148.87,11.78-187.67S863.9,578,868.58,575.75C868.58,575.75,929.41,711.58,915.08,766.08Z"/><polygon class="cls-23" points="623.09 664.73 658.68 759.24 579.15 792.09 623.09 664.73"/><path class="cls-24" d="M950.28,497s-71.89,7.05-96.65,29.59c-29.82,27.16-60.76,112.2-60.76,112.2l87.75,66.12s47.19-71.19,54.24-114.6S950.28,497,950.28,497Z"/><g id="freepik--Character--inject-2"><path class="cls-24" d="M837.2,914.52c3.88-16.22,11-48.78,13.51-58.71,12.35-48.49,5.95-81.58,11-132.15,5.44-54,32.81-65.28,37-119.44,1.06-13.6-5.84-22.92-15.25-27.56,13.34-17.58,28.43-33.87,39.9-52.83,3.28-5.42,4.62-6.88,4.63-12.82,7.69-.58,15.75-4.89,23.45-4.58l48.31,1.93c11,.43,22,.87,32.85,2.35,38.78,5.28,84.92,34.73,122.58,45.28l-16.67,291.67c20.68,103.16,27.81,126.93,27.15,143.73,0,0-343.52.5-346.8-.06C823.68,992.14,832,926.87,837.2,914.52Z"/></g><g id="freepik--character-2--inject-2"><path class="cls-24" d="M866.82,580.91a146.79,146.79,0,0,0-30.09,46.82,90.33,90.33,0,0,0-3.71,55,76.44,76.44,0,0,0,53.82,52.77"/></g><path class="cls-24" d="M893.55,924.57C1038,833.77,1113.68,684.06,1111,504.83c-35.42-12-50.27-14.28-50.27-14.28l-85,6.85-75.77,9.87s-46.23,85-47.77,110.79,14.31,71.49,14.31,71.49l15,62.7c4.07,17,18.08,73.88,18.32,91.38Z"/><path class="cls-4" d="M934,407.17s6.28,79.69,5.4,87.47l-7.74,5.53L935,514.25c34.88,26,43.21,26.28,84.27,11.87l41.48-33.92s-8.88-4.6-11.89-10.63c-12.44-24.93,5.3-84.16,5.3-84.16"/><path class="cls-5" d="M1015.31,447.17s-8.17,28.13-57.18,41.6c0,0-10,2.4-18.68.31v-9.17Z"/><path class="cls-25" d="M873.52,402.05c14.45-12.36,15.67-32.43,12.22-49.9-3.31-16.73,7.19-43.77-13.47-41.1-.39.05,6.17-15.13.17-13.33,2.91-9.67-10.7-7.56-13.54-17.91-.57-2.09-5.22-20.54,8.06-23,42.35-71.56,108.34-63,145.07-61.25,72.06,3.41,107.06,4.52,99.65,118.77-5,76.7-74.2,103.6-146.23,107.64-30.77,1.73-67.13,6.08-92.53-19.44Z"/><path class="cls-25" d="M1002.69,147.22C986.05,157,979.34,173.5,980,192.17c3.9,2.92,12,5.87,15.92,8.77q.87-1.91,1.83-3.75c4.29,3.15,15.06,5.5,19.41,8.59,1.07-.78,4.47-2.59,8.51-4.65l4,2.88a21.63,21.63,0,0,0-7.14,3.82c4.94,3.58,17,4.87,21.7,8.67,10.31,8.25,22,19.49,32.65,27.31a58.82,58.82,0,0,1,8.15,5.76l-6.6,6.85,10.89,7.51c-.93,2.79-1.48,4.38-1.48,4.38l8.94,6.32s5-5.44,12.07-13.61c29.74,8.83,39.89-15.83,36.61-26.59a23.08,23.08,0,0,0-6.87-10.57c10.19-14.26,17.65-27.42,15.46-33.11-4.41-11.44-25.31-36.28-35.42-47.9a93,93,0,0,0-6.83-10.89l-.13-.22h0a44.65,44.65,0,0,0-9-9.41c-8.38-6.15-24.31-2.24-37.11,2.6-14.93-11.22-24.8-14.07-33.15-14.27-11.68-.28-29.61,16.24-31.33,20.43C1000.11,133.12,1001.28,140.36,1002.69,147.22Zm118.21,99.44c4.45-5.43,9.06-11.23,13.37-17a26,26,0,0,1-.69,9.08C1132.14,244.31,1126.32,246.18,1120.9,246.66Zm-89.45-122.14c1.18.76,5.25,5.85,9.32,11.14-9.45,1.5-17.28,4-21.43,5L1018,141c-2.3-3.37-5.07-8-5.45-11.1C1011.9,124.44,1025.3,120.55,1031.45,124.52Z"/><path class="cls-4" d="M904.43,249.43a5.63,5.63,0,0,1-.5.84l.52-.39Zm-21.08,6.1,0,.37q.5-.43.93-.87C884.27,254.59,883.35,255.53,883.35,255.53Zm165.46,158.55,2.22-7.53c5.3,13.71,23.79,3.67,24.37-15.36,13-17.48,13.83-42.69,5.83-52.34l-1-1.42c-5.59-4.15-15.42-5.84-19.39,1.54-1.28,3.2-3.3,6.84-4.58,10-1.26,3.64-3,10.94-5.25,14.19,0,0,8.57-34.49,8.58-43s-1.46-29.36-17.18-40.55c0,0-18.94-16.81-26.24-25.34l-2.48-.75c-1.45.08-2.4.58-3.85.66,0-.44.43-.92.38-1.81-2.38,1-4.34.69-6.28.8.46-.47,1.4-1,1.38-1.42-1.92.56-3.88.22-5.83.33.46-.47,1.38-1.42,1.36-1.86-2.38,1-3.88.22-5.83.33a3.32,3.32,0,0,0,.88-1.84c-1.9,1-3.86.66-5.8.77.46-.47.89-1.39,1.35-1.86-2.37,1-3.88.21-5.82.32-.49,0,.92-.94.89-1.39a17.77,17.77,0,0,1-4.83.72c0-.45.93-1,.9-1.39-2.86,1.05-4.37.24-6.31.35l1.36-1.86a6.94,6.94,0,0,1-5.77,1.22c.45-.47,1.37-1.42,1.35-1.87a9.63,9.63,0,0,1-7.72,1.33c.49,0,1.38-1.42,1.36-1.86-2.33,1.91-4.29,1.58-6.72,1.71.46-.47.9-1.39,1.82-2.33-2.81,1.94-6.16,3-9.15,1.85.49,0,.9-1.39.87-1.83-1.84,1.89,1.68-.55-.77-.86,0,0-5.49,2.1-5.51,1.65-1.87,1.45,4.69-7.84,2.27-7.71.43-.92-13.88,1.61-13,.67-2.33,1.92-1.89,1-4.82.69,0,0-9.79,5.9-9.33,5.42-2.3,2.37-3.5.56-6.44.28.46-.48,1.86,1.76,2.32,1.29-1.84,1.89-1.33-.37-3.75-.23,0-.45-8.1-2.45-8.12-2.9-2.36,1.47-1.55,1.62-4.47,1.79,0-.45-1.54,5-1.08,4.53-1.85,1.89-1.84.43-4.29.12l-2.31,1.79c-2.31,2.36,1,1.2-2,.92,0-.31,11,.78,11.44.17a17.81,17.81,0,0,1-6.1,3.11c0-.45.42-1.37.39-1.81a9.76,9.76,0,0,1-7.61,3.11c.48,0,.92-1,.89-1.39-2.3,2.36-5.14,3.86-8.13,2.69v-.08a15.3,15.3,0,0,1-6.61,3.58,1.91,1.91,0,0,1,.87-1.84l-2,.11c-2.22,3.7,8.84,1.07,8.12,5.58,0,0-7.22,13.54-13.66,40.36-5.29,22-3.49,56.36-2.6,63.46.77,6.15-2.35,18.34-2.74,24.8-2.13,35,27,69,55.13,86.84,11.23,7.11,20.36,3.68,31,1.64,21.67-4.17,53.75-19.25,71.87-39.68"/><path class="cls-14" d="M917.1,404.37c3.24,1.45,8,.86,11.13-1.19.68-.46,3-.16,2.09.48-4.08,2.71-11,3.26-15.16,1.39-.41-.19-.35-.49.15-.68a2.81,2.81,0,0,1,1.79,0"/><path class="cls-14" d="M931.65,402.73a20.37,20.37,0,0,1,6.8-2,1.59,1.59,0,0,1,1.07.28c.21.16.26.39,0,.55a7.86,7.86,0,0,1-3.74,1,1.45,1.45,0,0,1-1.18-.39c-.23-.3.15-.52.47-.53a6.12,6.12,0,0,0,3-.82l1.08.82a18.33,18.33,0,0,0-6.08,1.78,1.5,1.5,0,0,1-1.26-.07c-.26-.14-.55-.46-.18-.65"/><path class="cls-14" d="M941.1,402.58c2.77-.2,6-1.52,7.26-3.6,1.92-3.14-.26-8.17-3.82-10-.39-.2-.2-.48.18-.58a2.36,2.36,0,0,1,1.49.23c3.11,1.56,5.28,5.73,5,8.61-.3,2.69-2.87,4.68-6.16,5.61a15.44,15.44,0,0,1-3.06.55c-.42,0-1.18-.06-1.4-.37s.15-.47.55-.49"/><path class="cls-14" d="M912,403.24a.36.36,0,0,0-.38-.49,3.31,3.31,0,0,1-2.19-.58l-.69.9a10,10,0,0,1,4.42,1.3.82.82,0,0,0,.89-.17c.17-.16.35-.5.07-.66"/><path class="cls-14" d="M914.07,403.54a11.12,11.12,0,0,0-5-1.44.93.93,0,0,0-.73.36.38.38,0,0,0,0,.55"/><path class="cls-14" d="M906.19,403.87a5.67,5.67,0,0,1-5-3,7.71,7.71,0,0,1,1.75-8.72.31.31,0,0,0-.16-.55,1.07,1.07,0,0,0-.95.34,8.66,8.66,0,0,0-2.6,7.45,6.25,6.25,0,0,0,4.42,5.12,7.05,7.05,0,0,0,2,.32c.27,0,.76-.15.88-.47s-.14-.46-.4-.46"/><path class="cls-13" d="M1058.39,371.73a102.92,102.92,0,0,1,8.29-16.73,34.12,34.12,0,0,1,6.08-7.51,12.2,12.2,0,0,1,2.06-1.5,4.1,4.1,0,0,1,.59-.3l.31-.13.09,0c.27-.09.13-.06.15,0,.15.18-.46-.28-.52-.1a14.14,14.14,0,0,0,1.25,1.91c2.63,4.91,2.72,10.77,1.69,16.12-.1.55,1.55.27,1.64-.23,1-5.23,1-10.9-1.39-15.77-.49-1-1.16-2.93-2.52-2.72a8.53,8.53,0,0,0-3.59,1.74,28,28,0,0,0-6.1,6.69,95.51,95.51,0,0,0-9.67,18.84c-.18.45,1.43.26,1.64-.24Z"/><path class="cls-12" d="M870,316c12,.81,19,3.46,36.27,13.1l-.13.43c-.67,2.47-.3,1.09-1,3.57q-.78,2.83-1.57,5.66c-5.63-3.23-9.5-6.14-13.24-7.89-7.06-3.3-14.84-7.94-22.65-9.16C868.51,319.79,869.29,317.89,870,316Z"/><path class="cls-12" d="M945,329c.8,2.44.36,1.08,1.17,3.52.62,1.87,1.24,3.72,1.87,5.58,5.45-3.53,9.17-6.64,12.8-8.57,7.21-3.84,15.13-9.2,23.26-10.55,3.89-.65,9.5-1.47,13.25,1,1,.66,3.39,3.43,4.63,2.29.51-.47-1.45-3.15-1.66-3.42-4-5.4-10-6.21-16.89-5.56-14,1.33-20.41,3.92-38.58,15.3"/><path class="cls-11" d="M1063.15,403.34a9.61,9.61,0,0,1,3.84,12.3,8.83,8.83,0,0,1-5,4.36c-.37.14,0,0-.3.09a5.51,5.51,0,0,1-.7.06h-.82a11.3,11.3,0,0,1-1.29-.14,9.55,9.55,0,0,1-6.74-4.74c-.47-.8-2.79,0-2.22,1a11.58,11.58,0,0,0,11.68,5.34,10.76,10.76,0,0,0,8.67-12,10.89,10.89,0,0,0-5.19-7.52c-.77-.48-3,.61-1.88,1.27Z"/><path class="cls-13" d="M1057.22,372.4c1.57-.08,3.89,0,4.34,1.85.36,1.48-.35,3.18-.83,4.56-1,3-2.89,7.18-.39,9.92,3,3.25,7.25-1.65,8.66-4.1a19.84,19.84,0,0,0,2.58-12.29c-.52-4.27-1.79-10.19-6.35-11.88-.37-.14-1.84.46-1.35.65,4,1.47,5.26,6.6,5.86,10.32a19.74,19.74,0,0,1-1.12,10.89,13.89,13.89,0,0,1-4.26,6.22c-.6.44-1.06.67-1.73.27a4,4,0,0,1-1.56-2c-1.15-3.14.88-6.74,1.76-9.69.37-1.25.85-3,0-4.12-1-1.44-3.36-1.33-4.91-1.26-.45,0-1.79.73-.71.68Z"/><path class="cls-12" d="M882.93,347.34c-2.87-1.29-6.07.15-7.8,1.87a7,7,0,0,0-1.94,3.42,7.29,7.29,0,0,0,2.09,6.52,6.78,6.78,0,0,0,7.83.92c3.32-1.79,4.2-5.95,3.18-8.89a6.68,6.68,0,0,0-3.36-3.84"/><path class="cls-12" d="M908.66,355.31s-14.37-9.92-21.45-10.22c-10.32-.43-19.56,5.72-22.92,11,0,0,13.18-9.17,20.44-8.66C891.68,347.88,908.66,355.31,908.66,355.31Z"/><path class="cls-12" d="M963.05,343.89c2.71-1.6,6-.53,8,1a7.14,7.14,0,0,1,2.31,3.18,7.3,7.3,0,0,1-1.35,6.72,6.78,6.78,0,0,1-7.68,1.79c-3.5-1.4-4.83-5.44-4.15-8.48a6.62,6.62,0,0,1,2.91-4.19"/><path class="cls-12" d="M948.38,353.31s14.11-11.48,21.59-12.63c13.48-2.08,26.5,4.89,30.67,9.7,0,0-20.12-9.05-27.77-7.7C965.55,344,948.38,353.31,948.38,353.31Z"/><path class="cls-26" d="M882.55,261.2c-1.19,12.35-18.42,2.94-9.47-.57-1.46-5.87,6.81-8.78,6.22-14.81.4.51.65.91.65.91s-.19-7.27,2.14-9.17,12.93-8,12.93-8l3.45,2.31c-.1-.18-1.4-2.49.22-4s19.56-12.25,31.4-12.18a11.24,11.24,0,0,1,1.17,0l5,2.28.18.08-.19-.1c-.9-.46-2.83-1.62-1.94-2.71a4.27,4.27,0,0,1,2.14-1.1,41.83,41.83,0,0,1,7.11-1.11v0l.8,0,.8-.07v0a42.11,42.11,0,0,1,7.19.31,4.27,4.27,0,0,1,2.25.85c1,1-.78,2.35-1.62,2.91l-.18.12.16-.1,4.77-2.83c.37-.07.76-.13,1.16-.17,11.76-1.4,30.77,7.23,32.56,8.59s.75,3.8.67,4l3.17-2.68s14.46,4.72,17,6.33,3.87,5.74,3.87,5.74,4.4,1.34,5.93.75,9.78,3.14,13.36,7.71c2.3,2.93,1.69,5.86,2.9,8.48h0c.68,1.47,1.07,2.45,1.07,2.45l8.46,2.31c6.84,2.82,5.95,16.63,5.95,16.63,14,15.34,15.4,29,10.36,44.05-1.94,5.81,14.59,10.62,4.18,11S1051,363.2,1051,363.2s-9.65-12.34-10.43-18.29,1.15-23.81,1.15-23.81l-5.11-.43s-3.16-1.08-7.25-7.64,2-19,2-19l1.58-7.38-9.86,1.24c-9.66-1.11-10.78-11.45-10.78-11.45l.69-17.34-5.42,6.11a7.09,7.09,0,0,1-5.39,2.79c-14.89-.28-17.16-9.42-17.16-9.42L982.62,250,979,252.73c-3.79,3.49-15.68,9.2-22,6.88-1.66-.61-8.81-5.51-10-6.17-4.14-2.68-5-8.17-5.22-10.21.55-.6,1.06-1.34,1.58-2,2-2.42,3-1.51,1.06.91-3.42,4.18-9.29,10.12-14.73,10.66-5.24.52-16.7-1-18.24-3.39-1-1.58.63-1.87-1.29-1.68a6.34,6.34,0,0,0-4.06,2.74c-2.36,3-3.8,7.36-7.24,9.36-5,2.92-8.25.27-13.47-.54A2.44,2.44,0,0,0,882.55,261.2Z"/><path class="cls-27" d="M869.72,252.34s-4.18-11,1.92-17.73,29.41-33.94,72-36.39Z"/><path class="cls-28" d="M1105,265.35s33.88,16.86,46.55-10.37-25.46-34.46-25.46-34.46"/><path class="cls-28" d="M1073.94,122.05s-18-26-40-20.13-5.79,41.67-5.79,41.67"/><path class="cls-4" d="M931.68,500.17s-5.15,25,7.1,39.23,47.41,10.23,76.76-7.53,45.22-39.67,45.22-39.67Z"/><path class="cls-15" d="M927.64,425.15c6.71-.38,27.06-2.76,27.06-2.76s-6.91,8.17-27,9.33-27-6-27-6Z"/><path class="cls-4" d="M1065.39,654.66,1036,808.93a42.87,42.87,0,0,0,33.55,51.51h0c21.46,4.22,43.91-11.57,50.43-32.45l45.36-148.08Z"/><path class="cls-4" d="M1121.89,822.11c-10.87,30.19-13.49,42.46-51.33,47-63,7.58-212.49-30.59-212.49-30.59l-17.56-42.4,245-16.23c5.46-.37,13.78,5.69,17.85,8.83a44.45,44.45,0,0,1,12.83,15.38C1119.18,810.18,1124.11,816,1121.89,822.11Z"/><path class="cls-24" d="M1088.21,498.51c2.66,2.82,18.25,5.17,22.74,6.32,13.09,3.35,24.42,12.65,36,19.69,18.79,11.44,25.78,32.66,30,54.27,11.9,61.57-8.44,130.15-8.44,130.15l-125-16.88s17-100.09,39.34-137.95C1105,516.54,1088.46,498.78,1088.21,498.51Z"/><path class="cls-29" d="M580.69,886.49a89.68,89.68,0,0,1,17.63,23.15,44.27,44.27,0,0,1-10-10.85A45.26,45.26,0,0,1,580.69,886.49Z"/><path class="cls-23" d="M623.09,664.73a109.41,109.41,0,0,0-26.36-44.22c-9-9.11-90-35.91-90-35.91-70.2,17.17-104.74-6.58-112-7.54-5-.66-32.1,4.53-32.1,4.53L311.36,745.23s8.13,115.31,8.65,116.13S291.43,991.6,291.43,991.6s142.61.91,197.81,0c57-1,129.72-.27,129.72-.27L602.59,857.84l-1.92-48.39,8.84-37.75Z"/><path class="cls-30" d="M326.83,641.51a21.32,21.32,0,0,1,3,2.38,90.82,90.82,0,0,1,7.12,7.43,139.35,139.35,0,0,1,18.9,28.43,143.79,143.79,0,0,1,11.43,32.08c.81,3.36,2.72,9.14,3.14,12.57.31,1.23-.51.11-.66,1.37-.36,0-1.75-5.2-4.08-13.6a179.44,179.44,0,0,0-12-31.58,164.17,164.17,0,0,0-18.07-28.39C330.37,645.89,326.86,641.87,326.83,641.51Z"/><path class="cls-4" d="M403.81,573.44l-35.55,6.68s96.16,74.42,140.18,5.14l-59-23.32Z"/><path class="cls-31" d="M560.1,460.87l-1.65-1.77c-13.32-6.43-24.47-7-33.18,1.23-.13-.07-17.58-8.71-34.69,13.55-14.86,19.32-10.42,32.3-10.42,32.3s-11.74,4.65-14.43,10.05c-6.06,12.15-5.74,35.58,4.95,38.89s11.53,8.44,11.53,8.44,16.42,5.24,25.32,6.23S530,562.08,530,562.08s19.72,3.2,25.81-1S565.75,543,565.75,543s20.7-.85,21.28-16.36c0,0,7.66-8.57-2-20a43.5,43.5,0,0,0-8.93-7.77s3.65-4.3,2.09-16.48C577.56,477.1,570.22,465.75,560.1,460.87Z"/><path class="cls-32" d="M561.22,460.38a17.28,17.28,0,0,0-1.65-1.77,12.79,12.79,0,0,0-2.69-1.28q-1.43-.61-2.88-1.17a40,40,0,0,0-11.08-2.61,24.33,24.33,0,0,0-18.63,6.53l1.93-.37a19.87,19.87,0,0,0-6.69-1.7,28.12,28.12,0,0,0-15.41,3c-7.75,3.93-13.69,10.7-18.3,17.94-3.64,5.73-6.53,12.2-7.3,19a20.28,20.28,0,0,0,.44,8.53l.71-.88a44.16,44.16,0,0,0-11.53,6.51,14.92,14.92,0,0,0-4.62,6.45,41.75,41.75,0,0,0-2.3,8.59,43.84,43.84,0,0,0,.5,18.14c1.27,4.78,3.77,9,8.67,10.64,3.26,1.06,6.68,2.58,9,5.18a6.07,6.07,0,0,1,1.61,2.74c0,.22.31.33.48.38,6.05,1.93,12.2,3.66,18.41,5,3.85.84,7.78,1.69,11.72,1.1a43.65,43.65,0,0,0,12.2-4.09,65.76,65.76,0,0,0,6.94-3.8l-1.49.29a84.26,84.26,0,0,0,17.94,1.13c3.39-.2,7.19-.65,10-2.8,3.19-2.48,5.2-6.39,6.8-10a58.75,58.75,0,0,0,3-8.24l-1.35.87c6-.26,12.55-2.29,17.16-6.14a15.27,15.27,0,0,0,4.06-5.17,14.8,14.8,0,0,0,1.11-3.37,6.59,6.59,0,0,0,.25-1.81s-.06-.83-.17-.37c0,0,.07-.06.08-.1a7.66,7.66,0,0,1,.81-1.11,13.31,13.31,0,0,0,1.07-2,14.17,14.17,0,0,0,1.11-6.59c-.54-8.24-7.67-14.45-14-18.79l0,.86c2.61-3.12,2.78-8.31,2.7-12.11a22.14,22.14,0,0,0-1.95-9.58,38.57,38.57,0,0,0-5.92-8.67,36.09,36.09,0,0,0-10.89-8.47c-.76-.38-3,.71-1.9,1.23a37.12,37.12,0,0,1,15.79,15.57,19.62,19.62,0,0,1,2.35,8.34,29.08,29.08,0,0,1-.77,10,12.33,12.33,0,0,1-1,2.49c-.12.22-.25.43-.38.64s-.34.44,0,.06c-.26.31-.34.61,0,.86,5.68,3.89,11.77,9.17,13.23,16.24a13.33,13.33,0,0,1-2.19,10.47c-.12.17-.22.32-.13.18a1.52,1.52,0,0,0-.28.57c-.31,1.14-.24,2.4-.57,3.56a13.05,13.05,0,0,1-3.16,5.44,20.76,20.76,0,0,1-9.74,5.27,29.3,29.3,0,0,1-6.44,1.08,1.53,1.53,0,0,0-1.36.86,57,57,0,0,1-2,6c-1.39,3.51-3.09,7.21-5.66,10-2.22,2.43-5,3-8.22,3.25a65.77,65.77,0,0,1-11.05-.19c-2.22-.19-4.57-.52-6.64-.77-1.66-.2-3.25,1.22-4.64,2a55,55,0,0,1-10.49,4.6,22.35,22.35,0,0,1-6.1,1.13,27.93,27.93,0,0,1-5.68-.7,183,183,0,0,1-21.07-5.57l.48.38c-.51-2.88-3.87-5.15-6.17-6.41a30.33,30.33,0,0,0-5-2.13,10.51,10.51,0,0,1-3.29-1.57,13,13,0,0,1-3.88-5.54c-2.17-5.34-2.43-11.44-1.92-17.11a48,48,0,0,1,1.65-8.9c.72-2.46,1.57-5.21,3.31-7.14,3.23-3.57,8.1-6,12.52-7.7.28-.11.84-.49.71-.88a17.11,17.11,0,0,1-.6-6,39.55,39.55,0,0,1,4.92-16.61c6.11-11.55,17.14-24.44,31.49-23.83a19.17,19.17,0,0,1,7.13,1.56,1.89,1.89,0,0,0,1.94-.37,20.48,20.48,0,0,1,16.49-5.48,38.26,38.26,0,0,1,10,2.54c.9.35,1.8.72,2.68,1.11a9.4,9.4,0,0,1,2,.94,15.67,15.67,0,0,1,1.57,1.68C559.61,462,561.91,461.12,561.22,460.38Z"/><path class="cls-33" d="M544.1,461.6s31,8.59,31.92,29l-1.14,14.25s14.42,3,13.61,13.11"/><path class="cls-4" d="M374.83,491.19s24.63,45.48,11.24,76C383.52,573,369.16,581,369.16,581l39.12,6.66c44.3,15.88,38,26.42,78.47,2.45l7.16-11.08s-3.16,3.36-5.25-3.82,5.9-49.42,5.9-49.42"/><path class="cls-34" d="M343.31,412S303,316.86,363.77,311.21c0,0,3.8-10.48,15.85-18.29,14.3-9.26,29.33-.61,29.33-.61s12.76-12.4,26.07-10.74,18.66,9.05,18.66,9.05,15.4-8.16,27.16-3S501.15,304,501.15,304s9.63-1.89,15.82.77c14.81,6.36,17.52,38.62,19.81,50,0,0-13.34-38.18-26.27-39.21s-124.89,28.94-124.89,28.94l-29.15,102.1Z"/><path class="cls-31" d="M281.42,501.25l-.95,2.23c-.48,14.78,3.5,25.2,14.56,29.84,0,.14-.91,29.31,26.37,35.93,23.69,5.76,33.76-3.56,33.76-3.56s9,8.86,15,9.13c13.56.62,21.71-15.24,23.3-26.31a145,145,0,0,0,1.38-27.11s-2.76-11.79-5.45-20.33S374,483.15,374,483.15s7.1-14.7.85-18.59-22-22.07-22-22.07-7.78,1.75-22.19,7.51c0,0-10.95-3.54-17.51,9.9a43.21,43.21,0,0,0-3.49,11.31s-5.41-1.59-15.92,4.77C289.19,478.72,281.78,490,281.42,501.25Z"/><path class="cls-32" d="M280.22,501.4a17.71,17.71,0,0,0-.88,2.06,14.14,14.14,0,0,0-.09,3.85,47.26,47.26,0,0,0,.91,8.8A25.27,25.27,0,0,0,287,529.3a23.34,23.34,0,0,0,7.12,4.6l-.25-.43a36.47,36.47,0,0,0,.71,7.73,39.76,39.76,0,0,0,6.15,15.39A32.77,32.77,0,0,0,318,569.17c8.6,2.72,18.39,3.6,27.24,1.6,3.69-.84,8-2.25,10.85-4.88l-2.08.27a50.56,50.56,0,0,0,7.4,6,22,22,0,0,0,6,3,14.07,14.07,0,0,0,6.58.06c9.5-1.86,15.65-10.67,18.72-19.25,1.9-5.29,2.46-10.88,2.92-16.45a151.73,151.73,0,0,0,.49-15.52,21.54,21.54,0,0,0-.62-5c-1.25-5.13-2.57-10.24-4.06-15.3a28.13,28.13,0,0,0-3.25-7.65,42.79,42.79,0,0,0-5.44-6.56,66.14,66.14,0,0,0-7.72-6.76v.5a41.1,41.1,0,0,0,2.72-7.51c.85-3.33,1.71-8.18-1-10.91-1.08-1.08-2.56-1.86-3.74-2.86-1.57-1.34-3.06-2.76-4.52-4.2-3.22-3.16-6.31-6.46-9.34-9.79-1.77-2-3.53-3.9-5.25-5.89-.28-.32-.92-.21-1.27-.13-7.69,1.74-15.21,4.71-22.51,7.61l1.21-.16a14.24,14.24,0,0,0-7.19,0c-5.53,1.25-9.61,5.44-12.07,10.38a44.34,44.34,0,0,0-3.67,11.68l1.93-.8a9.66,9.66,0,0,0-3.22-.16,26.38,26.38,0,0,0-8.49,2.26,25.1,25.1,0,0,0-8.81,5.64,36.65,36.65,0,0,0-6,9.17,36,36,0,0,0-3.63,13.93c0,1,2.36.5,2.39-.3a37.22,37.22,0,0,1,7.86-20.83,19.28,19.28,0,0,1,7.09-5.65,25.65,25.65,0,0,1,8.32-2.8,7.79,7.79,0,0,1,3,.05c.54.15,1.81-.14,1.94-.81,1.52-8.17,5.38-20.18,15.39-20.78a11.27,11.27,0,0,1,2.79.16,3.54,3.54,0,0,0,2.09.05c3-1,6-2.33,9-3.41q3.31-1.18,6.68-2.24c2-.64,4.09-1.27,6.18-1.75l-1.28-.13c4.18,4.82,8.5,9.54,13,14.07a63.81,63.81,0,0,0,8.42,7.6,5.92,5.92,0,0,1,2.85,3.76,14.07,14.07,0,0,1-.13,5.78,39.35,39.35,0,0,1-3,8.95c-.07.14-.17.37,0,.5a66.08,66.08,0,0,1,5.93,5c3.4,3.2,6.86,6.82,8.79,11.13a52,52,0,0,1,2.38,7.54c.74,2.64,1.44,5.28,2.11,7.94a43.2,43.2,0,0,1,1.61,6.81,85.08,85.08,0,0,1,0,10.1,120.1,120.1,0,0,1-1.68,18c-1.59,8.41-6.05,18-13.85,22.26a14.22,14.22,0,0,1-7.22,1.76,13.52,13.52,0,0,1-6.33-2.34,46.35,46.35,0,0,1-8.38-6.59c-.5-.49-1.63-.14-2.07.27-.15.14-.32.26-.48.39s.12-.08-.1.07l-.32.22c-.28.19-.56.37-.86.54a24.06,24.06,0,0,1-5.76,2.41c-8.22,2.32-17.25,1.43-25.39-.73a32,32,0,0,1-17.59-11.64,37.9,37.9,0,0,1-6.52-15,38.29,38.29,0,0,1-.95-8.61.4.4,0,0,0-.24-.43,21.87,21.87,0,0,1-12.28-13.11,37.86,37.86,0,0,1-1.94-10,39,39,0,0,1-.11-5.92,9.07,9.07,0,0,1,.95-2.62C282.93,500.35,280.55,500.61,280.22,501.4Z"/><path class="cls-5" d="M421.43,528.9s18.68,27.75,68.11,34.53c0,0,.81-4.78,1.28-7.37l1.54-7Z"/><path class="cls-4" d="M393.88,510.28c21.16,19.79,65.26,42.33,92.62,45.39,26.85,3,34.92-6.54,38.24-10.77,18.21-23.18,29.38-46,34.67-71.77,1.43-7,1-14.33-.14-21.79-1.71-11.2-5.78-32.59-6.59-43.37-2.06-27.44-16.33-50.06-33.5-71.73-35.76-45.13-101.6-39.35-128.21-23.62-31.1,18.38-42.92,51.1-41.91,84.66a90.78,90.78,0,0,0,5.93,30.2,97.82,97.82,0,0,1,13.5,15.45"/><path class="cls-31" d="M517.37,325.31s8.62,15.92,25.87,48c-4.44-10.3-7.75-26.07-18.08-40.07C489.08,284.33,396,299.72,369.51,316.51c-31,19.62-40,54.15-38.78,90.34.5,14.7.73,24.09,6.17,35.83.22.14,3,2.59,3,2.59s29.93,3,41.27,20l-1-15.59s0-9.64,4.7-46c0,0,.14-5.73,8.15-29.26s17.86-30.94,17.86-30.94,47.21-12.14,58.63-13.08S517.37,325.31,517.37,325.31Z"/><path class="cls-32" d="M516.16,325.64q7.92,14.6,15.78,29.23,5.05,9.38,10.1,18.77c.4.75,2.73.1,2.41-.65-3.14-7.31-5.26-15-8.32-22.36a79.78,79.78,0,0,0-13.26-22.11c-8.29-9.48-19.18-16.34-30.88-20.84-12.17-4.68-25.16-7-38.14-7.79a185.57,185.57,0,0,0-38.77,1.78,164.23,164.23,0,0,0-32.2,7.88,81.7,81.7,0,0,0-11.68,5.18,73.16,73.16,0,0,0-16.45,12.67c-11,11.14-18.06,25.42-21.73,40.55-4,16.44-4.07,33.46-3,50.26.51,8.32,1.94,16.4,5.37,24.05a8.1,8.1,0,0,0,2.48,2.64,4,4,0,0,0,1.41,1,26.55,26.55,0,0,0,2.8.39c11,1.75,22.68,5.3,31.5,12.39a32.21,32.21,0,0,1,6.53,7c.43.64,2.38,0,2.33-.79l-.62-9.77-.33-5.18c0-.21,0-.43,0-.64,0,0,0,.2,0,0,0-4.25.5-8.53.89-12.74,1-11.13,2.6-22.18,3.82-33.29a44.29,44.29,0,0,1,.91-5c1.11-4.81,2.53-9.55,4-14.25,3.92-12.48,8.21-25.31,16.42-35.72a42.17,42.17,0,0,1,2.79-3.19,19.51,19.51,0,0,0,1.49-1.37c.33-.43-.57.28-.64.28a1.88,1.88,0,0,0,.48-.12l2.59-.66q12.17-3.09,24.38-6c8.91-2.11,17.86-4.28,26.9-5.74,3.11-.49,6.24-.7,9.36-1,5-.48,9.9-1,14.85-1.54q13-1.39,26-2.88l1.53-.17c1.16-.14,2-1.5.34-1.31q-10,1.14-19.92,2.23c-9.38,1-18.75,2-28.14,2.89a100.41,100.41,0,0,0-10.2,1.69c-4.74.95-9.46,2-14.17,3.07-9.19,2.1-18.34,4.33-27.48,6.63-2.19.54-4.38,1.06-6.55,1.65a6.53,6.53,0,0,0-2.79,2c-7.25,7.34-11.9,17.3-15.41,26.86-2.49,6.78-4.68,13.72-6.63,20.68a95.4,95.4,0,0,0-2.29,9.55c-.39,2.22-.59,4.48-.87,6.71q-1.33,10.5-2.46,21c-.67,6.29-1.34,12.61-1.59,18.93a20,20,0,0,0,0,2.05l.76,11.82.19,3.12,2.33-.79c-7-10.37-19.89-15.47-31.61-18.3q-3.12-.77-6.29-1.3a21.28,21.28,0,0,0-3.45-.51,2.06,2.06,0,0,1-.26,0c.34,0,.39.22-.07-.18a20.21,20.21,0,0,1-2.57-2.21,11.08,11.08,0,0,1-1.16-2.63c-.4-1-.78-2-1.13-3a58.12,58.12,0,0,1-1.65-5.76c-1.89-8.31-2-17-2.23-25.44A158.89,158.89,0,0,1,333,380.62c2-15.35,6.73-30.52,15.67-43.28,7.25-10.34,17.2-19.13,28.77-24.28a133.21,133.21,0,0,1,28.71-8.62,188.5,188.5,0,0,1,37.09-3.53A142,142,0,0,1,481.53,306c12,3.43,23.52,9,32.92,17.28a68.3,68.3,0,0,1,13.43,16.24c4.55,7.62,7.6,16,10.5,24.33,1.15,3.29,2.28,6.6,3.66,9.81l2.41-.65q-12.3-22.86-24.63-45.7l-1.25-2.3C518.14,324.19,515.81,325,516.16,325.64Z"/><path class="cls-4" d="M389,493.4c-13.75,14.48-25.63-7.79-25.63-7.79-13.63-16.07-17.16-33.54-16.78-45.35s13.36-11.75,13.36-11.75c11,1.1,9.49,2.41,24.74,33.64"/><path class="cls-13" d="M374.55,462a91.53,91.53,0,0,0-7.92-16.07,28.65,28.65,0,0,0-5.76-6.84,7.42,7.42,0,0,0-3-1.66c-1.5-.29-2.22.75-2.88,1.87-2.68,4.55-2.83,10.2-1.89,15.26.06.33,1.9-.08,1.82-.49a24.08,24.08,0,0,1,.62-12.41,15.28,15.28,0,0,1,1.43-3c.17-.27.37-.51.54-.78.05-.08.3-.36.19-.24l-1.42.44c-.29,0,0,0,.06,0s.31.09.52.17a9.1,9.1,0,0,1,2.21,1.35c3.34,2.65,5.73,6.51,7.78,10.18a108.17,108.17,0,0,1,5.9,12.69c.15.4,1.94-.18,1.82-.49Z"/><path class="cls-13" d="M374,467.44a4,4,0,0,0-3.46,1.91,6.49,6.49,0,0,0-.31,3.9c.25,1.66.72,3.28,1.13,4.91.32,1.25.91,2.92.56,4.22,0,.09-.24.52-.23.54s.57-.16.56-.12-.21-.09-.22-.14c-.09-.2-.45-.45-.6-.64a10.41,10.41,0,0,1-.77-1.22,36.35,36.35,0,0,1-2.74-6.93,27.53,27.53,0,0,1-1.45-8.64c0-3.55.43-8.49,3.87-10.46a.51.51,0,0,0,.12-.87c-.35-.29-1,0-1.3.14-3.3,1.88-4.23,6-4.47,9.52a25.18,25.18,0,0,0,.66,8.21,50.06,50.06,0,0,0,2.89,8.33c.58,1.26,1.34,3.13,2.69,3.75a2.05,2.05,0,0,0,2.76-1.38c.42-1.28,0-2.83-.33-4.09-.48-2-3.36-9.45.45-9.71,1-.07,1.44-1.31.19-1.23Z"/><path class="cls-31" d="M455.5,430.76a9.85,9.85,0,0,0-8.74,2.37,6.32,6.32,0,0,0-2,3.26c-.47,2.21.94,4.48,2.82,5.73a9.23,9.23,0,0,0,9,.16,6.19,6.19,0,0,0,3-8.33,6.58,6.58,0,0,0-4.08-3.19"/><path class="cls-31" d="M471.58,439s-13-11.72-24.76-10.29c-16.59,2-19.37,10.16-22.39,14.59,0,0,9.39-10.68,22.25-12C458.34,430.18,471.58,439,471.58,439Z"/><path class="cls-31" d="M533.86,421.12c3-1.69,6.83-1,9.12.2a6.82,6.82,0,0,1,2.84,2.68,5.63,5.63,0,0,1-1.08,6.21c-1.94,2.21-5.6,3-8.6,2.28-4.07-1-5.87-4.51-5.3-7.32a6.11,6.11,0,0,1,3-4.05"/><path class="cls-31" d="M512,434.11s8.33-14.29,19.25-15.62c15.36-1.86,20.1,5.38,24,9,0,0-11.34-8.17-23.17-6.48C521.38,422.52,512,434.11,512,434.11Z"/><path class="cls-31" d="M547.56,387.1a1.55,1.55,0,0,1-.08-.23,24.74,24.74,0,0,0-7,.83c-12,3-17.26,6.13-31.41,18.73l.2.36c1.07,2.1.47.92,1.56,3q1.23,2.4,2.48,4.8c4.23-3.88,7-7.16,9.89-9.37,5.73-4.38,11.83-10.24,18.73-12.49a22.4,22.4,0,0,1,7.68-1.39C548.91,390,548.24,388.53,547.56,387.1Z"/><path class="cls-31" d="M467.52,412.6c-.39,2.32-.18,1-.58,3.36-.3,1.77-.6,3.55-.91,5.32-5.45-2.45-9.26-4.75-12.83-6-7.09-2.49-15-6.26-22.6-6.35-3.62-.05-8.35-.55-11.41,2.2-.82.74-3.09,4.13-4.37,3.27-.53-.35.88-3.06,1-3.34,2.88-5.46,8.26-7,14.58-7.4,12.89-.74,19.08.72,37.18,8.53"/><path class="cls-14" d="M508.42,475.58c-2.88,2-7.62,2.17-10.94.62-.74-.34-3,.35-2,.83,4.4,2.05,11.15,1.47,14.87-1.09.37-.26.27-.55-.25-.65a2.59,2.59,0,0,0-1.73.29"/><path class="cls-14" d="M494.09,476.31a19.24,19.24,0,0,0-6.89-.87,1.57,1.57,0,0,0-1,.45c-.17.2-.19.44.09.55a7.19,7.19,0,0,0,3.77.4,1.38,1.38,0,0,0,1.08-.58c.17-.33-.23-.49-.54-.45a5.79,5.79,0,0,1-3-.33c-.31.33-.61.66-.91,1a17.27,17.27,0,0,1,6.16.79A1.42,1.42,0,0,0,494,477c.23-.18.45-.55.06-.68"/><path class="cls-14" d="M485,477.7c-2.72.26-6-.54-7.61-2.42-2.37-2.84-1.11-8.24,2-10.62.34-.26.11-.51-.27-.55a2.25,2.25,0,0,0-1.41.48,10,10,0,0,0-3.36,9.45c.73,2.65,3.54,4.22,6.87,4.62a14.8,14.8,0,0,0,3.05,0c.41,0,1.14-.25,1.3-.6s-.23-.44-.61-.41"/><path class="cls-14" d="M513.21,473.6a.35.35,0,0,1,.28-.55,3.2,3.2,0,0,0,2-.94l.82.79a9.44,9.44,0,0,0-4.06,2,.75.75,0,0,1-.88,0c-.19-.13-.42-.45-.18-.66"/><path class="cls-14" d="M511.21,474.24a10.64,10.64,0,0,1,4.54-2.24.86.86,0,0,1,.77.24.39.39,0,0,1,.05.55"/><path class="cls-14" d="M518.87,473.29a5.59,5.59,0,0,0,4.31-3.85A8,8,0,0,0,520,461a.33.33,0,0,1,.06-.59,1,1,0,0,1,1,.19,9,9,0,0,1,3.74,7.05,6.43,6.43,0,0,1-5.32,6.51,1,1,0,0,1-.93-.32c-.17-.32.06-.49.3-.53"/><path class="cls-35" d="M525.54,315.07c-5.62-3.64-16.3-8.15-26-8.31a11.76,11.76,0,0,0-1.19,0L493.21,309,493,309l.19-.09c.92-.44,2.9-1.57,2-2.69a4.34,4.34,0,0,0-2.13-1.16A42.93,42.93,0,0,0,486,303.8v0l-.8-.05-.81-.08v0a42.37,42.37,0,0,0-7.26.14,4.25,4.25,0,0,0-2.28.81c-1,1,.73,2.39,1.56,3l.18.12-.16-.1-4.74-3a8.93,8.93,0,0,0-1.17-.2c-11.82-1.69-31.19,6.56-33,7.89s-.84,3.8-.76,4l-3.13-2.78s-14.69,4.42-17.27,6-4,5.7-4,5.7-4.48,1.24-6,.6-9.93,2.94-13.65,7.47c-2.38,2.9-1.84,5.86-3.12,8.48h0c-.72,1.46-1.14,2.44-1.14,2.44l-8.59,2.12c-7,2.69-6.38,16.64-6.38,16.64-14.46,15.12-16.21,28.84-11.49,44.15,1.83,5.9-14.95,10.37-4.47,11s23.7,36.72,23.7,36.72,3-14.42,3.95-20.39-.6-24-.6-24l5.16-.32s3.21-1,7.5-7.53-1.6-19.18-1.6-19.18l-1.42-7.48L404,377.4c9.75-.89,11.13-11.28,11.13-11.28l-.28-17.5,5.31,6.29a7.15,7.15,0,0,0,5.37,2.94c15,.06,17.52-9.1,17.52-9.1l2.69-8.59,3.59,2.82c3.74,3.61,15.58,9.65,22,7.46,1.7-.57,9-5.35,10.19-6,3.35-2.05,4.69-5.92,5.22-8.47,3.37,3.76,7.9,7.73,12.24,8.26,5.28.66,16.86-.64,18.47-3,1.08-1.57-.59-1.9,1.34-1.67a6.41,6.41,0,0,1,4,2.86s4.35,14.66,17.39,20.85,14.54-26.13,2.44-31.6C542.7,331.7,541.91,314.39,525.54,315.07Z"/><path class="cls-34" d="M338.68,353.86s-14.27,4-18.74,11.81c-11.51,20.15-3.23,74,8.76,84l13.73.66Z"/><path class="cls-33" d="M330.88,446.42s-20.47-2.37-24.19,10.16L305,462.53s-22.62-5.71-29.78,4.93-9.1,31.88-9.1,31.88"/><path class="cls-36" d="M429.7,953.16h0Z"/><path class="cls-37" d="M1101.1,521.65s-9.24-.23-26.56,28.61-32.14,142-32.14,142l11.46,1.84-.56,2.93-14.11-2.21s9.12-65.66,16.65-91.15,10.06-47.91,30.89-72.06c8.51-9.86,14.37-10,14.37-10"/><path class="cls-38" d="M749,732.85l51.4,7.15c7.12,1.48,11.2,8.91,9.56,17.9-.2,1.13-1.5,3.09-1.89,4.16L740,881.8c-2.68,4.63-7.13,7.16-11.51,6.55l-62.68-8.72c-4.83-1.42-7.57-7.52-6.13-13.65a13.53,13.53,0,0,1,1.63-4l67.19-117.37C733.23,736.26,741.16,731.7,749,732.85Z"/><path class="cls-39" d="M751.85,737.63l51.4,7.16c4.75.66,7.91,6.16,7.06,12.28a13.61,13.61,0,0,1-1.64,4.88L740.58,881.69c-2.71,4.75-7.19,7.35-11.58,6.72l-61.93-8.61c-2.82-.29-4.77-3.45-4.35-7.07a8,8,0,0,1,1-3l67.54-120.19C736,741,744,736.39,751.85,737.63Z"/><path class="cls-4" d="M817,757.09c6.38,2,11.11,2.4,16.95,6.26,8.26,6.19,24.92,30.27,24.92,30.27l37.44-1.19L913.82,851l-103.61-8.66S749.46,833,743.3,827.14s-10.37-23.3-10.37-23.3c-9.48-6.37-6.91-21-6.91-21-11.7-15.16,1.48-15.43,1.48-15.43a3.35,3.35,0,0,1-1.12-1.6c-2.19-6.7,7.75-11.63,13.18-7,9.18,7.63,21.69,17.7,23.84,17.65s16.52,1.72,29.08,3.3c6.36,1.08,11.84.17,13.15-5.56.35-1.49-2.51-.3-2.89-1.77l6-11.52c2.07-2.09,2.88-4.08,4.14-5.22"/><path class="cls-40" d="M850.73,845.47l-55.11-4.1"/><path class="cls-40" d="M858.75,794s-9.77-17.3-18-23.48c0,0-9.07-6.9-13.28-8.44s-17.86-2.87-17.86-2.87"/><path class="cls-41" d="M786.85,796.61a40.36,40.36,0,0,1-10.86.62,61.43,61.43,0,0,1-25.39-5,46.46,46.46,0,0,1-17.75-16.73,28.84,28.84,0,0,1-4.63-8.56,44.16,44.16,0,0,1,6.3,7.54A52.7,52.7,0,0,0,752,790a69,69,0,0,0,24.26,5.48A53.16,53.16,0,0,1,786.85,796.61Z"/><path class="cls-41" d="M780.7,809.16a22.55,22.55,0,0,1-9.92,1.06,80,80,0,0,1-10.72-1,34.61,34.61,0,0,1-12.53-4.08,53.09,53.09,0,0,1-9.3-8.15l-6.67-7.15a29.52,29.52,0,0,1-5.63-7,31.63,31.63,0,0,1,7.15,5.82c2.08,1.89,4.5,4.19,7.13,6.8a60.31,60.31,0,0,0,9,7.65,33.8,33.8,0,0,0,11.54,4.07q5.09,1,10.27,1.53A89.19,89.19,0,0,0,780.7,809.16Z"/><path class="cls-41" d="M772.15,823.58c-.19,1-11-.62-23.88-3.34a10.91,10.91,0,0,1-4.67-2.37,32.24,32.24,0,0,1-3.28-2.87,36.18,36.18,0,0,1-4.7-5.46c-2.33-3.36-3-5.79-2.66-5.9s1.63,1.92,4.29,4.84a62.4,62.4,0,0,0,4.87,4.89,40.47,40.47,0,0,0,3.21,2.6,8.6,8.6,0,0,0,3.56,1.81c6.57,1.33,12.29,2.77,16.5,3.8A34.62,34.62,0,0,1,772.15,823.58Z"/><path class="cls-4" d="M610.07,898.48c1.16,0,27.38-1,37.26,1.57s30.53,1.52,30.53,1.52,33.65-7.65,37.18-10.44S720.69,880,720.69,880a35.11,35.11,0,0,1,8-3.5c7.43-2.83,7.12-12.17,7.12-12.17l-10.81.19A286.57,286.57,0,0,0,755.34,863c2.81-.72,2.58-2.51,1.53-4.47a12.36,12.36,0,0,0-8-5.68l-54.07-12.7a101.85,101.85,0,0,0,11-18.5c3.07-6.61-2.66-8.84-4.54-9.24s-17.36,11.92-17.36,11.92-28.29,9.49-33.59,12.81-32.5,22.54-32.5,22.54l-10.57.26S608.9,898.51,610.07,898.48Z"/><path class="cls-41" d="M684.51,838.15a72.71,72.71,0,0,0-15.72-.83,68.24,68.24,0,0,0,15.53,2.59,123.43,123.43,0,0,0,15.56,1.73A49.22,49.22,0,0,0,684.51,838.15Z"/><path class="cls-41" d="M710.93,864.15c6.34.63,12.1,1.13,16.28,1.26a21.3,21.3,0,0,0,6.81-.28,35.1,35.1,0,0,0-6.74-1c-4.15-.47-9.9-1.17-16.24-1.8-12.67-1.35-23.12-1-23-.47C688,862.32,698.25,862.8,710.93,864.15Z"/><path class="cls-41" d="M702.5,881a51.94,51.94,0,0,0,18-1.21c-.15-.35-8.17.16-18-.39s-17.82-2-17.93-1.5A53.8,53.8,0,0,0,702.5,881Z"/><circle class="cls-38" cx="791.01" cy="760.98" r="6.34"/><path class="cls-4" d="M276.44,764.74c.67,2.86,1.33,5.38,1.95,7.28,6.47,19.69,10,40.58,14.79,60.72q5.16,21.87,12.11,43.25c4.4,13.47,8.22,27.81,17.13,39,12,15.08,45.91,12.24,30.75,1.11,2.8-2.62,4.88-8.53,12.42-9a37.24,37.24,0,0,0,9.74-1.91,34.31,34.31,0,0,0,4.19-5,65.8,65.8,0,0,0,7.68-15.32q.35-3.48.64-7c1.47-17.44,10-17.47,6.4-35.2-3.94-19.47-11.43-85-16.11-113.75-3.76.79-35,11.35-38.71,12.15"/><path class="cls-4" d="M352.93,871.65c2-8.36,8.42-30.57,16.29-31.8,24.28-3.8,48.66-3.38,73.13-2.19q48.4,2.34,96.49,8.76c16.37,2.18,32.39,5.09,48.62,8,9.76,1.76,25.64,6.44,35.2,1.8s9.06,35.79-7.28,42.12C591.12,907.75,453.43,922,441,924.93c-.57.13-1.13.23-1.71.31-19.77,2.56-71.76,17.19-110.12-4.51-20.95-11.85-1.92-57.26-2.66-69.05Z"/><path class="cls-23" d="M368.26,580.12S269,591,259.38,674.18c-8.1,70.18-1,130.05-1,130.05l154.75-17.88L364.5,668.94C364.79,666.69,368.26,580.12,368.26,580.12Z"/><path class="cls-5" d="M393.29,837.56s-31.39,1.91-42.48,17.32c0,0,7.93-12.43,20.47-16.73a173.22,173.22,0,0,1,21.26-6l1.36,5.13"/><path class="cls-42" d="M335.77,615.39s21.21,1.46,34.91,49.17c11.55,40.19,25.81,123,25.81,123l-9.35,2.25.27,2,12.15-2s-24.64-136.11-38.93-155.9S335.77,615.39,335.77,615.39Z"/><path class="cls-43" d="M505.19,492.44c-10.53,1.28-33,10.49-37.17,15.12,0,0,13,6.82,37.44,3.86s27.45-11.73,27.45-11.73S518.6,490.81,505.19,492.44Z"/><path class="cls-44" d="M477.39,501.85s12.41-2.52,22.41-3.73,22.63-1.73,22.63-1.73.7-7.62-17.41-5.43S477.39,501.85,477.39,501.85Z"/><path class="cls-45" d="M505.07,508.14c-11.62-.23-23.82-3-37.05-.58,0,0,5.59,14.76,34.29,11.28s30.6-19.15,30.6-19.15C519.48,500.48,516.31,505.13,505.07,508.14Z"/><path class="cls-45" d="M517,485.26c-6.08.29-9.63,3-12.25,3.34s-6.72-1.49-12.69-.32c-5.6,1.1-27.82,17.74-24.94,19.2s20.18-10.88,38.33-13.08,25.88,7.1,28.33,5S522.68,485,517,485.26Z"/><path class="cls-43" d="M924.37,420.39c11.22-.6,36.37,4.88,41.59,8.94,0,0-12.34,9.53-38.38,10.94s-30.82-7.2-30.82-7.2S910.07,421.17,924.37,420.39Z"/><path class="cls-44" d="M955.12,425.1s-13.42-.35-24.07.23-23.95,2.36-23.95,2.36-2.14-7.83,17.18-8.87S955.12,425.1,955.12,425.1Z"/><path class="cls-45" d="M927.38,436.77c12.1-2.39,24.32-7.55,38.58-7.44,0,0-3.12,16.44-33.72,18.09s-35.48-14.35-35.48-14.35C910.93,431.42,915.09,435.7,927.38,436.77Z"/><path class="cls-45" d="M910.73,415.07c6.4-.82,10.62,1.38,13.41,1.23s6.74-2.79,13.2-2.67c6,.12,32.31,13.4,29.56,15.45s-23.07-7.64-42.43-6.59-25.7,12.18-28.66,10.43S904.73,415.84,910.73,415.07Z"/><path class="cls-42" d="M591.19,680.81s28.45,54.65,19,88.31-8.06,56.11-8.06,56.11l.38,29.55-2.66-34.3s1-17.79,2.61-26,8.29-23.5,8.21-46.68c0-11.21-3.46-18.89-6.25-28.43S591.19,680.81,591.19,680.81Z"/><path class="cls-5" d="M474.94,402.09s18.84,3.09,7.24,21.27C482.18,423.36,483.66,406,474.94,402.09Z"/><path class="cls-5" d="M499.32,396.93s-14.06,12.92,5.61,21.76C504.93,418.69,494.16,405,499.32,396.93Z"/><path class="cls-5" d="M913.44,321.78s18,6.39,3.34,22.21C916.78,344,921.33,327.16,913.44,321.78Z"/><path class="cls-5" d="M936.59,320.76s-16.12,10.22,1.66,22.41C938.25,343.17,930.09,327.76,936.59,320.76Z"/><path class="cls-5" d="M1041,782.91s31,8,38.9,25.22c0,0-6.21-14.8-17.67-21.46s-20.38-8.3-20.38-8.3l-.85,4.54"/><path class="cls-37" d="M867.39,553.73s-6.83,42.59-13.74,55.8-27.16,57.34-22.08,72.91,8.62,30.26,28.31,39.79,16.19,7.55,16.19,7.55-19.64-10.52-28.76-21c-7.94-9.17-15.67-29.37-14.12-36.74,2.72-12.89,5.88-25.83,11-38,6.8-16,14.54-29.5,17.72-46.85C864,576.07,865.77,564.9,867.39,553.73Z"/><polyline class="cls-40" points="602.59 857.84 617.74 859.7 638.27 845.29"/><path class="cls-40" d="M607.84,900.61s12-2.39,17-2.31,26.62,2.53,26.62,2.53"/><path class="cls-42" d="M594,686.5s-3.59-9.13-1.57-17l.47-2.18s-3.71,7.78-1.09,15.11l2.62,7.34Z"/><path class="cls-43" d="M142.92,130c-3.34-.42-11,.68-12.62,1.79,0,0,3.48,3.11,11.23,4.08s9.37-1.49,9.37-1.49S147.18,130.49,142.92,130Z"/><path class="cls-44" d="M133.63,130.7s4,.19,7.19.59,7.1,1.21,7.1,1.21.81-2.29-4.94-3A16.64,16.64,0,0,0,133.63,130.7Z"/><path class="cls-45" d="M141.67,134.78c-3.56-1-7.11-2.77-11.37-3,0,0,.58,5,9.69,6.12s10.91-3.53,10.91-3.53C146.7,133.53,145.36,134.72,141.67,134.78Z"/><path class="cls-45" d="M147.11,128.65c-1.9-.38-3.2.19-4,.09s-1.95-1-3.88-1.08-9.94,3.31-9.17,4,7.06-1.79,12.82-1.06,7.43,4.18,8.34,3.73S148.88,129,147.11,128.65Z"/><path class="cls-5" d="M140.86,95.61s5.46,2.78.14,7.21C141,102.82,143.15,97.65,140.86,95.61Z"/><path class="cls-5" d="M148.81,96.4s-5.55,2.59-.4,7.2C148.41,103.6,146.45,98.36,148.81,96.4Z"/><polygon class="cls-5" points="107.81 527.14 116.22 466.3 117.19 466 107.81 527.14"/></g></svg>