<svg xmlns="http://www.w3.org/2000/svg" xmlns:xlink="http://www.w3.org/1999/xlink" viewBox="0 0 1303.15 1057.31"><defs><style>.cls-1,.cls-22{fill:none;}.cls-2{fill:#e0d5b3;}.cls-3{fill:#f2ebd1;}.cls-4{clip-path:url(#clip-path);}.cls-5{fill:#956243;}.cls-6{fill:#151210;}.cls-7{fill:#262626;}.cls-8{fill:#653c2a;}.cls-9{fill:#dc9b34;}.cls-10{fill:#a56530;}.cls-11{fill:#8c542a;}.cls-12,.cls-35{fill:#993a2f;}.cls-12{stroke:#993a2f;stroke-width:0.39px;}.cls-12,.cls-22,.cls-26,.cls-27,.cls-34{stroke-miterlimit:10;}.cls-13{fill:#c98532;}.cls-14{fill:#1c3b53;}.cls-15{fill:#5e5f5f;}.cls-16{fill:#a85926;}.cls-17{fill:#ec9a6f;}.cls-18{fill:#b25226;}.cls-19{fill:#010101;}.cls-20{fill:#13110f;}.cls-21{fill:#878787;}.cls-22{stroke:#010101;stroke-width:1.7px;}.cls-23{fill:#273339;}.cls-24,.cls-42{fill:#fff;}.cls-24{opacity:0.14;}.cls-25{fill:#cd7a29;}.cls-26{fill:#161d46;stroke:#151d45;stroke-width:0.96px;}.cls-27{fill:#895522;stroke:#895522;stroke-width:1.56px;}.cls-28{fill:#653c29;}.cls-29{fill:#31160e;}.cls-30{fill:#f1eef7;}.cls-31{fill:#513835;}.cls-32{clip-path:url(#clip-path-2);}.cls-33{fill:#ad7b98;}.cls-34{fill:#681941;stroke:#681941;stroke-width:1.32px;}.cls-36{fill:#a99231;}.cls-37{fill:#683b8c;}.cls-38{fill:#966eb0;}.cls-39{fill:#ce8d2a;}.cls-40{fill:#231f20;}.cls-41{fill:#4b1230;}.cls-43{fill:#684135;}</style><clipPath id="clip-path"><polygon class="cls-1" points="-1 -2 1.76 1057.31 597.14 1057.31 787.89 0 -1 -2"/></clipPath><clipPath id="clip-path-2"><polygon class="cls-1" points="788.5 -1.32 598.74 1055.99 1303.75 1055.99 1303.75 -1.32 788.5 -1.32"/></clipPath></defs><g id="Layer_1" data-name="Layer 1"><polygon class="cls-2" points="865.72 1057.31 0 1057.31 -1 -2 865.72 -2 865.72 1057.31"/><polygon class="cls-3" points="787.89 0 598.14 1057.31 1303.15 1057.31 1303.15 0 787.89 0"/></g><g id="Layer_2" data-name="Layer 2"><g class="cls-4"><path class="cls-5" d="M456.8,325l11.51,13.27,20.18-16.41,6.39-13,25.41-19.1a116,116,0,0,1-1.19,13.54l11,26.68-4.19,47.65,10.94,27L484.44,414.9l-6.55-32.21a101.19,101.19,0,0,1-20.22-19.43c-6.65-9.65-10-53.44-10-53.44C451.55,309.19,454.27,321.89,456.8,325Z"/><path class="cls-6" d="M496.62,335a5,5,0,0,0,1.83-4.85l-5.06-26.58-15.63-71.72a5,5,0,0,0-7.83-3l-32.17,23.94a4.94,4.94,0,0,0-1.88,5.08L458,355.65a5,5,0,0,0,6,3.71,5.17,5.17,0,0,0,1.87-.87Z"/><path class="cls-7" d="M492.18,331.05a4.43,4.43,0,0,0,1.61-4.28l-4.42-24L475.7,237.84a4.37,4.37,0,0,0-6.86-2.59l-28.6,20.92a4.37,4.37,0,0,0-1.67,4.46l20.81,88.75a4.37,4.37,0,0,0,5.25,3.26,4.26,4.26,0,0,0,1.65-.78Z"/><path class="cls-5" d="M495,308.78s-2.75.62-10,2.86c-8.62,2.51-10.28-2-10.28-2h0a6,6,0,0,1,3.95-7.42L496,296.84l.09-3.56s-8.84.31-15.27-.25c-13.47-1.18-7.39-12.31-7.39-12.31l15.68-.64L482.27,268a8.63,8.63,0,0,1,1.87-12c.21-.15.43-.3.65-.43l27,26.63s8.18,4.24,8.43,7.78a115.59,115.59,0,0,1-1.19,13.54Z"/><path class="cls-8" d="M476.83,311.86a12.69,12.69,0,0,0,6.63.58A67.08,67.08,0,0,0,499.09,309l2.2-.74-1.16-.48c2.57,4.95,4.28,9.71,5.91,13a15.61,15.61,0,0,0,3,5,25.81,25.81,0,0,0-1.87-5.56,111,111,0,0,0-5.38-13.41l-.35-.7-.81.26-2.17.71a103.73,103.73,0,0,1-15.33,3.9C479.36,311.67,476.86,311.57,476.83,311.86Z"/><path class="cls-8" d="M495.83,297.49c0,.23,1.47-.47,3.84-1a16.54,16.54,0,0,1,8.72.13,16.23,16.23,0,0,1,7.34,4.77c1.58,1.71,2.25,3,2.52,2.92s.15-1.64-1.42-3.88a14.61,14.61,0,0,0-7.85-5.78,14.89,14.89,0,0,0-9.75.42C496.81,296.16,495.7,297.29,495.83,297.49Z"/><path class="cls-8" d="M474.07,280.42c0,.56,8.21-.61,18.18-.22s18,2,18.17,1.39a44.71,44.71,0,0,0-18.09-3.41A46.33,46.33,0,0,0,474.07,280.42Z"/><path class="cls-8" d="M488.58,375.39c.3,0-.17-2.79.07-7.2a35.47,35.47,0,0,1,16.49-28.53c3.73-2.41,6.35-3.19,6.28-3.65a15.78,15.78,0,0,0-7,2.46,33,33,0,0,0-17.19,29.68A15.81,15.81,0,0,0,488.58,375.39Z"/><path class="cls-9" d="M387.3,374.07l46.53,11.59a44.22,44.22,0,0,1,12.34,6.13c14,9.9,30.92,24,36.45,39.8l3,58.67-10-90.66,63.47-13s37.53,114,43.11,169.1c4.31,42.37,10.27,99.75-23.35,105.29-58.84,24.77-93.56-30.83-116.22-65.52l-30.06-76.73Z"/><path class="cls-10" d="M218.21,962.19q80.11,0,160.23,0c23,0,27.22,10.87,27.19,33.15,0,20.48-4.59,32.5-27.84,32.55-5.23,0-10.58.59-15.68-.1-15.38-2.08-18.47,3.61-16.45,15.5,19.67,116,38.86,224,58.48,340,1.34,7.9.12,11-10.5,11.15-26.52.33-27.06.86-30.74-20.86q-18.79-111-36.62-222.1c-1.6-10.07-5.68-13.12-17.64-13q-91.11.75-182.22,0c-11.65-.1-15,3.46-16.49,12.56-12.46,78-25.5,156-38.06,234-1.17,7.27-4.72,9.43-13.16,9.56-27.32.42-28.06.61-24.55-21.27,12.72-79.32,26-158.58,39.08-237.85,5.59-33.71,11.16-59.44,17.24-93.08,1.88-10.39-.32-16.27-14.58-14.29-3.06.43-6.29-.13-9.41.09-41,2.89-37.63-26.37-35.25-53.43.92-10.5,11.79-13,23.6-12.92,54.46.27,108.91,6.78,163.37,6.78Zm-1.29,149.75c30.34,0,60.67-.24,91,.14,9.29.11,13.44-1.6,11.86-10.35-4.89-27.08-9.33-35.36-13.55-62.52-1.28-8.23-4.67-11.71-15.67-11.57-48.1.61-96.23.7-144.33,0-11.92-.19-15.23,3.63-16.56,12.35-4,26.28-8.34,33.7-13.12,59.89-1.65,9.07.77,12.57,12.53,12.31C158.34,1111.5,187.64,1111.94,216.92,1111.94Z"/><path class="cls-11" d="M73.36,1135.62q-3,18.36-6.08,36.7c12.72,2.5,25.36,5.44,38,8.51,1.59-9.88,3.2-19.76,4.77-29.64,1.46-9.11,4.84-12.67,16.5-12.57q91.11.77,182.22,0c11.95-.1,16,2.94,17.64,13,1.52,9.59,3.08,19.17,4.62,28.76a347,347,0,0,0,35.67-15.17c-6.94-40.08-13.9-80.44-20.91-121.82-.67-3.9-.76-7.12-.07-9.63q-12.45.83-24.94,1.29-7.65.3-15.3.46a25.74,25.74,0,0,1,.87,3.8c4.22,27.15,8.66,35.44,13.55,62.51,1.58,8.76-2.57,10.46-11.86,10.35-30.32-.38-60.66-.14-91-.14-29.28,0-58.58-.44-87.85.21-11.77.26-14.18-3.24-12.53-12.31,4.78-26.19,9.08-33.61,13.11-59.89.54-3.48,1.4-6.17,3-8.15-14.42-.44-28.85-.79-43.27-1,2,2.53,2,6.53,1.11,11.6C84.52,1076.19,79,1101.91,73.36,1135.62Z"/><path class="cls-11" d="M30.75,980.32s174,26.8,249,17.1,125.56-12.75,122.52-24.36-56.13-36.53-109.59-38.29-200,11.68-200,11.68-49.19,8.27-54.35,15.43S30.75,980.32,30.75,980.32Z"/><path class="cls-12" d="M442,430.11a162.78,162.78,0,0,0-9.54,41.24A163.64,163.64,0,0,0,442,430.11Z"/><path class="cls-13" d="M240.37,347.75A311.43,311.43,0,0,0,196,370.62c-25.76,15.88-60.73,36.25-70.29,88.59s10.85,141.45-15.32,203.87S74.87,782.62,74.87,782.62L334.52,466.87Z"/><path class="cls-14" d="M68,845s-21.22,107.89,34.2,123.77,290.64,19.71,290.64,19.71,4.57,69.81,13.52,134.23c8.23,59.25,22.42,144.63,22.42,144.63s176.76,12,195.65-22.33c16.54-122.16,32.16-245.72,25-369.24-2.32-40.12-38.92-65.92-71.72-76.31-32.55-10.32-84.22-14.38-119.73-16.83-34.74-2.39-96.71,6.25-96.71,6.25S184.93,888.63,68,845Z"/><path class="cls-15" d="M264.1,115.86c7.74-8.43,18.75-13.31,29.21-9,2.23-21.23,24.33-31.08,45.56-29,10.85,1.57,21.39,7.9,32.11,5.62,6.68-1.42,12.16-5.81,18.17-9.3,25.07-14,58.52,10.26,75.28,33.64s9,46.05-4.38,71.49c-6.2,11.84-6.32,18.69-9.43,31.78-2.93,12.35-13.48,34.66-15.21,47.07s16,27.92,3.35,27.3L304.2,251.91c-20.82,1.41-33-6.39-41.1-25.61-5.21-13-2.88-13.29-2-27.26.7-18.33-16-34.31-12.56-52.32C250.32,135.35,256.85,124.79,264.1,115.86Z"/><path class="cls-16" d="M247.23,112.93s50.24-17.38,110.32-2.83S442.6,165.8,449.82,194s-7.73,54.84-7.73,54.84,14.7,6.08,31.85-47.46c25-78-50.53-136.71-70.27-139S285.77,26.84,247.23,112.93Z"/><path class="cls-5" d="M281.77,259.37s-8.42,47.89-25.7,79.85c-2.41,4.46-34.62,18.47-34.62,18.47l42.05,20.47c24,8.92,79.35,15,104.34,9.56l21.6-10s-24.46-8.82-24.93-14.77,9.72-49.22,9.72-49.22"/><g id="freepik--character-2--inject-1332"><path class="cls-17" d="M307.75,450.29a71.49,71.49,0,0,1-3.88-8.61,31.3,31.3,0,0,1-1.45-10,30.38,30.38,0,0,1,2.69-12,31.15,31.15,0,0,1,5-7.64l.32-.33-.2-.51c-2-6.08-3.41-11.84-4.65-15.66a23.77,23.77,0,0,0-2.26-6.09,3.64,3.64,0,0,0,.28,1.69l1.13,4.54c1,4,2.13,9.42,4.19,16.08l.16-.83A31.1,31.1,0,0,0,301,431.76a30.37,30.37,0,0,0,1.9,10.33,27.59,27.59,0,0,0,3.08,6.26A9.11,9.11,0,0,0,307.75,450.29Z"/><path class="cls-17" d="M253.54,430.79a48.68,48.68,0,0,0-4.7-5.53,26.22,26.22,0,0,1-7.29-15c-.17-3.26.46-6.5.21-9.61a10.25,10.25,0,0,0-3.29-7.42,6.31,6.31,0,0,0-5.29-1.38c-1.32.35-1.79,1-1.76,1a7.91,7.91,0,0,1,1.86-.46,6.15,6.15,0,0,1,4.51,1.62,9.65,9.65,0,0,1,2.52,6.7c.18,2.84-.49,6.07-.32,9.59a20.68,20.68,0,0,0,3.1,9.24,37.47,37.47,0,0,0,5,6.23A28.54,28.54,0,0,0,253.54,430.79Z"/><path class="cls-17" d="M271.76,419.83a73.22,73.22,0,0,0-7-6.67,45.6,45.6,0,0,1-12.86-18.64,25.43,25.43,0,0,1-1.14-6.3,40.89,40.89,0,0,1,.33-6.06,13.14,13.14,0,0,0-2.28-10.36,5.81,5.81,0,0,0-3.93-2,5.64,5.64,0,0,0-3.13.59c-1.61.94-1.75,2.12-1.7,2.09A4,4,0,0,1,242,371a5.15,5.15,0,0,1,5.87,1.49A12.4,12.4,0,0,1,249.6,382a42.29,42.29,0,0,0-.41,6.26,25.7,25.7,0,0,0,1.18,6.74,42.9,42.9,0,0,0,13.54,18.95c2.29,2,4.19,3.45,5.55,4.45A8.1,8.1,0,0,0,271.76,419.83Z"/><path class="cls-17" d="M249.25,356.7a18.91,18.91,0,0,1,4.47,7.09,40.28,40.28,0,0,1,1.78,9,49.86,49.86,0,0,0,2.31,11.53,41.86,41.86,0,0,0,11.91,17.55,36.16,36.16,0,0,0,5.26,3.79,7.23,7.23,0,0,0,2.17,1c.05-.25-2.82-1.89-6.66-5.62a44.7,44.7,0,0,1-11.19-17.28,53.2,53.2,0,0,1-2.13-11.11,37.81,37.81,0,0,0-2.17-9.39A11.09,11.09,0,0,0,249.25,356.7Z"/></g><g id="freepik--character-1--inject-1332"><path class="cls-5" d="M369.84,368.59,248.15,351.53l-18.72,43.41s28,33.16,31.1,34.93S337.13,457,337.13,457s88.9-22,87.71-21.88S369.84,368.59,369.84,368.59Z"/><path class="cls-9" d="M87.94,853.58c7.75,3.82,16.06,5.92,24.52,7.56a198.78,198.78,0,0,0,27.62,3.37,168.71,168.71,0,0,0,48.09-4.16,413.57,413.57,0,0,0,43.63-13.52c28.77-10.41,55.91-10.64,84.75-20.87s36.64-26.47,67.21-28.34c21.69-1.33,50.2-18,74.29-15,6.56-21.95-13.55-47.6-13.55-47.6L432.89,669.9,457.35,643c16.88-27.74,22-100.66,15.75-112.82L421.05,395.66l-50.93-28.52c2,4.48,15.29,37.38-28.83,44.89,0,0-10.62-.81-10.65-.8-55.38-7.42-90.27-63.48-90.27-63.48L221.58,356l-94.05,278S59.09,756.06,52.05,808.49c-1.08,8.1-5.1,10.89,1.52,23.91C61.3,839.44,75.88,847.63,87.94,853.58Z"/></g><path class="cls-9" d="M370.12,367.14s77.93,27.12,86.15,53.53c12.47,40.12,18,124.06,18,124.06l-37.32-2.42Z"/><path class="cls-18" d="M467.69,620.64c1.45-9.62.45-19.63-.15-29.28q-1-16.07-3.38-32c-3.26-22-8.17-43.69-13.59-65.23-2.61-10.35-5.34-20.67-8.07-31,3.83,19.27,6.69,38.74,11,57.92,4.43,19.65,8.55,38.75,10.27,58.84,2,23.68,4.52,34.47-3.84,52.45s-27.05,37.52-27.05,37.52l1.6,1.89S464.85,639.4,467.69,620.64Z"/><path class="cls-8" d="M366.13,350.83s-9.95-3-16.69-6-18.81-4.11-47.34-36.5c0,0,4.84,35.74,45.09,48.67,0,0,10.36,3.67,17.59,2.92Z"/><path class="cls-5" d="M431.19,146.52l.39.41a5.1,5.1,0,0,1-.3-.79Zm16.67,7.39c.2.29.43.59.67.89l.07-.32S447.94,153.53,447.86,153.91Zm-149,150.22c12.68,20.29,34.25,43.53,60.27,48.15,9.32,1.66,19.3-1.2,27-5.79,11.67-7,23.91-14,33.43-23.12,9.13-8.75,13.56-14.46,19.22-25.73,5.85-11.66,6.53-14.92,7.88-27.55a125.2,125.2,0,0,1,3.58-19.27c1.8-6,9.81-29.48,13.43-43.49S462,164.19,462,164.19c0-4-5.67-3.16-7.06-6.68l-1.66-.38a1.69,1.69,0,0,1,.48,1.72,13.44,13.44,0,0,1-5.19-4v.06c-2.76.58-5-1.13-6.64-3.51-.08.38.16,1.24.58,1.33a8.54,8.54,0,0,1-6.13-3.79c-.09.38.16,1.24.07,1.62a15.71,15.71,0,0,1-4.82-3.58c.27.59,10,1.26,9.92,1.53-2.58-.19.08,1.29-1.56-1.09l-1.74-1.88c-2.17-.09-2.37,1.18-3.69-.73.33.48-.19-4.46-.28-4.07-2.49-.57-1.77-.58-3.59-2.2-.09.38-7.35.94-7.44,1.32-2.08-.47-2,1.56-3.28-.34.33.47,1.87-1.26,2.19-.78-2.57-.19-3.88,1.2-5.52-1.18.33.48-7.27-6-7.27-6-2.58-.19-2.33.69-4.06-1.3.66,1-11.34-3.32-11.1-2.46-2.08-.48,2.24,8.51.84,7-.09.38-4.52-2.23-4.52-2.23-2.17-.09.52,2.52-.8.62-.09.38.07,1.62.49,1.71-2.76.58-5.49-.84-7.64-2.93.66.95.9,1.81,1.23,2.28-2.08-.47-3.82-.46-5.55-2.46-.09.38.48,1.71.9,1.81a8.48,8.48,0,0,1-6.48-2.27c-.08.38.58,1.33.9,1.8a6,6,0,0,1-4.81-1.89l.9,1.81c-1.66-.38-3.08.1-5.4-1.22-.09.38.66,1,.57,1.33a15.34,15.34,0,0,1-4.06-1.33c-.09.39,1,1.43.56,1.34-1.66-.38-3.07.1-5-1.13.33.47.57,1.33.9,1.8-1.66-.37-3.41-.37-4.9-1.51a3,3,0,0,0,.49,1.72c-1.66-.38-3.08.1-5-1.14-.08.38.58,1.34.91,1.81-1.67-.38-3.42-.37-5-1.13-.09.38.66.95,1,1.43-1.67-.38-3.41-.38-5.32-1.61-.17.76.16,1.24.07,1.62-1.25-.28-2-.85-3.24-1.14l-2.25.29c-7.54,6.31-28-4.8-28-4.8-15.21,7.38-9.91,64-11.14,71.3s-5.8,8.43-5.8,8.43c-1.47-3.14-5.79,4.18-6.35.84-.64-2.95,1-6.19.33-9.14-2.35-7-11.09-6.93-16.53-4.15l-1,1.08c-8.32,7.18-7.43,35.54-4.51,44.56-2.27,16.53,10.09,28.25,20.74,18.34l.82,6.83"/><path class="cls-19" d="M391.48,281.74c-3.43.9-8-.53-10.67-3.13-.59-.58-3-.69-2.13.13,3.5,3.43,10.15,5.18,14.57,4,.44-.12.44-.43,0-.7a2.7,2.7,0,0,0-1.75-.32"/><path class="cls-19" d="M377.54,277.56a19.72,19.72,0,0,0-6.29-3.17,1.57,1.57,0,0,0-1.09.09c-.24.13-.33.35-.11.55a7.45,7.45,0,0,0,3.47,1.67,1.46,1.46,0,0,0,1.23-.18c.28-.26-.06-.55-.36-.62a5.83,5.83,0,0,1-2.8-1.35l-1.2.64A17.7,17.7,0,0,1,376,278a1.47,1.47,0,0,0,1.26.15c.27-.09.61-.37.28-.63"/><path class="cls-19" d="M368.34,275.77c-2.68-.68-5.59-2.56-6.46-4.88-1.3-3.5,1.65-7.9,5.46-9.08.41-.13.28-.45-.07-.61a2.18,2.18,0,0,0-1.51,0c-3.31,1-6.11,4.56-6.32,7.52-.19,2.76,2,5.21,5,6.71a14.57,14.57,0,0,0,2.89,1.09c.41.1,1.17.15,1.44-.12s-.06-.5-.44-.6"/><path class="cls-19" d="M396.72,281.5a.36.36,0,0,1,.46-.43,3.24,3.24,0,0,0,2.24-.2l.52,1a9.57,9.57,0,0,0-4.56.54.79.79,0,0,1-.84-.33c-.14-.19-.25-.57,0-.68"/><path class="cls-19" d="M394.59,281.43a10.82,10.82,0,0,1,5.1-.59.92.92,0,0,1,.65.49.37.37,0,0,1-.14.54"/><path class="cls-19" d="M402.24,283.14a5.65,5.65,0,0,0,5.41-2.19,8.06,8.06,0,0,0-.15-9.09.32.32,0,0,1,.26-.53,1,1,0,0,1,.87.51,9,9,0,0,1,1.2,8,6.51,6.51,0,0,1-7.29,4.36c-.26,0-.71-.28-.77-.62s.22-.44.47-.39"/><path class="cls-20" d="M431.83,235.08c2.58-.67,5.33,1,6.54,2.65a6.75,6.75,0,0,1,.84,3.12,6.16,6.16,0,0,1-2.66,5.15,5.73,5.73,0,0,1-6.66-.34,6.31,6.31,0,0,1-1.41-7.85,5.65,5.65,0,0,1,3.35-2.73"/><path class="cls-20" d="M409.49,238.1s13.23-6.29,19.1-5.56c8.57,1.06,17.83,8.05,19.86,12.88,0,0-12.08-10-18.14-10.62C424.52,234.25,409.49,238.1,409.49,238.1Z"/><path class="cls-20" d="M361.74,220.08c-2-1.72-5.82-2.23-7.63-1.23a5.93,5.93,0,0,0-2.38,2.33,6.15,6.15,0,0,0,.18,5.78,5.74,5.74,0,0,0,6.15,2.58,6.32,6.32,0,0,0,4.66-6.49c0-.48.63-1.24-1-2.63"/><path class="cls-20" d="M374.91,229.56S364.06,218.62,357.86,217c-9-2.33-21.11.54-25,4.22,0,0,16.1-4.6,22.43-2.79C361.29,220.18,374.91,229.56,374.91,229.56Z"/><path class="cls-21" d="M417.72,209q-.44,2.57-.87,5.16c-.22,1.31-.44,2.62-.65,3.93,4.58-.35,8.45-.43,11.37-.41,6.16,0,9.31.07,12.69,1.25a33.44,33.44,0,0,1,7.53,3.88,21,21,0,0,1,3.8,2.94c2.59,2.63,3.38,5.24,3.9,5.12s.11-2.36.07-2.58a20.37,20.37,0,0,0-4.78-9.8,23.85,23.85,0,0,0-7.45-5.09c-3.28-1.47-12.7-3.74-25.61-4.4"/><path class="cls-21" d="M386.3,200.77c-.51,1.67-1,3.33-1.54,5-.39,1.28-.79,2.54-1.19,3.81-4.3-2.48-8.05-4.37-10.91-5.74-6-2.89-9.12-4.34-13-4.88a38.81,38.81,0,0,0-9.15-.11,24.41,24.41,0,0,0-5.08.82c-3.74,1.12-5.72,3.07-6.17,2.71s1-2.14,1.12-2.33a20.64,20.64,0,0,1,9.2-6.45,27,27,0,0,1,9.63-1c3.89.25,14.14,2.68,27.06,8.19"/><path class="cls-22" d="M280.75,231.36C275,208,268.4,206.73,268.4,206.73s-5.28,4.36-4.71,14.88"/><path class="cls-22" d="M277,232.8c-5.82-1.54-3.07,10.27-5.12,12.6s-3.11-4.93-2.49-13.4c0,0,1.81-11.28,7.75-12.43"/><path class="cls-8" d="M373.59,176s13.32,9.55,28.06,11.51,33.18,2.5,33.18,2.5"/><path class="cls-21" d="M455.87,145.69c-.15-.29.06.13,0,0-2.91-5.67-4.43-11.5-7.58-17s-6.16-10.38-9.55-15.63c-.2-.31-5-1.14-5.19-1.45,0-.06-.17-.26-.22-.32l-.33-.49-.76-1.14c-21.39-13.28-48.77-18.7-74.77-14.68a92.53,92.53,0,0,0-77.3,105.59c.66,4.32-2.54,9,1.18,11.9s4.37,1.84,8.6-.27a30.62,30.62,0,0,0,10.18-9.62c13.41-18.45,20.58-49.87,19-72.63,2.08,4.55,21.33,2.93,25.07,6.25a35.84,35.84,0,0,0,50.59-3,56,56,0,0,0,4.63,7.73c16,22.38,39.26,35.48,61.86,24.59C462.15,165.07,457.67,149.29,455.87,145.69Z"/><path class="cls-23" d="M328.55,210l.93,8.29c.22,6.33,2.22,19.21,3.58,22.9,1.94,5.16,33.52,13.71,40.58,11.38s14.46-19.84,17-23.72l12.64,3.43c0,5.72.26,23.92,2.18,26.77s16.68,5.56,18.35,5.87c1.38.23,3.31.57,5.44.84,5.63.78,12.55,1.28,15.05-.33,3.73-2.39,9.57-13.29,14.8-23.66l.85-1.62c.19-.39.38-.66.41-.78h0l.94-1.87c-16.53-12.69-41-16.38-58-8.73l.07.22-12.31-3.41c-12.07-12.36-35.34-22.63-54.19-19.58h0l-56-2.51-1.18,4.76Zm78.83,47.6c-1.21-1.78-1.79-14.61-1.92-24.52,14.7-6.39,36.73-3,51.71,7.38l-.06.24c-2.81,5.56-10.28,20.35-13.94,22.7-4.33,2.76-33.63-2.94-35.81-5.75Zm-70.25-16.91a167.28,167.28,0,0,1-4.68-29.77c17-3.75,43.14,5.94,55,17.75-3.83,7.17-9.46,19.93-14.52,21.59-7.27,2.39-34.6-6.31-35.8-9.57Z"/><path class="cls-24" d="M407.74,257.37c-1.2-1.78-1.78-14.61-1.91-24.52,14.69-6.39,36.73-3,51.71,7.38l-.06.24c-2.81,5.56-10.28,20.35-13.94,22.7-4.33,2.76-33.64-2.94-35.81-5.75Z"/><path class="cls-24" d="M337.13,240.64a167.28,167.28,0,0,1-4.68-29.77c17-3.75,43.14,5.94,55,17.75-3.83,7.17-9.46,19.93-14.52,21.59-7.27,2.39-34.6-6.31-35.8-9.57Z"/><path class="cls-25" d="M254.93,206.33s-41.32-39.68-18.85-73c4.32-6.4,4.38-4.09,5.4-10,5.35-31-6.56-25.07,44.07-55.14s57.24-28.51,126.1-13.68c35.51,7.66,53.07,25.38,59.72,49.47,3,10.83,3.78,23,3,36,0,0-70.42-31.08-117.34-13.59S253.62,214.16,259.52,240C261.18,247.3,254.93,206.33,254.93,206.33Z"/><path class="cls-16" d="M231.34,168.36s74.79-82,158.12-73.28c0,0-100.93-25.17-156.43,41.71l-1.86,8.51a47,47,0,0,0-.72,16.13Z"/><path class="cls-26" d="M557.85,833.34s36.44,3.15,42.73,25.14-5.66,52.15-5.66,52.15,9.33-47.83-5.66-60.83A77.77,77.77,0,0,0,557.85,833.34Z"/><path class="cls-9" d="M240.37,347.75s-94.05,7.42-124.66,47S56.62,597.7,54.62,624.34C49,699.52,216.54,820.85,216.54,820.85L259,756.91,151.82,607.2l20.92-106.83Z"/><path class="cls-18" d="M208.25,448.62c-.18,18.46-38.39,148.83-44.12,168.24l3.75-.85c4.68-16.69,35.31-125.59,42.52-157.72,6.84-30.43-14.83-58.53-14.83-58.53C211.52,433.32,208.25,448.62,208.25,448.62Z"/><polygon class="cls-18" points="167.88 616.01 164.13 616.86 258.43 757.37 260.2 756 167.88 616.01"/><path class="cls-18" d="M92.09,705.81S158.31,796,209,820.16l17.49-17.78,2.29.15-13.2,13.12L209,823.34s-33.58-20-50.09-36.41-68.05-78-68.05-78l1.24-3.07"/><polyline class="cls-5" points="254.21 761.37 289.84 786.65 274.76 832.65 218.24 810.8"/><path class="cls-5" d="M272.45,780.09l44.68-11.31s50.52,9.5,56.61,16.06,13.25,16.1.76,22.42c0,0,5.54,14.51-1.77,18.1s-15.65-1.42-15.65-1.42,9.67,11.89,1.35,17.29-11.95,1.12-11.95,1.12-.73,6.88-5.13,6.51a118.7,118.7,0,0,1-18.25-5.69s-24.63,2.6-37.9-1.33A63.33,63.33,0,0,1,261,826.42Z"/><path class="cls-8" d="M347.87,799.49a33.24,33.24,0,0,1,25.7,7.18"/><path class="cls-8" d="M340.58,820.85c6.43-1.74,12.64-.41,17.13,3.67"/><polygon class="cls-27" points="260.2 756.22 255.9 762.56 254.21 761.37 258.89 754.52 260.2 756.22"/><path class="cls-18" d="M167.27,619.18s-19.67,7.23-31,15.21c0,0,19.62-17.81,30.73-18.38Z"/><path class="cls-28" d="M377.44,294.6c-13.51-3.06-35-9.68-35-9.68s-2.29,29.07,29,36.16S413.21,301,413.21,301,391,297.66,377.44,294.6Z"/><path class="cls-29" d="M377.57,294.63c-6.42-1.45-32.05-8.45-32.05-8.45s5.18,16.87,28.41,22.13C399.11,314,409.84,301,409.84,301Z"/><path class="cls-30" d="M377.62,295.71c-6.42-1.45-25.7-7-25.7-7s5.36,9,24.62,13.36,27-1.45,27-1.45Z"/><path class="cls-28" d="M415.1,299.19c-.64-.33-4.67.13-7.8-.88-5.2-1.69-8.19-3.92-12-5.1-6.46-2-11.25-.23-14.11-.88s-6.42-4.33-13.11-5.28c-3.92-.56-13.79-1.25-19.21-2-3.26-.43-6.7-2.59-7.42-2.56-1,0-.83,7.78,35.1,15.91S416,299.65,415.1,299.19Z"/><path class="cls-31" d="M286,905.41a.61.61,0,0,1-.24.06v-.61Z"/><path class="cls-18" d="M476.82,399.32c1.26,16.24,5.06,54.81,6.66,73.64,1.63,19.26,4.19,38.12,5.21,54.82s3.89,31,5.75,43.47a167.93,167.93,0,0,0,6.89,29c2.19,6.58,3.51,10.29,3.51,10.29a13.27,13.27,0,0,1-1.27-2.56,75.63,75.63,0,0,1-3.19-7.55,153.45,153.45,0,0,1-7.64-29.07c-2.12-12.58-5.31-27-6.28-43.63s-3.17-34.87-4.71-54.31l-6.09-74.11"/></g><g class="cls-32"><path class="cls-5" d="M907.08,325.19,896.76,337.1l-18.12-14.73-5.74-11.71-22.8-17.14a101.13,101.13,0,0,0,1.07,12.16l-9.88,23.94,3.76,42.77-9.82,24.21,47,9.33L888.15,377a91.21,91.21,0,0,0,18.15-17.44c6-8.67,9-48,9-48C911.79,311,909.36,322.45,907.08,325.19Z"/><path class="cls-6" d="M871.34,334.22a4.52,4.52,0,0,1-1.64-4.36L874.24,306l14-64.38a4.47,4.47,0,0,1,5.28-3.44,4.57,4.57,0,0,1,1.75.8l28.87,21.48a4.45,4.45,0,0,1,1.69,4.56L906,352.75a4.49,4.49,0,0,1-5.4,3.33,4.44,4.44,0,0,1-1.67-.79Z"/><path class="cls-7" d="M875.33,330.66a4,4,0,0,1-1.45-3.84l4-21.55L890.12,247a3.91,3.91,0,0,1,6.16-2.32L922,263.45a3.93,3.93,0,0,1,1.5,4l-18.68,79.66a3.92,3.92,0,0,1-4.71,2.93,4.08,4.08,0,0,1-1.49-.7Z"/><path class="cls-5" d="M872.8,310.67s2.47.56,9,2.58c7.73,2.24,9.23-1.82,9.23-1.82h0a5.37,5.37,0,0,0-3.55-6.66L871.86,300l-.08-3.18s7.93.27,13.71-.23c12.09-1.06,6.63-11.05,6.63-11.05L878,284.91,884.22,274a7.74,7.74,0,0,0-1.68-10.82c-.19-.14-.38-.27-.58-.39l-24.28,23.9s-7.34,3.81-7.56,7a101.13,101.13,0,0,0,1.07,12.16Z"/><path class="cls-8" d="M889.1,313.44a11.34,11.34,0,0,1-5.94.52,60.24,60.24,0,0,1-14-3.07l-2-.67,1-.43c-2.3,4.45-3.84,8.72-5.3,11.67a13.85,13.85,0,0,1-2.73,4.52,23.17,23.17,0,0,1,1.68-5,98.37,98.37,0,0,1,4.83-12l.31-.63.73.24,1.94.63a93.58,93.58,0,0,0,13.77,3.51C886.83,313.27,889.08,313.17,889.1,313.44Z"/><path class="cls-8" d="M872.05,300.54c0,.2-1.32-.42-3.45-.9A14.12,14.12,0,0,0,854.19,304c-1.42,1.54-2,2.73-2.26,2.62s-.13-1.47,1.27-3.48a13.14,13.14,0,0,1,7-5.19,13.41,13.41,0,0,1,8.75.38C871.17,299.34,872.17,300.37,872.05,300.54Z"/><path class="cls-8" d="M891.58,285.22c0,.5-7.37-.55-16.31-.2s-16.17,1.81-16.31,1.25a40,40,0,0,1,16.23-3.06A41.4,41.4,0,0,1,891.58,285.22Z"/><path class="cls-8" d="M878.56,370.46c-.27,0,.15-2.5-.06-6.46a31.85,31.85,0,0,0-14.8-25.61c-3.36-2.16-5.71-2.87-5.64-3.28a14.4,14.4,0,0,1,6.25,2.21A29.68,29.68,0,0,1,879.74,364,14.22,14.22,0,0,1,878.56,370.46Z"/><path class="cls-33" d="M970.83,358.32l-41.76,10.4A39.73,39.73,0,0,0,918,374.23c-12.57,8.89-27.75,21.53-32.71,35.72l-2.71,52.66,1.67-66-54.11-14.14s-29.26,89.42-34.27,138.84c-3.86,38-9.21,89.53,21,94.51,52.81,22.23,84-27.67,104.32-58.81l27-68.88Z"/><path class="cls-34" d="M884.24,396.65c-1.14,14.57-1.09,33.28-2.52,50.18-1.46,17.29-2.79,33.82-3.7,48.8s-1.68,28.48-3.35,39.68a152.2,152.2,0,0,1-6.18,26c-2,5.9-3.16,9.24-3.16,9.24a13.35,13.35,0,0,0,1.15-2.3,71.68,71.68,0,0,0,2.86-6.78,138.25,138.25,0,0,0,6.85-26.09c1.91-11.3,3-24.85,3.83-39.83s2.47-31.26,3.85-48.7l1.41-50.24"/><path class="cls-5" d="M856.34,801.68s-43.36,0-66.75,34c-13.75,20-8.93,55.55-9.21,82.49-.38,36.63,23.8,294.52,23.8,294.52l48.21-11.72,43.87-254.13-1.07-43,176.86-14.13s16.12-52.47-23.52-93.95C1043.68,790.42,856.34,801.68,856.34,801.68Z"/><path class="cls-10" d="M1075.19,911.42c48.91,0,97.82-5.85,146.73-6.09,10.61-.05,20.38,2.17,21.2,11.6,2.14,24.31,5.14,50.59-31.66,48-2.8-.2-5.7.3-8.45-.09-12.81-1.78-14.79,3.51-13.1,12.84,5.46,30.22,10.47,53.32,15.48,83.6,11.8,71.2,23.68,142.39,35.11,213.63,3.15,19.65,2.49,19.48-22.06,19.1-7.57-.11-10.76-2.06-11.81-8.58-11.28-70.07-23-140.09-34.18-210.17-1.31-8.18-4.35-11.37-14.82-11.29q-81.83.69-163.66,0c-10.74-.09-14.41,2.64-15.85,11.69q-15.82,99.81-32.89,199.48c-3.3,19.51-3.79,19-27.61,18.74-9.54-.12-10.63-2.92-9.43-10,17.63-104.18,34.86-201.24,52.53-305.41,1.81-10.68-1-15.79-14.78-13.92-4.58.61-9.38.1-14.09.09-20.87,0-25-10.84-25-29.24,0-20,3.8-29.76,24.43-29.77q72,0,143.91,0Zm80.06,128.88c10.57.23,12.74-2.91,11.25-11.06-4.29-23.52-8.15-30.18-11.77-53.79-1.21-7.83-4.17-11.26-14.88-11.09-43.2.66-86.43.58-129.63,0-9.88-.13-12.93,3-14.08,10.39-3.79,24.39-7.78,31.83-12.17,56.15-1.42,7.86,2.31,9.4,10.65,9.29,27.23-.33,54.48-.12,81.72-.12C1102.65,1040.11,1129,1039.72,1155.25,1040.3Z"/><path class="cls-11" d="M1205.29,1061.38l5.46,33c-11.42,2.24-22.78,4.88-34.12,7.63q-2.14-13.31-4.29-26.62c-1.31-8.18-4.35-11.37-14.82-11.29q-81.82.69-163.66,0c-10.74-.09-14.41,2.65-15.84,11.69-1.37,8.61-2.77,17.22-4.15,25.83a312,312,0,0,1-32-13.62c6.23-36,12.48-72.26,18.78-109.42a20.58,20.58,0,0,0,.06-8.65q11.19.74,22.4,1.16,6.87.25,13.75.41a22.58,22.58,0,0,0-.79,3.41c-3.79,24.39-7.78,31.83-12.16,56.15-1.42,7.87,2.3,9.4,10.64,9.29,27.24-.33,54.48-.12,81.73-.12,26.3,0,52.62-.39,78.9.19,10.57.24,12.74-2.91,11.26-11.06-4.29-23.52-8.16-30.18-11.78-53.79-.48-3.13-1.26-5.54-2.68-7.32q19.43-.6,38.86-.87c-1.76,2.28-1.82,5.86-1,10.42C1195.27,1008,1200.27,1031.11,1205.29,1061.38Z"/><path class="cls-11" d="M1243.56,921.89s-156.24,28.73-223.6,20-112.77-16.12-110-26.55,50.41-32.81,98.42-34.39S1188,891.47,1188,891.47s44.18,7.43,48.81,13.86S1243.56,921.89,1243.56,921.89Z"/><path class="cls-5" d="M901,811.81s-43.36,0-66.76,34c-13.74,20-8.92,55.55-9.2,82.49-.38,36.63,23.79,294.52,23.79,294.52l45.73-13.13,46.36-252.72-1.07-43,176.86-14.14s16.12-52.46-23.52-93.94C1088.35,800.54,901,811.81,901,811.81Z"/><path class="cls-34" d="M1190.62,679.25s75.51,105.71,29.19,185.14c-22.07,37.83-88.12,37.8-88.12,37.8L1064,825.05V697.47Z"/><path class="cls-34" d="M731.89,814.3c3.43,90.72,19.27,244.08,35.57,336.69,0,0,87,21.39,98.72,1.09,0,0,8.1-174.47,47-285.67,34.24-97.92,242-105.4,215.64-114.27-41.53-14-293.59-56.51-345-40.11C749.61,722.91,729.63,754.15,731.89,814.3Z"/><path class="cls-34" d="M788.6,852.28A175.62,175.62,0,0,0,786,834.87a225.84,225.84,0,0,0-11.27-38.09,245.08,245.08,0,0,0-18-36.89c-4.79-8,23.68-14.68,17.84-22,129.78-19,362.25,7.51,362.25,7.51s117.68,30.74,89.1,106.75C1188.07,952.83,897.87,916.34,801.17,885,800.7,884.89,792.54,898.42,788.6,852.28Z"/><path class="cls-34" d="M777.05,740.16a186.27,186.27,0,0,1,34.89,5.05,78.19,78.19,0,0,1-1.71-15.86q3.59-2.6,7.51-5.28A228.78,228.78,0,0,1,849,742.15a269.68,269.68,0,0,1,32.48,26.15A232.59,232.59,0,0,1,908.16,798c2.26,3,34.65,6.08,36.71,9.22-.36,0-7.62,18.06-8,18.09,29.32,49,18.25-7.16,21.13,80,2.52,76.5-24.24,201.25-19.59,241.89-22.69,21.72-120.78,12.55-120.78,12.55C804.18,1041.68,777.05,740.16,777.05,740.16Z"/><path class="cls-35" d="M939.42,386.56a136,136,0,0,1,7.22,34.59A135.83,135.83,0,0,1,939.42,386.56Z"/><path class="cls-33" d="M899.12,487.5,930.23,490l71-136.57s-62.64,5.93-72.62,26.74"/><path class="cls-33" d="M962.22,722c9,.46,86,41.44,95.44,41.89,27.27,1.3,96-3,120.65-15.25,10.8-5.36,44.25-18.72,40.6-34.51-10.2-28.46-39.4-62.7-42-92.78-7.14-82.87-25.25-197-34.76-233-8-30.41-32.89-31.86-59.61-44.83-.38,7.29-15.82,15.39-18.73,17.15-13.7,8.28-22.4-9.15-27.07-7.75-8.81,2.65-21.4,8.65-30.6,8.69s-14.91,7-20.93.05c3.26,3.77-33,51.47-36.65,58.18-11.59,21.08-23.94,44.3-27.2,68.47-1.71,12.42-39.55,89.62,18.41,106.64,14.43,62.93-3.29,98-3.68,112C936.47,712.76,930.87,720.37,962.22,722Z"/><line class="cls-36" x1="1122.24" y1="539.15" x2="1120.55" y2="538.51"/><path class="cls-33" d="M1088.61,339.84s74,1.75,98.81,35.36,67.06,186.34,68.25,208.6c3.37,62.84-154.39,155.85-154.39,155.85l-33.07-55.77,90.91-121.35L1143.57,473Z"/><path class="cls-34" d="M1116.85,424.74c1.25,15.35,43.28,128.09,49.22,143.91l-3.18-.48c-4.9-13.62-39.32-108.95-47.26-135.26-7.52-24.92,8.83-49.62,8.83-49.62C1113.2,412.19,1116.85,424.74,1116.85,424.74Z"/><polygon class="cls-34" points="1163.04 567.58 1166.07 568.65 1052.29 702.42 1050.95 701.12 1163.04 567.58"/><path class="cls-34" d="M1087,744.28c29-8.91,87.12-52.3,110.15-73l.09.3a6.9,6.9,0,0,0,.4.92l.12.22C1182.11,686.43,1156,706.39,1147,713c-15.64,11.51-60.36,33.91-60.36,33.91l-1-1.91Z"/><polyline class="cls-5" points="1058.54 708.33 1038.98 723.34 1062.59 753.99 1084.52 742.59"/><path class="cls-34" d="M1163.06,570.31s17,4,27.27,9.39c0,0-18.09-12.73-27.35-12.05Z"/><path class="cls-5" d="M1056,257.48s-1.59,45.31,13.37,74.46c2.08,4.07,39.12,9.58,39.12,9.58L1052,369.89c-24.88,8.36-45.91,8.64-68.33,3.24L954,362.92s24.88-8.31,25.41-13.66-7.8-44.58-7.8-44.58"/><path class="cls-8" d="M978.51,339.55s8.57-6.57,14.71-9.07,17-3.34,43.39-32c0,0-5.06,32.13-41.6,43,0,0-9.41,3.1-15.92,2.29Z"/><path class="cls-5" d="M924,152.22a4.4,4.4,0,0,1-.3.72l.37-.37Zm-15.79,7.19.06.29c.22-.27.44-.53.62-.79C908.8,158.56,908.19,159.41,908.19,159.41Zm147.55,105,.88-6.14c9.41,9.14,20.79-1.19,19.06-16.13,2.81-8.08,4.16-33.64-3.2-40.27l-.92-1c-4.85-2.61-12.73-2.8-15,3.42-.63,2.65.76,5.61.12,8.26-.56,3-3.64,9-5,11.82,0,0-4.78-13.78-5.74-20.42s-9.37-24.72-22.94-31.66c0,0-4.36-23.23-11-29.06l-2-.31c-1.13.23-1.81.73-2.94,1-.07-.34.23-.77.09-1.46-1.74,1.08-3.32,1-4.82,1.35.3-.42,1-.92.92-1.27a20,20,0,0,1-4.52.92c.3-.42.92-1.26.85-1.61-1.75,1.08-3,.62-4.52.93a2.68,2.68,0,0,0,.47-1.54c-1.37,1-2.94,1-4.45,1.27.31-.43.54-1.19.85-1.61-1.74,1.07-3,.61-4.52.92-.37.07.61-.85.54-1.19a14.38,14.38,0,0,1-3.69,1.11c-.07-.34.61-.84.54-1.19-2.12,1.15-3.39.69-4.89,1l.84-1.61a5.45,5.45,0,0,1-4.37,1.61c.3-.42.91-1.26.84-1.61a7.58,7.58,0,0,1-5.88,1.92c.38-.08.92-1.27.85-1.61-1.6,1.77-3.17,1.73-5.06,2.11.31-.42.54-1.19,1.16-2-2,1.84-4.47,3.07-7,2.49.38-.07.55-1.19.48-1.53-1.23,1.69,1.25-.62-.71-.58,0,0-4,2.27-4.12,1.92-1.29,1.35,2.78-6.67.9-6.28.23-.77-10.68,2.85-10.06,2-1.6,1.77-1.36,1-3.69,1.09,0,0-7,5.74-6.68,5.31-1.52,2.12-2.67.84-5,1,.31-.42,1.66,1.17,2,.75-1.22,1.69-1.08-.14-3,.25-.07-.35-6.61-1-6.68-1.34-1.67,1.43-1,1.45-3.29,1.91-.07-.34-.63,4.1-.33,3.67-1.22,1.69-1.38.54-3.34.58l-1.6,1.67c-1.53,2.11.9.83-1.43,1-.05-.24,8.72-.66,9-1.18a14.06,14.06,0,0,1-4.41,3.13c-.07-.35.17-1.12.1-1.46a7.73,7.73,0,0,1-5.6,3.3c.37-.08.61-.84.54-1.19-1.53,2.11-3.58,3.61-6,3v-.05a12.11,12.11,0,0,1-4.76,3.55,1.5,1.5,0,0,1,.47-1.54l-1.51.31c-1.32,3.15-2.7,5.95-2.75,9.56,0,0-9.13,22.48-6.14,35.19s9.76,34,11.27,39.48a114.67,114.67,0,0,1,2.85,17.45c1,11.41,1.52,14.37,6.57,25,4.88,10.27,8.76,15.51,16.83,23.58,8.41,8.41,19.31,15,29.69,21.49,6.84,4.29,15.78,7.07,24.22,5.75,23.55-3.66,43.46-24.2,55.28-42.25"/><path class="cls-37" d="M899.72,185.43c5-22,26.14-37.91,72.56-53.43s87.16-5.7,87.16-5.7C1023.39,62.65,954.7,79,939.28,82.15s-82.73,79.47-45.18,130.67l2.37,5.08S898.81,189.43,899.72,185.43Z"/><path class="cls-37" d="M1068.78,109.65s-3-43.88-37.12-51.85c-45.57-10.66-104.11-7.51-115.52,40.53Z"/><path class="cls-38" d="M1085.64,214.15c2.74-4.18-.2-13.87,2-18.38,11.32-23.61,2.29-42.63-6-53.31-3.64-4.65-1.86-14.48-3-19-6.15-23.53-9-23.71-49.4-40.91-32.85-14-63.89-6.74-81.77-2.09-28.62,7.45-41,11.87-46.94,34.45-.77,3,1.09,4.82.64,8.27-.63,4.88-7.68,6.83-7.69,12.85,0,0,40.19,7.36,75.55,18.07s105.53,65.8,107.3,86.24C1076.26,241,1082.61,218.77,1085.64,214.15Z"/><path class="cls-37" d="M1092.24,165.79s-68.35-56.23-128.18-44.62c0,0,74.39-25.58,119.55,22.67l1.25,2a53.55,53.55,0,0,1,6.89,17.45Z"/><path class="cls-37" d="M900.39,124.15l3.74-2.33a106.07,106.07,0,0,1,28-12.32l16.56-4.58s-42,1.18-48.94,13.29Z"/><path class="cls-39" d="M1062.43,253.33a7.29,7.29,0,0,1,7.7,5.7,7.2,7.2,0,0,1-.85,5.15,5.76,5.76,0,0,1-.63.92c-.07.09.07-.07,0,0l-.18.16a9.26,9.26,0,0,1-1.24.92,6.54,6.54,0,0,1-6,.38,1.39,1.39,0,0,0-1.14.17c-.2.11-.52.41-.16.56a9.6,9.6,0,0,0,10.24-2.19,7.66,7.66,0,0,0-.75-10.54,8.7,8.7,0,0,0-6.72-2c-.23,0-.91.2-.92.51s.44.3.68.28Z"/><path class="cls-20" d="M1040.44,197.94l8.86,33.2,8.79-17.25S1045.51,202.45,1040.44,197.94Z"/><path class="cls-40" d="M1057.85,229.06c1.1-.22,2.65-.45,3,.94a9.16,9.16,0,0,1-.32,3.6c-.47,2.47-1.18,5.8,1.25,7.51,3.08,2.15,5.67-2.64,6.42-4.92a15.63,15.63,0,0,0,.2-9.4c-1-3.3-2.67-7.35-6.39-8.15-.79-.17-1.63.94-.56,1.17,3,.64,4.44,4.48,5.23,7.05a15,15,0,0,1,.15,8.57c-.45,1.62-1.22,3.66-2.63,4.7-1,.73-1.91-.46-2.25-1.37-.85-2.35.33-5,.56-7.42a3.34,3.34,0,0,0-.75-3c-1.12-1-2.88-.67-4.2-.41-1,.19-.71,1.29.3,1.1Z"/><path class="cls-37" d="M1057.75,178.47s25.67,17.58,29.07,25.93l.79-8.63A45,45,0,0,0,1057.75,178.47Z"/><path class="cls-19" d="M956.69,275.52a11,11,0,0,0,9.67-2.61c.54-.51,2.69-.56,1.93.15-3.23,3-9.26,4.48-13.22,3.35-.4-.12-.39-.4,0-.64a2.44,2.44,0,0,1,1.59-.25"/><path class="cls-19" d="M969.33,272a17.57,17.57,0,0,1,5.74-2.73,1.38,1.38,0,0,1,1,.1c.21.12.29.32.09.5a6.71,6.71,0,0,1-3.17,1.43,1.28,1.28,0,0,1-1.1-.18c-.24-.25.06-.5.34-.55a5.25,5.25,0,0,0,2.55-1.17l1.07.6a16,16,0,0,0-5.12,2.47,1.32,1.32,0,0,1-1.13.1c-.25-.08-.55-.34-.25-.57"/><path class="cls-19" d="M977.67,270.59c2.43-.56,5.08-2.21,5.91-4.28,1.25-3.13-1.33-7.16-4.74-8.3-.37-.12-.25-.4.08-.54a2,2,0,0,1,1.35,0c3,1,5.43,4.23,5.56,6.9.12,2.5-1.87,4.66-4.65,6a13.25,13.25,0,0,1-2.63.93c-.37.08-1.06.11-1.3-.14s.07-.45.42-.53"/><path class="cls-19" d="M952,275.2a.32.32,0,0,0-.4-.39,3,3,0,0,1-2-.23l-.49.92a8.77,8.77,0,0,1,4.11.57.69.69,0,0,0,.75-.28c.13-.16.24-.5,0-.61"/><path class="cls-19" d="M953.88,275.18a9.71,9.71,0,0,0-4.58-.63.86.86,0,0,0-.6.43.34.34,0,0,0,.11.49"/><path class="cls-19" d="M947,276.57a5.1,5.1,0,0,1-4.84-2.08,7.25,7.25,0,0,1,.31-8.19.3.3,0,0,0-.23-.49,1,1,0,0,0-.79.45,8.12,8.12,0,0,0-1.23,7.15,5.69,5.69,0,0,0,4.64,4.06,6,6,0,0,0,1.84,0c.24,0,.65-.24.71-.55s-.19-.4-.41-.36"/><path class="cls-20" d="M916,234.46c-2.31-.65-4.82.78-5.94,2.27a5.89,5.89,0,0,0-.82,2.8,5.56,5.56,0,0,0,2.29,4.69,5.18,5.18,0,0,0,6-.17A5.71,5.71,0,0,0,919,237a5,5,0,0,0-3-2.53"/><path class="cls-20" d="M941.29,235.82s-11.81-5.93-17.12-5.39c-7.74.8-16.23,6.92-18.15,11.23,0,0,11.09-8.82,16.56-9.22C927.81,232.06,941.29,235.82,941.29,235.82Z"/><path class="cls-20" d="M982.53,220.85c1.87-1.51,5.29-1.9,6.9-1a5.25,5.25,0,0,1,2.1,2.14,5.59,5.59,0,0,1-.27,5.22,5.18,5.18,0,0,1-5.6,2.2,5.7,5.7,0,0,1-4.08-5.94c0-.43-.54-1.14,1-2.36"/><path class="cls-20" d="M973.92,228.09s10-9.66,15.62-11c8.19-1.92,19,.9,22.5,4.29,0,0-14.43-4.46-20.17-3C986.38,219.9,973.92,228.09,973.92,228.09Z"/><path class="cls-20" d="M924.58,205.1c.91,1.28,1.81,2.57,2.72,3.86l2.05,2.95c-3.86,1.49-7,2.94-9.41,4.08-5,2.42-7.55,3.68-9.84,5.95a30.62,30.62,0,0,0-4.62,6.09,19.85,19.85,0,0,0-2,3.87c-1.07,3.15-.7,5.58-1.17,5.68s-1-1.87-1.07-2.07a18.37,18.37,0,0,1,.09-9.83,21.47,21.47,0,0,1,4.07-7c2.11-2.48,8.89-8,19.14-13.54"/><path class="cls-20" d="M970.57,195.82c-.06,1.57-.11,3.14-.16,4.72,0,1.2-.08,2.4-.11,3.6,4.39-.84,8.15-1.36,11-1.68,6-.68,9.05-1,12.5-.33a35.13,35.13,0,0,1,7.82,2.61,21.6,21.6,0,0,1,4.09,2.19c2.86,2.06,4,4.31,4.46,4.14s-.2-2.12-.27-2.32a18.61,18.61,0,0,0-5.93-8.21,24.25,24.25,0,0,0-7.91-3.71c-3.39-.94-12.84-1.9-25.48-1"/><path class="cls-41" d="M808.39,726.16s-37.18,3.4-40.84,33.87,3.66,44.65,3.66,44.65c-1.86-22.48-2.63-54.77,18.47-68.46A124.28,124.28,0,0,1,803.73,728C805,727.39,806.92,726.16,808.39,726.16Z"/><path class="cls-29" d="M964.86,289.6c9.66-1.83,32-.31,37,2.41,0,0-9.67,9.28-32.06,13.52s-27.46-2.25-27.46-2.25S952.57,291.93,964.86,289.6Z"/><path class="cls-42" d="M991.67,289s-11.6,1.79-20.68,3.9-20.26,5.64-20.26,5.64-3-6.06,13.52-9.9S991.67,289,991.67,289Z"/><path class="cls-28" d="M969.46,302.79c10.07-3.82,19.85-9.92,32.13-12,0,0-.35,13.89-26.44,20s-32.55-6.22-32.55-6.22C954.55,301,958.74,303.82,969.46,302.79Z"/><path class="cls-28" d="M952.07,287.67c5.39-1.66,9.32-.51,11.7-1.07s5.41-3.32,11-4.22c5.22-.84,29.69,5.93,27.62,8s-20.92-2.66-37.42,1.18-20.38,13.91-23.17,12.94S947,289.22,952.07,287.67Z"/><path class="cls-8" d="M948.72,197.1s-7.94,9.12,3.71,12.32C952.43,209.42,947,203.6,948.72,197.1Z"/><path class="cls-8" d="M934.4,201.42s11.65,3.21,3.71,12.32C938.11,213.74,939.38,205.91,934.4,201.42Z"/><path class="cls-34" d="M940.44,595.56a7.14,7.14,0,0,0-2.71-1.88c-8.16-3.65-15.92-8.69-21.31-15.82a38.68,38.68,0,0,1-7.59-20.08,226.88,226.88,0,0,1,.28-30c1.54-18.54,2.13-31,3.12-49.54.6-11.11,2.28-22.69,3.14-33.78-3,18.2-4.3,32.4-5.4,55.33-1,19.85-4.23,39.51-3.49,59.44.15,4.25.53,8.58,2.22,12.48,2.36,5.47,7,9.55,11.83,13.12a120.36,120.36,0,0,0,20.37,12.41A2.12,2.12,0,0,0,940.44,595.56Z"/><path class="cls-5" d="M963.61,776c-3.12-1.39-4.73-2-5.37-5.64-.25-1.41.45-3,.83-4.6l28.81-27c-6.06-2.79-18.53,8.11-23.94,4.22s1.43-6.88,2.62-8,24.12-13.74,24.12-13.74,23-3.91,28.56-3.5,20.94,3.84,20.94,3.84l11.31.68s18,11.63,27,21.94c.64.75-20.36,11.76-26.4,17.89s-21.37,18.18-21.37,18.18-28.61,8-32.59,7.28-9.67-6.43-9.67-6.43a42.37,42.37,0,0,0-9.15.32c-11.58-.71-9.75-6.41-9.75-6.41l-3,.71C966.32,775.8,963.85,775.83,963.61,776Z"/><path class="cls-43" d="M984.83,742a94.77,94.77,0,0,0,10.63-7.87,52.73,52.73,0,0,0,10.18-8.55,55.57,55.57,0,0,0-11.19,7.22A37.58,37.58,0,0,0,984.83,742Z"/><path class="cls-43" d="M1003.61,753.05c-.23-.48-8.09,3.65-16.77,10-4.37,3.15-8.27,6.11-11.09,8.21a25.93,25.93,0,0,0-4.5,3.58,16.47,16.47,0,0,0,5.16-2.63c3-1.85,7-4.65,11.39-7.8C996.49,758.06,1003.8,753.4,1003.61,753.05Z"/><path class="cls-43" d="M1014.05,764.3c-.32-.35-5.47,4.12-12.48,8.68s-13.19,7.51-13.13,7.85a40.65,40.65,0,0,0,13.91-6.58A41.11,41.11,0,0,0,1014.05,764.3Z"/><polygon class="cls-34" points="1052.14 699.7 1057.74 707.69 1056.26 709.09 1050.36 701.63 1052.14 699.7"/></g></g></svg>