<svg id="Layer_1" data-name="Layer 1" xmlns="http://www.w3.org/2000/svg" viewBox="0 0 205.83 138.61"><defs><style>.cls-1{fill:#a66e53;}.cls-2{fill:#af6c5d;}.cls-13,.cls-3{fill:#4f2e25;}.cls-3{stroke:#4f2e25;stroke-miterlimit:10;stroke-width:0.27px;}.cls-18,.cls-4{fill:#df8c26;}.cls-4{opacity:0.37;}.cls-5{fill:#dfa826;}.cls-6{fill:#273339;}.cls-7{fill:#475c66;}.cls-8{fill:#98722b;}.cls-9{fill:#fff;}.cls-10{fill:#d36253;}.cls-11{fill:#242f34;}.cls-12{fill:#642b11;}.cls-14{fill:#ce8d2a;}.cls-15{fill:#010101;}.cls-16{fill:#13110f;}.cls-17{fill:#b15e27;}.cls-19{fill:#653c29;}.cls-20{fill:#31160e;}.cls-21{fill:#f1eef7;}.cls-22{fill:#593526;}</style></defs><path class="cls-1" d="M52.42,71.44l-3.05-5.53S48.08,58,47.42,57s-3.05-5.72-3.05-5.72L37,48a1.91,1.91,0,0,0-1.2,1.77s-2.34.8-2.15,2.56a1.41,1.41,0,0,0-1.5,1.3,1.32,1.32,0,0,0,.08.59,6.73,6.73,0,0,0,.51,1.49c-.29.22-1.94,1.5-1.55,2.44A16.2,16.2,0,0,0,33.82,62a1.71,1.71,0,0,0,1.56.43h0l1.68,2.27s2.34,3.92,4.14,5.43l1.21.83,2.73,5.51A15.47,15.47,0,0,0,52.42,71.44Z"/><path class="cls-2" d="M35.9,53.84a10.81,10.81,0,0,1-.12-4.35l2.42.34a13.73,13.73,0,0,1,.07,2.22,2.66,2.66,0,0,1-.91,2.21,1,1,0,0,1-1.27.08A1.13,1.13,0,0,1,35.9,53.84Z"/><path class="cls-3" d="M38.2,49.83a1.07,1.07,0,0,1,.09.43,9.31,9.31,0,0,1,0,1.18c0,.26,0,.52,0,.83a3.3,3.3,0,0,1-.15.94,2.47,2.47,0,0,1-.52.92,1.45,1.45,0,0,1-1,.5.77.77,0,0,1-.57-.23,1.26,1.26,0,0,1-.25-.52,7.21,7.21,0,0,1-.2-1,10.24,10.24,0,0,1-.05-1.75c0-.5.1-.87.12-1.18a3.15,3.15,0,0,1,.09-.42,1.25,1.25,0,0,1,0,.43c0,.28-.05.68-.07,1.17a12.46,12.46,0,0,0,.09,1.73c.05.34.12.67.2,1a1.05,1.05,0,0,0,.22.45.54.54,0,0,0,.44.18,1.28,1.28,0,0,0,.9-.44,2.26,2.26,0,0,0,.5-.86,2.74,2.74,0,0,0,.16-.89c0-.29,0-.57,0-.84,0-.5,0-.89,0-1.17S38.19,49.84,38.2,49.83Z"/><path class="cls-3" d="M36.68,54.55a.36.36,0,0,1,0,.11,1.42,1.42,0,0,1,.11.33A3.06,3.06,0,0,1,37,56.26a4,4,0,0,1-.54,1.86,1.45,1.45,0,0,1-.93.69,1.09,1.09,0,0,1-.64-.08,1,1,0,0,1-.44-.48,5.4,5.4,0,0,1-.31-1.18c-.07-.39-.14-.79-.18-1.11-.08-.71-.16-1.34-.23-1.88s-.13-1-.18-1.27a1.84,1.84,0,0,1-.06-.47,3,3,0,0,1,.15.45,8.07,8.07,0,0,1,.23,1.26c.09.54.17,1.18.27,1.88.06.35.12.72.19,1.1a5,5,0,0,0,.3,1.14.8.8,0,0,0,.37.4.77.77,0,0,0,.52.06,1.29,1.29,0,0,0,.83-.61A4,4,0,0,0,37,56.27,3.79,3.79,0,0,0,36.8,55,3.59,3.59,0,0,1,36.68,54.55Z"/><path class="cls-3" d="M36.71,57.73a.57.57,0,0,1,.11.11,2,2,0,0,1,.24.33,4.59,4.59,0,0,1,.63,1.39,3.37,3.37,0,0,1-.06,2.26,1.82,1.82,0,0,1-.93,1,1,1,0,0,1-.76,0,1.38,1.38,0,0,1-.55-.52,18.62,18.62,0,0,1-1.1-2.56l-.73-2.14A11,11,0,0,0,33,56.17a4.72,4.72,0,0,1-.18-.53l.05.14c0,.09.11.2.18.37s.37.8.6,1.41.5,1.32.8,2.1a20.21,20.21,0,0,0,1.1,2.52,1.15,1.15,0,0,0,.48.47.79.79,0,0,0,.62,0,1.7,1.7,0,0,0,.82-.89,3.31,3.31,0,0,0,.1-2.15A6.39,6.39,0,0,0,36.71,57.73Z"/><path class="cls-4" d="M76.38,25.06,76,24.78l0,.44a1.84,1.84,0,0,1-.4.94l-.28.34.44.05a1.76,1.76,0,0,1,1,.4l.33.27,0-.43a1.84,1.84,0,0,1,.4-.95l.27-.33-.43-.05A1.84,1.84,0,0,1,76.38,25.06Z"/><path class="cls-4" d="M85.68,17l-.19-.16,0,.24a1.07,1.07,0,0,1-.23.56l-.16.19.25,0a1,1,0,0,1,.55.23l.2.16,0-.25a1.11,1.11,0,0,1,.22-.55l.16-.2-.24,0A1.1,1.1,0,0,1,85.68,17Z"/><path class="cls-4" d="M82.28,31.94l-.2-.16,0,.25a1.11,1.11,0,0,1-.22.55l-.16.2.24,0a1,1,0,0,1,.56.23l.19.16,0-.25a1,1,0,0,1,.23-.55l.16-.2-.25,0A1,1,0,0,1,82.28,31.94Z"/><path class="cls-4" d="M19.77,35.51l-.32-.3-.08.43a1.85,1.85,0,0,1-.47.91l-.3.32L19,37a1.83,1.83,0,0,1,.92.46l.3.3.09-.42a1.89,1.89,0,0,1,.47-.92l.3-.31L20.68,36A1.9,1.9,0,0,1,19.77,35.51Z"/><path class="cls-4" d="M16.41,21.09l-.53-.5-.13.72a3.15,3.15,0,0,1-.8,1.53l-.5.53.72.13a3,3,0,0,1,1.53.8l.53.5.14-.72a3,3,0,0,1,.79-1.53l.52-.49L18,21.92A3.05,3.05,0,0,1,16.41,21.09Z"/><path class="cls-4" d="M74.19,12.52l-.56-.46-.09.73a2.91,2.91,0,0,1-.67,1.58l-.46.57.73.08a3.06,3.06,0,0,1,1.59.67l.57.46.08-.73a3.06,3.06,0,0,1,.67-1.58l.46-.57-.72-.08A3.13,3.13,0,0,1,74.19,12.52Z"/><path class="cls-4" d="M69.13,56.86,69,56.22l-.47.43a2.8,2.8,0,0,1-1.36.66l-.64.11.44.47a2.79,2.79,0,0,1,.67,1.38l.11.65.48-.44a2.77,2.77,0,0,1,1.33-.62l.65-.11-.44-.48A2.7,2.7,0,0,1,69.13,56.86Z"/><path class="cls-5" d="M69.1,34.27c1.54.75,3.1,1.44,4.63,2.26a5.07,5.07,0,0,1,2.7,3.34,5.51,5.51,0,0,1-.92,4.33C73,48.42,69.4,52.54,64.57,54a13.53,13.53,0,0,1-9.91-1,1.09,1.09,0,0,1,1-2,11.34,11.34,0,0,0,7.52,1.07A13.13,13.13,0,0,0,68.88,49,24.93,24.93,0,0,0,73,44.19a7.54,7.54,0,0,0,1.42-2.79,2.87,2.87,0,0,0-1.6-2.92c-1.52-.79-3.09-1.51-4.63-2.26a1.07,1.07,0,0,1-.43-1.47,1.08,1.08,0,0,1,1.37-.47Z"/><path class="cls-5" d="M38.77,21.68l-4.36-2.12a3.1,3.1,0,0,0-2.69-.2c-1.17.52-1.55,1.66-1.94,2.76-1.43,3.93-2.31,8.54-.82,12.57a11.22,11.22,0,0,0,5.8,6.05,1.1,1.1,0,0,1-.94,2,13.72,13.72,0,0,1-6.45-6.25,15.39,15.39,0,0,1-1.26-7.75,27.74,27.74,0,0,1,1.59-7.15,7.23,7.23,0,0,1,2.09-3.52,5,5,0,0,1,4.53-.85,39.9,39.9,0,0,1,5.41,2.56,1.08,1.08,0,0,1-1,1.91Z"/><path class="cls-5" d="M37.13,55.86l2.72.62h0l.06.05.06,0h0l2.22,1.8a27.65,27.65,0,0,0-1.92,9.6l-4.73-2.3-.13-.07-4.73-2.3A27.63,27.63,0,0,0,37.13,55.86Z"/><rect class="cls-5" x="38.45" y="50.16" width="3.63" height="11.36" rx="1.79" transform="translate(-27.57 67.56) rotate(-64.01)"/><path class="cls-5" d="M40,14.57l16.41,8,.87.42,15.51,7.56c0,.38-14.17,33.45-32,24.07h0C22.39,46.34,39.77,14.85,40,14.57Z"/><path class="cls-6" d="M35.57,55.55s1.64.85,3.69,1.85S43,59.19,43,59.16s-1.65-.82-3.67-1.82S35.59,55.55,35.57,55.55Z"/><path class="cls-6" d="M37,52.24s1.77.91,4,2,4,2,4,1.91-1.77-.91-4-2S37,52.22,37,52.24Z"/><path class="cls-6" d="M30.81,61.48S33,62.61,35.75,64s5,2.35,5,2.35-2.19-1.13-4.94-2.48S30.82,61.46,30.81,61.48Z"/><path class="cls-7" d="M40,14.57l0,.08.2.19.8.72.58.52.7.59c.52.42,1.08.92,1.75,1.42.33.26.68.52,1,.81s.76.57,1.13.84l.61.44.31.22.31.22,1.35.89a67.4,67.4,0,0,0,6.23,3.58,71.19,71.19,0,0,0,6.6,2.83l1.52.53.37.13.36.11.73.19c.48.14.94.29,1.35.37l1.27.33c.8.23,1.54.38,2.18.53l.91.2.76.14,1.06.19.27.05h.1l-.09,0-.28-.06-1-.21-.76-.14-.91-.21c-.64-.15-1.38-.3-2.19-.54L66,29.18l-1.34-.38-.71-.22-.37-.11-.37-.13-1.51-.53A67.25,67.25,0,0,1,55.11,25a69.48,69.48,0,0,1-6.23-3.55l-1.31-.89-.33-.21-.31-.23-.61-.44c-.39-.28-.79-.56-1.12-.83l-1-.8c-.67-.5-1.24-1-1.75-1.41L41.7,16l-.58-.51-.81-.71-.22-.18Z"/><polygon class="cls-8" points="52.17 30.62 47.73 34.06 42.38 32.34 44.28 37.63 41 42.19 46.61 42.02 49.93 46.54 51.5 41.15 56.84 39.4 52.2 36.23 52.17 30.62"/><path class="cls-7" d="M40,14.57l-.05.09-.15.27c-.13.23-.32.57-.56,1-.48.9-1.15,2.22-1.9,3.88s-1.6,3.66-2.38,5.94a53.63,53.63,0,0,0-2,7.58,34.08,34.08,0,0,0-.59,7.81,22.92,22.92,0,0,0,.44,3.4l.09.39.12.36.13.37.12.35.47,1.36A14.18,14.18,0,0,0,36,51.07c.33.38.6.67.79.86l.23.22.07.06a.46.46,0,0,0-.07-.07c0-.06-.12-.13-.22-.22s-.44-.48-.77-.87a14,14,0,0,1-2.21-3.69A13.25,13.25,0,0,1,33.33,46l-.12-.36-.13-.36L33,44.93l-.08-.39a22.77,22.77,0,0,1-.43-3.39A33.82,33.82,0,0,1,33,33.37a53,53,0,0,1,2-7.56c.78-2.28,1.62-4.29,2.36-6A40.73,40.73,0,0,1,39.32,16c.23-.46.42-.81.55-1l.14-.26Z"/><path class="cls-9" d="M47.33,54.58l.08,0,.25.07a7.79,7.79,0,0,0,1,.12,7.07,7.07,0,0,0,1.52-.16A9.44,9.44,0,0,0,52.09,54a16.3,16.3,0,0,0,2.14-1.24l1.12-.79,1.16-.9a36.78,36.78,0,0,0,4.61-4.56A54.47,54.47,0,0,0,65,41.3c1.11-1.66,2-3.21,2.83-4.5s1.37-2.36,1.78-3.12l.48-.85.12-.21,0-.08,0,.07-.13.22-.49.84-1.82,3.08C67,38,66.07,39.57,65,41.22a56.21,56.21,0,0,1-3.91,5.18A38.84,38.84,0,0,1,56.44,51c-.39.3-.76.62-1.14.9l-1.12.8a17.39,17.39,0,0,1-2.13,1.24,10.61,10.61,0,0,1-1.92.66,7.78,7.78,0,0,1-1.52.17,6.27,6.27,0,0,1-1-.11l-.25-.06Z"/><path class="cls-9" d="M44.29,56.62a1,1,0,0,1,.27,1.2,2.52,2.52,0,0,1-.58.75l-.29.27a1.19,1.19,0,0,0,.33-.22,2,2,0,0,0,.58-.75,1.14,1.14,0,0,0-.05-1,.67.67,0,0,0-.2-.21C44.34,56.63,44.3,56.62,44.29,56.62Z"/><path class="cls-1" d="M46.21,57.34l-8.38-3.86a3.54,3.54,0,0,0,.88,3.82,10.16,10.16,0,0,0,3.53,2.17c-2,2.08-2.39,6.67.81,9"/><path class="cls-3" d="M41.91,67.35a.46.46,0,0,0-.1-.13,1.76,1.76,0,0,1-.28-.38,5.44,5.44,0,0,1-.71-1.62,6.4,6.4,0,0,1-.1-2.72,6.06,6.06,0,0,1,1.5-3.1l.05.13a18.65,18.65,0,0,1-2-1,6.31,6.31,0,0,1-1.87-1.46,4.14,4.14,0,0,1-.86-1.79,2.93,2.93,0,0,1,.2-1.87l0-.08.07,0,6,2.81,1.73.82.45.22.16.09s0,0-.17-.06l-.47-.2-1.75-.78-6-2.75.12,0a2.78,2.78,0,0,0-.19,1.73A4.13,4.13,0,0,0,38.48,57a6.3,6.3,0,0,0,1.77,1.44,20.22,20.22,0,0,0,2,1l.1,0-.08.08a6,6,0,0,0-1.48,3,6.62,6.62,0,0,0,.08,2.66,5.72,5.72,0,0,0,.67,1.62Z"/><path class="cls-10" d="M70.36,109c-.26-7.44-1.15-6.78-3.55-13.73C65,89.86,61.42,85.08,58.72,80.06c-.52-1-6.86-12.16-7.4-11.79A17.54,17.54,0,0,1,47.81,71c-2.71.81-3.23,1.06-6.05.76l-.64,1.69a17.15,17.15,0,0,1,.81,2.9c.54,2,1.17,2.33,1.72,4.28,2.78,9.75,5.52,23,11.66,31.47,1.83,2.53,5.25,5.89,8.83,5.67,5.77-.35,8.65-3.41,10.46-5.25C74.34,112.28,70.38,109.41,70.36,109Z"/><path class="cls-10" d="M72.5,99a22.5,22.5,0,0,0-1.88-4.44,70.19,70.19,0,0,1,2.38,7A15.69,15.69,0,0,0,72.5,99Z"/><path class="cls-10" d="M91.74,71.43c-3-.15-9.68,2.82-11.48,5.17L66.81,94.94c0,8.66,4.45,12.35-.78,19.8a41,41,0,0,0,4.59.94c1.81-.5,3.77-2.38,5.71-3.83,7-5.2,9.82-10.31,16-16.28l11.31-24.71Z"/><path class="cls-11" d="M97,74.86l-4,35.86-.56,5c0,.17.55.06.57-.09l4-35.87.55-5c0-.18-.55-.07-.56.09Z"/><path class="cls-10" d="M163.54,89.78l-4.64,15.38-6.61-21.35c-.77-2.86-2.76-6.71-5.55-7.7l-7-1.68L135.06,99.6,145.41,125c1,2.34,4.24,6.16,6.52,7.25,4.2,2.05,8.29,3.2,12.1.63a19.49,19.49,0,0,0,3.78-4.94c1.73-3.29,4.12-13.83,4.43-17.53l3-18.91Z"/><path class="cls-10" d="M141.41,139.17a76.09,76.09,0,0,1-.32-16.68c.34-2.47,3.86-4,5.29-8.72,1.26-4.16-4.81-39-4.81-39l-11.88-3.22-3.15-.65-.24-.14a2,2,0,0,0,0,.57l0,.3A10.62,10.62,0,0,1,118,77a26.16,26.16,0,0,1-3.64,0,11.83,11.83,0,0,1-9.27-5.41l-.08-1.3-7.45,2.14-6.51,4.73-7.45,31.11c.32,5.84-.4,4.13,2,9.45l3.46,3.42-.79,18"/><path class="cls-12" d="M158.9,105.16s-5,12-5.33,16.47l-.54-1.09S155.87,108.15,158.9,105.16Z"/><path class="cls-1" d="M125.87,69.45c-.21-.66,0-7.73,0-7.73l-10.45,1.61L105,61.72s.2,7.8,0,8.47-6.69.93-6.69.93,3.56,8,17.13,8,17.09-6.88,17.09-6.88S126.08,70.11,125.87,69.45Z"/><path class="cls-13" d="M105,62.14c.17.12,1.38,1.72,1.55,1.84,4.29,3,4.93,3.87,8.63,4,3.71-.15,5.3-.66,9.29-4.37,1.34-1.26,1-1.67,1.34-1.91C119.12,61.71,111.64,62.09,105,62.14Z"/><path class="cls-1" d="M98.23,41.24s-2-3.07-3.14-3c-.7.08.9,1.63,1.1,3.39.27,2.36-1.48,2.66-.93,4s1.26,6,3.09,5.79c.73-.08,1.47-1.69,1.47-1.69S98.82,43.35,98.23,41.24Z"/><path class="cls-14" d="M97.6,49.89A1.75,1.75,0,0,0,96,51.38a1.5,1.5,0,0,0,.29,1.06,1.38,1.38,0,0,0,.66.5,1.88,1.88,0,0,0,1.72-.22.18.18,0,0,0,0-.3.35.35,0,0,0-.4,0,1.09,1.09,0,0,1-1,.1l-.18-.07,0,0,0,0a.9.9,0,0,1-.2-.19,1.23,1.23,0,0,1,0-1.52l.07-.09.06-.06.1-.07,0,0h0l.13-.06.05,0h0a.79.79,0,0,1,.24,0c.12,0,.29-.09.3-.24s-.14-.21-.26-.19Z"/><path class="cls-1" d="M131.6,41.15s1.68-3.26,2.83-3.25c.69,0-.74,1.71-.76,3.48,0,2.37,1.74,2.5,1.33,3.88s-.65,6.09-2.49,6.07c-.73,0-1.64-1.53-1.64-1.53S131.22,43.3,131.6,41.15Z"/><path class="cls-1" d="M134.07,43.08h0c-.41,2.06-.91,4.23-1.26,6.72-.91,6.56-2.86,9.58-7.32,12.48-4.68,3-6.08,4.22-10.11,4.37-4-.15-5.44-1.33-10.11-4.37-4.46-2.9-6.42-5.92-7.33-12.48-.2-1.47-.46-2.82-.72-4.1-.19-1-.39-1.87-.57-2.77v0h0a22.17,22.17,0,0,1-.15-10c.91-3.8,4.05-8.51,8.83-11.49h0a18.91,18.91,0,0,1,10-2.9c10.35,0,17.43,8.35,18.88,14.39A22.29,22.29,0,0,1,134.07,43.08Z"/><path class="cls-15" d="M116.71,51.6a1.81,1.81,0,0,1-1.91-.1c-.12-.08-.52,0-.36.13a2.53,2.53,0,0,0,2.6.08c.08-.05.06-.11,0-.14a.41.41,0,0,0-.31,0"/><path class="cls-15" d="M114.17,51.45a4.18,4.18,0,0,0-1.4-.35.36.36,0,0,0-.22.07s0,.08,0,.12a1.55,1.55,0,0,0,.77.17.3.3,0,0,0,.24-.09c0-.07,0-.11-.1-.11a1.24,1.24,0,0,1-.63-.14l-.21.18a3.4,3.4,0,0,1,1.26.32.32.32,0,0,0,.25,0c.06,0,.11-.1,0-.14"/><path class="cls-15" d="M112.27,51.51a1.56,1.56,0,0,1-1.28-.68,1.43,1.43,0,0,1,.58-1.82c.06,0,0-.1,0-.11a.3.3,0,0,0-.26.06,1.65,1.65,0,0,0-.77,1.54,1.4,1.4,0,0,0,1.1,1.11,2.35,2.35,0,0,0,.53.09c.07,0,.2,0,.24-.09s0-.1-.1-.1"/><path class="cls-15" d="M117.28,51.45a4.18,4.18,0,0,1,1.4-.35.34.34,0,0,1,.22.07s0,.08,0,.12a1.55,1.55,0,0,1-.77.17.27.27,0,0,1-.23-.09c0-.07,0-.11.1-.11a1.23,1.23,0,0,0,.62-.14l.21.18a3.35,3.35,0,0,0-1.25.32.34.34,0,0,1-.26,0s-.11-.1,0-.14"/><path class="cls-15" d="M119.18,51.51a1.56,1.56,0,0,0,1.28-.68,1.44,1.44,0,0,0-.57-1.82c-.07,0,0-.1,0-.11a.3.3,0,0,1,.26.06A1.68,1.68,0,0,1,121,50.5a1.41,1.41,0,0,1-1.11,1.11,2.35,2.35,0,0,1-.53.09c-.07,0-.2,0-.24-.09s0-.1.1-.1"/><path class="cls-16" d="M120.27,37c0,.37,0,.74,0,1.12s0,.57,0,.85c1-.24,1.93-.4,2.6-.51a9.69,9.69,0,0,1,3-.21,8.8,8.8,0,0,1,1.89.54,5.7,5.7,0,0,1,1,.48c.7.46,1,1,1.1.94s-.07-.5-.08-.55a4.45,4.45,0,0,0-1.5-1.89,5.68,5.68,0,0,0-1.91-.8,22,22,0,0,0-6.07,0"/><path class="cls-16" d="M123.87,41.49a1.28,1.28,0,0,1,1.37.25,1.4,1.4,0,0,1,.37.57,1.28,1.28,0,0,1-.3,1.15,1.18,1.18,0,0,1-1.35.24,1.3,1.3,0,0,1-.64-1.51,1.22,1.22,0,0,1,.55-.7"/><path class="cls-16" d="M120.06,43.24s2.56-1.85,3.87-2a6.69,6.69,0,0,1,4.93,1.67s-3.11-1.46-4.45-1.3A22.87,22.87,0,0,0,120.06,43.24Z"/><path class="cls-16" d="M111.06,37c0,.37,0,.74,0,1.12s0,.57,0,.85c-1-.24-1.92-.4-2.59-.51a9.75,9.75,0,0,0-3-.21,8.66,8.66,0,0,0-1.88.54,5.81,5.81,0,0,0-1,.48c-.7.46-1,1-1.1.94s.07-.5.09-.55a4.54,4.54,0,0,1,1.49-1.89A5.8,5.8,0,0,1,105,37a22,22,0,0,1,6.06,0"/><path class="cls-16" d="M107.47,41.53a1.27,1.27,0,0,0-1.37.25,1.22,1.22,0,0,0-.37.57,1.25,1.25,0,0,0,.3,1.15,1.18,1.18,0,0,0,1.35.24,1.3,1.3,0,0,0,.63-1.51,1.15,1.15,0,0,0-.54-.7"/><path class="cls-16" d="M111.28,43.28s-2.56-1.85-3.87-2A6.66,6.66,0,0,0,102.48,43s3.11-1.46,4.45-1.3A22.87,22.87,0,0,1,111.28,43.28Z"/><path class="cls-17" d="M93.52,25.76A37.56,37.56,0,0,1,113,23c10.92,1.38,16.16,8.28,18,13.2a35.41,35.41,0,0,1,2,9.87s2.68,1.36,4.63-8.64C140.46,22.85,124.53,10,121,10S98.59,9.46,93.52,25.76Z"/><path class="cls-17" d="M95.47,21.5S93.64,10,101.56,7.87s24.57-6,29.44,4.48Z"/><path class="cls-18" d="M95.06,45.09a7,7,0,0,1-1.74-3c-.88-3.1-2.42-9.51-1-12.35.61-1.24.86-4.94.92-6,.3-5.69-1-3.95,7-10.4s9.37-4.68,21.37-3.91,15.42,4.65,14.5,15.89c0,0-16.15-4.65-23.76-.53S96.5,42.16,97.05,46.93A14.09,14.09,0,0,1,95.06,45.09Z"/><path class="cls-17" d="M91.91,35.47s12.21-15.6,26.48-15.74c0,0-18.27-2.38-26.37,10.8Z"/><path class="cls-17" d="M136,20.12s-14.1-5.13-19.5-5.57,17.08.41,19.24,2.86Z"/><ellipse class="cls-9" cx="115.73" cy="56.33" rx="4.74" ry="1"/><path class="cls-14" d="M133.13,50.37a1.37,1.37,0,0,1,1.33,1.08,1.33,1.33,0,0,1-.12.9,1.12,1.12,0,0,1-.24.33l-.06,0,0,0-.08,0-.14.07h0s-.05,0,0,0h-.09a1.2,1.2,0,0,1-.69-.16c-.1-.06-.27,0-.36,0s-.25.11-.17.15a1.82,1.82,0,0,0,1.5.07,1.92,1.92,0,0,0,.72-.38,1.44,1.44,0,0,0,0-2,1.59,1.59,0,0,0-1.17-.48.8.8,0,0,0-.4.11c-.08.05-.08.11,0,.11Z"/><path class="cls-19" d="M115.6,55.51c-3,0-7.88-.37-7.88-.37s.91,6.1,7.88,6.1,7.88-6.1,7.88-6.1S118.61,55.51,115.6,55.51Z"/><path class="cls-20" d="M115.63,55.51c-1.43,0-7.19-.25-7.19-.25s1.91,3.23,7.07,3.23c5.61,0,7.25-3.18,7.25-3.18Z"/><path class="cls-21" d="M115.69,55.73c-1.43,0-5.78-.25-5.78-.25s1.57,1.6,5.86,1.6,5.65-1.56,5.65-1.56Z"/><path class="cls-19" d="M123.79,54.69a9.83,9.83,0,0,1-1.69.19c-1.18-.11-2.61-.43-3.47-.49-1.46-.12-2.39.47-3,.47s-1.56-.59-3-.47c-.85.06-2.29.38-3.47.49a9.83,9.83,0,0,1-1.69-.19c-.21.06.2,1.64,8.19,1.64S124,54.75,123.79,54.69Z"/><path class="cls-12" d="M121.57,119.27a16.87,16.87,0,0,0-7.54-1.48c-4.16.2-5.45.73-5.45.73s5.69,0,7.34-.27S121.57,119.27,121.57,119.27Z"/><path class="cls-5" d="M41.25,66.65,30.74,61.53a5.53,5.53,0,0,0-7.39,2.54l0,.08h0l20.46,10h0l0-.08a5.52,5.52,0,0,0-2.55-7.39Z"/><rect class="cls-22" x="23.24" y="60.12" width="14.71" height="30.57" transform="translate(-50.59 69.85) rotate(-64.01)"/><rect class="cls-8" x="27.11" y="64.34" width="7.21" height="21.64" transform="translate(-50.3 69.83) rotate(-64.01)"/><path class="cls-9" d="M40.35,66.88a.84.84,0,0,0,.24.14,7.14,7.14,0,0,1,.65.41,5.56,5.56,0,0,1,1.65,1.86,5.63,5.63,0,0,1,.69,2.4c0,.32,0,.59,0,.76l0,.29v-.08a1,1,0,0,0,0-.2,5,5,0,0,0,0-.77A5.47,5.47,0,0,0,43,69.25,5.39,5.39,0,0,0,40.61,67l-.2-.08Z"/><path class="cls-12" d="M66.74,95.06s2.51,5.5,2.71,8.92a25.37,25.37,0,0,0-2.08-9.77Z"/><path class="cls-12" d="M89.5,121.34c-.56-1.19-2-2.12-2.79-3.13a11.93,11.93,0,0,1-2.66-6.65,25.4,25.4,0,0,1,.81-7c.5-2,1.11-3.45,1.59-5.5a39.58,39.58,0,0,0,1.26-5.91,8.71,8.71,0,0,0-1-5.17c1.46,2.49.65,6.19-.14,8.74s-1.85,6.1-2.31,8c-.82,3.33-1.62,9.39,1,12.61s3.16,3.26,3.52,4.08a25.3,25.3,0,0,1,.39,4.79C89.29,123.93,90.12,122.66,89.5,121.34Z"/><path class="cls-12" d="M89.15,126.16a9.5,9.5,0,0,0,0,1.59v-1.09S89.16,126.47,89.15,126.16Z"/><path class="cls-12" d="M140.83,126.2c0,.69-.05,1.17-.05,1.17C140.82,126.94,140.83,126.56,140.83,126.2Z"/><path class="cls-12" d="M145.82,104.81c-.74-3-1.88-5.89-2.6-8.9-.62-2.59-1.07-5.66.24-8.11a8.72,8.72,0,0,0-1.1,5.7c.68,4.87,2.23,8,3.29,12.75a21,21,0,0,1,.1,7.34,14.05,14.05,0,0,1-4,6.56,5.42,5.42,0,0,0-1.12,1.32c-.66,1.4.22,2.34.24,4.73a27.81,27.81,0,0,1,.49-4.7c.36-.82.92-.87,3.52-4.08S146.65,108.14,145.82,104.81Z"/><path class="cls-1" d="M166.44,88.61s-2.28-5.12-2.05-7.7c.07-.73-1.73-7.23-1.73-7.23s1.46-1.08,2.64,1.38,1.61,3.49,1.61,3.49l.63.51,2.82-3.62s2.51-4.63,3.22-5.7,2.12-3.4,3.7-3c0,0,.92-1.8,1.82-1.46a1.48,1.48,0,0,1,1,.88l-.22,1s.46-.37,1.12.36-2.64,8.78-2.64,8.78l.11.54s3.08-5,3.62-4.89,1,.13.83,1.07S178,85.26,174.36,89.87a7.21,7.21,0,0,0-1.27,1.9L166,90Z"/><path class="cls-13" d="M179.49,67.37a27.87,27.87,0,0,1-1.74,4.14,26.82,26.82,0,0,1-2.05,4,27.78,27.78,0,0,1,1.72-4.14A27.43,27.43,0,0,1,179.49,67.37Z"/><path class="cls-13" d="M177.44,66.85c.09.06-.88,1.75-1.94,3.92s-1.81,4-1.91,3.93a17.23,17.23,0,0,1,1.58-4.09A17.11,17.11,0,0,1,177.44,66.85Z"/><path class="cls-13" d="M168.86,79.15a9.25,9.25,0,0,1,4.53,6.51S173.11,79.13,168.86,79.15Z"/></svg>