<svg id="Layer_1" data-name="Layer 1" xmlns="http://www.w3.org/2000/svg" xmlns:xlink="http://www.w3.org/1999/xlink" viewBox="0 0 205.83 138.61"><defs><style>.cls-1{fill:none;}.cls-2{clip-path:url(#clip-path);}.cls-3{fill:#a66e53;}.cls-4{fill:#4f2e25;}.cls-5{fill:#d36253;}.cls-6{fill:#242f34;}.cls-7{fill:#642b11;}.cls-8{fill:#ce8d2a;}.cls-9{fill:#010101;}.cls-10{fill:#13110f;}.cls-11{fill:#b15e27;}.cls-12{fill:#df8c26;}.cls-13{fill:#fff;}.cls-14{fill:#653c29;}.cls-15{fill:#31160e;}.cls-16{fill:#f1eef7;}</style><clipPath id="clip-path"><rect class="cls-1" x="8.94" y="1.46" width="187.95" height="137.15"/></clipPath></defs><g class="cls-2"><path class="cls-3" d="M159.16,102.85c.64-5.73,2.92-17.33,2.92-17.33l-8.79-2.09-5.57,19.1C151.2,104.05,155.6,101.53,159.16,102.85Z"/><path class="cls-3" d="M158.54,91.84l5.05-5.68A17.08,17.08,0,0,0,169.45,82a25.08,25.08,0,0,0,3.3-6.14l4.66-5.68s3.39-1.29,3.06-2.38-1.72-.94-3.07-.79S159,75.33,159,75.33a34.12,34.12,0,0,1,2.3-5.39c1.43-2.64.29-4.25-1.31-4.61s-3.49,3.77-3.34,5.5-3.24,3.89-4.31,6.75.46,6.75.46,6.75C151.58,89.62,158.54,91.84,158.54,91.84Z"/><path class="cls-4" d="M173.9,72.13a1.88,1.88,0,0,0-1.24-.33,6,6,0,0,0-3.55,2.07,13.26,13.26,0,0,0-2.2,3.44,5.84,5.84,0,0,0-.59,1.57,6.68,6.68,0,0,0,.87-1.42,16.27,16.27,0,0,1,2.24-3.28,6.34,6.34,0,0,1,3.26-2.06,1.89,1.89,0,0,1,1.12.17c.25.12.36.22.38.22S174.15,72.33,173.9,72.13Z"/><path class="cls-4" d="M165.78,75.5A9.11,9.11,0,0,0,163.45,77a17.36,17.36,0,0,0,4.86-2.58A9.44,9.44,0,0,0,165.78,75.5Z"/><path class="cls-4" d="M162.32,78.15a12.75,12.75,0,0,1,2.22,1.27,3.41,3.41,0,0,0-2.07-1.67,3.34,3.34,0,0,0-2.67,0A17.68,17.68,0,0,1,162.32,78.15Z"/><path class="cls-5" d="M70.63,139.74l5.69-28.52L70.81,78.78s-6,.52-9.27,10.33c-2.79,10.51-8,46-7.66,52.72.11,2,.79,6.86,1.68,12.66H71.25Z"/><path class="cls-6" d="M83.5,76.57l-4,36.21-.57,5.13c0,.17.56.06.58-.1l4-36.21.57-5.12c0-.18-.56-.07-.57.09Z"/><path class="cls-5" d="M149.46,90.89l-4.69,15.55-6.68-21.59c-.78-2.89-2.79-6.79-5.61-7.78l-7-1.71-4.77,25.46,10.46,25.63c1,2.37,4.29,6.24,6.6,7.34,4.25,2.07,9.55,3.23,13.4.63a17,17,0,0,0,3.57-4.6c1.75-3.33,3.66-12.93,4-16.68l2.59-20.56Z"/><path class="cls-5" d="M130.73,150.32a26.9,26.9,0,0,0-1.5-4.49,19.15,19.15,0,0,1-.79-4.21,77.33,77.33,0,0,1-.33-16.87c.34-2.51,3.91-4,5.35-8.82,1.27-4.21-4.86-39.44-4.86-39.44l-12-3.26-3.18-.65-.25-.14a2,2,0,0,0,0,.57l0,.31a10.75,10.75,0,0,1-8.42,5.43,26.75,26.75,0,0,1-3.68,0,12,12,0,0,1-9.38-5.47L91.63,72,84.1,74.16,70.05,79l-.3,28.67c.33,5.91-.18,7,2.28,12.33l3.47,3.49.24,18.17s-2.06,4.91-4.58,12.66h60.23C131.14,153,131,151.57,130.73,150.32Z"/><path class="cls-7" d="M108.37,121.49a17.07,17.07,0,0,0-7.62-1.5c-4.21.2-5.52.74-5.52.74s5.76,0,7.42-.27S108.37,121.49,108.37,121.49Z"/><path class="cls-5" d="M68.63,154.49s1.2-9.42,7.08-16.66h52.37s5.73,10.73,6.35,16.77Z"/><path class="cls-3" d="M112.29,71c-.21-.67,0-7.82,0-7.82L101.7,64.8,91.14,63.17s.21,7.89,0,8.56-6.38,2.13-6.38,2.13,3.22,7,16.94,7,17.28-7,17.28-7S112.5,71.66,112.29,71Z"/><path class="cls-4" d="M91.16,63.59c.17.13,1.39,1.74,1.57,1.87,4.34,3.07,5,3.91,8.73,4.06,3.75-.15,5.36-.67,9.39-4.42,1.36-1.27,1.06-1.69,1.36-1.93C105.47,63.16,97.9,63.54,91.16,63.59Z"/><path class="cls-3" d="M84.34,42.46s-2-3.11-3.18-3c-.7.07.92,1.64,1.12,3.43.27,2.38-1.5,2.69-.94,4s1.27,6,3.13,5.85c.73-.08,1.48-1.71,1.48-1.71S84.94,44.59,84.34,42.46Z"/><path class="cls-8" d="M83.81,51.31a1.8,1.8,0,0,0-1.73,1.43,1.44,1.44,0,0,0,.28,1,1.21,1.21,0,0,0,.66.45,2.05,2.05,0,0,0,1.78-.28c.09-.06.08-.11,0-.11a.64.64,0,0,0-.4.11.71.71,0,0,1-.46.15,1.33,1.33,0,0,1-.48-.1,1.06,1.06,0,0,1-.51-.38,1.4,1.4,0,0,1,0-1.64,1.26,1.26,0,0,1,.34-.31l.08,0,.08,0h.16a.62.62,0,0,0,.38-.13c.08-.09-.07-.1-.13-.09Z"/><path class="cls-3" d="M118.09,42.37s1.7-3.3,2.86-3.29c.7,0-.75,1.73-.77,3.52,0,2.4,1.76,2.53,1.35,3.93s-.66,6.15-2.52,6.13c-.74,0-1.65-1.54-1.65-1.54S117.71,44.54,118.09,42.37Z"/><path class="cls-3" d="M120.59,44.32h0c-.41,2.08-.92,4.28-1.27,6.79-.93,6.64-2.9,9.69-7.41,12.62-4.73,3.08-6.15,4.28-10.23,4.43-4.08-.15-5.5-1.35-10.22-4.43-4.51-2.93-6.49-6-7.41-12.62-.21-1.48-.47-2.85-.73-4.14-.19-1-.39-1.9-.57-2.81v-.05A22.23,22.23,0,0,1,82.59,34a20.31,20.31,0,0,1,8.92-11.61h0a19.12,19.12,0,0,1,10.16-2.93c10.48,0,17.64,8.44,19.1,14.55A22.66,22.66,0,0,1,120.59,44.32Z"/><path class="cls-9" d="M103,52.93a1.82,1.82,0,0,1-1.93-.09c-.12-.09-.53,0-.36.13a2.59,2.59,0,0,0,2.63.08c.07,0,.06-.11,0-.15a.42.42,0,0,0-.31,0"/><path class="cls-9" d="M100.47,52.78a4.29,4.29,0,0,0-1.42-.35.34.34,0,0,0-.22.07s0,.09,0,.12a1.51,1.51,0,0,0,.78.17c.09,0,.2,0,.24-.09s0-.11-.1-.11a1.24,1.24,0,0,1-.63-.14l-.21.18a3.89,3.89,0,0,1,1.27.32.3.3,0,0,0,.26,0s.11-.1,0-.14"/><path class="cls-9" d="M98.54,52.84a1.57,1.57,0,0,1-1.29-.69,1.43,1.43,0,0,1,.58-1.83c.07,0,0-.1,0-.12a.36.36,0,0,0-.25.06,1.67,1.67,0,0,0-.79,1.56A1.42,1.42,0,0,0,97.86,53a2.54,2.54,0,0,0,.54.09.31.31,0,0,0,.24-.1c0-.06,0-.09-.1-.1"/><path class="cls-9" d="M103.61,52.78a4.29,4.29,0,0,1,1.42-.35.31.31,0,0,1,.21.07c.05,0,.05.09,0,.12a1.49,1.49,0,0,1-.78.17.3.3,0,0,1-.24-.09c0-.07,0-.11.1-.11a1.22,1.22,0,0,0,.63-.14l.22.18a3.89,3.89,0,0,0-1.27.32.3.3,0,0,1-.26,0s-.11-.1,0-.14"/><path class="cls-9" d="M105.53,52.84a1.54,1.54,0,0,0,1.29-.69,1.42,1.42,0,0,0-.57-1.83c-.07,0,0-.1,0-.12a.39.39,0,0,1,.26.06,1.67,1.67,0,0,1,.79,1.56A1.44,1.44,0,0,1,106.21,53a2.35,2.35,0,0,1-.53.09.32.32,0,0,1-.25-.1c0-.06,0-.09.1-.1"/><path class="cls-10" d="M106.64,38.16c0,.37,0,.75,0,1.13s0,.58,0,.86c1-.24,1.94-.4,2.62-.51a9.34,9.34,0,0,1,3-.21,8.5,8.5,0,0,1,1.91.54,5.17,5.17,0,0,1,1,.49c.71.46,1,1,1.12.94s-.07-.5-.09-.55a4.49,4.49,0,0,0-1.51-1.91,6.05,6.05,0,0,0-1.94-.81,22.08,22.08,0,0,0-6.13,0"/><path class="cls-10" d="M110.27,42.71a1.31,1.31,0,0,1,1.39.25,1.2,1.2,0,0,1,.07,1.75,1.21,1.21,0,0,1-1.37.24,1.33,1.33,0,0,1-.64-1.53,1.2,1.2,0,0,1,.55-.71"/><path class="cls-10" d="M106.42,44.48s2.59-1.88,3.91-2c1.93-.17,4.31.81,5,1.7,0,0-3.15-1.48-4.5-1.32A23.55,23.55,0,0,0,106.42,44.48Z"/><path class="cls-10" d="M97.32,38.2c0,.37,0,.75,0,1.13s0,.58,0,.87c-1-.25-2-.41-2.62-.52a9.35,9.35,0,0,0-3-.21,8.89,8.89,0,0,0-1.91.54,4.9,4.9,0,0,0-1,.49c-.71.46-1,1-1.12.94s.07-.5.09-.55A4.49,4.49,0,0,1,89.25,39a6.05,6.05,0,0,1,1.94-.81,22.05,22.05,0,0,1,6.13,0"/><path class="cls-10" d="M93.69,42.75A1.31,1.31,0,0,0,92.3,43a1.2,1.2,0,0,0-.07,1.75,1.19,1.19,0,0,0,1.36.24,1.32,1.32,0,0,0,.65-1.53,1.2,1.2,0,0,0-.55-.71"/><path class="cls-10" d="M97.54,44.52s-2.59-1.88-3.91-2c-1.93-.17-4.31.81-5,1.7,0,0,3.14-1.48,4.5-1.32A23.55,23.55,0,0,1,97.54,44.52Z"/><path class="cls-11" d="M79.57,26.8A38.09,38.09,0,0,1,99.24,24c11,1.4,16.35,8.37,18.21,13.34a35.71,35.71,0,0,1,2,10s2.71,1.37,4.68-8.73c2.87-14.73-13.24-27.73-16.82-27.73S84.71,10.32,79.57,26.8Z"/><path class="cls-11" d="M81.55,22.5S79.7,10.88,87.71,8.71s24.85-6.08,29.78,4.52Z"/><path class="cls-12" d="M81.14,46.35a7,7,0,0,1-1.76-3c-.89-3.13-2.45-9.61-1-12.49.62-1.25.87-5,.93-6.08.31-5.75-1.05-4,7-10.52s9.49-4.74,21.61-4S123.54,15,122.6,26.35c0,0-16.33-4.69-24-.53s-16,17.57-15.43,22.39A13.78,13.78,0,0,1,81.14,46.35Z"/><path class="cls-11" d="M78,36.63S90.3,20.84,104.73,20.7c0,0-18.48-2.41-26.66,10.93Z"/><path class="cls-11" d="M122.5,21.09s-14.27-5.18-19.73-5.63,17.28.42,19.46,2.9Z"/><ellipse class="cls-13" cx="102.04" cy="57.72" rx="4.8" ry="1.01"/><path class="cls-8" d="M119.71,51.72A1.33,1.33,0,0,1,121,52.81a1.28,1.28,0,0,1-.15.9.9.9,0,0,1-.14.2s-.07.08,0,.05l0,0a.18.18,0,0,1-.07.05s0,0,0,0l-.08.05a.85.85,0,0,1-.35.11,1.18,1.18,0,0,1-.7-.17c-.13-.07-.66.14-.45.25a1.83,1.83,0,0,0,1.52.07,1.77,1.77,0,0,0,.71-.42,1.49,1.49,0,0,0,0-2,1.68,1.68,0,0,0-1.24-.49.48.48,0,0,0-.37.15c-.08.1.06.13.14.13Z"/><path class="cls-14" d="M102.15,56.73c-2.76,0-7.23-.32-7.23-.32s.83,5.31,7.23,5.31,7.23-5.31,7.23-5.31S104.91,56.73,102.15,56.73Z"/><path class="cls-15" d="M102.17,56.73c-1.31,0-6.59-.22-6.59-.22s1.74,2.82,6.49,2.82c5.14,0,6.65-2.78,6.65-2.78Z"/><path class="cls-16" d="M102.23,56.92c-1.31,0-5.3-.22-5.3-.22s1.44,1.4,5.37,1.4,5.18-1.36,5.18-1.36Z"/><path class="cls-14" d="M109.67,56a10.75,10.75,0,0,1-1.56.16c-1.08-.09-2.4-.37-3.18-.43a12,12,0,0,0-2.78.41,12.2,12.2,0,0,0-2.78-.41c-.79.06-2.1.34-3.19.43A10.55,10.55,0,0,1,94.63,56c-.19,0,.18,1.43,7.52,1.43S109.86,56.06,109.67,56Z"/><path class="cls-7" d="M145,106.13s-4.24,9.52-4.59,14l-.55-1.11S141.9,109.15,145,106.13Z"/><path class="cls-7" d="M75.86,124.11c-.56-1.2-2-2.14-2.82-3.16a12.06,12.06,0,0,1-2.69-6.72,25.62,25.62,0,0,1,.82-7.09c.5-2.07,1.12-3.49,1.61-5.56a40.51,40.51,0,0,0,1.27-6,8.85,8.85,0,0,0-1-5.23c1.48,2.52.65,6.27-.14,8.84s-1.88,6.17-2.34,8.05c-.83,3.37-1.64,9.5,1,12.75s3.2,3.3,3.56,4.13a25,25,0,0,1,.4,4.84C75.65,126.73,76.48,125.45,75.86,124.11Z"/><path class="cls-7" d="M75.51,129a9.85,9.85,0,0,0,0,1.62v-1.11S75.52,129.3,75.51,129Z"/><path class="cls-7" d="M127.77,129c0,.7,0,1.19,0,1.19A10,10,0,0,0,127.77,129Z"/><path class="cls-7" d="M132.82,107.39c-.74-3-1.91-6-2.63-9-.63-2.61-1.08-5.72.24-8.2A8.84,8.84,0,0,0,129.32,96c.69,4.93,2.25,8.06,3.33,12.9a21.32,21.32,0,0,1,.1,7.43,14.28,14.28,0,0,1-4.09,6.63,5.51,5.51,0,0,0-1.13,1.33c-.67,1.42.22,2.37.24,4.78a28.32,28.32,0,0,1,.5-4.75c.37-.83.93-.88,3.56-4.13S133.66,110.76,132.82,107.39Z"/></g></svg>