<svg id="Layer_1" data-name="Layer 1" xmlns="http://www.w3.org/2000/svg" xmlns:xlink="http://www.w3.org/1999/xlink" viewBox="0 0 205.83 138.61"><defs><style>.cls-1{fill:none;}.cls-2{fill:#d36253;}.cls-3{fill:#642b11;}.cls-4{fill:#a66e53;}.cls-5{fill:#4f2e25;}.cls-6{fill:#ce8d2a;}.cls-7{fill:#010101;}.cls-8{fill:#13110f;}.cls-9{fill:#b15e27;}.cls-10{fill:#df8c26;}.cls-11{fill:#fff;}.cls-12{fill:#653c29;}.cls-13{fill:#31160e;}.cls-14{fill:#f1eef7;}.cls-15{fill:#ea1e52;}.cls-16{fill:#b21e44;}.cls-17{fill:#f8d979;}.cls-18{fill:#333232;}.cls-19{fill:#45488f;}.cls-20{fill:#363a73;}.cls-21{clip-path:url(#clip-path);}.cls-22{fill:#4d2f15;}.cls-23{fill:#1b120c;}.cls-24{fill:#a56530;}.cls-25{fill:#8c542a;}.cls-26{fill:#361b10;}.cls-27{fill:#4c2713;}.cls-28{fill:#753e1a;}.cls-29{fill:#812b24;}</style><clipPath id="clip-path"><polygon class="cls-1" points="232.93 -38.64 -22.93 -38.64 -22.93 -179.01 239.17 -179.01 232.93 -38.64"/></clipPath></defs><path class="cls-2" d="M134.31,131.46l-12-15.77-.16-18.12L116.5,70.31s10.76,2.53,12.51,4"/><path class="cls-2" d="M126.37,138.61c-.79-7.22-1.74-14.7-1.27-18.21.33-2.47,3.85-4,5.28-8.7,1.25-4.15-4.8-38.92-4.8-38.92l-11.86-3.21-3.14-.64-.25-.14a2.4,2.4,0,0,0,0,.56l0,.3A10.6,10.6,0,0,1,102.06,75a24.57,24.57,0,0,1-3.63,0,11.81,11.81,0,0,1-9.25-5.39l-.08-1.31-7.43,2.14L67.8,75.24l-.29,28.28c.32,5.83-.18,6.86,2.25,12.17l3.51,4.39-.19,18.53"/><path class="cls-2" d="M68.41,135.32,74,107.18l-5.44-32s-6,.51-9.14,10.19c-2.76,10.37-7.95,45.34-7.56,52,.11,2,0,1.23,0,1.23H68.55Z"/><path class="cls-2" d="M126.69,122.84s5,5.42,6.34,8.22,4,4.74,8.55,5.31,7.56-4,8.63-9.11a22.5,22.5,0,0,0-.82-10.53S139.73,92,138,86.54a21.89,21.89,0,0,0-9.15-12.37"/><path class="cls-3" d="M124.76,124.22c0,.68-.05,1.17-.05,1.17C124.75,125,124.76,124.57,124.76,124.22Z"/><path class="cls-3" d="M129.74,102.87c-.74-3-1.88-5.88-2.6-8.88-.62-2.58-1.07-5.65.24-8.1a8.71,8.71,0,0,0-1.1,5.69c.68,4.87,2.23,8,3.29,12.73a20.75,20.75,0,0,1,.09,7.33,14,14,0,0,1-4,6.54,5.46,5.46,0,0,0-1.13,1.32c-.65,1.39.23,2.33.25,4.72a26.92,26.92,0,0,1,.49-4.7c.36-.81.92-.86,3.51-4.07S130.56,106.19,129.74,102.87Z"/><path class="cls-4" d="M109.91,67.47c-.21-.66,0-7.71,0-7.71l-10.43,1.6L89,59.76s.2,7.78,0,8.44-6.3,2.11-6.3,2.11,3.18,6.86,16.72,6.86,17-6.86,17-6.86S110.11,68.13,109.91,67.47Z"/><path class="cls-5" d="M89.05,60.17c.17.12,1.37,1.72,1.55,1.84,4.28,3,4.92,3.86,8.62,4,3.69-.15,5.28-.66,9.26-4.36,1.34-1.25,1-1.67,1.34-1.9C103.17,59.74,95.71,60.12,89.05,60.17Z"/><path class="cls-4" d="M82.32,39.32s-2-3.07-3.13-3c-.69.08.9,1.63,1.1,3.39.26,2.35-1.48,2.65-.93,4s1.26,6,3.09,5.77c.72-.08,1.46-1.68,1.46-1.68S82.92,41.42,82.32,39.32Z"/><path class="cls-6" d="M81.7,48a1.74,1.74,0,0,0-1.61,1.48,1.52,1.52,0,0,0,.28,1.06A1.33,1.33,0,0,0,81,51a1.86,1.86,0,0,0,1.71-.22.19.19,0,0,0,0-.3.35.35,0,0,0-.4,0,1.12,1.12,0,0,1-1,.11l-.18-.08s-.07,0,0,0,0,0,0,0a.9.9,0,0,1-.2-.19,1.22,1.22,0,0,1,0-1.52l.08-.09.06,0,.1-.08,0,0h0a.52.52,0,0,1,.13-.06l0,0s0,0,0,0l.24-.06c.13,0,.3-.08.31-.23s-.14-.21-.26-.19Z"/><path class="cls-4" d="M115.63,39.23S117.31,36,118.45,36c.69,0-.74,1.71-.76,3.48,0,2.36,1.74,2.49,1.33,3.87s-.65,6.07-2.49,6.06c-.73,0-1.63-1.53-1.63-1.53S115.25,41.37,115.63,39.23Z"/><path class="cls-4" d="M118.09,41.15h0c-.41,2.06-.91,4.22-1.25,6.71-.91,6.55-2.86,9.56-7.32,12.45-4.66,3-6.06,4.22-10.09,4.37-4-.15-5.42-1.33-10.08-4.37-4.45-2.89-6.41-5.9-7.32-12.45-.2-1.47-.46-2.81-.71-4.1-.2-1-.39-1.86-.57-2.76v0h0a22.08,22.08,0,0,1-.15-10A20.09,20.09,0,0,1,89.4,19.51h0a18.83,18.83,0,0,1,10-2.9c10.34,0,17.41,8.33,18.85,14.36A22.2,22.2,0,0,1,118.09,41.15Z"/><path class="cls-7" d="M100.77,49.65a1.81,1.81,0,0,1-1.91-.09c-.12-.09-.52,0-.35.13a2.53,2.53,0,0,0,2.59.07c.07,0,.06-.1,0-.13a.35.35,0,0,0-.3,0"/><path class="cls-7" d="M98.24,49.51a4,4,0,0,0-1.41-.35.27.27,0,0,0-.21.07s-.05.08,0,.11a1.59,1.59,0,0,0,.77.18.33.33,0,0,0,.24-.1c0-.06,0-.1-.1-.1a1.19,1.19,0,0,1-.62-.15l-.21.19a3.59,3.59,0,0,1,1.25.31.3.3,0,0,0,.26,0c.05,0,.1-.1,0-.13"/><path class="cls-7" d="M96.34,49.57a1.57,1.57,0,0,1-1.28-.69,1.42,1.42,0,0,1,.57-1.81c.07,0,0-.1,0-.11a.3.3,0,0,0-.26.06,1.66,1.66,0,0,0-.78,1.53,1.42,1.42,0,0,0,1.11,1.12,1.89,1.89,0,0,0,.53.08c.07,0,.2,0,.23-.09s0-.09-.09-.09"/><path class="cls-7" d="M101.33,49.51a4,4,0,0,1,1.41-.35.27.27,0,0,1,.21.07s0,.08,0,.11a1.59,1.59,0,0,1-.77.18.35.35,0,0,1-.24-.1c0-.06,0-.1.1-.1a1.19,1.19,0,0,0,.62-.15l.21.19a3.59,3.59,0,0,0-1.25.31.3.3,0,0,1-.26,0s-.1-.1,0-.13"/><path class="cls-7" d="M103.24,49.57a1.57,1.57,0,0,0,1.27-.69,1.42,1.42,0,0,0-.57-1.81c-.07,0,0-.1,0-.11a.3.3,0,0,1,.26.06,1.66,1.66,0,0,1,.78,1.53,1.42,1.42,0,0,1-1.11,1.12,1.89,1.89,0,0,1-.53.08c-.07,0-.2,0-.23-.09s0-.09.1-.09"/><path class="cls-8" d="M104.32,35.07c0,.37,0,.75,0,1.12s0,.57,0,.85c1-.24,1.92-.4,2.59-.51a9.33,9.33,0,0,1,3-.2,8.08,8.08,0,0,1,1.88.53,6.19,6.19,0,0,1,1,.48c.69.46,1,1,1.09.94s-.06-.5-.08-.55a4.54,4.54,0,0,0-1.49-1.89,5.92,5.92,0,0,0-1.92-.79,21.74,21.74,0,0,0-6.05,0"/><path class="cls-8" d="M107.91,39.57a1.32,1.32,0,0,1,1.74.82,1.29,1.29,0,0,1-.3,1.15,1.19,1.19,0,0,1-1.35.23,1.28,1.28,0,0,1-.63-1.5,1.1,1.1,0,0,1,.54-.7"/><path class="cls-8" d="M104.11,41.32s2.55-1.86,3.86-2A6.69,6.69,0,0,1,112.89,41s-3.1-1.45-4.44-1.29A22.7,22.7,0,0,0,104.11,41.32Z"/><path class="cls-8" d="M95.13,35.11c0,.37,0,.75,0,1.12s0,.57,0,.85c-1-.24-1.92-.4-2.59-.51a9.3,9.3,0,0,0-3-.2,8.41,8.41,0,0,0-1.88.53,5.7,5.7,0,0,0-1,.48c-.7.46-1,1-1.1.94s.07-.5.09-.55a4.46,4.46,0,0,1,1.49-1.89,5.8,5.8,0,0,1,1.91-.79,21.74,21.74,0,0,1,6,0"/><path class="cls-8" d="M91.54,39.61a1.24,1.24,0,0,0-1.36.25,1.11,1.11,0,0,0-.37.57,1.26,1.26,0,0,0,.3,1.15,1.18,1.18,0,0,0,1.34.23,1.29,1.29,0,0,0,.64-1.5,1.12,1.12,0,0,0-.55-.7"/><path class="cls-8" d="M95.34,41.36s-2.55-1.86-3.85-2a6.72,6.72,0,0,0-4.93,1.67S89.67,39.6,91,39.76A22.7,22.7,0,0,1,95.34,41.36Z"/><path class="cls-9" d="M77.62,23.86A37.61,37.61,0,0,1,97,21.09c10.89,1.38,16.13,8.26,18,13.17a35.11,35.11,0,0,1,2,9.85s2.68,1.36,4.62-8.61C124.47,21,108.57,8.13,105,8.13S82.68,7.6,77.62,23.86Z"/><path class="cls-9" d="M79.57,19.62S77.75,8.16,85.65,6,110.17,0,115,10.48Z"/><path class="cls-10" d="M79.16,43.16a6.9,6.9,0,0,1-1.73-3c-.88-3.09-2.42-9.49-1-12.33.62-1.23.86-4.92.92-6,.31-5.67-1-3.94,6.94-10.38s9.36-4.67,21.32-3.9,15.4,4.64,14.48,15.85c0,0-16.11-4.63-23.71-.52S80.59,40.23,81.15,45A13.76,13.76,0,0,1,79.16,43.16Z"/><path class="cls-9" d="M76,33.56S88.2,18,102.44,17.85c0,0-18.23-2.38-26.31,10.78Z"/><path class="cls-9" d="M120,18.24s-14.07-5.12-19.47-5.56,17.06.41,19.21,2.86Z"/><ellipse class="cls-11" cx="99.79" cy="54.38" rx="4.74" ry="1"/><path class="cls-6" d="M117.16,48.42a1.39,1.39,0,0,1,1.33,1.09,1.35,1.35,0,0,1-.13.9,1.22,1.22,0,0,1-.24.32s0,0-.06.05h0l-.08.05-.15.07,0,0s-.05,0,0,0h-.1a1.2,1.2,0,0,1-.69-.16.51.51,0,0,0-.36,0s-.24.1-.17.14A1.85,1.85,0,0,0,118,51a1.82,1.82,0,0,0,.71-.38,1.43,1.43,0,0,0,0-2,1.55,1.55,0,0,0-1.17-.48.77.77,0,0,0-.39.11c-.09,0-.08.1,0,.1Z"/><path class="cls-12" d="M99.89,53.4c-2.72,0-7.13-.32-7.13-.32s.82,5.24,7.13,5.24S107,53.08,107,53.08,102.62,53.4,99.89,53.4Z"/><path class="cls-13" d="M99.92,53.4c-1.29,0-6.51-.22-6.51-.22S95.13,56,99.81,56c5.08,0,6.57-2.74,6.57-2.74Z"/><path class="cls-14" d="M100,53.58c-1.3,0-5.24-.21-5.24-.21s1.42,1.38,5.3,1.38,5.12-1.34,5.12-1.34Z"/><path class="cls-12" d="M107.31,52.7a10.81,10.81,0,0,1-1.53.15c-1.07-.09-2.37-.36-3.14-.42a11.87,11.87,0,0,0-2.75.41,11.67,11.67,0,0,0-2.74-.41c-.77.06-2.07.33-3.14.42a10.63,10.63,0,0,1-1.53-.15c-.2,0,.17,1.41,7.42,1.41S107.5,52.74,107.31,52.7Z"/><path class="cls-3" d="M105.62,117.19a16.82,16.82,0,0,0-7.52-1.48c-4.16.2-5.45.73-5.45.73s5.68,0,7.33-.27S105.62,117.19,105.62,117.19Z"/><path class="cls-3" d="M73.53,119.37c-.56-1.19-2-2.11-2.78-3.13a11.79,11.79,0,0,1-2.65-6.63,24.94,24.94,0,0,1,.8-7c.5-2.05,1.11-3.44,1.59-5.49a39.32,39.32,0,0,0,1.26-5.89,8.87,8.87,0,0,0-1-5.17c1.46,2.49.64,6.19-.14,8.73s-1.85,6.09-2.31,7.94c-.82,3.32-1.62,9.38,1,12.58s3.15,3.26,3.51,4.07a25.22,25.22,0,0,1,.4,4.79C73.32,122,74.15,120.68,73.53,119.37Z"/><path class="cls-3" d="M73.19,124.18a9.5,9.5,0,0,0,0,1.59l0-1.09Z"/><rect class="cls-11" x="120.45" y="86.12" width="29.85" height="43.23" transform="translate(33.87 -32.37) rotate(15.57)"/><rect class="cls-15" x="143.17" y="96.89" width="1.56" height="23.71" transform="translate(-1.61 2.16) rotate(-0.86)"/><rect class="cls-16" x="143.67" y="96.9" width="0.58" height="23.71" transform="translate(-1.61 2.16) rotate(-0.86)"/><polygon class="cls-17" points="143.02 96.92 143.78 94.38 144.58 96.89 143.02 96.92"/><polygon class="cls-18" points="143.78 94.38 143.56 95.13 144.01 95.12 143.78 94.38"/><rect class="cls-19" x="145.71" y="98.6" width="1.56" height="23.71" transform="translate(10.43 -12.62) rotate(5.12)"/><rect class="cls-20" x="146.2" y="98.61" width="0.58" height="23.71" transform="translate(10.43 -12.62) rotate(5.12)"/><polygon class="cls-17" points="146.78 98.59 147.81 96.14 148.34 98.72 146.78 98.59"/><polygon class="cls-18" points="147.81 96.14 147.51 96.87 147.97 96.91 147.81 96.14"/><rect class="cls-17" x="145.18" y="117.35" width="1.42" height="0.47"/><rect class="cls-17" x="147.19" y="120.97" width="1.42" height="0.47" transform="translate(8.25 -9.42) rotate(3.75)"/><path class="cls-4" d="M149,110s1.21-1.75,2.65-1.3,2.65,1,2.29,2.21a2.8,2.8,0,0,1-1.56,1.69l-1.07.82a7.28,7.28,0,0,1,.84,3.34,2.51,2.51,0,0,1-1.47,1.93,3.69,3.69,0,0,1-.25,3.36,11.94,11.94,0,0,1-1.37,1.63,2.59,2.59,0,0,1-2.14,1.63,4,4,0,0,1-3-1.2l-4.28-5.49a2.76,2.76,0,0,1,.21-1.17,1.55,1.55,0,0,1-.45-1.74,1.33,1.33,0,0,1,1.44-.85,2.09,2.09,0,0,1,.64-1.77c.78-.57,8.23.07,8.23.07l.67-.69s-1.71-.45-1.79-1.27A1.4,1.4,0,0,1,149,110Z"/><path class="cls-5" d="M148.37,117.67a14.46,14.46,0,0,1-7.62-2.62c.05-.09,1.63.82,3.73,1.53S148.38,117.57,148.37,117.67Z"/><path class="cls-5" d="M147.23,121.44a21.43,21.43,0,0,1-3.9-1.7,20.6,20.6,0,0,1-3.63-2.19,41.8,41.8,0,0,1,3.79,1.89A40.64,40.64,0,0,1,147.23,121.44Z"/><path class="cls-5" d="M152.23,111.66s0,.18-.2.39a1.87,1.87,0,0,1-.89.54,1.93,1.93,0,0,1-1,0c-.26,0-.38-.19-.37-.22a4,4,0,0,0,1.31-.11C151.73,112.05,152.15,111.6,152.23,111.66Z"/><g class="cls-21"><path class="cls-4" d="M135.5,21.55s-6.31,5.62-10,9.48l.07.51s1.06,3,3.17,2.76,13.8-8.59,13.8-8.59l-.7-3.93Z"/><path class="cls-22" d="M119,38.2s-.89-1.33.1-2.07,6.17-5.3,6.79-5.34c.09.45.76.9,2.12,1A10.17,10.17,0,0,0,134,30.47c2.31-1.13,7.09-3.34,9-5.26a7.58,7.58,0,0,0,1.33-2.68c3.27,2.42,3.25,5.89,2.28,7S138.81,33,138.81,33l-5.74,3.14-5.68,1.79-2.44.58-3,.31Z"/><path class="cls-23" d="M146.77,29.15a22.61,22.61,0,0,1-5,2.11,27.55,27.55,0,0,0-8.91,3.9,23.61,23.61,0,0,1-3.08,1.72c-6.18,2.85-10.52,1.37-10.67,1.3a.74.74,0,0,0-.1.38,5.31,5.31,0,0,0,1.55.58c2,.38,4.85.69,9.66-1.41a22,22,0,0,0,3-1.47,23.37,23.37,0,0,1,5.69-2.72l.22,1s5.91-1.31,8.27-3.22A4.41,4.41,0,0,0,146.77,29.15Z"/><path class="cls-23" d="M147.27,30.42a37,37,0,0,1-8.33,3.24l.2.88s5.91-1.31,8.27-3.22A6.34,6.34,0,0,0,147.27,30.42Z"/><path class="cls-24" d="M169.66-22.8h24.91c3.57,0,4.23,1.66,4.23,5.05,0,3.11-.72,4.94-4.33,4.95a18,18,0,0,1-2.44,0c-2.39-.31-2.87.55-2.56,2.36,3.06,17.65,12.29,34.09,15.34,51.73.21,1.2,0,1.68-1.63,1.7-4.12.05-4.21.13-4.78-3.18-2-11.25-3.87-22.51-5.69-33.78-.25-1.54-.89-2-2.75-2q-14.16.1-28.33,0c-1.81,0-2.34.52-2.56,1.91-1.94,11.87-4,23.73-5.92,35.6-.18,1.1-.73,1.43-2.05,1.45-4.25.06-4.36.09-3.81-3.24,2-12.06,4-24.12,6.07-36.18.87-5.13-4.51-9-3.56-14.16.29-1.58-.05-2.48-2.27-2.17-.48.06-1,0-1.46,0-6.37.44-5.85-4-5.48-8.13.14-1.6,1.83-2,3.67-2,8.46,0,16.93,1,25.4,1ZM175.7,0c4.72,0,9.44,0,14.15,0,1.44,0,2.09-.24,1.84-1.57-.76-4.12-7.69-5.38-8.35-9.51-.2-1.25-.73-1.78-2.44-1.76-7.47.09-15,.11-22.44,0-1.85,0-2.36.56-2.57,1.88-.63,4,5,5.13,4.2,9.11C159.84-.48,160.21.06,162,0,166.59-.08,171.15,0,175.7,0Z"/><path class="cls-25" d="M153.38,3.59c-.31,1.86-.63,3.72-.94,5.58,2,.38,3.94.83,5.9,1.29.25-1.5.5-3,.74-4.51S159.84,4,161.65,4q14.16.12,28.33,0c1.86,0,2.5.45,2.74,2l.72,4.38A56,56,0,0,0,199,8.09c-1.08-6.1-8.41-12.24-9.5-18.53a3.45,3.45,0,0,1,0-1.47c-1.29.09-2.58.15-3.88.2l-2.38.07a2.9,2.9,0,0,1,.14.58c.66,4.13,7.59,5.39,8.35,9.51C192-.22,191.31,0,189.87,0c-4.72-.06-9.43,0-14.15,0-4.55,0-9.11-.07-13.66,0-1.83,0-2.2-.49-1.95-1.87.75-4-4.83-5.11-4.2-9.11a2.46,2.46,0,0,1,.46-1.24q-3.36-.11-6.73-.15a2.22,2.22,0,0,1,.18,1.77C148.87-5.46,154.25-1.54,153.38,3.59Z"/><path class="cls-4" d="M153.64-48.39s-20.4,1.68-24.93,2.4c-6.64,1.06-9.64,3.31-10.22,7.57-1.2,8.87,24.42,60.48,24.42,60.48l6.31.61-14-51.39,25.69,1.77Z"/><path class="cls-4" d="M152.94-42.07s-24.06-1.81-29,1.25-3.57,7.55-2.69,12.69S146,25.68,146,25.68l7.21-4.82s-7.81-30.16-9.06-35.52-5.92-12.51-5.92-12.51,20,.55,23.75,0S152.94-42.07,152.94-42.07Z"/><path class="cls-4" d="M141.18,25.53l-7.36,10.83c-.42,1,11.83,1.75,17.36-12.19L148.84,22Z"/><path class="cls-22" d="M128.8,44.43s-1.13-1.11-.3-2,5-6.53,5.61-6.7c.18.42.93.71,2.27.48A10.34,10.34,0,0,0,142,33.6c2-1.61,6.29-4.81,7.76-7.1a7.79,7.79,0,0,0,.78-2.91c3.67,1.65,4.33,5.05,3.59,6.35s-6.9,5.08-6.9,5.08l-5,4.32-5.21,3-2.27,1.09-2.88,1Z"/><path class="cls-23" d="M154.24,29.51a23.52,23.52,0,0,1-4.53,3.17,28.5,28.5,0,0,0-8,5.76,22.56,22.56,0,0,1-2.68,2.35c-5.5,4.14-10,3.63-10.2,3.6a.64.64,0,0,0,0,.39,4.62,4.62,0,0,0,1.62.23c2.06-.06,4.89-.38,9.19-3.48a23.1,23.1,0,0,0,2.71-2.11,24.2,24.2,0,0,1,5-3.9l.4.93s5.54-2.57,7.49-5A4.25,4.25,0,0,0,154.24,29.51Z"/><path class="cls-23" d="M155,30.65a37.68,37.68,0,0,1-7.52,5l.35.82s5.54-2.57,7.49-5A6.67,6.67,0,0,0,155,30.65Z"/><path class="cls-4" d="M77.14-41.69s7.63,0,11.75,6c2.42,3.51,1.57,9.77,1.62,14.51.07,6.45-4.19,51.83-4.19,51.83l-8.48-2.06L70.12-16.15l.19-7.57L39.18-26.2s-2.83-9.24,4.14-16.53C44.18-43.67,77.14-41.69,77.14-41.69Z"/><path class="cls-4" d="M85.5,27.24A137.35,137.35,0,0,1,96.4,37.83c4.46,5.18.21-.37.21-.37S94.35,41.74,92,41.3s-14.69-10-14.69-10l1.48-3.53Z"/><polygon class="cls-26" points="81.55 43.12 78.61 43.46 78.15 39.13 80.78 39.26 81.55 43.12"/><polygon class="cls-27" points="78.16 39.01 78.61 43.46 75.54 42.75 76.03 38.23 78.16 39.01"/><path class="cls-26" d="M105.05,45.23a2.86,2.86,0,0,1-1.68.48c-2.88-.1-12.47-.34-14.42-1-2.84-.9-2-.58-5-2.43a57,57,0,0,0-7.17-3.69,7.23,7.23,0,0,1-1.31-.84s-.1-1.62.71-1.48l.55-2.16,2.5,3.32,7.3,1.64,3.91,3.65,7.62.64,6.11-.4a4.62,4.62,0,0,1,1.38.43,1.16,1.16,0,0,1,.13,1.19A2.18,2.18,0,0,1,105.05,45.23Z"/><path class="cls-28" d="M96.63,37.46a5.54,5.54,0,0,0-3,1.28c-1.91,1.35-4.32.49-5.87-.36a29.13,29.13,0,0,1-6.36-4.22,14.73,14.73,0,0,1-3.62-4.58.92.92,0,0,0-.34-.51s-1,2.2-1.48,3.22a8.64,8.64,0,0,0-.15,4.35c.25.78,3.52,2.12,6,3.67,3.13,1.93,3.84,2.11,6.25,3.41,1.48.8,7.91.89,9.94,1s4.47.07,5.34,0a3.77,3.77,0,0,0,1.86-1.08s.54-.63-.84-1.56-4.25-2.19-5.43-2.89A15.65,15.65,0,0,1,96.63,37.46Z"/><path class="cls-24" d="M38.63-23.4H64c3.63,0,4.3,1.72,4.29,5.24,0,3.24-.72,5.14-4.4,5.15a18.65,18.65,0,0,1-2.48,0c-2.43-.33-2.91.57-2.59,2.45C61.88,7.75,64.92,24.83,68,43.16c.21,1.25,0,1.75-1.66,1.77-4.19,0-4.28.13-4.86-3.3q-3-17.55-5.79-35.1c-.25-1.59-.9-2.08-2.79-2.06q-14.39.12-28.79,0c-1.85,0-2.38.55-2.61,2-2,12.34-4,24.66-6,37-.18,1.15-.74,1.49-2.08,1.51C9.1,45,9,45.05,9.54,41.59c2-12.54,4.11-25.07,6.18-37.6.88-5.32,1.76-9.39,2.73-14.71.29-1.64-.06-2.57-2.31-2.25-.48.06-1,0-1.49,0-6.47.46-5.94-4.17-5.57-8.45.15-1.66,1.87-2.05,3.73-2,8.61.05,17.22,1.07,25.82,1.07ZM38.43.27c4.79,0,9.59,0,14.38,0,1.47,0,2.12-.25,1.87-1.63-.77-4.28-1.47-5.59-2.14-9.88-.2-1.31-.74-1.86-2.48-1.83-7.6.09-15.2.11-22.81,0-1.88,0-2.4.57-2.61,2C24-6.95,23.32-5.78,22.56-1.64c-.26,1.43.12,2,2,1.94C29.17.2,33.8.27,38.43.27Z"/><path class="cls-25" d="M15.74,4l-1,5.8c2,.4,4,.86,6,1.35.25-1.56.51-3.13.76-4.69s.76-2,2.6-2q14.4.12,28.8,0c1.89,0,2.54.46,2.79,2.05s.49,3,.73,4.55a53.62,53.62,0,0,0,5.64-2.4C61,2.36,59.9-4,58.79-10.56a3.69,3.69,0,0,1,0-1.52c-1.31.08-2.62.15-3.94.2-.8,0-1.61.06-2.42.07a3.31,3.31,0,0,1,.14.6c.67,4.29,1.37,5.6,2.14,9.88C55,.06,54.3.33,52.83.31,48,.25,43.24.29,38.45.29c-4.63,0-9.26-.07-13.89,0-1.86,0-2.24-.51-2-1.94.76-4.14,1.44-5.32,2.07-9.47a2.72,2.72,0,0,1,.48-1.29q-3.42-.1-6.84-.15a2.32,2.32,0,0,1,.17,1.83C17.5-5.38,16.62-1.31,15.74,4Z"/><path class="cls-4" d="M69.28-39.9s7.63,0,11.75,6c2.42,3.51,1.57,9.77,1.62,14.52.06,6.44-4.19,51.82-4.19,51.82l-8-2.31L62.26-14.37l.18-7.56L31.32-24.42s-2.83-9.23,4.14-16.53C36.32-41.89,69.28-39.9,69.28-39.9Z"/><path class="cls-4" d="M77.5,28.27A137.35,137.35,0,0,1,88.4,38.86c4.46,5.19.21-.37.21-.37S86.35,42.77,84,42.34,69.27,32.28,69.27,32.28l1.48-3.52Z"/><polygon class="cls-26" points="73.79 44.15 70.86 44.49 70.39 40.16 73.02 40.29 73.79 44.15"/><polygon class="cls-27" points="70.4 40.04 70.86 44.49 67.78 43.78 68.27 39.26 70.4 40.04"/><path class="cls-26" d="M97.29,46.26a2.84,2.84,0,0,1-1.68.48c-2.88-.1-12.47-.33-14.42-1-2.84-.9-2-.57-5-2.43A55.5,55.5,0,0,0,69,39.67a7.23,7.23,0,0,1-1.31-.84s-.1-1.62.71-1.47l.55-2.17,2.51,3.32,7.29,1.64,3.91,3.65,7.63.64,6.1-.4a4.53,4.53,0,0,1,1.38.43,1.17,1.17,0,0,1,.13,1.19A2,2,0,0,1,97.29,46.26Z"/><path class="cls-28" d="M88.87,38.49a5.52,5.52,0,0,0-3,1.29c-1.91,1.34-4.32.49-5.86-.37a28.9,28.9,0,0,1-6.37-4.21A14.53,14.53,0,0,1,70,30.61a1,1,0,0,0-.34-.51s-1,2.2-1.49,3.22A8.68,8.68,0,0,0,68,37.68c.26.77,3.52,2.11,6,3.66,3.14,1.93,3.84,2.11,6.25,3.42,1.48.8,7.91.88,9.94,1s4.47.07,5.34,0a3.77,3.77,0,0,0,1.86-1.08s.54-.62-.84-1.56S92.36,41,91.17,40.24A15.65,15.65,0,0,1,88.87,38.49Z"/><path class="cls-29" d="M99-39.47a532.47,532.47,0,0,1-6.26,59.25S77.47,23.54,75.41,20c0,0-1.42-30.7-8.27-50.27C61.12-47.53,25-52.93,29.62-54.49c7.31-2.46,51.24-3.78,60.3-.89C95.92-53.47,99.44-50,99-39.47Z"/><path class="cls-29" d="M91.09-52.51a33.16,33.16,0,0,0-6.14.89,13.47,13.47,0,0,0,.31-2.79c-.42-.31-.87-.62-1.32-.93a39.93,39.93,0,0,0-5.5,3.18,46.15,46.15,0,0,0-5.71,4.6A40.91,40.91,0,0,0,68-42.33c-.39.52-6.09,1.07-6.46,1.62.07,0,1.34,3.18,1.41,3.18-5.16,8.62-3.21-1.26-3.72,14.08C58.81-10,63.52,12,62.7,19.11c4,3.82,21.25,2.21,21.25,2.21C86.32.55,91.09-52.51,91.09-52.51Z"/><path class="cls-5" d="M79.32,29l.8-7.36-.53,0-.69,7.61c4.39,2.76,9.3,9.42,9.3,9.42C88,36.55,79.32,29,79.32,29Z"/></g></svg>