<svg id="Layer_1" data-name="Layer 1" xmlns="http://www.w3.org/2000/svg" xmlns:xlink="http://www.w3.org/1999/xlink" viewBox="0 0 205.83 138.61"><defs><style>.cls-1{fill:none;}.cls-2{clip-path:url(#clip-path);}.cls-3{fill:#a66e53;}.cls-4{fill:#50939e;}.cls-5{fill:#283f3f;stroke:#283f3f;stroke-miterlimit:10;stroke-width:0.25px;}.cls-6{fill:#513835;}.cls-7{fill:#1c3b53;}.cls-8{fill:#825639;}.cls-9{fill:#151210;}.cls-10{fill:#231f20;}.cls-11{fill:#010101;}.cls-12{fill:#161312;}.cls-13{fill:#171514;}.cls-14{fill:#181615;}.cls-15{fill:#191716;}.cls-16{fill:#745245;}.cls-17{fill:#653c29;}.cls-18{fill:#31160e;}.cls-19{fill:#132b3a;}.cls-20{fill:#4f2e25;}.cls-21{fill:#273339;}.cls-22{fill:#fff;opacity:0.14;}</style><clipPath id="clip-path"><rect class="cls-1" x="-4.58" y="-4.32" width="215.81" height="144.57"/></clipPath></defs><g class="cls-2"><path class="cls-3" d="M118.76,32.55a18.07,18.07,0,0,0,1.66,11.26c.29.54,3.27,1.7,3.27,1.7L119,47.17c-3.24.83-10.53,1-13.7.1l-2.67-1.42s3.3-.8,3.44-1.51a54.86,54.86,0,0,0-.58-6"/><path class="cls-3" d="M105.26,45l15.59-.39,2.32,5s-4.1,3.68-4.53,3.86-10.34,2.47-10.34,2.47S97,52.33,97.19,52.35,105.26,45,105.26,45Z"/><g id="freepik--Character--inject-2"><path class="cls-4" d="M86.65,62.79l2.43-10a28.59,28.59,0,0,1,6.52-3.29c2-.64,5.05-1.25,6.24-1.63A3.78,3.78,0,0,0,103,51.7a8.92,8.92,0,0,0,5.34,1.93,15.34,15.34,0,0,0,5.47-1c3.25-1.15,7-4.88,7.78-8.43l1.28.52s13.49,5.34,15.08,6-3.3,41.33-3.3,41.33l3.6,17.44c.36,1.68,9.32,12.86,3.69,26.13,0,0-35.25-10.82-38.94-10.87-4.29-.06-11.13-.1-12.22-2.14S86.65,62.79,86.65,62.79Z"/><path class="cls-4" d="M92.34,98.55c-1.49,4.63-9.93-1.56-14.28-3.72a7,7,0,0,0,.88-3.18c.26-3.17,1-6.64,1.21-9.81.23-4,1.25-9.82,1.65-13.79a57.35,57.35,0,0,1,.9-5.95,13.33,13.33,0,0,1,1.67-4.76c1-1.45,5-5.38,7.4-6.09l7.68,14.38S99,78,96.17,81.87c-.11.15-1.3,5.24-1.44,5.4C94.62,87.2,94,93.41,92.34,98.55Z"/><path class="cls-5" d="M129.66,62.6a17.1,17.1,0,0,0,.49-1.69,19.38,19.38,0,0,1,4-7.35,16,16,0,0,0,1.14-1.33A6.08,6.08,0,0,0,134,53.39a16.49,16.49,0,0,0-4.05,7.46A6.07,6.07,0,0,0,129.66,62.6Z"/></g><path class="cls-6" d="M56.24,124h0v-.08Z"/><path class="cls-7" d="M76.73,141.51c-.16-1-.37-1.92-.61-2.86a39.94,39.94,0,0,0-2.23-6.21,41.86,41.86,0,0,0-3.26-6,35.55,35.55,0,0,0-2.76-3.7c20-4.32,61.83-2.18,61.83-2.18s14.2-1.45,12.11,16.51c-1.7,14.54-49.4,8.76-64.86,4.45Z"/><path class="cls-8" d="M119.46,34.4v.05S119.47,34.41,119.46,34.4Z"/><path class="cls-3" d="M107.46,45.26l-5.91,0-3-.57c-.3,0-1.71-3-1.92-3.35a24.25,24.25,0,0,1-2-4C94.2,36,93.29,34.79,93,33.13A7.78,7.78,0,0,1,93.38,29a2.91,2.91,0,0,0,0-1.55c-.31-1.14-.45-2.48-.82-4a3.37,3.37,0,0,1-.15-.83s-.49-6.39.58-8.72A6.9,6.9,0,0,1,97.42,10c1.67-.5,6.65-.37,6.65-.37l6.83-1.22,5.94,2.68,3.21,7-.14,8.24-.62,7.39"/><path class="cls-9" d="M117.94,25.79c0,.64-.7,3.84-.75,4.46l3.29-.17c.92-2.22,2-4.82,2.38-5.42.56-.93-1.28-5.4-1.3-7.07v-.36c0-1.6-1.63-4.09-4.32-6.66-4.62-4.42-4.41-4.48-11.29-3.76-.47.05-.94.12-1.4.2-4.31.79-7.93.84-10.58,4.56-1.91,2.69-.51-.65-.28,1.17,0-3.6-.59-.62-.23-1.05,2.1-2.55,3.26.06,4.32-.14a3.7,3.7,0,0,1,1.77.11,8.38,8.38,0,0,0,3.18-.17c.82-.15,2.9-.69,3.08-.74.55-.4,0-2.55,1-2.74a14.59,14.59,0,0,1,6.85,1c1.38.59,4.69,1.86,4.36,5.53"/><path class="cls-9" d="M99.19,43.87l.11,0c.61-.44.65-.67,1-.76a1.89,1.89,0,0,1,.32-.08c.88-.16,1.42-.27,3.85,1.15,0,0,3.14-.48,3.2-.49l1.58-.81c.26-.18,6.09-5.46,6.09-5.46.09-.17,1.13-1.42,1.17-1.58l0,0,0,0v0a1.62,1.62,0,0,1,0,.22,3.36,3.36,0,0,1-.13.89c-.12.45-.19.91-.29,1.36,0,.16-.09.32-.14.48-.67.45-4.83,6.1-7.27,7.42a10.53,10.53,0,0,1-2,.37,20.31,20.31,0,0,1-7.53-.24,2.25,2.25,0,0,1-1.49-1.21A41,41,0,0,1,94.61,37c.75,1.47,2.33,4.63,3.42,6.78a8.76,8.76,0,0,0,1.08.11"/><path class="cls-3" d="M118.59,34.58c2.75,2.49,3.12-1.94,3.12-1.94a8.56,8.56,0,0,0,1.5-6.32c-.15-1.62-1.94-1.51-1.94-1.51-1.51.24-2.15,1.09-3.17,6.27"/><path class="cls-9" d="M98.69,10.07c2.46-.12,8.89-2,12.23-2.35,1.39-.13,6.1,3.16,6.72,3.92,1.43,1.75-1.61,6,.94,11.6.84,1.86,1.83-1.48,2.86-.27s1.42,1.69,1.42,1.69c.56-5.49.55-5.3-.83-10.65s-7.31-7.52-10.17-7.88-12,.82-14.37,2"/><path class="cls-10" d="M119.54,30.08a14.19,14.19,0,0,1,1-2.1,4.65,4.65,0,0,1,.79-1,1.84,1.84,0,0,1,.25-.19l.09,0s.08,0,0,0-.08,0-.07,0,.15.22.16.24a3.11,3.11,0,0,1,.21,2.06c0,.07.24,0,.25,0a3.18,3.18,0,0,0-.17-2c0-.09-.11-.26-.2-.32a.19.19,0,0,0-.13,0c-.54.09-1,.65-1.25,1.06a11.6,11.6,0,0,0-1.26,2.42c0,.05.22,0,.25-.05Z"/><path class="cls-10" d="M119.93,30.47c.52,0,.37.83.34,1.12s-.16,1,.25,1c.2,0,.3-.19.37-.35a4.2,4.2,0,0,0,.26-1.1,4,4,0,0,0,0-1.34c-.1-.52-.3-1.19-.85-1.4-.07,0-.31.08-.2.13a1.5,1.5,0,0,1,.76,1.19,3.37,3.37,0,0,1,.08,1.05,6.9,6.9,0,0,1-.21,1.19,1.47,1.47,0,0,1-.13.37.83.83,0,0,0-.08.12h0s0,0,.08,0,0,0,0,0a2.9,2.9,0,0,1,0-1.21,1.23,1.23,0,0,0-.09-.63.5.5,0,0,0-.51-.2c-.13,0-.21.16,0,.14Z"/><path class="cls-9" d="M98.2,25.94a6.18,6.18,0,0,1-2.57,1.73c-1.62.22-2-.13-2.66-.85a3.6,3.6,0,0,0,2.24.55A11.44,11.44,0,0,0,98.2,25.94Z"/><path class="cls-9" d="M103.69,25.8a10.75,10.75,0,0,0,3.45,1.33,5.68,5.68,0,0,0,4-1.88s-2.5,1.53-3.65,1.51A19.38,19.38,0,0,1,103.69,25.8Z"/><path class="cls-9" d="M102.9,21.39l.12,1.16c0,.3.07,1,.1,1.26.91-.33,1.71-.78,2.3-.95A11.33,11.33,0,0,1,109,22.2a4,4,0,0,1,1.61.39c.16.08.61.45.83.32s-.11-.51-.13-.56A2.55,2.55,0,0,0,109.05,21a17.48,17.48,0,0,0-6.15.43"/><path class="cls-9" d="M92.15,22.43l.65-.23a14.67,14.67,0,0,1,5.62-.73l.12,1.16c0,.29.1.82.13,1.12-.88-.16-1.65-.38-2.22-.43a9.59,9.59,0,0,0-3.38.08l-.63.19C92,23.1,92,22.53,92.15,22.43Z"/><path class="cls-9" d="M103.74,39H99.55s1.07,1.57,2.09,1.51C102.28,40.53,103.1,39.79,103.74,39Z"/><path class="cls-11" d="M100.09,33.91a1.79,1.79,0,0,0,1.67-.2c.11-.08.47,0,.32.07A2.51,2.51,0,0,1,99.8,34c-.07,0-.06-.07,0-.1a.36.36,0,0,1,.27,0"/><path class="cls-11" d="M102.28,33.63a3,3,0,0,1,1-.32.24.24,0,0,1,.16,0s0,.06,0,.08a1.11,1.11,0,0,1-.56.17c-.06,0-.15,0-.18-.06s0-.09.07-.09a.79.79,0,0,0,.45-.13l.16.13a2.49,2.49,0,0,0-.91.29.21.21,0,0,1-.19,0s-.08-.08,0-.11"/><path class="cls-11" d="M103.71,33.6A1.4,1.4,0,0,0,104.8,33a1.21,1.21,0,0,0-.59-1.52c-.06,0,0-.08,0-.1a.38.38,0,0,1,.23,0,1.49,1.49,0,0,1,.75,1.31,1.16,1.16,0,0,1-.92.9,2.49,2.49,0,0,1-.46.09.28.28,0,0,1-.22-.06s0-.07.09-.08"/><path class="cls-11" d="M99.31,33.73s0-.08-.06-.08a.5.5,0,0,1-.33-.09l-.1.14a1.5,1.5,0,0,1,.66.21.14.14,0,0,0,.14,0s0-.08,0-.11"/><path class="cls-11" d="M99.63,33.77a1.62,1.62,0,0,0-.75-.22.13.13,0,0,0-.11.06.05.05,0,0,0,0,.08"/><path class="cls-11" d="M98.44,33.83a.86.86,0,0,1-.76-.48A1.28,1.28,0,0,1,97.94,32a.05.05,0,0,0,0-.09.13.13,0,0,0-.14.05,1.44,1.44,0,0,0-.38,1.2,1,1,0,0,0,.67.81,1.06,1.06,0,0,0,.31,0,.15.15,0,0,0,.13-.07c0-.06,0-.08-.06-.08"/><path class="cls-9" d="M97.41,11.14a1.45,1.45,0,0,1,.71-.27l.28-.1c.83,0,1.66,0,2.5,0a1.8,1.8,0,0,1,.61.08l0,0c.62-.05,1.24-.08,1.85-.1l.29.06a1.68,1.68,0,0,1,.73.19.24.24,0,0,1,0,.45c-.25.09-.63,0-.8.12s.19.38.08.57-.29.17-.43.26-.22.27-.38.38a.89.89,0,0,1-.65.11c-.24,0-.55-.06-.62.1a.22.22,0,0,0,0,.14.47.47,0,0,1-.34.44.76.76,0,0,1-.66-.07c-.17-.12-.23-.3-.41-.41A1.11,1.11,0,0,0,100,13a.52.52,0,0,1-.21.14.76.76,0,0,1-.66-.07c-.17-.12-.23-.3-.41-.41s-.37-.13-.45-.26.23-.49,0-.67-.55,0-.8-.06A.29.29,0,0,1,97.41,11.14Z"/><path class="cls-9" d="M104,44.5a1.24,1.24,0,0,1-.59.17l-.23.06c-.68,0-1.35-.06-2-.13a1.34,1.34,0,0,1-.49-.1l0,0c-.5,0-1,0-1.5,0l-.23-.07a1.47,1.47,0,0,1-.58-.19.2.2,0,0,1,.07-.37c.21,0,.5.07.65,0s-.13-.32,0-.47.25-.11.37-.17.19-.21.33-.29a.69.69,0,0,1,.53,0c.19,0,.44.08.5,0s0-.07,0-.11a.39.39,0,0,1,.31-.33.6.6,0,0,1,.52.1c.13.1.17.26.31.36l.14.08a.57.57,0,0,1,.19-.1.6.6,0,0,1,.52.1c.13.11.17.26.31.36s.29.12.35.23-.22.39-.07.54.44,0,.64.11A.24.24,0,0,1,104,44.5Z"/><path class="cls-12" d="M122.55,25a1.66,1.66,0,0,0,.73-.17.55.55,0,0,0,.25-.65c-.17-.36-.84-.41-.81-.81.33-.4,1.11-.26,1.29-.74s-.27-.73-.63-.93c.24-.24.17,0,.5-.12s.51-.9.31-1.18-.33-.06-.21-.43c.26-.09-.32-.3-.12-.5a.63.63,0,0,0,.14-.75,1.31,1.31,0,0,1-.16-.83c0-.29-.55-.33-.39-.56.3-.42-.12-1-.52-1.31.23-.16-.05-.2.09-.44a.64.64,0,0,0,0-.76,2.29,2.29,0,0,0-.41-.28c-.55-.42-.24-1.29.11-1.88a1,1,0,0,1-1-.79,3.72,3.72,0,0,0-.08-.67c-.09-.21-.4-.35-.54-.17"/><path class="cls-9" d="M122.42,25.15c.48,0,1.94-.37,1.34-1.16-.12-.17-.32-.22-.48-.34-.37-.28-.07-.38.25-.51s.61-.19.75-.48a.78.78,0,0,0-.46-1s-.67,0-.34.06a.86.86,0,0,0,.16,0,1.34,1.34,0,0,0,.43-.1.93.93,0,0,0,.49-.7,1.06,1.06,0,0,0,0-.53c0-.09-.37-.39-.26-.46a.11.11,0,0,0,.06-.11c0-.1-.14-.14-.16-.23-.06-.3.11-.24.15-.47.08-.39-.14-.6-.18-1,0-.15,0-.32,0-.46s-.25-.15-.29-.25c-.15-.31.09-.6-.12-1s-.34-.39-.38-.64.21-.62.06-1-.66-.39-.78-.84a2.15,2.15,0,0,1,.39-1.42c0-.09-.14-.09-.18-.09a.9.9,0,0,1-.87-.85c0-.28,0-.61-.28-.79a.84.84,0,0,0-.88.12c-.26.19.35.14.48.05a3.15,3.15,0,0,0,.07.9,1,1,0,0,0,.26.51,1.23,1.23,0,0,0,1,.34l-.18-.09c-.28.49-.66,1.28-.24,1.8.21.26.6.32.66.68a2.72,2.72,0,0,1-.16.84.07.07,0,0,0,0,.1,1.66,1.66,0,0,1,.57.77c.05.2-.13.43-.1.57s.34.26.43.5,0,.36,0,.51.16.31.19.47c.06.35-.27.49-.2.8,0,.08.18.14.19.2s-.13.14-.11.24.28.27.33.51a1,1,0,0,1-.1.62c-.12.14,0,0-.16.11s-.37.09-.56.24c0,0-.12.1,0,.14s.53.32.61.59-.21.45-.47.56-.51.13-.68.32-.15.3,0,.51.25.14.36.22c.41.29.45.79-.27.84-.19,0-.67.32-.26.29Z"/><path class="cls-13" d="M121.25,12.14c-.07-.3-.38-1.75-.45-2.05a.68.68,0,0,1-.9-.55c0-.21,0-.46-.12-.58s-.4,0-.61,0c-.47,0-.55-.77-1-.92-.28-.1-.59.08-.87,0s-.5-.76-.91-.93-.62,0-.91,0c-.64-.16-.88-1.1-1.54-1.1-.25,0-.47.17-.71.15-.44,0,.2-.49-.23-.54s-.7.37-1.1.42c-.64.08-1.09-1-1.69-.73-.26.11-.39.4-.65.52-.58.28-1.22-.56-1.85-.4-.32.08-.54.41-.86.45-.51.08-.91-.54-1.41-.49s-.7.49-1.1.47.41-.34.12-.37c-.48-.06-.83.47-1.3.58A2.75,2.75,0,0,1,102,5.84c-.4-.09-1.25.69-1.26,1.1"/><path class="cls-9" d="M121.56,12.06c-.16-.68-.3-1.37-.45-2.05,0-.08-.21-.06-.26-.06-.75.14-.51-.87-.92-1.14s-.64.1-1-.43A1,1,0,0,0,118,7.9c-.58-.06-.53,0-.86-.36-.18-.19-.22-.39-.47-.51-.55-.26-1.12-.06-1.6-.57-.29-.3-.51-.57-1-.6-.15,0-.34.1-.46.07s-.1-.11-.21-.21-.12-.25-.45-.25c-.49,0-.84.49-1.36.28-.33-.14-.52-.52-.9-.61a1.23,1.23,0,0,0-.73.09c-.12,0-.21.18-.32.24-.67.33-.69,0-1.26-.14a1.42,1.42,0,0,0-.84,0c-.12,0-.45.29-.56.31-.63.1-.49-.16-.87-.27a1.44,1.44,0,0,0-1,0c-.14,0-.28.18-.42.22s0,.12.09-.07a0,0,0,0,0,0-.06.85.85,0,0,0-.7,0c-.21.06-.36.21-.55.28-1,.32-.83,0-1.46,0A1.85,1.85,0,0,0,100.43,7c0,.17.57.07.61-.1.14-.66.69-.81,1.29-.74a2.63,2.63,0,0,0,.79,0,2,2,0,0,0,.57-.23c.23-.12.5-.47.28-.1,0,0,0,.07.06.08.25.11.49,0,.73-.08A1.8,1.8,0,0,1,106,5.81a2.17,2.17,0,0,0,.44.19,1.54,1.54,0,0,0,.91-.18,1.1,1.1,0,0,1,.85-.14,6.26,6.26,0,0,0,.75.32,1.5,1.5,0,0,0,.83-.12c.36-.12.3-.48.84-.3.24.08.41.39.65.49a1.17,1.17,0,0,0,.69.08c.08,0,.55-.25.6-.24.42,0,.2,0,.25.28,0,0,0,0,.06,0,.27.09.47,0,.74,0,.83,0,.82.64,1.45.93a1.8,1.8,0,0,0,.56.11c.79.15.6.15,1.07.63a.88.88,0,0,0,.77.34c.31,0,.52,0,.76.2a5.24,5.24,0,0,0,.35.51c.34.27.46.06.78.16s.14.64.5,1a1,1,0,0,0,.92.16l-.26-.05c.16.68.29,1.36.45,2,0,.17.66,0,.62-.16Z"/><path class="cls-14" d="M114.68,8.45a7.05,7.05,0,0,1,4.54,3.94L105.66,7.87a12.3,12.3,0,0,1,2.92-.34A15.35,15.35,0,0,1,114.68,8.45Z"/><path class="cls-9" d="M114.43,8.59A8.63,8.63,0,0,1,117.1,10a8.42,8.42,0,0,1,1.82,2.44l.55-.22-11.88-4-1.68-.56L105.7,8a16,16,0,0,1,8.73.58c.17.06.73-.2.5-.28a16.93,16.93,0,0,0-9.3-.57c-.07,0-.43.2-.22.28l11.88,4,1.69.56c.09,0,.65,0,.55-.23a8.55,8.55,0,0,0-1.85-2.5,9,9,0,0,0-2.75-1.49C114.76,8.24,114.2,8.5,114.43,8.59Z"/><path class="cls-14" d="M95.32,8.89l.19-.1c.32-.17.56-.66.26-.87.66.26,1.11-.88,1.81-.88a5.61,5.61,0,0,1,.59.13.93.93,0,0,0,1-.92,2.25,2.25,0,0,0,1.69.16l4.78,1.46c-2.08.47-4.2,1.28-6.2,1.56a8.2,8.2,0,0,0-2.81.76c-.63.33-1.42.52-2.07.88C94.83,10.34,95.07,9.61,95.32,8.89Z"/><path class="cls-9" d="M95.5,8.94c.39-.2,1-.67.56-1.13l-.54.24a1.34,1.34,0,0,0,.92-.12c.44-.23.72-.77,1.26-.69.78.13,1.77-.11,1.8-1.07l-.6.19a2.79,2.79,0,0,0,1.34.28c.08,0,.67-.06.4-.1l.11,0c.51.18,1,.32,1.54.47l3.12,1,.22-.23c-2,.47-4,1.22-6.12,1.54a10.77,10.77,0,0,0-2.62.63c-.82.35-1.69.67-2.49,1.08h.49c.24-.73.48-1.46.73-2.18,0-.13-.55-.06-.61.1-.25.73-.49,1.45-.73,2.18-.06.17.43,0,.48,0a12.83,12.83,0,0,1,1.33-.55c.41-.17.79-.38,1.2-.55a16.67,16.67,0,0,1,2.89-.6c1.87-.37,3.66-1,5.51-1.44,0,0,.42-.17.22-.23l-2.86-.87-1.61-.5a1.71,1.71,0,0,0-.3-.09,1,1,0,0,0-.29,0,2.16,2.16,0,0,1-1.37-.17c-.13-.06-.59,0-.6.19,0,.35-.17.72-.6.69-.11,0-.23-.08-.35-.09a1.39,1.39,0,0,0-.67.07,1.94,1.94,0,0,0-.56.32c-.16.13-.47.54-.67.48s-.68.09-.55.23c.3.31-.06.67-.34.81S95.34,9,95.5,8.94Z"/><path class="cls-12" d="M95.59,39.4a9.19,9.19,0,0,0,.53,2.23c-.23.08-.13.43,0,.59s.44.34.39.57-.07.16-.09.24c0,.26.27.42.53.48-.17.14,0,.42.15.56s.4.3.34.52-.12.19-.12.29.38.23.51.42,0,.25.07.38a.43.43,0,0,0,.65.21c.05.46.25,1,.71,1,.29,0,.56-.29.82-.18s.24.26.39.36c.5.32,1.11-.74,1.62-.42.27.17.26.64.57.74s.54-.24.84-.28.66.29,1,.14c.13-.07.2-.21.31-.3s.5.1.81.2c.56.16.6-.24.6-.24.16-.39.38-.36.75-.16.13.07.24.18.38.18.35,0,.5-.55.85-.53a1.74,1.74,0,0,1,.34.16.58.58,0,0,0,.7-.77,1,1,0,0,0,.92-1.05.86.86,0,0,0,1.08-.76.84.84,0,0,0,1-1.08.7.7,0,0,0,.88-.64c0-.22-.11-.5.07-.62s.28,0,.43,0a.54.54,0,0,0,.46-.75.75.75,0,0,0,.73-1.13.59.59,0,0,0,.57-.89.92.92,0,0,0,.68-1.36l-7,7.35-1.82.85s-6.48.64-7.71.1S95.59,39.4,95.59,39.4Z"/><path class="cls-9" d="M95.28,39.48c.12.56.19,1.12.31,1.68a8.66,8.66,0,0,0,.13.91c.07.19.27.26.35.43s0,.58.12.79a6.27,6.27,0,0,0,.42.48c-.29-.39.52.85.25.4a.33.33,0,0,1,.22.38.44.44,0,0,1,0,.39c.13.27.39.34.55.62s0,.41.4.52a1.15,1.15,0,0,0,.75-.15l-.48,0c.06.38.16.87.56,1s.53-.11.85-.09.51.34.86.37a1.48,1.48,0,0,0,.73-.22c.33-.17.38-.4.77,0,.12.12.12.31.28.41a.8.8,0,0,0,.61,0c.13,0,.25-.14.38-.16.3-.06.48.09.75.09a2.73,2.73,0,0,0,.63-.14c.21-.06.17-.13.39-.13s.35.15.5.16a1.11,1.11,0,0,0,.6-.11c.09,0,.27-.3.32-.31.21-.07.44.17.7.17a1.26,1.26,0,0,0,.6-.2l.16-.14c.08-.19.17-.21.27-.05a1.59,1.59,0,0,1,.3.06c.57,0,1.15-.45,1-1l-.37.21c.71-.12,1.26-.47,1.29-1.25l-.51.21a1.32,1.32,0,0,0,1.59-1l-.51.19c.78,0,1.64-.4,1.46-1.3l-.51.22a1.4,1.4,0,0,0,.92-.16c.44-.26.28-.56.44-.93s.26-.16.6-.34a.72.72,0,0,0,.39-.84l-.51.22c.73,0,1.66-.5,1.24-1.34l-.44.21c.6,0,1.31-.4,1-1.11l-.36.2c.75-.15,1.44-.71,1-1.55-.08-.15-.52,0-.59.1l-3.17,3.31c-1.24,1.3-2.42,2.76-3.77,3.94,0,0-.14.14-.05.07a1.71,1.71,0,0,0-.34.15c-.46.21-.94.41-1.4.65.41-.21.13-.06-.2,0s-1,.08-1.43.12c-1.33.1-2.66.18-4,.15a2.62,2.62,0,0,1-2.24-.73,24.55,24.55,0,0,1-3.24-5.82c-.07-.16-.67,0-.61.16a29.55,29.55,0,0,0,3,5.53A2.19,2.19,0,0,0,100,46.08a23.23,23.23,0,0,0,3.73,0c1-.05,2.09-.09,3.12-.23a7,7,0,0,0,2-.8,3,3,0,0,0,1-.8L112,42l4.29-4.48-.59.11c.16.33.21,1-.31,1.15,0,0-.41.09-.36.2a.49.49,0,0,1-.13.68c-.06,0-.5.1-.45.21s.23.94-.22.92c-.09,0-.55.06-.51.21.17.73-.4.41-.76.66s-.07,1.24-.57,1.18c-.09,0-.54.06-.51.21a.65.65,0,0,1-.44.87c-.11,0-.47,0-.5.18,0,.32-.2.52-.58.59-.12,0-.51,0-.51.21a.76.76,0,0,1-.55.84c-.06,0-.4.08-.37.2.19.7-.68.32-1.1.53a3.08,3.08,0,0,1-.26.2c-.28.11-.09.08-.43,0a1.35,1.35,0,0,0-.56-.1.91.91,0,0,0-.48.21c-.35.32,0,.29-.42.24-.21,0-.35-.2-.59-.19a1.89,1.89,0,0,0-.52.18c-.1,0-.14.16-.23.18s-.23-.1-.34-.1c-.31,0-.48.07-.78.1-.58.06-.54-.6-1.12-.65a1.27,1.27,0,0,0-.6.15c-.5.22-.4.28-1,.08a1.78,1.78,0,0,0-.6-.11c-.74,0-.9-.09-1-.79,0-.14-.43,0-.48,0,.17-.07-.68-1.12-.69-1.16-.12-.4.31.12,0-.38-.14-.26-.66-.43-.47-.84,0,0,0-.06-.06-.07-.54-.18-.24-.52-.43-.91-.12-.24-.76-.56-.42-.87a.09.09,0,0,0,0-.06,9.43,9.43,0,0,1-.54-2.23C95.86,39.18,95.24,39.33,95.28,39.48Z"/><path class="cls-15" d="M117.83,26.18c-.65-.63.14-1.84-.36-2.59-.11-.17-.29-.3-.39-.49-.27-.52.21-1.19,0-1.73-.1-.24-.33-.42-.41-.67-.16-.48.29-1,.24-1.46s-.74-1-.53-1.56c.11-.25.4-.4.49-.66.15-.46-.36-1,0-1.38.12-.12.31-.15.41-.29s-.14-.6-.27-.9a4,4,0,0,1-.08-1c0-.34-.37-.72-.68-.57.18-.54-.16-2-.73-1.95-.28,0-.64.17-.79-.07s0-.41-.08-.59c-.23-.46-1,.23-1.43-.08-.11-.08-.16-.22-.25-.33A.88.88,0,0,0,112,9.7a2,2,0,0,1-.92.17c-.31,0-.58-.43-.39-.68a2.46,2.46,0,0,1-1,.4.84.84,0,0,1-.89-.52.74.74,0,0,1-1.23.32c-.13-.16-.23-.41-.44-.43a.42.42,0,0,0-.26.08c-.37.2-.87,1.34-1.07,1.71l.16-2.3,6.43-.94,5.31,3.14,2,6.69-2.16,9.27"/><path class="cls-9" d="M118.12,26.07c-.49-.62-.07-1.35-.17-2a1.52,1.52,0,0,0-.25-.63,1.36,1.36,0,0,1-.34-1.21,1.83,1.83,0,0,0,0-.9c-.14-.42-.5-.61-.41-1.12,0-.26.2-.5.23-.77s-.18-.67-.36-1-.15-.66.13-1.1a.94.94,0,0,0,.22-.51c0-.28-.17-.55-.13-.83s.39-.34.5-.62,0-.43-.14-.7a2.5,2.5,0,0,1-.2-1c0-.58-.28-.94-.87-.89l.17.09a2.12,2.12,0,0,0-.39-1.84.69.69,0,0,0-.48-.2c-.23-.05-.27.1-.51-.08s0-.27-.22-.54a.47.47,0,0,0-.39-.2c-.66-.1-.48.23-1.28-.19a1.39,1.39,0,0,0-.59-.24c-.32,0-1.88.49-1.61-.36,0-.18-.44,0-.49,0-.43.25-1.18.37-1.43-.14-.08-.16-.56,0-.61.13-.21.58-1-.25-1.17-.29a1.06,1.06,0,0,0-.67.17c-.6.36-.87,1.23-1.16,1.81l.61-.14.16-2.3-.37.21c2-.3,4.11-.49,6.12-.9a2.54,2.54,0,0,1,.29,0c-.15,0-.25-.09-.11,0a7.48,7.48,0,0,0,1.23.72l3.3,2c.68.4.68.42.91,1.19l1.13,3.78a10,10,0,0,1,.63,2.1,12.07,12.07,0,0,1-.55,2.36l-1.61,6.87c0,.16.58.07.62-.1l1.46-6.27a18.2,18.2,0,0,0,.67-2.88,5.34,5.34,0,0,0-.43-1.68l-1.18-3.94c-.17-.57-.18-1.1-.68-1.42-1.06-.68-2.17-1.28-3.25-1.92-.57-.34-1.33-1-2-1.07a4.83,4.83,0,0,0-1,.15l-2.21.32L106,8.32c-.1,0-.35.08-.36.21l-.16,2.31c0,.15.56,0,.62-.14.22-.44.54-1.48,1-1.63h-.32c.56.27.56.76,1.29.65a1.13,1.13,0,0,0,1-.7l-.62.14c.49,1,1.7.49,2.41.08h-.49c-.21.69.49.78,1,.75s.4-.39,1.34.1c.07,0,.09.16.18.19a2.07,2.07,0,0,0,.7.05c.3,0,.4-.31.71.18.06.1,0,.27,0,.4s.31.16.51.18c.51.07.66-.05.88.53a2.21,2.21,0,0,1,.12,1.27c0,.09.12.09.18.09.58-.05.48.69.51,1s.29.65.33,1c.07.56-.57.65-.49,1.26s.17.64-.1,1.11c-.13.22-.3.28-.31.58,0,.6.58,1,.52,1.6s-.36.9-.06,1.49a1.86,1.86,0,0,1,.25,1.38,1.31,1.31,0,0,0,0,.76c.13.27.38.41.5.69a2.6,2.6,0,0,1,0,1.11,1.68,1.68,0,0,0,.25,1.31c.1.13.69-.08.58-.22Z"/><path class="cls-12" d="M117.93,30.36l-.54.07a.32.32,0,0,1-.17,0c-.12-.08,0-.26,0-.4a1.45,1.45,0,0,0-.24-.93.91.91,0,0,1,0-.94c.11-.13.31-.22.33-.39s-.26-.35-.41-.51a.55.55,0,0,1,.24-.86,1.59,1.59,0,0,1-.26-1.3c.13-.86.38-1.79.38-1.79l1.28-.72Z"/><path class="cls-9" d="M118,30.22a1.46,1.46,0,0,1-.41,0c-.13-.05-.08-.15-.07-.25a1.52,1.52,0,0,0,0-.56c-.12-.38-.57-.92-.26-1.32.2-.25.53-.41.23-.74-.12-.14-.3-.21-.37-.39s0-.45.14-.52.25-.12.17-.22a1.66,1.66,0,0,1-.22-1.36,15.13,15.13,0,0,1,.36-1.65l-.12.11,1.28-.73-.49,0-.5,6.83-.07,1c0,.21.6.08.61-.09l.5-6.83.07-1c0-.2-.41-.07-.49,0l-.87.49c-.22.13-.49.21-.56.46a8.33,8.33,0,0,0-.39,1.95,1.62,1.62,0,0,0,.31,1.09l.17-.21a.72.72,0,0,0-.48,1c.08.16.43.3.45.49s-.2.29-.29.41a.63.63,0,0,0-.15.32,1.41,1.41,0,0,0,.2.8,1.41,1.41,0,0,1,.16.88c0,.21-.05.35.18.42a2.39,2.39,0,0,0,.84-.06C118.16,30.48,118.42,30.17,118,30.22Z"/><path class="cls-15" d="M96.42,9.91c.08.18-.16.33-.36.35s-.44.06-.47.25.07.24,0,.36c-.06.36-.76.06-1,.37s.16.61,0,.79-.25.05-.38.06a.55.55,0,0,0-.48.42c0,.16,0,.35-.1.49s-.35.2-.53.28c-.49.23-.59.86-.6,1.4a2,2,0,0,1-.41,1.5c-.38-.32,0-.65.32-1a3.07,3.07,0,0,0,.28-.35.34.34,0,0,0,0-.41c-.06,0-.14-.07-.18-.13s.26-.24.43-.37.08-.5-.08-.7-.36-.49-.22-.71.43-.22.55-.42,0-.52,0-.78.5-.44.85-.47a.55.55,0,0,1,.24-.84c.13,0,.29,0,.37-.15s0-.45.15-.58.36,0,.5-.12-.06-.53.07-.78.88-.21.84-.57"/><path class="cls-9" d="M96.11,10c0,.11-.45.19-.54.23a.57.57,0,0,0-.27.28.34.34,0,0,0,0,.2c0,.19.11.12,0,.19s-.35,0-.48.06-.47.24-.47.54a1,1,0,0,0,0,.29v.13h0a1.19,1.19,0,0,0-.49.13.91.91,0,0,0-.36.34c-.1.19,0,.44-.16.59s-.35.16-.5.26a1.25,1.25,0,0,0-.38.38c-.46.75.05,1.87-.6,2.51l.53-.07c-.46-.48.69-1,.67-1.54a.35.35,0,0,0-.11-.27c-.13-.16-.18-.1,0-.21a.62.62,0,0,0,.35-.36.69.69,0,0,0-.14-.55c-.09-.15-.31-.34-.29-.52s.24-.27.39-.38a.59.59,0,0,0,.25-.48c0-.17-.08-.35,0-.52s.3-.25.5-.27.45-.13.33-.29c-.21-.31,0-.5.23-.63s.34-.13.43-.32a1.09,1.09,0,0,0,0-.26c0-.19-.09-.07,0-.13s.35,0,.51-.21a.46.46,0,0,0,.12-.41c0-.28-.09-.38.17-.5s.65-.15.66-.5-.62-.12-.62.08-.3.16-.43.22a.73.73,0,0,0-.39.3.77.77,0,0,0,0,.56c0,.18.05.11-.09.13a.69.69,0,0,0-.28.08c-.22.11-.25.23-.29.46s0,.18-.17.26A1.77,1.77,0,0,0,94,10a.67.67,0,0,0-.17,1l.33-.29c-.57.06-1.27.27-1.22,1,0,.29.09.41-.18.59a1.15,1.15,0,0,0-.33.25c-.23.31,0,.61.19.88s.23.35.12.51-.23.11-.32.18-.19.27,0,.46.07.41-.12.64a5.19,5.19,0,0,0-.36.46.53.53,0,0,0,0,.76c.12.13.43,0,.54-.07.7-.68.27-1.64.61-2.45.19-.46.66-.39.93-.74.16-.2.06-.49.23-.67s.36-.1.55-.19c.37-.16.29-.42.26-.75s.12-.17.32-.19a1.12,1.12,0,0,0,.44-.13.51.51,0,0,0,.22-.28c0-.27-.18-.35.16-.42s.68-.23.62-.58-.65-.06-.62.17Z"/><path class="cls-4" d="M90,110l7.23,6.69-1,.13a24,24,0,0,0-3.5-.21c-1.1,0-2.2-.19-3.3-.23a4.94,4.94,0,0,0-2-.44.54.54,0,0,1-.6-.48C86.62,114.48,90,110,90,110Z"/><path class="cls-4" d="M141.87,100.59c-.94-1.47-2.61-.4-3.64-1.8s-3.51-1.4-4.88-2.64c-1.09-1-.5-2.44-1.72-3.2l-.86-12.49-1.85-6.07a37.93,37.93,0,0,1,2.79-11.92c2.46-5.37,5.22-12.22,5.22-12.22s5.47,1.73,7.28,11.57c.86,4.67,2.21,17.59,2.21,17.59s1.58,15.38,1.05,18.33c-.41,2.28-1.18,6.72-4.2,8.89"/><path class="cls-4" d="M81.16,90.09a67.47,67.47,0,0,1,7.6.55c.24,0,4.45,1.25,4.68,1.28.12,1,1.24,4.89.8,6-2.14,5.46-16.9,22.93-16.9,22.93l-4.92,3.59-9.18-7.25,5.49-8.91,5.66-8.61c.12-.52,4-6.71,5.58-7.24"/><path class="cls-6" d="M109.77,75.78h0s0,.1,0,.15Z"/><path class="cls-6" d="M107.28,89.71h0l0-.09Z"/><path class="cls-16" d="M98.42,73.8h.06l0,0A0,0,0,0,0,98.42,73.8Z"/><path class="cls-16" d="M105.71,75.07l0,0v0Z"/><path class="cls-16" d="M98.58,73.81l.07,0S98.61,73.8,98.58,73.81Z"/><path class="cls-16" d="M109.61,75.76s0,0,0,0Z"/><path class="cls-5" d="M129.6,85.74c-.1-1.37-.24-7.21-.31-8.24-.08-1.19-.14-2.11-.18-2.81a4.74,4.74,0,0,1,0-.7,1.1,1.1,0,0,1,0-.26,1.94,1.94,0,0,1,0,.24c0,.17,0,.41.07.71.06.7.15,1.63.26,2.82.07.9.34,6.36.43,7.53C129.82,85.19,129.65,85.57,129.6,85.74Z"/><path class="cls-5" d="M109.51,116c-.53-.78-1-1.55-1.52-2.27l-.13-.13.16-.09,8.17-5,9.51-8.13a.46.46,0,0,1,0,.13l0,.16-9.38,8.11-8,4.88,1.41,2.11,4.43,6.77c6-2.52,6.6-2.49,12.77-5.4.06.06,0,.18.08.25-6.41,3.09-6.77,3-12.83,5.55l-.14.06-.1-.1C112.56,120.73,111.09,118.35,109.51,116Z"/><polygon class="cls-5" points="125.7 100.39 130.24 96.42 129.54 84.43 129.87 84.16 130.62 96.54 125.36 101.03 125.7 100.39"/><path class="cls-5" d="M138.58,110.29s-11.64,6.9-12.07,7.09l.18.21s11.67-6.6,12-7.08Z"/><path class="cls-17" d="M101.65,36.22c1.9,0,5-.18,5-.18s-.58,3.22-5,3.2-5-3.23-5-3.23S99.75,36.21,101.65,36.22Z"/><path class="cls-18" d="M101.64,36.21c.9,0,4.54-.1,4.54-.1s-1.21,1.56-4.47,1.55c-3.54,0-4.58-1.56-4.58-1.56Z"/><path class="cls-17" d="M96.47,35.73a7.45,7.45,0,0,0,1.07.12c.75-.06,1.22-.26,1.76-.3a8,8,0,0,1,1.91.3,8.17,8.17,0,0,1,1.92-.29c.54,0,1.88.24,2.62.31a6.39,6.39,0,0,0,1.07-.11c.14,0-.12,1-5.18,1S96.34,35.76,96.47,35.73Z"/><path class="cls-9" d="M107.18,35.75a1.31,1.31,0,0,1,.58.78,1.46,1.46,0,0,1,0,.36l-.09.55a.18.18,0,0,1,0,.1.21.21,0,0,1-.1.06.85.85,0,0,1-.38,0,.29.29,0,0,1-.27-.24s0-.11,0-.15-.17-.08-.27-.1c-.26,0-.32-.37-.44-.6a1.39,1.39,0,0,0-.83-.61,3,3,0,0,1-.51-.16.51.51,0,0,1-.29-.41"/><path class="cls-9" d="M96.08,36.12a1.31,1.31,0,0,0-.49.83.91.91,0,0,0,.06.36l.14.54a.24.24,0,0,0,0,.1s.07,0,.11,0a.81.81,0,0,0,.38,0,.3.3,0,0,0,.24-.26c0-.06,0-.11,0-.16s.17-.09.27-.12.28-.41.38-.65a1.38,1.38,0,0,1,.77-.67,3.61,3.61,0,0,0,.49-.21.5.5,0,0,0,.25-.44"/><path class="cls-9" d="M107.25,35.19a1,1,0,0,0-.59-.34c-.11,0-.28,0-.37,0s-.15-.21-.23-.28a.72.72,0,0,0-.64-.17,1.16,1.16,0,0,0-.37.13l-.06,0c-.07,0-.08,0,0,0s.06,0,0,0l-.08-.05a.81.81,0,0,0-.91-.09l-.13.09h0c.08,0,.08,0,0-.08a.84.84,0,0,0-.6-.37.93.93,0,0,0-.37.06,2,2,0,0,1-.22.08s0,0-.05-.06-.71,0-.58.23a.58.58,0,0,0,.58.14c.11,0,.28-.13.38-.1s.2.18.28.25a.69.69,0,0,0,.66.14.77.77,0,0,0,.34-.16l0,0c-.2,0-.26,0-.17.06s.11.07.15.1a.84.84,0,0,0,.58.15,1.09,1.09,0,0,0,.38-.14s.1-.07.14-.07c-.14,0,0,.08.06.11s.12.18.2.26a.44.44,0,0,0,.33.13,2,2,0,0,1,.34,0,.78.78,0,0,1,.32.25c.12.15.71-.06.58-.24Z"/><path class="cls-9" d="M100.13,34.41a1,1,0,0,0-.74.1l-.29.18-.08,0c.14-.06,0,0,0,0a1,1,0,0,0-.48.1c-.09,0-.26.14-.29.25q.41,0,.21-.09l-.06,0-.2-.1a.75.75,0,0,0-.42,0,.7.7,0,0,0-.53.41.3.3,0,0,0-.07.1c.19,0,.24-.06.13-.06h-.11a1.51,1.51,0,0,0-.37,0c-.19,0-.55.16-.55.42,0,.09,0,.09.16,0h0l-.24.07c-.09,0-.22.1-.24.2s.59.08.62-.09c-.26.08-.33.11-.23.09h.06l.17,0a.89.89,0,0,0,.27-.15.35.35,0,0,0,.1-.25c0-.07-.19,0-.11,0h.17a1.09,1.09,0,0,0,.7-.18.61.61,0,0,0,.15-.17l.06-.11s.08-.09,0-.06l-.24,0c.07,0,.19.09.26.12a.75.75,0,0,0,.33.07,1,1,0,0,0,.41-.1.71.71,0,0,0,.14-.1c.07-.06.18-.14,0-.1s0,0,.05,0H99a1.33,1.33,0,0,0,.34-.1l.28-.16.11-.06,0,0c-.17,0-.21,0-.12,0a.62.62,0,0,0,.44-.07c.06,0,.2-.14.06-.19Z"/><path class="cls-9" d="M101.7,34.71l.2.85a.35.35,0,0,0,.28.24c.92.07,4.4.36,5.23.31,0,0-.06.34,0,.34l.19,0c.31-.07,0-1.09-.27-1.19a17.28,17.28,0,0,0-5.31-.91A.31.31,0,0,0,101.7,34.71Z"/><path class="cls-9" d="M100.63,34.86v.79a.31.31,0,0,1-.23.27c-.85.17-3.6.76-4.36.79H96l-.24,0c-.29,0-.16-.69.1-.82a13.29,13.29,0,0,1,1.79-.77,15.59,15.59,0,0,1,2.69-.58A.31.31,0,0,1,100.63,34.86Z"/><path class="cls-7" d="M72.46,126.84s-1.38-7.85,5.43-9.78c9.28-2.64,49.85,3.46,49.85,3.46l-55.28,6.32"/><path class="cls-5" d="M137.72,98.05a8,8,0,0,0-3.41-1.38,7.93,7.93,0,0,0-3.69,0c0,.1,1.66,0,3.62.39S137.67,98.15,137.72,98.05Z"/><polygon class="cls-5" points="86.64 62.79 89.41 105.09 88.75 105.53 86.64 62.79"/><path class="cls-7" d="M57,133.1c2.12,11.63,4.79,37.05,8,51.21,0,0,16,3,17.65-.14,0,0,17.9-65,9.14-67.63-6.45-1.92-26.34-1.53-30.18.73C57,120,55.29,124,57,133.1Z"/><path class="cls-7" d="M69.13,126.84a29.53,29.53,0,0,1,5.5.5,12.17,12.17,0,0,1-.46-2.48c.35-.29.72-.59,1.11-.89a35.58,35.58,0,0,1,5.08,2.57,42.64,42.64,0,0,1,5.39,3.82,38.7,38.7,0,0,1,4.53,4.43c.39.46.76.92,1.12,1.4l-.17,0c5.17,7.44,2.74,21.85,4.26,35.51C96.6,181.74,98.2,190,98.2,190c-1.94,3-18.84,1.54-18.84,1.54C75.81,173.13,69.13,126.84,69.13,126.84Z"/><path class="cls-19" d="M79.36,191.55c-3.11-18.33-10.23-64.71-10.23-64.71h-.81l10.47,64.68Z"/><path class="cls-19" d="M94.87,144.83l.52,0c-.77-6.26-4.16-9.26-4.16-9.26a19,19,0,0,1,3,9.14Z"/><path class="cls-19" d="M69.13,126.84s-1.83-7,7.15-9c0,0-9.29.56-8,9Z"/><path class="cls-3" d="M93,125.2a2,2,0,0,1-1.27-1.46c0-.29.21-.37.3-.7L97.28,118c-1.2-.63-3.84,1.45-4.9.6s.36-1.38.62-1.59,5-2.53,5-2.53a51.37,51.37,0,0,1,5.84-.41c1.12.15,4.21,1,4.21,1l1.38.29s3.32,5.1,4.36,7c.09.17-2.44.77-3.73,2a22.44,22.44,0,0,1-4.57,2.6s-5.89,1.32-6.7,1.13a5.42,5.42,0,0,1-1.89-1.41,5.82,5.82,0,0,0-1.56,0c-1.4.1-2.21-1.47-2.21-1.47h0Z"/><path class="cls-20" d="M96.63,118.61a19.71,19.71,0,0,0,2.24-1.48A10.75,10.75,0,0,0,101,115.5a11.45,11.45,0,0,0-2.35,1.35A7.69,7.69,0,0,0,96.63,118.61Z"/><path class="cls-20" d="M100.32,121.06a13.87,13.87,0,0,0-3.51,1.85c-.92.59-1.74,1.15-2.34,1.55a5.25,5.25,0,0,0-1,.67,3.35,3.35,0,0,0,1.08-.47c.63-.35,1.47-.87,2.39-1.46C98.82,122,100.36,121.13,100.32,121.06Z"/><path class="cls-20" d="M102.32,123.45c-.06-.07-1.15.78-2.63,1.63s-2.75,1.38-2.75,1.45a11.74,11.74,0,0,0,5.38-3.08Z"/><path class="cls-4" d="M108.74,113.81l9-4.68,9.41-7c1.54-.38,1.09.77,2.67.69a28.39,28.39,0,0,1,5.13.22c1.64.2-1.31-7.62.31-7.28a56.52,56.52,0,0,1,6.51,2.41c.21.08,3.47,2.27,3.67,2.35-.25,1-.66,4.75-1.47,5.67-3.85,4.4-24.06,14.5-24.06,14.5l-5.63,2Z"/><path class="cls-21" d="M119.64,25.89l0-.77-8.77-1.2h0c-2.84-1-6.74-.07-9,1.51l-2,.18,0,0a9.55,9.55,0,0,0-9.25-.29l.09.32h0a1.28,1.28,0,0,0,0,.13l.09.28c.52,1.76,1.12,3.61,1.63,4.09a4.83,4.83,0,0,0,2.33.48c.33,0,.64,0,.86,0s2.64,0,3-.39.94-3.21,1.1-4.1l2.06-.17c.29.67.94,3.61,2,4.17s6.18.13,6.63-.62a18.66,18.66,0,0,0,1.2-3.46l.38-1.26ZM98.42,30c-.42.38-5.13.43-5.73-.12s-1.24-3-1.52-3.92v0c2.62-1.19,6.14-1.09,8.24.32a17.44,17.44,0,0,1-1,3.75Zm11.39-.64c-.28.47-4.77,1.05-5.83.47-.74-.4-1.25-2.54-1.65-3.77,2.18-1.5,6.52-2.26,9-1.19a26.55,26.55,0,0,1-1.57,4.49Z"/><path class="cls-22" d="M98.39,29.89a17.44,17.44,0,0,0,1-3.75c-2.1-1.41-5.62-1.51-8.24-.32v0c.27.94,1,3.45,1.52,3.92s5.3.5,5.72.12Z"/><path class="cls-22" d="M109.84,29.32a27.46,27.46,0,0,0,1.57-4.49c-2.54-1.06-6.87-.3-9,1.2.39,1.22.91,3.36,1.64,3.76,1.07.58,5.56,0,5.84-.47Z"/></g></svg>