<svg id="Layer_1" data-name="Layer 1" xmlns="http://www.w3.org/2000/svg" xmlns:xlink="http://www.w3.org/1999/xlink" viewBox="0 0 205.83 138.61"><defs><style>.cls-1{fill:none;}.cls-2{fill:#a66e53;}.cls-3{fill:#af6c5d;}.cls-4{fill:#4f2e25;stroke:#4f2e25;stroke-miterlimit:10;stroke-width:0.31px;}.cls-17,.cls-5{fill:#fff;}.cls-6{fill:#f39e24;}.cls-7{fill:#a06c4f;}.cls-8{clip-path:url(#clip-path);}.cls-9{fill:#50939e;}.cls-10{fill:#283f3f;}.cls-11{fill:#010101;}.cls-12{fill:#231f20;}.cls-13{fill:#151210;}.cls-14{fill:#653c29;}.cls-15{fill:#31160e;}.cls-16{fill:#f1eef7;}.cls-17{opacity:0.14;}.cls-18{fill:#273238;}.cls-19{fill:#161312;}</style><clipPath id="clip-path"><rect class="cls-1" x="-23.51" y="-2.81" width="246.86" height="141.24"/></clipPath></defs><path class="cls-2" d="M156.42,74.71l1.09-7s-1.69-8.83-1.35-10.06,1-7.16,1-7.16l6.49-6.29a2.14,2.14,0,0,1,1.94,1.4s2.75-.06,3.22,1.87a1.57,1.57,0,0,1,2.08.78,1.65,1.65,0,0,1,.14.65,7.4,7.4,0,0,1,0,1.76c.38.12,2.61.83,2.55,2a17.76,17.76,0,0,1-1.33,5,1.9,1.9,0,0,1-1.47,1h0l-.89,3s-1,5-2.28,7.27l-.95,1.33L166,77.16A17.37,17.37,0,0,1,156.42,74.71Z"/><path class="cls-3" d="M167,50a12.11,12.11,0,0,0-1.54-4.6l-2.4,1.28a14.68,14.68,0,0,0,.77,2.35,3,3,0,0,0,1.79,2,1.08,1.08,0,0,0,1.36-.41A1.35,1.35,0,0,0,167,50Z"/><path class="cls-4" d="M163.09,46.64a1.35,1.35,0,0,0,.06.49,11.4,11.4,0,0,0,.41,1.25l.3.88a3.35,3.35,0,0,0,.52.92,2.68,2.68,0,0,0,.9.77,1.54,1.54,0,0,0,1.26.13.86.86,0,0,0,.51-.46,1.38,1.38,0,0,0,.06-.64,7.44,7.44,0,0,0-.18-1.15,11,11,0,0,0-.62-1.86c-.22-.51-.43-.87-.57-1.19a3.54,3.54,0,0,0-.26-.41,1.79,1.79,0,0,0,.19.45c.12.28.32.69.52,1.2a13.15,13.15,0,0,1,.56,1.85,8.41,8.41,0,0,1,.17,1.12,1.07,1.07,0,0,1,0,.56.61.61,0,0,1-.4.35,1.39,1.39,0,0,1-1.11-.12,2.53,2.53,0,0,1-.85-.71,3.61,3.61,0,0,1-.51-.87c-.12-.3-.21-.6-.32-.88-.21-.51-.37-.92-.46-1.22A4.11,4.11,0,0,0,163.09,46.64Z"/><path class="cls-4" d="M166.48,51a.28.28,0,0,0,0,.13,2.54,2.54,0,0,0,0,.39,3.45,3.45,0,0,0,.28,1.41A4.39,4.39,0,0,0,168,54.68a1.58,1.58,0,0,0,1.23.36,1.09,1.09,0,0,0,.64-.32,1.1,1.1,0,0,0,.29-.67,6.21,6.21,0,0,0-.13-1.36c-.07-.43-.15-.88-.24-1.23-.18-.77-.34-1.46-.47-2.06s-.24-1.07-.29-1.4a4.7,4.7,0,0,0-.12-.51,3.15,3.15,0,0,0,0,.53,10.57,10.57,0,0,0,.24,1.41c.11.6.27,1.3.43,2.07.08.39.16.8.23,1.22A5.76,5.76,0,0,1,170,54a1,1,0,0,1-.24.56.88.88,0,0,1-.52.27,1.46,1.46,0,0,1-1.1-.32,4.56,4.56,0,0,1-1.26-1.63,4.22,4.22,0,0,1-.32-1.36C166.52,51.37,166.5,51.19,166.48,51Z"/><path class="cls-4" d="M167.66,54.35a1,1,0,0,0-.07.15,2.44,2.44,0,0,0-.13.44,5.19,5.19,0,0,0-.13,1.71,3.78,3.78,0,0,0,.92,2.33,2,2,0,0,0,1.36.69,1.13,1.13,0,0,0,.79-.28,1.62,1.62,0,0,0,.39-.77,21.4,21.4,0,0,0,.17-3.1L170.91,53a14.05,14.05,0,0,1,0-1.69,4.42,4.42,0,0,0,0-.63v.16c0,.11,0,.26-.05.46a16.72,16.72,0,0,0-.09,1.71c0,.72,0,1.57,0,2.51a20.87,20.87,0,0,1-.19,3.06,1.24,1.24,0,0,1-.32.67.88.88,0,0,1-.66.23,1.9,1.9,0,0,1-1.2-.62,3.74,3.74,0,0,1-.92-2.22A7.07,7.07,0,0,1,167.66,54.35Z"/><path class="cls-5" d="M159.29,56.08a1.11,1.11,0,0,0,.18,1.36,2.68,2.68,0,0,0,.89.56l.41.18a1.3,1.3,0,0,1-.43-.11,2.18,2.18,0,0,1-.89-.56,1.24,1.24,0,0,1-.32-1,.66.66,0,0,1,.12-.3A.08.08,0,0,1,159.29,56.08Z"/><path class="cls-6" d="M173.58,19.19l-4.73,11.19a1.4,1.4,0,0,1-1.2.84l-12.1.7a1.39,1.39,0,0,0-.83,2.43l9.14,8a1.38,1.38,0,0,1,.44,1.39l-3.09,11.76a1.38,1.38,0,0,0,2,1.54l10.4-6.25a1.37,1.37,0,0,1,1.46,0l10.24,6.56a1.38,1.38,0,0,0,2.1-1.47L184.72,44a1.39,1.39,0,0,1,.48-1.39l9.4-7.68a1.38,1.38,0,0,0-.76-2.45L181.7,31.43a1.4,1.4,0,0,1-1.17-.88l-4.39-11.32A1.38,1.38,0,0,0,173.58,19.19Z"/><path class="cls-7" d="M157.55,57.56l7.32-7.24a4,4,0,0,1,.54,4.35,11.77,11.77,0,0,1-2.88,3.62c2.86,1.42,5.05,6.08,2.59,9.74"/><path class="cls-4" d="M165.88,66.42a.37.37,0,0,1,.06-.17,2.23,2.23,0,0,0,.15-.52,6.46,6.46,0,0,0,.12-2,7,7,0,0,0-.94-2.89,6.61,6.61,0,0,0-2.75-2.67v.15a19.64,19.64,0,0,0,1.73-1.8,7.15,7.15,0,0,0,1.41-2.23,4.74,4.74,0,0,0,.21-2.21,3.25,3.25,0,0,0-.92-1.89l-.06-.07-.06.06-5.19,5.23L158.14,57l-.4.4-.13.15s.07,0,.16-.12l.42-.39,1.53-1.49L165,50.35h-.13a3.2,3.2,0,0,1,.86,1.74,4.53,4.53,0,0,1-.21,2.13,7.09,7.09,0,0,1-1.31,2.19,21.7,21.7,0,0,1-1.67,1.79l-.09.08.12.06a6.7,6.7,0,0,1,2.69,2.59,7.27,7.27,0,0,1,.93,2.83,6.39,6.39,0,0,1-.08,1.95C166,66.17,165.88,66.41,165.88,66.42Z"/><g class="cls-8"><path class="cls-2" d="M81.89,48.91l-.74,13.8c-.49,1.17-15.77,8.19-15.77,8.19l34.74,11.95L124.49,70.9l-17.27-7.72-.47-13.4"/><path class="cls-9" d="M71.14,65.88S52.14,70.54,46,77.67C37,88,36.13,130.8,34.48,140.79s3,50.39,3,50.39,11.08,2.06,14.5-.45l3.29-49.13,5.27-40.76Z"/><g id="freepik--Character--inject-1209"><path class="cls-9" d="M69.6,67.58l8.91-4.16s.81,10.73,15.91,10.2c14.94-.53,15.21-9.91,15.25-10a15.11,15.11,0,0,1,2.56-.09c1.31,0,2.62.1,3.93,0a74.26,74.26,0,0,1,8.57,0c2.52.12,5.26.18,7.6,1.25a20.14,20.14,0,0,1,9.53,9.58c.2.49,1.4,3.47,1.53,4l6.71,15.5,7.19-25.56.45,1a17.09,17.09,0,0,0,11.63.77l1.41-1s-3.73,45.61-5,52.11c-3.13,9.72-7.1,16.5-18.23,11.17-3.62-1.73-8.17-7.68-12.14-13.9l-.42,25.8s2.38,30.2,3.65,40.11c.19,1.57-19.4,6.5-20.59,6.7-9.36,1.6-29,1.73-38.47.41-1.36-.19-21.83-1.78-21.83-9.34,0-.54.84-71.33.84-71.33Z"/></g><path class="cls-9" d="M80.58,178c-2-.81-3.84-1.77-5.73-2.72s-3.86-1.79-5.74-2.79a51,51,0,0,1-6.42-4.06c.74-7.68,1.46-13.8,1.46-13.8L56.52,90.25c.09-5.87.31-11.76.25-17.63,0-.54,5.47-2.76,6.19-3.1,2.32-1.12,4.66-2.18,7-3.2s5.17-1.55,7.58-2.46c1.08-.41.27,1.24.79,2.26.25.48,1.26,1.18,1.26,1.73l5.73,48.42c.17,4,1.45,21.11,1.45,21.15-.07,1.66,1.42,25.73.84,31.53a55.13,55.13,0,0,1-2.49,10.46A20.55,20.55,0,0,1,80.58,178Z"/><polygon class="cls-10" points="135.4 118.5 137.86 87.21 136.82 120.69 135.4 118.5"/><polygon class="cls-10" points="58.71 115.04 57.38 87.33 57.13 105.72 57.71 121.86 58.71 115.04"/><path class="cls-2" d="M78.44,32.76s-2-3.93-3.41-3.93c-.84,0-2.86,2.25-2.84,4.39,0,2.86,2,6.12,2.52,7.79s.41,4.07,2.64,4.05c.88,0,2-1.85,2-1.85S78.9,35.36,78.44,32.76Z"/><path class="cls-11" d="M77.85,36.63a19.73,19.73,0,0,0-1.78-3.13,6.49,6.49,0,0,0-1.3-1.37,1.79,1.79,0,0,0-.69-.34.51.51,0,0,0-.42.06,1,1,0,0,0-.28.4,4.58,4.58,0,0,0-.19,3.18c0,.23.63.08.58-.15a4.71,4.71,0,0,1,0-2.47,2.59,2.59,0,0,1,.24-.6,1,1,0,0,1,.1-.17s.07-.09,0,0l-.35.12h0s-.07,0,0,0l.08,0h0l.11,0a2.26,2.26,0,0,1,.26.16,6.69,6.69,0,0,1,1.67,1.92,21.23,21.23,0,0,1,1.35,2.48c.11.22.68,0,.58-.16Z"/><path class="cls-11" d="M76.92,37c-1.73-.06-.74,2-.89,3,0,0,0,.1,0,.12s0,0,0,0a2.34,2.34,0,0,1,.26,0s-.22-.34-.23-.37a6.67,6.67,0,0,1-.41-1.47,5.72,5.72,0,0,1-.12-1.75c.07-.66.23-1.66.92-2,.37-.16,0-.46-.25-.33A2.35,2.35,0,0,0,75,36a5.18,5.18,0,0,0-.08,1.62,11.49,11.49,0,0,0,.4,1.83c.1.29.22.73.5.9a.55.55,0,0,0,.77-.26,1.63,1.63,0,0,0,0-.85c0-.29-.42-1.89.12-1.87.13,0,.32,0,.38-.18a.18.18,0,0,0-.18-.24Z"/><path class="cls-2" d="M111.16,32.76s2-3.93,3.41-3.93c.84,0,2.87,2.25,2.84,4.39,0,2.86-2,6.12-2.52,7.79s-.41,4.07-2.64,4.05c-.88,0-2-1.85-2-1.85S110.7,35.36,111.16,32.76Z"/><path class="cls-11" d="M112.31,36.73a16.33,16.33,0,0,1,2.17-3.61,5.23,5.23,0,0,1,.72-.7l.29-.2c.05,0-.06,0,0,0l0,0,.1-.05c.06,0-.08,0,0,0h0c.06,0,.08,0,0,0h0l-.16-.06a2.2,2.2,0,0,1,.38.82,4.78,4.78,0,0,1,0,2.49c-.06.23.53.15.59-.07a4.68,4.68,0,0,0-.12-3c-.11-.26-.22-.6-.55-.56a3.6,3.6,0,0,0-2,1.55,17.4,17.4,0,0,0-2,3.36c-.13.27.45.23.54,0Z"/><path class="cls-11" d="M112.76,37.4c.64,0,.35,1.22.29,1.58s-.29,1.53.44,1.48c.35,0,.55-.37.67-.66a7.73,7.73,0,0,0,.45-1.63,5.64,5.64,0,0,0,.07-1.92,2.5,2.5,0,0,0-1.19-2.12c-.26-.11-.67.26-.33.41.62.27.82,1.09.92,1.7a4.7,4.7,0,0,1,0,1.45,11,11,0,0,1-.38,1.7,2.83,2.83,0,0,1-.23.54s-.09.09-.09.12l.07,0c.44.13.14,0,.14,0s-.06-.18-.06-.26a3,3,0,0,1,0-.43c0-.34.1-.67.13-1a1.77,1.77,0,0,0-.1-1,.8.8,0,0,0-.82-.39c-.34,0-.44.46,0,.44Z"/><path class="cls-2" d="M113.12,34.64c-.29,3.12-.89,6-1,9.29s-.41,7.54-.92,8.75c-.26.62-1.07,1.18-1.55,1.64a32.36,32.36,0,0,1-9.38,6.51c-1.49.61-5.35.61-5.35.61s-3.85,0-5.34-.61a32.82,32.82,0,0,1-5.83-3.67c-1.82-1.25-4.07-2.79-5.26-4.69a4.81,4.81,0,0,1-.39-2c-.24-2.16-.28-4.34-.37-6.51-.14-3.27-.75-6.17-1-9.29S76,18.56,77,16.07,88.79,6.93,94.89,6.93c4.29,0,10.94,3.28,14.85,6.1a9.32,9.32,0,0,1,3.09,3C113.76,18.56,113.4,31.52,113.12,34.64Z"/><path class="cls-12" d="M96,42.74a1.71,1.71,0,0,1-2-.13c-.12-.1-.55,0-.38.16a2.5,2.5,0,0,0,2.85,0c.07-.06.06-.13,0-.17s-.38.09-.46.15"/><path class="cls-12" d="M93.34,42.39a4.33,4.33,0,0,0-1.64-.12.32.32,0,0,0-.22.13c0,.05,0,.12,0,.14a1.59,1.59,0,0,0,.89.05.32.32,0,0,0,.25-.17c0-.08-.07-.12-.14-.1a1.35,1.35,0,0,1-.72,0c-.07.09-.13.18-.2.26a3.83,3.83,0,0,1,1.47.12.32.32,0,0,0,.28-.09s.09-.15,0-.18"/><path class="cls-12" d="M96.79,42.52a4.32,4.32,0,0,1,1.64-.14.34.34,0,0,1,.22.13.08.08,0,0,1,0,.14,1.59,1.59,0,0,1-.89.05.29.29,0,0,1-.25-.16c0-.09.07-.12.14-.11a1.26,1.26,0,0,0,.72,0l.2.27a3.84,3.84,0,0,0-1.47.13.3.3,0,0,1-.28-.09c-.05,0-.1-.14,0-.17"/><path class="cls-12" d="M91.18,42.64a1.7,1.7,0,0,1-1.44-.85,1.85,1.85,0,0,1,.65-2.25c.07,0,0-.12,0-.14a.38.38,0,0,0-.29.07,2.13,2.13,0,0,0-.88,1.91,1.68,1.68,0,0,0,1.25,1.39,2.36,2.36,0,0,0,.59.11c.09,0,.23,0,.27-.11s0-.12-.11-.13"/><path class="cls-12" d="M99,42.66a1.71,1.71,0,0,0,1.44-.84,1.84,1.84,0,0,0-.65-2.25c-.07-.06,0-.13,0-.15a.34.34,0,0,1,.29.08,2.11,2.11,0,0,1,.88,1.91,1.68,1.68,0,0,1-1.25,1.38,2.36,2.36,0,0,1-.6.11c-.08,0-.22,0-.26-.11s0-.12.11-.13"/><path class="cls-13" d="M86.09,31.21a1.44,1.44,0,0,0-1.55.28,1.51,1.51,0,0,0-.42.65,1.44,1.44,0,0,0,.34,1.3,1.32,1.32,0,0,0,1.52.27A1.47,1.47,0,0,0,86.71,32a1.34,1.34,0,0,0-.62-.79"/><path class="cls-13" d="M104.3,31.21a1.46,1.46,0,0,1,1.55.28,1.51,1.51,0,0,1,.42.65,1.44,1.44,0,0,1-.34,1.3,1.33,1.33,0,0,1-1.53.27,1.48,1.48,0,0,1-.72-1.71,1.34,1.34,0,0,1,.62-.79"/><path class="cls-13" d="M99.62,33.42s3.16-2.3,4.78-2.45c2.35-.21,5.26,1,6.1,2.08,0,0-3.85-1.81-5.51-1.61A28.5,28.5,0,0,0,99.62,33.42Z"/><path class="cls-13" d="M91,33.28s-3.16-2.3-4.78-2.45c-2.35-.22-5.26,1-6.1,2.07,0,0,3.85-1.8,5.51-1.6A27.8,27.8,0,0,1,91,33.28Z"/><path class="cls-13" d="M91.14,25c0,.56,0,1.13,0,1.69s0,1.41,0,1.84c-1.27-.37-2.41-.92-3.22-1.08A14.18,14.18,0,0,0,83,26.94a5.2,5.2,0,0,0-2.14.77c-.21.13-.77.73-1.08.57-.12-.06.09-.75.11-.83a3.48,3.48,0,0,1,2.9-2.29A21.91,21.91,0,0,1,91.14,25"/><path class="cls-13" d="M99.52,25c0,.56,0,1.13,0,1.69s0,1.21,0,1.64c1.24-.37,2.32-.81,3.12-1a14,14,0,0,1,4.89-.4,5,5,0,0,1,2.1.77c.21.13.76.73,1.06.57.13-.06-.08-.75-.1-.83a3.45,3.45,0,0,0-2.86-2.29A21.2,21.2,0,0,0,99.52,25"/><path class="cls-13" d="M78.08,50.59a6,6,0,0,0,1.56,2c2.47,1.65,7.3,4,8.73,5.05a6.91,6.91,0,0,0,2.11,1.22,21.64,21.64,0,0,1,4.58-.76,11,11,0,0,1,4.4.86s8.13-5.18,10.65-6.46c.18-.09,1.34-1.53,1.45-1.57s1,2-4.64,5.8c-3.9,2.67-4.92,3.94-8,4.59s-7.43.44-9.33-.45c-2.94-1.37-9.69-6.35-10.74-7.66A5.26,5.26,0,0,1,78.08,50.59Z"/><path class="cls-13" d="M92.51,51.3l5.77-.22c-.13.32-.58,2.72-3,2.47C93.07,53.32,93.54,52.26,92.51,51.3Z"/><path class="cls-14" d="M95.33,46.83c-2.83,0-7.42-.33-7.42-.33S88.76,52,95.33,52s7.43-5.46,7.43-5.46S98.17,46.83,95.33,46.83Z"/><path class="cls-15" d="M95.36,46.83c-1.35,0-6.78-.22-6.78-.22s1.8,2.89,6.67,2.89c5.29,0,6.84-2.85,6.84-2.85Z"/><path class="cls-16" d="M95.42,47C94.07,47,90,46.8,90,46.8s1.48,1.44,5.52,1.44,5.33-1.4,5.33-1.4Z"/><path class="cls-14" d="M103.06,46.1a10,10,0,0,1-1.6.16c-1.11-.09-2.46-.37-3.27-.43a12.1,12.1,0,0,0-2.86.42,12,12,0,0,0-2.85-.42c-.81.06-2.16.34-3.27.43a9.83,9.83,0,0,1-1.6-.16c-.2,0,.19,1.47,7.73,1.47S103.26,46.15,103.06,46.1Z"/><path class="cls-13" d="M94.41,44l-.2,1.3a.46.46,0,0,1-.39.36c-1.32.18-6.35.87-7.54.85h-.09l-.37.33c-.45-.08.08-1.34.51-1.51a31.32,31.32,0,0,1,3.21-1.12A27.28,27.28,0,0,1,94,43.42.47.47,0,0,1,94.41,44Z"/><path class="cls-13" d="M95.67,44,96,45.31a.46.46,0,0,0,.39.36c1.32.17,6.49.4,7.55.78a.14.14,0,0,0,.09,0l.38-.08c.45-.09.14-1-.29-1.13a27.69,27.69,0,0,0-3.47-1.06,29.13,29.13,0,0,0-4.59-.75A.46.46,0,0,0,95.67,44Z"/><path class="cls-17" d="M108.75,37.4a38.55,38.55,0,0,0,2.83-6.29c-3.53-1.86-9.88-1.29-13.21.6.41,1.81.88,5,1.9,5.64,1.46,1,8,.69,8.48,0Z"/><path class="cls-17" d="M82,37.4c.47.64,7,.92,8.48,0,1-.67,1.49-3.83,1.91-5.64-3.33-1.89-9.69-2.46-13.21-.6A38.5,38.5,0,0,0,82,37.4Z"/><path class="cls-18" d="M76.53,32.64l2.13-.45.28.72a25.84,25.84,0,0,0,2.18,4.84c.74,1,8.22,1,9.64.07s1.89-4.55,2.24-5.94a8.36,8.36,0,0,1,2.42-.56,13.07,13.07,0,0,1,2.28.41c.34,1.26.93,5.19,2.28,6.09s8.9,1,9.64-.07a26.53,26.53,0,0,0,2.17-4.84l.29-.72a.78.78,0,0,1,0-.34l2.2.47.17-.61L112.34,31c.08-.21.17-.43.26-.64l-1.71-.59c-4-1.8-9.69-.95-13.1,1a9.85,9.85,0,0,0-2.37-.35,12,12,0,0,0-2.48.34c-3.42-2-9.13-2.82-13.09-1l-1.71.59q.19.46.36,1L76.36,32Zm21.84-.93c3.33-1.89,9.68-2.46,13.21-.6a38.55,38.55,0,0,1-2.83,6.29c-.46.64-7,.92-8.48,0C99.25,36.68,98.78,33.52,98.37,31.71Zm-19.21-.6c3.52-1.86,9.88-1.29,13.21.6-.42,1.81-.89,5-1.91,5.64-1.46,1-8,.69-8.48,0A38.5,38.5,0,0,1,79.16,31.11Z"/><path class="cls-13" d="M113.12,34.64s-.39-14-.34-16.29-7-8.29-10.69-9.59,4.2-.87,6.13-.51,2.06,1.57,2.06,1.57a3.15,3.15,0,0,1,1.76.72l.51.6s1.57.36,1.63,1.08.27,2.29.27,2.29,1.24-.42,1.24,1.38.08.92.08.92,1,1.18.54,2.14-.35.85-.35.85a5,5,0,0,1,.46,1.09,9.42,9.42,0,0,1-.11,5.18,8.76,8.76,0,0,0-.72,3.34Z"/><path class="cls-13" d="M76.58,34.64s.4-14,.35-16.29,7-8.29,10.69-9.59-4.1-.89-6.13-.51-2.07,1.57-2.07,1.57a3.18,3.18,0,0,0-1.76.72l-.51.6s-1.56.36-1.62,1.08-.28,2.29-.28,2.29S74,14.09,74,15.89s-.07.92-.07.92S72.88,18,73.39,19s.35.85.35.85a5.36,5.36,0,0,0-.45,1.09,9.31,9.31,0,0,0,.1,5.18,8.66,8.66,0,0,1,.73,3.34Z"/><path class="cls-13" d="M108.05,8.29S105.55,6.92,104.8,7a1.59,1.59,0,0,0-1.1.63s-.26-1-1.18-.87a6.32,6.32,0,0,0-1.26.24s-.64-.77-1.05-.77-1,.53-1,.53a1,1,0,0,0-1-.53c-.7.12-.87.47-.87.47a1,1,0,0,0-1.1-.48,3.29,3.29,0,0,0-1.19.54s-.73-.85-1.19-.57l-.47.28s-.52-.73-.93-.34a4.56,4.56,0,0,1-.69.57s-.18-.35-.76-.23a1.91,1.91,0,0,0-.81.3,3,3,0,0,0-1-.14c-.46,0-.52.57-.52.57a.77.77,0,0,0-1.12-.43l-.79.43a6.2,6.2,0,0,0-1.57.6c-.52.35-.29,1.45-.29,1.45l-3.12,3.15A23.32,23.32,0,0,1,94.59,8.81a30.92,30.92,0,0,1,13.83,3.36Z"/><path class="cls-13" d="M99.62,8.57a2.87,2.87,0,0,1,1.26.37.42.42,0,0,1-.11.78c-.43.14-1.08-.1-1.39.15s.3.68.1,1-.51.27-.76.42-.41.45-.69.64a1.48,1.48,0,0,1-1.14.14c-.38-.11-.64-.37-.62-.64a.44.44,0,0,0,0-.2c-.17-.32-1.05,0-1.4-.22-.16-.11-.12-.28-.18-.43a1,1,0,0,0-.3-.33l-.85-.7a.74.74,0,0,1-.25-.28c-.1-.23.14-.47.45-.59a3.67,3.67,0,0,1,1.06-.16c1.44-.06,2.89-.09,4.34-.08"/><path class="cls-13" d="M89.93,8.31a2.62,2.62,0,0,0-1.26.42.52.52,0,0,0,.1.91c.44.15,1.09-.12,1.4.17s-.3.78-.1,1.16c.12.23.51.3.76.47s.4.52.69.74a1.3,1.3,0,0,0,1.14.16.81.81,0,0,0,.62-.74.36.36,0,0,1,0-.23c.17-.37,1,0,1.4-.25.16-.12.12-.32.18-.49a1,1,0,0,1,.3-.39l.84-.8a.86.86,0,0,0,.26-.32c.1-.27-.14-.55-.46-.68a3,3,0,0,0-1-.18c-1.45-.08-2.89-.11-4.34-.1"/><path class="cls-13" d="M92.45,9.15a2.74,2.74,0,0,0-1.25.43.51.51,0,0,0,.1.9c.44.16,1.09-.11,1.39.17s-.3.79-.1,1.16.51.31.77.48.4.52.68.73a1.34,1.34,0,0,0,1.14.17.8.8,0,0,0,.62-.74.65.65,0,0,1,0-.24c.17-.36,1.06,0,1.41-.24.15-.13.11-.33.17-.49a1,1,0,0,1,.31-.39l.84-.8A1,1,0,0,0,98.8,10c.09-.26-.14-.54-.46-.68a3.32,3.32,0,0,0-1.06-.18C95.84,9,94.39,9,92.94,9"/><path class="cls-13" d="M104.26,45.73a2,2,0,0,1,.82,1.23,2,2,0,0,1-.07.55l-.18.83a.28.28,0,0,1-.06.16.34.34,0,0,1-.17.08,1.44,1.44,0,0,1-.58.06.47.47,0,0,1-.39-.39c0-.08,0-.17,0-.24s-.26-.13-.42-.17c-.38-.1-.26-1.2-.43-1.56s-.91-.2-1.42-.38a3.85,3.85,0,0,1-.76-.29.76.76,0,0,1-.42-.65"/><path class="cls-13" d="M86.27,46a1.94,1.94,0,0,0-.82,1.23,2.06,2.06,0,0,0,.06.55l.19.83a.28.28,0,0,0,.06.16.38.38,0,0,0,.17.08,1.43,1.43,0,0,0,.58,0,.46.46,0,0,0,.39-.38.69.69,0,0,1,0-.25c.07-.14.27-.12.42-.16a1,1,0,0,0,.63-1c0-.35-.25-.75.26-.93.25-.09,1.5-.2,1.73-.34a.78.78,0,0,0,.42-.65"/><path class="cls-19" d="M108.65,8.94a4.07,4.07,0,0,0-3.3-1.39,2.81,2.81,0,0,1-1.12,0c-.42-.16-.68-.57-1-.83a2.64,2.64,0,0,0-2.57-.08,1.2,1.2,0,0,1-.66.16c-.34,0-.53-.42-.76-.68a1.78,1.78,0,0,0-2.15-.37c-.39.22-.71.6-1.16.63-.84.05-1.34-1.18-2.18-1.12s-1.21,1-1.88.78c-.32-.1-.51-.45-.82-.6-.88-.43-1.63,1-2.62,1.06-.7,0-1.44-.68-2-.27-.19.15-.29.39-.48.54-.35.27-.85.13-1.29.17a3,3,0,0,0-1.86,1.24L81.49,9.58"/><path class="cls-13" d="M109.33,8.67A4.6,4.6,0,0,0,107,7.31c-.89-.21-1.88.08-2.67-.44A3.74,3.74,0,0,0,102.59,6a4.12,4.12,0,0,0-1.11.07,6.84,6.84,0,0,1-1.13.34c-.15,0-.38-.46-.47-.55a2.17,2.17,0,0,0-.94-.57,3,3,0,0,0-1.67,0c-.86.26-1.08.78-1.9.14A2.07,2.07,0,0,0,94,4.86a2.76,2.76,0,0,0-1.36.46c-.63.39-.36.16-1-.18A1.34,1.34,0,0,0,91.07,5a2.68,2.68,0,0,0-1.43.39c-.83.46-.9.71-1.86.46A2.22,2.22,0,0,0,86.12,6a3.42,3.42,0,0,0-.4.26,1.59,1.59,0,0,1-1,.33c-1.76.21-2.83,1.83-3.91,3-.37.42,1.06.3,1.34,0,.59-.67,1.4-2,2.25-2.22a13.62,13.62,0,0,0,1.65-.3c.19-.09.34-.22.52-.32.49-.27,0-.16.62-.05a3.2,3.2,0,0,0,1.34.1,3.47,3.47,0,0,0,1.19-.5c.13-.08.53-.52.7-.51s.45.38.67.48a1.74,1.74,0,0,0,1.29,0c.29-.09.93-.66,1.17-.66s.86.74,1.23.91A1.94,1.94,0,0,0,96,6.66c.7-.13,1.14-.68,1.83-.6s.86.83,1.57,1A2.42,2.42,0,0,0,100.57,7c.79-.16,1.52-.38,2.19.19a4.8,4.8,0,0,0,.59.51,3,3,0,0,0,1.71.23A3.77,3.77,0,0,1,108,9.21c.31.33,1.69-.2,1.36-.54Z"/><path class="cls-10" d="M150.1,93.83s-1.25,6.81-1.78,10.93l-.53,4.13a57.72,57.72,0,0,1,1.61-16.68Z"/></g><path class="cls-11" d="M78.26,52.24a6.06,6.06,0,0,1,1.13,2.62c.34-.25.79.11,1,.47s.44.83.85.87c.25,0,.53-.1.72,0s.13.5.2.76c.21.83,1.71.55,2,1.36.08.25,0,.54.15.76.36.56,1.39-.08,1.8.43.17.2.16.51.33.7.34.36,1,0,1.42.22s.33.65.61.85.92,0,1.33.16.55,1,1,1,.63-.43,1-.52c.67-.16,1.19.94,1.85.75.23-.07.4-.28.62-.36.57-.21,1.16.48,1.74.32.4-.12.67-.61,1.08-.6.24,0,.43.17.66.23,0,0,.78.47,1.15-.1l.37-.57a2.05,2.05,0,0,0,1.09,0c.46-.16.92-1,.92-1s1.15-.09,1.36-.41.55-.8.55-.8a3.38,3.38,0,0,0,1.17-.26,2,2,0,0,0,.5-.9s1.21,0,1.42-.32a3.87,3.87,0,0,0,.36-1,1.34,1.34,0,0,0,1.09,0c.52-.26.75-1.46.75-1.46a4.14,4.14,0,0,0,1-.29,4.19,4.19,0,0,0,.64-1.2s1.61-.61,1.23-.87,0-2.33,0-2.33A10.26,10.26,0,0,1,109.83,53c-.52.34-1.32.09-1.48.56s-1,1-1,1a1.78,1.78,0,0,0-1.21.68,5.84,5.84,0,0,0-.84,1.12s0-1-.88-.16a6,6,0,0,1-1.25,1.06s-1-.58-1.18,0a5.2,5.2,0,0,1-1,1.28s-.63-.8-1.15-.22a4.94,4.94,0,0,1-1.25,1l-7.58,0a.76.76,0,0,0-.57-.28c-.37,0-1.16,0-1.16,0s-.16-1.07-.59-.86a1.74,1.74,0,0,1-1.06,0,3,3,0,0,0-.66-.63c-.35-.22-1-.53-1-.53s.19-1-.41-.86a1.72,1.72,0,0,1-1.17-.21s0-.9-.5-.75a4.9,4.9,0,0,1-1,.21,8,8,0,0,0-.63-.8l-.52-.31s-.67-1.32-1-1.32H80s-.58-1.48-.94-1.26-.76-1.35-.76-1.35A2,2,0,0,0,78.26,52.24Z"/></svg>