<svg id="Layer_1" data-name="Layer 1" xmlns="http://www.w3.org/2000/svg" xmlns:xlink="http://www.w3.org/1999/xlink" viewBox="0 0 205.83 138.61"><defs><style>.cls-1,.cls-34{fill:none;}.cls-2{clip-path:url(#clip-path);}.cls-3{fill:#50939e;}.cls-4{clip-path:url(#clip-path-2);}.cls-5{fill:#a66e53;}.cls-6{fill:#4f2e25;}.cls-7{fill:#895522;stroke:#895522;stroke-width:0.22px;}.cls-27,.cls-29,.cls-32,.cls-33,.cls-34,.cls-36,.cls-37,.cls-7,.cls-8{stroke-miterlimit:10;}.cls-8{fill:#395557;stroke:#395557;stroke-width:0.22px;}.cls-9{fill:#1c3b53;}.cls-10{fill:#513835;}.cls-11{fill:#132b3a;}.cls-12{fill:#825639;}.cls-13,.cls-29,.cls-32,.cls-33{fill:#151210;}.cls-14{fill:#231f20;}.cls-15{fill:#010101;}.cls-16{fill:#161312;}.cls-17{fill:#171514;}.cls-18{fill:#181615;}.cls-19{fill:#191716;}.cls-20{fill:#745245;}.cls-21{fill:#653c29;}.cls-22{fill:#31160e;}.cls-23{fill:#f1eef7;}.cls-24{fill:#273339;}.cls-25,.cls-35{fill:#fff;}.cls-25{opacity:0.14;}.cls-26{fill:#dbad63;}.cls-27,.cls-36,.cls-37{fill:#a06c29;stroke:#a06c29;}.cls-27{stroke-width:0.21px;}.cls-28{fill:#c47c2b;}.cls-29,.cls-32,.cls-33,.cls-34{stroke:#161311;}.cls-29{stroke-width:0.1px;}.cls-30{fill:#13110f;}.cls-31{fill:#ce8d2a;}.cls-32{stroke-width:0.09px;}.cls-33{stroke-width:0.1px;}.cls-34{stroke-width:0.23px;}.cls-36{stroke-width:0.19px;}.cls-37{stroke-width:0.2px;}</style><clipPath id="clip-path"><rect class="cls-1" x="-20.51" y="-182.13" width="246.86" height="141.24"/></clipPath><clipPath id="clip-path-2"><rect class="cls-1" x="-3.44" y="-0.99" width="214.71" height="139.59"/></clipPath></defs><g class="cls-2"><g id="freepik--Character--inject-1209"><path class="cls-3" d="M61.58-68.46l11-43.28,8.91-4.16s.81,10.73,15.91,10.2c14.94-.53,15.21-9.91,15.25-10a15.11,15.11,0,0,1,2.56-.09c5.87-.1,12.31-1,17.87,1.3a21.57,21.57,0,0,1,9,7.71c4.52,6.43,7.57,14.2,11,21.27l5-25.9,1.41.94a19.39,19.39,0,0,0,12.43.51l.82-.25s-2.73,45.61-4,52.11c-3.13,9.72-7.1,16.5-18.23,11.17C146.92-48.64,142.92-53.74,139-60l0,25s1.38,30.2,2.65,40.11c.19,1.57-19.4,6.5-20.59,6.7"/></g><path class="cls-3" d="M72.11-6.84a51,51,0,0,1-6.42-4.06,108.52,108.52,0,0,0,.46-13.8L59.52-89.07c.09-5.87.31-11.76.25-17.63,0-.54,5.47-2.76,6.19-3.1,2.32-1.12,4.66-2.18,7-3.2s5.17-1.55,7.58-2.46c1.08-.41.27,1.24.79,2.26.25.48,1.26,1.18,1.26,1.73L88.35-63c.17,4,1.45,21.11,1.45,21.15-.07,1.66,1.42,25.73.84,31.53A55.13,55.13,0,0,1,88.15.09"/></g><g class="cls-4"><path class="cls-5" d="M136.73,89.93,134,87.24s-3.36.7-5.2,0a15,15,0,0,1-3.61-2.18L121,83.56s-2.24.38-2.38-.29.67-1,1.46-1.37,12.53-1.37,12.53-1.37a19.41,19.41,0,0,0-2.84-2.09c-1.56-.93-1.4-2.13-.63-2.81s3,.88,3.45,1.83,2.92,1,4.34,2.18,1.72,3.65,1.72,3.65c.5.53,1.88,1.79,1.88,1.79S136.73,89.93,136.73,89.93Z"/><path class="cls-6" d="M123.5,83.48a1.17,1.17,0,0,1,.59-.55,3.8,3.8,0,0,1,2.55,0A7.65,7.65,0,0,1,128.85,84a3.26,3.26,0,0,1,.79.64,4,4,0,0,1-.89-.47,9.71,9.71,0,0,0-2.19-1,4.12,4.12,0,0,0-2.4-.06,1.3,1.3,0,0,0-.57.44,2.1,2.1,0,0,0-.14.23S123.42,83.66,123.5,83.48Z"/><path class="cls-6" d="M129,82.72a5.24,5.24,0,0,1,1.72,0A6,6,0,0,1,129,83a5.24,5.24,0,0,1-1.72,0A5.8,5.8,0,0,1,129,82.72Z"/><path class="cls-6" d="M131.63,83a7.06,7.06,0,0,0-.85,1.35,2.07,2.07,0,0,1,.65-1.51,2.3,2.3,0,0,1,1.45-.86A14.82,14.82,0,0,0,131.63,83Z"/><polygon class="cls-7" points="96.02 102.77 95.41 103.67 95.17 103.5 95.84 102.53 96.02 102.77"/><path class="cls-5" d="M36.45,31.53a18.28,18.28,0,0,1-1.68,11.38c-.29.55-3.3,1.73-3.3,1.73l4.77,1.68c3.28.83,10.66,1,13.87.09L52.81,45s-3.34-.81-3.49-1.53a58.23,58.23,0,0,1,.6-6"/><path class="cls-5" d="M50.1,44.08l-15.76-.4-2.34,5s4.14,3.72,4.57,3.91S47,55.09,47,55.09s11.39-3.56,11.24-3.53S50.1,44.08,50.1,44.08Z"/><g id="freepik--Character--inject-2"><path class="cls-3" d="M68.93,62.11,65.78,51.27a30.43,30.43,0,0,0-5.91-2.63c-2-.65-5.1-1.27-6.3-1.65a3.87,3.87,0,0,1-1.18,3.91,9.17,9.17,0,0,1-5.41,2,15.86,15.86,0,0,1-5.53-1c-3.29-1.16-7.11-4.94-7.87-8.53l-1.3.53s-13.64,5.4-15.24,6,3.33,41.8,3.33,41.8l-3.64,17.64c-.37,1.71-9.42,13-3.73,26.44,0,0,35.65-11,39.38-11,4.34-.07,11.26-.1,12.36-2.17S68.93,62.11,68.93,62.11Z"/><path class="cls-5" d="M108.4,94.37s3.45-3.31,5.59-3.88c.61-.16,5.31-3.49,5.31-3.49s1.29.86-.34,2.52-2.34,2.31-2.34,2.31l-.23.66,3.73,1.2s4.46.68,5.52.94,3.35.71,3.45,2.11c0,0,1.72.21,1.71,1a1.25,1.25,0,0,1-.42,1.07l-.83.11s.42.26,0,1-7.83.44-7.83.44l-.4.24s4.93,1,5,1.48.19.85-.62,1-14.46-.79-16-1.21-1.89-.47-1.89-.47l-.65-7.05Z"/><path class="cls-6" d="M129.26,98.68a23.35,23.35,0,0,1-3.83-.18,24.25,24.25,0,0,1-3.8-.5,23.35,23.35,0,0,1,3.83.19A24.24,24.24,0,0,1,129.26,98.68Z"/><path class="cls-6" d="M129.09,96.89c0,.09-1.67-.2-3.72-.42s-3.72-.3-3.71-.39a14.73,14.73,0,0,1,3.75.08A14.47,14.47,0,0,1,129.09,96.89Z"/><path class="cls-3" d="M67.83,98.08c2,4.51,9.83-2.56,14-5.18a7,7,0,0,1-1.2-3.11C80,86.63,78.91,83.21,78.41,80c-.63-4-2.24-9.76-3-13.71a57.32,57.32,0,0,0-1.51-5.9,13.31,13.31,0,0,0-2.16-4.62c-1.12-1.37-5.56-4.91-8.05-5.39L57.36,65.67s1.66,12.42,4.94,16c.12.14,1.83,5.14,2,5.29C64.39,86.89,65.65,93.08,67.83,98.08Z"/><path class="cls-3" d="M107.39,93.56l-7-.5S84,90.52,80.56,89.31l-1.31,1.83c-2.44,3.5-11.42,6.94-11.42,6.94,4.46,9.79,23.74,7.34,27.17,6.84,3.72-.54,12.93-1.33,12.93-1.33Z"/><path class="cls-8" d="M67.5,84.94c.07,0,.07-1.14.14-1.13.14-2.16,1.13-14.79,1.22-16.45s.17-3.21.2-4.2a13.41,13.41,0,0,0,0-1.55,13.22,13.22,0,0,0-.19,1.54c0,1.07-.16,2.46-.32,4.2S67.14,93.5,67,95.66C67,95.64,67.45,84.94,67.5,84.94Z"/><path class="cls-8" d="M25.43,61.92a16.75,16.75,0,0,1-.5-1.71,19.8,19.8,0,0,0-4-7.43,16.51,16.51,0,0,1-1.16-1.35,6.27,6.27,0,0,1,1.34,1.18,16.59,16.59,0,0,1,4.09,7.54A5.88,5.88,0,0,1,25.43,61.92Z"/></g><path class="cls-6" d="M118.47,94.29a7.89,7.89,0,0,1-3.91,5.53S119.73,97.69,118.47,94.29Z"/><path class="cls-8" d="M80.62,89.79a7,7,0,0,0-2.38,4.5S78.3,90.23,80.62,89.79Z"/><path class="cls-9" d="M99,133.23C96.81,145,94.11,170.7,90.86,185c0,0-16.2,3.07-17.85-.15,0,0-18.1-65.74-9.24-68.39,6.53-2,26.64-1.55,30.53.74C99,120,100.64,124,99,133.23Z"/><path class="cls-10" d="M99.68,124h0v-.08Z"/><path class="cls-9" d="M79,141.73c.16-1,.37-1.94.62-2.89a40.94,40.94,0,0,1,2.25-6.29,43.32,43.32,0,0,1,3.3-6,36.32,36.32,0,0,1,2.79-3.74c-20.22-4.38-62.53-2.21-62.53-2.21S11,119.13,13.14,137.29c1.72,14.71,50,8.86,65.6,4.5Z"/><path class="cls-9" d="M86.65,126.9a29.23,29.23,0,0,0-5.57.5,13,13,0,0,0,.47-2.51c-.36-.3-.73-.6-1.12-.9a37,37,0,0,0-5.15,2.59,45.38,45.38,0,0,0-5.44,3.87,38.1,38.1,0,0,0-4.58,4.49q-.58.69-1.14,1.41l.18,0c-5.23,7.53-2.78,22.1-4.31,35.91-1.13,10.13-2.74,18.5-2.74,18.5,2,3.05,19,1.56,19,1.56C79.89,173.71,86.65,126.9,86.65,126.9Z"/><path class="cls-11" d="M76.3,192.34c3.14-18.54,10.35-65.44,10.35-65.44h.81L76.88,192.31Z"/><path class="cls-11" d="M60.61,145.09l-.52,0c.77-6.33,4.21-9.36,4.21-9.36A19.15,19.15,0,0,0,61.24,145Z"/><path class="cls-9" d="M83.28,126.9s1.39-8-5.5-9.9c-9.38-2.66-50.41,3.5-50.41,3.5l55.91,6.4"/><path class="cls-12" d="M35.74,33.4a.43.43,0,0,1,0,.05A.11.11,0,0,1,35.74,33.4Z"/><path class="cls-5" d="M47.88,44.38l6,0,3-.58c.31,0,1.73-3,2-3.38a25.24,25.24,0,0,0,2-4c.47-1.39,1.4-2.57,1.67-4.25A8.08,8.08,0,0,0,62.13,28a2.79,2.79,0,0,1,0-1.57c.31-1.15.45-2.5.83-4a3.1,3.1,0,0,0,.15-.85s.5-6.46-.59-8.82a7,7,0,0,0-4.49-4c-1.68-.5-6.72-.37-6.72-.37L44.4,7.12l-6,2.72L35.14,16.9l.14,8.34.63,7.47"/><path class="cls-13" d="M37.28,24.69c0,.65.71,3.88.76,4.51L34.71,29c-.93-2.24-2-4.88-2.4-5.48-.57-.94,1.29-5.47,1.31-7.15V16c0-1.62,1.65-4.13,4.37-6.73,4.68-4.47,4.45-4.53,11.41-3.8.48,0,1,.12,1.42.2,4.36.8,8,.85,10.7,4.61,1.93,2.72.52-.66.29,1.18,0-3.64.59-.62.23-1.06-2.12-2.58-3.3.06-4.37-.14a3.64,3.64,0,0,0-1.79.11,8.33,8.33,0,0,1-3.21-.17c-.84-.15-2.94-.7-3.12-.75-.56-.41,0-2.58-1-2.77a14.79,14.79,0,0,0-6.93,1c-1.4.6-4.75,1.88-4.41,5.6"/><path class="cls-13" d="M56.24,43a.21.21,0,0,1-.11,0c-.62-.45-.66-.68-1-.77a1.53,1.53,0,0,0-.32-.09c-.9-.15-1.44-.27-3.89,1.17-.05,0-3.18-.49-3.24-.49l-1.6-.83C45.85,41.74,40,36.4,40,36.4c-.09-.17-1.14-1.43-1.18-1.59l-.06,0,0,0v0a.75.75,0,0,0,0,.21,3.52,3.52,0,0,0,.14.91c.12.46.19.92.29,1.38,0,.16.09.32.14.48.68.45,4.89,6.17,7.36,7.5a11.22,11.22,0,0,0,2,.38,20.37,20.37,0,0,0,7.62-.25,2.3,2.3,0,0,0,1.51-1.22A42.31,42.31,0,0,0,60.88,36c-.76,1.49-2.36,4.68-3.46,6.86a9,9,0,0,1-1.09.1"/><path class="cls-5" d="M36.62,33.58c-2.78,2.52-3.15-2-3.15-2A8.56,8.56,0,0,1,32,25.23c.14-1.64,1.95-1.53,1.95-1.53,1.53.24,2.17,1.1,3.21,6.34"/><path class="cls-13" d="M56.75,8.79c-2.49-.12-9-2-12.37-2.37-1.4-.13-6.17,3.19-6.8,4-1.44,1.77,1.63,6-.94,11.73-.85,1.88-1.86-1.49-2.9-.27s-1.43,1.71-1.43,1.71c-.57-5.55-.56-5.36.83-10.78s7.4-7.6,10.29-8S55.51,5.63,58,6.87"/><path class="cls-14" d="M35.92,29a13.2,13.2,0,0,0-1.14-2.25,4,4,0,0,0-.83-1,1.15,1.15,0,0,0-.46-.25c-.2,0-.29.12-.38.27A3.16,3.16,0,0,0,32.87,28c0,.07.27,0,.25-.07a3.46,3.46,0,0,1,.07-1.75,1.73,1.73,0,0,1,.3-.57l-.17.06c-.06,0,0,0,0,0l.06,0a1.39,1.39,0,0,1,.31.18,5,5,0,0,1,1.11,1.43,14.52,14.52,0,0,1,.85,1.78c0,.08.28,0,.26-.07Z"/><path class="cls-14" d="M35.3,29.26c-1.06-.09-.51,1.4-.62,2,0,0,0,.06,0,.09s0,0,0,.05,0,0,0,0l-.06-.07-.08-.17a4.72,4.72,0,0,1-.25-1.05,4.16,4.16,0,0,1,0-1.27c.07-.49.24-1.17.76-1.37.17-.06,0-.2-.12-.15a1.61,1.61,0,0,0-.84,1.2A3.47,3.47,0,0,0,34,29.59a7.28,7.28,0,0,0,.22,1.32c.05.19.12.5.31.61a.29.29,0,0,0,.4-.17,1.1,1.1,0,0,0,0-.57c0-.29-.25-1.38.27-1.33.13,0,.26-.17.09-.19Z"/><path class="cls-13" d="M49.2,24.59a1,1,0,0,0-1.41.57,1,1,0,0,0,.19.92.93.93,0,0,0,1.05.24,1,1,0,0,0,.57-1.16.89.89,0,0,0-.4-.57"/><path class="cls-13" d="M60.2,25.25a1,1,0,0,1,1.07.25,1,1,0,0,1,.27.47,1,1,0,0,1-.28.89.94.94,0,0,1-1.08.13,1,1,0,0,1-.43-1.22.88.88,0,0,1,.45-.52"/><path class="cls-13" d="M57,26.53s1.62-1.46,2.75-1.5c1.65-.07,2,.33,2.59,1.11a3.61,3.61,0,0,0-2.19-.77A11.21,11.21,0,0,0,57,26.53Z"/><path class="cls-13" d="M51.64,25.84s-2.22-1.57-3.35-1.66a5.79,5.79,0,0,0-4.24,1.5s2.67-1.3,3.83-1.17A20.09,20.09,0,0,1,51.64,25.84Z"/><path class="cls-13" d="M52.49,20.24l-.12,1.17c0,.3-.07,1-.1,1.28-.92-.34-1.73-.79-2.33-1a11,11,0,0,0-3.62-.67,4.29,4.29,0,0,0-1.64.39c-.16.08-.61.46-.83.33s.11-.52.13-.57a2.57,2.57,0,0,1,2.29-1.4,17.63,17.63,0,0,1,6.22.43"/><path class="cls-13" d="M63.37,21.3l-.67-.24A14.9,14.9,0,0,0,57,20.32l-.12,1.17c0,.3-.11.84-.13,1.14.89-.17,1.66-.39,2.23-.44a9.58,9.58,0,0,1,3.42.09l.64.19C63.48,22,63.51,21.4,63.37,21.3Z"/><path class="cls-13" d="M51.64,38.51h4.24s-1.08,1.58-2.12,1.53C53.12,40,52.29,39.27,51.64,38.51Z"/><path class="cls-15" d="M55.34,32.9a1.85,1.85,0,0,1-1.7-.2c-.1-.07-.47,0-.32.08a2.57,2.57,0,0,0,2.31.23c.07,0,.06-.08,0-.11a.42.42,0,0,0-.27,0"/><path class="cls-15" d="M53.12,32.62a3.14,3.14,0,0,0-1-.32.23.23,0,0,0-.16,0s0,.07,0,.09a1.12,1.12,0,0,0,.57.17.23.23,0,0,0,.18-.06s0-.09-.07-.09a.88.88,0,0,1-.46-.13l-.17.13a2.58,2.58,0,0,1,.93.29.21.21,0,0,0,.19,0s.08-.07,0-.11"/><path class="cls-15" d="M51.68,32.59A1.45,1.45,0,0,1,50.57,32a1.23,1.23,0,0,1,.59-1.55c.06,0,0-.08,0-.09a.35.35,0,0,0-.23,0,1.52,1.52,0,0,0-.77,1.33,1.19,1.19,0,0,0,.94.91,1.87,1.87,0,0,0,.46.09c.07,0,.19,0,.22-.06s0-.07-.08-.08"/><path class="cls-15" d="M56.13,32.72a.06.06,0,0,1,0-.08.52.52,0,0,0,.34-.09l.1.14a1.5,1.5,0,0,0-.67.21.11.11,0,0,1-.14,0s-.05-.08,0-.1"/><path class="cls-15" d="M55.8,32.77a1.53,1.53,0,0,1,.76-.23.14.14,0,0,1,.11.06.05.05,0,0,1,0,.08"/><path class="cls-15" d="M57,32.83a.89.89,0,0,0,.77-.49,1.29,1.29,0,0,0-.26-1.41.05.05,0,0,1,0-.09c.05,0,.1,0,.14.05a1.44,1.44,0,0,1,.39,1.21,1,1,0,0,1-.68.83,1.12,1.12,0,0,1-.31,0,.16.16,0,0,1-.14-.08s0-.07.06-.07"/><path class="cls-13" d="M58.05,9.87a1.64,1.64,0,0,0-.72-.27l-.28-.1c-.85,0-1.69-.05-2.53,0a1.82,1.82,0,0,0-.62.08l-.06,0c-.62-.05-1.24-.08-1.87-.1l-.28.06a1.79,1.79,0,0,0-.74.19.25.25,0,0,0,0,.46c.25.09.63,0,.81.12s-.19.38-.09.58.3.17.44.25.22.28.38.39a.88.88,0,0,0,.66.11c.24,0,.56-.06.63.11s0,.09,0,.14a.46.46,0,0,0,.34.44.78.78,0,0,0,.67-.07c.17-.12.23-.31.41-.42l.19-.08a.54.54,0,0,0,.22.13.78.78,0,0,0,.67-.07c.16-.11.23-.3.41-.41s.38-.13.46-.26-.24-.5,0-.67.56,0,.82-.07A.3.3,0,0,0,58.05,9.87Z"/><path class="cls-13" d="M51.35,43.61a1.25,1.25,0,0,0,.6.18l.23.06c.68,0,1.36-.07,2-.13a1.65,1.65,0,0,0,.5-.11l0,0,1.52,0,.23-.07a1.42,1.42,0,0,0,.58-.2.2.2,0,0,0-.06-.37c-.21,0-.52.07-.66,0s.12-.33,0-.48-.24-.11-.36-.18-.2-.2-.34-.28a.67.67,0,0,0-.54,0c-.19,0-.44.08-.51,0a.25.25,0,0,1,0-.12.38.38,0,0,0-.3-.33.63.63,0,0,0-.54.1c-.13.11-.17.26-.31.36l-.14.08a.48.48,0,0,0-.19-.09.61.61,0,0,0-.53.1c-.13.1-.17.26-.31.36s-.29.12-.35.24.22.39.07.54-.45,0-.65.11A.23.23,0,0,0,51.35,43.61Z"/><path class="cls-16" d="M32.62,23.9a1.71,1.71,0,0,1-.74-.17.54.54,0,0,1-.25-.65c.17-.37.85-.42.81-.83-.32-.4-1.12-.26-1.3-.74s.28-.74.64-1c-.25-.24-.18,0-.51-.12s-.51-.91-.31-1.19.33-.06.21-.43c-.26-.09.33-.31.13-.51a.64.64,0,0,1-.15-.76,1.28,1.28,0,0,0,.16-.84c0-.29.56-.33.4-.56-.31-.43.12-1,.52-1.33-.23-.16.05-.2-.09-.44a.68.68,0,0,1,0-.78,2.56,2.56,0,0,1,.42-.28c.55-.42.24-1.3-.12-1.9a1,1,0,0,0,1.06-.8,3.94,3.94,0,0,1,.08-.68c.09-.21.4-.35.55-.17"/><path class="cls-13" d="M32.82,23.75c-.41,0-1.25-.24-.77-.85.08-.1.27-.15.37-.23s.38-.26.33-.48-.44-.31-.6-.37a1.4,1.4,0,0,1-.54-.2c-.41-.38,0-.77.36-1,0,0,.18-.12.1-.18s-.26-.08-.46-.15a.82.82,0,0,1-.39-1c.08-.18.26-.19.31-.37s-.07-.17-.07-.23.13-.14.15-.24c.09-.32-.26-.45-.21-.81,0-.16.16-.3.2-.47s0-.25,0-.36c.07-.31.38-.38.43-.63s-.1-.19-.11-.29a1.2,1.2,0,0,1,.54-1.05s.09-.09,0-.15a2.91,2.91,0,0,1-.17-.72c0-.42.5-.56.7-.86.36-.56,0-1.28-.27-1.78l-.44.24a1.73,1.73,0,0,0,1.06-.32,1.3,1.3,0,0,0,.31-.35c.07-.12.31-.91.15-1,.17.12.72-.13.59-.23a.78.78,0,0,0-.84,0c-.58.34-.13,1.6-1,1.6-.06,0-.52.1-.44.24a2.57,2.57,0,0,1,.41,1.11c0,.65-.35.59-.67,1a.73.73,0,0,0-.16.64,1.39,1.39,0,0,0,.2.7l0-.14c-.29.27-.69.64-.69,1.08,0,.24.13.31,0,.52s-.21.14-.27.26,0,.43-.05.62-.21.4-.21.64.15.34.16.52-.1.2-.13.39a.06.06,0,0,0,0,.07c.26.17,0,.17-.16.4a1.08,1.08,0,0,0,0,.79.78.78,0,0,0,.35.48c.18.09.41,0,.52.12l.1-.19c-.34.21-.87.55-.78,1,.13.64.93.35,1.23.75s-.3.42-.48.58a.63.63,0,0,0-.28.46c0,.6.72.72,1.14.75.17,0,.73-.27.4-.3Z"/><path class="cls-17" d="M33.93,10.88c.08-.3.39-1.76.46-2.07a.69.69,0,0,0,.91-.56c0-.2,0-.46.12-.58s.41,0,.62,0c.47,0,.55-.78,1-.94.28-.1.59.08.88,0s.51-.77.92-.94.62,0,.92,0c.65-.17.89-1.12,1.56-1.11.25,0,.47.17.72.15.44,0-.21-.5.23-.55s.71.38,1.11.43c.65.08,1.11-1,1.71-.75.26.11.4.42.65.54.6.28,1.24-.57,1.87-.41.33.09.55.41.88.46.51.07.91-.55,1.43-.5s.7.49,1.11.48-.41-.35-.13-.38c.49-.06.84.48,1.32.59a2.8,2.8,0,0,0,1.19-.23c.41-.09,1.27.7,1.27,1.11"/><path class="cls-13" d="M34.24,10.84c.16-.69.3-1.39.46-2.07L34.19,9a1.28,1.28,0,0,0,.92-.13.91.91,0,0,0,.43-.39c.08-.17.05-.59.09-.62s.64,0,.84-.14.26-.33.42-.49c.31-.31.52-.18.9-.27a1.39,1.39,0,0,0,.75-.43c.31-.33.23-.43.78-.53a3.17,3.17,0,0,0,.55-.08c.48-.15.64-.55,1-.81s1,0,1.4-.19c.05,0,.18-.08.2-.14.06-.32-.16-.15.15-.11.15,0,.34.19.51.22a1.53,1.53,0,0,0,.79-.15,2.48,2.48,0,0,0,.39-.27c.43-.32.44-.24.9,0a1.11,1.11,0,0,0,.91.23c.16,0,.29-.1.44-.14a2.84,2.84,0,0,1,1.39,0,1.54,1.54,0,0,0,.8.07c.22-.05.41-.23.62-.28,1-.26.4,0,.93.14.34.09.54.23.89.08,0,0,.25-.1.2-.18-.19-.32-.14,0,.07.22a1.24,1.24,0,0,0,.87.27c.37,0,.68-.21,1-.15a1.3,1.3,0,0,1,1,1c0,.16.67,0,.63-.17a1.61,1.61,0,0,0-1.58-1.16,4.42,4.42,0,0,1-1.57-.11c-.2-.09-.26-.2-.49-.25a1,1,0,0,0-.71.11s-.16.08-.13.14.19.19.27.31L51,4.4c.07,0-.67-.47-.81-.49a1.35,1.35,0,0,0-.45,0c-.16,0-.29.12-.44.16a1.81,1.81,0,0,1-1.15,0,1.65,1.65,0,0,0-1-.07c-.13,0-.25.11-.39.15a.88.88,0,0,1-.9.06,1.53,1.53,0,0,0-.43-.37c-.85-.36-1.34.74-2.16.56-.34-.08-.49-.33-.9-.27s-.35.19-.51.3,0,.14,0,.15-.31-.06-.44,0a1.51,1.51,0,0,0-.85.36c-.19.15-.31.4-.5.54-.39.28-.73.14-1.13.25a1.29,1.29,0,0,0-.66.44c-.31.36-.2.39-.77.47a2.3,2.3,0,0,0-.45.05c-.45.14-.47.51-.8.74s-.63,0-.9.18-.52,1.14-.72,1.1-.47,0-.51.19c-.16.69-.29,1.38-.46,2.07,0,.18.58.08.62-.09Z"/><path class="cls-18" d="M40.58,7.15a7.18,7.18,0,0,0-4.6,4L49.7,6.57a12,12,0,0,0-3-.34A15.52,15.52,0,0,0,40.58,7.15Z"/><path class="cls-13" d="M40.44,7a9.14,9.14,0,0,0-2.87,1.57,8.79,8.79,0,0,0-1.88,2.55c-.12.21.21.27.34.22l12-4,1.7-.56c.15,0,.44-.33.13-.4A17.24,17.24,0,0,0,40.44,7c-.4.14,0,.44.27.33a16.17,16.17,0,0,1,8.8-.55l.14-.39-12,4-1.7.57.35.22a8.38,8.38,0,0,1,1.81-2.45,9,9,0,0,1,2.62-1.39C41.11,7.17,40.76,6.87,40.44,7Z"/><path class="cls-18" d="M60.16,7.6,60,7.5c-.32-.18-.57-.67-.27-.88-.66.26-1.12-.89-1.83-.89a4,4,0,0,0-.6.13.94.94,0,0,1-1-.93,2.21,2.21,0,0,1-1.71.16L49.7,6.57C51.81,7,54,7.86,56,8.14a8.62,8.62,0,0,1,2.83.77c.64.34,1.44.53,2.09.89C60.66,9.07,60.42,8.33,60.16,7.6Z"/><path class="cls-13" d="M60.41,7.45c-.22-.11-.73-.48-.46-.78s-.14-.25-.29-.21-.61-.36-.8-.51a1.58,1.58,0,0,0-.64-.37,1.69,1.69,0,0,0-.77.07.76.76,0,0,1-.89-.81c0-.16-.38-.08-.44,0-.66.32-1.26,0-1.91.23l-1.66.51-2.89.88c-.14,0-.44.27-.15.34,1.94.44,3.82,1.14,5.78,1.49a12.88,12.88,0,0,1,2.83.62c.84.34,1.74.68,2.54,1.1.12.06.63,0,.56-.24-.25-.74-.49-1.47-.75-2.2-.08-.23-.7,0-.62.16.25.74.5,1.47.74,2.21l.56-.24a13.51,13.51,0,0,0-1.41-.59c-.41-.16-.8-.38-1.21-.55a12.76,12.76,0,0,0-2.66-.58c-2-.33-4-1.07-6-1.53l-.15.33,3.1-1c.52-.15,1-.37,1.57-.48.05,0,.1,0,.15,0-.12,0,.19.09.29.1a2.87,2.87,0,0,0,1.52-.3l-.44,0a1.08,1.08,0,0,0,.67,1c.47.19.9-.15,1.34,0s.59.49.89.69a1,1,0,0,0,.91.13l-.29-.21c-.45.46,0,.95.46,1.18C60.1,7.85,60.67,7.58,60.41,7.45Z"/><path class="cls-16" d="M60.12,38.93a6.71,6.71,0,0,1-.77,1.78c.23.08.13.44-.05.6s-.44.34-.39.58c0,.08.07.15.08.24,0,.26-.27.42-.53.49.17.14,0,.42-.15.56s-.41.3-.35.52.13.19.12.3-.38.23-.51.42,0,.26-.07.39a.43.43,0,0,1-.65.21c-.06.46-.27,1.06-.73,1-.29,0-.56-.3-.83-.18s-.24.27-.39.36c-.51.32-1.13-.75-1.64-.42-.27.17-.27.65-.57.75s-.55-.25-.85-.28-.68.29-1,.13c-.13-.06-.2-.21-.31-.3s-.5.1-.82.2c-.56.17-.61-.23-.61-.23-.16-.4-.38-.37-.76-.17a.83.83,0,0,1-.38.18c-.35,0-.51-.56-.85-.53-.13,0-.23.11-.35.16a.58.58,0,0,1-.71-.78,1,1,0,0,1-.93-1.06.87.87,0,0,1-1.09-.77.86.86,0,0,1-1-1.1.69.69,0,0,1-.89-.64c0-.23.1-.51-.08-.63s-.28,0-.43,0a.56.56,0,0,1-.46-.77.77.77,0,0,1-.75-1.14.6.6,0,0,1-.57-.9.92.92,0,0,1-.68-1.37L46.35,44l1.84.85s6.55.66,7.79.11S60.12,38.93,60.12,38.93Z"/><path class="cls-13" d="M59.81,39A8,8,0,0,1,59,40.76s0,.05,0,.06c.34.3-.28.71-.4.89s.15.68-.3.83c0,0-.23.09-.2.16.18.43-.34.58-.47.85s.06.31-.06.55c0,.06-.67.73-.48.81-.12,0-.57,0-.6.16s-.08.61-.21.7-.33,0-.54,0a1.57,1.57,0,0,0-.61.06c-.19.08-.31.3-.52.3s-.54-.39-.82-.45a1.1,1.1,0,0,0-1,.32c-.36.41,0,.29-.51.27-.25,0-.42-.06-.69,0s-.18.07-.4,0S51,46,50.82,46a.86.86,0,0,0-.57,0c-.36.08-.46.23-.81,0-.18-.1-.15-.29-.41-.35s-.38.06-.55.09-.24.18-.35.17-.32-.31-.51-.4c-.44-.21-1.52.45-1.23-.62,0,0,0-.06-.06-.07a1,1,0,0,1-.87-1c0-.08-.22,0-.25,0-.48.07-.76-.35-.84-.74,0-.06-.14-.05-.18,0a.79.79,0,0,1-.78-1c0-.09-.13-.08-.18-.08-1,.13-.5-.86-.8-1.25s-1.09.13-.88-.74c0-.09-.13-.08-.18-.08-.6,0-.78-.64-.57-1.06,0-.06-.07-.08-.1-.08a.57.57,0,0,1-.48-.83s0-.06,0-.07a.89.89,0,0,1-.63-1.3l-.6.17,3.63,3.79L45,43a8.17,8.17,0,0,0,1.09,1.11c1.41,1,3,1,4.68,1.09a30,30,0,0,0,3.91.08,3.1,3.1,0,0,0,2-.6,12.84,12.84,0,0,0,2.31-3.16c.52-.86,1-1.72,1.48-2.6,0-.09-.53-.06-.61.11a32.7,32.7,0,0,1-3.09,5,2.79,2.79,0,0,1-.95.92A4.58,4.58,0,0,1,54.2,45c-1.26,0-2.52-.06-3.77-.15a6.35,6.35,0,0,1-3.81-1,10.91,10.91,0,0,1-1.15-1.2l-2.24-2.35-3.7-3.86c-.11-.11-.54,0-.6.16-.35.72.12.9.47,1.38.15.21.08.42.22.65s.36.2.43.31,0,.38.06.57a1,1,0,0,0,.44.51c.3.22.19,0,.33.19s.07.4.33.57.37,0,.53.15c.33.24,0,.65.34,1,.16.17.4.13.54.26s.06.19.15.41a1.15,1.15,0,0,0,.55.6c.32.2.24.07.54.37A1.23,1.23,0,0,0,45.1,44l-.26,0c0,.7.38.63.73,1.05.22.27.18.63.54.79s.48,0,.79,0,.51.39.89.44c.22,0,.41-.17.61-.17.64,0,.25.25.63.36a1.75,1.75,0,0,0,.82,0l.3-.14a.77.77,0,0,1,.35.2,1.34,1.34,0,0,0,.4.13,1.81,1.81,0,0,0,.23,0l.32-.08a1.7,1.7,0,0,1,.73.2,1.37,1.37,0,0,0,.57,0c.26-.09.32-.27.5-.4.34-.26.17-.32.63-.06a2,2,0,0,0,.41.21,1.12,1.12,0,0,0,.72-.09c.06,0,.23-.18.27-.19.24-.06.34.05.64.06.76,0,1.12-.53,1.23-1.21l-.6.16c.7.3,1-.13,1.38-.63s.34-.36.42-.73a.32.32,0,0,1,.06-.47,1.72,1.72,0,0,0,.34-.32c.11-.23.12-.22,0-.45l-.2.16a1.28,1.28,0,0,0,.68-.4c0-.07,0-.15.06-.23s0-.4.08-.6a1.14,1.14,0,0,0,.25-.24,2.67,2.67,0,0,0,.12-.51c.13-.63.48-1.21.66-1.83C60.46,38.74,59.86,38.82,59.81,39Z"/><path class="cls-19" d="M37.4,25.08c.65-.63-.15-1.86.35-2.61a6.25,6.25,0,0,0,.4-.5c.27-.52-.21-1.2,0-1.75.1-.24.34-.42.42-.67.15-.49-.3-1-.24-1.49s.74-1,.53-1.57c-.11-.26-.4-.41-.49-.67-.16-.46.36-1.06,0-1.4-.12-.12-.31-.15-.41-.28-.2-.28.14-.61.27-.92a4,4,0,0,0,.09-1c0-.35.37-.73.68-.59-.18-.55.16-2,.74-2,.28,0,.65.17.8-.07s0-.42.08-.6c.23-.47,1,.24,1.44-.08a1.72,1.72,0,0,0,.26-.33.9.9,0,0,1,.9-.12,2,2,0,0,0,.93.17c.32-.05.59-.44.39-.69a2.58,2.58,0,0,0,1,.41.84.84,0,0,0,.9-.53.76.76,0,0,0,1.25.33c.13-.17.23-.42.44-.44a.45.45,0,0,1,.27.08c.37.2.87,1.36,1.08,1.73l-.16-2.33-6.5-1L37.51,9.38l-2,6.76,2.18,9.38"/><path class="cls-13" d="M37.69,25.1a1.71,1.71,0,0,0,.25-1.36,2,2,0,0,1,.1-1.26c.1-.17.31-.31.4-.5.3-.66-.18-1.3.16-2a1.38,1.38,0,0,0,.17-1.4c-.25-.85.46-1.2.46-1.93s-.59-.76-.51-1.42a1.5,1.5,0,0,0-.07-1c-.31-.9-.16-.7,0-1.34,0-.23-.13-1.19.27-1.15.13,0,.48-.08.44-.27-.08-.34-.08-1.32.25-1.57s.57,0,.87-.11a.71.71,0,0,0,.44-.41c.13-.27,0-.31.3-.36.12,0,.31.08.44.08A1.3,1.3,0,0,0,42.29,9c.22-.11.21-.23.5-.31s.59.08,1,.12c.58.06,1.35-.28,1.14-1l-.56.23c.78.45,2,.76,2.48-.25l-.61.07a1.08,1.08,0,0,0,1.54.5c.33-.18.33-.52.68-.27s.59,1,.81,1.47c.11.21.65.08.63-.17L49.7,7.07c0-.05-.08-.09-.12-.09-2.1-.31-4.22-.75-6.33-.93-.61,0-1,.34-1.56.64L38.13,8.8c-.54.32-.87.41-1.05,1L36,13.53a13.24,13.24,0,0,0-.8,2.65,8.1,8.1,0,0,0,.46,2l1.73,7.43c.06.23.68.07.63-.16l-1.54-6.61a13.7,13.7,0,0,1-.64-2.73,11.65,11.65,0,0,1,.71-2.37l1.17-3.9a3.06,3.06,0,0,1,.13-.43c.07-.15-.21.18,0,0,.38-.28.84-.5,1.24-.74l3.56-2.1S43,6.4,43,6.34s-.33,0-.26,0,1.22.18,1.41.2l4.51.66a1.7,1.7,0,0,1,.46.07c.15.09-.13-.17-.06-.06a1.2,1.2,0,0,1,0,.38,15.75,15.75,0,0,0,.12,1.93l.63-.17c-.29-.55-.58-1.52-1.17-1.82a.75.75,0,0,0-.71,0c-.4.18-.85.95-1.15.12-.08-.21-.53-.08-.61.07-.32.66-1,.17-1.4,0-.13-.07-.63,0-.56.24.16.51-1.28.17-1.54.21a1.09,1.09,0,0,0-.47.19c-.06,0-.29.31-.31.32-.53.22-1-.37-1.53.18-.09.11,0,.26-.11.35-.28.45-.07.1-.41.2a1.73,1.73,0,0,0-.62.2,2.19,2.19,0,0,0-.55,2l.43-.27a1,1,0,0,0-.94.39,1.28,1.28,0,0,0-.19.72,6.73,6.73,0,0,1-.33,1.21c-.09.32,0,.36.11.61s0-.29.26.39c.15.37,0,.28,0,.6s-.09.45.07.75.54.49.25,1.17a2.06,2.06,0,0,0-.23,1.65c.15.79-.46,1.24-.37,2a1.63,1.63,0,0,1-.21,1.34,1.74,1.74,0,0,0-.33.65c-.14.72.33,1.51-.18,2.15-.17.23.46.19.59,0Z"/><path class="cls-16" d="M37.29,29.32l.55.06a.25.25,0,0,0,.17,0c.12-.07.05-.26,0-.4a1.46,1.46,0,0,1,.24-.95.89.89,0,0,0,0-.94c-.11-.14-.31-.22-.33-.4s.26-.35.42-.52a.55.55,0,0,0-.25-.86A1.65,1.65,0,0,0,38.4,24c-.14-.87-.39-1.8-.39-1.8l-1.3-.74Z"/><path class="cls-13" d="M37.09,29.46c.33,0,1.19.23,1.3-.28a.79.79,0,0,0,0-.3,1,1,0,0,1,.08-.57,3.18,3.18,0,0,0,.3-.83.68.68,0,0,0-.21-.6c-.15-.15-.3-.24-.16-.47s.23-.17.31-.27a.62.62,0,0,0-.28-1l0,.12a1.57,1.57,0,0,0,.32-.94,7.79,7.79,0,0,0-.38-2.07c-.07-.27-.24-.3-.48-.44l-.88-.5c-.12-.07-.62,0-.6.19l.5,6.91.07,1c0,.15.64,0,.63-.17l-.51-6.91-.07-1-.6.19.75.43c.14.08.3.16.44.25s.07,0,.11.15a7.56,7.56,0,0,1,.38,1.82,1.51,1.51,0,0,1-.26,1.11c0,.05,0,.1,0,.12a.48.48,0,0,1,.3.41c0,.26-.13.36-.3.52s-.29.43,0,.68.27.71.06,1.15a1.82,1.82,0,0,0-.2.61c0,.14.12.48,0,.58l.26-.13c.15,0-.09,0-.15,0l-.34,0a.64.64,0,0,0-.45.12C37,29.37,36.94,29.44,37.09,29.46Z"/><path class="cls-19" d="M59,8.63c-.08.18.17.33.37.35s.45.07.48.26-.07.24,0,.36c.06.36.77.06,1,.38s-.16.61.05.79.25.06.38.07a.55.55,0,0,1,.49.42c0,.16,0,.35.1.49s.35.2.53.29c.5.23.6.87.61,1.42A2,2,0,0,0,63.38,15c.38-.32,0-.66-.33-1.06a3.07,3.07,0,0,1-.28-.35.34.34,0,0,1,0-.42c.06-.05.14-.07.18-.13s-.26-.24-.43-.37-.08-.51.08-.72.36-.49.22-.71-.43-.22-.56-.42.05-.53,0-.79-.52-.45-.87-.48a.56.56,0,0,0-.24-.85c-.13,0-.29,0-.38-.15s0-.45-.15-.59-.36,0-.5-.11.06-.55-.07-.8-.89-.21-.85-.57"/><path class="cls-13" d="M58.73,8.67c-.07.44.38.38.64.51s0,.6.41.75.79-.09.72.46c0,.32,0,.55.34.61s.5.06.58.4,0,.39.17.55a1.56,1.56,0,0,0,.47.22.9.9,0,0,1,.45.49c.32.8-.1,1.78.58,2.44.12.12.43,0,.54-.07a.52.52,0,0,0,.13-.69c-.17-.31-.57-.56-.68-.89s.35-.4.21-.67-.64-.16-.49-.62.49-.55.42-.92-.55-.33-.65-.64.17-.63-.11-.94a1.39,1.39,0,0,0-.85-.31l.1.17a.65.65,0,0,0-.15-.93,1.11,1.11,0,0,0-.19-.09.61.61,0,0,1-.3-.15,1,1,0,0,1,0-.16c-.06-.22,0-.35-.24-.46-.07,0-.15,0-.23,0-.26-.07-.2-.13-.18-.33a.63.63,0,0,0-.07-.52c-.17-.21-.78-.19-.79-.48s-.63-.07-.62.17.36.34.59.42c.52.19.06.59.3.93.11.16.27.11.42.16.3.12.12.4.28.6s.31.13.46.21a.44.44,0,0,1,.16.66c-.06.08,0,.17.1.18.37,0,.77.12.75.58,0,.26-.11.5.1.71s.68.23.43.71c-.13.25-.37.44-.37.74s.13.34.32.44.06.17,0,.39c-.22.57,1.14,1.21.7,1.66l.54-.07c-.65-.63-.23-1.64-.56-2.4a1.12,1.12,0,0,0-.7-.63c-.32-.13-.31-.28-.37-.58a.67.67,0,0,0-.3-.46,1.29,1.29,0,0,0-.38-.12c-.34-.08-.24-.22-.22-.5a.44.44,0,0,0-.39-.5,3,3,0,0,1-.44,0c-.26-.09-.06-.25-.11-.46s-.89-.3-.85-.57-.59-.13-.62.08Z"/><path class="cls-11" d="M86.65,126.9s1.85-7.06-7.23-9.09c0,0,9.4.57,8,9.09Z"/><path class="cls-3" d="M65.57,109.86l-7.31,6.76,1,.13a26.08,26.08,0,0,1,3.54-.21c1.11-.05,2.22-.19,3.34-.23a5,5,0,0,1,2-.44.53.53,0,0,0,.6-.49C69,114.39,65.57,109.86,65.57,109.86Z"/><path class="cls-3" d="M13.08,100.35c.95-1.5,2.63-.41,3.68-1.82s3.55-1.42,4.94-2.68c1.09-1,.5-2.47,1.74-3.24L24.3,80l1.88-6.14a38.09,38.09,0,0,0-2.83-12.05c-2.48-5.44-5.27-12.36-5.27-12.36s-5.54,1.75-7.37,11.7c-.87,4.73-2.23,17.79-2.23,17.79S6.88,94.48,7.41,97.46c.42,2.3,1.2,6.8,4.25,9"/><path class="cls-3" d="M46.59,113.71,37.53,109,28,101.91c-1.55-.38-1.1.78-2.69.7a29,29,0,0,0-5.19.22c-1.66.2,1.32-7.71-.32-7.36a55.93,55.93,0,0,0-6.58,2.44c-.21.08-3.51,2.29-3.72,2.38.27,1,.67,4.79,1.49,5.73,3.9,4.45,24.33,14.66,24.33,14.66l5.71,2Z"/><path class="cls-10" d="M45.54,75.25h0s0,.1,0,.14Z"/><path class="cls-10" d="M48.06,89.33l0,0,0-.09Z"/><path class="cls-20" d="M57,73.25H57l.05,0Z"/><path class="cls-20" d="M49.65,74.53l.05,0v0Z"/><path class="cls-20" d="M56.86,73.26h-.07A.06.06,0,0,1,56.86,73.26Z"/><path class="cls-20" d="M45.7,75.23s0,0,.06,0Z"/><path class="cls-5" d="M62.47,125.24a2,2,0,0,0,1.29-1.48c0-.29-.21-.38-.31-.71l-5.28-5.13c1.22-.64,3.89,1.47,5,.61s-.37-1.4-.62-1.61-5.1-2.56-5.1-2.56A52.48,52.48,0,0,0,51.5,114c-1.13.15-4.25,1-4.25,1l-1.4.29s-3.36,5.16-4.41,7c-.1.17,2.46.78,3.77,2a23,23,0,0,0,4.62,2.63s6,1.34,6.77,1.14a5.52,5.52,0,0,0,1.92-1.42,5.9,5.9,0,0,1,1.57,0c1.43.11,2.24-1.49,2.24-1.49h0Z"/><path class="cls-6" d="M58.83,118.57a20.12,20.12,0,0,1-2.26-1.5,10.66,10.66,0,0,1-2.19-1.65,11.49,11.49,0,0,1,2.38,1.37A7.67,7.67,0,0,1,58.83,118.57Z"/><path class="cls-6" d="M55.1,121a14,14,0,0,1,3.55,1.88c.93.6,1.76,1.16,2.37,1.56a5,5,0,0,1,1,.69,3.35,3.35,0,0,1-1.09-.49c-.64-.34-1.49-.87-2.42-1.47C56.62,122,55.06,121.12,55.1,121Z"/><path class="cls-6" d="M53.08,123.47c.06-.08,1.16.78,2.65,1.64s2.79,1.4,2.79,1.47a8.37,8.37,0,0,1-2.93-1.2A8.37,8.37,0,0,1,53.08,123.47Z"/><path class="cls-8" d="M25.49,85.32c.1-1.39.24-7.29.32-8.33.07-1.21.14-2.13.18-2.84,0-.28.05-.53,0-.71a2.11,2.11,0,0,0,0-.26,1,1,0,0,0,0,.25c0,.16,0,.4-.07.71-.06.71-.15,1.64-.26,2.85-.07.91-.34,6.43-.43,7.61C25.26,84.77,25.44,85.15,25.49,85.32Z"/><path class="cls-8" d="M45.81,115.91c.53-.79,1-1.56,1.53-2.29l.14-.14-.17-.09-8.26-5-9.62-8.22a1.21,1.21,0,0,0,0,.14l0,.15,9.47,8.21,8.1,4.93-1.43,2.14L41,122.56C35,120,34.35,120,28.11,117.09c-.07.07,0,.19-.08.25,6.48,3.13,6.85,3,13,5.62l.14.06.11-.1C42.72,120.71,44.21,118.3,45.81,115.91Z"/><path class="cls-8" d="M12.31,100.47a6.94,6.94,0,0,1,1.47-1.17,18.07,18.07,0,0,1,8.45-3,6.58,6.58,0,0,1,1.88,0,14.42,14.42,0,0,1-1.85.25,23.17,23.17,0,0,0-4.33,1,23.41,23.41,0,0,0-4,1.89A15.49,15.49,0,0,1,12.31,100.47Z"/><path class="cls-8" d="M16.91,95.48a8,8,0,0,1,3.7-.37,7.85,7.85,0,0,1,3.6,1c0,.1-1.61-.48-3.63-.64S16.93,95.59,16.91,95.48Z"/><polygon class="cls-8" points="29.43 100.14 24.85 96.12 25.55 84 25.21 83.72 24.46 96.24 29.77 100.79 29.43 100.14"/><path class="cls-8" d="M16.4,110.16s11.78,7,12.21,7.17l-.18.2s-11.81-6.66-12.13-7.16Z"/><path class="cls-21" d="M53.76,35.27c-1.92,0-5-.21-5-.21a4.75,4.75,0,0,0,5,3.78,4.75,4.75,0,0,0,5-3.81S55.68,35.26,53.76,35.27Z"/><path class="cls-22" d="M53.78,35.27c-.91,0-4.6-.14-4.6-.14a5.2,5.2,0,0,0,4.53,2c3.58,0,4.63-2,4.63-2Z"/><path class="cls-23" d="M53.82,35.4c-.91,0-3.69-.14-3.69-.14s1,1,3.74,1,3.6-1,3.6-1Z"/><path class="cls-21" d="M59,34.75a8.16,8.16,0,0,1-1.08.11c-.76-.06-1.23-.26-1.78-.3a8.24,8.24,0,0,0-1.93.3,9,9,0,0,0-1.94-.29c-.54,0-1.9.25-2.65.32a8.17,8.17,0,0,1-1.09-.11c-.13,0,.13,1,5.24,1S59.13,34.78,59,34.75Z"/><path class="cls-13" d="M48.16,34.77a1.31,1.31,0,0,0-.58.79,1.46,1.46,0,0,0,0,.36l.09.55a.21.21,0,0,0,0,.11s.06,0,.1.06a1,1,0,0,0,.39,0,.31.31,0,0,0,.27-.24.42.42,0,0,1,0-.16c.05-.09.18-.08.29-.1s.32-.38.44-.61a1.35,1.35,0,0,1,.84-.61,2.35,2.35,0,0,0,.51-.17.51.51,0,0,0,.3-.41"/><path class="cls-13" d="M59.39,35.14a1.35,1.35,0,0,1,.5.84,1.51,1.51,0,0,1-.06.36l-.15.55a.42.42,0,0,1,0,.1.21.21,0,0,1-.11,0,.87.87,0,0,1-.39,0,.3.3,0,0,1-.25-.27.38.38,0,0,0,0-.15c0-.1-.17-.1-.27-.13s-.29-.41-.39-.65a1.3,1.3,0,0,0-.77-.68A2.81,2.81,0,0,1,57,35a.49.49,0,0,1-.25-.44"/><path class="cls-13" d="M48.65,34.4c.18-.23.37-.14.63-.19a.78.78,0,0,0,.33-.16c.08-.08.12-.22.21-.29s0,0,.07,0a1,1,0,0,1,.17.1.72.72,0,0,0,.32.08,1,1,0,0,0,.66-.25c.08-.08,0,0,0,0s-.07,0,0,0l.05,0a.63.63,0,0,0,.33.12,1,1,0,0,0,.7-.31s.11-.15.14-.15l.12.07a1.3,1.3,0,0,0,.34.08.7.7,0,0,0,.63-.3c.09-.13-.08-.23-.18-.24a.46.46,0,0,0-.41.18c.09-.12.19,0,0-.11L52.61,33a.86.86,0,0,0-.42,0,1,1,0,0,0-.33.15c-.07,0-.26.18-.29.27s0,0,0,0l0,0a.38.38,0,0,0-.15-.09.54.54,0,0,0-.31-.06,1,1,0,0,0-.34.11c-.07,0-.18.16-.26.16.08,0,0,0,0,0l-.14-.08A.8.8,0,0,0,50,33.3a1,1,0,0,0-.67.32,1,1,0,0,0-.12.17l0,.05c.08,0,.09-.05,0-.05a.87.87,0,0,0-.39,0,1.19,1.19,0,0,0-.64.41c-.25.3.35.37.52.16Z"/><path class="cls-13" d="M55.66,33.65c-.21.08-.18,0-.09,0a1.05,1.05,0,0,1,.11.07l.22.13a1.12,1.12,0,0,0,.54.12c.13,0,.13.07.21.15a.42.42,0,0,0,.28.12,1.25,1.25,0,0,0,.7-.19l0,0c-.17,0-.22,0-.16,0l.08.1a1.32,1.32,0,0,0,.12.2.63.63,0,0,0,.54.17.46.46,0,0,1,.26,0c.08,0,.07.14.09.21a.27.27,0,0,0,.18.18c.05,0,.17,0,.18.06s.66,0,.62-.17-.11-.13-.2-.15-.13,0-.16-.13a.41.41,0,0,0-.42-.32c-.12,0-.24,0-.35,0s-.16-.08-.21-.17-.21-.32-.46-.31a.93.93,0,0,0-.43.12l-.14.06q-.13.06.06,0s0,0-.06-.05a.43.43,0,0,0-.26-.2,2,2,0,0,0-.35,0c-.18,0-.34-.19-.5-.27a.89.89,0,0,0-.68,0c-.08,0-.26.12-.18.22s.33,0,.41,0Z"/><path class="cls-13" d="M53.71,33.72l-.21.85a.32.32,0,0,1-.28.24c-.93.08-4.45.37-5.29.32,0,0,.06.35,0,.34l-.19,0c-.31-.08,0-1.11.27-1.21a16.56,16.56,0,0,1,2.25-.6,19.15,19.15,0,0,1,3.12-.32A.32.32,0,0,1,53.71,33.72Z"/><path class="cls-13" d="M54.79,33.87v.8a.32.32,0,0,0,.24.27c.85.17,3.63.76,4.4.8h.06l.25,0c.29-.05.16-.7-.11-.83a12.41,12.41,0,0,0-1.81-.78,14.86,14.86,0,0,0-2.72-.58A.3.3,0,0,0,54.79,33.87Z"/><path class="cls-24" d="M42.49,23.82l.42,1.33a19.79,19.79,0,0,0,1.33,3.66c.49.78,6,1.17,7,.56s1.74-3.73,2-4.45l2.19.16c.18.94.81,3.92,1.22,4.33s2.92.38,3.21.38l.92,0a5.16,5.16,0,0,0,2.47-.54c.53-.51,1.14-2.5,1.67-4.37l.09-.29c0-.07,0-.12,0-.14h0l.09-.34c-3.13-1.56-7.27-1.38-9.81.43l0,0-2.14-.16c-2.38-1.65-6.54-2.59-9.55-1.48h0l-7.31,1.4,0,.82ZM57,29.11a18.92,18.92,0,0,1-1.1-4c2.21-1.53,5.94-1.68,8.74-.45v0c-.28,1-1,3.68-1.56,4.18s-5.63.6-6.08.21Zm-12.1-.52a29.18,29.18,0,0,1-1.73-4.74c2.68-1.17,7.29-.42,9.62,1.14-.39,1.31-.91,3.59-1.69,4-1.12.63-5.89.08-6.2-.42Z"/><path class="cls-25" d="M57,29.06a19.11,19.11,0,0,1-1.1-4c2.21-1.53,5.94-1.68,8.74-.46v.05c-.28,1-1,3.68-1.56,4.18s-5.63.6-6.08.21Z"/><path class="cls-25" d="M44.86,28.61a29.64,29.64,0,0,1-1.73-4.75c2.68-1.16,7.29-.41,9.62,1.15-.39,1.3-.91,3.59-1.69,4-1.12.63-5.89.08-6.2-.42Z"/><path class="cls-26" d="M163.13,71.64c-1.59.77-3.09,1.16-4.32,3.7l-4.05,11.49s-2.26,5.48-2.28,5.52a38.64,38.64,0,0,1,1.36,5c.44,2.07,1.87,5.15,1.73,7.31,5.65-.29,7.91-9.77,9-12.47l.29,1.07c.28-2.49.46-5,.56-7.51.2-5.33,2.16-11.22,2-16.54Z"/><path class="cls-26" d="M153,92.36l-13.32-9s-1,4.65-4.67,5.47c0,0,13,18.57,21.48,15.58Z"/><path class="cls-27" d="M152.59,92.16A3.55,3.55,0,0,1,154,95.58S154.7,92.56,152.59,92.16Z"/><path class="cls-5" d="M157.58,122.68s-18.36,1.51-22.44,2.16c-6,1-8.69,3-9.21,6.81-1.08,8,22,54.46,22,54.46l5.68.55L141,140.39,164.14,142Z"/><path class="cls-5" d="M157,128.37s-21.66-1.63-26.14,1.12-3.21,6.8-2.42,11.43,22.3,48.45,22.3,48.45l6.5-4.34s-7-27.15-8.16-32-5.33-11.27-5.33-11.27,18,.5,21.38,0S157,128.37,157,128.37Z"/><path class="cls-6" d="M139.1,136.51a4.39,4.39,0,0,1,.84.63,19,19,0,0,1,3.32,3.78,3.22,3.22,0,0,1,.51.9c-.06,0-1-1.27-2.24-2.73S139.05,136.57,139.1,136.51Z"/><path class="cls-28" d="M191,125.94c-1.29.38-2.81-2.48-4.1-2.69s-2.51.8-3.61.42-1.46.72-2.54.28c-2.23-.9-4.29.75-6.37-.47-3.88-2.28-4.89-2.29-7.7-6-.74,1.49-4.73.9-6.27.78l-11.24,1.84s-19.38,4.8-20.55,7l.85-.23s3.45-.2,6.57,7A65.21,65.21,0,0,0,142.44,145l29.88,3.3c6.14,1.62,12.77-.68,17.23-6,3.23-4.74,3.5-15,3.65-16.36C192.36,126.46,191.92,125.67,191,125.94Z"/><path class="cls-5" d="M166.35,57.52s1.25,9.64,1.2,10.59l-.8,3.3v.36c2.61.71,5.12,3.07,9.73,1l4.79-4.64a9.84,9.84,0,0,0-.66-2c-2.52-4.65,0-11.45,0-11.45"/><path class="cls-6" d="M175.69,61.87s-1,3.19-6,4.4a5.36,5.36,0,0,1-2.31,0l.09-1.29Z"/><path class="cls-29" d="M159.54,55.52c1.76-1.3,2.05-3.6,1.79-5.63s1.16-5-1.23-4.81c0,0,.82-1.69.12-1.53.41-1.09-1.17-.95-1.42-2.16-.05-.24-.44-2.39,1.1-2.57,5.41-7.89,12.91-6.4,17.11-5.92,8.24.94,12.25,1.33,10.52,14.38-1.15,8.76-9.3,11.32-17.59,11.23-3.55,0-7.75.19-10.47-2.93Z"/><path class="cls-29" d="M176.31,27.28a5.41,5.41,0,0,0-2.95,5c.42.37,1.33.77,1.75,1.13l.24-.42c.47.4,1.69.75,2.16,1.14a10.55,10.55,0,0,1,1-.47L179,34a2.61,2.61,0,0,0-.85.38c.54.45,1.91.69,2.43,1.16,1.12,1,2.37,2.41,3.53,3.39a5.43,5.43,0,0,1,.89.72l-.81.73,1.2.95-.21.49,1,.79s.62-.58,1.49-1.47c3.34,1.24,4.7-1.51,4.4-2.77a2.65,2.65,0,0,0-.71-1.26c1.28-1.56,2.24-3,2-3.68-.42-1.35-2.63-4.36-3.7-5.77a10.14,10.14,0,0,0-.7-1.3v0h0a4.78,4.78,0,0,0-1-1.14c-.91-.77-2.77-.45-4.27,0a6.54,6.54,0,0,0-3.7-1.89c-1.34-.12-3.52,1.64-3.75,2.1A5.69,5.69,0,0,0,176.31,27.28Zm12.8,12.31c.55-.59,1.12-1.22,1.66-1.85a2.88,2.88,0,0,1-.15,1C190.42,39.41,189.73,39.58,189.11,39.59ZM179.78,24.9a10,10,0,0,1,1,1.34,22.48,22.48,0,0,0-2.49.42l-.16,0a3.69,3.69,0,0,1-.54-1.32C177.54,24.74,179.11,24.39,179.78,24.9Z"/><path class="cls-5" d="M164.26,38.25a.36.36,0,0,1-.07.1l.06,0Zm-2.47.54v.05l.11-.1C161.9,38.69,161.79,38.79,161.79,38.79Zm17.77,19.45.31-.84c.51,1.61,2.7.6,2.91-1.58,1.63-1.91,1.92-4.79,1.07-6l-.1-.17c-.61-.52-1.72-.79-2.23,0-.17.36-.43.76-.61,1.12a7.72,7.72,0,0,1-.71,1.58,44.4,44.4,0,0,0,1.32-4.86c.06-1,0-3.38-1.66-4.78,0,0-2.05-2.08-2.82-3.11l-.28-.11c-.17,0-.28,0-.45,0,0,0,.06-.1.06-.2a1.85,1.85,0,0,1-.73,0c.06-.05.17-.1.17-.15a3,3,0,0,1-.67,0c.06,0,.17-.15.17-.2-.28.1-.44,0-.67,0a.36.36,0,0,0,.12-.2,1.57,1.57,0,0,1-.68,0c.06-.05.12-.15.17-.2-.28.1-.44,0-.67,0-.05,0,.12-.1.12-.15a2.12,2.12,0,0,1-.56,0c0-.05.11-.1.11-.15a1.55,1.55,0,0,1-.72,0l.16-.2a.77.77,0,0,1-.67.09c.06,0,.17-.15.17-.2a1.08,1.08,0,0,1-.89.09s.17-.15.17-.2a1.13,1.13,0,0,1-.79.15c.06-.05.12-.16.23-.26a1.17,1.17,0,0,1-1.06.15c.05,0,.11-.16.11-.21-.23.2.2-.05-.08-.1a3.05,3.05,0,0,1-.65.15c-.22.15.6-.87.32-.87.06-.1-1.6.08-1.49,0-.28.2-.22.09-.56,0,0,0-1.16.6-1.11.55-.28.25-.4,0-.74,0,.06,0,.2.22.26.17-.23.2-.15-.06-.43-.06,0,0-.91-.34-.91-.39-.28.15-.19.17-.53.17a2,2,0,0,0-.16.51c-.22.2-.21,0-.49,0l-.28.19c-.28.25.1.14-.23.09,0,0,1.26.17,1.31.11a2.31,2.31,0,0,1-.72.31c0-.06.06-.16.06-.21a1.17,1.17,0,0,1-.9.3c.06,0,.11-.1.11-.15a.86.86,0,0,1-1,.24h0a1.83,1.83,0,0,1-.79.35.23.23,0,0,1,.12-.2h-.23c-.28.41,1,.19.89.7a21.44,21.44,0,0,0-1.87,4.53,27.17,27.17,0,0,0-.79,7.26,19.22,19.22,0,0,1-.5,2.82c-.51,4,2.57,8.12,5.66,10.38,1.24.9,2.31.58,3.54.43a16.56,16.56,0,0,0,8.55-4"/><path class="cls-15" d="M164.53,56.12a1.44,1.44,0,0,0,1.28,0c.08,0,.35,0,.24.07a2.07,2.07,0,0,1-1.75,0c-.05,0,0-.06,0-.08a.37.37,0,0,1,.21,0"/><path class="cls-15" d="M166.21,56.05a2.34,2.34,0,0,1,.79-.18.25.25,0,0,1,.12,0s0,.05,0,.06a.83.83,0,0,1-.44.09.17.17,0,0,1-.13-.05s0-.06.06-.06a.6.6,0,0,0,.35-.07l.12.1a2.37,2.37,0,0,0-.71.16.16.16,0,0,1-.15,0s-.06,0,0-.07"/><path class="cls-15" d="M167.29,56.1a1.11,1.11,0,0,0,.86-.36.89.89,0,0,0-.36-1.17s0,0,0-.06a.27.27,0,0,1,.17,0,1.11,1.11,0,0,1,.5,1,.88.88,0,0,1-.75.6,2.2,2.2,0,0,1-.36,0s-.13,0-.15-.06,0,0,.06,0"/><path class="cls-15" d="M163.94,56s0-.05,0-.05a.38.38,0,0,1-.24-.09l-.09.1a1.16,1.16,0,0,1,.5.18.09.09,0,0,0,.1,0s.05,0,0-.08"/><path class="cls-15" d="M164.18,56a1.41,1.41,0,0,0-.55-.2.11.11,0,0,0-.09,0,0,0,0,0,0,0,.06"/><path class="cls-15" d="M163.28,56a.66.66,0,0,1-.55-.38.88.88,0,0,1,.27-1s0,0,0-.06-.08,0-.11,0a1,1,0,0,0-.35.83A.7.7,0,0,0,163,56a.86.86,0,0,0,.23.06.14.14,0,0,0,.1-.05s0-.06,0-.06"/><path class="cls-14" d="M181,53.45A11.23,11.23,0,0,1,182,51.64a4.15,4.15,0,0,1,.77-.85,2.07,2.07,0,0,1,.24-.17l.13,0s0,0,0,0h0a1.2,1.2,0,0,0,.13.21,2.82,2.82,0,0,1,.08,1.9s.18,0,.19,0a2.9,2.9,0,0,0-.05-1.84,1.06,1.06,0,0,0-.15-.28.14.14,0,0,0-.11,0,2.11,2.11,0,0,0-1.17.89,11.3,11.3,0,0,0-1.26,2.08s.17,0,.19,0Z"/><path class="cls-30" d="M159.15,46.43a8.62,8.62,0,0,1,4.43.08v.05c0,.3,0,.13,0,.43s0,.45,0,.67c-.74-.14-1.27-.32-1.74-.37a11,11,0,0,0-2.8-.16C159.13,46.9,159.14,46.66,159.15,46.43Z"/><path class="cls-30" d="M168.77,46.55c0,.29,0,.13,0,.42l0,.68c.73-.16,1.26-.35,1.73-.41a9.34,9.34,0,0,1,2.93-.21,2.22,2.22,0,0,1,1.38.64c.09.11.23.5.41.43s0-.4,0-.44a2,2,0,0,0-1.6-1.27c-1.56-.42-2.36-.4-4.77.11"/><path class="cls-31" d="M181.29,57.13a1.1,1.1,0,0,1,.39,1.34,1,1,0,0,1-.49.5L181,59s0,0,.05,0h0l-.16-.06a1.54,1.54,0,0,1-.65-.71c0-.11-.32,0-.27.07a1.69,1.69,0,0,0,.66.76,1.22,1.22,0,0,0,.24.1.49.49,0,0,0,.27,0,1.24,1.24,0,0,0,.91-1.35,1.27,1.27,0,0,0-.53-.84c-.09-.06-.34.06-.22.15Z"/><path class="cls-14" d="M180.83,53.53c.18,0,.46,0,.5.24a1.09,1.09,0,0,1-.13.53c-.14.33-.39.81-.11,1.14s.81-.14,1-.4a2.26,2.26,0,0,0,.41-1.4c0-.49-.12-1.19-.63-1.42-.05,0-.2.05-.18.06.45.2.56.78.61,1.21a2.26,2.26,0,0,1-.21,1.25,1.54,1.54,0,0,1-.52.68c-.18.12-.32,0-.38-.21-.12-.36.14-.77.27-1.1a.6.6,0,0,0,0-.47c-.1-.18-.37-.19-.54-.19s-.22.08-.12.08Z"/><path class="cls-30" d="M160.82,49.27a.85.85,0,0,0-.91.15.84.84,0,0,0-.25.38.82.82,0,0,0,.19.76.76.76,0,0,0,.89.17.84.84,0,0,0,.43-1,.71.71,0,0,0-.35-.47"/><path class="cls-30" d="M163.93,50.43a7.36,7.36,0,0,0-2.38-1.33,3.16,3.16,0,0,0-2.71,1.08,5.56,5.56,0,0,1,2.41-.84A13.72,13.72,0,0,1,163.93,50.43Z"/><path class="cls-30" d="M170.49,49.41a.83.83,0,0,1,.91.17.84.84,0,0,1,.24.38.83.83,0,0,1-.21.76.76.76,0,0,1-.89.15.86.86,0,0,1-.41-1,.73.73,0,0,1,.36-.46"/><path class="cls-30" d="M168.5,50.51a8.41,8.41,0,0,1,2.58-1.29,4.32,4.32,0,0,1,3.44,1.35s-2.24-1.19-3.13-1.1A15.6,15.6,0,0,0,168.5,50.51Z"/><path class="cls-32" d="M161.66,39.44c-.23,1.4-2.14.19-1.09-.14-.12-.69.85-1,.83-1.65l.07.11s0-.84.31-1,1.55-.82,1.55-.82l.38.29a.38.38,0,0,1,0-.46,8.23,8.23,0,0,1,3.7-1.15h.13l.56.3h0c-.1-.06-.31-.21-.2-.33a.53.53,0,0,1,.25-.11,5.6,5.6,0,0,1,.83-.07h.18a4.07,4.07,0,0,1,.82.09.53.53,0,0,1,.26.11c.1.13-.11.27-.21.33h0l.56-.29h.14a8.17,8.17,0,0,1,3.67,1.23.39.39,0,0,1,0,.47l.39-.29a18.84,18.84,0,0,1,1.9.86,1.4,1.4,0,0,1,.4.69,1.82,1.82,0,0,0,.67.13,2.6,2.6,0,0,1,1.48,1c.24.36.15.69.26,1h0c.07.17.11.29.11.29l1,.33c.76.37.56,2,.56,2a4.64,4.64,0,0,1,.85,5.13c-.27.65,1.59,1.33.39,1.3s-2.25,3.74-2.25,3.74a7.21,7.21,0,0,1-1-2.17,19.08,19.08,0,0,1,.31-2.73l-.58-.08s-.36-.15-.78-.94.38-2.16.38-2.16l.24-.83-1.14.06a1.49,1.49,0,0,1-1.15-1.39l.21-2-.67.66a.78.78,0,0,1-.64.28c-1.7-.14-1.89-1.21-1.89-1.21l-.22-1-.44.28a3.33,3.33,0,0,1-2.57.62c-.19-.08-1-.7-1.1-.78a1.63,1.63,0,0,1-.52-1.21l.2-.22c.24-.26.36-.15.11.12a3.15,3.15,0,0,1-1.77,1.11,3.8,3.8,0,0,1-2.07-.53c-.1-.19.09-.21-.13-.2a.71.71,0,0,0-.49.28c-.29.33-.49.81-.9,1-.6.29-.95,0-1.54-.17A.28.28,0,0,0,161.66,39.44Z"/><path class="cls-33" d="M160.25,38.32a2.21,2.21,0,0,1,.36-2,11.77,11.77,0,0,1,8.54-3.62Z"/><path class="cls-34" d="M187.14,41.61s3.76,2.19,5.42-.83-2.66-4.15-2.66-4.15"/><path class="cls-34" d="M184.67,24.94s-1.86-3.13-4.43-2.62-1,4.74-1,4.74"/><path class="cls-35" d="M168.28,59s-1.49-.14-2.67-.17-2.68.06-2.68.06-.17-.84,2-.8A6.48,6.48,0,0,1,168.28,59Z"/><path class="cls-26" d="M160.22,97.26c-3.47-4.05-2.22-7-2-8.76a37.44,37.44,0,0,1,3.1-9.38c1.2-2.75,1.8-4.62,3.2-7.27.23-.42,1.42-1,1.74-1.4a.34.34,0,0,0,.08.34,5.5,5.5,0,0,0,3.24,1.44,11.09,11.09,0,0,0,6.21-1.07,12.14,12.14,0,0,0,2.82-1.73,5.75,5.75,0,0,0,1.75-2.17c.29-.9.22-1.1.22-1.1s7.24.89,8.78,6.58c1.4,5.15,1.28,22.23,2.3,34.06.49,5.7.71,16.07,1.5,19.2a32,32,0,0,1-7,1.56,27.88,27.88,0,0,1-5.17.11c-1.85-.11-3.58-1-5.37-1.4a42.32,42.32,0,0,1-8.23-2.9A30.52,30.52,0,0,1,160,118.5c-.3-.26-.58-.54-.86-.82C160.74,113.54,164.52,104.73,160.22,97.26Z"/><path class="cls-26" d="M183.5,84.34l4.08,18-11.76,18.36,5.62,6.77,10.94-13.77c3.59-5.9,6-6.38,5.93-10.56a19,19,0,0,0-.19-2.91c-1.46-7.82-2.67-15-4.37-22.5-.52-2.24-.83-4-2.44-5.68a17.71,17.71,0,0,0-8.44-4.89Z"/><path class="cls-27" d="M187.46,101.85c-.81-6.5-4.11-18.29-4.48-22.06h.12c.39,3.77,3.72,15.55,4.56,22Z"/><path class="cls-36" d="M188.89,71.58s-4.39.06-5.66,6.15C183.23,77.73,183.87,71.29,188.89,71.58Z"/><path class="cls-27" d="M159.91,81s-3.55,9.6-2,13.3,2.76,3.06,3.37,5.24c0,0,.15-1.1-1.67-2.74s-1.86-5.12-1.81-6.29S159.91,81,159.91,81Z"/><polygon class="cls-5" points="176.23 121.05 172.16 124.66 174.61 130.09 180.72 126.51 176.23 121.05"/><path class="cls-5" d="M174.2,123.83l-5.62-.8s-6.06,1.83-6.72,2.72-1.41,2.14.2,2.75c0,0-.48,1.85.46,2.2a2.26,2.26,0,0,0,1.9-.39s-1,1.59.06,2.14,1.48,0,1.48,0,.18.83.71.73a15.33,15.33,0,0,0,2.16-.94,16.11,16.11,0,0,0,4.62-.66,7.81,7.81,0,0,0,2.76-2.21Z"/><path class="cls-6" d="M165.22,127.2a4.06,4.06,0,0,0-3.05,1.22"/><path class="cls-6" d="M166.54,129.55a4.06,4.06,0,0,0-3,1.22"/><path class="cls-21" d="M165.44,58.26c1.56.1,4.11.07,4.11.07a4.23,4.23,0,0,1-8.2-.51S163.87,58.17,165.44,58.26Z"/><path class="cls-22" d="M165.42,58.26c.74.05,3.75.11,3.75.11a4.19,4.19,0,0,1-3.79,1.47c-2.91-.18-3.66-1.92-3.66-1.92Z"/><path class="cls-23" d="M165.38,58.38c.74,0,3,0,3,0s-.86.8-3.09.66-2.89-1-2.89-1Z"/><path class="cls-21" d="M161.2,57.57a6.44,6.44,0,0,0,.88.15c.62,0,1-.16,1.46-.17a6.67,6.67,0,0,1,1.56.35,6.31,6.31,0,0,1,1.59-.15c.44.06,1.54.3,2.15.39a4.59,4.59,0,0,0,.88,0c.11,0-.15.86-4.31.6S161.09,57.59,161.2,57.57Z"/><path class="cls-37" d="M187.69,101.9a2.36,2.36,0,0,1-.28.83C186.94,103.71,176,121,176,121l.21.08,11.07-18.49.2-.65Z"/><polygon class="cls-37" points="180.4 126.38 192.11 114.27 192.11 114.62 180.53 126.54 180.4 126.38"/></g></svg>