<svg id="Layer_1" data-name="Layer 1" xmlns="http://www.w3.org/2000/svg" xmlns:xlink="http://www.w3.org/1999/xlink" viewBox="0 0 205.83 138.61"><defs><style>.cls-1{fill:none;}.cls-2{clip-path:url(#clip-path);}.cls-3{fill:#d36253;}.cls-4{fill:#812b24;}.cls-5{fill:#a66e53;}.cls-6{fill:#a56530;}.cls-7{fill:#4f2e25;}.cls-8{fill:#fff;}.cls-9{fill:#181d1e;}.cls-10{fill:#684134;}.cls-11{fill:#b15e27;}.cls-12{fill:#df8c26;}.cls-13{fill:#ce8d2a;}.cls-14{fill:#13110f;}.cls-15{fill:#231f20;}.cls-16{fill:#010101;}.cls-17{fill:#653c29;}.cls-18{fill:#31160e;}.cls-19{fill:#f1eef7;}</style><clipPath id="clip-path"><rect class="cls-1" width="205.83" height="138.61"/></clipPath></defs><g class="cls-2"><path class="cls-3" d="M131.28,108.89s-2.22-7.89-3.65-15.53c-1.44-4.71-2.37-10.08-4-14.71a29.29,29.29,0,0,0-2.81-6.15,22.75,22.75,0,0,0-3.66-3l-12.87-5.8L104,60.92,90.6,58.31l-7.94,3.22S68,64.47,65.78,66.14c-2.7,2,1.55,39.88,1.55,39.88s-7.06,22.25-8.53,26.85-.33,11.3-.33,11.3l11.47-9.46c3.24-3.49,8.43-4.53,13.13-4.12l31.29,2.3,0-19-.06-1.17c2.07,2.61,4.87,10.3,8.29,12L144.78,136s5.09-14.09,5.55-14.28S131.28,108.89,131.28,108.89Z"/><path class="cls-4" d="M122.89,116.6a1.34,1.34,0,0,1,0-.49,6.91,6.91,0,0,1,.35-1.28,8.78,8.78,0,0,1,6.37-5.5,8.23,8.23,0,0,1,1.31-.16,1.15,1.15,0,0,1,.49,0c0,.06-.68.08-1.74.36a9.33,9.33,0,0,0-6.21,5.38C123.07,116,122.94,116.64,122.89,116.6Z"/><path class="cls-5" d="M167.71,127.44l-3.38-4-6.94-2s-5.81,1.54-6,1.53-1.49-.43-1.49-.43l-4,7.14,7.23.78,11.08-.5s.57-.6.24-1,1.85.7,2.11.71.76.24,1.1-.23A1.82,1.82,0,0,0,167.71,127.44Z"/><path class="cls-3" d="M65.79,66.11s-3.61,2-5.87,8.92-8.71,29-5.67,41.57c1.07,4.46,29.47,14,29.47,14l6.73-15L69.73,105.58s1.18-13.65,1.79-19.3S65.79,66.11,65.79,66.11Z"/><path class="cls-4" d="M75.37,77.62c-.06,0,0-.75-.11-1.82a10.87,10.87,0,0,0-1.34-4.11,12.1,12.1,0,0,0-1.4-1.94,10.59,10.59,0,0,0-1.45-1.31c-.9-.67-1.55-.94-1.52-1s.17,0,.47.15a3.65,3.65,0,0,1,.53.25,5.52,5.52,0,0,1,.66.4,8.64,8.64,0,0,1,1.54,1.29,10.72,10.72,0,0,1,1.48,2,10,10,0,0,1,1.28,4.26,7.61,7.61,0,0,1,0,1.35A1.4,1.4,0,0,1,75.37,77.62Z"/><rect class="cls-6" x="-3.58" y="129.62" width="246.88" height="11.34"/><path class="cls-4" d="M119.52,86s1.23,8.39,1,11.91S116,108.19,116,108.19l-1.55,4.43s.21.61.23.6,1.53-4.89,1.63-4.91l.06-.07a31.67,31.67,0,0,0,3.77-7C122.23,96.17,119.52,86,119.52,86Z"/><path class="cls-4" d="M75.71,81.78s-3.14,20.39-5.16,25.07l24.87,11.92L95.6,129a158.3,158.3,0,0,1-33.54-6.38l-.15.45s17.84,5.45,33.6,6.28l-.06-11.15L71,106.64S74.33,97.08,75.71,81.78Z"/><path class="cls-7" d="M156.2,126.63s.09-.16.55-.14c1.73.08,5.62.6,6,1.06a1.33,1.33,0,0,1-1.22,2.13h-6.31s7.7.36,7.48-1.27S156.2,126.63,156.2,126.63Z"/><path class="cls-7" d="M164.47,128.92s-2.31-2.49-3.74-3l-2.64.67a19.9,19.9,0,0,1,2.85-.93c.31.06,4.07,3.25,4.07,3.25Z"/><rect class="cls-8" x="113.02" y="128.44" width="41.04" height="1.17"/><path class="cls-4" d="M61.83,114.32a1.34,1.34,0,0,1,0-.49,6.91,6.91,0,0,1,.35-1.28,8.78,8.78,0,0,1,6.37-5.5,8.23,8.23,0,0,1,1.31-.16,1.14,1.14,0,0,1,.49,0c0,.06-.68.08-1.74.36a9.59,9.59,0,0,0-3.73,2,9.44,9.44,0,0,0-2.48,3.41C62,113.68,61.89,114.36,61.83,114.32Z"/><path class="cls-9" d="M95.09,108.79l19.24,17.89,1.82.85,1,.52-.47-.86-1-1.76L96.26,107.54a.85.85,0,0,0-1.17,0h0a.85.85,0,0,0,0,1.21Z"/><path class="cls-5" d="M95.45,119.42l1.51.27s7.82-2.89,8.93-3c.86-.12,5,.86,6.8,1.3a1.59,1.59,0,0,1,1.24,1.59v0a1.61,1.61,0,0,1-1,1.36h0a1.44,1.44,0,0,1,.83,2.1c-.51,1.2-2.13,1-2.13,1l-2.7.05s.69.2,1.71.45a5.11,5.11,0,0,1,1.42.46s1.63,1.57,0,2.23a3.32,3.32,0,0,1-1.65.28s.48,1.69-.79,2-9.6-.06-9.6-.06-.44-.53-2.14-.68l-2.35-.16Z"/><path class="cls-7" d="M95.45,119.42v.64c0,.43,0,1,0,1.83,0,1.59.07,3.88.13,6.73l-.05-.05,2.16.15c.38,0,.77.06,1.16.12s.81.43,1.2.57h0c1.74.13,3.63,0,5.64.06,1,0,2,.08,3.1.06a5.12,5.12,0,0,0,.78-.06,1,1,0,0,0,.64-.37,1.29,1.29,0,0,0,.23-.73,2.4,2.4,0,0,0-.08-.8l0-.1h.1a2.87,2.87,0,0,0,1.05-.1,2.39,2.39,0,0,0,1-.43.82.82,0,0,0,.16-1,3,3,0,0,0-.63-.9h0a6,6,0,0,0-1.3-.43l-1.82-.48-.51-.13h.52l2.71-.05h0a2.86,2.86,0,0,0,1.09-.12,1.58,1.58,0,0,0,.86-.62c0-.08.08-.16.12-.24l.09-.25a2.44,2.44,0,0,0,.06-.26,1.14,1.14,0,0,0,0-.26,1.22,1.22,0,0,0-.42-.91A1.86,1.86,0,0,0,113,121l-.06,0h0c0,.11,0-.16,0-.13h0l.11,0a1.64,1.64,0,0,0,.22-.14,1.48,1.48,0,0,0,.51-1.78,1.5,1.5,0,0,0-.64-.72,3.46,3.46,0,0,0-.93-.29l-1-.23-1.84-.41-1.78-.36-.86-.13a3.77,3.77,0,0,0-.82,0,13.46,13.46,0,0,0-1.54.42c-.49.15-1,.31-1.43.47l-2.5.85-3.49,1.25h0l-1.13-.22-.29,0-.09,0h.09l.28,0,1.15.19h0c.79-.3,2-.74,3.48-1.28.75-.29,1.58-.57,2.49-.88l1.43-.48a13.83,13.83,0,0,1,1.56-.43,4.91,4.91,0,0,1,.86.05c.29,0,.57.08.86.14.57.1,1.17.21,1.77.34l1.86.42,1,.22.49.12a1.78,1.78,0,0,1,.48.19,1.71,1.71,0,0,1,.7.78,1.61,1.61,0,0,1,.07,1.06,1.63,1.63,0,0,1-.62.88,1,1,0,0,1-.24.15L113,121h0v-.13H113l.06,0a1.75,1.75,0,0,1,.47.29,1.28,1.28,0,0,1,.35.45,1.31,1.31,0,0,1,.13.55,1.37,1.37,0,0,1,0,.29c0,.09,0,.19-.07.29l-.09.27-.14.25a1.7,1.7,0,0,1-.92.68,3,3,0,0,1-1.14.13h0l-2.71,0,0-.14,1.82.48a5.42,5.42,0,0,1,1.34.45h0a2.85,2.85,0,0,1,.66,1,1.25,1.25,0,0,1,.1.57.83.83,0,0,1-.29.53,2.61,2.61,0,0,1-1,.47,3.14,3.14,0,0,1-1.1.1l.08-.09a2.67,2.67,0,0,1,.08.84,1.39,1.39,0,0,1-.26.81,1.16,1.16,0,0,1-.72.42,5.52,5.52,0,0,1-.81.06c-1.06,0-2.1,0-3.11-.06-2-.1-3.9.06-5.65-.07h0c-.37-.14-.76-.52-1.15-.57s-.78-.1-1.14-.13l-2.16-.15h0v0c0-2.86,0-5.17-.07-6.77v-2.28C95.48,119.42,95.45,119.42,95.45,119.42Z"/><path class="cls-7" d="M112.79,121a15.28,15.28,0,0,1-2.14-.13,16.74,16.74,0,0,1-2.13-.26,15.36,15.36,0,0,1,2.14.12A19.07,19.07,0,0,1,112.79,121Z"/><path class="cls-7" d="M104.35,128.62s-.12,0-.25-.16a1.05,1.05,0,0,1-.29-.69,1,1,0,0,1,.24-.69c.12-.15.23-.2.24-.19s-.07.09-.16.24a1.12,1.12,0,0,0-.17.64,1.06,1.06,0,0,0,.22.62C104.28,128.54,104.36,128.6,104.35,128.62Z"/><path class="cls-7" d="M104.23,125.79s-.15,0-.33-.12a1,1,0,0,1-.26-1.42l.1-.11c.15-.16.28-.2.28-.19s-.1.09-.22.25a1.06,1.06,0,0,0-.21.73,1.1,1.1,0,0,0,.37.67C104.11,125.73,104.24,125.77,104.23,125.79Z"/><path class="cls-7" d="M104.18,122.5a.8.8,0,0,1-.29-.27,1.39,1.39,0,0,1-.19-.93,1.25,1.25,0,0,1,.5-.8.64.64,0,0,1,.35-.17s-.13.09-.29.24a1.33,1.33,0,0,0-.28,1.61C104.09,122.38,104.2,122.48,104.18,122.5Z"/><path class="cls-7" d="M106.84,118.22a.34.34,0,0,1-.12-.15.7.7,0,0,1,.3-.82c.11-.06.19-.06.19,0a1,1,0,0,0-.35.45A1.51,1.51,0,0,0,106.84,118.22Z"/><path class="cls-7" d="M109.14,124.07a5.1,5.1,0,0,1-1.17.05,5,5,0,0,1-1.16-.1,5,5,0,0,1,1.16,0A5.14,5.14,0,0,1,109.14,124.07Z"/><path class="cls-10" d="M110.4,127.55a17,17,0,0,1-2.11-.38,18.56,18.56,0,0,1-2.08-.51,15.28,15.28,0,0,1,2.11.37A16.64,16.64,0,0,1,110.4,127.55Z"/><path class="cls-5" d="M89.37,44.5s.31,8.86-2.62,14.56c-.4.79-7.64,3-7.64,3l7.49,3.45c4.26,1.48,14.14,3.17,18.53,2.11l4.18-1.49s-4.86-2.64-5-3.69,1.53-8.71,1.53-8.71"/><path class="cls-7" d="M104.61,60.74a15.89,15.89,0,0,0-2.8-1.89c-1.18-.54-3.3-.79-8.22-6.6A11.25,11.25,0,0,0,101.37,61a8.81,8.81,0,0,0,3.09.58Z"/><path class="cls-5" d="M116.74,24.65l.07.08a.88.88,0,0,1,0-.15ZM119.65,26l.12.16v-.06S119.67,25.94,119.65,26ZM92.88,52c2.17,3.62,5.89,7.79,10.46,8.7a7.2,7.2,0,0,0,4.78-.93,32.92,32.92,0,0,0,6-4,14.45,14.45,0,0,0,3.48-4.48,10.6,10.6,0,0,0,1.48-4.82,21.66,21.66,0,0,1,.7-3.39c.33-1.05,1.83-5.16,2.51-7.62s-.92-6.92-.92-6.92a4.7,4.7,0,0,0-.46-1.89l-.29-.07a.29.29,0,0,1,.08.3,2.46,2.46,0,0,1-.9-.73h0a1.17,1.17,0,0,1-1.16-.64c0,.07,0,.22.1.24a1.51,1.51,0,0,1-1.07-.69,2.72,2.72,0,0,0,0,.28,2.64,2.64,0,0,1-.84-.64c0,.1,1.75.25,1.74.3-.45,0,0,.23-.27-.2l-.3-.34c-.38,0-.42.2-.65-.14.06.09,0-.78,0-.72-.44-.1-.31-.1-.63-.4,0,.07-1.3.14-1.31.21-.37-.09-.36.27-.58-.07.06.08.33-.22.39-.13-.46,0-.69.2-1-.23,0,.09-1.26-1.09-1.26-1.09-.46,0-.42.12-.71-.24.11.17-2-.62-2-.47-.37-.09.36,1.51.12,1.23,0,.07-.79-.4-.79-.4-.38,0,.09.44-.14.1,0,.07,0,.29.08.31a1.55,1.55,0,0,1-1.34-.55,3.22,3.22,0,0,1,.21.41,1.51,1.51,0,0,1-1-.45c0,.06.08.3.15.32a1.51,1.51,0,0,1-1.13-.42c0,.06.1.23.15.32a1.1,1.1,0,0,1-.84-.35l.15.32a2.24,2.24,0,0,1-.94-.23c0,.06.11.16.09.23a2.32,2.32,0,0,1-.71-.25c0,.07.17.26.1.24-.3-.07-.55,0-.88-.21a3.13,3.13,0,0,1,.15.32,2,2,0,0,1-.85-.29.48.48,0,0,0,.08.31c-.3-.07-.55,0-.88-.22,0,.07.1.24.15.32a3.68,3.68,0,0,1-.87-.21c0,.06.11.17.17.25a2.45,2.45,0,0,1-.93-.3c0,.13,0,.22,0,.29-.22-.06-.35-.16-.56-.22l-.4.05c-1.35,1.08-2.39,5.59-2.39,5.59-2.71,1.24-4.49,4.71-4.73,6a31.26,31.26,0,0,1-1.29,3.94,13.16,13.16,0,0,1-.89-2.35c-.1-.52.2-1.09.09-1.61-.39-1.24-1.93-1.26-2.9-.79l-.18.19c-1.49,1.23-1.43,6.24-1,7.84-.46,2.9,1.68,5,3.59,3.3l.12,1.21"/><path class="cls-11" d="M121.23,31.26c-.81-4.33-4.8-7.61-13.74-11a34,34,0,0,0-17-1.81c7.55-12.15,20.83-8.4,23.82-7.66S129.85,27,122.11,36.66l-.51,1S121.38,32.05,121.23,31.26Z"/><path class="cls-11" d="M88.82,15.11s.93-8.54,7.66-9.83c9-1.72,20.39-.63,22.24,8.84Z"/><path class="cls-12" d="M84.69,35.39c-.5-.84.15-2.71-.24-3.61a9.53,9.53,0,0,1,1.61-10.36c.74-.88.48-2.82.74-3.68,1.39-4.55,2-4.56,10-7.6,6.53-2.47,12.53-.8,16,.25,5.54,1.68,7.92,2.64,8.9,7.1.13.58-.25.93-.19,1.61.08,1,1.44,1.4,1.4,2.57,0,0-7.91,1.12-14.9,2.93s-21.14,12-21.65,16A50.35,50.35,0,0,0,84.69,35.39Z"/><path class="cls-11" d="M83.78,25.89s13.8-10.44,25.4-7.69c0,0-14.33-5.59-23.53,3.47l-.26.39a10.39,10.39,0,0,0-1.49,3.35Z"/><path class="cls-11" d="M121.59,19.29l-.71-.49a21.15,21.15,0,0,0-5.38-2.63l-3.2-1s8.2.56,9.46,3Z"/><path class="cls-13" d="M89,43.07A1.74,1.74,0,0,0,87,44.26a1.48,1.48,0,0,0,.2,1.16,1.32,1.32,0,0,0,.5.44,1.77,1.77,0,0,0,1.49.09s.12-.06.08-.12-.16,0-.2,0a1.44,1.44,0,0,1-1.51-.43,1.41,1.41,0,0,1,.12-1.84,1.21,1.21,0,0,1,1.07-.34.33.33,0,0,0,.22-.06c0-.05,0-.09,0-.1Z"/><path class="cls-14" d="M93.65,32.58l-2,6.42-1.58-3.44S92.62,33.42,93.65,32.58Z"/><path class="cls-15" d="M90.12,38.31c-.43-.1-1-.1-1.05.45s.16,1,.1,1.44c0,.16-.11.49-.32.5s-.46-.49-.53-.66a2.86,2.86,0,0,1-.1-1.85c.17-.55.48-1.4,1.13-1.51.2,0,.14-.25-.06-.22-.66.12-1,.78-1.25,1.35a3.08,3.08,0,0,0-.21,1.67c.07.48.42,1.66,1.13,1.42s.58-.82.52-1.31a3.51,3.51,0,0,1-.09-.85c0-.33.28-.28.55-.22a.21.21,0,0,0,.22-.06.09.09,0,0,0,0-.15Z"/><path class="cls-11" d="M90.42,28.64s-5.15,3.23-5.88,4.83l-.09-1.69A8.83,8.83,0,0,1,90.42,28.64Z"/><path class="cls-16" d="M109.38,48.4a2.16,2.16,0,0,1-1.87-.58c-.1-.11-.52-.14-.37,0a3,3,0,0,0,2.55.76c.08,0,.08-.07,0-.12a.43.43,0,0,0-.31-.07"/><path class="cls-16" d="M106.94,47.62a3.41,3.41,0,0,0-1.1-.58.25.25,0,0,0-.19,0s-.06.06,0,.1a1.35,1.35,0,0,0,.61.3.22.22,0,0,0,.21,0s0-.1-.06-.11a1.09,1.09,0,0,1-.49-.25l-.21.11a3.08,3.08,0,0,1,1,.52.25.25,0,0,0,.22,0s.11-.06,0-.11"/><path class="cls-16" d="M105.32,47.27a1.69,1.69,0,0,1-1.12-.88,1.37,1.37,0,0,1,1-1.58c.07,0,0-.08,0-.11a.42.42,0,0,0-.27,0,1.68,1.68,0,0,0-1.14,1.3,1.33,1.33,0,0,0,.86,1.2,2.28,2.28,0,0,0,.51.21c.07,0,.2,0,.25,0s0-.09-.08-.11"/><path class="cls-16" d="M110.31,48.38c0-.06,0-.08.08-.07a.61.61,0,0,0,.4,0l.08.18a1.57,1.57,0,0,0-.8.08.15.15,0,0,1-.15-.06s0-.1,0-.12"/><path class="cls-16" d="M109.93,48.36a1.87,1.87,0,0,1,.9-.09.19.19,0,0,1,.12.09s0,.08,0,.1"/><path class="cls-16" d="M111.28,48.69a1,1,0,0,0,1-.37,1.42,1.42,0,0,0,0-1.6s0-.09.05-.1a.2.2,0,0,1,.15.1,1.56,1.56,0,0,1,.18,1.4,1.11,1.11,0,0,1-.94.76,1.37,1.37,0,0,1-.35,0s-.13,0-.14-.12,0-.07.09-.06"/><path class="cls-14" d="M116.74,40.35a1.16,1.16,0,0,1,1.14.49,1.09,1.09,0,0,1,.14.55,1.08,1.08,0,0,1-.49.9,1,1,0,0,1-1.17-.09,1.11,1.11,0,0,1-.22-1.39,1,1,0,0,1,.6-.46"/><path class="cls-14" d="M112.71,40.77s2.35-1.06,3.38-.91a5,5,0,0,1,3.46,2.34s-2.1-1.82-3.16-1.94A17.78,17.78,0,0,0,112.71,40.77Z"/><path class="cls-14" d="M103.75,37.19a1.41,1.41,0,0,0-1.34-.25,1.08,1.08,0,0,0-.42.41,1.06,1.06,0,0,0,0,1,1,1,0,0,0,1.07.47,1.11,1.11,0,0,0,.85-1.12.41.41,0,0,0-.17-.47"/><path class="cls-14" d="M106.4,39a10.79,10.79,0,0,0-3-2.27,5.75,5.75,0,0,0-4.42.66s2.85-.75,4-.41A19.37,19.37,0,0,1,106.4,39Z"/><path class="cls-14" d="M113.92,35.69l-.15.91-.12.69c.81-.06,1.49-.07,2-.06a6.43,6.43,0,0,1,2.24.22,6.07,6.07,0,0,1,1.33.69,4.56,4.56,0,0,1,.67.52c.45.47.59.93.68.91s0-.42,0-.46a3.74,3.74,0,0,0-.83-1.73,4.28,4.28,0,0,0-1.31-.9,15.21,15.21,0,0,0-4.52-.79"/><path class="cls-14" d="M107.49,33.72c-.07.3-.15.6-.23.89s-.11.46-.17.68c-.78-.4-1.46-.7-2-.92a8.3,8.3,0,0,0-2.33-.75,6.53,6.53,0,0,0-1.61.06,4,4,0,0,0-.89.19c-.65.23-1,.59-1.06.53s.15-.39.18-.42A3.64,3.64,0,0,1,101,32.76a4.93,4.93,0,0,1,1.69-.26,18.15,18.15,0,0,1,4.83,1.22"/><path class="cls-17" d="M107.15,51c-2.32-.57-6-1.79-6-1.79a6.45,6.45,0,0,0,12.16,3S109.47,51.61,107.15,51Z"/><path class="cls-18" d="M107.17,51.05c-1.1-.28-5.5-1.57-5.5-1.57s.85,2.9,4.84,3.89c4.32,1.07,6.21-1.12,6.21-1.12Z"/><path class="cls-19" d="M107.18,51.23c-1.1-.27-4.41-1.3-4.41-1.3s.89,1.56,4.2,2.38,4.67-.14,4.67-.14Z"/><path class="cls-17" d="M113.63,52a9.3,9.3,0,0,1-1.34-.18c-.89-.31-1.4-.7-2.05-.92a9.65,9.65,0,0,0-2.43-.2,9.78,9.78,0,0,0-2.25-1c-.67-.11-2.37-.27-3.3-.41a9.18,9.18,0,0,1-1.28-.47c-.17,0-.16,1.32,6,2.85S113.79,52.05,113.63,52Z"/></g></svg>