<svg id="Layer_1" data-name="Layer 1" xmlns="http://www.w3.org/2000/svg" viewBox="0 0 76.93 76.93"><defs><style>.cls-1{fill:#fff;}</style></defs><path class="cls-1" d="M75.25,42.35A20.3,20.3,0,0,0,63.84,28.66a21.49,21.49,0,0,0-4.51-1.42,29.65,29.65,0,0,0-6.25-.18H53A26,26,0,1,0,7.42,47.17L3.71,58.58l12.05-4.95a26,26,0,0,0,21.05.75,14.14,14.14,0,0,0,.9,2.31c2.95,7.06,9.12,10.71,17.83,10.71a20.09,20.09,0,0,0,8.72-2l9.73,4-3-9.16a20.27,20.27,0,0,0,4.24-17.88ZM16.32,51.61l-.42-.21L7.15,54.94l2.67-8.26-.42-.46a23.61,23.61,0,1,1,6.92,5.39ZM69,59.25l-.43.46,1.95,5.81L64.15,63l-.45.23a17.86,17.86,0,0,1-8.17,2c-7.86,0-13.19-3.15-15.82-9.37,0-.06-.06-.12-.08-.19a11.84,11.84,0,0,0-.81-2.17A25.46,25.46,0,0,0,44.13,50a26,26,0,0,0,9.06-20.76c1.35,0,2.71,0,4.06.06a17.12,17.12,0,0,1,10.4,4.48A18.06,18.06,0,0,1,69,59.25Z"/><circle class="cls-1" cx="52.65" cy="47.48" r="1.46"/><circle class="cls-1" cx="57.6" cy="47.48" r="1.46"/><circle class="cls-1" cx="62.55" cy="47.48" r="1.46"/><path class="cls-1" d="M27.06,40.3h0a2.09,2.09,0,0,1,2.09,2.09h0a2.08,2.08,0,0,1-2.09,2.09h0A2.09,2.09,0,0,1,25,42.39h0A2.1,2.1,0,0,1,27.06,40.3Z"/><path class="cls-1" d="M31.19,25.2a3.86,3.86,0,0,1-1.31,2.94l-3.7,3.55a2.37,2.37,0,0,0-.83,1.79v2.21A1.62,1.62,0,0,0,27,37.26h.46a1.63,1.63,0,0,0,1.66-1.57V34.46a.77.77,0,0,1,.22-.53l3-3a7.8,7.8,0,0,0-7-13.44,8.19,8.19,0,0,0-6.19,6.2,1.27,1.27,0,0,0,1.35,1.51h1.05a1.6,1.6,0,0,0,1.51-1.05,4.18,4.18,0,0,1,4.2-2.71,4.08,4.08,0,0,1,4,3.76Z"/></svg>