<svg id="Layer_1" data-name="Layer 1" xmlns="http://www.w3.org/2000/svg" viewBox="0 0 76.93 76.93"><defs><style>.cls-1{fill:#0d4060;}</style></defs><path class="cls-1" d="M68.44,62.09A5.32,5.32,0,0,0,67,59.62l-.8-.83c-1-1.1-2.24-2.35-3.52-3.45a5.44,5.44,0,0,1-1.91-4.8c.12-6.67.13-13.67,0-21.42A22.55,22.55,0,0,0,44,7.5c-.13-2-.5-5.87-5.53-5.87C34,1.63,33.27,4.86,33,7.3a22.63,22.63,0,0,0-17.48,22c-.07,8.14,0,16.2,0,22.32a3.78,3.78,0,0,1-1.23,3c-.65.64-1.29,1.29-1.93,1.94l-.1.11c-.88.89-1.86,1.89-2.86,2.8a5.13,5.13,0,0,0-1.29,5.82c.36,1,1.41,2.14,4.35,2.15,5.13,0,10.25,0,15.39,0,1.55,4.8,5.74,8.18,10.32,8.18h0c4.59,0,8.78-3.39,10.33-8.18H64a4.72,4.72,0,0,0,3.86-1.4A4.48,4.48,0,0,0,68.44,62.09ZM38.49,4.4c2.21,0,2.57.92,2.72,2.79l-5.38-.1C36.09,5.13,36.58,4.4,38.49,4.4Zm-.31,68.49c-3.06,0-6-2.23-7.35-5.4H45.55A8.35,8.35,0,0,1,38.18,72.89Zm27.53-8.55c-.26.32-1,.37-1.7.37H28.87q-8.21,0-16.39,0a3.07,3.07,0,0,1-1.76-.34,2.38,2.38,0,0,1,.57-2.81c1.05-1,2.06-2,3-2.91l.1-.1q.93-1,1.89-1.89a6.63,6.63,0,0,0,2.07-5c0-6.11-.07-14.16,0-22.29A19.86,19.86,0,0,1,34.41,9.85l8.11.14A19.79,19.79,0,0,1,58,29.16c.1,7.71.1,14.69,0,21.33a8.22,8.22,0,0,0,2.88,6.95c1.18,1,2.27,2.16,3.32,3.26l.8.84a2.83,2.83,0,0,1,.74,1.13C65.92,63.57,65.92,64.09,65.71,64.34Z"/></svg>