<svg id="Layer_1" data-name="Layer 1" xmlns="http://www.w3.org/2000/svg" viewBox="0 0 23.73 23.73"><defs><style>.cls-1{fill:#fff;}</style></defs><path class="cls-1" d="M22,2.8a46.37,46.37,0,0,0-7.2.2,5.59,5.59,0,0,0-2.93,2A5.59,5.59,0,0,0,8.94,3a45.29,45.29,0,0,0-7.21-.2,1.06,1.06,0,0,0-1,1.07V18.64a1.14,1.14,0,0,0,1.14,1.14H8.13s2.69-.19,3.18,1.52l.08.21a.5.5,0,0,0,.09.24h0a.5.5,0,0,0,.41.22.48.48,0,0,0,.48-.4h0l0-.28c.49-1.71,3.16-1.52,3.23-1.52H21.9A1.14,1.14,0,0,0,23,18.64V3.87A1.06,1.06,0,0,0,22,2.8ZM8.42,18.74H1.84a.11.11,0,0,1-.11-.11V3.87l0,0a45.53,45.53,0,0,1,7,.18,5,5,0,0,1,2.62,2v13.6A5,5,0,0,0,8.42,18.74ZM22,18.64a.11.11,0,0,1-.11.11H15.69a5.27,5.27,0,0,0-3.31.85V6A5,5,0,0,1,15,4a46.91,46.91,0,0,1,7-.18,0,0,0,0,1,0,0Z"/></svg>