<svg id="Layer_1" data-name="Layer 1" xmlns="http://www.w3.org/2000/svg" viewBox="0 0 76.93 76.93"><defs><style>.cls-1{fill:#0d4060;}</style></defs><path class="cls-1" d="M45.53,75.89H31.4a3.21,3.21,0,0,1-3.21-2.79L27,64.6a27.65,27.65,0,0,1-4.83-2.8l-8,3.22a3.15,3.15,0,0,1-1.16.21,3.27,3.27,0,0,1-2.86-1.65l-7-12.2a3.29,3.29,0,0,1,.79-4.19l6.8-5.31a26.61,26.61,0,0,1-.17-2.79,26.63,26.63,0,0,1,.17-2.8L3.86,31a3.24,3.24,0,0,1-.79-4.2l7-12.21a3.34,3.34,0,0,1,3.93-1.45l8.1,3.26A28.25,28.25,0,0,1,27,13.57l1.22-8.52A3.21,3.21,0,0,1,31.4,2.28H45.53a3.21,3.21,0,0,1,3.21,2.8L50,13.57a27.65,27.65,0,0,1,4.83,2.8l8-3.21A3,3,0,0,1,64,12.94a3.27,3.27,0,0,1,2.86,1.65l7.05,12.2A3.28,3.28,0,0,1,73.08,31l-6.79,5.31c.08.82.16,1.78.16,2.8s-.08,2-.16,2.79l6.78,5.31a3.27,3.27,0,0,1,.82,4.16L66.81,63.6a3.33,3.33,0,0,1-3.93,1.45l-8.1-3.25A28.18,28.18,0,0,1,50,64.6l-1.22,8.52A3.21,3.21,0,0,1,45.53,75.89ZM22.6,58.38l.68.52a24.42,24.42,0,0,0,5.62,3.27l.8.32L31.16,72.7a.22.22,0,0,0,.24.19H45.53a.23.23,0,0,0,.24-.16l1.47-10.24.79-.32a25.49,25.49,0,0,0,5.63-3.28l.68-.5,9.58,3.84H64a.25.25,0,0,0,.21-.12l7.07-12.23a.27.27,0,0,0,0-.33L63.11,43.2l.1-.84a25.49,25.49,0,0,0,.24-3.27,25.66,25.66,0,0,0-.24-3.28l-.1-.84,8.12-6.35a.31.31,0,0,0,0-.36L64.21,16.07a.29.29,0,0,0-.25-.13l-9.63,3.85-.68-.52A24.38,24.38,0,0,0,48,16l-.79-.33L45.77,5.47a.22.22,0,0,0-.24-.19H31.4a.22.22,0,0,0-.24.17L29.7,15.68l-.8.33a25,25,0,0,0-5.63,3.27l-.68.5L13,15.94h-.07a.25.25,0,0,0-.21.12L5.66,28.29a.25.25,0,0,0,0,.33L13.83,35l-.11.84a26.61,26.61,0,0,0-.24,3.28,26.6,26.6,0,0,0,.24,3.27l.11.84L5.71,49.55a.29.29,0,0,0,0,.36L12.72,62.1a.29.29,0,0,0,.25.13Zm15.87-3.67A15.63,15.63,0,1,1,54.09,39.09,15.64,15.64,0,0,1,38.47,54.71Zm0-28.25A12.63,12.63,0,1,0,51.09,39.09,12.65,12.65,0,0,0,38.47,26.46Z"/></svg>