<svg id="Layer_1" data-name="Layer 1" xmlns="http://www.w3.org/2000/svg" viewBox="0 0 76.93 76.93"><defs><style>.cls-1{fill:#fff;}</style></defs><path class="cls-1" d="M27.84,29.22a1.48,1.48,0,0,0,1.48,1.48H58.69a1.48,1.48,0,1,0,0-3H29.32A1.5,1.5,0,0,0,27.84,29.22Z"/><path class="cls-1" d="M58.69,38H29.32a1.49,1.49,0,0,0,0,3H58.69a1.49,1.49,0,0,0,0-3Z"/><path class="cls-1" d="M58.69,48.33H29.32a1.48,1.48,0,0,0,0,3H58.69a1.48,1.48,0,0,0,0-3Z"/><path class="cls-1" d="M54.74,73.7h-42a1.33,1.33,0,0,1-1.34-1.27V13.84a1.34,1.34,0,0,1,1.34-1.34h2.47a1.34,1.34,0,0,0,1.34-1.34h0a1.34,1.34,0,0,0-1.34-1.35H10.2a1.34,1.34,0,0,0-1.34,1.35V75a1.35,1.35,0,0,0,1.34,1.35H57.32A1.35,1.35,0,0,0,58.66,75V70.21a1.34,1.34,0,0,0-1.34-1.34h0A1.34,1.34,0,0,0,56,70.21v2.22A1.34,1.34,0,0,1,54.74,73.7Z"/><path class="cls-1" d="M59.75,2.24a2.56,2.56,0,0,0-1.9-.84H20.66A2.69,2.69,0,0,0,18,4.09v61a2.69,2.69,0,0,0,2.62,2.62H65.11a2.7,2.7,0,0,0,2.69-2.62V11.79A2.69,2.69,0,0,0,67,10ZM57.36,4h.49l7.29,7.79V12H60A2.67,2.67,0,0,1,57.3,9.42Zm5.17,61.13H23.22a2.6,2.6,0,0,1-2.6-2.61V6.59A2.6,2.6,0,0,1,23.22,4h29a2.61,2.61,0,0,1,2.61,2.6h0V12a2.61,2.61,0,0,0,2.61,2.61H62.6a2.68,2.68,0,0,1,2.62,2.62V62.52A2.69,2.69,0,0,1,62.53,65.11Z"/></svg>