<svg id="Layer_1" data-name="Layer 1" xmlns="http://www.w3.org/2000/svg" viewBox="0 0 76.93 76.93"><defs><style>.cls-1{fill:#0d4060;}</style></defs><path class="cls-1" d="M38.47,73.12l-6.09-5.51C14.62,51.47,2.88,40.81,2.88,27.29A20,20,0,0,1,23.13,7.05c5.77,0,11.36,3.61,15.34,9.78,3.94-6.09,9.64-9.78,15.33-9.78A20,20,0,0,1,74.05,27.29c0,13.54-11.78,24.22-29.6,40.38ZM23.13,10.05A17.06,17.06,0,0,0,5.88,27.29c0,12.19,11.35,22.5,28.52,38.1l4.06,3.67,3.94-3.58c17.27-15.66,28.65-26,28.65-38.19A17.06,17.06,0,0,0,53.8,10.05c-5.24,0-10.61,4-14,10.45L38.47,23l-1.33-2.51C33.73,14.06,28.36,10.05,23.13,10.05Z"/></svg>