<svg id="Layer_1" data-name="Layer 1" xmlns="http://www.w3.org/2000/svg" viewBox="0 0 76.93 76.93"><defs><style>.cls-1{fill:#fff;}.cls-2{fill:#0d4060;}.cls-3{fill:#094060;}</style></defs><circle class="cls-1" cx="38.47" cy="38.34" r="35.71"/><path class="cls-2" d="M38.47,75.3a37,37,0,1,1,37-37A37,37,0,0,1,38.47,75.3Zm0-71.42A34.46,34.46,0,1,0,72.93,38.34,34.5,34.5,0,0,0,38.47,3.88Z"/><path class="cls-3" d="M63.79,31.57,42.24,12.51c-2.69-2.16-5-2.14-7.69,0l-21.43,19a2.88,2.88,0,0,0-.76,3.18,3,3,0,0,0,2.77,1.88h4.63v20a4.68,4.68,0,0,0,4.72,4.63H52.74A4.28,4.28,0,0,0,57.05,57V36.64H61.8a2.94,2.94,0,0,0,2.77-1.88A2.87,2.87,0,0,0,63.79,31.57Zm-9,2.85V57a2.06,2.06,0,0,1-2.09,2H24.48A2.45,2.45,0,0,1,22,56.59V34.42H15.13a.7.7,0,0,1-.69-.46.64.64,0,0,1,.17-.73L36,14.25a4,4,0,0,1,2.44-1.12,3.89,3.89,0,0,1,2.38,1.08l21.51,19a.65.65,0,0,1,.18.74.71.71,0,0,1-.69.46Z"/><path class="cls-3" d="M46.09,33.06a6.68,6.68,0,0,0-7.53,1l-.23.2-.16-.15a6.78,6.78,0,0,0-7-1.34,6.15,6.15,0,0,0-3.8,5.84,8.65,8.65,0,0,0,2,4.88,32.89,32.89,0,0,0,8.11,7.07,1.53,1.53,0,0,0,.84.23,1.72,1.72,0,0,0,.91-.25,38.44,38.44,0,0,0,7-5.68A11.69,11.69,0,0,0,49.07,40,6.15,6.15,0,0,0,46.09,33.06ZM40,35.74A4.5,4.5,0,0,1,45,35a3.93,3.93,0,0,1,1.89,4.45,9.68,9.68,0,0,1-2.38,3.9,34.8,34.8,0,0,1-6.2,5.09,30,30,0,0,1-7.2-6.3,6.3,6.3,0,0,1-1.52-3.61A3.9,3.9,0,0,1,32,34.83a4.07,4.07,0,0,1,1.52-.29,4.81,4.81,0,0,1,3.14,1.23l.63.56,1.07.92,1.07-1C39.65,36.08,39.83,35.9,40,35.74Z"/></svg>