<svg id="Layer_1" data-name="Layer 1" xmlns="http://www.w3.org/2000/svg" viewBox="0 0 23.73 23.73"><defs><style>.cls-1{fill:#0d4060;}</style></defs><path class="cls-1" d="M16.7,4.4,12.16.86a.5.5,0,0,0-.31-.1.56.56,0,0,0-.28.1L.46,9.53a.49.49,0,0,0-.08.68.48.48,0,0,0,.68.08l.67-.52v12.7a.48.48,0,0,0,.48.48H8.89a.43.43,0,0,0,.16,0h5.63a.43.43,0,0,0,.16,0h6.68a.49.49,0,0,0,.49-.48V9.77l.67.52a.47.47,0,0,0,.67-.08.48.48,0,0,0-.08-.68h0L19.59,6.66m-7.72-4.8L21,9V22H15.25V13.57a.76.76,0,0,0-.76-.76H9.24a.76.76,0,0,0-.75.76V22H2.69V9Zm6.76,4.05-1-.76m-7.61,8.62h3.63a.6.6,0,0,1,.6.6V22H9.45V14.37A.6.6,0,0,1,10.05,13.77Z"/></svg>