<svg id="Layer_1" data-name="Layer 1" xmlns="http://www.w3.org/2000/svg" viewBox="0 0 76.93 76.93"><defs><style>.cls-1{fill:#fff;}</style></defs><path class="cls-1" d="M38.32,3.84A34.71,34.71,0,1,0,73,38.55,34.75,34.75,0,0,0,38.32,3.84Z"/><path class="cls-1" d="M38.47,76.49A37.94,37.94,0,1,1,76.4,38.55,38,38,0,0,1,38.47,76.49Zm0-72.65A34.71,34.71,0,1,0,73.18,38.55,34.76,34.76,0,0,0,38.47,3.84Z"/><path class="cls-1" d="M39.33,23.12a3.61,3.61,0,0,0,3.9-3.28,4,4,0,0,0,0-.49,3.6,3.6,0,0,0-3.36-3.83h-.41a3.75,3.75,0,0,0-3.84,3.66v.18a3.61,3.61,0,0,0,3.44,3.77Z"/><path class="cls-1" d="M48.48,58.16a2,2,0,0,0-1.8-2H42.54v-27H32.17a2,2,0,0,0,0,4h4.24v23H32.3a2,2,0,0,0,0,4H46.59A2,2,0,0,0,48.48,58.16Z"/></svg>