<svg id="Layer_1" data-name="Layer 1" xmlns="http://www.w3.org/2000/svg" viewBox="0 0 65.54 56.73"><defs><style>.cls-1{fill:#0d3f60;}</style></defs><path class="cls-1" d="M33.38,18.71A2.45,2.45,0,0,0,36,16.17a2.46,2.46,0,0,0-2.54-2.59,2.52,2.52,0,0,0-2.59,2.59A2.46,2.46,0,0,0,33.38,18.71Z"/><path class="cls-1" d="M32.83,53.32A24.82,24.82,0,1,1,57.64,28.5,24.84,24.84,0,0,1,32.83,53.32ZM32.83,6A22.51,22.51,0,1,0,55.34,28.5,22.53,22.53,0,0,0,32.83,6Z"/><path class="cls-1" d="M39.56,40.41a1.36,1.36,0,0,0-1.28-1.36H35.55V20.76h-7v0a1.36,1.36,0,0,0,0,2.7v0h2.85V39.05H28.64a1.36,1.36,0,0,0,0,2.72h9.64A1.35,1.35,0,0,0,39.56,40.41Z"/></svg>