<svg id="Layer_1" data-name="Layer 1" xmlns="http://www.w3.org/2000/svg" viewBox="0 0 23.73 23.73"><defs><style>.cls-1{fill:#0d3f60;}</style></defs><path class="cls-1" d="M23.34,22.91a.52.52,0,0,1-.52.28h-18c-.41,0-.53-.12-.53-.53V13.79c0-.41.12-.54.53-.54H7.93c.45,0,.6.21.46.63a1.53,1.53,0,0,0-.14.87,1,1,0,1,0,1.91-.48c0-.15-.09-.29-.14-.43-.11-.36.05-.58.43-.58h3V10.33c0-.43.21-.58.62-.45a3.33,3.33,0,0,0,.6.16.94.94,0,0,0,.95-.51,1,1,0,0,0-.11-1.09,1,1,0,0,0-1-.34l-.51.17a.39.39,0,0,1-.53-.39V4.52c0-.29.16-.43.48-.43h8.9a.57.57,0,0,1,.55.26ZM10.91,14c.16,1.28-.47,2.2-1.54,2.28A1.72,1.72,0,0,1,8,15.83a1.77,1.77,0,0,1-.5-1.8H5v8.38h8.38v-3A.39.39,0,0,1,14,19c.17.05.34.12.51.16a.93.93,0,0,0,1-.34.92.92,0,0,0,.12-1.05.88.88,0,0,0-.89-.55,2.84,2.84,0,0,0-.64.15c-.44.14-.65,0-.65-.46V14h-2.5Zm3.27,2.49c1.35-.09,2.19.49,2.27,1.53A1.69,1.69,0,0,1,16,19.35a1.77,1.77,0,0,1-1.85.56V22.4h8.37V14H19.63c-.42,0-.56-.22-.44-.61a3.09,3.09,0,0,0,.14-.43A1,1,0,0,0,19,12a.94.94,0,0,0-1.07-.11.92.92,0,0,0-.54.92,2.8,2.8,0,0,0,.17.63c.13.41,0,.62-.45.62H14.18Zm8.38-3.26V4.87H14.19v2.5a1.73,1.73,0,0,1,2,.76,1.65,1.65,0,0,1,0,1.84,1.76,1.76,0,0,1-2,.78v2.49h2.5a1.81,1.81,0,0,1,.25-1.52,1.76,1.76,0,0,1,2.63-.28,1.81,1.81,0,0,1,.5,1.81Z"/><path class="cls-1" d="M10.1.28a.54.54,0,0,1,.27.52c0,.83,0,1.65,0,2.48v.27a1.79,1.79,0,0,1,1.81.5,1.65,1.65,0,0,1,.47,1.28,1.69,1.69,0,0,1-.74,1.34c-.39.28-.68.33-1.54.27V9.69c0,.38-.13.52-.51.52H7.09A1.79,1.79,0,0,1,6.62,12a1.69,1.69,0,0,1-1.32.49,1.78,1.78,0,0,1-1.6-2.27H1c-.41,0-.53-.13-.53-.54,0-3,0-5.92,0-8.88A.52.52,0,0,1,.7.28ZM9.59,9.44c0-.08,0-.13,0-.17V6.45c0-.35.22-.51.56-.4.16,0,.32.11.49.15a1,1,0,0,0,1-.33.93.93,0,0,0,.13-1,.89.89,0,0,0-.89-.56,2.9,2.9,0,0,0-.69.17c-.39.12-.6,0-.6-.45V1.06H1.21V9.44H4.14c.42,0,.57.21.43.62,0,.14-.1.28-.13.43a.94.94,0,0,0,.33,1,.92.92,0,0,0,1.06.13.9.9,0,0,0,.55-.9,2.64,2.64,0,0,0-.17-.67c-.12-.4,0-.61.44-.61H9.59Z"/></svg>