<svg id="Layer_1" data-name="Layer 1" xmlns="http://www.w3.org/2000/svg" viewBox="0 0 76.93 76.93"><defs><style>.cls-1{fill:#fff;}</style></defs><path class="cls-1" d="M66.18,10.92H10.75a7.87,7.87,0,0,0-7.86,7.86V57a7.87,7.87,0,0,0,7.86,7.86H66.18A7.87,7.87,0,0,0,74,57V18.78A7.87,7.87,0,0,0,66.18,10.92ZM47.07,38.52,70.68,17A4.75,4.75,0,0,1,71,18.78V57a4.85,4.85,0,0,1-.86,2.75Zm19.11-24.6a4.8,4.8,0,0,1,2.57.75L42.09,39a5.35,5.35,0,0,1-7.35,0L8.18,14.67a4.8,4.8,0,0,1,2.57-.75ZM6.75,59.7A4.82,4.82,0,0,1,5.89,57V18.78A4.75,4.75,0,0,1,6.25,17L29.86,38.6Zm4,2.11a4.74,4.74,0,0,1-1.56-.28L32.08,40.64l.63.57a8.3,8.3,0,0,0,11.4,0l.73-.67,22.9,21a4.74,4.74,0,0,1-1.56.28Z"/></svg>