<svg id="Layer_1" data-name="Layer 1" xmlns="http://www.w3.org/2000/svg" viewBox="0 0 23.73 23.73"><defs><style>.cls-1{fill:#0d3f60;}</style></defs><path class="cls-1" d="M7.24,11h0a.32.32,0,0,1-.29-.35s.25-3.11,3-3.75a.32.32,0,1,1,.15.62,3.56,3.56,0,0,0-2.53,3.18A.33.33,0,0,1,7.24,11Z"/><path class="cls-1" d="M11.83,3.41A.43.43,0,0,1,11.4,3V.55a.43.43,0,0,1,.43-.43.44.44,0,0,1,.44.43V3A.44.44,0,0,1,11.83,3.41Z"/><path class="cls-1" d="M20.36,10.55a.44.44,0,0,1-.11-.86L22.84,9a.44.44,0,0,1,.53.31.43.43,0,0,1-.31.53l-2.59.7Z"/><path class="cls-1" d="M3.19,10.44H3.07L.59,9.76a.44.44,0,0,1-.3-.54.42.42,0,0,1,.53-.3l2.48.67a.43.43,0,0,1-.11.85Z"/><path class="cls-1" d="M1.35,17.31A.43.43,0,0,1,1,17.09a.44.44,0,0,1,.16-.6l2.47-1.4a.43.43,0,0,1,.59.16.44.44,0,0,1-.16.6l-2.47,1.4A.42.42,0,0,1,1.35,17.31Z"/><path class="cls-1" d="M18,5.17a.42.42,0,0,1-.3-.12.44.44,0,0,1,0-.62l1.77-1.77a.44.44,0,0,1,.62,0,.43.43,0,0,1,0,.61L18.32,5.05A.43.43,0,0,1,18,5.17Z"/><path class="cls-1" d="M21.66,17.34a.42.42,0,0,1-.24-.07l-2.1-1.35a.43.43,0,0,1,.47-.73l2.1,1.35a.44.44,0,0,1,.13.6A.42.42,0,0,1,21.66,17.34Z"/><path class="cls-1" d="M5.65,5.06a.43.43,0,0,1-.31-.13L3.57,3.16a.44.44,0,0,1,0-.62.43.43,0,0,1,.61,0L6,4.32a.44.44,0,0,1-.31.74Z"/><path class="cls-1" d="M18.49,10.61C18,7.1,15,4.85,11.21,5.13A6.6,6.6,0,0,0,6.45,7.65a5.88,5.88,0,0,0-1.14,4.71A7,7,0,0,0,7,15.66a3.38,3.38,0,0,1,1.1,2.74,1.55,1.55,0,0,0,.06.54.83.83,0,0,1,0,.15,1.6,1.6,0,0,0,.4.8,1.12,1.12,0,0,0-.46.91,1.09,1.09,0,0,0,.29.72,1.15,1.15,0,0,0-.29.76,1.06,1.06,0,0,0,1.06,1.06h5.13a1.08,1.08,0,0,0,1.06-1.12,1,1,0,0,0-.29-.71,1.2,1.2,0,0,0,.29-.77,1.06,1.06,0,0,0-.34-.77l0,0a1.42,1.42,0,0,0,.38-.63,2.92,2.92,0,0,0,.15-1.1,2.88,2.88,0,0,1,.78-2.14c.34-.41.7-.84,1-1.3A5.75,5.75,0,0,0,18.49,10.61ZM14.36,21.16H9.23a.38.38,0,0,1-.36-.42.36.36,0,0,1,.36-.36h5.13a.38.38,0,0,1,.36.42A.36.36,0,0,1,14.36,21.16Zm0,1.48H9.23a.38.38,0,0,1-.36-.42.36.36,0,0,1,.36-.36h5.13a.38.38,0,0,1,.36.42A.36.36,0,0,1,14.36,22.64Zm-2.6-3-1-5.32.72.53a.59.59,0,0,0,.68,0l.86-.6-.89,5.38Zm5.08-5.26a13,13,0,0,1-1,1.25,3.56,3.56,0,0,0-.92,2.6,2.21,2.21,0,0,1-.12.85.72.72,0,0,1-.76.56H12.81l.9-5.41a.58.58,0,0,0-.26-.59.59.59,0,0,0-.65,0l-.94.66-.82-.6a.57.57,0,0,0-.65,0,.56.56,0,0,0-.26.6l1,5.35H9.78A.81.81,0,0,1,8.86,19c0-.06,0-.12,0-.18a.88.88,0,0,1-.05-.29,4.05,4.05,0,0,0-1.25-3.25,6.43,6.43,0,0,1-1.57-3A5.19,5.19,0,0,1,7,8a6,6,0,0,1,4.29-2.27l.57,0a5.81,5.81,0,0,1,6,4.95A5.12,5.12,0,0,1,16.84,14.41Z"/></svg>