<svg id="Layer_1" data-name="Layer 1" xmlns="http://www.w3.org/2000/svg" viewBox="0 0 76.93 76.93"><defs><style>.cls-1{fill:#fff;}</style></defs><path class="cls-1" d="M31.15,21.1c-9.14,2.22-10,12.33-10,12.47a1.09,1.09,0,0,0,1.11,1.1,1,1,0,0,0,1.11-1c0-.41.69-8.72,8.31-10.52a1.11,1.11,0,0,0,.69-1.11C32.26,21.51,31.71,21,31.15,21.1Z"/><path class="cls-1" d="M37.57,6.31a1,1,0,0,0,1-.94h0V1.13a1,1,0,0,0-1.92.13V5.37h0A1,1,0,0,0,37.57,6.31Z"/><path class="cls-1" d="M8.58,29.72l.07,0a1,1,0,0,0,.95-.95A.94.94,0,0,0,9,27.9v0L3.34,27A1,1,0,0,0,3,28.83l5.61.91Z"/><path class="cls-1" d="M17.59,13.18a1,1,0,0,0,1.6-.71.89.89,0,0,0-.18-.53l0,0-.11-.11,0,0L15.76,8.58A1,1,0,0,0,14.4,10l3.17,3.24Z"/><path class="cls-1" d="M69.79,47.21l-4.52-2.5h0a.86.86,0,0,0-.39-.09.93.93,0,0,0-.23,1.84l4.27,2.36a.72.72,0,0,0,.5.13.83.83,0,0,0,.74-.5A1,1,0,0,0,69.79,47.21Z"/><path class="cls-1" d="M10.5,45.16a1,1,0,0,0-.7.29L6.07,48a.78.78,0,0,0-.37.75,1,1,0,0,0,1,1c.12,0,.37-.12.49-.12l3.66-2.46v0a1,1,0,0,0,.66-.92A1,1,0,0,0,10.5,45.16Z"/><path class="cls-1" d="M59.18,4.63A16.24,16.24,0,0,0,43.64,16.25a25,25,0,0,0-8.14-.66A21.52,21.52,0,0,0,19.84,23.9,19.08,19.08,0,0,0,16.1,39.41a23.85,23.85,0,0,0,5.68,10.94,13.1,13.1,0,0,1,3.59,6.47,12.28,12.28,0,0,1,0,2.57,6.6,6.6,0,0,0,1.65,5,2.22,2.22,0,0,0-.83,1.8,2.92,2.92,0,0,0,1,2.08,2.42,2.42,0,0,0-1,1.94,2.72,2.72,0,0,0,1.66,2.49h.28a2.05,2.05,0,0,0-.28,1.25,2.9,2.9,0,0,0,1.52,2.49c.28.14.56.14.83.28a29.94,29.94,0,0,0,3.47.14h6.09c1.8,0,3.74,0,5.68-.14.28,0,.55-.14.83-.14a2.7,2.7,0,0,0,1.25-3.46c0-.14-.14-.14-.14-.28a2.72,2.72,0,0,0,1.66-2.49,2.61,2.61,0,0,0-1-1.94,2.51,2.51,0,0,0,1-2.08,2,2,0,0,0-.83-1.66,4.09,4.09,0,0,0,1.25-2.08,7.89,7.89,0,0,0,.41-3.6,9.56,9.56,0,0,1,2.63-7.06,50.24,50.24,0,0,0,3.33-4.3A20.8,20.8,0,0,0,59.6,37a16.2,16.2,0,0,0-.42-32.4ZM45.93,74.12a1,1,0,0,1-1,1H30.77a1,1,0,0,1-1-1V74a1,1,0,0,1,1-1H45a1,1,0,0,1,1,1Zm1.22-4a1,1,0,0,1-1,1H29.32a1,1,0,0,1-1-1v0a1,1,0,0,1,1-1H46.1a1,1,0,0,1,1,1ZM45.83,65.3a1,1,0,0,1,1,1v0a1,1,0,0,1-1,1H29.47a1,1,0,0,1-1-1v0a1,1,0,0,1,1-1ZM37.3,63.65,34,46.06l2.36,1.8a2.14,2.14,0,0,0,2.21,0l2.91-1.94L38.68,63.65ZM54.06,46.2c-1,1.38-2.08,2.77-3.19,4.15a12.18,12.18,0,0,0-3,8.59,8.84,8.84,0,0,1-.41,2.77,2.39,2.39,0,0,1-2.49,1.8H40.76l2.91-17.87a1.91,1.91,0,0,0-1.52-2.21,1.64,1.64,0,0,0-1.39.27l-3.19,2.22L34.94,44a2.13,2.13,0,0,0-2.21-.14,1.85,1.85,0,0,0-.83,1.94l3.18,17.73H30.79a4.28,4.28,0,0,1-1.13,0,2.35,2.35,0,0,1-1-.48,3.64,3.64,0,0,1-1.1-2.16,6.51,6.51,0,0,1-.12-1.24c0-.49.1-1,.1-1.46a10.18,10.18,0,0,0-.15-1.91,11.72,11.72,0,0,0-1.22-3.4A18.49,18.49,0,0,0,23.31,49,21.24,21.24,0,0,1,18,39a17.14,17.14,0,0,1,3.33-13.85,19.74,19.74,0,0,1,14.27-7.48c.69,0,1.24-.14,1.8-.14a22.81,22.81,0,0,1,5.75.73A17.08,17.08,0,0,0,43,20.84,16.23,16.23,0,0,0,57.53,37,17.6,17.6,0,0,1,54.06,46.2Zm5.12-11.15A14.21,14.21,0,1,1,73.39,20.84,14.22,14.22,0,0,1,59.18,35.05Z"/><path class="cls-1" d="M67.59,14.82c-1.46-1.49-2.83-2.25-5.18-1.45A13.52,13.52,0,0,0,58.92,16c-.47-.47-1.56-1.54-2-1.84-2.58-1.91-5.3-1.44-7.28,1.24a5.92,5.92,0,0,0,.69,7.83l8.53,8.53,8.59-8.57a5.94,5.94,0,0,0,.09-8.39Zm-1.5,7L58.93,29l-7.16-7.17a3.94,3.94,0,0,1-.48-5.2A3.24,3.24,0,0,1,53.82,15a3.28,3.28,0,0,1,1.93.75c.3.24,1.58,1.49,1.93,1.85a1.62,1.62,0,0,0,2.54-.06,13.22,13.22,0,0,1,2.87-2.3c1.27-.43,1.88-.24,3.07,1a3.94,3.94,0,0,1-.07,5.57Z"/></svg>