<svg id="Layer_1" data-name="Layer 1" xmlns="http://www.w3.org/2000/svg" viewBox="0 0 23.73 23.73"><defs><style>.cls-1{fill:#0d3f60;}</style></defs><path class="cls-1" d="M2,23.17A1.75,1.75,0,0,1,.9,22.48a5.08,5.08,0,0,1-.34-.79v-.42A2.44,2.44,0,0,1,1.33,20c1.74-1.71,4.46-4.44,6.19-6.16.05-.06.14-.08.21-.13l-.2-.3a8.16,8.16,0,0,1-.85-6.9,8.15,8.15,0,0,1,4.41-5.08,8.09,8.09,0,0,1,7.66.2,8.24,8.24,0,0,1,4.33,6.12c0,.22.06.45.09.68V9.61a.53.53,0,0,0,0,.12,8.18,8.18,0,0,1-1.27,3.77A8.3,8.3,0,0,1,17,17.13a8.1,8.1,0,0,1-5.47-.33c-.49-.2-1-.47-1.48-.74a.83.83,0,0,1-.13.16L3.73,22.39a2.46,2.46,0,0,1-1.27.78ZM14.73,1.44A7.59,7.59,0,1,0,22.33,9,7.61,7.61,0,0,0,14.73,1.44ZM6.34,16.2l-1,1-3.6,3.6a.83.83,0,0,0-.05,1.23.82.82,0,0,0,1.11.07A1.07,1.07,0,0,0,2.92,22L7.5,17.43l0,0Zm3-.62L8.17,14.46,7,15.62l1.14,1.1Z"/><path class="cls-1" d="M21,9a6.31,6.31,0,1,1-6.31-6.3A6.33,6.33,0,0,1,21,9Zm-6.31,5.51A5.51,5.51,0,1,0,9.21,9,5.54,5.54,0,0,0,14.73,14.53Z"/></svg>