<?xml version="1.0" encoding="utf-8"?>
<!-- Generator: Adobe Illustrator 26.0.1, SVG Export Plug-In . SVG Version: 6.00 Build 0)  -->
<svg version="1.1" id="Layer_1" xmlns="http://www.w3.org/2000/svg" xmlns:xlink="http://www.w3.org/1999/xlink" x="0px" y="0px"
	 viewBox="0 0 23.7 23.7" style="enable-background:new 0 0 23.7 23.7;" xml:space="preserve">
<style type="text/css">
	.st0{fill:#0D3F60;}
</style>
<polygon class="st0" points="3.3,5 13.4,5 13.4,5.7 3.3,5.7 "/>
<path class="st0" d="M22.7,3.5C22.7,3.5,22.7,3.5,22.7,3.5l-0.3-0.3l-1-1c-0.5-0.5-1.2-0.8-1.8-0.8c-0.7,0-1.4,0.3-1.9,0.8l-1.3,1.2
	l-0.7,0.7V1.1h-15v21.6h15v-8.4l7-7C23.7,6.3,23.7,4.6,22.7,3.5z M15,22H1.3V1.8H15V5l-4.3,4.3l-7.4,0V10l6.7,0l-1.8,1.8
	c-0.1,0.1-0.2,0.3-0.3,0.4c-0.2,0.5-0.3,1-0.5,1.5l-4.2,0v0.7l3.9,0L6,17.9c0,0.1,0,0.2,0,0.2l-2.7,0v0.7l3,0
	C6.4,18.9,6.6,19,6.7,19c0.1,0,0.3,0,0.4-0.1c1.8-0.6,3.7-1.2,5.5-1.8c0.2-0.1,0.4-0.2,0.5-0.3L15,15V22z M6.7,18.3c0,0,0-0.1,0-0.2
	l0.4-1.2l1,1L7,18.3C6.9,18.3,6.8,18.3,6.7,18.3z M7.4,16.1L8.1,14l0.4-1l3.6,3.6l-3.1,1.1L7.4,16.1z M15.2,13.9l-2.4,2.4
	c0,0,0,0,0,0l-4-4l8.2-8.2l1-1L22,7L15.2,13.9z M22.4,6.5l-4-3.9c0.3-0.2,0.7-0.4,1.2-0.4c0.5,0,1,0.2,1.4,0.6l1,1L22.2,4
	C22.8,4.6,22.9,5.7,22.4,6.5z"/>
</svg>
