<svg id="Layer_1" data-name="Layer 1" xmlns="http://www.w3.org/2000/svg" viewBox="0 0 65.54 56.73"><defs><style>.cls-1{fill:#0d3f60;}</style></defs><path class="cls-1" d="M25.66,21.28a1.1,1.1,0,0,0,1.1,1.1H48.63a1.1,1.1,0,0,0,0-2.2H26.76A1.11,1.11,0,0,0,25.66,21.28Z"/><path class="cls-1" d="M48.63,27.84H26.76a1.11,1.11,0,0,0,0,2.21H48.63a1.11,1.11,0,0,0,0-2.21Z"/><path class="cls-1" d="M48.63,35.51H26.76a1.1,1.1,0,1,0,0,2.2H48.63a1.1,1.1,0,0,0,0-2.2Z"/><path class="cls-1" d="M44.94,54.4H13.7a1,1,0,0,1-1-.95V9.83a1,1,0,0,1,1-1h1.84a1,1,0,0,0,1-1h0a1,1,0,0,0-1-1H11.78a1,1,0,0,0-1,1V55.36a1,1,0,0,0,1,1H46.86a1,1,0,0,0,1-1V51.8a1,1,0,0,0-1-1h0a1,1,0,0,0-1,1v1.65A1,1,0,0,1,44.94,54.4Z"/><path class="cls-1" d="M49.42,1.19A1.92,1.92,0,0,0,48,.57H20.31a2,2,0,0,0-1.95,2V48a2,2,0,0,0,1.95,1.95h33.1a2,2,0,0,0,2-1.95V8.3A2,2,0,0,0,54.83,7Zm-1.78,1.3H48l5.43,5.8v.2H49.59a2,2,0,0,1-2-1.95ZM51.49,48H22.22a1.94,1.94,0,0,1-1.94-2V4.43a1.94,1.94,0,0,1,1.94-1.94H43.77a1.94,1.94,0,0,1,1.95,1.94v4a1.94,1.94,0,0,0,2,1.94h3.82a2,2,0,0,1,1.95,1.95V46.07A2,2,0,0,1,51.49,48Z"/></svg>