<svg id="Layer_1" data-name="Layer 1" xmlns="http://www.w3.org/2000/svg" viewBox="0 0 76.93 76.93"><defs><style>.cls-1{fill:#0d4060;}</style></defs><path class="cls-1" d="M55.74,38a16.78,16.78,0,0,0-11.19,4.27c-4-7.59-10.9-11.9-19.2-11.9A20.73,20.73,0,0,0,4.64,51V71.77h68V54.86A16.92,16.92,0,0,0,55.74,38ZM7.64,68.77V51a17.72,17.72,0,0,1,17.72-17.7c7.45,0,13.6,4.09,17,11.24a16.85,16.85,0,0,0-3.52,10.28V68.77Zm62,0H41.84V54.86a13.9,13.9,0,0,1,27.8,0Z"/><path class="cls-1" d="M25.35,29.55A11.76,11.76,0,1,0,13.6,17.79,11.77,11.77,0,0,0,25.35,29.55ZM25.35,9a8.76,8.76,0,1,1-8.75,8.75A8.77,8.77,0,0,1,25.35,9Z"/><path class="cls-1" d="M55.62,37A10.13,10.13,0,1,0,45.49,26.91,10.14,10.14,0,0,0,55.62,37Zm0-17.25a7.13,7.13,0,1,1-7.13,7.12A7.13,7.13,0,0,1,55.62,19.79Z"/><path class="cls-1" d="M25.35,58.45l-1.13-1c-4-3.66-6.69-6.07-6.69-9a4.26,4.26,0,0,1,4.3-4.31,4.69,4.69,0,0,1,3.52,1.64,4.71,4.71,0,0,1,3.52-1.64,4.27,4.27,0,0,1,4.31,4.31c0,3-2.66,5.36-6.69,9Z"/></svg>