<svg id="Layer_1" data-name="Layer 1" xmlns="http://www.w3.org/2000/svg" viewBox="0 0 76.93 76.93"><defs><style>.cls-1{fill:#fff;}.cls-2{fill:#0d4060;}</style></defs><circle class="cls-1" cx="38.47" cy="38.34" r="35.71"/><path class="cls-2" d="M38.47,75.3a37,37,0,1,1,37-37A37,37,0,0,1,38.47,75.3Zm0-71.42A34.46,34.46,0,1,0,72.93,38.34,34.5,34.5,0,0,0,38.47,3.88Z"/><path class="cls-2" d="M50.1,33.87a11.34,11.34,0,0,0-7.54,2.87,14.22,14.22,0,0,0-12.92-8A14,14,0,0,0,15.71,42.66v14H61.47V45.23A11.38,11.38,0,0,0,50.1,33.87ZM17.73,54.59V42.66A11.92,11.92,0,0,1,29.65,30.75c5,0,9.16,2.75,11.44,7.57a11.33,11.33,0,0,0-2.36,6.91v9.36Zm41.72,0H40.75V45.23a9.35,9.35,0,0,1,18.7,0Z"/><path class="cls-2" d="M29.65,28.2a7.91,7.91,0,1,0-7.91-7.91A7.92,7.92,0,0,0,29.65,28.2Zm0-13.8a5.89,5.89,0,1,1-5.89,5.89A5.89,5.89,0,0,1,29.65,14.4Z"/><path class="cls-2" d="M50,33.24a6.82,6.82,0,1,0-6.82-6.81A6.82,6.82,0,0,0,50,33.24Zm0-11.61a4.8,4.8,0,1,1-4.8,4.8A4.8,4.8,0,0,1,50,21.63Z"/><path class="cls-2" d="M29.65,47.65l-.77-.7c-2.71-2.45-4.5-4.08-4.5-6.07A2.87,2.87,0,0,1,27.28,38a3.15,3.15,0,0,1,2.37,1.1A3.12,3.12,0,0,1,32,38a2.86,2.86,0,0,1,2.89,2.89c0,2-1.79,3.62-4.5,6.08Z"/></svg>