<svg id="Layer_1" data-name="Layer 1" xmlns="http://www.w3.org/2000/svg" viewBox="0 0 76.93 76.93"><defs><style>.cls-1{fill:#0d4060;}</style></defs><path class="cls-1" d="M25.05,69.19h-6a9.42,9.42,0,0,1-9.41-9.41V17.2a9.42,9.42,0,0,1,9.41-9.41h6a9.42,9.42,0,0,1,9.41,9.41V59.78A9.42,9.42,0,0,1,25.05,69.19Zm-6-58.27a6.28,6.28,0,0,0-6.27,6.28V59.78a6.28,6.28,0,0,0,6.27,6.28h6a6.28,6.28,0,0,0,6.28-6.28V17.2a6.29,6.29,0,0,0-6.28-6.28Z"/><path class="cls-1" d="M57.66,69.19h-6a9.41,9.41,0,0,1-9.4-9.41V17.2a9.41,9.41,0,0,1,9.4-9.41h6a9.42,9.42,0,0,1,9.41,9.41V59.78A9.42,9.42,0,0,1,57.66,69.19Zm-6-58.27a6.28,6.28,0,0,0-6.27,6.28V59.78a6.28,6.28,0,0,0,6.27,6.28h6a6.28,6.28,0,0,0,6.28-6.28V17.2a6.29,6.29,0,0,0-6.28-6.28Z"/></svg>