<svg id="Layer_1" data-name="Layer 1" xmlns="http://www.w3.org/2000/svg" viewBox="0 0 76.93 76.93"><defs><style>.cls-1{fill:#0d4060;}</style></defs><path class="cls-1" d="M38.79,43.81l-1.66-1.49c-4.83-4.4-8-7.3-8-11a5.46,5.46,0,0,1,5.51-5.52,5.16,5.16,0,0,1,4.18,2.67A5.25,5.25,0,0,1,43,25.82a5.46,5.46,0,0,1,5.51,5.52c0,3.68-3.21,6.59-8.06,11Z"/><path class="cls-1" d="M25.22,75a9.48,9.48,0,0,1-7-3.06,6.92,6.92,0,0,1-1.56-4.63V9.82a8.55,8.55,0,0,1,.37-2.64C17.9,4.36,20.29,2.62,24.15,2a13.4,13.4,0,0,1,1.78-.11H51.7a9.39,9.39,0,0,1,7.53,3.15,7,7,0,0,1,1.53,4.61V63.11c0,1.65,0,3.35-.09,5-.35,3.77-3.15,6.3-7.48,6.8a14.35,14.35,0,0,1-1.73.11H25.22Zm.61-70.62a9.54,9.54,0,0,0-1.32.09c-3.8.59-4.71,2.22-5.06,3.4a6.14,6.14,0,0,0-.26,1.9V67.4a4.36,4.36,0,0,0,1,2.95,6.92,6.92,0,0,0,5.46,2.17H51.45a11.6,11.6,0,0,0,1.44-.09c1.84-.21,5-1.08,5.28-4.5.09-1.54.09-3.21.09-4.82V9.62a4.48,4.48,0,0,0-.95-3,6.93,6.93,0,0,0-5.54-2.25H25.83ZM38.76,70.49a4.79,4.79,0,0,1-3.42-1.42,4.44,4.44,0,0,1-1.29-3.14,4.66,4.66,0,0,1,4.74-4.49h0a4.62,4.62,0,0,1,4.7,4.46A4.4,4.4,0,0,1,42.28,69a4.77,4.77,0,0,1-3.39,1.45Zm0-6.55a2.15,2.15,0,0,0-2.24,2,1.91,1.91,0,0,0,.57,1.36,2.31,2.31,0,0,0,1.65.68h.07a2.32,2.32,0,0,0,1.64-.69A1.9,1.9,0,0,0,41,65.94a2.17,2.17,0,0,0-2.22-2Zm16.13-4.25H22.51V10H54.92ZM25,57.19H52.42V12.48H25Z"/></svg>