<svg id="Layer_1" data-name="Layer 1" xmlns="http://www.w3.org/2000/svg" viewBox="0 0 76.93 76.93"><defs><style>.cls-1{fill:#fff;}</style></defs><path class="cls-1" d="M38.44,76.49A37.94,37.94,0,1,1,76.37,38.55,38,38,0,0,1,38.44,76.49Zm0-72.65A34.71,34.71,0,1,0,73.15,38.55,34.75,34.75,0,0,0,38.44,3.84Z"/><path class="cls-1" d="M38.41,51.66h0a3,3,0,0,1,3,3h0a3,3,0,0,1-3,3h0a3,3,0,0,1-3-3h0A3,3,0,0,1,38.41,51.66Z"/><path class="cls-1" d="M44.24,30.21a5.44,5.44,0,0,1-1.85,4.17l-5.23,5A3.4,3.4,0,0,0,36,42v3.13a2.29,2.29,0,0,0,2.35,2.24H39a2.29,2.29,0,0,0,2.35-2.24V43.37a1.06,1.06,0,0,1,.31-.75l4.27-4.26a11,11,0,0,0-1.2-17.58A10.86,10.86,0,0,0,36,19.26a11.67,11.67,0,0,0-8.76,8.82,1.8,1.8,0,0,0,1.9,2.15h1.5a2.25,2.25,0,0,0,2.13-1.5,5.94,5.94,0,0,1,5.95-3.85,5.82,5.82,0,0,1,5.61,5.35Z"/></svg>