<svg id="Layer_1" data-name="Layer 1" xmlns="http://www.w3.org/2000/svg" viewBox="0 0 23.73 23.73"><defs><style>.cls-1{fill:#0d3f60;}</style></defs><path class="cls-1" d="M11.91,16.4c-5.16,0-6.15-2.67-6.3-3.2A.5.5,0,0,1,6,12.58a.51.51,0,0,1,.62.35c.11.41.9,2.47,5.24,2.47s5.22-2.06,5.34-2.47a.5.5,0,1,1,1,.27C18,13.73,17,16.4,11.91,16.4Z"/><path class="cls-1" d="M11.87,23A11.13,11.13,0,1,1,23,11.87,11.14,11.14,0,0,1,11.87,23Zm0-21.22A10.1,10.1,0,1,0,22,11.87,10.11,10.11,0,0,0,11.87,1.77Z"/><path class="cls-1" d="M8.68,10.26A2,2,0,0,1,6.59,8.84.5.5,0,0,1,7,8.25a.49.49,0,0,1,.59.39c0,.06.18.62,1.11.62h0c.88,0,1.06-.57,1.08-.63a.49.49,0,0,1,.6-.36.49.49,0,0,1,.37.59,2,2,0,0,1-2.05,1.4Z"/><path class="cls-1" d="M15.08,10.26A2,2,0,0,1,13,8.84a.5.5,0,0,1,.39-.59.51.51,0,0,1,.59.39c0,.06.18.62,1.1.62h0c.88,0,1.06-.57,1.08-.63a.49.49,0,0,1,.6-.36.49.49,0,0,1,.37.59,2,2,0,0,1-2.05,1.4Z"/></svg>