<svg id="Layer_1" data-name="Layer 1" xmlns="http://www.w3.org/2000/svg" viewBox="0 0 76.93 76.93"><defs><style>.cls-1{fill:#fff;}</style></defs><path class="cls-1" d="M56.94,73.42a6.46,6.46,0,0,1-3.8-1.26L40.27,62.8a3.08,3.08,0,0,0-3.61,0L23.79,72.16a6.47,6.47,0,0,1-9.95-7.23l4.92-15.14a3.05,3.05,0,0,0-1.12-3.42L4.77,37a6.47,6.47,0,0,1,3.8-11.7H24.48A3.07,3.07,0,0,0,27.4,23.2L32.32,8.06a6.37,6.37,0,0,1,6.15-4.47h0a6.37,6.37,0,0,1,6.14,4.47L49.53,23.2a3.07,3.07,0,0,0,2.92,2.11H68.36A6.47,6.47,0,0,1,72.16,37L59.29,46.37a3.06,3.06,0,0,0-1.12,3.43l4.92,15.13a6.51,6.51,0,0,1-6.15,8.49ZM38.47,58.82a6.5,6.5,0,0,1,3.8,1.23l12.87,9.36A3.07,3.07,0,0,0,59.86,66L54.94,50.84a6.44,6.44,0,0,1,2.35-7.22l12.88-9.36a3.07,3.07,0,0,0-1.81-5.55H52.45a6.45,6.45,0,0,1-6.15-4.46L41.38,9.11A3,3,0,0,0,38.47,7h0a3,3,0,0,0-2.92,2.12L30.63,24.25a6.45,6.45,0,0,1-6.15,4.46H8.57a3.07,3.07,0,0,0-1.8,5.55l12.87,9.36A6.44,6.44,0,0,1,22,50.84L17.07,66a3.07,3.07,0,0,0,4.72,3.43l12.87-9.36A6.5,6.5,0,0,1,38.47,58.82Z"/></svg>