<svg id="Layer_1" data-name="Layer 1" xmlns="http://www.w3.org/2000/svg" viewBox="0 0 76.93 76.93"><defs><style>.cls-1{fill:#fff;}.cls-2{fill:#0d4060;}.cls-3{fill:#49b649;}.cls-4{fill:#0d3f60;}</style></defs><circle class="cls-1" cx="38.47" cy="38.34" r="35.71"/><path class="cls-2" d="M38.47,75.3a37,37,0,1,1,37-37A37,37,0,0,1,38.47,75.3Zm0-71.42A34.46,34.46,0,1,0,72.93,38.34,34.5,34.5,0,0,0,38.47,3.88Z"/><path class="cls-3" d="M24.27,39.21A21.6,21.6,0,0,0,22,37a4.74,4.74,0,0,0-7,1.37,4.83,4.83,0,0,0,.86,6.26c2.42,2.38,4.81,4.8,7.21,7.2,1.46,1.46,2.89,2.94,4.38,4.35a4.79,4.79,0,0,0,6.64-.1c.46-.46.93-.92,1.39-1.39L50.36,39.87h0c.06-.07.12-.15.18-.21,2.89-2.89,5.76-5.8,8.68-8.66a5,5,0,0,0,1.67-4.84,4.73,4.73,0,0,0-3.46-3.7,4.56,4.56,0,0,0-4.74,1.21C49.24,27.1,45.82,30.54,42.39,34l-8.61,8.56L30.57,45.6c-.9-.92-1.83-1.94-2.83-2.87Z"/><path class="cls-4" d="M30.69,58.35a5.53,5.53,0,0,1-3.82-1.53c-1.08-1-2.13-2.09-3.16-3.12l-1.23-1.24-2.34-2.34q-2.41-2.44-4.87-4.86a5.61,5.61,0,0,1-1-7.29,5.76,5.76,0,0,1,3.85-2.65,5.5,5.5,0,0,1,4.31,1.06,21.19,21.19,0,0,1,2.34,2.19l.07.07,3.47,3.51c.7.65,1.37,1.36,2,2l.23.24,2.61-2.5,2.52-2.5,6.08-6c1.31-1.31,2.62-2.61,3.92-3.92,2.12-2.12,4.25-4.25,6.38-6.36a5.33,5.33,0,0,1,5.55-1.42,5.54,5.54,0,0,1,4,4.32,5.82,5.82,0,0,1-1.9,5.6c-2.1,2-4.2,4.17-6.24,6.21l-2.43,2.44-.07.08-.07.08-.39-.31.35.35L35.66,55.71l-1,1A5.65,5.65,0,0,1,30.69,58.35ZM19.1,36.89a3.88,3.88,0,0,0-.67.06,4.11,4.11,0,0,0-2.74,1.91,4,4,0,0,0,.74,5.22c1.64,1.61,3.26,3.24,4.89,4.87l2.33,2.34,1.24,1.24c1,1,2.06,2.09,3.12,3.09a3.94,3.94,0,0,0,5.49-.09l1-1L49.76,39.29l.18-.21,2.44-2.44c2-2,4.15-4.16,6.25-6.22a4.15,4.15,0,0,0,1.44-4.07,3.89,3.89,0,0,0-2.89-3.08,3.71,3.71,0,0,0-3.91,1c-2.14,2.11-4.26,4.24-6.38,6.36q-1.95,2-3.92,3.92l-6.09,6.06-2.52,2.5-3.81,3.65L30,46.18l-.81-.85c-.64-.66-1.3-1.35-2-2L23.6,39.72a19.25,19.25,0,0,0-2.15-2A3.89,3.89,0,0,0,19.1,36.89Z"/></svg>