<svg id="Layer_1" data-name="Layer 1" xmlns="http://www.w3.org/2000/svg" viewBox="0 0 1221.96 991.43"><defs><style>.cls-1{fill:#f2ebd1;}.cls-2{fill:#ccb631;}.cls-3{fill:#a880aa;}.cls-4{fill:#92bbc4;}.cls-5{fill:#956243;}.cls-6{fill:#653c2a;}.cls-7{fill:#326673;stroke:#326673;}.cls-17,.cls-18,.cls-29,.cls-36,.cls-7{stroke-miterlimit:10;}.cls-8{fill:#bb997a;}.cls-9{fill:#4d2f15;}.cls-10{fill:#1b120c;}.cls-11{fill:#a56530;}.cls-12{fill:#656766;}.cls-13{fill:#383838;}.cls-14{fill:#565353;}.cls-15{fill:#8c542a;}.cls-16{fill:#3a3a3a;}.cls-17{fill:#1d1e1e;stroke:#1d1e1e;}.cls-18,.cls-19{fill:#151210;}.cls-18{stroke:#161311;stroke-width:0.49px;}.cls-20{fill:#161311;}.cls-21{fill:#231f20;}.cls-22{fill:#010101;}.cls-23{fill:#f1eef7;}.cls-24{fill:#24180f;}.cls-25,.cls-38{fill:#fff;}.cls-26{fill:#653c29;}.cls-27{fill:#3ba448;}.cls-28{fill:#993a2f;}.cls-29{fill:#4b2c4c;stroke:#4b2c4c;}.cls-30{fill:#5e5f5f;}.cls-31{fill:#853324;}.cls-32{fill:#ec9a6f;}.cls-33{fill:#a99231;}.cls-34{fill:#13110f;}.cls-35{fill:#878787;}.cls-36{fill:none;stroke:#010101;stroke-width:1.15px;}.cls-37{fill:#273339;}.cls-38{opacity:0.14;}.cls-39{fill:#622515;}.cls-40{fill:#2f1b30;}.cls-41{fill:#653c2b;}</style></defs><polyline class="cls-1" points="1222.07 987.63 1222.07 -3.81 0.11 -3.81 0.11 987.63"/><path class="cls-2" d="M439.42,422.73c-6.28-21.87-9.2-44.69-9.85-67.4a407.57,407.57,0,0,1,.84-44.21c1.16-14.47,3.21-29.22,7.82-43.07l-19.93-9-1-11.16-53.19-10.34-31.5,12.77s-58.19,11.68-67,18.31c-10.74,8.09,6.15,158.24,6.15,158.24s-28,88.28-33.87,106.55-1.3,44.83-1.3,44.83l45.52-37.54c12.85-13.85,33.45-18,52.11-16.35l135.57,9.94-1.73-51.14A203.17,203.17,0,0,1,439.42,422.73Z"/><path class="cls-3" d="M525.58,438.27s-8.84-31.3-14.47-61.62c-5.74-18.7-9.41-40-16-58.37-2.91-8-6.25-16.89-11.15-24.42a92.51,92.51,0,0,0-14.55-11.79l-28.28-12.73C436,285.05,434,301.68,433,318.11a407.66,407.66,0,0,0-.16,42.53c1.12,23.42,4.63,46.8,12,69.12,5.54,16.84,9.32,36.86,19.09,51.61l3.19-2.42c8.21,10.35,8.17,24.75,21.74,31.5l94.3,38.22s24.44-41.5,26.27-42.22S525.58,438.27,525.58,438.27Z"/><path class="cls-4" d="M709.09,444.43c5.39-14.34,6.72-29.59,8.69-44.66.1-.77,4.61-7.54,5-8.06l-3.85-41.57c-1.27-18.12,4.35-19.85-7.07-20.64L686,326.39c-8.2-2.34-8.72,13.65-8.63,28.47.26,45.94-14.64,105.57,13.51,118.76,1.62.76,12.88,2.42,18.06,2C718.8,466.59,704.49,456.68,709.09,444.43Z"/><path class="cls-4" d="M768.59,311.11c-9,2.84-18.18,9.72-26.54,22.16l-36.93,61.11a5.67,5.67,0,0,1,.24.55c5.21,15.75-10.45,31.09-9.29,47.79.77,11.22,14.27,21.59,11.92,32.86,29.88,2.69,40.58-32.24,48.54-45.57l.75-.49c3.34-12.89,6.16-25.92,8.55-39,5.08-27.83,13.85-51.05,17-79.16Z"/><path class="cls-5" d="M685.49,329.2c-.11.68,4.58,2.6,5.15,2.89a25.69,25.69,0,0,0,9.35,2.52,39.24,39.24,0,0,0,9.5-.35c2-.33,3.82-.38,4.38-2.53a56,56,0,0,0,.86-7.33s5.61-9.94,6.39-13.77-.32-19.32-.62-20,7.24-18.63,4.35-20.87-6.44-2.31-9.26,1.72-4.36,16.45-7,15.92a16.44,16.44,0,0,1-5.58-2.75s3.36-4.52,2.59-7.95-5.31-3.94-5.31-3.94l-1.8,1.58-.05-4.07s5.94-9.91,2.64-13.36a19.54,19.54,0,0,0,1.4-7.78,4.14,4.14,0,0,0-4.55-3.66,4.64,4.64,0,0,0-1.15.3l-12.51,23.5-2.81,35s4.47,11,5.45,13.92C687.18,319.12,686.52,323.53,685.49,329.2Z"/><path class="cls-6" d="M716,291.14c1.59,1.06,2.78,2.06,3.06,1.86s-.62-1.7-2.37-2.87-3.46-1.42-3.54-1.11S714.37,290.08,716,291.14Z"/><path class="cls-6" d="M689,266.61c2-2.82,4.75-6.73,8-11.21l.3-.41.46.19a24.44,24.44,0,0,1,2.91,1.15,4.65,4.65,0,0,1,2.12,2.86,8.5,8.5,0,0,1-.66,5.41,25.06,25.06,0,0,1-2.31,4.3c-1.76,2.53-3.49,4.64-4.95,6.42-3,3.56-4.91,5.64-5,5.5a46.87,46.87,0,0,1,4.27-6.09c1.33-1.82,3-4,4.68-6.52A25.72,25.72,0,0,0,701,264.1a7.35,7.35,0,0,0,.57-4.55,3.22,3.22,0,0,0-1.48-2.05,28.39,28.39,0,0,0-2.66-1.05l.76-.23c-3.33,4.42-6.26,8.23-8.4,10.92a25.47,25.47,0,0,1-3.61,4.14A25.62,25.62,0,0,1,689,266.61Z"/><path class="cls-6" d="M693.14,304.77a42.08,42.08,0,0,0,1.8-10.51v-.13l.09-.08a25.76,25.76,0,0,1,2.41-3.52c1-1.19,2-2.21,2.93-3.45a43.22,43.22,0,0,0,2.69-3.88,10.32,10.32,0,0,0,1.7-4.4,4.35,4.35,0,0,0-1.24-3.62,7.12,7.12,0,0,0-3.42-1.82l.63-.22c-4.6,5.41-8.63,10.06-11.53,13.32a12.23,12.23,0,0,0-2.76,4.19,9.73,9.73,0,0,1-.74,1.69c-.13,0-.08-.63.26-1.79a11.37,11.37,0,0,1,2.52-4.54c2.73-3.43,6.63-8.2,11.19-13.69l.28-.26.37.08a8.29,8.29,0,0,1,4.14,2.16,5.67,5.67,0,0,1,1.64,4.7c-1.56,7.47-7.68,11.18-10.08,15.68l.07-.26a37.08,37.08,0,0,1-2.35,10.71,14.67,14.67,0,0,1-1.38,2.67,8.06,8.06,0,0,1-.7.82C691.53,308.54,692.41,307.32,693.14,304.77Z"/><path class="cls-6" d="M714.73,324.4s-5.9,2.13-13-2.7C701.78,321.7,708.69,330.12,714.73,324.4Z"/><path class="cls-7" d="M720.62,368.55s6.55,38,5,54.51c0,0,2.53-19.22-.95-38.52s-3.09-17.42-3.09-17.42Z"/><polyline class="cls-8" points="-0.11 992.15 1221.85 992.15 1221.85 918.8 -0.11 918.8"/><path class="cls-5" d="M561.81,886.39l50,25.93c3.69,3.11-46.11,30.87-95.56-13l5.54-13.49Z"/><path class="cls-9" d="M648,934.05s2.62-6.66-2.63-8.7-33.26-15.65-36.09-15.12c0,2-2.54,4.68-8.56,6.49s-12.73,4.12-28.18,1.16c-11.58-2.22-35.4-6.26-45.87-12.35-3.5-2-8.57-8.9-8.79-9.91-12.21,13.93-8.54,28.72-3,32.37s38.46,6.07,38.46,6.07L582.51,941,610,942.29l11.57-.25,13.85-2Z"/><path class="cls-10" d="M513.5,926.57c3.58,1.24,15.07,3.17,24.9,3.37,26.4.54,35.26,3.91,44.21,6.62a109.3,109.3,0,0,0,15.66,3.88c30.81,5.23,48.83-6,49.46-6.41a3.08,3.08,0,0,1,.82,1.5,24.18,24.18,0,0,1-6.37,4.2c-8.7,3.9-21.13,8.38-45,4.82-6.77-1-10.84-1.49-15.3-2.85-6.71-2-13.6-4.14-28.44-5.21l.06,4.48s-28,1-40.64-4.41C512,929.67,513.5,926.57,513.5,926.57Z"/><path class="cls-10" d="M512.58,932.54c16.81,4.34,35.07,4.46,40.88,4.49l0,3.94s-28,1-40.64-4.41A33.11,33.11,0,0,1,512.58,932.54Z"/><g id="freepik--character-1--inject-1332"><path class="cls-5" d="M465.93,838.38s4.17,58.62,3.92,62L498,908.34l12-7.16,12.15-62.86Z"/></g><g id="freepik--character-1--inject-1332-2" data-name="freepik--character-1--inject-1332"><path class="cls-5" d="M517.59,829.14s4.17,58.62,3.92,62.05l28.15,7.91,12-7.16,12.15-62.86Z"/></g><path class="cls-5" d="M510.09,898.44l50,25.93c3.68,3.1-46.11,30.86-95.57-13l5.55-13.5Z"/><path class="cls-9" d="M596.31,946.1s2.61-6.67-2.63-8.71-33.27-15.64-36.1-15.11c0,2-2.53,4.67-8.56,6.49s-12.72,4.11-28.18,1.15c-11.58-2.22-35.4-6.25-45.87-12.35-3.49-2-8.56-8.89-8.78-9.9-12.21,13.93-8.54,28.72-3,32.36s38.45,6.07,38.45,6.07l29.13,6.95,27.47,1.29,11.56-.26L583.69,952Z"/><path class="cls-10" d="M461.79,938.62c3.58,1.23,15.07,3.17,24.9,3.36,26.4.54,35.26,3.91,44.2,6.63a111.17,111.17,0,0,0,15.67,3.88c30.81,5.22,48.82-6,49.45-6.41a3,3,0,0,1,.83,1.5,24.35,24.35,0,0,1-6.38,4.19c-8.69,3.91-21.12,8.39-45,4.83-6.76-1-10.83-1.5-15.3-2.86-6.7-2-13.6-4.13-28.43-5.21l.05,4.48s-28,1-40.64-4.41C460.24,941.72,461.79,938.62,461.79,938.62Z"/><path class="cls-10" d="M460.87,944.59c16.8,4.34,35.07,4.46,40.88,4.48l0,3.94s-28,1-40.64-4.41A30.76,30.76,0,0,1,460.87,944.59Z"/><path class="cls-5" d="M846.32,213.76s-2.08,62.07,5.23,73.89c1.78,2.87,52.26,11.38,52.26,11.38L804.1,344.24l-47.13-24s30.72-15,31.06-19-4.55-26.55-4.55-26.55"/><path class="cls-4" d="M747,419.79l3,24c.47.69,6.76,61.75,6.91,62.77,2.53,17.84.07,27.23,2.21,45.11,1.33,11.12,15.75,23.76,15.25,35,5,3.08,7,5.3,15.78,8.1,12.43,4,23.44,3.29,36.76,3,0,0,83.15-12.27,112.88-27.64,2.77-1.43,5.46,40.55,6.54,37.92,13.09-31.93,1.47-62.32,1.13-65.37q-.87-7.73-1.79-15.43c-4.69-38.3-28.47-85.9-35-109.63l21.1-11.57,14.29-7.93c-10.93-74.14-9-70.66-21.59-86.23-6.73-8.36-20.17-14.4-28.48-16.81a252.41,252.41,0,0,0-39.56-8.1c-16.25,34.33-62.1,48.1-75.78,16.51l-12.38,5.29-16.77,6.83c-15.61,8.43-12.6,8.83-29.94,51.5"/><path class="cls-11" d="M866.4,669.55q51.74,0,103.47,0c14.83,0,17.58,7,17.56,21.41,0,13.23-3,21-18,21-3.38,0-6.83.38-10.13-.07-9.93-1.34-11.92,2.34-10.62,10,12.7,74.91,25.09,144.69,37.76,219.59.87,5.1.08,7.12-6.78,7.21-17.12.21-17.47.55-19.85-13.48q-12.14-71.67-23.64-143.42c-1-6.51-3.68-8.47-11.4-8.41q-58.83.5-117.67,0c-7.52-.06-9.71,2.23-10.65,8.11-8,50.39-16.46,100.73-24.57,151.11-.76,4.69-3,6.09-8.5,6.17-17.65.27-18.13.4-15.86-13.73,8.22-51.22,16.76-102.41,25.24-153.6,3.61-21.77,7.21-38.38,11.14-60.11,1.21-6.7-.21-10.5-9.42-9.22-2,.27-4.07-.09-6.08.06-26.46,1.86-24.3-17-22.77-34.51.6-6.78,7.62-8.38,15.25-8.34,35.17.17,70.33,4.37,105.5,4.37Zm-.83,96.7c19.58,0,39.17-.15,58.76.09,6,.07,8.67-1,7.65-6.68-3.16-17.49-6-22.84-8.75-40.37-.82-5.32-3-7.56-10.12-7.47-31.06.39-62.14.44-93.2,0-7.7-.12-9.83,2.34-10.7,8-2.61,17-5.38,21.76-8.47,38.68-1.07,5.85.5,8.12,8.1,7.95C827.73,766,846.65,766.25,865.57,766.25Z"/><polygon class="cls-5" points="704.35 897.42 669.11 890.97 672.58 871.01 707.83 877.47 704.35 897.42"/><path class="cls-12" d="M727.15,906.08s6.46,6.38,5.32,10.26-17.54,7.84-21.8,9.11S651.41,943.83,645.84,945s-36,5.11-41.47-.86c0,0-9.36-10,0-15.8S621.48,922.58,630,916a102.1,102.1,0,0,0,24.58-28.12s7.62-10.07,12.24-9.59S678,886.53,681.94,888s21.47.92,24.27-8.57,4.64-6.42,8.21-5.77,11.92,14.8,11.9,22.1S727.15,906.08,727.15,906.08Z"/><path class="cls-13" d="M727.15,906.08s-24.75,7.28-34.94,13.21-37.9,17.67-53,20.55-37.33.72-37.33.72-1,2.67,6.38,5.57,28.28,1.82,45.66-3.39,42.92-12.47,48.32-13.79,27.82-7.22,30-12.16C734.11,912.66,727.15,906.08,727.15,906.08Z"/><path class="cls-14" d="M693.25,919a42.29,42.29,0,0,1,2.08-14.39,23.7,23.7,0,0,1,5.8-9.9,31.36,31.36,0,0,1,6.42-4.31,72,72,0,0,1,7-3.5,48.37,48.37,0,0,1,5.31-2c.47-.14.93-.27,1.4-.39s0,0,.33-.08,1.15-.21,1.22-.54-.68-.18-.82-.16a37.78,37.78,0,0,0-6.15,1.92,71.31,71.31,0,0,0-14.44,7.46c-6.52,4.46-9.05,12.73-9.93,20.21a40.27,40.27,0,0,0-.34,6.21c0,.29,2.1,0,2.08-.56Z"/><path class="cls-14" d="M682.65,889c.08-.07.16-.12,0,0l-.61.47c-.71.52-1.43,1-2.17,1.49a48.82,48.82,0,0,1-8.23,4.15c-4.72,1.87-10.16,3-13.67,6.93a41.31,41.31,0,0,0-3.9,5.79,30.18,30.18,0,0,1-4.84,6.07,19.69,19.69,0,0,1-7.32,4.47c-3.43,1.12-6.91,1-10.47.94l-7.36-.12c-.43,0-1.18.13-1.36.6s.14.73.59.74l5.8.09c3.5.05,7,.31,10.51-.36a22.15,22.15,0,0,0,8.19-3.37,26.21,26.21,0,0,0,6-5.66c1.61-2.07,2.84-4.34,4.27-6.52a14.26,14.26,0,0,1,4.38-4.5,42.43,42.43,0,0,1,8.16-3.35,44.47,44.47,0,0,0,13.8-7.4c.38-.32.15-.72-.23-.87a1.63,1.63,0,0,0-1.47.4Z"/><path class="cls-14" d="M606.71,926.71a3.74,3.74,0,0,0,2,2.55c2.58,1.38,5.69.41,8.36-.08a52.64,52.64,0,0,1,10.54-1.06c3.48.07,6.43.75,9.06,3.1a41.05,41.05,0,0,1,6.31,6.86c.44.62,2.44-.1,1.92-.84a40.34,40.34,0,0,0-4.81-5.47,18.75,18.75,0,0,0-4.09-3.34,13.16,13.16,0,0,0-4.19-1.29,36.08,36.08,0,0,0-9.9.09c-1.7.2-3.38.48-5.06.79a18.47,18.47,0,0,1-4.78.64c-1.43-.12-3-.93-3.27-2.51-.11-.76-2.19-.28-2.07.56Z"/><path class="cls-1" d="M663.79,890.16l0-.07c.34-.55-.13-1.38-1-1.86l-6.53-3.39c-.91-.47-1.92-.41-2.26.14l0,.07c-.33.55.14,1.39,1,1.86l6.54,3.4C662.44,890.78,663.46,890.71,663.79,890.16Z"/><path class="cls-1" d="M657.87,894.8l.12-.2c.24-.39-.23-1.06-1-1.48l-4.86-2.55c-.82-.43-1.69-.47-1.93-.08l-.12.21c-.25.39.23,1,1,1.48l4.86,2.55C656.76,895.16,657.62,895.19,657.87,894.8Z"/><path class="cls-1" d="M653.06,899.08l.21-.35c.22-.35-.2-1-.94-1.34l-3.47-1.82c-.73-.38-1.51-.41-1.73-.06l-.21.34c-.22.35.2.95.94,1.34l3.47,1.82C652.06,899.39,652.84,899.42,653.06,899.08Z"/><path class="cls-1" d="M649.35,903.36l.25-.41c.25-.41-.15-1.06-.88-1.44l-3.48-1.82c-.73-.38-1.54-.36-1.79,0l-.25.41c-.25.41.14,1.06.88,1.45l3.47,1.81C648.29,903.79,649.1,903.77,649.35,903.36Z"/><path class="cls-15" d="M772.86,781.54l-3.93,23.71c8.21,1.61,16.38,3.51,24.53,5.49q1.54-9.57,3.09-19.14c.94-5.88,3.12-8.18,10.65-8.12q58.83.49,117.67,0c7.72-.07,10.36,1.9,11.39,8.4,1,6.19,2,12.38,3,18.57a225.18,225.18,0,0,0,23-9.79c-4.48-25.89-9-51.95-13.51-78.67a15.08,15.08,0,0,1,0-6.22q-8,.53-16.1.83c-3.3.13-6.59.23-9.89.3a15.26,15.26,0,0,1,.57,2.45c2.72,17.53,5.59,22.89,8.75,40.37,1,5.66-1.66,6.76-7.66,6.68-19.58-.24-39.17-.09-58.76-.09-18.91,0-37.83-.28-56.73.14-7.6.17-9.16-2.09-8.09-8,3.08-16.91,5.86-21.7,8.47-38.68a10.8,10.8,0,0,1,1.93-5.26c-9.32-.28-18.63-.51-28-.62,1.27,1.63,1.31,4.21.72,7.49C780.06,743.16,776.46,759.78,772.86,781.54Z"/><path class="cls-15" d="M745.34,681.26s118.38,15.43,166.81,9.17,75-6.37,73.07-13.86S949,653,914.46,651.84s-129.14,7.54-129.14,7.54-31.77,5.35-35.1,10S745.34,681.26,745.34,681.26Z"/><rect class="cls-5" x="701.92" y="877.78" width="41" height="31.22" transform="translate(-176.6 177.99) rotate(-12.53)"/><path class="cls-16" d="M629.92,618.39c10,49.26,15.22,193.81,29.93,253.73,0,0,73.08,15.91,79.1,2.16,0,0-3.31-150.75,14.43-225,15.62-65.44,66.84-83.8,50.4-88.54-25.88-7.47-137.92-19.26-152.86-9.18C633,563.61,622,579.6,629.92,618.39Z"/><path class="cls-16" d="M672.48,647.36c-.43-3.83-1.06-7.64-1.84-11.4A159.32,159.32,0,0,0,663.23,611a170.93,170.93,0,0,0-11.48-24.09c-3-5.23,50.47-19.11,46.81-23.92,78.48-13.21,187.18,6.74,187.18,6.74s67.59,9.27,49.37,72.35c-19.33,67-202.63,25.51-261.8,5.55Z"/><path class="cls-17" d="M680.76,854C673.06,770.9,658.7,593.5,658.7,593.5l-3.14-.19,23.06,260.54Z"/><path class="cls-17" d="M658.7,593.5s-5.34-29.44,30-35.67c0,0-36.2.14-33.17,35.48Z"/><path class="cls-17" d="M684.87,558.05s18.3-.1,49.84,2.81c31.2,2.88,31.17,2.9,44.77,3.32,0,0-86.46-8.35-94.61-6.13Z"/><path class="cls-17" d="M750.48,668.8s-2.33-19.06-11.28-30.36c0,0,13.66,14.09,15.08,31Z"/><path class="cls-18" d="M734.3,178.87h0c-2.65-7.13-3.82-11.59-2.33-16.88,1.06-3.74,6.93-8.11,6.93-8.11s.3-10.91,5.33-9.9c0,0,3.36-14.85,17.95-12.55,0,0,4.22-1.52,6.9.92,0,0,5.47-13,18.56-5.65,0,0,4.43-3.5,6.39.08,0,0,7.45-8.58,16.16-3.1,0,0,20.21-6.08,26.53,6.34,0,0,9.5-6.05,15.59,2.93,0,0,5.22-.1,5.94,7.07,0,0,8,1.52,9.13,6.15,0,0,4.79,3.09,5.22,10.62.13,2.16-.64,1.66-1.06,4.63,5.1,8.15-1.3,9.81-1.3,9.81,7.4,7.29,0,18,0,18s2.77,5.61,2.48,10C871.62,215.61,861.81,221,861.81,221s-4.71-23.45-5-32.7-9.41-24.52-12.23-27.75-20,4.78-47.3,7.53-33.24-1.58-36.41-.38c-6.56,2.48-9.86,26.94-9,34.15s.05,21.06.05,21.06-15.11-4.74-12.42-17.25c0,0-5.64-8.28-4.31-13.74a5.46,5.46,0,0,1,1.28-3.46S731,183.5,734.3,178.87Z"/><path class="cls-5" d="M834.46,261.42c-9.5,13.64-24.94,23.89-39.92,28.88-14.71,4.9-20.38.5-22.75-1.47-13-10.83-22-22.33-28-36.13a35.72,35.72,0,0,1-2.53-12.24c-.38-6.49-.65-19-1.49-25.13-2.12-15.64-2.1-30.06,4.94-44.27,14.68-29.6,57.59-34.21,74.4-28.56,19.65,6.59,30.19,23.54,33.64,42.49a52.33,52.33,0,0,1,.29,17.66,55.18,55.18,0,0,0-5.73,10.28"/><path class="cls-19" d="M745,173.7s-1.11,1.28-7,21.35c1.27-6.31,1.24-15.56,5.36-24.65,14.39-31.76,71.3-34.54,88.18-28.29,19.74,7.31,28.93,25.6,32.57,46.06,1.47,8.31,2.47,13.6.82,20.84-.11.1-1.39,1.82-1.39,1.82s-16.44,5.26-20.77,16.14l-1.31-8.87s-5.52-10.61-11.13-29.37c0,0-1.32-10.51-1.55-13.68-.72-9.78-9.2-6.7-15.06-4.43A80.27,80.27,0,0,1,798.18,174c-9.92,1-22.62,1-27.26,1.59C764.41,176.41,745,173.7,745,173.7Z"/><path class="cls-20" d="M744.32,173.83A10.57,10.57,0,0,0,743,177c-2.13,6-3.89,12.1-5.67,18.2l1.37-.32c1-4.93,1.24-10,2.26-14.9a42.62,42.62,0,0,1,5.34-13.9,44.9,44.9,0,0,1,15-14.32c12.55-7.65,27.65-10.94,42.18-11.84a97.14,97.14,0,0,1,18.52.46,41.72,41.72,0,0,1,16.89,5.86,48,48,0,0,1,17.39,19.62c4.31,8.57,6.43,17.89,8,27.31a41.76,41.76,0,0,1,.17,15.2c-.21,1-.77,1.36-1.27,2.22-.27.47-.34.25.16.14l-.17,0a10.87,10.87,0,0,0-1.9.71c-6,2.37-12.11,5.79-16.27,10.84a18.67,18.67,0,0,0-2.88,4.79l1.37-.32-.67-4.55a27.11,27.11,0,0,0-.64-4.32,14.92,14.92,0,0,0-.86-1.75c-.78-1.66-1.52-3.34-2.24-5-2.61-6.17-4.88-12.49-6.89-18.89a32,32,0,0,1-1.44-6.12q-.46-3.75-.88-7.51c-.44-4-.25-9.64-5.32-10.46-4.52-.74-8.85,1.79-13,3-12.69,3.7-25.82,2.91-38.83,4-8.8.75-17.68-.45-26.4-1.62l-.72-.1c-.31,0-1.46.46-1.14.5,3.07.43,6.15.79,9.23,1.12a107.52,107.52,0,0,0,14.78.9c2.06-.06,4.1-.35,6.16-.47,3.23-.17,6.46-.27,9.69-.41a136.61,136.61,0,0,0,19.69-1.8,72.77,72.77,0,0,0,8.66-2.08c2.27-.72,4.44-1.73,6.77-2.28,2.09-.49,4.55-.69,6.36.7,2,1.53,2.22,4.17,2.43,6.48.38,4.18.69,8.51,1.46,12.65a36,36,0,0,0,1.29,4.3c.61,1.9,1.23,3.79,1.89,5.68,1.09,3.17,2.26,6.33,3.51,9.45s2.68,6.5,4.24,9.65a5.62,5.62,0,0,1,.42,1.83l.9,6.1.21,1.38c0,.26,1.28-.1,1.37-.31,2.88-7.05,10.06-11.56,16.76-14.49.93-.41,1.87-.8,2.83-1.14a3.63,3.63,0,0,0,1.2-.54c1.41-1.24,1.67-3,1.92-4.73a34.88,34.88,0,0,0,.18-7.71,108.73,108.73,0,0,0-2.71-15.92,81.18,81.18,0,0,0-4.36-13.42c-3.53-8.17-8.77-15.67-16-21a41.55,41.55,0,0,0-18.11-7.73,91.45,91.45,0,0,0-18.19-.9c-14.5.57-29.4,3.48-42.42,10.08A51.81,51.81,0,0,0,748,162.17a37.44,37.44,0,0,0-5.63,9.25c-2.27,5.34-3.24,11.05-4,16.77-.3,2.35-.56,4.71-1,7,0,.11,1.28,0,1.37-.31,1.78-6.1,3.54-12.22,5.67-18.2a10.57,10.57,0,0,1,1.29-3.15S744.58,173.52,744.32,173.83Z"/><path class="cls-5" d="M842.25,245.58c14.08,9.77,15.89-6.74,15.89-6.74,6.55-10.17,5.33-20,4.23-26.68s-8.49-5.67-8.49-5.67c-6.19,1.45-5.22,2.08-11.53,21"/><path class="cls-21" d="M848.85,223.65a35.29,35.29,0,0,1,3.1-8.59,8,8,0,0,1,2.61-3.08l.27-.13.12,0,.07,0,.23-.06.11,0a.62.62,0,0,1,.27,0l.14,0h0l.16.05a.24.24,0,0,1-.12-.07c.24.32.57.59.81.92a12.64,12.64,0,0,1,2,8.11c0,.5,1,.32,1.06-.1a13.52,13.52,0,0,0-1.81-8c-.33-.52-.79-1.31-1.42-1.52-2-.69-4,1.43-5,2.92a31.65,31.65,0,0,0-3.75,9.73c-.11.46,1,.32,1.06-.1Z"/><path class="cls-21" d="M848.63,228.07c3.7-.22-1,8.77,2.25,8.58.84,0,1.28-.93,1.56-1.61a20.43,20.43,0,0,0,1.15-4.49,16.39,16.39,0,0,0,.11-5.5c-.35-2.21-1.13-4.84-3.38-5.77-.43-.18-1.22.44-.61.69,1.88.77,2.55,3.15,2.88,5a13.9,13.9,0,0,1,.16,4.22,28.87,28.87,0,0,1-1,4.86,8.29,8.29,0,0,1-.6,1.49c-.09.16-.22.29-.31.44.06-.11.68,3.72.25,0,0-.06-.16-.15-.18-.22-.41-1.59.1-3.28.2-4.9.1-1.77-.24-3.6-2.4-3.47-.58,0-.82.79-.1.74Z"/><path class="cls-19" d="M798,214.2a4.78,4.78,0,0,1,5.22.52,4.65,4.65,0,0,1,1.55,2.05,4.76,4.76,0,0,1-.78,4.41,4.44,4.44,0,0,1-5,1.28,4.9,4.9,0,0,1-2.85-5.48A4.4,4.4,0,0,1,798,214.2"/><path class="cls-19" d="M788.92,222.71s5.63-10,12.43-10.49c9.55-.75,12.24,4.63,14.55,7.36,0,0-6.74-6.3-14.11-5.54C795.09,214.74,788.92,222.71,788.92,222.71Z"/><path class="cls-19" d="M751.06,217.87a4.25,4.25,0,0,0-4.73,1.3,4.65,4.65,0,0,0-1.12,2.25,5,5,0,0,0,1.4,4.24,3.92,3.92,0,0,0,4.79.52c2-1.2,2.46-3.93,1.79-5.84a4.38,4.38,0,0,0-2.13-2.47"/><path class="cls-19" d="M763.7,224.72s-6.27-9-12.14-8.58c-8.27.64-9.77,6.35-11.33,9.38,0,0,4.82-7.2,11.22-7.51C757.26,217.73,763.7,224.72,763.7,224.72Z"/><path class="cls-22" d="M772.66,248a6.85,6.85,0,0,0,6.22-1c.37-.28,1.71-.16,1.19.23a9.66,9.66,0,0,1-8.48,1.17c-.24-.1-.21-.28.06-.4a1.53,1.53,0,0,1,1,0"/><path class="cls-22" d="M780.79,246.68a11,11,0,0,1,3.76-1.32.87.87,0,0,1,.61.14c.12.09.16.22,0,.32a4.28,4.28,0,0,1-2.07.68.86.86,0,0,1-.68-.2c-.13-.17.07-.31.25-.32a3.35,3.35,0,0,0,1.67-.55l.63.45a9.84,9.84,0,0,0-3.36,1.19.83.83,0,0,1-.72,0c-.15-.07-.32-.25-.11-.37"/><path class="cls-22" d="M786.09,246.36a5.35,5.35,0,0,0,4-2.26c1-1.88-.37-4.76-2.42-5.72-.22-.1-.13-.27.09-.34a1.27,1.27,0,0,1,.84.1,5.74,5.74,0,0,1,3,4.9c-.1,1.57-1.48,2.8-3.31,3.41a8.09,8.09,0,0,1-1.7.4c-.24,0-.67,0-.8-.18s.08-.28.3-.31"/><path class="cls-22" d="M769.74,247.44a.2.2,0,0,0-.23-.27,1.8,1.8,0,0,1-1.24-.29l-.37.54a5.48,5.48,0,0,1,2.52.66.44.44,0,0,0,.49-.13c.1-.09.19-.3,0-.39"/><path class="cls-22" d="M770.94,247.56a6.11,6.11,0,0,0-2.82-.71.47.47,0,0,0-.4.22.22.22,0,0,0,0,.32"/><path class="cls-22" d="M766.52,248a3.2,3.2,0,0,1-2.87-1.65,4.59,4.59,0,0,1,.75-5.12.2.2,0,0,0-.11-.33.6.6,0,0,0-.52.22,5.16,5.16,0,0,0-1.26,4.41,3.62,3.62,0,0,0,2.62,2.88,3.68,3.68,0,0,0,1.14.14c.16,0,.43-.11.49-.3s-.09-.26-.24-.25"/><path class="cls-19" d="M790.12,194.06c-.34,1.49-.67,3-1,4.47-.25,1.14-.5,2.27-.74,3.41,3.55-.21,6.55-.19,8.8-.12a38.36,38.36,0,0,1,13.22,2.34,14.21,14.21,0,0,1,5.16,3.33c.46.48,1.58,2.38,2.49,2.16.37-.09.24-2,.22-2.25-.29-3.94-2.87-6.13-6.25-7.81-6.89-3.43-14.27-4.88-21.9-5.53"/><path class="cls-19" d="M738.28,212.17a11.81,11.81,0,0,0-.54-2.88,18.72,18.72,0,0,1,1.79-1.61c6-4.7,12.77-7.56,20-9.69.63,1.38,1.25,2.78,1.88,4.17.47,1.07,1,2.13,1.42,3.19-3.48.49-6.37,1.1-8.53,1.61A37.37,37.37,0,0,0,742,211.83a16.34,16.34,0,0,0-2.82,2.36Z"/><path class="cls-6" d="M787.07,292.17s7.71-1.25,12.9-2.73c7.94-2.26,16.76-7.12,23.54-11.54,3.79-2.47,7.4-5.17,10.9-8-.59.47-1,2.42-1.3,3.08a38.57,38.57,0,0,1-4.82,7.41c-6.2,7.51-14.73,12-24.41,14.79-4.54,1.33-11.18,3.56-15.93,2.57C788,297.79,787.08,292.25,787.07,292.17Z"/><path class="cls-12" d="M764.57,920.5s6.63,6.21,5.58,10.12-17.33,8.29-21.55,9.67-58.77,19.9-64.31,21.18-35.8,6-41.47.21c0,0-9.62-9.79-.41-15.8s17-6.16,25.33-13a102.38,102.38,0,0,0,23.85-28.74s7.36-10.26,12-9.91,11.36,8,15.34,9.3,21.49.36,24-9.2,4.47-6.53,8.06-6,12.29,14.49,12.47,21.79S764.57,920.5,764.57,920.5Z"/><path class="cls-13" d="M764.57,920.5S740,928.42,730,934.61s-37.43,18.63-52.46,21.9-37.3,1.68-37.3,1.68-.89,2.7,6.52,5.42,28.32,1.08,45.56-4.57,42.58-13.58,48-15,27.62-7.93,29.7-12.92C771.7,926.9,764.57,920.5,764.57,920.5Z"/><path class="cls-14" d="M731,934.33a42.27,42.27,0,0,1,1.72-14.41,23.35,23.35,0,0,1,5.75-10.23,33.59,33.59,0,0,1,6.67-4.58,72.94,72.94,0,0,1,6.68-3.48,36.65,36.65,0,0,1,6.95-2.55c.22-.05,1.06-.32.94-.67s-.92-.17-1.15-.12a38.36,38.36,0,0,0-6.08,2.11,66.42,66.42,0,0,0-14.22,7.92c-6.27,4.75-8.54,13.07-9.18,20.57a41.4,41.4,0,0,0-.15,6c0,.48,2.11.1,2.07-.56Z"/><path class="cls-14" d="M719.56,904.89a39.81,39.81,0,0,1-10.82,6.41c-4.66,2-10.13,3.21-13.54,7.27a39.49,39.49,0,0,0-3.63,5.72,30.84,30.84,0,0,1-4.69,6.26,19.92,19.92,0,0,1-7.25,4.77c-3.34,1.21-6.83,1.12-10.33,1.15l-7.37.08c-.6,0-2.25.9-.88.89l5.79-.06c3.51,0,7,.11,10.5-.65a22.85,22.85,0,0,0,8.17-3.55,25.36,25.36,0,0,0,5.81-5.75c1.55-2.08,2.72-4.37,4.08-6.57a14.67,14.67,0,0,1,4.31-4.76c2.51-1.67,5.45-2.57,8.23-3.64a44.88,44.88,0,0,0,13.51-7.7c.37-.32-.32-.38-.5-.38a2.26,2.26,0,0,0-1.39.51Z"/><path class="cls-14" d="M644.69,944.2a3.71,3.71,0,0,0,2.06,2.49c2.64,1.31,5.76.25,8.45-.32a51.55,51.55,0,0,1,10.56-1.32,18.74,18.74,0,0,1,4.78.53,10.62,10.62,0,0,1,4.38,2.5,41.54,41.54,0,0,1,6.3,6.55c.43.57,2.43-.14,1.92-.82a39.26,39.26,0,0,0-4.78-5.2,19.37,19.37,0,0,0-4.33-3.38,13.69,13.69,0,0,0-4.06-1.16,35.56,35.56,0,0,0-9.88.29c-1.63.24-3.25.54-4.86.88a21.53,21.53,0,0,1-5,.85c-1.47-.05-3.18-.84-3.44-2.45-.12-.72-2.21-.23-2.08.56Z"/><path class="cls-1" d="M700.82,906.22l0-.07c.32-.56-.17-1.38-1.08-1.83l-6.62-3.23c-.92-.44-1.93-.35-2.25.21l0,.07c-.32.56.17,1.38,1.09,1.83l6.62,3.22C699.49,906.87,700.51,906.78,700.82,906.22Z"/><path class="cls-1" d="M695,911l.12-.21c.23-.4-.25-1-1.08-1.46l-4.92-2.42c-.83-.41-1.7-.42-1.93,0l-.12.21c-.23.39.25,1,1.08,1.46l4.92,2.42C693.92,911.4,694.79,911.41,695,911Z"/><path class="cls-1" d="M690.32,915.41l.21-.35c.21-.36-.23-.95-1-1.31L686,912c-.75-.36-1.52-.37-1.73,0l-.21.36c-.21.35.23.94,1,1.31l3.52,1.73C689.33,915.75,690.11,915.76,690.32,915.41Z"/><path class="cls-1" d="M686.73,919.79l.23-.42c.24-.42-.17-1.06-.91-1.42l-3.52-1.72c-.75-.37-1.55-.32-1.8.09l-.23.42c-.24.42.17,1.06.91,1.42l3.52,1.72C685.68,920.25,686.49,920.2,686.73,919.79Z"/><path class="cls-23" d="M779.4,259c3.57-.43,14.37-2.36,14.37-2.36s-3.44,4.39-14.16,5.69S765,260.21,765,260.21Z"/><path class="cls-16" d="M661.1,603a106,106,0,0,1,21.18,3.54,54.91,54.91,0,0,1-1.06-10.42c1.44-1.12,3-2.26,4.54-3.41a139.25,139.25,0,0,1,19,12.06,171.18,171.18,0,0,1,19.75,17.38,152.21,152.21,0,0,1,16.27,19.66q2.06,3,4,6.1l-.67.05c17.87,32.34,4.24,91.58,6.13,148.78,1.66,50.22,1.82,56.5,4.71,83.2-8.37,12-73.61,3.16-73.61,3.16C672.9,805.54,661.1,603,661.1,603Z"/><path class="cls-24" d="M777.3,257.05c6.07-.79,20,1.45,23,3.62,0,0-6.27,6-20.35,7.86s-17.07-3-17.07-3S769.56,258.05,777.3,257.05Z"/><path class="cls-25" d="M794.22,258.62s-7.31.31-13.07,1.05-12.9,2.3-12.9,2.3-1.52-4.49,8.92-5.84S794.22,258.62,794.22,258.62Z"/><path class="cls-26" d="M779.68,266.5c6.46-1.86,12.87-5.34,20.62-5.83,0,0-.94,9.73-17.49,11.87s-19.93-7-19.93-7C770.5,264,773,266.34,779.68,266.5Z"/><path class="cls-26" d="M769.65,254.46c3.43-.72,5.82.4,7.33.21s3.54-1.89,7-2.07c3.29-.16,18.17,6.59,16.77,7.89s-12.89-3.57-23.35-2.22-13.41,8.1-15.09,7.19S766.42,255.14,769.65,254.46Z"/><path class="cls-6" d="M768.67,195.13s7.56,6.76.81,13.09Z"/><path class="cls-6" d="M779,194.23s-4.6,9,4,12.49Z"/><path class="cls-7" d="M739.68,358.68a15.08,15.08,0,0,0,.14,3.22c.19,2.27.47,5.2.77,8.7.72,7.37,1.8,17.52,3,28.73S746.18,420.68,747,428L750.89,458a18,18,0,0,0,.56,3.17,14.46,14.46,0,0,0-.13-3.22c-.2-2.27-3.18-26.47-3.49-30-.72-7.34-1.79-17.49-3-28.72s-2.55-21.36-3.39-28.67c-.44-3.49-.85-6.41-1.14-8.67A15.67,15.67,0,0,0,739.68,358.68Z"/><path class="cls-4" d="M892.94,569.52a85.68,85.68,0,0,1,20.67,10.94c5.57,3.84,10.87,7.88,15,13.3,7.52,9.84,10,22.14,10.19,34.3,7.2-7.4,12.87-35.94,11-53-4.64-42.28-86.39-46.09-86.39-46.09l-91.13,5.76-13-5s-6.18,5.33-8.06,10.83A29.63,29.63,0,0,0,750,552s17.33,5.56,21.77,6.85a144.53,144.53,0,0,0,18.88,3.41c3.33.31,36-.57,59.71,1.82a1.47,1.47,0,0,1,1-.37,94,94,0,0,1,24.9,3.5C881.94,567.26,887.51,567.67,892.94,569.52Z"/><path class="cls-27" d="M580.6,745.81l2-3c-.55-.42-1.14-.83-1.8-1.24A19.72,19.72,0,0,1,580.6,745.81Z"/><path class="cls-11" d="M322,660.06q54.15,0,108.31,0c15.53,0,18.41,7.35,18.39,22.42,0,13.84-3.11,22-18.82,22-3.54,0-7.16.4-10.61-.07-10.39-1.4-12.48,2.44-11.12,10.48,13.3,78.41,26.27,151.46,39.54,229.87.9,5.34.08,7.46-7.1,7.55-17.93.22-18.3.57-20.78-14.11q-12.71-75-24.76-150.15c-1.08-6.8-3.84-8.86-11.92-8.79q-61.59.51-123.18,0c-7.88-.06-10.17,2.34-11.16,8.5-8.42,52.74-17.23,105.45-25.72,158.18-.79,4.92-3.19,6.38-8.9,6.47-18.47.28-19,.41-16.6-14.38,8.6-53.62,17.55-107.2,26.43-160.79,3.77-22.79,7.54-40.18,11.65-62.93,1.27-7-.22-11-9.86-9.66-2.07.29-4.25-.09-6.36.06-27.7,2-25.44-17.82-23.83-36.12.62-7.1,8-8.77,16-8.73,36.81.18,73.62,4.58,110.44,4.58Zm-.87,101.23c20.5,0,41-.16,61.51.1,6.28.07,9.08-1.08,8-7-3.3-18.3-6.3-23.91-9.16-42.26-.86-5.57-3.16-7.92-10.59-7.82-32.52.41-65.06.47-97.57,0-8.06-.13-10.29,2.45-11.2,8.34-2.73,17.77-5.64,22.79-8.86,40.49-1.12,6.13.51,8.5,8.47,8.32C281.52,761,301.33,761.29,321.13,761.29Z"/><path class="cls-15" d="M224.08,777.3Q222,789.71,220,802.11c8.6,1.69,17.15,3.68,25.68,5.75,1.08-6.68,2.17-13.36,3.23-20,1-6.15,3.28-8.56,11.16-8.49q61.58.51,123.18,0c8.08-.06,10.84,2,11.92,8.8q1.55,9.72,3.13,19.44a234,234,0,0,0,24.11-10.25c-4.69-27.1-9.39-54.38-14.14-82.35a15.66,15.66,0,0,1,0-6.52q-8.43.57-16.86.88-5.18.2-10.35.31a15.83,15.83,0,0,1,.59,2.56c2.86,18.36,5.86,24,9.16,42.26,1.07,5.93-1.73,7.08-8,7-20.5-.25-41-.09-61.51-.09-19.8,0-39.61-.3-59.39.14-8,.18-9.59-2.19-8.47-8.32,3.22-17.71,6.13-22.72,8.86-40.49a11.42,11.42,0,0,1,2-5.51c-9.75-.3-19.5-.54-29.25-.65,1.32,1.71,1.37,4.41.75,7.84C231.62,737.12,227.85,754.51,224.08,777.3Z"/><path class="cls-15" d="M195.27,672.31s117.59,18.12,168.3,11.57,84.87-8.63,82.82-16.48-37.95-24.69-74.08-25.88-135.19,7.9-135.19,7.9-33.25,5.59-36.74,10.43S195.27,672.31,195.27,672.31Z"/><path class="cls-28" d="M473.29,300.36a110.36,110.36,0,0,0-6.45,27.88A109.93,109.93,0,0,0,473.29,300.36Z"/><path class="cls-2" d="M337,244.69a210.42,210.42,0,0,0-30,15.45c-17.41,10.74-41.05,24.51-47.52,59.89s7.34,95.63-10.36,137.82a402,402,0,0,0-24,80.81L400.62,325.21Z"/><path class="cls-29" d="M220.48,580.87s-14.35,72.93,23.12,83.66,196.47,13.33,196.47,13.33,3.09,47.19,9.15,90.74c5.56,40.06,15.15,97.77,15.15,97.77s119.5,8.1,132.27-15.09c11.18-82.59,21.73-166.12,16.91-249.62-1.56-27.12-26.3-44.56-48.47-51.59-22-7-56.94-9.72-81-11.37-23.48-1.62-65.37,4.22-65.37,4.22S299.5,610.33,220.48,580.87Z"/><path class="cls-30" d="M353,87.92c5.23-5.7,12.67-9,19.74-6.09,1.51-14.34,16.45-21,30.81-19.58,7.33,1.07,14.46,5.34,21.7,3.8,4.52-1,8.22-3.93,12.28-6.29,16.95-9.49,39.56,6.94,50.9,22.74s6.06,31.14-3,48.34c-4.19,8-4.27,12.63-6.37,21.48-2,8.35-9.11,23.43-10.28,31.82s10.84,18.87,2.26,18.45l-91-22.69c-14.08.95-22.31-4.32-27.79-17.32-3.52-8.81-1.95-9-1.35-18.43.47-12.39-10.79-23.19-8.49-35.37C343.7,101.1,348.12,94,353,87.92Z"/><path class="cls-31" d="M341.61,85.94s34-11.75,74.58-1.91,57.5,37.66,62.38,56.68-5.23,37.08-5.23,37.08,9.94,4.11,21.53-32.09c16.9-52.76-34.15-92.42-47.5-93.94S367.66,27.74,341.61,85.94Z"/><path class="cls-5" d="M365,184.94s-5.7,32.37-17.38,54c-1.63,3-23.41,12.49-23.41,12.49l28.43,13.83c16.21,6,53.65,10.15,70.54,6.47l14.6-6.78s-16.54-6-16.85-10,6.57-33.28,6.57-33.28"/><g id="freepik--character-2--inject-1332"><path class="cls-32" d="M382.53,314a47.48,47.48,0,0,1-2.62-5.82,21.15,21.15,0,0,1-1-6.75,20.53,20.53,0,0,1,1.82-8.09,21.34,21.34,0,0,1,3.38-5.17l.21-.22-.13-.35c-1.33-4.1-2.31-8-3.15-10.58a16.32,16.32,0,0,0-1.52-4.12,2.44,2.44,0,0,0,.18,1.15l.77,3.06c.67,2.7,1.44,6.37,2.83,10.87l.11-.56A21.07,21.07,0,0,0,378,301.48a20.79,20.79,0,0,0,1.29,7,18.31,18.31,0,0,0,2.09,4.23A5.74,5.74,0,0,0,382.53,314Z"/><path class="cls-32" d="M345.88,300.82a34.33,34.33,0,0,0-3.18-3.74A17.77,17.77,0,0,1,337.78,287c-.12-2.2.3-4.39.13-6.5a6.88,6.88,0,0,0-2.22-5,4.26,4.26,0,0,0-3.58-.93c-.89.23-1.21.66-1.18.7a5.43,5.43,0,0,1,1.25-.31,4.18,4.18,0,0,1,3.05,1.09,6.55,6.55,0,0,1,1.71,4.53c.12,1.92-.34,4.11-.22,6.49a13.88,13.88,0,0,0,2.1,6.24,25.38,25.38,0,0,0,3.37,4.22A19.2,19.2,0,0,0,345.88,300.82Z"/><path class="cls-32" d="M358.2,293.41a51.44,51.44,0,0,0-4.71-4.51,30.68,30.68,0,0,1-8.7-12.6A17.57,17.57,0,0,1,344,272a29.34,29.34,0,0,1,.22-4.09,8.85,8.85,0,0,0-1.54-7,3.92,3.92,0,0,0-2.65-1.34,3.8,3.8,0,0,0-2.12.41c-1.09.63-1.19,1.42-1.15,1.4a2.74,2.74,0,0,1,1.31-1,3.49,3.49,0,0,1,4,1,8.33,8.33,0,0,1,1.15,6.43,30,30,0,0,0-.27,4.23,17.26,17.26,0,0,0,.8,4.56,29.06,29.06,0,0,0,9.15,12.81c1.55,1.32,2.83,2.33,3.75,3A5.37,5.37,0,0,0,358.2,293.41Z"/><path class="cls-32" d="M343,250.73a13,13,0,0,1,3,4.79,27.91,27.91,0,0,1,1.21,6.07,33,33,0,0,0,1.56,7.8,28.27,28.27,0,0,0,8.05,11.86,24,24,0,0,0,3.55,2.56,5,5,0,0,0,1.47.67c0-.17-1.9-1.28-4.5-3.8A30,30,0,0,1,349.78,269a35.49,35.49,0,0,1-1.45-7.51,26.14,26.14,0,0,0-1.46-6.35A7.5,7.5,0,0,0,343,250.73Z"/></g><g id="freepik--character-1--inject-1332-3" data-name="freepik--character-1--inject-1332"><path class="cls-5" d="M424.5,258.77l-82.27-11.53-12.65,29.35s18.93,22.41,21,23.61,51.79,18.33,51.79,18.33,60.1-14.87,59.29-14.79S424.5,258.77,424.5,258.77Z"/><path class="cls-3" d="M233.93,586.63a64.86,64.86,0,0,0,16.57,5.12A133.26,133.26,0,0,0,269.18,594a113.57,113.57,0,0,0,32.51-2.81,279.21,279.21,0,0,0,29.49-9.14c19.45-7,37.8-7.19,57.3-14.11s24.77-17.89,45.43-19.16c14.66-.89,33.94-12.19,50.22-10.1,4.44-14.84-9.16-32.18-9.16-32.18l-7.85-44.06,16.54-18.21c11.41-18.75,14.86-68.05,10.65-76.27l-35.19-90.91-34.43-19.28c1.36,3,10.34,25.27-19.49,30.35,0,0-7.18-.55-7.2-.54-37.44-5-61-42.91-61-42.91l-12.71,5.55L260.69,438.15s-46.26,82.56-51,118c-.73,5.47-3.45,7.35,1,16.16C215.92,577.08,225.78,582.61,233.93,586.63Z"/></g><line class="cls-33" x1="292.01" y1="421.37" x2="293.35" y2="420.77"/><path class="cls-3" d="M424.69,257.79s52.68,18.33,58.24,36.19c8.43,27.12,12.14,83.87,12.14,83.87l-25.23-1.64Z"/><path class="cls-29" d="M490.65,429.16c1-6.5.3-13.27-.1-19.79-.45-7.24-1.23-14.44-2.29-21.61-2.2-14.87-5.52-29.54-9.19-44.1-1.76-7-3.6-14-5.45-21,2.59,13,4.53,26.19,7.45,39.15,3,13.29,5.77,26.2,6.94,39.78,1.37,16,3.05,23.31-2.6,35.46s-18.29,25.36-18.29,25.36l1.09,1.28S488.73,441.85,490.65,429.16Z"/><path class="cls-6" d="M422,246.77s-6.72-2.06-11.28-4-12.71-2.78-32-24.68c0,0,3.27,24.16,30.48,32.91,0,0,7,2.48,11.89,2Z"/><path class="cls-5" d="M466,108.65l.27.28a4,4,0,0,1-.21-.54Zm11.27,5c.14.2.29.4.46.6l.05-.21S477.3,113.38,477.24,113.64ZM376.54,215.2c8.57,13.71,23.16,29.42,40.75,32.55,6.3,1.12,13-.82,18.24-3.92,7.89-4.71,16.16-9.46,22.6-15.63,6.17-5.91,9.16-9.78,13-17.39,3.95-7.88,4.41-10.09,5.33-18.62a84.27,84.27,0,0,1,2.41-13c1.22-4.06,6.64-19.93,9.08-29.4s-1.17-29.17-1.17-29.17c0-2.7-3.83-2.13-4.77-4.51l-1.12-.26a1.15,1.15,0,0,1,.33,1.16,8.94,8.94,0,0,1-3.51-2.74v.05c-1.86.39-3.37-.77-4.49-2.38-.05.26.11.84.39.9a5.78,5.78,0,0,1-4.14-2.56c-.06.26.1.84.05,1.09a10.48,10.48,0,0,1-3.26-2.41c.18.4,6.74.85,6.7,1-1.74-.13.06.87-1.05-.74L470.71,108c-1.46-.06-1.6.8-2.49-.49.22.32-.13-3-.19-2.76-1.68-.38-1.2-.39-2.43-1.48-.06.26-5,.64-5,.89-1.4-.32-1.32,1.06-2.21-.23.22.32,1.26-.85,1.48-.53-1.74-.12-2.62.82-3.73-.79.22.32-4.92-4.09-4.92-4.09-1.74-.12-1.58.47-2.75-.88.45.65-7.66-2.24-7.5-1.66-1.4-.32,1.51,5.75.57,4.73-.06.25-3.06-1.51-3.06-1.51-1.46-.06.35,1.71-.54.42-.05.26,0,1.09.33,1.16-1.86.39-3.71-.57-5.16-2,.45.65.61,1.23.83,1.55-1.4-.32-2.58-.32-3.75-1.67-.06.26.32,1.16.61,1.23a5.74,5.74,0,0,1-4.38-1.54c-.06.26.39.9.61,1.22a4,4,0,0,1-3.25-1.28l.6,1.22c-1.12-.25-2.08.07-3.65-.82-.06.25.45.64.39.9a10.55,10.55,0,0,1-2.75-.9c-.06.26.67,1,.38.9-1.12-.25-2.08.07-3.36-.76.22.32.38.9.6,1.22a7.65,7.65,0,0,1-3.31-1,2,2,0,0,0,.33,1.16c-1.12-.26-2.08.07-3.37-.77-.06.26.39.9.61,1.22a14.84,14.84,0,0,1-3.37-.76c-.06.26.44.64.67,1a9.3,9.3,0,0,1-3.6-1.08c-.11.51.11.84.05,1.09-.84-.19-1.35-.57-2.19-.76l-1.52.19c-5.1,4.26-18.91-3.24-18.91-3.24-10.28,5-6.7,43.24-7.53,48.2s-3.92,5.69-3.92,5.69c-1-2.12-3.92,2.83-4.29.57-.43-2,.65-4.18.22-6.18-1.59-4.7-7.5-4.68-11.17-2.81l-.71.73c-5.62,4.86-5,24-3.05,30.13-1.53,11.17,6.82,19.1,14,12.4l.56,4.62"/><path class="cls-22" d="M439.13,200.06a8.22,8.22,0,0,1-7.21-2.12c-.4-.39-2-.46-1.45.09a11.62,11.62,0,0,0,9.86,2.72c.29-.08.29-.29,0-.48a1.89,1.89,0,0,0-1.19-.21"/><path class="cls-22" d="M429.71,197.23a13.44,13.44,0,0,0-4.26-2.14,1.05,1.05,0,0,0-.74.06c-.15.09-.22.24-.07.38a5.09,5.09,0,0,0,2.35,1.12,1,1,0,0,0,.83-.12c.19-.18,0-.37-.25-.42a4,4,0,0,1-1.89-.91l-.81.43a11.76,11.76,0,0,1,3.8,1.93,1,1,0,0,0,.84.1c.19-.06.42-.25.2-.43"/><path class="cls-22" d="M423.48,196c-1.81-.45-3.77-1.73-4.36-3.3-.88-2.36,1.12-5.34,3.69-6.14.28-.08.19-.3-.05-.41a1.55,1.55,0,0,0-1,0,6.47,6.47,0,0,0-4.27,5.08c-.13,1.87,1.33,3.53,3.39,4.55a10.15,10.15,0,0,0,1.95.73,1.3,1.3,0,0,0,1-.08c.18-.19-.05-.34-.31-.41"/><path class="cls-22" d="M442.67,199.9a.24.24,0,0,1,.31-.29,2.24,2.24,0,0,0,1.52-.14l.35.7a6.6,6.6,0,0,0-3.09.36.52.52,0,0,1-.56-.22c-.09-.13-.17-.38,0-.46"/><path class="cls-22" d="M441.23,199.85a7.35,7.35,0,0,1,3.45-.4.61.61,0,0,1,.44.33.26.26,0,0,1-.09.37"/><path class="cls-22" d="M446.4,201a3.8,3.8,0,0,0,3.66-1.48,5.44,5.44,0,0,0-.1-6.14c-.13-.18,0-.34.18-.36a.72.72,0,0,1,.58.34,6.1,6.1,0,0,1,.81,5.38,4.27,4.27,0,0,1-3.54,3,4.56,4.56,0,0,1-1.38,0c-.18,0-.49-.19-.52-.42s.14-.3.31-.27"/><path class="cls-34" d="M466.41,168.51a4.51,4.51,0,0,1,4.42,1.8,4.57,4.57,0,0,1,.57,2.11,4.21,4.21,0,0,1-1.8,3.48,3.86,3.86,0,0,1-4.5-.23,4.25,4.25,0,0,1-1-5.31,3.75,3.75,0,0,1,2.26-1.85"/><path class="cls-34" d="M451.31,170.56s8.94-4.26,12.91-3.76c5.79.72,12,5.44,13.42,8.71,0,0-8.17-6.79-12.26-7.18C461.46,168,451.31,170.56,451.31,170.56Z"/><path class="cls-34" d="M419,158.38a5.42,5.42,0,0,0-5.16-.84,4.1,4.1,0,0,0-1.6,1.58,4.16,4.16,0,0,0,.12,3.91,3.87,3.87,0,0,0,4.16,1.74,4.27,4.27,0,0,0,3.15-4.38c0-.33.43-.85-.68-1.79"/><path class="cls-34" d="M427.93,164.78s-7.34-7.39-11.53-8.47c-6.11-1.58-14.27.36-16.93,2.85,0,0,10.89-3.11,15.16-1.89C418.72,158.45,427.93,164.78,427.93,164.78Z"/><path class="cls-35" d="M459.33,147.58l-1.53,3.19-1.16,2.43c3,.63,5.57,1.3,7.46,1.86,4,1.17,6,1.79,8,3.19a22.41,22.41,0,0,1,4.17,3.93,14.6,14.6,0,0,1,1.92,2.62c1.18,2.19,1.21,4,1.57,4s.51-1.5.53-1.66a13.7,13.7,0,0,0-1.27-7.25,16,16,0,0,0-3.88-4.71c-1.86-1.57-7.56-4.81-15.82-7.65"/><path class="cls-35" d="M435.51,143.57l-.66,3.47-.51,2.65c-3.08-1.34-5.75-2.34-7.77-3-4.26-1.49-6.45-2.23-9.08-2.31a26.49,26.49,0,0,0-6.15.62,16,16,0,0,0-3.35.93c-2.43,1-3.61,2.5-3.94,2.29s.49-1.52.57-1.65a14,14,0,0,1,5.7-5,18.38,18.38,0,0,1,6.39-1.41c2.63-.12,9.7.74,18.8,3.48"/><path class="cls-36" d="M364.27,166c-3.9-15.82-8.35-16.65-8.35-16.65s-3.56,3-3.18,10.06"/><path class="cls-36" d="M361.75,167c-3.94-1-2.08,6.94-3.47,8.52s-2.1-3.34-1.68-9.06c0,0,1.23-7.63,5.24-8.41"/><path class="cls-6" d="M427,128.58s9,6.45,19,7.78S468.43,138,468.43,138"/><path class="cls-35" d="M482.66,108.09h0c-2-3.84-3-7.77-5.13-11.52s-4.16-7-6.45-10.57c-.13-.21-3.38-.77-3.51-1l-.15-.22-.22-.33c-.17-.26-.35-.51-.52-.76-14.46-9-33-12.65-50.54-9.93a62.56,62.56,0,0,0-52.26,71.38c.45,2.92-1.71,6.07.8,8.05s2.95,1.24,5.81-.19a20.7,20.7,0,0,0,6.89-6.5c9.06-12.47,13.91-33.72,12.87-49.1,1.4,3.08,14.41,2,16.95,4.23a24.23,24.23,0,0,0,34.2-2,36.74,36.74,0,0,0,3.12,5.22c10.84,15.13,26.54,24,41.82,16.63C486.9,121.19,483.88,110.52,482.66,108.09Z"/><path class="cls-37" d="M396.59,151.52l.63,5.61c.14,4.28,1.49,13,2.42,15.48,1.31,3.49,22.66,9.27,27.43,7.7s9.77-13.42,11.51-16l8.54,2.32c0,3.87.18,16.17,1.48,18.1s11.28,3.76,12.4,4c.94.16,2.25.39,3.68.57,3.81.53,8.49.87,10.18-.22,2.52-1.62,6.47-9,10-16l.56-1.1c.13-.27.26-.44.28-.52h0l.64-1.27c-11.18-8.58-27.71-11.08-39.18-5.9l.05.15-8.32-2.31c-8.17-8.35-23.9-15.3-36.64-13.24h0l-37.85-1.69-.81,3.21Zm53.29,32.19c-.82-1.21-1.21-9.88-1.3-16.58,9.94-4.32,24.83-2,35,5l0,.16c-1.9,3.76-6.95,13.76-9.42,15.35-2.93,1.87-22.74-2-24.21-3.89Zm-47.49-11.43a113.24,113.24,0,0,1-3.17-20.13c11.49-2.53,29.17,4,37.19,12-2.59,4.85-6.4,13.48-9.82,14.59-4.92,1.62-23.39-4.26-24.2-6.46Z"/><path class="cls-38" d="M450.12,183.58c-.81-1.2-1.2-9.87-1.29-16.57,9.93-4.32,24.83-2,35,5l-.05.16c-1.9,3.76-6.95,13.76-9.42,15.34-2.93,1.87-22.74-2-24.21-3.88Z"/><path class="cls-38" d="M402.39,172.28a113.24,113.24,0,0,1-3.17-20.13c11.49-2.53,29.17,4,37.19,12-2.59,4.85-6.4,13.48-9.82,14.59-4.92,1.62-23.39-4.26-24.2-6.46Z"/><path class="cls-39" d="M346.82,149.08s-27.93-26.83-12.74-49.37C337,95.38,337,96.94,337.73,93c3.62-20.94-4.44-17,29.79-37.28s38.7-19.27,85.24-9.24c24,5.17,35.88,17.15,40.38,33.44,2,7.32,2.55,15.52,2,24.35,0,0-47.61-21-79.33-9.19s-69.9,59.35-65.91,76.84C351.05,176.78,346.82,149.08,346.82,149.08Z"/><path class="cls-31" d="M330.87,123.41S381.43,68,437.76,73.87c0,0-68.23-17-105.74,28.2l-1.27,5.75a32.25,32.25,0,0,0-.48,10.91Z"/><path class="cls-40" d="M546.72,574.83s24.64,2.13,28.89,17-3.83,35.26-3.83,35.26S578.09,594.75,568,586A52.6,52.6,0,0,0,546.72,574.83Z"/><path class="cls-3" d="M331.15,244.25s-57.75,5.45-78.45,32.24-39.94,137.16-41.29,155.17c-3.82,50.83,109.46,132.85,109.46,132.85l28.72-43.23-72.48-101.2,14.15-72.22Z"/><path class="cls-29" d="M315.26,312.88c-.12,12.47-25.95,100.6-29.83,113.73L288,426c3.17-11.28,23.87-84.9,28.75-106.62,4.62-20.57-10-39.57-10-39.57C317.47,302.53,315.26,312.88,315.26,312.88Z"/><polygon class="cls-29" points="287.97 426.03 285.43 426.61 349.18 521.59 350.38 520.67 287.97 426.03"/><path class="cls-29" d="M236.74,486.74s44.76,61,79.05,77.3l11.82-12,1.55.11L320.24,561l-4.47,5.21s-22.71-13.54-33.87-24.62-46-52.77-46-52.77l.84-2.07"/><polyline class="cls-5" points="346.33 524.3 370.42 541.39 360.23 572.49 322.01 557.72"/><path class="cls-5" d="M358.66,537l30.21-7.65s34.15,6.42,38.27,10.86,8.95,10.88.51,15.15c0,0,3.74,9.81-1.19,12.24s-10.59-1-10.59-1,6.55,8,.92,11.69-8.08.76-8.08.76-.5,4.65-3.47,4.39a79.42,79.42,0,0,1-12.34-3.84s-16.64,1.76-25.62-.9a43,43,0,0,1-16.35-10.42Z"/><path class="cls-6" d="M409.65,550.07A22.51,22.51,0,0,1,427,554.92"/><polygon class="cls-33" points="350.38 520.82 347.47 525.11 346.33 524.3 349.5 519.67 350.38 520.82"/><path class="cls-29" d="M287.56,428.18s-13.29,4.89-21,10.28c0,0,13.27-12,20.77-12.43Z"/><path class="cls-6" d="M444.3,141.82s4.28,9.19-4.41,12.35l1.38-2.93a33.46,33.46,0,0,0,2.14-6Z"/><path class="cls-6" d="M453.1,145.06s-7.79,6.5-1.27,13.05Z"/><path class="cls-5" d="M797.41,331.21a2,2,0,0,0-.06,1.15s-6-4-6,7.28c0,0-6.17,6.53-4.15,12.72,0,0-4.14,10.09-3.4,15s24.52,28.76,24.52,28.76L834.3,410.6l16.11-24.38-3.08-1.9s.26-14.65-1.28-20.36a56,56,0,0,0-6.2-12.76l-9.61-10.89c-6.84,3.54,1.49,18.3.83,18.94a6.41,6.41,0,0,1-9.07-.17c-5-4.76-10.82-10.19-11.79-10.84s-3.08-9.66-4.53-16.39C804.85,327.83,798.74,327.16,797.41,331.21Z"/><path class="cls-6" d="M809.4,361.87a35,35,0,0,1-8.91-10.42A30.86,30.86,0,0,1,798,338.14a26.6,26.6,0,0,0-.21-5.78,18.77,18.77,0,0,0-.88,5.76,27.44,27.44,0,0,0,2.13,14,30.9,30.9,0,0,0,9.58,10.53,19.68,19.68,0,0,0,5,3.12A26.48,26.48,0,0,0,809.4,361.87Z"/><path class="cls-6" d="M802.51,366.82a52.72,52.72,0,0,1-4-4,17.66,17.66,0,0,1-3.73-5.69,35.53,35.53,0,0,1-1.37-6.68c-.27-2.14-.56-4.06-.83-5.66a18.46,18.46,0,0,0-1.18-5.19,18.53,18.53,0,0,0,.08,5.31l.51,5.7a31.09,31.09,0,0,0,1.33,7,18,18,0,0,0,4.17,6,38.81,38.81,0,0,0,4.42,3.89,11,11,0,0,0,4.78,2.6A41.34,41.34,0,0,1,802.51,366.82Z"/><path class="cls-6" d="M795.57,371.52c-1.51-1.85-3.56-4.38-6-7.13a4.53,4.53,0,0,1-.95-2,23,23,0,0,1-.54-2.32,38.12,38.12,0,0,1-.49-4c-.17-2.31,0-3.73-.23-3.79s-.73,1.39-.85,3.81a21.29,21.29,0,0,0,.21,4.22,19.34,19.34,0,0,0,.47,2.48,5.78,5.78,0,0,0,1.27,2.66c4.76,5.42,9,9.68,9.46,9.22A16.92,16.92,0,0,0,795.57,371.52Z"/><path class="cls-4" d="M944.75,352.06a122.75,122.75,0,0,0-7.87-23.38c-3.3-7.2-7.1-15.48-13.65-20.25-5.27-3.85-11.56-6.77-17.4-9.67,0,0-26.67,55.44-23.57,72.05,2.41,12.91,9.74,40.4,12.88,52a118.25,118.25,0,0,1,16.94,15.06c10.07,10.84,10.59,30.31,16.47,43.89,3,7,4.16,17.18,14.33,12.57,9.28-6,17.78-14.14,17.69-32.21-.05-15.51-2.92-31.26-5.16-46.56-2.95-20.05-5.94-40.21-9.93-60.09C945.26,354.33,945,353.19,944.75,352.06Z"/><path class="cls-4" d="M935.42,491.73A126.34,126.34,0,0,0,911.27,417v.21l-55.53-41.74-28.58,44.27s77,76.5,90.16,77.68a57.48,57.48,0,0,0,17.92-1.06C935.33,494.81,935.4,493.28,935.42,491.73Z"/><path class="cls-7" d="M933.82,438.82a16.31,16.31,0,0,0-1.77-6.38,25.78,25.78,0,0,0-6.73-8.06,50.71,50.71,0,0,0-12.14-7.07l.13,0-56.68-42.24-1.29-.83-.36.48-.44.59.9.5h0a1.51,1.51,0,0,1,.49.17l.31.25s.08.1.13.15L912.79,418l.11,0a51.39,51.39,0,0,1,12,6.8,25.07,25.07,0,0,1,6.74,7.75,16.42,16.42,0,0,1,2,6.2c.06.74.05,1.31.06,1.69a2.32,2.32,0,0,0,0,.59,1.41,1.41,0,0,0,.18-.57A12.36,12.36,0,0,0,933.82,438.82Z"/><path class="cls-7" d="M827.84,418.84l49.66,45.87,13,12,3.42,3.23a12.59,12.59,0,0,1,1.15,1.16,15.77,15.77,0,0,1-1.45-1.1l-3.56-3.1L877,465.17l-49.82-45.44A5.37,5.37,0,0,0,827.84,418.84Z"/><path class="cls-7" d="M888.05,399.67a2,2,0,0,1,1.16-.19c-.33-1.69-.67-3.4-1-5.16-2-9.92-3.79-19-5.16-25.86l-1.66-7.82a15.16,15.16,0,0,0-.78-3,11.73,11.73,0,0,0,.29,2.95c.28,1.87.7,4.67,1.35,7.9,1.16,6.67,2.84,15.87,4.8,26C887.37,396.23,887.71,398,888.05,399.67Z"/><path class="cls-7" d="M911.65,305.72s-23.44,4.16-31.49,37.3C880.16,343,883.06,310.35,911.65,305.72Z"/><polygon class="cls-7" points="854.68 375.17 848.32 384.83 849.15 385.35 855.7 375.9 854.68 375.17"/><polygon class="cls-7" points="827.9 418.65 833.36 410.03 832.41 409.67 826.39 418.89 827.29 419.86 827.9 418.65"/><path class="cls-7" d="M892.27,478.3s25.07,21.18,46.46,17.42l.41,1.4s-7.6,3.25-23.82-4S894,480,892.27,478.3Z"/><path class="cls-24" d="M431.88,209.18c-7.23-1.84-24.39-1.16-28.37,1,0,0,6.71,8.22,23.48,12.48s21.1-1.16,21.1-1.16S441.09,211.52,431.88,209.18Z"/><path class="cls-25" d="M411.17,208.61s8.8,1.44,15.66,3.18,15.28,4.67,15.28,4.67,2.5-5.21-9.95-8.37S411.17,208.61,411.17,208.61Z"/><path class="cls-26" d="M427.61,220.26c-7.55-3.19-14.79-8.34-24.1-10,0,0-.28,11.9,19.43,16.91s25.15-5.59,25.15-5.59C439.09,218.59,435.77,221.06,427.61,220.26Z"/><path class="cls-26" d="M441.52,207.17c-4.06-1.38-7.11-.37-8.91-.83s-4-2.8-8.23-3.52c-4-.68-22.95,5.31-21.45,7.1s16.12-2.45,28.59.71,15,11.76,17.21,10.91S445.32,208.46,441.52,207.17Z"/><path class="cls-5" d="M692.28,542.69l-13.39-16.05-27.57-7.86s-23.33,2.31-24,2.26-20.65-11.1-20.65-11.1L589,538.9l38.37,14.61c4.31,1.4,13-1.61,17.49-1.81l24.84-1.06,10.46,3.24s6.06-1.74,1.13-5.35c-1.73-1.27,5.52,2.8,6.57,2.84s3,1,4.36-.92C693.08,549.2,694.34,545.15,692.28,542.69Z"/><path class="cls-41" d="M646.6,539.45s.36-.62,2.21-.54c6.85.29,22.27,2.37,23.81,4.19,2.68,3.16.49,8.46-4.86,8.46h-25s30.56,1.44,29.71-5S646.6,539.45,646.6,539.45Z"/><path class="cls-41" d="M682,549.13s-11.7-10.47-17.37-12.46l-10.48,2.65s10.09-3.76,11.31-3.67c5.72.43,18.37,14,18.37,14Z"/><polygon class="cls-29" points="467.12 462.46 472.08 490.28 469.86 460.87 467.12 462.46"/><path class="cls-29" d="M525.58,438.27s-10.75,1.5-21.69,11.91c0,0,6.73-12.59,20.86-15Z"/></svg>