<svg xmlns="http://www.w3.org/2000/svg" viewBox="0 0 1221.96 991.43"><defs><style>.cls-1{fill:#f2ebd1;}.cls-2{fill:#956243;}.cls-3{fill:#653c2a;}.cls-4{fill:#b7b338;}.cls-5{fill:#d79a86;}.cls-6{fill:#bb997a;}.cls-7{fill:#33302e;}.cls-8{fill:#1b120c;}.cls-9{fill:#a56530;}.cls-10{fill:#8c542a;}.cls-11{fill:#131c42;}.cls-12{fill:#151312;}.cls-13{fill:#ccb631;}.cls-14{fill:#4d2f15;}.cls-15{fill:#3ba448;}.cls-16{fill:#993a2f;}.cls-17{fill:#33373a;}.cls-18{fill:#5e5f5f;}.cls-19{fill:#853324;}.cls-20{fill:#ec9a6f;}.cls-21{fill:#a99231;}.cls-22{fill:#68652a;stroke:#68652a;}.cls-22,.cls-26,.cls-37,.cls-39{stroke-miterlimit:10;}.cls-23{fill:#010101;}.cls-24{fill:#13110f;}.cls-25{fill:#878787;}.cls-26{fill:none;stroke:#010101;stroke-width:1.15px;}.cls-27{fill:#273339;}.cls-28,.cls-31{fill:#fff;}.cls-28{opacity:0.14;}.cls-29{fill:#622515;}.cls-30{fill:#24180f;}.cls-32{fill:#653c29;}.cls-33{fill:#1c1f20;}.cls-34{fill:#946343;}.cls-35{fill:#221f20;}.cls-36{fill:#cc8d2a;}.cls-37,.cls-39{fill:#934834;stroke:#934834;}.cls-38{fill:#513835;}.cls-39{stroke-width:1.06px;}</style></defs><g id="Layer_1" data-name="Layer 1"><polyline class="cls-1" points="1219.39 991.51 1219.39 0.08 -2.57 0.08 -2.57 991.51"/><path class="cls-2" d="M644.49,407.25s13.25-17.76,22.54-22c2.61-1.18,21.52-20,21.52-20s6.44,2.92.26,11.75-8.92,12.29-8.92,12.29l-.57,3.18,17.76,2.65s20.66-.34,25.64,0,15.68.68,17.16,7c0,0,7.93-.35,8.47,3.42a5.8,5.8,0,0,1-1.1,5.21l-3.71,1.13s2.11.86.86,4.55-35.1,8-35.1,8l-1.64,1.43s23,.86,23.65,2.92,1.45,3.7-2.11,4.95-66,7.51-73.27,6.75a88.54,88.54,0,0,0-8.92-.69l-8-31.61Z"/><path class="cls-3" d="M742.25,410.91A108.32,108.32,0,0,1,724.77,413a109.54,109.54,0,0,1-17.55.66,107.84,107.84,0,0,1,17.45-2.09A108.76,108.76,0,0,1,742.25,410.91Z"/><path class="cls-3" d="M740.17,402.88c0,.4-7.69.36-17.12.93s-17,1.46-17.11,1.06a67.83,67.83,0,0,1,17-2.51A66,66,0,0,1,740.17,402.88Z"/><path class="cls-3" d="M680.6,397.65S681,415,666.86,425.84C666.86,425.84,688.72,412.21,680.6,397.65Z"/><path class="cls-4" d="M553.74,484.24s-60.53,17.16-70.88.66c-16-25.49-18.52-53.21-18.52-53.21l63.39-16.35Z"/><path class="cls-5" d="M790.5,296.28c-8.61,3.21-13.23,3.82-20.77,16.37L737,385.16a4.2,4.2,0,0,1,.26.52c5.86,15.12-8.66,30.84-6.71,47.09,1.3,10.9,9.56,22,7.82,33.08,29.29,1.16,43.12-41.25,50.23-54.65l1,5.68c2.63-12.74,4.74-25.59,6.42-38.5,3.59-27.4,24.82-60.67,26.47-88.25Z"/><polyline class="cls-6" points="-0.11 993.15 1221.85 993.15 1221.85 919.8 -0.11 919.8"/><path class="cls-2" d="M711.8,870.89s-32.42,17.45-51.72,30.1l-.19,2.17s1.8,13.5,11.13,14.6S738.49,895,738.49,895l.63-17.08Z"/><path class="cls-7" d="M625.25,924.69s-2.6-6.41,2.38-8.56,31.49-16.24,34.19-15.81c0,2,2.49,4.49,8.26,6.08s12.2,3.63,26.89.28c11-2.5,33.66-7.14,43.56-13.4,3.3-2.09,8-8.93,8.23-9.91,11.85,13.21,8.56,27.74,3.31,31.46s-36.59,7.06-36.59,7.06l-27.66,7.63-26.18,2.07-11,.1-13.24-1.59Z"/><path class="cls-8" d="M753.41,913.4c-3.4,1.32-14.32,3.54-23.69,4-25.17,1.31-33.57,4.85-42.06,7.77a104.45,104.45,0,0,1-14.88,4.24c-29.3,6-46.64-4.35-47.25-4.78a3.12,3.12,0,0,0-.77,1.49,22.79,22.79,0,0,0,6.14,3.9c8.35,3.55,20.27,7.55,43,3.37,6.43-1.18,10.31-1.78,14.54-3.24,6.37-2.18,12.91-4.43,27-5.92v4.37s26.73.18,38.69-5.51C754.93,916.38,753.41,913.4,753.41,913.4Z"/><path class="cls-8" d="M754.37,919.2c-16,4.73-33.37,5.39-38.91,5.59v3.84s26.73.18,38.69-5.51A30,30,0,0,0,754.37,919.2Z"/><path class="cls-9" d="M863.26,670.24q53.54,0,107.08,0c15.35,0,18.2,7.11,18.18,21.68,0,13.39-3.07,21.25-18.61,21.28-3.5,0-7.07.39-10.48-.07-10.28-1.35-12.34,2.37-11,10.14,13.15,75.85,26,146.51,39.09,222.36.89,5.16.08,7.21-7,7.29-17.72.22-18.08.56-20.54-13.64q-12.56-72.59-24.48-145.24c-1.06-6.58-3.79-8.57-11.79-8.51q-60.88.5-121.78,0c-7.79-.06-10,2.26-11,8.22-8.32,51-17,102-25.44,153-.78,4.75-3.15,6.17-8.79,6.25-18.26.27-18.76.4-16.41-13.91,8.5-51.86,17.35-103.69,26.12-155.53,3.73-22,7.46-38.87,11.52-60.87,1.26-6.79-.21-10.64-9.74-9.34-2,.28-4.21-.09-6.29.06-27.38,1.89-25.15-17.24-23.56-34.94.61-6.87,7.88-8.49,15.78-8.45,36.39.18,72.78,4.43,109.18,4.43Zm-.86,97.92c20.27,0,40.54-.15,60.81.1,6.21.07,9-1,7.92-6.77-3.26-17.7-6.23-23.12-9-40.88-.86-5.38-3.13-7.66-10.48-7.57-32.15.4-64.31.46-96.45,0-8-.12-10.18,2.37-11.08,8.07-2.69,17.19-5.57,22-8.76,39.16-1.11,5.93.51,8.22,8.38,8C823.25,767.88,842.83,768.16,862.4,768.16Z"/><path class="cls-10" d="M766.45,783.65q-2,12-4.06,24c8.5,1.64,17,3.56,25.38,5.56q1.61-9.69,3.2-19.38c1-6,3.23-8.28,11-8.22q60.88.51,121.78,0c8-.07,10.73,1.92,11.79,8.51q1.53,9.4,3.09,18.8A233.87,233.87,0,0,0,962.49,803c-4.64-26.21-9.29-52.61-14-79.67a14.74,14.74,0,0,1,0-6.29q-8.33.54-16.67.84-5.12.2-10.23.3a16.13,16.13,0,0,1,.59,2.48c2.82,17.76,5.79,23.18,9.05,40.88,1.06,5.73-1.71,6.85-7.92,6.77-20.27-.24-40.54-.09-60.81-.09-19.57,0-39.16-.29-58.71.14-7.87.17-9.49-2.12-8.38-8,3.19-17.13,6.07-22,8.76-39.17a10.87,10.87,0,0,1,2-5.32c-9.64-.29-19.28-.52-28.92-.64,1.31,1.66,1.36,4.27.74,7.59C773.91,744.79,770.18,761.61,766.45,783.65Z"/><path class="cls-10" d="M738,682.1S854.23,703,904.35,696.68s83.92-11.74,81.88-19.33-37.51-23.88-73.23-25S779.35,660,779.35,660,746.47,665.36,743,670,738,682.1,738,682.1Z"/><path class="cls-2" d="M776.22,573.71S686.11,580.9,666.1,584c-29.33,4.54-42.62,14.14-45.17,32.38-5.31,38,86.64,258.9,86.64,258.9l21.53,2.59L695,657.9l113.49,7.58Z"/><path class="cls-2" d="M782.58,601s-106.3-7.74-128.25,5.35-15.8,32.32-11.89,54.31S724.28,891,724.28,891l37.06-9.15s-12.13-140.56-17.64-163.5-26.16-53.58-26.16-53.58,88.45,2.36,104.94.19S782.58,601,782.58,601Z"/><path class="cls-3" d="M689,644.7a18.56,18.56,0,0,1,4.12,3,92.39,92.39,0,0,1,16.3,17.94,16.47,16.47,0,0,1,2.51,4.3c-.31.2-4.66-6.06-11-13S688.74,645,689,644.7Z"/><path class="cls-11" d="M951.89,542.81c-5.87,2.55-9.75,4.4-15.9,4-5.51-.33-10.88-3.56-16.24-4.86s-5.67-1.23-11-2.83c-10.92-3.29-11.46-3.78-22-8.51-17.1-7.69-29.08,3.72-48.94-1.55-14.26-4.53-39.7,3.63-47,3.83L748,544.48q-1.53.4-3.09.69c-12.16,2.15-94.07,17.57-108.11,44l3.92,10.73s27.42-10.82,45.68,22.76c15,27.66,38.77,54.64,38.77,54.64l154.49-.51c29.73,4.76,59.85-9.88,78.21-38,26.75-52.14,4-91.89,4-98.88C958.07,542.59,956,541,951.89,542.81Z"/><path class="cls-2" d="M724.47,886.42l-44.75,34.67c-3.07,3.55,47.7,22.64,88.66-27.14l-7-12.14Z"/><path class="cls-7" d="M648.32,947.54s-3.36-6,1.33-8.77S679,918.62,681.79,918.7c.22,1.95,3,4.11,9,4.94s12.57,2,26.8-3.21c10.66-3.9,32.65-11.43,41.74-18.89,3-2.5,6.92-9.87,7-10.87,13.39,11.53,11.88,26.31,7.1,30.67s-35.57,11.73-35.57,11.73L711.2,944.2l-25.81,5.44-11,1.53-13.38.15Z"/><path class="cls-8" d="M774.55,919.76c-3.22,1.74-13.83,5.36-23.1,7-24.9,4.56-32.83,9.15-40.93,13.14a105.8,105.8,0,0,1-14.3,6.12c-28.45,9.74-47,1.75-47.62,1.41a3.06,3.06,0,0,0-.59,1.57,22.78,22.78,0,0,0,6.59,3.05c8.74,2.43,21.09,4.84,43.19-2.24,6.27-2,10.05-3.1,14.09-5.09,6.08-3,12.32-6,26.2-9.36l.55,4.32s26.62-3.28,37.85-10.46C776.43,922.51,774.55,919.76,774.55,919.76Z"/><path class="cls-8" d="M776.22,925.37c-15.32,6.74-32.58,9.65-38.07,10.56l.48,3.8s26.62-3.28,37.85-10.46A32.57,32.57,0,0,0,776.22,925.37Z"/><path class="cls-3" d="M635.48,620.86c2-12.16,13.52-19.17,25.27-22.36l3-.81a7,7,0,0,1,1.26.76,71.43,71.43,0,0,0-19.11,8.36c-16,10.26-9,33.16-3.85,51.9,7.71,27.85,18,55.21,27.58,82.51q14.64,41.6,31.16,82.57,10.06,25,20.82,49.72a15.44,15.44,0,0,1,1.69,6c0,7.81-20.14,22.49-23.83,26.28,12.74-13.06,22.65-20.76,22.6-25.65a16.79,16.79,0,0,0-1.67-6.13c-.29-3.58-3.44-8.29-4.83-11.66L710.09,849q-5.52-13.34-11.05-26.65c-20.12-48.56-36.56-98.5-53.92-148.2-.75-2.15-1.88-7.12-2.54-9.29C636.5,644.8,633.56,632.73,635.48,620.86Z"/><path class="cls-5" d="M914,336.63s17.49,15.34,20,21.2a14.38,14.38,0,0,1,.11,11l6.55,12.34L906.4,289.32l26.52,7.27a48.09,48.09,0,0,1,26.41,18.07c6.45,8.94,7.47,16.74,7.47,16.74s16.74,73.86,16.09,90.06-1.34,53-32.69,55c-18.05,1.12-25.11-16.6-40.61-40.56-16.2-25-31.93-67.75-31.93-67.75Z"/><path class="cls-5" d="M794.88,440.05c.46.95,6.89,16.4,3.1,41.2-2.72,17.84-11.58,34.43-15.53,54.39,4.4-1,15.64-2.27,29.5-3.1,8.43-.51,29.63-.71,37.84,1.37,16,4,24.89,2.8,40.2,8.08,41.29,14.24,45.24,15.71,79.24,6.62-1-39.68-14.14-35.72-16.8-58.13-6.87-57.87,8.37-170.28-12-186.69-20.88-16.81-47.66-12.81-51-14.35-1.51,4.61-1.9-1.1-5.3,2.29a40.44,40.44,0,0,1-8.51,6.12,1.68,1.68,0,0,1-.65,2.65,65.1,65.1,0,0,1-13.3,3.47,96.24,96.24,0,0,1-11.74,1,69.63,69.63,0,0,1-11.73-.41c-6.3-.87-12.26-3.09-18.27-5.09-3.14,3-7.25,6.66-7.9,8.06-6.17,13.35-8.61,22.7-13.77,36.49-5.59,15-16.51,31.05-19.93,46.76C774.57,408,773.18,422.6,794.88,440.05Z"/><path class="cls-12" d="M810.22,148.22a33.06,33.06,0,0,0-9.26,5.85,31.12,31.12,0,0,0-2.44,2.43,38.18,38.18,0,0,0-10.49,36c1.51,6.11,4.51,12.93.92,18.28s-12,6.31-15.37,11.71c-3.94,6.34,1.51,14.21.92,21.52-.83,7.08-7.08,12.56-14.75,12.94a64.73,64.73,0,0,0,31.92,7.86l6.75-11.13a9.88,9.88,0,0,0,2.69,12.48,25.39,25.39,0,0,0,13.65,5.15c11.2.71,35.41-6.14,65.52-19.46L820.21,145"/><path class="cls-12" d="M750,245a6.9,6.9,0,0,0,.77,4.58,6.42,6.42,0,0,0,4.34,3.2,6.69,6.69,0,0,0,6.36-2.77,5.86,5.86,0,0,0,1-4,12.27,12.27,0,0,0-1.4-4.39c-1.42-2.86-3.87-5.83-4.17-9.81a14.29,14.29,0,0,1,3.94-11.07A17.13,17.13,0,0,1,766,217a25.56,25.56,0,0,1,6.32-1.87,36.23,36.23,0,0,0,6.15-1.56,8.45,8.45,0,0,0,4.41-3.68,9.89,9.89,0,0,0,1-5.51,19.51,19.51,0,0,0-1.3-5.42,41.31,41.31,0,0,1-3.22-10.16,15.81,15.81,0,0,1,1.91-9.15,20.59,20.59,0,0,1,5.15-5.74,39.77,39.77,0,0,0,4.22-3.88,11.86,11.86,0,0,0,2.33-4.19v.32a4.28,4.28,0,0,1-.23.92,9.2,9.2,0,0,1-1.82,3.2,36.27,36.27,0,0,1-4.15,4.07,20.35,20.35,0,0,0-4.87,5.67,15,15,0,0,0-1.7,8.67,41.21,41.21,0,0,0,3.26,9.9,20.09,20.09,0,0,1,1.4,5.65,10.85,10.85,0,0,1-1.05,6.06,9.27,9.27,0,0,1-4.94,4.19,36.4,36.4,0,0,1-6.34,1.62,25,25,0,0,0-6.06,1.79,15.72,15.72,0,0,0-4.88,3.5,13.4,13.4,0,0,0-3.73,10.29c.24,3.63,2.52,6.49,4,9.51a12.67,12.67,0,0,1,1.42,4.71,6.52,6.52,0,0,1-1.19,4.42,7.33,7.33,0,0,1-7,2.93,6.89,6.89,0,0,1-5.34-7.16A4.12,4.12,0,0,1,750,245Z"/><path class="cls-5" d="M830.57,287.48l19.56-5.59c-7.34,26.18-24.13,61.85-33.34,87.42-4.34,12-9.08,23.94-14.3,35.6l.18-5.69c-12.9,14.89-42.7,51-64.7,50.8-.64,0-11.82-3.95-12.41-4.15,4.13-3.76,20.87-8.34,23.6-13.26,6.12-11-6.07-19.41-4.92-32,1-10.44,7.1-21.81,2.13-31.49"/><path class="cls-13" d="M439.42,417.73c-6.28-21.87-9.2-44.69-9.85-67.4a407.57,407.57,0,0,1,.84-44.21c1.16-14.47,3.21-29.22,7.82-43.07l-19.93-9-1-11.16-53.19-10.34-31.5,12.77s-58.19,11.68-67,18.31c-10.74,8.09,6.15,158.24,6.15,158.24s-28,88.28-33.87,106.55-1.3,44.83-1.3,44.83l45.52-37.54c12.85-13.85,33.45-18,52.11-16.35l135.57,9.94-1.73-51.14A203.17,203.17,0,0,1,439.42,417.73Z"/><path class="cls-4" d="M467.12,474c.42.53-.2-16.06.18-15.52,6.06-11.95,15.44-5.86,24.58-15.36,8.17-8.49,18.84-17.54,30.73-20.81-3.07-11.78-7.93-31.39-11.5-50.61-5.74-18.7-9.41-40-16-58.37-2.91-8-6.25-16.89-11.15-24.42a92.51,92.51,0,0,0-14.55-11.79l-28.28-12.73C436,280.05,434,296.68,433,313.11a407.66,407.66,0,0,0-.16,42.53c1.12,23.42,4.63,46.8,12,69.12,5.54,16.84,9.32,36.86,19.09,51.61Z"/><path class="cls-4" d="M540,411.74a100.14,100.14,0,0,0-17.78,5.79c-5.58,9.88,2.09,14.87,2.51,25.69.54,13.71,2.86,28.27,8.12,41.13,8.31,3.12,12.53,2.73,22.44-.69l97.07-36.32S639.88,400.83,640.64,399,540,411.74,540,411.74Z"/><path class="cls-2" d="M577.15,880.39l52.53,25.93c3.87,3.11-48.48,30.87-100.48-13L535,879.81Z"/><path class="cls-14" d="M667.79,927.05s2.75-6.66-2.76-8.7-35-15.65-38-15.12c.06,2-2.66,4.68-9,6.49s-13.37,4.12-29.62,1.16c-12.18-2.22-37.22-6.26-48.23-12.35-3.68-2-9-8.9-9.24-9.91-12.84,13.93-9,28.72-3.12,32.37s40.43,6.07,40.43,6.07L598.91,934l28.89,1.29L640,935l14.56-2Z"/><path class="cls-8" d="M526.36,919.57c3.76,1.24,15.84,3.17,26.17,3.37,27.76.54,37.08,3.91,46.48,6.62a120.25,120.25,0,0,0,16.47,3.88c32.4,5.23,51.34-6,52-6.41a3.07,3.07,0,0,1,.87,1.5,25.66,25.66,0,0,1-6.7,4.2c-9.14,3.9-22.21,8.38-47.31,4.82-7.11-1-11.39-1.49-16.08-2.85-7.06-2-14.3-4.14-29.9-5.21l.06,4.48s-29.45,1-42.73-4.41C524.73,922.67,526.36,919.57,526.36,919.57Z"/><path class="cls-8" d="M525.39,925.54c17.67,4.34,36.87,4.46,43,4.49l0,3.94s-29.45,1-42.73-4.41A29.66,29.66,0,0,1,525.39,925.54Z"/><g id="freepik--character-1--inject-1332"><path class="cls-2" d="M476.33,836.38s4.39,58.62,4.12,62l29.6,7.91,12.62-7.16,12.77-62.86Z"/></g><g id="freepik--character-1--inject-1332-2" data-name="freepik--character-1--inject-1332"><path class="cls-2" d="M529.6,824.14s4.39,58.62,4.12,62.05l29.6,7.91,12.62-7.16,12.77-62.86Z"/></g><path class="cls-2" d="M522.77,897.44l52.53,25.93c3.88,3.1-48.48,30.86-100.48-13l5.84-13.5Z"/><path class="cls-14" d="M613.42,945.1s2.75-6.67-2.77-8.71-35-15.64-37.95-15.11c0,2-2.66,4.67-9,6.49s-13.38,4.11-29.63,1.15c-12.17-2.22-37.22-6.25-48.23-12.35-3.67-2-9-8.89-9.23-9.9-12.84,13.93-9,28.72-3.13,32.36s40.44,6.07,40.44,6.07l30.62,6.95,28.88,1.29,12.16-.26L600.15,951Z"/><path class="cls-8" d="M472,937.62c3.77,1.23,15.84,3.17,26.18,3.36,27.76.54,37.07,3.91,46.48,6.63a121.38,121.38,0,0,0,16.47,3.88c32.4,5.22,51.33-6,52-6.41a3,3,0,0,1,.87,1.5,25.62,25.62,0,0,1-6.71,4.19c-9.14,3.91-22.21,8.39-47.3,4.83-7.12-1-11.39-1.5-16.09-2.86-7-2-14.3-4.13-29.9-5.21L514,952s-29.45,1-42.73-4.41C470.35,940.72,472,937.62,472,937.62Z"/><path class="cls-8" d="M471,943.59c17.67,4.34,36.88,4.46,43,4.48l0,3.94s-29.45,1-42.73-4.41A31.11,31.11,0,0,1,471,943.59Z"/><path class="cls-15" d="M580.6,740.81l2-3c-.55-.42-1.14-.83-1.8-1.24A19.72,19.72,0,0,1,580.6,740.81Z"/><path class="cls-9" d="M322,666.06q54.15,0,108.31,0c15.53,0,18.41,7.35,18.39,22.42,0,13.84-3.11,22-18.82,22-3.54,0-7.16.4-10.61-.07-10.39-1.4-12.48,2.44-11.12,10.48,13.3,78.41,26.27,151.46,39.54,229.87.9,5.34.08,7.46-7.1,7.55-17.93.22-18.3.57-20.78-14.11q-12.71-75-24.76-150.15c-1.08-6.8-3.84-8.86-11.92-8.79q-61.59.51-123.18,0c-7.88-.06-10.17,2.34-11.16,8.5-8.42,52.74-17.23,105.45-25.72,158.18-.79,4.92-3.19,6.38-8.9,6.47-18.47.28-19,.41-16.6-14.38,8.6-53.62,17.55-107.2,26.43-160.79,3.77-22.79,7.54-40.18,11.65-62.93,1.27-7-.22-11-9.86-9.66-2.07.29-4.25-.09-6.36.06-27.7,2-25.44-17.82-23.83-36.12.62-7.1,8-8.77,16-8.73,36.81.18,73.62,4.58,110.44,4.58Zm-.87,101.23c20.5,0,41-.16,61.51.1,6.28.07,9.08-1.08,8-7-3.3-18.3-6.3-23.91-9.16-42.26-.86-5.57-3.16-7.92-10.59-7.82-32.52.41-65.06.47-97.57,0-8.06-.13-10.29,2.45-11.2,8.34-2.73,17.77-5.64,22.79-8.86,40.49-1.12,6.13.51,8.5,8.47,8.32C281.52,767,301.33,767.29,321.13,767.29Z"/><path class="cls-10" d="M224.08,783.3Q222,795.71,220,808.11c8.6,1.69,17.15,3.68,25.68,5.75,1.08-6.68,2.17-13.36,3.23-20,1-6.15,3.28-8.56,11.16-8.49q61.58.51,123.18,0c8.08-.06,10.84,2,11.92,8.8q1.55,9.72,3.13,19.44a234,234,0,0,0,24.11-10.25c-4.69-27.1-9.39-54.38-14.14-82.35a15.66,15.66,0,0,1,0-6.52q-8.43.57-16.86.88-5.18.2-10.35.31a15.83,15.83,0,0,1,.59,2.56c2.86,18.36,5.86,24,9.16,42.26,1.07,5.93-1.73,7.08-8,7-20.5-.25-41-.09-61.51-.09-19.8,0-39.61-.3-59.39.14-8,.18-9.59-2.19-8.47-8.32,3.22-17.71,6.13-22.72,8.86-40.49a11.42,11.42,0,0,1,2-5.51c-9.75-.3-19.5-.54-29.25-.65,1.32,1.71,1.37,4.41.75,7.84C231.62,743.12,227.85,760.51,224.08,783.3Z"/><path class="cls-10" d="M195.27,678.31s117.59,18.12,168.3,11.57,84.87-8.63,82.82-16.48-37.95-24.69-74.08-25.88-135.19,7.9-135.19,7.9-33.25,5.59-36.74,10.43S195.27,678.31,195.27,678.31Z"/><path class="cls-16" d="M473.29,295.36a110.36,110.36,0,0,0-6.45,27.88A109.93,109.93,0,0,0,473.29,295.36Z"/><path class="cls-13" d="M337,239.69a210.42,210.42,0,0,0-30,15.45c-17.41,10.74-41.05,24.51-47.52,59.89s7.34,95.63-10.36,137.82a402,402,0,0,0-24,80.81L400.62,320.21Z"/><path class="cls-17" d="M220.48,579.46s-14.35,79.11,23.12,90.75,188.7,10.58,188.7,10.58-6,10.68.09,57.92c5.57,43.45,32,150.43,32,150.43s114.5-1.22,127.27-26.37c11.18-89.58,22.64-188,17.82-278.57-1.85-34.8-9.14-45-37.3-50.54-22.83-4.5-64,1.86-88,.06-23.48-1.75-65.37,4.59-65.37,4.59S299.5,611.42,220.48,579.46Z"/><path class="cls-18" d="M353,82.92c5.23-5.7,12.67-9,19.74-6.09,1.51-14.34,16.45-21,30.81-19.58,7.33,1.07,14.46,5.34,21.7,3.8,4.52-1,8.22-3.93,12.28-6.29,16.95-9.49,39.56,6.94,50.9,22.74s6.06,31.14-3,48.34c-4.19,8-4.27,12.63-6.37,21.48-2,8.35-9.11,23.43-10.28,31.82s10.84,18.87,2.26,18.45l-91-22.69c-14.08.95-22.31-4.32-27.79-17.32-3.52-8.81-1.95-9-1.35-18.43.47-12.39-10.79-23.19-8.49-35.37C343.7,96.1,348.12,89,353,82.92Z"/><path class="cls-19" d="M341.61,80.94s34-11.75,74.58-1.91,57.5,37.66,62.38,56.68-5.23,37.08-5.23,37.08,9.94,4.11,21.53-32.09c16.9-52.76-34.15-92.42-47.5-93.94S367.66,22.74,341.61,80.94Z"/><path class="cls-2" d="M365,179.94s-5.7,32.37-17.38,54c-1.63,3-23.41,12.49-23.41,12.49l28.43,13.83c16.21,6,53.65,10.15,70.54,6.47l14.6-6.78s-16.54-6-16.85-10,6.57-33.28,6.57-33.28"/><g id="freepik--character-2--inject-1332"><path class="cls-20" d="M382.53,309a47.48,47.48,0,0,1-2.62-5.82,21.15,21.15,0,0,1-1-6.75,20.53,20.53,0,0,1,1.82-8.09,21.34,21.34,0,0,1,3.38-5.17l.21-.22-.13-.35c-1.33-4.1-2.31-8-3.15-10.58a16.32,16.32,0,0,0-1.52-4.12,2.44,2.44,0,0,0,.18,1.15l.77,3.06c.67,2.7,1.44,6.37,2.83,10.87l.11-.56A21.07,21.07,0,0,0,378,296.48a20.79,20.79,0,0,0,1.29,7,18.31,18.31,0,0,0,2.09,4.23A5.74,5.74,0,0,0,382.53,309Z"/><path class="cls-20" d="M345.88,295.82a34.33,34.33,0,0,0-3.18-3.74A17.77,17.77,0,0,1,337.78,282c-.12-2.2.3-4.39.13-6.5a6.88,6.88,0,0,0-2.22-5,4.26,4.26,0,0,0-3.58-.93c-.89.23-1.21.66-1.18.7a5.43,5.43,0,0,1,1.25-.31,4.18,4.18,0,0,1,3.05,1.09,6.55,6.55,0,0,1,1.71,4.53c.12,1.92-.34,4.11-.22,6.49a13.88,13.88,0,0,0,2.1,6.24,25.38,25.38,0,0,0,3.37,4.22A19.2,19.2,0,0,0,345.88,295.82Z"/><path class="cls-20" d="M358.2,288.41a51.44,51.44,0,0,0-4.71-4.51,30.68,30.68,0,0,1-8.7-12.6A17.57,17.57,0,0,1,344,267a29.34,29.34,0,0,1,.22-4.09,8.85,8.85,0,0,0-1.54-7,3.92,3.92,0,0,0-2.65-1.34,3.8,3.8,0,0,0-2.12.41c-1.09.63-1.19,1.42-1.15,1.4a2.74,2.74,0,0,1,1.31-1,3.49,3.49,0,0,1,4,1,8.33,8.33,0,0,1,1.15,6.43,30,30,0,0,0-.27,4.23,17.26,17.26,0,0,0,.8,4.56,29.06,29.06,0,0,0,9.15,12.81c1.55,1.32,2.83,2.33,3.75,3A5.37,5.37,0,0,0,358.2,288.41Z"/><path class="cls-20" d="M343,245.73a13,13,0,0,1,3,4.79,27.91,27.91,0,0,1,1.21,6.07,33,33,0,0,0,1.56,7.8,28.27,28.27,0,0,0,8.05,11.86,24,24,0,0,0,3.55,2.56,5,5,0,0,0,1.47.67c0-.17-1.9-1.28-4.5-3.8A30,30,0,0,1,349.78,264a35.49,35.49,0,0,1-1.45-7.51,26.14,26.14,0,0,0-1.46-6.35A7.5,7.5,0,0,0,343,245.73Z"/></g><g id="freepik--character-1--inject-1332-3" data-name="freepik--character-1--inject-1332"><path class="cls-2" d="M424.5,253.77l-82.27-11.53-12.65,29.35s18.93,22.41,21,23.61,51.79,18.33,51.79,18.33,60.1-14.87,59.29-14.79S424.5,253.77,424.5,253.77Z"/><path class="cls-4" d="M233.93,581.63a64.86,64.86,0,0,0,16.57,5.12A133.26,133.26,0,0,0,269.18,589a113.57,113.57,0,0,0,32.51-2.81,279.21,279.21,0,0,0,29.49-9.14c19.45-7,37.8-7.19,57.3-14.11s24.77-17.89,45.43-19.16c14.66-.89,33.94-12.19,50.22-10.1,4.44-14.84-9.16-32.18-9.16-32.18l-7.85-44.06,16.54-18.21c11.41-18.75,14.86-68.05,10.65-76.27l-35.19-90.91-34.43-19.28c1.36,3,10.34,25.27-19.49,30.35,0,0-7.18-.55-7.2-.54-37.44-5-61-42.91-61-42.91l-12.71,5.55L260.69,433.15s-46.26,82.56-51,118c-.73,5.47-3.45,7.35,1,16.16C215.92,572.08,225.78,577.61,233.93,581.63Z"/></g><line class="cls-21" x1="292.01" y1="416.37" x2="293.35" y2="415.77"/><path class="cls-4" d="M424.69,252.79s52.68,18.33,58.24,36.19c8.43,27.12,12.14,83.87,12.14,83.87l-25.23-1.64Z"/><path class="cls-22" d="M490.65,424.16c1-6.5.3-13.27-.1-19.79-.45-7.24-1.23-14.44-2.29-21.61-2.2-14.87-5.52-29.54-9.19-44.1-1.76-7-3.6-14-5.45-21,2.59,13,4.53,26.19,7.45,39.15,3,13.29,5.77,26.2,6.94,39.78,1.37,16,3.05,23.31-2.6,35.46s-18.29,25.36-18.29,25.36l1.09,1.28S488.73,436.85,490.65,424.16Z"/><path class="cls-3" d="M422,241.77s-6.72-2.06-11.28-4-12.71-2.78-32-24.68c0,0,3.27,24.16,30.48,32.91,0,0,7,2.48,11.89,2Z"/><path class="cls-2" d="M466,103.65l.27.28a4,4,0,0,1-.21-.54Zm11.27,5c.14.2.29.4.46.6l.05-.21S477.3,108.38,477.24,108.64ZM376.54,210.2c8.57,13.71,23.16,29.42,40.75,32.55,6.3,1.12,13-.82,18.24-3.92,7.89-4.71,16.16-9.46,22.6-15.63,6.17-5.91,9.16-9.78,13-17.39,3.95-7.88,4.41-10.09,5.33-18.62a84.27,84.27,0,0,1,2.41-13c1.22-4.06,6.64-19.93,9.08-29.4s-1.17-29.17-1.17-29.17c0-2.7-3.83-2.13-4.77-4.51l-1.12-.26a1.15,1.15,0,0,1,.33,1.16,8.94,8.94,0,0,1-3.51-2.74v.05c-1.86.39-3.37-.77-4.49-2.38-.05.26.11.84.39.9a5.78,5.78,0,0,1-4.14-2.56c-.06.26.1.84.05,1.09a10.48,10.48,0,0,1-3.26-2.41c.18.4,6.74.85,6.7,1-1.74-.13.06.87-1.05-.74L470.71,103c-1.46-.06-1.6.8-2.49-.49.22.32-.13-3-.19-2.76-1.68-.38-1.2-.39-2.43-1.48-.06.26-5,.64-5,.89-1.4-.32-1.32,1.06-2.21-.23.22.32,1.26-.85,1.48-.53-1.74-.12-2.62.82-3.73-.79.22.32-4.92-4.09-4.92-4.09-1.74-.12-1.58.47-2.75-.88.45.65-7.66-2.24-7.5-1.66-1.4-.32,1.51,5.75.57,4.73-.06.25-3.06-1.51-3.06-1.51-1.46-.06.35,1.71-.54.42-.05.26,0,1.09.33,1.16-1.86.39-3.71-.57-5.16-2,.45.65.61,1.23.83,1.55-1.4-.32-2.58-.32-3.75-1.67-.06.26.32,1.16.61,1.23a5.74,5.74,0,0,1-4.38-1.54c-.06.26.39.9.61,1.22a4,4,0,0,1-3.25-1.28l.6,1.22c-1.12-.25-2.08.07-3.65-.82-.06.25.45.64.39.9a10.55,10.55,0,0,1-2.75-.9c-.06.26.67,1,.38.9-1.12-.25-2.08.07-3.36-.76.22.32.38.9.6,1.22a7.65,7.65,0,0,1-3.31-1,2,2,0,0,0,.33,1.16c-1.12-.26-2.08.07-3.37-.77-.06.26.39.9.61,1.22a14.84,14.84,0,0,1-3.37-.76c-.06.26.44.64.67,1a9.3,9.3,0,0,1-3.6-1.08c-.11.51.11.84.05,1.09-.84-.19-1.35-.57-2.19-.76l-1.52.19C395.16,99.5,381.35,92,381.35,92c-10.28,5-6.7,43.24-7.53,48.2s-3.92,5.69-3.92,5.69c-1-2.12-3.92,2.83-4.29.57-.43-2,.65-4.18.22-6.18-1.59-4.7-7.5-4.68-11.17-2.81l-.71.73c-5.62,4.86-5,24-3.05,30.13-1.53,11.17,6.82,19.1,14,12.4l.56,4.62"/><path class="cls-23" d="M439.13,195.06a8.22,8.22,0,0,1-7.21-2.12c-.4-.39-2-.46-1.45.09a11.62,11.62,0,0,0,9.86,2.72c.29-.08.29-.29,0-.48a1.89,1.89,0,0,0-1.19-.21"/><path class="cls-23" d="M429.71,192.23a13.44,13.44,0,0,0-4.26-2.14,1.05,1.05,0,0,0-.74.06c-.15.09-.22.24-.07.38a5.09,5.09,0,0,0,2.35,1.12,1,1,0,0,0,.83-.12c.19-.18,0-.37-.25-.42a4,4,0,0,1-1.89-.91l-.81.43a11.76,11.76,0,0,1,3.8,1.93,1,1,0,0,0,.84.1c.19-.06.42-.25.2-.43"/><path class="cls-23" d="M423.48,191c-1.81-.45-3.77-1.73-4.36-3.3-.88-2.36,1.12-5.34,3.69-6.14.28-.08.19-.3-.05-.41a1.55,1.55,0,0,0-1,0,6.47,6.47,0,0,0-4.27,5.08c-.13,1.87,1.33,3.53,3.39,4.55a10.15,10.15,0,0,0,1.95.73,1.3,1.3,0,0,0,1-.08c.18-.19-.05-.34-.31-.41"/><path class="cls-23" d="M442.67,194.9a.24.24,0,0,1,.31-.29,2.24,2.24,0,0,0,1.52-.14l.35.7a6.6,6.6,0,0,0-3.09.36.52.52,0,0,1-.56-.22c-.09-.13-.17-.38,0-.46"/><path class="cls-23" d="M441.23,194.85a7.35,7.35,0,0,1,3.45-.4.61.61,0,0,1,.44.33.26.26,0,0,1-.09.37"/><path class="cls-23" d="M446.4,196a3.8,3.8,0,0,0,3.66-1.48,5.44,5.44,0,0,0-.1-6.14c-.13-.18,0-.34.18-.36a.72.72,0,0,1,.58.34,6.1,6.1,0,0,1,.81,5.38,4.27,4.27,0,0,1-3.54,3,4.56,4.56,0,0,1-1.38,0c-.18,0-.49-.19-.52-.42s.14-.3.31-.27"/><path class="cls-24" d="M466.41,163.51a4.51,4.51,0,0,1,4.42,1.8,4.57,4.57,0,0,1,.57,2.11,4.21,4.21,0,0,1-1.8,3.48,3.86,3.86,0,0,1-4.5-.23,4.25,4.25,0,0,1-1-5.31,3.75,3.75,0,0,1,2.26-1.85"/><path class="cls-24" d="M451.31,165.56s8.94-4.26,12.91-3.76c5.79.72,12,5.44,13.42,8.71,0,0-8.17-6.79-12.26-7.18C461.46,163,451.31,165.56,451.31,165.56Z"/><path class="cls-24" d="M419,153.38a5.42,5.42,0,0,0-5.16-.84,4.1,4.1,0,0,0-1.6,1.58,4.16,4.16,0,0,0,.12,3.91,3.87,3.87,0,0,0,4.16,1.74,4.27,4.27,0,0,0,3.15-4.38c0-.33.43-.85-.68-1.79"/><path class="cls-24" d="M427.93,159.78s-7.34-7.39-11.53-8.47c-6.11-1.58-14.27.36-16.93,2.85,0,0,10.89-3.11,15.16-1.89C418.72,153.45,427.93,159.78,427.93,159.78Z"/><path class="cls-25" d="M459.33,142.58l-1.53,3.19-1.16,2.43c3,.63,5.57,1.3,7.46,1.86,4,1.17,6,1.79,8,3.19a22.41,22.41,0,0,1,4.17,3.93,14.6,14.6,0,0,1,1.92,2.62c1.18,2.19,1.21,4,1.57,4s.51-1.5.53-1.66a13.7,13.7,0,0,0-1.27-7.25,16,16,0,0,0-3.88-4.71c-1.86-1.57-7.56-4.81-15.82-7.65"/><path class="cls-25" d="M435.51,138.57l-.66,3.47-.51,2.65c-3.08-1.34-5.75-2.34-7.77-3-4.26-1.49-6.45-2.23-9.08-2.31a26.49,26.49,0,0,0-6.15.62,16,16,0,0,0-3.35.93c-2.43,1-3.61,2.5-3.94,2.29s.49-1.52.57-1.65a14,14,0,0,1,5.7-5,18.38,18.38,0,0,1,6.39-1.41c2.63-.12,9.7.74,18.8,3.48"/><path class="cls-26" d="M364.27,161c-3.9-15.82-8.35-16.65-8.35-16.65s-3.56,3-3.18,10.06"/><path class="cls-26" d="M361.75,162c-3.94-1-2.08,6.94-3.47,8.52s-2.1-3.34-1.68-9.06c0,0,1.23-7.63,5.24-8.41"/><path class="cls-3" d="M427,123.58s9,6.45,19,7.78S468.43,133,468.43,133"/><path class="cls-25" d="M482.66,103.09h0c-2-3.84-3-7.77-5.13-11.52s-4.16-7-6.45-10.57c-.13-.21-3.38-.77-3.51-1l-.15-.22-.22-.33c-.17-.26-.35-.51-.52-.76-14.46-9-33-12.65-50.54-9.93a62.56,62.56,0,0,0-52.26,71.38c.45,2.92-1.71,6.07.8,8.05s2.95,1.24,5.81-.19a20.7,20.7,0,0,0,6.89-6.5c9.06-12.47,13.91-33.72,12.87-49.1,1.4,3.08,14.41,2,16.95,4.23a24.23,24.23,0,0,0,34.2-2,36.74,36.74,0,0,0,3.12,5.22c10.84,15.13,26.54,24,41.82,16.63C486.9,116.19,483.88,105.52,482.66,103.09Z"/><path class="cls-27" d="M396.59,146.52l.63,5.61c.14,4.28,1.49,13,2.42,15.48,1.31,3.49,22.66,9.27,27.43,7.7s9.77-13.42,11.51-16l8.54,2.32c0,3.87.18,16.17,1.48,18.1s11.28,3.76,12.4,4c.94.16,2.25.39,3.68.57,3.81.53,8.49.87,10.18-.22,2.52-1.62,6.47-9,10-16l.56-1.1c.13-.27.26-.44.28-.52h0l.64-1.27c-11.18-8.58-27.71-11.08-39.18-5.9l.05.15-8.32-2.31c-8.17-8.35-23.9-15.3-36.64-13.24h0l-37.85-1.69-.81,3.21Zm53.29,32.19c-.82-1.21-1.21-9.88-1.3-16.58,9.94-4.32,24.83-2,35,5l0,.16c-1.9,3.76-6.95,13.76-9.42,15.35-2.93,1.87-22.74-2-24.21-3.89Zm-47.49-11.43a113.24,113.24,0,0,1-3.17-20.13c11.49-2.53,29.17,4,37.19,12-2.59,4.85-6.4,13.48-9.82,14.59-4.92,1.62-23.39-4.26-24.2-6.46Z"/><path class="cls-28" d="M450.12,178.58c-.81-1.2-1.2-9.87-1.29-16.57,9.93-4.32,24.83-2,35,5l-.05.16c-1.9,3.76-6.95,13.76-9.42,15.34-2.93,1.87-22.74-2-24.21-3.88Z"/><path class="cls-28" d="M402.39,167.28a113.24,113.24,0,0,1-3.17-20.13c11.49-2.53,29.17,4,37.19,12-2.59,4.85-6.4,13.48-9.82,14.59-4.92,1.62-23.39-4.26-24.2-6.46Z"/><path class="cls-29" d="M346.82,144.08s-27.93-26.83-12.74-49.37C337,90.38,337,91.94,337.73,88c3.62-20.94-4.44-17,29.79-37.28s38.7-19.27,85.24-9.24c24,5.17,35.88,17.15,40.38,33.44,2,7.32,2.55,15.52,2,24.35,0,0-47.61-21-79.33-9.19s-69.9,59.35-65.91,76.84C351.05,171.78,346.82,144.08,346.82,144.08Z"/><path class="cls-19" d="M330.87,118.41S381.43,63,437.76,68.87c0,0-68.23-17-105.74,28.2l-1.27,5.75a32.25,32.25,0,0,0-.48,10.91Z"/><path class="cls-4" d="M331.15,239.25s-57.75,5.45-78.45,32.24-39.94,137.16-41.29,155.17c-3.82,50.83,109.46,132.85,109.46,132.85l28.72-43.23-72.48-101.2,14.15-72.22Z"/><path class="cls-22" d="M315.26,307.88c-.12,12.47-25.95,100.6-29.83,113.73L288,421c3.17-11.28,23.87-84.9,28.75-106.62,4.62-20.57-10-39.57-10-39.57C317.47,297.53,315.26,307.88,315.26,307.88Z"/><polygon class="cls-22" points="287.97 421.03 285.43 421.61 349.18 516.59 350.38 515.67 287.97 421.03"/><path class="cls-22" d="M236.74,481.74s44.76,61,79.05,77.3l11.82-12,1.55.11L320.24,556l-4.47,5.21s-22.71-13.54-33.87-24.62-46-52.77-46-52.77l.84-2.07"/><polyline class="cls-2" points="346.33 519.3 370.42 536.39 360.23 567.49 322.01 552.72"/><path class="cls-2" d="M358.66,532l30.21-7.65s34.15,6.42,38.27,10.86,8.95,10.88.51,15.15c0,0,3.74,9.81-1.19,12.24s-10.59-1-10.59-1,6.55,8,.92,11.69-8.08.76-8.08.76-.5,4.65-3.47,4.39a79.42,79.42,0,0,1-12.34-3.84s-16.64,1.76-25.62-.9a43,43,0,0,1-16.35-10.42Z"/><path class="cls-3" d="M409.65,545.07A22.51,22.51,0,0,1,427,549.92"/><polygon class="cls-21" points="350.38 515.82 347.47 520.11 346.33 519.3 349.5 514.67 350.38 515.82"/><path class="cls-22" d="M287.56,423.18s-13.29,4.89-21,10.28c0,0,13.27-12,20.77-12.43Z"/><path class="cls-3" d="M444.3,136.82s4.28,9.19-4.41,12.35l1.38-2.93a33.46,33.46,0,0,0,2.14-6Z"/><path class="cls-3" d="M453.1,140.06s-7.79,6.5-1.27,13.05Z"/><path class="cls-30" d="M431.88,204.18c-7.23-1.84-24.39-1.16-28.37,1,0,0,6.71,8.22,23.48,12.48s21.1-1.16,21.1-1.16S441.09,206.52,431.88,204.18Z"/><path class="cls-31" d="M411.17,203.61s8.8,1.44,15.66,3.18,15.28,4.67,15.28,4.67,2.5-5.21-9.95-8.37S411.17,203.61,411.17,203.61Z"/><path class="cls-32" d="M427.61,215.26c-7.55-3.19-14.79-8.34-24.1-10,0,0-.28,11.9,19.43,16.91s25.15-5.59,25.15-5.59C439.09,213.59,435.77,216.06,427.61,215.26Z"/><path class="cls-32" d="M441.52,202.17c-4.06-1.38-7.11-.37-8.91-.83s-4-2.8-8.23-3.52c-4-.68-22.95,5.31-21.45,7.1s16.12-2.45,28.59.71,15,11.76,17.21,10.91S445.32,203.46,441.52,202.17Z"/><polygon class="cls-22" points="467.12 457.46 472.08 485.28 469.86 455.87 467.12 457.46"/><path class="cls-22" d="M521.23,417s-12.81,8.76-15.55,33c0,0-3.44-21.6,14.63-36.78Z"/><path class="cls-33" d="M555.14,547.15s24.63,2.12,28.88,17-3.82,35.26-3.82,35.26,6.3-32.34-3.83-41.12A52.53,52.53,0,0,0,555.14,547.15Z"/><path class="cls-2" d="M834.89,284c.66-2.06.08-24,.08-24L868,265l22.65-.93s3.05,15.92,3.71,18,23.31,10.84,23.31,10.84-15,14.87-58,14.87-47.07-13.82-47.07-13.82S834.23,286,834.89,284Z"/><path class="cls-12" d="M955,228.56c-3.41-1.73-6.87-4-8.66-7.46a18.12,18.12,0,0,1-1.72-7.9,5.19,5.19,0,0,1-.75-1.1c-3-6.1,1.08-14.4-3.19-19.76-3.89-4.87-12.94-3.27-16.65-8.28-2.89-3.91-.88-8.05-2.33-11.66s-7.34-6.08-11.14-5.08l-23.67,47.51c-.6,14.84-2.33,22.87,2.2,30.94,2.76,4.19-3,8.66-1.21,13.34,1.42,4.8,1,10.52-2.64,14,18.33-1.29,43-9.87,57.33-21.17l4-3.22C939.54,246.27,933,235,933,235c3.79,4.22,10.63,10.08,15.64,12a19.45,19.45,0,0,0,2.39-1.34c3.16-1.09,10.8-8.7,15.5-13.59A33.94,33.94,0,0,1,955,228.56Z"/><path class="cls-12" d="M936.55,176.29c-2.22-4.14-5.43-7.82-7.18-12.14-3.78-9.31-.49-20.84-6.9-28.8-4.57-5.67-12.66-7.61-20.17-8.69s-15.53-1.71-21.68-5.88c-4.52-3-7.54-7.68-12.06-10.75-6.41-4.39-14.94-5-22.85-4.32a50.25,50.25,0,0,0-23.07,6.86,24,24,0,0,0-11.82,19c0,3.7,1.06,7.43.39,11.07-.73,4-3.49,7.45-4.91,11.32-2.87,8.47.79,17.67,8.89,22.37l66.07,58.75c12.29,2.47,39.63-6.4,47.35-15.66S942.1,186.75,936.55,176.29Z"/><path class="cls-34" d="M835.67,236.1s1.72,43.51,1.08,47.74l2.73,5.82-5.5,4.81c18.16,14.66,22.62,14.91,44.93,7.61l25.73-13.66s-7.45-6.88-8.94-10.21c-6.15-13.76,4.58-45.79,4.58-45.79"/><path class="cls-34" d="M919.55,199.74l-.47-.8c-2.86-2.47-8.16-3.8-10.65,0-.85,1.66-2.12,3.52-3,5.18-.85,1.89-2.13,5.73-3.5,7.37,0,0-8.82-19.52-8.43-24.07s15.56-14.37,7.48-21c0,0-8.44-8.66-12.46-13.77-.9-.5-1.81-1-2.74-1.43a9.09,9.09,0,0,1-1.44.15c0-.19.17-.39.25-.7l-.33-.15a10.48,10.48,0,0,1-3.1.05c.27-.23.81-.46.82-.7a14.28,14.28,0,0,1-3.2-.08c.28-.23.82-.7.83-.94-1.35.45-2.13-.05-3.2-.08a1.77,1.77,0,0,0,.56-.95,7.09,7.09,0,0,1-3.2.16c.27-.23.55-.7.82-.94-1.34.45-2.12-.05-3.19-.08-.25,0,.44-.4.53-.65l-.1,0a10.5,10.5,0,0,1-2.55.15c0-.21.41-.41.51-.62l-.17,0c-1.46.34-2.23-.11-3.25-.13l.39-.44-.47-.08a4.28,4.28,0,0,1-2.3,0c.09-.08.22-.19.34-.31l-.91-.13a4.94,4.94,0,0,1-2.88-.13.59.59,0,0,0,.34-.2l-1-.12a11.17,11.17,0,0,1-2.24,0,1.88,1.88,0,0,0,.2-.2l-1.37-.1a4.57,4.57,0,0,1-2.49-.15c-1.64-.09-3.28-.13-4.92-.14-12.27-.09-25.79.69-35.23,9.29a115.26,115.26,0,0,0-8,18.8c-3.87,11.56-4.42,30-4.26,33.87.14,3.33-2.11,9.72-2.61,13.16-2.73,18.68,11.64,38.15,26.21,48.94,5.81,4.3,10.95,2.87,16.84,2.24,12-1.28,30.2-7.95,41-18.09l15.41-13.14,1.55-3.93c2.28,7.57,12.82,3,14-7.16C921.89,218.73,923.48,205.27,919.55,199.74Z"/><path class="cls-23" d="M827,227.62a7,7,0,0,0,6.13-.15c.39-.21,1.67.05,1.12.35a9.89,9.89,0,0,1-8.34.07c-.22-.11-.17-.27.11-.35a1.54,1.54,0,0,1,1,.08"/><path class="cls-23" d="M835,227.38a11.33,11.33,0,0,1,3.8-.76.87.87,0,0,1,.57.19c.11.1.13.22,0,.3a4.31,4.31,0,0,1-2.08.37.79.79,0,0,1-.63-.25c-.11-.18.1-.28.28-.27a3.32,3.32,0,0,0,1.68-.31l.55.49a10.25,10.25,0,0,0-3.4.69.82.82,0,0,1-.68-.1c-.14-.08-.28-.27-.07-.35"/><path class="cls-23" d="M840.18,227.71a5.36,5.36,0,0,0,4.13-1.6c1.19-1.6.22-4.39-1.64-5.51-.21-.12-.09-.26.12-.3a1.3,1.3,0,0,1,.81.19,5.21,5.21,0,0,1,2.32,4.83c-.28,1.43-1.78,2.38-3.61,2.73a8,8,0,0,1-1.7.16c-.23,0-.64-.08-.75-.26s.11-.24.32-.24"/><path class="cls-23" d="M824.24,226.79a.19.19,0,0,0-.18-.28,1.87,1.87,0,0,1-1.17-.41l-.42.45a5.59,5.59,0,0,1,2.35.89.44.44,0,0,0,.49-.05c.11-.08.22-.25.07-.35"/><path class="cls-23" d="M825.38,227a6.18,6.18,0,0,0-2.63-1,.52.52,0,0,0-.42.16.2.2,0,0,0,0,.3"/><path class="cls-23" d="M821.07,226.87a3.1,3.1,0,0,1-2.58-1.84,4.07,4.07,0,0,1,1.35-4.59.17.17,0,0,0-.07-.31.61.61,0,0,0-.53.14,4.62,4.62,0,0,0-1.75,3.88,3.36,3.36,0,0,0,2.18,2.94,4.13,4.13,0,0,0,1.09.26.55.55,0,0,0,.5-.22c.08-.17,0-.25-.19-.26"/><path class="cls-35" d="M905.57,216.4a56.82,56.82,0,0,1,5.15-8.44,18.91,18.91,0,0,1,3.72-3.86,5.4,5.4,0,0,1,1.84-.95c-.18,0,.1,0,.1,0s.1.08,0,0c-.45-.28-.16,0-.1.1s.26.46.38.7a12.74,12.74,0,0,1,.26,8.86c-.1.36.81.24.9-.1a13.26,13.26,0,0,0-.1-8.6c-.23-.57-.51-1.59-1.25-1.51a4.9,4.9,0,0,0-2,.8,15.62,15.62,0,0,0-3.63,3.35,51.44,51.44,0,0,0-6.08,9.61c-.21.41.68.35.84.05Z"/><path class="cls-12" d="M802,181.83c6.43-1.51,10.47-1.25,21.1.92V183c0,1.38,0,.61.06,2,0,1,.07,2.1.09,3.15-3.47-.76-6-1.63-8.2-1.93-4.23-.56-9.05-1.7-13.34-1.08C801.85,184,802,182.93,802,181.83Z"/><path class="cls-12" d="M847.88,183.46c0,1.38,0,.61-.06,2l-.09,3.15c3.47-.77,6-1.65,8.2-2,4.43-.6,9.51-1.85,14-1,2.12.4,5.16,1,6.63,2.95.39.52,1.1,2.36,2,2,.35-.14-.15-1.85-.21-2-1-3.46-4-5-7.65-5.92-7.44-1.92-11.23-1.8-22.72.59"/><path class="cls-36" d="M906.81,233.54a5.08,5.08,0,0,1,1.49,6.8,4.52,4.52,0,0,1-3,2h-.39a6,6,0,0,1-1.19-.18,5.21,5.21,0,0,1-3.47-2.77c-.24-.5-1.52-.11-1.3.35a6,6,0,0,0,3.52,3.08,6.5,6.5,0,0,0,2.66.35,5.9,5.9,0,0,0,5.24-6,5.8,5.8,0,0,0-2.51-4.33c-.4-.29-1.59.28-1,.69Z"/><path class="cls-35" d="M905,216.83c.8,0,2.16.07,2.25,1.12a5.38,5.38,0,0,1-.77,2.44c-.72,1.61-1.81,3.82-.41,5.38,1.6,1.78,4-.79,4.84-2.09a10.79,10.79,0,0,0,1.86-6.52c-.11-2.4-.6-5.58-3-6.72-.39-.18-1,.39-.51.63,2.08,1,2.52,3.88,2.64,5.9a10.3,10.3,0,0,1-1.33,5.83c-.67,1.18-3.41,4.61-4.15,1.61-.43-1.73.92-3.56,1.49-5.11a2.57,2.57,0,0,0,.09-2.18c-.53-.84-1.76-.94-2.65-1-.45,0-.9.66-.3.68Z"/><path class="cls-12" d="M811.86,195.25a4.07,4.07,0,0,0-4.34.65,3.59,3.59,0,0,0-.36,5.33,3.76,3.76,0,0,0,4.23.84,4,4,0,0,0,2.14-4.62,3.57,3.57,0,0,0-1.67-2.2"/><path class="cls-12" d="M824.59,201s-7.4-5.95-11.25-6.42c-5.62-.68-10.94,2.21-13,4.86,0,0,7.6-4.33,11.54-3.73C815.66,196.25,824.59,201,824.59,201Z"/><path class="cls-12" d="M855.92,196.66a4.06,4.06,0,0,1,4.3.87,3.73,3.73,0,0,1,1.12,1.81,3.83,3.83,0,0,1-1,3.53,3.77,3.77,0,0,1-4.28.63,4,4,0,0,1-1.89-4.72,3.6,3.6,0,0,1,1.78-2.12"/><path class="cls-12" d="M846.37,201.65s8.22-5.53,12.35-5.82c7.45-.52,14.25,3.78,16.31,6.54,0,0-10.58-5.73-14.82-5.34C856.16,197.4,846.37,201.65,846.37,201.65Z"/><path class="cls-3" d="M834.87,270.31a74.71,74.71,0,0,0,38.85-12.37S865,276,835,274.88Z"/><path class="cls-12" d="M884.41,125.14c-3.89-2-8.61-1.67-13-1.11a243.06,243.06,0,0,0-55.27,13.78c-.22,4.43,4.21,8,8.67,8.73s9-.39,13.51-1,9.49-.56,13,2.24,4.89,8.23,8.51,11.37c6.21,5.43,17,2.49,23.16,7.92,4.65,4.14,4.65,11.17,6.9,17,4.34,11.38,16.48,14,28.08,9.77a24,24,0,0,0,2.74-1.22c-9.56-19.92-18.35-36.71-27.93-56.62C890.76,131.76,888.52,127.32,884.41,125.14Z"/><path class="cls-12" d="M944.61,211.17v-.48a1.3,1.3,0,0,1,.2-.68c1.15-6.09,4.11-13.95,4.11-21.15,0-10.11-17.1-20.06-17.1-20.06v35.09s14.37,18.46,12.8,12.49A13.53,13.53,0,0,1,944.61,211.17Z"/><path class="cls-12" d="M965.78,218.05a6.87,6.87,0,0,1-.77,4.57,6.37,6.37,0,0,1-4.33,3.2,6.71,6.71,0,0,1-6.37-2.76,5.94,5.94,0,0,1-1-4,12.34,12.34,0,0,1,1.4-4.39c1.42-2.86,3.87-5.83,4.17-9.81a14.27,14.27,0,0,0-3.94-11.07,16.92,16.92,0,0,0-5.17-3.73,25.41,25.41,0,0,0-6.32-1.88,35.17,35.17,0,0,1-6.16-1.55,8.41,8.41,0,0,1-4.4-3.69,9.81,9.81,0,0,1-1-5.51,19.18,19.18,0,0,1,1.31-5.42,41.78,41.78,0,0,0,3.21-10.15,15.7,15.7,0,0,0-1.91-9.15,20.31,20.31,0,0,0-5.15-5.74,41,41,0,0,1-4.22-3.89,11.93,11.93,0,0,1-2.33-4.19v.32a4.13,4.13,0,0,0,.23.92,9,9,0,0,0,1.82,3.2,35.45,35.45,0,0,0,4.15,4.07,20.18,20.18,0,0,1,4.87,5.67,15,15,0,0,1,1.7,8.67,41,41,0,0,1-3.26,9.91,20,20,0,0,0-1.4,5.65,10.88,10.88,0,0,0,1,6.06,9.28,9.28,0,0,0,4.94,4.18,35.55,35.55,0,0,0,6.34,1.63,24.62,24.62,0,0,1,6.07,1.78,16,16,0,0,1,4.87,3.5A13.4,13.4,0,0,1,958,204.78c-.23,3.64-2.52,6.5-4,9.52a12.75,12.75,0,0,0-1.42,4.71,6.62,6.62,0,0,0,1.19,4.41,7.32,7.32,0,0,0,7,2.93,6.87,6.87,0,0,0,5.34-7.16A3.74,3.74,0,0,0,965.78,218.05Z"/><polyline class="cls-37" points="874.97 321.2 916.87 308.58 916.87 307.58 874.97 320.72 874.97 321.2"/><path class="cls-2" d="M719.61,319.66c2.76.06,5.67-.31,7.9-1.88a12.09,12.09,0,0,0,4.33-6l-.63-8.35s3.67-11.7,3.7-15.89-4.14-20.19-4.58-20.84,3.59-21.17.25-22.87-6.93-1-9,3.91S720.48,266,717.69,266a15.86,15.86,0,0,1-6.14-1.62s2.48-5.5,1-8.92-6.11-2.92-6.11-2.92l-1.5,2.06-.86-4.25s4-11.75,0-14.61a22,22,0,0,0-.13-8.48,4.12,4.12,0,0,0-5.29-2.8,4.3,4.3,0,0,0-1.1.58l-7.92,27.48,4.1,37.35s6.67,10.49,8.23,13.36c.49.89.7,5.66.78,11.84,0,.35,3.22,1.47,3.62,1.64a37.05,37.05,0,0,0,10.16,2.71C717.53,319.56,718.56,319.64,719.61,319.66Z"/><path class="cls-3" d="M725.88,268.29c1.8.75,3.2,1.53,3.43,1.25s-.95-1.64-2.94-2.46-3.76-.71-3.78-.37S724.07,267.54,725.88,268.29Z"/><path class="cls-3" d="M694,248.69c1.4-3.4,3.44-8.14,5.85-13.58l.22-.49.5.08a25.94,25.94,0,0,1,3.15.55,4.74,4.74,0,0,1,2.69,2.51,9.45,9.45,0,0,1,.41,5.83,27.7,27.7,0,0,1-1.47,5c-1.27,3.05-2.59,5.65-3.7,7.85-2.28,4.41-3.82,7-4,6.91a53.9,53.9,0,0,1,3.07-7.36c1-2.2,2.24-4.9,3.42-7.9a28,28,0,0,0,1.3-4.79,8.09,8.09,0,0,0-.32-4.89,3.24,3.24,0,0,0-1.89-1.81c-.77-.25-2-.33-2.88-.51l.72-.41c-2.47,5.4-4.67,10.06-6.29,13.36a29.3,29.3,0,0,1-2.8,5.17A28.78,28.78,0,0,1,694,248.69Z"/><path class="cls-3" d="M705.65,287.76a47.42,47.42,0,0,0-.28-11.42v-.14l.08-.11a27.88,27.88,0,0,1,1.72-4.24c.76-1.46,1.55-2.76,2.26-4.28a47.91,47.91,0,0,0,1.93-4.68,11.7,11.7,0,0,0,.84-5,4.57,4.57,0,0,0-2-3.51,7,7,0,0,0-3.79-1.13l.58-.37c-3.55,6.71-6.67,12.5-8.94,16.58a13.87,13.87,0,0,0-2,5,10,10,0,0,1-.41,1.94c-.13.05-.21-.64-.09-1.94a12.86,12.86,0,0,1,1.64-5.33c2.06-4.21,5-10.1,8.53-16.89l.23-.34h.39a8,8,0,0,1,4.58,1.31,6,6,0,0,1,2.57,4.56c-.09,8.19-5.5,13.46-7,18.73l0-.29a42.13,42.13,0,0,1-.24,11.76,16,16,0,0,1-.86,3.12,8.34,8.34,0,0,1-.55,1C704.77,292.08,705.41,290.61,705.65,287.76Z"/><path class="cls-3" d="M731.21,303.44s-5.5,3.58-13.53.11C717.68,303.55,726.28,310.81,731.21,303.44Z"/><path class="cls-5" d="M743.63,420.84c2.53-14.76,7.16-13.62,6.28-28.45,0-.75,1.7-7.38-1.45-19l-9.33-44.93c-3.73-22.38-4.5-19.06-7-18.7l-29.39,1.32c-4.65,1,.31,3.27-2,35.72-4,56.62,1.5,111.73,30.93,119.2a39.9,39.9,0,0,0,14.05-.63C753.49,454.84,741.47,433.43,743.63,420.84Z"/><path class="cls-37" d="M746,365.12s11.15,44.89,8.54,59.27c0,0,7.24-6.36-7.5-62.82Z"/><path class="cls-30" d="M830.13,237.45c6.18-.07,19.88,3.83,22.65,6.36,0,0-7,5.32-21.35,5.48s-16.77-5.06-16.77-5.06S822.25,237.53,830.13,237.45Z"/><path class="cls-31" d="M846.92,241s-7.37-.55-13.24-.49-13.21.78-13.21.78-1-4.69,9.65-4.81S846.92,241,846.92,241Z"/><path class="cls-32" d="M831.4,247.21c6.71-1.1,13.54-3.83,21.38-3.4,0,0-2.1,9.65-18.95,9.83s-19.17-9.41-19.17-9.41C822.49,243.62,824.68,246.26,831.4,247.21Z"/><path class="cls-32" d="M822.76,233.94c3.54-.31,5.8,1.1,7.34,1.08s3.77-1.48,7.31-1.23c3.32.22,17.45,8.76,15.89,9.9s-12.5-5.12-23.16-5-14.41,6.53-16,5.43S819.45,234.24,822.76,233.94Z"/><path class="cls-11" d="M708.36,554.25s-82.53,5.55-89.6,54.27c-4.79,33,8.21,83.63,8.21,83.63s87.95,11.44,109.19,5.72l9.83.81,2.32-25.94Z"/></g><g id="Layer_2" data-name="Layer 2"><path class="cls-38" d="M724.57,464.28l.16.05,0-.42Z"/><path class="cls-37" d="M787.83,354.57s-11.06,43.36-10.78,49.12-1.4,17.17,10.41,28.45a58.16,58.16,0,0,1,6.13,6.71l-.12.23c-3.92-4.19-9.19-5.36-15.47-18.35C769.45,403,787.83,354.57,787.83,354.57Z"/><path class="cls-39" d="M943.66,307.38l-1.5.4-1.08.32c-.39.13-.8.32-1.25.5a21.4,21.4,0,0,0-3,1.36l-1.68.93c-.56.35-1.12.76-1.71,1.16a38,38,0,0,0-3.61,2.85,39.73,39.73,0,0,0-5.24,5.82c0,.21.54.49.58.71a38.49,38.49,0,0,1,4.94-6.18,39.85,39.85,0,0,1,3.52-2.85c.61-.4,1.14-.82,1.69-1.17l1.64-1a23,23,0,0,1,2.91-1.42c.44-.19.84-.4,1.21-.53l1.06-.35,1.47-.5a2.28,2.28,0,0,0,.51-.21A1.72,1.72,0,0,0,943.66,307.38Z"/><path class="cls-2" d="M862,251c.15,4.47,7.67,14.23,7.67,14.23s.3,31.55,2,37.2,8.06,17.46,8.06,17.46l30.61-10.25-8.75-12,1.4-29.06-3.54-27.41-17.9-15.54a1.91,1.91,0,0,0-.38.31,2.66,2.66,0,0,0-.08,3.78l-6.92-5.27c-4.53,3.77,2.79,12.91,2.79,12.91l-8.44-7.55c-3.85,4.27,1.3,10.79,1.3,10.79l8.86,11.85s1,8.54.59,11.42-.69,5.92-.69,5.92l-2.61-9.36-12.12-15.81S861.85,246.55,862,251Z"/><path class="cls-3" d="M861.35,245.87a7.8,7.8,0,0,1,1.48-2.91l.39-.44.37.49c3.85,5,7.95,10.34,12.1,15.83l.07.08v.1c.59,2.11,1.22,4.35,1.85,6.64.06-.48.11-1,.17-1.44.08-.71.16-1.42.25-2.14a18.7,18.7,0,0,0,.05-2.12c-.05-2.83-.33-5.75-.66-8.65l-5.23-7.06c-.9-1.22-1.82-2.44-2.73-3.69-.45-.61-.94-1.22-1.39-1.9a17.42,17.42,0,0,1-1.16-2.07,10.59,10.59,0,0,1-1.08-4.31A6.09,6.09,0,0,1,867.4,228l.38-.4.4.36,5.32,4.79a25.73,25.73,0,0,1-1.37-2.91,9.82,9.82,0,0,1-.7-3.71,4.75,4.75,0,0,1,1.65-3.51l.35-.28.34.28,5.49,4.49a3.68,3.68,0,0,1,0-.58,3.16,3.16,0,0,1,1.27-2.47l.35-.28.33.28L899,239.49l.15.12v.19c1.23,9.86,2.36,19,3.39,27.42,0,1.81-1.28,24.54-.95,29.7a1.73,1.73,0,0,0-.63.54c-.35-5.28.93-28.24.89-30.1-1.07-8.33-2.23-17.43-3.49-27.21Q890,233,880.94,225.21a2.16,2.16,0,0,0-.54,1.37,3.54,3.54,0,0,0,.67,1.94l2.28,3.19-3-2.45-.19-.15-.07.07c-.06-.09-.11-.18-.16-.27l-6.3-5.14a3.66,3.66,0,0,0-1,2.4,8.8,8.8,0,0,0,.64,3.29,24.48,24.48,0,0,0,3.49,6.13l-.79.75-.12-.11-.1.09-.35-.49L868,229.17a4.92,4.92,0,0,0-.95,3.06,9.57,9.57,0,0,0,1,3.86,15.15,15.15,0,0,0,1.09,2c.4.62.87,1.21,1.33,1.84q1.38,1.86,2.74,3.68l5.33,7.19.09.12V251c.32,3,.61,6,.67,8.91a20.78,20.78,0,0,1-.08,2.23c-.09.72-.17,1.44-.25,2.14-.17,1.4-.33,2.8-.5,4.15l-.33,2.72-.72-2.61,0-.14h-.12c0-.1,0-.2,0-.3-.86-3.05-1.7-6.06-2.44-8.84l-11.57-15.21a6.6,6.6,0,0,0-.91,2,11,11,0,0,0-.42,2.84,11.51,11.51,0,0,0,1.54,5.37,67.58,67.58,0,0,0,6,9.35l.09.12V264c.08,10.22.28,19.55.73,27.77.1,2.06.19,4,.45,5.93A15.16,15.16,0,0,0,872,303l3,5.67c-.21.12-.17-.05-.36.09l-3.28-5.48a16.62,16.62,0,0,1-1.33-5.47q-.32-2.86-.49-6c-.52-8.2-.77-17.48-.91-27.67a66.17,66.17,0,0,1-6-9.34,23,23,0,0,1-1.2-2.74,12.7,12.7,0,0,1-.39-1.5l0-.81,0-.77A12.48,12.48,0,0,1,861.35,245.87Z"/><path class="cls-3" d="M887.94,259.66c-.13-2.94-.39-7-.75-11.42L887.1,247v-.2l-.14-.14c-2.89-3-5.53-5.71-7.46-7.57s-3.16-3-3.26-2.88a18.21,18.21,0,0,0,2.72,3.4c1.74,2,4.32,4.77,7.2,7.81l-.14-.33a8,8,0,0,1,.09,1.22c.36,4.46.73,8.49,1.07,11.4s.62,4.7.77,4.7S888.08,262.6,887.94,259.66Z"/><path class="cls-3" d="M894.22,251.24c-.11-2.68-.34-6.43-.64-10.61v-.21l-.16-.14-1-.91c-3.3-3.06-6.32-5.79-8.55-7.73s-3.66-3.07-3.77-3,1.14,1.45,3.23,3.54,5.07,4.85,8.33,7.95l1,.91-.18-.37c.35,4.25.7,7.92,1,10.6a18.39,18.39,0,0,0,.7,4.3C894.34,255.6,894.33,253.93,894.22,251.24Z"/><path class="cls-37" d="M916,309l.86-.39s50.91,93.1,55.94,114.21c3.77,15.8,2.6,20.49-.39,26.28,0,0,3.66-4.12-.4-23.86-2.65-12.85-28.43-64.1-28.43-64.1Z"/><path class="cls-37" d="M876.07,320.72s4.2,19.3,12.79,50.55c5.74,20.88,20,65.33,31.62,80.29,14,18,24.82,21.56,30.74,24.8,0,.48-1.34-.26-3.12,0-14.74-4.78-30.06-19.66-45.31-56.28C889.7,388.59,877.13,333.47,875,321.2Z"/><path class="cls-37" d="M786.69,357.85a34.23,34.23,0,0,0-.78-12.87s2.45,3.83,1.9,10.82l-1.52,3.83Z"/><polyline class="cls-3" points="901.57 296.93 903.99 300.61 900.94 297.46 901.57 296.93"/></g></svg>