<svg xmlns="http://www.w3.org/2000/svg" viewBox="0 0 1221.96 991.43"><defs><style>.cls-1{fill:#f2ebd1;}.cls-2{fill:#d79a86;}.cls-3{fill:#bb997a;}.cls-4{fill:#956243;}.cls-5{fill:#7a967f;}.cls-6{fill:#653c2a;}.cls-7{fill:#425745;stroke:#425745;}.cls-16,.cls-17,.cls-34,.cls-37,.cls-38,.cls-39,.cls-40,.cls-7{stroke-miterlimit:10;}.cls-8{fill:#a56530;}.cls-9{fill:#59341c;}.cls-10{fill:#231f20;}.cls-11{fill:#eb9944;}.cls-12{fill:#010101;}.cls-13{fill:#0b3642;}.cls-14{fill:#8c542a;}.cls-15{fill:#513835;}.cls-16{fill:#1d1e1e;stroke:#1d1e1e;}.cls-17,.cls-39{fill:none;}.cls-17{stroke:#132b3a;stroke-width:0.83px;}.cls-18{fill:#4163ae;}.cls-19{fill:#825639;}.cls-20,.cls-34,.cls-37,.cls-38{fill:#151210;}.cls-21{fill:#161312;}.cls-22{fill:#171514;}.cls-23{fill:#181615;}.cls-24{fill:#191716;}.cls-25{fill:#040404;}.cls-26,.cls-28{fill:#fff;}.cls-26{opacity:0.14;}.cls-27{fill:#31160e;}.cls-29{fill:#653c29;}.cls-30{fill:#745245;}.cls-31{fill:#44403d;}.cls-32{fill:#1b120c;}.cls-33{fill:#131c42;}.cls-34,.cls-37,.cls-38,.cls-39{stroke:#161311;}.cls-34{stroke-width:0.44px;}.cls-35{fill:#13110f;}.cls-36{fill:#ce8d2a;}.cls-37{stroke-width:0.44px;}.cls-38{stroke-width:0.46px;}.cls-39{stroke-width:1.06px;}.cls-40{fill:#934834;stroke:#934834;}.cls-41{fill:#f8e494;opacity:0.51;}</style></defs><g id="Layer_1" data-name="Layer 1"><polyline class="cls-1" points="1221.96 991.43 1221.96 0 0 0 0 991.43"/><path class="cls-2" d="M460.43,431.92c-5.05-10.74,6.95-17.87,6.67-29.76-.24-9.88-5.29-21,0-29.76L430,311.88c-8.76-10.38-17.84-15.66-26.36-17.3l-29-4.29c5.24,25.1,19.2,53.13,26.23,77.78q5,17.4,11.19,34.4l.19-5.37c11.18,14.83,36.91,50.74,57.62,51.9.6,0,11.37-3,11.94-3.1C478.14,442.09,462.69,436.72,460.43,431.92Z"/><polyline class="cls-3" points="0 990.43 1221.96 990.43 1221.96 920.71 0 920.71"/><path class="cls-4" d="M905.69,168.74s-6.57,24.81,5.36,50.5c1.15,2.47,18.7,6.76,18.7,6.76L904,234c-14.44,3.1-46.62,2.58-60.46-2L832,225.21s14.71-3,15.47-6.14S846,192.3,846,192.3"/><path class="cls-4" d="M844,221.71l71-.79,7.16,24.29s-18.72,15.69-20.64,16.42-46,9.18-46,9.18-49.05-17.7-48.38-17.56S844,221.71,844,221.71Z"/><path class="cls-5" d="M758.76,297.94l15.64-47.26a130.26,130.26,0,0,1,26.19-10.58c8.91-2.5,22.49-4.7,27.78-6.15-1.62,7-.15,13.41,4.48,17.43a39.57,39.57,0,0,0,23.23,9.53c8.17.54,16.49-1,24.28-3.43,14.58-4.55,31.85-20.52,35.82-36.22l16,5.43s50.64,19.12,57.52,22.28-24.37,188-24.37,188l12.82,78.44c1.31,7.58,33.16,57.32,7.26,111.86,0,0-149.11-49.15-165.38-50-18.91-1-49.08-2.39-53.51-11.71S758.76,297.94,758.76,297.94Z"/><path class="cls-4" d="M568.8,401.39s-13.64-18.27-23.2-22.61c-2.68-1.23-22.14-20.56-22.14-20.56s-6.64,3-.28,12.1S532.37,383,532.37,383l.58,3.27L514.68,389s-21.27-.35-26.39,0-16.14.7-17.66,7.17c0,0-8.17-.35-8.72,3.53a6,6,0,0,0,1.13,5.36l3.82,1.16s-2.17.88-.89,4.68,36.12,8.2,36.12,8.2l1.69,1.48s-23.7.88-24.34,3-1.48,3.8,2.17,5.09,67.95,7.72,75.41,6.95a87.64,87.64,0,0,1,9.19-.71l8.27-32.54Z"/><path class="cls-6" d="M468.18,405.16a111.38,111.38,0,0,0,18,2.14,111.23,111.23,0,0,0,18.06.68,109.67,109.67,0,0,0-18-2.15A110.43,110.43,0,0,0,468.18,405.16Z"/><path class="cls-6" d="M470.33,396.9c0,.4,7.91.36,17.61,1s17.56,1.5,17.62,1.08A69.9,69.9,0,0,0,488,396.36,67.24,67.24,0,0,0,470.33,396.9Z"/><path class="cls-5" d="M734.09,450.07c-15.77,14.72-36.17-34.17-50.09-50.68,5.18-4.87,8.36-13.87,11.58-20.05,6.53-12.55,12.8-25.24,19-37.94,7.81-15.94,15.08-32.15,23.59-47.73a249.89,249.89,0,0,1,14-22.85c4.36-6.28,8.61-12.38,15-16.62a93.65,93.65,0,0,1,21.06-10.11L821.38,317s-23.13,50.12-41.44,60.94c-.69.41-12.84,33.4-13.67,33.82C766,411.24,761.83,424.18,734.09,450.07Z"/><path class="cls-5" d="M574,397.27l30.61,2.93s72.63,1,88.18-1.79q2.24,4.43,4.39,8.89c8.15,17,42.13,38.11,42.13,38.11-26,39.28-105.15,14.94-119.61,10.27-15.71-5.07-54.93-15.24-54.93-15.24Z"/><path class="cls-7" d="M761.06,419.87c-.32,0-.12-5.07-.44-5-.24-9.52-2.33-65.43-2.46-72.74-.1-7.84-.19-14.21-.16-18.57a64.89,64.89,0,0,1,.15-6.84,53.6,53.6,0,0,1,.56,6.82c0,4.75.3,10.89.66,18.6.25,7.32,1.39,68.87,1.71,78.39C760.89,420.42,761.25,419.85,761.06,419.87Z"/><path class="cls-6" d="M531.63,391.51s-.45,17.87,14.15,29C545.78,420.52,523.28,406.5,531.63,391.51Z"/><path class="cls-7" d="M682.82,399.5s12.46,2.24,18.77,12.22C701.59,411.72,692.59,396.24,682.82,399.5Z"/><path class="cls-8" d="M887,666.23c34.85,0,69.69-4.07,104.54-4.24,7.56,0,14.52,1.51,15.11,8.08,1.51,16.95,3.65,35.27-22.56,33.46-2-.14-4.07.21-6-.06-9.13-1.24-10.54,2.44-9.34,8.95,3.9,21.06,7.46,37.17,11,58.27,8.41,49.63,16.87,99.26,25,148.92,2.24,13.7,1.77,13.58-15.72,13.31-5.4-.08-7.67-1.43-8.42-6-8-48.85-16.38-97.65-24.35-146.5-.93-5.7-3.09-7.93-10.55-7.87q-58.31.48-116.6,0c-7.65-.06-10.27,1.85-11.29,8.15q-11.28,69.57-23.43,139c-2.35,13.6-2.7,13.27-19.67,13.07-6.8-.08-7.58-2-6.72-7,12.55-72.62,24.84-140.27,37.42-212.89,1.29-7.44-.68-11-10.52-9.7-3.27.43-6.69.07-10,.06-14.88,0-17.8-7.56-17.82-20.38,0-14,2.71-20.75,17.41-20.76q51.25,0,102.52,0Zm57,89.84c7.53.16,9.08-2,8-7.71-3.06-16.4-5.81-21-8.39-37.5-.86-5.45-3-7.84-10.6-7.73-30.78.46-61.57.41-92.35,0-7-.09-9.22,2.09-10,7.24-2.7,17-5.55,22.19-8.67,39.14-1,5.48,1.64,6.55,7.58,6.48,19.41-.23,38.82-.09,58.23-.09C906.56,755.93,925.31,755.66,944,756.07Z"/><rect class="cls-4" x="700.3" y="872.43" width="60.12" height="33.56" transform="translate(1460.72 1778.43) rotate(-180)"/><rect class="cls-4" x="650.42" y="853.12" width="55.03" height="40.2" transform="translate(1355.88 1746.44) rotate(-180)"/><path class="cls-9" d="M555.63,923.81s-1.54-9.87,7-13.13,27.73-8.56,42-15.27c19.86-9.32,31.89-23.95,40.55-24.31s6.56,14,25.69,15.14,33.65-8.45,34.55-8.73c4.22,2.73,10.9,32.73,5.49,40s-51.88,9-51.88,9l-37.38,6.18-37.18.12Z"/><path class="cls-10" d="M676.59,925.2a28.85,28.85,0,0,1,1.44-10,12.41,12.41,0,0,1,2.7-4.56c1.62-1.64,3.7-2.2,5.83-2.89,4.1-1.33,8.28-2.48,12.24-4.2a18.81,18.81,0,0,0,7.76-5.6c2.91-3.89,3.16-8.84,2.6-13.5,0-.23-1.36,0-1.32.36.52,4.38.35,9-2.17,12.78-2.07,3.14-5.44,5-8.86,6.31-4.31,1.69-8.81,2.89-13.19,4.39a10.91,10.91,0,0,0-6.63,6.45,28.11,28.11,0,0,0-1.72,10.8c0,.19,1.32,0,1.32-.36Z"/><path class="cls-10" d="M706.76,879.61c-6.27,4.23-13,7.43-20.6,8.49a62,62,0,0,1-14.15,0,68.05,68.05,0,0,1-10.53-1.65c-5.83-1.45-11.31-4.54-17.41-4.77a24.43,24.43,0,0,0-10.85,2.61,116.69,116.69,0,0,0-12.7,7.19c-2.25,1.4-4.51,2.79-6.79,4.14a67.94,67.94,0,0,1-7.41,4.11c-.1,0,.2,0-.09.05a1.54,1.54,0,0,1-.37,0,2.77,2.77,0,0,1-1.15-.43c-1.42-1-1.14-3-.79-4.38.13-.52-1.2-.32-1.32.15-.56,2.24-.34,4.8,2.28,5.37a3.06,3.06,0,0,0,1.59,0,18.57,18.57,0,0,0,3.07-1.58c1.22-.66,2.43-1.33,3.64-2,4.44-2.56,8.73-5.35,13.14-8,4.13-2.47,8.5-5,13.26-6,7-1.52,13.43,2.25,20,4.06a61.87,61.87,0,0,0,9.75,1.75,72,72,0,0,0,14.53.42c8.71-.8,16.57-4.23,23.77-9.08.74-.5-.39-.73-.83-.43Z"/><path class="cls-10" d="M647.15,928.72l7.79-1.28c.15,0,1-.26.73-.55a31.45,31.45,0,0,0-12.43-8.22c-5.47-2-11.18-2.17-16.92-2.52-6.23-.38-12.46-.74-18.67-1.4-4.94-.52-10.08-1.08-14.78-2.79a9.93,9.93,0,0,1-4.42-2.68c-1.81-2.23-.44-5.37.82-7.51.15-.26-1.1-.17-1.31.2-1.17,2-2.44,4.77-1.25,7a6.39,6.39,0,0,0,2.74,2.48c3.77,2.07,8.39,2.72,12.6,3.31,6.1.86,12.26,1.27,18.4,1.67s12.61.27,18.63,1.82a31.51,31.51,0,0,1,15.35,9.08l.73-.54-7.79,1.28c-.58.1-1.14.77-.22.61Z"/><path class="cls-11" d="M652.16,927.44l-.18.2.32,0Z"/><path class="cls-10" d="M651.62,927.29l-.18.2a.43.43,0,0,0-.12.22.21.21,0,0,0,0,.2.38.38,0,0,0,.22.13.85.85,0,0,0,.32,0l.27,0h0a1,1,0,0,0,.35-.09,1.27,1.27,0,0,0,.27-.18.48.48,0,0,0,.12-.22.23.23,0,0,0-.05-.21l-.14-.14a.25.25,0,0,0-.16-.1.36.36,0,0,0-.21-.05.78.78,0,0,0-.26,0,.84.84,0,0,0-.26.07l-.14.08a.66.66,0,0,0-.2.21l0,.11a.23.23,0,0,0,0,.21,1.85,1.85,0,0,1,.14.14l.68-.7-.27.05h0l.46.57.18-.2a.27.27,0,0,0,.1-.16.18.18,0,0,0,0-.16.24.24,0,0,0-.1-.14.26.26,0,0,0-.17-.09l-.15,0a1,1,0,0,0-.35,0l-.17.06A1.2,1.2,0,0,0,651.62,927.29Z"/><path class="cls-11" d="M665.3,923.48l-1.53-.06a20,20,0,0,1-.31,2.84l1.58-.09A25.5,25.5,0,0,0,665.3,923.48Z"/><path class="cls-10" d="M665.56,923.12l-1.53,0a1.2,1.2,0,0,0-.59.14c-.11,0-.33.16-.33.3a22.25,22.25,0,0,1-.3,2.83c0,.22.23.28.39.27.53,0,1-.05,1.58-.09a1.38,1.38,0,0,0,.59-.14c.11,0,.3-.15.32-.3a20.24,20.24,0,0,0,.26-2.69c0-.28-.35-.29-.56-.26a1.48,1.48,0,0,0-.5.17c-.09.06-.25.15-.25.27a23.84,23.84,0,0,1-.26,2.68l.92-.44-1.57.09.39.27a20.76,20.76,0,0,0,.31-2.83l-.92.44,1.52.06a1.13,1.13,0,0,0,.88-.35C666.09,923.23,665.75,923.13,665.56,923.12Z"/><path class="cls-11" d="M672.21,922c-.09,1.2-.12,2.44-.11,3.69h.23l1.31-.11c0-1.17,0-2.34.1-3.46Z"/><path class="cls-10" d="M671.55,922.17c-.09,1.23-.12,2.46-.11,3.68,0,.08.2.1.24.1.56,0,1.12-.06,1.67-.11a1.7,1.7,0,0,0,.67-.17c.11-.06.28-.14.28-.28,0-1.15,0-2.31.1-3.46,0-.08-.21-.09-.24-.1l-1.52-.11a1.64,1.64,0,0,0-.94.25c-.06,0-.17.11-.15.2s.17.09.23.1l1.53.12-.23-.1c-.08,1.15-.11,2.3-.1,3.46l.94-.45-1,.08h-.2c-.2,0,.09,0,0,0h-.18l.23.1c0-1.23,0-2.46.11-3.68C672.88,921.62,671.58,921.77,671.55,922.17Z"/><path class="cls-12" d="M715.29,917.94l-1.46.12-.26-1.39c-5.73.48-25.46,2.17-37.54,3.87-3.68.52-8.33,1.44-13.71,2.51-12.49,2.48-29.59,5.88-47.61,6.64-3.23.14-6.43.19-9.5.15A222.63,222.63,0,0,1,554,923l-.23,1.39-1.05-.3s-.47,1.9-.88,3.62h0c0,.16-.07.3-.11.45-.15.62-.28,1.19-.38,1.6,12.39,7.67,67,9.57,79.41,6.47l2.51-.6,1.14-.25,1.78-.39c13.31-2.86,33.05-6,33.05-6s-.14,2-.18,4.23h0v.08c0,1,0,2,0,3,23.06.66,47.11-2.69,47.11-2.69Z"/><path class="cls-10" d="M715.39,917.61l-1.46.12.56.15-.26-1.38c0-.21-.43-.17-.56-.16-8.74.73-17.47,1.53-26.19,2.48-4.86.54-9.75,1.07-14.57,1.9-5.79,1-11.53,2.23-17.29,3.34a285.78,285.78,0,0,1-38,5.16,202,202,0,0,1-39-1.8,198.29,198.29,0,0,1-24.14-4.71c-.28-.08-1.12,0-1.18.39l-.23,1.39,1.19-.39c-.36-.1-.71-.19-1.06-.3s-1.09,0-1.19.4c-.3,1.2-.59,2.41-.88,3.61l1.19-.39h0c-.29-.14-1.1,0-1.19.39-.16.69-.33,1.37-.49,2.06a.14.14,0,0,0,0,.15,27.94,27.94,0,0,0,7.27,2.86,95.51,95.51,0,0,0,10.71,2.21,247,247,0,0,0,26.46,2.54c8.29.4,16.62.56,24.91.14a75.6,75.6,0,0,0,8.64-.81c4.47-.73,8.89-2,13.34-2.85,9-1.77,18-3.34,27.08-4.78l-.55-.23c-.11,1.43-.16,2.87-.19,4.31l.92-.52h0c-.28,0-.93.14-.92.52,0,1,0,2,0,3,0,.15.3.16.39.16a302.17,302.17,0,0,0,44-2.28l3.3-.42c.23,0,.77-.18.76-.51L716,917.76c0-.36-1.34-.11-1.32.36l.86,15.63.76-.51a304.34,304.34,0,0,1-31.9,2.61c-5,.17-10,.21-15.05.07l.4.16c0-1,0-2,0-3l-.93.52h0c.3,0,.92-.14.93-.52,0-1.39.08-2.77.18-4.15,0-.27-.37-.27-.56-.24q-11.34,1.82-22.64,3.93c-5.45,1-10.85,2.16-16.25,3.41A49,49,0,0,1,623,937a223.41,223.41,0,0,1-24,.14,264.16,264.16,0,0,1-26.79-2.26,112.55,112.55,0,0,1-12.46-2.36A45.13,45.13,0,0,1,555,931c-.66-.25-1.31-.53-1.94-.84a3.68,3.68,0,0,1-.76-.4c-.52-.47,0-1.47.15-2.12l-1.19.39h0c.29.14,1.1,0,1.19-.39l.87-3.62-1.19.39,1.06.3c.29.08,1.13,0,1.19-.4l.23-1.39-1.19.4a196.86,196.86,0,0,0,20.27,4.17,209.58,209.58,0,0,0,37.61,2.66,252.59,252.59,0,0,0,39.05-4.47c10.91-2,21.71-4.42,32.74-5.72,10.1-1.18,20.24-2.11,30.37-3l-.56-.15.26,1.39c0,.2.43.16.56.15l1.46-.12C715.81,918.22,716.31,917.54,715.39,917.61Z"/><path class="cls-12" d="M639.33,879.61a1.14,1.14,0,0,0,1,.59,1.16,1.16,0,0,0,.53-.16,1.19,1.19,0,0,0,.42-1.61l-3.58-6.33c-.64.37-1.3.77-2,1.2Z"/><path class="cls-10" d="M638.72,879.9a1.91,1.91,0,0,0,3.41-.78,2.58,2.58,0,0,0-.55-1.59l-2.49-4.41-.74-1.31c-.15-.28-.68-.23-.9-.11-.72.42-1.42.85-2.12,1.29a.45.45,0,0,0-.17.6l3.11,5.52.45.79c.3.52,1.56,0,1.21-.58l-3.11-5.52-.45-.79-.17.59c.61-.38,1.22-.75,1.84-1.11l-.9-.1,3.47,6.14a1.41,1.41,0,0,1,.18.44.73.73,0,0,1-.24.71c-.25.13-.5-.17-.62-.36C639.61,878.81,638.35,879.32,638.72,879.9Z"/><path class="cls-12" d="M633.56,883a1.15,1.15,0,0,0,1.05.59,1.09,1.09,0,0,0,.52-.16,1.19,1.19,0,0,0,.42-1.61l-3.43-6.07c-.61.44-1.24.89-1.88,1.37Z"/><path class="cls-10" d="M633,883.32a1.92,1.92,0,0,0,3.4-.72,2.43,2.43,0,0,0-.52-1.59l-2.39-4.25-.72-1.27c-.19-.34-.81-.18-1,0l-1.89,1.36a.44.44,0,0,0-.16.6l2.9,5.14.42.74c.29.52,1.55,0,1.21-.58l-2.9-5.14-.43-.75-.16.6,1.88-1.37h-1l3.34,5.91a1.2,1.2,0,0,1,.17.48c0,.21,0,.54-.25.64s-.5-.17-.61-.36C633.85,882.24,632.59,882.74,633,883.32Z"/><path class="cls-12" d="M624.8,881.15l3,5.3a1.14,1.14,0,0,0,1.05.59,1.16,1.16,0,0,0,.53-.16,1.2,1.2,0,0,0,.41-1.61l-3.1-5.5C626.07,880.23,625.45,880.68,624.8,881.15Z"/><path class="cls-10" d="M624.14,881.33l3,5.25a1.82,1.82,0,0,0,2.42.64,1.57,1.57,0,0,0,.9-2.14c-.47-.89-1-1.76-1.48-2.64l-1.61-2.85c-.19-.34-.81-.22-1.07,0L624.39,881c-.18.13-.38.36-.11.53a1,1,0,0,0,.94-.12l1.87-1.38L626,880l2.88,5.1a2,2,0,0,1,.38,1,1,1,0,0,1-.19.55c-.08.09-.18.09-.06.09a.59.59,0,0,1-.22,0,1,1,0,0,1-.4-.41c-.53-.86-1-1.75-1.49-2.63L625.46,881C625.21,880.52,623.93,881,624.14,881.33Z"/><path class="cls-12" d="M622,889.87a1.12,1.12,0,0,0,1,.59,1.16,1.16,0,0,0,.53-.16,1.19,1.19,0,0,0,.42-1.61l-2.8-5-1.91,1.33Z"/><path class="cls-10" d="M621.37,890.05a2,2,0,0,0,3.26-.2,1.51,1.51,0,0,0-.11-1.62l-2-3.56-.63-1.12c-.21-.36-.94-.06-1.18.11-.63.45-1.27.89-1.91,1.33,0,0-.18.16-.14.24l2.72,4.82c.22.39,1.48-.06,1.32-.35L620,884.88l-.14.25,1.91-1.33-1.18.11c.92,1.64,1.87,3.27,2.77,4.92a1.14,1.14,0,0,1,.14.9,1,1,0,0,1-.15.29c-.07.1-.17.12,0,.12-.19,0-.47-.26-.59-.44C622.45,889.31,621.2,889.78,621.37,890.05Z"/><path class="cls-12" d="M616.26,893.29a1.13,1.13,0,0,0,1,.59,1.09,1.09,0,0,0,.52-.16,1.19,1.19,0,0,0,.42-1.61l-2.61-4.62c-.64.41-1.29.83-2,1.23Z"/><path class="cls-10" d="M615.6,893.47c.67,1.09,2.51.83,3.2-.13a1.4,1.4,0,0,0,0-1.62l-1.89-3.34-.6-1.07c-.18-.32-.95,0-1.17.14-.65.41-1.3.83-2,1.23,0,0-.19.15-.15.22l2.58,4.57c.2.35,1.45-.12,1.32-.35l-2.58-4.57-.14.21,1.95-1.23-1.17.13c.87,1.54,1.77,3.06,2.6,4.61a1.14,1.14,0,0,1,.08,1,.69.69,0,0,1-.17.27s-.1.09-.09.1.23,0,.15,0-.27-.11-.33-.15a1.3,1.3,0,0,1-.3-.32C616.71,892.77,615.47,893.26,615.6,893.47Z"/><path class="cls-13" d="M598.39,591.6c9.73,54.51,23.67,208.38,38.42,274.77,0,0,68.81,2.32,76.3-12.62,0,0,82.34-318.11,42.08-330.38-29.69-9-117.93-16.62-135.62-6C598.35,530.11,590.72,548.68,598.39,591.6Z"/><path class="cls-14" d="M979.69,770.76q1.95,11.49,3.89,23c-8.14,1.57-16.23,3.41-24.31,5.32q-1.53-9.27-3-18.55c-.93-5.7-3.1-7.93-10.56-7.87q-58.29.48-116.6,0c-7.65-.06-10.26,1.85-11.29,8.15-1,6-2,12-2.95,18A223,223,0,0,1,792,789.3c4.43-25.09,8.89-50.36,13.38-76.27a14.19,14.19,0,0,0,0-6q8,.53,16,.81c3.27.12,6.53.22,9.8.29a14.49,14.49,0,0,0-.56,2.37c-2.7,17-5.54,22.19-8.67,39.14-1,5.49,1.64,6.55,7.59,6.48,19.4-.23,38.81-.09,58.22-.09,18.74,0,37.49-.27,56.21.14,7.53.16,9.08-2,8-7.71-3.05-16.4-5.81-21-8.39-37.5a10.33,10.33,0,0,0-1.91-5.1c9.23-.28,18.46-.5,27.69-.61-1.26,1.59-1.3,4.09-.71,7.27C972.55,733.55,976.12,749.66,979.69,770.76Z"/><path class="cls-14" d="M1007,673.53s-111.3,20-159.3,14S767.31,676.25,769.26,669s35.92-22.86,70.12-24,128,7.32,128,7.32,31.48,5.18,34.78,9.66S1007,673.53,1007,673.53Z"/><path class="cls-15" d="M597.87,566.88l.16,0v-.4Z"/><path class="cls-13" d="M680.41,635.77c-.37-4.56-1-9.1-1.75-13.6a190.35,190.35,0,0,0-7.87-29.85,201.14,201.14,0,0,0-12.71-29A170.5,170.5,0,0,0,646.79,545C740.05,532.14,931,557.5,931,557.5s62.29-.49,49.32,81.6c-10.72,67.82-229.68,22.85-298.91-3Z"/><path class="cls-13" d="M641.13,573.17a131.44,131.44,0,0,1,25.29,2.31,59.82,59.82,0,0,1-2.12-11.62c1.61-1.37,3.31-2.77,5.08-4.19a166.81,166.81,0,0,1,23.4,12.05,201,201,0,0,1,24.75,17.94,175.46,175.46,0,0,1,20.82,20.79c1.79,2.12,12.07,4.3,13.73,6.53-.26,0,1.73,13,1.47,13,23.78,34.9,10.34,89.58,17.32,153.64,5.12,47,3.89,96.48,3.89,96.48-8.88,14.11-86.59,7.24-86.59,7.24C671.86,800.94,641.13,573.17,641.13,573.17Z"/><path class="cls-16" d="M688.17,876.63c-14.29-86-47-303.46-47-303.46h-3.71l48.12,303.31Z"/><path class="cls-17" d="M769.54,623.16l-.78.12"/><path class="cls-18" d="M792.93,771.91s.05,0,.07,0S793.08,771.73,792.93,771.91Z"/><path class="cls-16" d="M767.14,659.35l2.4.26c-3.53-29.38-19.14-43.44-19.14-43.44s13.43,20,13.9,42.87Z"/><path class="cls-9" d="M613.8,941s-1.53-9.87,7-13.13,27.74-8.56,42-15.27c19.86-9.32,31.89-24,40.54-24.31s6.56,14,25.7,15.14c19,1.13,33.65-8.45,34.55-8.73,4.21,2.73,10.89,32.73,5.48,40s-51.87,9-51.87,9l-37.39,6.18-37.18.11Z"/><path class="cls-10" d="M734.77,942.49a28.67,28.67,0,0,1,1.46-10.07,12,12,0,0,1,2.63-4.36c1.64-1.66,3.82-2.22,6-2.91A128,128,0,0,0,757,921a18.37,18.37,0,0,0,7.85-5.87c2.78-3.93,3-8.8,2.45-13.44-.07-.56-1.39-.24-1.32.36.53,4.43.34,9.15-2.35,12.9-2.11,3-5.42,4.67-8.73,6-4.34,1.7-8.87,2.86-13.26,4.41a11,11,0,0,0-6.48,6.47,28.06,28.06,0,0,0-1.75,10.86c0,.65,1.34.43,1.33-.12Z"/><path class="cls-10" d="M764.92,896.73c-6.27,4.23-13,7.43-20.6,8.49a62,62,0,0,1-14.15,0,69.24,69.24,0,0,1-10.53-1.63c-5.82-1.45-11.31-4.55-17.41-4.78a24.28,24.28,0,0,0-10.85,2.6,115.13,115.13,0,0,0-12.7,7.2c-2.25,1.39-4.5,2.79-6.79,4.13-1.27.75-2.55,1.49-3.85,2.2a29.78,29.78,0,0,1-3.56,1.91,2.47,2.47,0,0,1-1.61-.39c-1.41-1-1.12-2.92-.77-4.34.14-.58-1.2-.4-1.33.13-.56,2.25-.33,4.83,2.3,5.42a3.17,3.17,0,0,0,1.59,0A18.67,18.67,0,0,0,668,916c1.14-.62,2.26-1.25,3.38-1.9,4.44-2.55,8.74-5.35,13.14-8,4.14-2.46,8.51-5,13.27-6,7-1.54,13.42,2.23,20,4a63,63,0,0,0,9.74,1.77,72.78,72.78,0,0,0,14.53.42c8.72-.8,16.57-4.24,23.77-9.09.74-.5-.36-.85-.85-.52Z"/><path class="cls-10" d="M705.31,945.83l7.79-1.28c.12,0,1-.24.75-.48a31.44,31.44,0,0,0-12.42-8.2c-5.47-2-11.19-2.16-16.93-2.51-6.22-.38-12.46-.74-18.66-1.39-4.94-.53-10.09-1.1-14.79-2.81a10,10,0,0,1-4.42-2.69c-1.82-2.25-.46-5.38.81-7.55.09-.16-1.11-.1-1.31.23-1.15,2-2.44,4.77-1.25,7a6.51,6.51,0,0,0,2.85,2.52c3.85,2,8.49,2.68,12.75,3.27,6,.82,12.08,1.24,18.14,1.62s12.6.29,18.63,1.84a31.47,31.47,0,0,1,15.35,9.1l.75-.48-7.79,1.29c-.53.09-1.18.65-.25.49Z"/><path class="cls-11" d="M710.33,944.61l-.18.2.32,0Z"/><path class="cls-10" d="M709.79,944.44l-.18.2a.46.46,0,0,0-.12.23.3.3,0,0,0,.06.22.46.46,0,0,0,.22.14.85.85,0,0,0,.32,0l.27,0h0a1.12,1.12,0,0,0,.36-.09,1.1,1.1,0,0,0,.26-.18.57.57,0,0,0,.12-.23.31.31,0,0,0-.06-.23l-.14-.14a.31.31,0,0,0-.16-.11.37.37,0,0,0-.21-.06.76.76,0,0,0-.26,0,.61.61,0,0,0-.26.08l-.15.08a.76.76,0,0,0-.19.21l0,.12a.23.23,0,0,0,.06.22l.14.15.67-.73-.28,0h0l.48.62.18-.2a.37.37,0,0,0,.1-.17.22.22,0,0,0,0-.18.21.21,0,0,0-.1-.14.32.32,0,0,0-.17-.1l-.15,0a1,1,0,0,0-.35,0l-.17.07A.68.68,0,0,0,709.79,944.44Z"/><path class="cls-11" d="M723.47,940.65l-1.53-.06a22.19,22.19,0,0,1-.3,2.84l1.57-.09A21.25,21.25,0,0,0,723.47,940.65Z"/><path class="cls-10" d="M723.89,940.34l-1.53-.06a1.71,1.71,0,0,0-.74.14c-.15.07-.33.17-.34.35a19.74,19.74,0,0,1-.3,2.76c0,.2.25.22.39.21l1.57-.09a1.56,1.56,0,0,0,.59-.15c.1,0,.31-.13.33-.27a23,23,0,0,0,.27-2.76c0-.09-.2-.12-.24-.13a1.34,1.34,0,0,0-.49,0c-.21.06-.58.17-.59.44a21,21,0,0,1-.26,2.61l.93-.42-1.57.09.38.21a20.24,20.24,0,0,0,.31-2.9l-1.08.48,1.53.06a1.46,1.46,0,0,0,.93-.25c.07-.05.18-.14.15-.24S724,940.34,723.89,940.34Z"/><path class="cls-11" d="M730.38,939.16c-.08,1.2-.12,2.44-.1,3.69h.22l1.31-.1c0-1.17,0-2.34.1-3.46Z"/><path class="cls-10" d="M729.72,939.25c-.08,1.26-.12,2.52-.1,3.77,0,.15.3.17.39.17.57,0,1.14-.07,1.7-.12.26,0,.77-.19.76-.51,0-1.12,0-2.25.1-3.37a.24.24,0,0,0-.25-.25l-1.53-.11a1.24,1.24,0,0,0-.93.25c-.19.16-.18.4.11.42l1.53.11-.25-.24c-.08,1.18-.11,2.36-.1,3.55l.76-.51-1,.07-.2,0c-.21,0,.12,0,0,0h-.18l.4.17c0-1.2,0-2.4.1-3.6,0-.27-.37-.27-.56-.24a1.48,1.48,0,0,0-.5.17C729.89,939.05,729.73,939.14,729.72,939.25Z"/><path class="cls-12" d="M773.46,935.11l-1.45.12-.26-1.39c-5.73.48-25.47,2.17-37.55,3.87-3.68.51-8.33,1.44-13.71,2.51-12.48,2.48-29.58,5.88-47.61,6.64-3.23.14-6.42.19-9.49.15a221.81,221.81,0,0,1-51.25-6.84l-.23,1.4-1.06-.3-.88,3.62h0c0,.16-.07.3-.11.45-.14.62-.28,1.19-.38,1.6,12.4,7.67,67,9.57,79.41,6.47l2.52-.6,1.14-.25,1.78-.39c13.3-2.86,33-6,33-6s-.15,2-.19,4.23h0v.08c0,1,0,2,0,2.95,23.07.66,47.11-2.69,47.11-2.69Z"/><path class="cls-10" d="M773.74,934.79l-1.46.12.39.14-.26-1.39c0-.14-.3-.14-.39-.13-8.67.72-17.34,1.51-26,2.45-5,.54-10,1.08-14.94,1.94-5.72,1-11.4,2.2-17.1,3.3a288.49,288.49,0,0,1-37.92,5.18,201.37,201.37,0,0,1-39.26-1.79,198.32,198.32,0,0,1-24.14-4.72c-.26-.07-1.13,0-1.19.39l-.23,1.39,1.19-.39-1.06-.29c-.28-.08-1.1,0-1.19.38l-.87,3.62,1.19-.38h0c-.27-.13-1.11,0-1.19.38-.17.69-.33,1.37-.49,2a.12.12,0,0,0,0,.14,28.3,28.3,0,0,0,7.27,2.86,100.17,100.17,0,0,0,10.71,2.2,244.62,244.62,0,0,0,26.62,2.54c8.23.4,16.51.55,24.75.14a78,78,0,0,0,8.63-.82c4.48-.73,8.89-2,13.35-2.85,9-1.77,18-3.34,27.08-4.78l-.55-.2c-.1,1.44-.16,2.87-.19,4.31l.93-.49h0c-.26,0-.93.13-.93.49,0,1,0,2,0,3,0,.14.31.13.39.14a303.38,303.38,0,0,0,44-2.29q1.65-.19,3.3-.42c.21,0,.79-.17.77-.48l-.86-15.63c0-.32-1.34-.08-1.32.36l.86,15.63.77-.48a307.06,307.06,0,0,1-31.9,2.61c-5,.17-10,.2-15,.06l.39.14c0-1,0-2,0-3l-.93.49h0c.27,0,.92-.14.93-.49,0-1.39.08-2.78.18-4.16,0-.26-.38-.22-.55-.2q-11.34,1.82-22.64,3.93c-5.45,1-10.85,2.16-16.25,3.41a47.73,47.73,0,0,1-7.44.93,223.63,223.63,0,0,1-24.15.14A267.06,267.06,0,0,1,630.36,952a109.3,109.3,0,0,1-12.55-2.39,44.38,44.38,0,0,1-4.63-1.46c-.65-.25-1.3-.52-1.93-.83a3.61,3.61,0,0,1-.8-.43c-.26-.25-.15,0-.23-.41a5.61,5.61,0,0,1,.41-1.71l-1.19.39h0c.26.13,1.11,0,1.19-.39l.87-3.62-1.19.39,1.06.29c.27.07,1.13,0,1.19-.38l.23-1.4-1.19.39a194.24,194.24,0,0,0,20.27,4.17,209.57,209.57,0,0,0,37.36,2.66,250.32,250.32,0,0,0,38.89-4.41c11-2,21.86-4.46,33-5.76,10.1-1.19,20.24-2.12,30.38-3l-.38-.14.26,1.38c0,.14.29.15.38.14l1.46-.12C773.6,935.39,774.61,934.72,773.74,934.79Z"/><path class="cls-12" d="M697.5,896.78a1.14,1.14,0,0,0,1,.59,1.13,1.13,0,0,0,.53-.16,1.19,1.19,0,0,0,.42-1.61l-3.57-6.33q-1,.56-2,1.2Z"/><path class="cls-10" d="M696.9,897.08a1.9,1.9,0,0,0,3.41-.78,2.71,2.71,0,0,0-.56-1.61l-2.49-4.41-.74-1.31c-.16-.29-.67-.26-.9-.13-.72.42-1.43.85-2.13,1.3a.46.46,0,0,0-.15.63l3.11,5.52.45.79c.31.56,1.56,0,1.2-.6L695,891l-.45-.79-.16.63c.61-.38,1.22-.75,1.84-1.11l-.9-.12,3.46,6.14a1.16,1.16,0,0,1,.18.43.67.67,0,0,1-.24.68c-.26.13-.5-.15-.62-.34C697.76,895.94,696.51,896.47,696.9,897.08Z"/><path class="cls-12" d="M691.74,900.2a1.13,1.13,0,0,0,1,.59,1.16,1.16,0,0,0,.53-.16,1.2,1.2,0,0,0,.41-1.61L690.3,893l-1.89,1.36Z"/><path class="cls-10" d="M691.12,900.46a2,2,0,0,0,3.4-.72,2.17,2.17,0,0,0-.46-1.47l-2.4-4.25-.7-1.25c-.2-.34-.81-.22-1.07,0L688,894.11c-.08.06-.33.23-.25.38l2.9,5.14.43.75c.25.45,1.53,0,1.32-.36l-2.9-5.13-.43-.75-.24.38c.62-.46,1.25-.91,1.88-1.36l-1.07,0,3.34,5.92a1.43,1.43,0,0,1,.23.59c0,.2,0,.66-.27.75s-.49-.29-.59-.45C692.11,899.56,690.82,900,691.12,900.46Z"/><path class="cls-12" d="M683,898.32l3,5.3a1.12,1.12,0,0,0,1,.59,1.16,1.16,0,0,0,.53-.16,1.19,1.19,0,0,0,.42-1.61l-3.11-5.5Z"/><path class="cls-10" d="M682.32,898.5c1,1.75,1.95,3.52,3,5.25a1.83,1.83,0,0,0,2.41.58,1.52,1.52,0,0,0,.92-2.08c-.47-.9-1-1.76-1.49-2.64l-1.61-2.85c-.2-.36-.93-.07-1.18.11l-1.87,1.38c-.22.16-.14.35.1.4a1.37,1.37,0,0,0,.94-.25l1.87-1.39-1.18.11,2.88,5.1a2,2,0,0,1,.38,1,1,1,0,0,1-.19.59c-.07.09-.16.11,0,.11a.7.7,0,0,1-.23-.08,1.09,1.09,0,0,1-.41-.44c-.51-.87-1-1.75-1.48-2.63l-1.46-2.58C683.41,897.75,682.15,898.2,682.32,898.5Z"/><path class="cls-12" d="M680.2,907a1.13,1.13,0,0,0,1,.59,1.09,1.09,0,0,0,.52-.16,1.19,1.19,0,0,0,.42-1.61l-2.8-5-1.9,1.33Z"/><path class="cls-10" d="M679.54,907.22a1.51,1.51,0,0,0,1.48.68,2.39,2.39,0,0,0,1.78-.9,1.46,1.46,0,0,0-.11-1.6l-2-3.56-.63-1.12c-.16-.29-1,0-1.17.16-.63.44-1.26.89-1.9,1.32,0,0-.19.13-.15.2l2.71,4.82c.19.33,1.44-.16,1.32-.35l-2.71-4.82-.16.2c.64-.44,1.28-.88,1.91-1.33l-1.17.16c.93,1.64,1.87,3.26,2.78,4.92a1.16,1.16,0,0,1,.13.91,1.09,1.09,0,0,1-.14.31s-.1.11-.11.14l0,0,.24,0s-.35-.12-.39-.15a1.07,1.07,0,0,1-.33-.34C680.66,906.54,679.43,907,679.54,907.22Z"/><path class="cls-12" d="M674.43,910.46a1.14,1.14,0,0,0,1.05.59,1.16,1.16,0,0,0,.53-.16,1.2,1.2,0,0,0,.42-1.61l-2.62-4.62c-.64.41-1.29.83-1.95,1.23Z"/><path class="cls-10" d="M673.82,910.72c.69,1.12,2.55.83,3.19-.19a1.54,1.54,0,0,0-.06-1.66l-1.87-3.32-.61-1.07c-.2-.35-.79-.21-1.07,0l-1.95,1.24c-.09,0-.33.24-.25.38l2.57,4.57c.26.45,1.54,0,1.32-.35l-2.57-4.57-.25.38,2-1.24-1.08,0c.87,1.54,1.79,3.06,2.61,4.62a1,1,0,0,1,.06,1,1.37,1.37,0,0,1-.2.26s.07,0,0,0-.2-.06-.29-.12a1.13,1.13,0,0,1-.28-.34C674.81,909.82,673.53,910.25,673.82,910.72Z"/><path class="cls-13" d="M646.55,558.2s-2.83-29.94,28.81-37.58c55.28-13.36,226.92,31.09,226.92,31.09L646.55,558.2"/><path class="cls-19" d="M908.45,177.1a1.79,1.79,0,0,0,0,.23C908.46,177.23,908.48,177.15,908.45,177.1Z"/><path class="cls-4" d="M853.64,223.41l-26.07-1.14-13-3.06c-1.33,0-7-13.54-7.89-15.26-2.77-5.34-6.38-12.33-8.07-18.12-1.81-6.21-5.65-11.6-6.54-19.06-.65-5.47-.65-9.29,2.3-18.18a12.65,12.65,0,0,0,.24-6.94c-1.14-5.12-1.53-11.11-2.92-18-.11-.54-.72-3.14-.51-3.73,0,0-1-28.6,4.11-38.8s12.81-14.85,20.25-16.75S844.92,64,844.92,64l30.35-4.25,25.72,13,12.94,31.74-2.06,36.75-4,32.82"/><path class="cls-20" d="M903.27,138.44c-.16,2.85-3.76,17-4.09,19.76l14.53-.19c4.43-9.72,9.76-21.14,11.44-23.74,2.63-4.06-4.69-24.33-4.49-31.77l.05-1.61c.21-7.14-6.47-18.53-17.87-30.46-19.62-20.53-18.65-20.75-49.12-18.77-2.09.14-4.18.36-6.21.65-19.16,2.73-35.15,2.34-47.46,18.47-8.89,11.63-2.12-3-1.44,5.13.63-16.06-2.49-2.84-.84-4.71,9.7-11,14.36.84,19.07.16a15.77,15.77,0,0,1,7.8.8c4.64,1.09,9.13.51,14-.19,3.67-.52,12.94-2.58,13.73-2.75,2.48-1.72.4-11.4,5-12,10.57-1.51,25,3.29,30,5.72,6,2.87,20.37,9.11,18.26,25.44"/><path class="cls-20" d="M817.41,215.74a1.12,1.12,0,0,0,.49-.18c2.78-1.85,3-2.89,4.35-3.22a8.07,8.07,0,0,1,1.45-.32c3.91-.54,6.3-.94,16.76,5.82.21.14,13.94-1.58,14.21-1.6l7.1-3.36c1.19-.74,27.82-23.26,27.82-23.26.41-.76,5.23-6.12,5.42-6.84a1.92,1.92,0,0,1,.25-.12l.17-.07a1.27,1.27,0,0,0,0,.14,4.31,4.31,0,0,1,0,1,15.39,15.39,0,0,1-.75,4c-.62,2-1,4-1.53,6-.19.71-.42,1.4-.67,2.09-3,1.89-22.38,26.35-33.38,31.81a47.3,47.3,0,0,1-8.95,1.31c-11.25.92-22.11.87-33.16-2.43a10,10,0,0,1-6.36-5.66c-3.28-7.75-10.53-25-12.28-36.53,3,6.71,9.45,21.07,13.87,30.85.14.3,4.41.55,4.76.66"/><path class="cls-4" d="M904.59,177.74c11.7,11.62,14.11-8.08,14.11-8.08,8.12-10,8-20.65,7.68-27.91s-8.25-7.09-8.25-7.09c-6.7.79-9.67,4.46-15.1,27.39"/><path class="cls-20" d="M821.11,64.9c10.9-.1,39.58-7.48,54.38-8.29,6.13-.34,26.33,15.16,28.94,18.68,6,8-8.17,26.29,2.08,51.88,3.38,8.45,8.35-6.26,12.67-.7s6,7.8,6,7.8c3.43-24.38,3.34-23.53-1.78-47.67s-30.94-34.83-43.47-37-52.83,1.55-63.76,6.58"/><path class="cls-10" d="M909.57,157.85a61.37,61.37,0,0,1,4.91-9.1,20.68,20.68,0,0,1,3.68-4.29,7.18,7.18,0,0,1,1.18-.82l.21-.11c.08,0,.2-.08.11-.05l.18-.06s-.11.05,0,0,0,.08,0,0,.26,0,0,0a1.89,1.89,0,0,1-.22,0l.63,1.06a14,14,0,0,1,.59,9.27c-.06.26,1,.09,1.12-.2a14.36,14.36,0,0,0-.45-9.09c-.16-.38-.43-1.17-.8-1.41a.83.83,0,0,0-.58,0c-2.41.38-4.36,2.75-5.73,4.55A55,55,0,0,0,908.45,158c-.08.19,1,.1,1.12-.19Z"/><path class="cls-10" d="M911.23,159.78c4-.19-1.17,9.65,2.35,9.37.92-.07,1.4-1.09,1.7-1.83a23.42,23.42,0,0,0,1.29-4.95,17.89,17.89,0,0,0,.15-5.84c-.34-2.39-1.15-5.29-3.57-6.33-.49-.21-1.32.48-.66.77,2,.86,2.68,3.41,3,5.36a14.46,14.46,0,0,1,.15,4.5,32.23,32.23,0,0,1-1.1,5.34,9.9,9.9,0,0,1-.66,1.66c-.06.1-.31.35-.31.45s-.06,0-.07.07c.27,0,.34,0,.22-.07l-.07-.09c0-.29-.22-.6-.23-.93a9.65,9.65,0,0,1,.07-1.32c.11-1,.29-2.05.37-3.09.14-1.92-.16-4-2.55-3.91-.65,0-.87.88-.1.84Z"/><path class="cls-20" d="M851.32,135.88a4.34,4.34,0,0,1,4.72.8,4.23,4.23,0,0,1,1.3,2,4.47,4.47,0,0,1-1,4,4,4,0,0,1-4.63.88,4.53,4.53,0,0,1-2.26-5.22,4,4,0,0,1,1.84-2.46"/><path class="cls-20" d="M803.21,136.87a4.32,4.32,0,0,0-4.7.93,4.12,4.12,0,0,0-1.24,2,4.43,4.43,0,0,0,1.07,4,4,4,0,0,0,4.65.75,4.53,4.53,0,0,0,2.13-5.27,4.05,4.05,0,0,0-1.91-2.41"/><path class="cls-20" d="M817.17,143.08s-6.8-6.71-11.73-7.1c-7.18-.57-9,1.09-11.49,4.45,0,0,4.65-3.53,9.7-3C808.47,138,817.17,143.08,817.17,143.08Z"/><path class="cls-20" d="M840.45,141s10-6.56,14.9-6.75c7.2-.29,15.84,3.89,18.2,7.35,0,0-11.39-6.17-16.46-5.83C852.25,136.09,840.45,141,840.45,141Z"/><path class="cls-20" d="M838.58,113.21c-.18,1.72-.35,3.45-.52,5.18-.13,1.32-.52,4.32-.64,5.63,4.21-.68,8.07-2,10.77-2.15,5.35-.39,10.87-1.17,16.1.22a17.86,17.86,0,0,1,6.65,3.12c.63.49,2.25,2.5,3.3,2.13.43-.14,0-2.34-.07-2.56-.94-4.42-4.35-6.58-8.63-8.06-8.73-3-17.75-3.72-27-3.51"/><path class="cls-20" d="M789.94,122.4l2.62-1.62c7.24-4.53,15.23-6.87,23.59-8.34l1.56,5c.39,1.26,1.18,3.52,1.57,4.78-3.94.1-7.46-.16-9.93.14-4.91.6-10.1,1.16-14.53,3.48-.35.18-2.23,1.2-2.56,1.4C790.05,125.4,789.41,123,789.94,122.4Z"/><path class="cls-20" d="M838.26,196.87l-18.49-.72s4.45,7.19,9,7.13C831.55,203.24,835.29,200.12,838.26,196.87Z"/><path class="cls-12" d="M823.1,171.47a7.94,7.94,0,0,0,7.44-.58c.46-.31,2,0,1.38.39a11.15,11.15,0,0,1-10.12.63c-.27-.15-.23-.36.11-.48a1.73,1.73,0,0,1,1.19,0"/><path class="cls-12" d="M832.83,170.64a12.83,12.83,0,0,1,4.57-1.24,1,1,0,0,1,.7.22c.14.12.17.29,0,.39a4.88,4.88,0,0,1-2.51.63.92.92,0,0,1-.78-.3c-.15-.22.11-.37.32-.37a3.86,3.86,0,0,0,2-.51l.7.61a11.34,11.34,0,0,0-4.09,1.13,1,1,0,0,1-.84-.09c-.17-.1-.35-.34-.1-.47"/><path class="cls-12" d="M839.12,170.76c1.85-.07,4-.93,4.91-2.39,1.35-2.2,0-5.56-2.31-6.92-.25-.15-.12-.34.14-.4a1.42,1.42,0,0,1,1,.2,6.63,6.63,0,0,1,3.1,6c-.26,1.92-2,3.28-4.23,3.86a10.06,10.06,0,0,1-2.05.32c-.28,0-.79-.07-.93-.29s.12-.34.38-.35"/><path class="cls-12" d="M819.69,170.54a.25.25,0,0,0-.23-.36,2.09,2.09,0,0,1-1.45-.47l-.48.63a6.37,6.37,0,0,1,2.92,1,.51.51,0,0,0,.59-.11c.12-.1.24-.35.06-.47"/><path class="cls-12" d="M821.1,170.8a7,7,0,0,0-3.26-1.14.62.62,0,0,0-.5.24.27.27,0,0,0,0,.39"/><path class="cls-12" d="M815.85,170.85a3.78,3.78,0,0,1-3.25-2.28,5.77,5.77,0,0,1,1.37-6.18.23.23,0,0,0-.1-.4.7.7,0,0,0-.64.22,6.43,6.43,0,0,0-1.9,5.26,4.41,4.41,0,0,0,2.83,3.76,4.21,4.21,0,0,0,1.34.27.64.64,0,0,0,.6-.31c.09-.23-.08-.33-.25-.34"/><path class="cls-20" d="M815.28,69.45a6.8,6.8,0,0,1,3.19-1.09l1.24-.39c3.68,0,7.36.07,11,.27a7.82,7.82,0,0,1,2.68.47l.25.13c2.72-.09,5.45-.14,8.17-.12l1.25.34a7.48,7.48,0,0,1,3.18,1,1.08,1.08,0,0,1-.26,2c-1.12.35-2.76-.26-3.54.38s.76,1.75.26,2.58c-.32.52-1.31.69-2,1.06s-1,1.16-1.74,1.64a3.76,3.76,0,0,1-2.89.37c-1,.07-2.41-.36-2.74.36a1.22,1.22,0,0,0,0,.6,2.07,2.07,0,0,1-1.57,1.9,3.34,3.34,0,0,1-2.9-.43c-.72-.55-1-1.39-1.74-1.9a6.13,6.13,0,0,0-.81-.41,2.54,2.54,0,0,1-1,.56,3.31,3.31,0,0,1-2.9-.43c-.71-.55-1-1.38-1.74-1.89s-1.62-.62-1.94-1.23c-.5-1,1.11-2.16.26-3s-2.42,0-3.53-.44A1.32,1.32,0,0,1,815.28,69.45Z"/><path class="cls-20" d="M838.64,219.43a5.59,5.59,0,0,1-2.65.66l-1,.24c-3-.23-5.93-.54-8.87-1a6.25,6.25,0,0,1-2.14-.55l-.19-.12c-2.2-.11-4.4-.24-6.6-.44l-1-.36a6.07,6.07,0,0,1-2.52-1,.88.88,0,0,1,.35-1.61c.92-.21,2.21.39,2.88-.07s-.51-1.46,0-2.1c.29-.4,1.09-.47,1.63-.73s.91-.87,1.52-1.21a3.06,3.06,0,0,1,2.35-.11c.84,0,1.92.45,2.24-.11a1.12,1.12,0,0,0,.06-.48,1.66,1.66,0,0,1,1.39-1.43,2.68,2.68,0,0,1,2.31.54c.54.49.7,1.18,1.28,1.64a4.44,4.44,0,0,0,.63.39,2,2,0,0,1,.81-.39,2.68,2.68,0,0,1,2.31.54c.55.49.7,1.18,1.28,1.64s1.28.61,1.49,1.12c.35.8-1,1.67-.4,2.38s2,.19,2.83.59A1.07,1.07,0,0,1,838.64,219.43Z"/><path class="cls-21" d="M923.72,135.76a6.78,6.78,0,0,0,3.25-.63,2.42,2.42,0,0,0,1.23-2.83c-.69-1.65-3.64-2-3.42-3.77,1.49-1.7,4.93-1,5.8-3,.71-1.7-1.07-3.32-2.62-4.29,1.12-1,.77-.09,2.25-.43s2.38-3.92,1.57-5.22c-.91-1.47-1.45-.32-.87-2,1.18-.34-1.37-1.4-.46-2.24a2.81,2.81,0,0,0,.76-3.34c-.75-1.29-.59-2.23-.53-3.72.05-1.27-2.41-1.55-1.64-2.56,1.41-1.83-.37-4.37-2-6,1-.65-.2-.89.46-1.92a3,3,0,0,0,0-3.42,13.91,13.91,0,0,0-1.78-1.32c-2.34-2-.82-5.77.84-8.35a4.37,4.37,0,0,1-4.48-3.71,14.44,14.44,0,0,0-.24-3c-.34-1-1.68-1.63-2.34-.86"/><path class="cls-20" d="M923.57,136.66c2.34-.07,6.07-.82,6.14-3.85a2.94,2.94,0,0,0-1.46-2.4c-.4-.3-2.23-1.21-2.14-1.74.07-.38,2.1-.69,2.57-.83a5.5,5.5,0,0,0,2.69-1.48c2-2.27-.45-4.68-2.34-5.91l.06,1.07c-.93,0-1.17,0-.74.11a3.43,3.43,0,0,0,.34.06,3.61,3.61,0,0,0,.87,0,4,4,0,0,0,1.89-.59,4.62,4.62,0,0,0,1.74-2.63,5,5,0,0,0,.06-3.17,2.69,2.69,0,0,0-1-1.23,3,3,0,0,0-.39-.22c.13.42.21.48.23.18s.13-.41.2-.61l-.8.84c.64-.26,1.3-.79,1-1.54A2.72,2.72,0,0,0,932,112c-.37-.45-.38-.21-.17-.57.56-1,1.18-1.67,1.05-2.86a6,6,0,0,0-.6-1.61,4.75,4.75,0,0,1-.24-1.87c0-1,.13-1.67-.63-2.37-.25-.23-.71-.41-.9-.68s-.14-.14.12-.66c1.12-2.26-.83-4.7-2.35-6.19l-.38,1.11c.48-.38.93-.77.91-1.41,0-.2-.15-.39-.14-.57a3.55,3.55,0,0,1,.42-1,3.25,3.25,0,0,0-.93-4,6.51,6.51,0,0,1-1.83-1.5,3.55,3.55,0,0,1-.4-2.28,11.49,11.49,0,0,1,1.91-4.68c.49-.77-.66-1-1.14-1a3.44,3.44,0,0,1-2.81-1.81c-.72-1.25-.28-2.63-.58-4-.52-2.36-3.33-2.65-4.94-1.23-.48.42-.21,1,.31,1.17a2.08,2.08,0,0,0,1.94-.52l-.64.33.28.25c.08.25.24.46.31.74a10,10,0,0,1,.09,2.05,4.74,4.74,0,0,0,.89,2.61,5.59,5.59,0,0,0,4.85,2.18l-1.15-1c-1.38,2.19-3,5.5-1.6,8,.77,1.39,3,1.79,3,3.54,0,.78-.52,1.32-.7,2a1.79,1.79,0,0,0,0,.69,2.42,2.42,0,0,0,.1.36c0,.23.08.21.13-.08-.28.22-.75.75-.38,1.11,1.19,1.16,3.1,3.18,2.21,5-.27.57-.62,1-.24,1.59.25.41.74.62,1.1.92.69.58.44,1.19.44,2a5.32,5.32,0,0,0,.42,2.15,2.31,2.31,0,0,1,0,2.59c-.35.5-.89.86-.79,1.56a2,2,0,0,0,.71,1.12,3.11,3.11,0,0,1,.23.28q.28.39.51-.69c-.33-.09-.7.63-.8.84a1.47,1.47,0,0,0-.08,1.42c.35.47.88.47,1.13,1.12.34.9.08,3.19-.81,3.75.14-.09.38-.08.06-.13a3.6,3.6,0,0,0-.92-.1,3.64,3.64,0,0,0-2.08,1.07.65.65,0,0,0,.06,1.06c1.22.8,4,3.43,1.35,4.26-1.53.48-3.53.65-4.59,2s.82,2.59,1.77,3.21c.71.46,1.64,1,1.51,2-.2,1.49-1.92,1.43-3.06,1.47-1.48,0-2.18,1.85-.3,1.79Z"/><path class="cls-22" d="M920.24,78.13c-.27-1.36-1.36-7.85-1.63-9.21a3,3,0,0,1-3.86-2.64c0-.91.29-2-.44-2.59s-1.78.11-2.7.05c-2.06-.15-2.27-3.54-4.19-4.31-1.2-.48-2.61.28-3.83-.15-1.85-.65-2.08-3.48-3.86-4.3-1.23-.57-2.71.05-4-.34-2.8-.84-3.68-5.08-6.61-5.18-1.07,0-2.08.68-3.14.55-1.91-.21,1-2.16-.91-2.48-1.74-.29-3.17,1.54-4.93,1.7-2.86.25-4.65-4.62-7.33-3.58-1.15.44-1.8,1.75-2.94,2.24-2.64,1.15-5.28-2.72-8.09-2.11-1.41.3-2.45,1.7-3.89,1.85-2.24.24-3.89-2.59-6.13-2.47-1.79.1-3.16,2.07-4.94,1.92-1.25-.09,1.86-1.43.62-1.64-2.11-.36-3.74,2-5.84,2.37-1.76.34-3.45-.73-5.18-1.21s-5.63,2.88-5.73,4.69"/><path class="cls-20" d="M921.62,77.76c-.6-3.06-1-6.15-1.64-9.21-.1-.48-1.28-.23-1.51-.16-.94.28-2-1.11-2.25-1.85-.28-1,.27-2.15-.33-3a2.34,2.34,0,0,0-2.29-.66c-.56.07-1.07.34-1.6.07a2.88,2.88,0,0,1-.89-1c-1-1.48-1.56-3.1-3.56-3.28-1.1-.1-2.43.48-3.38-.26A9.2,9.2,0,0,1,902.48,56a3.8,3.8,0,0,0-1.64-1.56c-1.31-.56-2.69,0-4-.33-1.76-.47-2.74-2.54-3.91-3.76a4.81,4.81,0,0,0-5.14-1.18c-.27.08-1,.44-1.12.07-.06-.17.18-.51.24-.67.19-.51.35-1-.14-1.35-1.53-1.19-4.22.38-5.57,1.1-.83.44-1.33.19-2.07-.37s-1.35-1.21-2-1.79a4.37,4.37,0,0,0-4.55-1,6.23,6.23,0,0,0-2.34,1.52c-.3.29-.59.69-1,.74s-1.26-.46-1.63-.65c-1.71-.9-3.27-1.92-5.29-1.65a7.08,7.08,0,0,0-2.81,1.07,5.07,5.07,0,0,1-1.18.74c-.55.13-1.21-.34-1.67-.63-1.69-1.07-3.07-2.07-5.17-1.67a9.18,9.18,0,0,0-3,1.28,5.54,5.54,0,0,0-.63.38l-.29.15.28.26c.14,0,.48-.4.58-.49,1.9-1.64-1.38-1.5-2.43-1.21a12.21,12.21,0,0,0-3.16,1.6,2.34,2.34,0,0,1-2.15.5,18,18,0,0,1-2-.68,6.1,6.1,0,0,0-5.77.76c-1.42.91-3.41,2.51-3.62,4.32-.1.85,2.63.33,2.72-.42.18-1.58,1.93-3.12,3.27-3.78a.88.88,0,0,1,.26-.12c-.43.08,0,0,.13.13a13.34,13.34,0,0,0,2,.72,7.49,7.49,0,0,0,3.48.42,11.82,11.82,0,0,0,5.21-2.56c-.51.41-1.92,1.39-.7,1.78a4.69,4.69,0,0,0,2.76-.34,9.48,9.48,0,0,0,1.36-.66c.42-.25,1-.81,1.49-.87.81-.1,1.89.9,2.52,1.32a6.18,6.18,0,0,0,2.61,1.14,5.56,5.56,0,0,0,2.76-.43,7.65,7.65,0,0,0,1.3-.68,5,5,0,0,1,1.3-.79c.79-.16,2.05.74,2.69,1.09a9.85,9.85,0,0,0,2.65,1.18,5.74,5.74,0,0,0,5.1-1.57c.22-.21.42-.43.65-.63.41-.36.56-.16.06-.28a2.82,2.82,0,0,1,.78.33,13.72,13.72,0,0,1,2,1.72,5.09,5.09,0,0,0,4.35,1.61,8.7,8.7,0,0,0,2.9-1.08c.52-.28,1.59-1,1.28.06-.12.41-.49.85-.29,1.3.29.66,1.44.6,2,.56,1.08-.07,2.2-.82,3.22-.3a6.43,6.43,0,0,1,1.91,1.8c1.13,1.4,2.24,2.94,4.16,3.21,1.18.18,2.64-.34,3.66.4a6.83,6.83,0,0,1,1.57,2.18,4,4,0,0,0,2,1.92c1.24.45,2.67-.31,3.83.16,1.74.7,1.77,3.3,3.49,4.11a3.09,3.09,0,0,0,1.24.25c.52,0,1.31-.36,1.77-.25,1.08.27.44,2.35.67,3.15.65,2.26,3.29,2.76,5.27,2.17l-1.51-.16c.6,3.06,1,6.15,1.63,9.21.15.72,2.9.07,2.75-.74Z"/><path class="cls-23" d="M891.92,60.5c10.31,4.38,14.47,8.21,19.35,18.38l-59-22.54a52.85,52.85,0,0,1,12.92-1C876.32,56.07,881.62,56.13,891.92,60.5Z"/><path class="cls-20" d="M890.82,61.13c4.14,1.77,8.23,3.79,11.53,6.91s5.58,7.13,7.55,11.2l2.47-1-20-7.64L860.65,58.5l-7.3-2.78L852.05,57a52.92,52.92,0,0,1,11.64-1c3.29.13,6.6.37,9.88.68a58,58,0,0,1,17.25,4.44,2.38,2.38,0,0,0,1.94-.28c.33-.2.86-.72.26-1a59.78,59.78,0,0,0-18.1-4.61c-3.37-.31-6.76-.57-10.14-.7a56.65,56.65,0,0,0-12.32,1.08c-.33.06-2.38.91-1.31,1.32l20,7.64,31.72,12.11,7.3,2.78c.43.17,2.88-.15,2.47-1-2-4.17-4.33-8.3-7.73-11.51s-7.63-5.31-11.89-7.12a2.35,2.35,0,0,0-1.93.28C890.75,60.36,890.22,60.88,890.82,61.13Z"/><path class="cls-23" d="M806.46,59c.3-.12.59-.25.86-.39,1.43-.74,2.58-2.85,1.32-3.85,2.84,1.26,5-3.72,8.14-3.59a16.84,16.84,0,0,1,2.57.69A4.09,4.09,0,0,0,824,48a9.81,9.81,0,0,0,7.43,1l20.83,7.36c-9.27,1.72-18.75,4.95-27.64,5.84-4.28.42-8.64,1-12.5,2.89-2.82,1.38-6.38,2.09-9.28,3.57C804,65.43,805.22,62.22,806.46,59Z"/><path class="cls-20" d="M807,59.61c1.73-.75,5.07-3.27,2.9-5.35l-2.36,1.21a5.15,5.15,0,0,0,4.62-.65,17.2,17.2,0,0,0,2-1.52A5.42,5.42,0,0,1,816,52c.89-.19,2.06.6,3,.69a6.21,6.21,0,0,0,3-.48,5.23,5.23,0,0,0,3.4-4.45l-2.47.83a11.74,11.74,0,0,0,8.71,1.06l-1.28,0,18.21,6.45,2.62.92,1.28-1.43c-8.82,1.65-17.41,4.58-26.33,5.68-4.24.53-8.46.87-12.51,2.37-1.85.68-3.61,1.59-5.49,2.23a46.43,46.43,0,0,0-5.82,2.21l1.92.4c1.19-3.21,2.38-6.41,3.63-9.6.35-.89-2.39-.57-2.75.34-1.24,3.19-2.43,6.39-3.63,9.6-.32.87,1.63.54,1.92.4a43.54,43.54,0,0,1,5.5-2.1c1.85-.63,3.58-1.48,5.4-2.18,4-1.54,8.19-1.68,12.35-2.25,8.61-1.19,16.9-4,25.44-5.57.35-.06,2.42-1,1.27-1.43L833.2,48.55a5,5,0,0,0-1.25-.36c-1.06-.06-2.1.39-3.21.29a9,9,0,0,1-3.66-1.2c-.54-.31-2.43,0-2.46.84,0,1.5-1,3.4-2.8,2.93-1.55-.4-2.75-.84-4.35-.36a9.77,9.77,0,0,0-3.31,2c-.63.51-1.7,1.76-2.43,1.48-.52-.2-3.23.37-2.36,1.2,1.23,1.18-.37,2.66-1.45,3.13-.42.18-1.06.6-.73,1.11S806.63,59.78,807,59.61Z"/><path class="cls-6" d="M857.24,101s-28.52-3.94-48,.18"/><path class="cls-21" d="M801.22,197.24a29.57,29.57,0,0,0,3,8c-1,.3-.65,1.92.13,2.66s1.85,1.56,1.59,2.61c-.09.37-.34.68-.42,1-.26,1.16,1.12,1.92,2.24,2.25-.78.58-.17,1.86.58,2.49s1.7,1.44,1.41,2.38c-.14.46-.58.83-.58,1.31,0,1,1.63,1.06,2.15,1.92.3.5.14,1.15.26,1.72a1.86,1.86,0,0,0,2.81,1.06c.16,2.05,1,4.73,3,4.68,1.26,0,2.5-1.21,3.63-.66.71.35,1,1.23,1.64,1.67,2.17,1.51,5.06-3.1,7.23-1.59,1.16.81,1.05,2.92,2.38,3.42s2.42-1,3.75-1.09,2.88,1.4,4.19.76c.57-.27.89-.88,1.38-1.28,1.12-.92,2.19.55,3.55,1,2.44.85,2.71-.93,2.71-.93.78-1.72,1.73-1.56,3.33-.58a4.19,4.19,0,0,0,1.64.86c1.52.12,2.31-2.39,3.82-2.2a5,5,0,0,1,1.49.76c1.81.91,4.16-1.51,3.23-3.33a4.27,4.27,0,0,0,4.22-4.48,3.86,3.86,0,0,0,4.92-3.23c2.5.78,5.27-2.17,4.36-4.66a3,3,0,0,0,4-2.7c0-1-.37-2.23.45-2.75.54-.35,1.24-.08,1.88-.07a2.46,2.46,0,0,0,2.15-3.3c2.48.71,4.92-2.75,3.44-4.89,2,.51,3.83-2.21,2.68-3.89,2.71,0,4.66-3.6,3.2-5.91l-32.29,31.51-8.18,3.46s-28.67,1.72-34-.91S801.22,197.24,801.22,197.24Z"/><path class="cls-20" d="M799.85,197.6a30.45,30.45,0,0,0,3,8l.58-.57a1.64,1.64,0,0,0-1.17,1.87c.18,1.1,1.09,1.62,1.77,2.4a1.61,1.61,0,0,1,.42,1.79,2.25,2.25,0,0,0-.3,1.41c.28,1,1.59,1.54,2.49,1.84l-.12-.46c-1.55,1.58.89,2.81,1.63,4s-.43,1.5-.35,2.49c0,.63.58.9,1.08,1.18.84.47,1.18.75,1.27,1.75a2.19,2.19,0,0,0,.91,1.88c1.29.84,3.19.33,4.38-.42l-2.43.31c.19,1.95.84,4.67,3.2,4.88a5.7,5.7,0,0,0,2-.23c.37-.1,1.42-.7,1.71-.61,0,0,.69.91.69.91a5.27,5.27,0,0,0,.52.63,2.34,2.34,0,0,0,1.24.58c1.94.34,4.24-.93,5.75-2a2.46,2.46,0,0,1,.36-.17c-.64.15-.06,0,.14.26a5.62,5.62,0,0,1,1,1.58c.41,1,.85,1.82,2,2a5.85,5.85,0,0,0,3.34-.77,1.48,1.48,0,0,1,1.65,0,6.32,6.32,0,0,0,1.84.56,4.82,4.82,0,0,0,3.37-1,5.46,5.46,0,0,0,.79-.82l-.71.23a4.68,4.68,0,0,1,.54.3,8.51,8.51,0,0,0,1.63.87c1.63.57,4.21.26,5.09-1.42.05-.09.05-.2.09-.29l.16-.31c.37-.45.13-.5-.7-.15,0,.05.81.35.92.41,1.18.66,1.92,1.32,3.35,1.07a5.54,5.54,0,0,0,3-1.72s.59-.5.58-.56q-1,.18-.3.45a5.65,5.65,0,0,0,.58.36,3.23,3.23,0,0,0,1.5.3c2.14-.05,5.49-1.86,4.39-4.46l-2.26.94c3.12,0,6.63-1.91,6.48-5.43l-2.49.91c2.92.91,7-.9,7.41-4.14l-2.5.91c3.17.8,8-1.81,6.86-5.56l-2.49.91a5.74,5.74,0,0,0,4.56-.69,3.66,3.66,0,0,0,1.87-3.78c0-.19.08-1.33.09-1.32q-1.32.23-.36.27a3.19,3.19,0,0,0,.69,0,5.6,5.6,0,0,0,2.4-.63,3,3,0,0,0,1.71-3.61l-2.49.91c3,.67,8.07-2.27,5.93-5.8l-2.49.92c2.43.44,7-1.73,5.17-4.81l-2,.94c3.25-.15,7.16-3.33,5.16-6.85-.38-.67-2.23.08-2.61.46L876.9,204.58,859.56,221.5c-.16.16-.68.51-.19.26s-.24,0-.38.11l-1.52.64-6.06,2.56,1.39-.37a216.06,216.06,0,0,1-26.32.33,28.11,28.11,0,0,1-6.13-.84,7.7,7.7,0,0,1-3.55-2.74c-3.54-4.19-6.2-9.21-8.8-14q-2.84-5.22-5.41-10.57c-.33-.69-3,.24-2.74.73,1.42,3,2.93,5.94,4.49,8.86A107.73,107.73,0,0,0,813.11,221c1,1.38,2.23,3,3.82,3.83A14.61,14.61,0,0,0,822,226a131.75,131.75,0,0,0,16.86.38c4.1-.09,8.2-.2,12.29-.47a10.7,10.7,0,0,0,3.54-1.13c2.09-.88,4.21-1.7,6.26-2.64a5.26,5.26,0,0,0,1.45-1.17l3.06-3,10.23-10,11.12-10.84c2.24-2.2,4.58-4.33,6.75-6.6l.33-.31-2.62.46a3.57,3.57,0,0,1,.32,2.89c-.21.65-.93,2.05-1.56,2.08-.22,0-2.25.44-2,.94a2.2,2.2,0,0,1,.27,1.73,2.62,2.62,0,0,1-.35.78l-.23.31c-.31.23-.27.28.13.16-.31-.06-2.86.32-2.5.91a2.74,2.74,0,0,1,.31,2.33,3.71,3.71,0,0,1-.53,1,3.27,3.27,0,0,1-.47.51c-.22.27-.31.3-.25.09-.38-.09-2.74.21-2.5.91a2.1,2.1,0,0,1,0,1.65c-.11.28-.44.52-.53.76s-.18.17.06,0,.27-.17-.19-.16a4.45,4.45,0,0,0-3.13.74c-.84.62-.77,1.49-.71,2.43s-.18,2.91-1.46,2.47c-.39-.14-2.7.23-2.49.91.32,1.07-.19,4.17-1.87,3.74-.6-.15-2.4.13-2.49.91-.15,1.24-1,2.75-2.43,2.32-.5-.16-2.52.16-2.49.91a3.91,3.91,0,0,1-.45,2c-.24.46-.91,1.5-1.52,1.51-.31,0-2.52.32-2.26.94.36.84.18,2.32-.81,2.71.67-.27.14-.29-.19-.49a6.51,6.51,0,0,0-.73-.41,3.15,3.15,0,0,0-1.61-.15,5,5,0,0,0-2.47,1.07,6.1,6.1,0,0,0-1,.93c-.55.72.23-.15.22,0,0,0-.89-.6-.94-.64-1.63-1-4-1.21-5.38.34a2.61,2.61,0,0,0-.7,1.24c0,.06-.19.28-.18.3l.8-.25-.39-.07c-.29-.21-.77-.3-1.1-.49s-.54-.36-.83-.52a3.51,3.51,0,0,0-2.71-.31,4.54,4.54,0,0,0-1.45.66,3.63,3.63,0,0,0-.47.41l-.51.57c.58,0,.71-.07.37-.14a6,6,0,0,0-3-.83,5.82,5.82,0,0,0-1.66.27c-.36.11-1.6.91-1.93.86-.64-.1-1.08-1.88-1.35-2.39a2.4,2.4,0,0,0-1.78-1.34c-1.92-.34-3.75.86-5.32,1.79a3.58,3.58,0,0,0-.42.25l-.36.17q.51,0,.18-.09a7.92,7.92,0,0,1-1.22-1.17c-.91-1.06-2.14-1-3.42-.69-.49.13-1.22.64-1.7.61s-.92-.65-1.15-1a7.44,7.44,0,0,1-1-3.51c-.07-.66-2.17.15-2.43.31.87-.55.63-.1.09-.57a1.49,1.49,0,0,1-.43-.67c-.21-.6,0-1.26-.3-1.84-.44-.8-1.65-.8-2-1.56-.31-.59.37-1.14.48-1.7a1.69,1.69,0,0,0-.43-1.42c-.54-.69-2.73-2.09-1.69-3.15.2-.2.14-.37-.12-.45-.78-.25-2-.77-2-1.77s.78-1.38.31-2.37a8.74,8.74,0,0,0-1.52-1.7c-.2-.22-1.1-1.76-.62-2,.11,0,.7-.34.57-.57a30.73,30.73,0,0,1-3-8C802.45,196.25,799.69,196.93,799.85,197.6Z"/><path class="cls-24" d="M902.69,140.15c-2.73-2.92,1-8.18-1.1-11.61-.48-.8-1.24-1.41-1.64-2.25-1.1-2.37,1.1-5.26.2-7.71-.4-1.1-1.39-1.93-1.7-3.06-.59-2.16,1.46-4.26,1.31-6.5-.17-2.51-3.07-4.74-2-7,.5-1.12,1.82-1.72,2.26-2.87.76-2-1.4-4.73.17-6.17.55-.5,1.4-.6,1.85-1.19.92-1.17-.5-2.7-1-4.1s-.07-3.07-.19-4.61-1.49-3.28-2.91-2.69c.91-2.39-.33-9-2.86-8.84-1.24.1-2.86.65-3.48-.45-.44-.78.11-1.82-.25-2.64-.91-2.1-4.52.85-6.27-.6-.48-.39-.67-1-1.07-1.51-.9-1.07-2.55-1-3.9-.7s-2.73.92-4.09.61-2.47-2-1.59-3.13a10.7,10.7,0,0,1-4.6,1.63,3.74,3.74,0,0,1-3.84-2.48c-.5,2.31-4.06,3.1-5.48,1.21-.56-.75-.93-1.86-1.85-2a2,2,0,0,0-1.2.29c-1.66.84-4,5.85-5,7.47L853.49,59,882,55.91l22.88,15,7.7,30.2-11.16,41"/><path class="cls-20" d="M904,139.56c-1.44-1.67-.84-4-.54-6s.48-4.07-.67-5.82c-.73-1.1-1.72-1.86-1.72-3.3a24.43,24.43,0,0,1,.64-3.58,5.26,5.26,0,0,0-.4-3.27c-.62-1.2-1.69-2.13-1.49-3.59.3-2.29,1.92-4.06,1.13-6.47-.54-1.66-2.81-3.95-1.72-5.75.58-1,1.64-1.49,2.1-2.58a5,5,0,0,0,0-3c-.16-.73-.7-2.05-.22-2.74.27-.38.94-.52,1.33-.78a2.86,2.86,0,0,0,1.09-1.27c.46-1.16-.2-2.24-.73-3.25-.83-1.58-.6-2.94-.6-4.66,0-2.53-1.79-4.92-4.54-4.07l1.54,1c1.06-3.11.15-10.34-4.35-9.88-.44,0-1.45.4-1.85.13s-.13-1.65-.21-2.2a2.2,2.2,0,0,0-2.22-1.83,15.56,15.56,0,0,0-3.39.54c-1.45.22-1.61-1.45-2.66-2.14a6.15,6.15,0,0,0-4.69-.37c-1,.24-2.47,1-3.48.44a1.4,1.4,0,0,1-.66-2c.7-1.06-1.37-1.16-1.9-.87-1.93,1-5.51,2.68-6.47-.47-.38-1.21-2.51-.43-2.76.49-.49,1.76-2.32,1.28-3.11.1-.51-.78-.93-1.57-1.89-1.85a3.91,3.91,0,0,0-3,.56,10.14,10.14,0,0,0-3,3.61c-.85,1.41-1.57,2.88-2.39,4.3h2.68l1.09-10.26-1.52,1.06,25-2.67,3.52-.38-.92-.18,18.48,12.08,3.75,2.45s.62.43.63.42c-.15.15-.34-.8-.17.09.64,3.27,1.66,6.51,2.48,9.73l3.5,13.68,1.2,4.71c.11.43.18.88.33,1.29s0,.29.05.1c-.42,2.12-1.15,4.23-1.72,6.31L906,120.45l-3.67,13.44c-.71,2.61-1.56,5.23-2.14,7.87,0,.13-.07.25-.1.38-.34,1.23,2.46.89,2.77-.24l7.26-26.66,3.6-13.2a3.16,3.16,0,0,0,.19-1.71c-.37-1.7-.86-3.38-1.29-5.06l-4.45-17.44-1.59-6.23a2.43,2.43,0,0,0-1.12-1.85L892.65,61.4l-7-4.59c-1-.63-2.25-1.86-3.47-1.84s-2.48.26-3.7.39l-8.35.89-15.52,1.67-1,.1c-.55.06-1.45.4-1.52,1.06L851,69.34c-.14,1.4,2.27.73,2.69,0,.85-1.46,1.59-3,2.48-4.43a12.38,12.38,0,0,1,1.49-2.09s.3-.39.4-.38c.29,0,.78,1.12.93,1.35,2.08,3,7.38,1.7,8.31-1.66l-2.76.49a4.54,4.54,0,0,0,3.89,3c2.32.33,4.52-.71,6.51-1.78L873.07,63a2.54,2.54,0,0,0,.57,3.28,4.69,4.69,0,0,0,4.19.88c1.4-.26,3.65-1.5,4.86-.22.52.56.71,1.29,1.36,1.75a3.26,3.26,0,0,0,1.57.52,12.06,12.06,0,0,0,3.48-.51c1.44-.27.73,1.36.92,2.31.28,1.37,1.65,1.75,2.89,1.71.52,0,1.65-.3,1.9-.23a6.28,6.28,0,0,1,.62.66,9.15,9.15,0,0,1,1.15,7.12c-.32,1,.81,1.22,1.54,1,.4-.12,1,1,1.06,1.18a4.12,4.12,0,0,1,.24,1.6,11.49,11.49,0,0,0,.19,4c.33.92,1.31,1.94,1.3,2.93s-1.64,1.25-2.17,2c-1.27,1.69.08,3.6,0,5.42,0,1.15-.94,1.68-1.62,2.46a3.66,3.66,0,0,0-1,2.7c.16,2.06,2,3.55,2.22,5.58s-1.55,4-1.38,6.12a6.59,6.59,0,0,0,1.37,2.93,4.64,4.64,0,0,1,.41,3.73,13.56,13.56,0,0,0-.49,3.21,4.9,4.9,0,0,0,1.35,3.1c1.62,2,1.26,4.08.9,6.48-.32,2.1-.57,4.36.92,6.09.76.88,3.38-.18,2.52-1.18Z"/><path class="cls-21" d="M902.43,158.83,900,159a1.16,1.16,0,0,1-.74-.11c-.52-.35-.19-1.15,0-1.76.42-1.41-.31-2.87-.88-4.23s-.93-3.09.06-4.18c.52-.57,1.39-.93,1.5-1.7.15-1-1.07-1.57-1.71-2.35a2.47,2.47,0,0,1,1.22-3.78s-1.69-2-.93-5.83,2-7.9,2-7.9l5.77-3Z"/><path class="cls-20" d="M903,158.22a9.15,9.15,0,0,1-1.94.14c-.37.17-.6.07-.7-.29a2.25,2.25,0,0,1,.15-.82,5.09,5.09,0,0,0,0-2.6c-.49-1.82-2.41-4.4-.71-6.12.53-.53,1.29-.9,1.45-1.71a1.81,1.81,0,0,0-.75-1.63c-.57-.59-1.25-1-1.39-1.85-.1-.6.09-1.82.79-2,.28-.1,1.12-.48.79-.88-1.3-1.59-1.15-4.15-.77-6,.51-2.52,1.17-5,1.92-7.46l-.55.47,5.78-3-2.17,0-3.4,30.42-.48,4.27c-.09.8,2.64.28,2.72-.45l3.4-30.41.48-4.27c.09-.82-1.85-.19-2.17,0l-3.74,2c-1,.51-2.4.91-2.74,2a43,43,0,0,0-2,8.72,6.9,6.9,0,0,0,1.19,4.77l.79-.87c-1.61.52-3.1,2.14-2.44,3.94.34.91,1.25,1.27,1.78,2,.87,1.23-.89,1.85-1.44,2.76-1.41,2.33.94,4.69,1.13,7,.07.87-.88,2.48,0,3.16s2.9.13,3.87,0c.51,0,1.55-.18,1.83-.68S903.45,158.18,903,158.22Z"/><path class="cls-24" d="M811.15,63.8c.31.81-.79,1.41-1.64,1.48s-2,.2-2.14,1c-.11.52.25,1.06.15,1.58-.32,1.61-3.36.14-4.25,1.51-.67,1,.58,2.75-.37,3.5-.46.36-1.11.2-1.68.22A2.47,2.47,0,0,0,799,74.9c-.2.72-.08,1.56-.51,2.17s-1.56.82-2.39,1.18c-2.18.93-2.76,3.74-2.88,6.13S793,89.51,791.15,91c-1.61-1.5.22-2.92,1.6-4.64A12.35,12.35,0,0,0,794,84.85a1.51,1.51,0,0,0-.11-1.84c-.24-.22-.6-.32-.74-.62-.4-.85,1.18-1,1.93-1.55,1-.68.45-2.2-.23-3.16s-1.47-2.22-.83-3.21,1.93-.89,2.5-1.75-.09-2.32.21-3.46c.41-1.51,2.32-1.89,3.86-2a2.46,2.46,0,0,1,1.18-3.69c.59-.17,1.29-.14,1.69-.6.6-.7,0-2,.75-2.57s1.57,0,2.2-.42c1-.69-.13-2.42.45-3.5.78-1.43,3.92-.75,3.81-2.37"/><path class="cls-20" d="M809.78,64.16c.11.53-.31.37-.68.42a6.69,6.69,0,0,0-1.32.32,2.69,2.69,0,0,0-1.69,1.34,2.31,2.31,0,0,0,0,1.25c-.12.62.07.78.59.47a1.7,1.7,0,0,1-.39,0,9.13,9.13,0,0,0-1.88.11c-1.52.26-2.81,1.12-2.68,2.79a4.77,4.77,0,0,0,.18,1.2q-.18.66.57.3c-.24,0-.47,0-.71,0a5.16,5.16,0,0,0-2.48.71,3.68,3.68,0,0,0-1.51,1.68,6.92,6.92,0,0,0-.28,1.44c-.14.71-.23.88-.89,1.13-1.65.65-2.94,1.31-3.77,3a12.52,12.52,0,0,0-1,5c-.11,1.91-.24,4.15-1.77,5.5l2.37-.31c-2-2.08,3.17-4.55,3.24-6.77a1.54,1.54,0,0,0-.6-1.32,5.29,5.29,0,0,0-.68-.37,6.63,6.63,0,0,1,.8-.34A2.6,2.6,0,0,0,797,79.46c0-1.42-1.09-2.34-1.59-3.56-.31-.73-.29-1.34.42-1.75a8.09,8.09,0,0,0,1.62-1c.9-.87.73-1.91.64-3-.14-1.74.85-2,2.34-2.1.5,0,1.95-.56,1.46-1.3s-.52-2.07.27-2.54c.32-.18,1-.17,1.38-.32a2.92,2.92,0,0,0,1.13-.77,2.08,2.08,0,0,0,.48-1.14,3.64,3.64,0,0,0,.06-.8c-.05-.44.34-.4-.26-.33-.87.11.15.13.34.12a4.93,4.93,0,0,0,.66-.07,3.53,3.53,0,0,0,1.58-.67,2.11,2.11,0,0,0,.68-2c-.07-.75-.38-1.56.37-1.93,1.15-.56,3.44-.5,3.48-2.3,0-1.12-2.72-.56-2.74.35,0,.46.22.23-.15.34s-.8.19-1.19.31a4.37,4.37,0,0,0-2.17,1.25,3,3,0,0,0-.38,2.41,4.9,4.9,0,0,0,0,.77c-.08.32.1.33.54,0h-.34a4.21,4.21,0,0,0-1.72.29,2.32,2.32,0,0,0-1.52,2.13,2.59,2.59,0,0,1-.08.79l.16.1-.43.08a7.11,7.11,0,0,0-1.41.48,3.15,3.15,0,0,0-1.34,4.54l1.46-1.3a8.39,8.39,0,0,0-4.06,1.17,3.2,3.2,0,0,0-1.37,3.37c.09,1,.17,1.54-.77,2A4.86,4.86,0,0,0,793,74.21c-1.13,1.35-.13,2.76.64,4,.31.51.9,1.47.61,2.09s-1.22.67-1.68,1a1.56,1.56,0,0,0-.8,1.07c0,.85.91.88,1.13,1.57.28.85-.65,1.57-1.14,2.12s-1.26,1.39-1.8,2.13c-.85,1.15-1.1,2.27-.06,3.37.55.59,1.88.13,2.37-.31,2.37-2.09,2.12-5.15,2.43-8a6.88,6.88,0,0,1,1.38-3.93c.94-1,2.56-.85,3.51-1.93a3.25,3.25,0,0,0,.69-1.88c.14-.94.3-1.53,1.31-1.54,1.25,0,2.88-.55,3.07-2a7.73,7.73,0,0,0-.17-1.66c0-.18.09-1-.07-.8s-.2.06,0,0a4.51,4.51,0,0,1,.52,0,5.22,5.22,0,0,0,3.26-.78,1.65,1.65,0,0,0,.69-1.5c0-.22-.28-1-.16-1.15s.89-.11,1.07-.14c1.19-.24,3-1,2.73-2.53-.19-.94-2.95-.26-2.75.73Z"/><path class="cls-25" d="M906.21,144.31l-.06-3.34-34.1-10h0c-12.18-4.85-29.38-1.5-39.38,4.92l-8.79.42.08-.13c-10.2-7.63-27.18-8.83-40.23-2.86l.34,1.39h0c0,.08.1.28.16.57l.32,1.21c1.91,7.68,4.15,15.81,6.28,17.95,1.43,1.44,6.15,2.15,10,2.47,1.47.14,2.81.21,3.78.26,1.16,0,11.48.45,13.21-1.16s4.74-13.67,5.6-17.48l9-.4c1.13,3,3.4,15.73,7.77,18.33s26.89,1.64,29-1.5c1.49-2.25,5.76-10.38,6.88-14.56L878,135Zm-89.38,10.5c-1.89,1.54-22.43.95-24.91-1.54-2.09-2.1-4.82-13.06-5.85-17.18v-.17c11.66-4.69,27-3.63,35.84,2.82-1.62,6.58-4,15-5.07,16Zm49.74-.78c-1.31,2-21,3.69-25.5,1-3.14-1.86-5-11.19-6.41-16.54,9.78-6.08,29.83-8.67,40.65-3.63-2,6.58-5.07,14.32-8.74,19.16Z"/><path class="cls-26" d="M816.62,154.6c1.08-1,3.44-9.46,5.06-16-8.87-6.45-24.18-7.51-35.83-2.83v.17c1,4.12,3.76,15.08,5.85,17.19,2.48,2.49,23,3.08,24.92,1.53Z"/><path class="cls-26" d="M866.57,154c3.91-5.29,6.75-12.58,8.74-19.16-10.82-5-30.87-2.45-40.65,3.63,1.46,5.35,3.27,14.68,6.41,16.54,4.52,2.68,24.19,1,25.5-1Z"/><path class="cls-6" d="M833.88,112.43s-8.94,6.47.27,10.88C834.15,123.31,829.84,119.17,833.88,112.43Z"/><path class="cls-6" d="M822.76,123.43c8.76-5.26-.74-10.86-.74-10.86s2.42,4.58,2,6.51S822.76,123.43,822.76,123.43Z"/><path class="cls-27" d="M826.66,181.78c6.74,0,21.62,3.93,24.62,6.42,0,0-7.71,5.08-23.34,5.08s-18.22-5.1-18.22-5.1S818.07,181.77,826.66,181.78Z"/><path class="cls-28" d="M844.92,185.44s-8-.62-14.42-.63-14.42.61-14.42.61-1-4.55,10.58-4.55S844.92,185.44,844.92,185.44Z"/><path class="cls-29" d="M827.93,191.26c7.32-1,14.81-3.57,23.35-3.06,0,0-2.41,9.34-20.79,9.33s-20.77-9.35-20.77-9.35C818.25,187.68,820.61,190.27,827.93,191.26Z"/><path class="cls-29" d="M818.67,178.3c3.86-.27,6.31,1.12,8,1.12s4.13-1.39,8-1.12c3.61.26,18.91,8.7,17.2,9.79S838.28,183,826.66,183s-15.8,6.18-17.51,5.09S815.05,178.55,818.67,178.3Z"/><path class="cls-20" d="M854.08,181c1.1,1,2.28,2.1,2.39,3.57a5.78,5.78,0,0,1-.18,1.6l-.5,2.44a1,1,0,0,1-.18.45,1,1,0,0,1-.48.23,3.87,3.87,0,0,1-1.68.18,1.35,1.35,0,0,1-1.14-1.12,1.87,1.87,0,0,0,0-.71c-.18-.42-.77-.36-1.21-.48-1.11-.28-1.35-1.72-1.84-2.77a5.88,5.88,0,0,0-3.55-2.83,11.08,11.08,0,0,1-2.19-.82,2.25,2.25,0,0,1-1.22-1.9"/><path class="cls-20" d="M805.05,180.66c-1.08,1-2.25,2.13-2.33,3.61a5.34,5.34,0,0,0,.2,1.59l.54,2.43a.9.9,0,0,0,.18.45,1.07,1.07,0,0,0,.48.23,3.9,3.9,0,0,0,1.69.15,1.35,1.35,0,0,0,1.12-1.14,1.82,1.82,0,0,1,0-.7c.18-.42.77-.38,1.21-.5,1.1-.3,1.31-1.74,1.79-2.8a5.88,5.88,0,0,1,3.51-2.88,12.05,12.05,0,0,0,2.18-.86,2.25,2.25,0,0,0,1.19-1.91"/><path class="cls-20" d="M854.45,178.47a3.85,3.85,0,0,0-2.52-1.54c-.57-.1-1.31.07-1.73-.35s-.51-.88-.87-1.25a3,3,0,0,0-2.88-.71,7.32,7.32,0,0,0-1.7.6c-.9.44.21,0,.24.11s-.67-.36-.7-.37a3.53,3.53,0,0,0-2.36-.94,4.67,4.67,0,0,0-1.6.41,4.47,4.47,0,0,0-.71.4l-.22.16c.85-.1,1-.27.52-.51a6.7,6.7,0,0,0-1.08-1.12,2.5,2.5,0,0,0-1.3-.69,4.36,4.36,0,0,0-1.76.12c-.33.08-.64.23-1,.31s-.2.18-.45-.22c-.46-.72-3,.31-2.74.74a2.29,2.29,0,0,0,2.47.71,5.93,5.93,0,0,0,.73-.16c.16,0,.8-.39,1-.34,0,0,.48.5.48.5.22.21.41.46.62.69a2.86,2.86,0,0,0,2.88.88,4,4,0,0,0,1.76-.74l.21-.16c-1.09,0-1.41.1-1,.29.09.14.47.3.62.41a3.42,3.42,0,0,0,2.56.8,5.8,5.8,0,0,0,1.74-.5l.78-.38c-.6,0-.72.09-.37.21a1.06,1.06,0,0,1,.41.26c.89.69.89,1.78,2.16,1.94a6.37,6.37,0,0,1,1.79.23,3.32,3.32,0,0,1,1.39,1.18c.41.56,3-.32,2.58-1Z"/><path class="cls-20" d="M822.9,173.41a3.67,3.67,0,0,0-3,.32,12.81,12.81,0,0,1-1.3.74c-.07,0-.34.09-.15.07a6,6,0,0,1-.73-.07,3,3,0,0,0-2.64,1l-.14.19c-.34.34-.16.3.54-.1a3,3,0,0,0-.65-.31,6.46,6.46,0,0,0-.83-.42,2.92,2.92,0,0,0-1.87-.06,2.8,2.8,0,0,0-1.3.83c-.07.08-.78,1-.72,1.12s0,.1.16,0,.25-.08,0-.06a2.55,2.55,0,0,0-.74-.1,4.79,4.79,0,0,0-1.73.12,3,3,0,0,0-1.4.77,2.08,2.08,0,0,0-.39.53c0,.15-.1.3-.16.46-.15.39,0,.37.53-.06a2.77,2.77,0,0,0-1.2.29,1.65,1.65,0,0,0-1,1.17c-.27,1.26,2.53.9,2.77-.25l0-.14-.25.48c-.83.28-1.06.39-.69.34l.27,0a4.7,4.7,0,0,0,.63-.13,2.43,2.43,0,0,0,1.26-.79,1.87,1.87,0,0,0,.33-.68l.05-.21c.1-.23.06-.26-.13-.1-.65,0-.07.12-.09.1a4,4,0,0,0,.69.09,3.9,3.9,0,0,0,2.93-.71,3.49,3.49,0,0,0,.8-1c.05-.08.25-.32.24-.42s0-.16-.37,0c-.48,0-.55.1-.2.22a3.85,3.85,0,0,0,1.16.59,3.33,3.33,0,0,0,1.56.22,3.15,3.15,0,0,0,1.44-.53,2.7,2.7,0,0,0,.57-.55l.14-.19c-.46.11-.5.17-.13.17a4.09,4.09,0,0,0,2.65-.48c.4-.2.76-.45,1.15-.66a3.42,3.42,0,0,1,.43-.21c-.16.07-.49,0-.13.12,1.07.45,3.19-1.1,1.61-1.75Z"/><path class="cls-20" d="M830.06,175.35l.77,3.82a1.38,1.38,0,0,0,1.18,1.1c4,.51,19.34,2.42,23,2.32.09,0-.3,1.53-.22,1.51l.86-.07c1.35-.29.3-4.9-1-5.39a76.68,76.68,0,0,0-9.68-3c-2.73-.6-10.3-2-13.59-2A1.39,1.39,0,0,0,830.06,175.35Z"/><path class="cls-20" d="M825.32,175.83l-.08,3.54a1.39,1.39,0,0,1-1.09,1.14c-3.73.63-16,2.74-19.36,2.76l-.23,0-1.08-.22c-1.26-.24-.59-3.11.62-3.64a61.1,61.1,0,0,1,8-3.12c2.53-.69,8.92-2.06,12-2.08A1.33,1.33,0,0,1,825.32,175.83Z"/><path class="cls-16" d="M641.13,573.17s-14.27-57.43,60.54-46.89c0,0-78.62-15.47-64.25,46.89Z"/><path class="cls-5" d="M765.46,494.17s-16.17,21.34-15.82,25.77c.13,1.65-.62,2.2.65,2.29,4.05.27,3.67.84,8.47,1.8,1.78.36,18.07,2.17,19.35,2.6,4.06,1.38,17-.31,17-.31Z"/><path class="cls-15" d="M858.48,360a.49.49,0,0,0-.17,0c0,.22-.14.43,0,.64Z"/><path class="cls-15" d="M845,421.65a.53.53,0,0,0,.15.08l.09-.41Z"/><path class="cls-30" d="M808.77,349.12H809l-.21-.14A.14.14,0,0,0,808.77,349.12Z"/><path class="cls-30" d="M840.69,356.08l-.2-.16-.08.11Z"/><path class="cls-30" d="M809.46,349.22l.3.06A.2.2,0,0,0,809.46,349.22Z"/><path class="cls-30" d="M857.78,359.85a.16.16,0,0,0-.26-.06Z"/><path class="cls-5" d="M1017.9,472.89c-4.37-6.44-11.57-1.42-16.35-7.48-5.2-6.59-15.67-5.73-21.92-11.07-4.92-4.21-13.9,8-19.4,4.79l5.71-74.42-9.08-26.8s.53-29.21,10.57-53.57S988.62,249,988.62,249s24.39,6.91,33.84,50.51c4.5,20.73,6.35,78.17,6.35,78.17s3.7,63.32,3.25,76.67c-.9,26.45-9.79,46.16-22.79,56.3"/><path class="cls-5" d="M872.89,541.91l39.53-24.2L951.94,484c6.65-2.12,5,3.13,11.91,2.32,7.56-.89-17.48-33.33-9.9-32.87,7.29.45,24.71-1.17,31.93-.12,7.45,1.09,22.19,6.6,29.36,8.95.91.3,11.67,3,12.57,3.31-.88,4.31-11.83,37.89-15.13,42.23-15.75,20.7-87.51,60.87-87.51,60.87L902.85,580Z"/><path class="cls-4" d="M809.22,594.17c-2.74-1.07-5.27-2.54-6-5.64-.28-1.22.71-1.67,1-3.1l19.71-23.86c-5.32-2.15-15.53,7.85-20.34,4.71s.93-6,1.9-7,20.08-13,20.08-13,19.56-4.4,24.34-4.3S868,544.37,868,544.37L874,545s16.16,20.21,21.35,27.67c.49.7-9.88,4.36-14.79,9.94s-18.06,13.08-18.06,13.08-24.18,8.22-27.63,7.76-8.58-5.15-8.58-5.15a25.18,25.18,0,0,0-6.52.83c-5.86,1.06-10-5.27-10-5.27l.05,0Z"/><path class="cls-6" d="M821.45,564.57a80.43,80.43,0,0,0,8.77-7.3,45.38,45.38,0,0,0,8.36-7.85,47.67,47.67,0,0,0-9.28,6.75A32.53,32.53,0,0,0,821.45,564.57Z"/><path class="cls-6" d="M838,573.33c-.22-.41-6.78,3.52-13.94,9.43-3.62,2.92-6.82,5.66-9.16,7.61a22.75,22.75,0,0,0-3.7,3.3,14,14,0,0,0,4.31-2.51c2.51-1.73,5.82-4.34,9.43-7.26C832.15,578,838.21,573.62,838,573.33Z"/><path class="cls-6" d="M847.48,582.62c-.29-.29-4.51,3.82-10.32,8.08s-11,7.1-10.92,7.39a34.86,34.86,0,0,0,11.65-6.32A35.53,35.53,0,0,0,847.48,582.62Z"/><path class="cls-7" d="M961.56,408.44c-.63-6.1-2.12-32.11-2.6-36.69-.51-5.32-.93-9.39-1.21-12.52a28.89,28.89,0,0,1-.28-3.13c0-.39-.66-16.79-.61-17.17.09.36.78,16.74.79,17.11.1.72.24,1.79.44,3.14.37,3.13.89,7.24,1.55,12.53.45,4,2.43,28.34,3,33.53C962.46,406,961.75,407.69,961.56,408.44Z"/><path class="cls-7" d="M879.51,551.74c-2.58-3.25-5.13-6.48-7.5-9.5l-.64-.54.68-.49L906.13,516l38.77-39.75a2.81,2.81,0,0,1,.2.57l.23.67-38.17,39.65L873.8,541.89c2.23,2.85,4.6,5.85,7,8.86l22,28.44c25.36-13.51,56.06-32.47,82.11-47.74.31.26.12.81.43,1.07-27,16.2-56.62,34.72-82.29,48.42l-.58.32-.5-.41C894.73,571.69,887.39,561.67,879.51,551.74Z"/><path class="cls-7" d="M998.27,459.68a43.39,43.39,0,0,0-31.75-3.63c.08.48,7.3-.65,16.07.41S998.1,460.13,998.27,459.68Z"/><polygon class="cls-7" points="943.86 477.34 965.95 455.99 961.09 402.61 962.52 401.35 967.65 456.48 943.86 479.03 943.86 477.34"/><path class="cls-7" d="M980.76,254.44s-30.16,7.87-23.9,62.24C956.86,316.68,943.49,266.07,980.76,254.44Z"/><path class="cls-15" d="M488.53,458.75a.33.33,0,0,1-.15.05l0-.39Z"/><path class="cls-15" d="M572.53,385.74a.53.53,0,0,0,.15.08l.09-.41Z"/><path class="cls-4" d="M511.9,844.69s26.28,22.68,41.47,38.26l-.28,2s-4.4,12-13.22,11.16-57.46-34.7-57.46-34.7l2.91-15.85Z"/><path class="cls-31" d="M580.59,911.87s3.7-5.38-.44-8.37S554.48,882.13,551.9,882c-.39,1.81-3.2,3.62-8.84,3.9s-12,.86-24.81-5.22c-9.62-4.55-29.53-13.45-37.36-21.22-2.61-2.6-5.58-9.86-5.56-10.81-13.6,9.75-13.54,23.79-9.46,28.28s32.23,14,32.23,14L522,903.55l23.68,7.25,10.13,2.34,12.51,1.24Z"/><path class="cls-32" d="M464.93,875.33c2.86,1.9,12.46,6.18,21,8.54,22.9,6.34,29.91,11.32,37.13,15.73a98,98,0,0,0,12.83,6.95c25.75,11.51,43.82,5.51,44.47,5.24a2.91,2.91,0,0,1,.4,1.52,21.29,21.29,0,0,1-6.45,2.34c-8.4,1.56-20.19,2.81-40.24-5.67-5.68-2.4-9.13-3.74-12.73-6-5.41-3.31-11-6.71-23.68-11l-.9,4s-24.64-5.28-34.49-13C462.92,877.76,464.93,875.33,464.93,875.33Z"/><path class="cls-32" d="M462.86,880.47c13.72,7.61,29.62,11.77,34.67,13.08l-.79,3.53s-24.64-5.28-34.49-13A28.49,28.49,0,0,1,462.86,880.47Z"/><path class="cls-8" d="M354.09,655.72c36.39,0,72.79-4.25,109.18-4.43,7.9,0,15.17,1.58,15.78,8.45,1.59,17.7,3.82,36.83-23.56,34.94-2.08-.15-4.24.22-6.29-.06-9.53-1.3-11,2.55-9.75,9.34,4.07,22,7.79,38.82,11.53,60.87,8.77,51.83,17.61,103.66,26.12,155.53,2.35,14.31,1.85,14.18-16.41,13.91-5.64-.09-8-1.5-8.8-6.25-8.39-51-17.11-102-25.43-153-1-6-3.24-8.28-11-8.21q-60.89.5-121.77,0c-8-.06-10.73,1.93-11.8,8.51Q270.08,848,257.39,920.53c-2.46,14.21-2.82,13.86-20.54,13.65-7.1-.09-7.92-2.13-7-7.3,13.11-75.84,25.94-146.51,39.08-222.35,1.35-7.78-.71-11.5-11-10.14-3.41.45-7,.08-10.48.07-15.54,0-18.59-7.89-18.61-21.28,0-14.57,2.83-21.67,18.18-21.68q53.53,0,107.08,0Zm59.57,93.83c7.87.17,9.48-2.12,8.38-8-3.19-17.13-6.07-22-8.77-39.16-.89-5.7-3.1-8.2-11.07-8.08-32.14.49-64.31.43-96.45,0-7.36-.09-9.62,2.19-10.48,7.57-2.82,17.75-5.79,23.17-9,40.88-1.06,5.72,1.71,6.84,7.92,6.76,20.27-.24,40.54-.09,60.81-.09C374.52,749.41,394.1,749.13,413.66,749.55Z"/><path class="cls-14" d="M450.9,764.9q2,12,4.06,24c-8.5,1.63-16.95,3.56-25.39,5.56-1.06-6.46-2.14-12.92-3.19-19.38-1-6-3.23-8.28-11-8.22q-60.89.5-121.77,0c-8-.07-10.73,1.92-11.8,8.51-1,6.26-2,12.53-3.08,18.8a233.94,233.94,0,0,1-23.84-9.92c4.64-26.21,9.29-52.6,14-79.66a14.66,14.66,0,0,0,.05-6.3q8.33.56,16.66.85,5.11.2,10.23.3a16.8,16.8,0,0,0-.58,2.48c-2.82,17.76-5.79,23.18-9.05,40.88-1.06,5.73,1.71,6.84,7.92,6.77,20.27-.25,40.54-.09,60.81-.09,19.57,0,39.15-.29,58.71.14,7.87.17,9.48-2.12,8.38-8-3.19-17.13-6.07-22-8.77-39.17a10.81,10.81,0,0,0-2-5.33c9.64-.29,19.28-.52,28.92-.63-1.31,1.66-1.36,4.27-.75,7.59C443.44,726,447.16,742.86,450.9,764.9Z"/><path class="cls-14" d="M479.37,663.35S363.12,684.26,313,677.93s-83.91-11.74-81.88-19.33,37.52-23.89,73.24-25S438,641.2,438,641.2s32.87,5.41,36.32,10.09S479.37,663.35,479.37,663.35Z"/><path class="cls-4" d="M445.49,566.64s85,6.78,103.83,9.69c27.65,4.28,40.18,13.33,42.58,30.53,5,35.82-81.69,244.09-81.69,244.09l-20.29,2.45L522.11,646l-107,7.15Z"/><path class="cls-4" d="M439.5,592.34s100.22-7.31,120.92,5,14.89,30.48,11.2,51.21-77.16,217.17-77.16,217.17l-30-19.45S471,724.59,476.16,703s24.66-50.52,24.66-50.52-83.39,2.23-98.94.19S439.5,592.34,439.5,592.34Z"/><path class="cls-6" d="M522.07,628.85a17.51,17.51,0,0,0-3.87,2.83,87.11,87.11,0,0,0-15.38,16.91,15.55,15.55,0,0,0-2.36,4c.29.19,4.39-5.71,10.37-12.26S522.31,629.11,522.07,628.85Z"/><path class="cls-33" d="M270.22,547c5.74,2.39,14.15-10.06,20.16-10.4,5.38-.31,11.16,4.92,16.4,3.7s6.39,4,11.58,2.53c10.67-3.1,19.34,5.51,29.51.89,18.94-8.62,23.62-8.17,38.32-23.86,2.69,7.23,21.36,6.46,28.49,6.65l50.81,13.88s102.26,20.76,117.07,47.72l-3.83-1.47s-26.77-10.2-44.61,21.45c-14.69,26.09-37.85,51.52-37.85,51.52l-150.85-.48c-29,4.49-58.43-9.32-76.36-35.85-12.58-23.39-8.89-70.48-8.92-77.06C263.82,548.74,266.21,545.32,270.22,547Z"/><path class="cls-4" d="M496.33,860.73,527,904.43c1.78,4.05-49.27,7.09-72.29-49.16l9.72-9Z"/><path class="cls-31" d="M547.89,937s4.7-4.48,1.25-8.28-20.86-26.33-23.36-27c-.74,1.69-3.86,2.86-9.44,1.95s-11.89-1.7-23.25-10.36c-8.51-6.48-26.22-19.39-32.33-28.65-2-3.1-3.48-10.82-3.27-11.74-15.28,6.65-18,20.39-14.95,25.65S471.31,899,471.31,899l20.88,17.45,21.73,12.09,9.46,4.44,12,3.85Z"/><path class="cls-32" d="M441.94,876.8c2.42,2.47,11,8.68,18.84,12.79,21.16,11,27,17.39,33.2,23.24a102.2,102.2,0,0,0,11.18,9.5C528.07,939,547,937,547.66,936.86a2.87,2.87,0,0,1,.09,1.58,21.39,21.39,0,0,1-6.78.92c-8.55-.25-20.35-1.53-38.28-14.06-5.09-3.55-8.19-5.59-11.28-8.5-4.64-4.39-9.4-8.89-21-15.74l-1.69,3.74s-23.07-10.38-31.18-20C439.48,878.75,441.94,876.8,441.94,876.8Z"/><path class="cls-32" d="M438.88,881.39c11.92,10.34,26.65,17.77,31.34,20.12l-1.49,3.29s-23.07-10.38-31.18-20A28.34,28.34,0,0,1,438.88,881.39Z"/><path class="cls-4" d="M398.25,240.84s-6.18,37.43-6.19,41.84l-1,21.84,1.89,1.56c-2,11.61-24.44,12.9-45.21,2.25l-21-22.65s5.37-7.37,6.47-10.95c6.27-20.3-2.35-45.53-2.35-45.53"/><path class="cls-6" d="M352.31,268.45s4,14.9,27.05,21.21c0,0,6.71,1.74,12.36,1.07l.43-6.28Z"/><path class="cls-34" d="M428.59,241.42c-7.91-6.3-8.93-16.95-7.42-26.3,1.44-9-4.64-23.13,6.39-22.1.21,0-3.56-7.92-.34-7.08-1.73-5.08,5.55-4.22,6.87-9.77.26-1.12,2.39-11-4.72-12.07-23.84-37.25-58.76-31.47-78.25-29.86-38.24,3.15-56.83,4.4-50.76,65,4.07,40.68,41.37,53.69,79.73,54.5,16.4.34,35.81,2,48.83-12.06Z"/><path class="cls-34" d="M355.8,99.75c-1-2.19-10.83-10.64-17-10.27-4.44.26-9.63,2-17.36,8.2-6.89-2.34-15.44-4.11-19.77-.69a23.89,23.89,0,0,0-4.63,5.17h0l-.06.13a49.56,49.56,0,0,0-3.43,5.91c-5.15,6.37-15.8,20-17.93,26.12-1.06,3.07,3.15,9.93,8.83,17.31a12.37,12.37,0,0,0-3.45,5.75c-1.54,5.78,4.31,18.7,19.95,13.46,3.91,4.2,6.67,7,6.67,7l4.64-3.52s-.33-.84-.87-2.3l5.65-4.2-3.64-3.51a31.8,31.8,0,0,1,4.22-3.22c5.51-4.36,11.53-10.55,16.85-15.12,2.46-2.11,8.82-3,11.38-5a11.6,11.6,0,0,0-3.87-1.89l2.07-1.61c2.18,1,4,1.92,4.61,2.31,2.25-1.72,7.93-3.17,10.15-4.93.37.65.72,1.3,1.05,2,2-1.62,6.28-3.34,8.3-5,0-9.94-3.9-18.61-12.93-23.48C355.8,104.69,356.29,100.82,355.8,99.75Zm-68.49,59.7a13.7,13.7,0,0,1-.54-4.81c2.4,3,5,6,7.43,8.79C291.31,163.27,288.18,162.39,287.31,159.45Zm62.3-60.09c-.14,1.67-1.53,4.16-2.69,6l-.71-.16a113.4,113.4,0,0,0-11.48-2.26,50.54,50.54,0,0,1,4.74-6.1C342.66,94.61,349.86,96.43,349.61,99.36Z"/><path class="cls-4" d="M409.31,161.1l.29.2a2.62,2.62,0,0,1-.28-.43Zm10.81,2.37c.16.15.33.3.51.44v-.19S420.13,163.23,420.12,163.47ZM350,264.77c10,10.52,27.34,17.94,38.94,19.75,5.68.89,10.6,2.54,16.43-1.45,14.63-10,29.47-28.6,27.69-47.18-.33-3.43-2.21-9.85-1.92-13.13.34-3.79.66-22.09-2.56-33.69-3.93-14.14-8-21.2-8-21.2-.47-2.38,5.47-1.19,4.21-3.12l-1,0a1,1,0,0,1,.5,1,8.21,8.21,0,0,1-3.59-1.78v0c-1.56.68-3.1-.06-4.37-1.27,0,.23.24.71.5.72a5.19,5.19,0,0,1-4.1-1.51c0,.23.24.71.24,1a9.41,9.41,0,0,1-3.3-1.54c.23.32,6.08-.46,6.08-.3-1.56.21.21.76-1.06-.45l-1.26-.91c-1.3.21-1.27,1-2.28,0,.25.24-.66-2.63-.67-2.39-1.55,0-1.12-.13-2.4-.87,0,.24-4.26,1.45-4.27,1.69-1.29,0-1,1.17-2,.2.26.24,1-1,1.21-.74-1.55.21-2.16,1.19-3.42,0,.25.24-5.06-2.71-5.06-2.71-1.56.2-1.31.7-2.58-.28.51.49-7.15-.59-6.9-.11-1.29,0,2.37,4.79,1.35,4,0,.24-3-.77-3-.77-1.3.21.62,1.44-.4.47,0,.23.24.95.5,1a5.26,5.26,0,0,1-4.89-.82c.5.49.75,1,1,1.21-1.29,0-2.33.19-3.6-.79,0,.24.5,1,.76,1a5.11,5.11,0,0,1-4.13-.56c0,.23.5.72.75,1a3.64,3.64,0,0,1-3.09-.54l.76,1c-1,0-1.82.43-3.36-.07,0,.23.51.48.5.72a9.87,9.87,0,0,1-2.58-.29c0,.24.76.73.5.72-1,0-1.82.44-3.1-.06.25.24.5.72.76,1a7,7,0,0,1-3.1-.3,1.69,1.69,0,0,0,.5,1c-1,0-1.82.43-3.11-.07,0,.24.51.73.76,1a13.39,13.39,0,0,1-3.1-.07c0,.24.51.49.76.73a8.22,8.22,0,0,1-3.36-.31c0,.48.24.72.24,1-.78,0-1.29-.27-2.06-.28l-1.31.44c-3.71,4.67-13.47,14-13.47,14-8.15,6.24-8.54,17.37-8.38,21.88s5.37,22.69,5.37,22.69c-1.26-1.69-2.32-5.54-3.06-7.45-.74-1.68-1.88-3.58-2.63-5.25-2.24-3.85-7.44-2.77-10.33-.46l-.49.77c-4.07,5.28-3.15,18.67,4.08,27.72.66,10.1,10.68,15.09,13.23,7.71l1.33,4"/><path class="cls-12" d="M405.47,243.46a6.68,6.68,0,0,1-5.94-.42c-.37-.23-1.62,0-1.1.29a9.42,9.42,0,0,0,8.08.46c.22-.11.18-.27-.09-.36a1.53,1.53,0,0,0-.95,0"/><path class="cls-12" d="M397.7,242.86a10.78,10.78,0,0,0-3.65-.92.86.86,0,0,0-.56.16c-.11.1-.13.22,0,.3a4,4,0,0,0,2,.46.79.79,0,0,0,.62-.22c.12-.17-.09-.28-.26-.28a3.17,3.17,0,0,1-1.61-.38l-.56.46a9.73,9.73,0,0,1,3.26.83.79.79,0,0,0,.67-.06c.14-.08.28-.25.08-.35"/><path class="cls-12" d="M392.68,243a5.18,5.18,0,0,1-3.93-1.78c-1.07-1.63,0-4.35,1.85-5.37.2-.11.1-.25-.11-.3a1.25,1.25,0,0,0-.79.15,5.16,5.16,0,0,0-2.47,4.67c.2,1.43,1.61,2.43,3.37,2.87a9,9,0,0,0,1.64.23c.23,0,.63-.05.74-.22s-.09-.25-.3-.25"/><path class="cls-12" d="M408.19,242.77c-.08-.17.07-.27.19-.27a1.74,1.74,0,0,0,1.15-.35l.39.47a5.23,5.23,0,0,0-2.33.77.43.43,0,0,1-.48-.08c-.09-.07-.19-.25-.05-.35"/><path class="cls-12" d="M407.06,243a6,6,0,0,1,2.61-.85.48.48,0,0,1,.39.18.19.19,0,0,1,0,.29"/><path class="cls-12" d="M411.26,243a3.06,3.06,0,0,0,2.59-1.71,4.11,4.11,0,0,0-1.1-4.6c-.13-.11-.06-.26.08-.3a.62.62,0,0,1,.51.16,4.66,4.66,0,0,1,1.52,3.92,3.32,3.32,0,0,1-2.26,2.8,3.57,3.57,0,0,1-1.07.21c-.14,0-.4-.06-.47-.24s.06-.24.2-.24"/><path class="cls-10" d="M330.63,228.68a54.18,54.18,0,0,0-5-9.1,17,17,0,0,0-3.53-3.9,4.84,4.84,0,0,0-1.89-1c-.75-.13-1.06.43-1.38,1-1.51,2.74-1.45,6.09-.77,9.05,0,.25.93,0,.87-.23a14,14,0,0,1,.06-7.25,6.75,6.75,0,0,1,1.17-2.39l-.59.22c-.19,0,0,0,0,0l.29.09a5.2,5.2,0,0,1,1.32.74,20.16,20.16,0,0,1,4.8,5.79,63.75,63.75,0,0,1,3.7,7.16c.11.26,1,0,.87-.23Z"/><path class="cls-35" d="M431.85,205.1a2,2,0,0,0-.59-2.33c-4.34-3.46-8.15-5-17.5-7.54l-.11.22-2.2,4,.28.63c3.08.76,5.47,1.09,7.43,1.78,3.91,1.37,8.6,2.5,12,4.94C431.4,206.21,431.62,205.65,431.85,205.1Z"/><path class="cls-35" d="M386.28,194.8c.35,1.31.15.58.51,1.9.27,1,.53,2,.8,3-3.46,0-6-.27-8.2-.06-4.33.4-9.41.33-13.42,2.1-1.92.85-4.65,2.13-5.6,4.32-.25.58-.5,2.51-1.39,2.37-.36-.06-.27-1.83-.26-2,.2-3.56,2.65-5.69,5.89-7.4,6.6-3.5,10.21-4.23,21.61-4.47"/><path class="cls-36" d="M326.89,245.08a5.73,5.73,0,0,0-2,7.66,5.62,5.62,0,0,0,3.52,2.53,5.72,5.72,0,0,0,2.47-.1,6.2,6.2,0,0,0,4.23-3.12c.31-.58-1-.51-1.21-.08a4.64,4.64,0,0,1-3,2.39,5.41,5.41,0,0,1-1.28.16h-.3l-.21,0a4.93,4.93,0,0,1-1.45-8.94c.21-.14.34-.41.09-.58a.93.93,0,0,0-.91.1Z"/><path class="cls-10" d="M330.48,228.72c-1.41,0-3.48.25-3.25,2.1s1.38,3.26,1.5,5a2.62,2.62,0,0,1-.17,1.27c-.13.32-.47.88-.72.9-.95.1-2.06-1.44-2.48-2.08a10.32,10.32,0,0,1-1.75-6.26c.13-2.09.57-5.61,2.82-6.54.57-.24,0-.35-.31-.21-2.19.91-2.92,3.35-3.23,5.52a10.64,10.64,0,0,0,.74,6.14c.7,1.6,2.42,4.53,4.6,3.64,1.91-.79,1.41-3.15.88-4.65a16.11,16.11,0,0,1-1-2.91,1.57,1.57,0,0,1,.14-1.11c.34-.54,1.09-.49,1.65-.48.19,0,1-.36.57-.37Z"/><path class="cls-35" d="M409.85,219.72s7-5.55,10.53-5.84A13.48,13.48,0,0,1,432,219.26s-6.73-4.62-10.35-4.2C418.2,215.45,409.85,219.72,409.85,219.72Z"/><path class="cls-35" d="M388,219.38s-7.6-5.84-11.53-6.32c-7.09-.85-13.78,3.09-15.87,5.73,0,0,10.36-5.18,14.39-4.61C378.79,214.73,388,219.38,388,219.38Z"/><path class="cls-37" d="M421.17,166.72c.86,6.54,9.84,1.22,5-.49.67-3.14-3.78-4.53-3.58-7.75-.2.28-.33.5-.33.5s0-3.87-1.31-4.84-7-4-7-4l-1.79,1.3c0-.1.69-1.35-.19-2.14s-10.63-6.15-16.92-5.89c-.21,0-.42,0-.62,0l-2.65,1.31-.09,0,.1-.05c.47-.27,1.48-.92,1-1.48a2.28,2.28,0,0,0-1.16-.55,23.31,23.31,0,0,0-3.8-.45v0h-.42l-.43,0v0a22.63,22.63,0,0,0-3.82.3A2.26,2.26,0,0,0,382,143c-.52.54.45,1.24.91,1.52l.1.06-.09,0-2.59-1.41a4.2,4.2,0,0,0-.62-.07c-6.27-.53-16.22,4.41-17.15,5.17s-.32,2-.28,2.13L360.52,149s-7.6,2.78-8.91,3.68a6.6,6.6,0,0,0-1.95,3.13s-2.32.79-3.14.5-5.14,1.85-7,4.35c-1.16,1.6-.79,3.15-1.38,4.56h0c-.33.79-.53,1.32-.53,1.32l-4.45,1.38c-3.58,1.63-2.85,9-2.85,9-7.15,8.41-7.65,15.69-4.69,23.61,1.14,3.05-7.56,5.91-2,5.91s9.87,17.67,9.87,17.67,4.9-6.74,5.2-9.92-1.06-12.64-1.06-12.64l2.71-.32s1.66-.64,3.71-4.2S342.64,187,342.64,187l-1-3.89,5.27.47c5.11-.77,5.51-6.28,5.51-6.28l-.69-9.21,3,3.15a3.77,3.77,0,0,0,2.91,1.38c7.92-.43,8.95-5.33,8.95-5.33l1.16-4.61,2,1.38c2.08,1.78,8.5,4.6,11.83,3.25.88-.36,4.58-3.09,5.18-3.47,2.16-1.5,2.52-4.43,2.59-5.53-.3-.3-.59-.69-.88-1-1.1-1.25-1.65-.75-.55.51,1.9,2.15,5.13,5.2,8,5.38s8.86-.86,9.63-2.14c.52-.86-.36-1,.66-.92a3.41,3.41,0,0,1,2.21,1.39c1.31,1.57,2.16,3.84,4,4.84,2.71,1.45,4.39,0,7.15-.54A1.29,1.29,0,0,1,421.17,166.72Z"/><path class="cls-38" d="M427.82,161.77s2-5.9-1.35-9.39-16.26-17.5-39-18Z"/><path class="cls-39" d="M303,173.06s-17.7,9.6-24.94-4.64,12.89-18.79,12.89-18.79"/><path class="cls-39" d="M316.84,96.31s9.08-14.18,20.89-11.44,3.85,22,3.85,22"/><path class="cls-2" d="M421.12,438.38c20.47-16.46,17.53-40.62,16.76-48.87-1.36-15.11-13.52-30-18.8-44.09-4.86-13-7.16-21.81-13-34.41-.92-2-9.35-9-10.72-10.91.13.5-.3.87-.47,1.52-1.53,5.91-7.78,9-13.31,9.35-9.66.67-21.7-1.31-30.11-6.13-4.55-2.61-9.65-5.06-13.36-8.77-3.21-3.2-11.12-8.18-12.55-12.53A162.91,162.91,0,0,0,285,307.44c-19.21,15.47-3.15,133-9.63,187.59-2.84,24-23.6,30.5-19.39,82.85,24.82,9.58,54.24-7.13,79.68-13.11,15.6-3.66,30.65-9.28,45.35-15.57,9.52-4.08,18.41-9.57,28.09-13.27,4.79-1.84,10-3.73,15.17-3.91,3.52-.13,8.66,3.34,11.92.37-2.9-8.74-12.69-19.94-15.58-38.88C417.06,470.13,420.7,439.27,421.12,438.38Z"/><path class="cls-6" d="M578.18,611.09C576.33,599.63,565.44,593,554.36,590c-1-.28-2-.53-2.87-.77a6.72,6.72,0,0,0-1.18.71,67.6,67.6,0,0,1,18,7.89c15.09,9.67,8.52,31.26,3.63,48.93C564.68,673,555,698.83,546,724.57q-13.8,39.21-29.37,77.85Q507.09,826,497,849.29a14.64,14.64,0,0,0-1.61,5.64c0,5,4.82,8.62,6.7,13.23-1.72-4.32-5.58-8-5.53-12.63a15.69,15.69,0,0,1,1.58-5.78c.27-3.38,3.23-7.82,4.55-11l5.21-12.57,10.41-25.12c19-45.79,34.47-92.87,50.83-139.73.71-2,1.78-6.7,2.4-8.75C577.23,633.66,580,622.29,578.18,611.09Z"/><path class="cls-40" d="M426.06,359.09S436.49,400,436.23,405.4s1.32,16.19-9.82,26.82a54.67,54.67,0,0,0-5.78,6.33,1.51,1.51,0,0,1,.11.22c3.7-3.95,8.67-5,14.59-17.3C443.39,404.78,426.06,359.09,426.06,359.09Z"/><path class="cls-27" d="M401.48,252.39c-5.84.34-18.56,4.46-21,6.75,0,0,6.93,4,20.5,3.18S416.51,257,416.51,257,408.93,252,401.48,252.39Z"/><path class="cls-28" d="M385.89,255.92s7-.64,12.53-.74,12.53.33,12.53.33.83-3.93-9.25-3.77S385.89,255.92,385.89,255.92Z"/><path class="cls-29" d="M400.74,260.69c-6.38-.75-12.92-2.86-20.33-2.3,0,0,2.22,8,18.19,7.72s17.92-8.32,17.92-8.32C409.1,257.48,407.09,259.73,400.74,260.69Z"/><path class="cls-29" d="M408.6,249.42c-3.35-.18-5.46,1.05-6.92,1.08s-3.61-1.14-7-.85c-3.14.27-16.31,7.73-14.81,8.65s11.72-4.58,21.82-4.74,13.81,5.09,15.28,4.12S411.75,249.58,408.6,249.42Z"/><path class="cls-6" d="M408.12,194.1s-7.66,4.46-.32,9.43C407.8,203.53,405.43,198.22,408.12,194.1Z"/><path class="cls-6" d="M397.16,193.73s7.33,5-.32,9.43C396.84,203.16,399.56,198,397.16,193.73Z"/><polygon class="cls-41" points="282.23 301.96 279.47 311.95 269.25 312.36 277.76 318.13 275 328.13 283.02 321.7 291.53 327.47 287.98 317.73 296 311.3 285.78 311.7 282.23 301.96"/><path class="cls-2" d="M309.9,338.4s-16.49,14.47-18.85,20a13.57,13.57,0,0,0-.1,10.36l-6.18,11.64,32.89-92.18-33.1,14.51c-21.95,11.92-24.4,30.75-24.4,30.75S244.38,403.11,245,418.38s1.26,50,30.82,51.84c17,1,23.67-15.65,38.29-38.24,15.27-23.61,30.09-63.87,30.09-63.87Z"/><path class="cls-40" d="M311,334.48a64.79,64.79,0,0,0-4.41-8.37,45.94,45.94,0,0,0-6.27-7.75,35,35,0,0,0-3.32-2.77c-.55-.4-1.06-.8-1.58-1.14l-1.56-.91a20.84,20.84,0,0,0-2.76-1.37c-.42-.18-.8-.37-1.17-.5l-1-.32-1.41-.42a1.83,1.83,0,0,0-.46-.12,1.59,1.59,0,0,0,.46.21l1.38.51,1,.35c.35.14.72.35,1.13.54a21.65,21.65,0,0,1,2.7,1.41l1.53.93c.51.35,1,.76,1.56,1.15a38.79,38.79,0,0,1,3.25,2.78,47.74,47.74,0,0,1,6.17,7.68,69.25,69.25,0,0,1,4.45,8.44A1.44,1.44,0,0,1,311,334.48Z"/><path class="cls-4" d="M386.93,253.92c-.14,4.42-7.59,14.08-7.59,14.08s-.3,31.23-2,36.82-13.14,26.68-13.14,26.68l-27.48-15.92,9-15.52.6-28.76,3.5-27.13,17.72-15.38a2.79,2.79,0,0,1,.38.3,2.65,2.65,0,0,1,.08,3.75l6.85-5.22c4.48,3.73-2.77,12.78-2.77,12.78l8.36-7.48c3.81,4.23-1.29,10.68-1.29,10.68l-8.77,11.73s-1,8.45-.58,11.31.68,5.85.68,5.85l2.58-9.26,12-15.65S387.07,249.49,386.93,253.92Z"/><path class="cls-6" d="M387.16,249.77a7.69,7.69,0,0,0-1.47-2.89l-.38-.44-.37.49c-3.81,5-7.87,10.24-12,15.67l-.07.08v.09c-.59,2.09-1.21,4.31-1.84,6.58-.05-.47-.1-.94-.16-1.42-.08-.71-.16-1.41-.25-2.12s-.07-1.4,0-2.11c0-2.79.32-5.68.65-8.56l5.18-7c.89-1.21,1.8-2.42,2.7-3.65.44-.61.94-1.21,1.38-1.88a17.91,17.91,0,0,0,1.15-2,10.55,10.55,0,0,0,1.06-4.27,6,6,0,0,0-1.55-4.2l-.37-.4-.4.36-5.26,4.74a27,27,0,0,0,1.35-2.88,10,10,0,0,0,.7-3.67,4.74,4.74,0,0,0-1.64-3.48l-.35-.28-.33.28-5.44,4.44a3.66,3.66,0,0,0,.05-.57,3.14,3.14,0,0,0-1.26-2.45l-.34-.27-.33.28-17.64,15.23-.14.12v.19c-1.21,9.76-2.33,18.84-3.35,27.14,0,1.8-.71,24.29-1,29.41a1.65,1.65,0,0,1,.62.52c.36-5.22,1.07-27.94,1.1-29.79,1.07-8.24,2.22-17.25,3.46-26.93l17.22-14.78a2.07,2.07,0,0,1,.53,1.35,3.42,3.42,0,0,1-.66,1.92l-2.26,3.16,3-2.43.19-.15.07.07a2.26,2.26,0,0,0,.16-.26l6.24-5.09a3.58,3.58,0,0,1,.93,2.37,8.73,8.73,0,0,1-.63,3.27,24.1,24.1,0,0,1-3.45,6.06l.78.74.12-.11.09.09c.13-.16.24-.32.35-.48l7.34-6.6a4.91,4.91,0,0,1,.94,3,9.54,9.54,0,0,1-1,3.82,14.23,14.23,0,0,1-1.08,1.95c-.39.61-.87,1.2-1.32,1.82q-1.37,1.85-2.71,3.65l-5.27,7.11-.09.12v.14c-.32,3-.6,5.89-.66,8.82a18.13,18.13,0,0,0,.07,2.21c.09.71.17,1.42.25,2.12.17,1.39.33,2.76.5,4.11l.32,2.69.71-2.59,0-.14h.12c0-.1,0-.2,0-.29.85-3,1.68-6,2.41-8.75L385.22,248a6.65,6.65,0,0,1,.9,1.95,11.11,11.11,0,0,1,.42,2.81,11.41,11.41,0,0,1-1.53,5.31,67.64,67.64,0,0,1-5.89,9.25l-.09.12,0,.25c-.08,10.12-.28,19.36-.72,27.49-.1,2-.19,4-.44,5.88a15.27,15.27,0,0,1-1.19,5.2s-2.94,5.59-2.94,5.61c.2.12.17-.05.36.09l3.24-5.43a16.27,16.27,0,0,0,1.32-5.4q.3-2.85.48-5.91c.51-8.11.76-17.3.9-27.38a65.46,65.46,0,0,0,5.93-9.25,20.43,20.43,0,0,0,1.19-2.71,10.84,10.84,0,0,0,.38-1.49l0-.79,0-.77A12.1,12.1,0,0,0,387.16,249.77Z"/><path class="cls-6" d="M361.24,262.47c.14-2.91.39-6.9.74-11.31l.1-1.22v-.18l.14-.15c2.87-3,5.48-5.65,7.39-7.49s3.13-3,3.23-2.85a17.85,17.85,0,0,1-2.7,3.36c-1.72,2-4.27,4.73-7.13,7.74l.15-.33a7.79,7.79,0,0,0-.09,1.2c-.36,4.42-.73,8.41-1.06,11.29s-.62,4.65-.76,4.65S361.1,265.38,361.24,262.47Z"/><path class="cls-6" d="M355,254.14c.11-2.66.33-6.37.64-10.5v-.21l.17-.15,1-.9c3.27-3,6.26-5.72,8.47-7.64s3.62-3.05,3.72-2.94-1.12,1.45-3.19,3.51-5,4.8-8.25,7.87l-1,.9.18-.36c-.34,4.2-.69,7.84-1,10.49a18,18,0,0,1-.69,4.25C354.91,258.45,354.92,256.8,355,254.14Z"/><path class="cls-4" d="M473.5,289.35l4.87,20.15-22.15,12.87-1.62-16.1a118.83,118.83,0,0,1-6.83-10.44c-2.4-4.37-1.25-10.31-1.25-10.31l.76-15.22s-4.77-9.63-7-13.78,1.86-6.89,1.86-6.89l9.15,11.19.23-10.62-5.67-10c-1.39-6.68,2.67-6.25,2.67-6.25a3.54,3.54,0,0,1-.39-1,3.73,3.73,0,0,1,2.89-4.42l12.37,13.41a57.62,57.62,0,0,1-2.4-8.76c-.72-4.2,3.71-4,3.71-4s8.1,17.41,8.34,18.74-1.95,21.59-1.95,21.59Z"/><path class="cls-6" d="M466.09,252c.18-1.88.37-3.55.56-5.05l.1.33c-2.16-3.09-3.52-5.27-3.35-5.39s1.84,1.84,4.13,4.82l.1.14V247c-.1,1.51-.26,3.24-.44,5.06-.66,6.28-1.41,11.29-1.71,11.3S465.45,258.26,466.09,252Z"/><path class="cls-6" d="M458.86,248.65l.1.35-2.42-3.24c-4.7-6.38-8.29-11.73-8.05-11.87s4.25,4.88,8.94,11.26l2.38,3.27.11.16v.19c-.52,6-1,10.22-1.3,10.23S458.5,254.64,458.86,248.65Z"/><path class="cls-40" d="M333.75,317.55l-.75-.49s-60.87,68.48-68.42,87.5c-5.65,14.23-6.9,26.18-2.38,36.08A65.45,65.45,0,0,1,265,406.92c4.21-11.63,34.55-48.83,34.55-48.83Z"/><path class="cls-40" d="M364.49,331.5s-6.06,17.61-17.54,45.93c-7.66,18.92-24.78,55-36.87,68.1-13,14.13-26.57,22.35-32.47,24.74,0,.45,2-.33,2,.12,10.25-4.55,30.66-16.19,49-48.81,15.72-28,33.56-78.26,36.92-89.51Z"/><path class="cls-2" d="M480.05,301.21c.08.29.84,6.23.91,6.52,8.22,32.56,27.53,126.09,3.7,137.65-21.23,11.24-21.51-5.77-28.64-15.33-4.32-5.81,2.45-3.12,1.47-10.11-1.1-7.89-4.47-11.73-4.92-19.66-.88-15.42-.45-29.18-3.36-44.41-2.67-14,1.5-34.8-1.08-48.78Z"/><path class="cls-40" d="M427.14,362.19a32.18,32.18,0,0,1,.73-12.14s-2.31,3.61-1.79,10.2l1.44,3.62Z"/></g><g id="Layer_2" data-name="Layer 2"><path class="cls-40" d="M448,341.21c-.25-.25-.4-.53-.65-.79-1.47,17.48-2.63,32.58-2,44.61,1.12,11.93,4.55,20.21,5.12,21C445.19,393.67,446.05,352.89,448,341.21Z"/></g></svg>