<svg xmlns="http://www.w3.org/2000/svg" viewBox="0 0 1303.15 1057.31"><defs><style>.cls-1{fill:#f2ebd1;}.cls-2,.cls-29,.cls-31{fill:#151210;}.cls-3{fill:#161311;}.cls-4{fill:#a66e53;}.cls-5{fill:#ccb631;}.cls-6{fill:#132e38;}.cls-7{fill:#535a27;}.cls-8{fill:#4f2e25;}.cls-13,.cls-14,.cls-15,.cls-16,.cls-9{stroke:#000;}.cls-13,.cls-14,.cls-15,.cls-16,.cls-27,.cls-29,.cls-30,.cls-31,.cls-9{stroke-miterlimit:10;}.cls-9{stroke-width:0.56px;}.cls-10{fill:#010101;}.cls-11{fill:#13110f;}.cls-12{fill:#ce8d2a;}.cls-13{stroke-width:0.55px;}.cls-14{stroke-width:0.58px;}.cls-15,.cls-16,.cls-30{fill:none;}.cls-15{stroke-width:1.35px;}.cls-16{stroke-width:1.42px;}.cls-17{fill:#24180f;}.cls-18{fill:#fff;}.cls-19{fill:#653c29;}.cls-20{fill:#653c2a;}.cls-21{fill:#c95744;}.cls-22{fill:#47150e;}.cls-23{fill:#b15e27;}.cls-24{fill:#df8c26;}.cls-25{fill:#231f20;}.cls-26{fill:#ad7b98;}.cls-27,.cls-28{fill:#681941;}.cls-27{stroke:#681941;stroke-width:0.52px;}.cls-29,.cls-30,.cls-31{stroke:#161311;}.cls-29{stroke-width:0.56px;}.cls-30{stroke-width:1.3px;}.cls-31{stroke-width:0.56px;}</style></defs><g id="Layer_10" data-name="Layer 10"><polyline class="cls-1" points="-122.78 1151.79 -122.78 -91.07 1384.52 -91.07 1384.52 1151.79"/><path class="cls-2" d="M61.88,483l-.59,1.51c0,10,2.85,16.89,10.38,19.79,0,.1,0,19.73,18.45,23.66,16,3.4,22.64-3.06,22.64-3.06s6.23,5.78,10.29,5.84c9.14.15,10.83-4.66,14.53-11.21,10.6-18.78,1.28-31.14,1.28-31.14s-2.34-1.95-4.33-7.64S123.8,469,123.8,469s4.48-10,.2-12.53S109.64,452,109.64,452s-6.07-8.64-15.65-4.48c0,0-7.44-2.17-11.59,7a29.07,29.07,0,0,0-2.12,7.68s-3.67-1-10.62,3.52C66.67,467.65,61.91,475.4,61.88,483Z"/><path class="cls-3" d="M61.08,483.08a9.76,9.76,0,0,0-.58,1.47,11.93,11.93,0,0,0,0,2.86,30.81,30.81,0,0,0,.9,6,16.36,16.36,0,0,0,5.27,8.73,15.53,15.53,0,0,0,1.79,1.25c.4.23.8.45,1.21.65.13.06,1.13.39,1.15.42s0,.62,0,.77a28.62,28.62,0,0,0,.65,4.52,24.86,24.86,0,0,0,7.64,13.54c5.85,5.06,14.43,6.48,21.94,5.93a25.55,25.55,0,0,0,9.17-2.3,11.91,11.91,0,0,0,3.11-2l-1.39.19c3,2.78,7,6,11.31,6a14.87,14.87,0,0,0,7.86-2,15.37,15.37,0,0,0,4.75-5.38c3.55-6,6.77-12.33,7.4-19.41a26.84,26.84,0,0,0-2.17-13.59,13.5,13.5,0,0,0-1.45-2.6c-.56-.72-1.21-1.35-1.73-2.13-1.78-2.69-2.42-5.92-4.24-8.58a33.08,33.08,0,0,0-6.21-6.52c-.76-.63-1.54-1.25-2.34-1.84a3.54,3.54,0,0,1-.54-.39c-.17-.18-.07.26,0,0,.51-1.75,1.27-3.38,1.65-5.19.42-2,.75-4.57-.48-6.37s-4.46-2.61-6.51-3.26c-2.49-.78-5-1.42-7.58-2a7.65,7.65,0,0,1-1.58-.33c.5.23-.13-.37-.3-.56a13.86,13.86,0,0,0-11.59-5,15.49,15.49,0,0,0-4.59,1.21l.95-.08a10.31,10.31,0,0,0-7.15.88c-5.26,2.64-7.16,8.91-8,14.29l1.31-.52a8.36,8.36,0,0,0-3.52.16,22.63,22.63,0,0,0-8.4,3.77,17.75,17.75,0,0,0-4.92,6.45,25.21,25.21,0,0,0-2.87,11c0,.44,1.61.17,1.62-.43A24.47,24.47,0,0,1,65,473a19.3,19.3,0,0,1,4.59-6.65,18.18,18.18,0,0,1,7.6-3.6,6.11,6.11,0,0,1,2.55-.12c.32.08,1.23-.1,1.3-.53.86-5.47,3.17-13.61,9.8-14.32a7.26,7.26,0,0,1,1.92,0l.51.09c.3.05-.11.05.27.05a7.82,7.82,0,0,0,2.13-.65,11,11,0,0,1,2.54-.46,10.79,10.79,0,0,1,4.32.68,14.15,14.15,0,0,1,5.22,3.52c.56.57.88,1.26,1.66,1.45,2,.48,4,.88,6,1.42,2.61.7,5.62,1.42,7.9,2.92s1.79,5,1.27,7.31a26.09,26.09,0,0,1-1.63,4.95.18.18,0,0,0,.06.19,44.81,44.81,0,0,1,4.85,4,31.66,31.66,0,0,1,3.77,4.08,20,20,0,0,1,2.55,4.94,22.57,22.57,0,0,0,3.87,6.4,9.93,9.93,0,0,1,1.22,2.09,27.08,27.08,0,0,1,2,16.79,43.07,43.07,0,0,1-5,13c-1.47,2.65-2.85,5.63-5.22,7.61a10.42,10.42,0,0,1-10.82,1.23,28.55,28.55,0,0,1-6.73-4.77c-.32-.3-1.12-.07-1.39.2a12.69,12.69,0,0,1-5,2.61c-5.5,1.75-11.66,1.31-17.2,0-8.77-2.1-14.66-9-16.69-17.57a24.63,24.63,0,0,1-.77-5.73.25.25,0,0,0-.16-.16,14.81,14.81,0,0,1-8.54-8.62,25.21,25.21,0,0,1-1.47-6.47,34.85,34.85,0,0,1-.21-3.95,5.49,5.49,0,0,1,.59-2C62.87,482.38,61.28,482.57,61.08,483.08Z"/><path class="cls-2" d="M250.64,453.24l-1.15-1.16c-9.09-4.06-16.6-4.23-22.3,1.48-.08,0-12-5.51-23.07,9.8-9.62,13.29-6.37,21.94-6.37,21.94s-7.81,3.35-9.52,7c-3.83,8.29-3.15,24.05,4.1,26.07s7.93,5.45,7.93,5.45,11.15,3.2,17.15,3.69,15-5.63,15-5.63,13.33,1.76,17.34-1.14,6.33-12.41,6.33-12.41,13.91-1,14-11.42c0,0,5-5.92-1.71-13.43a29.48,29.48,0,0,0-6.16-5s2.36-3,1.08-11.13C262.7,463.82,257.54,456.33,250.64,453.24Z"/><path class="cls-3" d="M251.39,452.94a8.29,8.29,0,0,0-1.19-1.18,16.81,16.81,0,0,0-4.14-1.62,25.83,25.83,0,0,0-7.44-1.39,16.55,16.55,0,0,0-12.18,4.83l1.4-.38c-4.44-2-10.2-1-14.38,1.12-5.1,2.55-9,7.05-11.94,11.81a31.35,31.35,0,0,0-5,13.42,14,14,0,0,0,.43,6l.51-.49a30.25,30.25,0,0,0-7.65,4.57c-3,2.55-3.88,6.48-4.38,10.22a29.52,29.52,0,0,0,.67,12.09c.9,3.07,2.59,5.94,5.8,6.92a14.29,14.29,0,0,1,6.36,3.36,4.26,4.26,0,0,1,1.2,1.89.23.23,0,0,0,.15.14c4.19,1.2,8.45,2.26,12.73,3.06a21.37,21.37,0,0,0,8,.44,30,30,0,0,0,8-3A42.72,42.72,0,0,0,233,522l-1.14.31a55.67,55.67,0,0,0,12.1.39c2.23-.2,4.76-.56,6.58-2,2.1-1.64,3.38-4.29,4.38-6.69a39.2,39.2,0,0,0,1.93-5.78l-1.14.52a22.7,22.7,0,0,0,8.68-2.44,12.51,12.51,0,0,0,5.09-4.5,9.61,9.61,0,0,0,1.24-3.44c.12-.78,0-1.29.39-1.91,3.4-5.17.47-11.11-3.63-14.86a26.19,26.19,0,0,0-2.31-1.9c-.42-.31-.84-.61-1.27-.9-.11-.08-1-.54-1-.4,0-.26.49-.89.6-1.14a17.34,17.34,0,0,0,.78-8.12,16.21,16.21,0,0,0-3.72-8.68,25.17,25.17,0,0,0-9.31-7.6c-.41-.19-1.9.44-1.31.72a24.26,24.26,0,0,1,7.92,6,20.1,20.1,0,0,1,4.28,6.89,19.09,19.09,0,0,1,.35,8.89,7.34,7.34,0,0,1-1.11,3.07c-.05.06-.11.21,0,.28,3.83,2.47,7.92,5.74,9.22,10.32a9.16,9.16,0,0,1-1.06,7.51A6.31,6.31,0,0,0,269,499a8.94,8.94,0,0,1-1.85,4,13.41,13.41,0,0,1-6.52,4.06,21,21,0,0,1-3,.73l-1,.14-.22,0c-.3,0-1,.14-1.14.52a33.17,33.17,0,0,1-3.67,9.27,7.32,7.32,0,0,1-4.24,3.68,24.47,24.47,0,0,1-6.33.61c-2,0-3.93-.11-5.88-.28a12.25,12.25,0,0,0-2.63-.23c-.94.12-2,1.07-2.75,1.53a38.52,38.52,0,0,1-6.09,3,14.5,14.5,0,0,1-7.1,1c-2.44-.32-4.87-.82-7.27-1.37-2.16-.5-4.3-1-6.44-1.62a13.4,13.4,0,0,0-1.62-.44,1,1,0,0,1-.29-.08s.2.22.09,0c-1.6-3.26-5-4.41-8.25-5.5-3.8-1.28-5.16-5.9-5.71-9.45a30.24,30.24,0,0,1,1.55-15.34c1.51-3.82,5.83-6.08,9.43-7.63.13-.06.6-.26.51-.49a11.58,11.58,0,0,1-.53-4A26.5,26.5,0,0,1,201,469.83c3.85-8,11.14-17.1,20.9-16.85a12.11,12.11,0,0,1,4.68.94,1.5,1.5,0,0,0,1.41-.38,13.69,13.69,0,0,1,11.27-3.91,27.08,27.08,0,0,1,6.34,1.49,13.56,13.56,0,0,1,3.26,1.34,10.92,10.92,0,0,1,1.07,1.08C250.23,453.89,251.75,453.3,251.39,452.94Z"/><path class="cls-4" d="M132,476.49s12.91,21.87,4.14,46.34c-1.13,3.15-10.72,22.59-10.73,22.59.58-.5,10.75,6.41,11.43,6.66,12.1,4.4,15.16,24.12,29.32,22.7,15-1.5,37.85-1.64,50.5-9.84,8.87-5.75,5-22.76,11.44-30.84,0,0-18.6-7.36-20.54-10.8s-7.66-34.67-7.66-34.67"/><path class="cls-5" d="M303.07,758s10.11,64.27,9.44,104.43l1.14,16.83H283.37L254.1,751.61Z"/><path class="cls-4" d="M273.52,878.56l28.72.77s2.2-.77,5.2,21.65a228.61,228.61,0,0,0,6.19,27.74l-8.79,35.1-10.43,10.63-11.57,3-14,.93c-.74-8.8,14.6-14.27,14.6-14.27l.82-19.83-4.63-3.62a93.51,93.51,0,0,1-2.72,20.87c-2.58,8.66-8.75,6.51-8.75,6.51s-.14-23.24-.25-38.18,8.65-30.91,8.69-32Z"/><path class="cls-5" d="M302.83,759.75c-9.19,1-9.93,3.69-19.23,3.79-6.1.06-12.2.21-18.3.36-5.66-28.39-11.39-55-15.61-69.65-12.11-42-5.81-153.34-5.81-153.34,3.67,1.64,37.93,6.87,44.49,36.84s-1.31,119.8,6.3,146.74Q299.37,742,302.83,759.75Z"/><path class="cls-4" d="M216.44,813.61s44.06,159.23,39.75,321.54c-10.49,111.79-44.58,285.65-44.58,285.65l-36.33,5s-10.65-157.4-10.3-297c-7-111.63-22.26-178.94-22.26-178.94l4.89-160.29Z"/><path class="cls-4" d="M140.21,828.58s48.51,158,48.77,320.34c-3.09,47.1-10,105.27-17,156.89-9.67,71.17-19.48,129.86-19.48,129.86l-36.18,6s-15.13-185-22.39-303.78C83.71,1026.46,70.34,966.73,70.34,966.73l.39-160.35Z"/><g id="freepik--character-2--inject-2"><path class="cls-5" d="M269.51,737.12c-.93,6.22.76,42.47,2.43,48.58.84,3.06,1.79,6.1,2.76,9.13.58,9.88,6.55,25.17,12.27,39.84a197.4,197.4,0,0,1-38.55,15.42,271.14,271.14,0,0,1-53,9.7,265.43,265.43,0,0,1-54.86-.95c-17.36-2.17-34.67-6.3-50.72-13.21-5.12-2.21-20-4.72-24.84-7.53,10.92-45.53,22.55-71.23,22.55-71.24l4.8-10.72-15.83-203L116.4,533.5l9.1-4.22,7.34-3.15c8.17,11.28,30,27.37,43.5,31.47,9.59,2.92,20.35,1.09,24.78.73,12.37-1,15-16.73,9.3-32.62l11,3.76L250.85,543l19.21,9.76s20.43,101.56,20,116.66C289.75,679.89,280.08,666.83,269.51,737.12Z"/></g><path class="cls-6" d="M287.67,826.06s-57.55,25-114.83,17.12S63.49,815.44,63.49,815.44s-41.42,21.26-7.24,193.09c14.09,70.82,25.52,336.9,25.52,336.9s7.2,24.36,96.6,18.48,79.39-10.33,79.39-10.33S288.31,1041,291.87,997.2,287,834.67,287,834.67"/><path class="cls-5" d="M82.58,773.43,85,785.62c2.43,11.4,11.15,23.07,10.51,34.7L101,909.88l-51.34,6.45S31.24,806.69,31.24,775.05c0-.44.82-12.09.84-12.6Z"/><path class="cls-5" d="M94.62,545s-42.08,13.18-49.1,43C39.43,614,31.24,768.36,31.24,768.36S78,780.94,91.42,780.94c0,0,23.48-161.74,23.48-186.3S94.62,545,94.62,545Z"/><path class="cls-5" d="M269.51,749.86l27.69,95.08S240,860.22,190.65,860.14,87,851.62,87,851.62l1-32.7Z"/><path class="cls-4" d="M113.24,1002.07a165.85,165.85,0,0,0-18.9-15.18l-7.68-19.22,2.71-10,5.84-.43s2.69,25.53,7.74,29.61,7.52,3.94,7.52,3.94l3.77-6.08-8.15-37.45s-6.33-15.79-8.36-19.38c-2.46-3.43-6.06-4.6-9.12-7.65L88,910.89l-28.6,4.38c1.52,5.12-.68,1.26,1.45,7.07l-2.4,41.25,11,16.76,13.67,14.7,32,15.46S119.4,1008.42,113.24,1002.07Z"/><path class="cls-7" d="M279.77,596.19a73.4,73.4,0,0,0-.74,20,130,130,0,0,0,3.5,18.25c3,12,6.09,23.83,6.78,36.19.63,11.39-.06,23.54-4.56,34.17a54.5,54.5,0,0,1-4,7.18,39.36,39.36,0,0,0-3.57,7.94c-1,3-2.16,5.92-3.3,8.87a37.26,37.26,0,0,0-2.23,9.77c-1.16,12,1.61,24.25,3.52,36l7,43.1,3.09,19.11c.55,3.38,1,6.78,1.65,10.14,0,.16.05.32.07.49.08.44,1.7.07,1.62-.44l-4-24.65-7.07-43.61c-1.64-10.19-3.71-20.46-4.35-30.78-.42-6.84,0-13.85,2.64-20.24,2.42-5.8,3.87-11.88,7.33-17.19,5.95-9.12,7.61-20.58,7.89-31.27.31-12-1.6-23.74-4.45-35.38-3-12.28-6.64-24.5-6.34-37.26a74,74,0,0,1,1.09-10.71c.09-.51-1.52-.23-1.6.25Z"/><path class="cls-7" d="M81,573.57c4.3,2.16,8.78,4.25,12.37,7.52a30.33,30.33,0,0,1,8,12.18c4.06,11.5,5.39,24.12,5.64,36.24.57,27.88-6,55.19-9.76,82.66-1,7.22-1.71,14.41-2,21.69s-.41,14.72-.47,22.08q-.21,27.15.57,54.3c.39,14.24.7,28.6,2.28,42.77.11,1,.24,2,.39,3.07.11.75,1.73.35,1.61-.43-.78-5.38-1.12-10.83-1.44-16.25-.48-8-.79-16-1.05-23.95q-.85-27.41-.75-54.84c.06-13.76,0-27.65,1.58-41.33,3.25-27.82,10.2-55.28,10.68-83.39a138.52,138.52,0,0,0-4-37.62,39.92,39.92,0,0,0-6.06-13.69A30.31,30.31,0,0,0,88.71,576c-2.23-1.27-4.53-2.4-6.82-3.55-.67-.34-1.85.63-.93,1.09Z"/></g><g id="Layer_11" data-name="Layer 11"><path class="cls-4" d="M536.79,386.86c-.85,19-1.72,41.33-1.93,60.35a3.28,3.28,0,0,0,.39,2,3.37,3.37,0,0,0,1.06.88c1.42.91,6.38,2.22,7.8,3.12-.37,3.94,13.64,6.7,11.08,9.84-5.05,6.23-14.53,42.46-22.47,43.76-20.8,3.42-61.75-39.83-76.94-51.74-1.83-1.43-11.78-6.65-11.48-8.8s7.07-5.63,8.5-7.73c9.58-14.08-2.05-55-2.05-55"/><path class="cls-8" d="M479.13,419.78s8.93,17.63,43.1,20.44c0,0,6.95.33,12.41-2.13l-.08-6.89Z"/><path class="cls-9" d="M567.48,372.18c-11.12-6.39-14.43-19.54-14.33-31.56.11-11.5-10.23-28.1,3.79-28.92.27,0-6-9.25-1.77-8.81-3.14-6,6.15-6.35,6.74-13.56.12-1.46.9-14.27-8.21-14.23C516.7,233,474,246.87,449.9,252.61c-47.34,11.25-71.29,24.8-52.12,99.6,12.87,50.22,63,51,111.25,44.65,20.62-2.69,45.26-4.35,58.91-24.44Z"/><path class="cls-9" d="M449.19,208.48c-1.67-2.56-15.62-11.27-23.32-9.63-5.51,1.18-11.7,4.3-20.19,13.6-9.09-1.61-20.14-2.21-24.92,2.91a30,30,0,0,0-4.81,7.36h0l-.05.17A62.49,62.49,0,0,0,372.7,231c-5.25,9-16,28-17.5,36.17-.74,4.05,5.85,11.85,14.39,20a15.56,15.56,0,0,0-3.24,7.87c-.83,7.54,9,22.61,27.59,13.05,5.7,4.53,9.69,7.51,9.69,7.51l5.14-5.3-1.53-2.72,6.28-6.34-5.23-3.71a40.48,40.48,0,0,1,4.68-4.84c6.08-6.51,12.44-15.42,18.24-22.17,2.67-3.12,10.47-5.47,13.3-8.46a14.59,14.59,0,0,0-5.21-1.64l2.28-2.41c2.94.86,5.42,1.64,6.23,2,2.49-2.59,9.34-5.49,11.79-8.12.57.74,1.14,1.49,1.68,2.26,2.23-2.41,7.23-5.37,9.45-7.8-1.92-12.45-8.43-22.58-20.68-27C450.13,214.67,450,209.73,449.19,208.48ZM374.72,296.4a17.54,17.54,0,0,1-1.59-5.93c3.58,3.28,7.36,6.55,11,9.59C380.46,300.42,376.37,299.91,374.72,296.4Zm66.63-87.24c.14,2.13-1.12,5.52-2.23,8l-.93-.07a143.72,143.72,0,0,0-14.82-.64c2-4,4.1-7.89,4.79-8.55C431.73,204.54,441.1,205.45,441.35,209.16Z"/><path class="cls-4" d="M528,275.18l.4.19a4,4,0,0,1-.44-.49Zm14,.89c.23.16.47.32.73.47l0-.25S542,275.78,542,276.07ZM473.39,416.46c14.56,11.27,37.7,17.27,52.58,17.33,7.29,0,13.78,1.15,20.33-5,16.43-15.33,31.48-41.48,25.7-64.44-1.06-4.23-4.65-11.92-4.91-16.09-.3-4.82-3.4-27.81-9.65-41.74-7.61-17-14.09-25.05-14.09-25.05-1-2.9,6.62-2.53,4.68-4.71l-1.3.17a1.29,1.29,0,0,1,.81,1.11,10.39,10.39,0,0,1-4.83-1.54v0c-1.83,1.15-3.9.51-5.72-.77,0,.3.44.85.77.81a6.61,6.61,0,0,1-5.44-1.11c0,.3.45.85.48,1.15a12,12,0,0,1-4.42-1.3c.35.35,7.53-1.75,7.56-1.54-1.91.55.41.91-1.41-.37l-1.76-.9c-1.59.52-1.4,1.49-2.86.46.37.26-1.32-3.17-1.28-2.87-2,.26-1.44.06-3.18-.62,0,.29-5.07,2.63-5,2.93-1.62.21-1,1.65-2.45.62.36.26,1-1.4,1.37-1.14-1.91.55-2.48,1.9-4.3.62.36.26-6.86-2.43-6.86-2.43-1.91.55-1.5,1.12-3.28.14.73.51-9.08.62-8.67,1.18-1.63.21,3.88,5.55,2.46,4.83,0,.29-3.85-.41-3.85-.41-1.59.51,1,1.68-.41.66,0,.3.48,1.15.81,1.11-1.84,1.15-4.19.85-6.3-.09.73.51,1.13,1.07,1.5,1.32-1.63.22-2.89.68-4.67-.3,0,.3.8,1.11,1.13,1.07a6.46,6.46,0,0,1-5.28.08c0,.3.77.81,1.13,1.07a4.64,4.64,0,0,1-4-.09l1.13,1.07c-1.3.17-2.19.89-4.22.55,0,.3.73.51.77.81a12.12,12.12,0,0,1-3.3.13c0,.3,1.1.77.77.81-1.3.17-2.2.89-3.9.51.36.26.77.81,1.13,1.07-1.3.17-2.56.63-3.94.21A2.21,2.21,0,0,0,468,287c-1.3.17-2.2.89-3.9.51,0,.3.76.81,1.13,1.06a17.1,17.1,0,0,1-3.9.51c0,.3.73.52,1.09.77a10.69,10.69,0,0,1-4.27.26c.08.59.45.85.48,1.15-1,.12-1.66-.09-2.63,0l-1.55.81c-3.77,6.56-14.23,20.07-14.23,20.07-9,9.37-7.39,23.4-6.32,29S445,368.59,445,368.59c-1.9-1.88-4-6.5-5.25-8.76-1.25-2-3.05-4.12-4.3-6.08-3.55-4.39-9.85-2.05-13,1.41l-.47,1.06c-4.09,7.39-.39,24,10.41,34,2.76,12.54,16.27,16.89,18.06,7.14L457.05,408"/><path class="cls-10" d="M540.5,378.81a8.51,8.51,0,0,1-7.52.6c-.51-.22-2,.28-1.33.58a12,12,0,0,0,10.22-1c.25-.17.18-.37-.18-.43a1.91,1.91,0,0,0-1.19.23"/><path class="cls-10" d="M530.65,379.54a13.52,13.52,0,0,0-4.75-.46,1,1,0,0,0-.67.31c-.12.14-.13.29.06.37a5.31,5.31,0,0,0,2.6.2,1,1,0,0,0,.74-.4c.11-.23-.17-.33-.38-.3a4,4,0,0,1-2.1-.17c-.2.23-.4.46-.61.68a12.37,12.37,0,0,1,4.25.43,1,1,0,0,0,.83-.21c.15-.12.3-.37,0-.45"/><path class="cls-10" d="M524.38,380.62c-1.87.21-4.16-.26-5.26-1.48-1.67-1.85-.85-5.45,1.28-7.08.24-.18.08-.34-.19-.36a1.54,1.54,0,0,0-1,.34,6.57,6.57,0,0,0-2.21,6.32c.53,1.75,2.48,2.75,4.78,2.95a10.53,10.53,0,0,0,2.1,0c.28,0,.77-.19.88-.42s-.16-.3-.42-.26"/><path class="cls-10" d="M543.78,377.42a.23.23,0,0,1,.19-.37,2.27,2.27,0,0,0,1.37-.66l.58.51a6.64,6.64,0,0,0-2.77,1.41.56.56,0,0,1-.61,0c-.13-.08-.29-.29-.13-.43"/><path class="cls-10" d="M542.41,377.88a7.48,7.48,0,0,1,3.1-1.57.62.62,0,0,1,.53.14.25.25,0,0,1,0,.37"/><path class="cls-10" d="M547.67,377.12a3.84,3.84,0,0,0,2.92-2.63,5.19,5.19,0,0,0-2.25-5.56.21.21,0,0,1,0-.39.74.74,0,0,1,.67.1,5.86,5.86,0,0,1,2.65,4.62,4.2,4.2,0,0,1-2.29,3.95,4.69,4.69,0,0,1-1.3.46.68.68,0,0,1-.64-.2c-.12-.21,0-.32.2-.35"/><path d="M442.24,374.92a69.62,69.62,0,0,0-7.8-10.29,22.45,22.45,0,0,0-5.16-4.26,6.48,6.48,0,0,0-2.72-1,1.7,1.7,0,0,0-.45,0c-.67.1-.84.71-1.06,1.28-1.44,3.73-.72,8,.71,11.62.15.38,1.24,0,1.11-.3a17.58,17.58,0,0,1-1.32-9.08,8.76,8.76,0,0,1,1-3.22l-.6.29h0c.16.05.09,0,.36,0a6.7,6.7,0,0,1,1.74.66,25.37,25.37,0,0,1,7.1,6.32,80.59,80.59,0,0,1,6,8.31c.2.3,1.28-.06,1-.43Z"/><path class="cls-11" d="M561.53,316.18c-8,1.26-12.53,3.45-23.6,10.95l.12.28c.6,1.62.26.71.87,2.34.46,1.24.92,2.48,1.39,3.71,3.59-2.5,6-4.69,8.43-6.08,4.55-2.63,9.5-6.21,14.67-7.5C562.76,318.66,562.12,317.43,561.53,316.18Z"/><path class="cls-11" d="M515,332.54c-.62,1.62-.27.71-.9,2.33-.48,1.24-1,2.47-1.45,3.69-3.81-2.65-6.39-4.94-8.93-6.43-5.06-2.95-10.57-7-16.33-8.28-2.76-.63-6.74-1.45-9.46,0-.73.4-2.48,2.17-3.34,1.33-.36-.34,1.1-2.06,1.25-2.24,3-3.47,7.28-3.72,12.15-3,9.92,1.58,14.44,3.64,27.13,12.25"/><path class="cls-12" d="M440.59,396.22A7,7,0,0,0,445,408.64a8.7,8.7,0,0,0,2.88-.67,7.66,7.66,0,0,0,4.49-4.64c.14-.37-.5-.45-.72-.43a1,1,0,0,0-.91.6,6,6,0,0,1-3.24,3.54,6.81,6.81,0,0,1-1.53.47c-.15,0,.19,0,0,0l-.13,0-.25,0-.33,0s-.09,0,0,0a5,5,0,0,1-.54-.07,6.66,6.66,0,0,1-1.3-.38,6.17,6.17,0,0,1-2-1.37,6.33,6.33,0,0,1-1.74-4.18,6.54,6.54,0,0,1,2.22-5c.28-.25.14-.57-.18-.68a1.26,1.26,0,0,0-1.14.31Z"/><path d="M441.84,375.06c-1.78.25-4.15.95-3.44,3.21.63,2,2.16,3.6,2.74,5.64a3.35,3.35,0,0,1-.33,2.89c-.32.46-.38.49-.92.34a4.79,4.79,0,0,1-1.55-.85,11.83,11.83,0,0,1-3.15-3.84,15.38,15.38,0,0,1-1.14-2.71,6.1,6.1,0,0,0-.4-1.06c-1.25-2.23-2.7-6.16.08-7.85.47-.28-.64-.17-.85,0-2.68,1.62-1.91,4.93-.79,7.31.17.36.38.71.56,1.07.27.57.39,1.23.62,1.82a14,14,0,0,0,3,4.73c1.35,1.4,4.1,3.1,5.64.94,1.38-2-.07-4.36-1.08-6.13a9.37,9.37,0,0,1-1.41-3.1c-.2-1.42,1.1-1.78,2.26-1.94.45-.07,1-.54.2-.43Z"/><path class="cls-11" d="M538.87,344.85s8.92-9,13.57-10.08c6.79-1.57,11.42,2.2,14.3,5.25,0,0-8.25-4.65-13-3.4C549.2,337.81,538.87,344.85,538.87,344.85Z"/><path class="cls-11" d="M500.88,344.8a4.94,4.94,0,0,0-5.16,1.65,4.82,4.82,0,0,0-1.13,2.39,5,5,0,0,0,1.73,4.29,4.56,4.56,0,0,0,5.31.22,5,5,0,0,0,1.7-6.13,4.49,4.49,0,0,0-2.45-2.42"/><path class="cls-11" d="M511.78,349.22s-10.79-5.85-15.89-5.68c-9.19.3-17,6.55-19.12,10.26,0,0,12.21-8.51,17.45-8.57C499.23,345.17,511.78,349.22,511.78,349.22Z"/><path class="cls-13" d="M543.91,280c2.33,8,12.58-.35,6.21-1.57.23-4.07-5.61-5-6-9-.2.39-.32.69-.32.69s-.78-4.84-2.57-5.81-9.57-3.7-9.57-3.7l-2,2c0-.13.61-1.83-.65-2.65s-14.49-5.68-22.34-4.15l-.77.17L502.88,258l-.11.08.12-.09c.53-.42,1.67-1.43.94-2a2.87,2.87,0,0,0-1.55-.46,28.94,28.94,0,0,0-4.85.15v0l-.53.09-.54.05v0a28.86,28.86,0,0,0-4.73,1.1,2.87,2.87,0,0,0-1.38.85c-.55.78.81,1.46,1.43,1.73l.14.05-.13,0-3.51-1.28a7,7,0,0,0-.79,0c-8,.54-19.49,8.63-20.51,9.76s0,2.6.05,2.72l-2.43-1.38s-9,4.93-10.47,6.31-1.84,4.29-1.84,4.29-2.76,1.44-3.84,1.23-6.09,3.31-7.9,6.79c-1.15,2.23-.39,4.09-.86,6h0c-.26,1.06-.4,1.76-.4,1.76l-5.32,2.59C429.69,301,432,310,432,310c-7.36,11.91-6.6,21.13-1.38,30.49,2,3.6-8.34,8.86-1.39,7.8S445,368.59,445,368.59s4.86-9.39,4.63-13.43-3.74-15.63-3.74-15.63l3.33-.93s2-1.11,3.86-6-3.72-12.32-3.72-12.32l-2-4.7,6.7-.41c6.26-1.94,5.71-8.93,5.71-8.93l-2.62-11.41,4.35,3.37a4.78,4.78,0,0,0,3.92,1.18c9.84-2.05,10.2-8.39,10.2-8.39l.57-6,2.74,1.34c2.95,1.84,11.53,4.14,15.45,1.82,1-.62,5.15-4.76,5.83-5.34,2.41-2.29,2.32-6,2.19-7.42-.44-.33-.87-.75-1.29-1.11-1.62-1.35-2.22-.62-.6.74,2.8,2.34,7.42,5.54,11.1,5.23s10.94-2.77,11.66-4.53c.49-1.17-.65-1.16.65-1.28a4.3,4.3,0,0,1,3,1.32c1.94,1.71,3.44,4.4,6,5.3,3.67,1.31,5.5-.86,8.86-2A1.64,1.64,0,0,1,543.91,280Z"/><path class="cls-14" d="M551.31,272.47s1.4-7.78-3.49-11.51-23.73-18.82-52.27-15.13Z"/><path class="cls-15" d="M397,310.47s-20.35,15.41-32.14-1.06,12.57-26,12.57-26"/><path class="cls-16" d="M381.41,222.2s9.12-20.49,25.21-19.26,9.49,28.25,9.49,28.25"/><path class="cls-17" d="M537.53,391c-7.46,1.08-23.29,7.87-26.2,11.14,0,0,10.22,10.13,27.53,7.62s18.46-14.29,18.46-14.29S547,389.58,537.53,391Z"/><path class="cls-18" d="M517.91,398s8.78-2,15.87-3,16.05-1.63,16.05-1.63.4-5.27-12.44-3.41S517.91,398,517.91,398Z"/><path class="cls-19" d="M538.54,408.51c-8.27.06-17.56-7.16-26.92-5.22,0,0,4.76,15.61,25.1,12.66s20.9-19.33,20.9-19.33C548.08,397.42,546.48,406.22,538.54,408.51Z"/><path class="cls-19" d="M545.81,385.77c-4.32.32-6.8,2.28-8.66,2.55s-4.79-.91-9,0c-4,.86-19.23,14-17.16,14.91s13.9-9.08,26.76-10.94,19.06,6.78,20.78,5.28S549.85,385.48,545.81,385.77Z"/><path class="cls-4" d="M1029.05,251.58s-9.59,39.82,6.08,68.1c2,3.62,23.46,13.77,23.46,13.77l-20.55,14c-16.67,11.38-46.53,28.68-66.63,26.89-11.4-1-12.81-15.1-21.92-18.17l-13.28-11.6s15.61-11.73,16.52-16.51-3.47-40.76-3.47-40.76"/><path class="cls-4" d="M772.62,280.17c-1.68-7.57-.84-26.41-4.6-26.94s-7.8,1-9.75,7,3.08,21.43-2.37,25.78c-3.95,3.15-7.41-1.21-7.41-1.21s-19.16-24.25-24.68-33.68-12.66-16.3-15.16-13.81-2.88,5.3,1.71,13.09,13.38,19.47,12.26,21.2-3.83,0-6.56-4.53-16.89-24.8-20-24.66a5.1,5.1,0,0,0-4.36,6.82h0a18.92,18.92,0,0,0,3.88,7c6.45,7.35,15.26,17.8,19.09,24.28a.6.6,0,0,1-.92.75,193.27,193.27,0,0,1-13-14.9l-5.95-8.66c-1.48-2.15-4.43-2.8-6.19-1.12a3.18,3.18,0,0,0-1,2c-.36,3.73,4,8.45,4,8.45l19.49,26.39s-.41,2.61-2,2.57-14.85-22.11-17.08-20.74-4.5.23-1.51,7.55,15.5,21.8,19.42,27.83,15.12,17.65,20.76,24.86a15.68,15.68,0,0,0,13.56,6.15l16.34-1.45c.78-.1,15.5-7,16.46-23.82S774.3,287.74,772.62,280.17Z"/><polygon class="cls-4" points="740.19 337.87 745.01 351.58 777.26 332.69 773.67 320.5 740.19 337.87"/><path class="cls-20" d="M743.42,295.42c-3.78,1.64-6.12,5.17-7.42,8.95A35.2,35.2,0,0,0,734.4,319c.06.74,1.82.33,1.75-.47A34.82,34.82,0,0,1,737.52,305c1.13-3.52,3.13-7,6.66-8.56,1.1-.48.12-1.35-.76-1Z"/><path class="cls-4" d="M1204.85,269.19c-1-7.16-7.92-23.27-4.76-25s7.25-1.79,11,2.78,4.3,19.7,10.57,21.64c4.53,1.4,6.18-3.57,6.18-3.57s9-27.6,10.86-37.68,6.84-22.48,9.88-21.16,4.29,3.64,2.78,12-6.46,25.49-4.89,26.61,3.39-1.31,4.33-6.16,7.82-31.31,10.6-32.24a4.73,4.73,0,0,1,6.11,4.46h0a17.35,17.35,0,0,1-1.15,7.4c-3.48,9-9.11,25.9-10.11,32.62a.42.42,0,0,0,.8.25c1.48-3,5.28-14,8-22.29l2.44-9.56c.6-2.37,3-3.94,5.12-3.07a2.88,2.88,0,0,1,1.53,1.44c1.55,3.12-.77,8.7-.77,8.7l-9.6,33.59s1.22,2.12,2.59,1.56,6.89-28.28,9.32-27.84,4.07-1.32,3.82,6.06-7.58,28.23-9.08,34.81c-1.54,6.74-7.63,20.48-10.27,28.67a15.05,15.05,0,0,1-10,9.95l-15,4.28c-.72.18-16-.82-22.42-15.16S1205.84,276.34,1204.85,269.19Z"/><polygon class="cls-4" points="1251.27 311.91 1250.04 325.42 1213.05 322.89 1216.46 304.38 1251.27 311.91"/><path class="cls-20" d="M1235.3,273.69c3.79.13,6.84,2.67,9.08,5.53a31.89,31.89,0,0,1,5.44,11.09c.2.71,1.85.27,1.65-.44a32.26,32.26,0,0,0-5.91-11.77c-2.42-3-5.72-5.42-9.67-5.55-.37,0-.92.1-1.08.49a.48.48,0,0,0,.49.65Z"/><path class="cls-21" d="M1202.31,506.43a90.29,90.29,0,0,1-10-39c-.42-12-.14-24-1.9-35.95l20-118.66,45.49,6.16S1264.37,504,1254,519.88c-5,7.57-17.75,17.18-29.63,20.84C1212.88,533.64,1208.75,519.11,1202.31,506.43Z"/><path class="cls-21" d="M1037.17,317.09s69.32,2.72,99.49,33.94c13.85,14.32,59.89,71.32,69.12,84.43-2.44,11.71-1.7,22.74-3.6,34.57-2.12,13.17,4.85,19.9,7.87,32.79,2.59,11.07,13.34,26.8,19.67,35.49-11.15,7.46-41.6-5.83-55.3-17.22-18.33-15.15-63.59-52.46-94.64-90-3-3.47-11.64-17.53-19.2-31.7C1050.22,385.37,1033.23,326.46,1037.17,317.09Z"/><path class="cls-21" d="M915.47,355.39c-6-1.62-12.22-5.07-17.25-1.38-13.26,9.73-17.26,15.6-33.66,43.25-32.77,55.23-65.3,81.56-65.3,81.56l37,86.93s95.7-44,118.06-127.23C971.12,376.13,933.54,360.22,915.47,355.39Z"/><path class="cls-21" d="M844,561.79s-4.36-39.12-13.72-80.83c-5.89-26.24-20.13-68.82-29.33-90-23.85-54.94-24.38-60.27-24.38-60.27l-37.46,18.77s7.46,107.72,29.71,172.9C793.9,595.83,844,561.79,844,561.79Z"/><path class="cls-4" d="M941.31,660.54s-3.53,200.25-11.37,378.57c-6.51,146.69,52.88,350.94,52.88,350.94l39.42-.68s-1.84-204.91-.19-358.11c16.15-121.88,31.61-214,31.61-214L1056.29,641Z"/><path class="cls-4" d="M1016.49,671.48s-3.52,200.25-11.37,378.57c-6.51,146.69,52.88,351,52.88,351l40-1.6s-2.39-204-.73-357.2c16.15-121.88,41.09-214,41.09-214l-12.66-129.52Z"/><path class="cls-21" d="M922.5,1150.5c-.5-9.86-.86-16.71-1-19.22-6.9-91.9-13.82-184-17.22-276.16-2-53.17-13.16-116.12-4.9-168.56.68-4.3,6-6.94,6.61-11.22,5.29,1-3.67-23,1.73-22.45a207,207,0,0,0,53-2c36.17-5.76,70.63-19.17,103.65-34.2,13.08-6,26-12.23,38.87-18.57l-8,4.92s59.68,49.13,81.37,154.86-53,611.05-53,611.05-10.13,17.77-99,13c-19.77-1.06-85.18-12.82-85.19-12.82C933,1368,925.38,1208,922.5,1150.5Z"/><path class="cls-21" d="M912,588.94c.39,8.91,4.53,43.84,2.89,52.34,7.73,2.2,3.67.92,11.66,2,34.91,4.56,70.26-1.49,103.79-11.22,37.1-10.76,64.13-22.72,84-31l-.89-1.93,12-251.92L1080.18,334l-44.39-16.89-.18.92c-3.33,16.72-14.11,31.25-29.55,38.47a44.9,44.9,0,0,1-16.46,4.35c-5,.28-14.52.67-19.87.24-14.93-1.18-26.45-14.73-19.63-30,.2-.46-25.38,12.34-27.43,13.22-14.37,6.18-23.42,7.82-26.73,11.45,0,0-2.19,20.11-2,62.52.06,13.71-10.8,59.66-11.5,72.52-2.18,40,16.8,44.12,23.93,52.2C908.12,544.92,909.87,539.73,912,588.94Z"/><path class="cls-22" d="M881.72,421.58a134.18,134.18,0,0,1,2.58,31c-.24,8.11-1.21,16.15-2.18,24.19-.53,4.33-.74,8.64-1.08,13a76.19,76.19,0,0,0,.42,15.32c1.13,8.82,3.89,17.61,9.38,24.72.26.34,1.66-.15,1.36-.54-8.36-10.8-10.64-25.72-9.76-39.06.26-4,.46-8.05.93-12.07.9-7.69,1.9-15.36,2.27-23.09a136.56,136.56,0,0,0-2.47-33.88c-.09-.42-1.54-.06-1.45.39Z"/><path class="cls-8" d="M952.44,318.68s8.44-3.51,14.17-5.27,15.61-1.65,41.62-25.34c0,0-7.11,28.52-40.89,35.4,0,0-8.72,2-14.51.79Z"/><path class="cls-4" d="M918.54,146.26a4.05,4.05,0,0,1-.32.62l.36-.3Zm-14.78,5.21,0,.26c.22-.22.43-.44.62-.66C904.38,150.76,903.76,151.47,903.76,151.47Zm124.46,106.34,1.28-5.46c7.75,9,18.81.59,18.45-13,3.17-7,6.43-30,.33-36.52l-.75-1c-4.15-2.73-11.23-3.53-13.76,1.89-.79,2.33.23,5.1-.55,7.44-.75,2.65-4,7.83-5.48,10.24,0,0-3.2-12.78-3.54-18.84s-6.46-23-18.13-30.34c0,0-2.06-21.26-7.61-27.05l-1.8-.43c-1,.11-1.69.51-2.72.63,0-.32.27-.68.2-1.31-1.65.83-3.07.67-4.45.83.31-.36,1-.75.93-1.07a18.66,18.66,0,0,1-4.15.47c.32-.36.93-1.07.9-1.38-1.66.82-2.76.31-4.14.47a2.31,2.31,0,0,0,.54-1.35c-1.31.79-2.72.63-4.1.79.31-.36.58-1,.89-1.39-1.65.83-2.76.32-4.14.47-.35,0,.62-.71.58-1a12.35,12.35,0,0,1-3.41.71c0-.31.62-.71.58-1-2,.87-3.11.36-4.49.51l.89-1.38a4.9,4.9,0,0,1-4.06,1.1c.3-.35.92-1.06.89-1.38a6.86,6.86,0,0,1-5.45,1.26c.34,0,.92-1.07.89-1.39-1.58,1.47-3,1.31-4.72,1.5.31-.35.58-1,1.2-1.74-1.93,1.51-4.27,2.41-6.45,1.7.34,0,.58-1,.55-1.35-1.24,1.43,1.17-.45-.59-.57,0,0-3.83,1.72-3.86,1.4-1.28,1.11,3-5.79,1.3-5.59.27-.68-9.83,1.71-9.21,1-1.58,1.46-1.31.77-3.41.69,0,0-6.74,4.6-6.44,4.25-1.54,1.78-2.47.54-4.57.45.3-.35,1.39,1.19,1.7.83-1.24,1.43-1-.21-2.69,0,0-.32-5.87-1.42-5.91-1.74-1.61,1.15-1,1.22-3.11,1.46,0-.32-.9,3.63-.59,3.28-1.23,1.42-1.29.37-3,.25l-1.58,1.38c-1.54,1.78.75.82-1.36.73,0-.22,7.9.11,8.17-.34a12.52,12.52,0,0,1-4.22,2.46c0-.31.24-1,.2-1.3a6.93,6.93,0,0,1-5.3,2.52c.34,0,.62-.71.58-1-1.55,1.77-3.51,3-5.69,2.24v-.05a10.94,10.94,0,0,1-4.57,2.82,1.36,1.36,0,0,1,.54-1.34l-1.38.15c-1.44,2.73-2.91,5.14-3.24,8.39,0,0-10,19.51-8.34,31.19s6.07,31.42,7,36.45A102.94,102.94,0,0,1,895,245.33c0,10.35.22,13,3.92,23,3.58,9.64,6.65,14.67,13.27,22.57,6.9,8.25,16.18,15,25,21.73,5.82,4.4,13.65,7.62,21.35,7.11,21.5-1.42,41.06-18.32,53.15-33.63"/><path class="cls-23" d="M894.05,174.22c6.28-19.39,26.57-32.05,69.6-42.31s78.93,1.83,78.93,1.83c-27.37-60.19-90.53-50.95-104.66-49.35s-80.84,65-51.11,114l1.73,4.76S892.91,177.75,894.05,174.22Z"/><path class="cls-23" d="M1052.32,119.49s.79-39.75-29.28-49.65C982.86,56.61,929.9,54.77,915.79,97.11Z"/><path class="cls-24" d="M1059.16,214.93c2.8-3.55.93-12.51,3.23-16.4,12.08-20.35,5.47-38.19-1.19-48.48-2.9-4.48-.52-13.18-1.21-17.32-3.66-21.68-6.24-22.07-41.21-40.78-28.47-15.23-57-11.17-73.46-8.41C919,88,907.45,91,900.3,110.81c-.93,2.59.6,4.43-.08,7.5-1,4.34-7.46,5.53-8,10.95,0,0,35.59,9.84,66.58,22.3s89.76,67.67,89.72,86.22C1048.56,238.36,1056.06,218.85,1059.16,214.93Z"/><path class="cls-23" d="M1069,171.91s-57.05-56.08-111.85-50.41c0,0,69-17.09,105.83,30l1,1.93a48.35,48.35,0,0,1,4.81,16.27Z"/><path class="cls-23" d="M899.55,119.1l3.56-1.8a96,96,0,0,1,26.2-8.85l15.28-2.8s-37.92-2.3-45.13,8Z"/><path class="cls-12" d="M1035,248.38a6.65,6.65,0,0,1,6.58,5.36,6.42,6.42,0,0,1-.77,4.45,4.8,4.8,0,0,1-2.06,2,6,6,0,0,1-5.78-.08c-.38-.2-1.73.37-1.18.66a8,8,0,0,0,6.5.37,7.44,7.44,0,0,0,3-1.76,7,7,0,0,0,0-9.5,7.64,7.64,0,0,0-5.64-2.23c-.28,0-.82.1-1,.38s.13.37.38.37Z"/><path class="cls-11" d="M1019.75,196.72l5.33,30.6,9.29-14.82S1024,201.19,1019.75,196.72Z"/><path class="cls-25" d="M1032.78,226.15c1-.1,2.53-.25,2.77,1a7.44,7.44,0,0,1-.55,3.25c-.62,2.21-1.56,5.19.55,6.92,2.52,2.08,5.2-1.91,6-3.83a14,14,0,0,0,1-8.49c-.57-3-1.76-6.92-5-7.93-.62-.19-1.72.71-.84,1,2.71.85,3.73,4.3,4.26,6.77a13.25,13.25,0,0,1-.54,7.77,8.18,8.18,0,0,1-2.59,3.9c-.92.64-1.67-.2-2-1.11-.77-2.13.54-4.63,1-6.69a3.34,3.34,0,0,0-.29-2.8c-.83-1-2.52-.94-3.69-.82-.82.08-1.13,1.16-.14,1.06Z"/><path class="cls-23" d="M1036.89,180.58s21.71,17.87,24.1,25.66l1.4-7.71A40.66,40.66,0,0,0,1036.89,180.58Z"/><path class="cls-10" d="M938.15,259.89a10,10,0,0,0,8.92-1.59c.53-.41,2.46-.29,1.72.29-3.15,2.47-8.7,3.3-12.17,2-.35-.13-.32-.39.08-.57a2.15,2.15,0,0,1,1.45-.09"/><path class="cls-10" d="M949.81,257.74a15.93,15.93,0,0,1,5.39-2,1.25,1.25,0,0,1,.87.17c.18.13.24.31,0,.46a6.16,6.16,0,0,1-3,1,1.16,1.16,0,0,1-1-.26c-.2-.24.09-.44.35-.47a4.91,4.91,0,0,0,2.39-.84l.92.62a14.41,14.41,0,0,0-4.81,1.81,1.2,1.2,0,0,1-1,0c-.22-.1-.47-.36-.18-.54"/><path class="cls-10" d="M957.43,257.12c2.24-.31,4.76-1.58,5.67-3.38,1.37-2.72-.63-6.55-3.61-7.85-.32-.14-.19-.39.11-.49a1.9,1.9,0,0,1,1.23.11,7.83,7.83,0,0,1,4.45,6.66c-.09,2.26-2.06,4.05-4.66,5a12.57,12.57,0,0,1-2.45.62c-.33,0-1,0-1.15-.23s.1-.4.41-.44"/><path class="cls-10" d="M933.92,259.22a.29.29,0,0,0-.33-.39,2.59,2.59,0,0,1-1.8-.37l-.51.79a7.9,7.9,0,0,1,3.64.85.64.64,0,0,0,.71-.19c.13-.14.25-.44,0-.56"/><path class="cls-10" d="M935.65,259.35a8.85,8.85,0,0,0-4.08-.93.74.74,0,0,0-.57.34.31.31,0,0,0,.06.45"/><path class="cls-10" d="M929.3,260.05a4.6,4.6,0,0,1-4.19-2.26,6.59,6.59,0,0,1,.93-7.35.26.26,0,0,0-.16-.45.83.83,0,0,0-.74.33,7.35,7.35,0,0,0-1.69,6.34,5.18,5.18,0,0,0,3.86,4,5.45,5.45,0,0,0,1.65.16c.22,0,.61-.17.69-.44s-.14-.38-.35-.36"/><path class="cls-11" d="M906.84,218.18a5.42,5.42,0,0,0-5.53,1.57,5.27,5.27,0,0,0-1,2.45,5.05,5.05,0,0,0,1.69,4.41,4.66,4.66,0,0,0,5.43.32,5.15,5.15,0,0,0,1.84-6.24,4.6,4.6,0,0,0-2.47-2.51"/><path class="cls-11" d="M927.45,222.9s-10.15-6.28-15-6.21c-7,.1-15.17,4.93-17.25,8.66,0,0,10.69-7,15.65-7C915.62,218.44,927.45,222.9,927.45,222.9Z"/><path class="cls-11" d="M968.29,211.78c1.8-1.21,4.91-1.29,6.29-.32a4.91,4.91,0,0,1,1.72,2.1,5,5,0,0,1-.67,4.67,4.65,4.65,0,0,1-5.21,1.54,5.16,5.16,0,0,1-3.2-5.67c.07-.39-.39-1.07,1.06-2"/><path class="cls-11" d="M957.46,218.55s9.77-7.89,14.93-8.63c7.53-1.08,17.06,2.32,19.91,5.66,0,0-12.63-5.17-17.92-4.27C969.33,212.18,957.46,218.55,957.46,218.55Z"/><path class="cls-11" d="M926.82,207.82c-.57,1.3-1.14,2.6-1.72,3.9q-.66,1.5-1.32,3c-2.81-2.22-5.3-4-7.2-5.21-4-2.66-6.08-4-8.8-4.66a25.6,25.6,0,0,0-6.61-.61,16.92,16.92,0,0,0-3.78.35c-2.84.69-4.51,2.13-4.79,1.82s1-1.66,1.09-1.8a16.45,16.45,0,0,1,7.44-4.62,18.36,18.36,0,0,1,7.09-.26c2.79.43,9.91,3,18.6,8.12"/><path class="cls-11" d="M947.89,204.24l2.61,3.38c.66.86,1.33,1.71,2,2.57,2.81-3.3,5.33-6,7.27-7.94,4.1-4.17,6.21-6.29,9.18-7.94a36.61,36.61,0,0,1,7.38-3,22.09,22.09,0,0,1,4.33-1c3.34-.33,5.47.55,5.74.12s-1.38-1.34-1.54-1.44a17.25,17.25,0,0,0-9.2-2,24.47,24.47,0,0,0-8.08,2.3c-3.08,1.44-10.72,6.6-19.69,15"/><path class="cls-21" d="M912,588.94s-8.28,74.93-14.3,106.77c0,0,48.94,38.87,180.23,7.67,85-20.22,87,12.12,87,12.12l-51.19-117.88-3.54-36.88L922.39,580.4"/><path class="cls-8" d="M939.08,201.76s-2.63,4.48-.93,8.43,5.26,4.72,7.58,3.94c0,0-5.7-1.11-6.5-6S939.08,201.76,939.08,201.76Z"/><path class="cls-22" d="M1104.48,357.54a38.91,38.91,0,0,0-7.68,8.71,53.85,53.85,0,0,0-9,25.24c-1.19,12.68,2,25.59,6.28,37.43a163.87,163.87,0,0,0,14.67,29.87,136.23,136.23,0,0,0,9.81,14.24c.42.53,1.8-.06,1.32-.64a129.94,129.94,0,0,1-7.77-11,169.8,169.8,0,0,1-14.77-28.13c-4.69-11.55-8.39-24.19-8.32-36.76a53.94,53.94,0,0,1,7.63-27.65,39.67,39.67,0,0,1,8.81-10.62c.77-.61-.39-1.14-1-.68Z"/><path class="cls-22" d="M1189.77,429.41a89.06,89.06,0,0,1-2.63,12.21,97,97,0,0,0-2.31,11.93,94,94,0,0,0,2.91,37.76c.14.49,1.59.1,1.45-.39a93.76,93.76,0,0,1-1-48.11c1.11-4.51,2.47-9,3-13.59.06-.55-1.4-.28-1.45.19Z"/><path class="cls-22" d="M822.11,452.7c2.57,6.32,6.74,11.8,9.3,18.11,3,7.42,3.47,16.07,2.89,24,0,.16,1.42,0,1.45-.38.58-7.92.13-16.56-2.89-24-2.56-6.31-6.73-11.79-9.3-18.1-.13-.32-1.54.15-1.45.38Z"/><path class="cls-17" d="M946.46,272.39c8.86-1.67,29.43,0,34,2.69,0,0-7.35,14.61-27.9,18.49s-26.71-8.18-26.71-8.18S935.18,274.52,946.46,272.39Z"/><path class="cls-18" d="M971.41,272.87S960.7,274,952.29,275.6,933.51,280,933.51,280s-2.53-6,12.71-8.87S971.41,272.87,971.41,272.87Z"/><path class="cls-19" d="M952.57,292.52c9.37-3.18,16.55-16,27.9-17.44,0,0-2.56,21.62-26.71,26.17s-27.9-15.86-27.9-15.86C937,282.58,942.7,293,952.57,292.52Z"/><path class="cls-19" d="M935.06,269.6c5-1.33,8.58,0,10.79-.44s5.06-2.94,10.2-3.52c4.82-.55,27.11,7.22,25.14,9.15S962,271.16,946.77,274s-19.15,12.41-21.68,11.33S930.37,270.85,935.06,269.6Z"/><path class="cls-26" d="M449.72,439s21.14,43.2,59.49,39.28,27.54-29.75,27.54-29.75c7.19,2.85,52,17.67,52,17.67s21.66,54.75,25.26,96.09S599.8,630,599.8,630l9.76,90L536,770.45,413.26,743.78s-2.05-54.54-19.57-120.7-11.82-68.32-10.77-96.18,9.18-56.64,14.5-55.36l46-29.8"/><path class="cls-27" d="M612,741.6,621.74,781c10.6,43.94,11.12,142.31,7.14,261.37l2.19,165.78s-4.47,23.8-.13,23.95c14.79.53-60-.2-75.45-3.36a188.54,188.54,0,0,0-68.71-1.4l-11.72,1.87a127.88,127.88,0,0,1-68.81-8.1l-36.12-20s32.51-179.4,3.75-297c-20.61-84.27,23.19-141.27,46.8-177.2Z"/><path class="cls-26" d="M408.53,704.16s-13.6,60-18.6,71,63.13,42.56,90.48,44.77,136.13,22.5,152.09,3.26l-27.3-141.7Z"/><path class="cls-26" d="M398.12,747.43c-7.83,23.25-27.85,80.6-27.85,80.6a539.39,539.39,0,0,0,137.27,16.73c40.89-.38,87.28-1.88,125-19.21-7.29-23.13-9.52-50.12-15.93-73.56Z"/><path class="cls-26" d="M446,440.87s-11.61,5-29.2,12.27c-12.81,5.32-44.74,23.12-55,45.46s-4,62.6,10.32,87.44,15.55,34.42,15.55,34.42l62-76.41L446,439.64"/><path class="cls-26" d="M645.77,684.57a46.6,46.6,0,0,0,21.81-7,44.17,44.17,0,0,0,5.66-4.27c5.66-5,10.8-12,10.8-20.76,0-19.48-14.64-44.75-19.66-57-3.57-8.69-28.59-81.25-54.18-113.72-6.34-8-12.1-11.51-21.48-15.62l-8.24-1.71,24.31,156-46.88,14.61.71,55.8Z"/><path class="cls-26" d="M383.21,482.81s-20.89,1.41-21.39,56.09,63.72,146.45,74.67,155.46,23.41,15.12,56.37,10.22C534.17,698.46,563,693,563,693L557.19,643l-73.7-3.35-59.9-123.12S403.67,480.44,383.21,482.81Z"/><polygon class="cls-4" points="491.76 637.84 499.39 637.51 504.87 636.23 508.69 669.06 500.06 669.59 491.76 637.84"/><path class="cls-28" d="M400.23,485.43c22.26,6.72,34.11,29.92,42,50,8.54,21.86,14.22,44.69,22,66.8,4.12,11.69,8.79,23.28,15.12,34,.34.58,1.72,0,1.32-.65a180.84,180.84,0,0,1-13.93-30.73c-4.06-11.18-7.52-22.56-11-33.92s-7-22.65-11.22-33.73c-3.9-10.23-8.38-20.39-14.55-29.48-7.05-10.39-16.61-19.57-28.86-23.27-.64-.19-1.71.74-.83,1Z"/><path class="cls-28" d="M397.24,640.43c3.82,7.22,7.76,14.39,12.15,21.28C413,667.4,417,672.87,421,678.26c2.52,3.35,5.07,6.67,7.6,10,2.87,3.78,5.64,7.67,8.86,11.17a31.68,31.68,0,0,0,10.94,8,46.42,46.42,0,0,0,12.67,3c13.51,1.59,27.4.31,40.86-1.22,16.13-1.83,32.15-4.52,48.13-7.31,14.07-2.46,28.12-5.14,42.26-7.14,1.39-.2,2.78-.39,4.17-.56.28,0,.89-.24.82-.64l-1.13-5.82c-.1-.55-1.56-.2-1.45.39l1.13,5.82.81-.64c-13.38,1.69-26.65,4.22-39.93,6.56-15.75,2.78-31.52,5.52-47.39,7.58-14.05,1.81-28.37,3.36-42.56,2.53-8.16-.48-16.74-1.75-23.37-6.9a52.83,52.83,0,0,1-9.26-9.92c-2.78-3.63-5.53-7.29-8.3-10.93-4.23-5.57-8.46-11.14-12.38-16.94-4.12-6.11-7.84-12.46-11.38-18.92q-1.74-3.18-3.44-6.41c-.29-.53-1.7-.07-1.45.39Z"/><path class="cls-28" d="M507.68,669.83c.32.5.14,1.71.16,2.26.05,1.43.08,2.85.11,4.28s.06,2.71.15,4.06c.06.87,0,1.15.89,1.27,7.1.93,14.21,1.76,21.32,2.58,17.08,2,34.27,3.7,51.48,3.89,7.75.08,15.67,0,23.29-1.61.6-.13,1.25-.85.24-.64a100.09,100.09,0,0,1-20,1.59c-8.4,0-16.8-.44-25.18-1.08-15.77-1.18-31.48-3.08-47.18-5l-2.45-.3c-.73-.09-.75.14-.89-.43a17.07,17.07,0,0,1-.18-3.72c-.05-1.61-.08-3.22-.13-4.84,0-.65.2-2.09-.17-2.68-.26-.4-1.61.14-1.45.39Z"/><path class="cls-28" d="M501.6,634.46c12.11-2.14,24.33-3.68,36.52-5.32,14.93-2,29.87-4,44.8-6.06,6.28-.89,12.56-1.78,18.82-2.83.62-.11,1.25-.82.24-.65-12.48,2.11-25.05,3.71-37.6,5.4-14.83,2-29.68,3.93-44.5,6-6,.86-12.05,1.72-18,2.78-.63.11-1.25.82-.24.65Z"/><path class="cls-28" d="M601.87,516.33c-1.13,7.14-2.52,14.55-1.27,21.77a28.53,28.53,0,0,0,4,10.1c1.76,2.9,3.52,5.81,5.23,8.75,5.54,9.47,10.44,19.19,13.25,29.84a168.8,168.8,0,0,1,3.92,21.42c.05.44,1.51.12,1.45-.39-1.51-11.66-3.64-23.27-8.27-34.14a140.3,140.3,0,0,0-7.45-14.61c-1.61-2.82-3.26-5.6-4.93-8.37-1.9-3.16-4-6.21-5.05-9.78-2.44-8-.77-16.68.52-24.79.08-.51-1.38-.26-1.45.2Z"/><path class="cls-4" d="M449.79,660.33c1.93-.1,1.37,1.39,1.17,1.88a40.89,40.89,0,0,1-5.74.47c-3.53.2-8.4.6-13.74,1.43-5.07.79-9.53,1.74-13,2.57a3.69,3.69,0,0,0-.34.79c-1,2.72,1.67,4.54,4.05,5.81s34-1.51,34-1.51L447,675.54a87.32,87.32,0,0,0-13.28,2.79c-2.54,1.27-2.29,4,0,5.66s18-4.11,35.68-3.62c11.76-.12,24.23-5.06,34.37-11l-10.23-31.16a149.85,149.85,0,0,0-14.85-6.84,111.6,111.6,0,0,0-22.29-7.08,138.56,138.56,0,0,1-18-5.82,8.19,8.19,0,0,0-1.26,8.26c1.79,5.29,19,7.83,19,7.83l-22.28,1.52s-17.49,5.35-18.76,10.15,4.46,4.14,4.46,4.14l14.33-4,16.4.65-17.08,3.4s-13.28,5.39-14.3,5.92c-2,1.33-2.87,1.64-3.27,4-.28,2.78,5,2.32,5,2.32l19.53-2.93Z"/><path class="cls-4" d="M601.86,619.92l8-25.77,1.5-19.61,21-13.94s5.64.64,3.87,5-10.22,12.19-10.22,12.19l-5,14,8.16-14.2L641,571.7l11.77.87s2.17,5.24-3.34,5.44h-5.89l-8.92,7.19L629,598.56l8.42-13.06,12.4-4.44,7.85,2s2.17,3.35-1.74,3.91a38.67,38.67,0,0,1-6.68.44l-7.12,4.34-6.31,13.37L646.92,596l14.4-1.74S663.7,597.6,660,599a119.6,119.6,0,0,0-11.1,5.25l-8,9.79Z"/><path class="cls-11" d="M556.38,336.11a5,5,0,0,1,5.41.26,4.84,4.84,0,0,1,1.71,2,4.91,4.91,0,0,1-.57,4.58,4.57,4.57,0,0,1-5.08,1.59,5.06,5.06,0,0,1-3.22-5.49,4.53,4.53,0,0,1,1.75-3"/><path class="cls-8" d="M526.51,328s3.12,4.53,1.63,8.84-5.21,5.4-7.72,4.76c0,0,5.94-1.62,6.41-6.91S526.51,328,526.51,328Z"/><path class="cls-4" d="M145.19,469.14s6.88,32.52-.25,55.47"/><path class="cls-2" d="M193.88,434.66c-2.21-1-4.65.18-6,1.52a5.44,5.44,0,0,0-1.44,2.65,5.56,5.56,0,0,0,1.68,5,5.18,5.18,0,0,0,6,.62,5.73,5.73,0,0,0,2.34-6.85,5.11,5.11,0,0,0-2.63-2.91"/><path class="cls-2" d="M205.3,442.76S197,432.2,189,432.77c-11.22.8-13.39,7.52-15.59,11.08,0,0,6.71-8.49,15.4-8.89C196.73,434.59,205.3,442.76,205.3,442.76Z"/><path class="cls-2" d="M201.2,413.46c.63,1.46.28.64.9,2.11l1.41,3.35c-4,.59-7,.67-9.45,1.26-4.91,1.16-10.78,1.9-15.11,4.6-2.07,1.29-4.93,2.72-5.66,5.39-.2.72-.25,3.46-1.3,3.44-.42,0-.61-2.05-.63-2.26-.35-4.14,2.13-7,5.58-9.49,7-5.1,11.07-6.52,24.16-8.66"/><path class="cls-10" d="M228.57,469.23a8,8,0,0,1-7.37,0c-.49-.26-2,.12-1.34.48a11.32,11.32,0,0,0,10-.13c.26-.15.2-.36-.14-.45a1.81,1.81,0,0,0-1.18.13"/><path class="cls-10" d="M218.92,469.14a12.82,12.82,0,0,0-4.6-.86,1,1,0,0,0-.68.26c-.12.12-.14.28,0,.37a5,5,0,0,0,2.51.43.93.93,0,0,0,.75-.35c.13-.22-.13-.34-.34-.33a3.79,3.79,0,0,1-2-.35l-.65.64a11.73,11.73,0,0,1,4.11.79,1,1,0,0,0,.82-.15c.16-.1.32-.35.07-.45"/><path class="cls-10" d="M212.72,469.7c-1.84.07-4-.6-5-1.93-1.47-2-.4-5.58,1.81-7,.24-.16.09-.34-.16-.38a1.47,1.47,0,0,0-1,.26,6.76,6.76,0,0,0-2.64,6.21c.39,1.81,2.21,3,4.43,3.38a9.31,9.31,0,0,0,2.05.16c.27,0,.77-.12.89-.34s-.13-.31-.39-.31"/><path class="cls-10" d="M231.87,468.1a.24.24,0,0,1,.21-.36,2.18,2.18,0,0,0,1.4-.56l.51.57a6.37,6.37,0,0,0-2.8,1.2.52.52,0,0,1-.6-.06c-.12-.09-.26-.31-.09-.44"/><path class="cls-10" d="M230.5,468.45a7.08,7.08,0,0,1,3.14-1.33.61.61,0,0,1,.51.19.26.26,0,0,1,0,.38"/><path class="cls-10" d="M235.69,468.12a3.77,3.77,0,0,0,3.05-2.42,5.42,5.42,0,0,0-1.77-5.81.22.22,0,0,1,.07-.39.7.7,0,0,1,.64.16,6.07,6.07,0,0,1,2.23,4.89,4.24,4.24,0,0,1-2.53,3.8,4.06,4.06,0,0,1-1.31.36.64.64,0,0,1-.61-.25c-.1-.22.06-.33.23-.34"/><path class="cls-29" d="M119.22,379.44s-9.75,2.11-13.06,7.18c-8.55,13.07-5.33,46.49,2.32,53.65l12.87,3.26Z"/><path class="cls-17" d="M226.12,482.59c-7,.38-22.06,5.43-25,8.28,0,0,8.75,8.5,24.87,7.62s18-9.95,18-9.95S235,482.11,226.12,482.59Z"/><path class="cls-18" d="M207.51,487.54s8.23-1.11,14.83-1.47,14.9-.14,14.9-.14.8-5-11.17-4.32S207.51,487.54,207.51,487.54Z"/><path class="cls-4" d="M147.43,478.62c-9.09,9.91-17.34-4.94-17.34-4.94-9.37-10.64-12-22.36-11.84-30.31s8.85-8.06,8.85-8.06c7.44.6,6.42,1.5,17.05,22.34"/><path class="cls-25" d="M137.35,457.65A62.81,62.81,0,0,0,131.88,447a20,20,0,0,0-4-4.69,5.64,5.64,0,0,0-2.26-1.21c-.9-.18-1.32.69-1.7,1.37-1.74,3.15-1.77,7-1.07,10.43.12.6,1.36.28,1.23-.33a15.74,15.74,0,0,1,.28-8.23,7.71,7.71,0,0,1,1.36-2.6l-.57.27c-.37,0-.06,0,0,0s0,0,0,0l.23.08a5.85,5.85,0,0,1,1.41.83,22.35,22.35,0,0,1,5.23,6.59,71.81,71.81,0,0,1,4.12,8.46c.24.58,1.46.23,1.23-.33Z"/><path class="cls-25" d="M137.24,461.45c-5.38.49-1.14,6.76-1.38,9.75,0,.17-.1.34-.11.5a2.18,2.18,0,0,0-.12.22l.48-.14-.1,0c0-.06-.36-.33-.41-.4a5.62,5.62,0,0,1-.62-.91,24.83,24.83,0,0,1-1.93-4.61,18.83,18.83,0,0,1-1.1-5.72c-.06-2.39.13-6,2.44-7.35.71-.42-.39-.47-.74-.26-2.15,1.29-2.76,3.85-2.9,6.21a16.29,16.29,0,0,0,.42,5.3,35.22,35.22,0,0,0,2.05,5.73c.38.82.94,2.19,1.85,2.58a1.51,1.51,0,0,0,1.85-.68,4,4,0,0,0-.11-2.65c-.28-1.16-2.43-6.71-.08-6.92.21,0,.72-.08.82-.32s-.08-.3-.31-.28Z"/><path class="cls-8" d="M158.39,500.72s7.28,17.83,40.66,21.42c0,0,7.78,1.27,8.91.36l-1.46-9.59Z"/><path class="cls-30" d="M239.51,434.17s21.33,3.68,23.32,17.31l.19,9.62s9.85,1.06,10,7.87"/><path class="cls-29" d="M103.12,422.4s-29-63.2,11.79-68.2a27.55,27.55,0,0,1,10.3-12.61c9.44-6.52,19.72-1,19.72-1s8.34-8.6,17.32-7.74S175,338.59,175,338.59s10.2-5.8,18.21-2.54,14,10.61,14,10.61,6.45-1.46,10.66.21c10.09,4,12.55,25.63,14.32,33.25,0,0-9.73-25.42-18.45-25.86s-83.45,21.92-83.45,21.92l-17.6,69.26Z"/><path class="cls-4" d="M139.78,489.75c14.63,12.9,44.74,27.2,63.21,28.72,18.12,1.49,23.36-5.09,25.51-8,11.79-16,18.86-31.56,21.91-49a41.8,41.8,0,0,0-.52-14.66c-1.37-7.49-4.53-21.81-5.29-29-1.92-18.42-12-33.36-23.94-47.6-24.95-29.66-69.13-24.47-86.72-13.37-20.56,13-27.87,35.23-26.53,57.78A60.91,60.91,0,0,0,112,434.82a65.09,65.09,0,0,1,9.39,10.12"/><path class="cls-2" d="M218.51,360.67s6.12,10.54,18.36,31.78c-3.2-6.84-5.73-17.39-13-26.6-25.23-32.19-87.53-20-105-8.2C98.41,371.47,93,394.87,94.56,419.2c.63,9.87,1,16.19,4.86,24,.15.09,2.09,1.69,2.09,1.69s20.19,1.43,28.15,12.62l-1-10.47s-.2-6.48,2.25-31c0,0,0-3.86,4.91-19.84S147.26,375,147.26,375s31.52-9.1,39.18-9.95S218.51,360.67,218.51,360.67Z"/><path class="cls-3" d="M217.7,360.89q5.56,9.57,11.08,19.16l7.27,12.62c.26.45,1.82,0,1.63-.44-2.24-4.83-3.81-9.93-6-14.78a53.86,53.86,0,0,0-9.26-14.55,52.22,52.22,0,0,0-21.28-13.54c-16.5-5.8-35-5.56-52-2.5a110,110,0,0,0-21.6,6,50.54,50.54,0,0,0-18.34,12.42C93.63,381.83,92.3,405.54,94.29,427a44.24,44.24,0,0,0,4.14,16A4.86,4.86,0,0,0,100,444.5a3.44,3.44,0,0,0,1.07.76,11.28,11.28,0,0,0,1.75.18c7.5.95,15.45,3.12,21.56,7.73a21.71,21.71,0,0,1,4.57,4.61c.26.36,1.62,0,1.57-.52-.32-3.5-.83-7-1-10.56a81.44,81.44,0,0,1,.34-8.41c.48-7.51,1.27-15.25,1.92-22.56.38-4.39,1.72-8.76,2.91-13,2.39-8.45,5-17.17,10.29-24.33a27.71,27.71,0,0,1,1.88-2.3c.26-.28.82-.64,1-1s-.85.25-.11.08c.56-.14,1.11-.32,1.66-.48q8.09-2.31,16.21-4.48c6-1.61,12-3.26,18.1-4.43,5.37-1,10.9-1.46,16.31-2.2q8.72-1.2,17.41-2.45l1-.15c.72-.1,1.39-.93.25-.77-10.76,1.55-21.52,3-32.31,4.4-5.5.7-11,2.3-16.32,3.69-6.15,1.6-12.27,3.29-18.39,5-1.43.4-2.88.76-4.3,1.22A4.3,4.3,0,0,0,145.5,376c-4.73,5-7.65,11.84-9.8,18.27-1.56,4.63-2.89,9.35-4.07,14.09a65,65,0,0,0-1.36,6.49c-.88,6.21-1.23,12.56-1.7,18.83-.32,4.22-.65,8.46-.69,12.7a89.11,89.11,0,0,0,.77,9.21l.2,2.12,1.57-.52c-4.9-6.77-13.52-9.93-21.39-11.63a31.45,31.45,0,0,0-6.74-1.06c-.38,0-.18-.05-.11,0a13.41,13.41,0,0,1-1.76-1.43,10.09,10.09,0,0,1-1.63-3.32,35.55,35.55,0,0,1-1.29-3.81c-1.53-5.5-1.78-11.28-2.13-16.95a110,110,0,0,1,.17-16.83c1-10.35,3.73-20.7,9.38-29.52A48.47,48.47,0,0,1,124,355.2a88.18,88.18,0,0,1,19.21-6.42c16.53-3.78,34.51-4.71,51-.4a57,57,0,0,1,22.31,11,45.77,45.77,0,0,1,9.59,11.08,91.5,91.5,0,0,1,7.26,15.73c.83,2.18,1.65,4.37,2.63,6.49l1.63-.44Q229,377.13,220.24,362c-.31-.52-.61-1-.91-1.57S217.5,360.54,217.7,360.89Z"/><path class="cls-2" d="M179.07,435.54a7,7,0,0,0-5.84,1.86,4.46,4.46,0,0,0-1.32,2.22,3.62,3.62,0,0,0,1.89,3.67,6.32,6.32,0,0,0,6-.21,4.19,4.19,0,0,0,2-5.58,4.11,4.11,0,0,0-2.73-2"/><path class="cls-2" d="M190.74,440.53s-8.68-7.25-16.56-5.9c-11.08,1.89-12.94,7.35-15,10.36,0,0,6.27-7.34,14.86-8.64C181.89,435.17,190.74,440.53,190.74,440.53Z"/><path class="cls-2" d="M232.91,426.2A6.83,6.83,0,0,1,239,426a4.24,4.24,0,0,1,1.9,1.67,3.73,3.73,0,0,1-.71,4.11,6.35,6.35,0,0,1-5.75,1.8,4,4,0,0,1-3.55-4.63,4.32,4.32,0,0,1,2-2.77"/><path class="cls-2" d="M217.77,435.89s5.57-9.68,12.86-10.93c10.27-1.76,13.44,2.84,16.07,5.06,0,0-7.59-5-15.5-3.45C224,428,217.77,435.89,217.77,435.89Z"/><path class="cls-2" d="M244.71,415.38a1,1,0,0,0,.08-.14,16.49,16.49,0,0,0-3.43-3.26c-6.71-5-10.59-6.3-23.2-8.21l-.1.26c-.63,1.46-.28.64-.9,2.11-.48,1.12-.95,2.23-1.42,3.35,3.83.52,6.72.55,9.11,1.09,4.73,1.08,10.38,1.72,14.52,4.33a15.12,15.12,0,0,1,4,3.38C243.82,417.31,244.27,416.35,244.71,415.38Z"/><path class="cls-2" d="M183.78,410.86l1.11,2c.58,1.06,1.17,2.12,1.74,3.18-3.89,1-6.86,1.38-9.26,2.22-4.78,1.67-10.54,3-14.56,6.14-1.93,1.49-4.63,3.21-5.09,5.94-.12.74.11,3.47-.93,3.56-.43,0-.82-2-.86-2.19-.77-4.08,1.4-7.17,4.57-10,6.48-5.8,10.35-7.63,23.15-11.1"/><path class="cls-10" d="M216.16,464.15a8,8,0,0,1-7.35.64c-.51-.22-2,.29-1.29.59a11.31,11.31,0,0,0,10-1c.24-.18.16-.38-.18-.44a1.8,1.8,0,0,0-1.16.23"/><path class="cls-10" d="M206.53,464.93a12.76,12.76,0,0,0-4.65-.45,1,1,0,0,0-.66.32c-.11.14-.11.3.07.37a5,5,0,0,0,2.55.2,1,1,0,0,0,.71-.42c.11-.23-.16-.32-.37-.29a3.89,3.89,0,0,1-2.06-.17l-.59.7a11.45,11.45,0,0,1,4.17.41,1,1,0,0,0,.8-.21c.15-.13.3-.38,0-.46"/><path class="cls-10" d="M200.41,466c-1.82.23-4.07-.24-5.17-1.47-1.65-1.87-.9-5.53,1.17-7.19.22-.18.06-.35-.2-.36a1.4,1.4,0,0,0-.93.34,6.76,6.76,0,0,0-2.08,6.43c.55,1.77,2.47,2.77,4.72,3a10,10,0,0,0,2.05,0c.27,0,.75-.2.86-.43s-.16-.3-.42-.27"/><path class="cls-10" d="M219.34,462.73a.24.24,0,0,1,.18-.38,2.16,2.16,0,0,0,1.34-.67l.56.52a6.37,6.37,0,0,0-2.69,1.44.51.51,0,0,1-.59,0c-.13-.08-.29-.29-.13-.44"/><path class="cls-10" d="M218,463.2a7.11,7.11,0,0,1,3-1.6.6.6,0,0,1,.52.14.26.26,0,0,1,0,.38"/><path class="cls-10" d="M223.14,462.41a3.73,3.73,0,0,0,2.82-2.68,5.42,5.42,0,0,0-2.27-5.63.21.21,0,0,1,0-.39.67.67,0,0,1,.65.1,6,6,0,0,1,2.66,4.67,4.26,4.26,0,0,1-2.18,4,4.53,4.53,0,0,1-1.27.47.66.66,0,0,1-.63-.2c-.12-.21,0-.33.19-.36"/><path class="cls-31" d="M223.81,353.62c-3.85-2.34-11.13-5.16-17.66-5.08a6.87,6.87,0,0,0-.79,0l-3.42,1.56-.12.06.13-.07c.61-.31,1.91-1.11,1.3-1.85a2.87,2.87,0,0,0-1.45-.73,28.26,28.26,0,0,0-4.83-.73v0l-.54,0-.55,0v0A29.87,29.87,0,0,0,191,347a3,3,0,0,0-1.52.59c-.68.67.54,1.6,1.11,2l.13.08-.12-.07-3.24-1.89c-.26-.05-.52-.09-.79-.12-8-.9-20.85,5-22.07,6s-.49,2.58-.43,2.7l-2.16-1.8s-9.8,3.26-11.5,4.36-2.6,3.91-2.6,3.91-3,.93-4,.53-6.63,2.17-9,5.29c-1.55,2-1.13,4-1.93,5.77h0c-.46,1-.72,1.67-.72,1.67l-5.74,1.6c-4.62,1.94-4,11.31-4,11.31-9.44,10.46-10.34,19.73-6.86,29.93,1.34,3.94-9.86,7.27-2.79,7.48s15.48,24.58,15.48,24.58,2.94-10.11,3.44-14.14-.88-16.16-.88-16.16l3.47-.31s2.14-.75,4.89-5.21-1.45-12.88-1.45-12.88l-1.11-5,6.7.8c6.55-.79,7.27-7.81,7.27-7.81L150,378.36l3.7,4.13a4.78,4.78,0,0,0,3.67,1.87c10.11-.25,11.61-6.46,11.61-6.46l1.64-5.83,2.47,1.82c2.59,2.36,10.67,6.18,15,4.59,1.13-.42,5.95-3.78,6.73-4.24,2.22-1.44,3-4.07,3.35-5.8,2.34,2.47,5.46,5.05,8.4,5.32,3.56.34,11.33-.76,12.36-2.37.7-1.07-.43-1.27.87-1.15a4.36,4.36,0,0,1,2.77,1.85s3.21,9.77,12.1,13.68,9.27-17.86,1-21.3C235.68,364.47,234.81,352.84,223.81,353.62Z"/><path class="cls-29" d="M99.22,384.5s-9.52,3-12.37,8.31C79.5,406.6,85.7,439.6,94,446l13.11,2.1Z"/><path class="cls-30" d="M95.06,443.5S81.24,442.31,79,450.81l-1,4s-15.33-3.4-19.94,3.9-5.49,21.63-5.49,21.63"/><path class="cls-4" d="M136.17,480.76c-8.16,10.68-17.71-3.37-17.71-3.37-10.28-9.76-13.9-21.2-14.5-29.13s8.1-8.82,8.1-8.82c7.46-.07,6.52.92,19,20.72"/><path class="cls-25" d="M124.23,460.74a62.54,62.54,0,0,0-6.3-10,20.57,20.57,0,0,0-4.37-4.27,6.06,6.06,0,0,0-2.41-1.06c-.91-.11-1.27.59-1.61,1.32-1.51,3.3-1.22,7.14-.21,10.53.15.51,1.38.17,1.23-.33a16,16,0,0,1-.47-8.29,7.92,7.92,0,0,1,1.16-2.8l-.65.35c-.32,0-.07,0,0,0s0,0,0,0l.24.06a5.88,5.88,0,0,1,1.52.73,23.08,23.08,0,0,1,5.94,6.32,73,73,0,0,1,4.76,7.93c.22.42,1.41,0,1.13-.51Z"/><path class="cls-25" d="M124.36,464.58c-5.25,1-.25,7-.39,9.89,0,.16-.1.35-.09.49a1.6,1.6,0,0,1-.11.19l.53-.16-.06,0a3.88,3.88,0,0,0-.44-.33,5.19,5.19,0,0,1-.61-.71,21.48,21.48,0,0,1-2.35-4.35,19.39,19.39,0,0,1-1.72-5.82c-.28-2.48-.39-6,1.87-7.64.23-.17.09-.3-.11-.38a1.13,1.13,0,0,0-.87.24c-2.05,1.49-2.33,4.28-2.24,6.63a17,17,0,0,0,1.2,5.77,31,31,0,0,0,2.5,5.15c.45.72,1.07,1.84,2,2.06a1.44,1.44,0,0,0,1.72-1,5.07,5.07,0,0,0-.49-2.64c-.42-1.21-3-6.3-.51-6.75.55-.1,1-.76.19-.61Z"/><path class="cls-8" d="M199,405.33s3.13,4.54,1.63,8.84-5.2,5.4-7.72,4.76c0,0,5.94-1.61,6.41-6.9S199,405.33,199,405.33Z"/><path class="cls-17" d="M213.17,476.82c-7.46,1.08-23.29,7.87-26.2,11.15,0,0,10.22,8,27.53,5.52S233,481.29,233,481.29,222.67,475.44,213.17,476.82Z"/><path class="cls-18" d="M193.55,483.85s8.79-2,15.87-3a133.43,133.43,0,0,1,16.05-1.62s.4-5.28-12.44-3.42S193.55,483.85,193.55,483.85Z"/><path class="cls-19" d="M214.18,486a141.16,141.16,0,0,0-26.92,3.18s4.76,7.2,25.1,4.25,20.9-10.93,20.9-10.93C223.73,483.29,222.12,483.69,214.18,486Z"/><path class="cls-19" d="M221.45,471.64c-4.31.31-6.8,2.27-8.66,2.54s-4.79-.9-9,0c-4,.87-19.23,14-17.16,14.92s13.9-9.08,26.76-10.95,19.07,6.79,20.78,5.29S225.5,471.34,221.45,471.64Z"/></g></svg>