<svg xmlns="http://www.w3.org/2000/svg" xmlns:xlink="http://www.w3.org/1999/xlink" viewBox="0 0 1303.15 1057.31"><defs><style>.cls-1,.cls-22,.cls-32,.cls-35{fill:none;}.cls-2,.cls-40{isolation:isolate;}.cls-3{fill:#f2ebd1;}.cls-4{fill:#a66f54;}.cls-5{fill:#df8c26;}.cls-6{fill:#033a51;}.cls-42,.cls-7{fill:#4f2e25;}.cls-8{fill:#721912;}.cls-9{fill:#a93924;}.cls-10{fill:#ce8d2a;}.cls-11{fill:#13110f;}.cls-12{fill:#231f20;}.cls-13,.cls-40{fill:#010101;}.cls-14{fill:#653c29;}.cls-15{fill:#31160e;}.cls-16{fill:#f1eef7;}.cls-17{fill:#513835;}.cls-18{fill:#a66e53;}.cls-19{fill:#a7a7a8;stroke-width:2.08px;}.cls-19,.cls-20{stroke:#939393;}.cls-19,.cls-20,.cls-22,.cls-23,.cls-24,.cls-32,.cls-35,.cls-42{stroke-miterlimit:10;}.cls-20{fill:#dba829;stroke-width:1.58px;}.cls-21{fill:#ad7b98;}.cls-22,.cls-23,.cls-24{stroke:#000;}.cls-22{stroke-width:1.53px;}.cls-23{stroke-width:0.66px;}.cls-24{stroke-width:0.66px;}.cls-25{fill:#3f0e28;}.cls-26{fill:#565656;}.cls-27{fill:#a38166;}.cls-28,.cls-30{fill:#cfcfcf;}.cls-28{mix-blend-mode:multiply;opacity:0.27;}.cls-29{fill:#4b2a15;}.cls-31{fill:#282b2b;}.cls-32,.cls-35{stroke:#282b2b;}.cls-32{stroke-width:6.88px;}.cls-33{fill:#f47920;}.cls-34{fill:#ad3624;}.cls-35{stroke-width:6.56px;}.cls-36{fill:#61686c;}.cls-37{fill:#777;}.cls-38{fill:#383838;}.cls-39{fill:#a09f9f;}.cls-40{opacity:0.4;}.cls-41{fill:#273339;}.cls-42{stroke:#4f2e25;stroke-width:0.41px;}.cls-43{clip-path:url(#clip-path);}.cls-44{fill:#488c41;}.cls-45{fill:#2c5f2f;}.cls-46{fill:#84381c;}</style><clipPath id="clip-path"><ellipse class="cls-1" cx="268.4" cy="872.14" rx="94.57" ry="15.74"/></clipPath></defs><g class="cls-2"><g id="Layer_11" data-name="Layer 11"><polyline class="cls-3" points="1311.69 1109.97 1311.69 -12.84 -15.13 -12.84 -15.13 1109.97"/><path class="cls-4" d="M673.46,333l16.7,47.43,5.74,7.9s5.22,26.43,5.62,32.08-6.65,35.32-6.65,35.32l12.53,26.14-44.24,18s-9.47-23.92-12.94-26.6a29.28,29.28,0,0,1-6.85-15.73c-.9-5.25-8-36.4-8-36.4s-20.44-34.23-12.17-36.07a29.77,29.77,0,0,1,6.33,0s12.4,22.56,15.67,22.88l4.6-2.71s-9.89-34.57-10.42-41.06.72-11.07,5.74-11.87c0,0,3.75,1.48,4.1,3.12S659.42,395.7,661.56,395s1.08-4.25,1.08-4.25-13.13-46.6-12.55-49.46a7.35,7.35,0,0,1,7.44-6.52l10,25.64s-4.76-21.63-1.16-25.53A6,6,0,0,1,673.46,333Z"/><path class="cls-5" d="M805.58,398.17c-12.41,5.82-21.66,17.63-28.43,29.43-.3.52-.59,1-.89,1.58-18.79,34.09-22,75.14-29,112.76l-.13.71-37.91-76.71-55.93,22.3,33.92,133.68c4,16.51,18.21,46.1,30.17,58.19,15.5,15.66,38.47,22.87,58.4,12.29,10.84-5.65,35.67-38.19,39.9-49.65L832.93,618l20.22-231.77c-9.66,2.63-31.47,7-41.12,9.61A39.46,39.46,0,0,0,805.58,398.17Z"/><path class="cls-5" d="M832.12,707.17c1.26,20-3.32,38.8-7,58.16-2.22,11.8-4.42,23.56-6.52,35.32,23,12.23,43.5,28.94,68,38.17,34.19,12.87,71.22,16.57,107.5,17.45,34,.84,68.84,1.46,101.39-9.86a191.21,191.21,0,0,0,39.35-19.34c-22.64-77.14-49.11-129.58-49.12-129.58l-7.44-14.66,19.86-288.45-69.43-21.68L993.62,368l-.15,6.3c-11.16,16-26.06,25.79-46.24,27.63a137.67,137.67,0,0,1-18.51.43c-17.77-.78-41.23-9.36-50.33-22.43-.34-.5-26.11,6.83-28.71,7.37-13.82,2.91-27.48,8.27-41,12.22,0,0-.51,150.92.89,171.85C810.54,585.9,826.64,619.81,832.12,707.17Z"/><path class="cls-6" d="M1158.58,934.52c-8.31-66.73-29.11-126-44.95-168.38-33.15,11.74-66.39,23-101.69,26.18-63.13,5.7-125.94-9.53-189-12.23-4.4,23.56-8.61,47-12,70.73a16.36,16.36,0,0,1,1.23,6.37l4.7,376.93c0,41.87,1.27,117.81,5.34,159.53,2.92,29.95.44,44.21,2.89,74.19,23.23,14.81,60.45,31.62,80.92,32.56,116.2,5.35,209.47-34.55,209.47-34.55S1160.45,949.54,1158.58,934.52Z"/><path class="cls-7" d="M691.33,379.93l-14.94-13.87-2.14-2a1.64,1.64,0,0,0-2,0,10.66,10.66,0,0,0-3.75,4.37c-2.12,4.42-.73,9,1.11,13.24a70.18,70.18,0,0,0,5.9,11.18c.21.3.41.63.65.92s.29.49.13.12c.37.88.59,1.87.87,2.78l2.59,8.32.44-.88a40.3,40.3,0,0,0-5.6,5.86,50.38,50.38,0,0,0-8.7,15.78,43.37,43.37,0,0,0-2.17,12.83c0,1.26,2.56.85,2.58-.23.19-11.84,5.49-23.13,13.77-31.49.47-.47.95-.93,1.43-1.37.32-.29,0,0,.21-.18a.64.64,0,0,1,.15-.13c.24-.2.55-.51.44-.87l-2.14-6.87c-.48-1.52-.74-3.44-1.66-4.77a59.34,59.34,0,0,1-4.58-7.87c-2.12-4.33-4.85-9.33-3.65-14.31a9,9,0,0,1,3.65-5.36h-2L686.85,379l2.14,2c.8.74,3.2-.29,2.34-1.09Z"/><path class="cls-7" d="M664.38,399.3a49.1,49.1,0,0,0-20,10.32,35.2,35.2,0,0,0-6.78,7.73c-.67,1,1.89.89,2.39.12a38.47,38.47,0,0,1,15.6-13.29,44.33,44.33,0,0,1,9.12-3.48c.41-.09,1.23-.49,1.09-1s-1.07-.46-1.47-.36Z"/><path class="cls-4" d="M977.66,273.41s-4.31,48.47,10.06,80.57c2,4.47,41,18.72,41,18.72-1-.39-6.19,3.14-7.14,3.63-18.42,9.35-36.44,20.18-56.58,25.51a139.63,139.63,0,0,1-65.44,1.47c-15.11-3.33-26.5-11.07-39.51-18.83,0,0,29.31-11.39,30.19-17.1s-5.81-48.22-5.81-48.22"/><path class="cls-7" d="M889.54,356.22s9.88-4.51,16.6-6.84,18.45-2.61,48.34-31.8c0,0-7.26,34.15-47.05,43.71,0,0-10.27,2.79-17.2,1.54Z"/><path class="cls-4" d="M842.15,153a4.62,4.62,0,0,1-.35.75l.41-.37Zm-17.33,6.8,0,.31c.25-.27.5-.54.71-.81C825.53,159,824.82,159.82,824.82,159.82Zm152.12,121,1.3-6.53c9.56,10.34,22.34-.08,21.34-16.2,3.48-8.49,6.39-35.81-1.11-43.34l-.94-1.12c-5-3.08-13.47-3.73-16.25,2.81-.83,2.8.48,6-.35,8.85-.77,3.18-4.42,9.46-6.07,12.38,0,0-4.33-15-5-22.21s-8.62-27-22.77-35.25c0,0-3.34-25.15-10.16-31.78l-2.16-.44c-1.22.18-2,.67-3.2.85-.06-.37.3-.8.18-1.55-1.93,1.05-3.61.92-5.24,1.16.35-.43,1.11-.93,1.05-1.3-1.57.61-3.26.48-4.89.73.35-.44,1-1.31,1-1.68-1.93,1.05-3.26.49-4.9.73a2.81,2.81,0,0,0,.6-1.62c-1.52,1-3.21.86-4.84,1.1.35-.43.65-1.24,1-1.68-1.93,1.06-3.26.49-4.89.73-.41.06.7-.87.64-1.24a15,15,0,0,1-4,1c-.06-.37.7-.87.65-1.24-2.34,1.11-3.67.55-5.3.79l1-1.68a5.86,5.86,0,0,1-4.77,1.48c.34-.44,1-1.31,1-1.68a8.2,8.2,0,0,1-6.41,1.72c.41-.06,1.06-1.31,1-1.68-1.82,1.8-3.5,1.67-5.54,2,.35-.43.65-1.24,1.35-2.11-2.22,1.86-5,3-7.58,2.28.41-.06.65-1.25.59-1.62-1.41,1.74,1.38-.59-.72-.66,0,0-4.47,2.2-4.52,1.82-1.47,1.37,3.35-7,1.31-6.69.3-.81-11.6,2.45-10.89,1.58-1.82,1.8-1.52,1-4,.95,0,0-7.81,5.75-7.46,5.31-1.75,2.18-2.91.75-5.41.74.35-.44,1.7,1.35,2.06.91-1.41,1.74-1.15-.21-3.19.09-.06-.37-7-1.44-7.09-1.81-1.87,1.43-1.18,1.49-3.63,1.86-.05-.38-.91,4.35-.56,3.91-1.41,1.75-1.52.5-3.61.43l-1.82,1.7c-1.76,2.17.92.94-1.58.93,0-.26,9.38-.2,9.68-.75a15.2,15.2,0,0,1-4.91,3.1c-.06-.37.24-1.18.19-1.56a8.28,8.28,0,0,1-6.19,3.22c.41-.06.7-.87.64-1.24-1.76,2.17-4,3.66-6.65,2.9v-.06a12.92,12.92,0,0,1-5.31,3.53,1.6,1.6,0,0,1,.59-1.61l-1.63.24c-1.59,3.3-3.24,6.22-3.49,10.09,0,0-11.08,23.57-8.6,37.36s8.51,37,9.81,43a121.08,121.08,0,0,1,2,18.87c.39,12.28.81,15.48,5.61,27.15,4.65,11.29,8.51,17.13,16.69,26.24,8.53,9.5,19.83,17.17,30.59,24.74,7.08,5,16.5,8.48,25.63,7.55,25.44-2.58,48-23.44,61.67-42.11"/><path class="cls-8" d="M814.25,187.23c6.64-23.28,30.2-39.14,80.83-53.11S988.83,133,988.83,133c-35-70.29-109.55-56.7-126.26-54.21s-93.22,80.43-55.91,137.46l2.25,5.57S813,191.46,814.25,187.23Z"/><path class="cls-8" d="M999.79,115.7S999.08,68.5,963,58C914.76,44,851.83,44,836.85,94.81Z"/><path class="cls-9" d="M1011.87,228.67c3.18-4.33.58-14.88,3.16-19.59,13.49-24.65,4.9-45.55-3.43-57.48-3.62-5.2-1.16-15.63-2.16-20.51-5.24-25.57-8.32-25.93-50.6-46.68-34.41-16.89-68.09-10.89-87.52-6.93-31.1,6.35-44.63,10.37-52.29,34.24-1,3.11.9,5.22.22,8.89-1,5.19-8.63,6.88-9,13.33,0,0,42.65,10.2,79.93,23.7s109.34,76.58,110,98.59C1000.27,256.92,1008.36,233.45,1011.87,228.67Z"/><path class="cls-8" d="M980,136.85c-19.29-9.21-52.61-20.44-93.11-14.81,0,0,81.2-23.14,126.83,31.15l1.23,2.26a57.67,57.67,0,0,1,6.38,19.1l-14-16.45A82.75,82.75,0,0,0,980,136.85Z"/><path class="cls-8" d="M818.49,121.59l4.14-2.29a114.23,114.23,0,0,1,30.73-11.6l18-4s-45.09-1.15-53.21,11.43Z"/><path class="cls-10" d="M984.55,269.35a7.89,7.89,0,0,1,8.08,6.27,7.75,7.75,0,0,1-.88,5.33,5.7,5.7,0,0,1-2.38,2.31,7.06,7.06,0,0,1-6.72.11c-.46-.22-2.06.47-1.4.79a9.6,9.6,0,0,0,7.65.23,9.39,9.39,0,0,0,3.45-2.08,8.25,8.25,0,0,0-.24-11.34,9.15,9.15,0,0,0-6.86-2.51c-.34,0-1,.12-1.15.46s.14.44.45.43Z"/><path class="cls-11" d="M964.35,208.7l7.6,36.09,10.4-18S969.53,213.82,964.35,208.7Z"/><path class="cls-12" d="M981,243.08c1.18-.16,3-.43,3.34,1.07a8.45,8.45,0,0,1-.49,3.78c-.64,2.61-1.66,6.13.75,8.17,3,2.59,6.15-2.12,7.15-4.52a16.76,16.76,0,0,0,.91-10.22c-.79-3.49-2.37-8.15-6.24-9.21-.74-.2-2.05.88-1,1.16,3.23.89,4.58,4.84,5.32,7.74a15.79,15.79,0,0,1-.2,9.13c-.58,1.77-1.49,3.95-3.08,5-1,.72-1.92-.28-2.32-1.27-1-2.49.44-5.52.88-8a4,4,0,0,0-.45-3.31c-1-1.2-3-1-4.41-.84-1,.13-1.34,1.42-.16,1.26Z"/><path class="cls-8" d="M984,188.83s26.51,20.31,29.67,29.45l1.34-9.2A48.26,48.26,0,0,0,984,188.83Z"/><path class="cls-13" d="M868.15,287.05c3.24,1.12,7.77.07,10.52-2.25.61-.52,2.91-.45,2.05.27-3.63,3.06-10.18,4.27-14.36,2.83-.42-.14-.39-.45.07-.68a2.59,2.59,0,0,1,1.72-.17"/><path class="cls-13" d="M881.9,284a19.09,19.09,0,0,1,6.3-2.6,1.52,1.52,0,0,1,1,.16c.22.15.29.37.07.54a7.2,7.2,0,0,1-3.48,1.36,1.41,1.41,0,0,1-1.17-.26c-.24-.28.1-.53.4-.57a5.72,5.72,0,0,0,2.8-1.1l1.11.7a17.08,17.08,0,0,0-5.63,2.35,1.45,1.45,0,0,1-1.22,0c-.26-.11-.57-.4-.23-.63"/><path class="cls-13" d="M890.92,283c2.63-.46,5.57-2.07,6.58-4.24,1.52-3.29-1-7.75-4.61-9.17-.39-.15-.24-.45.12-.58a2.18,2.18,0,0,1,1.45.08c3.13,1.24,5.57,4.85,5.56,7.72,0,2.68-2.27,4.89-5.32,6.12a14.69,14.69,0,0,1-2.88.84c-.4.07-1.13.06-1.38-.23s.1-.48.48-.54"/><path class="cls-13" d="M863.1,286.43a.34.34,0,0,0-.41-.44,3.16,3.16,0,0,1-2.15-.37l-.57,1a9.33,9.33,0,0,1,4.36.86.77.77,0,0,0,.83-.26c.15-.17.28-.53,0-.66"/><path class="cls-13" d="M865.16,286.52a10.48,10.48,0,0,0-4.88-.94.88.88,0,0,0-.66.43.37.37,0,0,0,.09.53"/><path class="cls-13" d="M857.66,287.61a5.47,5.47,0,0,1-5.07-2.51,7.79,7.79,0,0,1,.8-8.75.32.32,0,0,0-.21-.54,1,1,0,0,0-.87.43,8.69,8.69,0,0,0-1.74,7.59,6.15,6.15,0,0,0,4.75,4.62,6.23,6.23,0,0,0,2,.12c.26,0,.71-.22.79-.55s-.18-.44-.42-.41"/><path class="cls-11" d="M834.57,239.07c-2.44-.83-5.22.56-6.5,2.09a6.31,6.31,0,0,0-1,3,5.94,5.94,0,0,0,2.19,5.16,5.54,5.54,0,0,0,6.46.16A6.11,6.11,0,0,0,837.6,242a5.45,5.45,0,0,0-3-2.88"/><path class="cls-11" d="M855.91,243.61s-12.31-7-18-6.75c-8.34.4-17.8,6.47-20.1,11,0,0,12.39-8.82,18.28-8.93C841.69,238.8,855.91,243.61,855.91,243.61Z"/><path class="cls-11" d="M904.74,229c2.08-1.51,5.77-1.73,7.45-.64a5.81,5.81,0,0,1,2.12,2.43,6,6,0,0,1-.59,5.57,5.55,5.55,0,0,1-6.13,2,6.11,6.11,0,0,1-4-6.6c.06-.46-.52-1.25,1.17-2.47"/><path class="cls-11" d="M891.34,237.2s11.26-9.78,17.36-10.87c8.89-1.59,20.34,2,23.87,5.89,0,0-15.21-5.61-21.45-4.32C905.16,229.13,891.34,237.2,891.34,237.2Z"/><path class="cls-11" d="M851.9,215.2c.13,1.68.26,3.36.38,5.05.1,1.28.19,2.57.28,3.85-4.38-.74-8.11-1.16-10.92-1.4-5.94-.51-9-.75-12.34.09a32.74,32.74,0,0,0-7.6,3.08,20.79,20.79,0,0,0-3.93,2.49c-2.72,2.32-3.71,4.77-4.2,4.6s.09-2.28.15-2.5a19.64,19.64,0,0,1,5.47-9,23.07,23.07,0,0,1,7.63-4.26c3.3-1.13,12.57-2.49,25.08-2"/><path class="cls-11" d="M888.07,207.76c.26,1.66.53,3.33.79,5,.21,1.27.41,2.55.62,3.81,4.46-1.78,8.32-3.09,11.24-4,6.17-1.94,9.34-2.91,13.1-2.9a37.64,37.64,0,0,1,8.78,1.15,23.51,23.51,0,0,1,4.76,1.47c3.43,1.59,5.06,3.73,5.54,3.45s-.64-2.19-.75-2.39a20,20,0,0,0-7.94-7.44,26,26,0,0,0-9.09-2.29c-3.76-.3-13.92.63-27,4.15"/><path class="cls-14" d="M881,302.61c13-1.93,33.78-6.66,33.78-6.66s2,33.28-28,37.77-40-27.62-40-27.62S868,304.55,881,302.61Z"/><path class="cls-15" d="M880.85,302.63c6.17-.92,30.89-5.71,30.89-5.71s-6.11,21.38-28.43,24.71c-24.21,3.61-33.4-15.28-33.4-15.28Z"/><path class="cls-16" d="M880.73,303.63c6.17-.92,24.78-4.8,24.78-4.8s-5.71,8-24.22,10.8-25.41-3.19-25.41-3.19Z"/><path class="cls-14" d="M845.07,304.33c.63-.26,4.4.44,7.43-.29,5-1.22,8-3.09,11.68-3.94,6.25-1.45,10.65.54,13.39.13s6.38-3.6,12.77-4c3.75-.26,13.12-.23,18.29-.53,3.11-.19,6.52-2,7.2-1.89.94.09.21,7.31-34.32,12.47S844.19,304.7,845.07,304.33Z"/><path class="cls-5" d="M1072.31,552.24l12.85-161.93s36.75,5.32,54.63,59.35c15.06,49.44,50.48,196.29,49.75,228.54s-20.67,231.53-20.67,231.53l-59.76-7.68-5-230.56Z"/><path class="cls-5" d="M831.45,721.63s-7.35,40.85-14.19,62.73c0,0,55.3,49.83,157,28.8s150.43-50.28,150.43-50.28l-46.31-80,.55-38.74L831.45,721.63"/><path class="cls-17" d="M589.13,628.6a.87.87,0,0,1-.18.11l-.13-.49Z"/><path class="cls-18" d="M645.47,577.81c2.36-2.21,1.57-10.58-3.51-10.1A21,21,0,0,0,637,569.2a2.45,2.45,0,0,1,.93,2.22c-.45,6.7-.16,12.51,3.88,18.15a2.35,2.35,0,0,1,.27,2.56c.24-.13.48-.25.71-.39,3.26-1.94,5.28-3.48,6-7.13A6,6,0,0,0,645.47,577.81Z"/><path class="cls-18" d="M625.57,599.5a11.24,11.24,0,0,0-3.59-.14L622,596a45,45,0,0,0,9.56-2.28,3,3,0,0,1-1.79-1.19c-4.57-6.39-5.18-13.47-4.67-21.09,0,0,0-.07,0-.1-6.6,3-13.69,6.93-13.69,6.93s17.18-12.1,20.66-14.42-9-2.57-13.4-6c-6.85-5.37-5.7,6.66-11.44,9.18s-21,9.08-21,9.08c11.61-12.74,1.14-18.31-7.76-10.08s-24.79,29.89-24.36,37.53l-7.2,5.19s1.74,5.24,9.13,15.66c7,9.88,11.28,13.18,11.28,13.18L579.44,628c21,2.83,27.14-9.93,33.4-12.8,7.81-3.58,8.8-2,14.4-5.5C631.72,606.85,630.75,600.15,625.57,599.5Z"/><path class="cls-19" d="M588.3,552.39c-1.42-3.43-3.72-3.79-3.73-6.08l-.14-21.61c0-2.92.1-5,1.24-6.24s10-8.83,12.13-11,2.66-2.3,2.65-3.83l0-4.7s5.61-.3,10.93-.45v0H612l.67,0v0c5.31.08,10.93.31,10.93.31l0,4.71c0,1.52.52,1.65,2.69,3.79s11.12,9.59,12.28,10.86,1.29,3.3,1.31,6.22L640,546c0,2.29-2.27,2.68-3.65,6.12s-3.64,6.76-3.88,9.44a12.15,12.15,0,0,0,1.07,7.24c1.28,2.66,5.53,10.77,5.93,13.94s0,14.87,0,16.65c0,.58-1.14.65-1.13,1.79s.89,1.08,1,1.52.11,16.78.12,17.86-1.71,1.09-1.64,2.24,1.41,1.32,1.41,2.72.42,15.38.42,16.08-.88.64-1.26,1.34-.18,1.15.59,2.29.7,1.14.71,2.6-.08,7.75-.58,8.77a8.75,8.75,0,0,0-1.31,2.93c-.12,1.15-7.17,2.34-11.05,1.92a76.88,76.88,0,0,1-13.09,1.39v0h-1.32v0a76.31,76.31,0,0,1-13.1-1.23c-3.87.47-10.93-.63-11.07-1.77s-.84-1.9-1.35-2.92-.68-7.3-.69-8.76-.08-1.47.68-2.62.94-1.59.56-2.29-1.28-.62-1.28-1.32.22-14.69.21-16.09,1.33-1.59,1.38-2.74-1.66-1.13-1.66-2.21-.24-17.42-.11-17.86,1-.39,1-1.53-1.15-1.2-1.15-1.78c0-1.78-.6-13.47-.24-16.65s4.51-11.34,5.76-14a12.06,12.06,0,0,0,1-7.25C592,559.1,589.71,555.81,588.3,552.39Z"/><path class="cls-20" d="M595.18,592.47a5.25,5.25,0,0,1-2.37-.17,13.25,13.25,0,0,0-.76,2.64c-.27,2.41.17,11.28.18,12.63,0,.43.87.47.88,1.34s-.67.82-.77,1.16.08,12.73.09,13.55,1.3.81,1.26,1.68-1.05,1-1.05,2.07-.16,11.67-.16,12.2.68.48,1,1,.15.86-.42,1.74a2.33,2.33,0,0,0-.52,2c0,1.1.13,5.88.52,6.64a6.64,6.64,0,0,1,1,2.21c.1.87,5.46,1.71,8.4,1.35a58.12,58.12,0,0,0,9.93.93v0h1v0a57.87,57.87,0,0,0,9.92-1c3,.32,8.29-.58,8.38-1.45a6.66,6.66,0,0,1,1-2.23c.38-.77.45-5.54.44-6.65a2.37,2.37,0,0,0-.54-2c-.58-.87-.73-1.2-.45-1.74s1-.48,1-1-.31-11.14-.32-12.2-1-1.2-1.07-2.06,1.25-.88,1.24-1.7,0-13.21-.08-13.54-.78-.29-.78-1.16.86-.92.86-1.35c0-1.35.32-10.22,0-12.63a9.21,9.21,0,0,0-.44-1.66C620.89,595.78,607,590.69,595.18,592.47Z"/><path class="cls-18" d="M639.64,568.25c-3.75,1.54-13.42,5.66-13.81,9.17-.35,3.15,3.51,6,11.07,4.31,0,0-9.33,6.31-7.67,10.78,1.36,3.64,5.94,2.57,7.33,2,1.61-.71,7.29-3.36,7.29-3.36Z"/><path class="cls-18" d="M554.11,603.51c-.43-7.64,15.46-29.31,24.36-37.53s27.34-1.52,29.75,0,6.87,9.44-18.36,8.73l-1.79,3.18s.07,13.87-2.93,21.57a68.52,68.52,0,0,1-6.74,13.1l-28.76-4.91"/><path class="cls-18" d="M638.93,568.28c-10.06,5.18-19.27-2.53-4.43-11.88C643.65,550.64,649.11,563,638.93,568.28Z"/><path class="cls-18" d="M640.38,593.47c4.85-.47,7.19,5.32,3.75,8.84-4.31,4.4-13.65,6.39-14.92,1.79C629.21,604.1,627.44,594.74,640.38,593.47Z"/><path class="cls-21" d="M562.4,619.56l-13.33-18.33-58.27,30.6c-35.92,13.8-35.89,15.45-58.39,25.55l-.29-.29c-3.62,4.43-5.59,11.88-7,16.45C422,684.06,397.8,695.78,397,706.83c-.52,7.15-9.61,8-7.41,19.44,4,2.05,10.72,7.48,29.5,11.79,19.45,4.47,49.81-10.24,49.81-10.24,57.49-40.2,86.44-70.59,106.77-94.79Z"/><path class="cls-21" d="M402.53,759.39c.07,0,.69,2.49.76,2.47,20.52-5.65,38.35-4.58,57.74-13.45-2.5-10.2,2-13.72.2-26.36-5-40.32-10.21-113.5-21.45-159.41s-17.19-57.26-65-71.88c0,0-.66,177.39,19.58,241.69C398.94,746.87,397.89,742.82,402.53,759.39Z"/><path class="cls-18" d="M442.39,709l.81-.69c2.95-2.42,12.79-10.3,15.51-9.49,3.18,1,25.81,7.49,25.81,7.49s-.33,6.21-12.19,6.59S442.39,709,442.39,709Z"/><path d="M395.55,390.68l-1.3-1.41c-10.52-5.16-19.34-5.69-26.29.78-.1-.05-13.87-7-27.56,10.54-11.88,15.22-8.43,25.53-8.43,25.53s-9.33,3.6-11.49,7.87c-4.87,9.59-4.75,28.14,3.69,30.83s9.09,6.75,9.09,6.75,13,4.25,20,5.08,17.84-6,17.84-6,15.6,2.65,20.45-.6,8-14.31,8-14.31,16.39-.56,16.94-12.84c0,0,6.13-6.74-1.44-15.86a34.45,34.45,0,0,0-7-6.21s2.91-3.39,1.74-13C409.28,403.64,403.54,394.61,395.55,390.68Z"/><path d="M396.43,390.28a14.48,14.48,0,0,0-1.3-1.41,17.77,17.77,0,0,0-4.43-2,31.18,31.18,0,0,0-8.81-2.13,19.21,19.21,0,0,0-14.72,5.09l1.53-.29c-5.34-2.69-12.35-1.65-17.5.9-6.08,3-10.77,8.29-14.44,13.9a36.51,36.51,0,0,0-6,15.16,16.45,16.45,0,0,0,.29,6.88l.55-.75a34.2,34.2,0,0,0-9.22,5.14c-3.53,2.89-4.76,7.54-5.5,11.88a35,35,0,0,0,.29,14.33c.92,3.61,2.79,7.13,6.48,8.45,2.7,1,5.51,2.05,7.46,4.26a4.76,4.76,0,0,1,1.24,2.15c0,.17.24.29.39.34,4.84,1.58,9.75,3,14.72,4.12,3.05.68,6.14,1.36,9.27.89A34.84,34.84,0,0,0,366.2,474a51,51,0,0,0,5.54-3l-1,.26a64.12,64.12,0,0,0,14.37.95c2.62-.16,5.52-.54,7.64-2.25,2.47-2,4.05-5,5.33-7.84a48.72,48.72,0,0,0,2.4-6.5l-1.06.72c4.77-.17,10.08-1.75,13.73-4.88a12.19,12.19,0,0,0,3.17-4.06,11.73,11.73,0,0,0,.86-2.63,6.67,6.67,0,0,0,.21-1.4c0-.55-.16-.09,0-.38a6.32,6.32,0,0,1,.64-.88,11.89,11.89,0,0,0,.92-1.77,11.56,11.56,0,0,0,.83-5.13c-.45-6.51-6-11.44-11-14.93l0,.75c2.05-2.42,2.24-6.52,2.2-9.49a18,18,0,0,0-1.44-7.62,30.29,30.29,0,0,0-4.64-7,29,29,0,0,0-8.64-6.85c-.67-.33-2.38.59-1.49,1a29.5,29.5,0,0,1,12.3,12.19A20,20,0,0,1,408.37,418a9.85,9.85,0,0,1-.8,2c-.09.17-.19.33-.3.5s.05-.05,0,0c-.21.26-.25.55,0,.76,4.46,3.11,9.26,7.29,10.38,12.9a10.49,10.49,0,0,1-1.76,8.18c-.66.9-.5,2.24-.8,3.33a10.29,10.29,0,0,1-2.47,4.31,16.4,16.4,0,0,1-7.86,4.21,23.37,23.37,0,0,1-5.12.82,1.16,1.16,0,0,0-1.06.73c-1.24,4.34-3.09,9.21-6.18,12.57-1.82,2-4.21,2.37-6.79,2.55a53.92,53.92,0,0,1-8.71-.24c-1.76-.17-3.51-.52-5.27-.67-1.12-.09-2.29.93-3.23,1.45a45.33,45.33,0,0,1-8.52,3.69,18.31,18.31,0,0,1-4.8.88,20.85,20.85,0,0,1-4.51-.56A141.49,141.49,0,0,1,333.83,471l.39.35c-.39-2.27-3-4.09-4.8-5.11a23.28,23.28,0,0,0-3.82-1.7,9.24,9.24,0,0,1-2.75-1.29,10.33,10.33,0,0,1-3.08-4.47,29.33,29.33,0,0,1-1.38-13.51,37.91,37.91,0,0,1,1.32-6.92,14.43,14.43,0,0,1,2.71-5.71c2.58-2.79,6.45-4.63,9.95-6,.26-.09.66-.43.55-.75a13.57,13.57,0,0,1-.43-4.75,31.16,31.16,0,0,1,3.94-13c4.89-9.14,13.74-19.3,25.1-18.76a17.66,17.66,0,0,1,4.14.69,12.2,12.2,0,0,1,1.54.57,1.38,1.38,0,0,0,1.53-.28,16.37,16.37,0,0,1,13.18-4.22,30.69,30.69,0,0,1,7.65,2,15.53,15.53,0,0,1,3.9,1.72,13.49,13.49,0,0,1,1.2,1.3C395.2,391.66,397,390.92,396.43,390.28Z"/><path class="cls-18" d="M257.5,415.6l3.28,22a106.07,106.07,0,0,1,1.35,22.93l-.73,14.82-25.26,12.33S336.94,565.24,356.86,555s15.21-57.36,8.69-61.82-23.67-11.32-23.67-11.32V456.59l-91.2-83Z"/><path class="cls-7" d="M285,442.56s7.79,21.28,46.9,26.94c0,0,9.09,1.83,10.46.81L341.08,459Z"/><path class="cls-22" d="M392.93,387.94s24.5,7,25.11,23.19l-1,11.28s11.4,2.47,10.71,10.46"/><path class="cls-23" d="M224.12,350.72s-31.4-75.58,16.78-79.7c0,0,3.07-8.28,12.66-14.4,11.38-7.26,23.23-.31,23.23-.31S287,246.56,297.51,248s14.72,7.28,14.72,7.28,12.25-6.38,21.54-2.2,16,13.08,16,13.08,7.65-1.44,12.53.7c11.69,5.12,13.65,30.69,15.41,39.72,0,0-10.35-30.32-20.59-31.21S258,297.52,258,297.52l-23.67,80.7Z"/><path d="M172.27,417.54l-.76,1.75c-.46,11.71,2.63,20,11.37,23.72,0,.11-.9,23.21,20.67,28.62,18.73,4.69,26.76-2.63,26.76-2.63s7.08,7.07,11.85,7.32c10.75.56,21.56-12,20.6-20.83S259.45,434,259.45,434s.45-9.25-1.63-16-12.12-14.28-12.12-14.28,5.7-11.6.77-14.72-16.69-5.84-16.69-5.84-6.78-10.42-18.22-5.95c0,0-8.65-2.86-13.93,7.74a34.87,34.87,0,0,0-2.83,9s-4.27-1.29-12.63,3.68C178.56,399.73,172.63,408.64,172.27,417.54Z"/><path d="M171.33,417.65a7.19,7.19,0,0,0-.78,2.16,30.74,30.74,0,0,0,0,4.7,30,30,0,0,0,1.57,8.34,18.08,18.08,0,0,0,10,10.63l-.19-.35a31.51,31.51,0,0,0,5.28,18.33A25.9,25.9,0,0,0,201,471.58,42.36,42.36,0,0,0,222.48,473c2.92-.65,6.31-1.74,8.59-3.8l-1.64.21a39.57,39.57,0,0,0,5.85,4.79,17,17,0,0,0,4.71,2.38,11.67,11.67,0,0,0,5.26.1c7.87-1.38,14.95-7.93,17.62-15.38,1.38-3.87.69-7.63.13-11.6-.59-4.19-1.28-8.36-2-12.52a23.56,23.56,0,0,1-.57-4.52,56,56,0,0,0-1-12.27c-1.5-7.16-7.17-12.73-12.85-17v.39a27.37,27.37,0,0,0,2.77-8.9c.19-1.8.14-3.86-1-5.35s-3.79-2.41-5.63-3.12c-2.36-.92-4.79-1.69-7.23-2.39a45.15,45.15,0,0,0-4.7-1.24,1.46,1.46,0,0,1-.36-.09c.17.08.3.26.21,0a4.23,4.23,0,0,0-.69-.9,18,18,0,0,0-3.39-3.19,15.81,15.81,0,0,0-15.34-1.79l1-.13a12,12,0,0,0-8.52.93c-6.11,3-8.56,10.16-9.77,16.39l1.53-.63c-2.87-.84-6.58.48-9.17,1.56a20.15,20.15,0,0,0-7,4.32,28.19,28.19,0,0,0-4.81,7.11,28.85,28.85,0,0,0-3.08,11.27c0,.78,1.86.4,1.89-.23a28.52,28.52,0,0,1,3.22-11.52,22.48,22.48,0,0,1,5.62-7.54,21.33,21.33,0,0,1,9.1-3.9,7.35,7.35,0,0,1,3.06,0c.42.13,1.43-.11,1.53-.63,1.24-6.38,4.24-15.65,12-16.34a14.71,14.71,0,0,1,3.26.29,7,7,0,0,0,2.52-.64,13.19,13.19,0,0,1,3.18-.45,12.6,12.6,0,0,1,4.71.86,16.83,16.83,0,0,1,6.15,4.33c.6.66,1.05,1.66,1.93,1.91,2.31.67,4.66,1.2,7,1.91,3.08.95,6.48,1.95,9.19,3.75s2,5.74,1.34,8.37a30.43,30.43,0,0,1-2.14,5.93c-.05.11-.13.29,0,.39a53.21,53.21,0,0,1,4.63,4c2.71,2.58,5.48,5.52,7,9,1.64,3.8,1.92,8.33,2.07,12.41a41.72,41.72,0,0,0,.09,5.25c1.19,7.06,2.69,14.15,3.26,21.29.28,3.63-1.32,7.27-3.32,10.21a23.58,23.58,0,0,1-9.15,8.07,14.05,14.05,0,0,1-6.35,1.5,10.5,10.5,0,0,1-5.21-1.89,36.51,36.51,0,0,1-6.62-5.27c-.39-.4-1.29-.11-1.64.21a7.9,7.9,0,0,1-1.4,1,19.17,19.17,0,0,1-4.65,1.89c-6.54,1.78-13.76,1-20.2-.8a25.38,25.38,0,0,1-13.77-9.37,30.33,30.33,0,0,1-5-11.85,29.6,29.6,0,0,1-.69-6.77.31.31,0,0,0-.19-.35,17.33,17.33,0,0,1-9.66-10.5,30.05,30.05,0,0,1-1.46-7.87,22.76,22.76,0,0,1,0-4.81,8.3,8.3,0,0,1,.76-1.95C173.48,416.83,171.6,417,171.33,417.65Z"/><path class="cls-18" d="M283.81,441.46c16.65,15.8,31.24,21.31,52.9,23.89,21.24,2.53,27.69-5,30.34-8.31,14.56-18.26,23.54-36.31,27.87-56.65,1.18-5.52.87-11.34,0-17.26-1.29-8.88-4.39-25.85-5-34.39-1.47-21.75-12.64-39.75-26.12-57-28.07-36-80.25-31.76-101.41-19.46-24.74,14.39-34.29,40.23-33.68,66.82a72,72,0,0,0,4.51,24,76.44,76.44,0,0,1,10.61,12.31"/><path d="M362.48,283.07s6.74,12.66,20.22,38.17c-3.47-8.19-6-20.7-14.1-31.85-28.29-38.94-102.08-27.29-123.18-14.15-24.66,15.37-32,42.66-31.24,71.34.31,11.64.44,19.08,4.68,28.41.18.11,2.39,2.07,2.39,2.07s23.69,2.55,32.57,16.05l-.69-12.35s0-7.63,4-36.38c0,0,.14-4.53,6.63-23.12s14.32-24.4,14.32-24.4,37.47-9.35,46.51-10S362.48,283.07,362.48,283.07Z"/><path d="M361.52,283.33q6.15,11.55,12.26,23.12,4,7.51,8,15c.36.69,2.21.21,1.91-.51-2.44-5.82-4.08-12-6.47-17.8a63.43,63.43,0,0,0-10.36-17.55c-6.51-7.57-15.08-13.05-24.33-16.71a101,101,0,0,0-30.14-6.43,147.32,147.32,0,0,0-30.7,1.17,130.47,130.47,0,0,0-25.57,6,59.61,59.61,0,0,0-22.16,13.75c-8.85,8.72-14.58,20-17.62,32-3.31,13-3.47,26.43-2.79,39.74a54.68,54.68,0,0,0,4,19.15,5.81,5.81,0,0,0,1.93,2.31,3.61,3.61,0,0,0,1.48,1c.61.14,1.28.17,1.91.27,8.71,1.42,17.87,4.28,24.83,9.86a25.4,25.4,0,0,1,5.29,5.71c.41.61,1.88,0,1.84-.65l-.44-7.77c-.08-1.36-.15-2.73-.23-4.09,0-.09,0-.71,0-.34v-.13c0-3.29.43-6.59.76-9.86.89-8.88,2.16-17.7,3.23-26.55.62-5.07,2.36-10.08,3.91-14.91,3.18-9.9,6.65-20.14,13.23-28.36a30.23,30.23,0,0,1,2.25-2.54c.26-.26.51-.51.78-.74.08-.08.18-.15.25-.23s.09,0,.07-.06.07-.06.09-.06-.54.1-.42.18.38-.09.42-.1c.7-.16,1.39-.35,2.08-.51q9.67-2.39,19.38-4.61c7.09-1.62,14.21-3.3,21.41-4.39,2.46-.37,4.94-.51,7.41-.74,4-.35,7.93-.75,11.89-1.14q10.19-1,20.37-2.11l1.17-.13c1-.1,1.53-1.34.22-1.2-12.71,1.36-25.42,2.66-38.15,3.78-6.47.57-12.93,2.22-19.25,3.62-7.33,1.62-14.64,3.35-21.93,5.12-1.71.41-3.46.76-5.14,1.26a5.55,5.55,0,0,0-2.21,1.64c-5.78,5.79-9.5,13.69-12.33,21.24-2,5.35-3.77,10.82-5.35,16.31a75.26,75.26,0,0,0-1.87,7.53c-.34,1.91-.53,3.86-.79,5.78-.73,5.47-1.42,10.94-2,16.41-.55,4.9-1.11,9.82-1.34,14.74a107.67,107.67,0,0,0,.52,10.91l.15,2.56,1.83-.65c-3.56-5.34-9.19-8.93-15-11.41A68.29,68.29,0,0,0,224.84,377c-1.08-.19-2.15-.38-3.24-.49l.53.21-1.51-1.33c-.24-.21-.53-.41-.75-.64a5.35,5.35,0,0,1-.7-1.44,45.29,45.29,0,0,1-2.46-7.8c-1.23-5.62-1.36-11.42-1.52-17.15-.3-10.94.25-21.9,2.9-32.56,4.48-18.06,15.67-35,33.06-42.83A96.83,96.83,0,0,1,269.68,267a148.65,148.65,0,0,1,23.86-3.35c16.93-1,34.74.56,50.4,7.5a59.76,59.76,0,0,1,20.18,14.21c7.68,8.45,11.58,19,15.21,29.6.75,2.2,1.51,4.39,2.41,6.53l1.91-.51q-9.6-18.17-19.23-36.3l-1-1.87C363.05,282.1,361.18,282.69,361.52,283.33Z"/><path class="cls-18" d="M259.74,418.13c-10.05,12.21-20.68-4.72-20.68-4.72-11.68-11.93-15.44-25.54-15.8-34.88s9.9-10,9.9-10c8.78.25,7.63,1.37,21.42,25.2"/><path d="M246.54,394a73,73,0,0,0-7-12.1,23.86,23.86,0,0,0-5-5.2,6.85,6.85,0,0,0-2.77-1.33c-1.07-.18-1.5.8-1.92,1.64-1.87,3.81-1.68,8.33-.64,12.34.18.71,1.63.32,1.45-.39a18.63,18.63,0,0,1-.21-9.69,9.34,9.34,0,0,1,1.43-3.14l-.67.32c-.32,0-.09,0,0,0s.14,0,.2,0l.14,0a6.46,6.46,0,0,1,1.74.92c2.78,1.93,4.88,4.85,6.7,7.65a86.74,86.74,0,0,1,5.26,9.54c.3.62,1.67.06,1.32-.65Z"/><path d="M246.54,398.62c-6.2.89-.58,8.22-.87,11.62,0,.19-.13.41-.14.58a1.28,1.28,0,0,1-.13.21l.65-.19-.09,0c0-.09-.45-.35-.52-.42a7.91,7.91,0,0,1-.68-.85,26.76,26.76,0,0,1-2.58-5.23,23,23,0,0,1-1.77-6.92c-.23-2.93-.2-7.07,2.53-8.92.28-.19.11-.32-.11-.4a1.35,1.35,0,0,0-1,.27c-2.48,1.67-2.93,4.92-2.92,7.69a20,20,0,0,0,1.16,6.83,36.54,36.54,0,0,0,2.71,6.18c.49.84,1.18,2.19,2.22,2.46a1.73,1.73,0,0,0,2.08-1.14,5.89,5.89,0,0,0-.46-3.11c-.46-1.47-3.22-7.54-.3-8,.64-.09,1.25-.8.24-.66Z"/><path d="M311.6,363.57c-2.66-1-5.45.51-6.91,2.16a6.45,6.45,0,0,0-1.53,3.2,6.55,6.55,0,0,0,2.28,5.74,6.09,6.09,0,0,0,7.11.35c2.88-1.81,3.42-5.61,2.32-8.2a6,6,0,0,0-3.27-3.25"/><path d="M325.52,372.38s-10.39-11.89-19.72-10.73c-13.14,1.64-15.28,9.67-17.64,14,0,0,7.36-10.39,17.55-11.41C315,363.31,325.52,372.38,325.52,372.38Z"/><path d="M375.42,355.41c2.34-1.61,5.41-.86,7.23.39a6.34,6.34,0,0,1,2.27,2.72,6.58,6.58,0,0,1-.8,6.13,6.1,6.1,0,0,1-6.8,2.09c-3.24-1.05-4.7-4.61-4.27-7.38a6,6,0,0,1,2.37-3.95"/><path d="M357.55,368.36s6.5-14,15.15-15.09c12.16-1.52,16,5.77,19.12,9.41,0,0-9.06-8.34-18.43-6.92C364.88,357.05,357.55,368.36,357.55,368.36Z"/><path d="M390.69,339.37c0-.06,0-.12,0-.19a19.47,19.47,0,0,0-5.36-1.53c-9.7-1.52-14.48-.81-28.68,4.05l0,.32c.14,1.87.06.83.21,2.7.11,1.42.22,2.84.34,4.26,4.28-1.54,7.31-3.08,10.1-3.81,5.52-1.45,11.77-3.85,17.51-3.38a17.79,17.79,0,0,1,6,1.33C390.81,341.88,390.75,340.62,390.69,339.37Z"/><path d="M321.82,346.76c.12,1.86.05.82.17,2.69.09,1.43.18,2.85.26,4.27-4.64-.89-8-2-11-2.28-5.92-.63-12.72-2.09-18.57-.78-2.81.63-6.54,1.1-8.4,3.78-.5.72-1.63,3.75-2.78,3.32-.47-.18.13-2.52.19-2.76,1.22-4.74,5.08-6.93,9.88-8.36,9.8-2.93,14.84-2.93,30.21-.21"/><path d="M354.52,402a9.46,9.46,0,0,1-8.66.43c-.59-.28-2.37.25-1.55.64a13.29,13.29,0,0,0,11.78-.78c.3-.2.22-.43-.19-.52a2.08,2.08,0,0,0-1.38.23"/><path d="M343.17,402.53a15.36,15.36,0,0,0-5.45-.73,1.33,1.33,0,0,0-.79.35c-.13.16-.15.35.07.44a5.83,5.83,0,0,0,3,.34,1.12,1.12,0,0,0,.86-.45c.13-.27-.19-.39-.43-.36a4.48,4.48,0,0,1-2.41-.29c-.24.27-.48.53-.73.79a13.57,13.57,0,0,1,4.88.67,1.11,1.11,0,0,0,1-.22c.18-.14.36-.43.05-.54"/><path d="M335.92,403.58c-2.15.19-4.78-.46-6-2-1.86-2.26-.83-6.54,1.68-8.4.27-.2.09-.41-.21-.43a1.75,1.75,0,0,0-1.12.36,8,8,0,0,0-2.72,7.47c.57,2.1,2.79,3.37,5.42,3.7a11.4,11.4,0,0,0,2.41.06c.33,0,.9-.19,1-.47s-.17-.35-.48-.33"/><path d="M358.33,400.5a.28.28,0,0,1,.23-.44,2.54,2.54,0,0,0,1.6-.73l.64.63a7.59,7.59,0,0,0-3.22,1.58.59.59,0,0,1-.7,0c-.15-.1-.33-.35-.14-.51"/><path d="M356.74,401a8.46,8.46,0,0,1,3.61-1.76.7.7,0,0,1,.61.2.31.31,0,0,1,0,.44"/><path d="M362.82,400.29a4.43,4.43,0,0,0,3.43-3,6.36,6.36,0,0,0-2.44-6.72.26.26,0,0,1,.06-.47.82.82,0,0,1,.77.16,7.14,7.14,0,0,1,2.92,5.61,5,5,0,0,1-2.74,4.62,5.16,5.16,0,0,1-1.51.5.77.77,0,0,1-.74-.26c-.13-.25.05-.38.25-.41"/><path class="cls-24" d="M369,275c-4.43-2.91-12.87-6.54-20.55-6.73h-.94l-4.08,1.7-.15.06.16-.07c.73-.35,2.3-1.23,1.61-2.12a3.3,3.3,0,0,0-1.68-.93,32.92,32.92,0,0,0-5.65-1.06v0l-.64,0-.64-.07v0a34.21,34.21,0,0,0-5.75.06,3.45,3.45,0,0,0-1.81.63c-.84.76.56,1.9,1.22,2.37l.14.09-.13-.08-3.74-2.37a8.35,8.35,0,0,0-.92-.17c-9.35-1.4-24.74,5-26.21,6.06s-.68,3-.63,3.16l-2.46-2.22s-11.66,3.42-13.71,4.64-3.23,4.49-3.23,4.49-3.55,1-4.75.45-7.88,2.27-10.86,5.83c-1.9,2.29-1.49,4.64-2.52,6.7h0c-.58,1.16-.91,1.93-.91,1.93L253.38,299c-5.53,2.09-5.16,13.14-5.16,13.14-11.54,11.9-13,22.75-9.35,34.91,1.41,4.68-11.9,8.12-3.6,8.66s17.15,29.58,17.15,29.58,3.89-11.76,4.65-16.49-.34-19-.34-19l4.09-.22s2.55-.79,6-5.92-1.15-15.2-1.15-15.2l-1.08-5.94,7.84,1.23c7.73-.64,8.88-8.87,8.88-8.87l-.13-13.86,4.18,5a5.63,5.63,0,0,0,4.23,2.36c11.9.14,13.93-7.1,13.93-7.1l2.19-6.79,2.82,2.25c2.94,2.88,12.29,7.73,17.41,6,1.34-.45,7.17-4.19,8.1-4.69,2.67-1.61,3.75-4.66,4.19-6.68,2.64,3,6.2,6.17,9.64,6.62,4.18.55,13.36-.42,14.65-2.26.86-1.24-.46-1.51,1.07-1.31a5,5,0,0,1,3.17,2.29s3.36,11.63,13.65,16.61,11.67-20.61,2.12-25C382.51,288.28,382,274.56,369,275Z"/><path class="cls-23" d="M220.79,304.65s-11.33,3.09-14.91,9.25c-9.24,15.89-3.36,55,6.08,62.9l9.31,1.86Z"/><path class="cls-22" d="M213,372.55s-16.2-2-19.21,7.91l-1.38,4.7s-17.88-4.65-23.61,3.73-7.39,25.2-7.39,25.2"/><path class="cls-21" d="M244.37,479.93c-17.31,6.95-17.33,7.78-25.78,11.62-4.1,1.85-29.18,16.09-29.18,16.09l2.72,71.92,9.74,171L179.5,801.82a194.15,194.15,0,0,0-14,48.51l-7.82,51.47c13.7,3.64,48.74-22.2,62.59-20,22,3.45,44.58,3.83,66.77,4.73,27.48,1.11,55.07,1.84,82.5-.73,27.21-2.55,38.93,9.28,65.17,1.74l-16.63-112.9s-6.2-61.17-2.67-71.37c4.48-13,16.42-18.64,16.68-36.9.46-32.18-15.87-66.47-15.87-66.47l-7.56-94.12c-6.23-6.76-59.95-22.58-59.95-22.58s11.44,18.25-2.26,31.88-72.31-5.13-88.27-40.5Z"/><path class="cls-25" d="M422,549.15c-3,4-4,9.37-4.52,14.27a67.31,67.31,0,0,0,.58,17.13c1,6,3.28,11.67,5.09,17.47,2.11,6.74,3.57,13.62,5,20.53,1.21,5.7,2.48,11.51,2.23,17.38-.27,6.44-2.29,12.76-4.76,18.67-2.9,6.93-7.2,13.14-10.5,19.87-.85,1.74-2.1,3.73-2.34,5.66-.15,1.25-.2,2.52-.28,3.78a262.2,262.2,0,0,0-.17,36.76c.13,1.81.29,3.62.49,5.43.05.46,1.51.15,1.45-.39a237.42,237.42,0,0,1-.49-39.28c.1-1.73.21-3.46.34-5.18a7.74,7.74,0,0,1,.4-2.4c2.78-6.93,7-13.11,10.37-19.74a65.32,65.32,0,0,0,6.54-19.28,47.76,47.76,0,0,0-.7-16.08c-1.28-6.9-2.7-13.84-4.54-20.61-.84-3.07-1.79-6.11-2.78-9.14s-2.17-6.09-3-9.21a63.06,63.06,0,0,1-1.81-16.59c.09-5.36.66-11,2.9-16a16.44,16.44,0,0,1,1.79-3.06c.38-.5-1.06-.39-1.34,0Z"/><path class="cls-26" d="M411,822.14Z"/><rect class="cls-27" x="-45.4" y="882.39" width="1393.94" height="237.39"/><path class="cls-28" d="M382.77,869.65l-.17-.1Z"/><path class="cls-1" d="M241.72,698.58q.74,3.64,1.73,7.22a.74.74,0,0,0-.13-.5C243,703.9,242.38,701.59,241.72,698.58Z"/><path class="cls-29" d="M456.43,675.27,492,863.7l-8.38,2.24-41.41-186.6S443.21,657.16,456.43,675.27Z"/><path class="cls-30" d="M483.11,802.78c-.16.1-.33.24-.52.37C482.78,803,483,802.88,483.11,802.78Z"/><path class="cls-30" d="M481.91,803.64l-1.19.81Z"/><path class="cls-30" d="M482.48,803.23c-.15.12-.31.23-.46.33C482.17,803.46,482.33,803.35,482.48,803.23Z"/><path class="cls-30" d="M480.61,804.5c-.15.11-.35.22-.53.33C480.26,804.72,480.46,804.61,480.61,804.5Z"/><path class="cls-30" d="M484.66,801.5c-.12.11-.25.21-.37.33C484.41,801.71,484.54,801.61,484.66,801.5Z"/><path class="cls-30" d="M485.65,800.57c-.27.29-.59.56-.89.85C485.06,801.13,485.38,800.86,485.65,800.57Z"/><path class="cls-30" d="M484.16,801.93a4.25,4.25,0,0,0-.41.35A4.25,4.25,0,0,1,484.16,801.93Z"/><path class="cls-30" d="M483.67,802.32l-.53.44Z"/><path class="cls-30" d="M480,804.92c-.2.1-.39.22-.59.34C479.57,805.14,479.76,805,480,804.92Z"/><path class="cls-30" d="M477.8,806.14l-.62.33Z"/><path class="cls-30" d="M479.29,805.3c-.44.27-.91.52-1.39.78C478.38,805.82,478.85,805.57,479.29,805.3Z"/><path class="cls-30" d="M488.42,796.92l-.19.33Z"/><path class="cls-30" d="M489.51,793.56a2,2,0,0,1,0,.33A2,2,0,0,0,489.51,793.56Z"/><path class="cls-30" d="M488.89,795.92c-.06.14-.12.29-.19.44C488.77,796.21,488.83,796.06,488.89,795.92Z"/><path class="cls-30" d="M486.89,799.19c-.11.15-.23.29-.36.44C486.66,799.48,486.78,799.34,486.89,799.19Z"/><path class="cls-30" d="M487.89,797.82a3.3,3.3,0,0,1-.26.39A3.3,3.3,0,0,0,487.89,797.82Z"/><path class="cls-30" d="M486.47,799.7c-.11.11-.21.23-.32.35C486.26,799.93,486.36,799.81,486.47,799.7Z"/><path class="cls-30" d="M487.23,798.78l-.3.36Z"/><path class="cls-30" d="M489.46,794c0,.16-.06.29-.1.43C489.4,794.3,489.42,794.17,489.46,794Z"/><path class="cls-30" d="M489.57,793.08a1.86,1.86,0,0,0,0,.33A1.86,1.86,0,0,1,489.57,793.08Z"/><path class="cls-30" d="M489.2,795a1.86,1.86,0,0,1-.1.31A1.86,1.86,0,0,0,489.2,795Z"/><path class="cls-30" d="M489.06,795.48c0,.13-.11.26-.14.38C489,795.74,489,795.61,489.06,795.48Z"/><path class="cls-30" d="M487.55,798.34a3.09,3.09,0,0,0-.23.31A3.09,3.09,0,0,1,487.55,798.34Z"/><path class="cls-30" d="M489.34,794.54a1.62,1.62,0,0,0-.09.35A1.62,1.62,0,0,1,489.34,794.54Z"/><path class="cls-30" d="M488.17,797.36a3,3,0,0,1-.26.44A3,3,0,0,0,488.17,797.36Z"/><path class="cls-30" d="M488.66,796.47c-.06.1-.11.21-.16.31C488.55,796.68,488.6,796.57,488.66,796.47Z"/><path class="cls-30" d="M486.06,800.16l-.33.32Z"/><path class="cls-28" d="M477.18,806.47s-.07,0-.13.06S477.14,806.48,477.18,806.47Z"/><path class="cls-28" d="M487.91,797.8s0,0,0,0S487.91,797.81,487.91,797.8Z"/><path class="cls-28" d="M487.63,798.21l-.08.13Z"/><path class="cls-28" d="M485.73,800.48s0,.07-.08.09S485.7,800.51,485.73,800.48Z"/><path class="cls-28" d="M483.14,802.76s0,0,0,0S483.13,802.76,483.14,802.76Z"/><path class="cls-28" d="M483.75,802.28s-.05,0-.08,0S483.72,802.29,483.75,802.28Z"/><path class="cls-28" d="M486.15,800.05l-.09.11Z"/><path class="cls-28" d="M488.23,797.25a.14.14,0,0,1-.06.11A.14.14,0,0,0,488.23,797.25Z"/><path class="cls-28" d="M484.29,801.83l-.13.1Z"/><path class="cls-28" d="M482.59,803.15a.38.38,0,0,1-.11.08A.38.38,0,0,0,482.59,803.15Z"/><path class="cls-28" d="M484.76,801.42a.7.7,0,0,0-.1.08A.7.7,0,0,1,484.76,801.42Z"/><path class="cls-28" d="M487.32,798.65a.28.28,0,0,0-.09.13A.28.28,0,0,1,487.32,798.65Z"/><path class="cls-28" d="M479.37,805.26l-.08,0Z"/><path class="cls-28" d="M477.9,806.08l-.1.06Z"/><path class="cls-28" d="M486.93,799.14a.1.1,0,0,0,0,.05A.1.1,0,0,1,486.93,799.14Z"/><path class="cls-28" d="M480.08,804.83l-.12.09Z"/><path class="cls-28" d="M486.53,799.63s0,0-.06.07S486.53,799.65,486.53,799.63Z"/><path class="cls-28" d="M482,803.56l-.11.08Z"/><path class="cls-28" d="M480.72,804.45l-.11,0Z"/><path class="cls-28" d="M488.92,795.86a.06.06,0,0,0,0,.06A.06.06,0,0,1,488.92,795.86Z"/><path class="cls-28" d="M489.53,793.41c0,.05,0,.11,0,.15S489.52,793.46,489.53,793.41Z"/><path class="cls-28" d="M489.47,793.89a.45.45,0,0,0,0,.12A.45.45,0,0,1,489.47,793.89Z"/><path class="cls-28" d="M489.36,794.44s0,.07,0,.1S489.36,794.47,489.36,794.44Z"/><path class="cls-28" d="M488.7,796.36a.36.36,0,0,0,0,.11A.36.36,0,0,1,488.7,796.36Z"/><path class="cls-28" d="M488.5,796.78l-.08.14Z"/><path class="cls-28" d="M489.25,794.89a.58.58,0,0,0-.05.14A.58.58,0,0,1,489.25,794.89Z"/><path class="cls-28" d="M489.1,795.34a.37.37,0,0,0,0,.14A.37.37,0,0,1,489.1,795.34Z"/><rect class="cls-31" x="394.55" y="946.3" width="24.21" height="9.5"/><rect class="cls-31" x="610.61" y="946.3" width="24.21" height="9.5"/><line class="cls-32" x1="512.39" y1="888.77" x2="512.39" y2="903.8"/><path class="cls-33" d="M470.22,898.52c0,6.86-3.76,5.54-8.41,5.54s-8.4,1.32-8.4-5.54,8.4-19.31,8.4-19.31S470.22,891.66,470.22,898.52Z"/><path class="cls-33" d="M488.57,898.52c0,6.86-3.76,5.54-8.4,5.54s-8.41,1.32-8.41-5.54,8.41-19.31,8.41-19.31S488.57,891.66,488.57,898.52Z"/><path class="cls-33" d="M507.49,898.52c0,6.86-3.76,5.54-8.41,5.54s-8.4,1.32-8.4-5.54,8.4-19.31,8.4-19.31S507.49,891.66,507.49,898.52Z"/><path class="cls-33" d="M534.84,898.52c0,6.86-3.76,5.54-8.41,5.54s-8.4,1.32-8.4-5.54,8.4-19.31,8.4-19.31S534.84,891.66,534.84,898.52Z"/><path class="cls-33" d="M554.32,898.52c0,6.86-3.76,5.54-8.4,5.54s-8.41,1.32-8.41-5.54,8.41-19.31,8.41-19.31S554.32,891.66,554.32,898.52Z"/><path class="cls-33" d="M573.52,898.52c0,6.86-3.76,5.54-8.41,5.54s-8.4,1.32-8.4-5.54,8.4-19.31,8.4-19.31S573.52,891.66,573.52,898.52Z"/><path class="cls-34" d="M467.33,900.76c0,4.5-2.47,3.63-5.52,3.63s-5.51.87-5.51-3.63,5.51-12.65,5.51-12.65S467.33,896.26,467.33,900.76Z"/><path class="cls-34" d="M485.68,901.42c0,4.5-2.47,3.64-5.51,3.64s-5.51.86-5.51-3.64,5.51-12.65,5.51-12.65S485.68,896.93,485.68,901.42Z"/><path class="cls-34" d="M504.6,900.76c0,4.5-2.47,3.63-5.52,3.63s-5.51.87-5.51-3.63,5.51-12.65,5.51-12.65S504.6,896.26,504.6,900.76Z"/><path class="cls-34" d="M532.24,900.76c0,4.5-2.46,3.63-5.51,3.63s-5.51.87-5.51-3.63,5.51-12.65,5.51-12.65S532.24,896.26,532.24,900.76Z"/><path class="cls-34" d="M551.29,900.76c0,4.5-2.47,3.63-5.52,3.63s-5.51.87-5.51-3.63,5.51-12.65,5.51-12.65S551.29,896.26,551.29,900.76Z"/><path class="cls-34" d="M570.63,900.76c0,4.5-2.47,3.63-5.52,3.63s-5.51.87-5.51-3.63,5.51-12.65,5.51-12.65S570.63,896.26,570.63,900.76Z"/><polyline class="cls-35" points="447.02 903.8 447.02 889.11 578.94 889.11 578.94 903.8"/><rect class="cls-36" x="394.55" y="903.8" width="240.27" height="42.5"/><circle class="cls-31" cx="514.68" cy="925.05" r="14.34"/><path class="cls-37" d="M411.2,777.23a5.1,5.1,0,0,0-1.88-3.75,16.33,16.33,0,0,0,3.31-.87h0c-.71-4.91-1.26-9.13,7.48-9.09,58.82.28,117.65.29,176.47.39,13.92-.73,13.92-.73,14.76,9.84h0l-.17,20.5c-.06,22.27,0,44.54-.23,66.81-.13,11.92-7.05,18.23-20.58,19.55l-158.48,0c-12-1.63-16.53-5.41-18.71-15.65-2.83-20.49-.49-50.89-1.26-71.41"/><path class="cls-37" d="M589.4,880.19a6.67,6.67,0,0,1,1,.42C590,880.45,589.72,880.32,589.4,880.19Z"/><path class="cls-38" d="M412.33,772.59a20.13,20.13,0,0,0-2.94-.22H390.73c-7.69,0-14,4.14-14,9.21s6.3,9.2,14,9.2h18.66a21.64,21.64,0,0,0,2.94-.21Z"/><path class="cls-38" d="M610.88,772.59a20.38,20.38,0,0,1,3-.22h18.66c7.69,0,14,4.14,14,9.21s-6.3,9.2-14,9.2H613.83a21.91,21.91,0,0,1-3-.21Z"/><path class="cls-39" d="M175.59,872.14s-10.23,94.44,100.35,91.69c90.15-2.24,88.57-90.11,88.57-90.11Z"/><ellipse class="cls-39" cx="268.4" cy="873.04" rx="103.04" ry="24.91"/><ellipse class="cls-40" cx="269.94" cy="872.14" rx="94.57" ry="15.74"/><path class="cls-41" d="M368,880.16l-.46.26-1.27.8c-1.12.7-2.83,1.67-5.07,2.81a102.49,102.49,0,0,1-20,7.5,254.89,254.89,0,0,1-31.1,5.81,307,307,0,0,1-38.7,1.9c-13.73-.12-26.83-.57-38.7-1.62a220.48,220.48,0,0,1-31.27-4.86,139.38,139.38,0,0,1-20.35-6.34c-2.36-.89-4.12-1.76-5.34-2.3l-1.34-.64c-.33-.13-.48-.23-.46-.25a4,4,0,0,1,.49.17l1.41.55c1.23.48,3,1.28,5.37,2.11a152.75,152.75,0,0,0,20.39,6,227.87,227.87,0,0,0,31.18,4.63c11.85,1,24.91,1.43,38.64,1.54a312.37,312.37,0,0,0,38.56-1.9,258.93,258.93,0,0,0,31-5.58,107.52,107.52,0,0,0,20-7.16c2.24-1.1,4-2,5.13-2.64l1.33-.72C367.78,880.21,367.93,880.14,368,880.16Z"/><path class="cls-18" d="M491.22,726.71c-2.34-3.65-18.18-15.29-18.18-15.29s-7.06-5.62-13.62-4.17-37.73,2.9-37.73,2.9l-26.44,14.28L384,727.58c-.35,13.17,2.05,23.29,0,36.31,3.58-1.33,6.29-2.37,7.55-2.93,7.45-3.3,46.57.31,53.32-.77a128,128,0,0,0,13.62-3.09s28.62-13.61,28.7-15.51,1.94-2.52-3.53-6.54a61.9,61.9,0,0,0-10.79-6.29s11.91,4.94,14,4.17S493.56,730.36,491.22,726.71Z"/><path class="cls-42" d="M484.37,720.52a7.23,7.23,0,0,1-1.59-1.09l-4.1-3.21c-1.61-1.27-3.8-3-6-4.83a15.32,15.32,0,0,0-8.06-4.15,24.06,24.06,0,0,0-4.8,0l-4.52.34c-2.9.24-5.5.5-7.67.71l-5.24.56a9.28,9.28,0,0,1-1.9.1,9.25,9.25,0,0,1,1.87-.44c1.2-.2,3-.49,5.11-.78s4.79-.61,7.69-.89l4.54-.38a22.32,22.32,0,0,1,5,0,15.86,15.86,0,0,1,8.45,4.41c2.19,1.83,4.17,3.51,5.9,5s2.85,2.48,3.93,3.41A9.84,9.84,0,0,1,484.37,720.52Z"/><path class="cls-42" d="M450.76,720.17a15.43,15.43,0,0,1,3.87.64,65.33,65.33,0,0,1,8.95,2.9,64.45,64.45,0,0,1,8.54,4.11,14.73,14.73,0,0,1,3.24,2.18,22.73,22.73,0,0,1-3.53-1.66c-2.15-1.07-5.16-2.5-8.56-3.85s-6.55-2.37-8.86-3.06A21.28,21.28,0,0,1,450.76,720.17Z"/><path class="cls-42" d="M482.86,744.49a3.7,3.7,0,0,1-1.32.15,21.73,21.73,0,0,1-3.61-.19,52.71,52.71,0,0,1-11.45-3.17c-4.33-1.63-8.24-3.15-11-4.29a30.51,30.51,0,0,1-4.49-2,27.61,27.61,0,0,1,4.69,1.44c2.86,1,6.83,2.4,11.12,4A65.81,65.81,0,0,0,478,743.85C481,744.39,482.86,744.36,482.86,744.49Z"/><path class="cls-42" d="M467.52,752.74a12.35,12.35,0,0,1-3.38.1,68.92,68.92,0,0,1-8.11-.79,76.87,76.87,0,0,1-7.95-1.67,13.82,13.82,0,0,1-3.22-1.06c.06-.26,5.09.94,11.31,1.9S467.53,752.49,467.52,752.74Z"/><path class="cls-21" d="M192,505.17s-34.66,18.54-36.7,58.72-14.87,176.7,8.17,215.91,216.24-3.41,216.24-3.41L379.15,724l-149.23-8.9s11.9-128.05,3.22-150.53-19-30.65-19-30.65"/><path class="cls-25" d="M382.59,723.77l-15.26-.7-36.65-1.67-44.33-2L248,717.63l-12.62-.58-3.93-.18a8.4,8.4,0,0,0-2.06-.09,1.1,1.1,0,0,1-.25,0l.25.22c.56-6,1.05-12.08,1.53-18.13q1.68-21.12,2.93-42.27c.94-16.28,1.7-32.58,1.9-48.89.09-7,.07-14.07-.21-21.1a131.67,131.67,0,0,0-1.38-16c-1.17-7.15-4.47-13.81-7.94-20.11-3.22-5.83-7-11.76-12-16.28-.21-.19-.42-.38-.64-.56s-1.64.3-1.36.52c3.6,2.86,6.46,7,8.95,10.73A99,99,0,0,1,229.25,560a45.2,45.2,0,0,1,3,8.26,90.25,90.25,0,0,1,1.7,14.48c.39,6.69.47,13.4.45,20.11-.05,16-.73,32-1.6,47.94q-1.2,22-2.93,44.05-.57,7.49-1.21,15l-.39,4.61a18.73,18.73,0,0,0-.22,2.48c0,.1,0,.2,0,.3s.11.21.26.22l15.26.69,36.64,1.68,44.34,2,38.32,1.75c6.2.28,12.41.67,18.61.85h.26c.36,0,1.67-.63.92-.66Z"/><path class="cls-25" d="M178.91,791.47c13.38,3.22,27.43,3.66,41.14,3.65,17.29,0,34.58-1.16,51.79-2.75s34.34-3.66,51.45-6q20.31-2.84,40.54-6.26c6.23-1,12.5-2,18.68-3.3l.26,0c.23,0,.85-.18.85-.51V764.45c0-.31-1.45-.08-1.45.39v11.75l.85-.51c-5,.95-10,1.83-15,2.69q-19,3.26-38.06,6c-16.79,2.42-33.64,4.56-50.53,6.25-17.31,1.73-34.69,3.05-52.09,3.36-14.28.25-28.84.05-42.93-2.61-1.43-.27-2.86-.58-4.27-.92-.38-.09-1.66.5-1.18.61Z"/><path class="cls-25" d="M229.13,716.65c-10.78-2.73-20.76,5.66-26.63,13.81-.43.58,1,.54,1.36.1,5.35-7.43,14.52-15.53,24.41-13,.54.13,1.71-.67.86-.89Z"/><rect class="cls-19" x="598.16" y="491.87" width="27.41" height="8.32"/><g class="cls-43"><path class="cls-44" d="M226.05,878.68c-1.38-3,0-6.71,2.49-8.84s5.86-3,9.13-3.32,6.59-.28,9.82-.91,6.27-2,9.51-2.41A17.55,17.55,0,0,1,271.49,868a16.82,16.82,0,0,1,4.79,14.42,12.21,12.21,0,0,1-2.27,5.57c-3.1,4-8.66,5-13.69,5.55-5.75.65-11.58,1.16-17.32.43s-11.47-2.8-15.72-6.74"/><path class="cls-45" d="M203.22,886.3a8.49,8.49,0,0,1-5.39-4.48,6.27,6.27,0,0,1,1-6.75,8.63,8.63,0,0,1,5.65-2.19c5.78-.46,11.44,1.49,17.17,2.33,3.51.51,7.25.67,10.2,2.63,3.68,2.45,5.17,7,6.41,11.3q-17.56-.95-35.1-2.29"/><path class="cls-44" d="M290.45,884.11a26.19,26.19,0,0,1,18.37-8.93,51.18,51.18,0,0,0,6.2-.3c1.9-.32,3.8-1.08,5.7-.74a6.89,6.89,0,0,1,4.6,3.72,20.09,20.09,0,0,1,1.72,5.86,4.6,4.6,0,0,1,0,2.21c-.39,1.27-1.73,1.94-3,2.41-8,3-16.68,2.84-25.18,2.69"/><path class="cls-45" d="M264.75,891.77a8.94,8.94,0,0,1-4.88-7.14,3.64,3.64,0,0,1,.76-2.9c1.35-1.38,3.63-.57,5.56-.52,3.91.11,7-3.28,9-6.67a16.35,16.35,0,0,1,2.75-4,4.37,4.37,0,0,1,4.47-1.14c2,.82,2.57,3.31,3.81,5.06,1.82,2.56,5.15,3.56,7.41,5.74a9.41,9.41,0,0,1,2.82,7.09,3.39,3.39,0,0,1-.54,1.89,4,4,0,0,1-2.6,1.21,79.68,79.68,0,0,1-27.85.14"/></g><path class="cls-14" d="M348.54,417c-10.14.94-26.69,1.26-26.69,1.26s5.54,24.45,29,22.28,22.44-26.95,22.44-26.95S358.68,416,348.54,417Z"/><path class="cls-15" d="M348.64,417c-4.82.45-24.34,1.43-24.34,1.43s8.15,15.56,25.59,13.95c18.91-1.74,20.26-17.92,20.26-17.92Z"/><path class="cls-16" d="M348.92,417.67c-4.83.44-19.58,1-19.58,1s5.77,4.79,20.24,3.45,18.59-6.87,18.59-6.87Z"/><path class="cls-14" d="M373.55,412.92a25.72,25.72,0,0,0-3.27,0c-4,0-6.62-.79-9.53-.75-5,.08-7.93,2.31-10.07,2.51s-5.47-1.46-10.37-.63c-2.87.49-9.93,2.2-13.89,2.91-2.38.43-5.27-.24-5.77-.07-.7.24,1.16,5.33,28.15,2.85S374.28,413,373.55,412.92Z"/><path class="cls-39" d="M665.55,910.81s-5.64,52,55.23,50.47c49.62-1.23,48.75-49.6,48.75-49.6Z"/><ellipse class="cls-39" cx="716.63" cy="911.31" rx="56.72" ry="13.71"/><ellipse class="cls-40" cx="717.48" cy="910.81" rx="52.06" ry="8.66"/><path class="cls-41" d="M771.42,915.22l-.25.15-.7.44c-.61.39-1.55.92-2.79,1.55a56,56,0,0,1-11,4.12,136.51,136.51,0,0,1-17.12,3.2,168.35,168.35,0,0,1-21.3,1.05c-7.56-.06-14.77-.32-21.3-.89a120.52,120.52,0,0,1-17.21-2.68,75.65,75.65,0,0,1-11.2-3.49c-1.3-.49-2.27-1-2.94-1.26l-.74-.36c-.18-.07-.26-.12-.25-.13l.27.09.77.31c.68.26,1.65.7,3,1.16a84.39,84.39,0,0,0,11.22,3.31A125.93,125.93,0,0,0,697,924.34c6.52.54,13.71.78,21.27.84a173.08,173.08,0,0,0,21.23-1,142.94,142.94,0,0,0,17.07-3.07,59.69,59.69,0,0,0,11-3.94c1.23-.61,2.19-1.1,2.82-1.46l.73-.39A2.52,2.52,0,0,0,771.42,915.22Z"/><path class="cls-46" d="M806.12,493.42c3.07,18.49-4.11,36.43-7.77,54.27-1.84,8.95-2.75,18.06-1.5,27.16a90.22,90.22,0,0,0,8.22,26c4.5,9.54,10.07,18.53,15.68,27.45.49.78,3.2-.3,2.9-.78-9.78-15.55-19.9-31.77-23.35-50.1a75,75,0,0,1,.42-27.69c1.68-9.07,4.33-17.92,6.34-26.92,2.22-9.9,3.64-20.1,2-30.2-.11-.7-3,0-2.9.77Z"/><path class="cls-46" d="M745.1,542.81c4.25,9.16,10.31,17.26,15.36,26a116.29,116.29,0,0,1,11.62,28,117.75,117.75,0,0,1,3.22,16.76c.12,1,3,.34,2.9-.77a117.18,117.18,0,0,0-7.31-29.14c-3.7-9.39-8.82-17.9-14.23-26.38A131.55,131.55,0,0,1,748,542c-.48-1-3.32-.12-2.9.77Z"/><path class="cls-46" d="M1088.1,600.88c-1.56-12.65-5.78-24.71-9.68-36.78a350.94,350.94,0,0,1-10-37.57,343.57,343.57,0,0,1-5.58-38.29q-.84-9.64-1.14-19.32c-.15-4.74-.5-9.57.26-14.27a67.63,67.63,0,0,1,3.75-13.61,44.15,44.15,0,0,1,7.89-13.69c.46-.52-.4-.74-.76-.75a2.62,2.62,0,0,0-1.92.76c-6,6.74-9.4,16-11.29,24.73a50,50,0,0,0-1,11.39q.12,9.79.81,19.58A340.22,340.22,0,0,0,1074,559.93c4.28,13.76,9.48,27.35,11.25,41.73.11.86,3,.23,2.9-.78Z"/><path class="cls-46" d="M1106.25,730.63l-1.2,46.23c0,.6,2.88.17,2.9-.77l1.19-46.24c0-.6-2.87-.17-2.89.78Z"/></g></g></svg>