<svg xmlns="http://www.w3.org/2000/svg" viewBox="0 0 1303.15 1057.31"><defs><style>.cls-1{fill:#f2ebd1;}.cls-2{fill:#a66e53;}.cls-3{fill:#ccb631;}.cls-4{fill:#343535;}.cls-5{fill:#5e5f5f;}.cls-6{fill:#a53b23;}.cls-7{fill:#89772e;}.cls-8{fill:#4f2e25;}.cls-9{fill:#010101;}.cls-10{fill:#13110f;}.cls-11{fill:#ababab;}.cls-12{fill:none;stroke:#010101;stroke-width:1.85px;}.cls-12,.cls-18{stroke-miterlimit:10;}.cls-13{fill:#0b0d0e;}.cls-14{fill:#622515;}.cls-15{fill:#443a1a;}.cls-16{fill:#3d3d3d;}.cls-17{fill:#9cb5ad;}.cls-18,.cls-19{fill:#151210;}.cls-18{stroke:#161311;stroke-width:0.74px;}.cls-20{fill:#161311;}.cls-21{fill:#231f20;}.cls-22{fill:#513835;}.cls-23{fill:#41574f;}.cls-24{fill:#040607;}.cls-25{fill:#704536;}.cls-26{fill:#fff;}.cls-27{fill:#653c29;}.cls-28{fill:#653c2a;}</style></defs><g id="Layer_11" data-name="Layer 11"><polyline class="cls-1" points="1311.69 1079.97 1311.69 -42.84 -15.13 -42.84 -15.13 1079.97"/><path class="cls-2" d="M450.42,1005.85c.53-2.44,6.39-30.05,6.39-30.05l9.37,44.41-16.72,16.13s-19.6,7.25-19.22,12.65,19.22,3.7,19.22,3.7v.06c-.21,2.63,2.4,4.89,5.81,5,6.11.26,42.81-30.38,42.81-30.38V955.49l-4.32-46.73-39.45-14.47a164.07,164.07,0,0,1-7.4,39.11c-6.53,19.8-11.82,11-15.18,31.82s1.44,66,1.44,66C455.47,1034.19,449.89,1008.29,450.42,1005.85Z"/><path class="cls-3" d="M345.16,411.7s46.23,27.22,68,45.09S467.85,590,469.38,631s-3.69,38.32,10,108.53,23.41,188.22,23.41,195-61.44,5.85-61.44,5.85S358.4,733.51,355,685.8,345.16,411.7,345.16,411.7Z"/><path class="cls-4" d="M296.39,932.17l1.48,9.8c.32,2.13,1.77,3.67,3.24,3.45s2.36-2.14,2-4.25l-1.47-9.8c1.91-1.73,2.78-5,2.22-8.39-.78-4.67-4-8-7.24-7.39s-5.21,4.85-4.44,9.52C292.67,928.24,294.27,931,296.39,932.17Z"/><path class="cls-5" d="M169.55,144.37c7.09-10.25,18.24-17.16,30.16-14.08-.76-23.23,21.6-37.17,44.83-38.07,11.93.08,24.25,5.33,35.47,1.26,7-2.52,12.26-8.09,18.21-12.75,24.95-18.91,64.67,2.32,86.25,25s16.56,48.34,6,77.79c-4.92,13.7-4,21.11-5.41,35.7-1.32,13.76-9.37,39.4-9.37,53.05s21.47,27.72,7.7,28.95L233.17,285.15c-22.25,4.63-36.55-2-48.17-21.49-7.58-13.26-5.1-13.9-6.24-29.1-2-19.88-22.36-34.62-21.38-54.57C157.61,167.46,163.07,155.1,169.55,144.37Z"/><path class="cls-6" d="M150.91,143.73s51.6-26.26,118.59-19.55,100.09,47.37,112.09,76.65-.14,60.32-.14,60.32,16.78,4.36,27.27-56c15.28-87.93-75-139.92-96.61-139.4S179.6,45.09,150.91,143.73Z"/><path class="cls-2" d="M210.09,292.14s-2.3,46.62-16.16,83.69c-1.93,5.16-36.21,35-36.21,35L208.15,423c27.19,6,96.78,32.08,122.92,22.46l14.09-33.79s-28.92-13.87-30.31-20.22S318,336.93,318,336.93"/><path class="cls-7" d="M404.19,1611.43l52.87-574.82-28.5-172.16H78.81L42.63,1030.07l72.26,588.87s112.18,7.34,153.73,7.34S404.19,1611.43,404.19,1611.43Z"/><path class="cls-3" d="M466.14,858.48c-9.26-69-11.38-69.92-11.38-69.92L439.4,743.44l23.14-81.05c6.09-31.2-3.36-80.24-11.33-92.8L389.74,437.73l-70.08-40.8c2.25,4,24.72,26.52-.67,39.41a60.4,60.4,0,0,1-26.28,6.26l-2,0C229.88,440.16,184.87,382,184.87,382l-56.5,25.37L90.77,708.18S39.57,836.79,37.2,894.36C34.3,965,36.15,1036.05,37,1106.75c.08,6.75,95.42,17,105.1,18a767.32,767.32,0,0,0,109.32,3c71.63-3.15,140.72-19.88,210.41-34C461.86,1093.69,475.41,927.46,466.14,858.48Z"/><path class="cls-3" d="M328.22,402.94s78,35.19,90.86,62.45C438.54,506.81,448.6,559,448.6,559L408,574.93Z"/><path class="cls-8" d="M314.78,382.59s-11.19-1.79-18.9-3.92S275,377,239.36,346.37c0,0,10.56,37.83,55.92,45.76,0,0,11.72,2.41,19.41.52Z"/><path class="cls-2" d="M353.71,152.23l.49.39a5.09,5.09,0,0,1-.45-.82Zm19.09,5.48c.26.28.55.57.86.85l0-.35S372.83,157.28,372.8,157.71ZM234.58,342.06c16.71,20,51.44,41.85,80.2,42.95,10.31.39,20.16,0,28.38-12.09s15.58-16.9,24.49-28.16c8.54-10.81,12.46-17.64,16.88-30.64,4.57-13.45,4.81-17.07,4.38-30.89a136.56,136.56,0,0,1,1-21.33c1-6.75,6.17-33.28,8-48.93s-8.32-46.28-8.32-46.28c-.56-4.33-6.59-2.56-8.61-6.15l-1.85-.16a1.83,1.83,0,0,1,.78,1.78,14.48,14.48,0,0,1-6.21-3.6v.07c-2.88,1-5.55-.47-7.68-2.79,0,.43.35,1.31.82,1.35a9.3,9.3,0,0,1-7.18-3.17c0,.42.35,1.31.32,1.73a16.86,16.86,0,0,1-5.73-3.13c.38.59,10.95-.14,10.92.16-2.81.18.29,1.38-1.84-.94l-2.16-1.77c-2.35.22-2.38,1.62-4.09-.23.43.46-.87-4.78-.91-4.36-2.77-.24-2-.36-4.2-1.83,0,.43-7.8,2.12-7.83,2.54-2.31-.2-1.88,2-3.59.12.43.46,1.82-1.64,2.25-1.17-2.81.19-4,1.88-6.14-.44.43.46-8.74-5.44-8.74-5.44-2.81.19-2.42,1.1-4.58-.79.85.93-12.73-1.88-12.35-1-2.3-.19,3.7,8.85,2,7.42,0,.43-5.21-1.73-5.21-1.73-2.35.23.94,2.65-.77.8,0,.42.32,1.73.78,1.77-2.88,1-6-.09-8.67-2,.85.93,1.24,1.81,1.67,2.28-2.32-.2-4.2.07-6.37-1.83,0,.42.78,1.78,1.25,1.82a9.2,9.2,0,0,1-7.33-1.48c0,.42.82,1.35,1.24,1.81A6.57,6.57,0,0,1,284,145l1.24,1.82c-1.85-.16-3.31.57-6-.52,0,.42.86.93.82,1.35a16.92,16.92,0,0,1-4.59-.82c0,.43,1.28,1.39.82,1.35-1.85-.15-3.31.58-5.55-.47.42.46.82,1.35,1.24,1.82-1.85-.16-3.73.1-5.51-.9a3.19,3.19,0,0,0,.78,1.78c-1.85-.16-3.31.56-5.55-.48,0,.42.82,1.35,1.25,1.81-1.86-.15-3.74.11-5.55-.47,0,.43.85.93,1.28,1.39-1.85-.16-3.74.11-6-.93-.07.84.35,1.31.32,1.73-1.39-.12-2.27-.62-3.66-.74l-2.39.65c-7.19,7.93-30.89-1-30.89-1C200.78,162.6,215,222.85,214.74,231s-5,10-5,10c-2.06-3.17-5.63,5.38-6.73,1.86-1.13-3.09.12-6.83-1-9.91-3.58-7.15-13-5.82-18.45-2l-1,1.32c-7.89,9-2.7,39.46,1.8,48.76,0,18.16,15.11,29,25.12,16.67l1.91,7.25"/><path class="cls-9" d="M331.79,304.27c-3.56,1.49-8.72.63-12-1.78-.73-.54-3.3-.3-2.29.45,4.3,3.18,11.73,4.08,16.33,2.16.45-.19.4-.53-.13-.75a3,3,0,0,0-1.94-.08"/><path class="cls-9" d="M316.13,301.84a21.4,21.4,0,0,0-7.26-2.47,1.71,1.71,0,0,0-1.17.26c-.23.17-.3.43,0,.61a8.19,8.19,0,0,0,4,1.28,1.56,1.56,0,0,0,1.3-.38c.26-.33-.14-.59-.48-.61a6.44,6.44,0,0,1-3.22-1l-1.21.87a19,19,0,0,1,6.49,2.24,1.6,1.6,0,0,0,1.37,0c.29-.14.61-.49.22-.72"/><path class="cls-9" d="M305.93,301.29c-3-.33-6.41-1.93-7.69-4.3-1.94-3.58.6-8.77,4.52-10.62.43-.2.24-.52-.16-.64a2.45,2.45,0,0,0-1.63.19c-3.43,1.61-5.92,5.84-5.7,9.06.21,3,2.9,5.33,6.41,6.5a17.25,17.25,0,0,0,3.29.74c.45,0,1.28,0,1.53-.35s-.15-.53-.57-.58"/><path class="cls-9" d="M337.41,303.23a.39.39,0,0,1,.43-.53,3.58,3.58,0,0,0,2.39-.56l.71,1a10.56,10.56,0,0,0-4.84,1.27.85.85,0,0,1-1-.23c-.18-.18-.35-.57,0-.74"/><path class="cls-9" d="M335.1,303.47a11.91,11.91,0,0,1,5.42-1.4,1,1,0,0,1,.77.43.41.41,0,0,1-.07.61"/><path class="cls-9" d="M343.6,304.16a6.15,6.15,0,0,0,5.52-3.17,8.79,8.79,0,0,0-1.52-9.78.35.35,0,0,1,.2-.61,1.14,1.14,0,0,1,1,.42,9.8,9.8,0,0,1,2.48,8.4,6.88,6.88,0,0,1-5,5.52,7.19,7.19,0,0,1-2.2.28c-.3,0-.82-.2-.93-.57s.17-.5.44-.49"/><path class="cls-10" d="M368.34,247.89c2.68-1.11,5.89.25,7.45,1.89a7.17,7.17,0,0,1,1.37,3.24,6.73,6.73,0,0,1-2.09,6,6.25,6.25,0,0,1-7.24.63c-3-1.73-3.71-5.59-2.69-8.27a6.17,6.17,0,0,1,3.2-3.44"/><path class="cls-10" d="M344.69,254.49s13.34-8.77,19.78-8.86c9.39-.13,20.44,6,23.34,10.93,0,0-14.53-9-21.15-8.74C360.33,248.09,344.69,254.49,344.69,254.49Z"/><path class="cls-10" d="M290.48,242.2c-2.45-1.55-6.61-1.53-8.42-.19a6.52,6.52,0,0,0-2.21,2.87,6.68,6.68,0,0,0,1.06,6.21,6.23,6.23,0,0,0,7,1.86c3.26-1.19,4.6-4.88,4.06-7.69-.1-.51.49-1.44-1.49-2.69"/><path class="cls-10" d="M306.1,250.45s-13.34-10.17-20.26-11c-10.1-1.16-22.69,3.74-26.39,8.29,0,0,16.69-7.37,23.78-6.36C290,242.38,306.1,250.45,306.1,250.45Z"/><path class="cls-11" d="M344.82,234.61l3.29,4.65,2.52,3.53c3.26-3.79,6.2-6.82,8.46-9,4.78-4.71,7.24-7.1,10.76-8.79a36.29,36.29,0,0,1,8.79-2.78,23.15,23.15,0,0,1,5.2-.66c4,.05,6.63,1.46,6.93,1s-1.71-1.9-1.92-2.05a22.22,22.22,0,0,0-11.21-3.89,26.17,26.17,0,0,0-9.67,1.79c-3.66,1.39-12.68,6.87-23.15,16.29"/><path class="cls-11" d="M316.1,228.94l-3.64,4.4-2.78,3.33c-3.3-4.29-6.28-7.76-8.58-10.33-4.87-5.42-7.37-8.17-11-10.32a41.67,41.67,0,0,0-9.16-3.92,25.41,25.41,0,0,0-5.45-1.3c-4.23-.43-7,.71-7.34.16s1.88-1.75,2.1-1.88a22.51,22.51,0,0,1,11.94-2.66,29.45,29.45,0,0,1,10.12,3c3.81,1.87,13.11,8.59,23.81,19.52"/><path class="cls-12" d="M204.79,266.49c-9.72-24.39-17-24.72-17-24.72s-5,5.48-2.85,16.75"/><path class="cls-12" d="M201,268.6c-6.51-.79-1.77,11.53-3.64,14.36s-4.09-4.85-4.69-14.08c0,0,.27-12.44,6.5-14.57"/><path class="cls-8" d="M369.82,194.28s-20,2.18-36.16,2.28-32-8.23-32-8.23,25.42,6.34,32.12,6.53S369.82,194.28,369.82,194.28Z"/><path class="cls-11" d="M380.89,147.87c-.2-.3.09.12,0,0-4-5.69-6.49-11.75-10.72-17.25s-8.2-10.29-12.64-15.44c-.26-.31-5.56-.48-5.82-.79l-.28-.31-.43-.48c-.33-.38-.66-.74-1-1.11-25.05-11.13-55.4-12.88-82.85-4.65a100.78,100.78,0,0,0-67.6,125.47c1.37,4.57-1.39,10.07,3.06,12.67s5,1.32,9.24-1.59a33.27,33.27,0,0,0,9.55-11.89c11.7-21.91,14.73-56.89,9.67-81.21,2.92,4.6,23.44,0,28,3a39,39,0,0,0,54.12-10.83,61.12,61.12,0,0,0,6.15,7.65c20.63,21.74,47.66,32.4,70.41,17.28C390.57,167.83,383.38,151.48,380.89,147.87Z"/><path class="cls-13" d="M253.16,236.23,255.4,245c1.18,6.8,5.27,20.39,7.3,24.17,2.86,5.28,38.21,9.77,45.47,6.21S320.8,251.84,323,247.27l14.14,1.82c.82,6.18,3.87,25.76,6.37,28.55s18.82,3.51,20.66,3.59c1.53,0,3.67.11,6,.09,6.19,0,13.73-.5,16.19-2.61,3.66-3.13,8.33-15.77,12.43-27.74l.66-1.87c.15-.46.32-.77.33-.9h0l.74-2.16c-19.73-11.22-46.68-11.55-63.84-.75l.12.23L323,243.68c-14.88-11.53-41.52-19.13-61.4-13h0l-60.78,5.68-.57,5.31Zm92.16,39.56c-1.57-1.74-4.11-15.49-5.73-26.16,14.89-9.1,39.17-8.77,56.89.22l0,.27c-2.2,6.42-8.05,23.49-11.64,26.57-4.26,3.63-36.73,1.87-39.5-.84ZM267,268.06a182.23,182.23,0,0,1-9.51-31.41c17.78-6.59,47.43-.05,62,10.91-3.06,8.31-7.23,22.93-12.44,25.46-7.49,3.68-38.26-1.62-40.05-5Z"/><path class="cls-14" d="M173.2,243.35s-50.52-36.63-31.26-76c3.7-7.55,4.1-5.07,4.32-11.6,1.14-34.21-10.83-26.06,39.29-66.07s57.49-39.33,134-33.63c39.46,3,61.06,19.44,71.84,44.44,4.84,11.23,7.5,24.19,8.61,38.41,0,0-80.62-23-128.63,2.89S173,252,183.2,279C186.07,286.61,173.2,243.35,173.2,243.35Z"/><path class="cls-6" d="M142.06,205.91s68.42-99.67,159.62-102.71c0,0-112.65-12.06-162.51,68.41l-.74,9.46a51.38,51.38,0,0,0,1.64,17.5Z"/><path class="cls-15" d="M468.34,941.06c.61,0,1.54-.17,1.81-.81s-.21-1-.8-1-1.53.17-1.81.81.22,1,.8,1Z"/><path class="cls-15" d="M423.25,527.66a70.52,70.52,0,0,0-4,10.55c-.93,3.22-1.91,6.85-1.11,10.21,1.36,5.72,3.75,11.28,5.77,16.79,3.4,9.25,6.76,18.52,9.82,27.89a335.17,335.17,0,0,1,9.14,32.78c2.3,10.51,4,21.3,3.89,32.09,0,1.2-.06,2.41-.12,3.61s2.72.84,2.78-.27c.59-10.44-.76-20.95-2.75-31.19a303.52,303.52,0,0,0-8.65-33c-3.07-9.72-6.47-19.33-10-28.9-2.29-6.25-4.8-12.48-6.69-18.88a19.06,19.06,0,0,1-.66-2.68,3.62,3.62,0,0,1-.06-.46c0-.21,0,.21,0,0s0-.65,0-1a28.41,28.41,0,0,1,.69-4.59,60.87,60.87,0,0,1,4.5-12.76c.63-1.34-2.15-1.2-2.62-.21Z"/><path class="cls-3" d="M202.39,740.23,158.73,577.11,133.88,405.57S38.59,436.1,38.61,517.27c0,49.84,29.48,167.57,40.76,207.8l-13.28,51s20.26,31.8,70.72,37.69c36,4.2,19.31-29.53,14.42-63.12Z"/><path class="cls-15" d="M80,728.44c5.59,19.57,14.43,38.42,28,53.73a103.53,103.53,0,0,0,38.33,27.07,125.8,125.8,0,0,0,38.85,8.69,157.25,157.25,0,0,0,30.9-1c3.21-.42,6.4-.92,9.58-1.54.9-.17,1.8-.36,2.7-.55l.79-.17.22,0,.09,0c-.58.11.05,0,.34,0,16.18-1.88,32-6.87,47.25-12.39,18.6-6.74,36.74-14.75,54.6-23.25,18.22-8.68,36.17-17.94,53.93-27.51,14.86-8,29.58-16.25,44.24-24.6,8.58-4.9,17.18-10,25.84-14.66.84-.45,1.69-.9,2.57-1.28.14-.07.66-.31.58-.56l-4.9-14.6c-.21-.65-2.95.16-2.76.74l4.9,14.6.58-.56c-2.39,1.05-4.67,2.42-6.94,3.7-4.3,2.4-8.57,4.86-12.84,7.3-13.14,7.52-26.31,15-39.58,22.31-17,9.38-34.24,18.5-51.66,27.16-17.95,8.94-36.15,17.44-54.76,24.92-16.11,6.47-32.64,12.45-49.69,15.9-4,.82-8.16,1.14-12.17,2-2.18.46-4.36.89-6.55,1.25a152.46,152.46,0,0,1-26.65,2.09,132.6,132.6,0,0,1-37.45-5.51,104.77,104.77,0,0,1-39.06-21.72c-14.1-12.53-24.28-28.8-31.16-46.25-2.06-5.23-3.83-10.56-5.38-16-.17-.62-2.93.13-2.76.74Z"/><path class="cls-16" d="M1072.17,964.88l5.42,38.83a338.33,338.33,0,0,1-.68,98.14l-39,205.51s7.86,126.07,12.83,197.42c4.34,61.85-8.16,148.71-8.16,148.71l-104.12-.85-55.51-333.27,10.27-231.75L858.06,970.48Z"/><path class="cls-16" d="M784.53,971.86l9.39,340.6a142.22,142.22,0,0,0,8.45,50.58l60.73,259.51,4.41,16.46,79.8,3.71L899.84,964.88Z"/><path class="cls-2" d="M967.16,396.2S953,485.52,960.7,505c1.88,4.72,65.46,29.07,65.46,29.07L876.32,583.11,808,546.76s58-25.1,59.34-31,3.15-45.08,3.15-45.08"/><path class="cls-17" d="M778.64,800.7c5.72,33.22,3.6,75.65,2.87,104-.46,17.63,3.32,47.32,0,64.68,7.1,5.95,10.92,8.9,22,11.66,19.92,5,35.76,6.93,56.58,9.52,0,0,132.32-.19,182.13-17.37,4.64-1.6,25.45.29,27.92-3.44,2.61-4-3.46-31.54-3.31-36.37.27-8.15-.21-16.68,0-24.83,1.42-60.73-5.29-143.85-10.1-182.31l16.89-9.51,38-20.86c-12.11-70.84-24-101.88-37.24-130.45-5.72-12.35-18.32-20.32-39.41-30.91-31.69-15.91-65.43-27.17-65.43-27.17-17.11,25.73-15.75,39.8-57.49,49.17-20,4.48-42.52-5.6-46-12.83-4.43-9.15-3.47-18.53-2.1-27.76l-21.26,10.83-37.68,18.85c-.12,0-39.53,7.14-53.3,72.24-11,52.08-36.63,145-36.63,145s-4.16.62,34,13.85"/><path class="cls-8" d="M868.43,502.56s16.82,2,23.36.3,17.69-1.09,48.22-26.53c0,0-4,18.26-47.34,34.85,0,0-18,4.75-24.44,3Z"/><path class="cls-18" d="M807.65,331.4h0c-2.91-11.17-4-18.07-.95-25.82,2.16-5.48,11.68-11.17,11.68-11.17s2.12-16.42,9.55-14.13c0,0,7.32-21.89,29-16.2,0,0,6.6-1.66,10.26,2.44,0,0,10.24-18.83,28.86-5.71,0,0,7.21-4.6,9.62,1.09,0,0,12.54-11.81,24.84-2.21,0,0,31.42-6.11,39.06,13.58,0,0,15.24-7.67,23.06,6.79,0,0,7.89.65,7.89,11.57,0,0,11.77,3.49,12.84,10.66,0,0,6.75,5.39,6.27,16.82-.14,3.27-1.23,2.39-2.3,6.82,6.45,13.05-3.46,14.59-3.46,14.59,10,12.13-2.69,27.15-2.69,27.15s5,9.41,2.22,15.4c-3.78,8.19-19.61,17.17-19.61,17.17s-3.73-22.09-2.82-36.09-10.45-38.42-14.22-43.71-30.93,4.17-72.49,4.17-49.9-7.43-54.85-6.11c-10.28,2.75-19,39.14-18.7,50.15s-3.12,31.77-3.12,31.77-22.07-9.43-16.12-27.91c0,0-7.25-13.33-4.41-21.36,0,0,.34-3.34,2.46-5C809.47,346.09,802,337.89,807.65,331.4Z"/><path class="cls-2" d="M946.2,471.13c-16.41,19.13-41.25,32.24-64.62,37.49-22.92,5.15-30.81-2.34-34.08-5.68-17.94-18.3-29.77-37-36.79-58.74-1.91-5.9-2.22-12.3-2-18.86.4-9.84,1.89-28.72,1.57-38.12-.83-23.92,1.39-45.66,14.17-66,26.63-42.42,92.06-42.85,116.55-31.78,28.64,12.94,42,40.09,44.29,69.21a79,79,0,0,1-2.25,26.67,84.92,84.92,0,0,0-10.2,14.63"/><path class="cls-19" d="M824.58,325.22s-1.87,1.77-13.73,31.14c2.86-9.32,4.22-23.27,11.82-36.36,26.54-45.71,112.78-41.26,137.31-29.27,28.66,14,39.74,43,42.12,74.42,1,12.75,1.66,20.89-1.93,31.55,4.92,12.31-5.41,12.07-5.41,12.07s-22.55-4.1-30.74,11.65l-.63-13.57s-6.72-16.84-12.33-46c0,0-.39-16-.26-20.87.4-14.86-12.86-11.5-22-9-5.71,1.58-18.1,2.72-24,2.71-15.12,0-34.27-1.94-41.35-1.75C853.44,332.26,824.58,325.22,824.58,325.22Z"/><path class="cls-20" d="M823.64,325.33a8.86,8.86,0,0,0-1.41,2.39c-2.19,4.3-4.07,8.76-6,13.19-2.21,5.2-4.35,10.42-6.47,15.65l2.07-.4c2.24-7.37,3.4-15,5.75-22.37a64.29,64.29,0,0,1,10.27-20.2c6.94-8.91,16.46-15.46,26.7-20a122,122,0,0,1,34.15-9.11,174.88,174.88,0,0,1,34.46-1,129.53,129.53,0,0,1,27.73,4.57,62.56,62.56,0,0,1,28.22,18.1c9.6,10.57,15.43,24,18.67,37.76a146.85,146.85,0,0,1,3.29,22.47c.62,8.14,1.33,16.39-.33,24.45-.21,1.06-.47,2.1-.75,3.13-.13.46-.26.91-.4,1.36a7.22,7.22,0,0,0-.51,1.62,13,13,0,0,0,.83,2.52,13.85,13.85,0,0,1,.44,2.38,6.06,6.06,0,0,1-2,5.57,4.77,4.77,0,0,1-1.6.79,9.75,9.75,0,0,1-1,.17h-.32c-.12,0,.26,0,.06,0l-.93-.14c-8.78-1.13-19,.09-26.14,5.72a21,21,0,0,0-5.49,6.66l2.08-.48-.33-7-.21-4.69a12.67,12.67,0,0,0-.09-1.85,22.78,22.78,0,0,0-1-2.82c-.91-2.55-1.75-5.13-2.55-7.72-3-9.64-5.44-19.45-7.51-29.33a47.51,47.51,0,0,1-1.24-6.44c-.07-1.08-.05-2.17-.07-3.26-.08-3.79-.15-7.59-.19-11.38-.06-6.13,1.16-14.75-6.42-16.77-6.76-1.8-13.83,1.53-20.41,2.69a137.12,137.12,0,0,1-29.54,1.56c-9.87-.39-19.75-1.42-29.64-1.52a76.77,76.77,0,0,1-9-.51c-3.92-.51-7.82-1.2-11.71-1.94-6.24-1.2-12.46-2.56-18.65-4l-1.06-.26a2.57,2.57,0,0,0-1.46.29c-.17.09-.73.37-.28.48,4.6,1.12,9.22,2.14,13.86,3.1,7.39,1.55,14.92,3.15,22.48,3.6,3.11.19,6.24.07,9.36.22,5,.24,10,.58,15,.87,10.26.59,20.49,1.08,30.74.08a88.67,88.67,0,0,0,13.27-2.06,61.25,61.25,0,0,1,10.18-2.15c3-.25,6.48.08,8.71,2.39,2.58,2.66,2.5,6.58,2.47,10,0,3.71,0,7.41.11,11.12,0,2.7,0,5.46.17,8.16a54.13,54.13,0,0,0,1.37,7c.62,2.93,1.28,5.86,2,8.77q1.73,7.26,3.77,14.43c1.48,5.15,3.06,10.3,5,15.31a8.45,8.45,0,0,1,.36,2.71l.44,9.52.09,2c0,.39,1.92-.18,2.08-.48,5.2-9.81,16.51-12.35,26.78-11.34a13.11,13.11,0,0,0,5-.1,8.3,8.3,0,0,0,4.23-2.31c1.51-1.68,1.65-4,1.28-6.18a18.13,18.13,0,0,0-.62-2.41,4.22,4.22,0,0,1-.42-1.77,12.48,12.48,0,0,1,.55-1.77,50.17,50.17,0,0,0,1.29-5.55,59.76,59.76,0,0,0,.72-11.73,187.43,187.43,0,0,0-2.23-24.91c-2.32-14.36-7-28.64-15.53-40.55-7.29-10.12-17.6-18.69-29.4-23-8.37-3-17.35-4.51-26.18-5.41A179.55,179.55,0,0,0,896.4,283,142.71,142.71,0,0,0,861,290.36c-10.72,3.83-21.05,9.32-29.33,17.23A57.49,57.49,0,0,0,821.17,321c-4.4,7.86-6.79,16.52-8.79,25.24-.79,3.45-1.54,6.92-2.57,10.3-.1.33,1.88.07,2.07-.4,3.14-7.78,6.31-15.55,9.76-23.21a69.47,69.47,0,0,1,3.59-7.36c.07-.11.49-.66.29-.47.33-.32-.3-.28-.47-.27A2.47,2.47,0,0,0,823.64,325.33Z"/><path class="cls-2" d="M960.35,448.41c12.36,12.22,25-7.75,25-7.75,11.42-14.34,11.08-29.35,10.43-39.6s-11.94-9.85-11.94-9.85c-9.56,1.26-8.19,2.36-20.58,29.92"/><path class="cls-21" d="M973.62,420.76a82.93,82.93,0,0,1,5.91-13.28,27.62,27.62,0,0,1,4.69-6.35,10.86,10.86,0,0,1,1.56-1.24,4.62,4.62,0,0,1,.87-.43c-.2.09.17.05-.11,0,.33,0-.47-.3-.52-.07a9.47,9.47,0,0,0,1,1.44c2.23,3.8,2.49,8.44,1.84,12.7-.08.52,1.51.24,1.58-.23.64-4.19.44-8.69-1.61-12.49a6.12,6.12,0,0,0-1.3-1.94,1.19,1.19,0,0,0-1-.11c-3.29.78-5.75,4.38-7.42,7A75.37,75.37,0,0,0,972,421c-.16.43,1.4.24,1.58-.24Z"/><path class="cls-21" d="M972.24,426.3c6.1.25-2,13.39,2.3,13.29a3.22,3.22,0,0,0,2.58-1.85,26.42,26.42,0,0,0,2.44-6.33,25.31,25.31,0,0,0,1.18-8.17c-.11-3.34-.72-7.77-4-9.53-.4-.21-1.7.44-1.49.55,2.74,1.46,3.52,4.89,3.8,7.74a20,20,0,0,1-.19,6.23,50.16,50.16,0,0,1-2.07,7.13,20,20,0,0,1-1.12,2.45,7.48,7.48,0,0,1-.48.76,3.4,3.4,0,0,0-.29.33,1,1,0,0,1-.22.19l.66-.19a8.13,8.13,0,0,1-.54-1.13,6.72,6.72,0,0,1,.11-1.79c.23-1.44.62-2.85.9-4.28.49-2.5.88-5.92-2.54-6.06-.35,0-1.81.63-1,.66Z"/><path class="cls-19" d="M898.32,394.35c2.8-1.37,6-.06,7.79,1.58a7,7,0,0,1,2,3.33,7.25,7.25,0,0,1-1.85,6.53,6.71,6.71,0,0,1-7.73,1.17c-3.35-1.65-4.36-5.75-3.45-8.69a6.59,6.59,0,0,1,3.2-3.92"/><path class="cls-19" d="M883.38,405.82s10-14.16,20.34-13.93c14.53.31,17.77,8.84,20.83,13.31,0,0-9.21-10.53-20.45-10.5C893.91,394.73,883.38,405.82,883.38,405.82Z"/><path class="cls-19" d="M827,392.76c-2.56-1.49-5.61-.32-7.33,1.24a7.05,7.05,0,0,0-2,3.23,7.63,7.63,0,0,0,1.46,6.61,6,6,0,0,0,7.16,1.51c3.19-1.5,4.3-5.55,3.57-8.53a6.58,6.58,0,0,0-2.82-4.06"/><path class="cls-19" d="M845,405s-8.09-14.56-17-14.77c-12.56-.3-15.69,8.09-18.51,12.41,0,0,8.36-10.12,18.07-9.62C836.38,393.49,845,405,845,405Z"/><path class="cls-9" d="M855,441.46a10.37,10.37,0,0,0,9.52-.5c.6-.37,2.61,0,1.76.53-3.61,2.19-9.5,2.34-13,.47-.34-.18-.28-.45.15-.59a2.33,2.33,0,0,1,1.53.09"/><path class="cls-9" d="M867.47,440.73a16.89,16.89,0,0,1,5.88-1.41,1.38,1.38,0,0,1,.9.3c.17.15.2.36,0,.48a6.38,6.38,0,0,1-3.23.71,1.23,1.23,0,0,1-1-.4c-.18-.27.16-.45.43-.44a5.17,5.17,0,0,0,2.6-.58l.88.78a14.92,14.92,0,0,0-5.25,1.27,1.25,1.25,0,0,1-1.08-.13c-.21-.13-.44-.43-.12-.58"/><path class="cls-9" d="M875.51,441.07c2.38,0,5.17-1,6.35-2.82,1.78-2.68.17-7.24-2.77-9-.32-.19-.15-.43.18-.5a1.9,1.9,0,0,1,1.26.28,8.76,8.76,0,0,1,3.81,7.85c-.39,2.36-2.67,4-5.51,4.65a12.71,12.71,0,0,1-2.63.33c-.36,0-1-.11-1.18-.39s.16-.41.49-.41"/><path class="cls-9" d="M850.69,440.21a.31.31,0,0,0-.3-.45,2.76,2.76,0,0,1-1.83-.63l-.63.77a8.23,8.23,0,0,1,3.7,1.37.66.66,0,0,0,.76-.12c.15-.12.32-.42.09-.58"/><path class="cls-9" d="M852.48,440.57a9.22,9.22,0,0,0-4.14-1.51.8.8,0,0,0-.64.28.34.34,0,0,0,0,.49"/><path class="cls-9" d="M845.76,440.48a4.84,4.84,0,0,1-4.08-2.92,7,7,0,0,1,1.91-7.62.28.28,0,0,0-.11-.5.91.91,0,0,0-.83.26,7.78,7.78,0,0,0-2.56,6.45,5.46,5.46,0,0,0,3.51,4.74,5.66,5.66,0,0,0,1.71.39.85.85,0,0,0,.77-.38c.12-.28-.1-.41-.32-.42"/><path class="cls-19" d="M882.21,380.62c1,2.08,2,4.16,3,6.25.78,1.58,1.55,3.17,2.33,4.75,4-3.61,7.6-6.41,10.35-8.45,5.44-4,11.33-7.77,17.88-9.69a21.66,21.66,0,0,1,9.26-.92c1,.14,4.13,1.33,5,.21.36-.45-1.65-2.64-1.85-2.87-4.07-4.4-9.2-4.56-14.79-3.37C902,369,891.89,374.2,882.21,380.62"/><path class="cls-19" d="M810.27,366.1c1.07-1-.3-.52.5-1.8,1.17.1,5.56.28,6.79.54,11.24,2.38,21.18,7.57,30.69,13.94-1,2.08-2,4.15-3.06,6.24q-1.16,2.37-2.34,4.74c-3.94-3.58-7.44-6.36-10.13-8.38-5.34-4-11.13-7.71-17.57-9.6a24,24,0,0,0-5.49-1Z"/><path class="cls-2" d="M634,589l-7.38-8.8c3-9.44-10.09-41.65-18.65-54.79s-23.44-9.48-12.93,10.18c0,0-17.13-13.06-23.52-18s-1.13-19.71-11.42-15.15c-6.65,2.95-22.36-.69-18.73,3.32.79.87,2.25,2.54,4.05,4.6,2.46-3,8.77-2.06,9.1,3a34.45,34.45,0,0,1-.35,7.09c4.57,5.29,8.54,9.92,8.54,9.92s-4-3.67-8.9-7.94a39.66,39.66,0,0,1-7,15.56,40.41,40.41,0,0,1-8.5,8.76,58.09,58.09,0,0,0,5.54,2.5l-1,4.26c-.45-.28-1.66-.61-4.55-1-6.7-.82-10,7.28-5.31,12.21,5.92,6.16,7.66,4.49,16.31,11.46,6.94,5.58,14,25.71,41.28,28.84l9.71,11.76s8.56-.52,21.83-8.85S634,589,634,589Z"/><path class="cls-22" d="M534.94,739.73a.8.8,0,0,1-.21.15l-.21-.58Z"/><path class="cls-17" d="M808,799.9c13.26-11.81-49.14-42-49-59.58.09-17-11.8-15.15-18.24-30.39l-9-10.94-96-117.92L622,596.17a52.59,52.59,0,0,1-13.35,10.53l-18,10s57.07,111.37,73.49,136.25c12.35,18.72,46.17,59.39,67.71,65.6C758.43,832.44,788.66,817.15,808,799.9Z"/><path class="cls-23" d="M782.55,817.45c0-11.81-.13-23.61-.31-35.42q-.3-20.44-.75-40.87-.43-21.31-.9-42.62-.44-20.65-.78-41.3c-.2-12.1-.35-24.19-.38-36.29,0-1.33,0-2.65,0-4s-2.59-.84-2.59.23c0,11.81.14,23.62.31,35.43q.32,20.43.75,40.87.45,21.3.91,42.62.42,20.65.78,41.3c.19,12.09.35,24.19.38,36.29,0,1.32,0,2.65,0,4s2.58.84,2.58-.23Z"/><path class="cls-23" d="M730.6,699.55a103.14,103.14,0,0,1,4.82,10.81c2.82,7.24,5.13,14.89,5.68,22.68a28.44,28.44,0,0,1-1.55,12.48c-.53,1.33,2,1.26,2.44.25,2.94-7.38,1.87-15.83,0-23.35a107.9,107.9,0,0,0-7.14-20c-.62-1.33-1.25-2.67-1.94-4-.51-1-3,0-2.36,1.11Z"/><rect class="cls-24" x="505.07" y="468.15" width="83.49" height="157.3" rx="16.48" transform="translate(77.4 -67.73) rotate(7.63)"/><path class="cls-2" d="M622.32,584.44c4.51-8.81-2.94-42.76-9.15-57.15S581.63,511.17,578,511.66s-13.08,7.57,17.14,19.94l.45,4.7s-7.35,16.37-7.83,27.05.73,15.4,1.1,19l34.59,6.93"/><path class="cls-25" d="M592.58,535.81a53,53,0,0,0-3.22,29.92,51.27,51.27,0,0,0,2.3,8.43c.29.78,2.21.23,1.93-.52a52.23,52.23,0,0,1-1.81-29.55,50.94,50.94,0,0,1,2.63-8.15c.4-.94-1.54-.82-1.83-.13Z"/><path d="M326,321.59c-10.58-.65-34.32,4.33-39.27,8.12,0,0,11.65,13.53,36.18,15.05s29-11,29-11S339.51,322.42,326,321.59Z"/><path class="cls-26" d="M297,325.8s12.65-.23,22.69.39,22.55,2.41,22.55,2.41,2.08-7.37-16.12-8.49S297,325.8,297,325.8Z"/><path class="cls-27" d="M323.61,342.13c-11.38-2.33-23.4-12.42-36.84-12.42,0,0,3.35,20.66,32.18,22.43s33-18.41,33-18.41C338.62,332.08,335.2,341.21,323.61,342.13Z"/><path class="cls-27" d="M338.93,316.67c-6-.82-10,1.23-12.65,1.07s-6.33-2.69-12.42-2.62c-5.7.07-30.55,12.4-28,14.35s21.81-7,40-5.91,24.14,11.67,26.94,10S344.57,317.44,338.93,316.67Z"/><path d="M861.23,456.7c8.48,0,27.2,5.21,31,8.49,0,0-10,10.22-29.68,10.18s-22.63-10.28-22.63-10.28S850.42,456.68,861.23,456.7Z"/><path class="cls-26" d="M884.21,461.54s-10.1-.83-18.16-.84-18.14.77-18.14.77-1.29-6,13.32-6S884.21,461.54,884.21,461.54Z"/><path class="cls-27" d="M862.12,473.24c9.22-1.29,19.34-8.74,30.08-8.05,0,0-3.73,16.33-26.86,16.28s-25.45-16.38-25.45-16.38C850.64,464.44,852.91,471.91,862.12,473.24Z"/><path class="cls-27" d="M851.18,452.11c4.86-.35,7.94,1.49,10.05,1.5s5.2-1.83,10.06-1.46c4.55.34,23.78,11.46,21.63,12.89s-17.07-6.73-31.7-6.76-19.88,8.1-22,6.66S846.63,452.44,851.18,452.11Z"/><path class="cls-8" d="M870.85,375.71s-8.37,6.35-4.87,15.91a6.85,6.85,0,0,0,4.87,3.47S865.91,388.78,870.85,375.71Z"/><path class="cls-2" d="M428.64,652.45l12.16,18.94,11.4,24.72s34.15-11,42.69-16.89,30.28-17.36,30.28-17.36a13.78,13.78,0,0,0,4,8.49,13.55,13.55,0,0,0,10.14,3.3l1.7-19.38c6.19,5.19,9.43-3,9.43-3l0-16.26c7.38,6.77,11.83-3.74,11.83-3.74l-5.59-19.71a31.43,31.43,0,0,0,11.92,2.73c5.1-.29,2.66-8,2.66-8l-30.19-19.07-48,10-57.64,52Z"/><path class="cls-8" d="M514.34,599.19a71.68,71.68,0,0,1,9.33-1.4c3.51-.32,7.39-.7,11.51-.69a53.39,53.39,0,0,1,11.56,1.06,7.24,7.24,0,0,1,4.69,2.9,32.66,32.66,0,0,1,2.3,3.81,20,20,0,0,1,3.28,8c-.27.1-1.65-2.69-4.54-7.11-.72-1.1-1.53-2.38-2.4-3.51a5.54,5.54,0,0,0-3.7-2,62.4,62.4,0,0,0-11.17-.86c-4,0-7.76.32-11.29.56s-6.65.42-9.19.86a25.46,25.46,0,0,0-7.71,3A11,11,0,0,1,514.34,599.19Z"/><path class="cls-8" d="M515.63,618.37c5-.7,11.7-2.4,19.46-3a13.75,13.75,0,0,1,6,.43,18.81,18.81,0,0,1,4.26,3.59,18.47,18.47,0,0,1,4.94,7.71,36,36,0,0,1,.67,6,15.2,15.2,0,0,1,0,2.21,7.83,7.83,0,0,1-.8-2.08,38.38,38.38,0,0,0-1.3-5.7,18.2,18.2,0,0,0-5-6.95,19,19,0,0,0-3.68-3,13.11,13.11,0,0,0-5-.2c-7.51.62-14.39,2.06-19.45,2.36a20.87,20.87,0,0,1-8.22-.3A60.73,60.73,0,0,1,515.63,618.37Z"/><path class="cls-8" d="M540.21,648.73a10,10,0,0,0-1.83-5.59,7.23,7.23,0,0,0-6.15-2.64,23,23,0,0,0-7.35,1.71l-6.19,2.1c-1.57.51-3.07.87-4,1.21a7.38,7.38,0,0,0-1.3.76c-.17,0-.09-.81.89-1.49a27.78,27.78,0,0,1,4-2l6-2.52a21.78,21.78,0,0,1,8.08-2,9.08,9.08,0,0,1,7.81,3.64,11.1,11.1,0,0,1,1.73,6.73c-.32,3.89-1.28,5.89-1.47,6C540.1,654.57,540.53,652.23,540.21,648.73Z"/><path class="cls-15" d="M428.9,652q-9.75,1.75-19.52,3.44-23.82,4.15-47.66,8.11c-19.77,3.27-39.56,6.45-59.38,9.42-18.17,2.73-36.36,5.34-54.62,7.39-6.79.76-13.6,1.46-20.42,1.88a75.35,75.35,0,0,1-12.73.12,15.18,15.18,0,0,1-1.77-.29c-.19,0-.56-.15-.56-.15s0,.11-.05-.08a13.51,13.51,0,0,1-.79-3.17q-2.13-8.57-4.2-17.14-7.35-30.39-14.18-60.89c-4.77-21.44-9.43-43-13-64.64-1.71-10.48-2.48-21.12-4.52-31.54A126.17,126.17,0,0,0,163,468.23c-6.17-11.33-14.85-22.52-26.18-29.11a16.26,16.26,0,0,0-1.59-.86,2.59,2.59,0,0,0-1.77.18c-.11,0-1.25.55-.84.74a35.17,35.17,0,0,1,6.35,4.07,73,73,0,0,1,14.21,14.63,105,105,0,0,1,14.77,28.84,143.86,143.86,0,0,1,5.3,20.73c1.09,6,1.65,12.12,2.44,18.2,1.19,9.11,2.8,18.16,4.51,27.19,2.1,11.12,4.4,22.21,6.78,33.29q3.69,17.16,7.64,34.28,3.54,15.44,7.22,30.83,2.69,11.19,5.42,22.36l1.59,6.47a8.57,8.57,0,0,0,.65,2.59c.51.66,2.47.67,3.24.75a54.46,54.46,0,0,0,5.71.18c5.78-.08,11.56-.56,17.32-1.09,7.8-.73,15.59-1.65,23.37-2.63,9.28-1.17,18.55-2.45,27.81-3.78q15-2.16,30-4.49t29.95-4.77q14.1-2.3,28.18-4.66,12-2,24-4.1,9.06-1.56,18.12-3.16l10-1.76,1.27-.23c.3,0,1.61-.31,1.63-.73s-.83-.27-1.1-.22Z"/><path class="cls-15" d="M207.85,681.6c-7-.32-13.54,3.48-18.76,7.81a53.76,53.76,0,0,0-14.27,18.17,26,26,0,0,0-2.75,10.59c0,1.49,2.79,1.12,2.8-.19,0-6.39,3.46-12.58,7.13-17.61,4.11-5.64,9.34-10.85,15.55-14.13a18.76,18.76,0,0,1,9.37-2.55,1.78,1.78,0,0,0,1.79-.86.91.91,0,0,0-.86-1.23Z"/><path class="cls-2" d="M1197.71,531c1.24-7.63-.75-26.29,3-27.07s8,.46,10.32,6.31-1.83,21.5,4,25.46c4.19,2.87,7.44-1.69,7.44-1.69s18-25.37,23-35.1,14.1-20.82,16.79-18.51,3.24,5.07-.94,13.11-14.66,24-13.41,25.67,3.89-.27,6.38-4.93,17.89-29.55,21-29.62a5.06,5.06,0,0,1,4.83,6.49h0a18.79,18.79,0,0,1-3.51,7.21c-6.41,8.12-17.5,23.6-20.65,30.16a.45.45,0,0,0,.74.5c2.46-2.59,9.82-12.62,15.28-20.25l5.51-9c1.37-2.23,4.33-3.08,6.21-1.52a3.07,3.07,0,0,1,1.11,1.95c.6,3.68-3.54,8.66-3.54,8.66l-20.43,31.31s.58,2.56,2.16,2.43,16-26.75,18.32-25.54,4.59-.06,2,7.41-16.66,26.48-20.28,32.72c-3.71,6.42-14.27,18.54-19.56,26.08a16.15,16.15,0,0,1-13.39,7l-16.67-.36c-.8,0-16.15-5.9-18.14-22.58S1196.46,538.65,1197.71,531Z"/><polygon class="cls-2" points="1231.68 589.38 1226.15 602.8 1189.12 588.53 1198.46 570.68 1231.68 589.38"/><path class="cls-28" d="M1227.39,545.33c3.71,1.29,6,4.7,7.44,8.22a34,34,0,0,1,2.22,13.39c0,.88,1.75.6,1.77-.15a34.08,34.08,0,0,0-2.48-14.33c-1.56-3.64-4.07-6.93-7.92-8.27-.71-.25-2.07.77-1,1.14Z"/><path class="cls-17" d="M1082,767.28a101.8,101.8,0,0,1,9.34-44.46c5.57-12.41,11.82-24.39,16-37.37l79.37-110.29,43,28.93s-54.2,175.74-90,206.12c-9,7.66-18.92,15-40.45,6.92C1091.21,804.24,1082.23,783.33,1082,767.28Z"/><path class="cls-17" d="M997.73,519s64.5,14.44,83.92,59.45c8.91,20.66,45.74,108.17,50.26,125.7-7.25,11.39-10.86,23.34-17.6,35.09-7.49,13.06-2.81,22.95-4.77,37.78-1.67,12.72-1.15,29.81,2.07,41.51-14.76,3.44-39.42-17.46-49.35-35-13.33-23.33-43.89-82.27-61.72-134.32-1.74-4.84-5.31-23.17-7.64-41.15C987.55,589.15,989.83,527.31,997.73,519Z"/><path class="cls-23" d="M1039.16,564.88c-2.13-.84-4.89-.19-6.9.63-6.33,2.57-10.56,9.09-13.59,14.87a108.81,108.81,0,0,0-7.44,18.93,78.68,78.68,0,0,0-3.08,14,113.51,113.51,0,0,0,.66,27.19,231.91,231.91,0,0,0,6.25,30.54c2.83,10.57,6.19,21,9.88,31.3q5.34,14.9,11.52,29.48,5.32,12.66,11.14,25.09,4.28,9.12,8.78,18.11c1.46,2.91,2.83,5.94,4.5,8.73.07.12.13.25.2.38.48.89,3,0,2.36-1.08-1-1.93-2-3.73-2.94-5.64q-4-7.77-7.72-15.65-5.46-11.43-10.51-23-6-13.85-11.41-28c-3.82-10.08-7.35-20.27-10.45-30.6a282.68,282.68,0,0,1-7.5-30.5,145.07,145.07,0,0,1-2.69-28.12,80.66,80.66,0,0,1,1.06-12.32,98.9,98.9,0,0,1,4.87-17.18,79.16,79.16,0,0,1,7.29-15.5,29.33,29.33,0,0,1,6.66-7.76,13,13,0,0,1,2.71-1.67l.63-.27a1.55,1.55,0,0,1,.41-.15,11.43,11.43,0,0,1,1.15-.3h0l.23,0,.54-.06.39,0a1.67,1.67,0,1,0,.18,0l.68.06c.45,0-.17-.06.23,0a2.64,2.64,0,0,1,.4.12c1,.38,3-1,1.51-1.6Z"/><path class="cls-23" d="M1118.7,668.92a53.09,53.09,0,0,1-3.12,5.15c-1.83,2.92-3.57,5.9-5.15,9a73.3,73.3,0,0,0-8.22,26.53,57.3,57.3,0,0,0,1.25,18.37c.19.84,2.76.19,2.56-.69a59.44,59.44,0,0,1,1.46-31.3,94,94,0,0,1,10.15-21.33,61.38,61.38,0,0,0,3.63-6c.24-.52-.86-.53-1.1-.51a1.84,1.84,0,0,0-1.46.85Z"/><path class="cls-15" d="M440.25,719.79c2,8.84,3.88,17.7,5.72,26.57,3.73,18,7.22,36.13,10.09,54.32,1.34,8.53,2.56,17.09,3.36,25.68.77,8.15,1.23,16.33,1.73,24.5,1.13,18.74,2,37.49,2.86,56.25q.48,10.95.93,21.89c.15,3.66.1,7.4.44,11,0,.16,0,.33,0,.49,0,.83,2.93.28,2.89-.78q-.51-13.71-1.12-27.42c-.8-18.53-1.67-37.05-2.73-55.56-1-16.82-2-33.58-4.48-50.26-2.7-18.46-6.19-36.81-9.9-55.1q-2.16-10.63-4.45-21.24c-.77-3.56-1.43-7.17-2.36-10.69,0-.16-.07-.32-.1-.47-.21-.92-3.12-.19-2.9.77Z"/></g></svg>