<svg xmlns="http://www.w3.org/2000/svg" viewBox="0 0 1303.15 1057.31"><defs><style>.cls-1{fill:#f2ebd1;}.cls-2{fill:#c7e4e3;}.cls-3{fill:#bb997a;}.cls-4{fill:#a66e53;}.cls-5{fill:#59341c;}.cls-6{fill:#231f20;}.cls-7{fill:#eb9944;}.cls-8{fill:#010101;}.cls-9{fill:#3a3a3a;}.cls-10{fill:#1d1e1e;}.cls-11{fill:#a38166;}.cls-12{fill:#87654d;}.cls-13{fill:#5f6161;}.cls-14{fill:#343535;}.cls-15,.cls-28{fill:none;}.cls-15{stroke:#a38166;stroke-width:1.13px;}.cls-15,.cls-28,.cls-29,.cls-31{stroke-miterlimit:10;}.cls-16{fill:#513835;}.cls-17{fill:#653c29;}.cls-18{fill:#82a8b3;}.cls-19{fill:#252525;}.cls-20{fill:#030303;}.cls-21{fill:#fff;}.cls-22{fill:#274d54;}.cls-23{fill:#3c803d;}.cls-24,.cls-29,.cls-31{fill:#151210;}.cls-25{fill:#161311;}.cls-26{fill:#ad7b98;}.cls-27{fill:#4f2e25;}.cls-28{stroke:#131429;stroke-width:0.78px;}.cls-29,.cls-31{stroke:#161311;}.cls-29{stroke-width:0.34px;}.cls-30{fill:#131429;}.cls-31{stroke-width:0.33px;}.cls-32{fill:#15133f;}.cls-33{fill:#1b120c;}.cls-34{fill:#24180f;}.cls-35{fill:#290c39;}</style></defs><g id="Layer_11" data-name="Layer 11"><polyline class="cls-1" points="1311.69 1079.97 1311.69 -42.84 -15.13 -42.84 -15.13 1079.97"/><rect class="cls-2" x="829.57" y="56.65" width="396.73" height="940.93"/><rect class="cls-3" x="820.12" y="50.43" width="22.28" height="948.59"/><rect class="cls-3" x="820.12" y="44.68" width="441.47" height="23.48"/><polyline class="cls-3" points="-81.5 1089.85 1321.84 1089.85 1321.84 997.72 -81.5 997.72"/><polygon class="cls-4" points="233.08 970.76 273.48 954.32 275.75 934.41 231.29 929.36 233.08 970.76"/><path class="cls-5" d="M348.11,987.44s1.24-8-5.68-10.65-22.48-6.94-34.07-12.38c-16.09-7.55-25.84-19.41-32.86-19.7s-5.32,11.35-20.83,12.27-27.27-6.84-28-7.07c-3.42,2.21-8.83,26.53-4.45,32.41s42,7.27,42,7.27l30.3,5,30.14.09Z"/><path class="cls-6" d="M251.14,988.68c0-4.77-.71-11.18-5.49-13.6a36.42,36.42,0,0,0-5.33-1.83c-1.69-.54-3.39-1.06-5.07-1.66-2.85-1-5.85-2.25-7.91-4.57-2.79-3.14-3.07-7.37-2.59-11.36.06-.57-1-.45-1.09.07-.4,3.37-.31,6.85,1.37,9.89a13.13,13.13,0,0,0,5.9,5.2,68.6,68.6,0,0,0,9.57,3.44c1.76.56,3.78,1,5.3,2a8.46,8.46,0,0,1,2.67,3.37,21.27,21.27,0,0,1,1.58,9.06c0,.59,1.09.45,1.09-.06Z"/><path class="cls-6" d="M224.85,952a40.87,40.87,0,0,0,17,7,49.35,49.35,0,0,0,11.46.13,61,61,0,0,0,8.91-1.31c5.23-1.23,10.37-4.41,15.87-3.89,3.76.37,7.31,2.21,10.55,4,3.72,2.1,7.29,4.45,10.95,6.63,2.06,1.22,4.13,2.4,6.26,3.49a2.49,2.49,0,0,0,1.94.39c2.34-.44,2.75-2.48,2.25-4.56-.1-.37-1.17-.09-1.07.29.25,1.06.4,4.26-1.64,3.73a12.45,12.45,0,0,1-2.29-1.24c-1-.51-1.89-1-2.83-1.58-1.68-1-3.33-2-5-3-3.37-2.08-6.7-4.24-10.23-6a23.8,23.8,0,0,0-8.67-2.8c-5.1-.42-9.78,2.17-14.55,3.53a46.43,46.43,0,0,1-7.49,1.41,57.88,57.88,0,0,1-11.54.42c-7-.57-13.28-3.32-19.05-7.21-.29-.19-1.28.23-.85.52Z"/><path class="cls-6" d="M274.27,991l-3.52-.59-2.18-.36c-.09,0-.47,0-.53-.09.07.09.77-.66,1-.87a25.71,25.71,0,0,1,15.48-6.92c6.32-.64,12.7-.73,19-1.31,4.87-.44,9.93-.89,14.59-2.47a9.84,9.84,0,0,0,4.26-2.41c1.68-1.88.63-4.53-.48-6.43-.16-.28-1.17.11-1.07.28.94,1.62,2,3.92.94,5.73a6.2,6.2,0,0,1-3.15,2.23c-3.79,1.51-8.07,1.94-12.1,2.37-5,.53-10.1.82-15.15,1.13-4.47.27-8.91.43-13.21,1.83A26.08,26.08,0,0,0,267,990.16c-.07.07-.07.16,0,.18l6.31,1c.26,0,1.19-.38.87-.43Z"/><path class="cls-7" d="M269.87,990.38l.14.16-.26,0Z"/><path class="cls-6" d="M269.37,990.61l.15.16.68-.6-.22,0h0l.26.51.11-.12a.25.25,0,0,0,.08-.14.17.17,0,0,0,0-.14.2.2,0,0,0-.08-.12.29.29,0,0,0-.14-.08l-.12,0a.72.72,0,0,0-.29,0l-.13.05a.48.48,0,0,0-.22.15,1.14,1.14,0,0,1-.11.11.5.5,0,0,0-.1.19.17.17,0,0,0,0,.14.18.18,0,0,0,.1.11.45.45,0,0,0,.22.08l.23,0H270l.14,0,.14,0a.45.45,0,0,0,.17-.11.24.24,0,0,0,.08-.09.13.13,0,0,0,0-.09.12.12,0,0,0,0-.1.17.17,0,0,0-.05-.13l-.14-.16a.38.38,0,0,0-.13-.09.34.34,0,0,0-.17,0,.74.74,0,0,0-.21,0,.48.48,0,0,0-.21.07l-.12.07a.44.44,0,0,0-.16.17l0,.1A.23.23,0,0,0,269.37,990.61Z"/><path class="cls-7" d="M259.22,987.17l1.24,0a18.06,18.06,0,0,0,.24,2.3l-1.27-.07A16.55,16.55,0,0,1,259.22,987.17Z"/><path class="cls-6" d="M259.16,987.5l1.23,0-.47-.18a16,16,0,0,0,.25,2.29l.73-.48-1.27-.07.33.19a19.91,19.91,0,0,1-.21-2.17c0-.09-.15-.16-.21-.18a.78.78,0,0,0-.4,0c-.22.06-.47.19-.46.44a19.85,19.85,0,0,0,.21,2.18c0,.14.23.18.34.19l1.27.07c.25,0,.8-.13.74-.47A16.18,16.18,0,0,1,261,987c0-.08-.1-.13-.16-.15a.8.8,0,0,0-.31,0l-1.24.05c-.21,0-.56.15-.6.39S259,987.51,259.16,987.5Z"/><path class="cls-7" d="M253.62,986c.06,1,.09,2,.08,3h-.18l-1.06-.09c0-1,0-1.89-.08-2.8Z"/><path class="cls-6" d="M253.07,986c.07,1,.1,2,.09,3l.59-.44h-.13l-.19,0-.79-.06.36.35c0-.93,0-1.87-.08-2.8l-.59.44,1.24-.1c.24,0,.56-.17.59-.43s-.28-.38-.5-.36l-1.24.09c-.2,0-.61.17-.59.44.07.93.09,1.87.08,2.8a.38.38,0,0,0,.36.36c.46,0,.92.08,1.39.09.21,0,.58-.19.58-.44,0-1,0-2-.08-3a.41.41,0,0,0-.5-.36C253.47,985.59,253.05,985.74,253.07,986Z"/><path class="cls-8" d="M218.69,982.68l1.19.09.21-1.12c4.64.39,20.64,1.76,30.43,3.13,3,.42,6.75,1.17,11.11,2,10.12,2,24,4.77,38.59,5.38,2.62.12,5.21.16,7.7.12a179.58,179.58,0,0,0,41.54-5.54l.18,1.13.86-.24s.38,1.54.71,2.94h0l.09.36.31,1.3c-10.05,6.21-54.3,7.75-64.36,5.24l-2-.48-.93-.21-1.44-.32c-10.79-2.31-26.79-4.85-26.79-4.85s.12,1.57.15,3.42h0v.06c0,.79,0,1.62,0,2.4A263.72,263.72,0,0,1,218,995.35Z"/><path class="cls-6" d="M218.49,983l1.18.1c.21,0,.69-.11.74-.37l.21-1.13-.74.37c7.21.6,14.43,1.26,21.62,2.06,4.05.44,8.11.9,12.12,1.62,4.68.83,9.33,1.82,14,2.72a228.61,228.61,0,0,0,30.95,4.09A165.7,165.7,0,0,0,330,990.89a160.89,160.89,0,0,0,19.58-3.84l-.61-.12.19,1.13c0,.22.48.15.6.12l.86-.24-.6-.12c.24,1,.47,1.95.71,2.93.06.26.6.14.74.07h0l-.74-.07c.13.55.26,1.11.4,1.66l.2-.3a22.33,22.33,0,0,1-6,2.28,84.52,84.52,0,0,1-8.8,1.75,204.61,204.61,0,0,1-21.56,2c-6.47.29-13,.39-19.46,0a53.47,53.47,0,0,1-6.8-.69c-3.73-.68-7.41-1.66-11.14-2.38Q267,993,256.38,991.36c-.26,0-.89.06-.86.43.08,1.14.12,2.28.15,3.43,0,.13.24.15.32.16h0l-.32-.24c0,.82,0,1.64,0,2.46l.74-.37a233,233,0,0,1-38.06-2.17l.21.22.69-12.67c0-.43-1-.22-1.07.14l-.69,12.66a.21.21,0,0,0,.2.23A233.8,233.8,0,0,0,256,997.83c.17,0,.73-.1.74-.37,0-.82,0-1.63,0-2.45,0-.18-.17-.23-.33-.24h0l.33.16c0-1.14-.07-2.29-.15-3.43l-.87.43q9.33,1.49,18.61,3.23c6.37,1.2,12.65,3,19.14,3.5a182.69,182.69,0,0,0,19.58.12,218.16,218.16,0,0,0,22-1.86A91.51,91.51,0,0,0,345.16,995a25.17,25.17,0,0,0,6.78-2.57c.1-.06.24-.17.21-.3-.14-.56-.27-1.11-.4-1.67-.06-.26-.61-.14-.75-.07h0l.75.07c-.24-1-.47-2-.71-2.93-.06-.22-.47-.16-.61-.12l-.86.24.61.12-.19-1.13c0-.22-.48-.15-.6-.12a154.44,154.44,0,0,1-16.49,3.37,166.76,166.76,0,0,1-31,2.07,209.81,209.81,0,0,1-31.69-3.83c-8.68-1.62-17.28-3.47-26.06-4.48-7.93-.91-15.89-1.64-23.85-2.3-.21,0-.7.11-.75.37l-.21,1.12.75-.37-1.19-.09C218.5,982.34,217.77,982.92,218.49,983Z"/><path class="cls-8" d="M280.27,951.61a.94.94,0,0,1-.85.48A1,1,0,0,1,279,952a1,1,0,0,1-.34-1.3l2.9-5.14c.52.3,1.06.63,1.6,1Z"/><path class="cls-6" d="M279.77,951.59c-.13.21-.17.24-.39.08a.78.78,0,0,1-.31-.56.86.86,0,0,1,.13-.52c.19-.34.39-.68.58-1l1.81-3.21.46-.81-.92.25c.54.31,1.07.63,1.6,1l-.08-.28L280.13,951l-.36.64c-.26.45.82.36,1,0l2.52-4.47.36-.65a.18.18,0,0,0-.07-.28c-.53-.34-1.06-.66-1.61-1a.8.8,0,0,0-.92.24l-1.53,2.71-1,1.78a3.75,3.75,0,0,0-.51,1,1.17,1.17,0,0,0,.87,1.34,1.77,1.77,0,0,0,1.89-.72c.13-.21-.12-.32-.3-.33A.81.81,0,0,0,279.77,951.59Z"/><path class="cls-8" d="M284.94,954.38a.91.91,0,0,1-1.27.35,1,1,0,0,1-.34-1.3l2.78-4.92c.5.35,1,.72,1.52,1.1Z"/><path class="cls-6" d="M284.41,954.48a1.92,1.92,0,0,0-.13.17l0,0c-.1.07,0,.06.2,0,0,0-.15,0-.2-.06a.83.83,0,0,1-.49-.65,1,1,0,0,1,.14-.65c.17-.32.36-.64.53-.95l1.76-3.11.45-.81-1,.28c.44.31.87.69,1.33,1,.18.1.2,0,.1.19l-.57,1-1.64,2.9-.41.73c-.09.17.38.11.43.1s.52-.1.63-.29l2.35-4.17.34-.6a.06.06,0,0,0,0-.09l-1.53-1.11a1,1,0,0,0-1,.28l-1.48,2.63-1,1.7a2.73,2.73,0,0,0-.45,1,1,1,0,0,0,1,1.14,2,2,0,0,0,1.83-.78c.1-.17-.39-.11-.43-.11A1,1,0,0,0,284.41,954.48Z"/><path class="cls-8" d="M292,952.86l-2.43,4.3a.9.9,0,0,1-.84.47.86.86,0,0,1-.43-.13,1,1,0,0,1-.34-1.3l2.52-4.46Z"/><path class="cls-6" d="M291.51,953l-2.31,4.1-.11.19a.13.13,0,0,1,0,0l-.07.1-.08.08.21-.05a2,2,0,0,0-.27-.1.85.85,0,0,1-.26-.24,1,1,0,0,1,0-1.14l1.28-2.26,1.15-2.05-1,.28,1.52,1.12c.16.11.53,0,.69-.08s.46-.18.32-.28L291,951.57c-.19-.15-.92.07-1,.27l-2.45,4.36a1,1,0,0,0,.11,1.33,1.84,1.84,0,0,0,2.47-.44c.41-.63.75-1.32,1.12-2l1.32-2.35c.09-.15-.37-.08-.42-.07S291.61,952.79,291.51,953Z"/><path class="cls-8" d="M294.29,959.93a.91.91,0,0,1-1.27.35,1,1,0,0,1-.34-1.31l2.27-4c.5.36,1,.72,1.54,1.08Z"/><path class="cls-6" d="M293.76,960c-.05.08-.13.14-.18.22l0,0c.26,0,.33-.06.2-.08s-.11,0-.15-.05a.82.82,0,0,1-.42-.42.94.94,0,0,1,0-.85c.12-.23.25-.45.37-.67l1.49-2.64.4-.71-1,.28L296,956.2l0-.08-2.2,3.91c-.09.16.38.09.42.08s.53-.1.63-.28l2.21-3.9a.05.05,0,0,0,0-.08l-1.55-1.08a1.09,1.09,0,0,0-1,.28l-1.3,2.29-.77,1.38a1.42,1.42,0,0,0-.29,1.15c.35,1.2,2.24.8,2.75,0,.1-.16-.38-.09-.42-.09S293.87,959.85,293.76,960Z"/><path class="cls-8" d="M299,962.7a.93.93,0,0,1-.84.48,1,1,0,0,1-.77-1.44l2.12-3.75c.52.34,1,.68,1.58,1Z"/><path class="cls-6" d="M298.43,962.78s-.14.16-.14.17.06,0,.09,0,0,0,0,0-.2-.07-.29-.14a.76.76,0,0,1-.19-.21.92.92,0,0,1,0-.91c.1-.19.22-.38.33-.57l1.4-2.5.39-.68-1,.28c.52.34,1,.67,1.58,1l0-.11-2.09,3.7c-.11.2.38.17.45.16a.81.81,0,0,0,.61-.32l2.09-3.7a.09.09,0,0,0,0-.12c-.53-.32-1.06-.66-1.58-1a.88.88,0,0,0-1,.28l-1.24,2.19-.72,1.27a1.33,1.33,0,0,0-.22,1.2c.47,1.13,2.2.74,2.73-.12.12-.19-.38-.17-.44-.16A.86.86,0,0,0,298.43,962.78Z"/><path class="cls-7" d="M213.64,968.88h0v0Z"/><path class="cls-6" d="M213.4,968.57h0l.78.17v0l-.84.5h0a.63.63,0,0,0,.19,0,.55.55,0,0,0,.22,0,.66.66,0,0,0,.19-.09.61.61,0,0,0,.16-.12l.06-.1a.27.27,0,0,0,0-.2l0-.09a.46.46,0,0,0-.18-.13h0l-.12,0h-.14l-.14,0a.44.44,0,0,0-.2.08l-.11.08-.08.09a.21.21,0,0,0,0,.1.22.22,0,0,0,0,.16h0a.3.3,0,0,0,.12.17.31.31,0,0,0,.16.06.47.47,0,0,0,.2,0,.74.74,0,0,0,.29-.08h0a.61.61,0,0,0,.16-.12.38.38,0,0,0,.11-.14.21.21,0,0,0,0-.15.24.24,0,0,0-.05-.14l-.08-.08a.45.45,0,0,0-.23-.07h-.13A1,1,0,0,0,213.4,968.57Z"/><polygon class="cls-4" points="197.91 976.57 242.65 971.92 242.65 956.53 197.91 956.53 197.91 976.57"/><path class="cls-5" d="M318,994.75s1.25-8-5.67-10.64-22.48-6.94-34.07-12.38c-16.1-7.56-25.85-19.41-32.86-19.71s-5.32,11.35-20.83,12.28-27.28-6.85-28-7.08c-3.41,2.22-8.83,26.53-4.44,32.41s42,7.27,42,7.27l30.31,5,30.13.1Z"/><path class="cls-6" d="M221,996c0-4.78-.73-11.31-5.64-13.62-5.84-2.73-13.61-2.89-18.15-8-2.79-3.15-3.08-7.39-2.6-11.39.06-.51-1-.34-1.08.1-.4,3.36-.32,6.83,1.36,9.86a13.1,13.1,0,0,0,6.08,5.26,74.23,74.23,0,0,0,9.38,3.35c1.76.56,3.78,1,5.31,2.06a8.61,8.61,0,0,1,2.68,3.41,21.44,21.44,0,0,1,1.58,9.07c0,.52,1.08.34,1.08-.1Z"/><path class="cls-6" d="M194.76,959.36a41,41,0,0,0,17,7,50.57,50.57,0,0,0,11.47.13,61,61,0,0,0,8.91-1.31c5.23-1.23,10.36-4.41,15.86-3.89,3.77.35,7.32,2.2,10.56,4,3.72,2.1,7.28,4.45,10.95,6.63,2.05,1.22,4.13,2.4,6.25,3.49a2.55,2.55,0,0,0,1.95.4c2.34-.45,2.75-2.5,2.24-4.57-.09-.39-1.17-.11-1.07.28.29,1.18.41,4.11-1.64,3.73a5.81,5.81,0,0,1-1.05-.59l-1.23-.66c-1-.51-1.9-1-2.83-1.58-1.68-1-3.34-2-5-3-3.37-2.07-6.7-4.23-10.23-6a23.82,23.82,0,0,0-8.67-2.81c-5.1-.41-9.78,2.17-14.55,3.53a47.57,47.57,0,0,1-7.49,1.42,59.39,59.39,0,0,1-11.54.42c-7-.58-13.28-3.32-19.05-7.21-.3-.21-1.28.24-.84.53Z"/><path class="cls-6" d="M244.07,998.19l-6.32-1,.11.38a24.82,24.82,0,0,1,11.39-7c5-1.42,10.29-1.32,15.4-1.65s10.08-.65,15.08-1.34c3.46-.48,7.17-1,10.33-2.6a6,6,0,0,0,2.73-2.31c1-1.9,0-4.19-1-5.87-.18-.31-1.23,0-1,.43,1,1.64,2.05,4.07.75,5.83a7,7,0,0,1-3.14,2c-3.69,1.43-7.8,1.87-11.7,2.29-4.95.54-9.91.84-14.88,1.14-4.65.29-9.33.38-13.8,1.86a26.2,26.2,0,0,0-11,7c-.14.15-.15.35.1.39l6.32,1c.34.06,1.25-.49.65-.59Z"/><path class="cls-7" d="M239.77,997.69l.14.16-.25,0Z"/><path class="cls-6" d="M239.27,997.91l.15.16.82-.52-.23,0h0l.11.4.11-.12a.27.27,0,0,0,.09-.12.16.16,0,0,0,0-.12.2.2,0,0,0-.08-.1.3.3,0,0,0-.14-.06l-.12,0a1,1,0,0,0-.28,0l-.14.05a.74.74,0,0,0-.21.13l-.11.12a.22.22,0,0,0-.09.12.17.17,0,0,0,0,.12l0,.07a.32.32,0,0,0,.17.09l.23,0h.15a.5.5,0,0,0,.21,0,.33.33,0,0,0,.14,0,.64.64,0,0,0,.19-.08l.1-.08.07-.08a.17.17,0,0,0,0-.12.12.12,0,0,0,0-.11l-.14-.16a.24.24,0,0,0-.13-.07.47.47,0,0,0-.17,0l-.2,0a.81.81,0,0,0-.22.07l-.12.06a.57.57,0,0,0-.16.15l0,.09A.21.21,0,0,0,239.27,997.91Z"/><path class="cls-7" d="M229.12,994.48l1.24,0a15.86,15.86,0,0,0,.25,2.29l-1.28-.07A20.92,20.92,0,0,1,229.12,994.48Z"/><path class="cls-6" d="M229.06,994.82l1.24,0-.47-.2a16.16,16.16,0,0,0,.24,2.3l.73-.49-1.27-.07.34.2a17.68,17.68,0,0,1-.21-2.18c0-.09-.15-.16-.22-.18a.9.9,0,0,0-.4,0c-.22.07-.46.2-.45.46a17.51,17.51,0,0,0,.21,2.17c0,.14.22.19.34.2l1.27.07c.25,0,.79-.13.73-.48a17.76,17.76,0,0,1-.24-2.3c0-.07-.11-.13-.17-.16a.65.65,0,0,0-.31,0l-1.24,0c-.21,0-.56.16-.6.4S228.89,994.83,229.06,994.82Z"/><path class="cls-7" d="M223.52,993.28c.07,1,.1,2,.09,3h-.19l-1.06-.08c0-.95,0-1.9-.08-2.81Z"/><path class="cls-6" d="M223,993.42c.07,1,.1,1.93.08,2.89l.73-.42c-.41,0-.83,0-1.24-.09l.35.33c0-1,0-1.94-.08-2.9l-.59.52,1.24-.1c.23,0,.56-.16.59-.42s-.29-.34-.49-.33l-1.24.1c-.28,0-.61.2-.59.51.07.91.09,1.81.08,2.71a.34.34,0,0,0,.35.33c.42,0,.83.08,1.25.09a.92.92,0,0,0,.48-.11c.1-.06.24-.17.25-.31,0-1,0-2.06-.1-3.09,0-.09-.14-.18-.22-.2a.68.68,0,0,0-.4,0C223.19,993,223,993.15,223,993.42Z"/><path class="cls-8" d="M188.6,990l1.18.1L190,989c4.65.39,20.64,1.76,30.43,3.14,3,.42,6.75,1.17,11.12,2,10.12,2,24,4.77,38.59,5.39,2.61.11,5.2.15,7.69.12a180.07,180.07,0,0,0,41.54-5.54l.19,1.13.86-.24.71,2.93h0l.09.37.31,1.29c-10,6.21-54.3,7.76-64.37,5.25l-2-.49-.92-.2-1.44-.32C242,1001.5,226,999,226,999s.11,1.58.15,3.43h0v.06c0,.78,0,1.61,0,2.39a263.52,263.52,0,0,1-38.18-2.18Z"/><path class="cls-6" d="M188.26,990.26l1.19.09c.22,0,.81,0,.86-.34l.22-1.12-.87.34c7.13.59,14.26,1.25,21.37,2,4.11.45,8.22.91,12.3,1.62,4.67.83,9.32,1.82,14,2.72A230.94,230.94,0,0,0,268,999.7a165.72,165.72,0,0,0,31.87-1.52,162.85,162.85,0,0,0,19.58-3.85l-.59-.09.18,1.13c0,.2.5.12.6.09l.86-.24-.6-.09c.24,1,.48,2,.71,2.93.07.3.72.06.86,0h-.86c.14.56.27,1.11.4,1.67l.21-.27a22.58,22.58,0,0,1-5.95,2.27,82.67,82.67,0,0,1-8.81,1.75,204.66,204.66,0,0,1-21.55,2c-6.48.29-13,.4-19.47,0a55.37,55.37,0,0,1-6.8-.7c-3.73-.68-7.41-1.66-11.14-2.39q-10.54-2-21.18-3.72c-.23,0-.89.08-.87.41.08,1.14.12,2.29.15,3.43,0,.12.25.13.32.13h0l-.32-.13c0,.82,0,1.64,0,2.46l.76-.42a241.2,241.2,0,0,1-31.68-1.42,58.06,58.06,0,0,1-6.31-.74c-.07,0,0,.27.13,0a4.77,4.77,0,0,0,.06-1.07l.21-4,.41-7.44c0-.38-1-.16-1.06.16l-.7,12.67c0,.12.08.17.2.19a233.73,233.73,0,0,0,38.3,2.18c.24,0,.75-.1.75-.41,0-.82,0-1.64,0-2.45,0-.13-.25-.13-.32-.13h0l.32.12c0-1.14-.07-2.28-.15-3.42l-.87.4q9.33,1.49,18.61,3.23c6.4,1.21,12.71,3.06,19.22,3.5a183.83,183.83,0,0,0,19.5.11,215.52,215.52,0,0,0,22-1.86,91.78,91.78,0,0,0,10.13-1.92,25,25,0,0,0,6.79-2.57c.08-.05.24-.14.21-.27-.13-.55-.26-1.11-.4-1.66-.07-.3-.71-.06-.86,0h.86c-.23-1-.47-2-.71-2.94-.05-.2-.48-.12-.6-.08l-.85.23.59.09L319.9,994c0-.2-.5-.11-.6-.08a157,157,0,0,1-16.49,3.37,167.48,167.48,0,0,1-30.75,2.07,209.42,209.42,0,0,1-31.75-3.8c-8.62-1.61-17.16-3.47-25.89-4.48-8-.93-16-1.66-24.09-2.33-.22,0-.81,0-.87.34l-.21,1.12.87-.34-1.19-.09C188.64,989.7,187.69,990.21,188.26,990.26Z"/><path class="cls-8" d="M250.17,958.93a.93.93,0,0,1-.85.47.83.83,0,0,1-.42-.13,1,1,0,0,1-.34-1.3l2.89-5.14c.53.3,1.06.63,1.61,1Z"/><path class="cls-6" d="M249.68,958.93l-.12.16s-.1,0,0,0l-.24-.14a.82.82,0,0,1-.31-.58.86.86,0,0,1,.12-.54c.18-.34.38-.68.58-1l1.81-3.22.46-.81-.93.25c.52.3,1,.61,1.54.93v-.2L250,958.28l-.36.65c-.23.4.83.27,1,0l2.53-4.47.36-.65s.08-.14,0-.19q-.83-.52-1.68-1a.91.91,0,0,0-.92.25l-1.53,2.71-1,1.78a3.56,3.56,0,0,0-.51,1,1.11,1.11,0,0,0,.85,1.29,1.82,1.82,0,0,0,1.89-.71C250.91,958.54,249.85,958.66,249.68,958.93Z"/><path class="cls-8" d="M254.84,961.7a.9.9,0,0,1-.84.47.85.85,0,0,1-.43-.12,1,1,0,0,1-.34-1.31l2.78-4.92c.5.36,1,.72,1.53,1.11Z"/><path class="cls-6" d="M254.31,961.79a1.1,1.1,0,0,1-.13.17h.07q.15,0,0,0a1.08,1.08,0,0,1-.31-.19.82.82,0,0,1-.26-.57,1,1,0,0,1,.15-.57l.54-1,1.75-3.1.45-.79-1,.28a16.07,16.07,0,0,0,1.33,1c.17.1.19,0,.09.18l-.57,1-1.64,2.9-.41.73c-.1.18.38.13.44.12a.9.9,0,0,0,.62-.3l2.35-4.17.35-.6a.09.09,0,0,0,0-.1l-1.53-1.11a1,1,0,0,0-1,.28L254,958.53l-1,1.71a2.62,2.62,0,0,0-.46,1,1.06,1.06,0,0,0,1,1.13,1.92,1.92,0,0,0,1.82-.78c.11-.18-.38-.14-.43-.13A1,1,0,0,0,254.31,961.79Z"/><path class="cls-8" d="M261.94,960.17l-2.42,4.3a.91.91,0,0,1-1.27.35,1,1,0,0,1-.34-1.31l2.51-4.46Z"/><path class="cls-6" d="M261.44,960.17l-2.3,4.09-.12.2c0,.06-.09.16-.15.19s0,0,0,0a1.17,1.17,0,0,1-.28-.17.87.87,0,0,1-.06-1.09l1.27-2.26,1.16-2.05-1,.2,1.53,1.12a.73.73,0,0,0,.7,0c.1,0,.49-.28.29-.42l-1.52-1.12a.8.8,0,0,0-1,.2l-2.45,4.35a1.18,1.18,0,0,0,0,1.42,1.66,1.66,0,0,0,2.48-.3c.41-.64.75-1.33,1.12-2l1.33-2.36C262.68,959.75,261.62,959.86,261.44,960.17Z"/><path class="cls-8" d="M264.19,967.24a.91.91,0,0,1-1.27.35,1,1,0,0,1-.34-1.3l2.27-4,1.54,1.08Z"/><path class="cls-6" d="M263.66,967.34a1.81,1.81,0,0,1-.18.21l0,0c.26,0,.33-.06.2-.08s-.1,0-.14,0a.8.8,0,0,1-.43-.42.94.94,0,0,1,0-.85c.12-.22.25-.44.38-.66l1.49-2.64.4-.71-1,.28c.51.36,1,.72,1.54,1.07l0-.09-2.21,3.91c-.09.17.38.11.43.1a1,1,0,0,0,.63-.29l2.2-3.91a.05.05,0,0,0,0-.08l-1.55-1.08a1.07,1.07,0,0,0-1,.28L263,964.65l-.78,1.38a1.43,1.43,0,0,0-.29,1.16c.36,1.2,2.24.8,2.76,0,.1-.17-.38-.11-.43-.1A1,1,0,0,0,263.66,967.34Z"/><path class="cls-8" d="M268.87,970a1,1,0,0,1-.85.47.89.89,0,0,1-.43-.13,1,1,0,0,1-.34-1.3l2.12-3.75,1.59,1Z"/><path class="cls-6" d="M268.35,970c-.13.22-.37.14-.52-.05a.68.68,0,0,1-.06-.77c.1-.2.21-.39.32-.58l1.41-2.49.38-.68-.92.24c.53.34,1.05.68,1.59,1l-.11-.39L268.35,970c-.13.23.12.44.34.47a.71.71,0,0,0,.69-.34l2.09-3.7a.3.3,0,0,0-.1-.38c-.54-.33-1.06-.67-1.59-1a.68.68,0,0,0-.92.25l-1.24,2.19-.72,1.28a1.54,1.54,0,0,0-.26,1.28,1.36,1.36,0,0,0,1.2.9,1.64,1.64,0,0,0,1.54-.81c.14-.23-.13-.44-.33-.47A.73.73,0,0,0,268.35,970Z"/><path class="cls-7" d="M183.54,976.2h0v0Z"/><path class="cls-6" d="M183.23,976.12h0l.85-.06v0l-1,.36h0a.43.43,0,0,0,.16,0,.65.65,0,0,0,.19,0,.8.8,0,0,0,.21,0l.19-.07.11-.06a.43.43,0,0,0,.11-.12v-.05a.13.13,0,0,0-.1-.07h-.3l-.14,0-.21.06-.12.06-.1,0a.22.22,0,0,0-.1.09.11.11,0,0,0,0,.08v0a.13.13,0,0,0,.1.07.74.74,0,0,0,.21,0,1.28,1.28,0,0,0,.27,0,1.43,1.43,0,0,0,.27-.09h0a.67.67,0,0,0,.14-.09.18.18,0,0,0,.08-.09,0,0,0,0,0,0-.07s0,0-.08,0h-.09a1,1,0,0,0-.25,0l-.14,0A1.25,1.25,0,0,0,183.23,976.12Z"/><path class="cls-9" d="M154.05,530.41l1.15,41.19a291.53,291.53,0,0,0,15.19,85.06l18,77.46s3.16,75,0,117.42c-2.79,36.79,4.24,105.22,4.24,105.22l67-1.61,19-218.41,11.14-133.32,22.61-69.68Z"/><path class="cls-9" d="M331,548.71l-13.68,201.5a84.53,84.53,0,0,1-5,30.09L291.92,928.51,289.3,947.6l-47.12-8,18-402.24Z"/><path class="cls-10" d="M259.59,944l-.75,7.8a45.19,45.19,0,0,0-.45,6c0,.7,2.52.07,2.66-.56,1.08-5.1,1.32-10.51,1.9-15.69l1.71-15.13q1.93-17.25,3.79-34.5c2.59-24.44,5.13-48.87,7.44-73.34,2.66-28.12,5-56.27,6.87-84.46q2.28-34.8,3.53-69.66.6-17.73.82-35.47c.05-5.11,0-10.21,0-15.32,0-3.32-.21-6,1.1-9.13.76-1.81,2-3.87,4-4.49,1.53-.48,1.29-1.56-.28-1.06-3.75,1.18-6,4.08-7,7.78-.89,3.16-.48,6.55-.48,9.79q0,16.69-.43,33.37c-.58,23.58-1.66,47.15-3.07,70.7-1.69,28.41-3.92,56.78-6.51,85.13-2.35,25.79-5,51.57-7.69,77.33q-3.55,33.63-7.44,67.24c-.28,2.43-.43,4.93-.94,7.32l2.66-.56a46.08,46.08,0,0,1,.47-6.2c.23-2.44.47-4.89.71-7.33.08-.86-2.58-.34-2.65.41Z"/><rect class="cls-3" x="1234.22" y="50.43" width="27.37" height="948.59"/><polygon class="cls-11" points="1001.42 37.26 1239.88 69.31 1239.88 999.02 1001.42 1033.7 1001.42 37.26"/><rect class="cls-12" x="975.74" y="37.22" width="25.68" height="995.64"/><path class="cls-13" d="M1040.44,533.2h41.19c2.73,0,4.93,3.32,4.93,7.41h0c0,4.1-2.2,7.42-4.93,7.42h-41.19c-2.72,0-4.93-3.32-4.93-7.42h0C1035.51,536.52,1037.72,533.2,1040.44,533.2Z"/><path class="cls-13" d="M1040.35,549.46a6.84,6.84,0,0,1-.91-.06,6,6,0,0,1-4.73-3.26,11.72,11.72,0,0,1-1-4.07,14,14,0,0,1,.3-4.92,6.68,6.68,0,0,1,4.76-4.69c.46-.14,6.11-.9,6.11-.48V505.37c0-7.72-4.32-14-9.66-14h0c-5.34,0-9.67,6.25-9.67,14v96.24c0,7.71,4.33,14,9.67,14h0c5.34,0,9.66-6.25,9.66-14V556c0-2.25,0-4.5,0-6.75C1043.34,549.23,1041.84,549.5,1040.35,549.46Zm-2.94,39.79v5.46c0,1.19-.66,2.15-1.48,2.15s-1.46-1-1.46-2.15v-5.46a5.19,5.19,0,0,1-1.9-4.39c0-2.6,1.54-4.67,3.34-4.62s3.23,2.22,3.2,4.83A5.33,5.33,0,0,1,1037.41,589.25Z"/><rect class="cls-13" x="984.17" y="500.55" width="9.98" height="101.95"/><path class="cls-14" d="M1037.41,589.25v5.46c0,1.19-.66,2.15-1.48,2.15s-1.46-1-1.46-2.15v-5.46a5.19,5.19,0,0,1-1.9-4.39c0-2.6,1.54-4.67,3.34-4.62s3.23,2.22,3.2,4.83A5.33,5.33,0,0,1,1037.41,589.25Z"/><line class="cls-15" x1="820.12" y1="44.68" x2="842.41" y2="68.16"/><line class="cls-15" x1="1261.59" y1="44.68" x2="1239.5" y2="69.63"/><path class="cls-16" d="M464.77,332.43a.52.52,0,0,1-.1.11l-.19-.3Z"/><path class="cls-4" d="M440.57,299s12.45-27.15,14.14-30.26c1.48-2.75,24.42-18.06,30.67-22.4h0a7.23,7.23,0,0,1-.83,9c-5.39,5.59-16.09,15.85-16.09,15.85a24.24,24.24,0,0,0,4,2.11c6.55.72,9.72,4.37,9.72,4.37s.41,2.88,4.06,6.2-2.76,6.42-2.76,6.42,2.32.14,3,5.25-8.69,3.89-8.69,3.89,1,.22-4.92,9-18.42,10-18.42,10l-13.43,22L418.5,322.32Z"/><path class="cls-17" d="M451.44,304.16a6.59,6.59,0,0,0,2.32.28,15,15,0,0,0,6.18-1.3,12.89,12.89,0,0,0,6.52-6.24,13.19,13.19,0,0,0,0-11.12l-.7.73a24.6,24.6,0,0,0,6.64.95,23.79,23.79,0,0,0,3.81-.31,5.11,5.11,0,0,0,1.9-.65,1.8,1.8,0,0,0,.9-2,3,3,0,0,0-1.41-1.62c-.57-.34-1.09-.57-1.6-.84l-3-1.52c-4-1.94-7.43-3.82-10.61-5.13a8.19,8.19,0,0,0-3.93-.81,6.3,6.3,0,0,0-3.21,1.1,7.24,7.24,0,0,0-2.07,2.25c.12.07.91-1,2.37-1.88a6.28,6.28,0,0,1,3-.84,7.83,7.83,0,0,1,3.54.92c3,1.33,6.48,3.33,10.41,5.3l3,1.56c1,.51,2.19,1.05,2.35,1.71s-.81,1.16-1.9,1.3a22.52,22.52,0,0,1-3.6.29,23.58,23.58,0,0,1-6.28-.88l-1.2-.34.5,1.07a12.54,12.54,0,0,1,.15,10.31,12.26,12.26,0,0,1-5.93,6,15.83,15.83,0,0,1-5.82,1.57A22.18,22.18,0,0,0,451.44,304.16Z"/><path class="cls-17" d="M472.27,287c-.07-.11-1.13.53-1.27,2.27a4.09,4.09,0,0,0,1,2.89,5.62,5.62,0,0,0,3.59,1.75,8.39,8.39,0,0,0,6.27-2.06c1.24-1,1.85-1.77,1.74-1.89s-1,.42-2.29,1.24a8.9,8.9,0,0,1-5.64,1.58,4.69,4.69,0,0,1-2.82-1.27,3.56,3.56,0,0,1-1-2.2C471.76,287.83,472.44,287.06,472.27,287Z"/><path class="cls-17" d="M478.31,285.18c.16.27,2.3-.7,3.46-3.07s.63-4.59.31-4.54-.39,2-1.44,4S478.09,284.91,478.31,285.18Z"/><path class="cls-17" d="M470.3,280.06c.16.25,2.23-.5,3.27-2.5s.42-3.93.1-3.9-.3,1.67-1.24,3.4S470.07,279.82,470.3,280.06Z"/><path class="cls-17" d="M477.46,293.12c-.11-.12-.63.05-1.36.52a4.23,4.23,0,0,0-2,2.77,2.85,2.85,0,0,0,.43,2,2.88,2.88,0,0,0,1.5,1.09c1.08.3,1.65-.2,1.54-.31s-.61-.06-1.23-.43a2,2,0,0,1-1-2.17,5,5,0,0,1,1.39-2.4C477.24,293.66,477.58,293.25,477.46,293.12Z"/><path class="cls-18" d="M356.94,336l13.29,31.24,59.49-59.76,28.14,26.88s-34.63,52.42-52.61,75.77c-12.29,16-22.92,29.25-50.08,26.87-17.53-1.54-50.83-46.69-50.83-46.69l49.57-56.72"/><path class="cls-18" d="M308.79,268.93s30.58,8.26,39.65,35c10.46,30.82,30.36,74.85,30.36,74.85l-40.52,41.37-27-41.05Z"/><path class="cls-18" d="M155.7,354.59s4.64,63.35-.81,88.82-12.76,82.85-11.83,99.47,74.3,18.83,112.73,17.72,79.29-.31,81.21-19c6.79-66.28-126.28-203.9-126.28-203.9Z"/><path class="cls-4" d="M222.4,210.76s3.39,32.17-3.74,40.55C216.8,253.5,198.25,263,198.25,263l79.64,37.08L300.84,278s-18.93-14.08-19.65-17.4,3.15-29.25,3.15-29.25"/><path class="cls-18" d="M279.73,284.11c-7.12,5.57-19.45,5.19-27.67,2-16.62-6.39-32.21-22.13-37.34-32l-.43-.68c-13.56,5.31-45.56,13.47-55.11,24.19-14.36,16,22.18,72.53,23.73,86.24.79,6.64,5.37,56-1.79,94.1a620.62,620.62,0,0,0-9.35,76.69l42.57,6.5a232,232,0,0,0,62.84,1L337,533.74c-.49-26.42.58-47.84-1.57-82.51l-1.05-112.41-14.75-56.39a67.35,67.35,0,0,0-2.61-8.54c-2.09-4.56-31.22-13.31-35.8-14.16C281.22,259.73,287.81,277.78,279.73,284.11Z"/><path class="cls-19" d="M220.67,217.6c0,.06,0,.11,0,.17A.26.26,0,0,1,220.67,217.6Z"/><path class="cls-4" d="M261.33,254.11l20-.15,10-2c1,.05,5.71-10.05,6.44-11.32,2.26-4,5.21-9.15,6.66-13.48,1.55-4.64,4.63-8.62,5.51-14.23.65-4.12.75-7-1.26-13.8a9.5,9.5,0,0,1,0-5.26c1-3.84,1.48-8.36,2.72-13.51a10.76,10.76,0,0,0,.49-2.81s1.58-21.59-2.09-29.45-9.39-11.57-15-13.21-22.46-1.14-22.46-1.14l-23.09-4-20,9.14-10.75,23.64.58,27.84,2.2,24.93"/><path d="M225.67,188.52c.05,2.15,2.42,12.94,2.6,15L217.16,203c-3.13-7.46-6.89-16.25-8.11-18.26-1.9-3.14,4.25-18.26,4.29-23.9v-1.21c0-5.41,5.45-13.83,14.49-22.54,15.56-15,14.82-15.18,38.06-12.85,1.6.17,3.2.39,4.74.66,14.58,2.59,26.81,2.73,35.8,15.26,6.47,9,1.7-2.22.95,3.92-.05-12.16,2-2.08.77-3.54-7.11-8.57-11,.24-14.59-.4a12.24,12.24,0,0,0-6,.39c-3.58.7-7,.14-10.73-.53-2.79-.49-9.82-2.3-10.42-2.45-1.85-1.37,0-8.63-3.47-9.24-8-1.44-19.18,1.8-23.13,3.5-4.66,2-15.82,6.33-14.65,18.73"/><path d="M289.59,249.31a.85.85,0,0,1-.37-.15c-2-1.47-2.15-2.27-3.16-2.55a6.45,6.45,0,0,0-1.07-.28c-2.91-.51-4.67-.88-12.66,3.95-.16.1-10.37-1.56-10.57-1.59L256.55,246c-.87-.59-20.14-18.33-20.14-18.33-.28-.58-3.73-4.76-3.86-5.31l-.18-.1-.13-.06a.81.81,0,0,1,0,.11,3.39,3.39,0,0,0,0,.71,11.94,11.94,0,0,0,.45,3c.41,1.52.63,3.07,1,4.59.12.54.28,1.07.44,1.6,2.22,1.51,16,20.52,24.06,24.94a35.28,35.28,0,0,0,6.65,1.23c8.37,1,16.48,1.24,24.82-.95a7.53,7.53,0,0,0,4.9-4.11c2.66-5.77,8.53-18.6,10.15-27.29-2.45,5-7.63,15.68-11.19,22.95-.11.22-3.3.3-3.57.37"/><path class="cls-4" d="M223.6,218.19c-9.26,8.46-10.57-6.49-10.57-6.49-5.94-7.81-5.59-15.84-5.12-21.31s6.5-5.14,6.5-5.14c5.1.78,7.27,3.63,10.81,21.12"/><path d="M290.49,135.16c-8.34-.37-30.07-6.73-41.36-7.75-4.68-.43-20.55,10.74-22.64,13.33-4.8,5.92,5.54,20.1-3,39.16-2.81,6.3-6.22-5-9.67-.87s-4.78,5.73-4.78,5.73c-2-18.52-1.91-17.88,2.66-36S236.3,123.29,245.94,122s40.36,2.61,48.58,6.71"/><path d="M221.19,203a43.45,43.45,0,0,0-3.87-7.56,13.54,13.54,0,0,0-2.73-3.16,3.71,3.71,0,0,0-1.47-.8c-.7-.14-1,.35-1.34.89a10.53,10.53,0,0,0-.8,7.24c0,.21.91,0,.87-.23a11.31,11.31,0,0,1,.2-5.86,5.78,5.78,0,0,1,1-1.9l-.67.21c.09,0,0,0,0,0s.19.05.28.09a4.06,4.06,0,0,1,1,.61,15.9,15.9,0,0,1,3.76,4.77,51.29,51.29,0,0,1,2.85,5.93c.1.22.94-.05.87-.23Z"/><path d="M219.26,203.92c-3.7-.31-1.81,4.49-2.16,6.51a1.43,1.43,0,0,1-.09.34,1.12,1.12,0,0,0-.1.18l0,0c-.11.12,0,.11.34,0a2.73,2.73,0,0,1-.26-.24,3.15,3.15,0,0,1-.31-.57,14.19,14.19,0,0,1-.83-3.26,14.49,14.49,0,0,1-.16-4.5c.25-1.64.78-4.15,2.53-4.82.57-.22,0-.37-.31-.24-1.67.64-2.43,2.31-2.83,3.94a11.36,11.36,0,0,0-.37,3.67,25,25,0,0,0,.73,4.31c.16.59.39,1.69,1,2a1.14,1.14,0,0,0,1.37-.47A3.23,3.23,0,0,0,218,209c-.06-.85-.84-4.81.74-4.68.2,0,1-.34.55-.38Z"/><path d="M265.47,188a3.45,3.45,0,0,0-4.68,1.93,3.32,3.32,0,0,0,.64,3.07,3.08,3.08,0,0,0,3.51.79,3.41,3.41,0,0,0,1.87-3.88,3,3,0,0,0-1.34-1.91"/><path d="M302.23,190.06a3.34,3.34,0,0,1,3.57.83,3.21,3.21,0,0,1,.9,1.56,3.33,3.33,0,0,1-.94,3,3.09,3.09,0,0,1-3.57.45,3.42,3.42,0,0,1-1.48-4,3,3,0,0,1,1.52-1.77"/><path d="M291.39,194.37s5.38-4.88,9.16-5c5.5-.24,6.85,1.07,8.67,3.68,0,0-3.46-2.8-7.34-2.53C298.18,190.73,291.39,194.37,291.39,194.37Z"/><path d="M273.64,192.16s-7.45-5.23-11.21-5.51c-5.5-.41-12.22,2.51-14.12,5.06,0,0,8.88-4.35,12.75-4C264.75,188.13,273.64,192.16,273.64,192.16Z"/><path d="M276.68,175.93c-.49,1.21-1,2.43-1.48,3.65-.38.93-1.17,3.07-1.55,4-2.61-1.95-4.78-4.19-6.53-5.28-3.49-2.17-6.95-4.66-11-5.59a13.64,13.64,0,0,0-5.6-.29c-.6.11-2.41.87-3,.25-.24-.25.84-1.55,1-1.69,2.19-2.62,5.26-2.85,8.68-2.31,7,1.1,13.33,3.84,19.49,7.27"/><path d="M311.51,172l-2.35.08c-6.51.19-12.59,2.08-18.54,4.68.36,1.26.71,2.52,1.07,3.79.28,1,.71,2.72,1,3.68,2.56-1.6,4.7-3.24,6.41-4.1,3.38-1.69,6.93-3.52,10.72-3.93L312,176C312.69,173.94,312.09,172.14,311.51,172Z"/><path d="M273.46,236l14.14.77s-3.89,5.1-7.33,4.74C278.13,241.32,275.5,238.7,273.46,236Z"/><path d="M286.08,215.68a6.11,6.11,0,0,1-5.67-.65c-.34-.25-1.55-.08-1.07.26a8.62,8.62,0,0,0,7.73.75c.21-.1.18-.26-.07-.36a1.32,1.32,0,0,0-.92,0"/><path d="M278.67,214.78a10,10,0,0,0-3.46-1.06.77.77,0,0,0-.55.15.16.16,0,0,0,0,.29,3.69,3.69,0,0,0,1.9.55.72.72,0,0,0,.6-.21c.12-.16-.07-.28-.23-.29a2.94,2.94,0,0,1-1.54-.44l-.55.44a8.72,8.72,0,0,1,3.09,1,.78.78,0,0,0,.65,0c.13-.08.28-.25.09-.36"/><path d="M273.85,214.7a4.82,4.82,0,0,1-3.69-1.94c-1-1.7.13-4.2,1.95-5.17.2-.1.11-.26-.08-.31a1.13,1.13,0,0,0-.77.13,5,5,0,0,0-2.53,4.43c.15,1.45,1.45,2.53,3.13,3a7.3,7.3,0,0,0,1.56.3c.21,0,.6,0,.71-.2s-.08-.25-.28-.27"/><path d="M288.71,215.07a.2.2,0,0,1,.2-.27,1.63,1.63,0,0,0,1.11-.31l.35.48a4.79,4.79,0,0,0-2.25.71.4.4,0,0,1-.45-.1c-.09-.08-.18-.27,0-.36"/><path d="M287.63,215.22a5.48,5.48,0,0,1,2.53-.77.47.47,0,0,1,.37.19.21.21,0,0,1,0,.3"/><path d="M291.65,215.41a2.9,2.9,0,0,0,2.54-1.64,4.34,4.34,0,0,0-.87-4.71.17.17,0,0,1,.08-.3.53.53,0,0,1,.48.18,4.82,4.82,0,0,1,1.31,4,3.33,3.33,0,0,1-2.27,2.77,3.58,3.58,0,0,1-1,.17.5.5,0,0,1-.45-.26c-.06-.17.08-.24.21-.24"/><path d="M294.82,138.76a5.22,5.22,0,0,0-2.41-.91l-.94-.33c-2.81-.11-5.62-.15-8.43-.09a5.81,5.81,0,0,0-2.06.28l-.2.08c-2.08-.13-4.16-.25-6.24-.31l-1,.23a5.7,5.7,0,0,0-2.47.63.82.82,0,0,0,.15,1.53c.85.29,2.12-.12,2.7.38s-.63,1.3-.27,1.94c.23.41,1,.56,1.46.86s.75.9,1.29,1.28a2.9,2.9,0,0,0,2.2.36c.78.09,1.85-.2,2.08.35a.89.89,0,0,1,0,.46,1.57,1.57,0,0,0,1.15,1.47,2.55,2.55,0,0,0,2.23-.24c.56-.4.78-1,1.38-1.39a5.22,5.22,0,0,1,.63-.29,2,2,0,0,0,.72.45,2.58,2.58,0,0,0,2.23-.24c.56-.4.78-1,1.38-1.39s1.26-.42,1.52-.87c.41-.71-.79-1.67-.12-2.26s1.85,0,2.71-.24A1,1,0,0,0,294.82,138.76Z"/><path d="M271.16,250.47a4.18,4.18,0,0,0,2,.7l.77.26q3.41.09,6.83,0a4.78,4.78,0,0,0,1.66-.26l.16-.07c1.68.09,3.37.15,5.06.17l.77-.19a4.64,4.64,0,0,0,2-.55.66.66,0,0,0-.14-1.23c-.69-.23-1.72.12-2.19-.27s.5-1.07.19-1.58c-.19-.33-.8-.44-1.19-.67s-.62-.73-1.06-1a2.31,2.31,0,0,0-1.78-.26c-.64-.06-1.5.19-1.7-.26a.76.76,0,0,1,0-.37,1.27,1.27,0,0,0-1-1.18,2.09,2.09,0,0,0-1.8.23c-.45.33-.62.84-1.1,1.14a3.45,3.45,0,0,1-.51.25,1.4,1.4,0,0,0-.59-.36,2.1,2.1,0,0,0-1.8.23c-.45.33-.62.83-1.1,1.14s-1,.36-1.21.72c-.33.58.66,1.34.12,1.83s-1.5,0-2.19.23A.79.79,0,0,0,271.16,250.47Z"/><path d="M210.11,185.93a5.33,5.33,0,0,1-2.47-.56,1.83,1.83,0,0,1-.86-2.18c.57-1.23,2.83-1.41,2.71-2.75-1.09-1.34-3.74-.86-4.35-2.47-.5-1.3.91-2.48,2.12-3.17-.83-.82-.59-.09-1.71-.39s-1.71-3-1.06-4,1.12-.2.72-1.45c-.89-.29,1.08-1,.41-1.68a2.12,2.12,0,0,1-.49-2.55,4.29,4.29,0,0,0,.5-2.79c0-1,1.89-1.11,1.33-1.89-1-1.43.4-3.3,1.73-4.45-.76-.53.17-.67-.3-1.47a2.22,2.22,0,0,1,.08-2.58,9.48,9.48,0,0,1,1.39-.95c1.85-1.42.79-4.34-.41-6.34a3.32,3.32,0,0,0,3.52-2.68,10.77,10.77,0,0,1,.27-2.28c.28-.71,1.33-1.18,1.81-.58"/><path d="M210.5,185.29c-1-.07-2.55-.2-2.76-1.47-.13-.8.48-1.11,1.08-1.46s2.11-1.26,1.68-2.28-2.17-1.18-3-1.46c-.64-.22-1.31-.49-1.4-1.25-.12-1,1.1-1.77,1.83-2.21.21-.13.58-.54.31-.79a1.92,1.92,0,0,0-1.14-.61c-.37,0-.67.15-1,0-.75-.43-1-2.21-.76-2.93s1.25-.77,1-1.76c-.05-.18-.23-.41-.26-.55s-.18.34,0,.06.58-.52.67-.91-.09-.58-.31-.91a1.91,1.91,0,0,1-.17-2.28,4.16,4.16,0,0,0,.39-1.66c0-.7-.13-1,.38-1.44s1.2-.74.93-1.57a2.22,2.22,0,0,1,0-2.15,7,7,0,0,1,1.53-1.81c.16-.13.33-.46.12-.64-.36-.3-.08-.31-.08-.75s-.42-1-.49-1.55c-.17-1.44,1.61-1.76,2.3-2.79,1.28-1.93.06-4.49-1-6.24l-1.35,1.07a5.12,5.12,0,0,0,3.89-1.46,3.68,3.68,0,0,0,1-1.65c.12-.43.46-2.38.14-2.66.6.52,2.56-.3,1.93-.85a2.56,2.56,0,0,0-3.55.63c-1,1.39.15,4.83-2.62,4.7-.5,0-1.77.36-1.36,1.07a8.39,8.39,0,0,1,1.32,3.64,2.42,2.42,0,0,1-.42,1.68c-.39.5-1,.69-1.51,1.1a2.51,2.51,0,0,0-.8,2.66c.08.27.37.64.39.91s-.11.32-.1.47c0,.42,0,.56.36.87l.12-.64c-1,.91-2.17,2.15-2.28,3.57a2.65,2.65,0,0,0,.07.79,7.71,7.71,0,0,0,.37.76c0,.13-.83.52-1,.67a1.8,1.8,0,0,0-.44,1.47A5.59,5.59,0,0,1,204,165a2.32,2.32,0,0,0,0,1.68c.11.29.3.5.43.77.26.53.27.16.06.6s-.56.46-.55.87a.61.61,0,0,0,.16.4l.14.11c0,.34.22.29.57-.14-.06-.11-1,.71-1.06.78a2.42,2.42,0,0,0-.56,1.45,4.15,4.15,0,0,0,.89,3,2,2,0,0,0,1.18.58,2.7,2.7,0,0,0,.75,0,2.46,2.46,0,0,0,.46-.08c.26-.08.21,0-.16.18l.3-.79c-1.31.79-3.36,2.38-2.35,4.13a2.81,2.81,0,0,0,1.58,1.14c.53.2,2.25.39,2.51,1s-1,1.05-1.43,1.33a2.8,2.8,0,0,0-1.28,1.61c-.43,2.29,2.49,2.86,4.09,3,.87.06,2.19-1.18.78-1.28Z"/><path d="M214.32,142.45c.25-1,1.26-5.89,1.5-6.91a2.32,2.32,0,0,0,3-1.89c0-.7-.17-1.56.4-2s1.36.13,2.07.11c1.58-.06,1.83-2.61,3.31-3.14.94-.33,2,.28,2.94,0,1.43-.44,1.69-2.57,3.07-3.15,1-.4,2.07.12,3.07-.14,2.17-.57,2.95-3.75,5.19-3.74.82,0,1.58.57,2.4.51,1.46-.12-.7-1.67.76-1.86s2.38,1.25,3.72,1.42c2.18.27,3.68-3.36,5.7-2.51.87.37,1.33,1.37,2.19,1.78,2,.94,4.11-1.92,6.24-1.38,1.07.27,1.83,1.36,2.93,1.51,1.7.25,3-1.85,4.75-1.7,1.37.12,2.36,1.65,3.73,1.59.95,0-1.39-1.13-.44-1.26,1.63-.21,2.81,1.59,4.41,2,1.34.3,2.66-.46,4-.77s4.23,2.33,4.26,3.7"/><path d="M215.37,142.32c.53-2.29,1-4.62,1.5-6.91l-1.68.7a4,4,0,0,0,3.47-.65,3.12,3.12,0,0,0,1.08-1.33,2.92,2.92,0,0,0,.16-.92c0-.1,0-.2,0-.31s-.09-.8-.14-.67c0,0-.2,0,.21,0l.48.1a4.12,4.12,0,0,0,.86,0,3.4,3.4,0,0,0,1.51-.58c.88-.62,1.11-1.87,1.94-2.46.5-.36,1.43,0,2.06,0a3.75,3.75,0,0,0,1.78-.52,3.89,3.89,0,0,0,1.1-1c.36-.47.63-1.25,1.11-1.61s1.69-.06,2.39-.14a4.61,4.61,0,0,0,1.8-.59,12.23,12.23,0,0,0,2.6-2.48,1.36,1.36,0,0,1,1.78-.49,4.33,4.33,0,0,0,2,.23c.81-.14,1.64-.57,1.42-1.49a1.89,1.89,0,0,0-.2-.55c-.16-.15.27-.37-.29,0s-.1.17.17.35a9.09,9.09,0,0,0,2,1,4,4,0,0,0,3.16-.29c1-.5,1.68-1.59,2.65-2,.67-.28,1.11.46,1.59.92a3.33,3.33,0,0,0,1.58.94,5.34,5.34,0,0,0,3.42-.67,8.86,8.86,0,0,1,1.74-.81c.83-.18,1.43.36,2.08.79a3.89,3.89,0,0,0,4,.27c.65-.29,1.21-.78,1.86-1.07.87-.38,1.5.22,2.22.67.95.6,2.52,1.18,3.52.32.32-.28.39-.49.17-.84-.08-.15-.75-.6-.74-.65l-.39.44c-.33.24,1,.94,1.23,1.06a7.19,7.19,0,0,0,1.59.91,5.77,5.77,0,0,0,3.69-.17,3.25,3.25,0,0,1,1.62-.36,4.05,4.05,0,0,1,1.48,1,4,4,0,0,1,1.56,2.35c.07.69,2.17.24,2.09-.56-.15-1.46-1.72-2.79-2.89-3.48a3.52,3.52,0,0,0-2-.56c-1.27.06-2.53,1.09-3.81.82-1-.21-1.8-1.1-2.7-1.55a3.63,3.63,0,0,0-2.48-.36c-.45.11-1.23.42-1.11,1,.05.27.86.86.86.85l.4-.44c.69-.39.16-.39-.2-.6s-.54-.36-.82-.53a4.59,4.59,0,0,0-1.33-.61,4.74,4.74,0,0,0-3.3.68c-.47.27-1.13.9-1.67,1s-1.21-.53-1.65-.82a4,4,0,0,0-3.31-.63,27.17,27.17,0,0,0-3.14,1.34c-1.46.53-2.13-1.37-3.39-1.79-2-.67-3.52,1-5,2-.57.43-.78.52-1.47.22-.53-.24-1-.61-1.5-.85a3.33,3.33,0,0,0-3.13.06,1.09,1.09,0,0,0-.32,1.59l.05.15c.05.31.17.19.38-.37a7.94,7.94,0,0,0-1.18-.36,4,4,0,0,0-1.72.06,5.1,5.1,0,0,0-2.41,1.53c-.86.91-1.5,2.12-2.87,2.13s-2.34-.12-3.43.66a4,4,0,0,0-.89.9c-.34.45-.61,1.25-1.08,1.57s-1.47,0-2.16,0a3.87,3.87,0,0,0-1.63.46c-1.06.61-1.24,1.73-2.08,2.48-.44.39-1.11,0-1.72,0a2.5,2.5,0,0,0-1.75.75c-.72.83,0,3.8-1.75,3.25-.48-.15-1.55.13-1.68.7-.54,2.29-1,4.61-1.5,6.91-.18.78,1.92.46,2.09-.26Z"/><path d="M236.46,129.9c-8,3-11.29,5.81-15.3,13.36l45.74-15.42a40.35,40.35,0,0,0-9.85-1.11C248.5,127,244.45,126.88,236.46,129.9Z"/><path d="M236.07,129.55a31.12,31.12,0,0,0-9.58,5.22,29.32,29.32,0,0,0-6.36,8.64c-.31.57,1.31.25,1.43.21l15.42-5.2,24.61-8.3,5.7-1.92c.45-.16,1-.71.27-.87a62.54,62.54,0,0,0-17.33-.87,47.81,47.81,0,0,0-14.16,3.09c-.28.1-.83.39-.59.74s1.11.06,1.37,0a43.31,43.31,0,0,1,13.25-2.79c2.4-.13,4.82-.22,7.22-.23a42.05,42.05,0,0,1,8.93,1.11l.26-.86-15.42,5.2L226.47,141l-5.7,1.92,1.43.2a27.8,27.8,0,0,1,5.94-8.11,28.16,28.16,0,0,1,8.71-4.74c.27-.11.82-.39.58-.74S236.32,129.45,236.07,129.55Z"/><path d="M301.84,131.13a6.36,6.36,0,0,1-.64-.32c-1.07-.59-1.89-2.22-.9-2.94-2.21.87-3.76-3-6.13-2.94a13.93,13.93,0,0,0-2,.45,3.12,3.12,0,0,1-3.44-3.11,7.56,7.56,0,0,1-5.71.57l-16.13,5c7.05,1.55,14.21,4.25,21,5.17a27.87,27.87,0,0,1,9.49,2.53c2.11,1.12,4.82,1.75,7,3C303.53,136,302.71,133.57,301.84,131.13Z"/><path d="M302.68,130.64c-.69-.33-2.56-1.67-1.55-2.62.69-.64-.51-.8-1-.65-.76.25-1.79-1-2.31-1.42a6.4,6.4,0,0,0-2.21-1.42c-1.16-.37-2.06.1-3.19.26-1.57.23-2.66-1.43-2.67-2.8,0-.63-1.47-.12-1.68,0a5.71,5.71,0,0,1-3.81.47,3,3,0,0,0-1.42-.09c-.4.09-.78.24-1.17.36l-5.45,1.69-9.48,2.94c-.43.13-1.47.84-.51,1,6.52,1.46,12.83,3.8,19.43,4.93,3.18.54,6.41.8,9.43,2.05,1.38.57,2.68,1.28,4.08,1.81a37.26,37.26,0,0,1,4.33,1.8c.39.21,2.1-.09,1.87-.77-.82-2.46-1.65-4.91-2.51-7.36-.25-.7-2.32-.1-2.09.56.87,2.44,1.69,4.9,2.52,7.36l1.87-.78a36.4,36.4,0,0,0-4.32-1.8c-1.47-.55-2.84-1.31-4.29-1.9a42.81,42.81,0,0,0-9.16-2c-6.76-1.09-13.21-3.51-19.87-5l-.51,1,10.17-3.15,5.34-1.66a2.21,2.21,0,0,1,.5-.15l.11,0c-1.05.08.72.34.88.35a9.91,9.91,0,0,0,5.34-1.13H287.7a3.48,3.48,0,0,0,2.36,3.2,4,4,0,0,0,2,.18c.84-.11,1.56-.56,2.39-.25,1.13.43,1.94,1.6,2.93,2.26a3.44,3.44,0,0,0,3.08.43l-1-.66c-1.57,1.48.08,3.22,1.55,3.92C301.6,131.91,303.52,131,302.68,130.64Z"/><path class="cls-20" d="M261.88,161.49s21.92-2.2,36.71,1.44"/><path d="M300.94,235.71c-.53,2.1-.15,4.15-1.25,6,.75.25.43,1.46-.17,2s-1.42,1.13-1.26,1.93c.06.28.24.52.29.8.16.88-.9,1.41-1.74,1.64.57.46.08,1.4-.49,1.86s-1.31,1-1.12,1.76c.09.36.41.64.39,1,0,.77-1.24.76-1.65,1.4-.24.37-.14.86-.24,1.29a1.39,1.39,0,0,1-2.13.72c-.17,1.55-.84,3.55-2.36,3.47-.94-.06-1.83-1-2.69-.6-.54.24-.78.9-1.27,1.22-1.66,1.08-3.69-2.48-5.35-1.4-.89.58-.87,2.18-1.87,2.52s-1.78-.81-2.77-.92-2.19,1-3.15.46c-.42-.22-.64-.69-1-1-.81-.72-1.64.37-2.67.69-1.84.58-2-.78-2-.78-.54-1.32-1.25-1.22-2.47-.52a3,3,0,0,1-1.25.6c-1.13.05-1.66-1.86-2.79-1.76a3.64,3.64,0,0,0-1.13.53c-1.38.64-3.07-1.25-2.32-2.6a3.21,3.21,0,0,1-3-3.5,2.89,2.89,0,0,1-3.59-2.58c-1.89.53-3.87-1.77-3.13-3.63a2.27,2.27,0,0,1-2.9-2.15c0-.74.34-1.68-.26-2.09-.4-.28-.93-.1-1.41-.1a1.86,1.86,0,0,1-1.51-2.56c-1.88.47-3.6-2.21-2.44-3.79a2,2,0,0,1-1.89-3,3.07,3.07,0,0,1-2.23-4.55l23.25,24.68,6,2.84s21.36,2.07,25.4.22S300.94,235.71,300.94,235.71Z"/><path d="M299.92,235.89c-.46,2-.24,4.14-1.25,6a.11.11,0,0,0,.05.17c1.3.73-.75,2.16-1.16,2.73a1.51,1.51,0,0,0-.34,1c0,.83.79,1.6-.5,2-.17.05-1.17.34-.88.69.8,1-1,1.83-1.4,2.49a1.41,1.41,0,0,0-.29.66c0,.45.29.67.34,1.06.09.87-.81.82-1.32,1.35a5,5,0,0,0-.63,1.78c-.34-.23-1.92,0-2,.53a6.32,6.32,0,0,1-.68,2.34,1.68,1.68,0,0,1-.42.56c.27-.19.71.13-.32-.28a4.79,4.79,0,0,0-1.22-.43,3.66,3.66,0,0,0-2.1.4,2.72,2.72,0,0,0-.69.52,2.12,2.12,0,0,0-.38.46c-.29.24-.28.29.05.16s.35-.08.05-.13A11,11,0,0,0,283,258.8a3.61,3.61,0,0,0-1.6-.61,3.24,3.24,0,0,0-3.23,1.77,7.73,7.73,0,0,0-.53,1c-.1.43.21-.07.13-.23s-.41-.24-.54-.31a3.28,3.28,0,0,0-2.1-.43,6.18,6.18,0,0,0-1.2.29c-.64.22-.85.25-1.36-.25s-.93-.94-1.83-.83a6.36,6.36,0,0,0-2.11.8c-.76.37-.87.07-1.15-.51-.69-1.42-1.89-1.37-3.25-.83a10.51,10.51,0,0,1-1.2.62c-.44.1.21.13-.08-.07a3.27,3.27,0,0,1-.47-.44,2.82,2.82,0,0,0-1.64-1.13,3.17,3.17,0,0,0-1.29.17c-.27.08-.76.43-1,.43-1,0-1.39-1.71-1.08-2.41.09-.21-.23-.25-.36-.26a3,3,0,0,1-2.66-3.35c0-.32-1.06-.08-1.12-.06-1.31.34-2.37-1.51-2.47-2.51,0-.25-.73-.15-.84-.12-1.7.34-2.71-2.13-2.3-3.42.14-.43-1-.19-1.11-.16-.84.24-1.68-1.14-1.77-1.78s.35-1.58-.1-2.23-1.17-.39-1.8-.44a1.66,1.66,0,0,1-1.31-2.28c.14-.37-.72-.24-.83-.23-.73.13-1.46-.83-1.71-1.38a2.18,2.18,0,0,1,.11-2.18c.16-.27-.5-.26-.58-.26-1.38.18-1.85-1.86-1.31-2.75.12-.21-.26-.25-.36-.26-1.95-.2-2.78-2.77-1.88-4.3l-2,.53,11.11,11.8,7.84,8.33,2.76,2.93a15.19,15.19,0,0,0,1.46,1.54,12.28,12.28,0,0,0,2.41,1.19,19.83,19.83,0,0,0,4,1.81,51.26,51.26,0,0,0,7.12.57c4.29.28,8.59.51,12.89.39,2.77-.07,6.07-.09,8.19-2.14,3.11-3,5.16-7.36,7.11-11.14,1.39-2.68,2.73-5.4,4-8.16.16-.36-1.79-.19-2,.35-2.62,5.86-5.44,11.92-9.24,17.12a8.87,8.87,0,0,1-2.49,2.63,12.35,12.35,0,0,1-3.91.46,121.77,121.77,0,0,1-12.38-.33c-2.59-.16-5.21-.3-7.79-.6-.28,0,.33.12.17,0s-.39-.18-.58-.27l-2.38-1.12a18,18,0,0,1-3-1.45,9.31,9.31,0,0,1-1.1-1.16l-2.52-2.67-7.3-7.76-12.31-13.07c-.37-.39-1.77.15-2,.53a3.27,3.27,0,0,0,2.58,4.82l-.35-.26c-1,1.73.7,3.48,2.47,3.27l-.58-.26a2.61,2.61,0,0,0,.3,3.08,2.93,2.93,0,0,0,3,.93l-.83-.22a2.08,2.08,0,0,0,.76,2.47,2.63,2.63,0,0,0,1.22.34c.35,0,1,0,1.24.41a2.08,2.08,0,0,1,0,1c-.2,2.42,1.77,3.5,4,2.88l-1.11-.16c-.8,2.51,1.66,4.31,4,3.85l-.85-.12c.24,2.41,2.66,3.16,4.71,2.63l-1.12-.06a3.48,3.48,0,0,0,3.39,3.67l-.35-.26a2.24,2.24,0,0,0,2.37,3,4.56,4.56,0,0,0,1.71-.49c.21-.1.4-.06.2-.13s.49.62.62.75a3,3,0,0,0,.94.81,2.88,2.88,0,0,0,2.12-.09c.41-.15.84-.6,1.25-.68s.31-.15.59.37c.06.13.1.28.16.4.64,1.21,1.87,1.14,3.11.76a9.89,9.89,0,0,0,1.26-.53c.57-.26.34-.1.83.41a2.35,2.35,0,0,0,2.48.55c.41-.09.81-.33,1.22-.39.6-.09,1,.28,1.5.54a3,3,0,0,0,2.3.21,2.7,2.7,0,0,0,1.66-1.19c.22-.36.33-.77.55-1.13l.06-.12q.6-.6-.3-.18l.63.26c1.34.68,2.31,1.78,3.94,1.47.51-.1,2.26-.68,2.24-1.39l.1-.12c-.53.11-.46.23.2.36.22.09.42.18.65.25a3.23,3.23,0,0,0,1.45.1c2.17-.31,3-2,3.29-4l-2,.53a3.13,3.13,0,0,0,3-.13,2,2,0,0,0,1-1c.14-.36,0-.77.16-1.12s.47-.5.8-.68a1.9,1.9,0,0,0,.93-.79c.34-.86-.72-1.29-.05-2.23s2.27-1.59,1.27-2.81l-.88.69c.86-.25,2.24-.67,2.61-1.61.27-.71-.41-1.28-.16-2s1-1,1.38-1.49a1.86,1.86,0,0,0,.41-1.39c0-.16-.25-.35-.27-.48-.06-.35.24-.75.34-1.07.5-1.56.38-3.27.75-4.86C302.07,235.06,300,235.36,299.92,235.89Z"/><path d="M226.07,189.82c2.17-2.13-.52-6.21,1.15-8.75.39-.59,1-1,1.32-1.65.91-1.76-.7-4,.06-5.84.33-.82,1.11-1.42,1.38-2.27.51-1.61-1-3.25-.83-4.94.2-1.9,2.48-3.5,1.75-5.26-.35-.87-1.34-1.36-1.65-2.23-.53-1.54,1.2-3.54,0-4.67-.41-.39-1-.5-1.39-1-.66-.91.46-2,.9-3.07s.13-2.32.27-3.49,1.22-2.43,2.29-1.95c-.63-1.83.5-6.82,2.43-6.6,1,.11,2.17.57,2.67-.25.36-.58,0-1.38.26-2,.76-1.56,3.44.77,4.82-.28.37-.28.54-.76.86-1.11a2.93,2.93,0,0,1,3-.42,7.07,7.07,0,0,0,3.11.57c1.05-.19,1.94-1.48,1.3-2.33a8.32,8.32,0,0,0,3.47,1.37,2.86,2.86,0,0,0,3-1.78,2.5,2.5,0,0,0,4.16,1.07c.45-.56.76-1.39,1.47-1.47a1.66,1.66,0,0,1,.91.26c1.25.68,2.93,4.53,3.62,5.78l-.56-7.78-21.73-3.09-17.9,10.68L219.55,160,227,191.27"/><path d="M227,190.15c2.16-2.37.14-5.37.87-8.06a6.88,6.88,0,0,1,1.41-2.05,3.48,3.48,0,0,0,.65-2.18c0-1.89-.92-3.37.31-5.08a4.16,4.16,0,0,0,.48-4.37,4.08,4.08,0,0,1-.34-2.63,12.1,12.1,0,0,1,1.12-2.1c.76-1.37.9-2.67-.19-3.89-.57-.65-1.11-1.12-1-2s.44-1.53.5-2.33a2.1,2.1,0,0,0-.65-1.82c-.31-.27-1-.45-1.23-.8s.12-1,.33-1.36a5.55,5.55,0,0,0,.92-2.81c0-.58-.06-1.18,0-1.77,0-.23.28-1.49.65-1.38.57.18,1.89-.16,1.64-1a6.39,6.39,0,0,1,.1-3.19,6.89,6.89,0,0,1,.55-1.58c.1-.2.28-.39.37-.59s.41-.26,0-.18c.61-.13,1.43.28,2.09.22a2.59,2.59,0,0,0,1.63-.69,2.18,2.18,0,0,0,.52-1.61c0-.28.26-.89-.1-.7.17-.09.68.14.86.18a5,5,0,0,0,3.17.15,3.34,3.34,0,0,0,1.27-1.06c.35-.42.45-.65,1-.74a4,4,0,0,1,1.59.34c1.42.44,3,.81,4.34-.09a2.26,2.26,0,0,0,1-3.05L249,133c1.53.88,3.15,1.73,5,1.49a4,4,0,0,0,3.29-2.38l-2,.14c.7,2.72,4.56,3,6.17,1,.14-.18.43-.85.64-.91-.25.07.3.36.42.48a8.39,8.39,0,0,1,1.11,1.61c.69,1.19,1.26,2.44,1.9,3.66.36.68,2.07.24,2-.54l-.55-7.79a.73.73,0,0,0-.7-.7l-21-3a2.84,2.84,0,0,0-2,.29c-1.35.78-2.69,1.61-4,2.41l-11.4,6.8c-.71.42-2.15,1-2.58,1.73a12.69,12.69,0,0,0-.72,2.44l-3.81,12.85L219.1,158a7.31,7.31,0,0,0-.59,2.28,14,14,0,0,0,.54,2.28l1.21,5.1,5.55,23.38.12.5c.24,1,2.33.44,2.09-.56l-5.6-23.56-1.35-5.68c-.12-.52-.21-1.06-.37-1.57s.05-.43-.14-.09a18.52,18.52,0,0,0,1.06-3.59l2.1-7.08,3.53-11.91-.53.51,15.93-9.51c.35-.2,1.81-.77,2-1.17-.1.25-1.1-.06-.67.16a1.3,1.3,0,0,0,.44.06l1.53.22L257,129.35l8.54,1.22-.71-.71.56,7.78,2-.54c-1-1.91-1.89-4.84-3.87-6a2.55,2.55,0,0,0-3.41.77c-.44.56-.61,1.15-1.44,1a1.63,1.63,0,0,1-1.34-1.27c-.23-.86-1.8-.53-2,.15-.78,2.13-3.38.67-4.67-.07-.67-.39-2.31.09-1.76,1.08.38.66-.31,1.08-.88,1.1a6.12,6.12,0,0,1-1.76-.47,6.6,6.6,0,0,0-2.16-.34,3.88,3.88,0,0,0-1.86.55,2.73,2.73,0,0,0-.67.55c-.16.17-.41.75-.61.86-.67.37-2.21-.49-3-.49a2.22,2.22,0,0,0-2.29,1.53,3.31,3.31,0,0,0-.07.89c0,.57.09.48-.41.54s-1.07-.22-1.62-.15a3.13,3.13,0,0,0-2.25,1.64,8.18,8.18,0,0,0-1,6l1.64-1a3,3,0,0,0-3.59,1.6,5.51,5.51,0,0,0-.38,2.7,6,6,0,0,1-1,3.15,2.23,2.23,0,0,0-.22,2c.37.78,1.48.86,1.77,1.6s-.23,1.68-.37,2.37a3,3,0,0,0,.25,2.23c.41.7,1.33,1.2,1.5,2s-.51,1.75-.92,2.45a4.93,4.93,0,0,0-.51,4.66c.35,1,.75,2,.17,3a7.83,7.83,0,0,0-1.3,2.39c-.33,1.72,1,3.77,0,5.33a10.34,10.34,0,0,0-1.56,2.26,6.24,6.24,0,0,0-.23,2.43c.11,1.69.87,3.92-.41,5.33-.89,1,1.09,1.37,1.75.65Z"/><path d="M225.76,204l1.85.21a.92.92,0,0,0,.57-.06c.41-.25.18-.87,0-1.33-.28-1.08.32-2.17.8-3.18s.79-2.31.06-3.16c-.38-.44-1-.74-1.11-1.32-.08-.77.87-1.16,1.38-1.73a1.88,1.88,0,0,0-.83-2.9,5.35,5.35,0,0,0,.87-4.38c-.48-2.91-1.33-6-1.33-6l-4.34-2.44Z"/><path d="M225.41,204.72c1.34.15,4.21.74,4-1.49a7.22,7.22,0,0,1-.18-1.55,6.45,6.45,0,0,1,.67-1.77,5,5,0,0,0,.62-2.79,2.58,2.58,0,0,0-.5-1.15c-.22-.27-.75-.52-.88-.82-.28-.65,1.05-1.3,1.35-1.86a2.51,2.51,0,0,0-1.39-3.52l.27,1c2.38-2.7.65-7.37-.12-10.36-.27-1-.81-1.2-1.73-1.72l-3-1.7c-.69-.39-1.92,0-1.85.89L224.47,201l.25,3.26c.08,1,2.17.47,2.09-.56L225,180.61l-.25-3.26-1.85.89,2.49,1.4c.48.27,1,.59,1.46.83a3,3,0,0,0,.35.19c-.23-.07-.19-.48-.11,0,.28,1.91,1,3.76,1.23,5.68a4.9,4.9,0,0,1-.7,3.79.62.62,0,0,0,.28,1,1.28,1.28,0,0,1,.74,1.43c-.13.57-.71.83-1.1,1.22a1.62,1.62,0,0,0-.11,2.44c.47.49,1,.78,1,1.55a5.93,5.93,0,0,1-.8,2.4,5.88,5.88,0,0,0-.55,1.8c0,.33.36,1.56.19,1.74l.68-.41a6.69,6.69,0,0,1-1.86-.19C225.08,203.07,224,204.57,225.41,204.72Z"/><path d="M298.13,134.6c-.26.6.56,1.09,1.22,1.17s1.5.2,1.61.85c.06.4-.23.79-.16,1.19.2,1.22,2.56.2,3.21,1.25.48.8-.53,2.07.19,2.66.33.29.84.18,1.28.22a1.88,1.88,0,0,1,1.63,1.38c.13.56,0,1.18.33,1.66s1.17.66,1.79,1c1.65.77,2,2.91,2,4.72s0,3.89,1.42,5.07c1.27-1.09-.09-2.21-1.1-3.55a9.54,9.54,0,0,1-.94-1.18,1.15,1.15,0,0,1,.13-1.4c.19-.15.47-.22.59-.44.32-.63-.88-.8-1.44-1.23s-.28-1.67.26-2.38,1.18-1.64.72-2.4-1.45-.73-1.86-1.4.13-1.75-.07-2.62c-.27-1.15-1.72-1.49-2.9-1.6a1.85,1.85,0,0,0-.8-2.82c-.44-.15-1-.14-1.28-.5-.43-.54,0-1.51-.5-2s-1.2,0-1.67-.37c-.76-.55.16-1.83-.25-2.66-.56-1.1-3-.67-2.85-1.9"/><path d="M297.09,134.73c-.24,1.25,1.16,1.46,2.05,1.66,1.21.28.36,1.14.68,1.91a1.25,1.25,0,0,0,.84.64c1,.35,2.59-.27,2.37,1.36-.16,1.23-.19,2,1.24,2.2,1,.15,1.58.18,1.82,1.27.16.69,0,1.34.6,1.87s1.15.51,1.71.8a2.88,2.88,0,0,1,1.36,1.59c1.07,2.63-.3,5.92,2,8.09.42.41,1.44.14,1.8-.23a1.74,1.74,0,0,0,.36-2.41,15.69,15.69,0,0,0-1.32-1.72c-.33-.4-1.26-1.19-1-1.8s1.35-.82.75-1.65-2.14-.58-1.52-2.09c.4-1,1.6-1.83,1.32-3s-2-1.09-2.16-2.26.48-2-.38-2.94a4.58,4.58,0,0,0-2.83-1l.33.59a2.21,2.21,0,0,0-.68-3.23,7.52,7.52,0,0,0-.8-.27c-.89-.35-.66-.55-.74-1.29a1.24,1.24,0,0,0-.93-1.22c-.36-.11-.75,0-1.06-.22s-.23-.63-.17-1.1a2,2,0,0,0-.24-1.6c-.58-.71-2.64-.65-2.66-1.59,0-.65-2.1-.25-2.08.56,0,1.11,1.42,1.16,2.2,1.47,1.48.6.07,2,.79,3,.37.51.93.36,1.44.54,1,.33.38,1.15.84,1.86s1.15.45,1.75.83a1.58,1.58,0,0,1,.4,2.19c-.2.27,0,.55.33.59.91.1,2.23.25,2.5,1.31s-.46,1.88.14,2.75,2.23.86,1.87,2.16c-.28,1-1.31,1.65-1.43,2.76a1.48,1.48,0,0,0,.9,1.55c.15.08.92.31.93.53a9.35,9.35,0,0,0-.77.72c-1,2,3.77,4.14,2.27,5.68l1.81-.24c-2.2-2.12-.74-5.57-1.94-8.13a4,4,0,0,0-2.48-2.06c-1.48-.57-.69-2.41-2-3.3a3.33,3.33,0,0,0-1.4-.47c-1.22-.26-.8-.64-.71-1.6s-.52-1.59-1.51-1.76c-.43-.08-1.14.07-1.52-.12-.6-.31,0-1.22-.23-1.78-.41-.86-2.91-.74-2.74-1.62s-1.95-.45-2.08.26Z"/><path d="M245.09,186.63l1.31,4.11c.74,3.19,3.79,9.46,4.86,11.2,1.52,2.43,18.7,3.77,22.12,1.93s5.5-11.44,6.44-13.65l6.87.55c.56,2.9,2.53,12.1,3.81,13.37s9.18,1.24,10.07,1.23,1.77,0,2.9-.09c3-.13,6.62-.54,7.75-1.59,1.69-1.56,3.62-7.64,5.29-13.4l.27-.9c.06-.22.14-.37.14-.43h0l.3-1c-9.82-4.88-22.83-4.43-30.84,1.06l.06.1-6.71-.56c-7.48-5.12-20.53-8.13-30-4.8h0l-26.35,6.63-.14,2.52Zm46.24,16.59c-.8-.79-2.38-7.24-3.44-12.25,7-4.64,18.69-5,27.48-1.16v.13c-.9,3.08-3.28,11.29-4.94,12.83-2,1.81-17.69,1.7-19.09.48Zm-38-1.92c-2.68-3.76-4.83-9.69-6.17-14.73,8.41-3.51,23.67-1,31,3.87-1.27,4-2.9,11-5.35,12.32-3.53,1.9-18.52.08-19.47-1.46Z"/><path d="M262.14,222a4.37,4.37,0,0,0-1.93,2.64,4.5,4.5,0,0,0,.1,1.21l.32,1.85a.67.67,0,0,0,.12.35.7.7,0,0,0,.36.19,3,3,0,0,0,1.29.18,1,1,0,0,0,.89-.82,1.54,1.54,0,0,1,0-.53c.15-.31.6-.25.94-.33.86-.18,1.08-1.26,1.48-2a4.51,4.51,0,0,1,2.79-2.05,8.26,8.26,0,0,0,1.7-.56,1.7,1.7,0,0,0,1-1.4"/><path d="M299.64,223.11a4.42,4.42,0,0,1,1.69,2.8,4.5,4.5,0,0,1-.2,1.2l-.48,1.82a.51.51,0,0,1-.53.49,2.82,2.82,0,0,1-1.29.07,1,1,0,0,1-.82-.89c0-.18.06-.37,0-.53-.12-.33-.58-.31-.91-.41-.84-.26-1-1.36-1.29-2.17a4.52,4.52,0,0,0-2.61-2.27,8.64,8.64,0,0,1-1.65-.71,1.71,1.71,0,0,1-.86-1.48"/><path d="M263.84,220.44c.32-.39.45-.54.94-.53a4.42,4.42,0,0,0,1.35-.2,2.4,2.4,0,0,0,1.06-.61c.12-.14.2-.31.31-.46a1.52,1.52,0,0,1,.26-.35q.27-.24-.3,0a10.79,10.79,0,0,0,1.17.56,2.57,2.57,0,0,0,1.17,0,4.63,4.63,0,0,0,1.23-.38c.1,0,1-.63,1-.63l-.63.19a3.92,3.92,0,0,1,.32.25,2,2,0,0,0,.4.23,2.18,2.18,0,0,0,1.16.06,3.74,3.74,0,0,0,2.45-1.41l.17-.17c-.56,0-.7.07-.41.14a2.11,2.11,0,0,0,.69.26,3.12,3.12,0,0,0,3.31-.83c.23-.32-.76-.23-.84-.22a1.9,1.9,0,0,0-1.22.58c.82-.11,1-.21.58-.3l-.34-.14a3.74,3.74,0,0,0-.59-.21,3,3,0,0,0-1.42,0,3.61,3.61,0,0,0-2.23,1.41c-.22.18-.08.17.41,0l-.24-.19a1.24,1.24,0,0,0-.48-.29,2.24,2.24,0,0,0-1.06-.06,4,4,0,0,0-1.28.42c-.2.1-.89.4-1,.6l.52-.17-.45-.23c-.18-.09-.34-.19-.52-.26a2.58,2.58,0,0,0-1.17-.13,3.76,3.76,0,0,0-2.41,1.13,1.9,1.9,0,0,0-.35.49c-.19.22-.13.25.17.1s.38-.09.05-.08a4.58,4.58,0,0,0-1.42.18,4.28,4.28,0,0,0-2.29,1.38c-.28.36.25.38.5.37a2.2,2.2,0,0,0,1.39-.51Z"/><path d="M287.23,218.39c-.67.25-.29,0-.21.1s.25.14.33.19c.25.14.48.31.73.45a4.3,4.3,0,0,0,.83.35,5.81,5.81,0,0,0,1.1.07c.41,0,0-.13.28.08a2.39,2.39,0,0,1,.28.35,1.68,1.68,0,0,0,1,.47,3.54,3.54,0,0,0,2.21-.58c.39-.25-.22,0-.22-.05a1.22,1.22,0,0,0,.18.26,4.07,4.07,0,0,0,.46.75,2.4,2.4,0,0,0,2,.56c.18,0,.47-.11.64,0s.18.42.25.63a1.08,1.08,0,0,0,.67.65,1.49,1.49,0,0,0,.49.13c.29,0,0,.11,0-.09.16.9,2.25.37,2.08-.56a.87.87,0,0,0-.64-.64c-.14-.05-.46,0-.55-.11s.09.11,0-.18a1.83,1.83,0,0,0-.48-.87,2.23,2.23,0,0,0-1-.38,4.58,4.58,0,0,0-1.17,0c-.4,0-.47,0-.67-.38-.37-.63-.67-1.12-1.48-1.19a2.88,2.88,0,0,0-1.49.35c-.12,0-.48.16-.53.25l-.08,0c.22.05.25,0,.08-.14-.42-.89-1.39-.7-2.15-.76-.56,0-1-.54-1.53-.79a2.71,2.71,0,0,0-2.31-.08c-.38.15-.79.62-.51,1s1,.26,1.41.11Z"/><path class="cls-20" d="M288.42,175.47s-7.09,3.11-1,7.82A5.88,5.88,0,0,1,288.42,175.47Z"/><path class="cls-20" d="M279.83,175.17s6.44,3.44-.17,7.85C279.66,183,283.34,179.22,279.83,175.17Z"/><path d="M283.48,223.49c-4.93-.3-16,2-18.31,3.79,0,0,5.44,6.31,16.87,7s13.53-5.14,13.53-5.14S289.76,223.88,283.48,223.49Z"/><path class="cls-21" d="M270,225.46s5.9-.11,10.58.18,10.52,1.12,10.52,1.12,1-3.43-7.52-4S270,225.46,270,225.46Z"/><path class="cls-17" d="M282.35,233.07c-5.31-1.09-10.91-5.79-17.18-5.79,0,0,1.57,9.63,15,10.46s15.39-8.58,15.39-8.58C289.35,228.38,287.75,232.64,282.35,233.07Z"/><path class="cls-17" d="M289.49,221.2c-2.81-.38-4.67.57-5.89.5s-3-1.25-5.79-1.22c-2.66,0-14.25,5.78-13.05,6.69s10.17-3.28,18.67-2.76,11.25,5.44,12.56,4.68S292.12,221.56,289.49,221.2Z"/><path d="M280.66,218.42l-.69,2.86a1.06,1.06,0,0,1-.93.81c-3.1.27-14.86,1.29-17.65,1.12-.06,0,.19,1.17.13,1.15l-.65-.08c-1-.25-.11-3.71.9-4.05a60.24,60.24,0,0,1,7.49-2c2.1-.38,7.93-1.26,10.44-1.1A1.06,1.06,0,0,1,280.66,218.42Z"/><path d="M284.27,218.91l0,2.68a1.06,1.06,0,0,0,.8.89c2.85.58,12.15,2.51,14.74,2.62l.17,0,.84-.13c1-.15.53-2.33-.38-2.77a45.93,45.93,0,0,0-6-2.57,51,51,0,0,0-9.1-1.91A1,1,0,0,0,284.27,218.91Z"/><path class="cls-4" d="M210.72,526.8l-15.55-6.67s8-1.23,7-5.35c0,0-20.82-6.88-22.73-6.09s-9.13,3.41-9.13,3.41a70.86,70.86,0,0,1-7.1,6.11,16.91,16.91,0,0,1-8.2,3.47,13.19,13.19,0,0,1-4.09-1l-31.58-81.63S92.47,454.37,91.48,455s19.38,60.31,45.47,86.74l.21-.08c1.11,1.59,5,6.89,8,8.16,10.71,4.53,26.18-5.68,26.18-5.68l5.27-.39s18.79,5.76,21.16-.11l.4-1.7-18.36-6.66-7.21-.62,13.14-1.56s17.84,3.59,19.59,3.53,4.19-2.21,3.85-3.86l-2.31-2.07S210.25,529.5,210.72,526.8Z"/><path class="cls-17" d="M207.71,531.46a5.64,5.64,0,0,1-1.48-.61l-3.95-1.79c-3.38-1.45-8.08-3.38-13.28-5.42a11.47,11.47,0,0,0-1.89-.67,5.13,5.13,0,0,0-1.86-.28c-1.24.17-2.52.41-3.68.66-2.35.46-4.46,1-6.29,1.44a36.61,36.61,0,0,0-4.06,1.38c-1,.38-1.45.63-1.48.6a3.81,3.81,0,0,1,1.34-.88,24.88,24.88,0,0,1,4-1.64,52.67,52.67,0,0,1,6.32-1.67c1.19-.24,2.42-.52,3.75-.71a6.86,6.86,0,0,1,2.12.15,14.14,14.14,0,0,1,2,.72c5.2,2,9.89,4,13.22,5.68,1.63.79,2.86,1.46,3.86,2A6.83,6.83,0,0,1,207.71,531.46Z"/><path class="cls-17" d="M195.17,520.58a30.91,30.91,0,0,0-3.36-1.86,19.6,19.6,0,0,0-8.89-2.07,19.92,19.92,0,0,0-8.73,2.15c-2.09,1.06-3.31,2-3.3,1.92a9.36,9.36,0,0,1,3.06-2.44,18,18,0,0,1,18.05-.09A9.8,9.8,0,0,1,195.17,520.58Z"/><path class="cls-18" d="M172.58,269.22l-20.66,10.84C129.44,293,70,406.47,74.55,428.6c5.13,25.15,41.27,99.7,41.27,99.7S157,514.6,153.18,498,130,426.32,130,426.32s45.28-70,50.69-79.6C187.22,335.2,215.34,271.05,172.58,269.22Z"/><path class="cls-22" d="M170.33,286c3,1.24,5.69,3.93,7.64,6.53,5.53,7.36,6.58,17.18,5.58,26.08-1,9.3-4.27,18.35-7.81,27a267.1,267.1,0,0,1-12.18,25.36c-2.36,4.37-4.79,8.71-7.41,12.94-.59,1,2,.64,2.47,0a272.72,272.72,0,0,0,18.49-35.58c3.83-8.9,7.33-18.21,8.81-27.83,1.39-9.07.82-19.06-4.17-27-2.16-3.46-5.4-7-9.27-8.62a2.34,2.34,0,0,0-1.89.28c-.32.19-.85.68-.26.93Z"/><path class="cls-22" d="M130.81,425.44a39.56,39.56,0,0,0-6.73-1.2c-4-.37-8.41-.29-12,1.56a9.72,9.72,0,0,0-4.64,4.8c-.59,1.38,2.1,1.33,2.55.27,2.7-6.38,12-5.2,17.44-4.11.53.1,1.18.24,1.87.43a1.89,1.89,0,0,0,1.89-.5.73.73,0,0,0-.33-1.25Z"/><path class="cls-22" d="M338.14,316.83l-.43,10.76-1,25.84-1.24,31.28-1.07,27.06-.36,9c-.05,1.39-.21,2.82-.16,4.21,0,.06,0,.13,0,.19,0,1.3,2.65.86,2.69-.25l.43-10.75,1-25.85L339.23,357,340.3,330l.36-9c.06-1.38.21-2.81.17-4.2a1.21,1.21,0,0,1,0-.19c.06-1.3-2.65-.86-2.69.24Z"/><path class="cls-22" d="M371.76,364.21c-7.42,5.76-12.92,15.31-12.09,24.85.11,1.19,2.79.55,2.68-.72-.77-8.74,4.49-17.75,11.18-22.94,1.43-1.11-.73-2-1.77-1.19Z"/><path class="cls-22" d="M147.18,482l6.4,19.89.92,2.87.47-.92-8.52,7c-1.4,1.15.76,1.93,1.74,1.12l8.52-7c.26-.22.59-.54.47-.92l-6.41-19.89-.92-2.87c-.37-1.16-3-.42-2.67.71Z"/><rect class="cls-23" x="842.41" y="939.52" width="133.07" height="58.06"/><path class="cls-21" d="M932.15,216.3c-6.07-5.15-13.95-5-20.28.28-.63.53-1.27,1-2.07,1.67-.55-18.72-16.91-30.64-31.88-20.74-.29-1.23-.57-2.41-.86-3.58-4-16.11-19.42-24.39-32.4-17.17a4.48,4.48,0,0,1-2.25.71v74.8h12.74c22.32,0,44.64,0,67,0,7.74,0,14.11-5.61,16.34-14C940.62,230.08,938.12,221.38,932.15,216.3Z"/><path class="cls-24" d="M732.84,388.48l-.62-.76c-5.17-2.94-9.63-3.48-13.36-.41,0,0-6.82-4-14.29,4.5-6.49,7.36-5.06,12.69-5.06,12.69s-4.84,1.54-6.07,3.64c-2.76,4.72-3.27,14.13.93,15.75s4.4,3.7,4.4,3.7a73.27,73.27,0,0,0,10,3.19c3.54.64,9.23-2.48,9.23-2.48s7.83,1.82,10.39.32,4.48-7,4.48-7,8.34.22,9-6c0,0,3.31-3.23-.24-8.09a17.26,17.26,0,0,0-3.38-3.36s1.58-1.63,1.29-6.56C739.4,395.47,736.77,390.71,732.84,388.48Z"/><path class="cls-25" d="M733.29,388.3a7.5,7.5,0,0,0-3.14-2,14.83,14.83,0,0,0-4.48-1.22,10,10,0,0,0-7.19,2.21l.84-.13c-2.57-1.48-6-1.19-8.67-.15a18.77,18.77,0,0,0-7.6,6.13,19.29,19.29,0,0,0-3.93,7.87,8.49,8.49,0,0,0-.1,3.65l.43-.33a19.15,19.15,0,0,0-4.6,2.11c-1.9,1.25-2.72,3.14-3.31,5.27-1,3.44-1.84,10.28,2.14,12.29,1.49.76,4.36,1.69,4.61,3.75,0,0,.05.07.09.09a77.41,77.41,0,0,0,8,2.73,11.18,11.18,0,0,0,4.67.45,20,20,0,0,0,4.77-1.43q.87-.36,1.71-.78a2.93,2.93,0,0,0,.56-.28c.4-.32-.25.35-.39,0,.14.31,2.42.46,2.73.51,2.5.39,5.9,1,8.22-.32s3.8-4.71,4.68-7.2l-.68.31a13.47,13.47,0,0,0,5.35-1,7.72,7.72,0,0,0,3.11-2.24,5.92,5.92,0,0,0,1-1.81,6.55,6.55,0,0,1,.43-1.42,6.65,6.65,0,0,0,1.22-3.24,8.39,8.39,0,0,0-2.55-5.85,15.34,15.34,0,0,0-1.28-1.27c-.13-.12-1.2-.87-1.2-.87s.36-.55.43-.69a10.12,10.12,0,0,0,.91-4.47c.08-4.38-3.1-8.51-6.76-10.67-.27-.16-1.11.23-.91.36,3,1.74,5.82,5,6.56,8.42.42,1.92.35,5.49-1.14,7.09a.12.12,0,0,0,0,.17c2.52,2,5.46,5,4.93,8.51a5.56,5.56,0,0,1-1,2.44,4.64,4.64,0,0,0-.58,1.63c-1,3.3-4.89,4.51-8,4.44-.19,0-.6.1-.68.31a19.76,19.76,0,0,1-2.71,5.29,4.32,4.32,0,0,1-3.08,2,17.81,17.81,0,0,1-4.06-.13c-1.07-.12-2.14-.29-3.2-.5a3.92,3.92,0,0,0-1.26-.21,5.84,5.84,0,0,0-1.51.68,23.39,23.39,0,0,1-3.89,1.47c-3.08.83-5.86-.14-8.79-1.12-1.19-.41-2.38-.83-3.57-1.28a5.36,5.36,0,0,1-.94-.36c-.29-.17-.06,0-.14-.08a12.38,12.38,0,0,0-.77-1.36,8.94,8.94,0,0,0-3.29-2.18c-2.39-1-3.14-3.29-3.35-5.75a18.05,18.05,0,0,1,1.65-9.18c1.11-2.32,3.81-3.47,6.08-4.21.12,0,.48-.15.43-.33a8.29,8.29,0,0,1,.12-3.64,20.37,20.37,0,0,1,5.23-9.29c3.13-3.4,8.66-6.49,13.07-3.95a.83.83,0,0,0,.84-.13,8.36,8.36,0,0,1,7.44-1.56c2,.46,4.39,1.26,5.69,2.86C732.57,388.88,733.5,388.55,733.29,388.3Z"/><path class="cls-4" d="M701.34,392.19s-4.23,25.83.63,34.27c1.27,2.21,8.54,8.82,8.54,8.82L694.74,441c-16.29,9.66-12.14,16.11-30,9.74l-6-7.09s2.46-3.82,2.74-6.82.74-39.05.74-39.05"/><path class="cls-4" d="M703.24,397.82l-1,11.27a54.29,54.29,0,0,0,0,11.68l.83,7.49,7.55,11.51s-43.11,36.37-53.53,31.79-9.47-28.63-6.3-31.09,13.3-7.91,13.3-7.91l5.06.91-2.79-10.26Z"/><path class="cls-26" d="M706.63,430.05S695,453.78,674,451.63s-15.14-16.35-15.14-16.35c-3.95,1.57-31.31,9.64-31.31,9.64s-9.15,30.15-11.12,52.87,7.79,37.2,7.79,37.2l-5.37,49.47,40.42,27.72,67.45-14.66a337.71,337.71,0,0,1,10.75-66.32c9.63-36.35,6.5-37.54,5.92-52.84s-.72-33.49-3.64-32.79l-29.59-14"/><path class="cls-4" d="M688.62,954.35s-34.47,36.52-44.39,39.38-8.35-6.62-8.35-6.62,14.1-23,24.41-31.76c3.89-3.3-48.68-107.34-48.68-107.34L653,830.42,665.92,873l17,75.39Z"/><path class="cls-4" d="M713.85,976.58s-43,25.9-53.34,26-9.1-7-9.1-7,20.71-21.07,33.86-26.69c4.68-2-15.72-131.1-15.72-131.1l50.11,4L710,969.33Z"/><path class="cls-4" d="M673.82,908c-9.4,4-19.33,5.79-29.35,7.27,9.68,20.72,17.33,38.5,15.76,39.84-10.32,8.78-28.12,29.31-28.12,29.31s2.14,11.92,12.06,9.07,44.39-39.38,44.39-39.38l-5.66-5.94Z"/><path class="cls-27" d="M675.19,412.34s3.31,11,23,15.09c0,0,4.55,1.21,5.27.74l-.31-5.8Z"/><path class="cls-28" d="M731.59,387.94s12.22,4.29,12,12.53l-.84,5.69s5.7,1.6,5.11,5.63"/><path class="cls-29" d="M647.12,363.89s-13.61-39.29,11-39.91a16.53,16.53,0,0,1,6.86-6.91c6-3.33,11.79.55,11.79.55s5.47-4.63,10.76-3.6,7.25,4.14,7.25,4.14,6.41-2.86,11-.45a24.16,24.16,0,0,1,7.71,7.12s3.92-.5,6.33.74c5.77,2.95,6,16,6.6,20.61,0,0-4.32-15.69-9.49-16.45S665.94,338,665.94,338l-14.48,40.2Z"/><path class="cls-24" d="M618.78,396.19l-.44.87c-.59,5.92.72,10.22,5,12.38,0,.05-1.17,11.74,9.61,15.14,9.35,3,13.65-.51,13.65-.51s3.37,3.8,5.79,4.07c5.43.62,10-4.33,9.82-8.82s.23-12.09.23-12.09a28.41,28.41,0,0,0-.33-8.18c-.85-3.5-5.71-7.61-5.71-7.61s3.25-5.71.84-7.44-8.28-3.48-8.28-3.48-3.12-5.49-9.06-3.57c0,0-4.3-1.72-7.3,3.5a17.39,17.39,0,0,0-1.71,4.45s-2.13-.79-6.52,1.48C622.51,387.36,619.23,391.69,618.78,396.19Z"/><path class="cls-25" d="M618.33,396.18c-.91,1.8-.72,4.18-.42,6.15a9.85,9.85,0,0,0,2.53,5.5,9.57,9.57,0,0,0,1.13,1,7.68,7.68,0,0,1,1.13.71c.38.41.07-.18.19.08,0,.08,0,.25,0,.35.1.89,0,1.82.11,2.73a14.87,14.87,0,0,0,3.69,8.49c3.2,3.43,8.33,4.8,12.88,4.88,2.44,0,5.48-.32,7.48-1.9l-.84.11c2,2.22,4.44,4.4,7.6,4.19a9.93,9.93,0,0,0,8.62-6.79c.59-1.91.25-4,.26-6,0-2.15.09-4.29.19-6.43a58.46,58.46,0,0,0,.16-7.83,11.07,11.07,0,0,0-2.09-5.79,25.3,25.3,0,0,0-3.51-3.87,3.47,3.47,0,0,1-.45-.41c-.14-.2-.06.25,0,.06a5.25,5.25,0,0,1,.63-1.28,9.72,9.72,0,0,0,1.09-4.34c-.1-1.7-1.41-2.36-2.8-3a40.57,40.57,0,0,0-5.37-2.08,7.55,7.55,0,0,1-1.14-.36c-.08,0,.23.22.07,0s-.14-.22-.21-.33a9.25,9.25,0,0,0-2.51-2.44,7.64,7.64,0,0,0-5.29-1.16c-.76.11-.9.31-1.43.25s-1-.19-1.48-.2c-4.7,0-7,4.62-8,8.56l.86-.3c-2.23-.78-5.42.53-7.29,1.62-3.25,1.9-5.3,6.39-5.72,10,0,.38.92.21,1-.12A14.36,14.36,0,0,1,624,387c1.47-1.19,4.84-2.49,6.56-1.89.25.09.79,0,.87-.29.88-3.36,2.89-8.29,7.16-7.86a5,5,0,0,0,1.61.16,7,7,0,0,1,5.43.65,8.66,8.66,0,0,1,2.47,2.24c.31.4.36.62.73.79,1.08.52,2.36.76,3.48,1.19a16.29,16.29,0,0,1,4.56,2.2c2,1.63.14,5.45-.86,7.22a.16.16,0,0,0,0,.2c2.12,1.8,4.38,4.11,5.41,6.74,1.1,2.79.8,6.12.59,9.05s-.28,6.08-.28,9.11c0,1.92.27,3.86-.41,5.7a9.15,9.15,0,0,1-4.17,4.75,6.28,6.28,0,0,1-7-.32,19.52,19.52,0,0,1-3-2.78c-.2-.22-.66,0-.84.11a8.62,8.62,0,0,1-3.45,1.29,19.77,19.77,0,0,1-10.71-1.4c-4.67-1.93-7.43-6.21-8.1-11.11a14.25,14.25,0,0,1-.13-3.39.17.17,0,0,0-.1-.18,8.83,8.83,0,0,1-4.55-5.55c-.63-2.2-1-5.37,0-7.45C619.44,395.79,618.48,395.9,618.33,396.18Z"/><path class="cls-4" d="M664.75,404.73c8,8.53,25.06,18.77,36,20.75,10.7,1.93,14.2-1.68,15.65-3.29,7.94-8.81,13-17.69,15.86-27.88a25,25,0,0,0,.54-8.75c-.38-4.54-1.43-13.24-1.47-17.59-.08-11.08-5.19-20.55-11.5-29.71-13.13-19.1-39.72-18.57-50.83-13-13,6.53-18.63,19.35-19.13,32.85a36.56,36.56,0,0,0,1.55,12.29,39.09,39.09,0,0,1,5,6.57"/><path class="cls-24" d="M719.36,333.82s3,6.63,9.09,20c-1.51-4.26-2.41-10.68-6.18-16.59-13.15-20.61-50.93-17-62-10.94-13,7-17.54,20.65-18,35.22-.2,5.91-.37,9.69,1.5,14.55.08.06,1.15,1.13,1.15,1.13s11.93,2,16,9.13l0-6.28s.26-3.87,3.14-18.33c0,0,.21-2.3,4.06-11.53s8-11.93,8-11.93,19.28-3.6,23.89-3.66S719.36,333.82,719.36,333.82Z"/><path class="cls-25" d="M718.88,334q4.56,10,9.08,20c.14.31,1.08.05,1-.26-1.1-3.17-1.77-6.46-2.87-9.62a29.29,29.29,0,0,0-16.76-18.18c-9.45-4.28-20.35-5.16-30.59-4.31-8.77.72-17.68,2.6-24.5,8.52-10.23,8.88-12.46,22.71-12.6,35.56a28.1,28.1,0,0,0,1.34,9.77,3.06,3.06,0,0,0,2.39,2.17c4.43,1,9.07,2.7,12.49,5.76a13.56,13.56,0,0,1,2.6,3.15c.17.28.94,0,.94-.32,0-2-.09-4.45,0-6.29.11-1.67.43-3.35.69-5,.72-4.46,1.58-8.89,2.45-13.32a43.5,43.5,0,0,1,2.31-7.12c1.94-5,4-10.22,7.67-14.28a15.74,15.74,0,0,1,1.22-1.23c.15-.14.6-.44.66-.54-.08.14-.54.1-.09.05s.79-.14,1.18-.21c6.89-1.26,13.84-2.64,20.82-3.3,3.74-.34,7.56-.27,11.32-.43,3.18-.13,6.36-.26,9.54-.41.35,0,1-.57.38-.54-6.53.3-13.06.52-19.59.75a83.37,83.37,0,0,0-9.94,1.27c-3.74.59-7.47,1.24-11.2,1.92-1.36.24-2.67.25-3.73,1.17-3.1,2.7-5.23,6.56-6.89,10.25a70.68,70.68,0,0,0-4.47,12c-.88,3.6-1.44,7.3-2.08,10.94-.46,2.63-1,5.3-1.2,8-.17,2.18,0,4.4-.05,6.58l.94-.32c-2.54-4.28-7.41-6.66-12-8.13-1.31-.42-2.69-.61-4-1-.05,0-.26-.08-.14,0a10.46,10.46,0,0,1-.84-.87c-.89-1.09-1.17-3.16-1.41-4.53a49.53,49.53,0,0,1-.26-10.47,64.22,64.22,0,0,1,1-9.59,39.43,39.43,0,0,1,7.18-16.94,28.82,28.82,0,0,1,12.43-9.38,53,53,0,0,1,11.79-2.71c10-1.27,20.57-.82,30.09,2.57A34.62,34.62,0,0,1,718,332.66c4.77,4.68,7,10.78,8.75,17.1.39,1.4.77,2.8,1.24,4.17l1-.26q-4.53-10-9.08-20C719.7,333.36,718.75,333.67,718.88,334Z"/><path class="cls-4" d="M663.12,399.17c-5.47,5.89-10.34-3-10.34-3A27.26,27.26,0,0,1,645.83,378c.1-4.75,5.33-4.79,5.33-4.79,4.44.4,3.83.93,10.09,13.44"/><path class="cls-30" d="M657.19,386.59a38,38,0,0,0-3.23-6.4,11.55,11.55,0,0,0-2.35-2.76,3.09,3.09,0,0,0-1.31-.7c-.58-.1-.83.34-1.08.77a9,9,0,0,0-.71,6.17c0,.21.78,0,.74-.19a9.56,9.56,0,0,1,.2-5,4.66,4.66,0,0,1,.85-1.62l-.49.19c-.18,0,0,0,0,0l.19.06a3.56,3.56,0,0,1,.87.53,13.45,13.45,0,0,1,3.16,4.06,41.69,41.69,0,0,1,2.41,5c.09.22.82,0,.74-.19Z"/><path class="cls-30" d="M657,388.79c-3.14.26-.49,4.28-.76,5.93a1.36,1.36,0,0,0-.07.25l0,0,.23,0a.49.49,0,0,1-.11-.07c-.14-.26-.4-.48-.55-.76a14.82,14.82,0,0,1-1.14-2.8,10.84,10.84,0,0,1-.6-3.42c0-1.43.14-3.41,1.51-4.22.43-.25-.19-.46-.48-.3-1.3.77-1.66,2.41-1.75,3.81a9.8,9.8,0,0,0,.27,3.24,19.92,19.92,0,0,0,1.2,3.4c.24.51.55,1.27,1.1,1.53a.82.82,0,0,0,1.11-.49,2.92,2.92,0,0,0-.1-1.6c-.2-.82-1.44-3.89.1-4,.4,0,.59-.53.08-.49Z"/><path class="cls-24" d="M691.1,373.09a3.37,3.37,0,0,0-3.58.88,3.12,3.12,0,0,0,.11,4.56,3.1,3.1,0,0,0,3.59.4,3.43,3.43,0,0,0,1.43-4.09,3.05,3.05,0,0,0-1.55-1.75"/><path class="cls-24" d="M697.88,378s-4.9-6.35-9.67-6c-6.71.43-8,4.43-9.37,6.56,0,0,4-5.05,9.24-5.25C692.8,373.06,697.88,378,697.88,378Z"/><path class="cls-24" d="M723.71,370.9a3.35,3.35,0,0,1,3.65.42,3.26,3.26,0,0,1,1.07,1.45,3.33,3.33,0,0,1-.59,3.09,3.13,3.13,0,0,1-3.52.85,3.43,3.43,0,0,1-1.93-3.88,3,3,0,0,1,1.32-1.93"/><path class="cls-24" d="M714.25,376.92s3.72-6.9,8.14-7.18c6.22-.4,7.93,3.41,9.42,5.35,0,0-4.34-4.5-9.14-4.07C718.32,371.42,714.25,376.92,714.25,376.92Z"/><path class="cls-24" d="M730.51,358.9a.36.36,0,0,1,0-.09,9.78,9.78,0,0,0-2.81.38c-4.82,1.27-6.9,2.58-12.51,7.74l.08.14.65,1.21c.34.64.68,1.28,1,1.92,1.68-1.59,2.77-2.93,3.92-3.84,2.27-1.8,4.69-4.19,7.45-5.15a9,9,0,0,1,3.08-.61C731.07,360,730.79,359.47,730.51,358.9Z"/><path class="cls-24" d="M699.39,369c-.35.89-.15.39-.51,1.28l-.81,2c-1.93-1.42-3.24-2.66-4.54-3.45-2.57-1.58-5.37-3.74-8.34-4.43-1.42-.32-3.24-.92-4.68-.1-.38.22-1.56,1.36-2,.91-.17-.18.61-1.13.69-1.23,1.6-1.9,3.85-2.06,6.37-1.66,5.13.8,7.44,1.91,13.89,6.52"/><path class="cls-8" d="M711.68,393.91a4.77,4.77,0,0,1-4.41-.05c-.28-.15-1.2.06-.8.28a6.73,6.73,0,0,0,6,0c.16-.09.12-.21-.08-.27a1.07,1.07,0,0,0-.71.07"/><path class="cls-8" d="M705.91,393.82a7.47,7.47,0,0,0-2.74-.54.66.66,0,0,0-.41.15c-.08.08-.09.17,0,.23a3,3,0,0,0,1.5.26.56.56,0,0,0,.45-.2c.08-.13-.08-.21-.2-.2a2.32,2.32,0,0,1-1.22-.22l-.39.38a6.87,6.87,0,0,1,2.46.49.61.61,0,0,0,.49-.08c.1-.07.2-.21,0-.27"/><path class="cls-8" d="M702.2,394.13a3.77,3.77,0,0,1-3-1.18c-.87-1.21-.22-3.34,1.11-4.21.15-.1.06-.21-.09-.23a.89.89,0,0,0-.58.15,4.06,4.06,0,0,0-1.61,3.71,3,3,0,0,0,2.64,2,6.15,6.15,0,0,0,1.22.1.75.75,0,0,0,.54-.2c.07-.14-.08-.19-.24-.18"/><path class="cls-8" d="M713.66,393.25a.15.15,0,0,1,.13-.22,1.25,1.25,0,0,0,.84-.32l.3.34a3.77,3.77,0,0,0-1.68.71.32.32,0,0,1-.35,0c-.08-.06-.16-.19-.06-.27"/><path class="cls-8" d="M712.84,393.45a4.28,4.28,0,0,1,1.89-.78.38.38,0,0,1,.3.12.15.15,0,0,1,0,.22"/><path class="cls-8" d="M715.94,393.28a2.26,2.26,0,0,0,1.84-1.43,3.25,3.25,0,0,0-1-3.49.13.13,0,0,1,0-.23.42.42,0,0,1,.38.1,3.66,3.66,0,0,1,1.32,2.94,2.54,2.54,0,0,1-1.54,2.26,3,3,0,0,1-.78.21.38.38,0,0,1-.36-.16c-.06-.13,0-.19.13-.2"/><path class="cls-31" d="M722.92,329.93a22.11,22.11,0,0,0-10.21-4l-.48,0-2.12.73-.08,0,.08,0c.38-.16,1.21-.55.88-1a1.7,1.7,0,0,0-.82-.52,16.51,16.51,0,0,0-2.83-.71v0l-.32,0-.32,0h0a17.66,17.66,0,0,0-2.92-.14,1.73,1.73,0,0,0-.94.26c-.45.36.23,1,.55,1.24l.06.05-.06,0-1.82-1.32-.46-.11c-4.7-1-12.7,1.78-13.48,2.27s-.44,1.5-.42,1.58l-1.18-1.2a69.61,69.61,0,0,0-7.09,1.94,5,5,0,0,0-1.78,2.17,6,6,0,0,1-2.42.08c-.59-.29-4.07.91-5.69,2.63-1,1.1-.89,2.3-1.48,3.32h0c-.33.57-.52,1-.52,1l-3.51.62c-2.87.89-3,6.51-3,6.51-6.22,5.68-7.3,11.14-5.81,17.42.57,2.41-6.29,3.75-2.1,4.28s7.79,15.53,7.79,15.53a86.14,86.14,0,0,0,2.87-8.22c.53-2.38.41-9.67.41-9.67l2.08,0s1.32-.32,3.22-2.82-.13-7.75-.13-7.75l-.36-3,3.94.86c3.94-.09,4.77-4.22,4.77-4.22l.36-7,2,2.67a2.87,2.87,0,0,0,2.07,1.33c6,.43,7.29-3.18,7.29-3.18l1.31-3.37,1.36,1.23c1.41,1.55,6,4.29,8.65,3.59.69-.19,3.76-1.9,4.25-2.13a5.19,5.19,0,0,0,2.33-3.26c1.25,1.6,3,3.32,4.69,3.65,2.1.41,6.78.2,7.49-.69.48-.6-.18-.78.59-.64a2.59,2.59,0,0,1,1.54,1.26s1.34,6,6.41,8.84,6.55-10.09,1.84-12.62C729.36,337.07,729.51,330.1,722.92,329.93Z"/><path class="cls-29" d="M646.84,340.43s-5.84,1.21-7.85,4.23c-5.17,7.78-3.38,27.78,1.16,32.09l4.67,1.23Z"/><path class="cls-28" d="M640.81,374.62s-8.16-1.5-10,3.42l-.84,2.35s-8.93-2.91-12.09,1.17-4.52,12.55-4.52,12.55"/><path class="cls-32" d="M617.45,596.33,612.11,618c-5.82,24.15-6.11,78.2-3.92,143.62L607,852.68s2.45,13.08.07,13.16c-8.13.29,33-.11,41.45-1.84a103.34,103.34,0,0,1,37.76-.77l6.44,1a70.2,70.2,0,0,0,37.81-4.45l19.84-11s-17.85-98.58-2.06-163.17c11.33-46.31-12.74-77.63-25.71-97.37Z"/><path d="M619.87,1001.36s-4-4.1-1.15-6.26c10.14-7.58,14.77-13.83,16.63-14.19-1,.86.87,3.86,5,3.48s10.75-1.54,19.4-6.88c6.49-4,16.22-12.06,21.06-18,1.61-2,4.5-7.85,9.2-8.11,3.31,2.2,10,14,7.48,17.44s-21.86,12.55-21.86,12.55l-16,10.84-16.38,7.22-7.1,2.58-7.55.23Z"/><path class="cls-33" d="M698,967.68c-1.86,1.55-8.36,5.36-14.29,7.8C667.78,982,663.24,986,658.49,989.7a73.83,73.83,0,0,1-8.56,5.91c-17.42,10.26-30.52,4.6-31,4.49a1.83,1.83,0,0,0-.12,1,45.83,45.83,0,0,0,4.89,1.56c4.46,1.13,14.33,2.66,28-5a69.52,69.52,0,0,0,8.59-5.24,73.65,73.65,0,0,1,16-9.69l1.09,2.57s17.3-6,23.61-12.11C699.72,969.08,698,967.68,698,967.68Z"/><path class="cls-33" d="M700.07,970.87c-9.13,6.44-20.21,10.82-23.74,12.21l1,2.26s17.3-6,23.61-12.11A19.76,19.76,0,0,0,700.07,970.87Z"/><path class="cls-4" d="M713.83,918.44a52.15,52.15,0,0,1-14.25,3c-5.93.44-11.89.18-17.83.09,3.25,25.1,5.39,46.26,3.52,47.06C672.12,974.26,647.46,994,647.46,994s2.73,8.39,13,8.3,53.34-26,53.34-26L710,969.08Z"/><path d="M631.47,1004.71s-2.59-4.68.69-6.32,18.56-9.47,20.47-9.35c.12,1.24-1.22,3.28,2.88,4s12,1,21.88-2c7.44-2.22,18.81-6.74,25.21-11.26,2.14-1.51,6.63-6.43,11.26-5.49,2.57,3,5.59,16,2.22,18.69s-24.81,6.56-24.81,6.56l-18.59,6.41-18,2.83-7.62.69-7.38-1.68Z"/><path class="cls-33" d="M716.9,992c-2.25,1-9.65,3.06-16.1,3.91-17.31,2.28-22.87,5-28.54,7.33a76.77,76.77,0,0,1-10,3.54c-19.85,5.48-30.91-3.27-31.36-3.5a1.84,1.84,0,0,0-.43,1,49,49,0,0,0,4.3,2.73c4,2.22,13.12,6.17,28.53,2.23a71.81,71.81,0,0,0,9.83-2.89,77.54,77.54,0,0,1,18.28-5.29l.32,2.75s18.5-1.43,26.37-5.71C718.17,993.77,716.9,992,716.9,992Z"/><path class="cls-33" d="M718,995.58c-10.7,3.9-22.7,5.32-26.52,5.77l.28,2.42s18.5-1.43,26.37-5.71A16.73,16.73,0,0,0,718,995.58Z"/><path class="cls-34" d="M709.92,402.34c-4.26.05-13.65,2.77-15.53,4.44,0,0,4.92,3.3,14.82,3.17s11.5-3.52,11.5-3.52S715.36,402.26,709.92,402.34Z"/><path class="cls-21" d="M698.39,404.9s5.08-.47,9.13-.53,9.13.29,9.13.29.62-3-6.73-2.92S698.39,404.9,698.39,404.9Z"/><path class="cls-17" d="M709.2,408.62c-4.64-.6-9.41-2.25-14.81-1.84,0,0,3.44,6.15,15.08,6s11.24-6.35,11.24-6.35C715.3,406.17,713.83,407.9,709.2,408.62Z"/><path class="cls-17" d="M715,400c-2.45-.15-4,.8-5.05.81s-2.63-.89-5.07-.68-11.9,5.9-10.81,6.61,8.55-3.48,15.91-3.58,10,4,11.12,3.22S717.25,400.11,715,400Z"/><path class="cls-27" d="M703.57,363.1s6.13,2.68.62,7.85C704.19,371,706.2,365.18,703.57,363.1Z"/><path class="cls-27" d="M711,362.48s-5.89,3.17,0,7.87C711,370.35,708.53,364.76,711,362.48Z"/><path class="cls-26" d="M729.26,575.75s7.48,33,10.22,39-34.68,23.39-49.71,24.61-74.8,12.36-83.57,1.78l17.52-76.74Z"/><path class="cls-26" d="M735,599.53c4.3,12.78,15.3,44.29,15.3,44.29A296.51,296.51,0,0,1,674.86,653c-22.46-.21-48-1-68.66-10.56,4-12.7,5.23-27.53,8.75-40.42Z"/><path class="cls-26" d="M708.7,430.41s6.36,2.79,16,6.81c7,2.92,24.59,12.09,30.22,24.36s2.19,35.62-5.67,49.27-8.55,18.91-8.55,18.91l-34.05-42,2-57.37"/><path class="cls-26" d="M595.91,564.77a26.4,26.4,0,0,1-12.1-6c-3.11-2.76-5.93-6.59-5.93-11.41,0-10.71,8-24.59,10.8-31.32,2-4.78,15.71-44.65,29.77-62.48a34.3,34.3,0,0,1,13.15-10.19l3.53-1.55-13.7,87.92,25.76,8-1.83,35Z"/><path class="cls-26" d="M743.18,454.13s11.48.77,11.75,30.82-35,80.47-41,85.42-12.87,8.31-31,5.62c-22.7-3.37-38.51-6.39-38.51-6.39l3.16-27.44,40.5-1.84L721,472.68S731.94,452.82,743.18,454.13Z"/><polygon class="cls-4" points="677.76 539.31 673.57 539.13 663.36 538.43 661.01 558.61 673.2 556.76 677.76 539.31"/><path class="cls-35" d="M733.51,455c-10.76,3.29-17.3,13.43-21.63,23.18-5,11.37-7.77,23.57-11.71,35.33a98.93,98.93,0,0,1-8.32,18.94c-.28.47.69.52.92.13,6.07-10.28,9.31-21.83,12.69-33.19,3.31-11.16,6.76-22.91,13.69-32.44,3.67-5,8.47-9.4,14.54-11.26.58-.17.4-.87-.18-.69Z"/><path class="cls-35" d="M740.08,530.81a287.13,287.13,0,0,1-18.15,29.73q-2.53,3.62-5.17,7.16a46.92,46.92,0,0,1-5.42,6.51c-3.81,3.55-8.77,4.43-13.79,4.79-8.11.59-16.33,0-24.42-.74-9.12-.82-18.2-2-27.27-3.24l-13.47-1.89c-1.91-.26-3.81-.53-5.73-.77a5.72,5.72,0,0,1-1.35-.18c-.14-.19.15-.91.2-1.17l.35-1.87c.07-.35-.88-.19-.94.12l-.62,3.2c0,.12.08.18.18.2,16.51,2.08,32.94,4.81,49.53,6.24a147.49,147.49,0,0,0,23.68.59c4.29-.32,8.78-1,12.39-3.5,4.3-3,7.3-7.85,10.31-12A285.45,285.45,0,0,0,741,530.82c.21-.39-.74-.28-.88,0Z"/><path class="cls-35" d="M660.56,559a4.3,4.3,0,0,0-.13,1.64c0,1,0,2.09-.09,3.13,0,.39,0,.77-.05,1.15a2.22,2.22,0,0,1,0,.37.68.68,0,0,1,0,.15c.22-.36,0-.2-.29-.2a33,33,0,0,0-5.3.75c-7.34,1.13-14.68,2.47-22.1,2.85a50.1,50.1,0,0,1-12.47-.73c-.35-.08-1.12.47-.56.58,7.37,1.5,15,.83,22.39-.16,4-.54,8-1.2,12-1.82q2.87-.45,5.73-.83c.81-.11,1.45,0,1.59-.85a22.71,22.71,0,0,0,.12-3.3,9.09,9.09,0,0,1,.1-2.67c.22-.45-.73-.4-.89-.06Z"/><path class="cls-35" d="M663.66,538.22c-13.56-2.42-26.74-6.64-40.32-9-.23,0-1.1.35-.61.43,13.59,2.32,26.76,6.55,40.32,9,.24,0,1.1-.34.61-.42Z"/><path class="cls-35" d="M624.61,468.34c.63,4,1.43,8.21.62,12.27s-3.59,7.45-5.59,10.91A91.13,91.13,0,0,0,611,510.38,77.27,77.27,0,0,0,608.32,523c0,.35.91.17.95-.13a74.64,74.64,0,0,1,5.92-21.18c1.56-3.42,3.35-6.73,5.22-10,1-1.67,2-3.33,3-5a21.12,21.12,0,0,0,2.57-5.22c1.21-4.38.32-9-.37-13.41,0-.29-1-.07-.95.26Z"/><path class="cls-4" d="M700.82,551.67c-1.06,0-.75.77-.64,1a20.81,20.81,0,0,0,3.15.26c1.95.11,4.62.33,7.55.79s5.24,1,7.15,1.41a3.3,3.3,0,0,1,.19.43c.56,1.5-.92,2.5-2.23,3.2s-18.71-.83-18.71-.83l5.11,2.07a48,48,0,0,1,7.29,1.53c1.39.7,1.26,2.23,0,3.11s-9.88-2.26-19.61-2c-6.46-.06-13.31-2.78-18.88-6l5.62-17.12a82.38,82.38,0,0,1,8.16-3.76,61.94,61.94,0,0,1,12.25-3.9,74.83,74.83,0,0,0,9.88-3.19,4.5,4.5,0,0,1,.69,4.54c-1,2.91-10.44,4.3-10.44,4.3l12.25.83s9.6,2.94,10.3,5.58-2.45,2.28-2.45,2.28L709.58,544l-9,.35,9.38,1.87s7.3,3,7.86,3.25c1.1.73,1.57.9,1.79,2.21.16,1.53-2.77,1.28-2.77,1.28l-10.72-1.61Z"/><path class="cls-4" d="M623,529.47l-4.38-14.16-.83-10.78-11.51-7.66s-3.11.35-2.13,2.76,5.62,6.7,5.62,6.7l2.75,7.68-4.48-7.81L601.54,503l-6.46.48s-1.19,2.88,1.84,3h3.23l4.9,3.95,3.07,7.34-4.63-7.18-6.81-2.44-4.32,1.12s-1.19,1.84,1,2.15a21.52,21.52,0,0,0,3.67.24L600.9,514l3.47,7.34-6.09-5-7.92-1s-1.3,1.84.74,2.63,4.11,1.82,6.09,2.88l4.43,5.38Z"/></g></svg>