<svg id="Layer_1" data-name="Layer 1" xmlns="http://www.w3.org/2000/svg" viewBox="0 0 1221.96 991.43"><defs><style>.cls-1{fill:#c1e8f7;}.cls-2{fill:#c85844;}.cls-3{fill:#fff;}.cls-4{fill:#946344;}.cls-5{fill:#653c2b;}.cls-6{fill:#cd8b2a;}.cls-7{fill:#010101;}.cls-8{fill:#13110f;}.cls-9{fill:#b15e27;}.cls-10{fill:#de8b27;}.cls-11{fill:#32160e;}.cls-12{fill:#643c29;}.cls-13{fill:#f1edf6;}.cls-14{fill:#956243;}.cls-15{fill:#361b10;}.cls-16{fill:#4c2713;}.cls-17{fill:#683721;}.cls-18{fill:#22110b;}.cls-19{fill:#a56530;}.cls-20{fill:#8c542a;}.cls-21,.cls-22{fill:#662117;stroke:#662117;stroke-miterlimit:10;}.cls-21{stroke-width:0.71px;}.cls-22{stroke-width:0.35px;}.cls-23{fill:#2a120d;}.cls-24{fill:#684135;}.cls-25{fill:#ce8d2a;}.cls-26{fill:#231f20;}.cls-27{fill:#ddb98a;}.cls-28{fill:#273339;}.cls-29{fill:#653c29;}.cls-30{fill:#31160e;}.cls-31{fill:#f1eef7;}</style></defs><polyline class="cls-1" points="-1.96 990.95 -1.96 -2.11 1222 -2.11 1222 990.95"/><path class="cls-2" d="M758.55,988.76c-8.76-26.64-28-28.77-32.29-30.52,0,0,0-.06,0-.08l-.74-.22-.12,0h0l-52-15.32-39.17-.11v0l-5.06,0-8.53,0v.06l-17.67.09-52,15.32h0l-.18.06-.69.2a.07.07,0,0,1,0,.05c-4.44,1.7-24.92,3.79-33.72,30.55-.21.78-.42.94-.64,1.94l243.49.78C759,990.48,758.76,989.54,758.55,988.76Z"/><path class="cls-3" d="M915.72,619.34c-17.88.13-35.27-3-52.33-7.91-5.16-1.49-8.07-.56-10.36,4.57-11.57,26-30.29,45.82-54.11,61a172.68,172.68,0,0,1-72.22,25.63A191.38,191.38,0,0,1,671,701.5c-34.28-5.77-64.47-20.2-89.87-44.1-3.59-3.39-6.2-3.27-10-.38-25.61,19.61-54.6,30.67-86.57,34.78a183.54,183.54,0,0,1-87.73-9.69c-38.73-14.2-69.41-38.3-87.24-76.55-9.87-21.17-12.49-43.42-8.51-66.43,1.14-6.59.29-8.21-6.63-9.25a164,164,0,0,1-58.54-20.47c-36.06-20.93-61.74-50.13-69.28-92.21-5.3-29.6.7-57.43,17.15-82.94,18.73-29,45.4-47.9,77-59.92,11.95-4.54,24.84-6.7,37.4-9.52,4.64-1,6-3,5.38-7.64-4.68-34.94,6.59-65,28.79-91.47a147.84,147.84,0,0,1,54.54-40.47c33.47-14.71,68.37-20,104.86-14.36a184.79,184.79,0,0,1,63.34,21.7c4,2.26,6.41,1.34,8.89-1.92a147,147,0,0,1,38.9-35.56A177.41,177.41,0,0,1,688.28,68c28.1-1.65,55.23,1.92,81.28,12.51C808.32,96.25,838,121.71,854.2,161.2a80.08,80.08,0,0,1,4.21,13.14c.9,4.15,3,5.26,7,5,11.23-.64,22.51-1.69,33.72-1.27,44.81,1.67,84.39,17,116.36,48.75,25.87,25.72,39.2,57.28,36.91,94.31-1.3,21.08-9.32,40-20.89,57.47-4.5,6.81-4.53,7.13,1.42,12.34,16.22,14.2,28.51,31.17,36.22,51.31,8.85,23.08,10.25,46.73,3.77,70.58-11,40.51-37.82,67.73-74.11,86.63C972.82,613,944.87,618.79,915.72,619.34Z"/><path class="cls-3" d="M481.58,734.43a23.24,23.24,0,0,1,23.33-23.07c12.74,0,23.36,10.58,23.31,23.17-.05,12.36-10.64,22.79-23.23,22.89A23.22,23.22,0,0,1,481.58,734.43Z"/><path class="cls-3" d="M536.28,784.33a12,12,0,0,1-12-12.22c0-6.69,5.15-11.76,12-11.91a12.07,12.07,0,1,1,0,24.13Z"/><path class="cls-4" d="M668.64,939.58c-.66-2.1-.07-24.46-.07-24.46l-33.08,5.09-33.07-5.09s.66,24.7,0,26.8-20,6.67-20,6.67,10.08,21.76,53,21.76,54.09-21.76,54.09-21.76S669.3,941.69,668.64,939.58Z"/><path class="cls-5" d="M602.5,916.43c.52.39,4.35,5.45,4.9,5.84C621,931.9,623,934.52,634.74,935c11.72-.48,16.76-2.09,29.38-13.85,4.25-4,3.32-5.29,4.25-6C647.29,915.07,623.61,916.28,602.5,916.43Z"/><path class="cls-4" d="M581.15,850.3s-6.35-9.74-9.94-9.35c-2.19.24,2.87,5.16,3.49,10.74.84,7.46-4.68,8.42-2.94,12.64s4,19,9.78,18.33c2.3-.25,4.65-5.34,4.65-5.34S583,857,581.15,850.3Z"/><path class="cls-6" d="M579.48,878c-2.54.29-5.06,1.77-5.39,4.5a4.36,4.36,0,0,0,.86,3.18,3.89,3.89,0,0,0,2.07,1.44,6.48,6.48,0,0,0,5.57-.87c.28-.19.23-.37-.1-.39a2.12,2.12,0,0,0-1.25.33,2.36,2.36,0,0,1-1.43.49,4.51,4.51,0,0,1-1.54-.32,3.41,3.41,0,0,1-1.55-1.15,4.29,4.29,0,0,1-.07-5.13,3.64,3.64,0,0,1,1.05-1,2.34,2.34,0,0,1,.53-.26c.14,0-.12,0,0,0l.23-.06c-.15,0,.28,0,.23,0a1.84,1.84,0,0,0,1.18-.43c.24-.29-.21-.32-.42-.3Z"/><path class="cls-4" d="M686.79,850s5.33-10.33,9-10.3c2.2,0-2.34,5.42-2.4,11-.08,7.51,5.51,7.91,4.21,12.29s-2.06,19.25-7.89,19.21c-2.31,0-5.16-4.84-5.16-4.84S685.59,856.81,686.79,850Z"/><path class="cls-4" d="M694.62,856.1a.08.08,0,0,0,0,0c-1.29,6.52-2.88,13.39-4,21.26-2.9,20.79-9.08,30.34-23.2,39.51-14.8,9.63-19.23,13.37-32,13.85-12.77-.48-17.21-4.22-32-13.85-14.11-9.17-20.31-18.72-23.19-39.51-.65-4.63-1.46-8.91-2.28-13-.61-3-1.23-5.93-1.79-8.77l0-.12v0c-2-10.43-3.27-20-.47-31.68,2.88-12,12.82-26.94,28-36.36h0a59.76,59.76,0,0,1,31.8-9.19c32.79,0,55.21,26.44,59.79,45.56C698.06,835.67,696.72,845.45,694.62,856.1Z"/><path class="cls-7" d="M639.66,883.06a5.67,5.67,0,0,1-6-.29c-.38-.27-1.66,0-1.14.41a8,8,0,0,0,8.24.25c.22-.15.19-.34-.09-.44a1.25,1.25,0,0,0-1,.07"/><path class="cls-7" d="M631.63,882.61a12.73,12.73,0,0,0-4.45-1.11,1,1,0,0,0-.68.22c-.13.11-.15.27,0,.36a4.85,4.85,0,0,0,2.44.56,1,1,0,0,0,.75-.29c.13-.21-.12-.34-.32-.34a3.8,3.8,0,0,1-2-.46l-.67.58a11.66,11.66,0,0,1,4,1,.93.93,0,0,0,.81-.09c.17-.09.34-.32.1-.43"/><path class="cls-7" d="M625.6,882.79a4.9,4.9,0,0,1-4-2.16c-1.13-2-.08-4.44,1.81-5.74.21-.14.1-.32-.11-.37a1.07,1.07,0,0,0-.81.2,5.26,5.26,0,0,0-2.47,4.87,4.47,4.47,0,0,0,3.5,3.53,7.29,7.29,0,0,0,1.68.28c.23,0,.64-.08.75-.29s-.1-.31-.31-.32"/><path class="cls-7" d="M641.46,882.61a12.73,12.73,0,0,1,4.44-1.11,1,1,0,0,1,.68.22c.13.11.16.27,0,.36a4.87,4.87,0,0,1-2.44.56,1,1,0,0,1-.75-.29c-.14-.21.11-.34.32-.34a3.78,3.78,0,0,0,2-.46l.68.58a11.72,11.72,0,0,0-4,1,.93.93,0,0,1-.81-.09c-.16-.09-.34-.32-.09-.43"/><path class="cls-7" d="M647.49,882.79a4.93,4.93,0,0,0,4-2.16c1.12-2,.07-4.44-1.82-5.74-.2-.14-.09-.32.12-.37a1,1,0,0,1,.8.2,5.24,5.24,0,0,1,2.47,4.87,4.46,4.46,0,0,1-3.49,3.53,7.29,7.29,0,0,1-1.68.28c-.23,0-.64-.08-.75-.29s.09-.31.31-.32"/><path class="cls-8" d="M650.67,837.81c.08,1.18.17,2.36.26,3.54.06.9.13,1.8.2,2.7,3.23-1,6-1.67,8.09-2.14,4.43-1,6.7-1.49,9.33-1.27a26.12,26.12,0,0,1,6.06,1.32,15.65,15.65,0,0,1,3.24,1.31c2.31,1.31,3.32,2.9,3.67,2.73s-.32-1.57-.39-1.71a14,14,0,0,0-5.1-5.66,18.32,18.32,0,0,0-6.22-2.14c-2.61-.42-9.76-.37-19.14,1.32"/><path class="cls-8" d="M621.78,837l0,3.55c0,.9,0,1.8,0,2.7-3.28-.77-6.09-1.28-8.21-1.61-4.48-.71-6.77-1.05-9.38-.66a27,27,0,0,0-6,1.7,16.76,16.76,0,0,0-3.15,1.52c-2.21,1.46-3.12,3.11-3.48,3s.21-1.58.27-1.73a14,14,0,0,1,4.73-6,18.36,18.36,0,0,1,6.07-2.53c2.58-.6,9.72-1,19.19.08"/><path class="cls-9" d="M566.23,801.27s27-13.18,61.56-8.8,51.16,26.21,57,41.78a111.77,111.77,0,0,1,6.4,31.25s8.48,4.31,14.66-27.33c9-46.11-41.45-86.8-52.64-86.8S582.29,749.69,566.23,801.27Z"/><path class="cls-9" d="M572.43,787.8s-5.79-36.35,19.26-43.16,77.79-19,93.21,14.18Z"/><path class="cls-10" d="M571.13,862.47a21.87,21.87,0,0,1-5.51-9.44c-2.79-9.82-7.66-30.1-3.19-39.1,2-3.92,2.74-15.61,2.92-19,1-18-3.3-12.49,22-32.93S617,747.14,655,749.57s48.84,14.74,45.9,50.3c0,0-51.1-14.69-75.19-1.67s-50,55-48.29,70.1C577.48,868.77,574,865.38,571.13,862.47Z"/><path class="cls-9" d="M561.16,832s38.63-49.39,83.8-49.84c0,0-57.82-7.54-83.45,34.2Z"/><path class="cls-9" d="M701.73,788.24S657.09,772,640,770.61s54.09,1.31,60.92,9.08Z"/><ellipse class="cls-3" cx="636.54" cy="898.05" rx="15.02" ry="3.16"/><path class="cls-6" d="M691.91,879.42a4,4,0,0,1,4,3.28,3.9,3.9,0,0,1-.48,2.69,4.13,4.13,0,0,1-.41.59c-.07.08-.13.16,0,.06a.24.24,0,0,1-.08.06,1.44,1.44,0,0,1-.25.18l-.2.13c-.11.07.13-.07,0,0l-.17.09-.33.16-.17.06c-.08,0,.08,0-.07,0a4.43,4.43,0,0,1-.76.17,3.47,3.47,0,0,1-2-.46,1.29,1.29,0,0,0-1.26.13c-.26.19-.51.62-.12.83a5.72,5.72,0,0,0,4.65.36,5.21,5.21,0,0,0,2.3-1.4,4.85,4.85,0,0,0,0-6.5,5.46,5.46,0,0,0-3.89-1.63,1.28,1.28,0,0,0-1.16.52c-.19.37.16.66.52.66Z"/><path class="cls-11" d="M637,894.94c-4.1,0-18.27.25-18.27.25s3,6,17.84,6c16.1,0,18.77-6.68,18.77-6.68Z"/><path class="cls-12" d="M650.69,892.55a26.48,26.48,0,0,0-5.1-.66c-4.21-.31-6.88,1.3-8.7,1.3s-4.5-1.61-8.7-1.3a19.29,19.29,0,0,0-4.14,1.09c-1.87.57-2.46.7-5,1.55-.63.21-1.13.4-1.76.59,3.13,1.08,8.38,2.93,19.69,2.93,3.61,0,6.53.12,10.13-.18,1.82-.15,5.8-1.22,7.59-1.58s1-.37,2.43-1.42a13.14,13.14,0,0,0-2.39-.71Z"/><path class="cls-8" d="M663,849.91a4,4,0,0,1,4.35.79,3.8,3.8,0,0,1,1.18,1.82,4,4,0,0,1-1,3.65,3.73,3.73,0,0,1-4.28.75,4.11,4.11,0,0,1-2-4.79,3.7,3.7,0,0,1,1.73-2.22"/><path class="cls-8" d="M651,855.47s8.12-5.9,12.27-6.28c6.06-.56,13.52,2.54,15.67,5.32,0,0-9.88-4.64-14.14-4.13C660.69,850.86,651,855.47,651,855.47Z"/><path class="cls-8" d="M611,850a4,4,0,0,0-4.35.78,3.83,3.83,0,0,0-1.17,1.83,4,4,0,0,0,.95,3.65,3.74,3.74,0,0,0,4.28.75,4.12,4.12,0,0,0,2-4.79A3.61,3.61,0,0,0,611,850"/><path class="cls-8" d="M623.06,855.6s-8.12-5.91-12.27-6.29c-6.06-.55-13.53,2.55-15.67,5.33,0,0,9.87-4.64,14.13-4.14C613.32,851,623.06,855.6,623.06,855.6Z"/><path class="cls-12" d="M637,893.43c-8.66,0-22.7-1-22.7-1s2.62,16.67,22.7,16.67,22.69-16.67,22.69-16.67S645.67,893.43,637,893.43Z"/><path class="cls-11" d="M637.09,893.43c-4.12,0-20.71-.68-20.71-.68s5.48,8.85,20.38,8.85c16.14,0,20.89-8.72,20.89-8.72Z"/><path class="cls-13" d="M637.27,894c-4.12,0-16.65-.68-16.65-.68s4.51,4.39,16.87,4.39,16.27-4.26,16.27-4.26Z"/><path class="cls-12" d="M660.61,891.21c-.44-.1-2.83.67-4.88.5-3.4-.29-7.53-1.16-10-1.34-4.21-.32-6.89,1.3-8.72,1.3s-4.51-1.62-8.73-1.3c-2.47.18-6.59,1-10,1.34-2,.17-4.44-.6-4.88-.5-.61.14.57,4.49,23.61,4.49S661.22,891.35,660.61,891.21Z"/><polygon class="cls-14" points="682.57 613.8 680.02 581.57 710.63 582.26 705.63 612.66 682.57 613.8"/><polygon class="cls-14" points="650.35 621.84 646.82 589.37 677.43 590.07 673.15 621.84 650.35 621.84"/><path class="cls-14" d="M703.94,610.66s21.78,14.88,33.31,26.46h0s-5.7,12.16-12.58,11.35S680,624.12,680,624.12l3.06-13.31Z"/><polygon class="cls-15" points="695.24 647.78 686.65 650.21 687.21 626.31 694.21 631.03 695.24 647.78"/><polygon class="cls-16" points="687.29 625.64 686.65 650.21 678.11 646.9 680.87 626.31 687.29 625.64"/><path class="cls-15" d="M758.78,656.75a7.86,7.86,0,0,1-4.65,1.2c-8-.44-32.84,0-38.16-1.87-7.75-2.65-6.62-1-14.08-7.4s-20-7.88-22.8-9.5,1.08-13.55,1.08-13.55.31-2.38,2.53-1.93l.35,0,6.69,6.66,18.43,10.24L718.64,651l21,.31,16.86-.73s3.82,1,4.45,1.7a2.43,2.43,0,0,1,.11,2.83A12.24,12.24,0,0,1,758.78,656.75Z"/><path class="cls-17" d="M681,620.1c11,1.16,18.67,12.18,27.55,17.74,4,2.48,12.13,7.45,16.82,4.39a15.76,15.76,0,0,0,4.09-2c5.55-3.59,8.72-3.33,8.72-3.33a16.7,16.7,0,0,0,4.65,3.89c3.33,2,10.5,4.8,14.36,7.49s2.27,4.38,2.27,4.38-3.12,2.11-5.58,2.17a127.44,127.44,0,0,1-12.79-.34c-5.76-.44-23.19-.25-27.41-2.46-3.11-1.63-6.94-1.94-13.12-8.45-5.66-6-22.36-6.6-23-8.76s-.25-7.73,1.22-10.5Z"/><path class="cls-14" d="M671.4,619.68s21.78,14.89,33.32,26.46h0s-5.7,12.17-12.58,11.36-44.64-24.35-44.64-24.35l3.07-13.31Z"/><polygon class="cls-18" points="662.47 656.4 653.88 658.83 654.44 634.93 661.44 639.65 662.47 656.4"/><polygon class="cls-15" points="654.52 634.26 653.88 658.83 645.34 655.52 648.1 634.93 654.52 634.26"/><path class="cls-15" d="M726,665.37a7.86,7.86,0,0,1-4.65,1.2c-6.8-.38-13.64-.26-20.44-.42-7.73-.19-15.59-.1-22.8-3.1-6.54-2.73-11-8-17.56-10.65a85.33,85.33,0,0,0-8.73-2.81,23.84,23.84,0,0,1-5.51-1.79c-2.78-1.62,1.08-13.55,1.08-13.55s.31-2.38,2.53-1.93l.35,0L657,639l18.43,10.24,10.47,10.33,21,.31,16.86-.73s3.82,1,4.45,1.7a2.42,2.42,0,0,1,.11,2.83A12.24,12.24,0,0,1,726,665.37Z"/><path class="cls-17" d="M648.19,628.72c11,1.16,18.67,12.18,27.55,17.74,4,2.48,12.13,7.45,16.82,4.39a15.76,15.76,0,0,0,4.09-2c5.55-3.59,8.72-3.33,8.72-3.33a16.7,16.7,0,0,0,4.65,3.89c3.33,2,10.5,4.8,14.36,7.49s2.27,4.38,2.27,4.38-3.11,2.11-5.58,2.17a127.44,127.44,0,0,1-12.79-.34c-5.76-.44-23.19-.25-27.41-2.46-3.11-1.63-6.94-1.94-13.12-8.44-5.66-6-22.36-6.61-23-8.77s-.26-7.73,1.21-10.5Z"/><path class="cls-14" d="M715.64,289.43l-47.51,6.89s-1.91,23.7,1.68,26.16,51.73-17.7,51.73-17.7Z"/><path class="cls-2" d="M701.15,290.85l-24.46.65-19.28-39.17L624.18,290s19.3,27.61,33.73,35.24c3,1.56,37.2-1.44,49.39-4.21C706.47,312.08,701.52,303.39,701.15,290.85Z"/><path class="cls-19" d="M556.62,468.56h70.07c10,0,11.91,4.88,11.89,14.86,0,9.18-2,14.57-12.17,14.59a50.6,50.6,0,0,1-6.86,0c-6.73-.94-8.08,1.61-7.2,6.94,8.61,52,17,100.43,25.58,152.42.58,3.54.05,4.94-4.59,5-11.6.15-11.84.38-13.45-9.35q-8.21-49.76-16-99.56c-.7-4.51-2.48-5.87-7.71-5.83q-39.84.35-79.69,0c-5.09,0-6.58,1.55-7.21,5.63-5.45,35-11.15,69.92-16.64,104.88-.51,3.26-2.07,4.23-5.76,4.29-11.95.19-12.27.27-10.74-9.53,5.57-35.56,11.36-71.08,17.1-106.61,2.44-15.11,4.88-26.65,7.54-41.73.82-4.65-.14-7.29-6.38-6.4-1.34.19-2.75-.06-4.12,0-17.91,1.3-16.45-11.82-15.41-24,.4-4.71,5.15-5.81,10.32-5.79,23.81.12,47.63,3,71.44,3Zm-.56,67.12c13.26,0,26.53-.11,39.79.06,4.06,0,5.87-.71,5.18-4.64-2.13-12.13-4.08-15.85-5.92-28-.56-3.69-2.05-5.25-6.86-5.18-21,.27-42.08.31-63.11,0-5.21-.09-6.66,1.63-7.24,5.53-1.77,11.78-3.65,15.11-5.74,26.85-.72,4.06.34,5.63,5.48,5.52C530.44,535.48,543.25,535.68,556.06,535.68Z"/><path class="cls-20" d="M493.28,546.3q-1.33,8.22-2.66,16.45c5.56,1.12,11.09,2.43,16.61,3.81q1-6.64,2.09-13.29c.64-4.08,2.12-5.67,7.22-5.63q39.83.35,79.68,0c5.23,0,7,1.32,7.71,5.84q1,6.43,2,12.89a151.72,151.72,0,0,0,15.6-6.8c-3-18-6.08-36.06-9.14-54.61a10.56,10.56,0,0,1,0-4.31c-3.63.24-7.27.44-10.91.58q-3.35.12-6.69.2a10.7,10.7,0,0,1,.38,1.7c1.85,12.17,3.79,15.89,5.93,28,.69,3.93-1.13,4.69-5.19,4.64-13.26-.17-26.52-.06-39.79-.06-12.81,0-25.62-.19-38.42.1-5.14.11-6.2-1.46-5.48-5.52,2.09-11.74,4-15.07,5.74-26.85a7.66,7.66,0,0,1,1.3-3.65c-6.3-.2-12.61-.36-18.92-.43.86,1.13.89,2.92.49,5.2C498.16,519.66,495.72,531.19,493.28,546.3Z"/><path class="cls-20" d="M474.65,476.69s64.4,7.43,104.21,6.4c33.07-.86,59.56-4.46,58.23-9.66s-24.55-16.37-47.92-17.16-87.45,5.23-87.45,5.23-23.07,5-25.33,8.19A10.81,10.81,0,0,0,474.65,476.69Z"/><path class="cls-21" d="M518,359.35s-35.25,54.49-13.63,95.44c10.3,19.5,41.13,19.48,41.13,19.48l31.62-39.76V368.74Z"/><path class="cls-2" d="M632.52,323.13c.44-4.31.65-8.95,1.58-13.18,1.79-8.16,9.88-13,16.64-16.76a137.19,137.19,0,0,1,16.25-7.4,91.89,91.89,0,0,0-1.1-12.18c-3.55-11.64-5.83-24.89-9.94-36.34-1.8-5-3.87-10.51-6.91-15.19a56.43,56.43,0,0,0-9-7.34l-23.48-10.3L605.1,200.3,576,187l-19.52,8s-27.27,8.41-32.7,12.54c-6.66,5,.67,97.34.67,97.34s-.9,36.27-22.88,73.2c-.15.24-.73,2-.82,2.23-.26.85,5.14,4.48,5.85,4.92,2.2,1.38,5.86,1.73,8.31,2.57,5,1.7,9.15,1.29,14.36,2a212.37,212.37,0,0,0,21.36,1.94c6.67.22,13.59-1.1,20.19-.52l74.08-4.26-7.83-33.35c-.9-3.83-2.21-7.53-3-11.42a91.71,91.71,0,0,1-1.52-12.25c-.12-2-.18-4-.15-6.05C632.48,323.62,632.5,323.37,632.52,323.13Z"/><path class="cls-22" d="M533.82,240.2c-.16,0,.15-1.84,0-4.51a27.12,27.12,0,0,0-2.61-10.34,29.62,29.62,0,0,0-3.11-5,26.32,26.32,0,0,0-3.36-3.48c-2.09-1.78-3.64-2.57-3.56-2.71s.43.06,1.13.46a8.44,8.44,0,0,1,1.25.69,13.18,13.18,0,0,1,1.56,1.09,22.42,22.42,0,0,1,3.58,3.44A26.58,26.58,0,0,1,532,225a24.8,24.8,0,0,1,2.44,10.71,18.66,18.66,0,0,1-.3,3.33A3.53,3.53,0,0,1,533.82,240.2Z"/><path class="cls-22" d="M643.38,252.29s3,20.71,2.58,29.41c-.29,5.47-4.61,14-7.79,19.66.07.14-2.06,3.41-2,3.55.16.35.53.3.69.64a100.15,100.15,0,0,0,8-14.59C650,278.43,643.38,252.29,643.38,252.29Z"/><path class="cls-21" d="M733.51,430.65c-1.6,47.9-5.46,121.3-13.07,170.19,0,0-47,12.34-52.41,1.62,0,0-4.1-85.59-22.25-144.3-16-51.7-113-55.64-100.65-60.33,19.39-7.38,143.77-23.47,167.79-14.81C728.85,388.76,734.57,398.89,733.51,430.65Z"/><path class="cls-21" d="M700.7,450.7c.26-3.09.67-6.16,1.21-9.19a131.19,131.19,0,0,1,5.25-20.11,139,139,0,0,1,8.4-19.47A115,115,0,0,1,723,389.69c-60.58-10-184.85,4.56-184.85,4.56s-45.8,14.47-32.46,54.6c17.68,53.17,149.23,18.62,194.37,2.09Z"/><path class="cls-21" d="M709.31,391.51A77.42,77.42,0,0,0,693,394.18a46.43,46.43,0,0,0,.8-8.38q-1.68-1.37-3.51-2.78a103.67,103.67,0,0,0-14.57,9.54,130,130,0,0,0-15.16,13.8A119.62,119.62,0,0,0,648.11,422c-1.05,1.59-16.17,3.22-17.13,4.87.17,0,0,9.54.2,9.55-13.69,25.87,7.82,64.14,6.48,110.14-1.18,40.39-1.29,33.62-3.46,55.07,6.46,9.71,56.63,5.17,56.63,5.17C697.11,544.51,709.31,391.51,709.31,391.51Z"/><path class="cls-23" d="M683.17,387.82s21.7-2.85,26.68,6S712.26,415,712.26,415s2.25-20.53-8.1-24A67.07,67.07,0,0,0,683.17,387.82Z"/><path class="cls-14" d="M569.9,156.38s1.83,20.62-4.28,34.29c-.85,1.9-13.74,6.56-13.74,6.56l16.4,7c7.87,2.28,21.28,4.74,32.59,3.65,4.94-.47,11.93-.21,15.68-3.47h0s-8.9-3.38-9.28-5.81,2.29-22.78,2.29-22.78"/><path class="cls-24" d="M607.67,192a47.62,47.62,0,0,0-7.33-3.82c-2.86-1-7.85-1.11-20.57-13.54,0,0,3.09,14.54,20,18.61,0,0,4.73,1.32,7.68.79Z"/><path class="cls-14" d="M627.55,105.3a1.29,1.29,0,0,1,.17.16c-.05-.11-.11-.22-.15-.32Zm7.08,2.52c.09.11.19.23.3.34l0-.13S634.65,107.66,634.63,107.82Zm-56.57,66.32c5.84,7.94,15.42,16.82,26.25,17.92a16.68,16.68,0,0,0,10.91-3.22c4.58-3.22,9.39-6.48,13-10.52a33.52,33.52,0,0,0,7.1-11.17c2-5,2.22-6.33,2.39-11.56a51.39,51.39,0,0,1,.87-8c.56-2.52,3.13-12.41,4.18-18.28s-3.66-15.9-3.66-15.9a11.3,11.3,0,0,0-1.49-4.3l-.69-.1a.7.7,0,0,1,.25.69,5.56,5.56,0,0,1-2.26-1.51v0a2.71,2.71,0,0,1-2.84-1.24c0,.16.1.51.28.53a3.51,3.51,0,0,1-2.64-1.37c0,.16.11.51.08.67a6.73,6.73,0,0,1-2.09-1.32c.13.23,4.14.21,4.12.32-1.06,0,.08.52-.67-.4l-.77-.72c-.89,0-.94.56-1.54-.19.15.19-.22-1.82-.24-1.66-1-.16-.75-.18-1.54-.79,0,.16-3,.61-3,.77-.87-.13-.76.7-1.36,0,.15.18.73-.57.88-.39-1.07,0-1.56.62-2.31-.31.15.19-3.17-2.26-3.17-2.26-1.06,0-.94.36-1.71-.41.3.37-4.76-1-4.64-.67-.86-.13,1.19,3.43.56,2.85,0,.16-1.92-.78-1.92-.78-.89,0,.29,1-.31.28,0,.16.08.67.25.69a3.57,3.57,0,0,1-3.22-1c.3.37.42.72.57.9a3.42,3.42,0,0,1-2.36-.84c0,.16.26.69.43.72a3.47,3.47,0,0,1-2.73-.74c0,.16.28.53.42.72a2.51,2.51,0,0,1-2-.63l.43.72a5.56,5.56,0,0,1-2.26-.34c0,.16.3.37.28.53a6.46,6.46,0,0,1-1.72-.42c0,.16.45.56.28.53-.7-.1-1.26.14-2.08-.31.15.18.27.53.42.71a4.56,4.56,0,0,1-2.06-.47,1.15,1.15,0,0,0,.26.69c-.7-.1-1.27.14-2.09-.31,0,.16.28.53.43.72a9.77,9.77,0,0,1-2.09-.31c0,.16.3.37.45.55a5.75,5.75,0,0,1-2.23-.49c0,.31.1.5.08.66-.52-.08-.84-.29-1.37-.37l-.91.19c-2.91,2.83-4.32,13.53-4.32,13.53-6,3.49-9.42,11.95-9.7,15a73.17,73.17,0,0,1-2.12,9.45,29.87,29.87,0,0,1-2.58-5.27c-.36-1.19.21-2.57-.15-3.76-1.18-2.79-4.77-2.51-6.92-1.2l-.39.48c-3.2,3.2-2,14.83-.48,18.45-.42,6.85,5,11.29,9.09,6.89l.55,2.78"/><path class="cls-9" d="M639.45,119.69c-2.83-9.9-12.85-16.65-34.4-22.6a79.41,79.41,0,0,0-39.9-.47C580,66.71,611.77,72.49,618.88,73.55s36.78,35.54,23.8,58.5l-1,2.37S640,121.5,639.45,119.69Z"/><path class="cls-9" d="M560.48,89.25s.3-20.09,15.67-24.56c20.52-6,47.3-6,53.68,15.67Z"/><path class="cls-10" d="M555.34,137.33C554,135.49,555.09,131,554,129c-5.74-10.5-2.09-19.39,1.46-24.47,1.54-2.21.49-6.65.92-8.72,2.23-10.89,3.54-11,21.53-19.87,14.65-7.19,29-4.64,37.25-3,13.24,2.7,19,4.41,22.25,14.57.43,1.32-.38,2.22-.09,3.78.41,2.21,3,4.57,3.17,7.32a204.81,204.81,0,0,0-33.37,8.44c-15.86,5.75-46.53,32.59-46.83,42C560.28,149.36,556.84,139.37,555.34,137.33Z"/><path class="cls-9" d="M551.15,115.43S581,88.12,608.53,92c0,0-34.56-9.85-54,13.26l-.52,1a24.61,24.61,0,0,0-2.71,8.13Z"/><path class="cls-9" d="M637.64,91.76l-1.76-1a48.89,48.89,0,0,0-13.08-4.93l-7.66-1.68s19.19-.49,22.65,4.86Z"/><path class="cls-25" d="M567,154.27a4,4,0,0,0-4.18,3,3.48,3.48,0,0,0,.56,2.62,3,3,0,0,0,1.36,1.06,4.18,4.18,0,0,0,3.59-.11c.12-.05.2-.17.07-.25s-.39,0-.52.07a3,3,0,0,1-2.61-.07,2.84,2.84,0,0,1-1.06-.78,3.33,3.33,0,0,1,.16-4.27,3,3,0,0,1,2.33-.92c.14,0,.42-.06.49-.19s-.06-.19-.19-.19Z"/><path class="cls-8" d="M575.57,128.84l-3.24,15.36-4.43-7.66S573.36,131,575.57,128.84Z"/><path class="cls-26" d="M568.57,142.93c-1-.14-2.33,0-2.29,1.34,0,1.14.64,2.22.55,3.38,0,.36-.23,1.13-.71,1.12s-1.1-1-1.32-1.42a6.58,6.58,0,0,1-.61-4.25c.26-1.29.79-3.39,2.26-3.79.45-.12.32-.62-.14-.5-1.51.42-2.23,2-2.63,3.37a7.18,7.18,0,0,0-.11,4c.29,1.1,1.28,3.58,2.85,3,1.35-.46,1.24-2.08,1-3.19a8.93,8.93,0,0,1-.39-2c0-.78.66-.71,1.29-.62.36.05.75-.47.26-.54Z"/><path class="cls-9" d="M567.19,120.38s-11.28,8.64-12.62,12.53L554,129A20.53,20.53,0,0,1,567.19,120.38Z"/><path class="cls-7" d="M615.66,162.18a5,5,0,0,1-4.47-1c-.26-.22-1.24-.19-.88.12a7.06,7.06,0,0,0,6.11,1.2c.18-.06.17-.19,0-.29a1.1,1.1,0,0,0-.73-.07"/><path class="cls-7" d="M609.81,160.89a8.22,8.22,0,0,0-2.68-1.11.7.7,0,0,0-.45.07c-.09.06-.12.16,0,.23a3.14,3.14,0,0,0,1.48.58.58.58,0,0,0,.5-.11c.1-.12,0-.22-.17-.24a2.49,2.49,0,0,1-1.19-.47l-.48.3a7,7,0,0,1,2.4,1,.63.63,0,0,0,.52,0c.11,0,.24-.17.1-.27"/><path class="cls-7" d="M606,160.44a3.93,3.93,0,0,1-2.8-1.81c-.65-1.39.43-3.29,2-3.9.17-.06.1-.19,0-.24a.88.88,0,0,0-.62,0,3.93,3.93,0,0,0-2.36,3.28,3.09,3.09,0,0,0,2.26,2.61,6.44,6.44,0,0,0,1.23.36c.17,0,.48,0,.58-.1s0-.2-.2-.23"/><path class="cls-7" d="M617.81,161.92a.14.14,0,0,1,.17-.19,1.36,1.36,0,0,0,.92-.16l.24.41a4,4,0,0,0-1.85.36.32.32,0,0,1-.36-.11c-.06-.07-.12-.22,0-.28"/><path class="cls-7" d="M616.93,162a4.48,4.48,0,0,1,2.08-.39.34.34,0,0,1,.28.18c.05.08.05.18,0,.22"/><path class="cls-7" d="M620.13,162.42a2.32,2.32,0,0,0,2.15-1.07,3.3,3.3,0,0,0-.34-3.73.13.13,0,0,1,.09-.22.41.41,0,0,1,.37.18,3.71,3.71,0,0,1,.74,3.23,2.6,2.6,0,0,1-2,2,3,3,0,0,1-.84.05c-.11,0-.3-.1-.33-.24s.07-.18.18-.17"/><path class="cls-8" d="M632.87,142.28a2.72,2.72,0,0,1,2.76.88,2.75,2.75,0,0,1,.45,1.26,2.56,2.56,0,0,1-.94,2.2,2.36,2.36,0,0,1-2.74.07,2.6,2.6,0,0,1-.82-3.19,2.27,2.27,0,0,1,1.29-1.22"/><path class="cls-8" d="M622.42,143.69s5.24-3,7.68-2.87c3.55.17,7.57,2.75,8.55,4.68,0,0-5.27-3.76-7.78-3.81S622.42,143.69,622.42,143.69Z"/><path class="cls-8" d="M603.57,138.07a3.29,3.29,0,0,0-3.17-.27,2.43,2.43,0,0,0-.91,1,2.54,2.54,0,0,0,.25,2.37,2.37,2.37,0,0,0,2.61.87,2.62,2.62,0,0,0,1.72-2.81c0-.19.22-.53-.5-1"/><path class="cls-8" d="M607.35,141s-4.8-4.16-7.39-4.62c-3.79-.68-8.66.87-10.16,2.5,0,0,6.47-2.38,9.13-1.83S607.35,141,607.35,141Z"/><path class="cls-8" d="M640.7,139.58a1.2,1.2,0,0,1,0-.28c.07-.29.14-.57.2-.85a2.27,2.27,0,0,1,.1-.58v0a3.38,3.38,0,0,1-.24-.72,7.73,7.73,0,0,0-.6-.78,10,10,0,0,0-3.06-2.13,35.91,35.91,0,0,0-10.54-1.88c-.12.7-.25,1.41-.37,2.12-.09.54-.19,1.08-.28,1.62,1.89-.13,3.48-.15,4.69-.14a15.65,15.65,0,0,1,5.22.55,14.34,14.34,0,0,1,3.09,1.63,8.43,8.43,0,0,1,1.56,1.22A2.25,2.25,0,0,1,640.7,139.58Z"/><path class="cls-8" d="M609.24,129.12l-.3,2.14c-.07.54-.15,1.08-.23,1.62-2.06-.74-3.84-1.28-5.19-1.66a21.07,21.07,0,0,0-6-1.2,18.91,18.91,0,0,0-4,.52,11.43,11.43,0,0,0-2.16.65c-1.54.69-2.26,1.61-2.49,1.49s.27-.94.32-1a8.71,8.71,0,0,1,3.53-3.2,12.41,12.41,0,0,1,4.13-1,48.7,48.7,0,0,1,12.4,1.67"/><path class="cls-8" d="M615.14,104.37s6.47,7.43,19.49,7c0,0-9.93-8.56-13.36-9.28Z"/><polyline class="cls-14" points="497.57 359.72 545.7 413.35 557.63 402.51 523.24 337.8"/><path class="cls-14" d="M584.05,434c1.69-.17,2.54-.23,3.41-1.83a6.26,6.26,0,0,0,.31-2.29l-9.39-17.21c3.29-.38,7.48,6.7,10.63,5.7s.39-3.47,0-4.17S579.77,404,579.77,404s-10.25-5.41-12.93-6.08-10.47-1.43-10.47-1.43l-5.43-1.43s-10.3,2.69-16.12,6.17c-.42.25,7.78,8.69,9.67,12.52s7.26,11.88,7.26,11.88S564,433.85,566,434.12s5.56-1.54,5.56-1.54a21.2,21.2,0,0,1,4.27,1.57c5.57,1.46,5.59-1.51,5.59-1.51l1.29.79C582.79,433.53,584,433.93,584.05,434Z"/><path class="cls-24" d="M579.3,414.72a47.05,47.05,0,0,1-3.79-5.36,26.09,26.09,0,0,1-3.48-5.6,27.07,27.07,0,0,1,4.16,5.14A18.48,18.48,0,0,1,579.3,414.72Z"/><path class="cls-24" d="M568.73,417c.19-.2,3.25,3,6.36,7.32,1.57,2.16,2.95,4.16,4,5.59a13.07,13.07,0,0,1,1.57,2.38,7.88,7.88,0,0,1-2-2c-1.14-1.34-2.59-3.28-4.17-5.44C571.32,420.49,568.59,417.16,568.73,417Z"/><path class="cls-24" d="M562.07,420.71c.2-.11,1.94,2.79,4.54,6s5,5.58,5,5.74a29,29,0,0,1-9.51-11.77Z"/><path class="cls-2" d="M523.81,207.53s-19,5.38-25.68,22-23.59,75.28-18.22,106.8c1.91,11.17,22.35,32.68,22.35,32.68l30.48-21.65L518,313.43s10.36-31.76,12.78-45.57S523.81,207.53,523.81,207.53Z"/><path class="cls-22" d="M523.76,294.34c.31.23,0,0,.14.4A325.6,325.6,0,0,0,534,250.51S529,275.82,523.76,294.34Z"/><path class="cls-22" d="M522.48,322.24c-.13.37-.28.74-.43,1.1L533.72,347l-4,3.1.89.9,4.63-3.83Z"/><path class="cls-22" d="M518.46,313.42S504,313,497.63,320.57C497.63,320.57,506.53,307.42,518.46,313.42Z"/><path class="cls-22" d="M677,291.62s-8.35,8.74-7.48,16.61C669.5,308.23,666.88,295.9,677,291.62Z"/><path class="cls-14" d="M727.75,275c-.92.7-16,15.52-16,15.52l2.57,7.3,5.44,5.25a8.27,8.27,0,0,0,9.18,1.58l6.94-3.15c1.48,1,4.16-1.61,4.16-1.61-2.78,2.87.51,5.74.51,5.74l3.24-1.95,1.73.07,4-3.65,1.77-5.21-2-5-5.93-1.51-.26-.53,5.75.1a37,37,0,0,0,3.88,6.29,2.73,2.73,0,0,0,.56.66,2.67,2.67,0,0,0,3.75-.34l-1.34-8.39,1.31-.88L752.59,276l-5.35-3.55a3.7,3.7,0,0,0-2.61-.57c-3.55.5-12.46,1.82-12.63,1.93A15.7,15.7,0,0,0,727.75,275Z"/><path class="cls-24" d="M739.53,298a5.53,5.53,0,0,1,2.08-4.16l.25-.18-.15.41a7.06,7.06,0,0,1,.07-4.43,3.1,3.1,0,0,1,1-1.57,12.69,12.69,0,0,1-.46,1.71,7.67,7.67,0,0,0,.16,4.06l.07.26-.21.16-.22.17a5.62,5.62,0,0,0-2,3.61,12.71,12.71,0,0,1-.1,1.82C739.87,299.87,739.51,299.24,739.53,298Z"/><path class="cls-24" d="M742.78,302.14a4.2,4.2,0,0,1-.15-2.48,7.33,7.33,0,0,1,1.31-2.69c.34-.46.69-.89,1-1.29l-.07.36a3.89,3.89,0,0,1,1-4.1c.85-.7,1.5-.8,1.54-.7s-.56.31-1.19,1a3.51,3.51,0,0,0-.65,3.51v.2l-.13.16c-.33.41-.67.83-1,1.27a5.31,5.31,0,0,0-1.26,4.56,5.43,5.43,0,0,0,1,1.75C744.24,303.81,743.25,303.55,742.78,302.14Z"/><path class="cls-24" d="M744.07,294.69c.76.47,1.3,1,1.18,1.17s-.81-.07-1.57-.54-1.29-1-1.18-1.18S743.31,294.21,744.07,294.69Z"/><path class="cls-24" d="M741.44,298.16c1-1.19,2.24-1.48,2.31-1.28s-.82.74-1.72,1.76-1.22,2-1.44,2S740.46,299.35,741.44,298.16Z"/><path class="cls-24" d="M734.7,294.5a12.54,12.54,0,0,1,.55-6.51c.2,0-.26,2.89.2,6.41s1.64,6.17,1.44,6.28A12.77,12.77,0,0,1,734.7,294.5Z"/><path class="cls-24" d="M750,281.27a16.79,16.79,0,0,0,1.76,2.66,5.8,5.8,0,0,0,2.58,1.68c.76.27,1.3.18,1.3.27s-.51.36-1.43.24a5,5,0,0,1-3-1.69,9.39,9.39,0,0,1-1.69-2.94c-.3-.81-.4-1.37-.3-1.37S749.57,280.57,750,281.27Z"/><path class="cls-24" d="M741.7,286.05c-.4-.66-.38-1.3-.16-1.35s.49.42.8.95.62,1,.49,1.14S742.1,286.71,741.7,286.05Z"/><path class="cls-27" d="M752.21,267.17S752,294.7,752,295.26c-.48,9.38,37.54,9.7,37.54.26l.18-28.09Z"/><path class="cls-27" d="M753.06,275.31a12.07,12.07,0,0,0-4.63-.93,4,4,0,0,0-3.27,1.22,4.58,4.58,0,0,0-.7,2.49,8.53,8.53,0,0,0,1.46,6.29,6.22,6.22,0,0,0,3.49,1.85,17.77,17.77,0,0,0,4,.24v4.28a15,15,0,0,1-6.66-1,9.34,9.34,0,0,1-5-4.49,14.55,14.55,0,0,1-.73-7.28,7.41,7.41,0,0,1,1-3.71,6.52,6.52,0,0,1,4.29-2.21,21.35,21.35,0,0,1,6.77,0"/><path class="cls-28" d="M767.39,214.74a2,2,0,0,0,1.5-.88,1.93,1.93,0,0,0,0-2.58,2.9,2.9,0,0,0-3.51-.21,4,4,0,0,0-1.5,4.12,10.15,10.15,0,0,0,2.61,4.81,18.16,18.16,0,0,1,3.64,5.29,6.67,6.67,0,0,1-1.27,6.73c-1.62,1.86-3.64,3-5.14,4.49a5.11,5.11,0,0,0-1.43,2.61,4.22,4.22,0,0,0,.44,2.77,11.29,11.29,0,0,0,3.85,3.92,17,17,0,0,1,3.84,3.28,10.68,10.68,0,0,1,2.32,6.85,9.22,9.22,0,0,1-.24,2,2.25,2.25,0,0,1-.23.66,23,23,0,0,0,.17-2.62,10.89,10.89,0,0,0-2.44-6.51,18.28,18.28,0,0,0-3.8-3.1,11.86,11.86,0,0,1-4.12-4.12,5.07,5.07,0,0,1-.52-3.22,5.79,5.79,0,0,1,1.6-3c1.59-1.68,3.6-2.8,5.1-4.5a5.86,5.86,0,0,0,1.14-6,18.21,18.21,0,0,0-3.45-5.1,10.53,10.53,0,0,1-2.71-5.17,4.61,4.61,0,0,1,1.84-4.69,3.38,3.38,0,0,1,4.11.39,2,2,0,0,1,.55,1.71,2.8,2.8,0,0,1-.61,1.37,2.14,2.14,0,0,1-1.8.85,1.21,1.21,0,0,1-.65-.27C766.71,214.51,766.91,214.68,767.39,214.74Z"/><path class="cls-14" d="M738.55,284.76l-4.62,1.95s-4.7,8.91-8.72,12.93-16.45-5.2-16.45-5.2L725,280.55l13-3.7,11.49.54C753.73,284.72,738.55,284.76,738.55,284.76Z"/><path class="cls-24" d="M716.92,287.22l1.69-1.54,6.34-5.56h0l13-3.78h.12l11.49.52h.33l.1.17.09.2a5.4,5.4,0,0,1,.69,2.2,3.32,3.32,0,0,1-.72,2.21,7.56,7.56,0,0,1-3.68,2.19,27.92,27.92,0,0,1-7.71,1.07h.13l-4.64,1.93.15-.15a76.74,76.74,0,0,1-6.1,9.64,29.91,29.91,0,0,1-2.05,2.43,5.43,5.43,0,0,1-.84.75,5.47,5.47,0,0,1,.71-.88c.46-.56,1.12-1.39,1.89-2.5a90.91,90.91,0,0,0,5.85-9.71v-.1h.1l4.61-2h.07a28.38,28.38,0,0,0,7.49-1.09,6.77,6.77,0,0,0,3.31-2,3.13,3.13,0,0,0,0-3.6l-.1-.17.32.18-11.49-.56h0l-13.07,3.64h.1l-6.46,5.37-1.8,1.44a3.8,3.8,0,0,1-.65.46A2.38,2.38,0,0,1,716.92,287.22Z"/><path class="cls-28" d="M767.89,258.31a7.56,7.56,0,0,0-1.09-4.38,17.76,17.76,0,0,0-4.72-4.9,16.16,16.16,0,0,1-5.59-6.56,6.54,6.54,0,0,1-.14-4.59,9.2,9.2,0,0,1,2.45-3.46c1.94-1.82,3.83-3.22,4.69-5a4.66,4.66,0,0,0,0-4.3,5.29,5.29,0,0,0-1.13-1.23s.17,0,.44.17a2.79,2.79,0,0,1,.94.9,4.88,4.88,0,0,1,.2,4.7c-.86,1.94-2.84,3.48-4.68,5.25a8.61,8.61,0,0,0-2.23,3.2,5.82,5.82,0,0,0,.15,4.07,15.85,15.85,0,0,0,5.38,6.27,17.78,17.78,0,0,1,4.75,5.21,7.49,7.49,0,0,1,.9,4.66,5.57,5.57,0,0,1-.39,1.24,1.56,1.56,0,0,1-.26.37A15,15,0,0,0,767.89,258.31Z"/><path class="cls-29" d="M610,168.66c-5.33-.94-13.85-3.12-13.85-3.12s-.34,11.39,12,13.57,15.92-8.65,15.92-8.65S615.32,169.6,610,168.66Z"/><path class="cls-30" d="M610,168.67c-2.53-.45-12.66-2.7-12.66-2.7s2.33,6.49,11.5,8.11c9.93,1.75,13.88-3.55,13.88-3.55Z"/><path class="cls-31" d="M610.08,169.09c-2.53-.45-10.16-2.26-10.16-2.26s2.26,3.41,9.86,4.75,10.51-1.07,10.51-1.07Z"/><path class="cls-29" d="M624.78,169.74a18.93,18.93,0,0,1-3.06-.2c-2.07-.56-3.28-1.37-4.78-1.76-2.55-.67-4.39.12-5.52-.08s-2.58-1.57-5.21-1.81c-1.54-.15-5.41-.23-7.54-.41a18.89,18.89,0,0,1-2.94-.86c-.39,0-.18,3,14,5.55S625.13,169.9,624.78,169.74Z"/></svg>