<svg id="Layer_1" data-name="Layer 1" xmlns="http://www.w3.org/2000/svg" viewBox="0 0 1431.49 1161.44"><defs><style>.cls-1{fill:#f2ebd1;}.cls-2{fill:#956243;}.cls-3{fill:#c95744;}.cls-4{fill:#bb997a;}.cls-5{fill:#442517;}.cls-6{fill:#633719;}.cls-7{fill:#d3d3d3;}.cls-18,.cls-42,.cls-8{fill:#fff;}.cls-9{fill:#282b2b;}.cls-10,.cls-13,.cls-20,.cls-44{fill:none;}.cls-10,.cls-13{stroke:#282b2b;}.cls-10,.cls-13,.cls-20,.cls-42,.cls-44,.cls-45{stroke-miterlimit:10;}.cls-10{stroke-width:5.3px;}.cls-11{fill:#f47920;}.cls-12{fill:#ad3624;}.cls-13{stroke-width:5.06px;}.cls-14{fill:#61686c;}.cls-15{fill:#777;}.cls-16{fill:#383838;}.cls-17{fill:#fdc642;}.cls-18{opacity:0.15;}.cls-19{fill:#52656c;}.cls-20{stroke:#fff;stroke-width:2.06px;opacity:0.51;}.cls-21{fill:#361b10;}.cls-22{fill:#4c2713;}.cls-23{fill:#543021;}.cls-24{fill:#1d3942;}.cls-25{fill:#653c2a;}.cls-26{fill:#b15e27;}.cls-27{fill:#df8c26;}.cls-28{fill:#ce8d2a;}.cls-29{fill:#13110f;}.cls-30{fill:#231f20;}.cls-31{fill:#010101;}.cls-32{fill:#e04026;}.cls-33{fill:#e24226;}.cls-34{fill:#f6871f;}.cls-35{fill:#fdde13;}.cls-36{fill:#fffffc;opacity:0.71;}.cls-37,.cls-45{fill:#953021;}.cls-38{fill:#919191;opacity:0.34;}.cls-39{fill:#653c29;}.cls-40{fill:#31160e;}.cls-41{fill:#f1eef7;}.cls-42{stroke:#231f20;stroke-width:0.69px;}.cls-43{fill:#4ab749;}.cls-44{stroke:#942f21;}.cls-45{stroke:#953021;stroke-width:0.5px;}</style></defs><polyline class="cls-1" points="1430.49 1161.44 1430.49 0 -1 0 -1 1161.44"/><path class="cls-2" d="M385.16,585.12a2.08,2.08,0,0,1-.14,1.1c-1.23,3-7.56,15.42-7.56,27.18,0,10.59,0,26,0,31.29a2.06,2.06,0,0,0,2.36,2.06c1.73-.28,4-1.52,5.28-5.75a81.51,81.51,0,0,0,2.32-14.13,2.07,2.07,0,0,1,3.36-1.48h0a2.08,2.08,0,0,1,.78,1.72l-.73,14.82a2.08,2.08,0,0,1-1.28,1.82c-2.73,1.14-9.29,4.28-11.11,8.91a2.07,2.07,0,0,0,2.07,2.78l9.49-.56a2.5,2.5,0,0,0,.38-.06l9.32-2.3a2.08,2.08,0,0,0,1-.55l8.32-8.36a2.11,2.11,0,0,0,.54-1l6.77-26.16a14.36,14.36,0,0,0,0-7.25,198.91,198.91,0,0,1-4.24-20.65c-1.72-13.63-2.68-22.42-3.11-26.48a2.07,2.07,0,0,0-2.77-1.73l-21.86,7.9a2.1,2.1,0,0,0-1.35,2.27Z"/><path class="cls-3" d="M366,292.46c3.18,1.44,32.87,3.42,38.37,29.53s1,99.77,3.06,122.6c2.82,26.62,11.45,69,12.49,103.16l-2.59,32.1-24.45-1.57s-20.3-121.71-30.55-158.34S366,292.46,366,292.46Z"/><polyline class="cls-4" points="0 1165.56 1431.49 1165.56 1431.49 1114.47 0 1114.47"/><rect class="cls-5" x="536.75" y="757.75" width="584.98" height="29.87" transform="translate(1658.48 1545.38) rotate(180)"/><polygon class="cls-6" points="544.12 697.1 490.92 731.44 1157.34 731.44 1104.14 697.1 544.12 697.1"/><rect class="cls-6" x="490.92" y="731.44" width="666.43" height="27.22"/><rect class="cls-5" x="514.43" y="758.66" width="32.03" height="379.33"/><rect class="cls-5" x="1103.37" y="758.66" width="32.03" height="379.33"/><path class="cls-7" d="M686.13,241.21a32.21,32.21,0,1,1,18-42A32.4,32.4,0,0,1,686.13,241.21Z"/><path class="cls-7" d="M609.42,198a22.61,22.61,0,1,1,12.63-29.45A22.75,22.75,0,0,1,609.42,198Z"/><path class="cls-7" d="M543.29,213a15.14,15.14,0,1,1,8.46-19.72A15.24,15.24,0,0,1,543.29,213Z"/><path class="cls-8" d="M689.78,232.29a32.21,32.21,0,1,1,18-41.95A32.41,32.41,0,0,1,689.78,232.29Z"/><path class="cls-8" d="M613.07,189.05A22.61,22.61,0,1,1,625.7,159.6,22.75,22.75,0,0,1,613.07,189.05Z"/><path class="cls-8" d="M546.94,204.06a15.14,15.14,0,1,1,8.46-19.72A15.24,15.24,0,0,1,546.94,204.06Z"/><rect class="cls-9" x="559.57" y="697.71" width="18.65" height="7.32"/><rect class="cls-9" x="726.02" y="697.71" width="18.65" height="7.32"/><line class="cls-10" x1="650.36" y1="653.39" x2="650.36" y2="664.97"/><path class="cls-11" d="M617.87,660.9c0,5.29-2.9,4.27-6.48,4.27s-6.47,1-6.47-4.27S611.39,646,611.39,646,617.87,655.62,617.87,660.9Z"/><path class="cls-11" d="M632,660.9c0,5.29-2.9,4.27-6.48,4.27s-6.47,1-6.47-4.27S625.53,646,625.53,646,632,655.62,632,660.9Z"/><path class="cls-11" d="M646.58,660.9c0,5.29-2.9,4.27-6.47,4.27s-6.48,1-6.48-4.27S640.11,646,640.11,646,646.58,655.62,646.58,660.9Z"/><path class="cls-11" d="M667.65,660.9c0,5.29-2.9,4.27-6.47,4.27s-6.48,1-6.48-4.27S661.18,646,661.18,646,667.65,655.62,667.65,660.9Z"/><path class="cls-11" d="M682.66,660.9c0,5.29-2.9,4.27-6.48,4.27s-6.47,1-6.47-4.27S676.18,646,676.18,646,682.66,655.62,682.66,660.9Z"/><path class="cls-11" d="M697.45,660.9c0,5.29-2.9,4.27-6.48,4.27s-6.47,1-6.47-4.27S691,646,691,646,697.45,655.62,697.45,660.9Z"/><path class="cls-12" d="M615.64,662.63c0,3.47-1.9,2.8-4.25,2.8s-4.24.67-4.24-2.8,4.24-9.75,4.24-9.75S615.64,659.17,615.64,662.63Z"/><path class="cls-12" d="M629.78,663.14c0,3.47-1.9,2.8-4.25,2.8s-4.24.67-4.24-2.8,4.24-9.75,4.24-9.75S629.78,659.68,629.78,663.14Z"/><path class="cls-12" d="M644.35,662.63c0,3.47-1.9,2.8-4.24,2.8s-4.25.67-4.25-2.8,4.25-9.75,4.25-9.75S644.35,659.17,644.35,662.63Z"/><path class="cls-12" d="M665.65,662.63c0,3.47-1.9,2.8-4.24,2.8s-4.25.67-4.25-2.8,4.25-9.75,4.25-9.75S665.65,659.17,665.65,662.63Z"/><path class="cls-12" d="M680.32,662.63c0,3.47-1.9,2.8-4.24,2.8s-4.25.67-4.25-2.8,4.25-9.75,4.25-9.75S680.32,659.17,680.32,662.63Z"/><path class="cls-12" d="M695.22,662.63c0,3.47-1.9,2.8-4.25,2.8s-4.24.67-4.24-2.8,4.24-9.75,4.24-9.75S695.22,659.17,695.22,662.63Z"/><polyline class="cls-13" points="600 664.97 600 653.65 701.63 653.65 701.63 664.97"/><rect class="cls-14" x="559.57" y="664.97" width="185.1" height="32.74"/><circle class="cls-9" cx="652.12" cy="681.34" r="11.05"/><path class="cls-15" d="M572.4,553a5,5,0,0,0-1.45-3.42,11.11,11.11,0,0,0,2.56-.79h0c-.55-4.47-1-8.32,5.76-8.28,45.31.26,90.63.27,135.94.36,10.73-.67,10.73-.67,11.38,9h0l-.14,18.67c0,20.28,0,40.57-.17,60.85-.11,10.86-5.44,16.6-15.86,17.8l-122.08,0c-9.25-1.48-12.74-4.93-14.42-14.26-2.18-18.66-.38-46.35-1-65"/><path class="cls-15" d="M709.68,646.73a4.65,4.65,0,0,1,.74.37C710.18,647,709.93,646.85,709.68,646.73Z"/><path class="cls-16" d="M573.28,548.72a13,13,0,0,0-2.27-.2H556.63c-5.92,0-10.77,3.77-10.77,8.38s4.85,8.39,10.77,8.39H571a13,13,0,0,0,2.27-.2Z"/><path class="cls-16" d="M726.23,548.72a13,13,0,0,1,2.27-.2h14.38c5.93,0,10.77,3.77,10.77,8.38s-4.84,8.39-10.77,8.39H728.5a13,13,0,0,1-2.27-.2Z"/><path class="cls-8" d="M799.46,634.45a4.85,4.85,0,0,1-3.74-5.08c0-.78,0-1.57,0-2.35.06-2.5,1.23-4.37,3.59-5,1.33-.38,1.45-1,1.42-2.17-.17-5.46.14-10.92-.29-16.39a31.92,31.92,0,0,0-5.72-16.06c-2.62-3.79-6.1-6.78-9.32-10-1.06-1.06-1.89-1.94-.22-3.13a1.23,1.23,0,0,0,.43-1.13l-.4-.25h-8.32l-.35.16a81.07,81.07,0,0,0-8.68,0,1.52,1.52,0,0,0,.6,1.43c1.2.88.77,1.59-.11,2.43-2,1.94-4,3.94-6,6a32.09,32.09,0,0,0-9.65,23.33c0,4.27,0,8.54,0,12.81,0,1.65-.12,3.18,2.14,3.32.3,0,.59.39.85.62,2.65,2.35,1.73,5.39,1.5,8.24a3.25,3.25,0,0,1-2.71,3c-1.36.34-1.79,1.17-1.79,2.63.06,18,0,36,.06,54a17.88,17.88,0,0,0,4.9,12.36,2.71,2.71,0,0,0,2.17,1.06c5.59-.06,11.19-.06,16.78-.08l13.33,0a.64.64,0,0,1,1.09,0c3.13.64,5-.92,6.58-3.45a22,22,0,0,0,3.11-12c.06-17.45,0-34.9.06-52.35A1.57,1.57,0,0,0,799.46,634.45Zm-43.21-33.36-.33,0Zm42,91c0,3.39-1.76,6.28-3.76,8.94a2.47,2.47,0,0,1-2.21.88c-5.23,0-10.47,0-15.7,0l0-.11-16.06,0c-2.16,0-2.6-1.94-3.35-3.25a17.89,17.89,0,0,1-2.34-9.33c.12-17,.07-34.06,0-51.09a2.33,2.33,0,0,1,1.4-2.46c3.36-1.86,4.18-6,3.42-9.68-.52-2.48-1.26-4.92-4.16-5.73-.57-.16-.65-.66-.65-1.16,0-5.71,0-11.43.09-17.14,0-.21.19-.41.3-.61a.72.72,0,0,1,.15-.11.72.72,0,0,0-.15.11l21.31.07c6.8,0,13.6,0,20.39-.09,1.08,0,1.32.43,1.31,1.38q0,8,0,16.07c0,.81-.28,1.16-1.07,1.56-2.73,1.39-4.67,7-3.64,9.88.26.72.32,1.51.57,2.24a6,6,0,0,0,3.09,3.43,1.6,1.6,0,0,1,1,1.78C798.26,655.89,798.3,674,798.21,692.11Z"/><path class="cls-16" d="M786,562.81c.2-.78-.2-.86-.81-.69h-.72a.69.69,0,0,0-.73,0l.1.12-.1-.12-6.87,0c-2.88,0-5.76,0-8.64-.12-.86,0-1.14.25-1.13,1.12,0,2.89,0,5.77,0,8.66,0,.55-.06,1.12.71,1.21a81.07,81.07,0,0,1,8.68,0l.35-.16h6.9a.39.39,0,0,1,.68,0h.74l.4.25c.6-.26.65-.69.4-1.23A68.18,68.18,0,0,0,786,562.81Z"/><path class="cls-17" d="M797.23,636a6,6,0,0,1-3.09-3.43c-.25-.73-.31-1.52-.57-2.24-1-2.9.91-8.49,3.64-9.88.79-.4,1.07-.75,1.07-1.56q0-8,0-16.07c0-1-.23-1.39-1.31-1.38-6.79.06-13.59.07-20.39.09l-21.31-.07c-.11.2-.3.4-.3.61,0,5.71-.06,11.43-.09,17.14,0,.5.08,1,.65,1.16,2.9.81,3.64,3.25,4.16,5.73.76,3.66-.06,7.82-3.42,9.68a2.33,2.33,0,0,0-1.4,2.46c0,17,.09,34.06,0,51.09a17.89,17.89,0,0,0,2.34,9.33c.75,1.31,1.19,3.26,3.35,3.25l16.06,0,0,.11c5.23,0,10.46-.06,15.7,0a2.47,2.47,0,0,0,2.21-.88c2-2.66,3.74-5.55,3.76-8.94.09-18.11,0-36.22.06-54.33A1.6,1.6,0,0,0,797.23,636Z"/><path class="cls-18" d="M797.23,636.17a6.11,6.11,0,0,1-3.09-3.54c-.25-.74-.31-1.55-.57-2.3-1-3,.91-8.73,3.64-10.16a1.56,1.56,0,0,0,1.07-1.61q0-8.26,0-16.52c0-1-.23-1.44-1.31-1.43-6.79.07-13.59.07-20.39.1l-21.31-.08c-.11.21-.3.42-.3.63,0,5.88-.06,11.76-.09,17.64,0,.51.08,1,.65,1.18,2.9.84,3.64,3.36,4.16,5.9.76,3.77-.06,8-3.42,10a2.41,2.41,0,0,0-1.4,2.53c0,17.52.09,35,0,52.56a18.81,18.81,0,0,0,2.34,9.59c.75,1.35,1.19,3.35,3.35,3.35l16.06-.05,0,.1c5.23,0,10.46,0,15.7,0a2.44,2.44,0,0,0,2.21-.91c2-2.74,3.74-5.71,3.76-9.2.09-18.63,0-37.26.06-55.89A1.64,1.64,0,0,0,797.23,636.17Z"/><path class="cls-19" d="M783.79,574.9a.39.39,0,0,1,.68,0Z"/><line class="cls-20" x1="753.65" y1="641.87" x2="799.19" y2="641.87"/><line class="cls-20" x1="753.65" y1="650.82" x2="799.19" y2="650.82"/><line class="cls-20" x1="753.65" y1="658.65" x2="799.19" y2="658.65"/><line class="cls-20" x1="753.65" y1="667.59" x2="799.19" y2="667.59"/><line class="cls-20" x1="753.65" y1="676.43" x2="799.19" y2="676.43"/><line class="cls-20" x1="753.65" y1="685.38" x2="799.19" y2="685.38"/><path class="cls-2" d="M348.05,1059.51s31.28,21,48,37.59h0s-7.43,18.23-17.13,17.34-63.83-34-63.83-34l6.4-19.91Z"/><polygon class="cls-21" points="337.6 1114.74 325.64 1118.71 325.3 1083.38 335.36 1090.05 337.6 1114.74"/><polygon class="cls-22" points="325.38 1082.4 325.64 1118.71 313.49 1114.21 316.4 1083.67 325.38 1082.4"/><path class="cls-21" d="M427.32,1128a10.58,10.58,0,0,1-6.47,2c-11.18-.3-46.2-1.42-53.75-3.88-11-3.57-9.35-1.21-20.12-10.29s-28.48-10.74-32.47-13,.88-20.06.88-20.06.32-3.54,3.46-3l.49,0,9.7,9.55,26.37,14.29,15.19,14.79,29.54,2.34,23.65-1.84s5.41,1.36,6.33,2.31a3.78,3.78,0,0,1,.29,4.19A17.31,17.31,0,0,1,427.32,1128Z"/><path class="cls-23" d="M316.24,1074.49c7.67,1,11.55,11,24.27,18.85,5.69,3.49,32.63,16.58,39.07,11.85a22,22,0,0,0,5.65-3.13c7.62-5.55,12.08-5.31,12.08-5.31a63.21,63.21,0,0,0,9.23,7.07c4.76,2.86,12.54,7.92,18.09,11.72s3.41,6.37,3.41,6.37-4.28,3.25-7.74,3.45a167.22,167.22,0,0,1-18,.08c-8.1-.39-32.66-2.17-38.69-5.24-4.45-2.26-9.83-2.55-18.82-11.88-8.23-8.54-31.71-8.75-32.76-11.92s-.73-11.4,1.21-15.56C313.53,1080.25,315.74,1075.54,316.24,1074.49Z"/><path class="cls-2" d="M365.91,502.86s2.88,141.47,9.29,287.19c5.32,119.87-22.17,275.7-22.17,275.7l-32.21-.56s-19.54-156.37-20.9-281.55C286.73,684,274.1,630.89,274.1,630.89l-2.15-144Z"/><path class="cls-2" d="M304.47,516.85s2.88,141.48,9.29,287.19c5.32,119.87-22.16,275.7-22.16,275.7l-32.66-1.3s-19.1-155.63-20.45-280.81c-13.2-99.6-25.83-152.75-25.83-152.75L223,539Z"/><path class="cls-2" d="M287.41,1071.82s31.29,21,48,37.59h0s-7.44,18.22-17.14,17.33-63.82-34-63.82-34l5.76-19.81Z"/><polygon class="cls-21" points="276.97 1127.05 265.01 1131.02 264.66 1095.69 274.73 1102.36 276.97 1127.05"/><polygon class="cls-22" points="264.75 1094.7 265.01 1131.02 252.86 1126.52 255.77 1095.98 264.75 1094.7"/><path class="cls-21" d="M366.69,1140.26a10.65,10.65,0,0,1-6.48,2c-11.18-.3-46.19-1.43-53.74-3.88-11-3.58-9.35-1.22-20.12-10.3s-28.48-10.74-32.47-13,.88-20.07.88-20.07.32-3.53,3.45-3l.5,0,9.7,9.54,26.37,14.3L310,1130.71l29.55,2.34,23.65-1.84s5.41,1.36,6.33,2.31a3.76,3.76,0,0,1,.29,4.18A17.63,17.63,0,0,1,366.69,1140.26Z"/><path class="cls-23" d="M255.6,1086.8c6.88.19,8.64,8.43,21.37,16.24,5.68,3.49,35.54,19.19,42,14.46a22,22,0,0,0,5.65-3.13c7.62-5.55,12.08-5.32,12.08-5.32a62.28,62.28,0,0,0,9.23,7.08c4.76,2.86,12.54,7.92,18.09,11.71s3.4,6.38,3.4,6.38-4.28,3.24-7.74,3.45a167,167,0,0,1-18,.08c-8.11-.39-32.66-2.17-38.69-5.24-4.45-2.27-9.84-2.56-18.82-11.88-8.23-8.55-31.72-8.76-32.76-11.92s-.73-11.4,1.2-15.56Z"/><path class="cls-24" d="M390.71,907.32C395.94,848.8,400,729.7,400,671l-7-125c-.52-3.31-9-24.3-9.48-27.59-4.06.8,4.15-.41,0,0A158.83,158.83,0,0,1,342.87,517c-27.78-4.42-54.25-14.72-79.62-26.26-10.05-4.57-20-9.4-29.85-14.27l6.13,3.78s-38.84,37.74-55.5,119,35.16,370.51,35.16,370.51,31.65,17.19,106.89,16.84c15.21-.07,43.19.33,56.86-10.41C387.27,953.8,388.65,930.39,390.71,907.32Z"/><path class="cls-3" d="M385.15,436.1c-1.34,1.51-3.25,2.66-4.91,40.46-.3,6.84,5.7,31.43,7,38a127.08,127.08,0,0,1-18.13,3.75c-26.82,3.5-54-1.15-79.73-8.62-22-6.39-43.32-15-64.48-23.78l.69-1.48-1.2-193.51,36.34-11.11,12.49-.86.24,4.07c7.58,10.11,17.43,16.08,30.52,16.82a90.91,90.91,0,0,0,12-.14c11.47-.91,26.44-7,32-15.65.21-.32,9.76,1.63,11.35,2.26,10.77,4.33,17.83,8.36,26.73,12.54,0,0,8.25,14.05,8.1,46.63"/><path class="cls-2" d="M281.36,217.43s3.88,31.23-4.68,52.31c-1.19,2.94-18,10.57-18,10.57l15.78,10.78a67,67,0,0,0,43.67,11.55,108.68,108.68,0,0,0,24.35-4.85l17.41-11.22s-19.2-6.7-19.9-10.37,2.66-31.31,2.66-31.31"/><path class="cls-25" d="M340.2,269s-6.49-2.7-10.88-4.05-12-1.27-32-19.46c0,0,5.47,21.9,31.41,27.19,0,0,6.7,1.57,11.15.6Z"/><path class="cls-2" d="M366.21,136.77l.27.23a3,3,0,0,1-.24-.47Zm10.88,3.46c.15.17.31.33.48.5l0-.2S377.12,140,377.09,140.23ZM294.71,244C304,255.73,319,268.71,335.53,269.8c5.92.39,11.93-2.08,16.4-5.47,6.78-5.14,13.91-10.35,19.21-16.68,5.09-6.08,7.45-9.94,10.19-17.34,2.85-7.66,3-9.73,3-17.69a77,77,0,0,1,.9-12.24c.71-3.86,4.08-19,5.37-28s-6.41-24-6.41-24c-.25-2.5-1.38-4.35-2.49-6.45l-1.05-.12a1.06,1.06,0,0,1,.41,1,8.42,8.42,0,0,1-3.51-2.17v0c-1.68.55-3.18-.36-4.37-1.72,0,.24.18.75.45.79a5.35,5.35,0,0,1-4.08-2c0,.25.18.76.16,1a9.76,9.76,0,0,1-3.25-1.9c.21.35,6.3.1,6.28.27-1.62.06.14.8-1.05-.57l-1.21-1c-1.35.09-1.39.9-2.34-.2.24.28-.43-2.76-.46-2.52-1.59-.18-1.14-.23-2.38-1.11,0,.24-4.52,1.09-4.54,1.33-1.33-.15-1.12,1.1-2.07,0,.24.27,1.08-.91,1.31-.64-1.61.07-2.33,1-3.52-.35.24.28-4.93-3.26-4.93-3.26-1.62.06-1.41.59-2.62-.53.47.55-7.29-1.29-7.08-.77-1.33-.15,2,5.14,1,4.29,0,.25-3-1.07-3-1.07-1.35.09.5,1.53-.45.44,0,.24.16,1,.42,1a5.44,5.44,0,0,1-4.95-1.3c.47.55.68,1.07.92,1.34-1.33-.15-2.41,0-3.63-1.15,0,.24.42,1,.69,1.06a5.28,5.28,0,0,1-4.19-1c0,.25.45.79.69,1.06a3.77,3.77,0,0,1-3.13-.84l.69,1.06c-1.06-.12-1.91.28-3.45-.39,0,.24.48.55.45.79a9.86,9.86,0,0,1-2.62-.54c0,.24.71.82.44.79-1.06-.13-1.91.27-3.18-.37.24.28.45.79.69,1.07a7.13,7.13,0,0,1-3.16-.61,1.93,1.93,0,0,0,.42,1c-1.06-.12-1.91.27-3.18-.36,0,.24.45.79.69,1.06a14.16,14.16,0,0,1-3.18-.36c0,.24.47.54.71.82a8.59,8.59,0,0,1-3.42-.64c-.05.49.18.76.15,1-.79-.1-1.29-.4-2.09-.49l-1.38.34c-4.26,4.44-5.85,20.77-5.85,20.77-9,5.64-13.66,18.66-13.92,23.31s-2.72,14.47-2.72,14.47c-1.13-1.85-3.63-5.83-4.2-7.87-.6-1.79.17-3.92-.43-5.71-1.94-4.17-7.38-3.55-10.57-1.45l-.58.74c-4.68,5-2.18,22.64.26,28.05-.28,10.44,8.22,16.89,14.17,10l1,4.19"/><path class="cls-26" d="M385.05,158c-4.82-14.9-20.41-24.62-53.46-32.5s-60.63,1.4-60.63,1.4c21-46.23,69.54-39.14,80.4-37.9s62.09,49.88,39.25,87.59l-1.32,3.66S385.93,160.72,385.05,158Z"/><path class="cls-26" d="M263.48,116S262.87,85.44,286,77.83c30.86-10.16,71.54-11.58,82.38,21Z"/><path class="cls-27" d="M258.23,189.27c-2.15-2.72-.71-9.6-2.48-12.59-9.28-15.63-4.21-29.34.91-37.24,2.23-3.44.4-10.12.93-13.3,2.81-16.65,4.79-17,31.66-31.33,21.86-11.7,43.77-8.58,56.42-6.45,20.25,3.39,29.09,5.68,34.58,20.94.72,2-.46,3.4.06,5.76.74,3.33,5.73,4.25,6.11,8.41,0,0-27.34,7.56-51.14,17.13s-68.95,52-68.91,66.23C266.37,207.27,260.61,192.29,258.23,189.27Z"/><path class="cls-26" d="M250.7,156.23s43.82-43.08,85.91-38.72c0,0-53-13.12-81.28,23l-.75,1.49a37.36,37.36,0,0,0-3.69,12.49Z"/><path class="cls-26" d="M380.82,115.67l-2.72-1.39A73.91,73.91,0,0,0,358,107.49l-11.74-2.16s29.13-1.76,34.66,6.19Z"/><path class="cls-28" d="M276.81,214.39c-2.86,0-5.69,1.78-6.19,4.73a5.25,5.25,0,0,0,.84,3.83,4.55,4.55,0,0,0,2.15,1.69,6.37,6.37,0,0,0,5.55-.29c.17-.09.32-.26.11-.39s-.6,0-.79.12a4.81,4.81,0,0,1-5.73-1.21,5,5,0,0,1,.14-6.37,4.46,4.46,0,0,1,3.46-1.53c.22,0,.64-.08.75-.3s-.1-.28-.29-.28Z"/><path class="cls-29" d="M288.5,175.29l-4.09,23.51-7.14-11.39S285.27,178.72,288.5,175.29Z"/><path class="cls-30" d="M278.63,197.08c-1.62-.17-3.56.17-3.42,2.18.13,1.75,1.14,3.38,1,5.16,0,.52-.32,1.61-1,1.66-.38,0-.85-.43-1.08-.66a6.51,6.51,0,0,1-1.06-1.49,9.93,9.93,0,0,1-1.13-6.34c.32-2,1-5.21,3.21-5.89.68-.22.48-1-.2-.77-2.31.72-3.32,3.16-3.86,5.32a10.86,10.86,0,0,0,.12,6.21c.51,1.62,2.17,5.25,4.49,4.31,2-.8,1.73-3.2,1.29-4.86a13.42,13.42,0,0,1-.69-3c0-1.18.94-1.14,1.9-1,.55.06,1.15-.73.39-.81Z"/><path class="cls-26" d="M275.33,162.89s-16.67,13.73-18.51,19.71l-1.07-5.92A31.2,31.2,0,0,1,275.33,162.89Z"/><path class="cls-31" d="M351.18,223.81a7.63,7.63,0,0,1-6.85-1.22c-.41-.32-1.89-.22-1.32.22a10.72,10.72,0,0,0,9.34,1.51c.27-.1.25-.3-.06-.44a1.65,1.65,0,0,0-1.11-.07"/><path class="cls-31" d="M342.22,222.16a12.23,12.23,0,0,0-4.14-1.54,1,1,0,0,0-.67.13c-.14.1-.18.24,0,.35a4.6,4.6,0,0,0,2.28.8.87.87,0,0,0,.75-.2c.15-.18-.07-.33-.27-.35a3.77,3.77,0,0,1-1.83-.65l-.71.48a11,11,0,0,1,3.7,1.39.92.92,0,0,0,.78,0c.17-.07.36-.27.14-.41"/><path class="cls-31" d="M336.37,221.68c-1.72-.24-3.66-1.21-4.36-2.59-1.05-2.09.49-5,2.77-6,.25-.11.15-.3-.08-.38a1.38,1.38,0,0,0-.94.09,6,6,0,0,0-3.42,5.11c.07,1.74,1.58,3.11,3.58,3.84a9.26,9.26,0,0,0,1.88.48c.26,0,.73,0,.88-.18s-.07-.31-.31-.34"/><path class="cls-31" d="M354.43,223.3a.22.22,0,0,1,.25-.3,2,2,0,0,0,1.38-.29c.14.21.26.41.4.61a6.08,6.08,0,0,0-2.8.65.51.51,0,0,1-.55-.15c-.1-.1-.19-.33,0-.42"/><path class="cls-31" d="M353.1,223.4a6.73,6.73,0,0,1,3.13-.72.59.59,0,0,1,.44.26.24.24,0,0,1-.05.35"/><path class="cls-31" d="M358,223.93a3.52,3.52,0,0,0,3.22-1.73,5.06,5.06,0,0,0-.71-5.65c-.14-.15,0-.31.12-.35a.66.66,0,0,1,.57.26,5.62,5.62,0,0,1,1.3,4.87,4,4,0,0,1-3,3.1,4.19,4.19,0,0,1-1.27.12c-.17,0-.46-.13-.52-.34s.1-.29.26-.28"/><path class="cls-29" d="M373.42,191.77a4.16,4.16,0,0,1,4.25,1.21,4.1,4.1,0,0,1,.74,1.88,3.88,3.88,0,0,1-1.3,3.39,3.58,3.58,0,0,1-4.17.25,4,4,0,0,1-1.42-4.8,3.53,3.53,0,0,1,1.9-1.93"/><path class="cls-29" d="M359.39,195.4s7.81-4.82,11.51-4.77c5.4.07,11.65,3.78,13.24,6.65,0,0-8.21-5.42-12-5.36C368.48,192,359.39,195.4,359.39,195.4Z"/><path class="cls-29" d="M326.05,186.44a5,5,0,0,0-4.83-.25,3.59,3.59,0,0,0-.81,5.21,3.59,3.59,0,0,0,4,1.17,4,4,0,0,0,2.45-4.35c-.05-.3.31-.82-.81-1.57"/><path class="cls-29" d="M336.35,192.06s-7.51-6.06-11.47-6.63c-5.79-.83-13.1,1.78-15.3,4.34,0,0,9.71-4,13.77-3.27C327.23,187.16,336.35,192.06,336.35,192.06Z"/><path class="cls-29" d="M364.68,177.17l-.36,3.26c-.08.83-.17,1.66-.26,2.48,2.73-.4,5.05-.6,6.8-.7,3.69-.23,5.58-.33,7.64.28a19.51,19.51,0,0,1,4.63,2.12,13.11,13.11,0,0,1,2.38,1.69c1.63,1.55,2.19,3.15,2.49,3s0-1.48,0-1.62a12.74,12.74,0,0,0-3.18-5.93,14.11,14.11,0,0,0-4.62-2.89c-2-.79-7.73-1.83-15.49-1.74"/><path class="cls-29" d="M338.63,174.62c-.23,1.06-.47,2.13-.71,3.2-.18.81-.36,1.62-.55,2.43-3-1.37-5.65-2.4-7.65-3.14-4.21-1.56-6.37-2.34-9-2.52a27.72,27.72,0,0,0-6.11.31,17.35,17.35,0,0,0-3.34.72c-2.43.87-3.63,2.17-3.95,2s.52-1.38.6-1.5a13.09,13.09,0,0,1,5.73-4.43,18.81,18.81,0,0,1,6.36-1c2.62,0,9.62,1.09,18.59,4"/><path class="cls-3" d="M380.24,476.56s14.85,61.63,19.77,75.62c0,0-74,23.57-140.22,12.28s-60-17.42-60-17.42l25.46-63.81L228,454.9,372.28,470"/><rect class="cls-5" x="494.96" y="731.44" width="662.38" height="2.09" transform="translate(1652.3 1464.96) rotate(180)"/><path class="cls-7" d="M768,438.2c-26.79-13.57-46.61-33.09-54.71-62.19A77.54,77.54,0,0,1,716,325.36a92.44,92.44,0,0,1,26.75-36.68c4.4-3.75,4.36-4,1.05-8.88a82,82,0,0,1-15.43-41.16A83.56,83.56,0,0,1,755.65,171a125.87,125.87,0,0,1,86-34.93c8.13-.28,16.51.45,24.9.9,2.93.16,4.53-.61,5.2-3.58a54.52,54.52,0,0,1,3.1-9.46c12-28.32,26-48.71,54.55-60,19.06-7.36,47.49-8.29,67.94-6.83a133.54,133.54,0,0,1,62.88,19.43A107.57,107.57,0,0,1,1089,102a4.07,4.07,0,0,0,.66,1,4.29,4.29,0,0,0,5.92.35,138.79,138.79,0,0,1,46.74-15.57,141.09,141.09,0,0,1,77.43,10.31A109.46,109.46,0,0,1,1260,127.18c16.39,19,24.69,40.55,21.26,65.65-.46,3.34.54,4.73,4,5.46a208.6,208.6,0,0,1,27.58,6.77c23.34,7.86,38.67,23,52.31,43a78.54,78.54,0,0,1,12.57,59.54c-5.57,30.2-19.85,51.15-46.52,66.14a122.78,122.78,0,0,1-43.22,14.71c-4.86.74-5.74,1.92-4.86,6.65a76.73,76.73,0,0,1-6.29,47.68c-13.16,27.42-35.84,44.74-64.43,54.93a138.84,138.84,0,0,1-64.72,6.93,132.11,132.11,0,0,1-63.89-24.94,4.43,4.43,0,0,0-.69-.61,4.87,4.87,0,0,0-6.69.89A126.05,126.05,0,0,1,1010,511.6a145.19,145.19,0,0,1-41.16.77A130,130,0,0,1,915.53,494a100.48,100.48,0,0,1-39.95-43.72c-1.67-3.71-3.81-4.36-7.63-3.31a137.3,137.3,0,0,1-38.65,5.67A139.17,139.17,0,0,1,768,438.2Z"/><path class="cls-8" d="M778.06,424.18c-26.79-13.57-46.61-33.09-54.71-62.19a77.56,77.56,0,0,1,2.77-50.66,92.34,92.34,0,0,1,26.75-36.67c4.4-3.75,4.36-4,1-8.89a82.11,82.11,0,0,1-15.42-41.16A83.54,83.54,0,0,1,765.74,157a125.81,125.81,0,0,1,86-34.92c8.13-.29,16.51.45,24.9.89,2.93.17,4.53-.61,5.2-3.58a54.52,54.52,0,0,1,3.1-9.46c11.95-28.32,26-48.71,54.55-60,19.06-7.36,47.49-8.29,67.94-6.83a133.55,133.55,0,0,1,62.88,19.44A107.37,107.37,0,0,1,1099.05,88a4.07,4.07,0,0,0,.66,1,4.28,4.28,0,0,0,5.92.35,138.56,138.56,0,0,1,46.74-15.56A141,141,0,0,1,1229.8,84.1,109.44,109.44,0,0,1,1270,113.15c16.39,19,24.69,40.55,21.26,65.66-.47,3.34.54,4.72,4,5.46a207,207,0,0,1,27.58,6.76c23.34,7.87,38.67,23,52.31,43a78.51,78.51,0,0,1,12.57,59.53c-5.57,30.2-19.86,51.15-46.52,66.15A123,123,0,0,1,1298,374.42c-4.86.73-5.74,1.91-4.86,6.64a76.73,76.73,0,0,1-6.29,47.68c-13.16,27.43-35.84,44.75-64.43,54.93a138.74,138.74,0,0,1-64.73,6.93,132,132,0,0,1-63.88-24.94,5,5,0,0,0-.69-.61,4.86,4.86,0,0,0-6.69.9,126.11,126.11,0,0,1-66.32,31.62,145.25,145.25,0,0,1-41.17.78A130.27,130.27,0,0,1,925.62,480a100.51,100.51,0,0,1-40-43.73c-1.68-3.71-3.81-4.36-7.63-3.3a137.65,137.65,0,0,1-38.65,5.66A139.3,139.3,0,0,1,778.06,424.18Z"/><path class="cls-32" d="M1155.2,251.13c-1.83,1-3.64,2.07-5.35,3.05-.33-.25-.49-.31-.49-.38,0-1.07-.07-2.14,0-3.2a110.73,110.73,0,0,0-8.49-47c-1.72-4.11-1.78-4.11-5.56-1.44s-7.59,5.75-11.63,8.21c-3.58,2.17-8.24-.58-8.58-4.79a21,21,0,0,1,.26-4.61c1-7.24,2.29-14.45,3-21.73q-9.3-.24-18.58-.11a48.42,48.42,0,0,1,6.42,13.57,61.3,61.3,0,0,1,1.93,23.91c-.68,6.61-2.2,13.06-3,19.64-.27,2.23,1,3.36,2.35,4.43a4.69,4.69,0,0,0,5.65.12c3.33-2,6.65-4.13,9.88-6.33,1.79-1.22,2.74-1,3.87,1,3.5,6.06,5.23,12.72,6.39,19.46a72,72,0,0,1-2.29,35.46c-4.64,13.93-13.75,24.47-25.19,33.18-2.65,2-5,4.78-8.74,5.05l-1.28.85-.83.63c-9.52,6-19.58,10.4-31.17,9.95a45.32,45.32,0,0,1-10.08-.36c-7.09.73-13.9-.9-20.5-3.05a72.77,72.77,0,0,1-36.6-26.37,65.9,65.9,0,0,1-13-36.28c-.64-11.43.17-22.75,3.5-33.82a131.35,131.35,0,0,1,6.86-17.8,2.69,2.69,0,0,1,1.17-1.43c1.7,5,2.88,9.66,5,14,1.82,3.8,4.32,7.08,8.62,8.43,1.77.55,2.68.51,2.17-1.91-3.45-16.09,3.91-28.47,13.81-40a141.67,141.67,0,0,0,14.05-18.66c-11.29,1.08-22.58,2.31-33.87,3.57a47.41,47.41,0,0,0-1.15,22.66c.29,1.52,1.45,3.66-.1,4.55s-3.37-.56-4.88-1.5a15.9,15.9,0,0,1-4.16-3.86,33.32,33.32,0,0,1-5.23-11.25c-.82-2.75-1.55-5.56-2.34-8.58l-4.07.46a146.61,146.61,0,0,0-11.21,67.36c-3.71-1.93-6.5-4.38-10-5.65a4.75,4.75,0,0,0-.41,1.12c-1.07,16-.25,31.88,4.43,47.34,5.19,17.11,14.88,30.75,31.13,39,18.07,9.18,37.26,9.57,56.78,6.73,3.31-.48,6.52-.93,9.86-.28a104.8,104.8,0,0,0,30.56,1.32c19.92-2,37.21-9.34,48.9-26.35,14-20.3,15.45-43.47,14.28-67.11C1157.12,250.67,1156.46,250.43,1155.2,251.13Z"/><path class="cls-33" d="M1158.8,239.05a58.74,58.74,0,0,0-6.12-9.71c-3.39-4.75-3.93-9.71-1.29-15.06,2.09-4.23,4.34-8.44,5.07-13.21.08-.52.25-.91.83-.91s.65.48.85.94c1.47,3.41,2.86,6.87,4.54,10.19C1167.69,221.21,1165.12,230.05,1158.8,239.05Z"/><path class="cls-34" d="M1126.83,235.42c-1.13-2-2.08-2.18-3.87-1-3.23,2.2-6.55,4.29-9.88,6.33a4.69,4.69,0,0,1-5.65-.12c-1.37-1.07-2.62-2.2-2.35-4.43.79-6.58,2.31-13,3-19.64a61.3,61.3,0,0,0-1.93-23.91,48.42,48.42,0,0,0-6.42-13.57c-20.39.26-40.73,1.68-61.06,3.62a141.67,141.67,0,0,1-14.05,18.66c-9.9,11.55-17.26,23.93-13.81,40,.51,2.42-.4,2.46-2.17,1.91-4.3-1.35-6.8-4.63-8.62-8.43-2.08-4.35-3.26-9.05-5-14a2.69,2.69,0,0,0-1.17,1.43,131.35,131.35,0,0,0-6.86,17.8c-3.33,11.07-4.14,22.39-3.5,33.82a65.9,65.9,0,0,0,13,36.28,72.77,72.77,0,0,0,36.6,26.37c6.6,2.15,13.41,3.78,20.5,3.05l-8.43-3.2c-5.67-.59-10.19-3.78-14.57-6.9-15.44-11-23.22-26-22.06-45.1a61.25,61.25,0,0,1,4.82-19.21c1-2.53,2.19-2.68,4.15-.89a38.75,38.75,0,0,0,4.38,3c1.88,1.27,3.88,2.07,5.94.63s1.41-3.61,1-5.57A102.44,102.44,0,0,1,1027,248c-1-19.19,8.56-31.9,24.67-40.61a75.35,75.35,0,0,1,17.14-6.89c1.43-.37,2.51-1.08,2.09,1.49-2.16,13.17,3.48,23.82,11.4,33.58,5.61,6.92,11.42,13.63,13.58,22.64.68,2.81,0,5.39-.17,8.09-.09,1.18-.81,2.82.74,3.52s2.62-.69,3.59-1.69a18.76,18.76,0,0,0,4.86-9.31,12,12,0,0,1,1.86-4.76,66.83,66.83,0,0,1,6.32,17.28c2.65,12,2.83,23.93-1.53,35.71a47.79,47.79,0,0,1-13.5,19.69,2.68,2.68,0,0,0-1.06,1.79c3.72-.27,6.09-3,8.74-5.05,11.44-8.71,20.55-19.25,25.19-33.18a72,72,0,0,0,2.29-35.46C1132.06,248.14,1130.33,241.48,1126.83,235.42Z"/><path class="cls-35" d="M1045.21,336.44c-5.67-.59-10.19-3.78-14.57-6.9-15.44-11-23.22-26-22.06-45.1a61.25,61.25,0,0,1,4.82-19.21c1-2.53,2.19-2.68,4.15-.89a38.75,38.75,0,0,0,4.38,3c1.88,1.27,3.88,2.07,5.94.63s1.41-3.61,1-5.57A102.44,102.44,0,0,1,1027,248c-1-19.19,8.56-31.9,24.67-40.61a75.35,75.35,0,0,1,17.14-6.89c1.43-.37,2.51-1.08,2.09,1.49-2.16,13.17,3.48,23.82,11.4,33.58,5.61,6.92,11.42,13.63,13.58,22.64.68,2.81,0,5.39-.17,8.09-.09,1.18-.81,2.82.74,3.52s2.62-.69,3.59-1.69a18.76,18.76,0,0,0,4.86-9.31,12,12,0,0,1,1.86-4.76,66.83,66.83,0,0,1,6.32,17.28c2.65,12,2.83,23.93-1.54,35.71a47.67,47.67,0,0,1-13.49,19.69,2.68,2.68,0,0,0-1.06,1.79l-1.28.85-.83.63c-9.52,6-19.58,10.4-31.17,9.95.2-.11.38-.31.6-.34,19.25-3.32,31.63-22.34,24.1-43.75-.72-2-1.38-3.44-3.78-1.48-1.24,1-2.57,3-4.55,1.71-1.8-1.2-.65-3.28-.72-5a10.26,10.26,0,0,1,.38-1.74c2.78-18.76-6-28.19-22.28-34.18-1.67-.62-2.35-.32-2,1.8a19.33,19.33,0,0,1-1.7,11.43c-2.06,4.48-5.06,8.29-7.91,12.22-3,4.16-4.92,8.64-4.5,13.91.07.85.72,2.08-.58,2.45-1,.29-1.67-.7-2.27-1.43-1.81-2.25-1.8-5.28-3.31-8-4.47,10.35-6,20.7-3,31.47C1034.35,326.5,1039.27,331.86,1045.21,336.44Z"/><path class="cls-36" d="M1045.21,336.44c-5.94-4.58-10.86-9.94-13-17.35-3.09-10.77-1.51-21.12,3-31.47,1.51,2.72,1.5,5.75,3.31,8,.6.73,1.25,1.72,2.27,1.43,1.3-.37.65-1.6.58-2.45-.42-5.27,1.49-9.75,4.5-13.91,2.85-3.93,5.85-7.74,7.91-12.22a19.33,19.33,0,0,0,1.7-11.43c-.34-2.12.34-2.42,2-1.8,16.33,6,25.06,15.42,22.28,34.18a10.26,10.26,0,0,0-.38,1.74c.07,1.7-1.08,3.78.72,5,2,1.32,3.31-.69,4.55-1.71,2.4-2,3.06-.55,3.78,1.48,7.53,21.41-4.85,40.43-24.1,43.75-.22,0-.4.23-.6.34a45.32,45.32,0,0,1-10.08-.36Z"/><path class="cls-34" d="M1094.89,330.05l.83-.63Z"/><path class="cls-15" d="M951.26,307.33a6.89,6.89,0,0,0-2-4.73,16,16,0,0,0,3.53-1.09h0c-.76-6.18-1.34-11.5,8-11.45,62.7.35,125.4.37,188.1.49,14.85-.92,14.85-.92,15.74,12.4h0l-.18,25.84c-.06,28.07,0,56.14-.24,84.2-.15,15-7.53,23-22,24.64l-168.93,0c-12.79-2.05-17.62-6.82-19.95-19.73-3-25.82-.52-64.13-1.34-90"/><path class="cls-15" d="M1141.22,437.09a6.61,6.61,0,0,1,1,.53C1141.9,437.42,1141.56,437.26,1141.22,437.09Z"/><path class="cls-16" d="M952.47,301.48a17.89,17.89,0,0,0-3.14-.28H929.44c-8.2,0-14.91,5.22-14.91,11.61s6.71,11.6,14.91,11.6h19.89a18.91,18.91,0,0,0,3.14-.27Z"/><path class="cls-16" d="M1164.12,301.48a18.06,18.06,0,0,1,3.14-.28h19.9c8.2,0,14.9,5.22,14.9,11.61s-6.7,11.6-14.9,11.6h-19.9a19.1,19.1,0,0,1-3.14-.27Z"/><path class="cls-16" d="M1008,151.05a3.83,3.83,0,0,1-.88-1.31l-3.55-9.15c-1.46-3.77,3.51-9.25,11-12.18s14.91-2.24,16.37,1.53l3.55,9.15a3.78,3.78,0,0,1,.24,1.57Z"/><path class="cls-15" d="M1020.3,143c-53.19,20.65-85.54,65.14-72.25,99.35l192.63-74.8C1127.39,133.35,1073.5,122.35,1020.3,143Z"/><path class="cls-2" d="M879.91,122.43c2.08,0,48.2,6.9,48.63,7.24,1.14.93,15.75,11.24,17.93,11.79,8.83,2.22,27.22,4.22,27.22,4.22s12.29,2.55,19.21,2.48,26.58-3.35,26.58-3.35l-3-3.47a15,15,0,0,0-5.08-3.77l-3.9-1.75c-2.48-1.12-3-.41-5.7-.58l-12.33.5-13.68-9,3-3.26,1.68-.32c4.42-.89,17.68.16,17.68.16l18.87,12.9s10.41,7.54,16.76,1.31L1021.58,125s13.27,13.42,18.79,6.18l-8.59-10.34a4.15,4.15,0,0,0,5.84-.36c0-.41-5-5.18-5-5.59l-19.74-21.66-41.23-6.38-44.91,1L901,79.87l-8,13.74a107.74,107.74,0,0,0-5.94,11.87Z"/><path class="cls-25" d="M986.16,105.9c4.53.33,10.75.89,17.62,1.62l1.9.2.29,0,.22.22c4.56,4.6,8.6,8.79,11.38,11.84s4.49,5,4.32,5.16a28.07,28.07,0,0,1-5.13-4.35c-3-2.77-7.21-6.87-11.78-11.44l.51.24a11.51,11.51,0,0,0-1.88-.2c-6.88-.74-13.09-1.47-17.58-2.12s-7.24-1.15-7.23-1.38S981.62,105.56,986.16,105.9Z"/><path class="cls-25" d="M998.88,97.86c4,.44,9.59,1.16,15.82,2l.32,0,.2.24,1.27,1.48c4.26,5,8,9.64,10.74,13s4.25,5.55,4.08,5.68-2.08-1.77-5-5-6.78-7.74-11.11-12.73l-1.27-1.5.53.3c-6.31-.94-11.79-1.82-15.77-2.55a28.44,28.44,0,0,1-6.37-1.46C992.37,97.23,994.87,97.42,998.88,97.86Z"/><path class="cls-16" d="M637.54,489.19a2.87,2.87,0,0,1-.32-1.13l-.41-7.23c-.17-3,4.56-5.69,10.52-6s11,1.82,11.14,4.8l.41,7.23a2.68,2.68,0,0,1-.19,1.15Z"/><path class="cls-15" d="M648,486.33c-42,2.39-74.89,26.25-73.35,53.3L726.9,531C725.36,503.93,690,484,648,486.33Z"/><path class="cls-37" d="M383.09,435.83c2.53-4.28,22.19-12.52,17.55-39.87-2.29-13.46-6.51-50.52-6.51-50.52s6.58,35.78,8,45.29,2,26.65-6.07,34.92-9.69,8.26-10.9,10.45-.9,2.66-.9,2.66"/><path class="cls-37" d="M383.76,435.82a15.36,15.36,0,0,1,3.42-3.31,65.87,65.87,0,0,0,5.58-5.11,33.24,33.24,0,0,0,9-18.72c1-7.92-.93-15.85-2-23.67-1.12-8.21-2.14-16.44-3.13-24.67q-.92-7.54-1.78-15.1l-1.45.39q3.15,17.06,6.14,34.14a154.5,154.5,0,0,1,2.6,18.66c.46,8.69,0,19.34-5.94,26.33a83.65,83.65,0,0,1-9.7,9.11,9,9,0,0,0-1.75,1.8c-.43.64-1.69,2.46-1.23,3.29.25.44,1.64-.06,1.45-.39-.41-.74.81-2.51,1.23-3.08a9.09,9.09,0,0,1,1.55-1.55c2.87-2.43,5.64-4.94,8.29-7.61,6.48-6.54,7.74-16.19,7.66-25a121.93,121.93,0,0,0-2.28-19.42c-1.27-7.44-2.61-14.87-3.95-22.3q-1.31-7.18-2.62-14.35c-.07-.42-1.5-.08-1.45.39,1.39,12.14,2.84,24.27,4.45,36.37.48,3.61,1,7.22,1.53,10.82a69.12,69.12,0,0,1,1.22,12.59,32.94,32.94,0,0,1-7.9,20.6,54.51,54.51,0,0,1-6.3,6c-1.35,1.13-3,2.27-4,3.79-.31.52,1.12.34,1.34,0Z"/><path class="cls-38" d="M715.74,535.56c9.32,1.32,19.65,3.93,28.85.68,8-2.82,12.62-10.09,16.14-17.35,4-8.34,9.1-15.73,18.72-18,6.62-1.55,16.81-.88,20.19,6.17a9.54,9.54,0,0,1-.21,8.46,10.19,10.19,0,0,1-6.79,5.11c-3.21.71-6.9-.5-7.73-4a5.56,5.56,0,0,1,.42-3.55.75.75,0,0,0-1.09-.94c-1.69,1.14-2.92,2.78-2.52,4.95a7,7,0,0,0,1.33,2.81c5.61,7.73,17.72,7.56,21.9-1.41,3.43-7.37,2.59-15.44-4.47-20-10-6.45-21.57-4.44-30.79,2.21-7.36,5.31-11,13.06-14.66,21.08C748.57,536.07,729.3,537.49,715.74,535.56Z"/><path class="cls-38" d="M729.05,532.32c6.47-1.26,11.64-1.89,16.92-6.61a29.62,29.62,0,0,0,9.6-18.54c.59-5.19-1-14.18-7.47-15-2.5-.34-6.54.55-8.16,2.49-2.4,2.89-2.92,5.93-2.49,9.85a17,17,0,0,0,1,4.13,1.42,1.42,0,0,0,2.68-.78,35.06,35.06,0,0,1-.4-5c.32-2.31.88-4.32,3.1-5.36,3.14-1.48,6.52,1.94,7.38,4.65C755.49,515.66,741.86,529.83,729.05,532.32Z"/><path class="cls-38" d="M781.45,538.46c1.81-2.18,2.4-4.3,0-6.81-1.69-1.78-4.48-2-6.77-1.6-2.11.39-3.44,2.54.43,5.48a.65.65,0,0,1-.51,1.15c-8.62-1.56-5-8.49-2.58-9.59a13.41,13.41,0,0,1,8.31-.6,7.45,7.45,0,0,1,5.8,5.83c1.22,6.41-4.77,11.27-9.89,12.36,0,0-6.64,1.41-11.62,0S742.16,541,742.16,541s18.54.49,23.43,1.13S777.81,542.85,781.45,538.46Z"/><path class="cls-39" d="M344.18,233.73c-7.82-1-20.37-3.67-20.37-3.67s.23,16.51,18.37,18.9,22.63-13.49,22.63-13.49S352,234.76,344.18,233.73Z"/><path class="cls-40" d="M344.26,233.74c-3.72-.49-18.62-3.13-18.62-3.13s3.82,9.26,17.27,11c14.59,1.92,20-6,20-6Z"/><path class="cls-41" d="M344.35,234.34c-3.72-.49-15-2.64-15-2.64s3.51,4.8,14.67,6.27,15.24-2.2,15.24-2.2Z"/><path class="cls-39" d="M365.79,234.38c-.38-.15-2.65.31-4.47-.1-3-.68-4.86-1.78-7.06-2.25-3.77-.81-6.4.44-8.05.22s-3.87-2.11-7.72-2.3c-2.25-.12-7.88,0-11-.13-1.87-.07-3.93-1.11-4.34-1.06-.57.07-.06,4.43,20.75,7.17S366.32,234.59,365.79,234.38Z"/><circle class="cls-42" cx="1283.79" cy="178.35" r="38.28"/><path class="cls-43" d="M1269.84,177.09a21.28,21.28,0,0,0-2.35-2.21,4.82,4.82,0,0,0-7.07,1.39,4.89,4.89,0,0,0,.88,6.35c2.46,2.42,4.88,4.87,7.32,7.31,1.47,1.48,2.93,3,4.44,4.42a4.85,4.85,0,0,0,6.73-.11l1.42-1.41,15.11-15.08h0a1.81,1.81,0,0,1,.18-.21c2.93-2.94,5.84-5.89,8.8-8.79a5.06,5.06,0,0,0,1.7-4.91,4.78,4.78,0,0,0-3.51-3.75,4.61,4.61,0,0,0-4.8,1.23c-3.5,3.46-7,6.95-10.45,10.43l-8.74,8.68-3.26,3.12c-.91-.93-1.85-2-2.86-2.91Z"/><path class="cls-3" d="M236.24,381.83l-.89-94.7s-32.87,6.52-44.64,33.32C180,349.3,157.35,442.07,156.61,461.28c-1.18,30.17.1,30.21,7.71,129.11l43.26-4.08,7.79-125.6Z"/><path class="cls-2" d="M208.65,666.3A124.59,124.59,0,0,0,196.16,653l-3.88-15.46,2.9-7.46,4.33.19s-.35,19.87,3,23.45,5.17,3.69,5.17,3.69L211,653l-2.57-29.52s-3.21-12.7-4.37-15.64a59.58,59.58,0,0,0-5.21-8.22l.9-13.24-27.37,3.19c.65,4.06,1.14,6.19,2.17,10.84l-2.6,31.44,6.53,13.86,8.7,12.5L209.23,673S212.6,671.72,208.65,666.3Z"/><path class="cls-37" d="M224.87,418.55c4.26-14.07,11.37-49,11.37-49,4.93-29.17-3.9-56.34-3.9-56.34s13.14,19.87,5.93,59.34l-13.11,49.5Z"/><path class="cls-37" d="M225.6,418.45c2.08-6.91,3.69-14,5.31-21s3.16-14.18,4.66-21.3a125.3,125.3,0,0,0,2.51-15.67,131.34,131.34,0,0,0-1.43-31.56A108,108,0,0,0,233.06,313l-1.4.48c2.17,3.29,3.58,7.51,4.7,11.33,3.23,11,3.88,22.67,3,34a81.91,81.91,0,0,1-2,14.56l-1.87,7L229,405l-2.91,11-1,3.83a13.74,13.74,0,0,0-.55,2.07,2.68,2.68,0,0,1-.07.27l1.45-.29-.29-3.53c0-.43-1.49-.13-1.45.39l.29,3.53c0,.48,1.35.06,1.44-.29l3.8-14.32,6.63-25.07,2.21-8.34a76.47,76.47,0,0,0,1.83-10.86c1.38-12,1.16-24.4-1.79-36.18a63.8,63.8,0,0,0-3.31-9.89c-.41-.93-.84-1.85-1.32-2.75a6.51,6.51,0,0,0-.81-1.43c0-.05-.07-.12-.11-.18-.22-.34-1.54,0-1.4.47a100.84,100.84,0,0,1,3,12.71A134,134,0,0,1,236.87,357a112.08,112.08,0,0,1-2.39,17.7q-2.11,10.13-4.39,20.22c-1.8,8-3.59,15.94-5.94,23.75C224,419.12,225.46,418.92,225.6,418.45Z"/><polygon class="cls-37" points="195.62 586.6 207.25 584.92 211.4 508.12 210.34 586.23 195.62 586.6"/><path class="cls-37" d="M195.5,586.92l11.63-1.68c.26,0,.83-.18.85-.52l1.4-26,2.24-41.39.51-9.41-1.45.39-.36,26.4-.57,42.07-.14,9.65,1-.54-14.72.36c-.45,0-1.56.71-.6.69l14.72-.37c.28,0,1-.14,1-.53l.36-26.4.58-42.07.13-9.65c0-.32-1.42-.08-1.45.39l-1.41,26L207,575.71l-.51,9.4.84-.52-11.63,1.68C195.11,586.36,194.49,587.07,195.5,586.92Z"/><line class="cls-44" x1="225.71" y1="480.78" x2="225.44" y2="483.64"/><path class="cls-45" d="M383.09,435.83c-3.22,6.75-4.39,41.92-4.39,41.92,2.61,13,20.24,73.73,20.24,73.73L393.88,554l6.32-1.38c-4.92-14-19.77-75.63-19.77-75.63C382.09,439.17,384,440,384.49,437Z"/></svg>