<svg id="Layer_1" data-name="Layer 1" xmlns="http://www.w3.org/2000/svg" xmlns:xlink="http://www.w3.org/1999/xlink" viewBox="0 0 1303.15 1049.73"><defs><style>.cls-1,.cls-28{fill:none;}.cls-2{clip-path:url(#clip-path);}.cls-3{fill:#f2ebd1;}.cls-4{fill:#513835;}.cls-5{fill:#956243;}.cls-6{fill:#a56530;}.cls-7{fill:#8c542a;}.cls-30,.cls-8{fill:#681941;}.cls-8{stroke:#681941;}.cls-25,.cls-26,.cls-27,.cls-28,.cls-29,.cls-8{stroke-miterlimit:10;}.cls-29,.cls-8{stroke-width:1.49px;}.cls-9{fill:#ad7b98;}.cls-10{fill:#993a2f;}.cls-11{fill:#a99231;}.cls-12{fill:#653c2a;}.cls-13{fill:#683b8c;}.cls-14{fill:#966eb0;}.cls-15{fill:#ce8d2a;}.cls-16{fill:#13110f;}.cls-17{fill:#231f20;}.cls-18{fill:#010101;}.cls-19{fill:#653c29;}.cls-20{fill:#31160e;}.cls-21{fill:#f1eef7;}.cls-22{fill:#4b1230;}.cls-23{fill:#dbad63;}.cls-24{fill:#c47c2b;}.cls-25,.cls-26,.cls-27{fill:#151210;}.cls-25,.cls-26,.cls-27,.cls-28{stroke:#161311;}.cls-25{stroke-width:0.68px;}.cls-26{stroke-width:0.67px;}.cls-27{stroke-width:0.7px;}.cls-28{stroke-width:1.64px;}.cls-29{fill:#a06c29;stroke:#a06c29;}.cls-31{fill:#32383a;}.cls-32{fill:#070808;}</style><clipPath id="clip-path"><rect class="cls-1" width="1303.15" height="1046.99"/></clipPath></defs><g class="cls-2"><polyline class="cls-3" points="-329.15 1507.47 -296.53 -68.4 1375.76 -70.1 1343.14 1505.78"/><path class="cls-4" d="M480.65,701.1a.63.63,0,0,1-.23.08l0-.6Z"/><path class="cls-5" d="M814.22,873.74s-48.88,0-75.26,38.27c-15.5,22.51-10.06,62.62-10.38,93-.42,41.3,26.83,332,26.83,332l54.36-13.21,49.45-286.49L858,988.86l199.39-15.93s18.16-59.15-26.52-105.91C1025.41,861,814.22,873.74,814.22,873.74Z"/><path class="cls-6" d="M1060.93,997.45c55.14,0,110.28-6.59,165.42-6.86,12-.06,23,2.44,23.9,13.08,2.4,27.4,5.79,57-35.69,54.1-3.16-.22-6.43.34-9.53-.09-14.44-2-16.67,4-14.77,14.47,6.16,34.06,11.8,60.11,17.46,94.24,13.29,80.27,26.69,160.53,39.57,240.84,3.56,22.15,2.81,22-24.86,21.53-8.54-.13-12.14-2.32-13.32-9.68-12.72-79-25.93-157.92-38.54-236.93-1.47-9.22-4.9-12.82-16.7-12.72q-92.25.77-184.5,0c-12.11-.1-16.25,3-17.86,13.17q-17.85,112.53-37.08,224.89c-3.73,22-4.27,21.46-31.13,21.13-10.75-.14-12-3.3-10.63-11.3,19.87-117.45,39.3-226.86,59.22-344.3,2-12-1.09-17.8-16.66-15.7-5.17.7-10.58.12-15.88.11-23.54,0-28.17-12.23-28.19-33,0-22.56,4.28-33.56,27.53-33.57q81.12-.06,162.24,0Zm80.25,145.29c11.92.27,14.37-3.28,12.7-12.46-4.84-26.53-9.2-34-13.28-60.65-1.36-8.82-4.7-12.69-16.78-12.5-48.7.75-97.43.66-146.13,0-11.14-.14-14.58,3.39-15.87,11.72-4.28,27.49-8.77,35.89-13.72,63.3-1.6,8.87,2.6,10.59,12,10.48,30.71-.38,61.42-.15,92.13-.15C1081.89,1142.53,1111.55,1142.08,1141.18,1142.74Z"/><path class="cls-7" d="M1250.74,1009.26s-176.13,32.39-252.07,22.57-127.13-18.17-124-29.93,56.83-37,111-38.76S1188.06,975,1188.06,975s49.8,8.38,55,15.63S1250.74,1009.26,1250.74,1009.26Z"/><path class="cls-5" d="M864.58,885.16s-48.87,0-75.25,38.27c-15.5,22.51-10.06,62.62-10.38,93-.43,41.3,26.83,332,26.83,332l51.55-14.81,52.26-284.9-1.21-48.46,199.39-15.94s18.16-59.14-26.52-105.9C1075.77,872.46,864.58,885.16,864.58,885.16Z"/><path class="cls-8" d="M1191.06,735.72s85.12,119.17,32.9,208.72c-24.88,42.64-99.33,42.61-99.33,42.61l-76.37-87V756.26Z"/><path class="cls-8" d="M673.92,888c3.86,102.27,21.72,275.16,40.09,379.56,0,0,98.12,24.11,111.3,1.22,0,0,9.13-196.68,53-322,38.59-110.39,272.82-118.82,243.08-128.83-46.81-15.75-331-63.7-389-45.21C693.9,784.93,671.37,820.15,673.92,888Z"/><path class="cls-8" d="M737.85,930.78c-.63-6.59-1.64-13.15-2.92-19.62a254.6,254.6,0,0,0-12.7-42.95,275.93,275.93,0,0,0-20.29-41.58c-5.39-9,26.7-16.55,20.11-24.87,146.31-21.37,408.38,8.48,408.38,8.48s132.67,34.65,100.45,120.34C1188.19,1044.13,861,1003,752,967.71,751.49,967.54,742.29,982.8,737.85,930.78Z"/><path class="cls-8" d="M724.83,804.38s16.68.37,39.34,5.7a87.33,87.33,0,0,1-1.93-17.88q4-2.94,8.46-6a256.75,256.75,0,0,1,35.2,20.38,302.7,302.7,0,0,1,36.61,29.48,262.28,262.28,0,0,1,30.13,33.47c2.54,3.4,39.06,6.87,41.38,10.4-.41,0-8.59,20.36-9,20.39,33.06,55.23,20.58-8.06,23.82,90.17,2.84,86.24-27.32,226.87-22.08,272.69-25.59,24.49-136.16,14.15-136.16,14.15C755.42,1144.3,724.83,804.38,724.83,804.38Z"/><path class="cls-9" d="M973.17,483.65c3.4-45.67-25.45-110.92-25.45-110.92l-25,6.83c-24.83,7.91-42.82,15.91-53.52,30.34l-.93,1.29C849.17,438.75,782,529.49,763.18,560c1.22,9.07,19.37,13.47,20,22.6C785.6,617,815.94,595.47,808.3,629c33.83.38,56.16-35.57,85.82-57C920,553.29,970.49,519.57,973.17,483.65Z"/><path class="cls-10" d="M907.87,405.76a153.42,153.42,0,0,1,8.15,39A153.42,153.42,0,0,1,907.87,405.76Z"/><path class="cls-9" d="M977.57,362.68s-73.86,23.94-82.12,48.62C882.9,448.79,876,527.64,876,527.64l35.16-1.52Z"/><path class="cls-9" d="M933.57,783.89c10.11.51,97,46.72,107.6,47.23,30.75,1.46,108.27-3.44,136-17.19,12.18-6,49.89-21.11,45.78-38.92-11.51-32.08-44.42-70.67-47.34-104.58-8-93.43-28.46-222.07-39.18-262.69-9-34.28-37.08-35.91-67.19-50.53-.43,8.21-17.84,17.34-21.13,19.33-15.43,9.33-25.24-10.32-30.51-8.73-9.93,3-24.13,9.74-34.49,9.79s-16.82,7.88-23.61,0c3.69,4.25-37.15,58-41.31,65.59-13.06,23.77-27,49.94-30.66,77.19-1.93,14-30.79,73.86,27.21,116.49,24.67,43.63-10.16,114.23-10.6,130C904.55,773.5,898.24,782.07,933.57,783.89Z"/><path class="cls-4" d="M609.83,588.82a1,1,0,0,0,.23.12l.14-.63Z"/><line class="cls-11" x1="1113.97" y1="577.78" x2="1112.07" y2="577.05"/><path class="cls-9" d="M1076.07,353.09s83.38,2,111.38,39.87,75.6,210.05,77,235.16c3.79,70.83-174.06,175.69-174.06,175.69l-37.28-62.87,102.49-136.81L1138,503.21Z"/><path class="cls-8" d="M1107.89,448.79c1.42,17.31,48.8,144.41,55.49,162.24l-3.58-.54c-5.52-15.35-44.33-122.82-53.28-152.48-8.47-28.09,10-55.93,10-55.93C1103.79,434.66,1107.89,448.79,1107.89,448.79Z"/><polygon class="cls-8" points="1159.96 609.83 1163.38 611.03 1053.82 736.45 1052.3 734.99 1159.96 609.83"/><path class="cls-8" d="M1097.15,795c32.75-10,75.35-44.95,101.31-68.3,0,.12.08.23.11.34a6.45,6.45,0,0,0,.46,1l.13.25c-17.7,15.47-40.62,35.22-50.76,42.67-17.64,13-51.65,27-51.65,27l-1.18-2.15Z"/><polyline class="cls-5" points="1059.14 750.87 1027.98 778.46 1046.72 819.97 1093.42 792.62"/><path class="cls-5" d="M1043.58,772.13l-42.94-6.07s-46.3,14-51.34,20.73-10.76,16.4,1.55,21.06c0,0-3.71,14.13,3.48,16.75s14.51-2.91,14.51-2.91-7.86,12.1.48,16.31,11.29-.15,11.29-.15,1.38,6.36,5.45,5.56a111.28,111.28,0,0,0,16.51-7.16s23.29,0,35.32-5.07A59.6,59.6,0,0,0,1059,814.32Z"/><path class="cls-12" d="M975,797.88a31.27,31.27,0,0,0-23.33,9.32"/><path class="cls-8" d="M1160,612.9s19.21,4.46,30.75,10.59c0,0-20.4-14.35-30.83-13.59Z"/><path class="cls-8" d="M882.79,599a52.85,52.85,0,0,1-2.35-8.78c-2.82-15.91-2.23-32.24-1-48.27a326.75,326.75,0,0,1,7-45.94c3.25-14.47,6.6-28.88,9.51-43.5q-3.59,26.09-8.06,52c-5.59,32.39-15.66,74.47,3,104.72,9.75,15.9,29.33,32.16,29.33,32.16L919,643.39S902.37,627.55,900.87,626C893.09,617.73,886.49,609.26,882.79,599Z"/><path class="cls-5" d="M1039.35,260.24s-1.8,51.08,15.07,83.95c2.35,4.58,44.1,10.79,44.1,10.79l-63.68,32c-28,9.42-51.76,9.74-77,3.65l-33.48-11.51s28-9.36,28.65-15.4-8.8-50.25-8.8-50.25"/><path class="cls-12" d="M952,352.76s9.65-7.4,16.57-10.22,19.21-3.77,48.92-36.07c0,0-5.7,36.22-46.9,48.49,0,0-10.61,3.5-17.94,2.58Z"/><path class="cls-5" d="M890.46,141.58a4.6,4.6,0,0,1-.33.81l.41-.42Zm-17.79,8.1.06.33c.26-.3.5-.6.71-.89C873.36,148.73,872.67,149.68,872.67,149.68ZM1039,268.08l1-6.92c10.61,10.3,23.43-1.34,21.48-18.19,3.17-9.11,4.69-37.92-3.6-45.4l-1-1.12c-5.46-2.95-14.35-3.16-16.89,3.85-.72,3,.84,6.32.13,9.31-.64,3.38-4.11,10.17-5.68,13.33,0,0-5.38-15.53-6.47-23s-10.56-27.87-25.86-35.7c0,0-4.91-26.18-12.44-32.76l-2.28-.34c-1.27.26-2,.82-3.31,1.08-.08-.39.26-.86.1-1.64-2,1.21-3.74,1.17-5.44,1.51.35-.47,1.12-1,1-1.43-1.62.74-3.4.7-5.1,1.05.35-.48,1-1.43,1-1.82-2,1.21-3.39.69-5.09,1a3,3,0,0,0,.53-1.73c-1.54,1.12-3.32,1.08-5,1.43.35-.48.62-1.35,1-1.82-2,1.21-3.39.69-5.09,1-.43.09.69-1,.61-1.34a16,16,0,0,1-4.17,1.25c-.08-.38.69-1,.61-1.34-2.38,1.3-3.82.78-5.51,1.13l1-1.82a6.15,6.15,0,0,1-4.93,1.82c.34-.47,1-1.43.95-1.82a8.56,8.56,0,0,1-6.63,2.17c.43-.09,1-1.43,1-1.82-1.81,2-3.58,1.95-5.7,2.38.34-.47.61-1.34,1.3-2.29-2.23,2.08-5,3.46-7.83,2.81.43-.08.61-1.34.53-1.73-1.38,1.91,1.41-.69-.79-.65,0,0-4.57,2.56-4.65,2.17-1.45,1.51,3.13-7.52,1-7.09.27-.87-12,3.21-11.34,2.26-1.8,2-1.53,1.1-4.16,1.23,0,0-7.86,6.47-7.52,6-1.72,2.38-3,.94-5.64,1.07.34-.48,1.87,1.32,2.21.84-1.38,1.91-1.22-.15-3.34.28-.08-.39-7.45-1.11-7.53-1.5-1.89,1.6-1.16,1.63-3.7,2.15-.08-.39-.72,4.61-.38,4.14-1.38,1.9-1.56.61-3.76.65l-1.81,1.88c-1.72,2.38,1,.94-1.61,1.07,0-.27,9.83-.74,10.11-1.33a15.72,15.72,0,0,1-5,3.52c-.08-.39.19-1.25.11-1.64A8.7,8.7,0,0,1,879,148c.42-.08.69-1,.61-1.34-1.73,2.38-4,4.07-6.82,3.42l0-.06a13.59,13.59,0,0,1-5.36,4,1.7,1.7,0,0,1,.53-1.73l-1.7.35c-1.49,3.55-3.05,6.71-3.1,10.78,0,0-10.29,25.34-6.92,39.67s11,38.36,12.7,44.5a128.26,128.26,0,0,1,3.21,19.68c1.1,12.86,1.72,16.19,7.41,28.16,5.51,11.59,9.88,17.49,19,26.59,9.48,9.48,21.77,16.89,33.47,24.23,7.71,4.83,17.8,8,27.31,6.48,26.55-4.13,49-27.28,62.32-47.63"/><path class="cls-13" d="M863.12,179c5.66-24.79,29.47-42.74,81.79-60.23s98.27-6.43,98.27-6.43C1002.54,40.6,925.1,59,907.72,62.59s-93.27,89.59-50.93,147.31l2.67,5.72S862.09,183.53,863.12,179Z"/><path class="cls-13" d="M1053.71,93.58s-3.4-49.46-41.85-58.45c-51.37-12-117.37-8.46-130.23,45.69Z"/><path class="cls-14" d="M1072.72,211.39c3.09-4.71-.23-15.64,2.21-20.72,12.76-26.61,2.59-48-6.82-60.1-4.1-5.24-2.1-16.32-3.42-21.38-6.93-26.53-10.18-26.73-55.69-46.12-37-15.79-72-7.6-92.18-2.35-32.27,8.4-46.23,13.37-52.92,38.84-.88,3.32,1.23,5.42.72,9.31-.71,5.5-8.66,7.7-8.67,14.49,0,0,45.31,8.3,85.17,20.37s119,74.18,121,97.22C1062.14,241.68,1069.3,216.61,1072.72,211.39Z"/><path class="cls-13" d="M1080.16,156.88s-77.06-63.39-144.51-50.31c0,0,83.87-28.83,134.77,25.56l1.42,2.3a60.46,60.46,0,0,1,7.76,19.68Z"/><path class="cls-13" d="M863.88,109.94l4.22-2.64a119.87,119.87,0,0,1,31.58-13.88l18.67-5.16s-47.36,1.32-55.18,15Z"/><path class="cls-15" d="M1046.55,255.57a8.13,8.13,0,0,1,7.73,12.23,7.94,7.94,0,0,1-.72,1c-.08.1.08-.08,0,0a1.12,1.12,0,0,1-.2.18,8.69,8.69,0,0,1-1.4,1,7.32,7.32,0,0,1-6.82.43,1.63,1.63,0,0,0-1.29.19c-.21.13-.57.47-.18.64a10.89,10.89,0,0,0,11.55-2.46,8.64,8.64,0,0,0-.85-11.89,9.79,9.79,0,0,0-7.57-2.26c-.26,0-1,.23-1,.58s.5.34.77.32Z"/><path class="cls-16" d="M1021.76,193.12l10,37.43,9.9-19.44S1027.47,198.2,1021.76,193.12Z"/><path class="cls-17" d="M1041.38,228.2c1.25-.24,3-.5,3.37,1.06a10.16,10.16,0,0,1-.36,4.06c-.53,2.79-1.33,6.54,1.42,8.46,3.46,2.43,6.39-3,7.23-5.54a17.68,17.68,0,0,0,.23-10.6c-1.08-3.72-3-8.28-7.21-9.18-.89-.2-1.83,1-.63,1.31,3.37.73,5,5.06,5.89,8a16.69,16.69,0,0,1,.17,9.65c-.5,1.83-1.37,4.13-3,5.3-1.12.82-2.16-.51-2.53-1.55-1-2.64.37-5.69.63-8.35.11-1.16.11-2.54-.85-3.35-1.27-1.09-3.24-.76-4.73-.47-1.15.22-.8,1.46.33,1.24Z"/><path class="cls-13" d="M1041.28,171.18S1070.21,191,1074,200.4l.89-9.73S1064.14,174.44,1041.28,171.18Z"/><path class="cls-18" d="M927.34,280.58c3.46,1,8.15-.36,10.91-2.95.61-.57,3-.63,2.17.18-3.64,3.41-10.44,5.05-14.91,3.77-.44-.13-.43-.45,0-.72a2.78,2.78,0,0,1,1.79-.28"/><path class="cls-18" d="M941.59,276.64a20,20,0,0,1,6.47-3.09,1.57,1.57,0,0,1,1.11.12c.24.13.33.36.1.56a7.68,7.68,0,0,1-3.57,1.62,1.48,1.48,0,0,1-1.24-.21c-.28-.28.07-.56.38-.62a6,6,0,0,0,2.87-1.31l1.21.67a17.83,17.83,0,0,0-5.77,2.78,1.51,1.51,0,0,1-1.28.12c-.28-.1-.61-.39-.28-.64"/><path class="cls-18" d="M951,275c2.74-.63,5.74-2.49,6.67-4.82,1.41-3.53-1.5-8.07-5.35-9.36-.41-.14-.27-.46.09-.61a2.23,2.23,0,0,1,1.53,0c3.35,1.12,6.12,4.77,6.26,7.78.14,2.81-2.1,5.26-5.24,6.72a15.06,15.06,0,0,1-3,1c-.42.1-1.19.13-1.46-.16s.08-.5.46-.59"/><path class="cls-18" d="M922,280.22a.36.36,0,0,0-.45-.44,3.31,3.31,0,0,1-2.28-.26l-.54,1a9.89,9.89,0,0,1,4.62.65.78.78,0,0,0,.85-.31c.15-.19.27-.57,0-.7"/><path class="cls-18" d="M924.18,280.19a11,11,0,0,0-5.17-.7.9.9,0,0,0-.67.48.39.39,0,0,0,.13.56"/><path class="cls-18" d="M916.37,281.76a5.73,5.73,0,0,1-5.45-2.34,8.17,8.17,0,0,1,.34-9.23.33.33,0,0,0-.25-.55,1.08,1.08,0,0,0-.89.5,9.16,9.16,0,0,0-1.39,8.06,6.45,6.45,0,0,0,5.24,4.58,6.84,6.84,0,0,0,2.07,0c.27-.05.73-.27.8-.62s-.21-.45-.47-.41"/><path class="cls-16" d="M881.49,234.29c-2.61-.73-5.44.88-6.71,2.56a6.87,6.87,0,0,0-.92,3.16,6.25,6.25,0,0,0,2.59,5.28,5.83,5.83,0,0,0,6.78-.19,6.43,6.43,0,0,0,1.6-8,5.75,5.75,0,0,0-3.34-2.85"/><path class="cls-16" d="M910,235.82s-13.31-6.68-19.29-6.07c-8.73.9-18.31,7.79-20.47,12.66,0,0,12.5-9.94,18.67-10.4C894.79,231.58,910,235.82,910,235.82Z"/><path class="cls-16" d="M956.48,219c2.1-1.7,6-2.14,7.78-1.09a6.08,6.08,0,0,1,2.36,2.42,6.26,6.26,0,0,1-.31,5.88,5.81,5.81,0,0,1-6.31,2.48c-3.15-.75-4.79-4-4.59-6.69,0-.49-.62-1.28,1.08-2.66"/><path class="cls-16" d="M946.77,227.11s11.27-10.89,17.6-12.37c9.24-2.17,21.45,1,25.37,4.83,0,0-16.27-5-22.74-3.32C960.82,217.87,946.77,227.11,946.77,227.11Z"/><path class="cls-16" d="M894,199.23l2.72,4.58c.69,1.16,1.38,2.32,2.06,3.49-4.47,1.34-8.17,2.7-10.93,3.78-5.83,2.3-8.8,3.49-11.57,5.86a34.25,34.25,0,0,0-5.71,6.44,22.15,22.15,0,0,0-2.53,4.19c-1.47,3.45-1.26,6.21-1.8,6.28s-1-2.18-1-2.41a20.6,20.6,0,0,1,.93-11,24.3,24.3,0,0,1,5.18-7.58c2.58-2.6,10.67-8.21,22.67-13.59"/><path class="cls-16" d="M942.82,191.22c0,1.77-.05,3.54-.07,5.32,0,1.35,0,2.7,0,4.05,4.94-1.05,9.17-1.72,12.35-2.15,6.74-.91,10.19-1.35,14.08-.68a39.59,39.59,0,0,1,8.89,2.75,25.1,25.1,0,0,1,4.66,2.38c3.27,2.25,4.57,4.76,5.12,4.55s-.27-2.38-.35-2.61a21.13,21.13,0,0,0-6.89-9.11,27.41,27.41,0,0,0-9-4c-3.84-1-14.51-1.82-28.74-.51"/><path class="cls-19" d="M939.58,296.3c13.51-2.76,35.06-8.88,35.06-8.88s1.6,28.63-29.72,35-41.07-20.56-41.07-20.56S926.08,299.06,939.58,296.3Z"/><path class="cls-20" d="M939.45,296.33c6.42-1.31,32.07-7.73,32.07-7.73s-5.54,16.5-28.76,21.25C917.57,315,907.21,302,907.21,302Z"/><path class="cls-21" d="M939.37,297.39c6.42-1.32,25.73-6.44,25.73-6.44s-5.53,8.75-24.8,12.69-26.83-1.92-26.83-1.92Z"/><path class="cls-19" d="M902,300.12c.65-.31,4.65.21,7.78-.72,5.22-1.57,8.25-3.7,12-4.79,6.46-1.87,11.19,0,14-.61s6.48-4.14,13.16-5c3.92-.48,13.75-1,19.16-1.58,3.24-.37,6.72-2.42,7.44-2.38,1,0,.63,7.66-35.29,15S901.11,300.56,902,300.12Z"/><polygon class="cls-8" points="1056.89 752.43 1046.46 740.9 1055.8 730.92 1056.89 732.28 1049.55 742.02 1056.89 752.43"/><path class="cls-22" d="M761.21,789.36s-41.92,3.84-46,38.2,4.12,50.33,4.12,50.33c-2.1-25.34-3-61.75,20.83-77.18A139.5,139.5,0,0,1,756,791.43C757.38,790.75,759.55,789.36,761.21,789.36Z"/><polygon class="cls-8" points="1096.75 797.99 1092.86 792.95 1097.33 797.03 1096.75 797.99"/><path class="cls-23" d="M384.29,744.4c-40-4.24-31.5-106.74-38.49-126.36l-2.5,7.51c-1-17.83-1.36-35.7-1.08-53.56.57-37.92-15.75-86.75-12.51-124.53L364.12,473c11.06,6.08,21.56,9.41,29.3,27.95l24.41,83.15,20,116.8Z"/><path class="cls-5" d="M450.5,831.93l16.23,20.21s-7.22,22.23-3.86,35.21a100.35,100.35,0,0,0,12.06,26L482,943.07s-4.22,14.86.2,16.29,7.41-3.79,10.32-8.85,18.54-83.78,18.54-83.78a134.14,134.14,0,0,1,12,20.75c5.15,11.24,13.35,11.07,18.57,6.32s-3.72-21.1-9.85-24.65-4.73-20.5-11.52-31-23.48-14.32-23.48-14.32c-3.22-3.77-10.68-14-10.68-14C485.17,809.81,450.5,831.93,450.5,831.93Z"/><path class="cls-12" d="M484.38,926.2a8.27,8.27,0,0,0,4.21-3.57c2.52-4.12,3.2-10.66,2.05-17.28a53,53,0,0,0-5.87-15.78,23.54,23.54,0,0,0-3.73-5.78,28,28,0,0,0,2.54,6.38,68.42,68.42,0,0,1,5.26,15.58c1.11,6.28.57,12.5-1.38,16.23a8.46,8.46,0,0,1-3.37,3.54c-1,.57-1.64.73-1.7.81S483.11,926.59,484.38,926.2Z"/><path class="cls-12" d="M493.59,889.89c1-6.39,1.43-11.62.94-11.65s-1.72,5.09-2.72,11.46-1.44,11.59-.93,11.64S492.58,896.28,493.59,889.89Z"/><path class="cls-12" d="M493.49,871.54c-4.91,3.54-9.64,4.27-9.76,4.75s5.29.55,10.72-3.26,7.33-9.14,6.87-9.21C500.84,863.56,498.39,868,493.49,871.54Z"/><path class="cls-23" d="M435,693.7l60.36,123.65s-33.77.28-44.62,25c0,0-123.68-116.16-91-171.48Z"/><path class="cls-6" d="M287.33,1012.11c54.24,0,108.49-6.34,162.73-6.61,11.77,0,22.6,2.36,23.52,12.59,2.36,26.38,5.69,54.9-35.12,52.08-3.1-.21-6.32.33-9.37-.09-14.21-1.93-16.4,3.8-14.53,13.93,6.06,32.79,11.61,57.86,17.17,90.72,13.08,77.26,26.26,154.51,38.94,231.82,3.5,21.32,2.76,21.13-24.46,20.72-8.41-.12-11.94-2.23-13.11-9.32-12.51-76-25.5-152-37.91-228.06-1.44-8.87-4.82-12.34-16.43-12.24q-90.75.74-181.51,0c-11.91-.09-16,2.88-17.57,12.69q-17.56,108.3-36.48,216.46c-3.66,21.17-4.2,20.66-30.62,20.34-10.58-.13-11.79-3.17-10.46-10.87,19.55-113,38.66-218.37,58.26-331.42,2-11.58-1.07-17.13-16.39-15.1-5.08.67-10.41.11-15.63.1-23.15,0-27.7-11.77-27.73-31.73,0-21.71,4.22-32.29,27.09-32.31q79.82,0,159.61,0ZM376.12,1152c11.72.25,14.13-3.16,12.48-12-4.75-25.53-9-32.75-13.06-58.37-1.33-8.49-4.62-12.22-16.5-12-47.91.72-95.85.64-143.77,0-11-.14-14.34,3.25-15.61,11.27-4.2,26.47-8.63,34.54-13.49,60.93-1.58,8.54,2.55,10.2,11.8,10.09,30.21-.37,60.43-.14,90.64-.14C317.78,1151.75,347,1151.33,376.12,1152Z"/><path class="cls-7" d="M474.06,1023.47s-173.27,31.18-248,21.73S101,1027.71,104,1016.4,160,980.8,213.19,979.08,412.4,990.46,412.4,990.46s49,8.07,54.13,15S474.06,1023.47,474.06,1023.47Z"/><path class="cls-5" d="M408.31,860.87S539,871.29,568,875.78c42.53,6.58,61.8,20.5,65.49,47,7.7,55.08-116.4,375.38-116.4,375.38l-40.44,3.77,49.52-318.94-164.55,11Z"/><path class="cls-5" d="M405.24,906.54s154.13-11.23,186,7.75,22.9,46.87,17.23,78.75-118.67,334-118.67,334l-46.21-29.9s10.07-187.18,18.07-220.44S499.55,999,499.55,999s-128.25,3.43-152.16.29S405.24,906.54,405.24,906.54Z"/><path class="cls-12" d="M532.23,962.7a27,27,0,0,0-6,4.35,133.92,133.92,0,0,0-23.64,26,24,24,0,0,0-3.64,6.23c.45.29,6.75-8.78,16-18.85S532.6,963.1,532.23,962.7Z"/><path class="cls-24" d="M144.92,836.81c8.82,3.69,21.75-15.46,31-16,8.27-.47,17.17,7.57,25.22,5.69S211,832.72,219,830.4c16.4-4.76,29.74,8.48,45.38,1.37,29.13-13.25,36.32-12.56,58.93-36.68,4.14,11.12,32.85,9.92,43.82,10.21l78.13,21.36s146.5,42.44,153.12,59l-5.89-2.26s-37.13,2-64.56,50.7c-22.59,40.11-53.36,74-53.36,74l-214,1.2c-44.64,6.89-89.86-14.34-117.43-55.13-19.35-36-13.67-108.4-13.72-118.52C135.06,839.5,138.75,834.24,144.92,836.81Z"/><path class="cls-5" d="M326.42,366s3,67.19,3,74l1.34,24,2.91,2.39c-18.78,4-37.59,19.84-69.54,3.46l-32.22-34.83s8.25-11.34,9.95-16.84c9.64-31.22-3.62-70-3.62-70"/><path class="cls-12" d="M271.16,408.44s6.09,22.91,41.6,32.62c0,0,10.31,2.67,16.44.73l-.32-9.17Z"/><path class="cls-25" d="M388.47,366.87c-12.17-9.69-13.74-26.06-11.42-40.44,2.23-13.78-7.13-35.58,9.83-34,.32,0-5.47-12.19-.52-10.89-2.66-7.82,8.53-6.49,10.56-15,.41-1.72,3.68-16.94-7.25-18.56C353,190.67,299.3,199.57,269.33,202c-58.82,4.85-87.4,6.76-78.07,100,6.26,62.56,63.62,82.57,122.62,83.81,25.21.53,55.06,3,75.09-18.55Z"/><path class="cls-25" d="M276.53,149c-1.53-3.37-16.66-16.36-26.2-15.8-6.82.41-14.81,3-26.69,12.61-10.61-3.59-23.74-6.32-30.41-1.05a35.9,35.9,0,0,0-7.11,8h0l-.11.19a78.66,78.66,0,0,0-5.27,9.09c-7.92,9.8-24.3,30.7-27.58,40.18-1.62,4.71,4.85,15.26,13.59,26.62a18.91,18.91,0,0,0-5.31,8.84c-2.37,8.89,6.63,28.76,30.69,20.69,6,6.47,10.25,10.78,10.25,10.78l7.13-5.42-1.34-3.54,8.7-6.45-5.6-5.41a48.83,48.83,0,0,1,6.5-4.95c8.46-6.69,17.72-16.21,25.9-23.25,3.78-3.25,13.57-4.65,17.5-7.72a17.69,17.69,0,0,0-5.95-2.91l3.18-2.47c3.36,1.57,6.19,3,7.09,3.55,3.47-2.65,12.2-4.88,15.62-7.58.56,1,1.1,2,1.61,3,3.12-2.48,9.65-5.12,12.76-7.63,0-15.27-6-28.61-19.88-36.09C276.53,156.6,277.28,150.65,276.53,149ZM171.19,240.82a21.62,21.62,0,0,1-.83-7.41c3.7,4.59,7.63,9.2,11.43,13.52C177.34,246.69,172.53,245.33,171.19,240.82ZM267,148.39c-.22,2.58-2.35,6.41-4.13,9.23l-1.1-.25a172.13,172.13,0,0,0-17.66-3.48c3.17-4.44,6.35-8.71,7.3-9.38C256.32,141.09,267.39,143.89,267,148.39Z"/><path class="cls-5" d="M358.82,243.36l.44.3a4,4,0,0,1-.43-.67ZM375.45,247q.36.34.78.69v-.31S375.45,246.63,375.45,247ZM267.57,402.78c15.4,16.18,42.05,27.59,59.88,30.38,8.74,1.37,16.3,3.9,25.27-2.23,22.51-15.38,45.33-44,42.59-72.57-.5-5.27-3.4-15.14-2.95-20.19.52-5.83,1-34-3.94-51.81-6-21.74-12.33-32.6-12.33-32.6-.72-3.67,8.4-1.83,6.47-4.79l-1.58,0a1.57,1.57,0,0,1,.76,1.48,12.55,12.55,0,0,1-5.51-2.73v.06c-2.41,1-4.77-.1-6.72-2,0,.37.37,1.1.77,1.11a8,8,0,0,1-6.32-2.32c0,.37.38,1.1.37,1.47a14.63,14.63,0,0,1-5.07-2.37c.35.49,9.36-.72,9.35-.46-2.39.31.32,1.16-1.63-.7L365,241.1c-2,.32-2,1.52-3.51,0,.39.37-1-4-1-3.68-2.38,0-1.73-.19-3.7-1.33,0,.36-6.55,2.24-6.55,2.6-2,0-1.5,1.79-3.06.3.39.37,1.46-1.5,1.85-1.13-2.39.32-3.32,1.83-5.27,0,.39.37-7.78-4.17-7.78-4.17-2.39.31-2,1.07-4-.43.78.75-11-.91-10.61-.17-2,0,3.64,7.37,2.08,6.24,0,.36-4.55-1.19-4.55-1.19-2,.32.94,2.21-.62.72,0,.36.37,1.46.77,1.47-2.41,1-5.18.26-7.53-1.25.78.74,1.16,1.48,1.55,1.86-2-.05-3.58.29-5.54-1.22,0,.37.76,1.48,1.16,1.49a7.88,7.88,0,0,1-6.34-.86c0,.36.77,1.11,1.15,1.48a5.64,5.64,0,0,1-4.75-.83l1.16,1.48c-1.59,0-2.79.68-5.16-.1,0,.36.78.74.77,1.11a14.9,14.9,0,0,1-4-.45c0,.36,1.17,1.12.77,1.11-1.59,0-2.8.67-4.77-.1.39.37.77,1.11,1.16,1.48-1.59,0-3.18.3-4.76-.46a2.73,2.73,0,0,0,.77,1.48c-1.59,0-2.8.67-4.78-.1,0,.36.78,1.11,1.17,1.48-1.59,0-3.19.3-4.77-.1,0,.36.78.75,1.17,1.12-1.59,0-3.19.3-5.17-.47,0,.73.38,1.1.37,1.46-1.19,0-2-.4-3.17-.43l-2,.69c-5.71,7.18-20.72,21.47-20.72,21.47-12.53,9.59-13.13,26.7-12.88,33.64s8.25,34.89,8.25,34.89c-1.94-2.59-3.57-8.51-4.7-11.46-1.14-2.58-2.9-5.49-4-8.07-3.45-5.91-11.44-4.26-15.89-.7l-.76,1.18c-6.25,8.13-4.85,28.71,6.28,42.63,1,15.53,16.42,23.21,20.35,11.86l2,6.09"/><path class="cls-18" d="M352.91,370a10.29,10.29,0,0,1-9.13-.66c-.58-.35-2.5,0-1.7.46,3.42,2.09,9.07,2.34,12.43.69.33-.16.28-.41-.13-.55a2.29,2.29,0,0,0-1.47.06"/><path class="cls-18" d="M341,369.09a16.68,16.68,0,0,0-5.61-1.42,1.37,1.37,0,0,0-.87.25c-.16.14-.2.33,0,.45a6.28,6.28,0,0,0,3.09.72,1.18,1.18,0,0,0,1-.35c.17-.25-.15-.42-.4-.42a5,5,0,0,1-2.49-.58l-.86.7a15,15,0,0,1,5,1.28,1.24,1.24,0,0,0,1-.09c.21-.12.43-.39.12-.54"/><path class="cls-18" d="M333.24,369.24c-2.28-.08-4.94-1.07-6-2.73-1.66-2.52,0-6.69,2.84-8.26.31-.17.15-.39-.16-.46a1.89,1.89,0,0,0-1.22.23,8,8,0,0,0-3.81,7.18c.32,2.19,2.48,3.74,5.2,4.4a12.36,12.36,0,0,0,2.52.37c.34,0,1-.08,1.13-.34s-.14-.38-.46-.39"/><path class="cls-18" d="M357.09,369a.29.29,0,0,1,.29-.42,2.64,2.64,0,0,0,1.77-.54l.6.72a8.26,8.26,0,0,0-3.58,1.19.66.66,0,0,1-.73-.11c-.14-.12-.3-.4-.08-.54"/><path class="cls-18" d="M355.36,369.25a9.11,9.11,0,0,1,4-1.32.77.77,0,0,1,.6.27.3.3,0,0,1,0,.45"/><path class="cls-18" d="M361.81,369.3a4.65,4.65,0,0,0,4-2.63,6.29,6.29,0,0,0-1.68-7.07.26.26,0,0,1,.11-.46.91.91,0,0,1,.79.25,7.1,7.1,0,0,1,2.34,6,5.11,5.11,0,0,1-3.47,4.31,5.82,5.82,0,0,1-1.64.32c-.23,0-.63-.1-.74-.36s.1-.38.31-.38"/><path class="cls-17" d="M237.82,347.28a83.12,83.12,0,0,0-7.63-14,25.92,25.92,0,0,0-5.44-6,7.26,7.26,0,0,0-2.9-1.47c-1.15-.21-1.63.65-2.12,1.53-2.32,4.21-2.23,9.36-1.19,13.92.09.39,1.44.05,1.35-.36a21.47,21.47,0,0,1,.08-11.14,10.7,10.7,0,0,1,1.8-3.68l-.9.34c-.29,0,0,0,.06,0s.23.05.45.13a8.46,8.46,0,0,1,2,1.14c3.09,2.29,5.4,5.67,7.38,8.9a97.18,97.18,0,0,1,5.68,11c.18.4,1.5,0,1.35-.36Z"/><path class="cls-16" d="M393.55,307.85c-7.92-5.89-13.63-7.91-29.53-11.11l-.14.33c-.9,1.9-.4.84-1.29,2.75-.68,1.45-1.36,2.91-2,4.36,5.22,1,9.18,1.22,12.43,2.12,6.14,1.7,13.45,2.93,19,6.32C392.44,311,393,309.42,393.55,307.85Z"/><path class="cls-16" d="M323.45,295.31c.53,2,.23.89.76,2.93.41,1.55.81,3.11,1.2,4.65-5.31,0-9.24-.47-12.6-.17-6.66.57-14.48.41-20.66,3.11-2.95,1.28-7.17,3.22-8.65,6.58-.39.89-.8,3.86-2.16,3.63-.55-.1-.4-2.81-.38-3.09.33-5.48,4.12-8.72,9.12-11.33,10.19-5.32,15.75-6.4,33.28-6.67"/><path class="cls-15" d="M232.07,372.5c-3.88,2.6-5.51,7.63-3.06,11.78a8.62,8.62,0,0,0,5.4,3.89,8.86,8.86,0,0,0,3.8-.15,9.58,9.58,0,0,0,6.51-4.8c.48-.89-1.5-.79-1.86-.12a7.12,7.12,0,0,1-4.55,3.67,9.16,9.16,0,0,1-2,.26c.12,0-.34,0-.46,0a1.83,1.83,0,0,1-.33,0,7.5,7.5,0,0,1-5.67-8.33,7.71,7.71,0,0,1,3.45-5.42c.32-.22.52-.63.14-.89a1.41,1.41,0,0,0-1.4.15Z"/><path class="cls-17" d="M237.58,347.34c-2.16,0-5.34.39-5,3.23s2.11,5,2.31,7.75a4.34,4.34,0,0,1-.26,2c-.2.49-.73,1.34-1.12,1.38-1.46.15-3.16-2.22-3.81-3.2a15.86,15.86,0,0,1-2.69-9.63c.2-3.21.88-8.63,4.33-10.06.88-.37.05-.54-.47-.32-3.37,1.4-4.49,5.16-5,8.49a16.53,16.53,0,0,0,1.15,9.45c1.07,2.45,3.73,7,7.08,5.59,2.93-1.21,2.17-4.85,1.34-7.15a24.86,24.86,0,0,1-1.51-4.48,2.39,2.39,0,0,1,.21-1.7c.52-.83,1.68-.75,2.54-.74.29,0,1.53-.56.87-.57Z"/><path class="cls-16" d="M380.81,322.1c2.31-1.14,5-.06,6.43,1.3a5.79,5.79,0,0,1,1.68,2.74,6,6,0,0,1-1.52,5.39,5.54,5.54,0,0,1-6.37,1,6.12,6.12,0,0,1-2.86-7.18,5.43,5.43,0,0,1,2.64-3.23"/><path class="cls-16" d="M358.41,329.67s11.46-8.53,17.23-9c8.43-.65,16.16,4.12,19.05,8.3,0,0-11-7.12-17-6.49C372.07,323.11,358.41,329.67,358.41,329.67Z"/><path class="cls-16" d="M312,320.92c-2.26-1.23-5-.26-6.48,1a5.72,5.72,0,0,0-1.8,2.67,6,6,0,0,0,1.3,5.44,5.5,5.5,0,0,0,6.32,1.25,6.13,6.13,0,0,0,3.16-7.05,5.46,5.46,0,0,0-2.5-3.34"/><path class="cls-16" d="M325.88,329.17s-11.87-9-18-9.71c-11.08-1.31-21.53,4.76-24.8,8.81,0,0,16.18-8,22.48-7.09C311.57,322,325.88,329.17,325.88,329.17Z"/><path class="cls-26" d="M377.05,252c1.33,10.07,15.14,1.88,7.73-.74,1-4.83-5.82-7-5.51-11.92-.31.42-.51.76-.51.76s-.05-6-2-7.43-10.8-6.18-10.8-6.18l-2.75,2c.07-.14,1.07-2.07-.3-3.28s-16.34-9.46-26-9.06c-.32,0-.64,0-1,.07l-4.06,2-.14.07.15-.08c.72-.4,2.27-1.41,1.51-2.27a3.5,3.5,0,0,0-1.78-.84,34.15,34.15,0,0,0-5.85-.7v0h-.66c-.22,0-.43,0-.65,0v0a35.07,35.07,0,0,0-5.88.45,3.54,3.54,0,0,0-1.81.77c-.8.83.71,1.9,1.41,2.33l.15.09-.14-.08-4-2.17a7.43,7.43,0,0,0-1-.1c-9.65-.81-24.95,6.79-26.37,7.95s-.5,3.12-.44,3.27l-2.66-2.1s-11.69,4.27-13.71,5.66-3,4.81-3,4.81-3.56,1.21-4.82.78-7.91,2.84-10.71,6.68c-1.79,2.47-1.21,4.84-2.12,7h0c-.52,1.22-.81,2-.81,2l-6.85,2.13c-5.51,2.5-4.39,13.77-4.39,13.77-11,12.94-11.76,24.13-7.21,36.3,1.76,4.7-11.62,9.11-3.1,9.11s15.17,27.16,15.17,27.16,7.53-10.37,8-15.25-1.62-19.43-1.62-19.43l4.17-.5s2.55-1,5.71-6.45-2.2-15.46-2.2-15.46l-1.51-6,8.1.72c7.86-1.18,8.48-9.66,8.48-9.66L270.3,254l4.61,4.85a5.76,5.76,0,0,0,4.48,2.12c12.17-.66,13.76-8.2,13.76-8.2l1.77-7.08,3,2.12c3.2,2.74,13.08,7.07,18.2,5,1.34-.55,7-4.76,8-5.34,3.32-2.3,3.88-6.81,4-8.49-.46-.47-.9-1.06-1.34-1.56-1.7-1.93-2.55-1.15-.85.78,2.92,3.31,7.88,8,12.34,8.28s13.63-1.32,14.82-3.29c.8-1.32-.57-1.51,1-1.41a5.14,5.14,0,0,1,3.39,2.12c2,2.42,3.33,5.91,6.19,7.45,4.17,2.24,6.76,0,11-.83A2,2,0,0,1,377.05,252Z"/><path class="cls-27" d="M387.29,244.38s3.1-9.08-2.08-14.45-25-26.9-59.92-27.68Z"/><path class="cls-28" d="M195.3,261.75s-27.21,14.76-38.35-7.14,19.83-28.91,19.83-28.91"/><path class="cls-28" d="M216.61,143.71s14-21.8,32.12-17.6,5.92,33.9,5.92,33.9"/><path class="cls-12" d="M353,294.93s-11.71,7-.35,14.5C352.64,309.43,348.91,301.3,353,294.93Z"/><path class="cls-12" d="M336.13,294.53s11.36,7.52-.35,14.5C335.78,309,339.89,301.09,336.13,294.53Z"/><path class="cls-23" d="M375,656.13c26.2-27.43,18.47-48.82,17.29-61.52-2.09-23.22-10.36-46.11-18.47-67.8-7.48-20-11-33.55-20-52.91-1.42-3.07-14.37-13.84-16.49-16.79a2.27,2.27,0,0,1-.72,2.35c-6.43,5.81-15.06,8.4-23.57,9a78.75,78.75,0,0,1-43.66-9.94c-7-4-13.71-7.67-19.43-13.36-4.93-4.92-9.38-9.44-11.58-16.13-1.69-6.49-1-4.81-1-4.81-4.88,2.23-42.66,19.41-77.2,48.88-28.86,24.62-.75,155.11-12.49,238.79C142.06,752.18,129.9,825.66,123,847.54c21.39,8.26,36.36,5.32,59,9.89a165.3,165.3,0,0,0,33.57,3.3c13.14-.07,26-2,38.84-4.39A300.31,300.31,0,0,0,314,838.86c19.6-8.09,38.34-18.41,54.62-31.7q3.28-2.68,6.41-5.54C365.07,771.61,341.6,707.57,375,656.13Z"/><path class="cls-12" d="M618.52,935.38c-2.85-17.62-19.6-27.78-36.63-32.41-6.16-1.67-11.14-3-16.74-4.06l-.07.07-1.38,1.13c1,.19,2.07.37,3.11.59,12.9,2.73,25.55,7.27,36.54,14.32,23.21,14.88,13.11,48.08,5.59,75.26-11.18,40.37-26,80-40,119.62q-21.24,60.31-45.18,119.72-14.6,36.24-30.19,72.09c-1.21,2.79-2.45,5.66-2.46,8.67,0,7.62,7.4,13.26,10.3,20.36-2.65-6.65-8.59-12.35-8.51-19.44,0-3.08,1.23-6,2.42-8.89.42-5.19,5-12,7-16.9l8-19.32,16-38.64c29.18-70.41,53-142.82,78.18-214.88,1.09-3.11,2.74-10.32,3.69-13.47C617.05,970.1,621.31,952.61,618.52,935.38Z"/><path class="cls-23" d="M212.43,556.71,185.57,685.48l40.54,202.73-55.72,22.35-37.82-99.91c-8.73-23.06-19.74-45.76-23.67-70.2-12.65-78.62,9.41-154.77,26.1-231.54,10-46,99.8-74.81,99.8-74.81Z"/><path class="cls-29" d="M185,695.88c5.23-44,29.21-137.46,31.5-163l-.84,0c-2.42,25.51-26.59,118.93-32.07,163Z"/><path class="cls-29" d="M185.13,696.32c0-.27,0-.55,0-.82l-1.42.11c0,.29,0,.59,0,.88,1.79,10.58,3.89,21.58,5.94,32.84,8.52,46.51,25.15,99.94,31.11,132.34.17.78.22,1.1.39,1.88l.18,0,.28-.09.46-.11c-5.86-32.61-22.55-86.79-31-134.15Z"/><path class="cls-5" d="M258.24,993.89a2.82,2.82,0,0,1-1.45-.56s1.71,9.48-12.15,3.36c0,0-11.35,4-17.84-1.81,0,0-14.62-.4-20.2-3.94s-22-45.66-22-45.66l-4.3-28.89,40.5-13.95,1.07,2.75s16.39,6.32,22.55,11.31A74.6,74.6,0,0,1,256.75,931l8.14,17.67c-8.05,6.47-21.63-11.74-22.78-11.28a8.62,8.62,0,0,0-4.71,11.22c3.11,8.75,6.63,18.78,6.9,20.33s10.18,9,17.64,14.44C266.42,986.6,263.93,994.46,258.24,993.89Z"/><path class="cls-12" d="M227.15,962.56a46.89,46.89,0,0,0,7.95,16.57,41.39,41.39,0,0,0,15,10.23,36.08,36.08,0,0,1,7,3.38,25.25,25.25,0,0,1-7.53-2,36.81,36.81,0,0,1-16-10.22,41.29,41.29,0,0,1-7.72-17.44,26.25,26.25,0,0,1-1.09-7.87A35.52,35.52,0,0,1,227.15,962.56Z"/><path class="cls-12" d="M217.35,968.32a73.12,73.12,0,0,0,2.72,7.13,23.74,23.74,0,0,0,5,7.66,47.48,47.48,0,0,0,7.45,5.3c2.48,1.49,4.68,2.89,6.49,4.09a24.59,24.59,0,0,1,5.72,4.25,24.14,24.14,0,0,1-6.46-3l-6.71-3.7a42,42,0,0,1-7.89-5.45,23.89,23.89,0,0,1-5.1-8.37,51.85,51.85,0,0,1-2.38-7.53,14.8,14.8,0,0,1-.6-7.26A59,59,0,0,0,217.35,968.32Z"/><path class="cls-12" d="M207.83,974.28c1.44,2.86,3.43,6.75,5.46,11.25a6.2,6.2,0,0,0,2,2.28,29.85,29.85,0,0,0,2.56,1.91,47,47,0,0,0,4.62,2.76c2.74,1.47,4.55,2.08,4.52,2.35s-2.09.14-5.12-1a28.86,28.86,0,0,1-5.06-2.54,26.54,26.54,0,0,1-2.79-1.92,7.87,7.87,0,0,1-2.58-3c-4.06-8.78-7-16.31-6.17-16.6A23.45,23.45,0,0,1,207.83,974.28Z"/><path class="cls-29" d="M167.67,473.18s37.61,0,49.54,43.18C217.21,516.36,210.66,470.61,167.67,473.18Z"/><path class="cls-29" d="M383.43,540.68s21.54,69.56,9.21,95.25-18.42,10.49-34.83,77.23c0,0,8.22-49.15,21.8-60.15s15.18-35.65,15.25-44S383.43,540.68,383.43,540.68Z"/><polygon class="cls-5" points="180.84 919.77 176 907.88 217.63 892.47 221.91 905.19 180.84 919.77"/><polygon class="cls-29" points="131.8 808.62 148.8 853.54 146.69 853.29 132.05 813.64 131.8 808.62"/><path class="cls-12" d="M922,193.12s-9.67,9.6,3.17,14.16C925.19,207.28,919.61,200.29,922,193.12Z"/><path class="cls-12" d="M905.57,196.8s12.84,4.56,3.16,14.16C908.73,211,910.8,202.26,905.57,196.8Z"/><path class="cls-19" d="M344.27,385.16c-10.88-.46-28.45-2.53-28.45-2.53s2.35,22.52,27.56,23.58S372.82,385,372.82,385,355.14,385.61,344.27,385.16Z"/><path class="cls-20" d="M344.37,385.16c-5.17-.22-26-2-26-2s6.39,12.17,25.09,12.95c20.28.86,26.73-10.6,26.73-10.6Z"/><path class="cls-21" d="M344.56,386c-5.17-.22-20.86-1.79-20.86-1.79s5.41,6.13,20.93,6.78,20.67-4.86,20.67-4.86Z"/><path class="cls-19" d="M374,383.42c-.54-.16-3.59.75-6.15.41-4.26-.56-6.89-1.85-10-2.22-5.28-.65-8.73,1.38-11,1.28s-5.58-2.41-10.89-2.2c-3.11.11-10.84,1-15.13,1.16-2.58.13-5.54-1-6.1-.92-.77.16.46,6.05,29.4,7.27S374.79,383.65,374,383.42Z"/><path class="cls-5" d="M722.59,436.55l-17-22.89s-3.72-30.73-11-37.51c-4.06-3.77-14.44-14.16-22.86-22.66-6.73-6.78-12.21-12.35-12.21-12.35s-10.32,8.4-.83,20.49a271.06,271.06,0,0,1,17,24.05S663.06,411.42,677.3,426l27.82,28.38Z"/><path class="cls-5" d="M623.9,420.24a45.85,45.85,0,0,0,16.93,17.59c12.14,7.31,33,9.47,33.77,10.12s15.49,24.78,15.49,24.78l20.49-27.6-42.46-61.44-48-1.27,3.17,22,15.67,3.13-.38,11Z"/><path class="cls-9" d="M818.23,628.11a35,35,0,0,0,10.89-3.63c9.94-5.46,8.08-10.73,8.82-20.1,1-12.46-3.34-25.12-7.47-36.7-5.33-14.92-11.71-29-21-41.95a202.41,202.41,0,0,0-28.17-31.34v0l-63.5-70.48-8,16a66.44,66.44,0,0,1-33,19.36L706.64,521a343.73,343.73,0,0,0,35.13,57c11.61,15.39,26.46,39.5,44.6,47.59,6.81,3,14.47,3.6,21.93,3.42A68.85,68.85,0,0,0,818.23,628.11Z"/><path class="cls-30" d="M829.9,561.72s-2.21-11.09-3.5-14.51c-.88-2.36-1.81-4.55-2.75-6.63l-.19-.32a169.16,169.16,0,0,0-21-27.55,25.19,25.19,0,0,0-3.75-2.34S827.17,547.55,829.9,561.72Z"/><ellipse class="cls-31" cx="659.63" cy="420.74" rx="5.66" ry="5.74" transform="translate(-118.99 497.4) rotate(-38.15)"/><rect class="cls-32" x="590.32" y="296.97" width="74.42" height="143.58" rx="7.72" transform="translate(-100.15 384.81) rotate(-31.7)"/><rect class="cls-31" x="594.26" y="305.46" width="60.78" height="117.27" rx="6.85" transform="translate(-98.13 382.6) rotate(-31.7)"/><path class="cls-5" d="M600.15,380.34c-1-.18-10.1,0-12.65,2.67s-2,12.09,3.84,13.44,13.4.17,16.35-3.58S611.18,381.06,600.15,380.34Z"/><path class="cls-5" d="M618.14,403.87c.79-3.75-.72-7.33-3.38-8l-.19,0c-6.48-1.49-20.77-4.1-23.79.7-3.95,6.23-3.17,10.95,1.82,12.41s19,2.54,23.29-1.25A7.08,7.08,0,0,0,618.14,403.87Z"/><path class="cls-5" d="M625,406.87s0-3.48-8.61.07-18.34,2.93-16.92,8.61c1.07,6.38,6.24,10.11,11.54,8.35a9.08,9.08,0,0,0,1.4-.6C619.67,420.13,629.74,418.73,625,406.87Z"/><circle class="cls-31" cx="659.63" cy="420.74" r="5.58"/></g></svg>