<svg xmlns="http://www.w3.org/2000/svg" xmlns:xlink="http://www.w3.org/1999/xlink" viewBox="0 0 1303.15 1057.31"><defs><style>.cls-1,.cls-22,.cls-49{fill:none;}.cls-2{fill:#334872;}.cls-3{opacity:0.68;fill:url(#linear-gradient);}.cls-4{fill:#2d2d2d;}.cls-5{fill:#f2ebd1;}.cls-6{fill:#a38166;}.cls-7{fill:#919191;}.cls-8{clip-path:url(#clip-path);}.cls-9{fill:#28160e;}.cls-10{fill:#55463e;}.cls-11{fill:#3a2e29;}.cls-12{fill:#0b0d0e;}.cls-13{fill:#dc9b34;}.cls-14{fill:#343535;}.cls-15{fill:#5e5f5f;}.cls-16{fill:#6a2811;}.cls-17{fill:#a66e53;}.cls-18,.cls-44{fill:#4f2e25;}.cls-19{fill:#010101;}.cls-20{fill:#13110f;}.cls-21{fill:#ababab;}.cls-22,.cls-49{stroke:#010101;}.cls-22,.cls-44,.cls-49{stroke-miterlimit:10;}.cls-22{stroke-width:1px;}.cls-23{fill:#b25226;}.cls-24{fill:#5d3214;}.cls-25{fill:#653c29;}.cls-26{fill:#31160e;}.cls-27{fill:#f1eef7;}.cls-28{fill:#11243e;}.cls-29{fill:#fff;}.cls-30{fill:#365f2d;}.cls-31{fill:#7d7d7d;}.cls-32{fill:#535454;}.cls-33{fill:#565353;}.cls-34{fill:#1e485b;}.cls-35{fill:#85aa83;}.cls-36{fill:#54381f;}.cls-37{fill:#7f4d6f;}.cls-38{fill:#b784ab;}.cls-39{fill:#151312;}.cls-40{fill:#513835;}.cls-41{fill:#2e1349;}.cls-42{fill:#24180f;}.cls-43{fill:#b7b338;}.cls-44{stroke:#4f2e25;stroke-width:0.08px;}.cls-45{fill:#231311;}.cls-46{fill:#7b7b7b;}.cls-47{fill:url(#linear-gradient-2);}.cls-48{fill:#151210;}.cls-49{stroke-width:0.8px;}.cls-50{fill:#374435;}.cls-51{fill:#0a0907;}.cls-52{fill:#653c2a;}.cls-53{fill:#13303a;}</style><linearGradient id="linear-gradient" x1="633.52" y1="-736.1" x2="645.83" y2="930.91" gradientUnits="userSpaceOnUse"><stop offset="0" stop-color="#262262" stop-opacity="0"/><stop offset="0.33" stop-color="#24205c" stop-opacity="0.1"/><stop offset="0.65" stop-color="#1e1b49" stop-opacity="0.42"/><stop offset="0.97" stop-color="#13132a" stop-opacity="0.94"/><stop offset="1" stop-color="#121226"/></linearGradient><clipPath id="clip-path"><polygon class="cls-1" points="446.66 1122.2 662.39 -92 -85.1 -81.48 -91.03 1132.84 446.66 1122.2"/></clipPath><linearGradient id="linear-gradient-2" x1="1595.53" y1="298.19" x2="1607.34" y2="195.14" gradientTransform="translate(-558)" gradientUnits="userSpaceOnUse"><stop offset="0.16" stop-color="#a66e53"/><stop offset="0.53" stop-color="#a66e53"/><stop offset="0.62" stop-color="#7c523e"/><stop offset="0.75" stop-color="#472f23"/><stop offset="0.86" stop-color="#201510"/><stop offset="0.94" stop-color="#090604"/><stop offset="0.99"/></linearGradient></defs><g id="Layer_11" data-name="Layer 11"><rect class="cls-2" x="-144.83" y="-157" width="1561.15" height="1264.47"/><rect class="cls-3" x="-138.08" y="-145.84" width="1561.15" height="1251.09"/><polygon class="cls-4" points="1477.9 1142.77 -144.83 1142.77 -143.66 963.42 1478.67 963.42 1477.9 1142.77"/><polygon class="cls-5" points="439.66 1159.67 655.39 -54.54 -72.1 -44.02 -78.03 1170.3 439.66 1159.67"/><polygon class="cls-6" points="434.76 1198.69 -78.03 1198.69 -78.03 961.29 474.76 961.29 434.76 1198.69"/><polygon class="cls-7" points="776.73 33.74 778.76 37.36 782.84 38.18 780.02 41.23 780.5 45.36 776.73 43.63 772.95 45.36 773.44 41.23 770.62 38.18 774.69 37.36 776.73 33.74"/><polygon class="cls-7" points="1215.68 60.59 1217.71 64.21 1221.79 65.03 1218.97 68.08 1219.45 72.21 1215.68 70.47 1211.9 72.21 1212.38 68.08 1209.57 65.03 1213.64 64.21 1215.68 60.59"/><polygon class="cls-7" points="1145.97 45.36 1148.01 48.98 1152.08 49.8 1149.27 52.85 1149.75 56.98 1145.97 55.24 1142.2 56.98 1142.68 52.85 1139.87 49.8 1143.94 48.98 1145.97 45.36"/><polygon class="cls-7" points="1058.04 64.13 1060.07 67.76 1064.15 68.57 1061.33 71.63 1061.81 75.75 1058.04 74.02 1054.26 75.75 1054.75 71.63 1051.93 68.57 1056.01 67.76 1058.04 64.13"/><polygon class="cls-7" points="724.26 45.36 726.3 48.98 730.37 49.8 727.56 52.85 728.04 56.98 724.26 55.24 720.49 56.98 720.97 52.85 718.15 49.8 722.23 48.98 724.26 45.36"/><polygon class="cls-7" points="708.82 76.11 712.74 83.09 720.58 84.66 715.16 90.55 716.09 98.5 708.82 95.15 701.54 98.5 702.48 90.55 697.05 84.66 704.9 83.09 708.82 76.11"/><polygon class="cls-7" points="1210.27 129.2 1214.19 136.18 1222.04 137.75 1216.61 143.63 1217.54 151.58 1210.27 148.24 1203 151.58 1203.93 143.63 1198.5 137.75 1206.35 136.18 1210.27 129.2"/><g class="cls-8"><polygon class="cls-9" points="16.94 912.34 66.35 912.34 45.83 974.31 16.94 974.31 16.94 912.34"/><path class="cls-10" d="M54.93,584c-19.5,0-56.5.25-65.37,31.73V728.35c-11,9.51-17.47,19.57-17.48,35.75v66.12c0,13.23,9,23.95,20.08,23.95h-2.58v79.24l647.3-2V856.67c11-3.6,18.66-15.51,18.72-29.12V772.81c0-21-8.92-34.67-24.63-44.11l-.93-.35-2-81.69c-2.44-49.53-6.13-69.71-34.62-72.5l-9.3.32c-19.39,0-42.94-.9-49.47,4.12-1.81-86-60.81-154.64-133-154.66H303c-158.23,0-202.73,71.05-202.73,158.69h0v14.49c-5-9.42-12.76-13.07-41.5-13.08"/><path class="cls-10" d="M329.59,582.62c-19.49,0-50,8.49-50,31.74V726.93c-11,9.51-17.47,19.57-17.48,35.75V828.8c0,13.23,9,24,20.09,24h-2.59V932H923.86V855.25c11-3.6,18.66-15.5,18.72-29.12V771.39c0-21-8.92-34.66-24.63-44.11l-.93-.35L915,645.24c-2.44-49.53-18.43-69.71-46.92-72.5l-9.3.32c-19.4,0-42.94-.9-49.47,4.12-1.81-86-60.82-154.64-133-154.66H443.76c-158.23,0-68.79,71.05-68.79,158.69h0V595.7c-5-9.42-12.75-13.07-41.49-13.08"/><path class="cls-11" d="M46.6,585.18c8.22-.32,15.65,4.11,21.18,9.89,6.43,6.73,10.41,15.22,12.73,24.16C83.15,629.39,83.78,640,84,650.41c.25,11.21.25,22.43.35,33.64L84.7,723c0,.87,3.47.28,3.46-.92-.21-23.27-.29-46.53-.64-69.79-.3-19.72-1.64-41.72-15.38-57.22C66,588.09,57.49,583.08,48,583.44c-.7,0-1.9.24-2.3.9s.34.86.89.84Z"/><path class="cls-11" d="M96.89,596c5.75,5.24,8.73,12.68,11,20a212.11,212.11,0,0,1,5.91,25.64c3.07,17.74,4.34,35.75,5,53.73.35,10.14.51,20.29.66,30.44,0,.9,3.48.29,3.46-.93-.27-18.15-.55-36.31-2-54.41-1.43-17.94-4-35.88-8.92-53.22-2.31-8.13-5.41-16.66-11.81-22.5-.82-.74-4,.56-3.24,1.29Z"/><path class="cls-11" d="M16.78,731,35.21,731q23.79-.11,47.57-.18l64.41-.18q34.76-.08,69.5-.1,31.45,0,62.9.07c14.56.05,29.13.1,43.7.34,9.64.15,19.27.65,28.91.9,20.94.55,41.89.91,62.84,1.25q34.9.59,69.8,1,21,.28,42,.55l2.07,0c1.49,0,3.34-2.24,1.15-2.26l-30-.38q-33.27-.45-66.54-.95c-22.56-.36-45.11-.73-67.66-1.23-11.73-.26-23.45-.78-35.17-1.08-12.59-.32-25.19-.35-37.77-.41q-29.57-.15-59.13-.13-34.46,0-68.91.07-33.51.06-67,.17-26.45.07-52.88.18l-26.65.11H17.1c-1.81,0-2.53,2.27-.32,2.26Z"/><path class="cls-12" d="M424.87,674.18c-.35,0-.6,0-.6-.16s.25-.16.6-.16.6,0,.6.16S425.19,674.18,424.87,674.18Z"/><path class="cls-13" d="M267.76,471.85c28.63,29.68,66.63,103.9,104.92,101.95A71.51,71.51,0,0,0,419.3,551c2-2.2-43.36-27.7-43.52-30.68-.08-1.35,17.53,1,16.83-.18-13-21.52-34.88-59.89-56.19-93.89-7.91-12.61-5.77-17.4-30.77-29.93-1.5-.75-43.06-11.27-47.61-10.82C247.88,386.55,267.76,471.85,267.76,471.85Z"/><path class="cls-14" d="M262.75,674.47l.81,5.39c.18,1.17,1,2,1.79,1.9s1.3-1.18,1.12-2.34l-.81-5.39a5.19,5.19,0,0,0,1.22-4.62c-.43-2.57-2.21-4.39-4-4.07s-2.87,2.67-2.44,5.24A5.32,5.32,0,0,0,262.75,674.47Z"/><path class="cls-15" d="M185.14,247.86c3.82-5.52,9.82-9.25,16.25-7.59-.42-12.5,11.63-20,24.13-20.49,6.43,0,13.06,2.86,19.1.67,3.77-1.36,6.6-4.35,9.81-6.86,13.43-10.18,34.82,1.25,46.44,13.47s8.92,26,3.22,41.89c-2.65,7.37-2.17,11.36-2.92,19.22-.71,7.41-5,21.21-5.05,28.57s11.57,14.92,4.15,15.58l-80.87-8.66c-12,2.5-19.68-1.05-25.94-11.57-4.08-7.14-2.74-7.49-3.36-15.67-1.07-10.7-12-18.64-11.51-29.38C178.71,260.29,181.65,253.63,185.14,247.86Z"/><path class="cls-16" d="M175.11,247.51S202.89,233.37,239,237s53.89,25.51,60.35,41.28-.07,32.48-.07,32.48,9,2.34,14.68-30.14c8.23-47.35-40.37-75.34-52-75.06S190.56,194.4,175.11,247.51Z"/><path class="cls-17" d="M207,327.43s-1,28.49-8.5,48.45c-1,2.78-18.62,15.47-18.62,15.47l26.08,6.55c14.64,3.25,52.11,17.28,66.19,12.1l7.58-18.2s-15.57-7.46-16.32-10.88,1.68-29.38,1.68-29.38"/><path class="cls-13" d="M161.6,729.12c36.4,11.45,76.09,10.63,113.85,9.25a478.2,478.2,0,0,0,70.1-7.63c1.73-29.49,3.56-74.62.38-98.36-5-37.15-6.14-37.65-6.14-37.65l-5-16.06-3.32-21.56c3.29-16.79,10.66-73.53,6.37-80.29l-33.11-71-38.86-22c1.2,2.15,13.37,14.33-.31,21.27a32.4,32.4,0,0,1-14.15,3.37l-1.1,0c-32.73-1.33-56.3-28.88-56.3-28.88l-30,9.9-20.24,162S116.23,620.7,115,651.7c-.81,19.6.85,13,1,32.69C132.29,689,145.38,724,161.6,729.12Z"/><path class="cls-18" d="M263.34,376.13s-6-1-10.17-2.11-11.26-.88-30.44-17.39c0,0,5.69,20.36,30.11,24.64,0,0,6.32,1.29,10.46.27Z"/><path class="cls-17" d="M284.31,252.09l.26.21a3.18,3.18,0,0,1-.24-.44ZM294.58,255l.47.46v-.19S294.6,254.81,294.58,255ZM220.16,354.3c9,10.77,27.7,22.54,43.18,23.13,5.55.21,10.86,0,15.29-6.51s8.39-9.1,13.18-15.16a47.53,47.53,0,0,0,9.09-16.5c2.46-7.24,2.6-9.19,2.36-16.64a73.82,73.82,0,0,1,.53-11.48c.56-3.64,3.32-17.92,4.3-26.35s-4.49-24.92-4.49-24.92c-.3-2.33-3.54-1.37-4.63-3.31l-1-.08a1,1,0,0,1,.42.95,7.84,7.84,0,0,1-3.34-1.93v0c-1.56.55-3-.26-4.14-1.51,0,.23.19.71.44.73a5,5,0,0,1-3.87-1.71c0,.23.2.71.18.93a9,9,0,0,1-3.09-1.68c.2.32,5.9-.08,5.88.08-1.51.1.16.75-1-.5l-1.16-1c-1.27.13-1.29.88-2.2-.12.23.25-.47-2.57-.49-2.35-1.5-.12-1.08-.19-2.27-1,0,.23-4.19,1.14-4.21,1.37-1.25-.11-1,1.06-1.94.06.23.25,1-.88,1.21-.63-1.51.1-2.15,1-3.3-.24.23.25-4.71-2.92-4.71-2.92-1.51.1-1.3.59-2.46-.43.46.5-6.86-1-6.65-.54-1.24-.1,2,4.77,1.05,4,0,.23-2.8-.93-2.8-.93-1.27.12.5,1.42-.42.42,0,.23.17.94.42,1a5.12,5.12,0,0,1-4.67-1.09c.46.5.67,1,.9,1.23-1.24-.11-2.26,0-3.42-1,0,.23.41,1,.66,1a4.92,4.92,0,0,1-3.94-.8c0,.23.44.73.67,1a3.56,3.56,0,0,1-2.95-.71l.67,1c-1-.09-1.78.3-3.24-.28,0,.23.46.5.44.73a9.65,9.65,0,0,1-2.47-.44c0,.22.69.75.44.72-1-.08-1.78.31-3-.25.22.25.44.73.67,1a6.76,6.76,0,0,1-3-.49,1.69,1.69,0,0,0,.42,1c-1-.09-1.78.31-3-.26,0,.23.44.73.67,1a13,13,0,0,1-3-.25c0,.22.46.5.69.74a8.06,8.06,0,0,1-3.22-.5c0,.46.19.71.17.93-.74-.06-1.22-.33-2-.39l-1.28.35c-3.88,4.27-16.64-.54-16.64-.54-8.24,5.51-.6,38-.72,42.32s-2.69,5.36-2.69,5.36c-1.11-1.71-3,2.89-3.62,1-.61-1.66.06-3.68-.55-5.34-1.93-3.85-7-3.13-9.93-1.08l-.53.71c-4.25,4.84-1.45,21.25,1,26.26,0,9.78,8.13,15.59,13.52,9l1,3.9"/><path class="cls-19" d="M272.5,334a7.15,7.15,0,0,1-6.44-1c-.39-.29-1.78-.16-1.23.24a10,10,0,0,0,8.79,1.16c.24-.1.21-.28-.07-.4a1.59,1.59,0,0,0-1.05,0"/><path class="cls-19" d="M264.07,332.65a11.33,11.33,0,0,0-3.91-1.33.87.87,0,0,0-.63.14c-.12.09-.16.23,0,.33a4.44,4.44,0,0,0,2.15.68.83.83,0,0,0,.7-.2c.13-.18-.08-.32-.27-.33a3.51,3.51,0,0,1-1.73-.56l-.65.47a10.38,10.38,0,0,1,3.5,1.2.84.84,0,0,0,.74,0c.15-.08.32-.27.11-.39"/><path class="cls-19" d="M258.58,332.35a5.6,5.6,0,0,1-4.14-2.31c-1-1.93.32-4.73,2.43-5.72.23-.11.13-.28-.09-.35a1.24,1.24,0,0,0-.87.11,5.58,5.58,0,0,0-3.07,4.87c.11,1.62,1.56,2.87,3.45,3.5a8.74,8.74,0,0,0,1.77.4,1.11,1.11,0,0,0,.83-.19c.13-.18-.08-.28-.31-.31"/><path class="cls-19" d="M275.53,333.39a.21.21,0,0,1,.23-.28,1.94,1.94,0,0,0,1.29-.3l.38.55a5.62,5.62,0,0,0-2.61.69.46.46,0,0,1-.51-.13c-.09-.09-.19-.31,0-.4"/><path class="cls-19" d="M274.29,333.52a6.49,6.49,0,0,1,2.91-.75.53.53,0,0,1,.42.23.23.23,0,0,1,0,.33"/><path class="cls-19" d="M278.87,333.9a3.31,3.31,0,0,0,3-1.71,4.72,4.72,0,0,0-.81-5.27.19.19,0,0,1,.1-.33.63.63,0,0,1,.55.23,5.33,5.33,0,0,1,1.34,4.53,3.73,3.73,0,0,1-2.7,3,4.29,4.29,0,0,1-1.18.15c-.16,0-.44-.11-.5-.31s.09-.27.24-.26"/><path class="cls-20" d="M292.18,303.6a3.46,3.46,0,0,1,4.76,2.76,3.63,3.63,0,0,1-1.13,3.2,3.35,3.35,0,0,1-3.9.34,3.7,3.7,0,0,1-1.45-4.45,3.3,3.3,0,0,1,1.72-1.85"/><path class="cls-20" d="M279.45,307.15s7.18-4.72,10.65-4.77c5.06-.07,11,3.24,12.57,5.89,0,0-7.83-4.86-11.39-4.71C287.87,303.71,279.45,307.15,279.45,307.15Z"/><path class="cls-20" d="M250.26,300.53a4.71,4.71,0,0,0-4.53-.1,3.5,3.5,0,0,0-1.19,1.54,3.61,3.61,0,0,0,.57,3.35,3.34,3.34,0,0,0,3.78,1,3.7,3.7,0,0,0,2.18-4.14c0-.28.27-.78-.8-1.45"/><path class="cls-20" d="M258.67,305s-7.18-5.48-10.91-5.91c-5.44-.63-12.22,2-14.21,4.46,0,0,9-4,12.81-3.42C250,300.63,258.67,305,258.67,305Z"/><path class="cls-21" d="M284.12,284.6c-.38.95-.75,1.9-1.13,2.86l-.85,2.17c2.67.36,4.9.79,6.57,1.15,3.54.76,5.34,1.17,7.13,2.26a19.48,19.48,0,0,1,3.85,3.14,12.45,12.45,0,0,1,1.83,2.15c1.16,1.82,1.29,3.42,1.61,3.41s.35-1.34.36-1.47a11.88,11.88,0,0,0-1.56-6.2,13.93,13.93,0,0,0-3.65-3.83c-1.71-1.24-6.83-3.69-14.16-5.64"/><path class="cls-21" d="M260.46,282c.18,1,.35,2,.52,3,.13.77.26,1.54.38,2.31-2.91-.16-5.37-.16-7.23-.13-3.92.09-5.92.14-8.08.87a23.21,23.21,0,0,0-4.82,2.37,14.16,14.16,0,0,0-2.44,1.76c-1.66,1.58-2.18,3.13-2.51,3.06s-.06-1.38,0-1.52a12.06,12.06,0,0,1,3.11-5.81,15.93,15.93,0,0,1,4.77-3.08c2.1-.89,8.11-2.33,16.33-2.85"/><path class="cls-22" d="M204.12,313.61C198.88,300.48,195,300.3,195,300.3s-2.71,2.95-1.53,9"/><path class="cls-22" d="M202.07,314.75c-3.51-.43-1,6.21-2,7.73s-2.21-2.61-2.53-7.58c0,0,.15-6.7,3.5-7.85"/><path class="cls-18" d="M293,274.73s-10.75,1.18-19.47,1.23-17.23-4.43-17.23-4.43,13.69,3.41,17.3,3.51S293,274.73,293,274.73Z"/><path class="cls-21" d="M298.94,249.74c-.1-.16.05.06,0,0-2.14-3.07-3.49-6.33-5.77-9.29s-4.42-5.54-6.81-8.31c-.14-.17-3-.26-3.13-.43l-.15-.17c-.08-.08-.15-.17-.23-.26l-.54-.59a65.48,65.48,0,0,0-44.61-2.51,54.27,54.27,0,0,0-36.4,67.57c.74,2.46-.75,5.42,1.65,6.82s2.68.71,5-.86a17.86,17.86,0,0,0,5.14-6.4c6.3-11.8,7.94-30.63,5.21-43.73,1.57,2.48,12.62,0,15.06,1.62a21,21,0,0,0,29.15-5.83,32.71,32.71,0,0,0,3.31,4.11c11.11,11.71,25.67,17.45,37.91,9.31C304.15,260.49,300.28,251.68,298.94,249.74Z"/><path class="cls-12" d="M230.16,297.32l1.21,4.74c.64,3.66,2.84,11,3.93,13,1.54,2.85,20.57,5.27,24.49,3.35s6.8-12.69,8-15.16l7.62,1c.44,3.33,2.08,13.87,3.42,15.38s10.14,1.88,11.13,1.93c.83,0,2,.06,3.23.05,3.33,0,7.39-.27,8.72-1.41,2-1.69,4.48-8.49,6.69-14.93l.36-1c.08-.25.17-.41.18-.49h0l.39-1.16c-10.62-6-25.13-6.22-34.37-.4l.06.12-7.43-1c-8-6.21-22.35-10.3-33.06-7h0L202,297.38l-.31,2.86Zm49.63,21.3c-.84-.94-2.21-8.34-3.09-14.09,8-4.89,21.1-4.72,30.64.12l0,.15c-1.19,3.45-4.33,12.65-6.27,14.31-2.29,1.95-19.77,1-21.26-.46Zm-42.17-4.16a98.79,98.79,0,0,1-5.12-16.92c9.58-3.54,25.54,0,33.39,5.88-1.65,4.48-3.89,12.34-6.7,13.71-4,2-20.61-.87-21.57-2.67Z"/><path class="cls-23" d="M187.11,301.15s-27.2-19.72-16.83-40.9c2-4.07,2.21-2.73,2.32-6.25.62-18.42-5.83-14,21.16-35.58s31-21.18,72.15-18.1c21.25,1.58,32.88,10.46,38.68,23.92a65.11,65.11,0,0,1,4.64,20.69s-43.41-12.39-69.26,1.55-53,59.33-47.48,73.88C194,324.45,187.11,301.15,187.11,301.15Z"/><path class="cls-16" d="M170.34,281s36.84-53.67,86-55.3c0,0-60.66-6.49-87.51,36.83l-.39,5.09a27.77,27.77,0,0,0,.88,9.43Z"/><path class="cls-13" d="M97.2,566.05l49.38,2.54,14.2-89.81,7.09-90.37s-30,3.58-43.88,29.72S98.77,518.2,97.58,534C96.76,544.85,97,564.78,97.2,566.05Z"/><path class="cls-24" d="M249.71,563.23l.82-5.82a.14.14,0,0,0-.13-.08l-9.85-1.14-23.44-2.71-27.89-3.23L166,547.56l-7-.81-1.83-.21a1.33,1.33,0,0,1-.45,0c-.16-.1,0,.12.15-.15a16.61,16.61,0,0,0,1.09-3c.49-1.52.92-3.06,1.34-4.6,1.17-4.29,2.22-8.63,3.24-13,2.65-11.28,5.09-22.61,7.52-33.94,2.22-10.34,4.39-20.68,6.68-31,1.31-5.89,2.45-11.72,2.23-17.8a44.93,44.93,0,0,0-3.69-16.43,42,42,0,0,0-12.14-16c-.29-.22-.57-.44-.87-.64s-1.58.38-1.4.5c4.23,2.85,7.7,7.22,10.31,11.53,6.45,10.65,7.62,23.35,4.94,35.37-2.22,9.94-4.34,19.89-6.47,29.85-2.52,11.79-5.05,23.59-7.76,35.34-1.09,4.72-2.21,9.44-3.43,14.13a84.24,84.24,0,0,1-2.69,9,12.1,12.1,0,0,1-.5,1.17c0,.09.05.14.12.14l10.41,1.21,24.55,2.84,28.68,3.32L241.88,557l6.05.7c.26,0,.95,0,1.17.14,0,0,.05,0,.06,0-.19-.22-.19.37-.2.49l-.45,3.17-.29,2.07c0,.15,1.43,0,1.49-.39Z"/><path class="cls-25" d="M267,343.12c-7.09-.53-18.5-2.31-18.5-2.31s-2.34,17.92,17.91,19.66c16.41,1.41,17.85-16.88,17.85-16.88S274.08,343.65,267,343.12Z"/><path class="cls-26" d="M267.07,343.12c-3.37-.25-16.9-1.9-16.9-1.9s4.79,12.25,17,13.16c13.21,1,15.41-10.51,15.41-10.51Z"/><path class="cls-27" d="M267.17,343.69c-3.37-.25-13.57-1.65-13.57-1.65s3.39,4.33,13.49,5.09,13.61-2.94,13.61-2.94Z"/><path class="cls-25" d="M285.09,342.51c-.35-.12-2.36.45-4,.16-2.77-.47-3.09-1.41-5.09-1.73-3.43-.55-5.73.78-7.23.67s-3.58-1.77-7.05-1.74c-2,0-7.09.45-9.9.5-1.69,0-3.59-.83-4-.76s.16,4.19,19,5.6S285.58,342.68,285.09,342.51Z"/><path class="cls-13" d="M97.15,551.67c-.65,8.54-.71,17.26,1.61,25.51,2.92,10.43,3.75,14.59,12.81,20.55s26.39,8.93,37.13,7.48c1.13-.15-3.86,4.37-2.89,3.77a9,9,0,0,0,2.89-3.77l9-17.59c3-5.91,6.13-12,6.95-18.56a4.77,4.77,0,0,0-.25-2.73,5,5,0,0,0-2.57-2,122.76,122.76,0,0,0-35.8-10.22"/><path class="cls-24" d="M156.3,546.63a21.52,21.52,0,0,0-20.77,9.64c-.39.62,1.11.54,1.4.08a19.33,19.33,0,0,1,18.82-8.79c.62.08,1.55-.79.55-.93Z"/><path class="cls-24" d="M124.38,604a240.85,240.85,0,0,0,36.2,4.41c23.76,1.39,47.88.18,71.11-5.16l17-3.92c.87-.2.75-.67-.13-.47l-15.34,3.53a226.68,226.68,0,0,1-31.4,5,286.7,286.7,0,0,1-64.07-1.89c-4.07-.57-8.16-1.18-12.18-2.05-.35-.07-1.64.5-1.22.59Z"/><path class="cls-17" d="M316.65,861.86c14.7,4.9,32.92,2.75,46.84-3.12-5.47,18.2-11.53,48.93-13.94,61,0,4.12-1.68,2.94-.35,3.46,19.42,7.65,51.22,39,51.22,39s-4.43,10.17-19.15,9-74-40.84-74-40.84l7.5-9.35Z"/><path d="M421.21,978.51s4-6.15-.47-8.71-24.23-13.52-26.93-13.55c-.28,1.69,4.39,2.54-1.47,3a76.09,76.09,0,0,1-32.27-4.06c-10.34-3.76-28.7-11-37.38-17.83-2.9-2.28-8.85-9.45-15.47-8.63-3.87,3.79-9.21,21.4-4.66,25.36s34.53,11.41,34.53,11.41l25.77,10.6L388,981.77l10.72,1.7,10.57-1.58Z"/><path d="M301.48,952.72c3.1,1.62,13.39,5.13,22.44,6.92,24.29,4.82,31.93,9.09,39.75,12.83a111.27,111.27,0,0,0,13.84,5.82c27.6,9.45,43.95-1.44,44.6-1.71a2.53,2.53,0,0,1,.53,1.38,65.81,65.81,0,0,1-6.29,3.33c-5.83,2.63-19.05,7.15-40.51.24-6.09-2-9.76-3-13.67-4.91-5.86-2.8-11.88-5.69-25.41-9l-.67,3.73s-26-3.76-36.82-10.39C299.54,955,301.48,952.72,301.48,952.72Z"/><path d="M299.66,957.54c14.82,6.38,31.66,9.51,37,10.49l-.59,3.28s-26-3.76-36.82-10.39A24.3,24.3,0,0,1,299.66,957.54Z"/><path class="cls-17" d="M269.34,870.21c14.47,5.57,32.77,4.25,46.94-1-6.29,17.94-13.73,48.36-16.69,60.34-.21,4.12-1.81,2.86-.51,3.44,4.77,2.13,10.23,5.78,15.76,10,16.57,12.82,33.64,31.26,33.64,31.26s-4.89,10-19.54,8.15-72.06-44.15-72.06-44.15l7.92-9Z"/><path d="M368.51,991.49s4.32-6-.07-8.73S345.71,967.51,343,967.37c-.36,1.67,3.41,3.38-2.47,3.62a76.16,76.16,0,0,1-32.05-5.52C298.34,961.24,280.32,953.15,272,946c-2.79-2.41-8.41-9.84-15.06-9.32-4,3.61-10.16,21-5.8,25.12s34,13,34,13l25.26,11.75,24.88,6.76,10.63,2.18,10.63-1.09Z"/><path d="M250.07,960.3c3,1.76,13.15,5.73,22.11,7.93,24.05,5.92,31.48,10.52,39.12,14.62a112.6,112.6,0,0,0,13.56,6.44c27.15,10.68,44,.55,44.64.31A2.49,2.49,0,0,1,370,991a64.09,64.09,0,0,1-6.43,3c-5.95,2.37-19.35,6.28-40.48-1.6-6-2.23-9.61-3.47-13.43-5.52-5.73-3.06-11.62-6.22-25-10.18l-.84,3.7s-25.83-5-36.3-12.05C248,962.53,250.07,960.3,250.07,960.3Z"/><path d="M248,965c14.51,7.06,31.19,10.94,36.5,12.17l-.74,3.25s-25.83-5-36.3-12.05A23.82,23.82,0,0,1,248,965Z"/><path class="cls-28" d="M280,902.62c8.1-22.19,17.37-37.44,21.58-52.59,6.26-22.5,11.79-90.47,49.92-99.45,62.38-14.69-168.7-127.9-156.83-128.65,42-2.65,175.15,13.24,198.1,28.12,18.53,12,48.64,53.32,32.65,97.74-14.23,39.51-57.86,80.64-83.17,139.7C316.21,883.84,305.21,909.91,280,902.62Z"/><path class="cls-28" d="M344.62,747.76c2.39-3.6,8,23.67,10.7,20.32A179.29,179.29,0,0,1,375.65,747a194.56,194.56,0,0,1,24.07-18.26,167,167,0,0,1,18-10.05c-28.67-82.1-225.85-96.32-225.85-96.32s-71.41-8.33-80.37,49.41c-11.89,76.52,94.23,79.22,197,62.64C308.81,734.34,344.28,747.72,344.62,747.76Z"/><path class="cls-28" d="M419.87,688.88s16.69,30.07,6.69,80.63S398.33,919.1,398.33,919.1s-32.91,13.33-57.63,4.55-36-16.79-50.68-11.11-40.49,7.15-52.87,2.1l-18.36-6.74,39-183.9Z"/><path class="cls-24" d="M325.57,437a39.17,39.17,0,0,0-1.8,4.53c-.59,1.8-1.36,4-1.07,6a23,23,0,0,0,2.05,5.47c3.26,7.57,6.71,15,9.8,22.68,3.71,9.14,7.16,18.51,9.13,28.19a49.38,49.38,0,0,1,1.19,12.53,51.75,51.75,0,0,1-3.71,16.74c-1.83,4.49-4.41,8.57-6.74,12.81-1.94,3.52-3.55,7.23-3.64,11.31,0,.64,1.48.34,1.49-.17.17-7.87,5.82-14.35,9.07-21.16a49.7,49.7,0,0,0,4.52-28.6c-1.42-9.56-4.66-18.84-8.14-27.82-3.17-8.18-6.76-16.18-10.3-24.2a62.12,62.12,0,0,1-3.06-7.48,9,9,0,0,1,.41-4.79A35,35,0,0,1,327,437c.31-.66-1.17-.51-1.39-.05Z"/><path class="cls-29" d="M374.86,575.78c-.79.89-1.67,1.8-2.48,2.65l-81.05,1.14-6.27-9.9c21.81-27.17,37.88-53.77,50.81-69.78l14.43-19.35c1.72-2.14,3-3.83,4-5l1-1.31.51-.53.75.32,3,1.12,11.57,4.26,42.46,15.39,1.59,3,.19.34h.38l32.93-9.63,3.62,7.54C429.7,519.29,403.16,546.6,374.86,575.78Z"/><path d="M355.76,473.23l-.35.45-1,1.32c-.94,1.2-2.25,2.89-4,5L336,499.38c-13,16.07-28.64,43.85-50.57,71.15v-.73l6.23,9.56-.56-.29,81.69-1.15-.49.21c.86-.91,1.82-1.9,2.68-2.86,28.39-29.28,55-56.67,77.67-80v.69l-4.05-8.43.7.29-33.42,9.78h-.38l-.19-.35-1.68-3.14.27.24-42.64-15.45-11.57-4.26-3-1.12-1-.43,1,.29,3,1,11.56,4,43,15.07h.16v.17c.56,1,1.1,2,1.71,3.13l-.56-.24,33.34-10,.48-.13.22.46,4.07,8.41.19.37-.3.3-77.67,80.18-2.67,2.87-.19.21h-.3l-81.68,1h-.38l-.18-.29-6.18-9.59-.25-.37.27-.35,50.88-71.05,15-19.13,4-4.84,1.05-1.21A2.23,2.23,0,0,0,355.76,473.23Z"/><path class="cls-30" d="M289.66,581.86c.35-.78,72.9-96.42,72.9-96.42L413.66,497l4.08,4.56,35.56-5.82-64.08,85.91-22.75-1.44-2.37,2.41-6-2.24Z"/><path d="M419,502.37a17.74,17.74,0,0,1-1.87,3.13c-1.42,2.2-3.27,5-5.36,8.28L393.66,541c-7.13,10.72-13.69,20.14-18.75,26.78-2.49,3.38-4.55,6.08-6,7.91a17,17,0,0,1-2.42,2.67,18.58,18.58,0,0,1,2-3c1.47-2.17,3.37-4.9,5.62-8,4.77-6.91,11.2-16.5,18.29-27.13s13.63-20.14,18.48-27c2.44-3.43,4.42-6.16,5.84-8A17.7,17.7,0,0,1,419,502.37Z"/><path d="M413.45,497.76a17,17,0,0,1-1.87,3.13c-1.42,2.2-3.27,5-5.36,8.28l-18.13,27.21c-7.13,10.71-13.69,20.17-18.75,26.92-2.49,3.37-4.55,6.05-6,7.9a16.49,16.49,0,0,1-2.41,2.67,18.58,18.58,0,0,1,2-3c1.47-2.17,3.37-4.9,5.65-8,4.74-6.89,11.16-16.47,18.26-27.11s13.63-20.14,18.48-27c2.44-3.42,4.42-6.16,5.84-8A17.67,17.67,0,0,1,413.45,497.76Z"/><path class="cls-17" d="M399.24,572.5a5.85,5.85,0,0,1-5.52,1.89c-2-.6-4.41-2.67-6.26-4.1-4-3.07-3.41-5.09-1.72-7s10.33,2.54,10.33,2.54L397,565l-7.15-6.4a33.85,33.85,0,0,1-4.34-4.69c-3.87-5.41,4.58-7.67,4.58-7.67a29.28,29.28,0,0,1-2.84-4.07c-.36-1.37-.3-4.28,3.34-5.89s20.92,10.64,20.92,10.64S400.17,532.73,400.21,532s.3-4.82,3.48-6.23,18.63,13,18.63,13a40.39,40.39,0,0,1,1.46-6.64,28.07,28.07,0,0,1,3-6,8,8,0,0,1,5.93-3.93h0L430,538.12a39.35,39.35,0,0,1-3.26,8.45c-1.68,3.19-5.64,5.11-5.64,5.11a17.51,17.51,0,0,1-1.26,7c-1.41,3-7.6,4.86-7.6,4.86l-1.67,3.3c-1.67,3.3-9.12,3.44-9.12,3.44Z"/><path class="cls-18" d="M396.93,552.78c-4.45-3.7-7.7-7.1-8-6.81s2.46,4.21,7,7.95,9,5.8,9.21,5.48S401.38,556.47,396.93,552.78Z"/><path d="M416.78,515.58l16.3-1c.23,0,.88-.11,1-.37s-.08-.31-.36-.29l-16.29,1c-.24,0-.88.1-1,.37s.09.3.36.29Z"/><path class="cls-17" d="M248.73,561.84c.1,1.7-.13,12-.06,13.67.36,9.52.59,10.5.28,20l18.38-2.24-.41-28.35Z"/><path class="cls-17" d="M260,593.82l19.46-2s10.12,3.65,18.33,2.35a64.81,64.81,0,0,0,17-5.88l18.73-2.62s8.65,3.45,9.92.83-1.61-4.77-4.42-6.85-49.27-16.28-49.27-16.28a88.77,88.77,0,0,1,13.75-6.18c7.31-2.5,8-7.54,5.56-11s-13.18,1-15.91,4.6-12.91,1.7-19.93,5.26-10.89,13.56-10.89,13.56C250.67,577.49,260,593.82,260,593.82Z"/></g></g><g id="Layer_12" data-name="Layer 12"><path class="cls-17" d="M995.18,471.67s-1.63,13.47-11.79,18.82c-14.94,7.89-90.69,22.16-90.69,22.16l-11-19.16s65.68-38.13,83.8-37.47S995.18,471.67,995.18,471.67Z"/><path class="cls-17" d="M1080.53,248.89s-1.45,34.16,2.9,44.78c1,2.58,20,13.61,20,13.61l-48.13,18.61L998.7,311.64s28.91-14,29.72-17.18-.72-26.5-.72-26.5"/><path class="cls-17" d="M1110,315.13s33,2.64,44.77,25.33c5.39,10.41,27.84,65.9,30.7,74.68-3.9,5.54-2.29,5.62-5.89,11.34-4,6.37-1.18,11.36-2,18.69-.73,6.3.73,13.37,2.75,19.24-10.89,2-23.56-15-29.47-23.8-7.92-11.81-26-34.56-37-60.71-1.07-2.44-3.4-11.6-5-20.57C1105.47,349.82,1105.67,319.14,1110,315.13Z"/><rect class="cls-17" x="979.74" y="909.54" width="44.11" height="23.08" transform="translate(2003.59 1842.16) rotate(-180)"/><path class="cls-31" d="M1032.57,946.35s5,6.35,3.28,9.46-17.5,4.05-21.64,4.5-57.8,6.83-63.14,7-34.09-1-38.24-6.82c0,0-7.05-9.87,2.55-13.37s16.75-2.32,25.72-6.65a95,95,0,0,0,27.28-20.16s8.67-7.39,12.86-6.31,9,8.63,12.42,10.41,19.72,3.93,23.83-3.68,5.33-4.75,8.53-3.67,8.65,14.27,7.46,20.44S1032.57,946.35,1032.57,946.35Z"/><path class="cls-32" d="M1032.57,946.35s-24.07,2.52-34.45,6-37.92,9.36-52.37,9.58-34.67-4.89-34.67-4.89-1.32,2.12,5,5.66,25.88,5.69,42.81,3.84,41.72-4.23,46.93-4.55,26.91-2,29.75-5.86C1038,952.94,1032.57,946.35,1032.57,946.35Z"/><path class="cls-33" d="M999.05,952.14a34.3,34.3,0,0,1,4.25-11.85,20.35,20.35,0,0,1,7.21-7.64,33.12,33.12,0,0,1,6.92-2.66,69.23,69.23,0,0,1,6.8-1.76,38,38,0,0,1,6.35-.88,2.14,2.14,0,0,0,1.31-.35c.18-.19.36-.35-.09-.34a37.54,37.54,0,0,0-5.78.7,76.26,76.26,0,0,0-14.44,4.11c-6.84,2.69-10.91,9.22-13.09,15.94a33.63,33.63,0,0,0-1.31,5.23c0,.13,1.79,0,1.87-.5Z"/><path class="cls-33" d="M994.46,925.14a40.12,40.12,0,0,1-11.16,3.59c-4.66.91-9.77,1-13.79,3.79a32.46,32.46,0,0,0-4.56,4.29,26.44,26.44,0,0,1-5.83,4.7,19.73,19.73,0,0,1-8.07,2.65c-3.3.3-6.49-.36-9.72-.92l-6.43-1.12c-1-.17-1.86,1.21-.62,1.42l4.8.84a60.6,60.6,0,0,0,9.47,1.31,22.18,22.18,0,0,0,8.74-1.67,24.85,24.85,0,0,0,6.49-4c1.8-1.51,3.3-3.29,5-4.9a13,13,0,0,1,4.78-3.07,48,48,0,0,1,8.07-1.59,44,44,0,0,0,13.69-4.14c1.12-.59.12-1.68-.85-1.17Z"/><path class="cls-33" d="M917.85,946.06a3.31,3.31,0,0,0,1.33,2.58c2.11,1.7,5.19,1.3,7.7,1.28a57.5,57.5,0,0,1,9.55.56c2.86.46,5.9,1.22,7.93,3.43a35.56,35.56,0,0,1,5.26,7.33c.41.79,2.17.07,1.7-.84a33.93,33.93,0,0,0-3.9-5.74,14.59,14.59,0,0,0-3.2-3.22,13.84,13.84,0,0,0-3.6-1.6,37.56,37.56,0,0,0-9.07-1.31c-1.45-.06-2.91-.08-4.37-.07a23.19,23.19,0,0,1-4.64-.12,3.57,3.57,0,0,1-2.51-1.49,2.31,2.31,0,0,1-.29-.91c0-1-1.86-.78-1.89.12Z"/><path class="cls-5" d="M976.5,923.58l0-.05c.4-.42.1-1.2-.66-1.73l-5.5-3.83c-.76-.53-1.71-.63-2.11-.21l0,0c-.4.42-.1,1.2.66,1.73l5.5,3.83C975.16,923.9,976.11,924,976.5,923.58Z"/><path class="cls-5" d="M970.27,926.63l.15-.15c.29-.29,0-.93-.73-1.41l-4.08-2.87c-.69-.48-1.49-.64-1.77-.35l-.15.16c-.29.29,0,.93.73,1.41l4.08,2.87C969.19,926.77,970,926.93,970.27,926.63Z"/><path class="cls-5" d="M965.13,929.54l.26-.27c.26-.26,0-.83-.66-1.26l-2.91-2c-.62-.44-1.34-.58-1.6-.31l-.25.26c-.26.26,0,.83.65,1.27l2.92,2.05C964.16,929.66,964.88,929.8,965.13,929.54Z"/><path class="cls-5" d="M961,932.61l.3-.31c.3-.31,0-.91-.58-1.35l-2.93-2c-.62-.43-1.37-.53-1.67-.22l-.29.31c-.3.31,0,.92.58,1.35l2.92,2C960,932.82,960.71,932.92,961,932.61Z"/><rect class="cls-17" x="1077.58" y="911.69" width="44.11" height="23.08" transform="translate(2199.27 1846.46) rotate(-180)"/><path class="cls-31" d="M1130.42,948.5s4.95,6.35,3.27,9.46-17.5,4-21.64,4.5-57.8,6.82-63.14,7-34.09-1-38.24-6.83c0,0-7-9.86,2.55-13.36s16.75-2.32,25.72-6.65a95,95,0,0,0,27.28-20.16s8.67-7.39,12.87-6.31,9,8.62,12.41,10.41,19.72,3.93,23.84-3.68,5.32-4.75,8.52-3.68,8.65,14.27,7.46,20.44S1130.42,948.5,1130.42,948.5Z"/><path class="cls-32" d="M1130.42,948.5s-24.08,2.52-34.46,6-37.92,9.37-52.37,9.58-34.66-4.88-34.66-4.88-1.32,2.12,5,5.65,25.89,5.7,42.81,3.85,41.72-4.24,46.94-4.56,26.9-2,29.74-5.86C1135.8,955.09,1130.42,948.5,1130.42,948.5Z"/><path class="cls-33" d="M1096.89,954.28a34.3,34.3,0,0,1,4.25-11.85,20.32,20.32,0,0,1,7.21-7.63,33.93,33.93,0,0,1,6.92-2.67,69.92,69.92,0,0,1,6.8-1.75,38.15,38.15,0,0,1,6.35-.88,2.17,2.17,0,0,0,1.31-.35c.18-.19.37-.36-.09-.35a38.53,38.53,0,0,0-5.77.7,76.18,76.18,0,0,0-14.45,4.12c-6.84,2.69-10.9,9.22-13.09,15.94a32.39,32.39,0,0,0-1.3,5.22c0,.14,1.78,0,1.86-.5Z"/><path class="cls-33" d="M1092.31,927.28a40.21,40.21,0,0,1-11.17,3.6c-4.65.9-9.77,1-13.79,3.78a32.49,32.49,0,0,0-4.55,4.3,27.21,27.21,0,0,1-5.83,4.7,19.66,19.66,0,0,1-8.08,2.64c-3.3.31-6.49-.36-9.72-.92l-6.42-1.12c-1-.16-1.87,1.21-.63,1.43l4.8.83a60.62,60.62,0,0,0,9.47,1.32,22.19,22.19,0,0,0,8.74-1.68,25.08,25.08,0,0,0,6.49-4c1.8-1.51,3.3-3.29,5-4.91a12.93,12.93,0,0,1,4.78-3.06,47,47,0,0,1,8.08-1.59,44,44,0,0,0,13.68-4.14c1.12-.59.12-1.69-.84-1.18Z"/><path class="cls-33" d="M1015.69,948.21a3.29,3.29,0,0,0,1.33,2.57c2.11,1.7,5.19,1.31,7.7,1.28a57.51,57.51,0,0,1,9.55.57c2.87.45,5.9,1.21,7.93,3.43a34.93,34.93,0,0,1,5.26,7.33c.41.79,2.17.06,1.7-.85a34.75,34.75,0,0,0-3.9-5.74,15,15,0,0,0-3.19-3.22,13.69,13.69,0,0,0-3.61-1.59,37.55,37.55,0,0,0-9.06-1.31c-1.46-.06-2.92-.08-4.38-.07a23.19,23.19,0,0,1-4.64-.12,3.57,3.57,0,0,1-2.51-1.49,2.49,2.49,0,0,1-.29-.91c0-1-1.85-.79-1.89.12Z"/><path class="cls-5" d="M1074.35,925.72l.05-.05c.39-.42.09-1.19-.67-1.72l-5.5-3.84c-.76-.53-1.71-.62-2.11-.2l0,.05c-.4.42-.1,1.19.67,1.72l5.5,3.84C1073,926.05,1074,926.14,1074.35,925.72Z"/><path class="cls-5" d="M1068.11,928.78l.15-.15c.29-.3,0-.93-.73-1.42l-4.08-2.86c-.69-.49-1.48-.64-1.77-.35l-.15.15c-.29.3,0,.93.73,1.41l4.08,2.87C1067,928.92,1067.83,929.07,1068.11,928.78Z"/><path class="cls-5" d="M1063,931.68l.25-.26c.26-.26,0-.83-.65-1.27l-2.92-2c-.62-.43-1.34-.57-1.59-.31l-.26.26c-.26.27,0,.84.66,1.27l2.91,2C1062,931.81,1062.72,932,1063,931.68Z"/><path class="cls-5" d="M1058.85,934.76l.3-.31c.3-.31,0-.92-.58-1.35l-2.93-2c-.61-.44-1.37-.54-1.66-.23l-.3.31c-.3.31,0,.92.58,1.35l2.93,2C1057.81,935,1058.56,935.07,1058.85,934.76Z"/><path class="cls-34" d="M1138.76,513.92l2.92,22.44a209.38,209.38,0,0,1-.36,56.69L1112,747s7.71,45.28,10.39,86.49c2.34,35.73,4.43,87.59,4.43,87.59l-52.08-1.56-33.15-160.76-4.32-173.06-10-68.54Z"/><path class="cls-34" d="M1074.29,514l.34,22.65a208.62,208.62,0,0,1-6.83,56.22l-45.51,146.54s5.57,50.32,3.52,91.58c-1.76,35.77-1.83,85.59-1.83,85.59l-46.53-5.24L949.89,748.14a93.51,93.51,0,0,1,.63-26l23.86-149.89L994.63,499Z"/><path class="cls-17" d="M972.24,360.17,959.49,486h33S1008.64,433,1002,398.7,981.48,345.45,972.24,360.17Z"/><path class="cls-35" d="M980.3,420.92s-3.57,2.59-22.41-3.88c0,0,2.17-39.12,11.26-68.4,7.55-24.29,10.87-32.31,21-36.29l16.06-7.1,17.45-7.26c-1.33,26.31,41.89,23.6,61-5.08A252.5,252.5,0,0,0,1116,305.3c9.64,3.18,20.48,7.35,32,19.22,10.33,10.65,11.74,17,21.29,42.36,2,5.22,6.23,12.3,7.85,15.34l-38.76,38.6-2.88,3c2.77,22.15,5,58.92,4.18,93.9-.12,4.69,2,12.82,1.88,17.52-.1,2.78,5.76,39.55,4.26,41.83s-28.54,4.49-31.22,5.41c-28.68,9.89-101.13-.83-101.13-.83-12-1.49-31.53-3.19-42.17-8.37,0,0,5.41-18.28,6.9-24.71,1.92-10,1.82-14.61,2.08-24.77.43-16.32,4.25-32.56,4.32-48.9,0-.94-3.21-30.54-3.09-37.27l-1.15-16.73"/><path class="cls-17" d="M652.78,885.75s26.45,44.78,35.42,50.72a24.51,24.51,0,0,0,18.11,3.66s-12.06-30.06-21.76-41.73c-2.69-3.24,34.23-43.2,49.38-59.34,3.88-4.12,8.41-12,8.41-12l-43-21.67-36,76.25Z"/><path class="cls-36" d="M717.56,958s5.18-2.34,3-5.57-12.9-13.67-14.79-14.66c.85,1.17,1.18,2.7-3.14.89a64.28,64.28,0,0,1-21.18-14.21c-5.86-6.07-17.5-21.34-21-28.7-1.19-2.46-2.67-9.06-7.64-10.94-4.15.94-14.56,9.92-12.85,14s20,19.58,20,19.58L674,934.34l15.59,12.6,6.91,4.94,8,2.85Z"/><path class="cls-36" d="M639.65,897.59c1.58,2.13,7.5,8,13.19,12.42,15.28,11.79,19,17.2,23.14,22.35a86.41,86.41,0,0,0,7.54,8.61c15.87,15.86,33.56,16.47,34.12,16.54a1.55,1.55,0,0,1-.15,1c-.28,0-5-.6-8-1.29-5-1.13-15.81-2.82-28.31-14.88a83.55,83.55,0,0,1-7.77-8,88.8,88.8,0,0,0-14.48-14.81L657,921.65s-16.91-11.77-22-19.78C637.42,898.33,639.65,897.59,639.65,897.59Z"/><path class="cls-36" d="M636.56,899.91c8,9.33,18.69,17.37,22.09,19.92L657,921.65s-16.91-11.77-22-19.78A15.07,15.07,0,0,1,636.56,899.91Z"/><path class="cls-17" d="M781.55,766.39s-15.88,27.53-22.53,39c-8,13.69-34.19,43.47-34.19,43.47l-33.08-27.3s9.11-32.23,21.08-29.93L693.42,751Z"/><path class="cls-17" d="M894.54,484.53s-8.2-4.92-15-3.31-12.8,9-16.65,8-13.77,2.21-13.51,6.15,3.51,7.17,9.94,4.63a74.69,74.69,0,0,1,12.89-3.72s-6.86,10.74-13.38,21.25c3.34,4.22,6.8,8.71,11.51,11.17a56.18,56.18,0,0,0,13.35-5.44c6.38-3.94,14.67-12.44,14.67-12.44l11.76-5.14s-4.63-23.11-5-23.51C905.08,482.22,897.3,484.25,894.54,484.53Z"/><path class="cls-17" d="M786.46,537.43s35.61,101.41,40,206.93c-.79,30.68-3.8,68.67-7,102.39-4.45,46.5-9.3,84.9-9.3,84.9l-23.36,4.81s-14.62-119.87-22.4-196.84C754.85,667.49,744.62,629,744.62,629L740.73,524.8Z"/><path class="cls-17" d="M781.93,936.34s46.66,22.2,57.39,21.55,19.6-7.2,19.6-7.2-30.68-17.53-45.45-21c-5.15-1.22-.84-45.9-.84-45.9L782.06,889l4.39,40Z"/><path class="cls-36" d="M875.77,960s2.53-4.76-1.23-6.11-14.95-4.49-17-4.22c0,1.22,2.19,1.25-2.31,2.22a65.35,65.35,0,0,1-25.47.48c-8.4-1.58-27.12-7.28-34.54-11.19-2.48-1.3-7.81-5.75-12.87-4.48-2.63,3.08-5,16.08-1.1,18.4s27.95,4.48,27.95,4.48l21.07,4.81,20.1,1.36,8.49.09,8.05-2.21Z"/><path class="cls-36" d="M780.22,954.18c2.57.83,10.91,2.24,18.12,2.56,19.34.89,25.69,3.11,32.14,4.94a92.36,92.36,0,0,0,11.32,2.68c22.38,3.81,34-5.59,34.48-5.85a1.65,1.65,0,0,1,.54.93,53.55,53.55,0,0,1-4.55,3c-4.27,2.47-14.08,7-31.44,4.38a88.27,88.27,0,0,1-11.1-2.05A95.24,95.24,0,0,0,809.09,961l-.15,2.71s-20.59,0-29.62-3.52C779,956,780.22,954.18,780.22,954.18Z"/><path class="cls-36" d="M779.28,957.78c12.14,3,25.54,3.43,29.8,3.57l-.14,2.38s-20.59,0-29.62-3.52A16.88,16.88,0,0,1,779.28,957.78Z"/><path class="cls-37" d="M831.85,532.91s-26.16,7.12-63.72,6a505.81,505.81,0,0,1-72.4-8s-21.13,31.51,3.44,105.55C707.33,661,678.43,780,678.43,780s54.23,26.94,112.11,22c31-2.67,46.75-9.66,46.75-9.66s6.87-118.61,6.74-138.74-11.52-117.93-11.52-117.93"/><path class="cls-17" d="M764.5,305.94s3.92,37.38,4.9,40.61l-3.61-.39,4.85,3.13c-12.49,13.56-15.95,14.27-34.23,11.15l-12.24-8.79s-6.85-.61-6.07-3.38c3.21-11.46-4.23-38.14-4.23-38.14"/><g id="freepik--character-2--inject-2"><path class="cls-38" d="M818.93,472.9c-.19,4.09,3.32,27.43,4.81,31.27.75,1.92,1.56,3.83,2.39,5.72,1,6.35-1.29,22.62,3.38,31.73-7.44,5.06-8.35,2.39-16.7,5.78a176.48,176.48,0,0,1-33.67,9.8,172.43,172.43,0,0,1-35.56,3,121.89,121.89,0,0,1-33.69-5.16c-3.46-1.09-18.43-2.92-21.72-4.41,4-30.19,15-46.4,15-46.4l2.39-7.26L691.28,363.88,709,353.66l12.38-5.36,2.38.33c6,6.75,13.35,10.36,22.51,10a60.2,60.2,0,0,0,8.33-.94,24.53,24.53,0,0,0,17.53-13.38l.35.16h6.25l28.68,10s24.43,64.91,25.15,74.71C833,435.94,821.09,426.72,818.93,472.9Z"/></g><path class="cls-17" d="M719.16,356.29s-25.5,6.64-31.48,25c-8.13,25-14,126.68,29.89,106.64,34.57-15.76,18.73-100.82,18.73-100.82L718.62,343"/><path class="cls-38" d="M691.28,363.88s-26.59,22.42-15.95,71.56c0,0,20.58,2.89,36.31-1.46s10.51-58.87,10.51-58.87L719.08,353l-5.1-1.25Z"/><path class="cls-17" d="M802.15,458.28c-1.62-2.4-2-2.41-2.14-2.15,0-.38-.19-1.15-.55-2.62,0-.12-.05-.24-.08-.36-2.24-3.12-3.56-5.06-3.56-5.06l2-3.28a168,168,0,0,1-1.23-30.2c.75-21.41-24.66-50.91-14-69.05l32.59,10.05a69.72,69.72,0,0,1,11.09,9c3.74,5.75.36,11.74,2.58,17.88l24.61,87.38c4.34,3.1,22,24.05,30,36.09l26.94,43c-9.54,12.11-7.9,2.28-14.17,11.36-12.63-6.46-44.36-37.91-55.95-46.86-18.94-13.43-25-56.29-25-56.29L823.16,497a7.25,7.25,0,0,1-1.57-1.45c-7-6.94-4.79-19.6-11.55-28.21-.73,1.32-10.81-7.6-13-8.05C798.32,459,802.26,458.45,802.15,458.28Z"/><path class="cls-38" d="M780.94,345.24s39.73,8.06,44.1,14.82,16.11,24.24,21.54,48.14c0,0-54.28,18-70.75,19.06S780.94,345.24,780.94,345.24Z"/><path class="cls-39" d="M668.69,313.75c2.47-1.75,4.91-3.94,5.91-6.84a14.44,14.44,0,0,0,.43-6.37,4,4,0,0,0,.45-1c1.65-5.12-2.5-11.13.21-15.81,2.48-4.26,9.73-4,12-8.4,1.81-3.39-.24-6.39.47-9.38s5-5.61,8.12-5.26l24,34.38c2.19,11.53,4.47,17.6,1.87,24.44-1.68,3.59,3.33,6.42,2.49,10.28-.56,3.92.43,8.34,3.68,10.65-14.47,1.12-34.78-2.73-47.25-9.9l-3.52-2c5.25-2.75,9.07-12.3,9.07-12.3-2.47,3.73-7.13,9.1-10.83,11.2a15.14,15.14,0,0,1-2-.78c-2.6-.49-9.45-5.54-13.69-8.82A26.85,26.85,0,0,0,668.69,313.75Z"/><path class="cls-17" d="M908.49,590.19a30.88,30.88,0,0,0,1.63,3.07,3.61,3.61,0,0,0,3.26,1,20.05,20.05,0,0,0,2.91-.9c.79-.53.29-.12,1.05.46l1,.76a2.25,2.25,0,0,0,1.3.49,9.77,9.77,0,0,0,2.9-.35c1.58-.52,2.94-3.67,2.94-3.67l.9,1a2.76,2.76,0,0,0,3.34.37l.65-.31a7,7,0,0,0,1.57-1.46,2.33,2.33,0,0,1,2.94-.61,3.56,3.56,0,0,0,2.46.58,7,7,0,0,0,4.22-6.26,3.08,3.08,0,0,0,0-.53A107.77,107.77,0,0,0,938,569.89c-.11-.32-.48-5.75-.48-6.07-2.13-1.55-3.37,1.51-4.56-.93-1.1-2.26-1.87-4.65-2.83-7a2.3,2.3,0,0,0-1.81-1.37h0a2.34,2.34,0,0,1-.65-.2L912.3,549c-.82-.39-6.3-6.43-7.12-6-9,4.19-12.56,12.33-12.71,12.08s5.08,5.82,4.92,8.62C897.39,563.61,902.18,579.17,908.49,590.19Z"/><path class="cls-39" d="M830.82,302.83a5.41,5.41,0,0,1-.07,3.66,5.05,5.05,0,0,1-3,3,5.29,5.29,0,0,1-5.29-1.43,4.62,4.62,0,0,1-1.24-3,9.77,9.77,0,0,1,.58-3.59c.78-2.4,2.35-5,2.13-8.15a11.28,11.28,0,0,0-4.36-8.19,13.48,13.48,0,0,0-4.48-2.32,20,20,0,0,0-5.16-.73,28.91,28.91,0,0,1-5-.5,6.73,6.73,0,0,1-3.87-2.37,7.73,7.73,0,0,1-1.38-4.2,15.46,15.46,0,0,1,.39-4.39,32.93,32.93,0,0,0,1.34-8.3,12.45,12.45,0,0,0-2.55-6.93,16.06,16.06,0,0,0-4.7-3.89,30.81,30.81,0,0,1-3.74-2.55,9.5,9.5,0,0,1-2.31-3l0,.25a3,3,0,0,0,.29.69,7.23,7.23,0,0,0,1.79,2.29,29.06,29.06,0,0,0,3.71,2.7,16,16,0,0,1,4.47,3.87,11.85,11.85,0,0,1,2.33,6.57,32.52,32.52,0,0,1-1.4,8.12,15.7,15.7,0,0,0-.44,4.58,8.57,8.57,0,0,0,1.52,4.61,7.3,7.3,0,0,0,4.35,2.7,28.55,28.55,0,0,0,5.14.54,19.12,19.12,0,0,1,4.94.69,12.54,12.54,0,0,1,4.22,2.17,10.58,10.58,0,0,1,4.11,7.61c.23,2.87-1.22,5.37-2,7.9a10,10,0,0,0-.56,3.84,5.11,5.11,0,0,0,1.44,3.31,5.74,5.74,0,0,0,5.8,1.48,5.42,5.42,0,0,0,3.34-6.21A3.05,3.05,0,0,0,830.82,302.83Z"/><path class="cls-40" d="M651.76,390.53a.22.22,0,0,1,0,.08l-.24.07Z"/><path class="cls-38" d="M813.2,370.15s18.88,50.59,18.66,57.89c-.24,7.8.8,17.11-4.67,24s-6.29,20.52-6.75,25,.28,29.27,6,42.87S788,494.44,788,494.44L783.68,429Z"/><path class="cls-38" d="M819.78,481.15l15.46,60.47S808,554.51,776.1,557.74s-81.77-9.37-81.77-9.37l11.29-53.73Z"/><path class="cls-17" d="M736.22,357.24C759.17,367,784.87,346,784.87,346s-15.6-5.76-16.29-7.32-1.8-16.89-1.8-16.89l-25.58,6.59-17.88,1.1s-1.1,12.76-1.45,14.44.71,4.58.71,4.58"/><path class="cls-39" d="M772.56,234.19a26.44,26.44,0,0,1,7.91,3.49,25.21,25.21,0,0,1,2.18,1.62A30.14,30.14,0,0,1,795,266.21c-.47,5-2,10.63,1.4,14.39s10.13,3.54,13.37,7.37c3.81,4.5.47,11.28,1.78,16.93,1.46,5.44,7,9,13,8.4a51.15,51.15,0,0,1-24,9.85L794,315.22a7.81,7.81,0,0,1-.66,10.07,20,20,0,0,1-10.06,5.6c-8.68,1.86-28.39-.7-53.47-7.61q17.3-45.24,34.57-90.49"/><path class="cls-39" d="M677.09,270.76c1.24-3.5,3.33-6.75,4.2-10.33,1.87-7.71-2-16.34,2.06-23.3,2.91-5,9-7.42,14.75-9.13s11.94-3.14,16.26-7.1c3.18-2.9,5-6.88,8.18-9.8,4.5-4.17,11.1-5.61,17.36-6,6.45-.64,12.64-1.66,18.53.74s10.46,9.44,11.73,15.41c.42,2.9,0,5.93,1,8.7,1,3.06,3.59,5.42,5.15,8.28a14.88,14.88,0,0,1-4.36,18.51L727.1,310.29c-9.32,3.35-31.72-.42-38.82-6.76S674,279.57,677.09,270.76Z"/><path class="cls-17" d="M695,286.83l.27-.68c1.9-2.25,5.8-3.9,8.15-1.23.84,1.2,2,2.51,2.86,3.71.87,1.38,2.3,4.23,3.54,5.36,0,0,4.49-16.26,3.67-19.77s-13.58-9.46-8.17-15.59c0,0,5.46-7.73,7.94-12.18.64-.49,1.28-1,1.94-1.43a5.4,5.4,0,0,0,1.12-.05c0-.15-.18-.28-.27-.51l.23-.16a7.89,7.89,0,0,0,2.38-.31c-.23-.15-.67-.27-.71-.46a10.57,10.57,0,0,0,2.44-.42c-.23-.15-.71-.46-.74-.64,1.08.19,1.63-.29,2.44-.43a1.38,1.38,0,0,1-.54-.67,5.54,5.54,0,0,0,2.47-.24c-.23-.15-.5-.49-.74-.64,1.08.19,1.63-.29,2.44-.43.19,0-.38-.27-.49-.45l.08,0a8,8,0,0,0,2-.18c0-.16-.36-.27-.46-.42l.12,0a7,7,0,0,0,2.47-.48l-.34-.3.35-.11a3.17,3.17,0,0,0,1.75-.28l-.29-.2.68-.2a3.7,3.7,0,0,0,2.19-.43.46.46,0,0,1-.28-.12l.76-.21a8.12,8.12,0,0,0,1.72-.25l-.17-.13,1-.24a3.46,3.46,0,0,0,1.88-.4c1.25-.25,2.5-.48,3.75-.67,9.39-1.46,19.84-2.39,28.06,3.26A91.64,91.64,0,0,1,778.78,252c4.3,8.59,6.87,23,7.19,26,.27,2.61,2.73,7.35,3.52,10,4.25,14.29-4.5,31.14-14.41,41.22-4,4-8.05,3.49-12.63,3.66-9.35.37-24.05-2.78-33.5-9.48l-13.33-8.52L714,311.92c-.87,6.17-9.47,3.8-11.54-4C695.38,301.93,692.61,291.59,695,286.83Z"/><path class="cls-19" d="M768.64,298.18a5.59,5.59,0,0,1-4.81.59c-.33-.12-1.3.23-.83.4a7.82,7.82,0,0,0,6.52-.9c.16-.12.1-.24-.13-.27a1.18,1.18,0,0,0-.75.18"/><path class="cls-19" d="M762.34,298.92a8.91,8.91,0,0,0-3.05-.16.74.74,0,0,0-.43.22c-.07.09-.07.19,0,.23a3.41,3.41,0,0,0,1.68.05.61.61,0,0,0,.46-.27c.06-.15-.12-.2-.25-.18a2.57,2.57,0,0,1-1.35,0c-.13.15-.25.3-.38.44a7.86,7.86,0,0,1,2.74.15.67.67,0,0,0,.52-.16c.1-.08.19-.24,0-.28"/><path class="cls-19" d="M758.35,299.78a4.23,4.23,0,0,1-3.41-.78c-1.12-1.11-.69-3.41.64-4.49.15-.12,0-.22-.13-.22a1,1,0,0,0-.61.24,4.08,4.08,0,0,0-1.25,4c.38,1.08,1.66,1.66,3.14,1.72a6.69,6.69,0,0,0,1.34-.07c.18,0,.49-.14.56-.29s-.11-.18-.28-.15"/><path class="cls-19" d="M770.7,297.21a.15.15,0,0,1,.11-.24,1.49,1.49,0,0,0,.87-.46l.38.31a4.24,4.24,0,0,0-1.74,1,.37.37,0,0,1-.39,0c-.09,0-.2-.17-.1-.27"/><path class="cls-19" d="M769.83,297.53a5,5,0,0,1,1.95-1.07.39.39,0,0,1,.34.08.15.15,0,0,1,0,.23"/><path class="cls-19" d="M773.19,296.91a2.47,2.47,0,0,0,1.8-1.74,3.24,3.24,0,0,0-1.58-3.44c-.13-.06-.09-.19,0-.24a.44.44,0,0,1,.43.05,3.61,3.61,0,0,1,1.82,2.82,2.65,2.65,0,0,1-1.36,2.55,2.83,2.83,0,0,1-.83.33.42.42,0,0,1-.41-.11c-.09-.12,0-.2.12-.22"/><path d="M708.25,298a44.32,44.32,0,0,0-5.17-6.26,14.42,14.42,0,0,0-3.39-2.58,4.4,4.4,0,0,0-1.72-.55,1,1,0,0,0-.38,0c-.33.1-.44.57-.53.87a10.39,10.39,0,0,0,.77,7.3c.14.32.83.12.7-.19a11.15,11.15,0,0,1-1.08-5.65,5.47,5.47,0,0,1,.55-2l-.27.2c-.19,0,0,0,0,0s-.05,0,0,0l.17,0a4.09,4.09,0,0,1,1.09.36,15.46,15.46,0,0,1,4.6,3.76,50.91,50.91,0,0,1,4,5c.19.27.85,0,.63-.31Z"/><path class="cls-39" d="M785.06,263.64c-4.29-3-7.34-4-15.77-5.44l-.07.18c-.44,1-.19.44-.63,1.44-.33.77-.66,1.53-1,2.29,2.77.45,4.86.53,6.59,1,3.27.82,7.14,1.38,10.11,3.08C784.54,265.3,784.79,264.47,785.06,263.64Z"/><path class="cls-39" d="M744.75,261.6c.62.9.27.4.89,1.31.47.68.93,1.37,1.4,2.06-2.64,1-4.68,1.43-6.3,2.17-3.21,1.48-7.13,2.8-9.74,5.23-1.25,1.16-3,2.87-3.17,4.77,0,.52.27,2-.45,2.17-.29.06-.68-1.3-.72-1.44-.77-2.75.55-5,2.59-7.19,4.15-4.43,6.73-6,15.4-9.24"/><path d="M708,298.91c-1.28.24-2.51.91-1.89,2.37.55,1.28,1.68,2.34,1.93,3.75.08.47,0,1.44-.59,1.56s-1.65-.73-2.09-1.18a8,8,0,0,1-2.29-4.53c-.23-1.74-.4-4.43,1.27-5.54.39-.26-.18-.54-.47-.34-1.62,1.08-1.72,3.4-1.59,5.15a8.57,8.57,0,0,0,1.78,4.81c.73,1,2.72,3,4.07,1.87s.39-2.88-.3-4a7.6,7.6,0,0,1-1.16-2.15c-.21-.92.76-1.13,1.47-1.27.44-.08.3-.58-.14-.5Z"/><path class="cls-39" d="M776.72,271.13a3.2,3.2,0,0,1,3.47,0,2.84,2.84,0,0,1,.9,4.13,3,3,0,0,1-3.21,1.14,3.15,3.15,0,0,1-2.21-3.36,2.81,2.81,0,0,1,1.05-1.91"/><path class="cls-39" d="M767.44,277.07s5.09-5.5,8-6.32a12.13,12.13,0,0,1,10.73,2.3s-6.44-2.51-9.46-1.59S767.44,277.07,767.44,277.07Z"/><path class="cls-39" d="M742.45,277.33a3.21,3.21,0,0,0-3.26,1.18,3,3,0,0,0-.66,1.54,3.05,3.05,0,0,0,1.21,2.65,3,3,0,0,0,3.42,0,3.16,3.16,0,0,0,.93-3.91,2.83,2.83,0,0,0-1.64-1.45"/><path class="cls-39" d="M750.5,280.12s-7.07-3.37-10.33-3.11c-5.88.46-10.7,4.61-12,7,0,0,7.6-5.7,11-5.89S750.5,280.12,750.5,280.12Z"/><path class="cls-18" d="M768.1,332.59a59.16,59.16,0,0,1-31.82-5.35s8.83,13.81,32.17,9.48Z"/><path class="cls-39" d="M711.91,224.74c2.79-2.05,6.53-2.3,10-2.37a191.94,191.94,0,0,1,44.79,4.37c.68,3.44-2.37,6.71-5.77,7.83s-7.1.73-10.67.76-7.49.66-9.93,3.26-2.87,7-5.33,9.87c-4.22,5-13,3.91-17.18,8.88-3.16,3.76-2.35,9.26-3.42,14.09-2.08,9.39-11.26,12.87-20.82,10.88a16.42,16.42,0,0,1-2.28-.64c5.16-16.67,10.09-30.81,15.27-47.48C707.71,230.65,709,226.92,711.91,224.74Z"/><path class="cls-39" d="M677.37,295.59c0-.12,0-.24,0-.36a.94.94,0,0,0-.23-.48c-1.51-4.36-4.55-9.82-5.33-15.12-1.11-7.45,10.4-16.64,10.4-16.64L686,288.83s-8.56,15.16-8.06,10.59A9.9,9.9,0,0,0,677.37,295.59Z"/><path class="cls-39" d="M662.53,303a5.15,5.15,0,0,0,1.06,3.29,4.79,4.79,0,0,0,3.55,1.88,5,5,0,0,0,4.38-2.73,4.42,4.42,0,0,0,.31-3,9.41,9.41,0,0,0-1.51-3.08c-1.36-2-3.49-3.87-4.15-6.77a10.62,10.62,0,0,1,1.7-8.58,12.6,12.6,0,0,1,3.4-3.31,19,19,0,0,1,4.45-2.07,26.77,26.77,0,0,0,4.36-1.82,6.19,6.19,0,0,0,2.84-3.19,7.28,7.28,0,0,0,.11-4.16,14.48,14.48,0,0,0-1.56-3.85,30.75,30.75,0,0,1-3.47-7.13,11.71,11.71,0,0,1,.41-7,15.24,15.24,0,0,1,3.16-4.79,29.56,29.56,0,0,0,2.69-3.32,8.92,8.92,0,0,0,1.26-3.34l0,.24a3.33,3.33,0,0,1-.07.7,6.69,6.69,0,0,1-1,2.55,27.5,27.5,0,0,1-2.61,3.46,15,15,0,0,0-3,4.7,11.17,11.17,0,0,0-.31,6.57,30.31,30.31,0,0,0,3.49,6.94,14.92,14.92,0,0,1,1.64,4,8,8,0,0,1-.11,4.58,6.91,6.91,0,0,1-3.18,3.62,27.19,27.19,0,0,1-4.49,1.89,18,18,0,0,0-4.27,2,11.88,11.88,0,0,0-3.21,3.11,10,10,0,0,0-1.62,8c.57,2.65,2.56,4.51,4,6.57a9.58,9.58,0,0,1,1.56,3.31,4.88,4.88,0,0,1-.39,3.38,5.44,5.44,0,0,1-4.83,2.92,5.12,5.12,0,0,1-4.72-4.69A3.22,3.22,0,0,1,662.53,303Z"/><path class="cls-41" d="M815.32,380.88c-.74,11.37,5.73,21.26,10.53,31.06a53.54,53.54,0,0,1,5.49,16.48,42.79,42.79,0,0,1-1.6,18.44,45.33,45.33,0,0,1-4.41,9.6,48.45,48.45,0,0,0-4.74,9.33c-.17.52,1.18.35,1.34-.14,1.94-5.89,6.11-10.73,8.32-16.51A43.33,43.33,0,0,0,833,431.46a47.24,47.24,0,0,0-4.44-17c-2.36-5.2-5.23-10.15-7.62-15.34-2.66-5.78-4.69-11.93-4.27-18.38,0-.6-1.31-.36-1.34.14Z"/><path class="cls-42" d="M766.58,305.93c-4.4.8-13.59,5.49-15.21,7.71,0,0,5.89,5.49,16.1,3.64s11-8.57,11-8.57S772.18,304.91,766.58,305.93Z"/><path class="cls-29" d="M755.15,310.82s5.15-1.41,9.33-2.17,9.5-1.25,9.5-1.25,0-3.52-7.52-2.15S755.15,310.82,755.15,310.82Z"/><path class="cls-25" d="M767.21,315.77c-4.92.13-10.33-3.52-15.84-2.13,0,0,4.91,9,16.91,6.81s10.23-11.74,10.23-11.74C772.87,309.35,771.85,314.17,767.21,315.77Z"/><path class="cls-25" d="M771.33,302.38c-2.56.26-4,1.59-5.07,1.79s-2.88-.56-5.37.1c-2.32.62-11.17,8.73-9.91,9.35s8.17-5.42,15.76-6.79,11.15,2.75,12.12,1.73S773.72,302.14,771.33,302.38Z"/><path class="cls-40" d="M657,423.8h.16l-.09-.39Z"/><path class="cls-43" d="M817.38,451.68c.22.56,0,.23,0,0Z"/><path class="cls-43" d="M815.22,455.5c-.25.13-.4.23-.37.26C814.85,455.59,815,455.51,815.22,455.5Z"/><path class="cls-18" d="M761.81,255.88s-6.53,4.84,1.41,9.46C763.22,265.34,759.27,259.05,761.81,255.88Z"/><path class="cls-18" d="M752.79,257.94s7.85,2.15,2.12,9.33C754.91,267.27,756.31,260,752.79,257.94Z"/><path class="cls-17" d="M929.13,571.17c.55,0,3.89-.68,4.41-.41a2.91,2.91,0,0,1,.42.25,45.81,45.81,0,0,0,12.06,6.5c4.77,1.42,7.11-.51,8.19-2a1.44,1.44,0,0,0-.35-2l-.21-.12a75.52,75.52,0,0,1-8.51-4.44c-1.31-.95-6.58-12.62-15.88-14C927.48,559.15,928.65,566.57,929.13,571.17Z"/><path class="cls-44" d="M917.46,573.32a26.55,26.55,0,0,0,2.88-3.78,24.63,24.63,0,0,0,1.67-4.48A10.53,10.53,0,0,1,917.46,573.32Z"/><path class="cls-44" d="M933.54,588.44a1.3,1.3,0,0,1-.22-.38l-.53-1.14-1.9-4.18-2.77-6.25a34.24,34.24,0,0,1-1.55-3.75,5.11,5.11,0,0,1,.35-4.44,3.33,3.33,0,0,1,1.84-1.32,4.31,4.31,0,0,1,2.11,0,5.76,5.76,0,0,1,3.11,2.42,24.14,24.14,0,0,1,1.76,3.2l1.38,2.83,2,4.14.53,1.14c.11.25.18.39.15.41l-.24-.37-.58-1.11-2.11-4.05-1.39-2.81a25,25,0,0,0-1.76-3.12,5.39,5.39,0,0,0-2.93-2.27,3.17,3.17,0,0,0-3.54,1.1,3.87,3.87,0,0,0-.6,2,6.24,6.24,0,0,0,.31,2.06c.42,1.31,1,2.53,1.52,3.72l2.65,6.27,1.78,4.24.47,1.17Z"/><path class="cls-44" d="M925.43,590.29a3.27,3.27,0,0,1-.42-.86L924,587c-.8-2.1-1.84-5-2.83-8.33a25.29,25.29,0,0,1-.67-2.45,5.53,5.53,0,0,1,.07-2.46,3.77,3.77,0,0,1,2.89-2.62,3,3,0,0,1,2.39.69,3.46,3.46,0,0,1,.49.52c.08.15.13.22.1.23a6.67,6.67,0,0,0-.68-.62,3.15,3.15,0,0,0-2.3-.46,3.46,3.46,0,0,0-2.56,2.44,5,5,0,0,0,0,2.27c.14.79.41,1.58.64,2.4,1,3.29,2,6.22,2.73,8.34l.88,2.51A5.48,5.48,0,0,1,925.43,590.29Z"/><path class="cls-44" d="M917.43,591.19a6,6,0,0,1-.35-.92l-.77-2.53L914,579.35a18.6,18.6,0,0,1-.59-2.45,4.17,4.17,0,0,1,.26-2.34,2.63,2.63,0,0,1,1.69-1.46,3.17,3.17,0,0,1,2,.14,4.17,4.17,0,0,1,2.07,1.81,2.6,2.6,0,0,1,.42.91s-.19-.3-.55-.81a4.37,4.37,0,0,0-2-1.62,2.91,2.91,0,0,0-1.75-.07,2.13,2.13,0,0,0-1.4,1.28,3.9,3.9,0,0,0-.22,2.14,20.34,20.34,0,0,0,.61,2.29c.89,3.3,1.69,6.26,2.23,8.42l.62,2.56A3.63,3.63,0,0,1,917.43,591.19Z"/><path class="cls-44" d="M909.59,590.83a14.68,14.68,0,0,1-.17-2.73c0-1.69,0-4-.06-6.61v-1.88a7.33,7.33,0,0,1,.13-1.81,2.48,2.48,0,0,1,.88-1.42,1.64,1.64,0,0,1,1.43-.33,2.42,2.42,0,0,1,1.55,1.35,1.08,1.08,0,0,1,.14.72,5.61,5.61,0,0,0-.29-.65,2.42,2.42,0,0,0-1.45-1.13,1.29,1.29,0,0,0-1.16.31,2.3,2.3,0,0,0-.72,1.25,7,7,0,0,0-.09,1.71v1.88c0,2.57,0,4.91,0,6.61A17.78,17.78,0,0,1,909.59,590.83Z"/><path class="cls-44" d="M906.57,554.11a20.4,20.4,0,0,0-4.92,2.81,19.67,19.67,0,0,0-3.25,4.83C899.17,557.23,902.2,554.4,906.57,554.11Z"/><path class="cls-18" d="M893.49,572.56a11,11,0,0,1,5,2c4.79,3.21,7.83,8.53,9.4,14.08s1.82,11.36,2.05,17.12l.39,9.48c.07,1.85-.33,4.3-2.16,4.53-2,.24-2.88-2.43-3-4.44-.2-5.27.06-10.6-1.08-15.75-1-4.42-2.21-11.47-4.16-15.55-2-4.27-4.79-5.63-6.83-9.91"/><path class="cls-18" d="M899.11,594.65c.82-5.7,3.13-11.39,7.45-15.2a12.36,12.36,0,0,1,3.24-2.13,25.6,25.6,0,0,0-.21,5.55,25.26,25.26,0,0,0-3.24,6.17c-1.38,4.3-1.69,11.45-2.06,16-.44,5.25.52,10.51,1,15.76.19,2-.33,4.76-2.34,4.79-1.85,0-2.58-2.36-2.75-4.2l-.87-9.45C898.82,606.16,898.29,600.36,899.11,594.65Z"/><path class="cls-18" d="M882.37,668.3c.76-10.71,2.72-28.29,4.12-38.93a52.18,52.18,0,0,1,2.2-10.59c.24-.68-.77-4.83-.24-5.31s2.94-2.56,3.81-2.73c22.39-4.31,42.12-4.65,64.89-5.67,0,0,.61-.13,1.45,1.09a5.67,5.67,0,0,0-.14,2.17c.28,2.38.62,4.75,1,7.11.14,10.07,3.7,19.93,4.77,30,.94,8.77,2.95,19.77,2.36,25.06a50.36,50.36,0,0,1-9.34,1.28c-17.94,1.26-33,4.28-51,3.4-6-.29-16.11,3.25-21-.19a6.86,6.86,0,0,1-2.64-3A8.56,8.56,0,0,1,882.37,668.3Z"/><path class="cls-17" d="M734.64,304c1.36,3.29-.9,12.81-.9,12.81s9,20.67,9.68,25.3c.16,1.15-3.75,6.05-4,9.4-.92,10.21.06,14.34.06,14.34l-22.25-8.53,1-9.77-7.44-17.44-6.4-21L712.2,292a1.56,1.56,0,0,1,.37.1,2.12,2.12,0,0,1,1.3,2.71l3.29-6.08c4.51,1.25,2.19,10.26,2.19,10.26l3.65-8.23c4.19,1.84,2.58,8.25,2.58,8.25L723,310.46s2,6.53,3.31,8.47,2.43,4.06,2.43,4.06l-1.17-7.64,3.61-15.41S733.28,300.7,734.64,304Z"/><path class="cls-18" d="M740,357.78a11,11,0,0,1,.83-4.56c.46-1.31,1.34-2.46,1.85-3.76a21.22,21.22,0,0,0,1.5-7.91,11,11,0,0,0-.67-3.3c-.66-2.07-1.47-4.1-2.28-6.11-1.74-4.29-3.62-8.53-5.55-12.75a13,13,0,0,1-1.26-2.74s.16-.7.2-.93c.21-1,.4-2,.56-3,.43-2.61,1-5.58.36-8.2-.43-1.9-1.92-4.22-3.82-4.95a.55.55,0,0,0-.68.31l-2.26,9.63-1.21,5.16a6.58,6.58,0,0,0,.16,2.64l.87,5.69.82-.3c-.82-1.49-1.77-2.89-2.62-4.36a27.21,27.21,0,0,1-1.81-4.32,26,26,0,0,1-1.19-3.52,3,3,0,0,1,.14-1.19c.83-3.76,1.92-7.53,2.48-11.34.42-2.82,0-6.2-2.85-7.56a.57.57,0,0,0-.73.19l-3.65,8.23H720c.79-3.13,1.64-9.24-2.38-10.49a.59.59,0,0,0-.65.23l-3.29,6.08h.83a2.38,2.38,0,0,0-1.84-3,.6.6,0,0,0-.66.23l-3.91,8.28-2.65,5.6a9,9,0,0,0-1.07,2.37,10.37,10.37,0,0,0,.34,2.4l.37,2.63c0,.36.91.16.86-.22-.23-1.58-.5-3.16-.68-4.75,0-.26,0-.24,0-.17a1.49,1.49,0,0,1,.17-.36c.27-.52.5-1.06.75-1.59l5.17-10.94,1.5-3.18-.66.24a2,2,0,0,1,1.49,2.58c-.1.4.72.22.84,0l3.29-6.07-.66.23c3.7,1.15,2.74,7.18,2,10-.1.38.72.25.83,0l3.65-8.23-.74.19c4.27,2,2.58,7.62,1.79,11.21l-1.62,7.3a4.05,4.05,0,0,0-.19,1.19,15.45,15.45,0,0,0,1,3.14,35.83,35.83,0,0,0,1.86,4.59c.85,1.64,2,3.15,2.83,4.77.16.29.87,0,.82-.3l-.73-4.78a10,10,0,0,1-.34-3.17c.85-3.72,1.74-7.44,2.61-11.17l.91-3.85-.68.31c1.87.72,3.25,3.21,3.55,5.06a24.48,24.48,0,0,1-.43,7.49c-.16,1-.35,2-.56,3a4.06,4.06,0,0,0-.23,1.13,9.44,9.44,0,0,0,1,2.21c1.84,4,3.64,8.08,5.33,12.18.84,2,1.67,4.09,2.39,6.17a15.14,15.14,0,0,1,1,3.77,19.46,19.46,0,0,1-1.59,8.59c-.55,1.29-1.39,2.43-1.83,3.76a11.06,11.06,0,0,0-.74,4.48c0,.35.89.15.85-.23Z"/><path class="cls-18" d="M717.91,319.54c-.8-2.19-1.86-5.22-3-8.6l-.31-.93,0-.14.06-.15c1.18-3.11,2.29-5.89,3.13-7.84a15.52,15.52,0,0,1,1.5-3.11,14.64,14.64,0,0,1-.94,3.32c-.66,2-1.7,4.83-2.87,8v-.3a6.76,6.76,0,0,0,.31.93c1.11,3.38,2.08,6.44,2.73,8.68a16.49,16.49,0,0,1,.88,3.68A16.47,16.47,0,0,1,717.91,319.54Z"/><path class="cls-18" d="M710.72,315.31c-.74-2-1.73-4.81-2.79-8l-.06-.16.07-.15.43-1c1.47-3.25,2.85-6.18,3.88-8.29a16.21,16.21,0,0,1,1.85-3.33,16.69,16.69,0,0,1-1.28,3.59c-.89,2.17-2.21,5.11-3.65,8.39l-.44,1,0-.33c1.06,3.22,1.93,6,2.53,8.08a14.84,14.84,0,0,1,.81,3.36A14.09,14.09,0,0,1,710.72,315.31Z"/><path class="cls-17" d="M717.3,356l21.81,8.55s.72,62.56-.1,81.93c-.59,13.78-3.43,25.84-7.85,34a18.76,18.76,0,0,1-16.93,9.83h-8.7"/><path class="cls-41" d="M700.25,368.77c-.2,0-.11,0,0,0l.52.07a8.46,8.46,0,0,1,2,.69,17.2,17.2,0,0,1,6.26,6,39.78,39.78,0,0,1,3.93,7.72c.22.56,1.55.18,1.34-.36-1.67-4.25-3.85-8.57-7.23-11.72a11.84,11.84,0,0,0-5.4-3.12,4.55,4.55,0,0,0-1.27-.15c-.74,0-1.06.93-.14.9Z"/><path class="cls-45" d="M956.55,613.87a25.62,25.62,0,0,1-.7,9.31c-.74,2.76-1.76,6-4.93,6.61s-6.33.85-9.47,1.3-6.48.94-9.72,1.38a169,169,0,0,1-19.19,1.66,64.25,64.25,0,0,1-9.71-.33,6.56,6.56,0,0,1-5-3.09c-2.47-3.73-3.34-8.45-4.39-12.73-.17-.69-2.53-.09-2.35.63,1.05,4.27,1.94,8.84,4.32,12.61a7.21,7.21,0,0,0,4.5,3.46c3.11.77,6.58.65,9.76.65a162.65,162.65,0,0,0,21.48-1.7c3.65-.49,7.29-1,10.94-1.55l4.86-.67a35.45,35.45,0,0,0,5.12-.82c3.25-.92,4.75-3.39,5.76-6.45a26.13,26.13,0,0,0,1.1-10.9c-.07-.64-2.43-.16-2.35.63Z"/><rect class="cls-46" x="920.5" y="630.47" width="14.48" height="6.84" rx="3.42" transform="translate(1895.54 1204.74) rotate(176.19)"/><path class="cls-17" d="M700.12,456.31C697.07,446.58,707,408,707,408l9.83-51.64,1.44-8.52-5.21-12.2,19.28,2.87,5.83,69.39-6.85,48.46Z"/><path class="cls-18" d="M700.3,462.79c-1.67-5.46-1.42-11.45-.91-17.07a87.44,87.44,0,0,1,1.36-9.53c.07-.37-.79-.25-.86.09a85.94,85.94,0,0,0-1.38,9.84c-.5,5.56-.71,11.5.94,16.9.11.35,1,.11.85-.23Z"/><path class="cls-18" d="M1015.36,273.25c2,2.92,3.94,6,6.12,8.79a.75.75,0,0,1,.06.13.39.39,0,0,1,.58.06c1.52,1.9,4.4,2.87,5.75,4.9,1.17,1.76.51,4.17.68,6.32,1.55.2,3.69,0,5.64.12,13.14-.52,12.79-2.62,30.62-13.28,5.59-3.34,4.28-7.71,5.32-8.53C1052.1,271.7,1034.21,272.82,1015.36,273.25Z"/><path class="cls-17" d="M1081.83,256.07l2-23.41.49-26.16L1073.62,187l-18.82-8.56-21.09,1.21s-16.8,4.61-22.1,6.16-8.88,8.17-12.32,15.55-1.57,19.44-1.57,19.44a10.31,10.31,0,0,0,.47,2.64c1.18,4.84,1.62,9.08,2.58,12.68a9,9,0,0,1,0,4.94c-1.88,6.39-1.78,9.1-1.17,13a46.64,46.64,0,0,0,4,13.86c2.18,4.37,4.9,9.07,5.46,10,0,0,6.06,9.74,7.35,10.68a10.8,10.8,0,0,0,4.07,1.86c.89.07,12.52.51,12.52.51l5.4-.27a13.87,13.87,0,0,0,5.28-1.34c4.49-2.15,17.28-8.55,20.76-11.14,4.68-3.47,10-17.55,10-17.55"/><path class="cls-17" d="M1080.86,256.62c6.35,6,9.91-6.12,9.91-6.12,5.57-7.34,5.22-14.88,4.78-20s-6.12-4.81-6.12-4.81c-4.79.74-6.82,3.42-10.12,19.85"/><path class="cls-47" d="M1057.47,167.31c-9-1.2-39.14,3.33-46.85,7.2-7.36,3.69-11.17,13.58-12,27.66a36.6,36.6,0,0,0-1.17,14.94,53.3,53.3,0,0,1,3.25-18.25c1.49-3,3.76-6.38,6.86-8.27,2.65-.5,5.42-1,5.4-1,1.27-.22,2.58-.43,3.91-.63,3.76-.31,8.7-.89,13.74-1.41,11.56-.61,19,0,23.92.82a31.34,31.34,0,0,1,14,10.69c-.69,4.48-1.51,9.67-1,11.35.78,2.55,5.63,9.72,8,17.23l.63,6c0,1.21.06,4.56.11,7.49a3.83,3.83,0,0,0,2.33.37c2.64-.13,3.27-1.78,4-4.25,1.18-3.86,2.32-7.7,5.52-10.41,1.07-.9,1.61-.57,2.85-1.08,3.13-.12,3.73,2.14,3.73,2.14a18.53,18.53,0,0,1,.57-4.27h0c.93-4.25,2.38-11.76,3.91-23.18C1101.49,183.13,1073.94,169.49,1057.47,167.31Z"/><path class="cls-48" d="M1041.76,228a3.12,3.12,0,0,1,3.4,0,3,3,0,0,1,1,1.37,3.09,3.09,0,0,1-.59,2.87,2.9,2.9,0,0,1-3.3.75,3.19,3.19,0,0,1-1.76-3.64c0-.24.33-.76,1.27-1.31"/><path class="cls-48" d="M1007.57,229.88a3.14,3.14,0,0,0-3.35.78,3,3,0,0,0-.84,1.47,3.1,3.1,0,0,0,.88,2.8,2.91,2.91,0,0,0,3.36.41,3.2,3.2,0,0,0,1.38-3.8,2.82,2.82,0,0,0-1.43-1.66"/><path class="cls-48" d="M1018.07,234.17s-5.06-4.57-8.61-4.71c-5.17-.22-6.44,1-8.14,3.47,0,0,3.25-2.64,6.89-2.4C1011.69,230.77,1018.07,234.17,1018.07,234.17Z"/><path class="cls-48" d="M1034.24,231.79s7.07-4.8,10.61-5c5.17-.31,11.44,2.53,13.19,5,0,0-8.28-4.22-11.91-3.9S1034.24,231.79,1034.24,231.79Z"/><path class="cls-48" d="M1028.43,219.93l2.06,3.07c.52.79,1.66,2.61,2.19,3.38,2.06-2.32,3.66-4.81,5.08-6.16,2.84-2.7,5.59-5.67,9.16-7.33a13.14,13.14,0,0,1,5.16-1.38c.58,0,2.4.33,2.82-.36.18-.28-1.07-1.27-1.2-1.37-2.53-2-5.43-1.59-8.5-.41-6.28,2.39-11.68,6.18-16.77,10.56"/><path class="cls-48" d="M999,214.66l2.11.18a43,43,0,0,1,16.4,5.22c-.4,1.16-1.12,2-1.53,3.12-.32.89-1.28,2.15-1.6,3-2.2-1.6-3.25-2.51-4.73-3.39-2.93-1.74-6-3.61-9.4-4.16-.27,0-2.91-.7-3.17-.73A3.56,3.56,0,0,1,999,214.66Z"/><path class="cls-19" d="M1021.89,254.24a5.76,5.76,0,0,0,5.33-.62c.32-.23,1.46-.08,1,.24a8,8,0,0,1-7.25.72c-.2-.09-.17-.25.06-.34a1.27,1.27,0,0,1,.86,0"/><path class="cls-19" d="M1028.86,253.39a9.2,9.2,0,0,1,3.25-1,.72.72,0,0,1,.51.14c.1.08.13.2,0,.28a3.54,3.54,0,0,1-1.78.51.69.69,0,0,1-.57-.19c-.11-.15.07-.27.22-.27a2.88,2.88,0,0,0,1.44-.42l.52.41a8.34,8.34,0,0,0-2.9.92.72.72,0,0,1-.61,0c-.12-.07-.26-.23-.08-.33"/><path class="cls-19" d="M1033.38,253.3a4.51,4.51,0,0,0,3.46-1.83c.91-1.6-.13-4-1.84-4.89-.19-.1-.1-.24.08-.29a1.05,1.05,0,0,1,.72.12,4.75,4.75,0,0,1,2.39,4.19c-.14,1.37-1.36,2.38-2.93,2.86a7.21,7.21,0,0,1-1.47.28c-.2,0-.57,0-.67-.18s.07-.24.26-.26"/><path class="cls-19" d="M1019.42,253.67a.17.17,0,0,0-.18-.25,1.51,1.51,0,0,1-1-.29l-.33.46a4.45,4.45,0,0,1,2.12.65.37.37,0,0,0,.43-.09c.08-.08.16-.25,0-.33"/><path class="cls-19" d="M1020.44,253.82a5.08,5.08,0,0,0-2.37-.73.45.45,0,0,0-.35.19.18.18,0,0,0,0,.27"/><path class="cls-19" d="M1016.67,254a2.72,2.72,0,0,1-2.39-1.54,4.06,4.06,0,0,1,.81-4.42.17.17,0,0,0-.08-.29.5.5,0,0,0-.45.18,4.51,4.51,0,0,0-1.22,3.78,3.12,3.12,0,0,0,2.13,2.6,3.18,3.18,0,0,0,1,.16c.13,0,.36-.08.42-.24s-.07-.24-.19-.23"/><path class="cls-49" d="M1084.25,241.12c4.32-10.52,7.48-10.63,7.48-10.63s2.15,2.4,1.16,7.27"/><path class="cls-49" d="M1085.89,242.05c2.83-.32.72,5,1.52,6.23s1.79-2.08,2.09-6.07c0,0-.06-5.39-2.75-6.34"/><path class="cls-50" d="M981.63,422.62c-.89-7.17-1.62-14.36-2-21.58-.31-5.43-.48-10.87-.82-16.3q-.39-6.09-1-12.17c-.06-.59-1.9-.2-1.83.49,1.17,12.11,1.33,24.28,2.39,36.4.39,4.56.9,9.11,1.46,13.65.08.59,1.91.18,1.83-.49Z"/><path class="cls-51" d="M1021.7,256.46a2.18,2.18,0,0,1-.62,2.62c-.1.07-.24.22-.07.3a.61.61,0,0,0,.54-.07,2.53,2.53,0,0,0,.92-3.06c-.07-.15-.3-.12-.43-.09s-.4.15-.34.3Z"/><path class="cls-51" d="M1020.29,256.84a6.43,6.43,0,0,1-1.63,3.14c-.11.11-.09.24.08.28a.63.63,0,0,0,.54-.15,6.87,6.87,0,0,0,1.78-3.36c.06-.3-.71-.18-.77.09Z"/><path class="cls-51" d="M1018.21,257.71a10.74,10.74,0,0,1-1.92,3.47.19.19,0,0,0,.09.33.55.55,0,0,0,.54-.14,11.68,11.68,0,0,0,2.07-3.73c.06-.18-.24-.23-.35-.22a.49.49,0,0,0-.43.29Z"/><path class="cls-51" d="M1015.68,259.35a3.44,3.44,0,0,1-1.54,3.19c-.13.08-.09.17.05.19a.94.94,0,0,0,.54-.15,3.69,3.69,0,0,0,1.72-3.44c0-.17-.79,0-.77.21Z"/><path class="cls-51" d="M1013.55,260.31c-.63.89-1.28,1.78-1.94,2.64-.11.15.09.23.21.23a.63.63,0,0,0,.51-.21c.66-.87,1.31-1.75,1.94-2.64.1-.15-.09-.23-.21-.23a.61.61,0,0,0-.51.21Z"/><path class="cls-51" d="M1026.71,256.29a2.69,2.69,0,0,0,1.28,2.35.65.65,0,0,0,.51,0s.35-.18.21-.27a2.54,2.54,0,0,1-1.23-2.27c0-.17-.75-.06-.77.21Z"/><path class="cls-51" d="M1028.8,256.4a7.67,7.67,0,0,0,2.1,3.05c.11.1.37,0,.49,0s.34-.15.23-.25a7.46,7.46,0,0,1-2-3c-.08-.21-.84,0-.77.2Z"/><path class="cls-51" d="M1031.28,256.57c.75,1.66,1.66,3.46,3.54,4a.62.62,0,0,0,.54-.14c.12-.12.08-.24-.07-.28-1.72-.52-2.56-2.31-3.25-3.81-.12-.27-.87,0-.76.21Z"/><path class="cls-51" d="M1034.3,257.54a3.75,3.75,0,0,0,2.51,2.27.86.86,0,0,0,.54-.1c.07,0,.26-.14.09-.18a3.61,3.61,0,0,1-2.37-2.2c0-.11-.34,0-.41,0s-.4.11-.36.21Z"/><path class="cls-51" d="M1036.88,257.46a4.42,4.42,0,0,0,3.35,3.31.7.7,0,0,0,.54-.15c.13-.1.09-.19,0-.22a4.15,4.15,0,0,1-3.07-3.14c-.05-.22-.82,0-.77.2Z"/><path class="cls-51" d="M1039.55,258c1.16,1.65,2.61,3.31,4.71,3.61a.56.56,0,0,0,.5-.22c.09-.18-.07-.25-.22-.27-1.9-.27-3.25-2-4.28-3.43-.17-.25-.91,0-.71.31Z"/><path class="cls-17" d="M1208.91,304.88c-.44-4.58-4.41-15-2.35-16s4.65-.94,6.88,2.07,2.21,12.63,6.14,14c2.84,1,4-2.11,4-2.11s6.49-17.3,7.91-23.65,5-14.1,6.85-13.18,2.63,2.42,1.44,7.68-4.78,16-3.82,16.78,2.2-.75,2.92-3.8,5.81-19.69,7.6-20.21a3,3,0,0,1,3.76,3h0a11,11,0,0,1-.93,4.67c-2.45,5.64-6.48,16.22-7.3,20.46a.27.27,0,0,0,.51.18c1-1.86,3.73-8.74,5.71-13.95l1.8-6a2.55,2.55,0,0,1,3.34-1.81,1.84,1.84,0,0,1,.93.95c.9,2-.72,5.51-.72,5.51l-7,21.09s.72,1.38,1.61,1.07,5.13-17.79,6.66-17.45,2.63-.73,2.27,3.95-5.57,17.74-6.7,21.88-5.39,12.81-7.29,17.94a9.59,9.59,0,0,1-6.64,6.06l-9.63,2.32c-.46.09-10.17-.95-13.84-10.23S1209.35,309.45,1208.91,304.88Z"/><path class="cls-52" d="M1228.16,308.56c2.36.18,4.22,1.84,5.55,3.68a20.11,20.11,0,0,1,3.22,7.28c.11.46,1.16.19,1-.28a20.52,20.52,0,0,0-3.51-7.72,8.52,8.52,0,0,0-5.94-3.69.72.72,0,0,0-.68.32c-.1.23.08.39.31.41Z"/><path class="cls-17" d="M1168,440.39a53.3,53.3,0,0,1,1.3-25.06c2.08-7.25,4.1,3.87,5.32-3.58l40.77-84.85,20.48,4.86s-21.66,107.86-39.5,127.53c-4.5,5-9.59,7.11-22.73,4.55C1167.77,457.5,1169.54,449.13,1168,440.39Z"/><path class="cls-18" d="M1181.51,396.68c-2.14,3.31-4.44,6.36-6.07,10a40.29,40.29,0,0,0-3.07,21.1c0,.19.63.06.6-.16a40.18,40.18,0,0,1,3.07-21c1.61-3.6,3.91-6.62,6-9.9.15-.22-.45-.17-.56,0Z"/><path class="cls-42" d="M1026,262.4c5.29-.57,17.28,1,19.82,2.54,0,0-5,6.7-17.33,8s-15.3-4.54-15.3-4.54S1019.24,263.11,1026,262.4Z"/><path class="cls-29" d="M1040.6,263.49s-6.35.23-11.37.76S1018,265.9,1018,265.9s-1.16-3.19,8-4.15S1040.6,263.49,1040.6,263.49Z"/><path class="cls-25" d="M1028.31,271.5c5.68-1.32,10.75-6.21,17.49-6.56,0,0-2.84,9.58-17.27,11.11s-15.36-7.64-15.36-7.64C1019.83,267.33,1022.49,271.4,1028.31,271.5Z"/><path class="cls-25" d="M1019.44,260.57c3-.52,5,.28,6.36.14s3.13-1.35,6.18-1.47c2.86-.12,15.52,4.64,14.26,5.57s-11-2.52-20.17-1.55-11.92,5.75-13.35,5.11S1016.62,261.05,1019.44,260.57Z"/><path class="cls-53" d="M1040.68,686.5c-.68-12.44-1-24.89-2-37.31-.52-6.36-1.19-12.73-2.32-19s-2.8-12.87-5.82-18.6a19.45,19.45,0,0,0-7.21-7.89A26,26,0,0,0,1013.1,600c-1-.13-2.44,1.2-.88,1.4a23.85,23.85,0,0,1,9.1,3.39,18,18,0,0,1,6.72,7.13c3,5.59,4.7,12,5.86,18.27,2.32,12.47,3,25.25,3.58,37.89.31,6.35.54,12.71.88,19.06.05.81,2.37.32,2.32-.62Z"/><path class="cls-17" d="M894.41,485.24c-8.4-7.92-22.3-5.86-31.36-5.06s-14.61,14.44-15,16.53,1.79,8.58,14.1-5.81l2.67.6s7.68,7,13.47,9.23A51.11,51.11,0,0,0,889,503.58l9-12.07"/><path class="cls-18" d="M864.49,479.75c-6.06,1.42-11.49,4.73-14.75,10.13a23,23,0,0,0-2.46,5.77c-.23.82-.8,2.22-.56,3.08.32,1.15,2,1.19,3,1.09a14.43,14.43,0,0,0,6.86-3.12,32.78,32.78,0,0,0,4.64-4.25c.26-.28.71-1,.91-1.17s.07,0,.4,0c.61.08,1.23.28,1.83.41s.11,0,.36.15.51.45.76.67c1,.9,2.09,1.77,3.17,2.61A38.44,38.44,0,0,0,879,501.31a71.5,71.5,0,0,0,9.87,2.55c.37.08.72-.45.24-.55a78.45,78.45,0,0,1-7.68-1.8,35,35,0,0,1-9.47-4.76,72.92,72.92,0,0,1-6.19-4.88c-1-.89-2.16-.95-3.48-1.25a.5.5,0,0,0-.43.16c-2.8,3.28-6.23,6.75-10.45,8.12-.92.3-4,1.05-3.95-.72a14.93,14.93,0,0,1,1.2-4.49,21.24,21.24,0,0,1,4.23-6.94,22.84,22.84,0,0,1,11.76-6.48c.46-.1.32-.62-.14-.52Z"/><path class="cls-18" d="M892,518l-9.18-13.43-1.29-1.89c-.13-.2-.71,0-.55.25l9.17,13.42,1.3,1.9c.13.19.71,0,.55-.25Z"/><path class="cls-50" d="M1136.2,423.47c-7-12.29-12.45-25.36-18.08-38.31-4.78-11-6-23.63-4.76-35.5a51.73,51.73,0,0,1,1.67-9.4c.91-3,2.56-6,5.59-7.31,1-.45.12-1.36-.73-1-5.36,2.31-6.78,8.42-7.64,13.62a78.81,78.81,0,0,0-.75,18.54,68.23,68.23,0,0,0,3.81,18.65c1.25,3.37,2.81,6.64,4.24,9.93s2.89,6.63,4.38,9.92c3.31,7.34,6.79,14.6,10.76,21.59.37.66,1.94,0,1.51-.73Z"/><path class="cls-52" d="M1216.82,332.34a20.75,20.75,0,0,0,10.65,1.45c.22,0,.55-.15.57-.42s-.27-.36-.48-.33a19.83,19.83,0,0,1-10.13-1.39c-.43-.18-1.22.44-.61.69Z"/><path d="M1072.46,170.18l1.73-1.38a3.08,3.08,0,0,1-.13-.66,6.66,6.66,0,0,0-.11-.78l-.16-.39a13.18,13.18,0,0,0-7,.06,4.8,4.8,0,0,1-2.18.85,10.56,10.56,0,0,0-2,1.28,5.74,5.74,0,0,1,.57-1.33,4.05,4.05,0,0,1-3.12-2.37,9.54,9.54,0,0,0-.49-1.14c-.49-.56-.22-.44,0-.06,0,0,0,0,0,.06l.07.08a3.12,3.12,0,0,1-.29-.45c0-.08-.12-.14-.18-.22a7.28,7.28,0,0,1-1.31-.35,5,5,0,0,1-3-3l-.18,0a2,2,0,0,1-.74-.52,8.41,8.41,0,0,1-1.94-3,25.76,25.76,0,0,1-2.73-3,14.77,14.77,0,0,0-.31,2.1c-1,1.39-4-.16-4.68-1.63s-1.49,3.2-1.46,1.59a2,2,0,0,0-.71-1.83c-.72-.46-1.77-.24-2.68-.37a4.77,4.77,0,0,1-3.38-2.93c-.67-1.31-1.27-2.78-2.68-3.56s-3.9-.22-4,1.24,1.64,2.05,3.11,2.42c-2.21.76-1.67,3.61-.26,5.17.39.44.82.89,1.23,1.35,2.6,0,6.48-2.9,4.19-.76a.55.55,0,0,1,0,.31.87.87,0,0,1-.87.47c-5,4.38-11,7.73-16.36,11.72-6.34,4.72-12.75,3.42-19.55,7.6-.79.48-7.52,7.48-2.18,6.58a24,24,0,0,0-4.78,5.12c-.83,1.36-.8,3.24-1.61,4.47s-2.4,1.47-3.22,2.71a8.44,8.44,0,0,0-1,2.83l-1.44,6.09c-.38,1.63-.72,3.47.38,4.79s4.24,1.15,4.49-.5c.21-1.41-1.81-2.41-1.75-3.83a3,3,0,0,1,.87-1.69,60,60,0,0,1,7-6.68l.88-.75a9.15,9.15,0,0,0-1.77,7.71,1.45,1.45,0,0,0,.82,1.11.9.9,0,0,0,.9-.27,10.2,10.2,0,0,0,1.36,6.06,5.87,5.87,0,0,0,2.81-5.44c0-2-.48-4.1,0-6.12a5.1,5.1,0,0,1,4.88-3.93,4.7,4.7,0,0,0,1.44,7.92,3.28,3.28,0,0,0-1.75,4.36c.32.59.85,1.08,1.14,1.68.58,1.17.19,2.55.44,3.81s1.8,2.54,3.11,1.84c1.61-2.35.51-5.22.61-7.9a17.28,17.28,0,0,1,.6-3.47q1.29-5.34,2.57-10.67a4.74,4.74,0,0,1,1.18-2.48,2.24,2.24,0,0,1,2.79-.27,28.55,28.55,0,0,0-2.67,9,1.38,1.38,0,0,1,2,1.26c-.09.89-.92,1.6-1.69,2.23a3.78,3.78,0,0,0-1.69,2.23c-.2,2.23,4.09,2.94,4.3,5.15,1.44.78,3.38-.69,3.69-2.15s-.25-3,0-4.43a13.8,13.8,0,0,1,1.1-2.94c1.09-2.63,1.14-5.45,1.74-8.19s1.94-5.59,4.72-7.11c-1.82.93-1.9,3.14-1.34,4.82s1.53,3.39,1,5.13a5.75,5.75,0,0,0-.39,1.37c-.06,1.73,3.06,2.34,4.58,1.13s1.63-3.2,1.22-4.89-1.25-3.3-1.21-5a4,4,0,0,1,3.42-3.83c-1.88.14,2-4.68,2.48-5,1-.63,5.37-1.92,3.11.75a15.46,15.46,0,0,1-1.91,1.45,3.21,3.21,0,0,0,.09,4.86,6.63,6.63,0,0,1,2.52-3.18c1-.67,2.28-1.34,2.26-2.44a2.28,2.28,0,0,0,1.81,2.09,2.65,2.65,0,0,0,2.71-1.1c.38-.64.44-1.46,1-2,.82-.72,2.37-.54,2.93-1.44.19-.31.24-.71.57-.89a1.19,1.19,0,0,1,1.1.16c4.86,2.54,7,5.63,8.23,10.43a17.93,17.93,0,0,0,.81-5.93l1.35.72-1.43-2a17.3,17.3,0,0,0-.79-3.67,38.08,38.08,0,0,1,6.61-1.39c.56-1,1.78-1.72,2.33-2.74S1073.66,169.69,1072.46,170.18Z"/><path d="M1101,192l-1.42-3.81a6,6,0,0,0-.87-1.73c-.57-.72-1.5-.78-2-1.42s-.75-1.94-1.34-2.73a14.09,14.09,0,0,0-3.12-2.81c3,0-1.4-3.82-1.88-4.05-4.09-2-7.39-.45-11.29-2.84-3.3-2-6.9-3.55-10-5.86a.43.43,0,0,1-.51-.21.37.37,0,0,1,0-.2c-1.46-1.15.93.29,2.33,0l.52-1c.58-1.17.57-3.07-.7-3.33.74-.4,1.6-1.07,1.4-1.91s-1.62-1-2.29-.37a5.15,5.15,0,0,0-1,2.6,3,3,0,0,1-1.5,2.27c-.47.18-1.06.15-1.4.53a1.54,1.54,0,0,0-.18,1.27c.19,1-.73-1.91-1-.88s-1.64,2.36-2.34,1.56a12.62,12.62,0,0,0-.39-1.33,17,17,0,0,1-1.14,2.25,6.09,6.09,0,0,1-.71,2.17,1.17,1.17,0,0,1-.34.42l-.1,0a3.88,3.88,0,0,1-.35,1.14c2,4.09,3.67,8.44,5.87,12.38l.12,0a1.5,1.5,0,0,0,.75-1.55c.11.72.88,1,1.48,1.34a4.15,4.15,0,0,1,1.69,1.8,2.42,2.42,0,0,0-.48-3.17,9.27,9.27,0,0,1-1.17-.74c-1.51-1.5,1-1.12,1.58-.82.28.13,2.89,2.84,1.86,3,1.11-.13,2,1,2.25,2.12a15.61,15.61,0,0,1-.1,3.41,3.39,3.39,0,0,0,1.18,3.05c.94.62,2.55-.11,2.33-1.23a4.52,4.52,0,0,0-.36-.85c-.45-1.08-.11-2.29,0-3.45s-.17-2.59-1.24-3a6.66,6.66,0,0,1,3.29,4.12,37.74,37.74,0,0,0,1.82,5.14A10.39,10.39,0,0,1,1081,195c.29.93.15,2,.47,2.88s1.52,1.66,2.22,1c-.13-1.46,2.09-2.38,1.74-3.81a2.39,2.39,0,0,0-1.14-1.27,2.41,2.41,0,0,1-1.15-1.27c-.14-.57.4-1.28.92-1a21.52,21.52,0,0,0-2.4-5.6,1.06,1.06,0,0,1,1.52-.12,3.29,3.29,0,0,1,.9,1.49l2.53,6.66a14.3,14.3,0,0,1,.7,2.19c.34,1.73.06,3.72,1.17,5.08.78.31,1.48-.68,1.47-1.53a11.46,11.46,0,0,1-.17-2.53c.09-.42.32-.8.43-1.22a2.28,2.28,0,0,0-1.41-2.64,3.47,3.47,0,0,0-.08-5.31c1.27-.35,2.55.77,3,2a21.08,21.08,0,0,1,.67,4,4,4,0,0,0,2.09,3.23,8,8,0,0,0,.07-4.09.43.43,0,0,0,.52.08,1,1,0,0,0,.32-.81,6.86,6.86,0,0,0-1.78-4.82l.55.39a34.52,34.52,0,0,1,4.47,3.6,2,2,0,0,1,.65,1c.19.91-.79,1.78-.52,2.68s2,.82,2.46-.16A4.17,4.17,0,0,0,1101,192Z"/><path d="M1039.58,157.69c1.79,1.2,5.65-3.16,5.49-1.13.71.05,1.62.3,1.55.92s-1.29.83-2.1.66a35.25,35.25,0,0,1-11.39-4.63,9.77,9.77,0,0,0-3.44-1.68c-1.32-.25-3,.21-3.54,1.33-.05-.59-.11-1.19-.17-1.79a23.61,23.61,0,0,1-6,.95c-2.15,0-4.21-.68-6.37-.56s-4.63,1.4-4.74,3.27c-.88-.42-2.06.93-1.32,1.52a19.91,19.91,0,0,1,8.06.82l-.4,0c-4.47-.3-8.9,1.55-13,3.48q-7.38,3.51-14.38,7.59a12.91,12.91,0,0,0-3.48,2.61,5.1,5.1,0,0,0-1.23,3.88c1.92.82,4-1.06,5.64-2.48,4.05-3.57,11.83-6,17-3.85-1.75,1.45-4.46,1.23-6.08,3.09-.84,1-1.31,2.22-2.45,2.93-1.53,1-3.6.57-5.39,1-3.71,1-5,5.17-8.28,7.1-1.22.72-2.66,1.1-3.81,1.89s-1.92,2.33-1.07,3.27c.47.52,1.35.76,1.55,1.41.35,1.17-1.82,2.18-1.6,3.39.31,1.74,4.77,1,4.45,2.78a2.47,2.47,0,0,1-.74,1.08c-1.76,1.93-1.91,4.51-2,6.89-.05,1.68.34,3.84,2.24,4a3.11,3.11,0,0,0,3.07-2.68c.2-1.37-.34-2.67-.53-4a3.64,3.64,0,0,1,1.39-3.76,20.17,20.17,0,0,0,1.91-1c1.13-.89.93-2.5,1.86-3.55s2.32-1.2,3.29-2a5.58,5.58,0,0,0,1.39-2.15l2-4.49a14.71,14.71,0,0,1,5.39-1.85c1.91-.13,4,.73,4.34,2.33l-6.58,4.2,3.19,2.73c-.93.91-2.35,1.24-3.6,1.76s-2.53,1.55-2.34,2.7c.08.53.48,1,.56,1.51.26,1.81-2.91,2.82-3.48,4.63-.4,1.29,1,2.63,2.51,2.39a8.48,8.48,0,0,0-3.94,5.94,4.09,4.09,0,0,0,.9,3.36,3.35,3.35,0,0,0,3.69.73c3.47-1.64.57-7.61,4.2-8.9a13.6,13.6,0,0,0,2.36-.61c1.42-.83,1-2.86,2.23-3.88s3.7-.56,4.5-1.88"/><path d="M1055.81,173.92c-.53,1.11-3.68.09-3,1-.33.23-.7.62-.49.9s.88,0,1.22-.29a19.91,19.91,0,0,0,4.23-5.56,5.76,5.76,0,0,1,1.2-1.82,1.91,1.91,0,0,1,2.12-.37c-.15-.31-.3-.62-.44-.93a13.27,13.27,0,0,0,3.2-1.27c1-.64,1.86-1.55,3-2.12s2.67-.66,3.27.22c.31-.46,1.27-.14,1.09.36a11.34,11.34,0,0,0-3.71,2.74l.19-.13c2.1-1.44,4.8-1.82,7.36-2.06,3.08-.28,6.16-.44,9.23-.46a7.39,7.39,0,0,1,2.46.27,2.94,2.94,0,0,1,1.73,1.54c-.71,1-2.28.65-3.48.43-3-.58-7.54.47-9.41,3,1.28.2,2.54-.7,3.87-.26a6.88,6.88,0,0,0,2,.73c1,0,1.93-.77,2.94-1,2.1-.6,4,1.07,6.11,1.07.8,0,1.62-.24,2.41-.18s1.61.58,1.47,1.29c-.08.39-.44.76-.34,1.14.16.68,1.51.54,1.76,1.19.35.94-2,1.87-1.37,2.65a1.45,1.45,0,0,0,.67.32,5.74,5.74,0,0,1,3,2.79c.52.81,1,2,.07,2.62a1.77,1.77,0,0,1-2.28-.43,7.77,7.77,0,0,1-.9-2.11,2.08,2.08,0,0,0-1.77-1.44c-.4,0-.82.13-1.22.08-.81-.11-1.18-1-1.94-1.2s-1.48.09-2.19,0a3.13,3.13,0,0,1-1.3-.65l-2.27-1.62a8.33,8.33,0,0,0-3.17.66c-1,.49-1.73,1.51-1.45,2.39l4.44.15c-.26.75-.51,1.51-.77,2.26a6.31,6.31,0,0,0,2.27-.18c.77-.11,1.69,0,1.93.64.11.28,0,.62.16.9.4,1,2.25.54,3,1.26a1.19,1.19,0,0,1-.54,1.89,4.85,4.85,0,0,1,3.65,1.76,2.36,2.36,0,0,1,.54,1.91,1.92,1.92,0,0,1-1.6,1.43c-2.17.2-2.48-3.56-4.63-3.13a8.61,8.61,0,0,1-1.33.38c-.94,0-1.31-1.12-2.22-1.25s-2,.8-2.74.38"/><path d="M988.81,170.15a7.39,7.39,0,0,1-.78-3.36,2.9,2.9,0,0,1,2.14-2.61c1-.21,2.23.22,3.06-.36a3.64,3.64,0,0,0,1-1.66c.27-.59.89-1.19,1.55-1a1.89,1.89,0,0,1,.69.42,3.22,3.22,0,0,0,3.14.59c.93-.42,1.39-1.4,2.19-2a3.3,3.3,0,0,1,3.14-.42c.59.23,1.17.65,1.8.5a2.05,2.05,0,0,0,.76-.43c1-.76,2.45-1.46,3.49-.77a1.75,1.75,0,0,1,.2,2.54,4.4,4.4,0,0,1-2.7,1.3c-1,.16-2.08.16-3.09.38a2.59,2.59,0,0,0-1.48.77,2.56,2.56,0,0,0-.43,1.22l-.83,5.12a2.62,2.62,0,0,1-1.08,2.06c-1.19.62-2.51-.48-3.8-.86a1.86,1.86,0,0,0-1.21,0,.8.8,0,0,0-.53.91c-.72-.65-.13-1.81.67-2.41s1.83-1,2.19-1.93L994,169.33a4.58,4.58,0,0,1-1.79.2c-1.15-.17-2.26-1.18-3.28-.65"/><path d="M985.74,180.5a7.5,7.5,0,0,1-.77-3.35,2.88,2.88,0,0,1,2.14-2.61c1-.21,2.22.22,3.06-.37a3.68,3.68,0,0,0,1-1.66c.26-.59.88-1.19,1.55-1a2.09,2.09,0,0,1,.68.42,3.23,3.23,0,0,0,3.14.6c.94-.42,1.4-1.4,2.2-2a3.33,3.33,0,0,1,3.13-.42c.59.23,1.18.65,1.8.5a2,2,0,0,0,.77-.43c1-.75,2.45-1.45,3.48-.77a1.74,1.74,0,0,1,.2,2.54,4.32,4.32,0,0,1-2.7,1.3c-1,.17-2.07.17-3.08.39a2.53,2.53,0,0,0-1.49.77,2.62,2.62,0,0,0-.42,1.22l-.84,5.12a2.6,2.6,0,0,1-1.08,2c-1.19.63-2.5-.48-3.8-.86a1.9,1.9,0,0,0-1.2,0,.81.81,0,0,0-.54.92c-.72-.66-.12-1.82.67-2.41s1.83-1.05,2.19-1.93l-4.91,1.22a4.73,4.73,0,0,1-1.79.2c-1.14-.18-2.26-1.19-3.28-.66"/><path d="M1043.88,155.26l-1.32-3.22a1.36,1.36,0,0,1-.11-1.19c.38-.67,1.53-.44,2.09.11s.88,1.31,1.61,1.64c.23.11.51.17.66.37a1,1,0,0,1,.13.65c0,.87.32,2,1.27,2a1.94,1.94,0,0,1,.59-1.3,1,1,0,0,1,1.36.09l.89-2.6c.11-.31.28-.68.63-.73a.92.92,0,0,1,.79.45,4.91,4.91,0,0,1,1,2.74,3.5,3.5,0,0,0,.14,1.21.94.94,0,0,0,1,.57c.31-.09.56-.39.87-.34.48.06.42.69.45,1.13.08,1.45,2.3,2.1,2.51,3.53.07.44-.08.9,0,1.35s.41.94.9.87.72-.74.72-1.26c0-1.43-.15-3,.91-4.11,1.24.71.2,2.76,1.24,3.71.27.25.66.38.93.64a2.11,2.11,0,0,1,.5,1.24l1.27,7.23a1.22,1.22,0,0,1,0,.63c-.22.61-1.17.62-1.84.44a16.11,16.11,0,0,1-4.85-2.47c-4.45-3.12-8.15-7.13-13-9.7a9.22,9.22,0,0,1-3.29-2.27,1.6,1.6,0,0,0,.93-1.16"/><path d="M1044.8,155l-.81-1.95a7.07,7.07,0,0,1-.71-1.87c0-.29.21-.41-.13-.33s-.18,0-.14.09.39.14.51.22a6.76,6.76,0,0,1,1,1.18,3.87,3.87,0,0,0,1.17.8c.46.25.28.79.35,1.24a1.84,1.84,0,0,0,1.59,1.74c.39.05,1.39-.07,1.47-.6,0-.23.15-.48.17-.71.19-.2.14-.27-.16-.2a.33.33,0,0,1,.18.17c.36.46,1.6,0,1.76-.47l.57-1.65c.11-.32.2-.64.32-.95a1.89,1.89,0,0,0,.09-.21c.15-.26-.07-.21-.64.17l.11.11c.09.22.31.43.43.65a4,4,0,0,1,.3.67,5.08,5.08,0,0,1,.27,1.64c0,.94.34,1.76,1.41,1.84a2.61,2.61,0,0,0,1.39-.32.88.88,0,0,0,.21-.12c.28-.25-.53,0-.59.2a2.86,2.86,0,0,0,.07.56c.09,1.6,1.76,2,2.38,3.29.39.79-.21,1.74.4,2.47a2,2,0,0,0,2.52,0c.77-.6.62-1.59.62-2.46a4.06,4.06,0,0,1,.86-2.94l-1.58.42c.76.49.44,1.86.59,2.61a1.87,1.87,0,0,0,.67,1.14c.23.17.5.27.72.46a1.63,1.63,0,0,1,.48,1c.31,1.5.53,3,.79,4.53l.38,2.17c0,.2.07.4.11.61s0,.48,0,.62.14-.07.21-.08a1.58,1.58,0,0,1-.43-.05,12.24,12.24,0,0,1-3.84-1.79,39.72,39.72,0,0,1-3.43-2.52c-2.11-1.68-4.14-3.48-6.31-5.1a34.51,34.51,0,0,0-3.88-2.54,10.49,10.49,0,0,1-3.55-2.39l-.28.61a2.4,2.4,0,0,0,1.28-1.54c.15-.64-1.68-.36-1.83.24a1.07,1.07,0,0,1-.58.79c-.21.11-.47.37-.28.61a9.85,9.85,0,0,0,3.4,2.34,32,32,0,0,1,4,2.58c2.48,1.85,4.77,4,7.22,5.83a31.05,31.05,0,0,0,3.78,2.57,8.37,8.37,0,0,0,4.14,1.35,2.9,2.9,0,0,0,1.85-.67c.56-.54.31-1.28.2-2l-.93-5.3a5.52,5.52,0,0,0-.65-2.41c-.44-.55-1.2-.64-1.41-1.38-.34-1.15.17-2.43-1-3.19-.45-.3-1.26.09-1.57.42a3.82,3.82,0,0,0-1,2.41c0,.41,0,.82,0,1.23a11.73,11.73,0,0,1-.11,1.33l0,.06c-.16.25,0,.19.64-.19,0,0-.14-.15-.16-.19a1.54,1.54,0,0,1-.12-.71,3.05,3.05,0,0,0-.07-1.41,4.84,4.84,0,0,0-1.37-1.58,2.43,2.43,0,0,1-1.05-1.7,1.44,1.44,0,0,0-.2-.91,1.25,1.25,0,0,0-1.17-.32,2.68,2.68,0,0,0-.73.22,1.62,1.62,0,0,0-.32.17c-.24.19.3-.17.3-.12s-.21-.23-.23-.27a1.72,1.72,0,0,1-.1-.39c0-.27,0-.54,0-.82a5,5,0,0,0-1-2.84,1.88,1.88,0,0,0-2.73,0,3,3,0,0,0-.61,1.25l-.73,2.13,1.76-.47c-.52-.66-1.61-.52-2.29-.25a2.28,2.28,0,0,0-1.42,1.93l1.47-.6c-1.33-.16-.51-2.1-1.27-2.7a8,8,0,0,0-.78-.38,2.86,2.86,0,0,1-.65-.65,3.89,3.89,0,0,0-1.28-1.24,2.66,2.66,0,0,0-3.19.64c-.42.68.06,1.49.33,2.13l1,2.53c.25.61,2,.06,1.83-.49Z"/></g></svg>