<svg id="Layer_1" data-name="Layer 1" xmlns="http://www.w3.org/2000/svg" xmlns:xlink="http://www.w3.org/1999/xlink" viewBox="0 0 205.83 138.61"><defs><style>.cls-1,.cls-20,.cls-28{fill:none;}.cls-2{clip-path:url(#clip-path);}.cls-3{fill:#a56530;}.cls-4{fill:#8c542a;}.cls-5{fill:#ccb631;}.cls-6{fill:#c95744;}.cls-7{fill:#3ba448;}.cls-8{fill:#993a2f;stroke:#993a2f;stroke-width:0.05px;}.cls-15,.cls-20,.cls-23,.cls-28,.cls-31,.cls-8{stroke-miterlimit:10;}.cls-9{fill:#c98532;}.cls-10,.cls-15{fill:#84722c;}.cls-11{fill:#5e5f5f;}.cls-12{fill:#853324;}.cls-13{fill:#9e684a;}.cls-14{fill:#ec9a6f;}.cls-15{stroke:#84722c;stroke-width:0.17px;}.cls-16{fill:#4f2e25;}.cls-17{fill:#010101;}.cls-18{fill:#13110f;}.cls-19{fill:#878787;}.cls-20{stroke:#010101;stroke-width:0.2px;}.cls-21{fill:#622515;}.cls-22{fill:#51441c;}.cls-23{fill:#895522;stroke:#895522;stroke-width:0.18px;}.cls-24{fill:#653c29;}.cls-25{fill:#31160e;}.cls-26{fill:#f1eef7;}.cls-27{fill:#513835;}.cls-28{stroke:#132b3a;stroke-width:0.15px;}.cls-29{fill:#4163ae;}.cls-30{fill:#5fa0ae;}.cls-31{fill:#395557;stroke:#395557;stroke-width:0.18px;}.cls-32{fill:#1c3b53;}.cls-33{fill:#132b3a;}.cls-34{fill:#825639;}.cls-35{fill:#151210;}.cls-36{fill:#231f20;}.cls-37{fill:#161312;}.cls-38{fill:#171514;}.cls-39{fill:#181615;}.cls-40{fill:#714534;}.cls-41{fill:#191716;}.cls-42{fill:#745245;}.cls-43{fill:#684133;}.cls-44{fill:#812b24;}.cls-45{fill:#481917;}.cls-46{fill:#b15e27;}.cls-47{fill:#df8c26;}.cls-48{fill:#ce8d2a;}.cls-49{fill:#8e6528;}.cls-50{fill:#273339;}.cls-51{fill:#fff;opacity:0.14;}.cls-52{fill:#ebebeb;}.cls-53{fill:#14465b;}</style><clipPath id="clip-path"><polyline class="cls-1" points="-4.04 138.66 -4.04 0.75 211.97 0.75 211.97 138.66"/></clipPath></defs><g class="cls-2"><path class="cls-3" d="M13.27,146.34c.63-3.91,1.26-6.89,2-10.78.22-1.21,0-1.89-1.65-1.66-.35,0-.72,0-1.07,0-4.65.34-4.27-3-4-6.19.11-1.21,1.34-1.5,2.68-1.49,6.18,0,12.35.78,18.53.78v-.75H47.88c2.61,0,3.09,1.25,3.09,3.83,0,2.38-.52,3.77-3.16,3.77a11.74,11.74,0,0,1-1.78,0c-1.74-.24-2.09.42-1.87,1.8C46.4,149.09,48.57,161.6,50.8,175c.15.92,0,1.28-1.19,1.3-3,0-3.07.1-3.49-2.42-1.42-8.57-2.82-17.14-4.15-25.72a3.92,3.92,0,0,0-.1-.43l-.57-3.3-2-10.22a1.81,1.81,0,0,0-1.39-.4c-5.45.07-10.91.08-16.37,0a2.56,2.56,0,0,0-1.15.18l-2.25,10.11-.62,3.59a2.59,2.59,0,0,0-.09.42c-1.41,9-2.89,18.06-4.32,27.09-.13.85-.53,1.1-1.49,1.11-3.1,0-3.18.07-2.79-2.46C10.28,164.69,11.78,155.52,13.27,146.34Z"/><path class="cls-4" d="M8.71,127.63s8,2,26.29,1c8.56-.45,16.06-1.06,15.72-2.4s-6.56-1.45-12.62-1.65-22.51-.12-22.51-.12-5.27,1.32-6.17,1.79C8.22,126.88,8.71,127.63,8.71,127.63Z"/><polygon class="cls-4" points="44.17 134.5 39.35 134.5 41.66 146.5 45.98 146.5 44.17 134.5"/><polygon class="cls-4" points="15.11 134.27 20.19 134.27 17.77 146.27 13.29 146.27 15.11 134.27"/><path class="cls-3" d="M61.43,136.86c.63-3.9,1.26-6.88,2-10.78.22-1.2,0-1.88-1.65-1.65-.35,0-.72,0-1.07,0-4.65.33-4.27-3.06-4-6.19.11-1.22,1.34-1.5,2.68-1.5,6.18,0,12.35.79,18.53.79v-.75H96c2.61,0,3.09,1.26,3.09,3.84,0,2.37-.53,3.76-3.16,3.77a13.2,13.2,0,0,1-1.78,0c-1.74-.24-2.09.41-1.87,1.79,2.23,13.43,4.41,25.95,6.64,39.38.15.91,0,1.27-1.19,1.29-3,0-3.07.1-3.49-2.42-1.42-8.57-2.82-17.14-4.15-25.72a3.92,3.92,0,0,0-.1-.43l-.57-3.3-2-10.22a1.81,1.81,0,0,0-1.39-.39c-5.45.07-10.91.08-16.37,0a2.56,2.56,0,0,0-1.15.18L66.3,134.65l-.62,3.6a2.26,2.26,0,0,0-.09.41c-1.42,9-2.89,18.06-4.32,27.1-.13.84-.53,1.09-1.49,1.11-3.1,0-3.18.07-2.79-2.47C58.44,155.22,59.94,146,61.43,136.86Z"/><path class="cls-4" d="M56.87,118.16s8,2,26.28,1c8.57-.45,16.07-1.05,15.73-2.4s-6.56-1.44-12.63-1.65S63.74,115,63.74,115s-5.26,1.32-6.16,1.79C56.38,117.4,56.87,118.16,56.87,118.16Z"/><polygon class="cls-4" points="92.33 125.03 87.51 125.03 89.81 137.03 94.14 137.03 92.33 125.03"/><polygon class="cls-4" points="63.27 124.8 68.34 124.8 65.93 136.79 61.45 136.79 63.27 124.8"/><path class="cls-3" d="M194.5,140.69c-.64-3.9-1.27-6.88-2-10.78-.21-1.2,0-1.88,1.66-1.65.34,0,.71,0,1.06,0,4.65.33,4.27-3.06,4-6.19-.1-1.22-1.34-1.5-2.68-1.5-6.17,0-12.35.79-18.53.79v-.75H159.88c-2.6,0-3.09,1.26-3.08,3.84,0,2.37.52,3.76,3.15,3.77a13.2,13.2,0,0,0,1.78,0c1.75-.24,2.1.41,1.87,1.79-2.23,13.43-4.41,26-6.63,39.38-.16.91,0,1.27,1.19,1.29,3,0,3.07.1,3.48-2.42q2.13-12.85,4.16-25.72a2.5,2.5,0,0,1,.09-.43l.57-3.3,2-10.22a1.82,1.82,0,0,1,1.39-.39c5.46.07,10.91.08,16.37,0a2.56,2.56,0,0,1,1.15.18l2.26,10.11.62,3.6c0,.12.06.26.09.41,1.41,9,2.89,18.06,4.31,27.1.13.84.54,1.09,1.49,1.11,3.1,0,3.19.07,2.79-2.47C197.49,159.05,196,149.87,194.5,140.69Z"/><path class="cls-4" d="M199.06,122s-8,2-26.29,1c-8.57-.45-16.07-1-15.72-2.4s6.56-1.44,12.62-1.65,22.51-.12,22.51-.12,5.26,1.32,6.16,1.79C199.54,121.23,199.06,122,199.06,122Z"/><polygon class="cls-4" points="163.59 128.86 168.41 128.86 166.11 140.85 161.78 140.85 163.59 128.86"/><polygon class="cls-4" points="192.66 128.63 187.58 128.63 190 140.62 194.47 140.62 192.66 128.63"/><path class="cls-5" d="M97.48,74.33A20.34,20.34,0,0,1,101.09,77c1.58,1.5.66,3.58,2.42,4.89L113,100.52l-7.34,3.7c-.76.38.5-1.39-.13-.83l-7.86-4.22S96,87.1,93.86,83.59c-2.4-4-4.65-7.59-.63-12.11C94.44,72,96.34,73.63,97.48,74.33Z"/><path class="cls-5" d="M89.87,45s9.75,2.72,11,5.89c1.84,4.82,2.78,32.09,2.78,32.09l-6.18.71Z"/><path class="cls-6" d="M156.08,55.33l-4.23,10.75-1.62,7c0,1.2-1,2.58-.7,3.73.36,1.31,1.4,0,1.61,1.3S153,77,153,78.43c0,1,1.51,4.07,4.29,4.07,7.62-3.23,5.55-8.84,5.55-8.84Z"/><path class="cls-7" d="M117.32,129.2c.12-.17.23-.35.34-.52a2.77,2.77,0,0,0-.31-.21A3,3,0,0,1,117.32,129.2Z"/><path class="cls-8" d="M98.77,52.19A19.07,19.07,0,0,0,97.66,57,19,19,0,0,0,98.77,52.19Z"/><path class="cls-9" d="M75.21,42.57A36.87,36.87,0,0,0,70,45.24c-3,1.86-7.09,4.24-8.21,10.35S63.08,72.12,60,79.42a69.29,69.29,0,0,0-4.15,14l30.34-36.9Z"/><path class="cls-10" d="M55.07,100.68s-2.48,12.61,4,14.47,34,2.3,34,2.3.53,8.16,1.58,15.69c1,6.92,2.62,16.9,2.62,16.9s20.66,1.4,22.86-2.61c1.94-14.28,3.76-28.72,2.93-43.15-.27-4.69-4.55-7.7-8.38-8.92s-9.84-1.68-14-2a73.63,73.63,0,0,0-11.31.73S68.73,105.78,55.07,100.68Z"/><path class="cls-11" d="M78,15.47a3.06,3.06,0,0,1,3.41-1.05c.26-2.48,2.85-3.63,5.33-3.39,1.27.19,2.5.93,3.75.66a7.62,7.62,0,0,0,2.12-1.09c2.93-1.64,6.84,1.2,8.8,3.93s1,5.38-.51,8.36a12.63,12.63,0,0,0-1.1,3.71c-.35,1.45-1.58,4-1.78,5.5s1.87,3.27.39,3.19L82.67,31.37a4.31,4.31,0,0,1-4.81-3c-.61-1.53-.33-1.56-.23-3.19.08-2.14-1.87-4-1.47-6.11A7.89,7.89,0,0,1,78,15.47Z"/><path class="cls-12" d="M76,15.13A25.13,25.13,0,0,1,88.9,14.8c7,1.7,9.94,6.51,10.78,9.8a9.62,9.62,0,0,1-.9,6.4s1.72.72,3.72-5.54c2.92-9.12-5.9-16-8.21-16.24S80.51,5.07,76,15.13Z"/><path class="cls-13" d="M80.05,32.24a37.2,37.2,0,0,1-3,9.33c-.28.52-4,2.16-4,2.16l4.91,2.39c2.8,1.05,9.27,1.76,12.19,1.12l2.53-1.17s-2.86-1-2.92-1.73,1.14-5.75,1.14-5.75"/><g id="freepik--character-2--inject-1332"><path class="cls-14" d="M83.08,54.55a9,9,0,0,1-.45-1,3.61,3.61,0,0,1-.17-1.17,3.57,3.57,0,0,1,.31-1.4,3.36,3.36,0,0,1,.59-.89l0,0,0-.06c-.23-.71-.4-1.38-.54-1.83a2.89,2.89,0,0,0-.27-.71.47.47,0,0,0,0,.19l.14.53c.11.47.25,1.11.49,1.88l0-.09a3.58,3.58,0,0,0-.95,2.43,3.49,3.49,0,0,0,.22,1.2,3.1,3.1,0,0,0,.36.73A.93.93,0,0,0,83.08,54.55Z"/><path class="cls-14" d="M76.75,52.27a5.62,5.62,0,0,0-.55-.64,3,3,0,0,1-.85-1.75c0-.38.05-.76,0-1.13a1.14,1.14,0,0,0-.39-.86.68.68,0,0,0-.61-.16c-.16,0-.21.11-.21.12a1,1,0,0,1,.22-.06.75.75,0,0,1,.53.19,1.15,1.15,0,0,1,.29.79c0,.33-.06.71,0,1.12A2.49,2.49,0,0,0,75.53,51a4,4,0,0,0,.58.72A3.2,3.2,0,0,0,76.75,52.27Z"/><path class="cls-14" d="M78.88,51c-.26-.27-.53-.53-.82-.78A5.34,5.34,0,0,1,76.56,48a2.54,2.54,0,0,1-.13-.73,4.18,4.18,0,0,1,0-.71,1.54,1.54,0,0,0-.26-1.21.64.64,0,0,0-.46-.23.67.67,0,0,0-.37.07c-.19.11-.2.24-.2.24a.65.65,0,0,1,.23-.18.62.62,0,0,1,.69.18,1.5,1.5,0,0,1,.2,1.11,4.48,4.48,0,0,0-.05.73,2.68,2.68,0,0,0,.14.79A4.94,4.94,0,0,0,78,50.3c.27.23.49.41.65.52A1,1,0,0,0,78.88,51Z"/><path class="cls-14" d="M76.24,43.61a2.22,2.22,0,0,1,.53.83A4.77,4.77,0,0,1,77,45.49a5.22,5.22,0,0,0,.27,1.35,4.9,4.9,0,0,0,1.39,2,3.78,3.78,0,0,0,.61.44,1.23,1.23,0,0,0,.26.12s-.33-.22-.78-.66a5.12,5.12,0,0,1-1.31-2,6.36,6.36,0,0,1-.25-1.3,4.54,4.54,0,0,0-.25-1.09A1.32,1.32,0,0,0,76.24,43.61Z"/></g><g id="freepik--character-1--inject-1332"><path class="cls-13" d="M90.34,45,76.12,43l-2.19,5.07S77.2,52,77.56,52.17s9,3.16,9,3.16,10.38-2.57,10.25-2.55S90.34,45,90.34,45Z"/><path class="cls-5" d="M57.39,101.68a11.09,11.09,0,0,0,2.87.88,23.17,23.17,0,0,0,3.23.4,19.69,19.69,0,0,0,5.62-.49,48.45,48.45,0,0,0,5.1-1.58c3.36-1.21,6.53-1.24,9.9-2.44s4.28-3.09,7.85-3.31c2.54-.15,5.87-2.11,8.69-1.75.76-2.56-1.59-5.56-1.59-5.56l-1.35-7.61,2.85-3.15c2-3.24,2.57-11.77,1.85-13.19L96.32,48.17l-5.95-3.34c.23.53,1.79,4.37-3.37,5.25L85.76,50c-6.47-.87-10.55-7.42-10.55-7.42l-2.2,1L62,76s-8,14.28-8.82,20.4c-.13,1-.6,1.27.18,2.8A19.56,19.56,0,0,0,57.39,101.68Z"/></g><path class="cls-5" d="M90.37,44.83s9.11,3.17,10.07,6.26c1.46,4.69,2.1,14.5,2.1,14.5l-4.37-.29Z"/><path class="cls-15" d="M101.77,74.46a16.29,16.29,0,0,0,0-3.42c-.07-1.25-.21-2.5-.39-3.74a76.34,76.34,0,0,0-1.59-7.62c-.3-1.21-.62-2.42-.94-3.62.45,2.25.78,4.52,1.29,6.77a53.06,53.06,0,0,1,1.2,6.87c.23,2.77.52,4-.45,6.13a20.45,20.45,0,0,1-3.16,4.39l.18.22S101.44,76.65,101.77,74.46Z"/><path class="cls-16" d="M89.9,42.93s-1.16-.36-2-.7-2.19-.48-5.53-4.26a7.49,7.49,0,0,0,5.27,5.69,6.15,6.15,0,0,0,2.06.34Z"/><path class="cls-13" d="M97.51,19.05l0,.05,0-.09Zm1.94.87.08.1v0S99.46,19.87,99.45,19.92ZM82.05,37.47c1.48,2.37,4,5.09,7,5.63a4.72,4.72,0,0,0,3.15-.68,20.87,20.87,0,0,0,3.91-2.7,9.51,9.51,0,0,0,2.25-3,7.11,7.11,0,0,0,.92-3.22,13.76,13.76,0,0,1,.42-2.25c.21-.7,1.14-3.44,1.56-5.08s-.2-5-.2-5c0-.47-.66-.37-.82-.78l-.2-.05a.2.2,0,0,1,.06.2,1.57,1.57,0,0,1-.61-.47h0a.79.79,0,0,1-.77-.41s0,.14.06.15a1,1,0,0,1-.71-.44s0,.14,0,.19a1.83,1.83,0,0,1-.57-.42c0,.07,1.17.15,1.16.18-.3,0,0,.15-.18-.13l-.2-.22c-.26,0-.28.14-.43-.08a2,2,0,0,0,0-.48c-.29-.07-.2-.07-.42-.26,0,.05-.86.11-.87.16-.24-.06-.23.18-.38,0,0,.05.22-.15.26-.09-.31,0-.46.14-.65-.14,0,.06-.85-.71-.85-.71-.3,0-.27.08-.47-.15.07.11-1.33-.39-1.3-.29-.24-.05.26,1,.1.82,0,0-.53-.26-.53-.26-.25,0,.06.3-.09.07,0,.05,0,.19,0,.2a1,1,0,0,1-.89-.34,1.41,1.41,0,0,1,.14.27,1,1,0,0,1-.64-.29s.05.2.1.21a1.06,1.06,0,0,1-.76-.26s.07.15.11.21a.72.72,0,0,1-.56-.22l.1.21a1.57,1.57,0,0,1-.63-.15c0,.05.08.11.07.16a1.7,1.7,0,0,1-.48-.16c0,.05.12.17.07.16-.2,0-.36,0-.58-.13,0,0,.06.15.1.21a1.19,1.19,0,0,1-.57-.18.31.31,0,0,0,.06.2c-.2,0-.36,0-.59-.13,0,.05.07.16.11.21a2.22,2.22,0,0,1-.58-.13s.07.11.11.17a1.82,1.82,0,0,1-.62-.19c0,.09,0,.14,0,.19s-.23-.1-.38-.13l-.26,0c-.88.74-3.27-.56-3.27-.56-1.78.86-1.16,7.47-1.3,8.33s-.68,1-.68,1c-.17-.37-.68.48-.74.09s.11-.72,0-1.06c-.28-.82-1.3-.81-1.94-.49l-.12.13c-1,.84-.87,4.15-.53,5.2-.26,1.94,1.18,3.31,2.43,2.15l.09.8"/><path class="cls-17" d="M92.87,34.86a1.46,1.46,0,0,1-1.25-.37c-.07-.07-.35-.08-.25,0a2,2,0,0,0,1.7.47c.05,0,.05,0,0-.08a.28.28,0,0,0-.2,0"/><path class="cls-17" d="M91.24,34.37A2.24,2.24,0,0,0,90.5,34a.15.15,0,0,0-.13,0,0,0,0,0,0,0,.06.88.88,0,0,0,.41.2.14.14,0,0,0,.14,0s0-.06,0-.07a.6.6,0,0,1-.33-.16l-.14.08a2,2,0,0,1,.66.33.18.18,0,0,0,.14,0s.08,0,0-.07"/><path class="cls-17" d="M90.16,34.16a1.11,1.11,0,0,1-.75-.57.89.89,0,0,1,.64-1.06s0-.06,0-.08a.28.28,0,0,0-.18,0,1.12,1.12,0,0,0-.74.88.88.88,0,0,0,.59.78,1.26,1.26,0,0,0,.34.13s.13,0,.16,0,0-.06,0-.07"/><path class="cls-17" d="M93.48,34.83a0,0,0,0,1,0,0,.39.39,0,0,0,.26,0l.06.12a1.1,1.1,0,0,0-.53.07.11.11,0,0,1-.1,0s0-.07,0-.08"/><path class="cls-17" d="M93.23,34.82a1.24,1.24,0,0,1,.6-.07.1.1,0,0,1,.07.06s0,0,0,.06"/><path class="cls-17" d="M94.12,35a.68.68,0,0,0,.64-.26,1,1,0,0,0,0-1.06,0,0,0,0,1,0-.06.1.1,0,0,1,.1.06,1,1,0,0,1,.14.93.74.74,0,0,1-.61.51h-.24a.14.14,0,0,1-.09-.08s0-.05.05,0"/><path class="cls-18" d="M97.58,29.4a.81.81,0,0,1,.77.31.87.87,0,0,1,.09.37.71.71,0,0,1-.31.6.66.66,0,0,1-.77,0,.73.73,0,0,1-.17-.92.7.7,0,0,1,.39-.32"/><path class="cls-18" d="M95,29.75a6.51,6.51,0,0,1,2.23-.65,3.38,3.38,0,0,1,2.32,1.51,6.54,6.54,0,0,0-2.12-1.24A11.93,11.93,0,0,0,95,29.75Z"/><path class="cls-18" d="M89.39,27.65a1,1,0,0,0-.89-.15.71.71,0,0,0-.28.28.72.72,0,0,0,0,.67.67.67,0,0,0,.72.3.73.73,0,0,0,.55-.75c0-.06.07-.15-.12-.31"/><path class="cls-18" d="M90.93,28.76a7.15,7.15,0,0,0-2-1.47,3.82,3.82,0,0,0-2.93.49,7.53,7.53,0,0,1,2.62-.32A12.76,12.76,0,0,1,90.93,28.76Z"/><path class="cls-19" d="M95.93,26.35c0,.2-.07.4-.1.6s0,.31-.07.46c.53,0,1-.05,1.32-.05a4.55,4.55,0,0,1,1.49.15,4.78,4.78,0,0,1,.88.45,3.22,3.22,0,0,1,.44.35c.3.31.4.61.46.6s0-.28,0-.31a2.45,2.45,0,0,0-.56-1.14,2.9,2.9,0,0,0-.87-.6,10.42,10.42,0,0,0-3-.51"/><path class="cls-19" d="M92.26,25.39l-.18.59c0,.15-.09.29-.14.44-.5-.29-.94-.51-1.27-.67a5,5,0,0,0-1.52-.57,4.2,4.2,0,0,0-1.07,0,2.7,2.7,0,0,0-.59.09c-.44.14-.67.36-.72.32s.11-.25.13-.27A2.46,2.46,0,0,1,88,24.55a3.11,3.11,0,0,1,1.13-.11,11.71,11.71,0,0,1,3.16.95"/><path class="cls-20" d="M79.93,29c-.68-2.74-1.45-2.88-1.45-2.88a2.13,2.13,0,0,0-.55,1.74"/><path class="cls-20" d="M79.49,29.14c-.68-.18-.36,1.2-.6,1.47S78.53,30,78.6,29c0,0,.21-1.32.91-1.45"/><path class="cls-19" d="M100.39,19s0,0,0,0c-.34-.67-.52-1.35-.88-2s-.73-1.21-1.12-1.82c0,0-.58-.14-.61-.17l0,0,0-.06-.09-.13A13.06,13.06,0,0,0,88.89,13a10.8,10.8,0,0,0-9,12.33c.08.51-.3,1.05.14,1.4s.51.21,1,0a3.45,3.45,0,0,0,1.19-1.12,14.46,14.46,0,0,0,2.23-8.49c.24.53,2.49.34,2.93.73a4.18,4.18,0,0,0,5.91-.35,5.11,5.11,0,0,0,.54.9c1.87,2.62,4.59,4.15,7.23,2.88A9.91,9.91,0,0,0,100.39,19Z"/><path class="cls-21" d="M76.91,26s-4.83-4.64-2.2-8.53c.5-.75.51-.48.63-1.17.62-3.62-.77-2.93,5.15-6.44s6.69-3.34,14.73-1.6c4.15.89,6.21,3,7,5.78a13,13,0,0,1,.35,4.21s-8.23-3.63-13.71-1.59S76.76,27,77.45,30C77.64,30.83,76.91,26,76.91,26Z"/><path class="cls-12" d="M74.15,21.6S82.89,12,92.63,13c0,0-11.8-2.94-18.28,4.88l-.22,1a5.71,5.71,0,0,0-.08,1.89Z"/><path class="cls-22" d="M112.31,99.32s4.26.36,5,2.93-.66,6.1-.66,6.1,1.09-5.59-.66-7.11A9,9,0,0,0,112.31,99.32Z"/><path class="cls-5" d="M75.21,42.57s-11,.87-14.57,5.5S53.73,71.78,53.5,74.89c-.66,8.79,18.92,23,18.92,23l5-7.48L64.86,72.89,67.3,60.4Z"/><path class="cls-15" d="M71.45,54.36C71.43,56.51,67,71.75,66.3,74l.44-.1c.54-2,4.12-14.68,5-18.43C72.5,51.93,70,48.65,70,48.65,71.84,52.57,71.45,54.36,71.45,54.36Z"/><polygon class="cls-15" points="66.74 73.92 66.3 74.02 77.32 90.44 77.53 90.28 66.74 73.92"/><path class="cls-15" d="M57.88,84.41S65.62,95,71.54,97.78l2-2.08.27,0-1.55,1.53-.77.9a38.8,38.8,0,0,1-5.85-4.26c-1.93-1.91-8-9.12-8-9.12l.15-.36"/><polyline class="cls-13" points="76.82 90.91 80.99 93.86 79.23 99.23 72.62 96.68"/><path class="cls-13" d="M79,93.09l5.22-1.32s5.9,1.11,6.61,1.88,1.55,1.88.09,2.62c0,0,.65,1.69-.2,2.11a2.14,2.14,0,0,1-1.83-.16s1.13,1.39.15,2-1.39.13-1.39.13-.09.8-.6.76a13.6,13.6,0,0,1-2.14-.67,15,15,0,0,1-4.42-.15,7.4,7.4,0,0,1-2.83-1.8Z"/><path class="cls-16" d="M87.77,95.36a3.88,3.88,0,0,1,3,.84"/><path class="cls-16" d="M86.92,97.86a2.07,2.07,0,0,1,2,.43"/><polygon class="cls-23" points="77.53 90.3 77.02 91.05 76.82 90.91 77.37 90.11 77.53 90.3"/><path class="cls-15" d="M66.67,74.29A19.26,19.26,0,0,0,63,76.07s2.29-2.09,3.59-2.15Z"/><path class="cls-24" d="M91.23,36.36c-1.58-.36-4.1-1.13-4.1-1.13a4.36,4.36,0,0,0,8.28,1.87S92.8,36.72,91.23,36.36Z"/><path class="cls-25" d="M91.24,36.36c-.75-.17-3.74-1-3.74-1A4.28,4.28,0,0,0,90.81,38c3,.67,4.2-.86,4.2-.86Z"/><path class="cls-26" d="M91.25,36.49c-.75-.17-3-.82-3-.82s.63,1,2.88,1.56,3.16-.17,3.16-.17Z"/><path class="cls-24" d="M95.63,36.89a4.49,4.49,0,0,1-.91-.1c-.61-.2-1-.46-1.4-.59a6.71,6.71,0,0,0-1.65-.11,6.87,6.87,0,0,0-1.54-.61c-.45-.07-1.61-.15-2.24-.23-.38-.06-.78-.31-.87-.3s-.09.9,4.11,1.86S95.73,37,95.63,36.89Z"/><path class="cls-27" d="M137.91,96.93h0v-.07Z"/><path class="cls-28" d="M152.08,105.14l-.14,0"/><path class="cls-29" d="M137.19,135.7h0S137.21,135.66,137.19,135.7Z"/><path class="cls-27" d="M139.49,72.7l0,0,0-.08Z"/><path class="cls-27" d="M133.32,64.12h0l0-.07Z"/><path class="cls-13" d="M28.52,31.7a15.07,15.07,0,0,1-1.38,9.36c-.24.45-2.72,1.42-2.72,1.42l3.93,1.38c2.7.69,8.76.83,11.4.08L42,42.77s-2.75-.68-2.87-1.26a46.79,46.79,0,0,1,.49-5"/><path class="cls-13" d="M39.75,42l-13-.32-1.92,4.12s3.41,3.06,3.76,3.21,8.6,2,8.6,2,9.37-2.93,9.25-2.91S39.75,42,39.75,42Z"/><g id="freepik--Character--inject-2"><path class="cls-30" d="M55.24,56.86l-2.6-8.92a24.67,24.67,0,0,0-4.85-2.17c-1.66-.53-4.2-1-5.19-1.35a3.15,3.15,0,0,1-1,3.21,7.49,7.49,0,0,1-4.45,1.6,12.89,12.89,0,0,1-4.55-.82c-2.71-.95-5.84-4.06-6.47-7l-1.07.44-12.54,5c-1.32.54,2.74,34.39,2.74,34.39l-3,14.51c-.3,1.4-7.76,10.7-3.07,21.74,0,0,29.32-9,32.39-9,3.57-.06,9.26-.08,10.17-1.79S55.24,56.86,55.24,56.86Z"/><path class="cls-30" d="M54.33,86.44c1.62,3.71,8.09-2.1,11.51-4.26a5.85,5.85,0,0,1-1-2.56c-.47-2.6-1.4-5.41-1.81-8-.52-3.27-1.84-8-2.51-11.27a45.53,45.53,0,0,0-1.24-4.86,10.84,10.84,0,0,0-1.77-3.8c-.93-1.12-4.58-4-6.63-4.43L45.72,59.78S47.09,70,49.78,73c.1.12,1.51,4.23,1.64,4.35A73.88,73.88,0,0,0,54.33,86.44Z"/><path class="cls-30" d="M86.88,82.73l-5.77-.42s-13.5-2.08-16.31-3.08l-1.07,1.5c-2,2.88-9.4,5.71-9.4,5.71,3.67,8.06,19.53,6,22.35,5.63C79.75,91.63,87.32,91,87.32,91Z"/><path class="cls-31" d="M54.06,75.64c.06,0,.06-.94.12-.94.11-1.77.92-12.16,1-13.52s.14-2.65.17-3.46a10.94,10.94,0,0,0,0-1.28,9,9,0,0,0-.15,1.27c0,.88-.14,2-.27,3.46s-1.19,21.51-1.32,23.28C53.67,84.44,54,75.63,54.06,75.64Z"/><path class="cls-31" d="M19.45,56.7a13.38,13.38,0,0,1-.4-1.41,16.41,16.41,0,0,0-3.32-6.11,12.73,12.73,0,0,1-1-1.11,4.9,4.9,0,0,1,1.11,1,13.75,13.75,0,0,1,3.36,6.2A4.78,4.78,0,0,1,19.45,56.7Z"/></g><path class="cls-31" d="M64.85,79.62a5.73,5.73,0,0,0-1.95,3.7S63,80,64.85,79.62Z"/><path class="cls-32" d="M79.94,115.36c-1.76,9.67-4,30.82-6.66,42.6,0,0-13.33,2.53-14.68-.12,0,0-14.89-54.08-7.61-56.26,5.37-1.6,21.91-1.28,25.11.61C80,104.45,81.32,107.74,79.94,115.36Z"/><path class="cls-27" d="M80.54,107.74h0v-.08Z"/><path class="cls-32" d="M63.49,122.35A24,24,0,0,1,64,120a33.86,33.86,0,0,1,1.85-5.17,36.6,36.6,0,0,1,2.71-5,29.94,29.94,0,0,1,2.3-3.07C54.23,103.18,19.42,105,19.42,105S7.61,103.76,9.35,118.7c1.41,12.1,41.1,7.29,54,3.7Z"/><path class="cls-32" d="M69.81,110.15a24.7,24.7,0,0,0-4.58.41,10.64,10.64,0,0,0,.39-2.06l-.92-.74a29.9,29.9,0,0,0-4.23,2.13A35.6,35.6,0,0,0,56,113.08a30.5,30.5,0,0,0-3.77,3.68c-.32.38-.64.77-.94,1.16l.15,0c-4.31,6.19-2.28,18.18-3.55,29.55-.92,8.33-2.25,15.21-2.25,15.21C47.24,165.21,61.3,164,61.3,164,64.25,148.66,69.81,110.15,69.81,110.15Z"/><path class="cls-33" d="M61.3,164c2.58-15.26,8.51-53.84,8.51-53.84h.67L61.78,164Z"/><path class="cls-33" d="M48.4,125.11l-.44,0a12.73,12.73,0,0,1,3.47-7.71,15.9,15.9,0,0,0-2.52,7.61Z"/><path class="cls-32" d="M67,110.15s1.15-6.54-4.52-8.14c-7.72-2.19-41.47,2.88-41.47,2.88l46,5.26"/><path class="cls-34" d="M27.94,33.23v.05S27.93,33.24,27.94,33.23Z"/><path class="cls-13" d="M37.92,42.27l4.92,0,2.47-.47c.25,0,1.42-2.47,1.6-2.78a21.89,21.89,0,0,0,1.66-3.32,20.75,20.75,0,0,0,1.37-3.5,6.55,6.55,0,0,0-.3-3.4,2.36,2.36,0,0,1,0-1.29c.25-.95.37-2.06.68-3.33a2.7,2.7,0,0,0,.12-.69s.41-5.32-.48-7.26a5.75,5.75,0,0,0-3.7-3.27,29.52,29.52,0,0,0-5.53-.3l-5.68-1-4.94,2.23-2.68,5.82.12,6.86.52,6.14"/><path class="cls-35" d="M29.2,26.08c0,.53.58,3.19.62,3.7l-2.73-.14c-.76-1.84-1.68-4-2-4.51-.46-.77,1.06-4.49,1.08-5.88V19c0-1.33,1.36-3.4,3.6-5.54,3.84-3.67,3.66-3.72,9.39-3.12.39,0,.78.09,1.16.16,3.59.65,6.6.7,8.8,3.8,1.59,2.23.43-.55.24,1,0-3,.49-.51.19-.87-1.74-2.12-2.71.05-3.59-.11a3,3,0,0,0-1.48.09,7,7,0,0,1-2.64-.14c-.69-.13-2.42-.58-2.57-.62-.45-.33,0-2.12-.84-2.28a12.19,12.19,0,0,0-5.7.84c-1.15.49-3.91,1.55-3.63,4.6"/><path class="cls-35" d="M44.8,41.11a.18.18,0,0,1-.09,0c-.51-.36-.54-.56-.8-.63a1.72,1.72,0,0,0-.27-.07c-.73-.13-1.18-.22-3.2,1,0,0-2.61-.4-2.66-.4l-1.31-.68c-.22-.15-5.07-4.54-5.07-4.54s-.94-1.18-1-1.32l-.05,0,0,0v0a1.09,1.09,0,0,0,0,.18,3.08,3.08,0,0,0,.11.74c.1.38.16.76.25,1.14,0,.13.07.26.11.39.55.37,4,5.07,6.05,6.17a8.46,8.46,0,0,0,1.67.31,16.75,16.75,0,0,0,6.27-.2,1.88,1.88,0,0,0,1.24-1,34.1,34.1,0,0,0,2.58-6.71C48,36.62,46.68,39.25,45.77,41a6.23,6.23,0,0,1-.9.09"/><path class="cls-13" d="M28.66,33.38c-2.29,2.08-2.6-1.61-2.6-1.61a7.11,7.11,0,0,1-1.24-5.25c.12-1.35,1.61-1.26,1.61-1.26,1.26.2,1.79.9,2.64,5.21"/><path class="cls-35" d="M45.22,13c-2-.1-7.4-1.68-10.18-2-1.15-.11-5.07,2.63-5.59,3.26-1.19,1.46,1.34,5-.78,9.65-.7,1.55-1.52-1.23-2.38-.22l-1.18,1.4c-.47-4.56-.45-4.4.69-8.86S31.88,10,34.26,9.71s9.94.69,12,1.7"/><path class="cls-36" d="M28.08,29.63a11.19,11.19,0,0,0-.94-1.86,3.48,3.48,0,0,0-.68-.8,1,1,0,0,0-.4-.22c-.15,0-.23.13-.29.24a2.61,2.61,0,0,0-.2,1.8c0,.11.23.05.21-.05a2.78,2.78,0,0,1,.06-1.43,1.63,1.63,0,0,1,.24-.45l-.13.05h0s0,0,0,0h0a1.16,1.16,0,0,1,.24.14,3.74,3.74,0,0,1,.9,1.15,13.26,13.26,0,0,1,.71,1.47c0,.1.25,0,.21-.06Z"/><path class="cls-36" d="M27.57,29.83c-.87-.08-.42,1.16-.51,1.63a.25.25,0,0,1,0,.07l0,0s.05,0,.05,0-.05,0-.05-.06a.61.61,0,0,1-.07-.14,3.59,3.59,0,0,1-.2-.86,3,3,0,0,1,0-1c.07-.41.2-1,.63-1.13.14,0,0-.17-.1-.13a1.36,1.36,0,0,0-.69,1,2.85,2.85,0,0,0-.09.92,5.67,5.67,0,0,0,.18,1.08c0,.16.1.41.26.5a.24.24,0,0,0,.33-.14,1.06,1.06,0,0,0,0-.47c0-.24-.21-1.13.22-1.09.11,0,.22-.14.07-.16Z"/><path class="cls-35" d="M39,26a.85.85,0,0,0-1.15.47.83.83,0,0,0,.15.75.76.76,0,0,0,.87.2.83.83,0,0,0,.46-.95A.71.71,0,0,0,39,26"/><path class="cls-35" d="M48.06,26.53a.85.85,0,0,1,.88.21.8.8,0,0,1,.22.38.84.84,0,0,1-.24.74A.75.75,0,0,1,48,28a.85.85,0,0,1-.36-1,.76.76,0,0,1,.38-.43"/><path class="cls-35" d="M45.38,27.58a5.21,5.21,0,0,1,2.27-1.23c1.35-.05,1.68.27,2.13.91A3,3,0,0,0,48,26.63,9.37,9.37,0,0,0,45.38,27.58Z"/><path class="cls-35" d="M41,27a8.83,8.83,0,0,0-2.75-1.37,4.78,4.78,0,0,0-3.49,1.23,9.39,9.39,0,0,1,3.15-1A16.33,16.33,0,0,1,41,27Z"/><path class="cls-35" d="M41.71,22.41l-.09,1c0,.24-.06.81-.09,1.05-.75-.28-1.42-.66-1.91-.79a9.07,9.07,0,0,0-3-.55,3.43,3.43,0,0,0-1.35.32c-.13.07-.51.37-.69.27s.09-.43.11-.47a2.12,2.12,0,0,1,1.89-1.15,14.44,14.44,0,0,1,5.11.35"/><path class="cls-35" d="M50.66,23.28l-.54-.19a12.16,12.16,0,0,0-4.68-.61l-.09,1c0,.25-.09.69-.11.93.73-.13,1.37-.31,1.84-.35a8,8,0,0,1,2.81.07l.53.16C50.76,23.83,50.78,23.36,50.66,23.28Z"/><path class="cls-35" d="M41,37.44H44.5s-.89,1.3-1.74,1.26A3.29,3.29,0,0,1,41,37.44Z"/><path class="cls-17" d="M44.06,32.83a1.5,1.5,0,0,1-1.4-.17c-.09-.06-.38,0-.26.06a2.11,2.11,0,0,0,1.9.2c.05,0,0-.07,0-.09a.28.28,0,0,0-.22,0"/><path class="cls-17" d="M42.23,32.6a2.49,2.49,0,0,0-.85-.27.25.25,0,0,0-.14,0s0,.05,0,.07a1,1,0,0,0,.47.14.2.2,0,0,0,.15,0s0-.07-.06-.07a.84.84,0,0,1-.38-.11l-.13.1a2.5,2.5,0,0,1,.76.24.18.18,0,0,0,.16,0s.07-.07,0-.09"/><path class="cls-17" d="M41,32.57a1.15,1.15,0,0,1-.9-.48,1,1,0,0,1,.48-1.27c.05,0,0-.06,0-.08a.4.4,0,0,0-.19,0,1.26,1.26,0,0,0-.63,1.09,1,1,0,0,0,.77.75,1.69,1.69,0,0,0,.39.08c.05,0,.14,0,.17,0s0-.06-.07-.07"/><path class="cls-17" d="M44.71,32.68a0,0,0,0,1,0-.07.41.41,0,0,0,.28-.07l.08.12a1.11,1.11,0,0,0-.55.17.09.09,0,0,1-.11,0s-.05-.06,0-.08"/><path class="cls-17" d="M44.44,32.72a1.28,1.28,0,0,1,.62-.19.12.12,0,0,1,.09,0,0,0,0,0,1,0,.07"/><path class="cls-17" d="M45.43,32.77a.73.73,0,0,0,.63-.41,1.07,1.07,0,0,0-.22-1.16s0-.06,0-.07a.11.11,0,0,1,.11.05,1.15,1.15,0,0,1,.32,1,.82.82,0,0,1-.56.68,1.09,1.09,0,0,1-.25,0s-.1,0-.11-.06,0-.07,0-.06"/><path class="cls-35" d="M46.29,13.89a1.28,1.28,0,0,0-.6-.23l-.23-.08c-.69,0-1.38,0-2.08,0a1.63,1.63,0,0,0-.5.07l-.05,0-1.54-.08-.24.06a1.44,1.44,0,0,0-.61.15.2.2,0,0,0,0,.37c.21.08.52,0,.66.1s-.15.32-.06.48.24.14.35.21.19.23.32.32a.72.72,0,0,0,.54.09c.2,0,.46-.05.52.09a.4.4,0,0,1,0,.11.38.38,0,0,0,.28.37.65.65,0,0,0,.55-.06c.14-.1.19-.25.34-.34l.16-.07a.56.56,0,0,0,.17.11.65.65,0,0,0,.55-.06c.14-.1.19-.25.34-.34s.31-.1.38-.21-.2-.42,0-.56.46,0,.67-.06A.24.24,0,0,0,46.29,13.89Z"/><path class="cls-35" d="M40.78,41.64a.94.94,0,0,0,.49.14l.19.06c.56,0,1.12-.06,1.68-.11a1.36,1.36,0,0,0,.41-.09l0,0,1.25,0,.19-.06a1.19,1.19,0,0,0,.48-.17.16.16,0,0,0-.06-.3c-.17,0-.42.06-.54,0s.11-.27,0-.39-.21-.1-.31-.15-.16-.17-.27-.24a.63.63,0,0,0-.45,0c-.15,0-.36.07-.42,0a.27.27,0,0,1,0-.09.33.33,0,0,0-.26-.28.5.5,0,0,0-.43.08c-.11.09-.14.22-.26.3l-.12.07a.28.28,0,0,0-.15-.08.52.52,0,0,0-.44.08c-.1.09-.14.22-.25.3s-.25.1-.29.19.18.32.06.45-.37,0-.54.09S40.65,41.54,40.78,41.64Z"/><path class="cls-37" d="M25.37,25.42a1.27,1.27,0,0,1-.61-.14.45.45,0,0,1-.21-.54c.14-.3.7-.34.67-.67-.27-.33-.92-.22-1.07-.61s.23-.61.53-.78c-.21-.2-.15,0-.42-.1s-.42-.75-.26-1,.28-.05.18-.36c-.22-.07.27-.25.1-.41a.54.54,0,0,1-.12-.63,1.09,1.09,0,0,0,.13-.69c0-.24.47-.27.33-.46-.25-.36.1-.82.43-1.1-.19-.13,0-.16-.07-.36A.54.54,0,0,1,25,17a2.88,2.88,0,0,1,.34-.23c.46-.35.2-1.07-.09-1.56a.83.83,0,0,0,.87-.66,2.15,2.15,0,0,1,.07-.56c.07-.17.32-.29.44-.14"/><path class="cls-35" d="M25.46,25.23c-.27,0-.87-.16-.52-.57.07-.08.2-.11.28-.18s.29-.25.26-.43-.18-.25-.31-.32a2.78,2.78,0,0,0-.38-.12,1.34,1.34,0,0,1-.3-.12.52.52,0,0,1,.3-.65c.12-.07.22-.21.08-.32s-.35-.1-.51-.23-.16-.5,0-.72.13-.17.08-.4,0,0,0,0,.11-.1.14-.18-.05-.22-.11-.4a2.44,2.44,0,0,1,.12-1c.06-.26.29-.27.34-.5,0-.08,0-.12,0-.2a.88.88,0,0,1,.36-.87c.06-.06.13-.17.06-.25s0-.77.06-.87.33-.22.43-.43A1.71,1.71,0,0,0,25.48,15l-.25.32a1.17,1.17,0,0,0,.88-.36.86.86,0,0,0,.23-.39,2.94,2.94,0,0,0,.1-.66c.19.14.64-.13.39-.31a.59.59,0,0,0-.71,0c-.46.37,0,1.28-.85,1.28-.16,0-.35.15-.26.32.19.34.52,1,.16,1.31-.17.17-.39.2-.49.44s0,.39,0,.63,0,.26.09.41l.06-.25a1.51,1.51,0,0,0-.6,1,1.74,1.74,0,0,1,.05.22c0,.12,0,0,0,.13s-.2.16-.25.31,0,.42-.09.62-.13.26-.1.43.18.36.17.43-.14.17-.16.27a.16.16,0,0,0,.07.14l0,.08.14-.18a.8.8,0,0,0-.36,1,.72.72,0,0,0,.3.44,1.2,1.2,0,0,0,.27.08h.15c.08,0,.09,0,0,0l.08-.32c-.32.2-.76.5-.68.95a.61.61,0,0,0,.32.4c.13.07.69.14.73.28s-.37.28-.45.35a.58.58,0,0,0-.22.42c0,.54.61.68,1,.71s.52-.37.18-.39Z"/><path class="cls-38" d="M26.45,14.72c.06-.26.32-1.46.38-1.71a.56.56,0,0,0,.74-.46c0-.17,0-.38.1-.48s.34,0,.51,0c.39,0,.46-.64.82-.77s.49.07.73,0,.41-.63.76-.77.51,0,.75,0c.54-.14.73-.92,1.29-.92.2,0,.38.14.58.13.37,0-.16-.41.19-.46s.59.31.92.35c.54.07.91-.82,1.41-.61.21.09.32.34.53.44.49.24,1-.47,1.54-.33.27.07.45.33.72.37s.75-.45,1.18-.41.57.41.91.39-.34-.28-.1-.31c.4-.05.69.4,1.08.49a2.28,2.28,0,0,0,1-.19c.33-.07,1,.58,1.05.92"/><path class="cls-35" d="M26.7,14.68c.14-.57.25-1.14.38-1.71l-.42.16a1.12,1.12,0,0,0,.76-.1.79.79,0,0,0,.35-.33c.07-.14,0-.48.07-.51s.53,0,.69-.11.22-.27.35-.41.43-.14.74-.22a1.08,1.08,0,0,0,.62-.35c.25-.27.19-.36.64-.44a3.4,3.4,0,0,0,.46-.06c.39-.12.52-.46.84-.66s.78,0,1.14-.17c0,0,.15-.06.16-.11.05-.26-.12-.12.13-.09s.28.16.42.18a1.22,1.22,0,0,0,.65-.12A1.81,1.81,0,0,0,35,9.41c.36-.27.37-.2.74,0a.91.91,0,0,0,.75.18c.13,0,.24-.08.36-.11a2.2,2.2,0,0,1,1.14,0,1.25,1.25,0,0,0,.66.06c.19,0,.34-.19.51-.23.84-.22.33,0,.77.11.28.07.45.19.73.07,0,0,.2-.09.17-.15-.16-.26-.12,0,.05.18a1,1,0,0,0,.72.22c.3,0,.56-.17.85-.12a1.05,1.05,0,0,1,.81.79c0,.13.55,0,.52-.14a1.3,1.3,0,0,0-1.3-1,3.54,3.54,0,0,1-1.29-.1c-.17-.07-.22-.16-.41-.2a.79.79,0,0,0-.58.09s-.13.07-.11.12.16.15.22.25l.17-.15A2.38,2.38,0,0,0,39.8,9a.94.94,0,0,0-.37,0,3.17,3.17,0,0,0-.36.13,1.59,1.59,0,0,1-.94,0,1.37,1.37,0,0,0-.85-.06c-.11,0-.21.09-.32.13a.72.72,0,0,1-.74,0,1.43,1.43,0,0,0-.35-.3c-.7-.29-1.11.61-1.78.46-.29-.07-.41-.27-.74-.22s-.29.16-.42.24,0,.12,0,.13-.26,0-.36,0a1.19,1.19,0,0,0-.7.29c-.16.13-.26.33-.42.45-.32.22-.59.11-.92.2a1,1,0,0,0-.55.37c-.26.29-.16.32-.63.38a2.33,2.33,0,0,0-.37,0c-.37.11-.38.42-.66.61s-.51,0-.74.15-.42.93-.59.9-.39,0-.42.16c-.13.57-.24,1.14-.38,1.71,0,.14.48.06.51-.08Z"/><path class="cls-39" d="M31.92,11.65a5.86,5.86,0,0,0-3.79,3.27l11.29-3.75A9.72,9.72,0,0,0,37,10.88,12.8,12.8,0,0,0,31.92,11.65Z"/><path class="cls-35" d="M31.8,11.5a7.54,7.54,0,0,0-2.36,1.29,7.48,7.48,0,0,0-1.55,2.1c-.1.18.17.24.29.2l9.88-3.28,1.4-.47c.21-.07.32-.3,0-.36a14.09,14.09,0,0,0-7.64.49c-.3.11-.22.46.09.35a13.49,13.49,0,0,1,7.37-.47l0-.35-9.88,3.28-1.4.47.29.2a6.75,6.75,0,0,1,1.49-2A7.36,7.36,0,0,1,32,11.79C32.36,11.67,32.07,11.4,31.8,11.5Z"/><path class="cls-39" d="M48,12l-.16-.08c-.26-.14-.46-.55-.22-.72-.54.21-.92-.73-1.5-.73a2.68,2.68,0,0,0-.49.11.78.78,0,0,1-.85-.77,1.89,1.89,0,0,1-1.4.13l-4,1.22c1.73.39,3.49,1.06,5.16,1.29a7,7,0,0,1,2.34.63c.52.28,1.18.44,1.72.74Z"/><path class="cls-35" d="M48.23,11.89c-.18-.09-.61-.4-.38-.64s-.12-.21-.24-.17-.5-.3-.65-.42a1.18,1.18,0,0,0-.53-.3,1.34,1.34,0,0,0-.63.05.62.62,0,0,1-.74-.66c0-.14-.31-.07-.36,0-.54.26-1,0-1.57.18l-1.37.42L39.38,11c-.11,0-.36.21-.12.27,1.6.36,3.14.94,4.76,1.23a11,11,0,0,1,2.33.51c.68.28,1.42.56,2.08.9.1.06.52,0,.46-.19-.2-.61-.4-1.21-.61-1.82-.06-.18-.57,0-.51.14.21.6.41,1.21.61,1.82l.46-.2a11.79,11.79,0,0,0-1.16-.48c-.34-.14-.66-.32-1-.45a10.26,10.26,0,0,0-2.18-.49c-1.68-.27-3.28-.87-4.93-1.25l-.12.27L42,10.52c.42-.13.85-.31,1.29-.4l.11,0c-.09,0,.16.07.24.08a2.35,2.35,0,0,0,1.25-.25l-.35,0a.86.86,0,0,0,.55.79c.38.15.74-.12,1.1,0s.48.41.73.57a.86.86,0,0,0,.75.11l-.24-.18c-.37.39,0,.79.38,1C48,12.21,48.44,12,48.23,11.89Z"/><path class="cls-40" d="M38.15,19.45a33.08,33.08,0,0,1,9,.39"/><path class="cls-37" d="M48,37.79a5.56,5.56,0,0,1-.63,1.46c.19.07.1.36,0,.5S47,40,47,40.22a1.59,1.59,0,0,1,.07.2c0,.21-.22.35-.44.4.15.11,0,.35-.12.46s-.33.25-.29.43.11.16.1.25-.31.18-.41.34,0,.21-.07.32a.35.35,0,0,1-.53.18c0,.38-.22.87-.6.85s-.46-.25-.68-.15-.2.22-.32.29c-.42.27-.93-.61-1.35-.35-.23.15-.22.54-.48.62s-.44-.2-.69-.23-.56.24-.8.11-.16-.17-.25-.25-.42.09-.68.17c-.46.14-.5-.2-.5-.2-.13-.32-.31-.3-.62-.13-.11.06-.2.15-.32.15-.28,0-.41-.46-.7-.44-.11,0-.19.09-.29.13a.48.48,0,0,1-.58-.64.8.8,0,0,1-.76-.87.72.72,0,0,1-.9-.64.7.7,0,0,1-.79-.9.56.56,0,0,1-.73-.53c0-.18.08-.41-.07-.52s-.23,0-.35,0a.46.46,0,0,1-.38-.63.63.63,0,0,1-.61-.94.5.5,0,0,1-.48-.74.76.76,0,0,1-.56-1.13l5.85,6.11,1.52.71s5.38.53,6.41.08S48,37.79,48,37.79Z"/><path class="cls-35" d="M47.73,37.83a6.15,6.15,0,0,1-.63,1.47s0,0,0,0c.28.25-.23.58-.33.73s.13.56-.25.69c0,0-.19.07-.16.13.15.35-.28.48-.39.7s.05.25,0,.45-.55.6-.4.67c-.1,0-.47,0-.5.13s-.06.5-.17.58-.27,0-.44,0a1.2,1.2,0,0,0-.5,0c-.16.07-.26.25-.43.24s-.45-.32-.67-.36a.88.88,0,0,0-.83.26c-.29.34,0,.24-.42.23-.2,0-.35,0-.56,0a.71.71,0,0,1-.33,0c-.2,0-.19-.12-.35-.17a.69.69,0,0,0-.47,0c-.29.06-.37.19-.66,0s-.13-.25-.34-.3a1.38,1.38,0,0,0-.45.08c-.1,0-.21.15-.29.14s-.27-.26-.42-.33c-.37-.17-1.25.37-1-.51,0,0,0,0,0,0a.8.8,0,0,1-.72-.84c0-.06-.18,0-.21,0-.39.05-.62-.29-.69-.61,0,0-.11,0-.14,0a.66.66,0,0,1-.65-.84c0-.07-.1-.07-.14-.06-.86.1-.41-.71-.67-1s-.89.1-.72-.62c0-.07-.1-.06-.14-.06-.49,0-.64-.53-.47-.87,0,0-.06-.07-.09-.07a.46.46,0,0,1-.39-.68s0,0,0-.06a.73.73,0,0,1-.52-1.06l-.49.13,3,3.12,2,2.08a7.74,7.74,0,0,0,.89.92,7,7,0,0,0,3.85.9A26.46,26.46,0,0,0,43.5,43a2.63,2.63,0,0,0,1.62-.49A11.12,11.12,0,0,0,47,39.88c.43-.7.83-1.41,1.22-2.14,0-.07-.44,0-.51.09a26.18,26.18,0,0,1-2.54,4.1,2.33,2.33,0,0,1-.78.75,3.7,3.7,0,0,1-1.29.1c-1,0-2.07-.05-3.1-.12a5.26,5.26,0,0,1-3.13-.84,8.89,8.89,0,0,1-1-1L34.1,38.9l-3.05-3.18c-.09-.09-.44,0-.49.13-.29.6.1.74.39,1.14.12.17.06.34.18.53s.3.17.35.26,0,.31.05.47a.88.88,0,0,0,.37.42c.24.18.15,0,.26.16s.06.32.27.46.31,0,.44.13,0,.53.28.82.33.11.44.21,0,.16.13.34a.94.94,0,0,0,.45.49c.26.16.2.06.44.31a1,1,0,0,0,1,.37l-.21,0c0,.58.31.52.6.87s.15.51.44.65.4,0,.65,0,.42.32.74.36.33-.14.5-.14c.53,0,.2.21.52.3a1.38,1.38,0,0,0,.67,0l.25-.11a.56.56,0,0,1,.28.16,1.6,1.6,0,0,0,.33.11,1.11,1.11,0,0,0,.19,0l.27-.07a1.41,1.41,0,0,1,.6.16,1.07,1.07,0,0,0,.47,0c.21-.07.26-.22.41-.33s.14-.26.52-.05a1.35,1.35,0,0,0,.34.17,1,1,0,0,0,.59-.07c.05,0,.19-.15.22-.16.2-.05.28,0,.52,0,.63,0,.92-.44,1-1l-.49.13c.57.25.84-.1,1.13-.51s.28-.3.34-.6a.27.27,0,0,1,0-.39,1.16,1.16,0,0,0,.28-.26c.09-.19.1-.19,0-.37l-.17.13a1.07,1.07,0,0,0,.57-.33c0-.06,0-.12,0-.19s0-.33.07-.49a.76.76,0,0,0,.2-.2,1.81,1.81,0,0,0,.1-.42c.11-.52.4-1,.55-1.51C48.27,37.63,47.77,37.7,47.73,37.83Z"/><path class="cls-41" d="M29.3,26.4c.53-.53-.13-1.53.29-2.16a4,4,0,0,0,.32-.4c.23-.44-.16-1,0-1.44.08-.2.27-.35.34-.56.13-.4-.25-.8-.2-1.22s.61-.86.44-1.29c-.09-.22-.33-.34-.41-.55-.13-.38.3-.87,0-1.15-.09-.1-.25-.13-.33-.24s.11-.5.22-.75a3.53,3.53,0,0,0,.07-.86c0-.29.3-.6.56-.48-.15-.45.13-1.68.61-1.63.23,0,.53.15.66-.05s0-.34.06-.49c.19-.39.85.19,1.19-.07a1.78,1.78,0,0,0,.21-.27.72.72,0,0,1,.74-.1,1.75,1.75,0,0,0,.77.14c.26,0,.48-.36.32-.57a2,2,0,0,0,.86.34.72.72,0,0,0,.74-.43.61.61,0,0,0,1,.26c.11-.13.19-.34.36-.36a.39.39,0,0,1,.23.07c.31.17.72,1.12.88,1.42l-.13-1.91-5.35-.79-4.42,2.62L27.72,19l1.8,7.71"/><path class="cls-35" d="M29.54,26.41a1.46,1.46,0,0,0,.21-1.12,1.49,1.49,0,0,1,.16-1.13c.08-.13.2-.2.26-.35.23-.54-.16-1,.12-1.58s.22-.63.11-1.26.45-1,.41-1.53a.61.61,0,0,0-.15-.36,1,1,0,0,1-.25-.85c0-.18.12-.36.05-.54s-.24-.16-.31-.31a5.05,5.05,0,0,1,.4-1.92c.11,0,.39-.07.35-.23s0-1.08.21-1.29.47,0,.72-.08a.62.62,0,0,0,.36-.35c.14-.29-.09-.24.24-.29.1,0,.27.07.37.07a1,1,0,0,0,.52-.14c.25-.12.12-.18.42-.26s.48.07.79.1c.48.06,1.1-.23.93-.8l-.46.2c.65.38,1.62.63,2-.21l-.5.05a.86.86,0,0,0,1.12.49c.22-.08.45-.4.7-.29s.54.94.68,1.2.52.08.51-.13l-.13-1.92c0-.07-.11-.09-.16-.1l-2.37-.34a27.39,27.39,0,0,0-2.84-.42,2.51,2.51,0,0,0-1.28.57L29.9,13c-.52.31-.72.36-.88.91L28.09,17a10.19,10.19,0,0,0-.63,2.11,6.73,6.73,0,0,0,.38,1.64l1.42,6.11c0,.2.56.07.52-.13l-1.27-5.44A11.76,11.76,0,0,1,28,19a10.65,10.65,0,0,1,.59-2l1-3.21a3.58,3.58,0,0,1,.11-.35c.05-.12-.18.15,0,0a11.81,11.81,0,0,1,1-.6l2.93-1.73c.06,0,.3-.13.34-.21s-.23,0-.16,0,1,.14,1.16.17l3.71.55a1.2,1.2,0,0,1,.38.05c.14.06-.14-.18-.11-.07a1.08,1.08,0,0,1,0,.31A9.45,9.45,0,0,0,39,13.63l.51-.13c-.23-.45-.47-1.24-.94-1.5a.62.62,0,0,0-.53-.05c-.26.08-.77.84-1,.15-.06-.19-.43-.08-.49.05-.27.54-.86.14-1.16,0-.11-.07-.52,0-.46.2.13.4-1,.12-1.26.16s-.35.18-.55.28c-.4.22-1.12-.17-1.4.34,0,.07,0,.35,0,.38s-.28,0-.41,0a.83.83,0,0,0-.53.25,1.89,1.89,0,0,0-.36,1.61l.35-.23a.78.78,0,0,0-.77.32,1.41,1.41,0,0,0-.16.78,4.28,4.28,0,0,1-.27.81.53.53,0,0,0,0,.46c.05.13.2.2.27.37s0,.23,0,.49-.07.32,0,.51c.18.45.55.4.27,1.07A1.69,1.69,0,0,0,30,21.31c.12.65-.38,1-.3,1.67a1.4,1.4,0,0,1-.22,1.14,1.47,1.47,0,0,0-.23.49c-.12.6.27,1.24-.14,1.77-.16.2.36.18.48,0Z"/><path class="cls-37" d="M29.21,29.88l.45.05a.22.22,0,0,0,.14,0c.1-.07.05-.22,0-.33a1.18,1.18,0,0,1,.2-.78A.75.75,0,0,0,30,28c-.09-.11-.25-.18-.27-.33s.22-.28.34-.42a.46.46,0,0,0-.2-.72,1.33,1.33,0,0,0,.22-1.08C30,24.77,29.8,24,29.8,24l-1.07-.61Z"/><path class="cls-35" d="M29,30c.27,0,1,.19,1.07-.22a.53.53,0,0,0,0-.25,1,1,0,0,1,.07-.47,3.09,3.09,0,0,0,.25-.66.6.6,0,0,0-.18-.52c-.12-.12-.26-.19-.13-.38s.19-.14.26-.23a.51.51,0,0,0-.23-.8l0,.09a1.28,1.28,0,0,0,.26-.77,6.28,6.28,0,0,0-.31-1.71c-.05-.22-.19-.25-.39-.36L29,23.3c-.09-.06-.51,0-.49.16l.41,5.68L29,30c0,.11.53,0,.51-.14l-.41-5.68L29,23.32l-.5.16.62.35c.12.07.25.13.36.21s.06,0,.1.12a7,7,0,0,1,.31,1.5,1.31,1.31,0,0,1-.21.91c0,.05,0,.08,0,.1a.42.42,0,0,1,.25.34c0,.21-.1.3-.25.43s-.23.35,0,.56.23.22.22.43a1.32,1.32,0,0,1-.16.51,1.35,1.35,0,0,0-.17.5c0,.12.1.4,0,.49l.21-.11c.12,0-.07,0-.12,0l-.29,0C29.25,29.75,28.78,30,29,30Z"/><path class="cls-41" d="M47.1,12.86c-.06.15.14.27.3.29s.37,0,.4.21-.06.2,0,.3c.05.3.63.05.79.31s-.13.51,0,.65.21.05.32.06a.47.47,0,0,1,.4.34c0,.14,0,.29.08.41s.28.16.44.24c.4.19.49.71.5,1.16a1.58,1.58,0,0,0,.34,1.25c.32-.27,0-.54-.27-.87a3.4,3.4,0,0,1-.23-.3.27.27,0,0,1,0-.34s.11-.06.14-.11-.21-.2-.35-.3-.07-.42.06-.59.3-.4.18-.59-.35-.18-.45-.35,0-.43,0-.64-.42-.37-.71-.4a.46.46,0,0,0-.19-.7c-.11,0-.25,0-.32-.12s0-.37-.12-.48-.3,0-.41-.1,0-.45-.06-.65-.73-.17-.7-.47"/><path class="cls-35" d="M46.85,12.9c-.06.35.31.3.52.41s0,.5.34.62.65-.07.59.38c0,.26,0,.46.28.5s.42,0,.48.33,0,.32.14.45a1.2,1.2,0,0,0,.38.18.68.68,0,0,1,.37.41c.27.65-.07,1.46.48,2,.1.1.36,0,.45-.06a.42.42,0,0,0,.1-.56c-.13-.26-.46-.47-.55-.74s.28-.32.17-.54-.53-.14-.4-.52.39-.45.34-.75-.45-.27-.53-.53.14-.52-.1-.77a1.13,1.13,0,0,0-.69-.26l.08.15a.54.54,0,0,0-.13-.77.41.41,0,0,0-.15-.07.5.5,0,0,1-.25-.13.62.62,0,0,1,0-.13c-.06-.18,0-.29-.2-.38s-.13,0-.19,0c-.22-.06-.17-.11-.15-.27a.5.5,0,0,0-.06-.43c-.14-.18-.64-.16-.64-.39s-.52-.06-.52.13.3.28.49.35c.43.15,0,.48.24.76.09.13.22.09.35.14s.1.32.23.49.26.11.38.17a.38.38,0,0,1,.13.55c0,.06,0,.13.08.14.31,0,.64.1.62.48,0,.22-.09.41.08.59s.56.18.36.58c-.11.2-.31.36-.31.61s.11.28.27.36,0,.14,0,.32c-.18.47.93,1,.57,1.37l.45-.06c-.53-.52-.19-1.35-.46-2a.93.93,0,0,0-.58-.52c-.26-.1-.25-.23-.3-.47a.55.55,0,0,0-.25-.38,1.12,1.12,0,0,0-.31-.1c-.28-.06-.19-.18-.18-.41a.36.36,0,0,0-.32-.41c-.12,0-.26,0-.37,0s0-.21-.08-.39-.73-.24-.7-.46-.49-.11-.51.07Z"/><path class="cls-33" d="M69.81,110.15s1.53-5.8-6-7.48c0,0,7.74.48,6.62,7.48Z"/><path class="cls-30" d="M52.48,96.13l-6,5.57.86.11a20.08,20.08,0,0,1,2.9-.18c.92,0,1.83-.16,2.75-.19a4.18,4.18,0,0,1,1.67-.36.43.43,0,0,0,.49-.4C55.26,99.86,52.48,96.13,52.48,96.13Z"/><path class="cls-30" d="M9.29,88.31c.78-1.23,2.17-.34,3-1.5s2.92-1.16,4.06-2.2c.91-.81.42-2,1.43-2.66l.72-10.39,1.54-5a31.37,31.37,0,0,0-2.33-9.92c-2-4.47-4.33-10.17-4.33-10.17s-4.56,1.45-6.06,9.63c-.72,3.89-1.84,14.63-1.84,14.63s-1.32,12.8-.88,15.26c.34,1.89,1,5.59,3.5,7.39"/><path class="cls-30" d="M36.86,99.31l-7.45-3.9L21.58,89.6c-1.28-.32-.91.64-2.22.57a23.45,23.45,0,0,0-4.27.18c-1.36.17,1.09-6.34-.26-6.06a45.41,45.41,0,0,0-5.42,2c-.16.06-2.88,1.88-3,2,.22.79.55,3.94,1.22,4.71,3.21,3.67,20,12.07,20,12.07l4.69,1.66Z"/><path class="cls-27" d="M36,67.67s0,0,0,0,0,.08,0,.12Z"/><path class="cls-27" d="M38.07,79.25s0,0,0,0l0-.07Z"/><path class="cls-42" d="M45.44,66h0l0,0Z"/><path class="cls-42" d="M39.38,67.07l0,0v0Z"/><path class="cls-42" d="M45.31,66h-.06S45.29,66,45.31,66Z"/><path class="cls-42" d="M36.13,67.65s0,0,0,0Z"/><path class="cls-13" d="M49.93,108.78a1.63,1.63,0,0,0,1-1.21c0-.24-.17-.31-.25-.58l-4.34-4.22c1-.53,3.2,1.2,4.08.5s-.31-1.15-.52-1.33-4.19-2.1-4.19-2.1a41.86,41.86,0,0,0-4.86-.34c-.93.12-3.5.84-3.5.84l-1.15.24s-2.76,4.24-3.62,5.79c-.09.15,2,.65,3.09,1.63a18.87,18.87,0,0,0,3.81,2.16s4.9,1.1,5.57.94a4.58,4.58,0,0,0,1.57-1.17,4.71,4.71,0,0,1,1.3,0c1.17.08,1.84-1.23,1.84-1.23h0Z"/><path class="cls-43" d="M46.93,103.3a15.42,15.42,0,0,1-1.86-1.24,8.48,8.48,0,0,1-1.8-1.35,10,10,0,0,1,2,1.12A6.31,6.31,0,0,1,46.93,103.3Z"/><path class="cls-43" d="M43.86,105.33a11.9,11.9,0,0,1,2.92,1.55c.77.49,1.45,1,1.95,1.28a4.4,4.4,0,0,1,.79.57,3,3,0,0,1-.9-.4c-.52-.29-1.22-.72-2-1.22C45.11,106.12,43.83,105.39,43.86,105.33Z"/><path class="cls-43" d="M42.2,107.33c0-.07,1,.64,2.18,1.35s2.3,1.15,2.29,1.21a6.79,6.79,0,0,1-2.41-1A6.88,6.88,0,0,1,42.2,107.33Z"/><path class="cls-31" d="M19.5,76c.08-1.14.2-6,.26-6.85s.12-1.76.15-2.34c0-.23.05-.44,0-.59a1.49,1.49,0,0,0,0-.21,1.36,1.36,0,0,0,0,.2c0,.14,0,.34-.06.59-.05.59-.12,1.35-.22,2.34-.06.76-.28,5.3-.35,6.27C19.32,75.5,19.46,75.81,19.5,76Z"/><path class="cls-31" d="M36.22,101.11l1.26-1.89.11-.1L37.46,99l-6.8-4.14-7.92-6.76a.65.65,0,0,0,0,.11l0,.13,7.8,6.75,6.66,4.06c-.38.57-.77,1.16-1.18,1.76l-3.68,5.63c-5-2.1-5.49-2.08-10.62-4.5-.06.06,0,.16-.07.21,5.34,2.58,5.64,2.49,10.67,4.62l.12,0,.09-.09C33.68,105.06,34.9,103.08,36.22,101.11Z"/><path class="cls-31" d="M8.66,88.41a5.62,5.62,0,0,1,1.21-1,14.74,14.74,0,0,1,7-2.46,5.67,5.67,0,0,1,1.54,0,12.75,12.75,0,0,1-1.51.21,18.86,18.86,0,0,0-3.56.86A18.61,18.61,0,0,0,10,87.62,13.39,13.39,0,0,1,8.66,88.41Z"/><path class="cls-31" d="M12.45,84.31a6.54,6.54,0,0,1,3-.31,6.67,6.67,0,0,1,3,.82c0,.09-1.32-.39-3-.52S12.46,84.4,12.45,84.31Z"/><polygon class="cls-31" points="22.74 88.14 18.97 84.83 19.55 74.86 19.28 74.63 18.66 84.93 23.03 88.68 22.74 88.14"/><path class="cls-31" d="M12,96.38s9.69,5.73,10,5.9l-.15.17s-9.71-5.49-10-5.89Z"/><path class="cls-24" d="M42.76,34.77c-1.58,0-4.14-.17-4.14-.17a3.9,3.9,0,0,0,4.15,3.11,3.91,3.91,0,0,0,4.13-3.13S44.34,34.77,42.76,34.77Z"/><path class="cls-25" d="M42.77,34.77c-.75,0-3.77-.11-3.77-.11a4.24,4.24,0,0,0,3.72,1.64c2.94,0,3.8-1.64,3.8-1.64Z"/><path class="cls-26" d="M42.81,34.89c-.75,0-3-.12-3-.12s.82.82,3.08.81,3-.81,3-.81Z"/><path class="cls-24" d="M47.06,34.35a6.24,6.24,0,0,1-.89.09c-.62,0-1-.21-1.46-.25a7.07,7.07,0,0,0-1.59.25,6.65,6.65,0,0,0-1.59-.24c-.45,0-1.57.21-2.19.26a6.43,6.43,0,0,1-.89-.09c-.11,0,.11.84,4.31.83S47.17,34.37,47.06,34.35Z"/><path class="cls-35" d="M38.15,34.36a1.15,1.15,0,0,0-.48.65,1,1,0,0,0,0,.3l.07.46s0,.06,0,.08a.2.2,0,0,0,.09,0,.69.69,0,0,0,.32,0,.24.24,0,0,0,.22-.2.29.29,0,0,1,0-.13c0-.07.15-.06.23-.08s.27-.31.37-.5a1.1,1.1,0,0,1,.69-.5,2.07,2.07,0,0,0,.42-.14.41.41,0,0,0,.24-.34"/><path class="cls-35" d="M47.39,34.67a.82.82,0,0,1,.36,1l-.12.45s0,.06,0,.08a.25.25,0,0,1-.09,0,.69.69,0,0,1-.32,0A.24.24,0,0,1,47,36s0-.09,0-.13-.14-.08-.22-.1-.24-.34-.32-.54a1.11,1.11,0,0,0-.64-.56,1.65,1.65,0,0,1-.41-.18.42.42,0,0,1-.21-.36"/><path class="cls-35" d="M38.55,34.05c.15-.19.3-.12.52-.16a.57.57,0,0,0,.27-.13c.07-.07.1-.18.18-.24s0,0,0,0l.15.08a.54.54,0,0,0,.25.06.8.8,0,0,0,.55-.2l0,0c-.09,0-.1,0-.06,0a.26.26,0,0,0,.1.07.49.49,0,0,0,.29.06.87.87,0,0,0,.55-.29c.05,0,.12-.07,0-.08s.1,0,.14.05a.68.68,0,0,0,.28.07.59.59,0,0,0,.52-.24c.08-.11-.06-.17-.14-.18a.37.37,0,0,0-.34.15c.12,0,.16,0,.09-.06A.2.2,0,0,1,42,33l-.14,0a.65.65,0,0,0-.34,0,.66.66,0,0,0-.27.12.84.84,0,0,0-.24.22s0,0,0,0l0,0-.12-.08a.46.46,0,0,0-.26,0,.92.92,0,0,0-.28.09s-.16.14-.21.14,0,0,0-.05l-.12-.06a.62.62,0,0,0-.3-.06.78.78,0,0,0-.55.26,1.13,1.13,0,0,0-.1.13l0,0c.07,0,.08,0,0,0a.77.77,0,0,0-.33,0,.94.94,0,0,0-.52.33c-.2.24.29.27.42.11Z"/><path class="cls-35" d="M44.34,33.5c-.17.06-.07,0-.05,0s.06,0,.08,0,.11.08.18.11a.72.72,0,0,0,.2.09,1.22,1.22,0,0,0,.27,0c.1,0,0,0,.07,0a.5.5,0,0,1,.07.08.39.39,0,0,0,.24.12,1,1,0,0,0,.54-.14c.09-.06-.06,0,0,0s0,0,0,.06a.67.67,0,0,0,.11.18.6.6,0,0,0,.5.14s.12,0,.16,0,0,.11.06.16a.25.25,0,0,0,.16.16l.12,0c.07,0,0,0,0,0,0,.22.56.09.52-.14a.23.23,0,0,0-.16-.16s-.12,0-.14,0,0,0,0,0a.39.39,0,0,0-.36-.31h-.29c-.09,0-.11,0-.16-.09s-.16-.28-.36-.3a.7.7,0,0,0-.37.09s-.12,0-.13.06h0s.06,0,0,0c-.1-.22-.34-.17-.53-.19s-.25-.13-.37-.19a.64.64,0,0,0-.57,0c-.1,0-.2.15-.13.25s.25.06.35,0Z"/><path class="cls-35" d="M42.72,33.5l-.18.7a.25.25,0,0,1-.23.2c-.76.06-3.66.3-4.34.26a2.4,2.4,0,0,0,0,.28l-.16,0c-.26-.06,0-.91.22-1a17.69,17.69,0,0,1,1.85-.49,16,16,0,0,1,2.57-.26A.26.26,0,0,1,42.72,33.5Z"/><path class="cls-35" d="M43.61,33.62l0,.66a.27.27,0,0,0,.2.22c.7.15,3,.63,3.63.66h0l.21,0c.24,0,.13-.58-.09-.69a11.45,11.45,0,0,0-1.49-.64,12.48,12.48,0,0,0-2.24-.48A.25.25,0,0,0,43.61,33.62Z"/><path class="cls-44" d="M194.15,89.75s9.52,14.72,3.68,25.79c-2.78,5.26-11.11,5.26-11.11,5.26l-8.54-10.74V92.29Z"/><path class="cls-44" d="M135.94,109c.43,12.94,1.47,32,3.53,45.22,0,0,12.68,3.33,14.16.44,0,0,1.1-22.36,6-38.22,4.31-14,30.52-15,27.19-16.3-5.24-2-38.84-6.34-45.33-4C137.2,97.7,135.65,100.44,135.94,109Z"/><path class="cls-44" d="M144.8,114.43c-.07-.83-.18-1.66-.32-2.48a35.84,35.84,0,0,0-1.43-5.43,37.82,37.82,0,0,0-2.26-5.27,33.36,33.36,0,0,0-2-3.3c16.36-2.7,49.94,1.23,49.94,1.23s12.37,3.91,8.76,14.75c-4.77,14.37-40.31,5-52.51.57Z"/><path class="cls-44" d="M142.47,98.44a21.26,21.26,0,0,1,4.4.72,13,13,0,0,1-.21-2.26c.3-.25.62-.5.94-.75a28,28,0,0,1,3.94,2.57,37,37,0,0,1,4.1,3.73,33.19,33.19,0,0,1,3.37,4.24c.28.43,4.37.87,4.63,1.31,0,0-.2,2.58-.25,2.58,3.7,7-2.11,17.33-1.75,29.76.32,10.91.35,8.32.94,14.12-1.75,2.62-15.11,1.39-15.11,1.39C145.77,139,142.47,98.44,142.47,98.44Z"/><path class="cls-45" d="M149.54,97.44s-5.86-.77-7.21,1.64-.65,5.71-.65,5.71-.61-5.55,2.19-6.5A18.31,18.31,0,0,1,149.54,97.44Z"/><path class="cls-6" d="M163,80.89l-.8-4.48-.15-.08c-.1-.17-.27-.52-.54-.49a3.53,3.53,0,0,1-3-1.24c-.75-.8-1.45-1.63-2.23-2.41a10.23,10.23,0,0,0-3-2.16c.17-.78.32-1.57.45-2.36.9-3.16.39-6.75,1.44-9.86a20.06,20.06,0,0,1,1.8-4.14c1.59-1.79,3.34-2.08,4.21-2.68l5.55-2.23,3.07-1.18,7.79-3.72,5.65,2.31s7.06,1.89,8.55,3c1.82,1.33.29,26.3.29,26.3a44.88,44.88,0,0,0,6.53,19.66c0,.07.2.53.23.6.07.23-1.37,1.24-1.56,1.36a11.2,11.2,0,0,1-2.23.73,18,18,0,0,1-3.87.61c-1.91.29-3.83.53-5.76.63s-2,.62-6.32.21L159.86,95.9l2-6.76A25.33,25.33,0,0,0,163,80.89Z"/><path class="cls-13" d="M179.07,35.55s-.4,5.58,1.32,9.24c.24.51,3.74,1.71,3.74,1.71l-4.4,2A26.06,26.06,0,0,1,171,49.62c-1.34-.11-3.23,0-4.25-.86h0s2.38-1,2.47-1.62-.72-6.14-.72-6.14"/><path class="cls-16" d="M169,45.34a13.46,13.46,0,0,1,2-1.07c.76-.28,2.11-.33,5.49-3.75a7.12,7.12,0,0,1-5.32,5.12,6,6,0,0,1-2.07.25Z"/><path class="cls-13" d="M163.24,22a.36.36,0,0,1,0,.09l.05,0Zm-2,.82v0l.08-.1S161.26,22.8,161.26,22.8ZM179,36.4l.13-.75c1.12,1.17,2.57,0,2.43-1.9.38-1,.66-4.14-.22-5l-.11-.12c-.59-.35-1.56-.4-1.86.35-.09.33.06.7,0,1a7.5,7.5,0,0,1-.67,1.44,20,20,0,0,1-.62-2.55,6.33,6.33,0,0,0-2.69-4s-.43-2.89-1.23-3.63l-.25-.05c-.14,0-.22.08-.36.1s0-.09,0-.18a1.43,1.43,0,0,1-.6.15c0-.05.13-.11.12-.15a2.62,2.62,0,0,1-.56.09c0-.05.12-.15.11-.19-.22.12-.37.06-.56.09a.37.37,0,0,0,.07-.19,1.25,1.25,0,0,1-.56.14s.07-.15.11-.2c-.22.13-.37.07-.56.1,0,0,.08-.1.07-.15a1.49,1.49,0,0,1-.46.12s.08-.1.08-.14a1.48,1.48,0,0,1-.61.1l.11-.19a.68.68,0,0,1-.55.18s.12-.16.11-.2a.91.91,0,0,1-.73.21s.12-.15.11-.19a.92.92,0,0,1-.63.24c0-.05.07-.15.15-.25a1,1,0,0,1-.87.28c.05,0,.08-.15.07-.19-.16.2.16-.07-.09-.07,0,0-.51.26-.51.21-.17.16.37-.81.14-.77,0-.09-1.33.31-1.25.21-.21.21-.18.11-.46.11,0,0-.89.68-.85.63-.2.25-.33.09-.62.09,0-.05.2.16.24.11-.16.2-.14,0-.37,0,0,0-.81-.15-.82-.19-.21.17-.13.17-.41.22,0,0-.1.5-.06.45-.16.2-.17.06-.41.06l-.21.2c-.2.25.11.1-.18.11,0,0,1.08-.05,1.11-.11a1.72,1.72,0,0,1-.55.37c0-.05,0-.14,0-.18a.92.92,0,0,1-.7.38s.08-.1.07-.14a.72.72,0,0,1-.76.34h0a1.47,1.47,0,0,1-.6.41.17.17,0,0,1,.06-.18l-.18,0a3.13,3.13,0,0,0-.39,1.16s-1.22,2.74-.91,4.32,1.05,4.24,1.22,4.92a13.71,13.71,0,0,1,.27,2.16,6.8,6.8,0,0,0,.7,3.11,9,9,0,0,0,2,3A20.48,20.48,0,0,0,167,44.54a4.53,4.53,0,0,0,3,.81c2.92-.35,5.47-2.79,7-5"/><path class="cls-46" d="M160.1,26c.72-2.69,3.4-4.56,9.19-6.27a21.34,21.34,0,0,1,10.77-.31c-4.16-8-12.71-6.3-14.62-6s-9.77,9.78-6.15,15.92l.27.63S160,26.46,160.1,26Z"/><path class="cls-46" d="M181.29,17.37s-.18-5.42-4.35-6.56c-5.57-1.51-12.81-1.38-14.43,4.49Z"/><path class="cls-47" d="M182.91,30.33c.35-.5,0-1.71.32-2.25a6,6,0,0,0-.51-6.6c-.43-.59-.17-1.8-.29-2.36-.65-2.93-1-3-5.91-5.26-4-1.87-7.85-1.11-10.08-.62-3.56.79-5.11,1.28-5.94,4-.11.36.11.6,0,1-.1.6-.79,1.25-.82,2a54.82,54.82,0,0,1,9.06,2.12c4.31,1.47,12.72,8.58,12.85,11.11A28.87,28.87,0,0,1,182.91,30.33Z"/><path class="cls-46" d="M183.94,24.4s-8.19-7.24-15.62-6.07c0,0,9.29-2.82,14.65,3.32l.14.26a6.63,6.63,0,0,1,.78,2.18Z"/><path class="cls-46" d="M160.46,18.42l.47-.27a12.82,12.82,0,0,1,3.51-1.4l2.06-.49s-5.18,0-6.09,1.42Z"/><path class="cls-48" d="M179.85,35.07a.89.89,0,0,1,.85,1.32.7.7,0,0,1-.27.27.81.81,0,0,1-.77,0s-.24.06-.16.1a1.19,1.19,0,0,0,1.26-.22,1,1,0,0,0,0-1.32,1.08,1.08,0,0,0-.79-.28s-.11,0-.13.06,0,0,0,0Z"/><path class="cls-18" d="M177.4,28.14l.95,4.13,1.16-2.09S178,28.71,177.4,28.14Z"/><path class="cls-36" d="M179.39,32.79c.14,0,.34,0,.39.12a1,1,0,0,1-.05.43c-.07.31-.18.71.1.94s.71-.25.82-.53a2,2,0,0,0,.08-1.18c-.1-.4-.29-.93-.74-1-.08,0-.23.1-.11.13.37.1.53.55.63.88a1.84,1.84,0,0,1,0,1,1.1,1.1,0,0,1-.34.59c-.12.1-.23,0-.28-.15a1.89,1.89,0,0,1,.1-.91.5.5,0,0,0-.07-.38.55.55,0,0,0-.5-.08c-.11,0-.16.16,0,.14Z"/><path class="cls-46" d="M179.63,25.81s3.08,2.28,3.47,3.33l.13-1.06A5.57,5.57,0,0,0,179.63,25.81Z"/><path class="cls-17" d="M166.73,37.34a1.37,1.37,0,0,0,1.21-.28c.07-.07.33-.06.23,0a1.93,1.93,0,0,1-1.64.36c-.05,0-.05,0,0-.08a.25.25,0,0,1,.19,0"/><path class="cls-17" d="M168.31,37a2,2,0,0,1,.72-.31.16.16,0,0,1,.12,0,0,0,0,0,1,0,.07.94.94,0,0,1-.4.16.15.15,0,0,1-.13,0s0-.06,0-.06a.62.62,0,0,0,.32-.14l.13.08a2,2,0,0,0-.64.28.14.14,0,0,1-.14,0s-.07,0,0-.07"/><path class="cls-17" d="M169.34,36.82a1.08,1.08,0,0,0,.75-.5.87.87,0,0,0-.55-1s0-.05,0-.06a.25.25,0,0,1,.17,0,1.1,1.1,0,0,1,.66.88.83.83,0,0,1-.6.71,2.13,2.13,0,0,1-.33.11s-.13,0-.16,0,0-.05.05-.06"/><path class="cls-17" d="M166.15,37.27s0-.05-.05-.05a.34.34,0,0,1-.24,0l-.07.11a1,1,0,0,1,.51.09.1.1,0,0,0,.09,0,.05.05,0,0,0,0-.08"/><path class="cls-17" d="M166.39,37.28a1.23,1.23,0,0,0-.56-.1.1.1,0,0,0-.08,0s0,.05,0,.06"/><path class="cls-17" d="M165.53,37.42a.63.63,0,0,1-.59-.28.91.91,0,0,1,.08-1s0-.05,0-.06a.16.16,0,0,0-.1,0,1,1,0,0,0-.18.88.68.68,0,0,0,.55.52.6.6,0,0,0,.23,0,.1.1,0,0,0,.09-.06s0,0-.05,0"/><path class="cls-18" d="M161.8,32a.74.74,0,0,0-.74.26.63.63,0,0,0-.12.34.69.69,0,0,0,.27.59.63.63,0,0,0,.74,0,.69.69,0,0,0,.2-.86.61.61,0,0,0-.35-.33"/><path class="cls-18" d="M164.63,32.38a5.92,5.92,0,0,0-2.09-.74,3.21,3.21,0,0,0-2.29,1.3,6.13,6.13,0,0,1,2.09-1.06A10.64,10.64,0,0,1,164.63,32.38Z"/><path class="cls-18" d="M169.69,30.77a.9.9,0,0,1,.86-.09.66.66,0,0,1,.25.27.71.71,0,0,1-.06.65.64.64,0,0,1-.7.24.69.69,0,0,1-.47-.75c0-.05-.07-.14.12-.28"/><path class="cls-18" d="M168.69,31.57a6.69,6.69,0,0,1,2-1.29,3.67,3.67,0,0,1,2.76.63,7.16,7.16,0,0,0-2.48-.45A12.13,12.13,0,0,0,168.69,31.57Z"/><path class="cls-18" d="M159.78,31.4a.22.22,0,0,0,0-.08c0-.07,0-.15,0-.23a.44.44,0,0,0,0-.16h0c0-.07.05-.13.07-.19a1,1,0,0,1,.18-.2,2.57,2.57,0,0,1,.85-.53,10.19,10.19,0,0,1,2.88-.35l.06.58c0,.15,0,.3,0,.44-.5-.06-.93-.09-1.26-.11a4.3,4.3,0,0,0-1.42.07,3.9,3.9,0,0,0-.85.39,2.14,2.14,0,0,0-.44.31Z"/><path class="cls-18" d="M167.9,28.68c0,.19.11.37.16.56l.12.43c.52-.27,1-.48,1.33-.63a6,6,0,0,1,1.57-.53,4.74,4.74,0,0,1,1.09,0,2.68,2.68,0,0,1,.6.1c.44.13.66.35.72.31s-.11-.24-.12-.26a2.41,2.41,0,0,0-1.06-.74,3.27,3.27,0,0,0-1.14-.12,13,13,0,0,0-3.27.88"/><line class="cls-49" x1="168.4" y1="69.38" x2="168.4" y2="69.59"/><path class="cls-24" d="M168.26,39.25c1.44-.28,3.73-.9,3.73-.9a4,4,0,0,1-7.53,1.47S166.82,39.54,168.26,39.25Z"/><path class="cls-25" d="M168.25,39.26c.68-.14,3.41-.79,3.41-.79a3.93,3.93,0,0,1-3.09,2.17c-2.68.52-3.76-.81-3.76-.81Z"/><path class="cls-26" d="M168.24,39.37c.68-.14,2.74-.66,2.74-.66a4.22,4.22,0,0,1-2.66,1.3c-2,.4-2.84-.2-2.84-.2Z"/><path class="cls-24" d="M164.27,39.64a5.65,5.65,0,0,0,.82-.07c.56-.16.88-.38,1.29-.49a6.26,6.26,0,0,1,1.49-.06,6.5,6.5,0,0,1,1.41-.51c.41,0,1.46-.09,2-.16a4.05,4.05,0,0,0,.79-.24c.11,0,.06.78-3.77,1.53S164.17,39.69,164.27,39.64Z"/><path class="cls-44" d="M189.21,58s0-.5,0-1.22a7.4,7.4,0,0,1,.65-2.81,8.19,8.19,0,0,1,.82-1.36,6.75,6.75,0,0,1,.89-1c.56-.49,1-.71.95-.75s-.12,0-.31.13a2.9,2.9,0,0,0-.33.2,4,4,0,0,0-.42.3,6,6,0,0,0-.95.94,7.29,7.29,0,0,0-.86,1.41,6.6,6.6,0,0,0-.61,2.9,5.51,5.51,0,0,0,.1.9A.9.9,0,0,0,189.21,58Z"/><path class="cls-44" d="M159.68,61.81a62.28,62.28,0,0,0-.56,8c.16,2.2,2.77,6.23,3.1,6.73-.08,0,.07.38,0,.43l-.22-.34a14.9,14.9,0,0,1-2.56-4.32C158,68.9,159.68,61.81,159.68,61.81Z"/><path class="cls-44" d="M192.34,72.44a.63.63,0,0,0-.19.26,88.73,88.73,0,0,1-2.93-11.9S190.83,67.47,192.34,72.44Z"/><path class="cls-50" d="M84.71,26.49l.13,1.07a15.26,15.26,0,0,0,.5,3c.26.67,4.35,1.72,5.26,1.41s1.84-2.59,2.17-3.09l1.64.42a14.2,14.2,0,0,0,.32,3.46c.26.36,2.17.69,2.38.73l.71.1a4,4,0,0,0,2-.07,11.06,11.06,0,0,0,1.87-3.08l.11-.21c0-.05,0-.09,0-.1h0l.12-.25a7.83,7.83,0,0,0-7.51-1v0l-1.6-.42a8.93,8.93,0,0,0-7-2.45h0L80,25.43l-.15.61Zm10.26,6a15,15,0,0,1-.28-3.17,7.49,7.49,0,0,1,6.7.87v0a12.79,12.79,0,0,1-1.77,3c-.55.37-4.35-.33-4.64-.69Zm-9.11-2.08a21.7,21.7,0,0,1-.65-3.84c2.19-.51,5.59.7,7.14,2.21-.48.93-1.19,2.59-1.84,2.81-.94.32-4.49-.76-4.65-1.18Z"/><path class="cls-51" d="M95,32.52a14.09,14.09,0,0,1-.29-3.17,7.46,7.46,0,0,1,6.7.88v0a12.65,12.65,0,0,1-1.76,3c-.56.36-4.36-.33-4.64-.69Z"/><path class="cls-51" d="M85.87,30.42a20.84,20.84,0,0,1-.66-3.84c2.2-.51,5.59.7,7.14,2.21-.48.93-1.19,2.59-1.84,2.81-.94.32-4.48-.76-4.64-1.18Z"/><path class="cls-50" d="M33.49,25.36l.35,1.09a14.79,14.79,0,0,0,1.09,3c.4.65,4.9,1,5.79.46s1.43-3.07,1.68-3.66l1.8.13a15.16,15.16,0,0,0,1,3.57c.34.33,2.41.31,2.64.3l.76,0a4.25,4.25,0,0,0,2-.44A11.63,11.63,0,0,0,52,26.2l.07-.25a.51.51,0,0,0,0-.11h0l.08-.28a8.36,8.36,0,0,0-8.08.35l0,0-1.76-.13a9.5,9.5,0,0,0-7.85-1.22h0l-6,1.16,0,.67Zm11.93,4.35a15.38,15.38,0,0,1-.91-3.27,8,8,0,0,1,7.19-.37v0a13.68,13.68,0,0,1-1.28,3.45c-.52.48-4.63.49-5,.17Zm-10-.43A22.49,22.49,0,0,1,34,25.38c2.2-1,6-.34,7.92.94-.33,1.07-.76,2.95-1.4,3.31-.92.52-4.85.06-5.09-.35Z"/><path class="cls-51" d="M45.44,29.67a15.38,15.38,0,0,1-.91-3.27,8,8,0,0,1,7.2-.37v0a13.83,13.83,0,0,1-1.29,3.44c-.51.49-4.63.5-5,.17Z"/><path class="cls-51" d="M35.44,29.3A22.86,22.86,0,0,1,34,25.39c2.2-1,6-.34,7.91.95-.33,1.07-.75,2.95-1.39,3.3-.92.52-4.85.07-5.1-.34Z"/><path class="cls-15" d="M97.89,80.44s.25,2.19.48,3.52a41.46,41.46,0,0,0,1.07,4.41c.32,1,1.52,3.08,1.52,5.28h-.7a22.55,22.55,0,0,0-1.45-5.78c-1.33-3.58-1.55-7.16-1.1-7.65S97.89,80.44,97.89,80.44Z"/><path class="cls-44" d="M163,81.5s.2-3.47-.75-5l-.07.3s.9,3.86.62,5.1Z"/><path class="cls-6" d="M195.88,51.17c-.76-2-6.17-3.25-8.69-3.91-1.73,1.34-1,3.86-1.38,6.1a33.53,33.53,0,0,0,.14,9.06,97.6,97.6,0,0,0,2.48,12.77A38.77,38.77,0,0,0,191,82.58a38.2,38.2,0,0,0,3.65,5.69c.6.81,1.22,1.61,1.84,2.42a17.06,17.06,0,0,0-1-4.71"/><path class="cls-6" d="M149.34,68.46,146,74.24s-3.14,2.66-3,6,1.61,6.57,5,6.74,5.43-.76,6.76-2.37A17.67,17.67,0,0,0,157,80.26l3.19-11A92.78,92.78,0,0,0,149.34,68.46Z"/><path class="cls-6" d="M195.64,50.81c3.72,3.38,6.27,27.16,6.27,27.63.07,2.68,2,10.28-4.81,12.41-5.75,1.8-19.18-4.73-19.18-4.73l3.71-7.45,10.24-.2h-.64L189,54.15"/><path class="cls-44" d="M188.19,61.59c.08.45.18,1,.3,1.76.26,1.5.58,3.56.94,5.84s.64,4.36.82,5.86c.08.76.38,3.07.42,3.47h-.1c-.06-.21-.2-1.44-.22-1.66-.06-.46-.15-1.06-.25-1.78-.22-1.5-.52-3.58-.87-5.85s-.65-4.31-.88-5.85q-.14-1.08-.24-1.77,0-.33-.06-.66A3.58,3.58,0,0,1,188.19,61.59Z"/><path class="cls-44" d="M188.31,51.56a10.93,10.93,0,0,0-.41,1.22,11.64,11.64,0,0,0-.25,1.55,19.39,19.39,0,0,0-.08,2.85,7.89,7.89,0,0,1,0,1.19,5.8,5.8,0,0,1-.18-1.18,15.61,15.61,0,0,1,0-2.9,12.25,12.25,0,0,1,.31-1.58,9.57,9.57,0,0,1,.47-1.22,7.07,7.07,0,0,1,.43-.76,1.06,1.06,0,0,1,.2-.26S188.62,50.88,188.31,51.56Z"/><path class="cls-44" d="M195,91.19a15.28,15.28,0,0,1-4.21-.35c-.86-.19-1.83-.33-2.85-.59s-2.08-.65-3.19-1c-2.21-.82-4.61-1.79-7.12-2.85l-.32-.14-.1,0,.05-.1L181,78.63l0-.06h0c1.65,0,3.15-.09,4.5-.11s2.52,0,3.49,0c.76,0,1.51.07,2.26.16a5.58,5.58,0,0,1,.59.1l.21,0a7.69,7.69,0,0,1-.82-.09,20.7,20.7,0,0,0-2.25-.1c-1,0-2.15,0-3.49.07s-2.85.14-4.5.14l.08-.05c-1.1,2.24-2.36,4.77-3.7,7.45l0-.14.32.13c2.5,1,4.9,2,7.11,2.85A26.07,26.07,0,0,0,188,90.06c1,.24,2,.44,2.85.62a15.87,15.87,0,0,0,4.18.41,7,7,0,0,0,1.12-.17l.29-.07h.11A5.32,5.32,0,0,1,195,91.19Z"/><path class="cls-52" d="M171.22,77l-3.78,2.28-5.83,3.3-9.13.2L139.66,63.59l.49-1s8.6,1.68,9.63,2.25a6.39,6.39,0,0,1,1.2,1.29l.13-.2c.5-.74,1.25-.9,2.06-1.28,2.51-1.17,8.35-3.76,9.62-3.87a3.29,3.29,0,0,1,2.61.92Z"/><polygon class="cls-53" points="138.8 63.59 148.75 82.43 156.57 84.37 159.57 84.37 174.03 79.65 165.99 61.46 152.36 67.27 149.47 67.21 138.8 63.59"/><path class="cls-50" d="M156,76c2,4.72,3.52,8.55,3.47,8.58s-1.7-3.78-3.67-8.5-3.51-8.57-3.46-8.57S154,71.27,156,76Z"/><path class="cls-50" d="M153.13,75.7c2,4.72,3.52,8.55,3.47,8.58s-1.7-3.78-3.66-8.5-3.52-8.55-3.47-8.57S151.16,71,153.13,75.7Z"/><path class="cls-50" d="M161.47,68.82c2.57-1,4.66-1.78,4.68-1.73s-2,.91-4.6,1.93-4.66,1.79-4.68,1.73S158.9,69.83,161.47,68.82Z"/><path class="cls-13" d="M179.62,81.07c-.28.62-2.31,4.5-2.31,4.5s-1.11-.18-1.81-.27a24.42,24.42,0,0,1-3.1-1.07s-3.06-1.41-3.45-2-.34-.55-.34-.55a3,3,0,0,1-1-.85c-.18-.4-.29-.83.11-1a3.93,3.93,0,0,1,1.63,0,1.72,1.72,0,0,1-.55-1c-.08-.58.56-.7.81-.7s4.76,1.39,5.07,1.45a.32.32,0,0,0,.17,0,.43.43,0,0,0,.35-.5.54.54,0,0,0-.15-.29,1,1,0,0,0-.63-.31L170.85,78s-1.1-.7-.86-1.4,5.88-.65,5.88-.65a11.35,11.35,0,0,1,2.54.92,18.14,18.14,0,0,1,1.78,2.79A5,5,0,0,1,179.62,81.07Z"/><path class="cls-16" d="M172.05,81.16a9.94,9.94,0,0,0,2.14.57,9.26,9.26,0,0,1,.92.13,2.64,2.64,0,0,1-.93,0,7.93,7.93,0,0,1-2.2-.52,10.85,10.85,0,0,1-2-1,3.44,3.44,0,0,1-.74-.58A28.43,28.43,0,0,0,172.05,81.16Z"/><path class="cls-16" d="M171.06,82.56l1.71.72.52.23a.76.76,0,0,1,.18.09,9.3,9.3,0,0,1-2.49-.85,14.23,14.23,0,0,1-2.38-1.1A16.49,16.49,0,0,1,171.06,82.56Z"/><path class="cls-16" d="M177.4,77.92a4.76,4.76,0,0,0,.24-.58c.06,0,.16.33-.06.69s-.58.42-.58.36S177.22,78.2,177.4,77.92Z"/><path class="cls-16" d="M175.57,80.88c0-.24,0-.44,0-.48s.24.18.18.52-.32.49-.35.44S175.54,81.13,175.57,80.88Z"/><path class="cls-13" d="M144.9,72.13c-.14.51-1.27.59-1.27.59l.34.51s4.78.46,5.2.91a1.33,1.33,0,0,1,.2,1.19.84.84,0,0,1,.81.7,1,1,0,0,1-.49,1,1.63,1.63,0,0,1,0,.76l-3.33,3a2.58,2.58,0,0,1-2.06.41,1.65,1.65,0,0,1-1.16-1.28,6.66,6.66,0,0,1-.68-1.19,2.34,2.34,0,0,1,.23-2.14,1.65,1.65,0,0,1-.71-1.39,4.74,4.74,0,0,1,.92-2l-.58-.65a1.77,1.77,0,0,1-.79-1.24c-.09-.82.74-1,1.7-1.13s1.52,1.13,1.52,1.13A.88.88,0,0,1,144.9,72.13Z"/><path class="cls-16" d="M146.83,76c1.4-.21,2.5-.6,2.53-.54a9.39,9.39,0,0,1-5.11.78C144.25,76.13,145.42,76.17,146.83,76Z"/><path class="cls-16" d="M147.12,77.88a26.79,26.79,0,0,1,2.61-.76,12.85,12.85,0,0,1-2.55,1,13.45,13.45,0,0,1-2.65.63A23.64,23.64,0,0,1,147.12,77.88Z"/><path class="cls-16" d="M143.18,72.48a2.33,2.33,0,0,0,.81.22s-.09.1-.26.1a1.23,1.23,0,0,1-.65-.13,1.19,1.19,0,0,1-.5-.44c-.08-.15-.1-.27-.08-.27S142.77,72.26,143.18,72.48Z"/><polygon class="cls-44" points="161.15 58.37 160.62 61.46 160.88 61.36 161.15 58.37"/><path class="cls-44" d="M190.26,78.54s3.93.07,5.53,2.21C195.79,80.75,194.4,77.63,190.26,78.54Z"/><path class="cls-13" d="M87.71,84s2.85-2.73,4.61-3.2c.49-.13,4.37-2.87,4.37-2.87s1.06.71-.29,2.08-1.92,1.89-1.92,1.89l-.19.55,3.07,1s3.67.56,4.54.77,2.75.59,2.84,1.74c0,0,1.41.17,1.4.85a1,1,0,0,1-.34.88l-.69.09s.35.21,0,.83-6.44.35-6.44.35l-.33.21s4,.83,4.11,1.22.15.69-.52.8-11.89-.64-13.15-1-1.56-.39-1.56-.39L86.92,84Z"/><path class="cls-43" d="M104.88,87.53a19.63,19.63,0,0,1-3.16-.16A20.48,20.48,0,0,1,98.6,87a18.47,18.47,0,0,1,3.15.15A19.44,19.44,0,0,1,104.88,87.53Z"/><path class="cls-43" d="M104.73,86.05c0,.07-1.37-.17-3-.34s-3.06-.25-3.06-.33a12.21,12.21,0,0,1,3.08.07A12,12,0,0,1,104.73,86.05Z"/><path class="cls-43" d="M96,83.91a6.51,6.51,0,0,1-3.22,4.55S97,86.71,96,83.91Z"/></g></svg>