<svg id="Layer_1" data-name="Layer 1" xmlns="http://www.w3.org/2000/svg" xmlns:xlink="http://www.w3.org/1999/xlink" viewBox="0 0 205.83 138.61"><defs><style>.cls-1,.cls-19{fill:none;}.cls-2{clip-path:url(#clip-path);}.cls-3{fill:#a56530;}.cls-4{fill:#8c542a;}.cls-5{fill:#c95744;}.cls-6{fill:#ccb631;}.cls-7{fill:#3ba448;}.cls-8{fill:#993a2f;stroke:#993a2f;stroke-width:0.04px;}.cls-19,.cls-24,.cls-28,.cls-8{stroke-miterlimit:10;}.cls-9{fill:#c98532;}.cls-10,.cls-24{fill:#84722c;}.cls-11{fill:#5e5f5f;}.cls-12{fill:#853324;}.cls-13{fill:#9e684a;}.cls-14{fill:#ec9a6f;}.cls-15{fill:#4f2e25;}.cls-16{fill:#010101;}.cls-17{fill:#13110f;}.cls-18{fill:#878787;}.cls-19{stroke:#010101;stroke-width:0.2px;}.cls-20{fill:#273339;}.cls-21{fill:#fff;opacity:0.14;}.cls-22{fill:#622515;}.cls-23{fill:#51441c;}.cls-24{stroke:#84722c;stroke-width:0.17px;}.cls-25{fill:#653c29;}.cls-26{fill:#31160e;}.cls-27{fill:#5fa0ae;}.cls-28{fill:#395557;stroke:#395557;stroke-width:0.18px;}.cls-29{fill:#513835;}.cls-30{fill:#1c3b53;}.cls-31{fill:#825639;}.cls-32{fill:#151210;}.cls-33{fill:#231f20;}.cls-34{fill:#161312;}.cls-35{fill:#171514;}.cls-36{fill:#181615;}.cls-37{fill:#714534;}.cls-38{fill:#191716;}.cls-39{fill:#745245;}.cls-40{fill:#812b24;}.cls-41{fill:#481917;}.cls-42{fill:#b15e27;}.cls-43{fill:#df8c26;}.cls-44{fill:#ce8d2a;}.cls-45{fill:#8e6528;}.cls-46{fill:#132b3a;}.cls-47{fill:#684133;}.cls-48{fill:#89762e;}</style><clipPath id="clip-path"><rect class="cls-1" width="205.83" height="138.61"/></clipPath></defs><g class="cls-2"><path class="cls-3" d="M96.52,139.8c-.63-3.91-1.26-6.89-2-10.78-.22-1.2,0-1.89,1.65-1.66.35,0,.72,0,1.07,0,4.65.34,4.27-3.05,4-6.18-.11-1.22-1.34-1.51-2.68-1.5-6.18,0-12.35.78-18.53.78v-.74q-9.09,0-18.17,0c-2.61,0-3.09,1.26-3.09,3.84,0,2.37.52,3.76,3.16,3.77a13.2,13.2,0,0,0,1.78,0c1.74-.24,2.09.42,1.87,1.8-2.24,13.43-4.41,25.94-6.64,39.38-.15.91,0,1.27,1.19,1.29,3,0,3.07.1,3.49-2.42,1.42-8.57,2.82-17.14,4.15-25.72a3.92,3.92,0,0,1,.1-.43l.57-3.3,2-10.22a1.77,1.77,0,0,1,1.39-.39c5.45.07,10.91.08,16.37,0a2.56,2.56,0,0,1,1.15.18l2.25,10.11.62,3.6a2.26,2.26,0,0,1,.09.41c1.41,9,2.89,18.06,4.32,27.1.13.84.53,1.09,1.49,1.1,3.1,0,3.18.07,2.79-2.46C99.51,158.16,98,149,96.52,139.8Z"/><path class="cls-4" d="M101.08,121.09s-8,2-26.29,1c-8.56-.45-16.06-1.06-15.72-2.4s6.56-1.45,12.62-1.65,22.51-.12,22.51-.12,5.27,1.32,6.17,1.79C101.57,120.34,101.08,121.09,101.08,121.09Z"/><polygon class="cls-4" points="65.62 127.96 70.44 127.96 68.14 139.96 63.81 139.96 65.62 127.96"/><polygon class="cls-4" points="94.68 127.73 89.6 127.73 92.02 139.73 96.5 139.73 94.68 127.73"/><path class="cls-5" d="M159.65,78.89a43.21,43.21,0,0,0-9.36-1.77h0l-9,22.56,10.07.47s8.83-16.34,9.34-19.31a14.29,14.29,0,0,0,.19-1.5C160.44,79.2,160.06,79,159.65,78.89Z"/><path class="cls-6" d="M99.76,75a18.93,18.93,0,0,1,3.52,2.28c1.55,1.32.8,3.31,2.51,4.45l9.84,17-6.69,3.85c-.69.39.4-1.33-.16-.77l-7.58-3.55S99,87,96.85,83.83c-2.46-3.65-4.75-6.86-1.22-11.3C96.8,73,98.65,74.39,99.76,75Z"/><path class="cls-7" d="M119.11,131.28l.34-.5-.31-.21A2.8,2.8,0,0,1,119.11,131.28Z"/><path class="cls-8" d="M98.19,54.2A18.34,18.34,0,0,0,97.66,59,19.21,19.21,0,0,0,98.19,54.2Z"/><path class="cls-9" d="M74.05,47.51a35.81,35.81,0,0,0-4.76,3.21c-2.73,2.16-6.45,5-6.84,11.06s3.15,16,1,23.5A68.43,68.43,0,0,0,61,99.41L86.41,59.85Z"/><path class="cls-10" d="M57.85,103.22s-2.44,12.41,3.93,14.24,33.42,2.26,33.42,2.26.53,8,1.56,15.44c.95,6.82,2.58,16.64,2.58,16.64s20.33,1.37,22.5-2.57c1.9-14,3.7-28.26,2.88-42.47-.27-4.61-4.48-7.58-8.25-8.77s-9.69-1.66-13.77-1.94a73,73,0,0,0-11.12.72S71.29,108.24,57.85,103.22Z"/><path class="cls-11" d="M73.64,20.7a3,3,0,0,1,3.21-1.42c0-2.45,2.36-3.88,4.82-3.92,1.26,0,2.54.61,3.74.21a7.5,7.5,0,0,0,2-1.31c2.67-1.94,6.82.39,9,2.83s1.64,5.14.46,8.23a12.72,12.72,0,0,0-.65,3.75c-.17,1.45-1.07,4.14-1.1,5.58s2.21,3,.75,3.08l-15.82-2a4.23,4.23,0,0,1-5-2.37c-.77-1.42-.51-1.48-.6-3.09-.16-2.1-2.28-3.7-2.14-5.8A7.91,7.91,0,0,1,73.64,20.7Z"/><path class="cls-12" d="M71.67,20.6a24.61,24.61,0,0,1,12.56-1.81c7.06.85,10.47,5.21,11.67,8.33a9.56,9.56,0,0,1-.14,6.37s1.76.5,3-5.85c1.81-9.25-7.61-14.93-9.89-14.93S74.91,10.24,71.67,20.6Z"/><path class="cls-13" d="M77.59,36.86a36.67,36.67,0,0,1-1.86,9.46C75.51,46.87,72,48.9,72,48.9l5.08,1.77c2.86.7,9.27.65,12.05-.31l2.33-1.44s-2.91-.68-3-1.35.45-5.75.45-5.75"/><g id="freepik--character-2--inject-1332"><path class="cls-14" d="M83.13,58.31a6.75,6.75,0,0,1-.56-.93,3.57,3.57,0,0,1-.3-1.12,3.49,3.49,0,0,1,.14-1.4,3.6,3.6,0,0,1,.47-.94l0,0,0-.06c-.3-.67-.55-1.31-.74-1.73a2.75,2.75,0,0,0-.34-.66.55.55,0,0,0,0,.19l.2.5c.16.44.36,1.05.69,1.78v-.1a3.57,3.57,0,0,0-.65,2.49,3.85,3.85,0,0,0,.36,1.15,3.29,3.29,0,0,0,.44.68A.87.87,0,0,0,83.13,58.31Z"/><path class="cls-14" d="M76.67,56.82a4.68,4.68,0,0,0-.61-.57,3,3,0,0,1-1-1.61c-.07-.37,0-.75-.11-1.1a1.15,1.15,0,0,0-.48-.81.71.71,0,0,0-.62-.08c-.14.05-.19.13-.18.14a.6.6,0,0,1,.2-.08.7.7,0,0,1,.54.13,1.11,1.11,0,0,1,.38.73c.06.32,0,.7.09,1.1a2.36,2.36,0,0,0,.48,1,3.94,3.94,0,0,0,.65.64A3.37,3.37,0,0,0,76.67,56.82Z"/><path class="cls-14" d="M78.61,55.32a8.28,8.28,0,0,0-.89-.67A5.29,5.29,0,0,1,76,52.7a3.64,3.64,0,0,1-.22-.71,5.37,5.37,0,0,1,0-.7,1.49,1.49,0,0,0-.4-1.15.64.64,0,0,0-.47-.17.61.61,0,0,0-.35.11c-.18.13-.18.26-.17.26a.43.43,0,0,1,.2-.2.59.59,0,0,1,.69.09,1.39,1.39,0,0,1,.32,1.07,5.79,5.79,0,0,0,0,.72,2.83,2.83,0,0,0,.23.75,4.91,4.91,0,0,0,1.8,2l.69.44A1,1,0,0,0,78.61,55.32Z"/><path class="cls-14" d="M75.18,48.41a2.11,2.11,0,0,1,.61.75,4.48,4.48,0,0,1,.32,1,5.73,5.73,0,0,0,.42,1.29,4.9,4.9,0,0,0,1.6,1.84,4.13,4.13,0,0,0,.65.36.8.8,0,0,0,.26.09s-.34-.18-.83-.55a5.14,5.14,0,0,1-1.51-1.83,6,6,0,0,1-.4-1.24,4.3,4.3,0,0,0-.37-1A1.27,1.27,0,0,0,75.18,48.41Z"/></g><g id="freepik--character-1--inject-1332"><path class="cls-13" d="M89.12,48.15,75,47.84l-1.55,5.21s3.64,3.41,4,3.57,9.11,2.06,9.11,2.06S96.43,55,96.3,55,89.12,48.15,89.12,48.15Z"/><path class="cls-6" d="M63.45,107.34a11.07,11.07,0,0,0,2.9.53,22.79,22.79,0,0,0,3.2,0A19.37,19.37,0,0,0,75,106.76a49,49,0,0,0,4.8-2.13c3.15-1.58,6.25-2,9.4-3.53S93,97.59,96.49,97a43.15,43.15,0,0,1,8-.78c.45-2.6-1.91-7.18-1.91-7.18l-2.2-7.29,2.43-3.41c1.55-3.39,0-8.76-.82-10.07L95.33,50.55,89.13,48c.29.48,2.25,4.06-2.69,5.51l-1.23,0c-6.42-.1-11.16-6-11.16-6L72,48.7l-7,33s-6.18,14.87-6.27,21c0,.94-.44,1.31.49,2.71A19.66,19.66,0,0,0,63.45,107.34Z"/></g><path class="cls-6" d="M89.13,48s9.27,2,10.56,5c2,4.41,6.52,29.5,6.52,29.5l-8,1.37Z"/><path class="cls-10" d="M103.69,75.62a16.5,16.5,0,0,0-.41-3.35c-.22-1.21-.5-2.41-.82-3.6-.67-2.47-1.52-4.88-2.43-7.27-.44-1.15-.89-2.29-1.34-3.43.7,2.15,1.29,4.33,2,6.47a48.74,48.74,0,0,1,2,6.58c.55,2.68,1,3.88.27,6a19.74,19.74,0,0,1-2.58,4.65l.21.2S103.62,77.8,103.69,75.62Z"/><path class="cls-15" d="M88.45,46.17s-1.17-.22-2-.46-2.21-.22-5.9-3.53a7.33,7.33,0,0,0,5.81,5,5.84,5.84,0,0,0,2,.1Z"/><path class="cls-13" d="M93.13,22a.1.1,0,0,1,.05,0l0-.09Zm2,.61a.28.28,0,0,0,.09.1v0S95.14,22.53,95.14,22.57Zm-15,19.17c1.72,2.15,4.5,4.51,7.53,4.69a4.65,4.65,0,0,0,3-1,20.88,20.88,0,0,0,3.51-3.09A9.41,9.41,0,0,0,96,39.11a7,7,0,0,0,.53-3.25,14,14,0,0,1,.15-2.25c.12-.71.72-3.5.94-5.15a16.08,16.08,0,0,0-.77-4.9c0-.46-.69-.29-.9-.67l-.19,0a.19.19,0,0,1,.07.19,1.46,1.46,0,0,1-.64-.39h0a.75.75,0,0,1-.81-.31c0,.05,0,.14.08.15a1,1,0,0,1-.75-.35s0,.14,0,.18a1.89,1.89,0,0,1-.6-.34c0,.06,1.16,0,1.16,0-.3,0,0,.14-.2-.11l-.22-.19c-.25,0-.25.17-.43,0a1.5,1.5,0,0,0-.09-.46c-.29,0-.21,0-.44-.2,0,0-.82.2-.83.25-.24,0-.2.2-.38,0,0,.05.2-.17.24-.12-.3,0-.43.19-.64-.06,0,.05-.92-.59-.92-.59-.29,0-.25.11-.48-.09.09.1-1.34-.23-1.3-.13-.24,0,.37.94.19.78,0,.05-.55-.19-.55-.19-.24,0,.1.28-.08.08,0,.05,0,.18.08.19a1,1,0,0,1-.91-.23,2.35,2.35,0,0,1,.17.24,1,1,0,0,1-.67-.2s.08.18.13.19a1,1,0,0,1-.77-.17.5.5,0,0,0,.13.19.67.67,0,0,1-.58-.15l.13.19a1.45,1.45,0,0,1-.63-.06s.08.1.08.14a1.57,1.57,0,0,1-.48-.09s.13.15.08.14c-.2,0-.35.05-.58-.06,0,.05.08.14.12.19a1.32,1.32,0,0,1-.58-.1.4.4,0,0,0,.08.18c-.19,0-.35.06-.58-.06,0,0,.08.15.12.2a2.3,2.3,0,0,1-.58-.07c0,.05.09.1.13.15a1.52,1.52,0,0,1-.63-.11c0,.09,0,.14,0,.19s-.24-.07-.38-.09l-.26.06c-.77.83-3.26-.17-3.26-.17-1.63,1-.27,7.44-.31,8.3s-.55,1-.55,1c-.21-.34-.6.55-.71.18s0-.72-.09-1.05c-.36-.76-1.36-.64-1.94-.25l-.1.14c-.86.93-.37,4.16.08,5.15,0,1.91,1.53,3.09,2.62,1.81l.18.77"/><path class="cls-16" d="M90.42,37.93a1.4,1.4,0,0,1-1.26-.21c-.08-.06-.35,0-.24,0a2,2,0,0,0,1.72.27s0-.06,0-.08a.28.28,0,0,0-.2,0"/><path class="cls-16" d="M88.77,37.64a2.46,2.46,0,0,0-.76-.27.16.16,0,0,0-.12,0s0,0,0,.07a.87.87,0,0,0,.42.14s.11,0,.14,0,0-.06,0-.06a.7.7,0,0,1-.34-.12l-.13.09a2,2,0,0,1,.68.25.16.16,0,0,0,.15,0s.06,0,0-.08"/><path class="cls-16" d="M87.7,37.56a1.08,1.08,0,0,1-.81-.47.9.9,0,0,1,.5-1.11s0,0,0-.07a.36.36,0,0,0-.18,0,1.11,1.11,0,0,0-.62,1,.88.88,0,0,0,.67.69,1.89,1.89,0,0,0,.34.09s.14,0,.16,0,0-.06,0-.07"/><path class="cls-16" d="M91,37.84s0-.06,0-.06a.36.36,0,0,0,.25-.05l.08.11a1.2,1.2,0,0,0-.52.12s-.07,0-.1,0,0-.07,0-.08"/><path class="cls-16" d="M90.77,37.86a1.18,1.18,0,0,1,.58-.14.12.12,0,0,1,.08.05s0,0,0,.06"/><path class="cls-16" d="M91.67,38a.68.68,0,0,0,.59-.32.94.94,0,0,0-.14-1s0-.06,0-.06a.1.1,0,0,1,.1,0,1,1,0,0,1,.25.89A.76.76,0,0,1,92,38a.62.62,0,0,1-.23,0,.1.1,0,0,1-.1-.06s0,0,0,0"/><path class="cls-17" d="M92.14,32.31A6.34,6.34,0,0,0,94,33.59a3.28,3.28,0,0,0,2.62-.73,6.3,6.3,0,0,1-2.35.54A11.05,11.05,0,0,1,92.14,32.31Z"/><path class="cls-17" d="M88.46,31.75a7,7,0,0,1-2.31.78,3.78,3.78,0,0,1-2.6-1.34,7.33,7.33,0,0,0,2.37,1.09A13,13,0,0,0,88.46,31.75Z"/><path class="cls-18" d="M92.44,29.27l0,.6c0,.15,0,.31,0,.46.51-.1,1-.16,1.29-.2a4.27,4.27,0,0,1,1.46,0,3.76,3.76,0,0,1,.92.34,2.19,2.19,0,0,1,.47.29c.33.26.46.55.51.53s0-.27,0-.3a2.25,2.25,0,0,0-.68-1.05,2.85,2.85,0,0,0-.92-.48,9.61,9.61,0,0,0-3-.16"/><path class="cls-18" d="M88.74,28.76c0,.19-.07.39-.11.59l-.09.45c-.52-.23-1-.39-1.32-.51a5,5,0,0,0-1.55-.38,4.24,4.24,0,0,0-1,.11,3,3,0,0,0-.57.16c-.41.18-.61.43-.67.39s.08-.25.1-.28a2.38,2.38,0,0,1,1-.86,3.09,3.09,0,0,1,1.09-.24,11.4,11.4,0,0,1,3.2.57"/><path class="cls-19" d="M77.09,33.67c-1-2.59-1.74-2.64-1.74-2.64A2.08,2.08,0,0,0,75,32.79"/><path class="cls-19" d="M76.69,33.89c-.69-.1-.22,1.21-.42,1.51s-.42-.53-.46-1.5c0,0,0-1.31.71-1.53"/><path class="cls-18" d="M95.94,21.53s0,0,0,0c-.41-.61-.66-1.26-1.09-1.85S94,18.58,93.55,18c0,0-.59-.07-.62-.1l0,0,0,0-.1-.12A12.84,12.84,0,0,0,84,17.06a10.64,10.64,0,0,0-7.41,13.1c.14.48-.17,1.06.3,1.34s.52.15,1-.15a3.41,3.41,0,0,0,1-1.23,14.27,14.27,0,0,0,1.2-8.55c.29.49,2.47,0,2.94.37a4.12,4.12,0,0,0,5.74-1,7.14,7.14,0,0,0,.63.82c2.14,2.34,5,3.52,7.4,2A9.3,9.3,0,0,0,95.94,21.53Z"/><path class="cls-20" d="M82,30.47l.23,1A13.54,13.54,0,0,0,83,34.16c.31.59,4.23,1.17,5,.79s1.46-2.59,1.71-3.1l1.57.24A13.07,13.07,0,0,0,92,35.28c.27.32,2.08.43,2.29.45l.67,0a3.73,3.73,0,0,0,1.8-.25,10.11,10.11,0,0,0,1.45-3.06l.08-.21,0-.1h0l.08-.24a7.31,7.31,0,0,0-7.1-.22v0l-1.53-.24A8.36,8.36,0,0,0,83,29.87h0l-6-.37-.08.59Zm10.16,4.61a13.74,13.74,0,0,1-.58-2.93,7,7,0,0,1,6.33.16v0a12.3,12.3,0,0,1-1.35,2.93c-.49.39-4.1.12-4.4-.18Zm-8.7-1a20.42,20.42,0,0,1-1-3.52,8.63,8.63,0,0,1,6.87,1.36c-.36.92-.85,2.53-1.44,2.8-.84.4-4.25-.26-4.45-.64Z"/><path class="cls-21" d="M92.2,35.08a13.3,13.3,0,0,1-.57-2.93,7,7,0,0,1,6.33.16v0a12.3,12.3,0,0,1-1.35,2.93c-.49.39-4.1.12-4.4-.18Z"/><path class="cls-21" d="M83.46,34a20.31,20.31,0,0,1-1-3.51c2-.7,5.28.1,6.87,1.35-.36.92-.85,2.54-1.44,2.81-.84.39-4.25-.27-4.45-.65Z"/><path class="cls-22" d="M73.81,31.16s-5.26-4-3.14-8.09c.41-.79.45-.52.48-1.21.2-3.61-1.08-2.78,4.29-6.89s6.16-4,14.22-3.26c4.16.39,6.41,2.18,7.49,4.84A12.8,12.8,0,0,1,98,20.63s-8.47-2.61-13.59,0S73.76,32.07,74.79,35C75.07,35.76,73.81,31.16,73.81,31.16Z"/><path class="cls-12" d="M70.6,27.14S78,16.77,87.67,16.64c0,0-11.86-1.51-17.3,6.87l-.1,1a5.48,5.48,0,0,0,.14,1.85Z"/><path class="cls-23" d="M115.83,101s4.2-.13,5.22,2.29.06,6,.06,6,.42-5.59-1.47-6.88A8.94,8.94,0,0,0,115.83,101Z"/><path class="cls-6" d="M74.05,47.51s-10.64,2.11-13.61,7.05-4,24-3.88,27c.37,8.67,21.14,20.27,21.14,20.27l4-7.88L67.43,78.34l.95-12.49Z"/><path class="cls-10" d="M71.74,59.46c.23,2.11-2.23,18.09-2.62,20.38h.43c.31-2,2.17-15.54,2.57-19.3.37-3.57-2.49-6.49-2.49-6.49C71.91,57.67,71.74,59.46,71.74,59.46Z"/><polygon class="cls-10" points="69.55 79.67 69.13 79.82 81.63 94.05 81.81 93.87 69.55 79.67"/><path class="cls-24" d="M61.94,90.4s8.77,9.41,14.89,11.49l1.76-2.27h.26l-1.33,1.67-.65,1a38.28,38.28,0,0,1-6.21-3.48c-2.11-1.65-8.82-8-8.82-8l.1-.37"/><polyline class="cls-13" points="81.2 94.56 85.61 96.97 84.51 102.43 77.76 100.69"/><path class="cls-13" d="M83.54,96.46l4.95-1.9s5.9.41,6.68,1.08,1.73,1.66.39,2.55c0,0,.83,1.58,0,2.09a2.11,2.11,0,0,1-1.81,0s1.27,1.22.39,2-1.35.29-1.35.29,0,.8-.5.81a13.25,13.25,0,0,1-2.16-.4,14.9,14.9,0,0,1-4.35.36,7.41,7.41,0,0,1-3-1.44Z"/><path class="cls-15" d="M92.41,97.66a3.81,3.81,0,0,1,3,.47"/><path class="cls-15" d="M91.87,100.2a2,2,0,0,1,2,.18"/><polygon class="cls-24" points="81.82 93.9 81.41 94.68 81.2 94.56 81.64 93.72 81.82 93.9"/><path class="cls-10" d="M69.43,80a19.34,19.34,0,0,0-4,.13s2.9-1,4.09-.48Z"/><path class="cls-25" d="M89,39.56c-1.58-.17-4.13-.6-4.13-.6s.19,2.78,3.86,3.16,4.44-2.28,4.44-2.28S90.58,39.73,89,39.56Z"/><path class="cls-26" d="M89,39.55c-.75-.08-3.78-.49-3.78-.49s.87,1.33,3.6,1.62c3,.31,4-.8,4-.8Z"/><path class="cls-25" d="M93.35,39.61a5.1,5.1,0,0,1-.9,0c-.62-.12-1-.33-1.44-.42a6.89,6.89,0,0,0-1.62.09,6.4,6.4,0,0,0-1.57-.42c-.45,0-1.59,0-2.22,0a7.46,7.46,0,0,1-.88-.19c-.12,0,0,.9,4.22,1.34S93.46,39.65,93.35,39.61Z"/><path class="cls-13" d="M31.72,35.33a14.79,14.79,0,0,1-1.36,9.22c-.23.44-2.68,1.4-2.68,1.4l3.87,1.36c2.66.67,8.62.81,11.22.07L45,46.23s-2.7-.67-2.82-1.24a45.61,45.61,0,0,1,.48-4.9"/><path class="cls-13" d="M42.77,45.5,30,45.17l-1.9,4.06s3.36,3,3.71,3.16,8.46,2,8.46,2,9.23-2.88,9.1-2.86S42.77,45.5,42.77,45.5Z"/><g id="freepik--Character--inject-2"><path class="cls-27" d="M58,60.09l-2-8.21a23.14,23.14,0,0,0-5.34-2.69c-1.63-.53-4.13-1-5.1-1.34a3.13,3.13,0,0,1-1,3.17,7.38,7.38,0,0,1-4.38,1.57,12.45,12.45,0,0,1-4.47-.81c-2.67-.94-5.76-4-6.38-6.9l-1.05.43s-11,4.37-12.34,4.9,2.7,33.84,2.7,33.84L15.75,98.33c-.29,1.38-7.63,10.53-3,21.4,0,0,28.85-8.86,31.87-8.91,3.52,0,9.12-.07,10-1.75S58,60.09,58,60.09Z"/><path class="cls-27" d="M53.36,89.37c1.21,3.79,8.12-1.27,11.68-3a5.81,5.81,0,0,1-.72-2.61c-.21-2.59-.84-5.44-1-8-.18-3.26-1-8-1.35-11.29a44.73,44.73,0,0,0-.74-4.87,10.75,10.75,0,0,0-1.37-3.9c-.79-1.19-4.08-4.4-6-5L47.53,62.42s.34,10.14,2.69,13.3c.09.12,1.06,4.29,1.17,4.41A73.39,73.39,0,0,0,53.36,89.37Z"/><path class="cls-28" d="M22.8,59.93a10.9,10.9,0,0,1-.4-1.38,16.22,16.22,0,0,0-3.27-6,12.25,12.25,0,0,1-.94-1.09,5.25,5.25,0,0,1,1.09,1,13.51,13.51,0,0,1,3.31,6.1A5,5,0,0,1,22.8,59.93Z"/></g><path class="cls-3" d="M33.2,127.14H51.46c2.62,0,3.11,1.21,3.1,3.7,0,2.28-.52,3.62-3.17,3.62a11.87,11.87,0,0,1-1.79,0c-1.75-.23-2.1.41-1.87,1.73,2.24,12.93,4.43,25,6.66,37.91.15.88,0,1.23-1.2,1.25-3,0-3.08.09-3.5-2.33q-2.14-12.37-4.17-24.76c-.18-1.12-.65-1.46-2-1.45q-10.38.07-20.77,0c-1.32,0-1.71.38-1.88,1.4-1.41,8.7-2.9,17.39-4.33,26.09-.14.81-.54,1.05-1.5,1.06-3.11.05-3.2.07-2.8-2.37,1.45-8.84,3-17.68,4.45-26.52.64-3.76,1.28-6.62,2-10.38.21-1.15,0-1.81-1.66-1.59-.35,0-.72,0-1.08,0-4.66.32-4.28-2.94-4-6,.1-1.17,1.34-1.44,2.69-1.44,6.2,0,12.41.76,18.61.76Zm-.14,16.69c3.45,0,6.91,0,10.37,0,1,0,1.53-.18,1.35-1.15-.56-3-1.07-3.95-1.55-7-.14-.92-.53-1.31-1.78-1.29-5.48.06-11,.07-16.45,0-1.36,0-1.73.41-1.89,1.38-.46,2.93-.95,3.75-1.49,6.68-.19,1,.09,1.4,1.43,1.37C26.38,143.79,29.72,143.83,33.06,143.83Z"/><path class="cls-4" d="M16.7,146.47c-.23,1.37-.46,2.73-.7,4.1,1.45.28,2.9.6,4.33.94.19-1.1.37-2.2.55-3.3s.55-1.41,1.88-1.4q10.38.09,20.76,0c1.36,0,1.83.33,2,1.45s.35,2.14.53,3.21a42.35,42.35,0,0,0,4.06-1.69c-.79-4.47-1.58-9-2.38-13.59a2.57,2.57,0,0,1,0-1.07c-.94.06-1.89.11-2.84.14l-1.74.06a3.26,3.26,0,0,1,.1.42c.48,3,1,3.95,1.54,7,.18,1-.29,1.17-1.35,1.15-3.46,0-6.91,0-10.37,0s-6.67,0-10,0c-1.34,0-1.62-.36-1.43-1.37.55-2.92,1-3.75,1.5-6.68a1.85,1.85,0,0,1,.34-.91c-1.65,0-3.29-.09-4.93-.11a1.64,1.64,0,0,1,.12,1.3C18,139.85,17.33,142.72,16.7,146.47Z"/><path class="cls-4" d="M11.84,129.16s19.82,3.57,28.37,2.49,14.31-2,14-3.3-6.39-4.07-12.49-4.27-22.78,1.3-22.78,1.3-5.61.93-6.2,1.72A6.61,6.61,0,0,0,11.84,129.16Z"/><path class="cls-29" d="M82.91,110.17h0v-.07Z"/><path class="cls-30" d="M66.13,124.55a23.21,23.21,0,0,1,.51-2.34,31.47,31.47,0,0,1,1.82-5.09,35.88,35.88,0,0,1,2.66-4.87,31.88,31.88,0,0,1,2.27-3c-16.37-3.54-50.63-1.78-50.63-1.78S11.14,106.25,12.85,121c1.39,11.91,40.45,7.18,53.1,3.65Z"/><path class="cls-31" d="M31.15,36.84v0A0,0,0,0,1,31.15,36.84Z"/><path class="cls-13" d="M41,45.74l4.84,0,2.43-.47c.25,0,1.4-2.43,1.58-2.73a21.21,21.21,0,0,0,1.63-3.27,19.26,19.26,0,0,0,1.35-3.44,6.46,6.46,0,0,0-.3-3.35,2.29,2.29,0,0,1,0-1.27c.25-.93.36-2,.67-3.28a2.21,2.21,0,0,0,.12-.68s.41-5.23-.48-7.14a5.68,5.68,0,0,0-3.63-3.22,29.26,29.26,0,0,0-5.44-.29l-5.6-1-4.86,2.2-2.63,5.72.11,6.75.51,6.05"/><path class="cls-32" d="M32.39,29.8c0,.52.57,3.14.61,3.65l-2.69-.14c-.75-1.82-1.66-4-1.95-4.44-.45-.76,1.05-4.42,1.07-5.79v-.29c0-1.31,1.33-3.35,3.53-5.45,3.79-3.62,3.61-3.67,9.25-3.08.38,0,.77.1,1.14.16,3.54.65,6.5.69,8.67,3.74,1.56,2.2.41-.54.23.95,0-2.95.48-.5.18-.86-1.71-2.08-2.66.05-3.53-.11a2.9,2.9,0,0,0-1.45.09,6.75,6.75,0,0,1-2.6-.14c-.68-.12-2.38-.57-2.53-.6-.45-.34,0-2.1-.83-2.25a12,12,0,0,0-5.61.83c-1.13.48-3.84,1.52-3.57,4.53"/><path class="cls-32" d="M47.74,44.6l-.09,0c-.5-.36-.53-.55-.78-.62a1.14,1.14,0,0,0-.27-.07c-.72-.13-1.16-.22-3.15.94,0,0-2.57-.39-2.62-.4l-1.29-.66c-.22-.15-5-4.47-5-4.47s-.92-1.16-.95-1.29l-.05,0h0v0a1.09,1.09,0,0,0,0,.18,2.64,2.64,0,0,0,.11.73c.1.37.15.74.24,1.11,0,.14.07.26.11.39.55.37,4,5,6,6.08a8.74,8.74,0,0,0,1.64.3,16.23,16.23,0,0,0,6.17-.2,1.82,1.82,0,0,0,1.22-1A33.47,33.47,0,0,0,51.49,39c-.61,1.21-1.9,3.79-2.79,5.55a7.87,7.87,0,0,1-.89.09"/><path class="cls-13" d="M31.86,37c-2.26,2-2.56-1.58-2.56-1.58a7,7,0,0,1-1.22-5.17C28.2,28.91,29.66,29,29.66,29c1.24.19,1.76.88,2.6,5.13"/><path class="cls-32" d="M48.16,16.93c-2-.1-7.29-1.67-10-1.92-1.13-.11-5,2.58-5.5,3.21-1.17,1.43,1.33,4.87-.76,9.49-.69,1.52-1.5-1.21-2.34-.22s-1.17,1.38-1.17,1.38c-.46-4.49-.44-4.33.68-8.72S35,14,37.37,13.7s9.78.67,11.77,1.67"/><path class="cls-33" d="M31.29,33.3a10.49,10.49,0,0,0-.93-1.83,3.38,3.38,0,0,0-.67-.79.88.88,0,0,0-.39-.21c-.15,0-.23.12-.29.23a2.58,2.58,0,0,0-.19,1.77c0,.11.23.05.21,0a2.66,2.66,0,0,1,0-1.4,1.34,1.34,0,0,1,.24-.44l-.13,0h.07a1.49,1.49,0,0,1,.24.14,3.75,3.75,0,0,1,.88,1.13,12.11,12.11,0,0,1,.7,1.45c0,.1.25,0,.21-.06Z"/><path class="cls-33" d="M30.79,33.5c-.86-.08-.42,1.13-.5,1.59a.24.24,0,0,0,0,.08l0,0h.05s-.05-.06-.05-.06L30.17,35a3.54,3.54,0,0,1-.2-.84,3.24,3.24,0,0,1,0-1c.06-.4.19-1,.62-1.11.13-.05,0-.17-.1-.13a1.31,1.31,0,0,0-.68,1,2.73,2.73,0,0,0-.09.9,5.46,5.46,0,0,0,.18,1.06c0,.16.1.41.25.5a.25.25,0,0,0,.33-.14,1.06,1.06,0,0,0,0-.47c0-.23-.21-1.11.22-1.07.1,0,.21-.14.07-.15Z"/><path class="cls-32" d="M48.56,29.92a5,5,0,0,0,2.1,1.42c1.32.18,1.68-.11,2.17-.7a2.91,2.91,0,0,1-1.82.45A9.06,9.06,0,0,1,48.56,29.92Z"/><path class="cls-32" d="M44.06,29.81a8.5,8.5,0,0,1-2.83,1.08,4.7,4.7,0,0,1-3.3-1.53,9.19,9.19,0,0,0,3,1.23A15.47,15.47,0,0,0,44.06,29.81Z"/><path class="cls-32" d="M44.7,26.19l-.09.95c0,.25-.06.8-.09,1-.74-.28-1.39-.65-1.88-.78a9.25,9.25,0,0,0-2.93-.54,3.33,3.33,0,0,0-1.33.32c-.13.06-.5.36-.67.26s.08-.42.1-.46a2.09,2.09,0,0,1,1.86-1.13,14.22,14.22,0,0,1,5,.34"/><path class="cls-32" d="M53.51,27.05,53,26.86a11.89,11.89,0,0,0-4.59-.6c0,.31-.07.63-.1.95s-.08.67-.11.92c.72-.14,1.35-.32,1.81-.36a8,8,0,0,1,2.77.07l.52.16C53.6,27.59,53.63,27.13,53.51,27.05Z"/><path class="cls-32" d="M44,40.65h3.44s-.88,1.29-1.72,1.24A3.27,3.27,0,0,1,44,40.65Z"/><path class="cls-16" d="M47,36.44a1.49,1.49,0,0,1-1.38-.16c-.08-.06-.37,0-.25.06a2,2,0,0,0,1.87.19s0-.06,0-.09a.41.41,0,0,0-.22,0"/><path class="cls-16" d="M45.21,36.22a2.36,2.36,0,0,0-.84-.26.19.19,0,0,0-.13,0s0,0,0,.07a.92.92,0,0,0,.46.14.2.2,0,0,0,.15-.05s0-.07-.06-.07a.7.7,0,0,1-.37-.11l-.14.11a2.12,2.12,0,0,1,.75.23.15.15,0,0,0,.16,0s.07-.06,0-.08"/><path class="cls-16" d="M44,36.19a1.16,1.16,0,0,1-.89-.47,1,1,0,0,1,.48-1.25s0-.06,0-.08a.4.4,0,0,0-.19,0,1.22,1.22,0,0,0-.61,1.08.93.93,0,0,0,.75.73,1.61,1.61,0,0,0,.38.08c.05,0,.14,0,.17-.05s0-.06-.07-.07"/><path class="cls-16" d="M47.65,36.3a0,0,0,0,1,0-.07.41.41,0,0,0,.28-.07l.08.12a1.21,1.21,0,0,0-.55.16s-.08,0-.11,0a.06.06,0,0,1,0-.09"/><path class="cls-16" d="M47.38,36.33a1.42,1.42,0,0,1,.62-.18.12.12,0,0,1,.09.05s0,0,0,.07"/><path class="cls-16" d="M48.36,36.38A.7.7,0,0,0,49,36a1.07,1.07,0,0,0-.21-1.14,0,0,0,0,1,0-.08.15.15,0,0,1,.12,0,1.15,1.15,0,0,1,.31,1,.79.79,0,0,1-.55.66.55.55,0,0,1-.25,0s-.1,0-.11-.06,0-.06,0-.06"/><path class="cls-32" d="M49.2,17.8a1.2,1.2,0,0,0-.58-.22l-.23-.08q-1,0-2,0a1.63,1.63,0,0,0-.5.06l-.05,0-1.51-.08-.24.06a1.44,1.44,0,0,0-.6.15.2.2,0,0,0,0,.37c.2.07.51,0,.65.09s-.15.32-.06.47.23.14.35.21.18.22.31.32a.73.73,0,0,0,.53.09c.19,0,.45-.05.51.08a.4.4,0,0,1,0,.11.37.37,0,0,0,.28.36.6.6,0,0,0,.54-.06c.13-.09.19-.24.33-.33l.16-.07a.42.42,0,0,0,.17.11.63.63,0,0,0,.54-.06c.14-.09.19-.24.34-.33s.3-.1.37-.21-.19-.41,0-.55.45,0,.66-.05A.24.24,0,0,0,49.2,17.8Z"/><path class="cls-32" d="M43.78,45.12a1,1,0,0,0,.48.14l.19.05c.56,0,1.11-.06,1.66-.11a1.35,1.35,0,0,0,.4-.08l0,0,1.23,0L48,45a1,1,0,0,0,.48-.16c.11-.09.11-.25,0-.29s-.42.05-.54,0,.11-.26,0-.38-.19-.1-.29-.15-.16-.16-.28-.23a.57.57,0,0,0-.43,0c-.16,0-.36.07-.41,0s0-.06,0-.09a.3.3,0,0,0-.25-.27.46.46,0,0,0-.43.08c-.11.08-.14.21-.25.29l-.12.07a.28.28,0,0,0-.15-.08.5.5,0,0,0-.43.08c-.11.09-.14.21-.25.29s-.24.1-.28.19.17.32,0,.44-.36,0-.53.09A.2.2,0,0,0,43.78,45.12Z"/><path class="cls-34" d="M28.62,29.16A1.36,1.36,0,0,1,28,29a.44.44,0,0,1-.21-.53c.14-.3.69-.34.66-.67-.26-.32-.9-.21-1-.6s.22-.6.52-.77c-.2-.19-.15,0-.42-.09s-.41-.74-.25-1,.27-.05.18-.35c-.22-.07.26-.25.1-.41a.52.52,0,0,1-.12-.62,1,1,0,0,0,.13-.67c0-.24.45-.27.32-.46-.25-.35.1-.8.42-1.08-.18-.12.05-.16-.07-.35a.56.56,0,0,1,0-.63,4,4,0,0,1,.34-.23c.45-.34.2-1.05-.09-1.53a.81.81,0,0,0,.85-.65,3.31,3.31,0,0,1,.07-.55c.07-.17.33-.29.44-.14"/><path class="cls-32" d="M28.7,29c-.26,0-.85-.15-.5-.56.06-.07.19-.1.27-.17s.28-.24.26-.42-.18-.25-.31-.31a1.82,1.82,0,0,0-.37-.13,1.57,1.57,0,0,1-.3-.12.53.53,0,0,1,.3-.64c.12-.06.21-.2.08-.31s-.35-.1-.5-.22-.16-.49,0-.72.12-.16.08-.39,0,0,0,0,.12-.1.14-.17-.05-.22-.11-.4a2.32,2.32,0,0,1,.12-.93c.06-.26.28-.27.34-.49s0-.12,0-.2a.86.86,0,0,1,.35-.86c.06-.06.13-.16.06-.24s0-.76.06-.86.33-.22.42-.42a1.7,1.7,0,0,0-.28-1.47l-.25.31a1.18,1.18,0,0,0,.87-.35,1,1,0,0,0,.23-.39,2.72,2.72,0,0,0,.09-.64c.19.14.63-.13.38-.3a.54.54,0,0,0-.69,0c-.45.36,0,1.26-.84,1.26-.16,0-.34.15-.25.31.19.34.51.95.15,1.3-.16.16-.38.19-.48.43s0,.39,0,.62,0,.25.09.4l.06-.24c-.26.24-.61.58-.59,1,0,.06,0,.15,0,.21s0,0,0,.13-.2.16-.25.31,0,.41-.09.61a.91.91,0,0,0-.1.43c0,.13.18.35.17.42s-.14.16-.16.26a.19.19,0,0,0,.07.14l0,.08.14-.18a.78.78,0,0,0-.36,1,.69.69,0,0,0,.3.44.83.83,0,0,0,.27.07.23.23,0,0,0,.14,0c.08,0,.09,0,0,.05l.08-.32c-.32.2-.75.5-.67.93a.61.61,0,0,0,.32.4c.12.07.67.14.72.27s-.37.28-.45.35a.55.55,0,0,0-.21.41c0,.53.6.67,1,.7S29,29,28.7,29Z"/><path class="cls-35" d="M29.68,18.62c.06-.25.31-1.43.37-1.68a.57.57,0,0,0,.74-.45c0-.17,0-.38.1-.47s.33,0,.5,0c.38,0,.44-.64.8-.76s.49.07.72,0,.41-.62.74-.76.51,0,.75,0c.52-.14.72-.91,1.26-.91.2,0,.38.14.58.13.36,0-.17-.4.19-.45s.57.31.9.35c.53.07.89-.81,1.38-.6.21.09.32.33.53.43.48.23,1-.46,1.52-.33.26.07.44.33.7.37.42.06.74-.45,1.16-.41s.57.4.9.39-.33-.27-.1-.3c.39-.05.68.38,1.06.47a2.2,2.2,0,0,0,1-.18c.33-.08,1,.57,1,.9"/><path class="cls-32" d="M29.93,18.58c.13-.56.24-1.12.37-1.67l-.41.15a1.09,1.09,0,0,0,.75-.1.75.75,0,0,0,.34-.32c.07-.14,0-.48.07-.5s.52,0,.68-.11.21-.27.35-.4.42-.14.72-.22a1.13,1.13,0,0,0,.61-.34c.25-.28.19-.36.63-.44a3.06,3.06,0,0,0,.45-.06c.39-.12.51-.45.83-.65s.76,0,1.13-.16c0,0,.14-.06.15-.12,0-.25-.12-.11.13-.08s.28.15.42.17a1.15,1.15,0,0,0,.63-.12,2.53,2.53,0,0,0,.32-.21c.35-.27.36-.2.72,0a.92.92,0,0,0,.75.19c.12,0,.23-.08.35-.11a2.12,2.12,0,0,1,1.12,0,1.31,1.31,0,0,0,.65.06c.18-.05.33-.19.5-.23.82-.21.33,0,.76.11.27.07.44.18.72.06,0,0,.2-.08.16-.14-.16-.26-.11,0,.06.18a1,1,0,0,0,.7.21c.3,0,.55-.16.84-.12a1.06,1.06,0,0,1,.8.78c0,.13.53,0,.5-.14a1.29,1.29,0,0,0-1.27-.94,3.43,3.43,0,0,1-1.27-.09c-.17-.07-.21-.15-.4-.19a.78.78,0,0,0-.58.08s-.13.07-.1.12.16.15.21.25l.17-.15a2.11,2.11,0,0,0-.67-.39,1.09,1.09,0,0,0-.36,0,3.62,3.62,0,0,0-.35.13,1.41,1.41,0,0,1-.93,0,1.42,1.42,0,0,0-.84-.06,2.88,2.88,0,0,0-.31.13.71.71,0,0,1-.73,0,1.21,1.21,0,0,0-.35-.29c-.69-.29-1.09.6-1.75.45-.28-.07-.4-.27-.73-.22s-.28.16-.41.24,0,.12,0,.12-.26,0-.36,0a1.2,1.2,0,0,0-.69.3c-.15.12-.25.32-.4.43-.32.23-.59.12-.91.21a1,1,0,0,0-.54.35c-.26.29-.16.32-.63.38a2.33,2.33,0,0,0-.36,0c-.37.11-.38.41-.65.6s-.5,0-.73.15-.41.92-.58.89-.38,0-.41.15c-.13.56-.24,1.12-.37,1.68,0,.14.47.06.5-.08Z"/><path class="cls-36" d="M35.06,15.6a5.8,5.8,0,0,0-3.72,3.22l11.1-3.69a9.79,9.79,0,0,0-2.38-.28A12.42,12.42,0,0,0,35.06,15.6Z"/><path class="cls-32" d="M35,15.45a7.49,7.49,0,0,0-2.32,1.27A7.27,7.27,0,0,0,31.1,18.8c-.1.17.17.23.28.19l9.73-3.23,1.38-.46c.2-.07.31-.29,0-.35a13.76,13.76,0,0,0-7.52.48c-.29.11-.21.45.1.34a13.16,13.16,0,0,1,7.25-.46l0-.35-9.73,3.23-1.38.46.29.2a6.64,6.64,0,0,1,1.47-2,7.33,7.33,0,0,1,2.12-1.13C35.5,15.62,35.21,15.35,35,15.45Z"/><path class="cls-36" d="M50.91,16l-.15-.08c-.26-.14-.46-.54-.22-.71-.54.21-.91-.72-1.48-.72a2.57,2.57,0,0,0-.48.11.77.77,0,0,1-.84-.76,1.84,1.84,0,0,1-1.38.13l-3.92,1.2c1.71.38,3.44,1,5.08,1.27a6.88,6.88,0,0,1,2.3.62c.51.28,1.17.43,1.7.73C51.32,17.15,51.12,16.55,50.91,16Z"/><path class="cls-32" d="M51.11,15.84c-.17-.09-.59-.39-.37-.63s-.11-.21-.23-.17-.5-.29-.65-.42a1.27,1.27,0,0,0-.52-.29,1.45,1.45,0,0,0-.62.05.61.61,0,0,1-.72-.65c0-.13-.31-.06-.36,0-.53.26-1,0-1.54.18l-1.35.41L42.41,15c-.11,0-.35.21-.12.27,1.57.36,3.09.92,4.68,1.21a10,10,0,0,1,2.29.5c.68.28,1.41.55,2.05.89.1.05.52,0,.46-.19l-.6-1.79c-.07-.18-.57,0-.51.14.21.59.4,1.19.6,1.78l.46-.19c-.37-.19-.76-.32-1.15-.48s-.64-.31-1-.44a9.82,9.82,0,0,0-2.15-.47C45.79,16,44.22,15.36,42.6,15l-.12.27L45,14.49a11.61,11.61,0,0,1,1.27-.39.56.56,0,0,1,.12,0c-.09,0,.15.08.23.08a2.27,2.27,0,0,0,1.23-.24l-.35,0a.86.86,0,0,0,.54.77c.38.15.73-.12,1.09,0s.47.4.71.56a.88.88,0,0,0,.74.11l-.23-.18c-.36.38,0,.78.37,1C50.86,16.16,51.32,15.94,51.11,15.84Z"/><path class="cls-37" d="M41.19,23.28a32.5,32.5,0,0,1,8.9.39"/><path class="cls-34" d="M50.69,40.94a7.88,7.88,0,0,1-.43,1.83c.18.06.1.35,0,.48s-.35.28-.31.47.06.13.07.19c0,.22-.22.35-.43.4.14.11,0,.34-.13.45s-.32.25-.28.43.1.15.1.24-.31.18-.41.34,0,.21-.06.31a.34.34,0,0,1-.53.17c0,.38-.21.86-.59.84s-.45-.24-.67-.15-.19.22-.31.3c-.42.26-.92-.61-1.33-.35-.22.14-.22.53-.47.61s-.44-.2-.69-.23-.54.24-.78.11-.16-.17-.25-.24-.4.08-.66.16c-.46.14-.5-.19-.5-.19-.13-.32-.31-.3-.61-.13-.1.05-.19.14-.31.14-.28,0-.41-.45-.69-.43a1,1,0,0,0-.28.13.48.48,0,0,1-.58-.63.79.79,0,0,1-.75-.86.7.7,0,0,1-.88-.62.7.7,0,0,1-.78-.89.56.56,0,0,1-.72-.52c0-.18.09-.41-.06-.51s-.23,0-.35,0a.45.45,0,0,1-.38-.62.62.62,0,0,1-.6-.92.49.49,0,0,1-.47-.73A.75.75,0,0,1,34,39.38l5.76,6,1.49.7s5.3.53,6.31.08S50.69,40.94,50.69,40.94Z"/><path class="cls-32" d="M50.44,41A7.17,7.17,0,0,1,50,42.81s0,0,0,0c.27.25-.23.58-.33.72s.12.56-.24.68c0,0-.19.07-.17.13.15.34-.27.47-.38.69s.06.25,0,.44-.54.59-.39.66c-.1,0-.47,0-.49.13s-.06.49-.17.57-.27,0-.44,0a1.17,1.17,0,0,0-.49.05c-.21.09-.26.24-.5.19s-.37-.27-.6-.32A.86.86,0,0,0,45,47c-.28.33,0,.24-.42.2a3.66,3.66,0,0,0-.58,0c-.48,0-.68-.28-1.17-.17-.27.06-.33.15-.57,0s-.1-.24-.33-.3a1,1,0,0,0-.42.07c-.5.16-.3,0-.73-.18s-1.23.37-1-.5c0,0,0,0,0,0a.77.77,0,0,1-.7-.82c0-.07-.19,0-.21,0a.65.65,0,0,1-.68-.6s-.12,0-.15,0a.64.64,0,0,1-.63-.82c0-.07-.1-.07-.14-.06-.85.1-.41-.7-.65-1s-.88.11-.72-.6c0-.07-.1-.07-.14-.06-.48,0-.63-.52-.46-.86,0,0-.06-.06-.09-.07a.46.46,0,0,1-.38-.67s0,0,0,0a.72.72,0,0,1-.51-1l-.48.13,3,3.12,2,2.06a5.2,5.2,0,0,0,.84.85c1.24.85,2.67.81,4.11.89a19.92,19.92,0,0,0,3.09,0,2,2,0,0,0,1.44-.61,18,18,0,0,0,2.76-4.9c0-.09-.43,0-.5.08a30.27,30.27,0,0,1-2.11,4,3.63,3.63,0,0,1-.76,1,2,2,0,0,1-1.18.25c-1,0-2.08,0-3.11-.1A5.69,5.69,0,0,1,40,45.3a6.89,6.89,0,0,1-.91-1l-1.79-1.86-3-3.19c-.09-.09-.44,0-.49.13-.28.59.1.73.39,1.12.12.17.06.34.17.52s.3.17.35.26,0,.3,0,.46a.85.85,0,0,0,.36.41c.24.18.15,0,.27.16s0,.32.26.46.3,0,.43.12,0,.53.28.8.32.12.43.22.06.15.13.33a.86.86,0,0,0,.44.48c.26.17.2,0,.44.3a1,1,0,0,0,1,.37l-.21,0c0,.58.31.52.59.85s.15.51.44.65.4,0,.64,0,.4.32.72.35.35-.15.52-.15c.47,0,.19.25.52.33a1.54,1.54,0,0,0,.6,0c.26,0,.19-.09.48,0s.09.13.37.16a6.57,6.57,0,0,1,.89,0,1,1,0,0,0,.6.07c.24-.06.28-.21.44-.33s.08-.22.43-.1c.15.05.26.18.41.22a.92.92,0,0,0,.59-.07l.14-.08c.07-.17.18-.2.31-.09a1.28,1.28,0,0,0,.28.07c.62,0,.9-.43,1-1l-.49.13c.57.24.83-.1,1.12-.51s.28-.29.33-.59a.25.25,0,0,1,.06-.37,1.72,1.72,0,0,0,.27-.27c.09-.19.1-.18,0-.36l-.17.13a1,1,0,0,0,.57-.34s.23-.91.1-.66c.05-.11.21-.15.27-.28a4.3,4.3,0,0,0,.1-.72c.1-.49.17-1,.28-1.47C51,40.78,50.47,40.85,50.44,41Z"/><path class="cls-38" d="M32.48,30.12c.53-.52-.12-1.51.29-2.12.1-.15.24-.25.32-.4.22-.43-.16-1,0-1.42.08-.2.27-.34.34-.55.13-.39-.24-.79-.2-1.2s.61-.84.43-1.27c-.08-.21-.32-.33-.39-.54-.13-.38.29-.86,0-1.14-.1-.09-.26-.12-.34-.23s.12-.49.22-.74a2.65,2.65,0,0,0,.07-.85c0-.28.3-.59.56-.47-.15-.44.13-1.65.6-1.6.23,0,.52.15.64-.05s0-.34.07-.48c.18-.38.83.19,1.17-.07a1.94,1.94,0,0,0,.21-.27.71.71,0,0,1,.72-.1,1.69,1.69,0,0,0,.76.15c.25-.05.47-.36.31-.57a2.09,2.09,0,0,0,.85.34.69.69,0,0,0,.72-.43.61.61,0,0,0,1,.26c.11-.13.19-.33.36-.35a.35.35,0,0,1,.22.06c.3.17.71,1.1.87,1.41l-.13-1.89-5.26-.77L32.58,17.4l-1.65,5.48,1.77,7.59"/><path class="cls-32" d="M32.72,30.13a1.39,1.39,0,0,0,.2-1.11,1.47,1.47,0,0,1,.17-1.1,3.18,3.18,0,0,0,.26-.35c.22-.53-.17-1,.11-1.56s.22-.61.11-1.24.44-.94.4-1.5a.6.6,0,0,0-.14-.36,1,1,0,0,1-.25-.84c0-.17.12-.34.05-.52s-.24-.16-.31-.31a4.94,4.94,0,0,1,.4-1.89c.11,0,.38-.06.34-.22s-.05-1.07.21-1.27.46,0,.7-.08a.59.59,0,0,0,.36-.35c.14-.28-.09-.23.24-.28.09,0,.26.07.36.07a1.07,1.07,0,0,0,.52-.14c.24-.12.11-.17.4-.25s.48.06.78.09c.48.06,1.09-.23.92-.79l-.45.2c.64.37,1.59.62,2-.21l-.49.06a.84.84,0,0,0,1.1.47c.22-.07.45-.39.7-.28s.52.92.66,1.18.52.08.5-.13l-.12-1.89c0-.07-.11-.08-.16-.09L40,15.1a26.61,26.61,0,0,0-2.8-.41,2.37,2.37,0,0,0-1.25.56l-2.84,1.67c-.5.3-.7.35-.86.9l-.91,3a9.11,9.11,0,0,0-.62,2.07,6.46,6.46,0,0,0,.37,1.62l1.4,6c0,.19.55.06.5-.14l-1.24-5.35a11.34,11.34,0,0,1-.52-2.2,10.4,10.4,0,0,1,.58-1.93l.95-3.15a2.3,2.3,0,0,1,.1-.35c.06-.12-.17.15,0,0s.68-.4,1-.59l2.87-1.7c.07,0,.31-.13.34-.2s-.22,0-.15.05,1,.14,1.13.16l3.66.54a1.5,1.5,0,0,1,.37.05c.14.06-.14-.18-.11-.07A.81.81,0,0,1,42,16a10.23,10.23,0,0,0,.11,1.56l.5-.13c-.22-.44-.46-1.22-.92-1.47a.6.6,0,0,0-.52,0c-.26.08-.76.83-1,.14-.07-.18-.43-.08-.49.06-.27.52-.85.14-1.14,0-.11-.06-.51,0-.45.2.12.39-1,.12-1.25.16s-.34.18-.53.28c-.39.21-1.11-.17-1.38.33,0,.07,0,.34,0,.37s-.27,0-.41,0a.81.81,0,0,0-.52.24,1.86,1.86,0,0,0-.35,1.58L33.9,19a.78.78,0,0,0-.76.32,1.44,1.44,0,0,0-.15.77,4.18,4.18,0,0,1-.27.8.54.54,0,0,0,0,.45c0,.13.2.19.27.36s0,.23,0,.49a1.06,1.06,0,0,0,0,.5c.17.44.54.39.26,1.05a1.69,1.69,0,0,0-.18,1.34c.11.64-.38,1-.3,1.64a1.39,1.39,0,0,1-.21,1.12,1.47,1.47,0,0,0-.23.49c-.12.58.26,1.22-.14,1.74-.15.19.36.18.47,0Z"/><path class="cls-34" d="M32.4,33.54l.44.05a.22.22,0,0,0,.14,0c.1-.06.05-.21,0-.32a1.14,1.14,0,0,1,.19-.77.72.72,0,0,0,0-.77c-.09-.11-.25-.18-.27-.32s.21-.28.34-.42a.45.45,0,0,0-.2-.7,1.28,1.28,0,0,0,.21-1.06c-.11-.71-.31-1.47-.31-1.47l-1-.59Z"/><path class="cls-32" d="M32.23,33.66c.27,0,1,.18,1.06-.23,0-.08,0-.16,0-.24a.8.8,0,0,1,.06-.46,3,3,0,0,0,.25-.65.57.57,0,0,0-.18-.51c-.11-.12-.26-.19-.12-.38s.18-.14.25-.22a.51.51,0,0,0-.23-.8l0,.1a1.26,1.26,0,0,0,.26-.77,6.38,6.38,0,0,0-.3-1.67c-.06-.22-.2-.25-.39-.36l-.71-.4c-.1-.06-.51,0-.49.16l.4,5.59.06.79c0,.11.52,0,.51-.14l-.41-5.59-.06-.79-.49.16.61.34c.12.07.24.13.36.21s.05,0,.09.12a6.19,6.19,0,0,1,.3,1.47,1.24,1.24,0,0,1-.2.9s0,.07,0,.09a.42.42,0,0,1,.25.34c0,.21-.11.3-.25.42s-.22.34,0,.55.22.22.22.42a1.52,1.52,0,0,1-.16.51,1.29,1.29,0,0,0-.17.5c0,.11.1.38,0,.47l.21-.1c.12,0-.07,0-.12,0l-.28,0C32.43,33.41,32,33.63,32.23,33.66Z"/><path class="cls-38" d="M50,16.8c-.07.14.13.26.29.28s.37.05.39.21,0,.19,0,.29c.05.3.62.05.78.31s-.13.49,0,.64.21,0,.31,0a.47.47,0,0,1,.4.34c0,.14,0,.29.08.4s.28.17.43.24c.4.18.48.7.49,1.14a1.58,1.58,0,0,0,.34,1.23c.31-.26,0-.53-.27-.86a2,2,0,0,1-.22-.29.28.28,0,0,1,0-.34s.12-.05.14-.1-.21-.2-.34-.3-.07-.41.06-.58.29-.39.18-.58-.35-.18-.45-.34,0-.43,0-.64-.41-.36-.7-.39a.44.44,0,0,0-.19-.68c-.11,0-.24,0-.31-.12s0-.37-.12-.48-.29,0-.4-.09,0-.45-.06-.65-.72-.17-.69-.46"/><path class="cls-32" d="M49.76,16.83c-.06.35.3.3.51.41s0,.49.34.61.64-.07.58.37c0,.26,0,.45.27.5s.41,0,.47.32,0,.32.14.44a1.33,1.33,0,0,0,.38.18.71.71,0,0,1,.36.4c.26.64-.07,1.44.47,2,.1.1.35,0,.44-.06a.4.4,0,0,0,.1-.55c-.13-.25-.45-.46-.54-.73s.28-.31.17-.53-.52-.14-.4-.51.39-.44.34-.74-.44-.27-.52-.52.13-.51-.1-.76a1.06,1.06,0,0,0-.68-.25l.08.14a.54.54,0,0,0-.12-.76l-.15-.07a.41.41,0,0,1-.25-.13.5.5,0,0,1,0-.12c-.05-.18,0-.29-.19-.37a.57.57,0,0,0-.18,0c-.22-.06-.17-.11-.15-.27s0-.3-.06-.43-.63-.15-.64-.38-.51-.06-.5.14.29.27.48.34c.42.15,0,.47.24.74s.22.09.34.14.1.32.23.48.25.11.37.17a.36.36,0,0,1,.13.54c-.05.07,0,.13.08.14.3,0,.63.1.61.47,0,.22-.09.41.07.58s.56.18.36.57c-.11.2-.31.36-.31.6s.11.28.27.36,0,.13,0,.32c-.17.46.92,1,.56,1.34l.44-.06c-.52-.51-.18-1.33-.45-1.94a.92.92,0,0,0-.57-.52c-.25-.1-.24-.22-.29-.47a.54.54,0,0,0-.25-.36.81.81,0,0,0-.31-.1c-.27-.06-.19-.18-.17-.4a.36.36,0,0,0-.32-.41c-.11,0-.26,0-.36,0s0-.21-.09-.38-.71-.24-.68-.45-.48-.11-.5.06Z"/><path class="cls-27" d="M55.3,98.74l-5.92,5.48.84.11a19.44,19.44,0,0,1,2.86-.17c.9,0,1.8-.16,2.7-.19a4.07,4.07,0,0,1,1.64-.36.44.44,0,0,0,.49-.39C58,102.41,55.3,98.74,55.3,98.74Z"/><path class="cls-27" d="M12.8,91c.77-1.2,2.13-.33,3-1.47s2.87-1.15,4-2.16c.88-.81.4-2,1.4-2.63l.71-10.22,1.51-5a31.05,31.05,0,0,0-2.29-9.76c-2-4.4-4.27-10-4.27-10s-4.48,1.41-6,9.47c-.71,3.82-1.81,14.4-1.81,14.4s-1.29,12.6-.86,15c.34,1.86,1,5.5,3.44,7.28"/><path class="cls-27" d="M62.51,82.45a54.68,54.68,0,0,0-6.23.44c-.19,0-3.64,1-3.83,1.06-.1.83-1,4-.65,4.93,1.75,4.47,13.83,18.78,13.83,18.78l4,2.93,7.51-5.93-4.5-7.3-4.63-7c-.1-.42-3.28-5.49-4.57-5.93"/><path class="cls-29" d="M39.08,70.73h0s0,.08,0,.12Z"/><path class="cls-29" d="M41.12,82.13h0v-.07Z"/><path class="cls-39" d="M48.37,69.11h0l0,0Z"/><path class="cls-39" d="M42.4,70.15l0,0v0Z"/><path class="cls-39" d="M48.24,69.12h-.05S48.22,69.11,48.24,69.12Z"/><path class="cls-39" d="M39.21,70.71s0,0,0,0Z"/><path class="cls-28" d="M22.84,78.88c.08-1.12.2-5.9.26-6.74s.12-1.73.15-2.3c0-.23,0-.43,0-.58a.75.75,0,0,0,0-.21,1.34,1.34,0,0,0,0,.2c0,.13,0,.33-.07.58-.05.58-.12,1.33-.21,2.31-.06.74-.27,5.21-.35,6.16C22.66,78.44,22.8,78.74,22.84,78.88Z"/><path class="cls-28" d="M39.3,103.64l1.24-1.85.11-.11-.14-.08-6.69-4.06L26,90.88A.65.65,0,0,0,26,91l0,.12,7.67,6.65,6.55,4L39,103.48,35.42,109C30.53,107,30,107,25,104.6c-.06.06,0,.15-.07.21,5.25,2.53,5.55,2.44,10.5,4.54l.12.05.08-.08C36.8,107.53,38,105.58,39.3,103.64Z"/><polygon class="cls-28" points="26.04 90.88 22.32 87.63 22.9 77.81 22.62 77.59 22.01 87.72 26.32 91.41 26.04 90.88"/><path class="cls-28" d="M15.49,99s9.53,5.64,9.88,5.8l-.15.17s-9.55-5.4-9.82-5.8Z"/><path class="cls-25" d="M45.73,38.33c-1.56,0-4.08-.14-4.08-.14s.48,2.63,4.08,2.62,4.07-2.64,4.07-2.64S47.28,38.33,45.73,38.33Z"/><path class="cls-26" d="M45.74,38.33c-.74,0-3.72-.08-3.72-.08s1,1.27,3.66,1.27c2.9,0,3.75-1.28,3.75-1.28Z"/><path class="cls-25" d="M50,37.94a6.23,6.23,0,0,1-.88.09c-.61-.05-1-.21-1.44-.24a6.52,6.52,0,0,0-1.56.24,6.65,6.65,0,0,0-1.57-.23c-.44,0-1.54.2-2.15.25a6.23,6.23,0,0,1-.88-.09c-.11,0,.11.83,4.24.82S50.08,38,50,37.94Z"/><path class="cls-32" d="M41.2,38a1.07,1.07,0,0,0-.47.64,1,1,0,0,0,0,.3l.08.45a.11.11,0,0,0,0,.08.14.14,0,0,0,.08,0,.67.67,0,0,0,.31,0,.24.24,0,0,0,.22-.2s0-.08,0-.12.15-.07.23-.08.26-.31.36-.5a1.13,1.13,0,0,1,.68-.49,2.46,2.46,0,0,0,.41-.13.42.42,0,0,0,.24-.34"/><path class="cls-32" d="M50.29,38.26a1.05,1.05,0,0,1,.4.68,1,1,0,0,1,0,.29l-.12.44a.2.2,0,0,1,0,.08.25.25,0,0,1-.09,0,.65.65,0,0,1-.31,0,.23.23,0,0,1-.2-.21.56.56,0,0,0,0-.13c0-.08-.14-.08-.22-.1s-.24-.33-.32-.53a1,1,0,0,0-.63-.55,2,2,0,0,1-.39-.18.4.4,0,0,1-.21-.35"/><path class="cls-32" d="M41.59,37.65c.15-.19.29-.12.51-.16a.57.57,0,0,0,.27-.13c.07-.06.1-.17.17-.23s0,0,.06,0,.09,0,.14.07a.72.72,0,0,0,.25.07.83.83,0,0,0,.54-.21l0,0c-.09,0-.11,0-.06,0s.07.06.09.08a.52.52,0,0,0,.3.06.88.88,0,0,0,.54-.29s.11-.07,0-.08.1,0,.14.05a.68.68,0,0,0,.28.07.57.57,0,0,0,.51-.24c.07-.1-.06-.17-.14-.17a.36.36,0,0,0-.34.14c.13,0,.16,0,.1-.06l-.09,0-.13-.05a.62.62,0,0,0-.33,0,1,1,0,0,0-.28.12,1,1,0,0,0-.23.22s0,0,0,0l0,0-.12-.08a.52.52,0,0,0-.25,0,.58.58,0,0,0-.28.09c-.05,0-.15.12-.2.13s0,0,0-.05L43,36.84a.62.62,0,0,0-.3-.06.77.77,0,0,0-.54.26.64.64,0,0,0-.1.13l0,0c.06,0,.07,0,0,0s-.25,0-.32,0a1,1,0,0,0-.51.33c-.2.24.29.26.41.11Z"/><path class="cls-32" d="M47.28,37.1c-.16.06-.06,0-.05,0l.08,0,.18.11a.72.72,0,0,0,.2.09,2.45,2.45,0,0,0,.27,0c.1,0,0,0,.07,0l.06.08a.46.46,0,0,0,.24.12.92.92,0,0,0,.53-.14c.1-.06,0,0,0,0l0,.06a1.08,1.08,0,0,0,.11.18.59.59,0,0,0,.49.14s.12,0,.16,0,0,.11.06.16a.25.25,0,0,0,.16.16l.12,0c.07,0,0,0,0,0,0,.21.54.09.5-.14a.22.22,0,0,0-.15-.16s-.12,0-.14,0,0,0,0-.05a.37.37,0,0,0-.35-.3,1.31,1.31,0,0,0-.28,0c-.1,0-.12,0-.16-.09s-.17-.27-.36-.29a.73.73,0,0,0-.36.08s-.12,0-.13.06h0s.06,0,0,0c-.1-.22-.34-.17-.52-.19s-.25-.13-.37-.19a.65.65,0,0,0-.56,0c-.1,0-.19.15-.13.24s.25.07.34,0Z"/><path class="cls-32" d="M45.69,37.1l-.17.7a.27.27,0,0,1-.23.19c-.75.06-3.6.3-4.27.25,0,0,0,.29,0,.28h-.15c-.25-.07,0-.9.22-1A14.43,14.43,0,0,1,42.93,37a15.47,15.47,0,0,1,2.53-.26A.26.26,0,0,1,45.69,37.1Z"/><path class="cls-32" d="M46.57,37.23l0,.64a.27.27,0,0,0,.2.22c.69.15,2.94.62,3.57.65h0l.2,0c.24,0,.13-.57-.09-.68A12,12,0,0,0,49,37.4a13.15,13.15,0,0,0-2.2-.47A.25.25,0,0,0,46.57,37.23Z"/><path class="cls-3" d="M176.49,122.05c6.33,0,12.66-.78,19-.81,1.37,0,2.63.29,2.74,1.54.28,3.23.67,6.71-4.1,6.37-.36,0-.74,0-1.09,0-1.66-.24-1.92.46-1.7,1.7.71,4,1.36,7.08,2,11.09,1.52,9.45,3.06,18.9,4.54,28.35.41,2.61.32,2.58-2.85,2.53-1,0-1.4-.27-1.53-1.14-1.46-9.29-3-18.58-4.43-27.88-.17-1.09-.56-1.51-1.92-1.5q-10.59.09-21.18,0c-1.39,0-1.87.35-2,1.55q-2.06,13.24-4.26,26.47c-.43,2.59-.49,2.53-3.58,2.49-1.23,0-1.37-.39-1.22-1.33,2.29-13.83,4.52-26.7,6.8-40.53.24-1.41-.12-2.09-1.91-1.84a13.8,13.8,0,0,1-1.82,0c-2.71,0-3.24-1.44-3.24-3.88,0-2.66.49-4,3.16-4q9.31,0,18.63,0Zm10.36,17.1c1.37,0,1.65-.39,1.46-1.47-.55-3.12-1.05-4-1.52-7.14-.16-1-.54-1.49-1.93-1.47-5.59.09-11.19.08-16.78,0-1.28,0-1.67.4-1.82,1.38-.49,3.23-1,4.22-1.58,7.45-.18,1,.3,1.24,1.38,1.23,3.53,0,7.05,0,10.58,0S183.45,139.07,186.85,139.15Z"/><path class="cls-4" d="M193.33,142c.24,1.45.47,2.91.71,4.37-1.48.3-2.95.65-4.42,1-.18-1.17-.37-2.35-.55-3.53s-.57-1.51-1.92-1.5q-10.59.09-21.19,0c-1.39,0-1.86.36-2.05,1.56s-.36,2.28-.53,3.42a37.21,37.21,0,0,1-4.15-1.81c.8-4.77,1.61-9.58,2.43-14.51a2.78,2.78,0,0,0,0-1.15c1,.07,1.93.12,2.9.15.59,0,1.18,0,1.78.06a2.47,2.47,0,0,0-.11.45c-.49,3.24-1,4.22-1.57,7.45-.18,1,.3,1.25,1.38,1.23,3.52,0,7,0,10.58,0s6.81,0,10.21,0c1.37,0,1.65-.38,1.46-1.46-.56-3.13-1.06-4-1.53-7.14a2,2,0,0,0-.34-1c1.67-.06,3.35-.1,5-.12a1.78,1.78,0,0,0-.13,1.38C192,134.86,192.68,137.93,193.33,142Z"/><path class="cls-4" d="M198.29,123.44s-18.54,3.25-27.26,2.1-16.29-1.58-15.93-3,6.52-4.35,12.74-4.56,23.25,1.39,23.25,1.39,5.39,1.36,6.32,1.84A2.05,2.05,0,0,1,198.29,123.44Z"/><path class="cls-40" d="M187.51,93s9.37,14.49,3.63,25.38c-2.74,5.18-10.94,5.18-10.94,5.18L171.79,113V95.52Z"/><path class="cls-40" d="M130.22,112c.43,12.73,1.46,31.5,3.48,44.5,0,0,12.48,3.28,13.93.43,0,0,1.09-22,5.92-37.62,4.25-13.74,30-14.79,26.76-16-5.15-2-38.22-6.24-44.61-3.94C131.46,100.84,129.94,103.54,130.22,112Z"/><path class="cls-40" d="M139,117.31c-.07-.82-.18-1.64-.32-2.44a34.77,34.77,0,0,0-1.4-5.35,37.78,37.78,0,0,0-2.23-5.18,30.61,30.61,0,0,0-2-3.25c16.11-2.66,49.15,1.21,49.15,1.21s12.17,3.85,8.63,14.52c-4.7,14.14-39.68,5-51.68.55Z"/><path class="cls-40" d="M136.66,101.57a21,21,0,0,1,4.33.71,11.54,11.54,0,0,1-.21-2.23c.29-.24.6-.49.93-.74a28.64,28.64,0,0,1,3.87,2.54,34.94,34.94,0,0,1,4,3.67,32,32,0,0,1,3.32,4.17c.28.42,4.3.85,4.56,1.29-.05,0-.2,2.54-.25,2.54,3.64,6.88-2.07,17.06-1.72,29.29.32,10.74.34,8.18.92,13.89-1.72,2.58-14.87,1.37-14.87,1.37C139.9,141.5,136.66,101.57,136.66,101.57Z"/><path class="cls-41" d="M144.07,99s-5.7-1.16-7.19,1.11-1,5.56-1,5.56-.22-5.49,2.6-6.23A18,18,0,0,1,144.07,99Z"/><path class="cls-5" d="M156.6,83.43,155.91,79l-.15-.09c-.09-.17-.26-.52-.52-.5-1.2.11-.72,1.76-1.46.93s-2.12.35-2.87-.43-.52,2.41-1.61,1.91c.18-.77-.66-10-.52-10.75.5-4.41.54-6.45,1.64-9.49a19.52,19.52,0,0,1,1.84-4,15.12,15.12,0,0,1,2.41-1.95l6.25-2.72,3-1.09,7.74-3.51,5.18,2.13s7.25,2.25,8.69,3.35c1.77,1.34-.24,25.88-.24,25.88a44.35,44.35,0,0,0,6,19.48,5.89,5.89,0,0,1,.21.59c.07.23-1.37,1.19-1.55,1.31a11.65,11.65,0,0,1-2.22.67,18,18,0,0,1-3.82.52,56.79,56.79,0,0,1-5.68.51c-1.77,0-2,.57-6.22.08l-18.7-2.49,2-7.79A24.69,24.69,0,0,0,156.6,83.43Z"/><path class="cls-13" d="M173.35,39.13s-.5,5.48,1.11,9.12c.23.51,3.65,1.75,3.65,1.75l-4.36,1.86a25.58,25.58,0,0,1-8.67,1c-1.31-.13-3.17-.06-4.16-.93h0s2.36-.89,2.47-1.54-.6-6.06-.6-6.06"/><path class="cls-15" d="M163.28,48.57a12.58,12.58,0,0,1,1.95-1c.77-.26,2.09-.29,5.48-3.59a7,7,0,0,1-5.33,4.94,6.07,6.07,0,0,1-2,.2Z"/><path class="cls-13" d="M158.05,25.47l0,.09,0,0Zm-2,.77v0l.08-.09S156.08,26.24,156.08,26.24ZM173.26,40l.15-.74c1.08,1.18,2.53,0,2.42-1.82.4-1,.73-4-.11-4.91l-.11-.13c-.57-.35-1.52-.42-1.84.32-.09.31.06.68,0,1a7.91,7.91,0,0,1-.69,1.4,19.16,19.16,0,0,1-.56-2.52,6.27,6.27,0,0,0-2.56-4s-.37-2.85-1.15-3.6l-.24-.05c-.14,0-.22.08-.36.1s0-.1,0-.18a1.54,1.54,0,0,1-.59.13c0-.05.12-.11.12-.15a2.1,2.1,0,0,1-.56.08c0-.05.12-.14.11-.19-.21.12-.36.06-.55.09a.4.4,0,0,0,.07-.19,1.34,1.34,0,0,1-.55.13c0-.05.07-.14.11-.19-.21.11-.37.05-.55.08s.08-.1.07-.14a1.74,1.74,0,0,1-.45.11c0-.05.08-.1.07-.14a1.36,1.36,0,0,1-.6.08l.12-.19a.65.65,0,0,1-.55.17.59.59,0,0,0,.12-.19.94.94,0,0,1-.73.19c.05,0,.12-.14.11-.19a.89.89,0,0,1-.62.23c0-.05.07-.14.15-.24a.94.94,0,0,1-.86.25c.05,0,.08-.14.07-.18-.16.2.16-.07-.08-.07a2.69,2.69,0,0,1-.51.2c-.17.15.38-.79.15-.76,0-.09-1.32.28-1.24.18-.2.2-.17.11-.45.11,0,0-.89.64-.85.59-.2.25-.33.09-.61.09,0,0,.19.15.23.1-.16.2-.13,0-.36,0,0,0-.79-.16-.8-.21-.21.16-.13.17-.41.21,0,0-.11.49-.07.45-.16.19-.17.05-.4,0l-.21.19c-.2.25.1.11-.18.11,0,0,1.06,0,1.1-.08a1.82,1.82,0,0,1-.56.35c0-.05,0-.14,0-.18a.93.93,0,0,1-.7.36s.08-.1.07-.14a.7.7,0,0,1-.75.33h0a1.44,1.44,0,0,1-.6.4.17.17,0,0,1,.06-.18l-.18,0a3.09,3.09,0,0,0-.4,1.15s-1.26,2.66-1,4.22.95,4.19,1.1,4.86a13.73,13.73,0,0,1,.22,2.14,6.72,6.72,0,0,0,.63,3.07,9,9,0,0,0,1.88,3,20.71,20.71,0,0,0,3.46,2.81,4.48,4.48,0,0,0,2.9.86c2.88-.29,5.43-2.64,7-4.75"/><path class="cls-42" d="M154.88,29.34c.76-2.64,3.43-4.43,9.16-6a21.07,21.07,0,0,1,10.61-.1c-3.94-8-12.38-6.45-14.27-6.17s-9.8,9.43-6.37,15.54l.26.63S154.74,29.81,154.88,29.34Z"/><path class="cls-42" d="M175.89,21.29s-.06-5.34-4.15-6.54c-5.45-1.6-12.57-1.61-14.28,4.13Z"/><path class="cls-43" d="M177.23,34.08c.36-.49.07-1.69.36-2.22a5.9,5.9,0,0,0-.37-6.5c-.41-.59-.13-1.77-.24-2.32-.58-2.9-.93-2.94-5.71-5.3-3.89-1.92-7.7-1.25-9.9-.81-3.52.71-5.06,1.16-5.93,3.86-.11.35.1.59,0,1-.11.59-.8,1.21-.84,1.94A54.15,54.15,0,0,1,163.48,26c4.22,1.54,12.35,8.69,12.43,11.18A29.44,29.44,0,0,1,177.23,34.08Z"/><path class="cls-42" d="M178.36,28.26S170.45,21,163.12,22c0,0,9.19-2.6,14.34,3.56l.14.25a6.69,6.69,0,0,1,.72,2.17Z"/><path class="cls-42" d="M155.38,21.91l.47-.26a12.71,12.71,0,0,1,3.48-1.3l2-.45s-5.11-.14-6,1.28Z"/><path class="cls-44" d="M174.13,38.67a.88.88,0,0,1,.81,1.32.68.68,0,0,1-.27.26.82.82,0,0,1-.76,0s-.23.05-.16.09a1.15,1.15,0,0,0,1.26-.21.93.93,0,0,0,0-1.28,1,1,0,0,0-.77-.29.19.19,0,0,0-.13,0s0,.06,0,.05Z"/><path class="cls-17" d="M171.86,31.81l.85,4.08,1.18-2Z"/><path class="cls-33" d="M173.67,36.24c.13,0,.33,0,.37.13a.87.87,0,0,1,0,.42c-.07.3-.19.7.08.93s.7-.24.81-.51a1.92,1.92,0,0,0,.11-1.16c-.09-.39-.27-.92-.71-1-.08,0-.23.1-.11.13.37.1.52.55.6.88a1.73,1.73,0,0,1,0,1,1,1,0,0,1-.35.57c-.11.08-.21,0-.26-.14-.11-.29.05-.63.1-.91a.4.4,0,0,0,0-.37c-.11-.14-.34-.12-.49-.1s-.16.16,0,.14Z"/><path class="cls-42" d="M174.09,29.56s3,2.31,3.35,3.34l.15-1A5.45,5.45,0,0,0,174.09,29.56Z"/><path class="cls-16" d="M161.18,40.65a1.34,1.34,0,0,0,1.19-.26c.07,0,.33,0,.23,0a1.88,1.88,0,0,1-1.63.31s0-.05,0-.08a.35.35,0,0,1,.2,0"/><path class="cls-16" d="M162.73,40.31a2.39,2.39,0,0,1,.72-.3.23.23,0,0,1,.12,0s0,0,0,.06a.76.76,0,0,1-.39.16.19.19,0,0,1-.13,0s0-.06,0-.07a.6.6,0,0,0,.32-.12l.13.08a2,2,0,0,0-.64.26.17.17,0,0,1-.14,0s-.06-.05,0-.07"/><path class="cls-16" d="M163.76,40.19a1,1,0,0,0,.74-.48.85.85,0,0,0-.52-1s0-.05,0-.06a.22.22,0,0,1,.16,0,1.06,1.06,0,0,1,.63.87.85.85,0,0,1-.61.69,1.7,1.7,0,0,1-.32.1c-.05,0-.13,0-.16,0s0,0,.06-.06"/><path class="cls-16" d="M160.61,40.57s0,0-.05,0a.29.29,0,0,1-.24,0l-.07.11a1,1,0,0,1,.5.1.1.1,0,0,0,.09,0,.05.05,0,0,0,0-.08"/><path class="cls-16" d="M160.84,40.58a1.19,1.19,0,0,0-.55-.1.1.1,0,0,0-.08.05,0,0,0,0,0,0,.06"/><path class="cls-16" d="M160,40.71a.62.62,0,0,1-.57-.29.87.87,0,0,1,.09-1s0-.06,0-.06a.1.1,0,0,0-.1.05,1,1,0,0,0-.2.86.68.68,0,0,0,.54.52.78.78,0,0,0,.22,0s.08,0,.09-.07,0,0,0,0"/><path class="cls-17" d="M159.1,35.11a6,6,0,0,1-1.68,1.38,3.17,3.17,0,0,1-2.56-.44,6.18,6.18,0,0,0,2.29.29A10.9,10.9,0,0,0,159.1,35.11Z"/><path class="cls-17" d="M163.13,34.49a6.72,6.72,0,0,0,2.26.53,3.55,3.55,0,0,0,2.33-1.51,7,7,0,0,1-2.13,1.25A11.91,11.91,0,0,1,163.13,34.49Z"/><path class="cls-17" d="M154.46,34.67v-.08a1.57,1.57,0,0,1,0-.23.76.76,0,0,0,0-.15h0a1.42,1.42,0,0,0,.08-.18,1.9,1.9,0,0,1,.17-.2,2.76,2.76,0,0,1,.86-.5,9.57,9.57,0,0,1,2.83-.28l.06.57c0,.14,0,.29,0,.43-.5-.07-.92-.11-1.24-.13a4.32,4.32,0,0,0-1.4,0,3.43,3.43,0,0,0-.85.37,2,2,0,0,0-.44.29Z"/><path class="cls-17" d="M162.5,32.15c.05.19.09.37.14.56s.07.28.11.42c.52-.26,1-.45,1.32-.59a5.55,5.55,0,0,1,1.56-.49,4.82,4.82,0,0,1,1.07,0,2.69,2.69,0,0,1,.59.11c.43.14.64.36.7.32s-.1-.24-.11-.26a2.2,2.2,0,0,0-1-.74,3.25,3.25,0,0,0-1.12-.15,12.66,12.66,0,0,0-3.23.8"/><polyline class="cls-13" points="192.45 93.24 179.62 107.47 176.46 104.58 185.64 87.4"/><path class="cls-13" d="M169.41,112.94c-.45,0-.68-.06-.9-.49a1.63,1.63,0,0,1-.09-.61l2.51-4.57c-.87-.1-2,1.78-2.83,1.51s-.1-.92,0-1.11,2.47-2.71,2.47-2.71a34.18,34.18,0,0,1,3.44-1.61c.71-.17,2.78-.37,2.78-.37l1.45-.38a20.55,20.55,0,0,1,4.28,1.65c.11.07-2.07,2.31-2.58,3.33s-1.94,3.15-1.94,3.15a30.61,30.61,0,0,1-3.79,2.25,3.59,3.59,0,0,1-1.48-.41,5.1,5.1,0,0,0-1.13.41c-1.48.39-1.49-.4-1.49-.4l-.34.21S169.44,112.92,169.41,112.94Z"/><path class="cls-15" d="M170.68,107.81a11.86,11.86,0,0,0,1-1.42,6.5,6.5,0,0,0,.92-1.49,7.27,7.27,0,0,0-1.1,1.37A5,5,0,0,0,170.68,107.81Z"/><path class="cls-15" d="M173.49,108.43a9.54,9.54,0,0,0-1.69,1.94c-.42.58-.79,1.11-1.06,1.49a3.84,3.84,0,0,0-.42.63,2.17,2.17,0,0,0,.55-.54c.3-.35.69-.87,1.11-1.44C172.8,109.35,173.53,108.47,173.49,108.43Z"/><path class="cls-15" d="M175.26,109.42s-.51.74-1.21,1.6-1.34,1.48-1.32,1.52a5.44,5.44,0,0,0,1.47-1.4A5.37,5.37,0,0,0,175.26,109.42Z"/><path class="cls-5" d="M185.57,52.76s5.05,1.44,6.81,5.87,6.48,17.63,5,26c-.51,3-13,21-13,21l-7.18-4.87,9.85-19.87s-2.74-8.45-3.37-12.12S185.57,52.76,185.57,52.76Z"/><line class="cls-45" x1="162.18" y1="72.21" x2="162.18" y2="72.42"/><path class="cls-25" d="M162.64,42.54c1.42-.25,3.69-.79,3.69-.79s0,2.42-3.31,3-4.13-1.7-4.13-1.7S161.22,42.79,162.64,42.54Z"/><path class="cls-26" d="M162.62,42.53c.68-.12,3.38-.67,3.38-.67s-.73,1.12-3.17,1.54c-2.65.47-3.59-.34-3.59-.34Z"/><path class="cls-25" d="M158.71,42.87a5.17,5.17,0,0,0,.81-.06c.55-.14.87-.35,1.27-.45a6.35,6.35,0,0,1,1.47,0,6.06,6.06,0,0,1,1.4-.46c.41,0,1.43-.07,2-.12a4.87,4.87,0,0,0,.79-.23c.1,0,0,.78-3.74,1.44S158.61,42.91,158.71,42.87Z"/><path class="cls-40" d="M182.89,61.44s0-.49,0-1.2a7.5,7.5,0,0,1,.7-2.75,8.2,8.2,0,0,1,.84-1.32,7.13,7.13,0,0,1,.89-.93c.56-.47,1-.68.95-.71s-.11,0-.3.12a1.74,1.74,0,0,0-.33.18,3.13,3.13,0,0,0-.42.29,5.85,5.85,0,0,0-1,.91,7,7,0,0,0-.88,1.36,6.69,6.69,0,0,0-.66,2.85,5.35,5.35,0,0,0,.08.89A.91.91,0,0,0,182.89,61.44Z"/><path class="cls-40" d="M153.75,64.59a60,60,0,0,0-.7,7.81c.07,1.5,1.29,3.89,2.13,5.38.38.66.68,1.15.78,1.3-.07,0,.06.38,0,.43l-.2-.34a15,15,0,0,1-2.44-4.3C152,71.53,153.75,64.59,153.75,64.59Z"/><path class="cls-40" d="M185.68,75.7a.48.48,0,0,0-.19.25,88.09,88.09,0,0,1-2.65-11.77S184.29,70.77,185.68,75.7Z"/><path class="cls-40" d="M176.82,101l9.1-17.56c0,.11-.06-.08,0,0l-8.71,17.51.89.59,0,.1Z"/><path class="cls-40" d="M187.28,81s3.85.14,5.39,2.28C192.67,83.24,190.55,79.59,187.28,81Z"/><path class="cls-10" d="M100.59,81.91a9.87,9.87,0,0,0,.25,3.76,23.62,23.62,0,0,0,2.5,4.23,8,8,0,0,1,1.15,6.28l-.62-.1s.8-2.62-.26-4.41a47.16,47.16,0,0,1-3-5.37,6.88,6.88,0,0,1-.2-4.59Z"/><path class="cls-40" d="M154.89,93.36a58.59,58.59,0,0,0,2.18-8.84,8.12,8.12,0,0,0-.93-5.1l-.18.09A10.59,10.59,0,0,1,157,83.19C157,84.77,154.89,93.36,154.89,93.36Z"/><path class="cls-30" d="M69.63,112.54s1.13-6.43-4.45-8c-7.59-2.16-40.81,2.83-40.81,2.83l45.26,5.18"/><path class="cls-28" d="M16.2,89A6.43,6.43,0,0,1,19,87.84a6.42,6.42,0,0,1,3,0c0,.08-1.36,0-3,.32S16.24,89,16.2,89Z"/><polygon class="cls-28" points="58.02 60.09 55.75 94.73 56.29 95.09 58.02 60.09"/><path class="cls-30" d="M82.32,117.66c-1.73,9.52-3.92,30.34-6.55,41.93,0,0-13.12,2.49-14.45-.12,0,0-14.66-53.22-7.49-55.36,5.29-1.58,21.57-1.26,24.72.59C82.33,106.93,83.69,110.17,82.32,117.66Z"/><path class="cls-30" d="M72.35,112.54a24.26,24.26,0,0,0-4.5.4,10.66,10.66,0,0,0,.38-2c-.29-.24-.59-.49-.91-.74a30.64,30.64,0,0,0-4.16,2.11,35.14,35.14,0,0,0-4.41,3.13A31,31,0,0,0,55,119.05c-.32.37-.62.75-.92,1.14l.14,0C50,126.3,52,138.1,50.78,149.28c-.92,8.21-2.22,15-2.22,15,1.58,2.46,15.42,1.26,15.42,1.26C66.88,150.44,72.35,112.54,72.35,112.54Z"/><path class="cls-46" d="M64,165.52c2.54-15,8.37-53,8.37-53H73l-8.57,53Z"/><path class="cls-46" d="M51.28,127.27l-.43,0a12.49,12.49,0,0,1,3.41-7.58,15.57,15.57,0,0,0-2.47,7.48Z"/><path class="cls-46" d="M72.35,112.54s1.51-5.71-5.85-7.36c0,0,7.61.47,6.52,7.36Z"/><path class="cls-13" d="M52.79,111.2a1.66,1.66,0,0,0,1-1.2c0-.24-.17-.3-.25-.57l-4.28-4.16c1-.51,3.15,1.19,4,.49s-.3-1.13-.51-1.3-4.13-2.07-4.13-2.07a41,41,0,0,0-4.78-.33c-.91.12-3.44.82-3.44.82l-1.13.24s-2.72,4.18-3.57,5.7c-.08.15,2,.64,3.05,1.6a18.31,18.31,0,0,0,3.74,2.13,39.9,39.9,0,0,0,5.48.93,4.53,4.53,0,0,0,1.56-1.16,5.4,5.4,0,0,1,1.27,0c1.15.08,1.81-1.21,1.81-1.21h0Z"/><path class="cls-47" d="M49.84,105.8A15.85,15.85,0,0,1,48,104.58a8.4,8.4,0,0,1-1.76-1.33,9.64,9.64,0,0,1,1.92,1.1A6.3,6.3,0,0,1,49.84,105.8Z"/><path class="cls-47" d="M46.82,107.8a11.77,11.77,0,0,1,2.87,1.52c.76.48,1.43.94,1.92,1.27a4.23,4.23,0,0,1,.78.55,2.84,2.84,0,0,1-.89-.39c-.51-.28-1.2-.71-2-1.2C48,108.57,46.79,107.86,46.82,107.8Z"/><path class="cls-47" d="M45.18,109.76c0-.06.94.64,2.15,1.34s2.26,1.13,2.25,1.18a6.83,6.83,0,0,1-2.37-1A6.69,6.69,0,0,1,45.18,109.76Z"/><path class="cls-27" d="M39.93,101.87,32.59,98l-7.7-5.72c-1.26-.31-.89.64-2.18.57a23.7,23.7,0,0,0-4.21.17c-1.34.17,1.07-6.23-.25-6a46.77,46.77,0,0,0-5.33,2c-.17.07-2.85,1.86-3,1.93.21.78.54,3.88,1.2,4.64,3.16,3.6,19.7,11.87,19.7,11.87l4.62,1.64Z"/><path class="cls-48" d="M93.54,82.13a9.5,9.5,0,0,0-4.23-.83,10.91,10.91,0,0,0-3.07.41s3.2,0,4.13-.15A11.84,11.84,0,0,1,93.54,82.13Z"/><path class="cls-40" d="M170.37,80.5a9.43,9.43,0,0,0-4.29-.42,10.67,10.67,0,0,0-3,.7s3.17-.33,4.08-.54A11.44,11.44,0,0,1,170.37,80.5Z"/><path class="cls-20" d="M37.24,29l.32,1a14.34,14.34,0,0,0,1,2.82c.37.62,4.58,1,5.43.51s1.38-2.86,1.61-3.41l1.69.14a14.38,14.38,0,0,0,.9,3.36,7,7,0,0,0,2.47.32l.71,0a3.86,3.86,0,0,0,1.91-.4A11.2,11.2,0,0,0,54.59,30l.07-.22a1.1,1.1,0,0,1,0-.11h0l.08-.26a7.83,7.83,0,0,0-7.57.23v0l-1.64-.15a8.92,8.92,0,0,0-7.35-1.23h0l-7.18,1,0,.63ZM48.37,33.2a15.07,15.07,0,0,1-.81-3.08,7.52,7.52,0,0,1,6.75-.26v0a12.64,12.64,0,0,1-1.25,3.21c-.48.46-4.34.41-4.69.1Zm-9.32-.52A22,22,0,0,1,37.76,29c2.08-.87,5.63-.25,7.41,1-.32,1-.74,2.75-1.35,3.08-.87.48-4.54,0-4.77-.38Z"/><path class="cls-21" d="M48.4,33.16a14.24,14.24,0,0,1-.82-3.08,7.52,7.52,0,0,1,6.75-.26v0a12.64,12.64,0,0,1-1.25,3.21c-.48.46-4.34.41-4.68.1Z"/><path class="cls-21" d="M39,32.69A22,22,0,0,1,37.74,29c2.07-.87,5.62-.24,7.41,1-.32,1-.74,2.76-1.35,3.08-.87.48-4.55,0-4.77-.38Z"/></g></svg>