<svg id="Layer_1" data-name="Layer 1" xmlns="http://www.w3.org/2000/svg" xmlns:xlink="http://www.w3.org/1999/xlink" viewBox="0 0 205.83 138.61"><defs><style>.cls-1,.cls-23{fill:none;}.cls-2{clip-path:url(#clip-path);}.cls-3{fill:#a66e53;}.cls-4{fill:#4f2e25;}.cls-5{fill:#517568;}.cls-6{fill:#3a3a3a;}.cls-7{fill:#1d1e1e;stroke:#1d1e1e;}.cls-13,.cls-15,.cls-16,.cls-17,.cls-23,.cls-7,.cls-8{stroke-miterlimit:10;}.cls-13,.cls-15,.cls-17,.cls-7{stroke-width:0.24px;}.cls-8,.cls-9{fill:#151210;}.cls-8{stroke:#161311;stroke-width:0.11px;}.cls-10{fill:#161311;}.cls-11{fill:#231f20;}.cls-12{fill:#010101;}.cls-13{fill:#304941;stroke:#304941;}.cls-14{fill:#c98532;}.cls-15{fill:#895522;}.cls-15,.cls-17{stroke:#895522;}.cls-16{fill:#993a2f;stroke:#993a2f;stroke-width:0.06px;}.cls-17{fill:#663715;}.cls-18{fill:#5e5f5f;}.cls-19{fill:#853324;}.cls-20{fill:#ec9a6f;}.cls-21{fill:#13110f;}.cls-22{fill:#878787;}.cls-23{stroke:#010101;stroke-width:0.26px;}.cls-24{fill:#273339;}.cls-25{fill:#fff;opacity:0.14;}.cls-26{fill:#622515;}.cls-27{fill:#462a14;}.cls-28{fill:#653c29;}.cls-29{fill:#31160e;}.cls-30{fill:#f1eef7;}</style><clipPath id="clip-path"><rect class="cls-1" x="-23.07" y="-2.37" width="247.03" height="141.16"/></clipPath></defs><g class="cls-2"><path class="cls-3" d="M119.58,94.73l-2.21-.54L116.11,99l.18,1.3,2.31.52C118.91,98.92,119.32,96.53,119.58,94.73Z"/><path class="cls-3" d="M118.21,96.68a4.78,4.78,0,0,0-1.72-4.34,16.63,16.63,0,0,0-5-2.51c-1.11-.43-3.45-2.17-3.83-1.7a1.5,1.5,0,0,0,.11,2c.62.79,3,1.43,3.12,2.56a.84.84,0,0,1-.76.92,55.44,55.44,0,0,1-5.55.43c-1.66,0-3.12.34-3,.9s.45.86,1.82.9,3.57-.17,3.7.13-.31.53-1.11.52-4.54.2-4.77.64a.84.84,0,0,0,.52,1.19l.9.27s-.47.73,0,1.11a2.09,2.09,0,0,0,1.41.18l5-.42s.3.28.17.49-4,.15-4,.58-.34.64.84.86a15.4,15.4,0,0,0,5.14-.29,51.57,51.57,0,0,1,5.42-.78Z"/><path class="cls-4" d="M109.44,97.72a15.21,15.21,0,0,1-3.4.66l-3.41.17S107.94,97.45,109.44,97.72Z"/><path class="cls-4" d="M111.77,93.66a3.62,3.62,0,0,0,.32,2.33c.28.52.56.74.53.79l1,.67A6.27,6.27,0,0,1,111.77,93.66Z"/><path class="cls-3" d="M180.23,45.78s-2.06,13.78-1.07,16.74c.23.72,10.45,5.85,10.45,5.85l-23.69,5L157,66.78s8.32-2.45,8.57-3.31a65.88,65.88,0,0,0,0-7.09"/><path class="cls-5" d="M195.58,71.63c-.82-1.77-4.3-4.65-6.08-5.46-4.64-2.1-9.4-3.9-9.4-3.9-4.75,7.15-13.54,9-15.57,1.48l-3.18,1.18L157,66.58s-5.67,1-7.65,10.38c-1.58,7.48-3.93,10.94-3.93,10.94s0,1.43,5.51,3.33a12.35,12.35,0,0,1,2.89,1.68h0c.08.17.78,14.5.78,14.74,0,4.07-1,8.12-1.08,12.19a46.18,46.18,0,0,1-.52,7.62,12.17,12.17,0,0,0,3.27,2.33c2.65,1.29,5.14,1.5,8.12,1.87,0,0,19,0,26.16-2.49.67-.23,3.65,0,4-.5s-1.42-4.7-1.4-5.39c0-1.17.07-2.34.11-3.51.2-8.72-2.62-20-3.31-25.53l5.1-1.9,5.29-4.58C198.62,77.59,197.49,75.73,195.58,71.63Z"/><path class="cls-6" d="M121.46,133.57c1.68,11.24,1.16,43.94,3.77,57.64,0,0,16.31,4.45,17.83,1.42,0,0,1-34.07,5.91-50.64,4.3-14.59,16.08-18.13,12.42-19.4-5.75-2-30.91-6-34.4-3.87C122.8,121.24,120.14,124.72,121.46,133.57Z"/><path class="cls-6" d="M129.69,140.56c-.06-.87-.15-1.74-.28-2.59a36.14,36.14,0,0,0-1.39-5.72,38.63,38.63,0,0,0-2.3-5.57c-.63-1.22,11.62-3.72,10.85-4.85,17.87-2.06,41.31,4.9,41.31,4.9s15.4,4.63,11.16,15.73c-5.62,14.72-46,3.38-59.17-1.82Z"/><path class="cls-7" d="M130.17,187.36c-.76-18.85-1.92-59.07-1.92-59.07l-.71-.08,2.15,59.1Z"/><path class="cls-7" d="M128.25,128.29s-.86-6.71,7.2-7.7c0,0-8.18-.39-7.91,7.62Z"/><path class="cls-7" d="M134.58,120.6s4.13.19,11.21,1.22,7,1,10.07,1.28c0,0-19.42-2.91-21.28-2.5Z"/><path class="cls-8" d="M155.64,35.84h0c-.44-1.66-.6-2.69-.14-3.85.32-.82,1.74-1.66,1.74-1.66s.32-2.45,1.42-2.11c0,0,1.1-3.26,4.33-2.42a1.7,1.7,0,0,1,1.53.37,2.79,2.79,0,0,1,4.3-.85s1.07-.69,1.43.16c0,0,1.87-1.76,3.71-.33,0,0,4.68-.91,5.82,2a2.55,2.55,0,0,1,3.44,1s1.18.09,1.18,1.72c0,0,1.75.52,1.91,1.59a3.1,3.1,0,0,1,.94,2.51c0,.49-.19.36-.35,1,1,1.95-.51,2.17-.51,2.17,1.5,1.81-.4,4-.4,4a5.59,5.59,0,0,1,.33,2.3c-.63,3.67-2.95,4.65-2.95,4.65a73.91,73.91,0,0,1-.4-7.47c.14-2.09-1.55-5.73-2.12-6.52s-4.61.62-10.81.62-7.44-1.11-8.18-.91c-1.53.41-2.83,5.84-2.78,7.48a35.09,35.09,0,0,1-.47,4.74s-3.29-1.41-2.4-4.17c0,0-1.09-2-.66-3.18a1.24,1.24,0,0,1,.36-.75S154.8,36.81,155.64,35.84Z"/><path class="cls-3" d="M176.3,56.68a18.33,18.33,0,0,1-9.64,5.59c-3.42.77-4.59-.35-5.08-.84a22,22,0,0,1-5.49-8.77,8.15,8.15,0,0,1-.29-2.81c.06-1.47.29-4.28.24-5.68-.13-3.57.2-6.81,2.11-9.85,4-6.33,13.73-6.39,17.38-4.74,4.27,1.93,6.26,6,6.61,10.32a11.78,11.78,0,0,1-.34,4,12.92,12.92,0,0,0-1.52,2.18"/><path class="cls-9" d="M158.16,34.92s-.28.26-2,4.65c.43-1.4.63-3.48,1.77-5.43,4-6.81,16.82-6.15,20.47-4.36,4.28,2.09,5.93,6.41,6.28,11.1a10.71,10.71,0,0,1-.28,4.7S184,46,184,46s-3.81.81-5,3.16l-.1-2A42.16,42.16,0,0,1,177,40.24s-.05-2.4,0-3.12c.06-2.21-1.92-1.71-3.29-1.33a18.7,18.7,0,0,1-3.58.4c-2.26,0-5.11-.29-6.17-.26A37.92,37.92,0,0,1,158.16,34.92Z"/><path class="cls-10" d="M158,34.94a5,5,0,0,0-.71,1.43c-.19.44-.38.87-.56,1.31l-.37.87c0,.11-.36,1,0,.7s.33-1.39.4-1.66a15.84,15.84,0,0,1,.55-1.9c1.66-4.51,6.26-6.36,10.72-6.88,3.17-.38,7-.39,10,.93,4.6,2,6.17,7,6.5,11.64.1,1.27.36,3.23-.42,4.34-.19.27-.5.29-1,.44a7.34,7.34,0,0,0-4.3,3l.31-.07a12.49,12.49,0,0,0-.09-2c-.11-.52-.37-1-.53-1.55a25.59,25.59,0,0,1-1.35-7.69c0-.89.11-2-.9-2.33a4,4,0,0,0-2.08.14c-3.1.74-6.15.39-9.3.27a34,34,0,0,1-6.57-1c-.07,0-.33.09-.26.11a35.3,35.3,0,0,0,6.76,1c1.91.08,3.83.31,5.74.23a33.15,33.15,0,0,0,4.11-.64c2.46-.41,2.17,1.51,2.2,3.25a20.48,20.48,0,0,0,.78,4.79c.3,1.14.79,2.26,1,3.41a12.33,12.33,0,0,1,.13,2.11c0,.06.29,0,.31-.07,1.08-1.89,2.94-2.26,4.76-3.06,1.1-.48,1-2.26,1-3.29-.07-4.25-1-9-4.47-11.79-2.33-1.88-5.3-2.31-8.21-2.41A22.62,22.62,0,0,0,162.9,30a11.38,11.38,0,0,0-4.07,2.7c-1.81,2-2.16,4.46-2.87,6.92,0,0,.28,0,.31-.06.53-1.31,1-2.63,1.65-3.9a3.83,3.83,0,0,1,.38-.73C158.36,34.85,158.07,34.89,158,34.94Z"/><path class="cls-3" d="M178.41,53.29c1.84,1.83,3.73-1.15,3.73-1.15a8,8,0,0,0,1.55-5.91c-.1-1.53-1.78-1.47-1.78-1.47-1.43.19-1.22.35-3.07,4.47"/><path class="cls-11" d="M180.39,48.5a7.77,7.77,0,0,1,.89-1.86,1.73,1.73,0,0,1,.66-.63l.11,0h.12l.06,0s0,0,0,0a.86.86,0,0,1,.15.22,2.85,2.85,0,0,1,.28,1.88c0,.1.22.06.23,0a3,3,0,0,0-.23-1.86c-.06-.11-.14-.29-.26-.35-.45-.21-1,.26-1.21.57a7.2,7.2,0,0,0-1,2.09c0,.09.21.06.24,0Z"/><path class="cls-11" d="M180.22,49.5c.86,0-.38,2,.34,2,.19,0,.3-.19.38-.34a4.59,4.59,0,0,0,.35-1,3.6,3.6,0,0,0,.16-1.22,1.61,1.61,0,0,0-.62-1.4c-.08,0-.29.08-.18.14a1.39,1.39,0,0,1,.55,1.16,2.84,2.84,0,0,1,0,.92,7.46,7.46,0,0,1-.31,1,2.26,2.26,0,0,1-.17.35s-.06.07-.07.11l0,0h0s0-.06,0-.07a.36.36,0,0,1,0-.1,2.4,2.4,0,0,1,0-.28c0-.21.1-.42.14-.63.07-.39.08-.87-.43-.9-.11,0-.24.17-.08.17Z"/><path class="cls-9" d="M169.16,45.23a1.08,1.08,0,0,1,1.16.24,1,1,0,0,1,.3.49,1.08,1.08,0,0,1-.27,1,1,1,0,0,1-1.15.17,1.11,1.11,0,0,1-.52-1.29,1,1,0,0,1,.48-.59"/><path class="cls-9" d="M166.93,46.94s1.49-2.11,3-2.08a3.29,3.29,0,0,1,3.11,2,4.73,4.73,0,0,0-3-1.57C168.5,45.29,166.93,46.94,166.93,46.94Z"/><path class="cls-9" d="M158.53,45a1,1,0,0,0-1.1.19,1,1,0,0,0-.3.48,1.15,1.15,0,0,0,.22,1,.88.88,0,0,0,1.06.22A1.14,1.14,0,0,0,159,45.6a1,1,0,0,0-.42-.61"/><path class="cls-9" d="M161.21,46.82s-1.2-2.17-2.53-2.2c-1.88,0-2.34,1.2-2.77,1.85a4,4,0,0,1,2.7-1.44C159.92,45.1,161.21,46.82,161.21,46.82Z"/><path class="cls-12" d="M162.7,52.26a1.56,1.56,0,0,0,1.42-.08c.09,0,.39,0,.26.08a2.15,2.15,0,0,1-1.93.07s0-.07,0-.09a.35.35,0,0,1,.23,0"/><path class="cls-12" d="M164.56,52.15a2.36,2.36,0,0,1,.87-.21.17.17,0,0,1,.14,0s0,.06,0,.07a1,1,0,0,1-.49.11.18.18,0,0,1-.14-.06s0-.07.06-.07a.76.76,0,0,0,.39-.08l.13.11a2.29,2.29,0,0,0-.78.19.15.15,0,0,1-.16,0s-.07-.06,0-.08"/><path class="cls-12" d="M165.76,52.2a1.23,1.23,0,0,0,.94-.42,1,1,0,0,0-.41-1.34s0-.07,0-.08a.31.31,0,0,1,.19,0,1.31,1.31,0,0,1,.56,1.17,1,1,0,0,1-.82.7,1.67,1.67,0,0,1-.39,0,.28.28,0,0,1-.18-.06s0-.06.08-.06"/><path class="cls-12" d="M162.06,52.07A.05.05,0,0,0,162,52a.4.4,0,0,1-.27-.09l-.1.11a1.32,1.32,0,0,1,.56.21.09.09,0,0,0,.11,0s.05-.06,0-.09"/><path class="cls-12" d="M162.32,52.12a1.29,1.29,0,0,0-.62-.22.09.09,0,0,0-.09,0,0,0,0,0,0,0,.07"/><path class="cls-12" d="M161.32,52.11a.72.72,0,0,1-.61-.44,1,1,0,0,1,.29-1.13,0,0,0,0,0,0-.08.14.14,0,0,0-.12,0,1.16,1.16,0,0,0-.39,1,.82.82,0,0,0,.53.71,1.14,1.14,0,0,0,.25.06.14.14,0,0,0,.12-.06s0-.06-.05-.06"/><path class="cls-9" d="M167.32,41.81c0,.35.05.69.07,1l.06.78c.76-.27,1.41-.46,1.9-.59a8.54,8.54,0,0,1,3-.34,3.24,3.24,0,0,1,1.34.38c.13.08.49.42.68.31s-.09-.46-.1-.5a2.16,2.16,0,0,0-1.86-1.29,13.49,13.49,0,0,0-5.1.21"/><path class="cls-9" d="M155.71,42.63a2.31,2.31,0,0,0,.16-.64,4,4,0,0,1,.52-.16,13.09,13.09,0,0,1,5-.11c0,.34,0,.69,0,1s0,.52,0,.78c-.76-.22-1.41-.37-1.9-.47a8.6,8.6,0,0,0-3-.15,3.5,3.5,0,0,0-.8.22Z"/><path class="cls-4" d="M165.7,62.21s1.42-.1,2.41-.27,2.65,0,7.48-3.4A8.77,8.77,0,0,1,168,63.63a6.86,6.86,0,0,1-2.44-.16Z"/><path class="cls-6" d="M128.68,130.46a24.35,24.35,0,0,1,4.74,1,12.58,12.58,0,0,1-.12-2.36c.34-.24.7-.48,1.07-.72a30.8,30.8,0,0,1,4.14,2.95,38.82,38.82,0,0,1,4.26,4.15,34.72,34.72,0,0,1,3.44,4.63c.29.47.56.94.82,1.43h-.15c3.65,7.51-.12,20.72-.37,33.66-.21,11.36-.25,12.78.09,18.84-2,2.61-16.66-.15-16.66-.15C129,176.33,128.68,130.46,128.68,130.46Z"/><path class="cls-5" d="M148,82l-1,2.82-8.78,14.46c.26,1.29,5.78.78,6.37,2,.68,1.34,1.51-.35,2,1.07s1.79-1.6,2,0c.17,1,.29,2.1.38,3.16,3.21-2.19,7.48-11.63,7.48-11.63Z"/><path class="cls-5" d="M148.52,99.75c-1.24-.94-3.54-.42-5-1.07-2.06-1-1.35-1.2-3.3-2.4l-20.75-2.22-.25,3a9.47,9.47,0,0,1-.57,2.57l-1.11,3s15.77,4.93,20,4.85,11.11.47,13.49-4.28C150.1,102.26,149.64,100.59,148.52,99.75Z"/><path class="cls-13" d="M153.85,74.65a3,3,0,0,0,0,.73c0,.51,0,1.18,0,2,0,1.68,0,4,0,6.53s.08,4.86.1,6.53l.2,6.83a3.49,3.49,0,0,0,0,.72,3.54,3.54,0,0,0,.05-.73c0-.51-.12-6-.11-6.82,0-1.67,0-4,0-6.53S154,79,154,77.35c0-.79-.05-1.46-.06-2A4.4,4.4,0,0,0,153.85,74.65Z"/><path class="cls-13" d="M184.72,78.88a6,6,0,0,1-.08-1.27,8,8,0,0,1,4.24-6.9,6.75,6.75,0,0,1,1.17-.5,1.36,1.36,0,0,1,.44-.11s-.63.23-1.54.77a8.38,8.38,0,0,0-4.13,6.74c-.08,1.07.06,1.72,0,1.73A1.47,1.47,0,0,1,184.72,78.88Z"/><path class="cls-5" d="M153.9,115.49a7.17,7.17,0,0,0-2.24,2.14,6.42,6.42,0,0,0-.65,2.53s1.43.56,2.42,1a34.41,34.41,0,0,0,4.31,1.41c1,.25,14.41,1.82,18.31,4s13,5.65,13.66,9.34a10.94,10.94,0,0,1-1.38,7.76s5.17-2.41,5.47-12-18-14-18-14l-21.49-1.84Z"/><path class="cls-3" d="M189.51,112.08c1.13,0,3.28-.26,4.4-.21,2.43.12,4.22-.36,6.65-.09l-8.71,23.07-5.4-2.46Z"/><path class="cls-3" d="M97.59,71.2l3.25-2.39a12.41,12.41,0,0,0,5.16-.62,17.89,17.89,0,0,0,4.22-2.77l4.93-2s2.59.34,2.76-.46-.77-1.19-1.68-1.56-14.55-1-14.55-1A24.75,24.75,0,0,1,105,57.72c1.82-1.18,1.65-2.6.76-3.39s-3.52,1.2-4,2.35S98.33,58,96.66,59.49s-2,4.45-2,4.45c-.59.66-2.2,2.22-2.2,2.22C92.45,66.33,97.59,71.2,97.59,71.2Z"/><path class="cls-4" d="M112.24,63.45a1.29,1.29,0,0,0-.68-.64,4.36,4.36,0,0,0-3,.09A9.45,9.45,0,0,0,106,64.33a4.37,4.37,0,0,0-.92.8,4.73,4.73,0,0,0,1-.61,11.9,11.9,0,0,1,2.56-1.31,4.57,4.57,0,0,1,2.78-.19,1.42,1.42,0,0,1,.66.5c.11.16.15.26.17.27S112.33,63.66,112.24,63.45Z"/><path class="cls-4" d="M105.91,62.79a6.24,6.24,0,0,0-2,.14,6.25,6.25,0,0,0,2,.18,6.45,6.45,0,0,0,2-.15A6.82,6.82,0,0,0,105.91,62.79Z"/><path class="cls-4" d="M102.8,63.29a8.61,8.61,0,0,1,1,1.57,2.45,2.45,0,0,0-.74-1.78,2.4,2.4,0,0,0-1.68-.95A11.92,11.92,0,0,1,102.8,63.29Z"/><path class="cls-14" d="M51.8,71.18c1.5-7.29,8.66-14.73,8.66-14.73L64,57.82c2.72,1.06,6.29,3.72,7.32,6.45l.09.25c1.91,5.61,4,9.31,5.73,15.5,7.2-8.1,15.14-15.4,15.14-15.4,3.69,3.3,7.33,6.1,7.33,6.1-2.7,4.4-6.09,11.49-8.71,16.3s-6,11.12-11.23,13.41a12,12,0,0,1-3.85.77c-7.71.56-11.27-7.22-15.6-12.72C57,84.42,50.62,76.91,51.8,71.18Z"/><path class="cls-15" d="M77.14,80a40.51,40.51,0,0,0-2,6.32,21.62,21.62,0,0,1,1.77-7.25Z"/><path class="cls-16" d="M63.85,62.36a24.32,24.32,0,0,0-1,6.4A25.18,25.18,0,0,0,63.85,62.36Z"/><path class="cls-14" d="M32.17,52.12a47.92,47.92,0,0,0-6.5,4c-3.74,2.72-8.84,6.22-9.69,14.31s3.27,21.43,0,31.24a90.81,90.81,0,0,0-4.05,18.63l36-51.1Z"/><path class="cls-17" d="M9.87,127.55S6.62,144,15.09,146.47s44.42,3,44.42,3A146.4,146.4,0,0,0,60.62,170c1.26,9.06,3.43,22.11,3.43,22.11s25.34,1.83,28.23-3.42c2.53-18.67,7-35.92,5.9-54.79-.35-6.13-3.79-9.42-8.81-11s-14.84-4.55-19.9-5.82S54.69,119,54.69,119,27.73,134.21,9.87,127.55Z"/><path class="cls-18" d="M33.13,16.51a4,4,0,0,1,4.35-1.71c.1-3.26,3.35-5,6.62-4.94,1.67.12,3.35,1,4.95.49a9.79,9.79,0,0,0,2.66-1.62c3.67-2.43,9,.89,11.86,4.26s1.9,6.92.15,11c-.81,1.87-.75,2.92-1.07,4.95S61,34.32,60.87,36.24s2.77,4.07.83,4.12L40.8,36.78c-3.15.46-5.1-.59-6.55-3.43-1-1.93-.59-2-.62-4.13-.1-2.8-2.83-5-2.51-7.83A10.34,10.34,0,0,1,33.13,16.51Z"/><path class="cls-19" d="M30.53,16.25a32.89,32.89,0,0,1,16.78-1.69c9.32,1.53,13.6,7.51,15,11.72a12.61,12.61,0,0,1-.55,8.45s2.31.76,4.31-7.6C69,15,56.83,6.87,53.79,6.76S35.42,2.69,30.53,16.25Z"/><path class="cls-3" d="M37.47,38.18s-.73,7.39-3,12.46c-.32.71-5.07,3.21-5.07,3.21l6.65,2.64c3.75,1.08,12.26,1.38,16,.26L55.24,55s-3.83-1.07-4-2,.91-7.61.91-7.61"/><g id="freepik--character-2--inject-1332"><path class="cls-20" d="M43.62,67a10.27,10.27,0,0,1-.69-1.26,4.87,4.87,0,0,1-.34-1.51,4.66,4.66,0,0,1,.28-1.85,4.9,4.9,0,0,1,.67-1.23l0,0,0-.08c-.37-.9-.66-1.76-.89-2.33a3.69,3.69,0,0,0-.42-.9.5.5,0,0,0,.07.25l.22.68c.2.6.43,1.41.82,2.4l0-.12a4.78,4.78,0,0,0-1,3.26,4.94,4.94,0,0,0,.41,1.55,4.44,4.44,0,0,0,.54.92A1.53,1.53,0,0,0,43.62,67Z"/><path class="cls-20" d="M35.13,64.62a8.3,8.3,0,0,0-.78-.79,4,4,0,0,1-1.28-2.19c-.06-.5,0-1-.08-1.47a1.54,1.54,0,0,0-.58-1.09,1,1,0,0,0-.83-.15c-.19.06-.26.17-.25.17a1.33,1.33,0,0,1,.28-.09.94.94,0,0,1,.7.2,1.44,1.44,0,0,1,.46,1c.06.43,0,.93.06,1.47A3.2,3.2,0,0,0,33.41,63a6.39,6.39,0,0,0,.83.89A4.52,4.52,0,0,0,35.13,64.62Z"/><path class="cls-20" d="M37.78,62.74a14.3,14.3,0,0,0-1.13-.93,7,7,0,0,1-2.18-2.7,3.82,3.82,0,0,1-.24-.94,5.78,5.78,0,0,1,0-.93,2,2,0,0,0-.47-1.55.87.87,0,0,0-.62-.26.85.85,0,0,0-.47.13.46.46,0,0,0-.24.33.75.75,0,0,1,.28-.25.79.79,0,0,1,.91.16A1.84,1.84,0,0,1,34,57.23a7.69,7.69,0,0,0,0,1,3.85,3.85,0,0,0,.26,1,6.53,6.53,0,0,0,2.28,2.74c.37.27.68.47.9.61A1,1,0,0,0,37.78,62.74Z"/><path class="cls-20" d="M33.63,53.38a2.77,2.77,0,0,1,.76,1,6.14,6.14,0,0,1,.38,1.35,7.54,7.54,0,0,0,.48,1.73,6.42,6.42,0,0,0,2,2.54,5.08,5.08,0,0,0,.84.51,1.09,1.09,0,0,0,.34.13s-.45-.26-1.08-.78a6.81,6.81,0,0,1-1.9-2.51A7.76,7.76,0,0,1,35,55.71a5.84,5.84,0,0,0-.44-1.4A1.7,1.7,0,0,0,33.63,53.38Z"/></g><g id="freepik--character-1--inject-1332"><path class="cls-3" d="M52.14,53.81,33.4,52.61l-2.35,6.83s4.64,4.73,5.14,5,12,3.26,12,3.26,13.3-4.37,13.12-4.34S52.14,53.81,52.14,53.81Z"/><path class="cls-14" d="M14.74,131a14.23,14.23,0,0,0,3.82.87,28.74,28.74,0,0,0,4.25.2,26,26,0,0,0,7.28-1.18,65.74,65.74,0,0,0,6.49-2.56c4.27-1.92,8.4-2.27,12.68-4.16s8.69-5.37,13.32-6c3.29-.45,7-1.63,10.12-.2,1.45-7.36-3-8.89-3-8.89L65.2,99l3.42-4.39c.93-4.36,2.2-15.59,1.11-17.37l-9.47-19.9-8.09-3.76c.36.66,2.76,5.52-3.88,7.17H46.66c-8.53-.5-14.49-8.64-14.49-8.64L29.4,53.59,18.26,97s-9,19.4-9.51,27.47c-.07,1.25-.65,1.72.51,3.63A26.15,26.15,0,0,0,14.74,131Z"/></g><line class="cls-15" x1="26.04" y1="91.49" x2="26.34" y2="91.36"/><path class="cls-14" d="M52.17,53.59s12,2.94,13.6,6.87c2.36,6,4.3,19,4.3,19l-5.72.06Z"/><path class="cls-15" d="M69.94,91.1a20.93,20.93,0,0,0-.36-4.46c-.22-1.62-.52-3.23-.88-4.83A99.24,99.24,0,0,0,65.88,72c-.51-1.54-1-3.09-1.58-4.63.81,2.9,1.46,5.83,2.34,8.7a66.29,66.29,0,0,1,2.24,8.85c.58,3.59,1.08,5.21,0,8a26.33,26.33,0,0,1-3.7,6l.27.27S69.72,94,69.94,91.1Z"/><path class="cls-4" d="M51.37,51.15s-1.55-.35-2.61-.72-2.91-.41-7.63-5a9.77,9.77,0,0,0,7.43,6.9,7.69,7.69,0,0,0,2.71.24Z"/><path class="cls-3" d="M58.86,19.23l.06.06-.06-.12Zm2.62.93a.69.69,0,0,0,.11.13v-.05S61.49,20.11,61.48,20.16Zm-21,24.6c2.16,3,5.72,6.25,9.74,6.65a6.15,6.15,0,0,0,4-1.19,28.09,28.09,0,0,0,4.83-3.91,12.45,12.45,0,0,0,2.64-4.14,9.31,9.31,0,0,0,.88-4.29,19.28,19.28,0,0,1,.33-3c.2-.94,1.15-4.61,1.55-6.79s-.76-6.55-.76-6.55c0-.61-.9-.42-1.15-.94l-.26,0a.26.26,0,0,1,.09.26,2,2,0,0,1-.84-.56h0a1,1,0,0,1-1.05-.46c0,.06,0,.19.1.2a1.29,1.29,0,0,1-1-.51,2.13,2.13,0,0,0,0,.25,2.51,2.51,0,0,1-.78-.49c0,.08,1.54.08,1.53.12-.4,0,0,.19-.25-.15L59.91,19c-.33,0-.35.21-.57-.07.06.07-.08-.67-.09-.61-.38-.06-.27-.07-.57-.3,0,.06-1.11.23-1.12.29-.32-.05-.28.26-.5,0,0,.07.27-.21.32-.14-.39,0-.57.23-.85-.12,0,.07-1.18-.83-1.18-.83-.39,0-.35.13-.63-.16.11.14-1.77-.37-1.72-.24-.32-.05.44,1.27.2,1.05,0,.06-.71-.29-.71-.29-.33,0,.11.38-.11.11,0,.06,0,.24.09.25a1.32,1.32,0,0,1-1.2-.36c.11.14.16.27.22.34a1.3,1.3,0,0,1-.88-.31c0,.06.1.25.16.26a1.3,1.3,0,0,1-1-.27c0,.06.1.2.15.26a.87.87,0,0,1-.75-.23l.16.27a2,2,0,0,1-.84-.13c0,.06.11.14.1.2a2.33,2.33,0,0,1-.63-.16c0,.06.16.21.1.2-.26,0-.47.05-.77-.12,0,.07.1.2.16.27a1.74,1.74,0,0,1-.77-.18.43.43,0,0,0,.1.26c-.26,0-.47.05-.78-.11,0,0,.1.19.16.26a4,4,0,0,1-.77-.11c0,.05.11.13.16.2a2.22,2.22,0,0,1-.82-.18c0,.12,0,.18,0,.24-.2,0-.32-.1-.51-.13l-.34.07C42.82,19.5,39.58,18,39.58,18c-2.23,1.29-.78,9.86-.88,11s-.79,1.35-.79,1.35c-.26-.46-.83.7-.95.2s.07-.95-.06-1.4c-.44-1-1.77-.92-2.57-.44l-.14.18c-1.19,1.19-.73,5.5-.18,6.84-.16,2.55,1.86,4.19,3.37,2.56l.21,1"/><path class="cls-12" d="M54.45,40.33A1.84,1.84,0,0,1,52.79,40c-.1-.08-.46-.07-.33.05a2.63,2.63,0,0,0,2.27.44c.06,0,.06-.07,0-.1a.37.37,0,0,0-.27,0"/><path class="cls-12" d="M52.28,39.85a3,3,0,0,0-1-.41.26.26,0,0,0-.17,0,0,0,0,0,0,0,.08,1.25,1.25,0,0,0,.55.22c.06,0,.15,0,.19-.05s0-.08-.06-.09a.92.92,0,0,1-.45-.17l-.17.11a2.9,2.9,0,0,1,.89.37.21.21,0,0,0,.19,0s.09-.06,0-.1"/><path class="cls-12" d="M50.85,39.68a1.44,1.44,0,0,1-1-.67,1.18,1.18,0,0,1,.73-1.44c.06,0,0-.07,0-.1a.37.37,0,0,0-.23,0,1.46,1.46,0,0,0-.88,1.22,1.16,1.16,0,0,0,.84,1,1.86,1.86,0,0,0,.46.13.28.28,0,0,0,.22,0c0-.05,0-.08-.08-.09"/><path class="cls-12" d="M55.24,40.23s0-.07.07-.07a.46.46,0,0,0,.34-.06l.09.16a1.52,1.52,0,0,0-.69.13.12.12,0,0,1-.13,0s-.05-.08,0-.1"/><path class="cls-12" d="M54.92,40.25a1.61,1.61,0,0,1,.77-.15.13.13,0,0,1,.1.06.06.06,0,0,1,0,.09"/><path class="cls-12" d="M56.1,40.42a.87.87,0,0,0,.8-.4,1.24,1.24,0,0,0-.12-1.38s0-.08,0-.09a.21.21,0,0,1,.14.07,1.41,1.41,0,0,1,.27,1.2,1,1,0,0,1-.75.73,1.08,1.08,0,0,1-.31,0s-.11,0-.12-.09,0-.07.06-.06"/><path class="cls-21" d="M60.06,32.75a.89.89,0,0,1,1.19.8.91.91,0,0,1-.34.81.87.87,0,0,1-1,0,1,1,0,0,1-.31-1.18.87.87,0,0,1,.48-.46"/><path class="cls-21" d="M56.69,33.47a8.44,8.44,0,0,1,2.85-1.07,4.41,4.41,0,0,1,3.17,1.74s-2-1.39-2.88-1.41A14.94,14.94,0,0,0,56.69,33.47Z"/><path class="cls-21" d="M49.21,31.27a1.23,1.23,0,0,0-1.18-.1.92.92,0,0,0-.33.38.91.91,0,0,0,.09.88.87.87,0,0,0,1,.33,1,1,0,0,0,.63-1c0-.07.08-.19-.18-.39"/><path class="cls-21" d="M51.32,32.57a9.18,9.18,0,0,0-2.74-1.72,5,5,0,0,0-3.77.93s2.41-.89,3.39-.68A16.67,16.67,0,0,1,51.32,32.57Z"/><path class="cls-22" d="M57.63,28.9c0,.27-.06.53-.08.8l-.06.6c.69-.09,1.28-.14,1.72-.17a5.8,5.8,0,0,1,1.95.07,4.68,4.68,0,0,1,1.19.52,3.42,3.42,0,0,1,.61.41c.42.38.56.77.64.74s0-.36,0-.39A3.13,3.13,0,0,0,62.76,30a3.45,3.45,0,0,0-1.18-.7,13.09,13.09,0,0,0-3.95-.43"/><path class="cls-22" d="M52.74,28.27c-.07.25-.15.51-.22.77l-.18.58c-.66-.37-1.24-.65-1.67-.85a6.62,6.62,0,0,0-2-.72,5.69,5.69,0,0,0-1.4,0,3.64,3.64,0,0,0-.77.13c-.57.18-.87.48-.94.43s.15-.33.17-.36a3.18,3.18,0,0,1,1.39-1,4.17,4.17,0,0,1,1.47-.18,15.45,15.45,0,0,1,4.15,1.2"/><path class="cls-23" d="M37,33.92c-1.14-3.5-2.16-3.61-2.16-3.61a2.77,2.77,0,0,0-.55,2.32"/><path class="cls-23" d="M36.44,34.18c-.9-.17-.35,1.6-.64,2s-.52-.72-.53-2c0,0,.15-1.74,1-2"/><path class="cls-4" d="M50.51,24.42a11,11,0,0,0,4.41,1.43c2.27.13,5.08,0,5.08,0"/><path class="cls-22" d="M62.7,18.86h0c-.51-.83-.81-1.7-1.35-2.51s-1.06-1.52-1.63-2.28c0,0-.78-.11-.81-.16l0,0,0-.08a1,1,0,0,1-.13-.16,17.06,17.06,0,0,0-11.56-1.38,14.15,14.15,0,0,0-10.58,17c.15.65-.28,1.39.32,1.8s.69.23,1.31-.14a4.68,4.68,0,0,0,1.44-1.59c1.83-3,2.56-7.83,2.07-11.28.37.67,3.28.2,3.89.66a5.47,5.47,0,0,0,7.68-1,7.38,7.38,0,0,0,.79,1.13c2.7,3.23,6.39,5,9.71,3A12.32,12.32,0,0,0,62.7,18.86Z"/><path class="cls-24" d="M44,30.11l.24,1.25a18.13,18.13,0,0,0,.81,3.45c.35.76,5.26,1.7,6.31,1.27s2-3.19,2.33-3.81l2,.38a17,17,0,0,0,.64,4.05c.33.42,2.61.66,2.86.69s.52,0,.84.06a4.64,4.64,0,0,0,2.29-.22c.54-.41,1.31-2.13,2-3.78l.11-.25c0-.06,0-.11,0-.13h0l.12-.29a9.22,9.22,0,0,0-8.93-.67l0,0-1.92-.37c-2-1.75-5.64-3.05-8.48-2.37h0l-8.57.26-.12.74Zm12.56,6.35A17.23,17.23,0,0,1,56,32.74a8.85,8.85,0,0,1,8,.54v0c-.37.88-1.33,3.22-1.87,3.62s-5.16-.06-5.52-.46Zm-10.9-1.77a25.47,25.47,0,0,1-1-4.49c2.55-.76,6.64.41,8.59,2.08-.51,1.14-1.22,3.15-2,3.45-1.08.45-5.35-.56-5.57-1Z"/><path class="cls-25" d="M56.65,36.43a17,17,0,0,1-.58-3.72,8.84,8.84,0,0,1,8,.54v0c-.36.88-1.33,3.22-1.86,3.62s-5.16-.06-5.53-.46Z"/><path class="cls-25" d="M45.69,34.69a25.47,25.47,0,0,1-1-4.49c2.55-.76,6.64.41,8.59,2.08-.51,1.14-1.22,3.15-2,3.45-1.08.45-5.35-.56-5.57-1Z"/><path class="cls-26" d="M32.77,30.4S26,24.83,29.06,19.49c.59-1,.62-.68.71-1.59.46-4.78-1.28-3.75,6.09-8.91s8.39-5,19.06-3.53c5.5.76,8.38,3.26,9.67,6.86a16.93,16.93,0,0,1,.86,5.45s-11.08-3.93-18-.72S32.66,31.61,33.86,35.48C34.2,36.57,32.77,30.4,32.77,30.4Z"/><path class="cls-19" d="M28.74,24.88S39.2,11.53,52,11.9c0,0-15.67-2.68-23.36,8.15l-.19,1.32a7.32,7.32,0,0,0,.08,2.47Z"/><path class="cls-27" d="M84.38,128s5.56.48,6.53,3.84-.87,8-.87,8,1.43-7.31-.86-9.29A11.89,11.89,0,0,0,84.38,128Z"/><path class="cls-14" d="M32.17,52.12s-14.24,2.21-18.46,8.6S7,92.32,7,96.4C7,107.92,34,124.49,34,124.49L39.46,114,21.65,92.67l2-16.52Z"/><path class="cls-15" d="M28.43,67.86C28.62,70.67,24.29,91,23.64,94l.56-.17c.52-2.6,3.94-19.54,4.67-24.52.7-4.72-2.93-8.75-2.93-8.75C28.76,65.49,28.43,67.86,28.43,67.86Z"/><polygon class="cls-15" points="24.2 93.83 23.64 94 39.62 114.34 39.87 114.11 24.2 93.83"/><path class="cls-15" d="M13.68,108.39s11.12,13,19.13,16.08l2.46-2.91h.35l-1.86,2.15L32.84,125a50.77,50.77,0,0,1-8.05-5c-2.71-2.31-11.27-11.11-11.27-11.11l.16-.48"/><polyline class="cls-3" points="38.95 114.95 44.74 118.44 42.97 125.62 34.1 122.94"/><path class="cls-3" d="M42,117.64l6.68-2.24s7.81.87,8.82,1.8,2.2,2.31.37,3.41c0,0,1,2.15-.06,2.78a2.81,2.81,0,0,1-2.41,0s1.62,1.7.41,2.62-1.81.31-1.81.31,0,1.06-.71,1a17.45,17.45,0,0,1-2.84-.66,19.71,19.71,0,0,1-5.79.23,9.57,9.57,0,0,1-3.87-2.07Z"/><path class="cls-4" d="M53.73,119.73a5.11,5.11,0,0,1,4,.8"/><polygon class="cls-15" points="39.87 114.11 39.3 114.95 39.05 114.75 39.67 113.85 39.87 114.11"/><path class="cls-5" d="M192.88,104c2.24.59,4.37,1.53,6.63,2,.9.2,1.81.33,2.72.47.14-3-1.88-18.76-1.88-18.76l-13.5,1.74,3.77,14.06A15.85,15.85,0,0,1,192.88,104Z"/><path class="cls-5" d="M201.12,101.08c-1.09-.37-5.53,1.63-6.58,1.16-1.55-.7-2,1.13-3.64.73l.44,1.56c-2,3.41-4.48,23.65-4.48,23.65l8,2.79q1.69-5,3.36-10c1-2.93,1.85-4.94,2.89-8.87a22.68,22.68,0,0,0,1.16-6.12,20,20,0,0,0-.3-2.88C201.88,102.5,201.79,101.31,201.12,101.08Z"/><path class="cls-13" d="M190.5,105.25c-.87-6.13-4.71-19.74-5.16-23.44h-.12c.44,3.7,4.25,17.31,5.09,23.43Z"/><path class="cls-13" d="M190.3,105.25l-.58,4.14c-.92,6.77-2.88,14.2-3.46,18.38h.13a2.17,2.17,0,0,1,0-.25c.63-4.43,2.59-11.78,3.49-18.13.2-1.42.4-2.8.58-4.14Z"/><path class="cls-13" d="M140,96.25a26.11,26.11,0,0,1,3.66,3.81s-1.8-3.54-3.36-4.2Z"/><path class="cls-15" d="M24.18,94.33a25.65,25.65,0,0,0-5.06,1.52s3.4-2.2,5.09-2Z"/><path class="cls-13" d="M190.5,105.57s0-.76,5.23.79c0,0-3.59-1.72-5.23-1.29Z"/><path class="cls-3" d="M180.48,143.66a.35.35,0,0,0,.22-.08s-.33,1.43,1.82.61c0,0,1.69.7,2.72-.13a8.59,8.59,0,0,0,3.09-.44c.88-.5,3.7-6.76,3.7-6.76l.62-4.7-5.59-2.23-.26.76a14.4,14.4,0,0,0-3.62,1.34,11.26,11.26,0,0,0-2,2.1l-1.37,2.62c1.17,1.05,3.37-1.61,3.54-1.53A1.32,1.32,0,0,1,184,137c-.54,1.3-1.16,2.79-1.21,3a15.92,15.92,0,0,1-2.79,2A.89.89,0,0,0,180.48,143.66Z"/><path class="cls-4" d="M185.44,139.15a7.13,7.13,0,0,1-1.33,2.45,6.32,6.32,0,0,1-2.36,1.44,5.36,5.36,0,0,0-1.08.45,3.54,3.54,0,0,0,1.16-.25,5.53,5.53,0,0,0,2.51-1.42,6.18,6.18,0,0,0,1.3-2.58,3.8,3.8,0,0,0,.23-1.19A5.46,5.46,0,0,0,185.44,139.15Z"/><path class="cls-28" d="M52.68,42.75c-2-.37-5.18-1.22-5.18-1.22A5.11,5.11,0,0,0,52,46.61a5.09,5.09,0,0,0,6-3.12S54.67,43.13,52.68,42.75Z"/><path class="cls-29" d="M52.7,42.76c-1-.18-4.74-1.06-4.74-1.06a5.42,5.42,0,0,0,4.29,3c3.71.7,5.21-1.24,5.21-1.24Z"/><path class="cls-30" d="M52.71,42.91c-.94-.18-3.8-.88-3.8-.88s.84,1.27,3.68,1.8,3.94-.34,3.94-.34Z"/><path class="cls-28" d="M58.22,43.22a6.46,6.46,0,0,1-1.15-.08c-.77-.22-1.22-.53-1.78-.68a8.4,8.4,0,0,0-2.07-.06,8.5,8.5,0,0,0-1.95-.69c-.58-.06-2-.11-2.82-.19a8.48,8.48,0,0,1-1.1-.33c-.15,0-.08,1.13,5.23,2.12S58.35,43.29,58.22,43.22Z"/><path class="cls-28" d="M164,54.79c1.68,0,4.41-.2,4.41-.2a4.55,4.55,0,0,1-8.81,0S162.36,54.79,164,54.79Z"/><path class="cls-29" d="M164,54.79c.8,0,4-.13,4-.13a4.52,4.52,0,0,1-4,1.81c-3.13,0-4.05-1.79-4.05-1.79Z"/><path class="cls-30" d="M164,54.92c.8,0,3.23-.14,3.23-.14s-.87.9-3.27.9-3.15-.87-3.15-.87Z"/><path class="cls-28" d="M159.46,54.34a5.33,5.33,0,0,0,.94.1c.66-.06,1.08-.24,1.56-.27a6.85,6.85,0,0,1,1.69.26,6.68,6.68,0,0,1,1.69-.26c.48,0,1.67.21,2.33.27a5.33,5.33,0,0,0,.94-.1c.12,0-.11.92-4.58.92S159.34,54.37,159.46,54.34Z"/></g></svg>