<svg xmlns="http://www.w3.org/2000/svg" viewBox="0 0 280.69 825.52"><defs><style>.cls-1{fill:#956243;}.cls-2{fill:#010101;}.cls-3{fill:#231f20;}.cls-4{fill:#151210;}.cls-5{fill:#653c29;}.cls-6{fill:#31160e;}.cls-7{fill:#f1eef7;}.cls-8{fill:#fff;opacity:0.14;}.cls-9{fill:#273238;}.cls-10{fill:#794c36;}.cls-11{fill:#161312;}.cls-12{fill:#1c3b53;}.cls-13{fill:#82a8b3;}.cls-14{fill:#59341c;}.cls-15{fill:#587c81;}.cls-16{fill:#653c2b;}.cls-17{fill:#dae1e5;}.cls-18{fill:#bab9ba;}</style></defs><g id="Layer_1" data-name="Layer 1"><path class="cls-1" d="M164.79,98.56,164.31,126c1,2.33,34.66,16.3,34.66,16.3l-71.9,23.78L76.62,142.32,113.37,127l0-26.69"/><path class="cls-1" d="M171.14,69.63s4.05-7.84,6.8-7.82c1.67,0,5.7,4.47,5.66,8.73-.07,5.7-4,12.17-5,15.49s-.83,8.1-5.26,8.07c-1.75,0-3.92-3.68-3.92-3.68S170.23,74.8,171.14,69.63Z"/><path class="cls-2" d="M173.45,77.52a31.85,31.85,0,0,1,4.31-7.17A10.52,10.52,0,0,1,179.2,69a4.35,4.35,0,0,1,.57-.38c-.14.08.06,0,.11,0l.22-.1c.1,0-.16,0,0,0l.08,0c.12,0,.15,0,0,0,.12,0,.14,0,0,0l-.32-.14a4.74,4.74,0,0,1,.75,1.63,9.45,9.45,0,0,1-.07,5c-.12.5,1.05.34,1.16-.11a9.32,9.32,0,0,0-.22-6c-.22-.51-.45-1.2-1.11-1.12-1.65.2-3,1.86-4,3.06a36,36,0,0,0-3.94,6.72c-.26.55.9.48,1.09.08Z"/><path class="cls-2" d="M174.32,78.83c2.28-.08-1.16,6.29,1.46,6.08.7-.06,1.09-.72,1.34-1.3a15.64,15.64,0,0,0,.9-3.23,11.6,11.6,0,0,0,.14-3.81c-.21-1.62-.75-3.48-2.37-4.2-.46-.2-1.34.47-.67.76,1.25.55,1.65,2.21,1.84,3.42a9,9,0,0,1,.06,2.88,19.78,19.78,0,0,1-.76,3.41,5.78,5.78,0,0,1-.44,1.06s-.19.22-.18.26a1.21,1.21,0,0,0,.14,0c.86.23.26,0,.27,0s-.12-.38-.12-.54a5,5,0,0,1,.06-.86c.08-.66.2-1.32.26-2a3.5,3.5,0,0,0-.18-1.87,1.61,1.61,0,0,0-1.64-.79c-.65,0-.9.85-.11.82Z"/><path class="cls-1" d="M106,69.63s-4-7.84-6.79-7.82c-1.67,0-5.7,4.47-5.66,8.73.07,5.7,4,12.17,5,15.49s.83,8.1,5.26,8.07c1.75,0,3.92-3.68,3.92-3.68S107,74.8,106,69.63Z"/><path class="cls-2" d="M104.86,77.33a37.85,37.85,0,0,0-3.55-6.22,11.66,11.66,0,0,0-2.57-2.72,3.57,3.57,0,0,0-1.38-.68c-.71-.13-1.1.33-1.39.91a9.16,9.16,0,0,0-.39,6.32c.1.42,1.26.12,1.15-.31a9.59,9.59,0,0,1-.06-5A4.76,4.76,0,0,1,97.43,68l-.76.33c.11,0-.08,0,0,0a2.27,2.27,0,0,1,.25.06l.08,0,.23.11a3.3,3.3,0,0,1,.51.31A13.45,13.45,0,0,1,101,72.7a41.35,41.35,0,0,1,2.69,4.94c.19.41,1.33,0,1.15-.31Z"/><path class="cls-2" d="M102.86,78c-3.31-.11-1.27,4.25-1.62,6a1.52,1.52,0,0,0-.06.2c0,.18-.22-.07,0,0l.38,0a7.61,7.61,0,0,0-.41-.67,15,15,0,0,1-.83-2.92,11.35,11.35,0,0,1-.22-3.48c.14-1.33.46-3.28,1.84-3.88.72-.32.09-1-.52-.73C100,73,99.4,74.64,99.12,76.1A10,10,0,0,0,99,79.33a20.62,20.62,0,0,0,.83,3.72c.2.6.46,1.51,1.09,1.8a1.08,1.08,0,0,0,1.43-.64,3.61,3.61,0,0,0,0-1.76,19.53,19.53,0,0,1-.27-2.41,1.9,1.9,0,0,1,.14-.94c.13-.25.26-.25.55-.24.68,0,.87-.86.09-.89Z"/><path class="cls-1" d="M102.14,73.36c.57,6.2,1.76,12,2,18.48s.82,15,1.83,17.42c.52,1.25,2.12,2.35,3.09,3.28,5.29,5,11.86,10.15,18.66,12.94,3,1.22,10.64,1.22,10.64,1.22s7.67,0,10.63-1.22c4.16-1.71,7.93-4.75,11.61-7.29s8.1-5.55,10.46-9.34c.73-1.16.65-2.73.79-4,.46-4.3.54-8.65.73-13,.28-6.49,1.48-12.28,2.05-18.48s1.27-32-.57-36.94-23.56-18.21-35.7-18.21c-8.52,0-21.77,6.54-29.54,12.14-3.3,2.38-5.62,4.6-6.16,6.07C100.87,41.36,101.57,67.15,102.14,73.36Z"/><path class="cls-3" d="M136.2,89.49c1.66.67,2.87.7,4-.26.24-.21,1.09,0,.75.32-1.43,1.26-4.16,1.07-5.66,0-.15-.11-.13-.26,0-.34s.75.19.91.31"/><path class="cls-3" d="M141.5,88.79a8.59,8.59,0,0,1,3.27-.24.69.69,0,0,1,.44.26c.07.11.07.23-.06.28a3.21,3.21,0,0,1-1.79.09.63.63,0,0,1-.48-.32c-.06-.18.13-.25.27-.22a2.52,2.52,0,0,0,1.44-.08l.39.54a7.37,7.37,0,0,0-2.92.22.62.62,0,0,1-.56-.18c-.1-.1-.19-.29,0-.35"/><path class="cls-3" d="M134.64,89a8.34,8.34,0,0,0-3.26-.27.65.65,0,0,0-.45.25c-.07.1-.07.23.06.28a3.18,3.18,0,0,0,1.78.11.63.63,0,0,0,.49-.32c.07-.17-.13-.25-.27-.22a2.52,2.52,0,0,1-1.44-.09l-.39.53a7.57,7.57,0,0,1,2.92.25.59.59,0,0,0,.55-.17c.1-.09.2-.29,0-.35"/><path class="cls-3" d="M145.79,89.29a3.43,3.43,0,0,0,2.88-1.69,3.69,3.69,0,0,0-1.29-4.47c-.15-.12-.07-.26.08-.3A.7.7,0,0,1,148,83a4.22,4.22,0,0,1,1.75,3.8,3.34,3.34,0,0,1-2.48,2.76,4.37,4.37,0,0,1-1.19.21c-.16,0-.46-.06-.54-.22s.07-.24.22-.25"/><path class="cls-3" d="M130.24,89.33a3.42,3.42,0,0,1-2.87-1.69,3.67,3.67,0,0,1,1.29-4.47c.15-.11.07-.26-.08-.3A.7.7,0,0,0,128,83a4.25,4.25,0,0,0-1.76,3.8,3.36,3.36,0,0,0,2.49,2.76,4.37,4.37,0,0,0,1.19.21c.16,0,.46-.06.54-.22s-.07-.24-.23-.25"/><path class="cls-4" d="M156,67.18a2.94,2.94,0,0,1,3.13.58c.17.15.47-.09.68.63a2.83,2.83,0,0,1-.67,2.59,2.63,2.63,0,0,1-3,.53,2.91,2.91,0,0,1-1.44-3.39c.06-.22.15-.3,1-.76"/><path class="cls-4" d="M119.88,67.32a3.19,3.19,0,0,0-3.29.13,1.43,1.43,0,0,0-.81.94,2.83,2.83,0,0,0,.67,2.59,2.63,2.63,0,0,0,3,.53,2.91,2.91,0,0,0,1.44-3.39c-.06-.22-.16-.34-1-.8"/><path class="cls-4" d="M129,70.94s-6.24-3.86-9.46-4.15c-4.69-.43-10.53,1.25-12.19,3.4,0,0,8.77-2.56,12.07-2.17C122.58,68.4,129,70.94,129,70.94Z"/><path class="cls-4" d="M146.25,70.66s6.3-3.58,9.51-3.87c4.7-.44,10.48,1,12.14,3.12,0,0-7.65-2.59-11-2.2C153.8,68.08,146.25,70.66,146.25,70.66Z"/><path class="cls-4" d="M129.27,53.16a2.49,2.49,0,0,0-2.82-.42,42.25,42.25,0,0,1-3.81,1.9,26.67,26.67,0,0,1-9.46,1.42,12,12,0,0,1-2.71-.28,6.29,6.29,0,0,0-2.12.17,1.93,1.93,0,0,0-1.18,1.39c1.32,2.29,3.58,2.09,6.2,2.28,5.56.4,10.89.32,16.18-1.38,1-1.43,1.54-3.05.27-4.53A4.08,4.08,0,0,0,129.27,53.16Z"/><path class="cls-4" d="M146.41,53.16a2.49,2.49,0,0,1,2.82-.42,42.25,42.25,0,0,0,3.81,1.9,26.67,26.67,0,0,0,9.46,1.42,12,12,0,0,0,2.71-.28,6.31,6.31,0,0,1,2.12.17,1.93,1.93,0,0,1,1.18,1.39c-1.33,2.29-3.58,2.09-6.2,2.28-5.56.4-10.89.32-16.18-1.38-1-1.43-1.55-3.05-.28-4.53A4.82,4.82,0,0,1,146.41,53.16Z"/><path class="cls-4" d="M171.87,105.11a12,12,0,0,1-3.1,3.89c-4.93,3.29-14.54,7.89-17.38,10a13.31,13.31,0,0,1-4.19,2.43,43.27,43.27,0,0,0-9.12-1.51,21.7,21.7,0,0,0-8.75,1.72s-16.18-10.31-21.2-12.87c-.35-.18-2.67-3-2.89-3.11,0,0-1.91,3.92,9.24,11.54,7.76,5.3,9.79,7.84,16,9.14s14.78.86,18.56-.91c5.86-2.73,19.28-12.63,21.38-15.23C171.77,108.58,171.87,105.11,171.87,105.11Z"/><path class="cls-4" d="M143.16,106.52l-11.49-.45c.25.65,1.14,5.43,6,4.92C142,110.54,141.11,108.43,143.16,106.52Z"/><path class="cls-5" d="M137.53,97.62c5.64,0,13.79,6.07,13.79,6.07s-.71,4.14-13.79,4.14-14.5-5.52-14.5-5.52S131.89,97.62,137.53,97.62Z"/><path class="cls-6" d="M138.18,97.63a18.93,18.93,0,0,1,12.22,5.62s-3-.31-12.7-.31c-10.52,0-13.61-1.18-13.61-1.18l8.23-4C132.76,97.62,137.72,97.61,138.18,97.63Z"/><path class="cls-7" d="M137.36,98c2.68,0,7.9-.32,7.9-.32s0,2.74-8,2.74S129,97.9,129,97.9Z"/><path class="cls-5" d="M145.79,96.87c-1.57-1.27-1.3-1.15-2.57-1.25-2.75-.2-4.49.85-5.69.85s-2.93-1-5.68-.85c-.76.06-1.76.22-2.85.39-1.16.62-4.91,5.65-6,6.45,2.29.54,8.6-3.36,14.5-3.36,6.71,0,11.6,5,13.79,4.4C150.7,102.92,146.5,97.31,145.79,96.87Z"/><path class="cls-4" d="M139.58,91.77l-.07,2.61a.9.9,0,0,0,.62.85c2.52.83,12.13,4,14.48,4.34l.16,0,.62.78c.91,0,.31-2.67-.47-3.14A57.91,57.91,0,0,0,149,93.89a53.51,53.51,0,0,0-8.4-3A.9.9,0,0,0,139.58,91.77Z"/><path class="cls-4" d="M136.56,91.26,136.34,94a.92.92,0,0,1-.62.85c-2.52.83-12.11,4-14.46,4.4h-.94c-.91,0-.64-1.85.13-2.33a57.72,57.72,0,0,1,6.37-3.38c1.68-.73,6.57-2.84,8.69-3.2A.89.89,0,0,1,136.56,91.26Z"/><path class="cls-8" d="M110.83,78.85a76.82,76.82,0,0,1-5.63-12.52c7-3.68,19.67-2.57,26.3,1.2-.83,3.61-1.77,9.89-3.79,11.22-2.91,1.93-16,1.39-16.88.1Z"/><path class="cls-8" d="M164.1,78.85c-.92,1.29-14,1.83-16.88-.1-2-1.33-3-7.61-3.79-11.22,6.63-3.77,19.28-4.88,26.3-1.2a76.82,76.82,0,0,1-5.63,12.52Z"/><path class="cls-9" d="M175.3,68.18,171,66.71a19,19,0,0,1,.72-1.9l-3.41-1.18c-7.88-3.58-19.24-1.9-26,2a23.18,23.18,0,0,0-4.94-.69,19.92,19.92,0,0,0-4.72.7c-6.8-3.94-18.18-5.64-26.07-2.05l-3.41,1.18c.19.42.36.85.51,1.28l-4.19,1.44.34,1.21,4.38-.92a1.51,1.51,0,0,1,0,.67l.57,1.43a52.14,52.14,0,0,0,4.32,9.63c1.47,2,16.37,2,19.19.14s3.86-9.61,4.54-12.11a24.49,24.49,0,0,1,4.54-.83,16.83,16.83,0,0,1,4.81,1.13c.69,2.77,1.87,10.1,4.46,11.81,2.82,1.87,17.72,1.9,19.19-.14a52.81,52.81,0,0,0,4.32-9.63l.57-1.43,4.24.89ZM127.71,78.75c-2.91,1.93-16,1.39-16.88.1a76.82,76.82,0,0,1-5.63-12.52c7-3.68,19.67-2.57,26.3,1.2C130.67,71.14,129.73,77.42,127.71,78.75Zm36.39.1c-.92,1.29-14,1.83-16.88-.1-2-1.33-3-7.61-3.79-11.22,6.63-3.77,19.28-4.88,26.3-1.2A76.82,76.82,0,0,1,164.1,78.85Z"/><path class="cls-4" d="M102.14,73.36s.78-27.87.67-32.41,14-16.5,21.28-19.08-8.36-1.74-12.2-1-4.1,3.11-4.1,3.11-2.49.24-3.5,1.44l-1,1.19s-3.12.72-3.23,2.16-.55,4.55-.55,4.55S97,32.47,97,36.05s-.15,1.83-.15,1.83-2.1,2.36-1.08,4.27.69,1.68.69,1.68A11.08,11.08,0,0,0,95.57,46c-.44,1.41-1.28,7,.22,10.31A17.58,17.58,0,0,1,97.23,63Z"/><path class="cls-4" d="M174.85,73.36s-.79-27.87-.68-32.41-14-16.5-21.28-19.08c-7.58-2.67,8.16-1.77,12.2-1,3.84.72,4.11,3.11,4.11,3.11s2.48.24,3.5,1.44l1,1.19s3.11.72,3.23,2.16.54,4.55.54,4.55,2.47-.83,2.47,2.75.16,1.83.16,1.83,2.1,2.36,1.08,4.27-.7,1.68-.7,1.68a10.36,10.36,0,0,1,.91,2.17c.44,1.41,1.29,7-.21,10.31A17.48,17.48,0,0,0,179.75,63Z"/><path class="cls-4" d="M112.23,20.94s5-2.74,6.47-2.53a3.3,3.3,0,0,1,2.19,1.26s.51-2,2.34-1.74a13.39,13.39,0,0,1,2.51.48s1.27-1.52,2.08-1.52a4.2,4.2,0,0,1,2,1,1.85,1.85,0,0,1,2-1c1.39.23,1.73.93,1.73.93a2,2,0,0,1,2.2-1A6.67,6.67,0,0,1,138,17.93s1.45-1.69,2.37-1.13l.93.55s1-1.45,1.85-.66a9.16,9.16,0,0,0,1.38,1.13s.35-.7,1.5-.47a4.09,4.09,0,0,1,1.62.61,6,6,0,0,1,2.08-.28c.93.09,1,1.13,1,1.13a1.54,1.54,0,0,1,2.24-.85l1.57.85a12.79,12.79,0,0,1,3.12,1.2c1,.7.58,2.89.58,2.89l6.21,6.27S154.71,22,139,22a61.43,61.43,0,0,0-27.53,6.69Z"/><path class="cls-10" d="M119.24,44.16s22.35-3.13,37.64,0"/><path class="cls-4" d="M129,21.48a5.88,5.88,0,0,0-2.5.73.84.84,0,0,0,.21,1.56c.87.27,2.16-.2,2.77.3s-.6,1.35-.2,2c.25.4,1,.53,1.52.82s.8.9,1.36,1.27a3,3,0,0,0,2.28.29c.75-.21,1.26-.74,1.23-1.28a.68.68,0,0,1,0-.4c.34-.63,2.1.06,2.8-.43.31-.22.22-.56.34-.85a1.88,1.88,0,0,1,.6-.67l1.68-1.38a1.71,1.71,0,0,0,.52-.56c.19-.46-.28-.94-.91-1.18a6.84,6.84,0,0,0-2.1-.31q-4.32-.2-8.64-.17"/><path class="cls-4" d="M148.29,21a5.31,5.31,0,0,1,2.5.85,1,1,0,0,1-.2,1.79c-.88.32-2.17-.22-2.77.34s.6,1.57.2,2.31c-.25.47-1,.61-1.53.95s-.8,1-1.36,1.46a2.61,2.61,0,0,1-2.27.33,1.6,1.6,0,0,1-1.24-1.47.93.93,0,0,0,0-.47c-.34-.72-2.1.08-2.79-.49-.31-.25-.23-.64-.34-1a2.31,2.31,0,0,0-.61-.77l-1.68-1.59a1.84,1.84,0,0,1-.51-.65c-.19-.52.28-1.08.91-1.35a6.21,6.21,0,0,1,2.1-.36c2.87-.15,5.76-.22,8.64-.2"/><path class="cls-4" d="M143.27,22.65a5.31,5.31,0,0,1,2.5.84,1,1,0,0,1-.21,1.8c-.87.31-2.16-.23-2.77.34s.6,1.56.2,2.3c-.25.47-1,.62-1.52.95s-.8,1-1.37,1.47a2.64,2.64,0,0,1-2.27.32,1.6,1.6,0,0,1-1.23-1.47.89.89,0,0,0,0-.46c-.34-.73-2.1.07-2.8-.49-.31-.26-.23-.65-.34-1a2.19,2.19,0,0,0-.61-.77l-1.68-1.59a1.84,1.84,0,0,1-.51-.65c-.19-.52.28-1.08.91-1.35a6.3,6.3,0,0,1,2.1-.36q4.32-.22,8.64-.2"/><path class="cls-4" d="M120,97.44a4,4,0,0,0-1.64,2.45,4.45,4.45,0,0,0,.13,1.09l.36,1.67a.63.63,0,0,0,.13.3.57.57,0,0,0,.33.16,2.74,2.74,0,0,0,1.17.11.91.91,0,0,0,.77-.77,1.29,1.29,0,0,1,0-.48c.12-.29.53-.25.84-.33.76-.2.91-1.19,1.25-1.91a4,4,0,0,1,2.44-2,8.54,8.54,0,0,0,1.51-.57,1.52,1.52,0,0,0,.83-1.3"/><path class="cls-4" d="M154.58,98.3a4,4,0,0,1,1.63,2.45,3.66,3.66,0,0,1-.13,1.09l-.36,1.66a.58.58,0,0,1-.13.31.64.64,0,0,1-.33.16,2.71,2.71,0,0,1-1.16.11.91.91,0,0,1-.78-.77,1.54,1.54,0,0,0,0-.48c-.13-.29-.54-.25-.84-.33-.77-.21-.92-1.19-1.25-1.91a4.08,4.08,0,0,0-2.44-2,9,9,0,0,1-1.52-.57,1.56,1.56,0,0,1-.83-1.31"/><path class="cls-11" d="M111,22.21a8.17,8.17,0,0,1,6.57-2.76,5.39,5.39,0,0,0,2.23-.06c.83-.31,1.36-1.13,2.07-1.66,1.44-1.06,3.47-.85,5.11-.14a2.38,2.38,0,0,0,1.31.32c.69-.12,1.06-.84,1.52-1.36a3.52,3.52,0,0,1,4.28-.73c.76.43,1.42,1.19,2.3,1.24,1.68.1,2.68-2.34,4.35-2.22,1.39.1,2.41,2,3.73,1.55.65-.2,1-.9,1.63-1.2,1.77-.85,3.26,2.06,5.22,2.12,1.39,0,2.86-1.36,4-.53.38.28.58.77,1,1.06.69.54,1.69.26,2.57.33,1.52.12,2.69,1.35,3.7,2.49l2.53,2.83"/><path class="cls-4" d="M112.19,22.45a6.64,6.64,0,0,1,2.56-1.85,9.91,9.91,0,0,1,3.64-.24,5.37,5.37,0,0,0,3-.91c1-.71,1.52-1.74,2.88-1.61,1.08.11,2,.77,3,.88a3.8,3.8,0,0,0,2.89-1c.67-.61,1-1.68,2.09-1.49s1.73,1.2,2.75,1.49c1.79.51,3.41-.44,4.72-1.56.18-.16.37-.3.54-.46s-.3-.16,0,0,.69.41,1,.65a4.07,4.07,0,0,0,2.11.9,4.13,4.13,0,0,0,2.56-.79,2.24,2.24,0,0,0,.51-.42c.43-.57.13,0-.21-.2a5.5,5.5,0,0,1,1,.62c1.43,1,2.62,1.87,4.47,1.56a8.44,8.44,0,0,0,1.58-.46c.71-.26.65-.28,1.1.29A3.17,3.17,0,0,0,157.33,19c2.82,0,4.71,3.16,6.41,5.07.66.75,3.43-.3,2.69-1.13-1.61-1.82-3.3-4.46-5.69-5.31-1-.35-2.62.09-3.36-.6s-1.22-1.35-2.5-1.31c-1,0-1.8.6-2.76.72s-1.67-.78-2.34-1.26a4.07,4.07,0,0,0-5-.13,3.05,3.05,0,0,0-.64.55c.19-.25.74.39.24-.09a9.34,9.34,0,0,0-1.1-.76,3.8,3.8,0,0,0-2.61-.7,5.26,5.26,0,0,0-2.59,1.1,8.92,8.92,0,0,1-1,.85c-.12.07-.43.18-.23.18-.34,0-.83-.54-1.08-.72a5.64,5.64,0,0,0-5.79-.13,5.31,5.31,0,0,0-1.32,1c-.15.15-.27.32-.41.48-.72.81-.05.1-.1.1a17.6,17.6,0,0,1-1.75-.55,7.67,7.67,0,0,0-1.85-.15A6.63,6.63,0,0,0,121,17.31c-.57.38-1,1.09-1.67,1.31a9.45,9.45,0,0,1-2.32,0A10.54,10.54,0,0,0,109.87,22c-1.13,1.25,1.67,1.19,2.32.47Z"/><path class="cls-4" d="M129.33,123.49a4.07,4.07,0,0,0,1.87.62l.72.23q3.24,0,6.45-.15a4.5,4.5,0,0,0,1.57-.26l.15-.08c1.59.05,3.18.09,4.77.08l.73-.2a4.42,4.42,0,0,0,1.87-.55.62.62,0,0,0-.16-1.16c-.65-.2-1.61.15-2.06-.22s.44-1,.15-1.49c-.19-.31-.76-.4-1.14-.62s-.6-.67-1-1a2.22,2.22,0,0,0-1.69-.21c-.6,0-1.41.2-1.6-.21a.83.83,0,0,1,0-.35,1.2,1.2,0,0,0-.92-1.1,2,2,0,0,0-1.69.25c-.42.31-.57.8-1,1.09a3.45,3.45,0,0,1-.47.24,1.78,1.78,0,0,0-.57-.33,2,2,0,0,0-1.69.25c-.42.32-.57.8-1,1.1s-.95.35-1.14.7c-.29.56.65,1.26.15,1.72s-1.41,0-2.07.26A.76.76,0,0,0,129.33,123.49Z"/><path class="cls-2" d="M105.52,108.84a11.51,11.51,0,0,1,2.24,5.07c.68-.48,1.58.2,2,.91s.87,1.6,1.69,1.68c.48,0,1-.2,1.42.1s.25,1,.39,1.47c.43,1.6,3.39,1.06,3.94,2.62.16.48,0,1,.31,1.48.7,1.07,2.75-.16,3.56.83.32.39.3,1,.65,1.35.68.7,2-.1,2.81.43.58.37.65,1.25,1.21,1.64.74.51,1.82-.08,2.62.32s1.1,2,2.09,2c.75,0,1.24-.84,2-1,1.34-.31,2.35,1.81,3.67,1.44.46-.12.79-.53,1.23-.69,1.13-.4,2.29.93,3.45.61.79-.21,1.31-1.17,2.14-1.15a5.65,5.65,0,0,1,1.29.45s1.56.9,2.29-.2l.73-1.11a4.11,4.11,0,0,0,2.15.08c.92-.31,1.83-2,1.83-2s2.28-.18,2.69-.79,1.09-1.55,1.09-1.55a6.63,6.63,0,0,0,2.3-.51,3.89,3.89,0,0,0,1-1.73s2.39,0,2.8-.63a7.76,7.76,0,0,0,.72-1.85,2.78,2.78,0,0,0,2.16,0c1-.52,1.48-2.83,1.48-2.83a8.52,8.52,0,0,0,1.91-.57c.51-.31,1.28-2.3,1.28-2.3s3.18-1.2,2.43-1.71,0-4.49,0-4.49S169,109.7,168,110.36s-2.6.18-2.92,1.08-2,1.87-2,1.87a3.53,3.53,0,0,0-2.38,1.32,10.53,10.53,0,0,0-1.67,2.16s-.08-2-1.74-.31a11.65,11.65,0,0,1-2.47,2.06s-1.92-1.13-2.33-.11a10,10,0,0,1-2,2.47s-1.25-1.54-2.27-.41a10,10,0,0,1-2.47,1.87l-15-.1a1.51,1.51,0,0,0-1.13-.54c-.72,0-2.29-.08-2.29-.08s-.31-2.06-1.16-1.66a3.51,3.51,0,0,1-2.1,0,6.22,6.22,0,0,0-1.31-1.21c-.69-.43-1.88-1-1.88-1s.38-1.94-.82-1.66a3.44,3.44,0,0,1-2.32-.41s-.07-1.74-1-1.44a11,11,0,0,1-2.06.41,15.44,15.44,0,0,0-1.24-1.56l-1-.6s-1.34-2.54-1.95-2.56h-1.65s-1.13-2.85-1.85-2.43-1.51-2.62-1.51-2.62A3.88,3.88,0,0,0,105.52,108.84Z"/><path class="cls-10" d="M135.63,47.9s5.46,6-1.77,7.18C133.86,55.08,137,52.91,135.63,47.9Z"/><path class="cls-10" d="M141.39,47.9s-5.47,6,1.76,7.18C143.15,55.08,140,52.91,141.39,47.9Z"/><path class="cls-12" d="M57.28,406.05l3,48.71c.5,13.94,16.7,239.53,18.77,292.56a11.5,11.5,0,0,0,11.12,11l24.39.78a11.51,11.51,0,0,0,11.85-10.72l14.41-288.26,11.18,286a9.33,9.33,0,0,0,9.1,9l30,.69a9.34,9.34,0,0,0,9.53-8.82l21.62-345.8h0l-23.46-52.49L77.6,365.79,78,375,65,393.88Z"/><path class="cls-13" d="M223.62,260c.17.33.35.64.53,1,0-5.82,0-11.64,0-17.46,0-16.44.24-32.89,1-49.31.71-14.71,3.64-27,5.61-41.61-.81-.6-3.82-2.35-4.67-2.84-1.94-1.11-9.74-4.78-11.94-5.33l-44.53-17s-5,17.44-30.38,17.44c-27.23,0-30.48-17.44-30.48-17.44L53.25,146.51l.61.15c-1.42.52-2.32,1-2.32,1.18.14,12.5-.34,25-.53,37.51-.25,16.51,3.05,33.82,4.52,50.24,2.53,28.15,8.4,58.28,7,86.5l-6.29,84s84.33,10,123.63,5.53,45.21-4.84,45.21-4.84l-4.87-84.65C219.19,301.75,221.05,280.84,223.62,260Z"/><path class="cls-14" d="M161.06,755.34s-4.53,14-4.92,17.93.66,10.05-1.71,13-4.13,11.43,0,13,10.64-.39,17.94,0,15.56,4,19.5,2.76,10.84-4.13,10.84-6.7,1-4.92-3.15-11.43-6.43-16.74-6.83-21.47a9.36,9.36,0,0,0-6.37-8.67c-3.55-1.38-4.73-1.19-4.73-1.19a12.23,12.23,0,0,0-8.08-2.36c-5.13.2-7.1,3.35-7.1,3.35Z"/><path class="cls-2" d="M151.71,794.67s-1.67,3.49,0,5.51,18.62,7.88,34.93,5,17.16-6.06,17.16-6.06a23.22,23.22,0,0,0-1.26-5.65s-12.76,6.66-15.27,6.26-6.27-1.87-13.18-1.87-7.53,1.46-11.29.63A102.86,102.86,0,0,1,151.71,794.67Z"/><path class="cls-3" d="M151.31,794.63c-.77,1.64-1.28,4-.09,5.61.78,1,2.3,1.53,3.45,2A59.36,59.36,0,0,0,172,806a66.59,66.59,0,0,0,22.25-2.25c3-.78,6.7-1.66,9.15-3.75a2.37,2.37,0,0,0,.77-.92,4.05,4.05,0,0,0-.16-1.54A15.3,15.3,0,0,0,203,793.3c-.1-.22-.42-.22-.61-.12-2.13,1.11-4.28,2.16-6.46,3.17-1.67.78-3.37,1.53-5.1,2.18a7.89,7.89,0,0,1-3.55.82c-1.65-.21-3.28-.77-4.92-1.08a42.53,42.53,0,0,0-7.72-.76,38.91,38.91,0,0,0-7,.57,11.4,11.4,0,0,1-4.58.08A71.33,71.33,0,0,1,152,794.4c-.34-.14-1,.35-.5.55a90.45,90.45,0,0,0,10.08,3.52,11.94,11.94,0,0,0,4.6.44c1.92-.24,3.8-.65,5.74-.75a42.48,42.48,0,0,1,9.22.53c1.84.32,3.64.83,5.48,1.19a6.23,6.23,0,0,0,3.24-.4,47.36,47.36,0,0,0,4.75-1.88q4.14-1.85,8.16-4l-.61-.12a13.54,13.54,0,0,1,.91,3.31,8,8,0,0,1,.34,2.32c0-.22-.21.22-.35.37-1.8,1.78-4.85,2.55-7.17,3.23a64.49,64.49,0,0,1-38.26-.2,18.31,18.31,0,0,1-5-2.18c-1.76-1.25-1.23-4-.44-5.67C152.32,794.29,151.46,794.3,151.31,794.63Z"/><path class="cls-2" d="M163.6,755a10.81,10.81,0,0,1,3.15-1.23c1.28-.29,3.47-.65,3.86,1.05a19.2,19.2,0,0,1,.11,3.48c.05,1.08.05,2.15,0,3.23-.12,2.51-.26,5.32-1.3,7.64-.94,2.11-3.55,3.75-5.47,4.85a4.39,4.39,0,0,1-2,.82,2.72,2.72,0,0,1-1.5-1,13.23,13.23,0,0,1-1.88-2.52c-.12-.21-.92.12-.86.23.94,1.57,2.4,4,4.52,3.5a11.27,11.27,0,0,0,3.52-1.75,19.88,19.88,0,0,0,3.61-3c1.89-2,2-5.6,2.17-8.23a38.12,38.12,0,0,0,0-4.14c0-1.17.39-3.17-.45-4.15s-3.19-.61-4.39-.33a13.56,13.56,0,0,0-3.79,1.47c-.35.21.5.12.66,0Z"/><path class="cls-2" d="M188.72,754.74c-1-.48-2-.92-3.06-1.32a9.54,9.54,0,0,0-4.07-1c-3.47.34-3.56,5.45-3.54,8,0,1.88,0,3.76.2,5.63a11.52,11.52,0,0,0,.87,4.47c.59,1.09,2.13,1.75,3.13,2.36s1.79,1.07,2.7,1.59a11.22,11.22,0,0,0,2.64,1.42,2.79,2.79,0,0,0,3.41-2.26,13.84,13.84,0,0,1,2.15-4.64c.18-.28-.66-.17-.79,0-.42.63-.9,1.25-1.26,1.92a9.9,9.9,0,0,0-.86,2.43,3.83,3.83,0,0,1-.49,1.52c-.31.38-.2.22-1,.38a1.64,1.64,0,0,1-1.56-.26q-2.32-1.29-4.59-2.7c-.86-.53-2.14-1.1-2.67-2a9,9,0,0,1-.76-3.34c-.17-1.51-.24-3-.28-4.55s-.1-2.9,0-4.34.51-4.4,2.12-5.11c1.13-.51,3.24.62,4.29,1s1.8.75,2.69,1.17c.21.1,1-.23.69-.37Z"/><path class="cls-2" d="M200.13,785.38c-1.07.82-2.14,1.62-3.22,2.42-1.55,1.15-3.24,2.74-5.18,3.11a18.24,18.24,0,0,1-5.27.06,10,10,0,0,1-2-.56c-3.25-1-6.92-2.2-10.38-1.93-3,.24-5.92,1.28-8.66,1.27a16.42,16.42,0,0,1-8.32-2.36l-2.25-1.26c-.23-.13-1,.21-.8.3,2.85,1.61,5.49,3.23,8.81,3.6,3.1.35,5.75-.38,8.8-.86a19,19,0,0,1,7.29.28,53.52,53.52,0,0,1,5.37,1.5,15.12,15.12,0,0,0,7.29.34c1.94-.36,3.38-1.52,4.94-2.66s2.86-2.1,4.27-3.18c.35-.28-.49-.21-.67-.07Z"/><path class="cls-2" d="M166.44,770.38s11.45-.66,16.22,0c0,0,1.32-.22.81-1.25s-14.68-.81-15.79-.44S165.48,769.64,166.44,770.38Z"/><path class="cls-2" d="M166.25,770.53c2.16-.12,4.75-.21,7.05-.26,1.88,0,3.76,0,5.64,0,.82,0,1.64.06,2.46.14a3.83,3.83,0,0,0,1.47,0c.68-.2,1.78-1.15.72-1.65a7.86,7.86,0,0,0-2.68-.41,89.29,89.29,0,0,0-9-.13c-1.2,0-2.42,0-3.62.19-.92.11-3.56.92-2.3,2.07.16.14.92-.19.81-.28-1.25-1.15,1.26-1.5,2.06-1.55,1.1-.07,2.2-.1,3.3-.12,2.61-.05,5.22-.05,7.82.12a11.37,11.37,0,0,1,2.6.34c.27.08.4.13.5.41a.61.61,0,0,1-.36.79c.24-.09,0-.05-.11-.06l-.55,0A74,74,0,0,0,173,770q-3.21.07-6.41.25C166.41,770.23,165.69,770.57,166.25,770.53Z"/><path class="cls-2" d="M166.44,765.39s11.45-.67,16.22,0c0,0,1.32-.23.81-1.25s-14.68-.81-15.79-.44S165.48,764.65,166.44,765.39Z"/><path class="cls-2" d="M166.4,765.71c2.31-.13,4.63-.21,6.94-.26,1.88,0,3.77-.05,5.65,0,.82,0,1.64.06,2.45.13a3.79,3.79,0,0,0,1.57,0c.85-.29,1.51-1.47.47-2a7.82,7.82,0,0,0-2.67-.43,86.18,86.18,0,0,0-8.95-.14c-1.22,0-2.46,0-3.68.19s-3.46,1.08-2.07,2.35c.3.27,1-.17.65-.51-.7-.64.92-1.12,1.25-1.17a9.1,9.1,0,0,1,1.05-.09c1.07-.07,2.15-.1,3.22-.12,2.63-.06,5.26-.06,7.88.11a12.3,12.3,0,0,1,2.57.32c.27.08.51.14.42.51-.16.59-.87.3-1.26.27a77.58,77.58,0,0,0-8.89-.16c-2.18.05-4.36.13-6.53.26C166,765.08,165.82,765.75,166.4,765.71Z"/><path class="cls-2" d="M167.58,761s10.36-.66,14.68,0c0,0,1.2-.22.73-1.25s-13.29-.8-14.28-.44S166.71,760.25,167.58,761Z"/><path class="cls-2" d="M167.53,761.26c2.09-.13,4.19-.21,6.28-.26,1.73,0,3.46,0,5.18,0,.74,0,1.48.07,2.22.14a2.92,2.92,0,0,0,1.41,0c.72-.28,1.39-1.34.47-1.83a6.41,6.41,0,0,0-2.42-.44,74.21,74.21,0,0,0-8.17-.14,30.42,30.42,0,0,0-3.3.19c-1,.13-3.2,1.05-2,2.23.25.25,1.06-.09.79-.36-1-1,1.2-1.33,1.86-1.38,1-.07,1.92-.1,2.87-.12,2.38-.06,4.77-.06,7.14.11a10.1,10.1,0,0,1,2.39.31c.24.08.32.09.4.31a.48.48,0,0,1-.33.66,2.34,2.34,0,0,1-.42-.06,58.19,58.19,0,0,0-8.35-.18c-2,0-3.94.12-5.91.25C167.16,760.73,166.94,761.3,167.53,761.26Z"/><path class="cls-2" d="M167.23,756.87s10.37-.66,14.69,0c0,0,1.19-.22.73-1.25s-13.29-.8-14.29-.44S166.37,756.14,167.23,756.87Z"/><path class="cls-2" d="M167.2,757.2c2.09-.13,4.19-.21,6.28-.26,1.73,0,3.47-.05,5.2,0,.76,0,1.52.07,2.27.15a2.69,2.69,0,0,0,1.38,0c.78-.33,1.28-1.47.35-1.93a6.91,6.91,0,0,0-2.43-.43,75.63,75.63,0,0,0-8.25-.14,31.44,31.44,0,0,0-3.22.19c-1.12.16-3.1,1.13-1.87,2.36.28.28,1-.16.65-.52-.91-.9,1.48-1.21,2-1.25,1-.07,1.93-.1,2.9-.12a71.87,71.87,0,0,1,7.19.11,9.53,9.53,0,0,1,2.32.31c.25.09.42.13.36.49a.48.48,0,0,1-.38.38c-.08,0-.16,0,0,0a3.6,3.6,0,0,1-.55-.07,60.76,60.76,0,0,0-8.21-.16c-2,.05-3.94.12-5.91.25C166.77,756.57,166.62,757.24,167.2,757.2Z"/><path class="cls-14" d="M117.16,755.34s4.53,14,4.93,17.93-.66,10.05,1.7,13,4.14,11.43,0,13-10.64-.39-17.93,0-15.57,4-19.51,2.76-10.83-4.13-10.83-6.7-1-4.92,3.15-11.43,6.43-16.74,6.82-21.47,2.83-7.29,6.38-8.67,4.73-1.19,4.73-1.19a12.23,12.23,0,0,1,8.08-2.36c5.12.2,7.09,3.35,7.09,3.35Z"/><path class="cls-2" d="M126.51,794.67s1.68,3.49,0,5.51-18.61,7.88-34.93,5-17.15-6.06-17.15-6.06a23.55,23.55,0,0,1,1.25-5.65s12.76,6.66,15.27,6.26,6.28-1.87,13.18-1.87,7.53,1.46,11.3.63A103.25,103.25,0,0,0,126.51,794.67Z"/><path class="cls-3" d="M126.09,794.79c.72,1.54,1.33,4.12-.1,5.45a12.35,12.35,0,0,1-4.14,2,61.87,61.87,0,0,1-16.83,3.3,65.63,65.63,0,0,1-20.91-2.32c-2.83-.75-6.3-1.57-8.61-3.51a3,3,0,0,1-.64-.71,11,11,0,0,1,.2-1.45,14.87,14.87,0,0,1,1-4.06l-.74.2c2.19,1.14,4.42,2.22,6.66,3.26,1.71.79,3.43,1.56,5.2,2.21a9.73,9.73,0,0,0,3.51.86,28.11,28.11,0,0,0,4.53-1,42,42,0,0,1,8.36-.91,41.53,41.53,0,0,1,7.3.64,11.47,11.47,0,0,0,4.33,0,67.45,67.45,0,0,0,11.46-3.86c.55-.22.06-.65-.37-.47a96.85,96.85,0,0,1-9.7,3.4,11.25,11.25,0,0,1-4.82.42,52.67,52.67,0,0,0-5.76-.71,51.66,51.66,0,0,0-13.84,1.58,5.93,5.93,0,0,1-3.58-.23c-1.63-.54-3.22-1.23-4.79-1.93-2.64-1.18-5.25-2.45-7.82-3.79a.57.57,0,0,0-.74.2,13.16,13.16,0,0,0-.94,3.38,7.49,7.49,0,0,0-.34,2.38,1.52,1.52,0,0,0,.42.65c1.81,1.93,5.08,2.77,7.49,3.48,13.09,3.85,27.28,4.09,40.21-.55,1.5-.54,3.4-1.11,4.57-2.24,1.55-1.5,1.07-4.18.25-5.92C126.77,794.2,125.93,794.45,126.09,794.79Z"/><path class="cls-2" d="M115.36,754.88c-2-1.19-5.47-2.44-7.71-1.24-1,.55-1,1.7-1,2.72,0,1.48-.08,2.95,0,4.44a37.62,37.62,0,0,0,.46,5.19,10.26,10.26,0,0,0,1.21,3.91,12.81,12.81,0,0,0,3.18,3,13.32,13.32,0,0,0,4,2.23c2.34.69,4-1.93,5.08-3.66,0-.1-.72-.06-.85.15a14,14,0,0,1-1.45,2c-.34.4-.85,1.06-1.37,1.21a2.72,2.72,0,0,1-1.62-.44,16.32,16.32,0,0,1-6-4.59c-1.32-1.82-1.46-4.66-1.64-6.81-.19-2.38-.08-4.73-.08-7.1a3.66,3.66,0,0,1,.24-1.71c.54-1,2.44-.55,3.34-.35a12.12,12.12,0,0,1,3.44,1.34c.21.12.92-.23.81-.29Z"/><path class="cls-2" d="M90.11,755c.73-.35,1.48-.68,2.23-1a11.29,11.29,0,0,1,3.92-1.24c1.82,0,2.57,2.49,2.85,3.91a22,22,0,0,1,.21,4.59c0,2.76.09,5.92-.84,8.57-.38,1.11-1.4,1.62-2.35,2.21-1.5.94-3,1.82-4.56,2.7-1.17.67-2.55,1.06-3.26-.44-.44-.93-.49-2.06-.89-3a15.24,15.24,0,0,0-1.55-2.52c-.13-.2-1,.07-.8.31A12.9,12.9,0,0,1,87,772.79c.26.91.31,2,1.09,2.6a2.46,2.46,0,0,0,1.82.51,5.14,5.14,0,0,0,2-.85c1-.58,2-1.16,3-1.76a17.37,17.37,0,0,0,3.81-2.52c.79-.85.91-2.31,1-3.41a49.64,49.64,0,0,0,.34-5.31,25,25,0,0,0-.23-5.74c-.3-1.42-1-3.45-2.59-3.86-1.33-.35-3,.42-4.21.88s-2.38.95-3.53,1.5c-.51.24.27.3.51.19Z"/><path class="cls-2" d="M77.36,785.57q1.73,1.32,3.48,2.61c1.47,1.08,3,2.52,4.83,3a16.77,16.77,0,0,0,5.43.27,8.08,8.08,0,0,0,2.08-.34c3.5-1.2,7.52-2.57,11.25-2.17,3.23.34,6.27,1.39,9.54,1.19a16.24,16.24,0,0,0,7.16-2.1l2.92-1.65c.49-.28-.28-.29-.51-.16l-1.69.95a16.88,16.88,0,0,1-7.53,2.57c-3.1.18-5.94-.76-9.11-1.16-3.53-.45-7.25.66-10.59,1.7-.55.17-1.09.34-1.63.53l-.45.16c-.23.06.32-.06,0,0a19.92,19.92,0,0,1-4.88.09c-2.28-.24-3.86-1.55-5.66-2.86q-1.95-1.42-3.87-2.9c-.2-.16-1,.18-.8.31Z"/><path class="cls-2" d="M111.79,770.38s-11.45-.66-16.22,0c0,0-1.32-.22-.81-1.25s14.68-.81,15.78-.44S112.74,769.64,111.79,770.38Z"/><path class="cls-2" d="M112.07,770.21a115,115,0,0,0-14.73-.15,7.72,7.72,0,0,1-1.55.13c-.43-.09-1.1-.76-.58-1.18s1.6-.26,2.09-.29c2.6-.21,5.23-.2,7.83-.16,1.24,0,2.49.05,3.73.13.82.06,3.82.56,2.55,1.73-.16.14.62.05.76-.08,1.17-1.07-.86-1.79-1.81-1.9s-2-.14-3.06-.17c-3-.09-5.94-.1-8.89.08-.52,0-5.42.23-4,1.8a1.34,1.34,0,0,0,1.17.36c.76-.08,1.51-.15,2.27-.19,1.82-.08,3.64-.09,5.45-.06q4.11,0,8.2.28C111.68,770.55,112.48,770.24,112.07,770.21Z"/><path class="cls-2" d="M111.79,765.39s-11.45-.67-16.22,0c0,0-1.32-.23-.81-1.25s14.68-.81,15.78-.44S112.74,764.65,111.79,765.39Z"/><path class="cls-2" d="M111.93,765.06a116.28,116.28,0,0,0-14.58-.17,11.68,11.68,0,0,1-1.66.17.81.81,0,0,1-.56-.34c-.08-.15,0-.52,0-.48s0,0,0,0a5.63,5.63,0,0,1,2.16-.34c2.56-.21,5.15-.21,7.72-.18,1.28,0,2.56,0,3.84.13.56,0,3.61.41,2.62,1.31-.42.4.24.73.58.43,1.3-1.2-.55-2.11-1.69-2.29a22.4,22.4,0,0,0-2.83-.18c-3-.1-6-.12-9,0a17.47,17.47,0,0,0-3.24.36c-.74.18-1.58.87-.89,1.68s2.34.36,3.31.31c1.83-.1,3.67-.11,5.5-.09,2.8,0,5.61.12,8.41.28C112.08,765.74,112.51,765.09,111.93,765.06Z"/><path class="cls-2" d="M110.65,761s-10.37-.66-14.68,0c0,0-1.2-.22-.74-1.25s13.29-.8,14.29-.44S111.51,760.25,110.65,761Z"/><path class="cls-2" d="M110.81,760.7a94.72,94.72,0,0,0-13.37-.16c-.3,0-.6.05-.89.09a2.18,2.18,0,0,1-.44.06.83.83,0,0,1-.46-.29.6.6,0,0,1,0-.63c0,.07,0,0,0,0,.39-.33,1.46-.29,1.94-.33a68.68,68.68,0,0,1,7-.18c1.14,0,2.28.05,3.42.13.66,0,3.36.42,2.31,1.47-.37.37.46.45.7.2,1.1-1.09-.58-2-1.6-2.13a21,21,0,0,0-2.64-.18c-2.71-.1-5.44-.12-8.14.05a14.21,14.21,0,0,0-2.91.36c-.7.2-1.43.86-.8,1.62s2.11.32,3,.27c1.66-.11,3.32-.11,5-.09q3.81,0,7.61.28C110.88,761.29,111.38,760.73,110.81,760.7Z"/><path class="cls-2" d="M111,756.87s-10.36-.66-14.68,0c0,0-1.2-.22-.73-1.25s13.29-.8,14.28-.44S111.86,756.14,111,756.87Z"/><path class="cls-2" d="M111.14,756.54a94.72,94.72,0,0,0-13.37-.16,9,9,0,0,1-1.32.16.71.71,0,0,1-.53-.4,1,1,0,0,1,.06-.44s-.1.09,0,0a4.49,4.49,0,0,1,1.94-.33,65.22,65.22,0,0,1,7.13-.18c1.14,0,2.28,0,3.42.13.64,0,3.16.41,2.18,1.38-.38.38.44.57.73.28,1.11-1.11-.6-2-1.62-2.22a21,21,0,0,0-2.63-.18c-2.71-.1-5.45-.12-8.16,0A14.21,14.21,0,0,0,96,755c-.73.21-1.41.92-.79,1.69s2.1.35,3,.3c1.63-.1,3.26-.11,4.89-.09,2.56,0,5.13.12,7.69.28C111.29,757.23,111.71,756.58,111.14,756.54Z"/><polygon class="cls-15" points="59.87 273.29 51.49 188.44 56.77 265.78 59.87 273.29"/><path class="cls-13" d="M69,240.11c3-8.6,10-29,12.53-38.62C84.71,189.09,81,137,81,137c-8.67,3.56-41.18,11.54-44.74,21.37-12.22,25.62-15,56.82-15,85.3,0,17.63-.26,34.94,11.11,48.65a43.39,43.39,0,0,0,9.08,3c2.85.54,6.69,1,9.53.37,6.23-1.39,9.07-5.06,17.26-12.72C72.49,279,64.09,243.15,69,240.11Z"/><path class="cls-1" d="M115.42,109.44c.27,3.57-4.87,12-4.87,12s2.51,25.16,1.66,29.8c-.4,2.2-2.44,3.63-4.29,8.48A120.53,120.53,0,0,0,104,173.87L79.3,166.1l7.06-15.91-2-23.2.44-22.14L97.66,90.91a1.85,1.85,0,0,1,.33.21,2.15,2.15,0,0,1,.39,3l5.06-4.8c3.93,2.61-1.11,10.52-1.11,10.52l6.07-6.75c3.44,3.07-.1,8.71-.1,8.71l-6,10.21s-.09,6.9.52,9.16,1.06,4.65,1.06,4.65l1.27-7.69,8.28-13.64S115.15,105.87,115.42,109.44Z"/><path class="cls-16" d="M115.24,106.08a6,6,0,0,0-1.43-2.19l-.35-.32-.25.42c-2.63,4.34-5.43,8.93-8.26,13.66l0,.07v.08c-.29,1.73-.6,3.57-.9,5.46-.09-.38-.17-.75-.26-1.14-.12-.56-.25-1.12-.38-1.68a13.73,13.73,0,0,1-.23-1.69c-.2-2.26-.24-4.6-.23-7l3.55-6.07c.62-1.06,1.24-2.11,1.86-3.18.3-.53.65-1,.94-1.63a14.17,14.17,0,0,0,.75-1.75,8.52,8.52,0,0,0,.48-3.54,4.85,4.85,0,0,0-1.62-3.24l-.33-.29-.29.33-3.82,4.27a20.45,20.45,0,0,0,.83-2.43,8.1,8.1,0,0,0,.24-3,3.8,3.8,0,0,0-1.63-2.65l-.3-.2-.24.25-4,4.06a3.53,3.53,0,0,0,0-.46,2.59,2.59,0,0,0-1.23-1.87l-.3-.18-.24.25L84.71,104.26l-.1.11v.15c-.11,8-.21,15.37-.31,22.14.14,1.45,1.57,19.61,1.75,23.76a1.28,1.28,0,0,1,.55.37c-.18-4.24-1.6-22.59-1.73-24.08.12-6.72.26-14.07.41-22L97.84,91.32a1.74,1.74,0,0,1,.55,1A2.84,2.84,0,0,1,98,94l-1.54,2.74,2.18-2.21.14-.14.06,0,.11-.23,4.57-4.64a2.86,2.86,0,0,1,1,1.82,7.2,7.2,0,0,1-.22,2.69A19.71,19.71,0,0,1,102,99.23l.7.53.09-.1.08.06c.08-.13.16-.28.24-.42l5.32-6a4,4,0,0,1,1,2.35,7.92,7.92,0,0,1-.44,3.17,12.69,12.69,0,0,1-.7,1.66c-.26.53-.59,1-.9,1.58-.63,1.07-1.24,2.13-1.86,3.17L102,111.47l-.06.11v.11c0,2.42,0,4.8.24,7.15a17.75,17.75,0,0,0,.26,1.78l.39,1.68c.25,1.1.5,2.2.76,3.26l.49,2.14.35-2.14,0-.12h.09c0-.08,0-.16-.05-.24.42-2.5.82-5,1.17-7.25l7.89-13.13a5.54,5.54,0,0,1,.9,1.49,9.06,9.06,0,0,1,.59,2.23,9.29,9.29,0,0,1-.77,4.41,53.49,53.49,0,0,1-3.93,8l-.06.11v.2c.82,8.15,1.48,15.6,1.84,22.19.1,1.65.19,3.24.16,4.76a12.26,12.26,0,0,1-.5,4.3s-2.79,4.59-2.79,4.61c.18.08.13-.06.3,0,0-.05,3-4.44,3-4.49a13.26,13.26,0,0,0,.59-4.47c0-1.54-.05-3.14-.13-4.79-.3-6.58-.91-14-1.68-22.12a53.28,53.28,0,0,0,4-8,16.28,16.28,0,0,0,.71-2.28,8.69,8.69,0,0,0,.18-1.23l0-.65,0-.62A10.15,10.15,0,0,0,115.24,106.08Z"/><path class="cls-5" d="M95.5,118.58c-.15-2.36-.3-5.59-.4-9.17l0-1v-.15l.1-.13c2-2.66,3.91-5,5.29-6.67a15.44,15.44,0,0,1,2.34-2.58,14.35,14.35,0,0,1-1.87,2.94c-1.21,1.76-3,4.18-5.06,6.85l.09-.28a6.46,6.46,0,0,0,0,1c.1,3.59.16,6.83.14,9.18a17.29,17.29,0,0,1-.2,3.81A16.06,16.06,0,0,1,95.5,118.58Z"/><path class="cls-5" d="M89.77,112.42c-.15-2.15-.29-5.15-.41-8.51l0-.17.12-.13.69-.81c2.37-2.72,4.54-5.16,6.14-6.9A16.24,16.24,0,0,1,99,93.22a16,16,0,0,1-2.26,3.1c-1.48,1.84-3.61,4.3-5.94,7.06l-.71.81.12-.31c.09,3.41.13,6.37.12,8.53a15.09,15.09,0,0,1-.19,3.49A14.39,14.39,0,0,1,89.77,112.42Z"/><path class="cls-15" d="M75.32,164.53l-.66-.27s-38.57,65.89-41.88,82.11C30.29,258.52,31,268.22,36,275.48a53,53,0,0,1-2.57-27.28c1.7-9.87,20.6-43.83,20.6-43.83Z"/><path class="cls-15" d="M104.85,173.65s-3.63,14.18-8.76,38.38c-3.42,16.17-13.45,48.36-21.22,60.54-8.37,13.11-16.06,18.23-20.43,21,0,.37,1.56-.54,1.59-.18,7.52-5.08,20.19-13.91,30.15-42.5,8.55-24.57,18.45-67.45,19.53-76.9Z"/><polygon class="cls-15" points="74.44 164.63 105.29 175.32 105.28 173.81 74.83 163.75 74.44 164.63"/><path class="cls-15" d="M56.87,198.06s1.76-14.14-2-20.26a26.75,26.75,0,0,1,3.36,18.85Z"/><polygon class="cls-15" points="210.49 272.93 220.33 188.24 213.73 265.47 210.49 272.93"/><path class="cls-13" d="M202,239.6c-2.85-8.65-9.51-29.16-11.85-38.83-3-12.45,1.55-64.5,1.55-64.5,8.61,3.71,41,12.25,44.36,22.13,11.79,25.83,14,57.07,13.52,85.54-.29,17.63-.35,34.95-11.95,48.46a42.89,42.89,0,0,1-9.12,2.85c-2.86.5-6.71.9-9.54.21-6.21-1.5-9-5.22-17-13C197.78,278.46,206.79,242.73,202,239.6Z"/><path class="cls-1" d="M158.8,106.13c-.35,3.57,4.63,12.1,4.63,12.1s-3,25.11-2.27,29.77c.36,2.2,2.37,3.67,4.12,8.56a121.18,121.18,0,0,1,3.66,14.23l23.72-7.26L187,147.47l2.52-23.16V102.17L176.93,88a2.63,2.63,0,0,0-.33.2,2.15,2.15,0,0,0-.46,3l-4.95-4.9c-4,2.53.89,10.55.89,10.55L166.15,90c-3.5,3-.08,8.71-.08,8.71L171.89,109s0,6.9-.71,9.14-1.16,4.64-1.16,4.64l-1.11-7.71-8-13.81S159.14,102.57,158.8,106.13Z"/><path class="cls-16" d="M159,102.78a6.22,6.22,0,0,1,1.48-2.16l.35-.32.25.43c2.54,4.4,5.25,9,8,13.83l.05.07v.08c.26,1.73.53,3.58.79,5.47.09-.38.18-.75.28-1.13l.42-1.67a16,16,0,0,0,.26-1.69c.25-2.25.33-4.6.37-6.94l-3.43-6.15c-.59-1.06-1.2-2.13-1.79-3.21-.29-.53-.63-1.06-.91-1.65a12.7,12.7,0,0,1-.71-1.76,8.39,8.39,0,0,1-.41-3.55,4.92,4.92,0,0,1,1.68-3.21l.34-.28.28.33,3.74,4.35a20.58,20.58,0,0,1-.79-2.45,8.08,8.08,0,0,1-.18-3,3.85,3.85,0,0,1,1.68-2.62l.31-.19.23.26,3.91,4.13a3.54,3.54,0,0,1,0-.46,2.58,2.58,0,0,1,1.26-1.84l.31-.18.23.26,12.58,14.07.1.11v.15c0,8-.09,15.37-.13,22.14-.17,1.45-2,19.58-2.23,23.72a1.29,1.29,0,0,0-.56.36c.26-4.23,2.06-22.55,2.22-24,0-6.72,0-14.08,0-22q-5.86-6.54-12.29-13.66a1.69,1.69,0,0,0-.57,1A2.89,2.89,0,0,0,176.5,91L178,93.79l-2.13-2.26-.14-.14-.06,0a1.6,1.6,0,0,1-.1-.23l-4.48-4.73a2.89,2.89,0,0,0-1,1.8,7,7,0,0,0,.17,2.69,19.73,19.73,0,0,0,2.14,5.23l-.71.51-.08-.1-.08.06c-.09-.13-.16-.28-.24-.42l-5.2-6.06A4,4,0,0,0,165,92.52a7.57,7.57,0,0,0,.38,3.17,11.06,11.06,0,0,0,.66,1.68c.25.53.57,1,.87,1.6l1.8,3.21,3.49,6.26.06.1v.11c0,2.43-.13,4.8-.39,7.16-.06.59-.16,1.18-.28,1.77s-.29,1.12-.43,1.67l-.82,3.25-.54,2.12-.31-2.15v-.11h-.1l.06-.23c-.37-2.51-.72-5-1-7.28l-7.63-13.28a5.38,5.38,0,0,0-.93,1.47,9,9,0,0,0-.63,2.21,9.21,9.21,0,0,0,.68,4.43,53,53,0,0,0,3.77,8l.06.11,0,.2c-1,8.13-1.79,15.57-2.29,22.14-.13,1.65-.26,3.24-.25,4.77a12.26,12.26,0,0,0,.41,4.3l2.7,4.66c-.18.08-.13-.06-.3,0,0-.05-2.94-4.5-3-4.55a13,13,0,0,1-.5-4.48c0-1.54.11-3.14.22-4.79.44-6.57,1.19-14,2.13-22.08a53.13,53.13,0,0,1-3.79-8,16.8,16.8,0,0,1-.67-2.3,10.25,10.25,0,0,1-.16-1.24l0-.64.05-.62A10,10,0,0,1,159,102.78Z"/><path class="cls-5" d="M178.53,115.67c.19-2.35.41-5.58.58-9.15l0-1,0-.15-.1-.13c-2-2.71-3.81-5.11-5.15-6.78a16.07,16.07,0,0,0-2.29-2.63,14.64,14.64,0,0,0,1.81,3c1.18,1.78,2.94,4.24,4.92,7l-.08-.28a8.15,8.15,0,0,1,0,1c-.18,3.58-.3,6.82-.33,9.17a16.9,16.9,0,0,0,.13,3.82A16.63,16.63,0,0,0,178.53,115.67Z"/><path class="cls-5" d="M184.39,109.63c.18-2.14.39-5.14.58-8.5V101l-.11-.14-.68-.82c-2.3-2.77-4.42-5.25-6-7a16.68,16.68,0,0,0-2.69-2.74,17,17,0,0,0,2.2,3.14c1.45,1.87,3.52,4.38,5.8,7.18l.69.83-.11-.31c-.16,3.4-.26,6.36-.29,8.52a14.54,14.54,0,0,0,.12,3.49A14.79,14.79,0,0,0,184.39,109.63Z"/><path class="cls-15" d="M197.41,161.81l.68-.25S233.9,229,236.54,245.34c2,12.24.88,21.9-4.42,28.94a53,53,0,0,0,3.68-27.15C234.51,237.2,217,202.49,217,202.49Z"/><path class="cls-15" d="M167.53,169.69s3.05,14.33,7.17,38.72c2.76,16.3,11.45,48.87,18.71,61.36,7.82,13.45,15.29,18.88,19.54,21.8,7.36,4.26,7.37,4.48,7.33,4.85-10.87-3.22-28.51-19.83-37.27-48.81-7.54-24.9-15.66-68.15-16.35-77.64Z"/><polygon class="cls-15" points="197.97 161.9 167.03 171.35 167.1 169.84 197.56 161.16 197.97 161.9"/><path class="cls-15" d="M215.94,199.61s-1.47-16.74,2.41-23.92a36.33,36.33,0,0,0-3.74,22.23Z"/><path class="cls-17" d="M226.57,82.56c-.35.23-.34.24-.26.77a2.76,2.76,0,0,0,1.18-.66c.24-.16.44-.38.76-.36a4.63,4.63,0,0,0,.21.56,4.61,4.61,0,0,1,.19,3.89,4.83,4.83,0,0,1-4.18,3.07,8.69,8.69,0,0,1-2.22.18c-.17,0-.35-.06-.5,0a.33.33,0,0,0-.12.21.26.26,0,0,0,.13.2,1.68,1.68,0,0,0,.5.07l1.9,0a9.71,9.71,0,0,1-.94,3.29,6,6,0,0,1-5.09,3.47,8.32,8.32,0,0,1-7.54-3.36.61.61,0,0,0-.93-.21,5.58,5.58,0,0,1-4.42.42,5.65,5.65,0,0,1-3.45-7.66A4.59,4.59,0,0,1,203.86,84a.9.9,0,0,0,.59.32l3.08.83a2.16,2.16,0,0,0,.51.06.25.25,0,0,0,.28-.26.24.24,0,0,0-.19-.25l-.58-.18-2.74-.73a2,2,0,0,0-.93-.12c-.1-.17-.28-.19-.44-.23l-2.71-.73a70.32,70.32,0,0,0-12.28-2.47c-.76-.06-.87-.2-.89-1v-.69c0-.76,0-.76.77-.77,1.12,0,2.24.09,3.36.13a43.64,43.64,0,0,0,7.22-.32,20.53,20.53,0,0,0,4.18-.92,2,2,0,0,0,1.23-.87c.07.12.17.12.28,0l2.62-1.47a1.67,1.67,0,0,0,.35-.24.25.25,0,0,0,0-.31.23.23,0,0,0-.28-.14,5.31,5.31,0,0,0-.55.23,21,21,0,0,1-2.05,1.07,6.38,6.38,0,0,1,.1-2.13,6.84,6.84,0,0,1,2.84-3.85,5.12,5.12,0,0,1,5.59-.39,3.51,3.51,0,0,0,1.14.58.86.86,0,0,1-.15,1.07,6.93,6.93,0,0,0-.73,1c-.1.14-.19.3,0,.43s.33.12.46-.06l.05-.07a20.78,20.78,0,0,1,1.83-2.15l1.23-.63a7.67,7.67,0,0,1,5.35-.8,8.83,8.83,0,0,1,6.81,6.3,9.26,9.26,0,0,1,.2,2.83,7.24,7.24,0,0,1-1.06,3.67A5.34,5.34,0,0,1,226.57,82.56ZM213.92,83c-2.21-.67-3.06-2.4-3.47-4.45a4.87,4.87,0,0,1-.07-2,2.72,2.72,0,0,1,1.7-2.12c.13-.06.28-.09.41-.14s.32-.18.27-.38-.29-.21-.49-.17a3.31,3.31,0,0,0-2.5,3.25,7.26,7.26,0,0,0,2.2,5.71,1.11,1.11,0,0,1,.2.22c-.15.29-.46.31-.7.43a4.06,4.06,0,0,0-2.25,5.31c.06.19.07.45.36.36s.2-.31.16-.51-.15-.62-.17-.93a3.45,3.45,0,0,1,2.26-3.77,9,9,0,0,1,2.23-.57C214,83,213.94,83,213.92,83ZM193,79c0,.28.18.31.39.33,1.15.07,2.3.12,3.45.21,2.84.21,5.69.41,8.52.76a33.17,33.17,0,0,1,3.83.61c.18,0,.35.07.42-.15s-.1-.32-.27-.37a15.79,15.79,0,0,0-2.89-.52c-3.26-.39-6.53-.66-9.8-.89-1.09-.08-2.19,0-3.31-.24A.28.28,0,0,0,193,79Z"/><path class="cls-17" d="M49.43,82.11c.18.1.39.37.6.12s0-.46-.21-.63-.68-.52-1-.78a1.44,1.44,0,0,1-.57-.72,6.5,6.5,0,0,1-1.25-4A8.37,8.37,0,0,1,50.7,68.7a8.14,8.14,0,0,1,8-1c.8.32,1.5.82,2.28,1.14-.07.07-.09.16,0,.22a7.67,7.67,0,0,1,1.48,1.78c.09.11.16.24.26.34a.34.34,0,0,0,.46.12c.19-.11.14-.31,0-.46-.21-.34-.44-.67-.68-1a2.53,2.53,0,0,1-.47-.81c.3-.16.62-.29.91-.48a6.75,6.75,0,0,1,2.76-.86c1.25-.2,2.21.72,3.38.82.33,0,.09.54.4.67a.45.45,0,0,1,.14.1,6.44,6.44,0,0,1,2.27,5.84l-2-1.23-.45-.26c-.2-.1-.4-.13-.52.11s.06.31.2.4c.34.22.68.44,1,.65l1.71,1a5.59,5.59,0,0,0,2,1.16,28.13,28.13,0,0,0,6.91,1.31,58.12,58.12,0,0,0,6.73.18c1.39,0,1.23-.09,1.17,1.31,0,1,0,1-.95.94a2,2,0,0,0-.43,0c-2.51.31-5,.66-7.48,1.18s-4.88,1-7.32,1.58l-4,.88-.42.11c-.24,0-.36.18-.3.43s.25.18.42.14l3.63-.79.59-.11a4.39,4.39,0,0,1,1.35,1.43,5.83,5.83,0,0,1-.69,6.81,5.9,5.9,0,0,1-4.29,1.84,5.49,5.49,0,0,1-2.78-.82.56.56,0,0,0-.87.15,9.88,9.88,0,0,1-1.36,1.3,8.17,8.17,0,0,1-6.63,1.75,5.27,5.27,0,0,1-2.47-1,7.35,7.35,0,0,1-2.92-6c.49-.1,1,.19,1.44.16s.92.08.94-.32c0-.57-.57-.27-.88-.3a9.11,9.11,0,0,1-1.94-.3,4.47,4.47,0,0,1-2.54-1.11c-1.9-1.36-2.06-4.55-.94-6.23a.65.65,0,0,1,.32-.27C48.7,81.47,49,81.87,49.43,82.11Zm17.1-3.63a5.51,5.51,0,0,0-.14-3.56,3.13,3.13,0,0,0-2.09-1.68c-.18-.06-.35-.07-.41.16a.32.32,0,0,0,.2.42l.16.05a2.86,2.86,0,0,1,1.9,3.23A7.19,7.19,0,0,1,65,80.51a4.2,4.2,0,0,1-2.57,1.92c-.1,0-.22,0-.28.17.09.25.33.17.51.21a6.36,6.36,0,0,1,2.37,1,3.34,3.34,0,0,1,1.34,3.8c-.06.25-.15.5-.21.75a.27.27,0,0,0,.2.33.29.29,0,0,0,.36-.14,1.85,1.85,0,0,0,.12-.33c.66-2.29.12-4.19-2.09-5.33a1.63,1.63,0,0,1-.65-.45A6.47,6.47,0,0,0,66.53,78.48Zm8.89.89c-2.19.07-4.37.2-6.55.44-.57.06-1.14.16-1.7.26-.23,0-.51.09-.46.4s.32.25.55.2A45.13,45.13,0,0,1,74.21,80c2.44-.12,4.89-.21,7.33-.3.52,0,1,0,1.56,0,.17,0,.37,0,.38-.23s-.11-.39-.37-.38h-.17C80.43,79.2,77.93,79.3,75.42,79.37Z"/><path class="cls-18" d="M196.56,47.27a1.06,1.06,0,0,0,.12.2.26.26,0,0,0,.38.05c.37-.28.72-.57,1.09-.86l4.94-3.92c.13-.11.27-.21.39-.33a.3.3,0,0,0,.05-.45c-.12-.14-.26-.1-.39,0a3.79,3.79,0,0,0-.35.25L197,46.83C196.82,47,196.63,47,196.56,47.27Z"/><path class="cls-18" d="M88.21,24.08c.26,0,.34-.27.16-.58-.6-1-1.22-2.08-1.83-3.12l-1-1.78c-.11-.18-.19-.47-.51-.25s-.1.37,0,.52c.41.73.83,1.45,1.25,2.16.52.9,1,1.79,1.57,2.68C87.9,23.87,88,24.1,88.21,24.08Z"/><path class="cls-18" d="M77,44l2.32.12h.26c.25,0,.39-.09.39-.34s-.21-.23-.38-.24l-2.66-.16-2.66-.14c-.19,0-.45-.05-.47.23s.19.37.46.38l2.74.12Z"/><path class="cls-18" d="M197.94,51.26l3.34-.77L203.2,50c.22-.05.42-.12.36-.38s-.27-.23-.48-.18L198,50.68l-.08,0c-.18,0-.37.08-.34.31S197.8,51.28,197.94,51.26Z"/><path class="cls-18" d="M76.36,38c0,.15.14.23.24.33L80,41.49c.15.14.3.3.5.08s0-.37-.1-.51l-3.55-3.28c-.09-.08-.18-.13-.3-.06A.45.45,0,0,0,76.36,38Z"/><path class="cls-18" d="M72.56,83.45l-4,.88-.42.11c-.24,0-.36.18-.3.43s.25.18.42.14l3.63-.79.59-.11A1.34,1.34,0,0,0,72.56,83.45Z"/><path class="cls-18" d="M203.86,84a.9.9,0,0,0,.59.32l3.08.83a2.16,2.16,0,0,0,.51.06.25.25,0,0,0,.28-.26.24.24,0,0,0-.19-.25l-.58-.18-2.74-.73a2,2,0,0,0-.93-.12Z"/><path class="cls-18" d="M82.05,23.38a.52.52,0,0,0,.24.37l2.32,1.91a.32.32,0,0,0,.51,0c.17-.19,0-.3-.1-.41l-2.47-2c-.13-.11-.25-.14-.38,0S82.09,23.33,82.05,23.38Z"/><path class="cls-18" d="M214.4,69.26a.86.86,0,0,1-.15,1.07,6.93,6.93,0,0,0-.73,1c-.1.14-.19.3,0,.43s.33.12.46-.06l.05-.07a20.78,20.78,0,0,1,1.83-2.15A4.42,4.42,0,0,0,214.4,69.26Z"/><path class="cls-18" d="M204.32,75.86c.07.12.17.12.28,0l2.62-1.47a1.67,1.67,0,0,0,.35-.24.25.25,0,0,0,0-.31.23.23,0,0,0-.28-.14,5.31,5.31,0,0,0-.55.23,21,21,0,0,1-2.05,1.07A2.14,2.14,0,0,0,204.32,75.86Z"/><path class="cls-18" d="M71.94,75.12l-2-1.23-.45-.26c-.2-.1-.4-.13-.52.11s.06.31.2.4c.34.22.68.44,1,.65l1.71,1Z"/><path class="cls-18" d="M61,68.83c-.07.07-.09.16,0,.22a7.67,7.67,0,0,1,1.48,1.78c.09.11.16.24.26.34a.34.34,0,0,0,.46.12c.19-.11.14-.31,0-.46-.21-.34-.44-.67-.68-1a2.53,2.53,0,0,1-.47-.81Z"/><path class="cls-18" d="M228.42,80.81a5.34,5.34,0,0,1-1.85,1.75c-.35.23-.34.24-.26.77a2.76,2.76,0,0,0,1.18-.66c.24-.16.44-.38.76-.36A4.47,4.47,0,0,0,228.42,80.81Z"/><path class="cls-18" d="M47.86,86.63c.49-.1,1,.19,1.44.16s.92.08.94-.32c0-.57-.57-.27-.88-.3a9.11,9.11,0,0,1-1.94-.3C47.53,86.14,47.58,86.46,47.86,86.63Z"/><path class="cls-18" d="M48.26,81.26c.44.21.75.61,1.17.85.18.1.39.37.6.12s0-.46-.21-.63-.68-.52-1-.78a1.44,1.44,0,0,1-.57-.72l-.09.61a.15.15,0,0,1,.08.21Z"/><path class="cls-18" d="M224.44,89.89a8.69,8.69,0,0,1-2.22.17c-.17,0-.35-.06-.5.06a.33.33,0,0,0-.12.21.23.23,0,0,0,.13.19,1.69,1.69,0,0,0,.5.08c.63,0,1.26,0,1.89,0A.93.93,0,0,0,224.44,89.89Z"/><path class="cls-18" d="M48.22,80.92a.15.15,0,0,0-.08-.21A.2.2,0,0,0,48.22,80.92Z"/><path class="cls-18" d="M214.06,83.17c-.11-.15-.12-.18-.14-.19-2.21-.67-3.06-2.4-3.47-4.45a4.87,4.87,0,0,1-.07-2,2.72,2.72,0,0,1,1.7-2.12c.13-.06.28-.09.41-.14s.32-.18.27-.38-.29-.21-.49-.17a3.31,3.31,0,0,0-2.5,3.25,7.26,7.26,0,0,0,2.2,5.71,1.11,1.11,0,0,1,.2.22c-.15.29-.46.31-.7.43a4.06,4.06,0,0,0-2.25,5.31c.06.19.07.45.36.36s.2-.31.16-.51-.15-.62-.17-.93a3.45,3.45,0,0,1,2.26-3.77A9,9,0,0,1,214.06,83.17Z"/><path class="cls-18" d="M193.31,78.74A.28.28,0,0,0,193,79c0,.28.18.31.39.33,1.15.07,2.3.12,3.45.21,2.84.21,5.69.41,8.52.76a33.17,33.17,0,0,1,3.83.61c.18,0,.35.07.42-.15s-.1-.32-.27-.37a15.79,15.79,0,0,0-2.89-.52c-3.26-.39-6.53-.66-9.8-.89C195.53,78.9,194.43,78.93,193.31,78.74Z"/><path class="cls-18" d="M64.13,82.43a6.47,6.47,0,0,0,2.4-4,5.51,5.51,0,0,0-.14-3.56,3.13,3.13,0,0,0-2.09-1.68c-.18-.06-.35-.07-.41.16a.32.32,0,0,0,.2.42l.16.05a2.86,2.86,0,0,1,1.9,3.23A7.19,7.19,0,0,1,65,80.51a4.2,4.2,0,0,1-2.57,1.92c-.1,0-.22,0-.28.17.09.25.33.17.51.21a6.36,6.36,0,0,1,2.37,1,3.34,3.34,0,0,1,1.34,3.8c-.06.25-.15.5-.21.75a.27.27,0,0,0,.2.33.29.29,0,0,0,.36-.14,1.85,1.85,0,0,0,.12-.33c.66-2.29.12-4.19-2.09-5.33A1.63,1.63,0,0,1,64.13,82.43Z"/><path class="cls-18" d="M82.94,79.12c-2.51.08-5,.18-7.52.25-2.19.07-4.37.2-6.55.44-.57.06-1.14.16-1.7.26-.23,0-.51.09-.46.4s.32.25.55.2A45.13,45.13,0,0,1,74.21,80c2.44-.12,4.89-.21,7.33-.3.52,0,1,0,1.56,0,.17,0,.37,0,.38-.23s-.11-.39-.37-.38h-.17Z"/></g></svg>