<svg xmlns="http://www.w3.org/2000/svg" viewBox="0 0 654.49 825.52"><defs><style>.cls-1{fill:#656766;}.cls-2{fill:#383838;}.cls-3{fill:#565353;}.cls-4{fill:#f2ebd1;}.cls-5{fill:#273339;}.cls-6{fill:#465b65;}.cls-7{fill:#956243;}.cls-8{fill:#68461c;}.cls-9{fill:#070707;}.cls-10{fill:#89762e;}.cls-11{fill:#ccb631;}.cls-12{fill:#684134;}.cls-13{fill:#82a4d6;}.cls-14{fill:#3666a0;}.cls-15,.cls-16{fill:#151210;}.cls-15{stroke:#161311;stroke-width:0.34px;}.cls-15,.cls-27{stroke-miterlimit:10;}.cls-17{fill:#161311;}.cls-18{fill:#231f20;}.cls-19{fill:#010101;}.cls-20{fill:#31160e;}.cls-21,.cls-28{fill:#fff;}.cls-22{fill:#653c29;}.cls-23{fill:#5e5f5f;}.cls-24{fill:#a43f31;}.cls-25{fill:#13110f;}.cls-26{fill:#878787;}.cls-27{fill:none;stroke:#010101;stroke-width:0.84px;}.cls-28{opacity:0.14;}.cls-29{fill:#7a2d1e;}</style></defs><g id="Layer_1" data-name="Layer 1"><path class="cls-1" d="M202.5,779.12s-3.4,4.93-2.18,7.3,12.31,2.91,15.22,3.22,40.6,4.62,44.35,4.67,23.89-1.11,26.73-5.64c0,0,4.82-7.65-1.94-10.23s-11.78-1.6-18.12-4.83a67.32,67.32,0,0,1-19.36-15.18s-6.16-5.58-9.09-4.7-6.2,6.71-8.58,8.12-13.78,3.23-16.75-2.57-3.79-3.58-6-2.73-5.89,11-5,15.76A29.1,29.1,0,0,1,202.5,779.12Z"/><path class="cls-2" d="M202.5,779.12s16.91,1.68,24.23,4.27,26.69,6.77,36.83,6.78,24.24-4.11,24.24-4.11.95,1.61-3.44,4.39-18.08,4.64-30,3.41-29.3-2.8-33-3-18.88-1.25-20.92-4.17C198.8,784.24,202.5,779.12,202.5,779.12Z"/><path class="cls-3" d="M227.42,783.2a28.06,28.06,0,0,0-3.42-9.61,15.3,15.3,0,0,0-5.31-5.64,34.54,34.54,0,0,0-9.89-3.32,26.84,26.84,0,0,0-5.28-.72c-.47,0-1.46.7-.54.71a23.25,23.25,0,0,1,3.89.49,39.39,39.39,0,0,1,10,3.09c4.49,2.2,6.94,7.23,8.32,11.8a27.25,27.25,0,0,1,.85,3.57c.06.41,1.44.1,1.37-.37Z"/><path class="cls-3" d="M228,763.12a27.19,27.19,0,0,0,7.8,2.67c3.47.72,7.35.64,10.18,3.07,1.22,1,2.2,2.33,3.32,3.47a18.87,18.87,0,0,0,4.56,3.49c3.88,2,7.81,1.71,12,.85l5.16-1.06c.53-.11,1.23-.67.27-.47l-3.16.65a32.36,32.36,0,0,1-7,1.11,13.33,13.33,0,0,1-6.26-1.69c-3-1.68-4.88-4.4-7.41-6.65-2.32-2.06-5.33-2.46-8.29-2.89a29.14,29.14,0,0,1-9.87-3c-.34-.19-1.43.37-1.29.45Z"/><path class="cls-3" d="M281.58,777.82c.09,1.92-2.3,2.06-3.65,2a41.4,41.4,0,0,0-8.25.59c-2.23.45-4.7,1.17-6.24,3a26,26,0,0,0-3.88,6c-.12.26,1.18.15,1.35-.23a20.43,20.43,0,0,1,1.11-2.06,18.29,18.29,0,0,1,3.13-4.31c2.12-1.92,5.59-2.15,8.3-2.3,2.44-.14,5.29.37,7.59-.66a2.8,2.8,0,0,0,1.91-2.45c0-.28-1.39-.05-1.37.37Z"/><path class="cls-4" d="M241.55,761.05l0,0c-.28-.32-.08-.91.45-1.33l3.81-3c.53-.42,1.19-.5,1.47-.18l0,0c.28.31.08.91-.45,1.33l-3.81,3C242.49,761.28,241.83,761.36,241.55,761.05Z"/><path class="cls-4" d="M246,763.33l-.11-.12c-.2-.22,0-.71.5-1.09l2.83-2.25c.47-.37,1-.5,1.24-.28l.1.12c.21.22,0,.71-.49,1.09L247.19,763C246.71,763.42,246.15,763.55,246,763.33Z"/><path class="cls-4" d="M249.59,765.5l-.19-.2c-.18-.2,0-.64.45-1l2-1.6c.43-.34.93-.46,1.11-.26l.18.2c.19.2,0,.64-.44,1l-2,1.6C250.27,765.58,249.77,765.7,249.59,765.5Z"/><path class="cls-4" d="M252.51,767.82l-.21-.24c-.21-.23,0-.7.39-1l2-1.6c.43-.34.95-.42,1.17-.19l.21.24c.21.23,0,.7-.4,1l-2,1.6C253.25,768,252.72,768.05,252.51,767.82Z"/><path class="cls-1" d="M135.38,783.81s-3.4,4.92-2.18,7.29,12.31,2.92,15.22,3.22,40.6,4.62,44.35,4.67,23.89-1.1,26.73-5.64c0,0,4.82-7.65-1.94-10.23s-11.78-1.6-18.12-4.83a67.09,67.09,0,0,1-19.36-15.17s-6.16-5.58-9.09-4.71-6.2,6.72-8.58,8.12-13.78,3.23-16.75-2.57-3.79-3.58-6-2.72-5.89,11-5,15.76A29.06,29.06,0,0,1,135.38,783.81Z"/><path class="cls-2" d="M135.38,783.81s16.91,1.67,24.23,4.26,26.69,6.78,36.83,6.79,24.24-4.12,24.24-4.12.95,1.61-3.44,4.39-18.08,4.65-30,3.41-29.3-2.8-33-3-18.88-1.26-20.92-4.18C131.68,788.92,135.38,783.81,135.38,783.81Z"/><path class="cls-3" d="M160.3,787.89a28,28,0,0,0-3.42-9.62,15.35,15.35,0,0,0-5.31-5.63,34.24,34.24,0,0,0-9.89-3.32,26.12,26.12,0,0,0-5.28-.73c-.47,0-1.46.71-.54.72a22.24,22.24,0,0,1,3.89.48,39.39,39.39,0,0,1,10,3.09c4.49,2.21,6.94,7.23,8.32,11.8a27.25,27.25,0,0,1,.85,3.57c.06.41,1.44.1,1.37-.36Z"/><path class="cls-3" d="M160.92,767.8a27.21,27.21,0,0,0,7.8,2.68c3.47.71,7.35.63,10.18,3.06,1.22,1.05,2.2,2.33,3.32,3.47a18.38,18.38,0,0,0,4.56,3.49c3.88,2,7.81,1.71,12,.85l5.16-1.06c.53-.11,1.23-.67.27-.47l-3.16.65a33,33,0,0,1-7,1.12,13.34,13.34,0,0,1-6.26-1.7c-3-1.68-4.88-4.4-7.41-6.65-2.32-2.06-5.33-2.46-8.29-2.89a28.92,28.92,0,0,1-9.87-3c-.34-.19-1.43.38-1.29.45Z"/><path class="cls-3" d="M214.46,782.5c.09,1.93-2.3,2.06-3.65,2a40.68,40.68,0,0,0-8.25.6c-2.23.44-4.7,1.16-6.24,3a26,26,0,0,0-3.88,6c-.12.27,1.18.15,1.35-.22a19.41,19.41,0,0,1,1.11-2.06,18.35,18.35,0,0,1,3.13-4.32c2.12-1.92,5.59-2.14,8.3-2.3,2.44-.14,5.29.37,7.59-.65a2.8,2.8,0,0,0,1.91-2.45c0-.29-1.39-.06-1.37.36Z"/><path class="cls-4" d="M174.43,765.73l0,0c-.28-.31-.08-.91.45-1.33l3.81-3c.53-.41,1.19-.49,1.47-.18l0,0c.28.32.08.91-.45,1.33l-3.81,3C175.37,766,174.71,766.05,174.43,765.73Z"/><path class="cls-4" d="M178.83,768l-.11-.12c-.2-.22,0-.71.5-1.09l2.83-2.24c.47-.38,1-.51,1.24-.29l.1.12c.21.22,0,.71-.49,1.09l-2.83,2.25C179.59,768.1,179,768.23,178.83,768Z"/><path class="cls-4" d="M182.47,770.18l-.18-.2c-.19-.19,0-.64.44-1l2-1.6c.43-.34.93-.45,1.11-.25l.19.19c.18.2,0,.64-.45,1l-2,1.61C183.15,770.27,182.65,770.38,182.47,770.18Z"/><path class="cls-4" d="M185.39,772.5l-.21-.24c-.21-.23,0-.7.39-1l2-1.6c.43-.34,1-.42,1.17-.18l.21.23c.21.23,0,.7-.4,1l-2,1.6C186.13,772.65,185.61,772.73,185.39,772.5Z"/><path class="cls-5" d="M256.7,437.68,131.14,447.94s-7.54,18-8.49,47.07c-.57,17.4,3.63,30.15,5.39,50.28,3.94,45.09,8.27,96.47,8.9,102,0,0,.43,115.84.43,116,0,1.1,6.4,3.49,7.52,3.76a45.63,45.63,0,0,0,13.79.88,106.78,106.78,0,0,0,13.54-2.12c.8-.17,9.06-1.15,9.11-1.64,0,0,2.85-26.94,3.39-48.94.58-19.18,4.6-66.87,5.61-82.68S199.15,511,199.15,511s2,121.21,2.3,126.42.66,125,.66,125c0-.59,17.42,1.87,19,1.79,5.44-.28,14.4-.85,20.39-3.12,1.33-.51,5.18-.75,6.54-1.19,1-.31.83-.34,1-1.41.11-.85-.95-9.22-.89-10.08.68-10.68,2.34-13.89,2.93-24.58q1.17-20.71,2.23-41.44c.62-12,2.72-22.87,3.23-34.84.18-4.11.73-7.74.83-11.85.77-31.57,6-124.2,5.87-147S256.7,437.68,256.7,437.68Z"/><path class="cls-6" d="M152.63,459.29a15.92,15.92,0,0,1-.59-5.18,16.45,16.45,0,0,1,.24-5.19,16,16,0,0,1,.59,5.18A16.16,16.16,0,0,1,152.63,459.29Z"/><path class="cls-6" d="M157.12,458.09a11.89,11.89,0,0,1,0-4.45,12.59,12.59,0,0,1,.87-4.36,11.89,11.89,0,0,1,0,4.45A12.14,12.14,0,0,1,157.12,458.09Z"/><path class="cls-6" d="M231.24,458.09a8.68,8.68,0,0,1-.41-3.78,8.77,8.77,0,0,1,.41-3.8,9.09,9.09,0,0,1,.42,3.8A9,9,0,0,1,231.24,458.09Z"/><path class="cls-6" d="M236,460.09a13.21,13.21,0,0,1,.87-9.58,33.57,33.57,0,0,1-.52,4.79A33.46,33.46,0,0,1,236,460.09Z"/><path class="cls-6" d="M193.16,452.17a4.49,4.49,0,0,0-2.43,1.25,2.93,2.93,0,0,0-.79,2.5,3.28,3.28,0,0,0,4.09,1.84,3.17,3.17,0,0,0,1.4-.87,2.86,2.86,0,0,0,.26-2.6,4.18,4.18,0,0,0-1.76-2,2.33,2.33,0,0,1,.81.2,3.41,3.41,0,0,1,1.35,4.74,4.06,4.06,0,0,1-5.38.85,3.58,3.58,0,0,1-1.52-2.06,3.39,3.39,0,0,1,1.11-3,3.58,3.58,0,0,1,2-1C192.87,452,193.16,452.14,193.16,452.17Z"/><polygon class="cls-7" points="524.35 753.98 521.78 739.78 550.9 739.46 549.46 756.66 524.35 753.98"/><path class="cls-7" d="M472.32,742.77S433,761.44,417.87,773c-17.77,13.58,2.29,8.47,2.29,8.47s13.16,2.15,20.6,2.61S494,761.67,494,761.67l-4.1-17.84Z"/><path class="cls-8" d="M393.53,783.67s-2.53-5.85,1.53-7.43,22.29-4.86,24.51-4.51c-.3,4.69,1.46,4.39,6.22,5.65s10.94,3.3,23,.89c9-1.8,22.42-8.47,30.47-13.11,2.69-1.56,9.24-7.55,14.77-8.43,2.7,3.8,4.77,19.7.5,22.46s-29.95,5-29.95,5l-22.63,5.53-21.47,1.34-9.06,0-8.5-2.82Z"/><path class="cls-9" d="M495.58,778.13c-2.78,1-11.72,2.55-19.41,2.83-20.65.77-27.5,3.38-34.44,5.52a91.71,91.71,0,0,1-12.17,3.08c-24,4.29-36-7.35-36.53-7.68a2.26,2.26,0,0,0-.61,1.12,52.2,52.2,0,0,0,4.74,3.73c4.46,3.08,14.75,8.81,33.35,5.85,5.27-.84,8.44-1.26,11.91-2.33A91.34,91.34,0,0,1,464.55,786l.06,3.3s21.95.38,31.7-3.82C496.86,780.4,495.58,778.13,495.58,778.13Z"/><path class="cls-9" d="M496.44,782.52c-13.05,3.44-27.34,3.79-31.89,3.89l.06,2.9s21.95.38,31.7-3.82A22.92,22.92,0,0,0,496.44,782.52Z"/><path class="cls-10" d="M432.36,742.06,404.24,469.42l9.07-81.84,166.06-1.84,18,78.44-31.21,280s-53.22,4.08-73,4.3S432.36,742.06,432.36,742.06Z"/><path class="cls-7" d="M525.12,751s-33.9,17.53-49,29.08c-17.77,13.59,2.3,8.48,2.3,8.48s13.15,2.15,20.6,2.61,53.25-22.41,53.25-22.41l-4.1-17.84Z"/><path class="cls-8" d="M451.76,790.78s-2.52-5.85,1.53-7.44,22.29-4.85,24.52-4.5c-.3,4.69,1.46,4.39,6.22,5.65s10.93,3.29,23,.89c9-1.8,22.42-8.47,30.47-13.12,2.69-1.55,9.23-7.54,14.77-8.42,2.69,3.8,4.77,19.69.5,22.46s-30,5-30,5l-22.62,5.54-21.47,1.34-9.06,0-8.5-2.83Z"/><path class="cls-9" d="M553.81,785.24c-2.77,1-11.71,2.55-19.4,2.83-20.65.77-27.51,3.38-34.44,5.51a90.44,90.44,0,0,1-12.17,3.09c-24,4.29-36-7.35-36.53-7.68a2.2,2.2,0,0,0-.62,1.12,57.1,57.1,0,0,0,4.75,3.73c4.46,3.08,14.75,8.81,33.35,5.84,5.27-.83,8.44-1.25,11.9-2.32a91,91,0,0,1,22.13-4.24l.07,3.3s21.94.38,31.7-3.82C555.1,787.5,553.81,785.24,553.81,785.24Z"/><path class="cls-9" d="M554.68,789.63c-13,3.44-27.35,3.78-31.89,3.89l.06,2.9s21.94.38,31.7-3.82A22.92,22.92,0,0,0,554.68,789.63Z"/><path class="cls-7" d="M518.41,141.4s.53,25,8.05,41.34C527.51,185,543,193,543,193l-24.15,23.78c-12.11,3.65-35.53,7.86-47.69,4.38l-11.74-23.59s12.36-3.58,12.78-6.5-3.24-24.61-3.24-24.61"/><path class="cls-11" d="M593.11,524.83l-96.64,1.31-3,.2-86.83,3.33s-10.18-62.79-6.86-94.23,9-69.2,9-69.2l2.55-14.9,0-50.16c-3.17-14.08-3.61-24.42-.15-30.22l31.95-65.3,26.05-12.47c-1.13,2.15-8.73,18,12.82,23.08,0,0,5.26-.07,5.28-.06C514.79,214.3,533,186.59,533,186.59l12.26,6.29,35.19,139.7s15,57.85,16.83,84c.78,11.14.59,32.46.12,53.25Z"/><path class="cls-7" d="M160.33,216.19s6.45,31.5,4.32,40.79c-.51,2.26-29,19.22-29,19.22l57.62,6.94,47.65-16S212.14,254.93,211,252.44,208,232,208,232"/><g id="freepik--Character--inject-2"><path class="cls-7" d="M133.05,335.92l-29.45-7c-1.57,3.52-7.2,41.41-7.2,41.41-8.23,9.23-21.54,15.57-26.51,17.28-3.74,1.27-16.55,4.7-16.55,4.7l4.14,20,10.78-.15c31.48,2.52,45.79-12.85,50.31-16.28s16-49.94,16-49.94Z"/><path class="cls-7" d="M81.81,411.68l-5.14,7.38s-9,5.89-11.53,6.3-5.26-3.73-5.26-3.73,1.36-2.49-.68-.43-5-2.52-5-2.52l-4.8,1.21a7.24,7.24,0,0,1-6.15-1.55c-2.61-2.43,1.26-6.41,2.11-7.47s-1-1.37-1-1.37a82.25,82.25,0,0,1-10.57,2.07c-3.47.21-5.5.71-5.66-2.37s6.51-4.37,8.66-5.16,9.27-6.37,9.63-9-2.14-3.36-8.3-5-12.18-3.41-11.49-6.68,10.18-1.93,13.64-.21,12.42.41,19.52,2.8,11.92,11.14,11.92,11.14Z"/><path class="cls-12" d="M51.32,413.29a9.39,9.39,0,0,0,1.61-2.47,3,3,0,0,0-.28-3.11,3,3,0,0,0-3-.72,5.85,5.85,0,0,0-2.43,1.5c-1.19,1.23-1.8,2.16-1.92,2.07a6.55,6.55,0,0,1,1.47-2.47,6.13,6.13,0,0,1,2.66-1.79,3.8,3.8,0,0,1,3.91.9,3.15,3.15,0,0,1,.78,2.07,4.51,4.51,0,0,1-.42,1.91,8.8,8.8,0,0,1-1.8,2.52c-1.24,1.25-1.82,2.05-1.92,2.05S50.27,414.64,51.32,413.29Z"/><path class="cls-12" d="M63.36,411.64A49,49,0,0,0,66,404.83a13.37,13.37,0,0,0,.74-4.11,2.42,2.42,0,0,0-.84-1.69,1.92,1.92,0,0,0-2-.1c-1.33.49-2,1.94-2.69,3.27l-1.87,4L56,412.71a13.67,13.67,0,0,0-1.84,4.51,5.44,5.44,0,0,0,.11,1.75s-.14-.11-.25-.41a3,3,0,0,1-.22-1.37,12.5,12.5,0,0,1,1.63-4.74l3.18-6.7,1.9-3.91a6.51,6.51,0,0,1,3.14-3.71,2.79,2.79,0,0,1,2.67.27,3.24,3.24,0,0,1,1.15,2.31,14.15,14.15,0,0,1-.81,4.41A43.34,43.34,0,0,1,63.83,412c-.95,1.86-1.82,3.33-2.43,4.35a7.33,7.33,0,0,1-1,1.51C60.26,417.73,61.5,415.46,63.36,411.64Z"/><path class="cls-12" d="M69.06,419.42c.31-1.06,1-2.55,1.73-4.4l2.66-6.5a8.28,8.28,0,0,0,.72-3.83,3.16,3.16,0,0,0-.74-1.76,1.52,1.52,0,0,0-1.58-.57c-1.13.38-1.82,1.95-2.59,3.1L67.13,409l-3.47,6.09-2.29,4.16a7.36,7.36,0,0,1-1,1.46,7.26,7.26,0,0,1,.66-1.67c.47-1,1.2-2.45,2.11-4.23s2-3.88,3.33-6.19c.61-1.16,1.33-2.36,2.09-3.6.36-.62.73-1.23,1.15-1.88a3.71,3.71,0,0,1,1.92-1.61,2.37,2.37,0,0,1,2.44.82,4,4,0,0,1,.93,2.22,8.68,8.68,0,0,1-.81,4.23c-1.07,2.45-2,4.61-2.85,6.43s-1.49,3.3-2,4.3a8.17,8.17,0,0,1-.83,1.54A6.89,6.89,0,0,1,69.06,419.42Z"/><path class="cls-12" d="M38.73,386.51c-.51,1.41-1.67,1.94-1.81,1.74s.59-.93,1-2.05.29-2.18.53-2.2S39.24,385.09,38.73,386.51Z"/><path class="cls-12" d="M101.11,371.17a13.56,13.56,0,0,1,6.06,4.12,22,22,0,0,1,3.65,6.28,9.52,9.52,0,0,1,.83,2.91,12.71,12.71,0,0,1-1.39-2.66,26.65,26.65,0,0,0-3.76-6,15,15,0,0,0-5.62-4.11c-1.69-.68-2.83-.75-2.84-.88A5.47,5.47,0,0,1,101.11,371.17Z"/><path class="cls-7" d="M253.93,336.27s-2.36,45.35,0,55.5,9.32,12.65,11.3,14.81,6.5,2.33,16.73,1.47,42.5-10.85,42.5-10.85l-.32-22.47s-20.52,3.89-24.18,3.66-18.23-6.86-18.23-6.86l-3.07-36.79Z"/><path class="cls-12" d="M265.28,386.5a24.06,24.06,0,0,1,11-12.84,9.56,9.56,0,0,1,3.31-1.29A29.56,29.56,0,0,0,264.5,390,9.28,9.28,0,0,1,265.28,386.5Z"/><path class="cls-7" d="M313.39,392.74l6,6.69s9.63,4.73,12.23,4.83,4.75-4.35,4.75-4.35-1.65-2.31.62-.51,4.69-3.12,4.69-3.12l4.92.6a7.2,7.2,0,0,0,5.91-2.3c2.27-2.73-2-6.2-3-7.15s.8-1.48.8-1.48a80.43,80.43,0,0,0,10.74.75c3.47-.22,5.57.06,5.33-3s-7-3.55-9.24-4.07-10-5.17-10.66-7.72,1.71-3.6,7.62-6,11.67-4.89,10.58-8-10.34-.66-13.56,1.47-12.28,1.94-19,5.18-10.45,12.53-10.45,12.53Z"/><path class="cls-12" d="M343.42,391.11a8.91,8.91,0,0,1-2.18-2.32,4.51,4.51,0,0,1-.65-1.85,3.16,3.16,0,0,1,.52-2.15,3.79,3.79,0,0,1,3.77-1.37,6,6,0,0,1,2.86,1.45,6.65,6.65,0,0,1,1.77,2.27c-.11.1-.83-.75-2.17-1.8a5.73,5.73,0,0,0-2.59-1.21,3.06,3.06,0,0,0-2.95,1.09,2.93,2.93,0,0,0,.12,3.12,9.55,9.55,0,0,0,1.89,2.26c1.3,1.2,1.9,2.24,1.77,2.25S344.8,392.13,343.42,391.11Z"/><path class="cls-12" d="M334.15,394.81c-.72-.9-1.77-2.28-2.95-4a42,42,0,0,1-3.65-6.42,13.54,13.54,0,0,1-1.36-4.28,3.25,3.25,0,0,1,.86-2.43,2.79,2.79,0,0,1,2.61-.6,6.46,6.46,0,0,1,3.58,3.29l2.53,3.57,4,6.26a12.67,12.67,0,0,1,2.2,4.5,3.11,3.11,0,0,1,0,1.39,1,1,0,0,1-.2.43,5.44,5.44,0,0,0-.11-1.75,13.86,13.86,0,0,0-2.38-4.24l-4.14-6.09-2.42-3.63c-.81-1.23-1.69-2.59-3.07-2.91a1.91,1.91,0,0,0-1.82.39,2.37,2.37,0,0,0-.62,1.78,13.41,13.41,0,0,0,1.24,4,50.28,50.28,0,0,0,3.47,6.42c2.21,3.52,3.72,5.71,3.61,5.72A7.44,7.44,0,0,1,334.15,394.81Z"/><path class="cls-12" d="M326.75,399c-.68-.89-1.45-2.32-2.5-4s-2.3-3.73-3.63-6a9,9,0,0,1-1.33-4.1,4.07,4.07,0,0,1,.66-2.32,2.42,2.42,0,0,1,2.32-1.12,3.69,3.69,0,0,1,2.1,1.37c.5.59.94,1.14,1.38,1.72.9,1.13,1.73,2.25,2.51,3.31,1.58,2.13,2.94,4.08,4.07,5.73s2,3,2.62,3.94a7.33,7.33,0,0,1,.86,1.58,7.63,7.63,0,0,1-1.14-1.33l-2.82-3.8-4.13-5.66L325.18,385c-.91-1-1.75-2.53-3-2.77a1.53,1.53,0,0,0-1.57.77,3.09,3.09,0,0,0-.53,1.84,8.35,8.35,0,0,0,1.18,3.72l3.45,6.11c1,1.75,1.74,3.16,2.26,4.16a6.88,6.88,0,0,1,.73,1.58A8.21,8.21,0,0,1,326.75,399Z"/><path class="cls-12" d="M353.84,362c.54,1.07,1.31,1.66,1.26,1.89s-1.33-.16-2-1.5-.25-2.59,0-2.51S353.3,361,353.84,362Z"/><path class="cls-12" d="M315.59,394.93a9.44,9.44,0,0,1-1.17-3.85,12.11,12.11,0,0,1,.64-4.92,21.59,21.59,0,0,1,4.67-7.44,13,13,0,0,1,2.62-2.51,18.35,18.35,0,0,1-2.16,2.88,25,25,0,0,0-4.33,7.33,12.14,12.14,0,0,0-.66,4.55,10,10,0,0,0,.91,3.64,16.08,16.08,0,0,0,2,2.88A5.37,5.37,0,0,1,315.59,394.93Z"/><path class="cls-13" d="M131.29,335.44l.69,63.45L121.2,470.83s38.44,10.47,75.51,8.94c34-1.41,66.87-14.81,67.79-15L259.69,420,254,336.22l28.12-1.74s-8.68-46.88-12.61-55.2-23.65-14-23.65-14l-31.18-11.31s-1,15.67-20.43,17.17c-19.84,1.52-30.29-17.17-30.29-17.17-14.93,5.84-48,15.52-48,15.52-6.85,3.15-19.4,57.72-19.4,57.72Z"/></g><path class="cls-14" d="M254,336.22a41.3,41.3,0,0,1,.31-8.68c.53-3.32,7.92-36.26,7.92-36.26s-4.41,29.69-5.11,33-.54,11.86-.54,11.86Z"/><path class="cls-14" d="M131.29,335.44c-.48-5.73-7.1-41.63-7.1-41.63L129,334.9Z"/><path class="cls-12" d="M65,389.45s3.5,4.49,3.5,6.22a12.11,12.11,0,0,0-2.28-6.49Z"/><path class="cls-15" d="M223.43,161.16h0c.46-5.28.42-8.48-1.56-11.75-1.39-2.32-6.14-4.16-6.14-4.16s-2.21-7.26-5.4-5.66c0,0-5-9.34-14.35-5.1,0,0-3.12-.24-4.46,1.89,0,0-6.08-7.73-13.49-.37,0,0-3.62-1.52-4.27,1.24,0,0-6.58-4.38-11.41.91,0,0-14.68-.35-16.63,9.14,0,0-7.48-2.3-9.91,4.84,0,0-3.52.9-2.68,5.84,0,0-5,2.49-5,5.81,0,0-2.65,3-1.55,8.09.32,1.47.74,1,1.57,2.91-1.92,6.4,2.68,6.34,2.68,6.34-3.62,6.25,3.3,12.07,3.3,12.07s-1.53,4.64.18,7.14c2.34,3.41,10.19,6.26,10.19,6.26s0-10.28-1.5-16.54,1.78-18.19,3.08-20.87,14.31-.49,33.11-3.68,22-7.2,24.35-7c4.86.46,11.59,16.25,12.31,21.25s3.85,14.13,3.85,14.13,9.26-6,5.15-13.86c0,0,2.25-6.59.35-10a3.8,3.8,0,0,0-1.5-2.09S226.49,163.66,223.43,161.16Z"/><path class="cls-7" d="M171.49,235c8.9,7.39,21.14,11.42,32.11,12,10.77.57,13.76-3.43,15-5.19,6.71-9.66,10.63-19,12.13-29.4a24.7,24.7,0,0,0-.56-8.68c-.94-4.42-3.07-12.85-3.64-17.12-1.46-10.89-4.14-20.55-11.48-28.78-15.31-17.15-44.94-12.32-55.17-5.43-12,8.05-15.91,21.36-14.72,34.71a36.38,36.38,0,0,0,3.07,11.9,38.57,38.57,0,0,1,5.74,5.83"/><path class="cls-16" d="M215.3,159.67s1,.65,8.61,13c-2-4-3.7-10.21-8.15-15.54-15.51-18.64-54.19-10-64.36-2.7-11.89,8.55-14.67,22.51-13.34,36.9.55,5.85.86,9.58,3.3,14.13.09,0,1.27,1,1.27,1s12,.5,16.91,7l-.76-6.18a128.39,128.39,0,0,0,2-21.76s-1-7.29-1.48-9.46c-1.33-6.69,4.93-6.19,9.28-5.75a55.52,55.52,0,0,0,11.07-.62c6.83-1.17,15.35-3.51,18.57-4C202.79,165.07,215.3,159.67,215.3,159.67Z"/><path class="cls-17" d="M214.85,159.83a8,8,0,0,1,1.46,1.9c2.51,3.6,4.81,7.36,7.11,11.1.13.19,1-.14,1-.26-1.41-2.84-2.44-5.85-3.83-8.7a31.8,31.8,0,0,0-5.75-8.43,30.78,30.78,0,0,0-13.07-7.55c-10-3-21-2.55-31.11-.56-8.29,1.63-17.08,4.17-23.28,10.21-9.92,9.67-10.83,23.78-9.5,36.78a30.86,30.86,0,0,0,2.33,9.89c.59,1.28,1.3,2.35,2.76,2.47,4.47.37,9.21,1.49,13,4a13.26,13.26,0,0,1,3.14,2.88c.13.16,1,0,1-.26l-.38-3.09a20.22,20.22,0,0,1-.38-3.09c.06-1.6.58-3.28.79-4.86.6-4.43.95-8.88,1.14-13.34a24.38,24.38,0,0,0-.05-4.68q-.36-2.46-.75-4.92c-.45-2.87-2.08-7.67,1.82-8.81a14.41,14.41,0,0,1,5.28-.12,38.76,38.76,0,0,0,5.28.1c8.7-.42,16.91-3.21,25.45-4.65a53.44,53.44,0,0,0,10.15-3.21c2.42-.93,4.82-1.9,7.2-2.93.58-.25-.33-.18-.54-.09-2.08.9-4.18,1.75-6.29,2.58a54.63,54.63,0,0,1-10,3.3c-8.87,1.56-17.45,4.45-26.52,4.68-3.24.09-6.62-.77-9.82,0a5.08,5.08,0,0,0-3,1.73c-1,1.33-.76,3-.48,4.55.53,2.95,1.14,6,1.4,9a49.57,49.57,0,0,1-.26,7c-.15,2.33-.34,4.65-.6,7-.2,1.83-.43,3.66-.72,5.47-.12.78-.36,1.59-.42,2.37a13.09,13.09,0,0,0,.27,2.49l.46,3.82,1-.26c-3-3.86-8-5.6-12.65-6.48-1.37-.26-2.86-.23-4.21-.54a3.41,3.41,0,0,1-1.21-.86c-1-1-1.51-3.06-1.91-4.4a50.14,50.14,0,0,1-1.51-10,65.41,65.41,0,0,1-.18-9.8,38.91,38.91,0,0,1,5.31-18.12,28.6,28.6,0,0,1,11.13-10.45,55.49,55.49,0,0,1,11.73-4.15c10-2.51,21-3.39,31.14-1.14a34.15,34.15,0,0,1,13.65,6.08c5.13,4,8,9.64,10.42,15.52.54,1.29,1.07,2.59,1.69,3.85l1-.26c-2.33-3.78-4.65-7.58-7.2-11.21a7.63,7.63,0,0,0-1.43-1.85C215.55,159.36,214.75,159.76,214.85,159.83Z"/><path class="cls-7" d="M163.34,225.82c-4.65,6.48-11.9-1.59-11.9-1.59-6.26-5.61-7.26-12.42-7.75-17.11s4.64-5.37,4.64-5.37c4.42-.17,3.88.44,11.61,11.95"/><path class="cls-18" d="M156,214.23a37.51,37.51,0,0,0-3.87-5.77A12,12,0,0,0,149.4,206a3.43,3.43,0,0,0-1.4-.57,1.54,1.54,0,0,0-.37,0c-.38.09-.49.37-.64.7a8.82,8.82,0,0,0,0,6.24c.06.18.78,0,.73-.19a9.49,9.49,0,0,1-.42-5,4.76,4.76,0,0,1,.65-1.7l-.52.22s-.07,0,0,0l.19,0a3.44,3.44,0,0,1,.94.41,13.59,13.59,0,0,1,3.63,3.62,42.75,42.75,0,0,1,3,4.65c.11.19.79-.08.73-.19Z"/><path class="cls-18" d="M155.94,216.38c-2.91.62,0,4.26.06,5.84,0,.08-.05.21,0,.28s0,.09,0,.09l.19-.05h0l-.25-.18a2.47,2.47,0,0,1-.37-.42,12.68,12.68,0,0,1-1.44-2.5,11.34,11.34,0,0,1-1.1-3.33c-.21-1.42-.36-3.51.91-4.5.39-.3-.2-.53-.48-.32-1.21,1-1.36,2.6-1.27,4a10.49,10.49,0,0,0,.85,3.53,19.07,19.07,0,0,0,1.53,2.94c.3.45.71,1.12,1.29,1.25a.78.78,0,0,0,.94-.69,3.46,3.46,0,0,0-.38-1.66c-.33-.82-1.82-3.5-.27-3.83.46-.09.33-.57-.13-.48Z"/><path class="cls-18" d="M189.26,196.55a3.33,3.33,0,0,0-3.41,1.31,3.25,3.25,0,0,0-.66,1.66,3.32,3.32,0,0,0,1.34,2.82,3.08,3.08,0,0,0,3.58-.07,3.39,3.39,0,0,0,.9-4.19,3.07,3.07,0,0,0-1.75-1.53"/><path class="cls-18" d="M194.89,200.64s-5.61-5.63-10.27-4.74c-6.55,1.26-7.36,5.37-8.4,7.62,0,0,3.36-5.47,8.44-6.32C189.28,196.43,194.89,200.64,194.89,200.64Z"/><path class="cls-18" d="M220.38,190.53a2.94,2.94,0,0,1,3.41,0,3.15,3.15,0,0,1,1.16,1.3,3.47,3.47,0,0,1-.15,3.1,2.73,2.73,0,0,1-3.12,1.24,3.49,3.49,0,0,1-2.27-3.59,3,3,0,0,1,1-2.05"/><path class="cls-18" d="M212.17,197.33s2.54-7.21,6.57-8c5.66-1.1,7.72,2.45,9.33,4.2,0,0-4.57-3.94-8.92-3C215.2,191.45,212.17,197.33,212.17,197.33Z"/><path class="cls-19" d="M210.46,214.59a4.76,4.76,0,0,1-4.35.5c-.3-.12-1.17.21-.75.38a6.75,6.75,0,0,0,5.9-.78c.14-.12.09-.23-.12-.26a1,1,0,0,0-.68.16"/><path class="cls-19" d="M204.77,215.21A7.58,7.58,0,0,0,202,215a.57.57,0,0,0-.38.2.13.13,0,0,0,0,.22,2.86,2.86,0,0,0,1.51.07.59.59,0,0,0,.42-.26c.06-.13-.11-.19-.23-.16a2.29,2.29,0,0,1-1.22-.07l-.34.42a6.89,6.89,0,0,1,2.48.18.59.59,0,0,0,.47-.14c.09-.08.17-.23,0-.28"/><path class="cls-19" d="M201.16,216a3.72,3.72,0,0,1-3.09-.78c-1-1.08-.63-3.26.56-4.28.14-.11,0-.21-.11-.22a.89.89,0,0,0-.55.23,4,4,0,0,0-1.12,3.84,3,3,0,0,0,2.84,1.68,6.23,6.23,0,0,0,1.22,0c.16,0,.44-.13.5-.27s-.1-.17-.25-.15"/><path class="cls-19" d="M212.32,213.69a.15.15,0,0,1,.1-.23,1.26,1.26,0,0,0,.78-.42l.35.3a3.66,3.66,0,0,0-1.57.9.3.3,0,0,1-.35,0c-.08-.05-.18-.17-.09-.26"/><path class="cls-19" d="M211.54,214a4.26,4.26,0,0,1,1.76-1,.34.34,0,0,1,.31.08.16.16,0,0,1,0,.22"/><path class="cls-19" d="M214.57,213.43a2.23,2.23,0,0,0,1.63-1.63,3.23,3.23,0,0,0-1.45-3.3.13.13,0,0,1,0-.24.4.4,0,0,1,.39.06,3.56,3.56,0,0,1,1.66,2.72,2.6,2.6,0,0,1-2,2.72.39.39,0,0,1-.38-.11c-.07-.12,0-.2.11-.22"/><path class="cls-16" d="M195.51,188.5l-.81,3.08c-.21.79-.42,1.57-.62,2.35-2.14-1.26-4-2.21-5.42-2.88a26.63,26.63,0,0,0-8.91-2.76,10,10,0,0,0-4.25.42c-.44.15-1.74,1-2.23.54-.2-.17.5-1.34.58-1.46,1.43-2.34,3.72-2.88,6.35-2.84a41.5,41.5,0,0,1,15.31,3.55"/><path class="cls-16" d="M225.27,179a8.5,8.5,0,0,1-1.34-1.53,12.37,12.37,0,0,0-1.65.28,40.25,40.25,0,0,0-13.91,6.76c.48.94,1,1.88,1.47,2.82.38.72.75,1.44,1.13,2.15,1.76-1.69,3.34-3,4.55-4a25.77,25.77,0,0,1,7.95-4.61,10.85,10.85,0,0,1,2.5-.53Z"/><path class="cls-12" d="M209.8,246.39s-4.37.45-7.47.42-8,1.48-24.42-6.44c0,0,7.75,13.11,25.54,11.55,0,0,4.44.4,7.13-1.08Z"/><path class="cls-12" d="M206.18,182.43s-4.11,4.2-.31,6.77l1.6.82S205,185.7,206.18,182.43Z"/><path class="cls-12" d="M197.75,183.86s5.26,2.61,2.53,6.29l-1.24,1.3S200,186.55,197.75,183.86Z"/><path class="cls-20" d="M208.92,222.1c-4.45.8-13.82,5.12-15.5,7.1,0,0,5.68,2.41,16,.56s11.44-5.47,11.44-5.47S214.6,221.09,208.92,222.1Z"/><path class="cls-21" d="M197.29,226.24s5.28-1.14,9.54-1.71,9.64-.91,9.64-.91.27-3.08-7.44-2S197.29,226.24,197.29,226.24Z"/><path class="cls-22" d="M208.77,229.92c-5,0-11.19-2-15.45-1.29,0,0,2.81,6.94,15,5.28s12.6-9,12.6-9C216.87,225.84,213.55,228.61,208.77,229.92Z"/><path class="cls-22" d="M214.11,219.17c-2.59.17-4.09,1.31-5.21,1.46s-2.87-.54-5.41,0c-2.38.49-11.8,7.42-10.56,8s8.56-4.57,16.29-5.63,11.05,2.64,12.09,1.77S216.54,219,214.11,219.17Z"/><path class="cls-11" d="M533.18,188.47s11.76,3.18,20.47,7.93,32.53,8.91,40,24.78,3.45,53.44-6.58,71.31-10.84,24.71-10.84,24.71l-44.89-54.1,1.82-74.63"/><path class="cls-11" d="M380.47,358.58s-15.7-6.95-15.85-20.88,6.55-32.16,11.07-41.3c3-6,30.3-53.28,48.32-76.66a44.66,44.66,0,0,1,17-13.42l4.45-2L409.24,318.5l36.27,9.64-15,40.34Z"/><path class="cls-10" d="M408,289.09c.46-4.8,2.15-9.48,3.6-14q2.4-7.57,5.47-14.93c4.21-10.16,9.18-20,14.37-29.66,2.5-4.66,5-9.28,7.6-13.91-4.16,8.79-7.87,17.79-12.25,26.47-4.49,8.9-8.77,17.57-12,27-3.83,11.12-6.33,16-4.48,25.63s8.46,21.26,8.46,21.26l-1,.72S407.13,298.43,408,289.09Z"/><path class="cls-7" d="M430.33,323.25l-6.6-20.53-1.23-14-15.08-9.79s-4,.5-2.73,3.62,7.4,8.63,7.4,8.63l3.69,9.94L409.85,291l-8.55-4.11-8.4.71s-1.51,3.77,2.43,3.87l4.21-.05,6.43,5.06,4.09,9.51-6.12-9.27-8.89-3.08-5.6,1.52s-1.52,2.41,1.27,2.78a27.12,27.12,0,0,0,4.78.26l5.12,3,4.62,9.5-8-6.46-10.3-1.12s-1.67,2.4,1,3.4a85.63,85.63,0,0,1,8,3.66l5.83,6.93Z"/><path class="cls-11" d="M578.35,218.82s14.94.84,15.73,39.9S549.71,363.87,542,370.39s-16.61,11-40.19,7.75c-29.57-4.05-50.18-7.76-50.18-7.76l3.72-35.71,52.63-3,41.83-88.44S563.72,217.28,578.35,218.82Z"/><path class="cls-7" d="M517.2,346.83a22.84,22.84,0,0,0-4.45.25,29.81,29.81,0,0,0,4.43.31c2.73.13,6.49.4,10.61,1,3.92.57,7.37,1.26,10.05,1.88a3,3,0,0,1,.28.6c.81,2.09-1.25,3.52-3.08,4.52s-26.28-.88-26.28-.88l7.2,2.84a67.47,67.47,0,0,1,10.26,2c2,1,1.8,3.11,0,4.37s-13.91-3-27.56-2.49c-9.07,0-18.73-3.7-26.61-8.21l7.63-24.13a116.36,116.36,0,0,1,11.4-5.4,86.87,86.87,0,0,1,17.13-5.66,106.29,106.29,0,0,0,13.82-4.64,6.32,6.32,0,0,1,1,6.37c-1.34,4.09-14.59,6.2-14.59,6.2l17.2,1s13.54,4,14.56,7.67-3.4,3.24-3.4,3.24l-11.09-3-12.65.64,13.21,2.48s10.29,4,11.08,4.44a6.72,6.72,0,0,1,3,4.46c.24,2.14-5,2-5,2"/><path class="cls-10" d="M511.48,316.59,544,241s9-21.88,23.63-20.86c0,0-8.81,1.48-17.35,12.48-4.68,6-18.82,43.29-18.82,43.29l-17.66,40Z"/><path class="cls-10" d="M575.73,321.64C571.18,331.87,547.87,363,547.87,363c-16.58,14.44-23.36,16.82-47,14.42-29.7-3-50.42-6-50.42-6l.8-11.68.22-3.79-2.72,17.36s56.24,7.09,62.81,6.87,20.66,3.95,40.3-19.79C563.18,346.69,575.73,321.64,575.73,321.64Z"/><path class="cls-10" d="M431.82,371.35l15-44.55-17.39-6.32.89,2.77,15.18,4.89-15,40.34-21.32-4.21Z"/><polygon class="cls-7" points="479.73 328.91 478.89 328.92 445.33 327.81 434.68 357.27 474.51 353.46 479.73 328.91"/><path class="cls-23" d="M535.28,75.05c-3.26-4.58-8.33-7.63-13.69-6.17.2-10.48-10-16.63-20.45-16.9-5.39.11-10.91,2.55-16,.78-3.17-1.1-5.58-3.57-8.29-5.64-11.37-8.38-29.16,1.44-38.76,11.81s-7.18,21.91-2.23,35.13c2.3,6.15,1.95,9.5,2.66,16.07.68,6.2,4.46,17.72,4.55,23.88s-9.52,12.64-3.3,13.11L507.43,139c10.07,2,16.48-1.1,21.6-10,3.34-6,2.22-6.31,2.64-13.17.78-9,9.88-15.76,9.32-24.75C540.81,85.4,538.27,79.85,535.28,75.05Z"/><path class="cls-24" d="M543.69,74.65s-23.44-11.53-53.62-8.1-44.87,22-50.11,35.26.43,27.21.43,27.21-7.55,2.07-12.64-25.08c-7.43-39.59,33-63.58,42.74-63.48S530.15,30.33,543.69,74.65Z"/><path class="cls-12" d="M471.2,183.41s5-.88,8.5-1.89,9.42-.86,25.31-14.91c0,0-4.54,17.13-24.95,21,0,0-5.28,1.16-8.76.35Z"/><path class="cls-7" d="M452.23,79.52l-.2.37.21-.18Zm-9,3v.16q.21-.19.39-.39C443.65,82.11,443.27,82.53,443.27,82.53Zm74.09,65.18.82-3.28c4.59,5.48,11.33.52,11.23-7.68,2-4.22,4.14-18,.52-22l-.44-.59c-2.48-1.68-6.74-2.23-8.32,1-.49,1.4.1,3.08-.39,4.48-.48,1.59-2.14-2.24-3-.8,0,0-2.16-.81-2.31-4.46s5.88-30.92-1.09-35.45c0,0-10.63,4.17-13.93.64l-1.08-.28c-.62.06-1,.29-1.64.35,0-.19.17-.4.13-.78a6.86,6.86,0,0,1-2.69.46c.19-.21.59-.45.57-.64a10.56,10.56,0,0,1-2.5.25c.19-.21.57-.64.55-.83-1,.49-1.67.17-2.5.25a1.38,1.38,0,0,0,.34-.8,5.63,5.63,0,0,1-2.48.43c.19-.21.36-.61.55-.82-1,.48-1.67.16-2.5.24-.21,0,.38-.42.36-.61a7.82,7.82,0,0,1-2.07.4c0-.19.38-.43.36-.62a6.31,6.31,0,0,1-2.71.27l.55-.83a3,3,0,0,1-2.46.63c.19-.21.57-.63.55-.82a4.15,4.15,0,0,1-3.29.71c.2,0,.56-.64.54-.83-1,.87-1.81.76-2.86.87.19-.22.36-.62.74-1a4.28,4.28,0,0,1-3.9,1c.21,0,.36-.61.34-.8-.75.84.72-.27-.35-.36,0,0-2.32,1-2.34.81-.77.66,1.88-3.46.84-3.35.17-.41-5.94.94-5.56.52-1,.87-.8.45-2.06.39,0,0-4.11,2.71-3.92,2.5-.94,1.06-1.49.3-2.76.24.19-.22.83.72,1,.51-.76.85-.58-.13-1.62,0,0-.19-3.53-.91-3.55-1.1-1,.68-.63.73-1.88.85,0-.19-.58,2.19-.39,2-.76.85-.78.22-1.84.13l-1,.81c-.95,1.06.44.5-.83.44,0-.14,4.76.13,4.93-.14a7.69,7.69,0,0,1-2.57,1.45c0-.19.15-.6.14-.79A4.2,4.2,0,0,1,446.38,82c.2,0,.37-.42.36-.61-.95,1-2.14,1.75-3.45,1.3v0a6.51,6.51,0,0,1-2.78,1.66.86.86,0,0,1,.34-.81l-.83.09c-.89,1.63-3.62.87-3.85,2.82,0,0-4.38,13.88-3.47,20.93s3.39,19,3.9,22a62.12,62.12,0,0,1,.57,9.61c-.12,6.24,0,7.87,2.16,13.91a42.79,42.79,0,0,0,3.31,7.43,49.66,49.66,0,0,0,4.49,6.3c4.09,5,9.63,9.2,14.89,13.31,3.46,2.7,8.16,4.71,12.8,4.47,13-.67,24.91-10.69,32.33-19.81"/><path class="cls-19" d="M463.05,148.17a6,6,0,0,0,5.39-.87c.33-.25,1.49-.16,1,.19a8.43,8.43,0,0,1-7.35,1.07c-.21-.08-.19-.23.05-.34a1.38,1.38,0,0,1,.87-.05"/><path class="cls-19" d="M470.1,147a10.05,10.05,0,0,1,3.27-1.16.78.78,0,0,1,.52.11c.11.08.14.19,0,.28a3.64,3.64,0,0,1-1.79.6.72.72,0,0,1-.59-.16c-.12-.15.06-.27.21-.28a2.92,2.92,0,0,0,1.45-.49l.55.39a8.71,8.71,0,0,0-2.92,1,.69.69,0,0,1-.61,0c-.13-.06-.28-.22-.11-.33"/><path class="cls-19" d="M474.7,146.67a4.69,4.69,0,0,0,3.45-2c.85-1.63-.33-4-2.11-4.77-.19-.08-.11-.23.07-.29a1.16,1.16,0,0,1,.74.08,4.69,4.69,0,0,1,2.62,4c-.07,1.36-1.27,2.42-2.85,3a8,8,0,0,1-1.48.36c-.2,0-.58,0-.69-.15s.06-.24.25-.27"/><path class="cls-19" d="M460.51,147.74a.18.18,0,0,0-.19-.24,1.59,1.59,0,0,1-1.09-.24l-.31.47a4.8,4.8,0,0,1,2.19.55.41.41,0,0,0,.43-.11c.08-.09.15-.26,0-.34"/><path class="cls-19" d="M461.55,147.83a5.24,5.24,0,0,0-2.45-.59.42.42,0,0,0-.34.19.19.19,0,0,0,0,.28"/><path class="cls-19" d="M457.72,148.2a2.77,2.77,0,0,1-2.5-1.4,3.94,3.94,0,0,1,.62-4.42.16.16,0,0,0-.09-.28.55.55,0,0,0-.46.2,4.4,4.4,0,0,0-1.06,3.8,3.12,3.12,0,0,0,2.29,2.47,3.3,3.3,0,0,0,1,.1.48.48,0,0,0,.42-.25c.05-.17-.08-.23-.21-.22"/><path class="cls-25" d="M446.22,123a3.28,3.28,0,0,0-3.35.89,3.37,3.37,0,0,0-.6,1.47,3,3,0,0,0,1,2.68,2.8,2.8,0,0,0,3.26.24,3.12,3.12,0,0,0,1.17-3.75,2.78,2.78,0,0,0-1.47-1.53"/><path class="cls-25" d="M456.93,125.79s-6.07-3.87-9-3.87c-4.24,0-9.19,2.84-10.47,5.07,0,0,6.5-4.16,9.49-4.07S456.93,125.79,456.93,125.79Z"/><path class="cls-25" d="M481.32,119.92a4,4,0,0,1,3.79-.14,3,3,0,0,1,1,1.28,3.06,3.06,0,0,1-.44,2.82,2.83,2.83,0,0,1-3.16.88,3.11,3.11,0,0,1-1.88-3.45c.05-.23-.23-.65.66-1.22"/><path class="cls-25" d="M474.32,123.74s6-4.67,9.07-5.07c4.55-.59,10.26,1.54,12,3.58,0,0-7.57-3.23-10.77-2.73S474.32,123.74,474.32,123.74Z"/><path class="cls-26" d="M456.11,112.82l-1.23,2.25-.95,1.72c-1.66-1.53-3.13-2.73-4.26-3.61-2.39-1.87-3.61-2.81-5.28-3.38a16.65,16.65,0,0,0-4.09-.79,10.38,10.38,0,0,0-2.36,0c-1.8.23-2.9,1-3.06.79s.67-.94.76-1a10.06,10.06,0,0,1,4.82-2.33,11.75,11.75,0,0,1,4.42.3c1.72.43,6.05,2.42,11.23,6.09"/><path class="cls-26" d="M469.75,110.52c.46.72.92,1.45,1.39,2.17.35.55.7,1.1,1.06,1.65,1.71-1.74,3.24-3.13,4.41-4.15,2.48-2.16,3.76-3.25,5.51-4a18.53,18.53,0,0,1,4.32-1.25,11.84,11.84,0,0,1,2.51-.28c1.92,0,3.11.71,3.28.48s-.75-.89-.84-1a10.14,10.14,0,0,0-5.2-1.85,13.3,13.3,0,0,0-4.7.78c-1.81.62-6.34,3.12-11.74,7.42"/><path class="cls-27" d="M520.12,130.36c4.24-11.06,7.52-11.25,7.52-11.25s2.31,2.44,1.39,7.54"/><path class="cls-27" d="M521.85,131.29c2.94-.4.87,5.19,1.73,6.46s1.82-2.22,2-6.38c0,0-.2-5.62-3-6.54"/><path class="cls-12" d="M478.22,97.7s-7.07,3.85-14.38,3.91-16.33-.81-16.33-.81"/><path class="cls-26" d="M440,77.91c.08-.14,0,0,0,0,1.76-2.59,2.85-5.34,4.73-7.85s3.64-4.69,5.61-7c.11-.14,2.5-.25,2.62-.39l.12-.15.19-.21.45-.51A54.9,54.9,0,0,1,491,59.16a45.47,45.47,0,0,1,31.25,56.2c-.58,2.07.69,4.53-1.3,5.73s-2.24.63-4.18-.66a15,15,0,0,1-4.38-5.3c-5.41-9.82-7-25.58-4.85-36.58-1.29,2.09-10.58.13-12.6,1.52a17.62,17.62,0,0,1-24.49-4.56A26.23,26.23,0,0,1,467.75,79c-9.17,9.93-21.3,14.91-31.66,8.22C435.71,87,438.85,79.55,440,77.91Z"/><path class="cls-5" d="M522,119.13l-.28-2.39-27.46-2.2h0c-9-2.64-21,.95-27.62,6.24l-6.21.92.05-.11c-7.81-4.76-20-4.46-28.8.73l.35,1h0c0,.06.08.2.15.4l.31.84c1.92,5.38,4.11,11.05,5.78,12.44,1.12.94,4.53,1.12,7.32,1.08,1,0,2-.05,2.7-.08s8.19-.46,9.31-1.74,2.36-10.13,2.7-12.92l6.37-.9c1,2,3.56,11,6.86,12.6s19.21-.67,20.47-3.07a56.21,56.21,0,0,0,3.15-11l1-4Zm-65.23,16.3c-1.23,1.24-15.87,2.23-17.81.62-1.64-1.37-4.38-9-5.41-11.92l0-.12c7.94-4.16,18.89-4.45,25.67-.44-.67,4.82-1.74,11-2.43,11.84Zm35.28-4c-.78,1.51-14.64,4.09-18,2.48-2.37-1.12-4.33-7.68-5.76-11.41,6.5-5,19.84-8.17,27.9-5.3a82.93,82.93,0,0,1-4.1,14.23Z"/><path class="cls-28" d="M456.61,135.3c.7-.8,1.76-7,2.43-11.84-6.78-4-17.73-3.72-25.67.44l0,.12c1,2.88,3.77,10.55,5.41,11.92,1.94,1.61,16.58.62,17.81-.62Z"/><path class="cls-28" d="M492.06,131.45a82.93,82.93,0,0,0,4.1-14.23c-8.06-2.87-21.4.26-27.9,5.3,1.43,3.73,3.39,10.29,5.76,11.41,3.4,1.61,17.26-1,18-2.48Z"/><path class="cls-29" d="M534.24,119.73s22.56-16.83,13.64-34.46c-1.72-3.39-1.88-2.26-2-5.21-.72-15.43,4.73-11.82-18.13-29.57s-26.17-17.4-60.65-14.36c-17.78,1.56-27.43,9.13-32.14,20.48A54.61,54.61,0,0,0,431.28,74s36.24-10.86,58.05.53,45.07,49.11,40.61,61.36C528.69,139.33,534.24,119.73,534.24,119.73Z"/><path class="cls-24" d="M548.06,102.65S516.59,58.1,475.42,57.28c0,0,50.75-6.12,73.73,29.88l.4,4.26a23.42,23.42,0,0,1-.64,7.91Z"/><path class="cls-12" d="M466.92,107.49s-7.29,4.31,1.14,7.2A6.47,6.47,0,0,1,466.92,107.49Z"/><path class="cls-12" d="M457.08,108.33s8.38,1.25,1.64,7.1A6.45,6.45,0,0,0,457.08,108.33Z"/><path class="cls-20" d="M467.36,154.74c5.26-.58,17.21,1.16,19.75,2.82,0,0-5.57,4.59-17.77,5.94s-14.65-2.36-14.65-2.36S460.66,155.48,467.36,154.74Z"/><path class="cls-21" d="M481.78,155.52s-6.3.48-11.26,1.24-11.11,2.18-11.11,2.18-1.34-3.37,7.66-4.75S481.78,155.52,481.78,155.52Z"/><path class="cls-22" d="M469.28,162c5.57-1.63,11.07-4.5,17.75-5.13,0,0-.76,7.45-15,9.63s-17.22-4.69-17.22-4.69C461.36,160.42,463.49,162.12,469.28,162Z"/><path class="cls-22" d="M460.57,153.17c3-.67,5,.11,6.33-.09s3-1.56,6.07-1.81c2.83-.23,15.69,4.42,14.49,5.46s-11.12-2.3-20.14-.92-11.52,6.62-13,6S457.8,153.79,460.57,153.17Z"/></g></svg>