<svg xmlns="http://www.w3.org/2000/svg" xmlns:xlink="http://www.w3.org/1999/xlink" viewBox="0 0 1303.15 1057.31"><defs><style>.cls-1,.cls-19,.cls-26,.cls-33,.cls-40,.cls-43,.cls-44,.cls-54,.cls-59,.cls-60,.cls-61{fill:none;}.cls-2{clip-path:url(#clip-path);}.cls-3{fill:#f2ebd1;}.cls-4{fill:#d8d8d8;}.cls-27,.cls-5,.cls-53{fill:#fff;}.cls-6{fill:#9398cb;}.cls-7{fill:#a52722;}.cls-8{fill:#956243;}.cls-9{fill:#3e488d;}.cls-10{fill:#684134;}.cls-11{fill:#714533;}.cls-12{fill:#273339;}.cls-13{fill:#a56530;}.cls-14{fill:#8c542a;}.cls-15,.cls-20{fill:#a99231;}.cls-16{fill:#937f2f;}.cls-17{fill:#513835;}.cls-18{fill:#ccb631;}.cls-19{stroke:#132b3a;stroke-width:0.94px;}.cls-19,.cls-20,.cls-26,.cls-33,.cls-34,.cls-38,.cls-39,.cls-40,.cls-43,.cls-44,.cls-53,.cls-54,.cls-58,.cls-59,.cls-60,.cls-61{stroke-miterlimit:10;}.cls-20{stroke:#a99231;stroke-width:1.2px;}.cls-21{fill:#5e5f5f;}.cls-22{fill:#853324;}.cls-23{fill:#010101;}.cls-24{fill:#13110f;}.cls-25{fill:#878787;}.cls-26{stroke:#010101;stroke-width:1.36px;}.cls-27{opacity:0.14;}.cls-28{fill:#622515;}.cls-29{fill:#31160e;}.cls-30{fill:#653c29;}.cls-31{fill:#609d42;}.cls-32,.cls-34{fill:#6e4731;}.cls-33{stroke:#381e10;stroke-width:0.53px;stroke-dasharray:2.11 2.11;}.cls-34{stroke:#432f25;stroke-width:0.97px;}.cls-35{fill:#daa327;}.cls-36{fill:#231f20;}.cls-37,.cls-38{fill:#151210;}.cls-38{stroke:#161311;stroke-width:0.38px;}.cls-39,.cls-58{fill:#f9f6e7;stroke:#cdbc9b;}.cls-39,.cls-43{stroke-width:1.33px;}.cls-40,.cls-59{stroke:#d09d35;}.cls-40{stroke-width:1.16px;}.cls-41{fill:#9f2421;}.cls-42{fill:#d09d35;}.cls-43,.cls-44,.cls-53,.cls-60,.cls-61{stroke:#231f20;}.cls-44{stroke-width:0.67px;}.cls-45{fill:#191e1e;}.cls-46{fill:#b06b5b;}.cls-47{fill:#844e43;}.cls-48{fill:#aebf9d;}.cls-49{fill:#dfa826;}.cls-50{fill:#5a3426;}.cls-51{fill:#98712b;}.cls-52{fill:#dbc425;}.cls-53{stroke-width:1.23px;}.cls-54{stroke:#dfa826;stroke-width:1.85px;}.cls-55{fill:#f1eef7;}.cls-56{fill:#151312;}.cls-57{fill:#cc8d2a;}.cls-58,.cls-60{stroke-width:1.38px;}.cls-59{stroke-width:1.2px;}.cls-61{stroke-width:0.69px;}</style><clipPath id="clip-path"><rect class="cls-1" width="1303.15" height="1057.31"/></clipPath></defs><g id="Layer_5" data-name="Layer 5"><g class="cls-2"><polyline class="cls-3" points="-153.39 1318.93 -153.39 -22.14 1405.01 -22.14 1405.01 1318.93"/><path class="cls-4" d="M789.42,397.39A60.4,60.4,0,0,0,787.34,413c0,37.95,35.47,68.71,79.22,68.71a90.87,90.87,0,0,0,18.77-2c22.23,35.35,65.45,59.33,115.14,59.33,63.36,0,116.22-39,128.41-90.83,59.7-3.69,106.83-46.84,106.83-99.56,0-35.18-21-66.09-52.71-83.87a88.83,88.83,0,0,0,1.45-16c0-56.29-52.61-101.92-117.51-101.92a129.91,129.91,0,0,0-66.1,17.65c-14.53-14.85-36.19-24.28-60.4-24.28-39.94,0-73,25.64-78.41,59-3.17-.21-6.35-.35-9.58-.35-68,0-123.09,47.8-123.09,106.76C729.36,344.67,753.45,378.76,789.42,397.39Zm186.84-83.7-1.1.18c0-.43.08-.85.11-1.28C975.6,313,975.92,313.33,976.26,313.69Z"/><path class="cls-5" d="M799.32,380.54a60.4,60.4,0,0,0-2.08,15.61c0,37.94,35.47,68.71,79.22,68.71a90.87,90.87,0,0,0,18.77-2c22.23,35.34,66.31,57.74,116,57.74,63.36,0,113.86-39.94,126-91.77,59.7-3.69,108.33-44.31,108.33-97,0-35.18-21-66.09-52.7-83.87a89.83,89.83,0,0,0,1.44-16c0-56.29-52.61-101.92-117.51-101.92-24.51,0-47.26,3.94-66.09,15.08-14.54-14.85-36.2-21.71-60.41-21.71-39.94,0-73,25.64-78.41,59-3.16-.22-6.35-.36-9.57-.36-68,0-123.1,47.8-123.1,106.77C739.26,327.82,763.35,361.9,799.32,380.54Zm186.84-83.71-1.1.19c0-.43.08-.85.11-1.28C985.51,296.1,985.82,296.48,986.16,296.83Z"/><path class="cls-6" d="M1013.24,520.64a141.22,141.22,0,0,0,54-10.49c3.55-13.88,7.85-30.66,7.85-30.66L957.71,423.92c-10,27.53-13.23,58.43-14.39,80.26C963.68,514.72,987.72,520.64,1013.24,520.64Z"/><path class="cls-4" d="M1074.82,388.84c0,.63.11,1.25.17,1.87l-1.62-.27C1073.87,389.92,1074.33,389.37,1074.82,388.84Z"/><path class="cls-7" d="M1090.87,344.31s10.45,89.79-15,103.58-17.5-92.81-17.5-92.81S1069,330,1090.87,344.31Z"/><path class="cls-7" d="M949.92,336.06s27.55,86.09,5.18,104.54-35.05-87.71-35.05-87.71S925.7,326.21,949.92,336.06Z"/><path class="cls-4" d="M480.63,239.3c0-49.08-48.42-88.87-108.15-88.87-2.83,0-5.63.12-8.41.3-4.79-27.75-33.8-49.1-68.89-49.1-21.27,0-40.3,7.86-53.07,20.21A119,119,0,0,0,184,107.15c-57,0-103.24,38-103.24,84.84a70.52,70.52,0,0,0,1.27,13.29c-27.85,14.81-46.3,40.53-46.3,69.82,0,43.88,41.4,79.8,93.85,82.87,10.71,43.14,57.15,75.6,112.82,75.6,43.65,0,81.63-20,101.15-49.38a83.94,83.94,0,0,0,16.5,1.63c38.43,0,69.59-25.61,69.59-57.19a47.61,47.61,0,0,0-1.82-13C459.46,300.12,480.63,271.75,480.63,239.3Zm-216,5.75c0,.35.07.71.1,1.06l-1-.15C264,245.66,264.28,245.35,264.58,245.05Z"/><path class="cls-5" d="M497.15,225.27c0-49.08-48.42-88.86-108.15-88.86-2.84,0-5.63.11-8.41.29C375.8,109,346.79,87.61,311.7,87.61c-21.28,0-40.31,5.71-53.07,18.07-16.55-9.27-36.54-12.55-58.07-12.55-57,0-103.24,38-103.24,84.83a70.44,70.44,0,0,0,1.27,13.29c-27.86,14.81-46.31,40.54-46.31,69.82,0,43.88,42.73,77.7,95.18,80.77,10.71,43.14,55.07,76.39,110.74,76.39,43.65,0,82.39-18.65,101.91-48.07a83.91,83.91,0,0,0,16.49,1.63c38.44,0,69.6-25.6,69.6-57.19a47.61,47.61,0,0,0-1.82-13C476,286.1,497.15,257.72,497.15,225.27ZM281.1,231c0,.36.06.71.09,1.06l-1-.15C280.52,231.63,280.8,231.32,281.1,231Z"/><path class="cls-8" d="M268.22,182.9c-.84-4.08,0-25.63,0-25.63l-22.66,1.13-22.65-1.13s.83,16.62,0,20.7c0,0-12.5,8.32-26.73,10.43l50.24,40.86,48.2-36C283.3,190.7,268.22,182.9,268.22,182.9Z"/><path class="cls-9" d="M314.57,359.66s9.72-156.88,7.62-158.73c-8.72-7.66-39.08-14-39.08-14s-24.7,30.22-36.79,31.61c-3.39.4-35.56-36.11-35.56-36.11s-47.33,8.32-56.26,13.85c-15.4,9.53-29.93,83.83-29.93,83.83L168.46,300s-2.23,45-5.28,75.45c22,22.54,49.14,42.22,83.11,42.22,28,0,57.51.35,78-15.59C319.5,374.94,311,340.53,311,340.53l-3,20.14Z"/><g id="freepik--Character--inject-2"><path class="cls-8" d="M654.81,571.85l4.92-13.13s.25-14,1.8-18.57,12.37-20.3,13.12-20.84,3.92-24.25,8.38-24.84,8.27,1.56,8.75,7.59-5.62,20.16-2.46,21.27a20,20,0,0,0,7.63.55s-.76-6.88,2.2-10,8.08-.87,8.08-.87l.93,2.8,2.59-4.29s-.13-14.21,5.52-15.8a23.94,23.94,0,0,1,3.36-9.13,5.06,5.06,0,0,1,7.09-1.05,4.66,4.66,0,0,1,1,1h0l-1.36,32.7-18.83,38.88S696,567,693.12,569.49s-3.74,14.23-5.36,13.39C674.14,575.78,654.81,571.85,654.81,571.85Z"/><path class="cls-10" d="M689.93,524c.12-.36-1.8-1.28-4.38-1.3s-4.52.89-4.38,1.28,2,.2,4.38.22S689.83,524.37,689.93,524Z"/><path class="cls-10" d="M723.12,520.21a31.33,31.33,0,0,1-1.24-6.65c-.6-4.18-1.34-10-2.12-16.81l.67.72c-1.12-.16-2.51-.52-3.48-.54a4,4,0,0,0-2.85,1.25,9,9,0,0,0-2.22,5.18,31.58,31.58,0,0,0-.33,5.67c.21,3.68.63,7.08.92,9.83a60.4,60.4,0,0,1,.72,9.12c-.22.06-1-3.34-1.91-9-.45-2.8-1-6.11-1.26-9.89a31,31,0,0,1,.23-6,10.4,10.4,0,0,1,2.68-6.14,5.68,5.68,0,0,1,4-1.71,30.77,30.77,0,0,1,3.81.59l.61.09,0,.62c.69,6.79,1.23,12.68,1.54,16.89A31.19,31.19,0,0,1,723.12,520.21Z"/><path class="cls-10" d="M694,556.36a9.65,9.65,0,0,1-.24-1.31,18.2,18.2,0,0,1,.2-3.69,46.21,46.21,0,0,1,4.18-12.82l-.08.32c.26-6.27-3.93-14-.93-22.9a7,7,0,0,1,4.66-4,10.17,10.17,0,0,1,5.73.29l.45.14.13.46c1.42,8.66,2.59,16.14,3.34,21.48a13.9,13.9,0,0,1-.16,6.38c-.35,1.45-.7,2.17-.82,2.06a10.73,10.73,0,0,1,.26-2.26,15,15,0,0,0-.32-6.15c-1-5.27-2.42-12.71-3.93-21.31l.53.63a8.85,8.85,0,0,0-4.76-.2,5.33,5.33,0,0,0-3.57,3.07,12.85,12.85,0,0,0-.93,5.72,53.5,53.5,0,0,0,.43,5.79c.24,1.91.65,3.61,1,5.47a30.71,30.71,0,0,1,.36,5.24l0,.15-.07.14a51.94,51.94,0,0,0-4.64,12.26C694,554.52,694.21,556.35,694,556.36Z"/></g><path class="cls-10" d="M659.73,558.72s4.93,5.94,15.41,5.21C675.14,563.93,662.57,568.56,659.73,558.72Z"/><g id="freepik--character-2--inject-2"><path class="cls-8" d="M684.49,1002.59q-13.31-6.95-27-13.13c-11,59.77-24.94,176.8-24.94,176.8l42.25-5.7s13.64-68.44,45.94-132C703,1017.32,703.19,1012.34,684.49,1002.59Z"/><path class="cls-11" d="M714.79,873.07c-9.6,8.92-16.41,17.15-16.8,16.83a23.94,23.94,0,0,1,4-5.73,129,129,0,0,1,24.67-23,25,25,0,0,1,6-3.65C733,857.9,724.39,864.15,714.79,873.07Z"/><path class="cls-12" d="M455.4,764.2l6,.23c5.18.26,12.7.69,22,1.3,18.55,1.18,44.1,3.29,72.42,4.89s54,1.59,72.54,1.33l22-.49h6a14.86,14.86,0,0,1,2.11,0,8.12,8.12,0,0,1-2.08.26l-6,.43c-5.17.32-12.69.65-22,1-18.58.62-44.36.75-72.67-.81s-53.9-3.91-72.42-5.37l-21.93-1.86-6-.55a11,11,0,0,1-2.05-.29A9.73,9.73,0,0,1,455.4,764.2Z"/></g><g id="freepik--character-2--inject-2-2" data-name="freepik--character-2--inject-2"><path class="cls-8" d="M737.59,946.77v8.53l.54-3.09q-.06-3.42-.21-6.83Z"/><path class="cls-8" d="M730.28,998.41l3.08-5.92c0-.86,0-1.71,0-2.57"/><path class="cls-8" d="M733.92,963.33c0,.13,0,.27-.08.4"/><path class="cls-8" d="M721.43,1002.88a151.64,151.64,0,0,1,.45-16,227.73,227.73,0,0,1,3.6-25.5c1.77-15.58,3.43-31.16,3.69-46.83v-8.47a1.83,1.83,0,0,1,3.66,0c0,2.74,0,5.49,0,8.24v16.32a1.91,1.91,0,0,1,3.23,1.24c.07.82.13,1.64.2,2.46.17-1,.33-2,.5-3-2.09-17.81-3.42-35.71-4.23-53.62-1-22.31-1.28-44.66-1.33-67-51.69-11.42-138.75-14.13-138.75-14.13S510.5,900.48,532.34,906s137.77-9.47,137.77-9.47-32.45,40.42-43.39,72.12-31.65,206.15-31.65,206.15l45.63-8s41.6-87.64,81-162.83C703.2,1003.91,721.44,1003.31,721.43,1002.88Z"/><path class="cls-11" d="M691.1,881.56c-9.6,8.92-16.4,17.15-16.79,16.83a23.94,23.94,0,0,1,4-5.73,129,129,0,0,1,24.67-23,25.1,25.1,0,0,1,6-3.65C709.3,866.39,700.71,872.64,691.1,881.56Z"/><path class="cls-12" d="M431.71,772.69l6,.23c5.18.26,12.69.69,22,1.3,18.55,1.18,44.1,3.29,72.41,4.89s54,1.59,72.55,1.33l22-.49h6a14.86,14.86,0,0,1,2.11,0,7.7,7.7,0,0,1-2.08.26l-6,.43c-5.17.32-12.69.65-22,1-18.58.62-44.36.75-72.67-.81s-53.9-3.91-72.42-5.37l-21.93-1.86-6-.55a10.89,10.89,0,0,1-2.05-.29A9.65,9.65,0,0,1,431.71,772.69Z"/></g><polygon class="cls-11" points="643.51 1167.45 684.82 1023.97 644.36 1168.2 643.51 1167.45"/><path class="cls-13" d="M419.19,890.17q68.31,0,136.63,0c19.59,0,23.22,9.07,23.2,27.66,0,17.09-3.92,27.12-23.74,27.16-4.47,0-9,.49-13.38-.09-13.11-1.73-15.75,3-14,12.94,16.77,96.77,33.14,186.93,49.87,283.71,1.14,6.6.11,9.2-9,9.31-22.62.28-23.08.72-26.22-17.41q-16-92.61-31.22-185.31c-1.36-8.4-4.85-10.94-15.05-10.86q-77.68.63-155.38,0c-9.94-.08-12.83,2.88-14.07,10.48-10.62,65.1-21.74,130.15-32.45,195.24-1,6.06-4,7.87-11.22,8-23.3.36-23.94.52-20.94-17.74,10.85-66.18,22.13-132.31,33.33-198.45,4.76-28.13,9.51-49.6,14.7-77.67,1.6-8.66-.27-13.57-12.44-11.92-2.61.36-5.36-.11-8,.08-34.94,2.41-32.09-22-30.06-44.59.78-8.76,10.05-10.82,20.13-10.77,46.43.22,92.87,5.65,139.31,5.65Zm-1.1,125c25.87,0,51.74-.2,77.6.11,7.92.1,11.45-1.32,10.1-8.63-4.16-22.59-8-29.5-11.55-52.16-1.09-6.87-4-9.77-13.37-9.65-41,.5-82.05.58-123.07,0-10.17-.15-13,3-14.13,10.3-3.44,21.93-7.11,28.12-11.18,50-1.41,7.57.65,10.49,10.69,10.28C368.14,1014.75,393.12,1015.12,418.09,1015.12Z"/><path class="cls-14" d="M295.67,1034.88l-5.19,30.62c10.85,2.09,21.63,4.54,32.4,7.1,1.35-8.25,2.73-16.49,4.07-24.73,1.24-7.6,4.13-10.57,14.07-10.49q77.69.64,155.38,0c10.2-.09,13.69,2.45,15.05,10.85q1.95,12,3.94,24a297.93,297.93,0,0,0,30.41-12.65C539.89,1026.14,534,992.47,528,957.94a18.85,18.85,0,0,1-.05-8c-7.08.47-14.17.82-21.27,1.09q-6.52.24-13,.38a19.86,19.86,0,0,1,.74,3.16c3.6,22.66,7.39,29.58,11.56,52.16,1.34,7.31-2.19,8.73-10.11,8.64-25.86-.31-51.73-.12-77.6-.12-25,0-49.95-.36-74.91.18-10,.22-12.1-2.7-10.69-10.27,4.08-21.86,7.74-28,11.19-50a13.81,13.81,0,0,1,2.54-6.8c-12.3-.37-24.6-.67-36.9-.81,1.67,2.11,1.73,5.44.95,9.68C305.18,985.29,300.43,1006.75,295.67,1034.88Z"/><path class="cls-14" d="M259.34,905.3S407.67,932,471.63,923.9s107.06-15,104.47-24.66-47.86-30.47-93.44-31.94S312.12,877,312.12,877s-41.94,6.9-46.34,12.88S259.34,905.3,259.34,905.3Z"/><path class="cls-15" d="M281.24,799.09s-17.52,81.94,28.24,95,240,16.28,240,16.28-.76,63.56,6.63,116.75c6.8,48.93,15.19,114,15.19,114s126.82,20.23,142.42-8.1c0,0,50.58-249.46,27.81-326.53-8.51-28.82-110.33-53.92-138.23-60.9s-79.86,0-79.86,0S375.51,757.92,281.24,799.09Z"/><path class="cls-16" d="M678.65,805.38s30.1,2.59,35.28,20.75-4.67,43.07-4.67,43.07S717,829.7,704.59,819A64.12,64.12,0,0,0,678.65,805.38Z"/><path class="cls-17" d="M700.46,756.05a.49.49,0,0,1-.17.06l0-.44Z"/><path class="cls-18" d="M697.35,576.26S671,576,653.83,568.45c0,0-24.46,55.9-54.64,100.73-.42-33.28,1.76-73.5-3-101.55a35.77,35.77,0,0,0-12.29-21.38l-58.26-48.94S498.39,554.42,488.5,591,574.7,741.5,607.75,747.6c34.49,6.37,27.29-3.05,44.92-15.92C657.85,723.15,691,659.94,697.35,576.26Z"/><path class="cls-19" d="M608.85,771c-2-1.3-4-2.63-6.19-4A189.09,189.09,0,0,0,578,783.15"/><path class="cls-8" d="M455.75,475.57s37.25,84.87,80.69,99.95c0,0,4,1.63-5-17.92,5-4.77,6.53-6.2,10.35-10.15,12.7-13.21,36.76-43.76,36.76-43.76l-28.88-51.6-7.4-28.63c-5.86,8.43-12.83,14.78-18.42,21.43C493.17,481.42,455.75,475.57,455.75,475.57Z"/><path class="cls-18" d="M541.34,710.8c-13.46,45.3-16.93,1.39-18.71,5.25-6.43,13.89-19,3.22-25.55,14.51l-.63,1.07c-12.94,22.18-35.59,30.4-34.3,35.46,2.6,10.14-68.31,5.34-110,21.07-48.38,18.27-63.77,28.31-75.07,40.68-5.06,5.54-7.43-8-8.33-21-2-27.33,29.76-140.79,29.76-140.79,38.88-183.87,197.05-202.5,197.05-202.5s-3.3,82.23,65.16,94.4c.06.07,14.38,111.95,5.71,157.79C565.18,723.39,542.65,706.38,541.34,710.8Z"/><path class="cls-15" d="M466.59,765.54c-7.63,3.94-28.06,11.83-37.41,6C371,707.85,395.83,546,395.83,546L483.77,731.9C470.55,754.64,471.3,763.1,466.59,765.54Z"/><path class="cls-18" d="M650.21,729S550,710.82,489.42,703.3c-2.55-70.22,7.79-282.22-90.08-186,0,0-28.2,201.88,37.38,253.54,0,0,175.82,20.9,207.37,15.42,0,0,1.84,1.87,3.8-1.61C654.15,773.52,650.21,729,650.21,729Z"/><path class="cls-20" d="M455.36,504.2s24.32,13.7,35.37,43.32l3.38,156.37,48.42,7.44,1.12-1.07-47.88-8.5s-1.95-147.54-3.51-155C489.66,534.43,473.19,515.18,455.36,504.2Z"/><polyline class="cls-20" points="599 670.33 594.12 705.59 599.14 655.49 599.1 668.36"/><polygon class="cls-20" points="541.24 711.13 650.43 730.98 650.21 729.01 542.87 710.13 541.24 711.13"/><path class="cls-18" d="M309.51,627.42s22-85.55,86.4-136.4a79.44,79.44,0,0,1,36.32-16l63.33-10.47-71.53,48Z"/><path class="cls-20" d="M574.84,610s8.27,35.58,5.74,51.61-16.44,26.16-17.93,32.05-.16,21.29-.16,21.29l-2.43-.44s-1-18,2.23-24.15,15.16-17.39,17.07-30.66c0,0,.55-12.57,0-17.75S574.84,610,574.84,610Z"/><path class="cls-21" d="M542.07,317.19c7.91-4.57,17.47-5.66,24.41.12,6.78-15.64,26-17.87,41.66-11.19,7.89,3.8,14.42,11.14,23.13,12,5.44.52,10.66-1.52,16.07-2.74,22.48-4.72,42.16,21.81,49.35,43.64s-4.18,37.25-20.43,53.45c-7.56,7.54-9.29,12.74-14.79,22-5.19,8.72-18.56,23.2-22.85,32.25s5.55,25.11-4,21.61l-94.54-57.77c-16.21-3.9-23.63-12.76-25.21-29.35-.86-11.18,1-10.82,5-21.26,4.92-13.8-4-30,2.94-42.89C526.9,328.76,534.41,322.27,542.07,317.19Z"/><path class="cls-22" d="M529.91,310.92s42.45-1.23,84.77,24.22,51.51,62.8,50.29,86-19,40-19,40,9.76,8.15,35.63-28.57c37.71-53.51-5.83-116.29-20.34-122.73S579.87,254.51,529.91,310.92Z"/><path class="cls-10" d="M563.66,520.7s-6.85-4.7-11.29-8.53S539,504.54,525,473c0,0-4.85,28.39,22.73,47.88,0,0,7,5.27,12.72,6.43Z"/><path class="cls-8" d="M661.72,380.15c.06.14.13.27.2.41a3.94,3.94,0,0,1,0-.68Zm10.94,9.62c.08.27.19.55.3.84l.13-.23S672.82,389.5,672.66,389.77Zm-149.47,78.9c4.82,18.5,15.71,41.37,34.44,51.11,6.71,3.5,15,3.7,22,2,10.56-2.53,21.57-5,31-9.63a80.6,80.6,0,0,0,10.89-6.28,69.48,69.48,0,0,0,9.91-8.75c7.25-7.48,8.55-9.81,12.59-19.11a101,101,0,0,1,7.34-13.83c2.81-4.15,14.53-20.13,20.63-30s9-33.3,9-33.3c1-3-3.57-3.76-3.78-6.77l-1.18-.69a1.36,1.36,0,0,1,0,1.43,10.67,10.67,0,0,1-3-4.33l0,0c-2.23-.22-3.53-2-4.21-4.26-.16.27-.18,1,.11,1.15a6.8,6.8,0,0,1-3.76-4.36c-.16.27-.17,1-.33,1.26a12.52,12.52,0,0,1-2.82-3.88c.07.51,7.3,3.34,7.2,3.53-1.92-.75-.25,1-.93-1.2l-.88-1.85c-1.63-.59-2.09.33-2.64-1.43.14.44.92-3.45.77-3.18-1.77-1-1.22-.86-2.22-2.53-.16.27-5.83-1-6-.77-1.47-.86-1.86.72-2.41-1.05.13.44,1.72-.51,1.85-.07-1.92-.76-3.24,0-3.93-2.21.14.44-4.09-6.35-4.09-6.35-1.92-.76-1.95,0-2.79-2,.28.88-7.85-5.25-7.87-4.53-1.47-.86-.33,7-1,5.53-.16.27-2.92-2.78-2.92-2.78-1.63-.59-.2,2.05-.75.28-.16.27-.33,1.25,0,1.42-2.24-.21-4-2-5.12-4.06.28.88.26,1.6.39,2-1.47-.86-2.8-1.27-3.64-3.21-.16.27,0,1.42.25,1.59a6.74,6.74,0,0,1-4.39-3.27c-.16.27.12,1.15.25,1.59a4.84,4.84,0,0,1-3.21-2.59l.25,1.59c-1.17-.69-2.37-.66-3.82-2.23-.16.27.27.89.12,1.16a12.58,12.58,0,0,1-2.79-2c-.16.27.41,1.33.12,1.16-1.18-.69-2.38-.66-3.53-2.06.13.44.12,1.15.25,1.6-1.17-.69-2.51-1.1-3.37-2.33a2.28,2.28,0,0,0,0,1.43c-1.18-.69-2.37-.66-3.53-2.06-.16.27.12,1.15.26,1.59a17.83,17.83,0,0,1-3.54-2.05c-.15.27.28.88.42,1.32a11,11,0,0,1-3.67-2.49c-.32.54-.18,1-.34,1.25-.88-.52-1.31-1.13-2.19-1.64l-1.79-.32c-7.26,3-20.17-10.34-20.17-10.34-13.36,2-22.84,46.38-25.54,51.68s-6.43,5-6.43,5c-.37-2.75-5.42,1.8-5.05-.87.22-2.41,2.22-4.49,2.44-6.9-.13-5.86-6.8-7.93-11.6-7.11l-1.06.57c-8,3.48-14.16,25.32-14.09,32.89-5.68,12.06.93,23.95,11.42,18.94l-1,5.4"/><path class="cls-23" d="M599.5,474.1a9.74,9.74,0,0,1-7.37-4.94c-.32-.58-2.1-1.23-1.66-.42,1.85,3.46,6.5,6.39,10.14,6.56.37,0,.44-.23.16-.55a2.11,2.11,0,0,0-1.27-.65"/><path class="cls-23" d="M589.88,467.58a15.38,15.38,0,0,0-4-3.92,1.23,1.23,0,0,0-.85-.2c-.21.05-.33.19-.21.4A6,6,0,0,0,587,466a1.12,1.12,0,0,0,1,.15c.28-.13.09-.43-.13-.55a4.85,4.85,0,0,1-1.81-1.7l-1.07.2a13.7,13.7,0,0,1,3.6,3.52,1.16,1.16,0,0,0,.92.4c.24,0,.56-.13.37-.4"/><path class="cls-23" d="M583.29,464c-1.88-1.16-3.64-3.29-3.75-5.26-.16-3,3.15-5.63,6.33-5.62.35,0,.32-.28.09-.48a1.75,1.75,0,0,0-1.14-.39,7.67,7.67,0,0,0-6.62,4.22c-.8,2.06.25,4.45,2.22,6.32a11.51,11.51,0,0,0,1.94,1.52c.29.18.86.39,1.13.25s.07-.4-.2-.56"/><path class="cls-23" d="M603.56,475.17A.29.29,0,0,1,604,475a2.66,2.66,0,0,0,1.76.38l.15.9a7.81,7.81,0,0,0-3.61-.67.63.63,0,0,1-.55-.45c-.07-.18-.06-.49.2-.51"/><path class="cls-23" d="M602,474.6a8.76,8.76,0,0,1,4,.77.73.73,0,0,1,.38.53.3.3,0,0,1-.23.38"/><path class="cls-23" d="M607.37,477.73a4.51,4.51,0,0,0,4.65-.37,6.44,6.44,0,0,0,2.06-7,.26.26,0,0,1,.33-.34.89.89,0,0,1,.54.59,7.22,7.22,0,0,1-1,6.36,5.05,5.05,0,0,1-5.05,2.09,5.37,5.37,0,0,1-1.54-.51.8.8,0,0,1-.45-.66c0-.29.27-.29.45-.19"/><path class="cls-24" d="M641.42,448.17a4.71,4.71,0,0,1,4.25,6.17,4.93,4.93,0,0,1-3.26,3.28,4.56,4.56,0,0,1-5-1.84,5.06,5.06,0,0,1,.81-6.33,4.54,4.54,0,0,1,3.2-1.28"/><path class="cls-24" d="M623.67,445.13s11.59-1.63,15.89.33c6.27,2.86,11.67,10.4,12.06,14.57,0,0-6.81-10.55-11.29-12.43C636.05,445.79,623.67,445.13,623.67,445.13Z"/><path class="cls-24" d="M591.58,420c-1.14-1.79-3.91-3.09-5.52-2.76a4.68,4.68,0,0,0-2.37,1.2,4.94,4.94,0,0,0-1.25,4.46,4.58,4.58,0,0,0,4.08,3.43,5.05,5.05,0,0,0,5.1-3.83c.09-.37.78-.8-.14-2.25"/><path class="cls-24" d="M599.35,430.35s-5.66-10.93-10-13.63c-6.33-3.93-16.22-4.64-20.09-2.77,0,0,13.37.34,17.76,3.24C591.21,420,599.35,430.35,599.35,430.35Z"/><path class="cls-25" d="M639.79,421.43l-2.9,3-2.2,2.3c3.18,1.83,5.77,3.53,7.69,4.85,4,2.8,6.11,4.24,7.8,6.55a26.77,26.77,0,0,1,3.22,5.95,17.42,17.42,0,0,1,1.19,3.65c.51,2.91-.15,5,.26,5.14s1.13-1.5,1.21-1.67a16.31,16.31,0,0,0,1.26-8.61,19.18,19.18,0,0,0-2.61-6.72c-1.51-2.46-6.7-8.2-14.92-14.45"/><path class="cls-25" d="M615.64,407.28c-.53,1.29-1.06,2.58-1.6,3.87l-1.23,2.93c-3.24-2.29-6.08-4.08-8.25-5.38-4.58-2.75-6.93-4.14-9.95-4.86a31.41,31.41,0,0,0-7.27-.77,19.29,19.29,0,0,0-4.1.26c-3.06.62-4.78,2-5.11,1.7s.94-1.63,1.07-1.77a16.51,16.51,0,0,1,7.8-4.44,21.52,21.52,0,0,1,7.74-.09c3.07.49,11,3.2,20.9,8.55"/><path class="cls-26" d="M527.14,409.22c1.2-19.23-3.52-21.73-3.52-21.73s-5.06,2.06-7.15,10.22"/><path class="cls-26" d="M524,409.42c-4.07-2.57-4.79,7.09-6.92,8.38s-1.19-4.5,1.31-10.81c0,0,4.08-8.16,8.88-7.62"/><path class="cls-10" d="M611.15,389.21s7.87,10.47,18.64,15.49,24.69,9.83,24.69,9.83"/><path class="cls-25" d="M681.11,385.78c0-.26,0,.11,0,0-.86-5-.62-9.82-1.7-14.8s-2.21-9.39-3.54-14.2c-.08-.28-3.53-2.06-3.61-2.35l-.09-.29c0-.16-.09-.31-.13-.46-.1-.35-.21-.7-.32-1-13.12-15.24-32.7-25.92-53.48-29.07a73.93,73.93,0,0,0-84.17,62c-.52,3.46-4.08,6.24-1.94,9.36s2.89,2.45,6.62,1.85a24.48,24.48,0,0,0,10.06-4.89c14.63-10.86,27.61-33.11,31.88-50.82.49,4,15.55,7.33,17.61,10.76a28.63,28.63,0,0,0,39.29,9.79,44,44,0,0,0,1.68,7c6.86,20.89,21.44,36.44,41.27,33.54C681.27,402.05,681.63,389,681.11,385.78Z"/><path class="cls-12" d="M568.7,404.32l-1.27,6.55c-1.35,4.87-2.91,15.17-2.74,18.31.24,4.4,22.27,18.46,28.2,18.38s15.77-11.68,18.66-14l8.81,5.64c-1.39,4.36-5.52,18.3-4.73,20.93S627,468.34,628.21,469c1,.51,2.39,1.23,3.94,1.94,4.11,1.94,9.27,4,11.56,3.35,3.41-.93,10.47-7.84,16.94-14.5l1-1c.23-.26.44-.41.5-.49h0l1.16-1.21c-9.56-13.63-27.33-22.29-42.09-20.51v.19l-8.57-5.55c-6.25-12.3-21.53-25.7-36.63-27.88h0L534,388l-2,3.35Zm48.71,55.14c-.49-1.65,2.13-11.57,4.4-19.15,12.73-1.36,28.73,6.47,37.66,18l-.11.17c-3.47,3.57-12.7,13.06-16.05,14-4,1.08-24.94-10.28-25.92-12.94Zm-49.5-29.69A132.87,132.87,0,0,1,571.45,406c13.86,1.21,31.47,14.84,37.69,26.68-4.64,4.55-12,12.93-16.23,13-6.12.09-24.87-13.07-25-15.85Z"/><path class="cls-27" d="M617.73,459.4c-.49-1.64,2.13-11.56,4.4-19.15,12.73-1.35,28.73,6.48,37.66,18l-.11.17c-3.47,3.57-12.7,13.06-16,14-4,1.08-24.94-10.28-25.92-12.94Z"/><path class="cls-27" d="M567.91,429.77A132.87,132.87,0,0,1,571.45,406c13.86,1.21,31.47,14.84,37.69,26.68-4.64,4.55-12,12.93-16.23,13-6.12.09-24.87-13.07-25-15.85Z"/><path class="cls-28" d="M513.45,384s-22-40.13,3.09-60.18c4.82-3.85,4.31-2.07,6.5-6.34,11.49-22.33,1-20.68,46.78-31.49s50.45-8,99.39,19.72c25.24,14.33,34.4,32,33.7,52-.31,9-2.61,18.4-6.33,28.17,0,0-46.25-40.52-86.2-38.41s-99.81,42.19-101.49,63.32C508.42,416.69,513.45,384,513.45,384Z"/><path class="cls-22" d="M504.54,349.38s76.62-44.64,138.05-18.06c0,0-70.92-43.32-129.21-5.6l-3.46,6a37.76,37.76,0,0,0-4.4,12.13Z"/><path class="cls-10" d="M621.27,411.32s7.86,11.29-6.56,9.87C614.71,421.19,621.41,418.72,621.27,411.32Z"/><path class="cls-10" d="M635.24,419.2S622,415.41,628,428.6C628,428.6,628.19,421.46,635.24,419.2Z"/><path class="cls-29" d="M588.7,480.89c-7.38-4.41-26.22-9.89-31.12-9.16,0,0,5.15,10.55,22.28,20.78s23.25,6.41,23.25,6.41S598.11,486.51,588.7,480.89Z"/><path class="cls-5" d="M566.85,472.31s9,5,15.82,9.44,15,10.74,15,10.74,4.25-4.09-8.13-12.21S566.85,472.31,566.85,472.31Z"/><path class="cls-30" d="M581,490.35c-7.13-6.17-13.33-14.13-22.79-19.57,0,0-3.89,11.53,15.72,24.39s28.63,4.68,28.63,4.68C593.75,493.35,589.45,494.42,581,490.35Z"/><path class="cls-30" d="M599.8,483.16c-3.93-3-7.51-3.23-9.3-4.41s-3.44-4.36-7.75-6.77c-4-2.26-26.19-4.06-25.12-1.71s18,4.11,30.41,12.24,12.57,17.57,15.15,17.61S603.48,486,599.8,483.16Z"/><rect class="cls-31" x="688.34" y="699.68" width="83.37" height="53.13" rx="3" transform="matrix(0.96, -0.29, 0.29, 0.96, -180.54, 245.38)"/><rect class="cls-32" x="682.64" y="706.13" width="96.87" height="61.73" rx="5.83" transform="translate(-128.31 154.69) rotate(-11.11)"/><path class="cls-33" d="M777.11,754.65l-80,15.72a2.66,2.66,0,0,1-3.11-2.09l-9.13-46.51a2.64,2.64,0,0,1,2.09-3.1L767,703a2.65,2.65,0,0,1,3.11,2.09l9.13,46.5a2.65,2.65,0,0,1-2.08,3.11Z"/><path class="cls-8" d="M742.15,751.6c2-2.49,3.06-3.72,2.05-7-.39-1.28-1.64-2.26-2.66-3.46L710.29,730c3.85-4.9,18.87-1.17,21.7-6.72s-4.13-5.11-5.59-5.52-25.92-1.11-25.92-1.11-20.8,6.59-25.24,9.3-15.76,12.14-15.76,12.14l-9.11,5.4s1.73,24.47-1.3,36.87c-.22.9,11.67-2.36,19.31.16s24.07,2.3,24.07,2.3,27.21-5.57,30.21-7.88,5.29-9.48,5.29-9.48a27.72,27.72,0,0,1,6.59-2.79c6.09-2.22,6.52-10.35,6.52-10.35H741C741.25,752.29,741.9,751.6,742.15,751.6Z"/><path class="cls-10" d="M714.24,731.42a88.64,88.64,0,0,1-12.2-2,48.8,48.8,0,0,1-12.11-2.75,52.16,52.16,0,0,1,12.39,1.22A35.07,35.07,0,0,1,714.24,731.42Z"/><path class="cls-10" d="M703.36,748.64c0-.5,8.28-.43,18.22,1.15,5,.75,9.48,1.55,12.73,2.09a24.86,24.86,0,0,1,5.27,1,15.42,15.42,0,0,1-5.42,0c-3.3-.24-7.82-.86-12.8-1.61C711.42,749.76,703.35,749,703.36,748.64Z"/><path class="cls-10" d="M699.49,762.45c.12-.43,6.3,1.09,14.09,1.88s14.16.61,14.26.91a54.73,54.73,0,0,1-28.35-2.79Z"/><rect class="cls-34" x="757.32" y="717.64" width="29.84" height="16.77" rx="4.15" transform="translate(-125.43 162.41) rotate(-11.11)"/><circle class="cls-35" cx="766.5" cy="727.15" r="4.64"/><path class="cls-4" d="M731.93,167.4a24.33,24.33,0,0,1,20.78,26.65c-1.62,13.4-14.53,22.85-28.12,20.57a23.89,23.89,0,0,1,7.34-47.22Z"/><path class="cls-5" d="M736.58,162.09a24.31,24.31,0,0,1,20.78,26.64c-1.62,13.4-14.53,22.85-28.12,20.58a23.89,23.89,0,0,1,7.34-47.22Z"/><path class="cls-4" d="M676.39,208.6a16.82,16.82,0,1,1-5.17,33.23,16.82,16.82,0,0,1,5.17-33.23Z"/><path class="cls-5" d="M680.5,204.85a16.82,16.82,0,1,1-5.17,33.23,16.82,16.82,0,0,1,5.17-33.23Z"/><path class="cls-4" d="M534.12,156.58a24.34,24.34,0,0,0-25.93,21.67c-1.24,13.44,9.4,25.4,23.16,26a23.9,23.9,0,0,0,2.77-47.71Z"/><path class="cls-5" d="M534.8,150.44a24.31,24.31,0,0,0-25.92,21.67c-1.24,13.44,9.39,25.4,23.16,26a23.89,23.89,0,0,0,2.76-47.7Z"/><path class="cls-4" d="M584.05,208.42A16.83,16.83,0,1,0,582.1,242a16.82,16.82,0,0,0,1.95-33.58Z"/><path class="cls-5" d="M584.78,201.87a16.82,16.82,0,1,0-1.95,33.57,16.81,16.81,0,0,0,1.95-33.57Z"/><path class="cls-4" d="M1062,309.05c0,.75.11,1.5.17,2.24l-1.68-.32C1061,310.34,1061.51,309.69,1062,309.05Z"/><path class="cls-8" d="M220.44,106.06s-3.56-6.9-6-6.88c-1.47,0-5,3.93-5,7.68.05,5,3.55,10.72,4.42,13.65s.73,7.13,4.63,7.1c1.54,0,3.45-3.24,3.45-3.24S221.25,110.61,220.44,106.06Z"/><path class="cls-36" d="M219.44,112.83a32.87,32.87,0,0,0-3.12-5.47,10.47,10.47,0,0,0-2.23-2.37,3.21,3.21,0,0,0-1.26-.61c-.68-.12-1,.3-1.3.84a8,8,0,0,0-.34,5.53c.09.35,1.18.06,1.09-.29a8.56,8.56,0,0,1-.06-4.38,4.17,4.17,0,0,1,.67-1.43l-.73.29s-.15,0,0,0h.08l.05,0a3,3,0,0,1,.76.4,12.1,12.1,0,0,1,3,3.4,38.14,38.14,0,0,1,2.37,4.35c.16.35,1.23,0,1.09-.29Z"/><path class="cls-36" d="M217.8,113.45a1.73,1.73,0,0,0-1.92,1.92,13.41,13.41,0,0,0,.19,1.79,5.11,5.11,0,0,1,.11,1.51s0,.13-.05.18a.44.44,0,0,1-.06.1c0,.08.52-.22.55-.13-.05-.16-.28-.38-.36-.55a11.56,11.56,0,0,1-.75-2.58c-.11-.52-.19-1-.26-1.57-.06-.35,0-.2,0-.11v-.19a11.15,11.15,0,0,1,.07-1.29c.12-1.14.39-2.92,1.59-3.45.17-.08.42-.29.27-.49s-.55-.13-.73,0a4.15,4.15,0,0,0-2.11,3.24,8.68,8.68,0,0,0-.13,2.83,18.88,18.88,0,0,0,.7,3.22c.17.5.39,1.28.88,1.57a1.07,1.07,0,0,0,1.41-.48,2.66,2.66,0,0,0,.07-1.48c-.06-.49-.68-3.32.16-3.29.23,0,.61-.07.72-.31s-.09-.38-.32-.39Z"/><path class="cls-8" d="M205.46,120.28s-3.56-6.9-6-6.89c-1.47,0-5,3.94-5,7.69.05,5,3.54,10.72,4.42,13.65s.72,7.13,4.62,7.1c1.55,0,3.45-3.24,3.45-3.24S206.26,124.83,205.46,120.28Z"/><path class="cls-36" d="M204.46,127.05a33.92,33.92,0,0,0-3.13-5.5,11.15,11.15,0,0,0-2.28-2.42,3.19,3.19,0,0,0-1.34-.63c-.63-.09-.92.37-1.16.85a8.17,8.17,0,0,0-.35,5.62c.12.48,1.22.19,1.1-.3a8.36,8.36,0,0,1-.06-4.3,4.93,4.93,0,0,1,.42-1c.05-.1.11-.2.17-.3s-.05.07,0,0l-.51.24h-.06c.11,0-.13,0,0,0l.12,0,.15.06c.15,0,0,0,.12,0l.46.28A11.91,11.91,0,0,1,201,123a37.8,37.8,0,0,1,2.36,4.33c.22.46,1.3.14,1.1-.29Z"/><path class="cls-36" d="M203.56,128a1.77,1.77,0,0,0-2.06,2,13.45,13.45,0,0,0,.2,1.9,5.88,5.88,0,0,1,.12,1.62,1.2,1.2,0,0,0-.06.24s0,.05,0,.09c0,.2.64,0,.62-.13s-.15-.15-.19-.2a2.26,2.26,0,0,1-.24-.43,13.31,13.31,0,0,1-.8-2.75,11,11,0,0,1-.24-3.38c.13-1.2.42-3.16,1.68-3.71.18-.08.46-.25.32-.47s-.62-.08-.78,0a4.34,4.34,0,0,0-2.25,3.42,9.44,9.44,0,0,0-.15,3,21.08,21.08,0,0,0,.75,3.42c.18.52.41,1.37.93,1.65a1.19,1.19,0,0,0,1.5-.51,2.64,2.64,0,0,0,.09-1.55c-.06-.51-.72-3.58.15-3.55.23,0,.66-.08.77-.31s-.1-.34-.31-.34Z"/><path class="cls-10" d="M221.25,160.55c.4.34,3.3,4.73,3.72,5.06,10.33,8.34,11.87,10.61,20.79,11,8.92-.41,12.75-1.81,22.34-12,3.23-3.43,2.52-4.58,3.23-5.22C255.31,159.38,237.3,160.42,221.25,160.55Z"/><path class="cls-8" d="M284.64,120.7s3.57-6.9,6-6.89c1.47,0,5,3.94,5,7.69-.06,5-3.55,10.72-4.42,13.64s-.73,7.14-4.63,7.11c-1.54,0-3.45-3.24-3.45-3.24S283.84,125.25,284.64,120.7Z"/><path class="cls-36" d="M285.57,127.48a26.26,26.26,0,0,1,3.56-5.9,7.38,7.38,0,0,1,1.17-1.14l.24-.17.12-.08,0,0L291,120c-.1,0-.08,0,0,0l.11,0c-.07,0-.16,0-.06,0H291l-.29-.14a3.76,3.76,0,0,1,.62,1.33,7.91,7.91,0,0,1-.06,4.07c-.12.47.93.35,1-.09a7.71,7.71,0,0,0-.19-4.91c-.19-.44-.39-1-1-1-1.37.16-2.53,1.55-3.31,2.55a29.42,29.42,0,0,0-3.25,5.55c-.25.51.79.49,1,.1Z"/><path class="cls-36" d="M287.27,128.75c1.26-.05.79,2.05.68,2.77s-.58,2.58.61,2.58a1.49,1.49,0,0,0,1.32-1,11.65,11.65,0,0,0,.81-2.76,10.42,10.42,0,0,0,.19-3.43c-.17-1.37-.61-3.09-2-3.71a.9.9,0,0,0-.78.11c-.14.09-.34.31-.1.42,1.15.51,1.53,1.92,1.72,3.05a8.07,8.07,0,0,1,.08,2.5,18.76,18.76,0,0,1-.67,3.06,5.5,5.5,0,0,1-.37,1s-.21.27-.2.31,0,0,0,0l.53-.08,0,0c0-.12-.13-.31-.14-.46a3.23,3.23,0,0,1,0-.76c.06-.58.18-1.16.23-1.75.12-1.15,0-2.41-1.46-2.36-.22,0-.61.07-.72.3s.09.32.29.32Z"/><path class="cls-8" d="M286.05,129.93c0,.1-.05.27-.1.51-1,5.33-2,12.48-2.84,15.18-3.29,10.51-20.21,27.1-37.44,27.1s-34.14-16.59-37.44-27.1c-.39-1.24-.81-2.85-1.25-4.76-1.55-6.66-3.3-19.52-4.33-29.49h0c-1.16-11.3-1.39-24.59.64-29.87,1.43-3.69,5-8,10.18-11.8h0a54.82,54.82,0,0,1,32.2-10.25c22.17,0,36.56,12.88,40.11,22C289,89.78,288.85,114.46,286.05,129.93Z"/><path class="cls-36" d="M248.38,138.11a3.48,3.48,0,0,1-4.19,0c-.27-.2-1.14.1-.76.38a4.9,4.9,0,0,0,5.7-.19c.15-.12.11-.28-.08-.35a.79.79,0,0,0-.67.11"/><path class="cls-36" d="M242.81,137.61a8.56,8.56,0,0,0-3.26-.89.71.71,0,0,0-.5.17c-.09.1-.11.22,0,.3a3.38,3.38,0,0,0,1.79.45.69.69,0,0,0,.56-.24c.09-.17-.09-.27-.24-.27a2.61,2.61,0,0,1-1.44-.37l-.5.47a7.8,7.8,0,0,1,2.92.8.62.62,0,0,0,.6-.07c.12-.08.24-.26.06-.35"/><path class="cls-36" d="M238.39,137.76a3.54,3.54,0,0,1-3-1.74,3.81,3.81,0,0,1,1.34-4.63c.15-.11.07-.26-.09-.3a.71.71,0,0,0-.59.16,4.37,4.37,0,0,0-1.81,3.92,3.44,3.44,0,0,0,2.56,2.85,4.77,4.77,0,0,0,1.23.23c.17,0,.48-.07.56-.24s-.07-.24-.23-.25"/><path class="cls-36" d="M249.84,137.79a8.8,8.8,0,0,1,3.26-.89.71.71,0,0,1,.5.17c.09.1.11.22,0,.3a3.38,3.38,0,0,1-1.79.45.67.67,0,0,1-.55-.24c-.1-.17.08-.27.23-.27a2.64,2.64,0,0,0,1.45-.37l.49.47a7.8,7.8,0,0,0-2.92.8.6.6,0,0,1-.59-.07c-.12-.08-.25-.26-.07-.35"/><path class="cls-36" d="M254.26,137.94a3.53,3.53,0,0,0,3-1.74,3.81,3.81,0,0,0-1.33-4.63c-.15-.11-.07-.26.08-.3a.74.74,0,0,1,.59.16,4.38,4.38,0,0,1,1.82,3.92,3.49,3.49,0,0,1-2.57,2.86,5.12,5.12,0,0,1-1.23.22c-.17,0-.47-.06-.55-.23s.07-.25.22-.26"/><path class="cls-37" d="M226.56,113.31a3.81,3.81,0,0,0-4.09.73,3.56,3.56,0,0,0-1.1,1.72,3.75,3.75,0,0,0,.89,3.43,3.5,3.5,0,0,0,4,.7,3.86,3.86,0,0,0,1.9-4.5,3.44,3.44,0,0,0-1.62-2.08"/><path class="cls-37" d="M235.89,119.5S230.83,112,225.43,112c-7.6,0-9.39,4.42-11,6.72,0,0,4.93-5.4,10.8-5.25C230.52,113.59,235.89,119.5,235.89,119.5Z"/><path class="cls-37" d="M266,113.29a3.77,3.77,0,0,1,4.08.74,3.57,3.57,0,0,1,1.1,1.71,3.76,3.76,0,0,1-.89,3.44,3.51,3.51,0,0,1-4,.7,3.87,3.87,0,0,1-1.9-4.5,3.43,3.43,0,0,1,1.63-2.09"/><path class="cls-37" d="M256.69,119.49s5.06-7.51,10.46-7.51c7.6,0,9.39,4.42,11,6.71,0,0-4.93-5.39-10.8-5.24C262.06,113.58,256.69,119.49,256.69,119.49Z"/><path class="cls-38" d="M297.53,85h0c1.46-5.83,2-9.44.47-13.49-1.09-2.86-5.89-5.83-5.89-5.83s-1.06-8.58-4.81-7.39c0,0-3.68-11.43-14.59-8.46,0,0-3.33-.87-5.18,1.27,0,0-5.15-9.84-14.53-3,0,0-3.63-2.4-4.85.57,0,0-6.32-6.17-12.52-1.15,0,0-15.82-3.19-19.68,7.09,0,0-7.67-4-11.61,3.55,0,0-4,.34-4,6.05,0,0-5.92,1.82-6.46,5.57,0,0-3.41,2.81-3.16,8.79.07,1.7.62,1.25,1.16,3.56-3.25,6.82,1.74,7.63,1.74,7.63-5.06,6.33,1.35,14.18,1.35,14.18s-2.51,4.92-1.11,8c1.9,4.28,9.88,9,9.88,9s1.88-11.54,1.41-18.86,5.27-20.07,7.17-22.84,14.12,2.18,35.06,2.18,26.6-3.89,29.1-3.2c5.17,1.44,9.55,20.46,9.41,26.21s1.58,16.6,1.58,16.6,11.12-4.93,8.12-14.58c0,0,2.22-11.17-.8-13.66h0S300.37,88.36,297.53,85Z"/><path class="cls-37" d="M235.91,103c0,1.21,0,2.42,0,3.63l0,2.76c-2.71-.79-5-1.31-6.78-1.65a30.31,30.31,0,0,0-10.61-.54,11.31,11.31,0,0,0-4.58,1.65c-.44.29-1.65,1.56-2.31,1.23-.27-.14.18-1.62.23-1.77.93-3,3.31-4.23,6.21-4.92a47.22,47.22,0,0,1,17.89-.39"/><path class="cls-37" d="M256.06,103l0,3.63c0,.92,0,1.84,0,2.76,2.66-.79,4.94-1.31,6.67-1.65a29.41,29.41,0,0,1,10.45-.54,11,11,0,0,1,4.5,1.65c.44.29,1.62,1.56,2.27,1.23.27-.14-.18-1.62-.22-1.77-.92-3-3.26-4.23-6.12-4.92a45.76,45.76,0,0,0-17.61-.39"/><path class="cls-5" d="M232,212.11,245.16,225s.16-11-1.46-14.78-4.7-5.06-7.3-3.22A18,18,0,0,0,232,212.11Z"/><path class="cls-5" d="M259.48,213,246.28,226s-.17-11,1.46-14.79,4.7-5.05,7.3-3.21A18.11,18.11,0,0,1,259.48,213Z"/><g id="freepik--Character--inject-2-2" data-name="freepik--Character--inject-2"><path class="cls-9" d="M343.51,322.91c5.76,3.27,9.09,9.49,19.35,6.77h0c7.63-2.63,14.65-11.25,16.18-13.23,23.8-30.67,44.53-82.32,44.53-82.32L398.43,215.2,349.15,275c0,.11,0,.23,0,.36a84.63,84.63,0,0,1-2.47,16.66c-1.11,4.81-2.33,9.6-3.07,14.48a57,57,0,0,0-.14,15.76C343.84,325.11,343,320.13,343.51,322.91Z"/><path class="cls-9" d="M318,301c10.61,13.67,20.22,25.34,38,29.06-.5-2.19,9.23-.58,8.85-2.8-1.9-11.12-3.85-17-1.33-28.06,2.19-9.61,1.08-14.77,2.13-24.61L332,206.21c-3.31-4.76-16.62-11.23-22.33-12.15l-7.91-1.25c0,21.27-3.3,42.5-1.79,63.77.9,12.65,4,25,7.94,37"/><path class="cls-8" d="M441.07,218.87a118.28,118.28,0,0,0,7.34-9.75l-.13-23.6-22.67,16.34s-1.23,20.64-.89,21.59C424.72,223.45,440.62,218.81,441.07,218.87Z"/><path class="cls-8" d="M417.6,220.39,432,233.58,447,219.93s9.53-8.36,9.76-10.73a10.67,10.67,0,0,0-.58-4.34s3.23-1.68,2.59-4.36a10.37,10.37,0,0,0-3.44-4.83s1.41-5.11,0-6.64-20.13-11-20.13-11-3.33,3.33-.71,5.25l-3.79-.45c-.07.12-.14.24-.2.37a3.66,3.66,0,0,0,1.73,4.87l-4.8-.07s-.37,4.37,2.13,6.07l-4.37-.35a7.43,7.43,0,0,0,1.5,6.72c2.66,2.85,10.59,3.6,10.59,3.6l2.28,5.94s-13,4.27-16.45,6.56S417.6,220.39,417.6,220.39Z"/><path class="cls-10" d="M443.76,212.59l-.46.94a34.14,34.14,0,0,1-3.42-8.88l.68.46a15.94,15.94,0,0,1-6.49-1c-1.48-.53-2.27-1-2.22-1.14s.93.13,2.44.43a18.67,18.67,0,0,0,6,.48l.55-.11.11.52a39.33,39.33,0,0,0,1.73,5.07c.49,1.15,1.08,2.43,1.63,3.51l.42.8-.87.17c-5.74.88-9.84,2.68-9.9,2.36A22.51,22.51,0,0,1,443.76,212.59Z"/></g><rect class="cls-39" x="355.14" y="154.07" width="87.3" height="130.37" transform="translate(-17.15 34.6) rotate(-4.86)"/><path class="cls-40" d="M440.12,268.12l-8.66-101.73c-.2,0-.4,0-.61,0a7.24,7.24,0,0,1-7.21-6.63l-58,4.93c0,.25,0,.5,0,.75a8.85,8.85,0,0,1-8.1,8.82l8.5,99.91a6.84,6.84,0,0,1,.91-.07,7.26,7.26,0,0,1,7.22,6.61l59.27-5.05c0-.11,0-.23,0-.35A7.25,7.25,0,0,1,440.12,268.12Z"/><g id="freepik--Label--inject-3"><path class="cls-41" d="M417,277.44,406,303a.64.64,0,0,0,.86.84l8.47-3.74a.64.64,0,0,1,.86.32l0,.07,2.86,8.58a.64.64,0,0,0,.82.4.66.66,0,0,0,.4-.4l10.33-27.56Z"/><path class="cls-41" d="M431.31,281.72,436.58,309a.63.63,0,0,0,.75.51.65.65,0,0,0,.43-.29l4.91-7.85a.64.64,0,0,1,.89-.21l.05,0,7.19,5.5a.64.64,0,0,0,.9-.13.65.65,0,0,0,.12-.54l-6.95-28.61Z"/><polygon class="cls-42" points="431.84 232.67 435.45 230.02 438.29 233.48 442.45 231.82 444.33 235.88 448.78 235.29 449.59 239.7 454.04 240.24 453.73 244.71 457.91 246.33 456.5 250.58 460.14 253.2 457.72 256.97 460.59 260.4 457.31 263.45 459.24 267.5 455.3 269.63 456.17 274.03 451.82 275.12 451.56 279.59 447.08 279.57 445.72 283.84 441.39 282.7 439.01 286.49 435.09 284.31 431.84 287.4 428.6 284.31 424.68 286.49 422.3 282.7 417.97 283.84 416.61 279.57 412.13 279.59 411.87 275.12 407.52 274.03 408.39 269.63 404.45 267.5 406.38 263.45 403.1 260.4 405.97 256.97 403.55 253.2 407.19 250.58 405.78 246.33 409.96 244.71 409.65 240.24 414.1 239.7 414.91 235.29 419.36 235.88 421.24 231.82 425.4 233.48 428.23 230.02 431.84 232.67"/><circle class="cls-5" cx="431.84" cy="258.71" r="20.29" transform="translate(-69.76 301.34) rotate(-35.78)"/><path class="cls-42" d="M436.27,253.9l5.44.8a1.1,1.1,0,0,1,.93,1.24,1.16,1.16,0,0,1-.32.62l-3.95,3.84a1.09,1.09,0,0,0-.31,1l.92,5.43a1.08,1.08,0,0,1-.89,1.26,1.1,1.1,0,0,1-.69-.11l-4.88-2.57a1.06,1.06,0,0,0-1,0l-4.88,2.55a1.08,1.08,0,0,1-1.47-.46,1.09,1.09,0,0,1-.11-.69l.93-5.42a1.1,1.1,0,0,0-.31-1l-3.94-3.84a1.09,1.09,0,0,1,0-1.54,1,1,0,0,1,.63-.32l5.45-.79a1.09,1.09,0,0,0,.82-.59l2.44-4.94a1.1,1.1,0,0,1,1.47-.49,1.16,1.16,0,0,1,.49.49l2.43,4.95A1.06,1.06,0,0,0,436.27,253.9Z"/></g><path class="cls-36" d="M376.56,254.45a35.08,35.08,0,0,0,0,4.35,1.43,1.43,0,0,0,1.7,1.27c2.31-.18,2.91-3.05,4.6-4.24l-.58.19c.4,0,.77,2.19.89,2.51a2.57,2.57,0,0,0,1.32,1.56.8.8,0,0,0,.87-.28,15.41,15.41,0,0,1,2.33-3.38,7.75,7.75,0,0,1,1.55-1.42c.94-.6,1.25,0,1.52.79.71,2.21,3.46,1,4.75.13.42-.27-.54-.23-.76-.09-.89.57-2.34,1.22-2.94,0-.24-.49-.15-1-.65-1.36a2.31,2.31,0,0,0-2.09.13,7.94,7.94,0,0,0-2.47,2.11,15.75,15.75,0,0,0-2.2,3.27l.87-.28c-1.22-.58-1.32-2.13-1.65-3.28-.12-.41-.2-.81-.68-.87a1.68,1.68,0,0,0-1.3.59,8.93,8.93,0,0,0-1.46,1.72c-.4.6-1.32,2.39-2.28,1.57-.61-.53-.38-1.74-.38-2.44l0-2.77c0-.23-1-.07-1,.26Z"/><line class="cls-43" x1="381.88" y1="186.56" x2="411.55" y2="184.47"/><line class="cls-44" x1="369.51" y1="200.93" x2="421.93" y2="196.5"/><line class="cls-44" x1="374.79" y1="263.45" x2="399.21" y2="261.68"/><line class="cls-44" x1="370.05" y1="209.36" x2="426.48" y2="204.93"/><line class="cls-44" x1="370.55" y1="217.99" x2="426.98" y2="213.56"/><g id="freepik--character-1--inject-1279"><path class="cls-9" d="M116.05,232.6c0,.12,7.18-1.47,7.18-1.47l13.89,46.77L168.22,296s.71-1.78.19,1.83c-1.52,10.05-6.39,21.94-9.54,28.18-3,6-13.35,13.39-25.53,15.72-8.23,1.57-15.88-7.56-20.61-14.48-9.11-16.1-23.1-54.7-25.87-87.31l14.64-3.67C108.6,235.53,108.81,233.49,116.05,232.6Z"/></g><path class="cls-45" d="M129.19,256.63s12.07,35.2,17.52,48.49C146.71,305.12,139,272,129.19,256.63Z"/><path class="cls-8" d="M76.63,164.51c2.68.92,7.23,18.06,8.74,18s-2.87-21.4-1.59-25.7c1-3.35,3.34-1.42,4.32-.39A117.85,117.85,0,0,0,91,169.86c1.89,7.45,2.79,13.67,3.14,13.57s-.23-6.3-2-13.83a119.68,119.68,0,0,0-3.72-15.07c.43-3.48,4-5.07,5.62-1.71,2.73,5.59,7,27.62,6.85,27.3,0,0,.22-6.59.48-11.24S100,153.48,103,153.8s4.65,8.54,5.55,14.13l4.11,24.65a133.38,133.38,0,0,1,5.1-14.29c2.88-5.84,6.94-4.5,6.94-4.5s-3.88,31.74-5.79,36.93a16.52,16.52,0,0,1-6.12,8.08l.39,2.39c-1.52.14-21.22,4.46-22.53,4,0,0-1.63-9.52-3.74-10.45-5.15-6.62-11.09-40-12-44.29S75.1,164,76.63,164.51Z"/><path class="cls-10" d="M101.48,219.07c0,.35-3.1.82-6.87,0s-6.39-2.67-6.22-2.92"/><path class="cls-10" d="M110.22,194s-8.77,2.42-13.32,10.43"/><g id="freepik--Character--inject-2-3" data-name="freepik--Character--inject-2"><path class="cls-6" d="M1090.6,321.55c-1.64-7.07-11.92-44.11-13.94-51.08-1.7-5.85-33.7-6.2-39.37-8.63-20.31-8.68-6.54,13.65-28.61,14.42-12.33.43-22.65-17.31-34.77-15-2.82.54-34.94,29.17-34.94,29.37l16.72,133.29a207.6,207.6,0,0,0-7.42,25.86l6,.89c10.41,1.58,20.68,3.39,30.93,5.82s20.43,5.17,30.65,7.76c19,4.8,38.4,9.3,58.08,9.76.51-7.89-2-14.71-2.35-23.46-.23-5.12-2.54-15.58-2.86-20.45-.38-5.73-1.84-29.66-.77-35.67,1.93-10.92,3.84-12.19,3.63-23.32-.27-13.85,3.1-19.53,9.53-32.53C1079.19,331,1093,331.78,1090.6,321.55Z"/></g><path class="cls-8" d="M1190,231.27l5.17-14.66s-.09-19.86,1.14-22.38,5.12-15.13,5.12-15.13l16.62-11a4.73,4.73,0,0,1,3.64,3.81s6,1,6.25,5.36a3.46,3.46,0,0,1,4.18,2.55,3.38,3.38,0,0,1,0,1.45,16.67,16.67,0,0,1-.64,3.84c.78.41,5.32,2.87,4.74,5.29a38.75,38.75,0,0,1-4.91,10.33,4.18,4.18,0,0,1-3.61,1.68h0l-3.17,6.2s-4.12,10.46-7.87,14.86l-2.61,2.51-4.4,14.49A38.14,38.14,0,0,1,1190,231.27Z"/><path class="cls-46" d="M1223.06,181.85a26.68,26.68,0,0,0-1.48-10.63l-5.73,1.83a32.89,32.89,0,0,0,.72,5.4,6.6,6.6,0,0,0,3.11,5,2.38,2.38,0,0,0,3.11-.33A3,3,0,0,0,1223.06,181.85Z"/><path class="cls-47" d="M1215.85,173.05a3.2,3.2,0,0,0-.06,1.07,23.59,23.59,0,0,0,.39,2.89c.09.62.18,1.27.29,2a7.68,7.68,0,0,0,.76,2.22,5.71,5.71,0,0,0,1.63,2,3.55,3.55,0,0,0,2.69.81,2,2,0,0,0,1.29-.79,2.79,2.79,0,0,0,.39-1.38,16.94,16.94,0,0,0,.07-2.57,23.81,23.81,0,0,0-.58-4.28c-.27-1.21-.58-2.07-.77-2.81a8.48,8.48,0,0,0-.39-1,4.2,4.2,0,0,0,.22,1c.17.66.42,1.63.65,2.81a27.52,27.52,0,0,1,.48,4.24,21.23,21.23,0,0,1-.09,2.52,2.47,2.47,0,0,1-.33,1.18,1.35,1.35,0,0,1-1,.6,3.06,3.06,0,0,1-2.37-.71,5.58,5.58,0,0,1-1.56-1.88,7.31,7.31,0,0,1-.75-2.1c-.14-.69-.22-1.37-.35-2-.24-1.2-.43-2.16-.49-2.84S1215.87,173.05,1215.85,173.05Z"/><path class="cls-47" d="M1221.44,183.88a1,1,0,0,0,0,.29,4.86,4.86,0,0,0-.14.85,7.58,7.58,0,0,0,0,3.18,9.65,9.65,0,0,0,2.07,4.29,3.54,3.54,0,0,0,2.52,1.29,2.65,2.65,0,0,0,1.52-.44,2.48,2.48,0,0,0,.89-1.35,13.64,13.64,0,0,0,.27-3c0-1,0-2,0-2.77-.09-1.75-.16-3.32-.21-4.67s-.07-2.42-.07-3.15a6.54,6.54,0,0,0,0-1.17,6.57,6.57,0,0,0-.19,1.15,23.22,23.22,0,0,0-.06,3.17c0,1.35.07,2.93.11,4.68,0,.87,0,1.79,0,2.74a13.35,13.35,0,0,1-.27,2.89,2.1,2.1,0,0,1-.74,1.12,2,2,0,0,1-1.24.37,3.2,3.2,0,0,1-2.26-1.15,10,10,0,0,1-2.07-4,8.86,8.86,0,0,1-.15-3.08A9.71,9.71,0,0,0,1221.44,183.88Z"/><path class="cls-47" d="M1222.65,191.62a2.73,2.73,0,0,0-.21.3,8.63,8.63,0,0,0-.46.91,11.61,11.61,0,0,0-1,3.65,8.34,8.34,0,0,0,1.06,5.44,4.55,4.55,0,0,0,2.66,2,2.45,2.45,0,0,0,1.85-.29,3.52,3.52,0,0,0,1.14-1.5,44.9,44.9,0,0,0,1.62-6.66l.92-5.49a27.92,27.92,0,0,1,.75-3.66,12.45,12.45,0,0,0,.23-1.36l-.06.35c0,.23-.19.54-.3,1-.26.84-.57,2.1-.89,3.66s-.67,3.42-1.09,5.44a49.33,49.33,0,0,1-1.65,6.57,2.72,2.72,0,0,1-1,1.32,2,2,0,0,1-1.52.24,4.22,4.22,0,0,1-2.35-1.84,8.15,8.15,0,0,1-1.11-5.19A15.75,15.75,0,0,1,1222.65,191.62Z"/><path class="cls-48" d="M1190.49,215.33l-35.8,68.79L1065,266.73c-.94,3.16,19.19,28.25,18.3,31.43-3.9,13.84-7.15,27.94-7.4,42.38-.06,3.18-7.11,14.24-6.87,17.38,3.55-4.53,13.07-15.45,13.07-15.45s5.91,2.91,83.86-12.69c22.37-4.47,48.34-93.94,49.8-94.53S1190.49,215.33,1190.49,215.33Z"/><path class="cls-49" d="M1134.5,147.72c-3.44,2.45-7,4.76-10.34,7.37a12.42,12.42,0,0,0-5.21,9.19,13.63,13.63,0,0,0,4,10.16c7.88,9.21,18.2,17.78,30.54,19.47a33.31,33.31,0,0,0,23.68-6.36c2.79-2-.29-6.32-3.1-4.35a27.87,27.87,0,0,1-17.83,5.64,32.48,32.48,0,0,1-15.25-5.35,61.7,61.7,0,0,1-11.88-10.11,18.53,18.53,0,0,1-4.59-6.19,7.09,7.09,0,0,1,2.72-7.74c3.38-2.55,6.9-4.92,10.34-7.36a2.67,2.67,0,0,0-3.08-4.35Z"/><path class="cls-49" d="M1203.08,104.9c3.25-2.3,6.48-4.62,9.74-6.92a7.62,7.62,0,0,1,6.46-1.58c3,.8,4.42,3.4,5.83,5.93,5.06,9,9.06,19.8,7.07,30.2a27.62,27.62,0,0,1-11.65,17c-2.76,2,.32,6.37,3.08,4.46a33.8,33.8,0,0,0,13.16-17.78,38.1,38.1,0,0,0-.08-19.35,67.8,67.8,0,0,0-6.76-16.72,17.75,17.75,0,0,0-6.48-7.71,12.28,12.28,0,0,0-11.37-.22,99.47,99.47,0,0,0-12.09,8.39,2.67,2.67,0,0,0,3.09,4.27Z"/><path class="cls-49" d="M1220.88,187.24l-6.36,2.63h0l-.12.14-.15,0h0l-4.67,5.28s7.11,11.58,8.56,22.54l10.55-7.51.29-.21,10.56-7.5C1229.58,197.71,1220.88,187.24,1220.88,187.24Z"/><rect class="cls-49" x="1199.27" y="184" width="27.98" height="8.93" rx="4.4" transform="translate(115.48 738.38) rotate(-35.44)"/><path class="cls-49" d="M1197.19,88.11l-36.64,26.09-2,1.37L1124,140.2c.28.92,47.94,75.53,87.48,45.55h0C1252.85,158.16,1197.9,88.7,1197.19,88.11Z"/><path class="cls-49" d="M1215.24,215.12l23.45-16.68a13.61,13.61,0,0,1,19,3.2l.13.17h0l-45.68,32.51h0l-.12-.18a13.61,13.61,0,0,1,3.2-19Z"/><rect class="cls-50" x="1207.02" y="213.97" width="75.29" height="36.23" transform="matrix(0.81, -0.58, 0.58, 0.81, 96.01, 764.67)"/><rect class="cls-51" x="1217.63" y="222.67" width="53.28" height="17.77" transform="translate(96.25 764.34) rotate(-35.44)"/><path class="cls-51" d="M1224.54,185.88s-3.63,2.73-8.2,6-8.28,5.86-8.33,5.79,3.68-2.66,8.17-5.91S1224.5,185.88,1224.54,185.88Z"/><path class="cls-51" d="M1219.73,178.41s-3.92,2.93-8.84,6.41-9,6.4-8.94,6.26,3.92-2.93,8.84-6.41S1219.68,178.36,1219.73,178.41Z"/><path class="cls-51" d="M1238.51,198.36s-4.88,3.62-11,8-11.13,7.72-11.13,7.72,4.86-3.62,11-8S1238.48,198.31,1238.51,198.36Z"/><path class="cls-51" d="M1197.19,88.11l0,.21-.42.54-1.65,2.07-1.2,1.5-1.47,1.73c-1.08,1.24-2.25,2.68-3.66,4.16-.69.75-1.44,1.53-2.19,2.37s-1.61,1.71-2.39,2.5l-1.3,1.31c-.22.22-.43.46-.67.67l-.68.66-2.9,2.71a169,169,0,0,1-13.71,11.2,170.65,170.65,0,0,1-14.87,9.55l-3.48,1.91-.84.45-.85.43-1.7.74c-1.09.53-2.15,1.08-3.12,1.45l-2.94,1.32c-1.87.87-3.59,1.53-5.1,2.17l-2.12.85-1.8.64-2.48.89-.65.23-.23.08.22-.1.65-.25,2.46-.93,1.79-.67c.65-.24,1.36-.56,2.12-.87,1.51-.63,3.23-1.29,5.1-2.18l2.93-1.35,3.1-1.45,1.64-.83.86-.41.83-.47,3.47-1.91a168.68,168.68,0,0,0,14.84-9.55,172.19,172.19,0,0,0,13.7-11.15l2.81-2.68.71-.66.66-.67,1.3-1.3c.86-.85,1.71-1.69,2.39-2.49l2.21-2.37c1.41-1.48,2.6-2.9,3.67-4.12.54-.62,1-1.19,1.49-1.72s.85-1,1.22-1.48l1.68-2,.44-.54Z"/><polygon class="cls-51" points="1174.14 132.02 1186.32 138.57 1198.63 132.25 1196.15 145.86 1205.97 155.61 1192.26 157.46 1186.02 169.79 1180.03 157.33 1166.36 155.22 1176.36 145.67 1174.14 132.02"/><path class="cls-5" d="M1195.59,188.26l-.19.09-.57.26a14.24,14.24,0,0,1-2.31.68,15.88,15.88,0,0,1-3.77.24,23.27,23.27,0,0,1-5-.84,37.59,37.59,0,0,1-5.7-2.13l-3-1.46-3.16-1.73a90.14,90.14,0,0,1-13.06-9.21,135.48,135.48,0,0,1-11.59-11c-3.35-3.58-6.28-7-8.69-9.78s-4.28-5.18-5.58-6.85l-1.5-1.87-.38-.48a.57.57,0,0,1-.12-.18l.13.16.41.47,1.53,1.85c1.33,1.6,3.29,3.92,5.66,6.75s5.32,6.15,8.69,9.72a138.48,138.48,0,0,0,11.6,11,94.69,94.69,0,0,0,13,9.2c1.08.58,2.11,1.18,3.14,1.73l3,1.48a39.45,39.45,0,0,0,5.66,2.15,24.18,24.18,0,0,0,4.93.82,16.89,16.89,0,0,0,3.76-.2,14.28,14.28,0,0,0,2.3-.64l.57-.24Z"/><path class="cls-5" d="M1203.79,192a2.42,2.42,0,0,0-.15,3,5.89,5.89,0,0,0,1.71,1.59l.81.55a3,3,0,0,1-.9-.4,5.08,5.08,0,0,1-1.7-1.59,2.77,2.77,0,0,1-.28-2.38,1.51,1.51,0,0,1,.4-.6C1203.68,192,1203.77,192,1203.79,192Z"/><path class="cls-5" d="M1217.52,215.33a2.88,2.88,0,0,1-.54.44,14.66,14.66,0,0,0-4.67,6.44,14.13,14.13,0,0,0-.71,6.12c.09.78.22,1.41.31,1.84l.16.68-.07-.17c-.07-.17-.11-.27-.18-.48a13,13,0,0,1-.38-1.86,13.51,13.51,0,0,1,.65-6.21,13.08,13.08,0,0,1,4.84-6.43,2.52,2.52,0,0,1,.44-.28Z"/><path class="cls-8" d="M1199.42,194.51l18.81-12.76a8.78,8.78,0,0,1-.59,9.65,25.43,25.43,0,0,1-7.71,6.7c5.64,4.24,8.5,15.23,1.68,22.18"/><path class="cls-47" d="M1213.92,217.09a.83.83,0,0,1,.19-.34,4.87,4.87,0,0,0,.53-1.06,13.36,13.36,0,0,0,1.06-4.22,15.56,15.56,0,0,0-.86-6.63,14.78,14.78,0,0,0-4.9-6.92l-.06.33a46,46,0,0,0,4.48-3.2,15.58,15.58,0,0,0,4-4.29,10.23,10.23,0,0,0,1.36-4.7,7.22,7.22,0,0,0-1.23-4.47l-.11-.18-.15.11-13.39,9.25-3.86,2.71-1,.71-.34.28s.13,0,.39-.21l1.06-.67L1205,191l13.53-9.1-.29-.05a7,7,0,0,1,1.17,4.14,10.32,10.32,0,0,1-1.31,4.54,15.48,15.48,0,0,1-3.73,4.21,45.26,45.26,0,0,1-4.36,3.21l-.22.15.22.17a14.64,14.64,0,0,1,4.8,6.72,16.17,16.17,0,0,1,.89,6.5,14.74,14.74,0,0,1-1,4.2C1214.18,216.58,1213.92,217.07,1213.92,217.09Z"/><path class="cls-52" d="M230,216.89s13,13.73,16.27,14.44,15.56-13.58,15.56-13.58L259.48,213l-13.21,13.51-13.64-13.78Z"/><polygon class="cls-53" points="87.9 224.86 90.2 235.17 118.56 228.08 115.55 219.98 87.9 224.86"/><polygon class="cls-52" points="85.67 236.3 122.22 227.58 123.27 232.1 86.73 240.84 85.67 236.3"/><path class="cls-53" d="M284.44,185.21l-3.37-3.88a36.41,36.41,0,0,0-8.09-6.75l-3.25-.93h0a28,28,0,0,1-3.39,14.91,47.87,47.87,0,0,1-6.11,8.62l-12.49,14s4.34-4.48,6.38-3.55c5.33,2.42,8.3,11.72,8.3,11.72l8-9.07c4.59-4.87,8.78-12.7,12-18.93Z"/><path class="cls-53" d="M207,184.28l3.37-3.88a36.63,36.63,0,0,1,8.09-6.75l3.25-.93h0a28.07,28.07,0,0,0,3.39,14.92,49.18,49.18,0,0,0,6.11,8.61l12.5,14s-4.35-4.49-6.38-3.56c-5.34,2.42-8.3,11.72-8.3,11.72l-8-9.06c-4.59-4.88-8.78-12.71-12-18.94Z"/><path d="M941.74,389.92l8.93,30.27s-1.34,7.38-7.35,25.51c-2.48,7.47-9.65,18.69-15.37,35.42,2,.88,3.91,2,5.82,3,3.19,1.77,6.47,3.4,9.66,5.18,11.57,6.45,23,13.19,35.25,18.17a101.27,101.27,0,0,0,32.15,7.11c.17-5.77.21-11.34.21-11.34L1007,276a90.06,90.06,0,0,1-30.65-19.56s-37.69,11.38-44.49,14.67-15.14,8.55-19.22,14.77-27,52.93-27,52.93l-30.4-35.07-45.73,28.55s24.66,43.31,29.13,49.52S866,419.43,885,419.43s58-52,58-52C943.26,370.5,941.74,389.92,941.74,389.92Z"/><path d="M1190,208.85l-36.27,70.65L1040.6,260.31l-3.31-.94c-.93,11.37-26.06,16.14-26.06,16.14,1.31,25.36,3.73,101.4,3.94,120.17.17,14.92,2.59,62.9,4.36,96.28,5.62,0,11.24.19,16.85.41,16.87.65,34,1.76,50.86.07-5.19-18.5-14.1-52.47-14.1-67.6,0-21.36-1.61-48.49-1.61-48.49l7.72-30.87s86.13-8,99-16.13c2.81-1.77,36-61.22,42.65-92.09Z"/><path class="cls-7" d="M943.18,267.93s26.86,33.85,66.05,33.79c52.12-.07,69.67-35.79,69.67-35.79s-7.37-11.7-24.4-6.22c-7,2.24-23.92,20.35-45.13,32.38-.91.51.73.7,0,0-22.19-21.19-39.18-32.79-39.18-32.79S952.72,252.18,943.18,267.93Z"/><path class="cls-54" d="M943.18,267.93s33.37,36.05,67.1,33.75c50.07-3.42,69-33.75,69-33.75"/><path d="M1075.33,326.48s13.63,29.68,8.48,43.44c-9.76,26-30.51,24.51-30.51,24.51"/><path d="M928.29,333.47s-4.36,32.37,4.6,44c17,22.05,36.35,14.51,36.35,14.51"/><path d="M1018.87,477.72c1,18.3,1.83,34.58,2.28,42.83a136.34,136.34,0,0,0,67.64-22.73c-1.43-5-3.43-12.14-5.51-20.1Z"/><path d="M1008.68,490a198.19,198.19,0,0,1-22.8-5.4c-7.56-2.26-14.88-5.1-22.21-8-9.76-3.85-19.78-7.75-30.12-9.56a152.92,152.92,0,0,0-9.17,26.3c-.07.09-.13.19-.2.29,23.18,17,53.56,26.92,86.43,27,.35-7.09.43-17.37.43-17.37l-.23-13C1010.1,490.18,1009.39,490.09,1008.68,490Z"/><path class="cls-30" d="M246.27,146.77c-6.8,0-17.82-.78-17.82-.78s2.05,13.09,17.82,13.09S264.1,146,264.1,146,253.07,146.77,246.27,146.77Z"/><path class="cls-29" d="M246.34,146.77c-3.24,0-16.27-.53-16.27-.53s4.31,6.95,16,6.95c12.68,0,16.4-6.85,16.4-6.85Z"/><path class="cls-55" d="M246.48,147.24c-3.23,0-13.07-.53-13.07-.53s3.54,3.44,13.24,3.44,12.78-3.34,12.78-3.34Z"/><path class="cls-30" d="M264.81,145a25.62,25.62,0,0,1-3.83.4c-2.68-.23-5.91-.91-7.85-1.06-3.31-.25-5.42,1-6.86,1s-3.54-1.27-6.85-1c-1.94.15-5.18.83-7.85,1.06a26,26,0,0,1-3.84-.4c-.47.12.45,3.53,18.55,3.53S265.29,145.14,264.81,145Z"/><path d="M991.12,241.77c10.16-1.08,15.57-8.44,40.34-24.06q-35.81-40.15-71.6-80.33l-8.41,4.22a29.56,29.56,0,0,0-7.33,6.27,28.13,28.13,0,0,0-1.77,2.39c-7,9.53-8.32,21.35-3.42,31.63,2.37,4.89,6.19,10.14,3.87,15.14s-9.73,7.07-11.83,12.08c-2.47,5.88,3.72,11.64,4.4,17.84.45,6-4.24,11.55-11.06,13,.82-.17,3,.86,3.87,1.07,1.39.34,6.63,1.94,8.05,2.18,2.92.49,9.18,2,12.15,2.12a77.5,77.5,0,0,1,9,1c3.14-3.77,4.17-15.74,4.17-15.74.75,5.77-.53,13.7-1,16.24a95.39,95.39,0,0,0,11,1.34c5.12.18,12.64.37,17.76.61S986.1,242.31,991.12,241.77Z"/><path class="cls-56" d="M913.05,224.6a5.53,5.53,0,0,0,.84,3.59,5,5,0,0,0,3.55,2.32,5.19,5.19,0,0,0,4.81-2.53,4.77,4.77,0,0,0,.57-3.2,10,10,0,0,0-1.33-3.41c-1.26-2.2-3.32-4.43-3.77-7.57a11.45,11.45,0,0,1,2.47-9,13.41,13.41,0,0,1,3.83-3.24,19.77,19.77,0,0,1,4.82-1.82,28,28,0,0,0,4.71-1.56,6.62,6.62,0,0,0,3.24-3.15,8,8,0,0,0,.44-4.43,15.6,15.6,0,0,0-1.3-4.23,34,34,0,0,1-3.06-7.9,12.85,12.85,0,0,1,1-7.36,16.2,16.2,0,0,1,3.71-4.83,31,31,0,0,0,3.07-3.31,9.4,9.4,0,0,0,1.59-3.44l0,.25a3.7,3.7,0,0,1-.13.74,7.36,7.36,0,0,1-1.24,2.64,28.26,28.26,0,0,1-3,3.45,16,16,0,0,0-3.49,4.76,12.08,12.08,0,0,0-.86,7A33,33,0,0,0,936.6,186a16.29,16.29,0,0,1,1.39,4.41,8.81,8.81,0,0,1-.49,4.87,7.31,7.31,0,0,1-3.63,3.58,27.35,27.35,0,0,1-4.85,1.62,19.1,19.1,0,0,0-4.62,1.74,12.39,12.39,0,0,0-3.61,3,10.78,10.78,0,0,0-2.35,8.37c.37,2.87,2.31,5,3.61,7.34a10.12,10.12,0,0,1,1.36,3.67,5.27,5.27,0,0,1-.69,3.57,5.65,5.65,0,0,1-5.28,2.69,5.46,5.46,0,0,1-4.55-5.4A3.24,3.24,0,0,1,913.05,224.6Z"/><path class="cls-56" d="M1098,217.11a5.6,5.6,0,0,1-.84,3.59,5,5,0,0,1-3.55,2.31,5.19,5.19,0,0,1-4.81-2.53,4.75,4.75,0,0,1-.57-3.19,10.07,10.07,0,0,1,1.33-3.42c1.26-2.19,3.32-4.42,3.77-7.57a11.45,11.45,0,0,0-2.47-9,13.22,13.22,0,0,0-3.83-3.23,19.37,19.37,0,0,0-4.82-1.82,27.66,27.66,0,0,1-4.71-1.56,6.64,6.64,0,0,1-3.24-3.16,8,8,0,0,1-.44-4.42,15.67,15.67,0,0,1,1.3-4.24,33.79,33.79,0,0,0,3.06-7.89,12.84,12.84,0,0,0-1-7.36,16.2,16.2,0,0,0-3.71-4.83,32,32,0,0,1-3.07-3.31,9.37,9.37,0,0,1-1.59-3.45l0,.26a3.83,3.83,0,0,0,.13.74,7.32,7.32,0,0,0,1.24,2.63,27.54,27.54,0,0,0,3,3.45,16.22,16.22,0,0,1,3.49,4.76,12.09,12.09,0,0,1,.86,7,33.07,33.07,0,0,1-3.08,7.69,16.4,16.4,0,0,0-1.39,4.41,8.8,8.8,0,0,0,.49,4.87,7.27,7.27,0,0,0,3.63,3.58A26.59,26.59,0,0,0,1082,193a19.07,19.07,0,0,1,4.62,1.73,12.27,12.27,0,0,1,3.61,3,10.76,10.76,0,0,1,2.35,8.36c-.37,2.88-2.31,5-3.61,7.35a10.08,10.08,0,0,0-1.36,3.66,5.3,5.3,0,0,0,.68,3.57,5.66,5.66,0,0,0,5.29,2.69,5.46,5.46,0,0,0,4.55-5.4A3.23,3.23,0,0,0,1098,217.11Z"/><path d="M1080.37,162.94c-2.15-3.34-5.28-6.32-7-9.81-3.68-7.53-.48-16.85-6.72-23.28-4.44-4.59-12.3-6.16-19.6-7s-15.1-1.38-21.07-4.75c-4.39-2.46-7.33-6.21-11.73-8.69-6.23-3.55-14.52-4-22.21-3.49-8,.32-5.93,9.73-12.66,13a26.51,26.51,0,0,1-3.28,1.34c-3.26,8-9.74,16.71-18.45,17.84-1.12,2.29-2.88,4.43-3.92,6.77-2.79,6.85.77,14.29,8.65,18.08l64.22,47.5c11.94,2,38.53-5.18,46-12.66S1085.77,171.39,1080.37,162.94Z"/><path d="M1087.19,225.51c-3.3-3.74-4.93-7.53-4.65-12.52,0-.52.07-1,.13-1.55a54.11,54.11,0,0,1-3.62-15.45,144.49,144.49,0,0,1-.69-15.29,8.28,8.28,0,0,1-2.5-3.91c-1.14-4.34,2-7.26,2-10.86s-4.19-7.69-7.75-8.07L1034,191.16c-5.5,12.64-9.67,19-8.54,27.49.93,4.54-5.45,6.51-5.51,11.14-.41,4.63-7,13.5-11.26,15.33,16,4.94,44.15,1.6,60.09-3.47l4.49-1.45c-5.17-4.48-7-16.37-7-16.37,1.8,4.89,5.63,12.22,9.23,15.55A18.27,18.27,0,0,0,1078,239c3,.1,12.1-4,17.73-6.64A30.28,30.28,0,0,1,1087.19,225.51Z"/><path class="cls-8" d="M1027.85,211.92s3.8,37.31,4.84,40.84l6.12,6.52-4.19,3.75c-13.42,14.65-14.35.41-33.89-3.18l-23.38-3.76s3.54-2.67,4.39-5.69C985.23,238,984,217.64,984,217.64"/><path class="cls-8" d="M1038.81,259.28a65.6,65.6,0,0,1-8,13c-5.35,6.77-27.37,8.09-40.91,0s-12.5-16.23-12.5-16.23Z"/><path class="cls-10" d="M1030.76,238.72s-9.5,14.52-23.27,12.6c-8.52-1.19-19.39-6.8-23.7-13.95Z"/><path class="cls-8" d="M963.52,183.72s-4.64-9-7.8-9c-1.92,0-6.55,5.13-6.5,10,.07,6.55,4.63,14,5.77,17.8s.94,9.31,6,9.27c2,0,4.51-4.22,4.51-4.22S964.57,189.66,963.52,183.72Z"/><path class="cls-36" d="M962,192.6a43.24,43.24,0,0,0-4.07-7.12,14.24,14.24,0,0,0-2.93-3.12,4.13,4.13,0,0,0-1.56-.76c-.72-.15-1.06.38-1.35,1a10.43,10.43,0,0,0-.44,7.22c.09.38,1.11.12,1-.27a11,11,0,0,1-.07-5.72,5.2,5.2,0,0,1,.88-1.89l-.67.28c.08,0,.09,0,0,0l.28.07.12,0,.26.12a5.8,5.8,0,0,1,.59.36,15.32,15.32,0,0,1,3.84,4.41,49.8,49.8,0,0,1,3.11,5.69c.17.38,1.17.07,1-.27Z"/><path class="cls-36" d="M960,193.52c-3.73-.13-1.52,4.62-1.84,6.63,0,.1-.07.2-.08.3s-.09.11-.08.14.39,0,.37-.09-.18-.19-.21-.24a2.77,2.77,0,0,1-.31-.56,14.49,14.49,0,0,1-1-3.37,13,13,0,0,1-.29-4.16c.16-1.56.55-3.93,2.18-4.65.65-.29.06-.63-.4-.43-1.63.72-2.32,2.44-2.63,4.08a11.14,11.14,0,0,0-.18,3.64,24,24,0,0,0,.92,4.2c.2.61.47,1.64,1.09,2a1.14,1.14,0,0,0,1.48-.53,3.32,3.32,0,0,0,.09-1.85c-.1-.82-1-4.56.48-4.5.39,0,1.07-.56.39-.59Z"/><path class="cls-8" d="M1051.28,185.45s4.65-9,7.81-9c1.91,0,6.55,5.13,6.5,10-.07,6.55-4.63,14-5.77,17.81s-1,9.3-6,9.26c-2,0-4.5-4.22-4.5-4.22S1050.23,191.39,1051.28,185.45Z"/><path class="cls-36" d="M1053.78,194.5a36.32,36.32,0,0,1,5-8.26,10.73,10.73,0,0,1,1.67-1.63,3.84,3.84,0,0,1,1.07-.63c.11,0-.12,0,0,0l.09,0c.17,0,0,0,0,0s.29,0,0,0l-.28-.12a5.56,5.56,0,0,1,.87,1.9,11,11,0,0,1-.08,5.72c-.1.42.92.28,1-.11a10.72,10.72,0,0,0-.25-6.81c-.23-.51-.47-1.29-1.14-1.21a3.93,3.93,0,0,0-1.63.69,12.34,12.34,0,0,0-2.79,2.75,41,41,0,0,0-4.52,7.7c-.22.48.8.4,1,.06Z"/><path class="cls-36" d="M1055,195.93c2.85-.1-1.12,7.17,1.67,7,.73,0,1.13-.83,1.38-1.41a18.2,18.2,0,0,0,1-3.69,13.25,13.25,0,0,0,.17-4.35c-.24-1.82-.84-4-2.66-4.78-.44-.2-1.18.44-.58.7,1.46.65,1.94,2.54,2.17,4a10.64,10.64,0,0,1,.07,3.33,23.13,23.13,0,0,1-.88,3.94,6.84,6.84,0,0,1-.51,1.22c0,.06-.24.27-.23.32s0-.06,0,0c.49.39.15-.08.15-.07,0-.2-.14-.44-.15-.67a6.55,6.55,0,0,1,.07-1c.09-.76.23-1.52.3-2.28.14-1.5-.12-3.06-2-3-.58,0-.77.79-.08.77Z"/><path class="cls-8" d="M1057.4,185.6a0,0,0,0,0,0,0c-1.07,5.41-2.38,11.1-3.29,17.64-2.4,17.24-7.53,25.16-19.25,32.77-12.27,8-15.95,11.09-26.54,11.49-10.6-.4-14.28-3.51-26.55-11.49-11.71-7.61-16.84-15.53-19.24-32.77-.53-3.85-1.21-7.4-1.89-10.77-.5-2.5-1-4.91-1.48-7.27a.44.44,0,0,1,0-.1.08.08,0,0,1,0,0c-1.69-8.65-2.71-16.63-.4-26.28,4-16.55,9.06-21.37,23.19-30.16h0c7.4-4.6,16.3-9.72,26.38-9.72,27.19,0,45.79,21.93,49.59,37.79C1060.25,166.55,1059.15,176.76,1057.4,185.6Z"/><path class="cls-36" d="M1010.74,207a3.67,3.67,0,0,1-4.43,0c-.28-.22-1.21.1-.81.4a5.17,5.17,0,0,0,6-.17c.15-.13.12-.3-.08-.37a.81.81,0,0,0-.71.11"/><path class="cls-36" d="M1004.85,206.83a9.29,9.29,0,0,0-3.46-.94.78.78,0,0,0-.53.18.19.19,0,0,0,0,.32,3.58,3.58,0,0,0,1.9.47.67.67,0,0,0,.58-.25c.11-.17-.09-.29-.25-.29a2.76,2.76,0,0,1-1.53-.39l-.52.5a8.28,8.28,0,0,1,3.09.85.67.67,0,0,0,.63-.07c.13-.08.27-.28.08-.38"/><path class="cls-36" d="M1000.15,207a3.76,3.76,0,0,1-3.14-1.86,4,4,0,0,1,1.41-4.9c.16-.12.08-.28-.09-.32a.77.77,0,0,0-.63.17,4.63,4.63,0,0,0-1.92,4.16,3.67,3.67,0,0,0,2.72,3,4.88,4.88,0,0,0,1.31.24c.18,0,.5-.07.59-.25s-.08-.26-.25-.26"/><path class="cls-36" d="M1012.17,206.91a9.19,9.19,0,0,1,3.46-.94.7.7,0,0,1,.53.18c.1.1.12.23,0,.31a3.54,3.54,0,0,1-1.9.48.72.72,0,0,1-.59-.25c-.11-.18.09-.29.25-.29a2.82,2.82,0,0,0,1.53-.39l.52.49a8.4,8.4,0,0,0-3.09.86.68.68,0,0,1-.63-.08c-.13-.08-.26-.27-.07-.37"/><path class="cls-36" d="M1016.86,207.07a3.76,3.76,0,0,0,3.15-1.85,4,4,0,0,0-1.42-4.91c-.16-.12-.07-.27.09-.32a.8.8,0,0,1,.63.17,4.66,4.66,0,0,1,1.92,4.17,3.67,3.67,0,0,1-2.72,3,4.8,4.8,0,0,1-1.31.23c-.17,0-.5-.06-.58-.24s.07-.27.24-.27"/><path d="M985.17,181.19a3.59,3.59,0,0,0-3.87.7,3.48,3.48,0,0,0-1,1.62,3.57,3.57,0,0,0,.84,3.25,3.33,3.33,0,0,0,3.81.67,3.69,3.69,0,0,0,1.8-4.27,3.33,3.33,0,0,0-1.54-2"/><path d="M1031.36,181.71a3.59,3.59,0,0,1,3.87.69,3.47,3.47,0,0,1,1,1.63,3.55,3.55,0,0,1-.84,3.24,3.33,3.33,0,0,1-3.81.67,3.66,3.66,0,0,1-1.8-4.26,3.27,3.27,0,0,1,1.54-2"/><path d="M1020.19,187s7.3-5.55,11-5.91c5.45-.52,12.16,2.4,14.09,5,0,0-8.88-4.36-12.71-3.89C1028.94,182.62,1020.19,187,1020.19,187Z"/><path d="M996.12,186s-7.1-5.55-10.74-5.91c-5.3-.52-11.83,2.4-13.71,5,0,0,8.65-4.36,12.37-3.89C987.6,181.71,996.12,186,996.12,186Z"/><path d="M1021.41,171.26c0,1.2,0,.53,0,1.73l0,2.74c2.93-.78,5-1.63,6.91-2,3.75-.67,8-1.92,11.82-1.36,1.82.27,4.56,1,5.87,2.68.35.43.88,1.66,1.6,1.33.29-.13-.2-1.6-.25-1.75-1-3-3.57-4.19-6.7-4.88-6.39-1.41-9.61-1.18-19.3,1.28"/><path d="M995.17,171.26c0,1.2,0,.53,0,1.73l0,2.74c-2.92-.78-5-1.63-6.9-2-3.75-.67-8-1.92-11.83-1.36-1.82.27-4.42.71-5.73,2.33-.35.44-1,2-1.73,1.68-.29-.13.19-1.6.24-1.75,1-3,3.57-4.19,6.71-4.88,6.39-1.41,9.61-1.18,19.29,1.28"/><polygon points="1009.69 119.42 929.43 91.31 1014.11 65.97 1091.36 104.39 1009.69 119.42"/><path d="M966.85,123.3l-.79-24.93s26-9.47,45.48-7.84,42.29,13.16,42.29,13.16L1050,130.17s-27.75-7.8-43.52-8.8A280.93,280.93,0,0,0,966.85,123.3Z"/><path class="cls-30" d="M1008.51,217.26c-7.72,0-20.24-.88-20.24-.88s2.34,14.86,20.24,14.86,20.24-14.86,20.24-14.86S1016.24,217.26,1008.51,217.26Z"/><path class="cls-29" d="M1008.59,217.26c-3.67,0-18.48-.61-18.48-.61s4.9,7.89,18.18,7.89c14.4,0,18.63-7.77,18.63-7.77Z"/><path class="cls-55" d="M1008.75,217.79c-3.67,0-14.85-.6-14.85-.6s4,3.91,15,3.91,14.51-3.8,14.51-3.8Z"/><path class="cls-30" d="M1029.57,215.28c-.4-.1-2.53.59-4.36.44-3-.25-6.71-1-8.91-1.2-3.76-.28-6.15,1.17-7.79,1.17s-4-1.45-7.78-1.17c-2.2.17-5.88.95-8.92,1.2-1.82.15-4-.54-4.35-.44-.54.13.51,4,21.06,4S1030.11,215.41,1029.57,215.28Z"/><path d="M1044.44,123.63c-2.42-4.15-5-8.5-9-10.19-3.77-1.58-36.94,2.26-40.81,3.52-14.46,4.65-8.26,6.76-21.57,14.71.71,1,10.26,3.43,11.08,4.3,2.57,2.73,5.83,6.22,9.83,6.38,5.27.2,9.57-3.55,14.7-.07,3.56,2.43,4.16,11.05,7.84,13.82,6.31,4.8,10.94.08,17.23,4.9,4.75,3.66,5.68,11.09,8.48,16.93,5.43,11.36,22.75,9.25,32.64,3a20,20,0,0,0,2.31-1.71C1065.87,159.64,1055.72,143.23,1044.44,123.63Z"/><path d="M983.49,128.12a144.93,144.93,0,0,1-5.33,14.82,20.61,20.61,0,0,1-10.86,10.47,65.21,65.21,0,0,0-1.59,10.2,18.69,18.69,0,0,1-4.62,11.55s-.49,9.69-.76,11.79-2.35-10.89-6.18-13.56.09-20.2.73-26.83S979,121.25,983.49,128.12Z"/><path d="M1086.38,224.54s-3.55-4-1.28-12.62,3.33-26-5.31-30.53-5,22.74-4.24,27S1081.29,224.38,1086.38,224.54Z"/><path d="M977.89,122.2s-17.16.24-22.78,6.25c-7.4,7.91-5.28,18.7-5.28,18.7S974.82,137.23,977.89,122.2Z"/><path class="cls-57" d="M1055.27,211.51a3.5,3.5,0,0,1,2.12,4.06,3.24,3.24,0,0,1-1.43,2,2.26,2.26,0,0,1-1.17.3,3.39,3.39,0,0,1-2.75-1.24c-.23-.26-1.07.06-.81.37a4.06,4.06,0,0,0,3,1.43,4.28,4.28,0,0,0,1.81-.25,3.86,3.86,0,0,0,2.16-4.84,4,4,0,0,0-2.36-2.31c-.32-.13-1,.33-.52.53Z"/><path class="cls-57" d="M960.38,209a4.09,4.09,0,0,0-3.24,4.21,3.68,3.68,0,0,0,1.25,2.44,3.29,3.29,0,0,0,1.77.79,4.47,4.47,0,0,0,3.77-1.09c.15-.14.07-.31-.1-.37a.68.68,0,0,0-.62.17,3,3,0,0,1-2.63.74,2.5,2.5,0,0,1-1.35-.58,3.39,3.39,0,0,1-.8-4.21,3.22,3.22,0,0,1,2.09-1.58c.15,0,.42-.18.37-.38s-.36-.18-.51-.14Z"/><path d="M1050.61,166.75s5.38,12.86,5.08,13.32,0,10,0,10,4.85-13.51,7.41-14.1-6.76-15.41-12.49-9.22"/><path d="M970,258.31l8.67-6.82s19.06,14.43,25.13,15.51l3.16,10.63-4.52,2.08-10.05-4.81Z"/><path d="M1045.3,260.74l-7.08-7.18s-18.35,13.08-24.42,14.17l-2.41,11,3.77,1.74,12.81-3.75Z"/><path class="cls-8" d="M438.73,203.25l2.58,3.2c.06-.09,2.71,4.14,2.76,4.05,1.35-2.39-2.63-11.58-1.7-14.17a70.45,70.45,0,0,1,3.14-7.64,29.61,29.61,0,0,0,2-4.28c-5-2.74-10.3-5.53-10.3-5.53s-3.17,3.06-.74,4.9l-3.55-.47a3.54,3.54,0,0,0-.19.33,3.43,3.43,0,0,0,1.54,4.59l-4.49-.14s-.41,4.09,1.9,5.72l-4.08-.4a6.91,6.91,0,0,0,1.3,6.32C431.33,202.43,438.73,203.25,438.73,203.25Z"/><path class="cls-10" d="M431.41,193.61a45.53,45.53,0,0,1,8.72.84,14,14,0,0,1,4.51,1.94,30.3,30.3,0,0,1,3.09,2.46c1.67,1.46,2.82,2.14,2.77,2.27s-1.38-.4-3.19-1.74c-1-.74-1.93-1.47-3.16-2.24a14.63,14.63,0,0,0-4.26-1.73,64.49,64.49,0,0,0-8.52-1.11,9.69,9.69,0,0,1-3.56-.74A20.6,20.6,0,0,1,431.41,193.61Z"/><path class="cls-10" d="M448.2,193.48l-3.13-1.88a9.76,9.76,0,0,0-1.82-1,13.6,13.6,0,0,0-2.15-.64c-3-.64-5.93-.86-8-1.13a10.26,10.26,0,0,1-3.33-.65,13.73,13.73,0,0,1,3.39,0,48.6,48.6,0,0,1,8.16.87,15.14,15.14,0,0,1,2.29.7,8.91,8.91,0,0,1,1.93,1.14l3,2.06a12,12,0,0,1,2.63,2A12,12,0,0,1,448.2,193.48Z"/><path class="cls-10" d="M450.12,189.29l-3.05-1.61-1.79-1-.94-.54-.48-.25-.45-.17c-2.79-.74-5.46-1.19-7.43-1.61a12.63,12.63,0,0,1-3.08-.82,10.11,10.11,0,0,1,3.2.15,56.31,56.31,0,0,1,7.62,1.36,3.28,3.28,0,0,1,.59.23l.49.27.93.54,1.77,1,2.94,1.78c1.67,1,2.68,1.76,2.61,1.89A10.78,10.78,0,0,1,450.12,189.29Z"/><path class="cls-45" d="M313.66,354.47c0-1,.12-2.17.21-3.62.22-3.34.54-7.84.93-13.3.92-11.23,2-25.78,3.56-43.84,1.45-17.1,2.86-32.6,3.92-43.79.55-5.49,1-9.93,1.32-13.28.17-1.44.32-2.61.44-3.6a4.08,4.08,0,0,1,.25-1.24,5.4,5.4,0,0,1-.09,1.27c0,1.06-.12,2.19-.18,3.64-.09,3.32-.41,7.82-.78,13.28-.87,11.12-2.11,26.73-3.56,43.85s-2.88,32.59-3.94,43.79c-.55,5.45-1,9.93-1.38,13.26"/><g id="freepik--Character--inject-2-4" data-name="freepik--Character--inject-2"><path class="cls-8" d="M803.29,296.83a121.68,121.68,0,0,1-7.6-10.1l.13-24.44,23.47,16.92s1.28,21.37.92,22.35C820.21,301.56,803.76,296.76,803.29,296.83Z"/><path class="cls-8" d="M826.26,298.43,811.39,312.1,795.8,298s-9.87-8.66-10.1-11.11a11.06,11.06,0,0,1,.6-4.49s-3.34-1.74-2.69-4.52a10.74,10.74,0,0,1,3.57-5s-1.46-5.29,0-6.87S808,254.62,808,254.62s3.44,3.45.73,5.43l3.93-.46c.07.12.14.25.2.38a3.78,3.78,0,0,1-1.79,5l5-.07s.39,4.53-2.2,6.29l4.52-.37a7.66,7.66,0,0,1-1.55,7c-2.76,3-11,3.73-11,3.73l-2.36,6.15s13.47,4.42,17,6.79S826.26,298.43,826.26,298.43Z"/><path class="cls-10" d="M800.5,290.32l.48,1a34.43,34.43,0,0,0,1.78-3.73,33.85,33.85,0,0,0,1.76-5.47l-.71.48a16.7,16.7,0,0,0,6.72-1c1.54-.55,2.36-1,2.3-1.18s-1,.13-2.52.44a19.19,19.19,0,0,1-6.27.5l-.57-.12-.11.55a39.13,39.13,0,0,1-1.79,5.25c-.51,1.18-1.12,2.51-1.69,3.63l-.44.83.91.18c5.93.91,10.18,2.77,10.25,2.44A23.3,23.3,0,0,0,800.5,290.32Z"/></g><rect class="cls-58" x="801.87" y="229.73" width="90.39" height="134.99" transform="translate(1665.89 665.18) rotate(-175.14)"/><path class="cls-59" d="M804.27,347.82l9-105.34c.21,0,.42,0,.64,0a7.5,7.5,0,0,0,7.47-6.86l60,5.1c0,.26,0,.52,0,.78a9.17,9.17,0,0,0,8.4,9.13l-8.81,103.45A7.3,7.3,0,0,0,880,354a7.5,7.5,0,0,0-7.47,6.84l-61.37-5.22c0-.13,0-.25,0-.37A7.5,7.5,0,0,0,804.27,347.82Z"/><path class="cls-36" d="M868.42,334.69l0,2.87c0,.69.31,2.83-1,2.37-.82-.28-1.27-1.23-1.71-1.89a9.16,9.16,0,0,0-1.47-1.76c-.75-.69-1.71-.62-2.06.41s-.4,2.91-1.67,3.51l.8,0a16,16,0,0,0-2.28-3.38,7.12,7.12,0,0,0-2.62-2.16,2.31,2.31,0,0,0-2,.17c-.48.34-.42.73-.65,1.22a1.43,1.43,0,0,1-1.71.71,6.37,6.37,0,0,1-1.35-.75c-.27-.17-1.15.23-.94.37a4.33,4.33,0,0,0,3.19,1,2.19,2.19,0,0,0,1.8-1.45c.11-.33.07-.79.53-.89.27-.07.84.32,1,.45a8.88,8.88,0,0,1,1.4,1.27,15.78,15.78,0,0,1,2.63,3.74c.13.25.62.06.8,0a2.82,2.82,0,0,0,1.43-1.6,12.46,12.46,0,0,0,.39-1.36c.1-.39.16-1.09.48-1.36l-.71.19c.63,0,1.31,1.08,1.67,1.55s.73,1.17,1.17,1.7a2.39,2.39,0,0,0,2.29.95,1.71,1.71,0,0,0,1.58-1.5,31.69,31.69,0,0,0,0-4.57c0-.24-1-.07-1,.27Z"/><line class="cls-60" x1="862.73" y1="287.38" x2="832" y2="285.21"/><line class="cls-61" x1="875.54" y1="302.26" x2="817.8" y2="297.38"/><line class="cls-61" x1="871.26" y1="344.01" x2="845.97" y2="342.18"/><line class="cls-61" x1="874.97" y1="310.99" x2="816.55" y2="306.4"/><line class="cls-61" x1="874.45" y1="319.92" x2="816.03" y2="315.33"/><path class="cls-8" d="M805.72,281.85l-2.85,3.53c-.06-.1-3,4.58-3,4.48-1.5-2.64,2.9-12.81,1.88-15.67a77.73,77.73,0,0,0-3.48-8.45A32.21,32.21,0,0,1,796,261c5.5-3,11.39-6.11,11.39-6.11s3.5,3.39.82,5.42l3.92-.53a3.47,3.47,0,0,1,.21.37,3.78,3.78,0,0,1-1.7,5.07l5-.14s.46,4.51-2.09,6.32l4.51-.44a7.65,7.65,0,0,1-1.44,7C813.91,280.94,805.72,281.85,805.72,281.85Z"/><path class="cls-10" d="M813.82,271.17a50.42,50.42,0,0,0-9.65.94,15.77,15.77,0,0,0-5,2.14,35.66,35.66,0,0,0-3.41,2.72c-1.85,1.62-3.12,2.37-3.06,2.51s1.53-.44,3.52-1.92c1.09-.81,2.14-1.63,3.49-2.48a16.26,16.26,0,0,1,4.72-1.91,72.84,72.84,0,0,1,9.43-1.23,10.63,10.63,0,0,0,3.93-.82A23,23,0,0,0,813.82,271.17Z"/><path class="cls-10" d="M795.25,271l3.47-2.08a10.25,10.25,0,0,1,2-1.1,14.4,14.4,0,0,1,2.38-.7c3.36-.72,6.56-.95,8.84-1.25a11.85,11.85,0,0,0,3.68-.72,15.18,15.18,0,0,0-3.75-.05,53.51,53.51,0,0,0-9,1,16.19,16.19,0,0,0-2.54.78,10.69,10.69,0,0,0-2.14,1.25l-3.35,2.29a13.12,13.12,0,0,0-2.91,2.22A12.85,12.85,0,0,0,795.25,271Z"/><path class="cls-10" d="M793.13,266.41l3.37-1.79,2-1.09,1-.59.53-.28.49-.18c3.1-.82,6-1.32,8.23-1.78a13.8,13.8,0,0,0,3.4-.92,11.08,11.08,0,0,0-3.54.18,61.58,61.58,0,0,0-8.42,1.49,4.77,4.77,0,0,0-.66.26l-.54.3-1,.59-2,1.16-3.26,2c-1.85,1.16-3,1.94-2.88,2.08A12.42,12.42,0,0,0,793.13,266.41Z"/><path class="cls-45" d="M162,225c.31,0,1.9,19.3,3.65,43.14s3.76,39.1,3.48,39.12-2.86-15.19-4.63-39S161.71,225.07,162,225Z"/><g id="freepik--Label--inject-3-2" data-name="freepik--Label--inject-3"><polygon class="cls-42" points="849.75 246.17 851.63 244.79 853.1 246.59 855.26 245.72 856.25 247.84 858.56 247.53 858.98 249.82 861.29 250.1 861.14 252.43 863.31 253.27 862.58 255.49 864.47 256.85 863.21 258.81 864.71 260.6 863 262.18 864 264.29 861.95 265.4 862.4 267.69 860.14 268.25 860.01 270.58 857.68 270.57 856.97 272.79 854.71 272.2 853.47 274.17 851.44 273.04 849.75 274.64 848.06 273.04 846.02 274.17 844.78 272.2 842.53 272.79 841.82 270.57 839.49 270.58 839.36 268.25 837.09 267.69 837.54 265.4 835.49 264.29 836.5 262.18 834.79 260.6 836.29 258.81 835.03 256.85 836.92 255.49 836.19 253.27 838.36 252.43 838.2 250.1 840.52 249.82 840.94 247.53 843.25 247.84 844.23 245.72 846.39 246.59 847.87 244.79 849.75 246.17"/><circle class="cls-5" cx="849.75" cy="259.71" r="10.56"/><path class="cls-42" d="M852.05,257.21l2.83.42a.56.56,0,0,1,.48.64.57.57,0,0,1-.16.33l-2.06,2a.59.59,0,0,0-.16.51l.48,2.82a.57.57,0,0,1-.46.66.56.56,0,0,1-.36-.06l-2.54-1.34a.62.62,0,0,0-.53,0L847,264.51a.57.57,0,0,1-.82-.6l.49-2.82a.58.58,0,0,0-.16-.5l-2-2a.57.57,0,0,1,.31-1l2.84-.41a.54.54,0,0,0,.42-.31l1.28-2.56a.57.57,0,0,1,.76-.26.53.53,0,0,1,.25.26l1.27,2.57A.53.53,0,0,0,852.05,257.21Z"/></g></g></g></svg>