<svg xmlns="http://www.w3.org/2000/svg" viewBox="0 0 1303.15 1057.31"><defs><style>.cls-1{fill:#f2ebd1;}.cls-2{fill:#a99231;}.cls-3{fill:#9398cb;}.cls-4{fill:#3e488d;}.cls-5{fill:#ccb631;}.cls-6{fill:#798090;}.cls-7{fill:#3a3a3a;}.cls-8{fill:#151312;}.cls-9{fill:#956243;}.cls-10{fill:#231f20;}.cls-11{fill:#684134;}.cls-12,.cls-13{fill:#151210;}.cls-13{stroke:#161311;stroke-width:0.57px;}.cls-13,.cls-15,.cls-16,.cls-19,.cls-20,.cls-31,.cls-43,.cls-46{stroke-miterlimit:10;}.cls-14,.cls-42{fill:#fff;}.cls-15{fill:#f9f6e7;stroke:#cdbc9b;}.cls-15,.cls-19{stroke-width:2px;}.cls-16,.cls-19,.cls-20,.cls-31,.cls-43,.cls-46{fill:none;}.cls-16{stroke:#d09d35;stroke-width:1.74px;}.cls-17{fill:#9f2421;}.cls-18{fill:#d09d35;}.cls-19,.cls-20,.cls-46{stroke:#231f20;}.cls-21{fill:#dbc425;}.cls-22{fill:#191e1e;}.cls-23{fill:#d8d8d8;}.cls-24{fill:#a52722;}.cls-25{fill:#b06b5b;}.cls-26{fill:#844e43;}.cls-27{fill:#dfa826;}.cls-28{fill:#273238;}.cls-29{fill:#465b65;}.cls-30{fill:#98712b;}.cls-31{stroke:#dfa826;stroke-width:2.6px;}.cls-32{fill:#ce8d2a;}.cls-33{fill:#010101;}.cls-34{fill:#878787;}.cls-35{fill:#13110f;}.cls-36{fill:#853324;}.cls-37{fill:#622515;}.cls-38{fill:#653c29;}.cls-39{fill:#31160e;}.cls-40{fill:#f1eef7;}.cls-41{fill:#273339;}.cls-42{opacity:0.14;}.cls-43{stroke:#414141;stroke-width:1.05px;}.cls-44{fill:#5a3426;}.cls-45{fill:#714533;}.cls-46{stroke-width:1.84px;}.cls-47{fill:#cc8d2a;}</style></defs><g id="Layer_1" data-name="Layer 1"><polyline class="cls-1" points="-1.76 1056.85 -1.76 -0.46 1301.38 -0.46 1301.38 1056.85"/><path class="cls-2" d="M791.23,1057.31l9.49-224.59c4.07-41.79,7.41-85.84-13.05-123.49l-32.23-65.11L506.66,629.64,486,734.72c-4.82,24.53-9.32,64-7.34,88.82l18.45,233.31s119.93.46,154.43.46Z"/><path class="cls-3" d="M1060.83,1056.85l5.74-219.14c3.28-33.67,6-69.16-10.51-99.48l-26-52.46L829.68,674.11l-16.63,84.65c-3.88,19.76-7.51,51.53-5.91,71.55l13.1,226.54s99.59.46,127.38.46S1060.83,1056.85,1060.83,1056.85Z"/><g id="freepik--character-1--inject-1279"><path class="cls-4" d="M528.41,485.12c0,.17,18.48-11.33,18.48-11.33l-50.07,79.26-46.64,27.18s-1.06-2.68-.28,2.75c2.27,15.06,9.58,32.89,14.3,42.25,4.55,9,20,20.08,38.28,23.57,12.34,2.36,23.82-11.33,30.91-21.71,13.67-24.14,34.64-82,38.79-130.92l1.2-32.32C562.74,462.69,539.27,486.44,528.41,485.12Z"/></g><path class="cls-5" d="M508.52,357.19c17.27-.37,74.36,41.92,2.32,108.32C451.06,520.6,423.7,544.6,402.4,560c-21.88,15.78-77.08,18.76-65.51-14.75C348.36,512,473.81,357.93,508.52,357.19Z"/><path class="cls-6" d="M538.67,636.09a606.8,606.8,0,0,0,65.6,4.2c22.71.28,45.43-.51,68.11-1.69,14-.73,28.07-1.6,42.1-2.51,1.6-.11,1.62-2.61,0-2.51-24.17,1.56-48.35,3.06-72.56,3.8-22,.68-44.14.69-66.17-.54q-18.59-1-37.08-3.26c-1.59-.19-1.58,2.32,0,2.51Z"/><path class="cls-5" d="M759.28,643.88C742.85,536,769.52,382.57,765.89,378.49c-7.68-8.67-79.11-30.73-92.88-30.73H585.74c-13.76,0-76.93,4.56-84.61,13.22-3.62,4.09,27.49,203,8.25,283.87C502.53,673.65,763.74,673.11,759.28,643.88Z"/><path class="cls-5" d="M679.51,349.43c-16.22,5.94-40.9,48.62,50.71,83.37,76,28.83,115.28,58.62,140.77,64.93,26.18,6.49,73.58-29.06,50.35-55.84-15.83-18.23-88.66-71.39-155.56-92.46C734.45,339.57,689.31,345.84,679.51,349.43Z"/><path class="cls-5" d="M516.07,617.46s-22.87,56.95-27.8,89-10.06,90.19-10.06,90.19S599,826.13,677.1,818.92,808.53,789.8,808.53,789.8s-15.61-131.86-52.38-172.34C756.15,617.46,559.4,642.26,516.07,617.46Z"/><path class="cls-2" d="M595.65,567.68s50.65-19.53,92.73,0C688.38,567.68,629.94,563,595.65,567.68Z"/><path d="M925.86,751.89,923.38,950.8s-103.74.07-121.8-32.15c0,0-6.39-145,6.51-207.21S848.75,620,848.75,620L925.21,736.6"/><path d="M951.62,736.6l4.83,214.2s94.52,0,124.74-39.2c0,0-2.84-112.58-15.74-174.83S1028.08,620,1028.08,620L951.62,736.6"/><path class="cls-7" d="M287.31,1057.26q27.35-.24,54.68-.51l3.38-155.66s4,93.72,6.56,155.58c15.17-.13,30.35-.26,45.52-.18,13.88.07,27.71,1.7,41.58,2.2,3.65.14,7.38.24,11.12.21,3.46-46.7,18.66-253.17,8.5-300.1l-4.15-25.22-35.45-15.05L223.43,735.89c0,1.23-5.34,62.88,0,130.82,4.56,58,11.32,126,18.3,190.83Q264.52,1057.47,287.31,1057.26Z"/><path d="M900.2,340.85c15.16-1.61,23.23-12.6,60.19-35.91L853.54,185.08,841,191.38a43.64,43.64,0,0,0-10.93,9.35,38.54,38.54,0,0,0-2.65,3.57c-10.51,14.21-12.41,31.85-5.1,47.2,3.54,7.29,9.23,15.12,5.77,22.58s-14.51,10.55-17.64,18c-3.69,8.79,5.54,17.38,6.56,26.63.66,9-6.33,17.24-16.5,19.41,1.22-.26,4.47,1.29,5.77,1.6,2.08.5,9.9,2.89,12,3.25,4.35.73,13.7,3,18.13,3.16a113.1,113.1,0,0,1,13.36,1.47c4.69-5.64,6.22-23.49,6.22-23.49,1.12,8.61-.8,20.44-1.49,24.23a145.24,145.24,0,0,0,16.45,2c7.64.25,18.86.54,26.5.9S892.7,341.64,900.2,340.85Z"/><path class="cls-8" d="M783.7,315.23a8.32,8.32,0,0,0,1.26,5.36,7.5,7.5,0,0,0,5.3,3.45,7.75,7.75,0,0,0,7.17-3.78,7.15,7.15,0,0,0,.85-4.77,14.88,14.88,0,0,0-2-5.09c-1.88-3.27-5-6.6-5.63-11.29a17.1,17.1,0,0,1,3.69-13.43,19.9,19.9,0,0,1,5.71-4.82,29.5,29.5,0,0,1,7.19-2.72,41.35,41.35,0,0,0,7-2.32,9.92,9.92,0,0,0,4.83-4.71,11.94,11.94,0,0,0,.67-6.61,23.69,23.69,0,0,0-1.95-6.31,50.36,50.36,0,0,1-4.56-11.78,19.06,19.06,0,0,1,1.49-11,24.15,24.15,0,0,1,5.53-7.2,48.73,48.73,0,0,0,4.59-4.94,14.43,14.43,0,0,0,2.37-5.14l0,.38a5.19,5.19,0,0,1-.2,1.1,11,11,0,0,1-1.85,3.94,43.13,43.13,0,0,1-4.5,5.14,24,24,0,0,0-5.21,7.11,18,18,0,0,0-1.28,10.4,49,49,0,0,0,4.59,11.47,24.23,24.23,0,0,1,2.07,6.58,13.09,13.09,0,0,1-.73,7.27,10.86,10.86,0,0,1-5.41,5.34,41.62,41.62,0,0,1-7.24,2.43,28.84,28.84,0,0,0-6.9,2.58,18.62,18.62,0,0,0-5.38,4.53,16.08,16.08,0,0,0-3.51,12.49c.56,4.29,3.45,7.49,5.4,11a15.8,15.8,0,0,1,2,5.47,8,8,0,0,1-1,5.33,8.45,8.45,0,0,1-7.9,4,8.13,8.13,0,0,1-6.77-8.06A4.92,4.92,0,0,1,783.7,315.23Z"/><path class="cls-8" d="M1059.69,304a8.29,8.29,0,0,1-1.26,5.36,7.47,7.47,0,0,1-5.3,3.45,7.71,7.71,0,0,1-7.17-3.78,7.12,7.12,0,0,1-.85-4.76,14.8,14.8,0,0,1,2-5.09c1.88-3.28,5-6.61,5.64-11.3a17.13,17.13,0,0,0-3.7-13.42,19.9,19.9,0,0,0-5.71-4.82,29.1,29.1,0,0,0-7.19-2.72,40.52,40.52,0,0,1-7-2.33,9.87,9.87,0,0,1-4.83-4.71,11.91,11.91,0,0,1-.67-6.6,23.31,23.31,0,0,1,2-6.32,50.7,50.7,0,0,0,4.55-11.77,19,19,0,0,0-1.49-11,24.19,24.19,0,0,0-5.53-7.21,47.58,47.58,0,0,1-4.59-4.93,14.4,14.4,0,0,1-2.37-5.15l0,.38a5.17,5.17,0,0,0,.2,1.11,10.86,10.86,0,0,0,1.86,3.93,41.53,41.53,0,0,0,4.49,5.15,24,24,0,0,1,5.21,7.1,18,18,0,0,1,1.28,10.4,49.34,49.34,0,0,1-4.58,11.48,23.8,23.8,0,0,0-2.08,6.58,13.15,13.15,0,0,0,.73,7.26,10.84,10.84,0,0,0,5.41,5.35,41,41,0,0,0,7.24,2.42,28.45,28.45,0,0,1,6.9,2.59,18.46,18.46,0,0,1,5.38,4.53,16,16,0,0,1,3.51,12.48c-.56,4.29-3.45,7.5-5.39,11a15.34,15.34,0,0,0-2,5.47,7.92,7.92,0,0,0,1,5.32,8.47,8.47,0,0,0,7.9,4,8.14,8.14,0,0,0,6.77-8.06A4.64,4.64,0,0,0,1059.69,304Z"/></g><g id="Layer_3" data-name="Layer 3"><path d="M1033.37,223.22c-3.21-5-7.88-9.44-10.41-14.65-5.49-11.23-.71-25.13-10-34.73-6.63-6.85-18.36-9.19-29.26-10.49s-22.53-2.07-31.44-7.09c-6.55-3.67-10.94-9.27-17.49-13-9.31-5.3-21.67-6-33.15-5.22-11.89.49-8.85,14.52-18.9,19.47a39.92,39.92,0,0,1-4.89,2c-4.86,12-14.53,24.94-27.53,26.62-1.67,3.42-4.3,6.62-5.84,10.11-4.16,10.22,1.15,21.32,12.9,27l95.83,70.87c17.82,3,57.49-7.72,68.68-18.9S1041.42,235.83,1033.37,223.22Z"/><path d="M1043.54,316.58c-4.92-5.57-7.34-11.23-6.94-18.67.05-.79.12-1.56.2-2.33-3.12-7.26-4.55-15.25-5.4-23.05a214.32,214.32,0,0,1-1-22.81,12.45,12.45,0,0,1-3.73-5.84c-1.69-6.47,2.92-10.83,2.9-16.2s-6.24-11.47-11.56-12.05l-53.81,49.69c-8.22,18.86-14.43,28.38-12.75,41,1.39,6.77-8.13,9.71-8.23,16.62-.61,6.9-10.43,20.14-16.8,22.87,23.86,7.37,65.89,2.38,89.66-5.17l6.71-2.17c-7.72-6.69-10.39-24.43-10.39-24.43,2.69,7.3,8.4,18.24,13.78,23.2.15.22,3.42-.57,3.7-.56,4.55.15,18.05-5.91,26.45-9.92A45,45,0,0,1,1043.54,316.58Z"/><path class="cls-9" d="M305.5,410.59c1.26-6.12,0-38.43,0-38.43l34,1.69,34-1.69s-1.25,24.91,0,31c0,0,18.75,12.47,40.07,15.64L338.2,480.11l-72.28-54C282.89,422.28,305.5,410.59,305.5,410.59Z"/><path class="cls-4" d="M227.36,677.57s-4.85-237.17-1.83-239.94c12.55-11.5,61.54-21,61.54-21S321.55,474,339,476.1c4.89.59,52.3-66.23,52.3-66.23s62.86,12.47,75.73,20.77c22.17,14.29,41,81,41,81V560l-50,25.43s-2.8,77.91-3.44,121.06c0,0,3.45,43.81,7.89,58.46-31.64,33.81-78.64,27.85-127.55,27.85-40.28,0-84.28-4.93-113.79-28.83"/><path class="cls-9" d="M377.15,295.37s5.34-10.35,9-10.33c2.2,0,7.53,5.91,7.47,11.53-.08,7.53-5.32,16.07-6.63,20.46s-1.09,10.7-6.94,10.66c-2.31,0-5.17-4.86-5.17-4.86S375.94,302.19,377.15,295.37Z"/><path class="cls-10" d="M380.29,305.63a41.79,41.79,0,0,1,5.7-9.44,12.57,12.57,0,0,1,1.92-1.87,4.74,4.74,0,0,1,.64-.43c.1-.05.36-.18.15-.08l.26-.11c.23-.11-.2.05.05,0s-.07,0,0,0c.22,0-.1,0-.06,0l-.44-.12a6,6,0,0,1,1,2.17,12.59,12.59,0,0,1-.09,6.56c-.13.55,1.51.3,1.64-.22a12.3,12.3,0,0,0-.29-7.84A3.85,3.85,0,0,0,390,293a1,1,0,0,0-.79-.12c-2.26.32-4.11,2.47-5.42,4.15a47.27,47.27,0,0,0-5.17,8.86c-.16.33.55.32.7.31a1.23,1.23,0,0,0,.94-.53Z"/><path class="cls-10" d="M381.32,307.5c1.66-.06.88,3.37.76,4.23-.16,1.09-.8,4,1.16,3.8a2.37,2.37,0,0,0,1.81-1.65,19.15,19.15,0,0,0,1.17-4.07,15.4,15.4,0,0,0,.27-5.15c-.25-2.06-.91-4.67-3-5.6a1.27,1.27,0,0,0-1.18.13c-.21.15-.49.57-.11.74,1.71.75,2.28,2.83,2.56,4.53a12.32,12.32,0,0,1,.09,3.88,27.91,27.91,0,0,1-1,4.44,7.47,7.47,0,0,1-.6,1.46,3.5,3.5,0,0,0-.23.35l-.06.06a.54.54,0,0,1,.43-.12c.44,0,.31.07.3-.08s-.17-.46-.19-.68a5.42,5.42,0,0,1,.07-1.14c.1-.9.27-1.8.35-2.7a4.62,4.62,0,0,0-.23-2.47,2.15,2.15,0,0,0-2.2-1c-.87,0-1.32,1.09-.19,1.05Z"/><path class="cls-9" d="M399.62,316.69s5.34-10.35,9-10.33c2.2,0,7.53,5.91,7.47,11.53-.08,7.53-5.33,16.07-6.63,20.46s-1.09,10.7-6.94,10.66c-2.31,0-5.17-4.86-5.17-4.86S398.41,323.51,399.62,316.69Z"/><path class="cls-10" d="M402.72,327.14a41.6,41.6,0,0,1,5.69-9.45,12.5,12.5,0,0,1,1.89-1.83,3.28,3.28,0,0,1,.38-.27l.18-.12.06,0,.55-.26c-.16.07-.12,0,0,0l.18,0c-.11,0-.26,0-.1,0h-.17l-.46-.22a6.26,6.26,0,0,1,1,2.13,12.54,12.54,0,0,1-.1,6.52c-.19.75,1.49.55,1.66-.14a12.36,12.36,0,0,0-.3-7.88c-.3-.7-.62-1.64-1.53-1.54-2.19.25-4.06,2.48-5.3,4.08a47.15,47.15,0,0,0-5.21,8.89c-.39.82,1.26.78,1.56.16Z"/><path class="cls-10" d="M402.47,329.28c2-.07,1.25,3.27,1.08,4.43s-.92,4.12,1,4.12a2.38,2.38,0,0,0,2.11-1.63,18.33,18.33,0,0,0,1.3-4.41,16.52,16.52,0,0,0,.29-5.47c-.27-2.2-1-4.95-3.19-5.93a1.44,1.44,0,0,0-1.24.17c-.22.14-.54.5-.16.68,1.83.8,2.44,3.06,2.74,4.86a12.79,12.79,0,0,1,.13,4,30.25,30.25,0,0,1-1.07,4.89,8.48,8.48,0,0,1-.6,1.51c0,.07-.32.43-.31.49s0,0,0,0l.84-.13-.07-.07c0-.2-.21-.5-.23-.74a6.13,6.13,0,0,1,.05-1.21c.11-.94.28-1.86.38-2.79.18-1.84,0-3.86-2.34-3.78-.35,0-1,.11-1.15.48s.14.52.47.51Z"/><path class="cls-11" d="M375.94,377.08c-.6.51-5,7.08-5.58,7.59-15.49,12.49-17.8,15.9-31.17,16.52-13.38-.62-19.12-2.71-33.51-18-4.84-5.15-3.78-6.87-4.84-7.82C324.87,375.31,351.88,376.89,375.94,377.08Z"/><path class="cls-9" d="M280.88,317.32s-5.35-10.35-9-10.33c-2.21,0-7.53,5.9-7.47,11.53.08,7.52,5.32,16.07,6.62,20.46s1.09,10.69,6.94,10.65c2.32,0,5.18-4.85,5.18-4.85S282.09,324.14,280.88,317.32Z"/><path class="cls-10" d="M281,327.15a47,47,0,0,0-4.39-7.72,15.15,15.15,0,0,0-3.2-3.39,4.3,4.3,0,0,0-1.88-.89c-.88-.14-1.29.51-1.63,1.2a11.42,11.42,0,0,0-.48,7.88c.17.67,1.71.27,1.54-.42a11.67,11.67,0,0,1-.09-6,6.87,6.87,0,0,1,.59-1.46c.07-.14.16-.28.24-.42s-.08.1,0,0l-.72.33c-.16,0-.25,0-.09,0s-.17-.06,0,0l.18.05.2.07c.22.08,0,0,.17.08a6.31,6.31,0,0,1,.65.4,16.47,16.47,0,0,1,4.07,4.68,53.36,53.36,0,0,1,3.32,6.08c.3.64,1.82.19,1.53-.41Z"/><path class="cls-10" d="M276.93,328.46a2.89,2.89,0,0,0-2.36.87,2.94,2.94,0,0,0-.53,1.95,18.59,18.59,0,0,0,.28,2.68,8,8,0,0,1,.16,2.28c0,.11-.08.23-.08.34s-.07.07-.07.11c0,.29.91,0,.87-.17s-.21-.22-.26-.28a3.65,3.65,0,0,1-.34-.61,17.42,17.42,0,0,1-1.12-3.88,14.93,14.93,0,0,1-.34-4.75c.18-1.68.59-4.44,2.37-5.22.24-.11.63-.35.44-.66s-.87-.11-1.09,0c-1.95.85-2.79,2.83-3.17,4.81a13,13,0,0,0-.21,4.22,27.47,27.47,0,0,0,1.06,4.82c.24.73.56,1.92,1.31,2.32a1.66,1.66,0,0,0,2.1-.72,3.79,3.79,0,0,0,.13-2.19c-.09-.72-1-5,.21-5,.33,0,.93-.12,1.09-.45s-.14-.47-.45-.48Z"/><path class="cls-9" d="M278.77,331.16c0,.14.08.4.15.77,1.46,8,3,18.71,4.25,22.75,4.94,15.77,30.32,40.65,56.15,40.65s51.2-24.88,56.14-40.65c.58-1.85,1.22-4.27,1.88-7.12,2.32-10,4.94-29.29,6.49-44.22h0c1.74-16.95,2.08-36.88-1-44.79-2.14-5.54-7.48-12-15.26-17.69h0a82.22,82.22,0,0,0-48.28-15.36c-33.24,0-54.82,19.31-60.15,33.06C274.38,271,274.57,308,278.77,331.16Z"/><path class="cls-10" d="M335.25,343.43a5.23,5.23,0,0,0,6.29.07c.41-.3,1.71.16,1.14.58a7.35,7.35,0,0,1-8.55-.29c-.22-.18-.17-.42.12-.52a1.14,1.14,0,0,1,1,.16"/><path class="cls-10" d="M343.6,342.67a13.19,13.19,0,0,1,4.89-1.33,1,1,0,0,1,.75.26c.14.14.17.33,0,.44a5,5,0,0,1-2.69.68,1,1,0,0,1-.83-.36c-.15-.25.13-.41.36-.41a3.81,3.81,0,0,0,2.16-.55l.74.7a11.69,11.69,0,0,0-4.37,1.21,1,1,0,0,1-.9-.11c-.17-.11-.37-.38-.1-.53"/><path class="cls-10" d="M350.24,342.9a5.3,5.3,0,0,0,4.44-2.61c1.24-2.46.09-5.37-2-6.94-.23-.17-.11-.39.12-.45a1.11,1.11,0,0,1,.89.24,6.56,6.56,0,0,1,2.72,5.88,5.2,5.2,0,0,1-3.85,4.28,7.18,7.18,0,0,1-1.85.33c-.25,0-.7-.09-.83-.35s.11-.37.35-.38"/><path class="cls-10" d="M333.07,343a13.2,13.2,0,0,0-4.89-1.34,1,1,0,0,0-.75.26c-.14.14-.17.33,0,.44a5,5,0,0,0,2.69.68,1,1,0,0,0,.83-.36c.14-.25-.13-.41-.36-.4a4,4,0,0,1-2.16-.55l-.74.7a11.67,11.67,0,0,1,4.37,1.2,1,1,0,0,0,.9-.1c.17-.12.37-.39.1-.53"/><path class="cls-10" d="M326.43,343.17a5.3,5.3,0,0,1-4.44-2.61c-1.24-2.45-.09-5.37,2-6.93.23-.18.11-.4-.12-.46a1.11,1.11,0,0,0-.89.24,6.57,6.57,0,0,0-2.72,5.89,5.2,5.2,0,0,0,3.85,4.27,7.18,7.18,0,0,0,1.85.33c.25,0,.7-.09.83-.35s-.11-.37-.35-.38"/><path class="cls-12" d="M368,306.23c2.17-1.12,4.71-.15,6.13,1.11a5.36,5.36,0,0,1,1.65,2.57,5.64,5.64,0,0,1-1.33,5.14,5.25,5.25,0,0,1-6,1.06,5.8,5.8,0,0,1-2.86-6.75,5.15,5.15,0,0,1,2.44-3.13"/><path class="cls-12" d="M354,315.53s7.6-9.79,15.69-9.79c11.39,0,14.07,5.76,16.55,8.75,0,0-7.39-7-16.2-6.84C362,307.82,354,315.53,354,315.53Z"/><path class="cls-12" d="M308.8,306.21c-2.17-1.12-4.71-.15-6.13,1.11a5.43,5.43,0,0,0-1.66,2.57,5.67,5.67,0,0,0,1.34,5.14,5.25,5.25,0,0,0,6,1.06,5.8,5.8,0,0,0,2.86-6.75,5.15,5.15,0,0,0-2.44-3.13"/><path class="cls-12" d="M322.8,315.51s-7.6-9.79-15.69-9.79c-11.39,0-14.08,5.76-16.55,8.75,0,0,7.39-7,16.19-6.84C314.74,307.8,322.8,315.51,322.8,315.51Z"/><path class="cls-13" d="M261.56,263.75h0c-2.2-8.75-3-14.16-.71-20.24,1.63-4.29,8.82-8.75,8.82-8.75s1.6-12.86,7.22-11.06c0,0,5.53-17.15,21.89-12.7,0,0,5-1.3,7.75,1.91,0,0,7.74-14.75,21.8-4.47,0,0,5.45-3.6,7.27.86,0,0,9.47-9.26,18.77-1.74,0,0,23.73-4.78,29.51,10.65,0,0,11.51-6,17.42,5.32,0,0,6,.51,6,9.07,0,0,8.89,2.73,9.69,8.35,0,0,5.11,4.22,4.74,13.17-.11,2.56-.93,1.88-1.74,5.35,4.88,10.23-2.61,11.43-2.61,11.43,7.59,9.51-2,21.28-2,21.28s3.77,7.37,1.67,12.06c-2.85,6.42-14.81,13.45-14.81,13.45s-2.82-17.31-2.13-28.27-7.9-30.11-10.74-34.25-21.18,3.26-52.58,3.26-39.88-5.83-43.62-4.79c-7.77,2.16-14.34,30.67-14.13,39.3s-2.36,24.89-2.36,24.89-16.67-7.39-12.17-21.87c0,0-3.34-16.74,1.19-20.47h0S257.29,268.83,261.56,263.75Z"/><path class="cls-12" d="M354,290.73c0,1.81,0,3.63,0,5.45,0,1.38,0,2.76,0,4.14,4.06-1.19,7.54-2,10.16-2.48,5.21-1,10.64-1.66,15.92-.81a16.86,16.86,0,0,1,6.86,2.48c.67.44,2.47,2.34,3.46,1.84.41-.2-.27-2.43-.34-2.66-1.39-4.48-5-6.33-9.31-7.38-8.89-2.13-17.82-1.85-26.83-.58"/><path class="cls-12" d="M323.73,290.73l0,5.45c0,1.38,0,2.76,0,4.14-4-1.19-7.43-2-10-2.48-5.13-1-10.47-1.66-15.67-.81a16.49,16.49,0,0,0-6.75,2.48c-.65.44-2.43,2.34-3.4,1.84-.4-.2.26-2.43.33-2.66,1.37-4.48,4.88-6.33,9.17-7.38,8.74-2.13,17.53-1.85,26.4-.58"/><path class="cls-14" d="M359.89,454.39l-19.8,19.4s-.25-16.5,2.18-22.18,7.05-7.58,11-4.82A27.18,27.18,0,0,1,359.89,454.39Z"/><path class="cls-14" d="M318.61,455.78l19.8,19.4s.25-16.49-2.19-22.18-7.05-7.58-11-4.82A27.18,27.18,0,0,0,318.61,455.78Z"/><g id="freepik--Character--inject-2"><path class="cls-4" d="M187.33,620.54c-8.63,4.9-13.63,14.23-29,10.14,0,0,0,0,0,0-11.44-3.93-22-16.87-24.26-19.82-35.69-46-66.77-123.44-66.77-123.44L105,459l73.9,89.71a3.31,3.31,0,0,0,0,.55c.22,8.46,1.81,16.75,3.7,25,1.66,7.21,3.49,14.4,4.6,21.72a85.4,85.4,0,0,1,.21,23.63C186.84,623.84,188.07,616.36,187.33,620.54Z"/><path class="cls-4" d="M225.57,587.68c-15.91,20.51-30.32,38-57,43.58.75-3.29-13.83-.88-13.27-4.2,2.85-16.68,5.78-25.46,2-42.08-3.28-14.4-1.62-22.15-3.2-36.9,9.87-20,16.74-38.12,26.61-58.14,3.85-7.81,8.17-16.88,12-24.69s9.3-17.9,15.9-23.67A58.23,58.23,0,0,1,221,433.82c11.24-5.67,28.32-9.81,40.61-11.16,0,31.9-6.67,66.51-8.94,98.42-1.35,19-6,37.51-11.91,55.54"/><path class="cls-9" d="M53.7,464.54a179.78,179.78,0,0,1-11-14.63l.2-35.39,34,24.51s1.86,31,1.34,32.36C78.21,471.39,54.38,464.44,53.7,464.54Z"/><path class="cls-9" d="M88.51,465.6,67,485.38,44.39,464.92s-14.29-12.55-14.63-16.1a16,16,0,0,1,.87-6.51s-3.33-4-2.38-8c1-2.86,1.27-3.91,3.66-5.77,0,0-2.11-7.66,0-9.95s30.19-16.44,30.19-16.44,5,5,1.06,7.87l5.68-.67a5.86,5.86,0,0,1,.3.55,5.48,5.48,0,0,1-2.59,7.3l7.19-.1s.56,6.55-3.18,9.11l6.55-.53a11.13,11.13,0,0,1-2.25,10.08C70.85,440,59,441.14,59,441.14L55.56,450s19.51,6.41,24.65,9.85S88.51,465.6,88.51,465.6Z"/><path class="cls-11" d="M49.66,455.11l.69,1.42a49.53,49.53,0,0,0,2.59-5.4,50.77,50.77,0,0,0,2.55-7.92l-1,.69a23.9,23.9,0,0,0,9.73-1.49c2.22-.8,3.41-1.5,3.33-1.7s-1.39.18-3.66.63a27.73,27.73,0,0,1-9.08.72L54,441.9l-.16.78a56.7,56.7,0,0,1-2.59,7.6c-.74,1.72-1.62,3.65-2.45,5.27l-.63,1.2,1.31.26c8.6,1.32,14.75,4,14.84,3.53A33.65,33.65,0,0,0,49.66,455.11Z"/></g><rect class="cls-15" x="51.65" y="367.36" width="130.9" height="195.49" transform="translate(194.35 938.46) rotate(-175.14)"/><path class="cls-16" d="M55.12,538.38l13-152.55c.3,0,.61,0,.92,0a10.86,10.86,0,0,0,10.82-9.94l86.94,7.4c0,.37-.05.74-.05,1.12a13.28,13.28,0,0,0,12.15,13.23L166.13,547.49a10.27,10.27,0,0,0-1.37-.1A10.85,10.85,0,0,0,154,557.3l-88.88-7.56c0-.18,0-.36,0-.54A10.87,10.87,0,0,0,55.12,538.38Z"/><g id="freepik--Label--inject-3"><path class="cls-17" d="M69.37,558.46l15.51,41.33a1,1,0,0,0,.59.6,1,1,0,0,0,1.23-.6L91,586.92s0-.07,0-.11a1,1,0,0,1,1.29-.47L105,592a1,1,0,0,0,.79,0,1,1,0,0,0,.49-1.27L89.82,552.36Z"/><path class="cls-17" d="M48,552.36l-10.42,42.9a1,1,0,0,0,.17.81,1,1,0,0,0,1.36.19L49.89,588l.07,0a1,1,0,0,1,1.34.31l7.36,11.78a1,1,0,0,0,.64.43,1,1,0,0,0,1.13-.77l7.9-41Z"/><polygon class="cls-18" points="72.95 481.25 77.2 486.44 83.43 483.94 86.25 490.03 92.92 489.15 94.14 495.76 100.81 496.56 100.35 503.27 106.61 505.7 104.5 512.08 109.95 516.01 106.33 521.66 110.64 526.81 105.72 531.38 108.61 537.44 102.7 540.65 104 547.24 97.48 548.88 97.1 555.58 90.38 555.55 88.34 561.95 81.84 560.24 78.27 565.93 72.4 562.66 67.53 567.29 62.66 562.66 56.79 565.93 53.22 560.24 46.72 561.95 44.68 555.55 37.96 555.58 37.58 548.88 31.06 547.24 32.35 540.65 26.45 537.44 29.35 531.38 24.42 526.81 28.73 521.66 25.1 516.01 30.56 512.08 28.45 505.7 34.71 503.27 34.25 496.56 40.92 495.76 42.14 489.15 48.8 490.03 51.63 483.94 57.86 486.44 62.12 481.25 67.53 485.23 72.95 481.25"/><circle class="cls-14" cx="67.53" cy="524.27" r="30.43" transform="translate(-350.93 201.31) rotate(-45)"/><path class="cls-18" d="M62.14,516.18l3.64-7.41a1.64,1.64,0,0,1,2.94,0l3.66,7.4a1.65,1.65,0,0,0,1.23.89l8.17,1.17a1.61,1.61,0,0,1,.94.48,1.64,1.64,0,0,1,0,2.32l-5.91,5.76a1.66,1.66,0,0,0-.46,1.45l1.4,8.13a1.63,1.63,0,0,1-2.37,1.73L68,534.27a1.65,1.65,0,0,0-1.53,0l-7.31,3.85a1.63,1.63,0,0,1-1,.17,1.65,1.65,0,0,1-1.34-1.89l1.39-8.15a1.61,1.61,0,0,0-.47-1.45l-5.91-5.75a1.61,1.61,0,0,1-.48-.94,1.64,1.64,0,0,1,1.38-1.86l8.16-1.19A1.63,1.63,0,0,0,62.14,516.18Z"/></g><path class="cls-10" d="M149,517.88l0,4c0,1,.45,3.86-1.19,3.62-1.2-.18-1.94-1.6-2.53-2.5a15.89,15.89,0,0,0-2.08-2.61c-.54-.54-1-1-1.82-.94a1.58,1.58,0,0,0-1.31,1c-.78,1.74-.52,4.46-2.53,5.4l1.16,0a23.17,23.17,0,0,0-3.22-4.8,10.35,10.35,0,0,0-3.91-3.23,3.17,3.17,0,0,0-3.15.44c-.59.56-.5,1.28-.83,2-.88,1.85-3.23.26-4.31-.43-.38-.25-1.66.33-1.35.53,1.38.89,2.81,1.71,4.51,1.42a3.22,3.22,0,0,0,2.72-2.12c.23-.7.17-1.26,1.24-1.16a2.77,2.77,0,0,1,1.18.63,15.46,15.46,0,0,1,2,1.88,22.85,22.85,0,0,1,3.67,5.27c.19.36.9.08,1.16,0a4,4,0,0,0,2.07-2.34A14.84,14.84,0,0,0,141,522c.15-.57.25-1.66.72-2.06l-.86.29c.67,0,1.82,1.68,2.19,2.16.59.75,1,1.6,1.62,2.36a3.56,3.56,0,0,0,3.46,1.56,2.51,2.51,0,0,0,2.3-2.31,60.9,60.9,0,0,0,0-6.48c0-.35-1.45-.11-1.44.39Z"/><line class="cls-19" x1="142.46" y1="416.08" x2="97.96" y2="412.94"/><line class="cls-20" x1="161.01" y1="437.63" x2="82.39" y2="430.98"/><line class="cls-20" x1="153.08" y1="531.37" x2="116.47" y2="528.73"/><line class="cls-20" x1="160.19" y1="450.27" x2="75.58" y2="443.63"/><line class="cls-20" x1="159.44" y1="463.21" x2="74.82" y2="456.56"/><path class="cls-21" d="M363.59,460.37S344.05,481,339.18,482s-23.32-20.36-23.32-20.36l3.52-7.07,19.8,20.26,20.47-20.66Z"/><path class="cls-14" d="M397.32,412.66l-5.06-5.82a54.24,54.24,0,0,0-12.13-10.11l-4.87-1.4h0a42.08,42.08,0,0,1-5.09,22.36A72.53,72.53,0,0,1,361,430.61l-18.74,21s6.52-6.72,9.57-5.34c8,3.63,12.45,17.58,12.45,17.58l12-13.59c6.89-7.31,13.16-19.05,18-28.39Z"/><path class="cls-9" d="M58,439.75l-3.87,4.8c-.08-.14-4.05,6.21-4.13,6.07-2-3.58,3.94-17.37,2.55-21.25a108.6,108.6,0,0,0-4.71-11.46,42.42,42.42,0,0,1-3-6.42c7.46-4.1,15.45-8.29,15.45-8.29s4.74,4.59,1.11,7.35l5.31-.71a3.6,3.6,0,0,1,.29.5,5.13,5.13,0,0,1-2.31,6.88l6.73-.2s.62,6.12-2.84,8.57l6.12-.6a10.38,10.38,0,0,1-2,9.47C69.11,438.52,58,439.75,58,439.75Z"/><path class="cls-11" d="M69,425.28a68.38,68.38,0,0,0-13.08,1.27,21,21,0,0,0-6.76,2.9,48.63,48.63,0,0,0-4.63,3.69c-2.51,2.19-4.23,3.22-4.15,3.4s2.07-.59,4.77-2.6c1.48-1.1,2.91-2.21,4.74-3.36a21.74,21.74,0,0,1,6.4-2.59,98.22,98.22,0,0,1,12.78-1.67,14.61,14.61,0,0,0,5.33-1.11A31.41,31.41,0,0,0,69,425.28Z"/><path class="cls-11" d="M43.81,425.09l4.69-2.82a15.11,15.11,0,0,1,2.73-1.5,20.9,20.9,0,0,1,3.22-.95c4.56-1,8.89-1.29,12-1.69a16,16,0,0,0,5-1,21.06,21.06,0,0,0-5.08-.07,73.79,73.79,0,0,0-12.23,1.31,22,22,0,0,0-3.44,1.06,14.74,14.74,0,0,0-2.9,1.69l-4.55,3.11a17.52,17.52,0,0,0-3.94,3A17.49,17.49,0,0,0,43.81,425.09Z"/><path class="cls-11" d="M40.93,418.82l4.57-2.42,2.69-1.48,1.4-.8.72-.38.67-.24c4.19-1.12,8.19-1.79,11.15-2.42a18.28,18.28,0,0,0,4.61-1.24,14.89,14.89,0,0,0-4.8.24,85.33,85.33,0,0,0-11.42,2,6.08,6.08,0,0,0-.89.35l-.72.41-1.4.8-2.65,1.57-4.42,2.67c-2.51,1.57-4,2.63-3.9,2.83A17,17,0,0,0,40.93,418.82Z"/><path class="cls-22" d="M229.87,668.17c0-1.54,0-3.26,0-5.43,0-5-.11-11.79-.21-20-.36-16.89-.71-38.76-1.39-65.94-.64-25.72-1.36-49-1.94-65.9-.33-8.25-.61-14.95-.79-20-.12-2.16-.24-3.93-.34-5.43a6.59,6.59,0,0,0-.25-1.87,7.55,7.55,0,0,0,0,1.9c0,1.59,0,3.3-.06,5.47-.15,5-.08,11.75,0,19.95.31,16.72.76,40.19,1.4,65.94s1.39,49,2,65.9c.33,8.22.64,15,.87,20"/><path class="cls-22" d="M454.85,668.12c.14-1.54.24-3.25.39-5.42.31-5,.71-11.76,1.17-20,.8-16.88,1.95-38.72,3.15-65.88,1.13-25.7,2-49,2.59-65.88.24-8.26.42-15,.59-20,0-2.16,0-3.94,0-5.44a6.6,6.6,0,0,0-.13-1.88,7.54,7.54,0,0,0-.12,1.9c-.14,1.58-.25,3.29-.43,5.45-.5,4.95-.89,11.71-1.39,19.9-.85,16.7-2,40.15-3.15,65.88s-2,49-2.55,65.88c-.24,8.23-.39,15-.51,20"/><path class="cls-3" d="M935,727a198.63,198.63,0,0,0,75.9-14.76l11-43.12L856.84,591c-14.09,38.72-18.6,82.18-20.23,112.88C865.25,718.69,899.06,727,935,727Z"/><path class="cls-23" d="M1021.57,541.64c.06.88.15,1.76.23,2.63l-2.27-.37C1020.23,543.16,1020.88,542.39,1021.57,541.64Z"/><path class="cls-24" d="M1057,457.32s-6.82,127-45.46,140-2.22-132.82-2.22-132.82S1030.08,432.27,1057,457.32Z"/><path class="cls-24" d="M838.89,467s50.05,116.86,21.18,145.67S799.31,494.5,799.31,494.5,803.67,456.4,838.89,467Z"/><path class="cls-23" d="M1003.56,429.42c.07,1.06.16,2.1.24,3.15l-2.36-.45C1002.17,431.24,1002.84,430.31,1003.56,429.42Z"/><g id="freepik--Character--inject-2-2" data-name="freepik--Character--inject-2"><path class="cls-3" d="M1043.75,447c-2.3-9.94-16.76-62-19.61-71.84-2.38-8.23-47.38-8.73-55.37-12.14-28.56-12.21-7.55,23.3-38.6,24.39-17.34.6-33.49-28.46-50.53-25.2-4,.76-49.15,41-49.15,41.3L854,591a289.82,289.82,0,0,0-10.43,36.37l8.36,1.25c14.64,2.23,29.09,4.76,43.51,8.19s28.73,7.28,43.1,10.91c26.75,6.76,54,13.08,81.7,13.73.71-11.1-2.78-20.7-3.32-33-.32-7.2-3.56-21.92-4-28.76-.53-8.06-2.59-41.71-1.09-50.17,2.72-15.36,5.41-17.15,5.11-32.8-.38-19.48,4.37-27.47,13.4-45.74C1027.71,460.23,1047.08,461.39,1043.75,447Z"/></g><path class="cls-9" d="M955,296.31s5.68,55.66,7.23,60.92l6.54,5.79-3.67,9.55c-20,21.85-21.41.6-50.57-4.75l-34.89-5.61s5.29-4,6.55-8.48c5.21-18.58,3.3-48.89,3.3-48.89"/><path class="cls-9" d="M968.77,363s-1.46,13.31-9.43,23.41-40.84,12.07-61,0-18.66-24.22-18.66-24.22Z"/><path class="cls-11" d="M959.34,336.3S945.17,358,924.62,355.09c-12.71-1.78-28.94-10.14-35.36-20.82Z"/><path class="cls-9" d="M859,254.22s-6.94-13.44-11.65-13.4c-2.86,0-9.78,7.66-9.7,15,.11,9.77,6.91,20.86,8.61,26.56s1.41,13.88,9,13.83c3,0,6.72-6.3,6.72-6.3S860.58,263.08,859,254.22Z"/><path class="cls-10" d="M856.76,267.48a66.67,66.67,0,0,0-6.07-10.65,21.07,21.07,0,0,0-4.39-4.65A6.24,6.24,0,0,0,844,251c-1.08-.22-1.58.57-2,1.44-1.67,3.33-1.54,7.26-.65,10.79.15.62,1.67.22,1.51-.4a16.51,16.51,0,0,1-.13-8.46,10.41,10.41,0,0,1,.84-2.08c.1-.2.22-.39.34-.58s.16-.21.07-.1l-.9.32s.11,0,.13,0-.17,0,0,0l.25.07a2.38,2.38,0,0,1,.58.24,8,8,0,0,1,.88.54,22.86,22.86,0,0,1,5.73,6.57,73.16,73.16,0,0,1,4.62,8.48c.29.6,1.77.14,1.52-.4Z"/><path class="cls-10" d="M853.78,268.88c-5.57-.2-2.27,6.87-2.75,9.87a3.15,3.15,0,0,0-.11.44c0,.07-.15.19-.14.24s.61,0,.58-.16-.29-.29-.34-.36a4.57,4.57,0,0,1-.46-.84,22.56,22.56,0,0,1-1.46-5,19.56,19.56,0,0,1-.44-6.23c.25-2.31.84-5.89,3.26-7,1-.42.08-.87-.59-.58-2.43,1.08-3.46,3.61-3.93,6.07a16.51,16.51,0,0,0-.27,5.43A36.23,36.23,0,0,0,848.5,277c.29.9.71,2.44,1.63,2.94a1.74,1.74,0,0,0,2.2-.79,4.85,4.85,0,0,0,.15-2.75c-.15-1.22-1.57-6.83.7-6.75.55,0,1.61-.78.6-.81Z"/><path class="cls-9" d="M990,256.8s6.94-13.43,11.65-13.4c2.86,0,9.78,7.66,9.7,15-.11,9.77-6.91,20.87-8.61,26.56s-1.41,13.89-9,13.84c-3,0-6.72-6.31-6.72-6.31S988.4,265.66,990,256.8Z"/><path class="cls-10" d="M993.71,270.36a54.4,54.4,0,0,1,7.43-12.3,16.75,16.75,0,0,1,2.53-2.45,6.39,6.39,0,0,1,.87-.57l.38-.19c.08,0,.43-.18.18-.09a3.07,3.07,0,0,1,.52-.14c-.23,0-.15,0,0,0l-.63-.24a8.05,8.05,0,0,1,1.3,2.8,16.45,16.45,0,0,1-.12,8.5c-.19.76,1.36.6,1.53-.1a16,16,0,0,0-.39-10.18c-.32-.74-.73-2-1.72-1.93a5.7,5.7,0,0,0-2.42,1.05,18.36,18.36,0,0,0-4.17,4.13,61.58,61.58,0,0,0-6.73,11.5c-.37.8,1.15.84,1.46.2Z"/><path class="cls-10" d="M995.43,272.41c4.26-.15-1.64,10.72,2.5,10.43,1.08-.08,1.67-1.22,2.05-2.09a26.18,26.18,0,0,0,1.53-5.49,19.67,19.67,0,0,0,.25-6.49c-.35-2.71-1.24-5.91-4-7.12-.62-.27-1.76.62-.88,1,2.19,1,2.91,3.81,3.25,5.95a16,16,0,0,1,.11,5,34.94,34.94,0,0,1-1.32,5.88,10,10,0,0,1-.76,1.82c-.06.1-.35.41-.34.49s0-.08.08,0c.71.52.22-.13.22-.13,0-.31-.22-.66-.23-1a8.88,8.88,0,0,1,.1-1.46c.13-1.14.35-2.27.45-3.42a6,6,0,0,0-.3-3.17,2.57,2.57,0,0,0-2.61-1.25c-.85,0-1.17,1.12-.14,1.08Z"/><path class="cls-9" d="M999.1,257a.06.06,0,0,0,0,.05c-1.59,8.07-3.56,16.57-4.91,26.32-3.59,25.72-11.24,37.54-28.72,48.9-18.31,11.91-23.8,16.55-39.61,17.14-15.81-.59-21.31-5.23-39.61-17.14-17.47-11.36-25.14-23.18-28.71-48.9-.8-5.74-1.8-11-2.82-16.06-.75-3.74-1.52-7.34-2.21-10.85a1.55,1.55,0,0,0,0-.15.28.28,0,0,1,0-.05c-2.52-12.91-4.05-24.82-.59-39.21,5.91-24.7,13.52-31.89,34.6-45h0c11-6.87,24.32-14.5,39.36-14.5,40.58,0,68.33,32.72,74,56.39C1003.35,228.61,1001.7,243.84,999.1,257Z"/><path class="cls-10" d="M929.47,289a5.47,5.47,0,0,1-6.61,0c-.42-.32-1.8.16-1.21.6a7.69,7.69,0,0,0,9-.25c.24-.2.19-.45-.12-.56a1.22,1.22,0,0,0-1,.17"/><path class="cls-10" d="M920.68,288.71a13.88,13.88,0,0,0-5.16-1.41,1.12,1.12,0,0,0-.8.28c-.15.14-.18.34,0,.46a5.19,5.19,0,0,0,2.83.71,1,1,0,0,0,.88-.37c.15-.26-.14-.43-.37-.43a4.16,4.16,0,0,1-2.29-.58l-.78.74a12.34,12.34,0,0,1,4.61,1.27,1,1,0,0,0,1-.11c.19-.12.39-.41.11-.56"/><path class="cls-10" d="M913.67,289a5.58,5.58,0,0,1-4.69-2.76c-1.31-2.59-.09-5.66,2.11-7.32.24-.18.11-.41-.13-.48a1.18,1.18,0,0,0-.94.25,6.92,6.92,0,0,0-2.87,6.22,5.48,5.48,0,0,0,4.06,4.51,7.53,7.53,0,0,0,1.95.35,1,1,0,0,0,.88-.37c.13-.27-.12-.39-.37-.4"/><path class="cls-10" d="M931.6,288.82a13.81,13.81,0,0,1,5.16-1.4,1.09,1.09,0,0,1,.79.27c.15.15.18.34,0,.46a5.23,5.23,0,0,1-2.84.71,1,1,0,0,1-.87-.37c-.16-.26.13-.43.37-.43a4,4,0,0,0,2.28-.58l.78.74a12.34,12.34,0,0,0-4.61,1.27,1,1,0,0,1-.94-.11c-.19-.12-.4-.41-.11-.56"/><path class="cls-10" d="M938.6,289.06a5.61,5.61,0,0,0,4.7-2.76c1.3-2.59.09-5.66-2.11-7.32-.24-.18-.11-.41.13-.48a1.2,1.2,0,0,1,.94.26,6.91,6.91,0,0,1,2.86,6.21,5.48,5.48,0,0,1-4,4.51,7.27,7.27,0,0,1-2,.35c-.27,0-.75-.1-.88-.37s.11-.39.36-.4"/><path d="M891.31,250.45c-2-1.06-4.43-.14-5.77,1a5.23,5.23,0,0,0-1.56,2.42,5.34,5.34,0,0,0,1.26,4.85,5,5,0,0,0,5.68,1,5.46,5.46,0,0,0,2.69-6.36,4.85,4.85,0,0,0-2.3-2.94"/><path d="M960.24,251.22a5.33,5.33,0,0,1,5.77,1,5.1,5.1,0,0,1,1.56,2.42,5.3,5.3,0,0,1-1.26,4.84,4.93,4.93,0,0,1-5.68,1,5.47,5.47,0,0,1-2.69-6.36,4.86,4.86,0,0,1,2.3-2.94"/><path d="M943.57,259.05s10.89-8.29,16.46-8.82c8.13-.78,18.14,3.57,21,7.47,0,0-13.25-6.51-19-5.8C956.63,252.58,943.57,259.05,943.57,259.05Z"/><path d="M907.66,257.69s-10.6-8.29-16-8.82c-7.91-.78-17.66,3.57-20.46,7.47,0,0,12.9-6.51,18.45-5.8C895,251.22,907.66,257.69,907.66,257.69Z"/><path d="M945.39,235.64c0,1.78,0,.78,0,2.58,0,1.36,0,2.72.05,4.08,4.36-1.17,7.48-2.44,10.3-2.94,5.59-1,12-2.87,17.64-2,2.72.4,6.8,1.57,8.76,4,.52.65,1.32,2.49,2.38,2,.44-.2-.29-2.4-.37-2.62-1.49-4.42-5.32-6.25-10-7.28-9.54-2.1-14.34-1.76-28.79,1.91"/><path d="M906.23,235.64c0,1.78,0,.78,0,2.58,0,1.36,0,2.72-.05,4.08-4.36-1.17-7.48-2.44-10.3-2.94-5.59-1-12-2.87-17.64-2-2.72.4-6.61,1.06-8.56,3.49-.53.65-1.51,3-2.58,2.5-.44-.2.29-2.4.37-2.62,1.49-4.42,5.32-6.25,10-7.28,9.54-2.1,14.34-1.76,28.79,1.91"/><path class="cls-9" d="M1164,295.89l4.28-21.45s-4.1-27.63-2.89-31.38,4.1-22.08,4.1-22.08l20.94-18.68a6.65,6.65,0,0,1,5.83,4.57s8.54.2,9.77,6.23a4.86,4.86,0,0,1,6.33,2.71,4.77,4.77,0,0,1,.35,2,23.82,23.82,0,0,1-.13,5.47c1.17.41,8,2.93,7.65,6.42a54.8,54.8,0,0,1-4.76,15.36,5.92,5.92,0,0,1-4.7,3.07h0l-3.17,9.26s-3.64,15.38-8,22.26l-3.13,4-3.23,21.06A53.66,53.66,0,0,1,1164,295.89Z"/><path class="cls-25" d="M1200.07,220.49a37.74,37.74,0,0,0-4.18-14.5l-7.62,3.68a47.13,47.13,0,0,0,2.08,7.39,9.31,9.31,0,0,0,5.32,6.36,3.37,3.37,0,0,0,4.27-1.08A4.29,4.29,0,0,0,1200.07,220.49Z"/><path class="cls-26" d="M1188.27,209.67a4.26,4.26,0,0,0,.13,1.51,31.6,31.6,0,0,0,1.12,3.94c.25.86.5,1.74.81,2.76a10.39,10.39,0,0,0,1.49,2.93,8.11,8.11,0,0,0,2.68,2.5,5,5,0,0,0,3.9.59,2.75,2.75,0,0,0,1.65-1.36,3.88,3.88,0,0,0,.26-2,24.2,24.2,0,0,0-.41-3.6,32.16,32.16,0,0,0-1.67-5.84c-.62-1.63-1.22-2.77-1.64-3.76a9.91,9.91,0,0,0-.73-1.31,5.8,5.8,0,0,0,.51,1.41c.37.89.91,2.19,1.48,3.79a40,40,0,0,1,1.5,5.81,29.44,29.44,0,0,1,.39,3.51,3.75,3.75,0,0,1-.23,1.72,1.94,1.94,0,0,1-1.29,1,4.35,4.35,0,0,1-3.43-.52,8,8,0,0,1-2.55-2.3,10.44,10.44,0,0,1-1.47-2.78c-.33-.93-.59-1.87-.89-2.75-.57-1.63-1-2.93-1.26-3.87S1188.3,209.67,1188.27,209.67Z"/><path class="cls-26" d="M1198.21,223.65a1.41,1.41,0,0,0,0,.41,6,6,0,0,0,0,1.2,10.56,10.56,0,0,0,.66,4.42,13.61,13.61,0,0,0,3.73,5.56,5,5,0,0,0,3.78,1.3,3.71,3.71,0,0,0,2-.91,3.59,3.59,0,0,0,1-2.06,19.23,19.23,0,0,0-.24-4.22c-.16-1.35-.34-2.75-.56-3.85-.47-2.42-.88-4.59-1.22-6.46s-.58-3.35-.72-4.37a9.82,9.82,0,0,0-.29-1.62,8.16,8.16,0,0,0,0,1.64,33.2,33.2,0,0,0,.55,4.42c.29,1.87.68,4.07,1.09,6.49.19,1.2.38,2.5.54,3.81a18.65,18.65,0,0,1,.2,4.09,2.94,2.94,0,0,1-.8,1.7,2.75,2.75,0,0,1-1.66.76,4.43,4.43,0,0,1-3.37-1.15,13.87,13.87,0,0,1-3.69-5.2,12.7,12.7,0,0,1-.83-4.26A13.73,13.73,0,0,0,1198.21,223.65Z"/><path class="cls-26" d="M1201.45,234.18a2,2,0,0,0-.23.46,9.1,9.1,0,0,0-.47,1.36,16.45,16.45,0,0,0-.62,5.27,11.73,11.73,0,0,0,2.57,7.36,6.38,6.38,0,0,0,4.11,2.29,3.41,3.41,0,0,0,2.51-.76,4.88,4.88,0,0,0,1.28-2.33,64.22,64.22,0,0,0,.94-9.58l.18-7.83a38.18,38.18,0,0,1,.31-5.25,17.89,17.89,0,0,0,0-1.94v.49c0,.33-.16.79-.23,1.42-.19,1.23-.37,3-.51,5.27s-.25,4.9-.42,7.79a68.47,68.47,0,0,1-1,9.48,3.89,3.89,0,0,1-1.09,2,2.75,2.75,0,0,1-2.06.63,6,6,0,0,1-3.65-2.08,11.51,11.51,0,0,1-2.58-7A21.69,21.69,0,0,1,1201.45,234.18Z"/><path class="cls-27" d="M1070,190.66c-4.31,4.09-8.73,8-12.93,12.32a17.51,17.51,0,0,0-5.42,13.84,19.17,19.17,0,0,0,7.61,13.34c12.79,11.25,28.88,21.12,46.4,21a46.82,46.82,0,0,0,31.69-13.58c3.5-3.29-1.66-8.74-5.19-5.43a39.3,39.3,0,0,1-23.69,11.41,45.71,45.71,0,0,1-22.29-4.4,87.3,87.3,0,0,1-18.57-11.71,26,26,0,0,1-7.62-7.71,9.94,9.94,0,0,1,2.23-11.31c4.21-4.23,8.63-8.23,12.94-12.32a3.75,3.75,0,0,0-5.16-5.43Z"/><path class="cls-27" d="M1156.88,117.35c4.06-3.85,8.09-7.73,12.18-11.57a10.68,10.68,0,0,1,8.68-3.5c4.39.51,6.83,3.86,9.3,7.09,8.83,11.45,16.57,25.76,15.87,40.64a38.76,38.76,0,0,1-12.82,26c-3.44,3.37,1.72,8.8,5.19,5.6A47.54,47.54,0,0,0,1210,154.25a53.39,53.39,0,0,0-4-26.92,95.49,95.49,0,0,0-12.74-21.92A25.12,25.12,0,0,0,1182.76,96a17.28,17.28,0,0,0-15.87,2,140.56,140.56,0,0,0-15.17,14.1,3.75,3.75,0,0,0,5.16,5.33Z"/><path class="cls-27" d="M1198.1,228.43l-8.32,4.93h0l-.15.22h-.21l-5.45,8.28s12.22,14.71,16.42,29.67L1213.57,259l.37-.35,13.21-12.56C1212.31,241.27,1198.1,228.43,1198.1,228.43Z"/><rect class="cls-27" x="1168.06" y="225.38" width="39.36" height="12.56" rx="6.19" transform="translate(167.86 882.98) rotate(-43.6)"/><path class="cls-27" d="M1145.33,95.15l-45.8,43.64-2.44,2.3-43.28,41.21c.58,1.21,81.82,95.57,130.88,45.93h0C1236.81,181.56,1146.43,95.83,1145.33,95.15Z"/><path class="cls-28" d="M1202.93,225.81s-4.51,4.52-10.23,9.94-10.35,9.81-10.43,9.73,4.59-4.44,10.19-9.87S1202.87,225.81,1202.93,225.81Z"/><path class="cls-28" d="M1194.74,216.37s-4.87,4.86-11,10.69-11.2,10.69-11.2,10.5,4.88-4.87,11-10.7S1194.66,216.31,1194.74,216.37Z"/><path class="cls-28" d="M1224.87,240.39s-6.08,6-13.69,13.37-14,13-14,13,6.06-6,13.7-13.37S1224.82,240.33,1224.87,240.39Z"/><path class="cls-29" d="M1145.33,95.15v.3l-.49.84L1143,99.5l-1.37,2.32-1.7,2.7c-1.25,1.94-2.59,4.19-4.26,6.53-.82,1.18-1.7,2.42-2.58,3.74s-1.89,2.7-2.83,4l-1.55,2.07c-.25.35-.51.73-.79,1.08l-.82,1-3.5,4.35a233.9,233.9,0,0,1-16.85,18.34,242.33,242.33,0,0,1-18.8,16.26l-4.46,3.34-1.08.8-1.09.77-2.22,1.37c-1.42.95-2.78,1.94-4.06,2.64l-3.83,2.43c-2.42,1.59-4.69,2.85-6.66,4l-2.78,1.6-2.38,1.26-3.27,1.73-.86.45-.31.16.28-.19.86-.47,3.24-1.79,2.36-1.29c.86-.47,1.78-1.05,2.78-1.63,2-1.18,4.24-2.45,6.66-4.06l3.81-2.46c1.31-.84,2.78-1.82,4-2.64l2.11-1.48,1.12-.75,1.06-.82,4.45-3.34a235.73,235.73,0,0,0,18.75-16.27,240.33,240.33,0,0,0,16.85-18.25l3.38-4.3.85-1,.79-1.08,1.55-2.07c1-1.34,2-2.69,2.83-3.93l2.61-3.74c1.67-2.35,3-4.56,4.28-6.47.63-1,1.22-1.86,1.74-2.7s1-1.62,1.39-2.3l1.94-3.18.51-.84Z"/><polygon class="cls-30" points="1122.01 160.88 1140.28 167.58 1156.14 156.31 1155.42 175.76 1171.03 187.37 1152.31 192.69 1146.08 211.1 1135.26 194.95 1115.8 194.74 1127.82 179.44 1122.01 160.88"/><path class="cls-29" d="M1145.33,95.15l.26.25.78.73c.67.65,1.66,1.57,2.92,2.81,2.51,2.47,6.1,6.11,10.31,10.8s9.13,10.43,14.09,17.14a178.82,178.82,0,0,1,14.63,22.87,116.69,116.69,0,0,1,10.12,25.17,73.67,73.67,0,0,1,2.11,11.69l.14,1.37,0,1.34,0,1.34,0,1.29-.11,5a48.65,48.65,0,0,1-3.57,14.48c-.67,1.62-1.27,2.87-1.7,3.68l-.51.95-.18.29a1.87,1.87,0,0,1,.15-.32c0-.22.26-.54.49-.95.4-.84,1-2.06,1.64-3.68a47.9,47.9,0,0,0,3.43-14.49q.18-2.46.12-4.92l0-1.32,0-1.31,0-1.34-.16-1.37a77.54,77.54,0,0,0-2.14-11.63,116.77,116.77,0,0,0-10.09-25.09,185.24,185.24,0,0,0-14.58-22.84c-5-6.72-9.84-12.47-14-17.19A138.47,138.47,0,0,0,1149.09,99c-1.23-1.26-2.22-2.21-2.89-2.8l-.75-.73Z"/><path class="cls-14" d="M1163.1,234.9l-.25.16-.75.48a19.8,19.8,0,0,1-3.07,1.4,22,22,0,0,1-5.2,1.09,32.24,32.24,0,0,1-7.08-.17,53,53,0,0,1-8.36-1.83l-4.54-1.42-4.75-1.78a128.28,128.28,0,0,1-20-10.21,193.06,193.06,0,0,1-18.34-13c-5.38-4.32-10.13-8.45-14-11.88s-7-6.35-9.14-8.43l-2.47-2.3-.62-.59a1.1,1.1,0,0,1-.21-.22l.22.2.67.56,2.49,2.27c2.17,2,5.36,4.81,9.23,8.27s8.64,7.51,14,11.79a194,194,0,0,0,18.34,13,133.67,133.67,0,0,0,20,10.21c1.62.59,3.17,1.23,4.72,1.78l4.54,1.45a54.71,54.71,0,0,0,8.3,1.86,33.72,33.72,0,0,0,7,.17,24.82,24.82,0,0,0,5.2-1,21,21,0,0,0,3.07-1.35l.75-.45Z"/><path class="cls-14" d="M1175.26,238.47a3.44,3.44,0,0,0,.39,4.23,8.26,8.26,0,0,0,2.7,1.86l1.24.61a4.43,4.43,0,0,1-1.33-.39,6.92,6.92,0,0,1-2.69-1.87,3.87,3.87,0,0,1-.86-3.25,2.23,2.23,0,0,1,.43-.92C1175.12,238.55,1175.23,238.47,1175.26,238.47Z"/><path class="cls-9" d="M1169.68,242.83l23.63-21.52a12.33,12.33,0,0,1,1.11,13.55,35.77,35.77,0,0,1-9.39,10.87c8.7,4.78,14.87,19.51,6.76,30.55"/><path class="cls-26" d="M1194.37,271.38a1.09,1.09,0,0,1,.2-.51,6.48,6.48,0,0,0,.53-1.58,19.24,19.24,0,0,0,.64-6.09,22.08,22.08,0,0,0-2.53-9.06,20.73,20.73,0,0,0-8.2-8.65l0,.46a65.68,65.68,0,0,0,5.6-5.34,21.87,21.87,0,0,0,4.65-6.77,14.3,14.3,0,0,0,1-6.82,10.16,10.16,0,0,0-2.6-6l-.18-.23-.2.19-16.78,15.54-4.85,4.55-1.28,1.2-.42.45s.19,0,.5-.37l1.34-1.14,5-4.43,17-15.38h-.41a9.89,9.89,0,0,1,2.45,5.54,14.31,14.31,0,0,1-.92,6.57,21.71,21.71,0,0,1-4.34,6.61,65.4,65.4,0,0,1-5.44,5.35l-.28.24.35.2a20.47,20.47,0,0,1,8,8.4,22.58,22.58,0,0,1,2.53,8.87,20.47,20.47,0,0,1-.49,6C1194.63,270.62,1194.37,271.35,1194.37,271.38Z"/><path d="M912.13,400.4c-27.14-10.51-33.1-45-33.1-45s-53,16-62.57,20.64S793,388,787.31,396.76c-3.11,4.74-26.76,55.54-37.69,78.9l.29,92c.25,6.4.26,17.51.38,18.56,26.66-9.56,76.2-93.68,76.2-93.68.27,4.37,9.25,48.34,9.25,48.34l2.56,59.68s-3.35,14.28-11.81,39.77c-3.49,10.51-9,28.73-18,74.12,2.81,1.24,17.56,11.06,20.25,12.55,4.49,2.48,18.38,1.17,22.88,3.67,16.26,9.07,16,2.08,33.3,9.09,14.51,5.87,25.42,11.2,40.94,12.11.23-8.11-2.3-61.54-2.3-61.54Z"/><path d="M1163.52,273.24l-48,93.53-138.07-5.9-4.67-.4c-1.3,16-27.75,40.24-27.75,40.24,1.85,35.68-3.65,124.15-3.35,150.55.24,21,3.64,88.47,6.12,135.42,7.91,0,15.81.26,23.71.57,23.73.91,67.29,38.59,91,36.21-7.3-26-39.3-109.9-39.3-131.19,0-30,2.7-73.27,2.7-73.27l5.88-49.24s89.25-9.69,117.51-29.46c14.38-10.06,51.91-102.83,61.19-146.25Z"/><polygon points="927.91 158.28 808.14 116.32 934.5 78.53 1049.77 135.86 927.91 158.28"/><path d="M864,164.07l-1.16-37.21s38.82-14.13,67.86-11.69,63.1,19.63,63.1,19.63l-5.69,39.52s-41.41-11.65-64.93-13.13A418,418,0,0,0,864,164.07Z"/><path class="cls-24" d="M836.42,371.59s37.77,47.61,92.89,47.53c73.31-.11,98-56.91,98-56.91s-26.08-14.57-50-6.86c-9.79,3.15-17.93,33.29-47.76,50.21-1.28.72,1,1,0,0-31.21-29.8-48-52.31-48-52.31S849.84,349.43,836.42,371.59Z"/><path class="cls-31" d="M836.42,371.59s46.93,50.7,94.37,47.46c70.41-4.8,96.51-56.84,96.51-56.84"/><path d="M816.51,464.34s-8.77,46,3.83,62.35c23.84,31,48.72,19.39,48.72,19.39"/><path d="M946.87,666.65c1.33,25.74,5.56,78,6.2,89.58,35.94-2.37,78.48-15.88,105.12-33.91-2-7-17.8-44.48-20.73-55.67Z"/><path class="cls-9" d="M669,344.31c-.88-2.8-.1-32.65-.1-32.65l-44.15,6.79-44.15-6.79s.88,33,0,35.77-18.15,5-18.15,5,3.94,35.75,61.28,35.75,66.66-35.38,66.66-35.38S669.87,347.12,669,344.31Z"/><path class="cls-11" d="M577.27,315.6c.74.53,6.15,7.28,6.93,7.8,19.24,12.85,22.1,16.35,38.71,17,16.61-.64,23.74-2.79,41.61-18.49,6-5.29,4.69-7.06,6-8C640.69,313.78,607.15,315.4,577.27,315.6Z"/><path class="cls-9" d="M547.53,225.12s-8.47-13-13.27-12.47c-2.92.31,3.84,6.89,4.67,14.33,1.12,10-6.25,11.24-3.93,16.88s5.32,25.3,13.06,24.46c3.07-.33,6.21-7.13,6.21-7.13S550.05,234,547.53,225.12Z"/><path class="cls-32" d="M549.59,261.8c-3.32.37-6.47,2.69-6.84,6.19a6.33,6.33,0,0,0,1.18,4.4,5.56,5.56,0,0,0,2.81,2,8,8,0,0,0,7.23-.94c.37-.25.65-.77.17-1.06a1.7,1.7,0,0,0-1.68.18,4.5,4.5,0,0,1-4.21.43,6.58,6.58,0,0,1-1.08-.52s-.23-.16-.1-.06a4.8,4.8,0,0,1-.77-.79,5.4,5.4,0,0,1-.14-6.57,4.52,4.52,0,0,1,1.43-1.26c-.14.08,0,0,.06,0l.32-.16.23-.09.11,0a4.21,4.21,0,0,1,1-.21c.46-.06,1.24-.32,1.32-.88s-.66-.67-1.06-.63Z"/><path class="cls-9" d="M698,225.85s7.11-13.78,11.94-13.75c2.94,0-3.12,7.24-3.2,14.73-.11,10,7.35,10.55,5.62,16.4s-2.75,25.7-10.53,25.65c-3.09,0-6.9-6.47-6.9-6.47S696.43,234.94,698,225.85Z"/><path class="cls-9" d="M703.66,232.87a.11.11,0,0,0,0,0c-1.72,8.71-3.84,17.87-5.3,28.39-3.87,27.74-8.5,45.55-29.72,55.38-21.38,9.89-24.73,16.5-41.79,17.13-17.05-.63-23.43-5.79-45.4-14.31-20.23-7.85-26.61-30.46-30.47-58.2-.86-6.19-1.94-11.9-3-17.33-.81-4-1.63-7.91-2.38-11.7,0-.06,0-.11,0-.16a.28.28,0,0,1,0-.05c-2.72-13.92-4.37-26.77-.64-42.29,3.84-16.05,17.12-36,37.31-48.54h0a0,0,0,0,0,0,0A79.82,79.82,0,0,1,624.66,129c43.77,0,73.69,35.29,79.8,60.82C708.26,205.6,706.47,218.65,703.66,232.87Z"/><path class="cls-33" d="M630.3,272.12a7.58,7.58,0,0,1-8.07-.39c-.5-.36-2.21,0-1.51.55a10.71,10.71,0,0,0,11,.33c.3-.2.25-.46-.11-.59a1.71,1.71,0,0,0-1.3.1"/><path class="cls-33" d="M619.58,271.51a17.18,17.18,0,0,0-5.93-1.47,1.39,1.39,0,0,0-.91.28c-.17.16-.21.36,0,.49a6.45,6.45,0,0,0,3.25.74,1.2,1.2,0,0,0,1-.39c.19-.27-.15-.45-.42-.45a5.15,5.15,0,0,1-2.63-.6l-.89.77a15.27,15.27,0,0,1,5.3,1.33,1.22,1.22,0,0,0,1.08-.12c.22-.12.45-.42.13-.58"/><path class="cls-33" d="M611.53,271.76a6.55,6.55,0,0,1-5.39-2.89c-1.5-2.71-.11-5.92,2.42-7.65.27-.19.13-.44-.15-.51a1.44,1.44,0,0,0-1.08.27,7,7,0,0,0-3.3,6.5c.32,2.37,2.25,4,4.67,4.72a9.36,9.36,0,0,0,2.24.36c.31,0,.86-.1,1-.38s-.13-.41-.42-.42"/><path class="cls-33" d="M632.7,271.51a17.18,17.18,0,0,1,5.93-1.47,1.39,1.39,0,0,1,.91.28c.17.16.21.36,0,.49a6.48,6.48,0,0,1-3.25.74,1.23,1.23,0,0,1-1-.39c-.18-.27.16-.45.43-.45a5.17,5.17,0,0,0,2.63-.6l.89.77a15.27,15.27,0,0,0-5.3,1.33,1.22,1.22,0,0,1-1.08-.12c-.22-.12-.46-.42-.13-.58"/><path class="cls-33" d="M640.75,271.76a6.55,6.55,0,0,0,5.39-2.89c1.5-2.71.11-5.92-2.42-7.65-.27-.19-.13-.44.15-.51A1.44,1.44,0,0,1,645,261a7,7,0,0,1,3.29,6.5c-.31,2.37-2.24,4-4.66,4.72a9.36,9.36,0,0,1-2.24.36c-.31,0-.86-.1-1-.38s.13-.41.42-.42"/><path class="cls-34" d="M645.36,207.13c0,1.58,0,3.16,0,4.74,0,1.21,0,2.41.05,3.62,4.37-1,8.12-1.72,11-2.16,6-1,9-1.41,12.52-.89a35.42,35.42,0,0,1,8,2.28,21.56,21.56,0,0,1,4.2,2c3,1.94,4.17,4.15,4.66,3.95s-.3-2.11-.37-2.31a18.82,18.82,0,0,0-6.31-8A24.39,24.39,0,0,0,671,207c-3.44-.8-13-1.34-25.61.1"/><path class="cls-35" d="M660.54,226.17c2.05-1.06,4.45-.14,5.79,1.05a5.16,5.16,0,0,1,1.56,2.42,5.35,5.35,0,0,1-1.26,4.87,5,5,0,0,1-5.7,1,5.47,5.47,0,0,1-2.69-6.37,4.85,4.85,0,0,1,2.3-3"/><path class="cls-35" d="M644.46,233.58s10.8-7.86,16.33-8.37c8.06-.74,18,3.39,20.85,7.08,0,0-13.15-6.17-18.81-5.49C657.41,227.44,644.46,233.58,644.46,233.58Z"/><path class="cls-34" d="M606.43,207.3c0,1.58,0,3.16,0,4.74,0,1.21,0,2.41,0,3.62-4.38-1-8.13-1.72-11-2.16-6-.95-9-1.41-12.53-.89a35.76,35.76,0,0,0-8,2.28,22.33,22.33,0,0,0-4.19,2c-3,2-4.18,4.16-4.66,4s.29-2.11.37-2.31a18.82,18.82,0,0,1,6.31-8,24.53,24.53,0,0,1,8.1-3.38c3.45-.79,13-1.33,25.62.11"/><path class="cls-35" d="M591.25,226.34c-2-1.06-4.45-.14-5.79,1a5.16,5.16,0,0,0-1.56,2.42,5.35,5.35,0,0,0,1.26,4.87,5,5,0,0,0,5.7,1,5.47,5.47,0,0,0,2.69-6.37,4.85,4.85,0,0,0-2.3-3"/><path class="cls-35" d="M607.33,233.74s-10.8-7.85-16.33-8.36c-8.06-.74-18,3.39-20.85,7.08,0,0,13.14-6.17,18.81-5.5C594.37,227.61,607.33,233.74,607.33,233.74Z"/><path class="cls-36" d="M532.28,159.67s36.05-17.59,82.18-11.74,75.54,23.14,83.33,43.92,6,51.47,6,51.47,6.59,7.85,14.83-34.38c12-61.56-55.32-115.87-70.26-115.87S553.72,90.82,532.28,159.67Z"/><path class="cls-36" d="M540.55,141.7s-7.73-48.53,25.72-57.62S670.11,58.69,690.69,103Z"/><path class="cls-37" d="M538.83,241.37a29.12,29.12,0,0,1-7.37-12.6c-3.72-13.1-10.22-40.18-4.25-52.2,2.6-5.23,3.65-20.83,3.9-25.42,1.3-24-4.41-16.68,29.37-44s39.62-19.77,90.29-16.52,65.2,19.66,61.28,67.14c0,0-83.49-19.34-115.65-1.95s-60.5,41.2-49.18,93.29C547.35,249.77,542.68,245.26,538.83,241.37Z"/><path class="cls-36" d="M711.62,135.85S652,114.18,629.18,112.3s72.21,1.76,81.33,12.13Z"/><path class="cls-32" d="M700,263.78a5.65,5.65,0,0,1,5.37,4.6,5.55,5.55,0,0,1-.6,3.7,5.39,5.39,0,0,1-.57.84c-.06.07-.13.14-.18.21s-.15.17-.06.09,0,0,0,0-.2.15-.3.23l-.1.06c-.12.08-.24.14-.36.21a3.6,3.6,0,0,1-1.49.49,5,5,0,0,1-2.76-.63,1.92,1.92,0,0,0-1.54.06c-.13,0-1.1.57-.67.8a7.89,7.89,0,0,0,6.45.39,7.47,7.47,0,0,0,3-1.74,6.18,6.18,0,0,0,0-8.44,7.07,7.07,0,0,0-5.15-2,2.16,2.16,0,0,0-1.57.61c-.31.44.26.52.59.52Z"/><path class="cls-38" d="M626.6,287.2c-12.6,0-33-1.44-33-1.44s3.8,24.25,33,24.25,33-24.25,33-24.25S639.2,287.2,626.6,287.2Z"/><path class="cls-39" d="M626.72,287.2c-6,0-30.14-1-30.14-1s8,12.87,29.65,12.87c23.5,0,30.4-12.69,30.4-12.69Z"/><path class="cls-40" d="M627,288.07c-6,0-24.22-1-24.22-1s6.56,6.38,24.54,6.38,23.68-6.2,23.68-6.2Z"/><path class="cls-38" d="M661,284c-.64-.15-4.13,1-7.1.72-5-.41-11-1.68-14.55-1.95-6.14-.46-10,1.9-12.7,1.9s-6.56-2.36-12.7-1.9c-3.59.27-9.59,1.54-14.55,1.95-3,.25-6.46-.87-7.1-.72-.88.21.83,6.53,34.36,6.53S661.83,284.18,661,284Z"/><path class="cls-34" d="M552.58,194.37s57-12.53,67.51-28.38c-1.14,1.71,8.95,8.79,9.9,9.33,10.29,5.84,22.61,4.42,33.27.38,4.06-1.53,6.09-4.75,8.78-8,0,0,9.6,21.23,25.75,24.13,0,0-18.95-41.14-69.13-41.86C628.66,150,591.56,140.8,552.58,194.37Z"/><path class="cls-11" d="M592.06,191.31s16.2,6.69,32,5.13,35.15-5.52,35.15-5.52"/><path class="cls-41" d="M551.47,223.05l3,8c1.76,6.25,6.94,18.6,9.25,21.95,3.25,4.69,37.94,5.81,44.66,1.85s10.12-23.14,11.84-27.6l13.87.47c1.36,5.7,6.08,23.74,8.76,26.13s18.57,1.64,20.36,1.55c1.49-.09,3.56-.21,5.83-.43,6-.55,13.26-1.67,15.46-3.86,3.27-3.24,6.65-15.46,9.54-27l.48-1.81c.1-.44.24-.74.24-.87h0l.52-2.08c-20.15-8.77-46.31-6.73-62,4.86l.13.2-13.54-.52c-15.47-9.48-45.42-14.65-64.16-7.21h0l-18.17,14.41-.07,5ZM644.42,252c-1.68-1.49-5.38-14.12-7.92-24,13.62-9.79,37.19-11.6,55.18-4.74v.25c-1.56,6.19-5.68,22.67-8.89,25.86-3.8,3.76-35.45,4.94-38.37,2.65Zm-76.64-.4a168.05,168.05,0,0,1-12.06-28.54c16.65-7.7,46-4.17,61.11,4.81-2.22,8-4.94,22-9.76,24.88-6.93,4.08-37.25,1.81-39.29-1.15Z"/><path class="cls-42" d="M644.75,251.74c-1.68-1.49-5.38-14.12-7.92-24C650.45,218,674,216.18,692,223v.26c-1.55,6.19-5.68,22.66-8.89,25.85-3.8,3.77-35.44,4.94-38.37,2.65Z"/><path class="cls-42" d="M567.78,251.6a168.05,168.05,0,0,1-12.06-28.54c16.65-7.7,46-4.17,61.11,4.81-2.22,8-4.94,22-9.76,24.88-6.93,4.08-37.25,1.81-39.29-1.15Z"/><polygon class="cls-41" points="695.26 219.39 707.26 231.01 706.63 235.24 693.83 223.6 695.26 219.39"/><path class="cls-5" d="M519.56,446.76S493.09,475.18,493.09,526c0,27,46,50.42,46,50.42"/><path class="cls-5" d="M748.71,438s21.07,28.42,21.07,79.26c0,27-40.57,50.42-40.57,50.42"/><path class="cls-2" d="M758.23,448.12s-3.24-26.8,15.4-48.73c0,0-8.92,22-10.15,27.56s-3.94,19.07-3.05,26.47c.63,5.21-.56,6.79-.56,6.79l-.88-2.29"/><path class="cls-2" d="M504.13,474.41s3.41-29.1-15.23-51c0,0,8.92,22,10.15,27.56S503,470,502.1,477.4c-.63,5.21.64,2.64.64,2.64l1.39-5.63"/><path class="cls-38" d="M926.15,304.27c-11.53,0-30.2-1.32-30.2-1.32s3.48,22.18,30.2,22.18S956.35,303,956.35,303,937.67,304.27,926.15,304.27Z"/><path class="cls-39" d="M926.26,304.27c-5.48,0-27.57-.9-27.57-.9s7.31,11.77,27.12,11.77c21.49,0,27.8-11.61,27.8-11.61Z"/><path class="cls-40" d="M926.5,305.06c-5.48,0-22.15-.9-22.15-.9s6,5.84,22.44,5.84,21.65-5.67,21.65-5.67Z"/><path class="cls-38" d="M957.56,301.31c-.58-.14-3.77.89-6.49.66-4.54-.38-10-1.54-13.31-1.78-5.61-.42-9.17,1.73-11.61,1.73s-6-2.15-11.61-1.73c-3.29.24-8.78,1.4-13.31,1.78-2.72.23-5.91-.8-6.5-.66-.8.19.77,6,31.42,6S958.37,301.5,957.56,301.31Z"/><path class="cls-38" d="M339.18,355.77c-9.9,0-25.94-1.13-25.94-1.13s3,19.05,25.94,19.05,25.94-19.05,25.94-19.05S349.08,355.77,339.18,355.77Z"/><path class="cls-39" d="M339.27,355.77c-4.7,0-23.67-.77-23.67-.77s6.27,10.11,23.29,10.11c18.46,0,23.88-10,23.88-10Z"/><path class="cls-40" d="M339.48,356.45c-4.71,0-19-.77-19-.77s5.16,5,19.28,5,18.6-4.86,18.6-4.86Z"/><path class="cls-38" d="M366.16,353.23c-.5-.12-3.24.76-5.58.57-3.89-.33-8.61-1.32-11.43-1.53-4.82-.36-7.88,1.48-10,1.48s-5.16-1.84-10-1.48c-2.83.21-7.54,1.2-11.43,1.53-2.34.19-5.08-.69-5.58-.57-.7.17.65,5.13,27,5.13S366.85,353.4,366.16,353.23Z"/><path class="cls-43" d="M804.53,443.57s11.06,8.34,12,20.77c0,0-9.11,46.24,3.83,62.35,18.4,22.92,35.91,19.58,35.91,19.58"/><path d="M1038.47,452.81s9.66,57.5-2.93,73.88c-23.85,31-48.9,16.13-48.9,16.13"/><path class="cls-43" d="M1051.17,440.3s-11.05,8.34-12,20.77c0,0,9.19,49.43-3.65,65.62-15.68,19.75-32.4,16.27-32.4,16.27"/><path class="cls-43" d="M1111.51,366.77s-5.46,8.49-4.75,25"/><path class="cls-27" d="M1195.82,268.38l29.31-27.92a19.16,19.16,0,0,1,27.09.67l.21.21h0l-57.1,54.38h0l-.21-.22a19.16,19.16,0,0,1,.66-27.09Z"/><rect class="cls-44" x="1187.22" y="260.64" width="105.89" height="50.96" transform="translate(144.76 934.16) rotate(-43.6)"/><rect class="cls-30" x="1202.04" y="272.95" width="74.93" height="24.99" transform="translate(145.04 933.52) rotate(-43.6)"/><path class="cls-14" d="M1199,268.2a4.65,4.65,0,0,1-.67.73,23,23,0,0,0-1.69,2,19.34,19.34,0,0,0-3.52,7.89,19.73,19.73,0,0,0,.23,8.65c.28,1.08.59,1.93.79,2.51l.37.91-.14-.22a6.21,6.21,0,0,1-.34-.64,18.28,18.28,0,0,1-.9-2.51,18.85,18.85,0,0,1-.34-8.77,18.43,18.43,0,0,1,5.46-9.92,4.41,4.41,0,0,1,.56-.48Z"/><path class="cls-21" d="M221.05,766.27s0,10.08,0,14.94,81.68,16.43,120.88,16.43,110.14-14.56,120.87-22.78l-.66-16.06S398.46,782,341.92,784.24,221.05,766.27,221.05,766.27Z"/><path class="cls-9" d="M284.57,412.49s.77,4.23-3.39,5.37-15.2,4.59-19,4.8l-.89-1.55s6.68,7.83,6.57,10.41-1.71,6.61-3.11,6.73-4.43-1.44-4.43-1.44,2,5-.45,7.06-5.16.71-7.09.06a37.57,37.57,0,0,1-6-3.49s-.49,5.45-3.7,5.82-15-5.94-15-5.94.8,6.18-2.89,6.54-7.2-2.33-10-4.83-6.37-5.83-6.09-7.74a7,7,0,0,1,2.94-4.91l5.1-3.21a11.24,11.24,0,0,1,1.3-5.23c1.32-2.13,8.09-9.23,8.09-9.23s-.54-4.86,1.51-6.91,7.47-4.18,7.47-4.18,4.3-7.15,6.19-7.26,2.6-.9,9.89,1.08,21,8,21,8,4-.27,6.66,1.82S286,408.4,284.57,412.49Z"/><path class="cls-45" d="M216.88,426.67s.31,3.15,1.3,4.46,7.64,7.06,7.64,7.06-7.73-5-8.68-6.39-.19-5.57-.19-5.57"/><path class="cls-45" d="M226.67,414.2s-2,8,.88,11.29,17.16,14,17.16,14-15.55-13.61-16.58-16.31S226.67,414.2,226.67,414.2Z"/><path class="cls-45" d="M235.9,402.53s.2,11.91,2,14.06,18.65,16.17,19.8,17.14l1.79,1.13s-19.25-18-20.48-20S235.9,402.53,235.9,402.53Z"/><path class="cls-45" d="M271.17,414.2s-4.4,5.66-7.95,6.69-8.29-2.24-8-5.82a10.57,10.57,0,0,1,3.49-7.3c1.49-1.15,2.79-3,5.34-4.11,0,0-6.85,7.23-7.21,8.78s-1,6.2,2.1,7.07,4.36.64,7.64-1.58A24.22,24.22,0,0,0,271.17,414.2Z"/><path class="cls-45" d="M255.7,417.34s-4.42-4.24-4.39-5.9a55.61,55.61,0,0,1,.83-6.5s-.61,5.11.5,7S255.7,417.34,255.7,417.34Z"/><path class="cls-14" d="M281.18,414.05l5.05-5.82a54.74,54.74,0,0,1,12.13-10.11l4.87-1.4h0a42.08,42.08,0,0,0,5.09,22.36A72.53,72.53,0,0,0,317.48,432l18.74,21s-6.52-6.72-9.57-5.33c-8,3.63-12.44,17.58-12.44,17.58l-12-13.6c-6.88-7.31-13.16-19-18-28.38Z"/><path class="cls-46" d="M336.21,452.93s-6.51-6.72-9.57-5.33c-8,3.63-12.44,17.58-12.44,17.58"/><path class="cls-46" d="M342.27,450.84s6.52-6.73,9.57-5.34c8,3.63,12.45,17.58,12.45,17.58"/><path class="cls-9" d="M957.88,359.5s.54,4.27,4.85,4.09,15.87-.22,19.54-1.16l.38-1.74s-4,9.48-3.12,11.9,3.63,5.79,5,5.48,3.79-2.71,3.79-2.71-.38,5.35,2.56,6.6,5.13-.89,6.78-2.09a37.08,37.08,0,0,0,4.67-5.14s2.11,5,5.28,4.43,12.52-10.2,12.52-10.2,1.1,6.13,4.74,5.35,6.15-4.39,8.06-7.61,4.31-7.48,3.47-9.22a7,7,0,0,0-4.3-3.79l-5.82-1.52a11.43,11.43,0,0,0-2.82-4.6c-1.9-1.62-10.5-6.35-10.5-6.35s-1-4.8-3.53-6.13-8.38-1.73-8.38-1.73-6.26-5.52-8.1-5.05-2.76-.07-9.1,4-17.63,14-17.63,14-3.89.95-5.79,3.74S955.28,356,957.88,359.5Z"/><path class="cls-45" d="M1026.68,352.56s.66,3.1.11,4.65-5.15,9-5.15,9,5.86-7.12,6.35-8.72-1.5-5.37-1.5-5.37"/><path class="cls-45" d="M1013.59,343.64s4.29,7,2.56,11S1004,373.18,1004,373.18s10.71-17.67,10.87-20.56S1013.59,343.64,1013.59,343.64Z"/><path class="cls-45" d="M1001.26,335.3s3.41,11.41,2.3,14-12.89,21-13.7,22.32l-1.36,1.62s12.91-23,13.48-25.25S1001.26,335.3,1001.26,335.3Z"/><path class="cls-45" d="M971.16,357.08s5.91,4.06,9.61,4,7.23-4.64,5.83-8a10.56,10.56,0,0,0-5.53-5.9c-1.77-.65-3.57-2.06-6.33-2.31,0,0,8.71,4.82,9.52,6.19s2.83,5.61.14,7.38-4,1.92-7.76.8A24.24,24.24,0,0,1,971.16,357.08Z"/><path class="cls-45" d="M986.86,355.4s2.93-5.38,2.4-6.95a56.81,56.81,0,0,0-2.75-5.95s2.12,4.69,1.64,6.83S986.86,355.4,986.86,355.4Z"/><path d="M979.75,164.56c-3.61-6.2-7.5-12.69-13.46-15.21-5.63-2.35-55.13,3.38-60.91,5.25-21.56,7-12.32,10.09-32.18,22,1.06,1.47,15.31,5.12,16.53,6.42,3.83,4.07,8.7,9.28,14.67,9.51,7.87.3,14.29-5.3,21.93-.1,5.33,3.62,6.21,16.48,11.7,20.62,9.42,7.17,16.32.12,25.72,7.3,7.08,5.47,8.48,16.56,12.65,25.27,8.1,17,34,13.81,48.7,4.5a30.1,30.1,0,0,0,3.46-2.54C1011.74,218.29,996.59,193.8,979.75,164.56Z"/><path d="M888.81,171.26a216.48,216.48,0,0,1-8,22.12C876,204.88,864.66,209,864.66,209a97.25,97.25,0,0,0-2.39,15.22,27.81,27.81,0,0,1-6.88,17.23s-.73,14.47-1.14,17.61S850.74,242.8,845,238.8s.13-30.14,1.08-40S882.05,161,888.81,171.26Z"/><path d="M1042.33,315.14s-5.3-6-1.91-18.83,5-38.74-7.91-45.56-7.46,33.93-6.33,40.24S1034.74,314.89,1042.33,315.14Z"/><path class="cls-1" d="M848.5,348.56a3,3,0,0,1-.72.39c-6.27,2.37,6.5.48,6.5.48s.09-.49.23-1.34l-4.73-.81A5.74,5.74,0,0,1,848.5,348.56Z"/><path d="M880.45,162.42s-25.61.37-34,9.33c-11,11.8-7.88,27.91-7.88,27.91S875.88,184.86,880.45,162.42Z"/><path class="cls-47" d="M995.91,295.69a5.23,5.23,0,0,1,3.18,6.05,4.82,4.82,0,0,1-2.14,2.91,3.35,3.35,0,0,1-1.75.45,5,5,0,0,1-4.11-1.84c-.33-.4-1.59.09-1.21.54a6,6,0,0,0,4.41,2.14,6.46,6.46,0,0,0,2.69-.37,5.76,5.76,0,0,0,3.23-7.22,6,6,0,0,0-3.52-3.45c-.48-.19-1.53.49-.78.79Z"/><path class="cls-47" d="M854.33,291.9a6.1,6.1,0,0,0-4.84,6.28,5.49,5.49,0,0,0,1.87,3.64A4.94,4.94,0,0,0,854,303a6.62,6.62,0,0,0,5.63-1.63c.22-.2.11-.46-.15-.54a1,1,0,0,0-.92.24,4.56,4.56,0,0,1-3.93,1.11,3.69,3.69,0,0,1-2-.86,5.08,5.08,0,0,1-1.2-6.28,4.89,4.89,0,0,1,3.12-2.37c.23-.06.63-.27.55-.56s-.54-.26-.75-.21Z"/></g><g id="Layer_4" data-name="Layer 4"><path class="cls-45" d="M960.43,350s.22,5.6,3.13,8.37a50.71,50.71,0,0,0,6.28,5l-2.19.05a26.4,26.4,0,0,1-5.6-5c-2.21-2.84-1.62-8.37-1.62-8.37"/></g><g id="Layer_5" data-name="Layer 5"><path d="M985.4,228.9s8,19.19,7.58,19.88,0,14.91,0,14.91,7.23-20.15,11-21-10.08-23-18.63-13.75"/></g></svg>