<svg xmlns="http://www.w3.org/2000/svg" viewBox="0 0 285.1 249.23"><defs><style>.cls-1{fill:#a66e53;}.cls-2{fill:#e0aa64;}.cls-3{fill:#ce634e;}.cls-4{fill:#e2a86d;}.cls-12,.cls-5,.cls-8{fill:#161412;}.cls-6{fill:#171413;}.cls-7{fill:none;stroke-width:0.46px;}.cls-12,.cls-7,.cls-8{stroke:#171413;stroke-miterlimit:10;}.cls-8{stroke-width:0.2px;}.cls-9{fill:#412319;}.cls-10{fill:#231f1f;}.cls-11{fill:#010101;}.cls-12{stroke-width:0.2px;}.cls-13{fill:#643c2a;}.cls-14{fill:#020202;}.cls-15{fill:#f1edf6;}.cls-16{fill:#812b24;}.cls-17{fill:#b16028;}.cls-18{fill:#df8c28;}.cls-19{fill:#cd8c2a;}.cls-20{fill:#151312;}.cls-21{fill:#6f3917;}</style></defs><g id="Layer_2" data-name="Layer 2"><path class="cls-1" d="M190.34,214.08c-.54,19.35-2.81,26.89-2.21,35.1H203l1.58-40.34,4.92-35L191.2,169.5S190.82,197,190.34,214.08Z"/><path class="cls-2" d="M267,218.56c-1.16-7.36,3.6-28.36,3.6-28.36l-12,10L203.49,164s-8.47,17.18-7.29,26.15,5.15,9.39,6.56,13.53c3.15,9.24-1.39,32.14-4.52,45.51h77.44C272.36,238.51,267.74,223.2,267,218.56Z"/></g><g id="Layer_1" data-name="Layer 1"><path class="cls-3" d="M114.82,230c-.78-2.9-.65-4.24-.63-7.22.18-33.45,3-57.79,3.11-62.77.2-7.16-4.15-38.13-4.15-38.13l-8.49-3-4.22-.83-6.64-1.69s-1.6-.63-1.52-.26L90,114.33c-2.73,4.83-4,5.63-10,6.11a43,43,0,0,1-6,.07c-6.55-.41-11.48-3.57-15.28-8.92l-.13-2.15-3.11,1.45-3.15,1.48L24.46,124.9,28,249.33h91.93A115.18,115.18,0,0,0,114.82,230Z"/><path class="cls-2" d="M184,186.08l10.09-26.7c3.16-8.11,15-12.67,26.33-16.61l-6,6.81c8.89,2.77,13.12,11.87,10.13,20.69l-10,28.11Z"/><polygon class="cls-2" points="244.79 137.57 268.7 149.3 270.77 192.91 261.29 206.07 209.97 190.1 204.93 162.18 213 146.21 230.14 138.41 244.79 137.57"/><path class="cls-4" d="M244.79,137.58l8.77,4.5s-25.09,21.95-33.1.69l13.16-6.2Z"/><path class="cls-5" d="M206,114.29l.39-.43c3.18-1.54,5.83-1.69,7.92.27,0,0,4.18-2.09,8.28,3.21,3.56,4.6,2.51,7.7,2.51,7.7s2.81,1.09,3.45,2.38c1.46,2.89,1.4,8.48-1.15,9.28s-2.75,2-2.75,2a44.25,44.25,0,0,1-6,1.51c-2.12.24-5.36-1.83-5.36-1.83s-4.71.78-6.16-.2-2.39-4.32-2.39-4.32-4.93-.19-5.08-3.89c0,0-1.84-2,.45-4.77a10.19,10.19,0,0,1,2.12-1.87s-.87-1-.51-3.93A8.58,8.58,0,0,1,206,114.29Z"/><path class="cls-6" d="M206.3,114.28a6.06,6.06,0,0,1,3.56-1.4,5.16,5.16,0,0,1,4.21,1.36c.11.1.34,0,.44,0,2.72-1.33,6,.94,7.69,3.06,1.54,1.91,3.49,5.18,2.64,7.82,0,0,0,.07.06.09a7.51,7.51,0,0,1,3.14,2c1,1.2,1.19,3.23,1.21,4.72s-.16,3.76-1.6,4.61c-1,.59-2.51.74-3.09,1.93-.17.35-.21.35,0,.23a8.47,8.47,0,0,1-1.58.47c-1.64.48-3.59,1.22-5.3.94a9.36,9.36,0,0,1-2.56-.88,13.9,13.9,0,0,0-1.52-.81,4.15,4.15,0,0,0-1.64.09c-1.62.17-4,.5-5.15-.86a9.83,9.83,0,0,1-1.8-3.77c0-.07-.12-.07-.17-.07-1.82-.08-4.07-.91-4.72-2.76-.13-.37-.12-.79-.26-1.14a6.73,6.73,0,0,1-.57-1.28c-.45-2.24,1.51-4,3.15-5.16,0,0,.08-.09,0-.14-.78-1-.7-3-.46-4a8.17,8.17,0,0,1,4.16-4.84c.35-.18-.17-.24-.34-.15a8.79,8.79,0,0,0-4.31,4.77,7.1,7.1,0,0,0-.12,3,4.19,4.19,0,0,0,.27,1c0,.08.26.38.25.47s-1.4,1-1.59,1.22a6.47,6.47,0,0,0-1,1.29,3.79,3.79,0,0,0-.53,3c.12.44.45.76.59,1.16a11.83,11.83,0,0,0,.33,1.37,3.35,3.35,0,0,0,.78,1,6.33,6.33,0,0,0,3.63,1.47,1.46,1.46,0,0,1,.42,0c.15.08-.16-.16,0,.11.41.87.62,1.82,1.11,2.67.95,1.67,2.18,2,4,2a20.46,20.46,0,0,0,2.59-.16,8.27,8.27,0,0,1,.87-.11c.28,0-.25-.14.1.05,1.72,1,3.63,2,5.67,1.72a33.91,33.91,0,0,0,5.85-1.49c.07,0,.23-.07.25-.17.26-1.27,2-1.54,2.93-2a3.7,3.7,0,0,0,1.69-2.55c.62-2.54.36-6.4-2-8a11.26,11.26,0,0,0-1.58-.9,1.7,1.7,0,0,1-.55-.24c-.17-.18,0,.11-.06,0s.1-.56.11-.73a7,7,0,0,0-.05-1.37,12.07,12.07,0,0,0-6-8.55,6.24,6.24,0,0,0-5.32-.22l.45,0a5.79,5.79,0,0,0-4.66-1.43,7.06,7.06,0,0,0-4.19,1.7C205.61,114.45,206.18,114.41,206.3,114.28Z"/><path class="cls-7" d="M206.82,113.46s-7.39,2.07-7.59,7l.28,3.4s-3.43.73-3.24,3.14"/><path class="cls-1" d="M248.46,118.67s-4,11.61.1,18.43c.77,1.29,5,5,5,5l-8.19,5.25c-10,5.09-8.79,2.58-19.09-1.87l-2-2.41s-1.29.67-1-1.1-2.3-12.62-2.3-12.62"/><path class="cls-8" d="M257.7,102.47s9.55-22.73-4.95-24A9.8,9.8,0,0,0,249,74.09a7.1,7.1,0,0,0-7-.12s-3.05-3-6.23-2.54a6.52,6.52,0,0,0-4.44,2.17s-3.68-1.94-6.48-.69A14.37,14.37,0,0,0,220,76.83a8,8,0,0,0-3.78.19c-3.52,1.53-4.15,9.23-4.69,12,0,0,3.16-9.12,6.24-9.38s29.81,6.81,29.81,6.81l7,24.34Z"/><path class="cls-5" d="M273.23,122.65l.23.53c.12,3.53-.82,6-3.45,7.13,0,0,.24,7-6.27,8.59-5.64,1.39-8.05-.82-8.05-.82s-2.14,2.12-3.58,2.19c-3.23.15-5.88-3.61-5.58-6.26s.43-6.5.43-6.5a16.71,16.71,0,0,1,.51-4.82c.64-2,3.67-4.29,3.67-4.29s-1.7-3.5-.22-4.43a22.81,22.81,0,0,1,5-1.74,4.63,4.63,0,0,1,5.49-1.77s2.61-.85,4.19,2.35a10.53,10.53,0,0,1,.84,2.7s1.29-.39,3.8,1.12A8.55,8.55,0,0,1,273.23,122.65Z"/><path class="cls-6" d="M273,122.73a6.39,6.39,0,0,1-.11,4,5.21,5.21,0,0,1-2.95,3.5c-.08,0-.17.1-.17.2a8.91,8.91,0,0,1-2.77,6.72,10.3,10.3,0,0,1-7.84,2A5.85,5.85,0,0,1,256,138a.43.43,0,0,0-.5.07,8.8,8.8,0,0,1-2.49,1.84c-1.68.73-3.52-.42-4.6-1.67-2.16-2.51-1.38-5.45-1.22-8.47.09-1.75,0-3.55.23-5.28.35-2.63,1.92-4.45,4-6,0,0,.07-.09,0-.12a9.67,9.67,0,0,1-.66-1.87,3.51,3.51,0,0,1-.11-1.67c.21-.78,1-1,1.66-1.31a26.61,26.61,0,0,1,3.29-1,1.25,1.25,0,0,0,.72-.37,5.78,5.78,0,0,1,2.31-1.67c1.05-.31,2,.16,3,.15a3.41,3.41,0,0,1,2.73.87,7.6,7.6,0,0,1,1.86,4.13c0,.12.26.09.33.07,1.23-.33,3.18.72,4,1.52a8.74,8.74,0,0,1,2.41,5.56c0,.18.58.06.57-.16-.15-2.15-1.15-4.81-3-6.08-1-.69-2.76-1.47-4.06-1.13l.32.07c-.43-2.17-1.41-4.86-3.93-5.2-.45-.06-.87.08-1.31.06-.25,0-.63-.23-.95-.28a4.68,4.68,0,0,0-1.67,0,5.07,5.07,0,0,0-2.09,1c-.43.33-.71.82-1.11,1.15.37-.3-.23,0-.46,0-.53.14-1.05.29-1.58.45a9.32,9.32,0,0,0-3,1.22,1.88,1.88,0,0,0-.66,1.69,5.79,5.79,0,0,0,.29,1.48,7.44,7.44,0,0,1,.46,1.24c0,.26.18-.1-.12.22s-.7.58-1,.88a9.55,9.55,0,0,0-2.22,2.72c-.85,1.74-.71,3.81-.76,5.69,0,1-.08,2-.14,3a26.78,26.78,0,0,0-.28,4.09,6.36,6.36,0,0,0,4.75,5.45c1.94.36,3.61-1,4.93-2.24l-.5.07a6.47,6.47,0,0,0,3.57,1.27,11.6,11.6,0,0,0,7.95-1.88,8.49,8.49,0,0,0,3.05-4.86,10.88,10.88,0,0,0,.3-2c0-.72.28-.45,1-.93a5.55,5.55,0,0,0,2.07-2.89,6.78,6.78,0,0,0,.2-4.35C273.43,122.38,272.87,122.55,273,122.73Z"/><path class="cls-9" d="M241,128.77s-4,7.48-15.77,9.14c0,0-2.08.43-2.49.12l-.44-2.75Z"/><path class="cls-1" d="M245.72,126c-5,4.74-15.54,10.14-22.06,10.89s-8.34-1.53-9.13-2.54a40.14,40.14,0,0,1-8.32-17.09,14.89,14.89,0,0,1,0-5.2c.4-2.67,1.36-7.78,1.54-10.35.47-6.55,3.86-12,7.94-17.13,8.5-10.79,24.2-9.46,30.56-5.73C253.69,83.16,256.54,91,256.32,99a21.65,21.65,0,0,1-1.39,7.21,22.91,22.91,0,0,0-3.21,3.69"/><path class="cls-5" d="M216.12,81.92s-2,3.8-6.13,11.47c1-2.46,1.83-6.23,4.28-9.57,8.57-11.69,30.78-8.09,37.11-4.11,7.41,4.66,9.59,12.89,9.32,21.52-.11,3.51-.16,5.75-1.44,8.55-.06,0-.73.62-.73.62s-7.13.74-9.82,4.8l.22-3.72a109.18,109.18,0,0,0-1.15-11s0-1.37-2-7-4.28-7.36-4.28-7.36-11.27-2.86-14-3.08S216.12,81.92,216.12,81.92Z"/><path class="cls-6" d="M215.86,81.92c-2.06,3.81-4.1,7.64-6.14,11.46l.55,0c1.54-3.69,2.44-7.55,5.16-10.64a18.46,18.46,0,0,1,7.81-5c5.89-2.06,12.51-2,18.59-.93,5.41,1,10.44,2.79,14,7.25A22.17,22.17,0,0,1,260,94.16a39,39,0,0,1,.12,11.82,13.57,13.57,0,0,1-.83,3.12,5.49,5.49,0,0,1-.63,1c-.18.25-.37.28-.13.19-.76.27-1.69.28-2.48.47-2.86.71-5.86,2-7.6,4.47l.55,0a43,43,0,0,0,0-6.71,59.2,59.2,0,0,0-2.16-12.7A26.24,26.24,0,0,0,243,87.3a3.1,3.1,0,0,0-1.71-1.39c-4.06-1-8.16-2.1-12.29-2.79s-8.45-.89-12.65-1.35c-.18,0-.67.27-.35.3,3.74.42,7.48.83,11.22,1.17,4.13.38,8.27,1.63,12.28,2.62a12.5,12.5,0,0,1,1.73.43c.17.07.18.07.46.34a17.6,17.6,0,0,1,3.8,6.77,40.09,40.09,0,0,1,2,6.77c.37,2.19.58,4.43.82,6.64.16,1.51.38,3,.39,4.57,0,1.21-.15,2.59-.22,3.85,0,.25.48.08.55,0,1.89-2.7,5.33-3.91,8.45-4.48a4.22,4.22,0,0,0,1.39-.32c1.22-.69,1.51-2.56,1.75-3.8a37,37,0,0,0,.09-12.06,22.77,22.77,0,0,0-4-10.35c-3.52-4.74-8.72-6.7-14.32-7.72a39,39,0,0,0-18.27.64,20.23,20.23,0,0,0-8.44,4.83c-3.23,3.23-4.22,7.41-5.91,11.49-.08.18.48.1.55,0l6.14-11.47C216.52,81.69,215.94,81.75,215.86,81.92Z"/><path class="cls-1" d="M246.89,122.72c3,3.69,6.24-1.39,6.24-1.39a16.17,16.17,0,0,0,4.8-10.49c.12-2.81-3-3-3-3-2.64.06-2.3.4-6.48,7.56"/><path class="cls-10" d="M251.3,115.59a19.19,19.19,0,0,1,2.6-4.21,4.15,4.15,0,0,1,1.45-1.17c-.07,0,.19-.06.09,0s.11,0,0,0l-.12-.05a2.76,2.76,0,0,1,.44,1,5.64,5.64,0,0,1-.07,2.94c-.05.19.39.13.44,0a5.48,5.48,0,0,0-.09-3.49c-.1-.25-.22-.65-.54-.62a2,2,0,0,0-.83.35,6.28,6.28,0,0,0-1.43,1.39,20.7,20.7,0,0,0-2.35,3.91c-.1.21.34.18.41,0Z"/><path class="cls-10" d="M250.85,117.11c1.54.23-1.07,3.6.21,3.69.33,0,.58-.29.74-.53a7.63,7.63,0,0,0,.82-1.61,7,7,0,0,0,.57-2.28c.05-.94,0-2.13-.86-2.71-.14-.1-.54.1-.34.24a2.63,2.63,0,0,1,.77,2.31,5.82,5.82,0,0,1-.34,1.85,11.79,11.79,0,0,1-.77,1.74,3.51,3.51,0,0,1-.33.52s-.15.13-.15.16h0s0,0,.08,0,0,0,0-.05a1.76,1.76,0,0,1,0-.34,2.13,2.13,0,0,1,.11-.5c.12-.38.26-.76.37-1.14.21-.7.28-1.53-.62-1.66-.2,0-.45.25-.16.29Z"/><path class="cls-5" d="M231.31,106.23a1.94,1.94,0,0,1,2.07.66,1.82,1.82,0,0,1,.46,1,2,2,0,0,1-.69,1.73,1.83,1.83,0,0,1-2.14.09,2,2,0,0,1-.69-2.47,1.79,1.79,0,0,1,1-1"/><path class="cls-5" d="M227.14,108.86s3.14-3.57,6-3.2c4,.51,4.59,2.93,5.3,4.23,0,0-2.21-3.14-5.27-3.46C230.33,106.14,227.14,108.86,227.14,108.86Z"/><path class="cls-5" d="M212.09,103.33a2,2,0,0,0-2.18.11,1.94,1.94,0,0,0-.69.82,2,2,0,0,0,.24,1.84,1.83,1.83,0,0,0,2,.64,2,2,0,0,0,1.3-2.22,1.82,1.82,0,0,0-.71-1.19"/><path class="cls-5" d="M217.5,107.61s-1.94-4.22-4.54-4.56c-3.66-.47-4.82,1.71-5.77,2.81,0,0,2.74-2.5,5.56-2.06C215.31,104.2,217.5,107.61,217.5,107.61Z"/><path class="cls-5" d="M208.27,98.27v-.06a5.89,5.89,0,0,1,1.63-.37c2.95-.28,4.37,0,8.56,1.72l0,.1c-.07.55,0,.24-.11.8l-.18,1.28c-1.26-.54-2.14-1.06-3-1.32-1.63-.54-3.47-1.37-5.2-1.32a5.24,5.24,0,0,0-1.84.29C208.19,99,208.23,98.64,208.27,98.27Z"/><path class="cls-5" d="M228.24,100.9l-.1.81L228,103c1.41-.19,2.44-.46,3.34-.5,1.79-.09,3.86-.42,5.6.08.83.23,1.95.44,2.46,1.27.14.23.43,1.16.78,1,.15,0,0-.76,0-.84-.28-1.44-1.41-2.16-2.83-2.68-2.9-1-4.41-1.13-9.08-.56"/><path class="cls-11" d="M218.37,117.76a2.86,2.86,0,0,0,2.61.14c.17-.09.71.08.46.19a4,4,0,0,1-3.54-.25c-.09-.06-.07-.13,0-.15a.59.59,0,0,1,.42.07"/><path class="cls-11" d="M221.79,117.92a4.52,4.52,0,0,1,1.64-.21.37.37,0,0,1,.24.1s0,.11,0,.14a1.83,1.83,0,0,1-.9.09.33.33,0,0,1-.26-.13c0-.08,0-.12.13-.11a1.46,1.46,0,0,0,.72-.08l.22.23a4.06,4.06,0,0,0-1.47.2.34.34,0,0,1-.29-.07c-.05,0-.11-.13,0-.16"/><path class="cls-11" d="M224,118.25a2.25,2.25,0,0,0,1.81-.59,1.92,1.92,0,0,0-.49-2.53c-.08-.06,0-.12.06-.13a.58.58,0,0,1,.34.11,2.41,2.41,0,0,1,.81,2.25,1.8,1.8,0,0,1-1.64,1.11,3.57,3.57,0,0,1-.73,0c-.1,0-.27-.06-.31-.15s.06-.1.15-.09"/><path class="cls-11" d="M217.22,117.29a.08.08,0,0,0-.06-.13.75.75,0,0,1-.48-.23l-.2.19a2.33,2.33,0,0,1,1,.48.18.18,0,0,0,.21,0c.05,0,.1-.11,0-.16"/><path class="cls-11" d="M217.7,117.44a2.48,2.48,0,0,0-1.08-.53.2.2,0,0,0-.18,0,.1.1,0,0,0,0,.14"/><path class="cls-11" d="M215.87,117.22a1.36,1.36,0,0,1-1-.92,1.93,1.93,0,0,1,.75-2c.06,0,0-.11,0-.14a.24.24,0,0,0-.23,0,2.1,2.1,0,0,0-.89,1.68,1.52,1.52,0,0,0,.82,1.4,1.46,1.46,0,0,0,.46.15c.06,0,.18,0,.22-.08s0-.11-.08-.12"/><path class="cls-12" d="M214.17,79.48a13.17,13.17,0,0,1,6.19-2h.28l1.23.52,0,0,0,0c-.22-.11-.69-.38-.48-.64a1,1,0,0,1,.5-.28,9.3,9.3,0,0,1,1.71-.31h0l.19,0,.19,0h0a10.45,10.45,0,0,1,1.73,0,1.06,1.06,0,0,1,.55.19c.25.23-.18.57-.37.71l0,0,0,0L227,77l.28,0c2.82-.41,7.44,1.54,7.88,1.86s.21.9.19,1l.74-.67a42.27,42.27,0,0,1,4.13,1.42,2.93,2.93,0,0,1,1,1.35,3.61,3.61,0,0,0,1.43.15c.36-.15,2.37.69,3.26,1.76.57.7.45,1.4.75,2h0c.18.35.28.58.28.58l2.05.5c1.66.64,1.53,4,1.53,4,3.46,3.6,3.89,6.87,2.78,10.53-.43,1.4,3.57,2.46,1.07,2.61s-5.2,8.89-5.2,8.89a50.57,50.57,0,0,1-1.38-5,40.87,40.87,0,0,1,.12-5.74l-1.23-.07s-.76-.24-1.79-1.79.37-4.57.37-4.57l.33-1.79-2.36.36a3.12,3.12,0,0,1-2.67-2.68l.06-4.18-1.27,1.51a1.67,1.67,0,0,1-1.27.7c-3.59,0-4.19-2.15-4.19-2.15l-.65-2-.85.68c-.89.86-3.71,2.31-5.25,1.79-.41-.14-2.16-1.27-2.44-1.42a3.07,3.07,0,0,1-1.25-2,5.52,5.52,0,0,1-2.91,2c-1.26.16-4-.14-4.41-.7-.26-.37.14-.45-.32-.39a1.57,1.57,0,0,0-1,.68,8.75,8.75,0,0,1-4.13,5c-3.1,1.48-3.49-6.22-.61-7.54C210.08,83.46,210.26,79.33,214.17,79.48Z"/><path class="cls-8" d="M258.76,88.6s3.41.94,4.48,2.8c2.76,4.8.95,16.56-1.91,18.94l-2.8.54Z"/><path class="cls-7" d="M261,109.05s4.88-.58,5.77,2.41l.41,1.42s5.39-1.38,7.11,1.15,2.19,7.6,2.19,7.6"/><path class="cls-13" d="M219.8,122.69c3,.38,8,.62,8,.62s-1.72,7.26-8.8,6.37-6.22-8.37-6.22-8.37A68,68,0,0,0,219.8,122.69Z"/><path class="cls-14" d="M219.77,122.69c1.45.18,7.34.65,7.34.65a7.75,7.75,0,0,1-7.62,3.49c-5.7-.72-6-5.26-6-5.26Z"/><path class="cls-15" d="M219.67,122.91c1.46.18,5.91.47,5.91.47s-1.8,1.48-6.16.94-5.54-2.35-5.54-2.35Z"/><path class="cls-13" d="M212.57,120.8a11.3,11.3,0,0,0,1.7.41c1.21,0,1-.2,1.89-.16,1.5.06,2.37.8,3,.88s1.67-.42,3.14-.11c.86.18,3,.78,4.17,1a11.39,11.39,0,0,0,1.74,0c.21.09-.41,1.69-8.54.68S212.35,120.83,212.57,120.8Z"/><path class="cls-1" d="M160.88,144.72c.75-8.77,1.24-15.35,1.24-15.35l-14.16-3-3.31,12C150,140.55,155.4,142.85,160.88,144.72Z"/><path class="cls-1" d="M156.66,137.22l6.74-8s5.25-2.38,7.92-6a34.83,34.83,0,0,0,4.31-8.6l6.21-8s4.61-1.91,4.12-3.4-2.4-1.22-4.26-1-25,12.17-25,12.17a47.44,47.44,0,0,1,3-7.51c1.88-3.69,1.22-5.54-1-6s-4.65,3.67-5.37,7.39c-.46,2.35-4.32,5.48-5.69,9.47s.36,8.61.36,8.61C146.44,133.76,156.66,137.22,156.66,137.22Z"/><path class="cls-3" d="M145.16,128.85l-7.73,31.24-10.29-24.52c-2.83-6.91-12.73-14.62-17.52-15.57l-9.6-2,13.44,74.28,11.3,14.13a16.83,16.83,0,0,0,9.48,7.51c7.34,2.34,15,0,19.3-6.22,3.29-4.79,5.39-14.58,5.75-20.38l4.39-54.87-3.88-.06a28.09,28.09,0,0,1-10.28-2.1Z"/><path class="cls-16" d="M99.65,192.89s-6.7-3.24-12.74-3.24-13.86,3.24-13.86,3.24,11.1-1.87,14.26-1.62S99.65,192.89,99.65,192.89Z"/><path class="cls-1" d="M60.81,81.67s1.48,16.62-3.44,27.63c-.69,1.53-7.9,4.45-7.9,4.45l.93,1.64a34.54,34.54,0,0,0,19.6,7.9,93.07,93.07,0,0,0,18.32-.4,14.22,14.22,0,0,0,6.81-3l3.05-2.43s-7.1-1.64-7.4-3.6,2-16.53,2-16.53"/><path class="cls-9" d="M90.92,110.31a30.61,30.61,0,0,0-5.58-3c-2.3-.8-6.33-.89-16.58-10.9,0,0,2.49,11.71,16.14,15a16.89,16.89,0,0,0,5.9.52Z"/><path class="cls-1" d="M107.27,40.51l.14.13a1.26,1.26,0,0,1-.13-.26Zm5.7,2a2.09,2.09,0,0,0,.24.28l0-.11S113,42.42,113,42.54ZM67.39,96c4.7,6.4,12.43,13.56,21.15,14.44a13.45,13.45,0,0,0,8.79-2.59c3.69-2.6,7.57-5.23,10.49-8.48a26.84,26.84,0,0,0,5.72-9c1.65-4,1.79-5.1,1.93-9.31a41.33,41.33,0,0,1,.7-6.47c.45-2,2.52-10,3.37-14.74s-3-12.81-3-12.81a9.26,9.26,0,0,0-1.2-3.46l-.56-.08a.55.55,0,0,1,.2.55,4.42,4.42,0,0,1-1.82-1.21v0a2.18,2.18,0,0,1-2.28-1c0,.12.08.4.22.42a2.82,2.82,0,0,1-2.13-1.1c0,.13.09.4.07.53a5,5,0,0,1-1.68-1.06c.1.19,3.33.17,3.32.26-.86,0,.06.42-.55-.32l-.62-.58c-.72,0-.76.45-1.24-.15.12.15-.17-1.47-.19-1.34-.84-.13-.6-.15-1.25-.64,0,.13-2.41.49-2.43.62-.7-.1-.61.57-1.09,0,.12.15.59-.46.71-.31-.86,0-1.26.49-1.86-.26.12.15-2.56-1.82-2.56-1.82-.86,0-.75.29-1.38-.33.25.3-3.83-.81-3.73-.53-.7-.11.95,2.76.45,2.29,0,.13-1.55-.63-1.55-.63-.72,0,.23.83-.25.23,0,.13.06.53.2.56a2.91,2.91,0,0,1-2.6-.79c.25.3.35.58.47.73a2.77,2.77,0,0,1-1.9-.68c0,.13.2.56.34.58a2.8,2.8,0,0,1-2.2-.59c0,.13.22.43.34.57A2,2,0,0,1,86.2,37l.35.57a4.31,4.31,0,0,1-1.82-.27c0,.13.24.3.22.43a5.16,5.16,0,0,1-1.38-.34c0,.13.36.45.22.43-.56-.09-1,.11-1.67-.25.12.15.22.42.34.57a3.72,3.72,0,0,1-1.66-.37,1,1,0,0,0,.2.55c-.56-.08-1,.11-1.68-.25,0,.13.23.43.35.58A7.93,7.93,0,0,1,78,38.38c0,.12.24.29.36.44a4.37,4.37,0,0,1-1.8-.4c0,.26.08.41.06.54-.42-.06-.68-.23-1.09-.3l-.74.15c-2.34,2.28-3.49,10.9-3.49,10.9-4.85,2.82-7.58,9.63-7.81,12.09a59.87,59.87,0,0,1-1.7,7.62,24.26,24.26,0,0,1-2.09-4.25c-.28-1,.17-2.07-.12-3-1-2.25-3.84-2-5.57-1l-.32.39c-2.57,2.58-1.57,12-.38,14.86-.34,5.53,4,9.1,7.32,5.56l.44,2.24"/><path class="cls-17" d="M116.85,52.11c-2.28-8-10.35-13.42-27.72-18.21A63.91,63.91,0,0,0,57,33.52c12-24.1,37.56-19.44,43.29-18.59s27.16,25.18,19.18,47.14L118.68,64S117.27,53.56,116.85,52.11Z"/><path class="cls-17" d="M53.23,27.58S53,9.31,65.85,7.8s36.07-4.17,41.2,13.26Z"/><path class="cls-18" d="M49.08,66.32c-1.09-1.48-.2-5.1-1.08-6.71C43.38,51.15,46.32,44,49.18,39.89c1.24-1.78.39-5.35.74-7,1.79-8.77,2.85-8.89,17.35-16,11.8-5.79,23.35-3.73,30-2.37C108,16.66,112.59,18,115.21,26.22c.34,1.07-.3,1.79-.07,3.05.33,1.78,3,2.36,3.08,4.57,0,0-14.63,3.5-27.41,8.13s-37.5,26.26-37.74,33.8C53.06,76,50.29,68,49.08,66.32Z"/><path class="cls-17" d="M45.71,48.68s24-22,46.23-18.92c0,0-27.84-7.94-43.49,10.68l-.42.78a19.64,19.64,0,0,0-2.19,6.55Z"/><path class="cls-17" d="M115.4,29.6,114,28.82a39,39,0,0,0-10.54-4l-6.18-1.35s15.47-.4,18.25,3.92Z"/><path class="cls-19" d="M58.45,80a3.24,3.24,0,0,0-3.37,2.44,2.86,2.86,0,0,0,.45,2.11,2.59,2.59,0,0,0,1.1.86,3.39,3.39,0,0,0,2.9-.09c.09,0,.16-.14,0-.21s-.31,0-.42.07a2.42,2.42,0,0,1-2.1-.06,2.34,2.34,0,0,1-.86-.63A2.68,2.68,0,0,1,56.34,81a2.35,2.35,0,0,1,1.87-.74c.12,0,.34,0,.4-.16s0-.14-.16-.15Z"/><path class="cls-20" d="M65.38,59.48,62.77,71.85l-3.56-6.16S63.6,61.23,65.38,59.48Z"/><path class="cls-10" d="M59.74,70.84c-.84-.12-1.88,0-1.84,1.07s.51,1.79.44,2.72c0,.3-.19.92-.57.91s-.89-.81-1.06-1.15a5.33,5.33,0,0,1-.5-3.42c.21-1,.64-2.73,1.82-3,.37-.1.26-.5-.11-.4-1.22.33-1.79,1.6-2.12,2.71a5.89,5.89,0,0,0-.09,3.25c.23.88,1,2.88,2.3,2.45,1.09-.37,1-1.68.8-2.57a6.78,6.78,0,0,1-.31-1.59c0-.63.53-.57,1-.5.29,0,.61-.38.21-.43Z"/><path class="cls-17" d="M58.63,52.66s-9.09,7-10.17,10.1L48,59.61A16.59,16.59,0,0,1,58.63,52.66Z"/><path class="cls-11" d="M97.69,86.34a4,4,0,0,1-3.61-.77c-.21-.17-1-.15-.7.1a5.71,5.71,0,0,0,4.92,1c.14,0,.13-.16,0-.24a.94.94,0,0,0-.59-.06"/><path class="cls-11" d="M93,85.31a6.64,6.64,0,0,0-2.16-.9.56.56,0,0,0-.36.06c-.08,0-.1.13,0,.19a2.48,2.48,0,0,0,1.19.46A.47.47,0,0,0,92,85c.08-.09,0-.18-.14-.19a2.07,2.07,0,0,1-1-.38l-.38.24a5.89,5.89,0,0,1,1.93.8.48.48,0,0,0,.42,0c.09,0,.2-.14.08-.21"/><path class="cls-11" d="M89.88,84.94a3.18,3.18,0,0,1-2.26-1.45,2.58,2.58,0,0,1,1.58-3.15c.13,0,.08-.15,0-.2a.85.85,0,0,0-.5,0,3.17,3.17,0,0,0-1.9,2.65,2.51,2.51,0,0,0,1.82,2.1,5.39,5.39,0,0,0,1,.29c.13,0,.39,0,.47-.08s0-.17-.16-.19"/><path class="cls-11" d="M99.42,86.13c0-.11.06-.16.14-.15a1.15,1.15,0,0,0,.74-.12l.19.32a3.14,3.14,0,0,0-1.49.3.27.27,0,0,1-.29-.09c0-.06-.1-.18,0-.23"/><path class="cls-11" d="M98.71,86.16a3.66,3.66,0,0,1,1.67-.32.3.3,0,0,1,.23.15.12.12,0,0,1,0,.18"/><path class="cls-11" d="M101.28,86.54a1.89,1.89,0,0,0,1.74-.86,2.68,2.68,0,0,0-.27-3c-.07-.08,0-.16.07-.18a.34.34,0,0,1,.3.15,3,3,0,0,1,.59,2.6,2.1,2.1,0,0,1-1.62,1.59,2.62,2.62,0,0,1-.68,0,.33.33,0,0,1-.27-.19c0-.12.06-.15.14-.14"/><path class="cls-20" d="M109.88,69.89a2.21,2.21,0,0,1,2.23.72,2.07,2.07,0,0,1,.36,1,2,2,0,0,1-.75,1.77,1.89,1.89,0,0,1-2.21.06,2.11,2.11,0,0,1-.67-2.57,1.88,1.88,0,0,1,1-1"/><path class="cls-20" d="M102.57,71.45s4.22-2.41,6.18-2.32c2.86.14,6.1,2.22,6.89,3.77,0,0-4.25-3-6.27-3.06S102.57,71.45,102.57,71.45Z"/><path class="cls-20" d="M85.82,66.44a2.65,2.65,0,0,0-2.55-.22,1.92,1.92,0,0,0-.73.83,2,2,0,0,0,.2,1.91,1.91,1.91,0,0,0,2.1.7,2.08,2.08,0,0,0,1.38-2.26c0-.16.18-.43-.4-.85"/><path class="cls-20" d="M90.42,69.25s-3.87-3.35-6-3.73c-3-.54-7,.71-8.18,2,0,0,5.22-1.92,7.35-1.48S90.42,69.25,90.42,69.25Z"/><path class="cls-20" d="M104.71,62.21c0,.58-.09,1.16-.13,1.74s-.07.88-.1,1.31c1.5-.25,2.78-.39,3.75-.47a12.32,12.32,0,0,1,4.23,0,11.37,11.37,0,0,1,2.61,1.05,7.16,7.16,0,0,1,1.34.86c.94.79,1.28,1.63,1.44,1.57s0-.78,0-.85a6.79,6.79,0,0,0-1.87-3.09,7.93,7.93,0,0,0-2.62-1.47,29,29,0,0,0-8.6-.68"/><path class="cls-20" d="M91.54,59.15l-.27,1.72c-.07.44-.14.87-.22,1.31-1.53-.62-2.85-1.06-3.85-1.38a14.93,14.93,0,0,0-4.49-1,12.92,12.92,0,0,0-3,.4,7.42,7.42,0,0,0-1.63.51c-1.18.54-1.74,1.27-1.9,1.18s.22-.75.25-.82a6.81,6.81,0,0,1,2.72-2.55,9.05,9.05,0,0,1,3.12-.79,34.3,34.3,0,0,1,9.28,1.42"/><path class="cls-13" d="M93.51,91.55c-4.12-.62-10.71-2.16-10.71-2.16s-1,10.62,8.54,12,12.46-9.18,12.46-9.18A98,98,0,0,1,93.51,91.55Z"/><path class="cls-14" d="M93.55,91.55c-2-.29-9.8-1.84-9.8-1.84S85,96.94,92.09,98a9.54,9.54,0,0,0,10.38-5.4Z"/><path class="cls-15" d="M93.58,91.89c-2-.29-7.86-1.55-7.86-1.55s1.79,2.73,7.66,3.61,8.09-1.19,8.09-1.19Z"/><path class="cls-13" d="M103.8,92.25c-.2-.08-.29-.08-1.25-.32-1.59-.4-2.54-1-3.7-1.31-2-.47-3.38.23-4.25.1s-2-1.21-4-1.34c-1.19-.07-4.17,0-5.81-.11a13.74,13.74,0,0,1-2.28-.62c-.3,0-.1,2.51,10.85,4.14S104.08,92.38,103.8,92.25Z"/><path class="cls-1" d="M273.22,164.76q-1.29-2.06-2.75-4a42,42,0,0,0-6.87-7.37c-7.08,8.94-7.88,19-10.74,31.25-1.09,4.67-3.29,19.19-4.39,23.86-.87,3.7.92,3.76,1.11,7.43l.09,1.46a14,14,0,0,0,1.52,3.27,6.51,6.51,0,0,0,.84,1.07,7.82,7.82,0,0,0,2,.47c1.58.15,2,1.4,2.55,2-3.25,2.23,3.27,1,5.93-2s2.7-3.7,4.44-7.25c1.56-3.19,5-17.18,6.25-20.49a103.22,103.22,0,0,0,2.63-12.22C277.56,171.51,269.74,173.52,273.22,164.76Z"/><path class="cls-1" d="M257.16,219.57c.73-1.78,1.09-4.57-.25-6-4.24-4.38-3.27-6-8.68-10.64-8.1-7-20.35-11.63-31.59-21.19-.62-.52-3.46-2.07-4.84-4.66-1.18-2.22-9.46,3.36-7.19,6.89C208,189.27,230,214.81,232,217.16c.09.11.19.21.29.31,3.43,3.38,10,9.65,20.36,10.59,7,.64,12-8,12.93-10.17Z"/><path class="cls-2" d="M264.24,147.67s2.36.82-.64,2.48a26.84,26.84,0,0,0-7.21,5.62c-4.95,5.66-9.48,30.45-9.48,30.45l27.91,7.47s7.11-20,3.07-32.45S264.24,147.67,264.24,147.67Z"/><path class="cls-9" d="M177.07,109.45a2.54,2.54,0,0,0-1.72-.4,8.32,8.32,0,0,0-4.82,3,18.16,18.16,0,0,0-2.89,4.82,8.06,8.06,0,0,0-.75,2.2,10.09,10.09,0,0,0,1.13-2,23.66,23.66,0,0,1,3-4.61,8.77,8.77,0,0,1,4.42-3,2.58,2.58,0,0,1,1.55.18c.35.16.51.3.54.3S177.42,109.72,177.07,109.45Z"/><path class="cls-9" d="M166,114.42a12.09,12.09,0,0,0-3.16,2.13,12.22,12.22,0,0,0,3.46-1.62c1.82-1,3.24-2,3.15-2.13A12.5,12.5,0,0,0,166,114.42Z"/><path class="cls-9" d="M161.34,118.21a15.27,15.27,0,0,1,3.11,1.66c.14-.07-.89-1.55-2.92-2.23s-3.75-.11-3.68,0S159.49,117.61,161.34,118.21Z"/><path class="cls-3" d="M34.86,217l7.08-43.61-13-50.5s-16.5,5.26-20.14,21.6C6.09,161.8,3.3,213.65,5.43,224.3c.19,1,7,26.31,7.46,28H44.24Z"/><path class="cls-1" d="M244.37,138l8.77,4.51s-25.09,21.95-33.1.69L233.2,137Z"/><path class="cls-16" d="M31.47,134.68c4.48,3.86,6.59,9.57,7.33,15.31.87,6.68.44,13.62.05,20.32-.73,12.83-2.49,25.56-3.83,38.33-.28,2.61-.9,5.2-.31,7.77l1.46,6.3,4.38,19,3,12.84c.1.45,1.56.08,1.45-.39l-6.92-30L36.39,217c-.14-.63-.31-1.26-.44-1.9a11.62,11.62,0,0,1,.17-3.32c1.28-13,3.11-25.85,4-38.85.48-7.16,1-14.52.31-21.69-.57-6.36-2.64-12.84-7.61-17.13-.36-.31-1.7.25-1.35.55Z"/><path class="cls-16" d="M115.93,193.74a20.63,20.63,0,0,0,6.28-6.86,17.68,17.68,0,0,0,1.87-9.13,40,40,0,0,0-2.68-12.06c-1.49-4-3.29-8-2.27-12.32.16-.7-1.32-.53-1.47.11-.92,3.94.41,7.71,1.81,11.35a44.87,44.87,0,0,1,3,11.49,18.18,18.18,0,0,1-1.23,9.51,18.62,18.62,0,0,1-6.29,7.24c-.79.58.39,1.1,1,.67Z"/><path class="cls-16" d="M137,161a106.54,106.54,0,0,0-4.61,17.45c-.52,2.92-.91,5.87-1.17,8.82-.23,2.64-.28,5.34.9,7.78.23.48,1.65,0,1.45-.39-1.22-2.52-1.11-5.29-.86-8q.42-4.44,1.2-8.84a107.23,107.23,0,0,1,4.54-17c.17-.46-1.28-.28-1.45.19Z"/><path class="cls-1" d="M212.25,188.76l-9.46-1.4s-5,1.56-9,.73a31.56,31.56,0,0,1-8.15-3.25l-9.09-1.71s-4.31,1.5-4.87.19.9-2.3,2.32-3.25,24.44-6.84,24.44-6.84a42.3,42.3,0,0,0-6.58-3.33c-3.51-1.39-4.19-3.05-2.93-4.69s5.39-.32,8.13,1.78c1.75,1.33,6.28,1.13,9.63,3s5,6.1,5,6.1C217.13,180.2,212.25,188.76,212.25,188.76Z"/><path class="cls-21" d="M264.05,153c-4.85-.28-8.66,4.22-10.47,8.19-2.79,6.13-4,13.09-5.18,19.69-.32,1.8-.63,3.61-.89,5.42a.18.18,0,0,0,.14.21l5.24,1.52c.38.11,1.68-.48,1.17-.63l-3.1-.9a15.23,15.23,0,0,0-1.75-.51,1,1,0,0,1-.38-.11c.08.07.13.3.14.09a49.35,49.35,0,0,1,1.06-6.36c.68-3.74,1.46-7.46,2.45-11.13s2.15-7.78,4.54-10.92a10.07,10.07,0,0,1,4.42-3.51,5.36,5.36,0,0,1,1.31-.33c.12,0,.65,0,.39,0,.38,0,1.67-.64.91-.69Z"/></g></svg>