<svg xmlns="http://www.w3.org/2000/svg" viewBox="0 0 285.1 249.23"><defs><style>.cls-1{fill:#ce634e;}.cls-2{fill:#a38166;}.cls-3{fill:#87654d;}.cls-4{fill:#a66e53;}.cls-5{fill:#361b10;}.cls-6{fill:#4c2713;}.cls-7{fill:#683721;}.cls-8{fill:#22110b;}.cls-20,.cls-9{fill:#662117;}.cls-9{stroke:#662117;stroke-miterlimit:10;stroke-width:0.28px;}.cls-10{fill:#4f2e25;}.cls-11{fill:#b15e27;}.cls-12{fill:#de8b27;}.cls-13{fill:#ce8d2a;}.cls-14{fill:#13110f;}.cls-15{fill:#231f20;}.cls-16{fill:#010101;}.cls-17{fill:#653c29;}.cls-18{fill:#31160e;}.cls-19{fill:#f1eef7;}</style></defs><g id="Layer_1" data-name="Layer 1"><path class="cls-1" d="M147.47,63.85a17.71,17.71,0,0,1,11.65,12.07c2.08,6.86-1.07,32.86,0,38.93,1.37,7.06,7.78,12.4,13.95,21.17L171,143.63l-6.59.15s-10.72-11.1-14.32-20.68S147.47,63.85,147.47,63.85Z"/><path class="cls-2" d="M105.05,181.25c.36-2.1-.71-3.52-3.49-3.15a22.23,22.23,0,0,1-2.83,0c-4.19,0-5-2.13-5-5.74,0-3.94.77-5.85,4.91-5.86h28.9v1.14c9.82,0,19.64-1.14,29.46-1.19,2.13,0,4.09.43,4.26,2.28.43,4.77,1,9.94-6.36,9.43-.56,0-1.14.06-1.7,0-2.57-.35-3,.69-2.63,2.52,1.1,5.94,2.11,10.48,3.11,16.43,2.37,14,4.76,28,7.05,42,.64,3.86.5,3.83-4.43,3.76-1.52,0-2.16-.41-2.37-1.69-2.22-13.51-5-30.85-7.24-44.36,0-2.79-.41-1.67-.45-4.45a1,1,0,0,0-.28-.71,4.35,4.35,0,0,0-.09-.82c-.86-4.62-.83-6.31-1.56-10.95-.24-1.54-1.64-1.83-3.79-1.79-8.67.13-17.35.11-26,0-2,0-3.3.35-3.53,1.81-.77,4.79-.86,6.49-1.74,11.27a2.44,2.44,0,0,0,0,.88,60.1,60.1,0,0,1-.69,6.55,18.81,18.81,0,0,0-.5,2.95c-2.12,13.07-4.3,24.54-6.56,37.6-.66,3.83-.76,3.74-5.54,3.68-1.92,0-2.14-.57-1.9-2C97.52,220.37,101.5,201.71,105.05,181.25Z"/><path class="cls-3" d="M161.33,169.72s-26.78,3.62-40.39,2.69c-16-1.09-27.16-1.92-26.61-4s10.12-6.44,19.76-6.76,36.07,2.07,36.07,2.07,8.65,1.66,9.8,2.72C161.8,168.16,161.33,169.72,161.33,169.72Z"/><path class="cls-3" d="M104.92,180a.53.53,0,0,1-.08-.17c-.49-1.67-.93-1.85-.93-1.85l1.33,0v0l.5,0,7,.09a3.18,3.18,0,0,0-1.4,1.47,22.34,22.34,0,0,0-.85,3.61c-.27,1.55.43,1.85,2,1.83,5.11-.07,10.23,0,15.35,0,4.94,0,9.89-.07,14.82,0,2,.05,2.4-.57,2.12-2.17-.42-2.41-.42-2.53-.61-3.4a2.24,2.24,0,0,0-1.87-1.31l9.61,0c-1.33.76-1.21,1.74-1.21,1.74h0c.57,3.38.71,5,1.38,9.3.35,2.16,1,4.34,1.3,6.5-2.14.44-4.55.94-6.68,1.48-.27-1.74-.54-3.49-.8-5.23s-.82-2.23-2.79-2.22q-15.37.13-30.75,0c-2,0-2.7.52-3,2.3l-.78,5.07a56.54,56.54,0,0,1-6-2.67C103.45,189,104.08,185.18,104.92,180Z"/><polygon class="cls-4" points="171.15 224.7 170.05 211.66 182.44 211.88 180.49 224.19 171.15 224.7"/><polygon class="cls-4" points="159.38 229.22 157.96 216.85 169.63 217.05 168.07 229.17 159.38 229.22"/><path class="cls-4" d="M179.78,224.85s8.33,5.63,12.75,10h0s-2.15,4.65-4.78,4.36S170.69,230,170.69,230l1.15-5.08Z"/><polygon class="cls-5" points="176.54 239.01 173.27 239.95 173.43 230.85 176.11 232.63 176.54 239.01"/><polygon class="cls-6" points="173.46 230.59 173.27 239.95 170 238.71 171.02 230.86 173.46 230.59"/><path class="cls-5" d="M200.77,242.3a3,3,0,0,1-1.77.47c-3-.15-12.51,0-14.54-.63-3-1-2.53-.38-5.39-2.8s-7.64-3-8.71-3.57.39-5.17.39-5.17.11-.91,1-.74h.13l2.56,2.53,7,3.87,4,3.91,8,.08,6.43-.32a7.27,7.27,0,0,1,1.7.64,1,1,0,0,1,0,1.08A4.94,4.94,0,0,1,200.77,242.3Z"/><path class="cls-7" d="M171,228.49c4.18.42,7.14,4.61,10.53,6.71,1.52.94,4.64,2.81,6.42,1.64a6.37,6.37,0,0,0,1.56-.77,6.07,6.07,0,0,1,3.31-1.29,6.32,6.32,0,0,0,1.79,1.48c1.27.77,4,1.8,5.48,2.82s.88,1.67.88,1.67a5,5,0,0,1-2.13.83,46.38,46.38,0,0,1-4.87-.1c-2.2-.15-8.84,0-10.45-.88-1.19-.62-2.65-.73-5-3.19-2.17-2.26-8.54-2.48-8.8-3.3a7.05,7.05,0,0,1,.44-4Z"/><path class="cls-4" d="M167.4,228.35s8.33,5.63,12.75,10h0s-2.15,4.65-4.78,4.35-17.06-9.19-17.06-9.19l1.15-5.08Z"/><polygon class="cls-8" points="164.07 242.36 160.8 243.31 160.96 234.2 163.64 235.98 164.07 242.36"/><polygon class="cls-5" points="160.99 233.94 160.8 243.31 157.53 242.06 158.55 234.21 160.99 233.94"/><path class="cls-5" d="M188.3,245.65a3,3,0,0,1-1.77.47c-2.59-.13-5.2-.07-7.79-.12-3-.05-5.94,0-8.7-1.13-2.5-1-4.2-3-6.71-4a33,33,0,0,0-3.33-1.06,9,9,0,0,1-2.11-.67c-1.06-.61.39-5.17.39-5.17a.81.81,0,0,1,1-.74l.13,0,2.56,2.52,7,3.87,4,3.91,8,.08,6.43-.31a7.32,7.32,0,0,1,1.7.63.93.93,0,0,1,0,1.08A4.42,4.42,0,0,1,188.3,245.65Z"/><path class="cls-7" d="M158.57,231.84c4.18.42,7.14,4.61,10.53,6.71,1.52.94,4.64,2.81,6.42,1.64a6,6,0,0,0,1.56-.77,6,6,0,0,1,3.31-1.29,6.35,6.35,0,0,0,1.78,1.48c1.27.77,4,1.81,5.49,2.82s.88,1.67.88,1.67a5.12,5.12,0,0,1-2.13.84,47.12,47.12,0,0,1-4.87-.11c-2.2-.15-8.84-.05-10.45-.88-1.19-.61-2.65-.73-5-3.19-2.17-2.26-8.54-2.47-8.8-3.3a7.05,7.05,0,0,1,.44-4Z"/><path class="cls-9" d="M105.58,123.42s-14.07,21.75-5.43,38.1c4.11,7.78,16.41,7.77,16.41,7.77l12.63-15.87V127.17Z"/><path class="cls-1" d="M151.29,109.73a46.3,46.3,0,0,1,.62-5.26c.72-3.25,4-5.19,6.65-6.69.65-.36-1.2-.49-.53-.81-.15-2.44,1.12-5.39,1-7.82-.22-3.92.88-7.57.31-11.46a17.67,17.67,0,0,0-6-10.34,14.75,14.75,0,0,0-3.18-2.43l-4.38-2.21c-.16,0-.93-.44-1.1-.47-.35-.06,0,.16-.16-.05l-4.11-1.48-11.61-5.3-7.79,3.17s-10.88,3.36-13,5c-2.66,2,.27,38.86.27,38.86A66.42,66.42,0,0,1,99,131.66c0,.1-.29.79-.32.9-.11.34,2,1.78,2.33,2a16.82,16.82,0,0,0,3.32,1c2,.69,3.65.52,5.73.8a84.19,84.19,0,0,0,8.53.77c2.66.09,5.42-.43,8.06-.2l29.57-1.7-3.13-13.32c-.36-1.53-.88-3-1.18-4.55a36.63,36.63,0,0,1-.6-4.9c-.05-.8-.08-1.6-.06-2.41C151.27,109.93,151.28,109.83,151.29,109.73Z"/><path class="cls-9" d="M191.6,152.65c-.64,19.12-2.69,52.53-5.73,72,0,0-18.88,4.28-21.06,0,0,0-1-37.63-8.23-61.06-6.38-20.64-45.09-22.22-40.18-24.09,7.74-2.94,53-10.16,62.56-6.7C185.31,135.14,192,140,191.6,152.65Z"/><path class="cls-9" d="M178.5,159.63c.1-1.23.27-2.46.48-3.67a52.36,52.36,0,0,1,2.1-8,54.65,54.65,0,0,1,3.35-7.77c.9-1.69-4.77-2.16-3.68-3.71-24.18-4-67.14.64-67.14.64s-18.28,5.78-13,21.8c7,21.23,59.57,7.43,77.59.83Z"/><path class="cls-9" d="M181.94,137a30.91,30.91,0,0,0-6.5,1.07,18.79,18.79,0,0,0,.32-3.35l-1.4-1.11a41,41,0,0,0-5.82,3.81,51.61,51.61,0,0,0-6,5.51,47.35,47.35,0,0,0-5,6.26c-.42.63-6.46,1.28-6.84,1.94.07,0,0,3.81.08,3.81-5.47,10.33,3.12,25.61,2.58,44-.47,16.12-.51,15.22-1.37,23.79,2.57,3.87,21.5,3.87,21.5,3.87C176,201.72,181.94,137,181.94,137Z"/><path class="cls-4" d="M126.29,43.17s.73,8.23-1.71,13.69c-.34.76-5.48,2.62-5.48,2.62l6.54,2.81a38.6,38.6,0,0,0,13,1.45c2-.19,4.76-.08,6.26-1.38h0S141.35,61,141.2,60s.92-9.1.92-9.1"/><path class="cls-10" d="M141.36,57.38a19.23,19.23,0,0,0-2.92-1.53c-1.14-.39-3.14-.44-8.21-5.4a10.49,10.49,0,0,0,8,7.42,8.91,8.91,0,0,0,3.07.32Z"/><path class="cls-4" d="M149.3,22.78l.07.07a1.39,1.39,0,0,1-.06-.13Zm2.82,1,.13.14v-.06S152.13,23.72,152.12,23.79ZM129.55,50.26c2.33,3.17,6.21,6.33,10.47,7.15s4.86-1.14,6-2.07a28.44,28.44,0,0,0,4-3.46,13.22,13.22,0,0,0,3-5.55c.56-2.22.2-4.46.69-6.68.22-1,1.25-4.95,1.67-7.3S153.92,26,153.92,26a4.64,4.64,0,0,0-.6-1.72l-.27,0a.29.29,0,0,1,.1.28,2.16,2.16,0,0,1-.9-.6h0a1.1,1.1,0,0,1-1.13-.5c0,.07,0,.2.11.21a1.4,1.4,0,0,1-1.05-.54c0,.06,0,.2,0,.26a2.58,2.58,0,0,1-.83-.52c0,.09,1.65.08,1.64.12-.42,0,0,.21-.26-.16l-.31-.28c-.36,0-.38.22-.62-.08.06.08-.08-.73-.09-.66-.42-.06-.3-.08-.62-.32,0,.07-1.19.25-1.2.31-.35-.05-.31.28-.54,0,.06.08.29-.22.34-.15-.42,0-.62.24-.92-.13.06.08-1.26-.9-1.26-.9-.43,0-.38.15-.68-.16.12.15-1.91-.4-1.86-.27-.34,0,.48,1.37.23,1.14a3.88,3.88,0,0,1-.77-.31c-.36,0,.12.41-.12.11,0,.06,0,.27.1.28a1.43,1.43,0,0,1-1.29-.39c.12.15.17.28.23.36a1.34,1.34,0,0,1-.94-.34c0,.07.1.28.17.29a1.42,1.42,0,0,1-1.09-.29c0,.06.11.21.17.28a1,1,0,0,1-.81-.25l.17.29a2.34,2.34,0,0,1-.91-.14c0,.06.12.15.12.21a2.77,2.77,0,0,1-.69-.16c0,.06.18.22.11.21-.28,0-.5,0-.83-.13.06.08.11.21.17.29a1.83,1.83,0,0,1-.82-.19.5.5,0,0,0,.1.28c-.28-.05-.51,0-.83-.13,0,.07.11.21.17.29a3.27,3.27,0,0,1-.83-.13c0,.07.12.15.18.22a2.24,2.24,0,0,1-.9-.19c0,.12,0,.2,0,.26-.21,0-.34-.11-.55-.14l-.37.07c-1.15,1.13-1.72,5.4-1.72,5.4a9.44,9.44,0,0,0-3.87,6,29.23,29.23,0,0,1-.85,3.77,11.67,11.67,0,0,1-1-2.1c-.14-.48.08-1-.06-1.51-.47-1.11-1.9-1-2.76-.47l-.16.19c-1.27,1.28-.78,5.92-.19,7.36-.17,2.74,2,4.51,3.63,2.75l.22,1.11"/><path class="cls-11" d="M154.05,28.53c-1.13-4-5.13-6.65-13.73-9a31.61,31.61,0,0,0-15.93-.19c5.94-11.94,18.61-9.64,21.45-9.21s14.68,14.19,9.5,23.35l-.38.95S154.26,29.25,154.05,28.53Z"/><path class="cls-11" d="M122.53,16.38s.12-8,6.25-9.81c8.19-2.38,18.89-2.38,21.43,6.26Z"/><path class="cls-12" d="M120.48,35.57c-.54-.74-.1-2.53-.54-3.33a8.9,8.9,0,0,1,.58-9.76c.62-.89.2-2.66.37-3.49.89-4.34,1.41-4.4,8.59-7.93,5.85-2.87,11.57-1.85,14.87-1.18,5.29,1.08,7.59,1.77,8.89,5.82.17.53-.15.89,0,1.51.16.88,1.2,1.82,1.26,2.92a81.85,81.85,0,0,0-13.31,3.37c-6.34,2.3-18.58,13-18.7,16.75A45.8,45.8,0,0,0,120.48,35.57Z"/><path class="cls-11" d="M118.8,26.83s11.9-10.91,22.91-9.38c0,0-13.8-3.93-21.55,5.3l-.21.38a9.81,9.81,0,0,0-1.08,3.25Z"/><path class="cls-11" d="M153.33,17.38l-.7-.39a19.29,19.29,0,0,0-5.22-2l-3.06-.67s7.66-.2,9,1.94Z"/><path class="cls-13" d="M125.12,42.33a1.59,1.59,0,0,0-1.67,1.21,1.36,1.36,0,0,0,.22,1,1.33,1.33,0,0,0,.54.43,1.69,1.69,0,0,0,1.44,0s.08-.07,0-.11-.16,0-.21,0a1.19,1.19,0,0,1-1,0,1.24,1.24,0,0,1-.43-.32,1.32,1.32,0,0,1,.07-1.7,1.19,1.19,0,0,1,.93-.37c.06,0,.17,0,.19-.08s0-.07-.07-.07Z"/><path class="cls-14" d="M128.55,32.18l-1.29,6.13-1.77-3.06S127.67,33.05,128.55,32.18Z"/><path class="cls-15" d="M125.76,37.8c-.42,0-.93,0-.92.54a10.26,10.26,0,0,1,.22,1.35c0,.14-.09.45-.28.45s-.44-.41-.53-.57a2.64,2.64,0,0,1-.24-1.7c.1-.51.31-1.35.9-1.51.18,0,.13-.25-.06-.2a1.76,1.76,0,0,0-1,1.35,2.9,2.9,0,0,0,0,1.6c.12.44.51,1.43,1.14,1.22s.49-.83.39-1.28a3.47,3.47,0,0,1-.15-.78c0-.32.26-.29.51-.25s.3-.19.11-.22Z"/><path class="cls-11" d="M125.21,28.8s-4.51,3.45-5,5l-.23-1.56A8.21,8.21,0,0,1,125.21,28.8Z"/><path class="cls-16" d="M144.55,45.49a2,2,0,0,1-1.78-.38c-.11-.09-.5-.08-.35,0a2.81,2.81,0,0,0,2.44.48c.07,0,.06-.07,0-.11a.45.45,0,0,0-.3,0"/><path class="cls-16" d="M142.22,45a3.36,3.36,0,0,0-1.07-.44.28.28,0,0,0-.18,0,0,0,0,0,0,0,.09,1.22,1.22,0,0,0,.59.23.24.24,0,0,0,.2,0c0-.05,0-.09-.07-.1a1,1,0,0,1-.48-.19l-.18.12a3,3,0,0,1,.95.4.26.26,0,0,0,.21,0s.1-.07,0-.11"/><path class="cls-16" d="M140.69,44.79a1.57,1.57,0,0,1-1.12-.72,1.26,1.26,0,0,1,.78-1.55c.07,0,0-.08,0-.1a.36.36,0,0,0-.25,0,1.57,1.57,0,0,0-.94,1.31,1.25,1.25,0,0,0,.9,1,3,3,0,0,0,.49.14.32.32,0,0,0,.24,0s0-.09-.08-.1"/><path class="cls-16" d="M145.41,45.38a.06.06,0,0,1,.07-.07.61.61,0,0,0,.37-.06l.09.16a1.62,1.62,0,0,0-.74.14s-.1,0-.14,0-.05-.09,0-.11"/><path class="cls-16" d="M145.06,45.4a1.73,1.73,0,0,1,.83-.16.14.14,0,0,1,.11.07.06.06,0,0,1,0,.09"/><path class="cls-16" d="M146.34,45.58a.93.93,0,0,0,.86-.42,1.33,1.33,0,0,0-.14-1.49s0-.08,0-.09a.19.19,0,0,1,.15.07,1.49,1.49,0,0,1,.29,1.29,1.05,1.05,0,0,1-.81.79,1.22,1.22,0,0,1-.33,0s-.12,0-.14-.1,0-.07.08-.07"/><path class="cls-14" d="M147.58,37.56a9.06,9.06,0,0,0,2.63,1.95,4.75,4.75,0,0,0,3.8-.85s-2.44.86-3.41.6A16.51,16.51,0,0,1,147.58,37.56Z"/><path class="cls-14" d="M141.39,36.16a9.88,9.88,0,0,1-3.34,1A5.36,5.36,0,0,1,134.43,35s2.22,1.63,3.3,1.72A18.13,18.13,0,0,0,141.39,36.16Z"/><path class="cls-14" d="M154.55,36.47a.49.49,0,0,1,0-.12,3.38,3.38,0,0,0,.08-.34.85.85,0,0,1,0-.22v0a1,1,0,0,1-.1-.28,2.37,2.37,0,0,0-.24-.31,3.85,3.85,0,0,0-1.22-.85,14.2,14.2,0,0,0-4.21-.76c0,.29-.1.57-.14.85l-.12.65c.76,0,1.39-.06,1.87-.06a6.65,6.65,0,0,1,2.09.22,5.76,5.76,0,0,1,1.23.65,4,4,0,0,1,.63.49Z"/><path class="cls-14" d="M142,32.29l-.12.85-.09.65c-.82-.29-1.53-.51-2.07-.66a8.75,8.75,0,0,0-2.4-.48,7.5,7.5,0,0,0-1.6.21,4.33,4.33,0,0,0-.86.26c-.62.27-.9.64-1,.59s.1-.37.12-.41A3.47,3.47,0,0,1,135.39,32a4.91,4.91,0,0,1,1.65-.41,19.74,19.74,0,0,1,5,.67"/><path class="cls-17" d="M142.29,48.07c-2.13-.37-5.53-1.24-5.53-1.24a5.81,5.81,0,0,0,11.15,2S144.42,48.45,142.29,48.07Z"/><path class="cls-18" d="M142.31,48.08c-1-.18-5.05-1.08-5.05-1.08a5.75,5.75,0,0,0,4.59,3.24c4,.7,5.54-1.42,5.54-1.42Z"/><path class="cls-19" d="M142.33,48.25c-1-.18-4.06-.91-4.06-.91s.9,1.37,3.94,1.9,4.19-.43,4.19-.43Z"/><path class="cls-17" d="M148.19,48.51a8.73,8.73,0,0,1-1.22-.08c-.82-.23-1.31-.55-1.9-.71a9.13,9.13,0,0,0-2.21,0,8.79,8.79,0,0,0-2.08-.72c-.61-.06-2.16-.09-3-.16a8.18,8.18,0,0,1-1.17-.35c-.16,0-.07,1.22,5.59,2.22S148.34,48.57,148.19,48.51Z"/><path class="cls-1" d="M113.82,102.62l-.71,8.3a.28.28,0,0,0,.35.06c1.13-.65,2.21-1,3.29-1.71l24.19,10.49-1.42,11.58s-25.61-4.84-31.67-6.61c-.34-.1-4.09-1.37-4.42-1.48-3.21-1.06-5.65-5.53-6.56-8.59-1.13-3.79-.56-8.11-.05-12,1-7.62,1.42-15.26,2.54-22.87.54-3.64.93-6.92,2.38-10.31,2-4.74,3.15-6.41,8.6-7.88l9.28-2.46"/><path class="cls-20" d="M115.2,107.21a5.81,5.81,0,0,0-3.21.4,15.87,15.87,0,0,0-1.48.61,3.07,3.07,0,0,0-1.08.81c-.08.11.08.18.16.18a.46.46,0,0,0,.37-.15,2.36,2.36,0,0,1,1-.67c.39-.18.79-.34,1.19-.5a5.07,5.07,0,0,1,2.74-.36.46.46,0,0,0,.4-.11c.07-.08.07-.18-.06-.21Z"/><path class="cls-20" d="M143.27,132.79l-.43.9.46-.17c-13.66-1.9-26.72-6.13-39.74-10.53-.13,0-.63.16-.46.22,13.05,4.42,26.15,8.65,39.84,10.55.12,0,.4,0,.46-.17l.42-.9c.05-.1-.48-.05-.55.1Z"/><path class="cls-20" d="M112.5,66.19c2.25.52,3.56,3,4.33,5a14.26,14.26,0,0,1,1.07,4.94,62.09,62.09,0,0,1-.49,6.94c-.64,6.48-1.44,12.94-2.26,19.4-.2,1.58-.4,3.17-.61,4.75v0c4.06,2.38,8.24,4.56,12.43,6.69,5.46,2.77,10.86,5.68,16.22,8.65a21.61,21.61,0,0,1,2.26,1.25c.06.05.32.12.35.2s-.33.93-.39,1.12.5,0,.55-.1l.39-1.16s0,0,0,0c-5.15-2.88-10.34-5.7-15.57-8.42-3.81-2-7.65-3.91-11.41-6-1.15-.62-2.29-1.25-3.42-1.9-.21-.12-.78-.36-.85-.53a3.47,3.47,0,0,1,.14-1c.1-.73.19-1.47.29-2.2q.43-3.43.86-6.87c.66-5.39,1.31-10.79,1.79-16.21a33.18,33.18,0,0,0,.26-5.27c-.23-3.18-1.86-8.64-5.48-9.47-.13,0-.61.18-.46.21Z"/><path class="cls-4" d="M145.42,125.57l-1.88,6.84,2.14.39s4.87,1.56,6.35,1.57,4.95.5,4.95.5a2,2,0,0,0-.24,1.31,1.93,1.93,0,0,0,.9,1.22l1.81-2.11c.28,1.12,1.34.44,1.34.44l1.35-1.88c.29,1.39,1.68.54,1.68.54l1-2.75A4.54,4.54,0,0,0,166,133c.62.38,1-.71,1-.71L165,127.53l-6.41-2.81-11,1.26Z"/><path class="cls-10" d="M160.92,126.7a9.67,9.67,0,0,1,1.2.61c.43.25.91.53,1.39.87a8,8,0,0,1,1.25,1.08,1.08,1.08,0,0,1,.31.73c0,.21,0,.42,0,.63a3,3,0,0,1-.28,1.2,11.47,11.47,0,0,1,.06-1.2c0-.19,0-.41,0-.61a.79.79,0,0,0-.26-.54,9.32,9.32,0,0,0-1.23-1c-.46-.32-.92-.6-1.35-.87s-.81-.5-1.14-.66a3.48,3.48,0,0,0-1.14-.29A1.59,1.59,0,0,1,160.92,126.7Z"/><path class="cls-10" d="M159.48,129c.63.33,1.55.69,2.51,1.26a1.86,1.86,0,0,1,.66.55,2.65,2.65,0,0,1,.2.77,2.6,2.6,0,0,1-.06,1.3,4.37,4.37,0,0,1-.43.76,1.8,1.8,0,0,1-.18.26,1.31,1.31,0,0,1,.08-.31,5.64,5.64,0,0,0,.32-.77,2.52,2.52,0,0,0,0-1.22,3,3,0,0,0-.17-.65,2,2,0,0,0-.57-.44c-.92-.55-1.84-.95-2.45-1.34a3,3,0,0,1-.93-.71A9.94,9.94,0,0,1,159.48,129Z"/><path class="cls-10" d="M159.82,134.59a1.45,1.45,0,0,0,.25-.8,1,1,0,0,0-.5-.82,3.19,3.19,0,0,0-1-.41l-.89-.27c-.23-.07-.43-.15-.56-.18a.71.71,0,0,0-.22,0s.06-.1.23-.1a3.21,3.21,0,0,1,.62.1l.91.2a3.23,3.23,0,0,1,1.11.44,1.31,1.31,0,0,1,.6,1.07,1.61,1.61,0,0,1-.35.92,1.72,1.72,0,0,1-.67.57S159.56,135,159.82,134.59Z"/><path class="cls-20" d="M156.2,77.75c-1.76,2.42-1.19,5.11-.52,7.78,1.08,4.31,2.09,8.88,1.13,13.32a9.83,9.83,0,0,1-2.24,4.67,26.38,26.38,0,0,1-2.45,2,3.19,3.19,0,0,0-1.07,2.3,25.64,25.64,0,0,0,0,5.47c.33,4.09,1.67,8,2.61,12,0,.14.59,0,.56-.15-.79-3.34-1.9-6.66-2.39-10.06a31.11,31.11,0,0,1-.29-6.1c.06-1.13.05-2.48.91-3.32.7-.67,1.57-1.15,2.27-1.82a8.84,8.84,0,0,0,2.24-3.52c1.44-4,.8-8.57-.12-12.66-.74-3.26-2.32-6.92-.09-10,.12-.16-.42-.09-.51,0Z"/></g></svg>