<?xml version="1.0" encoding="utf-8"?>
<!-- Generator: Adobe Illustrator 26.0.1, SVG Export Plug-In . SVG Version: 6.00 Build 0)  -->
<svg version="1.1" id="Layer_1" xmlns="http://www.w3.org/2000/svg" xmlns:xlink="http://www.w3.org/1999/xlink" x="0px" y="0px"
	 viewBox="0 0 285.1 249.2" style="enable-background:new 0 0 285.1 249.2;" xml:space="preserve">
<style type="text/css">
	.st0{fill:#CCB631;}
	.st1{fill:#A66E53;}
	.st2{fill:#DDB98A;}
	.st3{fill:#684135;}
	.st4{opacity:0.15;}
	.st5{fill:#010101;}
	.st6{fill:#878C8E;}
	.st7{fill:#907E2F;}
	.st8{fill:#5E5F5F;}
	.st9{fill:#853324;}
	.st10{fill:#684134;}
	.st11{fill:#13110F;}
	.st12{fill:#ACABAB;}
	.st13{fill:none;stroke:#010101;stroke-width:0.56;stroke-miterlimit:10;}
	.st14{fill:#273339;}
	.st15{fill:#622515;}
	.st16{fill:#653C29;}
	.st17{fill:#050201;}
	.st18{fill:#F1EEF7;}
</style>
<g id="Layer_1_00000020375654009354171990000009907651171042453418_">
	<path class="st0" d="M214.9,224.6c0-1.3,13-67.5,7.9-87.4s-38.9-21.5-38.9-21.5l-39,3.8l-10.5,0.4c-2.2,0.5-8.3,2-10.2,3.1
		l-3.1,2.3l-3.6,45.5l-3,34.4l-0.4,22.3l-7.1,21.1l114,0.4C218.6,238,214.9,225.2,214.9,224.6z"/>
	<path class="st0" d="M50.4,164c0.5,1.3,24.9,46.7,31,53c5.4,5.6,17.6,10.7,27.2,1.4c7.3-7,18.7-31.4,18.7-31.4l-3-60.1l4.1-5.4
		c-11.3,2.7-21.7,15.8-24.2,27.2l-10.4,32L77.1,156L50.4,164z"/>
	<path class="st1" d="M48.5,141.7c-2-1.3-4.4-1.7-6.6-1.1c-1.4,0.2-2.7,1.2-3.2,2.6c-0.2,1.6,0.7,3.2,2.2,3.8s3.1,0.8,4.7,0.6
		l2.5-0.1c1,0.1,2-0.1,2.8-0.6c1.2-1.1,1.4-2.9,0.5-4.2c-1-1.3-2.6-1.9-4.2-1.8"/>
	<path class="st1" d="M44.2,132.2l7.1,19.8c1,3.3,1.6,6.6,4.9,7.7l0,0l0.7,2.3l16.2-4.9l-3.3-10.5l-19.9-16.3L44.2,132.2z"/>
	<path class="st1" d="M57.7,132c-0.2-2.2,0.8-5.8,2.4-8.9c0.6-1.3,1.4-2.5,2.5-3.5c1.1-0.9,2.6-1.3,4.1-0.9c1.1,0.2,2,1.1,2,2.3
		c-0.1,1.1-0.5,2.2-1.2,3.1c-1.8,3.7-2,5.8-1.1,7.4"/>
	<path class="st2" d="M49.7,132.9c0.5,1.2,3.7,12.7,7.7,17.9c4.6,5.9,7.4,7.2,7.4,7.2l16.8-0.9c0,0,11.8-8.1,11.4-26.3
		c0,0-3.5-4-21.7-2.9C59,128,54,130.3,49.7,132.9z"/>
	<path class="st2" d="M58,151.1c-3.2,2-8.8,3-12.1,1.2c-4.5-2.3-6.3-7.8-4-12.3c1.6-3.1,4.8-5.1,8.3-5l2.3,4.9c0,0-7.9,1.8-5.7,5.9
		s7.9,0,7.9,0L58,151.1z"/>
	<path class="st1" d="M40,133.1c0,0-3.8,5.4,0.5,7.9s10,2.3,10.8,1.1s1.7-3.7-1-3.9S40,133.1,40,133.1z"/>
	<path class="st1" d="M55.3,130.2l-4.6-1.2l-4-1.8c-2-0.7-4-0.9-5-0.5c-1.9,0.8-2.9,3.5-2.8,5.5c0.2,3.3,10.5,7.9,12,6.3
		c1.2-1,1.3-2.8,0.3-3.9c-0.2-0.2-0.5-0.5-0.8-0.6c-1.5-0.9-3.9-2-3.9-2l4.2,0.3L55.3,130.2z"/>
	<path class="st3" d="M51,138.4c0.1-0.1,0.2-0.3,0.3-0.5c0.2-0.4,0.3-0.9,0.3-1.4c-0.1-0.7-0.5-1.4-1-1.9c-0.7-0.7-1.4-1.3-2.1-1.8
		c-1.9-1.5-3.7-3.1-5.4-4.9c2,1.3,4,2.8,5.8,4.5c0.8,0.6,1.5,1.2,2.2,1.9c0.6,0.6,0.9,1.4,1,2.2c0,0.6-0.1,1.1-0.5,1.6
		C51.3,138.3,51.1,138.4,51,138.4z"/>
	<path class="st3" d="M51.3,138c0,0.2-0.1,0.4-0.3,0.5c-0.4,0.4-0.9,0.6-1.5,0.6c-0.8,0-1.6-0.1-2.3-0.4c-2.6-0.7-5-2.2-6.7-4.2
		c-0.5-0.5-0.9-1.1-1.2-1.8c1.6,1.8,3.4,3.3,5.5,4.5c0.8,0.4,1.7,0.8,2.5,1.1c0.7,0.3,1.4,0.4,2.2,0.5c0.5,0,1-0.1,1.4-0.4
		C51.1,138.3,51.2,138.1,51.3,138z"/>
	<path class="st3" d="M52.2,140.8c0.1,0.2,0.1,0.4,0,0.6c-0.2,0.5-0.6,0.9-1.1,1.2c-0.7,0.3-1.5,0.5-2.3,0.6c-2.5,0.3-5-0.2-7.2-1.3
		c-0.7-0.4-1.4-0.9-1.9-1.5c2.2,1,3.9,2.1,6.3,2.4c0.9,0.1,1.8,0.1,2.8,0c0.7,0,1.5-0.2,2.2-0.4c0.5-0.2,0.8-0.5,1.1-0.9
		C52.1,141.2,52.2,141,52.2,140.8z"/>
	<g class="st4">
		<path class="st5" d="M88,130.4c10.5,1.7-21.3,4.7-33.4,2.1c-0.1,0-0.2-0.2-0.2-0.3l0,0c0-0.1,0.1-0.2,0.2-0.2
			C57.7,130.8,69.7,127.4,88,130.4z"/>
	</g>
	<path class="st1" d="M100.1,137.3c-1.6-2.2-2.5-4.8-2.7-7.6c-0.2-1.6,0.2-3.1,1.1-4.4c1-1.3,2.8-1.6,4.1-0.7c1.1,1,1.1,2.7,1.3,4.1
		c0.5,2.1,1.6,4,3.2,5.4s3.4,2.6,5.2,3.7"/>
	<path class="st1" d="M128.1,152.2L128.1,152.2c-1.3-1.1-2.5-2.3-3.5-3.6c-1.2-1.1-2.3-3-3.5-4c-4.8-4.2-9.9-7.9-15.4-11.2
		c-2.2-0.4-17.9-2.5-20.1-2.5c-3.6,0-3.6,3.8-2.4,4c2.7,0.5,12.5,2.7,12.5,2.7l-13.9-0.9l-3.1-0.1c0,0-1.7,0-1.9,1.4
		c-0.3,2.1,0.7,2.9,2.7,3.5c2.2,0.6,19,3,19,3H79.4c-1-0.1-1.9,0.7-2,1.8c0,0.1,0,0.2,0,0.3c0,1.9,2,2.6,4.7,3
		c-0.2,0.3-0.4,0.6-0.5,0.9c-0.2,1.5,0.9,2.9,2.4,3.1l0,0h0.1c1.5,0.3,13.8,2.1,19.2,2.9c1.6,0.1,3.3,0,4.9-0.2l1.9,2.1l4.2,5.4
		L128.1,152.2z"/>
	<path class="st3" d="M98.4,137.1l-6.2-0.2l-9.9-0.4l-3-0.1c-0.4,0-0.7,0-1.1,0c0.4,0.1,0.7,0.2,1.1,0.2c0.7,0.1,1.7,0.2,3,0.3
		c2.6,0.2,6.1,0.4,10,0.5c3,0.1,5.8,0.2,8.1,0.2L98.4,137.1z"/>
	<path class="st3" d="M99.5,144.4c0,0.1-2.7,0.1-9.1,0.1s-11.7-0.1-11.6-0.2S84,144,90.4,144S99.5,144.2,99.5,144.4z"/>
	<path class="st3" d="M99,151.1c-2.7,0-5.4-0.2-8.1-0.6c-3-0.2-6.1-0.6-9.1-1.1c3.1,0,6.1,0.2,9.1,0.6
		C93.7,150.1,96.4,150.5,99,151.1z"/>
	<path class="st6" d="M73.1,84.6c0.5,0,1-0.2,1.3-0.6c0.6-0.6,0.6-1.5,0.1-2.1c-0.8-0.7-2-0.9-2.9-0.3c-1.1,0.7-1.6,2-1.4,3.3
		c0.3,1.5,1,2.9,2,4c1.2,1.3,2.1,2.8,2.8,4.4c0.6,1.9,0.1,4-1.3,5.5s-3.1,2.3-4.4,3.5c-0.6,0.6-1.1,1.3-1.2,2.1
		c-0.2,0.8-0.1,1.6,0.3,2.3c0.7,1.3,1.7,2.5,3,3.3c1.1,0.8,2.1,1.7,3,2.8c1.2,1.6,1.8,3.7,1.7,5.7c0,0.5-0.1,1.1-0.3,1.6
		c0,0.2-0.1,0.4-0.2,0.5c0.1-0.7,0.2-1.4,0.2-2.2c0-2-0.6-3.9-1.8-5.4c-0.9-1-1.9-1.9-3-2.7c-1.3-0.9-2.4-2.1-3.2-3.5
		c-0.4-0.8-0.5-1.8-0.3-2.7c0.2-0.9,0.7-1.8,1.5-2.4c1.3-1.3,3-2.2,4.3-3.5s1.7-3.2,1.1-4.9c-0.6-1.6-1.5-3-2.7-4.3
		c-1.1-1.2-1.8-2.7-2.1-4.3c-0.2-1.5,0.4-3,1.7-3.8c1.1-0.6,2.5-0.4,3.3,0.5c0.4,0.4,0.5,0.9,0.4,1.4c-0.1,0.4-0.3,0.8-0.6,1.1
		C74.2,84.5,73.7,84.8,73.1,84.6c-0.2,0.1-0.4,0-0.5-0.2C72.6,84.4,72.7,84.6,73.1,84.6z"/>
	<path class="st6" d="M72.1,120.3c0.1-1.3-0.1-2.5-0.8-3.6c-1-1.6-2.2-3-3.7-4.2c-1.9-1.4-3.4-3.3-4.4-5.5c-0.5-1.2-0.5-2.6,0-3.8
		c0.5-1.1,1.2-2,2.1-2.8c1.7-1.4,3.2-2.5,4-3.9c0.7-1.1,0.7-2.4,0.2-3.6c-0.2-0.4-0.5-0.7-0.9-1c0,0,0.1,0,0.3,0.2
		c0.3,0.2,0.6,0.5,0.8,0.8c0.7,1.2,0.7,2.7,0,3.9c-0.8,1.6-2.4,2.8-4,4.1c-0.8,0.7-1.5,1.6-1.9,2.6c-0.4,1.1-0.4,2.3,0,3.3
		c0.9,2.1,2.4,4,4.2,5.3c1.5,1.2,2.8,2.7,3.7,4.4c0.6,1.2,0.8,2.5,0.6,3.8c-0.1,0.3-0.2,0.7-0.4,1c-0.1,0.1-0.1,0.2-0.2,0.3
		C71.9,121.2,72,120.8,72.1,120.3z"/>
	<path class="st1" d="M178.1,80.5c0,0-3.5,19.5,3.6,30c2.6,3.9,9.7,6.2,9.7,6.2l-14.1,5.4c-6.8,1.7-18.2,3.3-27.8,2
		c-4.2-0.6-10.1-1.4-13.2-4.3l0,0c0,0,7.7-1.8,8.1-3.8s-1.2-19.4-1.2-19.4"/>
	<path class="st7" d="M220.2,165.9c-2.3,8-5,15.8-8.2,23.4c-2.7,6.7-5.7,13.2-9.2,19.5c-3.3,5.8-7,11.6-11.9,16.3
		c-3.7,3.5-8.4,6.6-13.7,5.9c-5.7-0.7-11-4.1-15.6-7.4c-6.1-4.5-11.8-9.6-17.1-15.1c-5.6-5.7-10.9-11.6-15.9-17.7
		c-4.2-5-8.2-10.1-12.2-15.3c-1.3-1.8-2.7-3.6-4-5.4c-0.7-1-1.4-2-2.1-3c-0.1-0.1-0.2-0.3-0.3-0.4l-0.1,0.4l19.6-15.6l2.8-2.2
		l-1.2,0.2c4.7,4.1,9,8.6,13.5,12.9l22.4,21.7l5.3,5.1c0.5,0.2,1.1,0.1,1.4-0.4c2.1-6.8,4.3-13.6,6.6-20.4
		c3.2-9.8,6.3-19.6,10.1-29.2c2.6-6.5,7.8-13.1,15.5-12.4c0.4,0,1.7-0.7,0.9-0.7c-7.6-0.7-13.7,4.5-16.9,11.1
		c-1.6,3.5-2.9,7.1-4.1,10.8c-3.8,10.9-7.4,21.8-10.9,32.8c-0.9,2.8-1.8,5.5-2.6,8.3l1.4-0.4l-14.3-13.9L137.8,154
		c-1.8-1.7-3.5-3.4-5.3-5c-0.3-0.3-1-0.1-1.2,0.2l-19.6,15.6l-2.8,2.2c-0.1,0.1-0.2,0.2-0.1,0.4c5,7.2,10.4,14.1,15.9,20.9
		c10,12.2,20.6,24.4,33.1,34.1c4.8,3.7,10.1,7.4,16.1,9c5,1.3,10.3,0.2,14.5-2.8c5.3-3.6,9.3-8.9,12.7-14.3
		c3.9-6.2,7.3-12.7,10.1-19.4c4.1-9.3,7.6-18.9,10.4-28.6c0.1-0.2,0.1-0.3,0.1-0.5C221.8,165.2,220.3,165.5,220.2,165.9L220.2,165.9
		z"/>
	<polygon class="st3" points="97.8,132.3 105.3,133.3 97.7,131.7 	"/>
	<path class="st7" d="M102.4,195.7c-0.3-1.9-0.8-3.7-1.5-5.4c-1.4-3.7-3.6-7.1-6.4-9.9c-0.3-0.3-1.6,0.3-1.4,0.5
		c2.9,2.8,5.1,6.2,6.4,9.9c0.7,1.7,1.1,3.4,1.4,5.2C101,196.4,102.5,196.1,102.4,195.7z"/>
	<path class="st8" d="M186.7,38.9c-2.2-3-5.6-5.1-9.2-4.1c0.1-7-6.7-11.1-13.8-11.2c-3.6,0.1-7.3,1.8-10.7,0.6
		c-2.1-0.7-3.7-2.4-5.6-3.7c-7.6-5.6-19.5,1.1-25.8,8.1s-4.7,14.7-1.3,23.5c1.6,4.1,1.3,6.3,1.8,10.7c0.5,4.1,3.1,11.8,3.2,15.9
		s-6.3,8.5-2.1,8.8l45.2-5.8c6.7,1.3,11-0.8,14.4-6.8c2.2-4,1.4-4.2,1.7-8.8c0.5-6,6.5-10.6,6.1-16.6
		C190.4,45.8,188.7,42.1,186.7,38.9z"/>
	<path class="st9" d="M192.3,38.6c-11.3-4.8-23.7-6.6-35.9-5.2c-20.2,2.4-29.9,14.9-33.3,23.8s0.4,18.2,0.4,18.2s-5,1.4-8.6-16.7
		c-5.2-26.4,21.7-42.7,28.3-42.6S183,9.1,192.3,38.6z"/>
	<path class="st10" d="M144.4,111.7c0,0,3.4-0.6,5.7-1.3s6.3-0.6,16.9-10.1c0,0-3,11.5-16.6,14.1c-1.9,0.4-3.9,0.5-5.9,0.3
		L144.4,111.7z"/>
	<path class="st1" d="M131.2,42.3c0,0.1-0.1,0.2-0.1,0.2l0.1-0.1V42.3z M125.2,44.3L125.2,44.3c0.1,0,0.2-0.1,0.3-0.2
		C125.5,44.1,125.2,44.4,125.2,44.3L125.2,44.3z M175,87.6l0.5-2.2c3.1,3.6,7.6,0.3,7.5-5.2c1.3-2.8,2.7-12,0.2-14.7l-0.3-0.4
		c-1.7-1.1-4.5-1.5-5.6,0.7c-0.3,0.9,0.1,2.1-0.2,3s-1.4-1.5-2-0.5c0,0-1.4-0.5-1.6-3s3.8-20.7-0.9-23.7c0,0-7.1,2.8-9.3,0.5
		l-0.7-0.2c-0.4,0-0.7,0.2-1.1,0.2c0-0.1,0.1-0.3,0.1-0.5c-0.6,0.2-1.2,0.3-1.8,0.3c0.1-0.1,0.4-0.3,0.4-0.4
		c-0.5,0.1-1.1,0.2-1.7,0.2c0.1-0.1,0.4-0.4,0.4-0.5c-0.7,0.3-1.1,0.1-1.7,0.2c0.1-0.2,0.2-0.3,0.2-0.5c-0.5,0.2-1.1,0.3-1.7,0.3
		c0.1-0.1,0.2-0.4,0.4-0.5c-0.7,0.3-1.1,0.1-1.7,0.2c-0.1,0,0.2-0.3,0.2-0.4c-0.4,0.2-0.9,0.2-1.4,0.3c0-0.1,0.2-0.3,0.2-0.4
		c-0.6,0.2-1.2,0.3-1.8,0.2L152,40c-0.5,0.4-1.1,0.5-1.6,0.4c0.1-0.1,0.4-0.4,0.4-0.5c-0.6,0.5-1.4,0.6-2.2,0.5
		c0.1,0,0.4-0.4,0.4-0.6c-0.5,0.4-1.2,0.6-1.9,0.6c0.1-0.2,0.3-0.5,0.5-0.7c-0.7,0.6-1.7,0.9-2.6,0.7c0.1,0,0.2-0.4,0.2-0.5
		c-0.5,0.6,0.5-0.2-0.2-0.2c0,0-1.5,0.7-1.6,0.5c-0.5,0.4,1.2-2.3,0.5-2.2c0.1-0.3-4,0.7-3.7,0.4c-0.6,0.6-0.5,0.3-1.4,0.3
		c0,0-2.7,1.8-2.6,1.7c-0.6,0.7-1,0.2-1.9,0.2c0.1-0.2,0.6,0.5,0.7,0.3c-0.5,0.6-0.4-0.1-1.1,0c0-0.1-2.4-0.6-2.4-0.7
		c-0.7,0.5-0.4,0.5-1.3,0.6c0-0.1-0.4,1.5-0.2,1.3c-0.5,0.6-0.5,0.2-1.2,0.1l-0.6,0.5c-0.6,0.7,0.3,0.3-0.6,0.3
		c0-0.1,3.2,0.1,3.3-0.1c-0.5,0.4-1.1,0.8-1.7,1c0-0.1,0.1-0.4,0.1-0.5c-0.5,0.6-1.3,1-2.1,1c0.1,0,0.2-0.3,0.2-0.4
		c-0.5,0.7-1.4,1.1-2.3,0.9l0,0c-0.5,0.5-1.1,0.9-1.8,1.1c0-0.2,0-0.4,0.2-0.5l-0.6,0.1c-0.6,1.1-2.4,0.6-2.6,1.9
		c0,0-2.9,9.3-2.2,14s2.3,12.7,2.7,14.7c0.3,2.1,0.4,4.3,0.4,6.4c-0.2,3.2,0.3,6.4,1.5,9.3c1.1,3.4,2.9,6.5,5.3,9.1
		c2.8,3.3,6.5,6.1,10,8.8c2.4,1.9,5.5,3,8.6,2.9c8.7-0.5,16.6-7.3,21.5-13.4"/>
	<path class="st5" d="M138.8,88.2c1.2,0.4,2.6,0.2,3.6-0.6c0.2-0.2,1-0.1,0.7,0.1c-1.4,1-3.2,1.3-4.9,0.8c-0.1-0.1-0.1-0.2,0-0.2
		C138.3,88.1,138.5,88.1,138.8,88.2"/>
	<path class="st5" d="M143.4,87.3c0.7-0.4,1.4-0.7,2.2-0.8c0.1,0,0.2,0,0.4,0.1c0.1,0,0.1,0.1,0,0.2l0,0c-0.4,0.2-0.8,0.4-1.2,0.4
		c-0.1,0-0.3,0-0.4-0.1c-0.1-0.1,0-0.2,0.1-0.2c0.4,0,0.7-0.1,1-0.3l0.4,0.3c-0.7,0.1-1.3,0.4-1.9,0.7c-0.1,0.1-0.3,0.1-0.4,0
		C143.5,87.5,143.4,87.4,143.4,87.3"/>
	<path class="st5" d="M146.5,87.1c0.9-0.1,1.8-0.6,2.3-1.3c0.4-1.3-0.2-2.7-1.4-3.2c-0.1-0.1-0.1-0.2,0.1-0.2c0.2,0,0.3,0,0.5,0.1
		c1,0.5,1.7,1.5,1.8,2.7c-0.2,1-0.9,1.8-1.9,2c-0.3,0.1-0.7,0.2-1,0.2c-0.2,0-0.3,0-0.5-0.1C146.3,87.2,146.4,87.1,146.5,87.1"/>
	<path class="st5" d="M137.1,87.9c0-0.1-0.1-0.2-0.1-0.2c-0.3,0-0.5,0-0.7-0.2l-0.2,0.3c0.5,0,1,0.1,1.5,0.3c0.1,0,0.2,0,0.3-0.1
		s0.1-0.2,0-0.2"/>
	<path class="st5" d="M137.7,87.9c-0.5-0.3-1.1-0.4-1.6-0.4c-0.1,0-0.2,0.1-0.2,0.1s-0.1,0.1,0,0.2l0,0"/>
	<path class="st5" d="M135.2,88.2c-0.7,0-1.3-0.3-1.7-0.9c-0.5-1-0.3-2.2,0.4-3c0,0,0.1-0.1,0-0.1c0,0,0,0-0.1,0s-0.2,0-0.3,0.1
		c-0.6,0.7-0.9,1.6-0.7,2.6c0.1,0.8,0.8,1.4,1.5,1.6c0.2,0.1,0.4,0.1,0.7,0.1c0.1,0,0.2-0.1,0.3-0.2S135.3,88.2,135.2,88.2"/>
	<path class="st11" d="M126.3,71.8c-0.8-0.2-1.7,0-2.2,0.6c-0.2,0.3-0.3,0.6-0.4,1c-0.1,0.7,0.2,1.3,0.7,1.8
		c0.6,0.5,1.5,0.6,2.2,0.2c0.8-0.5,1.1-1.6,0.8-2.5C127.1,72.3,126.8,72,126.3,71.8"/>
	<path class="st11" d="M134.6,73.2c0,0-4.1-2.6-6-2.6c-2.8,0-6.1,1.9-7,3.4c0,0,4.3-2.8,6.3-2.8S134.6,73.2,134.6,73.2z"/>
	<path class="st11" d="M149.9,69.5c0.8-0.5,1.7-0.5,2.5-0.1c0.3,0.2,0.5,0.5,0.7,0.9c0.2,0.6,0.1,1.3-0.3,1.9
		c-0.5,0.6-1.4,0.9-2.1,0.6c-0.9-0.4-1.4-1.3-1.3-2.3c0-0.2-0.1-0.4,0.4-0.8"/>
	<path class="st11" d="M146.2,71.8c0,0,4-3.2,6-3.4c3-0.4,6.9,1,8,2.3c0,0-5.1-2.1-7.2-1.8S146.2,71.8,146.2,71.8z"/>
	<path class="st12" d="M133.5,63.3l0.1,1.7c0,0.4,0.1,0.9,0.1,1.3c-1.5-0.2-2.8-0.4-3.7-0.5c-1.4-0.2-2.8-0.2-4.2,0
		c-0.9,0.2-1.8,0.6-2.6,1c-0.5,0.2-0.9,0.5-1.3,0.8c-0.9,0.8-1.3,1.6-1.4,1.6s0-0.8,0-0.8c0.3-1.1,1-2.2,1.9-3
		c0.8-0.6,1.7-1.1,2.7-1.4C127.8,63.3,130.7,63.1,133.5,63.3"/>
	<path class="st12" d="M143.5,62.2c0.1,0.6,0.2,1.1,0.4,1.7c0.1,0.6,0.2,0.8,0.3,1.3c1.5-0.7,2.8-1.2,3.7-1.6c1.4-0.6,2.9-1,4.4-1.2
		c1,0,2,0,3,0.2c0.6,0.1,1.1,0.2,1.6,0.4c1.2,0.5,1.8,1.2,1.9,1.1s-0.3-0.7-0.3-0.8c-0.7-1-1.7-1.9-2.8-2.4c-1-0.4-2.1-0.6-3.1-0.6
		C149.5,60.5,146.4,61.1,143.5,62.2"/>
	<path class="st13" d="M176.8,76c2.8-7.4,5-7.6,5-7.6s1.6,1.6,1,5"/>
	<path class="st13" d="M178,76.6c2-0.3,0.6,3.5,1.2,4.3s1.2-1.5,1.3-4.3c0,0-0.1-3.8-2-4.3"/>
	<path class="st10" d="M148.6,54.3c-3,1.6-6.2,2.5-9.6,2.7c-4.9,0.1-10.9-0.5-10.9-0.5s7.7,2.3,12.4,1.2
		C143.5,57.2,146.2,56,148.6,54.3z"/>
	<path class="st12" d="M123,41.3L123,41.3c1.2-1.7,1.9-3.6,3.1-5.3s2.4-3.2,3.7-4.7c0.1-0.1,1.7-0.2,1.8-0.3l0.1-0.1l0.1-0.1
		l0.3-0.3c7.8-3.6,16.7-4.2,25-1.9c16.2,4.5,25.6,21.2,21.1,37.4c-0.4,1.4,0.5,3-0.8,3.8s-1.5,0.4-2.8-0.4c-1.2-0.9-2.3-2.1-2.9-3.5
		c-3.7-6.5-4.8-17.1-3.4-24.4c-0.9,1.4-7.1,0.1-8.4,1.1c-5.3,3.7-12.7,2.4-16.4-2.9l0,0c-0.5,0.8-1.1,1.6-1.8,2.3
		c-6.1,6.7-14.2,10.1-21.1,5.7C120.2,47.4,122.2,42.4,123,41.3z"/>
	<path class="st14" d="M178.7,68.5l-0.2-1.6l-18.6-1.3l0,0c-6.1-1.7-14.2,0.7-18.7,4.3l-4.2,0.6v-0.1c-5.3-3.2-13.6-2.9-19.5,0.6
		l0.2,0.6l0,0c0,0,0.1,0.1,0.1,0.3l0.2,0.6c1.3,3.6,2.8,7.4,4,8.3c0.8,0.6,3.1,0.7,5,0.7c0.7,0,1.4,0,1.8-0.1s5.6-0.3,6.3-1.2
		s1.6-6.8,1.8-8.7l4.3-0.6c0.7,1.4,2.5,7.4,4.7,8.4s13-0.6,13.9-2.2c0.9-2.4,1.6-4.8,2.1-7.3l0.6-2.7L178.7,68.5z M134.5,79.7
		c-0.8,0.8-10.8,1.6-12.1,0.5c-1.1-0.9-3-6-3.7-7.9v-0.1c5.4-2.8,12.8-3.1,17.4-0.4C135.6,74.9,134.9,79.1,134.5,79.7L134.5,79.7z
		 M158.4,76.8c-0.5,1-9.9,2.8-12.2,1.8c-1.6-0.7-3-5.1-4-7.6c4.4-3.4,13.4-5.6,18.9-3.7C160.5,70.6,159.6,73.7,158.4,76.8
		L158.4,76.8z"/>
	<path class="st15" d="M186.2,68.8c0,0,15-11.4,9-23.1c-1.2-2.3-1.3-1.5-1.4-3.5c-0.6-10.3,3.1-7.9-12.2-19.7S164,11,140.9,13.2
		c-11.9,1.1-18.3,6.2-21.4,13.8c-1.4,3.7-2.2,7.7-2.4,11.6c0,0,24.2-7.4,38.8,0.1s30.4,32.6,27.4,40.8
		C182.6,81.9,186.2,68.8,186.2,68.8z"/>
	<path class="st9" d="M195.4,57.3c0,0-21.2-29.6-48.8-30c0,0,33.9-4.3,49.4,19.6l0.3,2.8c0.2,1.8,0,3.6-0.4,5.3L195.4,57.3z"/>
	<path class="st16" d="M142.9,93.7c4.3-0.5,11.2-1.8,11.2-1.8c-0.7,6.4-2.8,12.6-12.6,12.1c-4.4-0.5-8.5-5.3-10-9.5
		C131.6,94.5,138.6,94.2,142.9,93.7z"/>
	<path class="st17" d="M142.9,93.7c2-0.2,10.3-1.6,10.3-1.6s-2.3,7.4-9.7,8.2c-8,0.9-10.8-5.8-10.8-5.8L142.9,93.7z"/>
	<path class="st18" d="M142.8,94.1c2.1-0.2,8.2-1.3,8.2-1.3s-2,2.6-8.1,3.3s-8.4-1.3-8.4-1.3L142.8,94.1z"/>
	<path class="st16" d="M131,93.9c0.8,0.1,1.6,0.1,2.5,0c1.7-0.3,2.7-0.9,3.9-1.2c2.1-0.4,3.5,0.3,4.4,0.2s2.1-1.1,4.3-1.2
		c1.2,0,4.3,0.1,6.1,0c0.8-0.1,1.6-0.3,2.4-0.6c0.3,0,0,2.4-11.5,3.8S130.7,94,131,93.9z"/>
	<path class="st7" d="M110.7,170.9c-0.3,3.5-1.9,6.7-2.1,10.2c-0.2,3.3,0.3,6.6,1.4,9.7c1.1,3.1,2.5,6,3.4,9.2
		c1,3.5,1.2,7.1,0.5,10.7c-0.1,0.5,1.4,0.2,1.4-0.2c0.7-3.3,0.6-6.7-0.2-10c-1-3.1-2.1-6.2-3.4-9.3c-1.3-3.3-1.9-6.8-1.7-10.3
		c0.2-3.5,1.8-6.7,2.1-10.2C112.1,170.1,110.7,170.4,110.7,170.9L110.7,170.9z"/>
	<path class="st7" d="M171.6,189.1c5,4.2,5.6,11.1,6.1,17.1c0.1,0.8,1.5,0.6,1.5-0.1c-0.5-6.4-1.1-13.5-6.4-17.9
		C172.2,187.7,170.9,188.5,171.6,189.1z"/>
</g>
</svg>
