<svg xmlns="http://www.w3.org/2000/svg" xmlns:xlink="http://www.w3.org/1999/xlink" viewBox="0 0 1303.15 1057.31"><defs><style>.cls-1,.cls-13,.cls-22{fill:none;}.cls-2{clip-path:url(#clip-path);}.cls-3{fill:#f2ebd1;}.cls-4{fill:#df8c26;}.cls-5{fill:#b26b29;stroke:#b26b29;}.cls-13,.cls-19,.cls-22,.cls-5{stroke-miterlimit:10;}.cls-19,.cls-5{stroke-width:1.3px;}.cls-6{fill:#956243;}.cls-7{fill:#684136;}.cls-8{fill:#a56530;}.cls-9{fill:#8c542a;}.cls-10{fill:#714533;}.cls-11{fill:#151210;}.cls-12{fill:#010101;}.cls-13{stroke:#010101;stroke-width:1.34px;}.cls-14{fill:#513835;}.cls-15{fill:#745245;}.cls-16{fill:#273339;}.cls-17{fill:#465b65;}.cls-18{fill:#82a8b3;}.cls-19{fill:#557c81;stroke:#557c81;}.cls-20{fill:#1c3b53;}.cls-21{fill:#0f2530;}.cls-22{stroke:#132b3a;stroke-width:1.08px;}.cls-23{fill:#4163ae;}.cls-24{fill:#825639;}.cls-25{fill:#231f20;}.cls-26{fill:#161312;}.cls-27{fill:#171514;}.cls-28{fill:#181615;}.cls-29{fill:#191716;}.cls-30{fill:#040404;}.cls-31,.cls-33{fill:#fff;}.cls-31{opacity:0.14;}.cls-32{fill:#31160e;}.cls-34{fill:#653c29;}</style><clipPath id="clip-path"><rect class="cls-1" y="4.43" width="1303.15" height="1050.93"/></clipPath></defs><g id="Layer_1" data-name="Layer 1"><g class="cls-2"><polyline class="cls-3" points="-164.13 1348.73 -164.13 -22.45 1525.86 -22.45 1525.86 1348.73"/><path class="cls-4" d="M990.91,556.05c2.72-18.68,4.68-37.48,6-56.32,2.85-40,14.92-80.14,14.95-120.24l-23.33,7.95c-12.2,5.39-24.11,16.51-34,35.33L906.48,526.45,871.3,458.52c-5.56-15.24-20.13-19.95-34.45-12.33l-10.32,5.49c-18.54,9.86-15.31,35.26-7,54.53C839,551,855.51,640.37,921.42,640.36c29.23,0,55.46-66,67.54-92.44Z"/><path class="cls-5" d="M906,524.54a39.5,39.5,0,0,1,15.4,24.75"/><path class="cls-6" d="M844.42,464a16.47,16.47,0,0,0,9.11-6.81,16.12,16.12,0,0,0,1.79-10.49l-6.19-9.81s-2.79-16.69-5.45-21.83-18.36-22-19.35-22.51-9-28.22-14.42-28.12-9.58,3.33-9.08,10.61,10.29,23,6.72,24.91a24,24,0,0,1-9,2s-.33-8.34-4.42-11.57-9.79.4-9.79.4l-.61,3.5-3.85-4.65s-2.37-17-9.39-17.87a29.07,29.07,0,0,0-5.64-10.28,6.11,6.11,0,0,0-8.64,0,5.91,5.91,0,0,0-1.06,1.42l7.45,38.75,29.38,43s15.38,8.5,19.25,11c1.21.77,4.55,6.47,8.64,14a80.46,80.46,0,0,0,11-1A51.66,51.66,0,0,0,843.34,465,1.68,1.68,0,0,1,844.42,464Z"/><path class="cls-7" d="M819.59,397.33c2.82-.25,5.12-.21,5.24-.7s-2.28-1.39-5.39-1.1-5.32,1.58-5.13,2S816.77,397.59,819.59,397.33Z"/><path class="cls-7" d="M765.69,394.12c-.37-5.08-.79-12.2-1.17-20.42l0-.74.71-.22a34.91,34.91,0,0,1,4.43-1.38,6.89,6.89,0,0,1,5.1,1.32,12.63,12.63,0,0,1,4.29,6.85,38.21,38.21,0,0,1,1.34,7.12c.32,4.56.29,8.61.26,12-.1,6.87-.41,11.07-.68,11a69.82,69.82,0,0,1-.76-11c-.16-3.33-.26-7.46-.67-11.88a37.57,37.57,0,0,0-1.4-6.71,10.81,10.81,0,0,0-3.56-5.77,4.77,4.77,0,0,0-3.62-1c-1.15.2-2.75.87-4,1.26l.66-1c.28,8.2.44,15.33.47,20.42a37.67,37.67,0,0,1-.3,8.15A38.1,38.1,0,0,1,765.69,394.12Z"/><path class="cls-7" d="M806,434.31a62.52,62.52,0,0,0-7.72-13.8l-.1-.16,0-.19a38,38,0,0,1-.5-6.3c0-2.28.23-4.38.17-6.7a65.35,65.35,0,0,0-.52-7,15.31,15.31,0,0,0-2.13-6.66,6.42,6.42,0,0,0-4.79-3,10.72,10.72,0,0,0-5.65,1.09l.52-.84c-.27,10.52-.58,19.63-.88,26.1a17.93,17.93,0,0,0,.71,7.39,12.81,12.81,0,0,1,.71,2.65c-.12.15-.67-.65-1.35-2.31a16.71,16.71,0,0,1-1.32-7.58c-.06-6.5,0-15.63.16-26.21l.07-.56.51-.25a12.26,12.26,0,0,1,6.78-1.37,8.39,8.39,0,0,1,6.26,3.9c5.16,10.07,1.55,20,3,27.47l-.17-.36A55.11,55.11,0,0,1,807,434.15a21.75,21.75,0,0,1,.9,4.37,10.45,10.45,0,0,1,0,1.6C807.6,440.15,807.49,437.93,806,434.31Z"/><path class="cls-7" d="M849.13,436.84s-4.81,8-17.44,9C831.69,445.79,847.5,449.07,849.13,436.84Z"/><path class="cls-8" d="M1084.3,908.34c45.15,0,90.29-5.28,135.44-5.49,9.79-.05,18.81,1.95,19.57,10.47,2,22,4.74,45.69-29.23,43.34-2.58-.17-5.26.28-7.8-.07-11.82-1.61-13.65,3.17-12.09,11.59,5,27.29,9.66,48.16,14.29,75.5,10.89,64.31,21.86,128.6,32.41,192.94,2.91,17.75,2.29,17.59-20.36,17.25-7-.11-9.94-1.86-10.91-7.76-10.41-63.28-21.22-126.51-31.55-189.8-1.2-7.39-4-10.27-13.68-10.19q-75.53.62-151.06,0c-9.91-.08-13.3,2.39-14.62,10.56q-14.62,90.14-30.36,180.15c-3.05,17.62-3.5,17.19-25.48,16.93-8.81-.11-9.82-2.64-8.71-9,16.27-94.09,32.18-181.74,48.48-275.82,1.67-9.65-.89-14.26-13.63-12.58-4.24.56-8.67.1-13,.09-19.27,0-23.06-9.79-23.08-26.4,0-18.08,3.51-26.89,22.55-26.9q66.4,0,132.83,0Zm73.9,116.4c9.75.21,11.76-2.63,10.39-10-4-21.25-7.53-27.26-10.87-48.58-1.11-7.07-3.85-10.17-13.74-10-39.87.6-79.77.53-119.65,0-9.12-.12-11.93,2.71-13,9.38-3.5,22-7.18,28.75-11.23,50.71-1.31,7.1,2.12,8.49,9.82,8.4,25.14-.31,50.29-.12,75.44-.12C1109.65,1024.56,1133.93,1024.21,1158.2,1024.74Z"/><path class="cls-9" d="M1204.38,1043.77q2.52,14.89,5,29.78c-10.55,2-21,4.41-31.49,6.89q-2-12-4-24c-1.2-7.39-4-10.27-13.67-10.19q-75.52.61-151.06,0c-9.92-.08-13.31,2.39-14.63,10.56q-1.89,11.65-3.83,23.32a290.15,290.15,0,0,1-29.57-12.3c5.75-32.51,11.52-65.25,17.33-98.81a18.34,18.34,0,0,0,.06-7.82q10.32.68,20.67,1.06,6.35.22,12.69.37a20.11,20.11,0,0,0-.72,3.07c-3.5,22-7.18,28.75-11.23,50.71-1.31,7.11,2.13,8.49,9.82,8.4,25.14-.31,50.29-.12,75.44-.12,24.28,0,48.57-.35,72.83.18,9.75.21,11.76-2.63,10.39-10-4-21.24-7.53-27.26-10.87-48.58-.45-2.82-1.16-5-2.48-6.61q17.94-.54,35.88-.79c-1.63,2.06-1.69,5.3-.93,9.41C1195.14,995.56,1199.75,1016.43,1204.38,1043.77Z"/><path class="cls-9" d="M1239.71,917.8s-144.21,26-206.39,18.09-104.09-14.56-101.57-24,46.54-29.63,90.85-31.06,165.79,9.48,165.79,9.48,40.78,6.71,45,12.52S1239.71,917.8,1239.71,917.8Z"/><path class="cls-6" d="M1142.22,292.6s-4.76,49.07,2.32,66.85c1.72,4.31,29.22,24.87,29.22,24.87l-76.39,36.3-74.55-22.31s28.9-27.63,30.26-32.94-.64-41.66-.64-41.66"/><path class="cls-10" d="M1032.31,323.13c3.4,4.89,6.53,10,10.14,14.72a.67.67,0,0,1,.1.21.64.64,0,0,1,1,.11c2.53,3.19,7.32,4.82,9.57,8.23,1.93,2.94.81,7,1.07,10.54,2.58.36,6.16.11,9.41.26,21.93-.76,22.32-3.54,51.21-21.9,9.17-5.82,7.2-12.82,9-14.18C1093.63,320.86,1063.78,322.58,1032.31,323.13Z"/><path class="cls-11" d="M1165.73,248.29s4-13.56,8.51-45.86c4-28.92-41.81-51.92-69.28-55.7-15.09-2.08-65.34,5.22-78.24,11.6s-19.37,24.15-20.44,49.46c0,0,7.49-25.25,23.52-25,13.07.24,55.06-7.06,66.19-2.56s35.62,13.93,37.43,53.56c.49,10.8,19.46-1,24.85,5.46S1165.73,248.29,1165.73,248.29Z"/><path class="cls-6" d="M1144.83,295l3.58-39.05,1.06-43.63-17.74-32.72-31.32-14.44-35.2,1.83s-28.07,7.55-36.93,10.09-14.9,13.54-20.7,25.83-2.78,32.43-2.78,32.43c-.24.7.6,3.77.75,4.41,1.92,8.08,2.62,15.16,4.19,21.19a14.85,14.85,0,0,1,0,8.23c-3.19,10.65-3,15.18-2.05,21.63,1.35,8.8,3.14,16.29,6.53,23.17,3.6,7.3,8.1,15.17,9,16.71,0,0,10,16.31,12.17,17.88s5.31,3,6.79,3.15,20.88,1,20.88,1l9-.41a23.11,23.11,0,0,0,8.83-2.19c7.51-3.54,28.92-14.12,34.74-18.4,7.84-5.76,16.82-29.2,16.82-29.2"/><path class="cls-11" d="M1135.47,257.61c-.08,3.38.33,16.75,0,20.05l17.41-.8c4.95-11.68,10.9-25.43,12.81-28.57,3-4.91,2.87-28.38,2.83-37.21v-1.91c0-8.47-8.46-21.7-22.59-35.4-15.54-15.07-42.63-23.16-69-20.6-2.51.25-5,.58-7.43,1-22.86,4-41.63,16-55.78,35.54-10.2,14.13-10.49,30-9.35,39.59a85.45,85.45,0,0,1,6.74-33.21c6-13.12,13.94-17,19.57-18a19.09,19.09,0,0,1,9.37.64c5.61,1.11,13.76.13,19.63-.89,4.37-.76,7.83-1.61,8.77-1.85,2.91-2.13,7.31-3.76,12.74-4.71,12.61-2.19,31-.44,34.94,5,4.36,6.07,14.39,27.83,14.59,33"/><path class="cls-6" d="M1143.2,296c10.55,10.06,16.6-10.12,16.6-10.12,9.35-12.2,8.84-24.78,8.14-33.37s-10.16-8.08-10.16-8.08c-8,1.19-11.42,5.65-17.06,33"/><path class="cls-11" d="M1013.46,186.57c5.53-9.63,16.5-21.84,22.67-31.08,3.08-.4,18.36-1.29,21.57-1.53,32.67-2.5,77.28,14.77,81.92,26.53,2.89,7.33,2.56,47.83,1.26,51.56-3.55,10.23-4.63,23.5-4.63,23.5-1.88-15.12-13.33-31.64-14.88-36.8s4.53-30.07,2.81-31.05-31.92-9.07-65.28-7.36a247.8,247.8,0,0,0-28.39,3.2C1030.57,183.43,1013.4,186.67,1013.46,186.57Z"/><path class="cls-11" d="M1078.52,246.75a5.22,5.22,0,0,1,5.69.76,5.05,5.05,0,0,1,1.63,2.3,5.21,5.21,0,0,1-1,4.79,4.86,4.86,0,0,1-5.51,1.23,5.36,5.36,0,0,1-2.92-6.1,4.8,4.8,0,0,1,2.12-3"/><path class="cls-11" d="M1021.82,250.75a5.24,5.24,0,0,0-5.6,1.28,5,5,0,0,0-1.41,2.43,5.24,5.24,0,0,0,1.44,4.69,4.85,4.85,0,0,0,5.6.71,5.35,5.35,0,0,0,2.35-6.33,4.75,4.75,0,0,0-2.38-2.78"/><path class="cls-11" d="M1038.63,258s-8.41-7.68-14.33-7.95c-8.63-.4-10.74,1.64-13.61,5.72,0,0,5.44-4.38,11.52-3.93C1028,252.22,1038.63,258,1038.63,258Z"/><path class="cls-11" d="M1065.64,254.13s11.83-8,17.75-8.28c8.62-.47,19.06,4.33,21.95,8.38,0,0-13.77-7.1-19.84-6.61C1079.7,248.1,1065.64,254.13,1065.64,254.13Z"/><path class="cls-11" d="M1067.61,219.52c-.46,2-.91,4-1.37,6-.34,1.53-1.24,5-1.58,6.53,5.18-.17,10-1.09,13.31-.91,6.51.34,13.27.26,19.39,2.69a22,22,0,0,1,7.58,4.67c.69.67,2.36,3.28,3.67,3,.54-.11.31-2.76.28-3-.5-5.35-4.3-8.4-9.25-10.78-10.1-4.86-20.88-7.07-32-8.2"/><path class="cls-11" d="M1005.06,237.75l2.61-2.38c7.22-6.64,15.78-10.89,25-14.19l2.89,5.46c.73,1.39,2.14,3.85,2.86,5.23-4.46.88-8.52,1.25-11.27,2.08-5.46,1.62-11.23,3.27-15.75,6.8-.36.28-2.27,1.83-2.6,2.11C1005.85,241.2,1004.57,238.51,1005.06,237.75Z"/><path class="cls-12" d="M1044.84,291.47a9.56,9.56,0,0,0,8.88-1c.55-.38,2.45-.12,1.68.42-3.26,2.28-8.78,2.73-12.11,1.13-.33-.16-.29-.41.11-.57a2.15,2.15,0,0,1,1.44,0"/><path class="cls-12" d="M1056.46,290.11a15.3,15.3,0,0,1,5.43-1.65,1.19,1.19,0,0,1,.86.23c.16.14.21.33,0,.46a5.83,5.83,0,0,1-3,.85,1.13,1.13,0,0,1-1-.33c-.18-.25.12-.44.38-.45a4.59,4.59,0,0,0,2.4-.69l.87.7a13.76,13.76,0,0,0-4.86,1.5,1.16,1.16,0,0,1-1-.07c-.2-.11-.43-.39-.14-.55"/><path class="cls-12" d="M1064,290c2.22-.16,4.78-1.27,5.8-3,1.53-2.66-.19-6.65-3-8.17-.31-.17-.16-.41.14-.49a1.83,1.83,0,0,1,1.2.2,7.92,7.92,0,0,1,3.94,7c-.23,2.27-2.28,3.95-4.91,4.73a11.78,11.78,0,0,1-2.45.46c-.33,0-.94-.05-1.12-.31s.12-.4.44-.42"/><path class="cls-12" d="M1040.72,290.5a.3.3,0,0,0-.3-.42,2.53,2.53,0,0,1-1.75-.5l-.56.76a7.62,7.62,0,0,1,3.54,1.12.62.62,0,0,0,.71-.15c.13-.13.27-.42.05-.56"/><path class="cls-12" d="M1042.41,290.75a8.36,8.36,0,0,0-4-1.22.69.69,0,0,0-.59.3.32.32,0,0,0,0,.46"/><path class="cls-12" d="M1036.12,291a4.56,4.56,0,0,1-4-2.58,6.79,6.79,0,0,1,1.4-7.38.27.27,0,0,0-.13-.47.83.83,0,0,0-.76.28,7.56,7.56,0,0,0-2.07,6.31,5.23,5.23,0,0,0,3.53,4.35,5.34,5.34,0,0,0,1.62.27c.22,0,.61-.12.7-.4s-.11-.39-.31-.38"/><path class="cls-13" d="M1149,270.12c7.3-17.51,12.57-17.67,12.57-17.67s3.57,4,1.87,12.14"/><path class="cls-13" d="M1151.73,271.69c4.72-.5,1.15,8.35,2.47,10.41s3-3.46,3.55-10.12c0,0-.06-9-4.54-10.6"/><path class="cls-6" d="M1066.6,362.21l89.28,6.5,4.48,24.71s-24.57,17.19-27,17.88-57.5,6.56-57.5,6.56-58.55-26.43-57.74-26.19S1066.6,362.21,1066.6,362.21Z"/><g id="freepik--Character--inject-2"><path class="cls-4" d="M979.54,436.16l11.88-50.25A124.56,124.56,0,0,1,1024.3,375c11.21-2,15.24-4,21.89-5.13-2.69,7.78-1.51,15.24,3.78,20.24a50.33,50.33,0,0,0,27.61,13c10,1.39,20.38.42,30.2-1.62,18.37-3.81,41.18-20.36,47.62-37.84l14.75,4s56.95,28.8,65.1,33-40.73,212.86-40.73,212.86l16.92,79.28c.86,8.74,25.65,77.81-2.9,121.86,0,0-186.61-52.71-206.53-55.25-23.14-3-34.83-7.32-39.36-18.33-1.64-4-9.25-21.89,6.3-86.74,7.55-31.48,2.56-67.86,3.93-102.47C975.31,490.47,979.54,436.16,979.54,436.16Z"/><path class="cls-5" d="M973,579.48c-.39,0,0-5.78-.4-5.76-.06-27.26-1.13-58.45-1-83,.1-8.94.17-16.21.33-21.19a69.77,69.77,0,0,1,.38-7.8,56.44,56.44,0,0,1,.49,7.8c-.11,5.42.07,12.42.29,21.23.1,8.35-.23,78.59-.12,89.47C972.81,580.1,973.26,579.46,973,579.48Z"/></g><path class="cls-14" d="M1070.73,526.54h-.21c-.07.26-.22.51,0,.78Z"/><path class="cls-14" d="M1048.09,600.15a.42.42,0,0,0,.18.11l.15-.49Z"/><path class="cls-15" d="M1010.7,508.37h.28l-.25-.18A.15.15,0,0,0,1010.7,508.37Z"/><path class="cls-15" d="M1049.25,520l-.23-.22-.11.13Z"/><path class="cls-15" d="M1011.53,508.56l.36.11A.24.24,0,0,0,1011.53,508.56Z"/><path class="cls-15" d="M1069.88,526.31a.2.2,0,0,0-.3-.1Z"/><path class="cls-16" d="M765.85,834.43c13.83,70.5,34.56,241.67,55,327.46,0,0,91.33,16.53,100.07-3.07,0,0-5-173.07,21.1-279.1,23-93.37,79.21-120.78,55.76-127.73C960.85,741.06,818,724.78,796.52,739,770.76,756.16,755,778.91,765.85,834.43Z"/><path class="cls-16" d="M839.52,877.55c-.88-5.43-2-10.83-3.42-16.14a228.28,228.28,0,0,0-12.36-35.06,241.2,241.2,0,0,0-18.1-33.58,203.66,203.66,0,0,0-15.37-20.86c111.1-24.42,343.53-12.31,343.53-12.31s86.84,20.58,67.27,93.16c-25.93,96.18-274.45,49.46-360.34,25.15C840.32,877.8,839.93,877.67,839.52,877.55Z"/><path class="cls-16" d="M820.28,796.89a151.74,151.74,0,0,1,30.56,2.94,79,79,0,0,1-2.57-14.76c2-1.74,4-3.52,6.14-5.32a198.56,198.56,0,0,1,28.28,15.3,242.78,242.78,0,0,1,29.9,22.79,218.38,218.38,0,0,1,25.17,26.41q3.24,4.05,6.24,8.3l-1,.14c28.73,44.33,15.23,130.15,23.66,211.52,7.4,71.44,8.25,80.37,15,118.15-10.73,17.92-104.63,11.89-104.63,11.89C857.4,1084.51,820.28,796.89,820.28,796.89Z"/><path class="cls-17" d="M877.12,1182.36c-17.27-109.24-56.84-385.47-56.84-385.47h-4.49l58.15,385.28Z"/><path class="cls-16" d="M815.79,796.89s-8.65-47.52,30.66-51.8c40.92-4.46,276.46,14.14,276.46,14.14L815.79,796.89"/><path class="cls-17" d="M820.28,796.89S810.07,755.35,860,743.36c0,0-51.64,3.38-44.2,53.53Z"/><path class="cls-6" d="M203.06,242.29s8.87,33.12-7.24,67.39c-1.55,3.3-25.23,9-25.23,9l34.72,10.68c19.48,4.14,62.91,3.44,81.6-2.68l15.57-9.05s-19.86-4-20.87-8.2,2.07-35.71,2.07-35.71"/><path class="cls-6" d="M286.34,313l-95.82-1.05-9.66,32.42s25.27,20.93,27.86,21.9,62.12,12.26,62.12,12.26,66.2-23.62,65.3-23.44S286.34,313,286.34,313Z"/><g id="freepik--Character--inject-2-2" data-name="freepik--Character--inject-2"><path class="cls-18" d="M401.37,414.69l-21.1-63.05a176.74,176.74,0,0,0-35.36-14.12c-12-3.35-30.35-6.27-37.49-8.21,2.19,9.31.2,17.89-6.05,23.26A53.7,53.7,0,0,1,270,365.28c-11,.73-22.27-1.33-32.79-4.57-19.66-6.08-43-27.39-48.34-48.34l-21.65,7.25s-68.34,25.51-77.63,29.73,32.9,250.84,32.9,250.84L105.21,704.86c-1.77,10.11-44.76,76.49-9.8,149.26,0,0,201.25-65.58,223.21-66.78,25.52-1.38,66.24-3.19,72.22-15.63S401.37,414.69,401.37,414.69Z"/><path class="cls-6" d="M612.85,448.19s2.68-28.09,10.08-38.84c2.08-3,10.3-36,10.3-36s9-1.11,8.15,12.58-1.58,19.28-1.58,19.28l1.5,3.83,21.29-8.93s22.5-14.12,28.22-17,17.7-9.69,23.53-3.84c0,0,8.49-5.66,11.61-1.92a7.29,7.29,0,0,1,2.27,6.39l-3.32,3.69s2.89-.47,4,4.36-33.26,32-33.26,32l-.84,2.65s25.89-14.38,28-12.55,4.06,3.05,1,6.77-67.58,52.05-76,56.05a110.57,110.57,0,0,0-10.28,5.19l-30-29Z"/><path class="cls-7" d="M722.57,387.29a140,140,0,0,1-17.83,13.89,140.21,140.21,0,0,1-18.86,12.38,138,138,0,0,1,17.8-13.87A139.69,139.69,0,0,1,722.57,387.29Z"/><path class="cls-7" d="M714.91,380c.23.45-8.22,5.5-18.2,12.39s-17.77,12.93-18.11,12.53a88.1,88.1,0,0,1,17-14.05A85.22,85.22,0,0,1,714.91,380Z"/><path class="cls-18" d="M442.09,613.88c26.11,25.85,41.4-41.78,60.19-63.81-7-6.5-11.29-18.51-15.63-26.76-8.82-16.74-17.28-33.67-25.69-50.62-10.54-21.26-20.35-42.9-31.83-63.69a333.06,333.06,0,0,0-18.86-30.5c-5.88-8.37-11.62-16.51-20.28-22.17a126.2,126.2,0,0,0-28.43-13.48l-44.7,97.23S348.07,507,372.79,521.4c.93.54,19.37,25.65,20.48,26.2C393.7,547,405.89,578,442.09,613.88Z"/><path class="cls-18" d="M605.26,448.42,572,473.08s-83,51.74-102.91,59.44q.52,6.6,1.18,13.18c2.52,25-21.84,72.75-21.84,72.75,57.52,26.59,131.7-56.31,145.1-71.7,14.55-16.72,52.62-55.64,52.62-55.64Z"/><path class="cls-19" d="M398.27,549.38c.43,0,.16-6.76.59-6.72.32-12.71,3.15-87.31,3.32-97.07.13-10.46.26-19,.21-24.78a84.1,84.1,0,0,0-.2-9.13,73,73,0,0,0-.75,9.1c0,6.34-.41,14.53-.89,24.83-.33,9.76-1.88,91.89-2.31,104.6C398.49,550.11,398,549.36,398.27,549.38Z"/><path class="cls-19" d="M129.9,424.08a92.25,92.25,0,0,1-1.75-10.32,116.79,116.79,0,0,0-18.54-46.24,94.08,94.08,0,0,1-5.86-8.67,37.08,37.08,0,0,1,7,7.81,98.09,98.09,0,0,1,18.81,46.9A36.37,36.37,0,0,1,129.9,424.08Z"/></g><path class="cls-7" d="M646.13,413.76s12.1,18.55,3.75,39.74C649.88,453.5,664.8,424.17,646.13,413.76Z"/><path class="cls-19" d="M484.69,524.12s-14.16,9.46-16.49,25C468.2,549.16,470.86,525.42,484.69,524.12Z"/><path class="cls-8" d="M218.85,899.13q66.41,0,132.83,0c19,0,22.57,8.82,22.55,26.89,0,16.62-3.81,26.37-23.08,26.41-4.34,0-8.78.47-13-.09-12.75-1.68-15.31,2.93-13.64,12.58,16.31,94.08,32.22,181.73,48.49,275.82,1.11,6.41.1,8.94-8.71,9-22,.26-22.43.69-25.48-16.93q-15.58-90-30.36-180.15c-1.32-8.17-4.71-10.64-14.63-10.56q-75.52.61-151.06,0c-9.66-.08-12.47,2.8-13.67,10.19-10.33,63.29-21.14,126.52-31.55,189.8-1,5.9-3.92,7.65-10.91,7.76-22.66.34-23.27.5-20.36-17.25,10.55-64.34,21.52-128.64,32.41-192.94,4.62-27.34,9.24-48.21,14.29-75.5,1.55-8.42-.27-13.2-12.1-11.59-2.53.35-5.21-.1-7.8.07-34,2.35-31.19-21.38-29.22-43.34.76-8.52,9.78-10.52,19.57-10.47,45.15.21,90.29,5.49,135.44,5.49Zm-1.07,121.47c25.15,0,50.29-.19,75.43.12,7.7.09,11.14-1.3,9.83-8.4-4.05-22-7.73-28.68-11.23-50.71-1.06-6.67-3.87-9.5-13-9.38-39.88.49-79.78.56-119.65,0-9.89-.15-12.63,2.95-13.74,10-3.34,21.32-6.91,27.33-10.87,48.58-1.37,7.36.63,10.2,10.39,10C169.21,1020.25,193.5,1020.6,217.78,1020.6Z"/><path class="cls-20" d="M596.93,830.21c-12.61,69.24-28.55,220.69-47.66,305,0,0-95.43,18.13-105.13-.85,0,0-106.68-389.13-54.51-404.71,38.45-11.48,156.94-7.24,179.86,6.24C597,752.1,606.86,775.69,596.93,830.21Z"/><path class="cls-9" d="M98.76,1039.81l-5,29.77c10.55,2,21,4.42,31.49,6.9,1.32-8,2.66-16,4-24,1.21-7.39,4-10.27,13.68-10.19q75.53.62,151.06,0c9.92-.08,13.31,2.39,14.63,10.56q1.89,11.65,3.83,23.32a290.15,290.15,0,0,0,29.57-12.3c-5.75-32.51-11.52-65.25-17.34-98.81a18.32,18.32,0,0,1-.05-7.82q-10.33.67-20.67,1-6.36.24-12.7.38a19,19,0,0,1,.73,3.07c3.5,22,7.18,28.75,11.23,50.71,1.31,7.11-2.13,8.49-9.83,8.4-25.14-.31-50.29-.12-75.43-.12-24.28,0-48.57-.35-72.83.18-9.76.21-11.76-2.63-10.39-10,4-21.25,7.52-27.26,10.87-48.58a13.36,13.36,0,0,1,2.48-6.61q-17.94-.54-35.88-.79c1.63,2.06,1.69,5.3.93,9.41C108,991.6,103.39,1012.47,98.76,1039.81Z"/><path class="cls-9" d="M63.44,913.84s144.21,25.95,206.39,18.09,104.08-14.56,101.56-24-46.53-29.63-90.84-31.06-165.79,9.48-165.79,9.48S74,893.08,69.7,898.89,63.44,913.84,63.44,913.84Z"/><path class="cls-14" d="M593.44,775.66a.66.66,0,0,1-.2.06v-.52Z"/><path class="cls-20" d="M483,880.29c.95-5.74,2.2-11.43,3.67-17a239.44,239.44,0,0,1,13.25-37,254.29,254.29,0,0,1,19.41-35.44,217.75,217.75,0,0,1,16.47-22c-119.11-25.77-368.31-13-368.31-13s-80.4-6.94-72.12,98.32c6.83,87,294.25,52.2,386.33,26.55Z"/><path class="cls-20" d="M537.39,792.93a174.05,174.05,0,0,0-32.76,2.94,74.2,74.2,0,0,0,2.75-14.76c-2.09-1.74-4.29-3.52-6.58-5.32a218,218,0,0,0-30.32,15.3,259.38,259.38,0,0,0-32.06,22.79,225.28,225.28,0,0,0-27,26.41q-3.46,4.05-6.68,8.3l1,.14c-30.8,44.33-16.32,130.15-25.36,211.52-6.63,59.67-16.14,109-16.14,109,11.51,17.92,112.19,9.19,112.19,9.19C497.59,1068.67,537.39,792.93,537.39,792.93Z"/><path class="cls-21" d="M476.45,1178.4c18.51-109.24,60.94-385.47,60.94-385.47h4.82l-62.35,385.28Z"/><path class="cls-22" d="M371,848.59l1,.14"/><path class="cls-23" d="M340.73,1041.31s-.06,0-.1-.07C340.51,1041,340.54,1041.06,340.73,1041.31Z"/><path class="cls-21" d="M384.42,899.76l-3.11.32c4.58-37.32,24.8-55.17,24.8-55.17s-17.39,25.37-18,54.45Z"/><path class="cls-20" d="M521.46,792.93s7.07-38.32-32.88-51.8c-69.82-23.57-296.41,14.14-296.41,14.14l329.29,37.66"/><path class="cls-24" d="M199.34,253.45l0,.31A.39.39,0,0,1,199.34,253.45Z"/><path class="cls-6" d="M273.31,315.24l35.19-1.51,17.56-4.09c1.79,0,9.44-18.07,10.65-20.36,3.73-7.13,8.61-16.45,10.89-24.18,2.44-8.28,7.62-15.48,8.82-25.44.88-7.29.88-12.39-3.1-24.25a16.89,16.89,0,0,1-.33-9.26c1.55-6.84,2.08-14.83,3.95-24,.15-.72,1-4.2.68-5,0,0,1.42-38.17-5.54-51.78s-17.28-19.82-27.34-22.35-39.66-.59-39.66-.59l-41-5.67-34.71,17.38-17.47,42.35,2.78,49,5.45,43.8"/><path class="cls-11" d="M206.33,201.87c.22,3.79,5.07,22.67,5.52,26.36L192.24,228c-6-13-13.18-28.21-15.45-31.67-3.54-5.42,6.34-32.47,6.06-42.4l-.06-2.14c-.28-9.53,8.73-24.73,24.12-40.65,26.48-27.39,25.16-27.69,66.29-25,2.83.18,5.65.47,8.39.86,25.86,3.65,47.44,3.12,64.06,24.64,12,15.52,2.86-4,1.93,6.85-.85-21.43,3.37-3.79,1.13-6.29-13.08-14.66-19.37,1.12-25.73.23a21.33,21.33,0,0,0-10.52,1.06c-6.28,1.45-12.33.68-19-.26-4.95-.69-17.46-3.43-18.53-3.67-3.34-2.29-.54-15.21-6.68-16.08-14.27-2-33.7,4.39-40.55,7.64-8.11,3.83-27.5,12.16-24.65,33.94"/><path class="cls-11" d="M322.22,305a1.59,1.59,0,0,1-.67-.24c-3.75-2.47-4-3.86-5.88-4.29a10.44,10.44,0,0,0-1.95-.43c-5.28-.72-8.5-1.26-22.61,7.76-.29.18-18.83-2.1-19.19-2.13l-9.58-4.49c-1.6-1-37.55-31-37.55-31-.55-1-7-8.15-7.31-9.12-.12,0-.22-.12-.34-.16l-.23-.09a1.8,1.8,0,0,0,0,.19,5.89,5.89,0,0,0,0,1.26,20.45,20.45,0,0,0,1,5.3c.84,2.66,1.33,5.37,2.06,8,.27.95.57,1.87.91,2.79,4.09,2.53,30.21,35.17,45.05,42.45,1,.25,4,1.1,12.08,1.75,15.18,1.22,29.84,1.15,44.76-3.24a13.43,13.43,0,0,0,8.58-7.56c4.43-10.34,14.21-33.32,16.58-48.74-4.1,8.95-12.76,28.11-18.73,41.16-.18.4-5.94.74-6.42.88"/><path class="cls-6" d="M204.54,254.3c-15.78,15.51-19-10.77-19-10.77-11-13.39-10.86-27.56-10.38-37.25s11.14-9.46,11.14-9.46c9,1.06,13,6,20.38,36.54"/><path class="cls-11" d="M317.22,103.73c-14.71-.13-53.42-10-73.4-11.06-8.27-.45-35.53,20.24-39.06,24.92-8.09,10.74,11,35.09-2.8,69.23-4.57,11.28-11.27-8.34-17.11-.93s-8.06,10.41-8.06,10.41c-4.63-32.54-4.5-31.39,2.41-63.62S221,86.22,237.87,83.37s71.31,2.06,86.05,8.77"/><path class="cls-25" d="M199.34,227.69a76.39,76.39,0,0,0-7.27-13.05,24.09,24.09,0,0,0-5-5.41,6.84,6.84,0,0,0-2.65-1.33c-1.23-.21-1.8.6-2.32,1.56-2.08,3.91-2,8.66-1,12.85.08.35,1.61,0,1.52-.41a19.92,19.92,0,0,1,0-10.34,11,11,0,0,1,1.62-3.43l-1.18.37h.06c.15.06.33.08.48.13a7.23,7.23,0,0,1,1.85,1c2.9,2.07,5.06,5.18,6.92,8.16a89.32,89.32,0,0,1,5.42,10.29c.18.38,1.65-.13,1.53-.4Z"/><path class="cls-25" d="M195.78,229.22c-6.39-.31-2.63,8.37-3.22,11.78a4,4,0,0,0-.15.57c0,.06-.15.17-.15.22l.38,0a4.86,4.86,0,0,0-.44-.49,6.56,6.56,0,0,1-.59-1.15,29.93,29.93,0,0,1-1.62-6,23.35,23.35,0,0,1-.37-7.26c.35-2.9,1.14-7,4.16-8.28,1-.41.11-1.24-.68-.91-2.89,1.23-4.11,4.42-4.7,7.29a20,20,0,0,0-.4,6.55,44.49,44.49,0,0,0,1.55,7.56c.36,1.12.83,2.93,1.92,3.61a1.7,1.7,0,0,0,2.39-.87,6.2,6.2,0,0,0,.18-3.34c-.17-1.66-1.86-8.22,1.21-8.07.75,0,1.56-1.07.53-1.12Z"/><path class="cls-11" d="M276.44,198.45c-2.23-1.19-4.88-.22-6.37,1.07a5.65,5.65,0,0,0-1.75,2.64,5.85,5.85,0,0,0,1.31,5.35,5.45,5.45,0,0,0,6.25,1.18,6,6,0,0,0,3.05-7,5.35,5.35,0,0,0-2.49-3.28"/><path class="cls-11" d="M341.38,199.77c2.27-1.14,4.89-.09,6.34,1.23a5.61,5.61,0,0,1,1.68,2.69,5.86,5.86,0,0,1-1.46,5.32,5.45,5.45,0,0,1-6.27,1,6,6,0,0,1-2.87-7,5.4,5.4,0,0,1,2.58-3.21"/><path class="cls-11" d="M322.53,208.05s9.19-8.94,15.83-9.46c9.7-.77,12.15,1.45,15.52,5.93,0,0-6.28-4.72-13.09-4C334.28,201.21,322.53,208.05,322.53,208.05Z"/><path class="cls-11" d="M291.12,205.27s-13.46-8.74-20.12-9c-9.72-.38-21.37,5.19-24.57,9.81,0,0,15.39-8.24,22.22-7.78C275.19,198.73,291.12,205.27,291.12,205.27Z"/><path class="cls-11" d="M293.64,168.2q.36,3.45.7,6.91c.18,1.76.7,5.76.87,7.51-5.69-.91-10.9-2.61-14.54-2.87-7.22-.52-14.67-1.56-21.73.3a24.17,24.17,0,0,0-9,4.16c-.85.65-3,3.33-4.45,2.85-.58-.2,0-3.13.1-3.43,1.27-5.9,5.86-8.77,11.64-10.74,11.79-4,24-5,36.39-4.69"/><path class="cls-11" d="M359.28,180.46l-3.52-2.16c-9.78-6.05-20.57-9.17-31.85-11.13l-2.1,6.62c-.54,1.69-1.6,4.69-2.13,6.37,5.33.14,10.07-.2,13.41.2,6.63.79,13.64,1.54,19.61,4.63.47.24,3,1.61,3.46,1.87C359.14,184.46,360,181.23,359.28,180.46Z"/><path class="cls-11" d="M294.07,279.83l25-1s-6,9.6-12.1,9.52C303.13,288.34,298.08,284.16,294.07,279.83Z"/><path class="cls-12" d="M314.53,245.94c-2.86,1.48-7.19,1.07-10-.78-.64-.41-2.76,0-1.87.53,3.75,2.44,10,2.75,13.66.83.37-.19.31-.48-.15-.64a2.39,2.39,0,0,0-1.61.06"/><path class="cls-12" d="M301.4,244.84a17.46,17.46,0,0,0-6.17-1.67,1.4,1.4,0,0,0-1,.3c-.18.16-.22.38,0,.52a6.62,6.62,0,0,0,3.39.84,1.26,1.26,0,0,0,1.05-.4c.2-.29-.15-.49-.44-.49a5.19,5.19,0,0,1-2.73-.69l-.94.82a15.68,15.68,0,0,1,5.51,1.5,1.29,1.29,0,0,0,1.13-.11c.23-.13.48-.45.14-.62"/><path class="cls-12" d="M292.91,245c-2.5-.09-5.43-1.25-6.63-3.19-1.82-2.93,0-7.41,3.12-9.23.34-.2.16-.46-.18-.54a2,2,0,0,0-1.34.26,8.84,8.84,0,0,0-4.18,8c.35,2.56,2.72,4.37,5.7,5.15a13.44,13.44,0,0,0,2.77.43c.38,0,1.06-.1,1.25-.4s-.16-.44-.51-.46"/><path class="cls-12" d="M319.13,244.7a.33.33,0,0,1,.32-.48,2.92,2.92,0,0,0,1.95-.62c.22.27.43.55.65.83a8.69,8.69,0,0,0-3.94,1.38.69.69,0,0,1-.8-.13c-.16-.15-.32-.47-.08-.63"/><path class="cls-12" d="M317.23,245.05a9.57,9.57,0,0,1,4.4-1.53.82.82,0,0,1,.67.32.36.36,0,0,1,0,.52"/><path class="cls-12" d="M324.32,245.12a5.12,5.12,0,0,0,4.38-3.05,7.64,7.64,0,0,0-1.84-8.25.3.3,0,0,1,.13-.53.93.93,0,0,1,.86.29,8.53,8.53,0,0,1,2.56,7,5.88,5.88,0,0,1-3.82,5,5.66,5.66,0,0,1-1.81.36.87.87,0,0,1-.8-.42c-.12-.31.11-.44.34-.44"/><path class="cls-11" d="M325.09,109.8a9.12,9.12,0,0,0-4.3-1.44l-1.69-.53q-7.44,0-14.87.36a10.75,10.75,0,0,0-3.62.63,2.59,2.59,0,0,0-.33.17c-3.68-.12-7.35-.19-11-.16l-1.68.46a10.15,10.15,0,0,0-4.3,1.26,1.44,1.44,0,0,0,.36,2.69c1.5.46,3.73-.35,4.77.5s-1,2.34-.34,3.45c.43.69,1.75.91,2.62,1.41,1,.58,1.39,1.55,2.35,2.19a5.14,5.14,0,0,0,3.9.49c1.39.1,3.25-.47,3.7.48a1.69,1.69,0,0,1,0,.81,2.78,2.78,0,0,0,2.12,2.53,4.55,4.55,0,0,0,3.92-.58c1-.73,1.31-1.85,2.34-2.53a7.93,7.93,0,0,1,1.09-.55,3.61,3.61,0,0,0,1.3.75,4.55,4.55,0,0,0,3.91-.57c1-.74,1.32-1.85,2.35-2.53.87-.58,2.19-.83,2.62-1.64.68-1.28-1.5-2.89-.35-4s3.27,0,4.77-.59A1.75,1.75,0,0,0,325.09,109.8Z"/><path class="cls-11" d="M293.56,309.93a7.52,7.52,0,0,0,3.57.89l1.39.31q6-.45,12-1.26a8.72,8.72,0,0,0,2.88-.73l.26-.16c3-.15,5.95-.33,8.91-.59l1.33-.48a8.32,8.32,0,0,0,3.39-1.3,1.16,1.16,0,0,0-.46-2.14c-1.25-.28-3,.52-3.89-.1s.68-1.95.05-2.8c-.39-.54-1.48-.63-2.21-1s-1.22-1.17-2-1.62a4.12,4.12,0,0,0-3.17-.14c-1.14,0-2.6.59-3-.15a1.31,1.31,0,0,1-.09-.65,2.22,2.22,0,0,0-1.87-1.9,3.66,3.66,0,0,0-3.13.72c-.73.65-.93,1.57-1.72,2.19a7.67,7.67,0,0,1-.85.52,2.81,2.81,0,0,0-1.1-.52,3.67,3.67,0,0,0-3.12.71c-.73.66-.94,1.58-1.73,2.2s-1.71.81-2,1.49c-.46,1.07,1.4,2.23.55,3.18s-2.64.25-3.82.78A1.42,1.42,0,0,0,293.56,309.93Z"/><path class="cls-26" d="M178.73,198.29a9.34,9.34,0,0,1-4.39-.84,3.22,3.22,0,0,1-1.66-3.78c.93-2.2,4.91-2.66,4.62-5-2-2.29-6.66-1.27-7.84-4.08-1-2.26,1.46-4.43,3.55-5.73-1.51-1.38-1-.11-3-.57s-3.21-5.23-2.13-7c1.23-2,2-.42,1.18-2.59-1.59-.46,1.85-1.88.62-3s-1.88-3.05-1-4.47c1-1.71.8-3,.72-4.95-.07-1.7,3.25-2.08,2.21-3.42-1.9-2.45.51-5.83,2.77-7.95-1.37-.88.27-1.2-.62-2.57a3.94,3.94,0,0,1,0-4.56,17.86,17.86,0,0,1,2.4-1.76c3.16-2.62,1.11-7.7-1.13-11.14a5.89,5.89,0,0,0,6-5c.17-1.34-.13-2.76.33-4s2.27-2.18,3.15-1.15"/><path class="cls-11" d="M179.4,197.08c-1.53,0-3.38,0-4.44-1.31a1.9,1.9,0,0,1,.28-2.93c1.28-1,4.87-2.6,3.82-4.83-.45-1-2-1.51-2.92-1.82-1.1-.36-2.27-.5-3.35-.91a2.19,2.19,0,0,1-1.64-2.39c.25-1.52,1.85-2.58,3-3.33.38-.24,1-1.05.51-1.49a3.82,3.82,0,0,0-1.83-1.06,3,3,0,0,0-.94,0s-1.18.19-.77.19-.18-.05-.29-.14a2.44,2.44,0,0,1-.53-.58,5.31,5.31,0,0,1-.78-1.83c-.29-1.07-.59-2.71.33-3.57-.21.19.29-.15.32-.17a2.16,2.16,0,0,0,.83-.76,2.19,2.19,0,0,0-.18-1.91,1.24,1.24,0,0,0-.4-.5c-.33-.26-.85,0,0,.39.09,0-.18.13.13-.07a3.64,3.64,0,0,0,1-1.35c.69-1.54-1.27-2.45-1.47-3.93-.13-.93.41-1.59.73-2.42a6.91,6.91,0,0,0,.4-2.67c0-.54-.25-1.49,0-2s.82-.6,1.14-.85a2.58,2.58,0,0,0,1.19-1.68c.05-.82-.71-1.39-.85-2.19-.36-2.16,1.66-4.27,3.07-5.62a.88.88,0,0,0-.07-1.43c-.26-.19-.14-.06,0-.46a2,2,0,0,0,.07-.93c-.18-1-1-1.74-1-2.85s.59-1.71,1.52-2.31a7.39,7.39,0,0,0,2.35-2.17c2.24-3.45-.12-8.08-2.05-11.09l-2.36,2a8.63,8.63,0,0,0,7.31-3.37,6.43,6.43,0,0,0,1.3-3.65c0-.82,0-1.66.07-2.48,0-.18.34-.83.33-1l.12-.13a2.28,2.28,0,0,1-.64.06c1.09,1,4.57-.42,3.39-1.54-2.32-2.2-6.32-.09-6.86,2.75-.33,1.68.19,3.42-.7,5a3.49,3.49,0,0,1-3,2c-.9,0-3.19.7-2.37,2a15.62,15.62,0,0,1,2.51,5.94,5,5,0,0,1-.25,2.8c-.44,1-1.34,1.37-2.18,2a4.62,4.62,0,0,0-2,5.37c.29.89.81,1.35.64,2.27a1.7,1.7,0,0,0,.9,1.91l-.07-1.43c-2,1.94-4.81,5.25-3.47,8.28.17.39.39,1.26.71.67-.16.3-.79.55-1.06.75a3.29,3.29,0,0,0-1.46,3.21,9.48,9.48,0,0,1-.08,2.32c-.17.79-.66,1.42-.9,2.19a4.54,4.54,0,0,0,1,4.19c.15.18.46.67.48.4,0,0,0,.13-.05.15-.19.37-.62.66-.86,1-.71,1-.36,1.78.78,2.2l-.75-.65.24.69c.1.63.41.39.94-.72-.26,0-.64.32-.84.46a4.62,4.62,0,0,0-1.59,1.89,6.55,6.55,0,0,0,0,4.24,5.42,5.42,0,0,0,2.26,3.36,4.59,4.59,0,0,0,2.53.46,2.53,2.53,0,0,0,1.06-.19c.47-.13.18-.16-.9-.1a2.44,2.44,0,0,1,.45.32l.51-1.48c-2.4,1.52-6.11,4.84-3.65,7.89a6.31,6.31,0,0,0,3.38,1.82c.84.22,3.31.44,3.78,1.31s-1.4,1.56-1.89,1.88a5.79,5.79,0,0,0-2.67,3,4,4,0,0,0,1.7,4.14c1.57,1.17,3.7,1.3,5.59,1.35a2.6,2.6,0,0,0,2.41-1.07c.38-.77-.33-1.33-1.07-1.35Z"/><path class="cls-27" d="M183.42,121.38c.36-1.81,1.84-10.47,2.21-12.28a4.07,4.07,0,0,0,5.21-3.53c0-1.22-.4-2.73.58-3.46s2.41.16,3.66.07c2.77-.2,3.06-4.72,5.65-5.74,1.62-.64,3.52.36,5.17-.21,2.49-.86,2.81-4.64,5.21-5.74,1.65-.76,3.66.07,5.4-.45,3.79-1.13,5-6.78,8.93-6.91,1.44,0,2.81.9,4.24.74,2.58-.29-1.33-2.9,1.23-3.32,2.35-.39,4.28,2.06,6.65,2.27,3.85.33,6.28-6.16,9.9-4.78,1.55.6,2.43,2.33,4,3,3.57,1.54,7.12-3.63,10.92-2.81,1.91.4,3.31,2.27,5.25,2.47,3,.32,5.25-3.46,8.28-3.29,2.41.12,4.25,2.75,6.66,2.56,1.69-.13-2.51-1.91-.84-2.19,2.85-.48,5.05,2.63,7.89,3.16,2.38.44,4.65-1,7-1.62s7.6,3.84,7.73,6.26"/><path class="cls-11" d="M185.24,121.1c.81-4.08,1.4-8.21,2.21-12.29l-3.32,1.07a7.36,7.36,0,0,0,7.9-2.72c.8-1.26.53-2.42.58-3.82,0-.13.28-1,.27-1.08.18.37-2,.06-1.23.44a3.22,3.22,0,0,0,.54.1,8.45,8.45,0,0,0,2.35.22c2.94-.25,4.3-2.09,5.68-4.41a12.49,12.49,0,0,1,.95-1.34c.31-.41.38-.15,0-.19l1.42.12a8.31,8.31,0,0,0,5.13-.94,7.08,7.08,0,0,0,2.39-2.59c.31-.51.59-1,.92-1.54a7.09,7.09,0,0,1,.51-.68c.14-.16.64-.54.46-.48s.66.06.86.07c.4,0,.8,0,1.2,0a9.17,9.17,0,0,0,2.7-.33,9,9,0,0,0,3.62-2,24.27,24.27,0,0,0,2.36-2.7A6.78,6.78,0,0,1,224.81,84c-.43.18.13.07.49.15s.77.23,1.15.34a7.4,7.4,0,0,0,2.47.29c1.05-.07,3-.41,3.44-1.53.27-.64-.18-1.23-.38-1.81,0-.11-.06-.36-.13-.44s0-.2,0-.18c-.14-.09-1.17.65-1.19.61a3.68,3.68,0,0,0,.83.26,11.18,11.18,0,0,1,1.15.57,9.87,9.87,0,0,0,3.87,1.47,8.06,8.06,0,0,0,4-.86,13.17,13.17,0,0,0,2.92-2.11l1.16-1.06a11.15,11.15,0,0,0,1.25-1c-.11.13-.46-.18,0,.1a11.33,11.33,0,0,1,1.87,1.39,6.05,6.05,0,0,0,3.63,2c2.86.3,5.38-1.33,7.79-2.59a2.64,2.64,0,0,1,3.06,0c1.23.69,2.3,1.63,3.73,1.92,3.06.63,5.58-1.21,8-2.73,1.1-.68,1.58-.42,2.8.29a11.49,11.49,0,0,0,3.66,1.73,5.07,5.07,0,0,0,4-.84c.63-.62.13-1-.41-1.5a5.56,5.56,0,0,0-.75-.63c-.53-.26.84-.71-1,.33-1.26.73-.7.42.06.72A34.11,34.11,0,0,1,286.09,81c3.35,1.76,6.61.46,9.92-.69a4.84,4.84,0,0,0,.54-.17c.62-.29-.39.15-.41,0s.51.12.53.12a6.57,6.57,0,0,1,1.55.76,13.65,13.65,0,0,1,2.91,2.5,4.85,4.85,0,0,1,1.33,2.56c.1.91,3.8.17,3.68-1-.21-2.08-2.4-4-4-5.08a7.14,7.14,0,0,0-7.09-1c-1.56.53-3.13,1.48-4.8.91a25.59,25.59,0,0,1-3.78-2.13,6.82,6.82,0,0,0-4.17-.88c-.76.09-2.84.46-2.86,1.52,0,.61.86,1.07,1.26,1.42a2.28,2.28,0,0,0,.33.29c.18.08,0,0,0,0l1-.54q1.6-.45.84-.57a5.59,5.59,0,0,0-.9-.32,8.81,8.81,0,0,1-1.08-.61A9,9,0,0,0,277,76.54a8.67,8.67,0,0,0-4.41,1c-1.17.58-2.18,1.42-3.32,2.06-.6.34-.42.34-1.05.14a9.36,9.36,0,0,1-2-1.14c-2.67-1.71-5.39-1.53-8.23-.25-1.22.55-2.35,1.29-3.56,1.86a4,4,0,0,1-.48.2c-.35.13-.08.08-.29.07a3.33,3.33,0,0,1-1.86-1c-1.08-1-2-2.08-3.5-2.38a6.7,6.7,0,0,0-3.75.46c-2.25.89-3.62,2.85-5.57,4.17-.32.21-.59.24-.23.24a5.12,5.12,0,0,1-2.21-.82,9.52,9.52,0,0,0-3.82-1.48,5.72,5.72,0,0,0-4.11,1.14c-.66.61-.47,1.22-.17,2a3.86,3.86,0,0,0,.3.83s0,.13,0,.14l.67-.36c.75-.22.9-.35.44-.4a5.87,5.87,0,0,0-1.37-.38,7.89,7.89,0,0,0-4.78.17c-2.41.86-3.81,2.76-5.38,4.65-.55.66-1.43,1.8-2.19,2a13.56,13.56,0,0,1-2.38-.07,9,9,0,0,0-2.72.43,6.36,6.36,0,0,0-3.34,2.42,29.23,29.23,0,0,1-1.95,3,2.48,2.48,0,0,1-.55.52c.55-.31-.17-.2-.52-.23a11.49,11.49,0,0,0-2.87,0,6.75,6.75,0,0,0-3.91,1.87,14.88,14.88,0,0,0-1.88,2.84,12.47,12.47,0,0,0-1,1.32s-.11.1-.11.09c-.16-.19,1,.08.44-.29a3.67,3.67,0,0,0-1.21-.24,5.43,5.43,0,0,0-4.53,1.27c-1.1,1.16-.43,2.64-.66,4-.17,1-.89,2.28-1.84,2-.74-.23-3.12.07-3.32,1.07-.81,4.09-1.4,8.21-2.21,12.29-.21,1.07,3.44.47,3.65-.57Z"/><path class="cls-28" d="M221.64,97.87c-13.9,5.84-19.53,10.94-26.11,24.51l79.65-30.06A71.56,71.56,0,0,0,257.75,91C242.7,92,235.55,92,221.64,97.87Z"/><path class="cls-11" d="M220.94,97.2c-5.91,2.49-11.83,5.37-16.56,9.79s-7.9,9.93-10.69,15.65c-.51,1.06,2.28.51,2.54.41l27.06-10.21,42.79-16.16,9.81-3.7c.74-.28,1.82-1.35.44-1.6a86.58,86.58,0,0,0-12.74-1.45c-4-.12-8,.25-12,.52a100.12,100.12,0,0,0-19,2.67,91.15,91.15,0,0,0-11.71,4.08c-.46.19-1.5.74-1,1.36s1.91.19,2.42,0a73.67,73.67,0,0,1,18-5.21c3-.43,6-.68,9-.89,3.62-.25,7.26-.59,10.89-.6A76.89,76.89,0,0,1,274,93.25l.44-1.6-27.05,10.21L204.63,118l-9.81,3.7,2.54.42c2.59-5.31,5.58-10.6,9.94-14.67s9.65-6.65,15-8.93c.46-.19,1.5-.74,1-1.36S221.45,97,220.94,97.2Z"/><path class="cls-28" d="M337,95.92c-.4-.17-.79-.34-1.16-.53-1.93-1-3.48-3.8-1.78-5.13-3.83,1.68-6.8-5-11-4.79a24.1,24.1,0,0,0-3.48.91,5.49,5.49,0,0,1-6.26-5.27,13.32,13.32,0,0,1-10,1.37l-28.12,9.84c12.52,2.28,25.31,6.6,37.31,7.78,5.78.57,11.66,1.32,16.88,3.86,3.8,1.84,8.61,2.79,12.51,4.76C340.27,104.44,338.67,100.16,337,95.92Z"/><path class="cls-11" d="M338.45,95a5.55,5.55,0,0,1-2.7-2c-.45-.66-.93-1.85-.22-2.49.43-.39.52-.9,0-1.21a2.79,2.79,0,0,0-2.19.13c-.68.27-2.68-1.59-3.25-2.06a12.57,12.57,0,0,0-4.61-2.82,7,7,0,0,0-3.18,0c-1,.22-2.13.9-3.21.8-2.29-.22-3.87-2.66-3.9-4.77,0-1.14-2.58-.3-3-.07a9.84,9.84,0,0,1-3.69,1.24,15,15,0,0,1-4.07-.31,5,5,0,0,0-2.48.46l-5.7,2L278.89,90l-4.44,1.55c-.8.28-1.77,1.52-.39,1.77,9.21,1.7,18.2,4.37,27.38,6.23,4.32.88,8.66,1.37,13,1.89a42.85,42.85,0,0,1,12.82,3.13c4.28,2,8.91,3,13.12,5,.7.35,3.78-.11,3.3-1.38-1.61-4.28-3.21-8.56-4.89-12.81-.52-1.29-4.15-.2-3.68,1,1.68,4.25,3.28,8.53,4.89,12.8l3.31-1.39c-3.78-1.86-8-2.71-11.79-4.42a46.53,46.53,0,0,0-12.38-3.65c-4.48-.67-9-1-13.44-1.81s-9.09-2-13.6-3.06c-5.26-1.29-10.51-2.59-15.83-3.57l-.4,1.77,24.62-8.6,3.5-1.23-1.86.24a16.79,16.79,0,0,0,12.3-1.83l-3-.06a6.16,6.16,0,0,0,4.35,5.54,7.47,7.47,0,0,0,4.19.12c1.11-.26,2.19-1,3.33-.59,2,.69,3.47,2.49,5.17,3.66a6.39,6.39,0,0,0,6.25.7L332.57,90a3,3,0,0,0-.7,3.78,6.54,6.54,0,0,0,3.65,3.08,3,3,0,0,0,2.61-.34C338.59,96.18,339.28,95.37,338.45,95Z"/><path class="cls-10" d="M268.45,151.94s38.49-5.25,64.8.24"/><path class="cls-26" d="M344.06,280.32A38.72,38.72,0,0,1,340,291c1.38.41.88,2.56-.17,3.55s-2.5,2.09-2.15,3.49c.12.49.46.9.57,1.39.35,1.54-1.52,2.55-3,3,1.06.77.23,2.47-.78,3.32s-2.29,1.91-1.9,3.17c.19.62.78,1.11.78,1.75,0,1.35-2.2,1.42-2.9,2.57-.4.67-.2,1.53-.35,2.29a2.51,2.51,0,0,1-3.79,1.41c-.22,2.74-1.29,6.31-4,6.25-1.7,0-3.37-1.62-4.91-.88-.94.46-1.33,1.63-2.2,2.23-2.94,2-6.83-4.14-9.76-2.12-1.57,1.08-1.42,3.89-3.21,4.56s-3.27-1.32-5.07-1.45c-2-.15-3.88,1.86-5.65,1-.77-.37-1.21-1.18-1.87-1.71-1.51-1.23-2.95.74-4.78,1.37-3.29,1.14-3.66-1.24-3.66-1.24-1-2.29-2.34-2.07-4.5-.77a5.59,5.59,0,0,1-2.21,1.15c-2.05.16-3.11-3.19-5.15-2.94a6.78,6.78,0,0,0-2,1c-2.45,1.22-5.62-2-4.36-4.43a5.73,5.73,0,0,1-5.7-6,5.19,5.19,0,0,1-6.64-4.31c-3.38,1-7.11-2.89-5.89-6.21a4.1,4.1,0,0,1-5.39-3.6c0-1.31.51-3-.6-3.68-.73-.46-1.67-.1-2.54-.09a3.28,3.28,0,0,1-2.9-4.4c-3.35.94-6.64-3.67-4.65-6.53-2.64.68-5.16-2.94-3.61-5.19-3.65,0-6.29-4.8-4.32-7.89l43.58,42.05,11.05,4.62s38.69,2.3,45.87-1.22S344.06,280.32,344.06,280.32Z"/><path class="cls-11" d="M342.25,280.64a40.32,40.32,0,0,1-4.11,10.65c-.13.24.16.35.31.41.93.38.42,1.89,0,2.48-.61,1-1.69,1.53-2.31,2.52-.74,1.18-.21,1.83.13,3s-.73,1.91-1.78,2.24c-.26.09-1.58.64-1.09,1.09,1.44,1.3-1.08,3-1.82,3.81a3.17,3.17,0,0,0-1,1.87c-.07.92.79,1.42.82,2.26,0,1-2,1.49-2.64,2.25a4,4,0,0,0-.55,2.28,4.32,4.32,0,0,1-.38,1.08c-.42.36-.21.35.64,0a1.5,1.5,0,0,1-.52-.26c-.73-.48-3.48.11-3.57,1.13a10.33,10.33,0,0,1-1.12,4.12,4,4,0,0,1-.5.74c-.09.09-.34.24-.37.34-.13.44.74-.49.87-.22a7.49,7.49,0,0,0-1-.27c-.48-.17-.94-.39-1.42-.54a6.24,6.24,0,0,0-5.1.71,5.93,5.93,0,0,0-1.44,1.43l-.63.72c-.16-.23,1.32,0,1.08-.31a2.62,2.62,0,0,0-.5-.12c-2.21-.69-3.85-2.66-6.27-2.8a6.79,6.79,0,0,0-4.06,1.1,6.45,6.45,0,0,0-2,3.09,5.75,5.75,0,0,1-.43.86,1.7,1.7,0,0,0-.25.31c-.11.7,1.07-.75,1.17-.29a18.52,18.52,0,0,0-2.28-1,6.63,6.63,0,0,0-4.82-.07c-.64.2-1.61.87-2.26.85.49,0-.34-.44-.47-.54-.37-.32-.65-.73-1-1.06-1.2-1.13-2.95-.84-4.37-.32a11.24,11.24,0,0,0-2,1c-.4.24-.77.62-1.24.52s-.77-.71-1-1.18c-1.27-2.91-4.42-2.18-6.76-1-.44.24-.88.49-1.3.77a2.06,2.06,0,0,0-.46.31c-.3.18-.18.19.38,0s.7-.05.37-.13c-.08-.14-.59-.36-.74-.48s-.53-.49-.79-.74c-1-1-2-1.77-3.49-1.67a7.52,7.52,0,0,0-3,.92c-.26.15-1.56.84-.52.47.86-.3.38,0,.11-.22s-.38-.16-.54-.25a3.14,3.14,0,0,1-1.48-3.89c.16-.36-.41-.46-.63-.46-3,0-5.21-2.86-5.05-5.71,0-.67-2.36,0-2.49.05.47-.15-.11-.09-.29-.13a3.5,3.5,0,0,1-.78-.23,4.89,4.89,0,0,1-1.49-.92,4.6,4.6,0,0,1-1.59-3.07c-.06-.58-1.8-.16-2-.11-1,.26-2.62-1.21-3.17-2a4.39,4.39,0,0,1-.74-3.95c.28-.89-2.2-.23-2.46-.14.4-.07.4-.11,0-.13a4,4,0,0,1-.67-.22,4.13,4.13,0,0,1-.8-.5,3.69,3.69,0,0,1-1.31-1.87c-.39-1.34.46-3-.33-4.22-1-1.56-2.84-.39-4.19-.85a3.09,3.09,0,0,1-1.69-3.85c.29-.76-1.8-.32-2-.28.48-.12-.39-.2-.58-.29a3.83,3.83,0,0,1-.73-.44,4.75,4.75,0,0,1-1.39-1.63,3.75,3.75,0,0,1,0-3.88c.38-.6-1.41-.41-1.48-.4-.83.17-1.88-1.2-2.18-1.79a3,3,0,0,1,0-3c.22-.36-.46-.46-.63-.46-3.44-.12-5.32-4.67-3.69-7.43l-3.55.95,20.71,20,14.66,14.15L259.6,311a35.19,35.19,0,0,0,2.71,2.61,2.93,2.93,0,0,0,.76.41l3.78,1.58,4.71,2a11.52,11.52,0,0,0,2.5,1c1.18.17,2.44.13,3.64.19,3,.14,6,.26,9,.35,7.75.24,15.54.37,23.28-.09,5.23-.31,11.28-.51,15.19-4.46a49.09,49.09,0,0,0,5.8-7.58c2.16-3.3,4.16-6.7,6.09-10.14q4.39-7.81,8.34-15.88l.44-.89c.3-.63-1.27-.43-1.48-.4-.63.1-1.84.37-2.15,1-1.87,3.86-3.84,7.68-5.87,11.46a150.86,150.86,0,0,1-11.61,19.19,35.38,35.38,0,0,1-2.66,3.21c-.38.39-.76.77-1.17,1.12a4.27,4.27,0,0,1-.46.35c-.19.14-.57.39-.37.25-.43.3.2-.07-.24.11l-.23.08c-.43.14.43-.12,0,0l-.69.18h0l-.56.11a37.43,37.43,0,0,1-3.77.5,194.86,194.86,0,0,1-22.15.38c-5.17-.12-10.34-.38-15.52-.6-.13,0-.27,0-.4,0,.11,0,.35.13,0-.08a36.44,36.44,0,0,0-3.53-1.47l-4.76-2a15.55,15.55,0,0,1-2.46-1c.48.31-.15-.27-.24-.36l-1.22-1.17-4.47-4.32-13.85-13.36-23.16-22.35-.42-.4c-.69-.67-3.13.24-3.55.95-2.15,3.65,1,8.2,5,8.35l-.63-.46a3.62,3.62,0,0,0,.49,4.24,4.54,4.54,0,0,0,4.6,1.34l-1.48-.39a4.48,4.48,0,0,0,.67,5.35c1.55,1.81,3.76,2,6,1.46l-2-.29a3.61,3.61,0,0,0,1.8,4.47,5.46,5.46,0,0,0,2.89.32c1.31-.07,1.49.82,1.44,2a7,7,0,0,0,.08,2.67,4.39,4.39,0,0,0,1.6,2.1c1.8,1.3,4.1,1.1,6.08.39l-2.46-.13a5.1,5.1,0,0,0,1.65,5.39,6.53,6.53,0,0,0,6.22,1.1l-2-.11a5.41,5.41,0,0,0,3.12,4.22,8,8,0,0,0,6,.05l-2.48,0a6.19,6.19,0,0,0,6.35,6.27l-.63-.46c-1.29,2.88,1.76,5.33,4.45,5.14a7.48,7.48,0,0,0,2.66-.69,6.68,6.68,0,0,0,1.14-.64c.86-.67-.54.74-.85.09,0,.07.36.16.43.22,1,.81,1.85,2,3.05,2.48,1.62.63,3.62,0,5-.91.36-.23.7-.5,1.06-.72.19-.11,1.16-.7.42-.32s-.29-.06-.15.19c.05.09.3.25.38.34a3.5,3.5,0,0,1,.6,1c1,2.24,3.38,2,5.47,1.39a11.34,11.34,0,0,0,2.53-1.1,7.44,7.44,0,0,0,1-.63c.6-.52-.46,1-.73.15,0,.09.45.35.54.43a6.62,6.62,0,0,0,1.82,1.56,4.93,4.93,0,0,0,2.77.12,13.55,13.55,0,0,0,2.64-.85c.83-.33,1.13-.13,2.12.39a6.05,6.05,0,0,0,4.86.65,4.75,4.75,0,0,0,3.29-2.91,9.74,9.74,0,0,1,.84-1.79c.64-.89-.07.31-.74-.09a7.41,7.41,0,0,0,.84.24c2.5,1,4.3,3.06,7.21,2.61A6.57,6.57,0,0,0,318,323a5.34,5.34,0,0,1,.42-.46c.08.07-1.69.16-.45.59.48.17.94.38,1.42.54a6.09,6.09,0,0,0,2.78.22,6.28,6.28,0,0,0,4.49-2.58,10.63,10.63,0,0,0,1.39-4.86l-3.57,1.13c1.8,1.18,4.69.42,6.27-.83a3.11,3.11,0,0,0,1.16-2.5c.12-1.59.72-1.58,1.91-2.33.69-.43,1.37-1,1.25-1.9-.08-.54-.51-.94-.7-1.44a1.69,1.69,0,0,1,.4-1.76c1-1.23,4.08-3.23,2.11-5l-1.09,1.09c1.38-.44,3.09-1.13,3.91-2.41,1-1.47-.78-2.66-.07-4.1s2.17-1.91,2.73-3.32c.47-1.17.31-2.28-.92-2.78l.3.42A40.11,40.11,0,0,0,345.88,280C346.08,279.15,342.46,279.69,342.25,280.64Z"/><path class="cls-29" d="M207.11,204.15c3.69-3.9-1.32-10.93,1.48-15.5a35,35,0,0,0,2.21-3c1.5-3.16-1.48-7-.26-10.29.54-1.47,1.87-2.57,2.29-4.08.81-2.89-2-5.69-1.76-8.67.23-3.36,4.13-6.33,2.75-9.39-.68-1.5-2.45-2.3-3-3.83-1-2.66,1.89-6.31-.24-8.23-.73-.66-1.87-.8-2.49-1.58-1.24-1.57.67-3.61,1.38-5.47s.09-4.1.26-6.16,2-4.38,3.92-3.58c-1.22-3.2.45-12.06,3.86-11.8,1.68.13,3.87.87,4.7-.6.59-1-.15-2.43.33-3.53,1.23-2.8,6.1,1.14,8.47-.8.64-.52.91-1.38,1.45-2,1.21-1.43,3.43-1.39,5.26-.94s3.68,1.23,5.52.82,3.34-2.74,2.14-4.19a14.66,14.66,0,0,0,6.22,2.19c2.21.08,4.64-1.16,5.17-3.31.69,3.09,5.49,4.13,7.4,1.61.76-1,1.25-2.49,2.5-2.67a2.72,2.72,0,0,1,1.61.39c2.25,1.12,5.46,7.8,6.74,10l-1.46-13.68L235,91.73l-30.88,20L193.73,152l15.07,54.66"/><path class="cls-11" d="M208.64,204.63c1.82-2,1.9-4.58,1.57-7.18s-1.26-5.49-.22-8c.59-1.39,1.91-2.31,2.56-3.68a6.92,6.92,0,0,0,.39-4.17,41.6,41.6,0,0,1-.84-4.4c-.08-1.64.71-2.74,1.59-4a5.89,5.89,0,0,0,1.09-4.14,23.33,23.33,0,0,0-1.43-4.3,5.51,5.51,0,0,1,.15-4.36c.59-1.28,1.42-2.45,1.94-3.76a5.19,5.19,0,0,0,.28-3.77c-.52-1.35-1.68-2.1-2.57-3.17-1.78-2.13.28-4.95,0-7.38-.2-1.7-1.44-2.32-2.79-3.08-1.77-1-.22-2.85.42-4.13.94-1.87.85-3.68.75-5.7a6.23,6.23,0,0,1,.27-2.75,6.78,6.78,0,0,1,.59-1c0-.08.14-.13.2-.2s-.5-.08-.08.06c.85.28,3.4-.33,2.92-1.68-.92-2.59-.3-6.13.82-8.56a10.23,10.23,0,0,1,.88-1.42c.25-.38.06.08-.06-.07s-.28.05-.28,0,.77.09.82.1c2,.27,4.41.48,5.89-1.23a3.46,3.46,0,0,0,.72-2.6c0-.5,0-1,0-1.49,0,.6.06-.27.13-.23.28.16-1.12.06-.45.28a20.07,20.07,0,0,0,4.11.79,5.54,5.54,0,0,0,4.93-1.84c.46-.59.74-1.58,1.48-1.85a5.4,5.4,0,0,1,3,.34c2.58.72,5.41,1.38,7.84-.17,1.78-1.15,3.12-3.44,1.75-5.39l-3.12,1.8c2.72,1.45,5.63,2.84,8.8,2.33a7,7,0,0,0,5.88-4.63l-3.7.65a5.53,5.53,0,0,0,5.08,3.78,7.32,7.32,0,0,0,3.75-.67,6.83,6.83,0,0,0,2.78-2.78c.16-.25.35-.49.52-.73s.14-.15-.21.26a1.71,1.71,0,0,1,.23.13,11.15,11.15,0,0,0,.87.8,20,20,0,0,1,2,2.88c1.19,1.93,2.2,4,3.34,5.92.77,1.31,3.69.15,3.53-1.28l-1.46-13.69c-.06-.51-.78-.73-1.18-.77l-15.92-1.68-21.1-2.23c-.49,0-1-.14-1.48-.16a4.25,4.25,0,0,0-2.58,1l-6.89,4.45L206.52,108.6l-2.81,1.81c-.62.41-1.18.69-1.44,1.45-.52,1.49-.81,3.12-1.2,4.66l-5.86,22.7L192.69,149c-.27,1.05-.95,2.48-.78,3.58a37.36,37.36,0,0,0,1.18,4.26l2.52,9.16,6.57,23.84,4.54,16.48.23.84c.44,1.6,4.12.61,3.69-1l-4-14.46L199.29,165,196.55,155l-.76-2.75a5.54,5.54,0,0,0-.18-.67c-.14-.32-.05.25,0,.14a55,55,0,0,0,1.64-6.33l3.27-12.67,3.39-13.13c.66-2.56,1.45-5.12,2-7.71a2.79,2.79,0,0,1,.1-.39l-.66.93,27-17.45,3.88-2.51-1.86.5,33.78,3.57,4.72.5-1.18-.77L273.13,110l3.53-1.28c-1.11-1.91-2.1-3.9-3.25-5.79s-2.32-3.83-4.31-4.67a4.52,4.52,0,0,0-4.49.48,5.7,5.7,0,0,0-1.35,1.54,5.55,5.55,0,0,1-1,1.46c-1.39,1-3.34-.73-3.68-2-.44-1.67-3.35-.52-3.7.66-1.08,3.67-6.09,1-8.1-.06-1-.52-4.22.25-3.12,1.81a1.5,1.5,0,0,1-.34,2c-.74.61-2,.12-2.86-.1-2.19-.59-4.37-1.2-6.63-.57a6,6,0,0,0-2.69,1.49,6.56,6.56,0,0,0-.87,1.15c-.12.19-.26.41-.37.61-.18.35-.5.35-.06.24-1,.26-2.76-.48-3.89-.67a5.1,5.1,0,0,0-4.61,1.18,3.32,3.32,0,0,0-.86,2.24c0,.49.11,1,.08,1.47a3.72,3.72,0,0,1-.13.68c.14-.61.5,0,.05-.21a7.78,7.78,0,0,0-2.52-.29,5,5,0,0,0-2.37.51,6.42,6.42,0,0,0-2.81,3.16c-1.29,2.82-2.07,6.88-1,9.89l2.91-1.68c-3.21-1.06-6.41,1.6-6.83,4.77-.25,1.88.39,3.82-.09,5.69-.4,1.57-1.65,2.82-1.92,4.45s.73,2.72,2.13,3.41,1.65,1.42,1.4,2.9a21,21,0,0,0-.67,4,5.16,5.16,0,0,0,1.88,3.71c1,1,1.92,1.95,1.59,3.49a16.24,16.24,0,0,1-1.85,3.85,7.89,7.89,0,0,0-1.08,4.36,19,19,0,0,0,1.43,4.52,4.53,4.53,0,0,1-.37,4.38c-.86,1.32-1.77,2.52-1.89,4.15-.23,2.87,2.09,6.46.38,9.1-1,1.51-2.21,2.56-2.69,4.38a12.31,12.31,0,0,0-.09,4.53c.34,2.7,1.64,6.48-.41,8.79a1,1,0,0,0,.45,1.67,2.65,2.65,0,0,0,2.6-.7Z"/><path class="cls-26" d="M207.46,229.08l3.27.24a1.62,1.62,0,0,0,1-.14c.7-.47.26-1.54,0-2.35-.57-1.88.42-3.84,1.19-5.65s1.26-4.12-.08-5.57c-.7-.76-1.88-1.24-2-2.27-.2-1.34,1.45-2.09,2.32-3.13a3.3,3.3,0,0,0-1.66-5.05s2.28-2.67,1.26-7.78S210,186.84,210,186.84l-7.8-4Z"/><path class="cls-11" d="M206.29,229.9c1.88.14,4,.58,5.79-.08s2.07-1.51,1.6-3.17c-1-3.55,2.41-6.36,1.79-9.9-.29-1.63-1.53-2-2.45-3.15-1.17-1.46.87-2.43,1.69-3.36A3.64,3.64,0,0,0,213,204.4l.18.67a9.09,9.09,0,0,0,1.67-6.09,32.63,32.63,0,0,0-1.34-6.83c-.42-1.65-.88-3.29-1.36-4.92-.17-.55-.19-.89-.66-1.19-.79-.5-1.7-.88-2.53-1.31l-5-2.58c-.69-.36-3.7,0-3.57,1.14l1.77,15.58,2.82,25,.65,5.72c.1.86,3.81.11,3.68-1L207.54,213l-2.83-25-.65-5.71-3.56,1.14,4.66,2.42,2.65,1.37a1.92,1.92,0,0,1,.47.25c-.26-.24,0,.32.11.54a70.85,70.85,0,0,1,2.66,10.72c.28,2.07,0,4.95-1.25,6.5-.24.28-.2.56.18.68a2.91,2.91,0,0,1,1,4.83c-.71.67-1.71,1.29-2,2.3a2.32,2.32,0,0,0,1.13,2.37,3.66,3.66,0,0,1,1.69,2.81,7.8,7.8,0,0,1-.81,3.44,13.33,13.33,0,0,0-1.27,3.92,5,5,0,0,0,.19,1.88c.15.51.56,1.35.1,1.78l1-.6c1-.12,1.13-.18.38-.2l-.93-.07-1.87-.14a4.08,4.08,0,0,0-2.61.7C205.5,229.37,205.52,229.84,206.29,229.9Z"/><path class="cls-29" d="M330.65,102.26c-.41,1.08,1.07,1.89,2.22,2s2.67.27,2.9,1.4c.14.7-.34,1.41-.2,2.12.43,2.14,4.52.18,5.72,2,.91,1.37-.78,3.67.51,4.68.61.48,1.49.26,2.27.29a3.32,3.32,0,0,1,3,2.34c.28,1,.12,2.08.69,2.91.7,1,2.1,1.09,3.22,1.56,2.95,1.24,3.74,5,3.9,8.19s.31,6.84,2.81,8.84c2.18-2-.29-3.89-2.16-6.19a16.49,16.49,0,0,1-1.73-2,2,2,0,0,1,.14-2.47c.33-.28.82-.42,1-.82.53-1.13-1.6-1.34-2.62-2.07-1.28-.91-.6-2.93.32-4.22s2-3,1.12-4.28c-.76-1.16-2.6-1.18-3.38-2.33-.88-1.3.13-3.1-.28-4.62-.55-2-3.13-2.52-5.22-2.64a3.27,3.27,0,0,0-1.58-4.93c-.8-.22-1.75-.18-2.29-.8-.8-.93-.05-2.66-1-3.43s-2.12,0-3-.56c-1.36-.91.18-3.22-.61-4.66-1-1.91-5.28-1-5.14-3.18"/><path class="cls-11" d="M328.82,102.49c-.49,1.93,1.89,2.62,3.34,2.79.65.07,1.58.08,1.77.85s-.53,1.71,0,2.63c.74,1.27,2.62,1.14,3.88,1.16a2.36,2.36,0,0,1,1.55.3c.6.55.3,1.56.19,2.25-.3,1.9.33,3.19,2.43,3.31,1,.06,1.69-.13,2.47.6s.81,1.83,1,2.88c.39,2.26,2.25,2.41,4,3.17s2.63,2.63,3.07,4.41c1,4.14-.24,9.34,3.39,12.45.8.68,2.5.27,3.18-.42,1.11-1.13,1.58-2.32.8-3.78a20.45,20.45,0,0,0-3.1-3.85,5.39,5.39,0,0,1-1.49-2c-.28-1.11.17-1,.86-1.62,1.08-1,.62-2-.54-2.62s-2.51-.81-2.12-2.51,1.85-2.78,2.26-4.44-.5-2.72-1.87-3.41a6.72,6.72,0,0,1-1.58-.86,2.76,2.76,0,0,1-.43-2.44c.2-1.7,0-3.18-1.47-4.2a9.7,9.7,0,0,0-4.87-1.27l1,1.07a3.89,3.89,0,0,0-1.57-5.76c-.6-.26-1.45-.18-2-.5s-.57-1.12-.62-1.77A2.36,2.36,0,0,0,340,96.43c-.62-.05-1.34.21-1.63-.46a3.8,3.8,0,0,1,.08-1.77,3.1,3.1,0,0,0-.81-3,6.81,6.81,0,0,0-2.85-1.13c-.78-.19-1.66-.27-1.66-1.24,0-1.13-3.68-.44-3.68,1,0,2,2.73,2,4.08,2.51,2.62.92,0,3.91,1.7,5.46a2.83,2.83,0,0,0,1.72.64c.68.07,1.39-.22,1.68.51.46,1.18-.15,2.37,1.06,3.24,1,.75,2.46.38,3.3,1.43a2.74,2.74,0,0,1,.19,3.23c-.51.73.45,1,1,1.08,1.49.1,3.61.39,4.09,2.09s-.77,3.56.59,5.08c1,1.11,3.48,1.15,3.36,3s-2,3.16-2.37,5,.52,2.65,2,3.28c.42.18,1.29.38,1.22.77,0,.17-.68.51-.84.7a2.41,2.41,0,0,0-.59,1.1c-.39,1.87,1.38,3.21,2.45,4.47.94,1.09,3.64,3.3,2.12,4.84l3.19-.42c-3.16-2.7-2.31-7.31-2.93-11a9.47,9.47,0,0,0-2-4.75,5.75,5.75,0,0,0-2-1.47,9.93,9.93,0,0,1-2.64-1c-.82-.69-.62-1.92-.85-2.86a3.88,3.88,0,0,0-1.57-2.23,4.71,4.71,0,0,0-2.56-.84c-.82,0-1.62.25-1.66-.84-.05-1.47.88-3.06-.51-4.21-1.18-1-2.87-.73-4.28-.81-.7,0-1-.22-.91-1,.09-1,.45-1.78-.34-2.58a4.49,4.49,0,0,0-2.69-1c-.7-.07-2.16-.21-1.91-1.24.34-1.34-3.36-.79-3.67.46Z"/><path class="cls-30" d="M240.43,197.31l2.57,7.18c1.51,5.58,7.28,16.42,9.28,19.42,2.83,4.2,33.21,5.49,39.11,2s9-20.5,10.49-24.46L314,202c1.16,5.09,5.21,21.18,7.55,23.33s16.26,1.61,17.83,1.55c1.31-.07,3.12-.16,5.11-.34,5.25-.44,11.62-1.38,13.56-3.3,2.87-2.87,5.89-13.71,8.48-24l.42-1.61c.09-.38.21-.65.21-.77h0l.47-1.84c-17.61-8-40.53-6.37-54.31,3.81l.12.18-11.86-.57c-13.51-8.56-36.71-13-53.15-6.57h0l-46,13.34-.08,4.46ZM323,223.66c-1.46-1.35-4.65-12.62-6.83-21.39,12-8.61,32.63-10,48.36-3.77v.22c-1.38,5.5-5.07,20.12-7.9,22.94-3.34,3.32-31.07,4.1-33.62,2Zm-67.12-1c-5-6.45-9.12-16.78-11.81-25.57,14.61-6.72,41.67-3.26,54.87,4.86-2,7.13-4.42,19.58-8.66,22.06-6.09,3.58-32.64,1.31-34.4-1.35Z"/><path class="cls-31" d="M323.28,223.42c-1.46-1.34-4.65-12.61-6.83-21.39,12-8.6,32.63-10,48.36-3.77v.23c-1.39,5.5-5.08,20.12-7.9,22.93-3.35,3.32-31.07,4.11-33.63,2.05Z"/><path class="cls-31" d="M255.87,222.66c-5.29-7-9.12-16.78-11.81-25.57,14.61-6.72,41.67-3.26,54.87,4.86-2,7.13-4.42,19.58-8.66,22.06-6.09,3.58-32.64,1.31-34.4-1.35Z"/><path class="cls-10" d="M300,167.16s12.06,8.64-.37,14.52C299.62,181.68,305.44,176.14,300,167.16Z"/><path class="cls-10" d="M315,181.83c-11.82-7,1-14.49,1-14.49s-3.27,6.12-2.67,8.69S315,181.83,315,181.83Z"/><path class="cls-32" d="M309.73,259.69c-9.1,0-29.19,5.25-33.23,8.58,0,0,10.4,6.78,31.5,6.77s24.6-6.8,24.6-6.8S321.32,259.69,309.73,259.69Z"/><path class="cls-33" d="M285.08,264.58s10.83-.83,19.47-.83,19.46.81,19.46.81,1.38-6.08-14.28-6.08S285.08,264.58,285.08,264.58Z"/><path class="cls-34" d="M308,272.35c-9.88-1.32-20-4.76-31.51-4.08,0,0,3.25,12.45,28.05,12.44s28.05-12.47,28.05-12.47C321.07,267.57,317.89,271,308,272.35Z"/><path class="cls-34" d="M320.51,255.05c-5.21-.36-8.51,1.5-10.78,1.5s-5.57-1.86-10.78-1.49c-4.88.34-25.53,11.6-23.22,13.06s18.31-6.81,34-6.82,21.32,8.25,23.63,6.79S325.39,255.38,320.51,255.05Z"/><path class="cls-11" d="M272.72,258.61c-1.49,1.3-3.08,2.81-3.23,4.77a8.05,8.05,0,0,0,.24,2.13l.68,3.25a1.28,1.28,0,0,0,.25.61,1.24,1.24,0,0,0,.64.31,5.38,5.38,0,0,0,2.28.24,1.79,1.79,0,0,0,1.52-1.5,2.67,2.67,0,0,1,.06-.94c.25-.56,1-.49,1.64-.64,1.49-.38,1.81-2.3,2.47-3.7a7.93,7.93,0,0,1,4.79-3.78,14.7,14.7,0,0,0,3-1.1,3,3,0,0,0,1.64-2.53"/><path class="cls-11" d="M338.89,258.2c1.46,1.32,3,2.85,3.16,4.82a7.67,7.67,0,0,1-.28,2.12l-.73,3.24a1.19,1.19,0,0,1-.25.61,1.21,1.21,0,0,1-.65.29,5,5,0,0,1-2.27.21,1.78,1.78,0,0,1-1.51-1.52,2.47,2.47,0,0,0,0-.94c-.24-.56-1-.5-1.63-.66-1.49-.41-1.78-2.33-2.42-3.73a7.86,7.86,0,0,0-4.74-3.85,15.88,15.88,0,0,1-2.94-1.15,3,3,0,0,1-1.61-2.55"/><path class="cls-11" d="M275.64,255.83c.37-.5.84-1,1.31-1.09a12.64,12.64,0,0,0,2.65-.38,4,4,0,0,0,1.85-1.12,8.88,8.88,0,0,0,.52-.83s.78-.94.78-1c-1.05.05-1.26.15-.62.3l.4.18c.29.13.57.29.86.42a4.4,4.4,0,0,0,2.24.33,7.59,7.59,0,0,0,4-1.73c1-.78-.52.78-.95,0a7.43,7.43,0,0,0,1,.65,3.34,3.34,0,0,0,1.94.37,6.71,6.71,0,0,0,4.49-2.31c.11-.11.79-.8.78-.81l-.72.36c.28.09.55.19.83.3a5.52,5.52,0,0,0,2,.34,4.83,4.83,0,0,0,4-1.84c.38-.61-1.31-.48-1.5-.45a3.11,3.11,0,0,0-2.14,1.06c1.38-.18,1.72-.34,1-.47l-.62-.22a6.27,6.27,0,0,0-1.19-.36,5.76,5.76,0,0,0-2.7.19,6.9,6.9,0,0,0-3.63,2.63q-1,.71.87-.09c-.15-.1-.3-.2-.44-.31a4.46,4.46,0,0,0-.82-.47,4,4,0,0,0-2.12-.1,7.19,7.19,0,0,0-2.13.78,5.91,5.91,0,0,0-1.62,1.09c-.41.24-.07.17,1-.22a2.54,2.54,0,0,1-.52-.2c-.35-.15-.69-.35-1.05-.51a4.53,4.53,0,0,0-2.06-.35,5.81,5.81,0,0,0-5,2.85,3.72,3.72,0,0,0-.27.48c1.09-.17,1.28-.24.55-.22a8.17,8.17,0,0,0-2.35.32,7.41,7.41,0,0,0-4.07,2.59c-.47.64.42.72.9.71a3.72,3.72,0,0,0,2.46-.91Z"/><path class="cls-11" d="M316.69,250.69c-.74.3-.5-.06-.17.2a3.63,3.63,0,0,0,.51.28c.47.26.91.54,1.39.78a5.64,5.64,0,0,0,1.7.55c.57.09,1.34-.16,1.87,0,.28.08.53.57.84.84a3,3,0,0,0,1.71.68,4.89,4.89,0,0,0,2.2-.37,5.53,5.53,0,0,0,1.67-.82c.33-.34-.54-.31-.5,0a4.52,4.52,0,0,0,.42.62,5.13,5.13,0,0,0,.73,1.06,4.26,4.26,0,0,0,3.58.93,2.93,2.93,0,0,1,1.13-.12c.44.17.38.81.57,1.2a2,2,0,0,0,1.13,1,4.48,4.48,0,0,0,.88.2l.24,0c.41.08.33,0-.23-.24.34,1.59,4,.65,3.68-1a1.51,1.51,0,0,0-1.15-1.12c-.23-.07-.66,0-.86-.17-.36-.23.12.42-.2-.28s-.31-1.09-.87-1.51a3.68,3.68,0,0,0-1.71-.64,8,8,0,0,0-1.9,0c-.71.09-.89.18-1.3-.43-.7-1-1.18-2-2.56-2.15a4.71,4.71,0,0,0-2.52.5c-.31.14-.59.32-.9.48s-.4.21-.61.3l.47,0c.19-.29-1.41-1.28-1.58-1.34A5.34,5.34,0,0,0,322,250c-1,.06-1.87-.76-2.75-1.19a4.86,4.86,0,0,0-4.18-.12c-.66.28-1.4,1.07-.9,1.79s1.81.49,2.49.21Z"/><path class="cls-11" d="M305.14,251.12l-1,5.09a1.86,1.86,0,0,1-1.59,1.47c-5.43.68-26.11,3.23-31,3.09-.12,0,.41,2.05.29,2l-1.15-.1c-1.83-.38-.42-6.53,1.34-7.19a104.12,104.12,0,0,1,13.07-4c3.69-.81,13.9-2.72,18.34-2.61A1.86,1.86,0,0,1,305.14,251.12Z"/><path class="cls-11" d="M311.54,251.76l.1,4.72a1.87,1.87,0,0,0,1.47,1.52c5,.85,21.57,3.66,26.13,3.68a1.73,1.73,0,0,0,.32,0l1.46-.28c1.7-.33.79-4.15-.84-4.86a80.51,80.51,0,0,0-10.82-4.16c-3.43-.92-12-2.76-16.16-2.79A1.78,1.78,0,0,0,311.54,251.76Z"/><path class="cls-21" d="M537.39,792.93s10.94-41.54-42.58-53.53c0,0,55.37,3.38,47.4,53.53Z"/><path class="cls-18" d="M392.33,690.41s21.82,25.17,21.35,31.08a3.15,3.15,0,0,1-3.32,3.11,30.2,30.2,0,0,0-15.21,5.62,25,25,0,0,1-5.77,3.21c-5.49,1.84-37.09-.12-37.09-.12Z"/><path class="cls-14" d="M266.78,497.48a.6.6,0,0,1,.23,0c.05.28.19.58,0,.85Z"/><path class="cls-14" d="M284.93,579.77a.64.64,0,0,1-.2.11l-.12-.55Z"/><path class="cls-15" d="M333.87,483h-.31l.28-.18A.17.17,0,0,1,333.87,483Z"/><path class="cls-15" d="M290.79,492.28l.27-.22.1.15Z"/><path class="cls-15" d="M332.94,483.13l-.4.08A.27.27,0,0,1,332.94,483.13Z"/><path class="cls-15" d="M267.73,497.31a.22.22,0,0,1,.34-.08Z"/><path class="cls-17" d="M855.05,744.29s26.16-.29,71.26,3.62,64,4.4,64,4.4-123.64-11.26-135.28-8Z"/><path class="cls-4" d="M961.65,714.53s-8.94,7.89-11.6,16-2.31,11.7-2.31,11.7a69.21,69.21,0,0,1,12.43,2.21c6.49,1.81,18.8,3.63,25.3,4.18s95.78,4.65,121.58,14.39,91.56,20.31,95.17,44.29,3.48,21.93-4,45.09c0,0,29-12.83,21.67-74.64s-122.7-71.51-122.7-71.51l-132.64,9.72Z"/><path class="cls-17" d="M959.31,903.1s-4.84-26.08-18.13-40.9c0,0,20,18.27,23.43,41.5Z"/><path class="cls-4" d="M1184.14,520.14l11.24,138.64L1162.6,844l64.48,13.53,42.68-163.9a78.8,78.8,0,0,0,2.64-18.38c1-39.55-4.37-180.24-6.76-206.71-4.44-49.6-30.39-68-30.39-68Z"/><path class="cls-5" d="M1173.69,464.05a53,53,0,0,1,.74-9.91,62.65,62.65,0,0,1,40-48.68,54.62,54.62,0,0,1,9.55-2.68,12.73,12.73,0,0,1,3.53-.36c.07.36-5.08,1.13-12.69,4.34a65.3,65.3,0,0,0-39,47.63c-1.73,8.11-1.34,13.29-1.73,13.29A13.08,13.08,0,0,1,1173.69,464.05Z"/><path class="cls-5" d="M1174.83,477c.35,29.72,19.55,143.16,20.1,189.21l-5,34.93c-7.06,50.37-22.6,108.27-27.54,143l.49.1.31.08.19,0c.15-.83.19-1.17.34-2,5-34.47,20.55-91.58,27.76-141,1.72-12,3.52-23.69,5-34.94-.79-46.12-20.24-159.59-20.73-189.34Z"/><path class="cls-6" d="M1147.06,939.53a2.76,2.76,0,0,0,1.35-.71s-.61,9.47,12.28,1.93c0,0,11.57,2.68,17.27-3.77,0,0,14.28-2,19.34-6.12s16.4-47.18,16.4-47.18l1-28.77-41.23-9.13-.74,2.8s-15.34,8-20.82,13.6a73.82,73.82,0,0,0-10.41,15.6l-6,18.22c8.61,5.44,19.87-13.92,21-13.59a8.48,8.48,0,0,1,5.87,10.45c-2.06,8.93-4.39,19.15-4.48,20.69s-9,10-15.66,16.12C1138.23,933.31,1141.55,940.72,1147.06,939.53Z"/><path class="cls-10" d="M1174,905.37a46.17,46.17,0,0,1-5.93,17.11,40.76,40.76,0,0,1-13.54,11.7,35.43,35.43,0,0,0-6.44,4.09,24.58,24.58,0,0,0,7.15-2.84,36.18,36.18,0,0,0,14.54-11.79,40.85,40.85,0,0,0,5.61-17.95,26.36,26.36,0,0,0,.19-7.83A34.85,34.85,0,0,0,1174,905.37Z"/><path class="cls-10" d="M1184.25,909.91a72.6,72.6,0,0,1-1.87,7.28,23.43,23.43,0,0,1-4,8.06,46.76,46.76,0,0,1-6.7,6c-2.26,1.74-4.25,3.35-5.9,4.73a24.1,24.1,0,0,0-5.12,4.81,24,24,0,0,0,6-3.65l6.16-4.38a41.32,41.32,0,0,0,7.12-6.22,23.56,23.56,0,0,0,4.06-8.76,51,51,0,0,0,1.48-7.64,14.59,14.59,0,0,0-.22-7.19A55.56,55.56,0,0,1,1184.25,909.91Z"/><path class="cls-10" d="M1194.24,914.68c-1.1,3-2.61,7-4.09,11.63a6,6,0,0,1-1.68,2.45,27.47,27.47,0,0,1-2.29,2.16,49.05,49.05,0,0,1-4.22,3.23c-2.51,1.74-4.22,2.54-4.16,2.8s2.06-.1,4.9-1.58a28.89,28.89,0,0,0,4.67-3.06,26.36,26.36,0,0,0,2.52-2.19,7.72,7.72,0,0,0,2.19-3.23c3-9,5-16.75,4.19-16.95A23.35,23.35,0,0,0,1194.24,914.68Z"/><path class="cls-10" d="M1040.53,220.86s12.63,9-.33,15.16C1040.2,236,1046.25,230.23,1040.53,220.86Z"/><path class="cls-10" d="M1056.37,234.6c-12.37-7.3,1-15.14,1-15.14s-3.39,6.4-2.76,9.08S1056.37,234.6,1056.37,234.6Z"/><path class="cls-32" d="M1051.2,303.05c8.58-.27,27.66,4.07,31.57,7.08,0,0-9.6,6.7-29.48,7.32s-23.38-5.67-23.38-5.67S1040.28,303.39,1051.2,303.05Z"/><path class="cls-33" d="M1074.41,306.15s-10.25,0-18.37.57-18.23,2.11-18.23,2.11-1.73-5.63,13-6.7S1074.41,306.15,1074.41,306.15Z"/><path class="cls-34" d="M1053.38,315c9.2-1.92,18.46-5.86,29.34-6,0,0-2.19,11.93-25.51,13.64s-27.23-9.79-27.23-9.79C1040.77,311.46,1044,314.48,1053.38,315Z"/><path class="cls-34" d="M1040.43,299.64c4.87-.7,8.11.83,10.24.67s5.11-2.13,10-2.15c4.61,0,24.8,9.14,22.73,10.67s-17.69-5.13-32.44-4.06-19.47,9.24-21.74,8S1035.87,300.3,1040.43,299.64Z"/><path class="cls-18" d="M51.62,648.14c5.89-8.59,15.6-1.89,22.06-10,7-8.8,21.15-7.65,29.59-14.78,6.64-5.61,18.76,10.7,26.18,6.4l-7.71-99.31L134,494.72s-.71-39-14.26-71.48-28.6-73.82-28.6-73.82-32.92,9.22-45.68,67.4c-6.06,27.66-16.66,104.3-16.66,104.3S16.31,612.39,18.86,630c2,13.64,5.68,40.26,23.22,53.79"/><path class="cls-18" d="M247.34,740.24,194,708l-53.34-45c-9-2.83-6.75,4.17-16.07,3.09-10.21-1.18,23.59-44.47,13.35-43.85-9.83.6-33.34-1.57-43.09-.16-10.06,1.45-29.95,8.8-39.63,11.94-1.23.4-21.48,12.16-22.7,12.6,1.19,5.75,2.18,28.44,6.63,34.22,21.26,27.63,137.64,95.17,137.64,95.17l30.12,15.18Z"/><path class="cls-6" d="M337,811.28c3.85-1.5,7.43-3.55,8.43-7.88.39-1.69-1-2.32-1.37-4.32l-27.8-33.27c7.5-3,21.9,11,28.69,6.57s-1.31-8.41-2.68-9.81S314,744.46,314,744.46s-27.58-6.14-34.32-6-25.56,3.35-25.56,3.35l-8.37.87s-22.8,28.19-30.11,38.58c-.69,1,13.93,6.09,20.86,13.87s25.48,18.24,25.48,18.24,34.1,11.47,39,10.82S313,817,313,817a36.66,36.66,0,0,1,9.2,1.17c8.26,1.48,14-7.36,14-7.36l-.06,0Z"/><path class="cls-7" d="M319.75,770a114.74,114.74,0,0,1-12.37-10.18,62.8,62.8,0,0,1-11.78-11,68.21,68.21,0,0,1,13.09,9.43A45.48,45.48,0,0,1,319.75,770Z"/><path class="cls-7" d="M296.36,782.21c.3-.56,9.55,4.91,19.66,13.15,5.09,4.07,9.62,7.9,12.91,10.62a31.28,31.28,0,0,1,5.22,4.6,19.84,19.84,0,0,1-6.08-3.5c-3.54-2.42-8.2-6.05-13.3-10.13C304.66,788.71,296.11,782.62,296.36,782.21Z"/><path class="cls-7" d="M283,795.17c.41-.4,6.36,5.32,14.56,11.27s15.48,9.89,15.39,10.3a49.28,49.28,0,0,1-16.42-8.82A49.79,49.79,0,0,1,283,795.17Z"/><path class="cls-19" d="M127.65,562.15c.85-8.14,2.87-42.85,3.52-49,.68-7.1,1.25-12.53,1.63-16.71a41.72,41.72,0,0,0,.38-4.18c0-.51.88-22.39.81-22.9-.11.48-1.05,22.34-1.06,22.83-.13,1-.33,2.39-.59,4.18-.5,4.19-1.2,9.66-2.09,16.73-.61,5.37-3.28,37.81-4.06,44.74C126.44,558.88,127.4,561.15,127.65,562.15Z"/><path class="cls-19" d="M238.39,753.36c3.48-4.33,6.94-8.64,10.13-12.68l.86-.71-.91-.65-46-33.62-52.33-53a3.87,3.87,0,0,0-.27.75l-.31.89,51.52,52.91,45,33c-3,3.8-6.22,7.79-9.46,11.82L207,790c-34.23-18-75.67-43.32-110.82-63.7-.42.35-.16,1.09-.58,1.43,36.48,21.62,76.41,46.33,111.06,64.61l.78.43.68-.55C217.85,780,227.77,766.62,238.39,753.36Z"/><path class="cls-19" d="M78.11,630.52A47.08,47.08,0,0,1,99,624.06,47,47,0,0,1,121,625.68c-.1.64-9.84-.87-21.68.54S78.33,631.12,78.11,630.52Z"/><polygon class="cls-19" points="151.54 654.09 121.74 625.6 128.29 554.38 126.36 552.69 119.44 626.25 151.54 656.34 151.54 654.09"/></g></g></svg>