<svg xmlns="http://www.w3.org/2000/svg" xmlns:xlink="http://www.w3.org/1999/xlink" viewBox="0 0 1303.15 1057.31"><defs><style>.cls-1,.cls-26{fill:none;}.cls-2{clip-path:url(#clip-path);}.cls-3{fill:#f2ebd1;}.cls-4{fill:#956243;}.cls-5{fill:#82a8b3;}.cls-6{fill:#684136;}.cls-7{fill:#557c81;stroke:#557c81;}.cls-25,.cls-26,.cls-7{stroke-miterlimit:10;}.cls-25,.cls-7{stroke-width:1.38px;}.cls-8{fill:#a56530;}.cls-9{fill:#1c3b53;}.cls-10{fill:#8c542a;}.cls-11{fill:#513835;}.cls-12{fill:#0f2530;}.cls-13{fill:#825639;}.cls-14{fill:#151210;}.cls-15{fill:#231f20;}.cls-16{fill:#010101;}.cls-17{fill:#161312;}.cls-18{fill:#171514;}.cls-19{fill:#181615;}.cls-20{fill:#191716;}.cls-21{fill:#040404;}.cls-22,.cls-31{fill:#fff;}.cls-22{opacity:0.14;}.cls-23{fill:#745245;}.cls-24{fill:#df8c26;}.cls-25{fill:#b26b29;stroke:#b26b29;}.cls-26{stroke:#010101;stroke-width:1.42px;}.cls-27{fill:#273339;}.cls-28{fill:#465b65;}.cls-29{fill:#714533;}.cls-30{fill:#31160e;}.cls-32{fill:#653c29;}.cls-33{fill:#f1eef7;}</style><clipPath id="clip-path"><rect class="cls-1" y="6.37" width="1303.15" height="1048.99"/></clipPath></defs><g id="Layer_1" data-name="Layer 1"><g class="cls-2"><polyline class="cls-3" points="-244.97 1424.8 -244.97 -30.02 1548.12 -30.02 1548.12 1424.8"/><path class="cls-4" d="M246.23,239.13s8,35.48-10.52,71.14c-1.78,3.43-20.62,10.79-20.62,10.79l29.85,10.49c20.48,5.22,66.55,6.3,86.62.6l16.89-8.94s-20.88-5.1-21.78-9.57,3.7-37.77,3.7-37.77"/><path class="cls-4" d="M331.54,317.58,233,315.08l-14.62,31.3s25.9,23.26,28.61,24.4,65.35,15.61,65.35,15.61,71.17-22.25,70.21-22.09S331.54,317.58,331.54,317.58Z"/><path class="cls-5" d="M449.2,430.27l-19.72-67.74a187.22,187.22,0,0,0-36.88-16.46c-12.61-4.05-31.91-7.93-39.4-10.29,1.93,10-.55,19-7.4,24.41A56.89,56.89,0,0,1,312,372.34c-11.73.31-23.55-2.35-34.56-6.23-20.6-7.26-44.42-30.84-49.22-53.28l-8.08,3.31S134.93,349.88,124.91,354s20.84,261.22,20.84,261.22L123,725.41c-2.3,10.64-58.9,81.29-23.3,165.17,0,0,222.74-68.39,246.08-68.73,27.11-.39,70.35-.6,77.22-13.53S449.2,430.27,449.2,430.27Z"/><path class="cls-4" d="M717,596.57s21.59-20.73,35-24.26c3.76-1,33.18-21.82,33.18-21.82s8.05,5.37-2.14,15.76-14.62,14.41-14.62,14.41L767,584.78l23.3,7.55s27.86,4.21,34.47,5.83,20.95,4.46,21.59,13.19c0,0,10.74,1.33,10.66,6.5a7.73,7.73,0,0,1-2.59,6.7l-5.23.68s2.66,1.62.2,6.27-48.89,2.72-48.89,2.72l-2.52,1.54s30.78,6.35,31.18,9.25,1.15,5.27-3.89,6.13-90.37-4.89-100-7.53-11.86-2.94-11.86-2.94l-4.07-44.06Z"/><path class="cls-6" d="M825.79,623.52a148.66,148.66,0,0,1-23.95-1.18,149.47,149.47,0,0,1-23.74-3.08A146,146,0,0,1,802,620.41,147.32,147.32,0,0,1,825.79,623.52Z"/><path class="cls-6" d="M824.7,612.32c-.12.52-10.41-1.27-23.21-2.63s-23.24-1.9-23.23-2.46a93.28,93.28,0,0,1,23.43.5A90.36,90.36,0,0,1,824.7,612.32Z"/><path class="cls-5" d="M474.5,632.1c19.2,24,55.12-31.49,76-54.06-7.14-7.18-11.18-20.1-15.44-29-8.64-18.12-16.9-36.42-25.1-54.75-10.28-23-19.77-46.34-31.06-68.86a353.61,353.61,0,0,0-18.71-33.13c-5.88-9.12-11.62-18-20.56-24.36A134.22,134.22,0,0,0,410,352.42L358.54,453.61s30.26,72.23,55.86,88.57c1,.62,19.46,28,20.61,28.65C435.49,570.18,453.2,605.46,474.5,632.1Z"/><path class="cls-5" d="M710.71,591.5l-43.8-3.16S564.33,572.5,543,565q-4.14,5.65-8.17,11.41c-15.27,21.86-67.9,43.41-67.9,43.41C494.8,681,611.83,665.61,633.25,662.5c23.28-3.38,80.83-8.35,80.83-8.35Z"/><path class="cls-7" d="M440.24,572.92c.45.06.45-7.16.9-7.1.88-13.46,7-92.43,7.61-102.76.59-11.09,1.08-20.09,1.28-26.27a92.26,92.26,0,0,0,.17-9.69,76.11,76.11,0,0,0-1.18,9.62c-.29,6.72-1,15.39-2,26.28-.77,10.34-5.87,97.34-6.86,110.8C440.44,573.71,440,572.89,440.24,572.92Z"/><path class="cls-7" d="M177.36,429a98.46,98.46,0,0,1-3.1-10.66A124,124,0,0,0,149,371.91a98.14,98.14,0,0,1-7.23-8.42,39.72,39.72,0,0,1,8.37,7.37A104.16,104.16,0,0,1,175.76,418,39,39,0,0,1,177.36,429Z"/><path class="cls-6" d="M770.33,594.66s-3.11,23.3-24.49,34.56C745.84,629.22,778.14,616,770.33,594.66Z"/><path class="cls-7" d="M540.27,565.29s-14,11.43-14.86,28.12C525.41,593.41,525.8,568.08,540.27,565.29Z"/><path class="cls-8" d="M257.69,947.78q70.47,0,140.94,0c20.2,0,23.95,9.36,23.92,28.54,0,17.62-4.05,28-24.49,28-4.61,0-9.31.5-13.8-.09-13.52-1.79-16.24,3.11-14.47,13.34,17.3,99.82,34.18,192.82,51.44,292.65,1.18,6.8.11,9.49-9.23,9.6-23.33.28-23.81.74-27-18q-16.53-95.52-32.21-191.14c-1.41-8.67-5-11.29-15.52-11.2q-80.13.65-160.28,0c-10.25-.08-13.23,3-14.51,10.82C151.49,1177.49,140,1244.58,129,1311.72c-1,6.25-4.15,8.12-11.57,8.23-24,.36-24.69.53-21.61-18.3,11.2-68.27,22.84-136.48,34.39-204.71,4.91-29,9.81-51.15,15.16-80.11,1.65-8.93-.28-14-12.83-12.29-2.69.36-5.53-.11-8.28.08-36,2.48-33.09-22.7-31-46,.81-9,10.37-11.17,20.76-11.12,47.9.23,95.8,5.83,143.7,5.83Zm-1.13,128.87c26.68,0,53.36-.2,80,.13,8.17.09,11.82-1.37,10.43-8.91-4.3-23.3-8.2-30.43-11.92-53.8-1.12-7.09-4.11-10.08-13.78-10-42.31.52-84.65.6-126.95,0-10.49-.16-13.4,3.13-14.57,10.63-3.55,22.62-7.34,29-11.54,51.54-1.45,7.81.67,10.82,11,10.6C205,1076.28,230.8,1076.65,256.56,1076.65Z"/><path class="cls-9" d="M636.82,874.65c-13.38,73.46-30.29,234.15-50.57,323.63,0,0-101.25,19.24-111.54-.89,0,0-113.13-410.86-57.78-427.39,40.8-12.19,166.46-9.7,190.77,4.61C636.88,791.78,647.36,816.8,636.82,874.65Z"/><path class="cls-10" d="M130.28,1097q-2.67,15.8-5.35,31.59c11.19,2.15,22.31,4.68,33.41,7.31q2.11-12.75,4.21-25.51c1.27-7.83,4.25-10.89,14.51-10.81q80.13.66,160.27,0c10.52-.09,14.12,2.53,15.52,11.19,1.34,8.26,2.71,16.5,4.06,24.75a304.68,304.68,0,0,0,31.38-13c-6.1-34.49-12.22-69.23-18.39-104.84a19.23,19.23,0,0,1-.06-8.29q-11,.71-21.94,1.11-6.72.25-13.46.4a21.12,21.12,0,0,1,.77,3.26c3.71,23.37,7.62,30.51,11.91,53.8,1.4,7.54-2.25,9-10.42,8.91-26.68-.32-53.36-.12-80-.12-25.76,0-51.53-.37-77.27.19-10.35.22-12.48-2.79-11-10.6,4.2-22.54,8-28.92,11.53-51.54.47-3,1.23-5.32,2.63-7-12.69-.38-25.38-.68-38.07-.83,1.73,2.18,1.79,5.61,1,10C140.09,1045.89,135.19,1068,130.28,1097Z"/><path class="cls-10" d="M92.8,963.38s153,27.53,219,19.19,110.44-15.45,107.76-25.44-49.37-31.43-96.39-33-175.9,10.05-175.9,10.05-43.26,7.12-47.8,13.28S92.8,963.38,92.8,963.38Z"/><path class="cls-11" d="M641.37,816.77a.73.73,0,0,1-.21.06v-.54Z"/><path class="cls-9" d="M511.86,927.78c1-6.08,2.33-12.12,3.89-18.08a253.59,253.59,0,0,1,14.06-39.26,269.93,269.93,0,0,1,20.59-37.6,230.79,230.79,0,0,1,17.48-23.35C441.5,782.15,177.1,795.7,177.1,795.7S87.35,786.55,100.58,900c10.71,91.93,312.2,55.38,409.9,28.16Z"/><path class="cls-9" d="M559.89,835.1a183.79,183.79,0,0,0-34.76,3.11,78.61,78.61,0,0,0,2.92-15.65q-3.33-2.77-7-5.65a232.28,232.28,0,0,0-32.16,16.23,275.56,275.56,0,0,0-34,24.19,238.31,238.31,0,0,0-28.63,28q-3.67,4.3-7.1,8.8l1.08.16c-32.68,47-17.32,138.08-26.91,224.42-7,63.31-17.12,115.61-17.12,115.61,12.21,19,119,9.75,119,9.75C517.66,1127.65,559.89,835.1,559.89,835.1Z"/><path class="cls-12" d="M495.23,1244.08c19.64-115.91,64.66-409,64.66-409H565l-66.15,408.77Z"/><path class="cls-12" d="M397.22,948.77l-3.3.35c4.86-39.59,26.31-58.54,26.31-58.54s-18.45,26.92-19.1,57.77Z"/><path class="cls-9" d="M538.86,835.1s8.7-49.66-34.34-61.87c-58.62-16.63-315,21.91-315,21.91l349.38,40"/><path class="cls-13" d="M241.81,250.8c0,.12,0,.22,0,.33A.48.48,0,0,1,241.81,250.8Z"/><path class="cls-4" d="M317.63,319.43l37.36-.12,18.8-3.6c1.89.1,10.77-18.75,12.14-21.13,4.27-7.4,9.83-17.08,12.57-25.18,2.94-8.67,8.73-16.09,10.42-26.59,1.24-7.7,1.46-13.11-2.26-25.84a17.89,17.89,0,0,1,0-9.84c1.93-7.18,2.83-15.63,5.2-25.26.19-.76,1.21-4.41.93-5.26,0,0,3.12-40.4-3.69-55.12s-17.49-21.74-28-24.85-42-2.29-42-2.29l-43.18-7.74-37.53,17-20.31,44.16.88,52.11,3.93,46.66"/><path class="cls-14" d="M251.4,196.42c.07,4,4.42,24.24,4.74,28.18l-20.78-1.11c-5.8-14-12.79-30.46-15-34.23-3.53-5.89,8.08-34.15,8.21-44.69l0-2.27c.09-10.12,10.29-25.85,27.28-42.08,29.22-27.93,27.84-28.3,71.33-23.75,3,.31,6,.74,8.86,1.26,27.26,5,50.16,5.31,66.87,28.83,12.06,17,3.21-4.14,1.77,7.34,0-22.75,3.72-3.87,1.46-6.62-13.25-16.09-20.59.37-27.3-.85a22.65,22.65,0,0,0-11.19.69c-6.71,1.27-13.1.2-20.09-1.07-5.21-1-18.36-4.38-19.49-4.67-3.45-2.58.07-16.15-6.41-17.33-15-2.74-35.91,3.23-43.31,6.38-8.75,3.72-29.66,11.73-27.56,34.95"/><path class="cls-14" d="M369.91,310.65a1.56,1.56,0,0,1-.7-.29c-3.87-2.77-4.12-4.26-6-4.79a10.27,10.27,0,0,0-2.05-.54c-5.57-1-8.95-1.69-24.3,7.27-.31.19-19.87-3-20.25-3.06l-10-5.16c-1.66-1.11-38.5-34.49-38.5-34.49-.54-1.09-7.13-8.95-7.37-10a3,3,0,0,0-.35-.19l-.24-.11-.06.2a6.71,6.71,0,0,0-.09,1.34,22.36,22.36,0,0,0,.85,5.67c.78,2.84,1.18,5.74,1.85,8.6.24,1,.52,2,.84,3,4.24,2.85,30.54,38.56,46,46.9,1,.31,4.19,1.33,12.74,2.36,16,1.94,31.58,2.48,47.59-1.54a14.24,14.24,0,0,0,9.41-7.66c5.14-10.77,16.47-34.72,19.64-51-4.73,9.31-14.72,29.27-21.6,42.85-.21.41-6.33.53-6.84.66"/><path class="cls-4" d="M247.29,251.93c-17.39,15.77-19.72-12.23-19.72-12.23-11.07-14.65-10.35-29.67-9.44-39.92s12.21-9.56,12.21-9.56c9.54,1.5,13.59,6.85,20.07,39.6"/><path class="cls-14" d="M373.1,97c-15.6-.75-56.22-12.82-77.35-14.82-8.75-.82-38.53,20-42.47,24.78-9,11,10.21,37.66-5.88,73.28-5.32,11.77-11.6-9.32-18.1-1.71s-9,10.69-9,10.69c-3.54-34.68-3.45-33.47,5.23-67.34s46.22-47.5,64.28-49.8S365.34,77.31,380.69,85"/><path class="cls-15" d="M242.89,223.46a83,83,0,0,0-7.11-14.08,25.65,25.65,0,0,0-5.17-6.06,7.19,7.19,0,0,0-2.87-1.56c-1.26-.24-1.85.77-2.39,1.72-2.32,4.1-2.41,9.06-1.53,13.58.1.52,1.72.13,1.61-.43a21.25,21.25,0,0,1,.44-10.94,10.6,10.6,0,0,1,1.88-3.54l-1.07.43c-.27,0-.09,0,0,0s.11,0,.4.13a7.65,7.65,0,0,1,1.92,1.15c3,2.31,5.11,5.68,6.95,8.9a94.23,94.23,0,0,1,5.3,11.11c.22.54,1.81.05,1.62-.43Z"/><path class="cls-15" d="M239,225c-6.66-.59-3.18,8.79-3.87,12.34,0,.18-.13.37-.15.54a2.12,2.12,0,0,1-.17.27c0,.06.35.16.37,0l-.42-.47a5.29,5.29,0,0,1-.52-1.07,29.09,29.09,0,0,1-1.53-6.51,24.92,24.92,0,0,1-.12-7.85c.49-3.1,1.5-7.42,4.79-8.66,1-.39.12-1.29-.72-1-3.11,1.18-4.52,4.55-5.27,7.55a21,21,0,0,0-.69,6.92,45.26,45.26,0,0,0,1.37,8.25c.32,1.18.77,3.13,1.94,3.8a1.86,1.86,0,0,0,2.52-1.05,7.27,7.27,0,0,0,.25-3.53c-.12-1.79-1.6-8.65,1.67-8.35.79.07,1.64-1.09.55-1.19Z"/><path class="cls-14" d="M325.87,195.75c-2.32-1.36-5.17-.44-6.8.86a6,6,0,0,0-2,2.72,6.26,6.26,0,0,0,1.17,5.74,5.79,5.79,0,0,0,6.57,1.51,6.38,6.38,0,0,0,3.53-7.25,5.68,5.68,0,0,0-2.5-3.58"/><path class="cls-14" d="M394.66,199.88c2.45-1.11,5.18.11,6.67,1.58a6,6,0,0,1,1.67,2.92,6.25,6.25,0,0,1-1.77,5.58,5.78,5.78,0,0,1-6.69.8,6.37,6.37,0,0,1-2.75-7.58,5.71,5.71,0,0,1,2.87-3.3"/><path class="cls-14" d="M374.33,207.87s10.12-9.1,17.18-9.37c10.31-.4,12.82,2.05,16.2,6.95,0,0-6.45-5.27-13.71-4.8C387.07,201.11,374.33,207.87,374.33,207.87Z"/><path class="cls-14" d="M341.14,203.6s-13.9-9.84-20.95-10.4c-10.28-.81-22.87,4.61-26.45,9.37,0,0,16.65-8.08,23.88-7.31C324.53,196,341.14,203.6,341.14,203.6Z"/><path class="cls-14" d="M346.44,168.59c-.23,2.44-.47,4.88-.71,7.34-.18,1.86-.46,6.13-.66,8-5.72-2.13-10.79-5-14.53-6-7.4-2-14.93-4.67-22.66-4.2a25.56,25.56,0,0,0-10.22,2.46c-1,.5-3.85,2.84-5.22,2-.56-.33.69-3.25.82-3.55,2.54-5.87,7.92-7.91,14.35-8.76,13.09-1.73,26-.2,38.83,2.69"/><path class="cls-14" d="M414.42,175.19l-4.13-1.47c-11.47-4.16-23.35-5.06-35.49-4.64l-.75,7.34c-.18,1.87-.64,5.22-.82,7.08,5.56-1,10.42-2.4,14-2.72,7.06-.62,14.49-1.36,21.37.55.55.15,3.48,1,4,1.19C415.14,179.37,415.34,175.83,414.42,175.19Z"/><path class="cls-14" d="M341.13,282.77l26.5,0s-6.77,9.92-13.22,9.58C350.37,292.17,345.2,287.53,341.13,282.77Z"/><path class="cls-16" d="M364.25,247.7c-3.1,1.45-7.67.83-10.61-1.25-.65-.47-2.91-.17-2,.48,3.87,2.75,10.46,3.34,14.45,1.46.4-.19.35-.5-.13-.68a2.51,2.51,0,0,0-1.71,0"/><path class="cls-16" d="M350.38,246a18.46,18.46,0,0,0-6.47-2,1.5,1.5,0,0,0-1,.27c-.2.17-.25.4,0,.56a7.13,7.13,0,0,0,3.56,1,1.34,1.34,0,0,0,1.13-.39c.22-.3-.14-.52-.44-.54a5.55,5.55,0,0,1-2.87-.84l-1,.83A16.48,16.48,0,0,1,349,246.7a1.34,1.34,0,0,0,1.2-.07c.25-.13.53-.46.18-.65"/><path class="cls-16" d="M341.37,245.79c-2.65-.21-5.7-1.56-6.9-3.67-1.8-3.18.28-7.86,3.7-9.65.37-.2.19-.49-.17-.59a2.13,2.13,0,0,0-1.43.23c-3,1.56-5.05,5.37-4.77,8.28.26,2.72,2.7,4.74,5.83,5.69a13.52,13.52,0,0,0,2.91.58c.41,0,1.13-.06,1.35-.37s-.15-.48-.52-.5"/><path class="cls-16" d="M369.18,246.58a.35.35,0,0,1,.36-.5,3,3,0,0,0,2.09-.58l.65.92a9.07,9.07,0,0,0-4.23,1.3.75.75,0,0,1-.84-.18c-.16-.16-.33-.51-.06-.67"/><path class="cls-16" d="M367.15,246.87a10,10,0,0,1,4.73-1.43.87.87,0,0,1,.7.36.38.38,0,0,1-.05.55"/><path class="cls-16" d="M374.66,247.24a5.42,5.42,0,0,0,4.77-3.05,8.1,8.1,0,0,0-1.6-8.82.32.32,0,0,1,.16-.56,1,1,0,0,1,.9.35,9,9,0,0,1,2.42,7.54,6.24,6.24,0,0,1-4.26,5.16,6.15,6.15,0,0,1-1.93.32c-.26,0-.73-.16-.84-.48s.14-.47.38-.46"/><path class="cls-14" d="M381.18,103.82a9.76,9.76,0,0,0-4.5-1.72l-1.76-.63c-5.26-.23-10.53-.31-15.78-.24a11.44,11.44,0,0,0-3.87.51l-.36.16c-3.89-.27-7.78-.5-11.68-.63l-1.8.42a10.71,10.71,0,0,0-4.62,1.16c-1.17.78-1.24,2.32.27,2.86s4-.21,5,.73-1.19,2.44-.51,3.64c.43.76,1.82,1,2.72,1.61,1.08.67,1.41,1.71,2.4,2.42a5.44,5.44,0,0,0,4.11.68c1.48.17,3.47-.36,3.91.67a1.79,1.79,0,0,1,0,.86,2.94,2.94,0,0,0,2.15,2.77,4.81,4.81,0,0,0,4.17-.44c1.06-.74,1.47-1.91,2.59-2.59a10,10,0,0,1,1.19-.54,3.54,3.54,0,0,0,1.34.85,4.81,4.81,0,0,0,4.17-.44c1.06-.74,1.47-1.91,2.6-2.58.94-.57,2.36-.79,2.85-1.62.77-1.33-1.47-3.13-.21-4.23s3.47.09,5.08-.42A1.85,1.85,0,0,0,381.18,103.82Z"/><path class="cls-14" d="M339.32,314.66a8.05,8.05,0,0,0,3.75,1.09l1.46.39q6.39-.22,12.75-.83a9.16,9.16,0,0,0,3.09-.66l.28-.16c3.16,0,6.31-.1,9.47-.25l1.43-.45a8.62,8.62,0,0,0,3.64-1.24,1.23,1.23,0,0,0-.39-2.29c-1.31-.34-3.19.43-4.12-.26s.8-2,.17-3c-.39-.59-1.54-.73-2.3-1.12-.91-.47-1.24-1.29-2.09-1.8a4.44,4.44,0,0,0-3.36-.29c-1.2,0-2.78.52-3.2-.28a1.47,1.47,0,0,1-.06-.69,2.38,2.38,0,0,0-1.91-2.1,3.94,3.94,0,0,0-3.34.63c-.8.66-1.06,1.63-1.92,2.25a6.27,6.27,0,0,1-.92.52,2.9,2.9,0,0,0-1.14-.6,3.89,3.89,0,0,0-3.34.62c-.8.67-1.06,1.64-1.93,2.26-.72.52-1.85.79-2.19,1.49-.54,1.12,1.39,2.43.44,3.4s-2.8.15-4.08.67A1.5,1.5,0,0,0,339.32,314.66Z"/><path class="cls-17" d="M222.29,191.46a10,10,0,0,1-4.62-1.08c-1.36-.84-2.28-2.63-1.6-4.07,1.08-2.29,5.32-2.62,5.1-5.14-2-2.5-7-1.62-8.13-4.65-.91-2.44,1.73-4.64,4-5.92-1.55-1.53-1.1-.16-3.2-.74s-3.18-5.68-2-7.47c1.39-2,2.1-.36,1.36-2.7-1.67-.55,2-1.91.79-3.15s-1.87-3.3-.91-4.78c1.15-1.77,1-3.11,1-5.22,0-1.8,3.54-2.06,2.49-3.53-1.91-2.67.78-6.16,3.27-8.31-1.42-1,.34-1.26-.54-2.75a4.14,4.14,0,0,1,.16-4.83,19.09,19.09,0,0,1,2.62-1.77c3.46-2.64,1.5-8.12-.73-11.86a6.26,6.26,0,0,0,6.62-5c.23-1.42,0-2.93.51-4.26s2.5-2.21,3.39-1.08"/><path class="cls-14" d="M223.56,190.67c-1.85-.12-4-.33-5.18-2a2.63,2.63,0,0,1,.42-3.68c1.11-.89,5.14-2.33,4.27-4.4-.42-1-2.22-1.53-3.15-1.83a18.07,18.07,0,0,1-3.52-1.21,2.83,2.83,0,0,1-1.47-3.29c.49-1.67,2.19-2.78,3.6-3.6.24-.14.64-.43.35-.71a2.58,2.58,0,0,0-1.71-.88,5,5,0,0,0-1.16.11,3,3,0,0,1-.66.15c.38.05.54,0,.28-.16-.53-.41-.95-.54-1.33-1.19a7.36,7.36,0,0,1-.79-2.19c-.29-1.38-.42-3.16.7-4.22.33-.3-.18.09,0-.06l.23-.1a2.55,2.55,0,0,0,.84-.57,1.73,1.73,0,0,0-.13-1.66c-.32-.45-.54-.16-.22-.68s.86-.76,1.11-1.28A1,1,0,0,0,216,156a5.75,5.75,0,0,1-1.38-2.83c-.1-1.15.56-1.82,1-2.81a7.26,7.26,0,0,0,.46-2.48c0-.76-.25-1.86.22-2.51a5.86,5.86,0,0,1,1.48-1.06c.43-.32,1-.75,1-1.36a2.64,2.64,0,0,0-.47-1,3.27,3.27,0,0,1-.37-1.43c-.07-2.42,2.05-4.58,3.73-6.06.16-.14.27-.35.07-.51-.77-.6-.2-.92-.18-1.69s-.75-1.79-.89-2.72a3.09,3.09,0,0,1,1.26-3.19,12.39,12.39,0,0,0,2.76-2c2.82-3.28.53-8.31-1.33-11.47l-3.22,1.31a10.31,10.31,0,0,0,8.47-3.34,6.5,6.5,0,0,0,1.46-3.82,13.21,13.21,0,0,1,.25-2.82c.1-.3.52-.8.57-1,.44-.39,0-.32-1.21.22a1.39,1.39,0,0,1,.41.35c.68.71,4.26-.72,3.68-1.32-1-1.08-3-.63-4.2-.2a4.38,4.38,0,0,0-3.14,2.9c-.42,1.71,0,3.5-.81,5.13-.55,1.14-1.58,2.48-2.94,2.37-.39,0-3.63.62-3.22,1.31,1.89,3.22,4.66,9.31.35,11.83-2,1.18-3.54,2.64-3,5.18.21.92,1,1.72.74,2.68-.2.8-.24,1.09.49,1.66l.07-.5a12.25,12.25,0,0,0-3.84,5.14,4.27,4.27,0,0,0-.09,2.62c.18.52.87,1.12.55,1.65s-1.11.73-1.5,1a2.51,2.51,0,0,0-1,1.55c-.14.91.05,1.87-.06,2.79-.13,1.21-.83,2-1.21,3.09a3.91,3.91,0,0,0,.05,2.55,4.88,4.88,0,0,0,.78,1.39c.2.25.57.53.61.86.11.93-1.78,1.42-1.46,2.39.08.22.33.32.44.51s.22.9.28.92,1-.62.2-.23a4.41,4.41,0,0,0-1.21.85,4.65,4.65,0,0,0-1.11,4c.16,1.47.69,3.41,2,4.29a4.32,4.32,0,0,0,2.69.51c.11,0,1.5-.29,1.51-.28a2.16,2.16,0,0,0-1.16.18c0,.14.59.49.69.58l.35-.71c-2.34,1.35-6.46,4.56-3.82,7.53a7.28,7.28,0,0,0,3.57,1.75c1.11.32,3.09.64,3.75,1.7s-1.12,2.06-1.91,2.52a6.76,6.76,0,0,0-3,2.6,3.57,3.57,0,0,0,1.39,4.2c1.53,1.15,3.64,1.27,5.48,1.4a4.8,4.8,0,0,0,2.76-.74c.6-.42.55-.78-.22-.84Z"/><path class="cls-18" d="M230.5,110.12c.46-1.91,2.39-11,2.86-12.93A4.31,4.31,0,0,0,239,93.67c.09-1.29-.3-2.91.77-3.64s2.54.27,3.87.23c3-.1,3.44-4.88,6.23-5.86,1.74-.61,3.72.54,5.49,0,2.68-.81,3.18-4.8,5.77-5.86,1.78-.74,3.87.23,5.75-.25,4.06-1,5.55-7,9.75-7,1.53,0,2.94,1.07,4.47,1,2.74-.19-1.29-3.12,1.44-3.46,2.5-.32,4.45,2.36,6.95,2.68,4.08.51,6.92-6.27,10.7-4.65,1.62.7,2.48,2.58,4.07,3.34C308,72,312,66.66,316,67.68c2,.52,3.41,2.55,5.46,2.85,3.19.47,5.71-3.44,8.92-3.15,2.55.24,4.39,3.1,6.95,3,1.8-.06-2.58-2.13-.8-2.36,3-.38,5.24,3,8.23,3.69,2.5.57,5-.84,7.48-1.42s7.9,4.39,7.94,7"/><path class="cls-14" d="M232.43,109.82c1-4.29,1.83-8.64,2.86-12.93L231.77,98a7.87,7.87,0,0,0,8.38-2.57c.92-1.29.76-2.51.84-4a7.07,7.07,0,0,0,.19-1c.34,1.1-2.1-.06-.94.33.18.06.37.1.56.15a7.59,7.59,0,0,0,2.56.23,6.59,6.59,0,0,0,4-1.85,19.15,19.15,0,0,0,2-2.86c.25-.38.94-.91,1.07-1.31,0,0,.11-.08.13-.11-.2.2-.48,0-.17.15a5.69,5.69,0,0,0,1.58.22,8.54,8.54,0,0,0,5.32-.92A8,8,0,0,0,260,81.62c.36-.54.69-1.1,1.09-1.61a6,6,0,0,1,.57-.66,1.44,1.44,0,0,1,.33-.27c.09,0-.23,0,.14.1,3.41.43,6.62-.11,9.2-2.49,1-.89,1.78-1.92,2.66-2.89a10.89,10.89,0,0,1,1.24-1.21,2.56,2.56,0,0,1,.53-.35s-.34,0,0,0c1.72.34,3.19,1.13,5,.91,1-.13,2.94-.55,3.25-1.75a3.75,3.75,0,0,0-.52-2.1s0-.34,0-.32c-.16-.11-1.39.74-1.39.74s.31.06.37.09c.71.37,1.41.66,2.1,1.08a8.68,8.68,0,0,0,4.1,1.54,8.77,8.77,0,0,0,4.34-1c1.94-1,3.67-2.83,5.33-3.93a.5.5,0,0,1-.13,0c-.25.06-.16-.07-.12,0a8.25,8.25,0,0,0,.83.36,11.65,11.65,0,0,1,1.81,1.7,5.59,5.59,0,0,0,3.65,1.86c3.24.26,5.79-1.66,8.66-2.77,1.21-.46,2.16.08,3.18.79a9,9,0,0,0,4.07,2,9.31,9.31,0,0,0,4.88-1c1.2-.57,2.41-1.77,3.69-2.09,1-.24,2.16.77,2.94,1.28a8.36,8.36,0,0,0,3.89,1.67c1,.07,3.58-.12,3.92-1.36.16-.61-.61-1.09-1-1.43-.17-.15-.41-.5-.61-.59l0,0c-.13-.39-.47-.23-1,.5l-1,.54.2,0c.34.17.79.2,1.15.37,1.38.65,2.53,1.71,3.86,2.44,3.37,1.86,6.95.65,10.36-.48.34-.11.52,0,.14-.09a3.17,3.17,0,0,1,.62.18,7.76,7.76,0,0,1,1.64.92,14,14,0,0,1,2.85,2.65,5.21,5.21,0,0,1,1.36,2.85c.06.93,4,.21,3.91-1-.16-2.63-3.21-5.21-5.3-6.41a6.21,6.21,0,0,0-4.09-.93c-2,.3-4.08,1.72-6.12,1.51-1.78-.18-3.23-1.6-4.69-2.51a7.2,7.2,0,0,0-5.07-1.23c-.89.13-3.32.76-2.5,2.07a4.18,4.18,0,0,0,.88.85c.11.09.33.38.46.42.34.1-.27.32.21-.12l1.07-.66c1.66-.73,1.38,0,.71-.34l-.58-.22a9.86,9.86,0,0,1-1.43-.86,11.2,11.2,0,0,0-3.09-1.64c-2.4-.65-4.95.26-7,1.47a14.79,14.79,0,0,1-2.62,1.5c-.42.14.26.05-.08,0a2.24,2.24,0,0,1-.5-.11,6.78,6.78,0,0,1-1.84-1.06,7.89,7.89,0,0,0-6.84-1.58c-2.21.5-4,1.76-6.12,2.55s-3.41-2-4.91-3c-3.87-2.56-7.8,1.13-10.7,3.35-.26.2-1.09.77-1.13.78-1,.11-2.31-1-3.1-1.48a6.93,6.93,0,0,0-6.73-.63c-1.48.71-1.67,1.87-.87,3.25,0,.06,0,.25.05.3v0c1.59-.42,1.94-.69,1-.82a9.43,9.43,0,0,0-1.84-.6,7.75,7.75,0,0,0-4,0,10.44,10.44,0,0,0-5,3.34c-.65.72-1.26,1.48-1.94,2.18a7.91,7.91,0,0,1-1,.91c-.45.33-.57.38-.89.37-2.84-.08-5.6-.41-7.95,1.57a9.74,9.74,0,0,0-1.85,2.29,7.36,7.36,0,0,1-1.83,2.37l-.1.06c.44-.17.42-.24-.09-.21a5.27,5.27,0,0,0-1.2-.18,9.43,9.43,0,0,0-2.49,0,7.44,7.44,0,0,0-3.7,1.52,10.19,10.19,0,0,0-2.07,2.6c-.27.43-.53.85-.83,1.25-.09.12-.73.72-.71.81l.87-.21a4,4,0,0,1-.76-.16c-.36-.08-.71-.19-1.08-.25a6.05,6.05,0,0,0-2.47.09c-1.33.33-2.71,1-3,2.45-.29,1.22.15,2.51-.38,3.69a3.12,3.12,0,0,1-1.17,1.37c-.08,0-.29.06-.08,0s-.49-.16-.61-.2c-.8-.29-3.27.09-3.52,1.13-1,4.3-1.83,8.64-2.86,12.94-.26,1.09,3.61.5,3.87-.61Z"/><path class="cls-19" d="M272,86.8c-15,5.61-21.17,10.78-28.73,24.89L329,83.17A76.35,76.35,0,0,0,310.58,81C294.59,81.42,287,81.2,272,86.8Z"/><path class="cls-14" d="M271.31,86.25c-6.4,2.4-12.77,5.23-18,9.71s-8.77,10.15-11.94,16c-.51,1,2.44.31,2.64.24l8.52-2.83L273,102.6l24.77-8.24,21.41-7.12c3.46-1.16,7-2.2,10.4-3.46l.15,0c.26-.09,2-1.11.88-1.37a90.63,90.63,0,0,0-13.4-2.09c-4.25-.3-8.52-.09-12.77,0a107.12,107.12,0,0,0-20.37,2.07,94.2,94.2,0,0,0-12.75,3.88c-.41.15-1.6.66-1.13,1.25s2.07,0,2.54-.15a77.11,77.11,0,0,1,19.08-4.7c3.19-.31,6.4-.45,9.6-.54,3.88-.12,7.79-.35,11.67-.18A82.72,82.72,0,0,1,327.42,84l.89-1.37-8.53,2.84-20.47,6.81-24.77,8.23-21.4,7.13c-3.44,1.14-7.06,2.07-10.41,3.46l-.14,0,2.64.24c3-5.57,6.4-11,11.21-15.23s10.5-6.62,16.28-8.8c.41-.15,1.6-.66,1.13-1.24S271.78,86.07,271.31,86.25Z"/><path class="cls-19" d="M394.38,89.59c-.41-.19-.82-.39-1.21-.6-2-1.12-3.52-4.17-1.66-5.52-4.14,1.62-7-5.55-11.45-5.54-1.27,0-2.46.63-3.72.82a5.84,5.84,0,0,1-6.42-5.85,14.1,14.1,0,0,1-10.69,1L329,83.17c13.18,3,26.55,8.07,39.22,9.83,6.1.84,12.31,1.89,17.74,4.8,3.95,2.12,9,3.32,13.06,5.58C397.5,98.77,396,94.17,394.38,89.59Z"/><path class="cls-14" d="M395.93,88.64a5.76,5.76,0,0,1-2.8-2.23c-.44-.76-.84-2-.06-2.61.48-.39.54-1,0-1.28a3.05,3.05,0,0,0-2.33.14c.49-.17.23,0-.12-.13a5.41,5.41,0,0,1-.94-.45,13.61,13.61,0,0,1-2.06-1.64,14.77,14.77,0,0,0-4.67-3.25,7.12,7.12,0,0,0-3.24-.3c-1.21.15-2.52.92-3.74.77a5.13,5.13,0,0,1-4.09-5c0-1.5-2.46-.71-3.16-.35a10.14,10.14,0,0,1-3.77,1.07,17.06,17.06,0,0,1-4.51-.51,4.56,4.56,0,0,0-2.23.31l-6.37,1.95-18.45,5.64-4.63,1.42c-.84.25-2.74,1.64-.93,2,9.74,2.2,19.21,5.44,28.92,7.8,4.57,1.11,9.16,1.79,13.79,2.54a45,45,0,0,1,13.3,3.87c4.43,2.24,9.29,3.5,13.65,5.88.77.41,3.95-.14,3.5-1.48-1.53-4.6-3-9.2-4.65-13.78-.48-1.37-4.36-.25-3.9,1.05,1.6,4.57,3.12,9.18,4.65,13.78l3.5-1.48c-3.94-2.14-8.34-3.22-12.35-5.21a49.83,49.83,0,0,0-12.92-4.35c-4.64-.88-9.31-1.39-13.92-2.43-4.92-1.11-9.76-2.5-14.6-3.89-5.5-1.58-11-3.17-16.59-4.44l-.92,2.06,26.44-8.08,3.78-1.16L358,75a17.71,17.71,0,0,0,13.09-1.51L368,73.14a6.56,6.56,0,0,0,4.16,6.24,7.82,7.82,0,0,0,4.36.38c1.32-.24,2.57-1,3.89-.47,2,.83,3.46,2.72,5.18,4a6.72,6.72,0,0,0,6.72,1l-2.34-1.14a3.21,3.21,0,0,0-.88,4,7,7,0,0,0,3.77,3.41,3.09,3.09,0,0,0,2.76-.36C396.11,89.85,396.78,89.05,395.93,88.64Z"/><path class="cls-17" d="M394.11,285.39a41,41,0,0,1-4.8,11.12c1.45.49.82,2.75-.33,3.76s-2.74,2.11-2.43,3.6c.11.53.46,1,.55,1.5.31,1.65-1.72,2.65-3.34,3.06,1.09.86.14,2.63-1,3.48s-2.52,1.94-2.16,3.28c.18.67.78,1.21.76,1.89,0,1.44-2.39,1.41-3.18,2.61-.46.69-.28,1.61-.47,2.41a2.68,2.68,0,0,1-4.08,1.34c-.35,2.89-1.63,6.63-4.54,6.45-1.81-.11-3.51-1.86-5.17-1.14-1,.45-1.49,1.67-2.43,2.27-3.2,2-7.06-4.68-10.25-2.66-1.72,1.08-1.68,4.07-3.6,4.7s-3.42-1.54-5.32-1.75c-2.07-.24-4.19,1.81-6,.83-.8-.42-1.23-1.3-1.91-1.89-1.55-1.36-3.15.66-5.13,1.25-3.53,1.07-3.83-1.46-3.83-1.46-1-2.48-2.39-2.31-4.74-1a5.74,5.74,0,0,1-2.38,1.13c-2.18.08-3.17-3.51-5.34-3.33a7.41,7.41,0,0,0-2.17,1c-2.65,1.19-5.88-2.36-4.44-4.88a6.08,6.08,0,0,1-5.79-6.59,5.5,5.5,0,0,1-6.85-4.85c-3.63,1-7.42-3.36-6-6.83a4.35,4.35,0,0,1-5.56-4c.06-1.39.67-3.13-.48-3.92-.75-.52-1.77-.18-2.69-.2a3.48,3.48,0,0,1-2.89-4.79c-3.59.86-6.88-4.17-4.65-7.11-2.83.6-5.35-3.34-3.61-5.66-3.88-.15-6.47-5.36-4.25-8.54l44.43,46.41,11.51,5.37s40.93,4.06,48.7.64S394.11,285.39,394.11,285.39Z"/><path class="cls-14" d="M392.18,285.73a42.2,42.2,0,0,1-4.8,11.12.26.26,0,0,0,.09.34c2.58,1.14-1.53,4.18-2.23,5.08-.91,1.19-.61,1.94-.2,3.24a1.74,1.74,0,0,1-1.45,2.28c-.26.07-2.28.71-1.67,1.31,1.52,1.5-1.46,3.24-2.28,4.13a3,3,0,0,0-1,2.16c.05.74,1.08,1.64.76,2.37-.21.49-.87.61-1.31.83a4.35,4.35,0,0,0-1.72,1.33c-.53.78-.32,1.64-.55,2.51-.07.27-.51.71-.52.91,1-.08,1.2-.18.7-.28a1.66,1.66,0,0,1-.49-.3c-.64-.46-3.64.09-3.77,1a11.53,11.53,0,0,1-1.31,4.38,4.36,4.36,0,0,1-.52.75c-.09.1-.35.26-.37.36-.1.47.72-.49.85-.19a10.67,10.67,0,0,0-1.21-.36c-.42-.17-.83-.37-1.25-.54a6.45,6.45,0,0,0-5.39.45,5.72,5.72,0,0,0-1.7,1.47s-.8.87-.81.85c-.18-.33,2.15-.05.76-.49-2.31-.73-3.91-2.92-6.4-3.25a7.14,7.14,0,0,0-4.51,1,6.89,6.89,0,0,0-2.37,3.25c-.15.29-.35.57-.48.86,0,0-.25.29-.25.31-.17-.47,2,.23,1-.39a21.59,21.59,0,0,0-2.08-1.09,6.72,6.72,0,0,0-5.08-.32,13.25,13.25,0,0,1-2.23.74c.33,0-.18-.08-.24-.11a3,3,0,0,1-.41-.28,7.23,7.23,0,0,1-.92-1c-1.28-1.5-3-1.4-4.78-.81a12.74,12.74,0,0,0-2.15,1c-.57.33-.87.67-1.38.51-.68-.21-.88-.73-1.1-1.32a3.27,3.27,0,0,0-2-2.18c-1.58-.44-3.45.22-4.87.87a13.72,13.72,0,0,0-1.32.68l-.49.3-.33.21q-.78.45,1.05-.12c-.07-.1-.58-.26-.72-.37a5.59,5.59,0,0,1-.77-.69c-1-1-1.82-2.14-3.34-2.26a7.07,7.07,0,0,0-3.29.64c-.26.12-.51.24-.76.38s-1,.42-.18.24.19,0-.06-.18-.35-.16-.52-.26a3.35,3.35,0,0,1-1.49-4.24c.19-.39-.45-.48-.67-.49-3.15-.1-5.39-3.31-5.1-6.29.06-.59-2-.15-2.12-.12-1,.28-2.36-.66-3.05-1.27A5,5,0,0,1,295.7,311c0-.62-1.93-.16-2.13-.11.44-.1-.49-.17-.67-.23a4.1,4.1,0,0,1-.89-.44,5.58,5.58,0,0,1-1.68-1.6,4.68,4.68,0,0,1-.64-4.26c.3-.81-1.9-.37-2.1-.31-1.11.35-2.88-1.53-3.25-2.68-.5-1.51.57-3.35-.25-4.74-1-1.76-3.21-.41-4.63-1.19a3.29,3.29,0,0,1-1.4-4c.3-.67-1.39-.45-1.57-.42-1.27.26-2.69-1.42-3.2-2.39a4,4,0,0,1,.13-4.3c.43-.62-1.53-.42-1.58-.42-.67.11-1.87-1.32-2.19-2a3.15,3.15,0,0,1,.16-3.23c.25-.38-.51-.48-.67-.49-3.64-.27-5.41-5.23-3.58-8.06l-3.77,1,21,21.94,15.07,15.75,5.37,5.61c.92,1,1.8,2.07,2.81,2.94a2.18,2.18,0,0,0,.61.38c1.28.61,2.58,1.2,3.88,1.8l4.91,2.3a18.48,18.48,0,0,0,2.52,1.16,24.78,24.78,0,0,0,4.12.4c3.14.27,6.29.52,9.43.74,8.22.58,16.48,1,24.72.89,5.72-.1,12.12-.12,16.52-4.28a52.68,52.68,0,0,0,6.39-7.74c2.41-3.36,4.64-6.83,6.8-10.35q5-8.14,9.58-16.58l.51-.95c.34-.65-1.37-.45-1.58-.42-.69.11-1.91.39-2.28,1.09-2.13,4-4.38,8-6.68,11.87-4,6.8-8.11,13.68-13.09,19.81a36.77,36.77,0,0,1-3.07,3.41c-.35.34-.92.85-1.17,1s-.37.26-.56.39l-.33.2c.39-.22-.06,0-.15.06l-.17.05c.67-.19-.2,0-.36.08-.34.09.06,0,.11,0l-.44.09-1,.17-.66.08-.95.1c-.83.07-1.65.12-2.48.17a210.48,210.48,0,0,1-23.56-.56c-5.44-.35-10.88-1-16.32-1.29-.08,0-.32-.08-.4,0,.29-.14.83.32.11-.06-1.23-.64-2.52-1.17-3.77-1.76l-4.85-2.25a15.74,15.74,0,0,1-2.46-1.15,13.82,13.82,0,0,1-1.67-1.75l-4.58-4.78-14.07-14.7-23.7-24.75-.41-.44c-.72-.75-3.31.3-3.77,1-2.45,3.8.71,8.72,4.92,9l-.67-.48a3.83,3.83,0,0,0,.34,4.49,4.73,4.73,0,0,0,4.84,1.58l-1.57-.42a4.72,4.72,0,0,0,.4,5.56,5.57,5.57,0,0,0,5.82,2l-1.57-.42a3.81,3.81,0,0,0,1.46,4.64,4.47,4.47,0,0,0,2.72.63c.58,0,1.28-.22,1.73.26a2.22,2.22,0,0,1,.33,1.55,10.64,10.64,0,0,0-.1,3,4.56,4.56,0,0,0,1.43,2.28,6.32,6.32,0,0,0,6.15.93l-2.1-.3a5.4,5.4,0,0,0,1.52,5.76c1.81,1.77,4.21,1.9,6.57,1.37l-2.13-.11c.3,4.5,5.24,6,9,5l-2.12-.12c-.37,3.76,2.87,6.78,6.48,6.89l-.67-.48c-1.54,3.07,1.79,5.81,4.69,5.58a8.08,8.08,0,0,0,2.81-.75,4.69,4.69,0,0,0,.73-.39c1-.77-.51.28-.58,0,0,.06.79.52.88.6,1,.87,1.71,2.13,3,2.55,1.87.59,4-.35,5.54-1.31.38-.24.88-.42,1.24-.68,0,0,.64-.44-.23,0-.7.37-.3-.1-.19.15s.53.45.66.64a4.28,4.28,0,0,1,.47.93c.91,2.44,3.56,2.2,5.75,1.61a12.38,12.38,0,0,0,2.86-1.2c.23-.13.8-.33.94-.53s-.75.45-.76.25c0,0,.71.65.75.7A4.94,4.94,0,0,0,334.8,333a5,5,0,0,0,2.77.17,16.41,16.41,0,0,0,2.89-.83c.79-.28,1.3,0,2,.46,1.69.94,3.09,1.5,5.06,1a5.33,5.33,0,0,0,3.75-2.84,16.37,16.37,0,0,1,1-1.92c.31-.45,1-.7-.13-.39s-.43.18.1.38c2.44.93,4.19,3.27,7,3.22a6.94,6.94,0,0,0,5.26-2.52,3,3,0,0,0,.33-.38c.37-.35.07-.31-.89.13l.32.09a7.3,7.3,0,0,0,1.49.62,6.35,6.35,0,0,0,2.84.55,7.06,7.06,0,0,0,5.15-2.4,10.56,10.56,0,0,0,1.87-5.21l-3.76,1c1.86,1.35,5,.52,6.68-.78a3.47,3.47,0,0,0,1.3-2.82c.14-1.39.86-1.43,1.94-2,.73-.4,1.6-1,1.59-1.92,0-1.37-1.43-2-.31-3.42s4.65-3.32,2.55-5.39l-1.66,1.31c1.76-.48,5.22-1.56,5.16-3.91,0-.66-.48-1.17-.58-1.8a2.05,2.05,0,0,1,.59-1.72,24.73,24.73,0,0,0,2.36-2.33,3.24,3.24,0,0,0,.58-2.5c-.1-.31-.61-.74-.61-.93,0-.45.82-1.41,1.05-1.83a42.65,42.65,0,0,0,3.56-9C396.27,284.2,392.46,284.71,392.18,285.73Z"/><path class="cls-20" d="M252.13,198.86c4.07-4-.94-11.63,2.22-16.36.74-1.1,1.86-1.92,2.47-3.1,1.72-3.28-1.27-7.49.16-10.91.64-1.54,2.09-2.65,2.6-4.23,1-3-1.85-6.11-1.51-9.27.39-3.55,4.66-6.53,3.31-9.83-.65-1.62-2.49-2.54-3.06-4.19-1-2.87,2.26-6.61.09-8.74-.75-.73-2-.93-2.57-1.78-1.25-1.71.86-3.8,1.69-5.74s.27-4.34.53-6.52,2.32-4.55,4.31-3.63c-1.16-3.45,1-12.77,4.59-12.35,1.78.21,4.06,1.09,5-.43.68-1.09,0-2.59.51-3.73,1.42-2.92,6.42,1.46,9-.49.7-.53,1-1.42,1.62-2.07,1.35-1.47,3.7-1.34,5.61-.77s3.86,1.44,5.82,1.09,3.66-2.76,2.45-4.34c2,1.18,4.15,2.4,6.5,2.58s5-1,5.62-3.3c.6,3.3,5.65,4.62,7.78,2,.85-1,1.43-2.58,2.76-2.73a3,3,0,0,1,1.7.49c2.33,1.29,5.46,8.5,6.72,10.85l-1-14.58-40.65-5.94-33.58,19.86L240.14,143l13.67,58.59"/><path class="cls-14" d="M253.89,198.69c4.2-4.35-.28-10.64,1.88-15.61.65-1.52,2.06-2.45,2.87-3.86a6.55,6.55,0,0,0,.59-4.16c-.2-1.53-.64-3-.69-4.58a6.64,6.64,0,0,1,1.71-4.45,5.84,5.84,0,0,0,1.45-4.23,27.09,27.09,0,0,0-1.35-4.62,6.27,6.27,0,0,1,.23-4.53c.6-1.36,1.51-2.55,2.19-3.87a5.48,5.48,0,0,0,.75-3.57c-.33-1.52-1.66-2.41-2.57-3.57-2-2.51.17-5.21.18-7.93,0-1.72-1.2-2.37-2.52-3.15-2-1.17-.95-3-.05-4.57a9.77,9.77,0,0,0,1.4-5.67,11.3,11.3,0,0,1,.16-3.18,5.39,5.39,0,0,1,.59-1.32,4.21,4.21,0,0,1,.35-.48,1.53,1.53,0,0,1,.27-.3c.37-.32.1-.26-.81.17.53.2,4.1-.23,3.8-1.18-.9-2.88-.08-6.59,1.16-9.25a7.88,7.88,0,0,1,1.06-1.73,7,7,0,0,0,.55-.5c.05.36-2.06.06-1.42.44a4.66,4.66,0,0,0,1,.17c2.13.38,4.55.37,6.4-.92a2.59,2.59,0,0,0,1.16-2.12c0-.53-.06-1.07,0-1.6a5.87,5.87,0,0,1,.19-.83l.11-.21c.44-.56-.05-.46-1.45.29a14.09,14.09,0,0,0,1.87.4,18.08,18.08,0,0,0,2.52.59,8.13,8.13,0,0,0,5.66-1.28c.88-.64,1.19-1.74,2-2.41,0,0-.53.08-.16,0a3.26,3.26,0,0,1,.93.08,14.19,14.19,0,0,1,1.89.49c2.92.93,5.71,1.47,8.63.13,1.72-.79,3.84-2.83,2.53-4.84l-3.79,1.18c2.82,1.65,5.72,3.07,9.08,2.58,2.62-.37,5.88-1.56,6.8-4.31l-3.87.88c.52,2.38,2.91,3.58,5.18,3.63a10.13,10.13,0,0,0,4.43-1,7.2,7.2,0,0,0,2.87-2.71,10,10,0,0,1,.73-.89l-1.27.62a5.86,5.86,0,0,1,.55.3,4.79,4.79,0,0,1,1,.94,18.74,18.74,0,0,1,2.1,3.17c1.21,2.13,2.2,4.36,3.35,6.52.41.77,4-.17,3.91-1.05l-1-14.57a.4.4,0,0,0-.34-.21l-16.76-2.45-22.39-3.27c-.49-.07-1-.17-1.49-.22a6.26,6.26,0,0,0-3.73,1.08l-7.17,4.24-21.5,12.72-3.22,1.9c-.42.25-1.23.57-1.5,1a5.56,5.56,0,0,0-.38,1.28l-1,3.35-7.2,23.91-3.09,10.29-.84,2.8a3,3,0,0,0-.22.88,7.69,7.69,0,0,0,.33,1.4l.71,3.06,2.28,9.73,6,25.65,4.15,17.78.21.9c.18.77,4.1-.2,3.9-1l-6.12-26.25-7.35-31.5a5.8,5.8,0,0,1-.19-.8c0,.27.05-.17.12-.39l1.45-4.83L249.18,119l4.9-16.27.56-1.86c.23-.77.12-.17-.25-.15.31,0,.84-.5,1.1-.65l2.35-1.39,29.33-17.34.76-.45-3.1.71,35.67,5.22,5,.72-.34-.2,1,14.57,3.91-1.05c-1.1-2.06-2.06-4.2-3.2-6.24-1-1.87-2.3-4.35-4.46-5.11a6.29,6.29,0,0,0-4.89.75c-1.2.72-1.62,1.92-2.53,2.9,0,0-.52.49-.55.44-.75-1.09,1.24.14.39-.21a17,17,0,0,1-1.64-.49,3.84,3.84,0,0,1-2.08-2.66c-.18-.81-3.66.22-3.88.88A3.68,3.68,0,0,1,305.86,93c-.09.07-.77.35-.31.24a3.18,3.18,0,0,1-1.11,0,16.25,16.25,0,0,1-5.62-2.43c-.56-.33-4.18.58-3.79,1.18a2.21,2.21,0,0,1-.09,2.6c-.14.2-.34.35-.47.54-.54.76.25-.31.43,0,0-.07-2.1-.36-2.36-.44-2.45-.72-4.57-1.42-7.16-.92a7.4,7.4,0,0,0-5.44,3.76c-.32.61,1.58,0,.77-.22a3.64,3.64,0,0,0-.44-.07,9.56,9.56,0,0,1-1.06-.24c-.82-.21-1.63-.48-2.46-.63a7.11,7.11,0,0,0-5.51,1.18,2.59,2.59,0,0,0-.93,1.85c-.05.53,0,1.06,0,1.59,0,.31-.08.52-.13.84l-.15.3c1.28-.15,1.57-.24.86-.27-3.33-.94-7.12-.22-8.91,3-1.57,2.78-2.55,7.13-1.58,10.26l3.8-1.18a6.37,6.37,0,0,0-8,4.3c-.44,2,.17,4.06-.32,6-.41,1.68-1.74,2.94-2.22,4.59s.48,2.61,1.89,3.37,1.87,2.05,1.53,3.71a22.08,22.08,0,0,0-.9,4.24c0,1.58.89,2.62,1.92,3.7s1.92,2.53,1.42,4.24a18.58,18.58,0,0,1-2.1,4,8.08,8.08,0,0,0-1.33,4.19c.06,1.76.88,3.37,1.37,5a5.28,5.28,0,0,1-.6,4.86c-1,1.42-2,2.59-2.2,4.38-.33,3.2,1.94,6.82-.07,9.77-1.07,1.56-2.51,2.59-3,4.52a13.85,13.85,0,0,0-.17,4.72c.29,3,1.35,7.05-1,9.53-.59.61.53.59.9.56a4.54,4.54,0,0,0,2.62-.91Z"/><path class="cls-17" d="M251.45,225.31l3.46.39a1.6,1.6,0,0,0,1.06-.11c.77-.46.34-1.61.11-2.48-.53-2,.61-4.05,1.5-5.94s1.51-4.32.15-5.91c-.71-.84-1.94-1.4-2.06-2.49-.16-1.43,1.62-2.16,2.59-3.23a3.49,3.49,0,0,0-1.54-5.42s2.53-2.74,1.66-8.19-2.44-11.29-2.44-11.29L247.85,176Z"/><path class="cls-14" d="M250.2,226.18c2.13.25,4.41.83,6.47,0,1.65-.69,1.84-1.66,1.44-3.26-.93-3.82,3-6.73,2.3-10.56a3.79,3.79,0,0,0-1.08-2c-.47-.49-1.18-.86-1.52-1.48-.84-1.55,1.42-2.46,2.23-3.39a3.87,3.87,0,0,0-1.73-6.14l.19.72c3.43-3.79,1.71-9.9.76-14.25-.31-1.39-.63-2.78-1-4.16a4.39,4.39,0,0,0-.51-1.68,4.74,4.74,0,0,0-1.18-.67l-2.54-1.45-4.37-2.49c-.76-.43-3.87,0-3.78,1.22l1.21,16.68,1.94,26.47.45,6.13c.06.87,4,.15,3.9-1l-1.22-16.69-1.93-26.46-.45-6.14L246,176.72l4.9,2.79,2.74,1.56c.16.1.54.43.33.1a3.35,3.35,0,0,1,.22.84,68.09,68.09,0,0,1,2.37,11.71c.14,2.11-.24,4.94-1.64,6.49-.28.31-.19.59.19.72a3.1,3.1,0,0,1,.91,5.13c-1.62,1.42-3.42,2.9-1.27,4.86,1,.88,1.72,1.59,1.79,3a8.42,8.42,0,0,1-1.1,4,11.93,11.93,0,0,0-1.44,4.23,6.26,6.26,0,0,0,.23,2,5.19,5.19,0,0,1,.18.78c0,.69-.37.61.5.3l1.52-.34a22.86,22.86,0,0,1-3.76-.4,4.23,4.23,0,0,0-2.76.74C249.34,225.64,249.41,226.09,250.2,226.18Z"/><path class="cls-20" d="M387.4,96.06c-.49,1.12,1.05,2,2.27,2.18s2.81.4,3,1.61c.12.75-.42,1.49-.3,2.24.36,2.28,4.79.38,6,2.37.9,1.48-1,3.85.34,5,.63.54,1.57.34,2.4.41a3.52,3.52,0,0,1,3,2.61c.25,1,0,2.21.61,3.11.69,1.08,2.18,1.24,3.35,1.79,3.07,1.44,3.74,5.45,3.78,8.84s.05,7.27,2.61,9.49c2.39-2-.15-4.13-2-6.64a17.69,17.69,0,0,1-1.75-2.23,2.11,2.11,0,0,1,.25-2.6c.37-.29.89-.42,1.1-.83.62-1.18-1.63-1.49-2.68-2.3-1.32-1-.51-3.14.51-4.46s2.23-3.06,1.37-4.49c-.76-1.27-2.71-1.37-3.48-2.62-.88-1.42.26-3.29-.11-4.91-.49-2.16-3.21-2.8-5.41-3a3.47,3.47,0,0,0-1.48-5.29c-.83-.27-1.84-.26-2.39-.94-.81-1,.06-2.83-.92-3.68-.82-.72-2.24-.08-3.13-.72-1.41-1,.33-3.41-.45-5-1-2.07-5.56-1.29-5.31-3.58"/><path class="cls-14" d="M385.45,96.3c-.6,2.06,2,2.83,3.5,3.06.94.15,1.9.32,1.73,1.48-.14.9-.55,1.76.11,2.58.94,1.18,2.83,1,4.16,1.1a1.89,1.89,0,0,1,1.47.51c.51.67.11,1.71,0,2.44-.38,2,.39,3.25,2.5,3.43,1.1.1,1.9,0,2.7.91s.55,2.32.9,3.55c.61,2.12,2.71,2.15,4.34,3.08s2.42,2.93,2.77,4.74c.87,4.42-.64,9.84,3.07,13.27.84.77,2.65.23,3.38-.45,1.2-1.12,1.75-2.44,1-4a22.57,22.57,0,0,0-3.14-4.22,5.57,5.57,0,0,1-1.46-2.11c-.28-1.1.31-1.11,1-1.73,1.14-1,.7-2.14-.52-2.81s-2.62-1-2.11-2.77,2-2.85,2.57-4.57a3,3,0,0,0-1.71-3.64,7.17,7.17,0,0,1-1.77-1.06c-.67-.72-.47-1.7-.34-2.59.26-1.66.24-3.25-1.19-4.38a9.45,9.45,0,0,0-4.9-1.62l.62,1.1a4.1,4.1,0,0,0-1.73-6.27c-.58-.22-1.42-.19-1.91-.55s-.46-1.39-.48-2a2.42,2.42,0,0,0-2.37-2.53c-.56-.07-1.44.14-1.75-.43s0-1.2.06-1.7c.2-1.21.36-2.47-.57-3.42a6.64,6.64,0,0,0-3-1.37c-.57-.17-1.82-.35-1.79-1.17.07-1.59-3.85-.81-3.9.49-.1,2.31,2.49,2.42,4.13,3.06,2.85,1.11-.14,4.16,1.66,5.92a3.3,3.3,0,0,0,2.07.74c.66,0,1.2-.17,1.46.55.46,1.28-.26,2.52,1,3.51,1.05.84,2.57.51,3.43,1.62a2.9,2.9,0,0,1,.08,3.5c-.39.51.08,1,.62,1.1a7.24,7.24,0,0,1,3.78,1.12c1.37,1.09.81,2.67.67,4.16a3.28,3.28,0,0,0,1.61,3.38c1.22.75,2.9,1.18,2.34,3-.69,2.21-4.72,5.48-1.68,7.69a9.63,9.63,0,0,0,1.52.81,7.78,7.78,0,0,1,1,.54c0-.08-.47.24-.7.42a3.1,3.1,0,0,0-.73.76,2.7,2.7,0,0,0-.39,1.9c.25,1.72,2.06,3.25,3.11,4.55.92,1.12,2.83,3,1.35,4.39l3.38-.44c-3.19-2.94-2.15-7.75-2.61-11.61a10.46,10.46,0,0,0-1.85-5.15,6.26,6.26,0,0,0-2-1.68,27.78,27.78,0,0,1-2.58-1c-1-.66-.9-1.86-1-2.92a4.11,4.11,0,0,0-1.35-2.61,4.89,4.89,0,0,0-2.77-1.15c-.86-.09-1.86.22-1.9-.94-.05-1.57,1.1-3.24-.36-4.55-1.17-1-2.93-.88-4.38-1-.54-.05-1-.08-1.1-.7s.32-1.26.31-1.86a1.91,1.91,0,0,0-.44-1.25,4.39,4.39,0,0,0-2.7-1.18c-.76-.12-2.49-.29-2.15-1.46.4-1.37-3.51-.83-3.9.49Z"/><path class="cls-21" d="M287.74,193l2.42,7.72c1.37,6,7,17.72,9,21,2.82,4.58,35,7.22,41.37,3.78s10.37-21.36,12.16-25.49l12.86,1.08c1,5.43,4.64,22.67,7,25s17.17,2.39,18.84,2.39c1.39,0,3.32,0,5.43-.15,5.59-.23,12.38-1,14.51-2.93,3.17-2.91,6.83-14.27,10-25l.52-1.69c.11-.41.25-.69.26-.81h0l.57-1.94c-18.34-9.19-42.7-8.46-57.73,1.76l.11.19-12.55-1.1c-14-9.65-38.37-15.37-56.07-9.2h0l-49.36,12.2-.28,4.72Zm86.42,31.41c-1.49-1.48-4.4-13.57-6.35-23,13.06-8.62,35-9.25,51.43-2v.24c-1.7,5.77-6.23,21.12-9.34,24-3.69,3.38-33.11,3-35.73.75ZM303,220.55c-5-7.05-9-18.18-11.44-27.61,15.77-6.51,44.31-1.7,58,7.46-2.4,7.48-5.52,20.58-10.11,23-6.61,3.53-34.66,0-36.42-2.88Z"/><path class="cls-22" d="M374.48,224.19c-1.49-1.48-4.4-13.56-6.35-23,13.06-8.62,35-9.24,51.43-2v.24c-1.7,5.77-6.23,21.12-9.34,24-3.69,3.38-33.12,3-35.74.76Z"/><path class="cls-22" d="M303,220.55c-5.31-7.7-9-18.18-11.44-27.61,15.77-6.51,44.31-1.7,58,7.46-2.4,7.48-5.52,20.58-10.11,23-6.61,3.53-34.66,0-36.42-2.88Z"/><path class="cls-12" d="M559.89,835.1S571.5,791,514.71,778.29c0,0,58.75,3.59,50.29,56.81Z"/><path class="cls-5" d="M428.22,728.61l-45.7,42.28s2.61.35,6.49.83c7.29-1.4,14.71-1,22.1-1.32,7-.31,13.9-1.21,20.87-1.46a30.79,30.79,0,0,1,12.66-2.75c1.83,0,3.4-.71,3.75-3C449.35,756.93,428.22,728.61,428.22,728.61Z"/><path class="cls-5" d="M100.15,669.17c5.95-9.32,16.48-2.56,23-11.36,7.13-9.58,22.16-8.87,30.85-16.73,6.84-6.18,3.13-15.42,10.85-20.23l5.43-78.94L182,503.55s-2.14-41.3-17.67-75.29-33-77.26-33-77.26-34.59,10.95-46,73.1c-5.45,29.54-14,111.2-14,111.2s-10,97.22-6.64,115.85c2.57,14.39,7.45,42.48,26.53,56.21"/><path class="cls-5" d="M309.58,752.71,253,723.12,193.49,679c-9.7-2.39-6.87,4.87-16.82,4.35a184.4,184.4,0,0,0-32.46,1.36c-10.37,1.29,8.27-48.14-2-46C131.7,640.89,111.13,650,101.09,654c-1.27.5-21.94,14.31-23.2,14.85,1.64,6,4.19,30,9.29,35.8,24.35,27.84,152.07,91.63,152.07,91.63l35.62,12.66Z"/><path class="cls-11" d="M303,512.36a.63.63,0,0,1,.24,0c.05.3.19.62-.07.9Z"/><path class="cls-11" d="M318.8,600.37a.62.62,0,0,1-.22.1l-.1-.58Z"/><path class="cls-23" d="M374.76,499.83l-.33,0,.31-.18A.18.18,0,0,1,374.76,499.83Z"/><path class="cls-23" d="M328.7,507.86l.29-.22.11.16Z"/><path class="cls-23" d="M373.77,499.93l-.43.07A.29.29,0,0,1,373.77,499.93Z"/><path class="cls-23" d="M304,512.22a.23.23,0,0,1,.37-.07Z"/><path class="cls-4" d="M408.85,824.71c3.9-2,7.45-4.56,8-9.23.23-1.83-1.31-2.34-1.92-4.41L382,779c7.58-4,24.32,9.16,31,3.79,6.83-5.44-2.31-8.73-3.91-10.07s-31.88-16-31.88-16-29.79-3.44-36.88-2.54-26.61,6.34-26.61,6.34L305,762.38s-21,32.26-27.54,44c-.62,1.11,15.38,4.89,23.54,12.34s28.9,16.45,28.9,16.45,37.25,8.34,42.31,7.13,12-8.92,12-8.92a38.14,38.14,0,0,1,9.84.22c8.89.65,14-9.31,14-9.31l-.08,0Z"/><path class="cls-6" d="M386.1,783.06a122.79,122.79,0,0,1-14.17-9.38,67.08,67.08,0,0,1-13.65-10.27,71.46,71.46,0,0,1,14.85,8.5A48.28,48.28,0,0,1,386.1,783.06Z"/><path class="cls-6" d="M362.75,798.52c.27-.64,10.63,4.12,22.2,11.7,5.82,3.75,11,7.28,14.79,9.79a33.53,33.53,0,0,1,6,4.28,21.35,21.35,0,0,1-6.81-3c-4-2.16-9.32-5.49-15.14-9.23C372.23,804.46,362.53,799,362.75,798.52Z"/><path class="cls-6" d="M350.12,813.65c.39-.47,7.3,4.92,16.61,10.29s17.43,8.74,17.38,9.18a52.29,52.29,0,0,1-18.3-7.5A52.6,52.6,0,0,1,350.12,813.65Z"/><path class="cls-24" d="M932.7,583.76c2.89-19.82,5-39.76,6.4-59.75,3-42.45,15.83-85,15.87-127.58l-24.76,8.44c-13,5.72-25.58,17.51-36,37.49l-51,110-37.33-72.07c-5.89-16.17-21.35-21.16-36.54-13.08l-11,5.83c-19.67,10.46-16.24,37.41-7.38,57.86C771.47,578.35,789.05,673.23,859,673.22c31,0,58.84-70.05,71.66-98.08Z"/><path class="cls-25" d="M842.63,550.33A41.91,41.91,0,0,1,859,576.59"/><path class="cls-4" d="M777.27,486a17.4,17.4,0,0,0,9.67-7.22,17,17,0,0,0,1.9-11.13l-6.56-10.4s-3-17.72-5.79-23.17S757,410.79,756,410.24s-9.54-29.94-15.29-29.84-10.17,3.54-9.64,11.26,10.91,24.44,7.13,26.43a25.59,25.59,0,0,1-9.55,2.14s-.34-8.84-4.68-12.28-10.39.43-10.39.43l-.65,3.71-4.08-4.93s-2.52-18-10-19a30.5,30.5,0,0,0-6-10.91,6.48,6.48,0,0,0-9.17,0,6.14,6.14,0,0,0-1.11,1.51l7.9,41.11,31.17,45.63s16.32,9,20.43,11.66c1.27.82,4.82,6.86,9.16,14.82A83.94,83.94,0,0,0,762.88,491a54.54,54.54,0,0,0,13.25-3.86A1.79,1.79,0,0,1,777.27,486Z"/><path class="cls-6" d="M750.93,415.37c3-.28,5.44-.23,5.57-.75s-2.43-1.48-5.72-1.17-5.65,1.68-5.45,2.13S747.94,415.64,750.93,415.37Z"/><path class="cls-6" d="M693.75,412c-.4-5.39-.84-12.94-1.25-21.66l0-.79.75-.23a37.16,37.16,0,0,1,4.71-1.46,7.26,7.26,0,0,1,5.4,1.4,13.35,13.35,0,0,1,4.55,7.27,39.45,39.45,0,0,1,1.43,7.55c.34,4.84.31,9.13.28,12.75-.12,7.29-.44,11.75-.73,11.71a76.1,76.1,0,0,1-.81-11.68c-.16-3.53-.27-7.91-.7-12.6a40.12,40.12,0,0,0-1.49-7.11,11.48,11.48,0,0,0-3.78-6.13,5.07,5.07,0,0,0-3.84-1.05,44.2,44.2,0,0,0-4.3,1.34l.7-1c.3,8.7.47,16.26.51,21.67a40.2,40.2,0,0,1-.33,8.63A40,40,0,0,1,693.75,412Z"/><path class="cls-6" d="M736.46,454.59A65.86,65.86,0,0,0,728.28,440l-.11-.17,0-.2a39.46,39.46,0,0,1-.54-6.69c.05-2.42.24-4.64.18-7.11a65.79,65.79,0,0,0-.55-7.41,16.38,16.38,0,0,0-2.25-7.06,6.81,6.81,0,0,0-5.09-3.2,11.27,11.27,0,0,0-6,1.15l.55-.89c-.29,11.16-.62,20.83-.94,27.69a19.15,19.15,0,0,0,.76,7.85,14.11,14.11,0,0,1,.75,2.8c-.13.16-.71-.68-1.43-2.45a17.74,17.74,0,0,1-1.41-8c0-6.89,0-16.58.17-27.81l.09-.59.53-.27a13,13,0,0,1,7.2-1.45,8.92,8.92,0,0,1,6.64,4.14c5.47,10.68,1.64,21.26,3.16,29.14l-.18-.38a58.65,58.65,0,0,1,7.72,15.42,23.64,23.64,0,0,1,.95,4.63,10.84,10.84,0,0,1-.06,1.71C738.21,460.8,738.09,458.44,736.46,454.59Z"/><path class="cls-6" d="M782.28,457.29s-5.11,8.43-18.51,9.49C763.77,466.78,780.54,470.26,782.28,457.29Z"/><path class="cls-8" d="M1031.79,957.54c47.9,0,95.8-5.59,143.7-5.82,10.39-.05,20,2.07,20.76,11.11,2.09,23.29,5,48.48-31,46-2.75-.19-5.59.29-8.28-.08-12.55-1.71-14.48,3.36-12.83,12.3,5.35,29,10.25,51.09,15.16,80.1,11.55,68.23,23.19,136.44,34.38,204.71,3.09,18.83,2.44,18.66-21.6,18.3-7.42-.11-10.54-2-11.57-8.23-11-67.14-22.52-134.23-33.47-201.38-1.28-7.84-4.26-10.9-14.51-10.82q-80.15.66-160.28,0c-10.52-.09-14.12,2.53-15.52,11.2q-15.51,95.64-32.21,191.14c-3.23,18.7-3.71,18.24-27,18-9.34-.11-10.41-2.8-9.24-9.6,17.26-99.83,34.15-192.82,51.45-292.65,1.77-10.23-1-15.12-14.47-13.34-4.49.6-9.2.11-13.8.1-20.45,0-24.47-10.4-24.49-28,0-19.17,3.72-28.52,23.92-28.53q70.47,0,140.94,0Zm78.4,123.5c10.36.22,12.48-2.79,11-10.59-4.2-22.55-8-28.93-11.54-51.55-1.17-7.5-4.08-10.79-14.57-10.63-42.3.64-84.64.57-126.95,0-9.67-.12-12.66,2.88-13.79,10-3.71,23.37-7.61,30.5-11.91,53.8-1.39,7.54,2.26,9,10.43,8.91,26.67-.33,53.35-.12,80-.12C1058.68,1080.86,1084.45,1080.48,1110.19,1081Z"/><path class="cls-10" d="M1159.2,1101.24q2.67,15.79,5.35,31.59c-11.19,2.15-22.31,4.68-33.41,7.31q-2.12-12.75-4.21-25.5c-1.28-7.84-4.26-10.9-14.51-10.82q-80.13.66-160.27,0c-10.52-.09-14.12,2.53-15.52,11.2q-2,12.38-4.07,24.75a307.76,307.76,0,0,1-31.37-13.06c6.1-34.49,12.22-69.23,18.39-104.84a19.39,19.39,0,0,0,.06-8.29q11,.72,21.93,1.12,6.73.24,13.47.39a19.9,19.9,0,0,0-.77,3.27c-3.71,23.36-7.62,30.5-11.92,53.8-1.39,7.53,2.26,9,10.43,8.9,26.67-.32,53.36-.12,80-.12,25.76,0,51.53-.37,77.27.19,10.35.22,12.48-2.79,11-10.6-4.2-22.54-8-28.92-11.53-51.54-.47-3-1.23-5.31-2.63-7q19-.59,38.06-.84c-1.72,2.18-1.78,5.61-1,10C1149.39,1050.09,1154.29,1072.23,1159.2,1101.24Z"/><path class="cls-10" d="M1196.68,967.58s-153,27.53-219,19.19-110.44-15.44-107.76-25.44,49.37-31.43,96.39-33,175.9,10,175.9,10,43.26,7.12,47.8,13.28S1196.68,967.58,1196.68,967.58Z"/><path class="cls-4" d="M1085.63,299.9s-1,52.3,8,70.51c2.18,4.42,33,23.88,33,23.88L1048.84,439l-80.71-17.4s28.28-31.63,29.26-37.35-4.13-44-4.13-44"/><path class="cls-6" d="M971,341.33c4,4.89,7.73,10,11.94,14.73a.6.6,0,0,1,.13.21.68.68,0,0,1,1,0c2.94,3.16,8.15,4.49,10.81,7.91,2.29,2.94,1.44,7.29,2,11.06,2.75.16,6.52-.4,10-.51,23.14-2.63,23.31-5.6,52.35-27.42,9.21-6.93,6.55-14.16,8.29-15.75C1035.67,333.82,1004.24,338.13,971,341.33Z"/><path class="cls-14" d="M1106.81,251.07s3.11-14.67,5.19-49.22c1.87-30.92-48.54-51.44-77.91-53.15-16.14-.94-68.68,11-81.79,18.78s-18.49,27.16-17.51,54c0,0,5.82-27.33,22.8-28.36,13.85-.84,57.66-12,69.8-8.22s38.83,11.77,44,53.54c1.42,11.38,20.51-2.63,26.75,3.71S1106.81,251.07,1106.81,251.07Z"/><path class="cls-4" d="M1088.6,302.26l.54-41.6-2.51-46.24-21.48-33.14-34.34-12.66-37.08,4.86s-29.07,10.32-38.22,13.74-14.64,15.57-19.75,29.05-.24,34.53-.24,34.53c-.19.77.94,3.94,1.16,4.6,2.7,8.39,4,15.82,6.19,22.06a15.83,15.83,0,0,1,.66,8.72c-2.49,11.52-2,16.3-.37,23,2.16,9.21,4.67,17,8.83,24,4.42,7.42,9.83,15.37,10.93,16.92,0,0,12,16.42,14.36,17.91s5.87,2.75,7.44,2.76,22.18-.72,22.18-.72l9.48-1.18a24.62,24.62,0,0,0,9.16-3.05c7.64-4.38,29.4-17.34,35.21-22.35,7.81-6.75,15.36-32.28,15.36-32.28"/><path class="cls-14" d="M1075.59,263.45c.18,3.57,1.74,17.69,1.71,21.2l18.34-2.29c4.26-12.77,9.41-27.8,11.17-31.29,2.76-5.45.68-30.26-.1-39.59l-.17-2c-.72-9-10.76-22.25-26.84-35.56-17.69-14.66-47-21-74.71-16.05-2.63.46-5.24,1-7.77,1.67-23.85,6.12-42.71,20.33-56,42.23-9.62,15.79-8.61,32.56-6.61,42.65-1.43-20.17,4.14-35.06,4.38-35.68,5.24-14.37,13.33-19.18,19.19-20.69a20.26,20.26,0,0,1,10-.1c6,.71,14.57-1,20.69-2.58,4.56-1.17,8.15-2.36,9.13-2.69,2.89-2.49,7.41-4.58,13.07-6,13.16-3.38,32.77-3,37.38,2.41,5.12,6.05,17.53,28.23,18.17,33.65"/><path class="cls-4" d="M1087,303.36c12,9.77,16.71-12.08,16.71-12.08,8.88-13.68,7.3-26.95,5.84-36s-11.42-7.7-11.42-7.7c-8.36,1.93-11.61,6.93-15.29,36.36"/><path class="cls-14" d="M940.62,198.45c5-10.64,15.64-24.47,21.39-34.75,3.23-.68,19.31-2.89,22.69-3.42,34.35-5.36,83,9.2,88.85,21.25,3.67,7.51,6.69,50.38,5.63,54.43-2.9,11.11-2.94,25.24-2.94,25.24-3.25-15.83-16.73-32.35-18.8-37.68s2.28-32.19.38-33.08-34.51-6.94-69.66-2.36a264,264,0,0,0-29.76,5.75C958.46,193.71,940.56,198.57,940.62,198.45Z"/><path class="cls-14" d="M1014.44,256.7c2-1.36,4.55-.72,6.09.33a5.31,5.31,0,0,1,1.91,2.29,5.57,5.57,0,0,1-.67,5.16,5.14,5.14,0,0,1-5.73,1.75,5.67,5.67,0,0,1-3.59-6.21,5.05,5.05,0,0,1,2-3.32"/><path class="cls-14" d="M954.8,265.64c-2.24-.82-4.59.43-5.82,1.82a5.38,5.38,0,0,0-1.29,2.69,5.55,5.55,0,0,0,1.92,4.84,5.14,5.14,0,0,0,6,.29,5.67,5.67,0,0,0,2-6.9,5.08,5.08,0,0,0-2.75-2.74"/><path class="cls-14" d="M973.18,271.87s-9.54-7.42-15.81-7.22c-9.17.3-11.24,2.63-13.93,7.18,0,0,5.39-5.08,11.85-5.11C961.47,266.68,973.18,271.87,973.18,271.87Z"/><path class="cls-14" d="M1001.43,265.57s11.86-9.4,18.08-10.23c9.09-1.21,20.52,3,23.93,7,0,0-15.17-6.37-21.54-5.34C1015.8,258,1001.43,265.57,1001.43,265.57Z"/><path class="cls-14" d="M1000.64,228.8c-.32,2.16-.63,4.32-.95,6.48-.24,1.65-.9,5.39-1.13,7,5.47-.61,10.51-2,14-2.07,6.92-.18,14.07-.82,20.73,1.24a23.17,23.17,0,0,1,8.41,4.31c.78.65,2.77,3.27,4.14,2.87.56-.16.09-2.94,0-3.23-1-5.61-5.24-8.52-10.68-10.63-11.09-4.3-22.68-5.74-34.56-6"/><path class="cls-14" d="M936,253.28l2.56-2.73c7.09-7.62,15.79-12.82,25.23-17.08l3.51,5.53c.89,1.41,2.59,3.89,3.47,5.3-4.65,1.29-8.91,2-11.75,3.13-5.64,2.17-11.61,4.4-16.1,8.5-.35.33-2.24,2.12-2.57,2.46C937.12,256.87,935.54,254.14,936,253.28Z"/><path class="cls-16" d="M982.53,306.8a10.16,10.16,0,0,0,9.32-1.78c.55-.45,2.57-.34,1.81.3-3.26,2.68-9.06,3.62-12.72,2.2-.36-.14-.34-.41.07-.61a2.24,2.24,0,0,1,1.52-.11"/><path class="cls-16" d="M994.72,304.39a16.59,16.59,0,0,1,5.6-2.2,1.32,1.32,0,0,1,.93.18c.18.13.25.34,0,.49A6.15,6.15,0,0,1,998.2,304a1.18,1.18,0,0,1-1-.27c-.21-.25.1-.47.36-.5a4.88,4.88,0,0,0,2.49-.93l1,.67a14.59,14.59,0,0,0-5,2,1.24,1.24,0,0,1-1.08,0c-.23-.11-.49-.38-.19-.58"/><path class="cls-16" d="M1002.69,303.66c2.33-.35,4.95-1.74,5.88-3.69,1.4-2.93-.75-7-3.89-8.39-.34-.15-.21-.41.11-.52a1.82,1.82,0,0,1,1.28.11,8.42,8.42,0,0,1,4.76,7.1c-.06,2.43-2.09,4.38-4.81,5.42a13.3,13.3,0,0,1-2.55.69c-.35.05-1,0-1.21-.24s.1-.43.43-.48"/><path class="cls-16" d="M978.09,306.11a.31.31,0,0,0-.35-.41,2.73,2.73,0,0,1-1.89-.38c-.17.28-.35.56-.52.85a8.1,8.1,0,0,1,3.83.88.65.65,0,0,0,.74-.21c.13-.15.25-.47,0-.6"/><path class="cls-16" d="M979.91,306.24a9.12,9.12,0,0,0-4.29-1,.77.77,0,0,0-.59.37.35.35,0,0,0,.07.49"/><path class="cls-16" d="M973.27,307.05a4.82,4.82,0,0,1-4.42-2.4,7.21,7.21,0,0,1,.86-7.92.29.29,0,0,0-.17-.49.87.87,0,0,0-.78.37,8,8,0,0,0-1.67,6.84,5.54,5.54,0,0,0,4.1,4.3,5.71,5.71,0,0,0,1.74.16.83.83,0,0,0,.71-.48c.08-.3-.15-.4-.37-.38"/><path class="cls-26" d="M1090.93,275.55c6.27-19.13,11.83-19.73,11.83-19.73s4.11,3.95,3,12.68"/><path class="cls-26" d="M1094,277c5-.93,1.91,8.73,3.48,10.81s2.9-3.92,2.91-11c0,0-.8-9.51-5.68-10.84"/><path class="cls-4" d="M1002,380.85,1107.73,385l4.75,26.21s-26.06,18.24-28.64,19-61,6.95-61,6.95-62.12-28-61.26-27.78S1002,380.85,1002,380.85Z"/><g id="freepik--Character--inject-2"><path class="cls-24" d="M920.63,456.56l12.62-53.31a131.79,131.79,0,0,1,34.88-11.53c11.89-2.14,16.16-4.22,23.22-5.45-2.85,8.26-1.6,16.17,4,21.48a53.36,53.36,0,0,0,29.29,13.8c10.6,1.47,21.62.44,32-1.72,19.49-4,43.69-21.6,50.52-40.15l15.65,4.25s59.43,30.32,68.08,34.82-42.22,226.08-42.22,226.08l18,84.11c.92,9.28,27.22,82.56-3.07,129.3,0,0-198-55.93-219.13-58.63-24.56-3.12-37-7.76-41.76-19.45-1.74-4.24-9.82-23.22,6.68-92,8-33.41,2.72-72,4.17-108.72C916.15,514.18,920.63,456.56,920.63,456.56Z"/><path class="cls-25" d="M913.73,608.62c-.41,0,0-6.13-.42-6.11-.07-28.93-1.2-62-1-88.1.11-9.49.18-17.21.35-22.49a73.4,73.4,0,0,1,.4-8.27,60.22,60.22,0,0,1,.52,8.27c-.12,5.75.07,13.18.31,22.53.1,8.86-.25,83.39-.12,94.93C913.5,609.28,914,608.61,913.73,608.62Z"/></g><path class="cls-11" d="M1017.39,552.45h-.22c-.07.27-.23.55,0,.83Z"/><path class="cls-11" d="M993.37,630.56a.52.52,0,0,0,.19.11l.16-.52Z"/><path class="cls-23" d="M953.7,533.18h.3l-.27-.2A.17.17,0,0,0,953.7,533.18Z"/><path class="cls-23" d="M994.6,545.54l-.25-.24-.11.14Z"/><path class="cls-23" d="M954.58,533.38l.39.11A.26.26,0,0,0,954.58,533.38Z"/><path class="cls-23" d="M1016.49,552.21a.21.21,0,0,0-.32-.1Z"/><path class="cls-27" d="M693.91,879.13c14.68,74.8,36.67,256.4,58.34,347.43,0,0,96.9,17.54,106.17-3.25,0,0-5.29-183.63,22.39-296.13,24.37-99.07,84-128.15,59.16-135.52-39.16-11.6-190.75-28.87-213.52-13.74C699.12,796.08,682.35,820.22,693.91,879.13Z"/><path class="cls-27" d="M772.08,924.88c-.94-5.77-2.18-11.49-3.64-17.13a241.85,241.85,0,0,0-13.11-37.2,256.18,256.18,0,0,0-19.2-35.63,219.19,219.19,0,0,0-16.3-22.13c117.87-25.91,364.48-13.06,364.48-13.06s92.13,21.84,71.37,98.84c-27.51,102-291.19,52.48-382.32,26.69Z"/><path class="cls-27" d="M751.66,839.3a160.13,160.13,0,0,1,32.42,3.11,84.23,84.23,0,0,1-2.72-15.65q3.1-2.78,6.52-5.65a210.55,210.55,0,0,1,30,16.24,258,258,0,0,1,31.73,24.18,231.23,231.23,0,0,1,26.7,28q3.44,4.31,6.62,8.81l-1,.15c30.49,47,16.16,138.09,25.1,224.42,7.85,75.8,8.76,85.28,16,125.36-11.39,19-111,12.62-111,12.62C791.05,1144.46,751.66,839.3,751.66,839.3Z"/><path class="cls-28" d="M812,1248.28c-18.32-115.9-60.31-409-60.31-409H746.9l61.69,408.78Z"/><path class="cls-27" d="M746.9,839.3s-9.18-50.43,32.53-55c43.42-4.72,293.33,15,293.33,15l-325.86,40"/><path class="cls-28" d="M751.66,839.3s-10.82-44.08,42.14-56.8c0,0-54.79,3.59-46.9,56.8Z"/><path class="cls-28" d="M788.56,783.48s27.75-.3,75.6,3.85S932.08,792,932.08,792s-131.18-12-143.52-8.52Z"/><path class="cls-24" d="M901.65,751.91s-9.48,8.38-12.3,16.93-2.45,12.42-2.45,12.42a73.27,73.27,0,0,1,13.19,2.34c6.89,1.93,19.94,3.85,26.84,4.43s101.62,4.94,129,15.28,97.15,21.54,101,47,3.69,23.26-4.2,47.84c0,0,30.8-13.62,23-79.19s-130.2-75.88-130.2-75.88L904.78,753.38Z"/><path class="cls-28" d="M899.17,952s-5.13-27.66-19.23-43.4c0,0,21.25,19.39,24.85,44Z"/><path class="cls-24" d="M1137.71,545.66l11.93,147.1-34.78,196.5,68.42,14.35,45.29-173.89a84.05,84.05,0,0,0,2.79-19.51c1-42-4.63-191.23-7.17-219.31-4.71-52.63-33.24-72.15-33.24-72.15Z"/><path class="cls-25" d="M1126.63,486.15a56.91,56.91,0,0,1,.78-10.51A66.52,66.52,0,0,1,1169.87,424a58.38,58.38,0,0,1,10.13-2.84,13.51,13.51,0,0,1,3.74-.37c.08.37-5.38,1.19-13.46,4.6a69.29,69.29,0,0,0-41.41,50.53c-1.83,8.6-1.42,14.1-1.83,14.1A13.5,13.5,0,0,1,1126.63,486.15Z"/><path class="cls-25" d="M1127.84,499.84c.37,31.53,20.75,151.89,21.33,200.75l-5.34,37.06c-7.49,53.45-24,114.88-29.21,151.68l.51.11.33.08.21.06c.15-.88.19-1.25.35-2.13,5.35-36.57,21.81-97.16,29.45-149.65,1.83-12.72,3.74-25.14,5.31-37.07-.84-48.93-21.47-169.33-22-200.89Z"/><path class="cls-4" d="M1098.38,990.63a2.91,2.91,0,0,0,1.43-.75s-.65,10,13,2c0,0,12.27,2.84,18.33-4,0,0,15.14-2.15,20.51-6.49s17.41-50.06,17.41-50.06l1-30.53-43.74-9.68-.79,3s-16.27,8.52-22.09,14.43a78.42,78.42,0,0,0-11,16.55l-6.36,19.34c9.13,5.76,21.08-14.78,22.33-14.43a9,9,0,0,1,6.22,11.09c-2.19,9.47-4.65,20.31-4.75,22s-9.51,10.57-16.62,17.1C1089,984,1092.53,991.9,1098.38,990.63Z"/><path class="cls-29" d="M1127,954.39a49.14,49.14,0,0,1-6.29,18.16A43.29,43.29,0,0,1,1106.31,985a37.83,37.83,0,0,0-6.84,4.34,26.35,26.35,0,0,0,7.59-3,38.46,38.46,0,0,0,15.42-12.51,43.24,43.24,0,0,0,6-19,27.56,27.56,0,0,0,.21-8.31A36.84,36.84,0,0,0,1127,954.39Z"/><path class="cls-29" d="M1137.83,959.21a73.59,73.59,0,0,1-2,7.73,24.57,24.57,0,0,1-4.24,8.55,49.55,49.55,0,0,1-7.11,6.39c-2.4,1.85-4.52,3.56-6.26,5a25.77,25.77,0,0,0-5.44,5.09,25.33,25.33,0,0,0,6.36-3.86l6.54-4.65a43.92,43.92,0,0,0,7.55-6.6,25.11,25.11,0,0,0,4.31-9.3,54.53,54.53,0,0,0,1.57-8.11,15.37,15.37,0,0,0-.24-7.62A59.22,59.22,0,0,1,1137.83,959.21Z"/><path class="cls-29" d="M1148.43,964.27c-1.16,3.15-2.77,7.42-4.34,12.34a6.41,6.41,0,0,1-1.78,2.6,27.54,27.54,0,0,1-2.42,2.29,49.09,49.09,0,0,1-4.48,3.42c-2.67,1.85-4.48,2.71-4.41,3s2.18-.1,5.19-1.68a29.63,29.63,0,0,0,5-3.25,26.73,26.73,0,0,0,2.67-2.32,8.21,8.21,0,0,0,2.32-3.42c3.18-9.61,5.3-17.78,4.45-18A24,24,0,0,0,1148.43,964.27Z"/><path class="cls-30" d="M990.23,318.51c9-1,29.59,2,34,4.88,0,0-9.6,7.88-30.58,10.19s-25.2-4.05-25.2-4.05S978.71,319.78,990.23,318.51Z"/><path class="cls-31" d="M1015,319.87s-10.83.82-19.38,2.13-19.11,3.74-19.11,3.74-2.29-5.8,13.19-8.16S1015,319.87,1015,319.87Z"/><path class="cls-32" d="M993.53,331c9.57-2.81,19-7.74,30.54-8.81,0,0-1.33,12.81-25.86,16.55s-29.61-8.09-29.61-8.09C979.89,328.28,983.56,331.21,993.53,331Z"/><path class="cls-32" d="M978.55,315.81c5.1-1.14,8.65.2,10.89-.14s5.23-2.69,10.43-3.11c4.88-.4,27,7.6,24.94,9.39s-19.14-4-34.65-1.59-19.83,11.38-22.33,10.29S973.78,316.88,978.55,315.81Z"/><path class="cls-7" d="M177.72,575.28c.61-8.66,1.51-45.55,2-52,.46-7.55.88-13.33,1.14-17.77.09-1.74.33-3.3.25-4.45a8.77,8.77,0,0,0-.12-1.62,8.09,8.09,0,0,0-.15,1.56c-.11,1-.26,2.54-.48,4.45-.38,4.45-.93,10.29-1.62,17.81-.46,5.72-2.13,40.21-2.71,47.59C176.31,571.85,177.41,574.22,177.72,575.28Z"/><path class="cls-7" d="M304.72,766.42c3.29-4.89,6.56-9.76,9.56-14.32l.85-.83-1-.6-51.66-31.4-60.1-51.35a4,4,0,0,0-.21.82l-.25,1L261.12,721l50.58,30.83c-2.85,4.29-5.88,8.8-8.93,13.35L274.82,808c-37.81-16-41.73-15.78-80.73-34.15-.41.4-.07,1.17-.48,1.56,40.51,19.57,42.79,18.89,81.06,35.09l.87.38.66-.65C285.41,796.42,294.68,781.39,304.72,766.42Z"/><path class="cls-7" d="M95.38,670a42.63,42.63,0,0,1,9.14-7.35,113,113,0,0,1,52.86-18.69,42.38,42.38,0,0,1,11.69,0,99.07,99.07,0,0,1-11.5,1.6,142.37,142.37,0,0,0-27.08,6.54,146.1,146.1,0,0,0-25.16,11.82A106.1,106.1,0,0,1,95.38,670Z"/><path class="cls-7" d="M124.14,638.79a50.18,50.18,0,0,1,23.09-2.36,49.83,49.83,0,0,1,22.49,6.27c-.24.64-10.05-3-22.67-4S124.25,639.47,124.14,638.79Z"/><polygon class="cls-7" points="202.35 667.92 173.7 642.77 178.12 567.01 176.01 565.29 171.29 643.54 204.51 671.98 202.35 667.92"/><path class="cls-7" d="M120.93,730.49s73.62,43.56,76.29,44.81l-1.13,1.29s-73.76-41.67-75.82-44.75Z"/><path class="cls-32" d="M354.39,262.5c-12,0-31.45-1.32-31.45-1.32s3.69,23.7,31.51,23.63S385.83,261,385.83,261,366.39,262.46,354.39,262.5Z"/><path class="cls-30" d="M354.5,262.5c-5.7,0-28.7-.89-28.7-.89s7.64,12.57,28.27,12.51c22.37-.06,28.91-12.49,28.91-12.49Z"/><path class="cls-33" d="M354.75,263.35c-5.7,0-23.06-.9-23.06-.9s6.26,6.22,23.38,6.18,22.53-6.13,22.53-6.13Z"/><path class="cls-32" d="M387.08,259.24c-.6-.14-3.92,1-6.75.73-4.73-.39-7.69-1.62-11.11-1.88-5.84-.43-9.54,1.88-12.08,1.89s-6.26-2.28-12.1-1.82c-3.42.27-11.88,1.54-16.61,2-2.83.25-6.15-.84-6.76-.69-.84.21.81,6.38,32.73,6.29S387.93,259.45,387.08,259.24Z"/><path class="cls-14" d="M319.39,259.37c-1.63,1.31-3.38,2.84-3.62,4.92a8.25,8.25,0,0,0,.16,2.27l.59,3.48a1.34,1.34,0,0,0,.23.65,1.31,1.31,0,0,0,.67.35,5.51,5.51,0,0,0,2.4.35,1.9,1.9,0,0,0,1.68-1.52,2.93,2.93,0,0,1,.1-1c.29-.59,1.13-.48,1.77-.61,1.6-.35,2-2.37,2.77-3.82a8.39,8.39,0,0,1,5.24-3.8,17.25,17.25,0,0,0,3.19-1,3.2,3.2,0,0,0,1.85-2.62"/><path class="cls-14" d="M389.56,261.72c1.49,1.46,3.1,3.15,3.14,5.24a7.8,7.8,0,0,1-.38,2.24l-.91,3.41a1.4,1.4,0,0,1-.29.63,1.33,1.33,0,0,1-.7.29,5.52,5.52,0,0,1-2.42.12,1.9,1.9,0,0,1-1.54-1.68,2.74,2.74,0,0,0,0-1c-.23-.61-1.08-.58-1.7-.77-1.56-.5-1.79-2.55-2.41-4.06a8.37,8.37,0,0,0-4.86-4.28,16.5,16.5,0,0,1-3.07-1.34,3.19,3.19,0,0,1-1.6-2.78"/><path class="cls-14" d="M322.61,256.51a2.27,2.27,0,0,1,1.26-1c.87-.19,1.78,0,2.68-.21a4.64,4.64,0,0,0,2.19-1.18,7,7,0,0,0,.64-.9,3.77,3.77,0,0,1,.37-.52c.38-.28.36-.37-.07-.28s-.45,0-.05.11a2.65,2.65,0,0,1,.48.23c.34.17.66.38,1,.54a4.4,4.4,0,0,0,2,.4,8.23,8.23,0,0,0,4.27-1.61c1-.68-.56.39-.72-.09a9.42,9.42,0,0,0,1,.71,3.37,3.37,0,0,0,2.06.48,7,7,0,0,0,4.55-2.11s.83-.86.84-.85c-.77.07-.86.17-.28.3l.37.16a7.06,7.06,0,0,0,2,.55c1.52.13,3.65-.35,4.56-1.68s-3-.76-3.58.13c1.26-.1,1.57-.23.92-.38l-.56-.22a11.47,11.47,0,0,0-1.11-.42,5.41,5.41,0,0,0-2.74,0,6.83,6.83,0,0,0-4,2.55c-.61.44-.37.48.71.13a5.3,5.3,0,0,1-.54-.39,4.83,4.83,0,0,0-.86-.55,4.1,4.1,0,0,0-2.25-.17,7.16,7.16,0,0,0-2.27.8c-.3.16-.59.36-.88.55s-1.25.64-.23.36c.82-.22.18-.18-.28-.41s-.66-.38-1-.54a4.64,4.64,0,0,0-2.08-.42,6.86,6.86,0,0,0-4.71,2.12,6.21,6.21,0,0,0-.66.89c-.11.18-.23.36-.35.54,1.18-.32,1.41-.47.68-.45a6.43,6.43,0,0,0-2.57.28,8,8,0,0,0-4.38,2.66c-.56.7.48.87,1,.86a3.72,3.72,0,0,0,2.6-1Z"/><path class="cls-14" d="M366.38,252.79c-1.24.46-.54,0-.39.2s.46.25.61.34c.46.28.9.59,1.37.86a6.79,6.79,0,0,0,1.55.65,11.89,11.89,0,0,0,2.06.14c.77.07,0-.24.52.16.21.16.34.47.53.65a3,3,0,0,0,1.79.88,6.66,6.66,0,0,0,4.14-1.08c.72-.45-.43.08-.41-.07,0,.08.26.39.32.49a7.36,7.36,0,0,0,.85,1.4,4.5,4.5,0,0,0,3.79,1.06c.32,0,.88-.19,1.19,0s.34.8.47,1.18a2,2,0,0,0,1.25,1.23,3.05,3.05,0,0,0,.92.24c.53,0,.05.2,0-.17.29,1.68,4.2.71,3.9-1a1.6,1.6,0,0,0-1.2-1.2c-.25-.09-.89-.05-1-.22s0,.07,0-.34a2.88,2.88,0,0,0-2.69-2.33,9.44,9.44,0,0,0-2.19,0c-.72,0-.87-.09-1.24-.72-.69-1.18-1.24-2.1-2.76-2.23a5.49,5.49,0,0,0-2.8.64c-.23.1-.88.3-1,.48l-.16.06c.43.09.48,0,.16-.27-.77-1.67-2.59-1.31-4-1.44-1-.09-1.93-1-2.85-1.48a5.07,5.07,0,0,0-4.32-.15c-.71.26-1.48,1.15-1,1.89s1.91.49,2.64.22Z"/><path class="cls-14" d="M354.08,252.8l-1.32,5.35a2,2,0,0,1-1.75,1.49c-5.79.49-27.82,2.32-33,2-.12,0,.35,2.19.23,2.16l-1.22-.15c-1.93-.49-.17-6.95,1.72-7.57a111.38,111.38,0,0,1,14-3.74c3.94-.7,14.85-2.28,19.55-2A2,2,0,0,1,354.08,252.8Z"/><path class="cls-14" d="M360.84,253.74l-.1,5a2,2,0,0,0,1.49,1.67c5.32,1.12,22.72,4.8,27.56,5a1.25,1.25,0,0,0,.33,0l1.56-.24c1.82-.27,1-4.37-.68-5.19a86.89,86.89,0,0,0-11.3-4.86c-3.59-1.12-12.65-3.43-17-3.64A1.88,1.88,0,0,0,360.84,253.74Z"/></g></g></svg>