<svg xmlns="http://www.w3.org/2000/svg" xmlns:xlink="http://www.w3.org/1999/xlink" viewBox="0 0 1221.96 991.43"><defs><style>.cls-1,.cls-24,.cls-29{fill:none;}.cls-2{clip-path:url(#clip-path);}.cls-3{fill:#f2ebd1;}.cls-4{fill:#956243;}.cls-5{fill:#67aaaa;}.cls-6{fill:#825639;}.cls-7{fill:#151210;}.cls-8{fill:#231f20;}.cls-9{fill:#010101;}.cls-10{fill:#161312;}.cls-11{fill:#171514;}.cls-12{fill:#181615;}.cls-13{fill:#191716;}.cls-14{fill:#040404;}.cls-15,.cls-26{fill:#fff;}.cls-15{opacity:0.14;}.cls-16{fill:#103b5b;}.cls-17{fill:#1d1e1e;stroke:#1d1e1e;}.cls-17,.cls-18,.cls-24,.cls-29,.cls-30{stroke-miterlimit:10;}.cls-17,.cls-18,.cls-30{stroke-width:1.87px;}.cls-18{fill:#41706f;stroke:#41706f;}.cls-19{fill:#43636b;}.cls-20{fill:#714533;}.cls-21{fill:#aebf9d;}.cls-22{fill:#684136;}.cls-23{fill:#f8e494;opacity:0.51;}.cls-24{stroke:#010101;stroke-width:1.36px;}.cls-25{fill:#24180f;}.cls-27{fill:#653c29;}.cls-28{fill:#244d60;}.cls-29{stroke:#22333a;stroke-width:3.74px;}.cls-30{fill:#738264;stroke:#738265;}.cls-31{fill:#31160e;}.cls-32{fill:#f1eef7;}</style><clipPath id="clip-path"><rect class="cls-1" x="-2.68" width="1221.96" height="984.43"/></clipPath></defs><g id="Layer_2" data-name="Layer 2"><g class="cls-2"><polyline class="cls-3" points="-2.68 984.43 -2.68 -7 1219.28 -7 1219.28 984.43"/><path class="cls-4" d="M920.8,194.31s-7.61,53.77.84,72.94c2.05,4.65,20.91,37.14,20.91,37.14L827.6,353l-40.92-38.64s33.19-25.21,34.41-31.08S815,231.65,815,231.65"/><path class="cls-5" d="M1032,309.53c-17.16-18.21-79.14-32.89-102.7-41.24l-.69,1.24c-8,17.86-33.39,46.81-61.27,59.34-13.8,6.2-26.27,6.06-38.43-3.79-9.67-7.84-13.3-21.55-15.78-32.84a2.71,2.71,0,0,0-3.94-2.64c-7.75,1.85-59.85,23.89-63.06,32.09-1.8,4.6,1.77,5.74,1.77,5.74l-18.27,99.09,17,198.33c-1,61.35-5.11,100.87-3.88,147.52l104.14,8.77a384.5,384.5,0,0,0,107.24-6.47L1026.3,760a1131.24,1131.24,0,0,0-21.95-134.63c-15.2-66.75-11.22-154.14-10.39-165.93C995.53,435.13,1057.72,336.72,1032,309.53Z"/><path class="cls-6" d="M927.24,206.21c0,.11,0,.21,0,.31A.43.43,0,0,0,927.24,206.21Z"/><path class="cls-4" d="M856.05,271.41l-35.26.09L803,268.21c-1.78.1-10.27-17.64-11.58-19.88-4.06-7-9.36-16.07-12-23.7-2.82-8.17-8.33-15.13-10-25-1.22-7.26-1.45-12.37,2-24.41a16.65,16.65,0,0,0-.09-9.28c-1.86-6.77-2.75-14.74-5-23.82-.18-.71-1.16-4.15-.91-5,0,0-3.16-38.11,3.18-52S785,64.48,794.92,61.49s39.65-2.41,39.65-2.41l40.72-7.54,35.51,15.8,19.41,41.57-.54,49.19-3.45,44.06"/><path class="cls-7" d="M917.89,154.93c0,3.81-4,22.91-4.32,26.63l19.6-1.16c5.4-13.24,11.9-28.82,14-32.39,3.3-5.58-7.82-32.18-8-42.14l0-2.14c-.15-9.55-9.87-24.34-26-39.56-27.74-26.2-26.43-26.55-67.45-22-2.82.31-5.64.73-8.36,1.24-25.71,4.83-47.31,5.29-63,27.57-11.28,16.08-3-3.89-1.62,6.94-.13-21.47-3.54-3.63-1.42-6.23,12.42-15.27,19.44.23,25.76-1a21.59,21.59,0,0,1,10.57.58c6.34,1.17,12.36.13,19-1.11,4.91-.93,17.3-4.24,18.36-4.52,3.24-2.45-.15-15.24,6-16.39,14.18-2.67,33.91,2.85,40.92,5.78,8.28,3.47,28.06,10.91,26.2,32.84"/><path class="cls-7" d="M806.05,263.44a1.55,1.55,0,0,0,.64-.28c3.55-2.63,3.78-4,5.55-4.55a9.92,9.92,0,0,1,1.89-.52c5.12-1,8.23-1.64,22.43,6.76.29.17,18.29-3,18.64-3l9.15-4.92c1.52-1.05,35.26-32.72,35.26-32.72.48-1,6.51-8.48,6.72-9.46a2.06,2.06,0,0,1,.33-.17l.22-.11a1.67,1.67,0,0,0,0,.19,6.68,6.68,0,0,1,.09,1.26,21.65,21.65,0,0,1-.74,5.36c-.7,2.69-1.06,5.42-1.66,8.12-.21,1-.47,1.9-.75,2.83C900,235,876,268.77,861.81,276.72c-.93.29-3.85,1.27-11.72,2.28-14.77,1.9-29.08,2.49-43.86-1.24a13.25,13.25,0,0,1-8.72-7.18c-4.8-10.14-15.39-32.7-18.42-48,4.42,8.77,13.75,27.55,20.17,40.34.2.39,5.84.47,6.31.59"/><path class="cls-4" d="M922.07,207.31c16.5,14.79,18.55-11.65,18.55-11.65,10.36-13.89,9.6-28.07,8.68-37.73s-11.57-9-11.57-9c-9,1.47-12.79,6.54-18.73,37.48"/><path class="cls-7" d="M802.47,61.82c14.72-.8,53-12.42,72.92-14.42,8.26-.82,36.48,18.63,40.22,23.15,8.58,10.38-9.43,35.61,6,69.13,5.09,11.08,10.9-8.86,17.07-1.71s8.54,10,8.54,10c3.15-32.76,3.07-31.61-5.32-63.53S898,39.91,880.93,37.83s-71.25,5.32-85.69,12.71"/><path class="cls-8" d="M927.58,180.47A81,81,0,0,1,933.71,168a26.86,26.86,0,0,1,4.71-6,10.21,10.21,0,0,1,1.58-1.19l.46-.24c.23-.1,0,0,.13-.05l0,0c.5-.17-.47.1-.41,0a15.46,15.46,0,0,0,.93,1.41c2,3.73,2.13,8.23,1.36,12.32-.07.33,1.43.09,1.5-.27.76-4,.73-8.36-1.14-12.08-.25-.5-.67-1.55-1.18-1.86a1.18,1.18,0,0,0-.79,0c-3.25.61-5.75,3.92-7.5,6.43a72,72,0,0,0-7.33,14.36c-.1.24,1.35.11,1.5-.28Z"/><path class="cls-8" d="M929.65,182.66c3.19-.3,2.55,4.52,2.38,6.45-.1,1.27-1.07,6,1.26,5.92a2.63,2.63,0,0,0,2.32-1.81,23.24,23.24,0,0,0,1.51-6.05,25.31,25.31,0,0,0,.12-8.46c-.54-3.12-1.7-7.19-5-8.42a1.45,1.45,0,0,0-1,.1s-.69.33-.46.42c2.84,1.05,4,4.27,4.65,7a19.81,19.81,0,0,1,.59,5.93,42.84,42.84,0,0,1-1.24,7.72,13.31,13.31,0,0,1-.74,2.15c-.12.26-.32.5-.42.75,0-.08-.22.27-.22.25.75,0,1-.07.64-.2l-.1-.07a4.75,4.75,0,0,1-.54-1.16,8,8,0,0,1-.07-1.7c0-1.38.24-2.76.31-4.14.14-2.55-.08-5.56-3.35-5.25-.39,0-1.65.69-.66.59Z"/><path class="cls-7" d="M847.59,154.72c2.18-1.3,4.88-.45,6.43.77a5.79,5.79,0,0,1,1.87,2.56,5.87,5.87,0,0,1-1.07,5.42,5.47,5.47,0,0,1-6.2,1.47,6,6,0,0,1-3.37-6.83,5.36,5.36,0,0,1,2.34-3.39"/><path class="cls-7" d="M782.69,159c-2.32-1-4.89.13-6.29,1.52a5.76,5.76,0,0,0-1.56,2.77,5.87,5.87,0,0,0,1.71,5.25,5.44,5.44,0,0,0,6.32.73,6.05,6.05,0,0,0,2.55-7.18,5.44,5.44,0,0,0-2.73-3.09"/><path class="cls-7" d="M801.92,166.42s-9.6-8.52-16.27-8.74c-9.73-.32-12.08,2-15.25,6.65,0,0,6.07-5,12.92-4.6C789.86,160.12,801.92,166.42,801.92,166.42Z"/><path class="cls-7" d="M833.22,162.21s13.07-9.36,19.72-9.93c9.7-.82,21.62,4.23,25,8.7,0,0-15.76-7.54-22.58-6.77C848.86,154.94,833.22,162.21,833.22,162.21Z"/><path class="cls-7" d="M831.25,124.3c-.27,2.3-.53,4.6-.79,6.92-.2,1.75-.78,5.75-1,7.5,5.7-.83,11-2.46,14.6-2.68,7.24-.42,14.7-1.35,21.75.61a24,24,0,0,1,8.93,4.28c.84.67,3,3.38,4.42,2.92.59-.2,0-3.13-.05-3.43-1.19-5.93-5.75-8.87-11.51-10.92-11.75-4.19-23.92-5.32-36.38-5.2"/><path class="cls-7" d="M764,132.76l4-1.15c11-3.26,22.28-3.44,33.7-2.35q.15,3.47.28,7c.07,1.77.31,4.95.37,6.72-5.18-1.28-9.67-2.86-13-3.35-6.62-1-13.58-2.11-20.17-.71-.52.11-3.33.77-3.83.9C763.11,136.66,763.12,133.31,764,132.76Z"/><path class="cls-7" d="M833.73,237.12l-25,.17s6.45,9.33,12.54,9C825.06,246,829.92,241.64,833.73,237.12Z"/><path class="cls-9" d="M811.66,204c2.93,1.36,7.24.74,10-1.24.61-.44,2.75-.17,1.89.44-3.64,2.62-9.84,3.21-13.63,1.46-.37-.17-.32-.46.12-.64a2.44,2.44,0,0,1,1.62,0"/><path class="cls-9" d="M824.74,202.26a17.52,17.52,0,0,1,6.1-1.95,1.41,1.41,0,0,1,1,.25c.19.16.24.38,0,.53a6.66,6.66,0,0,1-3.35,1,1.31,1.31,0,0,1-1.08-.36c-.2-.28.14-.5.42-.51a5.3,5.3,0,0,0,2.7-.81l1,.77a15.45,15.45,0,0,0-5.44,1.76,1.3,1.3,0,0,1-1.14-.06c-.24-.13-.5-.43-.17-.62"/><path class="cls-9" d="M833.24,202c2.5-.21,5.38-1.5,6.49-3.5,1.69-3-.31-7.42-3.54-9.09-.35-.18-.19-.45.15-.55a2.1,2.1,0,0,1,1.36.2,8.84,8.84,0,0,1,4.54,7.79c-.23,2.57-2.52,4.5-5.46,5.41a13.42,13.42,0,0,1-2.75.56c-.38,0-1.07,0-1.27-.34s.13-.45.48-.48"/><path class="cls-9" d="M807,202.93a.33.33,0,0,0-.34-.46,2.88,2.88,0,0,1-2-.54l-.61.87a8.56,8.56,0,0,1,4,1.2.69.69,0,0,0,.79-.18c.15-.14.31-.48.06-.63"/><path class="cls-9" d="M808.92,203.19a9.71,9.71,0,0,0-4.48-1.32.81.81,0,0,0-.65.35.36.36,0,0,0,0,.52"/><path class="cls-9" d="M801.83,203.59a5.12,5.12,0,0,1-4.52-2.85,7.64,7.64,0,0,1,1.46-8.33.31.31,0,0,0-.15-.54.93.93,0,0,0-.85.34,8.49,8.49,0,0,0-2.24,7.13,5.89,5.89,0,0,0,4.05,4.85,6,6,0,0,0,1.82.28c.25,0,.69-.14.79-.45s-.13-.44-.36-.43"/><path class="cls-7" d="M794.88,68.25a9.34,9.34,0,0,1,4.24-1.64l1.66-.6q7.44-.37,14.89-.32a10.68,10.68,0,0,1,3.65.46l.34.16c3.67-.29,7.35-.52,11-.66l1.7.38a10.08,10.08,0,0,1,4.36,1.07,1.44,1.44,0,0,1-.23,2.7c-1.49.53-3.75-.18-4.76.72s1.14,2.29.5,3.43c-.4.72-1.71,1-2.56,1.53-1,.64-1.31,1.62-2.25,2.3a5.14,5.14,0,0,1-3.88.67c-1.39.16-3.27-.32-3.68.65a1.84,1.84,0,0,0,0,.81,2.78,2.78,0,0,1-2,2.63,4.55,4.55,0,0,1-3.94-.4c-1-.69-1.4-1.79-2.46-2.42a8.25,8.25,0,0,0-1.12-.51,3.34,3.34,0,0,1-1.26.81,4.54,4.54,0,0,1-3.94-.39c-1-.69-1.4-1.79-2.46-2.42-.9-.54-2.24-.73-2.7-1.52-.74-1.25,1.36-3,.17-4s-3.27.09-4.8-.38A1.75,1.75,0,0,1,794.88,68.25Z"/><path class="cls-7" d="M838.63,265.16a7.52,7.52,0,0,1-3.46,1.28l-1.35.46q-6,.21-12.06.07a8.93,8.93,0,0,1-3-.42l-.27-.13c-3,.18-6,.32-8.94.39l-1.37-.33a8.24,8.24,0,0,1-3.52-.93,1.17,1.17,0,0,1,.23-2.18c1.21-.41,3,.19,3.86-.52s-.89-1.87-.36-2.79c.33-.57,1.4-.78,2.09-1.2s1.08-1.3,1.85-1.83a4.13,4.13,0,0,1,3.15-.5c1.13-.11,2.65.31,3-.47a1.34,1.34,0,0,0,0-.66,2.24,2.24,0,0,1,1.66-2.1,3.7,3.7,0,0,1,3.19.37c.8.57,1.1,1.47,2,2a6.26,6.26,0,0,0,.9.42,2.69,2.69,0,0,1,1-.64,3.7,3.7,0,0,1,3.19.37c.79.57,1.1,1.47,2,2s1.79.62,2.16,1.26c.58,1-1.14,2.38-.19,3.23s2.65,0,3.88.37A1.41,1.41,0,0,1,838.63,265.16Z"/><path class="cls-10" d="M945.33,150.1a9.39,9.39,0,0,0,4.36-1,3.21,3.21,0,0,0,1.48-3.85c-1-2.16-5-2.44-4.84-4.82,1.91-2.37,6.6-1.57,7.65-4.43.85-2.31-1.66-4.37-3.81-5.57,1.45-1.45,1-.16,3-.71s3-5.39,1.8-7.07c-1.32-1.91-2-.33-1.29-2.54,1.57-.53-1.94-1.8-.76-3s1.74-3.14.82-4.52c-1.09-1.67-.93-2.93-.94-4.93,0-1.7-3.35-1.92-2.37-3.31,1.79-2.54-.77-5.81-3.13-7.83,1.33-.94-.33-1.18.5-2.59a3.94,3.94,0,0,0-.18-4.57,17.91,17.91,0,0,0-2.49-1.65c-3.28-2.48-1.46-7.65.63-11.2a5.91,5.91,0,0,1-6.28-4.67c-.23-1.34,0-2.77-.5-4s-2.38-2.07-3.21-1"/><path class="cls-7" d="M944.59,151.05a13.66,13.66,0,0,0,6.22-1.54c1.39-.84,2.67-2.43,2.4-4.16-.22-1.43-1.57-2.24-2.71-2.9s-2.35-1.17-2.33-2.56l-.14.48c.8-.92,2.27-1.07,3.36-1.42a8,8,0,0,0,3.76-2.13c2.52-3-1.08-5.9-3.5-7.28l0,1.07c.06-.06.49-.38.49-.45,0,.3-2.23.15-1.72.47a2.27,2.27,0,0,0,1,.13,6.8,6.8,0,0,0,2.88-.6,5.2,5.2,0,0,0,2.71-3.45,6.65,6.65,0,0,0,0-4.25,3.52,3.52,0,0,0-1.41-1.59,3.36,3.36,0,0,1-.38-.19c-.17-.14-.08-.05-.07,0,.06.25.36-.87.36-.88l-1.13.91c.87-.36,2-1,1.31-2-.34-.54-1.26-1-1.07-1.62.09-.33.65-.82.84-1.16a5,5,0,0,0,.4-.92,4.07,4.07,0,0,0,.12-2c-.18-.84-.8-1.49-1.06-2.31a7.7,7.7,0,0,1-.28-2.19c0-1.34.05-2.18-1.11-3a6.49,6.49,0,0,1-1.16-.77c-.35-.39-.26-.36,0-.89,1.65-3-1.25-6.22-3.37-8.07l-.26.92c.55-.44,1-.94.88-1.69-.07-.3-.25-.53-.22-.85a6.1,6.1,0,0,1,.58-1.34,4.11,4.11,0,0,0-2.1-5.22,4.73,4.73,0,0,1-2.69-4.9,15.28,15.28,0,0,1,2.25-6.25c.55-.95-.84-1-1.42-.91-1.51.13-3.1-1.1-3.91-2.26-1-1.5-.77-3.14-1-4.84-.5-3.52-4.8-4-7-1.66-.62.64.53.93,1,.94a3.41,3.41,0,0,0,2.44-1q-2.24.21-1.32.54a1.33,1.33,0,0,1,.39.24,2,2,0,0,1,.59.73,5.42,5.42,0,0,1,.37,2.18,6.68,6.68,0,0,0,8,6.94l-1.42-.9c-1.76,3-4,7.72-1.54,11,1.27,1.69,4,1.89,4.06,4.37,0,1.15-.68,1.9-.85,3-.07.45.38,1.24.11,1.45s-.6.63-.26.93c1.48,1.29,3,2.88,3.5,4.86a3.33,3.33,0,0,1-.45,2.46,1.16,1.16,0,0,0,.06,1.4c.65.81,2.06,1,2.26,2.11.15.87,0,1.81.07,2.69a9.08,9.08,0,0,0,1.06,2.65,3.11,3.11,0,0,1-.11,2.68c-.31.64-1.08,1.13-1.13,1.87a1.72,1.72,0,0,0,.54,1.22,8.39,8.39,0,0,0,.86,1s1.49-1.22.32-.51a2,2,0,0,0-.46.35,2.36,2.36,0,0,0-.48,1.15c-.11.59-.06.81.43,1.16a3.06,3.06,0,0,1,1.57,2.84,7.6,7.6,0,0,1-.4,2.4,14.69,14.69,0,0,1-.82,1.56c-.27-.37,1.18,0,.21-.3a3.17,3.17,0,0,0-1.19,0,5,5,0,0,0-2.73,1.4c-.39.38-.56.76,0,1.07a7.8,7.8,0,0,1,3.31,3,2.16,2.16,0,0,1-.68,2.91,19.22,19.22,0,0,1-3.09,1,8.56,8.56,0,0,0-3.18,1.79c-1.94,1.9,1.4,3.51,2.73,4.32,1,.6,1.93,1.41,1.73,2.68-.28,1.85-1.88,2.08-3.44,2.2a3.26,3.26,0,0,0-2.44,1c-.43.68.37,1,1,.94Z"/><path class="cls-11" d="M937.13,73.37c-.45-1.8-2.32-10.39-2.77-12.19A4.07,4.07,0,0,1,929,57.9c-.09-1.22.27-2.75-.75-3.44s-2.39.27-3.65.23c-2.78-.07-3.28-4.57-5.91-5.48-1.65-.57-3.51.52-5.18,0-2.54-.75-3-4.52-5.48-5.51-1.69-.68-3.65.24-5.43-.2-3.84-1-5.28-6.56-9.24-6.51-1.45,0-2.77,1-4.21.94-2.59-.17,1.2-3-1.38-3.27-2.37-.28-4.19,2.26-6.55,2.57-3.84.51-6.56-5.87-10.12-4.32-1.53.67-2.32,2.44-3.82,3.17-3.51,1.7-7.3-3.31-11.06-2.32-1.89.5-3.21,2.43-5.14,2.72-3,.46-5.41-3.22-8.43-2.92-2.41.24-4.13,2.95-6.55,2.87-1.69-.06,2.42-2,.74-2.23-2.87-.35-4.93,2.86-7.74,3.52-2.36.55-4.71-.77-7.07-1.3s-7.43,4.19-7.45,6.61"/><path class="cls-7" d="M939,72.88c-1-4-1.78-8.14-2.77-12.19-.2-.79-2.15-.2-2.52-.06.37-.14,0-.08-.29-.15a3.42,3.42,0,0,1-.91-.42,3.66,3.66,0,0,1-1.39-1.6c-.55-1.26.07-2.74-.55-4s-2.34-1.26-3.58-1a6.4,6.4,0,0,1-1.61.31,2.76,2.76,0,0,1-1.2-1c-1.57-1.86-2.3-4.35-5.09-4.61-1.51-.14-3.5.81-4.82-.12A9.91,9.91,0,0,1,912,45.25a5.59,5.59,0,0,0-2.51-2.3c-1.66-.65-3.31-.07-5-.16-2.42-.13-4-2.83-5.55-4.4a6.6,6.6,0,0,0-7.16-1.83,12.47,12.47,0,0,1-1.66.53c-.2-.18-.09-.36,0-.61.16-.63.66-1.28.31-1.93-.51-1-2.33-.79-3.19-.66a12.08,12.08,0,0,0-4.47,1.88c-.29.18-.59.34-.89.51s-.37.14-.21.14a3,3,0,0,1-1.38-.47,18.92,18.92,0,0,1-2.73-2.08c-2-1.6-3.88-2.47-6.42-1.74a8.14,8.14,0,0,0-3.66,2.44l-.82.84c-.31.31-.46.2,0,.19a4.79,4.79,0,0,1-1.7-.43c-2.6-1-4.87-2.71-7.82-2.31a9.94,9.94,0,0,0-4.32,1.8,9.76,9.76,0,0,1-1.48,1,6.21,6.21,0,0,1-1.41-.5c-1.25-.62-2.37-1.5-3.67-2A6.85,6.85,0,0,0,842,33a13.29,13.29,0,0,0-4,2,6,6,0,0,0-.8.5l-.28.15c0-.69.55.13.56.13.43,0-.23.18.2,0,.07,0,.23-.21.28-.27.37-.33,1.35-1,1.19-1.6-.24-.91-2.3-.62-2.91-.53a10.92,10.92,0,0,0-4.39,1.84c-1,.68-2.1,1.84-3.4,1.73-1.82-.16-3.47-1.17-5.28-1.4a7.19,7.19,0,0,0-3.57.61,13.4,13.4,0,0,0-5.81,4.8,5.13,5.13,0,0,0-1,2.56c0,.76,3.62.25,3.69-1,.11-2,2.51-4.07,4.07-5,.08,0,.86-.39.49-.29-.57.15.07.11.39.19s.83.26,1.25.39a12.84,12.84,0,0,0,5.34.85,10.65,10.65,0,0,0,4.37-1.54c.61-.37,1.19-.78,1.77-1.19.31-.21,1.43-.81,1.47-.9l.1,0a.22.22,0,0,1-.26-.23c.13,0-.12.16-.14.17a5.28,5.28,0,0,0-.75.67c-.45.42-1.07,1.06-.27,1.48,1,.54,2.77,0,3.78-.36,1.44-.52,2.52-1.55,3.87-2.21.19-.1.44-.19.2-.17a2.16,2.16,0,0,1,.86.2,8.81,8.81,0,0,1,1.76.89,12.54,12.54,0,0,0,3.65,1.75,7.42,7.42,0,0,0,4.36-.5,10.27,10.27,0,0,0,1.94-1.09,7.72,7.72,0,0,1,1.69-1.14c.6-.17,2.08.54,2.82.89A23.91,23.91,0,0,0,863,37.08a7.85,7.85,0,0,0,7.79-2.52c.23-.24.45-.5.7-.73l.25-.22c.41-.26.34-.28-.2-.06h-.18a.83.83,0,0,1,.34.07c.21.09.43.15.63.26A17.33,17.33,0,0,1,875.07,36c2,1.65,4,2.56,6.67,1.92a14.9,14.9,0,0,0,4-1.89c.64-.38,1.33-.84,1,.24-.15.55-.61,1.2-.37,1.78.44,1.05,2.4.82,3.22.68,1.25-.21,2.57-1.14,3.8-.63a7.59,7.59,0,0,1,2.5,2c1.58,1.73,3.07,3.75,5.52,4.24,1.56.32,3.22-.35,4.73,0,1.29.32,2.06,1.66,2.73,2.68a6.82,6.82,0,0,0,2.6,2.75,5.27,5.27,0,0,0,2.42.41,27.58,27.58,0,0,1,2.83-.33c2.53.21,3.09,4.18,5.2,5.25a4.11,4.11,0,0,0,1.89.41,7.46,7.46,0,0,0,1.15-.11c.29-.05,1.27-.46,1.54-.37,1.06.36.51,3.1.74,3.93.92,3.39,5,3.73,7.78,2.73l-2.52-.06c1,4,1.77,8.14,2.77,12.19.25,1,3.94,0,3.69-1Z"/><path class="cls-12" d="M897.82,51.59c14.18,5.21,20,10.06,27.24,23.33L844,48.48a71.9,71.9,0,0,1,17.39-2.14C876.49,46.63,883.64,46.38,897.82,51.59Z"/><path class="cls-7" d="M896.36,52.51c5.65,2.08,11.35,4.51,16,8.46s8,9.14,10.87,14.45l3-1.53-27.44-9L855.06,50.69l-9.94-3.24-.85,2A79.27,79.27,0,0,1,856,47.57c3.72-.29,7.47-.1,11.19,0a94.81,94.81,0,0,1,18,1.65,85.2,85.2,0,0,1,11.17,3.31,3,3,0,0,0,2.61-.33c.43-.28,1.18-1.19.31-1.51a80.63,80.63,0,0,0-19.82-4.76c-3.2-.32-6.41-.43-9.61-.51-3.9-.09-7.81-.26-11.7-.07a83.6,83.6,0,0,0-14.41,2.18c-1,.22-2.43,1.5-.85,2l27.44,8.95L914,72.72,924,76c.6.2,3.55-.45,3-1.53-3-5.47-6.35-10.85-11.15-14.93s-10.61-6.66-16.48-8.83a3,3,0,0,0-2.62.33C896.23,51.28,895.49,52.19,896.36,52.51Z"/><path class="cls-12" d="M782.34,54.91c.39-.19.78-.38,1.14-.58,1.88-1.07,3.3-4,1.54-5.22,3.91,1.51,6.58-5.28,10.77-5.29a24.27,24.27,0,0,1,3.52.75,5.51,5.51,0,0,0,6-5.56,13.31,13.31,0,0,0,10.09.92L844,48.48c-12.42,2.86-25,7.76-37,9.49-5.75.83-11.6,1.86-16.71,4.63-3.72,2-8.48,3.19-12.3,5.34C779.45,63.59,780.85,59.23,782.34,54.91Z"/><path class="cls-7" d="M783.46,55.36a7.43,7.43,0,0,0,3.73-3.26,2.84,2.84,0,0,0-.45-3.68L783.54,50a7.37,7.37,0,0,0,6.64-1.39,31.69,31.69,0,0,0,2.42-2.06A6.58,6.58,0,0,1,795,44.76c.94-.19,2.37.64,3.34.75a8.71,8.71,0,0,0,4.36-.68,6.81,6.81,0,0,0,4.49-6.31l-3.32,1.33a16,16,0,0,0,11.79.89l-1.7,0,25,7.48,3.56,1.07,1.27-1.65c-9.25,2.15-18.23,5.28-27.45,7.57-8.78,2.18-18.13,2.38-26.34,6.5-4.26,2.14-8.91,3.44-13.09,5.75l3,.19c1.42-4.35,2.83-8.71,4.32-13,.37-1.08-3.28-.62-3.67.52-1.49,4.32-2.9,8.68-4.32,13-.4,1.24,2.6.39,3,.19,3.63-2,7.69-3,11.41-4.88A39.44,39.44,0,0,1,796.3,61a51.07,51.07,0,0,1,6.47-1.52c4.32-.75,8.62-1.36,12.89-2.38,4.47-1.07,8.89-2.37,13.31-3.67,5.06-1.48,10.11-3,15.25-4.17.38-.08,2.57-1.25,1.27-1.64L817.9,39.39a7.39,7.39,0,0,0-1.73-.41,15.35,15.35,0,0,0-2.48.5,9.86,9.86,0,0,1-2,.08,12.21,12.21,0,0,1-4.84-1.38c-.84-.43-3.36.15-3.32,1.33,0,1.69-1.21,4.41-3.24,4.1a26.32,26.32,0,0,0-3.53-.73,8.25,8.25,0,0,0-3.14.58,14.42,14.42,0,0,0-4.32,3,18.73,18.73,0,0,1-2,1.68,3.33,3.33,0,0,1-.64.35c.45-.18.28,0-.13-.18a3.31,3.31,0,0,0-2.39.28c-.32.16-1.36.79-.81,1.25a2,2,0,0,1,.36,2.53,4.49,4.49,0,0,1-2.43,2.12c-.54.26-1.06.9-.37,1.28S782.8,55.68,783.46,55.36Z"/><path class="cls-10" d="M783.59,239.71a39.69,39.69,0,0,0,4.5,10.47c-1.33.47-.74,2.6.32,3.54s2.54,2,2.26,3.4c-.09.49-.41.92-.49,1.41-.28,1.56,1.6,2.49,3.1,2.87-1,.82-.12,2.48.9,3.28s2.33,1.82,2,3.09c-.16.63-.71,1.14-.68,1.79,0,1.35,2.21,1.32,3,2.44.42.65.26,1.52.45,2.28a2.43,2.43,0,0,0,3.76,1.24c.34,2.73,1.54,6.25,4.23,6.07,1.66-.11,3.22-1.77,4.75-1.1,1,.42,1.38,1.57,2.25,2.13,3,1.88,6.48-4.44,9.43-2.56,1.59,1,1.57,3.84,3.35,4.42s3.14-1.46,4.89-1.68,3.87,1.7,5.56.77c.73-.4,1.12-1.24,1.75-1.8,1.42-1.29,2.91.61,4.73,1.16,3.26,1,3.52-1.4,3.52-1.4.92-2.34,2.19-2.18,4.36-1a5.34,5.34,0,0,0,2.2,1.06c2,.06,2.9-3.33,4.9-3.17a6.4,6.4,0,0,1,2,.92c2.45,1.11,5.4-2.26,4.06-4.63a5.68,5.68,0,0,0,5.29-6.25,5.07,5.07,0,0,0,6.28-4.6c3.35.89,6.82-3.21,5.47-6.48a4,4,0,0,0,5.1-3.85c-.06-1.31-.63-3,.42-3.7.69-.49,1.63-.18,2.47-.2a3.29,3.29,0,0,0,2.64-4.54c3.32.8,6.31-4,4.24-6.73,2.61.55,4.9-3.18,3.29-5.35,3.57-.17,5.92-5.09,3.86-8.09l-40.64,44-10.58,5.12s-37.68,4-44.86.82S783.59,239.71,783.59,239.71Z"/><path class="cls-7" d="M781.77,240.2a40.8,40.8,0,0,0,4.5,10.47l.76-.75a2.16,2.16,0,0,0-1.36,2.88c.47,1.34,1.69,1.92,2.55,2.95a2,2,0,0,1,.48,2.21,2.75,2.75,0,0,0-.27,1.92c.48,1.31,2.14,1.91,3.36,2.24l-.16-.6c-1.93,2,1.11,3.69,2.23,5a1.86,1.86,0,0,1,.48,1.7c-.14.5-.52.88-.61,1.41-.17.9.43,1.41,1.16,1.79s1.76.68,2,1.76.08,2.05,1,2.84c1.64,1.36,4.57.71,6.14-.44l-3.22.41c.35,2.63,1.39,6.21,4.58,6.35a7.64,7.64,0,0,0,2.76-.44c.48-.16.94-.34,1.39-.54.16-.07.33-.14.48-.22.76-.39-.24.12-.21-.05a16.56,16.56,0,0,1,1.81,1.69,3.08,3.08,0,0,0,1.73.89c2.91.47,5.33-1.52,7.62-2.94l.64-.36a2.46,2.46,0,0,0-.47.1s.58.3.66.36a3.06,3.06,0,0,1,.72.92c.61,1.07.93,2.5,2.06,3.18,1.41.85,3.46.26,4.83-.38.68-.32,1.29-.85,2-1.1-.66.24-.23,0,0,.18a4.87,4.87,0,0,0,.68.22c.45.15.88.33,1.33.47a6.44,6.44,0,0,0,5.25-.79,4.91,4.91,0,0,0,.9-.8c.12-.14.23-.29.34-.43.35-.42.7-.48-.27-.3-1.19.24-.55,0-.27.27a3.77,3.77,0,0,0,.59.32c.42.23.83.48,1.26.69,2.13,1,6.34,1,7.53-1.54a5.34,5.34,0,0,0,.16-.53c.1-.26.28-.51.37-.77.15-.46.82-.51-.46-.18-1.43.37-.71.08-.43.27.63.43,1.47.69,2.14,1.11a4.1,4.1,0,0,0,2.37.71,6.5,6.5,0,0,0,4.62-2.2c.24-.26.47-.54.72-.81.11-.1.32-.23.38-.36.26-.22.08-.19-.54.07-.7,0-.83.12-.41.26a4.5,4.5,0,0,0,2.57,1c3,.21,8-2.47,6.23-6.09l-2.61,1.25c4-.17,8.34-3.06,7.9-7.5l-3.31,1.21c3.9,1.09,9.33-1.45,9.59-5.81l-3.31,1.21c4.22.93,10.59-2.72,8.78-7.69l-3.31,1.21a7.66,7.66,0,0,0,6.36-1.28c1.86-1.34,2.13-3,1.9-5.15a5.36,5.36,0,0,1-.06-.69,8.11,8.11,0,0,0,.15-.88c.17-.3,0-.28-.55,0-.73.15-.81.22-.23.22a6.12,6.12,0,0,0,.74,0,7.44,7.44,0,0,0,3.55-.91c1.72-1,2.91-2.94,2.08-4.88l-3.31,1.2a7.55,7.55,0,0,0,6.76-2.17c1.4-1.57,2-3.93.79-5.77l-3.31,1.21a6.88,6.88,0,0,0,5.85-1.82,3.87,3.87,0,0,0,.75-4.74l-2.6,1.25a8,8,0,0,0,6.19-3.3,5.62,5.62,0,0,0,.27-6c-.54-.85-3,.06-3.47.61l-18.29,19.81L862,268.51c-.08.08-.52.44-.52.56,0-.31.91-.5.38-.28-.2.08-.4.19-.59.28l-1.91.92-7.86,3.81,1.84-.49c-11.63,1.24-23.45,2.29-35.15,2a33.7,33.7,0,0,1-7.89-.78c-2-.53-3.49-2.12-4.86-3.65-4.82-5.4-8.61-11.83-12.29-18-2.67-4.49-5.25-9-7.69-13.65-.48-.92-4,.37-3.64,1,2,3.85,4.18,7.65,6.38,11.42a152.23,152.23,0,0,0,12.26,18.69c1.48,1.84,3.16,4,5.32,5.12s4.54,1.14,6.76,1.29a167.81,167.81,0,0,0,22.31-.46q8.18-.54,16.32-1.37a14.43,14.43,0,0,0,4.86-1.73c2.66-1.29,5.37-2.52,8-3.87a7,7,0,0,0,1.88-1.69l3.87-4.2,13-14L905,225.25l.4-.43-3.47.61a4.84,4.84,0,0,1,.52,4.11,5.49,5.49,0,0,1-.94,1.83,6.12,6.12,0,0,1-.71.73c-.22.21-.48.19-.13.17-.26,0-3,.62-2.6,1.24a3,3,0,0,1,.42,2.49,4,4,0,0,1-.46,1c-.13.21-.33.38-.47.58-.34.52-.68-.15.53,0-.38-.06-3.82.47-3.31,1.21a3.78,3.78,0,0,1,.43,3.48,4.86,4.86,0,0,1-.88,1.55c-.1.11-.61.47-.62.57s-.13.06-.07.07c.54-.07.62-.12.21-.15s-3.69.32-3.31,1.21a2.9,2.9,0,0,1,.09,2.22,3.37,3.37,0,0,1-.48.87,2.78,2.78,0,0,1-.42.42c.93-.17,1.07-.26.43-.26a5.79,5.79,0,0,0-4.8,1.33c-1,1.07-.38,2.59-.35,3.86a3.4,3.4,0,0,1-.78,2.2,3.08,3.08,0,0,1-.68.62c-.16.11-.07.1.26,0a2.41,2.41,0,0,1-.59-.14c-.5-.16-3.63.33-3.31,1.21a4.28,4.28,0,0,1-.25,3.58,4.72,4.72,0,0,1-1.1,1.41,2.34,2.34,0,0,1-.55.4c.36-.16.1,0-.25-.13-.76-.16-3.25.16-3.32,1.21a4.5,4.5,0,0,1-1.2,2.8c-.64.67-.92.84-1.77.6-.64-.18-3.41.21-3.31,1.21a5.29,5.29,0,0,1-.73,3.27,5,5,0,0,1-1,1.25c-.45.39-.58.46-.92.48s-3,.55-2.61,1.25a2.65,2.65,0,0,1,.25,1.91,3.5,3.5,0,0,1-.32.81c-.14.24-.76.74-.77.93,0,.35.61-.22.61-.07a3.12,3.12,0,0,1-.43-.15,8.84,8.84,0,0,0-1-.56,3.87,3.87,0,0,0-2.27-.38,6.27,6.27,0,0,0-3.86,1.8c-.41.42-.77.89-1.19,1.3-.25.24-.87.6.07.12s.49-.14.19-.43a2.94,2.94,0,0,0-.6-.39c-2.28-1.4-5.77-1.84-7.58.61a4.09,4.09,0,0,0-.83,1.78c-.06.31-.81.47.35.09,1-.32.34-.19-.16-.33a13.72,13.72,0,0,1-2.34-1.15,5.12,5.12,0,0,0-4.59.05,4.68,4.68,0,0,0-1.63,1.26c-.36.43-1.11.92-.18.73s0-.22-.46-.37a8.13,8.13,0,0,0-4.74-.57,9.54,9.54,0,0,0-2.32.87c-.31.17-.61.35-.91.53-.09.05-.33.14-.39.23s.39,0,.32-.14-.57-.46-.71-.66a5,5,0,0,1-.4-.71c-.3-.59-.53-1.22-.88-1.78a3.19,3.19,0,0,0-2.68-1.6c-2.72-.14-4.89,1.52-7,2.91-.14.09-.55.24-.64.38-.22.33.36-.16.36-.05a7.75,7.75,0,0,1-.72-.4,9.39,9.39,0,0,1-.94-1.05c-1.25-1.43-3-1.32-4.69-.8a14.64,14.64,0,0,1-2.47,1c.65,0-.22-.34-.43-.49a3.88,3.88,0,0,1-.73-.73,9.84,9.84,0,0,1-1.59-4.68c-.12-.86-2.87.15-3.22.41,1.13-.08,1.41-.16.83-.25a1.47,1.47,0,0,1-.52-.25,1.92,1.92,0,0,1-.71-.76c-.42-.84-.1-1.85-.59-2.67-.63-1-2.32-1-2.84-2-.37-.72.38-1.4.55-2.06a2.13,2.13,0,0,0-.48-1.9c-.67-.89-4-2.85-2.58-4.28.25-.27.2-.5-.16-.6-1-.28-2.44-.78-2.74-1.91s.87-2.1.29-3.35a9.32,9.32,0,0,0-2.19-2.33,3.29,3.29,0,0,1-.86-1.4,3.92,3.92,0,0,1-.13-1.24c.14-.06.94-.47.77-.76a40.8,40.8,0,0,1-4.5-10.47C785.18,238.37,781.54,239.34,781.77,240.2Z"/><path class="cls-13" d="M917.21,157.25c-3.86-3.73.82-11-2.19-15.44a35.88,35.88,0,0,1-2.35-2.9c-1.64-3.09,1.16-7.08-.2-10.3-.62-1.45-2-2.49-2.48-4-.94-2.85,1.71-5.78,1.37-8.76-.39-3.34-4.43-6.13-3.18-9.26.6-1.53,2.34-2.41,2.87-4,.91-2.71-2.17-6.23-.14-8.24.71-.7,1.84-.89,2.42-1.7,1.17-1.63-.83-3.58-1.63-5.41s-.28-4.1-.54-6.15-2.21-4.29-4.08-3.41c1.07-3.25-1-12-4.41-11.62-1.67.21-3.82,1-4.72-.39-.64-1,0-2.44-.5-3.51-1.35-2.75-6.05,1.42-8.5-.41-.67-.5-1-1.34-1.54-1.95-1.28-1.38-3.5-1.24-5.31-.7s-3.63,1.39-5.48,1.07-3.47-2.58-2.34-4.09c-1.91,1.13-3.9,2.3-6.12,2.47s-4.7-.94-5.32-3.07c-.55,3.12-5.3,4.38-7.33,1.95-.81-1-1.37-2.43-2.62-2.56a2.79,2.79,0,0,0-1.6.46c-2.2,1.23-5.11,8.06-6.29,10.28l.84-13.76,38.33-5.83L916,64.62l12.24,39.83-12.57,55.37"/><path class="cls-7" d="M918.94,156.63c-2-2-1.55-5.09-1.27-7.65.31-2.75.7-5.79-1.14-8.11-1-1.25-2.22-2.22-2.48-3.9a14.91,14.91,0,0,1,.44-4.65,7.24,7.24,0,0,0-.34-4.53c-.71-1.4-2.06-2.43-2.42-4-.73-3.2,2.26-6.06,1.27-9.33-.74-2.48-3.73-4.9-3.16-7.67.33-1.55,1.82-2.42,2.63-3.69a4.72,4.72,0,0,0,.35-3.79c-.29-1.23-.92-2.59-.76-3.89.22-1.63,2-1.75,2.94-2.86,1.14-1.39.12-3-.65-4.28a9.56,9.56,0,0,1-1.27-5.54c0-1.87-.15-3.67-1.62-5s-3.38-1-5-.38l2.44.06c.82-2.68.13-6-.92-8.52a6.43,6.43,0,0,0-2.21-3.07c-1.37-.84-2.93-.25-4.39-.07-2.73.35-1.31-2.81-2.19-4.23-.77-1.24-2.48-1.08-3.72-.87s-2.82,1.1-4,.87c-.92-.17-1.33-1-1.84-1.73a3.9,3.9,0,0,0-2.26-1.56c-2.43-.65-5,.28-7.31,1a3.05,3.05,0,0,1-3.34-.51,2.29,2.29,0,0,1-.57-2.93c.29-.46-.91-.39-1-.39a5.2,5.2,0,0,0-2.21.69c-1.47.86-3.09,2-4.88,1.7A4.29,4.29,0,0,1,864.68,55c-.27-.77-3.51.14-3.66.83a3,3,0,0,1-1.54,2.21c.34-.14.16,0,0,0a3.51,3.51,0,0,1-.72-.13,3.29,3.29,0,0,1-1.33-.83c-.86-.89-1.26-2.24-2.51-2.71-1.48-.54-3.37.13-4.69.81-1.91,1-3.05,3.07-4.05,4.89s-2,4-3,5.94l3.66-.82.84-13.76-2.19,1.15,33.63-5.12,4.7-.72-1.39,0L908,61.63l5.23,3.05a4.71,4.71,0,0,1,1,.55c-.22-.22,0,.28.09.47l3.89,12.66,5.55,18,2,6.38c.17.56.31,1.15.52,1.7,0,.14.16.65.16.34a12.46,12.46,0,0,1-.58,2.54l-1.32,5.84-4,17.44-6.59,29-.12.52c-.17.75,3.43.24,3.63-.66l2.73-12,5.47-24.09,4.05-17.83a3.87,3.87,0,0,0,.19-2.17l-2.1-6.82-7.07-23-2.48-8.08c-.36-1.15-.39-1.42-1.41-2L898.7,52.91l-9.37-5.47c-1.49-.86-3-2.26-4.82-2-5.46.73-10.89,1.66-16.33,2.49l-20.76,3.16-1.23.18c-.49.08-2.15.43-2.19,1.15l-.84,13.76c0,.71,3.35-.25,3.66-.82,1.08-2.06,2-4.19,3.15-6.22a18.28,18.28,0,0,1,1.91-2.94c.15-.17.77-.58.84-.76q-1.59.06-.75.45l.24.18a6.32,6.32,0,0,1,.79,1,5,5,0,0,0,2.48,2.17,7.07,7.07,0,0,0,3.51.12c2.29-.43,5.11-1.6,5.66-4.14L861,56c.81,2.35,3.31,3.34,5.64,3.33,3.29,0,6.3-1.55,9.06-3.18l-3.22.29c-1,1.51.07,3.32,1.51,4.07,2,1,4.64.33,6.66-.31,2.25-.7,4-1.23,5.56,1a3.85,3.85,0,0,0,4,1.77,15,15,0,0,0,2.65-.52,8.79,8.79,0,0,1,1.7-.47c1.88-.05,1,2.88,1.41,3.91.74,1.88,3.36,1.4,4.89,1.12l.67-.12c.13,0,.78,0,.33-.09s.26.15.37.2a4,4,0,0,1,1.33,1.38c1.6,2.54,2.62,6.74,1.72,9.67-.24.81,2.19.16,2.45.07l-.45.07c-.52,0-.61.06-.27.13a4.12,4.12,0,0,0,.47.22,3.45,3.45,0,0,1,.77.66,4.65,4.65,0,0,1,1.06,2.25c.3,1.7-.1,3.45.22,5.15s1.53,2.88,2.11,4.44a1.92,1.92,0,0,1-.17,2c-.46.51-1.28.72-1.83,1.14-2.27,1.75-.75,4.4-.35,6.67a4.21,4.21,0,0,1-1.42,4,5.09,5.09,0,0,0-1.75,3.34c-.07,2.68,2.48,4.73,3.22,7.18,1,3.2-1.88,6-1.31,9.14.28,1.55,1.51,2.58,2.28,3.88a6.26,6.26,0,0,1,.6,4.23,26.46,26.46,0,0,0-.59,4.59,5.65,5.65,0,0,0,1.77,3.73,7.16,7.16,0,0,1,2.11,4.13,19.39,19.39,0,0,1-.16,4.5c-.31,2.87-.75,6,1.45,8.23.64.66,4-.7,3.47-1.24Z"/><path class="cls-10" d="M918,182.2l-3.27.4a1.59,1.59,0,0,1-1-.1c-.73-.44-.34-1.53-.13-2.35.49-1.91-.59-3.82-1.45-5.59s-1.44-4.07-.17-5.58c.67-.8,1.83-1.33,1.93-2.36.14-1.35-1.54-2-2.46-3a3.3,3.3,0,0,1,1.42-5.13s-2.4-2.57-1.61-7.72,2.24-10.67,2.24-10.67l7.61-4.4Z"/><path class="cls-7" d="M918.2,181l-2.33.28-.7.08c-.32,0-.31,0,0,.17,0-.25,0-.49,0-.75a7.09,7.09,0,0,0,0-4c-.67-2-3.33-5.39-1.61-7.52.68-.84,1.68-1.3,2-2.4a2.59,2.59,0,0,0-1-2.8c-.75-.67-1.76-1.18-2-2.24a2.67,2.67,0,0,1,.11-1.48,2.1,2.1,0,0,1,.32-.61c0-.08.38-.3.09-.19.55-.2,2.19-1,1.4-1.88-1.79-2-1.77-5.15-1.39-7.58.55-3.44,1.29-6.86,2.18-10.23l-.67.89,7.61-4.39-3-.53-1,15.67-1.69,25.12-.39,5.75c-.11,1.72,3.61,1.1,3.71-.37l1.06-15.66,1.68-25.12.39-5.75c.1-1.56-2.31-1-3-.52l-5,2.87c-.81.47-1.66.9-2.44,1.41a2.53,2.53,0,0,0-1.07,1.79q-.63,2.53-1.16,5.09a33.76,33.76,0,0,0-1,6.84c0,2.1.44,4.64,1.93,6.26l1.4-1.87c-2.5.88-4.71,3.52-3.31,6.26a4.77,4.77,0,0,0,1.33,1.5c.44.35,1.25.82,1.41,1.41s-.55,1.06-1,1.46a5,5,0,0,0-1.33,1.78c-1.46,3.62,2.23,6.31,2.16,9.75,0,1.32-1.12,3,.41,4s3.94.11,5.5-.08c.74-.09,2-.5,2.06-1.38S918.83,180.93,918.2,181Z"/><path class="cls-13" d="M789,61c.46,1.06-1,1.93-2.13,2.07s-2.65.39-2.83,1.54c-.11.71.4,1.4.29,2.11-.33,2.16-4.52.38-5.63,2.26-.84,1.42,1,3.64-.29,4.7-.6.51-1.49.33-2.26.4a3.33,3.33,0,0,0-2.86,2.48c-.23,1,0,2.09-.56,2.94-.65,1-2.05,1.18-3.15,1.71-2.89,1.37-3.51,5.17-3.52,8.37s0,6.86-2.41,9c-2.27-1.9.11-3.91,1.88-6.29a16.48,16.48,0,0,0,1.64-2.1,2,2,0,0,0-.26-2.46c-.34-.27-.83-.39-1-.78-.59-1.11,1.53-1.41,2.52-2.19,1.24-1,.47-3-.51-4.2s-2.12-2.88-1.31-4.23c.71-1.2,2.54-1.31,3.27-2.49.82-1.34-.27-3.1.07-4.64.45-2,3-2.66,5.1-2.88a3.26,3.26,0,0,1,1.36-5c.78-.26,1.74-.26,2.25-.9.76-1-.08-2.67.84-3.48s2.13-.08,3-.7c1.32-1-.33-3.21.39-4.69,1-2,5.24-1.25,5-3.41"/><path class="cls-7" d="M787.12,61.46c.23.79-.89.61-1.45.73a5.74,5.74,0,0,0-2.7,1.25,2.31,2.31,0,0,0-.78,2.16,4,4,0,0,0,.27,1.3c.52.67-.29,0,0,.12a.82.82,0,0,1,.59-.28c.12,0,.05,0-.19,0a9.17,9.17,0,0,0-4.33.77,3.2,3.2,0,0,0-1.8,3.95,11.45,11.45,0,0,1,.22,1.14,2.13,2.13,0,0,0,0,.5c.14.22,1,0,.66-.21a3.6,3.6,0,0,0-1.26,0,7,7,0,0,0-2,.51,5,5,0,0,0-3.12,4.4c-.1,1.09-.15,1.6-1.21,2a10,10,0,0,0-2.67,1.33,8,8,0,0,0-2.77,4.5c-1,3.88.74,9.43-2.5,12.47l3.2-.39c-1.65-1.53,0-3.13,1.11-4.47s2.85-2.85,2.84-4.71a2.38,2.38,0,0,0-1.22-2,.75.75,0,0,1-.46-.38c-.14.15-.15.2-.05.16a2.74,2.74,0,0,1,.6-.27c1.5-.72,2.9-1.69,2.68-3.56s-1.91-3-2.53-4.76c-.71-2,1.63-2.16,2.73-3.28,1.49-1.51.63-3.13.65-5s1.62-2,3.06-2.16c.65-.08,2.72-.82,1.94-1.83a2.6,2.6,0,0,1,0-3.18c.34-.35.76-.28,1.29-.45a4.56,4.56,0,0,0,2.08-1.18,2.85,2.85,0,0,0,.71-1.72c0-.32,0-.64,0-1l0-.31c.15-.35,0-.41-.29-.21s-.45.13,0,.09q.32,0,.63,0a6.17,6.17,0,0,0,1.11-.2,3.88,3.88,0,0,0,2-1.16c.78-.94.56-2,.37-3.14-.15-.86-.31-1.65.57-2,1.8-.64,4.59-1.06,4.48-3.51,0-1.27-3.75-.51-3.68,1,0,.29.06.07-.16.2a10.22,10.22,0,0,1-1.29.38,6.4,6.4,0,0,0-3.07,1.75c-.87,1-.69,2.23-.48,3.46,0,.29.06.61.13.89l0,.26c-.13.43.11.38.71-.13a15.24,15.24,0,0,0-2.07.22,3.16,3.16,0,0,0-2.58,2.84c0,.32,0,.65,0,1,0,0-.16.8,0,.59-.16.16-.81.18-1.06.26a6.21,6.21,0,0,0-1.16.49c-2.22,1.22-3.29,4.12-1.64,6.24l1.94-1.83c-2.62.3-6.69,1.22-7.2,4.36-.21,1.29.89,3.5-.2,4.44s-2.62,1.11-3.22,2.71.51,3.17,1.43,4.4c.62.82,1.8,2.58.64,3.34-.94.62-2.73,1-2.77,2.42a1.6,1.6,0,0,0,.83,1.32c.8.55,1.1,1.11.6,2.06-1.34,2.54-6.7,6-3.41,9,.83.76,2.47.29,3.2-.39,3.2-3,2.51-7.28,2.84-11.23.14-1.73.46-3.76,1.68-5.09s3.53-1.19,4.7-2.88c.85-1.23.17-4.08,1.77-4.53.52-.15,1.17,0,1.72-.16a4.8,4.8,0,0,0,1.58-.63,2.55,2.55,0,0,0,1.28-2,11.54,11.54,0,0,0-.34-2.26,2.8,2.8,0,0,1,0-1c0,.09-.48,0,0,.06a7.81,7.81,0,0,0,4.58-1,2.36,2.36,0,0,0,1.18-2c0-.59-.35-1.17-.31-1.75,0-.2-.1-.18.31-.18,1.77,0,5.31-1.43,4.65-3.72-.39-1.37-4.08-.37-3.69,1Z"/><path class="cls-14" d="M922.22,162.59l-.29-4.46-46.65-11.24h0c-16.74-5.72-39.75-.18-52.88,9L810.57,157l.1-.19c-14.24-9.55-37.24-10.11-54.49-1.34l.54,1.83h0c0,.12.14.38.25.76l.5,1.59c3,10.14,6.57,20.85,9.58,23.58,2,1.84,8.44,2.49,13.71,2.68,2,.09,3.82.1,5.13.11,1.57,0,15.52-.1,17.76-2.36s5.57-18.55,6.49-23.68l12.14-1.09c1.7,3.89,5.54,20.79,11.61,24s36.39.54,39-3.79c1.87-3.1,7.14-14.21,8.4-19.86l2.24-7.3Zm-120,19.51c-2.46,2.18-30.23,2.66-33.73-.51-3-2.68-7.31-17.14-9-22.58v-.23c15.44-7,36.17-6.49,48.55,1.57-1.79,8.88-4.46,20.3-5.86,21.71Zm67.1-4.1c-1.64,2.74-28.1,6.22-34.36,2.91-4.35-2.28-7.36-14.62-9.67-21.67,12.84-8.72,39.75-13.42,54.68-7.36-2.29,8.91-6,19.43-10.65,26.12Z"/><path class="cls-15" d="M801.87,181.83c1.4-1.4,4.08-12.82,5.86-21.7-12.37-8.06-33.1-8.54-48.55-1.57l0,.23c1.64,5.43,6,19.9,8.95,22.58,3.5,3.17,31.27,2.69,33.73.51Z"/><path class="cls-15" d="M869.28,178c5-7.3,8.36-17.21,10.65-26.12-14.93-6.06-41.84-1.36-54.68,7.36,2.31,7,5.32,19.39,9.67,21.67,6.26,3.31,32.72-.17,34.36-2.91Z"/><path class="cls-7" d="M854.06,214.73c1.55,1.23,3.21,2.66,3.45,4.63a7.62,7.62,0,0,1-.14,2.13l-.54,3.29a1.21,1.21,0,0,1-.21.62,1.32,1.32,0,0,1-.63.33,5.25,5.25,0,0,1-2.27.35,1.79,1.79,0,0,1-1.59-1.43,2.92,2.92,0,0,0-.1-.94c-.28-.54-1.07-.44-1.67-.56-1.52-.32-1.92-2.22-2.65-3.59a7.92,7.92,0,0,0-5-3.56,15.62,15.62,0,0,1-3-1,3,3,0,0,1-1.76-2.46"/><path class="cls-7" d="M787.85,217.34c-1.41,1.39-2.91,3-2.94,5a7.74,7.74,0,0,0,.37,2.12l.88,3.21a1.29,1.29,0,0,0,.28.59,1.17,1.17,0,0,0,.66.26,5.23,5.23,0,0,0,2.29.11,1.8,1.8,0,0,0,1.44-1.59,2.7,2.7,0,0,1,0-.94c.22-.58,1-.55,1.6-.74,1.48-.47,1.68-2.41,2.25-3.85a7.94,7.94,0,0,1,4.57-4.06,15.59,15.59,0,0,0,2.89-1.28,3,3,0,0,0,1.5-2.63"/><path class="cls-7" d="M854.38,211.27a6.3,6.3,0,0,0-3.5-2.24,13.39,13.39,0,0,0-2.09-.17c-.56,0-.21.14-.55-.21s-.4-.64-.62-.91a4.68,4.68,0,0,0-3.84-1.77,5.51,5.51,0,0,0-2.13.62c-.3.15-.63.32-.92.5s-.41.18-.14.14.22,0-.12-.13a6.35,6.35,0,0,0-3.1-1.48,4.07,4.07,0,0,0-2.32.49c-.33.18-.64.53-1,.69.5-.24.21-.17-.2-.53-1.06-.93-1.85-2-3.35-2.16a5.49,5.49,0,0,0-2.71.44,4,4,0,0,1-1,.41c-.21,0,.21.24,0-.06-1-1.46-4.49,0-3.36,1.66a3.46,3.46,0,0,0,3.53,1.18c.72-.12,1.42-.63,2.12-.71.5-.05.26-.1.66.18a6,6,0,0,1,.77.74,4.58,4.58,0,0,0,4,1.6,3.66,3.66,0,0,0,2.06-.94c.38-.23.37-.29,0-.2s-.4,0-.14.1a4.64,4.64,0,0,0,.79.51,4.87,4.87,0,0,0,3.79.92,8,8,0,0,0,2-.87c.58-.32.69-.26,1.23.34s.69,1.16,1.24,1.6a3.39,3.39,0,0,0,1.85.7c1.52.14,2.59-.12,3.68,1.22s4.59-.13,3.36-1.66Z"/><path class="cls-7" d="M812,207a5.75,5.75,0,0,0-4.45.59c-.6.31-1.15.72-1.73,1.07l-.44.23c.77-.36.12-.15-.25-.16a6.07,6.07,0,0,0-2.88.57c-.52.26-1.53.9-1.69,1.54,1.62-.17,2-.36,1.21-.56l-.32-.12c-.42-.18-.81-.43-1.23-.59a4.6,4.6,0,0,0-5.66,2.29c-.08.15-.4.48-.42.64,1.17-.27,1.43-.4.79-.37l-.67-.06a7.72,7.72,0,0,0-2.2.14c-1.16.24-3.27,1-3.23,2.5-.2.56.1.56.92,0l-.24,0a7.5,7.5,0,0,0-1.39.37c-.56.23-1.32.61-1.43,1.27-.18,1.12,3.49.48,3.66-.57-1.27.46-1.64.63-1.08.52l.61-.13a6.13,6.13,0,0,0,.83-.26,3.1,3.1,0,0,0,1.48-1c.12-.19.56-1.18.44-1.38.18.28-1.57.19-.37.27l.88.05a6.44,6.44,0,0,0,3.95-1.1,3.71,3.71,0,0,0,.87-1c.14-.22.25-.46.37-.69s.49-.49,0-.32l-1.44.31c.56,0,1.37.63,1.9.81a4.56,4.56,0,0,0,1.94.25,5.36,5.36,0,0,0,2.4-.75,3.22,3.22,0,0,0,.82-.65,3.37,3.37,0,0,0,.28-.38c.35-.43,0-.39-1.09.13a4.85,4.85,0,0,0,2.11,0,8.15,8.15,0,0,0,2.16-.7,13.35,13.35,0,0,0,1.41-.83,5.47,5.47,0,0,0,.65-.41l.28-.15c-.9,0-1.15.08-.73.24a3.52,3.52,0,0,0,2.59-.42c.4-.22,1.21-.87.4-1.16Z"/><path class="cls-4" d="M517.05,494.67s-12-27.6-23.09-36.06c-3.11-2.38-37.5-19.61-37.5-19.61s-5.88,9.25,7.28,15.66c14.21,6.91,11.58,8.16,11.58,8.16l-.1,1.57-24.56-2s-27.49-6.86-34.26-7.91-21.16-4-25.14,3.89c0,0-10.49-2.92-12.41,1.91a7.83,7.83,0,0,0-.19,7.23l4.6,2.64s-3.1.48-2.61,5.75S425,497.32,425,497.32l1.73,2.41s-31-6-32.52-3.47-3.11,4.44,1.24,7.19,85.79,30.42,95.71,31.67,27.9,7.37,27.9,7.37l12.14-41.86Z"/><path class="cls-5" d="M781.82,300.54s-31.7,15.17-52.76,30.16S670.6,433,658,458.31s-45.88,79.09-45.88,79.09l103.11,47.54L788.42,470.8l18-175.34Z"/><path class="cls-16" d="M1065.17,746.33l-2,72.19a510.29,510.29,0,0,1-26.64,149.08l-31.46,135.77s-5.52,131.43.08,205.81c4.89,64.48-7.44,184.42-7.44,184.42l-117.38-2.82L847.08,1108,827.56,874.28,787.93,752.16Z"/><path class="cls-16" d="M755.37,766.27l24,353.18a148.3,148.3,0,0,0,8.82,52.73l53,259.78,4.6,33.45,65.25-2.85L879.43,746.33Z"/><path class="cls-5" d="M1040.67,412.94s-5.11,182.72,3.84,227.72,22.18,101.7,20.66,131.06S943.11,805,880,803s-133.63,2.29-137.27-30.65S880,683.68,880,683.68Z"/><path class="cls-17" d="M834.22,828.51v25.82c0,16.59.47,40.63,1.24,70.32,1.74,59.38,5.72,141.33,12.91,231.64s15.47,171.87,21.3,230.9c3.1,29.42,5.61,53.23,7.35,69.85.89,8.16,1.58,14.54,2.05,19,.27,2.09.46,3.87.62,5a11.85,11.85,0,0,0,.27,1.67,12.2,12.2,0,0,0,0-1.71c0-1.23-.24-2.86-.39-4.94-.39-4.49-1-10.87-1.7-19-1.59-16.66-3.87-40.52-6.69-70-5.68-59-13.68-140.6-20.72-230.91S839.1,983.91,837,924.61c-1-29.69-1.66-53.69-1.89-70.31-.2-8.2-.35-14.62-.43-19.1v-5A11.44,11.44,0,0,0,834.22,828.51Z"/><path class="cls-5" d="M745.33,538c-16.75-10-68.4,31.45-82.65,18.22-9.51-8.83-18.63-18.07-27.62-27.43L520,485.59,493.51,556.9s89.11,49.91,105.27,54.79c8.88,2.66,19.94,12.53,46.78,17,45.64,7.56,51.94-16,71.34-44.12C720.52,579.29,746.78,538.88,745.33,538Z"/><path class="cls-5" d="M1028.59,306.28s31.87,17.15,43.8,72.53c6.4,29.55,33,202.31,37.43,247.1a90.45,90.45,0,0,1-.41,21.12l-31.35,170.84a10.14,10.14,0,0,1-11.71,8.72l-45.4-7.45a14.71,14.71,0,0,1-12.32-14.71l11.94-186.34L978.23,448.46Z"/><path class="cls-18" d="M728,392a7.61,7.61,0,0,0-.12,2.47c0,1.89.11,4.23.18,7.06.19,6.11.65,14.92,1.29,25.82,1.27,21.8,3.43,51.87,6.37,85s6.2,63.07,8.85,84.66c1.28,10.85,2.42,19.56,3.31,25.61l1.07,6.91a7.74,7.74,0,0,0,.52,2.38,7.46,7.46,0,0,0,0-2.45c-.14-1.87-.31-4.18-.49-7-.65-6.47-1.46-15.16-2.41-25.72-2.11-22.16-4.89-51.82-7.95-84.81s-5.39-62.79-7.26-84.82c-.9-10.62-1.66-19.32-2.25-25.75l-.7-6.95A6.74,6.74,0,0,0,728,392Z"/><path class="cls-18" d="M972.73,390.17c.41-.05-.73-5.85,0-15.24,1.49-24.71,14.48-46.8,34.61-58.87,7.61-4.62,12.94-6.16,12.82-6.55a12.65,12.65,0,0,0-3.68.86,55,55,0,0,0-9.73,4.27c-21.23,11.63-34.79,34.61-35.51,60.2a64.55,64.55,0,0,0,.6,11.28A16.08,16.08,0,0,0,972.73,390.17Z"/><path class="cls-19" d="M630.24,476.08s19.25,4.9,20.11,21.1C650.35,497.18,654.88,474.66,630.24,476.08Z"/><path class="cls-4" d="M994,915.13c6.71-7.89,15.54-18.62,15.44-20.38s1.08-13.62,2.17-24a9.64,9.64,0,0,0-8.08-11c-1.37-.21-11.39,23.22-21.86,18.29l4.22-21.41a83.92,83.92,0,0,1,9.57-19.07c5.41-7.06,21.61-18.26,21.61-18.26l.23-1.7,48.5,8.22,2.45,27.38s-6.79,50.23-11.94,55.56-21,9.61-21,9.61c-5.54,8.07-19,6.67-19,6.67-13.5,10.31-14.13-.47-14.13-.47a3.12,3.12,0,0,1-1.43,1C994.75,927.7,990,919.8,994,915.13Z"/><path class="cls-20" d="M1027.19,874.56a29.8,29.8,0,0,1,.87,8.87,46.51,46.51,0,0,1-3.82,21.05,41.36,41.36,0,0,1-14.77,15.35,28.15,28.15,0,0,1-7.68,4.2,39.9,39.9,0,0,1,6.71-5.52,46.32,46.32,0,0,0,13.64-15.1,52.35,52.35,0,0,0,4.31-20.15A39.1,39.1,0,0,1,1027.19,874.56Z"/><path class="cls-20" d="M1038.82,879a16.68,16.68,0,0,1,1.25,8.08,59.19,59.19,0,0,1-.6,8.83,26.85,26.85,0,0,1-3.36,10.46,47.18,47.18,0,0,1-7.18,8l-6.33,5.81a27.72,27.72,0,0,1-6.26,4.95,26.9,26.9,0,0,1,5.11-6.14c1.66-1.79,3.69-3.89,6-6.17a52.63,52.63,0,0,0,6.72-7.74,26.43,26.43,0,0,0,3.39-9.66,83,83,0,0,0,1.1-8.48A66.27,66.27,0,0,0,1038.82,879Z"/><path class="cls-20" d="M1052.23,885.32c.94.11-.24,9.08-2.36,19.72a8.84,8.84,0,0,1-2,4,28.14,28.14,0,0,1-2.53,2.82,32.25,32.25,0,0,1-4.85,4.11c-3,2.07-5.2,2.75-5.31,2.47s1.71-1.43,4.3-3.75a53.9,53.9,0,0,0,4.32-4.23,31.67,31.67,0,0,0,2.28-2.75,6.9,6.9,0,0,0,1.55-3c1-5.45,2.18-10.21,3-13.71A26.3,26.3,0,0,1,1052.23,885.32Z"/><path class="cls-18" d="M1009.73,796.83c.44-35,3.09-73.19,5.7-115.29l5.26-56.67c-8.19-55-41.09-183.6-46.37-219.09l1.11-.14c5.46,35.5,40.06,164.24,48.57,219.28,0,13.69-3,39.07-4.1,53.64-3.35,42.47-8.14,82.91-8.69,117.79A2.52,2.52,0,0,0,1009.73,796.83Z"/><path class="cls-21" d="M497.69,530.16l18,41.36,79.9-80.26,35.53,34.64s-46.46,78.22-71.34,110.54c-17,22.09-42.57,44.39-70.83,33.74-35.51-13.38-57.23-79.81-57.23-79.81l66-60.21"/><path class="cls-21" d="M431.72,422.23s27.39,5.59,45.5,46.84,39.23,104.74,39.23,104.74l-51.81,57.24-36.72-36Z"/><path class="cls-22" d="M393.63,494.93a8.57,8.57,0,0,1,3.74-4.61c4.41-2.71,11.53-3.35,18.83-1.95a60.87,60.87,0,0,1,17.49,6.81,27.35,27.35,0,0,1,6.47,4.26,33,33,0,0,1-7.08-2.94,77.23,77.23,0,0,0-17.25-6.13c-6.92-1.35-13.7-.87-17.7,1.22a8.64,8.64,0,0,0-3.73,3.67c-.59,1.13-.74,1.81-.82,1.88S393.27,496.34,393.63,494.93Z"/><path class="cls-22" d="M433,485.39c6.94-1,12.64-1.37,12.7-.83s-5.5,1.82-12.43,2.81-12.62,1.38-12.69.81S426,486.39,433,485.39Z"/><polygon class="cls-23" points="208.6 419.47 203.81 434.46 188.29 434.46 200.84 443.72 196.05 458.71 208.6 449.45 221.15 458.71 216.36 443.72 228.91 434.46 213.4 434.46 208.6 419.47"/><path class="cls-4" d="M276.26,322.52s2.46,58-4.92,76c-1.79,4.38-30.11,23.09-30.11,23.09l77.93,31.57L426.07,429s-59.66-26.35-61-31.75.85-42.37.85-42.37"/><path class="cls-20" d="M386.85,362c-3.48,4.95-6.69,10.11-10.39,14.91a.84.84,0,0,0-.1.22.66.66,0,0,0-1,.1c-2.59,3.23-7.47,4.87-9.77,8.32-2,3-.87,7.07-1.14,10.72-2.63.34-6.27.07-9.57.21-22.31-.89-21.72-4.44-52-22.54-9.48-5.67-7.25-13.08-9-14.47C324.51,359.36,354.85,361.27,386.85,362Z"/><path class="cls-7" d="M253.05,285.18s-4-13.81-8.41-46.68c-4-29.43,42.79-52.58,70.74-56.27,15.37-2,66.42,5.65,79.51,12.21s19.57,24.66,20.52,50.4c0,0-7.49-25.72-23.78-25.51-13.3.17-56-7.47-67.3-3s-36.3,14-38.35,54.26c-.56,11-19.78-1.07-25.3,5.43S253.05,285.18,253.05,285.18Z"/><path class="cls-4" d="M274.05,332.84l-3.44-39.73-.84-44.38L288,215.55,319.91,201l35.79,2.05s28.51,7.83,37.5,10.46,15.08,13.85,20.91,26.37,2.66,33,2.66,33c.24.72-.63,3.83-.78,4.48-2,8.2-2.75,15.4-4.38,21.52a15.11,15.11,0,0,0,0,8.38c3.19,10.84,3,15.45,2,22-1.42,8.95-3.28,16.55-6.77,23.53-3.7,7.4-8.32,15.38-9.26,16.94,0,0-10.29,16.54-12.47,18.13s-5.41,3-6.92,3.16-21.25.87-21.25.87l-9.14-.47a23.62,23.62,0,0,1-9-2.27c-7.61-3.65-29.33-14.52-35.23-18.9-7.94-5.9-16.95-29.78-16.95-29.78"/><path class="cls-7" d="M283.76,294.82c.08,3.43-.42,17-.14,20.39l-17.7-.9c-5-11.91-11-25.92-12.87-29.13-3-5-2.77-28.87-2.68-37.85l0-1.94c.06-8.61,8.72-22,23.16-35.88,15.88-15.25,43.47-23.33,70.29-20.58,2.54.26,5.09.62,7.54,1.06,23.23,4.17,42.26,16.43,56.54,36.43,10.3,14.42,10.51,30.52,9.3,40.3a86.89,86.89,0,0,0-6.68-33.8c-6-13.37-14.09-17.4-19.8-18.43a19.23,19.23,0,0,0-9.53.61c-5.72,1.09-14,.05-20-1-4.44-.8-8-1.68-8.92-1.93-2.94-2.18-7.41-3.85-12.92-4.85-12.81-2.3-31.54-.62-35.56,4.93-4.47,6.14-14.78,28.22-15,33.44"/><path class="cls-4" d="M275.7,333.78C264.92,344,258.88,323.4,258.88,323.4c-9.45-12.46-8.86-25.25-8.11-34s10.38-8.17,10.38-8.17c8.13,1.26,11.59,5.82,17.17,33.69"/><path class="cls-7" d="M408.22,223.23c-5.57-9.82-16.66-22.3-22.89-31.72-3.13-.43-18.66-1.41-21.92-1.68-33.22-2.71-78.67,14.61-83.45,26.54-3,7.44-2.86,48.63-1.56,52.43C282,279.22,283,292.72,283,292.72c2-15.36,13.73-32.1,15.33-37.34s-4.44-30.61-2.69-31.59,32.51-9,66.43-7.14a252.22,252.22,0,0,1,28.85,3.4C390.84,220,408.28,223.33,408.22,223.23Z"/><path class="cls-7" d="M342,285.18c-2-1.16-4.37-1.19-5.76-.08a5.14,5.14,0,0,0-1.67,2.33,5.27,5.27,0,0,0,1,4.88,4.92,4.92,0,0,0,5.59,1.27,5.43,5.43,0,0,0,3-6.18c-.1-.4-.57-1.29-2.17-2.22"/><path class="cls-7" d="M400.07,288.4c2.08-.95,4.41.08,5.68,1.33a5.15,5.15,0,0,1,1.43,2.48,5.34,5.34,0,0,1-1.5,4.76,5,5,0,0,1-5.7.7,5.45,5.45,0,0,1-2.35-6.46,4.86,4.86,0,0,1,2.44-2.81"/><path class="cls-7" d="M382.24,295.69s8.6-7.76,14.62-8c8.78-.36,10.92,1.72,13.81,5.89,0,0-5.51-4.48-11.69-4.06C393.08,289.91,382.24,295.69,382.24,295.69Z"/><path class="cls-7" d="M354.8,291.65s-12-8.15-18-8.51c-8.77-.52-19.41,4.3-22.38,8.41,0,0,14.05-7.15,20.22-6.62C340.53,285.44,354.8,291.65,354.8,291.65Z"/><path class="cls-7" d="M355.65,259.07q.25,3.12.5,6.26c.13,1.6.53,5.22.65,6.8-5.19-.92-9.93-2.55-13.26-2.85-6.61-.6-13.4-1.66-19.91-.11a22.56,22.56,0,0,0-8.31,3.6c-.79.58-2.85,3-4.14,2.49-.53-.19.1-2.82.16-3.09,1.28-5.31,5.55-7.82,10.89-9.5,10.87-3.43,22-4.08,33.42-3.6"/><path class="cls-7" d="M417,271.67l-3.12-1.77c-8.66-4.95-18.11-7.23-28-8.43-.55,2-.31,3.83-.85,5.86-.42,1.54-.27,4.23-.68,5.77,4.63-.14,7-.41,9.88-.22,5.78.38,11.88.71,17.15,3.19.42.19,4.74,1.8,5.14,2C418.44,275.91,417.69,272.32,417,271.67Z"/><path class="cls-9" d="M375.76,329.73a9.71,9.71,0,0,1-9-1c-.55-.4-2.48-.14-1.7.41,3.3,2.33,8.91,2.82,12.31,1.22.34-.16.29-.42-.11-.58a2.15,2.15,0,0,0-1.46,0"/><path class="cls-9" d="M363.94,328.29a15.74,15.74,0,0,0-5.51-1.71,1.21,1.21,0,0,0-.87.23c-.17.14-.22.34,0,.48a6,6,0,0,0,3,.87,1.14,1.14,0,0,0,1-.33c.19-.26-.12-.44-.37-.45a4.74,4.74,0,0,1-2.45-.72l-.88.71a14.12,14.12,0,0,1,4.93,1.54,1.17,1.17,0,0,0,1-.06c.21-.11.44-.39.14-.56"/><path class="cls-9" d="M356.27,328.15c-2.26-.18-4.86-1.32-5.88-3.11-1.54-2.71.23-6.76,3.13-8.3.32-.16.17-.41-.14-.49a1.82,1.82,0,0,0-1.22.19,8.09,8.09,0,0,0-4.05,7.13c.23,2.32,2.31,4,5,4.84a12.32,12.32,0,0,0,2.49.48c.34,0,1-.05,1.14-.31s-.12-.41-.44-.43"/><path class="cls-9" d="M380,328.77a.3.3,0,0,1,.31-.42,2.6,2.6,0,0,0,1.78-.5l.56.78a7.72,7.72,0,0,0-3.6,1.11.62.62,0,0,1-.72-.15c-.14-.13-.28-.43,0-.57"/><path class="cls-9" d="M378.23,329a8.76,8.76,0,0,1,4-1.23.74.74,0,0,1,.6.31.33.33,0,0,1,0,.47"/><path class="cls-9" d="M384.62,329.32a4.61,4.61,0,0,0,4.06-2.6,6.89,6.89,0,0,0-1.38-7.51.28.28,0,0,1,.14-.48.87.87,0,0,1,.77.3,7.71,7.71,0,0,1,2.07,6.42,5.31,5.31,0,0,1-3.62,4.4,5.19,5.19,0,0,1-1.65.27.8.8,0,0,1-.71-.41c-.09-.28.12-.39.32-.39"/><path class="cls-24" d="M269.94,307.47c-7.33-17.85-12.68-18-12.68-18s-3.66,4.07-2,12.33"/><path class="cls-24" d="M267.16,309.05c-4.79-.53-1.22,8.49-2.57,10.58s-3-3.54-3.55-10.31c0,0,.1-9.14,4.66-10.76"/><path class="cls-25" d="M372.89,341.9c-7.89-.36-25.51,3.64-29.15,6.53,0,0,8.73,6.61,27,7.44s21.6-5.24,21.6-5.24S382.93,342.36,372.89,341.9Z"/><path class="cls-26" d="M351.33,345.39s9.42-.33,16.9,0,16.83,1.52,16.83,1.52,1.46-5.51-12.11-6.13S351.33,345.39,351.33,345.39Z"/><path class="cls-27" d="M370.88,353.41c-8.51-1.6-17.13-5.15-27.14-5,0,0,2.29,11.52,23.79,12.5s24.82-10.3,24.82-10.3C382.39,349.56,379.49,352.59,370.88,353.41Z"/><path class="cls-27" d="M382.43,338.08c-4.5-.54-7.44,1-9.4.95s-4.76-1.93-9.29-1.8c-4.24.12-22.6,9.6-20.66,11s16.15-5.51,29.75-4.89,18.12,8.4,20.18,7.15S386.65,338.58,382.43,338.08Z"/><path class="cls-28" d="M184.58,829.87l-5,36a313.64,313.64,0,0,0,.62,91l29.26,190.58s-7.29,116.91-11.89,183.07c-4,57.36,7.56,143.1,7.56,143.1l96.56-2.52,51.48-312.51-9.53-214.92,32.6-108.63Z"/><path class="cls-28" d="M446.71,842.58l.16,319.19a132,132,0,0,1-7.84,46.91l-67.48,231.08-4.1,15.26-58-12.51,28.06-612.64Z"/><path class="cls-29" d="M301.67,1471.12l51.48-312.51-9.53-214.92"/><path class="cls-21" d="M442.89,706.08c0-1.59,4.76-99.13,5.33-100.28a27.24,27.24,0,0,0,4.86-3.25c-2.6-47.93,3.44-92.38,3.08-140.56,0-2.29-1.63-12.94-.56-14.36-16.46-28.18-25.39-26.41-25.48-26.44l-22.67-8.45-32.16-8.68c-13.79,51.14-73.62,41.83-106-6.83,0,0-32.4,12.23-64,26.56-12.11,5.52-35.8,25.07-41.4,37.14C151,488.85,143.3,501.51,131.47,570.74l36,31.15,34.71,12.91c-4.71,37.6-23.89,114.41-22.5,173.77q.32,11.94.7,23.89c.16,4.72-12,32.86-9.5,36.72,2.42,3.65,22.75,1.8,27.29,3.37,48.68,16.79,178,17,178,17,20.35-2.53,37.25-4,55.31-12.75,12.79-6.22,15.27-10,22.21-15.84-3.25-17-3.08-34.63-3.53-51.86C449.49,761.38,443,733.8,442.89,706.08Z"/><path class="cls-30" d="M443,481.56a23.28,23.28,0,0,1,.5,4.92c.19,3.51.42,8,.7,13.43.51,11.38,1.08,27.08,1.61,44.42s.76,33.08,1.07,44.44l.6,46.45a27.19,27.19,0,0,1-.18,4.94,22.63,22.63,0,0,1-.49-4.92c-.2-3.5-.9-41-1.2-46.45-.49-11.35-1.06-27-1.6-44.42S443.29,511.28,443,500c-.08-5.41-.09-9.95-.14-13.45A24.81,24.81,0,0,1,443,481.56Z"/><path class="cls-4" d="M138.32,592l37.22,12.62,35.53,12.59-21.83,71.57,3.58,15.83a199.09,199.09,0,0,1,4.9,42l1.14,123.87-31.2,8s-36.28-154-38.33-179.57C128.25,685.32,131.31,634.94,138.32,592Z"/><path class="cls-4" d="M235.83,975.48a206.57,206.57,0,0,0-23.6-19l-9.57-24.11,3.39-12.55,7.29-.54s3.35,32,9.64,37.13,9.4,4.94,9.4,4.94l4.71-7.63-10.15-47s-7.9-19.8-10.44-24.3a97.74,97.74,0,0,0-10.36-12.21l-2.74-23.6L161.93,852c1.9,6.42,3.9,17.31,6.55,24.59l-1,50.68,13.7,21,17.06,18.43,39.93,19.38S243.52,983.44,235.83,975.48Z"/><path class="cls-21" d="M131.47,570.74s-14.9,116.37-12.55,129.74,32.43,162,32.43,162l59.72-13.81s-3.65-138.72-15.27-163.09l27.56-103Z"/><path class="cls-30" d="M237.91,510.28a47.48,47.48,0,0,0,.53-8.67,54.79,54.79,0,0,0-28.87-46.92,47.93,47.93,0,0,0-7.95-3.46,11.21,11.21,0,0,0-3-.72c-.11.3,4.26,1.58,10.47,5.26a57.08,57.08,0,0,1,28.14,45.89c.54,7.23-.42,11.67-.08,11.72A11.46,11.46,0,0,0,237.91,510.28Z"/><path class="cls-30" d="M234.46,530.32c-3.06,25.8-30.26,122.63-35,162.62l1.15,30.82c1.53,46.5,9.68,98.16,10.69,126.83l-.43,0-.28,0-.17,0c0-.74,0-1-.11-1.77-1.19-30.43-9.38-81.51-11.06-125.19-.4-10.58-.88-20.92-1.12-30.83,5-40,32.37-136.86,35.55-162.68Z"/><path class="cls-4" d="M625.84,520.81l17.07-12.51S658.7,509.86,670,505a95.79,95.79,0,0,0,22.12-14.53L717.9,480s13.62,1.82,14.5-2.4-4-6.24-8.81-8.2-76.31-5.47-76.31-5.47a130.86,130.86,0,0,1,17.42-13.8c9.55-6.21,8.67-13.66,4-17.76s-18.46,6.25-21.08,12.32-17.85,7.1-26.6,14.72-10.66,23.32-10.66,23.32c-3.08,3.45-11.55,11.63-11.55,11.63C598.89,495.29,625.84,520.81,625.84,520.81Z"/><path class="cls-22" d="M702.67,480.16a7,7,0,0,0-3.56-3.35c-3.9-1.73-9.79-1.46-15.59.49A50,50,0,0,0,670,484.79a22.37,22.37,0,0,0-4.81,4.19,26.78,26.78,0,0,0,5.45-3.18A63.75,63.75,0,0,1,684,478.89c5.5-1.87,11.09-2.22,14.59-1a7.17,7.17,0,0,1,3.45,2.59c.6.85.8,1.39.88,1.44S703.12,481.27,702.67,480.16Z"/><path class="cls-22" d="M669.48,476.72c-5.78-.05-10.47.28-10.46.73s4.69.87,10.46.92,10.45-.27,10.45-.74S675.27,476.77,669.48,476.72Z"/><path class="cls-22" d="M653.15,479.31c3.59,4,4.66,8.19,5.1,8.24s0-4.89-3.87-9.32-8.79-5.43-8.81-5C645.38,473.69,649.55,475.33,653.15,479.31Z"/><path class="cls-30" d="M515.69,571.52s-13.23,16.94-13.92,24.9C501.77,596.42,503.29,576.74,515.69,571.52Z"/><path class="cls-22" d="M378.89,262.17s-12.05,10.46,1.6,16.25C380.49,278.42,373.24,272.64,378.89,262.17Z"/><path class="cls-22" d="M365.26,261.14s10.84,11.71-3.36,16c0,0,8.18-6.83,3.36-16"/><path class="cls-27" d="M819.67,219c10.83-.67,28.3-3,28.3-3s-2,21.6-27.06,23.15-29.69-19.65-29.69-19.65S808.85,219.69,819.67,219Z"/><path class="cls-31" d="M819.57,219c5.15-.31,25.84-2.46,25.84-2.46s-6.16,11.78-24.78,12.93c-20.18,1.24-26.81-9.59-26.81-9.59Z"/><path class="cls-32" d="M819.39,219.81c5.15-.32,20.76-2.15,20.76-2.15s-5.29,6-20.73,6.93-20.69-4.22-20.69-4.22Z"/><path class="cls-27" d="M790,218c.53-.16,3.59.64,6.14.27,4.23-.63,6.83-1.92,9.9-2.34,5.25-.73,8.72,1.14,11,1s5.51-2.43,10.8-2.35c3.11.05,10.82.7,15.1.8,2.57.06,5.5-1.11,6.06-1,.77.14-.36,5.8-29.16,7.58S789.24,218.22,790,218Z"/><path class="cls-7" d="M821.28,208.72l1.28,5a1.85,1.85,0,0,0,1.66,1.4c5.47.43,26.27,2,31.18,1.67.12,0-.31,2.07-.2,2l1.15-.14c1.82-.47.12-6.56-1.67-7.14a104.67,104.67,0,0,0-13.26-3.45c-3.72-.64-14-2.07-18.46-1.76A1.87,1.87,0,0,0,821.28,208.72Z"/><path class="cls-7" d="M814.91,209.64l.12,4.74a1.85,1.85,0,0,1-1.4,1.58c-5,1.08-21.41,4.65-26,4.88a1.08,1.08,0,0,1-.31,0l-1.47-.21c-1.72-.25-1-4.12.61-4.91a82.27,82.27,0,0,1,10.64-4.65c3.38-1.08,11.91-3.31,16-3.52A1.77,1.77,0,0,1,814.91,209.64Z"/></g></g></svg>