<svg xmlns="http://www.w3.org/2000/svg" xmlns:xlink="http://www.w3.org/1999/xlink" viewBox="0 0 1303.15 1057.31"><defs><style>.cls-1,.cls-26{fill:none;}.cls-2{clip-path:url(#clip-path);}.cls-3{fill:#f2ebd1;}.cls-4{fill:#956243;}.cls-5{fill:#82a8b3;}.cls-33,.cls-6{fill:#684136;}.cls-7{fill:#557c81;stroke:#557c81;}.cls-26,.cls-27,.cls-33,.cls-7{stroke-miterlimit:10;}.cls-27,.cls-7{stroke-width:1.35px;}.cls-8{fill:#df8c26;}.cls-9{fill:#a56530;}.cls-10{fill:#1c3b53;}.cls-11{fill:#8c542a;}.cls-12{fill:#513835;}.cls-13{fill:#0f2530;}.cls-14{fill:#825639;}.cls-15{fill:#151210;}.cls-16{fill:#231f20;}.cls-17{fill:#010101;}.cls-18{fill:#161312;}.cls-19{fill:#171514;}.cls-20{fill:#181615;}.cls-21{fill:#191716;}.cls-22{fill:#040404;}.cls-23{fill:#fff;opacity:0.14;}.cls-24{fill:#745245;}.cls-25{fill:#714533;}.cls-26{stroke:#010101;stroke-width:1.39px;}.cls-27{fill:#b26b29;stroke:#b26b29;}.cls-28{fill:#273339;}.cls-29{fill:#465b65;}.cls-30{fill:#653c29;}.cls-31{fill:#31160e;}.cls-32{fill:#f1eef7;}.cls-33{stroke:#684032;stroke-width:0.67px;}</style><clipPath id="clip-path"><rect class="cls-1" width="1303.15" height="1050.38"/></clipPath></defs><g id="Layer_1" data-name="Layer 1"><g class="cls-2"><polyline class="cls-3" points="-217.69 1391.24 -217.69 -33.93 1538.84 -33.93 1538.84 1391.24"/><path class="cls-4" d="M665.19,582.54s15.45-24.92,27.29-31.53c3.34-1.86,26.19-28.77,26.19-28.77s8.94,3.13,1.8,15.47-10.37,17.23-10.37,17.23l-.36,4.26,24,1.5s27.47-2.78,34.13-2.84,21-.87,23.69,7.26c0,0,10.52-1.35,11.7,3.57a7.59,7.59,0,0,1-.83,7l-4.79,1.91s2.91.89,1.7,5.9S753.56,598,753.56,598l-2,2.07s30.75-1.45,31.83,1.2,2.38,4.72-2.2,6.76-86.94,17.34-96.68,17.16a118.16,118.16,0,0,0-12,.09L658,584.43Z"/><path class="cls-5" d="M658,579.26l-42.33,7.65s-101.2,9.91-123.27,7.92c-1.7,4.26-57.25,7.38-58.86,11.67-9.18,24.46,0,58.85,0,58.85,41.32,51.29,148.64,8.27,168.22.11,21.26-8.87,74.67-27.57,74.67-27.57Z"/><path class="cls-6" d="M715.35,567.76s2.71,22.86-14.84,38.74C700.51,606.5,727.94,586.06,715.35,567.76Z"/><path class="cls-7" d="M489.9,595.82s-10.51,14.26-7.27,30.31C482.63,626.13,476.84,602,489.9,595.82Z"/><path class="cls-8" d="M872.54,628c-21.15,11.9-48.6-35.85-66.79-55.54,5.11-8.74,9.76-17.54,13.47-25.34,7.55-15.81,14.75-31.79,21.91-47.78,9-20.06,17.25-40.44,27.11-60.1a308.74,308.74,0,0,1,16.32-28.91c5.14-8,10.15-15.71,18-21.26s17.29-5.8,26.29-9.26l44.46,84.05s-26.42,63-48.76,77.3c-.84.54-17,37.93-18,38.48C906.1,579.07,898.49,613.41,872.54,628Z"/><path class="cls-8" d="M716.24,475.33l31,20.12s79.76,42.95,98.58,48.9q-.11,6.12-.32,12.25c-.87,23.26,29.83,70,29.83,70C823.78,654.53,745,578.22,731.7,564.79c-14.43-14.61-49.31-44.57-49.31-44.57Z"/><path class="cls-4" d="M263.49,229.74s7.84,34.76-10.3,69.69C251.45,302.79,233,310,233,310l29.25,10.29c20.06,5.1,65.2,6.17,84.86.58l16.54-8.76s-20.46-5-21.34-9.37,3.63-37,3.63-37"/><path class="cls-4" d="M347.06,306.58l-96.52-2.44L236.22,334.8s25.37,22.79,28,23.9,64,15.29,64,15.29S398,352.2,397,352.35,347.06,306.58,347.06,306.58Z"/><path class="cls-5" d="M462.33,417,443,350.62a183.8,183.8,0,0,0-36.13-16.13c-12.36-4-31.26-7.76-38.6-10.07,1.89,9.76-.53,18.59-7.25,23.9A55.67,55.67,0,0,1,328,360.23c-11.49.3-23.07-2.3-33.86-6.1-20.17-7.12-43.51-30.22-48.21-52.19L238,305.17s-83.51,33.06-93.33,37.05,20.42,255.89,20.42,255.89l-22.29,108c-2.26,10.43-57.7,79.63-22.83,161.81,0,0,218.2-67,241.06-67.34,26.56-.38,68.92-.58,75.65-13.25S462.33,417,462.33,417Z"/><path class="cls-6" d="M775.44,778.05A145.27,145.27,0,0,1,755,766.45a145.92,145.92,0,0,1-19.4-13.19A144.87,144.87,0,0,1,756,764.83,146.33,146.33,0,0,1,775.44,778.05Z"/><path class="cls-6" d="M779.43,767.77c-.34.4-8.55-5.7-19.13-12.54s-19.49-11.93-19.24-12.41a91.55,91.55,0,0,1,20.28,10.78A88.63,88.63,0,0,1,779.43,767.77Z"/><path class="cls-5" d="M447.45,628.92c13.89,26.7,66.44,1.23,90.75-16.5-5.5-8.26-14.42-42.48-16.82-51.87-4.87-19-9.33-38.21-13.73-57.38-5.52-24-10.22-48.28-16.8-72.07a346.41,346.41,0,0,0-11.69-35.39c-3.92-9.88-7.76-19.5-15.14-27.31a132.15,132.15,0,0,0-25.48-20.5l-68.69,87.49s15.39,75.15,36.89,95.72c.81.77,13.38,30.61,14.37,31.43C421.7,562,432,599.28,447.45,628.92Z"/><path class="cls-7" d="M463.3,413.88a74.55,74.55,0,0,0-1.15,9.42c-.28,6.59-1,15.07-1.95,25.75-.61,8.21-11.83,197.31-13.61,225.8a3.59,3.59,0,0,1,.47,0c1.65-22.68,14.31-216.74,14.83-225.78.57-10.86,1.05-19.68,1.25-25.73A88.48,88.48,0,0,0,463.3,413.88Z"/><path class="cls-7" d="M196,415.77a95.26,95.26,0,0,1-3-10.45,121.64,121.64,0,0,0-24.7-45.51,95.78,95.78,0,0,1-7.09-8.25,38.93,38.93,0,0,1,8.2,7.22,102.11,102.11,0,0,1,25.06,46.16A38.14,38.14,0,0,1,196,415.77Z"/><path class="cls-7" d="M531.17,594.62s-22.1,6.22-28.36,24.07C502.81,618.69,511.08,591.17,531.17,594.62Z"/><path class="cls-9" d="M274.72,923.94q69,0,138.06,0c19.79,0,23.46,9.16,23.44,27.95,0,17.26-4,27.4-24,27.44-4.51,0-9.12.49-13.52-.09-13.25-1.75-15.91,3-14.17,13.07,16.94,97.79,33.48,188.89,50.39,286.68,1.15,6.66.1,9.3-9.05,9.41-22.85.27-23.32.72-26.49-17.59q-16.18-93.58-31.55-187.25c-1.38-8.49-4.9-11.06-15.2-11q-78.51.63-157,0c-10-.08-13,2.92-14.22,10.59-10.73,65.79-22,131.51-32.79,197.28-1,6.13-4.07,8-11.33,8.06-23.55.36-24.19.52-21.17-17.93,11-66.87,22.37-133.69,33.68-200.53,4.82-28.42,9.62-50.11,14.86-78.47,1.62-8.76-.28-13.72-12.57-12.05-2.64.36-5.42-.11-8.11.08-35.3,2.44-32.42-22.23-30.37-45,.79-8.85,10.16-10.94,20.34-10.89,46.92.23,93.85,5.71,140.77,5.71Zm-1.11,126.25c26.14,0,52.27-.2,78.4.12,8,.09,11.58-1.35,10.22-8.73-4.21-22.82-8-29.81-11.67-52.7-1.11-6.94-4-9.88-13.51-9.76-41.45.52-82.92.59-124.36,0-10.28-.15-13.12,3.07-14.28,10.42-3.47,22.16-7.18,28.41-11.3,50.49-1.42,7.65.66,10.6,10.8,10.38C223.13,1049.82,248.38,1050.19,273.61,1050.19Z"/><path class="cls-10" d="M646.12,852.3c-13.1,72-29.67,229.38-49.54,317,0,0-99.18,18.84-109.27-.88,0,0-110.82-402.48-56.6-418.67,40-11.94,163.07-9.51,186.89,4.51C646.18,771.12,656.44,795.63,646.12,852.3Z"/><path class="cls-11" d="M149.91,1070.16l-5.25,30.94c11,2.11,21.86,4.59,32.74,7.17,1.37-8.33,2.76-16.66,4.12-25,1.25-7.68,4.17-10.68,14.21-10.59q78.5.63,157,0c10.3-.08,13.83,2.48,15.2,11q2,12.13,4,24.25a302.16,302.16,0,0,0,30.74-12.79c-6-33.79-12-67.82-18-102.7a19.13,19.13,0,0,1-.06-8.13q-10.72.71-21.49,1.1-6.58.24-13.19.38a20.33,20.33,0,0,1,.76,3.2c3.63,22.89,7.46,29.88,11.67,52.71,1.36,7.38-2.21,8.82-10.21,8.72-26.13-.31-52.27-.12-78.41-.12-25.23,0-50.48-.36-75.69.18-10.15.22-12.23-2.73-10.8-10.37,4.11-22.09,7.82-28.34,11.3-50.5.46-2.94,1.2-5.2,2.57-6.87-12.43-.37-24.86-.67-37.29-.82,1.69,2.14,1.75,5.5,1,9.78C159.52,1020.05,154.72,1041.74,149.91,1070.16Z"/><path class="cls-11" d="M113.19,939.22s149.89,27,214.52,18.8,108.18-15.13,105.56-24.92-48.36-30.79-94.42-32.28-172.32,9.85-172.32,9.85-42.38,7-46.83,13S113.19,939.22,113.19,939.22Z"/><path class="cls-12" d="M678.89,782.13a.54.54,0,0,1-.21,0v-.53Z"/><path class="cls-10" d="M523.71,904.35c1-6,2.28-11.88,3.81-17.71a247.79,247.79,0,0,1,13.77-38.46,265.24,265.24,0,0,1,20.17-36.83,225.55,225.55,0,0,1,17.12-22.88C454.78,761.68,195.77,775,195.77,775s-87.92-9-75,102.19c10.5,90.06,305.84,54.26,401.55,27.6Z"/><path class="cls-10" d="M570.76,813.56a180.32,180.32,0,0,0-34,3,77,77,0,0,0,2.85-15.33q-3.25-2.71-6.84-5.53a226.67,226.67,0,0,0-31.5,15.9,269.77,269.77,0,0,0-33.33,23.69,234,234,0,0,0-28.05,27.45q-3.6,4.2-6.95,8.62l1.06.15c-32,46.07-17,135.27-26.36,219.84-6.89,62-16.77,113.26-16.77,113.26,11.95,18.62,116.6,9.55,116.6,9.55C529.39,1100.14,570.76,813.56,570.76,813.56Z"/><path class="cls-13" d="M507.42,1214.2c19.24-113.54,63.34-400.64,63.34-400.64h5L511,1214Z"/><path class="cls-13" d="M411.41,924.91l-3.23.34c4.75-38.78,25.77-57.34,25.77-57.34s-18.08,26.37-18.71,56.59Z"/><path class="cls-10" d="M550.15,813.56s8.53-48.65-33.63-60.61c-57.43-16.29-308.62,21.46-308.62,21.46l342.25,39.15"/><path class="cls-14" d="M259.16,241.17c0,.11,0,.21,0,.32A.45.45,0,0,1,259.16,241.17Z"/><path class="cls-4" d="M333.44,308.4l36.6-.12,18.41-3.52c1.86.1,10.55-18.37,11.9-20.71,4.17-7.24,9.62-16.73,12.31-24.66,2.88-8.5,8.55-15.76,10.21-26,1.21-7.54,1.42-12.84-2.21-25.31a17.37,17.37,0,0,1,0-9.64c1.89-7,2.76-15.31,5.08-24.75.19-.74,1.19-4.32.92-5.14,0,0,3.05-39.58-3.62-54S406,93.2,395.61,90.15s-41.17-2.25-41.17-2.25l-42.3-7.57L275.37,96.94,255.48,140.2l.86,51.05L260.19,237"/><path class="cls-15" d="M268.55,187.89c.08,4,4.34,23.75,4.65,27.61l-20.36-1.08c-5.68-13.71-12.52-29.84-14.73-33.53-3.46-5.78,7.92-33.46,8-43.79l0-2.22c.09-9.91,10.09-25.32,26.73-41.22,28.63-27.36,27.27-27.72,69.87-23.27,2.93.31,5.85.73,8.68,1.24,26.71,4.86,49.14,5.2,65.51,28.24,11.81,16.61,3.14-4.06,1.73,7.19,0-22.29,3.65-3.79,1.43-6.48-13-15.77-20.17.36-26.74-.84a22.23,22.23,0,0,0-11,.67c-6.58,1.25-12.83.21-19.68-1-5.11-.93-18-4.29-19.09-4.58-3.38-2.52.06-15.82-6.28-17C322.65,75.13,302.2,81,295,84.07c-8.58,3.64-29.06,11.49-27,34.23"/><path class="cls-15" d="M384.65,299.8a1.64,1.64,0,0,1-.68-.28c-3.79-2.72-4-4.18-5.93-4.7a10.84,10.84,0,0,0-2-.53c-5.45-1-8.77-1.65-23.81,7.13-.3.18-19.46-3-19.83-3l-9.77-5.05c-1.62-1.09-37.72-33.79-37.72-33.79-.52-1.06-7-8.76-7.21-9.77a3,3,0,0,0-.35-.19l-.23-.1-.06.19A6.42,6.42,0,0,0,277,251a21.73,21.73,0,0,0,.83,5.55c.77,2.8,1.16,5.63,1.82,8.43.23,1,.51,2,.82,2.93,4.15,2.79,29.92,37.77,45,45.95,1,.3,4.1,1.3,12.47,2.31,15.72,1.9,30.94,2.43,46.62-1.51a14,14,0,0,0,9.23-7.5c5-10.55,16.13-34,19.23-49.94-4.63,9.13-14.42,28.67-21.16,42-.2.4-6.2.52-6.7.65"/><path class="cls-4" d="M264.53,242.28c-17,15.45-19.32-12-19.32-12-10.84-14.36-10.14-29.07-9.24-39.11s12-9.37,12-9.37c9.35,1.47,13.31,6.72,19.66,38.79"/><path class="cls-15" d="M387.78,90.55C372.5,89.81,332.7,78,312,76c-8.57-.81-37.74,19.55-41.6,24.27-8.84,10.82,10,36.9-5.76,71.79-5.21,11.52-11.37-9.14-17.73-1.68s-8.8,10.48-8.8,10.48c-3.47-34-3.38-32.79,5.13-66s45.28-46.54,63-48.79,74,5.08,89,12.66"/><path class="cls-16" d="M260.22,214.39a80.66,80.66,0,0,0-7-13.79,24.88,24.88,0,0,0-5.07-5.94,7,7,0,0,0-2.81-1.53c-1.23-.24-1.82.75-2.34,1.68-2.27,4-2.37,8.88-1.5,13.31.1.5,1.69.12,1.58-.43a20.7,20.7,0,0,1,.43-10.71,10.35,10.35,0,0,1,1.84-3.47l-1,.43c-.26,0-.09-.05,0,0s.1,0,.4.12a8.11,8.11,0,0,1,1.87,1.13c2.9,2.27,5,5.57,6.81,8.72a92,92,0,0,1,5.19,10.89c.22.52,1.78,0,1.59-.42Z"/><path class="cls-16" d="M256.44,215.86c-6.51-.58-3.14,8.59-3.79,12.07,0,.18-.12.37-.15.54s-.17.25-.16.27.34.09.33,0-.34-.39-.38-.45a5.1,5.1,0,0,1-.51-1,27.94,27.94,0,0,1-1.5-6.38,24.42,24.42,0,0,1-.11-7.77c.48-3,1.48-7.19,4.68-8.4,1-.39.12-1.26-.7-.95-3.05,1.15-4.43,4.45-5.16,7.39a21,21,0,0,0-.69,6.79,45,45,0,0,0,1.35,8.07c.32,1.16.75,3.07,1.9,3.73a1.83,1.83,0,0,0,2.47-1,7.23,7.23,0,0,0,.24-3.52c-.12-1.76-1.55-8.41,1.64-8.12.78.07,1.61-1.07.54-1.16Z"/><path class="cls-15" d="M341.51,187.24c-2.27-1.33-5.06-.43-6.66.84a5.92,5.92,0,0,0-1.93,2.67,6.11,6.11,0,0,0,1.15,5.62,5.65,5.65,0,0,0,6.43,1.48,6.26,6.26,0,0,0,3.46-7.11,5.56,5.56,0,0,0-2.45-3.5"/><path class="cls-15" d="M408.9,191.29c2.4-1.09,5.08.11,6.53,1.54a5.91,5.91,0,0,1,1.64,2.86,6.1,6.1,0,0,1-1.74,5.47,5.66,5.66,0,0,1-6.55.79,6.25,6.25,0,0,1-2.69-7.43,5.53,5.53,0,0,1,2.81-3.23"/><path class="cls-15" d="M389,199.11s9.91-8.91,16.83-9.18c10.1-.39,12.56,2,15.87,6.81,0,0-6.32-5.16-13.43-4.69C401.46,192.49,389,199.11,389,199.11Z"/><path class="cls-15" d="M356.47,194.93s-13.62-9.64-20.52-10.18c-10.08-.8-22.41,4.51-25.92,9.17,0,0,16.31-7.92,23.4-7.16C340.2,187.48,356.47,194.93,356.47,194.93Z"/><path class="cls-15" d="M361.66,160.63c-.22,2.39-.46,4.79-.69,7.19-.18,1.83-.46,6-.65,7.83-5.61-2.08-10.58-4.88-14.23-5.89-7.26-2-14.63-4.57-22.21-4.11a25.06,25.06,0,0,0-10,2.41c-1,.49-3.77,2.78-5.12,2-.55-.32.67-3.17.8-3.47,2.49-5.75,7.76-7.74,14.06-8.58,12.83-1.7,25.43-.19,38,2.63"/><path class="cls-15" d="M428.25,167.1l-4-1.44c-11.24-4.07-22.88-4.95-34.77-4.54q-.37,3.58-.73,7.18c-.18,1.83-.63,5.12-.8,6.94,5.44-1,10.2-2.35,13.68-2.66,6.91-.61,14.2-1.34,20.94.53.53.15,3.4,1,3.91,1.17C429,171.2,429.16,167.72,428.25,167.1Z"/><path class="cls-15" d="M356.46,272.48l26,0s-6.63,9.73-13,9.39C365.51,281.69,360.44,277.15,356.46,272.48Z"/><path class="cls-17" d="M379.1,238.13c-3,1.42-7.51.82-10.38-1.23-.64-.45-2.86-.16-2,.48,3.8,2.69,10.25,3.27,14.16,1.43.39-.19.34-.49-.13-.67a2.43,2.43,0,0,0-1.68,0"/><path class="cls-17" d="M365.52,236.44a18.12,18.12,0,0,0-6.34-2,1.41,1.41,0,0,0-1,.27c-.2.16-.25.39,0,.54a6.92,6.92,0,0,0,3.48,1,1.34,1.34,0,0,0,1.11-.38c.21-.3-.14-.51-.43-.53a5.36,5.36,0,0,1-2.81-.82l-1,.81a16,16,0,0,1,5.67,1.79,1.36,1.36,0,0,0,1.18-.07c.24-.13.51-.46.17-.65"/><path class="cls-17" d="M356.69,236.26c-2.59-.21-5.58-1.53-6.75-3.59-1.77-3.12.27-7.71,3.62-9.46.36-.19.19-.48-.17-.57a2,2,0,0,0-1.4.22c-2.91,1.53-4.94,5.26-4.67,8.11.26,2.67,2.64,4.65,5.71,5.58a13.7,13.7,0,0,0,2.85.56c.4,0,1.11-.05,1.32-.36s-.14-.47-.51-.49"/><path class="cls-17" d="M383.93,237a.35.35,0,0,1,.36-.48,3,3,0,0,0,2-.57l.64.9a8.92,8.92,0,0,0-4.15,1.27A.7.7,0,0,1,382,238c-.16-.15-.32-.5-.06-.66"/><path class="cls-17" d="M382,237.31a10.09,10.09,0,0,1,4.63-1.4.84.84,0,0,1,.68.36.37.37,0,0,1,0,.54"/><path class="cls-17" d="M389.31,237.68a5.32,5.32,0,0,0,4.67-3,7.93,7.93,0,0,0-1.57-8.64.32.32,0,0,1,.16-.56,1,1,0,0,1,.88.35,8.83,8.83,0,0,1,2.37,7.39,6.1,6.1,0,0,1-4.17,5,5.91,5.91,0,0,1-1.9.31c-.25,0-.71-.15-.82-.47s.14-.45.38-.45"/><path class="cls-15" d="M395.7,97.18a9.56,9.56,0,0,0-4.42-1.68l-1.72-.61q-7.72-.36-15.46-.24a11,11,0,0,0-3.79.5,2.21,2.21,0,0,0-.35.16c-3.81-.27-7.63-.5-11.45-.62l-1.76.41a10.57,10.57,0,0,0-4.52,1.13c-1.15.76-1.22,2.28.26,2.8s3.89-.2,4.94.72-1.17,2.39-.5,3.57c.42.74,1.78,1,2.67,1.57,1,.66,1.37,1.67,2.35,2.37a5.31,5.31,0,0,0,4,.68c1.45.16,3.4-.36,3.83.65a1.71,1.71,0,0,1,0,.84,2.88,2.88,0,0,0,2.11,2.71,4.72,4.72,0,0,0,4.08-.43c1-.72,1.44-1.87,2.54-2.53a8.19,8.19,0,0,1,1.16-.53,3.63,3.63,0,0,0,1.32.83,4.74,4.74,0,0,0,4.09-.43c1-.73,1.43-1.87,2.54-2.53.92-.56,2.31-.77,2.79-1.59.76-1.3-1.44-3.06-.21-4.14s3.4.09,5-.41A1.82,1.82,0,0,0,395.7,97.18Z"/><path class="cls-15" d="M354.69,303.72a7.72,7.72,0,0,0,3.67,1.07l1.43.38q6.25-.21,12.49-.81a9,9,0,0,0,3-.64l.28-.16c3.09,0,6.19-.1,9.28-.24l1.39-.45a8.52,8.52,0,0,0,3.58-1.21,1.21,1.21,0,0,0-.39-2.24c-1.28-.34-3.13.42-4-.26s.78-2,.17-2.91c-.39-.57-1.51-.71-2.26-1.1s-1.22-1.26-2.05-1.76a4.31,4.31,0,0,0-3.29-.28c-1.18,0-2.72.51-3.13-.28a1.39,1.39,0,0,1-.06-.67,2.33,2.33,0,0,0-1.88-2.06,3.82,3.82,0,0,0-3.27.62c-.78.65-1,1.6-1.88,2.2a7.79,7.79,0,0,1-.9.51,3,3,0,0,0-1.12-.59,3.82,3.82,0,0,0-3.27.62c-.79.65-1,1.6-1.88,2.2s-1.82.77-2.15,1.47c-.53,1.09,1.35,2.38.43,3.32s-2.75.15-4,.66A1.46,1.46,0,0,0,354.69,303.72Z"/><path class="cls-18" d="M240,183a9.72,9.72,0,0,1-4.53-1.06c-1.33-.82-2.23-2.57-1.56-4,1.05-2.24,5.2-2.56,5-5-2-2.45-6.87-1.59-8-4.55-.9-2.4,1.69-4.55,3.92-5.81-1.52-1.49-1.08-.16-3.14-.72s-3.11-5.57-1.91-7.32c1.35-2,2.05-.35,1.32-2.65-1.63-.54,2-1.87.78-3.08s-1.83-3.24-.89-4.68c1.13-1.73.95-3.05.95-5.12,0-1.76,3.46-2,2.44-3.45-1.87-2.62.77-6,3.2-8.14-1.39-1,.33-1.24-.53-2.69a4.06,4.06,0,0,1,.16-4.74,17.76,17.76,0,0,1,2.57-1.73c3.39-2.59,1.47-8-.72-11.62a6.13,6.13,0,0,0,6.48-4.89c.23-1.39,0-2.87.5-4.17s2.45-2.17,3.32-1.06"/><path class="cls-15" d="M241.28,182.27c-1.81-.13-4-.33-5.07-2a2.58,2.58,0,0,1,.45-3.63c1.06-.84,5.31-2.49,4-4.45s-4.65-1.74-6.5-2.87a2.73,2.73,0,0,1-1.27-3.31c.54-1.56,2.11-2.59,3.47-3.38.23-.13.63-.42.34-.7a2.57,2.57,0,0,0-1.68-.86,4.76,4.76,0,0,0-1.13.11,3,3,0,0,1-.64.15c.1,0,.48,0,.44-.12a4.74,4.74,0,0,1-.82-.38,3.32,3.32,0,0,1-.63-.77,7.23,7.23,0,0,1-.8-2.21c-.28-1.34-.42-3.14.72-4.15.34-.3-.17.1.06-.05a2.81,2.81,0,0,1,.35-.17,1.79,1.79,0,0,0,.67-.51c.32-.51,0-1.26-.26-1.72s-.44-.06,0-.59.84-.75,1.06-1.27a1,1,0,0,0-.19-1.15,5.09,5.09,0,0,1-1.29-2.7c-.07-1.11.56-1.78,1-2.75a7.12,7.12,0,0,0,.45-2.43c0-.75-.24-1.8.22-2.46a5.19,5.19,0,0,1,1.36-1c.43-.3,1-.72,1-1.31,0-.78-.75-1.46-.8-2.31-.15-2.41,2-4.57,3.64-6,.16-.14.27-.35.07-.5-.75-.59-.19-.9-.17-1.66s-.74-1.75-.87-2.67a3,3,0,0,1,1.23-3.12,12.12,12.12,0,0,0,2.71-2c2.75-3.22.51-8.15-1.31-11.24l-3.15,1.28a10.11,10.11,0,0,0,8.29-3.27,6.33,6.33,0,0,0,1.43-3.75,12.77,12.77,0,0,1,.25-2.76,5.57,5.57,0,0,1,.6-1.07c.46-.39,0-.31-1.26.25a1.21,1.21,0,0,1,.43.35c.67.69,4.18-.71,3.61-1.29-1.06-1.09-3-.59-4.25-.15a4.21,4.21,0,0,0-3,3c-.34,1.68,0,3.4-.81,5-.56,1.06-1.53,2.27-2.81,2.17-.38,0-3.55.6-3.15,1.28,1.85,3.16,4.57,9.12.35,11.59-2,1.15-3.48,2.59-2.93,5.07.21.92.94,1.67.73,2.62-.19.8-.24,1.07.48,1.64l.07-.5a12,12,0,0,0-3.78,5.07,4.18,4.18,0,0,0-.08,2.5c.19.59.9,1.14.48,1.71-.28.39-1,.65-1.4.95a2.52,2.52,0,0,0-1,1.43c-.19.9,0,1.9-.07,2.82a10.45,10.45,0,0,1-1.12,2.87,3.73,3.73,0,0,0-.07,2.49,4.53,4.53,0,0,0,.61,1.25c.19.27.67.65.76,1,.31,1-1.48,1.39-1.41,2.34,0,.2.14.26.24.42a4.64,4.64,0,0,1,.31.4s.08.48.15.54l0,.18.54-.37-.29.13a4.35,4.35,0,0,0-1.21.83,4.65,4.65,0,0,0-1.1,4.07c.18,1.42.72,3.33,2,4.14a4.35,4.35,0,0,0,2.56.45c.16,0,1.46-.31,1.49-.28a2.22,2.22,0,0,0-1.14.18c0,.14.58.48.67.57l.34-.69c-2.25,1.3-6.2,4.31-3.85,7.24,1.76,2.18,5.24,1.4,7.09,3.33,1.08,1.13-.71,2.1-1.57,2.59a7.06,7.06,0,0,0-3,2.5,3.39,3.39,0,0,0,1,4c1.49,1.33,3.74,1.45,5.63,1.58a4.67,4.67,0,0,0,2.7-.72c.59-.41.54-.77-.22-.82Z"/><path class="cls-19" d="M248.08,103.36c.46-1.87,2.35-10.8,2.8-12.67a4.23,4.23,0,0,0,5.56-3.44c.09-1.27-.29-2.86.75-3.58s2.49.27,3.79.23c2.9-.09,3.38-4.78,6.11-5.73,1.71-.6,3.64.52,5.38,0,2.62-.79,3.11-4.7,5.64-5.74,1.76-.72,3.8.22,5.64-.24,4-1,5.44-6.84,9.55-6.82,1.5,0,2.88,1.06,4.38,1,2.69-.19-1.26-3.06,1.41-3.4,2.45-.3,4.36,2.32,6.81,2.63,4,.51,6.78-6.13,10.48-4.55,1.59.68,2.43,2.52,4,3.27,3.64,1.74,7.55-3.48,11.46-2.48,2,.51,3.34,2.5,5.35,2.79,3.12.46,5.6-3.37,8.73-3.08,2.51.24,4.31,3,6.82,2.94,1.76-.07-2.53-2.09-.79-2.31,3-.38,5.14,2.94,8.06,3.61,2.46.56,4.88-.83,7.33-1.39s7.74,4.3,7.78,6.82"/><path class="cls-15" d="M250,103.06c1-4.2,1.79-8.46,2.8-12.67l-3.45,1.12a7.7,7.7,0,0,0,8.25-2.59c.87-1.25.71-2.42.77-3.85a5.61,5.61,0,0,0,.1-.73c-.11-.39.84-.43-.55-.15-1.2.23-.22.21.27.33a7.08,7.08,0,0,0,2.51.23A6.49,6.49,0,0,0,264.52,83a15.64,15.64,0,0,0,2-2.78,15,15,0,0,1,1-1.25c.34-.42.28-.07-.07-.12l1.33.17A8.73,8.73,0,0,0,274,78.4a7.26,7.26,0,0,0,2.77-2.59c.49-.73,1.3-2.63,2.23-2.89-.35.1.59.16.7.17.41,0,.82.08,1.23.1a10.29,10.29,0,0,0,3-.27A9.36,9.36,0,0,0,287.67,71a24.84,24.84,0,0,0,2.65-2.78,7,7,0,0,1,2.1-2c-.33.13.26.07.53.13.47.11.92.31,1.38.46a7.4,7.4,0,0,0,2.56.38c1.07-.06,3.12-.42,3.61-1.59.3-.72-.26-1.34-.4-2a1.51,1.51,0,0,0-.07-.39s.06-.13,0-.14-1.54.51-1.34.72.69.21.87.29a10.15,10.15,0,0,1,1.25.69,9.67,9.67,0,0,0,4,1.66,8.25,8.25,0,0,0,4.17-.81,13.81,13.81,0,0,0,3.11-2.07c.81-.67,1.72-1.28,2.51-2,.51-.44-.39.27-.37,0a2.69,2.69,0,0,1,.59.17,6.09,6.09,0,0,1,1.76,1.48,6,6,0,0,0,3.67,2.18c3,.38,5.67-1.32,8.32-2.5a2.79,2.79,0,0,1,3.07.26c1.3.81,2.43,1.85,4,2.16,3.23.65,5.79-1.34,8.47-2.75,1.11-.59,2.21.32,3.16,1A8.65,8.65,0,0,0,351,65.3c1.09.11,3.36,0,3.93-1.18.31-.64-.4-1.1-.84-1.48a4.13,4.13,0,0,0-.65-.61l0,0c-.14-.38-.47-.22-1,.48l-1,.52.22,0c.28.16.71.19,1,.33,1.36.61,2.49,1.67,3.79,2.39a7.82,7.82,0,0,0,4.66,1,15.15,15.15,0,0,0,2.91-.58,13.88,13.88,0,0,1,3-.94c-.57,0,.28.16.47.23a8.44,8.44,0,0,1,1.62.94A14,14,0,0,1,372,69a5,5,0,0,1,1.24,2.69c.06.9,3.9.2,3.83-1-.13-2.14-2.32-4.18-3.9-5.4a7.17,7.17,0,0,0-7.07-1.35c-1.73.53-3.48,1.47-5.29.77a30.72,30.72,0,0,1-4-2.45,6.87,6.87,0,0,0-4.05-1c-.79.06-3.25.46-3.13,1.67.05.58.88,1,1.26,1.41a2.42,2.42,0,0,0,.33.31s0,.06,0,.07,2.49-1,2.17-1.16a6.22,6.22,0,0,0-.83-.26,7.23,7.23,0,0,1-1.05-.59,11.29,11.29,0,0,0-3.91-2,8.26,8.26,0,0,0-4.65.65c-1.37.56-2.53,1.44-3.83,2.12-.59.31-.51.32-1.09.13A8.51,8.51,0,0,1,336,62.36a7.16,7.16,0,0,0-4.24-1.6,11.21,11.21,0,0,0-4.41,1c-1.28.53-2.46,1.27-3.75,1.77-1.12.43-2-.18-2.8-1-1-1-1.94-2.18-3.43-2.55a6.92,6.92,0,0,0-4,.42c-2.32.9-3.75,2.92-5.87,4.1-.41.23-.16.13-.33.15a5.1,5.1,0,0,1-2.23-1A9.47,9.47,0,0,0,301,62a5.75,5.75,0,0,0-4.37,1.23c-.58.6-.37,1.24-.11,1.94a6.4,6.4,0,0,0,.27.9c-.05,0,1.3-.64,1.28-.71a4.12,4.12,0,0,0-.59-.18c-.53-.16-1.05-.36-1.58-.5a7.87,7.87,0,0,0-4.72.35c-2.52,1-4,3.06-5.78,4.95A8.45,8.45,0,0,1,284,71.18c-.52.36-.73.24-1.5.17A10.48,10.48,0,0,0,277,72a7.13,7.13,0,0,0-2.85,2.54A10.57,10.57,0,0,1,272,77.51c-.25.18,0-.15.2-.11a5.42,5.42,0,0,0-.58-.06l-1.18-.17a8.39,8.39,0,0,0-2.87.1,6.82,6.82,0,0,0-3.71,2,28.39,28.39,0,0,0-2,2.89c-.12.17-.85.83-.85,1,0-.33,1.24.13.67-.23a2.53,2.53,0,0,0-.56-.12c-.41-.1-.81-.22-1.23-.28-1.6-.24-3.81.21-4.83,1.6-.86,1.17-.27,2.69-.59,4a3.19,3.19,0,0,1-1,1.61c-.41.38-.36.35-1,.1S249.23,90,249,91c-1,4.2-1.79,8.46-2.81,12.67-.25,1.07,3.54.49,3.8-.6Z"/><path class="cls-20" d="M288.75,80.51C274.07,86,268,91.07,260.62,104.89l84-27.93a74.8,74.8,0,0,0-18.06-2.12C310.86,75.24,303.44,75,288.75,80.51Z"/><path class="cls-15" d="M288.06,80c-6.26,2.35-12.49,5.12-17.62,9.49s-8.61,10-11.72,15.74c-.5.93,2.4.3,2.59.24l8.32-2.77,20-6.66L314,87.91l20.94-7c3.4-1.13,6.85-2.16,10.21-3.4l.15,0c.26-.09,2-1.09.86-1.34a89.31,89.31,0,0,0-13.22-2.06c-4.1-.28-8.23-.07-12.33,0a105.15,105.15,0,0,0-20.18,2.06A94,94,0,0,0,288.06,80c-.4.15-1.57.65-1.1,1.22s2,0,2.48-.13a74.42,74.42,0,0,1,18.73-4.61c3.07-.31,6.14-.44,9.22-.53,3.8-.12,7.64-.34,11.44-.19a81,81,0,0,1,14.2,2l.87-1.34-8.33,2.77-20,6.65-24.34,8.1-20.94,7c-3.37,1.12-6.92,2-10.21,3.39l-.14,0,2.58.24c2.93-5.45,6.27-10.81,11-14.91s10.29-6.5,15.95-8.62c.4-.15,1.57-.66,1.11-1.23S288.52,79.8,288.06,80Z"/><path class="cls-20" d="M408.62,83.25c-.4-.19-.8-.38-1.18-.59-2-1.1-3.45-4.09-1.63-5.41-4.05,1.59-6.86-5.44-11.21-5.43-1.25,0-2.42.62-3.65.81a5.73,5.73,0,0,1-6.29-5.73,13.82,13.82,0,0,1-10.47,1l-29.6,9c12.9,2.89,26,7.9,38.42,9.62,6,.83,12.05,1.86,17.37,4.71,3.87,2.07,8.83,3.25,12.8,5.46C411.68,92.24,410.2,87.73,408.62,83.25Z"/><path class="cls-15" d="M410.14,82.32a5.75,5.75,0,0,1-2.74-2.19c-.43-.74-.82-1.92-.06-2.55.47-.39.53-.94,0-1.26a3,3,0,0,0-2.28.14c.55-.2.16,0-.16-.14a4.94,4.94,0,0,1-.95-.47,15.59,15.59,0,0,1-2.06-1.66,14.05,14.05,0,0,0-4.38-3.07,6.9,6.9,0,0,0-3.06-.35c-1.23.14-2.55.91-3.78.81-2.29-.2-4.14-2.74-4.09-4.92,0-1.47-2.41-.7-3.1-.34a10.1,10.1,0,0,1-3.69,1.05,17.8,17.8,0,0,1-4.42-.51,4.66,4.66,0,0,0-2.13.29L367.09,69,348.86,74.6,344.33,76c-.82.25-2.68,1.62-.91,2,9.43,2.13,18.6,5.24,28,7.55,4.54,1.11,9.1,1.81,13.71,2.55a44.87,44.87,0,0,1,13,3.7c4.42,2.2,9.24,3.51,13.58,5.87.75.41,3.87-.13,3.43-1.44-1.5-4.51-3-9-4.56-13.5-.47-1.35-4.27-.25-3.82,1,1.57,4.48,3.06,9,4.56,13.5l3.43-1.44c-3.86-2.1-8.16-3.15-12.08-5.1a49.14,49.14,0,0,0-13-4.33C385.09,85.55,380.51,85,376,84c-4.71-1.08-9.37-2.41-14-3.75-5.38-1.55-10.76-3.1-16.21-4.34l-.91,2L370.77,70l3.68-1.12L373,69a17.42,17.42,0,0,0,12.83-1.49l-3.1-.34a6.44,6.44,0,0,0,4.31,6.2,7.77,7.77,0,0,0,4.3.24c1.23-.26,2.35-.92,3.58-.4,2,.84,3.38,2.67,5.07,3.93a6.58,6.58,0,0,0,6.56,1l-2.3-1.12a3.16,3.16,0,0,0-.86,3.9,6.92,6.92,0,0,0,3.69,3.35,3.08,3.08,0,0,0,2.71-.35C410.31,83.5,411,82.71,410.14,82.32Z"/><path class="cls-18" d="M408.36,275.06A40.2,40.2,0,0,1,403.65,286c1.42.48.81,2.69-.32,3.68s-2.68,2.07-2.37,3.53c.1.51.44.95.53,1.47.3,1.61-1.68,2.59-3.27,3,1.07.85.14,2.58-.94,3.41s-2.47,1.9-2.11,3.22c.17.65.76,1.18.74,1.85-.05,1.4-2.35,1.38-3.12,2.55-.45.68-.27,1.58-.46,2.36a2.61,2.61,0,0,1-4,1.31c-.35,2.84-1.6,6.5-4.46,6.33-1.76-.11-3.43-1.82-5.06-1.12-1,.44-1.45,1.64-2.38,2.22-3.13,2-6.92-4.58-10-2.6-1.68,1.05-1.64,4-3.53,4.6s-3.34-1.5-5.2-1.72c-2-.23-4.11,1.78-5.91.83-.78-.42-1.21-1.28-1.87-1.87-1.52-1.33-3.09.65-5,1.24-3.46,1-3.75-1.44-3.75-1.44-1-2.43-2.34-2.26-4.64-1a5.71,5.71,0,0,1-2.34,1.1c-2.13.08-3.1-3.43-5.23-3.26a7.25,7.25,0,0,0-2.13,1c-2.59,1.17-5.75-2.31-4.34-4.78a6,6,0,0,1-5.68-6.46,5.39,5.39,0,0,1-6.71-4.74c-3.55.94-7.27-3.3-5.86-6.7a4.26,4.26,0,0,1-5.45-4c.06-1.36.65-3.07-.47-3.84-.74-.51-1.74-.18-2.63-.2a3.42,3.42,0,0,1-2.84-4.7c-3.52.85-6.74-4.08-4.55-7-2.78.59-5.24-3.28-3.54-5.54-3.8-.16-6.33-5.25-4.16-8.38l43.52,45.47,11.28,5.26s40.1,4,47.7.63S408.36,275.06,408.36,275.06Z"/><path class="cls-15" d="M406.47,275.39a41.74,41.74,0,0,1-4.7,10.89.23.23,0,0,0,.08.33c2.55,1.14-1.57,4.15-2.24,5.07-.83,1.14-.53,1.86-.14,3.09s-.34,1.93-1.42,2.23c-.25.06-2.23.69-1.63,1.28,1.48,1.47-1.43,3.18-2.24,4.05a2.88,2.88,0,0,0-1,2.11c.05.73,1.06,1.61.75,2.33-.2.47-.86.59-1.29.81a4.29,4.29,0,0,0-1.68,1.3c-.52.77-.32,1.61-.54,2.46-.09.33-.54.7-.59.94,1.13-.13,1.4-.23.81-.31a1.53,1.53,0,0,1-.52-.31c-.63-.45-3.57.09-3.69,1a11.48,11.48,0,0,1-1.29,4.29c-.17.31-.47.57-.63.87,0,.05-.26.19-.27.24,0-.34,1.21.14.67-.24a8.54,8.54,0,0,0-1.32-.46c-.42-.18-.82-.37-1.25-.52a6.42,6.42,0,0,0-5.29.78,7.4,7.4,0,0,0-1.52,1.49,3,3,0,0,0-.34.37l-.12.1c-.46.36-.09.27,1.11-.26-.12-.1-.48-.11-.64-.17-2.23-.83-3.87-3-6.35-3.16a7.15,7.15,0,0,0-4.4,1.17,7.54,7.54,0,0,0-2.18,3.19c-.15.3-.36.56-.51.85,0,.06-.22.18-.23.25.47-2.08,1.9,0,1-.51a22.5,22.5,0,0,0-2.17-1.15,6.79,6.79,0,0,0-4.94-.16,18.09,18.09,0,0,1-1.94.69c-.66,0-1.39-1.2-1.9-1.71-1.25-1.26-3.15-.92-4.67-.36a15.65,15.65,0,0,0-2.13,1.06c-.47.26-.68.51-1.18.28s-.74-.72-1-1.28c-1.18-3.08-4.45-2.33-6.89-1.18a12.38,12.38,0,0,0-1.14.6,3.61,3.61,0,0,0-.65.39c-.86.78.89-.29.86,0s-1.55-1.15-1.62-1.22c-1-1.06-1.86-2-3.41-2a7.22,7.22,0,0,0-3.13.73,3.48,3.48,0,0,0-.71.38c-.77.59.31-.16.36.07,0,0-.91-.35-1-.45a3.25,3.25,0,0,1-1.34-4.08c.19-.38-.45-.47-.66-.47-3.09-.11-5.27-3.24-5-6.17.05-.58-2-.14-2.08-.11-.88.24-2.3-.64-3-1.26A4.88,4.88,0,0,1,312,300.1c0-.6-1.89-.15-2.08-.11.35-.08-.57-.19-.73-.25a4,4,0,0,1-.89-.46,5.45,5.45,0,0,1-1.57-1.53,4.54,4.54,0,0,1-.61-4.15c.29-.79-1.86-.36-2.06-.3-1.09.34-2.83-1.53-3.19-2.63-.48-1.47.51-3.14-.18-4.52-.9-1.84-3-.59-4.39-1.18a3.2,3.2,0,0,1-1.57-4.07c.28-.66-1.37-.45-1.54-.41-1.26.24-2.65-1.41-3.14-2.36a4,4,0,0,1,.12-4.2c.43-.61-1.49-.42-1.54-.41.23,0-.37-.16-.44-.19a3,3,0,0,1-.7-.46,3.74,3.74,0,0,1-1-1.33,3.09,3.09,0,0,1,.16-3.15c.25-.37-.5-.47-.65-.48-3.57-.26-5.31-5.12-3.52-7.89l-3.68,1,20.55,21.47,14.76,15.42,5.36,5.6c.88.91,1.71,2,2.68,2.79a2,2,0,0,0,.62.39c1.32.63,2.64,1.23,4,1.85l4.71,2.2a12.08,12.08,0,0,0,2.73,1.15c1.23.2,2.52.23,3.77.34,3.12.28,6.25.52,9.38.74,8,.57,16.12,1,24.18.86,5.59-.11,11.77-.17,16.05-4.24a52.25,52.25,0,0,0,6.25-7.58c2.39-3.35,4.62-6.82,6.77-10.32q4.86-7.9,9.26-16.07l.48-.88c.34-.64-1.34-.44-1.55-.41-.67.11-1.87.38-2.23,1.07-2.09,3.93-4.3,7.8-6.56,11.64a154.58,154.58,0,0,1-12.76,19.34,36.48,36.48,0,0,1-3,3.34,15.75,15.75,0,0,1-1.2,1.06c-.1.09-.37.27-.54.39l-.27.16c-.06,0,.22-.1-.11.05s.4-.2,0,0a.66.66,0,0,1-.21.08c-.42.06.47-.12,0,0l-.38.1c-.55.15.26,0-.33.07l-.94.16c-1,.16-2.77.3-4.17.37a201.3,201.3,0,0,1-23-.55c-5.34-.33-10.67-.93-16-1.26-.1,0-.31-.08-.4,0,.24-.1.77.29.16,0-1.17-.61-2.41-1.12-3.61-1.68l-5-2.31a14.27,14.27,0,0,1-2.34-1.1,13.81,13.81,0,0,1-1.63-1.7l-4.47-4.67L306,284.4l-23.24-24.27-.42-.45c-.71-.73-3.24.3-3.69,1-2.41,3.72.69,8.55,4.82,8.85l-.66-.48a3.78,3.78,0,0,0,.37,4.46,4.68,4.68,0,0,0,4.71,1.5l-1.54-.41a4.63,4.63,0,0,0,.42,5.49,5.48,5.48,0,0,0,5.67,1.88l-1.54-.41a3.74,3.74,0,0,0,1.49,4.59,4.71,4.71,0,0,0,2.81.57c.69,0,1.33-.16,1.68.59a2.93,2.93,0,0,1,.13,1.35,8.32,8.32,0,0,0-.05,2.9,4.56,4.56,0,0,0,1.48,2.19,6.23,6.23,0,0,0,5.91.81l-2.06-.3a5.3,5.3,0,0,0,1.49,5.66c1.78,1.73,4.12,1.85,6.43,1.33l-2.08-.11c.3,4.41,5.12,5.88,8.79,4.86l-2.08-.11c-.35,3.68,2.81,6.63,6.35,6.74l-.65-.47c-1.43,2.86,1.54,5.6,4.32,5.48a8,8,0,0,0,2.8-.65c.18-.08,1.3-.55,1.28-.68l-.44.09c-.51,0-.59.07-.24.19,0,.09.32.22.41.28,1.07.83,1.73,2.15,3.06,2.64,1.78.65,3.88-.19,5.4-1.12l1.08-.63c.83-.5-.21.11-.23,0,0,0,.49.35.55.42a3.5,3.5,0,0,1,.67,1.17c.86,2.22,3.07,2.2,5.19,1.7a11.24,11.24,0,0,0,2.89-1.09,10.5,10.5,0,0,0,1.09-.61,1.65,1.65,0,0,0,.26-.14c-.82,0-1.05.16-.68.38a1.55,1.55,0,0,1,.27.24c.7.65,1.13,1.47,2,1.86a4.72,4.72,0,0,0,2.47.2,14.65,14.65,0,0,0,2.9-.79,2.15,2.15,0,0,1,2.12.36c1.67.93,3,1.51,5,1a5.21,5.21,0,0,0,3.68-2.77,17.54,17.54,0,0,1,.92-1.84c.1-.15.29-.32.37-.47.37-.7.88,1.72-1.07.21.16.13.56.14.76.22,2.42,1,4.16,3.26,7,3.12a6.78,6.78,0,0,0,5-2.46c.05-.06.43-.5.44-.49.16.24-1.85-.21-.88.27.48.24,1.06.41,1.56.62a6.34,6.34,0,0,0,2.9.59,6.89,6.89,0,0,0,5-2.32,10.28,10.28,0,0,0,1.87-5.13l-3.69,1c1.87,1.34,5.14.51,6.75-.91.94-.83.92-1.72,1.1-2.87s1.1-1.26,2.05-1.83c.66-.39,1.38-.93,1.38-1.78,0-1.34-1.39-2-.31-3.35S402.06,299,400,297l-1.64,1.28c1.7-.46,5-1.48,5.05-3.69,0-1.32-1.09-2.14-.11-3.42.72-.94,1.83-1.49,2.47-2.5a3,3,0,0,0,.48-2.55c-.15-.36-.5-.53-.5-.83,0-.46.88-1.51,1.09-1.92a41,41,0,0,0,3.39-8.6C410.48,273.89,406.74,274.39,406.47,275.39Z"/><path class="cls-21" d="M269.27,190.29c4-3.9-.92-11.4,2.18-16,.72-1.08,1.82-1.88,2.42-3,1.68-3.22-1.25-7.34.15-10.7.63-1.5,2.05-2.59,2.55-4.14.95-3-1.81-6-1.48-9.08.38-3.47,4.56-6.39,3.25-9.63-.64-1.58-2.45-2.49-3-4.1-1-2.81,2.21-6.48.09-8.56-.74-.72-1.92-.91-2.53-1.75-1.22-1.68.85-3.72,1.66-5.63s.27-4.24.52-6.38,2.27-4.46,4.22-3.56c-1.13-3.37,1-12.51,4.5-12.09,1.74.2,4,1.06,4.9-.43.66-1.06-.05-2.53.5-3.65,1.39-2.86,6.28,1.44,8.82-.48.69-.52,1-1.39,1.59-2,1.32-1.44,3.63-1.31,5.5-.75s3.78,1.42,5.7,1.07,3.58-2.7,2.4-4.26c2,1.17,4.07,2.36,6.36,2.53s4.88-1,5.51-3.23c.59,3.24,5.53,4.52,7.62,2,.83-1,1.41-2.53,2.71-2.67a2.93,2.93,0,0,1,1.66.47c2.29,1.26,5.35,8.33,6.59,10.63l-1-14.27L302.88,74.7,270,94.14l-12.46,41.42L270.92,193"/><path class="cls-15" d="M271,190.12c4.11-4.26-.26-10.4,1.83-15.28.64-1.49,2-2.41,2.82-3.79a6.36,6.36,0,0,0,.58-4c-.19-1.54-.65-3.06-.69-4.63a6.82,6.82,0,0,1,1.8-4.41,5.54,5.54,0,0,0,1.28-4.25,38.06,38.06,0,0,0-1.37-4.53c-.88-3.37,1.25-5.46,2.6-8.28a4.71,4.71,0,0,0,.45-3.61c-.49-1.38-1.79-2.18-2.59-3.35-1.7-2.49.55-5.14.37-7.77-.12-1.72-1.52-2.14-2.75-3-1.72-1.19-.45-3.11.34-4.46a9.31,9.31,0,0,0,1.27-5.39,10.3,10.3,0,0,1,.22-3.28,4.64,4.64,0,0,1,.52-1.13,3.12,3.12,0,0,1,.34-.47,1.2,1.2,0,0,1,.26-.29c.37-.31.11-.26-.78.16.51.19,4-.22,3.71-1.15-.88-2.83-.07-6.48,1.16-9.09a7.35,7.35,0,0,1,1.05-1.71c.37-.41,1-.57-.28-.24s-.26.28.37.39a8.41,8.41,0,0,0,6.27-.9,2.61,2.61,0,0,0,1.13-2.2,8.81,8.81,0,0,1,0-1.92c.05-.17.21-.37.24-.54.13-.7-1.89.06-1.31.29s1.35.28,2,.45a14.18,14.18,0,0,0,2.49.54,7.71,7.71,0,0,0,5.4-1.38,5.47,5.47,0,0,0,1-1.15c.14-.21.26-.42.41-.62s.64-.74.27-.49c-.16.11,0,0,.36,0a6.13,6.13,0,0,1,.73.11,13.89,13.89,0,0,1,1.89.51c2.83.91,5.59,1.34,8.38,0,1.65-.8,3.58-2.78,2.34-4.68l-3.72,1.15c2.77,1.62,5.61,3,8.9,2.53,2.57-.37,5.76-1.52,6.67-4.22l-3.8.86c.53,2.4,3,3.55,5.24,3.56a9.76,9.76,0,0,0,4.37-1,7,7,0,0,0,2.62-2.55c.18-.26.43-.51.6-.77.45-.41.07-.24-1.13.51a4.63,4.63,0,0,1,.54.29,4.55,4.55,0,0,1,.92.83,19,19,0,0,1,2.13,3.18c1.18,2.09,2.16,4.29,3.29,6.4.4.76,3.88-.16,3.82-1L344.62,80a.42.42,0,0,0-.34-.2l-16.47-2.41L305.94,74.2c-.49-.07-1-.17-1.48-.22a6.09,6.09,0,0,0-3.63,1l-7.05,4.17L272.67,91.68l-3.09,1.83a4.38,4.38,0,0,0-1.47,1,5.24,5.24,0,0,0-.38,1.24l-1,3.37-7,23.36-3,10.08a13.5,13.5,0,0,0-1,3.59,7.45,7.45,0,0,0,.32,1.38l.7,3,2.24,9.56,5.86,25.16,4.05,17.33.2.88c.18.76,4-.19,3.83-1l-6-25.78-7.18-30.8a5.32,5.32,0,0,1-.18-.79c0,.26,0-.14.11-.37l1.43-4.76,5.37-17.82,4.79-15.93.57-1.89c.25-.81.12-.12-.24-.16.24,0,.86-.5,1-.61l2.27-1.35,28.84-17.05.7-.41-3,.69,34.92,5.11,4.89.71-.33-.2,1,14.27,3.82-1c-1.08-2-2-4.12-3.13-6.13-1-1.83-2.25-4.25-4.37-5a6,6,0,0,0-4.67.67c-1.25.7-1.67,1.91-2.6,2.91a5.09,5.09,0,0,1-.44.37c-.18-.31,1.08.18.28-.15-.47-.2-1-.19-1.51-.44A3.78,3.78,0,0,1,327,83.87c-.18-.79-3.58.22-3.8.86a3.71,3.71,0,0,1-1.29,1.89c-.09.06-.76.34-.31.23a3.07,3.07,0,0,1-1.09,0,15.92,15.92,0,0,1-5.5-2.38c-.55-.32-4.1.56-3.71,1.15a2.18,2.18,0,0,1-.09,2.55c-.13.2-.33.34-.46.53-.53.74.24-.31.42,0-.07-.11-2.06-.36-2.31-.43-2.32-.69-4.39-1.38-6.85-.94a7.43,7.43,0,0,0-5.36,3.58l-.14.14c-.43.4-.1.33,1-.2,0,0-.33,0-.42,0-.38-.09-.77-.14-1.16-.24-.81-.2-1.6-.47-2.42-.63a7.31,7.31,0,0,0-5.25.94,2.5,2.5,0,0,0-1.14,1.74,7.42,7.42,0,0,0,0,1.49A10.61,10.61,0,0,1,287,95.2l-.16.33c1.2-.14,1.53-.22,1-.25a7,7,0,0,0-1.47-.23,11.47,11.47,0,0,0-1.29-.19,7.35,7.35,0,0,0-2.85.49A5.89,5.89,0,0,0,279,98.13c-1.55,2.73-2.52,7-1.56,10.08l3.72-1.15a6.25,6.25,0,0,0-7.81,4c-.44,1.77,0,3.62-.23,5.41s-1.66,3.23-2.25,5c-.5,1.52.14,2.56,1.49,3.3s2.11,1.58,1.91,3.22c-.18,1.45-.81,2.81-1,4.27a4.54,4.54,0,0,0,1.5,3.71c1.11,1.19,2.17,2.36,1.85,4.11a12.52,12.52,0,0,1-1.93,3.91,9.05,9.05,0,0,0-1.51,4c-.13,1.79.7,3.46,1.22,5.13a5.34,5.34,0,0,1-.38,4.93c-.93,1.41-2,2.55-2.25,4.31-.37,3.12,1.85,6.63,0,9.53-1,1.6-2.5,2.58-3,4.48a13.09,13.09,0,0,0-.21,4.71c.29,3,1.34,6.92-1,9.36-.58.6.52.58.88.56a4.5,4.5,0,0,0,2.57-.9Z"/><path class="cls-18" d="M268.61,216.2l3.38.38a1.66,1.66,0,0,0,1-.1c.75-.46.34-1.59.11-2.44-.52-2,.6-4,1.48-5.82s1.47-4.23.14-5.79c-.7-.82-1.9-1.36-2-2.44-.15-1.4,1.59-2.11,2.54-3.16a3.43,3.43,0,0,0-1.51-5.31s2.47-2.68,1.63-8-2.4-11.07-2.4-11.07l-7.92-4.51Z"/><path class="cls-15" d="M267.39,217.05c2.08.24,4.32.81,6.33,0,1.62-.68,1.8-1.62,1.41-3.19-.91-3.74,2.94-6.6,2.26-10.35a3.79,3.79,0,0,0-1.06-2c-.47-.48-1.16-.84-1.49-1.44-.82-1.52,1.39-2.41,2.18-3.33a3.79,3.79,0,0,0-1.7-6l.19.7c3.34-3.69,1.68-9.64.76-13.89-.31-1.4-.64-2.8-1-4.19a3.88,3.88,0,0,0-.49-1.6,5.17,5.17,0,0,0-1.19-.68l-2.44-1.39-4.29-2.44c-.74-.42-3.79,0-3.71,1.19l1.2,16.31,1.9,26,.43,6c.07.85,3.91.15,3.83-1l-1.19-16.3-1.9-26-.44-6-3.71,1.19,4.72,2.69,2.76,1.57a2.38,2.38,0,0,1,.44.25c-.27-.26,0,.39.1.62a65.43,65.43,0,0,1,2.33,11.56c.14,2.05-.21,4.78-1.61,6.32-.27.31-.18.58.19.71a3,3,0,0,1,1.86,2.54,2.9,2.9,0,0,1-1.35,2.78c-.81.67-1.86,1.42-1.9,2.58s1.16,1.87,1.92,2.65c2.26,2.35-.25,5.75-1.13,8.11a6.62,6.62,0,0,0-.22,4.17,9.3,9.3,0,0,0,.16.92c-.21.56.05.55.8,0,1-.24,1.16-.37.38-.39a14.64,14.64,0,0,0-2.9-.33,4.07,4.07,0,0,0-2.71.73C266.54,216.52,266.61,217,267.39,217.05Z"/><path class="cls-21" d="M401.78,89.58c-.47,1.1,1,2,2.23,2.14s2.75.39,2.95,1.58c.12.73-.42,1.45-.3,2.19.36,2.24,4.69.37,5.86,2.32.88,1.46-1,3.77.34,4.87.61.53,1.53.34,2.34.4a3.46,3.46,0,0,1,3,2.56c.25,1,0,2.16.6,3,.68,1.07,2.14,1.22,3.28,1.76,3,1.41,3.67,5.34,3.71,8.66s0,7.12,2.55,9.3c2.35-2-.14-4.05-2-6.51a17.82,17.82,0,0,1-1.71-2.18,2.06,2.06,0,0,1,.25-2.55c.35-.29.86-.41,1.08-.82.6-1.15-1.6-1.45-2.63-2.25-1.3-1-.5-3.08.5-4.37s2.18-3,1.34-4.4c-.74-1.24-2.65-1.34-3.41-2.56-.87-1.39.26-3.22-.11-4.81-.48-2.12-3.14-2.75-5.3-3a3.39,3.39,0,0,0-1.45-5.18c-.81-.27-1.8-.26-2.34-.93-.79-1,.06-2.76-.9-3.6-.8-.7-2.2-.07-3.07-.7-1.38-1,.33-3.34-.43-4.87-1-2-5.45-1.27-5.21-3.51"/><path class="cls-15" d="M399.87,89.82c-.56,1.93,1.81,2.76,3.27,3,.81.12,1.92.2,1.88,1.24s-.61,1.78,0,2.67c.83,1.15,2.62,1.08,3.88,1.15a2.48,2.48,0,0,1,1.54.35c.67.6.3,1.67.15,2.41-.39,2,.24,3.32,2.42,3.5,1,.09,1.76,0,2.53.76s.73,2.07.92,3.23c.41,2.4,2.61,2.41,4.34,3.4s2.37,2.91,2.72,4.7c.82,4.31-.63,9.59,3,12.94.82.75,2.6.23,3.31-.44,1.18-1.1,1.73-2.38,1-3.9a23,23,0,0,0-3.21-4.28,4.68,4.68,0,0,1-1.33-2.07c-.19-1,.49-1,1.13-1.68,1.07-1.09.38-2.09-.76-2.68a9.68,9.68,0,0,1-1.55-.76,1.74,1.74,0,0,1-.34-2c.52-1.6,2-2.69,2.47-4.32a3,3,0,0,0-1.68-3.57,6.75,6.75,0,0,1-1.73-1,2.89,2.89,0,0,1-.33-2.55c.26-1.71.18-3.25-1.29-4.35A9.43,9.43,0,0,0,417.51,94l.61,1.08a4,4,0,0,0-1.57-6.1c-.58-.24-1.49-.21-2-.58s-.45-1.12-.47-1.68c0-1.49-.53-2.49-2.11-2.77-.5-.09-1.45.12-1.81-.25s-.17-1.23-.09-1.7c.19-1.14.44-2.4-.39-3.36a5.88,5.88,0,0,0-2.94-1.45c-.6-.17-1.92-.34-1.89-1.18.06-1.56-3.77-.79-3.82.48-.1,2.34,2.59,2.36,4.21,3.06,2.6,1.11-.34,4.21,1.57,5.82a3.29,3.29,0,0,0,1.92.63c.63.06,1.18-.14,1.43.55.47,1.29-.28,2.59,1.09,3.53,1,.7,2.42.45,3.23,1.5a2.84,2.84,0,0,1,.08,3.42c-.38.5.08,1,.61,1.08,1.47.15,3.59.38,4.37,1.87.93,1.76-.77,3.84.43,5.6.9,1.33,3.66,1.51,3.54,3.42s-2.13,3.23-2.63,5,.35,2.9,1.91,3.64l1,.5c.1.05.38.5.44.16,0,.13-1,.68-1.16.83a2.65,2.65,0,0,0-.65,1.08c-.55,2,1.27,3.48,2.36,4.85.95,1.2,3.61,3.55,2,5.1l3.31-.44c-3.1-2.86-2.12-7.52-2.55-11.27a10.25,10.25,0,0,0-1.87-5.21,5.86,5.86,0,0,0-1.95-1.58c-.85-.44-2-.54-2.73-1.16s-.66-1.92-.83-2.92a4.07,4.07,0,0,0-1.58-2.58A4.93,4.93,0,0,0,416,102c-1-.07-1.72.1-1.63-1.13.1-1.49.94-3.12-.46-4.29-1.19-1-2.9-.78-4.33-.93-.63-.07-1-.21-.93-.9,0-1.08.64-2-.24-2.93a4.6,4.6,0,0,0-2.56-1c-.75-.12-2.44-.28-2.1-1.43.39-1.34-3.45-.82-3.83.48Z"/><path class="cls-22" d="M304.16,184.57l2.37,7.56c1.34,5.85,6.88,17.36,8.84,20.56,2.76,4.48,34.26,7.06,40.53,3.7s10.16-20.93,11.91-25l12.6,1.05c1,5.33,4.54,22.21,6.88,24.54s16.82,2.34,18.45,2.34c1.36,0,3.25,0,5.32-.14,5.48-.23,12.13-1,14.22-2.87,3.1-2.85,6.69-14,9.8-24.53l.5-1.65c.11-.4.25-.67.26-.79h0l.55-1.9c-18-9-41.83-8.29-56.55,1.72l.11.19-12.29-1.08c-13.68-9.45-37.59-15.06-54.93-9h0l-48.36,12-.27,4.62Zm84.65,30.77c-1.46-1.46-4.31-13.29-6.21-22.5,12.79-8.44,34.3-9.06,50.38-1.92v.24c-1.67,5.65-6.1,20.68-9.15,23.49-3.62,3.31-32.44,3-35,.74Zm-69.67-3.81c-4.88-6.9-8.77-17.8-11.21-27,15.46-6.37,43.42-1.66,56.79,7.31-2.35,7.32-5.4,20.16-9.9,22.55-6.47,3.47-33.95,0-35.68-2.82Z"/><path class="cls-23" d="M389.13,215.11c-1.47-1.46-4.32-13.29-6.22-22.5,12.79-8.44,34.31-9.06,50.38-1.92v.24c-1.67,5.65-6.1,20.68-9.15,23.49-3.61,3.31-32.44,3-35,.74Z"/><path class="cls-23" d="M319.14,211.53c-5.2-7.54-8.77-17.8-11.21-27,15.46-6.37,43.42-1.66,56.79,7.31-2.35,7.32-5.4,20.16-9.9,22.55-6.47,3.47-33.95,0-35.68-2.82Z"/><path class="cls-13" d="M570.76,813.56s11.37-43.18-44.26-55.65c0,0,57.55,3.52,49.26,55.65Z"/><path class="cls-5" d="M441.77,709.24,397,750.65s2.55.35,6.35.82c7.14-1.37,14.41-1,21.65-1.29,6.83-.31,13.62-1.19,20.45-1.43a30,30,0,0,1,12.4-2.7c1.79,0,3.33-.69,3.68-3C462.48,737,441.77,709.24,441.77,709.24Z"/><path class="cls-5" d="M120.39,651c5.83-9.13,16.15-2.5,22.57-11.13,7-9.38,21.71-8.68,30.22-16.38,6.7-6.07,3.07-15.11,10.63-19.82l5.32-77.34,11.48-37.57S198.5,448.31,183.29,415,151,339.32,151,339.32s-33.88,10.74-45.1,71.61c-5.33,28.95-13.67,108.94-13.67,108.94s-9.77,95.24-6.5,113.49c2.52,14.1,7.3,41.61,26,55.06"/><path class="cls-5" d="M325.56,732.85l-55.47-29-58.27-43.26c-9.49-2.34-6.73,4.77-16.47,4.26a180.76,180.76,0,0,0-31.8,1.34c-10.16,1.26,8.11-47.16-1.91-45.07-10.34,2.17-30.49,11.09-40.33,15-1.25.49-21.49,14-22.73,14.55,1.61,5.88,4.11,29.35,9.11,35.07,23.85,27.27,149,89.76,149,89.76l34.9,12.4Z"/><path class="cls-12" d="M319.13,497.4a.58.58,0,0,1,.23,0c.05.3.18.61-.07.89Z"/><path class="cls-12" d="M334.58,583.61a.51.51,0,0,1-.21.1l-.1-.57Z"/><path class="cls-24" d="M389.4,485.13l-.32,0,.3-.17A.18.18,0,0,1,389.4,485.13Z"/><path class="cls-24" d="M344.28,493l.29-.22.1.16Z"/><path class="cls-24" d="M388.43,485.22l-.42.07A.29.29,0,0,1,388.43,485.22Z"/><path class="cls-24" d="M320.12,497.26a.23.23,0,0,1,.36-.07Z"/><path class="cls-4" d="M422.8,803.38c3.82-2,7.3-4.47,7.86-9,.23-1.79-1.28-2.29-1.87-4.33l-32.33-31.39c7.42-3.91,23.82,9,30.36,3.7s-2.26-8.55-3.83-9.86-31.23-15.66-31.23-15.66-29.18-3.38-36.12-2.5-26.07,6.22-26.07,6.22l-8.56,1.8s-20.53,31.6-27,43.13c-.61,1.09,15.06,4.79,23.06,12.09s28.31,16.11,28.31,16.11,36.49,8.18,41.45,7,11.73-8.74,11.73-8.74a37.42,37.42,0,0,1,9.63.22c8.71.63,13.71-9.12,13.71-9.12l-.07,0Z"/><path class="cls-6" d="M400.51,762.57a117.76,117.76,0,0,1-13.88-9.18,66.35,66.35,0,0,1-13.37-10.06,70,70,0,0,1,14.55,8.33A47.27,47.27,0,0,1,400.51,762.57Z"/><path class="cls-6" d="M377.64,777.72c.26-.62,10.41,4,21.74,11.47,5.71,3.66,10.8,7.13,14.49,9.59a32.53,32.53,0,0,1,5.9,4.19,20.92,20.92,0,0,1-6.67-3c-3.91-2.12-9.13-5.38-14.84-9C386.93,783.54,377.42,778.17,377.64,777.72Z"/><path class="cls-6" d="M365.27,792.55c.38-.46,7.14,4.82,16.27,10.08s17.07,8.56,17,9a51.46,51.46,0,0,1-17.93-7.34A51.78,51.78,0,0,1,365.27,792.55Z"/><path class="cls-9" d="M1017.78,920c46.92,0,93.85-5.49,140.77-5.71,10.18-.05,19.55,2,20.34,10.89,2,22.82,4.93,47.48-30.37,45-2.69-.19-5.48.28-8.11-.08-12.29-1.67-14.19,3.29-12.57,12,5.24,28.37,10,50.06,14.85,78.48,11.32,66.83,22.72,133.66,33.68,200.53,3,18.45,2.39,18.28-21.16,17.93-7.26-.11-10.32-1.93-11.33-8.06-10.82-65.77-22.06-131.5-32.79-197.28-1.26-7.67-4.18-10.67-14.22-10.59q-78.49.64-157,0c-10.3-.08-13.83,2.49-15.2,11q-15.2,93.69-31.55,187.25c-3.17,18.32-3.64,17.87-26.49,17.6-9.15-.11-10.2-2.75-9-9.41C874.48,1171.85,891,1080.74,908,983c1.74-10-.92-14.82-14.17-13.07-4.4.58-9,.1-13.52.09-20-.05-24-10.18-24-27.44,0-18.79,3.65-27.94,23.44-28q69,0,138.06,0Zm76.81,121c10.14.22,12.22-2.74,10.8-10.38-4.12-22.09-7.83-28.34-11.3-50.5-1.16-7.34-4-10.56-14.28-10.41-41.44.63-82.91.55-124.36,0-9.48-.12-12.4,2.82-13.51,9.75-3.63,22.9-7.46,29.88-11.67,52.71-1.36,7.38,2.21,8.82,10.21,8.72,26.13-.31,52.27-.11,78.41-.11C1044.12,1040.83,1069.37,1040.46,1094.59,1041Z"/><path class="cls-11" d="M1142.59,1060.8q2.63,15.46,5.24,30.94c-11,2.1-21.85,4.58-32.73,7.17-1.37-8.33-2.76-16.66-4.12-25-1.25-7.68-4.17-10.68-14.21-10.6q-78.49.65-157,0c-10.31-.09-13.83,2.48-15.2,11q-2,12.12-4,24.24a299.83,299.83,0,0,1-30.74-12.78c6-33.79,12-67.82,18-102.71a19.09,19.09,0,0,0,.06-8.12q10.73.71,21.48,1.09c4.4.17,8.8.29,13.19.39a21.55,21.55,0,0,0-.75,3.2c-3.64,22.89-7.46,29.88-11.67,52.7-1.36,7.39,2.21,8.83,10.21,8.73,26.13-.32,52.27-.12,78.41-.12,25.23,0,50.48-.37,75.69.18,10.14.22,12.23-2.73,10.8-10.38-4.11-22.08-7.82-28.33-11.3-50.49-.46-2.94-1.2-5.2-2.57-6.87q18.64-.57,37.29-.82c-1.69,2.14-1.75,5.5-1,9.78C1133,1010.69,1137.78,1032.38,1142.59,1060.8Z"/><path class="cls-11" d="M1179.31,929.86s-149.89,27-214.52,18.8-108.18-15.13-105.56-24.92,48.36-30.8,94.42-32.28S1126,901.31,1126,901.31s42.38,7,46.83,13S1179.31,929.86,1179.31,929.86Z"/><path class="cls-4" d="M1080.6,280.46s-5.35,51,1.88,69.5c1.75,4.49,30.16,26.08,30.16,26.08L1033,413.15l-77.3-23.78s30.26-28.49,31.71-34-.33-43.31-.33-43.31"/><path class="cls-25" d="M966.12,311.31c3.49,5.11,6.7,10.42,10.42,15.38a1.07,1.07,0,0,1,.1.22.68.68,0,0,1,1,.12c2.6,3.34,6.86,5,9.16,8.6,2,3.07.79,7.23,1,11,2.68.39,7.11.19,10.49.38,22.81-.61,23.23-3.5,53.4-22.35,9.58-6,7.59-13.26,9.43-14.67C1029.87,309.44,998.83,311,966.12,311.31Z"/><path class="cls-15" d="M1105.39,234.59s4.26-14.06,9.21-47.59c4.43-30-43-54.3-71.56-58.45-15.67-2.28-67.95,4.9-81.41,11.43s-20.33,25-21.64,51.24c0,0,8-26.18,24.64-25.76,13.59.35,57.29-6.9,68.82-2.13s36.91,14.76,38.47,56c.42,11.23,20.23-.83,25.79,5.88S1105.39,234.59,1105.39,234.59Z"/><path class="cls-4" d="M1083.29,283l4-40.56,1.45-45.34L1070.6,163l-32.44-15.26-36.6,1.62S972.32,157,963.1,159.52s-15.6,14-21.72,26.68-3.15,33.69-3.15,33.69c-.25.72.59,3.92.74,4.58,1.94,8.42,2.6,15.78,4.19,22.06a15.45,15.45,0,0,1-.1,8.56c-3.4,11-3.28,15.75-2.3,22.46,1.33,9.16,3.13,17,6.6,24.14,3.68,7.61,8.3,15.82,9.24,17.43,0,0,10.3,17,12.5,18.69s5.49,3.18,7,3.32,21.7,1.17,21.7,1.17l9.36-.35a24,24,0,0,0,9.19-2.21c7.83-3.62,30.17-14.44,36.26-18.85,8.19-5.92,17.71-30.21,17.71-30.21"/><path class="cls-15" d="M1073.86,244c-.11,3.51.21,17.41-.12,20.84l18.1-.69c5.24-12.1,11.53-26.34,13.55-29.6,3.14-5.08,3.21-29.47,3.23-38.65v-2c0-8.8-8.62-22.62-23.19-37-16-15.8-44.13-24.42-71.57-22-2.6.24-5.21.57-7.72,1-23.8,4-43.4,16.24-58.26,36.49-10.72,14.6-11.15,31-10,41.07a88.73,88.73,0,0,1,7.27-34.46c6.33-13.58,14.63-17.59,20.48-18.57a19.89,19.89,0,0,1,9.74.74c5.82,1.2,14.3.24,20.41-.77,4.55-.76,8.15-1.61,9.13-1.85,3-2.2,7.63-3.85,13.28-4.79,13.12-2.18,32.23-.22,36.27,5.5,4.48,6.34,14.73,29,14.9,34.38"/><path class="cls-4" d="M1081.59,284c10.88,10.54,17.33-10.39,17.33-10.39,9.82-12.6,9.39-25.68,8.73-34.62s-10.5-8.48-10.5-8.48c-8.32,1.18-11.91,5.79-18,34.2"/><path class="cls-15" d="M947.62,169.22c5.82-9.95,17.33-22.57,23.81-32.11,3.21-.39,19.09-1.2,22.43-1.42,34-2.34,80.2,16,84.93,28.23,2.94,7.64,2.28,49.73.9,53.59-3.77,10.61-5,24.4-5,24.4-1.84-15.74-13.6-33-15.17-38.37s4.94-31.22,3.17-32.25-33.11-9.68-67.79-8.18a258.83,258.83,0,0,0-29.53,3.1C965.43,166.1,947.56,169.33,947.62,169.22Z"/><path class="cls-15" d="M1014.76,232.29c2-1.15,4.5-.31,5.91.84a5.28,5.28,0,0,1,1.67,2.4,5.4,5.4,0,0,1-1.09,5,5,5,0,0,1-5.74,1.23,5.58,5.58,0,0,1-3-6.36,5,5,0,0,1,2.23-3.08"/><path class="cls-15" d="M955.79,236c-2.12-1-4.51,0-5.83,1.28a5.2,5.2,0,0,0-1.48,2.52,5.42,5.42,0,0,0,1.46,4.88,5.05,5.05,0,0,0,5.82.79,5.58,5.58,0,0,0,2.49-6.57,5,5,0,0,0-2.46-2.9"/><path class="cls-15" d="M973.21,243.62s-8.68-8.05-14.83-8.38c-9-.48-11.18,1.62-14.19,5.84,0,0,5.69-4.5,12-4C962.21,237.57,973.21,243.62,973.21,243.62Z"/><path class="cls-15" d="M1001.31,239.86s12.36-8.17,18.51-8.46c9-.42,19.78,4.65,22.76,8.89,0,0-14.26-7.5-20.58-7C1016,233.7,1001.31,239.86,1001.31,239.86Z"/><path class="cls-15" d="M1000,210.11c.1,2.13.2,4.26.31,6.41.08,1.63.14,5.35.23,7,5.14-1.61,9.74-3.87,13.07-4.61,6.62-1.47,13.37-3.44,20.17-2.71a22.94,22.94,0,0,1,8.89,2.57c.87.48,3.27,2.63,4.52,2,.51-.26-.47-2.85-.57-3.11-2-5.22-6.64-7.21-12.27-8.22-11.47-2.06-22.88-1.26-34.35.71"/><path class="cls-15" d="M938.09,216.6l3.39-1.39c9.42-3.91,19.3-5,29.44-5,.29,2.11.59,4.23.88,6.35.22,1.62.72,4.52.93,6.13-4.67-.73-8.77-1.81-11.74-2-5.91-.35-12.14-.8-17.81,1-.44.14-2.86,1-3.29,1.14C937.64,220.25,937.34,217.17,938.09,216.6Z"/><path class="cls-17" d="M979.39,278.5a9.9,9.9,0,0,0,9.24-.95c.58-.39,2.54-.11,1.74.45-3.41,2.34-9.14,2.76-12.59,1.08-.35-.17-.3-.44.12-.6a2.23,2.23,0,0,1,1.49,0"/><path class="cls-17" d="M991.48,277.18a16.11,16.11,0,0,1,5.66-1.67,1.28,1.28,0,0,1,.89.25c.17.14.21.35,0,.48a6.21,6.21,0,0,1-3.11.86,1.23,1.23,0,0,1-1-.35c-.19-.27.13-.46.39-.46a4.87,4.87,0,0,0,2.51-.7l.89.73a14.23,14.23,0,0,0-5.05,1.52,1.21,1.21,0,0,1-1-.08c-.22-.12-.46-.41-.15-.58"/><path class="cls-17" d="M999.33,277.14c2.3-.15,5-1.28,6-3.1,1.61-2.75-.15-6.92-3.09-8.52-.32-.18-.17-.42.15-.5a1.83,1.83,0,0,1,1.24.21,8.25,8.25,0,0,1,4.05,7.34c-.27,2.36-2.42,4.09-5.15,4.88a12.17,12.17,0,0,1-2.55.45c-.35,0-1-.06-1.16-.33s.13-.41.46-.43"/><path class="cls-17" d="M975.11,277.46a.3.3,0,0,0-.3-.43,2.68,2.68,0,0,1-1.82-.54c-.19.26-.38.53-.58.79a7.84,7.84,0,0,1,3.67,1.19.64.64,0,0,0,.73-.15c.15-.13.29-.44.07-.58"/><path class="cls-17" d="M976.88,277.74a8.8,8.8,0,0,0-4.11-1.31.75.75,0,0,0-.6.31.33.33,0,0,0,0,.48"/><path class="cls-17" d="M970.33,278a4.71,4.71,0,0,1-4.11-2.71,7,7,0,0,1,1.51-7.65.29.29,0,0,0-.13-.5.87.87,0,0,0-.79.29,7.87,7.87,0,0,0-2.21,6.54,5.42,5.42,0,0,0,3.64,4.54,5.18,5.18,0,0,0,1.68.3c.23,0,.64-.12.74-.4s-.11-.41-.33-.41"/><path class="cls-26" d="M1087.82,257.15c7.73-18.14,13.21-18.26,13.21-18.26s3.68,4.2,1.84,12.63"/><path class="cls-26" d="M1090.65,258.8c4.9-.48,1.13,8.69,2.48,10.85s3.16-3.58,3.77-10.49c0,0,0-9.35-4.63-11.06"/><path class="cls-4" d="M1000.3,352,1095,365.38l2.42,26s-27,15.6-29.56,16.1-60.12,1.64-60.12,1.64-58.27-32.6-57.45-32.28S1000.3,352,1000.3,352Z"/><g id="freepik--Character--inject-2"><path class="cls-8" d="M900.69,431.52l5.24-44.77s25.37-9.89,45.45-17c11.15-3.94,19.87-8.18,26.78-9.38-2.79,8.09-1.56,15.84,3.94,21A52.31,52.31,0,0,0,1010.79,395c10.39,1.44,21.19.43,31.39-1.69,19.09-4,42.81-21.15,49.5-39.32l15.32,4.16s59.21,27.24,67.68,31.64-42.34,223.93-42.34,223.93l17.58,82.41c.9,9.08,26.67,80.87-3,126.65,0,0-194-54.78-214.66-57.42-24-3.07-36.2-7.61-40.91-19.06-1.71-4.15-9.62-22.75,6.54-90.15,7.85-32.72,2.67-70.53,4.09-106.5C904.5,485.7,900.69,431.52,900.69,431.52Z"/><path class="cls-27" d="M902.13,578.22c-.41,0,0-6-.41-6-.07-28.34-1.18-60.75-1-86.31.1-9.29.17-16.85.34-22a70.59,70.59,0,0,1,.4-8.11,59.46,59.46,0,0,1,.5,8.11c-.12,5.63.07,12.91.3,22.07.1,8.68-.24,81.68-.12,93C901.9,578.86,902.37,578.2,902.13,578.22Z"/></g><path class="cls-12" d="M1003.68,523.19a.81.81,0,0,0-.22,0c-.07.27-.23.53,0,.81Z"/><path class="cls-12" d="M980.15,599.7a.57.57,0,0,0,.18.12l.16-.51Z"/><path class="cls-24" d="M941.28,504.31h.29l-.25-.19A.15.15,0,0,0,941.28,504.31Z"/><path class="cls-24" d="M981.34,516.42l-.23-.23-.11.13Z"/><path class="cls-24" d="M942.15,504.5l.37.12A.25.25,0,0,0,942.15,504.5Z"/><path class="cls-24" d="M1002.79,523a.2.2,0,0,0-.31-.11Z"/><path class="cls-28" d="M703,843.21c14.38,73.27,35.92,251.18,57.15,340.35,0,0,94.93,17.18,104-3.19,0,0-5.18-179.89,21.93-290.09,23.88-97,82.33-125.54,58-132.76-38.37-11.36-186.87-28.28-209.17-13.46C708.07,761.85,691.64,785.5,703,843.21Z"/><path class="cls-28" d="M763.36,888c-.91-5.65-2.13-11.26-3.56-16.78A236.21,236.21,0,0,0,747,834.81a252.24,252.24,0,0,0-18.81-34.91,215.49,215.49,0,0,0-16-21.67c115.47-25.38,357.05-12.8,357.05-12.8s90.25,21.4,69.92,96.83c-27,100-285.26,51.41-374.53,26.14Z"/><path class="cls-28" d="M743.36,804.19a157.66,157.66,0,0,1,31.76,3,82.27,82.27,0,0,1-2.66-15.33c2-1.82,4.15-3.66,6.38-5.54a208.1,208.1,0,0,1,29.39,15.91A253,253,0,0,1,839.31,826a226.38,226.38,0,0,1,26.16,27.44q3.36,4.22,6.48,8.63l-1,.15c29.86,46.07,15.82,135.27,24.58,219.84,7.7,74.25,8.58,83.54,15.65,122.81-11.16,18.62-108.76,12.36-108.76,12.36C782,1103.14,743.36,804.19,743.36,804.19Z"/><path class="cls-29" d="M802.44,1204.84c-18-113.55-59.08-400.65-59.08-400.65h-4.67l60.44,400.45Z"/><path class="cls-28" d="M738.69,804.19s-9-49.39,31.88-53.84c42.53-4.63,287.34,14.7,287.34,14.7L738.69,804.19"/><path class="cls-29" d="M743.36,804.19s-10.6-43.17,41.28-55.64c0,0-53.67,3.51-45.95,55.64Z"/><path class="cls-29" d="M779.5,749.51s27.19-.29,74.07,3.77,66.54,4.57,66.54,4.57-128.51-11.7-140.61-8.34Z"/><path class="cls-8" d="M890.3,718.59s-9.29,8.2-12.06,16.58-2.4,12.17-2.4,12.17a71.91,71.91,0,0,1,12.93,2.29c6.74,1.89,19.53,3.77,26.29,4.34s99.54,4.84,126.36,15,95.17,21.1,98.92,46,3.62,22.79-4.12,46.86c0,0,30.18-13.34,22.53-77.57s-127.54-74.33-127.54-74.33L893.36,720Z"/><path class="cls-29" d="M887.87,914.58s-5-27.1-18.85-42.51c0,0,20.83,19,24.35,43.13Z"/><path class="cls-8" d="M1121.55,516.54l11.68,144.1-34.07,192.49,67,14.06,44.36-170.35a81.63,81.63,0,0,0,2.75-19.1c1-41.11-4.55-187.34-7-214.84-4.62-51.56-31.58-70.69-31.58-70.69Z"/><path class="cls-27" d="M1110.69,458.24a55.4,55.4,0,0,1,.76-10.29A65.16,65.16,0,0,1,1153,397.34a57.2,57.2,0,0,1,9.93-2.78,13.31,13.31,0,0,1,3.67-.37c.07.37-5.28,1.17-13.19,4.51a67.87,67.87,0,0,0-40.57,49.5c-1.79,8.43-1.39,13.82-1.79,13.82A13.4,13.4,0,0,1,1110.69,458.24Z"/><path class="cls-27" d="M1111.87,471.65c.37,30.89,20.33,148.8,20.9,196.67l-5.24,36.29c-7.33,52.37-23.48,112.54-28.61,148.6l.51.1.32.08.2.05c.15-.86.19-1.21.35-2.07,5.24-35.83,21.35-95.19,28.84-146.61,1.8-12.46,3.67-24.62,5.21-36.31-.83-47.94-21-165.88-21.55-196.8Z"/><path class="cls-4" d="M1083,952.44a2.75,2.75,0,0,0,1.4-.73s-.63,9.84,12.77,2c0,0,12,2.78,18-3.92,0,0,14.84-2.11,20.1-6.37s17-49,17-49l1-29.9L1110.44,855l-.77,2.92s-15.94,8.34-21.64,14.13a77,77,0,0,0-10.82,16.21l-6.23,19c9,5.65,20.66-14.48,21.88-14.13a8.8,8.8,0,0,1,6.09,10.86c-2.14,9.28-4.55,19.9-4.65,21.51S1085,935.8,1078,942.19C1073.83,946,1077.28,953.68,1083,952.44Z"/><path class="cls-25" d="M1111,916.94a48.13,48.13,0,0,1-6.16,17.78,42.31,42.31,0,0,1-14.07,12.16,36.88,36.88,0,0,0-6.7,4.26,25.88,25.88,0,0,0,7.44-2.95,37.59,37.59,0,0,0,15.1-12.26,42.35,42.35,0,0,0,5.83-18.66,27.1,27.1,0,0,0,.2-8.14A36.55,36.55,0,0,0,1111,916.94Z"/><path class="cls-25" d="M1121.66,921.66a73,73,0,0,1-1.94,7.57,24.32,24.32,0,0,1-4.15,8.37,48.77,48.77,0,0,1-7,6.27c-2.35,1.81-4.42,3.48-6.13,4.92a25.26,25.26,0,0,0-5.33,5,24.94,24.94,0,0,0,6.23-3.78l6.4-4.56a42.56,42.56,0,0,0,7.4-6.46,24.56,24.56,0,0,0,4.22-9.11,52.52,52.52,0,0,0,1.54-7.94,15.12,15.12,0,0,0-.23-7.47A58.72,58.72,0,0,1,1121.66,921.66Z"/><path class="cls-25" d="M1132.05,926.62c-1.14,3.08-2.72,7.27-4.26,12.09a6.39,6.39,0,0,1-1.74,2.55,28,28,0,0,1-2.38,2.24,49.37,49.37,0,0,1-4.39,3.35c-2.61,1.81-4.38,2.65-4.32,2.91s2.15-.1,5.09-1.64a29.45,29.45,0,0,0,4.86-3.18,25.67,25.67,0,0,0,2.61-2.28,7.9,7.9,0,0,0,2.28-3.35c3.12-9.41,5.19-17.42,4.36-17.62A23.33,23.33,0,0,0,1132.05,926.62Z"/><path class="cls-7" d="M196.38,559c.59-8.48,1.48-44.61,1.94-51,.45-7.4.86-13.07,1.11-17.42.09-1.69.33-3.23.25-4.35a8.45,8.45,0,0,0-.12-1.59,7.78,7.78,0,0,0-.15,1.53c-.1,1-.25,2.48-.46,4.36-.37,4.36-.91,10.08-1.59,17.45-.45,5.6-2.08,39.39-2.65,46.61C195,555.68,196.08,558,196.38,559Z"/><path class="cls-7" d="M320.79,746.28c3.23-4.8,6.42-9.56,9.37-14l.83-.81-1-.59-50.61-30.76-58.87-50.3a3.67,3.67,0,0,0-.21.8l-.24.95,58,50.25L327.62,732c-2.79,4.21-5.75,8.63-8.74,13.08L291.5,787c-37-15.64-40.88-15.45-79.08-33.45-.4.39-.07,1.14-.48,1.53,39.69,19.16,41.92,18.5,79.41,34.37l.85.37.65-.63C301.88,775.67,311,760.94,320.79,746.28Z"/><path class="cls-7" d="M115.72,651.81a41.37,41.37,0,0,1,9-7.2,110.62,110.62,0,0,1,51.79-18.32,41.43,41.43,0,0,1,11.45,0,97.25,97.25,0,0,1-11.27,1.56,139.24,139.24,0,0,0-26.53,6.41,142.29,142.29,0,0,0-24.64,11.58A105.28,105.28,0,0,1,115.72,651.81Z"/><path class="cls-7" d="M143.89,621.25a49.11,49.11,0,0,1,22.62-2.31,48.9,48.9,0,0,1,22,6.14c-.24.62-9.85-2.9-22.2-3.88S144,621.91,143.89,621.25Z"/><polygon class="cls-7" points="220.5 649.79 192.44 625.15 196.77 550.93 194.71 549.25 190.08 625.9 222.62 653.76 220.5 649.79"/><path class="cls-7" d="M140.75,711.08s72.12,42.68,74.74,43.9l-1.12,1.26s-72.25-40.82-74.27-43.84Z"/><path class="cls-30" d="M369.44,252.63c-11.75,0-30.8-1.3-30.8-1.3s3.61,23.23,30.87,23.15,30.74-23.32,30.74-23.32S381.2,252.59,369.44,252.63Z"/><path class="cls-31" d="M369.56,252.63c-5.59,0-28.12-.87-28.12-.87s7.48,12.31,27.7,12.26c21.91-.06,28.32-12.24,28.32-12.24Z"/><path class="cls-32" d="M369.81,253.46c-5.59,0-22.6-.88-22.6-.88s6.14,6.1,22.9,6,22.07-6,22.07-6Z"/><path class="cls-30" d="M401.48,249.44c-.6-.14-3.85.94-6.63.71-4.62-.38-7.52-1.59-10.87-1.84-5.73-.42-9.35,1.84-11.84,1.85s-6.13-2.24-11.85-1.78c-3.35.27-11.64,1.51-16.27,1.92-2.77.24-6-.83-6.62-.68-.83.2.79,6.25,32.06,6.16S402.3,249.64,401.48,249.44Z"/><path class="cls-15" d="M335.16,249.56c-1.6,1.29-3.31,2.79-3.55,4.83a8.32,8.32,0,0,0,.16,2.22l.58,3.4a1.26,1.26,0,0,0,.22.64,1.37,1.37,0,0,0,.66.35,5.45,5.45,0,0,0,2.35.34,1.87,1.87,0,0,0,1.65-1.49,2.59,2.59,0,0,1,.1-1c.28-.57,1.1-.47,1.73-.6,1.57-.34,2-2.32,2.72-3.74a8.29,8.29,0,0,1,5.13-3.73,16.14,16.14,0,0,0,3.13-1,3.14,3.14,0,0,0,1.81-2.56"/><path class="cls-15" d="M403.9,251.87c1.47,1.43,3,3.08,3.08,5.13a8.24,8.24,0,0,1-.37,2.2l-.89,3.34a1.33,1.33,0,0,1-.29.61,1.29,1.29,0,0,1-.69.28,5.3,5.3,0,0,1-2.37.12,1.85,1.85,0,0,1-1.5-1.64,2.63,2.63,0,0,0,0-1c-.22-.6-1.05-.57-1.66-.76-1.53-.48-1.75-2.49-2.36-4a8.2,8.2,0,0,0-4.76-4.19,15.85,15.85,0,0,1-3-1.31A3.14,3.14,0,0,1,387.5,248"/><path class="cls-15" d="M338.31,246.76a2.27,2.27,0,0,1,1.24-.95c.79-.17,1.65,0,2.47-.16a4.92,4.92,0,0,0,2.17-1.07,16.15,16.15,0,0,0,1.38-1.8c-.76-.06-.86,0-.32.13l.41.2c.3.15.58.33.88.48a4.31,4.31,0,0,0,2.09.45,7.1,7.1,0,0,0,4.31-1.66l.28-.18c-1.13-.08-1.44,0-.92.29a3.42,3.42,0,0,0,.9.64,3.37,3.37,0,0,0,2.14.39,7,7,0,0,0,4.34-2.19l.4-.41c.4-.29.4-.36,0-.2s-.42.12.05.22l.54.22a5.75,5.75,0,0,0,2,.48c1.44.05,3.39-.39,4.25-1.66s-2.92-.74-3.51.13c1.24-.1,1.54-.22.9-.37l-.36-.14c-.43-.16-.83-.36-1.27-.48a5.33,5.33,0,0,0-2.69,0,7.23,7.23,0,0,0-3.92,2.5q-.9.65.69.12l-.38-.26a3,3,0,0,0-.83-.57,3.7,3.7,0,0,0-2.23-.27,7.17,7.17,0,0,0-2.36.8c-.34.19-1.34.63-1.54,1,.93,0,1.17-.11.72-.24a3.15,3.15,0,0,1-.56-.26c-.3-.15-.58-.33-.88-.48a4.59,4.59,0,0,0-2.13-.45,6.65,6.65,0,0,0-4.74,2.22,4.46,4.46,0,0,0-.59.85l-.27.41c1.16-.32,1.38-.46.67-.44a7.4,7.4,0,0,0-2.52.27,7.84,7.84,0,0,0-4.29,2.61c-.55.69.47.85,1,.84a3.59,3.59,0,0,0,2.54-1Z"/><path class="cls-15" d="M381.19,243.12c-1.21.45-.52,0-.38.19s.45.25.6.34c.45.27.88.58,1.34.83a6.57,6.57,0,0,0,1.52.65,11.32,11.32,0,0,0,2,.13c.76.07,0-.23.52.16.2.15.33.46.51.64a3,3,0,0,0,1.76.86,6.51,6.51,0,0,0,4.05-1c.71-.45-.42.07-.4-.08,0,.08.25.38.31.48a7.62,7.62,0,0,0,.84,1.37,4.44,4.44,0,0,0,3.71,1.05c.32,0,.86-.2,1.17,0s.33.79.46,1.16a2,2,0,0,0,1.22,1.2,3,3,0,0,0,.9.24c.53,0,.05.19,0-.16.28,1.64,4.12.69,3.83-1a1.59,1.59,0,0,0-1.18-1.18c-.25-.08-.87,0-1-.21s0,.07,0-.33a2.85,2.85,0,0,0-2.63-2.29,10.3,10.3,0,0,0-2.15,0c-.7,0-.85-.08-1.21-.69-.68-1.17-1.22-2.06-2.7-2.19a5.37,5.37,0,0,0-2.75.62c-.22.1-.87.3-1,.47l-.15.06c.41.09.46,0,.15-.26-.75-1.63-2.54-1.28-3.94-1.41-1-.09-1.89-1-2.79-1.45a5,5,0,0,0-4.24-.15c-.69.25-1.44,1.12-.93,1.85s1.87.48,2.58.22Z"/><path class="cls-15" d="M369.14,243.12l-1.29,5.25a1.93,1.93,0,0,1-1.71,1.46c-5.67.48-27.25,2.27-32.36,1.93-.12,0,.34,2.14.22,2.11l-1.19-.14c-1.89-.48-.16-6.81,1.69-7.42a107.41,107.41,0,0,1,13.74-3.66c3.86-.69,14.55-2.24,19.15-1.94A1.93,1.93,0,0,1,369.14,243.12Z"/><path class="cls-15" d="M375.76,244.05l-.09,4.91a1.9,1.9,0,0,0,1.46,1.63c5.21,1.1,22.25,4.7,27,4.91a1.2,1.2,0,0,0,.33,0l1.53-.23c1.78-.27,1-4.28-.67-5.09a84.52,84.52,0,0,0-11.07-4.76c-3.52-1.1-12.39-3.36-16.67-3.56A1.84,1.84,0,0,0,375.76,244.05Z"/><path class="cls-30" d="M988.83,292.36c10.81-.55,28.13-1.47,28.13-1.47s-2,21.83-27,23.1-29.6-20.21-29.6-20.21S978,292.91,988.83,292.36Z"/><path class="cls-31" d="M988.73,292.36c5.14-.26,25.68-.9,25.68-.9s-6.11,11.21-24.69,12.16c-20.14,1-26.79-9.37-26.79-9.37Z"/><path class="cls-32" d="M988.55,293.2c5.13-.26,20.6-.64,20.6-.64s-5.2,5-20.61,5.77-20.72-3.5-20.72-3.5Z"/><path class="cls-30" d="M959.11,292.14c.54-.18,3.59.74,6.13.37,4.23-.61,6.94-3.29,10-3.7,5.24-.7,8.69,1.36,11,1.24s5.51-2.52,10.79-2.35c3.1.1,10.66,2.26,14.94,2.43,2.56.11,5.49-1.11,6-1,.77.16-.28,4.88-29,6.35S958.37,292.37,959.11,292.14Z"/><path class="cls-27" d="M824.58,535.42S839.19,545.7,840,560.26C840,560.26,840.85,539.29,824.58,535.42Z"/><path class="cls-4" d="M632.15,502.24a4.13,4.13,0,0,1-1.93-.83c-2.07-1.6-7-5.66-7-7.83a8,8,0,0,1,.53-2.61,4,4,0,0,0-1.32-4.52l-1.7-1.41a4,4,0,0,1-1.38-2.08,17.79,17.79,0,0,1-.52-5.24c.31-3,5.29-5,5.29-5l-1.46-1.27a7.72,7.72,0,0,1-2.5-7.28l.29-1.27a12.78,12.78,0,0,1,2-3.32,4.2,4.2,0,0,0-.09-5.4c-1.12-1.31-2.1-2.84-2-4.1a12.72,12.72,0,0,1,9.36-9.88,6,6,0,0,1,1-.13,195.14,195.14,0,0,1,25.7.64c.59.06,10.3-1.41,10.85-1.54,3.56,3.15-1.33,6.53,3.42,7.66,4.4,1.05,8.91,1.46,13.35,2.25a4.16,4.16,0,0,1,3.13,2.65v0a4.39,4.39,0,0,0,.6,1.08l16.85,21.89c1,1.3,7.78,5.58,6.91,7-7,11-25.1,32.47-24.6,32.62s-7.64-3.62-8.21-3.76"/><path class="cls-4" d="M659.82,444.72c.69-.71,5.4-4.62,5.63-5.66a5.2,5.2,0,0,0,.12-.87,82.39,82.39,0,0,1,4.81-24.2c3.51-8.25,8.88-9.28,12.21-9a2.56,2.56,0,0,1,2.36,2.76,2.13,2.13,0,0,1-.07.44,135.39,135.39,0,0,0-3.58,16.9c-.19,2.91,3.06,17.55,5.14,26.53C678.46,449.14,665.64,450.66,659.82,444.72Z"/><path class="cls-33" d="M657.87,483.08a47.87,47.87,0,0,1,6.74-5.29,43.74,43.74,0,0,1,8-3.11A18.93,18.93,0,0,0,657.87,483.08Z"/><path class="cls-33" d="M625.72,456.49a2.61,2.61,0,0,0,.77.27l2.26.59,8.24,2,12.3,2.93a62.71,62.71,0,0,0,7.33,1.56,8.71,8.71,0,0,0,7.7-2.28,6.14,6.14,0,0,0,1.51-4,8.92,8.92,0,0,0-1-3.95,11.57,11.57,0,0,0-5.67-5,44.36,44.36,0,0,0-6.45-2.15L647.06,445l-8.22-2.26-2.25-.59a3.16,3.16,0,0,0-.8-.14l.76.32,2.21.69,8.12,2.51,5.6,1.59a45.55,45.55,0,0,1,6.3,2.18,10.77,10.77,0,0,1,5.33,4.68,6.31,6.31,0,0,1-.36,7.08,6.49,6.49,0,0,1-3.25,1.85,10.75,10.75,0,0,1-3.79.18c-2.51-.32-4.94-1-7.27-1.51l-12.28-2.7-8.3-1.82-2.28-.45Z"/><path class="cls-33" d="M625.36,472.13a6.12,6.12,0,0,0,1.73.49l4.82,1c4.1.79,9.77,1.74,16.07,2.45a40.71,40.71,0,0,0,4.67.42,9.09,9.09,0,0,0,4.31-1,6.85,6.85,0,0,0,3.32-6.48,6.52,6.52,0,0,0-2.33-4.34,6.19,6.19,0,0,0-1.15-.76c-.3-.11-.44-.17-.46-.12a13.49,13.49,0,0,1,1.41,1.08,6.83,6.83,0,0,1,1.89,4.26,6.3,6.3,0,0,1-3.13,5.79,8.45,8.45,0,0,1-4,.88c-1.47,0-3-.22-4.57-.38-6.28-.76-11.94-1.59-16-2.26L627,472.4A8.43,8.43,0,0,0,625.36,472.13Z"/><path class="cls-33" d="M627.39,486.34a9.39,9.39,0,0,0,1.67.19l4.54.23,15,.43a35.08,35.08,0,0,0,4.35,0,7.85,7.85,0,0,0,3.88-1.36,4.58,4.58,0,0,0,1.92-3.29,5.05,5.05,0,0,0-.9-3.15,6.86,6.86,0,0,0-3.77-2.6,5.11,5.11,0,0,0-1.68-.32s.57.2,1.56.58a6.89,6.89,0,0,1,3.41,2.56,4.54,4.54,0,0,1,.71,2.78,3.71,3.71,0,0,1-1.72,2.75,7.22,7.22,0,0,1-3.54,1.21,34.89,34.89,0,0,1-4.09-.06c-5.88-.12-11.18-.22-15-.23l-4.56,0A6.81,6.81,0,0,0,627.39,486.34Z"/><path class="cls-33" d="M630.61,498.93a26.86,26.86,0,0,0,4.87-.78c3-.59,7.12-1.49,11.65-2.48l3.3-.73a13.92,13.92,0,0,0,3.13-.94,4.45,4.45,0,0,0,2.16-2.1,3,3,0,0,0,0-2.65,4.26,4.26,0,0,0-3-2.18c-.86-.19-1.35,0-1.33,0a8.15,8.15,0,0,1,1.25.26,4.29,4.29,0,0,1,2.57,2.11,2.38,2.38,0,0,1-.1,2.17,4,4,0,0,1-1.92,1.74,13.23,13.23,0,0,1-3,.83l-3.3.73c-4.53,1-8.62,1.95-11.61,2.67A30.06,30.06,0,0,0,630.61,498.93Z"/><path class="cls-33" d="M692.1,493.23a37.36,37.36,0,0,1-3,9.77,36.23,36.23,0,0,1-7.22,7.6C689.5,507.48,693.29,501,692.1,493.23Z"/></g></g></svg>