<svg xmlns="http://www.w3.org/2000/svg" xmlns:xlink="http://www.w3.org/1999/xlink" viewBox="0 0 637.33 635.77"><defs><style>.cls-1,.cls-22{fill:none;}.cls-2{clip-path:url(#clip-path);}.cls-3{fill:#c1e7f6;}.cls-4{fill:#d16152;}.cls-5{fill:#e2a86d;}.cls-6{fill:#a86e57;}.cls-7{fill:#523735;}.cls-8{fill:#502e26;}.cls-9{fill:#b05e27;}.cls-10{fill:#de8b26;}.cls-11{fill:#12100e;}.cls-12{fill:#221e1f;}.cls-13{fill:#853722;}.cls-14{fill:#663a2c;}.cls-15{fill:#24170f;}.cls-16{fill:#f0edf5;}.cls-17{fill:#5c180f;}.cls-18,.cls-20,.cls-21{fill:#161312;}.cls-18,.cls-20,.cls-21,.cls-22{stroke:#161312;stroke-miterlimit:10;}.cls-18{stroke-width:0.51px;}.cls-19{fill:#141211;}.cls-20{stroke-width:0.5px;}.cls-21{stroke-width:0.53px;}.cls-22{stroke-width:1.22px;}.cls-23{fill:#653b2d;}.cls-24{fill:#f0ecf4;}.cls-25{fill:#723409;}.cls-26{fill:#321323;}</style><clipPath id="clip-path"><path class="cls-1" d="M519,133.8a105.84,105.84,0,0,0-194.6-82c-2.35,0-4.7-.09-7.07-.09a287.83,287.83,0,0,0-197.77,78.35,75.35,75.35,0,0,0-79.1,128,288.7,288.7,0,0,0-12,82.48c0,159.53,129.33,288.85,288.85,288.85S606.16,500.09,606.16,340.56A287.94,287.94,0,0,0,519,133.8Z"/></clipPath></defs><g id="Layer_1" data-name="Layer 1"><g class="cls-2"><circle class="cls-3" cx="319.06" cy="340.56" r="288.85"/><path class="cls-4" d="M288.42,486c3.86,4.31,8.11,6.81,12.27,10.78a1.25,1.25,0,0,0,1.58.11l1.86-11.72c11.15,4.28,21.35,10.4,29.37,19.77,10.59,12.38,15.3,27.72,19.92,43-6.84,6.38-14.86,11.38-22.81,12-1.53.12-18.93,1.6-20.51,1.67-27.8,1.12-142.51-5.3-142.51-5.3l6.2-51.08Z"/><path class="cls-4" d="M362.19,424.93c.66-14.11,1.4-20.69,1.18-34.83-.53-35.23,10.81-62.89,7.8-98l-28.15,6c-10.26,5.65-20,8.74-27.22,26l-22.67,77.24c.15.2-20.13,52.3-20.2,52.56,0,0-.78.79,4.67,20.92,3.67,13.51,20.81,44.89,20.66,59.23,53.16-1.87,70.76-82.93,77.26-101.15"/><path class="cls-5" d="M206.76,353s22.39,4.9,33.91,13.12c15.72,11.23,43.63,66.69,51.41,81.62s31.34,49.29,31.34,49.29l-56.34,49-61.43-85-13-109.82Z"/><path class="cls-6" d="M171.43,287.4s11.36,49.06,12.34,54l2.64,16.93,5,1.46c-13.16,5.7-24.61,20-50.42,12.73l-25.55-28.09a18.26,18.26,0,0,0,1.67-6.49c2.48-24.27-12.92-50.75-12.92-50.75"/><path class="cls-6" d="M184.73,347.57s30.92,18.2,23.81,27.5-49.36,7.94-67.92-2.75A215.62,215.62,0,0,1,108,349l16.86-8.17Z"/><path class="cls-5" d="M258.8,486.36c0-24.33-14-50.06-14-50.06l-8.18-72.51c-5.28-5-51.91-16.22-51.91-16.22s9.75,5.45,10.63,13.9c.36,3.42-1.27,14.19-23.57,14.24s-56.66-32-56.66-32c-14.29,6.8-21.63,11.81-35,20-3.16,1.93-12.8,8.43-12.8,8.43l-10.08,51.4,8.17,101C113,596.17,182.12,639.07,264.68,654l-13.5-87.76s-4.14-43-1.3-50.81C253.49,505.6,258.78,500.16,258.8,486.36Z"/><path class="cls-5" d="M256.88,613.49s-133.27-11.92-153.07-15.93c-30.91-6.26-32-35.35-36-43L81,531.18l40.31,42.16"/><path class="cls-5" d="M270,497s26.16,13.39,38.18,8.47c8-3.28-12.33-13.56-4.51-17.3l126.29,5.91c6.21,0,10.27.48,10.25,6.69l1.72,35.32c0,5.68-4.38,8.87-10,9.59-24,3.07-113.45,13-122.41,13.79-23.25,2.12-38.44,2.54-52.86-33.18C250,511,270,497,270,497Z"/><path class="cls-4" d="M563,539.31l-7.37-8.1L559.42,295l-33.37-19.7L485.18,263l-6.11,14.13c-9.22,13.23-22.28,21-38.93,22.47-4.87.44-14.73-.14-20-.38-14.66-.64-19.84-14.72-21.8-24.69-.1-.49-24.39,10-31.43,12.79-10.85,4.27-32.1,11.35-34.57,15.88,0,0,10.61,136.27,9.5,181.54-.3,12,1.34-2.82,5.86,69.26,1,16.52,2,29.29-1,45.27-1.84,9.73-6.19,50.37-7.92,60.07A245.46,245.46,0,0,0,382.35,653,308.35,308.35,0,0,0,563,539.31Z"/><path class="cls-7" d="M267.3,407.74a.84.84,0,0,1-.21.11l-.13-.57Z"/><path class="cls-6" d="M400.93,271.34c-.21,1.36-2.37,3.11-5.34,4.91-1.12.68.54,10,.79,11.27.72,3.82,2,7.72,5.13,10.26,2.46,2,8.15,5.52,11.25,6.17,16.08,3.35,32.6,2.08,47.65-5.74,11.88-6.18,20.71-18.08,24.24-30.91,1.53-5.57-1.51-2.95-3.33-7C469.47,233.8,473,193.81,473,193.81l-76.89,37.74S401.66,266.63,400.93,271.34Z"/><path class="cls-8" d="M400.32,260s8.15-3.72,13.7-5.64,15.22-2.15,39.88-26.24c0,0-6,28.18-38.82,36.07,0,0-8.47,2.3-14.19,1.27Z"/><path class="cls-6" d="M361.22,94.48a4.21,4.21,0,0,1-.29.61l.34-.3Zm-14.3,5.6,0,.26c.21-.22.41-.44.59-.67C347.51,99.37,346.92,100.08,346.92,100.08Zm125.52,99.86,1.06-5.39c7.89,8.53,18.44-.07,17.62-13.36,2.86-7,5.27-29.55-.92-35.77l-.77-.92c-4.16-2.54-11.12-3.08-13.41,2.32-.69,2.31.39,5-.29,7.3-.64,2.62-3.65,7.81-5,10.22,0,0-3.57-12.41-4.11-18.33s-7.12-22.31-18.79-29.09c0,0-2.75-20.74-8.38-26.22l-1.78-.36c-1,.15-1.63.56-2.64.71,0-.31.24-.67.15-1.29-1.59.87-3,.76-4.33,1,.29-.36.92-.77.87-1.07a18.34,18.34,0,0,1-4,.6c.29-.36.87-1.08.83-1.39-1.59.87-2.7.4-4,.61a2.38,2.38,0,0,0,.49-1.34c-1.26.82-2.65.71-4,.91.3-.36.54-1,.83-1.39-1.59.87-2.69.41-4,.61-.33,0,.58-.72.54-1A12.59,12.59,0,0,1,415,88c0-.31.58-.72.53-1-1.92.92-3,.46-4.37.66l.82-1.39A4.8,4.8,0,0,1,408,87.5c.29-.36.87-1.08.82-1.39a6.7,6.7,0,0,1-5.29,1.42c.34,0,.87-1.07.83-1.38-1.5,1.49-2.89,1.38-4.58,1.63.29-.36.54-1,1.12-1.75-1.83,1.54-4.1,2.51-6.26,1.88.34,0,.54-1,.49-1.33-1.16,1.43,1.14-.49-.59-.55,0,0-3.69,1.82-3.74,1.51-1.2,1.13,2.77-5.77,1.09-5.52.24-.67-9.57,2-9,1.3-1.5,1.48-1.25.79-3.31.79,0,0-6.44,4.74-6.15,4.38-1.46,1.79-2.41.61-4.47.6.29-.36,1.4,1.11,1.7.76-1.17,1.43-.95-.18-2.64.07,0-.3-5.8-1.18-5.84-1.49-1.55,1.18-1,1.23-3,1.53,0-.31-.75,3.59-.46,3.23-1.17,1.44-1.25.41-3,.36l-1.5,1.39c-1.45,1.8.76.78-1.31.77,0-.21,7.74-.16,8-.62a12.43,12.43,0,0,1-4.05,2.56c-.05-.31.2-1,.15-1.28a6.82,6.82,0,0,1-5.1,2.65c.33,0,.58-.72.53-1-1.45,1.79-3.33,3-5.49,2.39v0a10.77,10.77,0,0,1-4.38,2.92,1.34,1.34,0,0,1,.49-1.34l-1.35.2c-1.31,2.73-2.67,5.14-2.88,8.33,0,0-9.14,19.45-7.1,30.83s7,30.55,8.1,35.44a101.49,101.49,0,0,1,1.7,15.57c.31,10.13.66,12.77,4.62,22.4,3.84,9.32,7,14.14,13.77,21.65,7,7.84,11.4,12.78,20.28,19,5.84,4.11,6.87,8.34,20.33,7.3,21-1.63,45.35-19,56.66-34.43"/><path class="cls-9" d="M338.2,122.7c5.48-19.21,24.92-32.3,66.69-43.82S482.24,78,482.24,78c-28.86-58-90.39-46.79-104.17-44.73S301.15,99.6,331.94,146.65l1.85,4.6S337.2,126.19,338.2,122.7Z"/><path class="cls-9" d="M491.29,63.68s-.59-38.94-30.37-47.61C421.13,4.5,369.21,4.51,356.84,46.45Z"/><path class="cls-10" d="M501.26,156.89c2.62-3.57.48-12.28,2.6-16.16C515,120.39,507.91,103.14,501,93.3c-3-4.29-.95-12.89-1.78-16.92-4.32-21.1-6.86-21.39-41.75-38.52-28.39-13.93-56.18-9-72.21-5.71-25.67,5.24-36.83,8.55-43.14,28.24-.83,2.57.73,4.31.17,7.34-.78,4.29-7.11,5.68-7.41,11,0,0,35.19,8.42,66,19.56s90.21,63.18,90.8,81.34C491.69,180.2,498.36,160.84,501.26,156.89Z"/><path class="cls-9" d="M469.47,81.1C453.55,73.5,442.38,62,409,66.67c0,0,56.16-16.85,93.81,28l1,1.86c2.67,4.9,5,10.8,5.84,21l-11.32-15.17C492.08,95,478.17,85.25,469.47,81.1Z"/><path class="cls-9" d="M341.7,68.54l3.42-1.89a93.53,93.53,0,0,1,25.35-9.56l14.86-3.27s-37.2-1-43.9,9.43Z"/><path class="cls-11" d="M462.05,140.42l6.26,29.78,8.59-14.84A85.3,85.3,0,0,0,462.05,140.42Z"/><path class="cls-12" d="M480.16,165.7c3.31.93,4.58,5.84,4.88,8.86a13,13,0,0,1-1.55,7.15,4.91,4.91,0,0,1-1.88,2.22c-.78.32-1.41-.54-1.69-1.2-.62-1.5,0-3.35.34-4.84.29-1.2.82-2.72.34-3.94a2,2,0,0,0-1.16-1.11,4.21,4.21,0,0,0-2.5-.17c.3-.14.2.49.14.07,0-.1-.14-.33-.19-.55a8.22,8.22,0,0,1,.34-3.87,43.36,43.36,0,0,1,3.75-8.95c.37-.72-1.08-.72-1.37-.16a46.77,46.77,0,0,0-3.7,8.76,10.34,10.34,0,0,0-.52,4.27,2.2,2.2,0,0,0,.51,1.29c.54.49,1.42.07,2.09.14a1.28,1.28,0,0,1,1.32,1.2c.38,3.07-3,7.41.38,9.8,1.56,1.11,3.34-.2,4.31-1.47a13.49,13.49,0,0,0,2.52-8.63c-.22-3.46-1.8-8.78-5.54-9.83-.61-.17-1.69.71-.82,1Z"/><path d="M382.67,205.06a9.72,9.72,0,0,0,8.68-1.86c.5-.42,2.4-.37,1.69.23-3,2.53-8.4,3.53-11.85,2.33-.34-.11-.32-.37.06-.56a2.14,2.14,0,0,1,1.42-.14"/><path d="M394,202.56a15.75,15.75,0,0,1,5.2-2.14,1.25,1.25,0,0,1,.87.13c.17.12.23.3.05.45a6,6,0,0,1-2.87,1.12,1.17,1.17,0,0,1-1-.22c-.2-.23.08-.43.33-.47a4.73,4.73,0,0,0,2.31-.91l.92.58a14,14,0,0,0-4.65,1.94,1.17,1.17,0,0,1-1,0c-.22-.09-.47-.33-.19-.52"/><path d="M401.46,201.69c2.17-.38,4.6-1.71,5.43-3.5,1.25-2.71-.84-6.4-3.8-7.56-.32-.13-.2-.38.09-.49a1.82,1.82,0,0,1,1.2.07,7.64,7.64,0,0,1,4.59,6.37c0,2.21-1.88,4-4.39,5a12,12,0,0,1-2.37.69c-.33.06-.94.05-1.14-.18s.08-.4.39-.45"/><path d="M378.51,204.55a.29.29,0,0,0-.34-.36,2.68,2.68,0,0,1-1.78-.3l-.47.79a7.75,7.75,0,0,1,3.6.7.62.62,0,0,0,.68-.21c.13-.14.24-.44,0-.55"/><path d="M380.21,204.62a8.81,8.81,0,0,0-4-.77.73.73,0,0,0-.55.35.31.31,0,0,0,.08.44"/><path d="M374,205.53a4.52,4.52,0,0,1-4.18-2.07,6.42,6.42,0,0,1,.66-7.23.26.26,0,0,0-.18-.44.83.83,0,0,0-.72.35,7.2,7.2,0,0,0-1.43,6.27,5,5,0,0,0,3.92,3.81,5.21,5.21,0,0,0,1.62.1c.22,0,.59-.18.65-.46s-.14-.36-.34-.33"/><path class="cls-11" d="M353.06,165.48a4.7,4.7,0,0,0-6.23,4.16,5,5,0,0,0,1.81,4.25A4.58,4.58,0,0,0,354,174a5.07,5.07,0,0,0,1.59-6.18,4.47,4.47,0,0,0-2.5-2.37"/><path class="cls-11" d="M372.58,169.22s-10.17-5.8-14.88-5.57c-6.89.33-14.69,5.34-16.59,9.07,0,0,10.23-7.28,15.08-7.37C360.84,165.26,372.58,169.22,372.58,169.22Z"/><path class="cls-11" d="M412,157.17c1.72-1.25,4.77-1.43,6.15-.53a4.7,4.7,0,0,1,1.75,2,4.89,4.89,0,0,1-.49,4.6,4.57,4.57,0,0,1-5.05,1.68,5.05,5.05,0,0,1-3.33-5.44c.06-.38-.42-1,1-2"/><path class="cls-11" d="M401.8,163.93s9.3-8.06,14.33-9c7.34-1.31,16.78,1.69,19.69,4.86,0,0-12.55-4.63-17.69-3.56C413.21,157.28,401.8,163.93,401.8,163.93Z"/><path class="cls-11" d="M366.81,146.26c.14,1.38.27,2.77.4,4.16.09,1.06.19,2.11.28,3.17-3.62-.55-6.7-.83-9-1-4.91-.33-7.42-.48-10.18.26a27.31,27.31,0,0,0-6.22,2.66,16.93,16.93,0,0,0-3.2,2.12c-2.21,2-3,4-3.4,3.86s.05-1.88.09-2.06a16.32,16.32,0,0,1,4.37-7.53,19.19,19.19,0,0,1,6.23-3.63c2.7-1,10.34-2.24,20.66-2"/><path class="cls-11" d="M398.88,142.54l1.29,4,1,3c3.41-2,6.39-3.59,8.65-4.71,4.78-2.37,7.24-3.57,10.31-4.05a31,31,0,0,1,7.3-.18,19.45,19.45,0,0,1,4.07.59c3,.86,4.6,2.4,4.95,2.1s-.8-1.7-.92-1.85a16.5,16.5,0,0,0-7.41-5,21.74,21.74,0,0,0-7.71-.7c-3.1.24-11.26,2.29-21.52,6.84"/><path class="cls-13" d="M559.93,457.81c-5-14.95-10.65-40.71-13.16-52.63-.83-4-1.31-6.39-1.31-6.39-8.27-41.44,4.17-69.58,4.17-69.58s-15.25,23.57-8.49,64.3,18.79,64.3,18.79,64.3"/><path class="cls-14" d="M394.17,218.21c10-2,26-6.52,26-6.52s1.25,24.65-22,29.29S370,221.45,370,221.45,384.14,220.21,394.17,218.21Z"/><path class="cls-15" d="M394.07,218.23c4.77-.95,23.83-5.66,23.83-5.66s-4.09,16.52-21.34,20c-18.71,3.73-23.82-10.71-23.82-10.71Z"/><path class="cls-16" d="M394,219.05c4.77-1,19.11-4.72,19.11-4.72s-4.1,6.69-18.41,9.55-20-1.73-20-1.73Z"/><path class="cls-14" d="M370.27,220.94c.48-.23-.56.07,1.76-.62,3.88-1.15,6.12-2.77,8.94-3.58,4.8-1.38,8.32.09,10.44-.34s4.81-3.12,9.77-3.69c2.91-.34,10.22-.62,14.24-1,2.41-.26,5-1.81,5.52-1.77.75,0,.5,5.91-26.19,11.23S369.6,221.27,370.27,220.94Z"/><path class="cls-4" d="M540.77,467.26l3.14,36.6a1.25,1.25,0,0,1-1.56.27c-5-2.85-9.72-4.26-14.51-7.51L421.2,542.84l8.12,66.21s87.24-21.16,114-28.94c1.52-.44,26.69-8.52,28.14-9,35.1-12.33,44.93-41.59,43.65-65.57-1.19-22.23-3.88-47.48-6.18-69.61-2.11-20.17-5.13-44.51-8.16-64.55-4.58-30.27-12-76.4-45-85.34l-29.18-10.28"/><path class="cls-17" d="M535.58,491c4.27-.89,8.61.35,12.57,1.87,3.2,1.23,7.17,2.43,9.35,5.23.28.35,1.77-.16,1.45-.57a11.47,11.47,0,0,0-4.38-3.18c-2.08-1-4.21-1.84-6.37-2.61-4.14-1.48-8.43-2.3-12.79-1.38-.93.19-.75.84.17.64Z"/><path class="cls-17" d="M394.88,607.22l2.74,9.31c.08.27.45.36.7.32,8.54-1.35,17.05-2.9,25.55-4.5,18.92-3.56,37.77-7.53,56.45-12.17,11.51-2.85,22.95-6,34.26-9.53.92-.29.68-1.27-.26-1-19.9,6.28-40.22,11.21-60.6,15.62q-23.18,5-46.54,9.05c-2.9.5-5.8,1-8.71,1.45l.7.32-2.74-9.32c-.2-.66-1.74-.24-1.55.42Z"/><path class="cls-17" d="M390.09,560.64q7.4-3.17,14.75-6.4Q422,546.74,439.06,539c12.76-5.79,25.48-11.67,38-17.86,13.82-6.81,27.48-13.94,41-21.27,4.13-2.24,8.24-4.49,12.32-6.8,1.77-1,3.63-1.92,5.33-3l.22-.13c.16-.09.33-.26.29-.46q-1.5-8.32-3-16.67-3.39-19.41-6.61-38.83c-2.43-14.67-4.78-29.35-6.89-44.07-1.56-10.85-3.22-21.78-3.82-32.74a73,73,0,0,1,1.63-17.37A75.48,75.48,0,0,1,521.78,325c1.66-4,3.91-8.11,7.39-10.81a11.79,11.79,0,0,1,5-2.3c.95-.19.72-1-.22-.81-8.6,1.67-12.88,10.87-15.3,18.37a93.9,93.9,0,0,0-3.47,15.79,63.26,63.26,0,0,0-.87,8.9,115.45,115.45,0,0,0,.82,11.89c.61,5.9,1.37,11.78,2.18,17.66,2,14.74,4.34,29.45,6.74,44.13q3.34,20.55,6.94,41.06,1.2,7,2.44,13.92c.27,1.48.53,3,.79,4.44a12.11,12.11,0,0,0,.42,2.33,1.36,1.36,0,0,1,.06.29l.28-.45c-4.65,2.74-9.4,5.34-14.14,7.94q-20.06,11-40.53,21.2c-12.33,6.17-24.83,12-37.37,17.72q-17.61,8-35.35,15.8c-5.95,2.61-12,5-17.88,7.77l-.27.12c-1,.42-.09,1,.62.67Z"/><path class="cls-6" d="M389.38,566.46l3.48,20.1L395,605.19s-33.29,3.71-41.07,1.59S327,598.92,327,598.92a10.74,10.74,0,0,1-.69,7.23c-1.41,2.5-3.78,1.05-6.56,1.76l-6.27-10.45c-3.18,5.4-7.66.27-7.66.27l-4.25-11.87c-3.63,6.86-9.62.33-9.62.33l-1-15.86a24,24,0,0,1-8,5.09c-3.8,1.11-4-5.14-4-5.14l17.13-21.77,37.7-5.11,55.6,23.06Z"/><path class="cls-6" d="M267.32,601.84c.91.1,21.88,4.7,29.31,7.68s23.62,4.33,23.62,4.33,27-2.49,30-4.3,5.55-8.09,5.55-8.09a28.21,28.21,0,0,1,6.59-1.9c6.08-1.43,6.79-8.74,6.79-8.74l-8.43-1a228.89,228.89,0,0,0,23.77,1.94c2.27-.27,2.27-1.69,1.65-3.32a9.65,9.65,0,0,0-5.67-5.25l-40.79-15.45a80.7,80.7,0,0,0,10.45-13.28c3.07-4.82-1.17-7.15-2.59-7.66s-14.74,7.5-14.74,7.5-23,4.48-27.47,6.51-27.62,14.21-27.62,14.21l-8.25-.89S266.42,601.74,267.32,601.84Z"/><path class="cls-8" d="M285.86,571.55c4.88-2.89,9.78-5.74,14.74-8.48a38.46,38.46,0,0,1,6.69-3.22c3-1,6.07-1.66,9.12-2.36,3.45-.79,6.92-1.53,10.39-2.25,1.95-.4,4-.65,5.94-1.2a18.79,18.79,0,0,0,3.76-2.1c2.78-1.61,5.58-3.22,8.49-4.57.85-.39,1.88-1.08,2.76-.67a4.6,4.6,0,0,1,3,4.23,8.54,8.54,0,0,1-1.77,4c-1,1.45-2,2.88-3,4.27A82.53,82.53,0,0,1,339.3,567a.27.27,0,0,0,.12.47L361,575.61,375.1,581c2.84,1.07,6.44,2,8.63,4.15a8,8,0,0,1,2.48,5.57c0,1.08-.21,2.06-1.43,2.17a27,27,0,0,1-4.57-.31c-6.14-.59-12.21-1.81-18.32-2.64-.48-.07-1.05.61-.36.71l6.9,1-.33-.22a6.44,6.44,0,0,1-.45,3.92c-1,2.25-3.22,3.22-5.47,3.83l-6,1.62c-.51.14-.78.18-1.05.64-.65,1.16-1,2.5-1.64,3.66-.28.47.75.46,1,.09a16.78,16.78,0,0,0,1-2.09,7.63,7.63,0,0,0,.68-1.67c-.05,0-.49.09-.28.17s.29-.09.36-.1c.38-.07.76-.21,1.14-.31,1.93-.52,3.88-1,5.81-1.57,3.69-1.09,6.86-4.35,5.92-8.46,0-.15-.2-.2-.33-.22l-6.9-1-.36.71c5.72.78,11.39,1.89,17.13,2.52,1.43.15,2.87.28,4.31.36a6.34,6.34,0,0,0,2.81-.11c1.27-.53,1.52-2,1.44-3.19-.22-3.78-3-6.64-6.42-8l-2.15-.82L349.3,570.3,340,566.78l.12.47a82.74,82.74,0,0,0,6.14-7.09q1.32-1.71,2.54-3.5a23.49,23.49,0,0,0,2.49-4,4.59,4.59,0,0,0-.56-4.85,5.76,5.76,0,0,0-3-2,4.81,4.81,0,0,0-2.52.67c-1.45.62-2.84,1.36-4.23,2.1-2.64,1.42-5.24,2.92-7.82,4.45a7.16,7.16,0,0,1-.66.39c.21-.09.25-.06-.06,0a22.77,22.77,0,0,0-2.46.49c-3.25.66-6.49,1.33-9.74,2-5.84,1.28-12,2.29-17.36,5.1-6,3.15-11.88,6.63-17.73,10.1-.59.35.27.67.67.43Z"/><path class="cls-8" d="M331.93,563.84a57.44,57.44,0,0,0-12.15-2.26,53.84,53.84,0,0,0,11.82,3.62,98.58,98.58,0,0,0,11.94,2.94A38.88,38.88,0,0,0,331.93,563.84Z"/><path class="cls-8" d="M349.84,588.12c4.87,1.14,9.3,2.12,12.54,2.65a16.61,16.61,0,0,0,5.33.48,27,27,0,0,0-5.14-1.43c-3.18-.79-7.59-1.93-12.46-3.08-9.73-2.35-17.89-3.19-17.89-2.74S340.11,585.77,349.84,588.12Z"/><path class="cls-8" d="M341.55,600.38a40.85,40.85,0,0,0,14.17.91c-.09-.29-6.38-.71-14-2.15s-13.67-3.39-13.8-3A42.33,42.33,0,0,0,341.55,600.38Z"/><path class="cls-8" d="M126.25,317.53s18.23,21.32,45.66,23.23c0,0,10.19.85,11.65-.37L182.18,333Z"/><path class="cls-18" d="M217,279c-10.33-5.32-13.88-17.08-14.29-27.95-.39-10.42-10.44-25,2.22-26.33.24,0-5.8-8.13-2-7.9-3.09-5.34,5.3-6,5.53-12.56.05-1.32.21-12.94-8-12.53-35.25-36.58-73.28-22.19-94.87-16-42.36,12.18-63.39,26.78-42.9,93.66,13.76,44.9,59.08,42.13,102.47,34.39,18.54-3.31,40.77-5.84,52.28-24.59Z"/><path class="cls-18" d="M103.08,135.8c-1.61-2.24-14.6-9.54-21.5-7.73-4.94,1.3-10.41,4.38-17.7,13.15-8.3-1.07-18.32-1.15-22.43,3.68a27.24,27.24,0,0,0-4,6.87h0l0,.15a57.44,57.44,0,0,0-2.53,7.43c-4.37,8.34-13.3,26-14.31,33.47-.5,3.69,5.79,10.47,13.86,17.5a14.07,14.07,0,0,0-2.6,7.26c-.43,6.86,9.07,20.09,25.51,10.65,5.35,3.86,9.09,6.39,9.09,6.39l4.43-5s-.56-.87-1.5-2.4l5.42-6-4.89-3.14a36.78,36.78,0,0,1,4-4.58c5.22-6.14,10.6-14.47,15.57-20.82,2.29-2.94,9.25-5.4,11.68-8.22a13.36,13.36,0,0,0-4.78-1.26l2-2.28c2.69.66,5,1.26,5.72,1.57,2.14-2.45,8.22-5.36,10.32-7.84.56.64,1.1,1.29,1.62,2,1.92-2.28,6.32-5.17,8.23-7.45-2.26-11.19-8.58-20.08-19.85-23.53C104.2,141.36,103.87,136.9,103.08,135.8ZM39.39,218.48a16.11,16.11,0,0,1-1.69-5.29c3.38,2.82,6.93,5.62,10.35,8.22C44.76,221.88,41,221.59,39.39,218.48ZM96,136.75c.21,1.92-.79,5-1.68,7.36l-.84,0a132.39,132.39,0,0,0-13.44,0c1.67-3.71,3.37-7.31,4-7.93C87.12,133,95.64,133.4,96,136.75Z"/><path class="cls-6" d="M177.18,192.84l.37.16a3.41,3.41,0,0,1-.42-.43Zm12.71.23c.21.13.44.26.68.38l0-.22S189.84,192.8,189.89,193.07ZM133.72,323c13.65,9.59,34.14,15.84,47.61,15.26,6.59-.28,13.21-1.32,18.88-7.13,14.23-14.56,24.86-38.65,18.66-59.18-1.14-3.79-4.71-10.59-5.12-14.36-.47-4.34-2.35-25.22-8.59-37.57-7.6-15-13.81-22.07-13.81-22.07-1.06-2.58,5.89-2.57,4-4.46l-1.16.21a1.16,1.16,0,0,1,.77,1,9.21,9.21,0,0,1-4.43-1.2v.05c-1.61,1.12-3.51.62-5.21-.46,0,.27.44.76.73.7a6,6,0,0,1-5-.77c0,.27.44.75.49,1a11,11,0,0,1-4.06-1c.33.31,6.75-1.9,6.78-1.71-1.71.58.4.81-1.3-.27l-1.62-.74c-1.42.53-1.21,1.4-2.57.53.34.22-1.33-2.81-1.28-2.54-1.76.31-1.3.11-2.91-.43,0,.26-4.47,2.59-4.42,2.86-1.46.26-.84,1.53-2.2.67.34.22.86-1.31,1.2-1.1-1.71.59-2.17,1.83-3.87.75.34.22-6.31-1.91-6.31-1.91-1.7.58-1.31,1.08-3,.26.68.44-8.19.95-7.8,1.43-1.46.27,3.75,4.86,2.44,4.27.05.27-3.51-.21-3.51-.21-1.42.53,1,1.48-.34.62.05.27.48,1,.78,1-1.62,1.12-3.76.94-5.7.18.68.44,1.07.92,1.41,1.14-1.47.26-2.59.73-4.24-.08.05.27.77,1,1.07.92a5.9,5.9,0,0,1-4.78.3c.05.26.73.7,1.07.91a4.19,4.19,0,0,1-3.6.09l1.07.92c-1.17.21-2,.9-3.81.68,0,.27.69.43.73.7a11.26,11.26,0,0,1-3,.25c0,.27,1,.65.73.7-1.17.21-1.95.9-3.51.63.34.21.73.7,1.07.91-1.17.21-2.29.69-3.56.36a2,2,0,0,0,.78,1c-1.17.21-2,.9-3.51.63,0,.27.73.7,1.07.91a15.49,15.49,0,0,1-3.51.63c0,.27.68.43,1,.65a9.69,9.69,0,0,1-3.85.41c.1.54.44.75.49,1-.88.16-1.51,0-2.39.15l-1.37.8c-3.13,6.09-12,18.76-12,18.76-7.77,8.86-5.7,21.48-4.5,26.52S106,280.86,106,280.86c-1.79-1.62-3.86-5.71-5.12-7.7-1.21-1.73-2.92-3.6-4.14-5.32-3.39-3.83-9-1.44-11.74,1.81l-.38,1c-3.39,6.87.66,21.73,10.84,30.3,3,11.23,15.43,14.59,16.65,5.7l2.38,4.16"/><path d="M191.42,286.47a7.7,7.7,0,0,1-6.78.86c-.48-.17-1.84.34-1.18.58a10.84,10.84,0,0,0,9.21-1.31c.22-.17.14-.34-.18-.38a1.72,1.72,0,0,0-1.07.25"/><path d="M182.54,287.54a12.52,12.52,0,0,0-4.32-.21,1,1,0,0,0-.6.31c-.1.13-.1.27.07.33a4.75,4.75,0,0,0,2.37.07.92.92,0,0,0,.65-.39c.09-.21-.17-.29-.36-.25a3.74,3.74,0,0,1-1.91-.07c-.17.22-.34.43-.52.64a11.1,11.1,0,0,1,3.86.21.94.94,0,0,0,.74-.22c.14-.12.26-.35,0-.42"/><path d="M176.9,288.79c-1.68.27-3.77-.06-4.82-1.12-1.59-1.6-1-4.9.87-6.46.2-.17.05-.31-.19-.32a1.44,1.44,0,0,0-.86.35,6,6,0,0,0-1.74,5.82c.56,1.55,2.37,2.37,4.45,2.46a9.28,9.28,0,0,0,1.9-.1c.26,0,.7-.2.79-.42s-.16-.25-.4-.21"/><path d="M194.32,285.08a.22.22,0,0,1,.16-.35,2,2,0,0,0,1.22-.65l.54.44a6,6,0,0,0-2.45,1.39.48.48,0,0,1-.55,0c-.12-.06-.28-.25-.14-.38"/><path d="M193.1,285.55a6.9,6.9,0,0,1,2.74-1.55.59.59,0,0,1,.49.11.22.22,0,0,1,0,.33"/><path d="M197.83,284.64a3.51,3.51,0,0,0,2.54-2.5,4.72,4.72,0,0,0-2.28-4.94.19.19,0,0,1,0-.35.64.64,0,0,1,.61.07,5.28,5.28,0,0,1,2.6,4.06,3.83,3.83,0,0,1-1.91,3.67,4,4,0,0,1-1.16.47.62.62,0,0,1-.59-.15c-.11-.18,0-.3.17-.33"/><path class="cls-12" d="M103.83,286.78a62.87,62.87,0,0,0-7.43-8.93,20.41,20.41,0,0,0-4.91-3.71,5.86,5.86,0,0,0-2.41-.72,2.07,2.07,0,0,0-.5,0c-.65.13-.74.52-.93,1.09C86.5,278,87.31,281.8,88.76,285c.1.23,1.08-.11,1-.27a16.19,16.19,0,0,1-1.59-8.15,8.21,8.21,0,0,1,.8-3.07l-.6.27h-.06c.18,0,.19,0,.36,0a6.11,6.11,0,0,1,1.66.55A22.9,22.9,0,0,1,97,279.72a71.47,71.47,0,0,1,5.88,7.33c.16.24,1.07-.17,1-.27Z"/><path class="cls-19" d="M211,235.92c-6.46-3.54-10.89-4.45-23-5.19l-.08.27c-.46,1.49-.2.66-.67,2.16l-1.05,3.43c4,.19,6.91,0,9.41.3,4.72.62,10.25.79,14.68,2.73C210.51,238.38,210.74,237.15,211,235.92Z"/><path class="cls-19" d="M158.79,235.92c.71,1.4.31.62,1,2,.54,1.07,1.07,2.14,1.6,3.22-3.88.82-6.83,1.08-9.24,1.81-4.78,1.45-10.51,2.54-14.62,5.46-2,1.39-4.74,3.46-5.3,6.14-.15.72,0,2.94-1,3-.42,0-.73-2-.76-2.2-.6-4.06,1.67-7,4.92-9.69,6.62-5.45,10.52-7.1,23.3-10"/><path class="cls-12" d="M103.44,286.85c-1.73.33-3.8,1.09-2.92,3.2.78,1.88,2.44,3.38,2.81,5.44.12.65,0,2.3-.75,2.44-1,.19-2.46-1.18-3.09-1.82a11.8,11.8,0,0,1-3.35-6.69c-.33-2.53-.56-6.45,1.86-8.08.42-.28-.58-.16-.77,0-2.3,1.54-2.4,4.79-2.21,7.28a12.23,12.23,0,0,0,2.56,6.77c1.17,1.51,3.78,4.09,5.88,2.56,1.88-1.38.53-4-.39-5.51a12.74,12.74,0,0,1-1.71-3.08c-.37-1.37.72-1.87,1.9-2.09.4-.08.89-.52.18-.39Z"/><path class="cls-19" d="M203.1,248a4,4,0,0,1,4.57,0,4.32,4.32,0,0,1,1.53,1.77,4.68,4.68,0,0,1-.27,4.17,3.67,3.67,0,0,1-4.21,1.61,4.64,4.64,0,0,1-3-4.85A4.08,4.08,0,0,1,203.1,248"/><path class="cls-19" d="M189.53,256.11s6.61-7.86,10.48-9a12.84,12.84,0,0,1,12.94,3.4s-7.3-3.66-11.25-2.37C197.92,249.38,189.53,256.11,189.53,256.11Z"/><path class="cls-19" d="M154.24,256.51a4.47,4.47,0,0,0-4.59,1.71,4.22,4.22,0,0,0-.92,2.21,4.45,4.45,0,0,0,1.74,3.81,4.15,4.15,0,0,0,4.82,0,4.57,4.57,0,0,0,1.28-5.62,4.09,4.09,0,0,0-2.33-2.09"/><path class="cls-19" d="M165.63,260.52s-10-4.84-14.61-4.47c-8.31.66-15.07,6.64-16.87,10.09,0,0,10.69-8.22,15.43-8.49C154.11,257.39,165.63,260.52,165.63,260.52Z"/><path class="cls-20" d="M191.8,196.49c2.44,7.18,11.36-.85,5.55-1.68,0-3.69-5.28-4.25-5.78-7.92a5.36,5.36,0,0,0-.26.63s-.91-4.35-2.57-5.15-8.81-2.94-8.81-2.94l-1.73,1.86c0-.12.48-1.68-.7-2.37s-13.35-4.53-20.38-2.82l-.69.19-2.68,2.07-.1.07.1-.08c.47-.41,1.46-1.37.77-1.89a2.51,2.51,0,0,0-1.42-.35,25.47,25.47,0,0,0-4.39.34v0l-.48.09-.48.08v0a25,25,0,0,0-4.23,1.2,2.57,2.57,0,0,0-1.22.82c-.46.73.8,1.29,1.38,1.5l.12.05-.11,0-3.23-1-.72.06c-7.19.83-17.28,8.64-18.15,9.7s.09,2.36.16,2.46l-2.26-1.15s-7.93,4.84-9.2,6.15a7.6,7.6,0,0,0-1.49,4s-2.43,1.42-3.42,1.28-5.38,3.24-6.86,6.47c-1,2.06-.18,3.72-.53,5.45h0c-.2,1-.29,1.61-.29,1.61L93,217.69c-3.66,2.65-1.19,10.73-1.19,10.73-6.16,11.09-5.08,19.4,0,27.65,2,3.18-7.18,8.37-.94,7.12S106,280.86,106,280.86s4-8.7,3.63-12.34-4-14-4-14l3-1s1.73-1.09,3.24-5.57-3.88-11-3.88-11l-2-4.17,6-.66c5.58-2,4.8-8.32,4.8-8.32l-2.86-10.21L118,216.5a4.31,4.31,0,0,0,3.59.9c8.82-2.27,8.88-8,8.88-8l.26-5.45,2.53,1.11c2.75,1.54,10.62,3.26,14.06,1,.91-.6,4.47-4.52,5.05-5.08,2.09-2.17,1.85-5.56,1.67-6.8-.41-.28-.82-.65-1.21-1-1.52-1.16-2-.47-.51.69,2.63,2,7,4.71,10.26,4.26s9.78-3,10.37-4.58c.39-1.08-.64-1,.53-1.18a3.86,3.86,0,0,1,2.8,1.06c1.83,1.47,3.3,3.84,5.62,4.54,3.38,1,4.94-1,7.93-2.22A1.5,1.5,0,0,1,191.8,196.49Z"/><path class="cls-21" d="M198.18,189.42s.94-7.1-3.64-10.28-22.26-16-47.94-11.49Z"/><path class="cls-22" d="M60.12,230.28s-17.77,14.8-29.14.4S41.27,206.6,41.27,206.6"/><path class="cls-22" d="M58.42,140.71s7-18,21-17.6,9.3,24,9.3,24"/><path class="cls-23" d="M187.28,298.78c-8.36.88-22,1.33-22,1.33S170.51,320,189.9,318s16-22.63,16-22.63A163.17,163.17,0,0,1,187.28,298.78Z"/><path class="cls-15" d="M187.36,298.77c-4,.42-18.83,1.44-18.83,1.44s6.43,12.92,20.81,11.4C204.92,310,203.94,296,203.94,296Z"/><path class="cls-24" d="M187.6,299.35c-4,.42-16.15,1-16.15,1s4.82,3.92,16.74,2.66,15.27-5.91,15.27-5.91Z"/><path class="cls-23" d="M206.83,295.14c-.44-.06-.87.2-2.86.24-3.32.06-4.27-.82-6.67-.75-4.1.11-6.52,2-8.29,2.19s-4.52-1.16-8.56-.41c-2.36.43-8.17,1.93-11.43,2.56-2,.38-4.36-.15-4.77,0-.57.21,1,4.42,23.27,2.07S207.43,295.22,206.83,295.14Z"/><path class="cls-1" d="M82.37,525.27q.64,3,1.51,5.91a.7.7,0,0,0-.12-.42C83.44,529.62,82.94,527.73,82.37,525.27Z"/><path class="cls-25" d="M252.16,411.76a55.1,55.1,0,0,0-3.16,24.8c.89,8.49,4.13,16.36,6.86,24.37,4.78,14,7,30.55,1.54,44.71a38.43,38.43,0,0,1-6.19,10.47c-.64.78-1.45,1.34-2.08,2.13a6.24,6.24,0,0,0-1.37,4.15c0,.5,1.56.19,1.55-.41a5.63,5.63,0,0,1,1.6-4.08c.59-.61,1.19-1.09,1.74-1.75a37.42,37.42,0,0,0,5.48-8.77,49.2,49.2,0,0,0,3.94-20.57A79.36,79.36,0,0,0,258.54,464c-2.48-8-6-15.7-7.45-24a54.38,54.38,0,0,1,2.62-28.42c.19-.52-1.35-.34-1.55.19Z"/><path class="cls-5" d="M71.83,369.3s-18.74,9.64-26,21.34c-12.45,20-6.56,61.57,7.91,111.29,8.11,27.83,21.29,93.3,23.87,48.38C79.59,515,71.83,369.3,71.83,369.3Z"/><path class="cls-5" d="M171.58,534.17l62.26,22.22,49.73,14.13-6.2,43.67s-51-6.62-63-8.7-70.49-7.79-70.49-7.79l-4-30.13,31.67-33.4"/><path class="cls-25" d="M80.7,380.09h.15l.82.09a11.88,11.88,0,0,1,3,.92c3.89,1.69,7.09,4.78,9.73,8,5.46,6.71,9.1,14.85,12,22.94,1.94,5.38,3.53,10.88,5,16.41,3.72,13.86,6.72,27.92,9.53,42q3.87,19.35,7.17,38.82c1,6,2,12.05,3,18.07.1.59.21,1.19.32,1.78,0,.1.21.15.28.15,2.49.09,5,.39,7.44.7a174.52,174.52,0,0,1,20.24,3.89c7.39,1.86,14.71,4.06,22,6.2q14.33,4.2,28.63,8.51,13.2,4,26.4,8c4.37,1.32,8.74,2.92,13.18,4l.19.06c.4.12,1.78-.5,1.26-.66l-14.29-4.34q-15.75-4.77-31.5-9.49c-10.53-3.15-21.05-6.29-31.61-9.32-11.16-3.2-22.39-6.14-33.94-7.58-1.95-.25-3.91-.46-5.87-.59a6.58,6.58,0,0,1-1.09-.06h-.08c.35.16.18.09.22-.16a5.46,5.46,0,0,0-.26-1.42c-.21-1.22-.39-2.44-.58-3.66q-2-12.15-4.12-24.26-3.27-18.4-7-36.72c-2.54-12.29-5.26-24.56-8.61-36.66s-7.43-24.86-15-35.23c-3.49-4.78-8.7-10.37-15-11.06a5.67,5.67,0,0,0-.92,0c-.47,0-1.67.79-.64.72Z"/><path class="cls-26" d="M257.16,613q-13.2-1.18-26.41-2.41-28.45-2.64-56.9-5.45-16.44-1.64-32.87-3.39c-.69-.07-1.61.91-.56,1,19.75,2.13,39.52,4.07,59.29,6q23.86,2.28,47.72,4.45l9.17.83c.68.06,1.61-.92.56-1Z"/><path class="cls-25" d="M318,488.56c-4.49.65-7.87,4.73-9.29,8.76a26,26,0,0,0-1.33,8.4c0,.3,1.54.07,1.55-.41.09-5.89,1.9-13.62,8-15.88l.26-.09.06,0,.36-.1c.22-.06-.16,0,.13,0s.89-.19.9-.45-.44-.22-.63-.19Z"/><path class="cls-17" d="M324.29,361.87c1.63,3.56,3.25,8,2.75,11.94-.36,2.77-1,5.52-1.62,8.26-2.06,9.74-4.19,19.47-5.94,29.27-.79,4.38-1.52,8.78-2,13.21a45,45,0,0,0,.78,13.59,77.61,77.61,0,0,0,6.19,17.94A56,56,0,0,0,334,470.54a26,26,0,0,0,2.62,2.41c.49.39.85.52,1,1.07a36.72,36.72,0,0,1,.84,4.2l2.21,10.9.15.75c.07.35,1.63,0,1.55-.42l-1.74-8.59-1.14-5.62c-.11-.54-.17-1.11-.33-1.64s-.25-.51-.73-.87c-4.38-3.32-7.6-8.15-10.26-12.88a79.9,79.9,0,0,1-7.28-17.64,48.29,48.29,0,0,1-2.08-15.47,112.82,112.82,0,0,1,1.6-12.54c1.68-10,3.84-19.91,5.94-29.82.69-3.24,1.42-6.47,2-9.73.7-4-.46-8-1.94-11.75-.19-.48-.39-1-.61-1.45s-1.68.12-1.55.42Z"/><path class="cls-25" d="M131.9,527.6a19.69,19.69,0,0,0-18.08,8.5c-.43.65,1.14.6,1.46.11a17.43,17.43,0,0,1,16.05-7.61c.68.07,1.61-.89.57-1Z"/></g></g></svg>