<svg xmlns="http://www.w3.org/2000/svg" viewBox="0 0 1303.15 1057.31"><defs><style>.cls-1{fill:#f2ebd1;}.cls-2{fill:#a66e53;}.cls-3{fill:#4f2e25;}.cls-10,.cls-4,.cls-9{fill:#151210;}.cls-10,.cls-11,.cls-4,.cls-9{stroke:#161311;stroke-miterlimit:10;}.cls-4{stroke-width:0.41px;}.cls-5{fill:#010101;}.cls-6{fill:#231f20;}.cls-7{fill:#13110f;}.cls-8{fill:#ce8d2a;}.cls-9{stroke-width:0.41px;}.cls-10{stroke-width:0.43px;}.cls-11{fill:none;stroke-width:0.99px;}.cls-12{fill:#24180f;}.cls-13{fill:#fff;}.cls-14{fill:#653c29;}.cls-15{fill:#bb997a;}.cls-16{fill:#513835;}.cls-17{fill:#163f51;}.cls-18{fill:#1b120c;}.cls-19{fill:#653c2a;}.cls-20{fill:#c95744;}.cls-21{fill:#47150e;}.cls-22{fill:#a38166;}.cls-23{fill:#87654d;}</style></defs><g id="Layer_9" data-name="Layer 9"><polyline class="cls-1" points="-12.44 1001.41 -12.44 -16.28 1317.59 -16.28 1317.59 1001.41"/><path class="cls-2" d="M383.16,216.1s4.54,21.48-5.69,38.45c-1.42,2.36-12.51,7.23-12.52,7.23,2.69,2.66,3.08,7,3.49,7.47,7.17,7.83,1.9,23.42,12.8,27.77,11.52,4.6,28.31,13.2,40.67,12,8.68-.83,13.24-20.41,21-23.86,0,0-12.72-7-12.83-10.22s7.6-28.27,7.6-28.27"/><path class="cls-3" d="M395.84,242.06s0,15.6,22.78,26.23c0,0,10.78,4.26,12,3.82l1.44-6.18Z"/><path class="cls-4" d="M470.57,232.15c-6.36-7-5.75-16.89-3-25.27,2.63-8-.9-22,9.1-19.4.18,0-2.12-7.81.72-6.57-.85-4.93,5.71-3.07,7.73-8,.41-1,3.81-9.78-2.57-11.79-16.51-37.74-49.48-37.5-67.64-38.86-35.65-2.67-57.27-5-60.51,51.58-2.18,38,13.4,45.94,48.58,52.27,15,2.7,53.83,17.33,67.85,6.31C470.75,232.33,470.65,232.25,470.57,232.15Z"/><path class="cls-4" d="M424.24,91.22c-.6-2.16-8.42-11.36-14.18-11.93-4.12-.4-9.14.4-17.16,5-6-3.15-13.6-6-18.09-3.51a21.92,21.92,0,0,0-5,4.08h0l-.08.1a47.45,47.45,0,0,0-4,4.94C360,95,348.24,106,345.39,111.34c-1.42,2.67,1.45,9.59,5.61,17.22a11.38,11.38,0,0,0-4,4.78c-2.26,5.09,1.24,17.83,16.4,15.28,3,4.44,5.11,7.42,5.11,7.42l4.78-2.57-.47-2.24,5.82-3-2.84-3.76a29.68,29.68,0,0,1,4.36-2.35c5.7-3.2,12.13-8,17.7-11.45,2.56-1.59,8.55-1.5,11.19-3a10.82,10.82,0,0,0-3.28-2.31l2.14-1.17c1.86,1.25,3.42,2.35,3.9,2.79,2.32-1.25,7.76-1.76,10.06-3,.24.64.47,1.29.68,2,2.1-1.2,6.26-2.16,8.35-3.36,1.43-9.14-.87-17.68-8.47-23.47C423.52,95.77,424.53,92.28,424.24,91.22Zm-71.71,44.95a12.89,12.89,0,0,1,.21-4.5c1.77,3.09,3.69,6.22,5.55,9.16C355.65,140.27,352.9,139,352.53,136.17ZM418.6,90c-.38,1.52-2,3.61-3.35,5.12l-.63-.25a106.22,106.22,0,0,0-10.24-3.75,46.73,46.73,0,0,1,5.26-4.92C412.9,84.58,419.25,87.3,418.6,90Z"/><path class="cls-2" d="M464.53,155.46l.23.22a3.43,3.43,0,0,1-.19-.44Zm9.6,3.75c.12.16.26.32.4.48l0-.18S474.17,159,474.13,159.21Zm-79.28,83c7.67,11.14,22.54,20.49,32.94,23.85,5.1,1.64,9.38,3.88,15.33,1.06,14.92-7.08,31.28-22,32.35-39.38.19-3.2-.61-9.38.14-12.36.87-3.44,3.82-20.22,2.55-31.36-1.55-13.58-4.29-20.67-4.29-20.67-.08-2.26,5.2-.3,4.33-2.26l-.95-.17a.94.94,0,0,1,.32,1,7.6,7.6,0,0,1-3-2.16v0c-1.54.39-2.85-.51-3.84-1.82,0,.22.12.7.36.74a4.81,4.81,0,0,1-3.56-2c0,.22.12.7.08.92a8.83,8.83,0,0,1-2.81-1.9c.17.33,5.67.46,5.64.61-1.46,0,.08.73-.91-.57l-1-1c-1.22,0-1.31.72-2.1-.32.2.26-.22-2.51-.26-2.29-1.42-.26-1-.28-2.09-1.15,0,.22-4.13.72-4.17.93-1.18-.21-1.06.93-1.85-.11.19.26,1-.75,1.21-.49-1.46,0-2.16.78-3.15-.53.2.27-4.25-3.23-4.25-3.23-1.47,0-1.31.46-2.33-.63.39.53-6.49-1.58-6.34-1.1-1.18-.22,1.49,4.75.66,3.92,0,.22-2.61-1.14-2.61-1.14-1.23,0,.35,1.41-.44.37,0,.22.08.92.32,1a4.93,4.93,0,0,1-4.39-1.47c.4.53.56,1,.76,1.26-1.19-.21-2.17-.16-3.2-1.25,0,.22.31,1,.55,1a4.78,4.78,0,0,1-3.71-1.11c0,.21.35.73.55,1a3.41,3.41,0,0,1-2.76-.94l.55,1c-1-.17-1.74.14-3.08-.55,0,.22.4.52.36.74a8.87,8.87,0,0,1-2.34-.65c0,.22.6.78.36.74-.95-.17-1.74.14-2.84-.51.19.26.35.74.55,1a6.48,6.48,0,0,1-2.8-.73,1.69,1.69,0,0,0,.31,1c-.94-.18-1.73.13-2.84-.52,0,.22.36.74.55,1a12.55,12.55,0,0,1-2.84-.51c0,.22.4.52.59.78a7.78,7.78,0,0,1-3-.77c-.08.43.12.69.08.91-.71-.13-1.14-.43-1.86-.56l-1.26.22c-4.1,3.76-14.43,10.88-14.43,10.88-8.4,4.55-10.38,14.73-10.89,18.91s1.63,21.65,1.63,21.65c-.91-1.74-1.33-5.43-1.73-7.3-.43-1.65-1.21-3.56-1.65-5.21-1.5-3.87-6.44-3.63-9.44-1.92l-.56.63c-4.51,4.27-5.62,16.71-.29,26.09-.86,9.39,8.79,15.63,12.22,9.21l.64,3.84"/><path class="cls-5" d="M449,230.66a6.25,6.25,0,0,1-5.4-1.25c-.31-.27-1.49-.26-1.06.11a8.79,8.79,0,0,0,7.37,1.59c.22-.06.21-.22,0-.34a1.43,1.43,0,0,0-.88-.11"/><path class="cls-5" d="M441.94,229a9.94,9.94,0,0,0-3.22-1.38.77.77,0,0,0-.54.07c-.12.07-.16.18,0,.27a3.74,3.74,0,0,0,1.78.72.7.7,0,0,0,.6-.12c.13-.13,0-.26-.2-.29a2.92,2.92,0,0,1-1.43-.58l-.58.34a8.92,8.92,0,0,1,2.88,1.24.73.73,0,0,0,.63,0c.13,0,.29-.19.12-.31"/><path class="cls-5" d="M437.31,228.34a4.83,4.83,0,0,1-3.36-2.21c-.75-1.66.62-4,2.48-4.67.2-.07.13-.22-.05-.29a1.2,1.2,0,0,0-.75,0,4.84,4.84,0,0,0-3,3.94c0,1.34,1.13,2.47,2.69,3.12a7.59,7.59,0,0,0,1.47.46,1,1,0,0,0,.72-.1c.13-.14-.05-.24-.24-.27"/><path class="cls-5" d="M451.6,230.42a.18.18,0,0,1,.21-.22,1.69,1.69,0,0,0,1.12-.15l.28.48a4.91,4.91,0,0,0-2.25.38.42.42,0,0,1-.43-.14c-.07-.09-.14-.27,0-.33"/><path class="cls-5" d="M450.54,230.44a5.53,5.53,0,0,1,2.52-.41.48.48,0,0,1,.34.22.19.19,0,0,1-.06.27"/><path class="cls-5" d="M454.39,231.08a2.84,2.84,0,0,0,2.63-1.19,3.82,3.82,0,0,0-.34-4.4c-.1-.12,0-.24.12-.26a.56.56,0,0,1,.44.22,4.29,4.29,0,0,1,.83,3.83,3.21,3.21,0,0,1-3.49,2.28c-.14,0-.37-.12-.41-.28s.1-.22.22-.2"/><path class="cls-6" d="M382.3,206.1a50.24,50.24,0,0,0-3.32-9.25,15.31,15.31,0,0,0-2.71-4,3.79,3.79,0,0,0-1.51-1.05c-.69-.2-1.14.47-1.5,1a12.32,12.32,0,0,0-1.91,8.08c0,.24.84.07.82-.22a13.07,13.07,0,0,1,1.09-6.59,6.47,6.47,0,0,1,1.4-2l-.57.16c.07,0,0,0,0,0a1.6,1.6,0,0,0,.3.13,4.94,4.94,0,0,1,1.08.85,18.27,18.27,0,0,1,3.59,6,58.47,58.47,0,0,1,2.38,7.17c.07.26.89,0,.82-.22Z"/><path class="cls-7" d="M480,190.67c-5.95-.57-9.54.17-18.78,3.49l0,.22c.13,1.27.06.56.19,1.83.1,1,.21,1.93.31,2.89,3-1.13,5.14-2.24,7.11-2.79,3.72-1,7.89-2.69,11.81-2.66C480.41,192.66,480.19,191.67,480,190.67Z"/><path class="cls-7" d="M441.06,192.54c-.68,1.07-.3.47-1,1.54-.52.82-1.05,1.63-1.58,2.45-2.18-2.37-3.58-4.32-5.08-5.7-3-2.73-6.12-6.28-9.86-7.93-1.78-.79-4.38-1.88-6.48-1.16-.56.19-2.05,1.22-2.5.52-.19-.28,1.09-1.33,1.22-1.43,2.58-2.1,5.58-1.74,8.79-.58,6.54,2.36,9.31,4.4,16.62,12.11"/><path class="cls-8" d="M376.57,220.69a5.42,5.42,0,0,0-3.09,6.68,5.15,5.15,0,0,0,2.75,2.9,5.07,5.07,0,0,0,2.38.32,5.92,5.92,0,0,0,4.43-2.36c.18-.23-.15-.4-.34-.42a.88.88,0,0,0-.78.35,4.21,4.21,0,0,1-3.09,1.67,4.35,4.35,0,0,1-1.56-.14,4.6,4.6,0,0,1-2.69-5.59,4.55,4.55,0,0,1,2.49-2.82c.19-.08.47-.31.3-.54s-.6-.14-.8-.05Z"/><path class="cls-6" d="M382.2,206.15c-1.27-.22-3.23-.2-3.32,1.49s.74,3.16.66,4.79a2.94,2.94,0,0,1-.28,1.13,2.08,2.08,0,0,1-.37.51l-.16.15-.24.16c.12,0,.11,0,0,0-1-.16-1.65-1.4-2-2.19a9.69,9.69,0,0,1-.74-6.2c.43-1.86,1.31-5,3.45-5.47.48-.12.41-.38-.07-.27-2.12.52-3.18,2.58-3.8,4.5a10,10,0,0,0-.37,5.5c.33,1.55,1.49,5,3.69,4.41,1.89-.5,1.88-2.61,1.59-4.15a16.47,16.47,0,0,1-.5-2.86,1.52,1.52,0,0,1,.27-1c.36-.41,1.11-.22,1.57-.14.2,0,.9-.28.67-.32Z"/><path class="cls-7" d="M468.45,204.21a3.62,3.62,0,0,1,3.72,1.39,3.43,3.43,0,0,1,.75,1.8,3.62,3.62,0,0,1-1.42,3.08,3.36,3.36,0,0,1-3.91,0,3.71,3.71,0,0,1-1-4.56,3.33,3.33,0,0,1,1.89-1.69"/><path class="cls-7" d="M456.11,207.05s7.66-4,11.16-3.73c5.1.41,9.27,4,10.61,6.77,0,0-5.93-5.31-9.53-5.49S456.11,207.05,456.11,207.05Z"/><path class="cls-7" d="M429.16,197.42a3.55,3.55,0,0,0-5,4.81,3.35,3.35,0,0,0,3.67,1.34,3.7,3.7,0,0,0,2.55-3.91,3.29,3.29,0,0,0-1.18-2.24"/><path class="cls-7" d="M436.7,203.67s-6.25-6.49-9.86-7.51c-6.5-1.83-13.33.81-15.67,2.92,0,0,10.44-3.24,14.13-2.11C428.82,198,436.7,203.67,436.7,203.67Z"/><path class="cls-9" d="M474.62,162.35c-.16,6.14,8.88,2.55,4.69.28,1.07-2.79-2.82-4.72-2.17-7.65a5.25,5.25,0,0,0-.37.41s.53-3.57-.5-4.64-5.88-4.72-5.88-4.72l-1.83.93c.06-.08.83-1.14.13-2s-8.88-7.21-14.7-7.89l-.58-.05-2.62.82-.1,0,.1,0c.47-.17,1.49-.63,1.12-1.22a2.14,2.14,0,0,0-1-.67,21.36,21.36,0,0,0-3.44-1v0l-.39-.06-.39-.08v0a20.93,20.93,0,0,0-3.55-.28,2.09,2.09,0,0,0-1.16.28c-.55.42.25,1.2.62,1.53l.09.07-.08-.06-2.17-1.68a5.12,5.12,0,0,0-.56-.15c-5.7-1.4-15.57,1.7-16.53,2.26s-.6,1.82-.57,1.92l-1.4-1.51s-7.39,1.44-8.73,2.09a6.17,6.17,0,0,0-2.25,2.59s-2.24.39-3,0-5,1-7,3c-1.31,1.31-1.19,2.78-1.94,4h0c-.42.68-.68,1.14-.68,1.14l-4.3.63c-3.53,1-3.92,7.82-3.92,7.82-7.8,6.7-9.32,13.32-7.75,21,.6,3-7.82,4.35-2.72,5.16s6.5,17.68,6.5,17.68,5.49-5.49,6.23-8.37.87-11.77.87-11.77l2.53.09s1.62-.34,4-3.32.15-9.45.15-9.45l-.33-3.73,4.77,1.2c4.81,0,6-5,6-5l.71-8.57,2.29,3.33a3.52,3.52,0,0,0,2.48,1.7c7.35.75,9-3.6,9-3.6l1.73-4.07,1.62,1.55c1.66,1.94,7.15,5.47,10.41,4.71.86-.2,4.67-2.18,5.27-2.44,2.2-1.06,3-3.71,3.19-4.7-.24-.33-.44-.72-.66-1.06-.83-1.32-1.41-.93-.58.38,1.43,2.26,4,5.53,6.6,6.13s8.27.5,9.17-.57c.61-.71-.19-1,.74-.75a3.15,3.15,0,0,1,1.83,1.59c1,1.64,1.43,3.85,3,5,2.28,1.74,4,.63,6.66.55A1.21,1.21,0,0,1,474.62,162.35Z"/><path class="cls-10" d="M481.46,158.76s2.71-5.13.12-8.83-12.41-18.46-33.22-22.24Z"/><path class="cls-11" d="M365,151s-17.68,6.25-22.26-7.9,14.59-15.42,14.59-15.42"/><path class="cls-11" d="M388.89,82.39s10.42-11.72,20.89-7.49.33,20.84.33,20.84"/><path class="cls-12" d="M444.69,238.21c-5.21-1-17.31,0-20,1.54A20.11,20.11,0,0,0,440,252.48c12.08,2.31,16.79-6.59,16.79-6.59S451.32,239.48,444.69,238.21Z"/><path class="cls-13" d="M430,238.46s6.29.69,11.23,1.63,11,2.63,11,2.63,1.5-3.52-7.46-5.24S430,238.46,430,238.46Z"/><path class="cls-14" d="M439.79,251.23c-5.5-1.88-8.44-10.63-15.11-11.48,0,0,.2,13.9,14.4,16.61s17.7-10.47,17.7-10.47C450.27,244.22,445.6,251.51,439.79,251.23Z"/><path class="cls-14" d="M451.4,236.59c-2.94-.79-5,0-6.35-.27s-3-1.74-6-2.09c-2.83-.33-15.95,4.21-14.8,5.34s11.27-2.1,20.25-.38,11.23,7.32,12.73,6.69S454.15,237.33,451.4,236.59Z"/><path class="cls-3" d="M450.39,187.5s1,3.83-1.1,6.35a4.72,4.72,0,0,1-6.37,1.29s4.39.39,6-3S450.39,187.5,450.39,187.5Z"/><path class="cls-3" d="M455.27,187.65s-2.86,2.72-2.45,6a4.71,4.71,0,0,0,4.7,4.48s-3.93-2-3.47-5.79S455.27,187.65,455.27,187.65Z"/><polyline class="cls-15" points="1316.59 1097.31 -13.44 1097.31 -13.44 982.87 1316.59 982.87"/><path class="cls-16" d="M54.53,982.79a.7.7,0,0,0,.08-.2l-.53,0Z"/><path class="cls-2" d="M347.32,943.89s42.91,45.46,55.25,49,10.4-8.24,10.4-8.24-22.18-24.8-30.39-39.54c-8.77-15.73,60.61-107.25,60.61-107.25l-51.51-48.26-16.1,53-21.22,93.84Z"/><path class="cls-2" d="M315.91,971.56s53.56,32.25,66.4,32.36,11.33-8.71,11.33-8.71S364.38,962,348,955c-5.84-2.49,32.27-154.37,32.27-154.37l-71.6,3.11,12,158.82Z"/><path class="cls-2" d="M365.3,887.36c12.55,4.32,33.38-6.33,46.56-5.19-11.25,26.44-36,58.47-21.89,66.91,10.06,6,34.71,27.42,34.71,27.42s-1.79,17.89-14.93,15-60.62-45.83-60.62-45.83l7-7.78Z"/><path class="cls-17" d="M440.35,472.55l6.82,29C454.61,533.91,461,606.33,458.23,694l-4.51,158.33-.09,11.6c10.38.38-42.15,5.89-53,3.57a126,126,0,0,0-48.25-1l-8.23,1.37a85.83,85.83,0,0,1-48.32-6l-25.36-14.75s33.27-149.07,2.63-254.92c-17.71-61.2,16.29-104,32.87-130.48Z"/><path d="M444.24,999.5s5.1-5.39,1.11-7.86c-14-8.7-20.63-16.13-23.13-16.45,1.4,1-.91,4.87-6.43,4.68s-14.45-1.14-26.34-7.15c-8.92-4.51-22.45-13.84-29.29-20.89-2.29-2.36-6.54-9.44-12.82-9.43-4.26,3-12.33,18.18-8.81,22.22s30,14,30,14l22,12.33,22.34,7.8,9.63,2.7,10.08-.25Z"/><path class="cls-18" d="M337.77,963.23c2.6,1.8,11.52,6.08,19.59,8.68,21.67,7,28,11.65,34.59,15.86a97.67,97.67,0,0,0,11.8,6.74c23.93,11.5,41,3.53,41.67,3.36a2.12,2.12,0,0,1,.24,1.3c-.32.11-3,1.29-6.42,2.29-5.87,1.72-18.93,4.32-37.61-4.23-5.3-2.43-8.51-3.8-11.8-5.9-4.94-3.16-10-6.41-22-10.9l-1.28,3.27s-23.48-6.23-32.3-13.36C335.57,965.11,337.77,963.23,337.77,963.23Z"/><path class="cls-18" d="M335.23,967.35c12.61,7.36,27.68,12,32.48,13.48l-1.13,2.87s-23.48-6.23-32.3-13.36A21.65,21.65,0,0,1,335.23,967.35Z"/><path class="cls-2" d="M316.24,899.19A72.28,72.28,0,0,0,335,903c7.81.56,17.16-20.7,25-20.81-4.27,31.24-13.69,76.17-2.8,82.43,14.72,8.46,46.57,23.64,46.57,23.64s-3.76,15.47-17.34,15.36-70.2-32.35-70.2-32.35l5.08-9Z"/><path d="M428.52,1006.58s3.53-5.83-.94-7.87-25.26-11.78-27.85-11.63c-.17,1.54,1.66,4.08-3.93,4.91s-16.26,1.23-29.77-2.46c-10.12-2.76-25.6-8.39-34.31-14-2.91-1.88-9-8-15.32-6.85-3.5,3.68-7.61,20-3,23.27s33.76,8.17,33.76,8.17l25.31,8,24.44,3.52,10.37.87,10.05-2.1Z"/><path class="cls-18" d="M312.25,990.74c3.07,1.27,13.14,3.8,21.92,4.86,23.56,2.84,31.13,6.23,38.84,9.12a109.94,109.94,0,0,0,13.6,4.41c27,6.82,42.06-4.07,42.67-4.36a2.15,2.15,0,0,1,.58,1.22,64.4,64.4,0,0,1-5.84,3.41c-5.44,2.75-17.85,7.68-38.83,2.76-5.94-1.39-9.53-2.13-13.38-3.58-5.78-2.18-11.72-4.41-24.88-6.6l-.43,3.43s-25.18-1.78-35.89-7.11C310.53,993,312.25,990.74,312.25,990.74Z"/><path class="cls-18" d="M310.78,995.21c14.57,4.86,30.9,6.63,36.1,7.19l-.38,3s-25.18-1.78-35.89-7.11A20.43,20.43,0,0,1,310.78,995.21Z"/></g><g id="Layer_11" data-name="Layer 11"><path class="cls-2" d="M569.05,253c1.81-4.67,3.12-16.77,5.58-16.74s4.88,1.39,5.53,5.42-4.07,13.38-1,16.69c2.21,2.39,4.84-.05,4.84-.05s14.61-13.59,19.06-19.07,9.68-9.16,11-7.32,1.32,3.66-2.37,8.18-10.46,11.11-9.91,12.33,2.45.36,4.63-2.25S619.64,236,621.6,236.37a3.3,3.3,0,0,1,2.11,4.78h0a12.27,12.27,0,0,1-3.16,4.09c-4.84,4.06-11.49,9.86-14.57,13.62a.39.39,0,0,0,.52.57c2-1.5,5.73-4.52,9.75-8.23l4.65-4.95a2.7,2.7,0,0,1,4.06-.11,2.07,2.07,0,0,1,.42,1.4c-.13,2.41-3.38,5-3.38,5l-15,14.93s0,1.7,1,1.83,11.65-12.65,12.94-11.56,2.85.59.22,5-12,12.39-15.13,15.85-11.38,9.78-15.69,13.83a10.1,10.1,0,0,1-9.26,2.59l-10.28-2.52a18.22,18.22,0,0,1-8.17-16.82C563.65,264.79,567.24,257.62,569.05,253Z"/><polygon class="cls-2" points="584.08 292.96 579.66 301.24 560.93 286.02 564.42 278.59 584.08 292.96"/><path class="cls-19" d="M585.46,266.14c2.15,1.36,3.13,3.81,3.53,6.23a22.49,22.49,0,0,1-.46,8.91c-.13.51,1,.37,1.14-.1a22.8,22.8,0,0,0,.41-9.34,9.09,9.09,0,0,0-3.74-6.32c-.4-.25-1.41.29-.88.62Z"/><path class="cls-2" d="M226.8,215.71c-.32-4.61,1.89-15.61-.32-16.28s-4.77-.16-6.49,3.19-.09,12.9-3.76,14.94c-2.65,1.48-4.34-1.42-4.34-1.42s-9.31-16.08-11.77-22.15-7.25-13.17-9-12-2.2,2.84-.15,7.86,7.4,15.11,6.57,16-2.3-.38-3.53-3.29-9-18.57-10.89-18.79a3,3,0,0,0-3.23,3.6h0a11.31,11.31,0,0,0,1.69,4.49c3.37,5.18,9.12,15,10.64,19.08a.28.28,0,0,1-.48.26c-1.32-1.68-5.14-8.05-8-12.89L181,192.72a2.56,2.56,0,0,0-3.61-1.25,1.81,1.81,0,0,0-.77,1.1c-.56,2.16,1.63,5.35,1.63,5.35l10.44,19.76s-.49,1.49-1.42,1.32-8-16.79-9.5-16.2-2.73-.29-1.59,4.3,8.46,16.67,10.27,20.59,7.48,11.82,10.21,16.6a9.67,9.67,0,0,0,7.59,4.91l9.94.7c.47,0,9.93-2.63,12-12.45S227.12,220.32,226.8,215.71Z"/><polygon class="cls-2" points="203.37 248.58 205.92 256.88 228.75 250.42 224.17 239.28 203.37 248.58"/><path class="cls-19" d="M208,221.89c-5.36,1.33-7.32,8.19-7.63,13,0,.52,1,.36,1.07-.09a20.42,20.42,0,0,1,2-7.71c1-2,2.51-4,4.78-4.51.65-.16.47-.84-.18-.68Z"/><path class="cls-20" d="M262.19,373.36a61,61,0,0,0,1.17-27.21c-1.4-8-.84-11.28-1.35-19.44l-32.19-80.48-29.28,11.43s11,113.37,29.31,131.82c4.32,4.34,10.41,14.09,28.43,8.22C264.89,391.4,259.7,382.66,262.19,373.36Z"/><path class="cls-20" d="M370.51,258.8s-42.24-.57-62.89,18.68c-9.47,8.84-41.3,44.3-47.74,52.5,1.2,7.68.34,14.82,1.18,22.57.93,8.62-3.82,12.76-6.22,21-2.06,7.1-5,18.69-9.38,24.12,7,5.22,22.62-4.12,31.9-11.05,12.42-9.22,43.07-31.92,64.5-55.26,2-2.15,8.15-11,13.54-19.93C362.6,302.7,372.75,265,370.51,258.8Z"/><path class="cls-20" d="M447.56,286c4.18-.88,6.29-1.7,9.59,1,8.7,7.1,13.45,9.93,23.66,29.38,20.4,38.85,41.67,58,41.67,58L493.68,420s-59.46-33.94-71.77-91.5C412.68,285.33,435.05,288.66,447.56,286Z"/><path class="cls-20" d="M482,412.24s7.83-11.55,18.49-38.75c6.7-17.11,24.5-39.12,32.92-52.49,21.82-34.63,26.2-37.08,26.2-37.08l25.21,16.72s-24.18,56.54-46,98.24C514.29,445.92,482,412.24,482,412.24Z"/><path class="cls-20" d="M463,329.32c1.56-27.54-.32-37.63-.32-37.63-2-2.47-6.71-6.88-15.83-11.38-1.11-.55-13.17-5.5-16.55-6.7,0,.5-.31.85-.21,1.57,2.44,9.11-5.19,14.21-14.37,14.46a122.08,122.08,0,0,1-12.89-.83,29.19,29.19,0,0,1-10.55-3.38c-9.78-5.21-20.14-15.66-21.74-26.63l-25.63,9.51-29.81,7.07-.73,164-.65,1.22c12.59,6,29.75,14.7,53.48,22.94,21.44,7.45,44.2,12.57,67,10.79,5.22-.41,2.55.28,7.64-.88-.78-5.58,3.09-28.12,3.64-33.9,3.06-31.88,4.73-32.76,5.93-34,4.91-5,15.59-11.34,16.6-28.78C468.48,368.44,462.47,338.22,463,329.32Z"/><path class="cls-21" d="M469.73,331.84A93.45,93.45,0,0,0,467.08,359c.21,5.63,1.18,11.4.71,17A40.22,40.22,0,0,1,465,388.24c-.14.31,1.06.18,1.22-.18A40.17,40.17,0,0,0,469,370.75c-.36-7.49-1.1-14.93-.67-22.44A86,86,0,0,1,471,331.66c.09-.37-1.12-.19-1.22.18Z"/><path class="cls-20" d="M445.47,439.56s2.85,48.94,5.69,69.83c0,0-33.1,23.59-117.31-1.11-54.54-16-50-17.36-50-17.36l30.25-52.53,3.54-23.83L439,433.67"/><path class="cls-21" d="M334.18,280.79a18.68,18.68,0,0,1,4.11,5.79,37,37,0,0,1,3.36,18.67c-.95,16.45-9.27,31.6-19.81,43.9a78.5,78.5,0,0,1-7.63,8c-.54.47.67.51,1,.23a73.73,73.73,0,0,0,6.48-6.63,99.5,99.5,0,0,0,12.45-17.37,68,68,0,0,0,8.48-25.12c.8-6.84.36-14-2.37-20.39a20.66,20.66,0,0,0-4.93-7.52c-.34-.3-1.49.18-1.13.49Z"/><path class="cls-21" d="M262.68,326.79a93.6,93.6,0,0,0,2.55,9.88,60.16,60.16,0,0,1,1.73,9.87,61.11,61.11,0,0,1-1.59,20.25c-.15.61,1.11.47,1.25-.09a61.88,61.88,0,0,0,1.61-20,60.69,60.69,0,0,0-1.72-10.11c-.87-3.37-2.08-6.65-2.6-10.11-.09-.58-1.32-.28-1.23.33Z"/><path class="cls-21" d="M507.38,357.35c-2.32,3.86-5.61,7-7.88,10.9-2.6,4.45-3.71,9.9-4.12,15,0,.13,1.2,0,1.22-.33.43-5.18,1.58-10.72,4.3-15.22,2.27-3.74,5.43-6.82,7.69-10.58.06-.11-1-.07-1.21.23Z"/><path class="cls-22" d="M826.05,786.57c1.3-7.48-2.53-12.52-12.41-11.21-3.28.43-6.72.07-10.08.07-14.94,0-17.88-7.59-17.89-20.47,0-14,2.71-20.84,17.48-20.85q51.48,0,103,0v4.07c35,0,70-4.09,105-4.26,7.6,0,14.58,1.52,15.18,8.12,1.52,17,3.67,35.42-22.66,33.6-2-.13-4.08.21-6,0-9.17-1.25-10.58,2.45-9.37,9,3.91,21.16,7.49,37.34,11.08,58.53,8.44,49.85,16.94,99.69,25.12,149.57,2.25,13.76,1.78,13.63-15.78,13.37-5.43-.08-7.71-1.44-8.46-6-7.92-48.14-17.93-109.91-25.8-158,.11-10-1.45-6-1.61-15.89a3.56,3.56,0,0,0-1-2.51,14.73,14.73,0,0,0-.3-2.91c-3.07-16.47-3-22.51-5.58-39-.86-5.48-5.83-6.5-13.49-6.38-30.91.46-61.84.41-92.76,0-7.07-.08-11.77,1.25-12.6,6.43-2.71,17.07-3,23.14-6.18,40.16a8.86,8.86,0,0,0-.11,3.16c-.22,7.83-1.39,15.56-2.45,23.32-.79,1.2-1.45,8.45-1.78,10.5-7.55,46.59-15.33,87.46-23.38,134-2.36,13.66-2.71,13.33-19.75,13.13-6.83-.09-7.61-2.05-6.75-7C799.24,926,813.41,859.5,826.05,786.57Z"/><path class="cls-23" d="M825.59,782.23a2.25,2.25,0,0,1-.28-.61C823.57,775.69,822,775,822,775l4.76.06V775l1.79.09,24.83.29a11.46,11.46,0,0,0-5,5.27,79.68,79.68,0,0,0-3,12.86c-1,5.5,1.54,6.58,7.12,6.51,18.24-.24,36.48-.09,54.71-.09,17.61,0,35.23-.28,52.83.13,7.07.17,8.53-2,7.53-7.74-1.49-8.58-1.49-9-2.17-12.11a8,8,0,0,0-6.65-4.68l34.22-.15c-4.71,2.74-4.31,6.21-4.31,6.21h0c2,12,2.55,18,4.95,33.16,1.22,7.69,3.4,15.47,4.62,23.16-7.65,1.57-16.22,3.34-23.81,5.26-1-6.21-1.92-12.42-2.87-18.63-.87-5.73-2.91-8-9.92-7.9q-54.78.48-109.56,0c-7.19-.06-9.65,1.85-10.61,8.18-.91,6-1.85,12.06-2.78,18.09a204.68,204.68,0,0,1-21.44-9.54C820.37,814.15,822.6,800.59,825.59,782.23Z"/><ellipse class="cls-23" cx="907.68" cy="737.24" rx="116.78" ry="9.97"/></g></svg>