<svg xmlns="http://www.w3.org/2000/svg" viewBox="0 0 1303.15 1057.31"><defs><style>.cls-1{fill:#f2ebd1;}.cls-2{fill:#151312;}.cls-3{fill:#bb997a;}.cls-4{fill:#a66f54;}.cls-5{fill:#361b10;}.cls-6{fill:#4c2713;}.cls-7{fill:#754a1d;}.cls-8{fill:#222c4c;}.cls-9{fill:#662160;}.cls-10{fill:#a66e53;}.cls-11{fill:#4d2f15;}.cls-12{fill:#1b120c;}.cls-13{fill:#343535;}.cls-14{fill:#5e5f5f;}.cls-15{fill:#a53b23;}.cls-16{fill:#89772e;}.cls-17{fill:#4f2e25;}.cls-18{fill:#010101;}.cls-19{fill:#13110f;}.cls-20{fill:#ababab;}.cls-21,.cls-38,.cls-39{fill:none;stroke-miterlimit:10;}.cls-21{stroke:#010101;stroke-width:0.92px;}.cls-22{fill:#273339;}.cls-23{fill:#622515;}.cls-24{fill:#331f11;}.cls-25{fill:#1f140c;}.cls-26{fill:#777;}.cls-27{fill:#0b0c11;}.cls-28{fill:#24180f;}.cls-29{fill:#fff;}.cls-30{fill:#653c29;}.cls-31{fill:#956243;}.cls-32{fill:#ccb631;}.cls-33{fill:#443a1a;}.cls-34{fill:#0d1016;}.cls-35{fill:#a38166;}.cls-36{fill:#87654d;}.cls-37{fill:#5f6161;}.cls-38{stroke:#131429;stroke-width:1.1px;}.cls-39{stroke:#2b1715;stroke-width:0.94px;}.cls-40{fill:#2a3592;}.cls-41{fill:#151641;}.cls-42{fill:#0c0a09;}.cls-43{fill:#65140e;}</style></defs><g id="Layer_10" data-name="Layer 10"><polyline class="cls-1" points="-47.64 1017.75 -47.64 -64.27 1371.34 -64.27 1371.34 1017.75"/><path class="cls-2" d="M723.52,368.28c-1.91-2.14-3.72-4.68-4-7.58a13.82,13.82,0,0,1,.94-6,3.72,3.72,0,0,1-.22-1c-.45-5.1,4.66-9.8,3.13-14.71-1.4-4.47-8.17-5.81-9.41-10.32-1-3.53,1.57-5.88,1.54-8.81s-3.5-6.25-6.43-6.58l-29.48,26.85c-4.46,10.23-7.85,15.38-6.87,22.27.8,3.68-4.44,5.25-4.47,9-.31,3.75-2.16,7.64-5.65,9.1,13.18,4.08,32.82,4.78,45.9.75l3.69-1.16c-4.28-3.66-5.83-13.31-5.83-13.31,1.51,4,4.71,9.94,7.7,12.66a14.24,14.24,0,0,0,2-.3c2.52.1,9.94-3.15,14.55-5.31A25.52,25.52,0,0,1,723.52,368.28Z"/></g><g id="Layer_4" data-name="Layer 4"><polyline class="cls-3" points="1371.34 1087.12 -47.64 1087.12 -47.64 969.96 1371.34 969.96"/><path class="cls-4" d="M640.49,528s25.06,105.2,23,212.88c-6.35,74.2-28,193-28,193l-20.32-2.55s-6-120-9.1-198.89c-5.06-74-12.93-113.81-12.93-113.81l2.49-106.34Z"/><path class="cls-4" d="M554,509.74s-27.44,49.2-27.72,101.44C526.13,642.41,563.07,933,563.07,933l21.08.85,26.67-306,13.79-95.3Z"/><path class="cls-4" d="M635.56,932.25S652.75,951.93,661,966h0s-8.25,10.87-14.58,8.54-35.81-36-35.81-36l5.16-10.82Z"/><polygon class="cls-5" points="618.88 975.86 610.43 978.09 611.75 953.62 619.06 954.06 618.88 975.86"/><polygon class="cls-6" points="611.85 952.94 610.43 978.09 602.22 974.43 606.33 948.76 611.85 952.94"/><polygon class="cls-6" points="584.05 952.21 582.06 968.47 586.45 966.06 585.87 947.14 584.05 952.21"/><path class="cls-5" d="M683,989.36a7.79,7.79,0,0,1-4.71,1.08c-8-.74-33-3.18-38.24-5.24-7.73-3-7.62-2.3-13.24-10.55a71.53,71.53,0,0,0-17-16.93,20,20,0,0,1-4.91-5s.37-2.43,2.59-1.89l.36,0,6.53,7.07,18.24,11.15,10.23,10.95,21,3,17-.15s3.81,1.2,4.43,1.9a2.54,2.54,0,0,1,0,2.91A11.94,11.94,0,0,1,683,989.36Z"/><path class="cls-7" d="M661,966s-3.07-.36-8.59,3.14-6.87,2.08-10.18-1.58-11.78-10.67-16.67-17.37-11.88-16.25-12-17.11a1.54,1.54,0,0,1,.18-1.19s-5.62,7.36-7.14,10.15-1.24,8.2-.65,10.44,10.3,6.92,15.62,13.2,9.86,10.79,13.08,14.2,23,5.57,28.55,6.19,12.61.87,15,.88,5.51-2,5.51-2,1.59-1.69-2.08-4.56-11.4-6.85-14.57-9A43.92,43.92,0,0,1,661,966Z"/><path class="cls-5" d="M546.69,977.1c.54-4.26,6.28-16.24,6.28-16.24l26.77,9.81,5.19-32.74a7.69,7.69,0,0,1,1.44,5.64c-.5,3.28-1.4,13.88-2.24,17.58-.59,2.56-.26,15-.26,15l-.14.58c-.64,3.79-1.18,4.06-2.17,6.38-2,4.82-26.68,4.87-30,2.94S545.85,983.71,546.69,977.1Z"/><path class="cls-7" d="M584.19,935.4s3,3.14,1.08,9.38c-3.63,11.73-4.11,32.08-5.36,35-2.06,4.82-28.65,3.93-31.43,1.34-4.75-4.42.1-13,1.58-16,6.31-13.07,12.85-26.93,12.85-26.93Z"/><path class="cls-4" d="M562.67,931.78l-.48,7.23-7.83,17.81c-2.05,5.21-2.15,10.33,3.42,10.84l3.82.73a32.06,32.06,0,0,0,9.86-.85c4-1,5.5-1.56,6.72-5.49l7-23.53-2.35-8.82C575.19,929.9,570.35,932,562.67,931.78Z"/><rect class="cls-8" x="830.83" y="54.22" width="385.94" height="915.35"/><path class="cls-4" d="M683.33,354S670,371.19,669.79,384.4l5.32,14.38L658.54,430.6c-9.65-4.25-11.36-.89-25.75-11.81l-13.08-47.53s9.18-2.23,11.1-4.39c12.55-14.14,10.63-35.78,10.63-35.78"/><path class="cls-9" d="M694.94,401.83s1.33,70-1,79.43c-1.63,6.59-14.42,6.09-30.64,49-1.43,3.8.23,15.29.43,19.37.09,2.05.26,4.09.45,6.14-1,6.31.59,16.78,2.11,26.81a123.26,123.26,0,0,1-26,4.53,168.34,168.34,0,0,1-34.18-1,165.36,165.36,0,0,1-33.86-8,117,117,0,0,1-29.6-15.19,85.55,85.55,0,0,1-8.2-6.76c13-27.28,17.17-30.15,17.17-30.15l12.67-17.56,17.26-130.84L603,373.06,624,369.59h0c1.61,4.17,2.73,11.52,7.75,19.61A73.49,73.49,0,0,0,653.8,411a7.23,7.23,0,0,0,9.55-2h0c8.28-9.9,6.88-20,6.44-24.67l3.21,2.1"/><rect class="cls-3" x="821.64" y="54.17" width="21.68" height="922.8"/><path class="cls-10" d="M262.6,941.56l37.67,19.55c2.78,2.34-34.77,23.28-72.06-9.82l4.18-10.17Z"/><path class="cls-11" d="M327.6,977.5s2-5-2-6.57-25.08-11.8-27.22-11.39c0,1.52-1.91,3.52-6.45,4.89s-9.6,3.1-21.25.87C262,963.63,244,960.58,236.11,956c-2.64-1.54-6.46-6.71-6.62-7.47-9.21,10.5-6.44,21.65-2.24,24.4s29,4.58,29,4.58l22,5.24,20.71,1,8.72-.19L318.09,982Z"/><path class="cls-12" d="M226.17,971.85c2.7.94,11.36,2.4,18.77,2.54,19.91.41,26.59,3,33.34,5a82.25,82.25,0,0,0,11.81,2.93c23.23,3.93,36.81-4.49,37.29-4.84a2.34,2.34,0,0,1,.62,1.13,18.07,18.07,0,0,1-4.8,3.16c-6.56,3-15.93,6.33-33.93,3.64-5.1-.75-8.17-1.12-11.54-2.15a84,84,0,0,0-21.44-3.93l0,3.38s-21.13.79-30.65-3.32C225,974.19,226.17,971.85,226.17,971.85Z"/><path class="cls-12" d="M225.48,976.36c12.67,3.27,26.44,3.36,30.82,3.38l0,3s-21.13.79-30.65-3.32A23.51,23.51,0,0,1,225.48,976.36Z"/><g id="freepik--character-1--inject-1332"><path class="cls-10" d="M165.6,899.78s3.15,44.2,3,46.79l21.22,6,9.06-5.4,9.15-47.4Z"/></g><path class="cls-10" d="M198.91,945.07l37.67,19.55c2.78,2.34-34.77,23.27-72.06-9.82l4.18-10.18Z"/><path class="cls-11" d="M263.91,981s2-5-2-6.56-25.08-11.8-27.22-11.4c0,1.53-1.91,3.53-6.45,4.9s-9.6,3.1-21.25.87c-8.73-1.68-26.69-4.72-34.59-9.32-2.63-1.53-6.45-6.7-6.62-7.46-9.21,10.5-6.44,21.65-2.24,24.4s29,4.58,29,4.58l22,5.23,20.71,1L244,987l10.45-1.54Z"/><path class="cls-12" d="M162.48,975.36c2.7.94,11.36,2.39,18.78,2.54,19.9.41,26.58,3,33.33,5a83.73,83.73,0,0,0,11.81,2.92c23.23,3.94,36.82-4.49,37.29-4.83a2.36,2.36,0,0,1,.63,1.13,18.49,18.49,0,0,1-4.81,3.16c-6.56,3-15.93,6.32-33.93,3.64-5.1-.76-8.17-1.13-11.53-2.15a83.76,83.76,0,0,0-21.45-3.93l.05,3.38s-21.12.79-30.65-3.33C161.31,977.7,162.48,975.36,162.48,975.36Z"/><path class="cls-12" d="M161.79,979.87c12.67,3.27,26.44,3.36,30.82,3.38l0,3s-21.12.79-30.65-3.33A23.36,23.36,0,0,1,161.79,979.87Z"/><path class="cls-10" d="M228.28,918.29s4,23.75,3.79,26.33l7,.84h26.2l4.47-25.41Z"/><path class="cls-13" d="M238.63,589.68l.74,4.88c.16,1.06.88,1.83,1.62,1.72s1.17-1.07,1-2.11l-.73-4.88a4.72,4.72,0,0,0,1.1-4.19c-.38-2.32-2-4-3.6-3.68s-2.6,2.42-2.21,4.75A4.84,4.84,0,0,0,238.63,589.68Z"/><path class="cls-14" d="M174.46,197.3c3.53-5.11,9.08-8.55,15-7-.38-11.57,10.76-18.51,22.33-19,5.94,0,12.08,2.65,17.67.63,3.49-1.26,6.1-4,9.07-6.35,12.43-9.42,32.21,1.15,43,12.46s8.25,24.08,3,38.75c-2.45,6.82-2,10.51-2.7,17.78-.65,6.85-4.66,19.62-4.66,26.42s10.7,13.81,3.84,14.42l-74.81-8c-11.08,2.3-18.21-1-24-10.71-3.77-6.61-2.54-6.92-3.1-14.49-1-9.9-11.14-17.25-10.65-27.18C168.51,208.8,171.23,202.64,174.46,197.3Z"/><path class="cls-15" d="M165.18,197s25.7-13.08,59.07-9.74,49.85,23.59,55.82,38.18-.06,30-.06,30,8.35,2.17,13.57-27.87c7.62-43.8-37.33-69.7-48.11-69.44S179.47,147.85,165.18,197Z"/><path class="cls-10" d="M194.65,270.9s-1,26.36-7.86,44.82c-1,2.57-17.22,14.31-17.22,14.31l28.71,25.05c13.54,3,43.61-3,56.63-7.8l7-16.83s-14.41-6.91-15.1-10.07,1.55-27.18,1.55-27.18"/><path class="cls-16" d="M292.33,928,318.66,641.7,304.46,556H130.26l-18,82.49,36,293.31s55.88,3.66,76.57,3.66S292.33,928,292.33,928Z"/><path class="cls-17" d="M246.8,316s-5.57-.89-9.42-2-10.41-.81-28.15-16.08c0,0,5.26,18.84,27.85,22.79,0,0,5.84,1.2,9.67.26Z"/><path class="cls-10" d="M266.19,201.21l.24.19a2.65,2.65,0,0,1-.22-.4Zm9.5,2.73c.13.14.28.28.43.43l0-.18S275.71,203.73,275.69,203.94Zm-68.84,91.82c8.32,10,25.62,20.85,40,21.39,5.13.2,10,0,14.13-6s7.76-8.41,12.2-14a43.94,43.94,0,0,0,8.41-15.26c2.27-6.7,2.4-8.5,2.18-15.38a66.64,66.64,0,0,1,.49-10.63c.52-3.36,3.07-16.57,4-24.37S284,208.41,284,208.41c-.28-2.15-3.29-1.27-4.29-3.06l-.92-.08a.9.9,0,0,1,.38.88,7.26,7.26,0,0,1-3.09-1.78v0c-1.44.52-2.77-.24-3.83-1.39,0,.21.18.65.41.67a4.63,4.63,0,0,1-3.58-1.58c0,.21.18.65.16.86a8.35,8.35,0,0,1-2.85-1.56c.19.3,5.45-.06,5.44.08-1.4.1.14.69-.92-.46l-1.07-.89c-1.17.12-1.19.81-2-.11.21.23-.43-2.38-.45-2.17-1.38-.12-1-.18-2.1-.91,0,.21-3.88,1.05-3.9,1.26-1.15-.1-.93,1-1.78.06.21.23.91-.81,1.12-.58-1.4.09-2,.93-3.06-.22.21.23-4.35-2.71-4.35-2.71-1.4.09-1.21.55-2.29-.39.43.46-6.34-.94-6.14-.5-1.15-.1,1.83,4.41,1,3.7,0,.21-2.6-.87-2.6-.87-1.17.12.47,1.32-.38.4,0,.21.16.86.39.88a4.71,4.71,0,0,1-4.32-1c.43.47.62.91.83,1.14-1.15-.1-2.09,0-3.17-.91,0,.21.39.89.62.91a4.61,4.61,0,0,1-3.65-.74c0,.21.41.67.62.9a3.25,3.25,0,0,1-2.72-.66l.61.91c-.92-.08-1.64.28-3-.26,0,.21.43.46.41.68a8.62,8.62,0,0,1-2.29-.41c0,.21.64.69.41.67-.92-.08-1.65.29-2.76-.24.21.24.4.68.61.91a6.21,6.21,0,0,1-2.74-.45,1.61,1.61,0,0,0,.39.89c-.92-.08-1.65.28-2.77-.24,0,.21.41.67.62.9a12.16,12.16,0,0,1-2.76-.23c0,.21.43.46.64.69a7.56,7.56,0,0,1-3-.47c0,.43.18.66.16.87-.69-.06-1.13-.31-1.82-.37l-1.19.32c-3.59,3.95-15.39-.49-15.39-.49-7.62,5.09-.56,35.11-.67,39.14s-2.49,5-2.49,5c-1-1.58-2.8,2.68-3.35.93-.56-1.54.06-3.4-.5-4.94-1.79-3.56-6.48-2.9-9.19-1L181,241c-3.93,4.47-1.34,19.65.9,24.28,0,9.05,7.53,14.43,12.51,8.31l1,3.61"/><path class="cls-18" d="M255.27,276.94a6.62,6.62,0,0,1-6-.89c-.35-.26-1.64-.15-1.13.23a9.31,9.31,0,0,0,8.13,1.07c.22-.09.2-.26-.06-.37a1.48,1.48,0,0,0-1,0"/><path class="cls-18" d="M247.47,275.73a10.64,10.64,0,0,0-3.62-1.23.85.85,0,0,0-.58.13c-.12.08-.15.21,0,.3a4,4,0,0,0,2,.64.82.82,0,0,0,.65-.19c.13-.16-.07-.29-.24-.3a3.3,3.3,0,0,1-1.6-.52c-.21.14-.4.29-.6.43a9.83,9.83,0,0,1,3.23,1.11.77.77,0,0,0,.68,0c.14-.07.31-.25.11-.36"/><path class="cls-18" d="M242.39,275.45a5.15,5.15,0,0,1-3.83-2.14c-1-1.78.29-4.37,2.25-5.28.21-.1.12-.27-.08-.33a1.24,1.24,0,0,0-.81.1,5.18,5.18,0,0,0-2.84,4.51c.1,1.5,1.44,2.66,3.19,3.24a8.88,8.88,0,0,0,1.64.37c.22,0,.64,0,.76-.18s-.07-.26-.28-.29"/><path class="cls-18" d="M258.07,276.42a.2.2,0,0,1,.21-.27,1.77,1.77,0,0,0,1.19-.27l.36.51a5.22,5.22,0,0,0-2.41.63.42.42,0,0,1-.48-.11c-.09-.09-.17-.29,0-.37"/><path class="cls-18" d="M256.92,276.54a5.92,5.92,0,0,1,2.69-.7.51.51,0,0,1,.39.22.21.21,0,0,1,0,.3"/><path class="cls-18" d="M261.15,276.89a3.09,3.09,0,0,0,2.75-1.58,4.38,4.38,0,0,0-.76-4.87.18.18,0,0,1,.1-.31.58.58,0,0,1,.51.21,4.87,4.87,0,0,1,1.23,4.18,3.54,3.54,0,0,1-3.59,2.89c-.14,0-.4-.1-.46-.28s.08-.25.22-.24"/><path class="cls-19" d="M273.47,248.86a3.2,3.2,0,0,1,4.4,2.55,3.34,3.34,0,0,1-1.05,3,3.09,3.09,0,0,1-3.6.32,3.42,3.42,0,0,1-1.34-4.12,3,3,0,0,1,1.59-1.71"/><path class="cls-19" d="M261.7,252.14s6.64-4.36,9.84-4.41c4.69-.06,10.19,3,11.63,5.44,0,0-7.24-4.49-10.54-4.35C269.48,249,261.7,252.14,261.7,252.14Z"/><path class="cls-19" d="M234.69,246a4.34,4.34,0,0,0-4.19-.09,3.24,3.24,0,0,0-1.1,1.43,3.32,3.32,0,0,0,.53,3.09,3.08,3.08,0,0,0,3.49.93,3.41,3.41,0,0,0,2-3.83c-.05-.26.25-.72-.74-1.34"/><path class="cls-19" d="M242.47,250.13s-6.64-5.07-10.09-5.46c-5-.58-11.3,1.86-13.14,4.13,0,0,8.31-3.67,11.84-3.17C234.46,246.11,242.47,250.13,242.47,250.13Z"/><path class="cls-20" d="M261.42,240.45l1.47,2.43,1.13,1.84c1.75-1.77,3.32-3.18,4.52-4.21,2.53-2.18,3.84-3.28,5.64-4a18.22,18.22,0,0,1,4.47-1.09,12.31,12.31,0,0,1,2.6-.15c2,.17,3.25,1,3.42.72s-.79-1-.89-1.08a11.06,11.06,0,0,0-5.43-2.32,13,13,0,0,0-4.87.55c-1.87.57-6.54,3-12.06,7.3"/><path class="cls-20" d="M246.9,238.79c-.56.75-1.13,1.51-1.69,2.28l-1.3,1.73c-1.75-2.05-3.33-3.7-4.54-4.91-2.56-2.57-3.88-3.87-5.75-4.85a20.79,20.79,0,0,0-4.66-1.7,12.31,12.31,0,0,0-2.75-.5c-2.11-.1-3.48.53-3.64.27s.89-.92,1-1a11.27,11.27,0,0,1,5.87-1.64,14.76,14.76,0,0,1,5.11,1.22c2,.83,6.75,3.93,12.36,9.09"/><path class="cls-21" d="M192,258.12c-4.84-12.15-8.47-12.31-8.47-12.31s-2.51,2.73-1.42,8.34"/><path class="cls-21" d="M190.12,259.17c-3.25-.39-.89,5.75-1.82,7.16s-2-2.42-2.34-7c0,0,.14-6.2,3.24-7.26"/><path class="cls-17" d="M274.21,222.15s-9.94,1.09-18,1.14-15.94-4.1-15.94-4.1,9.46,3.05,15.84,3.05S274.21,222.15,274.21,222.15Z"/><path class="cls-20" d="M279.73,199c-.11-.15,0,.06,0,0-2-2.84-3.24-5.85-5.35-8.6s-4.08-5.12-6.29-7.68c-.13-.16-2.77-.24-2.9-.4l-.14-.15-.21-.24-.5-.55a60.51,60.51,0,0,0-41.27-2.32,50.2,50.2,0,0,0-33.67,62.5c.69,2.27-.69,5,1.53,6.3s2.48.66,4.6-.78a16.6,16.6,0,0,0,4.75-5.93c5.83-10.91,7.34-28.33,4.82-40.45,1.46,2.3,11.68,0,13.94,1.5a19.44,19.44,0,0,0,27-5.4,28.69,28.69,0,0,0,3.06,3.81c10.28,10.83,23.74,16.14,35.07,8.61C284.55,209,281,200.83,279.73,199Z"/><path class="cls-22" d="M217.05,243.05l1.12,4.39a62.77,62.77,0,0,0,3.63,12c1.43,2.64,19,4.87,22.65,3.1s6.29-11.74,7.39-14l7,.9c.41,3.08,1.93,12.83,3.18,14.23s9.37,1.74,10.29,1.78c.76,0,1.82.06,3,.05,3.08,0,6.83-.25,8.06-1.3,1.82-1.56,4.15-7.86,6.19-13.82l.33-.93c.07-.23.16-.38.16-.45h0l.37-1.08c-9.83-5.59-23.25-5.75-31.79-.37l0,.11-6.87-.91c-7.41-5.74-20.67-9.53-30.58-6.48h0L191,243.1l-.28,2.65ZM263,262.76c-.78-.87-2-7.72-2.86-13,7.42-4.53,19.51-4.36,28.34.11l0,.14c-1.09,3.19-4,11.7-5.8,13.23-2.12,1.81-18.29.93-19.67-.42Zm-39-3.86a90.92,90.92,0,0,1-4.73-15.64c8.85-3.28,23.62,0,30.88,5.43-1.53,4.14-3.6,11.42-6.2,12.68-3.73,1.84-19.06-.8-20-2.47Z"/><path class="cls-23" d="M176.28,246.6s-25.16-18.25-15.57-37.84c1.84-3.76,2-2.53,2.15-5.78.57-17-5.39-13,19.57-32.91s28.63-19.59,66.74-16.75c19.65,1.47,30.41,9.68,35.78,22.13a60.21,60.21,0,0,1,4.29,19.14s-40.16-11.46-64.07,1.44-49,54.87-43.91,68.33C182.69,268.14,176.28,246.6,176.28,246.6Z"/><path class="cls-15" d="M160.77,228s34.08-49.65,79.5-51.16c0,0-56.11-6-80.94,34.07l-.37,4.71a25.61,25.61,0,0,0,.82,8.72Z"/><path class="cls-4" d="M688.94,407.89c5.28,3.86,10,5.48,12.8,15.51l8.09,61.91c-3.05,1.92-2.24,4.79-4.48,7.61-4.87,6.09-2.55,11.5-4,19.13-1,5.31,2.19,18.58-4.11,22.08-21.74,1.79-24.78-33.47-27.6-46.44l.77-4.3c.65-9.22,1.67-18.42,3-27.58,2.81-19.44.53-36.43,4.69-55.62Z"/><path class="cls-9" d="M707.8,460.17c-3.33,1.33-6.67,2.67-10.09,3.74-3.64,1.14-5,12.83-8.78,13.25s-20.72,5.22-24.52,5.2l7.6-96.51,22.15,13.75c5.66,3.5,14.74,16.69,15.05,23.34l4,35.09C710.46,458.94,710.51,459.09,707.8,460.17Z"/><path class="cls-9" d="M698.22,429.32s-.57,47.33-3,54.16c-2.62,7.29-7.11,12.74-14.3,17.59S669.42,521.9,667.61,526s-2.12,35.13-1,49.72-41.13-47.94-41.13-47.94l39-45.41Z"/><path class="cls-9" d="M661.44,545.35s-20.38,22-58.4,19.72-45.77-44.28-45.77-44.28-44.84,34.18-44.8,104.5c0,15.17,15.52,213.43,15.52,213.43S554.9,858,613.27,849.44s48.86-9.84,48.86-9.84,10.48-156.9,10.49-186.39-5.92-75.91-5.92-75.91"/><path class="cls-24" d="M699.62,931v81.6c0,8.37,6.24,14.78,13.15,13.51l41.92-7.69c5.57-1,9.69-6.76,9.69-13.51V938.73c0-6.75-4.12-12.49-9.69-13.52l-41.92-7.69C705.86,916.25,699.62,922.66,699.62,931Z"/><path class="cls-25" d="M762.79,1011.9s-18.88-2.12-21.32-9.78S740,971.84,740,971.84s-1.12-30.32,2.46-33c5.22-3.92,20.88-5,20.88-5"/><path class="cls-24" d="M763.33,1011.9s15.66-1.12,20.89-5c3.57-2.68,2.45-33,2.45-33s1-22.62-1.48-30.28-21.32-9.78-21.32-9.78"/><rect class="cls-26" x="775.71" y="968.69" width="22.29" height="6.28" rx="3.14" transform="translate(-184.98 1758.7) rotate(-90)"/><path class="cls-27" d="M698.8,422.07c-2.26,5.3-1.77,11.46-1.85,17.1l-.3,20.09c0,1.65,0,3.3-.07,5,0,.35,2.25,0,2.26-.61q.23-15.89.47-31.78A26.85,26.85,0,0,1,701,421.67c.16-.36-2-.18-2.22.4Z"/><path class="cls-4" d="M558.06,523.12l-.79-2.33-1.53-7.68,25.94-76.42-6.52-52.27s-12.33-4.77-22,15.94c-7.12,17.84-21.27,68.29-27.15,95.52h0s-5.38,14-1.48,25.78h0c5.19,22.17,27.55,78.82,27.55,78.82l14.2-.79-3.55-54.58A86.71,86.71,0,0,0,558.06,523.12Z"/><path class="cls-9" d="M587.71,376.83s-19.21.39-28.93,14.52S541,420.47,541,420.47,578,441.22,586.3,443c0,0,10-16.93,13.33-32.44S587.71,376.83,587.71,376.83Z"/><path class="cls-27" d="M589.26,386c4.16,3.57,6.78,9.34,7.51,14.68.81,5.95-1,11.56-2.58,17.23s-3.14,11.25-4.77,16.85q-1.27,4.4-2.59,8.78l2-.63-4.35-.95a2.46,2.46,0,0,0-1.57.29c-.18.09-.79.48-.28.59l4.35.95c.44.09,1.87-.08,2-.64q3.63-12,6.94-24.1c1.56-5.64,3.61-11.38,3.21-17.31A25.2,25.2,0,0,0,595.3,390a21.35,21.35,0,0,0-3.92-4.76c-.46-.39-2.47.47-2.12.77Z"/><path class="cls-28" d="M252.39,285.53c-5.29-.24-17.13,3.08-19.59,5.42,0,0,5.81,5.26,18.07,5.82s14.52-4.34,14.52-4.34S259.12,285.83,252.39,285.53Z"/><path class="cls-29" d="M237.9,288.47s6.33-.32,11.35-.1,11.27,1.12,11.27,1.12,1-4.44-8.09-4.85S237.9,288.47,237.9,288.47Z"/><path class="cls-30" d="M251,294.79c-5.7-1.23-11.45-4-18.17-3.84,0,0,1.47,9.25,15.88,9.9s16.71-8.42,16.71-8.42C258.72,291.63,256.76,294.08,251,294.79Z"/><path class="cls-30" d="M258.81,282.4c-3-.4-5,.88-6.31.82s-3.18-1.52-6.22-1.39c-2.84.12-15.22,7.86-13.93,9s10.87-4.52,20-4.11,12.11,6.64,13.5,5.62S261.64,282.78,258.81,282.4Z"/><path class="cls-31" d="M289.89,514a25.05,25.05,0,0,0,.37,8.21Z"/><g id="freepik--character-1--inject-1332-2" data-name="freepik--character-1--inject-1332"><path class="cls-32" d="M326.64,594C322.56,559,316,517.21,316,517.21l1.77-16.77-.57-55.88c3.35-15.73,3.71-27.25-.21-33.68l-36.4-72.34L251.42,325c1.29,2.39,10,19.92-14,25.87h-5.88c-30.74-1.79-48.43-31.28-48.43-31.28L131.6,344.91l1.82,137.18s-20.34,64.16-22,93.27,3.16,120.5,3.16,120.5l81.36,14.52a138.46,138.46,0,0,0,24.38,2.16h9a131.1,131.1,0,0,0,22.21-1.89l67.71-11.6S330.72,629,326.64,594Z"/></g><path class="cls-10" d="M177.11,550.21l-15.28-6.55s7.84-1.21,6.86-5.25c0,0-20.46-6.77-22.33-6s-9,3.35-9,3.35a68.42,68.42,0,0,1-7,6,16.67,16.67,0,0,1-8.06,3.41,13,13,0,0,1-4-.94L87.29,464S60.9,479,59.93,479.66s19,59.28,44.69,85.24l.2-.07c1.09,1.56,4.88,6.77,7.84,8,10.52,4.45,25.73-5.58,25.73-5.58l5.17-.38s18.47,5.65,20.8-.11l.39-1.67-18-6.55-7.09-.61,12.91-1.54s17.54,3.54,19.26,3.47,4.12-2.17,3.78-3.79l-2.27-2S176.65,552.86,177.11,550.21Z"/><path class="cls-17" d="M174.15,554.79a6.05,6.05,0,0,1-1.45-.59l-3.88-1.76c-3.33-1.43-7.94-3.33-13-5.33a11.44,11.44,0,0,0-1.86-.66,5,5,0,0,0-1.83-.27c-1.22.17-2.48.39-3.62.64-2.31.46-4.38.95-6.18,1.42a35.22,35.22,0,0,0-4,1.36,15.31,15.31,0,0,1-1.46.58,3.87,3.87,0,0,1,1.31-.86,25.42,25.42,0,0,1,4-1.61,51.35,51.35,0,0,1,6.21-1.64c1.17-.24,2.37-.51,3.69-.7a6.63,6.63,0,0,1,2.08.15,14.64,14.64,0,0,1,2,.71c5.1,2,9.71,4,13,5.57,1.61.79,2.81,1.44,3.79,2A6.67,6.67,0,0,1,174.15,554.79Z"/><path class="cls-17" d="M161.83,544.1a29.9,29.9,0,0,0-3.3-1.83,19.15,19.15,0,0,0-17.32.08c-2.05,1-3.25,2-3.24,1.89a9.29,9.29,0,0,1,3-2.4,17.67,17.67,0,0,1,17.73-.09A9.52,9.52,0,0,1,161.83,544.1Z"/><path class="cls-32" d="M172.42,324.5l-34.45,12C115.88,349.21,44.62,445,49.05,466.71c5.05,24.72,37.86,94.5,37.86,94.5s40.83-17.66,37.05-33.93-18.88-58.78-18.88-58.78,57.24-53.86,62.55-63.26C174,393.91,214.44,326.31,172.42,324.5Z"/><path class="cls-33" d="M157.92,345.23a32.08,32.08,0,0,1,10,9.2,37.41,37.41,0,0,1,6.49,28.8c-1.72,9.18-6.9,17.63-12.21,25.16a196.36,196.36,0,0,1-18.58,22.24c-3.62,3.8-7.34,7.55-11.25,11.06-.58.51.78.45,1.09.18,3.23-2.9,6.32-6,9.35-9.09A209,209,0,0,0,161.61,411c5.69-7.69,11.19-16.19,13.65-25.54a37.83,37.83,0,0,0-4.3-29,37,37,0,0,0-7.09-8.35,22.09,22.09,0,0,0-4.61-3.37l-.24-.13c-.36-.2-1.63.34-1.1.63Z"/><path class="cls-33" d="M117.7,542.21a27.47,27.47,0,0,0,5.69-3,16.36,16.36,0,0,0,3.74-3.35c.46-.59,1-1.1.8-1.83-.49-1.78-1.25-3.53-1.86-5.26l-2.69-7.6-1.63-4.61c-.19-.54-1.56-.15-1.38.36l3.68,10.41,2.14,6.06c.11.3.5,1,.46,1.28s-.83,1.13-1.08,1.42a14.33,14.33,0,0,1-1.92,1.81,25.25,25.25,0,0,1-6.52,3.67c-.89.34-.09.91.57.66Z"/><path class="cls-32" d="M318.3,393.4,353,486c5.88,12.48,8.87,25.29-3.78,30.82l4.9-3.6c-9,10.51-29.37,13.89-35.6,3L266,418.46Z"/><path class="cls-32" d="M254.86,328.52s40.14,11.35,46.52,24.93c9.69,20.63,18.15,43.33,18.15,43.33l-23.94,17.41Z"/><path class="cls-10" d="M415.69,551.36s27,13.13,30.09,14.89c2.73,1.56,17.59,25,21.82,31.35h0a7.27,7.27,0,0,1-9-1.05C453.08,591,443,580,443,580a23.84,23.84,0,0,0-2.21,4c-.88,6.56-4.62,9.67-4.62,9.67s-2.91.35-6.32,3.94-6.39-2.92-6.39-2.92-.2,2.33-5.35,2.92-3.71-8.82-3.71-8.82-.25,1-8.92-5.16-9.6-18.73-9.6-18.73l-21.84-14,18.68-22.26Z"/><path class="cls-17" d="M410.24,562.16a6.55,6.55,0,0,0-.34,2.33,15,15,0,0,0,1.17,6.24,12.92,12.92,0,0,0,6.12,6.7,13.3,13.3,0,0,0,11.18.22l-.72-.72a24.23,24.23,0,0,0-1.1,6.65,23.18,23.18,0,0,0,.22,3.84,5.12,5.12,0,0,0,.61,1.93,1.8,1.8,0,0,0,2,.94,2.91,2.91,0,0,0,1.65-1.38c.37-.56.61-1.08.89-1.59l1.59-3c2-4,4-7.39,5.4-10.56a8.29,8.29,0,0,0,.91-3.92,6.28,6.28,0,0,0-1-3.25,7.31,7.31,0,0,0-2.21-2.14c-.07.12,1,.94,1.84,2.43a6.21,6.21,0,0,1,.77,3,7.83,7.83,0,0,1-1,3.53c-1.41,3-3.49,6.44-5.57,10.35l-1.63,3c-.54,1-1.11,2.19-1.77,2.33s-1.16-.84-1.27-1.94a21.73,21.73,0,0,1-.21-3.63,23.58,23.58,0,0,1,1-6.28l.36-1.21-1.08.48a12.55,12.55,0,0,1-10.36-.07,12.39,12.39,0,0,1-5.9-6.1,16,16,0,0,1-1.44-5.9C410.23,563,410.32,562.17,410.24,562.16Z"/><path class="cls-17" d="M427.05,583.49c.12-.06-.5-1.15-2.24-1.32a4.1,4.1,0,0,0-2.93.94,5.66,5.66,0,0,0-1.84,3.57A8.41,8.41,0,0,0,422,593c1,1.27,1.74,1.9,1.86,1.8s-.39-1-1.19-2.34a8.93,8.93,0,0,1-1.46-5.7,4.64,4.64,0,0,1,1.35-2.8,3.57,3.57,0,0,1,2.23-.94C426.18,583,426.94,583.66,427.05,583.49Z"/><path class="cls-17" d="M428.7,589.61c-.28.15.65,2.33,3,3.55s4.6.73,4.55.41-2-.44-4-1.54S429,589.39,428.7,589.61Z"/><path class="cls-17" d="M434,581.67c-.25.16.45,2.26,2.43,3.35s4,.5,3.92.19-1.67-.34-3.39-1.33S434.28,581.44,434,581.67Z"/><path class="cls-17" d="M420.74,588.57c.12-.11,0-.64-.49-1.38a4.26,4.26,0,0,0-2.74-2.08,2.75,2.75,0,0,0-3.2,1.86c-.33,1.08.16,1.66.27,1.56s.08-.61.46-1.23a2,2,0,0,1,2.21-1,5,5,0,0,1,2.38,1.46C420.2,588.34,420.61,588.68,420.74,588.57Z"/><path class="cls-32" d="M351.53,481.63c-11.62-3.17-23.73-4.82-33.13,4.81-7.3,7.48-10.8,21.12-13.08,31.68C330.71,538,379,573.49,379,573.49l27.94-34.17Z"/><path class="cls-33" d="M104.55,468.53a21.53,21.53,0,0,0-20.84.84.41.41,0,0,0-.08.69c.27.23.74.07,1-.08a19.62,19.62,0,0,1,18.87-.67c.51.27,1.73-.44,1.06-.78Z"/></g><g id="Layer_9" data-name="Layer 9"><rect class="cls-34" x="843.32" y="926.72" width="129.7" height="43.28"/><rect class="cls-3" x="1224.48" y="54.17" width="26.63" height="922.8"/><rect class="cls-3" x="821.64" y="48.58" width="429.47" height="22.84"/><polygon class="cls-35" points="998.01 41.36 1229.99 72.53 1229.99 976.98 998.01 1010.71 998.01 41.36"/><rect class="cls-36" x="973.03" y="41.32" width="24.98" height="968.57"/><path class="cls-37" d="M1036,523.81H1076c2.65,0,4.8,3.23,4.8,7.22h0c0,4-2.15,7.21-4.8,7.21H1036c-2.65,0-4.8-3.23-4.8-7.21h0C1031.17,527,1033.32,523.81,1036,523.81Z"/><path class="cls-37" d="M1035.88,539.64c-.29,0-.59,0-.88-.06a5.77,5.77,0,0,1-4.6-3.17,11.21,11.21,0,0,1-1-4,13.46,13.46,0,0,1,.29-4.79,6.49,6.49,0,0,1,4.63-4.56c.44-.14,5.94-.88,5.94-.47V496.74c0-7.5-4.21-13.58-9.4-13.58h0c-5.19,0-9.4,6.08-9.4,13.58v93.63c0,7.5,4.21,13.58,9.4,13.58h0c5.19,0,9.4-6.08,9.4-13.58V546c0-2.18,0-4.37,0-6.56C1038.79,539.41,1037.33,539.67,1035.88,539.64ZM1033,578.35v5.31c0,1.15-.65,2.08-1.45,2.08s-1.42-.94-1.42-2.08v-5.31a5.09,5.09,0,0,1-1.84-4.27c0-2.54,1.49-4.55,3.24-4.5s3.15,2.16,3.11,4.7A5.23,5.23,0,0,1,1033,578.35Z"/><rect class="cls-37" x="981.23" y="492.06" width="9.71" height="99.18"/><path class="cls-13" d="M1033,578.35v5.31c0,1.15-.65,2.08-1.45,2.08s-1.42-.94-1.42-2.08v-5.31a5.09,5.09,0,0,1-1.84-4.27c0-2.54,1.49-4.55,3.24-4.5s3.15,2.16,3.11,4.7A5.23,5.23,0,0,1,1033,578.35Z"/><line class="cls-38" x1="821.64" y1="48.58" x2="843.32" y2="71.42"/><line class="cls-38" x1="1251.11" y1="48.58" x2="1229.62" y2="72.85"/><path class="cls-24" d="M839.94,971s-.08-.28-.27-.76l-.15-.38c-1.42-3.57-6.67-14.72-18.57-21.09-12.11-6.47-21.73-8.74-57.91-13.41v3.9c24.58,1.08,61.86,6.14,71.3,26.41.53,1.33,3.82,10.06.79,16.25-.17.33-.34.66-.53,1l0,0h0c-11.45,18.62-49.05,23.08-72.23,24v3.33c38.24-1.88,45.5-5.66,58.48-11.09,9-3.79,14.14-11.09,16.76-16.25h0S841.8,976.81,839.94,971Z"/></g><g id="Layer_11" data-name="Layer 11"><path class="cls-17" d="M630.74,364.38c10,3.47,26.65,1.41,37-.8,0,0-17.41,13.48-38.15,4.56Z"/><path class="cls-2" d="M643.91,272.67a24.8,24.8,0,0,0-8.07,1.58,21.88,21.88,0,0,0-2.37,1,28.68,28.68,0,0,0-17.12,22.36c-.6,4.69-.36,10.28-4.32,13.05s-10.14,1.16-13.95,4c-4.48,3.37-2.8,10.36-5.21,15.32-2.5,4.74-8.36,6.88-13.84,5.06a48.56,48.56,0,0,0,20.22,14.18l7.75-6a7.44,7.44,0,0,0-1.5,9.48,19,19,0,0,0,8.16,7.31c7.66,3.54,26.47,5.32,51.18,4.17q-6.52-45.58-13-91.19"/><path class="cls-2" d="M724.77,326.65c-.42-3.5-1.68-7-1.72-10.46-.12-7.55,5.31-14.73,3-22-1.66-5.22-6.79-8.78-11.77-11.57s-10.41-5.42-13.58-10c-2.34-3.35-3.19-7.43-5.53-10.8-3.3-4.82-9.11-7.54-14.83-9.24-5.85-1.94-11.38-4.19-17.35-3.2s-11.68,6.55-14.11,11.83c-1,2.59-1.28,5.49-2.73,7.86-1.61,2.62-4.47,4.27-6.52,6.59a14.16,14.16,0,0,0,.16,18.09l30.31,59.1c7.94,5.07,29.5,6.28,37.42,1.89S725.82,335.48,724.77,326.65Z"/><path class="cls-10" d="M703.24,337.22l-.1-.69c-1.29-2.49-4.57-4.83-7.3-2.85-1,.93-2.41,1.9-3.44,2.84-1.1,1.1-3,3.44-4.41,4.23,0,0,.81-15.45,2.31-18.53s14.59-5.92,10.85-12.75c0,0-3.44-8.32-4.81-13-.48-.59-1-1.17-1.49-1.73a6.45,6.45,0,0,1-1-.29c.06-.13.22-.22.36-.42l-.18-.19a7.46,7.46,0,0,1-2.14-.79c.25-.09.68-.11.75-.27a10.6,10.6,0,0,1-2.17-.91c.25-.09.75-.27.82-.44-1-.05-1.45-.6-2.17-.91a1.3,1.3,0,0,0,.64-.51,5.21,5.21,0,0,1-2.24-.74c.25-.09.57-.35.82-.44-1,0-1.45-.6-2.17-.91-.17-.07.41-.17.54-.31l-.07,0a7.88,7.88,0,0,1-1.78-.57c.06-.15.39-.18.52-.3l-.11-.08a6.71,6.71,0,0,1-2.19-.95l.38-.21-.3-.18a3,3,0,0,1-1.57-.63l.32-.12-.59-.33a3.49,3.49,0,0,1-1.94-.86.45.45,0,0,0,.28-.05L679,283a8.16,8.16,0,0,1-1.54-.6l.18-.09-.91-.44a3.22,3.22,0,0,1-1.66-.76c-1.11-.5-2.22-1-3.34-1.41-8.4-3.32-17.89-6.38-26.71-2.87a87.24,87.24,0,0,0-10.58,11c-5.8,7.07-11.2,19.86-12.13,22.6-.8,2.37-4.08,6.24-5.36,8.52-6.95,12.35-2.38,29.82,4.69,41.25,2.82,4.56,6.74,4.93,10.95,6.05,8.6,2.31,22.89,2.48,33.07-1.75l12.59-5.67,2.13-2.35c-.49,5.91,8,5.52,11.55-1.29C699.7,351.14,704.44,342.13,703.24,337.22Z"/><path class="cls-18" d="M634.9,333.71a5.3,5.3,0,0,0,4.41,1.35c.33-.06,1.18.43.71.52a7.46,7.46,0,0,1-6-1.93c-.13-.13-.06-.24.16-.22a1.17,1.17,0,0,1,.68.28"/><path class="cls-18" d="M640.68,335.44a8.69,8.69,0,0,1,2.89.36.77.77,0,0,1,.36.28c.05.09,0,.19-.09.2a3.15,3.15,0,0,1-1.57-.22.61.61,0,0,1-.39-.34c0-.14.14-.16.26-.12a2.54,2.54,0,0,0,1.27.18c.1.16.19.32.28.48a7.59,7.59,0,0,0-2.58-.32.58.58,0,0,1-.47-.23c-.08-.09-.13-.25,0-.27"/><path class="cls-18" d="M644.28,336.91a4,4,0,0,0,3.32-.17c1.23-.86,1.2-3.08.14-4.31-.12-.14,0-.21.15-.19a1,1,0,0,1,.54.33,3.94,3.94,0,0,1,.51,4c-.55.95-1.84,1.28-3.23,1.09a6.28,6.28,0,0,1-1.25-.29c-.16-.05-.43-.21-.47-.36s.13-.15.29-.09"/><path class="cls-18" d="M633.13,332.47a.15.15,0,0,0-.06-.25,1.37,1.37,0,0,1-.74-.56l-.41.22a4.12,4.12,0,0,1,1.47,1.19.34.34,0,0,0,.37.08c.08,0,.21-.13.13-.23"/><path class="cls-18" d="M633.89,332.92a4.67,4.67,0,0,0-1.65-1.33.38.38,0,0,0-.33,0c-.08,0-.13.13-.07.21"/><path class="cls-18" d="M630.85,331.78a2.36,2.36,0,0,1-1.4-1.93,3.06,3.06,0,0,1,2-3,.13.13,0,0,0,0-.24.48.48,0,0,0-.42,0,3.46,3.46,0,0,0-2.17,2.35,2.54,2.54,0,0,0,.86,2.61,3,3,0,0,0,.72.44.43.43,0,0,0,.41,0c.09-.11,0-.19-.08-.23"/><path d="M688.36,344.72a42.6,42.6,0,0,1,5.73-4.47,13.81,13.81,0,0,1,3.54-1.72,3.9,3.9,0,0,1,1.43-.15l.17,0a3.81,3.81,0,0,1,.1.78,9.8,9.8,0,0,1-2.24,6.32.93.93,0,0,0,.66-.12,10.07,10.07,0,0,0,2.25-6.22c0-.37.07-.94-.34-1a4,4,0,0,0-1.71.12,13.11,13.11,0,0,0-3.5,1.46,40.13,40.13,0,0,0-6.69,5.06c-.12.12.48.05.6-.06Z"/><path class="cls-2" d="M626.15,297.2c4.63-1.76,7.67-2,15.8-1.43l0,.18c.18,1,.08.45.25,1.48l.39,2.34c-2.66-.22-4.61-.62-6.3-.62-3.21,0-6.91-.36-10,.54Q626.24,298.45,626.15,297.2Z"/><path class="cls-2" d="M662.45,305.25l-.91,1.2-1.43,1.89c2.46,1,4.37,1.59,5.87,2.37,3,1.57,6.63,3,9,5.45,1.13,1.17,2.72,2.88,2.77,4.7,0,.48-.35,1.92.32,2.08.28.06.71-1.21.76-1.34.87-2.57-.28-4.79-2.1-7-3.72-4.41-6.09-6-14.17-9.53"/><path d="M687.54,345.85c.49.21,1.36.59,1.26,1.27a3,3,0,0,1-1,1.4c-.89.91-2.24,2-2.09,3.42.2,1.85,2.27,1.26,3.37.62a8.21,8.21,0,0,0,3.52-4c.65-1.74,1.39-4.39-.06-5.92-.22-.23-.85,0-.61.3,1.27,1.33.69,3.61.16,5.15a7.64,7.64,0,0,1-3,3.9,3.13,3.13,0,0,1-2.14.73c-.56-.14-.64-.93-.53-1.4.29-1.27,1.61-2.12,2.42-3.06a1.92,1.92,0,0,0,.62-1.48c-.14-.72-1-1.1-1.56-1.36-.29-.12-.77.3-.37.47Z"/><path class="cls-2" d="M632.29,306.05a3.06,3.06,0,0,0-3.22-.72,2.94,2.94,0,0,0-1.32.9,2.88,2.88,0,0,0-.38,2.74,2.83,2.83,0,0,0,2.74,1.73,3,3,0,0,0,2.75-2.65,2.7,2.7,0,0,0-.57-2"/><path class="cls-2" d="M639.65,313.52s-3.57-6.18-6.14-7.55a11.51,11.51,0,0,0-10.43-.13s6.51-1,9.11.52S639.65,313.52,639.65,313.52Z"/><path class="cls-2" d="M662.77,319a3,3,0,0,1,2.77,1.78,2.81,2.81,0,0,1,.3,1.57,2.91,2.91,0,0,1-1.69,2.19,2.8,2.8,0,0,1-3.16-.72,3,3,0,0,1,0-3.82,2.67,2.67,0,0,1,1.82-1"/><path class="cls-2" d="M654.72,319.91s7.26-1.64,10.23-.72c5.36,1.66,9,6.52,9.65,9,0,0-5.85-6.88-8.93-7.77S654.72,319.91,654.72,319.91Z"/><path class="cls-2" d="M698.31,278.38c-2.3-2.22-5.66-2.89-8.81-3.36a171.31,171.31,0,0,0-41-1.22c-1,3.09,1.39,6.47,4.34,7.89s6.34,1.52,9.58,2,6.7,1.49,8.62,4.17,1.8,6.8,3.71,9.73c3.27,5.07,11.31,5.13,14.56,10.2,2.43,3.85-.53,8.26-.1,12.84.82,8.91,10.35,13.75,19.23,13a15.34,15.34,0,0,0,2.14-.32c-2.8-16-5.67-29.6-8.49-45.59C701.44,284.32,700.74,280.74,698.31,278.38Z"/><path class="cls-2" d="M721,353.27a3.42,3.42,0,0,1,.13-.34.83.83,0,0,1,.33-.42c2.45-4,6.66-8.66,8.62-13.7,2.74-7.08-6.53-18.7-6.53-18.7L714,344.7s5,16.82,5.57,12.22A10,10,0,0,1,721,353.27Z"/><path class="cls-2" d="M721.23,326.74a6.37,6.37,0,0,0,1.87,2.92,28.53,28.53,0,0,0,3.89,2.76,18.59,18.59,0,0,1,3.92,3,12.83,12.83,0,0,1,2.61,4,10.69,10.69,0,0,1-.25,8.82c-1.29,2.7-3.81,4.12-5.58,5.74a9.42,9.42,0,0,0-2.18,2.69,4.47,4.47,0,0,0-.37,3,5,5,0,0,0,3.71,3.67,4.82,4.82,0,0,0,3.9-1.07,5.14,5.14,0,0,0,1.79-3,3.2,3.2,0,0,1-.12.87,5.17,5.17,0,0,1-5.68,3.57,5.5,5.5,0,0,1-4.11-3.95,4.94,4.94,0,0,1,.37-3.42,9.35,9.35,0,0,1,2.28-2.91c1.84-1.72,4.22-3.1,5.37-5.58a10.09,10.09,0,0,0,.19-8.23,11.79,11.79,0,0,0-2.47-3.77,18.31,18.31,0,0,0-3.76-2.9,26.22,26.22,0,0,1-4-2.86,7,7,0,0,1-2.2-3.62A3.31,3.31,0,0,0,721.23,326.74Z"/><path class="cls-2" d="M582.2,322.77a5.17,5.17,0,0,0-.84,3.38,4.82,4.82,0,0,0,2,3.5,5,5,0,0,0,5.21,0,4.36,4.36,0,0,0,1.87-2.43,9.29,9.29,0,0,0,.35-3.44c-.13-2.4-.93-5.18,0-8a10.73,10.73,0,0,1,6-6.46,12.77,12.77,0,0,1,4.68-1,19,19,0,0,1,4.92.59,26.77,26.77,0,0,0,4.7.76,6.29,6.29,0,0,0,4.14-1.22,7.35,7.35,0,0,0,2.31-3.51,14.91,14.91,0,0,0,.71-4.13,31.31,31.31,0,0,1,.82-8,11.76,11.76,0,0,1,4.05-5.74,15.38,15.38,0,0,1,5.26-2.42,30.63,30.63,0,0,0,4.07-1.42,9.14,9.14,0,0,0,2.86-2.19l-.1.22a3.33,3.33,0,0,1-.43.56,6.84,6.84,0,0,1-2.21,1.67,28,28,0,0,1-4.08,1.57,15.19,15.19,0,0,0-5.05,2.45,11.21,11.21,0,0,0-3.76,5.47,31.45,31.45,0,0,0-.71,7.8,15,15,0,0,1-.72,4.31,8.12,8.12,0,0,1-2.53,3.87,7,7,0,0,1-4.66,1.41,27.52,27.52,0,0,1-4.85-.77,18.38,18.38,0,0,0-4.72-.58,11.67,11.67,0,0,0-4.4,1,10,10,0,0,0-5.64,6c-.93,2.57-.21,5.23-.09,7.75a9.69,9.69,0,0,1-.43,3.67,5,5,0,0,1-2.14,2.69,5.49,5.49,0,0,1-5.69-.07,5.17,5.17,0,0,1-1.55-6.53A2.62,2.62,0,0,1,582.2,322.77Z"/><path class="cls-4" d="M724.48,428l15.68,8.72c-6.33,25.72-13,97.41-43.37,97.41,0,0,1.39-9.25,1.34-9.25-1.28-2,2.65-4.08,1.77-6.32-4.68-11.93-6.2-28.57,1.48-39.42"/><path class="cls-4" d="M728.35,435.37a7.81,7.81,0,0,1-4.69-2.55c-1.08-1.34,0-.36,0-2.06l.67-7.66s.18-7.93,1.07-10.49,7.07-11.43,7.49-11.74,2.3-13.69,4.82-14,4.67.91,4.92,4.33-3.24,11.37-1.46,12a11.19,11.19,0,0,0,4.31.34s-.4-3.89,1.28-5.66,4.57-.47,4.57-.47l.51,1.59,1.48-2.42s0-8,3.18-8.91a13.48,13.48,0,0,1,1.93-5.15,2.87,2.87,0,0,1,4-.57,3,3,0,0,1,.58.59L762.17,401l-10.78,21.92s-6.57,5-8.2,6.37c-.51.44-1.68,3.31-3.08,7.06a38.78,38.78,0,0,1-5.16.26,24.26,24.26,0,0,1-6-.86A.79.79,0,0,0,728.35,435.37Z"/><path class="cls-17" d="M735.44,402.8c-1.32.07-2.39.24-2.48,0s1-.79,2.43-.87,2.57.39,2.51.6S736.77,402.73,735.44,402.8Z"/><path class="cls-17" d="M761.45,398.13c-.18-2.66-.49-6.38-.9-10.67l0-.39-.38-.06a19.36,19.36,0,0,0-2.4-.39,3.62,3.62,0,0,0-2.54,1.07,6.63,6.63,0,0,0-1.72,3.86,20,20,0,0,0-.16,3.79c.17,2.39.48,4.49.75,6.25.57,3.56,1,5.71,1.18,5.67a38.31,38.31,0,0,0-.43-5.76c-.16-1.73-.42-3.88-.53-6.21a19.41,19.41,0,0,1,.22-3.57,5.71,5.71,0,0,1,1.42-3.26,2.47,2.47,0,0,1,1.81-.78,21.94,21.94,0,0,1,2.19.35l-.42-.45c.47,4.27.92,8,1.27,10.62a19.83,19.83,0,0,0,.77,4.19A20.22,20.22,0,0,0,761.45,398.13Z"/><path class="cls-17" d="M743.52,419.65a30.83,30.83,0,0,1,2.82-7.3l0-.09,0-.09a18.22,18.22,0,0,0-.19-3.13c-.18-1.11-.42-2.13-.56-3.27a30.77,30.77,0,0,1-.23-3.46,7.55,7.55,0,0,1,.57-3.42,3.21,3.21,0,0,1,2.14-1.81,5.31,5.31,0,0,1,2.85.13l-.32-.37c.88,5.14,1.67,9.59,2.27,12.74a8.91,8.91,0,0,1,.17,3.67,6.82,6.82,0,0,0-.16,1.35c.07.07.28-.36.5-1.23a8.45,8.45,0,0,0,.12-3.81c-.43-3.19-1.1-7.66-1.92-12.84l-.08-.27-.26-.09a6.07,6.07,0,0,0-3.43-.19,4.18,4.18,0,0,0-2.8,2.35c-1.82,5.3.65,9.94.47,13.68l.06-.19a27.5,27.5,0,0,0-2.55,7.64,10.9,10.9,0,0,0-.13,2.21,5.17,5.17,0,0,0,.14.78C743.13,422.64,743,421.54,743.52,419.65Z"/><path class="cls-17" d="M724.36,423.1s2.76,3.37,8.69,3C733.05,426.09,725.93,428.67,724.36,423.1Z"/><path class="cls-39" d="M708.39,463.91s-19.8,30.63-16.56,45.83"/><polygon class="cls-40" points="799.77 1010.67 800.4 1011.57 799.77 1012.48 800.4 1013.38 799.77 1014.28 800.4 1015.18 799.77 1016.08 800.4 1016.98 799.77 1017.89 800.4 1018.79 799.77 1019.69 800.4 1020.59 799.77 1021.49 800.4 1022.39 799.77 1023.3 800.4 1024.2 799.77 1025.1 800.4 1026 799.77 1026.9 800.4 1027.8 799.77 1028.7 800.4 1029.61 799.77 1030.51 820.23 1030.51 819.6 1029.6 820.23 1028.7 819.6 1027.8 820.23 1026.9 819.6 1026 820.23 1025.09 819.6 1024.19 820.23 1023.29 819.6 1022.39 820.23 1021.49 819.6 1020.59 820.23 1019.68 819.6 1018.78 820.23 1017.88 819.6 1016.98 820.23 1016.08 819.6 1015.18 820.23 1014.27 819.6 1013.37 820.23 1012.47 819.6 1011.57 820.23 1010.67 799.77 1010.67"/><path class="cls-41" d="M817.22,1028.87H802.78a1.07,1.07,0,0,1-1.06-1.06v-14.44a1.06,1.06,0,0,1,1-1.06h14.46a1.07,1.07,0,0,1,1.06,1.06v14.44A1.07,1.07,0,0,1,817.22,1028.87Z"/><path class="cls-40" d="M803.57,1020.59A6.43,6.43,0,1,1,810,1027,6.44,6.44,0,0,1,803.57,1020.59Zm11.07,0a4.64,4.64,0,1,0-4.64,4.64A4.64,4.64,0,0,0,814.64,1020.59Z"/><polygon class="cls-41" points="749.31 987.63 749.94 988.53 749.31 989.43 749.94 990.33 749.31 991.23 749.94 992.14 749.31 993.04 749.94 993.94 749.31 994.84 749.94 995.74 749.31 996.64 749.94 997.55 749.31 998.45 749.94 999.35 749.31 1000.25 749.94 1001.15 749.31 1002.05 749.94 1002.96 749.31 1003.86 749.94 1004.76 749.31 1005.66 749.94 1006.56 749.31 1007.46 769.78 1007.46 769.15 1006.56 769.78 1005.66 769.15 1004.75 769.78 1003.85 769.15 1002.95 769.78 1002.05 769.15 1001.15 769.78 1000.25 769.15 999.34 769.78 998.44 769.15 997.54 769.78 996.64 769.15 995.74 769.78 994.84 769.15 993.93 769.78 993.03 769.15 992.13 769.78 991.23 769.15 990.33 769.78 989.43 769.15 988.53 769.78 987.63 749.31 987.63"/><path class="cls-40" d="M766.77,1005.82H752.33a1.05,1.05,0,0,1-1.06-1.06V990.32a1.05,1.05,0,0,1,1-1.05h14.46a1,1,0,0,1,1.05,1.05v14.44A1.05,1.05,0,0,1,766.77,1005.82Z"/><path class="cls-41" d="M753.11,997.54a6.44,6.44,0,1,1,6.44,6.44A6.45,6.45,0,0,1,753.11,997.54Zm11.08,0a4.65,4.65,0,1,0-4.64,4.65A4.64,4.64,0,0,0,764.19,997.54Z"/><polygon class="cls-40" points="781.48 1007.39 781.7 1008.47 780.76 1009.04 780.97 1010.12 780.03 1010.7 780.24 1011.77 779.3 1012.35 779.52 1013.42 778.58 1014 778.79 1015.08 777.85 1015.65 778.07 1016.73 777.13 1017.3 777.34 1018.38 776.4 1018.95 776.62 1020.03 775.68 1020.6 775.89 1021.68 774.95 1022.25 775.16 1023.33 774.23 1023.9 774.44 1024.98 773.5 1025.55 792.24 1033.79 792.02 1032.71 792.96 1032.13 792.75 1031.06 793.69 1030.48 793.48 1029.4 794.41 1028.83 794.2 1027.75 795.14 1027.18 794.93 1026.1 795.87 1025.53 795.65 1024.45 796.59 1023.88 796.38 1022.8 797.32 1022.23 797.1 1021.15 798.04 1020.58 797.83 1019.5 798.77 1018.93 798.55 1017.85 799.49 1017.28 799.28 1016.2 800.22 1015.63 781.48 1007.39"/><path class="cls-41" d="M790.14,1031.07l-13.22-5.81a1.05,1.05,0,0,1-.54-1.39l5.81-13.22a1.05,1.05,0,0,1,1.37-.55l13.24,5.82a1.05,1.05,0,0,1,.54,1.39l-5.81,13.22A1.05,1.05,0,0,1,790.14,1031.07Z"/><path class="cls-40" d="M781,1018a6.43,6.43,0,1,1,3.3,8.48A6.44,6.44,0,0,1,781,1018Zm10.14,4.46a4.64,4.64,0,1,0-6.12,2.38A4.65,4.65,0,0,0,791.11,1022.46Z"/><path class="cls-10" d="M580,653.49A102.31,102.31,0,0,0,569.32,643l-4.16-13,1.69-6.66,2.18.42s2.4,16.52,5.25,19.33c.26.26.52.5.76.71a3.35,3.35,0,0,0,5.15-.87l-.69-1.62-2.88-24.7s-3.44-10.67-4.56-13.1a63.15,63.15,0,0,0-5.57-7.09L565,579.15l-17.73,7.48c.81,3.45,1.62,9.29,2.76,13.21l-1,27.06,6.1,11.39,7.67,10.05L581,659.18S583.46,657.84,580,653.49Z"/><path class="cls-42" d="M635.17,341.26c4.06,1.31,12.06,7.17,13.25,9.63,0,0-6.13,3.89-15.54.85s-9.47-8.95-9.47-8.95S630,339.59,635.17,341.26Z"/><path class="cls-29" d="M645.27,347.57s-4.68-2-8.53-3.27-8.83-2.35-8.83-2.35.49-3.63,7.48-1.37A18.72,18.72,0,0,1,645.27,347.57Z"/><path class="cls-43" d="M632.87,350.42c4.65.68,10.54-1.58,15.55.47,0,0-4.47,8.33-15.54,4.75s-9.47-12.85-9.47-12.85C628.67,344.08,628.7,348.24,632.87,350.42Z"/><path class="cls-43" d="M631.21,337.09c2.39.54,3.52,2.07,4.53,2.4s2.83-.25,5.08.71,9.27,10.22,8,10.71-6.93-6.48-13.93-8.74-11,1.59-11.77.43S629,336.57,631.21,337.09Z"/><path class="cls-33" d="M300.15,374.69a29.17,29.17,0,0,0-2.5,7.41,5.58,5.58,0,0,0,.41,3.79c1.62,3.56,3.7,6.95,5.61,10.36,6.14,11,12.26,22.14,16.46,34,1.86,5.25,3.49,10.86,3.48,16.48a46.39,46.39,0,0,1-5.29,20.75c-2.34,4.58-5.57,8.88-7.07,13.86-1.4,4.69-.55,9.94,0,14.71,1.24,10.32,3.12,20.59,5.15,30.78,0,.22.08.43.13.64.09.48,1.48.14,1.37-.37-1.8-8.89-3.4-17.84-4.67-26.83-.41-2.89-.78-5.8-1.05-8.71a39.66,39.66,0,0,1-.23-7.14c.49-5,3.45-9.38,5.88-13.68a52.28,52.28,0,0,0,6.69-18.72,41,41,0,0,0-1.47-17.23c-3.47-12.18-9.56-23.59-15.64-34.63-2.28-4.14-4.66-8.22-6.86-12.4a21.79,21.79,0,0,1-1.58-3.35,3.89,3.89,0,0,1-.07-1.86,23.34,23.34,0,0,1,1.39-5.18c.33-.91.7-1.81,1.11-2.69.28-.6-1.09-.44-1.28,0Z"/></g></svg>