<svg xmlns="http://www.w3.org/2000/svg" viewBox="0 0 1303.15 1057.31"><defs><style>.cls-1{fill:#f2ebd1;}.cls-2{fill:#a66f54;}.cls-3{fill:#151312;}.cls-4{fill:#662160;}.cls-5{fill:#0b0c11;}.cls-6{fill:#4f2e25;}.cls-7{fill:#a66e53;}.cls-8{fill:#010101;}.cls-19,.cls-9{fill:none;stroke-miterlimit:10;}.cls-9{stroke:#4f2e25;stroke-width:2.2px;}.cls-10{fill:#24180f;}.cls-11{fill:#fff;}.cls-12{fill:#65140e;}.cls-13{fill:#ccb631;}.cls-14{fill:#313131;}.cls-15{fill:#a53b23;}.cls-16{fill:#a5a5a5;}.cls-17{fill:#ababab;}.cls-18{fill:#653c29;}.cls-19{stroke:#000;stroke-width:2.02px;}.cls-20{fill:#273339;}.cls-21{fill:#622515;}.cls-22{fill:#443a1a;}</style></defs><g id="Layer_10" data-name="Layer 10"><polyline class="cls-1" points="-39.44 1068.15 -39.44 -83.25 1379.54 -83.25 1379.54 1068.15"/></g><g id="Layer_4" data-name="Layer 4"><path class="cls-2" d="M1173,822c26.57-66.28,10.48-155.48,11.78-198.9-1.17-43.65-32.62-54.83-32.62-54.83l-36.83,76.12-7.19,169.94Z"/></g><g id="Layer_11" data-name="Layer 11"><path class="cls-3" d="M890.86,400.86c6.12-1.85,12.51-4.6,16.47-9.75,2.82-3.69,4.19-8.06,5.15-12.53A8.09,8.09,0,0,0,914,377c6.75-9.18,2.45-24.06,11.05-31.63,7.85-6.89,22.29-1.6,29.87-8.77,5.91-5.6,3.82-13,7.26-18.55s13.89-7.87,19.86-5.1l25.08,85.24c-3.35,24.65-2.86,38.39-12.68,50.37-5.78,6.09,2.38,15.15-1.91,22.33-3.76,7.5-4.74,17.05.23,23.88-29.83-7.48-68-28.87-88.3-51.69l-5.69-6.48c12.4-2,26.51-18.62,26.51-18.62-7.48,5.84-20.47,13.5-29.3,15.22-.29.12-3.24-2.76-3.53-2.92-4.9-2.73-15.27-17.5-21.57-26.95A56.34,56.34,0,0,0,890.86,400.86Z"/><path class="cls-2" d="M988.85,422.43s7.1,45.18-8.37,85.64l-24.11,10.42-2.19,79.91c23.39,2.19,23.07,10.59,62.92,4.9l77-78.38s-15.46-14.28-16.86-20.58c-9.11-41.14,18.08-81.19,18.08-81.19"/><path class="cls-4" d="M1117.9,893.05l-13.46-46.33,26.14-138.85-.11,0c-.76,3.06-5.77,3.5-5.85,0-.18-7.34.74-14.67,3.79-21.4a3,3,0,0,1,5.54,0c.16.38.32.76.46,1.14l24.44-129.84-34.53-24.17L1083,510.58c-6.49,7.56-14.35,22.14-30.93,35.38-18.94,15.12-45.8,25.92-62.73,29.29A16.08,16.08,0,0,1,970.8,564c-10-27,5.15-48.21,9.57-57.72l-12.94,3.13L909.9,525.16S854.76,671,852.61,692.67c-1.5,15.06,25.71,23.56,27.63,125.87.17,9.05-11.91,31.92-15.37,40.34-1.73,4.23-3.62,8.39-5.54,12.54-2.61,14-13.8,34.78-24.49,54.71,15.86,11.57,4,30.74,21.95,38.66,23.28,10.28,57.55,21.84,82.41,27.2,25.29,5.46,70.54-5,96.42-5,24.72,0,49.74-2.76,73.5-9.74a191.63,191.63,0,0,0,22.28-8.06C1124.44,902.19,1117.9,893.06,1117.9,893.05Z"/><path class="cls-2" d="M918,521.8c-13.68,5-37,17.45-49.11,37.23L812.15,682.44c5.35,6,1.82,11.64,4.9,19.06,6.65,16-1.67,26.2-3.39,43.4-1.19,12-10.86,40-16.07,51,49.48,4.21,85-57.49,99-83.51l1-9.69c4.31-20.14,7.81-40.47,10.64-60.89,6-43.36,21.12-75.79,24.06-119.45Z"/><path class="cls-4" d="M839.26,638c6,5.28,12,10.6,18.38,15.41,6.78,5.11.9,30.66,8.52,34.38s39.6,26.46,47.59,29.26L970,508.78l-56.78,12.28c-14.5,3.11-43.42,24-49.05,37.74l-34.7,70.66C834.59,633.44,834.37,633.71,839.26,638Z"/><path class="cls-4" d="M882.44,580.42s-34.21,99.78-34.17,116c.05,17.27,5.39,32.06,16.86,47.62s11,52.45,9.25,62.26-35.26,88.3-40.79,118c-6,32.05,128-82.78,128-82.78l-47.8-124.46Z"/><path class="cls-4" d="M834.34,920.72s43.14,56.52,127.87,51.46,157.54-74.62,157.54-74.62,39.22,114.88,32.42,208.2c-2.46,33.72-22.72,387.12-22.72,387.12s-60,43-190.05,23.89-128.93-21.93-128.93-21.93-3.31-260.5-3.33-326.23,13.21-169.16,13.21-169.16"/><path class="cls-4" d="M1158.85,557.68s20.14,12.15,30,49.08,12.85,79.58,12.85,79.58-83.13,14.69-101.93,12.27c0,0-8.24-43-3.73-78.07S1158.85,557.68,1158.85,557.68Z"/><path class="cls-5" d="M882,564.19c.46,7.34-1.32,14.66-3.65,21.55q-2.74,8.13-5.51,16.26-7.11,20.91-14.21,41.82l-3.42,10c-.32.94,4.52.41,5-.88l9.3-27.36q6.72-19.79,13.44-39.57c2.52-7.45,4.61-15.26,4.11-23.2-.05-.9-5.11,0-5,1.34Z"/><path class="cls-6" d="M1085.28,503.49c-23.09-5-65.57-30.85-82.65-47,0,0,8.61,46.32,78.23,56.77Z"/><path class="cls-3" d="M1153.12,310.88a55.59,55.59,0,0,1,13.55,12.35A53.72,53.72,0,0,1,1170,328c13.07,18.78,15.59,42.09,6.74,62.39-4.28,9.64-11.21,20-6.87,29.86s18,13.94,21.91,23.81c4.63,11.61-6.66,23-7.82,35.22-.72,11.91,8,22.78,20.52,25.64a108.31,108.31,0,0,1-54.94,3.61l-7.84-20.33a16.56,16.56,0,0,1-8.11,19.79c-9.4,5.16-19.67,5-24,4.48-18.68-2.11-56.57-20.5-102.31-51.27L1137.6,302.56"/><path class="cls-3" d="M936.65,320.12c4.86-6.18,11.25-11.3,15.39-17.92C961,288,959,268,971.86,256.76c9.2-8,23.09-8.84,35.8-8.41s26.1,1.72,37.44-3.34c8.35-3.69,14.69-10.46,23-14.18,11.86-5.36,26.08-3.8,38.93-.43,13.4,3.06,26.53,5.19,36.75,14,10.23,9,14.67,26,13.19,38.86-1.09,6.11-3.92,11.94-3.89,18.13,0,6.85,3.56,13.31,4.78,20.1,2.24,14.81-6.49,28.9-21.22,34.27l-126.13,77.49c-21,.47-63.45-22.18-73.45-39.71S924.44,335.72,936.65,320.12Z"/><path class="cls-7" d="M965.42,365.17l1-1.18c5.35-3.26,14.29-3.93,17.22,3,.88,3,2.38,6.4,3.26,9.37.81,3.38,1.75,10.06,3.49,13.16,0,0,16.35-30.35,17-38s-20.93-28.15-5.92-36.84c0,0,16.18-11.85,24.16-19.12,1.6-.56,3.22-1.09,4.85-1.56a14.81,14.81,0,0,0,2.29.65c0-.32-.17-.69-.2-1.22l.58-.16c1.8.81,3.42.73,5,1-.38-.46-1.18-1-1.12-1.39,1.66.66,3.45.53,5.18.79-.37-.46-1.11-1.39-1-1.78,2,1.11,3.45.52,5.18.78a3,3,0,0,1-.62-1.72c1.61,1,3.39.92,5.12,1.18-.37-.46-.68-1.32-1-1.78,2,1.12,3.45.52,5.18.78.4.06-.59-.8-.67-1.23l.18,0a17,17,0,0,0,4.07,1c.05-.35-.54-.8-.65-1.17h.29c2.27,1,3.64.46,5.29.71l-.5-.84h.79a6.72,6.72,0,0,0,3.71.63l-.46-.6,1.51,0a7.91,7.91,0,0,0,4.69.61,1,1,0,0,1-.49-.43l1.68.1a18.32,18.32,0,0,0,3.62.65,3.31,3.31,0,0,1-.25-.39l2.24.22a7.25,7.25,0,0,0,4,.46c2.68.34,5.35.73,8,1.19,19.83,3.39,41.45,8.55,54.19,25.44a195.26,195.26,0,0,1,7.36,33.27c2.87,20.17-1.64,50.78-3,57.07-1.2,5.44.56,16.62.36,22.44-1.06,31.56-30,59.53-56.68,73.14-10.64,5.42-18.53,1.58-27.85-1.14-19-5.57-46.46-21.78-61-41.61l-15-15.41-3.74-16.89c-5.9,11.82-21.59,1.27-20.5-15.82C956.07,395.79,957.46,373.15,965.42,365.17Z"/><path class="cls-8" d="M1102.18,436.83a11.71,11.71,0,0,1-10-2c-.59-.47-2.78-.41-2,.25,3.51,2.78,9.76,3.88,13.72,2.57.4-.14.37-.41-.07-.62a2.62,2.62,0,0,0-1.64-.16"/><path class="cls-8" d="M1089,434.08a18.88,18.88,0,0,0-6-2.36,1.5,1.5,0,0,0-1,.15c-.2.13-.27.33,0,.49a7.2,7.2,0,0,0,3.33,1.24,1.37,1.37,0,0,0,1.11-.25c.23-.24-.1-.47-.38-.51a5.67,5.67,0,0,1-2.68-1l-1.06.64a16.79,16.79,0,0,1,5.4,2.13,1.42,1.42,0,0,0,1.16,0c.25-.1.54-.36.21-.57"/><path class="cls-8" d="M1080.43,433.12c-2.52-.41-5.34-1.88-6.33-3.85-1.49-3,.91-7.31,4.31-8.6.37-.14.23-.41-.11-.53a2.19,2.19,0,0,0-1.39.08c-3,1.12-5.29,4.67-5.24,7.28,0,2.43,2.23,4.44,5.15,5.56a14.16,14.16,0,0,0,2.75.76,1.81,1.81,0,0,0,1.32-.2c.23-.26-.11-.44-.46-.5"/><path class="cls-8" d="M1107,436.27c-.1-.29.18-.44.38-.41a3,3,0,0,0,2.05-.33l.56.87a9.27,9.27,0,0,0-4.15.78.75.75,0,0,1-.79-.23c-.15-.15-.28-.48,0-.6"/><path class="cls-8" d="M1105,436.35a10.27,10.27,0,0,1,4.63-.85.84.84,0,0,1,.64.38.33.33,0,0,1-.08.49"/><path class="cls-8" d="M1112.18,437.34a5.26,5.26,0,0,0,4.8-2.28,6.88,6.88,0,0,0-.88-8c-.2-.22,0-.44.19-.48a1,1,0,0,1,.84.39,7.72,7.72,0,0,1,1.75,6.9,5.61,5.61,0,0,1-4.46,4.2,6.18,6.18,0,0,1-1.87.11c-.25,0-.68-.2-.77-.5s.17-.4.4-.37"/><path d="M986.36,396.88A90.89,90.89,0,0,0,980,380.4a28.06,28.06,0,0,0-5.18-7.36,7.57,7.57,0,0,0-2.89-1.91c-1.25-.34-2,1-2.62,1.9-2.92,4.29-3.5,9.73-3,14.77.06.59,1.55.25,1.49-.4a23.33,23.33,0,0,1,1.69-12.08,11.61,11.61,0,0,1,2.4-3.62l-.88.31c-.32-.05,0,0,0,0s.2.06.46.2a8.68,8.68,0,0,1,2,1.52c3,2.91,5,6.88,6.74,10.66a106.77,106.77,0,0,1,4.65,12.87c.18.6,1.66.2,1.48-.4Z"/><path class="cls-3" d="M1157.81,379.69c-5.94-9.33-11.08-13.76-26.35-23.59l-.28.29c-1.67,1.59-.73.7-2.41,2.31l-3.8,3.67c5,3.15,9.06,5,12.08,7.29,5.72,4.27,12.83,8.55,17.23,14.31C1155.42,382.51,1156.59,381.08,1157.81,379.69Z"/><path class="cls-3" d="M1079.47,349.11c.46,2.26.2,1,.66,3.27.34,1.73.69,3.46,1,5.19-5.94-.31-10.31-1.07-14.08-.94-7.49.24-16.22-.4-23.31,2.19-3.4,1.24-8.25,3.12-10.13,6.72-.5,1-1.15,4.2-2.66,3.87-.61-.14-.26-3.11-.22-3.42.75-6,5.21-9.34,11-11.91,11.75-5.24,18-6.1,37.68-5.37"/><path d="M985.52,398.55c-2.64-.37-5.74.06-5.62,3.35.1,3,1.68,5.75,1.4,8.75-.1,1.06-.76,3-2.1,3-1.61-.05-3-2.65-3.59-3.84a17.25,17.25,0,0,1-1.51-11c.71-3.43,2.14-8.78,6-9.83.92-.25.63-1.32-.29-1.08-3.82,1-5.64,5.13-6.64,8.61a18.62,18.62,0,0,0-.31,10.23c.67,2.65,3.19,9.26,7.11,7.89,3.37-1.17,3-5.37,2.39-8.11a20.16,20.16,0,0,1-1-5.19c.1-2,2-1.86,3.62-1.64.76.11,1.49-1,.5-1.13Z"/><path class="cls-3" d="M1130.41,387.11c2.72-.9,5.52.66,7,2.35a6.39,6.39,0,0,1,1.49,3.24,6.45,6.45,0,0,1-2.45,5.65,6.25,6.25,0,0,1-7.22.14,6.67,6.67,0,0,1-2.17-8.24,6,6,0,0,1,3.39-3.14"/><path class="cls-3" d="M1114,393.61s13.94-7.63,20.42-7.28c9.46.52,17.38,6.84,20,11.83,0,0-11.26-9.37-17.94-9.55C1130.08,388.44,1114,393.61,1114,393.61Z"/><path class="cls-3" d="M1052.24,375.86c-2.34-1.67-5.47-1-7.35.19a6.31,6.31,0,0,0-2.37,2.64,6.48,6.48,0,0,0,.67,6.14,6.3,6.3,0,0,0,6.86,2.27,6.66,6.66,0,0,0,4.5-7.22,6,6,0,0,0-2.31-4"/><path class="cls-3" d="M1077.87,388.34s-11.93-11.52-18.65-13.21c-12.13-3-24.61,2.06-28.81,6,0,0,19.12-6.35,26-4.47C1063,378.47,1077.87,388.34,1077.87,388.34Z"/><path class="cls-3" d="M1042.9,258.82c6.95-1.56,14.12,1,20.66,3.78a383.28,383.28,0,0,1,79.57,45.15c-1.66,7.06-10.14,10.71-17.4,10s-13.84-4.47-20.51-7.36-14.48-4.92-21.24-2-11.31,10.85-18.34,14.23c-12.08,5.88-27.47-3.31-39.52,2.59-9.09,4.5-8.55,16.34-14.67,24.57-11.88,16-35.63,14.2-51.71,2.58a36.72,36.72,0,0,1-3.72-3.09c23.84-27.2,45.06-49.82,68.93-77C1030.06,266.51,1035.54,260.5,1042.9,258.82Z"/><path class="cls-3" d="M913.13,375.24l.15-.79a2.08,2.08,0,0,0-.14-1.18c-.11-10.37-2.68-24.2-.57-36.06,3-16.67,34.06-28.06,34.06-28.06L936.35,367s-29.09,26.21-24.76,16.83A22.22,22.22,0,0,0,913.13,375.24Z"/><path class="cls-3" d="M943.29,324.4a14.12,14.12,0,0,1-6.94,3.39,61.63,61.63,0,0,1-10.6.76,42.18,42.18,0,0,0-11,1.24,28.55,28.55,0,0,0-9.62,4.62,23.91,23.91,0,0,0-9.74,17.1c-.67,6.64,2.5,12.26,4,17.39a20.73,20.73,0,0,1,1,7.65,9.86,9.86,0,0,1-2.81,6.23,11.23,11.23,0,0,1-11.3,2.7,10.7,10.7,0,0,1-6.21-6.55,11.52,11.52,0,0,1,.07-7.77,7.07,7.07,0,0,0-.8,1.8,11.53,11.53,0,0,0,6.7,13.37,12.23,12.23,0,0,0,12.39-2.78,11,11,0,0,0,3.26-6.92,21.48,21.48,0,0,0-1-8.19c-1.53-5.4-4.46-10.79-3.78-16.85a22.42,22.42,0,0,1,9.17-15.87,26.32,26.32,0,0,1,9.05-4.34,41.36,41.36,0,0,1,10.52-1.17,59.72,59.72,0,0,0,10.93-.81A15.58,15.58,0,0,0,945,325,7.64,7.64,0,0,1,943.29,324.4Z"/><path class="cls-3" d="M1212.69,477.7a11.5,11.5,0,0,1-2.32,7.41,10.7,10.7,0,0,1-7.93,4.32,11.22,11.22,0,0,1-9.92-6.05,9.86,9.86,0,0,1-.75-6.79,20.51,20.51,0,0,1,3.32-7c3-4.42,7.76-8.79,9.17-15.32a23.91,23.91,0,0,0-4-19.26,28.85,28.85,0,0,0-7.73-7.37,42.58,42.58,0,0,0-10-4.56,60.63,60.63,0,0,1-9.85-4,14.11,14.11,0,0,1-6.47-7.12,16.49,16.49,0,0,1-.32-9.36,32.49,32.49,0,0,1,3.41-8.69,69.73,69.73,0,0,0,7.66-16.1,26.37,26.37,0,0,0-1.07-15.61,34.1,34.1,0,0,0-7.23-10.71,66.51,66.51,0,0,1-6.1-7.41,19.93,19.93,0,0,1-2.91-7.48l-.08.53a7.48,7.48,0,0,0,.18,1.57,15.33,15.33,0,0,0,2.28,5.73,59.88,59.88,0,0,0,6,7.7,33.94,33.94,0,0,1,6.78,10.53,25,25,0,0,1,.84,14.76,69.54,69.54,0,0,1-7.68,15.68,33.75,33.75,0,0,0-3.62,9.05,18.21,18.21,0,0,0,.35,10.29,15.57,15.57,0,0,0,7.24,8.08,60.43,60.43,0,0,0,10.14,4.14,41.92,41.92,0,0,1,9.65,4.35,26.66,26.66,0,0,1,7.28,6.92,22.43,22.43,0,0,1,3.82,17.93c-1.22,6-5.66,10.19-8.79,14.86a21.54,21.54,0,0,0-3.44,7.49,11,11,0,0,0,1,7.59,12.25,12.25,0,0,0,10.93,6.46,11.51,11.51,0,0,0,10.49-10.65A6.47,6.47,0,0,0,1212.69,477.7Z"/><path class="cls-9" d="M809.41,693.27s17.33,17.52,12.17,53.33"/><path class="cls-10" d="M1092,451.48c-9.58-1.36-31.72,2.61-36.61,6.44a42.46,42.46,0,0,0,31.09,21.31c22.22,3.16,28-12.93,28-12.93S1104.2,453.21,1092,451.48Z"/><path class="cls-11" d="M1065.11,454.29s11.57.52,20.66,1.81,20.34,4,20.34,4,2.61-7.9-13.88-10.24S1065.11,454.29,1065.11,454.29Z"/><path class="cls-12" d="M1087.24,475.26c-10.16-3.24-19.6-16.52-31.86-17.34,0,0,.51,24.26,26.63,28s32.44-19.59,32.44-19.59C1102.45,463.68,1097.9,475,1087.24,475.26Z"/><path class="cls-12" d="M1104.23,446.9c-5.42-1.26-9.25.73-11.64.39s-5.51-3.31-11.06-3.61c-5.21-.28-29.08,11.63-26.93,13.92s20.58-6.33,37.1-4,20.87,14.2,23.58,12.6S1109.31,448.09,1104.23,446.9Z"/><path class="cls-6" d="M1094,341.38s18.11,13.37-1.74,21.86C1092.29,363.24,1103.64,356.3,1094,341.38Z"/><polygon class="cls-7" points="1114.57 568.35 1111.62 593.88 1153.06 590.7 1152.33 570.76 1114.57 568.35"/><path class="cls-7" d="M1163.79,501.61l-6-23.67-9.54-22.16a17.93,17.93,0,0,0-11.91-10h0l-3.25-7.39a4.7,4.7,0,0,0-.61-1,5.4,5.4,0,0,0-6.92-1.36c-6,3.84-2.86,13.77-2.86,13.77l-1.07-1.39a5.44,5.44,0,0,0-1.41-1.29,5.21,5.21,0,0,0-7,1,10.35,10.35,0,0,0-1.66,4.61c-.31,2.26,1.44,7.45,2.93,14.93a142.9,142.9,0,0,1,2.51,22.21l-5.58-10.23c-3.28-5.16-8.76-6.42-11.23-1.41-1.31,2.67-.07,5.08.19,7.54.89,7.21,9.27,24.53,4.18,41.75-2.86,47.15,10.1,56.67,10.1,56.67l36.71-8.66s5.44-12.37,7.66-18.55,7.29-17.77,9.58-24.81a121,121,0,0,0,5.39-28.72c.16-3.42-2.59-14.9-3.07-16,0-.07-2.36-.22-2.44-.23C1161.92,485.8,1163.79,501.61,1163.79,501.61Z"/><path class="cls-6" d="M1175,503.35c.1-3.22-.78-6.58-1.47-9.71-.35-1.62-.73-3.25-1.16-4.85-.21-.81-.24-1.68-1.14-1.86-2.2-.42-4.81-.64-6.32,1.31s-1.79,5.09-1.87,7.58a41.33,41.33,0,0,0,.23,6l1.48-.4-4.38-17.31c-.53-2.1-.92-4.3-1.6-6.34-.6-1.8-1.53-3.55-2.28-5.29-2.41-5.63-4.79-11.27-7.26-16.87a17.44,17.44,0,0,0-4.49-6.15,18.67,18.67,0,0,0-3.41-2.39c-.55-.3-1.11-.57-1.68-.82a17.9,17.9,0,0,1-2.27-.81c-.08-.05,0,.17-.2-.15a4.54,4.54,0,0,1-.36-.81l-1.08-2.47c-.56-1.26-1.08-2.55-1.67-3.8a6.1,6.1,0,0,0-6.67-3.26,7.34,7.34,0,0,0-5.22,4.68,16.38,16.38,0,0,0,0,10.38l1.42-.51c-1.67-2.15-3.46-3.92-6.41-3.76-3.64.2-5.59,3.28-6.09,6.63-.38,2.49.53,5.17,1.1,7.56,1,4.38,2,8.76,2.7,13.21a143,143,0,0,1,1.59,16.78l1.42-.38-4.52-8.28c-1.81-3.31-4.52-7.07-8.79-6.69a6.2,6.2,0,0,0-5.09,4.09,8.6,8.6,0,0,0,0,5.05c.26,1.21.4,2.44.65,3.66,1.06,5.23,2.93,10.28,4.05,15.51,1.75,8.16,2.22,16.61-.11,24.7-.18.63,1.31.44,1.48-.14,3.56-12.32.41-24.53-2.94-36.48a43.56,43.56,0,0,1-1.25-5.4c-.46-3.21-1.8-7.05,1.43-9.38,2.3-1.66,5.2.18,6.82,1.94a16.33,16.33,0,0,1,2.21,3.33l4.75,8.71c.24.43,1.44.11,1.42-.38a139,139,0,0,0-3-24.64c-.68-3.12-1.52-6.2-2.14-9.32-.52-2.68-.42-5.76,1.54-7.92a4.32,4.32,0,0,1,5.49-.37,10.68,10.68,0,0,1,2.38,2.59c.31.4,1.6.08,1.42-.51a17.07,17.07,0,0,1-.52-8.45c.49-2.23,1.93-4.89,4.41-5.29a5,5,0,0,1,5.25,3.26l2,4.6c.27.62.53,1.24.81,1.85s.48.66,1.21.89a17.57,17.57,0,0,1,10.93,9.63c2.42,5.51,4.76,11.05,7.14,16.57.77,1.8,1.71,3.61,2.35,5.46.56,1.65.86,3.43,1.29,5.11l4.69,18.58c.16.62,1.55.23,1.48-.4-.43-3.64-.65-8,.68-11.45a3.65,3.65,0,0,1,1.64-2.19c.82-.36,2.15,0,3,.08.18,0,.73.17.5,0s0,.1,0,.23a12.39,12.39,0,0,0,.38,1.32c.36,1.37.68,2.74,1,4.11.71,3.21,1.68,6.71,1.57,10,0,.71,1.47.46,1.49-.14Z"/><path class="cls-6" d="M1136.75,448.62c1.8,4.82,4.28,11.39,6.55,18.76s3.82,14.14,4.94,19a63.31,63.31,0,0,0,1.93,7.94,6.32,6.32,0,0,0-.13-2.16c-.17-1.38-.5-3.35-.92-5.87a159.46,159.46,0,0,0-4.57-19.18c-2.3-7.43-4.93-14-6.88-18.74-.93-2.37-1.8-4.3-2.42-5.61a17.64,17.64,0,0,0-1.07-2A59.93,59.93,0,0,0,1136.75,448.62Z"/><path class="cls-6" d="M1116.38,488.61c-.37.08,1.26,5.23,2.45,11.7s1.4,11.63,1.75,11.75A44.26,44.26,0,0,0,1116.38,488.61Z"/><path class="cls-6" d="M1134.48,491.2c-.7-4.54-1.91-10.8-3.7-17.67s-3.77-13-5.37-17.44a39.87,39.87,0,0,0-3-7,56.13,56.13,0,0,0,2.08,7.23c1.39,4.43,3.22,10.58,5,17.42s3,13,4.06,17.56a51.86,51.86,0,0,0,1.68,7.31A36.93,36.93,0,0,0,1134.48,491.2Z"/><path class="cls-6" d="M1165.25,513.68a38.88,38.88,0,0,0-1.66-13c-.32.06.38,5.82.37,12.94s-.79,12.76-.44,12.89A35.53,35.53,0,0,0,1165.25,513.68Z"/><path class="cls-2" d="M1152.79,583.29l-41.17,10.59c-1.08.27-3.38,21.46-3.77,23.57-1.86,10-3.18,24-5.16,33.94-4.59,23.13-6,46.48-9,69.88-4.84,37.73-14.7,86.15,12.18,117.65a52.81,52.81,0,0,0,13.2,11.18c8.93,5.31,31.66-.21,39.43-7.06,27.84-24.51,15.86-58.65,6.74-93.13"/><path class="cls-2" d="M841.14,698c5.05,35.31,13,70.61-17.54,91.72-13.52,9.35-36,8.73-46.79-3.86-30.33-35.35-16.73-88.69-6.64-129.18,5.71-22.9,10.8-47.22,18.05-69.66l24.91-88.38,40.92,7.68L847,538.92l-4.22,114.47Z"/><path class="cls-6" d="M1161.32,693.93a344.17,344.17,0,0,1,6.58,38c.69,6.17,1,12.31,1.09,18.51.09,7.06.58,14.12.34,21.18-.26,7.82-1.51,15.64-5.24,22.61-.39.72,1.1.73,1.4.16,6.82-12.73,5.39-27.58,5-41.48-.16-6.24-.25-12.41-.87-18.62-.67-6.74-1.64-13.44-2.78-20.11q-1.76-10.36-4.08-20.62c-.15-.67-1.63-.29-1.48.39Z"/><path class="cls-7" d="M579.28,1044.51a3.89,3.89,0,0,1-.4,2.07c-2.75,5.51-16.51,28.38-18.08,50.77-1.41,20.15-3.5,49.42-4.22,59.56a3.93,3.93,0,0,0,4.24,4.22c3.34-.3,7.83-2.37,10.87-10.25a153.88,153.88,0,0,0,6.29-26.59,4,4,0,0,1,6.63-2.39h0a3.93,3.93,0,0,1,1.26,3.39l-3.36,28.12a4,4,0,0,1-2.68,3.29c-5.38,1.81-18.34,6.93-22.44,15.5a4,4,0,0,0,3.61,5.57l18.21.18a3,3,0,0,0,.73-.06l18.14-3.16a4.11,4.11,0,0,0,1.94-.92l17-14.83a3.93,3.93,0,0,0,1.16-1.73l16.41-48.9a27.46,27.46,0,0,0,1-13.81,379.64,379.64,0,0,1-5.37-39.88c-1.48-26.16-2.16-43-2.44-50.81a4,4,0,0,0-5.07-3.65l-42.84,12.17a4,4,0,0,0-2.88,4.13Z"/><path class="cls-13" d="M613.28,500.66c6.75,4,51.48,38.38,57.52,97.54s-12.17,206.63-12.92,257.74c-.06,59.67,7,89.11,1.21,165.06L655,1092.49l-81.19,4.59S594.31,872,580.2,788.37,613.28,500.66,613.28,500.66Z"/><path class="cls-7" d="M310.31,283c8.49-8.07,34.12-21.57,31.45-26.92s-5.63-5.67-15.32-3.57-25.64,20.95-36.15,16.87c-3.87-1.51-.17-14.36-.17-14.36s10.16-33.76,17.67-48.32,13.09-34.25,7.57-35.6-9.56.32-15.74,12.39S284.3,223.06,281,222.92s-3.4-5,.12-12.12,19.22-48.31,16.28-52.25-8.35-1.64-11.58,2.51c0,0-21.61,53.48-24.13,55.22s-2.69-1.87-.79-9.22c1.55-6,12.35-35.88,15.73-44.22-1.8-2-4.84-4.3-8.14-2.79-5.25,2.41-7.58,11.79-7.58,11.79l-20.28,52.5s-2.54,1.93-3.88-.14,17.49-43.55,13.69-45.41-4.33-5.73-11.32,3.86S223,224.13,217,239.55c-3.42,8.71-22.14,46.41-12.42,59.46l-12.8,27.09c15.65,10.87,39,18.68,54,28.68l10.59-27.28c7.22.69,10.67-.12,19.13-4.44C298.51,311.26,301.83,291.07,310.31,283Z"/><path class="cls-6" d="M273.17,265.15c-14.2-4.71-28.62,4.26-37.73,14.65-1.16,1.33,1.62,1.53,2.38.67,8.17-9.31,20.79-17.81,33.63-13.55,1.08.36,3.4-1.21,1.72-1.77Z"/><path class="cls-14" d="M457.5,152.82c9.79-9.37,23.17-14.29,35.2-8.4,4.26-24.9,31.12-34.86,56-30.74,12.7,2.69,24.67,11,37.5,9.1,8-1.16,14.82-5.94,22.18-9.6,30.7-14.68,68.35,16.6,86.36,45.5s7.07,55.09-10.64,84.13c-8.23,13.51-8.9,21.6-13.57,36.82C666.16,294,652,319.54,649,334.08s16.81,34.2,1.87,32.5l-156.4-50c-24.7.07-38.5-10.08-46.6-33.41-5.16-15.78-2.39-15.92-.28-32.35,2.23-21.6-16.24-41.75-10.83-62.78C439.73,174.79,448.26,162.82,457.5,152.82Z"/><path class="cls-15" d="M437.8,148.06s60.68-16.68,130.54,5.1,96.22,72.32,102.6,106.12-13.34,64.2-13.34,64.2,16.91,8.31,41.27-53.63c35.5-90.29-49.24-165.37-72.39-169.55S489.91,49.3,437.8,148.06Z"/><path class="cls-7" d="M467.4,323.72s-13.14,47-36,83.44c-3.19,5.08-42.32,19.17-42.32,19.17l60.58,77.44c27.64,12.37,78.11,27.83,108.05,23.3l27.38-46.53s-27.77-21.08-27.87-28.15S572.47,395,572.47,395"/><g id="freepik--character-2--inject-1332"><path class="cls-16" d="M416.91,519.6a57.2,57.2,0,0,0-5.12-6.89,30.93,30.93,0,0,1-7.46-18.24c0-3.87,1-7.65,1-11.34a12.06,12.06,0,0,0-3.32-9,7.46,7.46,0,0,0-6.15-2c-1.58.31-2.18,1-2.15,1.09a10.22,10.22,0,0,1,2.23-.4,7.29,7.29,0,0,1,5.21,2.26,11.46,11.46,0,0,1,2.47,8.11c0,3.36-1.06,7.13-1.12,11.31a24.37,24.37,0,0,0,3,11.14,43.82,43.82,0,0,0,5.42,7.75A33.59,33.59,0,0,0,416.91,519.6Z"/><path class="cls-16" d="M439.28,508.05a87.83,87.83,0,0,0-7.72-8.41,54,54,0,0,1-13.77-23,30.27,30.27,0,0,1-.86-7.53,50.08,50.08,0,0,1,.84-7.13,15.48,15.48,0,0,0-1.9-12.42,6.89,6.89,0,0,0-4.48-2.64,6.61,6.61,0,0,0-3.75.47c-2,1-2.23,2.36-2.17,2.32a4.84,4.84,0,0,1,2.4-1.64,6.1,6.1,0,0,1,6.82,2.21,14.6,14.6,0,0,1,1.3,11.38,50.78,50.78,0,0,0-1,7.36,30.38,30.38,0,0,0,.88,8.06,50.86,50.86,0,0,0,14.54,23.42c2.56,2.49,4.7,4.4,6.22,5.68A9.49,9.49,0,0,0,439.28,508.05Z"/></g><path class="cls-13" d="M655.94,738.85A160,160,0,0,0,662,704.06c-1.59-12.34-3.47-24.61-7.28-36.63-6.53-20.57-5-37.48-.28-58.32a21.11,21.11,0,0,1,1.57-4.4l-28.21-92.13-68.31-59.26c2,5.46,15.21,45.33-37.5,50.83,0,0-12.48-1.76-12.52-1.76-64.85-13-105.22-85-105.22-85L269.85,472.16,252.51,750s-76.84,129.38-89.16,190.78-22.94,257.59-22.94,257.59l142.18,22.32q15.81,2.47,31.78,3.71l83.88,6.47A580.43,580.43,0,0,0,468,1232l128.05-5.54s26.34-103.61,28.12-179.24,5.42-149.1,5.42-149.1l-1-25.57a28.71,28.71,0,0,1-2.71-13.86c.93-22.37-2.74-46.33,5-67.86C637.54,772.13,650.33,757.83,655.94,738.85Z"/><path class="cls-13" d="M574.85,469.87s75.08,53.89,82.76,85.72c11.68,48.35,15.62,82.52,15.62,82.52l-58.82,26.7Z"/><path class="cls-6" d="M560.06,438.22s-11.52-4.35-19.26-8.32-21.9-6.3-53.13-46.74c0,0,3,42.59,49.54,60.95,0,0,12,5.13,20.56,4.79Z"/><path class="cls-7" d="M651.87,201.44l.44.52a5.15,5.15,0,0,1-.3-1Zm19.13,10c.21.37.47.73.73,1.11l.11-.38S671.13,211,671,211.44ZM485,378.85c13.43,24.94,35.64,52.71,66,60.17,10.88,2.67,22.9.05,32.32-4.78,14.32-7.34,29.31-14.71,41.26-24.75,11.46-9.64,17.12-16.06,24.67-28.94,7.8-13.32,8.86-17.12,11.42-31.93a148.48,148.48,0,0,1,5.7-22.5c2.59-7,13.85-34.08,19.19-50.35s1.26-51.1,1.26-51.1c.35-4.73-6.46-4.16-7.82-8.43l-1.94-.57a2,2,0,0,1,.44,2.06,15.9,15.9,0,0,1-5.82-5.18l0,.07c-3.3.47-5.81-1.72-7.57-4.65-.13.44.09,1.47.57,1.61a10.1,10.1,0,0,1-7-5c-.13.44.09,1.48,0,1.92a18.37,18.37,0,0,1-5.41-4.59c.27.72,11.68,2.25,11.59,2.56-3-.42,0,1.53-1.76-1.4l-1.91-2.36c-2.55-.28-2.89,1.21-4.3-1.14.36.59.12-5.28,0-4.84-2.91-.86-2.06-.82-4.08-2.86-.13.44-8.76.54-8.89,1-2.42-.71-2.44,1.7-3.85-.65.36.58,2.3-1.34,2.65-.76-3-.41-4.68,1.13-6.43-1.81.35.59-8.13-7.7-8.13-7.7-3-.41-2.81.65-4.7-1.84.7,1.17-13.15-4.79-12.93-3.76-2.41-.71-4.12,2.35-5.65.45-7.3-7.55.94,4.89.94,4.89-2.55-.27.42,3-1,.68-.13.44,0,1.92.45,2.06-3.3.48-6.42-1.41-8.8-4.05.71,1.18.93,2.21,1.28,2.79-2.42-.71-4.48-.84-6.38-3.33-.13.44.44,2.06.93,2.2a10,10,0,0,1-7.47-3.17c-.14.44.57,1.61.92,2.2a7.18,7.18,0,0,1-5.54-2.6l.92,2.2c-1.93-.57-3.64-.11-6.28-1.86-.13.44.71,1.17.57,1.62a18.41,18.41,0,0,1-4.7-1.88c-.13.45,1,1.76.57,1.62-1.93-.57-3.65-.11-5.8-1.72.35.59.57,1.62.92,2.21-1.93-.58-4-.7-5.67-2.16a3.43,3.43,0,0,0,.44,2.06c-1.93-.57-3.64-.12-5.8-1.72-.13.44.57,1.62.93,2.2-1.94-.57-4-.7-5.81-1.71-.13.44.71,1.17,1.06,1.76-1.93-.58-4-.7-6.16-2.31-.26.89.09,1.48,0,1.92-1.45-.43-2.28-1.16-3.73-1.59l-2.69.17c-9.39,6.88-32.67-7.81-32.67-7.81-18.54,7.55-16.6,74.81-18.62,83.38s-7.49,9.51-7.49,9.51c-1.5-3.82-3.61-.07-4-4.05-.53-3.54-1.94-2.68-2.47-6.21-2.25-8.39-12.58-9-19.21-6.17l-1.32,1.19c-10.37,7.85-11.49,41.43-8.73,52.31-3.95,19.35,9.75,34.14,23.09,23.25"/><path d="M595.29,358.54c-4.11.8-9.42-1.24-12.35-4.52-.66-.72-3.45-1-2.54,0,3.88,4.32,11.6,6.9,16.91,5.87.53-.11.55-.48,0-.84a3.26,3.26,0,0,0-2.06-.5"/><path d="M579.15,352.53a23.37,23.37,0,0,0-7.19-4.22,1.82,1.82,0,0,0-1.3,0c-.28.13-.41.39-.16.64a8.81,8.81,0,0,0,4,2.24,1.72,1.72,0,0,0,1.46-.12c.35-.29,0-.66-.38-.76a7,7,0,0,1-3.2-1.81l-1.47.66a21,21,0,0,1,6.42,3.8,1.73,1.73,0,0,0,1.46.27c.34-.09.76-.39.39-.72"/><path d="M568.41,349.71c-3.11-1-6.4-3.46-7.25-6.26-1.28-4.23,2.56-9.21,7.14-10.31.5-.12.37-.51,0-.73a2.71,2.71,0,0,0-1.77-.15c-4,1-7.57,4.92-8,8.4-.44,3.25,1.92,6.31,5.41,8.32a17.88,17.88,0,0,0,3.33,1.51c.48.15,1.37.26,1.71,0s0-.6-.48-.74"/><path d="M601.51,358.66a.43.43,0,0,1,.57-.48,3.79,3.79,0,0,0,2.67-.07l.53,1.26a11.42,11.42,0,0,0-5.43.29.93.93,0,0,1-1-.46c-.15-.22-.25-.68.11-.79"/><path d="M599,358.41a12.68,12.68,0,0,1,6.07-.3,1.06,1.06,0,0,1,.73.62.45.45,0,0,1-.21.63"/><path d="M607.9,361a6.68,6.68,0,0,0,6.56-2.18,9.51,9.51,0,0,0,.52-10.74.39.39,0,0,1,.35-.61,1.27,1.27,0,0,1,1,.67,10.67,10.67,0,0,1,.8,9.49,7.5,7.5,0,0,1-6.53,4.79,7.71,7.71,0,0,1-2.4-.2c-.32-.08-.83-.38-.87-.8s.29-.5.58-.42"/><path d="M646.54,306.49c3.09-.59,6.22,1.56,7.52,3.64a7.92,7.92,0,0,1,.75,3.75,7.31,7.31,0,0,1-3.53,5.88,6.77,6.77,0,0,1-7.84-.91c-2.83-2.5-2.73-6.76-1.06-9.39a6.65,6.65,0,0,1,4.16-3"/><path d="M619.92,308.35s16.11-6.42,23-5.1c10,1.91,20.45,10.87,22.47,16.73,0,0-13.51-12.78-20.62-13.93C638,305,619.92,308.35,619.92,308.35Z"/><path d="M564.88,283.42c-2.28-2.19-6.71-3.08-8.92-2.05a7,7,0,0,0-3,2.57,7.28,7.28,0,0,0-.24,6.85,6.78,6.78,0,0,0,7.07,3.52c3.74-.56,6-4.19,6-7.31,0-.57.83-1.42-1-3.19"/><path d="M579.71,295.62s-12-13.75-19.18-16.11c-10.5-3.45-25-1-29.91,3.06,0,0,19.38-4.2,26.71-1.58C564.34,283.5,579.71,295.62,579.71,295.62Z"/><path class="cls-17" d="M625.69,286.14l1.8,5.93c.45,1.51.92,3,1.38,4.51,4.66-2.78,8.74-4.89,11.84-6.41,6.55-3.21,9.91-4.82,14.11-5.35a39.94,39.94,0,0,1,10,.16,25.54,25.54,0,0,1,5.58,1.11c4.13,1.44,6.34,3.8,6.82,3.39s-1.11-2.56-1.27-2.78a24.09,24.09,0,0,0-10.22-7.87,28.34,28.34,0,0,0-10.58-1.49c-4.26.17-15.44,2.71-29.49,8.8"/><path class="cls-17" d="M596.81,274l-4.76,4-3.63,3c-2.68-5.24-5.18-9.54-7.13-12.74C577.17,261.46,575,258,571.57,255a46.43,46.43,0,0,0-9-6,28.78,28.78,0,0,0-5.57-2.46c-4.44-1.3-7.66-.64-7.88-1.29s2.35-1.5,2.62-1.59a24.45,24.45,0,0,1,13.29-.47,32.13,32.13,0,0,1,10.22,5.2c3.7,2.76,12.3,11.78,21.57,25.6"/><path d="M584.51,375.52c-10.91-3.31-37-4-43.14-1.26a56.51,56.51,0,0,0,34.34,29.29c25.3,7.68,32.93-8.86,32.93-8.86S598.41,379.74,584.51,375.52Z"/><path class="cls-11" d="M553.08,372.72s13.3,2.9,23.66,6,27.63,8.54,27.63,8.54S603.76,379.7,585,374,553.08,372.72,553.08,372.72Z"/><path class="cls-18" d="M573.11,402.81c-11.34-5.28-17.66-25.21-31.74-28.55,0,0-5.38,28.84,24.37,37.87s42.9-17.44,42.9-17.44C595.08,389.64,585.47,404.73,573.11,402.81Z"/><path class="cls-18" d="M599.23,373.58c-6.1-2.36-10.79-1.21-13.5-2s-6-4.39-12.36-5.83c-6-1.34-35.07,5.38-32.86,8.07s24.58-1.94,43.39,3.77,22.38,18.22,25.71,17.21S605,375.78,599.23,373.58Z"/><path class="cls-19" d="M468.33,290.55c-5-28.1-12.7-30-12.7-30s-6.57,4.74-6.71,17.21"/><path class="cls-19" d="M463.81,292c-6.76-2.27-4.41,11.89-7,14.5s-3.29-6.07-1.92-16c0,0,3-13.19,10.12-14.1"/><path class="cls-6" d="M659.84,249.74s-21.74-2-39-5.49-32.27-15.74-32.27-15.74a58.58,58.58,0,0,0,34.37,19.26C645.27,251.53,659.84,249.74,659.84,249.74Z"/><path class="cls-17" d="M681.77,202.73h0c-3-6.92-4.35-13.92-7.65-20.71s-6.48-12.74-10.08-19.2c-.21-.38-5.81-1.73-6-2.1,0-.08-.18-.32-.23-.4s-.23-.41-.35-.61l-.82-1.4c-24.25-17.32-56.17-25.82-87.2-23.06C509.15,140.61,424,193.08,470,254.07c3.12,4.14,1,16.07,5.12,19.81s4.32,3.67,9.49,1.5c5-2.49,5.44-12.93,8.82-17.4,17.25-20.77,28.13-57.35,28.05-84.35,2.1,5.54,25,5.1,29.14,9.31a42.42,42.42,0,0,0,60,.3,65.35,65.35,0,0,0,4.87,9.49c17.22,27.66,43.67,44.92,71.2,33.79C687.71,226.11,683.63,207.12,681.77,202.73Z"/><path class="cls-20" d="M528.63,271.34l.47,9.87c-.23,7.49,1.15,22.86,2.48,27.32,1.89,6.25,38.55,18.76,47.06,16.56s18.61-22.34,21.94-26.73l14.67,5c-.48,6.75-1.52,28.27.53,31.79S635.06,343,637,343.51c1.62.39,3.88.93,6.37,1.42,6.59,1.34,14.73,2.46,17.81.75,4.58-2.53,12.32-15,19.3-26.81l1.11-1.85c.26-.45.51-.75.55-.89h0L683.4,314c-18.56-16.26-47.18-22.49-67.81-14.75l.07.27-14.28-5c-13.32-15.52-40-29.43-62.53-27.28h0l-66-7.24,1.41,5.85Zm89.49,62.27c-1.29-2.2-1-17.39-.39-29.12,17.85-6.42,43.63-.76,60.53,12.68l-.09.28c-3.75,6.35-13.7,23.25-18.21,25.75-5.32,2.93-39.51-6-41.86-9.53Zm-81.69-25.35a196.92,196.92,0,0,1-3.26-35.53c20.37-3.13,50.51,10.32,63.63,25.18-5.08,8.17-12.71,22.82-18.81,24.39-8.78,2.27-40.39-10.09-41.56-14Z"/><path class="cls-21" d="M439.75,259S394,209,423.07,171.28c5.59-7.23,5.48-4.5,7.14-11.4,8.69-36.19-5.84-30.12,56.28-61.77s69.81-29.31,150-6.51c41.37,11.75,60.76,34,66.78,63,2.7,13,2.7,27.4.77,42.78,0,0-80.82-42.1-137.59-25S437.6,268.15,442.6,299.17C444,307.88,439.75,259,439.75,259Z"/><path class="cls-22" d="M653.15,606.74a94,94,0,0,0-8.9,22c-1.42,5.87-.44,10.8.82,16.56,4.13,18.81,8.71,37.51,11.42,56.61a190.6,190.6,0,0,1,2.24,32.62,89,89,0,0,1-7.23,31.82,101,101,0,0,1-16.33,27.22,62.41,62.41,0,0,1-5.94,6.12c-.76.67-1.76,1.26-2.44,2-.93,1-.49,2.93-.49,4.21q0,5.31.07,10.64.12,19.14.16,38.29,0,26.76,0,53.54-.11,29.91-.45,59.83c-.24,19-.56,38.09-1.11,57.13-.44,15.16-1,30.33-2,45.47-.19,2.77-.4,5.54-.65,8.31-.13,1.51,2.83,1.13,3-.21,1.22-13.72,1.77-27.5,2.26-41.25.64-18.37,1-36.74,1.3-55.11q.47-30,.6-60,.14-28,.11-55.91,0-21.49-.13-43,0-6.81-.08-13.61a53.8,53.8,0,0,0,0-7.07c-.18-1.27.2.06-.41,0,.71,0,2.68-2.22,3.14-2.64a84.61,84.61,0,0,0,14.32-17.87,107.5,107.5,0,0,0,13.78-33.44c2-9.72,2-19.85,1.28-29.71-1.43-21-5.82-41.68-10.49-62.15-1.47-6.47-3.17-12.93-4.24-19.49-1.3-8,2.63-16.43,5.87-23.56,1.08-2.38,2.21-4.74,3.46-7,.78-1.45-2.17-1.51-2.79-.36Z"/><path class="cls-13" d="M108,699.69c2-1.05,34.55,4.2,36.52,3,24.62-14.77,33.43-57.5,48.94-81.29,9.74-14.92-11.84-35.85-6.27-52.79,5.63-17.1,9.91-34.6,16.14-51.51a2.38,2.38,0,0,1,1.91-1.61L254.66,346l-67.3-28.49S49.56,582.1,67.6,641.08C74.94,665.09,91.29,689.54,108,699.69Z"/><path class="cls-13" d="M401.32,417.88s-98,1.17-127.47,21.53c-25.64,17.68-77,69-90,82.19-1.73,17.86-2.07,35.84-4.48,53.64-4.21,31.08-16.58,62.3-33.37,88.77-7.38,11.62-27.83,26.67-37.95,35.68,34.42,13.09,50.48-1.58,77.43-13.45,33.88-14.81,100.39-67.45,162.82-110.3,13.92-9.22,35.58-42.22,47.2-54.25C417,505.16,416.33,444.56,401.32,417.88Z"/><path class="cls-22" d="M208.84,496.62a80.93,80.93,0,0,1,.93,18.27,219.5,219.5,0,0,1-2.18,22.61,299.18,299.18,0,0,1-9.17,43c-1.42,4.78-2.85,9.86-5.39,14.2-.73,1.25,2.19,1.06,2.73.15,2.22-3.8,3.57-8.18,4.88-12.35,2-6.39,3.64-12.9,5.1-19.43a279.33,279.33,0,0,0,6.84-46.19c.37-7,.48-14.17-.83-21.07-.21-1.11-3.13-.39-2.91.78Z"/><path class="cls-22" d="M260.15,640.14c10-9.16,19.34-19,28.85-28.62,4.82-4.89,9.65-9.78,14.59-14.56,4.67-4.51,9.5-8.84,14.12-13.4a306.23,306.23,0,0,0,29.91-33.86c8.73-11.62,17.34-24.43,20.75-38.75a52.67,52.67,0,0,0,.7-21,67.71,67.71,0,0,0-7.68-21c-1-1.85-2.1-3.66-3.22-5.45-.72-1.14-3.48,0-2.66,1.3,7.92,12.58,13.06,26.89,10.77,41.9-2.2,14.46-10.42,27.41-18.86,39a294.15,294.15,0,0,1-29,33.76c-4.63,4.68-9.47,9.13-14.25,13.66s-9.35,9.09-13.94,13.73c-9.59,9.68-19,19.56-28.9,28.94q-1.54,1.47-3.11,2.91c-1.45,1.33.83,2.4,1.94,1.38Z"/><path class="cls-6" d="M606.82,272.62s10.62,16.21-7.44,17.51C599.38,290.13,609,286.66,606.82,272.62Z"/><path class="cls-6" d="M620.53,277.05s-16.53,10.13-.75,19C619.78,296.06,612.53,288.81,620.53,277.05Z"/><path class="cls-15" d="M415.76,217.73s80.9-99.22,177.42-94.47c0,0-117.84-22.56-177.48,58l-1.61,9.92a54.41,54.41,0,0,0,.21,18.62Z"/><path class="cls-7" d="M907,410.88,891.83,458l-.18,9.66S880,491.38,876.88,496,849.6,525.6,849.6,525.6l-16.5,60.81-58.19,66.44S809.2,531.22,803.63,512c-.36-5.78,1.85-17.66,4.8-22.58,2.43-4.64,15.45-33.23,15.45-33.23s4.29-39.11,12-35.5a30.83,30.83,0,0,1,5,3.9s-3.68,25.12-1.28,27.36l5.28.7s12.88-32.93,16.35-38.31,7.22-8.18,11.68-5.74c0,0,2.08,3.44,1.39,4.93s-16,37.54-13.84,38.25,3.41-2.64,3.41-2.64,17.52-44.27,19.69-46.14a7.33,7.33,0,0,1,9.83-.54l-7.48,26s9.19-19.74,14.38-20.57A6.12,6.12,0,0,1,907,410.88Z"/><path class="cls-6" d="M842.11,642.56c.42,7.87.46,15.78.38,23.66A329.28,329.28,0,0,1,839,714.31a126.31,126.31,0,0,1-6.34,25.44c-.37,1,2.53.61,2.9-.36,5.77-15.08,7.65-31.67,8.83-47.68,1-13.86,1.26-27.8.94-41.7-.06-2.74-.14-5.49-.28-8.23,0-.93-3-.34-2.9.78Z"/><path class="cls-6" d="M830.54,455.63a22,22,0,0,1,5.4-.87,46.49,46.49,0,0,1,15,1.54,2,2,0,0,0,2-.55.86.86,0,0,0-.38-1.43,51,51,0,0,0-16.21-1.73,27.38,27.38,0,0,0-6.43,1c-.57.18-1.37.68-1.18,1.4s1.16.8,1.72.62Z"/><path class="cls-6" d="M835,491.26a77.3,77.3,0,0,1,10.87-11.85c2.82-2.48,6-4.94,9.51-6.24a52.21,52.21,0,0,1,7-1.61l4.46-.92c1.09-.22,3.16-.32,3.79-1.33a17.52,17.52,0,0,0,1-2.26l1.87-4.29a14.25,14.25,0,0,0,.94-2.16,13,13,0,0,0,.12-1.66c.25-3.09.61-6.18,1.16-9.24.57-3.23,1.17-7.35,3.36-9.94a13.93,13.93,0,0,1,6.1-3.84,16.54,16.54,0,0,1,3.08-.8l-1.23-.33,2.59,18.63.37,2.72c.12.84,3,.2,2.9-.78l-2.58-18.63-.38-2.72c-.06-.43-1-.36-1.23-.33a23.16,23.16,0,0,0-9.29,3.52,11.46,11.46,0,0,0-3.95,4A21.32,21.32,0,0,0,873.7,446a74.22,74.22,0,0,0-1.83,11.08c-.16,1.53,0,3.23-.64,4.64l-3.48,8,1.66-.92c-1.07.16-2.14.4-3.21.62l-5.58,1.17a42,42,0,0,0-6.58,1.66c-7.08,2.74-12.89,8.65-17.8,14.26-1.35,1.55-2.68,3.13-3.9,4.78-.4.54.35.72.75.73a2.57,2.57,0,0,0,1.92-.76Z"/><path class="cls-6" d="M231.45,313.91c4.73,8.56,14.82,11.68,23.64,14.16a3.14,3.14,0,0,0,2-.37c.27-.13,1-.6.35-.78-8.6-2.41-18.51-5.44-23.13-13.79-.4-.73-3.15.32-2.89.78Z"/></g></svg>