<svg xmlns="http://www.w3.org/2000/svg" xmlns:xlink="http://www.w3.org/1999/xlink" viewBox="0 0 1303.15 1057.31"><defs><style>.cls-1,.cls-43,.cls-51{fill:none;}.cls-2,.cls-52{fill:#f2ebd1;}.cls-3{fill:#bb997a;}.cls-4{fill:#956243;}.cls-5{fill:#361b10;}.cls-6{fill:#4c2713;}.cls-7{fill:#753e1a;}.cls-8{fill:#a56530;}.cls-9{fill:#8c542a;}.cls-10,.cls-38{fill:#a99231;}.cls-11{fill:#684134;}.cls-12{fill:#cab0d5;}.cls-13{fill:#151312;}.cls-14{fill:#946343;}.cls-15{fill:#010101;}.cls-16{fill:#221f20;}.cls-17{fill:#cc8d2a;}.cls-18{fill:#653c2b;}.cls-19{fill:#311811;}.cls-20{fill:#f0ecf6;}.cls-21{fill:#714535;}.cls-22{fill:#7c2a17;}.cls-23{fill:#623b16;}.cls-24{fill:#4d2f15;}.cls-25{fill:#656766;}.cls-26{fill:#383838;}.cls-27{fill:#565353;}.cls-28{fill:#87a299;}.cls-29{fill:#4d645c;stroke:#4d645c;}.cls-29,.cls-36,.cls-38,.cls-43,.cls-51,.cls-52,.cls-54{stroke-miterlimit:10;}.cls-30{fill:#513835;}.cls-31{fill:#745245;}.cls-32{fill:#3a3a3a;}.cls-33{fill:#1d1e1e;}.cls-34{fill:#714533;}.cls-35{fill:#664374;}.cls-36{fill:#856292;stroke:#856292;}.cls-37{fill:#ccb631;}.cls-38{stroke:#a99231;}.cls-39{fill:#5e5f5f;}.cls-40{fill:#853324;}.cls-41{fill:#13110f;}.cls-42{fill:#878787;}.cls-43{stroke:#010101;stroke-width:1.12px;}.cls-44{fill:#273339;}.cls-45{fill:#fff;opacity:0.14;}.cls-46{fill:#622515;}.cls-47{fill:#653c29;}.cls-48{fill:#31160e;}.cls-49{fill:#f1eef7;}.cls-50{fill:#9b9a9a;}.cls-51{stroke:#f2ebd1;}.cls-52{stroke:#231f20;stroke-width:1.14px;}.cls-53{fill:#181d1e;}.cls-54,.cls-55{fill:#151210;}.cls-54{stroke:#161311;stroke-width:0.46px;}.cls-56{fill:#161311;}.cls-57{fill:#231f20;}.cls-58{clip-path:url(#clip-path);}</style><clipPath id="clip-path"><rect class="cls-1" y="-1717.69" width="1303.15" height="1052.53"/></clipPath></defs><g id="Layer_1" data-name="Layer 1"><polyline class="cls-2" points="0 1057.31 0 0 1303.15 0 1303.15 1057.31"/><rect class="cls-3" x="1.76" y="952.27" width="1301.38" height="105.04"/><path class="cls-4" d="M380.73,602.2s33.74,0,51.94,27c10.7,15.87,6.95,44.16,7.17,65.58.29,29.12-18.52,234.15-18.52,234.15L384,908.58l-34.29-191,.84-34.17L212.89,672.15s-12.54-41.71,18.3-74.68C235,593.25,380.73,602.2,380.73,602.2Z"/><path class="cls-4" d="M413.06,894.77s33.95,24.78,52.57,43c21.9,21.4.78-1.77.78-1.77s-8.09,20.2-18.81,19.28-69-39-69-39l5-16.47Z"/><polygon class="cls-5" points="403.64 967.77 390.88 970.53 386.96 951.27 398.59 950.72 403.64 967.77"/><polygon class="cls-6" points="386.95 950.72 390.88 970.53 377.05 968.67 377.23 948.13 386.95 950.72"/><path class="cls-5" d="M508,967.25a12.34,12.34,0,0,1-7.16,2.84c-12.75.79-55.06,3.83-63.9,1.88-12.89-2.83-8.93-1.73-23.2-8.79-20.41-10.09-28.4-11.43-33.17-13.53a30.74,30.74,0,0,1-6.1-3.2s-1.15-7.24,2.47-6.94l1.48-10,12.47,13.84,32.82,4.26,18.79,14.76,33.84-.38,26.7-4.39s5.13.4,6.27,1.36,1.84,4,1.08,5.29A9.78,9.78,0,0,1,508,967.25Z"/><path class="cls-7" d="M467.56,935.9s-4.93.19-12.76,7.06-18.8,4-26,.85C418,939,409.43,935.63,399,927.57c-11.61-8.94-17.52-17.74-17.91-19.07a4.29,4.29,0,0,0-1.71-2.16s-3.41,10.33-5.13,15.1-.25,16.29,1.22,19.67,16.43,8,28.15,13.89c14.63,7.35,17.8,7.86,29,12.71,6.87,3,35.19.59,44.15.21s19.73-1.59,23.52-2.16,7.74-5.64,7.74-5.64,2.1-3-4.39-6.68-19.64-8-25.17-10.67A69.19,69.19,0,0,1,467.56,935.9Z"/><path class="cls-8" d="M213.81,683.69q53.83,0,107.67,0c15.44,0,18.3,7.31,18.28,22.28,0,13.76-3.09,21.84-18.71,21.87-3.52,0-7.11.39-10.54-.07-10.33-1.39-12.41,2.43-11.05,10.42,13.21,77.94,26.11,150.55,39.3,228.5.89,5.31.08,7.41-7.06,7.5-17.82.22-18.19.57-20.66-14q-12.63-74.58-24.6-149.24c-1.08-6.77-3.83-8.81-11.86-8.75q-61.21.51-122.45,0c-7.83-.07-10.11,2.32-11.08,8.44-8.37,52.43-17.14,104.82-25.57,157.24-.79,4.89-3.18,6.34-8.85,6.43-18.36.28-18.86.41-16.5-14.29,8.55-53.3,17.44-106.57,26.27-159.84,3.75-22.65,7.49-39.94,11.58-62.55,1.27-7-.21-10.93-9.8-9.6-2.05.29-4.23-.08-6.32.06-27.53,1.95-25.29-17.71-23.69-35.9.62-7.06,7.92-8.72,15.86-8.68,36.6.18,73.19,4.55,109.78,4.55ZM213,784.32c20.38,0,40.77-.16,61.14.1,6.24.07,9-1.07,8-7-3.29-18.19-6.27-23.76-9.1-42-.86-5.53-3.15-7.87-10.54-7.77-32.32.41-64.66.47-97,0-8-.13-10.24,2.44-11.13,8.3-2.72,17.66-5.61,22.64-8.82,40.24-1.11,6.1.52,8.45,8.43,8.28C173.58,784,193.27,784.32,213,784.32Z"/><path class="cls-9" d="M116.48,800.24q-2,12.33-4.09,24.66c8.55,1.68,17,3.66,25.53,5.71q1.61-9.95,3.21-19.91c1-6.12,3.25-8.51,11.08-8.45q61.23.53,122.45,0c8-.07,10.78,2,11.85,8.74q1.55,9.68,3.11,19.33a233.52,233.52,0,0,0,24-10.19c-4.67-26.94-9.34-54.06-14-81.87a15.45,15.45,0,0,1-.05-6.47q-8.37.56-16.76.87-5.13.2-10.28.31a15.49,15.49,0,0,1,.58,2.55c2.84,18.25,5.82,23.82,9.11,42,1.06,5.88-1.73,7-8,7-20.37-.25-40.76-.09-61.14-.09-19.68,0-39.37-.29-59,.14-7.91.18-9.54-2.18-8.43-8.27,3.21-17.6,6.1-22.58,8.82-40.25a11.16,11.16,0,0,1,2-5.47c-9.69-.3-19.38-.54-29.08-.65,1.32,1.7,1.37,4.38.75,7.79C124,760.3,120.23,777.59,116.48,800.24Z"/><path class="cls-9" d="M87.85,695.88s116.88,21.49,167.29,15S339.5,698.8,337.46,691s-37.72-24.55-73.63-25.73-134.39,7.85-134.39,7.85-33,5.56-36.52,10.37S87.85,695.88,87.85,695.88Z"/><path class="cls-4" d="M346,610.25s33.73,0,51.94,27c10.7,15.88,6.94,44.16,7.16,65.58C405.37,732,386.56,937,386.56,937L349.2,916.63l-34.29-191,.83-34.18L178.13,680.2s-12.54-41.71,18.3-74.68C200.21,601.3,346,610.25,346,610.25Z"/><path class="cls-4" d="M378.3,902.83s33.95,24.77,52.57,43c21.89,21.4.78-1.77.78-1.77s-8.09,20.2-18.82,19.28-69-39-69-39l5-16.47Z"/><polygon class="cls-5" points="368.87 975.82 356.11 978.58 352.19 959.32 363.82 958.77 368.87 975.82"/><polygon class="cls-6" points="352.19 958.77 356.11 978.58 342.28 976.73 342.46 956.18 352.19 958.77"/><path class="cls-5" d="M473.22,975.3a12.39,12.39,0,0,1-7.16,2.85c-12.74.78-55.05,3.82-63.89,1.87-12.9-2.83-8.93-1.72-23.2-8.78-20.41-10.1-28.4-11.44-33.17-13.54s-6.1-3.2-6.1-3.2-1.16-7.24,2.47-6.94l1.48-10,12.46,13.84,32.83,4.26,18.79,14.76,33.84-.38,26.7-4.39s5.12.41,6.27,1.36,1.84,4,1.07,5.29A9.46,9.46,0,0,1,473.22,975.3Z"/><path class="cls-7" d="M432.8,944s-4.93.19-12.76,7.06-18.81,4-26,.85c-10.8-4.78-19.37-8.18-29.85-16.24-11.6-8.94-17.52-17.73-17.9-19.07a4.34,4.34,0,0,0-1.71-2.16s-3.41,10.34-5.13,15.1-.25,16.29,1.22,19.67,16.43,8,28.15,13.9c14.62,7.34,17.8,7.85,29,12.7,6.86,3,35.19.59,44.15.21s19.73-1.59,23.52-2.16,7.74-5.64,7.74-5.64,2.09-3-4.39-6.67-19.64-8-25.17-10.68A69.19,69.19,0,0,1,432.8,944Z"/><path class="cls-10" d="M127.45,519.51S71,598.6,105.61,658c16.52,28.3,65.93,28.28,65.93,28.28l50.68-57.72V533.14Z"/><path class="cls-10" d="M475.83,620.55c-2.56,67.88-14.42,160.9-26.61,230.18,0,0-65.12,16-73.86.82,0,0-6.06-108.81-35.15-192C314.6,586.27,159.15,580.68,178.88,574,210,563.59,398.53,531.76,437,544,462.57,552.17,477.52,575.55,475.83,620.55Z"/><path class="cls-10" d="M428.23,649c.42-4.37,1.09-8.72,1.94-13a168.75,168.75,0,0,1,8.43-28.5,183.74,183.74,0,0,1,13.46-27.6A160.86,160.86,0,0,1,464,562.51c-97.1-14.19-295.91-3.27-295.91-3.27S79.64,592,101,648.83c28.34,75.36,245.45,48.07,317.81,24.64C419.17,673.36,425.28,683.49,428.23,649Z"/><path class="cls-10" d="M442,565.08a139.47,139.47,0,0,0-26.11,3.78A58.24,58.24,0,0,0,417.21,557c-1.78-1.29-3.66-2.61-5.61-3.94a170.32,170.32,0,0,0-23.36,13.52,202.11,202.11,0,0,0-24.3,19.56,174.42,174.42,0,0,0-20,22.22c-1.69,2.25-25.93,4.56-27.47,6.9.27,0,5.7,13.51,6,13.54-21.94,36.65-13.66-5.36-15.81,59.84-1.89,57.23,18.13,129.88,14.65,160.29,10.36,13.75,91.11,7.31,91.11,7.31C422.49,767.91,442,565.08,442,565.08Z"/><path class="cls-11" d="M429.33,944s-23-26.19-42.37-36.11l3.92-50.19h2.73l-5,49.13S427.66,935.15,429.33,944Z"/><path class="cls-12" d="M1108,292.77s-24.49,8.65-31,20.39-10.4,44.14-10.4,44.14c1.2.23,84.22-40.81,44-64.53"/><path class="cls-13" d="M1229,232.43c-3.39-1.75-6.84-4.07-8.62-7.56a18.73,18.73,0,0,1-1.71-8,5,5,0,0,1-.74-1.12c-3-6.19,1.06-14.6-3.18-20-3.87-4.94-12.87-3.31-16.55-8.39-2.88-4-.89-8.16-2.32-11.83s-7.31-6.17-11.09-5.15l-23.53,48.16c-.6,15.05-2.32,23.19,2.18,31.38,2.75,4.24-3,8.77-1.2,13.51,1.41,4.87,1,10.67-2.62,14.22,18.22-1.3,42.8-10,57-21.46l4-3.26c-7-2.51-13.56-13.91-13.56-13.91,3.77,4.27,10.56,10.21,15.55,12.17a17.64,17.64,0,0,0,2.37-1.36c3.15-1.11,10.75-8.82,15.42-13.78A33.13,33.13,0,0,1,1229,232.43Z"/><path class="cls-13" d="M1085,151a33,33,0,0,0-9.21,5.93,32.72,32.72,0,0,0-2.42,2.46,39.19,39.19,0,0,0-10.43,36.49c1.5,6.2,4.48,13.11.91,18.53s-12,6.4-15.29,11.87c-3.91,6.43,1.5,14.41.91,21.82-.82,7.18-7,12.74-14.67,13.12a63.54,63.54,0,0,0,31.76,8l6.7-11.29a10.16,10.16,0,0,0,2.68,12.66,24.89,24.89,0,0,0,13.57,5.21c11.15.72,35.22-6.22,65.17-19.72l-59.74-108.36"/><path class="cls-13" d="M1210.61,179.44c-2.2-4.2-5.4-7.93-7.14-12.31-3.76-9.44-.48-21.13-6.86-29.19-4.55-5.76-12.59-7.73-20.06-8.82s-15.45-1.73-21.56-6c-4.49-3.09-7.5-7.8-12-10.9-6.37-4.45-14.85-5-22.72-4.38a49.21,49.21,0,0,0-23,7,24.43,24.43,0,0,0-11.75,19.25c0,3.75,1,7.53.39,11.22-.73,4.08-3.47,7.56-4.89,11.48a19.25,19.25,0,0,0,8.85,22.67L1155.63,239c12.22,2.5,39.41-6.49,47.09-15.88S1216.13,190,1210.61,179.44Z"/><path class="cls-14" d="M1110.28,240.07s1.71,44.11,1.08,48.4l2.71,5.9-5.47,4.88c18.06,14.86,22.5,15.11,44.69,7.71l25.59-13.85s-7.41-7-8.9-10.35c-6.11-13.94,4.56-46.42,4.56-46.42"/><path class="cls-14" d="M1109.53,296.62c.62-2-.12-32.41-.12-32.41l31,4.76,21.2-.89s8.5,14.6,9.12,16.57,3.16,15.1,3.16,15.1,1,17.29-39.23,17.29-29.9-11-29.9-11S1108.91,298.59,1109.53,296.62Z"/><path class="cls-14" d="M1193.7,203.21l-.46-.81c-2.85-2.5-8.11-3.86-10.6,0-.84,1.68-2.1,3.57-2.94,5.25-.84,1.92-2.11,5.81-3.48,7.47,0,0-8.77-19.79-8.39-24.4s15.48-14.57,7.45-21.34c0,0-8.4-8.78-12.39-14-.9-.5-1.8-1-2.73-1.45a9,9,0,0,1-1.43.15c0-.19.17-.39.25-.7l-.33-.16a10.35,10.35,0,0,1-3.08.05c.27-.24.8-.47.81-.71a13.54,13.54,0,0,1-3.18-.08c.27-.24.82-.71.82-1-1.33.45-2.12-.06-3.18-.08a1.8,1.8,0,0,0,.56-1,7.29,7.29,0,0,1-3.18.16c.27-.24.55-.72.81-.95-1.33.45-2.11-.06-3.17-.09-.25,0,.43-.41.53-.66l-.11,0a10.31,10.31,0,0,1-2.53.15c0-.21.41-.42.51-.63l-.17,0c-1.46.34-2.22-.12-3.23-.14l.38-.45-.47-.08a4.11,4.11,0,0,1-2.28,0c.09-.08.22-.19.34-.31l-.9-.13a4.82,4.82,0,0,1-2.87-.13.65.65,0,0,0,.34-.21l-1-.12a11.14,11.14,0,0,1-2.24,0,2,2,0,0,0,.2-.21l-1.36-.1a4.4,4.4,0,0,1-2.47-.16c-1.64-.08-3.27-.13-4.9-.14-12.2-.08-25.65.71-35,9.42a118,118,0,0,0-7.93,19.06c-3.85,11.72-4.4,30.45-4.24,34.34.14,3.38-2.09,9.85-2.6,13.34-2.71,18.93,11.58,38.68,26.07,49.62,5.78,4.35,10.89,2.9,16.74,2.27,12-1.3,30.05-8.06,40.79-18.34l15.33-13.32,1.55-4c2.26,7.68,12.75,3.05,13.91-7.26C1196,222.46,1197.61,208.81,1193.7,203.21Z"/><path class="cls-15" d="M1101.66,231.47a6.86,6.86,0,0,0,6.1-.15c.39-.22,1.66.05,1.11.36a9.67,9.67,0,0,1-8.29.07c-.22-.12-.17-.28.11-.36a1.51,1.51,0,0,1,1,.08"/><path class="cls-15" d="M1109.64,231.23a10.94,10.94,0,0,1,3.78-.77.8.8,0,0,1,.56.2c.11.09.13.22,0,.29a4.26,4.26,0,0,1-2.07.39.84.84,0,0,1-.63-.27c-.11-.17.11-.27.28-.26a3.27,3.27,0,0,0,1.67-.32l.55.5a9.62,9.62,0,0,0-3.37.7.88.88,0,0,1-.69-.1c-.13-.08-.27-.27-.06-.36"/><path class="cls-15" d="M1114.77,231.57a5.28,5.28,0,0,0,4.1-1.63c1.18-1.62.23-4.45-1.63-5.58-.2-.12-.08-.27.13-.3a1.23,1.23,0,0,1,.8.19,5.31,5.31,0,0,1,2.31,4.89c-.29,1.45-1.77,2.41-3.6,2.77a8.55,8.55,0,0,1-1.68.17c-.23,0-.64-.09-.75-.27s.11-.25.32-.24"/><path class="cls-15" d="M1098.91,230.63a.19.19,0,0,0-.18-.28,1.82,1.82,0,0,1-1.16-.42l-.42.46a5.49,5.49,0,0,1,2.35.91.45.45,0,0,0,.48-.06c.1-.08.22-.26.07-.36"/><path class="cls-15" d="M1100.05,230.88a6.15,6.15,0,0,0-2.62-1,.52.52,0,0,0-.41.17.2.2,0,0,0,0,.29"/><path class="cls-15" d="M1095.76,230.71a3.12,3.12,0,0,1-2.57-1.86,4.21,4.21,0,0,1,1.35-4.66.17.17,0,0,0-.07-.31.62.62,0,0,0-.53.14,4.73,4.73,0,0,0-1.74,3.94,3.39,3.39,0,0,0,2.17,3,3.8,3.8,0,0,0,1.08.27.55.55,0,0,0,.5-.22c.08-.17,0-.26-.19-.27"/><path class="cls-16" d="M1179.8,220.1a58.41,58.41,0,0,1,5.13-8.56,19.06,19.06,0,0,1,3.7-3.91,6.18,6.18,0,0,1,1.14-.71,2.22,2.22,0,0,1,.69-.25l.09,0s.1.08,0,0c-.45-.28-.16,0-.1.11s.26.47.37.71a13.13,13.13,0,0,1,.27,9c-.1.36.81.24.9-.1a13.69,13.69,0,0,0-.1-8.72c-.22-.57-.5-1.61-1.25-1.53a4.73,4.73,0,0,0-2,.81,15.59,15.59,0,0,0-3.62,3.4,52.29,52.29,0,0,0-6,9.74c-.21.41.69.35.84,0Z"/><path class="cls-13" d="M1078.42,184.35c6.48-1.09,10.48-.56,20.87,2.37V187c0,1.4,0,.62-.07,2l-.12,3.2c-3.39-1-5.81-2.06-8-2.51-4.16-.86-8.87-2.34-13.16-2C1078.11,186.56,1078.28,185.46,1078.42,184.35Z"/><path class="cls-13" d="M1122.4,186.91c0,1.4,0,.62,0,2,0,1.06,0,2.13,0,3.2,3.44-.83,5.91-1.76,8.13-2.1,4.4-.67,9.43-2,13.85-1.23,2.12.37,5.15,1,6.64,2.9.39.52,1.12,2.38,2,2,.35-.14-.17-1.88-.23-2.06-1.08-3.49-4-5-7.68-5.9-7.43-1.84-11.2-1.67-22.59.91"/><path class="cls-17" d="M1181,237.47a5.23,5.23,0,0,1,1.5,6.87,4.5,4.5,0,0,1-3,2.1h-.11s.16,0,0,0h-.23a5.81,5.81,0,0,1-1.24-.19,5.18,5.18,0,0,1-3.41-2.8c-.24-.51-1.53-.11-1.31.35a6,6,0,0,0,3.51,3.12,6.6,6.6,0,0,0,2.65.36,5.94,5.94,0,0,0,5.21-6.18,5.88,5.88,0,0,0-2.5-4.32c-.4-.3-1.58.28-1,.69Z"/><path class="cls-16" d="M1179.23,220.53c.82,0,2.16.08,2.23,1.16a5.86,5.86,0,0,1-.79,2.52c-.71,1.61-1.77,3.82-.38,5.39,1.65,1.87,4.09-1,4.93-2.29a11.06,11.06,0,0,0,1.74-6.44c-.11-2.41-.58-5.65-3-6.81-.4-.18-1,.39-.51.63,2.06,1,2.48,3.91,2.61,5.92a10.63,10.63,0,0,1-1.32,6c-.65,1.18-3.34,4.65-4.11,1.68-.46-1.75.88-3.61,1.45-5.18a2.69,2.69,0,0,0,.12-2.25c-.52-.85-1.75-1-2.64-1-.45,0-.91.66-.3.68Z"/><path class="cls-13" d="M1086.61,198.65a4,4,0,0,0-4.32.67,3.87,3.87,0,0,0-1.21,1.77,4,4,0,0,0,.85,3.63,3.67,3.67,0,0,0,4.21.85,4.07,4.07,0,0,0,2.12-4.68,3.59,3.59,0,0,0-1.65-2.24"/><path class="cls-13" d="M1099.26,204.46s-7.36-6-11.18-6.51c-5.59-.69-10.88,2.24-12.94,4.93,0,0,7.56-4.39,11.49-3.79C1090.38,199.67,1099.26,204.46,1099.26,204.46Z"/><path class="cls-13" d="M1130.43,200.09a4,4,0,0,1,4.27.88,3.9,3.9,0,0,1,1.12,1.83,4,4,0,0,1-1,3.59,3.68,3.68,0,0,1-4.24.63,4.07,4.07,0,0,1-1.88-4.79,3.58,3.58,0,0,1,1.77-2.14"/><path class="cls-13" d="M1120.92,205.14s8.18-5.6,12.29-5.89c7.41-.53,14.17,3.83,16.22,6.63,0,0-10.52-5.81-14.74-5.42C1130.66,200.84,1120.92,205.14,1120.92,205.14Z"/><path class="cls-18" d="M1106.71,242.66c7.69.18,20.2-.47,20.2-.47s-2.72,16-20.57,15.56-19.79-16.54-19.79-16.54S1099,242.47,1106.71,242.66Z"/><path class="cls-19" d="M1106.63,242.65c3.66.09,18.43-.2,18.43-.2s-5.08,8.4-18.32,8.08c-14.36-.35-18.37-8.85-18.37-8.85Z"/><path class="cls-20" d="M1106.46,243.23c3.66.09,14.81-.3,14.81-.3s-4.11,4.13-15.09,3.86-14.37-4.45-14.37-4.45Z"/><path class="cls-18" d="M1085.77,240c.39-.09,2.51.7,4.33.58,3-.2,5-1,7.15-1.12,3.75-.21,6.1,1.41,7.73,1.45s4-1.46,7.78-1.07c2.2.23,7.61,1.2,10.63,1.55,1.82.21,4-.48,4.35-.37.54.15-.61,4.3-21.09,3.81S1085.23,240.14,1085.77,240Z"/><path class="cls-21" d="M1109.49,274.76a73.44,73.44,0,0,0,38.64-12.55s-8.66,18.28-38.52,17.18Z"/><path class="cls-13" d="M1158.76,127.58c-3.87-2.07-8.57-1.7-12.92-1.12a238,238,0,0,0-55,14c-.22,4.49,4.19,8.07,8.62,8.85s9-.4,13.44-1,9.44-.57,13,2.27,4.86,8.35,8.46,11.53c6.17,5.5,16.88,2.52,23,8,4.63,4.19,4.63,11.32,6.86,17.25,4.32,11.53,16.39,14.21,27.93,9.9a24,24,0,0,0,2.73-1.24c-9.51-20.2-18.25-37.21-27.78-57.4C1165.07,134.29,1162.84,129.8,1158.76,127.58Z"/><path class="cls-13" d="M1025.08,249.08a7,7,0,0,0,.77,4.63,6.35,6.35,0,0,0,4.31,3.25,6.61,6.61,0,0,0,6.33-2.81,6.09,6.09,0,0,0,1-4,12.77,12.77,0,0,0-1.4-4.45c-1.41-2.9-3.84-5.91-4.15-9.95a14.66,14.66,0,0,1,3.92-11.22,17.16,17.16,0,0,1,5.15-3.78,24.63,24.63,0,0,1,6.28-1.9,34.59,34.59,0,0,0,6.12-1.58,8.42,8.42,0,0,0,4.39-3.73,10.15,10.15,0,0,0,1-5.59,20,20,0,0,0-1.3-5.49,42.74,42.74,0,0,1-3.2-10.3,16.24,16.24,0,0,1,1.9-9.27,20.55,20.55,0,0,1,5.13-5.82,40,40,0,0,0,4.19-3.94,12.17,12.17,0,0,0,2.32-4.25v.33a4.36,4.36,0,0,1-.23.93,9.25,9.25,0,0,1-1.81,3.24,35,35,0,0,1-4.13,4.13,20.43,20.43,0,0,0-4.84,5.75,15.48,15.48,0,0,0-1.7,8.79,42.24,42.24,0,0,0,3.25,10,20.9,20.9,0,0,1,1.39,5.72,11.24,11.24,0,0,1-1,6.15,9.27,9.27,0,0,1-4.92,4.24,34.37,34.37,0,0,1-6.3,1.65,24,24,0,0,0-6,1.81,15.71,15.71,0,0,0-4.85,3.54,13.74,13.74,0,0,0-3.71,10.44c.23,3.68,2.51,6.58,4,9.64a13.14,13.14,0,0,1,1.41,4.78,6.8,6.8,0,0,1-1.18,4.48,7.2,7.2,0,0,1-7,3,7,7,0,0,1-5.31-7.25A4.19,4.19,0,0,1,1025.08,249.08Z"/><path class="cls-13" d="M1218.63,214.8v-.49a1.34,1.34,0,0,1,.2-.69c1.14-6.17,4.09-14.14,4.09-21.44,0-10.25-17-20.34-17-20.34v35.58s14.29,18.71,12.73,12.66A13.89,13.89,0,0,1,1218.63,214.8Z"/><path class="cls-8" d="M1108.58,676.81q53.84,0,107.67,0c15.43,0,18.3,7.31,18.28,22.28,0,13.76-3.09,21.84-18.71,21.87-3.52,0-7.11.39-10.54-.07-10.34-1.4-12.41,2.43-11.06,10.42,13.22,77.94,26.12,150.55,39.3,228.5.9,5.31.08,7.41-7,7.49-17.83.22-18.19.58-20.66-14Q1193.18,878.71,1181.2,804c-1.07-6.76-3.82-8.81-11.85-8.74q-61.23.51-122.45,0c-7.83-.07-10.11,2.32-11.08,8.44-8.37,52.43-17.14,104.82-25.58,157.24-.78,4.88-3.17,6.34-8.84,6.42-18.36.29-18.86.42-16.5-14.29,8.55-53.3,17.44-106.56,26.27-159.83,3.75-22.65,7.49-39.94,11.58-62.55,1.26-7-.22-10.93-9.8-9.6-2.06.29-4.23-.09-6.33.06-27.53,1.94-25.28-17.72-23.68-35.91.62-7,7.92-8.71,15.86-8.67,36.59.18,73.19,4.55,109.78,4.55Zm-.86,100.63c20.38,0,40.76-.16,61.14.09,6.24.08,9-1.07,8-6.95-3.29-18.19-6.27-23.76-9.11-42-.86-5.53-3.14-7.87-10.53-7.77-32.32.41-64.66.46-97,0-8-.13-10.24,2.44-11.14,8.29-2.71,17.67-5.6,22.65-8.81,40.25-1.11,6.09.51,8.45,8.42,8.27C1068.35,777.15,1088,777.44,1107.72,777.44Z"/><path class="cls-9" d="M1011.24,793.36,1007.16,818c8.54,1.68,17,3.65,25.52,5.71q1.6-10,3.21-19.92c1-6.11,3.26-8.5,11.09-8.44q61.21.51,122.45,0c8-.07,10.78,2,11.85,8.74,1,6.44,2.07,12.88,3.1,19.32a230.41,230.41,0,0,0,24-10.19c-4.66-26.93-9.33-54-14-81.86a15.42,15.42,0,0,1,0-6.47q-8.37.55-16.76.87-5.14.19-10.29.31a15.22,15.22,0,0,1,.59,2.55c2.84,18.24,5.82,23.81,9.11,42,1.06,5.89-1.73,7-8,7-20.38-.25-40.76-.09-61.14-.09-19.68,0-39.37-.3-59,.14-7.91.17-9.53-2.18-8.42-8.27,3.21-17.6,6.1-22.59,8.81-40.25a11.22,11.22,0,0,1,2-5.47c-9.69-.3-19.39-.54-29.08-.66,1.32,1.71,1.37,4.39.75,7.8C1018.74,753.42,1015,770.7,1011.24,793.36Z"/><path class="cls-9" d="M982.61,689s116.89,21.49,167.29,15,84.37-12.06,82.33-19.86-37.72-24.55-73.64-25.73-134.38,7.85-134.38,7.85-33.05,5.55-36.52,10.37S982.61,689,982.61,689Z"/><path class="cls-8" d="M881.68,677.52q53.84,0,107.67,0c15.43,0,18.29,7.31,18.27,22.28,0,13.76-3.09,21.84-18.71,21.87-3.51,0-7.11.39-10.54-.07C968,720.21,966,724,967.32,732c13.22,77.94,26.11,150.55,39.3,228.5.9,5.31.08,7.41-7.06,7.49-17.82.22-18.18.58-20.65-14q-12.63-74.58-24.61-149.25c-1.07-6.76-3.82-8.81-11.86-8.74q-61.22.51-122.44,0c-7.84-.07-10.11,2.32-11.09,8.44-8.37,52.43-17.13,104.82-25.57,157.24-.79,4.88-3.17,6.34-8.84,6.43-18.37.28-18.86.41-16.5-14.3,8.55-53.3,17.44-106.56,26.26-159.83,3.75-22.65,7.5-39.94,11.59-62.55,1.26-7-.22-10.93-9.81-9.6-2,.29-4.22-.09-6.32.06-27.53,2-25.28-17.72-23.69-35.91.62-7,7.93-8.71,15.87-8.67,36.59.18,73.18,4.55,109.78,4.55Zm-.87,100.63c20.38,0,40.77-.16,61.15.09,6.24.08,9-1.06,8-7-3.28-18.19-6.27-23.76-9.1-42-.86-5.53-3.14-7.87-10.53-7.77-32.33.41-64.67.46-97,0-8-.13-10.23,2.44-11.13,8.3-2.71,17.66-5.6,22.64-8.81,40.24-1.11,6.1.51,8.45,8.42,8.27C841.45,777.86,861.13,778.15,880.81,778.15Z"/><path class="cls-4" d="M992.27,901.64s-47.77,16.66-67.19,30.09c-22.83,15.79,7.47,12.44,7.47,12.44s9,5.8,18.16,6.81S1018,926.36,1018,926.36l1.07-17.78Z"/><path class="cls-22" d="M898.31,945.82s-3-7.3,2-9.21,22-6.35,24.77-5.88c-.44,5.82,2.31,5.92,8.2,7.55a75.68,75.68,0,0,0,33.64,1.6c11.21-2.11,28-10.21,38-15.86,3.36-1.9,11.56-9.24,18.45-10.25,3.29,4.74,5.65,24.5.31,27.88s-37.24,5.82-37.24,5.82L958.28,954l-26.67,1.36-11.24-.15-10.51-3.63Z"/><path class="cls-23" d="M1025,940.34c-3.46,1.16-14.58,3-24.12,3.25-25.64.68-34.18,3.82-42.82,6.37A110.73,110.73,0,0,1,943,953.62c-29.84,5-44.62-9.61-45.24-10A2.79,2.79,0,0,0,897,945a66.79,66.79,0,0,0,5.84,4.7c5.48,3.88,18.18,11.13,41.3,7.71,6.55-1,10.5-1.45,14.81-2.72,6.47-1.91,13.13-3.88,27.52-5l0,4.11s27.24.77,39.4-4.31C1026.6,943.17,1025,940.34,1025,940.34Z"/><path class="cls-24" d="M1026.05,945.81c-16.24,4.08-34,4.32-39.63,4.38l0,3.61s27.24.77,39.4-4.31A26.33,26.33,0,0,0,1026.05,945.81Z"/><polygon class="cls-4" points="798.61 896.07 760.06 893.57 761.28 871.77 799.83 874.27 798.61 896.07"/><path class="cls-25" d="M824,901.68s7.72,6,7,10.32-17.8,10.59-22.2,12.48-61.15,27.11-67,29-37.85,10-44.5,4.28c0,0-11.29-9.59-2-16.93s17.61-8.27,25.93-16.41A110.11,110.11,0,0,0,744,891.26s6.9-11.74,11.9-11.81,13,7.45,17.38,8.48,23.11-1.71,24.91-12.22,4.16-7.45,8.07-7.21,14.62,14.36,15.51,22.18S824,901.68,824,901.68Z"/><path class="cls-26" d="M824,901.68s-25.59,10.9-35.76,18.52S749.84,943.87,734,948.85s-39.89,5.44-39.89,5.44-.69,3,7.53,5.18,30.52-1.6,48.48-9.36,44.39-18.73,50-20.82,28.88-11.22,30.63-16.78C832.25,907.85,824,901.68,824,901.68Z"/><path class="cls-27" d="M789.33,919.9a45.17,45.17,0,0,1,.55-16,23.75,23.75,0,0,1,5.46-11.31,42.63,42.63,0,0,1,6.86-5.48,77.24,77.24,0,0,1,6.68-4.21,56,56,0,0,1,5.09-2.53,17.22,17.22,0,0,1,1.77-.7c1.36-.44.94-2.08-.44-1.64a40.94,40.94,0,0,0-6.16,2.76,73,73,0,0,0-14.32,9.72c-6.46,5.75-8.2,15.06-8.17,23.34a46.51,46.51,0,0,0,.44,6.67c.17,1.1,2.41.53,2.24-.6Z"/><path class="cls-27" d="M774.2,888.84A43.52,43.52,0,0,1,762.83,897c-4.91,2.59-10.52,4.5-13.73,9.33a55.69,55.69,0,0,0-3.44,6.81,31.82,31.82,0,0,1-4.43,6.9,21.61,21.61,0,0,1-7.08,5.47c-3.5,1.64-7.21,2-11,2.33l-8.14.82c-1.23.13-1.74,1.73-.22,1.58l6.21-.63c3.75-.38,7.61-.53,11.22-1.71a23.61,23.61,0,0,0,8.29-4.66,28.78,28.78,0,0,0,5.51-6.63c1.46-2.39,2.48-5,3.73-7.47a15.54,15.54,0,0,1,4-5.36,40.49,40.49,0,0,1,8-4.5c5.11-2.45,10.36-5.65,14.29-9.82,1-1-1.2-1.32-1.86-.62Z"/><path class="cls-27" d="M697.54,938.73a4,4,0,0,0,2.46,2.49c3,1.17,6.32-.28,9.21-1.17a57.26,57.26,0,0,1,11.2-2.44,18.86,18.86,0,0,1,5.46.18,12.38,12.38,0,0,1,4.9,2.45,44.26,44.26,0,0,1,7,6.12c.5.56,2.64-.25,2.08-.87a41.6,41.6,0,0,0-5.28-4.82,23.72,23.72,0,0,0-5-3.37,13.76,13.76,0,0,0-4.44-1,36.6,36.6,0,0,0-10.87,1.2c-1.79.42-3.57.91-5.33,1.45a25,25,0,0,1-5.15,1.41c-1.58.11-3.55-.52-4-2.25-.19-.75-2.43-.16-2.23.6Z"/><path class="cls-2" d="M754.13,892.57l0-.08c.28-.63-.32-1.47-1.35-1.86l-7.42-2.81c-1-.4-2.11-.2-2.4.43l0,.08c-.29.63.31,1.47,1.34,1.86l7.43,2.82C752.77,893.4,753.84,893.2,754.13,892.57Z"/><path class="cls-2" d="M748.37,898.29l.11-.24c.21-.44-.38-1.1-1.31-1.46l-5.52-2.12c-.93-.36-1.86-.28-2.07.16l-.11.24c-.21.44.38,1.1,1.31,1.46l5.52,2.12C747.22,898.81,748.16,898.73,748.37,898.29Z"/><path class="cls-2" d="M743.75,903.46l.19-.4c.19-.4-.34-1-1.18-1.31l-3.94-1.51c-.83-.32-1.67-.26-1.86.14l-.19.4c-.19.4.34,1,1.18,1.31l3.94,1.52C742.72,903.93,743.56,903.86,743.75,903.46Z"/><path class="cls-2" d="M740.32,908.51l.21-.47c.22-.47-.29-1.11-1.12-1.43l-3.95-1.51c-.83-.32-1.7-.19-1.91.28l-.22.47c-.22.47.29,1.12,1.13,1.44l3.94,1.5C739.24,909.11,740.1,909,740.32,908.51Z"/><path class="cls-9" d="M784.34,794.07q-2,12.33-4.09,24.66c8.55,1.68,17,3.66,25.53,5.71q1.61-10,3.21-19.91c1-6.12,3.25-8.51,11.09-8.45q61.21.51,122.44,0c8-.07,10.79,2,11.86,8.74,1,6.44,2.07,12.88,3.1,19.33a234.8,234.8,0,0,0,24-10.19c-4.66-26.94-9.34-54.06-14.05-81.87a15.26,15.26,0,0,1,0-6.47q-8.39.55-16.76.87-5.15.19-10.29.31a16.27,16.27,0,0,1,.59,2.55c2.83,18.24,5.82,23.81,9.1,42,1.06,5.88-1.72,7-8,7-20.38-.25-40.77-.09-61.15-.09-19.68,0-39.37-.3-59,.14-7.91.18-9.53-2.18-8.42-8.27,3.21-17.6,6.1-22.59,8.81-40.25a11.22,11.22,0,0,1,2-5.47c-9.7-.3-19.39-.54-29.08-.66,1.32,1.71,1.36,4.39.75,7.8C791.84,754.13,788.09,771.42,784.34,794.07Z"/><path class="cls-9" d="M755.71,689.71S872.6,711.2,923,704.69s84.37-12.06,82.33-19.86-37.72-24.55-73.64-25.73S797.31,667,797.31,667s-33.06,5.56-36.52,10.37S755.71,689.71,755.71,689.71Z"/><path class="cls-4" d="M932,239.13s-8.68,58.1-4.53,70.59c1,3,40,20.64,40,20.64l-95.84,25.31-41.53-25.31s40.45-15.81,41.51-19.43-1.44-27.08-1.44-27.08"/><path class="cls-28" d="M963,484.71s33.32-142.38,27.77-145.27-44.39-22.37-44.39-22.37l-11.67-5.54a.7.7,0,0,1,.3.29l-.3-.29c-18.8,27.89-62.83,39.93-62.83,39.93-14.69-16.67-9.42-32.42-7.92-35.38-2.55.83-4.83,2.3-7.31,3.31-2.67,1.08-5.56,1.69-8.32,2.54-8,2.47-15.84,6.4-24,8.42l-7.9,33.39s-2.89,37-4.54,78.94c-.94,23.59,2.46,48.39-2.68,69.86-10.6,44.2-5.41,56.4-4.29,59.13,3.08,7.51,11.05,10.49,26.83,12.5,13.58,1.73,140.8,37.66,140.8,37.66,19.46-30,2.56-77.12,2-83.07Z"/><path class="cls-28" d="M824.16,445.47c1.86-12.73,3.19-25.55,4.11-38.39,2-27.28,10.82-54.27,10.84-81.61l-16.55,5c-8.32,3.68-16.44,11.26-23.16,24.09l-32.8,70.68-24-46.31c-3.79-10.39-13.73-13.6-23.49-8.4l-7,3.74c-12.64,6.72-10.43,24-4.74,37.18C720.56,442,731.86,503,776.78,503c19.93,0,37.81-45,46.05-63Z"/><path class="cls-29" d="M766.28,424a26.86,26.86,0,0,1,10.5,16.88"/><path class="cls-4" d="M724.29,382.68A11.2,11.2,0,0,0,730.5,378a10.89,10.89,0,0,0,1.22-7.15l-4.21-6.69s-1.91-11.38-3.72-14.88-12.52-15-13.19-15.35-6.14-19.23-9.83-19.17-6.53,2.28-6.19,7.24,7,15.7,4.58,17A16.44,16.44,0,0,1,693,340.4s-.22-5.69-3-7.89-6.67.27-6.67.27l-.42,2.38L680.3,332s-1.62-11.58-6.41-12.18a19.47,19.47,0,0,0-3.84-7,4.16,4.16,0,0,0-5.89,0,4.23,4.23,0,0,0-.72,1l5.08,26.42,20,29.32S699,375.31,701.67,377c.83.53,3.1,4.41,5.89,9.53a55,55,0,0,0,7.48-.69,35.19,35.19,0,0,0,8.51-2.48A1.16,1.16,0,0,1,724.29,382.68Z"/><path class="cls-11" d="M707.36,337.27c1.92-.18,3.5-.15,3.58-.48s-1.56-1-3.67-.75-3.63,1.08-3.5,1.37S705.44,337.45,707.36,337.27Z"/><path class="cls-11" d="M698.07,362.48a42.78,42.78,0,0,0-5.26-9.41l-.07-.11,0-.13a24.66,24.66,0,0,1-.34-4.29c0-1.56.15-3,.11-4.57a44.63,44.63,0,0,0-.35-4.76,10.55,10.55,0,0,0-1.45-4.54,4.43,4.43,0,0,0-3.27-2.06,7.31,7.31,0,0,0-3.85.74l.35-.57c-.18,7.17-.39,13.39-.6,17.8a12.47,12.47,0,0,0,.48,5,8.56,8.56,0,0,1,.49,1.8c-.09.1-.46-.44-.92-1.58a11.32,11.32,0,0,1-.9-5.17c0-4.42,0-10.65.1-17.86l.06-.38.34-.17a8.35,8.35,0,0,1,4.62-.94,5.74,5.74,0,0,1,4.28,2.66c3.51,6.86,1.05,13.66,2,18.73l-.11-.25a37.87,37.87,0,0,1,5,9.91,15.16,15.16,0,0,1,.61,3,6.58,6.58,0,0,1,0,1.09C699.19,366.46,699.11,365,698.07,362.48Z"/><path class="cls-11" d="M727.51,364.2s-3.29,5.43-11.9,6.1C715.61,370.3,726.39,372.54,727.51,364.2Z"/><rect class="cls-4" x="794.72" y="868.99" width="44.21" height="26.6" transform="translate(-244.74 317.75) rotate(-19.2)"/><path class="cls-29" d="M812,461.44c-.27,0,0-3.94-.27-3.92,0-18.59-.77-39.85-.66-56.61.07-6.1.11-11.06.22-14.45a49.61,49.61,0,0,1,.26-5.32,39.49,39.49,0,0,1,.34,5.32c-.08,3.69,0,8.47.19,14.48.07,5.69-.16,53.58-.08,61C811.82,461.87,812.13,461.43,812,461.44Z"/><path class="cls-30" d="M878.58,425.35a.65.65,0,0,0-.14,0c-.05.18-.15.35,0,.54Z"/><path class="cls-30" d="M864.25,463.68a.57.57,0,0,0,.13.08l.1-.35Z"/><path class="cls-31" d="M837.65,413h.19a1.09,1.09,0,0,0-.17-.13A.1.1,0,0,0,837.65,413Z"/><path class="cls-31" d="M863.93,420.91l-.15-.15-.08.09Z"/><path class="cls-31" d="M838.22,413.1l.25.07A.17.17,0,0,0,838.22,413.1Z"/><path class="cls-31" d="M878,425.2a.14.14,0,0,0-.21-.07Z"/><path class="cls-32" d="M672.6,657.93c21.1,44.2,55,162.9,83.11,216.07,0,0,72.85-2.22,75.29-16.64,0,0-33.62-125-34.41-199.45-.69-65.55,43.4-95,26.73-95.61-26.22-.95-134.93,14.38-146.67,27.44C662.55,605.41,656,623.12,672.6,657.93Z"/><path class="cls-2" d="M710.54,869.28l.19-.15c.38-.3.16-1.12-.48-1.84L706.42,863c-.64-.72-1.48-1.07-1.86-.78l-.2.15c-.37.3-.16,1.12.49,1.84l3.82,4.27C709.32,869.22,710.16,869.57,710.54,869.28Z"/><path class="cls-32" d="M714.22,676.69c-1.31-3.52-2.8-7-4.43-10.35a155.68,155.68,0,0,0-12.9-21.81,165.76,165.76,0,0,0-16.54-20.07,141.29,141.29,0,0,0-13-11.91c71.07-31,228.12-53.67,228.12-53.67s60.8,2.28,57.31,53.4c-4.62,67.76-177,69.38-237.66,64.49Z"/><path class="cls-32" d="M690.68,625.29a103.42,103.42,0,0,1,20.83-2.08,54.1,54.1,0,0,1-3.67-9.53c1.07-1.42,2.21-2.88,3.4-4.37a135.79,135.79,0,0,1,20.93,6.49,165.73,165.73,0,0,1,23,11.29,149,149,0,0,1,20.32,14.33c1.8,1.52,3.56,3.1,5.27,4.72l-.61.23c25.08,25.84,27.4,85,43.8,138.33,14.39,46.8,16.15,52.66,25.69,77-4.81,13.4-68.41,21.79-68.41,21.79C753.55,812.73,690.68,625.29,690.68,625.29Z"/><path class="cls-33" d="M775.22,869c-26.91-76.73-82.39-241-82.39-241l-3,.55,83.35,240.86Z"/><path class="cls-33" d="M692.83,627.94s-12-26.58,20-40.83c0,0-34.2,8.69-23,41.38Z"/><path class="cls-33" d="M709.6,588.35s17.5-3.44,48.22-6.43,43.45-5,43.45-5S717,584.73,709.6,588.35Z"/><path class="cls-28" d="M804.21,544.51s-6.09,5.39-7.9,10.88-1.58,8-1.58,8a46.94,46.94,0,0,1,8.48,1.51,121.28,121.28,0,0,0,17.24,2.85c4.43.37,65.3,3.17,82.89,9.81s62.42,13.84,64.88,30.19,2.37,14.95-2.7,30.74c0,0,19.79-8.75,14.78-50.88s-83.66-48.76-83.66-48.76l-90.42,6.63Z"/><path class="cls-33" d="M797.39,677.43s-6.71-17.46-17.84-26c0,0,16.25,10.1,21.59,25.78Z"/><path class="cls-28" d="M955.89,421l7.66,94.52L941.21,641.76l44,9.23,29.1-111.74a53.52,53.52,0,0,0,1.79-12.53c.67-27-3-122.87-4.6-140.92-3-33.81-20.72-46.36-20.72-46.36Z"/><path class="cls-29" d="M948.77,382.75a36.35,36.35,0,0,1,.5-6.75,42.72,42.72,0,0,1,27.28-33.19,36.82,36.82,0,0,1,6.51-1.83,8.89,8.89,0,0,1,2.41-.24c0,.24-3.46.77-8.66,3a44.5,44.5,0,0,0-26.6,32.47c-1.18,5.52-.91,9.06-1.18,9.06A9,9,0,0,1,948.77,382.75Z"/><path class="cls-29" d="M949.55,391.55c.23,20.26,13.33,97.59,13.7,129l-3.43,23.81c-4.81,34.34-15.41,73.81-18.77,97.46l.33.07.21.06.13,0c.1-.57.13-.8.23-1.36,3.44-23.5,14-62.44,18.92-96.16,1.18-8.18,2.41-16.15,3.42-23.82-.54-31.44-13.8-108.8-14.14-129.08Z"/><path class="cls-4" d="M1013,586.57s-86.26,22.59-105.18,29.28c-27.71,9.83-39,22.73-38.52,43.6,1.08,43.46,112.78,247,112.78,247l32.17,3L947.94,694.09l111.36-9.78Z"/><path class="cls-4" d="M1016.25,622.1s-104.42,8.45-123.57,26.67-10,38.8-2.64,62.83,113.6,206.1,113.6,206.1l20,2.89s-19.33-135.3-28.44-160.13-31.61-56.36-31.61-56.36,82.77-14.79,98.42-19.88S1016.25,622.1,1016.25,622.1Z"/><path class="cls-34" d="M905.7,747.05l-2.46-5c-6.2-13-12.62-25.27-18.43-37.58a129.29,129.29,0,0,1-4.32-17,133.25,133.25,0,0,1-1.83-16.91,52.79,52.79,0,0,1,1.61-16.2,28.85,28.85,0,0,1,7.51-13.16,29.47,29.47,0,0,1,12-6.66,104.41,104.41,0,0,1,12.3-2.75c7.94-1.46,15.25-3,21.91-4.39a290.93,290.93,0,0,1,31.56-5.13c3.72-.38,6.6-.54,8.54-.61h0c-2,.09-4.83.38-8.53.82-7.42.81-18.15,2.63-31.44,5.53-6.66,1.4-14.07,3-21.9,4.55a103.77,103.77,0,0,0-12.18,2.8,28.58,28.58,0,0,0-11.54,6.48,27.6,27.6,0,0,0-7.15,12.65,50.49,50.49,0,0,0-1.63,15.79A130.1,130.1,0,0,0,881.51,687a132.07,132.07,0,0,0,4.31,16.82l18.06,38.06,36,69.77,27,52.27.8,2.5Z"/><path class="cls-34" d="M937.61,679.66a18.18,18.18,0,0,1,4.48,2.7,97.57,97.57,0,0,1,18.76,17.49,18.83,18.83,0,0,1,3.14,4.42c-.27.27-5.51-6-12.81-12.82S937.41,680,937.61,679.66Z"/><path class="cls-12" d="M1026.81,533.68c7.43,7.19,16.51,12.88,25.92,17.5,12.5,6.15,25.91,10.56,39.5,14,6.46,1.65,13,3.08,19.54,4.33a172.61,172.61,0,0,0,19.18,2.87c14.72,1.13,33.87,10.83,47.64,5.74,10.06-3.71,18.46-15.94,26.16-23-.38-2.43-4.07-8.59-4.07-8.59a234,234,0,0,1-3.74-60.24c3.93-55.07,16.82-130.5,14.06-155.08-3-27.18-38.49-48.39-38.49-48.39l-36.46,17.7c-14.55,6.57-29.36,5-31.66.9l-11.47,10.45s-36.16,39.26-45.48,69c-2.54,8-4.57,19.47,8.74,40.41,18.15,46-23,93-24.79,102.15A18,18,0,0,1,1026.81,533.68Z"/><path class="cls-35" d="M1191.26,559.63a32.5,32.5,0,0,1-16.16,6.23,70.68,70.68,0,0,1-15.11-.17c-5.06-.48-10.1-1.09-15.13-1.9a180,180,0,0,1-30.68-7.61,142.34,142.34,0,0,1-52.76-32.5c-1.46,8.8-12.38-6-19-4.56l-29.85,41.37s-118.24,50.44-108.79,54.93a18.17,18.17,0,0,1,10,13.05s28.59,1.35,38.36,41.91,39.21,36.69,39.21,36.69l117.19-20.42c27.53,0,77.2-19.11,90-52.84,8.32-29.18,3.1-76.52,2.19-84.1C1197.7,553.26,1194.73,557,1191.26,559.63Z"/><path class="cls-4" d="M1011,532.33c-.71,1-20.6,20.78-20.6,20.78l16.21,5.77s24.55-15.22,24.91-24.68c.18-4.79,21-42.8,27.2-65.12,5.6-20,1.64-31,1.64-31S1034.51,475.66,1011,532.33Z"/><path class="cls-4" d="M1135.61,463.79l-102.18,40.74a136.8,136.8,0,0,0-20.83-4.61c-13.86-2-39.89,21.77-39.89,21.77s58.71-.47,87.71,2.48c36.8,3.75,90.79-16.35,90.79-16.35Z"/><path class="cls-4" d="M1143.07,510.62s22.21-2.58,39.64-25.57,24.6-143.34,24.6-143.34L1156,332.29l-13,125.54-30.52,17.5Z"/><path class="cls-12" d="M1209.63,337.24s-12.73,102.38-14.85,117.68l-53.92-4.18,3.48-120.15Z"/><polygon class="cls-36" points="1143.67 340.84 1142.68 450.31 1142.68 450.31 1142.39 451.78 1140.86 451.56 1143.67 340.84"/><path class="cls-4" d="M1000.3,912.54s-49.07,22.63-68,36.76c-22.24,16.62,2.72,10.55,2.72,10.55s16.3,2.85,25.54,3.52S1027,936.3,1027,936.3l-4.84-22.2Z"/><polygon class="cls-34" points="992.77 917.65 939.93 811.62 992.18 918.28 992.77 917.65"/><path class="cls-34" d="M992.08,918s-10.94,4.45-18.94,7.95c-2.09.91-4,1.76-5.42,2.45-7,3.32-21.06,10.88-21.06,10.88l.75.31s23.3-12.28,26.21-13.3S992.08,918,992.08,918Z"/><polygon class="cls-36" points="1083.29 314.48 1068.71 343.25 1069.62 338.21 1083.29 314.48"/><path class="cls-4" d="M444.68,332.78,466.17,325s12.52,1.24,21.44-2.58a76.18,76.18,0,0,0,17.54-11.52l20.46-8.33s10.79,1.44,11.49-1.9-3.2-4.94-7-6.5-60.48-4.34-60.48-4.34a103.05,103.05,0,0,1,13.8-10.93c7.57-4.93,6.87-10.83,3.15-14.08s-14.64,5-16.71,9.76-14.15,5.63-21.09,11.67-8.44,18.49-8.44,18.49C429.46,316.94,444.68,332.78,444.68,332.78Z"/><path class="cls-11" d="M513.53,302.69a5.54,5.54,0,0,0-2.82-2.66c-3.09-1.37-7.76-1.15-12.35.39a39.55,39.55,0,0,0-10.73,5.94,18,18,0,0,0-3.81,3.32,22,22,0,0,0,4.32-2.52,50.7,50.7,0,0,1,10.63-5.48c4.36-1.48,8.79-1.76,11.56-.76a5.71,5.71,0,0,1,2.74,2.05c.47.68.63,1.1.69,1.14S513.89,303.57,513.53,302.69Z"/><path class="cls-11" d="M487.23,300c-4.58,0-8.3.22-8.29.58s3.72.69,8.29.73,8.28-.22,8.28-.59S491.82,300,487.23,300Z"/><path class="cls-11" d="M474.28,302c2.85,3.16,3.7,6.5,4.05,6.53s0-3.87-3.07-7.38-7-4.31-7-4S471.44,298.86,474.28,302Z"/><path class="cls-37" d="M292.55,267.8s17.14,3.4,26.05,10.76,44.74,94.38,44.74,94.38l71.08-65.4s18.81,27.21,23.95,27.12c0,0-61,83.84-69.89,94.46s-27.06,21.24-38.71,21.24-18.84-5.48-24.32-11.3-19.19-23.3-19.19-23.3Z"/><path class="cls-37" d="M321.85,486.31c-2.27-19.36-6.17-36.46-6.15-50.62,0,0-3.57-5.64-1.78-12.12,1.84-6.72,7.05-12.22,9.55-18.7a55.56,55.56,0,0,0,4.18-21.35,158.4,158.4,0,0,0-2.95-26q-2.28-12.42-5.38-24.65c-2-7.87-4.07-15.74-5.94-23.65a261.77,261.77,0,0,1-6.26-34.85c-2.22-1.36-4.49-2.66-6.84-3.84L246.17,253,244,242l-54.9-4.67-30.48,16s-51.24,15.75-59.39,23.27c-10,9.18,16.88,158.71,16.88,158.71S97.27,526.12,93.31,544.91s3.5,44.72,3.5,44.72l42-42.14c11.5-15.13,31.88-21.42,50.93-21.77l138.15-4.45-4.53-31.67C322.84,488.51,322,487.51,321.85,486.31Z"/><path class="cls-37" d="M99.22,276.66S83.38,288,77.37,316.21s-22.2,118-5,166.38c6.11,17.17,122.18,43.05,122.18,43.05l20.26-62-86-31s-1-54.37-1-76.89S99.22,276.66,99.22,276.66Z"/><path class="cls-38" d="M139.44,317.33c-.27,0-.28-2.94-1.21-7.13a43.62,43.62,0,0,0-7-15.65,47.16,47.16,0,0,0-6.34-7.05,42.12,42.12,0,0,0-6.29-4.58c-3.82-2.24-6.5-3.06-6.42-3.3s.7,0,1.93.41a14,14,0,0,1,2.18.75,22.08,22.08,0,0,1,2.79,1.3,36.45,36.45,0,0,1,6.64,4.44,43,43,0,0,1,6.64,7.23A39.85,39.85,0,0,1,139.2,310a31,31,0,0,1,.44,5.36A6.08,6.08,0,0,1,139.44,317.33Z"/><path class="cls-38" d="M317.15,334.66s15.05,40.64,9,61.53c-5.37,18.63-12,27.38-12,27.38l12,83-1.84.06-11.66-83.15s14.35-28.32,13.61-42.3S317.15,334.66,317.15,334.66Z"/><path class="cls-38" d="M142.52,336.21s-3.85,81.76-9.85,101.1l113.66,37.37.21,38.9s-73.19.4-143.84-13.68l-.78,3.75S183.78,518.32,246.33,515l-.09-42.48-112-36.24S143.48,397.15,142.52,336.21Z"/><path class="cls-39" d="M146.37,103.82c3.68-6.55,10-11.32,17.31-10.14-1.76-13.9,10.88-23.51,24.77-25.35,7.17-.62,14.86,1.84,21.36-1.23,4.06-1.91,6.9-5.54,10.22-8.67,13.91-12.74,38.94-2.22,53.15,10.2s12.65,28.08,7.94,46.34c-2.19,8.5-1.24,12.9-1.26,21.73,0,8.33-3.41,24.17-2.65,32.36s14.44,15.43,6.24,16.94l-91-1.26c-13.1,4-22,.87-30.11-10.2-5.29-7.54-3.84-8.06-5.38-17.12-2.3-11.81-15.35-19.52-15.88-31.55C140.49,118.34,143.08,110.61,146.37,103.82Z"/><path class="cls-40" d="M135.15,104.48s29.5-18.65,70.07-18.37,62.72,22.83,71.55,39.73,3.29,36.21,3.29,36.21,10.31,1.68,13.23-35.11c4.26-53.63-52.81-79.78-65.76-78.26S146.85,43.68,135.15,104.48Z"/><path class="cls-4" d="M178.53,186.08s5,34-4,56.08c-1.26,3.07-21.28,14.49-21.29,14.5,1.41-.81,10.9,3.8,12.45,4.4,5.79,2.24,11.34,4.59,17.43,6,12.63,2.92,25.72,3.23,38.62,2.87s32.52-1.21,41.66-12c-3.55-1.78-15.49-3-16.42-7.91-.73-3.85,2.86-32.81,2.86-32.81"/><path class="cls-11" d="M246.84,238.66s-6.81-.45-11.56-1.3-12.63.19-35.73-16.22c0,0,8.46,22.11,36.12,24.33,0,0,7.17.79,11.68-.77Z"/><path class="cls-4" d="M257.32,98.24l.32.2a3.46,3.46,0,0,1-.32-.46Zm11.76,2.22c.18.15.37.31.57.46v-.21S269.08,100.2,269.08,100.46ZM196.44,218.82c11.15,11.06,28.43,22.67,45.75,21.72,6.2-.34,12.15-3.67,16.37-7.75,6.41-6.21,13.18-12.53,17.89-19.79,4.53-7,6.5-11.28,8.42-19.33,2-8.33,1.94-10.52.9-18.79a82.06,82.06,0,0,1-.6-12.85c.24-4.11,1.84-20.32,2.05-29.81s-7.58-27.31-7.58-27.31c-.58-2.56-4.1-1.17-5.51-3.21H273a1.1,1.1,0,0,1,.57,1,8.7,8.7,0,0,1-3.93-1.81v0c-1.67.78-3.36,0-4.77-1.25,0,.26.29.77.57.76A5.6,5.6,0,0,1,261,99c0,.26.29.77.29,1a10.19,10.19,0,0,1-3.61-1.56c.26.34,6.56-.69,6.56-.51-1.67.27.25.81-1.16-.46l-1.39-1c-1.4.27-1.34,1.11-2.46.1.28.25-.8-2.82-.79-2.57-1.68,0-1.23-.1-2.63-.86,0,.26-4.56,1.7-4.56,2-1.4,0-1,1.29-2.14.27.28.26,1-1.08,1.28-.83-1.68.27-2.3,1.36-3.71.08.28.26-5.55-2.77-5.55-2.77-1.67.27-1.39.8-2.79-.22.56.51-7.75-.42-7.47.09-1.39,0,2.71,5.11,1.59,4.34,0,.26-3.22-.74-3.22-.74-1.4.27.71,1.53-.42.52,0,.25.29,1,.57,1a5.75,5.75,0,0,1-5.32-.73c.57.51.85,1,1.13,1.27-1.4,0-2.51.28-3.92-.74,0,.26.57,1,.85,1a5.55,5.55,0,0,1-4.48-.47c0,.25.57.76.84,1a3.94,3.94,0,0,1-3.35-.48l.84,1c-1.11,0-1.95.53-3.63,0,0,.25.56.5.56.76a10.13,10.13,0,0,1-2.79-.23c0,.25.84.76.56.76-1.12,0-1.95.53-3.35,0,.28.25.56.76.84,1a7.54,7.54,0,0,1-3.36-.23,2,2,0,0,0,.57,1c-1.12,0-2,.53-3.35,0,0,.26.56.77.84,1a14.44,14.44,0,0,1-3.35,0c0,.26.56.51.84.76a8.91,8.91,0,0,1-3.64-.23c0,.52.29.77.29,1-.84,0-1.4-.25-2.24-.24l-1.39.52c-3.88,5.17-18.6,1.13-18.6,1.13-8.61,7,3.27,42.37,3.59,47.24s-2.44,6.25-2.44,6.25c-1.42-1.78-3.08,3.54-3.93,1.5-.86-1.79-.32-4.11-1.17-5.9-2.55-4.08-8.13-2.76-11.18-.17l-.51.85c-4.23,5.83.59,23.83,3.81,29.16,1,10.9,10.69,16.53,16,8.6l1.56,4.24"/><path class="cls-15" d="M252.67,190.71a8,8,0,0,1-7.29-.41c-.46-.28-2,0-1.34.4a11.26,11.26,0,0,0,9.92.39c.26-.14.21-.34-.12-.45a1.78,1.78,0,0,0-1.17.07"/><path class="cls-15" d="M243.14,190.12a13,13,0,0,0-4.5-1.08,1.06,1.06,0,0,0-.69.23c-.13.11-.15.27,0,.36a4.87,4.87,0,0,0,2.47.55,1,1,0,0,0,.76-.3c.13-.21-.12-.35-.33-.34a3.79,3.79,0,0,1-2-.45l-.67.59a11.8,11.8,0,0,1,4,1,1,1,0,0,0,.82-.09c.16-.1.34-.33.09-.45"/><path class="cls-15" d="M237,190.36c-1.81,0-3.95-.8-4.85-2.15-1.36-2-.13-5.3,2.12-6.62.25-.15.11-.33-.14-.38a1.44,1.44,0,0,0-1,.21,6.26,6.26,0,0,0-2.92,5.75c.3,1.79,2,3,4.21,3.54a9.72,9.72,0,0,0,2,.26c.27,0,.77-.08.9-.29s-.12-.31-.38-.32"/><path class="cls-15" d="M256,189.76a.24.24,0,0,1,.23-.34,2.1,2.1,0,0,0,1.4-.47l.49.58a6.4,6.4,0,0,0-2.83,1,.52.52,0,0,1-.59-.08c-.11-.1-.24-.32-.07-.44"/><path class="cls-15" d="M254.61,190a7.16,7.16,0,0,1,3.17-1.14.58.58,0,0,1,.49.21c.09.12.12.27,0,.37"/><path class="cls-15" d="M259.75,190a3.7,3.7,0,0,0,3.13-2.21,5.3,5.3,0,0,0-1.45-5.79.21.21,0,0,1,.08-.38.7.7,0,0,1,.63.2,5.91,5.91,0,0,1,2,4.9,4.15,4.15,0,0,1-2.69,3.6,4.27,4.27,0,0,1-1.31.28.64.64,0,0,1-.59-.28c-.09-.22.08-.31.24-.32"/><path class="cls-41" d="M273.45,154.83a4.37,4.37,0,0,1,4.58.71,4.31,4.31,0,0,1,1,1.87,4,4,0,0,1-.92,3.69,3.78,3.78,0,0,1-4.31.78,4.15,4.15,0,0,1-2.08-4.81,3.71,3.71,0,0,1,1.73-2.24"/><path class="cls-41" d="M257.63,160.11s7.51-6,11.37-6.42c5.63-.6,12.6,2.47,14.62,5.25,0,0-9.23-4.6-13.18-4.06C266.65,155.4,257.63,160.11,257.63,160.11Z"/><path class="cls-41" d="M226.41,155.76a5.25,5.25,0,0,0-5.06.36,3.87,3.87,0,0,0-1.17,1.85,4.07,4.07,0,0,0,1,3.67,3.77,3.77,0,0,0,4.32.72,4.16,4.16,0,0,0,2-4.84c-.1-.31.21-.9-1.05-1.54"/><path class="cls-41" d="M234.24,159.84s-8.57-5.36-12.77-5.45c-6.13-.13-13.41,3.51-15.37,6.45,0,0,9.6-5.35,13.91-5.14C224.14,155.9,234.24,159.84,234.24,159.84Z"/><path class="cls-42" d="M257.49,140.1c0,1.14.09,2.28.13,3.43l.12,2.61c2.89-.84,5.37-1.41,7.24-1.79,4-.81,6-1.2,8.33-.9a22.17,22.17,0,0,1,5.35,1.48,14.51,14.51,0,0,1,2.85,1.38c2,1.35,2.87,2.92,3.18,2.77s-.24-1.53-.29-1.67a13.39,13.39,0,0,0-4.39-5.65,15.73,15.73,0,0,0-5.47-2.28c-2.31-.5-8.66-.69-17.05.62"/><path class="cls-42" d="M237.31,140.19c-.11,1.14-.22,2.28-.34,3.42-.08.87-.17,1.74-.26,2.6-3.09-1-5.76-1.76-7.77-2.26-4.26-1.07-6.44-1.6-9-1.45a25.43,25.43,0,0,0-5.9,1.13,15.85,15.85,0,0,0-3.16,1.19c-2.26,1.21-3.28,2.72-3.62,2.55s.35-1.51.42-1.64a13.64,13.64,0,0,1,5.07-5.36,17.67,17.67,0,0,1,6.06-1.91c2.54-.35,9.45-.13,18.48,1.73"/><path class="cls-43" d="M174.35,175.13c-7.21-14.09-11.6-13.88-11.6-13.88s-2.71,3.57-.77,10.21"/><path class="cls-43" d="M172.17,176.61c-3.95-.11-.42,7-1.38,8.82s-2.72-2.68-3.6-8.19c0,0-.53-7.48,3.09-9.11"/><path class="cls-11" d="M225.37,125.82s9.94,4.1,19.66,3.14,21.57-3.39,21.57-3.39"/><path class="cls-42" d="M273.39,94.1c-.13-.17.06.07,0,0-2.71-3.19-4.55-6.69-7.4-9.75s-5.49-5.72-8.44-8.56c-.18-.17-3.37,0-3.54-.15l-.19-.17-.28-.27-.66-.61c-15.66-5.27-34-4.63-50,1.85a60.73,60.73,0,0,0-33.55,79.07c1.07,2.67-.28,6.12,2.54,7.43s3.06.52,5.45-1.46a20.22,20.22,0,0,0,5.07-7.68c5.8-13.8,5.66-35,1.26-49.27,2,2.6,14.07-1.33,17,.23a23.53,23.53,0,0,0,31.88-9.52,35.89,35.89,0,0,0,4.11,4.25c13.6,11.89,30.42,16.78,43.23,6.43C280.32,105.54,275.09,96.13,273.39,94.1Z"/><path class="cls-44" d="M201.68,154.27l1.84,5.16c1.09,4,4.3,11.94,5.72,14.09,2,3,23.48,3.73,27.64,1.19s6.26-14.85,7.33-17.72l8.59.3c.83,3.66,3.75,15.24,5.41,16.78s11.5,1.05,12.6,1c.93-.05,2.21-.13,3.61-.27,3.71-.35,8.21-1.07,9.57-2.48,2-2.08,4.12-9.92,5.91-17.34l.29-1.16c.06-.28.15-.48.15-.56h0l.32-1.33c-12.47-5.64-28.66-4.32-38.35,3.12l.08.13-8.38-.34c-9.57-6.08-26-9.15-37.57-4.38h0l-36.16,6.81,0,3.22Zm57.52,18.59c-1-1-3.33-9.07-4.91-15.38,8.43-6.29,23-7.45,34.16-3v.16c-1,4-3.51,14.55-5.5,16.6-2.35,2.42-21.93,3.17-23.74,1.7Zm-47.43-.26a110,110,0,0,1-7.46-18.32c10.3-4.95,28.46-2.69,37.81,3.08-1.37,5.16-3.05,14.16-6,16-4.29,2.63-23.05,1.17-24.31-.73Z"/><path class="cls-45" d="M259.4,172.69c-1-1-3.33-9.07-4.9-15.39,8.43-6.28,23-7.44,34.15-3v.16c-1,4-3.52,14.55-5.5,16.6-2.35,2.42-21.94,3.17-23.75,1.7Z"/><path class="cls-45" d="M211.77,172.6a110,110,0,0,1-7.46-18.32c10.3-4.95,28.46-2.69,37.81,3.08-1.37,5.16-3.05,14.16-6,16-4.29,2.63-23.05,1.17-24.31-.73Z"/><path class="cls-46" d="M154.09,163s-32.36-19.16-23-43.84c1.8-4.74,2.18-3.27,1.95-7.2-1.23-20.6-8-15,19.88-41.85s32.31-26.82,78.54-27.67C255.29,42,269.17,50.7,277,65.1c3.53,6.47,5.85,14.1,7.32,22.57,0,0-49.67-9.29-77,8.93s-52.9,71.61-45.25,87.26C164.23,188.25,154.09,163,154.09,163Z"/><path class="cls-40" d="M133.31,142.29s35.49-63.64,90.05-70.57c0,0-68.28-.94-93.7,50.14l.08,5.72a30.85,30.85,0,0,0,2,10.41Z"/><path class="cls-47" d="M245.68,202.73c-8.67,0-22.72-1.11-22.72-1.11s2.58,18.07,22.69,18.11,22.75-18,22.75-18S254.35,202.75,245.68,202.73Z"/><path class="cls-48" d="M245.76,202.73c-4.12,0-20.74-.77-20.74-.77s5.48,9.6,20.39,9.63c16.17,0,20.93-9.42,20.93-9.42Z"/><path class="cls-49" d="M245.94,203.38c-4.12,0-16.67-.76-16.67-.76s4.51,4.76,16.88,4.78,16.3-4.59,16.3-4.59Z"/><path class="cls-47" d="M269.32,200.36c-.44-.11-2.84.72-4.89.54-3.41-.32-5.54-1.27-8-1.47-4.22-.35-6.9,1.4-8.74,1.39s-4.51-1.76-8.73-1.42c-2.47.19-8.59,1.13-12,1.43-2,.18-4.44-.66-4.88-.55-.61.16.56,4.87,23.63,4.91S269.93,200.52,269.32,200.36Z"/><rect class="cls-50" x="643.19" y="515.22" width="15.41" height="3.88"/><line class="cls-51" x1="612.45" y1="508.17" x2="628.39" y2="508.17"/><line class="cls-51" x1="612.45" y1="494.53" x2="628.39" y2="494.53"/><line class="cls-51" x1="612.45" y1="487.7" x2="628.39" y2="487.7"/><line class="cls-51" x1="612.45" y1="480.88" x2="628.39" y2="480.88"/><rect class="cls-52" x="299.57" y="510.47" width="162.86" height="4.65"/><path class="cls-38" d="M101.38,470.41a4.75,4.75,0,0,1-.06-2,26.11,26.11,0,0,1,.83-5.19A34.73,34.73,0,0,1,125,438.91a31.22,31.22,0,0,1,5.13-1.17,4.93,4.93,0,0,1,1.95-.07c0,.24-2.67.62-6.72,2.17a38.18,38.18,0,0,0-13.89,9.31,37.68,37.68,0,0,0-8.38,14.5C101.83,467.83,101.62,470.55,101.38,470.41Z"/><path class="cls-38" d="M343.62,413a4.78,4.78,0,0,1-.62-1.84,26.23,26.23,0,0,1-.71-5.21A34.71,34.71,0,0,1,357.06,376a31.33,31.33,0,0,1,4.57-2.61,5,5,0,0,1,1.85-.63c.07.23-2.38,1.37-5.81,4a38.12,38.12,0,0,0-10.59,12.93A37.69,37.69,0,0,0,343.26,406C343.3,410.39,343.89,413.06,343.62,413Z"/><path class="cls-53" d="M244.91,432.52l76.33,71,7.21,3.41,4,2-1.87-3.4-3.77-7-77.26-71a3.42,3.42,0,0,0-4.64,0h0a3.42,3.42,0,0,0-.16,4.82Z"/><path class="cls-4" d="M246.33,474.68l6,1.07s31-11.45,35.45-12c3.4-.44,19.74,3.41,27,5.16a6.32,6.32,0,0,1,4.92,6.33v.14a6.38,6.38,0,0,1-4,5.41h0s6.09,1.89,3.33,8.33c-2,4.76-8.46,4-8.46,4l-10.73.21s2.73.82,6.81,1.78c4.43,1,5.61,1.84,5.61,1.84s6.48,6.23.22,8.83a13.38,13.38,0,0,1-6.55,1.13s1.88,6.69-3.13,7.85-38.11-.23-38.11-.23-1.75-2.11-8.49-2.69l-9.34-.65Z"/><path class="cls-11" d="M246.33,474.68v2.55c0,1.69.09,4.12.15,7.26.12,6.29.3,15.4.51,26.7l-.19-.19,8.57.58c1.5.1,3.05.26,4.61.49s3.22,1.7,4.75,2.27h-.09c6.91.5,14.43-.15,22.41.21,4,.17,8.09.32,12.29.26a24.91,24.91,0,0,0,3.11-.25,4,4,0,0,0,2.52-1.48,5.18,5.18,0,0,0,.93-2.9,10.45,10.45,0,0,0-.31-3.15l-.09-.4h.4a12.06,12.06,0,0,0,4.14-.39,9.6,9.6,0,0,0,3.84-1.72,3.22,3.22,0,0,0,.6-3.8,11.58,11.58,0,0,0-2.49-3.59h0a24.11,24.11,0,0,0-5.15-1.7l-7.24-1.89-2-.51h2.06l10.73-.2h0a11.15,11.15,0,0,0,4.33-.49,6.27,6.27,0,0,0,3.41-2.48c.19-.28.33-.61.5-.92l.36-1c.1-.34.16-.68.24-1a5.21,5.21,0,0,0,.08-1,4.91,4.91,0,0,0-1.69-3.6,6.88,6.88,0,0,0-1.74-1.14l-.23-.1h-.18c0,.45-.06-.62,0-.51h0l.47-.22a7.64,7.64,0,0,0,.86-.53,6.11,6.11,0,0,0,2.27-3.23,5.88,5.88,0,0,0-.26-3.86,6.17,6.17,0,0,0-2.55-2.84,13.18,13.18,0,0,0-3.69-1.14l-3.78-.9c-2.5-.58-4.95-1.14-7.34-1.65s-4.73-1-7-1.41c-1.13-.2-2.27-.39-3.4-.53a17.28,17.28,0,0,0-3.29-.22,54,54,0,0,0-6.1,1.68c-1.95.62-3.83,1.25-5.67,1.85l-9.92,3.41-13.86,4.94h0l-4.48-.85-1.14-.22-.37-.08h.35l1.13.19,4.55.76h0c3.15-1.2,7.85-2.93,13.81-5.08,3-1.14,6.29-2.27,9.9-3.49,1.8-.61,3.68-1.26,5.68-1.88a51,51,0,0,1,6.18-1.72,16.94,16.94,0,0,1,3.41.2c1.13.14,2.27.33,3.4.53,2.28.4,4.65.86,7.05,1.39s4.85,1.05,7.35,1.63l3.79.89,1.92.46a7.77,7.77,0,0,1,1.92.76,6.86,6.86,0,0,1,2.77,3.09,6.35,6.35,0,0,1,.28,4.21,6.59,6.59,0,0,1-2.45,3.52,8.18,8.18,0,0,1-.94.58c-.16.09-.33.15-.5.23h0v-.5h.2l.25.11a7.35,7.35,0,0,1,1.88,1.13,6,6,0,0,1,1.37,1.79,5.58,5.58,0,0,1,.51,2.21,5.47,5.47,0,0,1-.08,1.14c-.08.37-.15.73-.26,1.13l-.37,1.07c-.19.34-.35.69-.55,1a6.78,6.78,0,0,1-3.66,2.69,11.27,11.27,0,0,1-4.54.52h0l-10.73.22.08-.56,7.21,1.88a24.11,24.11,0,0,1,5.34,1.78h0a12,12,0,0,1,2.62,3.79,4.57,4.57,0,0,1,.36,2.28,3.32,3.32,0,0,1-1.13,2.09,10.35,10.35,0,0,1-4.09,1.86,12.59,12.59,0,0,1-4.36.4l.32-.36a11.78,11.78,0,0,1,.33,3.34,5.75,5.75,0,0,1-1.05,3.18,4.58,4.58,0,0,1-2.86,1.7,22.87,22.87,0,0,1-3.2.25c-4.23.08-8.34-.11-12.34-.28-7.95-.37-15.49.25-22.42-.26h-.07c-1.46-.55-3-2.07-4.54-2.27s-3.08-.4-4.54-.5l-8.57-.61h-.18V511c-.13-11.36-.22-20.52-.28-26.85v-9.07C246.45,474.68,246.33,474.68,246.33,474.68Z"/><path class="cls-11" d="M315.14,480.76a65.34,65.34,0,0,1-8.51-.5,65,65,0,0,1-8.46-1.06,63.73,63.73,0,0,1,8.51.5A65.19,65.19,0,0,1,315.14,480.76Z"/><path class="cls-11" d="M281.66,511.21c0,.05-.49-.12-1-.66a4.24,4.24,0,0,1-1.13-2.72,4.12,4.12,0,0,1,.93-2.77c.49-.59.93-.79,1-.74a11,11,0,0,1-.64,1,4.62,4.62,0,0,0-.69,2.53,4.5,4.5,0,0,0,.87,2.47C281.35,510.85,281.7,511.13,281.66,511.21Z"/><path class="cls-11" d="M281.16,500c0,.07-.58,0-1.32-.47a4,4,0,0,1-1-5.63,3.38,3.38,0,0,1,.37-.46c.62-.65,1.14-.81,1.14-.75s-.41.35-.89,1a4.26,4.26,0,0,0-.83,2.91,4.16,4.16,0,0,0,1.45,2.64C280.69,499.71,281.19,499.88,281.16,500Z"/><path class="cls-11" d="M281,486.9c0,.06-.57-.26-1.13-1.08A5.1,5.1,0,0,1,281,479a2.41,2.41,0,0,1,1.41-.64c0,.06-.5.33-1.14.95a5.22,5.22,0,0,0-1.13,6.36C280.61,486.42,281,486.83,281,486.9Z"/><path class="cls-11" d="M280.62,467a1.22,1.22,0,0,1-.52-.55,2.79,2.79,0,0,1,.82-3.36c.4-.27.71-.3.73-.25a4.25,4.25,0,0,0-1.17,1.93A5.26,5.26,0,0,0,280.62,467Z"/><path class="cls-11" d="M300.63,493.12a19.82,19.82,0,0,1-4.62.2,19.36,19.36,0,0,1-4.62-.37,19.33,19.33,0,0,1,4.62-.2A18.82,18.82,0,0,1,300.63,493.12Z"/><path class="cls-11" d="M305.65,506.92a62.68,62.68,0,0,1-8.37-1.48,66.73,66.73,0,0,1-8.25-2.05,62.56,62.56,0,0,1,8.36,1.49A65.1,65.1,0,0,1,305.65,506.92Z"/><path class="cls-54" d="M828.35,197.25h0c-1.83-7-2.51-11.36-.59-16.24,1.36-3.44,7.34-7,7.34-7s1.33-10.32,6-8.88c0,0,4.6-13.76,18.21-10.19,0,0,4.15-1,6.46,1.54,0,0,6.43-11.84,18.14-3.59,0,0,4.53-2.9,6.05.69,0,0,7.88-7.43,15.61-1.4,0,0,19.76-3.83,24.56,8.54,0,0,9.58-4.82,14.5,4.27,0,0,5,.41,5,7.28,0,0,7.4,2.19,8.07,6.7,0,0,4.25,3.39,3.94,10.57-.09,2.06-.77,1.51-1.45,4.29C964.22,202,958,203,958,203c6.32,7.62-1.69,17.07-1.69,17.07s3.13,5.91,1.39,9.68c-2.37,5.15-12.33,10.79-12.33,10.79s-2.34-13.89-1.77-22.69-6.57-24.15-8.93-27.48S915.21,193,889.08,193s-31.37-4.68-34.48-3.84c-6.47,1.73-11.93,24.6-11.76,31.52s-2,20-2,20S827,234.72,830.74,223.1c0,0-4.55-8.38-2.77-13.43a5.17,5.17,0,0,1,1.55-3.16S824.8,201.33,828.35,197.25Z"/><path class="cls-4" d="M915.45,285.1c-10.32,12-25.94,20.27-40.63,23.57-14.41,3.24-19.37-1.47-21.42-3.57-11.28-11.51-18.72-23.27-23.13-36.93A34,34,0,0,1,829,256.31c.26-6.18,1.19-18.05,1-24-.52-15,.88-28.71,8.91-41.51,16.75-26.67,57.88-26.94,73.28-20,18,8.13,26.38,25.21,27.84,43.51a49.54,49.54,0,0,1-1.42,16.77,53,53,0,0,0-6.41,9.2"/><path class="cls-55" d="M839,193.37s-1.18,1.11-8.63,19.58c1.8-5.86,2.65-14.63,7.43-22.86,16.68-28.74,70.91-25.94,86.32-18.4,18,8.82,25,27,26.48,46.79.61,8,1,13.13-1.21,19.84-.11.09-1.49,1.59-1.49,1.59s-16.09,3.42-21.24,13.32l-.39-8.53s-4.23-10.59-7.75-28.92c0,0-.25-10.09-.17-13.12.26-9.34-8.08-7.23-13.85-5.64a76.44,76.44,0,0,1-15.1,1.7c-9.5,0-21.54-1.22-26-1.1C857.14,197.8,839,193.37,839,193.37Z"/><path class="cls-56" d="M838.4,193.44a10.16,10.16,0,0,0-1.55,2.86c-2.61,5.48-4.87,11.14-7.14,16.77l1.29-.25c1.11-3.66,1.77-7.44,2.76-11.14a47.59,47.59,0,0,1,5-12.3,38.42,38.42,0,0,1,11.85-12c10-6.57,22.26-9.29,34.07-10.2a99,99,0,0,1,31.73,2.27c11.85,3,21.35,11.43,26.77,22.31a67.77,67.77,0,0,1,6.12,21c.56,4.1.87,8.26,1,12.39a36.63,36.63,0,0,1-1.32,12.24,3.28,3.28,0,0,1-.86,1.56l-1,1,.78-.33a45.82,45.82,0,0,0-9.19,3.1c-5.06,2.27-10.15,5.53-12.83,10.55l1.31-.3-.2-4.39a27.15,27.15,0,0,0-.19-4.14,14.67,14.67,0,0,0-.66-1.78c-.58-1.62-1.11-3.27-1.62-4.92-1.9-6.13-3.46-12.38-4.76-18.67a30.77,30.77,0,0,1-.77-5.85Q919,209.66,919,206c0-3.82.66-9.1-4-10.36-4.14-1.11-8.44.87-12.45,1.62-12.47,2.32-24.91.26-37.44.09-8.4-.11-16.73-2.14-24.87-4.07l-.67-.17c-.29-.07-1.42.4-1.09.48,2.85.7,5.72,1.33,8.6,1.93a100.38,100.38,0,0,0,14.09,2.28c2,.13,3.93.05,5.89.14,3.14.15,6.28.37,9.43.55a128.06,128.06,0,0,0,19,.1,62.35,62.35,0,0,0,8.28-1.21A53.42,53.42,0,0,1,910.2,196c2-.21,4.25-.12,5.78,1.32,1.72,1.63,1.71,4.14,1.69,6.34,0,4-.14,8.16.17,12.17a34.88,34.88,0,0,0,.81,4.17q.61,2.91,1.3,5.8c.73,3.06,1.52,6.11,2.39,9.14.93,3.23,2,6.4,3.1,9.56a5.61,5.61,0,0,1,.22,1.75l.27,5.86.06,1.33c0,.25,1.21-.11,1.31-.3,3.4-6.39,10.61-9.95,17.23-12.08q1.35-.44,2.73-.78a2.85,2.85,0,0,0,1.28-.46,6.4,6.4,0,0,0,2.19-3.94,32.72,32.72,0,0,0,1-6.75,97.38,97.38,0,0,0-.88-15.17,79.7,79.7,0,0,0-2.72-13.34c-2.47-8.2-6.62-15.94-12.88-21.87a39.45,39.45,0,0,0-16.67-9.46,85,85,0,0,0-17.16-2.64c-13.94-.89-28.52.49-41.6,5.62A49,49,0,0,0,842.71,183c-6.47,6.53-9.4,15-11.42,23.75-.49,2.12-.95,4.25-1.58,6.33-.06.21,1.18.05,1.29-.25,2.26-5.58,4.51-11.2,7.09-16.64.38-.82.77-1.65,1.23-2.43,0-.1.37-.54.26-.44C839.82,193.08,838.62,193.23,838.4,193.44Z"/><path class="cls-4" d="M924.35,270.82c7.76,7.68,15.71-4.87,15.71-4.87,7.17-9,7-18.45,6.55-24.89s-7.5-6.2-7.5-6.2c-6,.79-5.15,1.48-12.94,18.81"/><path class="cls-57" d="M932.68,253.43a53.26,53.26,0,0,1,3.72-8.35,17.53,17.53,0,0,1,3-4,6.74,6.74,0,0,1,1-.82,3.62,3.62,0,0,1,.49-.24c-.07,0,0,0-.06,0,.07,0-.36.05-.33,0s.62.86.66.92a12.26,12.26,0,0,1,1.16,8c0,.27,1,.1,1-.16a12.54,12.54,0,0,0-1-7.85,3.87,3.87,0,0,0-.82-1.21.74.74,0,0,0-.65,0c-2,.49-3.57,2.67-4.63,4.32a46.44,46.44,0,0,0-4.48,9.61c-.08.21.89.1,1-.17Z"/><path class="cls-57" d="M931.82,256.9c3.79.16-1.16,8.47,1.44,8.35a2,2,0,0,0,1.62-1.14,21.14,21.14,0,0,0,2.29-9.11c-.07-2.1-.45-4.88-2.52-6-.24-.13-1,.28-.94.33,1.74.93,2.23,3.14,2.4,5a12.81,12.81,0,0,1-.13,3.86,30.5,30.5,0,0,1-1.38,4.67,10.51,10.51,0,0,1-.66,1.4,3.48,3.48,0,0,1-.34.51l-.17.19c-.06.22.36,0,.34-.08s-.29-.42-.33-.67a3.63,3.63,0,0,1,0-1.09c.13-.9.38-1.77.56-2.66.32-1.6.63-3.81-1.57-3.9-.19,0-1.12.35-.65.37Z"/><path class="cls-57" d="M885.35,236.83a4.58,4.58,0,0,1,4.9,1,4.44,4.44,0,0,1,1.28,2.09,4.52,4.52,0,0,1-1.16,4.1,4.21,4.21,0,0,1-4.86.74,4.64,4.64,0,0,1-2.17-5.46,4.12,4.12,0,0,1,2-2.47"/><path class="cls-57" d="M876,244s6.3-8.9,12.79-8.76c9.14.2,11.17,5.57,13.1,8.37,0,0-5.79-6.61-12.86-6.6C882.57,237.07,876,244,876,244Z"/><path class="cls-57" d="M840.52,235.83a4,4,0,0,0-4.61.78,4.53,4.53,0,0,0-1.28,2,4.79,4.79,0,0,0,.92,4.16,3.75,3.75,0,0,0,4.5.95c2-.95,2.7-3.49,2.25-5.37a4.2,4.2,0,0,0-1.78-2.55"/><path class="cls-57" d="M851.85,243.54s-5.08-9.16-10.69-9.29c-7.9-.19-9.87,5.08-11.64,7.8,0,0,5.25-6.36,11.36-6.05C846.41,236.29,851.85,243.54,851.85,243.54Z"/><path class="cls-15" d="M858.13,266.45a6.51,6.51,0,0,0,6-.31c.38-.24,1.64,0,1.11.33a9.22,9.22,0,0,1-8.15.3c-.22-.12-.18-.29.1-.37a1.43,1.43,0,0,1,1,.05"/><path class="cls-15" d="M866,266a10.34,10.34,0,0,1,3.69-.88.84.84,0,0,1,.56.18c.11.1.13.23,0,.31a4,4,0,0,1-2,.44.75.75,0,0,1-.62-.25c-.11-.17.1-.28.27-.28a3.13,3.13,0,0,0,1.63-.36l.56.49a9.4,9.4,0,0,0-3.31.8.79.79,0,0,1-.67-.08c-.13-.08-.28-.27-.07-.37"/><path class="cls-15" d="M871,266.2a5.09,5.09,0,0,0,4-1.77c1.12-1.68.11-4.55-1.74-5.65-.2-.12-.1-.27.11-.31a1.19,1.19,0,0,1,.79.17,5.5,5.5,0,0,1,2.4,4.94c-.24,1.48-1.68,2.51-3.46,2.92a8.38,8.38,0,0,1-1.66.21c-.22,0-.63-.07-.74-.25s.1-.25.31-.26"/><path class="cls-15" d="M855.4,265.66a.19.19,0,0,0-.18-.28,1.73,1.73,0,0,1-1.15-.39l-.4.48a5.1,5.1,0,0,1,2.32.86.41.41,0,0,0,.48-.07c.1-.08.2-.27.06-.37"/><path class="cls-15" d="M856.53,265.89a5.79,5.79,0,0,0-2.6-.95.49.49,0,0,0-.4.18.2.2,0,0,0,0,.3"/><path class="cls-15" d="M852.31,265.83a3,3,0,0,1-2.57-1.83,4.39,4.39,0,0,1,1.2-4.79.18.18,0,0,0-.07-.32.58.58,0,0,0-.52.16,4.91,4.91,0,0,0-1.61,4.06,3.42,3.42,0,0,0,2.21,3,3.32,3.32,0,0,0,1.07.24c.15,0,.41-.05.48-.23s-.06-.26-.19-.27"/><path class="cls-55" d="M877.81,221.49c0,1.45,0,2.91,0,4.37l0,3.32c3.26-1,6-1.57,8.16-2a36.59,36.59,0,0,1,12.77-.66,13.59,13.59,0,0,1,5.5,2c.54.35,2,1.88,2.78,1.48.33-.16-.22-1.95-.27-2.13-1.12-3.6-4-5.09-7.48-5.93-7.13-1.71-14.29-1.48-21.52-.46"/><path class="cls-55" d="M829.52,225.34a11.86,11.86,0,0,0,.67-2.7,17.53,17.53,0,0,1,2.19-.69c7-1.71,14.06-1.48,21.18-.46,0,1.45,0,2.91,0,4.37l0,3.32c-3.21-1-6-1.57-8-2a35.47,35.47,0,0,0-12.57-.66,15.15,15.15,0,0,0-3.38.93Z"/><path class="cls-11" d="M870.75,308.41s6-.4,10.19-1.15,11.14.17,31.51-14.3c0,0-7.46,19.49-31.85,21.46,0,0-6.32.69-10.3-.69Z"/><path class="cls-25" d="M863.79,903.08s8.33,5.15,8.06,9.5S855.3,925,851.14,927.4,793.28,961,787.7,963.51s-36.55,14-43.79,9.07c0,0-12.25-8.3-3.8-16.61s16.61-10.13,24-19.13a110.25,110.25,0,0,0,19.07-35.46s5.58-12.41,10.55-13,13.7,6,18.19,6.54,22.79-4.2,23.44-14.84,3.33-7.86,7.24-8,16.09,12.69,17.83,20.36S863.79,903.08,863.79,903.08Z"/><path class="cls-26" d="M863.79,903.08s-24.26,13.6-33.54,22.29-35.58,27.68-50.76,34.34-39.07,9.74-39.07,9.74-.37,3,8.05,4.33,30.16-4.9,47.18-14.56,42.1-23.43,47.46-26.11,27.49-14.28,28.63-20C872.69,908.32,863.79,903.08,863.79,903.08Z"/><path class="cls-27" d="M831.37,925.07a44.81,44.81,0,0,1-1.18-16.34c.49-4.36,1.79-8.79,4.62-12.23a51.55,51.55,0,0,1,6.47-6.24c1.89-1.62,3.84-3.15,5.87-4.58a38.3,38.3,0,0,1,6.26-3.78c1.4-.63.15-1.74-1-1.24a38.9,38.9,0,0,0-5.58,3.26A80,80,0,0,0,834,894.73c-6.15,6.34-6.92,15.91-6,24.27a44.51,44.51,0,0,0,1.15,6.67c.27,1,2.5.38,2.24-.6Z"/><path class="cls-27" d="M812.85,896a44.2,44.2,0,0,1-10.44,9.42c-4.58,3.13-10,5.58-12.66,10.74a62.44,62.44,0,0,0-2.69,7.25,31.87,31.87,0,0,1-3.7,7.32,22.19,22.19,0,0,1-6.39,6.16c-3.26,2-6.9,2.71-10.59,3.5L758.56,942c-.29.06-1.28.25-1.29.67s.63.38.92.32c8.66-1.84,18.17-2.69,24.69-9.33a27.19,27.19,0,0,0,4.85-7,71.82,71.82,0,0,0,2.95-7.8,16.94,16.94,0,0,1,3.41-6.12,33.51,33.51,0,0,1,7.18-5.32c5-3.08,10.06-6.81,13.63-11.54.5-.67-1.68-.41-2,.08Z"/><path class="cls-27" d="M742.08,953.49a4.22,4.22,0,0,0,2.86,2.37c3.22.88,6.38-1,9.23-2.18A56.3,56.3,0,0,1,765,950.06a18.6,18.6,0,0,1,5.31-.4,12.21,12.21,0,0,1,5.09,1.9,42.77,42.77,0,0,1,7.46,5.2c.66.59,2.77-.3,2.06-.93a42.44,42.44,0,0,0-5.41-4c-3.1-2-6-3.66-9.81-3.64a34.17,34.17,0,0,0-10.8,2.19c-1.71.59-3.39,1.24-5.06,1.94a43.7,43.7,0,0,1-4.9,2.05c-1.69.49-4,.24-4.65-1.45-.34-.89-2.56-.25-2.24.6Z"/><path class="cls-2" d="M793.38,901.59l0-.08c.21-.66-.48-1.43-1.55-1.7l-7.68-2c-1.07-.28-2.12,0-2.33.7l0,.08c-.22.66.47,1.42,1.54,1.7l7.68,2C792.11,902.56,793.16,902.25,793.38,901.59Z"/><path class="cls-2" d="M788.27,907.9l.08-.25c.16-.46-.49-1-1.46-1.31l-5.71-1.51c-1-.25-1.89-.08-2,.39l-.08.24c-.16.47.5,1.06,1.46,1.31l5.72,1.51C787.19,908.54,788.11,908.36,788.27,907.9Z"/><path class="cls-2" d="M784.24,913.54l.14-.41c.15-.42-.44-1-1.31-1.18L779,910.87c-.87-.23-1.69-.07-1.84.35l-.14.41c-.14.42.45,1,1.31,1.18l4.09,1.08C783.27,914.12,784.09,914,784.24,913.54Z"/><path class="cls-2" d="M781.37,918.94l.17-.49c.16-.5-.41-1.08-1.28-1.31l-4.08-1.07c-.87-.22-1.71,0-1.88.49l-.16.48c-.17.5.41,1.09,1.27,1.31l4.09,1.07C780.37,919.65,781.21,919.43,781.37,918.94Z"/><g id="freepik--Desk--inject-20"><path class="cls-8" d="M190.24,985.85h0A15.13,15.13,0,0,1,175,971.08l-7.1-422.75h44.62l-7.09,422.75A15.13,15.13,0,0,1,190.24,985.85Z"/><path class="cls-8" d="M1092.78,985.85h0a15.12,15.12,0,0,1-15.21-14.77l-7.1-422.75h44.62L1108,971.08A15.13,15.13,0,0,1,1092.78,985.85Z"/><rect class="cls-8" x="122.9" y="515" width="1029.92" height="47.31"/></g><polygon class="cls-9" points="211.78 594.72 168.71 594.72 167.93 562.3 212.18 562.3 211.78 594.72"/><polygon class="cls-9" points="1114.31 594.72 1071.25 594.72 1070.65 562.3 1114.9 562.3 1114.31 594.72"/><path class="cls-22" d="M902,962.22s-3.05-7.3,2-9.21,22-6.35,24.76-5.88c-.44,5.82,2.31,5.92,8.21,7.55a75.68,75.68,0,0,0,33.64,1.6c11.21-2.11,27.94-10.21,38-15.86,3.35-1.9,11.56-9.24,18.44-10.25,3.29,4.74,5.65,24.5.32,27.88s-37.25,5.82-37.25,5.82l-28.16,6.56-26.66,1.36L924,971.64,913.5,968Z"/><path class="cls-24" d="M1028.68,956.74c-3.46,1.16-14.58,3-24.13,3.25-25.64.68-34.18,3.82-42.81,6.37A110.54,110.54,0,0,1,946.59,970c-29.83,5-44.61-9.61-45.23-10a2.73,2.73,0,0,0-.78,1.38,68.57,68.57,0,0,0,5.84,4.7c5.49,3.88,18.19,11.13,41.31,7.71,6.55-1,10.49-1.45,14.81-2.72,6.47-1.91,13.13-3.88,27.52-5l0,4.11s27.23.77,39.4-4.31C1030.24,959.57,1028.68,956.74,1028.68,956.74Z"/><path class="cls-24" d="M1029.69,962.21c-16.24,4.08-34,4.32-39.63,4.38l0,3.61s27.23.77,39.4-4.31A28,28,0,0,0,1029.69,962.21Z"/><path class="cls-47" d="M863.67,277c7.22-.15,18.89-1.23,18.89-1.23s-1.89,14.3-18.61,14.64-19.2-13.87-19.2-13.87S856.46,277.14,863.67,277Z"/><path class="cls-48" d="M863.6,277c3.43-.07,17.24-.93,17.24-.93S876.43,283.72,864,284c-13.44.28-17.55-7.1-17.55-7.1Z"/><path class="cls-49" d="M863.46,277.51c3.43-.07,13.86-.87,13.86-.87s-3.68,3.83-14,4-13.63-3.36-13.63-3.36Z"/><path class="cls-47" d="M844,275.49c.37-.1,2.38.52,4.08.34,2.83-.3,4.59-1.08,6.64-1.28,3.51-.34,5.77,1,7.29,1s3.73-1.46,7.25-1.26c2.06.12,7.16.76,10,.95,1.7.11,3.69-.59,4-.51s-.39,3.84-19.58,4.24S843.47,275.62,844,275.49Z"/><path class="cls-11" d="M676,320.89s-4.23-2.19-5.66-.94V339l-1.25-20.51S673.51,316.84,676,320.89Z"/><path class="cls-36" d="M1208,330.05c-.13,0-.13-1.35-.68-3.68a31.62,31.62,0,0,0-4.18-9.17A35.08,35.08,0,0,0,1193,306.65a28,28,0,0,0-17.3-2.8,41.71,41.71,0,0,0-9,2.6,35,35,0,0,0-7.6,4.19,43.21,43.21,0,0,0-9.73,11.17c-2.33,3.63-4,6.71-5.06,8.78a17.45,17.45,0,0,1-1.5,3.21,20.74,20.74,0,0,1,1-3.44,89.4,89.4,0,0,1,4.84-9,42,42,0,0,1,9.78-11.66,34,34,0,0,1,7.83-4.43,40,40,0,0,1,9.22-2.59,28.73,28.73,0,0,1,18.14,3,34.94,34.94,0,0,1,10.39,11.11,29.93,29.93,0,0,1,3.9,9.56,14.89,14.89,0,0,1,.25,2.83A6.91,6.91,0,0,1,1208,330.05Z"/><polygon class="cls-11" points="1024.48 502.15 1033.42 504.53 1046.98 499.12 1047.86 497.15 1033.01 503.44 1024.48 502.15"/></g><g id="Layer_5" data-name="Layer 5"><g class="cls-58"><polyline class="cls-2" points="-599.37 207.21 -599.37 -1734.17 1793.4 -1734.17 1793.4 207.21"/><rect class="cls-3" x="-597.97" y="102.58" width="2392.77" height="105.47"/><path class="cls-4" d="M643.07-579.46s64.72,0,99.64,51.78C763.24-497.23,756-443,756.46-401.87,757-346,720.94,47.33,720.94,47.33l-71.68-39L583.48-358.14l1.6-65.57-264-21.56s-24.05-80,35.12-143.27C363.44-596.64,643.07-579.46,643.07-579.46Z"/><path class="cls-4" d="M705.09-18.17S770.22,29.36,806,64.29c42,41.06,1.49-3.4,1.49-3.4s-15.51,38.75-36.1,37-132.4-74.77-132.4-74.77l9.53-31.59Z"/><polygon class="cls-5" points="687.01 121.86 662.53 127.16 655.01 90.2 677.32 89.16 687.01 121.86"/><polygon class="cls-6" points="655 89.16 662.53 127.16 636 123.6 636.35 84.18 655 89.16"/><path class="cls-5" d="M887.2,120.87a23.67,23.67,0,0,1-13.73,5.45c-24.45,1.52-105.62,7.33-122.58,3.61-24.75-5.44-17.14-3.32-44.51-16.86-39.16-19.37-54.49-21.94-63.64-26S631,81,631,81s-2.22-13.89,4.74-13.31l2.83-19.11L662.53,75.1l63,8.16,36,28.32,64.92-.73,51.22-8.42s9.84.78,12,2.6,3.53,7.6,2.07,10.16A18.71,18.71,0,0,1,887.2,120.87Z"/><path class="cls-7" d="M809.64,60.72s-9.45.37-24.48,13.54S749.09,82,735.3,75.9C714.58,66.72,698.12,60.2,678,44.74c-22.26-17.15-33.61-34-34.34-36.58A8.21,8.21,0,0,0,640.4,4s-6.55,19.82-9.84,29-.48,31.25,2.34,37.73,31.52,15.37,54,26.65c28.06,14.09,34.15,15.08,55.65,24.37,13.16,5.7,67.5,1.14,84.69.41s37.85-3.05,45.12-4.15,14.85-10.81,14.85-10.81,4-5.86-8.42-12.81S841.11,79,830.5,73.89A133.05,133.05,0,0,1,809.64,60.72Z"/><path class="cls-8" d="M322.84-423.12q103.29,0,206.56,0c29.61,0,35.1,14,35.06,42.74,0,26.4-5.92,41.9-35.89,42-6.75,0-13.64.75-20.22-.14-19.83-2.68-23.81,4.65-21.21,20C512.5-169,537.24-29.73,562.54,119.81c1.72,10.18.15,14.21-13.54,14.38-34.19.42-34.89,1.11-39.63-26.9Q485.15-35.79,462.16-179c-2.05-13-7.32-16.91-22.74-16.78q-117.45,1-234.91,0c-15-.12-19.39,4.46-21.26,16.2C167.19-79,150.38,21.47,134.19,122c-1.51,9.37-6.09,12.16-17,12.33C82,134.91,81,135.16,85.57,107,102,4.69,119-97.49,136-199.68c7.19-43.46,14.38-76.63,22.22-120,2.42-13.39-.41-21-18.8-18.42-3.95.55-8.11-.17-12.13.12-52.82,3.73-48.51-34-45.45-68.89C83-420.4,97-423.59,112.24-423.52c70.2.35,140.4,8.73,210.6,8.73Zm-1.66,193.05c39.11,0,78.21-.3,117.31.18,12,.15,17.32-2.05,15.28-13.34-6.3-34.9-12-45.59-17.47-80.59-1.65-10.61-6-15.1-20.2-14.92-62,.79-124.06.9-186.06-.06-15.38-.23-19.63,4.69-21.36,15.92-5.2,33.89-10.75,43.45-16.91,77.21-2.13,11.69,1,16.21,16.16,15.87C245.66-230.63,283.43-230.07,321.18-230.07Z"/><path class="cls-4" d="M576.38-564s64.72,0,99.64,51.77c20.52,30.46,13.32,84.73,13.75,125.82.56,55.87-35.53,449.2-35.53,449.2l-71.67-39L516.79-342.7l1.6-65.56-264-21.56s-24-80,35.12-143.28C296.74-581.19,576.38-564,576.38-564Z"/><path class="cls-4" d="M638.4-2.73s65.13,47.54,100.86,82.47c42,41.05,1.49-3.4,1.49-3.4s-15.52,38.75-36.1,37-132.4-74.77-132.4-74.77L581.78,7Z"/><polygon class="cls-5" points="620.32 137.31 595.84 142.6 588.32 105.65 610.63 104.61 620.32 137.31"/><polygon class="cls-6" points="588.31 104.61 595.84 142.6 569.31 139.05 569.66 99.63 588.31 104.61"/><path class="cls-5" d="M820.51,136.31a23.69,23.69,0,0,1-13.74,5.46c-24.44,1.51-105.61,7.33-122.57,3.6-24.75-5.43-17.14-3.31-44.52-16.86-39.15-19.37-54.48-21.93-63.63-26s-11.71-6.14-11.71-6.14-2.21-13.89,4.74-13.31L571.92,64l23.92,26.56,63,8.17L694.86,127l64.92-.73L811,117.88s9.83.77,12,2.6,3.53,7.6,2.07,10.16A18.59,18.59,0,0,1,820.51,136.31Z"/><path class="cls-7" d="M743,76.17s-9.45.37-24.48,13.54-36.07,7.75-49.86,1.64c-20.72-9.18-37.18-15.7-57.27-31.17C589.08,43,577.73,26.16,577,23.6a8.32,8.32,0,0,0-3.29-4.14s-6.55,19.83-9.84,29-.49,31.25,2.33,37.73,31.53,15.37,54,26.66c28.06,14.09,34.15,15.07,55.64,24.37,13.17,5.69,67.51,1.14,84.7.41s37.85-3.06,45.12-4.15,14.84-10.82,14.84-10.82,4-5.85-8.41-12.8-37.68-15.37-48.29-20.49A133.05,133.05,0,0,1,743,76.17Z"/><path class="cls-11" d="M736.3,76.34S692.09,26.1,655,7.07l7.52-96.3h5.25L658.21,5S733.09,59.29,736.3,76.34Z"/></g></g></svg>