<svg xmlns="http://www.w3.org/2000/svg" viewBox="0 0 1303.15 1057.31"><defs><style>.cls-1{fill:#f2ebd1;}.cls-2{fill:#a66e53;}.cls-3{fill:#4f2e25;}.cls-4{fill:#97a07f;}.cls-5{fill:#c95744;}.cls-6{fill:#681c0e;}.cls-7{fill:#030303;}.cls-8{fill:#252525;}.cls-9{fill:#010101;}.cls-10{fill:#13110f;}.cls-11{fill:#ce8d2a;}.cls-12{fill:#513835;}.cls-13{fill:#745245;}.cls-14{fill:#282828;}.cls-15{fill:#653c29;}.cls-16{fill:#31160e;}.cls-17{fill:#f1eef7;}</style></defs><g id="Layer_11" data-name="Layer 11"><polyline class="cls-1" points="1330.16 1087.27 1330.16 -25.51 -19.64 -25.51 -19.64 1087.27"/><path class="cls-2" d="M748.41,634.81l16.76-19.15s9.4-23.69,15-30.42,34-26.55,35.62-27,22.2-38.69,30.15-36.83,13,8,10,18.51-22.45,30.65-17.8,34.55a36.53,36.53,0,0,0,12.61,5.82s3.12-12.17,10.17-15.65,14.28,3.7,14.28,3.7l-.2,5.34,7.14-5.62s8.87-24.24,19.49-23.32a43.45,43.45,0,0,1,11.56-13.35A9.2,9.2,0,0,1,927,536.56h0l-23.25,54.7-56.89,54s-31.73,8.08-38.22,10.51L796,670.93Z"/><path class="cls-3" d="M838.72,575.93c.46-.54-2.22-3.34-6.6-5s-8.24-1.37-8.26-.61,3.33,1.64,7.31,3.17S838.3,576.56,838.72,575.93Z"/><path class="cls-3" d="M897.53,590.8a57.08,57.08,0,0,1,2.14-12.09c1.67-7.48,4.16-17.92,7.17-29.91l.67,1.63c-1.79-1-3.94-2.48-5.57-3.14a7.27,7.27,0,0,0-5.64.31,16.34,16.34,0,0,0-7.08,7.37A57.14,57.14,0,0,0,885,564.4c-2,6.39-3.46,12.43-4.74,17.28a106.63,106.63,0,0,1-4.61,16c-.41,0,.47-6.31,2.49-16.46,1-5,2.28-11,4.2-17.61a56.54,56.54,0,0,1,4.23-10.06,19,19,0,0,1,8.49-8.72,10.36,10.36,0,0,1,7.92-.34,57,57,0,0,1,6.09,3.44l1,.55-.3,1.08c-3.17,12-6,22.33-8.2,29.69A57.49,57.49,0,0,1,897.53,590.8Z"/><path class="cls-3" d="M824.92,633.58a18.12,18.12,0,0,1,.43-2.38,33.62,33.62,0,0,1,2.71-6.14A83.55,83.55,0,0,1,843.37,606l-.35.48c4.46-10.48,2.31-26.31,13.09-39.5a12.67,12.67,0,0,1,10.46-3.75,18.37,18.37,0,0,1,9.55,4.16l.66.53-.06.85c-3.13,15.63-5.94,29.09-8.08,38.63a25.07,25.07,0,0,1-4.35,10.75c-1.53,2.23-2.58,3.23-2.72,3a19.91,19.91,0,0,1,1.89-3.67,27.32,27.32,0,0,0,3.39-10.65c1.6-9.62,4-23.14,7-38.72l.5,1.4a16.14,16.14,0,0,0-8-3.38,9.68,9.68,0,0,0-8,2.92,23,23,0,0,0-5.25,9.13,93.14,93.14,0,0,0-3,10.12c-.83,3.39-1.22,6.53-1.88,9.91a57,57,0,0,1-2.74,9.12l0,.29-.21.2a94.51,94.51,0,0,0-15.73,17.86C826.14,630.47,825.26,633.7,824.92,633.58Z"/><path class="cls-3" d="M765.17,615.66s4.57,13.24,22.84,18.7C788,634.36,763.7,634.18,765.17,615.66Z"/><path d="M1204.84,441.15A25.53,25.53,0,0,0,1188,397.44a27.92,27.92,0,0,0-30.81-37.34A20.65,20.65,0,0,0,1124,341c-.35-.42-.72-.82-1.1-1.22a29.35,29.35,0,0,0-41.5-.89,24.32,24.32,0,0,0-30.67,10.48l-66,174.42a46.41,46.41,0,0,0,41,31.41A40.41,40.41,0,0,0,1079,573.33a23.46,23.46,0,0,0,40.59,4.54c2,.59,4.13,1.11,6.23,1.54-1.48-6.8,2.83-15.07,11.79-14.06s18.81-6.17,21-15c1.46-6,9.54-8.34,14.61-6.35a11.85,11.85,0,0,1,2,1.05,20.21,20.21,0,0,0-2.51-6.17l.91-.28a34.5,34.5,0,0,0,22.51-43.3,33.35,33.35,0,0,0,3.36-2.43A36.78,36.78,0,0,0,1204.84,441.15Z"/><path class="cls-4" d="M786.45,651.73a249.24,249.24,0,0,1-28.67-34L597.38,789.13c-9.19,17.1-16.51,35.54-25.14,52.17-14.81,28.55-25.8,48.12-25.81,79.93,29.12,37.67,88.11,41.22,123.64,2.07,15.32-16.88,117.47-191.22,151-242.7A264.59,264.59,0,0,1,786.45,651.73Z"/><path class="cls-3" d="M1006.71,727a210.41,210.41,0,0,1-32.83,8,211,211,0,0,1-33.32,5.33,207.65,207.65,0,0,1,32.78-8A209.09,209.09,0,0,1,1006.71,727Z"/><path class="cls-3" d="M1000.75,712.25c0,.75-14.58,2.46-32.41,5.74s-32.17,6.73-32.38,6a131.39,131.39,0,0,1,31.87-8.71A127.34,127.34,0,0,1,1000.75,712.25Z"/><path class="cls-2" d="M1134.25,523.83s-29.51,48.92-20.1,84.13c1.31,4.91,25.28,15.45,25.29,15.45-1-.56-23,14.57-23.94,15.14-16.67,10.18-15.31,40.42-36.79,42.55-22.72,2.26-56.78,8.9-78,.5-14.91-5.89-14.21-32.35-26.25-42.42,0,0,27.73-16.52,29.58-22.22s1-53.85,1-53.85"/><path class="cls-5" d="M995.8,624.66c-6.59,3-96.52,22.17-107.89,76.16s-7.62,200.35-12,247.57c-5.82,55.06-23.68,142.72-25.83,213.37l5.36,66.39,50.57-3.25s42-251.73,63.17-327.49S995.8,624.66,995.8,624.66Z"/><path class="cls-5" d="M913.41,983.05c-.23,29.9-27.46,61.79-10.41,90,24.2,40,71,48.43,114.16,48.24,38.95-.18,77.71-4.9,116.13-10.92,17.42-2.73,35.34-7.54,52.76-6.74,2.73.12,46,1.45,44.44-3.41L1200,1000.3l-8.17-39.43,30.93-288.6-15.9-16.93L1123,614.26l-6.55,15.2c-13.52,16.77-36.79,31.39-59.11,31.86-6.54.14-24.1-.24-31.08-1-19.47-2.24-30.9-17.85-27.42-38.08.12-.65-39.38,15.41-42.27,15.81-15.43,2.13-41.36,22.15-45.06,28,0,0-12.37,142.87-12.45,166C899,848.05,914.12,886.57,913.41,983.05Z"/><path class="cls-6" d="M920.91,719.15a13.54,13.54,0,0,1,2.63,4.81,32.19,32.19,0,0,1,1.85,13.26c-.56,7-3.43,14.13-5.77,20.74-3.11,8.76-6.49,17.42-9.6,26.19-2.49,7-5.2,14.26-6.06,21.69-1,8.33-.09,16.89,1.55,25.08a97.06,97.06,0,0,0,10,28,63.85,63.85,0,0,0,8,11.53c.6.67,1.67,1.41,1.93,2.23a4.33,4.33,0,0,1,0,1.14L926,886.4l1.72,40.27.58,13.71a18.79,18.79,0,0,1,.09,2.12c0-.39-.18.75-.22.93l-4.81,22.51L915,1005.13l-8.34,39-4.79,22.4-.23,1.08c-.19.91,3.2.37,3.4-.56l3.41-15.94,7.84-36.67,8.7-40.68,6-28a31.81,31.81,0,0,0,.87-4.19,74,74,0,0,0-.34-7.87l-1.67-39.12-.72-17-.21-4.77a5,5,0,0,0,0-1.09c-.26-.84-1.4-1.63-2-2.3-6.63-7.4-11.15-16.56-14.33-25.9a102.48,102.48,0,0,1-5.44-27.83,62.46,62.46,0,0,1,2.81-21.6c2.62-8.65,5.89-17.1,9-25.57,3-8,6.11-16.12,8.35-24.42,1.95-7.25,2.25-14.88-.7-22a13.5,13.5,0,0,0-2.48-4.18c-.67-.69-3.87.55-3.23,1.22Z"/><path class="cls-7" d="M554.38,178.34c4.45-2.41,9.64-6.49,8.15-11.33-.45-1.45-1.47-2.66-2.07-4-1.46-3.34-.4-7.2-.85-10.81s-4.14-7.49-7.27-5.63c2.17-5.29,2.41-11.68-.71-16.47s-10.15-7.07-14.91-3.92a10.59,10.59,0,0,0-17.92-10.26c1.89-5.87,1.67-12.92-2.45-17.5s-12.78-4.88-15.88.45c-.89-8.64-12.92-13.68-19.7-8.25a13.34,13.34,0,0,0-23-7.55A14.08,14.08,0,0,0,432,79.64c-4.71-8.6-18.68-9.83-24.82-2.19A14.08,14.08,0,0,0,382,73.51c-1.84-4.75-8.84-5.66-12.94-2.65s-5.67,8.44-5.86,13.53c-2.41-4.26-8.86-4.72-12.9-2s-6.08,7.64-7.14,12.41c-5.88-4.29-5.66-2.35-10.66,2.93-1.13,1.19-2.11,2.6-3.59,3.3s-3.33.53-5,.73a11.16,11.16,0,0,0-9.14,7.55c-1.47,4.68.27,10-1.74,14.51-1.18,2.63-3.5,4.56-5.12,6.94-5.9,8.72-8.35,21.12-9.61,31.58-1,8.6-20.8,85.43.07,108.7,19.76-31.49,50.48-140.95,86.31-150.86a152.26,152.26,0,0,1,108.46,10.91s34.74,8,41.9,14.49S554.38,178.34,554.38,178.34Z"/><path d="M524.29,95.27c-.09-.33-.19-.66-.29-1a37,37,0,0,0-46.39-24.2,40.28,40.28,0,0,0-2.6-3.61,39.44,39.44,0,0,0-55.48-5.86,27.38,27.38,0,0,0-46.9,18,29.93,29.93,0,0,0-40.08,33,22.14,22.14,0,0,0-20.49,35.54c-.45.38-.88.78-1.31,1.18a31.49,31.49,0,0,0-1,44.51,26.07,26.07,0,0,0,11.19,32.89l186.92,71c19.1-6.44,28.48-35.34,29.8-55.44C558.47,230.64,571,217,561.07,195.81c4.2-1.78,4.23-3.06,6.91-6.75,8.16-11.25,9.26-28.61-2-36.76,0,0,.81-27.42-21-28.28C545,124,550.72,99,524.29,95.27Z"/><path d="M503,100.58c-.09-.33-.19-.66-.29-1-8.06-25.61-12.29-34.92-46.4-24.2a37.88,37.88,0,0,0-2.6-3.61,39.44,39.44,0,0,0-55.47-5.86,27.38,27.38,0,0,0-46.9,18,29.94,29.94,0,0,0-40.09,33,22.15,22.15,0,0,0-20.49,35.54c-.44.38-.88.77-1.3,1.18a31.47,31.47,0,0,0-1,44.5A26.07,26.07,0,0,0,299.59,231l186.92,71a49.76,49.76,0,0,0,33.74-43.88,43.31,43.31,0,0,0,19.49-57,25.16,25.16,0,0,0,4.92-43.52s.81-27.42-21-28.28C523.62,129.32,529.38,104.33,503,100.58Z"/><path class="cls-7" d="M553.26,178.18c4.45-2.42,9.64-6.5,8.16-11.34-.45-1.45-1.47-2.66-2.08-4.05-1.46-3.34-.4-7.2-.85-10.81s-4.13-7.49-7.26-5.63c2.16-5.29,2.41-11.68-.72-16.47s-10.14-7.07-14.91-3.92a10.59,10.59,0,0,0-17.92-10.26c1.9-5.87,1.68-12.91-2.45-17.5s-12.78-4.88-15.88.46C498.47,90,486.44,85,479.66,90.41a13.35,13.35,0,0,0-23-7.56,14.07,14.07,0,0,0-25.81-3.37c-4.71-8.61-18.68-9.84-24.83-2.19a14.08,14.08,0,0,0-25.18-4c-1.83-4.75-8.83-5.66-12.93-2.65s-5.68,8.44-5.87,13.53c-2.41-4.26-8.85-4.71-12.9-2S343.1,89.89,342,94.66c-5.87-4.28-5.66-2.35-10.66,2.93-1.12,1.19-2.11,2.6-3.59,3.3s-3.32.54-5,.73a11.17,11.17,0,0,0-9.14,7.55c-1.48,4.68.27,10-1.75,14.52-1.18,2.62-3.5,4.55-5.11,6.94-5.9,8.72-8.36,21.12-9.61,31.57-1,8.6-20.8,85.43.06,108.71C317,239.42,347.7,130,383.54,120A152.32,152.32,0,0,1,492,131s34.73,8,41.9,14.49S553.26,178.18,553.26,178.18Z"/><path class="cls-2" d="M321.33,295.64s-5,75.43-23.33,93.65c-4.8,4.77-50.11,23.44-50.11,23.44L408.8,522.68,485.14,468s-41.54-36.71-42.58-44.61,13.15-67.86,13.15-67.86"/><path class="cls-3" d="M446.6,399.78l-4.2,23.53s-60.91-5.6-79.79-23.11-19.56-58.35-19.56-58.35Z"/><path class="cls-8" d="M318.37,305c0,.15,0,.27-.05.42A.64.64,0,0,1,318.37,305Z"/><path class="cls-2" d="M320.61,299.83l5.22-58.95L336,175.82l34.84-50.59,50.4-13,52.1,19s39.36,5.81,51.82,12,18.44,22.71,23.73,42.52-1.55,63.92-1.55,63.92c.16,1.11-1.91,5.44-2.3,6.34-5,11.48-8,21.81-12,30.33A22.59,22.59,0,0,0,531,298.56c1.87,16.66.42,23.35-2.78,32.66-4.38,12.71-13.21,20.68-18.75,30.85-5.17,9.49-7.4,17.05-14.3,25.33-2.23,2.67-17.69,28.52-32.17,29.69L443.7,417l-22.38-4.22s-45.56-5.28-61.69-27-22.2-50.29-22.2-50.29"/><path d="M552.85,159.88c-.27,1-.58,2.35-.9,3.92-.53-1-1.11-2.18-1.75-3.52a78.73,78.73,0,0,0-4.38-8A23.58,23.58,0,0,1,552.85,159.88Z"/><path d="M324.86,169.81l.53-2.82c2.31-12.57,18.42-30,43.09-46.47,42.43-28.44,40.79-29.2,93.95-14.12,3.66,1,7.28,2.22,10.75,3.5,30,11,56.33,16.5,72.64,42.42a12.12,12.12,0,0,0-7.2-1.92,5.67,5.67,0,0,0-4.72-5c-22.62-4.48-41.26-20.68-63.08-27.94-4.52-1.5-15.6-5.73-23.28-4.73-17.63-4.13-40.13-1.62-48.93.43-11.7,2.74-39.47,8.18-41.88,37.54l-14.64,88.58c-.78,5,.37,11.4-.09,16.37l-25.74,13.87c-4.19-18.68-9.32-40.7-11.31-45.88C301.84,215.57,322.41,182.91,324.86,169.81Z"/><path class="cls-2" d="M325,307.54c-25.07,15.88-21.9-19.5-21.9-19.5-10.61-20.63-6.46-39.18-3.1-51.74S317.22,227,317.22,227c11.56,3.94,15.43,11.48,16.41,53.65"/><path d="M515.15,142c-19.25-4.32-67.21-28.16-93.08-35.22-10.72-2.92-52.3,16.5-58.25,21.64-13.63,11.8,4.55,49.11-23.21,90-9.17,13.5-12.42-14.12-22.16-6.05S305,223.68,305,223.68c3.11-44,3-42.42,21.12-82.71s67.84-49.12,90.81-48.08,92.89,22.83,110.32,35.79"/><path d="M325.61,271a102.71,102.71,0,0,0-5.83-19.12,32.36,32.36,0,0,0-5.17-8.71,9.13,9.13,0,0,0-3.27-2.58c-1.42-.55-2.49.95-3.27,1.94-3.68,4.62-4.89,10.74-4.77,16.52,0,1.09,2.09.79,2.07-.15a26.69,26.69,0,0,1,2.83-13.35,16.44,16.44,0,0,1,2.09-3,5.44,5.44,0,0,1,.87-.87l-1,.27c-.51-.11-.08,0,0,0,.31.24.1,0,.47.23a10.73,10.73,0,0,1,2.1,1.82c3.2,3.56,5.13,8.23,6.73,12.67a121.38,121.38,0,0,1,4.14,14.84c.21,1,2.25.44,2-.54Z"/><path d="M320.64,272.2c-8.27-2.26-6,10.42-7.61,14.67-.09.22-.26.43-.33.65a2.47,2.47,0,0,1-.23.23l0,0a.49.49,0,0,1,.53-.06,12.27,12.27,0,0,1-.82-1.79,31,31,0,0,1-.62-8,33.46,33.46,0,0,1,1.54-10.65c1.25-3.67,3.42-8.92,7.72-9.73,1.28-.24.91-1.53-.35-1.3-4.28.8-6.88,4.89-8.46,8.61a28.44,28.44,0,0,0-2.33,9.23,56.1,56.1,0,0,0,0,9.87c.16,1.41.3,4.07,1.74,4.89s2.84-.36,3.41-1.54a13.78,13.78,0,0,0,.91-4.76,40.13,40.13,0,0,1,.79-6.47c.4-1.58,1.05-3.08,2.89-2.58.82.22,2.41-1,1.2-1.31Z"/><path d="M435,254.63c-2.59-2.2-6.34-1.67-8.65-.41a7.7,7.7,0,0,0-3,3,7.87,7.87,0,0,0,.21,7.4,7.31,7.31,0,0,0,7.85,3.3c4-.85,6.15-4.91,6-8.26a7.14,7.14,0,0,0-2.34-5"/><path d="M519.71,274.69c3.29-.85,6.43,1.25,8,3.4a7.67,7.67,0,0,1,1.44,4,7.87,7.87,0,0,1-3.41,6.56,7.32,7.32,0,0,1-8.51-.44c-3.21-2.51-3.39-7.1-1.77-10a7.14,7.14,0,0,1,4.28-3.47"/><path d="M492.67,280.22s14.57-9.13,23.42-7.94c12.92,1.74,15.51,5.34,18.67,12.16,0,0-6.9-8-16-8.94C510,274.57,492.67,280.22,492.67,280.22Z"/><path d="M452.27,267.71s-15.17-15.26-23.82-17.48c-12.63-3.24-29.49.78-35,5.92,0,0,22.48-6.45,31.32-3.92C433.24,254.64,452.27,267.71,452.27,267.71Z"/><path d="M462.75,226.61q-1.2,4.48-2.42,9c-.62,2.29-1.86,7.55-2.49,9.82-6.69-3.84-12.42-8.46-16.86-10.52-8.8-4.1-18-7.6-27.76-8.64-4.66-.49-12.94-2.54-17.28-1.22-1.38.42-2.8,1.4-4.35.11-.63-.52,1.54-3.89,1.76-4.24,4.4-6.79,13.37-6,21.55-5.77,16.69.57,32.4,5.18,47.85,11.46"/><path d="M547.63,254.87s-4.65-2.93-4.68-3c-13-8.28-27.41-12.66-42.51-15.48-1,2.94-1.95,5.89-2.93,8.84-.75,2.25-2.23,6.26-3,8.51,7.14.27,13.5-.1,18,.5,8.87,1.17,18.25,2.3,26.2,6.55.63.33,4,2.21,4.61,2.56C547.37,260.23,548.6,255.91,547.63,254.87Z"/><path d="M471.48,327.62c-4.17,1.14-9.73-.62-12.93-3.85-.71-.72-3.59-.84-2.6.16,4.23,4.27,12.3,6.43,17.68,4.95.53-.14.53-.54,0-.87a3.21,3.21,0,0,0-2.13-.39"/><path d="M454.59,322.47a23.38,23.38,0,0,0-7.62-3.92,1.85,1.85,0,0,0-1.33.12c-.29.16-.4.44-.13.69a8.88,8.88,0,0,0,4.2,2.06,1.73,1.73,0,0,0,1.49-.23c.34-.33-.06-.69-.43-.77a7,7,0,0,1-3.39-1.67l-1.47.8a20.9,20.9,0,0,1,6.8,3.53,1.74,1.74,0,0,0,1.52.18c.34-.12.75-.47.36-.79"/><path d="M443.41,320.28c-3.25-.83-6.76-3.17-7.79-6-1.56-4.36,2.05-9.73,6.69-11.22.51-.16.35-.56-.08-.76a2.62,2.62,0,0,0-1.83,0c-4,1.3-7.45,5.58-7.73,9.27-.26,3.45,2.33,6.49,6,8.36a17.67,17.67,0,0,0,3.51,1.34c.49.12,1.42.18,1.75-.16s-.08-.63-.54-.75"/><path d="M477.86,327.3a.45.45,0,0,1,.56-.54,3.84,3.84,0,0,0,2.73-.27c.21.43.41.86.62,1.28a11.6,11.6,0,0,0-5.55.7.91.91,0,0,1-1-.41c-.17-.22-.3-.7.06-.84"/><path d="M475.27,327.22a12.86,12.86,0,0,1,6.21-.76,1.1,1.1,0,0,1,.78.61.49.49,0,0,1-.17.68"/><path d="M484.55,329.31a6.86,6.86,0,0,0,6.6-2.76,10.23,10.23,0,0,0-.08-11.32.41.41,0,0,1,.32-.67,1.26,1.26,0,0,1,1.05.63,11.45,11.45,0,0,1,1.37,9.91,7.91,7.91,0,0,1-8.9,5.48c-.32-.07-.87-.35-.93-.78s.26-.55.57-.49"/><path d="M391.52,107.31c-19.87,3.73-28.69,8.84-41.15,24.77l112.9-16.93a96.31,96.31,0,0,0-22.48-6.68C420.79,105.5,411.4,103.58,391.52,107.31Z"/><path d="M391.94,106.24a89.78,89.78,0,0,0-20.65,6,52.08,52.08,0,0,0-15,10.58,100.66,100.66,0,0,0-8.16,9.34c-.89,1.14,1.31,1,1.84,1l11.27-1.69,26.94-4,32.57-4.88L449,118.3c4.56-.68,9.14-1.28,13.68-2l.19,0c.59-.09,4.16-1.39,2.43-2.11a112.37,112.37,0,0,0-15.57-5.29c-5.09-1.28-10.32-1.93-15.51-2.7-8.55-1.26-17.13-2.31-25.79-1.91a121.66,121.66,0,0,0-16.47,2c-.76.15-2.66.52-2.86,1.47s1.57.76,2,.67a99.86,99.86,0,0,1,25.76-1.73c4.19.32,8.36.87,12.52,1.48,5,.72,10,1.3,14.93,2.43a110.07,110.07,0,0,1,16.95,5.63l2.42-2.11-11.27,1.69-26.94,4-32.57,4.88-28.25,4.24-9.25,1.38A38.47,38.47,0,0,0,351,131a1.25,1.25,0,0,1-.19,0l1.84,1c3.91-5,8.11-9.89,13.18-13.76A45.12,45.12,0,0,1,380,111a102.6,102.6,0,0,1,11.11-2.66c.76-.14,2.65-.51,2.86-1.46S392.4,106.16,391.94,106.24Z"/><path class="cls-7" d="M341.94,213.78c14.13-6.07,24.94-22.91,28.87-37.78s-.93-25.08,11-34.78,49.37-6.89,61,3.12c7.38,6.36,18.16,11.25,25.78,17.32s17.34,8,26.76,9.92c7.38,1.47,18.33,4.47,25.17,1.34,6.16-2.81,7-2.3,9.91-8.43,2-4.37,8.17-3.21,15.51,2.46s1.64,10.83,6.43,18.78c8.12-18.9-5.27-39.46-20.1-53.71C511.68,112.28,490,95.1,462,90s-56.11-10.81-83.93-4.58c-13.36,3-21.13,10-32.44,17.72C328.19,115,310.63,139,304.1,159c-4.73,14.54-7.43,29.85-6.77,45.12.13,3,.08,48.18.09,45.21.08-24.76,24.11-31.55,33-24.18,13.25,11-10.71,36.11,11.82,48q8.58-37.56,13.4-75.85"/><path class="cls-7" d="M458.05,380.2a15.52,15.52,0,0,1-5.67,6.5,2.9,2.9,0,0,1-2.25.6c-.64-.19-1.1-.76-1.69-1.07a3.52,3.52,0,0,0-3.44.53,29,29,0,0,1-3,2.12,2.88,2.88,0,0,1-3.38-.33A4,4,0,0,1,438,387a16.39,16.39,0,0,0-2.73-5.82,15.07,15.07,0,0,1-2.17-2.76,2.58,2.58,0,0,1,.49-3.19,3.58,3.58,0,0,1,3,0c6,1.72,7.6,3.17,21.51,5"/><path class="cls-7" d="M444.3,325.69a31.31,31.31,0,0,0-13.38.51,4.2,4.2,0,0,0-2.08,1.24,2,2,0,0,0-.53,1.76c.51,1.51,2.46,1.63,3.76,1.3.5-.13,1-.24,1.49-.34.23-.05.92-.09,0,0l.65-.1a26.78,26.78,0,0,1,2.83-.24l.65,0h.06a6.49,6.49,0,0,1,1.52.08c.95.08,1.88.21,2.81.38,1.41.27,3.59-.54,4.16-1.94s-.57-2.38-1.93-2.63Z"/><path class="cls-7" d="M340.67,219.91c14.13-6.08,31.5-20.92,35.42-35.79s2.16-18,14.09-27.72,38.45-11.27,50.07-1.26c7.37,6.36,12.2,10.46,28.86,16.75,9,3.39,15.53,3.94,24.95,5.82,7.38,1.47,28.23,8.52,35.07,5.4,0,0,5.29-6,12.16-3.53s13.09-1.24,13.76,32.34c8.13-18.89-9.23-59.52-24.07-73.77-20.57-19.74-42.22-36.92-70.27-42.05s-56.11-10.81-83.93-4.58c-13.36,3-21.13,10-32.44,17.72-17.42,11.85-35,35.85-41.5,55.89-4.74,14.54-7.44,29.85-6.78,45.12.13,3,.08,48.18.09,45.21.08-24.76,24.11-31.55,33-24.18,13.25,11-10.71,36.11,11.82,48,5.72-25,10.2-50.36,13.4-75.84"/><path class="cls-3" d="M1087.84,565.55s-5,41.74-59.64,44.23c0,0-22.11-.7-23.86-2.29l.75-13.18Z"/><ellipse cx="1136.88" cy="565.31" rx="18.9" ry="15.35" transform="translate(-132.37 532.38) rotate(-24.95)"/><circle cx="1157.85" cy="541.99" r="22.9"/><path d="M971.21,504.38c-11.56-5.62-17.43-19.49-13.65-32.21-12.55-11.67-14-31.77-3.15-44.9.36-.44.74-.87,1.12-1.29-8-9.1-7.66-23.25.79-31.61,4.13-4.08,7.59-8,13.28-7.7-2-16.36,6.95-30.81,22.15-34.91a27,27,0,0,1,14.87.24c-.79-15.26,11.09-25.78,25.47-26.37,6.61-.28,12.25-.21,17.32,4.39,14.79-15.19,38.58-14.59,53.14,1.34a40.13,40.13,0,0,1,2.79,3.43c31.42-7.48,38.61,1.43,46.23,20.56.12.32.25.64.37,1,11.57-9.1,29.64-3.1,38.16,9.53s9.39,29.35,6.66,44.46c11.41,7.3,15.25,22.93,8.55,34.93a24.09,24.09,0,0,1-9.19,9.3c11.4,20.48,5.56,46.61-13.2,59,.61,20.36-10.42,38.89-27.92,46.95"/><path class="cls-2" d="M1016.48,385.54a5.15,5.15,0,0,1-.58.67l.53-.27Zm-19.78,2.07,0,.34c.34-.21.67-.42,1-.63C997.67,386.92,996.7,387.61,996.7,387.61ZM1119,555.51l3.19-6.36c2.54,13.07,20.64,7.06,24.19-9.82,14.39-13.52,19.16-35.87,13.58-45.76l-.64-1.42c-4.32-4.6-12.83-7.67-17.54-1.72-1.66,2.65-4,5.57-5.7,8.22-1.71,3.05-4.43,9.28-7,11.82,0,0,13.16-29.4,14.52-37s3.39-26.43-8.84-38.92c0,0-14.21-18-19.36-26.8l-2.09-1.07c-1.31-.16-2.23.13-3.54,0,0-.4.53-.74.63-1.55-2.29.54-4-.08-5.74-.29.49-.35,1.41-.64,1.46-1-1.8.18-3.5-.43-5.25-.64.49-.35,1.46-1.05,1.51-1.45-2.28.54-3.5-.42-5.25-.64a3,3,0,0,0,1.07-1.5c-1.85.59-3.54,0-5.3-.24.49-.34,1-1.09,1.51-1.44-2.28.54-3.49-.43-5.24-.64-.44-.05,1-.7,1-1.1a16.4,16.4,0,0,1-4.43-.13c0-.4,1-.7,1-1.1-2.73.49-3.94-.48-5.69-.69l1.51-1.45a6.27,6.27,0,0,1-5.34.17c.48-.35,1.45-1.05,1.5-1.45a8.73,8.73,0,0,1-7.1-.05c.44.05,1.46-1,1.51-1.44-2.38,1.33-4.08.72-6.27.45.49-.34,1-1.09,2-1.79-2.82,1.29-6,1.72-8.46.19.44.05,1-1.1,1.07-1.5-1.94,1.39,1.59-.21-.55-.88,0,0-5.23,1-5.18.59-1.9,1,5.44-6.25,3.25-6.51.54-.75-12.64-.79-11.66-1.48-2.38,1.34-1.84.56-4.41-.16,0,0-9.68,3.7-9.19,3.35-2.43,1.74-3.21-.06-5.79-.78.49-.35,1.38,1.87,1.86,1.52-1.94,1.39-1.12-.54-3.31-.81,0-.4-6.83-3.48-6.78-3.88-2.34.94-1.64,1.2-4.27.88,0-.4-2.18,4.22-1.69,3.87-1.95,1.4-1.7.09-3.84-.58l-2.35,1.23c-2.44,1.74.67,1.23-1.9.51,0-.28,9.72,2.46,10.18,2A16.21,16.21,0,0,1,1010,388c0-.41.58-1.15.63-1.56a8.82,8.82,0,0,1-7.29,1.56c.44.05,1-.7,1-1.1-2.43,1.74-5.2,2.63-7.68,1.1V388a13.84,13.84,0,0,1-6.47,2.13,1.72,1.72,0,0,1,1.07-1.5l-1.75-.22c-2.58,2.95,7.71,2.37,6.35,6.28,0,0-12.62,4.29-22.65,27.19-8.23,18.8-8.11,56.36-8.46,62.83-.29,5.61-5,16-6.41,21.69-7.49,30.91,5.49,65.7,27.76,86.11,8.88,8.14,28.09,11.27,37.89,11.15,20-.26,47.41-10.62,66.83-26"/><path class="cls-9" d="M1001,524.1a11.44,11.44,0,0,0,10.12.72c.68-.3,2.75.35,1.79.76-4.08,1.76-10.32,1.15-13.74-1.19-.34-.23-.24-.49.23-.58a2.53,2.53,0,0,1,1.6.29"/><path class="cls-9" d="M1014.22,525a18.18,18.18,0,0,1,6.38-.67,1.45,1.45,0,0,1,.91.41c.16.18.17.39-.08.49a7,7,0,0,1-3.5.31,1.34,1.34,0,0,1-1-.54c-.16-.3.22-.43.5-.39a5.49,5.49,0,0,0,2.82-.26l.83.91a16.24,16.24,0,0,0-5.7.62,1.4,1.4,0,0,1-1.12-.27c-.21-.16-.41-.5,0-.61"/><path class="cls-9" d="M1022.67,526.34c2.5.27,5.58-.4,7.05-2.05,2.21-2.5,1.07-7.33-1.82-9.5-.31-.23-.1-.46.25-.48a2.08,2.08,0,0,1,1.3.44c2.52,1.89,3.8,6,3,8.47-.7,2.36-3.31,3.72-6.39,4a14,14,0,0,1-2.82,0c-.38,0-1-.24-1.19-.55s.21-.39.57-.35"/><path class="cls-9" d="M996.55,522.27a.32.32,0,0,0-.25-.5,3,3,0,0,1-1.86-.87l-.76.7a9,9,0,0,1,3.73,1.87.74.74,0,0,0,.82,0c.18-.11.39-.39.17-.58"/><path class="cls-9" d="M998.4,522.87a10.08,10.08,0,0,0-4.18-2.07.87.87,0,0,0-.71.2.34.34,0,0,0,0,.5"/><path class="cls-9" d="M991.32,521.91a5.15,5.15,0,0,1-4-3.5,7,7,0,0,1,3-7.49.29.29,0,0,0-.06-.53,1,1,0,0,0-.9.16,7.83,7.83,0,0,0-3.51,6.23,5.64,5.64,0,0,0,3.12,5.27,5.94,5.94,0,0,0,1.76.61.91.91,0,0,0,.86-.28c.16-.27-.05-.43-.28-.47"/><path d="M1133,519.12a95.37,95.37,0,0,1,9.82-13.31,32,32,0,0,1,6.65-5.85,11.92,11.92,0,0,1,2-1,8.93,8.93,0,0,1,1.06-.28l.19,0c.17,0,0,0,0,0h.15c-.53-.3-.34-.13-.25.12s.36.78.5,1.18c1.78,4.89.89,10.35-.94,15.08-.2.53,1.3.35,1.5-.17,1.78-4.61,2.64-9.86,1.14-14.68a5.74,5.74,0,0,0-1-2.26,1.17,1.17,0,0,0-.88-.16,8.66,8.66,0,0,0-3.39,1.09A27.27,27.27,0,0,0,1143,504a88.38,88.38,0,0,0-11.41,15c-.39.61,1.11.51,1.39.06Z"/><path class="cls-10" d="M962.7,446.33c10.33-3.59,17-3.83,34.9-1.92l0,.4c.32,2.3.14,1,.45,3.33.23,1.76.47,3.52.69,5.28-5.84-.7-10.1-1.76-13.83-1.89-7.07-.25-15.2-1.37-22.15.38C962.81,450.05,962.78,448.19,962.7,446.33Z"/><path class="cls-10" d="M1041.19,453.35c-.1,2.32,0,1-.14,3.36l-.21,5.32c6.12-1.22,10.53-2.64,14.46-3.09,7.81-.91,16.78-2.88,24.57-1.38,3.73.72,9.07,1.85,11.61,5.14.69.89,1.9,4,3.41,3.44.61-.23-.25-3.13-.34-3.43-1.76-5.86-6.94-8.51-13.35-10.19-13.07-3.42-19.74-3.32-40,.42"/><path class="cls-11" d="M1133.41,548.25c3.34,3,4.31,8.13,1.44,11.81a7.7,7.7,0,0,1-2.29,2,7.48,7.48,0,0,1-1.44.58,6.64,6.64,0,0,1-.74.18c-.12,0-.72.11-.61.11a7.42,7.42,0,0,1-2.9-.62,8.67,8.67,0,0,1-5.15-5.21c-.31-.87-2.48-.25-2.17.58a9.86,9.86,0,0,0,16.28,3.78,9.49,9.49,0,0,0,2.93-6.35,9.78,9.78,0,0,0-3.34-7.72,1.37,1.37,0,0,0-1.46-.09c-.27.12-1,.64-.55,1Z"/><path d="M1131.75,519.6c1.31.17,3.32.5,3.66,2,.27,1.21-.5,2.55-1,3.58-1.29,2.41-3.58,5.4-2.83,8.32.93,3.55,4.6,2.39,6.77.7a16.62,16.62,0,0,0,4.22-5.2,21,21,0,0,0,1.63-4,6.66,6.66,0,0,1,.55-1.41c1.72-3.21,3.41-8.44-.5-10.76-.37-.22-1.63.38-1.4.52,3.53,2.1,2.27,6.64.83,9.68-.2.42-.46.82-.65,1.24-.34.77-.5,1.64-.8,2.44a18.61,18.61,0,0,1-3.81,6.25c-.8.84-2.47,2.64-3.82,2.18-1.2-.41-1.68-2.15-1.65-3.27.07-2.89,2.22-5.38,3.39-7.89.46-1,1-2.3.41-3.35-.73-1.33-2.66-1.58-4-1.76-.34,0-1.71.54-1,.64Z"/><path class="cls-10" d="M976.53,470.2a5,5,0,0,0-5.48-.17,4.63,4.63,0,0,0-1.68,6.59,4.61,4.61,0,0,0,5,2,5.11,5.11,0,0,0,3.7-5.29,4.54,4.54,0,0,0-1.54-3.14"/><path class="cls-10" d="M1056.18,476a5,5,0,0,1,5.08,2.07,4.82,4.82,0,0,1,1,2.52,5,5,0,0,1-2.1,4.19,4.63,4.63,0,0,1-5.39-.19,5.1,5.1,0,0,1-1.22-6.34,4.51,4.51,0,0,1,2.67-2.25"/><path d="M1096.38,329.56s12.15-8.91,27.81-5.41,22.26,19.12,21.64,24.78S1096.38,329.56,1096.38,329.56Z"/><path class="cls-10" d="M1037.11,483s13.58-8.6,20.23-8.73c12-.24,22.61,7.59,25.72,12.41,0,0-16.57-10.55-23.4-10.27C1053.12,476.69,1037.11,483,1037.11,483Z"/><path class="cls-10" d="M999.8,478.88S988,469.1,981.88,468c-9-1.64-15.25,2.09-18.75,6.39,0,0,10.83-5.75,17.11-4.42C986.26,471.23,999.8,478.88,999.8,478.88Z"/><path d="M1052,371.58l-37.21-21.87c-12.66,4.09-17.21,12.44-27.8,22-14.75,13.36-25.75,27.62-28,47.81a23,23,0,0,1-2.44,8.26c.41.37.83.74,1.28,1.08a13.46,13.46,0,0,0,10.6,3.73,12.9,12.9,0,0,0,7.9-5.6A22.72,22.72,0,0,0,980,411.76a27.65,27.65,0,0,0,19-19.88c7.34,3.68,16.25,1.1,21-6.09a17.08,17.08,0,0,0,16.09,7C1045.86,391.42,1053,382,1052,371.58Z"/><path d="M1042.36,372.64l40.38-15.24c11.79,6.19,22.9,13.68,31.71,24.93,12.27,15.67,12.63,33.1,11.41,53.37a22.84,22.84,0,0,0,1,8.56,16.23,16.23,0,0,1-1.46.84,13.44,13.44,0,0,1-11.07,1.88,12.88,12.88,0,0,1-6.83-6.86,22.71,22.71,0,0,1-1-15.66,27.64,27.64,0,0,1-15.31-22.81c-7.85,2.39-16.19-1.68-19.65-9.57a17,17,0,0,1-17,4.13C1045.05,393.23,1039.61,382.68,1042.36,372.64Z"/><path d="M1103.69,431a12.87,12.87,0,0,0,11.92,13.73c-4.63,10.12-2.46,34.12,16.31,36.12,19.41,1.29,33.22,2.16,51.07-6.76a42,42,0,0,0,9.08-6.15,18.64,18.64,0,0,0-1-7.29,174.53,174.53,0,0,0-9-19.93,6.88,6.88,0,0,1-.75-4.38,9.35,9.35,0,0,1,3.49-4.08,16,16,0,0,0-6.37-27.33,9.21,9.21,0,0,0,.82-12.68,45.1,45.1,0,0,0-10.94-8.9c-7.18-5.26-13-13-21.44-15.61a22,22,0,0,0-24.05,7.88,31.36,31.36,0,0,0-18.14-3.18A12.81,12.81,0,0,0,1094,385.51l-1.67.26c-.3.9-.56,1.82-.77,2.75a26.41,26.41,0,0,0,20,31.57A12.85,12.85,0,0,0,1103.69,431Z"/><path d="M1127.2,466.79s-7.67,34-3.81,40.46,4.79,7,9.41-4,13.13-21.46,13.13-21.46Z"/><path class="cls-4" d="M563.26,555.83l-4.36-51.42c3.28,6.83-29.42-33.12-63.67-54.72-14.64-9.22-39.32-21-48.94-24.61,1.84,13.12,1.8,27.11-7.51,33.72a74.29,74.29,0,0,1-44.87,13.56c-15.31-.4-30.56-4.67-44.66-10.49C322.88,451,293.42,418.61,288.69,389l-10.77,3.76S188,424.06,174.64,428.69s-19.82,347.66-19.82,347.66L117.61,918.59c-3.72,13.73-82.37,102-41.65,213.88,0,0,295-21.9,325.42-20.75,35.39,1.34,109.92,2,119.76-14.45S563.26,555.83,563.26,555.83Z"/><path class="cls-4" d="M476.14,438.77s49.86,28.7,81.65,61C593.28,535.88,620.9,710.49,633.15,745S658,807.53,658,807.53L546.43,921.23,434.87,786.71l52.51-330.48Z"/><path class="cls-12" d="M367,653a.81.81,0,0,1,.31,0c0,.4.2.82-.15,1.17Z"/><path class="cls-12" d="M380.37,791.59a.81.81,0,0,1-.29.12c0-.25-.07-.51-.1-.77Z"/><path class="cls-13" d="M461.41,641.5l-.43,0,.42-.21A.23.23,0,0,1,461.41,641.5Z"/><path class="cls-13" d="M400.78,648.84l.4-.28.12.22Z"/><path class="cls-13" d="M460.11,641.57l-.57.06A.38.38,0,0,1,460.11,641.57Z"/><path class="cls-13" d="M368.31,652.84a.3.3,0,0,1,.48-.07Z"/><path class="cls-14" d="M560.68,593.57l-.6,8.57-1.65,23.33L556,660l-3,41.94-3.24,45.93-3.29,46.51-3.06,43.37-2.58,36.64L539,900.62c-.3,4.15-.68,8.3-.88,12.45,0,.18,0,.36,0,.54-.15,2.18,3.94,1.7,4.07-.25l.61-8.57,1.65-23.33L546.86,847l3-41.94,3.24-45.93,3.28-46.51,3.06-43.37L562,632.56l1.85-26.25c.29-4.15.68-8.3.88-12.45,0-.18,0-.36,0-.54.15-2.18-3.94-1.7-4.08.25Z"/><path class="cls-12" d="M705.57,899a.79.79,0,0,0,.27.1c0-.24,0-.47,0-.7Z"/><path class="cls-14" d="M635.26,747.8c-2.19,3.35-4.77,6.46-7.26,9.59-3.32,4.17-6.62,8.35-9.73,12.69-6.76,9.42-13.12,19.84-15.45,31.34a36.52,36.52,0,0,0,.8,18.62c.32,1,3.6,0,3.3-.89-3.59-11-.66-22.53,4.27-32.63S623,767.39,630,758.61c2.84-3.56,5.81-7.07,8.3-10.89.73-1.11-2.52-.7-3,.08Z"/><path class="cls-4" d="M193.92,653.34l-.08-229s-78,11.68-102.63,86.15C70.47,578.61,16.34,802.5,17.34,847s23.48,299.13,23.48,299.13l102.36-10.58L150,817.71Z"/><path class="cls-14" d="M200.48,477.21c5.85,5,11.62,12.35,16,19.14,9.86,15.24,15.45,33.2,14.11,51.44-.65,8.89-2.45,17.8-4.12,26.55-1.78,9.27-3.78,18.5-5.92,27.7-4.32,18.54-9.18,37-14.35,55.28-5.22,18.54-11.16,36.85-16.6,55.33-5,17-9.47,34.07-14.2,51.09l-19.89,71.54-2.78,10a24.13,24.13,0,0,0-1,3.67c-.27,2.59.4,5.58.59,8.16l3.88,53.24,5.76,79,5.5,75.41,3.09,42.44.15,2c.12,1.72,4.14.79,4-1.07l-2.19-30.09-5.13-70.45-5.92-81.1-4.52-62.06-1.07-14.6a11.71,11.71,0,0,1-.09-1.32c0-.63,0,.25,0,0,.29-1.58.88-3.16,1.31-4.71L174.86,780l17.64-63.44c3.74-13.48,8.24-26.75,12.19-40.18,10.44-35.44,20.27-71.29,26.83-107.68,1.66-9.16,3.45-18.49,3.34-27.83a81.09,81.09,0,0,0-5-26.86,100.34,100.34,0,0,0-21.47-34.34,62.77,62.77,0,0,0-4.84-4.67c-1.27-1.09-4.82.77-3.1,2.24Z"/><path class="cls-5" d="M1171,794.52l4.62-152.35s51.64,9.33,66.55,59.36c12.44,45.75,34,195.47,32.43,225S1263,1125.37,1263,1125.37l-90.91-12.17,14-188.09Z"/><path class="cls-6" d="M1171.37,681.76a59.61,59.61,0,0,0-10.79,11.8c-6.55,9.11-11,19.81-11.58,31.1-.32,6.12.62,12.24,1.4,18.3.81,6.22,1.73,12.43,2.71,18.63,2,12.65,4.25,25.26,6.63,37.85,2.57,13.58,5.64,27.06,8.18,40.64,1.9,10.13,3.35,20.37,5,30.55l8.49,51.71,2.91,17.72c.22,1.33.41,2.66.65,4,.16.83.1-.21,0,.66-.6,8.78-.82,17.61-1.22,26.4l-2.33,50.29-2.39,51.42-1.38,29.77-.06,1.45c-.08,1.72,3.4,1.18,3.47-.29l1-21,2.23-48,2.42-52.34,1.61-34.66a28,28,0,0,0,.11-4.39c-.39-3.6-1.18-7.2-1.76-10.77l-7.9-48.07L1172,842.79c-1.38-8.46-3.37-16.82-5.06-25.22-4.78-23.86-9.28-47.81-12.57-71.92-.83-6.1-1.91-12.35-1.92-18.52a52.17,52.17,0,0,1,3.41-18.53A65,65,0,0,1,1170.58,686a35.18,35.18,0,0,1,3-2.82c1.82-1.46-1-2.49-2.25-1.46Z"/><path class="cls-7" d="M456.67,333.71a4.5,4.5,0,0,1-7.54,2.46,5.8,5.8,0,0,0-1.16-1.06c-1.13-.63-2.5.05-3.65.62s-2.74,1-3.57,0a11.13,11.13,0,0,1-.81-1.62,3.08,3.08,0,0,0-2.89-1.2,15.69,15.69,0,0,0-3.18.83c-3.07.89-6.35.68-9.54.46l-10.14-.7a1.3,1.3,0,0,1-1-.41,1,1,0,0,1,0-.91c.63-1.82,2.85-2.51,4.77-2.56s4,.28,5.7-.55a25.37,25.37,0,0,1,2.23-1.21,6.53,6.53,0,0,1,2.89-.14A115.33,115.33,0,0,1,453.2,333"/><path class="cls-15" d="M453.75,344c-12.75-3.53-35.92-11.08-35.92-11.08s-1.63,37.73,27.94,45.91,41.92-27.4,41.92-27.4S466.51,347.55,453.75,344Z"/><path class="cls-16" d="M453.88,344.05c-6.07-1.68-32.17-9.69-32.17-9.69s5.58,24.51,27.52,30.58c23.78,6.59,35.21-13.52,35.21-13.52Z"/><path class="cls-17" d="M453.84,345.23c-6.07-1.68-24.18-8-24.18-8s4.41,9.9,22.61,14.94,26.14-1.2,26.14-1.2Z"/><path class="cls-15" d="M489.65,349.56c-.59-.37-4.51.07-7.44-1.08-4.87-1.91-7.57-4.39-11.11-5.73-6.05-2.3-10.82-.42-13.52-1.16s-5.82-4.82-12.19-6c-3.73-.67-13.18-1.55-18.34-2.42-3.1-.52-6.24-2.92-6.93-2.9-1,0-1.45,8.48,32.49,17.88S490.48,350.07,489.65,349.56Z"/><path class="cls-7" d="M456.55,331.88c-6.51-2-12.27-6.33-19.15-7.13a29.94,29.94,0,0,0-11.57,1.4c-3.94,1.12-7.87,2.26-11.81,3.39-.89.25-2.81.94-2.78,2.14s1.94,1.14,2.73,1c5.32-.77,10.18-3,15.4-4.18a14.6,14.6,0,0,1,6.28,0,32.92,32.92,0,0,1,7.38,3c1.32.66,3.33.08,4.51-.63.86-.51,1.93-1.69.6-2.35a39.11,39.11,0,0,0-8.12-3.21,22.38,22.38,0,0,0-8.93-.22c-5.54.91-10.73,3.54-16.2,4.34l-.06,3.17,10.68-3.06c2.84-.82,5.75-1.77,8.74-1.29,6.11,1,11.33,4.9,17.2,6.68a5.68,5.68,0,0,0,4.51-.63c.67-.4,2.1-1.9.59-2.36Z"/><path class="cls-7" d="M466.57,336.3a6,6,0,0,0,3.77,6.56,1.56,1.56,0,0,0,1.14.06c.35-.15.56-.51.84-.76,1.17-1,3-.05,4.08,1.08a16.92,16.92,0,0,1,2.56,3.5c.49.89,1,1.92,2,2.26a8.58,8.58,0,0,0,2.1.11,5,5,0,0,1,3.74,3,35,35,0,0,1,1.54,4.74,6.77,6.77,0,0,0,2.83,4c1.46.81,3.63.45,4.32-1.06s-.26-3.15-1.16-4.5c-3-4.54-6.11-9.13-10.23-12.71s-9.47-6.07-14.91-5.6"/><path class="cls-7" d="M472.68,336.55s.09-.72.24-.63c.53.34-2.27.57-1.44.46-1,0-1.26.08-.72.17l-.08,0a7,7,0,0,0,.79.34c.91.44,1.77,1,2.68,1.41a60.78,60.78,0,0,1,7.79,3.88,11.26,11.26,0,0,1,4.71,5.47c.93,2.57,1.15,5.22,2.63,7.59.26.43,1.32.51,1.71.51a6.29,6.29,0,0,0,2.49-.5c1-.4,2.46-1.29,1.73-2.46a16.12,16.12,0,0,1-1.57-4.74,14.53,14.53,0,0,0-1.75-4.41c-1.72-2.69-4.57-4.44-7.34-5.88-1.73-.89-3.53-1.65-5.3-2.47-1.09-.5-2.1-1.19-3.22-1.65a7.78,7.78,0,0,0-5.79.07c-1.69.63-3.56,1.79-3.93,3.7-.44,2.3,6,1.26,6.37-.84Z"/><path class="cls-7" d="M412.72,330.08c-1,1.13-3.41,3.18-2.19,4.79,1.09,1.45,3.89,1.08,5.42.84a20.47,20.47,0,0,0,5.5-1.68c.86-.4,1.7-.86,2.52-1.33q.57-.31,1.11-.66c.23-.14.8-.36.91-.58-.21.4-2.33-.33-2.62-.08a3.66,3.66,0,0,0-.37.52,3.84,3.84,0,0,0-.86,2c-.16,2.51,3.08,2.7,4.84,2.29a18.06,18.06,0,0,0,5.08-2.54l4.58-2.78c1-.62,1.74-2.08.46-2.83s-3.31-.25-4.54.5l-3.87,2.36L426.93,332a4.68,4.68,0,0,0-1,.6c.15-.21,1.19-.27,1.14-.28l1.32.36c.61.29-.25.52.25.1a3.69,3.69,0,0,0,.61-.84,2.59,2.59,0,0,0,.35-2.51c-1-2.3-4.59-1.78-6.4-1-1.63.73-2.94,1.82-4.42,2.51a10.74,10.74,0,0,1-1.91.71c-.41.08-.48.1-.2.06l-.72.09c-.18,0-.83-.11-.42,0l1,.59h0l-.19,1a7.91,7.91,0,0,1,1.51-2c.87-1,.71-2.22-.7-2.61a4.9,4.9,0,0,0-4.51,1.2Z"/><path class="cls-15" d="M1010.31,541.53c13.22.68,36.64-.2,36.64-.2s-9.33,35.36-40,33.78-31.2-37.26-31.2-37.26S997.09,540.84,1010.31,541.53Z"/><path class="cls-16" d="M1010.13,542.52c6.29.32,30.58.82,30.58.82s-10,21.65-32.77,20.47c-24.65-1.27-29.13-24-29.13-24Z"/><path class="cls-17" d="M1009.8,543.65c6.28.32,25.47,0,25.47,0s-7.31,8-26.17,7-24.42-9.4-24.42-9.4Z"/><path class="cls-15" d="M974.45,536.43c.68-.16,4.26,1.5,7.4,1.34,5.23-.28,8.57-1.77,12.35-1.93,6.47-.27,10.4,3,13.19,3.17s7.05-2.73,13.45-1.79c3.75.54,13,2.69,18.17,3.5,3.1.49,6.79.2,7.44.43.92.33-1.26,7.51-36.42,5.69S973.51,536.66,974.45,536.43Z"/></g></svg>