<svg xmlns="http://www.w3.org/2000/svg" viewBox="0 0 1303.15 1057.31"><defs><style>.cls-1{fill:#f2ebd1;}.cls-2{fill:#a66e53;}.cls-3{fill:#97a07f;}.cls-4{fill:#4f2e25;}.cls-5{fill:#c95744;}.cls-6{fill:#681c0e;}.cls-7{fill:#030303;}.cls-8{fill:#252525;}.cls-9{fill:#010101;}.cls-10{fill:#13110f;}.cls-11{fill:#ce8d2a;}.cls-12{fill:#24180f;}.cls-13{fill:#fff;}.cls-14{fill:#643c2a;}.cls-15{fill:#513835;}.cls-16{fill:#745245;}.cls-17{fill:#282828;}.cls-18{fill:#653c29;}.cls-19{fill:#31160e;}.cls-20{fill:#f1eef7;}</style></defs><g id="Layer_11" data-name="Layer 11"><polyline class="cls-1" points="1330.16 1087.27 1330.16 -25.51 -19.64 -25.51 -19.64 1087.27"/><path d="M1137.4,434.72a25.54,25.54,0,0,0-19.09-42.79,27.94,27.94,0,0,0-32.71-35.7,20.65,20.65,0,0,0-34.11-17.32c-.37-.4-.76-.78-1.16-1.16a29.36,29.36,0,0,0-41.5,1.26,24.31,24.31,0,0,0-30.08,12l-56.86,177.6a46.41,46.41,0,0,0,42.53,29.25,40.39,40.39,0,0,0,54.08,15.32,23.46,23.46,0,0,0,40.77,2.44c2.07.49,4.18.89,6.3,1.21-1.83-6.7,2-15.19,11-14.64s18.46-7.14,20.17-16.05c1.14-6,9.1-8.82,14.26-7.09a10.78,10.78,0,0,1,2.09.94,20.24,20.24,0,0,0-2.83-6c.3-.11.61-.21.9-.33a34.5,34.5,0,0,0,20.25-44.4,36.37,36.37,0,0,0,3.23-2.6A36.78,36.78,0,0,0,1137.4,434.72Z"/><ellipse cx="1074.08" cy="561.21" rx="21" ry="15.35" transform="translate(-137.76 568.06) rotate(-27.91)"/><path class="cls-2" d="M900.25,723.37s14.23-39.72,28.9-52.59c4.13-3.62,50.09-39.72,50.09-39.72s12.09,8.45-1.65,23.69c-10.69,11.86-21.7,22.36-21.7,22.36h0L990,672s37.8-12.18,47.15-14.28,29.22-7.53,35.52,3.08c0,0,14.39-5.06,17.53,1.5a10.92,10.92,0,0,1,.94,10.09l-6.17,4.13s4.37.38,4.18,7.79-60,34.13-60,34.13L1027,722s42.81-11.31,45.14-7.91,4.76,5.92-1.06,10.18S954,774.82,940.26,777.5c-3.61.7-10.48-1-12.75-.46-6.39,1.38-17.93,6.8-17.93,6.8l-28.64-52.23Z"/><path class="cls-3" d="M896.33,720.88,651.06,790.36C638,805.17,521.27,747.6,507.35,761.64c-20.83,21,34,80,34,80s-20.15,10,7.39,36.21c35.47,42.35,78.65,69.38,133.59,48.13,19.12-7.39,201.52-89.36,249.22-117.23,0,0-18.74-27.91-25.84-49A224.58,224.58,0,0,1,896.33,720.88Z"/><path class="cls-4" d="M946.71,727a210.41,210.41,0,0,1-32.83,8,211,211,0,0,1-33.32,5.33,207.65,207.65,0,0,1,32.78-8A209.09,209.09,0,0,1,946.71,727Z"/><path class="cls-4" d="M940.75,712.25c0,.75-14.58,2.46-32.41,5.74s-32.17,6.73-32.38,6a131.39,131.39,0,0,1,31.87-8.71A127.34,127.34,0,0,1,940.75,712.25Z"/><path class="cls-4" d="M843.77,674s14.62,21.76-9.19,59C834.58,733,867,696,843.77,674Z"/><path class="cls-2" d="M1059.25,523.83s-14.51,48.92-5.1,84.13c1.31,4.91,25.28,15.45,25.29,15.45-1-.56-23,14.57-23.94,15.14-16.67,10.18-15.31,40.42-36.79,42.55-22.72,2.26-56.78,8.9-78,.5-14.91-5.89-14.21-32.35-26.25-42.42,0,0,27.73-16.52,29.58-22.22s1-53.85,1-53.85"/><path class="cls-5" d="M935.8,624.66c-6.59,3-96.52,22.17-107.89,76.16s-7.62,200.35-12,247.57c-5.82,55.06-23.68,142.72-25.83,213.37l5.36,66.39,50.57-3.25s42-251.73,63.17-327.49S935.8,624.66,935.8,624.66Z"/><path class="cls-5" d="M853.41,983.05c-.23,29.9-27.46,61.79-10.41,90,24.2,40,71,48.43,114.16,48.24,39-.18,77.71-4.9,116.13-10.92,17.42-2.73,35.34-7.54,52.76-6.74,2.73.12,46,1.45,44.44-3.41L1140,1000.3l-8.17-39.43,30.93-288.6-49.28-39.55L1066,610.26l-9.55,19.2c-13.52,16.77-36.79,31.39-59.11,31.86-6.54.14-24.1-.24-31.08-1-19.47-2.24-30.9-17.85-27.42-38.08.12-.65-39.38,15.41-42.27,15.81-15.43,2.13-41.36,22.15-45.06,28,0,0-12.37,142.87-12.45,166C839,848.05,854.12,886.57,853.41,983.05Z"/><path class="cls-6" d="M860.91,719.15a13.54,13.54,0,0,1,2.63,4.81,32.19,32.19,0,0,1,1.85,13.26c-.56,7-3.43,14.13-5.77,20.74-3.11,8.76-6.49,17.42-9.6,26.19-2.49,7-5.2,14.26-6.06,21.69-1,8.33-.09,16.89,1.55,25.08a97.06,97.06,0,0,0,10,28,63.85,63.85,0,0,0,8,11.53c.6.67,1.67,1.41,1.93,2.23a4.33,4.33,0,0,1,0,1.14L866,886.4l1.72,40.27.58,13.71a18.79,18.79,0,0,1,.09,2.12c0-.39-.18.75-.22.93l-4.81,22.51L855,1005.13l-8.34,39-4.79,22.4-.23,1.08c-.19.91,3.2.37,3.4-.56l3.41-15.94,7.84-36.67,8.7-40.68,6-28a31.81,31.81,0,0,0,.87-4.19,74,74,0,0,0-.34-7.87l-1.67-39.12-.72-17-.21-4.77a5,5,0,0,0,0-1.09c-.26-.84-1.4-1.63-2-2.3-6.63-7.4-11.15-16.56-14.33-25.9a102.48,102.48,0,0,1-5.44-27.83,62.46,62.46,0,0,1,2.81-21.6c2.62-8.65,5.89-17.1,9-25.57,3-8,6.11-16.12,8.35-24.42,1.95-7.25,2.25-14.88-.7-22a13.5,13.5,0,0,0-2.48-4.18c-.67-.69-3.87.55-3.23,1.22Z"/><path class="cls-7" d="M604.38,178.34c4.45-2.41,9.64-6.49,8.15-11.33-.45-1.45-1.47-2.66-2.07-4-1.46-3.34-.4-7.2-.85-10.81s-4.14-7.49-7.27-5.63c2.17-5.29,2.41-11.68-.71-16.47s-10.15-7.07-14.91-3.92a10.59,10.59,0,0,0-17.92-10.26c1.89-5.87,1.67-12.92-2.45-17.5s-12.78-4.88-15.88.45c-.89-8.64-12.92-13.68-19.7-8.25a13.34,13.34,0,0,0-23-7.55A14.08,14.08,0,0,0,482,79.64c-4.71-8.6-18.68-9.83-24.82-2.19A14.08,14.08,0,0,0,432,73.51c-1.84-4.75-8.84-5.66-12.94-2.65s-5.67,8.44-5.86,13.53c-2.41-4.26-8.86-4.72-12.9-2s-6.08,7.64-7.14,12.41c-5.88-4.29-5.66-2.35-10.66,2.93-1.13,1.19-2.11,2.6-3.59,3.3s-3.33.53-5,.73a11.16,11.16,0,0,0-9.14,7.55c-1.47,4.68.27,10-1.74,14.51-1.18,2.63-3.5,4.56-5.12,6.94-5.9,8.72-8.35,21.12-9.61,31.58-1,8.6-20.8,85.43.07,108.7,19.76-31.49,50.48-140.95,86.31-150.86a152.26,152.26,0,0,1,108.46,10.91s34.74,8,41.9,14.49S604.38,178.34,604.38,178.34Z"/><path d="M574.29,95.27c-.09-.33-.19-.66-.29-1a37,37,0,0,0-46.39-24.2,40.28,40.28,0,0,0-2.6-3.61,39.44,39.44,0,0,0-55.48-5.86,27.38,27.38,0,0,0-46.9,18,29.93,29.93,0,0,0-40.08,33,22.14,22.14,0,0,0-20.49,35.54c-.45.38-.88.78-1.31,1.18a31.49,31.49,0,0,0-1,44.51,26.07,26.07,0,0,0,11.19,32.89l186.92,71c19.1-6.44,28.48-35.34,29.8-55.44C608.47,230.64,621,217,611.07,195.81c4.2-1.78,4.23-3.06,6.91-6.75,8.16-11.25,9.26-28.61-2-36.76,0,0,.81-27.42-21-28.28C595,124,600.72,99,574.29,95.27Z"/><path d="M553,100.58c-.09-.33-.19-.66-.29-1-8.06-25.61-12.29-34.92-46.4-24.2a37.88,37.88,0,0,0-2.6-3.61,39.44,39.44,0,0,0-55.47-5.86,27.38,27.38,0,0,0-46.9,18,29.94,29.94,0,0,0-40.09,33,22.15,22.15,0,0,0-20.49,35.54c-.44.38-.88.77-1.3,1.18a31.47,31.47,0,0,0-1,44.5A26.07,26.07,0,0,0,349.59,231l186.92,71a49.76,49.76,0,0,0,33.74-43.88,43.31,43.31,0,0,0,19.49-57,25.16,25.16,0,0,0,4.92-43.52s.81-27.42-21-28.28C573.62,129.32,579.38,104.33,553,100.58Z"/><path class="cls-7" d="M603.26,178.18c4.45-2.42,9.64-6.5,8.16-11.34-.45-1.45-1.47-2.66-2.08-4.05-1.46-3.34-.4-7.2-.85-10.81s-4.13-7.49-7.26-5.63c2.16-5.29,2.41-11.68-.72-16.47s-10.14-7.07-14.91-3.92a10.59,10.59,0,0,0-17.92-10.26c1.9-5.87,1.68-12.91-2.45-17.5s-12.78-4.88-15.88.46C548.47,90,536.44,85,529.66,90.41a13.35,13.35,0,0,0-23-7.56,14.07,14.07,0,0,0-25.81-3.37c-4.71-8.61-18.68-9.84-24.83-2.19a14.08,14.08,0,0,0-25.18-4c-1.83-4.75-8.83-5.66-12.93-2.65s-5.68,8.44-5.87,13.53c-2.41-4.26-8.85-4.71-12.9-2S393.1,89.89,392,94.66c-5.87-4.28-5.66-2.35-10.66,2.93-1.12,1.19-2.11,2.6-3.59,3.3s-3.32.54-5,.73a11.17,11.17,0,0,0-9.14,7.55c-1.48,4.68.27,10-1.75,14.52-1.18,2.62-3.5,4.55-5.11,6.94-5.9,8.72-8.36,21.12-9.61,31.57-1,8.6-20.8,85.43.06,108.71C367,239.42,397.7,130,433.54,120A152.32,152.32,0,0,1,542,131s34.73,8,41.9,14.49S603.26,178.18,603.26,178.18Z"/><path class="cls-2" d="M371.33,295.64s-5,75.43-23.33,93.65c-4.8,4.77-50.11,23.44-50.11,23.44L458.8,522.68,535.14,468s-41.54-36.71-42.58-44.61,13.15-67.86,13.15-67.86"/><path class="cls-4" d="M496.6,400.78l-4.2,23.53s-64.91-6.6-83.79-24.11-19.56-58.35-19.56-58.35Z"/><path class="cls-8" d="M368.37,305c0,.15,0,.27-.05.42A.64.64,0,0,1,368.37,305Z"/><path class="cls-2" d="M370.61,299.83l5.22-58.95L386,175.82l34.84-50.59,50.4-13,52.1,19s39.36,5.81,51.82,12,18.44,22.71,23.73,42.52-1.55,63.92-1.55,63.92c.16,1.11-1.91,5.44-2.3,6.34-5,11.48-8,21.81-12,30.33A22.59,22.59,0,0,0,581,298.56c1.87,16.66.42,23.35-2.78,32.66-4.38,12.71-13.21,20.68-18.75,30.85-5.17,9.49-7.4,17.05-14.3,25.33-2.23,2.67-17.69,28.52-32.17,29.69L493.7,417l-22.38-4.22s-45.56-5.28-61.69-27-22.2-50.29-22.2-50.29"/><path d="M602.85,159.88c-.27,1-.58,2.35-.9,3.92-.53-1-1.11-2.18-1.75-3.52a78.73,78.73,0,0,0-4.38-8A23.58,23.58,0,0,1,602.85,159.88Z"/><path d="M374.86,169.81l.53-2.82c2.31-12.57,18.42-30,43.09-46.47,42.43-28.44,40.79-29.2,93.95-14.12,3.66,1,7.28,2.22,10.75,3.5,30,11,56.33,16.5,72.64,42.42a12.12,12.12,0,0,0-7.2-1.92,5.67,5.67,0,0,0-4.72-5c-22.62-4.48-41.26-20.68-63.08-27.94-4.52-1.5-15.6-5.73-23.28-4.73-17.63-4.13-40.13-1.62-48.93.43-11.7,2.74-39.47,8.18-41.88,37.54l-14.64,88.58c-.78,5,.37,11.4-.09,16.37l-25.74,13.87c-4.19-18.68-9.32-40.7-11.31-45.88C351.84,215.57,372.41,182.91,374.86,169.81Z"/><path class="cls-2" d="M375,307.54c-25.07,15.88-21.9-19.5-21.9-19.5-10.61-20.63-6.46-39.18-3.1-51.74S367.22,227,367.22,227c11.56,3.94,15.43,11.48,16.41,53.65"/><path d="M565.15,142c-19.25-4.32-67.21-28.16-93.08-35.22-10.72-2.92-52.3,16.5-58.25,21.64-13.63,11.8,4.55,49.11-23.21,90-9.17,13.5-12.42-14.12-22.16-6.05S355,223.68,355,223.68c3.11-44,3-42.42,21.12-82.71s67.84-49.12,90.81-48.08,92.89,22.83,110.32,35.79"/><path d="M375.61,271a102.71,102.71,0,0,0-5.83-19.12,32.36,32.36,0,0,0-5.17-8.71,9.13,9.13,0,0,0-3.27-2.58c-1.42-.55-2.49.95-3.27,1.94-3.68,4.62-4.89,10.74-4.77,16.52,0,1.09,2.09.79,2.07-.15a26.69,26.69,0,0,1,2.83-13.35,16.44,16.44,0,0,1,2.09-3,5.44,5.44,0,0,1,.87-.87l-1,.27c-.51-.11-.08,0,0,0,.31.24.1,0,.47.23a10.73,10.73,0,0,1,2.1,1.82c3.2,3.56,5.13,8.23,6.73,12.67a121.38,121.38,0,0,1,4.14,14.84c.21,1,2.25.44,2-.54Z"/><path d="M370.64,272.2c-8.27-2.26-6,10.42-7.61,14.67-.09.22-.26.43-.33.65a2.47,2.47,0,0,1-.23.23l0,0a.49.49,0,0,1,.53-.06,12.27,12.27,0,0,1-.82-1.79,31,31,0,0,1-.62-8,33.46,33.46,0,0,1,1.54-10.65c1.25-3.67,3.42-8.92,7.72-9.73,1.28-.24.91-1.53-.35-1.3-4.28.8-6.88,4.89-8.46,8.61a28.44,28.44,0,0,0-2.33,9.23,56.1,56.1,0,0,0,0,9.87c.16,1.41.3,4.07,1.74,4.89s2.84-.36,3.41-1.54a13.78,13.78,0,0,0,.91-4.76,40.13,40.13,0,0,1,.79-6.47c.4-1.58,1.05-3.08,2.89-2.58.82.22,2.41-1,1.2-1.31Z"/><path d="M485,254.63c-2.59-2.2-6.34-1.67-8.65-.41a7.7,7.7,0,0,0-3,3,7.87,7.87,0,0,0,.21,7.4,7.31,7.31,0,0,0,7.85,3.3c4-.85,6.15-4.91,6-8.26a7.14,7.14,0,0,0-2.34-5"/><path d="M569.71,274.69c3.29-.85,6.43,1.25,8,3.4a7.67,7.67,0,0,1,1.44,4,7.87,7.87,0,0,1-3.41,6.56,7.32,7.32,0,0,1-8.51-.44c-3.21-2.51-3.39-7.1-1.77-10a7.14,7.14,0,0,1,4.28-3.47"/><path d="M542.67,280.22s14.57-9.13,23.42-7.94c12.92,1.74,15.51,5.34,18.67,12.16,0,0-6.9-8-16-8.94C560,274.57,542.67,280.22,542.67,280.22Z"/><path d="M502.27,267.71s-15.17-15.26-23.82-17.48c-12.63-3.24-29.49.78-35,5.92,0,0,22.48-6.45,31.32-3.92C483.24,254.64,502.27,267.71,502.27,267.71Z"/><path d="M514.59,228.8c-1.06,2.91-2.13,5.82-3.21,8.75-.82,2.22-2.53,7.35-3.35,9.56-6.33-4.43-11.62-9.54-15.86-12-8.4-4.86-17.28-9.17-26.88-11.06-4.6-.91-12.66-3.69-17.11-2.76-1.4.29-2.91,1.14-4.33-.27-.59-.58,1.87-3.75,2.12-4.07,5-6.38,13.86-4.84,22-3.83,16.57,2.05,31.82,8,46.64,15.67"/><path d="M598.71,253.64l-4.82-2.73c-13.39-7.64-28-11.32-43.2-13.42q-1.25,4.47-2.51,9c-.63,2.29-1.92,6.36-2.54,8.64,7.14-.07,13.48-.74,18-.36,8.92.74,18.34,1.42,26.49,5.28.65.31,4.11,2,4.72,2.34C598.71,259,599.73,254.63,598.71,253.64Z"/><path d="M521.48,327.62c-4.17,1.14-9.73-.62-12.93-3.85-.71-.72-3.59-.84-2.6.16,4.23,4.27,12.3,6.43,17.68,4.95.53-.14.53-.54,0-.87a3.21,3.21,0,0,0-2.13-.39"/><path d="M504.59,322.47a23.38,23.38,0,0,0-7.62-3.92,1.85,1.85,0,0,0-1.33.12c-.29.16-.4.44-.13.69a8.88,8.88,0,0,0,4.2,2.06,1.73,1.73,0,0,0,1.49-.23c.34-.33-.06-.69-.43-.77a7,7,0,0,1-3.39-1.67l-1.47.8a20.9,20.9,0,0,1,6.8,3.53,1.74,1.74,0,0,0,1.52.18c.34-.12.75-.47.36-.79"/><path d="M493.41,320.28c-3.25-.83-6.76-3.17-7.79-6-1.56-4.36,2.05-9.73,6.69-11.22.51-.16.35-.56-.08-.76a2.62,2.62,0,0,0-1.83,0c-4,1.3-7.45,5.58-7.73,9.27-.26,3.45,2.33,6.49,6,8.36a17.67,17.67,0,0,0,3.51,1.34c.49.12,1.42.18,1.75-.16s-.08-.63-.54-.75"/><path d="M527.86,327.3a.45.45,0,0,1,.56-.54,3.84,3.84,0,0,0,2.73-.27c.21.43.41.86.62,1.28a11.6,11.6,0,0,0-5.55.7.91.91,0,0,1-1-.41c-.17-.22-.3-.7.06-.84"/><path d="M525.27,327.22a12.86,12.86,0,0,1,6.21-.76,1.1,1.1,0,0,1,.78.61.49.49,0,0,1-.17.68"/><path d="M534.55,329.31a6.86,6.86,0,0,0,6.6-2.76,10.23,10.23,0,0,0-.08-11.32.41.41,0,0,1,.32-.67,1.26,1.26,0,0,1,1.05.63,11.45,11.45,0,0,1,1.37,9.91,7.91,7.91,0,0,1-8.9,5.48c-.32-.07-.87-.35-.93-.78s.26-.55.57-.49"/><path d="M441.52,107.31c-19.87,3.73-28.69,8.84-41.15,24.77l112.9-16.93a96.31,96.31,0,0,0-22.48-6.68C470.79,105.5,461.4,103.58,441.52,107.31Z"/><path d="M441.94,106.24a89.78,89.78,0,0,0-20.65,6,52.08,52.08,0,0,0-15,10.58,100.66,100.66,0,0,0-8.16,9.34c-.89,1.14,1.31,1,1.84,1l11.27-1.69,26.94-4,32.57-4.88L499,118.3c4.56-.68,9.14-1.28,13.68-2l.19,0c.59-.09,4.16-1.39,2.43-2.11a112.37,112.37,0,0,0-15.57-5.29c-5.09-1.28-10.32-1.93-15.51-2.7-8.55-1.26-17.13-2.31-25.79-1.91a121.66,121.66,0,0,0-16.47,2c-.76.15-2.66.52-2.86,1.47s1.57.76,2,.67a99.86,99.86,0,0,1,25.76-1.73c4.19.32,8.36.87,12.52,1.48,5,.72,10,1.3,14.93,2.43a110.07,110.07,0,0,1,16.95,5.63l2.42-2.11-11.27,1.69-26.94,4-32.57,4.88-28.25,4.24-9.25,1.38A38.47,38.47,0,0,0,401,131a1.25,1.25,0,0,1-.19,0l1.84,1c3.91-5,8.11-9.89,13.18-13.76A45.12,45.12,0,0,1,430,111a102.6,102.6,0,0,1,11.11-2.66c.76-.14,2.65-.51,2.86-1.46S442.4,106.16,441.94,106.24Z"/><path class="cls-7" d="M391.94,213.78c14.13-6.07,24.94-22.91,28.87-37.78s-.93-25.08,11-34.78,49.37-6.89,61,3.12c7.38,6.36,18.16,11.25,25.78,17.32s17.34,8,26.76,9.92c7.38,1.47,18.33,4.47,25.17,1.34,6.16-2.81,7-2.3,9.91-8.43,2-4.37,8.17-3.21,15.51,2.46s1.64,10.83,6.43,18.78c8.12-18.9-5.27-39.46-20.1-53.71C561.68,112.28,540,95.1,512,90s-56.11-10.81-83.93-4.58c-13.36,3-21.13,10-32.44,17.72C378.19,115,360.63,139,354.1,159c-4.73,14.54-7.43,29.85-6.77,45.12.13,3,.08,48.18.09,45.21.08-24.76,24.11-31.55,33-24.18,13.25,11-10.71,36.11,11.82,48q8.58-37.56,13.4-75.85"/><path class="cls-7" d="M516,334.77a6,6,0,0,0,3,6.93,1.56,1.56,0,0,0,1.13.19c.36-.11.6-.44.91-.66,1.28-.9,3,.28,3.93,1.52a17,17,0,0,1,2.17,3.76,4.23,4.23,0,0,0,1.7,2.46,8.22,8.22,0,0,0,2.06.35,4.93,4.93,0,0,1,3.4,3.35,35.05,35.05,0,0,1,1,4.89,6.76,6.76,0,0,0,2.37,4.26c1.36.95,3.55.84,4.41-.58s.09-3.16-.65-4.61c-2.51-4.84-5.07-9.75-8.77-13.76s-8.74-7.08-14.2-7.21"/><path class="cls-7" d="M506.46,329.71a4.49,4.49,0,0,1-7,3.8,6.22,6.22,0,0,0-1.34-.83c-1.22-.41-2.44.51-3.47,1.28s-2.51,1.44-3.51.64a11.21,11.21,0,0,1-1.09-1.45,3.09,3.09,0,0,0-3.06-.65,16.12,16.12,0,0,0-3,1.39c-2.86,1.45-6.11,1.84-9.29,2.21l-10.1,1.17a1.31,1.31,0,0,1-1.1-.21,1,1,0,0,1-.19-.89c.28-1.91,2.34-3,4.22-3.39s3.94-.46,5.5-1.59c.69-.49,1.23-1.17,2-1.6a6.46,6.46,0,0,1,2.82-.66,115.23,115.23,0,0,1,25,.72"/><path class="cls-7" d="M505.09,327c-7.14-.78-14.14-3.31-21.39-2.17a38,38,0,0,0-11.05,4L462.49,334c-.79.4-1.82,1.51-.8,2.22s2.86.25,4-.14c4.64-1.57,8.69-4.42,13.11-6.4a13.11,13.11,0,0,1,5.65-1.5,30,30,0,0,1,8.47,1.57,5.56,5.56,0,0,0,4.51-1.21c1.07-.93.66-1.77-.57-2.12a35.62,35.62,0,0,0-9.65-1.69,25.68,25.68,0,0,0-9.43,1.9c-5,2-9.43,5.28-14.56,7l3.19,2.08,9.06-4.53c2.46-1.23,5-2.66,7.76-3,6-.81,12,1.57,17.92,2.22a6,6,0,0,0,4.51-1.21c.93-.8.82-2-.56-2.12Z"/><path class="cls-7" d="M494.3,325.69a31.31,31.31,0,0,0-13.38.51,4.2,4.2,0,0,0-2.08,1.24,2,2,0,0,0-.53,1.76c.51,1.51,2.46,1.63,3.76,1.3.5-.13,1-.24,1.49-.34.23-.05.92-.09,0,0l.65-.1a26.78,26.78,0,0,1,2.83-.24l.65,0h.06a6.49,6.49,0,0,1,1.52.08c.95.08,1.88.21,2.81.38,1.41.27,3.59-.54,4.16-1.94s-.57-2.38-1.93-2.63Z"/><path class="cls-7" d="M522.93,336.6c.19-.61.11-.16,0-.19s-.86.34-.88.34a1.92,1.92,0,0,1-.74.15c-.11,0-.08,0,.1,0a2.47,2.47,0,0,0,.52.18A27.09,27.09,0,0,1,525.4,339a36.58,36.58,0,0,1,5.93,4.17,10.82,10.82,0,0,1,3.47,5.68c.53,2.41.44,4.93,1.53,7.2.58,1.21,2.54,1,3.59.66.66-.19,3.35-1.19,2.79-2.37-1.37-2.86-.88-6.17-2.12-9.07a15.61,15.61,0,0,0-5.54-6.33c-1.31-.94-2.68-1.81-4.07-2.65a25.8,25.8,0,0,0-4.26-2.31,9.1,9.1,0,0,0-6.44.09,5.7,5.7,0,0,0-3.71,3.37c-.41,1.35,2,1.38,2.73,1.27,1.2-.18,3.22-.74,3.63-2.11Z"/><path class="cls-7" d="M390.67,219.91c14.13-6.08,31.5-20.92,35.42-35.79s2.16-18,14.09-27.72,38.45-11.27,50.07-1.26c7.37,6.36,12.2,10.46,28.86,16.75,9,3.39,15.53,3.94,24.95,5.82,7.38,1.47,28.23,8.52,35.07,5.4,0,0,5.29-6,12.16-3.53s13.09-1.24,13.76,32.34c8.13-18.89-9.23-59.52-24.07-73.77-20.57-19.74-42.22-36.92-70.27-42.05s-56.11-10.81-83.93-4.58c-13.36,3-21.13,10-32.44,17.72-17.42,11.85-35,35.85-41.5,55.89-4.74,14.54-7.44,29.85-6.78,45.12.13,3,.08,48.18.09,45.21.08-24.76,24.11-31.55,33-24.18,13.25,11-10.71,36.11,11.82,48,5.72-25,10.2-50.36,13.4-75.84"/><path class="cls-4" d="M1027,565s-2.8,41.94-57.27,47.25c0,0-23.12.49-25-1l.07-13.2Z"/><circle cx="1095.67" cy="534.85" r="22.9"/><path d="M907.35,509.92c-11.84-5-18.42-18.56-15.3-31.46-13.13-11-15.58-31-5.47-44.67.34-.47.7-.92,1.06-1.36-8.47-8.67-8.85-22.82-.85-31.6,3.92-4.29,7.17-8.42,12.87-8.38-2.85-16.23,5.35-31.12,20.32-36a26.91,26.91,0,0,1,14.86-.53c-1.58-15.2,9.75-26.32,24.08-27.65,6.59-.62,12.21-.84,17.52,3.49,14-15.93,37.77-16.56,53.13-1.4a42,42,0,0,1,3,3.27c31-9.09,38.63-.56,47.22,18.15l.42,1c11.08-9.68,29.44-4.62,38.6,7.55s10.89,28.82,8.94,44.06c11.78,6.69,16.42,22.11,10.35,34.44a24.05,24.05,0,0,1-8.7,9.76c12.44,19.87,8,46.26-10.13,59.63,1.65,20.3-8.4,39.38-25.47,48.33"/><path class="cls-2" d="M946.42,388.91a5.63,5.63,0,0,1-.54.69l.51-.29ZM926.77,392l0,.34c.32-.22.64-.45.93-.68C927.71,391.25,926.77,392,926.77,392Zm130.77,161.37,2.86-6.52c3.2,12.92,21,6,23.65-11.05,13.67-14.24,17.28-36.81,11.19-46.4l-.71-1.38c-4.55-4.37-13.2-7-17.61-.82-1.52,2.73-3.75,5.77-5.26,8.5-1.55,3.14-3.94,9.5-6.34,12.17,0,0,11.63-30,12.6-37.67s2-26.58-10.84-38.42c0,0-15.12-17.27-20.71-25.76l-2.15-1c-1.31-.09-2.22.25-3.54.15,0-.4.5-.77.55-1.58-2.25.66-4,.13-5.74,0,.47-.37,1.38-.72,1.4-1.12-1.78.28-3.51-.25-5.27-.37.47-.37,1.4-1.12,1.43-1.52-2.25.65-3.52-.24-5.28-.37a3,3,0,0,0,1-1.55c-1.82.68-3.55.16-5.31,0,.47-.38,1-1.15,1.43-1.53-2.25.66-3.51-.24-5.27-.36-.44,0,.94-.75,1-1.15a16.06,16.06,0,0,1-4.43.09c0-.4.94-.74,1-1.14-2.7.62-4-.28-5.72-.4l1.43-1.52a6.25,6.25,0,0,1-5.32.43c.46-.37,1.39-1.11,1.42-1.52a8.72,8.72,0,0,1-7.09.32c.44,0,1.41-1.12,1.43-1.52-2.31,1.46-4,.93-6.23.78.46-.37,1-1.15,1.9-1.9-2.75,1.44-5.88,2-8.44.63.44,0,1-1.15,1-1.55-1.88,1.49,1.57-.3-.61-.85,0,0-5.17,1.26-5.14.85-1.84,1.09,5.12-6.52,2.92-6.67.5-.78-12.67-.13-11.73-.87-2.31,1.46-1.8.65-4.41.07,0,0-9.47,4.19-9,3.82-2.34,1.86-3.22.1-5.82-.49.46-.37,1.46,1.8,1.93,1.43-1.87,1.49-1.15-.48-3.34-.64,0-.4-7-3.12-7-3.52-2.28,1.05-1.58,1.28-4.21,1.09,0-.4-2,4.33-1.5,4-1.87,1.49-1.69.17-3.86-.39l-2.29,1.35c-2.34,1.87.74,1.2-1.87.61,0-.28,9.84,2,10.28,1.45a16,16,0,0,1-5.84,2.1c0-.4.53-1.17.56-1.58a8.86,8.86,0,0,1-7.21,1.93c.44,0,.94-.74,1-1.15-2.34,1.87-5.06,2.89-7.62,1.5v-.07a13.82,13.82,0,0,1-6.35,2.46,1.72,1.72,0,0,1,1-1.55l-1.76-.12c-2.42,3.07,7.82,2,6.66,5.94,0,0-12.37,4.93-21.21,28.32-7.25,19.2-5.19,56.7-5.2,63.19,0,5.61-4.2,16.22-5.29,22-5.89,31.26,8.88,65.33,32.17,84.57,9.28,7.66,28.64,9.81,38.41,9.17,20-1.29,47.06-8,65.67-24.36"/><path class="cls-9" d="M938.08,528.08a11.43,11.43,0,0,0,10.14.19c.67-.33,2.77.21,1.83.68-4,2-10.25,1.68-13.79-.48-.35-.22-.26-.48.21-.59a2.49,2.49,0,0,1,1.61.2"/><path class="cls-9" d="M951.36,528.26a18.18,18.18,0,0,1,6.33-1,1.46,1.46,0,0,1,.93.37c.17.17.19.39,0,.5a7.07,7.07,0,0,1-3.48.48,1.31,1.31,0,0,1-1-.48c-.17-.3.2-.45.48-.42a5.69,5.69,0,0,0,2.81-.4l.87.86a16.54,16.54,0,0,0-5.66.91,1.37,1.37,0,0,1-1.13-.21c-.22-.15-.44-.47-.08-.6"/><path class="cls-9" d="M959.86,529.19c2.52.14,5.56-.68,6.94-2.4,2.08-2.61.7-7.38-2.3-9.4-.33-.21-.13-.45.22-.49a2.13,2.13,0,0,1,1.32.37c2.62,1.76,4.1,5.75,3.49,8.31-.58,2.38-3.12,3.88-6.18,4.34a13.83,13.83,0,0,1-2.81.15c-.39,0-1.06-.19-1.23-.49s.2-.41.55-.39"/><path class="cls-9" d="M933.58,526.48a.32.32,0,0,0-.28-.48,3,3,0,0,1-1.9-.78l-.73.74a9,9,0,0,1,3.83,1.67.71.71,0,0,0,.81-.06c.18-.11.37-.41.14-.58"/><path class="cls-9" d="M935.45,527a10,10,0,0,0-4.28-1.85.85.85,0,0,0-.7.23.34.34,0,0,0,0,.5"/><path class="cls-9" d="M928.33,526.39a5.16,5.16,0,0,1-4.13-3.29,7,7,0,0,1,2.57-7.63.29.29,0,0,0-.08-.53,1,1,0,0,0-.89.2,7.88,7.88,0,0,0-3.19,6.41,5.65,5.65,0,0,0,3.4,5.11,6.15,6.15,0,0,0,1.78.51c.25,0,.7,0,.84-.32s-.07-.43-.3-.46"/><path d="M1069.63,516.34a96.34,96.34,0,0,1,9.12-13.83,31.9,31.9,0,0,1,6.42-6.24,11.71,11.71,0,0,1,2-1.12,5.87,5.87,0,0,1,.55-.21l.44-.11.32,0c0,.08-.16-.07,0,0-.73-.41-.3-.07-.23.14.15.42.43.82.6,1.24,2,4.78,1.36,10.2-.2,15-.18.55,1.32.36,1.5-.17,1.52-4.67,2.12-9.92.42-14.64-.36-1-.71-2.55-2-2.44a8.49,8.49,0,0,0-3.4,1.26,26.36,26.36,0,0,0-6.25,5.43,88.19,88.19,0,0,0-10.7,15.67c-.36.64,1.14.53,1.4.07Z"/><path class="cls-10" d="M897.28,444.19c10.89-.91,17.45.51,34.29,6.77l-.06.41c-.26,2.3-.12,1-.39,3.33l-.63,5.29c-5.49-2.13-9.36-4.21-12.94-5.25-6.78-2-14.38-5.09-21.55-5.11Q896.71,446.93,897.28,444.19Z"/><path class="cls-10" d="M969.69,453.65c.55,2.26.25,1,.8,3.27q.63,2.59,1.28,5.17c5.54-2.87,9.37-5.47,13-7,7.25-3,15.3-7.44,23.2-8.18,3.79-.35,9.23-.75,12.59,1.7.91.66,2.94,3.32,4.23,2.36.53-.4-1.11-3-1.28-3.21-3.33-5.14-9-6.23-15.66-6.06-13.5.36-19.89,2.32-38.3,11.56"/><path class="cls-11" d="M1071.72,545.44a8.7,8.7,0,0,1,1.92,11.59,7.48,7.48,0,0,1-2.26,2.15,6.83,6.83,0,0,1-1.31.62c-.52.19-1.08.22-1.59.4.28-.1.25,0,0,0l-.67,0a9.7,9.7,0,0,1-2-.41,8.67,8.67,0,0,1-5.43-4.92c-.36-.86-2.52-.22-2.18.58a10.38,10.38,0,0,0,9.72,6.19,10.12,10.12,0,0,0,6.9-3.31,9.51,9.51,0,0,0,2.46-6.51,9.87,9.87,0,0,0-3.86-7.48c-.64-.52-2.61.42-1.71,1.15Z"/><path d="M1068.44,516.81c1.32.1,3.37.32,3.78,1.88.31,1.21-.4,2.59-.9,3.66-1.17,2.49-3.37,5.71-2.3,8.58,1.26,3.39,4.89,1.89,6.91.09a16.87,16.87,0,0,0,4.06-5.87c.72-1.66,1-3.44,1.71-5.07,1.5-3.27,2.82-8.44-1.13-10.52-.39-.21-1.62.4-1.41.52,3.57,1.87,2.66,6.35,1.42,9.43-.18.46-.41.89-.6,1.35a16.21,16.21,0,0,0-.55,2,19.11,19.11,0,0,1-3.48,6.82c-.77.93-2.32,2.87-3.72,2.7s-1.92-2-2-3.13c-.13-2.89,1.91-5.53,3-8.09.41-1,.88-2.32.29-3.35-.76-1.35-2.75-1.52-4.11-1.63-.34,0-1.71.58-1,.64Z"/><path class="cls-10" d="M910.89,475.51a5,5,0,0,0-5.48.12,4.83,4.83,0,0,0-1.79,2,5,5,0,0,0,.45,4.66,4.64,4.64,0,0,0,5.1,1.75,5.13,5.13,0,0,0,3.42-5.48,4.57,4.57,0,0,0-1.7-3.06"/><path class="cls-10" d="M990.73,477.15a5,5,0,0,1,5.18,1.8,4.94,4.94,0,0,1,1.09,2.47,5,5,0,0,1-1.88,4.29,4.63,4.63,0,0,1-5.39.09,5.12,5.12,0,0,1-1.55-6.27,4.52,4.52,0,0,1,2.55-2.38"/><path d="M1023.32,328.88s11.67-9.53,27.49-6.84,23.22,17.94,22.9,23.63S1023.32,328.88,1023.32,328.88Z"/><path class="cls-12" d="M942.86,545.24c10.69.93,29.73,8,34.12,12.56,0,0-9.73,14.56-34.54,12.41s-27.38-16.62-27.38-16.62S929.24,544.06,942.86,545.24Z"/><path class="cls-13" d="M971.3,553.83s-12.64-2.13-22.79-3-23-1-23-1-1-7.73,17.43-6.14S971.3,553.83,971.3,553.83Z"/><path class="cls-14" d="M940.38,567.41c11.75-.65,25.45-9.53,38.92-7.52,0,0-6.6,20.83-35.76,18.3s-30.17-24-30.17-24C927,554.51,928.91,564.74,940.38,567.41Z"/><path class="cls-14" d="M930.68,538.35c6.16.08,9.85,2.74,12.51,3s6.75-1.76,12.84-.77c5.7.92,25.75,17.84,22.88,19.42s-17.79-11.13-36.23-12.73-26.4,9.48-29,7.42S924.91,538.28,930.68,538.35Z"/><path class="cls-4" d="M962.42,466.74s-9.4,1.3-8.62-7,3.58-10.27,3.58-10.27-2.27,9.3-.71,12.48C958,464.71,959,465.71,962.42,466.74Z"/><path class="cls-10" d="M972.05,485.17s13.12-9.29,19.76-9.76c12-.86,23,6.41,26.32,11.06,0,0-17.09-9.68-23.9-9C987.72,478,972.05,485.17,972.05,485.17Z"/><path class="cls-10" d="M934.58,483s-12.27-9.16-18.46-10c-9-1.17-15.12,2.88-18.4,7.35,0,0,10.52-6.3,16.87-5.29C920.66,476,934.58,483,934.58,483Z"/><path d="M981.18,373.13,942.9,353.21c-12.44,4.74-16.55,13.31-26.63,23.44-14,14.1-24.29,28.91-25.49,49.19a22.89,22.89,0,0,1-2,8.37,16.76,16.76,0,0,0,1.34,1,13.45,13.45,0,0,0,10.78,3.18,12.89,12.89,0,0,0,7.59-6A22.77,22.77,0,0,0,911.34,417a27.64,27.64,0,0,0,17.9-20.83c7.52,3.3,16.28.26,20.65-7.17a17,17,0,0,0,16.42,6.12C976.07,393.26,982.72,383.43,981.18,373.13Z"/><path d="M971.6,374.69l39.54-17.3c12.09,5.56,23.58,12.47,32.95,23.25,13.06,15,14.33,32.41,14.15,52.72a23,23,0,0,0,1.45,8.49c-.46.32-.92.64-1.41.92a13.45,13.45,0,0,1-11,2.44,12.91,12.91,0,0,1-7.17-6.49,22.79,22.79,0,0,1-1.81-15.59,27.67,27.67,0,0,1-16.46-22c-7.72,2.78-16.26-.84-20.11-8.54a17,17,0,0,1-16.8,5C975.35,395.11,969.37,384.86,971.6,374.69Z"/><path d="M1035.86,429.81a12.87,12.87,0,0,0,12.61,13.09c-4.1,10.34-.69,34.2,18.16,35.23,19.44.29,33.29.44,50.64-9.39a41.87,41.87,0,0,0,8.76-6.61,18.58,18.58,0,0,0-1.38-7.23,177.16,177.16,0,0,0-10-19.44,6.82,6.82,0,0,1-1-4.34,9.39,9.39,0,0,1,3.27-4.25,16,16,0,0,0-7.77-27,9.2,9.2,0,0,0,.17-12.7,44.88,44.88,0,0,0-11.39-8.33c-7.44-4.89-13.67-12.28-22.22-14.48a22,22,0,0,0-23.6,9.1,31.39,31.39,0,0,0-18.29-2.23,12.79,12.79,0,0,0-10.08,13.61l-1.66.35a26,26,0,0,0-.63,2.78,26.41,26.41,0,0,0,21.57,30.49A12.87,12.87,0,0,0,1035.86,429.81Z"/><path d="M1061.18,464.33s-5.9,34.34-1.71,40.61,4.14,6.72,8.2-4.44a188.13,188.13,0,0,1,10-22.11Z"/><path class="cls-3" d="M613.26,555.83l-4.36-51.42c3.28,6.83-29.42-33.12-63.67-54.72-14.64-9.22-39.32-21-48.94-24.61,1.84,13.12,1.8,27.11-7.51,33.72a74.29,74.29,0,0,1-44.87,13.56c-15.31-.4-30.56-4.67-44.66-10.49C372.88,451,343.42,418.61,338.69,389l-10.77,3.76S242,426.06,228.64,430.69s-23.82,345.66-23.82,345.66L167.61,918.59c-3.72,13.73-82.37,102-41.65,213.88,0,0,295-21.9,325.42-20.75,35.39,1.34,109.92,2,119.76-14.45S613.26,555.83,613.26,555.83Z"/><path class="cls-3" d="M535.14,443.77s51.59,27.08,81.65,61C639,529.89,679.9,715.49,692.15,750S717,812.53,717,812.53l-159.66,34.3L504.66,660.45l41.72-199.22Z"/><path class="cls-15" d="M417,653a.81.81,0,0,1,.31,0c0,.4.2.82-.15,1.17Z"/><path class="cls-15" d="M430.37,791.59a.81.81,0,0,1-.29.12c0-.25-.07-.51-.1-.77Z"/><path class="cls-16" d="M511.41,641.5l-.43,0,.42-.21A.23.23,0,0,1,511.41,641.5Z"/><path class="cls-16" d="M450.78,648.84l.4-.28.12.22Z"/><path class="cls-16" d="M510.11,641.57l-.57.06A.38.38,0,0,1,510.11,641.57Z"/><path class="cls-16" d="M418.31,652.84a.3.3,0,0,1,.48-.07Z"/><path class="cls-17" d="M610.68,593.57l-.6,8.57-1.65,23.33L606,660l-3,41.94-3.24,45.93-3.29,46.51-3.06,43.37-2.58,36.64L589,900.62c-.3,4.15-.68,8.3-.88,12.45,0,.18,0,.36,0,.54-.15,2.18,3.94,1.7,4.07-.25l.61-8.57,1.65-23.33L596.86,847l3-41.94,3.24-45.93,3.28-46.51,3.06-43.37L612,632.56l1.85-26.25c.29-4.15.68-8.3.88-12.45,0-.18,0-.36,0-.54.15-2.18-3.94-1.7-4.08.25Z"/><path class="cls-17" d="M700.58,775.69c-6.42,3.75-12.87,7.47-19.05,11.63-6.53,4.4-13,9.28-18,15.41a27.82,27.82,0,0,0-5.42,9.68c-.27.94,3,.49,3.28-.5,1.92-6.6,7.06-11.91,12.16-16.28a140.31,140.31,0,0,1,19.25-13.45c3.25-2,6.53-3.85,9.81-5.77.47-.27,1-.71.35-1.08s-1.82.07-2.33.36Z"/><path class="cls-3" d="M245.92,653.34l-.08-229s-78,11.68-102.63,86.15C122.47,578.61,68.34,802.5,69.34,847s23.48,299.13,23.48,299.13l102.36-10.58L202,817.71Z"/><path class="cls-17" d="M250.48,477.21c5.85,5,11.62,12.35,16,19.14,9.86,15.24,15.45,33.2,14.11,51.44-.65,8.89-2.45,17.8-4.12,26.55-1.78,9.27-3.78,18.5-5.92,27.7-4.32,18.54-9.18,37-14.35,55.28-5.22,18.54-11.16,36.85-16.6,55.33-5,17-9.47,34.07-14.2,51.09l-19.89,71.54-2.78,10a24.13,24.13,0,0,0-1,3.67c-.27,2.59.4,5.58.59,8.16l3.88,53.24,5.76,79,5.5,75.41,3.09,42.44.15,2c.12,1.72,4.14.79,4-1.07l-2.19-30.09-5.13-70.45-5.92-81.1-4.52-62.06-1.07-14.6a11.71,11.71,0,0,1-.09-1.32c0-.63,0,.25,0,0,.29-1.58.88-3.16,1.31-4.71L224.86,780l17.64-63.44c3.74-13.48,8.24-26.75,12.19-40.18,10.44-35.44,20.27-71.29,26.83-107.68,1.66-9.16,3.45-18.49,3.34-27.83a81.09,81.09,0,0,0-5-26.86,100.34,100.34,0,0,0-21.47-34.34,62.77,62.77,0,0,0-4.84-4.67c-1.27-1.09-4.82.77-3.1,2.24Z"/><path class="cls-5" d="M1194,870.75s7.57,50,.34,76.83-40.73,41.62-62,39.39-27.19-66.18-27.19-66.18Z"/><path class="cls-5" d="M1145.38,913.1c11.91-6.07,22-15,32.75-22.85,5.33-3.9,11-7.33,16.61-10.73-1.39-16.66-3-31.49-3-31.49s-9.58-110.8-11.83-132.89c-6-58.26-71.84-82.75-71.84-82.75s19.29,89.5,4.15,113.07-8.82,54.51-8.82,54.51l1.83,28.6,3.62,65.53c6.09,4.16,3.36,3.69,8.63,8.78,6,5.78,16.59,7,22.55,12.6A57.52,57.52,0,0,0,1145.38,913.1Z"/><path class="cls-6" d="M1115.59,676.93c-4.73,1.56-8.91,5.38-12.12,9-9.53,10.83-13.86,25.52-15.92,39.52-1.61,11-1.73,22.1-1.52,33.18.21,10.9.84,21.79,1.71,32.66,1.62,20,4.06,40,7,59.87q1.53,10.3,3.28,20.58c.56,3.3,1,6.69,1.76,10,0,.14.06.3.08.44l3.22-.86c-.21-.89-1.17-1.46-1.92-1.86a26.14,26.14,0,0,0-4-1.64c-3.78-1.26-7.67-2.2-11.56-3.08a211.94,211.94,0,0,0-24.79-4.16c-15.29-1.63-30.68-2.26-46-2.85s-30.89-.88-46.33-1.36c-17.42-.54-34.84-1.31-52.2-3-.69-.07-2.18.33-2.19,1.28l-.05,6.25c0,1.66,3.25,1.17,3.26-.26l.05-6.24-2.19,1.28c30.45,2.88,61.05,3.06,91.59,4.07,15.06.49,30.15,1.07,45.17,2.34a227.74,227.74,0,0,1,27.9,3.88c4.4.92,8.79,1.93,13.11,3.2A42.28,42.28,0,0,1,1098,881a8.26,8.26,0,0,1,1.43.76l.17.13c.27.21,0,0,.12.1a1.24,1.24,0,0,1,.14.18c.11.18-.08-.27,0,0,.36,1.47,3.5.63,3.22-.86-1.54-8.15-2.87-16.35-4.14-24.54-2.93-18.82-5.38-37.72-7.17-56.68-1-10.83-1.81-21.68-2.24-32.54a278.69,278.69,0,0,1,.19-32.7c1.19-15.43,4.49-32,13.83-44.75a38.48,38.48,0,0,1,8.24-8.45q.83-.6,1.68-1.14l.36-.22c.29-.18-.34.19.06,0,.22-.13.44-.26.66-.37.57-.31,1.17-.56,1.76-.84.38-.17-.48.17-.17.06.62-.2,1.54-.72,1.32-1.51s-1.3-.86-1.9-.66Z"/><path class="cls-2" d="M905.34,910.86l-22.78-6.76s-31.66,8.95-46.83,7a119.48,119.48,0,0,1-31.53-9.79l-34.57-3.7s-15.7,6.88-18.21,2.13,2.69-8.87,7.73-12.87S848.75,854,848.75,854a162.54,162.54,0,0,0-25.64-10.53c-13.6-4.16-17.9-13.63-11.3-17.73,4.07-2.53,24.7-1.07,29.93,5.3s23.85,2.36,37,8.47,20.83,24.29,20.83,24.29c6.53,4.12,16.9,7.9,16.9,7.9C919.17,885.45,905.34,910.86,905.34,910.86Z"/><path class="cls-6" d="M902.51,909.57c.07,6.89-2.18,13.68-2.11,20.58a.87.87,0,0,0,.68.9,96.83,96.83,0,0,1,12.38,4.17c6.25,2.31,12.49,4.67,18.79,6.86a207.78,207.78,0,0,0,20.12,6.06c7.72,1.82,15.65,2.73,23.44,4.28,16.32,3.24,32.39,7.6,48.37,12.26,15.23,4.44,30.4,9.09,45.79,13a350.09,350.09,0,0,0,50,9.05q3.36.33,6.72.6a2.16,2.16,0,0,0,2.08-.95c.32-.7-.29-1.21-1-1.26a331.78,331.78,0,0,1-50.8-8.24c-15.39-3.68-30.55-8.24-45.72-12.7-15.7-4.62-31.46-9.07-47.47-12.52-8.37-1.81-16.81-3.1-25.23-4.64A148.28,148.28,0,0,1,939,941.65c-6.52-2.15-13-4.53-19.41-6.93-4.78-1.78-9.54-3.68-14.43-5.15-.72-.22-1.44-.42-2.17-.59l.68.9c-.07-6.9,2.18-13.69,2.11-20.59,0-1.6-3.23-1.08-3.22.28Z"/><path class="cls-6" d="M1099.25,880.55a42.6,42.6,0,0,1,20.87,20.69c.63,1.37,3.78.44,3.18-.85a44.83,44.83,0,0,0-22.2-21.95c-1.3-.59-3.68,1.28-1.85,2.11Z"/><path class="cls-7" d="M506.45,380.57a15.54,15.54,0,0,1-5.68,6.5,2.89,2.89,0,0,1-2.25.6c-.64-.19-1.09-.76-1.69-1.07a3.5,3.5,0,0,0-3.43.53,30.33,30.33,0,0,1-3,2.12,2.89,2.89,0,0,1-3.38-.33,4,4,0,0,1-.7-1.56,16.05,16.05,0,0,0-2.73-5.82,15.52,15.52,0,0,1-2.17-2.76,2.58,2.58,0,0,1,.49-3.19,3.6,3.6,0,0,1,3,0c6,1.72,7.59,3.17,21.51,5"/><path class="cls-7" d="M505.06,334.08a4.49,4.49,0,0,1-7.53,2.46,6.14,6.14,0,0,0-1.17-1.06c-1.12-.63-2.49,0-3.65.62s-2.73,1-3.57,0a12.24,12.24,0,0,1-.81-1.62,3.08,3.08,0,0,0-2.89-1.2,16.1,16.1,0,0,0-3.17.83c-3.08.89-6.35.68-9.55.46l-10.14-.7a1.32,1.32,0,0,1-1-.41,1,1,0,0,1,0-.91c.62-1.82,2.84-2.51,4.77-2.56s3.95.28,5.69-.55a25.37,25.37,0,0,1,2.23-1.21,6.54,6.54,0,0,1,2.89-.14,115.19,115.19,0,0,1,24.49,5.3"/><path class="cls-18" d="M502.15,344.39c-12.76-3.53-35.93-11.08-35.93-11.08s-1.63,37.73,27.94,45.91,41.92-27.4,41.92-27.4S514.9,347.92,502.15,344.39Z"/><path class="cls-19" d="M502.27,344.42c-6.06-1.68-32.16-9.69-32.16-9.69s5.57,24.51,27.51,30.58c23.78,6.59,35.21-13.52,35.21-13.52Z"/><path class="cls-20" d="M502.23,345.6c-6.06-1.68-24.17-8-24.17-8s4.41,9.9,22.6,14.94,26.14-1.2,26.14-1.2Z"/><path class="cls-18" d="M538.05,349.93c-.59-.37-4.52.07-7.44-1.08-4.88-1.91-7.57-4.38-11.12-5.73-6-2.3-10.81-.42-13.51-1.16s-5.82-4.82-12.19-6c-3.73-.67-13.18-1.55-18.35-2.42-3.09-.52-6.23-2.92-6.93-2.9-1,0-1.44,8.48,32.49,17.88S538.87,350.44,538.05,349.93Z"/><path class="cls-7" d="M505,332.48c-6.52-2-12.23-6.28-19.13-7-3.89-.43-7.81.49-11.53,1.54-3.94,1.11-7.87,2.25-11.81,3.38-.71.21-2.84.76-2.89,1.75s2.15.6,2.59.53c5.18-.75,10-3,15-4.1s9.38.7,13.77,2.88c1.21.6,2.92.12,4.12-.32.28-.1,2.92-1.37,1.88-1.88a37.4,37.4,0,0,0-8.14-3.25,23.45,23.45,0,0,0-9-.17c-5.64.88-10.85,3.57-16.41,4.37l-.3,2.28,10.68-3.06c2.83-.81,5.64-1.7,8.61-1.16,6.17,1.12,11.44,5,17.39,6.78,1.37.42,3.24-.19,4.47-.79.62-.31,2.13-1.32.76-1.74Z"/><path class="cls-7" d="M515,336.67a6,6,0,0,0,3.77,6.56,1.56,1.56,0,0,0,1.14.06c.34-.15.55-.5.83-.76,1.17-1,3,0,4.08,1.08a16.56,16.56,0,0,1,2.56,3.5c.49.89,1,1.92,2,2.26a8.63,8.63,0,0,0,2.1.11,4.94,4.94,0,0,1,3.74,3,35,35,0,0,1,1.55,4.74,6.72,6.72,0,0,0,2.82,4c1.46.81,3.63.45,4.32-1.06s-.26-3.15-1.16-4.5c-3-4.54-6.11-9.13-10.22-12.71s-9.48-6.07-14.92-5.6"/><path class="cls-7" d="M521.12,337.09c0,.22-.67.34-.8.36s-.77.1-.8,0,.74.29.78.3c.65.3,1.87,1,2.76,1.45a60.81,60.81,0,0,1,7.36,3.67,10.63,10.63,0,0,1,4.63,5.15c.94,2.62,1.16,5.34,2.67,7.76s7.58,0,5.84-2.79A15.89,15.89,0,0,1,542,348.4a15.33,15.33,0,0,0-1.79-4.58c-1.71-2.72-4.58-4.58-7.38-6-1.79-.93-3.63-1.85-5.51-2.6L527,335h0l-.73-.4c-.73-.4-1.46-.8-2.23-1.14-3.44-1.51-8.55.08-9.33,4.11-.3,1.56,1.78,2.13,2.94,2,1.46-.11,3.21-1,3.52-2.55Z"/><path class="cls-7" d="M461.11,330.45c-.94,1.13-3.41,3.18-2.19,4.79,1.09,1.45,3.89,1.08,5.42.84a20.43,20.43,0,0,0,5.51-1.68c.86-.4,1.69-.86,2.51-1.33.38-.21.75-.43,1.12-.66.22-.14.79-.36.9-.58-.21.4-2.33-.33-2.61-.08a3,3,0,0,0-.38.52,3.84,3.84,0,0,0-.86,2c-.16,2.52,3.08,2.7,4.84,2.29a18.25,18.25,0,0,0,5.09-2.54l4.57-2.78c1-.62,1.74-2.08.47-2.83s-3.31-.25-4.54.5l-3.87,2.36-1.76,1.07a4.51,4.51,0,0,0-1,.6c.16-.21,1.2-.27,1.14-.28l1.32.36c.62.29-.25.52.26.1a3.69,3.69,0,0,0,.61-.84,2.61,2.61,0,0,0,.34-2.51c-1-2.3-4.59-1.78-6.4-1-1.63.73-2.94,1.82-4.41,2.51a11.1,11.1,0,0,1-1.92.71c-.41.08-.47.1-.2.06-.23,0-.47.07-.71.09s-.84-.11-.42,0l1,.59h0l-.18,1a7.86,7.86,0,0,1,1.5-2c.87-1,.71-2.22-.7-2.61a4.9,4.9,0,0,0-4.51,1.2Z"/></g></svg>