<svg xmlns="http://www.w3.org/2000/svg" viewBox="0 0 1303.15 1057.31"><defs><style>.cls-1{fill:#f2ebd1;}.cls-2{fill:#a66e53;}.cls-3{fill:#4f2e25;}.cls-4{fill:#010101;}.cls-5{fill:#13110f;}.cls-6{fill:#ce8d2a;}.cls-7{fill:#513835;}.cls-8{fill:#97a07f;}.cls-9{fill:#c95744;}.cls-10{fill:#fff;}.cls-11{fill:none;}.cls-12{fill:#681c0e;}.cls-13{fill:#282828;}.cls-14{fill:#030303;}.cls-15{fill:#252525;}.cls-16{fill:#653c29;}.cls-17{fill:#31160e;}.cls-18{fill:#f1eef7;}</style></defs><g id="Layer_11" data-name="Layer 11"><polyline class="cls-1" points="1316.12 1089.91 1316.12 -22.88 -33.67 -22.88 -33.67 1089.91"/><ellipse cx="1009.49" cy="565.62" rx="22.68" ry="16.29" transform="translate(-137.47 412.39) rotate(-21.65)"/><path d="M1100.38,421.66a27.09,27.09,0,0,0-13.84-26.38c1.48-12.73.11-25.82-6.28-36.59-7.14-12-22.13-19.21-34.34-15.17a21.77,21.77,0,0,0-14.66-17.86A30.09,30.09,0,0,0,1013,310.49c-11.84-3.37-22.12.23-26.91,2.49-14.76-14.15-37.36-14.86-52.67-.84-5.1-5.18-11.06-5.6-18.08-5.71-15.27-.25-28.51,10.17-28.6,26.39A28.54,28.54,0,0,0,871,331.65c-16.36,3.41-26.74,18.18-25.61,35.63-6-.71-9.92,3.27-14.54,7.35-9.46,8.34-10.7,23.31-2.76,33.44-.44.42-.86.85-1.27,1.3-12.25,13.24-12,34.62.6,47.76-4.79,13.25.59,28.3,12.49,34.95l19.52,7.21-6.34,14.23a49.22,49.22,0,0,0,41.48,35.77,42.87,42.87,0,0,0,55.27,22.43A24.9,24.9,0,0,0,992.56,579c2.12.76,4.3,1.43,6.5,2-1.15-7.28,3.92-15.79,13.35-14.17,5.7,1,11.79-1.13,16.4-4.93l2.37.88a49.79,49.79,0,0,0,21.1-15.91,11.62,11.62,0,0,1,1.23.77c-.11-.62-.25-1.24-.4-1.86a53.06,53.06,0,0,0,4.23-6.78,36.63,36.63,0,0,0,22-39.85,47.17,47.17,0,0,0,2.57-4.94c.17-.12.36-.23.53-.36a39,39,0,0,0,10.34-52.28,27.16,27.16,0,0,0,2.35-6.37A27.07,27.07,0,0,0,1100.38,421.66Z"/><path class="cls-2" d="M1004.89,525.2s-21.51,49.69-16.07,88c.75,5.34,23.27,18.91,23.28,18.92-1-.73-26.08,12.42-27.15,12.9-18.85,8.6-21.27,40.63-44.17,40.15-24.22-.51-60.95,2.15-82.28-9.41-15-8.1-14.75-31.9-26.15-44,0,0,35.58-11.11,38.25-16.88s5.62-63.88,5.62-63.88"/><circle cx="1035.68" cy="540.17" r="24.31"/><path class="cls-3" d="M976.42,563.12s-20.17,45.29-78.24,44.59c0,0-24.44-2.16-26.2-4l1.6-13.92Z"/><path class="cls-2" d="M895.12,369a6,6,0,0,1-.66.67c.2-.08.4-.16.58-.25Zm-21.09,1-.06.36c.37-.2.73-.4,1.06-.61C875.11,369.26,874,369.93,874,369.93ZM993.31,555.28l3.77-6.55c1.88,14,21.43,8.75,26.23-8.91,16.06-13.45,22.49-36.84,17.17-47.66l-.59-1.54c-4.3-5.14-13.12-8.91-18.48-2.9-1.91,2.7-4.62,5.65-6.54,8.36-2,3.13-5.25,9.57-8.08,12.11,0,0,15.73-30.35,17.64-38.29s5.21-27.79-7-41.77c0,0-14-20-18.87-29.58l-2.15-1.26c-1.38-.25-2.37,0-3.75-.24.07-.42.61-.76.76-1.61-2.45.43-4.22-.33-6.06-.66.54-.34,1.54-.59,1.61-1-1.91.09-3.68-.66-5.52-1,.54-.34,1.61-1,1.69-1.44-2.46.42-3.68-.67-5.52-1a3.15,3.15,0,0,0,1.22-1.52c-2,.51-3.76-.25-5.6-.58.54-.34,1.16-1.1,1.69-1.44-2.45.43-3.68-.66-5.52-1-.46-.08,1.07-.67,1.15-1.1a17,17,0,0,1-4.68-.41c.08-.42,1.07-.68,1.15-1.1-2.91.35-4.14-.75-6-1.08l1.68-1.44a6.63,6.63,0,0,1-5.67-.15c.54-.34,1.61-1,1.69-1.44a9.28,9.28,0,0,1-7.52-.49c.46.09,1.61-1,1.69-1.44-2.61,1.28-4.37.52-6.67.1.53-.33,1.15-1.1,2.22-1.77-3.06,1.19-6.44,1.45-9-.32.46.09,1.15-1.1,1.23-1.52-2.15,1.36,1.69-.13-.54-1,0,0-5.6.73-5.52.31-2.07.94,6.15-6.29,3.85-6.7.61-.76-13.35-1.6-12.27-2.28-2.61,1.27-2,.48-4.67-.44,0,0-10.47,3.33-9.93,3-2.69,1.7-3.4-.26-6.09-1.18.54-.34,1.34,2.07,1.88,1.73-2.15,1.35-1.16-.65-3.46-1.06.08-.42-7-4.11-7-4.53-2.53.85-1.81,1.17-4.57.67.08-.42-2.57,4.34-2,4-2.15,1.36-1.81,0-4-.85l-2.56,1.16c-2.68,1.69.64,1.34-2,.42.05-.29,10.14,3.2,10.66,2.72a17,17,0,0,1-6.39,1.54c.07-.42.69-1.18.77-1.6a9.43,9.43,0,0,1-7.83,1.2c.47.08,1.08-.68,1.15-1.1-2.68,1.69-5.67,2.46-8.2.7v-.07a14.79,14.79,0,0,1-7,1.86,1.84,1.84,0,0,1,1.22-1.53l-1.84-.33c-2.91,3,8,3,6.34,7,0,0-13.62,3.77-25.65,27.42-9.87,19.41-12,59.21-12.8,66.05-.66,5.93-6.3,16.63-8.11,22.58-9.83,32.3,1.8,69.94,24.14,92.93,8.91,9.16,29.08,13.66,39.46,14.12,21.2,1,54.8-4.51,76.73-26"/><path class="cls-4" d="M870.23,514.8c2.7,2.08,7.32,2.6,10.67,1.37.74-.27,2.89.54,1.85.92-4.43,1.62-11,.59-14.49-2.09-.34-.27-.22-.54.29-.6a2.65,2.65,0,0,1,1.68.4"/><path class="cls-4" d="M884.2,516.52a19.44,19.44,0,0,1,6.81-.33,1.5,1.5,0,0,1,.93.5c.16.2.16.42-.11.51a7.43,7.43,0,0,1-3.72.11,1.4,1.4,0,0,1-1-.63c-.15-.33.26-.45.55-.38a5.9,5.9,0,0,0,3-.1l.82,1a17.46,17.46,0,0,0-6.08.31,1.48,1.48,0,0,1-1.17-.36c-.21-.18-.41-.55,0-.64"/><path class="cls-4" d="M893.07,518.49c2.64.44,5.94-.07,7.6-1.74,2.5-2.51,1.59-7.7-1.35-10.17-.31-.27-.08-.49.3-.5a2.21,2.21,0,0,1,1.35.55c2.55,2.15,3.65,6.54,2.71,9.16-.88,2.45-3.73,3.74-7,3.87a15.05,15.05,0,0,1-3-.17c-.4-.07-1.1-.32-1.23-.66s.25-.4.62-.34"/><path class="cls-4" d="M865.66,512.59a.34.34,0,0,0-.24-.54,3.22,3.22,0,0,1-1.92-1l-.85.69a9.44,9.44,0,0,1,3.84,2.21.79.79,0,0,0,.87,0c.2-.1.44-.39.22-.6"/><path class="cls-4" d="M867.58,513.34a10.66,10.66,0,0,0-4.31-2.45.86.86,0,0,0-.76.17.35.35,0,0,0-.09.52"/><path class="cls-4" d="M860.13,511.89a5.46,5.46,0,0,1-4-3.95,7.4,7.4,0,0,1,3.59-7.76.31.31,0,0,0,0-.56,1,1,0,0,0-1,.11,8.35,8.35,0,0,0-4.1,6.39,6,6,0,0,0,3,5.78,6.86,6.86,0,0,0,1.82.75,1,1,0,0,0,.93-.25c.19-.28,0-.46-.27-.51"/><path d="M1010.36,517.54c4.23-5.91,8.82-11.82,14.48-16.44a25.08,25.08,0,0,1,4.48-3,11.4,11.4,0,0,1,1.57-.67,4.14,4.14,0,0,1,.5-.15l.28-.07.15,0,.46-.06c.3,0,0,0,.16,0s.44.06.12,0l-.32-.24a12.78,12.78,0,0,1,1.23,4.53,25,25,0,0,1-2.44,13c-.33.72,1.25.57,1.48.06,2.17-4.79,3.44-10.26,2.18-15.48-.23-1-.43-2.74-1.66-2.77a8.94,8.94,0,0,0-3.82,1,29.19,29.19,0,0,0-7.29,5.08,93.43,93.43,0,0,0-13,15.28c-.43.61,1.17.52,1.49.06Z"/><path class="cls-5" d="M835.39,434c11.15-3.19,18.27-3.06,37.09,0l0,.43c.2,2.46.09,1.09.28,3.56q.22,2.82.43,5.63c-6.15-1.08-10.61-2.45-14.55-2.81-7.47-.68-16-2.34-23.49-.89C835.29,437.94,835.37,436,835.39,434Z"/><path class="cls-5" d="M911.65,438.31c-.44,2.43-.19,1.07-.62,3.52-.33,1.85-.65,3.71-1,5.56,6.61-.42,11.44-1.3,15.65-1.22,8.34.14,18-.68,26,2,3.82,1.28,9.29,3.22,11.5,7,.59,1,1.43,4.47,3.1,4.09.68-.15.18-3.33.13-3.66-1-6.41-6.12-9.92-12.63-12.58-13.26-5.43-20.29-6.26-42.13-5.16"/><path class="cls-6" d="M1009.09,548.54c3.36,3.38,4.06,9,.71,12.63a7.76,7.76,0,0,1-2.58,1.89,7.49,7.49,0,0,1-1.52.49,8.89,8.89,0,0,1-.88.13l-.42,0h-.14a1.65,1.65,0,0,1-.31,0c-.29,0,0,0-.1,0l-.48-.1a10.63,10.63,0,0,1-2.13-.7,9.23,9.23,0,0,1-5.11-5.86c-.28-.93-2.59-.3-2.32.62a10.89,10.89,0,0,0,9.55,7.57,11,11,0,0,0,7.34-2.57,10.2,10.2,0,0,0,3.6-6.66,10.42,10.42,0,0,0-3.08-8.4c-.65-.65-2.84.24-2.13,1Z"/><path d="M1008.93,518c1.38.26,3.54.7,3.87,2.36.26,1.26-.61,2.63-1.23,3.66-1.52,2.53-4.19,5.56-3.59,8.75a3,3,0,0,0,2.52,2.71,7.51,7.51,0,0,0,4.64-1.61,17.49,17.49,0,0,0,4.68-5.16,21.83,21.83,0,0,0,2-4.06,8,8,0,0,1,.69-1.55c2-3.3,4.16-8.76.15-11.46-.38-.26-1.75.38-1.49.55,3.63,2.45,2,7.25.24,10.38-.23.41-.51.8-.73,1.21-.39.76-.6,1.64-.95,2.43a20,20,0,0,1-4.4,6.42c-.92.87-2.74,2.61-4.18,2.09-1.22-.44-1.69-2.21-1.64-3.36.1-3,2.53-5.62,4-8.14.58-1,1.31-2.42.84-3.63-.59-1.52-2.66-2-4.06-2.22a1.71,1.71,0,0,0-1.11.19c-.11.07-.56.37-.19.44Z"/><path class="cls-5" d="M847.63,456.2a5.29,5.29,0,0,0-5.8-.51,5,5,0,0,0-2.12,1.91,5.27,5.27,0,0,0-.07,5,4.93,4.93,0,0,0,5.18,2.43,5.43,5.43,0,0,0,4.24-5.39,4.85,4.85,0,0,0-1.43-3.41"/><path class="cls-5" d="M931.66,467.16c2.23-.48,4.28,1,5.25,2.5a5.17,5.17,0,0,1,.86,2.73,5.3,5.3,0,0,1-2.47,4.31,4.92,4.92,0,0,1-5.7-.54,5.43,5.43,0,0,1-.92-6.79,4.86,4.86,0,0,1,3-2.21"/><path class="cls-5" d="M911,473.46s14.92-8.28,22-8c12.73.48,23.49,9.41,26.49,14.71,0,0-16.91-12.19-24.17-12.3C928.37,467.75,911,473.46,911,473.46Z"/><path class="cls-5" d="M871.75,466.81s-11.89-11.08-18.33-12.64c-9.4-2.28-16.27,1.29-20.25,5.62,0,0,11.82-5.43,18.4-3.62C857.86,457.89,871.75,466.81,871.75,466.81Z"/><path d="M1070.64,428.73a17,17,0,0,0-5.08-29.34A9.77,9.77,0,0,0,1067.2,386a47.63,47.63,0,0,0-11-10.11c-7.29-6-13-14.53-21.77-17.84a23.35,23.35,0,0,0-26,6.87,33.27,33.27,0,0,0-18.62-4.48A116,116,0,0,0,967,343.19L930.87,354.5l-35.34-23.61c-13.67,3.56-19,12.12-30.8,21.64-16.44,13.25-29,27.69-32.58,48.94a24.07,24.07,0,0,1-3.09,8.6c.42.42.84.84,1.3,1.22a14.23,14.23,0,0,0,11,4.6,13.74,13.74,0,0,0,8.71-5.44,24.16,24.16,0,0,0,4.79-15.95,29.37,29.37,0,0,0,21.3-19.91c7.55,4.35,17.15,2.16,22.61-5.17a18.09,18.09,0,0,0,16.62,8.35,18.8,18.8,0,0,0,9.64-3.59,19.08,19.08,0,0,0,9.74,8.39,18,18,0,0,0,18.29-3.33c3.18,8.57,11.77,13.39,20.23,11.34a29.39,29.39,0,0,0,14.48,24.9A19.16,19.16,0,0,0,995,440c.14.05.28.08.42.12-3.58,9.73-2.69,27.14,8.76,34.15-2.62,11-5.52,25.82-3.27,30.15,3.7,7.1,4.78,9,10.34-2.32s11.92-23.59,11.92-23.59l-.2-.21c15,1.52,27.46,1.35,43.1-5.38a44.48,44.48,0,0,0,10-6,20,20,0,0,0-.62-7.79,186.48,186.48,0,0,0-8.28-21.66,7.2,7.2,0,0,1-.52-4.68A9.82,9.82,0,0,1,1070.64,428.73Z"/><path class="cls-2" d="M405.73,294.3s-5.2,78.43-24.26,97.37c-5,5-52.09,24.37-52.09,24.37L496.67,530.36,576,473.54s-43.19-38.16-44.27-46.38,13.68-70.55,13.68-70.55"/><path class="cls-7" d="M564,1012.17a1.07,1.07,0,0,0,.27.09c0-.23,0-.46,0-.7Z"/><path class="cls-8" d="M572.3,446.05A174.25,174.25,0,0,1,629.52,476c27.84,22.15,87.34,169.93,102.77,205.65s55.17,105.63,55.17,105.63l-19.54,233L548,714.19l17.24-262.73Z"/><path class="cls-9" d="M788.39,657.75,770.47,778.94S747.26,823,747.9,864.4c.37,23.47,17.36,30.76,23.73,47.43,5,13.12-.22,88.15-.22,88.15L749.83,1124c37.31,9.68,48.33,19.17,87,22.45,39,3.31,78.24,2.38,117.32.94,31.57-1.16,63.67-1.64,95-6.07,19.69-2.79,39.52-9.46,59-14.14L1081.53,984l31.87-215.29-42.62-103s-10.44-9.95-15.56-13.62c-11.9-8.53-39.28-25.73-63.91-34.66,0,0-36.89,54.34-113.23,40.48-40.74-7.4-7.48-43.07-7.48-43.07l-81.41,36.06"/><path class="cls-8" d="M218.53,916.54S158.54,695,164.26,591s28.58-125.44,76.3-148.07S343.3,529.72,343.3,529.72l42.36,241.8Z"/><path class="cls-9" d="M857,621.05s-52.62,16.1-74.59,30.36S691.6,841.52,677.78,866.6s-83.21,62.88-83.21,62.88l89,77.54,46.14-31.33a86.79,86.79,0,0,0,23.91-24.36l87.07-133.61L851.44,635.9Z"/><polygon class="cls-10" points="603.34 844.92 577.03 903.95 595.98 912.77 620.74 852.85 603.34 844.92"/><path class="cls-8" d="M214.21,458c23-25.61,126.87-49.69,159-61.93l1,1.69c11.57,24.32,25,50.2,63.81,66.55,19.19,8.09,68,12.09,84.38-1.86,13.05-11.09,9.08-11.72,12.12-27.34.28-1.4.67-3,1.93-3.66a4.89,4.89,0,0,1,3.42-.09c10.71,2.29,88.23,36.49,92.9,47.67,2.62,6.27,4,10.2,4,10.2l22.74,118.94-19.24,273.2c3.3,84.39,9.66,195.88,9.47,260.1L499,1099.57a528.48,528.48,0,0,1-147.76-5.47l-99.82-17.87a1557.77,1557.77,0,0,1,25.89-186c18.78-92.34,10.52-212.46,9-228.66C283.35,628.23,179.61,496.19,214.21,458Z"/><path class="cls-8" d="M221.37,635.17S209.54,850.39,198.66,912.6s-30.55,112.12-13.14,231.23c5.85,40,186,22.58,272.8,17.87s188.07,21.19,192-24.25S450.28,966.53,450.28,966.53Z"/><path class="cls-11" d="M1004.63,917.54c-.67,3.28-1.46,6.54-2.35,9.75a1,1,0,0,1,.19-.68C1003,924.72,1003.73,921.61,1004.63,917.54Z"/><path class="cls-12" d="M760.48,734.66a88.76,88.76,0,0,1,5.18,45c-2.22,15.17-8.71,29.21-12.72,43.91a158.75,158.75,0,0,0-4,20.72,101.59,101.59,0,0,0-1,18.11,56,56,0,0,0,11.38,31.8c1,1.32,2,2.59,3.15,3.83a10.19,10.19,0,0,1,1.27,1.48,34.14,34.14,0,0,1,1.82,4.31,123.81,123.81,0,0,1,5.36,15.3c.32,1.22.61,2.45.83,3.7.26,1.44,3.39.64,3.13-.84A84.93,84.93,0,0,0,770,906.37c-.78-2-1.59-4-2.44-6a9.87,9.87,0,0,0-1.72-3.07,59.36,59.36,0,0,1-10.29-15.45,53.71,53.71,0,0,1-4.21-16.09,84.5,84.5,0,0,1,.26-17.56A171.75,171.75,0,0,1,754.93,828c3.42-14.9,10.05-28.86,13.08-43.87a90,90,0,0,0-2.5-45c-.57-1.8-1.21-3.58-1.9-5.35-.55-1.4-3.66-.51-3.13.84Z"/><path class="cls-2" d="M614.58,1016l70.14,24.1,46.82-.62a369.83,369.83,0,0,0,43.55,6.06c6.43-.89,6-4.85,5.46-7.88s-32.5-14.23-32.5-14.23,44.64,9.56,52.2,6,5.62-10.57,3.45-14.63-53.68-14-53.68-14l10.11-1.73s39.47,12.8,49.48,9.79S816.5,993,816.5,993L767.76,980l-16.58-5.69,18.08.15s35,9.58,43.32,4.61.68-15.22.68-15.22l-50.2-16.17-66.51-7.77c6.79-3,25.2-1.33,30.89-6.2,8-7.33-.45-11.88-.45-11.88l-50.27-2.28L630,942.2Z"/><path class="cls-9" d="M1066.44,661.89s19.89,14.78,33.1,34.16c22.53,33.06,15.41,104.16-5.75,189.63S1066.44,661.89,1066.44,661.89Z"/><path class="cls-9" d="M933,935.19,827,972.72l-57.74,17.69,12.51,75s57.64-5.63,78.1-9.12,119.9-12.94,119.9-12.94l6.92-51.23L933,935.19"/><path class="cls-13" d="M613.38,1030.58l-3.43,9.73,3-1.13c-14.37-1.43-28.8-2.39-43.21-3.25q-22.82-1.35-45.66-2c-9-.27-17.95-.39-26.92-.88-17.43-1-34.83-2.55-52.18-4.41q-32.42-3.49-64.62-8.55c-21.78-3.44-43.5-7.43-65-12.5-18.16-4.28-36.36-9.19-53.6-16.4a108.65,108.65,0,0,1-18.5-9.55,27.59,27.59,0,0,1-6.54-5.43A45.4,45.4,0,0,1,231.08,966a204.71,204.71,0,0,1-9.28-27.7c-1.42-5.22-2.85-10.47-4-15.76-2.23-10.69-4.08-21.47-6.12-32.19L203.49,847l-.5-2.59c-.18-1-3.85-.11-3.64,1l6.34,33.36,8.11,42.64a258.85,258.85,0,0,0,8.89,33c2.62,7.89,5.42,16.83,10.79,23.36,3.74,4.54,9.9,7.6,15,10.24,15.32,7.89,32.11,12.93,48.69,17.35,20.85,5.56,42,9.83,63.28,13.54,21.95,3.82,44,7,66.14,9.63,18.86,2.25,37.78,4.16,56.73,5.5,20.8,1.48,41.65,1.57,62.47,2.51,20.63.94,41.25,2.22,61.81,4.1l3,.29c.81.08,2.64-.21,3-1.13L617,1030c.32-.91-3.25-.48-3.62.56Z"/><path class="cls-13" d="M632.05,947.67l3.67-10.55c.15-.42-.37-.62-.68-.67-18.66-2.9-37.21-6.76-55.62-10.93-36.92-8.35-73.79-18.44-108.77-33C441.25,880.19,412,866.9,384,851.63q-3.94-2.14-7.82-4.4a14.56,14.56,0,0,1-3.09-1.87c-.31-.32,0,.22-.07,0a2.39,2.39,0,0,1-.1-.71c-.09-1.22-.32-2.44-.49-3.65q-2.65-19.62-5.37-39.24-4.59-33.15-9.31-66.28-5.52-38.67-11.31-77.31C342.76,634,339,609.81,335,585.69c-2.85-17.06-5.68-34.17-9.47-51.05a92.41,92.41,0,0,0-3.88-13.78c-7-17.64-17.63-35.33-33.11-46.74a49.36,49.36,0,0,0-22.2-9.5c-1-.15-4.26,1.56-2.27,1.84,18.63,2.67,32.86,17.77,42.53,32.89,5.88,9.2,11,19.31,13.77,29.94,3.83,14.78,6.28,30,8.88,45,4,23,7.58,46,11.1,69q5.94,38.89,11.52,77.84,5,35,9.9,70Q365,814.1,368.07,837c.39,2.82.34,6.21,1.21,8.93.5,1.55,3,2.39,4.37,3.18C395,861.58,417.59,871.91,440.07,882c18.85,8.48,37.79,16.62,57.38,23.28,18.14,6.17,36.58,11.45,55.14,16.17,25.17,6.4,50.61,11.87,76.22,16.17,1.32.23,2.64.45,4,.65l-.68-.66-3.67,10.55c-.38,1.07,3.24.62,3.63-.51Z"/><path class="cls-13" d="M372.63,845.09c-4.19-1.43-9.05-1.37-13.38-.88-11.16,1.25-21.39,6.92-29.59,14.41A99.78,99.78,0,0,0,311,882.56c-.81,1.38,2.81,1,3.37,0,7.47-12.89,17.27-25.5,30.82-32.38a39.93,39.93,0,0,1,12.1-3.93,28.9,28.9,0,0,1,4.88-.38c.74,0,1.47,0,2.21,0l.49,0H365l.93.1a26.74,26.74,0,0,1,2.95.51l.46.11c.3.08-.34-.1.05,0l.27.08a3.26,3.26,0,0,0,2.58-.37c.4-.24,1.19-1,.35-1.31Z"/><path class="cls-2" d="M642.1,1022.79a3.57,3.57,0,0,0,1.63,1.18s-11.51,4.83,4.92,15.58c0,0,3.64,15.18,14.57,18.11,0,0,10.76,15.61,18.55,19.16s65.13-8.37,65.13-8.37l30.7-20.64-7.92-51.54-5.53,3.37s-18.44-13.35-28.21-16.52a96.61,96.61,0,0,0-24.46-3.1l-25,3.63c-1.35,13.32,28,15.22,28.33,16.79a11.13,11.13,0,0,1-8.86,13c-11.71,2.81-25.09,6.07-27,6.87s-17-4.71-28.15-9C644.24,1008.75,637.46,1017,642.1,1022.79Z"/><path class="cls-3" d="M767.73,998.27l-3.65,1,1,0c-3.28-2.37-6.65-4.63-10.06-6.82-5.52-3.55-11.28-7.25-17.5-9.47a45.19,45.19,0,0,0-6.89-1.66c-2.57-.49-5.17-.88-7.77-1.17s-5.21-.48-7.82-.56a26.3,26.3,0,0,0-3.66,0c-4.12.49-8.22,1.2-12.32,1.8l-12.36,1.8c-.37,0-1.23.29-1.27.78-.67,7.45,7.46,11.1,13.33,13.08a98.14,98.14,0,0,0,10.27,2.7c1.18.26,2.36.5,3.53.8.34.09.77.22.95.29s.3.18.26.09a8.32,8.32,0,0,1-.05,4.26,10.73,10.73,0,0,1-1.8,4c-1.86,2.57-4.36,3.45-7.32,4.16-6.5,1.56-13,3.12-19.46,4.79-1.85.48-3.71.94-5.52,1.52a7.72,7.72,0,0,0-.85.29c-.33.15,0-.12.23,0-.27-.08.22.09-.11,0-.66-.17-1.38-.19-2-.34a132.18,132.18,0,0,1-15.17-4.92c-3.4-1.24-6.76-2.61-10.18-3.81a9.08,9.08,0,0,0-7.63.89,8.92,8.92,0,0,0-4.3,6c-.45,2.64.68,5.9,3.3,7l.44-1.06c-2.12.9-4.26,2.83-4.56,5.21s1.18,4.66,2.75,6.36a30.09,30.09,0,0,0,4.72,4c.88.62,1.26.56,1.51,1.46a31.64,31.64,0,0,0,7.05,13,19.44,19.44,0,0,0,3.72,3,15.35,15.35,0,0,0,2.18,1.1c.34.14.68.27,1,.39.18,0,.67.22.52.1a7.18,7.18,0,0,1,.9,1.26q1,1.37,2,2.7a98.92,98.92,0,0,0,7.35,8.62c2.45,2.54,5.18,5.15,8.42,6.66.69.33,2.74-.67,1.78-1.12a26.77,26.77,0,0,1-7.24-5.55,87.06,87.06,0,0,1-6.63-7.48c-1.4-1.75-2.76-3.54-4.06-5.36-.33-.47-.42-.68-1-.88a18.87,18.87,0,0,1-4.33-2.11c-4.44-3.16-7.24-8.35-9-13.41-.21-.6-.39-1.21-.57-1.82-.27-.9-1.16-1.19-1.92-1.74-2.59-1.84-5.72-4.26-6.75-7.42a4.49,4.49,0,0,1,1-4.65,5.82,5.82,0,0,1,1.39-1.09c.46-.29.11-.11.54-.29s1.12-.78.44-1.05c-2.59-1.07-3.36-4.49-2.62-7a7,7,0,0,1,4.85-4.81,6.15,6.15,0,0,1,3.49.41c1.57.58,3.12,1.19,4.69,1.77,2.95,1.1,5.9,2.19,8.87,3.23,4.25,1.49,8.69,3.31,13.18,3.94a7,7,0,0,0,3.11-.4c1.94-.6,3.91-1.09,5.87-1.6,6.4-1.64,12.83-3.18,19.26-4.72a14.9,14.9,0,0,0,7.24-3.51,11.93,11.93,0,0,0,3.51-6.69c.16-1,.41-2.95-.08-3.93a1,1,0,0,0-.5-.51,8.6,8.6,0,0,0-2.39-.73c-3-.71-6-1.3-9-2.1-6.2-1.67-17.19-5-16.44-13.28l-1.28.78,11.37-1.66c4.42-.64,8.86-1.48,13.31-1.93a29,29,0,0,1,4.27.06c2.93.12,5.84.37,8.74.77,4.7.64,9.61,1.38,14,3.29,6.52,2.86,12.61,6.8,18.51,10.73,2.1,1.4,4.19,2.83,6.24,4.29a1.66,1.66,0,0,0,1.65.34c1.19-.26,2.35-.63,3.53-.95,1.35-.36,1-1.55-.32-1.18Z"/><path class="cls-3" d="M698.18,1034.66a60.68,60.68,0,0,1-23.62,3.06,53.5,53.5,0,0,1-21.7-9.06,46.34,46.34,0,0,0-8.6-5.18,32.54,32.54,0,0,0,7.54,6.75,47.54,47.54,0,0,0,22.4,10.18,53.4,53.4,0,0,0,24.41-3.93,34.26,34.26,0,0,0,9.33-4.36A46.27,46.27,0,0,0,698.18,1034.66Z"/><path class="cls-3" d="M698.84,1049.39a93.79,93.79,0,0,1-9.66,2.07,30.58,30.58,0,0,1-11.83,0,59.71,59.71,0,0,1-11-4.35c-3.37-1.63-6.44-3-9-4.16a31.6,31.6,0,0,0-8.66-3.21,31.38,31.38,0,0,0,7.8,4.91l8.77,4.68a54.31,54.31,0,0,0,11.49,4.73,31.06,31.06,0,0,0,12.7-.36,69,69,0,0,0,9.86-2.74,19.3,19.3,0,0,0,8.32-4.48A73.15,73.15,0,0,1,698.84,1049.39Z"/><path class="cls-12" d="M1039.93,691.24a14.59,14.59,0,0,0-6.16,1.56c-4.61,2.07-8.48,5.59-11.75,9.37-6.58,7.61-11.32,16.76-15.28,26a231.11,231.11,0,0,0-11.66,35.35c-5.52,22.07-9.13,44.62-12.25,67.14-2.88,20.85-5.22,41.78-7.18,62.75-.91,9.66-1.47,19.37-2.44,29a.09.09,0,0,1,0,.05c0-.34-.07.43-.08.52l-.32,2.29,1.4-.83-17.62,5.65L913.25,944q-27.33,8.76-54.66,17.48-26,8.3-51.92,16.55c-11.7,3.72-23.4,7.45-35.13,11.1l-2.43.75c-.34.1-1.56.45-1.41,1s1.43.24,1.71.15c10.72-3.3,21.4-6.71,32.08-10.1q25.39-8.07,50.77-16.18l55.07-17.6,45.36-14.53,21.52-6.9.29-.1c.32-.1,1.33-.36,1.4-.82,1.17-8.34,1.48-16.81,2.23-25.19,1.76-19.59,3.84-39.15,6.36-58.66,2.91-22.56,6.31-45.11,11.2-67.34a293.22,293.22,0,0,1,8.24-30.39c4-11.8,8.76-23.6,15.63-34,3.48-5.31,7.66-10.55,13-14.08a18.11,18.11,0,0,1,4-2c.46-.17-.11,0,0,0l.43-.13c.28-.08.87-.19.32-.09l.54-.09c.41-.08-.09-.12,0,0s.93,0,0,0a3.37,3.37,0,0,0,2.21-.59c.39-.36.5-.8-.22-.82Z"/><path class="cls-12" d="M1079.35,979.13c-3.94,13.68-8.93,27.6-19.13,37.94a50.85,50.85,0,0,1-21,12.64,75.63,75.63,0,0,1-9.15,2.19l-.82.15-.46.08-.17,0-2.06.35c-7.69,1.29-15.42,2.45-23.14,3.59q-16.39,2.45-32.83,4.74-19.37,2.75-38.75,5.41-20.35,2.8-40.73,5.56-19.65,2.67-39.3,5.3l-33.92,4.54-24.77,3.29c-3.92.52-8,.8-11.85,1.56a4.63,4.63,0,0,1-.52.07l1.41.69-3-19.87c-.2-1.39-3.34-.62-3.12.83l3,19.88c.08.57,1,.75,1.41.69l8.3-1.09,22.31-3,32.61-4.35,38.78-5.22q20.6-2.79,41.19-5.62,19.89-2.73,39.76-5.52,17.31-2.43,34.59-5c8.42-1.24,16.85-2.49,25.25-3.85,2.78-.46,5.55-.92,8.31-1.43a61.53,61.53,0,0,0,23.38-9.23c12.59-8.52,19.92-22,24.67-36.11,1.07-3.17,2-6.37,3-9.58.41-1.43-2.78-1.07-3.16.25Z"/><path class="cls-13" d="M645.12,846.56l.39-6.79,1-18.47,1.54-27.09L650,760.93l2.07-36.45,2.08-36.67,1.94-34.2,1.65-29,1.18-20.78c.18-3.28.41-6.57.55-9.85l0-.43c.09-1.61-3.59-.94-3.66.4l-.39,6.79-1.05,18.47-1.54,27.1L651,679.59l-2.07,36.46-2.09,36.67-1.94,34.19-1.64,29-1.18,20.78c-.19,3.29-.41,6.57-.56,9.86l0,.43c-.09,1.6,3.59.93,3.66-.41Z"/><path class="cls-14" d="M648,172.35c4.63-2.51,10-6.75,8.48-11.78-.46-1.51-1.52-2.77-2.16-4.22-1.51-3.46-.41-7.48-.88-11.24s-4.29-7.78-7.55-5.85c2.25-5.5,2.51-12.14-.74-17.12s-10.55-7.35-15.51-4.07A11,11,0,0,0,611,107.39c2-6.1,1.75-13.42-2.54-18.19s-13.29-5.07-16.51.48c-.92-9-13.43-14.23-20.48-8.58a13.88,13.88,0,0,0-23.88-7.86,14.64,14.64,0,0,0-26.84-3.51c-4.89-8.94-19.42-10.22-25.8-2.27a14.65,14.65,0,0,0-26.19-4.1c-1.9-4.94-9.18-5.89-13.45-2.76s-5.89,8.78-6.09,14.07c-2.51-4.43-9.21-4.9-13.42-2s-6.31,7.94-7.42,12.9c-6.11-4.45-5.88-2.44-11.08,3-1.17,1.23-2.19,2.7-3.73,3.43s-3.46.56-5.21.76a11.62,11.62,0,0,0-9.51,7.85c-1.53,4.86.28,10.44-1.81,15.09-1.23,2.73-3.64,4.73-5.32,7.21-6.13,9.07-8.68,22-10,32.83-1.08,8.94-21.62,88.82.06,113,20.55-32.74,52.49-146.55,89.75-156.85a158.25,158.25,0,0,1,112.76,11.35s36.11,8.28,43.56,15.06S648,172.35,648,172.35Z"/><path d="M616.75,86c-.1-.34-.2-.68-.31-1A38.46,38.46,0,0,0,568.21,59.8a41.55,41.55,0,0,0-2.7-3.76A41,41,0,0,0,507.83,50a28.47,28.47,0,0,0-48.76,18.73A31.13,31.13,0,0,0,417.39,103a23,23,0,0,0-21.3,36.95c-.46.4-.92.81-1.36,1.23a32.73,32.73,0,0,0-1.06,46.27,27.11,27.11,0,0,0,11.64,34.2l194.34,73.8c19.85-6.69,29.6-36.73,31-57.64,21.65-11.06,34.71-25.27,24.36-47.27,4.36-1.85,4.39-3.18,7.17-7,8.49-11.7,9.64-29.74-2-38.22,0,0,.84-28.51-21.89-29.4C638.22,115.87,644.22,89.89,616.75,86Z"/><path d="M594.57,91.5c-.1-.34-.2-.68-.31-1C585.89,63.85,581.48,54.17,546,65.32a40.19,40.19,0,0,0-2.7-3.76,41,41,0,0,0-57.68-6.09A28.46,28.46,0,0,0,436.89,74.2a31.13,31.13,0,0,0-41.68,34.29,23,23,0,0,0-21.3,37c-.46.4-.92.8-1.36,1.23a32.73,32.73,0,0,0-1.06,46.27,27.11,27.11,0,0,0,11.64,34.2l194.34,73.8a51.7,51.7,0,0,0,35.07-45.61A45,45,0,0,0,632.81,196a26.16,26.16,0,0,0,5.12-45.24s.84-28.51-21.89-29.41C616,121.38,622,95.4,594.57,91.5Z"/><path class="cls-14" d="M646.86,172.18c4.63-2.52,10-6.75,8.48-11.79-.46-1.51-1.52-2.76-2.15-4.21-1.52-3.47-.42-7.49-.89-11.24s-4.29-7.78-7.55-5.85c2.25-5.5,2.51-12.15-.74-17.12s-10.55-7.36-15.5-4.08a11,11,0,0,0-18.64-10.67c2-6.1,1.75-13.42-2.54-18.19S594,84,590.82,89.5c-.92-9-13.43-14.23-20.48-8.58a13.88,13.88,0,0,0-23.88-7.85,14.63,14.63,0,0,0-26.84-3.51c-4.89-9-19.42-10.23-25.8-2.28a14.65,14.65,0,0,0-26.19-4.1c-1.9-4.93-9.18-5.88-13.44-2.76s-5.9,8.78-6.1,14.07c-2.51-4.42-9.21-4.9-13.41-2s-6.32,7.94-7.43,12.91c-6.11-4.46-5.88-2.45-11.08,3-1.17,1.24-2.19,2.71-3.73,3.43s-3.46.56-5.21.76a11.63,11.63,0,0,0-9.51,7.85c-1.53,4.87.28,10.44-1.81,15.09-1.23,2.74-3.64,4.74-5.32,7.22-6.13,9.07-8.68,22-10,32.82-1.08,8.95-21.62,88.83.06,113,20.55-32.74,52.49-146.55,89.75-156.86a158.36,158.36,0,0,1,112.76,11.35s36.11,8.28,43.56,15.07S646.86,172.18,646.86,172.18Z"/><path class="cls-3" d="M536,403.61l-4.36,24.47s-67.49-6.87-87.12-25.07-20.34-60.67-20.34-60.67Z"/><path class="cls-15" d="M402.66,304c0,.15,0,.29-.06.43A.62.62,0,0,1,402.66,304Z"/><path class="cls-2" d="M405,298.65l5.42-61.28L421,169.72l36.23-52.59,52.4-13.5,54.16,19.75s40.93,6,53.88,12.44,15.62,23.61,21.12,44.21,1.94,66.46,1.94,66.46c.16,1.15-2,5.65-2.39,6.59-5.24,11.93-8.3,22.67-12.42,31.53a23.41,23.41,0,0,0-2.27,12.73c1.94,17.32.44,24.27-2.9,34-4.55,13.22-13.72,21.51-19.48,32.08-5.38,9.86-7.7,17.72-14.88,26.33C584.1,392.48,568,419.35,553,420.58l-20-.09-23.27-4.39s-47.37-5.49-64.14-28-23.08-52.29-23.08-52.29"/><path d="M409.4,163.48l.55-2.94c2.41-13.07,19.15-31.13,44.8-48.31,44.12-29.56,42.41-30.36,97.68-14.67,3.8,1.08,7.57,2.3,11.18,3.63,31.21,11.47,58.56,17.16,75.52,44.11a12.56,12.56,0,0,0-7.49-2,5.87,5.87,0,0,0-4.91-5.15c-23.51-4.66-42.89-21.51-65.58-29.05-4.7-1.57-16.21-6-24.21-4.92-18.32-4.3-41.72-1.69-50.86.45-12.17,2.84-41,8.5-43.55,39l-15.21,92.08c-.81,5.24.38,11.86-.1,17l-26.76,14.41c-4.36-19.42-9.69-42.31-11.76-47.7C385.46,211.06,406.86,177.1,409.4,163.48Z"/><path class="cls-2" d="M409.5,306.68c-26.07,16.5-22.78-20.28-22.78-20.28-11-21.45-6.71-40.73-3.21-53.79S401.46,223,401.46,223c12,4.09,16,11.93,17.06,55.78"/><path d="M607.25,134.54c-20-4.49-69.89-29.27-96.79-36.61-11.14-3-54.37,17.15-60.55,22.5-14.18,12.27,4.73,51-24.13,93.53-9.54,14-12.92-14.68-23-6.3s-14,11.82-14,11.82c3.24-45.69,3.08-44.1,21.95-86s70.54-51.08,94.42-50,96.58,23.73,114.7,37.21"/><path d="M410.18,268.65a107.29,107.29,0,0,0-6.05-19.85,33.9,33.9,0,0,0-5.37-9.07,9.73,9.73,0,0,0-3.39-2.69c-1.49-.59-2.61,1-3.43,2-3.82,4.81-5.08,11.17-4.95,17.18,0,1.13,2.17.82,2.15-.15a27.57,27.57,0,0,1,2.95-13.89,14.47,14.47,0,0,1,3.07-4l-1.07.28c-.49-.1-.11,0,0,0,.38.2.07,0,.46.23a10.67,10.67,0,0,1,2.19,1.88c3.3,3.65,5.31,8.47,7,13a125.56,125.56,0,0,1,4.36,15.59c.22,1,2.34.45,2.12-.57Z"/><path d="M405,269.93c-8.63-2.36-6.16,10.89-7.93,15.3-.09.22-.25.42-.33.63a2,2,0,0,1-.24.25c-.21-.37.57,0,.58,0a4.59,4.59,0,0,1-.44-.55,5.6,5.6,0,0,1-.46-1.38,32.74,32.74,0,0,1-.63-8.44A34.66,34.66,0,0,1,397.11,265c1.29-3.86,3.56-9.41,8.07-10.25,1.34-.25.95-1.59-.36-1.35-4.45.83-7.15,5.08-8.79,8.94a29.23,29.23,0,0,0-2.41,9.3,57.74,57.74,0,0,0,0,10.6c.16,1.47.31,4.24,1.84,5.07s3-.45,3.55-1.71a15.32,15.32,0,0,0,.91-5,39.13,39.13,0,0,1,.84-6.66c.42-1.62,1.11-3.09,3-2.58.85.24,2.51-1,1.24-1.36Z"/><path d="M523.87,251.66c-2.69-2.28-6.59-1.73-9-.42a8,8,0,0,0-3.16,3.09,8.19,8.19,0,0,0,.23,7.69,7.58,7.58,0,0,0,8.16,3.43c4.14-.89,6.39-5.11,6.21-8.59a7.5,7.5,0,0,0-2.44-5.2"/><path d="M612,272.52c3.42-.89,6.69,1.3,8.29,3.54a7.91,7.91,0,0,1,1.49,4.15,8.16,8.16,0,0,1-3.54,6.82,7.59,7.59,0,0,1-8.85-.46c-3.34-2.6-3.52-7.38-1.84-10.44a7.45,7.45,0,0,1,4.45-3.61"/><path d="M583.87,278.27S599,268.78,608.22,270c13.43,1.8,16.13,5.54,19.41,12.64,0,0-7.17-8.28-16.67-9.29C601.88,272.39,583.87,278.27,583.87,278.27Z"/><path d="M541.87,265.26S526.1,249.4,517.1,247.09c-13.13-3.37-30.66.81-36.36,6.16,0,0,23.38-6.71,32.56-4.08C522.08,251.67,541.87,265.26,541.87,265.26Z"/><path d="M552.91,223.52q-1.23,4.68-2.47,9.37c-.63,2.38-1.9,7.86-2.53,10.23-7-4-13-8.74-17.59-10.86-9.17-4.21-18.78-7.8-28.91-8.82-4.85-.49-13.46-2.57-18-1.17-1.42.44-2.9,1.46-4.51.14-.66-.54,1.57-4.06,1.8-4.42,4.54-7.09,13.87-6.37,22.38-6.12,17.35.5,33.71,5.2,49.81,11.65"/><path d="M640,251.61l-5.07-2.73c-14.09-7.65-29.34-11.15-45.2-13-.8,3.12-1.61,6.25-2.41,9.39-.61,2.38-1.86,6.65-2.45,9,7.42-.23,14-1.07,18.68-.78,9.28.58,19.09,1.08,27.65,4.91.68.31,4.31,2,5,2.33C640.12,257.19,641.07,252.62,640,251.61Z"/><path d="M561.84,327.55c-4.34,1.19-10.12-.65-13.44-4-.74-.75-3.74-.88-2.7.17,4.39,4.43,12.78,6.68,18.37,5.15.56-.16.56-.57,0-.92a3.35,3.35,0,0,0-2.22-.4"/><path d="M544.28,322.2a24.44,24.44,0,0,0-7.92-4.08,1.91,1.91,0,0,0-1.39.13c-.29.16-.41.45-.14.71a9.22,9.22,0,0,0,4.37,2.14,1.78,1.78,0,0,0,1.56-.24c.35-.34-.07-.71-.46-.79a7.32,7.32,0,0,1-3.52-1.74c-.51.28-1,.56-1.53.83a21.91,21.91,0,0,1,7.08,3.67,1.78,1.78,0,0,0,1.57.18c.36-.11.79-.48.38-.81"/><path d="M532.66,319.92c-3.38-.86-7-3.29-8.1-6.29-1.62-4.53,2.13-10.12,7-11.67.52-.17.36-.58-.09-.79a2.76,2.76,0,0,0-1.9,0c-4.2,1.35-7.75,5.81-8,9.64-.28,3.59,2.42,6.75,6.26,8.69a19,19,0,0,0,3.64,1.4c.52.12,1.48.18,1.83-.17s-.08-.65-.56-.78"/><path d="M568.47,327.22a.46.46,0,0,1,.58-.56,4,4,0,0,0,2.84-.28c.22.44.43.89.64,1.33a11.92,11.92,0,0,0-5.77.73,1,1,0,0,1-1-.43c-.17-.24-.31-.73.07-.88"/><path d="M565.78,327.13a13.47,13.47,0,0,1,6.45-.78,1.14,1.14,0,0,1,.82.63.5.5,0,0,1-.18.7"/><path d="M575.43,329.31a7.13,7.13,0,0,0,6.86-2.87,10.64,10.64,0,0,0-.09-11.78.43.43,0,0,1,.34-.69,1.35,1.35,0,0,1,1.09.65,11.9,11.9,0,0,1,1.43,10.32,8.29,8.29,0,0,1-9.26,5.69c-.33-.07-.9-.37-1-.82s.28-.56.6-.5"/><path d="M478.71,98.5c-20.66,3.88-29.83,9.19-42.79,25.75l117.38-17.6a100.5,100.5,0,0,0-23.36-7C509.14,96.62,499.37,94.62,478.71,98.5Z"/><path d="M479.14,97.39c-7.36,1.39-14.68,3.16-21.52,6.28a54.15,54.15,0,0,0-15.65,11,105.19,105.19,0,0,0-8.39,9.63c-.93,1.19,1.35,1.09,1.91,1l11.64-1.75,28.1-4.21,33.87-5.07,29.37-4.41c4.73-.71,9.49-1.33,14.2-2.13l.2,0c.61-.09,4.32-1.45,2.52-2.19a118,118,0,0,0-16.23-5.52c-5.27-1.31-10.68-2-16-2.78-8.86-1.31-17.76-2.4-26.74-2a124.75,124.75,0,0,0-17.23,2.12c-.78.15-2.76.54-3,1.52s1.63.79,2.11.7A103.63,103.63,0,0,1,505,97.81c4.34.32,8.66.9,13,1.52,5.22.75,10.51,1.36,15.65,2.55a113.61,113.61,0,0,1,17.61,5.85l2.52-2.19-11.65,1.74L514,111.49l-33.87,5.08L450.75,121l-9.58,1.43a42.57,42.57,0,0,0-4.62.7l-.19,0,1.91,1c4.08-5.21,8.47-10.31,13.75-14.34a47.17,47.17,0,0,1,14.81-7.46,107.06,107.06,0,0,1,11.45-2.73c.78-.14,2.76-.53,3-1.51S479.62,97.3,479.14,97.39Z"/><path class="cls-14" d="M427.16,209.19c14.69-6.31,25.93-23.81,30-39.27s-1-26.08,11.44-36.17,51.33-7.16,63.4,3.25c7.67,6.61,18.89,11.7,26.81,18s18,8.36,27.82,10.32c7.67,1.53,19.05,4.64,26.17,1.39,6.4-2.92,7.32-2.39,10.3-8.76,2.12-4.55,8.49-3.34,16.12,2.56s1.71,11.25,6.69,19.52c8.44-19.65-5.48-41-20.9-55.84C603.63,103.67,581.12,85.8,552,80.47S493.63,69.23,464.7,75.7c-13.88,3.11-22,10.43-33.73,18.43-18.11,12.32-36.37,37.28-43.15,58.11-4.92,15.12-7.73,31-7,46.91.13,3.09.08,50.09.09,47,.09-25.75,25.07-32.8,34.29-25.15,13.78,11.44-11.13,37.55,12.29,50q8.93-39.06,13.93-78.86"/><path class="cls-14" d="M546.84,386.37a16.17,16.17,0,0,1-5.9,6.76,3,3,0,0,1-2.34.63c-.67-.2-1.14-.79-1.75-1.11a3.66,3.66,0,0,0-3.58.55,29.8,29.8,0,0,1-3.08,2.2,3,3,0,0,1-3.51-.34,4,4,0,0,1-.73-1.63,16.91,16.91,0,0,0-2.84-6.05,16.25,16.25,0,0,1-2.26-2.86,2.68,2.68,0,0,1,.51-3.32,3.73,3.73,0,0,1,3.12,0c6.22,1.78,7.89,3.29,22.36,5.21"/><path class="cls-14" d="M535.21,327.8a32.13,32.13,0,0,0-13.54-2.59,4.81,4.81,0,0,0-2.5.91,2.78,2.78,0,0,0-1.16,1.75c-.09,1.71,1.69,2.15,3,2.12a3.7,3.7,0,0,1,.88,0h-.42l.44,0c.51,0,1,.05,1.53.1.94.1,1.88.25,2.81.42.74.14-.64-.16.09,0l.74.19c.46.12.92.25,1.37.39a29,29,0,0,1,2.86,1.09,4.25,4.25,0,0,0,2.52,0,4.3,4.3,0,0,0,2.17-1.28,2,2,0,0,0,.55-1.84,2.22,2.22,0,0,0-1.39-1.32Z"/><path class="cls-14" d="M425.84,215.56c14.69-6.31,32.75-21.75,36.83-37.2s2.24-18.74,14.64-28.82,40-11.72,52.06-1.31c7.66,6.61,12.69,10.87,30,17.41,9.35,3.53,16.15,4.1,26,6.05,7.67,1.53,29.34,8.86,36.46,5.61,0,0,5.5-6.24,12.64-3.66s13.6-1.29,14.31,33.62c8.45-19.64-9.61-61.88-25-76.69-21.39-20.53-43.9-38.4-73.06-43.73s-58.33-11.23-87.26-4.76c-13.88,3.1-22,10.42-33.73,18.42-18.11,12.32-36.37,37.28-43.15,58.11-4.92,15.12-7.73,31-7,46.92.14,3.08.09,50.08.1,47,.08-25.74,25.06-32.8,34.28-25.15,13.78,11.44-11.13,37.55,12.29,50q8.92-39,13.93-78.86"/><path class="cls-16" d="M543.22,346.16C528.11,342,500.66,333,500.66,333s-1.93,44.69,33.1,54.39S583.42,355,583.42,355,558.33,350.35,543.22,346.16Z"/><path class="cls-17" d="M543.37,346.2c-7.19-2-38.11-11.48-38.11-11.48s6.61,29,32.59,36.23c28.18,7.8,41.72-16,41.72-16Z"/><path class="cls-18" d="M543.32,347.6c-7.19-2-28.64-9.52-28.64-9.52s5.22,11.74,26.78,17.7,31-1.41,31-1.41Z"/><path class="cls-16" d="M585.75,352.73c-.7-.44-5.35.08-8.82-1.28-5.77-2.26-9-5.19-13.16-6.79-7.17-2.72-12.82-.49-16-1.38s-6.9-5.7-14.44-7c-4.43-.79-15.62-1.84-21.74-2.87-3.67-.61-7.38-3.45-8.21-3.44-1.15,0-1.71,10.05,38.49,21.18S586.72,353.34,585.75,352.73Z"/><path class="cls-14" d="M545.5,334.92a4.67,4.67,0,0,1-8,2.19,6.07,6.07,0,0,0-1.16-1.16c-1.13-.71-2.59-.07-3.81.47s-2.89.86-3.71-.19a11.51,11.51,0,0,1-.76-1.72,3.19,3.19,0,0,0-2.94-1.39,16.68,16.68,0,0,0-3.34.7c-3.24.78-6.63.4-9.94,0l-10.49-1.22a1.38,1.38,0,0,1-1.07-.47,1.09,1.09,0,0,1,0-.95c.74-1.86,3.08-2.47,5.08-2.43s4.1.48,5.94-.29a24.61,24.61,0,0,1,2.37-1.15,6.79,6.79,0,0,1,3,0,119.81,119.81,0,0,1,25.18,6.7"/><path class="cls-14" d="M547.1,331.7c-6.78-2.38-13.22-6.27-20.46-7.16-4.27-.53-8.38.19-12.53,1.17-4,.93-8,1.89-12,2.83-.93.22-2.93,1-2.9,2.22s2,1.16,2.84,1.08c5.41-.53,10.66-2.73,15.85-3.56a15.62,15.62,0,0,1,7,.32,37.29,37.29,0,0,1,7.39,3.43c1.31.73,3.5.05,4.68-.65,1-.57,2-1.71.62-2.45a38.41,38.41,0,0,0-8.17-3.67,23.79,23.79,0,0,0-9.28-.63c-5.85.66-11.37,3.17-17.14,3.73l-.06,3.3,11-2.61c3.11-.74,6.16-1.45,9.37-.94,6.49,1.05,12.3,4.54,18.43,6.7a5.83,5.83,0,0,0,4.69-.65c.75-.45,2.14-1.92.62-2.46Z"/><path class="cls-14" d="M499.65,330.26c-1,1.06-3.83,3.09-2.52,4.81,1.12,1.46,3.88,1.24,5.5,1.13a21.33,21.33,0,0,0,5.78-1.35,25.09,25.09,0,0,0,2.39-1,11.08,11.08,0,0,0,2.23-1.12c-1,.55-1.71.53-2.23-.05-.13-.07-.15-.19,0-.33.09,0-.29.35-.39.46a4.48,4.48,0,0,0-1.2,2.18c-.32,2.29,2.24,2.92,4,2.77a16,16,0,0,0,5.6-2.07l5-2.47c1-.48,2.69-1.74,1.68-3s-3.29-.82-4.44-.25c-2.4,1.19-4.83,2.34-7.21,3.57-.35.14-.42.18-.2.11a1.18,1.18,0,0,1,1.15.21,1.45,1.45,0,0,1,1.08.28v0c-.27.1.16-.17.24-.28a6.76,6.76,0,0,0,.72-.9,2.44,2.44,0,0,0-.27-3.34c-2.52-2.21-6-.23-8.51.95a14.79,14.79,0,0,1-3.05,1.16,5,5,0,0,1-1.41.23s-.57,0-.32,0a5.83,5.83,0,0,1-.59,0c-.56-.07-.29.1.8.5l-.2,1.09a10.41,10.41,0,0,1,1.78-1.87,1.52,1.52,0,0,0-.72-2.71,5.2,5.2,0,0,0-4.69,1.25Z"/><path class="cls-14" d="M552.83,337.81a6.28,6.28,0,0,0,4.91,6.15,1.57,1.57,0,0,0,1.17-.11c.34-.21.49-.61.75-.91,1-1.25,3.07-.53,4.35.46a17.26,17.26,0,0,1,3.19,3.2c.64.84,1.32,1.82,2.37,2a8.45,8.45,0,0,0,2.17-.21c1.72-.13,5.57-2.08,6.56-.66a34.56,34.56,0,0,1,2.33,4.63,7.05,7.05,0,0,0,3.53,3.64c1.62.59,3.8-.11,4.27-1.77s-.76-3.2-1.89-4.45c-3.83-4.19-10-5.31-14.76-8.34s-10.69-4.75-16.2-3.41"/><path class="cls-14" d="M559.61,336.57c0-.28,0-.29,0-.05l-1,.89.16-.09-1.62.67-1.07.17c-.23,0-.25,0,0,0a10.29,10.29,0,0,0,1.18.12,9.24,9.24,0,0,0,1.82-.07,8.44,8.44,0,0,1,3.42.55,43.64,43.64,0,0,1,7.35,2.51A13,13,0,0,1,575,345.6a74.29,74.29,0,0,0,5.36,6c1.49,1.63,7.81-.75,6.17-2.55-1.13-1.26-2.34-2.44-3.48-3.7s-1.89-2.53-2.95-3.7a18.41,18.41,0,0,0-7.71-4.6c-1.64-.58-3.32-1.08-5-1.55a20,20,0,0,0-5.56-1,13.11,13.11,0,0,0-1.77.18c.86-.12-.3,0,.17,0a12.48,12.48,0,0,0-2.66-.1c-1.51.17-4.41,1-4.56,2.86-.12,1.43,1.83,1.45,2.83,1.32s3.67-.83,3.79-2.2Z"/><path class="cls-16" d="M879.33,533.44c13.13,1.38,37.39,2.91,37.39,2.91s-6.11,32.95-42.42,29.73c-30.49-2.7-29.2-38-29.2-38S866.2,532.06,879.33,533.44Z"/><path class="cls-17" d="M878.65,534.12c6.25.65,33.4,2.8,33.4,2.8s-14,19.1-36.54,16.73c-24.48-2.57-27.93-23.76-27.93-23.76Z"/><path class="cls-18" d="M878.27,535.14c6.24.66,25.37,1.46,25.37,1.46s-7.65,7-26.38,5-23.89-10.05-23.89-10.05Z"/><path class="cls-16" d="M844.62,527.06c.68-.11,3.37-.07,6.5,0,5.22,0,8.2,0,12,0,6.45.12,10.21,3.38,13,3.67s7.13-2.12,13.47-.89c3.71.71,12.82,3.22,17.93,4.26,3.07.62,9,1.48,9.67,1.73.9.35-3.87,5.95-38.8,2.28S843.67,527.22,844.62,527.06Z"/><path class="cls-12" d="M973.09,927.28a49.53,49.53,0,0,1,38.68,10.64,46.83,46.83,0,0,1,8.14,8.56c.79,1.07,3.79-.11,2.87-1.34a52.18,52.18,0,0,0-37.07-20.45,49.76,49.76,0,0,0-12.31.44c-.64.1-1.67.43-1.74,1.21s.83,1,1.43.94Z"/></g></svg>