<svg xmlns="http://www.w3.org/2000/svg" viewBox="0 0 637.33 635.77"><defs><style>.cls-1{fill:#c1e7f6;}.cls-2{fill:#8e3029;}.cls-3{fill:#163042;}.cls-4{fill:#a86e57;}.cls-11,.cls-5,.cls-8{fill:#14110f;}.cls-6{fill:#151210;}.cls-15,.cls-17,.cls-7{fill:none;}.cls-11,.cls-7,.cls-8{stroke:#151210;}.cls-11,.cls-15,.cls-17,.cls-7,.cls-8{stroke-miterlimit:10;}.cls-7{stroke-width:0.82px;}.cls-8{stroke-width:0.35px;}.cls-9{fill:#42221a;}.cls-10{fill:#221e1f;}.cls-11{stroke-width:0.35px;}.cls-12{fill:#643b29;}.cls-13{fill:#f0edf6;}.cls-14{fill:#c2b2d6;}.cls-15{stroke:#5b5b5c;stroke-linecap:round;stroke-width:7.88px;}.cls-16{fill:#f4a443;}.cls-17{stroke:#db8127;stroke-width:1.74px;}.cls-18{fill:#5b5b5c;}.cls-19{fill:#474748;}.cls-20{fill:#d16152;}.cls-21{fill:#812a23;}.cls-22{fill:#6696a3;}.cls-23{fill:#b05e27;}.cls-24{fill:#de8b26;}.cls-25{fill:#cd8c2a;}.cls-26{fill:#12100e;}.cls-27{fill:#665786;}</style></defs><g id="Layer_1" data-name="Layer 1"><circle class="cls-1" cx="319.06" cy="340.56" r="288.85"/><path class="cls-2" d="M583.35,455.65a195.69,195.69,0,0,0-11.84-35.4L408.32,435.73s-4.08,86.19-4.08,133.21c0,5.18.13,27.48.15,47.33A289.65,289.65,0,0,0,583.35,455.65Z"/><path class="cls-3" d="M184.71,487.31,71.13,473.09c-1.53,3.58.93,10.61-.67,14.06,29.74,51.11,70.65,88.7,124.64,113.67-3.18-41.14-3.24-86.7-8.46-106.56Z"/><path class="cls-4" d="M106,268.35l2.62,10.36c1.1,4.35,5,7.1,5.13,11.58l-3,10.36-14.69,6.88s64.23,42.06,75.35,35.17,2.28-34.09-1.73-36.38-15-7.21-15-7.21l-4.54,2L151.73,289Z"/><path class="cls-5" d="M185.25,253.17l-.68-.75c-5.6-2.8-10.31-3.11-14,.32-.05,0-7.38-3.79-14.75,5.52-6.39,8.09-4.59,13.6-4.59,13.6s-5,1.9-6.17,4.16c-2.63,5.11-2.63,15,1.87,16.48s4.83,3.63,4.83,3.63,7.2.68,10.95,1.15,9.26-1.49,9.26-1.49,8.32,1.47,10.92-.25,4.31-7.61,4.31-7.61,8.75-.24,9.09-6.79c0,0,3.29-3.58-.71-8.48a18.65,18.65,0,0,0-3.73-3.34s1.56-1.79,1-6.95C192.54,260.14,189.51,255.3,185.25,253.17Z"/><path class="cls-6" d="M185.73,253a7.63,7.63,0,0,0-3.21-1.88,15.84,15.84,0,0,0-5-1.1,10.55,10.55,0,0,0-7.47,2.75l.88-.24c-2.75-1.4-6.4-.86-9.09.36a19.68,19.68,0,0,0-7.67,6.93,19.94,19.94,0,0,0-3.6,8.36,8.84,8.84,0,0,0,.1,3.83l.32-.29a19.29,19.29,0,0,0-4.74,2.53c-1.93,1.45-2.64,3.64-3.11,5.93a19.31,19.31,0,0,0-.11,7.61c.39,1.89,1.24,4,3.13,4.82,1.61.7,4.66,1.53,5,3.67,0,.07.13.09.18.1,2.83.26,5.65.54,8.47.86a26.69,26.69,0,0,0,5.28.29,28.1,28.1,0,0,0,5.15-1,13.52,13.52,0,0,0,1.53-.47c.63-.25-.47-.16,0,0a13.3,13.3,0,0,0,3.56.43c2.49.21,5.91.55,8.06-1.05s3.45-5,4.22-7.59l-.72.32a14.48,14.48,0,0,0,5.34-1.25,8.08,8.08,0,0,0,3.38-2.62,5.76,5.76,0,0,0,.87-1.86,9.93,9.93,0,0,1,.35-1.54,7.82,7.82,0,0,0,1.14-3.33,8.51,8.51,0,0,0-2.79-6,14.94,14.94,0,0,0-1.24-1.15,8.26,8.26,0,0,0-1-.79s-.77-.52-.74-.37c0-.08.32-.51.36-.6a10,10,0,0,0,.78-4.74c-.12-4.67-3.66-8.88-7.69-11-.28-.15-1.14.27-.95.37,3.19,1.66,6.4,4.92,7.36,8.48a12,12,0,0,1,0,5.59,4.72,4.72,0,0,1-.78,1.91s-.07.12,0,.17c2.7,1.92,5.8,4.71,5.68,8.33a5.63,5.63,0,0,1-.91,2.89,5.6,5.6,0,0,0-.57,1.87c-.94,3.47-4.87,5-8.16,5.09-.18,0-.65.09-.72.32a21.69,21.69,0,0,1-2.34,5.39A4.84,4.84,0,0,1,181.1,296a17.39,17.39,0,0,1-4.08.14c-1.16-.06-2.32-.18-3.47-.34a7.4,7.4,0,0,0-1.47-.19,10.27,10.27,0,0,0-1.89.56,27.47,27.47,0,0,1-4.4.9c-3.07.34-6.32-.39-9.37-.7l-3.57-.35a2.59,2.59,0,0,1-.74-.07s.15.15,0-.14c-.74-2.12-3.37-2.79-5.16-3.6-2.28-1-2.95-4-3.17-6.23a19,19,0,0,1,1.41-9.39c1.06-2.36,3.83-3.64,6.13-4.53.09,0,.37-.15.33-.29a8.74,8.74,0,0,1-.07-3.94,21.62,21.62,0,0,1,5.23-10.28c3.07-3.58,8.47-7,13.25-4.54a1,1,0,0,0,.89-.24,8.74,8.74,0,0,1,7.7-2c2.07.38,4.64,1.09,6.08,2.68C185,253.57,185.94,253.21,185.73,253Z"/><path class="cls-7" d="M183.87,251.7s13,3.81,13.32,12.47l-.56,6s6.07,1.36,5.67,5.62"/><path class="cls-4" d="M110,260.14s5.81,29.9,1.19,39a7.62,7.62,0,0,1-4.21,3.28l12.7,8.57c17.63,9.22,10.77,4.72,29.12-3l6.08,1.46a8.09,8.09,0,0,0,.45-4.78c-.46-3.13.91-25.19.91-25.19"/><path class="cls-8" d="M93.88,231.23s-16.49-40.47,9.25-42.49a17.3,17.3,0,0,1,6.8-7.64c6.11-3.84,12.41-.09,12.41-.09s5.47-5.17,11.09-4.38,7.83,3.93,7.83,3.93,6.56-3.36,11.51-1.09a25.41,25.41,0,0,1,8.48,7s4.09-.74,6.69.41c6.22,2.78,7.18,16.44,8.08,21.26,0,0-5.41-16.22-10.88-16.73s-53,11.5-53,11.5L99.24,246Z"/><path class="cls-5" d="M66,266.71l-.42.94c-.29,6.24,1.33,10.67,6,12.7,0,.06-.56,12.39,10.94,15.35,10,2.57,14.29-1.31,14.29-1.31s3.76,3.8,6.31,3.95c5.73.34,10.49-6.28,10-11s-.63-11.52-.63-11.52a29.85,29.85,0,0,0-.81-8.56c-1.09-3.62-6.42-7.67-6.42-7.67s3.09-6.17.47-7.85-8.89-3.18-8.89-3.18-3.58-5.59-9.71-3.24c0,0-4.61-1.56-7.46,4.08a18.27,18.27,0,0,0-1.55,4.77s-2.27-.71-6.75,1.92C69.38,257.23,66.19,262,66,266.71Z"/><path class="cls-6" d="M65.46,266.77c-.84,1.91-.49,4.41-.07,6.42a10.31,10.31,0,0,0,3.11,5.74,8.31,8.31,0,0,0,1,.77q.38.26.78.48a5.22,5.22,0,0,0,.75.24c.06.07,0,.39,0,.49.13,1,.11,1.95.29,2.92a15.61,15.61,0,0,0,4.41,8.7c3.59,3.4,9.09,4.53,13.89,4.32,2.48-.11,5.61-.64,7.56-2.37l-.88.11c1.65,1.65,3.9,3.68,6.29,4,3.18.44,6.33-1.5,8.29-3.85a12,12,0,0,0,2.45-4.65,14.82,14.82,0,0,0,.07-5.06c-.24-3.09-.46-6.23-.44-9.33,0-2.81.13-6.3-1-9.11a14.13,14.13,0,0,0-3-4.28,13.89,13.89,0,0,0-3-2.71,1.1,1.1,0,0,1-.25-.19s0,.34.06,0a10.53,10.53,0,0,1,.47-1.09,12,12,0,0,0,1-4.15,3,3,0,0,0-1.37-2.85,21.45,21.45,0,0,0-4.57-1.88c-.86-.28-1.72-.54-2.6-.78a7.69,7.69,0,0,1-1.5-.39c-.22-.12.16.13,0,0A1.79,1.79,0,0,1,97,248a6.5,6.5,0,0,0-1-1.07,8.54,8.54,0,0,0-9.18-1.85l.6,0a6.43,6.43,0,0,0-4.56.4c-3.33,1.56-4.66,5.41-5.35,8.76l.81-.34c-2.34-.68-5.59.89-7.46,2.1-3.32,2.14-5.22,7-5.46,10.77,0,.42,1,.22,1-.12.23-3.52,1.84-7.72,4.64-10,1.46-1.2,4.63-2.77,6.65-2.18.23.07.76-.06.82-.34.72-3.49,2.44-8.62,6.78-8.69.61,0,1.25.22,1.65.19a7.65,7.65,0,0,0,1.21-.37,7.38,7.38,0,0,1,1.87-.19,6.76,6.76,0,0,1,2.65.65,9.11,9.11,0,0,1,3,2.29c.31.35.47.69.87.88a29.87,29.87,0,0,0,3.65,1,17.11,17.11,0,0,1,5,2.07c2.2,1.59.47,5.7-.48,7.62,0,.06-.07.16,0,.21a19.82,19.82,0,0,1,6,6.67c1.37,2.9,1.17,6.42,1.18,9.54,0,3.53.23,7.09.54,10.6a10.93,10.93,0,0,1-5.19,10.4,6,6,0,0,1-6.59,0,19.86,19.86,0,0,1-3.47-2.81c-.21-.21-.68-.05-.87.12a8.15,8.15,0,0,1-3.29,1.5,20.7,20.7,0,0,1-10.95-.57c-5.3-1.6-8.7-6-9.74-11.33a15.22,15.22,0,0,1-.34-3.62.18.18,0,0,0-.1-.19,9.31,9.31,0,0,1-5.17-5.79c-.74-2.28-1.28-5.44-.3-7.66C66.61,266.33,65.6,266.44,65.46,266.77Z"/><path class="cls-9" d="M126.22,281.12s4.09,11.39,24.94,14.55c0,0,3.46.71,4.2.17l.73-5.76Z"/><path class="cls-4" d="M114.68,273.08c8.83,8.5,27.34,18.29,38.9,19.74,11.33,1.43,14.8-2.56,16.23-4.32,7.83-9.7,12.69-19.3,15.08-30.15a26.34,26.34,0,0,0,.07-9.21c-.66-4.75-2.25-13.82-2.53-18.38-.71-11.61-6.61-21.26-13.74-30.52C153.83,180.94,126,183,114.62,189.49,101.36,197.08,96.17,210.84,96.4,225a38.47,38.47,0,0,0,2.32,12.81,40.55,40.55,0,0,1,5.62,6.61"/><path class="cls-5" d="M168,195.61s1.73,2.4,8.83,16.06c-1.81-4.38-1.3-6.69-5.59-12.67-15-20.89-54.4-14.93-65.71-8-13.22,8.12-17.24,22.66-16.93,38,.13,6.22.17,10.19,2.4,15.18.09.06,1.26,1.12,1.26,1.12s12.64,1.44,17.34,8.68l-.33-6.59s0-4.08,2.26-19.41c0,0,.09-2.42,3.62-12.32s7.73-13,7.73-13,20-4.85,24.87-5.18S168,195.61,168,195.61Z"/><path class="cls-6" d="M167.51,195.82a31.37,31.37,0,0,1,1.72,2.83c2.48,4.32,4.79,8.74,7.08,13.16.19.36,1.18.11,1-.27-1-2.39-1.45-4.93-2.46-7.29a28.78,28.78,0,0,0-5.13-7.9,33.72,33.72,0,0,0-13.06-8.64c-10.2-3.91-21.74-4.18-32.45-2.66-9.22,1.31-18.39,3.84-25.16,10.58-10,10-11.47,24.57-10.87,38a27.48,27.48,0,0,0,2.12,10.32,3.14,3.14,0,0,0,2.57,1.79c4.72.77,9.72,2.35,13.46,5.42a14,14,0,0,1,2.77,3c.21.33,1,0,1-.34-.11-2.13-.35-4.72-.33-6.6s.27-3.64.47-5.44c.5-4.67,1.15-9.33,1.8-14a45.59,45.59,0,0,1,2.08-7.76c1.74-5.32,3.64-10.85,7.22-15.26a13.77,13.77,0,0,1,1.81-1.9c-.05,0-.34.06,0,0s.79-.19,1.18-.28c7.16-1.71,14.39-3.57,21.69-4.63,3.94-.58,8-.72,11.95-1.1,3.31-.31,6.61-.63,9.92-1,.53-.06.82-.71.12-.64-6.83.68-13.67,1.27-20.5,1.89A88.46,88.46,0,0,0,137,199.12c-3.85.83-7.69,1.71-11.53,2.61-1.4.34-2.64.42-3.69,1.44-3.1,3-5.11,7.21-6.64,11.19a75.51,75.51,0,0,0-4,12.79c-.71,3.8-1.09,7.71-1.55,11.55-.34,2.79-.76,5.64-.83,8.46,0,2.3.21,4.64.33,6.94l1-.35c-2.86-4.28-8-6.52-12.8-7.82a25.28,25.28,0,0,0-4.48-.93,1.75,1.75,0,0,1-.32,0c.19.06.25.16.08-.06a5.05,5.05,0,0,0-.6-.53c-1-.91-1.38-2.63-1.74-4a44,44,0,0,1-1.08-10.8,74,74,0,0,1,.42-10.32,42.55,42.55,0,0,1,6.25-18.4,30.39,30.39,0,0,1,12.51-11,53.28,53.28,0,0,1,11.87-3.57c10.38-2,21.55-2.23,31.8.62a36.75,36.75,0,0,1,14.11,7.17,29,29,0,0,1,9,14.13,36.84,36.84,0,0,0,1.2,3.54l1-.27c-2.29-4.42-4.6-8.84-7.08-13.16a33.1,33.1,0,0,0-1.79-3C168.23,195.08,167.24,195.44,167.51,195.82Z"/><path class="cls-4" d="M112.66,267.34c-5.41,6.49-11-2.59-11-2.59a28.67,28.67,0,0,1-8.31-18.68c-.16-5,5.32-5.32,5.32-5.32,4.69.16,4.07.76,11.35,13.52"/><path class="cls-10" d="M105.73,254.49A39.39,39.39,0,0,0,102,248a12.2,12.2,0,0,0-2.65-2.81,3.43,3.43,0,0,0-1.41-.68c-.62-.09-.87.33-1.12.81a9.41,9.41,0,0,0-.4,6.53c0,.21.83,0,.77-.21a10.12,10.12,0,0,1-.07-5.24,5.1,5.1,0,0,1,.8-1.74l-.51.19c-.17,0,0,0,0,0s0,0,0,0l.16,0a4.13,4.13,0,0,1,.95.51,14.33,14.33,0,0,1,3.56,4.11,45.62,45.62,0,0,1,2.8,5.14c.1.22.85,0,.77-.21Z"/><path class="cls-10" d="M105.65,256.8c-3.28.45-.32,4.46-.48,6.24,0,.07-.06.19,0,.26s-.05.11-.06.1l.23-.08-.06,0c0-.05-.25-.23-.28-.27a3.83,3.83,0,0,1-.33-.46,14.62,14.62,0,0,1-1.33-2.76,12.31,12.31,0,0,1-.88-3.61c-.11-1.51-.08-3.69,1.33-4.63.44-.29-.21-.5-.5-.31-1.35.9-1.63,2.64-1.64,4.15a10.68,10.68,0,0,0,.53,3.51,22.24,22.24,0,0,0,1.38,3.31c.29.53.67,1.33,1.27,1.57a.85.85,0,0,0,1.12-.57,3,3,0,0,0-.19-1.66c-.25-.83-1.73-4-.14-4.25.41-.05.61-.59.08-.51Z"/><path class="cls-5" d="M140.27,238.4a3.5,3.5,0,0,0-3.69,1.13,3.3,3.3,0,0,0-.83,1.7,3.51,3.51,0,0,0,1.19,3.07,3.27,3.27,0,0,0,3.8.21,3.61,3.61,0,0,0,1.27-4.37,3.22,3.22,0,0,0-1.74-1.74"/><path class="cls-5" d="M147.94,243.15s-5.5-6.38-10.49-5.8c-7,.83-8.19,5.11-9.47,7.41,0,0,4-5.52,9.41-6C142.33,238.27,147.94,243.15,147.94,243.15Z"/><path class="cls-5" d="M173.87,234.26a3.5,3.5,0,0,1,3.85.24,3.32,3.32,0,0,1,1.21,1.46,3.54,3.54,0,0,1-.45,3.27,3.27,3.27,0,0,1-3.64,1.09,3.6,3.6,0,0,1-2.25-4,3.17,3.17,0,0,1,1.28-2.1"/><path class="cls-5" d="M165.05,241.12s3.52-7.45,8.14-8c6.5-.77,8.51,3.14,10.18,5.09,0,0-4.81-4.49-9.82-3.76C169,235.11,165.05,241.12,165.05,241.12Z"/><path class="cls-5" d="M181.79,226.78s0-.07,0-.1a10.42,10.42,0,0,0-2.78-1.05c-5.1-1.22-7.67-1-15.44.93v.17c0,1,0,.44,0,1.44v2.28c2.35-.63,4-1.32,5.54-1.59,3-.53,6.43-1.54,9.46-1.05a9.59,9.59,0,0,1,3.16,1C181.74,228.11,181.77,227.45,181.79,226.78Z"/><path class="cls-5" d="M147.94,228.94c.12,1,.06.44.17,1.43l.27,2.27c-2.5-.34-4.32-.82-5.92-.9-3.17-.16-6.84-.74-9.93.13-1.47.41-3.45.78-4.36,2.26-.24.4-.76,2-1.38,1.85-.26-.08,0-1.35,0-1.48.52-2.56,2.51-3.84,5-4.75,5.14-1.84,7.83-2,16.1-1"/><path d="M163.31,259.09a5,5,0,0,1-4.62.2c-.32-.15-1.27.13-.83.34a7.11,7.11,0,0,0,6.29-.38c.16-.1.12-.23-.1-.28a1.16,1.16,0,0,0-.74.12"/><path d="M157.25,259.31a8.37,8.37,0,0,0-2.91-.41.68.68,0,0,0-.42.19c-.07.08-.08.18,0,.23a3.05,3.05,0,0,0,1.59.19.59.59,0,0,0,.46-.23c.07-.15-.1-.22-.23-.2a2.33,2.33,0,0,1-1.28-.16l-.39.42a7.13,7.13,0,0,1,2.6.37.59.59,0,0,0,.51-.11c.1-.07.2-.23,0-.29"/><path d="M153.38,259.85a4,4,0,0,1-3.2-1.07c-1-1.22-.42-3.49.92-4.48.15-.11.05-.22-.11-.23a.92.92,0,0,0-.6.19,4.25,4.25,0,0,0-1.48,4,3.18,3.18,0,0,0,2.88,2,6.93,6.93,0,0,0,1.29,0c.18,0,.48-.1.55-.25s-.09-.19-.25-.17"/><path d="M165.35,258.28a.15.15,0,0,1,.12-.23,1.39,1.39,0,0,0,.86-.39l.34.34a4.07,4.07,0,0,0-1.72.84.35.35,0,0,1-.38,0c-.08-.06-.17-.19-.07-.28"/><path d="M164.5,258.54a4.51,4.51,0,0,1,1.94-.92.4.4,0,0,1,.32.1.17.17,0,0,1,0,.24"/><path d="M167.75,258.18a2.34,2.34,0,0,0,1.84-1.6,3.4,3.4,0,0,0-1.28-3.6.14.14,0,0,1,0-.25.47.47,0,0,1,.41.09,3.81,3.81,0,0,1,1.55,3,2.68,2.68,0,0,1-1.48,2.46,2.76,2.76,0,0,1-.81.27.42.42,0,0,1-.39-.15c-.07-.13,0-.2.13-.22"/><path class="cls-11" d="M171.5,191.32a23.21,23.21,0,0,0-10.94-3.66h-.5l-2.19.89-.08,0,.08,0c.39-.19,1.24-.65.87-1.13a1.77,1.77,0,0,0-.89-.5,18.38,18.38,0,0,0-3-.59h0l-.34,0-.34,0v0a18,18,0,0,0-3.07,0,1.75,1.75,0,0,0-1,.32c-.45.41.29,1,.64,1.27l.08,0-.07,0-2-1.28a3.86,3.86,0,0,0-.49-.09c-5-.79-13.23,2.59-14,3.14s-.38,1.6-.35,1.68l-1.31-1.19a72.37,72.37,0,0,0-7.33,2.43,5.26,5.26,0,0,0-1.74,2.38,6.34,6.34,0,0,1-2.54.22c-.64-.27-4.22,1.19-5.82,3.08-1,1.21-.81,2.47-1.37,3.57h0c-.31.62-.49,1-.49,1l-3.65.84c-3,1.1-2.79,7-2.79,7-6.21,6.31-7,12.1-5.12,18.6.74,2.51-6.38,4.29-2,4.62s9,15.85,9,15.85,2.12-6.27,2.55-8.79-.11-10.16-.11-10.16l2.18-.11s1.36-.41,3.21-3.13-.56-8.12-.56-8.12l-.56-3.17,4.19.68c4.13-.32,4.77-4.7,4.77-4.7l0-7.4,2.21,2.69a3,3,0,0,0,2.26,1.27c6.35.12,7.46-3.74,7.46-3.74l1.19-3.62,1.5,1.22c1.56,1.54,6.53,4.16,9.27,3.28.72-.23,3.84-2.21,4.34-2.48a5.39,5.39,0,0,0,2.26-3.55c1.4,1.61,3.29,3.32,5.12,3.57,2.23.31,7.14-.17,7.83-1.15.47-.66-.24-.81.58-.7a2.69,2.69,0,0,1,1.68,1.24s1.76,6.22,7.23,8.91,6.3-11,1.22-13.34C178.66,198.46,178.43,191.13,171.5,191.32Z"/><path class="cls-8" d="M92.27,206.62s-6.06,1.61-8,4.89c-5,8.45-2,29.33,3,33.6l5,1Z"/><path class="cls-7" d="M87.86,242.84s-8.64-1.12-10.28,4.15l-.75,2.51S67.3,247,64.21,251.41s-4,13.42-4,13.42"/><path class="cls-12" d="M159.87,267.07c-5.65.44-14.87.5-14.87.5s2.9,15,16,14,13.63-16.34,13.63-16.34S165.52,266.62,159.87,267.07Z"/><path class="cls-5" d="M159.92,267.06c-2.68.22-13.55.62-13.55.62s4.35,9.63,14.07,8.87c10.54-.84,12.87-10.92,12.87-10.92Z"/><path class="cls-13" d="M160.07,267.46c-2.68.21-10.9.4-10.9.4s3.18,2.71,11.24,2.07,10.4-3.69,10.4-3.69Z"/><path class="cls-12" d="M175.16,264.36A22.61,22.61,0,0,1,172,265c-2.24,0-3.68-.49-5.3-.49-2.77,0-4.43,1.23-5.63,1.32s-3-.85-5.76-.42c-1.6.25-5.55,1.15-7.75,1.52a22.3,22.3,0,0,1-3.22-.08c-.39.12.61,3,15.65,1.79S175.56,264.43,175.16,264.36Z"/><path class="cls-4" d="M195.12,355.43l19.07,66.94A18.48,18.48,0,0,1,201.49,446h0c-9.27,2.51-18.91-11.38-22.61-20.36l-26.68-56.1Z"/><path class="cls-4" d="M177.54,441.9l-2.69-6.06a19.36,19.36,0,0,0,5.41,9c8.35,8.5,22.38,9.14,33.45,1.8l59.42-39.39-4.71-17.74L192.85,418.2C184.58,421.79,175.74,433.71,177.54,441.9Z"/><path class="cls-4" d="M293.49,374.49a95.24,95.24,0,0,0-13,.79,2.68,2.68,0,0,1-.85,0,14.21,14.21,0,0,1-6.11,3.33c-2.53.71-5.16,1-7.7,1.63l-.47,1.42-8.92,12.54c4.66,7.42,4.8,15.24,13.88,16.26l6.44-1.87,17.37-3.35s3.8-3,3.77-4.36a4.07,4.07,0,0,0-1-2.4l2.59-2.3a8.86,8.86,0,0,0,.32-3.24c-.21-1.47-2.71-2.37-2.71-2.37l.69-.65a3.84,3.84,0,0,0,1.1-3.66l-.16-.62a6.4,6.4,0,0,0-2.49-2.83s2.48-2.15,2.3-3.53A6.29,6.29,0,0,0,293.49,374.49Z"/><path class="cls-4" d="M276.42,378.44a2.75,2.75,0,0,1-.64-1.34,3.13,3.13,0,0,1,0-.44,40.62,40.62,0,0,0-1.74-12.1c-1.51-4.18-4.14-4.83-5.8-4.8a1.26,1.26,0,0,0-1.24,1.3,1.5,1.5,0,0,0,0,.22,69.08,69.08,0,0,1,1.33,8.47c0,1.44-2,8.6-3.25,13C269.07,381.74,273.38,381.23,276.42,378.44Z"/><path class="cls-14" d="M190.4,341.39s14.94,30.28,12.86,46.1-9.08,16.56-11.57,23.86c-8.13,23.82,7.42,100.47,7.42,100.47s-46.6,18.92-95.55,8.08c-5.1-1.13-11.34-2.17-15.22-5.59-8.85-7.78-22.89-35.37-22.89-35.37h0l4.29-11.18-.28-52.84Z"/><path class="cls-14" d="M178.57,309.47,160,301.06c-2.66,37.92-48.57,2.28-51.8-1.47l-32.36,12L61,393.13l21.92,46.23,101-52.5,8.9-49.23Z"/><line class="cls-15" x1="297.28" y1="508.82" x2="282.55" y2="347.58"/><polygon class="cls-16" points="250.08 513.83 245.09 560.08 348.07 560.08 342.38 513.83 250.08 513.83"/><line class="cls-17" x1="299.58" y1="560.08" x2="293.03" y2="514.96"/><line class="cls-17" x1="308.14" y1="560.08" x2="301.59" y2="514.96"/><line class="cls-17" x1="316.7" y1="560.08" x2="310.15" y2="514.96"/><line class="cls-17" x1="325.26" y1="560.08" x2="318.71" y2="514.96"/><line class="cls-17" x1="333.82" y1="560.08" x2="327.27" y2="514.96"/><line class="cls-17" x1="342.38" y1="560.08" x2="335.83" y2="514.96"/><line class="cls-17" x1="256.7" y1="560.08" x2="250.16" y2="514.96"/><line class="cls-17" x1="265.26" y1="560.08" x2="258.72" y2="514.96"/><line class="cls-17" x1="273.82" y1="560.08" x2="267.28" y2="514.96"/><line class="cls-17" x1="282.38" y1="560.08" x2="275.84" y2="514.96"/><line class="cls-17" x1="290.94" y1="560.08" x2="284.4" y2="514.96"/><path class="cls-18" d="M255.15,499.38h80.91a8.82,8.82,0,0,1,8.82,8.82v10.06a0,0,0,0,1,0,0H246.33a0,0,0,0,1,0,0V508.2A8.82,8.82,0,0,1,255.15,499.38Z"/><path class="cls-14" d="M216.28,374.22l-17.79-47.07c-5.57-14.3-16.44-16.14-19.92-17.68l-12.2,5.12c-15.68,4.88-26.92,16.21-21.65,31.76l17.68,49.56Z"/><line class="cls-15" x1="149.63" y1="445.5" x2="245.32" y2="549.82"/><polygon class="cls-19" points="257.48 536.95 257.48 577.41 344.41 577.41 315.07 536.95 257.48 536.95"/><polygon class="cls-18" points="233.64 536.95 233.64 577.41 296.05 577.41 307.28 577.41 265.27 536.95 233.64 536.95"/><path class="cls-4" d="M96.33,369.05l-20.7,66.77c-2.85,10.38-13.4,16.07-23.32,12.59h0c-9-3.16-9.38-20.24-7.53-29.85l8.54-62Z"/><path class="cls-4" d="M44.8,421.46l.47,1c-4,10.61,1.4,23.84,8.34,27.43l82.8,35,6.26-18.7L67.1,412.11C58.51,409.8,48,413.08,44.8,421.46Z"/><path class="cls-14" d="M96.13,389.7,103.8,345c2.63-15.12-5.54-32.18-20.44-35.86l-8.09,2.71c-10.3,5.08-20.19,20-23.73,36l-7,26.37Z"/><path class="cls-4" d="M139.64,464.65l18.72-6.24s21.87,2.46,24.68,5.07,6.16,6.46,1,9.55c0,0,2.82,6-.18,7.79s-6.73-.12-6.73-.12,4.51,4.77,1.12,7.34-5.06.86-5.06.86-.1,3-2,2.94a50.63,50.63,0,0,1-8-1.85s-10.44,1.88-16.23.63a27.15,27.15,0,0,1-10.81-5.82Z"/><path class="cls-9" d="M280.56,396.3a24.16,24.16,0,0,0-3.44-2.5,22.17,22.17,0,0,0-4-1.39A9.37,9.37,0,0,1,280.56,396.3Z"/><path class="cls-4" d="M291.13,375.62l6.1,25,0,1.93s-1.7,1.48-2.92,1.11-11-2.22-11-2.22l-6.84-18.14s-.45-1.85,2-3.14S291.13,375.62,291.13,375.62Z"/><path class="cls-9" d="M296,382.52a1.37,1.37,0,0,1-.38.15l-1.11.34-4,1.17-6,1.68a33.71,33.71,0,0,1-3.6.91,4.32,4.32,0,0,1-3.86-1,3,3,0,0,1-.82-1.93,4.39,4.39,0,0,1,.43-2,5.7,5.7,0,0,1,2.72-2.57,21.7,21.7,0,0,1,3.15-1.19l2.76-.88,4-1.28,1.11-.33c.24-.06.38-.11.39-.08l-.37.17-1.09.38-4,1.39-2.74.9a22.65,22.65,0,0,0-3.09,1.19,5.35,5.35,0,0,0-2.55,2.42,3.15,3.15,0,0,0,.31,3.51,3.24,3.24,0,0,0,1.65.85,5.4,5.4,0,0,0,1.88,0c1.23-.21,2.43-.6,3.57-.88l6-1.57,4.08-1.06,1.12-.27Z"/><path class="cls-9" d="M296.46,390.27a3.24,3.24,0,0,1-.85.27l-2.37.61c-2,.47-4.81,1-7.92,1.51a19.8,19.8,0,0,1-2.3.29,4.38,4.38,0,0,1-2.16-.42,3.39,3.39,0,0,1-1.76-3.15,3.24,3.24,0,0,1,1.07-2.19,3.17,3.17,0,0,1,.56-.4c.14-.06.21-.09.22-.07-.23.18-.46.36-.68.57a3.38,3.38,0,0,0-.85,2.14,3.12,3.12,0,0,0,1.66,2.81,4.05,4.05,0,0,0,2,.36c.73,0,1.48-.16,2.26-.27,3.1-.49,5.89-1,7.9-1.42l2.39-.48A3.93,3.93,0,0,1,296.46,390.27Z"/><path class="cls-9" d="M295.72,397.35a5.72,5.72,0,0,1-.83.12l-2.24.2-7.43.49a17.33,17.33,0,0,1-2.16.08,3.85,3.85,0,0,1-1.95-.6,2.28,2.28,0,0,1-1-1.6,2.5,2.5,0,0,1,.39-1.57,3.37,3.37,0,0,1,1.81-1.36,2.44,2.44,0,0,1,.83-.19l-.76.31a3.46,3.46,0,0,0-1.64,1.33,2.28,2.28,0,0,0-.3,1.4,1.84,1.84,0,0,0,.9,1.33,3.62,3.62,0,0,0,1.78.53,15.35,15.35,0,0,0,2-.11c2.91-.17,5.53-.31,7.43-.39l2.25-.07A3,3,0,0,1,295.72,397.35Z"/><path class="cls-9" d="M294.36,403.64a13.22,13.22,0,0,1-2.43-.29c-1.49-.24-3.55-.61-5.82-1l-1.65-.3a6.53,6.53,0,0,1-1.56-.41,2.17,2.17,0,0,1-1.11-1,1.44,1.44,0,0,1-.06-1.31,2.11,2.11,0,0,1,1.43-1.14,1.06,1.06,0,0,1,.66,0s-.24,0-.61.16a2.15,2.15,0,0,0-1.24,1.09,1.19,1.19,0,0,0,.09,1.07,2,2,0,0,0,1,.83,6.48,6.48,0,0,0,1.49.36l1.65.3c2.27.4,4.31.8,5.8,1.1A16.16,16.16,0,0,1,294.36,403.64Z"/><path class="cls-20" d="M422.32,261.93l-30.24,83-23.77-29.41c10.75-44.13,22.94-83.07,41.58-105.38Z"/><path class="cls-20" d="M369.41,266.88l-30.23,9.53,8.94,34a109.14,109.14,0,0,0,20.11,40.47c4,4.95,8,9.1,11.27,10.42,24.74,10.05,45.61-23,45.61-23Z"/><path class="cls-20" d="M418,334l-13.11-47.46s-6.51-64.47,6-77.69c4.55-4.8,21.31-6.42,30.09-10.54,18.53.54,13,1,17.72,5.36,4.44,4.06,8.06-4.21,13.9-3.5s12,.83,17.62-.79c7-2,12.49,4.87,17.51-.23,4.42-4.48,2.32-7,10.44-7l37.56,16.67,6.76,9.29-4.67,68.22-12,74.67,27.58,55.41s3.42,7.38,2.68,6.73c-57.55,13.3-136.53,22.85-170.64,11.61l14.87-56Z"/><path class="cls-20" d="M555.72,208.82c-15.17-7-15.06-1.7-23.3,2.51s-66,93.86-66,93.86l-78.61-12.64L375.51,318.6s92.71,45.46,107.19,45.46c10.94-.11,52.87-45.12,74.42-79.06,8.73-13.69,15.77-42.43,11.49-58.09C567.5,221.92,562.35,214.39,555.72,208.82Z"/><path class="cls-21" d="M555,292.06c-6.41,10.09-12.78,20.2-19.51,30.08a254.13,254.13,0,0,1-20.38,26.71c-5.92,6.62-12.63,13.29-20.78,17.11-5.77,2.7-12,2.82-18.18,1.84a96.82,96.82,0,0,1-19.57-5.62,233,233,0,0,1-22-9.92c-14-7.08-27.49-15.08-40.7-23.48q-7.2-4.57-14.28-9.35c-1.48-1-3-2-4.43-3a18.83,18.83,0,0,0-2.41-1.67c-.1-.06-.2-.15-.3-.22l.13.5,10.89-27.26,1.55-3.87-1.12.41,8.78,3.88,21,9.27,25.46,11.26,21.93,9.7,7.27,3.22c1.14.5,2.28,1.14,3.46,1.53l.15.06a1,1,0,0,0,1.11-.4q3.62-6.45,7.24-12.89,7.89-14,15.88-28c5.18-9,10.38-18.1,15.77-27q1.43-2.37,2.9-4.73a21.8,21.8,0,0,0,1.63-2.64c1.07-2.4,2-4.86,3.17-7.22,4.61-8.92,11.82-18.15,22.18-20.27a21.9,21.9,0,0,1,4.35-.43c.83,0,1.12-1.06.13-1.06-11.28.07-19.92,8.17-25.56,17.23a62.89,62.89,0,0,0-5.07,10c-.22.57-.38,1.2-.65,1.74-.64,1.32-1.63,2.55-2.4,3.8-5.23,8.47-10.19,17.11-15.15,25.74q-8.4,14.6-16.67,29.29l-6,10.65-1.95,3.48a14.3,14.3,0,0,0-1,1.87c0,.08-.1.16-.14.24l1.11-.4L464,318.37l-21-9.27-25.47-11.27-21.93-9.7-7.27-3.21a36.73,36.73,0,0,0-3.46-1.53l-.15-.07a1,1,0,0,0-1.11.41L372.75,311l-1.54,3.87a.39.39,0,0,0,.13.5c5.87,4.16,11.89,8.12,17.94,12,13.13,8.48,26.57,16.54,40.43,23.78C437,355,444.38,358.55,452,361.67a117.73,117.73,0,0,0,20.47,6.6c5.8,1.21,12.18,1.88,18,.25,8-2.26,14.76-7.92,20.56-13.63,7.85-7.73,14.61-16.57,21-25.53,6.95-9.77,13.43-19.86,19.86-30l4.55-7.17c.43-.67-1.05-.69-1.38-.16Z"/><path class="cls-4" d="M374.91,309.1,344.37,295l-13.62-10.54a143.71,143.71,0,0,1-14-7.93c-1.71-1.68-.81-2.72,0-3.45s12.35,3.16,12.35,3.16-15-7.17-16.51-9.86.43-4.24,1.87-4.91,23.28,9.82,23.28,9.82l-7.39-4.62s-14.12-5.11-16.46-8.18,1.12-6,1.12-6l16.88,7.09L343.42,265l-10.9-7.36s-12.18-5-13.63-8.29,2.8-4.46,2.8-4.46l17.93,6.53,17.7,10.72a29.15,29.15,0,0,1-3.19-7.52c-.91-3.85,1.18-2.54,1.18-2.54l15.21,10.49,10.8,21.06,3,2.37Z"/><path class="cls-4" d="M311,249.86l12.37,7.29-7.67-.42a39.6,39.6,0,0,0-9.42-2.74c-2.09.24-2.34,3.32-2.34,3.32l23.64,9.51L345.44,277l23.75-13.74-2.58-12.95-1.38-13.74-2-7.34-6.16-9.59s-3.84.25-2.74,5.28,2,7.94,2,7.94l-.35,8-3.55.85-21.16-11-5.5-5.86s-2.86-8.16-8.63-9.42a1.11,1.11,0,0,0-.65.06,1.18,1.18,0,0,0-.67,1.53l5.8,14.4,6.35,5.8-8.44-4.31s-7.42-10-11.84-11.66-3.55,1.71-3.55,1.71l7.67,14.4,10.86,8.74L314,242l-9.81-7.67s-3.16-2.26-4.75,0a2.29,2.29,0,0,0,0,2.75Z"/><path class="cls-9" d="M356.79,262A14.87,14.87,0,0,1,368,272.22c-.37.19-2.08-2.78-5.13-5.62s-6.23-4.24-6.08-4.62Z"/><path class="cls-22" d="M326.13,189.56a79.08,79.08,0,0,1,4.77-13.86,79.19,79.19,0,0,1-3.42,14.24,78,78,0,0,1-4.77,13.86A79.19,79.19,0,0,1,326.13,189.56Z"/><path class="cls-22" d="M301.47,189a139.19,139.19,0,0,1,2.9,19.15,132.5,132.5,0,0,1-4.26-18.88,137.86,137.86,0,0,1-2.89-19.18A131.51,131.51,0,0,1,301.47,189Z"/><path class="cls-22" d="M276.26,208.89a57.11,57.11,0,0,1,9.83,7.76A56.87,56.87,0,0,1,275.46,210s-16.54-11.48-18.66-13.82Z"/><path class="cls-22" d="M247.26,244.62c4.21-1.89,24.54-6,24.54-6a105.69,105.69,0,0,1,16.49-2.75A101.34,101.34,0,0,1,272,240Z"/><path class="cls-22" d="M284.11,266a99.64,99.64,0,0,1,8.44-13.74,89.54,89.54,0,0,1-7.23,14.46,93.88,93.88,0,0,1-8.43,13.74A97.52,97.52,0,0,1,284.11,266Z"/><path class="cls-4" d="M500.32,140.51S498,166.7,505.76,184c1.08,2.42,18.36,11.63,18.36,11.63l-18.92,7.52c-12.85,3.71-42,4.72-54.8.89l-10.87-5.14s13.1-4.57,13.58-7.66S450,165.23,450,165.23"/><path class="cls-9" d="M452.88,185.63s5.17-3.54,8.8-4.79,10-1.41,26.12-17.19c0,0-3.93,18.45-25.42,23.62,0,0-5.55,1.51-9.29.83Z"/><path class="cls-4" d="M427.11,75.47a3.62,3.62,0,0,1-.19.4l.22-.2Zm-9.37,3.67,0,.17c.14-.15.27-.29.39-.44C418.13,78.67,417.74,79.14,417.74,79.14Zm82.19,65.39.7-3.53c5.17,5.58,12.08,0,11.54-8.75,1.88-4.59,3.45-19.35-.61-23.42l-.5-.61c-2.72-1.66-7.28-2-8.78,1.52-.45,1.51.26,3.27-.19,4.78-.42,1.72-2.39,5.12-3.28,6.69,0,0-2.34-8.12-2.69-12s-4.66-14.6-12.31-19c0,0-1.8-13.58-5.48-17.17l-1.17-.23c-.66.09-1.07.36-1.73.46,0-.2.16-.44.1-.84a7.15,7.15,0,0,1-2.84.63c.19-.24.61-.51.58-.71a11.33,11.33,0,0,1-2.65.4c.19-.24.57-.71.54-.91-1,.57-1.76.26-2.64.39a1.49,1.49,0,0,0,.32-.87,6.19,6.19,0,0,1-2.62.6c.19-.24.35-.68.54-.91-1,.57-1.76.26-2.64.39-.22,0,.38-.47.35-.67a8.3,8.3,0,0,1-2.17.53c0-.2.38-.47.35-.67-1.27.6-2,.29-2.87.43l.54-.91a3.15,3.15,0,0,1-2.58.8c.19-.24.57-.71.54-.91a4.42,4.42,0,0,1-3.47.93c.22,0,.57-.71.54-.91-1,1-1.89.9-3,1.07.19-.23.35-.67.73-1.14a4.58,4.58,0,0,1-4.1,1.23c.22,0,.35-.68.32-.88-.76.94.75-.31-.39-.35,0,0-2.41,1.19-2.44,1-.79.74,1.81-3.78.71-3.61.16-.44-6.27,1.32-5.89.85-1,1-.81.52-2.17.52,0,0-4.21,3.1-4,2.86-.95,1.18-1.58.41-2.93.4.19-.24.92.73,1.11.49-.76.94-.62-.11-1.72,0,0-.2-3.8-.77-3.83-1-1,.77-.64.8-2,1,0-.2-.5,2.35-.31,2.11-.76.94-.81.27-2,.24l-1,.91c-1,1.18.5.51-.85.51,0-.14,5.06-.11,5.23-.41a8.4,8.4,0,0,1-2.66,1.68c0-.21.14-.64.11-.85A4.49,4.49,0,0,1,421,78.44c.22,0,.38-.47.35-.67-.95,1.18-2.18,2-3.6,1.57v0a7,7,0,0,1-2.87,1.91.89.89,0,0,1,.32-.88l-.88.13a14.45,14.45,0,0,0-1.89,5.45s-6,12.74-4.65,20.19,4.6,20,5.3,23.21a65.38,65.38,0,0,1,1.12,10.2c.2,6.63.43,8.36,3,14.67a42.43,42.43,0,0,0,9,14.18c4.61,5.13,10.72,9.27,16.53,13.36,3.83,2.7,8.92,4.58,13.85,4.08,13.75-1.39,25.91-12.66,33.32-22.75"/><path class="cls-23" d="M412,94c3.59-12.58,16.32-21.15,43.67-28.7a100.81,100.81,0,0,1,50.66-.59c-18.91-38-59.19-30.64-68.22-29.3s-50.37,43.46-30.21,74.27l1.22,3S411.38,96.23,412,94Z"/><path class="cls-23" d="M512.28,55.3s-.38-25.5-19.89-31.18c-26.05-7.58-60.05-7.57-68.15,19.89Z"/><path class="cls-24" d="M518.81,116.34c1.71-2.34.31-8,1.7-10.59,7.29-13.32,2.65-24.61-1.85-31-2-2.81-.63-8.44-1.17-11.08-2.83-13.82-4.49-14-27.33-25.23-18.6-9.12-36.8-5.88-47.29-3.74-16.81,3.43-24.12,5.6-28.25,18.5-.54,1.68.48,2.82.11,4.8-.51,2.81-4.66,3.72-4.85,7.21,0,0,23,5.51,43.19,12.8s59.07,41.38,59.46,53.27C512.54,131.6,516.91,118.92,518.81,116.34Z"/><path class="cls-23" d="M524.13,88.54s-37.84-34.68-72.85-29.81c0,0,43.87-12.51,68.53,16.83l.66,1.22a31.13,31.13,0,0,1,3.45,10.32Z"/><path class="cls-23" d="M414.32,58.48l2.24-1.24A62.05,62.05,0,0,1,433.16,51l9.74-2.14s-24.37-.62-28.76,6.18Z"/><path class="cls-25" d="M504,138.32a4.26,4.26,0,0,1,4.37,3.38,4.13,4.13,0,0,1-.48,2.88,3,3,0,0,1-1.28,1.26,3.86,3.86,0,0,1-3.63.06c-.25-.12-1.11.25-.76.42a5.57,5.57,0,0,0,6-1,4.45,4.45,0,0,0-.13-6.12,4.93,4.93,0,0,0-3.71-1.36c-.18,0-.52.06-.62.25s.08.24.24.23Z"/><path class="cls-26" d="M493.13,105.55l4.11,19.5,5.62-9.71S495.93,108.32,493.13,105.55Z"/><path class="cls-10" d="M502.14,124.13c.64-.09,1.6-.24,1.8.57a4.59,4.59,0,0,1-.26,2c-.35,1.42-.9,3.32.4,4.42,1.65,1.4,3.33-1.14,3.87-2.44a9.1,9.1,0,0,0,.49-5.52c-.43-1.89-1.28-4.41-3.37-5-.4-.11-1.11.47-.54.63,1.74.48,2.47,2.61,2.87,4.18a8.54,8.54,0,0,1-.11,4.93,5.3,5.3,0,0,1-1.66,2.73c-.56.39-1-.15-1.26-.69-.54-1.34.24-3,.48-4.31a2.19,2.19,0,0,0-.24-1.79c-.56-.65-1.64-.56-2.39-.46-.51.07-.72.77-.08.69Z"/><path class="cls-23" d="M503.76,94.81s14.32,11,16,15.92l.72-5A26.07,26.07,0,0,0,503.76,94.81Z"/><path d="M442.23,147.88a6.37,6.37,0,0,0,5.68-1.21c.33-.28,1.57-.25,1.11.14a9,9,0,0,1-7.76,1.53c-.22-.08-.21-.24,0-.37a1.44,1.44,0,0,1,.93-.09"/><path d="M449.66,146.25a10.26,10.26,0,0,1,3.41-1.41.78.78,0,0,1,.56.09c.12.08.16.2,0,.29a3.85,3.85,0,0,1-1.88.73.73.73,0,0,1-.63-.14c-.14-.15,0-.28.21-.31a3.08,3.08,0,0,0,1.51-.59l.61.38a9.22,9.22,0,0,0-3.05,1.27.74.74,0,0,1-.65,0c-.15-.05-.31-.21-.13-.33"/><path d="M454.53,145.67a5,5,0,0,0,3.56-2.29c.82-1.77-.55-4.19-2.49-4.95-.21-.09-.13-.25.06-.32a1.18,1.18,0,0,1,.79,0,5,5,0,0,1,3,4.17c0,1.44-1.23,2.64-2.88,3.3a8.14,8.14,0,0,1-1.55.46c-.21,0-.61,0-.74-.12s.05-.26.25-.3"/><path d="M439.5,147.55a.18.18,0,0,0-.22-.24,1.66,1.66,0,0,1-1.16-.2l-.31.52a5,5,0,0,1,2.36.46.4.4,0,0,0,.44-.14c.08-.09.16-.28,0-.36"/><path d="M440.62,147.59a5.7,5.7,0,0,0-2.64-.5.5.5,0,0,0-.36.23.21.21,0,0,0,.05.29"/><path d="M436.56,148.19a3,3,0,0,1-2.74-1.36,4.2,4.2,0,0,1,.44-4.73.17.17,0,0,0-.12-.29.55.55,0,0,0-.47.23,4.72,4.72,0,0,0-.94,4.1,3.31,3.31,0,0,0,2.57,2.5,3.44,3.44,0,0,0,1.06.06c.14,0,.39-.11.43-.29s-.1-.24-.23-.22"/><path class="cls-26" d="M423,122a3.47,3.47,0,0,0-3.51,1.13,3.29,3.29,0,0,0-.56,1.59,3.21,3.21,0,0,0,1.18,2.79,3,3,0,0,0,3.49.09,3.31,3.31,0,0,0,1-4A3,3,0,0,0,423,122"/><path class="cls-26" d="M434.54,124.41s-6.65-3.8-9.74-3.65c-4.51.22-9.62,3.5-10.86,5.94,0,0,6.69-4.76,9.88-4.82S434.54,124.41,434.54,124.41Z"/><path class="cls-26" d="M460.92,116.52a4.18,4.18,0,0,1,4-.35,3,3,0,0,1,.82,4.32,3,3,0,0,1-3.3,1.11,3.31,3.31,0,0,1-2.18-3.57c0-.25-.28-.67.63-1.33"/><path class="cls-26" d="M453.68,121s6.09-5.28,9.38-5.87c4.81-.87,11,1.1,12.9,3.18,0,0-8.22-3-11.59-2.34S453.68,121,453.68,121Z"/><path class="cls-26" d="M432.37,109.06l.21,2.73.15,2.08c-2.36-.4-4.38-.63-5.9-.76-3.21-.27-4.85-.4-6.67,0a17.91,17.91,0,0,0-4.1,1.66,12,12,0,0,0-2.13,1.35c-1.47,1.26-2,2.58-2.27,2.49s0-1.23.08-1.35a10.68,10.68,0,0,1,3-4.87,12.66,12.66,0,0,1,4.12-2.31c1.78-.6,6.8-1.34,13.55-1.07"/><path class="cls-26" d="M451.92,105l.42,2.7c.11.69.23,1.38.34,2.06,2.41-1,4.49-1.67,6.07-2.16,3.34-1,5.05-1.58,7.08-1.57a20.26,20.26,0,0,1,4.74.62,12.92,12.92,0,0,1,2.57.79c1.86.86,2.74,2,3,1.87s-.35-1.19-.41-1.29a10.79,10.79,0,0,0-4.28-4,14.17,14.17,0,0,0-4.92-1.24c-2-.16-7.52.34-14.61,2.24"/><path class="cls-12" d="M448.08,156.29c7-1,18.26-3.6,18.26-3.6s0,17.75-16.23,20.18-20.53-14.69-20.53-14.69S441.07,157.34,448.08,156.29Z"/><path class="cls-5" d="M448,156.3c3.33-.5,16.68-3.09,16.68-3.09s-3.3,11.33-15.36,13.13c-13.07,1.95-18-8-18-8Z"/><path class="cls-13" d="M448,156.84c3.33-.49,13.39-2.59,13.39-2.59s-3.08,4.34-13.09,5.83-13.73-1.72-13.73-1.72Z"/><path class="cls-12" d="M428.68,157.22c.34-.14,2.38.24,4-.16,2.72-.66,4.33-1.67,6.31-2.13,3.37-.78,5.75.3,7.24.08s3.44-1.95,6.89-2.19c2-.14,7.09-.12,9.89-.28,1.67-.1,3.52-1.06,3.88-1s.12,3.95-18.54,6.73S428.21,157.42,428.68,157.22Z"/><path class="cls-27" d="M93.73,318.17a24.18,24.18,0,0,1,4.92,5.61,28.79,28.79,0,0,1,4.88,16.44,68.42,68.42,0,0,1-1.39,10.25l-1.73,10.08-3.28,19.14L95.4,389.78l1.17-.5-5.67-1.71c-.49-.15-1.7.57-.88.82l5.67,1.72c.34.1,1.1-.08,1.17-.5l4.64-27.07L103.3,352c.57-3.34,1.33-6.7,1.59-10.09a29.46,29.46,0,0,0-3.87-17.1,25.64,25.64,0,0,0-5.94-7.24c-.43-.33-1.77.25-1.35.58Z"/><path class="cls-27" d="M204.2,378.23c-1.27-6.6-3.17-13.19-3.38-20-.09-3.07,0-6.15,0-9.22,0-.77-1.47-.57-1.47.1,0,3.2-.09,6.42,0,9.61.27,6.73,2.13,13.27,3.39,19.85.13.69,1.59.32,1.45-.39Z"/><path class="cls-21" d="M407.62,237.09a36.43,36.43,0,0,1,2.88,14.49c-.07,5.1-1.37,10-2.83,14.86-1.53,5.09-3.09,10.17-4.64,15.25a29.1,29.1,0,0,0-1.28,8.86c0,.64,1.45.35,1.45-.17-.05-6.2,2.19-11.84,4-17.7,2.29-7.56,5.05-15.17,4.75-23.19a36.82,36.82,0,0,0-2.86-12.79c-.23-.54-1.66-.11-1.45.39Z"/><path class="cls-21" d="M469.92,322.43a16.16,16.16,0,0,1,9.63,14.78c0,.32,1.44.09,1.45-.39a16.43,16.43,0,0,0-9.91-15c-.36-.15-1.68.4-1.17.62Z"/><path class="cls-9" d="M375.29,308.59l-28.94-13.35a9.9,9.9,0,0,1-2.38-1.37l-7.5-5.81c-1.73-1.34-3.42-2.86-5.25-4.06-1.16-.77-2.56-1.3-3.79-1.95q-2.51-1.33-4.95-2.77-2-1.18-4-2.45c-1.07-.67-2.72-1.74-1.92-3.23,0,0,.46-.65.5-.61a1.21,1.21,0,0,1-.61.14h.08a3.28,3.28,0,0,0,.72.12c.72.15,1.43.35,2.13.56,1.83.54,3.64,1.15,5.45,1.78q3.79,1.31,7.58,2.72c.32.13,1.51-.43,1.27-.55-2.66-1.27-5.28-2.6-7.9-3.95-3.87-2-8-4-11.45-6.66-1.91-1.48-2.41-3.78-.29-5.41.45-.35.46-.08,0-.19,0,0,.12,0,.15,0a2.9,2.9,0,0,0,.73.19c.67.2,1.32.44,2,.69,4.08,1.56,8.05,3.42,12,5.25q4.44,2.06,8.83,4.18c.33.17,1.64-.33,1.36-.51L334,268.21a23.45,23.45,0,0,0-3.6-2.15c-4.84-1.92-10-3.63-14.32-6.55-1.26-.84-2.41-1.88-2.5-3.51a5,5,0,0,1,1.86-3.8l-1.25.34c7.47,3.14,14.87,6.14,22,9.51l6.34,3c.31.15,1.66-.31,1.36-.51l-5.86-4a51.87,51.87,0,0,0-5.18-3.46c-2.41-1.23-5-2.21-7.34-3.51-2.05-1.11-7.26-3.48-6.3-6.59a3.09,3.09,0,0,1,1.49-1.69c.22-.13.47-.2.68-.33.64-.38-.36.5-.47,0a7.63,7.63,0,0,0,1.78.65l8.68,3.17c2.36.86,4.71,1.73,7.07,2.57a2.31,2.31,0,0,1,.72.36l2.46,1.49,14.81,9c.22.13,1.6-.12,1.41-.45a29.94,29.94,0,0,1-2.81-6.21,9.19,9.19,0,0,1-.61-2.83,6.49,6.49,0,0,0,.12-.78l0-.06q.24-.33-.54.12s.13,0,.14,0a3.85,3.85,0,0,0,.53.3c.54.36,1.07.75,1.61,1.12l11.12,7.67,1.73,1.2.45.31a18.68,18.68,0,0,1,1.61,3.15l6.39,12.45,2.52,4.9c.57,1.13,1.93,1.71,2.95,2.42.35.24,1.61-.33,1.36-.51-1-.72-2.35-1.29-2.87-2.3l-2.31-4.51L372.47,265a14.85,14.85,0,0,0-1.43-2.81,15.11,15.11,0,0,0-2.86-2l-11.49-7.93c-.88-.61-1.63-1.19-2.78-.74s-1,1.83-.76,2.91a27.28,27.28,0,0,0,3.24,7.72l1.41-.45L344,253.32a42.12,42.12,0,0,0-4.07-2.44c-2.11-.95-4.41-1.6-6.59-2.4l-9.26-3.37a13,13,0,0,0-2-.72,4,4,0,0,0-2.42.78c-1.3.76-2.35,2-1.93,3.6a6,6,0,0,0,2.59,3,52.12,52.12,0,0,0,9.53,5.14,33.4,33.4,0,0,1,5.27,3.14l7.38,5,1.36-.51c-3.83-1.81-7.63-3.67-11.48-5.42s-7.77-3.27-11.65-4.9l-5.4-2.27a1.47,1.47,0,0,0-1.25.34c-2,1.75-2.8,4.71-.71,6.73,1.9,1.82,4.64,2.94,7,4,2.56,1.18,5.17,2.25,7.81,3.25a15.59,15.59,0,0,1,3.24,1.71l6.26,3.89,1.36-.51c-6.92-3.36-13.9-6.81-21.09-9.55a8.57,8.57,0,0,0-3.34-.9,3.75,3.75,0,0,0-3.12,5.26c.7,1.3,2.26,2.13,3.46,2.89,2.11,1.34,4.31,2.55,6.51,3.74q5.33,2.85,10.79,5.47l1.27-.55c-2.28-.86-4.57-1.68-6.87-2.48-2.89-1-6-2.4-9.07-2.73a2.31,2.31,0,0,0-2.4,1.13,1.89,1.89,0,0,0,.12,2.29c1,1.4,3.12,2.27,4.57,3.13,3.11,1.87,6.31,3.57,9.54,5.23a13.11,13.11,0,0,1,2,1.42l8.19,6.35a32,32,0,0,0,4.09,3.09c1.69.9,3.51,1.62,5.24,2.42l9.44,4.35,15.72,7.25c.33.15,1.66-.38,1.18-.59Z"/></g></svg>