<svg xmlns="http://www.w3.org/2000/svg" xmlns:xlink="http://www.w3.org/1999/xlink" viewBox="0 0 1221.96 991.43"><defs><style>.cls-1,.cls-14{fill:none;}.cls-2{clip-path:url(#clip-path);}.cls-3{fill:#f2ebd1;}.cls-4{fill:#a56530;}.cls-5{fill:#8c542a;}.cls-6{fill:#b25226;}.cls-7{fill:#893a1d;}.cls-8{fill:#956243;}.cls-9{fill:#684135;}.cls-10{fill:#dc9b34;}.cls-11{fill:#82a8b3;}.cls-12{fill:#151210;}.cls-13{fill:#010101;}.cls-14{stroke:#010101;stroke-width:1.37px;}.cls-14,.cls-20,.cls-21,.cls-31,.cls-32{stroke-miterlimit:10;}.cls-15{fill:#513835;}.cls-16{fill:#745245;}.cls-17{fill:#555656;}.cls-18{fill:#3a3a3a;}.cls-19{fill:#465b65;}.cls-20{fill:#526e75;stroke:#526e75;}.cls-20,.cls-21{stroke-width:1.53px;}.cls-21,.cls-31,.cls-32{fill:#8c3d1e;stroke:#8c3d1e;}.cls-22{fill:#47728e;}.cls-23{fill:#38607f;}.cls-24{fill:#ce8d2a;}.cls-25{fill:#13110f;}.cls-26{fill:#231f20;}.cls-27{fill:#8e6528;}.cls-28{fill:#653c29;}.cls-29{fill:#31160e;}.cls-30{fill:#f1eef7;}.cls-31{stroke-width:0.86px;}.cls-32{stroke-width:0.69px;}</style><clipPath id="clip-path"><rect class="cls-1" x="-0.13" y="-5.2" width="1222.09" height="996.64"/></clipPath></defs><g id="Layer_2" data-name="Layer 2"><g class="cls-2"><polyline class="cls-3" points="1638.86 1463.33 1638.86 -57.7 -235.83 -57.7 -235.83 1463.33"/><path class="cls-4" d="M211.66,921.45q76.17,0,152.34,0c21.84,0,25.89,10.59,25.86,32.31,0,20-4.37,31.67-26.47,31.72-5,0-10.06.57-14.92-.11-14.62-2-17.55,3.52-15.64,15.11,18.7,113,36.95,218.34,55.61,331.37,1.27,7.7.11,10.75-10,10.88-25.21.32-25.73.83-29.22-20.34Q331.37,1214.23,314.41,1106c-1.52-9.81-5.4-12.78-16.77-12.68q-86.62.73-173.25,0c-11.08-.09-14.3,3.38-15.68,12.25-11.84,76-24.24,152-36.18,228-1.11,7.08-4.49,9.19-12.51,9.32-26,.41-26.69.6-23.35-20.73,12.1-77.29,24.68-154.54,37.16-231.79,5.31-32.85,10.61-57.92,16.39-90.71,1.79-10.12-.3-15.85-13.86-13.92-2.91.41-6-.13-9,.09-38.95,2.82-35.77-25.7-33.52-52.07.88-10.24,11.22-12.65,22.45-12.59,51.77.26,103.55,6.6,155.32,6.6Zm-1.22,145.93c28.84,0,57.68-.23,86.51.14,8.83.11,12.77-1.55,11.27-10.09-4.65-26.38-8.87-34.46-12.88-60.92-1.22-8-4.45-11.41-14.9-11.28-45.74.6-91.49.68-137.22,0-11.34-.18-14.48,3.55-15.75,12-3.84,25.61-7.93,32.84-12.47,58.36-1.57,8.84.73,12.25,11.92,12C154.74,1067,182.6,1067.38,210.44,1067.38Z"/><path class="cls-5" d="M74,1090.46l-5.79,35.77c12.1,2.43,24.12,5.3,36.12,8.28q2.27-14.43,4.54-28.88c1.38-8.87,4.6-12.34,15.69-12.25q86.61.75,173.24,0c11.37-.1,15.26,2.87,16.77,12.68q2.18,14,4.39,28a326.34,326.34,0,0,0,33.92-14.78c-6.6-39.06-13.21-78.4-19.88-118.72-.63-3.8-.72-6.94-.07-9.39q-11.83.81-23.7,1.27-7.29.27-14.56.44a24.76,24.76,0,0,1,.83,3.7c4,26.46,8.24,34.54,12.88,60.92,1.51,8.54-2.44,10.2-11.27,10.09-28.83-.37-57.67-.14-86.51-.14-27.84,0-55.7-.42-83.52.21-11.19.25-13.49-3.16-11.92-12,4.54-25.52,8.63-32.75,12.47-58.36.51-3.4,1.33-6,2.84-7.94q-20.56-.66-41.14-.95c1.86,2.47,1.93,6.36,1.06,11.3C84.55,1032.54,79.25,1057.61,74,1090.46Z"/><path class="cls-5" d="M33.44,939.12S185,965.72,256.32,956.28,389.5,943.36,386.61,932s-53.37-35.59-104.19-37.31S92.29,906.11,92.29,906.11s-44.12,11.08-51.67,15C30.54,926.44,33.44,939.12,33.44,939.12Z"/><path class="cls-6" d="M121.53,690.39S44.89,808.86,91.9,897.89c22.4,42.39,89.42,42.36,89.42,42.36l68.75-86.46v-143Z"/><path class="cls-6" d="M590,845.41c-3.47,104.13-11.88,257.58-28.41,363.87,0,0-94.43,26.83-106.29,3.53,0,0-16.57-180-56-307.59-34.74-112.4-245.6-121-218.83-131.17,42.14-16,312.57-51,364.8-32.21C579.87,754.32,592.31,776.36,590,845.41Z"/><path class="cls-6" d="M518.67,889c.56-6.7,1.46-13.38,2.62-20a286.23,286.23,0,0,1,11.43-43.73A299.92,299.92,0,0,1,551,783a248.74,248.74,0,0,1,16.16-26.59c-131.71-21.76-401.89,9.91-401.89,9.91S65.69,797.73,94.69,885c38.43,115.61,324.45,40.48,422.59,4.55Z"/><path class="cls-6" d="M537.39,760.31s-15,.37-35.41,5.8a100.21,100.21,0,0,0,1.74-18.21c-2.42-2-5-4-7.62-6.06a226.76,226.76,0,0,0-31.68,20.75,282.9,282.9,0,0,0-33,30,258.16,258.16,0,0,0-27.12,34.09c-2.29,3.45-35.17,7-37.26,10.59.37,0,1.6,20.73,2,20.76-29.76,56.23,23.11,140.78,20.19,240.8-2.56,87.81-1.23,65.61-5.95,112.26,14,21.11,121.59,11.22,121.59,11.22C518.54,1086.83,537.39,760.31,537.39,760.31Z"/><path class="cls-7" d="M480.56,752.28s47.17-6.18,58,13.15,5.25,45.94,5.25,45.94,4.89-44.63-17.62-52.25S480.56,752.28,480.56,752.28Z"/><path class="cls-8" d="M619.36,550.88,511.62,566.65s-4.26,53.76,3.87,59.32,117.29-40.29,117.29-40.29Z"/><path class="cls-8" d="M624.76,549.62s15.54-23.06,27-28.89c3.22-1.64,25.86-26.32,25.86-26.32s8.36,3.3,1.14,14.74-10.45,16-10.45,16l-.5,4,22.64,2.29s26.13-1.63,32.45-1.46,19.89-.05,22.18,7.75c0,0,10-.9,11,3.81a7.22,7.22,0,0,1-1,6.6l-4.62,1.63s2.73,1,1.41,5.65-43.86,12.05-43.86,12.05l-2,1.9s29.19-.26,30.12,2.29,2.08,4.56-2.33,6.33-64.36,11.6-93.4,8.28c-9.18-1-11.34-.34-11.34-.34l-11.17-34.76Z"/><path class="cls-9" d="M748.44,548.54a138.62,138.62,0,0,1-22,3.62A138.35,138.35,0,0,1,704.3,554a136.86,136.86,0,0,1,21.94-3.64A137.58,137.58,0,0,1,748.44,548.54Z"/><path class="cls-9" d="M745.25,538.58c0,.5-9.7.89-21.59,2.16s-21.48,2.83-21.58,2.32a87.1,87.1,0,0,1,21.38-4.14A84.1,84.1,0,0,1,745.25,538.58Z"/><path class="cls-9" d="M670.94,534.91s1.74,21.76-15.47,36.17C655.47,571.08,682.2,552.71,670.94,534.91Z"/><path class="cls-10" d="M548.6,554,489,560.09,454,494.2,386,570.76s33,47.75,62.87,66.85c6.12,3.91,84.57-7.36,111.47-11.17C560.09,606.91,553.91,580.86,548.6,554Z"/><path class="cls-11" d="M846.51,396c-12.47,5.57-24.63,17-34.65,36.34l-39,85c.15.24-18.62,41.76-18.73,42.05-13.43,35.24,4.93,14.54,9.34,38.46,2.95,16.06,8,39.48,6.44,56.12,43.56-1,68.39-73,77.69-93.53l2,8.32c2.71-19.14,4.64-38.41,5.94-57.71,2.76-41,15-82.17,14.84-123.25Z"/><path class="cls-4" d="M1016.15,928.55c52.26,0,104.52-6.26,156.78-6.52,11.34-.06,21.77,2.32,22.66,12.43,2.28,26,5.49,54.21-33.83,51.43-3-.22-6.1.32-9-.09-13.69-1.91-15.8,3.75-14,13.75,5.84,32.38,11.19,57.14,16.54,89.58,12.61,76.3,25.3,152.58,37.52,228.92,3.36,21.06,2.65,20.87-23.57,20.47-8.1-.13-11.51-2.21-12.63-9.2-12-75.08-24.57-150.11-36.52-225.21-1.39-8.76-4.64-12.18-15.83-12.09q-87.43.74-174.87,0c-11.47-.1-15.4,2.83-16.93,12.52q-16.92,107-35.14,213.76c-3.53,20.9-4,20.39-29.5,20.08-10.2-.13-11.36-3.14-10.08-10.74C856.55,1216,875,1112,893.84,1000.39c1.94-11.45-1-16.92-15.78-14.92-4.9.66-10,.11-15.06.1-22.3-.05-26.69-11.62-26.71-31.33,0-21.44,4.05-31.89,26.1-31.91q76.88,0,153.76,0Zm85.54,138.1c11.3.25,13.62-3.12,12-11.85-4.58-25.2-8.71-32.34-12.58-57.64-1.29-8.38-4.46-12.06-15.9-11.88-46.16.71-92.34.63-138.51,0-10.55-.13-13.81,3.22-15,11.14-4.05,26.13-8.31,34.11-13,60.16-1.52,8.43,2.46,10.07,11.38,10,29.1-.36,58.21-.13,87.32-.13C1045.49,1066.45,1073.61,1066,1101.69,1066.65Z"/><path class="cls-5" d="M1155.16,1089.24q2.91,17.67,5.84,35.33c-12.21,2.4-24.34,5.23-36.46,8.18q-2.3-14.26-4.58-28.53c-1.4-8.76-4.65-12.18-15.84-12.09q-87.42.73-174.86,0c-11.48-.09-15.4,2.84-16.93,12.53-1.46,9.23-3,18.45-4.43,27.68a331.45,331.45,0,0,1-34.24-14.6c6.66-38.57,13.34-77.42,20.07-117.24.64-3.76.73-6.86.06-9.28q12,.81,23.94,1.25,7.34.28,14.69.44a23.12,23.12,0,0,0-.84,3.65c-4.05,26.14-8.31,34.11-13,60.17-1.52,8.43,2.46,10.07,11.37,10,29.1-.36,58.22-.13,87.32-.13,28.11,0,56.22-.42,84.31.2,11.29.25,13.62-3.12,12-11.85-4.59-25.21-8.71-32.34-12.59-57.64-.51-3.35-1.34-5.94-2.86-7.84,13.84-.43,27.68-.77,41.52-.93-1.88,2.43-2,6.27-1.06,11.16C1144.46,1032,1149.8,1056.8,1155.16,1089.24Z"/><path class="cls-5" d="M1196.05,939.77S1026.13,967.33,954.15,958s-117.5-14-114.58-25.21,53.86-35.16,105.16-36.86,191.91,11.25,191.91,11.25,45,10.22,52.16,14.85A16.16,16.16,0,0,1,1196.05,939.77Z"/><path class="cls-8" d="M973.79,286.23s4.78,50.28,15.38,66.78c2.57,4,34.23,19.31,34.23,19.31l-69.75,51.41-79.32-7.89s23.68-33.43,24-39S889.56,335,889.56,335"/><path class="cls-9" d="M869.21,338.38c4.37,4.25,8.51,8.76,13.06,12.82a.7.7,0,0,1,.15.2.65.65,0,0,1,1-.08c3.17,2.71,8.31,3.42,11.23,6.41,2.52,2.58,2.18,6.84,3.13,10.39,2.67-.14,6.22-1.09,9.52-1.58,21.91-5,21.75-7.91,47.23-32,8.09-7.65,4.74-14.3,6.24-16C930.43,324.13,900.75,331.68,869.21,338.38Z"/><path class="cls-12" d="M988.79,237.08s1.37-14.42-.39-47.78c-1.58-29.88-52.18-44.06-80.54-42.5-15.59.85-64.7,18-76.43,26.93s-14.77,28.07-10.9,53.72c0,0,2.6-26.85,18.78-29.69,13.19-2.31,54-17.85,66.06-15.5s38.54,7.06,48.09,46.57c2.61,10.76,19.39-4.76,26.07.64S988.79,237.08,988.79,237.08Z"/><path class="cls-8" d="M976.89,288.18l-4-40-7.45-44.09L941.2,174.67l-34.32-8.41-35,8.71S845.08,188,836.66,192.32s-12.34,16.53-15.77,30,3.53,33.16,3.53,33.16c-.1.76,1.33,3.68,1.61,4.29,3.51,7.75,5.59,14.74,8.35,20.49a15.23,15.23,0,0,1,1.58,8.29c-1.13,11.33-.1,15.86,2.15,22.15,3.08,8.59,6.34,15.77,11.09,22,5,6.64,11.11,13.67,12.33,15,0,0,13.28,14.45,15.73,15.62s5.93,2,7.44,1.84,21.2-3.11,21.2-3.11l9-2.17a23.83,23.83,0,0,0,8.45-3.92c6.85-5,26.32-19.85,31.35-25.29,6.76-7.32,11.21-32.64,11.21-32.64"/><path class="cls-12" d="M960.18,252.36c.57,3.41,3.6,16.78,4,20.15l17.35-4.2c2.69-12.71,6-27.69,7.31-31.23,2.05-5.53-2.65-29.1-4.42-38l-.38-1.91c-1.67-8.52-12.75-20.18-29.62-31.2-18.58-12.13-47.4-15-73.43-7.25-2.47.73-4.92,1.56-7.27,2.46-22.22,8.47-38.76,24.15-49.17,46.61-7.5,16.2-4.7,32.19-1.69,41.64a87.58,87.58,0,0,1,.31-34.71c3.46-14.36,10.7-19.85,16.16-21.93a19.44,19.44,0,0,1,9.55-1.19c5.86,0,13.87-2.56,19.57-4.73,4.25-1.62,7.56-3.15,8.46-3.57,2.51-2.71,6.62-5.2,11.89-7.22,12.26-4.67,31.1-6.5,36.13-1.76,5.56,5.25,19.89,25.18,21.1,30.31"/><path class="cls-8" d="M975.43,289.41C988,297.47,990.14,276,990.14,276c7-14.1,4.07-26.65,1.69-35.15S980,234.7,980,234.7c-7.82,2.77-10.38,7.92-10.71,36.55"/><path class="cls-12" d="M823.6,204.71c3.69-10.75,12.34-25.18,16.74-35.67,3-1,18.21-4.88,21.39-5.75,32.38-8.89,80.61-.23,87.56,10.69,4.34,6.81,11.91,47.61,11.34,51.61-1.58,11-.07,24.54-.07,24.54-4.85-14.84-19.58-29.22-22.15-34.1s-1.31-31.13-3.23-31.78-33.87-2.89-67.09,5.33a256.37,256.37,0,0,0-27.93,8.76C840.2,198.22,823.56,204.83,823.6,204.71Z"/><path class="cls-12" d="M900.78,252.54c1.74-1.51,4.29-1.18,5.87-.34a5.08,5.08,0,0,1,2.09,2,5.34,5.34,0,0,1-.09,5,5,5,0,0,1-5.3,2.31,5.49,5.49,0,0,1-4.12-5.57,4.9,4.9,0,0,1,1.55-3.41"/><path class="cls-12" d="M844.53,267.63c-2.24-.55-4.35.91-5.38,2.38a5.2,5.2,0,0,0-.95,2.72,5.37,5.37,0,0,0,2.37,4.43,5,5,0,0,0,5.78-.37,5.48,5.48,0,0,0,1.12-6.83,4.89,4.89,0,0,0-2.94-2.33"/><path class="cls-12" d="M862.85,271.6s-10-6.08-16-5.2c-8.76,1.28-10.49,3.74-12.58,8.41,0,0,4.62-5.46,10.81-6.2C851,267.9,862.85,271.6,862.85,271.6Z"/><path class="cls-12" d="M889.26,262.48s10.35-10.31,16.24-11.79c8.58-2.15,20,.64,23.72,4.15,0,0-15.25-4.46-21.25-2.78C902.23,253.67,889.26,262.48,889.26,262.48Z"/><path class="cls-12" d="M884.49,227.29c-.07,2.1-.13,4.21-.2,6.32,0,1.61-.27,5.27-.31,6.87,5.17-1.18,9.87-3,13.2-3.51,6.62-.92,13.4-2.32,20-1.07a22.48,22.48,0,0,1,8.53,3.22c.82.54,3,2.83,4.29,2.3.52-.21-.24-2.83-.32-3.1-1.54-5.28-6-7.6-11.41-9-11.1-2.92-22.38-3-33.81-2"/><path class="cls-12" d="M825.14,257.82l2.16-2.9c6-8.08,13.75-14,22.34-19.14l4,4.93c1,1.25,2.9,3.45,3.9,4.7-4.32,1.75-8.33,2.92-10.94,4.29-5.16,2.7-10.65,5.48-14.51,9.91-.3.35-1.92,2.28-2.2,2.63C826.61,261.14,824.8,258.69,825.14,257.82Z"/><path class="cls-13" d="M875.63,304.09a9.77,9.77,0,0,0,8.74-2.72c.48-.5,2.43-.6,1.77.09-2.84,2.93-8.3,4.46-12,3.5-.37-.1-.37-.36,0-.6a2.23,2.23,0,0,1,1.45-.27"/><path class="cls-13" d="M887.05,300.46a16,16,0,0,1,5.14-2.73,1.3,1.3,0,0,1,.91.07c.19.11.27.3.09.47a6.05,6.05,0,0,1-2.83,1.43,1.2,1.2,0,0,1-1-.14c-.23-.23,0-.47.29-.53a4.85,4.85,0,0,0,2.29-1.16c.33.18.66.36,1,.53a14.51,14.51,0,0,0-4.59,2.45,1.17,1.17,0,0,1-1,.13c-.23-.07-.51-.3-.25-.52"/><path class="cls-13" d="M894.62,298.88c2.2-.59,4.57-2.21,5.24-4.17,1-3-1.49-6.66-4.65-7.63-.34-.11-.24-.38,0-.52a1.83,1.83,0,0,1,1.24,0,8.11,8.11,0,0,1,5.34,6.3c.21,2.33-1.53,4.42-4,5.71a12,12,0,0,1-2.37.95c-.33.08-1,.13-1.19-.1s0-.43.36-.51"/><path class="cls-13" d="M871.29,303.92a.3.3,0,0,0-.38-.36,2.63,2.63,0,0,1-1.86-.16l-.4.87a7.93,7.93,0,0,1,3.77.43.62.62,0,0,0,.68-.28c.11-.16.2-.48-.05-.58"/><path class="cls-13" d="M873.05,303.84a8.79,8.79,0,0,0-4.22-.46.76.76,0,0,0-.53.42.34.34,0,0,0,.13.46"/><path class="cls-13" d="M866.77,305.34a4.66,4.66,0,0,1-4.5-1.82,6.94,6.94,0,0,1,0-7.69.28.28,0,0,0-.22-.45.86.86,0,0,0-.71.43,7.76,7.76,0,0,0-.85,6.75,5.34,5.34,0,0,0,4.4,3.68,5.25,5.25,0,0,0,1.68,0c.22,0,.59-.24.63-.54s-.18-.36-.39-.32"/><path class="cls-14" d="M976.22,262.3c3.93-19,9.19-20.22,9.19-20.22s4.38,3.34,4.25,11.84"/><path class="cls-14" d="M979.27,263.34c4.65-1.42,2.79,8.18,4.52,10s2.35-4.07,1.59-10.88c0,0-1.81-9-6.63-9.77"/><path class="cls-8" d="M912.64,365.57l91.62-3.71,7.42,24.63s-23,20.34-25.41,21.33-57.77,13.32-57.77,13.32-62.66-20.13-61.81-20S912.64,365.57,912.64,365.57Z"/><g id="freepik--Character--inject-2"><path class="cls-11" d="M832.57,454.52,838.86,402a127,127,0,0,1,32.21-14.87c11.17-3.35,15-5.81,21.68-7.76-1.84,8.24.23,15.69,6.2,20.17a51.49,51.49,0,0,0,29.6,10c10.33.25,20.79-1.94,30.55-5.14,18.26-6,39.57-25.49,44.1-44l15.47,2.37s61.31,22.73,70.1,26.1-16.84,221.39-16.84,221.39L1098.31,689c1.89,8.8,35.12,76.23,11.15,124.38,0,0-196.05-32.07-216.62-32.36-23.9-.32-36.3-3.42-42.19-14.11-2.13-3.87-11.95-21.21-3.62-89,4-32.92-5.24-69.38-7.85-104.76C834.54,510.29,832.57,454.52,832.57,454.52Z"/><path class="cls-11" d="M842.52,601.16c-.4.06-.68-5.89-1.07-5.82-3.22-27.74-7.92-59.37-10.59-84.41-.94-9.12-1.71-16.53-2.12-21.61a71.42,71.42,0,0,1-.51-8,60.34,60.34,0,0,1,1.4,7.89c.51,5.53,1.5,12.64,2.75,21.58,1.06,8.49,8.85,80,10.23,91.08C842.37,601.82,842.75,601.12,842.52,601.16Z"/></g><path class="cls-15" d="M935.85,536a.75.75,0,0,0-.21,0c0,.27-.17.55.05.8Z"/><path class="cls-16" d="M872.64,524.42l.29,0-.28-.16A.17.17,0,0,0,872.64,524.42Z"/><path class="cls-16" d="M913.22,531.82l-.25-.2-.1.14Z"/><path class="cls-16" d="M873.51,524.51l.38.07A.26.26,0,0,0,873.51,524.51Z"/><path class="cls-16" d="M935,535.84a.21.21,0,0,0-.33-.07Z"/><path class="cls-17" d="M657.82,883.79c19.79,74.3,54.69,255.78,82.43,345.9,0,0,94.61,10,102-11.7,0,0-19-184.84-.84-300.54,16-101.88,137.56-141.58,113-147-38.57-8.6-252.15-8.38-272.93,8.69C656.56,799.59,642.24,825.27,657.82,883.79Z"/><path class="cls-17" d="M730.39,923.75c-1.33-5.74-3-11.42-4.79-17a250.11,250.11,0,0,0-15.43-36.49A262.25,262.25,0,0,0,689,835.84a219.62,219.62,0,0,0-17.37-21c111.5-35.48,349.86-42.07,349.86-42.07s90.34,14.74,76.18,94.07c-18.77,105.14-276.34,76-366,57.22Z"/><path class="cls-17" d="M699.68,839.41s-12.65-50.15,27.16-58c41.44-8.21,283.49-8.1,283.49-8.1L699.68,839.41"/><path class="cls-18" d="M698.13,839s-13.75-43.61,36.27-60.65c0,0-52.47,8-40.86,61Z"/><path class="cls-19" d="M735.56,779.79s26.69-2.5,73.07-2.11,65.73-.67,65.73-.67-127.17-1.67-138.8,2.78Z"/><path class="cls-11" d="M848.92,735.52s-9.19,8-11.95,16.29-2.42,12-2.42,12a70.38,70.38,0,0,1,12.73,2.32c6.64,1.89,19.24,3.8,25.9,4.39s126.48,10.5,152.88,20.6,65.32,15.9,68.9,40.48,3.47,22.48-4.25,46.18c0,0,29.8-13,22.54-76.37s-125.4-73.81-125.4-73.81L851.93,737Z"/><path class="cls-11" d="M1050.54,516.34,1078,656.17l-12,192.3,67.2,6.32L1157.77,683a81.25,81.25,0,0,0,.56-19c-3.58-40.37-25.29-183-30.79-209.63-10.26-50-38.8-65.7-38.8-65.7Z"/><path class="cls-20" d="M1033.42,460.45a54.86,54.86,0,0,1-.39-10.17,64.2,64.2,0,0,1,35.1-54.18,56.13,56.13,0,0,1,9.41-3.84,13.09,13.09,0,0,1,3.55-.76c.11.35-5,1.73-12.42,5.88a66.87,66.87,0,0,0-34.21,53c-.82,8.46.17,13.69-.22,13.73A13.06,13.06,0,0,1,1033.42,460.45Z"/><path class="cls-20" d="M1036.08,473.45c3.79,30.21,36.46,143.47,42.34,190.28l-1.09,36.13c-1.35,52.1-10.47,112.83-11.49,148.71l.51,0,.33,0,.2,0c.06-.86,0-1.21.11-2.07,1.15-35.68,10.33-95.6,11.94-146.79.37-12.4.85-24.52,1-36.14-6.13-46.86-39-160.11-43-190.34Z"/><path class="cls-8" d="M1060,954.13a3.08,3.08,0,0,0,1.39-.94s.5,10.42,13.64.58c0,0,13,1.49,18.4-6.26,0,0,15.33-4,20.35-9.08s12.06-53.55,12.06-53.55l-2.51-31.53-46.15-4.86-.46,3.16s-15.75,10.66-21,17.43a81,81,0,0,0-9.43,18.32L1041.93,908c10.07,4.87,20-17.67,21.29-17.45a9.32,9.32,0,0,1,7.7,10.68c-1.15,10-2.41,21.45-2.33,23.15s-8.54,12-15.1,19.54C1049.54,948.43,1054.09,956.11,1060,954.13Z"/><path class="cls-9" d="M1085.14,913.49a50.88,50.88,0,0,1-4.36,19.42,44.81,44.81,0,0,1-13.32,14.45,39,39,0,0,0-6.53,5.27,27.24,27.24,0,0,0,7.46-4,39.76,39.76,0,0,0,14.4-14.68,44.71,44.71,0,0,0,3.9-20.29,28.83,28.83,0,0,0-.76-8.58A38.21,38.21,0,0,0,1085.14,913.49Z"/><path class="cls-9" d="M1096.89,917.18a80.44,80.44,0,0,1-1.14,8.18,25.69,25.69,0,0,1-3.36,9.29,51.52,51.52,0,0,1-6.57,7.42c-2.25,2.18-4.23,4.18-5.86,5.9a26.52,26.52,0,0,0-5,5.88,26.59,26.59,0,0,0,6.09-4.72l6.18-5.55a45.47,45.47,0,0,0,7-7.67,26,26,0,0,0,3.35-10.08,57.9,57.9,0,0,0,.67-8.52,16.21,16.21,0,0,0-1.14-7.82A62.52,62.52,0,0,1,1096.89,917.18Z"/><path class="cls-9" d="M1108.39,921.15c-.83,3.37-2,8-3,13.21a6.63,6.63,0,0,1-1.52,2.88,33.09,33.09,0,0,1-2.23,2.64,55.35,55.35,0,0,1-4.21,4c-2.53,2.21-4.3,3.31-4.19,3.58s2.24-.36,5.15-2.33a31.15,31.15,0,0,0,4.72-3.93,26.36,26.36,0,0,0,2.47-2.7,8.48,8.48,0,0,0,2-3.79c2.15-10.26,3.37-18.92,2.47-19A25,25,0,0,0,1108.39,921.15Z"/><path class="cls-9" d="M857.52,233.92s14.45,6.57,2.62,15.31C860.14,249.23,865.1,242.23,857.52,233.92Z"/><path class="cls-9" d="M876.13,244.64c-13.86-4.92-1.94-15.41-1.94-15.41s-2.17,7.09-1,9.67S876.13,244.64,876.13,244.64Z"/><path class="cls-10" d="M384,622.2l8.22-35.66,1.26-.62c.84-1.36,2.36-4.08,4.49-3.75,9.76,1.52,17.92-2.44,24.44-8.72,6.35-6.11,12.36-12.57,18.93-18.47,7.52-6.77,15.84-12.72,25-16.17-1-6.36-1.9-12.79-2.64-19.12-6-25.77-9-54.84-16.23-80.27-3.16-11.12-6.85-23.37-12.75-34a123.31,123.31,0,0,0-18.48-17.24l-49.42-25.78-24.22-10.66-61.12-33L238,333.1s-60.39,14.23-72.78,22.39c-15.17,9.95-12.83,211.26-12.83,211.26S145.13,645.29,92,722.17c-.35.5-1.87,4.14-2.1,4.72-.69,1.82,10.49,10.47,12,11.54,4.57,3.31,12.45,4.6,17.65,6.78,10.59,4.44,19.67,4.14,30.86,6.43A465.58,465.58,0,0,0,196.46,759c14.43,1.46,29.63-.4,43.85,1.83l161.77-20L389.54,689A202.83,202.83,0,0,1,384,622.2Z"/><path class="cls-21" d="M182.16,427.83c-.35-.08.59-4,.71-9.77a59.58,59.58,0,0,0-4.14-22.82,64.14,64.14,0,0,0-6-11.3,58.38,58.38,0,0,0-6.76-8c-4.28-4.16-7.53-6.11-7.35-6.4s.94.2,2.4,1.16a17.91,17.91,0,0,1,2.61,1.69,30.88,30.88,0,0,1,3.23,2.6,48.59,48.59,0,0,1,7.26,8,57.88,57.88,0,0,1,6.37,11.63,53.84,53.84,0,0,1,3.73,23.59,41.46,41.46,0,0,1-1.14,7.18A8.27,8.27,0,0,1,182.16,427.83Z"/><path class="cls-21" d="M418,470.14s3.55,45.37,1.28,64.18c-2.13,17.62-24.74,48.9-27.6,52.8.61.23-.69,3-.23,3.48l1.86-2.65s10.88-10.1,22.34-33.69C428.54,527.82,418,470.14,418,470.14Z"/><path class="cls-8" d="M272.73,251.3s.95,45-14.32,73.76c-2.13,4-30.76,12.21-30.76,12.21l34.53,17.67c16.75,6.09,45.47,13.41,70.16,12.7,10.79-.31,25.92,1.29,34.52-5.22h0s-18.82-8.64-19.28-14,8.33-49.09,8.33-49.09"/><path class="cls-9" d="M349.42,334s-9.27-6.79-15.33-9.36-16.87-3.56-42.64-32.38c0,0,4.57,32,40.71,43.3,0,0,10.07,3.57,16.55,2.84Z"/><path class="cls-8" d="M405.28,149l.35.37a5.34,5.34,0,0,1-.28-.72Zm15,6.5c.19.27.39.53.61.8l.07-.29S420.33,155.13,420.25,155.47ZM287.83,291c11.49,18.09,31,38.76,54.31,42.73,8.36,1.42,17.28-1.21,24.13-5.37,10.4-6.32,21.32-12.7,29.79-20.93,8.12-7.9,12-13,17-23.18,5.16-10.48,5.75-13.41,6.87-24.73a114.18,114.18,0,0,1,3.08-17.29c1.57-5.39,8.59-26.47,11.74-39s-5.6-35-5.6-35c0-3.59-1.34-6.39-2.6-9.54l-1.49-.32a1.49,1.49,0,0,1,.44,1.53,12,12,0,0,1-4.68-3.59v0c-2.46.54-4.47-1-6-3.1-.08.35.14,1.11.52,1.19a7.68,7.68,0,0,1-5.52-3.36c-.07.35.15,1.11.08,1.45a14,14,0,0,1-4.34-3.16c.24.52,8.94,1.06,8.89,1.29-2.31-.15.09,1.16-1.4-1L411.55,148c-1.94-.06-2.12,1.08-3.31-.62.3.43-.2-4-.28-3.65-2.23-.49-1.59-.5-3.23-1.94-.08.34-6.58.89-6.66,1.23-1.86-.41-1.74,1.41-2.94-.28.3.42,1.67-1.14,2-.72-2.31-.15-3.46,1.11-4.95-1,.29.42-6.55-5.37-6.55-5.37-2.31-.15-2.09.64-3.65-1.14.59.85-10.18-2.89-10-2.13-1.86-.41,2.06,7.61.8,6.26-.08.34-4.07-2-4.07-2-1.94-.06.49,2.26-.71.57-.07.34.08,1.45.45,1.53-2.46.53-4.92-.72-6.86-2.58.6.85.82,1.62,1.12,2-1.87-.41-3.43-.39-5-2.17-.08.34.44,1.53.82,1.61a7.53,7.53,0,0,1-5.82-2c-.07.34.52,1.19.82,1.61a5.4,5.4,0,0,1-4.32-1.66l.82,1.61c-1.49-.32-2.76.12-4.85-1.06-.07.34.6.85.52,1.19a13.73,13.73,0,0,1-3.65-1.16c-.08.35.89,1.27.52,1.19-1.49-.32-2.76.12-4.47-1,.29.43.52,1.19.82,1.62-1.5-.33-3.06-.31-4.4-1.33a2.61,2.61,0,0,0,.44,1.54c-1.49-.33-2.76.11-4.47-1-.07.34.52,1.19.82,1.61-1.49-.33-3.06-.31-4.47-1-.08.34.59.85.89,1.27-1.49-.33-3.06-.31-4.77-1.4-.15.68.14,1.11.07,1.45-1.12-.25-1.79-.75-2.91-1l-2,.28c-6.72,5.7-11.36,28.7-11.36,28.7-13.58,6.71-22.17,24.54-23.23,31.12s-6,20.2-6,20.2c-1.33-2.8-4.31-8.83-4.83-11.81-.59-2.64.83-5.56.23-8.19-2.15-6.21-10-6.14-14.83-3.61l-.93,1c-7.4,6.49-6.41,31.89-3.74,39.95-1.92,14.82,9.23,25.23,18.7,16.29l.79,6.11"/><path class="cls-22" d="M429,181.94c-4.68-21.9-25.43-38-71.3-54.07S271.19,121,271.19,121c36.69-62.71,104.68-45.51,119.94-42.17s74.57,82.51,43,130.4l-2.43,5S429.82,185.93,429,181.94Z"/><path class="cls-22" d="M262.15,104.32s3.6-43.53,37.58-51c45.4-9.93,103.5-6,114.16,41.87Z"/><path class="cls-23" d="M243.94,207.86c-2.67-4.19.39-13.78-1.69-18.28-10.91-23.61-1.69-42.36,6.75-52.86,3.67-4.57,2.05-14.35,3.28-18.79,6.43-23.29,9.3-23.42,49.63-39.94,32.82-13.45,63.54-5.8,81.23-.93,28.32,7.8,40.56,12.36,46.13,34.87.73,2.94-1.15,4.77-.75,8.2.56,4.85,5.87,10.35,5.79,16.33,0,0-38.34,3.29-73.61,13.43S255,213.75,252.94,234C252.88,234.66,246.88,212.49,243.94,207.86Z"/><path class="cls-22" d="M238.06,159.74S306.73,104.86,366,117.22c0,0-73.52-26.44-119,20.84l-1.27,2a53.11,53.11,0,0,0-7.08,17.24Z"/><path class="cls-22" d="M429.16,121.08l-3.68-2.38a106.1,106.1,0,0,0-27.65-12.62l-16.38-4.77s41.7,1.75,48.42,13.87Z"/><path class="cls-24" d="M266.83,246.29c-4.2-.43-8.66,1.86-9.7,6.18a7.61,7.61,0,0,0,1,5.84,6.73,6.73,0,0,0,2.66,2.27,8.92,8.92,0,0,0,7.62.29c.22-.08.62-.3.44-.58s-.86-.05-1.05,0A6.89,6.89,0,0,1,260.51,249a6.34,6.34,0,0,1,5.32-1.88,1.53,1.53,0,0,0,1.13-.3c.22-.2.23-.46-.13-.5Z"/><path class="cls-25" d="M289.06,192.4l-9.27,32.84L271.31,208S284,196.8,289.06,192.4Z"/><path class="cls-26" d="M271.77,221.92c-2.22-.46-5-.21-5.12,2.6-.1,2.46,1,4.85.72,7.32-.1.79-.66,2.38-1.52,2.43-1.38.08-2.54-2.54-2.93-3.5a14.48,14.48,0,0,1-.62-9.23c.76-2.78,2.23-7.11,5.47-7.76,1-.21.71-1.3-.29-1.1-3.33.68-5.15,4.09-6.19,7a15.8,15.8,0,0,0-.76,8.85c.48,2.39,2.46,8.14,6,6.69,2.78-1.13,2.69-4.36,2.3-6.83a16.83,16.83,0,0,1-.52-4.28c.17-1.64,1.64-1.3,2.92-1,.79.17,1.62-.93.56-1.16Z"/><path class="cls-22" d="M272.14,172.82s-25.74,17.1-29.23,25.34l-.66-8.58A44.62,44.62,0,0,1,272.14,172.82Z"/><path class="cls-13" d="M371.14,270.61a10.88,10.88,0,0,1-9.57-2.74c-.53-.51-2.66-.59-1.91.13,3.16,3.05,9.13,4.58,13.08,3.51.39-.11.39-.39,0-.63a2.36,2.36,0,0,0-1.58-.27"/><path class="cls-13" d="M358.63,267a17.51,17.51,0,0,0-5.66-2.79,1.35,1.35,0,0,0-1,.09c-.21.11-.3.31-.1.49a6.73,6.73,0,0,0,3.12,1.47,1.27,1.27,0,0,0,1.1-.17c.25-.24-.05-.49-.33-.55a5.28,5.28,0,0,1-2.51-1.19l-1.08.58a15.8,15.8,0,0,1,5.06,2.52,1.33,1.33,0,0,0,1.12.12c.25-.08.55-.34.25-.57"/><path class="cls-13" d="M350.37,265.41c-2.4-.59-5-2.26-5.81-4.33-1.19-3.12,1.43-7.09,4.83-8.17.37-.12.25-.4-.07-.54a2,2,0,0,0-1.35,0c-3,.94-5.45,4.13-5.61,6.78-.16,2.47,1.79,4.65,4.53,6a14.16,14.16,0,0,0,2.6,1c.36.08,1.05.12,1.29-.13s-.07-.44-.41-.53"/><path class="cls-13" d="M375.84,270.36a.32.32,0,0,1,.4-.39,2.94,2.94,0,0,0,2-.2l.47.92a8.6,8.6,0,0,0-4.08.51.68.68,0,0,1-.75-.29c-.13-.16-.23-.5,0-.6"/><path class="cls-13" d="M373.93,270.31a9.6,9.6,0,0,1,4.56-.56.82.82,0,0,1,.59.43.35.35,0,0,1-.12.49"/><path class="cls-13" d="M380.79,271.78a5,5,0,0,0,4.83-2,7.21,7.21,0,0,0-.19-8.14.29.29,0,0,1,.23-.48,1,1,0,0,1,.78.45,8.09,8.09,0,0,1,1.13,7.12,5.69,5.69,0,0,1-4.67,4,5.9,5.9,0,0,1-1.83,0c-.24,0-.64-.24-.7-.55s.19-.4.42-.36"/><path class="cls-25" d="M412.91,230.06c2.31-.62,4.78.84,5.87,2.34a5.88,5.88,0,0,1,.78,2.79,5.5,5.5,0,0,1-2.35,4.62,5.11,5.11,0,0,1-6-.25,5.67,5.67,0,0,1-1.32-7,5.05,5.05,0,0,1,3-2.47"/><path class="cls-25" d="M390.05,231.6s11.81-5.72,17.07-5.11c7.68.9,16,7.1,17.87,11.41,0,0-10.89-8.92-16.32-9.39C403.48,228.05,390.05,231.6,390.05,231.6Z"/><path class="cls-25" d="M350,216.64c-1.83-1.52-5.22-2-6.84-1a5.32,5.32,0,0,0-2.11,2.1,5.51,5.51,0,0,0,.2,5.18,5.13,5.13,0,0,0,5.53,2.27,5.68,5.68,0,0,0,4.13-5.84c0-.43.55-1.13-.93-2.36"/><path class="cls-25" d="M357.75,223.47s-9.79-9.73-15.35-11.12c-8.12-2-18.91.62-22.41,4,0,0,14.4-4.23,20.07-2.65C345.49,215.16,357.75,223.47,357.75,223.47Z"/><path class="cls-25" d="M425.9,230.72a3.07,3.07,0,0,1,.31-.53c.41-.48.82-1,1.21-1.46a4.73,4.73,0,0,1,.74-1,.42.42,0,0,0,0-.06,7.2,7.2,0,0,1,.2-1.63,15.37,15.37,0,0,0-.42-2.1,21.43,21.43,0,0,0-3.93-7.06c-2-2.5-8.68-8.09-18.77-13.78l-2.76,3.79-2.09,2.89c3.8,1.55,6.94,3,9.27,4.22,4.93,2.49,7.44,3.78,9.67,6.08a30.1,30.1,0,0,1,4.48,6.12,19.15,19.15,0,0,1,1.88,3.88C425.78,230.28,425.84,230.5,425.9,230.72Z"/><path class="cls-25" d="M363,194.45l-.21,4.69c0,1.19-.11,2.38-.17,3.56-4.61-1.18-8.57-2-11.56-2.53-6.33-1.15-9.56-1.72-13.28-1.33a40.06,40.06,0,0,0-8.54,2,23.78,23.78,0,0,0-4.53,1.85c-3.2,1.81-4.57,3.95-5.07,3.74s.38-2.08.47-2.28a18.81,18.81,0,0,1,7-7.65,27.15,27.15,0,0,1,8.72-3.05c3.68-.65,13.82-.85,27.2,1"/><path class="cls-9" d="M374.74,195.34s9.89,12.35-4.45,15.57a12.54,12.54,0,0,0,4.28-9.33"/><path class="cls-9" d="M390,198.91s-12.66,9.49.43,16.18A12.51,12.51,0,0,1,388.65,205"/><path class="cls-25" d="M378.49,145.13s12.94,17.07,41.25,18c0,0-20.28-20-27.6-22.1Z"/><polyline class="cls-8" points="85.99 681.77 182.51 805.18 209.98 783.42 144.88 638.01"/><path class="cls-8" d="M262.67,855.65c3.68-.13,5.55-.12,7.65-3.47.83-1.31.75-3.14,1-4.93L253.5,808.54c7.18-.33,15.24,15.63,22.23,13.92s1.35-7.46.61-9.05-18.55-23.52-18.55-23.52-21.43-13.23-27.15-15.07-22.5-4.65-22.5-4.65l-11.58-3.91s-22.74,4.33-35.87,11c-.95.48,15.59,20,19.15,28.59s14,26.84,14,26.84,25.37,19.62,29.65,20.5,12.28-2.52,12.28-2.52a46.58,46.58,0,0,1,9,4c11.86,4,12.34-2.45,12.34-2.45l2.68,1.91C260,854.4,262.48,855.43,262.67,855.65Z"/><path class="cls-9" d="M255.21,813.09a101.72,101.72,0,0,1-7.45-12.18A57.26,57.26,0,0,1,241,788.23,60.5,60.5,0,0,1,249.31,800,40.56,40.56,0,0,1,255.21,813.09Z"/><path class="cls-9" d="M231.94,816.53c.42-.39,6.61,6.92,12.71,16.81,3.1,4.93,5.79,9.47,7.76,12.72a27.92,27.92,0,0,1,3.06,5.4,17.8,17.8,0,0,1-4.1-4.72c-2.27-3.07-5.14-7.5-8.24-12.42C237,824.43,231.61,816.8,231.94,816.53Z"/><path class="cls-9" d="M216.94,823.55c.46-.22,3.8,6.34,9,13.74s10.15,12.86,9.95,13.17a44,44,0,0,1-11.25-12.22A44.47,44.47,0,0,1,216.94,823.55Z"/><polygon class="cls-8" points="327.89 365.98 319.37 442.34 315.34 362.79 327.89 365.98"/><path class="cls-20" d="M826.29,479.88a18,18,0,0,0,.21,3.88c.27,2.75.64,6.29,1.07,10.52,1,8.91,2.44,21.17,4.11,34.7s3.41,25.8,4.53,34.66l5.15,36.16a21.36,21.36,0,0,0,.73,3.81,18,18,0,0,0-.21-3.88c-.27-2.75-4.25-32-4.68-36.23-1-8.88-2.44-21.14-4.11-34.7s-3.41-25.8-4.53-34.63c-.59-4.21-1.13-7.74-1.51-10.47A19.73,19.73,0,0,0,826.29,479.88Z"/><path class="cls-17" d="M704.27,839a147.78,147.78,0,0,1,31.44.57,88.41,88.41,0,0,1-3.8-15.58q2.77-3,5.84-6.21a199.34,199.34,0,0,1,30.11,14,247.1,247.1,0,0,1,32.37,21.88,227.27,227.27,0,0,1,27.82,26.15q3.63,4.06,7,8.36l-1,.24c32.9,45,26,138,41.13,224.42,13.29,75.85,14.88,85.35,24.85,125.22-9.52,20.08-111.37,21.49-111.37,21.49C759.8,1143.76,704.27,839,704.27,839Z"/><path class="cls-18" d="M788.74,1259.57C762.34,1144.08,698.13,839,698.13,839l-4.59.38,91.93,420.22Z"/><path class="cls-10" d="M165.23,355.49s-42,8.88-58.93,44S43.4,539.63,50.43,608.78c2.49,24.52,39.47,96.75,39.47,96.75l76-46.59L137.1,584.36s27.13-67.37,34.4-97S165.23,355.49,165.23,355.49Z"/><path class="cls-21" d="M151.26,542.53a4.44,4.44,0,0,1,1.38,2.16A708.52,708.52,0,0,0,181,450.23S165.38,503.13,151.26,542.53Z"/><path class="cls-8" d="M647.32,501.39l-10.6-23.51s-23-3.62-33-12.45A99.55,99.55,0,0,1,586.11,443L563,423.31s-15.07-3-14.35-7.52,6.7-4.87,12.5-5.17S643.79,432,643.79,432a134.52,134.52,0,0,0-13-20c-7.64-9.63-3.79-16.83,2.77-19.31s17,12.81,17.42,19.84,16,13.45,22.3,24.21,2.12,27.27,2.12,27.27c1.89,4.56,7.63,15.8,7.63,15.8C682.57,480.62,647.32,501.39,647.32,501.39Z"/><path class="cls-9" d="M579,428.83a8.25,8.25,0,0,1,5.06-2.12c4.8-.37,10.9,2,16.26,6A52.64,52.64,0,0,1,611.66,445a23.07,23.07,0,0,1,3.44,5.91,27.8,27.8,0,0,1-4.51-5.13,68.32,68.32,0,0,0-11.44-11.68c-5.07-3.82-10.84-6.15-15-6.1a8.48,8.48,0,0,0-4.65,1.39c-1,.65-1.39,1.12-1.49,1.14S578.08,429.79,579,428.83Z"/><path class="cls-9" d="M615.35,437c6.13,2,10.95,4,10.76,4.42s-5.3-.76-11.4-2.75-10.92-3.95-10.73-4.42S609.23,435.06,615.35,437Z"/><path class="cls-9" d="M631.58,445.41c-5.35,2.75-8.13,6.62-8.61,6.51s1.89-4.94,7.73-8S642.11,441.5,642,442C642,442.48,636.93,442.66,631.58,445.41Z"/><path class="cls-18" d="M854.78,941s-7-27.5-21.8-42.25c0,0,21.93,17.87,27.26,42.45Z"/><path class="cls-11" d="M766.55,554.87l-82.4-88.39S669,499.76,639.69,499.57c0,0,65.64,161.75,134.79,153.84Z"/><path class="cls-20" d="M759,547.08s10.43,9.86,4.69,28.1C763.66,575.18,774.14,553.69,759,547.08Z"/><line class="cls-27" x1="344.92" y1="527.53" x2="344.81" y2="529.22"/><path class="cls-21" d="M144.83,605.35a5.75,5.75,0,0,1-1.16,2.25l21.13,51.18-9.2,6.13,1.79,2.09L168,659.36Z"/><path class="cls-28" d="M358.1,285.43c-11.44-2.84-29.65-8.77-29.65-8.77s-2.15,23.47,24.38,30,35.59-15.19,35.59-15.19S369.55,288.26,358.1,285.43Z"/><path class="cls-29" d="M358.21,285.45c-5.44-1.34-27.14-7.69-27.14-7.69s4.28,13.8,24,18.67c21.33,5.29,30.53-5,30.53-5Z"/><path class="cls-30" d="M358.25,286.33C352.81,285,336.48,280,336.48,280s4.49,7.43,20.81,11.47,22.93-.45,22.93-.45Z"/><path class="cls-28" d="M390,290.14c-.55-.29-4,0-6.62-.92-4.4-1.51-6.93-3.39-10.13-4.45-5.46-1.8-9.54-.48-12-1.08s-5.41-3.67-11.09-4.63c-3.32-.55-11.69-1.37-16.29-2.1-2.76-.43-5.67-2.27-6.28-2.27-.85,0-.75,6.28,29.69,13.81S390.79,290.53,390,290.14Z"/><path class="cls-28" d="M887.87,318.67c10.67-3,27.6-9.16,27.6-9.16s2.74,22-22,29-33.92-13.19-33.92-13.19S877.21,321.68,887.87,318.67Z"/><path class="cls-29" d="M887.77,318.69c5.07-1.43,25.27-8.06,25.27-8.06s-3.6,13.1-21.94,18.28c-19.89,5.63-28.85-3.75-28.85-3.75Z"/><path class="cls-30" d="M887.76,319.52c5.07-1.44,20.26-6.66,20.26-6.66s-4,7.12-19.2,11.42-21.57.28-21.57.28Z"/><path class="cls-28" d="M858,324.07c.51-.28,3.73-.14,6.19-1.06,4.1-1.55,6.41-3.4,9.39-4.49,5.08-1.87,8.95-.75,11.21-1.39s5-3.62,10.28-4.69c3.11-.62,10.95-1.65,15.25-2.47,2.58-.5,5.26-2.31,5.83-2.33.8,0,.9,5.87-27.47,13.89S857.31,324.47,858,324.07Z"/><path class="cls-31" d="M135.2,583.18s-31.55-1-45.3,15.56C89.9,598.74,109.26,570.14,135.2,583.18Z"/><path class="cls-32" d="M485.28,559.73S463,573.58,460.5,590.62C460.5,590.62,461.69,563.23,485.28,559.73Z"/></g></g></svg>