<svg xmlns="http://www.w3.org/2000/svg" xmlns:xlink="http://www.w3.org/1999/xlink" viewBox="0 0 1221.96 991.43"><defs><style>.cls-1,.cls-12{fill:none;}.cls-2{clip-path:url(#clip-path);}.cls-3{fill:#f2ebd1;}.cls-4{fill:#956243;}.cls-5{fill:#dc9b34;}.cls-6{fill:#82a8b3;}.cls-7{fill:#a56530;}.cls-8{fill:#8c542a;}.cls-9{fill:#684135;}.cls-10{fill:#151210;}.cls-11{fill:#010101;}.cls-12{stroke:#010101;stroke-width:1.31px;}.cls-12,.cls-18,.cls-23,.cls-31,.cls-32{stroke-miterlimit:10;}.cls-13{fill:#513835;}.cls-14{fill:#745245;}.cls-15{fill:#555656;}.cls-16{fill:#3a3a3a;}.cls-17{fill:#465b65;}.cls-18{fill:#526e75;stroke:#526e75;}.cls-18,.cls-23{stroke-width:1.46px;}.cls-19{fill:#31160e;}.cls-20{fill:#fff;}.cls-21{fill:#653c29;}.cls-22{fill:#b25226;}.cls-23,.cls-31,.cls-32{fill:#8c3d1e;stroke:#8c3d1e;}.cls-24{fill:#893a1d;}.cls-25{fill:#47728e;}.cls-26{fill:#38607f;}.cls-27{fill:#ce8d2a;}.cls-28{fill:#13110f;}.cls-29{fill:#231f20;}.cls-30{fill:#24180f;}.cls-31{stroke-width:0.82px;}.cls-32{stroke-width:0.66px;}</style><clipPath id="clip-path"><rect class="cls-1" x="-0.01" y="-5.2" width="1221.97" height="996.64"/></clipPath></defs><g id="Layer_2" data-name="Layer 2"><g class="cls-2"><polyline class="cls-3" points="1617.21 1395.88 1617.21 -53.9 -169.66 -53.9 -169.66 1395.88"/><path class="cls-4" d="M544.62,597.15,441.46,585.86s-16.83,48.57-10.66,55.65,117.86-9,117.86-9Z"/><path class="cls-5" d="M494.78,585.86l-49.41-11.39L427,485.89l-76.32,60.9S375.11,612.2,400.09,635c5.11,4.66,65.48,13.85,91.36,14.62C494.43,631.22,489,611.21,494.78,585.86Z"/><path class="cls-6" d="M913.73,378.59c-12.42,3.94-25.16,13.46-36.73,30.69l-46.1,76.26c.12.24-22.13,37.55-22.26,37.81-16.51,31.93,3.1,14.3,4.7,37.43,1.08,15.53,3.32,38.25.07,53.85,41.36,3.73,72.62-61.76,83.63-80.22l1,8.1c4.63-17.85,8.54-35.88,11.84-54,7-38.53,23-76.2,27.32-115.12Z"/><path class="cls-7" d="M1023.67,886.15c49.81,0,99.62-6,149.43-6.21,10.81-.05,20.76,2.21,21.6,11.85,2.17,24.83,5.23,51.67-32.24,49-2.86-.2-5.81.31-8.61-.08-13-1.82-15.06,3.58-13.34,13.11,5.56,30.86,10.66,54.46,15.76,85.38,12,72.72,24.12,145.44,35.76,218.2,3.21,20.07,2.53,19.89-22.46,19.51-7.72-.12-11-2.11-12-8.77-11.49-71.57-23.42-143.08-34.81-214.66-1.33-8.35-4.43-11.61-15.09-11.52q-83.33.69-166.67,0c-10.94-.09-14.68,2.7-16.14,11.94q-16.12,101.94-33.5,203.74c-3.36,19.93-3.86,19.44-28.12,19.14-9.71-.12-10.83-3-9.6-10.23,17.95-106.41,35.5-205.54,53.49-311.94,1.85-10.9-1-16.12-15-14.22-4.67.64-9.56.11-14.35.1-21.26,0-25.44-11.07-25.47-29.86,0-20.44,3.87-30.4,24.88-30.41q73.27,0,146.56,0Zm81.54,131.64c10.76.24,13-3,11.46-11.3-4.37-24-8.3-30.83-12-54.94-1.22-8-4.24-11.5-15.15-11.33-44,.68-88,.6-132,0-10.06-.12-13.16,3.07-14.33,10.62-3.86,24.91-7.93,32.51-12.4,57.34-1.44,8,2.35,9.6,10.85,9.5,27.74-.35,55.48-.13,83.23-.13C1051.64,1017.59,1078.44,1017.19,1105.21,1017.79Z"/><path class="cls-8" d="M1156.17,1039.32q2.77,16.83,5.56,33.67c-11.63,2.29-23.2,5-34.75,7.8q-2.18-13.61-4.37-27.19c-1.33-8.36-4.43-11.62-15.09-11.53q-83.32.71-166.67,0c-10.94-.09-14.68,2.71-16.14,11.94-1.39,8.8-2.82,17.59-4.22,26.38a313.08,313.08,0,0,1-32.63-13.91c6.34-36.77,12.71-73.79,19.12-111.75.61-3.58.7-6.54.06-8.84q11.4.76,22.81,1.19c4.67.18,9.34.31,14,.42a22.08,22.08,0,0,0-.8,3.48c-3.86,24.91-7.92,32.51-12.39,57.35-1.45,8,2.34,9.6,10.84,9.49,27.74-.34,55.48-.13,83.23-.13,26.79,0,53.59-.4,80.36.2,10.76.24,13-3,11.46-11.29-4.37-24-8.3-30.83-12-54.94-.49-3.2-1.28-5.67-2.74-7.48,13.2-.41,26.39-.73,39.59-.89-1.8,2.32-1.86,6-1,10.64C1146,984.8,1151.06,1008.4,1156.17,1039.32Z"/><path class="cls-8" d="M1195.14,896.85s-163.41,25.38-232,16.49-110.55-12.5-107.77-23.15,51.34-33.51,100.23-35.12,182.93,10.71,182.93,10.71,42.82,9.93,49.71,14.16C1198.92,886.5,1195.14,896.85,1195.14,896.85Z"/><path class="cls-4" d="M1046.08,288.33s-.88,48.13,7.38,64.9c2,4.06,30.34,22,30.34,22l-71.59,41.18-74.27-16s26-29.12,26.93-34.39-3.81-40.51-3.81-40.51"/><path class="cls-9" d="M940.74,326.46c3.68,4.5,7.12,9.21,11,13.55a.88.88,0,0,1,.12.2.63.63,0,0,1,.94,0c2.71,2.92,7.5,4.14,9.94,7.28,2.11,2.72,1.33,6.71,1.85,10.18,2.54.15,6-.37,9.18-.47,21.3-2.41,21.46-5.15,48.18-25.23,8.48-6.37,6-13,7.64-14.49C1000.26,319.55,971.33,323.51,940.74,326.46Z"/><path class="cls-10" d="M1065.57,243.39s2.86-13.5,4.77-45.29c1.72-28.46-44.67-47.34-71.7-48.92-14.86-.87-63.21,10.08-75.28,17.28s-17,25-16.11,49.71c0,0,5.36-25.15,21-26.1C941,189.3,981.3,179,992.47,182.5s35.74,10.84,40.54,49.28c1.3,10.47,18.87-2.42,24.61,3.41S1065.57,243.39,1065.57,243.39Z"/><path class="cls-4" d="M1048.81,290.51l.49-38.29L1047,209.66l-19.77-30.5-31.6-11.65L961.5,172s-26.75,9.5-35.18,12.65S912.85,199,908.15,211.36s-.23,31.79-.23,31.79c-.18.7.87,3.62,1.07,4.23,2.49,7.72,3.71,14.56,5.7,20.3a14.44,14.44,0,0,1,.6,8c-2.29,10.61-1.79,15-.34,21.21,2,8.47,4.3,15.62,8.13,22.06,4.07,6.83,9,14.15,10.06,15.57,0,0,11,15.11,13.22,16.48a17.68,17.68,0,0,0,6.85,2.55c1.45,0,20.4-.66,20.4-.66l8.73-1.09a22.71,22.71,0,0,0,8.43-2.81c7-4,27.06-16,32.41-20.57,7.19-6.21,14.13-29.71,14.13-29.71"/><path class="cls-10" d="M1036.83,254.78c.17,3.29,1.61,16.28,1.57,19.51l16.89-2.1c3.92-11.75,8.66-25.59,10.28-28.8,2.54-5,.62-27.84-.09-36.44l-.16-1.85c-.67-8.25-9.9-20.48-24.7-32.73-16.28-13.49-43.27-19.29-68.76-14.77-2.42.42-4.83.94-7.15,1.54-22,5.63-39.31,18.71-51.58,38.86-8.85,14.53-7.92,30-6.08,39.25a83.37,83.37,0,0,1,4-32.84c4.82-13.22,12.27-17.65,17.66-19a18.56,18.56,0,0,1,9.18-.1c5.55.65,13.4-.93,19-2.37,4.19-1.08,7.5-2.17,8.4-2.47,2.67-2.3,6.82-4.22,12-5.56,12.11-3.1,30.16-2.81,34.4,2.22,4.71,5.57,16.14,26,16.73,31"/><path class="cls-4" d="M1047.29,291.52c11,9,15.38-11.12,15.38-11.12,8.17-12.59,6.71-24.8,5.37-33.11s-10.51-7.09-10.51-7.09c-7.7,1.78-10.68,6.38-14.07,33.46"/><path class="cls-10" d="M912.61,195c4.65-9.8,14.4-22.53,19.7-32,3-.63,17.77-2.66,20.87-3.15,31.62-4.93,76.37,8.47,81.78,19.56,3.37,6.91,6.15,46.37,5.18,50.09-2.67,10.23-2.71,23.24-2.71,23.24-3-14.58-15.4-29.78-17.3-34.68s2.1-29.63.35-30.45-31.76-6.38-64.11-2.17A244.18,244.18,0,0,0,929,190.71C929,190.6,912.56,195.07,912.61,195Z"/><path class="cls-10" d="M980.56,248.57a5.12,5.12,0,0,1,5.6.3,5,5,0,0,1,1.76,2.11,5.11,5.11,0,0,1-.62,4.75,4.72,4.72,0,0,1-5.27,1.61,5.22,5.22,0,0,1-3.31-5.71,4.68,4.68,0,0,1,1.84-3.06"/><path class="cls-10" d="M925.67,256.81a5.09,5.09,0,0,0-5.36,1.67,5,5,0,0,0-1.19,2.47,5.11,5.11,0,0,0,1.77,4.45,4.72,4.72,0,0,0,5.51.27,5.24,5.24,0,0,0,1.8-6.35,4.68,4.68,0,0,0-2.53-2.51"/><path class="cls-10" d="M942.59,262.53s-8.78-6.83-14.56-6.64c-8.43.27-10.34,2.42-12.81,6.61,0,0,5-4.67,10.9-4.71C931.8,257.76,942.59,262.53,942.59,262.53Z"/><path class="cls-10" d="M968.58,256.74s10.91-8.65,16.64-9.42c8.37-1.11,18.89,2.76,22,6.48,0,0-14-5.86-19.82-4.91C981.81,249.79,968.58,256.74,968.58,256.74Z"/><path class="cls-10" d="M967.85,222.9l-.87,6c-.22,1.52-.83,5-1,6.48,5-.56,9.68-1.83,12.89-1.91,6.36-.16,12.94-.76,19.08,1.14a21.48,21.48,0,0,1,7.74,4c.72.6,2.54,3,3.8,2.65.52-.15.09-2.71,0-3-.89-5.16-4.83-7.84-9.83-9.78-10.21-4-20.87-5.28-31.81-5.53"/><path class="cls-10" d="M908.35,245.43l2.36-2.51c6.52-7,14.54-11.81,23.22-15.73l3.24,5.09c.82,1.3,2.37,3.58,3.18,4.88-4.28,1.19-8.2,1.87-10.81,2.88-5.19,2-10.68,4.05-14.81,7.83-.33.3-2.07,1.95-2.37,2.26C909.39,248.73,907.94,246.21,908.35,245.43Z"/><path class="cls-11" d="M951.19,294.68a9.36,9.36,0,0,0,8.58-1.64c.5-.41,2.36-.31,1.66.28-3,2.47-8.34,3.33-11.7,2-.34-.13-.31-.38.06-.57a2.07,2.07,0,0,1,1.4-.1"/><path class="cls-11" d="M962.4,292.47a15.29,15.29,0,0,1,5.16-2,1.25,1.25,0,0,1,.85.16c.18.13.23.31,0,.46a5.8,5.8,0,0,1-2.84,1.05,1.12,1.12,0,0,1-.94-.25c-.2-.23.08-.44.33-.46a4.58,4.58,0,0,0,2.29-.86l.89.61a13.7,13.7,0,0,0-4.61,1.83,1.11,1.11,0,0,1-1,0c-.21-.09-.45-.34-.18-.52"/><path class="cls-11" d="M969.74,291.79c2.15-.32,4.56-1.6,5.41-3.39,1.29-2.7-.69-6.46-3.58-7.72-.31-.14-.19-.39.1-.49a1.76,1.76,0,0,1,1.18.1,7.76,7.76,0,0,1,4.38,6.54c-.05,2.24-1.92,4-4.42,5a11.46,11.46,0,0,1-2.35.63c-.32.05-.92,0-1.11-.22s.09-.4.39-.44"/><path class="cls-11" d="M947.1,294.05a.28.28,0,0,0-.32-.38,2.54,2.54,0,0,1-1.74-.35l-.48.78a7.57,7.57,0,0,1,3.53.81.59.59,0,0,0,.67-.19c.13-.14.24-.43,0-.55"/><path class="cls-11" d="M948.78,294.17a8.34,8.34,0,0,0-3.95-.89.69.69,0,0,0-.54.33.31.31,0,0,0,.06.45"/><path class="cls-11" d="M942.67,294.91a4.44,4.44,0,0,1-4.07-2.21,6.64,6.64,0,0,1,.79-7.29.27.27,0,0,0-.16-.45.83.83,0,0,0-.72.34,7.4,7.4,0,0,0-1.53,6.3,5.11,5.11,0,0,0,3.78,4,5.33,5.33,0,0,0,1.59.14c.21,0,.58-.17.65-.44s-.13-.37-.33-.35"/><path class="cls-12" d="M1051,265.92c5.77-17.6,10.89-18.16,10.89-18.16s3.79,3.64,2.75,11.67"/><path class="cls-12" d="M1053.73,267.24c4.56-.85,1.76,8,3.21,9.95s2.66-3.6,2.68-10.12c0,0-.75-8.75-5.23-10"/><path class="cls-4" d="M979.24,356.92l87.17,6.34,4.38,24.13s-24,16.79-26.37,17.46-56.14,6.4-56.14,6.4-57.17-25.8-56.38-25.57S979.24,356.92,979.24,356.92Z"/><g id="freepik--Character--inject-2"><path class="cls-6" d="M894.22,432.51l11.61-49.06a121.34,121.34,0,0,1,32.11-10.62c10.94-2,14.87-3.88,21.36-5-2.62,7.6-1.47,14.88,3.7,19.77a49.2,49.2,0,0,0,27,12.7c9.76,1.35,19.9.4,29.49-1.58,17.93-3.72,40.21-19.88,46.5-36.95l14.4,3.91s55.62,28.12,63.58,32.26-39.78,207.85-39.78,207.85l16.52,77.41c.84,8.54,25,76-2.83,119,0,0-182.22-51.47-201.67-54-22.6-2.88-34-7.15-38.43-17.91-1.61-3.9-9-21.37,6.14-84.69,7.37-30.74,2.5-66.26,3.84-100.06C890.1,485.54,894.22,432.51,894.22,432.51Z"/><path class="cls-6" d="M887.87,572.46c-.38,0,0-5.65-.39-5.62-.06-26.63-1.1-57.08-.94-81.09.09-8.73.16-15.83.32-20.69a66.59,66.59,0,0,1,.37-7.62,57,57,0,0,1,.48,7.62c-.12,5.29.06,12.13.28,20.73.09,8.16-.23,76.74-.12,87.36C887.65,573.07,888.1,572.44,887.87,572.46Z"/></g><path class="cls-13" d="M983.27,520.77a.44.44,0,0,0-.2,0c-.07.25-.21.5,0,.77Z"/><path class="cls-14" d="M924.65,503l.28,0-.24-.18A.14.14,0,0,0,924.65,503Z"/><path class="cls-14" d="M962.29,514.4l-.22-.22-.1.13Z"/><path class="cls-14" d="M925.47,503.21l.35.1A.24.24,0,0,0,925.47,503.21Z"/><path class="cls-14" d="M982.44,520.54a.18.18,0,0,0-.29-.09Z"/><path class="cls-15" d="M676.28,843.49c18.85,70.82,52.12,243.8,78.56,329.69,0,0,90.18,9.55,97.18-11.14,0,0-18.08-176.19-.8-286.46,15.23-97.11,67.88-134.52,44.52-139.72-36.77-8.2-177.1-8.43-196.9,7.84C675.08,763.23,661.43,787.71,676.28,843.49Z"/><path class="cls-15" d="M751.3,881.58c-1.28-5.48-2.83-10.89-4.57-16.2A239.37,239.37,0,0,0,732,830.6a249.51,249.51,0,0,0-20.19-32.81,207.27,207.27,0,0,0-16.55-20c106.28-33.82,333.47-40.09,333.47-40.09s86.11,14,72.61,89.66C1083.47,927.52,838,899.77,752.5,881.85Z"/><path class="cls-15" d="M722,801.19s-12-47.8,25.89-55.32c39.5-7.82,270.22-7.72,270.22-7.72L722,801.19"/><path class="cls-16" d="M720.55,800.83S707.44,759.26,755.11,743c0,0-50,7.59-38.93,58.17Z"/><path class="cls-17" d="M756.22,744.36s25.45-2.39,69.65-2,62.66-.64,62.66-.64-121.22-1.59-132.31,2.65Z"/><path class="cls-6" d="M875.29,705.8s-8.72,7.7-11.32,15.58-2.26,11.43-2.26,11.43A66.9,66.9,0,0,1,873.85,735c6.34,1.77,18.36,3.54,24.71,4.08s93.52,4.54,118.71,14.06,89.41,19.83,92.93,43.25,3.4,21.41-3.86,44c0,0,28.35-12.53,21.16-72.88s-119.82-69.83-119.82-69.83l-129.51,9.49Z"/><path class="cls-6" d="M1094,514.51l11,135.39-32,180.84,63,13.21,41.68-160A77.32,77.32,0,0,0,1180.2,666c1-38.62-4.27-176-6.6-201.84-4.34-48.44-29.67-66.41-29.67-66.41Z"/><path class="cls-18" d="M1083.81,459.74a52.24,52.24,0,0,1,.72-9.67,61.2,61.2,0,0,1,39.07-47.54,54.11,54.11,0,0,1,9.33-2.62,12.45,12.45,0,0,1,3.44-.34c.07.34-4.95,1.1-12.39,4.23a63.8,63.8,0,0,0-38.11,46.51c-1.68,7.92-1.31,13-1.68,13A12.48,12.48,0,0,1,1083.81,459.74Z"/><path class="cls-18" d="M1084.92,472.34c.34,29,19.1,139.79,19.63,184.76l-4.92,34.11c-6.88,49.19-22.06,105.72-26.88,139.6l.48.09.3.08.19,0c.14-.81.18-1.14.33-1.95,4.92-33.66,20.06-89.43,27.1-137.74,1.69-11.7,3.44-23.13,4.89-34.11-.78-45-19.77-155.84-20.25-184.89Z"/><path class="cls-4" d="M1055.82,930.14a2.84,2.84,0,0,0,1.41-.74s-.64,9.92,12.86,2c0,0,12.12,2.81,18.1-3.95,0,0,15-2.12,20.25-6.41s17.18-49.42,17.18-49.42l1-30.13L1083.46,832l-.78,2.93s-16.06,8.41-21.8,14.25a76.83,76.83,0,0,0-10.9,16.34l-6.28,19.08c9,5.7,20.81-14.58,22-14.24a8.88,8.88,0,0,1,6.14,11c-2.16,9.35-4.59,20-4.69,21.67s-9.38,10.43-16.4,16.88C1046.57,923.63,1050,931.39,1055.82,930.14Z"/><path class="cls-9" d="M1084,894.36a48.23,48.23,0,0,1-6.22,17.92,42.73,42.73,0,0,1-14.17,12.26,37.37,37.37,0,0,0-6.75,4.28,25.77,25.77,0,0,0,7.49-3,37.86,37.86,0,0,0,15.22-12.35,42.69,42.69,0,0,0,5.88-18.8,27.5,27.5,0,0,0,.2-8.2A35.82,35.82,0,0,0,1084,894.36Z"/><path class="cls-9" d="M1094.77,899.12a74.22,74.22,0,0,1-2,7.63,24.36,24.36,0,0,1-4.18,8.44,47.87,47.87,0,0,1-7,6.31c-2.36,1.82-4.45,3.51-6.17,5a25.15,25.15,0,0,0-5.37,5,25.34,25.34,0,0,0,6.28-3.81l6.45-4.59a43.67,43.67,0,0,0,7.46-6.52,24.78,24.78,0,0,0,4.25-9.18,53.06,53.06,0,0,0,1.55-8,15.36,15.36,0,0,0-.23-7.53A58.29,58.29,0,0,1,1094.77,899.12Z"/><path class="cls-9" d="M1105.23,904.12c-1.14,3.1-2.73,7.32-4.28,12.18a6.43,6.43,0,0,1-1.76,2.57,32.05,32.05,0,0,1-2.4,2.26,50,50,0,0,1-4.42,3.37c-2.63,1.83-4.42,2.67-4.35,2.94s2.16-.1,5.13-1.65a29.87,29.87,0,0,0,4.89-3.21,26.2,26.2,0,0,0,2.64-2.3,8,8,0,0,0,2.29-3.37c3.14-9.49,5.23-17.55,4.39-17.76A24.25,24.25,0,0,0,1105.23,904.12Z"/><path class="cls-9" d="M941.59,226.28s13,7.78.84,14.78C942.43,241.06,947.88,235,941.59,226.28Z"/><path class="cls-9" d="M958.06,238.43c-12.59-6.15-.18-14.8-.18-14.8s-2.82,6.48-2,9.05S958.06,238.43,958.06,238.43Z"/><path class="cls-19" d="M958.28,305.46c8.32-.91,27.23,1.85,31.26,4.49,0,0-8.83,7.25-28.14,9.38s-23.19-3.73-23.19-3.73S947.67,306.63,958.28,305.46Z"/><path class="cls-20" d="M981.1,306.71s-10,.76-17.83,2-17.6,3.45-17.6,3.45-2.1-5.35,12.15-7.52S981.1,306.71,981.1,306.71Z"/><path class="cls-21" d="M961.31,317c8.81-2.58,17.53-7.12,28.11-8.11,0,0-1.22,11.79-23.8,15.23s-27.25-7.44-27.25-7.44C948.76,314.45,952.13,317.14,961.31,317Z"/><path class="cls-21" d="M947.53,303c4.69-1.05,8,.19,10-.13s4.81-2.47,9.6-2.86c4.49-.37,24.85,7,23,8.65s-17.62-3.65-31.89-1.47-18.25,10.48-20.55,9.47S943.13,304,947.53,303Z"/><path class="cls-7" d="M198.37,879.38q72.6,0,145.21,0c20.81,0,24.67,10.1,24.64,30.8,0,19-4.16,30.19-25.23,30.23-4.74,0-9.59.55-14.21-.09-13.94-1.93-16.74,3.35-14.91,14.39,17.82,107.74,35.22,208.11,53,315.85,1.21,7.34.11,10.25-9.52,10.37-24,.3-24.52.79-27.86-19.39q-17-103.1-33.18-206.3c-1.45-9.35-5.15-12.18-16-12.08q-82.56.69-165.13,0c-10.56-.09-13.63,3.21-15,11.67-11.28,72.48-23.1,144.89-34.48,217.35-1.06,6.75-4.28,8.76-11.92,8.88-24.77.39-25.44.57-22.26-19.75C43.11,1187.63,55.1,1114,67,1040.38c5.06-31.32,10.11-55.21,15.62-86.46,1.71-9.65-.29-15.12-13.21-13.28-2.78.4-5.7-.12-8.53.09-37.13,2.69-34.1-24.49-31.95-49.63.84-9.76,10.69-12.05,21.4-12,49.35.25,98.7,6.29,148,6.29Zm-1.16,139.1c27.49,0,55-.22,82.46.13,8.41.11,12.17-1.48,10.74-9.61-4.43-25.15-8.45-32.85-12.28-58.07-1.16-7.64-4.23-10.88-14.2-10.75-43.59.57-87.21.65-130.79,0-10.81-.17-13.8,3.38-15,11.47-3.65,24.42-7.55,31.3-11.88,55.63-1.5,8.43.69,11.68,11.36,11.44C144.12,1018.08,170.67,1018.48,197.21,1018.48Z"/><path class="cls-8" d="M67.11,1040.48q-2.76,17-5.51,34.09c11.52,2.32,23,5,34.42,7.9q2.17-13.77,4.33-27.53c1.32-8.46,4.39-11.76,15-11.67q82.56.7,165.13,0c10.84-.09,14.54,2.74,16,12.09q2.07,13.35,4.18,26.71A307.16,307.16,0,0,0,332.93,1068c-6.29-37.22-12.59-74.72-18.95-113.15-.6-3.63-.69-6.62-.06-9q-11.3.76-22.6,1.2-6.93.27-13.87.43a23.88,23.88,0,0,1,.79,3.52c3.82,25.23,7.85,32.92,12.28,58.07,1.43,8.14-2.33,9.72-10.75,9.62-27.48-.35-55-.14-82.45-.14-26.54,0-53.09-.4-79.61.2-10.67.25-12.86-3-11.36-11.43,4.33-24.33,8.22-31.22,11.88-55.63.49-3.24,1.27-5.74,2.71-7.57-13.07-.41-26.14-.74-39.22-.9,1.78,2.35,1.84,6.06,1,10.77C77.22,985.27,72.17,1009.17,67.11,1040.48Z"/><path class="cls-8" d="M28.5,896.23s133.45,15.41,216,13.27c68.54-1.78,123.42-9.24,120.66-20s-50.86-33.93-99.3-35.56S84.59,864.77,84.59,864.77s-47.81,10.32-52.48,17A22.39,22.39,0,0,0,28.5,896.23Z"/><path class="cls-22" d="M118.41,653.08S45.37,766,90.18,850.85c21.35,40.41,85.23,40.37,85.23,40.37l65.53-82.4V672.54Z"/><path class="cls-5" d="M441.46,585.86c3.52-19.32-13.68-33-8.71-52-7.41-15.09-4.23-38.5-7.94-58.51-7.36-24.12-12.08-51.57-20.6-75.29-3.72-10.37-8-21.78-14.31-31.49a117.49,117.49,0,0,0-18.68-15.2l-48.66-21.34-23.72-8.58L238.59,296l-40.45,16.47s-56.51,17.43-67.77,26c-13.79,10.43,1.4,201.72,1.4,201.72s-1.87,75.16-47.42,151.69c-.3.5-1.51,4.06-1.69,4.62-.54,1.77,10.64,9.28,12.12,10.21,4.56,2.85,12.13,3.57,17.22,5.31,10.35,3.54,19,2.67,29.76,4.13a440.67,440.67,0,0,0,44.27,4c13.82.46,28.15-2.28,41.82-1.08l153.53-8.82-16.24-69.12A193.22,193.22,0,0,1,355.59,578l5.52-34.44L373,568.5c2.78,7.86,12.61,25,22.15,38.43q.76,1.14,1.62,2.22c.72,1,1.45,1.91,2.19,2.83,0-.11,0-.21,0-.31,5.52,5.71,27.13,12,36.38.84C441.87,601,439.44,596.94,441.46,585.86Z"/><path class="cls-23" d="M151.12,406.14c-.34,0,.31-3.79,0-9.33a56.49,56.49,0,0,0-5.41-21.43A61.35,61.35,0,0,0,139.3,365a55.57,55.57,0,0,0-6.94-7.2c-4.34-3.69-7.56-5.33-7.4-5.62s.9.13,2.35.95a18.19,18.19,0,0,1,2.59,1.44,28,28,0,0,1,3.24,2.26,46.29,46.29,0,0,1,7.42,7.12,54.39,54.39,0,0,1,6.8,10.65,51.31,51.31,0,0,1,5.07,22.19,39,39,0,0,1-.62,6.91A7.36,7.36,0,0,1,151.12,406.14Z"/><path class="cls-23" d="M378.17,431.21s6.29,42.91,5.34,61c-.89,16.89-20.38,48.09-22.85,52a4.16,4.16,0,0,1,1.61.85v-.17s9.69-10.31,19.07-33.47C391.86,485.38,378.17,431.21,378.17,431.21Z"/><path class="cls-22" d="M564.94,800.83c-3.3,99.25-11.32,251.37-27.08,352.68,0,0-97.31,25.57-108.62,3.36,0,0-8.49-177.37-46.09-299C350,750.7,149.05,742.53,174.56,732.82c40.17-15.29,297.93-48.65,347.72-30.71C555.28,714,567.14,735,564.94,800.83Z"/><path class="cls-22" d="M497,842.37c.54-6.39,1.4-12.75,2.5-19a271.77,271.77,0,0,1,10.9-41.69,284.71,284.71,0,0,1,17.4-40.35A237.65,237.65,0,0,1,543.15,716c-125.53-20.74-383.06,9.45-383.06,9.45s-94.9,30-67.26,113.13c36.64,110.21,309.25,38.59,402.8,4.34C496.08,842.71,496.51,842.54,497,842.37Z"/><path class="cls-22" d="M514.8,719.71s-14.31.36-33.75,5.53a96,96,0,0,0,1.65-17.35q-3.46-2.85-7.26-5.78a217.49,217.49,0,0,0-30.2,19.78,268.41,268.41,0,0,0-31.41,28.61A245.12,245.12,0,0,0,388,783c-2.19,3.29-33.52,6.66-35.52,10.09.36,0,.06,19.76.42,19.79-28.37,53.6,16.2,132.91,13.42,228.25-2.44,83.69-2.66,69.66-7.16,114.12,13.39,20.12,117.35,10.7,117.35,10.7C489.52,1036.79,514.8,719.71,514.8,719.71Z"/><path class="cls-24" d="M460.62,712.06s45-5.89,55.28,12.53,5,43.8,5,43.8,4.65-42.54-16.8-49.81S460.62,712.06,460.62,712.06Z"/><path class="cls-4" d="M225.89,232.45s3.8,42.74-8.86,71.06c-1.77,3.94-28.47,13.59-28.47,13.59l34,14.58c16.31,4.71,44.1,9.83,67.53,7.57,10.24-1,24.73-.45,32.49-7.19h0s-18.45-7-19.23-12,4.76-47.23,4.76-47.23"/><path class="cls-9" d="M304.15,306.19s-9.25-5.87-15.18-7.92-16.27-2.3-42.63-28c0,0,6.4,30.12,41.5,38.56,0,0,9.8,2.74,15.91,1.64Z"/><path class="cls-4" d="M345.36,126.6c.11.11.24.21.36.33a4.9,4.9,0,0,1-.31-.66ZM360,131.82c.19.24.41.48.63.71l0-.27S360.07,131.49,360,131.82ZM242.81,269.25c12.09,16.46,31.95,34.87,54.4,37.14,8,.82,16.35-2.26,22.6-6.66,9.49-6.68,19.46-13.44,27-21.82,7.22-8,10.62-13.18,14.71-23.14,4.24-10.3,4.61-13.12,4.95-24a107.67,107.67,0,0,1,1.82-16.64c1.14-5.23,6.46-25.73,8.65-37.89s-7.59-32.95-7.59-32.95c-.22-3.41-1.68-6-3.08-8.9l-1.44-.22a1.44,1.44,0,0,1,.52,1.43,11.42,11.42,0,0,1-4.68-3.12v.06c-2.3.67-4.31-.65-5.87-2.56,0,.33.21,1,.58,1.09a7.3,7.3,0,0,1-5.47-2.84c-.05.33.22,1.05.17,1.38a13.58,13.58,0,0,1-4.33-2.73c.27.48,8.57.43,8.54.66-2.21,0,.15,1.09-1.4-.83l-1.6-1.49c-1.85.06-1.94,1.16-3.18-.38.31.38-.45-3.78-.5-3.45-2.16-.33-1.55-.38-3.2-1.64-.05.33-6.2,1.27-6.25,1.6-1.8-.27-1.57,1.45-2.82-.08.32.38,1.51-1.19,1.82-.81-2.21,0-3.23,1.27-4.78-.65.31.39-6.57-4.68-6.57-4.68-2.21,0-1.94.74-3.55-.85.63.77-9.87-2.1-9.61-1.38-1.79-.27,2.46,7.1,1.17,5.9-.05.33-4-1.61-4-1.61-1.85.06.6,2.12-.64.58-.05.33.16,1.37.52,1.43-2.3.67-4.72-.37-6.68-2,.62.77.88,1.48,1.19,1.86-1.8-.26-3.29-.15-4.89-1.74-.05.33.52,1.43.88,1.48a7.18,7.18,0,0,1-5.65-1.51c0,.33.57,1.09.88,1.48a5.17,5.17,0,0,1-4.22-1.31l.88,1.48c-1.44-.21-2.61.29-4.67-.69,0,.33.62.76.57,1.1a13.86,13.86,0,0,1-3.55-.87c-.05.33.93,1.15.57,1.1-1.44-.22-2.62.28-4.31-.65.3.39.57,1.1.88,1.48-1.44-.21-2.93-.1-4.27-1a2.47,2.47,0,0,0,.52,1.43c-1.44-.22-2.61.28-4.31-.65-.05.33.57,1.1.88,1.48a18.56,18.56,0,0,1-4.32-.64c-.05.33.62.77.93,1.15-1.44-.21-2.92-.1-4.63-1-.09.66.22,1,.17,1.38-1.08-.16-1.75-.6-2.83-.76l-1.9.39c-6,5.85-9,28-9,28-12.48,7.25-19.5,24.76-20.08,31.09s-4.4,19.59-4.4,19.59c-1.45-2.57-4.67-8.12-5.35-10.92-.74-2.47.43-5.34-.31-7.81-2.45-5.76-9.89-5.19-14.34-2.47l-.82,1c-6.62,6.65-4,30.74-1,38.23-.88,14.22,10.39,23.41,18.83,14.29l1.14,5.76"/><path class="cls-25" d="M370,156.43c-5.86-20.53-26.64-34.52-71.29-46.84s-82.69-1-82.69-1c30.86-62,96.62-50,111.36-47.82S403.62,134.46,376.71,182l-2,4.92S371.08,160.17,370,156.43Z"/><path class="cls-25" d="M206.38,93.34s.62-41.62,32.46-50.89c42.53-12.37,98-12.36,111.25,32.47Z"/><path class="cls-26" d="M195.72,193c-2.8-3.81-.51-13.12-2.78-17.27C181,154,188.61,135.53,196,125c3.2-4.59,1-13.78,1.9-18.09,4.63-22.55,7.34-22.86,44.63-41.17,30.35-14.9,60.06-9.6,77.19-6.11,27.44,5.6,39.37,9.14,46.12,30.19.88,2.75-.79,4.61-.19,7.85.84,4.58,6.24,9.46,6.56,15.15,0,0-36.26,5.6-69.14,17.51S206.6,197.88,206,217.29C206,217.9,198.82,197.2,195.72,193Z"/><path class="cls-25" d="M187,147.6S248.8,91,306,98.94c0,0-71.62-20.41-111.86,27.48l-1.08,2a50.65,50.65,0,0,0-5.63,16.85Z"/><path class="cls-25" d="M366.28,98.54l-3.65-2A100.55,100.55,0,0,0,335.52,86.3l-15.88-3.49s39.76-1,46.93,10.08Z"/><path class="cls-27" d="M219.82,228.08c-3.92-.14-7.9,2.26-8.67,6.28a7.3,7.3,0,0,0,1.16,5.43,6.39,6.39,0,0,0,2.82,2.2,8.66,8.66,0,0,0,7.44-.23c.24-.11.43-.36.16-.53s-.82,0-1.08.16a6.18,6.18,0,0,1-5.42-.15,6,6,0,0,1-2.2-1.62,6.89,6.89,0,0,1,.34-8.84,6.1,6.1,0,0,1,4.83-1.91c.29,0,.87-.12,1-.4s-.14-.38-.4-.39Z"/><path class="cls-28" d="M237.63,175.37l-6.7,31.84-9.18-15.86S233.07,179.89,237.63,175.37Z"/><path class="cls-29" d="M223.13,204.59c-2.15-.3-4.83.06-4.75,2.77.08,2.37,1.34,4.6,1.15,7-.06.74-.49,2.35-1.47,2.33-1.18,0-2.29-2.09-2.73-2.95a13.69,13.69,0,0,1-1.28-8.8c.54-2.68,1.64-7,4.68-7.85.94-.26.67-1.3-.28-1-3.14.85-4.62,4.12-5.45,7a14.91,14.91,0,0,0-.23,8.35c.6,2.27,2.65,7.41,5.9,6.3,2.8-1,2.58-4.31,2.06-6.61a18.05,18.05,0,0,1-.8-4.09c0-1.62,1.36-1.47,2.67-1.29.75.1,1.56-1,.53-1.1Z"/><path class="cls-25" d="M220.28,157.85s-23.38,17.91-26.16,26l-1.18-8.11A42.51,42.51,0,0,1,220.28,157.85Z"/><path class="cls-11" d="M320.73,244.47a10.39,10.39,0,0,1-9.28-2c-.54-.46-2.57-.4-1.82.24,3.21,2.7,9,3.77,12.67,2.5.37-.13.35-.4-.06-.6a2.3,2.3,0,0,0-1.51-.16"/><path class="cls-11" d="M308.6,241.8a17,17,0,0,0-5.57-2.29,1.33,1.33,0,0,0-.92.14c-.19.13-.26.32-.06.48a6.44,6.44,0,0,0,3.07,1.2,1.2,1.2,0,0,0,1-.24c.22-.24-.08-.46-.35-.5a5,5,0,0,1-2.47-1l-1,.62a15.23,15.23,0,0,1,5,2.07,1.22,1.22,0,0,0,1.07,0c.23-.09.5-.35.21-.55"/><path class="cls-11" d="M300.64,240.87c-2.32-.41-4.92-1.83-5.8-3.75-1.34-2.89.89-6.83,4.06-8.08.34-.13.21-.4-.1-.51a2,2,0,0,0-1.29.07,8.17,8.17,0,0,0-4.9,6.81c0,2.36,2,4.31,4.7,5.39a12.73,12.73,0,0,0,2.53.75c.35.06,1,0,1.22-.2s-.09-.43-.42-.48"/><path class="cls-11" d="M325.18,243.93a.3.3,0,0,1,.35-.39,2.78,2.78,0,0,0,1.9-.32l.51.84a8.31,8.31,0,0,0-3.85.75.65.65,0,0,1-.73-.22c-.13-.15-.25-.47,0-.58"/><path class="cls-11" d="M323.36,244a9.08,9.08,0,0,1,4.3-.83.8.8,0,0,1,.59.37.34.34,0,0,1-.09.48"/><path class="cls-11" d="M330,245a4.82,4.82,0,0,0,4.46-2.21,6.89,6.89,0,0,0-.7-7.73.28.28,0,0,1,.18-.47.93.93,0,0,1,.78.38,7.68,7.68,0,0,1,1.52,6.7,5.41,5.41,0,0,1-4.18,4.07,5.67,5.67,0,0,1-1.74.11c-.23,0-.63-.2-.7-.49s.16-.38.38-.36"/><path class="cls-28" d="M356.38,203.23a5.67,5.67,0,0,1,5.73,1.84,5.59,5.59,0,0,1,.92,2.6,5.28,5.28,0,0,1-1.93,4.55,4.88,4.88,0,0,1-5.7.14,5.4,5.4,0,0,1-1.7-6.6,4.79,4.79,0,0,1,2.68-2.53"/><path class="cls-28" d="M334.73,206.16s10.87-6.2,15.91-6c7.36.36,15.7,5.72,17.73,9.7,0,0-10.93-7.78-16.13-7.88C347.28,201.92,334.73,206.16,334.73,206.16Z"/><path class="cls-28" d="M295.66,194.51c-1.84-1.33-5.09-1.52-6.57-.56a5.07,5.07,0,0,0-1.87,2.13,5.25,5.25,0,0,0,.52,4.92,4.89,4.89,0,0,0,5.4,1.8,5.4,5.4,0,0,0,3.55-5.82c-.05-.41.46-1.1-1-2.18"/><path class="cls-28" d="M303.49,200.5s-9.94-8.61-15.31-9.58c-7.85-1.4-17.94,1.81-21.05,5.19,0,0,13.41-4.94,18.91-3.8C291.3,193.39,303.49,200.5,303.49,200.5Z"/><path class="cls-28" d="M370.23,203a4.2,4.2,0,0,1,.26-.52c.36-.48.72-1,1.06-1.46a4.34,4.34,0,0,1,.64-1,.15.15,0,0,1,0-.06,7.41,7.41,0,0,1,.09-1.57,13.77,13.77,0,0,0-.54-2,20.41,20.41,0,0,0-4.19-6.47c-2.1-2.24-8.78-7.12-18.73-11.89-.8,1.25-1.59,2.52-2.39,3.78l-1.8,2.89c3.72,1.22,6.8,2.44,9.09,3.41,4.85,2.05,7.31,3.12,9.59,5.16a28.71,28.71,0,0,1,4.65,5.53,18.29,18.29,0,0,1,2,3.57C370.09,202.6,370.16,202.81,370.23,203Z"/><path class="cls-28" d="M306.61,172.57c0,1.49.07,3,.11,4.47l.06,3.4c-4.46-.82-8.28-1.33-11.16-1.66-6.09-.69-9.2-1-12.71-.41a38.47,38.47,0,0,0-8,2.41,23.24,23.24,0,0,0-4.18,2.05c-2.93,1.93-4.09,4-4.59,3.88s.23-2,.3-2.19a18.06,18.06,0,0,1,6.14-7.73,25.86,25.86,0,0,1,8.1-3.45c3.46-.87,13.08-1.7,25.93-.77"/><path class="cls-9" d="M319.3,172.67s10.2,11.1-3.23,15.08a11.9,11.9,0,0,0,3.47-9.15"/><path class="cls-9" d="M334.08,175.07s-11.42,9.84,1.45,15.36a11.9,11.9,0,0,1-2.38-9.49"/><path class="cls-30" d="M311.65,257.93c-8.83-1.05-29,2-33.3,4.93,0,0,9.26,8.16,29.75,10.6s24.71-4.11,24.71-4.11S322.91,259.27,311.65,257.93Z"/><path class="cls-20" d="M287.13,260.08s10.61.41,19,1.4,18.79,3.1,18.79,3.1,2.09-6.08-13.11-7.89S287.13,260.08,287.13,260.08Z"/><path class="cls-21" d="M308.44,270.7c-9.43-2.5-18.82-7.2-30.09-7.84,0,0,1.62,13.14,25.71,16s28.75-9.52,28.75-9.52C321.71,267.32,318.2,270.49,308.44,270.7Z"/><path class="cls-21" d="M322.69,254.42c-5-1-8.45.55-10.65.29s-5.18-2.55-10.28-2.78c-4.78-.22-26.2,8.93-24.14,10.69s18.61-4.86,33.84-3,19.68,10.93,22.1,9.7S327.39,255.33,322.69,254.42Z"/><path class="cls-28" d="M319.64,124.67S333,140.07,360,139.1c0,0-20.57-17.75-27.67-19.24Z"/><polyline class="cls-4" points="76.01 653.83 175.73 764.97 200.46 742.52 129.2 608.42"/><path class="cls-4" d="M255.21,807.82c3.5-.37,5.28-.48,7.06-3.8.7-1.29.51-3,.66-4.75l-19.47-35.66c6.81-.78,15.5,13.88,22,11.8s.8-7.18,0-8.64-19.16-21.18-19.16-21.18-21.23-11.2-26.79-12.58-21.69-3-21.69-3l-11.27-3s-21.34,5.58-33.4,12.79c-.87.52,16.12,18,20.05,25.95s15,24.63,15,24.63,25.39,17,29.51,17.59,11.53-3.19,11.53-3.19a43.8,43.8,0,0,1,8.84,3.26c11.54,3,11.58-3.13,11.58-3.13l2.67,1.64C252.61,806.8,255,807.62,255.21,807.82Z"/><path class="cls-9" d="M245.38,767.82a95.64,95.64,0,0,1-7.86-11.11,53.58,53.58,0,0,1-7.21-11.62,57.43,57.43,0,0,1,8.62,10.66A38.74,38.74,0,0,1,245.38,767.82Z"/><path class="cls-9" d="M223.47,772.59c.38-.39,6.73,6.16,13.17,15.17,3.27,4.48,6.12,8.63,8.21,11.59a27.37,27.37,0,0,1,3.25,4.94,17.05,17.05,0,0,1-4.21-4.22c-2.35-2.78-5.36-6.8-8.63-11.28C228.82,779.77,223.18,772.87,223.47,772.59Z"/><path class="cls-9" d="M209.66,780.23c.43-.24,4,5.78,9.41,12.49s10.47,11.57,10.31,11.89a41.85,41.85,0,0,1-11.49-10.9A42.38,42.38,0,0,1,209.66,780.23Z"/><polygon class="cls-4" points="282.82 338.45 279.63 411.61 270.69 336.22 282.82 338.45"/><path class="cls-18" d="M885.55,455.85a17.1,17.1,0,0,0-.22,3.71c0,2.63-.07,6-.12,10.07,0,8.54,0,20.31.16,33.31s.45,24.79.56,33.3l1,34.8a19.92,19.92,0,0,0,.28,3.7,17,17,0,0,0,.22-3.7c0-2.63-.59-30.74-.53-34.82,0-8.51,0-20.28-.17-33.31s-.44-24.79-.56-33.28c-.11-4.05-.23-7.45-.3-10.08A19.13,19.13,0,0,0,885.55,455.85Z"/><path class="cls-15" d="M726.39,800.83a140.79,140.79,0,0,1,30,.54,84.79,84.79,0,0,1-3.63-14.85c1.77-1.93,3.63-3.91,5.57-5.92A188.92,188.92,0,0,1,787,794a236.16,236.16,0,0,1,30.85,20.85,215.82,215.82,0,0,1,26.52,24.93q3.47,3.87,6.71,8l-.91.23c31.36,42.92,24.77,131.56,39.2,213.91,12.67,72.3,14.18,81.35,23.69,119.35-9.08,19.14-106.16,20.49-106.16,20.49C779.33,1091.28,726.39,800.83,726.39,800.83Z"/><path class="cls-16" d="M806.91,1201.67c-25.16-110.08-86.36-400.84-86.36-400.84l-4.37.36,87.62,400.53Z"/><path class="cls-5" d="M130.37,338.45S91,349.59,77.16,384.07s-48.88,156-37.75,221.31c4,23.16,46.32,67.72,46.32,67.72l63.15-44.85-30.53-70.34s21.46-65.82,26.47-94.43S130.37,338.45,130.37,338.45Z"/><path class="cls-23" d="M129.12,517.21a4.23,4.23,0,0,1,1.45,2,675.84,675.84,0,0,0,20.86-91.65S140,478.84,129.12,517.21Z"/><path class="cls-4" d="M717.27,488.13l-11.5-21.73s-22.06-2.07-32.1-9.87a95.2,95.2,0,0,1-18.13-20.29l-23.17-17.35s-14.52-1.91-14.11-6.29,6.08-5,11.59-5.66,79.9,15.36,79.9,15.36A126.59,126.59,0,0,0,696.21,404c-7.84-8.71-4.61-15.79,1.48-18.54s17,11.16,17.76,17.84,16.07,11.82,22.66,21.69,3.64,25.82,3.64,25.82c2.08,4.22,8.21,14.57,8.21,14.57C749.56,466.27,717.27,488.13,717.27,488.13Z"/><path class="cls-9" d="M647.93,423.19a7.92,7.92,0,0,1,4.69-2.32c4.54-.64,10.49,1.23,15.82,4.72a50,50,0,0,1,11.53,11,21.58,21.58,0,0,1,3.62,5.42,26.7,26.7,0,0,1-4.59-4.61A65,65,0,0,0,667.42,427c-5.06-3.33-10.68-5.2-14.66-4.91a8.1,8.1,0,0,0-4.34,1.6c-.88.68-1.25,1.16-1.35,1.18S647.12,424.16,647.93,423.19Z"/><path class="cls-9" d="M683,428.83c5.94,1.52,10.65,3.12,10.49,3.56s-5.08-.41-11-1.94-10.63-3.11-10.48-3.56S677.07,427.31,683,428.83Z"/><path class="cls-9" d="M698.94,435.82c-4.92,2.93-7.33,6.78-7.8,6.71s1.51-4.82,6.87-8.11,10.71-2.95,10.6-2.52S703.87,432.88,698.94,435.82Z"/><path class="cls-16" d="M869.86,898s-6.7-26.21-20.78-40.28c0,0,20.9,17,26,40.47Z"/><path class="cls-6" d="M833.88,531.87l-83.67-79.15s-12.44,32.57-40.31,34.14c0,0,71.05,151,117.24,125.26Z"/><path class="cls-18" d="M817.8,514.18s11.17,12.38,11.47,34C829.27,548.16,832.63,519.57,817.8,514.18Z"/><path class="cls-4" d="M549.9,597.28s19.87-17.54,31.85-20.17c3.37-.74,30.17-18.08,30.17-18.08s6.92,5.05-2.49,13.87S596,585.11,596,585.11l-1.42,3.58,20.34,7.55s24.49,4.76,30.27,6.44,18.37,4.71,18.61,12.47c0,0,9.46,1.57,9.19,6.13a6.87,6.87,0,0,1-2.54,5.84l-4.65.4s2.29,1.54-.06,5.56-43.35.59-43.35.59l-2.28,1.27s27,6.76,27.24,9.34.82,4.71-3.67,5.28-62.15-4.73-88.15-14.75c-8.21-3.17-10.37-3-10.37-3l-2-34.74Z"/><path class="cls-9" d="M664.26,625.94A131.58,131.58,0,0,1,643.11,624a132.28,132.28,0,0,1-20.89-3.61,130,130,0,0,1,21.12,1.9A132.5,132.5,0,0,1,664.26,625.94Z"/><path class="cls-9" d="M663.7,616c-.12.46-9.16-1.5-20.43-3.18s-20.49-2.54-20.46-3a82.65,82.65,0,0,1,20.71,1.3A80.56,80.56,0,0,1,663.7,616Z"/><path class="cls-9" d="M596,594.78s-3.61,20.5-22.94,29.66C573.09,624.44,602.16,613.91,596,594.78Z"/><path class="cls-23" d="M362.27,544.83l-3.44,19.57-.79-1.66s-.21-14,2.62-18.59Z"/><path class="cls-23" d="M127.63,576.17c-.28.77-.58,1.53-.91,2.29l24.19,48.92-8.36,6.42,1.84,1.86,9.6-7.94Z"/><path class="cls-31" d="M119.29,557.88s-30.07-1-43.17,14.83C76.12,572.71,94.56,545.45,119.29,557.88Z"/><path class="cls-32" d="M445.89,574.88s-21.29,13.19-23.62,29.44C422.27,604.32,423.4,578.21,445.89,574.88Z"/></g></g></svg>