<svg xmlns="http://www.w3.org/2000/svg" viewBox="0 0 1221.96 991.43"><defs><style>.cls-1{fill:#f2ebd1;}.cls-2{fill:#82a8b3;}.cls-3{fill:#526e75;}.cls-4{fill:#956243;}.cls-5{fill:#684135;}.cls-6{fill:#dc9b34;}.cls-7{fill:#151210;}.cls-8{fill:#010101;}.cls-23,.cls-9{fill:none;}.cls-9{stroke:#010101;stroke-width:1.76px;}.cls-12,.cls-18,.cls-23,.cls-9{stroke-miterlimit:10;}.cls-10{fill:#513835;}.cls-11{fill:#745245;}.cls-12{fill:#8c3d1e;stroke:#8c3d1e;}.cls-13{fill:#47728e;}.cls-14{fill:#38607f;}.cls-15{fill:#ce8d2a;}.cls-16{fill:#13110f;}.cls-17{fill:#231f20;}.cls-18{fill:#587c81;stroke:#587c81;}.cls-19{fill:#8e6528;}.cls-20{fill:#653c29;}.cls-21{fill:#31160e;}.cls-22{fill:#f1eef7;}.cls-23{stroke:#684136;stroke-width:2px;}</style></defs><g id="Layer_1" data-name="Layer 1"><polyline class="cls-1" points="1221.94 990.91 1221.94 -0.52 -0.01 -0.52 -0.01 990.91"/></g><g id="Layer_2" data-name="Layer 2"><path class="cls-2" d="M730.62,433.08c-65.35,4.21-72.85,21.79-100.2,43.36l-62.23,42c0,.38-61,30.16-61.31,30.4-42.33,28.78,2,21.85-11.73,51.89-9.19,20.17-6.55,31.77-21.21,49.1,49.26,32.73,132.36-10,158.68-25.64L689,593.29c17.9-19.2,58.21-47.26,74.66-67.74,35-43.48-43.19-36-11.4-81.84Z"/><path class="cls-2" d="M541.59,536.64l-138-58.23S408.55,528,376.68,549c0,0,140.44,138.75,234.45,84Z"/><path class="cls-3" d="M541.59,536.83s11.24,14.95-.11,37.12C541.48,574,559.64,548.64,541.59,536.83Z"/><path class="cls-4" d="M819.73,658.63,679.2,678s-6.12,70,4.42,77.34S836.86,704.1,836.86,704.1Z"/><path class="cls-4" d="M679.71,720.2s26.63-24.56,42.92-28.52c4.58-1.11,40.69-25.6,40.69-25.6s9.6,6.69-3,19-18,17.09-18,17.09l-1.84,4.94,28,9.71s33.62,5.77,41.57,7.9,25.24,5.89,25.81,16.48c0,0,13,1.87,12.74,8.11a9.36,9.36,0,0,1-3.3,8.06l-6.34.68s3.17,2,.09,7.6-59.23,2.1-59.23,2.1l-3.08,1.81s37.09,8.43,37.5,11.95,1.27,6.4-4.85,7.32-85.08-4.61-120.91-17.53c-11.32-4.08-14.27-3.85-14.27-3.85l-3.73-47.41Z"/><path class="cls-5" d="M745,710.45s-1.82,28.39-26.7,43.75C718.3,754.2,756.2,735.51,745,710.45Z"/><path class="cls-6" d="M717.08,647.18l-36.47,18.9-63.23-74.3L543.07,702.64s61.83,67.09,105.35,82.6c32.81,11.7,64.47-15.93,98.52-25.61C743.24,734.45,728.68,680.9,717.08,647.18Z"/><path class="cls-4" d="M885.85,332.29s-8.69,64.25-.26,88c2,5.75,63.3,35.09,63.3,35.09l-112.6,43.92-96.86-33s23.63-35.85,25.67-42.75,1.22-54.79,1.22-54.79"/><path class="cls-5" d="M738.86,371.11c4.23,6.6,8.09,13.44,12.6,19.85a.86.86,0,0,0,1.38.47c3.16,4.32,9.38,6.7,12.16,11.29,2.4,4,.73,9.18.89,13.91,3.37.59,8.09.44,12.35.8,28.87.09,29.5-3.55,68.38-26.24C859,384,856.72,374.7,859.1,373,819.56,371.16,780.24,371.94,738.86,371.11Z"/><path class="cls-7" d="M917.9,279.37s5.92-17.62,13.45-59.85c6.74-37.8-52.38-70.3-88.28-76.62-19.74-3.48-86.13,3.62-103.39,11.37s-26.66,30.78-29.31,64c0,0,11.09-32.81,32.14-31.64,17.17,1,72.71-6.56,87.1-.1s46.12,20.07,46.54,72.24c.11,14.22,25.62-.29,32.39,8.41S917.9,279.37,917.9,279.37Z"/><path class="cls-4" d="M888.12,339.77l6.64-51.13,3.55-57.29-21.69-43.88L836.17,167l-46.35.66s-37.26,8.53-49,11.43S720.54,196.1,712.32,212s-5.27,42.48-5.27,42.48c-.34.91.6,5,.77,5.82,2.13,10.72,2.69,20.06,4.46,28.06a19.64,19.64,0,0,1-.44,10.82c-4.72,13.83-4.75,19.79-3.77,28.32,1.34,11.64,3.31,21.56,7.43,30.77,4.37,9.77,9.9,20.33,11,22.4,0,0,12.38,21.93,15.11,24.11s6.82,4.23,8.76,4.47,27.4,2.3,27.4,2.3l11.85-.1A30.43,30.43,0,0,0,801.36,409c10-4.28,38.69-17.12,46.56-22.46,10.59-7.18,23.55-37.53,23.55-37.53"/><path class="cls-7" d="M877.67,290.12c-.28,4.43-.39,22-.94,26.34l22.92-.18c7.08-15.1,15.58-32.88,18.25-36.91,4.17-6.31,5.17-37.16,5.55-48.76l.09-2.51c.39-11.13-10-28.94-27.94-47.63-19.67-20.58-54.87-32.55-89.67-30.49-3.3.19-6.61.51-9.8,1-30.25,4.11-55.5,18.89-75.06,43.93-14.11,18.06-15.27,38.86-14.26,51.56,1.13-25,10.13-42.57,10.51-43.3,8.52-16.94,19.17-21.7,26.6-22.71a24.85,24.85,0,0,1,12.28,1.31c7.33,1.73,18.09.84,25.85-.21,5.78-.78,10.37-1.73,11.62-2,3.93-2.66,9.78-4.58,17-5.56,16.68-2.26,40.77.95,45.67,8.34,5.42,8.18,17.52,37.28,17.53,44"/><path class="cls-4" d="M885.93,340.89c13.36,13.74,22.31-12.48,22.31-12.48,12.9-15.57,12.85-32.12,12.36-43.45s-13-11.12-13-11.12c-10.57,1.18-15.29,6.87-24,42.57"/><path class="cls-7" d="M720.85,190.72c7.74-12.37,22.77-27.88,31.33-39.71,4.07-.38,24.19-.79,28.41-.95,43.07-1.66,100.83,23.23,106.34,38.91,3.44,9.78,1,63-.88,67.82-5.17,13.27-7.25,30.66-7.25,30.66-1.73-20-15.95-42.24-17.73-49.09s7.43-39.3,5.22-40.67-41.49-13.5-85.42-12.91a328.48,328.48,0,0,0-37.46,2.8C743.49,187.45,720.76,190.86,720.85,190.72Z"/><path class="cls-7" d="M803.32,273.82c2.62-1.39,5.71-.23,7.44,1.28a6.62,6.62,0,0,1,2,3.1,6.84,6.84,0,0,1-1.57,6.25,6.38,6.38,0,0,1-7.3,1.34c-3.23-1.48-4.31-5.34-3.53-8.16a6.3,6.3,0,0,1,2.93-3.81"/><path class="cls-7" d="M728.66,275.48c-2.64-1.34-5.71-.14-7.42,1.4a6.56,6.56,0,0,0-2,3.13,6.85,6.85,0,0,0,1.67,6.22,6.36,6.36,0,0,0,7.32,1.22c3.21-1.52,4.22-5.4,3.4-8.21a6.25,6.25,0,0,0-3-3.76"/><path class="cls-7" d="M750.4,285.78s-11.24-10.5-19.4-11.15c-11.92-.94-15,1.63-19.13,6.85,0,0,7.75-5.48,16.13-4.6C736,277.72,750.4,285.78,750.4,285.78Z"/><path class="cls-7" d="M786.07,282.08s15.95-9.86,23.74-10c11.36-.19,24.83,6.63,28.44,12.1,0,0-17.75-10-25.75-9.67C804.85,274.86,786.07,282.08,786.07,282.08Z"/><path class="cls-7" d="M782.94,245.75q.25,4,.53,8.1c.13,2.06.29,6.77.43,8.82,6.47-2.14,12.24-5.11,16.45-6.11,8.34-2,16.84-4.62,25.45-3.83a28.91,28.91,0,0,1,11.31,3.06c1.11.59,4.19,3.25,5.75,2.42.64-.34-.64-3.59-.78-3.93-2.62-6.55-8.55-9-15.69-10.14-14.55-2.36-29-1.12-43.45,1.61"/><path class="cls-7" d="M707,250.54l4.32-1.68c12-4.74,24.52-5.91,37.35-5.63.33,2.68.65,5.36,1,8.06.25,2.05.81,5.73,1,7.77-5.9-1-11-2.48-14.82-2.77-7.46-.58-15.33-1.28-22.54.92-.57.17-5.85,1.26-4.19,1.37C706.32,255.16,706,251.26,707,250.54Z"/><path class="cls-8" d="M756.89,330.12c3.34,1.75,8.4,1.3,11.73-.85.74-.47,3.22,0,2.18.63-4.4,2.83-11.67,3.16-16,.89-.43-.23-.36-.56.18-.74a2.74,2.74,0,0,1,1.88.07"/><path class="cls-8" d="M772.24,328.91a20.53,20.53,0,0,1,7.22-1.9,1.64,1.64,0,0,1,1.11.35c.21.19.25.45,0,.61a7.75,7.75,0,0,1-4,1,1.51,1.51,0,0,1-1.23-.48c-.23-.35.18-.57.51-.57a6.21,6.21,0,0,0,3.2-.79l1.1,1a18,18,0,0,0-6.45,1.73,1.56,1.56,0,0,1-1.33-.14c-.26-.16-.55-.54-.15-.74"/><path class="cls-8" d="M782.16,329.15c2.92-.1,6.35-1.43,7.77-3.69,2.14-3.41.08-8.75-3.59-10.89-.4-.23-.19-.54.21-.63a2.33,2.33,0,0,1,1.56.32c3.2,1.87,5.29,6.24,4.84,9.43-.42,3-3.2,5.09-6.69,6a15.94,15.94,0,0,1-3.24.48c-.44,0-1.24-.11-1.46-.47s.18-.51.6-.53"/><path class="cls-8" d="M751.53,328.65a.4.4,0,0,0-.38-.57,3.35,3.35,0,0,1-2.27-.74l-.77,1A10,10,0,0,1,752.7,330a.81.81,0,0,0,.94-.15c.19-.17.39-.54.1-.74"/><path class="cls-8" d="M753.74,329.06a11.16,11.16,0,0,0-5.14-1.8.93.93,0,0,0-.78.36.44.44,0,0,0,0,.61"/><path class="cls-8" d="M745.46,329.1a6,6,0,0,1-5.1-3.59,8.92,8.92,0,0,1,2.2-9.62.36.36,0,0,0-.15-.63,1.11,1.11,0,0,0-1,.34,10,10,0,0,0-3,8.18,6.86,6.86,0,0,0,4.43,5.89,6.74,6.74,0,0,0,2.11.44,1,1,0,0,0,.94-.49c.14-.36-.12-.51-.39-.52"/><path class="cls-9" d="M894.83,307.23c10.46-22.66,17.39-22.6,17.39-22.6s4.5,5.46,1.86,16"/><path class="cls-9" d="M898.34,309.42c6.22-.42,1.1,11,2.73,13.81s4.13-4.4,5.17-13.12c0,0,.37-11.82-5.44-14.16"/><path class="cls-4" d="M785.21,418.14l115.62,22.09,28.23,33.91s-34.72,18.72-38,19.25-86.51-.2-86.51-.2-88.18-44.39-87.16-44S785.21,418.14,785.21,418.14Z"/><g id="freepik--Character--inject-2"><path class="cls-2" d="M650.25,518,702,447.16s-7-9.31,19.41-12.57c15.71-1.94,29.4-5,38.72-6-6.53.77-1,23.32,5.2,35.54,5.36,10.5,18.42,14.76,30.13,16.22,20.38,2.54,45.12-.69,63-11.3,4.29-2.55,43.57-41.79,38.56-43.64l27.49,10.19s59.4,55.12,70.39,61.63-20,281.68-20,281.68l17.43,111.38c13.86,100,28.79,108.94-16.9,108.94,0,0-219.65-1.52-249.49-1.52H647.52c-2-5.67-13.2-20.69-1.29-56.3,14.28-42.69,12.94-155.06,14.53-203.2C663,669.19,650.25,518,650.25,518Z"/></g><path class="cls-10" d="M935.77,632.56l-.27,0c-.06.36-.22.72.07,1Z"/><path class="cls-11" d="M853.42,617.51l.37,0-.35-.21A.2.2,0,0,0,853.42,617.51Z"/><path class="cls-11" d="M906.3,627.16l-.34-.26-.12.18Z"/><path class="cls-11" d="M854.55,617.64l.5.08A.33.33,0,0,0,854.55,617.64Z"/><path class="cls-11" d="M934.61,632.39a.27.27,0,0,0-.42-.09Z"/><path class="cls-6" d="M598.49,999.28,559.84,886.65c-11.28-27.09-4.9-130-6.13-159.38h0l2.14-6.2c.91-1.92,8.81-4.11,11.79-4.1,13.65,0,11.27-7,19.15-16.42,7.68-9.15,14.84-18.67,22.84-27.58,9.18-10.21,19.58-19.54,31.61-25.79-2.5-8-4.78-16.16-6.86-24.2-12.6-32.13-21.63-69.12-35.87-100.58-6.23-13.75-13.36-28.86-23.26-41.42A164.77,164.77,0,0,0,547,462.3l-72.19-23.67-35-9.05L351.8,413.17l-59.12,16.16s-59.56,24.33-75.18,37.29c-18.05,14.92,9.62,293.83,14.38,327.41,2.32,10.16,3.75,33,4.08,43.44.24,7.74-10.2,28.34-12.38,35.68-2.33,7.86-3.26,10.66-5.9,18.44-3.79,11.18-8.13,22.19-12,33.33A398.17,398.17,0,0,0,189,979.84c-1.36,7.52-3.75,17.57-.43,18.37"/><path class="cls-12" d="M566.71,567.08s12.6,57.94,13,82.63c.37,23.11-23.29,67.49-26.3,73,.83.18-.36,4,.31,4.53l1.95-3.75s12.25-15,22.88-47.43C590.46,639.69,566.71,567.08,566.71,567.08Z"/><path class="cls-4" d="M340.46,310.27S349.64,368.21,335,408c-2,5.55-37.55,21.21-37.55,21.21l47.7,16.7c22.7,4.91,50.92,15.6,82.66,10.33,13.87-2.31,43.83-5.45,53.79-15.38h0s-25.82-11.62-27.35-18.41,2.07-64.85,2.07-64.85"/><path class="cls-5" d="M454.08,403.51s-13.16-7.13-21.44-9.37-22.41-1.62-60.77-34.27c0,0,11.56,40.47,60.21,48.7,0,0,13.62,2.83,21.85.75Z"/><path class="cls-4" d="M493.48,154.75l.53.41a5.05,5.05,0,0,1-.49-.87ZM514,160.5c.28.31.6.61.92.91l0-.38S514,160.05,514,160.5ZM367,358.88c18,21.32,46.83,44.56,77.65,45.56,11.05.36,22.1-4.61,30.2-11.19,12.31-10,25.28-20.16,34.75-32.28,9.09-11.63,13.25-19,17.91-32.94,4.81-14.44,5-18.32,4.51-33.13a146.5,146.5,0,0,1,.91-22.86c1.08-7.24,6.42-35.69,8.26-52.48s-13.43-44.23-13.43-44.23c-.63-4.63-2.85-8-5-11.84l-2-.16a2,2,0,0,1,.85,1.9,15.72,15.72,0,0,1-6.68-3.82v.08c-3.09,1.13-5.95-.48-8.25-3,0,.46.39,1.41.88,1.45a10,10,0,0,1-7.71-3.37c0,.46.39,1.41.35,1.86a18.18,18.18,0,0,1-6.15-3.32c.4.64,11.73-.21,11.7.1-3,.22.32,1.48-2-1l-2.32-1.89c-2.52.26-2.54,1.76-4.38-.21.46.49-1-5.12-1-4.67-3-.24-2.15-.37-4.52-1.93,0,.45-8.34,2.31-8.38,2.76-2.47-.19-2,2.13-3.84.15.46.5,1.94-1.76,2.4-1.27-3,.22-4.28,2-6.57-.43.45.5-9.41-5.77-9.41-5.77-3,.21-2.58,1.19-4.91-.82.92,1-13.66-1.95-13.23-1-2.48-.2,4,9.45,2.13,7.93,0,.46-5.59-1.82-5.59-1.82-2.52.26,1,2.83-.82.85,0,.46.36,1.86.85,1.9-3.08,1.13-6.48-.06-9.31-2.12.92,1,1.35,1.95,1.81,2.44-2.48-.2-4.5.1-6.83-1.92,0,.45.84,1.9,1.34,1.94a9.87,9.87,0,0,1-7.86-1.54c0,.45.89,1.44,1.34,1.93a7.05,7.05,0,0,1-5.87-1.38l1.34,1.94c-2-.16-3.54.63-6.44-.51,0,.45.92,1,.88,1.44a18.54,18.54,0,0,1-4.92-.85c0,.45,1.38,1.48.88,1.44-2-.16-3.54.63-5.94-.47.45.49.88,1.44,1.34,1.93-2-.15-4,.14-5.91-.92a3.35,3.35,0,0,0,.84,1.9c-2-.16-3.54.63-5.94-.48,0,.45.88,1.44,1.34,1.94-2-.16-4,.14-6-.48,0,.46.92,1,1.38,1.49-2-.16-4,.14-6.41-1-.07.91.39,1.4.35,1.85-1.48-.11-2.44-.65-3.92-.76l-2.56.71c-7.66,8.54-9.59,39.06-9.59,39.06-16.34,11.05-24.29,35.59-24.48,44.27s-4.16,27.14-4.16,27.14c-2.23-3.38-7.13-10.64-8.33-14.4-1.23-3.3.09-7.32-1.15-10.62-3.88-7.63-14-6.15-19.78-2l-1,1.43c-8.4,9.68-2.65,42.3,2.23,52.23.13,19.46,16.37,30.94,27,17.72l2.1,7.75"/><path class="cls-13" d="M529.9,193.13c-9.91-27.45-39.55-44.59-101.6-57.21s-112.85,6.4-112.85,6.4C351.73,54.89,442.54,65.08,462.83,66.7S573.67,160,541.42,227.42l-2.24,6.89S531.7,198.12,529.9,193.13Z"/><path class="cls-13" d="M300.84,122.4s-3-56.83,39.51-72.44c56.84-20.85,132.53-26,154.75,33.87Z"/><path class="cls-14" d="M295.62,259.27c-4.18-4.94-1.93-17.85-5.41-23.3-18.26-28.54-9.66-54.38-.62-69.42,3.93-6.55.11-18.88.91-24.84,4.19-31.19,7.86-31.87,57-60.32,40-23.16,81-18.71,104.69-15.55,37.94,5.06,54.54,8.78,65.72,36.86,1.46,3.66-.64,6.36.47,10.72,1.58,6.16,9.41,12.32,10.37,20,0,0-48.92,11-92.65,30.34S310.92,264.93,311.87,291.46C311.9,292.29,300.24,264.73,295.62,259.27Z"/><path class="cls-13" d="M279.53,198.2s79-83,157.62-77.49c0,0-99.58-21.14-150,47.94l-1.29,2.81a69.23,69.23,0,0,0-6.09,23.5Z"/><path class="cls-13" d="M519.39,114.52l-5.17-2.41a137.57,137.57,0,0,0-37.92-11.4l-22-3.28s54.14-5.1,64.95,9.36Z"/><path class="cls-15" d="M331.81,304.91c-5.24.17-10.35,3.47-11.23,8.91a9.84,9.84,0,0,0,1.54,7,8.42,8.42,0,0,0,4.13,3.26,11.94,11.94,0,0,0,10.54-.75c.31-.18.59-.48.21-.73s-1.14,0-1.47.22a8.87,8.87,0,0,1-11-2.17,9.36,9.36,0,0,1,.21-11.65,8.31,8.31,0,0,1,6.25-3c.4,0,1.17-.14,1.38-.55s-.18-.54-.54-.53Z"/><path class="cls-16" d="M351.13,231.34l-6.16,44-14-20.77S345.33,237.93,351.13,231.34Z"/><path class="cls-17" d="M334.14,272.56c-3.18-.23-6.73.58-6.25,4.44.41,3.24,2.44,6.27,2.17,9.6-.07,1-.64,2.93-1.83,2.92-.69,0-1.49-.76-2-1.19a12.21,12.21,0,0,1-2-2.66,18.67,18.67,0,0,1-2.5-11.83,26.09,26.09,0,0,1,1.48-6.11c.77-2,2-4.26,4.1-5,1.24-.43.89-1.86-.38-1.42-4.26,1.47-6,6-6.86,10.07a20.44,20.44,0,0,0,.54,11.51c1.05,3,4.39,9.81,8.72,7.88,3.68-1.64,3-6.2,2-9.27-.54-1.76-1.41-3.64-1.45-5.5-.05-2.09,1.78-2.05,3.46-1.93,1,.07,2.14-1.41.73-1.51Z"/><path class="cls-13" d="M325.83,209.06s-30.2,26.62-33.25,37.87l-2.37-11S300.24,216,325.83,209.06Z"/><path class="cls-8" d="M470.91,317.8c-3.8,1.61-9.34.72-12.84-1.84-.77-.57-3.53-.3-2.44.5,4.62,3.38,12.59,4.3,17.5,2.22.49-.21.43-.57-.14-.81a3.17,3.17,0,0,0-2.08-.07"/><path class="cls-8" d="M454.12,315.29a23.19,23.19,0,0,0-7.8-2.61,1.83,1.83,0,0,0-1.25.29c-.24.19-.32.46,0,.66a8.77,8.77,0,0,0,4.29,1.34,1.69,1.69,0,0,0,1.39-.41c.27-.35-.16-.63-.52-.65a7,7,0,0,1-3.46-1.1l-1.28.94a20.56,20.56,0,0,1,7,2.36,1.72,1.72,0,0,0,1.47,0c.31-.15.65-.53.23-.78"/><path class="cls-8" d="M443.18,314.76c-3.2-.33-6.87-2-8.26-4.56-2.1-3.82.58-9.4,4.78-11.4.46-.22.25-.56-.18-.69a2.68,2.68,0,0,0-1.75.21c-3.65,1.75-6.3,6.29-6,9.74.23,3.23,3.13,5.7,6.9,6.93a17.49,17.49,0,0,0,3.53.77c.49.05,1.37,0,1.64-.38s-.16-.57-.62-.62"/><path class="cls-8" d="M476.93,316.65a.42.42,0,0,1,.45-.57,3.77,3.77,0,0,0,2.56-.62l.77,1.11a11.18,11.18,0,0,0-5.18,1.38.91.91,0,0,1-1-.24c-.2-.19-.39-.61-.06-.79"/><path class="cls-8" d="M474.46,316.92a12.61,12.61,0,0,1,5.79-1.53,1.08,1.08,0,0,1,.83.46.44.44,0,0,1-.07.65"/><path class="cls-8" d="M483.57,317.61a6.57,6.57,0,0,0,5.89-3.43,9.41,9.41,0,0,0-1.68-10.47.38.38,0,0,1,.2-.66,1.26,1.26,0,0,1,1.09.44,10.52,10.52,0,0,1,2.71,9,7.38,7.38,0,0,1-5.32,5.94,7.63,7.63,0,0,1-2.36.31c-.32,0-.88-.21-1-.6s.18-.54.47-.53"/><path class="cls-16" d="M517.67,258.08c2.86-1.2,6.32.24,8,2a7.65,7.65,0,0,1,1.5,3.46,7.21,7.21,0,0,1-2.22,6.39,6.65,6.65,0,0,1-7.74.72c-3.24-1.83-4-6-2.94-8.84a6.61,6.61,0,0,1,3.41-3.71"/><path class="cls-16" d="M488.43,264.1s14.23-9.47,21.13-9.6c10.07-.2,21.94,6.32,25.08,11.56,0,0-15.63-9.58-22.72-9.24C505.14,257.15,488.43,264.1,488.43,264.1Z"/><path class="cls-16" d="M434.05,251.88c-2.63-1.65-7.09-1.61-9-.16a7.06,7.06,0,0,0-2.35,3.09,7.19,7.19,0,0,0,1.17,6.65,6.67,6.67,0,0,0,7.54,2c3.49-1.3,4.9-5.26,4.3-8.26-.11-.55.52-1.55-1.61-2.88"/><path class="cls-16" d="M445.29,259.31s-14.35-10.82-21.78-11.63c-10.83-1.18-24.29,4.14-28.22,9.05,0,0,17.83-8,25.44-7C428,250.76,445.29,259.31,445.29,259.31Z"/><path class="cls-16" d="M536.69,252.39a5.19,5.19,0,0,1,.06-.8c.21-.79.41-1.6.58-2.4a6.32,6.32,0,0,1,.27-1.63.25.25,0,0,0,0-.08,10,10,0,0,1-.7-2,22.33,22.33,0,0,0-1.7-2.21,28.07,28.07,0,0,0-8.66-6c-3.82-1.74-14.8-4.45-29.86-5.31l-1.05,6c-.27,1.53-.53,3.06-.78,4.58,5.34-.38,9.86-.44,13.26-.4,7.19.07,10.87.14,14.8,1.54a39.07,39.07,0,0,1,8.76,4.59,25.06,25.06,0,0,1,4.43,3.45C536.31,251.94,536.5,252.16,536.69,252.39Z"/><path class="cls-16" d="M448.83,228.16q-.49,3-1,6-.37,2.3-.78,4.59c-5.78-2.25-10.78-3.91-14.56-5.08-8-2.48-12.1-3.72-17-3.79a51.22,51.22,0,0,0-11.35,1.2,31.51,31.51,0,0,0-6.14,1.68c-4.43,1.85-6.53,4.39-7.15,4s.82-2.63,1-2.86a24.53,24.53,0,0,1,10.22-8.82,35.11,35.11,0,0,1,11.75-2.58c4.86-.27,18,1.06,35,5.6"/><path class="cls-16" d="M458.22,154.52s19.72,19.76,56.43,15.91c0,0-29.72-22.28-39.53-23.65Z"/><polyline class="cls-4" points="381.31 850.28 574.74 901.02 583.92 856.3 394.91 756.01"/><path class="cls-4" d="M703.31,883c3.56-3.21,5.43-4.77,4.73-9.88-.28-2-1.89-3.76-3.11-5.78l-50.25-23.66c6.9-6.35,28.3,2.82,33.85-4.74s-4.9-8.58-7-9.54-38.22-7.92-38.22-7.92-32.47,4.76-39.72,7.71-26.34,14.21-26.34,14.21l-14.83,5.81s-19.06,23.37-26.56,41c-.54,1.27,32.33,6.89,43.06,12.47s36.47,15,36.47,15,41.74-1.67,46.75-4.38,10.15-12.81,10.15-12.81c3.36-1.29,8.8-3.14,12.38-3.54,15.18-6,10.26-12.79,10.26-12.79l4.27-.35C699.61,884,702.93,883,703.31,883Z"/><path class="cls-5" d="M660.2,846.8a133.22,133.22,0,0,1-17.63-5.92,73.44,73.44,0,0,1-17.33-7,78.86,78.86,0,0,1,18.11,4.81A53,53,0,0,1,660.2,846.8Z"/><path class="cls-5" d="M639.87,869.73c.1-.74,12.4,1.37,26.77,6.12,7.22,2.32,13.71,4.6,18.4,6.18a36.51,36.51,0,0,1,7.57,2.83,23.44,23.44,0,0,1-8.05-1.27c-4.84-1.16-11.4-3.18-18.62-5.5C651.57,873.34,639.77,870.27,639.87,869.73Z"/><path class="cls-5" d="M630.78,889.3c.28-.61,9.1,3.14,20.46,6.2s20.89,4.33,21,4.8a82.24,82.24,0,0,1-41.43-11Z"/><polygon class="cls-4" points="430.32 448.87 432.81 548.95 413.56 446.97 430.32 448.87"/><path class="cls-18" d="M655.1,529.77a25.22,25.22,0,0,0-.22,5.28c0,3.74.06,8.58.1,14.35.18,12.16.56,28.92,1.08,47.42s1.27,35.3,1.64,47.41L660,693.76a29.94,29.94,0,0,0,.5,5.26,24.56,24.56,0,0,0,.22-5.28c0-3.75-1.62-43.76-1.65-49.57-.18-12.12-.56-28.88-1.08-47.42s-1.27-35.29-1.65-47.37c-.26-5.78-.53-10.61-.7-14.35A25.1,25.1,0,0,0,655.1,529.77Z"/><path class="cls-6" d="M238,453s-83.86,17.42-72.17,89.81c12.54,49.21,35.89,209.88,100.84,273,23,22.38,160.66,57.33,160.66,57.33L429.92,863l22.57-88.25L349.4,714.34s-29.38-90-46.93-125.58S238,453,238,453Z"/><line class="cls-19" x1="482.46" y1="654.08" x2="482.62" y2="656.29"/><path class="cls-20" d="M456.7,339.23c-15.27-1.63-39.83-6.08-39.83-6.08s1.38,30.69,36.79,34.48,43.25-25.9,43.25-25.9S472,340.87,456.7,339.23Z"/><path class="cls-21" d="M456.85,339.25c-7.26-.78-36.4-5.14-36.4-5.14s8,17.06,34.22,19.87c28.48,3,38.53-11.84,38.53-11.84Z"/><path class="cls-22" d="M457.05,340.37c-7.26-.78-29.23-4.37-29.23-4.37s7.11,8.79,28.89,11.13,29.52-4.64,29.52-4.64Z"/><path class="cls-20" d="M498.76,339.67c-.76-.27-5.13.68-8.7,0-6-1.16-9.55-3.14-13.87-3.94-7.37-1.37-12.41,1.05-15.64.71s-7.64-3.78-15.13-4c-4.4-.13-15.34.29-21.41.17-3.64-.08-7.71-1.93-8.51-1.83-1.1.15.14,8.24,40.77,12.59S499.8,340.05,498.76,339.67Z"/><path class="cls-20" d="M768,351.92c14.21-.66,37.17-3.39,37.17-3.39s-3,28.29-36,29.81S730.62,352,730.62,352,753.73,352.57,768,351.92Z"/><path class="cls-21" d="M767.81,351.92c6.76-.31,34-2.71,34-2.71s-8.32,15.33-32.76,16.46c-26.5,1.23-35-13.11-35-13.11Z"/><path class="cls-22" d="M767.56,353c6.76-.32,27.27-2.41,27.27-2.41s-7.06,7.74-27.33,8.68-27-6-27-6Z"/><path class="cls-20" d="M729,350c.71-.2,4.71.92,8.05.47,5.57-.74,9-2.37,13-2.87,6.9-.85,11.42,1.68,14.42,1.54s7.28-3.07,14.22-2.86c4.07.12,14.17,1.13,19.79,1.35,3.37.13,7.24-1.35,8-1.21,1,.2-.59,7.61-38.4,9.36S728.05,350.25,729,350Z"/><path class="cls-12" d="M285.08,522.78c-.41.22-2.73-4.44-7.47-10.34a77.4,77.4,0,0,0-23.25-19.3,84.27,84.27,0,0,0-15.49-6.22,75.2,75.2,0,0,0-13.48-2.36c-7.76-.56-12.63.21-12.69-.23s1.1-.58,3.36-.85a23.63,23.63,0,0,1,4-.5,37.46,37.46,0,0,1,5.4-.11,63,63,0,0,1,13.93,1.87A75.18,75.18,0,0,1,255.5,491,70.4,70.4,0,0,1,279,511.41a54.32,54.32,0,0,1,4.87,8.13A10.15,10.15,0,0,1,285.08,522.78Z"/><path class="cls-12" d="M450.18,783.28l-98.69-66.95-60-173.5s43.76,126.09,52,157.89l5.89,18,100.54,66.45"/><path class="cls-12" d="M228.54,761.28s20.85,43.87,36.42,54.81c3.84,2.7,24.45,10.24,28.79,12.43,21.95,11.08,133.58,44.63,133.58,44.63l3-11.65,2.28-.52-3.85,16.15s-91.54-29.77-106.06-35-51.38-17.07-63.09-27S228.54,761.28,228.54,761.28Z"/><path class="cls-4" d="M622.74,919.13c.56.5,2.27,2,3,2.13,0,0-12.39,7.72,7.3,16,0,0,6.84,15.56,19.12,16.59,0,0,14.56,14.64,23.59,16.94s68.18-21.59,68.18-21.59L781.55,921l-26-51.4-6.45,2.6s-22.35-10.72-33.44-12.23a105.2,105.2,0,0,0-26.81,1.41l-26,8.73c1.14,14.53,33,10.87,33.62,12.5a12.12,12.12,0,0,1-7,15.68c-12,5.28-25.72,11.37-27.57,12.58s-19.1-1.75-31.91-4.17C619.24,907.2,616.65,913.83,622.74,919.13Z"/><path class="cls-23" d="M690.66,861,662.8,871c.93,11.87,25.72,12,33.88,12.35"/><path class="cls-23" d="M622.14,927.28a2.13,2.13,0,0,0-.25,0c.22-3.07,4.16-5.79,4.16-5.79-.73-.13-2.75-1.89-3.31-2.39-6.09-5.3-5.38-11.93,7.64-11.78,6.2.07,13.17,2.42,19.13,3.31l11.45.41,6.78-3.12"/><path class="cls-5" d="M685,922.27a66.2,66.2,0,0,1-24.71,7.86,58.59,58.59,0,0,1-25-5.51,49.86,49.86,0,0,0-10.21-3.89,35.53,35.53,0,0,0,9.38,5.78,52,52,0,0,0,26,6.57,58.38,58.38,0,0,0,25.4-8.94,37.41,37.41,0,0,0,9.15-6.48A49.29,49.29,0,0,0,685,922.27Z"/><path class="cls-5" d="M688.6,937.92a101.64,101.64,0,0,1-10,4.1A33.42,33.42,0,0,1,666,944.33a65.89,65.89,0,0,1-12.66-2.53c-3.93-1.1-7.49-2-10.48-2.71a34.41,34.41,0,0,0-9.9-1.76,34,34,0,0,0,9.31,3.75l10.3,3.31a58.79,58.79,0,0,0,13.24,2.85,33.85,33.85,0,0,0,13.53-2.85,74.77,74.77,0,0,0,10-4.84,21,21,0,0,0,8-6.41A82.69,82.69,0,0,1,688.6,937.92Z"/><path class="cls-5" d="M691.69,953.47c-4.34,1.28-10.26,3-16.86,5.27a8.58,8.58,0,0,1-4.24.17,38.86,38.86,0,0,1-4.44-.77,68.48,68.48,0,0,1-7.31-2.09c-4.15-1.39-6.54-2.66-6.78-2.36s1.88,2.28,6,4.26a40.19,40.19,0,0,0,7.51,2.74,35.3,35.3,0,0,0,4.67,1,11,11,0,0,0,5.57-.25c13-4.31,23.51-8.62,23-9.71A33.33,33.33,0,0,0,691.69,953.47Z"/><path class="cls-2" d="M924.52,435.55c-21-7.46,22,37.09,11.74,53.47s-9.45,244.67-9.45,244.67l-171,134.2,37,67.52s105.57-76.95,180.89-105.1c18.64-7,36-22.77,42-41.73,15-47.28,11-121.48,12.85-189.46,1-33.91,4.09-102.39-24.35-120.31C996.91,471,934.13,440.22,924.52,435.55Z"/><path class="cls-18" d="M982.37,826.38c-11,5.33-179.09,99-196.4,105.06l.84,1.72C809.59,923,964,837.29,983.21,831.74Z"/><path class="cls-18" d="M919.71,744.12l-.61-.08-1.29-.15-1.1-.09c-27.33,18.52-128.24,89.14-164,117.06C784.38,836.13,902.49,757.25,921,744.3Z"/><path class="cls-18" d="M918.23,744l1.9.26h.06l1.6-66.51c.65-28.56,1.15-55.85,1.71-80.69.29-13.3,0-26,1-37.55.08-5.27.18-10.53.23-15.8a77.54,77.54,0,0,0-2.85,18.2c-.81,11.1-.76,23-1.24,35.25l-2,80.72-1.4,66Z"/><path class="cls-18" d="M926.63,520.26c.36.22,2.93-4.33,7.83-10.11a84.12,84.12,0,0,1,23.06-18.94A82.81,82.81,0,0,1,972.23,485a68.78,68.78,0,0,1,12.49-2.39c7.12-.6,11.47.12,11.57-.31s-.94-.56-3-.81a19.8,19.8,0,0,0-3.61-.45,32,32,0,0,0-4.9-.08A57.08,57.08,0,0,0,972,482.92a73.56,73.56,0,0,0-15.26,6.21,76.9,76.9,0,0,0-23.39,20,62.71,62.71,0,0,0-5.24,8A12,12,0,0,0,926.63,520.26Z"/><path class="cls-4" d="M335.81,414s1.57,6.67-5,8.81S307,431.34,301,432l-1.53-2.4s11.25,11.92,11.27,16-2.19,10.66-4.4,10.95-7.17-1.93-7.17-1.93,3.55,7.78-.15,11.27-8.15,1.54-11.28.66-9.83-5.08-9.83-5.08-.34,8.72-5.41,9.57-24.37-8.26-24.37-8.26,1.77,9.76-4.08,10.63-11.63-3.13-16.27-6.88-10.59-8.76-10.31-11.82a11.18,11.18,0,0,1,4.3-8.05l7.84-5.51s-.28-4.95,1.65-8.43,12.14-15.32,12.14-15.32-1.25-7.7,1.84-11.12,11.55-7.25,11.55-7.25,6.27-11.72,9.28-12,4.07-1.65,15.81.92S316,399,316,399s6.33-.75,10.73,2.36S337.76,407.4,335.81,414Z"/><path class="cls-5" d="M229.27,442s.74,5,2.42,7,12.72,10.61,12.72,10.61-12.7-7.35-14.32-9.46-.75-8.86-.75-8.86"/><path class="cls-5" d="M243.84,421.37s-2.5,12.86,2.31,17.88,28.41,20.88,28.41,20.88-25.83-20.41-27.68-24.62S243.84,421.37,243.84,421.37Z"/><path class="cls-5" d="M257.59,402.06S258.86,421,262,424.27,292.92,448.5,294.83,450l2.94,1.66s-32.06-27.12-34.18-30.18S257.59,402.06,257.59,402.06Z"/><path class="cls-5" d="M314.64,417.81s-6.56,9.35-12.12,11.28-13.37-2.9-13.14-8.62,2.7-10,5-11.9,4.18-5.06,8.15-6.95c0,0-10.32,12-10.76,14.53s-1.1,10,3.91,11.09,7,.66,12-3.12A38.81,38.81,0,0,0,314.64,417.81Z"/><path class="cls-5" d="M290.27,424s-7.36-6.39-7.44-9a88.33,88.33,0,0,1,.79-10.41s-.56,8.17,1.35,11.11S290.27,424,290.27,424Z"/><path class="cls-5" d="M335,408s-5.7,11.16-15.49,16.52c-13.92,7.63-15.43,7-15.43,7l-2.08.32,2-.75s11.51-3.05,24-15.24c8.29-8.08,6.37-8.73,6.37-8.73l.64.87"/><polygon class="cls-18" points="786.81 933.16 751.4 861.03 754.3 859.63 789.23 932.18 786.81 933.16"/><path class="cls-18" d="M920.32,744.44s38.09-5.8,54.12,13.53C974.44,758,966.15,726.19,920.32,744.44Z"/><path class="cls-12" d="M349.3,718.71s-36.78-1.18-52.81,18.15C296.49,736.86,319.05,703.51,349.3,718.71Z"/></g></svg>