<svg id="Layer_1" data-name="Layer 1" xmlns="http://www.w3.org/2000/svg" viewBox="0 0 348 282.35"><defs><style>.cls-1{fill:#c0e8f8;}.cls-2{fill:#c75744;}.cls-3{fill:#fff;}.cls-4{fill:#efb21c;}.cls-5{fill:#f4ebc1;}.cls-6{fill:#261320;}.cls-7{fill:#261503;}.cls-8{fill:#1a1318;}.cls-9{fill:#936243;}.cls-10{fill:#683f31;}.cls-11{fill:#ce8a00;}.cls-12{fill:#100d0a;}.cls-13{fill:#b05c16;}.cls-14{fill:#df8b25;}.cls-15{fill:#321106;}.cls-16{fill:#643b28;}.cls-17{fill:#f0edf6;}</style></defs><polyline class="cls-1" points="0 282.31 0 -0.04 348 -0.04 348 282.31"/><path class="cls-2" d="M232.82,281c-3.73-11.35-11.92-15.25-13.75-16v0l-.31-.09-.05,0h0l-22.16-6.52-16.69-.05v0h-5.79v0l-7.53,0-22.16,6.52h0l-.07,0-.3.09v0c-1.89.72-10.62,4.61-14.37,16-.09.33-.18.73-.27,1.16H233.1C233,281.72,232.91,281.32,232.82,281Z"/><path class="cls-3" d="M238.17,140.93a43.5,43.5,0,0,1-12.46-1.88,1.72,1.72,0,0,0-2.46,1.09,33,33,0,0,1-12.88,14.5,41.14,41.14,0,0,1-17.19,6.1,45.39,45.39,0,0,1-13.27-.25A40.3,40.3,0,0,1,158.52,150a1.54,1.54,0,0,0-2.38-.09,41.92,41.92,0,0,1-20.6,8.28,43.71,43.71,0,0,1-20.89-2.31c-9.21-3.38-16.52-9.11-20.76-18.22a26.07,26.07,0,0,1-2-15.81c.27-1.57.07-2-1.58-2.2a39.2,39.2,0,0,1-13.93-4.88c-8.58-5-14.7-11.93-16.49-22a26.69,26.69,0,0,1,4.08-19.74c4.46-6.91,10.81-11.4,18.34-14.26a65.19,65.19,0,0,1,8.9-2.27c1.11-.25,1.43-.71,1.28-1.82C91.35,46.41,94,39.26,99.32,33a35.21,35.21,0,0,1,13-9.63,44.61,44.61,0,0,1,40,1.74,1.4,1.4,0,0,0,2.11-.45,34.92,34.92,0,0,1,9.26-8.47A42.27,42.27,0,0,1,184,9.69a43.71,43.71,0,0,1,19.35,3c9.23,3.76,16.29,9.82,20.15,19.22a19.2,19.2,0,0,1,1,3.12c.21,1,.72,1.26,1.67,1.2,2.67-.15,5.36-.4,8-.3,10.66.4,20.09,4,27.7,11.6,6.15,6.12,9.33,13.64,8.78,22.45a27.78,27.78,0,0,1-5,13.68c-1.07,1.62-1.08,1.7.34,2.94a30.69,30.69,0,0,1,8.62,12.21,26.51,26.51,0,0,1,.9,16.8c-2.62,9.65-9,16.13-17.65,20.63A44,44,0,0,1,238.17,140.93Z"/><path class="cls-3" d="M128.62,170.13a6.56,6.56,0,0,1,13.12,0,6.61,6.61,0,0,1-6.53,6.44A6.53,6.53,0,0,1,128.62,170.13Z"/><path class="cls-3" d="M144,184.16a3.4,3.4,0,0,1,0-6.79,3.4,3.4,0,1,1,0,6.79Z"/><path class="cls-4" d="M192.78,135.7s-19.53,6.34-29.35.38c-6.65-4.05-5.3-9-4.2-12.23l.37.36a27.26,27.26,0,0,0,6.61,4.87c-1,.7-2,1.7-1.67,2.6a3.61,3.61,0,0,0,5.83,1.11,7.6,7.6,0,0,0,1.85-2.23,24.49,24.49,0,0,0,3.68.1,7.24,7.24,0,0,0,2.15,2.88,3.62,3.62,0,0,0,5.83-1.1c.47-1.22-1.61-2.63-2.59-3.21l.13-.08s8.67-3.75,8.67-18.14c0,0,.69-7.63.08-10.64s1.16-11.87-5.68-9.17c0,0-3.69,2.37-1.69-8.7s6.6-11.7,2.15-24.19l-3.74-9.82-.06-3.42L169,45.23a6.3,6.3,0,0,1-.61,4C166,53.19,162,60.13,161.63,63.53c-.46,4.9,2.14,14.87,2.91,18.34s.77,7.91-1.07,9.18c0,0-4.45-3.17-6,1.89s-.82,11.86-1,13.44c-.11,1.17-1.15,7.39.85,12.42-4.35,11.63-3.59,17.31,6.85,21.9s22.57.55,22.57.55Z"/><path class="cls-5" d="M175.82,129.53s0-37.64.73-43.49,3.8-28.46-1.07-28-6.11,8.86-4.57,19.61,2.45,28.62,2,34.47-.77,17.4-.77,17.4Z"/><path class="cls-5" d="M165.16,87.76s-.46,2.85-2,3a32.52,32.52,0,0,1,2.73,14.07c-.16,8.38-.76,17.55,0,18.82s1.26,3.8,2.49,3.8,1.38-11.55,0-22.93S165.16,87.76,165.16,87.76Z"/><path class="cls-5" d="M182.15,88.5s.49,2.84,2,3a32.53,32.53,0,0,0-2.57,14.09c.25,8.38.94,17.54.2,18.82s-1.22,3.81-2.45,3.83-1.5-11.53-.24-22.93S182.15,88.5,182.15,88.5Z"/><path class="cls-5" d="M202.15,126.33c-1.15,6.16-2.88,10.47-9.49,13.14-6.09,2.45-7.49,2.16-7.49,2.16s-1.27-.11-1.16-3.67c0,0,9.6-2.76,12-6s2-5.32,2.38-9.47c0,0,1.8-3.84,3.24-1.08C202.41,122.93,202.15,126.33,202.15,126.33Z"/><path class="cls-4" d="M185.24,38.4c0,6.53-7.25,9.84-9.81,9.84-2.76,0-10.46-3.31-10.46-9.84S169.51,31,175.1,31,185.24,31.88,185.24,38.4Z"/><path class="cls-5" d="M180.68,45.77c0,1.33-3.24,3.46-4.76,3.46s-.71-2.13-.71-3.46a2.76,2.76,0,0,1,5.47,0Z"/><ellipse class="cls-5" cx="175.2" cy="47.55" rx="2.74" ry="2.82"/><path class="cls-5" d="M175.75,46.05c0,1.34.73,3.19-.78,3.19s-4.69-1.86-4.69-3.19a2.76,2.76,0,0,1,5.47,0Z"/><path class="cls-6" d="M177,44c0,.7-1.15,1.27-1.54,1.27s-1.54-.57-1.54-1.27.69-.91,1.54-.91S177,43.25,177,44Z"/><path class="cls-6" d="M175.43,45.21s.13,3.35-2.74,3.39C172.69,48.6,176,49.18,175.43,45.21Z"/><path class="cls-6" d="M175.41,45.06s-.13,3.35,2.74,3.39C178.15,48.45,174.85,49,175.41,45.06Z"/><path class="cls-5" d="M179.2,41.2s-.69-2.3.57-3.39L181,36.72s-2.34-.69-2.74.7S179.2,41.2,179.2,41.2Z"/><path class="cls-5" d="M171.56,41.16s.69-2.29-.57-3.39l-1.26-1.09s2.34-.69,2.74.7S171.56,41.16,171.56,41.16Z"/><path class="cls-6" d="M181.05,37.74a1.68,1.68,0,0,1-1.28,1.32.94.94,0,0,1,0-1.88C180.28,37.18,181.05,37.23,181.05,37.74Z"/><path class="cls-6" d="M172,38.23a.93.93,0,0,1-.91.94,1.7,1.7,0,0,1-1.28-1.31c0-.52.78-.57,1.28-.57A.93.93,0,0,1,172,38.23Z"/><path class="cls-6" d="M171.38,48a3,3,0,0,1-1.28-1.57c-.45-1.47.3-3.2,1-4.54s1.69-2.25,1.32-3.91c-.3-1.37-3.36-1.16-3.36-1.16s4.64-1,4.49,1.21C173.18,43.2,168.22,44.06,171.38,48Z"/><path class="cls-6" d="M179.29,47.63a3,3,0,0,0,1.29-1.56c.45-1.48-.3-3.2-1-4.54s-1.7-2.26-1.33-3.91c.31-1.37,3.37-1.16,3.37-1.16s-4.65-1.05-4.5,1.2C177.5,42.87,182.45,43.73,179.29,47.63Z"/><path class="cls-7" d="M175.35,36.51c.17,0,.3-.88.3-1.95s-.13-2-.3-2-.3.87-.3,2S175.18,36.51,175.35,36.51Z"/><path class="cls-4" d="M168.45,32.55s-2.57-3.1-5.28-2.26c-2.29.7-2.28,7,2.19,8Z"/><path class="cls-8" d="M165.69,36.91s.41-2.77,1.95-3.44c.09,0-.77-.8-.82-.83-.67-.38-2.55-.74-3,0a2.63,2.63,0,0,0,0,2.18,4,4,0,0,0,.65,1C164.57,36,165.7,36.86,165.69,36.91Z"/><path class="cls-4" d="M182.09,32.21s2.57-3.09,5.28-2.26c2.29.71,2.28,7-2.19,8.05Z"/><path class="cls-8" d="M184.85,36.57s-.41-2.76-1.95-3.44c-.1,0,.76-.79.82-.83.66-.38,2.54-.73,3,0a2.62,2.62,0,0,1,0,2.19,3.63,3.63,0,0,1-.64,1C186,35.68,184.85,36.53,184.85,36.57Z"/><ellipse class="cls-6" cx="177.89" cy="34.24" rx="1" ry="0.65" transform="translate(65.19 176.07) rotate(-62.42)"/><ellipse class="cls-6" cx="172.91" cy="34.22" rx="0.65" ry="1" transform="translate(3.8 83.94) rotate(-27.58)"/><path class="cls-6" d="M170.91,33.61c.16-.09.18-.38,0-.63s-.38-.38-.55-.29-.18.38,0,.64S170.74,33.71,170.91,33.61Z"/><path class="cls-6" d="M167.53,41.14c.16-.09.18-.38,0-.63s-.38-.39-.55-.29-.18.38,0,.63S167.36,41.24,167.53,41.14Z"/><path class="cls-6" d="M169.28,42.11c.17-.1.19-.38.05-.63s-.39-.39-.55-.29-.19.38-.05.63S169.12,42.21,169.28,42.11Z"/><path class="cls-6" d="M168.27,43c.17-.1.19-.38,0-.64s-.39-.38-.55-.29-.19.38-.05.64S168.11,43.08,168.27,43Z"/><path class="cls-6" d="M183.58,40.9c.14-.26.12-.54,0-.64s-.41,0-.55.29-.12.54,0,.64S183.44,41.15,183.58,40.9Z"/><path class="cls-6" d="M181.83,41.87c.14-.25.12-.54-.05-.63s-.41,0-.55.28-.12.54.05.64S181.69,42.12,181.83,41.87Z"/><path class="cls-6" d="M182.84,42.75c.14-.26.12-.54-.05-.64s-.41,0-.55.29-.12.54,0,.63S182.7,43,182.84,42.75Z"/><path class="cls-6" d="M168.48,56.12c.19-.33.16-.71-.06-.84s-.55,0-.73.38-.16.72.06.84S168.3,56.46,168.48,56.12Z"/><path class="cls-6" d="M171.18,57.79c.29-.53.25-1.11-.09-1.31s-.85.07-1.13.59-.25,1.11.09,1.3S170.9,58.31,171.18,57.79Z"/><path class="cls-6" d="M173.71,53.47c.2-.36.17-.78-.07-.91s-.59,0-.8.41-.17.78.07.92S173.51,53.84,173.71,53.47Z"/><path class="cls-6" d="M167.61,64.16c.29-.52.24-1.1-.09-1.3s-.85.07-1.13.59-.25,1.11.09,1.3S167.33,64.69,167.61,64.16Z"/><path class="cls-6" d="M170.87,53.22c.14-.26.12-.54-.05-.64s-.41,0-.55.29-.12.54,0,.64S170.73,53.47,170.87,53.22Z"/><path class="cls-6" d="M170.32,50.55c.14-.26.12-.54,0-.64s-.42,0-.56.29-.11.54.05.63S170.18,50.8,170.32,50.55Z"/><path class="cls-6" d="M165.9,57.74c.14-.26.12-.54,0-.63s-.42,0-.56.28a.49.49,0,0,0,0,.64C165.51,58.12,165.76,58,165.9,57.74Z"/><path class="cls-6" d="M168.76,53.1c.14-.26.12-.54,0-.64s-.41,0-.55.29-.12.54,0,.63S168.63,53.35,168.76,53.1Z"/><path class="cls-6" d="M180.11,33c.14-.26.12-.54,0-.64s-.41,0-.55.29-.12.54,0,.64S180,33.28,180.11,33Z"/><path class="cls-6" d="M174.15,33c.16-.09.18-.38,0-.63s-.38-.38-.55-.29-.18.38,0,.64S174,33.05,174.15,33Z"/><path class="cls-6" d="M177,32.85c.14-.25.12-.53-.05-.63s-.41,0-.55.29-.12.54.05.63S176.88,33.11,177,32.85Z"/><path class="cls-6" d="M168.39,59.91c.14-.26.12-.54,0-.64s-.42,0-.56.29-.11.54.05.64S168.25,60.16,168.39,59.91Z"/><path class="cls-6" d="M166.08,78c.14-.25.12-.53-.05-.63s-.41,0-.55.29-.12.54.05.63S165.94,78.27,166.08,78Z"/><path class="cls-6" d="M169.33,82.27c.14-.25.12-.54-.05-.63s-.41,0-.55.29-.12.53.05.63S169.19,82.53,169.33,82.27Z"/><path class="cls-6" d="M168.35,89.83c.17-.09.19-.38.05-.63s-.39-.38-.55-.29-.19.38,0,.64S168.19,89.93,168.35,89.83Z"/><path class="cls-6" d="M170.54,102.93c.16-.09.18-.38.05-.63s-.39-.39-.56-.29-.18.38,0,.63S170.37,103,170.54,102.93Z"/><path class="cls-6" d="M164.88,61.17c.27-.5.23-1.06-.09-1.25s-.81.07-1.08.57-.23,1,.09,1.24S164.61,61.66,164.88,61.17Z"/><path class="cls-6" d="M164,66.42c.37,0,.63-.52.59-1.09s-.39-1-.75-1-.64.52-.59,1.09S163.64,66.45,164,66.42Z"/><path class="cls-6" d="M167.93,68.93c.37,0,.63-.52.59-1.09s-.38-1-.75-1-.63.52-.59,1.09S167.56,69,167.93,68.93Z"/><ellipse class="cls-6" cx="164.6" cy="69.68" rx="1.03" ry="0.67" transform="translate(41.33 199.11) rotate(-69.34)"/><ellipse class="cls-6" cx="167.37" cy="72.82" rx="0.67" ry="1.04" transform="translate(-5.07 12.99) rotate(-4.38)"/><ellipse class="cls-6" cx="165.27" cy="74.62" rx="0.67" ry="1.04" transform="translate(-5.21 12.83) rotate(-4.38)"/><path class="cls-6" d="M168.55,79.43c.37,0,.63-.52.58-1.09s-.38-1-.75-1-.63.52-.58,1.09S168.18,79.46,168.55,79.43Z"/><ellipse class="cls-6" cx="166.45" cy="81.06" rx="0.67" ry="1.04" transform="translate(-5.7 12.94) rotate(-4.38)"/><ellipse class="cls-6" cx="170.04" cy="85.33" rx="0.67" ry="1.04" transform="translate(-6.02 13.23) rotate(-4.38)"/><ellipse class="cls-6" cx="167.37" cy="85.94" rx="0.67" ry="1.03" transform="translate(-18.54 57.03) rotate(-18.34)"/><ellipse class="cls-6" cx="170.29" cy="91.87" rx="0.67" ry="1.03" transform="translate(-20.26 58.25) rotate(-18.34)"/><ellipse class="cls-6" cx="169.14" cy="94.98" rx="0.67" ry="1.03" transform="matrix(0.95, -0.31, 0.31, 0.95, -21.29, 58.04)"/><path class="cls-6" d="M171.05,98.56c.16-.55,0-1.09-.35-1.2s-.77.25-.93.8,0,1.08.35,1.19S170.89,99.1,171.05,98.56Z"/><path class="cls-6" d="M171.9,104.78c.09-.27,0-.55-.16-.61s-.4.11-.49.38,0,.55.16.62S171.81,105.06,171.9,104.78Z"/><path class="cls-6" d="M170.28,106.81c.16-.1.18-.38,0-.64s-.38-.38-.55-.28-.18.38,0,.63S170.11,106.9,170.28,106.81Z"/><path class="cls-6" d="M171.64,108.65c.09-.27,0-.55-.16-.61s-.39.11-.49.38,0,.56.16.62S171.55,108.93,171.64,108.65Z"/><ellipse class="cls-6" cx="171.93" cy="112.67" rx="0.53" ry="0.34" transform="translate(12.2 242.06) rotate(-72.25)"/><path class="cls-6" d="M170.92,115.39c.16-.1.18-.38,0-.64s-.38-.38-.55-.29-.18.38,0,.64S170.75,115.48,170.92,115.39Z"/><path class="cls-6" d="M171.05,111.11c.09-.28,0-.55-.16-.62s-.4.11-.49.39,0,.55.16.61S171,111.38,171.05,111.11Z"/><path class="cls-6" d="M171.71,120.15c.1-.27,0-.55-.14-.62s-.4.09-.5.36,0,.56.13.63S171.6,120.42,171.71,120.15Z"/><path class="cls-6" d="M182.27,55.93c.22-.13.25-.5.06-.84s-.51-.51-.73-.38-.25.5-.06.84S182.05,56.06,182.27,55.93Z"/><path class="cls-6" d="M180,57.8c.33-.2.38-.78.09-1.3s-.79-.79-1.13-.59-.38.78-.09,1.3S179.63,58,180,57.8Z"/><path class="cls-6" d="M177.31,53.89c.24-.14.27-.55.06-.92s-.56-.55-.79-.41-.27.55-.07.91S177.07,54,177.31,53.89Z"/><ellipse class="cls-6" cx="180.83" cy="64.36" rx="0.71" ry="1.08" transform="translate(-9.25 91) rotate(-27.57)"/><path class="cls-6" d="M179.34,53.69c.16-.1.18-.38,0-.64s-.38-.38-.55-.29-.18.38,0,.64S179.17,53.78,179.34,53.69Z"/><ellipse class="cls-6" cx="179.63" cy="50.55" rx="0.34" ry="0.53" transform="translate(-2.99 88.9) rotate(-27.58)"/><path class="cls-6" d="M182.48,58.58c.17-.1.19-.38.05-.64s-.39-.38-.55-.28-.19.38,0,.63S182.32,58.67,182.48,58.58Z"/><path class="cls-6" d="M181.44,53.56c.17-.09.19-.38.05-.63s-.39-.39-.55-.29-.19.38-.05.63S181.28,53.66,181.44,53.56Z"/><path class="cls-6" d="M180,60.75c.16-.1.18-.38,0-.64s-.39-.38-.56-.28-.18.38,0,.63S179.82,60.85,180,60.75Z"/><path class="cls-6" d="M182.31,78.85c.16-.09.18-.38,0-.63s-.38-.38-.55-.29-.18.38,0,.64S182.14,79,182.31,78.85Z"/><path class="cls-6" d="M179.05,83.11c.17-.1.19-.38,0-.63s-.39-.39-.55-.29-.19.38-.05.63S178.89,83.21,179.05,83.11Z"/><path class="cls-6" d="M180,90.1c.14-.26.12-.54-.05-.64s-.41,0-.55.29-.12.54,0,.63S179.89,90.35,180,90.1Z"/><path class="cls-6" d="M178.57,103.19c.14-.25.12-.53,0-.63s-.41,0-.55.29-.12.54,0,.63S178.43,103.45,178.57,103.19Z"/><path class="cls-6" d="M184,62.28c.33-.19.37-.74.09-1.24s-.75-.75-1.08-.57-.36.75-.09,1.25S183.71,62.47,184,62.28Z"/><path class="cls-6" d="M185.3,66.37c0-.57-.22-1.05-.59-1.09s-.7.41-.75,1,.22,1.06.59,1.09S185.25,66.94,185.3,66.37Z"/><ellipse class="cls-6" cx="180.71" cy="68.83" rx="1.04" ry="0.67" transform="translate(98.29 243.76) rotate(-85.62)"/><path class="cls-6" d="M184.34,71.19c.34-.14.45-.69.24-1.22s-.66-.84-1-.7-.45.69-.24,1.22S184,71.33,184.34,71.19Z"/><ellipse class="cls-6" cx="180.46" cy="73.37" rx="1.04" ry="0.67" transform="translate(93.52 247.71) rotate(-85.62)"/><path class="cls-6" d="M183.23,75.23c0-.57-.22-1.06-.59-1.09s-.7.4-.75,1,.22,1.06.59,1.09S183.18,75.8,183.23,75.23Z"/><ellipse class="cls-6" cx="179.37" cy="78.95" rx="1.04" ry="0.67" transform="matrix(0.08, -1, 1, 0.08, 86.96, 251.76)"/><path class="cls-6" d="M182.05,81.67c0-.57-.22-1.06-.59-1.09s-.7.41-.75,1,.22,1.06.59,1.09S182,82.24,182.05,81.67Z"/><path class="cls-6" d="M178.46,85.94c0-.57-.21-1.06-.58-1.09s-.71.41-.75,1,.21,1.06.58,1.09S178.42,86.51,178.46,85.94Z"/><path class="cls-6" d="M181.09,86.72c.19-.54.06-1.08-.29-1.21s-.78.21-1,.74-.05,1.08.29,1.21S180.91,87.26,181.09,86.72Z"/><ellipse class="cls-6" cx="177.92" cy="92.42" rx="1.03" ry="0.67" transform="translate(34.21 232.21) rotate(-71.66)"/><ellipse class="cls-6" cx="179.07" cy="95.52" rx="1.03" ry="0.67" transform="translate(32.05 235.44) rotate(-71.66)"/><ellipse class="cls-6" cx="178.15" cy="98.91" rx="0.67" ry="1.03" transform="translate(-20.09 51.76) rotate(-15.66)"/><path class="cls-6" d="M177.16,105.72c.17-.07.24-.34.15-.62s-.31-.45-.49-.38-.25.34-.16.61S177,105.78,177.16,105.72Z"/><path class="cls-6" d="M178.47,107.07c.14-.26.12-.54,0-.64s-.41,0-.55.29-.12.54,0,.64S178.33,107.32,178.47,107.07Z"/><path class="cls-6" d="M177.42,109.59c.18-.06.25-.34.15-.61s-.31-.45-.49-.39-.25.34-.15.62S177.24,109.66,177.42,109.59Z"/><path class="cls-6" d="M176.81,113.72c.17-.06.24-.33.15-.61s-.31-.45-.49-.39-.25.34-.16.62S176.63,113.79,176.81,113.72Z"/><path class="cls-6" d="M177.48,115.65c.13-.25.11-.54,0-.63s-.41,0-.55.28-.12.54,0,.64S177.34,115.91,177.48,115.65Z"/><ellipse class="cls-6" cx="177.84" cy="111.54" rx="0.34" ry="0.53" transform="translate(-25.54 59.54) rotate(-17.75)"/><path class="cls-6" d="M177,120.7c.18-.07.24-.35.13-.62s-.32-.44-.5-.37-.24.35-.13.62S176.82,120.77,177,120.7Z"/><ellipse class="cls-6" cx="161.42" cy="92.5" rx="0.7" ry="0.46" transform="translate(4.72 192.79) rotate(-62.43)"/><ellipse class="cls-6" cx="164.23" cy="101.99" rx="1.08" ry="0.71" transform="translate(-2.18 200.37) rotate(-62.43)"/><ellipse class="cls-6" cx="161.79" cy="100.42" rx="1.08" ry="0.71" transform="translate(-2.11 197.36) rotate(-62.43)"/><ellipse class="cls-6" cx="158.94" cy="94.18" rx="0.53" ry="0.34" transform="translate(1.88 191.45) rotate(-62.42)"/><path class="cls-6" d="M163.19,96.52c.13-.25.11-.54-.05-.63s-.41,0-.55.28-.12.54,0,.64S163.05,96.78,163.19,96.52Z"/><path class="cls-6" d="M160.87,114.63c.14-.26.12-.54-.05-.64s-.41,0-.55.29-.12.54,0,.64S160.73,114.88,160.87,114.63Z"/><ellipse class="cls-6" cx="163.82" cy="118.71" rx="0.53" ry="0.34" transform="translate(-17.24 208.96) rotate(-62.42)"/><path class="cls-6" d="M163.14,126.44c.17-.09.19-.38.05-.63s-.39-.39-.55-.29a.48.48,0,0,0,0,.63C162.73,126.41,163,126.54,163.14,126.44Z"/><ellipse class="cls-6" cx="159.09" cy="97.44" rx="1.03" ry="0.68" transform="translate(-0.93 193.34) rotate(-62.42)"/><ellipse class="cls-6" cx="158.72" cy="102" rx="0.67" ry="1.04" transform="translate(-7.32 12.41) rotate(-4.38)"/><ellipse class="cls-6" cx="161.91" cy="104.51" rx="0.67" ry="1.04" transform="translate(-7.5 12.66) rotate(-4.38)"/><ellipse class="cls-6" cx="158.66" cy="106.29" rx="1.03" ry="0.67" transform="translate(3.23 217.25) rotate(-69.34)"/><ellipse class="cls-6" cx="161.8" cy="109.06" rx="0.67" ry="1.04" transform="translate(-7.85 12.67) rotate(-4.38)"/><ellipse class="cls-6" cx="158.97" cy="110.48" rx="0.67" ry="1.04" transform="translate(-7.97 12.46) rotate(-4.38)"/><ellipse class="cls-6" cx="163.25" cy="115.01" rx="0.67" ry="1.04" transform="translate(-8.3 12.8) rotate(-4.38)"/><ellipse class="cls-6" cx="161.24" cy="117.68" rx="0.67" ry="1.04" transform="translate(-8.51 12.65) rotate(-4.38)"/><ellipse class="cls-6" cx="159.09" cy="120.82" rx="0.67" ry="1.04" transform="translate(-8.76 12.49) rotate(-4.38)"/><ellipse class="cls-6" cx="156.69" cy="126.42" rx="0.67" ry="1.04" transform="translate(-9.19 12.33) rotate(-4.38)"/><path class="cls-6" d="M157.45,132.26c.36,0,.63-.52.58-1.09s-.38-1-.75-1-.63.52-.59,1.09S157.08,132.29,157.45,132.26Z"/><ellipse class="cls-6" cx="158.3" cy="135.08" rx="0.67" ry="1.04" transform="translate(-9.85 12.48) rotate(-4.38)"/><ellipse class="cls-6" cx="161.91" cy="136.12" rx="0.67" ry="1.04" transform="translate(-9.92 12.76) rotate(-4.38)"/><ellipse class="cls-6" cx="163.82" cy="139" rx="0.67" ry="1.04" transform="translate(-10.13 12.91) rotate(-4.38)"/><ellipse class="cls-6" cx="167.12" cy="139" rx="0.67" ry="1.04" transform="translate(-10.12 13.16) rotate(-4.38)"/><path class="cls-6" d="M169.68,142.1c.37,0,.63-.52.58-1.09s-.38-1-.75-1-.63.52-.58,1.09S169.31,142.13,169.68,142.1Z"/><path class="cls-6" d="M172.36,141.07c.37,0,.63-.52.59-1.09s-.39-1-.75-1-.64.52-.59,1.09S172,141.1,172.36,141.07Z"/><path class="cls-6" d="M175.7,142.1c.36,0,.63-.52.58-1.09s-.38-1-.75-1-.63.52-.59,1.09S175.33,142.13,175.7,142.1Z"/><path class="cls-6" d="M179.81,141.07c.37,0,.63-.52.59-1.09s-.38-1-.75-1-.63.52-.59,1.09S179.44,141.1,179.81,141.07Z"/><ellipse class="cls-6" cx="162.17" cy="122.55" rx="0.67" ry="1.03" transform="translate(-30.32 57.25) rotate(-18.34)"/><ellipse class="cls-6" cx="164.2" cy="111.54" rx="0.67" ry="1.03" transform="translate(-26.76 57.33) rotate(-18.34)"/><ellipse class="cls-6" cx="158.05" cy="114.46" rx="0.67" ry="1.03" transform="translate(-27.99 55.55) rotate(-18.34)"/><path class="cls-6" d="M186,92.5c.21-.12.24-.5.06-.84s-.51-.51-.73-.38-.25.5-.07.84S185.73,92.63,186,92.5Z"/><ellipse class="cls-6" cx="182.8" cy="101.37" rx="0.71" ry="1.08" transform="translate(-26.16 96.12) rotate(-27.57)"/><ellipse class="cls-6" cx="185.24" cy="99.8" rx="0.71" ry="1.08" transform="translate(-25.16 97.07) rotate(-27.57)"/><path class="cls-6" d="M188.35,94c.16-.09.18-.38,0-.63s-.38-.38-.55-.29-.18.38,0,.64S188.18,94.12,188.35,94Z"/><path class="cls-6" d="M184.4,96.19c.16-.09.18-.38,0-.63s-.38-.38-.55-.29-.18.38,0,.64S184.23,96.29,184.4,96.19Z"/><path class="cls-6" d="M186.71,114.3c.17-.09.19-.38,0-.63s-.39-.39-.55-.29-.19.38-.05.63S186.55,114.4,186.71,114.3Z"/><path class="cls-6" d="M183.46,118.56c.17-.1.19-.38,0-.64s-.39-.38-.55-.28-.19.38-.05.63S183.3,118.65,183.46,118.56Z"/><path class="cls-6" d="M184.44,125.54c.14-.26.12-.54-.05-.64s-.41,0-.55.29-.12.54,0,.64S184.3,125.79,184.44,125.54Z"/><ellipse class="cls-6" cx="187.94" cy="96.82" rx="0.68" ry="1.03" transform="translate(-23.47 98.01) rotate(-27.58)"/><path class="cls-6" d="M189,101.45c0-.57-.22-1.06-.59-1.09s-.71.4-.75,1,.22,1.06.58,1.09S188.93,102,189,101.45Z"/><ellipse class="cls-6" cx="185.12" cy="103.9" rx="1.04" ry="0.67" transform="translate(67.4 280.55) rotate(-85.62)"/><ellipse class="cls-6" cx="188.36" cy="105.68" rx="0.67" ry="1.03" transform="translate(-25.17 73.26) rotate(-20.66)"/><path class="cls-6" d="M185.9,108.5c0-.57-.22-1.06-.59-1.09s-.7.41-.75,1,.22,1.06.59,1.09S185.85,109.07,185.9,108.5Z"/><ellipse class="cls-6" cx="188.06" cy="109.87" rx="1.04" ry="0.67" transform="translate(64.16 288.99) rotate(-85.62)"/><path class="cls-6" d="M184.44,114.45c.05-.57-.21-1.06-.58-1.09s-.71.41-.75,1,.21,1.06.58,1.09S184.4,115,184.44,114.45Z"/><path class="cls-6" d="M186.46,117.12c0-.57-.22-1.06-.59-1.09s-.7.41-.75,1,.22,1,.59,1.09S186.41,117.69,186.46,117.12Z"/><path class="cls-6" d="M188.61,120.26c0-.57-.21-1.06-.58-1.09s-.71.41-.75,1,.21,1.06.58,1.09S188.57,120.83,188.61,120.26Z"/><path class="cls-6" d="M185.5,122.16c.19-.53.06-1.08-.29-1.2s-.78.2-1,.74-.05,1.08.29,1.21S185.32,122.7,185.5,122.16Z"/><path class="cls-6" d="M183.47,111.16c.19-.54.06-1.08-.29-1.21s-.78.21-1,.75-.06,1.08.29,1.2S183.29,111.7,183.47,111.16Z"/><ellipse class="cls-6" cx="188.99" cy="113.84" rx="1.03" ry="0.67" transform="translate(21.46 257.4) rotate(-71.66)"/><path class="cls-6" d="M201.65,121.14c-2.22-2.15-3.24,1.08-3.24,1.08a56.86,56.86,0,0,1-.86,7.11l3.68,1.22a16.32,16.32,0,0,0,1.29-4.53S202.87,122.31,201.65,121.14Z"/><path class="cls-6" d="M184.08,142s-.55-2.72.45-2.55,1.53,2.18,1.53,2.18Z"/><path class="cls-6" d="M192.11,136.41c-.83-.13-.28,2.5-.07,3.39.49-.12,1.1-.29,1.84-.53C193.65,138.56,192.92,136.55,192.11,136.41Z"/><path class="cls-6" d="M190.66,140.21c-.66-1.12-1.77-2.7-2.67-2.6s-.29,2.38.16,3.57c.68-.25,1.44-.54,2.29-.88Z"/><path class="cls-6" d="M194,134.84c-.58.82.67,2.46,1.43,3.33a13.85,13.85,0,0,0,1.77-1.15C196.34,135.92,194.63,134,194,134.84Z"/><path class="cls-6" d="M199.62,134.09c-1-1-2.52-2.19-2.73-1.15s.6,2.17,1.3,3.05A12.27,12.27,0,0,0,199.62,134.09Z"/><path class="cls-9" d="M194.52,257.05c-.28-.9,0-10.43,0-10.43l-14.09,2.17-14.09-2.17s.28,10.52,0,11.42-8.51,2.84-8.51,2.84,4.3,9.27,22.6,9.27,23-9.27,23-9.27S194.8,257.94,194.52,257.05Z"/><path class="cls-10" d="M166.34,247.18c.22.17,1.85,2.32,2.09,2.49,5.78,4.1,6.65,5.22,11.64,5.42,5-.2,7.15-.89,12.52-5.9,1.81-1.69,1.42-2.25,1.81-2.57C185.42,246.6,175.33,247.12,166.34,247.18Z"/><path class="cls-9" d="M157.24,219s-2.7-4.15-4.23-4c-.93.1,1.22,2.2,1.49,4.58.35,3.18-2,3.59-1.26,5.39s1.7,8.07,4.17,7.8c1-.1,2-2.27,2-2.27S158.05,221.84,157.24,219Z"/><path class="cls-11" d="M156.53,230.8a2.38,2.38,0,0,0-2.29,1.91,1.88,1.88,0,0,0,.36,1.36,1.64,1.64,0,0,0,.89.61,2.74,2.74,0,0,0,2.37-.37c.12-.08.09-.16-.05-.17a1,1,0,0,0-.53.14.91.91,0,0,1-.61.21,1.84,1.84,0,0,1-.65-.13,1.42,1.42,0,0,1-.66-.5,1.8,1.8,0,0,1,0-2.18,1.51,1.51,0,0,1,.45-.42.9.9,0,0,1,.22-.11c.06,0-.05,0,0,0l.1,0h.1a.81.81,0,0,0,.5-.19c.1-.12-.09-.13-.18-.12Z"/><path class="cls-9" d="M202.25,218.88s2.27-4.4,3.81-4.39c.94,0-1,2.31-1,4.7,0,3.2,2.35,3.37,1.8,5.23s-.88,8.21-3.36,8.19c-1,0-2.21-2.06-2.21-2.06S201.74,221.78,202.25,218.88Z"/><path class="cls-9" d="M205.59,221.48h0c-.55,2.78-1.22,5.71-1.69,9.06-1.23,8.86-3.87,12.93-9.88,16.84-6.31,4.1-8.2,5.69-13.64,5.9-5.44-.21-7.33-1.8-13.63-5.9-6-3.91-8.65-8-9.89-16.84-.27-2-.62-3.79-1-5.53-.26-1.28-.52-2.52-.76-3.73a.07.07,0,0,0,0,0v0c-.87-4.44-1.4-8.54-.21-13.49,1.23-5.13,5.47-11.48,11.91-15.5h0a25.45,25.45,0,0,1,13.55-3.91c14,0,23.52,11.26,25.47,19.41C207.05,212.77,206.48,216.94,205.59,221.48Z"/><path d="M182.17,233a2.42,2.42,0,0,1-2.57-.13c-.16-.12-.71,0-.48.18a3.41,3.41,0,0,0,3.5.1c.1-.06.08-.15,0-.19a.55.55,0,0,0-.42,0"/><path d="M178.75,232.77a5.53,5.53,0,0,0-1.89-.47.42.42,0,0,0-.29.09c-.06.05-.07.12,0,.16a2.06,2.06,0,0,0,1,.23.4.4,0,0,0,.32-.12c.06-.09-.05-.15-.13-.14a1.71,1.71,0,0,1-.84-.2l-.29.25a4.83,4.83,0,0,1,1.69.42.42.42,0,0,0,.35,0c.07,0,.14-.14,0-.19"/><path d="M176.18,232.85a2.11,2.11,0,0,1-1.72-.92,1.92,1.92,0,0,1,.77-2.45c.09-.06,0-.13,0-.16a.53.53,0,0,0-.35.09,2.22,2.22,0,0,0-1.05,2.07,1.91,1.91,0,0,0,1.49,1.51,3.4,3.4,0,0,0,.71.12c.1,0,.28,0,.32-.13s0-.13-.13-.13"/><path d="M182.94,232.77a5.53,5.53,0,0,1,1.89-.47.42.42,0,0,1,.29.09c.06.05.07.12,0,.16a2.09,2.09,0,0,1-1,.23.4.4,0,0,1-.32-.12c-.06-.09.05-.15.13-.14a1.74,1.74,0,0,0,.84-.2l.29.25a4.94,4.94,0,0,0-1.7.42.41.41,0,0,1-.34,0c-.07,0-.15-.14,0-.19"/><path d="M185.51,232.85a2.11,2.11,0,0,0,1.72-.92,1.92,1.92,0,0,0-.77-2.45c-.09-.06-.05-.13,0-.16a.53.53,0,0,1,.35.09,2.24,2.24,0,0,1,1.05,2.07,1.91,1.91,0,0,1-1.49,1.51,3.4,3.4,0,0,1-.71.12c-.1,0-.28,0-.33-.13s0-.13.14-.13"/><path class="cls-12" d="M186.86,213.68c0,.51.07,1,.11,1.51l.09,1.15c1.37-.42,2.55-.71,3.45-.91a13,13,0,0,1,4-.54,11.42,11.42,0,0,1,2.58.56,7,7,0,0,1,1.38.56c1,.56,1.42,1.24,1.57,1.17s-.14-.67-.17-.73a6,6,0,0,0-2.17-2.42,8,8,0,0,0-2.65-.91,29.67,29.67,0,0,0-8.16.56"/><path class="cls-12" d="M174.55,213.32c0,.5,0,1,0,1.51s0,.77,0,1.15c-1.4-.33-2.6-.54-3.5-.68a12.81,12.81,0,0,0-4-.29,11.19,11.19,0,0,0-2.54.73,6.42,6.42,0,0,0-1.34.65c-1,.62-1.34,1.32-1.49,1.26s.09-.68.12-.74a5.91,5.91,0,0,1,2-2.55,8,8,0,0,1,2.59-1.08,29.82,29.82,0,0,1,8.17,0"/><path class="cls-13" d="M150.89,198.12a50.72,50.72,0,0,1,26.23-3.75c14.72,1.86,21.79,11.17,24.28,17.8a47.58,47.58,0,0,1,2.73,13.31s3.61,1.84,6.24-11.64c3.83-19.65-17.66-37-22.43-37S157.73,176.14,150.89,198.12Z"/><path class="cls-13" d="M153.53,192.38s-2.47-15.49,8.21-18.39,33.14-8.1,39.71,6Z"/><path class="cls-14" d="M153,224.19a9.31,9.31,0,0,1-2.35-4c-1.19-4.18-3.27-12.83-1.36-16.66.83-1.67,1.16-6.65,1.24-8.11.42-7.67-1.4-5.33,9.38-14s12.64-6.31,28.82-5.28,20.8,6.28,19.55,21.43c0,0-21.77-6.26-32-.71s-21.32,23.43-20.57,29.86A17.55,17.55,0,0,1,153,224.19Z"/><path class="cls-13" d="M148.73,211.22s16.46-21,35.7-21.23c0,0-24.63-3.21-35.55,14.57Z"/><path class="cls-13" d="M208.62,192.57s-19-6.92-26.31-7.51,23,.55,25.95,3.86Z"/><ellipse class="cls-3" cx="180.84" cy="239.35" rx="6.4" ry="1.35"/><path class="cls-11" d="M204.43,231.41a1.71,1.71,0,0,1,1.69,1.4,1.66,1.66,0,0,1-.2,1.15,1.44,1.44,0,0,1-.18.25s-.05.07,0,0l0,0-.11.08-.08,0h0l-.07,0-.14.07-.07,0h0a1.56,1.56,0,0,1-.32.07,1.47,1.47,0,0,1-.87-.19.55.55,0,0,0-.54.05c-.11.08-.22.27-.05.36a2.44,2.44,0,0,0,2,.15,2.25,2.25,0,0,0,1-.59,2.07,2.07,0,0,0,0-2.77,2.31,2.31,0,0,0-1.66-.7.55.55,0,0,0-.49.22c-.08.16.07.28.22.28Z"/><path class="cls-15" d="M181,238c-1.75,0-7.79.1-7.79.1s1.28,2.57,7.6,2.57c6.86,0,8-2.85,8-2.85Z"/><path class="cls-16" d="M186.87,237a10.57,10.57,0,0,0-2.17-.28c-1.79-.14-2.93.55-3.71.55s-1.91-.69-3.71-.55a7.88,7.88,0,0,0-1.76.46c-.79.24-1.05.3-2.11.66l-.76.25a22.84,22.84,0,0,0,8.39,1.25c1.54,0,2.78.05,4.32-.08.77-.06,2.47-.52,3.23-.67s.44-.16,1-.61a6,6,0,0,0-1-.3Z"/><path class="cls-12" d="M192.13,218.84a1.68,1.68,0,0,1,2,2.67,1.59,1.59,0,0,1-1.82.32,1.76,1.76,0,0,1-.86-2,1.52,1.52,0,0,1,.73-.95"/><path class="cls-12" d="M187,221.21s3.46-2.52,5.23-2.68c2.58-.24,5.76,1.09,6.68,2.27,0,0-4.21-2-6-1.76S187,221.21,187,221.21Z"/><path class="cls-12" d="M170,218.89a1.71,1.71,0,0,0-1.85.34,1.53,1.53,0,0,0-.5.78,1.67,1.67,0,0,0,.4,1.55,1.57,1.57,0,0,0,1.82.32,1.75,1.75,0,0,0,.87-2,1.59,1.59,0,0,0-.74-1"/><path class="cls-12" d="M175.1,221.26s-3.46-2.51-5.23-2.67c-2.58-.24-5.76,1.08-6.68,2.26,0,0,4.21-2,6-1.76S175.1,221.26,175.1,221.26Z"/><path class="cls-16" d="M181,237.38c-3.69,0-9.67-.42-9.67-.42s1.12,7.1,9.67,7.1,9.67-7.1,9.67-7.1S184.73,237.38,181,237.38Z"/><path class="cls-15" d="M181.08,237.38c-1.76,0-8.83-.29-8.83-.29s2.34,3.77,8.69,3.77c6.87,0,8.9-3.71,8.9-3.71Z"/><path class="cls-17" d="M181.15,237.64c-1.75,0-7.09-.29-7.09-.29s1.92,1.87,7.19,1.87,6.93-1.82,6.93-1.82Z"/><path class="cls-16" d="M191.1,236.44a15.57,15.57,0,0,1-2.08.21c-1.45-.12-3.21-.5-4.26-.57-1.8-.14-2.94.55-3.72.55s-1.92-.69-3.72-.55c-1,.07-2.8.45-4.26.57a15.57,15.57,0,0,1-2.08-.21c-.25.06.25,1.91,10.06,1.91S191.36,236.5,191.1,236.44Z"/></svg>