<svg xmlns="http://www.w3.org/2000/svg" viewBox="0 0 637.33 635.77"><defs><style>.cls-1{fill:#c3e6f7;}.cls-2{fill:#878686;}.cls-3{fill:#cccccb;}.cls-4{opacity:0.8;}.cls-5{fill:#afafaf;}.cls-6{fill:none;}.cls-7{fill:#e1d6b7;}.cls-8{fill:#ece1c5;}.cls-9{fill:#eae0cc;}.cls-10{fill:#a68c62;}.cls-11{fill:#d1b199;}.cls-12{fill:#6d482e;}.cls-13{fill:#311f11;}.cls-14{fill:#473f3c;}.cls-15{fill:#91795f;}.cls-16{fill:#3a3027;}.cls-17,.cls-26{fill:#9c3821;}.cls-17,.cls-28{opacity:0.42;}.cls-18{fill:#2f5629;}.cls-19{fill:#162115;}.cls-20{opacity:0.35;}.cls-21{fill:#3a6731;}.cls-22{fill:#39783a;}.cls-23{fill:#2c5428;}.cls-24{fill:#377e3d;}.cls-25{fill:#356b34;}.cls-27{fill:#d4a643;}.cls-29{fill:#848484;}.cls-30{fill:#d5c8aa;}</style></defs><g id="Layer_12" data-name="Layer 12"><circle class="cls-1" cx="318.06" cy="317.88" r="288.85"/><path class="cls-2" d="M452.68,494.28c111.53-60.88,133.6-171.92,49.3-248S285,157.82,173.45,218.7s-133.6,171.91-49.3,248C211.73,545.77,346.56,552.2,452.68,494.28Z"/><path class="cls-3" d="M452.68,480.45c111.53-60.88,133.6-171.92,49.3-248S285,144,173.45,204.87s-133.6,171.92-49.3,248C211.73,531.94,346.56,538.37,452.68,480.45Z"/><path class="cls-2" d="M453.37,481.41c20-10.94,38.72-24.29,54.82-40.48,14-14.06,25.9-30.33,34.19-48.4a132.88,132.88,0,0,0,12.32-52.12,127.14,127.14,0,0,0-10.2-52.52c-7.76-18.28-19.43-34.66-33.37-48.73a238.33,238.33,0,0,0-53.69-40.24,265.8,265.8,0,0,0-63.09-25A288.2,288.2,0,0,0,326,165a306.29,306.29,0,0,0-71,7.67,318.18,318.18,0,0,0-69.53,24.61c-21.17,10.36-41.3,23-58.88,38.81-15.11,13.55-28.31,29.31-38.09,47.14a137.21,137.21,0,0,0-16.48,51.67,125.79,125.79,0,0,0,5.88,52.77c6.13,18.33,16.31,35.11,28.93,49.69,14.58,16.83,32.32,31.05,51.21,42.77a259.46,259.46,0,0,0,61.46,27.69,284.53,284.53,0,0,0,67,11.69,308.58,308.58,0,0,0,68.48-4,317.25,317.25,0,0,0,98.34-34.14c1.8-1,.18-2.77-1.38-1.92a313.63,313.63,0,0,1-64.35,26.32,310.13,310.13,0,0,1-67.49,11.38,293.48,293.48,0,0,1-67-3.89,268.2,268.2,0,0,1-63.79-19.56,248,248,0,0,1-56.93-35.61c-15.8-13.2-29.84-28.54-40.18-46.43a130.82,130.82,0,0,1-17-51,125.59,125.59,0,0,1,5.48-52.08,153,153,0,0,1,27.06-49c13.58-16.77,30.13-31,48.12-42.8a300.16,300.16,0,0,1,66-32.17A309.47,309.47,0,0,1,291.28,169a294.12,294.12,0,0,1,69.16.86,273.75,273.75,0,0,1,65.33,17A252.53,252.53,0,0,1,484,219.49c16.87,12.69,32.28,27.47,44.17,45a135.54,135.54,0,0,1,21.3,50.44,124.5,124.5,0,0,1-1.24,51.85,144.85,144.85,0,0,1-23.15,50.14C513,434,497.7,448.77,480.83,461.19A254.69,254.69,0,0,1,452,479.49C450.18,480.48,451.81,482.26,453.37,481.41Z"/><g class="cls-4"><path class="cls-5" d="M484.2,247.48c72,65,53.14,159.81-42.1,211.8l-9.34,5.1c-83.53,41.8-221.49,36.35-293.49-28.64s-53.14-159.81,42.11-211.8S412.2,182.49,484.2,247.48"/><path class="cls-2" d="M482.82,248c13.82,12.51,25.66,27.34,33.5,44.32a108.76,108.76,0,0,1,10.12,47.95A113.62,113.62,0,0,1,514,388.44c-8.41,16.67-20.46,31.38-34.37,43.78a197.59,197.59,0,0,1-25.06,18.89c-6.71,4.29-13.7,8.07-20.68,11.88-14.63,8-30.85,13.49-46.94,17.7a303.37,303.37,0,0,1-57.37,9.08,329.34,329.34,0,0,1-60.06-1.65,288.91,288.91,0,0,1-57.67-12.81A218.1,218.1,0,0,1,161,450.89a160.66,160.66,0,0,1-40.82-38.17A117.72,117.72,0,0,1,99,365.86a106.89,106.89,0,0,1,1.82-48.57c4.58-16.89,13.07-32.53,24-46.19,12.64-15.86,28.38-29.08,45.51-39.85a246.28,246.28,0,0,1,57.16-26.15,291.58,291.58,0,0,1,61.22-12.2,307.75,307.75,0,0,1,62.19.6,279.53,279.53,0,0,1,59.06,13,223.16,223.16,0,0,1,51.76,25.11A181.21,181.21,0,0,1,482.82,248c.66.59,3.37-.52,2.75-1.07a198,198,0,0,0-47.28-31.14,256.66,256.66,0,0,0-57.05-19.06,302.77,302.77,0,0,0-61.88-6.52,308.18,308.18,0,0,0-63.11,6.21,279.18,279.18,0,0,0-59.67,19.19c-19.41,8.83-37.86,20.07-53.92,34.15-14.15,12.41-26.47,27-35.21,43.77a114.88,114.88,0,0,0-13.29,48.4,108.4,108.4,0,0,0,9.71,49c7.76,17.15,19.6,32.23,33.48,44.87a187.32,187.32,0,0,0,46.35,30.47,257.76,257.76,0,0,0,55.91,18.57,321.39,321.39,0,0,0,60,6.93,328.81,328.81,0,0,0,60-4.1A274.71,274.71,0,0,0,414.78,473a238.14,238.14,0,0,0,42.07-21.62C474,440.43,489.69,427,502.24,411c10.85-13.87,19.29-29.74,23.7-46.84a107.62,107.62,0,0,0,1.19-48.91C523.51,298,515.6,282,505,268a154.3,154.3,0,0,0-19.44-21c-.65-.59-3.36.51-2.75,1.07Z"/></g><path class="cls-6" d="M272.43,425.34c3.82,2.85,7.7,5.77,10,9.33s2.9,7.94.09,11.43a1.85,1.85,0,0,1-1,.7,2.17,2.17,0,0,1-2-.86c-5.46-6.27-1.77-15.07-7.2-21.37"/><path class="cls-6" d="M277.23,450.75,255.83,442a3,3,0,0,0-2-.3c-1.07.34-.84,1.43-.31,2.14,2.2,2.87,6.5,4.71,11,5.58a76,76,0,0,0,14,.86"/><path class="cls-7" d="M451.1,341.44c10.44,1.67,19,6,23.44,10.69s5,9.84,3.56,14.58c-.59,1.92-17.23,10.27-16.47,12.27s3.38,4.07,5.05,6.12c2.81,3.46,12.06,4.88,12.18,8.4.14,4.47,6.92,4.72,7.06,9.2.2,6.13.38,12.35-3,18.06-2.33,4-6.32,7.63-10.3,11.24l-18.55,16.87c-3.46,3.15-8.05,6.64-16.09,6.77-2.38,0-4.88-.24-7.19-.05-5.22.42-7.56,3-9.8,5.1-11.47,11-38.33,17.74-66.52,15.84s-55.72-12.76-63.25-25.69c-1.49-2.56-2.15-5.4.78-7.38,1.64-1.11,4.23-1.82,6.16-2.81,9.19-4.74.46-13.42,5.16-19.57,3.5-4.59,13.73-6.91,20.73-10.39,9.93-4.95,13.14-12.14,16.38-19a287.89,287.89,0,0,1,18.78-33.62c3.34-5.15,7-10.35,13.9-14.49,8.62-5.13,22.23-8.3,37.11-8.63s30.85,2.16,43.54,6.81"/><path class="cls-8" d="M404.79,432.81c-7.29-4-16.67-5.59-25.8-6.95-6.39-.95-13-1.83-19.5-1s-13,3.68-15.07,8.06c-1.21,2.53-.93,5.39-2.91,7.69-3.51,4.09-12.29,4.46-16.41,8.28-3,2.8-2.51,7,.67,9.59s8.54,3.63,13.45,3c5.4-.64,10.43-3,15.86-2.79a47.9,47.9,0,0,1,7.87,1.45c11,2.32,23.9.19,32.54-5.38s12.7-14.37,10.27-22.23"/><path class="cls-9" d="M341.67,405.29a37.15,37.15,0,0,0-1,17.84c.52,2.71,1.59,5.65,4.85,7.13,4.28,1.95,10,.45,15.21.53,9.39.14,16.59,5.52,25.4,7.64,8.43,2,18.17.91,26.06-2.27a43.67,43.67,0,0,0,18.34-13.81,45.35,45.35,0,0,1,5-6.08c3.81-3.58,9.62-5.89,13.67-9.34s5.69-9.14.79-11.82c-4.33-2.37-10.66-.91-16.14,0-15.42,2.44-31.13-.84-46.73-1.89s-34,1.17-42.31,10.64"/><path class="cls-9" d="M434.61,360.2A27,27,0,0,0,421,374c-2.37,5.43-2.86,11.13-3.34,16.77-.32,3.75-.56,7.73,2.08,10.95,4.12,5,13.65,6.32,22.05,6.19,14.07-.23,29.63-4,36.19-12.76a29.4,29.4,0,0,0,4.1-9l6.37-19.57c.55-1.71,1.06-3.62-.28-5.06s-4.07-1.88-6.53-2.19c-13-1.65-27.33-3.12-38.76,1.76"/><path class="cls-10" d="M455.43,280s40.63-12,52.3-13.21,32.5-3.85,24.86,7.24-8,8.37-8.56,15.3,8.57,12,6,21.49-1.8,7.4-26,4.74-46.59-10.83-46.59-10.83Z"/><path class="cls-11" d="M480.84,300.12S366.71,338.79,297.2,338.8s-126.46-20.16-148.75-32.43-30.87-24.94-30.71-26,.41-5.6,6.37-13.2,92.61-66,157.15-59.08,148.09,58.69,160,63.87,50,13.3,53.43,22.55Z"/><path class="cls-12" d="M281.16,208.08C216.62,201.16,130,259.54,124,267.15a38.56,38.56,0,0,0-4.59,7.23c12.83,3,33.08,7.33,48.13,8.15,23.75,1.3,38.19,21.58,52.1,8.81s15-19.88,24.93-12.57,9.74,20.82,30.06,32.67,27.63,21.41,55.89,14.19S445.74,310,459.92,298.45c5.68-4.64,6.63-11.71,5.72-18.51-9.78-3.1-19.47-5.81-24.49-8C429.25,266.76,345.69,215,281.16,208.08Z"/><path class="cls-13" d="M441.25,272c-11.9-5.18-95.45-56.95-160-63.87s-151.19,51.47-157.15,59.08c-.89,1.13-1.64,2.19-2.29,3.18,6.73,2.13,26.34,7.23,46.33,1.82,24.66-6.67,44.67-31.64,57.44-30.14s18.58,9,28.53,1.53,11.9-17.37,28.22-14.88,57.62,5.54,68.6,15.76,28.48,14.16,41.53,16.79,39.11,14.46,53.37,15.24a106.4,106.4,0,0,1,21.09,3.86C456.75,277.07,446.47,274.22,441.25,272Z"/><path class="cls-14" d="M166.4,314.69s31.14-3.15,38.89-19.54-11.51-42.75-11.51-42.75,14.84,7.13,19.3,20.74,1.64,31.4-14.89,39.28S180.43,321,180.43,321Z"/><ellipse class="cls-15" cx="168.8" cy="251.04" rx="5.57" ry="4.71" transform="translate(-47.75 39.8) rotate(-11.79)"/><path class="cls-16" d="M118.72,276.31l11.57,3.87-12.55.18A32.18,32.18,0,0,1,118.72,276.31Z"/><path class="cls-10" d="M247.34,208.89s39.25-6.82,57.79-4,39.45,1.63,39.27,6.74-2,7.57,5.53,8.5,15.81-.68,17.19,2-1,6.85-1,6.85,9.3-.77,16.85,2.2,3.07,9.13,3.07,9.13,11.88-2.17,17.33.94,41.73,8.82,52.85,11.73-12.75,15-12.75,15L438,270.47s-78.56-40.88-111.16-50.6S247.34,208.89,247.34,208.89Z"/><path class="cls-10" d="M350.73,333.53s63.8-.69,79.09-1.45,14.52-4.77,14.52-4.77,11,.4,11.06-4.76-14.15-10.25-14.15-10.25Z"/><path class="cls-17" d="M480.84,300.12S366.71,338.79,297.2,338.8s-126.46-20.16-148.75-32.43-30.87-24.94-30.71-26,.41-5.6,6.37-13.2,92.61-66,157.15-59.08,148.09,58.69,160,63.87,50,13.3,53.43,22.55Z"/><path class="cls-10" d="M278.08,224.57s16.76,30.76-.83,73.1C277.25,297.67,316.4,260.71,278.08,224.57Z"/><path class="cls-10" d="M241.89,224.69s21.17,28.5,9.64,72C251.53,296.73,285.41,256.21,241.89,224.69Z"/><path class="cls-10" d="M315.3,226.25s11.68,32.67-12.18,73C303.12,299.25,347.32,266.77,315.3,226.25Z"/><path class="cls-10" d="M343.54,238.83s12.94,28.61-9.09,63C334.45,301.86,377,274.71,343.54,238.83Z"/><path class="cls-10" d="M376.92,253.51s4.12,23.95-19.11,47.36C357.81,300.87,395,286,376.92,253.51Z"/><path class="cls-18" d="M274.64,442c4.44,3.11,12.9,1.35,16.39-2.44s3.2-8.63,1.92-13-3.44-8.59-3.26-13c.26-6.65,5.71-13.3,3.36-19.7s-11.22-9.93-17.47-14.68c-6.05-4.6-9.75-10.47-15-15.54a62,62,0,0,0-21.38-13c-10-3.72-21.62-5.67-29.84-11.08-3.23-2.12-5.79-4.71-9.12-6.76-4.75-2.94-10.81-4.64-16.89-6-4.5-1-9.31-1.86-14-1.15a20.65,20.65,0,0,0-13.61,8.27c-2.74,3.89-3.73,8.23-4.69,12.48l-10.65,47.54c-1.63,7.25-3.16,15,1.33,21.52,4.19,6.08,13.32,10.59,14.19,17.36a4.29,4.29,0,0,0,.84,2.7c.87.91,2.54,1.23,4.09,1.45,7.64,1.09,15.82,1.41,22.39,4.26,7.33,3.19,11.6,9.12,19.23,12,10,3.71,22.38,1,33.84.45,6.1-.32,12.27,0,18.29-.84,8.58-1.16,16.56-4.65,21.87-9.55"/><path class="cls-19" d="M175.19,352.1c1.38-5.39,8.64-5.51,8.18-8.31-.43-2.59-7.3-6-11.89-4.92a19.12,19.12,0,0,1-4.35.82c-2.12,0-4.2-.93-6.32-1.4a16,16,0,0,0-13.43,3.24c-3.41,2.8-5.36,6.72-6.61,10.74-1.78,5.75-2.08,12.5,2.11,17.87a37.81,37.81,0,0,1,3.15,4c2.48,4.3.12,9.35,2.48,13.7,2.18,4,7.51,6,11.19,9.17,2.39,2.06,4.13,4.66,6.74,6.51,4.39,3.11,10.23,3.48,15.58,4.62a48.43,48.43,0,0,1,25,13.94l3.49-3.21c-4.64-7.74-14-12.7-22.93-16.76s-18.52-8-24.9-14.86c-4.58-4.93-7.12-11.3-6.17-17.1.9-5.47,6.18-11.87,12.18-12.24,1.32-.08,3.44.08,4.93-1.17S174.72,353.9,175.19,352.1Z"/><g class="cls-20"><path class="cls-6" d="M174.77,344c-5,3.14-13,2.55-18.31,5.45a10.83,10.83,0,0,0-5.26,6.5,22.1,22.1,0,0,0-.47,7.51,55.75,55.75,0,0,0,1.6,12.45,51.38,51.38,0,0,0,2.93,7.43,71.23,71.23,0,0,0,4.88,9.08,22,22,0,0,0,4.73,5.4c7.13,5.59,19.88,6.34,27.08,11.89"/></g><path class="cls-21" d="M175.49,345.34c2-7.35,11.19-13.16,21.41-15.5s21.26-1.73,31.63-.14c3.79.58,7.66,1.32,10.65,3s4.93,4.38,7.17,6.7c5,5.18,12.17,9.09,17.93,13.85,8.49,7,13.66,15.65,18.71,24.15.42.71.81,1.6.1,2.21-1,.83-2.85.32-4-.31-5.91-3.21-9.16-8.17-12.88-12.71a87.43,87.43,0,0,0-15.94-14.94c-5.48-4-11.82-7.72-19.5-9.29s-16.94-.58-22.47,3.61c-5.27,4-7.51,10.72-15.06,11.86-4.27.64-9.23-.86-12.78,1-2.25,1.16-4.14,3.59-6.7,2.92a3.69,3.69,0,0,1-2-1.55c-4.52-6.2-2.06-14.6,5.66-19.29"/><path class="cls-19" d="M262.05,362a94.83,94.83,0,0,0-21.7-19,36.61,36.61,0,0,0-13.91-5.52c-5.22-1-11.26-.57-15.58,1.82-4.6,2.55-6.8,7-12,8.87-3,1.08-6.73,1.23-9,3a27.07,27.07,0,0,1-2.43,2.2c-2.88,1.77-7.73.37-10.92,1.86-2.85,1.34-2.89,4.18-2.62,6.53,1.71-2.51,5.38-4.36,9.32-4.67,2.73-.22,5.52.24,8.21-.2a14.46,14.46,0,0,0,9-5.81c2-2.59,3.56-5.42,6.53-7.52,5.24-3.69,13.24-3.46,15.32-3.42,4.68.08,9.18,1.09,15.29,3.83A69.33,69.33,0,0,1,262.05,362Z"/><path class="cls-22" d="M191,441.61c7.61,3.2,19.54,2.49,29.38-.55A76,76,0,0,0,245,427.75c2.46-1.92,4.84-4,5.75-6.17s.19-4.49,0-6.72c-.43-4.95,1.91-10.15,2.43-15.2.78-7.45-2.37-14.39-5.49-21.2a1.88,1.88,0,0,0-1.75-1.26,3.17,3.17,0,0,0-2.85,1.88c-1.92,4.26-.34,8.36.54,12.44a36.59,36.59,0,0,1,0,15,23.08,23.08,0,0,1-7.41,13.36,33,33,0,0,1-20.39,7.53c-7.37,0-14.67-2.71-21.45-.14-3.84,1.46-6.44,4.38-10.7,4.88-2.69.32-6.16-.22-7.59,1.23a1.56,1.56,0,0,0-.29,1.71c1.63,5.33,10.48,8.9,20.33,8.21"/><path class="cls-21" d="M244.21,395.48a32.06,32.06,0,0,1-1,20,20.32,20.32,0,0,1-6.2,8.93A25.58,25.58,0,0,1,223.43,430c-5.66.55-11-1-16.62.21-3.19.66-6.23,2.17-9.4,2.15-1.26,0-2.43-.26-3.71-.18-3.7.25-6.28,3.07-10,3.6a9.32,9.32,0,0,1-7.43-2.48,19.76,19.76,0,0,0,11.08-1.37c2.3-1,4.07-2.47,6.51-3.37,3.71-1.37,8.09-1.19,11.78-.62s7.24,1.47,11.27,1.36a30.15,30.15,0,0,0,14.69-4.6,27,27,0,0,0,8.67-8.58A27.58,27.58,0,0,0,244.21,395.48Z"/><path class="cls-23" d="M237.86,344.63c2.27,1.65-.17,7.25-5.3,9.23-2.68,1-3.74.14-6.39,1.17-4.15,1.61-4.27,5.88-7.71,8.18S209,365.12,205,367c-2.61,1.23-4.19,3.29-6.6,4.7-2.82,1.64-6.51,2.27-10.06,2.85L153,380.35c-7.25,1.19-14.63,2.41-21.07,5.07s-11.9,7.05-12.8,12.18c-1.4-6.51,4.36-13.07,12-17.14S148,374.25,157,372c21.51-5.48,31.63-9.4,40.25-16.21,7.39-5.84,9.47-11,16.75-11.7,4.69-.46,7.51,1.32,16.57.63C234.83,344.36,236.7,343.78,237.86,344.63Z"/><path class="cls-19" d="M234.49,346.43c-14.14,2.59-21.44,6.85-25.5,10.33-2.6,2.21-4,3.88-7.85,6.6-4.75,3.32-11.21,5.07-17.47,6.73-8.43,2.23-16.87,4.47-25.51,6.24-14.33,2.94-31.22,5.68-37.76,15.08,14-10.54,33.89-17.22,54.23-18.23a80.59,80.59,0,0,0,11.56-.93c4.26-.84,7.63-2.33,16.07-7.21,9.72-5.63,12.35-7.89,20.16-12.32C227.47,349.85,231.78,347.72,234.49,346.43Z"/><path class="cls-22" d="M179.82,384.17c-.24-2.18,14.75-6.29,27.42-7.76a42.19,42.19,0,0,0,11.19-2.33c3.56-1.36,6.31-3.56,9.52-5.31,11.69-6.39,30.49-5.5,39.29,2.5,2.37,2.15,4,4.68,6.6,6.7a57.64,57.64,0,0,1,4.8,3.59c3.19,3.12,2.8,7.81-.89,10.79s-10.32,3.95-15.24,2.23c-9.14-3.19-9.87-13.1-19.07-16.21-6.47-2.19-14.37,0-20.6,2.72-8.41,3.68-11.45,6.2-19.63,6.65-3,.17-5.49-.13-10.47-.73C185.71,386.17,180,385.48,179.82,384.17Z"/><path class="cls-6" d="M180,383a92.66,92.66,0,0,0,39.57-6.05c3.7-1.48,7.27-3.22,11.32-4.1,7.17-1.57,14.83-.26,21.87,1.34a21.6,21.6,0,0,1,7.24,2.6c2.38,1.62,3.35,4,5,6a9,9,0,0,0,7.91,3.48"/><path class="cls-24" d="M218,395.53c7.32-.86,9-6.5,12.55-6,3.3.44,6.28,5.9,4,9.41a13.17,13.17,0,0,0-2,3.35c-.44,1.65.35,3.3.53,4.95.43,3.89-2.64,7.76-7,10.3s-9.88,3.9-15.4,4.71c-7.88,1.15-16.76,1.12-22.91-2.34a41.61,41.61,0,0,0-4.53-2.59c-5.12-2.1-12.19-.46-17.39-2.46-4.77-1.85-6.3-6.06-9.67-9-2.2-1.94-5.24-3.39-7.11-5.48-3.16-3.53-2.43-8.08-2.81-12.27-.68-7.52-5.41-14.75-13.05-20l4.92-2.58c9.15,3.9,13.71,11.33,17.15,18.44s6.61,14.68,14.27,19.89a34.46,34.46,0,0,0,21.07,5.46c7.34-.48,16.78-4.33,18.51-9,.38-1,.61-2.66,2.55-3.78S215.53,395.81,218,395.53Z"/><path class="cls-25" d="M208.17,386.79c2.55-.31,7.83-1.07,10.59.91a4.84,4.84,0,0,1,.87,6.86c-1.68,2.21-4.69,3.78-7.76,5.09-7.59,3.24-16.57,5.37-25.21,4.39-12.91-1.45-21.88-9.16-32.17-14.65a92.5,92.5,0,0,0-35.05-10,35,35,0,0,1,10.2-3.42c16.67-2.88,22.88,8.18,46.65,10S208.17,386.79,208.17,386.79Z"/><path class="cls-19" d="M220.63,390.94a17.93,17.93,0,0,0-8.33-2.59c-3.85-.21-5.85,1-10.8,1.77a52,52,0,0,1-12.58.39c-6.46-.47-6.42-1.65-16.63-3.22-5.23-.8-6.35-.66-9.64-1.58s-4.46-1.7-9.4-4c-7.52-3.44-11.28-5.16-15.26-5.62a30.49,30.49,0,0,0-11.69,1.08,38.25,38.25,0,0,1,9.1-1.76c12.37-.83,16.13,5.13,31.94,9.11,14.76,3.72,32.46,3.81,37.95,2.55a35.05,35.05,0,0,1,7.85-.72,10.85,10.85,0,0,1,4.4.66A5.14,5.14,0,0,1,220.63,390.94Z"/><path class="cls-19" d="M260.81,402.9c5.43,3.81,1.17,8,4.71,9.3,3.28,1.22,11.37-.77,12.94-3.95a8.8,8.8,0,0,1,1.69-2.93c1.28-1.2,3.63-1.85,5.47-2.78,4.3-2.18,5.57-5.91,4.38-9.42s-4.57-6.81-8.5-9.78c-5.61-4.24-13.29-8.21-22.08-8.86-2.18-.16-4.37-.11-6.53-.45-6.52-1-11-5.19-17.46-6.3-6-1-11.55.87-17.47,1.17-3.85.19-7.93-.29-11.67.15-6.29.73-10.26,3.83-14.83,6.22-8.2,4.28-19.58,6.57-31.43,6.31l1.62,3.78c11.82,1.73,23.26-.75,33.43-3.54s20.54-6,32.41-5.73c8.53.19,17.48,2.33,23.66,6.13C257,385.8,261.22,392.39,258,396c-.7.79-2.18,1.89-1.63,3.44S259,401.63,260.81,402.9Z"/><g class="cls-20"><path class="cls-6" d="M270.45,407.21c-.61-4.6,5-8.81,4.78-13.43-.1-2.51-1.93-4.83-4.37-6.63a45.32,45.32,0,0,0-8.47-4.49,128.39,128.39,0,0,0-15.46-6.09c-3.38-1-6.9-1.79-10.43-2.53-4.45-.92-8.95-1.78-13.53-2.34a45.22,45.22,0,0,0-9.16-.36c-10.84.88-19.45,7.67-30.28,8.63"/></g><path class="cls-21" d="M268.5,406.88c7.34,5.25,8.52,13.73,5.05,20.83s-10.9,13-19,18a30.1,30.1,0,0,1-10,4.32c-3.95.77-8.09.33-12.15.29-9-.1-18,1.77-27,2.35-13.31.86-26.51-1.07-39.47-3-1.09-.16-2.36-.44-2.64-1.19-.37-1,1.35-1.79,2.8-2.09,7.32-1.54,15.07-.59,22.62-.14a166.57,166.57,0,0,0,27.07-.61c8-.84,16.16-2.35,22.65-5.81s11-9.25,9.44-14.74c-1.45-5.23-7.93-10.28-4.67-15.19,1.85-2.78,6.6-4.74,6.64-7.78,0-1.92-1.66-4.35.66-5.42a6.05,6.05,0,0,1,3-.28c10,.93,18.25,7.05,19,14.05"/><path class="cls-19" d="M196.61,446.5A172.85,172.85,0,0,0,232,444.93a41.32,41.32,0,0,0,14.87-4.76c4.3-2.41,7.5-6.05,7.34-9.84-.17-4-4-7.77-3-11.78.55-2.28,2.65-4.5,2-6.74-.27-.89-1-1.7-1.09-2.62-.31-2.63,4.26-4.57,4.46-7.22.18-2.36-3.1-4-6-5.15a6,6,0,0,1-.21,7.89c-1.4,1.67-3.63,3-4.76,4.76-1.7,2.68-.48,5.77,1.31,8.36s4.15,5.06,4.78,7.92c1.12,5-4,9.44-5.31,10.59-2.93,2.61-6.85,4.58-13.74,6.5C219.57,446.45,206.66,447,196.61,446.5Z"/><path class="cls-23" d="M231.47,442.56c-3.3.35-8.34-4.18-7.53-8.19.42-2.1,2.11-2.19,2.51-4.27.64-3.26-4.25-5.73-4.84-9s3.49-6.4,3.73-9.79c.16-2.17-1.28-4.22-1.46-6.38-.21-2.51,1.3-5,2.78-7.29q7.38-11.61,14.74-23.22c3-4.77,6.08-9.63,6.89-14.76a13.67,13.67,0,0,0-6.41-14.1c8.42,2.87,12.56,9.82,12.68,16.43s-3.05,13.05-5.84,19.43c-6.67,15.24-8.25,23.17-5.56,31.88,2.32,7.46,7.06,11.54,3.46,16.06-2.31,2.91-6.09,3.51-10.8,9C233.61,441,233.16,442.38,231.47,442.56Z"/><path class="cls-19" d="M231.42,439.64c5.56-9.46,5-16,3.45-20.24-1-2.71-2.13-4.42-2.93-8.15-1-4.55.92-9.19,2.78-13.66a196.22,196.22,0,0,1,8.22-17.95c5.27-9.76,12.33-20.85,5.37-29.84,3.75,13.87-.54,28.86-11.7,40.93-2.13,2.3-4.51,4.52-5.94,7.06-1.61,2.89-1.92,5.63-1.35,13.15.65,8.67,1.67,11.42,2.1,18.33A85.28,85.28,0,0,1,231.42,439.64Z"/><path class="cls-23" d="M132.2,415.62c-3.3.36-8.33-4.18-7.52-8.19.42-2.1,2.1-2.19,2.51-4.27.64-3.26-4.26-5.73-4.85-9s3.5-6.4,3.74-9.79c.16-2.17-1.29-4.22-1.46-6.38-.21-2.51,1.3-5,2.78-7.29l14.73-23.22c3-4.77,6.09-9.62,6.9-14.76s11.7-1.22,6.27-4.62c8.43,2.87-.12.34,0,6.95s-3.05,13.05-5.84,19.43c-6.67,15.24-8.26,23.17-5.56,31.88,2.31,7.46,7,11.54,3.46,16.06-2.31,2.91-6.1,3.51-10.8,9C134.35,414.05,133.89,415.44,132.2,415.62Z"/><path class="cls-19" d="M132.16,412.7c5.56-9.46,5-16,3.45-20.24-1-2.71-2.13-4.42-2.93-8.15-1-4.55.91-9.19,2.78-13.66a193.47,193.47,0,0,1,8.21-17.95c5.28-9.76,19.54-14,12.58-23,3.75,13.86-7.74,22-18.91,34.09-2.12,2.3-4.51,4.52-5.93,7.06-1.62,2.89-1.93,5.63-1.36,13.15.66,8.67,1.68,11.42,2.1,18.33A83.67,83.67,0,0,1,132.16,412.7Z"/><path class="cls-22" d="M220.67,387.49c2.67,1.09-1.64,11.87-7.62,19.87-1.27,1.7-3.33,4.08-4.07,7.64-.58,2.78.31,5.58.4,8.37.33,10.21-12.11,20.34-26.76,20.83-3.94.13-7.89-.37-11.81-.05-2.37.2-4.71.69-7.09.71-5.57,0-10.8-2.82-12-6.58s1.67-8,6.66-9.87c9.26-3.38,21.24,1.79,30.45-1.67,6.48-2.43,8.74-8.12,9.34-13.19.81-6.83-.27-10,4.17-14.84,1.62-1.79,3.48-3,7.2-5.51C214.76,389.69,219.05,386.83,220.67,387.49Z"/><path class="cls-6" d="M221.94,388.27c-9.26,7.16-15.28,16.31-17,25.78-.52,2.92-.66,5.92-2.09,8.71-2.53,4.94-8.7,8.54-14.83,11.61A23.23,23.23,0,0,1,180.6,437c-3.33.44-6.66-.34-10-.55s-7.34.39-8.85,2.52"/><path class="cls-24" d="M184.28,402.69c-3.45,4.62,2.1,8.73-.61,10.48-2.5,1.62-10.67.24-13.36-3.05a14.86,14.86,0,0,0-2.7-3c-1.65-1.18-4.05-1.66-6.09-2.49-4.79-1.95-7.43-5.86-7.73-9.76s1.46-7.78,3.87-11.36c3.44-5.11,8.86-10.11,16.62-11.65a56,56,0,0,0,5.77-1.1c5.55-1.71,7.94-6.64,13.42-8.45,5.05-1.66,10.88-.16,16.4-.39,3.59-.15,7.12-1.06,10.7-.94,6,.2,10.87,3.17,16,5.31a62,62,0,0,0,31.16,3.85c0,1.41,0,2.82,0,4.23-10.09,3-21.51,1.38-31.88-.67s-21.1-4.52-31.82-3.11c-7.7,1-15,4.16-19.14,8.85-3.89,4.42-5.15,11.92-.79,15.51,1,.79,2.74,1.85,2.85,3.57S185.43,401.14,184.28,402.69Z"/><path class="cls-25" d="M200.4,402.05c-1.18,1.62-3.5,5-7.49,5.47-3.35.38-7.1-1.35-8.52-3.36-1.54-2.19-1.55-4.78-1.21-7.25a23.6,23.6,0,0,1,10.2-16.73c9.53-6.49,23.94-7.22,36.58-10A88.1,88.1,0,0,0,262.87,356a14.62,14.62,0,0,1-2.21,7.68c-6.77,11.06-23.41,8.35-40,20.78S200.4,402.05,200.4,402.05Z"/><path class="cls-19" d="M188,406.77a18.25,18.25,0,0,0,8.07-3.26c2.58-2.06,2.43-3.85,4.5-7.11a28.44,28.44,0,0,1,7.18-7.33c4.47-3.39,5.81-2.71,13.84-7.6,4.11-2.51,4.63-3.22,7.68-4.56s4.7-1.57,10.33-3.09c8.57-2.32,12.85-3.48,15.8-5.47a15.48,15.48,0,0,0,5.84-7.22,16.82,16.82,0,0,1-3.48,6.13c-6.53,7.47-15.75,6.24-30,12.95-13.29,6.26-24.14,16.21-26,20a17.51,17.51,0,0,1-3.93,4.85,8.62,8.62,0,0,1-3.44,2.11A10.86,10.86,0,0,1,188,406.77Z"/><path class="cls-6" d="M319.31,399.34c-.33,3.69-1.07,7.91-5.44,10.08a17.52,17.52,0,0,1-6.07,1.48c-2.2.2-4.88,0-5.86-1.34a2.27,2.27,0,0,1,.53-2.88,14.71,14.71,0,0,1,3-2.2,34.49,34.49,0,0,0,8.31-7.13,13.52,13.52,0,0,1,2.52-2.62,5.92,5.92,0,0,1,4-1.11,1.5,1.5,0,0,1,.83.3.85.85,0,0,1,.19.68l-.11,4.25"/><path class="cls-6" d="M316.8,394.39a95.32,95.32,0,0,0-10.63,7.24c-1.94,1.52-3.87,3.24-4.18,5.24s1.76,4.26,4.64,4.13c2.62-.12,4.35-1.95,5.63-3.57l6.84-8.7a3.7,3.7,0,0,0,1-2,1.65,1.65,0,0,0-1.66-1.52"/><path class="cls-9" d="M305.26,415a60.87,60.87,0,0,0,16.21,13.51c3,1.74,6.59,3.39,10.49,3,5.14-.55,8.13-4.3,12.18-6.64,7.34-4.23,18-3.63,26.76-6.14,8.4-2.41,14.8-7.73,17.84-13.69s2.95-12.49.95-18.57a33.77,33.77,0,0,1-2-6.73c-.47-4.38,1.79-8.75,1.63-13.14a9.94,9.94,0,0,0-10.63-9c-5.58.27-9,4.26-12.43,7.42-9.52,8.9-24.68,13.76-37.65,20.2s-25,16.56-22.37,27.31"/><path class="cls-26" d="M236.44,412.71a19.6,19.6,0,0,1-.58-11.22,1.59,1.59,0,0,1,2.93-.77,21.89,21.89,0,0,1,4.89,10.47.66.66,0,0,1-.11.62,1.68,1.68,0,0,1-1.06.33l-5,.46"/><path class="cls-26" d="M157.91,388.35a28.19,28.19,0,0,1-8.65-9.32c-.37-.67-.5-1.67.5-1.91a2.55,2.55,0,0,1,1.51.23,37.5,37.5,0,0,1,11.88,7.16c.19.16.37.35.36.56s-.37.49-.7.66l-4,2.14"/><path class="cls-26" d="M201.33,354.79l-.38,3c-.12.9-.28,1.8-.34,2.7a2.37,2.37,0,0,0,.44,1.77,3.65,3.65,0,0,0,2.06,1.09,14.82,14.82,0,0,0,4.31.05,20.46,20.46,0,0,0,7.11-1.91,10.11,10.11,0,0,0,3.69-2.71,3,3,0,0,0,.64-2.66,4.48,4.48,0,0,0-2.11-2.29,12.23,12.23,0,0,0-2.38-1.1,5.68,5.68,0,0,0-2.78-.31,7.67,7.67,0,0,0-3.18,1.08c-.62.41-1.49,1-1.59,1.81a1.37,1.37,0,0,0,.86,1.54,11,11,0,0,1,2.67,1.3l-.57-.4a2.87,2.87,0,0,1,.83.87l-.3-.53a1.59,1.59,0,0,1,.19.7v-.61a1.63,1.63,0,0,1-.13.57l.29-.63a2.19,2.19,0,0,1-.37.53l.54-.61c-.1.1-.22.19-.31.29.57-.41.7-.51.4-.3l-.13.09-.41.24c1.17-.68.68-.35.37-.21s-1.63.54,0,.05c-.33.1-.67.21-1,.29a2.82,2.82,0,0,0-.52.12l.79-.15-.35.06c-.36.05-.71.1-1.07.13s-1,0,.34,0h-1c-.8,0,.81.16.19,0l.78.26a1.87,1.87,0,0,1-.4-.2l.56.4a.74.74,0,0,1-.16-.19l.3.53a1.21,1.21,0,0,1-.13-.56v.61c0-.92.22-1.85.33-2.76l.38-3c.24-1.85-2.36-2-3.65-1.86a7.78,7.78,0,0,0-3.18,1.09c-.62.41-1.49,1-1.59,1.81Z"/><path class="cls-26" d="M193.69,431.8a.76.76,0,0,1-.19-.12l.61.6a.75.75,0,0,1-.15-.2l.37.76a.59.59,0,0,1-.05-.19l.06.84a1,1,0,0,1,0-.24l-.23.83a1,1,0,0,1,.11-.23l-.5.78a2.09,2.09,0,0,1,.14-.17l-.72.7.19-.15-.93.58a1.28,1.28,0,0,1,.24-.11l-1.09.4a3.58,3.58,0,0,1,.35-.09l-1.15.2a3.11,3.11,0,0,1,.43,0l-1.08,0a3,3,0,0,1,.58.08l-1-.24a2.54,2.54,0,0,1,.52.2l-.82-.43a1.89,1.89,0,0,1,.46.34l-.62-.61a2.23,2.23,0,0,1,.38.53l-.37-.76a2.79,2.79,0,0,1,.26,1l-.06-.84a3,3,0,0,1-.08.95l.23-.83a2.23,2.23,0,0,1-.29.65l.5-.78a3.36,3.36,0,0,1-.34.41l.72-.7a2.15,2.15,0,0,1-.41.32l.93-.57a2.91,2.91,0,0,1-.64.31l1.1-.41a3.79,3.79,0,0,1-.64.17l1.14-.19a3.66,3.66,0,0,1-.66,0l1.09,0a3.68,3.68,0,0,1-.58-.08,4.22,4.22,0,0,0-1.66.06,4.74,4.74,0,0,0-1.67.5,3.8,3.8,0,0,0-1.28.93,2.82,2.82,0,0,0-.86,1.13,2.43,2.43,0,0,0,.19,2.43l.62.61a4.07,4.07,0,0,0,1.8.67,7.74,7.74,0,0,0,1.67.12,8.56,8.56,0,0,0,1.81-.24,4.61,4.61,0,0,0,.64-.16,8.87,8.87,0,0,0,1.63-.67,7.55,7.55,0,0,0,1.33-.86,6.59,6.59,0,0,0,1.16-1.2,5.64,5.64,0,0,0,1.1-2.71,7.16,7.16,0,0,0-.07-1.39,3.5,3.5,0,0,0-.12-.63,4.74,4.74,0,0,0-1.67-2.36,6.36,6.36,0,0,0-2.82-1.11l-.36,0c-.43,0-.88,0-1.31,0a8.45,8.45,0,0,0-2.8.72,6,6,0,0,0-2.08,1.52,4,4,0,0,0-1,2,3,3,0,0,0,1.42,3,2.92,2.92,0,0,0,1.31.55,3.67,3.67,0,0,0,1.58.16,4.65,4.65,0,0,0,1.69-.4,4.17,4.17,0,0,0,1.47-.78,3.49,3.49,0,0,0,1.46-2.31l-.07-.84a2.47,2.47,0,0,0-1-1.37Z"/><path class="cls-26" d="M243.16,374.26a6.22,6.22,0,0,0-4.56-.64,13.72,13.72,0,0,0-3.81,1.24,8.36,8.36,0,0,0-1.07.67,4.81,4.81,0,0,0-.81.75.44.44,0,0,0-.08.11,4.06,4.06,0,0,0-.38.63,1.75,1.75,0,0,0-.09.6,1.67,1.67,0,0,0,0,.59,3.08,3.08,0,0,0,.44.77,2.37,2.37,0,0,0,.69.61,5.53,5.53,0,0,0,1.46.68,11.91,11.91,0,0,0,1.32.28,12.73,12.73,0,0,0,1.51.08,14.88,14.88,0,0,0,3.39-.46,7.4,7.4,0,0,0,1.59-.59,5,5,0,0,0,1.25-.72,1.91,1.91,0,0,0,.72-.8.85.85,0,0,0,.19-.77l-.28-.42a2.48,2.48,0,0,0-1.29-.48,9.06,9.06,0,0,0-3.11.28l-.14,0,1.13-.24a5.4,5.4,0,0,1-.58.08l1.06-.09a5,5,0,0,1-.67,0l.93,0a5.91,5.91,0,0,1-.94-.13l.76.17a3.46,3.46,0,0,1-.88-.33l.54.31a2.39,2.39,0,0,1-.79-.69l.28.42a1.09,1.09,0,0,1-.2-.65l0,.5a1,1,0,0,1,.12-.41l-.31.53a1,1,0,0,1,.18-.22l-.56.53a1.5,1.5,0,0,1,.24-.2l-.77.5.25-.13-1,.44.23-.09-1.1.37.29-.08-1.13.24.25,0-1.06.09h.3l-.92,0a1.86,1.86,0,0,1,.33,0l-.75-.17a1.4,1.4,0,0,1,.34.13l-.54-.31.11.08a3.74,3.74,0,0,0,2.22.52,7.34,7.34,0,0,0,1.62-.21,8.16,8.16,0,0,0,1.67-.48l1-.45a4.49,4.49,0,0,0,1.34-1l.32-.53a.84.84,0,0,0-.25-.93Z"/><path class="cls-26" d="M255.67,387.85l-.18,3-.09,1.51a1.18,1.18,0,0,0,0,.53c.16.42.64.55,1,.64a7.53,7.53,0,0,0,3-.11,18.84,18.84,0,0,0,2.65-.71,13.73,13.73,0,0,0,2-.83,9.88,9.88,0,0,0,3-2.11,5.91,5.91,0,0,0,.91-1.27,4.08,4.08,0,0,0,.34-1.33c.05-.48-1.37-.55-1.47-.56a10.66,10.66,0,0,0-3.08.43,10.32,10.32,0,0,0-2.88,1.17l-.59.43a.87.87,0,0,0-.4.79l0,.18.06-.38a3.54,3.54,0,0,1-.75,1.56l.34-.42a5.34,5.34,0,0,1-.95.89l.59-.43a7.49,7.49,0,0,1-.73.45l.8-.43L259,391l-.15.06a7,7,0,0,0,.71-.28l-.32.11a10.9,10.9,0,0,1,1.37-.39,6.12,6.12,0,0,1,.95-.18c.47-.05.59-.07.37-.05l.91,0h-.14l.73.08-.13,0,.51.18a.44.44,0,0,1-.16-.1l.24.29a.88.88,0,0,1,0-.51l0-.6.07-1.31.16-2.61a.59.59,0,0,0-.49-.38,1.92,1.92,0,0,0-1-.17,10,10,0,0,0-3.07.43,9.89,9.89,0,0,0-2.88,1.16l-.59.43a.89.89,0,0,0-.41.79Z"/><path class="cls-26" d="M185.29,401.09l0,0,.93-.55-.16.07,1.1-.4-.19.05,1.14-.2-.25,0,1.09,0a1.9,1.9,0,0,1-.25,0l1,.22-.2-.07.81.4a.61.61,0,0,1-.16-.12l.6.57a.64.64,0,0,1-.1-.13l.36.72a.41.41,0,0,1-.05-.18l.05.8a.77.77,0,0,1,0-.15l-.24.79.06-.13-.5.76.09-.11-.73.67.1-.07a3.17,3.17,0,0,0,1-1.05,2.18,2.18,0,0,0,.49-1.18,1.53,1.53,0,0,0-.23-1.16,1.71,1.71,0,0,0-.78-.92l-.81-.41a5.32,5.32,0,0,0-2.06-.23l-1.14.2a5.92,5.92,0,0,0-2,1,3.05,3.05,0,0,0-.46.41,3.41,3.41,0,0,0-.45.42,3.56,3.56,0,0,0-.82,1.73.36.36,0,0,0,0,.1v0c0,.12,0,.69.06.81a.13.13,0,0,0,0,.06.32.32,0,0,0,0,.09v0l.35.71v0l0,.05a4.5,4.5,0,0,0,.67.64l.1.08a9.54,9.54,0,0,0,.91.44l.11,0,.54.12c.15,0,.35.09.53.12l.13,0c.4,0,.8,0,1.19,0h.13c.43,0,.86-.13,1.28-.22l.13,0,1.1-.4,0,0,.06,0a7.22,7.22,0,0,0,1-.62,3,3,0,0,0,1-1.05,2.2,2.2,0,0,0,.5-1.17,1.61,1.61,0,0,0-.23-1.16,1.76,1.76,0,0,0-.79-.93l-.81-.4a5.12,5.12,0,0,0-2.06-.24l-1.14.2a5.79,5.79,0,0,0-2,1Z"/><path class="cls-26" d="M171,351.76a12.06,12.06,0,0,0-.27-2.47,9.33,9.33,0,0,0-.63-1.77L162,350.41l1.57,1.5a2,2,0,0,0,1,.65,3.08,3.08,0,0,0,1.36.34,5.07,5.07,0,0,0,1.65-.12,5.4,5.4,0,0,0,1.66-.5l.94-.52a4.07,4.07,0,0,0,1.27-1.31l.26-.72a1.62,1.62,0,0,0-.36-1.34l-1.57-1.5a2,2,0,0,0-1-.66,3.21,3.21,0,0,0-1.36-.33h-1.07a5.49,5.49,0,0,0-1.7.41,3.18,3.18,0,0,0-1,.46,3.92,3.92,0,0,0-1.22.88l-.52.69a1.89,1.89,0,0,0-.23,1.43,9.12,9.12,0,0,1,.86,3.4l0-.71v.12a1.24,1.24,0,0,0,.2,1,1.48,1.48,0,0,0,.75.81,3.22,3.22,0,0,0,1.28.42,4.24,4.24,0,0,0,1.55.06l1.14-.21a6.68,6.68,0,0,0,2-.91l.74-.62a2.8,2.8,0,0,0,.79-1.41Z"/><path class="cls-27" d="M170.36,414.38a5.55,5.55,0,0,0-.84-1.91,5.09,5.09,0,0,0-1.1-1.26,1.86,1.86,0,0,0-.95-.52,3.28,3.28,0,0,0-1.32-.22,5.65,5.65,0,0,0-1.64.17,6.63,6.63,0,0,0-1.67.48l-1,.49a4.12,4.12,0,0,0-1.3,1.16l-.29.62a1.16,1.16,0,0,0,.3,1.12,5.21,5.21,0,0,1,1.16,1.36l-.3-.52a3.92,3.92,0,0,1,.47,1.29,1.1,1.1,0,0,0,.58.71,2.06,2.06,0,0,0,1.06.45,4.55,4.55,0,0,0,1.47.07,5.93,5.93,0,0,0,1.67-.25l1.1-.38a6,6,0,0,0,1.71-1l.55-.6a1.49,1.49,0,0,0,.29-1.22Z"/><path class="cls-27" d="M197.58,406c1.78,0,4.43-1.36,4.67-3.31.27-2.17-2.29-2.6-3.85-2.6-1.78,0-4.43,1.36-4.67,3.31-.26,2.17,2.29,2.6,3.85,2.6Z"/><path class="cls-27" d="M201,354.78a5.75,5.75,0,0,1-.44-2v.65a6,6,0,0,1,.44-2.24l-.28.66c.06-.13.11-.25.18-.38a1.28,1.28,0,0,0,.27-1,1,1,0,0,0-.32-.89,1.92,1.92,0,0,0-1-.58,3.25,3.25,0,0,0-1.34-.28,7.64,7.64,0,0,0-3.31.64l-.95.5a4.32,4.32,0,0,0-1.29,1.23,7.59,7.59,0,0,0-.88,3,6.92,6.92,0,0,0,.45,3,1.23,1.23,0,0,0,.6.79,2,2,0,0,0,1.06.5,4.4,4.4,0,0,0,1.49.11,5.28,5.28,0,0,0,1.67-.24,6.16,6.16,0,0,0,2.8-1.47l.53-.64a1.62,1.62,0,0,0,.27-1.31Z"/><path class="cls-27" d="M248.29,382.6l2.77,4a.59.59,0,0,0,.49.37,2,2,0,0,0,1,.15,7.49,7.49,0,0,0,1.42-.11,11.47,11.47,0,0,0,1.65-.33,10.78,10.78,0,0,0,2.89-1.15l.59-.42a.84.84,0,0,0,.41-.76l-2.76-4a.62.62,0,0,0-.49-.37,2.13,2.13,0,0,0-1-.15,6.85,6.85,0,0,0-1.43.12,9.64,9.64,0,0,0-1.65.33,10.27,10.27,0,0,0-2.88,1.15l-.59.42a.86.86,0,0,0-.42.76Z"/><path class="cls-27" d="M237.31,411.6l-.12-.7a1.35,1.35,0,0,0-.61-.84,2.13,2.13,0,0,0-1.08-.54,4.18,4.18,0,0,0-1.49-.14,5.33,5.33,0,0,0-1.68.23l-1.1.39a5.76,5.76,0,0,0-1.69,1.11l-.53.67a1.75,1.75,0,0,0-.24,1.37l.11.71a1.31,1.31,0,0,0,.62.83,2.07,2.07,0,0,0,1.08.55,4.12,4.12,0,0,0,1.48.13,5.32,5.32,0,0,0,1.68-.22l1.1-.39a5.6,5.6,0,0,0,1.69-1.12l.53-.66a1.82,1.82,0,0,0,.25-1.38Z"/><path class="cls-27" d="M248.55,442.24a5.3,5.3,0,0,1,.54-.39l-.92.57a6.56,6.56,0,0,1,1.13-.55l-1.09.41a8,8,0,0,1,1.44-.38l-1.15.19A8.74,8.74,0,0,1,250,442l-1.09,0,.51,0a6.18,6.18,0,0,0,3.33-.57,3.72,3.72,0,0,0,1.29-.92,3,3,0,0,0,.86-1.13,2.43,2.43,0,0,0-.2-2.43,3.61,3.61,0,0,0-2.42-1.27,14.35,14.35,0,0,0-5.05.39c-.22.06-.44.14-.66.22a15,15,0,0,0-1.68.66c-.35.17-.68.38-1,.58a10.89,10.89,0,0,0-1,.67,3.7,3.7,0,0,0-1.45,2.32,2.44,2.44,0,0,0,1,2.2,4.53,4.53,0,0,0,2.89.7,5.93,5.93,0,0,0,3.16-1.17Z"/><path class="cls-19" d="M169.43,416.88l.84,5a1.21,1.21,0,0,0,.6.79,2.1,2.1,0,0,0,1.07.51,4.34,4.34,0,0,0,1.48.11,5.63,5.63,0,0,0,1.68-.23,6.23,6.23,0,0,0,2.8-1.48,2.23,2.23,0,0,0,.79-2l-.84-5a1.21,1.21,0,0,0-.6-.79,2.06,2.06,0,0,0-1.07-.51,4.35,4.35,0,0,0-1.48-.12,5.64,5.64,0,0,0-1.68.24,6.22,6.22,0,0,0-2.79,1.47,2.27,2.27,0,0,0-.8,2Z"/><path class="cls-19" d="M151.59,381.53l-4.05-1.26A3.62,3.62,0,0,0,146,380a5.51,5.51,0,0,0-3.25.87,3.59,3.59,0,0,0-1.19,1,2.68,2.68,0,0,0-.67,2.41l.36.74a2.92,2.92,0,0,0,1.43,1l4.05,1.26a3.76,3.76,0,0,0,1.52.24,5.45,5.45,0,0,0,3.24-.87,3.71,3.71,0,0,0,1.19-1,2.69,2.69,0,0,0,.68-2.41l-.36-.75a3,3,0,0,0-1.43-1Z"/><path class="cls-19" d="M143.5,398.63c.56,0,1.12,0,1.68.07l.46,0c.41,0-1-.12-.3,0l.82.12a22.51,22.51,0,0,1,3.24.79l-.77-.26a18.68,18.68,0,0,1,3.56,1.61,5.08,5.08,0,0,0,2.78.31,7.83,7.83,0,0,0,3.18-1.09c.61-.4,1.49-1,1.6-1.79a1.43,1.43,0,0,0-.87-1.53,24.41,24.41,0,0,0-12.12-3.07,8.49,8.49,0,0,0-3.3.66,5,5,0,0,0-2.26,1.66,1.37,1.37,0,0,0,0,1.75,3.32,3.32,0,0,0,2.28.76Z"/><path class="cls-19" d="M191,392a17.26,17.26,0,0,1-3-2.05l.59.52a12.67,12.67,0,0,1-3-3.71l.34.66a7.12,7.12,0,0,1-.82-2.81l0,.74a5.06,5.06,0,0,1,.2-1.54l-.26.75a3.89,3.89,0,0,1,.29-.66c.07-.13.34-.51,0,0s-.06.11,0,0l.22-.22c-.65.73-.6.51-.3.31s-1,.48-.43.24l.5-.21a4.59,4.59,0,0,0,2.2-1.88,2,2,0,0,0-.12-2.15c-1.43-1.62-3.94-1.1-5.68-.46a7.87,7.87,0,0,0-4.65,4.3,7,7,0,0,0,0,4.9,15.35,15.35,0,0,0,7.32,7.87,5.9,5.9,0,0,0,6-.6A3.29,3.29,0,0,0,192,393.9a1.94,1.94,0,0,0-1-1.92Z"/><path class="cls-19" d="M192.37,362.53a20.24,20.24,0,0,1,1.18,1.82l-.3-.54a18.19,18.19,0,0,1,1.82,4.46c.19.71,1,1.06,1.65,1.2a6.67,6.67,0,0,0,3.14-.17,6.43,6.43,0,0,0,2.81-1.43,2,2,0,0,0,.83-1.85,20.5,20.5,0,0,0-3.32-6.82,1.88,1.88,0,0,0-1-.53,3.34,3.34,0,0,0-1.33-.24,7.78,7.78,0,0,0-3.3.65,4.71,4.71,0,0,0-2.25,1.67l-.29.63a1.22,1.22,0,0,0,.31,1.15Z"/><path class="cls-19" d="M184.44,432.45l.81-.05c.65,0-.81,0-.11,0h1.41l1.19.07c.16,0,1.07,0,.27,0,.19,0,.39.05.59.08a25.2,25.2,0,0,1,5.06,1.21,6.32,6.32,0,0,0,2.67-.1,12.33,12.33,0,0,0,3.21-1c.57-.28,1.48-.65,1.74-1.27s-.26-.71-.69-.86a30.68,30.68,0,0,0-12.48-1.42,12.78,12.78,0,0,0-3.28.74,6.71,6.71,0,0,0-2.36,1.25c-.28.3-.67.76-.16,1.09a3.7,3.7,0,0,0,2.13.23Z"/><path class="cls-19" d="M237.75,441.11a13.42,13.42,0,0,1-1.72-.69l.52.26a10.21,10.21,0,0,1-3.9-3.17l.26.37-.18-.26a.75.75,0,0,0-.52-.5,2,2,0,0,0-1-.26,8.76,8.76,0,0,0-3.1.35,8.51,8.51,0,0,0-2.86,1.25l-.58.49a1,1,0,0,0-.36.92,9.72,9.72,0,0,0,2.63,2.79,14.84,14.84,0,0,0,3.95,1.95,6.19,6.19,0,0,0,2.71,0,10.42,10.42,0,0,0,3.2-1l.79-.46a2.54,2.54,0,0,0,.9-1l0-.45a1,1,0,0,0-.78-.62Z"/><path class="cls-19" d="M211.75,412.27l2.44,4.44a1.14,1.14,0,0,0,.59.73,2,2,0,0,0,1.05.45,4.33,4.33,0,0,0,1.48.08,5.64,5.64,0,0,0,1.67-.25,6.52,6.52,0,0,0,2.81-1.42l.54-.61a1.5,1.5,0,0,0,.28-1.24L220.18,410a1.12,1.12,0,0,0-.59-.73,1.93,1.93,0,0,0-1.05-.46,4.6,4.6,0,0,0-1.48-.08,5.93,5.93,0,0,0-1.67.25,6.54,6.54,0,0,0-2.81,1.43L212,411a1.51,1.51,0,0,0-.29,1.23Z"/><path class="cls-19" d="M236.77,363a25.61,25.61,0,0,0-2.88-11.79c-.27-.52-1-.59-1.49-.62a9.74,9.74,0,0,0-3.08.41,9.28,9.28,0,0,0-2.87,1.19c-.31.21-1.23.79-1,1.27a25.65,25.65,0,0,1,2.88,11.8c0,.51,1.29.6,1.49.62a9.74,9.74,0,0,0,3.08-.41,9.53,9.53,0,0,0,2.87-1.19c.46-.32,1-.66,1-1.28Z"/><g class="cls-28"><path class="cls-26" d="M510.51,270.71c-8.86-1.92-20.17-1.13-30.66-1.13s-22.08-1.33-25-5.55c-1.22-1.8-.64-3.88-2-5.65-2.71-3.44-11.85-4.67-20.25-5.25a381.08,381.08,0,0,0-67.76,1.62c-11.85,1.33-24.76,3.61-31.51,8.31-2.48,1.73-3.94,3.68-6.72,5.34a19.38,19.38,0,0,1-11.56,2.39l.23-.63c-27.1,4.39-46,18.79-40.08,30-8.31,5-12.55,13.46-9,20.6.93,1.88,2.32,3.84,1.53,5.79-.54,1.34-2,2.39-3.1,3.58S263,333,264.24,334c.95.78,2.57.93,4,1.14,5,.73,9.53,2.94,12.19,6,2,2.28,3,5,5.88,6.81,3.55,2.22,9.05,2.29,13.7,1.28s8.79-2.94,13.17-4.45a74.08,74.08,0,0,1,25.46-3.89c7,.15,14.13,1.27,21,.07,9-1.57,15.76-6.77,21.4-11.95a63.55,63.55,0,0,0,5.46-5.57,243.25,243.25,0,0,1,30-2.65c13.86-.34,27.76.5,41.47-1.5,18-2.61,32-9.55,43.8-16.37,9-5.22,17.71-10.82,20.87-16.9S522.13,273.23,510.51,270.71Z"/></g><g class="cls-28"><path class="cls-26" d="M278.17,297.57a6.3,6.3,0,0,1-.76-4.41l-.07.34a7.9,7.9,0,0,1,1.89-3.66l-.35.39a10.37,10.37,0,0,1,1.12-1.08l.3-.24c.09-.06.48-.34.08-.07s0,0,.1-.06l.42-.25-7.18,1.38a5.9,5.9,0,0,1,.5.5l-.23-.27a4.21,4.21,0,0,1,1,3.53l.07-.35a5,5,0,0,1-1.11,2.21l.35-.39a7.28,7.28,0,0,1-1.11,1c-.36.25-.6.7-.19,1a3.86,3.86,0,0,0,2.12.18,12.19,12.19,0,0,0,5.65-2,6,6,0,0,0,2.69-4.22,4.66,4.66,0,0,0-1.77-4,2.57,2.57,0,0,0-1.22-.22,9.75,9.75,0,0,0-1.94.2,12.47,12.47,0,0,0-4,1.39,11.47,11.47,0,0,0-5.13,5.46,6.82,6.82,0,0,0,.37,5.88c.28.47,1,.47,1.46.48a11,11,0,0,0,3.06-.45,10.82,10.82,0,0,0,2.89-1.14c.26-.16,1.26-.73,1-1.15Z"/></g><g class="cls-28"><path class="cls-26" d="M323.23,253.56a9.61,9.61,0,0,0-.48-6.1,13.62,13.62,0,0,0-4.65-5.63c-1.05-.77-2.82-.6-4-.29a5.18,5.18,0,0,0-3.29,2.24,12.63,12.63,0,0,0-1.41,6.92,12.08,12.08,0,0,0,2.43,6.1,3.43,3.43,0,0,0,2.34,1,6.76,6.76,0,0,0,3.32-.61c1.36-.68,3.31-2.26,2.1-3.93a11.45,11.45,0,0,1-1-1.55l.33.64a10.51,10.51,0,0,1-1.14-4.17l0,.72a10.4,10.4,0,0,1,.6-3.91l-.26.72a12.8,12.8,0,0,1,.59-1.31l-7.27,2c.24.17.48.36.71.55l-.59-.49a11.28,11.28,0,0,1,2.75,3.36l-.33-.63a9.09,9.09,0,0,1,1,3.54l0-.72a8.14,8.14,0,0,1-.25,2.41,1.86,1.86,0,0,0,.95,1.86,4.79,4.79,0,0,0,2.83.5c1.87-.23,4.19-1.16,4.7-3.18Z"/></g><path class="cls-26" d="M310.8,281.84a3.34,3.34,0,0,0,.36-2,3.19,3.19,0,0,0-.25-.85,5.23,5.23,0,0,1-.6-1.7l0,.69a1.64,1.64,0,0,1,.08-.5l-.27.7a1.9,1.9,0,0,1,.2-.37l-.53.67a2.34,2.34,0,0,1,.32-.31l-.75.61a2.16,2.16,0,0,1,.4-.27l-.94.51a4.75,4.75,0,0,1,.56-.25l-1.1.39a6.38,6.38,0,0,1,.72-.19l-1.14.22a5,5,0,0,1,.77-.08l-1.07,0a5,5,0,0,1,.95.06l-.95-.15a5.71,5.71,0,0,1,.71.19l-.79-.32a4,4,0,0,1,1,.6l-.58-.47a3.17,3.17,0,0,1,.74.89l-.32-.61a3.28,3.28,0,0,1,.36,1.31l0-.69a3.86,3.86,0,0,1-.27,1.46l.27-.7a8.06,8.06,0,0,1-1.11,1.82l.53-.67c-.38.49-.79,1-1.21,1.42a2.35,2.35,0,0,0-.77,2.06,2.28,2.28,0,0,0,1.7,1.39,6.2,6.2,0,0,0,3.17-.08,6,6,0,0,0,2.78-1.51c1.36-1.53,2.79-3.13,3.29-5.18a4.59,4.59,0,0,0-1.21-4.25,8.21,8.21,0,0,0-6.52-1.88,11.66,11.66,0,0,0-3.77,1,7.32,7.32,0,0,0-3.18,2.53,3.29,3.29,0,0,0-.36,2.89,7.93,7.93,0,0,1,.71,1.92l0-.69a1.55,1.55,0,0,1-.08.53l.27-.69,0,.09a1.35,1.35,0,0,0-.25,1,1.16,1.16,0,0,0,.33.95,3.4,3.4,0,0,0,2.33.94,7.11,7.11,0,0,0,3.31-.62l.94-.52a4.08,4.08,0,0,0,1.27-1.28Z"/><path class="cls-26" d="M353.34,255.17a7.9,7.9,0,0,0-.82-3.2A7,7,0,0,0,350,248.8c-2-1.12-4.79-.68-6.77.26a6.68,6.68,0,0,0-3.71,3.86,13.08,13.08,0,0,0-.06,6.69,16.17,16.17,0,0,0,3.28,6.41,3.31,3.31,0,0,0,2.3.84,7.87,7.87,0,0,0,2.76-.45c1.35-.47,3.28-1.5,3.05-3.21l-.24-1.83c-.1-.71-1.11-1.13-1.67-1.27a6.35,6.35,0,0,0-3.15.13c-1.48.44-3.86,1.49-3.6,3.4l.24,1.83,8.11-2.82a16.19,16.19,0,0,1-1.57-2.28l.31.56a13.55,13.55,0,0,1-1.74-6.21v.65a9.48,9.48,0,0,1,.5-3.63l-.28.65c.08-.15.17-.28.25-.43s.12-.19-.21.23c.2-.19.16-.16-.12.06a5,5,0,0,1-2.51.89,3.25,3.25,0,0,1-1.42,0q-.69-.28-.27,0l-.57-.43a6,6,0,0,1,1.29,1.67l-.31-.56a8,8,0,0,1,1,3.61c0,.69,1.17,1.15,1.67,1.27a7.24,7.24,0,0,0,6-1.59,2.39,2.39,0,0,0,.8-1.94Z"/><path class="cls-26" d="M342.68,299.32a25.86,25.86,0,0,0,6.2-3.67,17.76,17.76,0,0,0,2.14-2.11c.64-.72,1.39-1.81.23-2.46s-3-.52-4.28-.39a22.39,22.39,0,0,0-6.38,1.65,10.73,10.73,0,0,0-5.26,4c-1.23,2.07-1,4.58-.71,6.87.06.45,1.26.45,1.44.45a11.83,11.83,0,0,0,3.07-.47,11.43,11.43,0,0,0,2.89-1.13c.37-.22,1.09-.58,1-1.11a14.27,14.27,0,0,1-.08-4.61l-.07.34a6.19,6.19,0,0,1,1.47-2.92l-.35.38a8.33,8.33,0,0,1,1.05-.92c.44-.33-.59.35-.11.07l.26-.15c.28-.16.66-.21-.28.13.17-.06.66-.27-.06,0s-.2.09-.06,0c-.05,0-1.26.38-.59.19.42-.12-1.27.27-.59.15l-.48.08c.35-.06-.95,0-.34,0h.41c.34,0-.64-.11-.19,0l.44.1-.5-.15a1.52,1.52,0,0,1,.56.3l-.23-.25a.67.67,0,0,1,.17.47l.07-.34a4,4,0,0,1-1.14,1.61l.35-.38a17.88,17.88,0,0,1-2.65,2.26c-.28.2.54-.35.13-.09l-.42.26L339,298l-.37.2c-.58.31.81-.38.2-.1l-.93.42c-.43.19-1.53.67-1.76,1.18s.24.68.65.74a7.68,7.68,0,0,0,2.66-.16,16.31,16.31,0,0,0,3.21-1Z"/><path class="cls-26" d="M373.5,299.51c4.69-1,9.63-3.71,11.62-8.27.44-1-1-1.62-1.64-1.79a21.09,21.09,0,0,0-14.71,2.06c-3.29,1.77-6.55,5.45-5.4,9.46.2.7,1,1,1.64,1.18a6.68,6.68,0,0,0,3.14-.18,6.41,6.41,0,0,0,2.81-1.42c.48-.47,1-1.11.83-1.84a5.5,5.5,0,0,1-.2-1.34V298a5.53,5.53,0,0,1,.48-2.16l-.29.62a6.7,6.7,0,0,1,.76-1.26,3.36,3.36,0,0,0,.24-.29,2,2,0,1,0-.15.17l.6-.54c.37-.32-.15.13-.27.19.12-.07.24-.17.35-.24a4,4,0,0,0,.7-.41c-.06.06-.92.44-.41.23l.38-.17.38-.15c.67-.26-.93.29-.41.14l.82-.22c.89-.22-1,.16-.09,0l.86-.11.43,0c.5-.05-.91,0-.41,0s1.15,0,1.73.06-.76-.12-.3,0l.42.07a9.4,9.4,0,0,1,.92.2l-1.64-1.79-.06.15.29-.63a9.58,9.58,0,0,1-.49.89,10.22,10.22,0,0,0-.63.84l.3-.35-.26.27-.34.31-.43.37c-.62.5.47-.31.14-.1s-.61.4-.93.58-.92.38.22-.1l-.57.26-.59.24c-.71.28,1.08-.32.29-.1l-1.27.33a6.52,6.52,0,0,0-2.81,1.42c-.42.39-1.07,1.18-.83,1.84.64,1.76,3.46,1.3,4.78,1Z"/><path class="cls-26" d="M425.46,263.36c-.33-.06-.32-.05,0,0l-.46-.1-.69-.17c-.53-.13-1-.29-1.56-.47s-1-.38-1.46-.59.17.11-.28-.13l-.66-.36a12.69,12.69,0,0,1-4.09-3.62l.26.37a2.78,2.78,0,0,1-.63-1.64l0,.45s.07-.35.11-.35-.31.41-.07.14a3.45,3.45,0,0,1-.86.61,5.49,5.49,0,0,1-1,.41c-.41.12-.51.16-.29.1.49-.13-1.09.21-.57.13s-.94.05-.46,0h.41c.43,0-.74-.06-.31,0l.91.1c.33,0,.18,0,0,0a2.56,2.56,0,0,1,.45.09,14.74,14.74,0,0,1,1.83.54l.81.32.22.1.22.11a12.58,12.58,0,0,1,1.48.92,9.78,9.78,0,0,1,2.28,2.26l-.26-.37a6.87,6.87,0,0,1,1.13,2.65c.11.57,1.14.72,1.53.76a10.34,10.34,0,0,0,6-1.59c.43-.34,1.05-.79.94-1.43a8.78,8.78,0,0,0-3.52-5.16,16.77,16.77,0,0,0-7.65-3,15.64,15.64,0,0,0-5.9.38c-1.84.44-4.51,1.31-5.46,3.13-.66,1.29.29,2.48,1.06,3.46a12.43,12.43,0,0,0,2.45,2.3,21.09,21.09,0,0,0,8.86,3.39,8.14,8.14,0,0,0,3.1-.34,8.55,8.55,0,0,0,2.85-1.25c.41-.32,1.11-.82.94-1.43s-1.05-.68-1.52-.76Z"/><path class="cls-26" d="M451.82,280.23l6.64-.68a17.16,17.16,0,0,0,3.64-.58c1.7-.56,3.52-1.58,4.21-3.34,1.07-2.74-1.33-4.78-3.59-5.78a19.1,19.1,0,0,0-7.16-1.13,28.22,28.22,0,0,0-7.76,1,5.35,5.35,0,0,0-2.74,1.71,3,3,0,0,0-.64,2.53c.69,2.06,3.19,2.47,5.05,2,.53-.14,1.07-.25,1.6-.37l-.44.07.47-.07.71-.09c.56-.05,1.12-.09,1.68-.11l1,0h.48l-.49,0a32.43,32.43,0,0,1,3.27.4c.3.07.13,0-.51-.13l.38.13a4.85,4.85,0,0,1,.62.27c.26.13.12,0-.41-.23a3.28,3.28,0,0,1,.31.2,5.27,5.27,0,0,1,.51.43l-.63-.63a2.48,2.48,0,0,1,.34.46l-.37-.79a1.32,1.32,0,0,1,.13.47L458,275a.6.6,0,0,1,0,.23l.22-.86c-.08.22,0,.16.14-.18a1.58,1.58,0,0,1,.44-.55c.14-.14,1.31-.83.73-.56.77-.26,1-.35.64-.25l-.29.07c.05,0,1.14-.16.54-.1l-2.62.27-5.34.55a6.08,6.08,0,0,0-3.16,1.18,3.67,3.67,0,0,0-1.44,2.38c-.06,2.1,2.07,3.23,4,3Z"/><path class="cls-26" d="M442.06,302q-2.87.5-5.78.71c-.93.07-1.86.12-2.79.14l-.83,0h-.6l-.83,0,.32,5.23a25.49,25.49,0,0,1,3.2-1.55c.3-.12,1.11-.32-.18.06l.93-.32c.56-.17,1.12-.33,1.68-.47s1.17-.21,1.73-.38l-.4.07.5-.08.76-.1a33,33,0,0,1,3.84-.22,6.19,6.19,0,0,0,3.17-1.14,3.45,3.45,0,0,0,1.5-2.14c.14-2.17-2.19-2.55-3.84-2.55a33.63,33.63,0,0,0-16.53,4.19c-1.15.65-2.5,1.56-2.41,3.06.07,1.31,1.51,2.13,2.73,2.16a65,65,0,0,0,13-.84,7.1,7.1,0,0,0,3.17-1.14,3.43,3.43,0,0,0,1.5-2.14c.12-2-2.18-2.83-3.84-2.55Z"/><path class="cls-26" d="M469.19,308.6a32.94,32.94,0,0,0,11,1,10.24,10.24,0,0,0,4.64-1.39c.69-.43,1.82-1.31,1-2.17a17,17,0,0,0-6.19-4.07,21.87,21.87,0,0,0-8.67-1.7,18.77,18.77,0,0,0-5.79,1.17,8.68,8.68,0,0,0-3.93,2.5c-1.76,2.35,1.55,3.59,3.38,3.71,1.26.09,2.51,0,3.78,0,.93,0-.64-.09.07,0l.25,0c.5,0-.49-.2-.2-.06.06,0,.15,0,.21.06.33.22-.22-.3-.1-.07s.31.26.42.4c.36.5,1.74.5,2.2.49a9.78,9.78,0,0,0,3.29-.7c1-.42,3.39-1.48,2.39-2.86a4.45,4.45,0,0,0-3.06-1.25,27.86,27.86,0,0,0-3.54-.06c-.25,0-.52,0-.77,0,1.08-.09.36,0,0,0-.8-.09.4.16,0,0l-.28-.11c.32.19.37.22.17.08a1.73,1.73,0,0,1-.21-.17c-.12-.15-.12-.13,0,.05a.68.68,0,0,1-.08-.24c0,.29,0,.33,0,.13s.05-.16-.14.18c.2-.22.11-.15-.25.21q.43-.31-.36.21c.27-.14.22-.12-.14.05s-.4.18-.11.06c-.78.24-.94.3-.5.17.74-.19-1.2.22,0,0,.42-.05.3,0-.38,0h.45c-.56,0-.66,0-.28,0l.56.06c.37,0,.75.1,1.12.16.1,0,1.18.25.61.11.67.16,1.32.34,2,.56a14.16,14.16,0,0,1,6.25,3.92l5.68-3.55c-.74.06-1.48.1-2.22.11h-1l-.63,0c-.73-.06-1.46-.15-2.18-.27A11.66,11.66,0,0,1,476,305a8.33,8.33,0,0,0-5.93.94c-.6.35-1.45.81-1.66,1.52a1,1,0,0,0,.77,1.18Z"/><path class="cls-26" d="M435,314.25c.45-.1.29-.07-.49.09l.44,0h-.52l.33,0,.44,0c-.57-.11-.71-.14-.43-.07l.72.2c.66.18-.58-.34,0,0l.65.41c.46.3-.38-.48-.05,0,.13.18.27.34.39.54l-.34-.65a1.94,1.94,0,0,1,.13.3l3.52-3.72-1.8.39a5.31,5.31,0,0,0-1,.19l.59-.1-.57.09c-1.18.19-2.36.35-3.55.46s-2.4.2-3.59.23l-.87,0c-.92,0,.77,0-.07,0l-2,0a7,7,0,0,0-3.31.61,4.64,4.64,0,0,0-2.2,1.86c-.82,1.79.72,3.08,2.46,3.15a64.14,64.14,0,0,0,17.3-1.67,5.77,5.77,0,0,0,2.77-1.56c.47-.55,1.05-1.4.75-2.17-1.66-4.16-7.31-4.57-11.05-3.72a5.85,5.85,0,0,0-2.77,1.56,2.4,2.4,0,0,0-.75,2.17c.68,1.94,3.32,1.83,4.91,1.46Z"/><path class="cls-26" d="M381.24,320.63a12.19,12.19,0,0,0,7,1,19.36,19.36,0,0,0,9.62-3.41c.16-.12.77-.79.2-1-7.43-2.24-15.58-1.14-22.66,1.8-.57.23-2.95,1.61-1.11,1.9a11.84,11.84,0,0,0,5.87-1.15c.4-.17.32-.14-.25.09a5,5,0,0,1,.5-.18l.25-.09c.46-.15.34-.11-.34.1a5.69,5.69,0,0,0,.78-.22l-.33.08.53-.12a3.91,3.91,0,0,1,.82-.14c-.59.09-.66.1-.22,0l.28,0a8.18,8.18,0,0,1,1.1-.1c-.6,0-.1,0,.21,0,.6,0,1.21,0,1.81,0l.41,0h.11l.82.08a20.36,20.36,0,0,1,3.46.68l.19-1c-.27.21-.06,0,.11,0-.06,0-.35.15-.37.21s.71-.33.23-.12c.11,0,.88-.32.35-.15a6.26,6.26,0,0,1,1.37-.37s-.42.08-.46.09c.15,0,.89-.11.35-.07.36,0,.57,0,.08,0h-.47c-.4,0,.41.07,0,0s-.6-.08-.9-.14a5.5,5.5,0,0,1-1.43-.56,4.2,4.2,0,0,0-2.11-.13,13.53,13.53,0,0,0-3.27.76c-.37.13-3.73,1.52-2.58,2.13Z"/><path class="cls-26" d="M369.32,327.93l-10,2.81,4.07,3.3c.72-.61-.6.44-.08.06.2-.13.38-.27.58-.41s.4-.26.61-.38l.31-.19-.61.34a4.45,4.45,0,0,1,1.35-.65l.72-.29c.73-.28-1.18.4-.27.1.47-.15,1-.28,1.43-.4.26-.06.52-.1.78-.17-.82.15-1,.19-.55.11l.3-.05c.5-.07,1-.13,1.51-.17l.81,0c-1.38.11-.39,0-.06,0a7.81,7.81,0,0,0,3.31-.63,4.74,4.74,0,0,0,2.22-1.78,1.63,1.63,0,0,0-.07-2,3.33,3.33,0,0,0-2.32-.92c-6-.08-12.2,1.63-16.83,5.61a1.83,1.83,0,0,0-.17,2.86,5,5,0,0,0,4.24.45l10.05-2.81a6.38,6.38,0,0,0,2.79-1.5c.45-.46,1-1.32.78-2-.64-1.82-3.4-1.68-4.86-1.28Z"/><path class="cls-26" d="M323.47,339.45s.93,0,.47,0l-.37,0c-.11,0-.47-.06,0,0s0,0-.05,0a6.85,6.85,0,0,1-1.19-.37l.51.22a5.15,5.15,0,0,1-2.07-1.53l.26.33a2.6,2.6,0,0,1-.55-1.86l-5,2.78.43-.09c.18,0,.9-.12.06,0s-.18,0,0,0l.44,0h.23c.35,0,.2,0-.47,0h.45c.3,0,.59,0,.89.06l.44.05c-.89-.09-.36-.06-.16,0s.57.11.85.18a11.59,11.59,0,0,1,1.72.58l-.51-.22a9.94,9.94,0,0,1,1.5.82,3.81,3.81,0,0,0,2.16.32,11.55,11.55,0,0,0,3.28-.73c.49-.19,3.78-1.64,2.48-2.51a12.05,12.05,0,0,0-4.87-1.85,20.51,20.51,0,0,0-7.41.15,12.09,12.09,0,0,0-3.6,1.23,4.19,4.19,0,0,0-1,.68,1,1,0,0,0-.39.87,3.68,3.68,0,0,0,1.84,3.16,9.79,9.79,0,0,0,6,1.38,11.29,11.29,0,0,0,3.29-.73,6.25,6.25,0,0,0,2.34-1.32c.29-.34.65-.83.14-1.19a3.66,3.66,0,0,0-2.16-.32Z"/><path class="cls-26" d="M335.77,338.19l5.11-5.68.5-.76a1.72,1.72,0,0,0,.22-1.19,1,1,0,0,0-.2-.76,1.77,1.77,0,0,0-.79-.92,6,6,0,0,0-2.61-.83,8.59,8.59,0,0,0-3.15.31c-2,.6-4.2,1.9-4.56,4.13a2.25,2.25,0,0,0,1,2.08,4.58,4.58,0,0,0,2.87.63,6,6,0,0,0,3.17-1.15,3.69,3.69,0,0,0,1.48-2.22.3.3,0,0,1,0-.1l-.25.79a1.63,1.63,0,0,1,.11-.23l-.5.75a1.68,1.68,0,0,1,.18-.21l-.73.68a1.54,1.54,0,0,1,.29-.21l-.93.55a2.32,2.32,0,0,1,.36-.16l-1.1.4a2.75,2.75,0,0,1,.47-.13l-1.14.2a3.88,3.88,0,0,1,.48,0l-1.08,0a3.55,3.55,0,0,1,.47.06l-1-.22a2.32,2.32,0,0,1,.37.13l-.81-.4.05,0-.26-3.63-5.12,5.69a2.34,2.34,0,0,0,1.08,4,5.54,5.54,0,0,0,3.2,0,5.87,5.87,0,0,0,2.76-1.64Z"/><path class="cls-26" d="M262.07,306.55l1,5.34a21,21,0,0,0,.48,2.36,2.55,2.55,0,0,0,1.77,1.65,8.41,8.41,0,0,0,4,0,14.66,14.66,0,0,0,5.22-1.9,4.07,4.07,0,0,0,1.83-2,3.68,3.68,0,0,0-.24-2.55c-.79-1.88-1.75-3.7-2.63-5.55-.24-.5-1-.54-1.47-.56a10.36,10.36,0,0,0-3.08.42,10.14,10.14,0,0,0-2.87,1.17c-.31.21-1.23.75-1,1.23L267,310c.53,1.11,1.32,2.34,1.19,3.62l.06-.38a2,2,0,0,1-.39.94l.34-.42-.22.23c-.28.29.56-.37.29-.2-.45.28.42-.21.45-.22-.53.25,1.09-.42.53-.22a10.75,10.75,0,0,1,2.17-.53c.44-.06.54-.07.28-.05l.67,0c-.45,0,.69.17.27,0l-.32-.1.5.19a1.79,1.79,0,0,1-.7-.52l.24.3a4,4,0,0,1-.53-1.58l-.42-2.23-.87-4.53c-.1-.51-1.19-.56-1.48-.57a10.37,10.37,0,0,0-3.08.43,9.59,9.59,0,0,0-2.87,1.17c-.38.25-1.1.67-1,1.22Z"/><path class="cls-26" d="M251.73,268.32a15.25,15.25,0,0,0-7,3,6,6,0,0,0-2.36,3.64,4.38,4.38,0,0,0,1.34,3.65,8.61,8.61,0,0,0,4.46,2.18,7.11,7.11,0,0,0,3.68-.38,5.91,5.91,0,0,0,1.5-.66,4.26,4.26,0,0,0,1.32-1.14,6.1,6.1,0,0,0,.81-2.68,5.31,5.31,0,0,0-.53-2.63,1,1,0,0,0-.57-.69,2,2,0,0,0-1.05-.43,7.1,7.1,0,0,0-3.14.2,6.83,6.83,0,0,0-2.81,1.4l-.55.59a1.42,1.42,0,0,0-.3,1.19,4.69,4.69,0,0,1,.53,2V277a4.53,4.53,0,0,1-.45,1.95l.3-.6-.07.12,6.51-2.18a6.33,6.33,0,0,1-.75-.19l.77.24a6.18,6.18,0,0,1-1.62-.77l.55.38a4.74,4.74,0,0,1-1.39-1.43l.29.5a3,3,0,0,1-.42-1.52v.58a3,3,0,0,1,.29-1.17l-.3.6a4.19,4.19,0,0,1,.69-1l-.55.59a5.17,5.17,0,0,1,.83-.72l-.77.55a8.15,8.15,0,0,1,.8-.49l-.95.48.44-.21c.2-.08.81-.29-.09,0s-.27.1-.06,0l.24-.06-.75.15a9.26,9.26,0,0,0,3.19-1.07c.52-.33,1.5-1,1.6-1.74.26-1.81-2.44-1.94-3.61-1.73Z"/><path class="cls-26" d="M271.52,231.77a2.07,2.07,0,0,1,.17.24l-.29-.49a3.69,3.69,0,0,1,.42,1.87v-.57c0,.87-.14,1.76-.07,2.63a4.07,4.07,0,0,0,.78,1.9c1.27,1.94,3.93,2.18,6,2a11,11,0,0,0,4.73-1.56,7,7,0,0,0,2.39-2.26,6.18,6.18,0,0,0,.68-4.59,8.14,8.14,0,0,0-2.9-4.33,3.59,3.59,0,0,0-2.25-.66,8.32,8.32,0,0,0-3.3.67,4.93,4.93,0,0,0-2.27,1.58c-.3.48-.58,1.2,0,1.64a8.23,8.23,0,0,1,1.88,2.07l-.29-.49a6,6,0,0,1,.88,3.14V234a4.7,4.7,0,0,1-.42,1.89l.29-.59a4,4,0,0,1-.63.9l.55-.58-.26.23c-.3.29.5-.33.49-.33l-.15.09c-.29.17-.06.06.68-.33-.53.23,1.17-.33.7-.22s1.33-.23.69-.14,1,0,.59,0,.46,0,.49.05a1.28,1.28,0,0,0-.35-.07l.76.22a3.18,3.18,0,0,1-.82-.37l.55.36a3.39,3.39,0,0,1-.95-1l.29.49a3.58,3.58,0,0,1-.44-1.84v.57c0-.82.12-1.64.08-2.47a4,4,0,0,0-.87-2.24c-.41-.56-1.69-.66-2.25-.67a8.46,8.46,0,0,0-3.3.67,5,5,0,0,0-2.28,1.59l-.29.58a1,1,0,0,0,.28,1.06Z"/><path class="cls-8" d="M427.37,382.85c-3.94-2.55-9.25-3.79-14.44-4.88a41.07,41.07,0,0,0-11.19-1.24c-3.81.26-7.74,1.71-9.25,4.18-.88,1.43-.91,3.1-2.21,4.37-2.3,2.26-7.4,2.19-10,4.27a3.57,3.57,0,0,0-.26,5.58c1.66,1.62,4.69,2.39,7.57,2.22,3.16-.2,6.22-1.42,9.34-1.1a26.43,26.43,0,0,1,4.46,1.1,27.14,27.14,0,0,0,19.16-2.06c5.37-3,8.31-7.92,7.44-12.56"/><path class="cls-29" d="M287.08,144.43l-.24-.1a5,5,0,0,1-.54-.28,24.48,24.48,0,0,1-2.44-1.54,18.53,18.53,0,0,1-5.51-6.14c-1.62-3-2.33-7.28-1.19-10.59a12,12,0,0,1,2.91-4.06,50.07,50.07,0,0,1,4.68-4.18c3.05-2.47,6.3-4.67,8.87-7.67A24.25,24.25,0,0,0,299.34,98a18.34,18.34,0,0,0-2.67-12.61,29.56,29.56,0,0,0-5.37-5.91c-1.88-1.69-3.73-3.39-5.65-5a22.74,22.74,0,0,1-4.83-5.06,12.55,12.55,0,0,1-1.53-7.63c.4-5.71,3.65-10.48,7.08-14.86,1.19-1.52-1.67-2.07-2.55-.94-3.1,4-6.06,8.19-7.19,13.17-1.05,4.59-.52,9.53,2.59,13.21a39.87,39.87,0,0,0,4.94,4.6c2,1.68,3.87,3.44,5.77,5.2,3.79,3.51,6.54,8,6.54,13.29a20.63,20.63,0,0,1-4.58,12.52c-2.56,3.29-6,5.57-9.16,8.16-3,2.42-6.47,5.16-8.21,8.68-1.58,3.21-1.12,7.77.15,11a20.24,20.24,0,0,0,10.67,10.74c1.31.57,3.52-1.32,1.74-2.09Z"/><path class="cls-29" d="M255.2,151.11a30,30,0,0,0,5.14-10,8.45,8.45,0,0,0-1.19-7.1,22.75,22.75,0,0,0-3.65-4.59c-1.16-1.13-2.48-2.06-3.59-3.25-4-4.34-6.34-10.87-4.93-16.75.83-3.45,3.14-5.8,5.7-8.1a33.69,33.69,0,0,0,7-8.23,14.94,14.94,0,0,0,1.46-11.4,31.53,31.53,0,0,0-5.88-11.16c-.79-1-3.7.14-2.8,1.3,4.32,5.55,8.25,13.16,4.82,20.09a28.88,28.88,0,0,1-6.81,8.32c-2.44,2.21-4.81,4.44-6,7.6-2.05,5.49-.72,11.72,2.31,16.59a19.39,19.39,0,0,0,2.66,3.39c1.12,1.14,2.43,2.06,3.55,3.2,2,2,4.7,5,4.63,8-.07,2.63-1.3,5.19-2.55,7.45q-.79,1.44-1.71,2.82c-.18.28-.38.56-.57.84s.08-.1-.12.17c-1.13,1.52,1.74,1.83,2.51.79Z"/><path class="cls-29" d="M384.59,152.87c2.75-2.63,5.48-5.8,6.89-9.37a6.23,6.23,0,0,0-1-6.61,39.05,39.05,0,0,0-7.15-6.86c-4.94-4-8.06-10.74-7.26-17.12a14.36,14.36,0,0,1,5-9c2.83-2.6,5.75-5.19,7.9-8.42A13.5,13.5,0,0,0,391,84a33.29,33.29,0,0,0-6.25-11.4c-.57-.74-3.5.29-2.83,1.14,4.47,5.73,9,13.68,4.95,20.79-1.92,3.36-4.82,6.05-7.66,8.62-2.54,2.29-4.75,4.76-5.68,8.12-1.66,6,.47,12.72,4.38,17.37,2,2.32,4.56,4,6.75,6.09,1.85,1.75,4.64,4.2,4.4,7-.23,2.66-2,5.13-3.61,7.15a38.94,38.94,0,0,1-3.24,3.63c-1.23,1.18,1.75,1,2.41.38Z"/><path class="cls-29" d="M357.18,43.25c-3.81,3.37-8.64,5.6-11.83,9.66a17.66,17.66,0,0,0-3.35,14c1,4.75,4.63,8.27,8,11.55A37.74,37.74,0,0,1,358.82,91a16.6,16.6,0,0,1,1.35,7.35,14.66,14.66,0,0,1-2.4,6.61c-2.16,3.44-5.38,6-8.48,8.56-2.78,2.27-5.74,4.65-7.46,7.88-2,3.79-1.46,8,0,11.91,1.95,5.37,6.75,11,13,11.06.69,0,1.67-.19,2-.9s-.25-1.17-.9-1.17a8,8,0,0,1-3.58-.92,14.43,14.43,0,0,1-6.74-7.13c-1.71-3.67-2.9-8.21-1.1-12.06,1.45-3.09,4.24-5.31,6.82-7.43,6.44-5.27,13.51-11.72,11.68-21-1-4.94-3.87-9.46-7.05-13.27-3-3.64-7-6.54-9.38-10.69-2.65-4.56-2.11-10.53.55-15,2.85-4.77,8.57-7.22,12.62-10.8.54-.48.21-1.15-.37-1.36a2.26,2.26,0,0,0-2.14.57Z"/><path class="cls-29" d="M324.57,45.28c4.55.55,9.69-1.54,12-5.61,3.81-6.81.13-15.29-6.51-18.68-9.47-4.83-19.11,3.56-23,11.68-3.42,7.14-3.51,15.83-1.21,23.32a33.43,33.43,0,0,0,6.33,11.77c1.23,1.45,2.66,2.71,3.92,4.12a49.88,49.88,0,0,1,3.56,4.5c4.46,6.32,8.95,15,7.14,23-1.63,7.16-7.17,12.22-12.17,17.15a26.14,26.14,0,0,0-5.4,6.81,14.66,14.66,0,0,0-1.14,9,28.62,28.62,0,0,0,10.37,17.23,11,11,0,0,0,.95.69,2.25,2.25,0,0,0,2,0c.21-.09,1.4-.76.84-1.12a26.13,26.13,0,0,1-9-10.85c-1.53-3.27-2.71-7.09-2.37-10.75A13.91,13.91,0,0,1,314,120.2c3.77-4.8,8.88-8.32,12.26-13.49a21.89,21.89,0,0,0,3.84-9.95,25.11,25.11,0,0,0-1.88-10.92,48.05,48.05,0,0,0-5.48-10.18,70.14,70.14,0,0,0-6.87-8c-5.8-6.16-8.64-14.83-8.55-23.19a27.22,27.22,0,0,1,6.29-17.63,20.56,20.56,0,0,1,5.81-4.76c6.38-3.38,13.59,3.12,15.18,9.08a11.37,11.37,0,0,1-2.05,10.22,6.84,6.84,0,0,1-2.91,2,7.77,7.77,0,0,1-2.31.41c-.27,0-.55,0-.82,0s.26,0-.07,0a2.85,2.85,0,0,0-2.15.58c-.44.38-.4.87.25,1Z"/><path class="cls-9" d="M334.64,418.77c.46-2.23.06-4.54-.06-6.78l.05.84a11.63,11.63,0,0,1,.07-2.36c0-.19.07-.37.1-.56.13-.63.06.14-.05.11s.22-.46.24-.49c.2-.44.37-.17-.14.15a1.5,1.5,0,0,0,.31-.35c-.49.41-.61.52-.35.32a2.82,2.82,0,0,1,.31-.21c-.07,0-1,.6-.38.26.74-.43-.86.23-.39.15a3.64,3.64,0,0,0,.63-.16c-1,.42-.91.15-.39.07s.94-.11,1.42-.15l-4.29-2.83a44.93,44.93,0,0,0-1.79,17.78c.08.87,1.27,1.54,1.95,1.76a6.41,6.41,0,0,0,3.58,0c2-.6,4.12-1.94,3.91-4.28-.05-.53-.09-1-.12-1.58l.05.85a43.21,43.21,0,0,1,1.95-15.36,2.24,2.24,0,0,0-1.1-2.19,5.28,5.28,0,0,0-3.19-.63c-4.16.37-8.65,1.58-10.89,5.45-1.53,2.64-.91,5.82-.74,8.7l-.05-.85a12.54,12.54,0,0,1-.17,3.18,2.26,2.26,0,0,0,1.1,2.2,5.15,5.15,0,0,0,3.19.63c2.1-.24,4.77-1.34,5.24-3.66Z"/><path class="cls-30" d="M343.57,426.64a35.09,35.09,0,0,1,2-17.86.43.43,0,0,0-.18-.67c-2.32-.85-4.89-.42-7.22.21a14.37,14.37,0,0,0-6.32,3.13c-2.21,2.14-2.73,5.2-3.28,8.1s-.74,5.83,1.38,8.05a5.58,5.58,0,0,0,3.21,1.68,15.58,15.58,0,0,0,8.59-1.58c.6-.29,3.32-1.82,1.23-2.16a12.48,12.48,0,0,0-6.57,1.29l3.66-.95c1.17.05,1.51,0,1,0-.05,0-.53-.11-.23,0a4.31,4.31,0,0,1-1-.48,4.26,4.26,0,0,1-1.49-1.55c-1-1.74-.87-3.9-.57-5.81a23.56,23.56,0,0,1,1.39-5.57,6.74,6.74,0,0,1,1.3-2.1c.06-.05.64-.51.31-.27h0l-.3.15-3.5.93-.49,0c-.64.06,0,.05-.09,0l-.17-.67a36.74,36.74,0,0,0-2.12,18.62c.07.52,1.39.51,1.62.51a12.85,12.85,0,0,0,3.43-.53,12.53,12.53,0,0,0,3.24-1.26c.41-.25,1.24-.66,1.15-1.25Z"/><path class="cls-30" d="M381.59,427.87a14.76,14.76,0,0,0,7.61-.83,13.6,13.6,0,0,0,4.67-2.71,11.48,11.48,0,0,0,3-5.83c.12-.48.25-1,.34-1.44a3,3,0,0,0,0-1.68c-.74-1.62-3.14-1.58-4.61-1.43-3.64.37-7.81,1.7-10.19,4.67a16.55,16.55,0,0,0-2.91,7.06c-.14.65.2.91.81,1.1a7.15,7.15,0,0,0,3,0,13,13,0,0,0,3.59-1.14l.89-.5a2.9,2.9,0,0,0,1-1,16.61,16.61,0,0,1,2.34-6.31l-.37.51a8,8,0,0,1,.85-1c.12-.1.66-.56.19-.18s.18-.08.29-.18-.95.51-.5.29l.27-.13c.05,0-1.2.49-.67.3.09,0-1.41.41-.82.26.09,0-1.43.29-.83.19-.9.09-1.17.13-.8.1.2,0,.1,0-.29,0-1,0,.33.09-.48,0-.56-.08-.12,0,0,.05l-.58-.25a1.35,1.35,0,0,1,.45.33l-.28-.38a1.66,1.66,0,0,1,.24,1.23l.06-.47a21.54,21.54,0,0,1-.81,3.16,10.31,10.31,0,0,1-1.45,3l.37-.51a6.94,6.94,0,0,1-.72.81l-.23.21c.45-.35.54-.43.28-.23s-.78.48-.08.08l.18-.1c-.4.19-.18.09.66-.28-.45.17-.18.09.81-.25-.3.08-.19.06.35-.07s.65-.13.34-.08c.92-.09,1.16-.13.72-.1.77,0,1,0,.57,0s-.2,0,.37.06a8.46,8.46,0,0,0-3,0,12.7,12.7,0,0,0-3.6,1.14l-.89.5a2.88,2.88,0,0,0-1,1c-.16.59.19,1,.8,1.11Z"/><path class="cls-30" d="M427.56,373.71l-5.57.05-2.67,0c-.32,0-.93-.1.32,0l-.54,0c-.58-.06.7.27.15,0-.16-.07-.32-.12-.47-.2l.59.31a2.5,2.5,0,0,1-.62-.55l.3.44a2.07,2.07,0,0,1-.32-1.31l0,.54a3,3,0,0,1,.41-1.2l-.36.57c.09-.14.19-.27.29-.4.33-.42-.53.41-.23.19s-.88.48-.3.19a4.94,4.94,0,0,1-1.15.46c-.5.16-.58.18-.25.09.82-.22-1.33.26-.49.11s-1,.07-.47,0l1.12-.06h1.11c.81,0-1-.09-.15,0,.21,0,.43,0,.65.06l.22,0c.28.05.29.05,0,0s-.27-.06,0,0l.21.06a7,7,0,0,1,1.07.42l-.6-.31a5,5,0,0,1,1.85,1.63l-.3-.45a4.12,4.12,0,0,1,.52,1.29c.13.67,1.24.88,1.73.94a9.29,9.29,0,0,0,3.48-.35,9.09,9.09,0,0,0,3.2-1.44c.49-.4,1.18-.94,1-1.68-.44-2.16-2.51-3.63-4.54-4.16a21.69,21.69,0,0,0-9.62,0,13.46,13.46,0,0,0-5.9,2.51,4.81,4.81,0,0,0-1.94,3.25c-.21,3.14,3.51,3.49,5.85,3.51,2.83,0,5.67-.05,8.5-.08a11.12,11.12,0,0,0,3.69-.78,6.37,6.37,0,0,0,2.59-1.61c.34-.46.68-1.09.1-1.55a4,4,0,0,0-2.47-.53Z"/><path class="cls-30" d="M422.82,403a13.06,13.06,0,0,0,10.26-2,9.15,9.15,0,0,0,4.21-6.32c.21-2.2-2.52-2.78-4.22-2.57a7.6,7.6,0,0,0-3.57,1.26,3.7,3.7,0,0,0-1.71,2.26,7.75,7.75,0,0,1-.32,1.26l.3-.8a7.5,7.5,0,0,1-1,1.8l.58-.77a7.81,7.81,0,0,1-1.26,1.31l.84-.69a8.67,8.67,0,0,1-1.3.87l1.05-.58a8.5,8.5,0,0,1-1.19.54l1.23-.44a9,9,0,0,1-1.26.34l1.28-.23a9.09,9.09,0,0,1-1.28.12l1.2,0a7.33,7.33,0,0,1-1.15-.08l1.07.18a7.13,7.13,0,0,1-1.37-.38l.89.37-.24-.1a6,6,0,0,0-3.17-.54,7.6,7.6,0,0,0-3.56,1.26,3.61,3.61,0,0,0-1.72,2.26,2,2,0,0,0,1.05,2,11.26,11.26,0,0,0,2.51.85,14.71,14.71,0,0,0,9.62-1.39c3.19-1.67,6.12-4.4,6.69-8.13l-9.5.95a6.23,6.23,0,0,1-.3,1.33l.29-.8a6,6,0,0,1-.8,1.42l.59-.77a6.84,6.84,0,0,1-1,1l.84-.69a8.1,8.1,0,0,1-.91.62l1.06-.59a6.82,6.82,0,0,1-1,.45l1.22-.44a5.41,5.41,0,0,1-.79.21l1.28-.23a7.3,7.3,0,0,1-.94.09l1.2,0a5.52,5.52,0,0,1-.81-.06l1.07.18-.4-.08a7.27,7.27,0,0,0-3.56.07,6.73,6.73,0,0,0-3.12,1.72,2.55,2.55,0,0,0-.85,2.36,2.6,2.6,0,0,0,1.92,1.61Z"/><path class="cls-30" d="M442,417.43l10.83-6.34c1.77-1,5-2.65,4.07-5.23-.64-1.78-2.44-2.4-3.47-3.85l.31.5a2.16,2.16,0,0,1-.36-1.23l0,.58,0-.19c.3-1.94-2.76-1.82-4-1.63a10.21,10.21,0,0,0-3.58,1.18c-.67.4-1.67,1-1.84,1.8a23.25,23.25,0,0,1-2.48,6.56l.35-.61a23.52,23.52,0,0,1-2.6,3.68c-.24.28-.48.55-.73.81a3.66,3.66,0,0,0-.39.4c.19-.26.45-.43.08-.08-.57.53-1.16,1-1.77,1.49s-1.18,1.12-1,1.82,1.17,1,1.76,1.07a9.54,9.54,0,0,0,6.68-1.79,25.35,25.35,0,0,0,9.48-14.7L444,403a3.43,3.43,0,0,0,1.21,3.21,15.65,15.65,0,0,1,2.28,2.1l-.31-.49a2.26,2.26,0,0,1,.39,1.31l0-.58a1.8,1.8,0,0,1-.19.55l.35-.61c-.22.29-.14.23.23-.16-.32.25-.2.17.38-.24-.22.11-.44.26-.65.39l-1.67,1-3.21,1.88-6.55,3.84c-.62.36-1.64,1-1.84,1.8a1.21,1.21,0,0,0,.89,1.44c2,.76,4.87.05,6.66-1Z"/><path class="cls-30" d="M437.91,392l6.36,2.48a49.52,49.52,0,0,0,6.87,2.41c5.16,1.21,11.41.29,15.29-3.59a1.92,1.92,0,0,0-1-3.58,7.87,7.87,0,0,0-6.68,1.79,6.33,6.33,0,0,1-.46.44q.59-.43.21-.18c-1.07.54.68-.26-.21.1,1.43-.58.21-.15,0-.05,1.36-.64.32.16,0-.06.65,0,.73,0,.22,0-.21,0-.43,0-.64,0-.84,0,.4.13-.49-.07s-1.65-.4-2.46-.67c-2.73-.9-6.48-2.5-9.59-3.72a7.51,7.51,0,0,0-6.71.82c-1.12.77-3,3.05-.76,3.92Z"/><path class="cls-30" d="M409.49,448.15a32.33,32.33,0,0,0-.41-10,3,3,0,0,0-2-1.92,6,6,0,0,0-3.59-.06c-1.95.59-4.31,2.15-3.85,4.51a29.48,29.48,0,0,1,.49,3.64l-.07-.91a28.76,28.76,0,0,1-.14,5.41,2.6,2.6,0,0,0,1.15,2.37,5.14,5.14,0,0,0,3.22.74,6.76,6.76,0,0,0,3.55-1.3,4,4,0,0,0,1.65-2.52Z"/><path class="cls-30" d="M351.19,450.26c4.54,6.54,13.15,9.47,20.85,8.28a8.81,8.81,0,0,0,3.57-1.24c.64-.42,1.66-1.28,1.75-2.15.22-2.14-2.6-2.58-4.17-2.34-.37.06-.74.11-1.12.14a2.56,2.56,0,0,1-.62,0c.12,0,1.08,0,.45,0-.42,0-.84,0-1.26,0l-.49,0c-.16,0-.91-.12-.22,0s-.12,0-.21,0l-.49-.1c-.37-.08-.73-.17-1.09-.27s-.72-.22-1.08-.34c-.79-.26.5.22.06,0l-.58-.24a18.1,18.1,0,0,1-2-1.05c-.32-.19-.64-.4-1-.61l-.5-.37c.21.15.32.26.05,0a18.07,18.07,0,0,1-3.22-3.49,3.75,3.75,0,0,0-2.59-1,8.13,8.13,0,0,0-3.7.71c-1.49.7-3.71,2.28-2.44,4.11Z"/><path class="cls-30" d="M384.89,363.29a25,25,0,0,0-15.82,6.11c-.51.46-1.15,1.23-.95,2s1.16,1.14,1.82,1.26a8.91,8.91,0,0,0,6.68-1.79,12.15,12.15,0,0,1,1-.87c.76-.6-.74.49-.19.12l.56-.37,1-.6-.62.31.31-.15.61-.27.63-.25.31-.11c-1,.32-1.22.41-.75.26s.75-.22,1.13-.31l.33-.07-.78.15.66-.1.67-.08.33,0-.68,0a10.47,10.47,0,0,0,3.7-.74,5.78,5.78,0,0,0,2.54-1.82,1.46,1.46,0,0,0,0-1.9,3.7,3.7,0,0,0-2.54-.8Z"/></g></svg>