<svg xmlns="http://www.w3.org/2000/svg" xmlns:xlink="http://www.w3.org/1999/xlink" viewBox="0 0 1303.15 1057.31"><defs><style>.cls-1,.cls-18,.cls-35,.cls-38,.cls-8{fill:none;}.cls-2,.cls-43{isolation:isolate;}.cls-3{fill:#f2ebd1;}.cls-12,.cls-4,.cls-9{fill:#151210;}.cls-5{fill:#161311;}.cls-6{fill:#a66e53;}.cls-45,.cls-7{fill:#4f2e25;}.cls-12,.cls-8,.cls-9{stroke:#161311;}.cls-12,.cls-16,.cls-17,.cls-18,.cls-35,.cls-38,.cls-45,.cls-8,.cls-9{stroke-miterlimit:10;}.cls-8{stroke-width:1.44px;}.cls-9{stroke-width:0.62px;}.cls-10{fill:#231f20;}.cls-11,.cls-43{fill:#010101;}.cls-12{stroke-width:0.62px;}.cls-13{fill:#653c29;}.cls-14{fill:#31160e;}.cls-15{fill:#f1eef7;}.cls-16{fill:#a7a7a8;stroke-width:2.42px;}.cls-16,.cls-17{stroke:#939393;}.cls-17{fill:#dba829;stroke-width:1.84px;}.cls-18{stroke:#131429;stroke-width:0.94px;}.cls-19{fill:#513835;}.cls-20{fill:#c95744;}.cls-21{fill:#232e44;}.cls-22{fill:#b15e27;}.cls-23{fill:#df8c26;}.cls-24{fill:#c86b28;}.cls-25{fill:#13110f;}.cls-26{fill:#26120d;}.cls-27{fill:#561d26;}.cls-28{fill:#ccb631;}.cls-29{fill:#565656;}.cls-30{fill:#a38166;}.cls-31,.cls-33{fill:#cfcfcf;}.cls-31{mix-blend-mode:multiply;opacity:0.27;}.cls-32{fill:#4b2a15;}.cls-34{fill:#282b2b;}.cls-35,.cls-38{stroke:#282b2b;}.cls-35{stroke-width:7.19px;}.cls-36{fill:#f47920;}.cls-37{fill:#ad3624;}.cls-38{stroke-width:6.86px;}.cls-39{fill:#61686c;}.cls-40{fill:#777;}.cls-41{fill:#383838;}.cls-42{fill:#a09f9f;}.cls-43{opacity:0.4;}.cls-44{fill:#273339;}.cls-45{stroke:#4f2e25;stroke-width:0.39px;}.cls-46{fill:#42481e;}.cls-47{clip-path:url(#clip-path);}.cls-48{fill:#488c41;}.cls-49{fill:#2c5f2f;}</style><clipPath id="clip-path"><ellipse class="cls-1" cx="179.53" cy="877.14" rx="98.79" ry="16.44"/></clipPath></defs><g class="cls-2"><g id="Layer_10" data-name="Layer 10"><polyline class="cls-3" points="-122.78 1190.79 -122.78 -52.07 1384.52 -52.07 1384.52 1190.79"/><path class="cls-4" d="M310.79,402.21l-1.22-1.33c-9.88-4.91-18.18-5.44-24.76.62-.09,0-13-6.64-26,9.8-11.25,14.29-8.06,24-8.06,24s-8.79,3.36-10.85,7.37c-4.62,9-4.59,26.48,3.35,29s8.53,6.4,8.53,6.4,12.2,4.05,18.83,4.87,16.82-5.56,16.82-5.56,14.68,2.56,19.26-.47,7.57-13.45,7.57-13.45,15.44-.45,16-12c0,0,5.79-6.33-1.29-14.94a32.4,32.4,0,0,0-6.59-5.88s2.75-3.18,1.7-12.27C323.66,414.47,318.29,405.94,310.79,402.21Z"/><path class="cls-5" d="M311.62,401.85a11,11,0,0,0-1.22-1.33,16.59,16.59,0,0,0-4.26-1.92,29.56,29.56,0,0,0-8.23-2,18.21,18.21,0,0,0-13.83,4.72l1.44-.28c-5-2.56-11.7-1.55-16.54.85-5.77,2.86-10.24,7.82-13.72,13.15a34.08,34.08,0,0,0-5.64,14.17,15.19,15.19,0,0,0,.26,6.33l.53-.64a33.18,33.18,0,0,0-8.6,4.71c-3.32,2.61-4.53,6.8-5.28,10.83a33.38,33.38,0,0,0,0,13.43c.78,3.39,2.46,7,6,8.27,2.56.93,5.21,1.94,7.09,4a4.72,4.72,0,0,1,1.29,2.19c0,.16.23.23.36.27,4.56,1.51,9.19,2.87,13.88,3.95a23.63,23.63,0,0,0,8.56.86,32.43,32.43,0,0,0,9-2.89,47.32,47.32,0,0,0,5.31-2.83l-1.11.22a61.24,61.24,0,0,0,13.51,1c2.5-.12,5.29-.45,7.34-2,2.38-1.82,3.91-4.7,5.13-7.38a44.65,44.65,0,0,0,2.3-6.12l-1.24.64c4.5-.14,9.44-1.51,13-4.36a11.39,11.39,0,0,0,3.11-3.75,11.57,11.57,0,0,0,.88-2.43,5.39,5.39,0,0,0,.23-1.38c0-.24-.08-.45-.06-.52.08-.25.47-.59.61-.81a10.44,10.44,0,0,0,.85-1.58,10.62,10.62,0,0,0,.87-4.85c-.33-6.16-5.59-10.83-10.28-14.13l.13.48c1.92-2.26,2-6.23,2-9a16.45,16.45,0,0,0-1.37-7,28.2,28.2,0,0,0-4.37-6.54,27,27,0,0,0-8-6.38c-.55-.28-2.2.51-1.43.9a26.85,26.85,0,0,1,8.67,7.26,21.74,21.74,0,0,1,4.27,7.69,21.21,21.21,0,0,1-.09,9.8,7.86,7.86,0,0,1-1.35,3.22c-.16.19,0,.38.13.49,4.15,2.92,8.58,6.84,9.68,12a9.93,9.93,0,0,1-1.67,8c-.19.26-.16.06-.27.34-.3.77-.22,1.8-.44,2.63a9.8,9.8,0,0,1-2.34,4.15,15.28,15.28,0,0,1-7.31,3.95,24.15,24.15,0,0,1-3.37.65l-1.12.11h-.24c-.42,0-1.1.16-1.24.64-1.19,4.1-2.93,8.69-5.87,11.85-1.74,1.87-4,2.23-6.45,2.39a51.46,51.46,0,0,1-8.32-.3c-1.56-.16-3.1-.44-4.66-.61-1.16-.13-2.33.88-3.3,1.41a41.72,41.72,0,0,1-8,3.4,16.28,16.28,0,0,1-4.69.78,22.56,22.56,0,0,1-4.16-.6,137.72,137.72,0,0,1-15.58-4.32l.35.27c-.36-2.19-2.91-3.92-4.66-4.89-1.93-1.07-4.35-1.41-6.07-2.81a9.87,9.87,0,0,1-2.82-4.21,27.76,27.76,0,0,1-1.24-12.8,35.39,35.39,0,0,1,1.27-6.45,13.42,13.42,0,0,1,2.64-5.46c2.43-2.58,6-4.29,9.32-5.55.21-.08.63-.35.53-.64a12.73,12.73,0,0,1-.39-4.39,29,29,0,0,1,3.58-12c4.6-8.72,13-18.46,23.83-17.93A13.63,13.63,0,0,1,284.1,402a1.44,1.44,0,0,0,1.44-.28,15.3,15.3,0,0,1,12.5-3.91,29,29,0,0,1,7.29,2,14.93,14.93,0,0,1,3.47,1.57,11.46,11.46,0,0,1,1.15,1.26C310.39,403.05,312.11,402.39,311.62,401.85Z"/><path class="cls-6" d="M180.7,425.09l3,20.76a100,100,0,0,1,1.17,21.59l-.75,13.95-23.83,11.5S260.11,566,278.91,556.47s11.1-58.46,5-62.69-27.19-8.46-27.19-8.46l-9.27,2.2,4.09-19.26Z"/><path class="cls-6" d="M183.63,414.47S194.13,461.84,186,478c-2.12,4.22-8.37,7.79-8.37,7.79l23.26,18.44C232,520.37,225,532.74,257.37,519.1l10.27-13.72s-4.94-6.83-5.76-12.35-3.59-43.36-3.59-43.36"/><path class="cls-7" d="M206.5,450.59s7.25,20.07,44.05,25.56c0,0,8.55,1.76,9.84.81l-1.18-10.69Z"/><path class="cls-8" d="M308.33,399.62s23,6.68,23.55,21.94l-1,10.62s10.72,2.37,10,9.89"/><path class="cls-9" d="M149.55,363.86s-29.24-71.3,16.14-75a30.54,30.54,0,0,1,12-13.5c10.75-6.79,21.88-.2,21.88-.2s9.63-9.14,19.54-7.78,13.84,6.91,13.84,6.91,11.55-5.95,20.28-2,15,12.38,15,12.38,7.2-1.32,11.79.71c11,4.87,12.72,28.95,14.34,37.46,0,0-9.62-28.59-19.26-29.47s-93.38,20.49-93.38,20.49L159.06,389.8Z"/><path class="cls-4" d="M100.45,426.55l-.72,1.65c-.49,11,2.39,18.83,10.6,22.39,0,.1-.94,21.84,19.35,27,17.61,4.5,25.2-2.36,25.2-2.36s6.64,6.69,11.13,6.94c10.11.58,20.35-11.22,19.48-19.52s-3-20.21-3-20.21.47-8.71-1.47-15.1-11.35-13.5-11.35-13.5,5.42-10.9.79-13.85-15.69-5.57-15.69-5.57-6.33-9.84-17.13-5.68c0,0-8.13-2.73-13.14,7.23a32.32,32.32,0,0,0-2.71,8.41s-4-1.23-11.91,3.41C106.45,409.82,100.82,418.18,100.45,426.55Z"/><path class="cls-5" d="M99.56,426.66a6.83,6.83,0,0,0-.74,2A35.27,35.27,0,0,0,100.31,441a17,17,0,0,0,9.31,10l-.19-.32a29.69,29.69,0,0,0,4.91,17.3,24.39,24.39,0,0,0,12.82,9.53,39.88,39.88,0,0,0,20.35,1.41c2.75-.59,5.94-1.61,8.09-3.54l-1.55.2a37.71,37.71,0,0,0,5.47,4.53A16.05,16.05,0,0,0,164,482.4a11.08,11.08,0,0,0,5,.1c7.39-1.26,14-7.38,16.6-14.32,1.33-3.61.73-7.1.22-10.81-.54-4-1.16-7.9-1.83-11.84a23.29,23.29,0,0,1-.54-4.45,53.55,53.55,0,0,0-.86-11.38c-1.37-6.82-6.68-12.11-12.06-16.19v.37a25.78,25.78,0,0,0,2.63-8.24c.21-1.71.19-3.68-.9-5.12s-3.41-2.24-5.1-2.92c-2.28-.91-4.62-1.66-7-2.35a36.59,36.59,0,0,0-4.51-1.22,1.23,1.23,0,0,1-.32-.07c.48.23.28.17.22,0a4.69,4.69,0,0,0-.72-.94,17.81,17.81,0,0,0-3.16-3,14.91,14.91,0,0,0-14.38-1.7l1.07-.06a11.27,11.27,0,0,0-8,.7c-5.88,2.76-8.26,9.55-9.44,15.48l1.44-.6a9,9,0,0,0-3.76,0,24.74,24.74,0,0,0-9.59,3.84c-2.55,1.72-4.42,4.54-5.87,7.18a27.74,27.74,0,0,0-3.53,11.72c0,.73,1.75.38,1.79-.22a26.86,26.86,0,0,1,3-10.78,21.5,21.5,0,0,1,5.3-7.08,20,20,0,0,1,8.62-3.67,6.76,6.76,0,0,1,2.9,0c.41.12,1.35-.11,1.45-.6,1.2-6,4.12-14.86,11.5-15.35a8.94,8.94,0,0,1,2.13.12l.58.13.16.05c-.26-.06.07,0,.23,0a16.4,16.4,0,0,0,2.44-.68,11.32,11.32,0,0,1,2.84-.34,11.88,11.88,0,0,1,4.52.91,15.76,15.76,0,0,1,5.59,4c.57.63,1,1.53,1.78,1.79,2.19.67,4.43,1.15,6.61,1.84,2.88.91,6.18,1.85,8.68,3.61s1.74,5.51,1.09,8a28.54,28.54,0,0,1-2,5.43c-.05.11-.12.28,0,.37a50.21,50.21,0,0,1,4.41,3.83c2.52,2.43,5.11,5.2,6.49,8.48,1.5,3.58,1.75,7.84,1.87,11.67a41.61,41.61,0,0,0,0,4.87c1,6.61,2.36,13.18,3,19.85.65,7.16-5.56,14.42-11.66,17.35a13.76,13.76,0,0,1-5.93,1.45,10,10,0,0,1-5.16-1.86,34.35,34.35,0,0,1-6.13-5c-.37-.37-1.22-.09-1.55.2a14.89,14.89,0,0,1-5.62,2.63c-6.2,1.69-13,.92-19.15-.83A23.84,23.84,0,0,1,116.5,468a28.41,28.41,0,0,1-4.65-11.09,27.49,27.49,0,0,1-.63-6.44.31.31,0,0,0-.18-.33,16.32,16.32,0,0,1-9-9.89,28,28,0,0,1-1.35-7.36,27.07,27.07,0,0,1,0-4.41,6.83,6.83,0,0,1,.74-2.05C101.59,425.89,99.82,426.08,99.56,426.66Z"/><path class="cls-6" d="M186.39,437.6c15.61,14.95,48.3,32.14,68.68,34.67,20,2.47,26.1-4.58,28.61-7.7,13.78-17.13,22.31-34.09,26.48-53.22,1.13-5.19.87-10.68.08-16.25-1.17-8.37-4-24.36-4.53-32.4-1.29-20.48-11.73-37.48-24.35-53.78-26.27-34-75.42-30.24-95.4-18.75-23.35,13.44-32.46,37.74-32,62.77a67.37,67.37,0,0,0,4.15,22.58,72.57,72.57,0,0,1,9.93,11.63"/><path class="cls-4" d="M280.1,300.75s6.3,11.95,18.88,36c-3.23-7.72-5.55-19.51-13.14-30-26.47-36.79-96-26.13-115.92-13.84-23.28,14.36-30.31,40-29.71,67,.25,11,.33,18,4.29,26.77.16.11,2.23,2,2.23,2s22.3,2.5,30.61,15.25l-.61-11.63s.08-7.19,3.91-34.24c0,0,.15-4.26,6.34-21.74s13.59-22.92,13.59-22.92,35.31-8.64,43.83-9.24S280.1,300.75,280.1,300.75Z"/><path class="cls-5" d="M279.2,301q5.76,10.92,11.46,21.84L298.08,337c.3.57,2,.08,1.8-.48-2.27-5.49-3.79-11.25-6-16.76a59.81,59.81,0,0,0-9.66-16.54,57.89,57.89,0,0,0-22.93-15.87A95.4,95.4,0,0,0,233,281.24a138,138,0,0,0-28.8,1,123.17,123.17,0,0,0-24.13,5.57,56,56,0,0,0-21,12.89c-8.32,8.13-13.75,18.64-16.67,29.83-3.19,12.22-3.42,24.9-2.84,37.44a51.57,51.57,0,0,0,3.73,18.25,5.82,5.82,0,0,0,1.85,2.13,3.55,3.55,0,0,0,1.1.83,13.2,13.2,0,0,0,2,.29c8.23,1.4,16.9,4.15,23.44,9.51a24.2,24.2,0,0,1,4.84,5.31c.32.49,1.76,0,1.74-.59l-.38-7.3c-.07-1.3-.13-2.61-.21-3.91a2.76,2.76,0,0,1,0-.44c0-3.18.46-6.39.79-9.55.87-8.26,2.09-16.48,3.13-24.71.61-4.81,2.29-9.56,3.79-14.14,3-9.34,6.37-18.95,12.64-26.69a28,28,0,0,1,2.13-2.36,10.26,10.26,0,0,0,1.09-1c.2-.27-.49.22-.48.22s.32-.08.41-.1c.67-.13,1.34-.32,2-.48q9.13-2.21,18.31-4.26c6.58-1.47,13.19-3,19.87-4,2.33-.35,4.69-.48,7.05-.68q5.55-.48,11.09-1,9.71-.93,19.39-1.92l1.13-.11c.87-.09,1.5-1.1.25-1-12,1.23-24,2.4-36,3.4-6.08.52-12.17,2-18.12,3.33-6.88,1.49-13.73,3.08-20.57,4.71-1.63.39-3.29.72-4.9,1.18a4.83,4.83,0,0,0-2.06,1.44c-5.48,5.38-9,12.77-11.73,19.85-1.92,5-3.6,10.14-5.11,15.29a72.78,72.78,0,0,0-1.84,7.26c-.3,1.58-.46,3.2-.68,4.79-.73,5.29-1.43,10.59-2.05,15.9-.55,4.67-1.11,9.36-1.35,14.06a99.8,99.8,0,0,0,.45,10.37l.12,2.3,1.73-.59c-5.11-7.73-14.54-11.63-23.19-13.86q-2.41-.63-4.86-1.08a13.92,13.92,0,0,0-2.56-.4l-.23,0s.3.28.07,0c-.51-.67-1.38-1.07-1.94-1.71-.84-1-1.24-2.81-1.66-4a43.05,43.05,0,0,1-1.27-4.61c-1.36-6.29-1.35-12.85-1.44-19.25a117.11,117.11,0,0,1,1.06-18.05c1.6-11.45,5.26-22.77,12-32.23A53.23,53.23,0,0,1,176,290.33a99.68,99.68,0,0,1,21.42-6.12c18.41-3.37,38.15-3.58,56.2,1.84a63.27,63.27,0,0,1,24.21,13,50.86,50.86,0,0,1,10,12.4c3.29,5.7,5.48,11.91,7.56,18.13.83,2.48,1.66,5,2.66,7.39l1.8-.48q-9-17.14-18-34.27l-.92-1.75C280.69,299.91,278.94,300.5,279.2,301Z"/><path class="cls-6" d="M182.81,427.48c-9.52,11.46-19.46-4.53-19.46-4.53-10.94-11.28-14.43-24.11-14.73-32.91s9.36-9.4,9.36-9.4c8.27.26,7.19,1.32,20.07,23.8"/><path class="cls-10" d="M170.54,404.85A70.65,70.65,0,0,0,164,393.49a22.33,22.33,0,0,0-4.68-5,6.55,6.55,0,0,0-2.53-1.26c-1.06-.19-1.53.58-1.95,1.42-1.8,3.58-1.66,7.81-.7,11.6.12.48,1.49.12,1.36-.37a17.76,17.76,0,0,1-.14-9.21,8.85,8.85,0,0,1,1.41-3.07l-.9.38c.17,0-.1-.05,0,0s.3.07.44.11A8,8,0,0,1,158,389c2.58,1.79,4.53,4.53,6.22,7.13a81.35,81.35,0,0,1,5,9.11c.22.48,1.56.05,1.36-.36Z"/><path class="cls-10" d="M170.41,408.91c-5.67.79-.75,7.77-.82,10.89,0,.16-.09.37-.08.53a1.08,1.08,0,0,1-.12.22c.1.11.34-.19.35-.16s-.9-.95-1-1.12a23.36,23.36,0,0,1-2.4-4.89A21.22,21.22,0,0,1,164.7,408c-.21-2.69-.2-6.59,2.32-8.27.76-.52-.37-.89-.89-.55-2.4,1.61-2.88,4.75-2.87,7.43a19,19,0,0,0,.94,6.09,37.81,37.81,0,0,0,2.52,5.94c.49.91,1.19,2.34,2.27,2.68a1.51,1.51,0,0,0,1.9-1.09,5.55,5.55,0,0,0-.38-2.92c-.44-1.45-3-7-.24-7.44.72-.1,1.08-1.05.14-.92Z"/><path class="cls-4" d="M231.87,376.33c-2.51-.94-5.14.45-6.52,2a6,6,0,0,0-1.46,3,6.21,6.21,0,0,0,2.13,5.42,5.76,5.76,0,0,0,6.69.36,6.36,6.36,0,0,0,2.22-7.71,5.65,5.65,0,0,0-3.06-3.08"/><path class="cls-4" d="M244.93,384.69s-9.73-11.25-18.52-10.19c-12.38,1.49-14.43,9-16.67,13.1,0,0,7-9.75,16.57-10.67C235,376.1,244.93,384.69,244.93,384.69Z"/><path class="cls-4" d="M292,368.91c2.21-1.5,5.1-.78,6.81.4a6.05,6.05,0,0,1,2.13,2.58,6.18,6.18,0,0,1-.78,5.76,5.75,5.75,0,0,1-6.42,1.94,6.35,6.35,0,0,1-4-7,5.64,5.64,0,0,1,2.24-3.72"/><path class="cls-4" d="M275.11,381s6.17-13.16,14.32-14.14c11.46-1.38,15,5.5,18,8.94,0,0-8.5-7.89-17.33-6.59C282.06,370.42,275.11,381,275.11,381Z"/><path class="cls-4" d="M306.56,353.69a1.1,1.1,0,0,1,0-.18,18.19,18.19,0,0,0-5-1.7c-9.05-1.9-13.58-1.46-27.16,2.43v.3c.05,1.76,0,.78.07,2.54l.12,4c4.1-1.24,7-2.55,9.68-3.1,5.26-1.09,11.26-3.05,16.62-2.34a17,17,0,0,1,5.62,1.55C306.55,356.05,306.56,354.87,306.56,353.69Z"/><path class="cls-4" d="M241.69,359.74c.21,1.74.09.77.29,2.52l.45,4c-4.41-.62-7.62-1.48-10.44-1.64-5.59-.31-12.05-1.37-17.5.13-2.61.72-6.1,1.34-7.72,3.95-.44.69-1.36,3.59-2.46,3.24-.45-.14,0-2.38.05-2.61.93-4.5,4.45-6.74,8.91-8.31,9.08-3.21,13.82-3.44,28.4-1.59"/><path class="cls-11" d="M272.11,412.73a8.91,8.91,0,0,1-8.16.37c-.55-.26-2.22.23-1.46.6a12.59,12.59,0,0,0,11.1-.68c.28-.19.2-.41-.18-.49a2,2,0,0,0-1.3.2"/><path class="cls-11" d="M261.42,413.15a14.3,14.3,0,0,0-5.13-.71,1.15,1.15,0,0,0-.74.33c-.13.14-.14.32.06.41a5.46,5.46,0,0,0,2.81.33,1,1,0,0,0,.81-.42c.13-.25-.17-.37-.4-.34a4.38,4.38,0,0,1-2.27-.28l-.68.74a12.68,12.68,0,0,1,4.59.65,1.08,1.08,0,0,0,.9-.2c.17-.13.34-.41.05-.51"/><path class="cls-11" d="M254.59,414.11c-2,.17-4.49-.46-5.65-1.87-1.74-2.14-.75-6.16,1.61-7.91.26-.19.09-.38-.19-.41a1.6,1.6,0,0,0-1.05.34,7.48,7.48,0,0,0-2.6,7c.53,2,2.61,3.18,5.09,3.51a10.76,10.76,0,0,0,2.27.06c.31,0,.85-.18,1-.43s-.17-.34-.46-.31"/><path class="cls-11" d="M275.71,411.3a.26.26,0,0,1,.21-.41,2.37,2.37,0,0,0,1.51-.69l.61.6a7.17,7.17,0,0,0-3.05,1.48.57.57,0,0,1-.66,0c-.14-.1-.3-.34-.12-.49"/><path class="cls-11" d="M274.21,411.76a8,8,0,0,1,3.4-1.64.64.64,0,0,1,.57.19.28.28,0,0,1,0,.41"/><path class="cls-11" d="M279.93,411.12a4.18,4.18,0,0,0,3.24-2.84,6,6,0,0,0-2.26-6.34.23.23,0,0,1,0-.43.76.76,0,0,1,.72.14,6.67,6.67,0,0,1,2.73,5.3,4.69,4.69,0,0,1-2.6,4.34,5.15,5.15,0,0,1-1.42.47c-.2,0-.57,0-.69-.26s.05-.36.23-.38"/><path class="cls-12" d="M286.29,293.18c-4.16-2.76-12.09-6.21-19.32-6.42a6.46,6.46,0,0,0-.88,0l-3.86,1.57-.13.06.14-.07c.69-.32,2.17-1.14,1.53-2a3.33,3.33,0,0,0-1.57-.88,33,33,0,0,0-5.32-1v0l-.6,0-.6-.07v0a32.64,32.64,0,0,0-5.41,0,3.19,3.19,0,0,0-1.71.58c-.79.72.52,1.79,1.14,2.24l.13.09-.12-.08-3.51-2.25a7.88,7.88,0,0,0-.87-.16c-8.8-1.36-23.31,4.62-24.7,5.6s-.66,2.83-.61,3l-2.31-2.1s-11,3.16-12.93,4.31-3.05,4.21-3.05,4.21-3.35.89-4.48.4-7.43,2.1-10.24,5.45c-1.8,2.14-1.43,4.35-2.4,6.3h0c-.56,1.09-.88,1.82-.88,1.82l-6.42,1.5c-5.21,1.95-4.9,12.35-4.9,12.35-10.92,11.15-12.35,21.37-9,32.83,1.31,4.41-11.24,7.59-3.43,8.14s16,27.93,16,27.93,3.71-11.06,4.45-15.51-.24-17.92-.24-17.92l3.85-.19s2.41-.73,5.66-5.55-1-14.32-1-14.32l-1-5.59,7.38,1.19c7.28-.58,8.4-8.31,8.4-8.31l-.06-13.06,3.91,4.74a5.31,5.31,0,0,0,4,2.24c11.2.18,13.14-6.63,13.14-6.63l2.09-6.38,2.64,2.13c2.76,2.72,11.54,7.33,16.37,5.76,1.27-.42,6.77-3.91,7.65-4.38,2.51-1.5,3.55-4.38,4-6.27,2.47,2.83,5.82,5.83,9,6.27,3.93.53,12.58-.34,13.8-2.07.82-1.16-.42-1.42,1-1.23a4.77,4.77,0,0,1,3,2.17s3.12,11,12.78,15.7,11.08-19.36,2.1-23.54C298.94,305.74,298.5,292.82,286.29,293.18Z"/><path class="cls-9" d="M146.61,320.47s-10.68,2.86-14.08,8.65c-8.76,14.92-3.4,51.74,5.46,59.25l8.76,1.79Z"/><path class="cls-8" d="M139,384.37s-15.24-1.95-18.12,7.36l-1.32,4.42s-16.81-4.45-22.25,3.42-7.06,23.69-7.06,23.69"/><path class="cls-13" d="M265.42,427.71c-9.88.58-26,.4-26,.4s3.53,23.07,26.43,21.72,25.35-24.76,25.35-24.76S275.29,427.13,265.42,427.71Z"/><path class="cls-14" d="M265.51,427.71c-4.69.27-23.67.62-23.67.62s7.75,13.73,24.74,12.73c18.42-1.08,22.34-15.35,22.34-15.35Z"/><path class="cls-15" d="M265.76,428.37c-4.7.28-19,.35-19,.35s5.44,4.66,19.53,3.83,18.28-5.9,18.28-5.9Z"/><path class="cls-13" d="M292.19,423.62c-.5-.09-3.19.94-5.53.89-3.91-.1-6.4-.94-9.23-1-4.82-.08-7.77,1.93-9.86,2.05s-5.25-1.52-10-.88c-2.81.37-9.72,1.77-13.59,2.32-2.32.33-5.1-.39-5.6-.24-.68.2.95,5,27.23,3.49S292.9,423.74,292.19,423.62Z"/><path class="cls-6" d="M471.75,639l18.38-11s17.35,8.44,28.34,7.18a82.92,82.92,0,0,0,22.67-6.89L566.22,626s11.67,5.15,13.34,1.7-2.25-6.49-6-9.45-66.38-24.73-66.38-24.73A111.4,111.4,0,0,1,525.47,586c9.78-2.93,11-6.94,7.69-11.74s-16.32,1.76-21.25,4.07c-5.29,2.48-17.73,0-27.1,4.32s-14.39,17.56-14.39,17.56c-3.45,2.21-12.69,7.13-12.69,7.13C457.63,608.17,471.75,639,471.75,639Z"/><path class="cls-7" d="M552.7,622.11a6.8,6.8,0,0,0-2.44-3.85c-3.08-2.53-8.35-3.83-13.9-3.65a43.83,43.83,0,0,0-13.57,3,19.48,19.48,0,0,0-5.15,2.39,23.37,23.37,0,0,0,5.51-1.35,56.59,56.59,0,0,1,13.33-2.52c5.27-.19,10.3,1,13.12,3a7.07,7.07,0,0,1,2.51,3.16c.35.9.41,1.42.47,1.48S552.87,623.2,552.7,622.11Z"/><path class="cls-7" d="M524.06,610.43c-5.11-1.55-9.33-2.49-9.41-2.1s4,2,9.06,3.54,9.31,2.5,9.4,2.09S529.17,612,524.06,610.43Z"/><path class="cls-7" d="M509.05,608.42c2.33,4.41,2.39,8.37,2.77,8.52s1.05-4.26-1.45-9.14-6.63-7-6.74-6.66S506.71,604,509.05,608.42Z"/><path class="cls-6" d="M541.49,771.47c-3.72.5-10.7-6.37-6.54-10.61a24.84,24.84,0,0,1,5-3.36,2.83,2.83,0,0,0,1.32,2.47c6.38,4.53,11.41,9.06,13.54,16.87a2.73,2.73,0,0,0,2.11,2.13l-.88.35c-4.15,1.52-7,2.2-10.83.14A7,7,0,0,1,541.49,771.47Z"/><path class="cls-6" d="M575.07,772.23a13.22,13.22,0,0,1,2.52-3.35l-3.1-2.44a52.73,52.73,0,0,1-9.09,7,3.4,3.4,0,0,0,.24-2.5c-2.4-8.82-8.34-14.59-15.6-19.74a.33.33,0,0,1-.1-.06c7.61-3.7,16.34-7.26,16.34-7.26s-23.58,6.61-28.23,8,4.29-10,4.41-16.55c.2-10.14,10.22-.24,16.72-3.56s23.68-12.33,23.68-12.33c-20,1.1-17.36-12.45-3.38-14.43s45.23-.38,51.81,5.63l10-2.68s3.44,5.43,7.41,19.77c3.77,13.6,3.6,19.89,3.6,19.89l-17.58,3.88c-12.94,21.1-29,17.2-36.15,20.74-9,4.41-8.28,6.47-15.55,9C577.19,783.19,571.85,777.38,575.07,772.23Z"/><path class="cls-16" d="M560,703.89c-2-3.8-.69-6.14-2.74-7.84l-19.42-16c-2.62-2.17-4.54-3.56-6.54-3.48S516,679.06,512.4,679.4s-4,.7-5.4-.43l-4.23-3.49s-4.41,4.85-8.45,9.53l0,0-.48.6c-.16.2-.33.4-.5.59l0,0c-3.84,4.86-7.77,10.1-7.77,10.1l4.23,3.49c1.37,1.13,1.11,1.69,1.44,5.23s.48,17.1.77,19.07,2,3.6,4.66,5.76l19.41,16c2,1.7,4.09-.07,8.21,1.22s8.79,1.68,11.38,3.44,4.3,3.16,5.75,6.28,5.65,12.93,8.23,15.63,13.45,10.92,15.05,12.24c.51.42,1.42-.56,2.45.29s.31,1.6.61,2,15.08,12.45,16,13.25,2.24-.74,3.22.17.16,2.24,1.42,3.28,13.58,11.7,14.21,12.21,1.23-.32,2.14-.15,1.17.68,1.63,2.21.51,1.48,1.82,2.56,7.06,5.64,8.36,5.94,2.49.23,3.61,1,7.38-4.76,9.86-8.57A88.83,88.83,0,0,0,641,808.1l0,0,.48-.6.5-.59h0a89.71,89.71,0,0,0,8.53-12.74c3.28-3.15,7.48-10.34,6.55-11.3s-1.1-2.16-1.63-3.37-6.1-6-7.41-7.07-1.27-1.15-2.86-1.31-2.14-.32-2.48-1.18.37-1.62-.26-2.14-13.42-10.6-14.68-11.64-2.42,0-3.49-.77.2-2.33-.77-3.13-15.55-13-16.05-13.25-1.1.63-2.12-.22-.24-1.92-.75-2.35c-1.6-1.32-11.73-10.45-14.87-12.46s-13.56-4.28-16.9-5.12-5-2.25-7.26-4.46S562,707.69,560,703.89Z"/><path class="cls-17" d="M646.72,783.26a7.47,7.47,0,0,1-1.24-2.55c-.41-.92-4.62-4.54-5.62-5.37a2.77,2.77,0,0,0-2.17-1c-1.21-.12-1.62-.24-1.88-.89s.28-1.23-.19-1.62-10.19-8-11.14-8.83a1.81,1.81,0,0,0-1.43-.36,8.68,8.68,0,0,1-3.34.67c-14.49.14-28.67,3.19-43,4.77-2.16.24-4.64.47-7.18.5a38.39,38.39,0,0,1-5.39,5.14,11.67,11.67,0,0,0,1.17,1.62c2,2,10.2,8.28,11.42,9.28.39.33,1.07-.42,1.85.23s.24,1.21.47,1.55,11.43,9.44,12.17,10,1.7-.56,2.44.13.13,1.7,1.08,2.49,10.3,8.87,10.77,9.26.94-.25,1.63-.11.89.51,1.24,1.67.38,1.12,1.38,2,5.35,4.27,6.33,4.5a7.47,7.47,0,0,1,2.74.73c.85.56,5.6-3.6,7.48-6.5a67.4,67.4,0,0,0,8.26-8.18h0l.37-.45.37-.45h0a67.93,67.93,0,0,0,6.47-9.65C644.24,789.44,647.43,784,646.72,783.26Z"/><path class="cls-6" d="M536.5,761.93c4.16-2.26,15-7.95,18.44-5.72,3.11,2,2.84,7.59-4.25,13.16,0,0,12.57-3.78,15.38,1,2.29,3.91-2.05,7.25-3.63,8.05-1.82.93-8.4,4.11-8.4,4.11Z"/><path class="cls-6" d="M631.29,710.65c-6.58-6-37.84-7.61-51.81-5.63s-21.5,23.56-21.94,26.83S561,745,578.93,721.7l4.2.73s12.47,10.27,21.63,13.22a80.3,80.3,0,0,0,16.79,3.57l16.75-29.59"/><path class="cls-6" d="M537.05,761.3C549.13,756,549,742,529.59,748.56,517.65,752.58,524.82,766.64,537.05,761.3Z"/><path class="cls-6" d="M558.73,781.16c-4,4-.5,10.41,5.22,9.89,7.14-.65,15.82-7.62,12.6-12.15C576.55,778.9,569.41,770.41,558.73,781.16Z"/><rect class="cls-16" x="475.77" y="678.84" width="31.93" height="9.7" transform="translate(1332.37 734.52) rotate(129.19)"/><path class="cls-6" d="M1056.5,270.57s-7.35,48.83,7.13,81.18c2,4.51,41.35,18.86,41.36,18.87-1.07-.39-6.24,3.16-7.2,3.65-18.56,9.43-36.72,20.34-57,25.71a140.69,140.69,0,0,1-65.94,1.48c-15.23-3.35-26.71-11.15-39.82-19,0,0,29.53-11.48,30.42-17.24s-5.85-48.59-5.85-48.59"/><line class="cls-18" x1="1067.58" y1="198.75" x2="1048.59" y2="219.01"/><path class="cls-19" d="M836.12,546.7a.79.79,0,0,1-.26.13l-.15-.69Z"/><path class="cls-20" d="M894.72,398c-12.54,6.89-24.45,10.67-33.24,31.7L833.79,524c.18.23-42.29,115.68-42.38,116,0,0,7.79-4.3,14.45,20.29,4.47,16.5,36.46,38.76,36.28,56.27,45.38-4.81,79.65-96.11,87.58-118.35l-11.37-27.16c1.18-20.22,1.54-40.5,1.23-60.76-.66-43,13.2-76.81,9.52-119.67Z"/><path class="cls-20" d="M794.39,631,632.27,700.55s22.14,33.43,11.08,62c0,0,228.15-17.12,246.09-87.76Z"/><path class="cls-6" d="M1065.67,748.55s-9.07,220.24-23.78,447c-12.17,186.51,23.43,426.16,23.43,426.16l46.75,6.8s45-265.65,70.83-433.39c23.77-154.69,21.6-244.17,21.6-244.17l8-224.25Z"/><g id="freepik--character-2--inject-2"><path class="cls-20" d="M906.84,707.65c1.26,20.17-3.34,39.1-7,58.61-2.25,11.89-3,24.52-5.13,36.37C917.81,815,937.08,831,961.78,840.31c34.46,13,71.78,16.7,108.33,17.59,34.3.84,69.36,1.47,102.17-9.94a192.1,192.1,0,0,0,39.65-19.49c-22.82-77.73-49.49-130.57-49.49-130.57l-7.5-14.77,20-290.67-70-21.84-32.27-13.15-3.29,14.72c-11.25,16.15-26.26,26-46.6,27.85a139.77,139.77,0,0,1-18.65.43c-17.91-.8-43.73-9.85-43.38-30.42,0-.61-33.65,14.69-36.26,15.24-13.93,2.93-39.21,13.86-42.21,19.39,0,0,.38,145,1.79,166.09C885.1,585.45,901.32,619.62,906.84,707.65Z"/><path class="cls-21" d="M1235.8,936.75c-8.38-67.25-29.33-126.94-45.3-169.68-33.39,11.84-66.89,23.18-102.47,26.39-63.61,5.74-126.9-9.61-190.46-12.33-4.44,23.75-4.83,34.27-8.25,58.14.78,1.86-2.09,58.28-2.09,60.71l4.22,338.66c0,42.19,1.28,118.72,5.38,160.76,2.94,30.18.44,44.55,2.91,74.75,23.41,14.93,60.92,31.87,81.55,32.82,117.08,5.38,211.07-34.82,211.07-34.82S1237.69,951.89,1235.8,936.75Z"/></g><path class="cls-7" d="M964.44,353.39s10.08-4.27,16.92-6.42,18.65-2.1,49.6-30.65c0,0-8.3,34.18-48.65,42.69,0,0-10.42,2.51-17.36,1.06Z"/><path class="cls-6" d="M922.5,147.36a4.41,4.41,0,0,1-.38.75l.43-.37Zm-17.65,6.35,0,.32c.26-.27.52-.53.74-.79C905.59,152.86,904.85,153.71,904.85,153.71ZM1054.63,280l1.49-6.55c9.33,10.69,22.5.56,22-15.7,3.74-8.46,7.45-35.9.11-43.7l-.91-1.15c-5-3.24-13.47-4.14-16.45,2.36-.92,2.8.32,6.11-.6,8.91-.87,3.18-4.73,9.41-6.47,12.3,0,0-3.93-15.27-4.39-22.52s-7.91-27.47-21.93-36.15c0,0-2.64-25.42-9.32-32.3L1016,145c-1.24.15-2,.62-3.25.77-.05-.37.32-.8.23-1.56-2,1-3.67.83-5.32,1,.36-.42,1.15-.9,1.1-1.28-1.6.58-3.3.4-5,.6.37-.43,1.1-1.29,1.05-1.67-2,1-3.3.4-5,.6a2.85,2.85,0,0,0,.65-1.62c-1.56,1-3.26.78-4.91,1,.37-.43.69-1.24,1.06-1.66-2,1-3.3.39-4.95.59-.42.05.73-.86.68-1.23a15.65,15.65,0,0,1-4.08.87c0-.38.74-.86.69-1.23-2.38,1.05-3.71.44-5.36.64l1.05-1.66a5.9,5.9,0,0,1-4.85,1.35c.36-.43,1.1-1.28,1-1.66a8.23,8.23,0,0,1-6.51,1.55c.42,0,1.1-1.29,1.06-1.66-1.88,1.76-3.58,1.58-5.64,1.83.36-.43.69-1.24,1.42-2.1-2.29,1.82-5.09,2.92-7.7,2.08.41-.05.69-1.23.64-1.61-1.46,1.71,1.41-.55-.71-.69,0,0-4.56,2.09-4.61,1.71-1.51,1.34,3.58-6.94,1.52-6.7.32-.8-11.75,2.13-11,1.28-1.88,1.76-1.55.93-4.07.85,0,0-8,5.56-7.66,5.13-1.83,2.15-3,.67-5.48.59.37-.43,1.68,1.4,2.05,1-1.47,1.71-1.15-.25-3.21,0-.05-.38-7.05-1.65-7.09-2-1.93,1.39-1.23,1.47-3.71,1.77,0-.38-1,4.35-.68,3.93-1.47,1.71-1.54.46-3.65.33L914,147.69c-1.83,2.14.9,1-1.62.89,0-.26,9.45.07,9.77-.47a15.24,15.24,0,0,1-5,3c0-.38.28-1.19.24-1.57a8.34,8.34,0,0,1-6.33,3.07c.41-.05.73-.86.69-1.24-1.84,2.15-4.18,3.58-6.79,2.74V154a13,13,0,0,1-5.45,3.41,1.66,1.66,0,0,1,.64-1.62l-1.64.2c-1.7,3.28-3.44,6.18-3.81,10.06,0,0-11.83,23.43-9.73,37.39S892.41,241,893.55,247a121.78,121.78,0,0,1,1.54,19.07c0,12.38.37,15.61,4.87,27.51,4.36,11.51,8.08,17.5,16.06,26.91,8.32,9.8,19.49,17.85,30.11,25.79,7,5.22,10.63,10.33,25.6,8.33,25.55-3.4,49-22.24,63.32-40.65"/><path class="cls-22" d="M893.42,181c7.36-23.26,31.53-38.56,82.93-51.19s94.46,1.56,94.46,1.56c-33.23-71.8-108.72-60.24-125.62-58.21S849,151.54,885,210l2.1,5.68S892.08,185.25,893.42,181Z"/><path class="cls-22" d="M1082.35,114.26s.63-47.56-35.43-59.17C998.74,39.58,935.36,37.8,918.82,88.58Z"/><path class="cls-23" d="M1091.3,228.39c3.32-4.26,1-15,3.74-19.63,14.28-24.45,6.23-45.75-1.82-58-3.5-5.34-.72-15.77-1.59-20.72-4.55-25.91-7.64-26.35-49.63-48.46-34.18-18-68.28-12.91-88-9.47-31.52,5.5-45.26,9.16-53.65,33-1.09,3.1.75,5.28,0,9-1.11,5.2-8.89,6.68-9.43,13.17,0,0,42.67,11.49,79.84,26.16s107.94,80.24,108,102.43C1078.81,256.52,1087.62,233.11,1091.3,228.39Z"/><path class="cls-22" d="M1061.81,135c-19.17-9.83-52.41-22.09-93.36-17.57,0,0,82.45-21,126.86,35l1.17,2.3a57.88,57.88,0,0,1,5.88,19.43l-13.58-17A83.59,83.59,0,0,0,1061.81,135Z"/><path class="cls-22" d="M899.56,115l4.24-2.19A115.22,115.22,0,0,1,935.08,102l18.26-3.47s-45.38-2.44-53.93,10Z"/><path class="cls-24" d="M1062.63,268.61a8,8,0,0,1,7.93,6.45,7.67,7.67,0,0,1-.94,5.3,5.8,5.8,0,0,1-2.47,2.36,7.2,7.2,0,0,1-6.86-.07c-.45-.24-2.07.45-1.41.79a9.71,9.71,0,0,0,7.78.4,9,9,0,0,0,3.57-2.13,8.33,8.33,0,0,0-.1-11.33,9.19,9.19,0,0,0-6.8-2.67c-.33,0-1,.12-1.16.46s.15.44.46.44Z"/><path class="cls-25" d="M1044,206.93l6.62,36.57,11-17.81S1049.07,212.24,1044,206.93Z"/><path class="cls-7" d="M1059.83,242c1.19-.13,3-.34,3.32,1.19a8.81,8.81,0,0,1-.6,3.79c-.72,2.62-1.86,6.14.53,8.25,3,2.67,6.25-2,7.32-4.39a16.9,16.9,0,0,0,1.2-10.27c-.7-3.55-2.16-8.27-6-9.45-.75-.22-2.06.86-1,1.18,3.23,1,4.47,5,5.14,7.95a15.93,15.93,0,0,1-.48,9.19c-.63,1.76-1.61,3.94-3.25,5-1.07.68-1.94-.4-2.3-1.39-.94-2.54.61-5.54,1.12-8a4,4,0,0,0-.36-3.35c-1-1.24-3-1.11-4.44-.95-1,.1-1.34,1.4-.15,1.27Z"/><path class="cls-22" d="M1064.38,187.48s26.12,21.21,29,30.51l1.62-9.23A48.63,48.63,0,0,0,1064.38,187.48Z"/><path class="cls-11" d="M944.86,283.1c3.23,1.22,7.83.29,10.66-2,.63-.5,3-.37,2.06.33-3.74,3-10.37,4-14.54,2.44-.42-.16-.38-.46.09-.68a2.67,2.67,0,0,1,1.73-.13"/><path class="cls-11" d="M958.8,280.45a19.36,19.36,0,0,1,6.43-2.45,1.53,1.53,0,0,1,1,.2c.21.15.28.37.05.55a7.38,7.38,0,0,1-3.54,1.27,1.38,1.38,0,0,1-1.17-.31c-.24-.28.11-.52.41-.56a5.72,5.72,0,0,0,2.85-1l1.11.75a17,17,0,0,0-5.74,2.2,1.43,1.43,0,0,1-1.23,0c-.26-.11-.56-.42-.22-.63"/><path class="cls-11" d="M967.92,279.63c2.67-.38,5.67-1.92,6.75-4.08,1.62-3.27-.81-7.83-4.38-9.36-.39-.17-.23-.47.13-.59a2.2,2.2,0,0,1,1.46.12c3.12,1.34,5.48,5,5.38,7.94-.09,2.7-2.43,4.86-5.53,6a15.31,15.31,0,0,1-2.92.77c-.41.05-1.15,0-1.39-.27s.12-.48.5-.54"/><path class="cls-11" d="M939.8,282.34a.35.35,0,0,0-.4-.46,3.16,3.16,0,0,1-2.16-.43l-.6.95a9.47,9.47,0,0,1,4.37,1,.76.76,0,0,0,.84-.23c.15-.17.3-.52,0-.67"/><path class="cls-11" d="M941.87,282.48A10.62,10.62,0,0,0,937,281.4a.91.91,0,0,0-.68.41.38.38,0,0,0,.08.54"/><path class="cls-11" d="M934.28,283.37a5.52,5.52,0,0,1-5-2.67,7.85,7.85,0,0,1,1.06-8.8.32.32,0,0,0-.2-.54,1,1,0,0,0-.89.4,8.82,8.82,0,0,0-2,7.6,6.2,6.2,0,0,0,4.65,4.79,6.65,6.65,0,0,0,2,.18c.27,0,.73-.2.82-.53s-.17-.45-.42-.43"/><path class="cls-25" d="M909.66,235c-2.44-.91-5.27.41-6.61,1.92a6.36,6.36,0,0,0-1.14,2.94,6,6,0,0,0,2.07,5.26,5.57,5.57,0,0,0,6.49.35,6.18,6.18,0,0,0,2.16-7.49,5.53,5.53,0,0,0-3-3"/><path class="cls-25" d="M933.78,239s-12.21-7.44-18-7.32c-8.42.18-18.11,6-20.56,10.5,0,0,12.73-8.52,18.67-8.47C919.59,233.75,933.78,239,933.78,239Z"/><path class="cls-25" d="M982,225.64c2.14-1.46,5.87-1.58,7.52-.43a5.73,5.73,0,0,1,2.07,2.5,6,6,0,0,1-.75,5.6,5.58,5.58,0,0,1-6.23,1.87,6.15,6.15,0,0,1-3.87-6.75c.07-.47-.49-1.28,1.25-2.46"/><path class="cls-25" d="M969.64,233.55s11.63-9.52,17.8-10.45c9-1.35,20.43,2.64,23.87,6.61,0,0-15.16-6.08-21.48-5C983.8,225.82,969.64,233.55,969.64,233.55Z"/><path class="cls-25" d="M930.55,210.27q.12,2.53.24,5.1c.06,1.29.12,2.59.17,3.88-4.39-.87-8.14-1.39-11-1.72-6-.69-9-1-12.44-.26a32.74,32.74,0,0,0-7.74,2.88,21.28,21.28,0,0,0-4,2.41c-2.8,2.25-3.87,4.69-4.36,4.5s.16-2.29.22-2.5a19.81,19.81,0,0,1,5.77-8.93,23.35,23.35,0,0,1,7.8-4.08c3.36-1,12.74-2.14,25.33-1.28"/><path class="cls-25" d="M967.19,203.81l.66,5.06.51,3.85c4.55-1.67,8.47-2.87,11.44-3.71,6.27-1.78,9.49-2.67,13.28-2.56a38,38,0,0,1,8.81,1.41,23.85,23.85,0,0,1,4.75,1.62c3.41,1.7,5,3.9,5.48,3.63s-.59-2.22-.69-2.43a20.25,20.25,0,0,0-7.78-7.72,26.47,26.47,0,0,0-9.09-2.57c-3.78-.4-14,.24-27.37,3.42"/><path class="cls-13" d="M957.34,299.15c13.13-1.58,34.22-5.75,34.22-5.75s.08,30.49-30.36,34.16-36.45-25.82-36.45-25.82S944.21,300.73,957.34,299.15Z"/><path class="cls-26" d="M957.22,299.16c6.24-.75,27.2-3,27.2-3s-2.55,19.7-25.13,22.42C934.81,321.55,930,302.14,930,302.14Z"/><path class="cls-15" d="M957.06,300.17c6.24-.75,25.11-4.14,25.11-4.14s-6,7.94-24.71,10.19S932,302.29,932,302.29Z"/><path class="cls-13" d="M924.31,300.21c.64-.25,1.24.21,4.31-.44,5.11-1.08,8.17-2.89,11.88-3.64,6.33-1.28,10.7.86,13.48.52s6.52-3.44,13-3.7c3.78-.15,13.21.15,18.44,0,3.13-.1,6.61-1.79,7.3-1.7.95.12,0,7.38-34.92,11.58S923.41,300.55,924.31,300.21Z"/><path class="cls-20" d="M1148.87,551.53l13-163.17s37,5.36,55,59.81C1232,498,1275.77,646,1275,678.46s-28.86,233.3-28.86,233.3L1186,904l-5-232.33Z"/><path class="cls-20" d="M908.25,722.22s-17.52,86.29-24.42,108.34c0,0,112.51,26,214.94,4.82s109.7-34.07,109.7-34.07l-53.53-118.18.55-39L906.16,722.22"/><path class="cls-27" d="M1177.88,732.28l1.07,27.88,1.69,44.08.39,10.09c0,.68,3,.16,2.94-.78l-1.07-27.89-1.7-44.08-.38-10.09c0-.68-3-.16-2.94.79Z"/><path class="cls-27" d="M1152.74,423.21c-4.92,2.07-9.23,6.36-12.41,10.51-8.87,11.55-11.42,26.59-10.81,40.84a186.6,186.6,0,0,0,3.09,24.82c1.55,8.64,3.44,17.21,5.51,25.73,3.86,15.89,8.36,31.61,13.23,47.22,2.53,8.11,5,16.31,8,24.28,0,.12.09.24.13.36.45,1.28,3.37.46,2.93-.78-2.27-6.47-4.39-13-6.47-19.54-4.71-14.82-9.1-29.76-13-44.84-4.17-16.22-7.92-32.69-9.78-49.36-1.68-15.08-.89-31.37,7.32-44.61a39.41,39.41,0,0,1,8.28-9.57,31.18,31.18,0,0,1,3.31-2.38c.15-.09.79-.47.36-.23l.58-.32.75-.38a1.23,1.23,0,0,1,.26-.12c.53-.23,1.12-.87.71-1.45s-1.43-.41-2-.18Z"/><path class="cls-27" d="M872.55,477.93c1.78,7.14,3.25,14.68,3.29,22.05a41,41,0,0,1-.89,7.4c-.67,3.74-1.44,7.46-2.18,11.18-1.86,9.41-3.62,18.85-4.61,28.39a123.62,123.62,0,0,0-.74,14.39,91.75,91.75,0,0,0,1.6,15.41c2.56,14.21,7.68,29.18,18.15,39.59a31.06,31.06,0,0,0,6.8,5.27c.14.08.44.32.61.32s-.08-.4-.16,0a5.56,5.56,0,0,0,.24,1.55l.44,2.81,5.1,32.61.13.81c.14.92,3.1.24,2.93-.79l-4.63-29.63-1-6.65c-.11-.68,0-1.62-.62-2s-1.09-.57-1.6-.89a31.13,31.13,0,0,1-3.22-2.4c-10-8.51-15.53-21.52-18.64-34a100.46,100.46,0,0,1-3-30.45,229.89,229.89,0,0,1,4-29c1.37-7.17,3.17-14.33,4-21.59a44.45,44.45,0,0,0-.4-10.68c-.54-4.15-1.31-8.27-2.22-12.35-.16-.7-.32-1.4-.49-2.1-.24-.95-3.18-.19-2.94.79Z"/><path class="cls-28" d="M476.09,620.33l-11-19.75-58.55,31.68c-34.89,13.4-34.86,15-56.72,24.82l-.28-.28c-3.52,4.3-5.44,11.54-6.78,16-3.07,10.22-26.56,21.6-27.34,32.34-.5,6.94-9.33,7.78-7.2,18.88,3.87,2,10.41,7.27,28.65,11.46,18.9,4.34,48.39-10,48.39-10,55.85-39,84-68.57,103.73-92.08Z"/><path class="cls-28" d="M320.78,756.17c.07,0,.67,2.42.74,2.4,19.94-5.48,37.26-4.45,56.09-13.06-2.43-9.91,1.89-13.33.19-25.61C372.92,680.74,367.88,609.64,357,565s-16.71-54.66-63.11-68.86c0,0-.64,171.36,19,233.82C317.29,744,316.27,740.08,320.78,756.17Z"/><path class="cls-6" d="M359.5,707.23l.79-.67c2.86-2.35,12.42-10,15.06-9.22,3.1.94,25.08,7.28,25.08,7.28s-.32,6-11.84,6.4S359.5,707.23,359.5,707.23Z"/><path class="cls-28" d="M167.14,484.69c-16.83,6.75-16.84,7.56-25,11.28-4,1.81-28.35,15.64-28.35,15.64l2.64,69.86,9.47,166.17L104.11,797.4a188,188,0,0,0-13.6,47.12l-7.6,50c13.31,3.54,47.34-21.56,60.8-19.45,21.37,3.35,43.31,3.71,64.87,4.59,26.69,1.08,53.5,1.78,80.14-.72,26.44-2.47,37.82,9,63.31,1.7L335.87,771s-6-59.42-2.59-69.34c4.35-12.59,16-18.1,16.21-35.84.44-31.26-15.42-64.57-15.42-64.57l-7.35-91.44c-6.05-6.57-58.24-21.93-58.24-21.93s11.12,17.73-2.19,31-70.24-5-85.76-39.34Z"/><path class="cls-29" d="M328.51,824.91h0Z"/><rect class="cls-30" x="-85.58" y="877.4" width="1456.1" height="247.98"/><path class="cls-31" d="M299,874.53l-.17-.1Z"/><path class="cls-1" d="M151.66,695.83q.78,3.81,1.82,7.55a.74.74,0,0,0-.15-.53C153,701.39,152.35,699,151.66,695.83Z"/><path class="cls-32" d="M373.15,674.45l34.59,183.06-8.14,2.17L359.36,678.41S360.3,656.87,373.15,674.45Z"/><path class="cls-33" d="M403.82,804.68c-.17.11-.35.26-.55.39C403.47,804.94,403.65,804.79,403.82,804.68Z"/><path class="cls-33" d="M402.56,805.58c-.4.28-.8.56-1.24.85C401.76,806.14,402.16,805.86,402.56,805.58Z"/><path class="cls-33" d="M403.16,805.15a4.62,4.62,0,0,1-.47.34A4.62,4.62,0,0,0,403.16,805.15Z"/><path class="cls-33" d="M401.21,806.48c-.16.11-.37.22-.56.35C400.84,806.7,401.05,806.59,401.21,806.48Z"/><path class="cls-33" d="M405.44,803.35l-.39.34Z"/><path class="cls-33" d="M406.48,802.38c-.29.3-.63.58-.94.88C405.85,803,406.19,802.68,406.48,802.38Z"/><path class="cls-33" d="M404.92,803.79a3,3,0,0,0-.43.37A3,3,0,0,1,404.92,803.79Z"/><path class="cls-33" d="M404.41,804.2l-.56.46Z"/><path class="cls-33" d="M400.53,806.92c-.21.11-.41.23-.61.35C400.12,807.15,400.32,807,400.53,806.92Z"/><path class="cls-33" d="M398.27,808.19l-.64.35Z"/><path class="cls-33" d="M399.83,807.32c-.46.27-.95.54-1.45.81C398.88,807.86,399.37,807.59,399.83,807.32Z"/><path class="cls-33" d="M409.37,798.56c-.07.11-.13.23-.2.35C409.24,798.79,409.3,798.67,409.37,798.56Z"/><path class="cls-33" d="M410.5,795.05a2.09,2.09,0,0,1,0,.34A2.09,2.09,0,0,0,410.5,795.05Z"/><path class="cls-33" d="M409.86,797.52c-.07.14-.12.3-.2.45C409.74,797.82,409.79,797.66,409.86,797.52Z"/><path class="cls-33" d="M407.77,800.93c-.11.16-.25.3-.38.46C407.52,801.23,407.66,801.09,407.77,800.93Z"/><path class="cls-33" d="M408.81,799.5c-.08.14-.18.28-.26.41C408.63,799.78,408.73,799.64,408.81,799.5Z"/><path class="cls-33" d="M407.33,801.47a3.81,3.81,0,0,0-.33.36A3.81,3.81,0,0,1,407.33,801.47Z"/><path class="cls-33" d="M408.12,800.5c-.1.13-.21.24-.31.38C407.91,800.74,408,800.63,408.12,800.5Z"/><path class="cls-33" d="M410.45,795.52c0,.16-.06.31-.1.45C410.39,795.83,410.41,795.68,410.45,795.52Z"/><path class="cls-33" d="M410.57,794.55a2,2,0,0,0,0,.34A2,2,0,0,1,410.57,794.55Z"/><path class="cls-33" d="M410.18,796.58a2.58,2.58,0,0,1-.1.33A2.58,2.58,0,0,0,410.18,796.58Z"/><path class="cls-33" d="M410,797.05c-.05.15-.12.28-.15.4C409.92,797.33,410,797.2,410,797.05Z"/><path class="cls-33" d="M408.46,800l-.25.32Z"/><path class="cls-33" d="M410.32,796.07a2,2,0,0,0-.08.37A2,2,0,0,1,410.32,796.07Z"/><path class="cls-33" d="M409.1,799a2.87,2.87,0,0,1-.27.46A2.87,2.87,0,0,0,409.1,799Z"/><path class="cls-33" d="M409.61,798.09l-.16.33Z"/><path class="cls-33" d="M406.9,801.94l-.34.34Z"/><path class="cls-31" d="M397.63,808.54c-.05,0-.08,0-.14.05S397.58,808.55,397.63,808.54Z"/><path class="cls-31" d="M408.83,799.48l0,0Z"/><path class="cls-31" d="M408.55,799.91a.6.6,0,0,0-.09.13A.6.6,0,0,1,408.55,799.91Z"/><path class="cls-31" d="M406.56,802.28s-.05.08-.08.1S406.52,802.31,406.56,802.28Z"/><path class="cls-31" d="M403.85,804.66s0,0,0,0S403.84,804.66,403.85,804.66Z"/><path class="cls-31" d="M404.49,804.16s-.06,0-.08,0S404.45,804.17,404.49,804.16Z"/><path class="cls-31" d="M407,801.83l-.1.11Z"/><path class="cls-31" d="M409.17,798.91a.14.14,0,0,1-.07.11A.14.14,0,0,0,409.17,798.91Z"/><path class="cls-31" d="M405.05,803.69l-.13.1Z"/><path class="cls-31" d="M403.27,805.07a.38.38,0,0,1-.11.08A.38.38,0,0,0,403.27,805.07Z"/><path class="cls-31" d="M405.54,803.26a.41.41,0,0,0-.1.09A.41.41,0,0,1,405.54,803.26Z"/><path class="cls-31" d="M408.21,800.36a1.1,1.1,0,0,0-.09.14A1.1,1.1,0,0,1,408.21,800.36Z"/><path class="cls-31" d="M399.92,807.27s-.05,0-.09.05S399.89,807.27,399.92,807.27Z"/><path class="cls-31" d="M398.38,808.13l-.11.06Z"/><path class="cls-31" d="M407.81,800.88a.1.1,0,0,0,0,0A.1.1,0,0,1,407.81,800.88Z"/><path class="cls-31" d="M400.65,806.83s-.09,0-.12.09S400.62,806.86,400.65,806.83Z"/><path class="cls-31" d="M407.39,801.39s-.05.05-.06.08S407.39,801.41,407.39,801.39Z"/><path class="cls-31" d="M402.69,805.49a.73.73,0,0,1-.13.09A.73.73,0,0,0,402.69,805.49Z"/><path class="cls-31" d="M401.32,806.43l-.11.05Z"/><path class="cls-31" d="M409.89,797.45a.07.07,0,0,0,0,.07A.07.07,0,0,1,409.89,797.45Z"/><path class="cls-31" d="M410.53,794.89a1.43,1.43,0,0,0,0,.16A1.43,1.43,0,0,1,410.53,794.89Z"/><path class="cls-31" d="M410.46,795.39a.57.57,0,0,0,0,.13A.57.57,0,0,1,410.46,795.39Z"/><path class="cls-31" d="M410.35,796s0,.07,0,.1S410.35,796,410.35,796Z"/><path class="cls-31" d="M409.66,798a.61.61,0,0,0-.05.12A.61.61,0,0,1,409.66,798Z"/><path class="cls-31" d="M409.45,798.42l-.08.14Z"/><path class="cls-31" d="M410.24,796.44a.53.53,0,0,0-.06.14A.53.53,0,0,1,410.24,796.44Z"/><path class="cls-31" d="M410.08,796.91a.43.43,0,0,0,0,.14A.43.43,0,0,1,410.08,796.91Z"/><rect class="cls-34" x="311.31" y="954.6" width="25.29" height="9.92"/><rect class="cls-34" x="537" y="954.6" width="25.29" height="9.92"/><line class="cls-35" x1="434.4" y1="894.51" x2="434.4" y2="910.21"/><path class="cls-36" d="M390.36,904.69c0,7.17-3.94,5.79-8.79,5.79s-8.78,1.38-8.78-5.79,8.78-20.17,8.78-20.17S390.36,897.52,390.36,904.69Z"/><path class="cls-36" d="M409.53,904.69c0,7.17-3.94,5.79-8.79,5.79s-8.78,1.38-8.78-5.79,8.78-20.17,8.78-20.17S409.53,897.52,409.53,904.69Z"/><path class="cls-36" d="M429.29,904.69c0,7.17-3.94,5.79-8.79,5.79s-8.78,1.38-8.78-5.79,8.78-20.17,8.78-20.17S429.29,897.52,429.29,904.69Z"/><path class="cls-36" d="M457.86,904.69c0,7.17-3.93,5.79-8.78,5.79s-8.79,1.38-8.79-5.79,8.79-20.17,8.79-20.17S457.86,897.52,457.86,904.69Z"/><path class="cls-36" d="M478.21,904.69c0,7.17-3.93,5.79-8.78,5.79s-8.79,1.38-8.79-5.79,8.79-20.17,8.79-20.17S478.21,897.52,478.21,904.69Z"/><path class="cls-36" d="M498.26,904.69c0,7.17-3.93,5.79-8.78,5.79s-8.78,1.38-8.78-5.79,8.78-20.17,8.78-20.17S498.26,897.52,498.26,904.69Z"/><path class="cls-37" d="M387.33,907c0,4.7-2.58,3.8-5.76,3.8s-5.75.9-5.75-3.8,5.75-13.22,5.75-13.22S387.33,902.34,387.33,907Z"/><path class="cls-37" d="M406.5,907.72c0,4.7-2.58,3.8-5.76,3.8s-5.75.9-5.75-3.8,5.75-13.21,5.75-13.21S406.5,903,406.5,907.72Z"/><path class="cls-37" d="M426.26,907c0,4.7-2.57,3.8-5.75,3.8s-5.76.9-5.76-3.8,5.76-13.22,5.76-13.22S426.26,902.34,426.26,907Z"/><path class="cls-37" d="M455.14,907c0,4.7-2.57,3.8-5.75,3.8s-5.76.9-5.76-3.8,5.76-13.22,5.76-13.22S455.14,902.34,455.14,907Z"/><path class="cls-37" d="M475,907c0,4.7-2.57,3.8-5.75,3.8s-5.76.9-5.76-3.8,5.76-13.22,5.76-13.22S475,902.34,475,907Z"/><path class="cls-37" d="M495.24,907c0,4.7-2.58,3.8-5.76,3.8s-5.76.9-5.76-3.8,5.76-13.22,5.76-13.22S495.24,902.34,495.24,907Z"/><polyline class="cls-38" points="366.12 910.21 366.12 894.86 503.92 894.86 503.92 910.21"/><rect class="cls-39" x="311.31" y="910.21" width="250.98" height="44.39"/><circle class="cls-34" cx="436.8" cy="932.4" r="14.98"/><path class="cls-40" d="M328.7,778a5.31,5.31,0,0,0-2-3.91,18,18,0,0,0,3.46-.91h0c-.75-5.12-1.32-9.53,7.81-9.49,61.45.29,122.89.31,184.34.41,14.54-.76,14.54-.76,15.42,10.28h0l-.18,21.41c-.06,23.27,0,46.53-.24,69.79-.14,12.45-7.37,19-21.5,20.42l-165.54,0c-12.54-1.7-17.27-5.65-19.55-16.35-3-21.4-.51-53.16-1.32-74.59"/><path class="cls-40" d="M514.85,885.55a6.15,6.15,0,0,1,1,.43A10.75,10.75,0,0,0,514.85,885.55Z"/><path class="cls-41" d="M329.89,773.14a22.11,22.11,0,0,0-3.08-.22H307.32c-8,0-13.61,4.32-13.61,9.61s5.57,9.62,13.61,9.62h19.49a22.09,22.09,0,0,0,3.08-.23Z"/><path class="cls-41" d="M537.29,773.14a22.11,22.11,0,0,1,3.08-.22h19.49c8,0,14.61,4.32,14.61,9.61s-6.57,9.62-14.61,9.62H540.37a22.09,22.09,0,0,1-3.08-.23Z"/><path class="cls-42" d="M82.59,877.14S71.9,975.79,187.41,972.91c94.17-2.34,92.52-94.13,92.52-94.13Z"/><ellipse class="cls-42" cx="179.53" cy="878.07" rx="107.64" ry="26.02"/><ellipse class="cls-43" cx="181.14" cy="877.14" rx="98.79" ry="16.44"/><path class="cls-44" d="M283.52,885.51l-.47.28-1.33.83c-1.17.73-3,1.74-5.3,2.93a106.39,106.39,0,0,1-20.86,7.84,265.84,265.84,0,0,1-32.49,6.07,321.08,321.08,0,0,1-40.42,2c-14.34-.12-28-.59-40.42-1.69a229.48,229.48,0,0,1-32.67-5.07,147.85,147.85,0,0,1-21.26-6.63c-2.46-.93-4.3-1.84-5.57-2.4L81.32,889c-.34-.14-.5-.24-.48-.26a4.56,4.56,0,0,1,.52.18l1.47.57c1.28.5,3.13,1.33,5.61,2.21a160.58,160.58,0,0,0,21.3,6.28,236.9,236.9,0,0,0,32.57,4.84c12.37,1,26,1.49,40.36,1.61a326.52,326.52,0,0,0,40.28-2,270.06,270.06,0,0,0,32.41-5.84,112,112,0,0,0,20.88-7.47c2.34-1.15,4.17-2.09,5.36-2.76l1.39-.75C283.34,885.57,283.5,885.49,283.52,885.51Z"/><path class="cls-6" d="M406.94,724.43c-2.27-3.54-17.66-14.86-17.66-14.86s-6.86-5.46-13.23-4-36.66,2.81-36.66,2.81L313.7,722.22l-10.93,3.06c-.34,12.79,2,22.62,0,35.27,3.48-1.29,6.1-2.3,7.34-2.85,7.23-3.21,45.24.3,51.79-.74a123.23,123.23,0,0,0,13.23-3s27.8-13.22,27.89-15.06,1.88-2.46-3.44-6.36a60.27,60.27,0,0,0-10.47-6.11s11.56,4.8,13.61,4.05S409.21,728,406.94,724.43Z"/><path class="cls-45" d="M400.28,718.41a7.35,7.35,0,0,1-1.54-1l-4-3.12c-1.57-1.24-3.7-3-5.86-4.7a14.85,14.85,0,0,0-7.82-4,22.68,22.68,0,0,0-4.66,0l-4.4.33c-2.82.23-5.34.48-7.45.68l-5.09.55a9.47,9.47,0,0,1-1.84.1,8.67,8.67,0,0,1,1.81-.43c1.17-.2,2.88-.48,5-.76s4.65-.59,7.47-.86l4.41-.37a21.67,21.67,0,0,1,4.83,0,15.35,15.35,0,0,1,8.21,4.28c2.13,1.77,4.05,3.41,5.72,4.82s2.78,2.41,3.82,3.32A8.75,8.75,0,0,1,400.28,718.41Z"/><path class="cls-45" d="M367.63,718.07a15,15,0,0,1,3.76.63,64.86,64.86,0,0,1,8.7,2.81,63.18,63.18,0,0,1,8.29,4,14.62,14.62,0,0,1,3.15,2.12A20.62,20.62,0,0,1,388.1,726c-2.09-1-5-2.42-8.32-3.74s-6.36-2.3-8.6-3A21,21,0,0,1,367.63,718.07Z"/><path class="cls-45" d="M398.81,741.7a3.46,3.46,0,0,1-1.28.15,22.94,22.94,0,0,1-3.51-.18,51.71,51.71,0,0,1-11.12-3.09c-4.21-1.58-8-3.05-10.71-4.17a28.87,28.87,0,0,1-4.37-1.93,26.71,26.71,0,0,1,4.56,1.4c2.78,1,6.64,2.33,10.8,3.92a65,65,0,0,0,10.92,3.28C397,741.61,398.82,741.57,398.81,741.7Z"/><path class="cls-45" d="M383.91,749.71a11.63,11.63,0,0,1-3.28.1,69.35,69.35,0,0,1-7.88-.76,77.8,77.8,0,0,1-7.72-1.62,13.86,13.86,0,0,1-3.13-1c.06-.25,4.94.92,11,1.85S383.93,749.47,383.91,749.71Z"/><path class="cls-28" d="M116.23,510.18s-33.67,17-35.66,56.08S66.13,737.91,88.51,776s210.07-3.3,210.07-3.3l-.51-50.91-145-8.64s11.56-124.4,3.13-146.23-18.45-29.78-18.45-29.78"/><path class="cls-46" d="M301.44,720.88l-14.84-.68L251,718.58l-43.09-2-37.23-1.7-12.19-.55-3.85-.18a13.13,13.13,0,0,0-2-.09,2.35,2.35,0,0,1-.26,0l.93.9c.54-5.91,1-11.82,1.49-17.74q1.63-20.64,2.85-41.31c.92-15.78,1.65-31.58,1.83-47.38.08-6.85.06-13.71-.22-20.55a127.31,127.31,0,0,0-1.38-15.6c-1.16-6.95-4.42-13.44-7.79-19.56-3.16-5.74-6.92-11.48-11.79-15.93-.21-.19-.42-.39-.65-.57-1-.76-3.38.61-2.13,1.6a20.17,20.17,0,0,1,2.4,2.34,62.06,62.06,0,0,1,6.21,8.07A95.13,95.13,0,0,1,151.89,563a43.28,43.28,0,0,1,2.78,7.84,89.9,89.9,0,0,1,1.62,14c.36,6.5.44,13,.42,19.51-.06,15.59-.72,31.18-1.57,46.75q-1.17,21.32-2.85,42.6c-.55,7.07-1.35,14.15-1.76,21.23a3,3,0,0,1,0,.31.93.93,0,0,0,.93.91l14.83.67,35.63,1.63,43.09,2,37.23,1.7c6,.28,12,.59,18,.82l.25,0a1.83,1.83,0,0,0,1.81-.85.87.87,0,0,0-.85-1.17Z"/><path class="cls-46" d="M103,787.55c13.07,3.15,26.82,3.56,40.2,3.54,16.82,0,33.63-1.14,50.37-2.69s33.43-3.57,50.08-5.9q19.77-2.78,39.46-6.09c6-1,12.1-2,18.11-3.21l.24,0c.31-.06,1.66-.32,1.66-.84V760.91c0-.36-2.77,0-2.77.74v11.42l1.65-.84c-4.86.93-9.74,1.78-14.63,2.62q-18.4,3.17-36.91,5.83c-16.25,2.34-32.54,4.4-48.88,6-16.77,1.68-33.61,2.95-50.47,3.25-13.91.25-28.1.06-41.81-2.57-1.35-.26-2.68-.55-4-.87a3.35,3.35,0,0,0-1.93.37c-.23.11-.95.51-.35.65Z"/><path class="cls-46" d="M139,714.27c-11.7-3-22.55,5.93-28.95,14.81-.43.61.38,1,.86,1.07a2.19,2.19,0,0,0,2-.86c5.31-7.38,14.5-15.72,24.37-13.21a2.25,2.25,0,0,0,2.1-.56.7.7,0,0,0-.33-1.25Z"/><g class="cls-47"><path class="cls-48" d="M135.3,884c-1.44-3.12,0-7,2.6-9.24s6.12-3.11,9.54-3.47,6.88-.28,10.25-1,6.55-2.06,9.94-2.52a18.37,18.37,0,0,1,15.13,5,17.62,17.62,0,0,1,5,15.07,12.71,12.71,0,0,1-2.38,5.82c-3.24,4.18-9,5.2-14.29,5.79-6,.68-12.1,1.22-18.1.46s-12-2.93-16.41-7"/><path class="cls-49" d="M111.45,891.92a8.8,8.8,0,0,1-5.63-4.68,6.55,6.55,0,0,1,1.05-7,9.06,9.06,0,0,1,5.9-2.29c6-.48,11.94,1.57,17.93,2.44,3.66.54,7.57.7,10.65,2.75,3.85,2.56,5.41,7.36,6.7,11.8q-18.35-1-36.67-2.38"/><path class="cls-48" d="M202.56,889.64a27.43,27.43,0,0,1,19.2-9.33,53.61,53.61,0,0,0,6.47-.31c2-.34,4-1.13,6-.77a7.15,7.15,0,0,1,4.8,3.88,20.86,20.86,0,0,1,1.8,6.12,4.77,4.77,0,0,1,.06,2.31c-.41,1.32-1.82,2-3.11,2.51-8.32,3.1-17.43,3-26.3,2.82"/><path class="cls-49" d="M175.72,897.64a9.37,9.37,0,0,1-5.1-7.46,3.84,3.84,0,0,1,.8-3c1.41-1.44,3.79-.6,5.8-.54,4.09.11,7.32-3.43,9.37-7a17.37,17.37,0,0,1,2.88-4.18,4.59,4.59,0,0,1,4.67-1.19c2.08.86,2.68,3.46,4,5.29,1.9,2.67,5.37,3.72,7.73,6a9.84,9.84,0,0,1,3,7.41,3.49,3.49,0,0,1-.57,2,4.16,4.16,0,0,1-2.72,1.26,83.36,83.36,0,0,1-29.09.16"/></g><path class="cls-42" d="M594.39,917.53s-5.88,54.3,57.7,52.72C703.92,969,703,918.44,703,918.44Z"/><ellipse class="cls-42" cx="647.75" cy="918.05" rx="59.25" ry="14.32"/><ellipse class="cls-43" cx="648.64" cy="917.53" rx="54.38" ry="9.05"/><path class="cls-44" d="M705,922.14l-.26.15-.73.46c-.65.41-1.63,1-2.92,1.62a58.82,58.82,0,0,1-11.48,4.31A144.85,144.85,0,0,1,671.71,932a175.75,175.75,0,0,1-22.24,1.09c-7.9-.06-15.43-.33-22.25-.93a126.82,126.82,0,0,1-18-2.79,81.42,81.42,0,0,1-11.71-3.65c-1.35-.51-2.37-1-3.06-1.32l-.78-.37c-.18-.08-.27-.13-.26-.14a1.33,1.33,0,0,1,.28.1l.81.31c.71.28,1.73.74,3.09,1.22A88.49,88.49,0,0,0,609.33,929a130.75,130.75,0,0,0,17.93,2.66c6.81.57,14.32.82,22.22.88a178.52,178.52,0,0,0,22.17-1.09,148.2,148.2,0,0,0,17.84-3.21A60.74,60.74,0,0,0,701,924.13c1.29-.64,2.3-1.15,2.95-1.52l.76-.41C704.89,922.17,705,922.13,705,922.14Z"/><path class="cls-19" d="M649.93,564.56a.76.76,0,0,0,.17.13l.19-.49Z"/><path class="cls-46" d="M334.16,572.2a14.94,14.94,0,0,0-1.28,4.68,44.71,44.71,0,0,0,.69,14.5,149.74,149.74,0,0,0,3.33,14.79c.87,2.9,1.78,5.78,2.66,8.68,1.58,5.22,3.56,10.5,4.16,15.95,1,9.38-1.78,18.8-6.13,27a76.09,76.09,0,0,1-5.34,8.6,9.48,9.48,0,0,0-1.14,1.62c-.6,1.4,1.64,1.16,2.33.6l-2.28-.38a333.72,333.72,0,0,0,.53,35.08c.22,2.65.35,5.56,1.31,8.06.43,1.11,3.18.31,2.77-.74a26,26,0,0,1-1.2-6.84c-.34-3.54-.49-7.09-.59-10.65-.2-6.87-.2-13.76-.12-20.64,0-1.51.05-3,.08-4.55,0-1.07-1.73-.83-2.28-.38s.13-.44,1.24-.27l.76.32c.34.43-.15.81.21.35.16-.21.31-.44.47-.66.56-.78,1.12-1.57,1.65-2.36a73.68,73.68,0,0,0,4.92-8.35c4-7.92,6.44-16.75,5.67-25.66-.45-5.31-2.3-10.4-3.83-15.47-.93-3.07-1.88-6.13-2.81-9.2-1.27-4.16-2.15-8.37-3-12.63-1-5.24-1.95-10.53-1.41-15.89a15.84,15.84,0,0,1,1.24-5.4c.67-1.28-2.12-1.13-2.61-.19Z"/><path class="cls-27" d="M793.7,634a19.2,19.2,0,0,1,16.67,2.68,20.22,20.22,0,0,1,8.18,13.76c.18,1.28,3.12.57,2.94-.79A21.67,21.67,0,0,0,812,634.56a22.62,22.62,0,0,0-18.82-2.51c-.55.16-1.4.64-1.21,1.35s1.19.73,1.72.56Z"/></g></g></svg>