<svg xmlns="http://www.w3.org/2000/svg" xmlns:xlink="http://www.w3.org/1999/xlink" viewBox="0 0 1303.15 1057.31"><defs><style>.cls-1,.cls-23,.cls-26,.cls-40{fill:none;}.cls-2,.cls-33{isolation:isolate;}.cls-3{fill:#f2ebd1;}.cls-4{fill:#a66e53;}.cls-5{fill:#c42d27;}.cls-30,.cls-46,.cls-6{fill:#4f2e25;}.cls-7{fill:#c95744;}.cls-8{fill:#b6bc78;}.cls-10,.cls-9{fill:#151210;}.cls-9{stroke:#161311;stroke-width:0.66px;}.cls-23,.cls-26,.cls-30,.cls-40,.cls-46,.cls-9{stroke-miterlimit:10;}.cls-11{fill:#161311;}.cls-12{fill:#231f20;}.cls-13,.cls-33{fill:#010101;}.cls-14{fill:#653c29;}.cls-15{fill:#31160e;}.cls-16{fill:#f1eef7;}.cls-17{fill:#565656;}.cls-18{fill:#a38166;}.cls-19,.cls-21{fill:#cfcfcf;}.cls-19{mix-blend-mode:multiply;opacity:0.27;}.cls-20{fill:#4b2a15;}.cls-22{fill:#282b2b;}.cls-23,.cls-26{stroke:#282b2b;}.cls-23{stroke-width:7.19px;}.cls-24{fill:#f47920;}.cls-25{fill:#ad3624;}.cls-26{stroke-width:6.86px;}.cls-27{fill:#61686c;}.cls-28{fill:#777;}.cls-29{fill:#383838;}.cls-30,.cls-46{stroke:#4f2e25;}.cls-30{stroke-width:0.43px;}.cls-31{fill:#424424;}.cls-32{fill:#a09f9f;}.cls-33{opacity:0.4;}.cls-34{fill:#273339;}.cls-35{fill:#513835;}.cls-36{fill:#5e5f5f;}.cls-37{fill:#853324;}.cls-38{fill:#13110f;}.cls-39{fill:#ababab;}.cls-40{stroke:#010101;stroke-width:1.69px;}.cls-41{fill:#622515;}.cls-42{fill:#6d3826;}.cls-43{clip-path:url(#clip-path);}.cls-44{fill:#488c41;}.cls-45{fill:#2c5f2f;}.cls-46{stroke-width:0.55px;}.cls-47{fill:#288b43;}</style><clipPath id="clip-path"><ellipse class="cls-1" cx="808.36" cy="784.13" rx="110.14" ry="18.33"/></clipPath></defs><g class="cls-2"><g id="Layer_11" data-name="Layer 11"><polyline class="cls-3" points="-122.78 1190.79 -122.78 -52.07 1384.52 -52.07 1384.52 1190.79"/><polyline class="cls-4" points="728.52 595.64 679.89 532.95 647.37 556.33 660.32 581.61"/><path class="cls-4" d="M679.07,522.75c-.23-.88-10.94-36.13-18.57-50.32s-4.54-26.6-11.87-29.7-11.66,7.21-11,19.2,9,20.32,5.08,23.5-49.24-23.62-49.24-23.62-3.08-12.61-10.32-12.18c-4.17.21-4,8.51-4.52,8.12-6.68-5.18-11-1.54-11-1.54l9.57,34.94,18.51,13.23s-1.14,9.08,3.38,16.67,8.11,12.18,8.91,12.57,16,16.67,24.72,21.46,20.54,10.16,20.54,10.16l26.15-29.19S681.21,531,679.07,522.75Z"/><path class="cls-5" d="M662.33,490.15C652,502,640,508.54,628.11,505.77c-2.37-.56-3.73-2.59-5.94-3.34-1.17-.24-2.72.21-4.15.39a5.67,5.67,0,0,1-2.08-.09c-12-4-20-15.36-23.06-31.57-4.24-22.68,4.64-43.37,19.84-46.23a33.59,33.59,0,0,1,6.07-.65,23.56,23.56,0,0,1,6.89,1c4.1,1.21,8.53,3.63,14.29,7.62l.59.42c12.21-1.83,20.92.52,28.25,6.91C680.43,450.47,677.53,472.79,662.33,490.15Z"/><path class="cls-4" d="M595.64,505.59s-1-8.46,1.55-14.72,16.42-33.21,19.34-33,8.17-.14,7.35,8-10.28,25.23-10.39,25.67,1.34,6.38,0,13.35"/><path class="cls-6" d="M613.46,504.84c-.15,0,.11-1.51.17-4.21a40.36,40.36,0,0,0-.2-4.9c-.09-1-.23-2-.4-3l-.12-.86a1.77,1.77,0,0,1,.28-1.12l.79-1.61c2.13-4.36,4.68-9.57,6.91-15.54,1.07-3,2.19-6.2,2.18-9.48a5.28,5.28,0,0,0-1.53-4.14c-1.12-.93-2.86-1.07-4.72-1.16-.28-.23-.91.5-1.47,1.12s-1.09,1.38-1.6,2.11c-1,1.46-2,3-2.86,4.44-1.81,3-3.46,5.92-5,8.73-3.07,5.64-5.76,10.78-7.78,15.17a30,30,0,0,0-2.28,11,36.89,36.89,0,0,1-.18,4.22c-.11,0-.43-1.48-.53-4.23a28.23,28.23,0,0,1,1.81-11.52c1.91-4.53,4.48-9.73,7.49-15.45,1.52-2.85,3.15-5.82,5-8.85.91-1.51,1.86-3,2.9-4.56.53-.76,1.08-1.51,1.71-2.25a8.34,8.34,0,0,1,1.06-1.1,3.57,3.57,0,0,1,.8-.52,2.17,2.17,0,0,1,.75-.15l.34,0c1.79.11,4,.15,5.75,1.56a7,7,0,0,1,2.16,5.51c0,3.77-1.27,7.06-2.39,10.09a142.78,142.78,0,0,1-7.33,15.55l-.85,1.57c-.15.36-.22.29-.19.47l.09.8q.2,1.65.27,3.12a34.39,34.39,0,0,1-.11,5C614.06,503.41,613.56,504.86,613.46,504.84Z"/><path class="cls-4" d="M660.54,532.82s-15.27-18.71-34.26-5.05l6.62-24.2s3-15.4-9.09-13.4L611.25,522l3,10.57,13.59,6.53s17.06,1,17.63.49S660.54,532.82,660.54,532.82Z"/><path class="cls-6" d="M659.32,530.68c-.2.28-2.93-2.46-8.71-4.94a26.7,26.7,0,0,0-10.91-1.94,28.21,28.21,0,0,0-13.42,4l-1.87,1.12.6-2.06c1.57-5.42,3.27-11.32,5.06-17.5h0l0-.07c.21-.59.45-1.23.68-1.86,1.2-3.6,2.15-7.34,1.92-10.75s-3.05-6-6-5.75a4.08,4.08,0,0,0-1.94.61,4.18,4.18,0,0,0-1.2,1.64c-.73,1.37-1.38,2.78-2,4.14l-3.38,7.61c-1.94,4.41-3.56,8.12-4.86,11.07-1.17,2.6-1.9,4-2,4a24.88,24.88,0,0,1,1.37-4.23c1-2.68,2.44-6.55,4.33-11.29.95-2.38,2-5,3.2-7.74.6-1.38,1.22-2.8,2-4.26.18-.37.42-.75.63-1.12a4,4,0,0,1,1-1.11,5.53,5.53,0,0,1,2.74-.94,7.18,7.18,0,0,1,5.4,1.9,8.21,8.21,0,0,1,2.51,5.34c.27,3.95-.74,7.75-2,11.5-.25.67-.49,1.34-.72,2l0-.09c-1.82,6.16-3.57,12.05-5.17,17.47l-1.28-.94a28.85,28.85,0,0,1,14.32-4A26.65,26.65,0,0,1,651,524.79a21.86,21.86,0,0,1,3.78,2.11,15.55,15.55,0,0,1,2.58,1.91A9.92,9.92,0,0,1,659.32,530.68Z"/><path class="cls-6" d="M598.53,485.5c-.18.23-4.47-2.73-11-7.53l-.19-.14-.08-.29a52.73,52.73,0,0,0-3.35-8,69.74,69.74,0,0,0-5-8.7,12.59,12.59,0,0,0-5.54-4.6,6.8,6.8,0,0,0-6,.82l.25-.89c1.66,4.93,3,9.07,3.89,12s1.32,4.64,1.16,4.7-.9-1.55-2.05-4.38-2.71-6.91-4.51-11.78l-.2-.55.45-.34a8.32,8.32,0,0,1,7.53-1.24,14,14,0,0,1,6.43,5.18,62.85,62.85,0,0,1,5.11,9,46.09,46.09,0,0,1,3.23,8.41l-.26-.43C594.74,481.87,598.71,485.26,598.53,485.5Z"/><path class="cls-7" d="M813,671.84,690,535s-15.59,33.68-46,29.8c0,0,57.07,234.09,149.23,215.86Z"/><path class="cls-7" d="M843.47,834.8c.91-29.4,26.29-93,24.42-114.31,0,0-3-27.15-6.54-36.66-3.65-9.86-12.19-17.45-16.8-26.88-4.93-10.08-8.28-20.32-9-31.55a240.72,240.72,0,0,1,1-39.54c1.22-12.65,2.82-25.21,4.9-37.76,2-12.1,4.07-24.19,5.85-36.33,2.58-17.57,4.71-35.41,4.88-53.22,3.17-2.34,6.41-4.58,9.78-6.66l79.1-33.3,1.85-16.81,81.94-14.16,47.91,20.14s85,21,98.29,31.25c16.21,12.5-10.72,236.86-10.72,236.86s40.11,134,48.52,161.74.55,67.7.55,67.7l-70.26-8.43c-19.26-21.25-76.53,6.48-105.22,8.43H849.28l-9-11.59C841,892,843.42,836.62,843.47,834.8Z"/><path class="cls-4" d="M523.13,653.75,543,641.93s18.7,9.1,30.55,7.74a89.27,89.27,0,0,0,24.44-7.42l27-2.61s12.57,5.55,14.38,1.83-2.43-7-6.53-10.19-71.56-26.65-71.56-26.65A119.83,119.83,0,0,1,581,596.57c10.54-3.16,11.84-7.48,8.3-12.66s-17.6,1.91-22.91,4.39c-5.71,2.67-19.12,0-29.22,4.66s-15.51,18.93-15.51,18.93C518,614.27,508,619.57,508,619.57,507.91,620.47,523.13,653.75,523.13,653.75Z"/><path class="cls-8" d="M522.66,632.63l-11.83-21.31-63.18,34C410,659.75,410.05,661.47,386.47,672l-.31-.3c-3.79,4.63-5.88,12.43-7.33,17.22-3.33,11-28.67,23.24-29.53,34.81-.55,7.48-10.08,8.37-7.8,20.34,4.18,2.15,11.22,7.86,30.88,12.4,20.36,4.71,52.18-10.65,52.18-10.65,60.27-42,92.64-69.77,114-95.08Z"/><path class="cls-4" d="M169,389.6s10.75,76.81,4.83,94.64c-1.43,4.32-56.5,35.6-56.5,35.6L258.18,556l59.29-36.13s-52.33-21.22-53.83-26.39-.53-40-.53-40"/><path class="cls-9" d="M314.07,326.22h0c2.22-10.12,3-16.34-.05-23.19-2.13-4.84-10.87-9.62-10.87-9.62s-2.46-14.65-9-12.33c0,0-7.32-19.38-26.55-13.53,0,0-6-1.26-9.12,2.54,0,0-9.83-16.53-26.08-4.12,0,0-6.62-3.87-8.59,1.32,0,0-11.65-10.16-22.36-1.13,0,0-28.38-4.38-34.56,13.54,0,0-13.93-6.35-20.44,6.89,0,0-7.06.86-6.68,10.65,0,0-10.43,3.54-11.14,10,0,0-5.87,5.06-5,15.3.24,2.92,1.19,2.11,2.3,6-5.33,11.94,3.61,13,3.61,13-8.6,11.22,3.35,24.25,3.35,24.25s-3.35,15.45-2,21.22c5.64,24,27.26,38.55,27.26,38.55s-6-51.11-7.27-63.63,8-34.82,11.24-39.69,27.89,2.66,65.16,1.22,44.5-8.4,49-7.38c9.32,2.11,18.38,34.44,18.51,44.33s3.9,28.38,3.9,28.38,19.47-9.22,13.49-25.58c0,0,6-12.22,3.22-19.32,0,0-.42-3-2.38-4.42C313,339.46,319.36,331.84,314.07,326.22Z"/><path class="cls-4" d="M194.67,456.34c15.38,16.59,38.11,27.49,59.24,31.39,20.74,3.82,27.56-3.17,30.37-6.28,15.46-17,25.42-34.23,31-54,1.5-5.36,1.56-11.11,1.09-17-.71-8.81-2.7-25.7-2.73-34.13-.08-21.49-2.84-40.91-15-58.73-25.35-37.12-84-35.24-105.63-24.46-25.23,12.59-36.25,37.41-37.31,63.6a70.53,70.53,0,0,0,2.94,23.85,76.26,76.26,0,0,1,9.66,12.77"/><path class="cls-10" d="M298.68,321.27s1.74,1.52,13.4,27.45c-2.9-8.27-4.6-20.73-11.87-32.21C274.82,276.44,197.62,283.43,176.05,295c-25.22,13.57-34.16,40-35.2,68.21-.42,11.47-.76,18.79,2.83,28.23.16.12,2.21,2.19,2.21,2.19s23.14,4,31,17.83l5.63.19s-.09-27.73,3.93-54.07c0,0-.21-14.4-.49-18.72-.88-13.31,11.13-10.76,19.45-8.81,5.17,1.22,16.32,1.81,21.63,1.59,13.56-.54,30.67-2.92,37-3C273,328.58,298.68,321.27,298.68,321.27Z"/><path class="cls-11" d="M297.79,321.58a12,12,0,0,1,1.24,2c2.1,3.77,3.94,7.69,5.78,11.59,2.16,4.57,4.25,9.17,6.32,13.78.17.38,2-.19,1.89-.5-2.23-6.45-3.54-13.17-5.84-19.6A58.24,58.24,0,0,0,297.33,311c-6.46-7.74-15.08-13.32-24.33-17.15a110.76,110.76,0,0,0-30.74-7.41,160.05,160.05,0,0,0-31.26-.13,128.61,128.61,0,0,0-25.73,4.75,57.72,57.72,0,0,0-23.91,14.21c-9.15,9-14.9,20.76-18,33.11a114.13,114.13,0,0,0-3.1,19.53c-.54,7.21-1,14.67-.28,21.88a45.46,45.46,0,0,0,2.11,10,7.43,7.43,0,0,0,.78,2,8.35,8.35,0,0,0,.95.93,5.59,5.59,0,0,0,1.36,1.26,12.85,12.85,0,0,0,2.25.48c1.7.4,3.4.86,5.07,1.39a57.86,57.86,0,0,1,13.79,6.22,33.74,33.74,0,0,1,6.44,5.23,25.13,25.13,0,0,1,2.68,3.41c.25.39.43.94.85,1.1a2.74,2.74,0,0,0,.7,0l5,.17c.3,0,1.56-.17,1.56-.6a378.54,378.54,0,0,1,2-38.24q.38-3.82.84-7.63c.32-2.66.84-5.31,1.08-8a45.87,45.87,0,0,0,0-5.11c-.06-3.19-.13-6.37-.23-9.56-.09-2.87-.58-5.94.11-8.75a6.46,6.46,0,0,1,4.86-5.1c2.74-.57,5.73-.07,8.44.45,2.94.56,5.81,1.31,8.79,1.68,3.84.47,7.71.71,11.58.82,8.41.24,16.84-.69,25.2-1.51,4-.39,8-.81,12-1.15,2.56-.22,5.14-.22,7.71-.46a127.32,127.32,0,0,0,17.92-3.44q7.18-1.74,14.3-3.73l.77-.22c.15,0,.95-.24.88-.49s-.9,0-1,0c-9.76,2.78-19.74,5.55-29.81,6.94-2.42.33-4.84.35-7.27.51-3.71.25-7.4.65-11.09,1-8.74.87-17.57,2-26.35,1.88-4.08-.05-8.17-.28-12.23-.73-3.11-.35-6.09-1.05-9.15-1.67-4.75-.95-11.33-1.88-15.24,1.8-2.22,2.09-2.59,5.3-2.44,8.2s.23,5.51.3,8.26c.07,2.95.13,5.89.18,8.84a62.72,62.72,0,0,1-.95,8.83,384.12,384.12,0,0,0-2.95,46.23v.81l1.56-.6-5.63-.2.32.1c-5-8.56-14.83-13.26-23.94-16.08-1.57-.48-3.16-.92-4.76-1.3a14.51,14.51,0,0,1-2.39-.52c-.09,0-.08-.05,0,0a6.21,6.21,0,0,1-.85-.85c-.35-.35-.73-.68-1.06-1.05a4.89,4.89,0,0,1-.79-1.75A44.83,44.83,0,0,1,141.9,380c-.76-6.85-.35-13.91.08-20.76a116.76,116.76,0,0,1,2.69-19.16c2.72-11.81,7.72-23.23,15.85-32.35A54.91,54.91,0,0,1,184,292a113.59,113.59,0,0,1,23.66-4.76,157.81,157.81,0,0,1,29.56-.44,117.19,117.19,0,0,1,29.93,6.1c9,3.21,17.6,7.89,24.52,14.55a51.53,51.53,0,0,1,9.58,12.67c3.45,6.43,5.53,13.41,7.43,20.42.76,2.82,1.5,5.64,2.45,8.4l1.89-.5c-3.11-6.92-6.25-13.83-9.63-20.62a57.79,57.79,0,0,0-3.44-6.39,3.14,3.14,0,0,0-.38-.5C299.22,320.65,297.57,321.38,297.79,321.58Z"/><path class="cls-4" d="M181.18,436.46c-10.66,11.39-22.68-6.09-22.68-6.09-10.74-12.46-10.95-25.93-10.72-35.15S158.14,386,158.14,386c8.62.79,7.42,1.82,19.5,26.12"/><path class="cls-12" d="M169.75,412a72.7,72.7,0,0,0-6.27-12.54,23.23,23.23,0,0,0-4.59-5.39,6.78,6.78,0,0,0-2.47-1.38c-1.1-.27-1.62.7-2.11,1.55-2.06,3.62-2.13,8.06-1.37,12.06.13.66,1.56.3,1.43-.38a18.35,18.35,0,0,1,.42-9.56,9,9,0,0,1,1.61-3l-.85.31a.36.36,0,0,1,.15,0c.05,0-.16-.05,0,0l.28.1a6.47,6.47,0,0,1,1.63,1c2.56,2,4.41,4.95,6,7.74a79.86,79.86,0,0,1,4.67,9.85c.27.65,1.68.24,1.43-.38Z"/><path class="cls-12" d="M169.35,416.26c-6,.48-1.1,8.26-1.51,11.45,0,.05-.15.53-.14.54s.25.11.21-.07-.35-.34-.43-.44a7.19,7.19,0,0,1-.58-.86,26.21,26.21,0,0,1-2.23-5.46,21.55,21.55,0,0,1-1.21-6.62c0-2.68.19-6.73,2.81-8.27.83-.49.07-1.21-.62-.8-2.6,1.51-3.38,4.55-3.58,7.37a18.89,18.89,0,0,0,.39,6,41.55,41.55,0,0,0,2.35,6.87c.48,1,1.09,2.58,2.19,3.13a1.57,1.57,0,0,0,2.14-.89,5.41,5.41,0,0,0-.15-3.08c-.38-1.61-2.81-7.62.22-7.86.79-.06,1.11-1.09.14-1Z"/><path class="cls-12" d="M234.94,385.82c-2.56-1.13-5.4.16-6.94,1.69a6.37,6.37,0,0,0-1.71,3.06,6.49,6.49,0,0,0,1.89,5.79,6,6,0,0,0,7,.78c2.95-1.59,3.71-5.3,2.8-7.91a6,6,0,0,0-3-3.41"/><path class="cls-12" d="M248.74,395.59S239.27,383.24,230,383.8c-13,.79-15.63,8.55-18.22,12.66,0,0,7.89-9.76,18-10.12C238.91,386,248.74,395.59,248.74,395.59Z"/><path class="cls-12" d="M298.84,381.93c2.23-1.43,5-.49,6.61.86a6.31,6.31,0,0,1,1.94,2.82,6.85,6.85,0,0,1-1.08,6,5.35,5.35,0,0,1-6.36,1.6c-2.92-1.24-4.06-4.83-3.51-7.53a5.92,5.92,0,0,1,2.4-3.73"/><path class="cls-12" d="M283.1,393.54s6.74-13.35,14.74-13.85c11.26-.7,14.36,6.71,17,10.5,0,0-7.85-8.79-16.54-8C290.46,382.9,283.1,393.54,283.1,393.54Z"/><path class="cls-13" d="M275.41,426.57a9.31,9.31,0,0,1-8.56-.12c-.55-.3-2.33.11-1.56.54a13.12,13.12,0,0,0,11.64,0c.3-.17.24-.41-.15-.52a2.11,2.11,0,0,0-1.37.13"/><path class="cls-13" d="M264.21,426.35a15,15,0,0,0-5.32-1.06,1.21,1.21,0,0,0-.79.3c-.15.14-.17.33,0,.43a5.65,5.65,0,0,0,2.91.52,1.09,1.09,0,0,0,.88-.39c.15-.25-.16-.4-.4-.38a4.59,4.59,0,0,1-2.35-.43l-.76.73a13.46,13.46,0,0,1,4.75,1,1.17,1.17,0,0,0,1-.15c.18-.13.38-.41.08-.53"/><path class="cls-13" d="M257,426.93c-2.12.05-4.66-.75-5.79-2.31-1.69-2.34-.4-6.48,2.18-8.16.28-.18.12-.39-.18-.44a1.74,1.74,0,0,0-1.12.3,7.8,7.8,0,0,0-3.14,7.17c.42,2.1,2.52,3.49,5.1,4a12.37,12.37,0,0,0,2.37.21c.32,0,.89-.14,1-.4s-.15-.36-.46-.35"/><path class="cls-13" d="M279.25,425.3a.27.27,0,0,1,.25-.41,2.54,2.54,0,0,0,1.62-.63l.59.66a7.55,7.55,0,0,0-3.27,1.36.59.59,0,0,1-.68-.07c-.14-.11-.3-.37-.11-.52"/><path class="cls-13" d="M277.65,425.69a8.26,8.26,0,0,1,3.67-1.5.69.69,0,0,1,.58.23.3.3,0,0,1,0,.43"/><path class="cls-13" d="M283.68,425.37a4.35,4.35,0,0,0,3.56-2.76,6.27,6.27,0,0,0-2-6.76.26.26,0,0,1,.08-.46.84.84,0,0,1,.75.2,7,7,0,0,1,2.53,5.7,4.94,4.94,0,0,1-3,4.38,5.33,5.33,0,0,1-1.52.4.73.73,0,0,1-.7-.31c-.12-.25.07-.37.27-.39"/><path class="cls-10" d="M244.85,363.52q.1,3.11.2,6.23c0,1.58.09,3.17.14,4.74-4.71-1.17-8.72-1.91-11.75-2.38-6-.93-12.25-1.43-18.26-.22a19.29,19.29,0,0,0-7.74,3.14c-.74.53-2.72,2.78-3.88,2.25-.47-.21.2-2.79.28-3,1.39-5.2,5.39-7.47,10.33-8.86,10.08-2.84,20.31-2.91,30.68-1.85"/><path class="cls-10" d="M314,366.35a15.67,15.67,0,0,1-1.11-3.82,25.18,25.18,0,0,0-3.16-.85c-10.11-2.06-20.15-1.35-30.25.5.09,2.07.19,4.15.28,6.23.08,1.58.15,3.16.23,4.74,4.53-1.53,8.41-2.58,11.35-3.27,5.82-1.4,11.91-2.37,17.89-1.63a22.29,22.29,0,0,1,4.88,1.13Z"/><path class="cls-6" d="M263.4,489.22s-10.53-.7-16.54-1.54-17.64-.77-47.48-20.3c0,0,11.6,24.55,46.5,26,0,0,14.15,1.56,18.22.24Z"/><path class="cls-14" d="M268.08,441.91c-10.3.19-27-.71-27-.71s3.65,24.57,27.52,24.14S295,440.21,295,440.21,278.37,441.72,268.08,441.91Z"/><path class="cls-15" d="M268.18,441.91c-4.9.09-24.65-.38-24.65-.38s6.89,15,24.6,14.64c19.2-.35,24.48-15.38,24.48-15.38Z"/><path class="cls-16" d="M268.4,442.64c-4.89.09-19.8-.47-19.8-.47s5.46,5.26,20.14,5S288,441.61,288,441.61Z"/><path class="cls-14" d="M296.09,438.69c-.52-.12-3.35.88-5.79.71-4.05-.27-6.61-1.29-9.55-1.46-5-.3-8.17,1.74-10.35,1.78s-5.39-1.88-10.4-1.41c-2.93.28-10.18,1.48-14.23,1.9-2.42.26-5.29-.64-5.81-.5-.72.19.78,5.47,28.17,5S296.82,438.85,296.09,438.69Z"/><path class="cls-6" d="M610.4,635.5a7.39,7.39,0,0,0-2.63-4.15c-3.32-2.73-9-4.14-15-3.94a47.23,47.23,0,0,0-14.63,3.23,21,21,0,0,0-5.55,2.58,25,25,0,0,0,5.93-1.45,60.62,60.62,0,0,1,14.38-2.72c5.67-.2,11.09,1,14.14,3.21a7.59,7.59,0,0,1,2.7,3.41c.38,1,.44,1.53.51,1.6S610.58,636.67,610.4,635.5Z"/><path class="cls-6" d="M579.53,622.91c-5.51-1.68-10.06-2.69-10.15-2.26s4.27,2.14,9.77,3.81,10,2.69,10.13,2.25S585,624.59,579.53,622.91Z"/><path class="cls-6" d="M563.34,620.74c2.52,4.76,2.58,9,3,9.18s1.13-4.59-1.56-9.85-7.15-7.58-7.27-7.18C557.22,613.27,560.83,616,563.34,620.74Z"/><path class="cls-8" d="M358.49,742c18.94,10.72,46.71,3.37,68.24-1.4l.51-.34c-4.53-10-.62-14.5-4.84-27.18-12.87-40.56-34.71-84.54-55-129.67S346,515.35,294,509.42c0,0,28.46,164.81,61.57,227.14Z"/><path class="cls-4" d="M361.35,697l.85-.72c3.09-2.53,13.39-10.78,16.24-9.93,3.33,1,27,7.84,27,7.84s-.34,6.51-12.77,6.9S361.35,697,361.35,697Z"/><path class="cls-8" d="M158,491.12c-18.14,7.28-22.15,8.15-31,12.17-4.29,1.94-30.56,16.85-30.56,16.85l2.85,75.32L88.69,760.59l-1.88,128.5c-7.07,16.18.14-17.37-2.52.17L63.18,918.93c14.35,3.81,51-23.25,65.54-21,23,3.62,46.69,4,69.93,4.95,28.78,1.17,57.67,1.93,86.4-.76,28.5-2.67,40.77,9.71,68.24,1.83L342.88,785.72s-2.5-64.05,1.2-74.74c4.69-13.58,6.2-19.52,6.47-38.64.48-33.7-16.62-55.61-16.62-55.61L330,520.16c-6.52-7.08-63.78-23.64-63.78-23.64s13,17.11-1.37,31.38-79.72-3.37-96.44-40.41Z"/><path class="cls-17" d="M328.51,824.91h0Z"/><rect class="cls-18" x="-85.58" y="877.4" width="1456.1" height="247.98"/><path class="cls-19" d="M299,874.53l-.17-.1Z"/><path class="cls-1" d="M151.66,695.83q.78,3.81,1.82,7.55a.74.74,0,0,0-.15-.53C153,701.39,152.35,699,151.66,695.83Z"/><path class="cls-20" d="M373.15,674.45l34.59,183.06-8.14,2.17L359.36,678.41S360.3,656.87,373.15,674.45Z"/><path class="cls-21" d="M403.82,804.68c-.17.11-.35.26-.55.39C403.47,804.94,403.65,804.79,403.82,804.68Z"/><path class="cls-21" d="M402.56,805.58c-.4.28-.8.56-1.24.85C401.76,806.14,402.16,805.86,402.56,805.58Z"/><path class="cls-21" d="M403.16,805.15a4.62,4.62,0,0,1-.47.34A4.62,4.62,0,0,0,403.16,805.15Z"/><path class="cls-21" d="M401.21,806.48c-.16.11-.37.22-.56.35C400.84,806.7,401.05,806.59,401.21,806.48Z"/><path class="cls-21" d="M405.44,803.35l-.39.34Z"/><path class="cls-21" d="M406.48,802.38c-.29.3-.63.58-.94.88C405.85,803,406.19,802.68,406.48,802.38Z"/><path class="cls-21" d="M404.92,803.79a3,3,0,0,0-.43.37A3,3,0,0,1,404.92,803.79Z"/><path class="cls-21" d="M404.41,804.2l-.56.46Z"/><path class="cls-21" d="M400.53,806.92c-.21.11-.41.23-.61.35C400.12,807.15,400.32,807,400.53,806.92Z"/><path class="cls-21" d="M398.27,808.19l-.64.35Z"/><path class="cls-21" d="M399.83,807.32c-.46.27-.95.54-1.45.81C398.88,807.86,399.37,807.59,399.83,807.32Z"/><path class="cls-21" d="M409.37,798.56c-.07.11-.13.23-.2.35C409.24,798.79,409.3,798.67,409.37,798.56Z"/><path class="cls-21" d="M410.5,795.05a2.09,2.09,0,0,1,0,.34A2.09,2.09,0,0,0,410.5,795.05Z"/><path class="cls-21" d="M409.86,797.52c-.07.14-.12.3-.2.45C409.74,797.82,409.79,797.66,409.86,797.52Z"/><path class="cls-21" d="M407.77,800.93c-.11.16-.25.3-.38.46C407.52,801.23,407.66,801.09,407.77,800.93Z"/><path class="cls-21" d="M408.81,799.5c-.08.14-.18.28-.26.41C408.63,799.78,408.73,799.64,408.81,799.5Z"/><path class="cls-21" d="M407.33,801.47a3.81,3.81,0,0,0-.33.36A3.81,3.81,0,0,1,407.33,801.47Z"/><path class="cls-21" d="M408.12,800.5c-.1.13-.21.24-.31.38C407.91,800.74,408,800.63,408.12,800.5Z"/><path class="cls-21" d="M410.45,795.52c0,.16-.06.31-.1.45C410.39,795.83,410.41,795.68,410.45,795.52Z"/><path class="cls-21" d="M410.57,794.55a2,2,0,0,0,0,.34A2,2,0,0,1,410.57,794.55Z"/><path class="cls-21" d="M410.18,796.58a2.58,2.58,0,0,1-.1.33A2.58,2.58,0,0,0,410.18,796.58Z"/><path class="cls-21" d="M410,797.05c-.05.15-.12.28-.15.4C409.92,797.33,410,797.2,410,797.05Z"/><path class="cls-21" d="M408.46,800l-.25.32Z"/><path class="cls-21" d="M410.32,796.07a2,2,0,0,0-.08.37A2,2,0,0,1,410.32,796.07Z"/><path class="cls-21" d="M409.1,799a2.87,2.87,0,0,1-.27.46A2.87,2.87,0,0,0,409.1,799Z"/><path class="cls-21" d="M409.61,798.09l-.16.33Z"/><path class="cls-21" d="M406.9,801.94l-.34.34Z"/><path class="cls-19" d="M397.63,808.54c-.05,0-.08,0-.14.05S397.58,808.55,397.63,808.54Z"/><path class="cls-19" d="M408.83,799.48l0,0Z"/><path class="cls-19" d="M408.55,799.91a.6.6,0,0,0-.09.13A.6.6,0,0,1,408.55,799.91Z"/><path class="cls-19" d="M406.56,802.28s-.05.08-.08.1S406.52,802.31,406.56,802.28Z"/><path class="cls-19" d="M403.85,804.66s0,0,0,0S403.84,804.66,403.85,804.66Z"/><path class="cls-19" d="M404.49,804.16s-.06,0-.08,0S404.45,804.17,404.49,804.16Z"/><path class="cls-19" d="M407,801.83l-.1.11Z"/><path class="cls-19" d="M409.17,798.91a.14.14,0,0,1-.07.11A.14.14,0,0,0,409.17,798.91Z"/><path class="cls-19" d="M405.05,803.69l-.13.1Z"/><path class="cls-19" d="M403.27,805.07a.38.38,0,0,1-.11.08A.38.38,0,0,0,403.27,805.07Z"/><path class="cls-19" d="M405.54,803.26a.41.41,0,0,0-.1.09A.41.41,0,0,1,405.54,803.26Z"/><path class="cls-19" d="M408.21,800.36a1.1,1.1,0,0,0-.09.14A1.1,1.1,0,0,1,408.21,800.36Z"/><path class="cls-19" d="M399.92,807.27s-.05,0-.09.05S399.89,807.27,399.92,807.27Z"/><path class="cls-19" d="M398.38,808.13l-.11.06Z"/><path class="cls-19" d="M407.81,800.88a.1.1,0,0,0,0,0A.1.1,0,0,1,407.81,800.88Z"/><path class="cls-19" d="M400.65,806.83s-.09,0-.12.09S400.62,806.86,400.65,806.83Z"/><path class="cls-19" d="M407.39,801.39s-.05.05-.06.08S407.39,801.41,407.39,801.39Z"/><path class="cls-19" d="M402.69,805.49a.73.73,0,0,1-.13.09A.73.73,0,0,0,402.69,805.49Z"/><path class="cls-19" d="M401.32,806.43l-.11.05Z"/><path class="cls-19" d="M409.89,797.45a.07.07,0,0,0,0,.07A.07.07,0,0,1,409.89,797.45Z"/><path class="cls-19" d="M410.53,794.89a1.43,1.43,0,0,0,0,.16A1.43,1.43,0,0,1,410.53,794.89Z"/><path class="cls-19" d="M410.46,795.39a.57.57,0,0,0,0,.13A.57.57,0,0,1,410.46,795.39Z"/><path class="cls-19" d="M410.35,796s0,.07,0,.1S410.35,796,410.35,796Z"/><path class="cls-19" d="M409.66,798a.61.61,0,0,0-.05.12A.61.61,0,0,1,409.66,798Z"/><path class="cls-19" d="M409.45,798.42l-.08.14Z"/><path class="cls-19" d="M410.24,796.44a.53.53,0,0,0-.06.14A.53.53,0,0,1,410.24,796.44Z"/><path class="cls-19" d="M410.08,796.91a.43.43,0,0,0,0,.14A.43.43,0,0,1,410.08,796.91Z"/><rect class="cls-22" x="311.31" y="954.6" width="25.29" height="9.92"/><rect class="cls-22" x="537" y="954.6" width="25.29" height="9.92"/><line class="cls-23" x1="434.4" y1="894.51" x2="434.4" y2="910.21"/><path class="cls-24" d="M390.36,904.69c0,7.17-3.94,5.79-8.79,5.79s-8.78,1.38-8.78-5.79,8.78-20.17,8.78-20.17S390.36,897.52,390.36,904.69Z"/><path class="cls-24" d="M409.53,904.69c0,7.17-3.94,5.79-8.79,5.79s-8.78,1.38-8.78-5.79,8.78-20.17,8.78-20.17S409.53,897.52,409.53,904.69Z"/><path class="cls-24" d="M429.29,904.69c0,7.17-3.94,5.79-8.79,5.79s-8.78,1.38-8.78-5.79,8.78-20.17,8.78-20.17S429.29,897.52,429.29,904.69Z"/><path class="cls-24" d="M457.86,904.69c0,7.17-3.93,5.79-8.78,5.79s-8.79,1.38-8.79-5.79,8.79-20.17,8.79-20.17S457.86,897.52,457.86,904.69Z"/><path class="cls-24" d="M478.21,904.69c0,7.17-3.93,5.79-8.78,5.79s-8.79,1.38-8.79-5.79,8.79-20.17,8.79-20.17S478.21,897.52,478.21,904.69Z"/><path class="cls-24" d="M498.26,904.69c0,7.17-3.93,5.79-8.78,5.79s-8.78,1.38-8.78-5.79,8.78-20.17,8.78-20.17S498.26,897.52,498.26,904.69Z"/><path class="cls-25" d="M387.33,907c0,4.7-2.58,3.8-5.76,3.8s-5.75.9-5.75-3.8,5.75-13.22,5.75-13.22S387.33,902.34,387.33,907Z"/><path class="cls-25" d="M406.5,907.72c0,4.7-2.58,3.8-5.76,3.8s-5.75.9-5.75-3.8,5.75-13.21,5.75-13.21S406.5,903,406.5,907.72Z"/><path class="cls-25" d="M426.26,907c0,4.7-2.57,3.8-5.75,3.8s-5.76.9-5.76-3.8,5.76-13.22,5.76-13.22S426.26,902.34,426.26,907Z"/><path class="cls-25" d="M455.14,907c0,4.7-2.57,3.8-5.75,3.8s-5.76.9-5.76-3.8,5.76-13.22,5.76-13.22S455.14,902.34,455.14,907Z"/><path class="cls-25" d="M475,907c0,4.7-2.57,3.8-5.75,3.8s-5.76.9-5.76-3.8,5.76-13.22,5.76-13.22S475,902.34,475,907Z"/><path class="cls-25" d="M495.24,907c0,4.7-2.58,3.8-5.76,3.8s-5.76.9-5.76-3.8,5.76-13.22,5.76-13.22S495.24,902.34,495.24,907Z"/><polyline class="cls-26" points="366.12 910.21 366.12 894.86 503.92 894.86 503.92 910.21"/><rect class="cls-27" x="311.31" y="910.21" width="250.98" height="44.39"/><circle class="cls-22" cx="436.8" cy="932.4" r="14.98"/><path class="cls-28" d="M328.7,778a5.31,5.31,0,0,0-2-3.91,18,18,0,0,0,3.46-.91h0c-.75-5.12-1.32-9.53,7.81-9.49,61.45.29,122.89.31,184.34.41,14.54-.76,14.54-.76,15.42,10.28h0l-.18,21.41c-.06,23.27,0,46.53-.24,69.79-.14,12.45-7.37,19-21.5,20.42l-165.54,0c-12.54-1.7-17.27-5.65-19.55-16.35-3-21.4-.51-53.16-1.32-74.59"/><path class="cls-28" d="M514.85,885.55a6.15,6.15,0,0,1,1,.43A10.75,10.75,0,0,0,514.85,885.55Z"/><path class="cls-29" d="M329.89,773.14a22.11,22.11,0,0,0-3.08-.22H307.32c-8,0-13.61,4.32-13.61,9.61s5.57,9.62,13.61,9.62h19.49a22.09,22.09,0,0,0,3.08-.23Z"/><path class="cls-29" d="M537.29,773.14a22.11,22.11,0,0,1,3.08-.22h19.49c8,0,14.61,4.32,14.61,9.61s-6.57,9.62-14.61,9.62H540.37a22.09,22.09,0,0,1-3.08-.23Z"/><path class="cls-4" d="M412.49,715.57c-2.45-3.83-19-16-19-16s-7.4-5.89-14.27-4.36-39.51,3-39.51,3l-27.69,15-11.79,3.3c-.36,13.79,2.15,24.38,0,38,3.75-1.39,6.58-2.48,7.91-3.07,7.8-3.46,48.77.33,55.83-.8a133.47,133.47,0,0,0,14.27-3.24s30-14.26,30.06-16.24,2-2.64-3.7-6.85a65.12,65.12,0,0,0-11.3-6.59s12.47,5.18,14.68,4.37S414.94,719.39,412.49,715.57Z"/><path class="cls-30" d="M405.31,709.08a7.89,7.89,0,0,1-1.66-1.14c-1.17-.91-2.61-2-4.29-3.36s-4-3.19-6.32-5.06a16,16,0,0,0-8.43-4.34,24.87,24.87,0,0,0-5,0l-4.73.35c-3,.25-5.76.52-8,.74l-5.48.59a10.22,10.22,0,0,1-2,.11,8.74,8.74,0,0,1,2-.46c1.25-.22,3.1-.52,5.35-.83s5-.63,8.05-.92l4.75-.4a23.27,23.27,0,0,1,5.21,0,16.52,16.52,0,0,1,8.85,4.61c2.3,1.92,4.37,3.68,6.18,5.2s3,2.6,4.11,3.57A10.26,10.26,0,0,1,405.31,709.08Z"/><path class="cls-30" d="M370.11,708.71a16.5,16.5,0,0,1,4.06.68,73,73,0,0,1,18.31,7.33,15.6,15.6,0,0,1,3.4,2.29,23.11,23.11,0,0,1-3.7-1.74c-2.26-1.12-5.4-2.61-9-4s-6.85-2.49-9.28-3.21A21.57,21.57,0,0,1,370.11,708.71Z"/><path class="cls-30" d="M403.73,734.18a4.06,4.06,0,0,1-1.38.17,25.27,25.27,0,0,1-3.79-.2,56.17,56.17,0,0,1-12-3.33c-4.53-1.71-8.62-3.29-11.55-4.49a32.29,32.29,0,0,1-4.7-2.08,28.11,28.11,0,0,1,4.91,1.5c3,1,7.16,2.51,11.65,4.23a70,70,0,0,0,11.77,3.54C401.76,734.08,403.73,734,403.73,734.18Z"/><path class="cls-30" d="M387.66,742.82a12.67,12.67,0,0,1-3.53.11,73.44,73.44,0,0,1-8.5-.83,82.13,82.13,0,0,1-8.33-1.74,14.5,14.5,0,0,1-3.37-1.12c.07-.27,5.33,1,11.85,2S387.68,742.56,387.66,742.82Z"/><path class="cls-8" d="M99.09,518.6S58.8,539,56.66,581.05,45,750,65.22,793.16c24.77,53,230.46-5.56,230.46-5.56l-.56-54.88L138.83,723.4s12.47-120.1,3.38-143.64-19.89-32.09-19.89-32.09"/><path class="cls-31" d="M298.37,714.46l-15.7.59L245,716.46l-45.6,1.72L160,719.66l-12.9.48c-2,.08-4.14,0-6.13.23a1.31,1.31,0,0,1-.28,0l1.39,1q.06-9.21.11-18.41.13-21.08.23-42.17.1-23.68.15-47.37c0-11,.06-22.08-.1-33.12-.13-8.65-2.58-17-8.11-23.78A36.18,36.18,0,0,0,122.59,547l-.69-.33c-1.28-.55-3.47,1.29-1.72,2,.26.11.51.23.76.36a6.51,6.51,0,0,0,.6.32c.38.22.77.44,1.14.67a35.62,35.62,0,0,1,6.08,4.7,35.07,35.07,0,0,1,10.46,21.7c.52,4.87.27,9.9.29,14.8q0,9.24,0,18.48,0,23.16-.13,46.31-.09,21.69-.22,43.36c0,7.3-.21,14.61-.13,21.91,0,.1,0,.2,0,.3,0,.76.73,1,1.39,1l15.7-.59,37.7-1.42,45.6-1.71,39.38-1.48c6.33-.24,12.71-.29,19-.72h.27c1.71-.06,2.29-2.3.26-2.22Z"/><path class="cls-31" d="M88,812c14.21,3.42,29.38,2.5,43.78,1,18.37-2,36.55-5.68,54.51-10,18.21-4.35,36.25-9.42,54.15-14.93Q262,781.44,283.28,774c6.52-2.28,13.1-4.49,19.53-7l.26-.11c.39-.14.94-.42.94-.89V753.64c0-.73-3-.23-3,.8v12.31l.94-.9c-5.23,2-10.5,3.87-15.78,5.74q-19.74,7-39.74,13.25c-17.39,5.46-34.91,10.52-52.58,15a489,489,0,0,1-54.49,10.88c-14.67,2-30,3.31-44.67.86-1.44-.24-2.87-.52-4.28-.86a3,3,0,0,0-2.1.33c-.27.15-1,.82-.31,1Z"/><path class="cls-31" d="M141.51,720.52c-12.8-3.27-25.24,7.11-32.2,16.77-.47.65.4,1.1.92,1.15a2.33,2.33,0,0,0,2.11-.93,44.71,44.71,0,0,1,12.24-11.7c4.45-2.81,9.76-4.68,15-3.34a2.45,2.45,0,0,0,2.27-.6.76.76,0,0,0-.36-1.35Z"/><path class="cls-32" d="M594.39,917.53s-5.88,54.3,57.7,52.72C703.92,969,703,918.44,703,918.44Z"/><ellipse class="cls-32" cx="647.75" cy="918.05" rx="59.25" ry="14.32"/><ellipse class="cls-33" cx="648.64" cy="917.53" rx="54.38" ry="9.05"/><path class="cls-34" d="M705,922.14l-.26.15-.73.46c-.65.41-1.63,1-2.92,1.62a58.82,58.82,0,0,1-11.48,4.31A144.85,144.85,0,0,1,671.71,932a175.75,175.75,0,0,1-22.24,1.09c-7.9-.06-15.43-.33-22.25-.93a126.82,126.82,0,0,1-18-2.79,81.42,81.42,0,0,1-11.71-3.65c-1.35-.51-2.37-1-3.06-1.32l-.78-.37c-.18-.08-.27-.13-.26-.14a1.33,1.33,0,0,1,.28.1l.81.31c.71.28,1.73.74,3.09,1.22A88.49,88.49,0,0,0,609.33,929a130.75,130.75,0,0,0,17.93,2.66c6.81.57,14.32.82,22.22.88a178.52,178.52,0,0,0,22.17-1.09,148.2,148.2,0,0,0,17.84-3.21A60.74,60.74,0,0,0,701,924.13c1.29-.64,2.3-1.15,2.95-1.52l.76-.41C704.89,922.17,705,922.13,705,922.14Z"/><path class="cls-35" d="M649.93,564.56a.76.76,0,0,0,.17.13l.19-.49Z"/><path class="cls-31" d="M344.49,695.24c-.07-6.3.15-12.6.06-18.89q-.12-7.71-.14-15.43c-.06-16.57,0-33.2,1.16-49.74.26-3.66.57-7.34,1.11-11a25.8,25.8,0,0,1,1.56-6.61c.66-1.43-2.34-1.25-2.82-.21a23.31,23.31,0,0,0-1.57,6c-.5,3-.81,6.13-1.06,9.21-.68,8.14-1,16.32-1.14,24.49-.33,14.12-.32,28.25-.12,42.37.09,6.7-.11,13.39,0,20.09,0,1.41,3,.86,3-.3Z"/><path class="cls-7" d="M835.47,466.4c-8.86,8.71-70,166.83-90.25,227.32,3.9,1.72,17.38,23,21,25.29,8.37,5.22,12.84,10,20.76,15.9,9.85,7.32-11.49,36.26-3.7,45.73,5.65,6.88,23.28-.52,40-12.09.31-.38,54.26-57.44,54.56-57.82,7.48-9.47-5.21-30.61-5.21-30.61l.61-233.28S847.91,454.18,835.47,466.4Z"/><path class="cls-7" d="M1169,437.58s21.4,12.49,34.11,54.08S1254.62,667,1232.15,741.2C1219.68,782.38,1054,821.8,1054,821.8l-38.51-90.62,125.24-57.79s-5.49-81.88-8.47-115.74S1169,437.58,1169,437.58Z"/><path class="cls-36" d="M1071.72,181.27c-6.38-9.36-16.48-15.72-27.35-13,.84-21.12-19.42-33.94-40.54-34.9-10.85,0-22.09,4.7-32.28.93-6.35-2.34-11.09-7.43-16.48-11.71-22.58-17.35-58.84,1.72-78.6,22.24s-15.36,43.87-5.91,70.72c4.39,12.49,3.53,19.23,4.71,32.51,1.11,12.52,8.28,35.89,8.2,48.31s-19.7,25.08-7.18,26.28L1013,308.94c20.21,4.35,33.26-1.56,44-19.25,7-12,4.72-12.62,5.85-26.44,1.93-18.06,20.55-31.35,19.78-49.5C1082.45,202.35,1077.56,191.07,1071.72,181.27Z"/><path class="cls-37" d="M1088.68,180.8s-46.78-24.2-107.75-18.5-91.33,42.48-102.42,69-.24,54.87-.24,54.87-15.29,3.87-24.46-51.07c-13.38-80.08,69-126.82,88.71-126.22S1063.18,90.91,1088.68,180.8Z"/><path class="cls-4" d="M1034.05,309.15s-3.11,51.77,13.33,83.79c2.29,4.47,31.46,15.73,34.6,17.16-2.22-1-16.61,9-18.85,10.12-8.43,4.12-16.46,8.38-25.44,11.29-18.61,6-38.25,8.2-57.7,9.33s-49,3.44-64.1-11.66c5.1-3.13,22.81-7.5,23.57-15.07.59-5.88-8.58-49-8.58-49"/><path class="cls-6" d="M936.93,397a178,178,0,0,0,18.46-3.35c7-1.9,19-1.36,51.61-29,0,0-9.84,34.35-51.14,41.29,0,0-10.05,2.9-17,1.13Z"/><path class="cls-4" d="M904.13,186.92a5.46,5.46,0,0,1-.42.73c.16-.12.31-.23.45-.35ZM886,192.62l0,.32c.28-.25.55-.51.79-.77C886.74,191.78,886,192.62,886,192.62ZM1032.66,327l1.79-6.58c9,11.24,22.81,1.51,22.94-15,4.15-8.42,9.07-36.11,1.94-44.33l-.87-1.21c-4.93-3.5-13.5-4.77-16.79,1.71-1.06,2.8.06,6.21-1,9-1,3.18-4.21-4.61-6.1-1.74,0,0-4.33-1.72-4.49-9.09s13.12-62.09-.75-71.49c0,0-21.61,8-28.1.72l-2.17-.61c-1.26.1-2.07.55-3.33.65,0-.38.36-.8.3-1.57-2,.94-3.76.68-5.45.81.39-.41,1.21-.87,1.18-1.25-1.65.51-3.37.26-5,.39.39-.42,1.17-1.25,1.14-1.64-2,.94-3.37.27-5.05.4a2.87,2.87,0,0,0,.72-1.61c-1.62.9-3.34.65-5,.78.39-.42.75-1.22,1.14-1.64-2,.93-3.36.26-5,.39-.42,0,.78-.83.75-1.22a15.41,15.41,0,0,1-4.18.72c0-.39.79-.84.76-1.23-2.47,1-3.79.3-5.47.43l1.14-1.64a6,6,0,0,1-5,1.17c.39-.42,1.17-1.26,1.14-1.64a8.39,8.39,0,0,1-6.67,1.3c.42,0,1.17-1.26,1.14-1.65-2,1.71-3.69,1.46-5.8,1.63.39-.42.75-1.23,1.53-2.07-2.4,1.75-5.28,2.75-7.9,1.79.42,0,.75-1.23.72-1.61-1.56,1.68,1.45-.5-.69-.73,0,0-4.72,1.93-4.75,1.55-1.59,1.29,3.92-6.9,1.82-6.74.36-.81-12,1.67-11.23.83-2,1.71-1.62.88-4.17.69,0,0-8.38,5.32-8,4.9-2,2.09-3,.55-5.58.36.39-.42,1.64,1.5,2,1.08-1.56,1.67-1.16-.3-3.26-.13,0-.39-7.07-2-7.11-2.36-2,1.33-1.31,1.44-3.83,1.64,0-.39-1.25,4.38-.86,4-1.56,1.68-1.58.4-3.71.18l-2,1.6c-2,2.1.87,1-1.68.84,0-.27,9.59.46,9.93-.08a15.26,15.26,0,0,1-5.23,2.82c0-.39.34-1.19.31-1.58a8.47,8.47,0,0,1-6.55,2.85c.42,0,.78-.84.75-1.23-2,2.1-4.39,3.46-7,2.5v-.07a13.23,13.23,0,0,1-5.67,3.24,1.69,1.69,0,0,1,.72-1.62l-1.68.14c-1.86,3.25-7.34,1.61-7.87,5.53,0,0-9.4,27.8-7.85,42.05s6,38.41,7,44.56a124.59,124.59,0,0,1,.76,19.41c-.48,12.57-.28,15.86,3.8,28.12,3.94,11.86,7.46,18.09,15.17,28,8,10.31,15,18.94,25.47,27.44,6.87,5.59,8.58,11.93,29.63,9.53,26-3,50.63-20.53,66-38.61"/><path class="cls-13" d="M923.18,325.74c3.23,1.37,7.93.62,10.9-1.55.66-.48,3-.25,2.08.42-3.93,2.87-10.7,3.64-14.86,1.87-.42-.18-.37-.49.11-.69a2.7,2.7,0,0,1,1.77-.05"/><path class="cls-13" d="M937.44,323.62a19.68,19.68,0,0,1,6.62-2.21,1.57,1.57,0,0,1,1.06.25c.21.16.27.39,0,.55a7.3,7.3,0,0,1-3.64,1.14,1.42,1.42,0,0,1-1.18-.35c-.23-.3.14-.53.45-.55a5.83,5.83,0,0,0,2.94-.93l1.08.8a17.17,17.17,0,0,0-5.91,2,1.48,1.48,0,0,1-1.25,0c-.26-.13-.55-.45-.19-.66"/><path class="cls-13" d="M946.72,323.18c2.73-.28,5.84-1.72,7-3.86,1.78-3.25-.49-8-4-9.69-.39-.18-.21-.48.16-.58a2.21,2.21,0,0,1,1.48.18c3.1,1.49,5.34,5.35,5.12,8.27-.2,2.74-2.66,4.84-5.87,5.88a14.88,14.88,0,0,1-3,.65c-.41,0-1.17,0-1.39-.33s.13-.48.52-.52"/><path class="cls-13" d="M918.07,324.75a.35.35,0,0,0-.38-.48,3.23,3.23,0,0,1-2.17-.53l-.66.94a9.6,9.6,0,0,1,4.4,1.18.77.77,0,0,0,.86-.2c.17-.16.33-.52,0-.68"/><path class="cls-13" d="M920.17,325a10.75,10.75,0,0,0-4.91-1.3.91.91,0,0,0-.71.39.37.37,0,0,0,.06.55"/><path class="cls-13" d="M912.43,325.57a5.6,5.6,0,0,1-5-2.92,8,8,0,0,1,1.44-8.89.32.32,0,0,0-.18-.56,1,1,0,0,0-.92.38,8.9,8.9,0,0,0-2.31,7.63,6.27,6.27,0,0,0,4.52,5.05,6.47,6.47,0,0,0,2,.26,1,1,0,0,0,.85-.5c.1-.34-.15-.46-.41-.45"/><path class="cls-38" d="M887.27,274.49c-2.43-1-5.37.19-6.79,1.67a6.62,6.62,0,0,0-1.27,2.94,6.12,6.12,0,0,0,1.87,5.42,5.68,5.68,0,0,0,6.58.63,6.27,6.27,0,0,0,2.5-7.51,5.6,5.6,0,0,0-2.89-3.15"/><path class="cls-38" d="M911.74,280.37s-12.07-8.05-17.93-8.17c-8.55-.17-18.63,5.35-21.3,9.8,0,0,13.28-8.12,19.3-7.82C897.56,274.46,911.74,280.37,911.74,280.37Z"/><path class="cls-38" d="M958.13,269.78c2.24-1.39,6-1.35,7.65-.12a5.89,5.89,0,0,1,2,2.62,6.11,6.11,0,0,1-1,5.65,5.68,5.68,0,0,1-6.4,1.65,6.27,6.27,0,0,1-3.65-7c.1-.47-.43-1.32,1.37-2.44"/><path class="cls-38" d="M946.87,276.94s12.2-9.18,18.5-9.86c9.19-1,20.62,3.54,24,7.7,0,0-15.13-6.8-21.59-5.93C961.56,269.69,946.87,276.94,946.87,276.94Z"/><path class="cls-39" d="M909.35,250.27c.09,1.72.17,3.44.25,5.18.06,1.31.11,2.63.17,3.94-4.46-.89-8.26-1.42-11.13-1.75-6.07-.7-9.17-1-12.63-.27a33.43,33.43,0,0,0-7.87,2.92,21.58,21.58,0,0,0-4.09,2.44c-2.85,2.29-3.94,4.76-4.43,4.58s.16-2.33.23-2.55a20.06,20.06,0,0,1,5.86-9.06,23.59,23.59,0,0,1,7.93-4.14c3.4-1.05,12.94-2.17,25.71-1.29"/><path class="cls-39" d="M939.71,247.79q.46,2.53.95,5.09c.24,1.3.49,2.59.74,3.88,4.51-1.95,8.42-3.39,11.38-4.41,6.27-2.16,9.47-3.24,13.32-3.35a39.18,39.18,0,0,1,9,.93,23.75,23.75,0,0,1,4.91,1.38c3.55,1.53,5.28,3.67,5.76,3.37s-.72-2.22-.84-2.42a20.47,20.47,0,0,0-8.32-7.39,26.68,26.68,0,0,0-9.37-2.09c-3.85-.2-14.22,1-27.55,5"/><path class="cls-40" d="M1038.93,292.14c9-22.13,15.62-22.39,15.62-22.39s4.55,5,2.49,15.26"/><path class="cls-40" d="M1042.38,294.08c5.93-.68,1.55,10.5,3.23,13.09s3.75-4.39,4.35-12.78c0,0-.17-11.32-5.83-13.3"/><path class="cls-6" d="M955.8,224.62s-14.42,7.46-29.15,7.28-32.88-2.29-32.88-2.29"/><path class="cls-39" d="M879.46,183.17h0c3.66-5.15,6-10.64,9.86-15.63s7.52-9.3,11.59-14c.24-.28,5.06-.41,5.3-.68l.26-.29.39-.43c.3-.34.61-.67.91-1,22.87-10,50.48-11.38,75.39-3.73A91.67,91.67,0,0,1,1043.89,262c-1.27,4.15,1.21,9.17-2.85,11.5s-4.55,1.18-8.4-1.49a30.43,30.43,0,0,1-8.61-10.88c-10.51-20-13.06-51.84-8.3-73.93-2.69,4.17-21.33-.16-25.47,2.56a35.5,35.5,0,0,1-49.17-10.18,54.26,54.26,0,0,1-5.64,6.92c-18.9,19.66-43.55,29.19-64.15,15.29C870.54,201.27,877.18,186.44,879.46,183.17Z"/><path class="cls-34" d="M1043.2,269.57l-.48-4.83-55.25-5.54h0c-18.06-5.67-42.33,1.08-55.93,11.47L919,272.26l.11-.2c-15.55-9.93-40.06-9.8-58.07.29l.65,2h0c0,.12.17.41.3.82l.59,1.71c3.65,10.91,7.83,22.43,11.14,25.3,2.22,1.94,9.08,2.44,14.71,2.48,2.12,0,4.06,0,5.45-.05,1.68-.06,16.53-.61,18.82-3.14s5.18-20.32,6-25.93l12.87-1.57c2,4.17,6.73,22.41,13.32,25.69s38.77-.58,41.4-5.37c1.87-3.42,5.67-15.76,6.78-21.94l2.1-8ZM911.05,299.8c-2.53,2.45-32.08,3.86-35.93.53-3.25-2.82-8.46-18.39-10.43-24.24l0-.25c16.17-8.07,38.25-8.22,51.75.14-1.54,9.7-3.94,22.2-5.37,23.77Zm71.27-6.61c-1.64,3-29.67,7.66-36.46,4.27-4.72-2.34-8.42-15.65-11.16-23.23,13.32-9.89,40.33-15.66,56.46-9.56a165.18,165.18,0,0,1-8.84,28.52Z"/><path class="cls-41" d="M1067.81,271.28s46.17-33,28.89-68.91c-3.32-6.89-3.7-4.64-3.86-10.58-.83-31.13,10-23.64-35.34-60.34s-52-36.12-121.68-31.4c-35.9,2.44-55.65,17.31-65.61,40-4.47,10.2-7,22-8.07,34.89,0,0,73.48-20.42,117,3.42S1068,279.15,1058.5,303.67C1055.83,310.56,1067.81,271.28,1067.81,271.28Z"/><path class="cls-37" d="M1096.36,237.42s-61.64-91.08-144.57-94.4c0,0,102.54-10.28,147.41,63.21l.61,8.61a46.67,46.67,0,0,1-1.6,15.91Z"/><path class="cls-14" d="M935.26,342.91c13-1.15,34-4.63,34-4.63s-1.28,30.52-31.5,33.19S901,344.31,901,344.31,922.22,344.06,935.26,342.91Z"/><path class="cls-15" d="M935.13,342.92c6.2-.55,31.08-3.85,31.08-3.85s-6.73,18.15-29.14,20.13c-24.31,2.14-33-14.45-33-14.45Z"/><path class="cls-16" d="M934.94,343.92c6.2-.55,25-3.31,25-3.31s-6.15,7.74-24.75,9.38S910,345.22,910,345.22Z"/><path class="cls-14" d="M899.4,342.42c.65-.23,4.37.72,7.42.17,5.09-.92,8.17-2.63,11.86-3.25,6.3-1.08,10.57,1.2,13.33,1s6.55-3.24,12.94-3.28c3.75,0,13.07.58,18.24.59,3.11,0,6.6-1.57,7.28-1.46.93.16-.22,7.39-34.9,10.45S898.51,342.74,899.4,342.42Z"/><path class="cls-42" d="M1133.68,453.46c-14.1,3.39-22.6,16.89-26.49,30a100.59,100.59,0,0,0-3.6,22.61c-.5,8.14-.55,16.32-.32,24.47.9,31.6,7.32,62.48,15.26,93,4.67,17.93,9.71,35.76,14.24,53.72l1-1.23-18.53,9.95-44.48,23.87-53.48,28.71-46.47,24.94q-11.25,6-22.5,12.08l-.32.17c-2,1.06-.17,2.4,1.36,1.58l18.53-9.94,44.48-23.88,53.48-28.71,46.47-24.94q11.25-6,22.5-12.08l.32-.17c.42-.22,1.11-.63,1-1.23-7.66-30.34-16.89-60.33-23-91.05a342.52,342.52,0,0,1-6.1-45.87q-.74-12.27-.45-24.54a151.53,151.53,0,0,1,1.81-22.42c2.49-14.61,9.73-33.22,25.84-37.1.55-.13,1.58-.66,1.39-1.38s-1.36-.63-1.89-.5Z"/><path class="cls-42" d="M1187.81,775.54c-4.46,2.14-9.09,4-13.69,5.76-12.86,5-26.26,9.41-39.62,13.33-21.25,6.23-42.84,11.3-64.6,15.44-22.65,4.31-45.19,9.14-67.57,14.69q-11,2.73-22,5.68c-3.42.92-6.91,1.73-10.27,2.84l-.47.14,2,.76-5-13.42c-.59-1.57-3.86-.66-3.28.88l5,13.42a1.57,1.57,0,0,0,2,.77c8.82-2.56,17.72-4.87,26.62-7.12q32.2-8.16,64.81-14.54c12.25-2.38,24.48-4.72,36.64-7.52q15.48-3.57,30.78-7.86c14.53-4.09,28.93-8.71,43-14a168.4,168.4,0,0,0,17-7l.21-.1c.65-.32,1.21-1.1.75-1.79s-1.59-.62-2.24-.3Z"/><path class="cls-42" d="M1133.93,678.31a46.3,46.3,0,0,1,31.77,8.57c1.17.85,4-.79,2.53-1.88a49.66,49.66,0,0,0-34-9.08c-.71.08-1.72.5-1.81,1.32s.87,1.14,1.51,1.07Z"/><path class="cls-42" d="M835.71,527.49c7,12.62,7.54,27,5.71,41.07-1.93,14.78-6,29.19-7.84,44-1.9,15.2-1.16,30.79,5.42,44.85a78.7,78.7,0,0,0,16,22.26c1.89,1.87,3.84,3.68,5.86,5.41.47.4.93.87,1.43,1.22.25.17.5.41.37.12a1.23,1.23,0,0,1,0,.33c.18,1.42.3,2.85.45,4.28l3.06,29.19.07.73c.16,1.5,3.45.71,3.28-.88l-2.77-26.5-.64-6.12c-.06-.53-.08-1.08-.17-1.6-.18-1-1.15-1.45-1.87-2.06a86.27,86.27,0,0,1-19.16-22.25c-7.95-13.67-9.94-29.29-8.5-44.84,1.39-14.91,5.39-29.4,7.71-44.16,2.18-13.84,2.72-28.41-3-41.53a54.17,54.17,0,0,0-2.45-5c-.71-1.28-3.84-.06-3,1.45Z"/><path class="cls-32" d="M700.27,784.13s-11.91,110,116.87,106.78C922.13,888.3,920.29,786,920.29,786Z"/><ellipse class="cls-32" cx="808.36" cy="785.17" rx="120" ry="29.01"/><ellipse class="cls-33" cx="810.15" cy="784.13" rx="110.14" ry="18.33"/><g class="cls-43"><path class="cls-44" d="M759,791.74c-1.6-3.48,0-7.81,2.9-10.3s6.82-3.46,10.63-3.86,7.68-.32,11.44-1.06,7.3-2.3,11.08-2.81A20.49,20.49,0,0,1,812,779.24,19.62,19.62,0,0,1,817.54,796a14.28,14.28,0,0,1-2.65,6.5c-3.61,4.66-10.08,5.79-15.94,6.45-6.7.76-13.48,1.36-20.18.51s-13.35-3.26-18.29-7.85"/><path class="cls-45" d="M732.45,800.61a9.86,9.86,0,0,1-6.28-5.22,7.32,7.32,0,0,1,1.17-7.86c1.67-1.73,4.18-2.36,6.58-2.55,6.73-.53,13.32,1.75,20,2.72,4.08.6,8.44.78,11.87,3.06,4.29,2.86,6,8.21,7.47,13.16q-20.46-1.09-40.88-2.66"/><path class="cls-44" d="M834,798.07a30.6,30.6,0,0,1,21.41-10.41,59.81,59.81,0,0,0,7.21-.34c2.21-.38,4.43-1.26,6.64-.86a8,8,0,0,1,5.36,4.33,23.54,23.54,0,0,1,2,6.82,5.37,5.37,0,0,1,.05,2.58c-.45,1.47-2,2.26-3.46,2.8-9.27,3.45-19.43,3.31-29.32,3.14"/><path class="cls-45" d="M804.11,807a10.45,10.45,0,0,1-5.69-8.31,4.28,4.28,0,0,1,.89-3.38c1.57-1.61,4.23-.66,6.47-.6,4.56.13,8.16-3.82,10.45-7.77a19.13,19.13,0,0,1,3.21-4.66,5.11,5.11,0,0,1,5.21-1.33c2.31,1,3,3.85,4.43,5.9,2.12,3,6,4.14,8.62,6.68a11,11,0,0,1,3.3,8.26,3.93,3.93,0,0,1-.64,2.2,4.63,4.63,0,0,1-3,1.4,92.73,92.73,0,0,1-32.43.17"/></g><path class="cls-34" d="M920.29,795.65l-.51.28-1.44.83c-1.26.74-3.19,1.75-5.73,2.94a120.91,120.91,0,0,1-22.56,7.83,305.7,305.7,0,0,1-35.14,6.07,373,373,0,0,1-43.71,2c-15.51-.12-30.31-.6-43.72-1.69a267.22,267.22,0,0,1-35.33-5.08,168.08,168.08,0,0,1-23-6.62c-2.66-.93-4.65-1.85-6-2.4l-1.53-.68c-.36-.13-.53-.23-.51-.25a2.81,2.81,0,0,1,.56.18l1.58.57c1.4.5,3.39,1.33,6.07,2.2a183.6,183.6,0,0,0,23,6.29A277.93,277.93,0,0,0,767.56,813c13.39,1,28.15,1.49,43.66,1.61a381.58,381.58,0,0,0,43.56-2,313.19,313.19,0,0,0,35.05-5.83,127,127,0,0,0,22.59-7.48c2.53-1.15,4.51-2.08,5.79-2.75l1.51-.76C920.1,795.71,920.27,795.63,920.29,795.65Z"/><path class="cls-4" d="M816.59,819.17c1.44-5.65,16.72-27.23,16.72-27.23s6.63-10.17,15.62-11.09,49.4-12.3,49.4-12.3l39.81,7,15.7-.75c6,16.66,7.26,30.59,15.39,46.35-5.13-.18-9-.36-10.88-.54C947.44,819.57,899,840.77,890,842.26a171.56,171.56,0,0,1-18.7,1.82s-42.31-5.24-43.22-7.62-3.55-2.4,1.74-9.86a84.17,84.17,0,0,1,11.1-12.6s-13.1,11.36-16.12,11.27S815.15,824.82,816.59,819.17Z"/><path class="cls-46" d="M865.47,793.66a20.83,20.83,0,0,0-4.67,2.46,88.3,88.3,0,0,0-10.2,7.5,87,87,0,0,0-9.15,8.86,20,20,0,0,0-3.22,4.16A31,31,0,0,0,842,813c2.29-2.28,5.52-5.37,9.29-8.54s7.35-5.81,10-7.67A28.77,28.77,0,0,0,865.47,793.66Z"/><path class="cls-46" d="M834.8,838.32a5.2,5.2,0,0,0,1.75-.36,29.38,29.38,0,0,0,4.53-1.78,71.3,71.3,0,0,0,13.27-8.91c4.84-3.91,9.18-7.5,12.26-10.15a39.59,39.59,0,0,0,4.89-4.44,37.45,37.45,0,0,0-5.38,3.82c-3.23,2.49-7.71,6-12.48,9.87a88.63,88.63,0,0,1-12.92,9.09C837.16,837.4,834.74,838.15,834.8,838.32Z"/><path class="cls-46" d="M857.88,842.34a16.21,16.21,0,0,0,4.36-1.29,96.17,96.17,0,0,0,10-4.45,105.73,105.73,0,0,0,9.45-5.5,18.08,18.08,0,0,0,3.66-2.73c-.2-.3-6.1,3.36-13.64,7.23S857.76,842,857.88,842.34Z"/><path class="cls-4" d="M897.21,769.08l-21.89-1c-4.87-.2-10.37-.18-13.77,3.31s-3.27,9.11-2.89,14"/><path class="cls-42" d="M767.73,624.52c13.09,16.26,26.58,33.09,32.49,53.48a70.86,70.86,0,0,1,2.84,17.16c.05,1.18,3.33.49,3.28-.88C805.54,673,794.45,654,782,637.41c-3.63-4.82-7.41-9.52-11.2-14.23-.77-1-3.92.23-3,1.34Z"/><path class="cls-47" d="M639,433.54a37.42,37.42,0,0,0-6.09-12.17c2.46.08,3.75,2.83,5.12,4.88.53.79,1.51,1.6,2.32,1.1a2,2,0,0,0,.72-1.1l2.78-7.48c1.07.17,1.08,1.71.8,2.77l-2.4,9.1a12.06,12.06,0,0,1,13.06-2.45l-9.9,5.75c.2,1.11,1.84,1,2.86.5s2.56-.83,3,.2c-2.88,2.37-7.12,1.67-10.76.85a3.08,3.08,0,0,1-1.42-.58,3,3,0,0,1-.76-1.46l-1.57-5"/></g></g></svg>