<svg xmlns="http://www.w3.org/2000/svg" xmlns:xlink="http://www.w3.org/1999/xlink" viewBox="0 0 637.33 635.77"><defs><style>.cls-1,.cls-18,.cls-29{fill:none;}.cls-2,.cls-23{isolation:isolate;}.cls-3{clip-path:url(#clip-path);}.cls-4{fill:#c3e6f7;}.cls-5{fill:#a66e53;}.cls-6,.cls-7{fill:#151210;}.cls-6{stroke:#161311;stroke-width:0.42px;}.cls-18,.cls-29,.cls-34,.cls-6{stroke-miterlimit:10;}.cls-8{fill:#161311;}.cls-9{fill:#231f20;}.cls-10,.cls-23{fill:#010101;}.cls-11,.cls-34{fill:#4f2e25;}.cls-12{fill:#653c29;}.cls-13{fill:#31160e;}.cls-14{fill:#f1eef7;}.cls-15{fill:#82a8b3;}.cls-16{fill:#513835;}.cls-17{fill:#745245;}.cls-18{stroke:#a38166;stroke-width:0.71px;}.cls-19{fill:#020e2a;}.cls-20{fill:#ccb631;}.cls-21{fill:#cfcfcf;mix-blend-mode:multiply;opacity:0.27;}.cls-22{fill:#a09f9f;}.cls-23{opacity:0.4;}.cls-24{fill:#273339;}.cls-25{fill:#5e5f5f;}.cls-26{fill:#853324;}.cls-27{fill:#13110f;}.cls-28{fill:#ababab;}.cls-29{stroke:#010101;stroke-width:1.16px;}.cls-30{fill:#622515;}.cls-31{fill:#706027;}.cls-32{fill:#6c4e32;}.cls-33{fill:#563b25;}.cls-34{stroke:#4f2e25;stroke-width:0.35px;}</style><clipPath id="clip-path"><circle class="cls-1" cx="318.01" cy="318.81" r="288.85"/></clipPath></defs><g class="cls-2"><g id="Layer_12" data-name="Layer 12"><g class="cls-3"><circle class="cls-4" cx="318.06" cy="317.88" r="288.85"/><path class="cls-5" d="M558,289.06s-10.55,44.59-3,59.54c1.29,2.56,35.55,22.4,35.55,22.4l-88.6,22.73L464.64,371s32.92-13.35,33.86-16.61.33-25.17.33-25.17"/><path class="cls-6" d="M466.77,249.18h0c-1.4-6.36-1.87-10.28,0-14.59,1.34-3,6.83-6.05,6.83-6.05s1.55-9.21,5.7-7.76c0,0,4.6-12.19,16.7-8.51,0,0,3.76-.79,5.74,1.6,0,0,6.19-10.4,16.41-2.59,0,0,4.16-2.44,5.4.83,0,0,7.33-6.39,14.07-.71,0,0,17.86-2.76,21.74,8.52,0,0,8.77-4,12.87,4.33,0,0,4.43.54,4.2,6.7,0,0,6.56,2.23,7,6.3,0,0,3.7,3.18,3.17,9.62-.15,1.84-.74,1.33-1.44,3.8,3.35,7.51-2.27,8.16-2.27,8.16,5.41,7.06-2.11,15.26-2.11,15.26s2.11,9.72,1.25,13.35c-3.55,15.08-17.15,24.25-17.15,24.25s3.75-32.15,4.57-40-5.06-21.9-7.07-25-17.54,1.68-41,.77-28-5.28-30.82-4.64c-5.86,1.32-11.56,21.67-11.64,27.88s-2.46,17.86-2.46,17.86-12.25-5.8-8.48-16.09c0,0-3.8-7.69-2-12.16a4.71,4.71,0,0,1,1.5-2.78S463.44,252.72,466.77,249.18Z"/><path class="cls-5" d="M541.9,331.05c-9.68,10.44-24,17.29-37.28,19.74-13,2.41-17.33-2-19.11-3.94-9.72-10.72-16-21.54-19.48-34a30.62,30.62,0,0,1-.68-10.69c.44-5.54,1.69-16.16,1.71-21.47.06-13.52,1.79-25.74,9.44-37,16-23.35,52.88-22.17,66.46-15.39,15.88,7.93,22.81,23.54,23.48,40a44.57,44.57,0,0,1-1.85,15,48.12,48.12,0,0,0-6.08,8"/><path class="cls-7" d="M476.46,246.07s-1.1,1-8.43,17.27c1.82-5.2,2.89-13,7.46-20.26,16-25.22,64.55-20.82,78.12-13.52,15.87,8.54,21.49,25.14,22.14,42.91.27,7.22.48,11.83-1.77,17.76-.11.08-1.4,1.38-1.4,1.38s-14.56,2.51-19.52,11.22l-3.54.12a253.89,253.89,0,0,0-2.47-34s.13-9.06.31-11.77c.55-8.38-7-6.77-12.24-5.55a68.08,68.08,0,0,1-13.61,1c-8.53-.34-19.29-1.84-23.3-1.88C492.59,250.67,476.46,246.07,476.46,246.07Z"/><path class="cls-8" d="M475.93,246.13a9,9,0,0,0-1.48,2.5c-2.54,4.84-4.76,9.84-7,14.82l1.16-.22c1.3-3.79,2.09-7.72,3.39-11.51a34.7,34.7,0,0,1,20.42-22.17c11.71-5.18,25.24-6.14,37.87-5.12a82.64,82.64,0,0,1,15.77,2.66,35.69,35.69,0,0,1,14,7.5c12.55,10.92,15.23,28.24,15.25,44a38.64,38.64,0,0,1-.43,6.27,28.8,28.8,0,0,1-.68,3,7.58,7.58,0,0,1-1,2.64c-.08.11-1.14,1-1.1,1.11-.09-.13,1-.28.3-.17a19.69,19.69,0,0,0-2,.46c-5.35,1.36-10.92,3.56-15,7.39a16.21,16.21,0,0,0-2.89,3.61l1-.33-1.77.06c-.43,0-.88,0-1.31,0a.89.89,0,0,1-.28,0c-.33-.08,0,.12,0,0a10,10,0,0,1,0-2.45q-.12-7.44-.65-14.86c-.24-3.38-.54-6.75-.93-10.12a56,56,0,0,1-.86-7.16c.06-3.65.09-7.3.29-10.95.1-1.85,0-3.92-1.37-5.33a6.1,6.1,0,0,0-4.26-1.5,23.3,23.3,0,0,0-5.39.64,52.2,52.2,0,0,1-6.7,1.07,93.74,93.74,0,0,1-16.75-.31c-4.88-.43-9.78-1.15-14.68-1.29-4.35-.12-8.72-1.29-12.93-2.32-3-.72-6-1.5-8.91-2.34-.25-.07-1.28.35-1,.43a149,149,0,0,0,18.52,4.35c3.6.54,7.3.56,10.92.92,5.47.54,11,1.21,16.46,1.31A57.23,57.23,0,0,0,535,251.8c3.06-.67,7.66-2.12,10.3.34,1.45,1.35,1.56,3.48,1.46,5.33s-.14,3.54-.18,5.31-.08,3.57-.11,5.35a41.53,41.53,0,0,0,.63,5.66,231.74,231.74,0,0,1,1.83,29.32c0,.06.18.06.2.06,1.08,0,2.16-.05,3.23-.11,1.33-.07,1.49-.81,2.25-1.82a22.41,22.41,0,0,1,8.63-6.46,40.6,40.6,0,0,1,7.89-2.7c1.43-.33,2.41-.56,3.35-1.88a9.29,9.29,0,0,0,.95-2.71,29.61,29.61,0,0,0,.64-2.94,38,38,0,0,0,.43-6.66,108.65,108.65,0,0,0-.85-13.85c-1.13-8.25-3.65-16.47-8.53-23.3a36,36,0,0,0-16-12.73,65.28,65.28,0,0,0-14.92-3.49c-12.9-1.7-26.54-1.18-39,2.83a45.77,45.77,0,0,0-16.59,9.07c-6.34,5.67-9.4,13.31-11.59,21.37-.51,1.9-1,3.8-1.64,5.66-.06.17,1,0,1.16-.22,2.22-4.94,4.43-9.9,6.93-14.69A13.5,13.5,0,0,1,477,246C477.21,245.82,476.13,245.94,475.93,246.13Z"/><path class="cls-5" d="M550.38,318.54c8.37,10.27,14.27-3.83,14.27-3.83,6.75-7.84,6.89-16.32,6.75-22.11s-6.52-5.82-6.52-5.82c-5.43.5-4.67,1.15-12.27,16.43"/><path class="cls-9" d="M558.45,303.33a38.58,38.58,0,0,1,4.79-9,8.35,8.35,0,0,1,2.8-2.57l.1,0s.13,0,.16-.05-.08,0,0,0l-.37-.14a5.66,5.66,0,0,1,1,1.95,11.57,11.57,0,0,1,.26,6c-.08.45.84.35.91-.06a11.4,11.4,0,0,0-.64-7.11c-.26-.54-.6-1.46-1.32-1.32a4.06,4.06,0,0,0-1.51.76,12.57,12.57,0,0,0-2.77,3.05,43.76,43.76,0,0,0-4.32,8.42c-.19.48.71.49.86.11Z"/><path class="cls-9" d="M557.71,306.47c3.2.25-1.7,7.62,1,7.54.69,0,1.15-.72,1.46-1.26a16.53,16.53,0,0,0,1.47-3.59,13.79,13.79,0,0,0,.77-4.57c0-1.9-.33-4.33-2.13-5.39-.33-.19-1.12.26-.7.51,1.52.89,1.84,2.94,1.91,4.55a11.12,11.12,0,0,1-.3,3.4,24.71,24.71,0,0,1-1.34,3.94,8.44,8.44,0,0,1-.68,1.3c-.09.14-.21.25-.3.39a.9.9,0,0,0-.12.1s.15,0,.16,0a2.43,2.43,0,0,0-.14-.28,1.07,1.07,0,0,1,0-.4,4.86,4.86,0,0,1,.16-1.06c.17-.79.42-1.56.59-2.35.33-1.46.43-3.28-1.49-3.44-.43,0-.92.59-.32.64Z"/><path class="cls-9" d="M516.56,286.68a4.1,4.1,0,0,1,4.36,1.07,3.9,3.9,0,0,1,1.08,1.92,4.08,4.08,0,0,1-1.19,3.64,3.76,3.76,0,0,1-4.38.49,4.16,4.16,0,0,1-1.76-5,3.69,3.69,0,0,1,1.89-2.14"/><path class="cls-9" d="M507.88,292.83s6-7.77,11.78-7.42c8.19.5,9.83,5.38,11.46,8,0,0-5-6.14-11.31-6.36C514.06,286.8,507.88,292.83,507.88,292.83Z"/><path class="cls-9" d="M476.36,284.23a3.61,3.61,0,0,0-4.16.54,4,4,0,0,0-1.22,1.78,4.27,4.27,0,0,0,.68,3.76,3.37,3.37,0,0,0,4,1,4.31,4.31,0,0,0,2.21-4.74,3.76,3.76,0,0,0-1.51-2.35"/><path class="cls-9" d="M486.26,291.54s-4.24-8.4-9.28-8.71c-7.08-.44-9,4.22-10.71,6.6,0,0,4.94-5.53,10.4-5C481.63,284.84,486.26,291.54,486.26,291.54Z"/><path class="cls-10" d="M491.1,312.32a5.85,5.85,0,0,0,5.38-.08c.35-.19,1.47.07,1,.34a8.26,8.26,0,0,1-7.32,0c-.19-.12-.15-.26.1-.33a1.25,1.25,0,0,1,.86.08"/><path class="cls-10" d="M498.14,312.18a9.52,9.52,0,0,1,3.35-.67.76.76,0,0,1,.5.19c.09.09.1.21,0,.27a3.62,3.62,0,0,1-1.84.33.67.67,0,0,1-.55-.25c-.09-.15.1-.25.25-.24a2.78,2.78,0,0,0,1.48-.27l.48.46a8.4,8.4,0,0,0-3,.61.67.67,0,0,1-.6-.1c-.12-.08-.24-.25-.06-.33"/><path class="cls-10" d="M502.67,312.54a4.54,4.54,0,0,0,3.64-1.45c1.07-1.47.26-4.08-1.37-5.13-.17-.11-.07-.25.12-.28a1.06,1.06,0,0,1,.7.19,4.93,4.93,0,0,1,2,4.51c-.27,1.32-1.59,2.19-3.21,2.5A6.72,6.72,0,0,1,503,313c-.2,0-.56-.08-.65-.24s.09-.23.28-.23"/><path class="cls-10" d="M488.68,311.52a.17.17,0,0,0-.15-.26,1.61,1.61,0,0,1-1-.39l-.37.41a4.71,4.71,0,0,1,2.06.86.38.38,0,0,0,.43-.05c.09-.07.19-.23.06-.33"/><path class="cls-10" d="M489.68,311.76a5.19,5.19,0,0,0-2.3-.94.43.43,0,0,0-.36.14.19.19,0,0,0,0,.28"/><path class="cls-10" d="M485.9,311.56a2.74,2.74,0,0,1-2.25-1.74,4,4,0,0,1,1.25-4.25.16.16,0,0,0,0-.28.51.51,0,0,0-.47.12,4.38,4.38,0,0,0-1.59,3.59,3.1,3.1,0,0,0,1.88,2.75,3.18,3.18,0,0,0,.95.25.48.48,0,0,0,.44-.19c.08-.16,0-.24-.16-.25"/><path class="cls-7" d="M510.32,272.65l-.12,3.92-.09,3c3-.74,5.49-1.2,7.39-1.49a32.86,32.86,0,0,1,11.49-.15,12.21,12.21,0,0,1,4.87,2c.47.33,1.71,1.75,2.44,1.42.3-.14-.13-1.76-.17-1.92-.88-3.27-3.39-4.7-6.5-5.58-6.34-1.78-12.78-1.83-19.31-1.16"/><path class="cls-7" d="M466.85,274.43a10.47,10.47,0,0,0,.69-2.4,15.27,15.27,0,0,1,2-.54c6.36-1.29,12.68-.84,19,.32-.05,1.3-.11,2.61-.18,3.92,0,1-.09,2-.14,3-2.85-1-5.29-1.62-7.14-2.06a31.71,31.71,0,0,0-11.26-1,13.22,13.22,0,0,0-3.07.71Z"/><path class="cls-11" d="M497.83,351.46s7.45-.17,11.23-.7,11.09-.48,29.87-12.77c0,0-7.3,15.45-29.26,16.36,0,0-8.9,1-11.46.16Z"/><path class="cls-12" d="M495.71,322c6.48.12,17-.45,17-.45s-2.29,15.46-17.31,15.19-16.64-15.81-16.64-15.81S489.23,321.85,495.71,322Z"/><path class="cls-13" d="M495.65,322c3.08,0,15.5-.24,15.5-.24a17,17,0,0,1-15.47,9.21c-12.08-.22-15.4-9.67-15.4-9.67Z"/><path class="cls-14" d="M495.5,322.43c3.08.05,12.47-.3,12.47-.3s-3.44,3.31-12.68,3.14-12.11-3.49-12.11-3.49Z"/><path class="cls-12" d="M478.08,319.94a23.88,23.88,0,0,0,3.65.45c2.55-.17,4.16-.81,6-.92,3.16-.19,5.14,1.09,6.51,1.12s3.39-1.18,6.54-.88c1.85.17,6.41.93,8.95,1.19a23,23,0,0,0,3.66-.32c.45.12-.49,3.44-17.72,3.13S477.63,320,478.08,319.94Z"/><path class="cls-11" d="M461.81,457.67a81.8,81.8,0,0,1-12.35,4.42,81.32,81.32,0,0,1-12.64,3.4,81.18,81.18,0,0,1,12.33-4.42A81.26,81.26,0,0,1,461.81,457.67Z"/><path class="cls-11" d="M458.91,452.24c0,.29-5.52,1.54-12.27,3.53s-12.15,3.9-12.26,3.61a51.71,51.71,0,0,1,11.95-4.65A49.59,49.59,0,0,1,458.91,452.24Z"/><g id="freepik--Character--inject-2"><path class="cls-15" d="M473.61,614.77c7,.78,14,2,21,3,22.18,3.2,44.77,1.45,67.09,1.77,14.92.22,30.63,1,45.19-2.74,16.06-24.35,1-68.54.65-72.27l-4.49-25.62s-2.71-144.69-7.89-147.38-19.49-9.71-19.49-9.71l-16.17-11.28c-4.1,11.09-19.82,25.69-31.5,28.1a57.12,57.12,0,0,1-19.2,1,32,32,0,0,1-17.55-8.25c-3.37-3.17-4.12-6.95-2.41-11.89-4.23.74-9.13,2.83-16.26,4.1-12,2.15-26.77,10.77-26.77,10.77l4.53,26.2s-2.69,34.44-4.23,73.43c-.87,21.94.23,36.39-2.5,65-4,42.1-5.05,59.67-4,62.21,2.87,7,10.31,9.75,25,11.62C466.19,613.07,469.32,613.74,473.61,614.77Z"/></g><path class="cls-16" d="M508.34,457.94h-.14c0,.16-.14.32,0,.49Z"/><path class="cls-17" d="M470.16,446.42h.18l-.15-.12A.11.11,0,0,0,470.16,446.42Z"/><path class="cls-17" d="M494.67,453.81l-.14-.14-.07.08Z"/><path class="cls-17" d="M470.69,446.54l.23.06A.15.15,0,0,0,470.69,446.54Z"/><path class="cls-17" d="M507.79,457.79a.13.13,0,0,0-.19-.06Z"/><line class="cls-18" x1="600.94" y1="407.12" x2="583.51" y2="425.56"/><path class="cls-15" d="M394.74,528.22c2,9,24.89-12.39,24.39-2.91,26,4.62,36.23-43.45,41.05-55.32l.15-4.15c1.11-10.92,1.78-21.9,2.09-32.88.65-23.33,1-44.57,0-67.88l-10.81,6.43c-7,3.44-16.83,8.63-22.09,19.82l-16.17,52.12s-27.93,60.93-18.59,84.77"/><path class="cls-5" d="M597.62,531.15c.2,2.1-5,1.91-5,1.91a3.1,3.1,0,0,1,2.72,2.13c.72,2.13-1.17,3.47-3.11,4.44s-26.11-1.15-26.11-1.15l7.13,2.92a63.53,63.53,0,0,1,10.13,2.12c1.92,1,1.75,3.09,0,4.31s-13.75-3.14-27.28-2.76-26.3-7.72-26.3-7.72l8-24.57a115.12,115.12,0,0,1,11.34-5.23,87.45,87.45,0,0,1,17-5.41,104.79,104.79,0,0,0,13.74-4.44,6.28,6.28,0,0,1,1,6.38c-1.36,4.06-14.5,6-14.5,6l17,1.16s13.34,4,14.31,7.67-3.39,3.18-3.39,3.18L583.33,519l-12.53.5,13.11,2.64s10.13,4.14,10.92,4.52A6.65,6.65,0,0,1,597.62,531.15Z"/><path class="cls-15" d="M439.31,500.44l.23,1.6,60,9.09-7.62.86-10.75,33.9s-83.73,21.58-87.71-20.2C392.36,481.41,423.84,501.74,439.31,500.44Z"/><path class="cls-19" d="M415.68,502a25.61,25.61,0,0,1,7.86-4.08c2.51-.72,5-.49,7.57-.45s5.22,0,7.82.26c1.12.09,2.2.32,3.31.45,3.12.37,6.29.46,9.43.69l35.73,2.62,9.41.69c.66.05,1.35-.91.46-1l-25.64-1.88L453.11,498c-3.43-.26-6.89-.4-10.31-.76-1-.11-2-.33-3-.43-2.83-.28-5.69-.26-8.54-.3s-5.68-.23-8.53.7a28.52,28.52,0,0,0-7.89,4.2c-.73.53.34,1,.88.62Z"/><path class="cls-15" d="M474.2,413.15S486.4,516.23,528,540.31c13,7.55,26.32.48,40.78-6.35,31.23-14.77,44.21-78.19,48.1-89.22L568,422.64l-25.73,59.8-37.34-79.18Z"/><path class="cls-15" d="M559.51,350.57s37.6,14.84,52.22,34c18.84,24.69,1.79,72.62,1.79,72.62s-42.11-1.72-61.37-12.2Z"/><path class="cls-19" d="M542.27,477.86a21.26,21.26,0,0,1,3.35,4.95,26,26,0,0,1,2.8,13.46c0,.5,1.3.23,1.32-.18a26.16,26.16,0,0,0-2.8-13.63,21.26,21.26,0,0,0-3.44-5.1c-.3-.32-1.56.17-1.23.5Z"/><path class="cls-19" d="M441.15,552.17l9.75-.62,23.28-1.46,28.16-1.78,24.47-1.54c3.93-.25,8-.24,11.88-.75h.16c.3,0,.73-.22.76-.57l.16-2.07c.06-.73-1.35-.55-1.4.1l-.16,2.07L539,545l-9.75.62-23.29,1.46-28.15,1.78-24.47,1.54c-3.93.25-8,.24-11.88.75h-.16c-.79,0-1.06,1.1-.12,1Z"/><path class="cls-19" d="M600.86,490.33c-4.51,11.57-10.52,22.73-18.85,32-3.67,4.09-8,8.18-12.75,10.84-3.28,1.84-6.4,3.86-9.86,5.38a43.93,43.93,0,0,1-20.56,4c-9.08-.66-16.73-5.65-22.94-12a89.18,89.18,0,0,1-14.17-20,179.58,179.58,0,0,1-11-25.15c-3.11-8.67-5.74-17.51-8.05-26.43-2.07-8-3.88-16.12-5.47-24.25q-1.8-9.21-3.22-18.49c-.3-2-.59-4-.85-6a30,30,0,0,0-.41-3.16c0-.13,0-.28-.05-.41l-.55.6,26.67-8.33,3.73-1.16-.73-.14L506,405.8l10,19.61L528,449.13l10.39,20.43,3.44,6.77a19.59,19.59,0,0,0,1.64,3.23s0,.1.08.14c.25.49,1.16,0,1.28-.34l4-12.65,8-25.35,6-19.12.51-1.6c.07-.24,0,.05,0-.06s.15-.44.23-.65c1-2.87,2.22-5.69,3.52-8.45A73.19,73.19,0,0,1,574.46,399c2.77-3.7,6.18-7.37,10.56-9.12a12.23,12.23,0,0,1,3.15-.79c.72-.09,1-1,.14-.92-9.5,1.12-15.86,10.83-20,18.5A82.44,82.44,0,0,0,562,421q-2.58,8.11-5.13,16.25l-8.27,26.16-3.3,10.43-1.11,3.51a12.58,12.58,0,0,0-.6,1.89,1.17,1.17,0,0,1-.07.25l1.28-.35L540.59,471l-10-19.61-12.07-23.73L508.17,407.2l-3.44-6.77a18.89,18.89,0,0,0-1.65-3.23.91.91,0,0,1-.07-.14c-.11-.21-.54-.2-.72-.14l-26.67,8.32-3.73,1.17c-.27.08-.58.27-.55.6.25,2.19.56,4.36.87,6.54q1.23,8.56,2.82,17.08c1.48,8,3.16,15.95,5.1,23.84,2.21,9,4.73,18,7.71,26.81a201,201,0,0,0,10.66,26,101.18,101.18,0,0,0,13.84,21.31c5.12,5.85,11.54,11.32,19.09,13.63a37.19,37.19,0,0,0,19.17.22A53.56,53.56,0,0,0,560.75,539a89.12,89.12,0,0,0,8.34-4.64,54.9,54.9,0,0,0,9.74-7.23c7.88-7.37,14-16.57,18.73-26.2,1.68-3.41,3.19-6.89,4.57-10.43.26-.68-1.07-.63-1.27-.12Z"/><path class="cls-5" d="M495.91,395.73l1,4.17L474,406.83l-1.28-4.9s-16.93-14.38-17.64-17.9c-.26-2.79-1.2-5.74,1.17-8.19-1.52-7.81,2.87-10.34,2.87-10.34,0-6.5,9.83-7.21,9.83-7.21s1.29-8.05,1.72-11.71,9.81-5.55,9.81-5.55a61.82,61.82,0,0,1,5.9,3c.23,2.84-4.84,5-4.84,5l.08,5.7L486,359.6a33.18,33.18,0,0,0,.25-8.62c-.35-6.24,3.84-10.32,7.3-12.72s4.7-.48,5.53,1.29-1.34,13-1.34,13a71,71,0,0,0,3.16,16.33C503.5,376.31,495.91,395.73,495.91,395.73Z"/><path class="cls-11" d="M484.24,358.69A31.12,31.12,0,0,1,487,361a20.11,20.11,0,0,1,4.24,5.09c.14.25,1-.08.95-.26a20.65,20.65,0,0,0-4.22-5.1,34.4,34.4,0,0,0-2.78-2.34c-.23-.17-1.07.2-.9.33Z"/><path class="cls-11" d="M501.7,375.91a27,27,0,0,0-.76-8.63c-.54-2.17-1.24-4.28-1.63-6.48s-.67-4.37-.93-6.56a5.61,5.61,0,0,1,0-2.34c.92-3.34,1.93-7,1.78-10.47-.07-1.59-.8-3.86-2.34-4.59-1.21-.57-2.51.11-3.53.75a26.9,26.9,0,0,0-5.12,4.15c-1.59,1.65-3.15,3.67-3.34,6,0,.4.92.23.95-.11.32-4,4.28-7.15,7.31-9.24a9.59,9.59,0,0,1,1.65-1c1.14-.5,1.91.15,2.49,1.1a7.94,7.94,0,0,1,.89,5.22,42.37,42.37,0,0,1-.95,5.34c-.25,1.11-.71,2.24-.87,3.37a8.47,8.47,0,0,0,.16,2.06c.24,2,.49,4,.83,5.95s1,4.16,1.51,6.24a27.48,27.48,0,0,1,1,9.33c0,.4.93.23.95-.11Z"/><path class="cls-11" d="M485.8,346.94a2.49,2.49,0,0,0,1.12-1.35,2.54,2.54,0,0,0-.09-2.56,5.07,5.07,0,0,0-2.06-1.24,17,17,0,0,0-2.51-.71c-.5-.11-1-.2-1.49-.27a1,1,0,0,0-.67.18c-.14.12-.12.23.07.26a18.18,18.18,0,0,1,3.34.77,6.79,6.79,0,0,1,2.09,1,1.82,1.82,0,0,1,.58.71,2.49,2.49,0,0,1,0,1.38,3,3,0,0,1-.61,1.33,1.5,1.5,0,0,1-.26.25c-.1.08,0,0-.06,0s-.27.2-.1.3.51,0,.67-.11Z"/><path class="cls-19" d="M439.05,496.08c.3-23-1.79-45.87-3.07-68.81-.39-7-.68-14.08-.82-21.12,0-.65-1.43-.37-1.42.15.47,23,2.85,45.85,3.66,68.82.24,7,.33,14.07.23,21.12,0,.64,1.41.37,1.42-.16Z"/><polyline class="cls-5" points="336.81 376.55 360.64 336.05 384.11 347 378.92 364.62"/><path class="cls-5" d="M359.94,329.47c0-.59,2.61-24.28,5.76-34.22s-.31-17.44,4-20.3,8.28,3.19,9.3,10.89-3.26,14-.41,15.54S407,280.46,407,280.46s.45-8.38,5.1-9c2.68-.37,3.58,4.93,3.85,4.62,3.62-4.09,6.79-2.29,6.79-2.29l-1.89,23.35L410.7,307.79a19,19,0,0,1-.15,11c-2,5.37-3.7,8.72-4.16,9.06s-8.19,12.52-13.13,16.61-14.53,3.85-14.53,3.85L361.29,338S359.56,335,359.94,329.47Z"/><path class="cls-5" d="M372.92,333.64s7.46-13.72,21.17-7.32L387,311.73s-3.78-9.42,4.17-9.6l11.79,18.69-.66,7.08-7.85,5.78s-10.72,2.67-11.14,2.43S372.92,333.64,372.92,333.64Z"/><path class="cls-11" d="M406.65,296.12c.15.13,2.52-2.27,6.08-6.1l.1-.11,0-.19a32.87,32.87,0,0,1,1.17-5.46,44.53,44.53,0,0,1,2.15-6.14,8.16,8.16,0,0,1,3-3.58,4.37,4.37,0,0,1,3.89-.2l-.26-.53c-.46,3.32-.82,6.12-1,8.09a11.72,11.72,0,0,0-.18,3.12,11.73,11.73,0,0,0,.78-3c.39-1.94.89-4.71,1.45-8l.07-.37-.33-.16a5.39,5.39,0,0,0-4.94.11,9.05,9.05,0,0,0-3.46,4.07A39.41,39.41,0,0,0,413,284a29.54,29.54,0,0,0-1,5.73l.12-.3C408.62,293.36,406.51,296,406.65,296.12Z"/><path class="cls-20" d="M287.89,448.13,356,341s11.75,18.44,31.82,11.94c0,0-26.75,173.5-87,160.07Z"/><path class="cls-20" d="M281.23,561.69c-.62-20.23-18.09-64-16.8-78.63,0,0,2.08-18.68,4.5-25.22,2.51-6.78,8.38-12,11.55-18.48a57.69,57.69,0,0,0,6.23-21.71,164.66,164.66,0,0,0-.72-27.19c-.84-8.71-1.94-17.35-3.36-26-1.38-8.32-2.8-16.64-4-25a272.24,272.24,0,0,1-3.36-36.61c-2.17-1.61-4.41-3.15-6.73-4.58l-54.4-22.91-1.27-11.57-56.36-9.73-33,13.85s-58.5,14.44-67.6,21.5C44.77,298,63.29,452.37,63.29,452.37S35.7,544.54,29.92,563.62s-.38,46.56-.38,46.56l48.32-5.8c13.25-14.61,52.64,4.46,72.38,5.8h127l6.17-8C283,601,281.26,562.93,281.23,561.69Z"/><path class="cls-21" d="M529.25,589l.12-.07Z"/><path class="cls-22" d="M417,263.15s10.26,33.81-30.34,40.43c-33.1,5.41-38.59-26.81-38.59-26.81Z"/><ellipse class="cls-22" cx="383.18" cy="269.88" rx="38.32" ry="9.26" transform="translate(-43.43 75.79) rotate(-10.69)"/><ellipse class="cls-23" cx="382.55" cy="269.66" rx="35.17" ry="5.85" transform="translate(-43.4 75.67) rotate(-10.69)"/><path class="cls-24" d="M347.29,279.36l.18.06.52.21c.46.17,1.15.41,2.05.67a37,37,0,0,0,7.82,1.36,94.17,94.17,0,0,0,11.76,0,116.45,116.45,0,0,0,14.28-2c5-1,9.76-2.06,14-3.27a80.85,80.85,0,0,0,11.1-3.93,53.3,53.3,0,0,0,7-3.72c.8-.49,1.38-.93,1.79-1.21l.45-.33q.17-.1.15-.12a1,1,0,0,0-.17.1l-.48.29c-.42.26-1,.68-1.82,1.15a56.08,56.08,0,0,1-7,3.6,84.9,84.9,0,0,1-11.08,3.85c-4.26,1.18-9,2.24-14,3.23a117.69,117.69,0,0,1-14.22,2,93.7,93.7,0,0,1-11.73.1,39.72,39.72,0,0,1-7.8-1.23c-.89-.25-1.59-.46-2.05-.61l-.54-.17Z"/><path class="cls-16" d="M414.35,375.8a.31.31,0,0,1-.11.09l-.14-.33Z"/><path class="cls-20" d="M286.73,308.29c6.09,6,48.12,114.75,62.08,156.35-2.68,1.19-12,15.86-14.43,17.4-5.75,3.59-8.83,6.9-14.27,10.94-6.78,5,2.49,17.42-5.72,19.33-13,3-18,3.06-29.56-4.9-.21-.26-28.87-32-27.24-38.71,2-8.07,3.58-13.41,3.58-13.41l-.42-160.46S278.18,299.88,286.73,308.29Z"/><path class="cls-20" d="M57.34,288.46s-14.72,8.6-23.46,37.2-35.46,120.6-20,171.64c8.58,28.33,122.52,55.44,122.52,55.44l26.49-62.33L76.75,450.66s3.78-56.32,5.82-79.61S57.34,288.46,57.34,288.46Z"/><path class="cls-25" d="M124.23,112.16c4.39-6.44,11.34-10.81,18.81-8.93-.57-14.53,13.36-23.35,27.89-24,7.46,0,15.19,3.24,22.2.64,4.37-1.6,7.63-5.11,11.34-8C220,59.88,244.94,73,258.53,87.11s10.57,30.17,4.06,48.64c-3,8.59-2.42,13.23-3.24,22.36-.76,8.61-5.69,24.69-5.64,33.23s13.56,17.25,5,18.08l-94-9.44c-13.9,3-22.88-1.07-30.23-13.24-4.79-8.27-3.25-8.68-4-18.19C129,156.13,116.23,147,116.76,134.5,116.85,126.66,120.22,118.9,124.23,112.16Z"/><path class="cls-26" d="M112.56,111.84s32.18-16.64,74.12-12.73,62.82,29.22,70.45,47.49.16,37.75.16,37.75,10.52,2.65,16.83-35.13c9.2-55.09-47.49-87.24-61-86.82S130.1,50,112.56,111.84Z"/><path class="cls-5" d="M150.14,200.13s2.14,35.6-9.17,57.63c-1.57,3.07-21.64,10.82-23.8,11.8,1.53-.7,11.43,6.2,13,7,5.8,2.84,11.32,5.76,17.5,7.77,12.8,4.14,26.31,5.64,39.68,6.41s33.68,2.37,44.1-8c-3.51-2.16-15.69-5.17-16.22-10.37-.4-4,5.9-33.68,5.9-33.68"/><path class="cls-11" d="M216.94,260.53a121.65,121.65,0,0,1-12.69-2.3c-4.84-1.31-13.09-.93-35.51-20,0,0,6.77,23.62,35.18,28.4,0,0,6.91,2,11.72.77Z"/><path class="cls-5" d="M239.48,116.31l.31.24a3.6,3.6,0,0,1-.29-.5Zm12,3.35a6.78,6.78,0,0,0,.54.53l0-.22S251.47,119.4,251.45,119.66ZM165.74,235.58c10.54,12.44,27.47,24.52,45.36,26.56,14.48,1.65,15.66-2.71,20.39-6.56,7.18-5.84,12-11.78,17.52-18.87,5.3-6.79,7.72-11.08,10.43-19.24,2.8-8.43,2.94-10.7,2.61-19.34a85.39,85.39,0,0,1,.53-13.35c.62-4.23,3.72-20.85,4.78-30.65S262,125.21,262,125.21c-.37-2.7-4.14-1.57-5.42-3.81l-1.16-.09a1.15,1.15,0,0,1,.5,1.11,9.16,9.16,0,0,1-3.9-2.23v0c-1.81.66-3.48-.28-4.82-1.72,0,.27.23.82.52.84a5.84,5.84,0,0,1-4.51-2c0,.26.23.82.21,1.08a10.48,10.48,0,0,1-3.6-1.94c.24.38,6.85-.13,6.83.06-1.75.13.19.86-1.15-.58l-1.36-1.1c-1.47.15-1.48,1-2.56-.13.27.29-.56-3-.59-2.72-1.73-.14-1.25-.21-2.63-1.12,0,.26-4.87,1.35-4.89,1.61-1.45-.11-1.17,1.25-2.25.09.27.29,1.14-1,1.4-.74-1.75.13-2.49,1.2-3.83-.25.26.29-5.5-3.36-5.5-3.36-1.76.13-1.51.7-2.87-.48.54.58-8-1.12-7.73-.57-1.44-.11,2.35,5.52,1.26,4.63,0,.27-3.27-1.06-3.27-1.06-1.47.16.6,1.65-.48.5,0,.27.21,1.09.5,1.11-1.8.66-3.78,0-5.44-1.23.54.58.79,1.13,1.06,1.42-1.45-.12-2.63.06-4-1.12,0,.27.49,1.11.78,1.13a5.72,5.72,0,0,1-4.58-.89c0,.26.51.84.78,1.13a4.13,4.13,0,0,1-3.43-.81l.78,1.14c-1.15-.1-2.06.37-3.76-.3,0,.26.54.58.52.84a11,11,0,0,1-2.88-.49c0,.26.81.86.52.84-1.16-.09-2.07.37-3.47-.27.27.28.51.84.78,1.13a7.79,7.79,0,0,1-3.45-.54,2,2,0,0,0,.5,1.11c-1.16-.09-2.07.37-3.48-.28,0,.27.52.84.79,1.13a14.92,14.92,0,0,1-3.47-.27c0,.26.53.58.8.86a9.28,9.28,0,0,1-3.74-.56c0,.53.23.82.2,1.09-.86-.07-1.42-.38-2.29-.45l-1.49.42c-4.47,5-19.33-.5-19.33-.5-9.54,6.47-.41,44.11-.52,49.18s-3.08,6.25-3.08,6.25c-1.3-2-3.5,3.38-4.2,1.19-.72-1.93,0-4.27-.68-6.2-2.27-4.45-8.16-3.58-11.55-1.18l-.6.83c-4.9,5.66-1.52,24.7,1.33,30.5.09,11.37,9.58,18.06,15.79,10.33l1.23,4.53"/><path class="cls-10" d="M226.4,211.53a8.29,8.29,0,0,1-7.5-1.06c-.45-.33-2.06-.18-1.43.29A11.72,11.72,0,0,0,227.7,212c.28-.12.25-.33-.08-.47a1.84,1.84,0,0,0-1.22,0"/><path class="cls-10" d="M216.59,210.08a13.36,13.36,0,0,0-4.55-1.52,1,1,0,0,0-.73.17c-.14.11-.18.27,0,.38a5.11,5.11,0,0,0,2.51.78,1,1,0,0,0,.81-.24c.16-.2-.09-.36-.31-.38a4,4,0,0,1-2-.64c-.25.19-.49.37-.75.55a12,12,0,0,1,4.07,1.38,1,1,0,0,0,.86,0c.18-.09.38-.31.13-.45"/><path class="cls-10" d="M210.21,209.78c-1.87-.2-4-1.19-4.83-2.66-1.23-2.24.34-5.49,2.79-6.66.26-.13.14-.33-.11-.41a1.55,1.55,0,0,0-1,.13,6.55,6.55,0,0,0-3.53,5.69c.15,1.88,1.84,3.32,4,4a10.23,10.23,0,0,0,2.06.45c.28,0,.8,0,1-.23s-.09-.33-.36-.35"/><path class="cls-10" d="M229.91,210.86a.25.25,0,0,1,.27-.34,2.19,2.19,0,0,0,1.49-.36l.45.65a6.6,6.6,0,0,0-3,.81.55.55,0,0,1-.6-.14c-.11-.11-.22-.36,0-.47"/><path class="cls-10" d="M228.47,211a7.38,7.38,0,0,1,3.38-.89.64.64,0,0,1,.49.26.27.27,0,0,1,0,.38"/><path class="cls-10" d="M233.79,211.42a3.85,3.85,0,0,0,3.44-2,5.48,5.48,0,0,0-1-6.11.22.22,0,0,1,.12-.39.74.74,0,0,1,.64.26,6.13,6.13,0,0,1,1.58,5.25,4.42,4.42,0,0,1-4.48,3.65c-.18,0-.51-.12-.58-.35s.1-.31.27-.3"/><path class="cls-27" d="M251.1,176.28a4,4,0,0,1,5.55,3.17,4.2,4.2,0,0,1-1.29,3.73,3.89,3.89,0,0,1-4.53.43,4.31,4.31,0,0,1-1.72-5.16,3.84,3.84,0,0,1,2-2.17"/><path class="cls-27" d="M234.27,180.33s8.3-5.54,12.33-5.62c5.88-.12,12.82,3.68,14.65,6.74,0,0-9.13-5.59-13.27-5.38C244,176.26,234.27,180.33,234.27,180.33Z"/><path class="cls-27" d="M202.36,173.05a5.46,5.46,0,0,0-5.26-.09,4,4,0,0,0-1.37,1.81,4.18,4.18,0,0,0,.68,3.88,3.9,3.9,0,0,0,4.41,1.13,4.31,4.31,0,0,0,2.5-4.82c-.06-.33.3-.91-.94-1.68"/><path class="cls-27" d="M210.11,178s-8.39-6.31-12.73-6.78c-6.32-.69-14.18,2.43-16.47,5.3,0,0,10.41-4.69,14.85-4.08C200,173,210.11,178,210.11,178Z"/><path class="cls-28" d="M235.91,159.62c-.06,1.19-.11,2.37-.17,3.56,0,.91-.08,1.82-.11,2.72,3.06-.61,5.68-1,7.65-1.21,4.17-.48,6.31-.71,8.69-.19a22.72,22.72,0,0,1,5.41,2,14.22,14.22,0,0,1,2.81,1.68c2,1.57,2.71,3.27,3.06,3.14s-.12-1.6-.16-1.75a13.92,13.92,0,0,0-4-6.23,16.28,16.28,0,0,0-5.46-2.85c-2.34-.72-8.9-1.49-17.69-.89"/><path class="cls-28" d="M215,157.92c-.21,1.16-.43,2.33-.65,3.5l-.51,2.67c-3.1-1.34-5.79-2.33-7.83-3-4.31-1.48-6.52-2.22-9.16-2.3a27.14,27.14,0,0,0-6.2.64,16.33,16.33,0,0,0-3.38,1c-2.44,1-3.63,2.53-4,2.32s.5-1.53.58-1.67a14.06,14.06,0,0,1,5.73-5.08,18.48,18.48,0,0,1,6.44-1.44c2.65-.13,9.78.72,18.95,3.45"/><path class="cls-29" d="M146.79,188.42C140.6,173.2,136,173,136,173s-3.13,3.45-1.71,10.49"/><path class="cls-29" d="M144.41,189.76c-4.08-.47-1.06,7.22-2.22,9s-2.58-3-3-8.79c0,0,.12-7.79,4-9.15"/><path class="cls-11" d="M204,142s9.92,5.13,20.06,5,22.61-1.57,22.61-1.57"/><path class="cls-28" d="M256.47,113.47h0c-2.52-3.54-4.11-7.32-6.78-10.75s-5.17-6.4-8-9.6c-.17-.19-3.48-.28-3.65-.47l-.17-.2-.27-.3-.63-.69c-15.73-6.85-34.72-7.82-51.86-2.56a63.06,63.06,0,0,0-41.77,78.79c.87,2.85-.83,6.3,2,7.91s3.12.81,5.77-1a20.85,20.85,0,0,0,5.92-7.48c7.24-13.76,9-35.66,5.72-50.85,1.84,2.87,14.66-.12,17.51,1.76a24.43,24.43,0,0,0,33.82-7,37.68,37.68,0,0,0,3.88,4.76c13,13.52,30,20.07,44.13,10.51C262.61,125.92,258,115.72,256.47,113.47Z"/><path class="cls-24" d="M176.92,169.29l1.44,5.5c.77,4.25,3.38,12.74,4.67,15.09,1.81,3.29,23.94,6,28.47,3.7s7.81-14.8,9.16-17.67l8.86,1.07c.54,3.87,2.52,16.1,4.1,17.84s11.8,2.12,12.95,2.16c1,0,2.29.06,3.75,0,3.87,0,8.59-.37,10.12-1.7,2.28-2,5.15-9.9,7.66-17.41l.41-1.17c.09-.28.19-.48.2-.56h0l.45-1.36c-12.39-6.94-29.25-7-39.94-.2l.07.14-8.64-1.09c-9.35-7.15-26.05-11.8-38.47-7.89h0l-38,3.81-.33,3.32Zm57.83,24.37c-1-1.08-2.64-9.68-3.7-16.35,9.28-5.75,24.48-5.65,35.6-.1l0,.17c-1.35,4-4.94,14.73-7.17,16.68-2.65,2.29-23,1.32-24.72-.37Zm-49-4.51a114,114,0,0,1-6.08-19.62c11.1-4.19,29.68-.23,38.84,6.57-1.89,5.22-4.43,14.37-7.68,16-4.67,2.34-24-.85-25.08-2.93Z"/><path class="cls-30" d="M126.92,174.08s-31.76-22.71-19.87-47.4c2.28-4.74,2.54-3.19,2.65-7.28.57-21.41-6.88-16.26,24.31-41.5s35.81-24.85,83.7-21.6C242.4,58,256,68.2,262.83,83.8c3.08,7,4.8,15.11,5.55,24,0,0-50.53-14-80.46,2.35s-61.12,69.34-54.59,86.2C135.16,201.09,126.92,174.08,126.92,174.08Z"/><path class="cls-26" d="M107.29,150.78s42.39-62.64,99.43-64.93c0,0-70.53-7.07-101.39,43.48l-.42,5.92A32.11,32.11,0,0,0,106,146.2Z"/><path class="cls-12" d="M218.1,223.34c-9-.79-23.4-3.18-23.4-3.18s.88,21,21.67,22.83,25.32-18.68,25.32-18.68S227.06,224.14,218.1,223.34Z"/><path class="cls-13" d="M218.18,223.35c-4.26-.37-21.38-2.65-21.38-2.65s4.63,12.49,20,13.85c16.72,1.48,22.67-9.94,22.67-9.94Z"/><path class="cls-14" d="M218.31,224c-4.26-.38-17.17-2.28-17.17-2.28s4.24,5.33,17,6.46,17.27-3.29,17.27-3.29Z"/><path class="cls-12" d="M242.76,223c-.45-.16-3,.49-5.11.11-3.5-.63-5.62-1.8-8.16-2.23-4.33-.74-7.26.83-9.16.66s-4.51-2.23-8.91-2.26c-2.57,0-9,.4-12.54.41-2.14,0-4.54-1.08-5-1-.65.11.14,5.08,24,7.18S243.37,223.23,242.76,223Z"/><path class="cls-31" d="M284.42,350c-5.08,9.19-5.34,19.65-3.9,29.83,1.52,10.78,4.56,21.31,5.57,32.17,1.07,11.49-.64,22.87-6.88,32.75a55.23,55.23,0,0,1-6.56,8.37q-2,2.07-4.09,4c-.69.62-1.39,1.23-2.11,1.82-.26.23-.54.39-.66.7a8.81,8.81,0,0,0-.19,2.18l-.41,4.74-1.1,12.61c-.25,2.86-.66,5.76-.75,8.64a3.57,3.57,0,0,1,0,.46c0,.25,2.2,0,2.26-.61L267.18,469l.8-9.31a2.69,2.69,0,0,1,.06-.7,8.13,8.13,0,0,1,1.17-.89c.81-.69,1.61-1.4,2.39-2.13a64.88,64.88,0,0,0,7.13-7.78c7.18-9.35,10.31-20.55,9.91-32.26-.38-11-3.28-21.59-5.17-32.34-1.77-10.1-2.64-20.77,1.43-30.45a39.21,39.21,0,0,1,1.74-3.57c.19-.34-.79-.2-.89-.18-.38.06-1.12.21-1.33.6Z"/><path class="cls-5" d="M244.44,518l14.17-.61c3.15-.13,6.71-.11,8.91,2.14s2.12,5.9,1.87,9.08"/><path class="cls-31" d="M319,397.48c-3.82,7.11-8.11,14-12.09,21-2.11,3.74-4.2,7.5-6.07,11.36a59.59,59.59,0,0,0-4.32,12.2,54.23,54.23,0,0,0-1.21,20.8c.12.84,2.39.3,2.25-.6a56.27,56.27,0,0,1,5.11-31.69c3.71-7.81,8.21-15.25,12.57-22.71,2-3.39,4-6.78,5.87-10.25.53-1-1.73-.81-2.11-.1Z"/><path class="cls-5" d="M410.9,308.55s-.4-5.5-2.75-9.18-14.42-19.13-16.25-18.65-5.22.89-3.72,5.94,9.56,14.8,9.69,15.06a26.94,26.94,0,0,0,1.61,8.49"/><path class="cls-11" d="M399.49,310.21c.09,0-.26-.95-.62-2.66a26.82,26.82,0,0,1-.46-3.14c-.06-.62-.09-1.27-.11-2l0-.56a1.2,1.2,0,0,0-.32-.68l-.69-.92a109,109,0,0,1-6.26-9,18.17,18.17,0,0,1-2.52-5.77,3.39,3.39,0,0,1,.47-2.81,5.12,5.12,0,0,1,2.86-1.3c.15-.19.64.2,1.07.53a17.12,17.12,0,0,1,1.27,1.15c.82.81,1.6,1.65,2.35,2.48,1.51,1.68,2.91,3.35,4.23,4.95,2.63,3.21,5,6.16,6.77,8.7a19.51,19.51,0,0,1,2.77,6.73,22.89,22.89,0,0,0,.62,2.67,8.48,8.48,0,0,0-.17-2.75,18.19,18.19,0,0,0-2.53-7.11c-1.76-2.65-4-5.65-6.62-8.92-1.31-1.63-2.7-3.33-4.21-5-.76-.85-1.55-1.71-2.4-2.55a18,18,0,0,0-1.35-1.23,5.24,5.24,0,0,0-.81-.57,2,2,0,0,0-.57-.23,1.33,1.33,0,0,0-.49,0l-.22.06a6.15,6.15,0,0,0-3.46,1.68,4.48,4.48,0,0,0-.71,3.76,19,19,0,0,0,2.73,6.13,94.3,94.3,0,0,0,6.52,9l.73.89c.14.21.18.16.17.28l.05.52c0,.71.11,1.39.2,2a21.48,21.48,0,0,0,.67,3.18A7.67,7.67,0,0,0,399.49,310.21Z"/><path class="cls-11" d="M373.44,332.13c.16.16,1.56-1.91,4.94-4.18a17.19,17.19,0,0,1,6.7-2.54,18.18,18.18,0,0,1,9,.91l1.32.49-.62-1.24c-1.65-3.26-3.45-6.8-5.32-10.51h0l0,0c-.21-.35-.43-.73-.66-1.1a19.13,19.13,0,0,1-2.51-6.61,3.82,3.82,0,0,1,3.14-4.37,2.43,2.43,0,0,1,1.3.16c.37.12.62.49,1,.89.63.78,1.21,1.61,1.78,2.39l3.06,4.43,4.42,6.45a11.25,11.25,0,0,0,1.76,2.28,16.57,16.57,0,0,0-1.38-2.52c-.94-1.59-2.34-3.87-4.11-6.66-.89-1.4-1.87-2.92-3-4.53-.55-.81-1.11-1.64-1.76-2.48-.16-.21-.35-.42-.53-.64a2.66,2.66,0,0,0-.8-.57,3.64,3.64,0,0,0-1.86-.28,4.69,4.69,0,0,0-3.2,1.86,5.33,5.33,0,0,0-1,3.7,19.45,19.45,0,0,0,2.64,7.07c.23.4.47.79.69,1.16l0-.05c1.9,3.69,3.71,7.23,5.38,10.48l.7-.75a18.62,18.62,0,0,0-9.58-.82,17.39,17.39,0,0,0-6.92,2.89,14.15,14.15,0,0,0-2.15,1.8,10.57,10.57,0,0,0-1.42,1.53A6.35,6.35,0,0,0,373.44,332.13Z"/><path class="cls-32" d="M317.36,457.18c9,5.37,12.16,17.13,5.48,28.16s-20.43,14.57-26.23,18.18-11.51,6.13-15.44,12.12-55.4,84.7-59,86.32c-2.79,1.24-6.61-2-5.83-5s57.87-83.42,60.81-92.59c2.73-8.5,2.91-26.15,7.21-35.23C288.88,459.57,299.71,446.69,317.36,457.18Z"/><path class="cls-33" d="M312.92,465c6.9,5.37,9.95,16.09-3.13,25.21-16.55,11.54-27.28,4.93-21.41-16.31C293.55,455.2,306.74,460.14,312.92,465Z"/><path class="cls-5" d="M296.61,550.4c-.93-3.65-10.82-17.62-10.82-17.62s-4.29-6.58-10.11-7.18-32-8-32-8L218,522.19l-10.16-.49c-3.9,10.78-4.7,19.8-10,30,3.32-.11,5.84-.23,7-.34,7.06-.69,38.38,13,44.25,14a110.7,110.7,0,0,0,12.1,1.18s27.38-3.39,28-4.93,2.29-1.56-1.13-6.38a54,54,0,0,0-7.18-8.15s8.47,7.35,10.43,7.29S297.55,554.06,296.61,550.4Z"/><path class="cls-34" d="M265,533.89a13.94,13.94,0,0,1,3,1.6,58.9,58.9,0,0,1,6.6,4.85,56.2,56.2,0,0,1,5.92,5.73,12.9,12.9,0,0,1,2.08,2.69,18.69,18.69,0,0,1-2.46-2.33c-1.49-1.48-3.58-3.48-6-5.53s-4.75-3.76-6.47-5A19,19,0,0,1,265,533.89Z"/><path class="cls-34" d="M284.83,562.79a3.41,3.41,0,0,1-1.14-.23,19.78,19.78,0,0,1-2.93-1.15,46.2,46.2,0,0,1-8.58-5.77c-3.13-2.53-5.94-4.85-7.94-6.57a26.07,26.07,0,0,1-3.16-2.87,24.34,24.34,0,0,1,3.48,2.47c2.09,1.62,5,3.86,8.08,6.39a57.4,57.4,0,0,0,8.36,5.88C283.3,562.2,284.87,562.68,284.83,562.79Z"/><path class="cls-34" d="M269.89,565.4a10.77,10.77,0,0,1-2.82-.84,64.53,64.53,0,0,1-6.48-2.88,69,69,0,0,1-6.11-3.56,12,12,0,0,1-2.37-1.77c.13-.19,3.95,2.18,8.83,4.68S270,565.19,269.89,565.4Z"/><path class="cls-31" d="M43,525.32A93.25,93.25,0,0,0,52.34,530a216.68,216.68,0,0,0,27.17,9.89,303.42,303.42,0,0,0,44,9.41c16,2.23,31.85,4.65,47.66,7.79q7.67,1.51,15.29,3.21c2.37.53,4.72,1.17,7.09,1.65l.31.08a1.42,1.42,0,0,0,1.47-.71l3.56-9.43c.47-1.25-1.79-1.32-2.17-.31L193.19,561l1.46-.71c-5.94-1.48-11.94-2.75-17.93-4q-22.23-4.57-44.73-7.71c-15.72-2.18-31.28-4.76-46.59-9A231.19,231.19,0,0,1,56.22,529.5c-2.72-1.16-5.41-2.39-8-3.71-.77-.39-1.54-.78-2.3-1.19l-.56-.31c-.15-.08-.29-.17-.44-.24l-.14-.09c-.91-.53-2.85.69-1.73,1.36Z"/></g><path class="cls-30" d="M126.62,173.73s-31.76-22.7-19.87-47.4c2.28-4.74,2.54-3.19,2.65-7.27.58-21.42-6.88-16.26,24.31-41.51S169.52,52.71,217.41,56c24.69,1.67,38.28,11.9,45.13,27.5,3.07,7,4.79,15.1,5.55,24,0,0-50.54-14-80.47,2.35S126.51,179.14,133,196C134.86,200.75,126.62,173.73,126.62,173.73Z"/><path class="cls-26" d="M107,150.44s42.39-62.65,99.44-64.93c0,0-70.54-7.07-101.4,43.48l-.42,5.92a32.38,32.38,0,0,0,1.1,11Z"/><path class="cls-20" d="M57.18,289.45S42.46,298,33.72,326.65-.51,452.84,18.4,502.71C32,538.62,152.56,550.87,152.56,550.87l10.17-59.47L76.59,451.65s3.78-56.32,5.82-79.61S57.18,289.45,57.18,289.45Z"/><path class="cls-31" d="M79.58,301.46c9.82,2.39,15.13,12.94,18,21.73,3.39,10.21,3.48,21,2.92,31.66-1.11,20.91-6.23,41.2-12,61.25-3.36,11.77-6.85,23.5-9.84,35.36,0,.19.07.28.21.36l12.71,6.82L122.17,475l36.91,19.82L191,512l10.52,5.65c1.65.88,3.29,1.93,5,2.68l.22.12c.58.31,2.67-.57,1.81-1l-12.7-6.82-30.51-16.37-36.92-19.82L96.51,459.24,86,453.59l-3.3-1.77a8.38,8.38,0,0,0-1.69-.91.94.94,0,0,1-.22-.12l.21.36c5.32-21,12.33-41.65,17-62.86a210,210,0,0,0,4.69-32c.67-10.59.83-21.47-2.18-31.75-2.89-9.9-8.6-21.61-19.53-24.26-.64-.15-2.63.84-1.4,1.13Z"/><path class="cls-31" d="M80.5,450.82a34.81,34.81,0,0,0-23.75,6.38c-1.24.89.64,1.42,1.44.84a31.3,31.3,0,0,1,21.48-5.77c1,.1,2.35-1.29.83-1.45Z"/></g></g></svg>