<svg xmlns="http://www.w3.org/2000/svg" viewBox="0 0 1303.15 1057.31"><defs><style>.cls-1{fill:#f2ebd1;}.cls-10,.cls-2,.cls-7{fill:#151210;}.cls-3{fill:#161311;}.cls-4{fill:#a66e53;}.cls-5{fill:#4f2e25;}.cls-6{fill:none;stroke-width:1.55px;}.cls-10,.cls-6,.cls-7{stroke:#161311;stroke-miterlimit:10;}.cls-7{stroke-width:0.67px;}.cls-8{fill:#231f20;}.cls-9{fill:#010101;}.cls-10{stroke-width:0.66px;}.cls-11{fill:#653c29;}.cls-12{fill:#31160e;}.cls-13{fill:#f1eef7;}.cls-14{fill:#825639;}.cls-15{fill:#161312;}.cls-16{fill:#171514;}.cls-17{fill:#181615;}.cls-18{fill:#191716;}.cls-19{fill:#040404;}.cls-20{fill:#24180f;}.cls-21{fill:#97a07f;}.cls-22{fill:#c95744;}.cls-23{fill:#384d23;}.cls-24{fill:#681c0e;}.cls-25{fill:#513835;}.cls-26{fill:#745245;}.cls-27{fill:#a38166;}.cls-28{fill:#1c3b53;}.cls-29{fill:#132b3a;}.cls-30{fill:#87654d;}.cls-31{fill:#9b5524;}.cls-32{fill:#aa6333;}.cls-33{fill:#e79731;}.cls-34{fill:#d67d28;}.cls-35{fill:#c37329;}.cls-36{fill:#fbad57;}</style></defs><g id="Layer_10" data-name="Layer 10"><polyline class="cls-1" points="1345.62 1102.43 1345.62 -64.19 -69.47 -64.19 -69.47 1102.43"/><path class="cls-2" d="M933.53,449.84l1.25-1.47c10.42-5.62,19.3-6.48,26.56-.22.1,0,13.73-7.58,28.21,9.59,12.56,14.9,9.48,25.44,9.48,25.44s9.55,3.28,11.89,7.5c5.28,9.5,5.86,28.22-2.56,31.26s-8.91,7.15-8.91,7.15-12.93,4.78-20,5.89-18.23-5.35-18.23-5.35-15.64,3.26-20.66.17S932,515.65,932,515.65s-16.56.07-17.58-12.3c0,0-6.44-6.58.85-16.06a34.49,34.49,0,0,1,6.85-6.54s-3.07-3.3-2.26-13.09C920.17,463.43,925.61,454.1,933.53,449.84Z"/><path class="cls-3" d="M934.31,450a12.67,12.67,0,0,1,1.11-1.3,13.31,13.31,0,0,1,3.53-1.78,29.58,29.58,0,0,1,8-2.38,17,17,0,0,1,13.54,4,1.41,1.41,0,0,0,1.5-.07c-.15.08-.07,0,.18-.09l1-.4a16.64,16.64,0,0,1,3.34-.79,20.22,20.22,0,0,1,11.77,2.24c6,3.05,10.67,8.33,14.31,13.85a34.09,34.09,0,0,1,5.67,14,15.05,15.05,0,0,1-.13,6c-.07.25.2.37.38.43a33.49,33.49,0,0,1,9.14,4.7c3.53,2.75,4.78,7.69,5.57,11.9a33.09,33.09,0,0,1-.1,14.08,12.68,12.68,0,0,1-2.5,5.29c-1.49,1.73-3.7,2.15-5.67,3.15-2.33,1.18-6,3.41-6.4,6.37l.58-.54c-4.66,1.72-9.4,3.28-14.2,4.56-3.12.84-6.17,1.62-9.41,1.08a37.51,37.51,0,0,1-9.39-3.1c-1-.47-2.08-1-3.09-1.52a4.33,4.33,0,0,0-1.28-.62,3.34,3.34,0,0,0-1.27.17c-.95.18-1.91.34-2.86.48a65.66,65.66,0,0,1-8.62.83c-2.46,0-5.44.09-7.62-1.23-2.84-1.73-4.65-5.25-6-8.14a48.31,48.31,0,0,1-2.36-5.78c-.07-.24-.37-.32-.59-.32a21.27,21.27,0,0,1-12.54-3.79,11.35,11.35,0,0,1-3.19-3.7,11,11,0,0,1-.88-2.27,12.59,12.59,0,0,0-.47-2.37c-.34-.67-1-1.23-1.31-1.92a10.88,10.88,0,0,1-1.21-4.47c-.31-6.55,5.15-11.86,10-15.5.19-.14.52-.43.28-.7-1.94-2.13-2.21-6-2.3-8.72a17.52,17.52,0,0,1,1.08-7.57,29.27,29.27,0,0,1,4.23-6.92,27.53,27.53,0,0,1,8.15-7c.36-.2.48-.53.16-.8s-1.06,0-1.37.17A30.94,30.94,0,0,0,920.38,463a21,21,0,0,0-.63,15.31,7.9,7.9,0,0,0,1.44,2.81l.28-.7c-4.54,3.43-9.38,7.93-10.48,13.79a11.42,11.42,0,0,0,2.11,9.06,1.35,1.35,0,0,1,.34.61c.27,1,.31,2,.67,2.94a11.44,11.44,0,0,0,2.92,4.4,18.73,18.73,0,0,0,8.64,4.24,26.81,26.81,0,0,0,5.92.75l-.6-.32a47.13,47.13,0,0,0,2.12,5.27c1.34,2.89,2.94,5.94,5.34,8.09,2,1.83,4.69,2.26,7.35,2.39a54.17,54.17,0,0,0,9.69-.55c2-.26,3.92-.57,5.86-1l-.9,0a41.5,41.5,0,0,0,14.29,5.37,23.2,23.2,0,0,0,9.14-.9c3.4-.85,6.75-1.9,10.08-3,2-.66,3.93-1.33,5.88-2.05.21-.08.54-.29.57-.54.39-2.94,4.38-5,6.69-6,2-.84,3.72-1.45,5.15-3.13a13.35,13.35,0,0,0,2.56-5,32.41,32.41,0,0,0,.43-14.1,36.31,36.31,0,0,0-1.85-7,13.35,13.35,0,0,0-3.17-5.32c-2.92-2.69-6.88-4.45-10.61-5.74l.38.43a14.81,14.81,0,0,0,.23-5.43A33.19,33.19,0,0,0,995,463.55c-5.9-9.46-15.63-18.7-27.61-17.57a17.45,17.45,0,0,0-6.63,1.86l1.5-.07a18.91,18.91,0,0,0-15.09-4.34,33.22,33.22,0,0,0-8.77,2.57,17.11,17.11,0,0,0-4.38,2.19,13.65,13.65,0,0,0-1.25,1.47C932,450.53,933.86,450.54,934.31,450Z"/><path class="cls-4" d="M1070.51,463.39l3,8.79c-.5,7.74-4.2,29.19-3,36.85l3.09,11.65,22.75,15.65s-95.77,85.83-116.84,77.61-18-61.22-11.91-66.38,28.13-11.89,28.13-11.89l10.12,1.37-6.39-20.13Z"/><path class="cls-4" d="M1070.26,458.46s-9.57,51.14-.3,68.13c2.43,4.44,9.25,8,9.25,8l-24.27,20.6c-32.81,18.46-24.85,31.47-60,18l-11.5-14.34s5-7.5,5.74-13.44,2.31-46.61,2.31-46.61"/><path class="cls-5" d="M1047,498s-7.06,21.76-46.31,29c0,0-9.1,2.19-10.52,1.22l.88-11.5Z"/><path class="cls-6" d="M936.06,447s-24.46,8-24.46,24.35L913,482.67s-11.41,2.93-10.4,11"/><path class="cls-7" d="M1105,403s28.81-77.46-20-79.79c0,0-3.41-8.24-13.32-14-11.76-6.9-23.46.56-23.46.56s-10.64-9.45-21.22-7.64-14.58,7.9-14.58,7.9-12.6-6-21.81-1.4S975,322.4,975,322.4s-7.76-1.17-12.61,1.18c-11.61,5.61-12.61,31.48-14,40.66,0,0,9.29-31,19.59-32.27s100.83,18.64,100.83,18.64l27,80.53Z"/><path class="cls-2" d="M1159.84,468.45l.84,1.75c.91,11.79-1.9,20.26-10.56,24.37,0,.11,1.78,23.38-19.78,29.65-18.72,5.45-27.1-1.63-27.1-1.63s-6.88,7.4-11.69,7.83c-10.81,1-22.21-11.31-21.57-20.23s2.53-21.77,2.53-21.77-.82-9.32,1-16.24,11.69-14.87,11.69-14.87-6.2-11.49-1.34-14.82,16.62-6.53,16.62-6.53,6.44-10.77,18.17-6.69c0,0,8.61-3.22,14.34,7.28a35.07,35.07,0,0,1,3.2,8.91s4.26-1.46,12.88,3.24C1152.82,450.73,1159.15,459.49,1159.84,468.45Z"/><path class="cls-3" d="M1158.89,468.71a11.55,11.55,0,0,1,.83,1.74,11,11,0,0,1,.14,2.37c0,.83,0,1.67,0,2.5a30.33,30.33,0,0,1-1.09,7.88,17.1,17.1,0,0,1-9,11c-.27.13-.61.31-.58.65a31.3,31.3,0,0,1-4,17.29,24.54,24.54,0,0,1-12,10.6,39.25,39.25,0,0,1-21,2.59c-2.66-.47-5.95-1.38-8-3.09a1.41,1.41,0,0,0-1.66.22,40.17,40.17,0,0,1-5.23,4.69,15.13,15.13,0,0,1-4.6,2.58,10.59,10.59,0,0,1-5.47-.23c-7.36-1.85-14.37-8.78-16-16.24a18.17,18.17,0,0,1-.08-5.46c.19-2.19.42-4.38.67-6.56q.63-5.44,1.39-10.87a20.69,20.69,0,0,0,.18-4,52.53,52.53,0,0,1,.71-12.4c1.32-6.74,6.75-12.26,11.93-16.46.08-.07.26-.29.19-.42a33.15,33.15,0,0,1-2-4.7c-.84-2.45-1.81-5.65-.74-8.17.56-1.34,1.89-2,3.11-2.61a46.57,46.57,0,0,1,4.76-2.07c2.74-1.06,5.54-2,8.36-2.78a3.7,3.7,0,0,0,1.69-.67,6.48,6.48,0,0,0,.6-.85,17.09,17.09,0,0,1,4.65-4.36,12.53,12.53,0,0,1,9.36-1.65,9.72,9.72,0,0,0,2.6.61,4.42,4.42,0,0,0,.52-.14c-.43.11-.13,0,0,0a8.86,8.86,0,0,1,1.66-.3c8.81-.7,12.92,9.35,14.56,16.35.09.39.84.31,1.09.23a1.5,1.5,0,0,1,.68-.12,10,10,0,0,1,2.62.12,22.52,22.52,0,0,1,9.54,3.77,23.48,23.48,0,0,1,6,7.5,29.19,29.19,0,0,1,3.67,11.49c0,.63,2,.22,1.91-.51a30.24,30.24,0,0,0-7.76-17.31,17.93,17.93,0,0,0-6.63-4.32,22.4,22.4,0,0,0-7.13-1.84,8.57,8.57,0,0,0-3.19.25l1.09.23c-1.43-6.11-4.14-13.39-10.4-16a11.87,11.87,0,0,0-8.48-.32l1.14-.07a16.26,16.26,0,0,0-14.45,1.73,17.88,17.88,0,0,0-5.37,5.41l.76-.46a82.85,82.85,0,0,0-13.77,4.88c-2.18,1-4.64,2.15-5.31,4.68s.06,5.16.82,7.47a33.13,33.13,0,0,0,2.15,5.06l.19-.42a53.52,53.52,0,0,0-5.15,4.84c-2.6,2.76-5.2,5.87-6.47,9.49-1.47,4.19-1.53,9-1.46,13.41,0,1.21.14,2.41.16,3.61,0,.33,0-.13,0,.22s-.1.75-.16,1.12c-.52,3.74-1,7.48-1.44,11.23-.27,2.37-.52,4.74-.73,7.12a18.5,18.5,0,0,0,.06,5.41c1.58,7.71,8.69,14.58,16.11,16.75a15.34,15.34,0,0,0,6.42.56,13.55,13.55,0,0,0,5.32-2.28,38.41,38.41,0,0,0,6.91-5.88l-1.66.21a17.12,17.12,0,0,0,6.94,3c7,1.67,14.41.69,21.18-1.29a27.93,27.93,0,0,0,14.8-10,30.61,30.61,0,0,0,5.29-12.83,29.9,29.9,0,0,0,.51-7.61l-.57.65a18.69,18.69,0,0,0,9.92-11.1,29.83,29.83,0,0,0,1.37-8.59c0-1.58,0-3.16-.11-4.73a6.46,6.46,0,0,0-.88-2.34C1160.49,467.53,1158.61,468.14,1158.89,468.71Z"/><path class="cls-4" d="M1068.12,483.35c-16.2,16.58-50.63,36.17-72.38,39.6-21.34,3.36-28.14-4-30.94-7.24-15.38-17.86-25.13-35.74-30.28-56.1-1.4-5.52-1.3-11.42-.67-17.42,1-9,3.45-26.25,3.71-34.89.66-22,11.25-40.58,24.19-58.51,27-37.35,79.77-35.09,101.59-23.48,25.51,13.57,36.14,39.29,36.53,66.14a72.3,72.3,0,0,1-3.65,24.35A77.38,77.38,0,0,0,1086,428.62"/><path class="cls-2" d="M962.81,340s-6.32,13-18.95,39.28c3.18-8.39,5.26-21.11,13-32.67,27.07-40.37,102-31.41,123.76-19,25.47,14.57,33.92,41.83,34.23,70.8.13,11.76.28,19.27-3.64,28.84-.17.12-2.33,2.18-2.33,2.18s-23.81,3.47-32.26,17.44l.23-12.49s-.34-7.71-5.4-36.56c0,0-.32-4.57-7.57-23.09s-15.38-24.07-15.38-24.07-38.16-8-47.31-8.35S962.81,340,962.81,340Z"/><path class="cls-3" d="M961.84,340.12Q956.07,352,950.31,364q-3.7,7.69-7.42,15.41l1.93-.25c1.86-5,3.12-10.13,4.79-15.15a71.07,71.07,0,0,1,8.23-17.5A56.22,56.22,0,0,1,976,329.67c14.85-8.76,32.66-11.77,49.7-12,15.07-.2,30.69,1.54,45,6.45,17,5.83,29.84,19.47,36.43,36a101.35,101.35,0,0,1,6.48,31.12c.38,6.06.46,12.2.24,18.27a51.79,51.79,0,0,1-2.89,16,8.67,8.67,0,0,1-.62,1.69,5.86,5.86,0,0,1-.77.72l-1.47,1.39.9-.37a63.15,63.15,0,0,0-9.09,2.14,55.72,55.72,0,0,0-16.57,7.82,28.29,28.29,0,0,0-7.63,8l1.86-.11c.08-4.23.39-8.52.23-12.75-.13-3.38-.71-6.79-1.17-10.14-1.23-8.86-2.83-17.66-4.25-26.49-.87-5.41-3-10.72-4.86-15.83-3.57-9.73-7.5-19.72-14.4-27.64a17.3,17.3,0,0,0-3.65-3.55,8.7,8.7,0,0,0-2.72-.68q-9.82-2-19.68-3.91c-7.29-1.38-14.62-2.81-22-3.67-2.52-.3-5-.36-7.56-.49-4-.21-8.08-.46-12.12-.71q-10.49-.66-20.95-1.38l-1.27-.08c-.73,0-2.06,1-.76,1.07,12.79.88,25.58,1.77,38.39,2.35,6.36.29,12.74,1.68,19,2.81,7.38,1.34,14.74,2.79,22.1,4.28,1.86.38,3.73.89,5.61,1.16l.38.08c-.41-.07-.3-.23-.15,0a12.55,12.55,0,0,0,1.29,1.11c6.28,5.83,10.39,14,13.53,21.86,2,5.1,4,10.27,5.67,15.5.75,2.33,1.49,4.69,2,7.09.4,1.87.66,3.78,1,5.66.93,5.46,1.84,10.94,2.66,16.42.75,4.93,1.5,9.88,1.92,14.86,0,.29.06.59.07.88,0,0,0,.09,0,.13,0-.3,0,.37,0,.48l-.18,9.39,0,2.49c0,.8,1.6.3,1.86-.11,5.34-8.7,15.79-13.13,25.27-15.63,2.06-.55,4.2-.76,6.21-1.35a5.81,5.81,0,0,0,2-1.63,11.79,11.79,0,0,0,.9-.83,5.73,5.73,0,0,0,.83-1.83,46.26,46.26,0,0,0,2.48-9.74c1-6.87.73-14,.51-20.9a122.39,122.39,0,0,0-2.13-19.65c-2.39-12.2-7.1-24.09-15.05-33.76a58.28,58.28,0,0,0-24-17.56,112.86,112.86,0,0,0-24-5.85,152.74,152.74,0,0,0-30.22-1.37,116,116,0,0,0-30.79,5.62c-9.51,3.23-18.59,8.08-25.91,15a55.2,55.2,0,0,0-10.2,13.2c-3.55,6.4-5.81,13.35-7.89,20.33-.84,2.82-1.66,5.64-2.7,8.4-.24.65,1.67.29,1.93-.25q9-18.7,18-37.39c.31-.63.62-1.26.92-1.89S962.14,339.51,961.84,340.12Z"/><path class="cls-4" d="M1071.6,472.37c10.61,11.95,20.7-5.54,20.7-5.54,11.32-12.48,14.61-26.36,14.62-35.8s-10.37-9.75-10.37-9.75c-8.85.58-7.65,1.67-20.67,26.23"/><path class="cls-8" d="M1085.42,447.76c2.2-5,4.68-10.14,8.14-14.45a14.4,14.4,0,0,1,4.61-4.07l.19-.07h0l.25-.07c-.25.08.21,0-.14,0l-.39-.13a9.63,9.63,0,0,1,1.62,3.25,19,19,0,0,1,.17,9.89c-.12.55,1.36.33,1.47-.18.83-3.82.91-8-.77-11.63-.38-.81-.82-2.15-1.88-2a6.44,6.44,0,0,0-2.72,1.25,21.07,21.07,0,0,0-4.67,4.89,69.71,69.71,0,0,0-7.34,13.5c-.21.46,1.25.3,1.46-.18Z"/><path class="cls-8" d="M1084.06,453c5.15.54-3,12.43,1.34,12.32,1.14,0,1.9-1.13,2.44-2a28.43,28.43,0,0,0,2.54-5.79,22.77,22.77,0,0,0,1.44-7.4c0-3.1-.35-7-3.25-8.84-.49-.3-1.8.39-1.14.8,2.45,1.52,2.88,4.89,2.91,7.51a18.72,18.72,0,0,1-.62,5.53,42.74,42.74,0,0,1-2.36,6.37,14.13,14.13,0,0,1-1.16,2.08,7,7,0,0,0-.5.61.65.65,0,0,1-.2.17c.13-.1.27.08.24-.09a4.94,4.94,0,0,1-.24-1.12,7.77,7.77,0,0,1,.31-1.72c.32-1.28.74-2.53,1.06-3.81.6-2.38.83-5.28-2.29-5.61-.66-.07-1.51.87-.52,1Z"/><path class="cls-2" d="M1017.2,419.29c2.65-1.09,5.52.3,7.06,1.92a6.53,6.53,0,0,1,1.67,3.17,6.64,6.64,0,0,1-2.09,5.88,6.15,6.15,0,0,1-7.16.62c-3-1.72-3.66-5.53-2.65-8.18a6,6,0,0,1,3.17-3.41"/><path class="cls-2" d="M1003.49,428.71s10-12.4,19.5-11.58c13.32,1.16,15.78,9.18,18.32,13.46,0,0-7.82-10.21-18.14-10.85C1013.81,419.16,1003.49,428.71,1003.49,428.71Z"/><path class="cls-2" d="M952.5,413.48c-2.42-1.54-5.49-.66-7.28.67A6.38,6.38,0,0,0,943,417a6.61,6.61,0,0,0,1,6.15A6.15,6.15,0,0,0,951,425c3.23-1.18,4.56-4.82,4-7.6a6.09,6.09,0,0,0-2.54-3.9"/><path class="cls-2" d="M971,425.87s-7.09-13.89-15.86-14.65c-12.33-1.07-15.91,6.43-18.94,10.22,0,0,8.83-8.76,18.34-7.68C963.19,414.74,971,425.87,971,425.87Z"/><path class="cls-2" d="M936.33,397.67c0-.06,0-.12,0-.19a19.9,19.9,0,0,1,5.26-2c9.63-2.35,14.5-2.05,29.2,1.64v.33c0,1.89,0,.83,0,2.73,0,1.44,0,2.88,0,4.32-4.44-1.19-7.62-2.48-10.49-3-5.68-1-12.17-2.88-17.9-1.91a17.8,17.8,0,0,0-6,1.86C936.43,400.2,936.38,398.94,936.33,397.67Z"/><path class="cls-2" d="M1006.07,401.85c-.15,1.88-.06.83-.21,2.72-.12,1.44-.23,2.87-.34,4.31,4.7-.83,8.11-1.87,11.13-2.14,6-.53,12.87-1.89,18.76-.48,2.82.68,6.59,1.22,8.42,3.95.49.74,1.58,3.81,2.75,3.4.48-.17-.08-2.55-.14-2.8-1.16-4.79-5-7.07-9.85-8.59-9.85-3.11-14.94-3.2-30.5-.7"/><path class="cls-9" d="M975.35,459.74a9.55,9.55,0,0,0,8.77.1c.57-.3,2.39.17,1.58.59a13.44,13.44,0,0,1-11.92-.33c-.3-.2-.23-.43.18-.54a2.1,2.1,0,0,1,1.39.18"/><path class="cls-9" d="M986.82,459.8a15.64,15.64,0,0,1,5.48-.94,1.2,1.2,0,0,1,.81.33c.14.15.16.34-.05.44a5.89,5.89,0,0,1-3,.46,1.13,1.13,0,0,1-.89-.43c-.14-.26.17-.4.42-.38a4.54,4.54,0,0,0,2.42-.38l.76.77a14,14,0,0,0-4.9.86,1.12,1.12,0,0,1-1-.18c-.19-.13-.38-.43-.08-.55"/><path class="cls-9" d="M994.18,460.59c2.18.11,4.81-.65,6-2.21,1.8-2.35.59-6.63-2-8.41-.28-.2-.11-.41.2-.45a1.82,1.82,0,0,1,1.14.33,8,8,0,0,1,3,7.43c-.5,2.14-2.68,3.51-5.33,3.94a11.65,11.65,0,0,1-2.44.15c-.32,0-.91-.16-1-.43s.16-.37.47-.35"/><path class="cls-9" d="M971.45,458.33a.28.28,0,0,0-.24-.43,2.58,2.58,0,0,1-1.65-.68l-.62.66a7.69,7.69,0,0,1,3.31,1.47.6.6,0,0,0,.7-.05c.15-.11.32-.37.12-.53"/><path class="cls-9" d="M973.07,458.77a8.34,8.34,0,0,0-3.71-1.63.69.69,0,0,0-.6.22.3.3,0,0,0,0,.44"/><path class="cls-9" d="M966.92,458.29a4.47,4.47,0,0,1-3.58-2.93,6.42,6.42,0,0,1,2.2-6.87.26.26,0,0,0-.07-.47.84.84,0,0,0-.77.18A7.19,7.19,0,0,0,962,454a5.06,5.06,0,0,0,2.95,4.57,5.24,5.24,0,0,0,1.54.45.79.79,0,0,0,.73-.3c.12-.25-.06-.38-.26-.4"/><path class="cls-10" d="M955.91,332.1c4.36-3.11,12.73-7.09,20.48-7.57.32,0,.64,0,.94,0l4.19,1.56.15.05-.16-.06c-.75-.33-2.37-1.15-1.71-2.08a3.41,3.41,0,0,1,1.66-1,33.16,33.16,0,0,1,5.66-1.28v0l.64-.06.64-.1v0a34.13,34.13,0,0,1,5.81-.16,3.45,3.45,0,0,1,1.85.57c.87.73-.5,1.93-1.14,2.43l-.14.1.13-.09,3.68-2.53a8.28,8.28,0,0,1,.92-.2c9.39-1.78,25.16,4.12,26.68,5.12s.8,3,.75,3.16l2.4-2.33s11.9,3,14,4.16,3.42,4.41,3.42,4.41,3.62.83,4.81.27,8.05,2,11.18,5.47c2,2.23,1.68,4.62,2.8,6.67h0c.63,1.15,1,1.92,1,1.92l6.93,1.38c5.66,1.9,5.7,13.06,5.7,13.06,12.1,11.57,14,22.47,10.76,34.87-1.24,4.78,12.33,7.75,4,8.61s-16.18,30.5-16.18,30.5-4.38-11.72-5.32-16.46-.39-19.22-.39-19.22l-4.13-.07s-2.6-.7-6.26-5.74.59-15.39.59-15.39l.86-6-7.86,1.54c-7.83-.36-9.3-8.61-9.3-8.61l-.4-14-4,5.21a5.72,5.72,0,0,1-4.18,2.55c-12,.58-14.32-6.65-14.32-6.65l-2.47-6.76-2.76,2.38c-2.86,3-12.11,8.26-17.34,6.75-1.37-.4-7.39-3.95-8.35-4.42-2.75-1.52-4-4.56-4.48-6.58-2.55,3.12-6,6.46-9.48,7-4.19.71-13.49.09-14.86-1.72-.92-1.22.4-1.54-1.14-1.29a5.15,5.15,0,0,0-3.11,2.43s-2.95,11.87-13.14,17.28-12.56-20.35-3.09-25.15C942.79,346,942.81,332.14,955.91,332.1Z"/><path class="cls-7" d="M1106.6,356.39s11.55,2.68,15.4,8.76c9.92,15.69,5.48,55.35-3.75,63.71l-9.32,2.23Z"/><path class="cls-6" d="M1117.05,424.61s16.27-2.63,19.68,7.24l1.58,4.7s17.86-5.38,24,2.87,8.42,25.14,8.42,25.14"/><path class="cls-11" d="M983.06,475.56c10.61.27,27.84-.5,27.84-.5s-3,24.85-27.56,24.22-28.05-25.64-28.05-25.64S972.46,475.29,983.06,475.56Z"/><path class="cls-12" d="M983,475.55c5,.13,25.4-.17,25.4-.17s-7.83,15-26.07,14.53c-19.78-.51-24.49-15.67-24.49-15.67Z"/><path class="cls-13" d="M982.72,476.28c5,.13,20.42-.3,20.42-.3s-5.67,5.18-20.8,4.8-19.8-5.69-19.8-5.69Z"/><path class="cls-11" d="M954.22,472.12c.54-.11,3.45.9,6,.76,4.18-.24,6.82-1.24,9.85-1.38,5.18-.25,8.41,1.8,10.65,1.85s5.58-1.82,10.73-1.31c3,.31,10.48,1.56,14.65,2,2.5.27,5.46-.59,6-.45.74.19-.84,5.43-29.06,4.71S953.47,472.28,954.22,472.12Z"/><path class="cls-4" d="M283,234.52s6.5,67-5.5,90c-2.91,5.6-45.43,52.71-45.43,52.71l156.06,62.58,66.57-34.59S409,358.89,407.81,351.55s8.62-63.32,8.62-63.32"/><path class="cls-14" d="M280.33,261.2c0,.13,0,.24,0,.37A.52.52,0,0,1,280.33,261.2Z"/><path class="cls-4" d="M363.77,341l42.18,1,21.33-3.47c2.13.17,12.75-20.83,14.37-23.48,5-8.21,11.62-19,15-28,3.59-9.7,10.36-17.89,12.6-29.69,1.64-8.65,2-14.75-1.74-29.24a20.1,20.1,0,0,1,.35-11.1c2.41-8,3.68-17.56,6.66-28.36.23-.85,1.5-4.94,1.21-5.9,0,0,4.79-45.51-2.44-62.34S454.2,95.38,442.39,91.55,395,87.63,395,87.63L346.51,77.55l-42.89,18-24.3,49.22-.64,58.84,3,52.8"/><path class="cls-2" d="M292.86,200.11c-.05,4.55,4.23,27.5,4.47,32l-23.43-1.9c-6.11-16-13.47-34.78-15.9-39.11-3.8-6.76,10.19-38.29,10.66-50.19l.11-2.57c.43-11.41,12.43-28.85,32.11-46.63,33.87-30.62,32.32-31.08,81.26-24.59,3.37.45,6.72,1,10,1.71,30.63,6.45,56.46,7.56,74.59,34.63,13.08,19.52,3.74-4.57,1.76,8.34.71-25.68,4.33-4.25,1.86-7.42-14.45-18.58-23.26-.23-30.79-1.82a25.64,25.64,0,0,0-12.65.42c-7.62,1.23-14.79-.17-22.65-1.83-5.85-1.23-20.59-5.52-21.85-5.88-3.81-3,.58-18.23-6.69-19.76C358.79,71.91,335,78,326.59,81.31c-10,3.93-33.85,12.32-32.2,38.59"/><path class="cls-2" d="M423.06,332.77a1.91,1.91,0,0,1-.78-.35c-4.28-3.25-4.52-4.94-6.68-5.61a12.79,12.79,0,0,0-2.3-.67c-6.25-1.28-10.05-2.18-27.66,7.46-.35.19-22.33-4-22.76-4.1l-11.09-6.14c-1.84-1.3-42.38-40.14-42.38-40.14-.57-1.24-7.77-10.32-8-11.49a3,3,0,0,0-.39-.22l-.27-.13c0,.07-.05.17-.07.22a7.62,7.62,0,0,0-.14,1.5,24.94,24.94,0,0,0,.78,6.43c.79,3.24,1.16,6.52,1.82,9.77.24,1.15.53,2.28.86,3.4,4.69,3.35,33.27,44.48,50.42,54.39,1.13.37,4.69,1.63,14.3,3.06,18.05,2.69,35.58,3.79,53.77-.26a16.09,16.09,0,0,0,10.87-8.34c6.13-12,19.67-38.69,23.76-56.92-5.63,10.36-17.53,32.57-25.72,47.69-.25.46-7.17.39-7.75.53"/><path class="cls-4" d="M286.48,262.64c-20.12,17.27-21.88-14.42-21.88-14.42-12-16.88-10.75-33.81-9.4-45.35s14.08-10.41,14.08-10.41c10.73,2,15.12,8.16,21.42,45.32"/><path class="cls-2" d="M433.34,91.75c-17.58-1.34-63-16.24-86.84-19.15-9.85-1.21-44.12,21.32-48.72,26.64-10.53,12.18,10.35,42.83-8.93,82.53-6.37,13.11-12.81-10.89-20.38-2.5S258,191.06,258,191.06c-2.91-39.26-2.85-37.89,8-75.85S319.68,63,340.13,61s85.07,8.23,102.16,17.44"/><path class="cls-8" d="M282.4,230.34a93.18,93.18,0,0,0-7.59-16.14,29.47,29.47,0,0,0-5.77-7.14,8.47,8.47,0,0,0-3.1-1.82c-1.41-.39-2.12.91-2.76,2-2.73,4.58-2.95,10.22-2.09,15.35.14.87,2,.41,1.82-.49a23.42,23.42,0,0,1,.85-12.2,11.45,11.45,0,0,1,2.15-3.78l-1.08.39c.05,0,.16,0,.19,0-.13-.11-.15-.05,0,0l.35.13a8.53,8.53,0,0,1,2,1.31c3.23,2.64,5.52,6.5,7.47,10.12a105.55,105.55,0,0,1,5.65,12.73c.32.85,2.14.34,1.83-.49Z"/><path class="cls-8" d="M278,231.93c-7.61-.91-3.7,10.06-4.77,14-.05.2-.2.41-.23.6s-.18.12-.16.19.45,0,.46-.06-.42-.49-.45-.54a6,6,0,0,1-.53-1.12,31.26,31.26,0,0,1-1.51-7,28.89,28.89,0,0,1,0-9.28c.6-3.31,1.85-8.37,5.47-9.62,1.09-.37.78-1.65-.34-1.26-3.69,1.27-5.43,4.94-6.41,8.47a24.35,24.35,0,0,0-1,8.18,51.64,51.64,0,0,0,1.25,8.92c.34,1.35.79,3.63,2.14,4.39,1.18.67,2.46-.27,2.91-1.38a10.22,10.22,0,0,0,.28-4.23c-.12-2-1.44-9.31,2.18-8.88.91.11,1.86-1.19.63-1.34Z"/><path class="cls-2" d="M376.94,201.69c-2.57-1.61-5.81-.66-7.7.75a6.84,6.84,0,0,0-2.31,3,7.06,7.06,0,0,0,1.14,6.51,6.55,6.55,0,0,0,7.37,1.91c3.41-1.27,4.8-5.13,4.22-8.08a6.43,6.43,0,0,0-2.72-4.11"/><path class="cls-2" d="M454.46,208.51c2.8-1.18,5.85.28,7.49,2a6.94,6.94,0,0,1,1.79,3.35,7,7,0,0,1-2.18,6.24,6.52,6.52,0,0,1-7.58.7c-3.16-1.8-3.91-5.84-2.86-8.65a6.46,6.46,0,0,1,3.34-3.62"/><path class="cls-2" d="M431.27,216.88s11.7-9.95,19.68-10c11.65-.13,14.41,2.71,18.07,8.35,0,0-7.12-6.15-15.32-5.84C445.86,209.65,431.27,216.88,431.27,216.88Z"/><path class="cls-2" d="M393.93,211s-15.38-11.54-23.31-12.39c-11.59-1.24-26,4.49-30.16,9.75,0,0,19.05-8.6,27.19-7.51C375.42,201.92,393.93,211,393.93,211Z"/><path class="cls-2" d="M401.16,166.13c-.17,2.76-.36,5.53-.54,8.3-.15,2.12-.32,6.94-.47,9-6.54-2.21-12.36-5.25-16.61-6.28-8.43-2-17-4.75-25.73-3.95a28.88,28.88,0,0,0-11.44,3.13c-1.13.6-4.25,3.33-5.82,2.48-.65-.35.66-3.68.79-4,2.67-6.72,8.67-9.2,15.89-10.38,14.73-2.42,29.3-1.13,43.93,1.68"/><path class="cls-2" d="M477.77,180.34l-4.51-2c-12.52-5.74-25.81-7.84-39.52-8.49-.5,2.72-1,5.45-1.51,8.19-.38,2.08-1.2,5.81-1.57,7.89,6.35-.64,11.94-1.75,16-1.77,8-.05,16.43-.2,24,2.58.6.22,3.82,1.47,4.39,1.71C478.2,185.11,478.75,181.14,477.77,180.34Z"/><path class="cls-2" d="M391.24,302.6l29.92.87s-8,11-15.23,10.4C401.38,313.5,395.68,308.11,391.24,302.6Z"/><path class="cls-9" d="M418.64,261.53c-3.55,1.54-8.69.7-11.93-1.75-.72-.54-3.29-.28-2.28.48,4.29,3.23,11.7,4.1,16.27,2.1.45-.2.4-.54-.13-.77a2.86,2.86,0,0,0-1.93-.06"/><path class="cls-9" d="M403,259.15a21,21,0,0,0-7.25-2.49,1.65,1.65,0,0,0-1.16.28c-.23.18-.3.44,0,.62a8,8,0,0,0,4,1.29,1.58,1.58,0,0,0,1.3-.4c.25-.34-.15-.6-.49-.62a6.28,6.28,0,0,1-3.21-1.05l-1.2.9a18.81,18.81,0,0,1,6.47,2.25,1.57,1.57,0,0,0,1.37,0c.28-.15.61-.51.22-.74"/><path class="cls-9" d="M392.87,258.65c-3-.32-6.39-1.93-7.67-4.35-1.94-3.65.56-8.87,4.47-10.78.43-.21.24-.54-.16-.66a2.4,2.4,0,0,0-1.63.2c-3.4,1.68-5.86,5.9-5.64,9.2.21,3.08,2.9,5.44,6.4,6.61a15.67,15.67,0,0,0,3.27.74c.46.05,1.28,0,1.53-.37s-.15-.54-.57-.59"/><path class="cls-9" d="M424.24,260.42a.4.4,0,0,1,.42-.55,3.46,3.46,0,0,0,2.38-.59l.71,1.05a10.36,10.36,0,0,0-4.82,1.34.83.83,0,0,1-.94-.23c-.18-.18-.36-.59-.05-.76"/><path class="cls-9" d="M421.94,260.68a11.46,11.46,0,0,1,5.39-1.47,1,1,0,0,1,.77.44.44.44,0,0,1-.07.62"/><path class="cls-9" d="M430.41,261.33a6.1,6.1,0,0,0,5.48-3.28,9.18,9.18,0,0,0-1.53-10,.36.36,0,0,1,.19-.63,1.13,1.13,0,0,1,1,.42,10.2,10.2,0,0,1,2.5,8.59,7,7,0,0,1-5,5.69,6.82,6.82,0,0,1-2.19.3c-.29,0-.81-.2-.93-.57s.17-.52.45-.51"/><path class="cls-2" d="M442.26,99.64c-1.21-1.15-3.18-1.64-5-2.07l-2-.77q-8.89-.64-17.81-.77a12.61,12.61,0,0,0-4.37.46c-.15.05-.28.11-.42.17-4.38-.43-8.77-.81-13.17-1.08l-2,.42c-1.89.14-3.9.32-5.25,1.16s-1.48,2.59.21,3.24,4.49-.11,5.67,1-1.42,2.72-.69,4.1c.46.87,2,1.24,3,1.9,1.19.78,1.52,2,2.63,2.81a6.21,6.21,0,0,0,4.62.9c1.65.23,3.93-.31,4.38.87a2,2,0,0,1,0,1,3.31,3.31,0,0,0,2.34,3.19,5.43,5.43,0,0,0,4.72-.36c1.22-.81,1.72-2.11,3-2.84a8.69,8.69,0,0,1,1.35-.57,4.29,4.29,0,0,0,1.49,1,5.49,5.49,0,0,0,4.73-.37c1.21-.8,1.71-2.11,3-2.84,1.09-.61,2.69-.81,3.27-1.74.92-1.47-1.56-3.57-.1-4.77s3.91.21,5.75-.32S443.47,100.79,442.26,99.64Z"/><path class="cls-2" d="M384.78,334a8.91,8.91,0,0,0,4.1,1.61l1.6.59q7.22.42,14.43.39a10.26,10.26,0,0,0,3.53-.42,2.07,2.07,0,0,0,.34-.15c3.55.3,7.11.55,10.67.7l1.65-.36a9.77,9.77,0,0,0,4.23-1,1.4,1.4,0,0,0-.21-2.62c-1.43-.52-3.63.15-4.6-.72s1.12-2.21.51-3.32c-.39-.7-1.66-1-2.48-1.5-1-.62-1.26-1.58-2.17-2.24a4.94,4.94,0,0,0-3.75-.67c-1.34-.17-3.17.3-3.56-.65a1.59,1.59,0,0,1,0-.78,2.7,2.7,0,0,0-1.94-2.56,4.42,4.42,0,0,0-3.82.36c-1,.66-1.36,1.73-2.39,2.33a7.21,7.21,0,0,1-1.09.49,3.35,3.35,0,0,0-1.22-.79,4.35,4.35,0,0,0-3.82.36c-1,.66-1.36,1.72-2.4,2.33-.87.51-2.16.69-2.62,1.45-.72,1.21,1.31,2.88.14,3.86s-3.16-.11-4.65.34A1.69,1.69,0,0,0,384.78,334Z"/><path class="cls-15" d="M260.15,193.6a11.22,11.22,0,0,1-5.18-1.36c-1.51-1-2.49-3-1.67-4.65,1.28-2.55,6.08-2.78,5.92-5.64-2.22-2.88-7.86-2-9-5.5-1-2.78,2.1-5.18,4.7-6.56-1.69-1.77-1.24-.22-3.58-.93s-3.42-6.52-2-8.5c1.63-2.25,2.38-.34,1.61-3-1.86-.67,2.37-2.09,1-3.52s-2-3.79-.87-5.42c1.35-2,1.19-3.48,1.26-5.87.05-2,4.05-2.21,2.92-3.9-2.08-3.08,1.08-6.94,4-9.28-1.57-1.16.42-1.41-.53-3.12s-1-4.06.33-5.45c.84-.86,2-1.21,3-1.91,4-2.89,1.95-9.12-.45-13.42a7.05,7.05,0,0,0,7.62-5.43c.31-1.59.06-3.3.71-4.79s2.9-2.41,3.86-1.11"/><path class="cls-2" d="M261,192.14c-1.84-.18-4-.34-5.17-2a2.16,2.16,0,0,1,.54-3.29c1.07-.71,2.36-1.21,3.39-2.05s2.18-2.24,1.62-3.58-2.37-2-3.52-2.43-2.64-.74-3.85-1.34a2.6,2.6,0,0,1-1.61-3.12c.48-1.51,2.15-2.57,3.47-3.28.58-.31,1.88-1.27,1.09-2.07a4,4,0,0,0-2.39-1.4,4,4,0,0,0-1.25.07,4.59,4.59,0,0,0-.51.1c-.24.05.34,0,.25,0-.45-.26-.72-.26-1.12-.9a7,7,0,0,1-.85-2.48c-.22-1.17-.41-3,.61-3.93-.24.2.17-.06.31-.12a3.26,3.26,0,0,0,1-.75,2.34,2.34,0,0,0,.18-2.45,1.37,1.37,0,0,0-.38-.66l-.15-.14c-.53-.24-.56-.24-.11,0,0,0,.12.9-.07.82l.23-.25a7,7,0,0,0,1.44-1.64c.94-1.77-1.2-3-1.43-4.67-.15-1.18.53-1.86,1-2.86a8.08,8.08,0,0,0,.75-3c.05-.76-.23-2,.18-2.67-.14.22.31-.18.4-.24.32-.2.65-.37,1-.58a3.28,3.28,0,0,0,1.64-2c.14-1-.73-1.69-.85-2.64-.28-2.45,2.09-4.8,3.8-6.23.72-.6,1.16-1.35.3-2-.25-.21-.1.1,0-.24a3.63,3.63,0,0,0,.25-1.46c-.15-1.15-1-2-.95-3.29a2.65,2.65,0,0,1,1.74-2.54,9.29,9.29,0,0,0,3.29-2.67c2.89-4,.47-9.64-1.62-13.44L260.75,107a10.28,10.28,0,0,0,9.42-4.24,9.24,9.24,0,0,0,1.43-4.89c0-.4,0-.81.1-1.21a11.43,11.43,0,0,0,.4-1.42c0-.06.16-.14.13-.21.1.2-.81-.23-.51.1,1.19,1.36,5.4-.33,4-1.85s-3.68-1.35-5.41-.54a5.41,5.41,0,0,0-3.1,4.34c-.26,1.84,0,3.67-1.2,5.25a4,4,0,0,1-3.71,1.75c-1.21-.13-3.68.85-2.83,2.39a19.58,19.58,0,0,1,2.47,7.06,6.46,6.46,0,0,1-.36,3.17,4.44,4.44,0,0,1-2.3,2.11c-2.6,1.43-4.21,3.76-3.4,6.81.22.85.87,1.59.63,2.37a2.06,2.06,0,0,0,.9,2.64l.29-2.06c-2.62,2.19-6.49,5.94-5.2,9.79.11.32.5,1.72.76,1,.16-.13.14-.13-.06,0l-.36.23c-.26.16-.53.3-.78.47a4,4,0,0,0-2,3.74,13.16,13.16,0,0,1-.22,2.58,13.18,13.18,0,0,1-1.21,2.51,5.44,5.44,0,0,0,.7,5.23c.18.27.56.55.68.85-.06-.15,0-.21-.13,0,.1-.15-.33.3-.39.36s-.37.34-.54.53c-1.11,1.23-.81,2.3.67,2.93l-.9-.78a8.32,8.32,0,0,0,.25.95c.1.24,0,.08,0,.19l.41-.75c.07-.1,1-.51.48-.38a2,2,0,0,0-.3.14,5.54,5.54,0,0,0-1.35.94,5,5,0,0,0-1.48,2.27,9,9,0,0,0,.09,4.93,5.82,5.82,0,0,0,2.48,3.7,5.71,5.71,0,0,0,3.07.57,11.74,11.74,0,0,1,1.19-.2s-1.29.05-1.27-.08.65.58.56.49l1.1-2.07c-3.12,1.68-8.44,5.63-5.24,9.64,2.14,2.68,6.37,1.93,8.48,4.49l-.19-.71c0,1.27-1.09,1.54-2.1,2.09-1.5.83-3.14,1.8-3.82,3.47a4.65,4.65,0,0,0,1.48,5.15c1.85,1.64,4.43,2,6.79,2.19a3.08,3.08,0,0,0,2.89-1.3c.47-1-.41-1.54-1.29-1.63Z"/><path class="cls-16" d="M272,102c.58-2.14,3-12.36,3.63-14.5a4.87,4.87,0,0,0,6.51-3.79c.15-1.46-.24-3.3,1-4.1s2.86.39,4.36.38c3.33,0,4-5.39,7.21-6.41,2-.63,4.19.72,6.2.17,3.05-.83,3.74-5.31,6.69-6.44,2.05-.77,4.37.38,6.5-.1,4.62-1,6.49-7.7,11.23-7.54,1.73.06,3.28,1.3,5,1.23,3.11-.14-1.35-3.57,1.74-3.87,2.83-.27,4.94,2.81,7.76,3.25,4.58.71,8-6.86,12.22-4.91,1.81.83,2.72,3,4.49,3.89,4.15,2.13,8.81-3.76,13.29-2.48,2.25.64,3.77,3,6.08,3.38,3.58.63,6.55-3.71,10.16-3.27,2.87.35,4.86,3.63,7.76,3.6,2,0-2.85-2.49-.83-2.69,3.44-.34,5.82,3.55,9.17,4.42,2.8.73,5.64-.79,8.49-1.37s8.77,5.21,8.74,8.11"/><path class="cls-2" d="M274.15,101.7c1.3-4.81,2.34-9.69,3.64-14.5l-4,1.28c2.86,1.13,6.66,0,8.84-2a5.11,5.11,0,0,0,1.67-3.37c.05-.66,0-1.33.06-2a6.18,6.18,0,0,0,.19-.89c0-.38.93-.5-.62,0-1.09.34-.74.22-.21.37,3,.83,6.11.45,8.27-1.94a29,29,0,0,0,2-2.8,8.46,8.46,0,0,1,1.05-1.26c.05,0,.15-.11.2-.17.21-.24.13,0,.09-.09a3.43,3.43,0,0,1-.45.16l.68.08a13.29,13.29,0,0,0,5.33.13,8.1,8.1,0,0,0,3.95-2.23,29,29,0,0,0,2.18-3c.32-.44.7-.81,1-1.23.13-.17.44-.25.1-.18a4.44,4.44,0,0,1,1,.11c3.37.37,6.56,0,9.31-2.12,1.87-1.48,3.19-3.56,5.09-5,.18-.14.77-.4.59-.39s.08,0,.11.06c.52.15,1,.29,1.54.48a8.46,8.46,0,0,0,4.89.56c1-.22,2.67-.71,2.93-1.89.16-.69-.28-1.35-.45-2,0-.14,0-.32-.09-.46s0-.08,0-.08l0-.06c.27-.69-.35-.44-1.84.76.6.28,1.26.35,1.87.7a30.94,30.94,0,0,0,3.61,2.11c2.59,1.08,5.62.31,7.94-1.08a27,27,0,0,0,3.07-2.23c.43-.33.85-.67,1.3-1,.23-.16.91-.51.93-.56.19-.33-.5.29-.51.09a1.59,1.59,0,0,1,.39.09,4.8,4.8,0,0,1,1.73,1.26c1.06,1.08,1.94,2.29,3.39,2.9,2.64,1.11,5.79,0,8.25-1.06a27.06,27.06,0,0,1,3.54-1.54,3.64,3.64,0,0,1,3,.88A15.48,15.48,0,0,0,373.42,61a8.19,8.19,0,0,0,4.68,0,17.28,17.28,0,0,0,4.16-1.87c.78-.45,1.67-1.23,2.61-1.08,1.3.21,2.47,1.35,3.52,2.06a7.92,7.92,0,0,0,3.69,1.49c1.27.12,3.38-.1,4.21-1.22.5-.67-.1-1.17-.58-1.63-.25-.23-.51-.45-.75-.69s-.27-.31-.26-.33l-.47.52c-2.42,2.14-2.4.37-1.51.72.29.11.59.18.87.3a10.65,10.65,0,0,1,1.8,1.09,30.43,30.43,0,0,0,3.31,2.23c3.22,1.68,6.73.74,10-.23.43-.12.86-.23,1.28-.36,1-.27.16,0,0,0a8,8,0,0,1,1.1.39,11.87,11.87,0,0,1,2.72,2c1.45,1.33,3.31,3.26,3.37,5.36,0,1,4.45.25,4.41-1.18-.07-2.47-2.56-4.91-4.33-6.36a10.33,10.33,0,0,0-3.58-2,9.48,9.48,0,0,0-5.18.5c-1.92.57-3.69,1.3-5.62.4a37.19,37.19,0,0,1-4.16-2.78,7.88,7.88,0,0,0-4.82-1.34c-.9.06-3.91.57-3.6,2,.13.64,1.12,1.35,1.59,1.74.08.07.16.2.19.22.72.54,3.76-.8,2.66-1.3a2.2,2.2,0,0,0-.37-.07,7.58,7.58,0,0,1-2.24-1.24A11,11,0,0,0,387.75,56a10,10,0,0,0-5.57.91,23.66,23.66,0,0,0-2.4,1.24,7.93,7.93,0,0,1-2,1.07c-1.22.28-2.72-1.25-3.63-1.91-3.13-2.27-6.61-1.87-10-.43a27,27,0,0,1-4.22,1.83c-1.22.27-2.38-.84-3.21-1.74-1.14-1.24-2.24-2.47-4-2.78a8.42,8.42,0,0,0-4.66.69c-2.41,1-4.59,3.08-6.63,4.47-.4.27-.15,0,0,0a5,5,0,0,1-.67-.15,10.08,10.08,0,0,1-2.38-1.27,9.53,9.53,0,0,0-4.5-1.87c-1.52-.11-4.09.22-5,1.66-.5.79-.05,1.56.19,2.35a4.58,4.58,0,0,0,.14.53c-.4-.86,0,.22,0,.14l0,0a3.3,3.3,0,0,1,1.94-.8,8.9,8.9,0,0,0-1.26-.33c-.57-.2-1.13-.44-1.71-.6a9,9,0,0,0-5.61.37c-2.92,1.11-4.67,3.57-6.82,5.67a7.42,7.42,0,0,1-1.45,1.18c-.43.24-.66.15-1.37.08a12.75,12.75,0,0,0-6.51.53A8.62,8.62,0,0,0,302.74,70c-.4.57-.77,1.16-1.19,1.72a9.11,9.11,0,0,1-.64.78c-.1.11-.75.6-.42.47.57-.21-.31-.16-.54-.2l-1.38-.24a9.53,9.53,0,0,0-3.45.06,8,8,0,0,0-4.46,2.52c-1,1.08-1.6,2.38-2.52,3.47-.06.07-.57.58-.56.59s.87-.06.93-.2c0,0-2.51-.61-2.77-.63-1.84-.18-4.52.49-5.42,2.28-.72,1.44-.06,3.16-.7,4.64a4,4,0,0,1-1.32,1.55c-.29.23,0,0,0,0a4.39,4.39,0,0,1-.93-.24c-.92-.37-3.66.12-4,1.28-1.3,4.81-2.33,9.7-3.63,14.51-.32,1.2,4,.58,4.37-.69Z"/><path class="cls-17" d="M319.56,77c-17.09,5.86-24.23,11.51-33.2,27.2L384,74.71a85.92,85.92,0,0,0-20.73-3C345.21,71.65,336.66,71.16,319.56,77Z"/><path class="cls-2" d="M318.69,76.09a74.88,74.88,0,0,0-16.63,7.6A46.7,46.7,0,0,0,290.22,95a88.63,88.63,0,0,0-5.91,9.19c-.82,1.41,1.59,1.42,2.36,1.18l9.76-2.94,23.31-7.05,28.17-8.51,24.36-7.36c4-1.2,7.93-2.35,11.87-3.59l.17,0c1-.3,3.06-1.84,1.05-2.35a105,105,0,0,0-14.92-2.73c-4.72-.48-9.49-.36-14.23-.37-7.6,0-15.2.18-22.68,1.62a108.63,108.63,0,0,0-14.27,3.88c-.66.23-2.13.76-1.9,1.72s1.92.74,2.51.54a90.37,90.37,0,0,1,22.44-4.89c3.59-.27,7.19-.31,10.79-.32,4.5,0,9-.13,13.52.19a92,92,0,0,1,16.05,2.8l1-2.35-9.76,3-23.31,7-28.18,8.52L298.1,99.45,290,101.89a35.54,35.54,0,0,0-3.81,1.14.85.85,0,0,1-.17.06l2.36,1.19a67.13,67.13,0,0,1,10.05-14,42.1,42.1,0,0,1,12.09-8.37A97.51,97.51,0,0,1,320.44,78c.65-.22,1.75-1,1.17-1.8S319.39,75.84,318.69,76.09Z"/><path class="cls-17" d="M457.6,84c-.46-.23-.92-.46-1.34-.72C454,82,452.41,78.46,454.55,77c-4.72,1.7-7.73-6.48-12.75-6.61-1.43,0-2.8.63-4.23.81a6.59,6.59,0,0,1-7.06-6.81,15.94,15.94,0,0,1-12.1.84L384,74.71c14.78,3.74,29.72,9.93,44,12.31,6.86,1.15,13.83,2.53,19.87,6,4.39,2.52,10.06,4,14.57,6.71C460.84,94.46,459.27,89.22,457.6,84Z"/><path class="cls-2" d="M459.35,82.93a6.61,6.61,0,0,1-3.07-2.6c-.48-.89-.89-2.24,0-3a.82.82,0,0,0,.13-1.34,2.64,2.64,0,0,0-2.2-.15c-.37.12-.09.14-.44,0a4.48,4.48,0,0,1-1.1-.48,12.6,12.6,0,0,1-2.17-1.75c-1.57-1.46-3.12-3.14-5.13-4a8,8,0,0,0-3.74-.57c-1.42.12-3,1-4.38.79-2.64-.34-4.71-3.27-4.57-5.83.07-1.43-2.32-1-3.08-.64a13.35,13.35,0,0,1-9.47.67,5.33,5.33,0,0,0-2.89.19l-7.1,2L389,72.15l-5.24,1.44c-1,.28-3,1.82-1,2.33,10.82,2.75,21.3,6.65,32.06,9.61,5.17,1.42,10.38,2.37,15.64,3.36a51.34,51.34,0,0,1,15,4.76c5,2.66,10.47,4.29,15.35,7.13.88.51,4.41-.16,3.95-1.67-1.58-5.24-3.15-10.48-4.82-15.7-.49-1.55-4.89-.32-4.41,1.18,1.67,5.22,3.24,10.46,4.83,15.71l3.95-1.67c-4.41-2.56-9.38-3.91-13.86-6.31A55.72,55.72,0,0,0,435.46,87c-5.2-1.1-10.45-1.85-15.6-3.18-5.44-1.41-10.8-3.11-16.15-4.81-6.08-1.94-12.17-3.88-18.35-5.46l-1.05,2.33L414.5,67.5l4.21-1.16-1.64.09a19.53,19.53,0,0,0,14.32-1.12l-3.08-.64a7.4,7.4,0,0,0,4.79,7.26,9.13,9.13,0,0,0,5.2.32c1.36-.29,2.51-.87,3.84-.27,2.18,1,3.7,3.06,5.53,4.54a7.35,7.35,0,0,0,7.18,1.6l-2.07-1.49a3.69,3.69,0,0,0-1,4.59,8.12,8.12,0,0,0,4.12,3.86,3.54,3.54,0,0,0,3.12-.41C459.57,84.28,460.29,83.41,459.35,82.93Z"/><path class="cls-15" d="M451.17,305a46.62,46.62,0,0,1-5.77,12.41c1.62.59.84,3.12-.49,4.22s-3.16,2.3-2.85,4c.11.59.48,1.11.57,1.7.3,1.87-2,2.93-3.87,3.35,1.21,1,.08,3-1.19,3.9s-2.9,2.11-2.54,3.64c.18.75.85,1.38.8,2.16-.1,1.61-2.75,1.51-3.68,2.83-.53.77-.35,1.81-.61,2.71a3,3,0,0,1-4.63,1.39c-.49,3.25-2.06,7.43-5.34,7.14-2-.18-3.9-2.21-5.79-1.45-1.17.47-1.73,1.84-2.82,2.48-3.67,2.17-7.83-5.49-11.49-3.32-2,1.17-2,4.54-4.21,5.19s-3.81-1.83-5.94-2.14c-2.33-.34-4.79,1.92-6.84.76-.88-.51-1.35-1.51-2.09-2.21-1.71-1.58-3.59.65-5.83,1.26-4,1.09-4.28-1.77-4.28-1.77-1.07-2.83-2.63-2.68-5.32-1.3-.89.46-1.72,1.19-2.73,1.2-2.46,0-3.46-4.06-5.92-3.92a8,8,0,0,0-2.48,1c-3,1.26-6.56-2.85-4.86-5.65a6.88,6.88,0,0,1-6.33-7.62,6.22,6.22,0,0,1-7.58-5.69c-4.13,1-8.27-4-6.54-7.9a4.91,4.91,0,0,1-6.15-4.74c.11-1.57.85-3.52-.42-4.44-.84-.61-2-.26-3-.31a3.94,3.94,0,0,1-3.12-5.5c-4.08.86-7.63-4.93-5-8.18-3.22.59-5.93-3.94-3.9-6.49-4.37-.3-7.13-6.26-4.53-9.78l48.7,53.78,12.83,6.42s46.07,5.87,54.94,2.25S451.17,305,451.17,305Z"/><path class="cls-2" d="M449,305.39a47.66,47.66,0,0,1-5.77,12.4.29.29,0,0,0,.1.39c1.18.54.81,2,.24,2.86-.75,1.18-2.16,1.8-3,2.92a3.17,3.17,0,0,0-.71,1.61,5.46,5.46,0,0,0,.5,2c.38,1.36-.58,2.09-1.77,2.38-.31.07-2.56.8-1.89,1.48,1.65,1.67-1.7,3.6-2.63,4.51a3.41,3.41,0,0,0-1.27,2.38c0,.87,1.13,1.94.8,2.77-.22.55-.95.63-1.45.86A5,5,0,0,0,430,343.6c-.55.88-.32,1.91-.66,2.85a4,4,0,0,1-.49.81l1-.26a1.11,1.11,0,0,1-.3-.08,6.62,6.62,0,0,0-.59-.37c-.72-.55-4.09.12-4.25,1.14a13.29,13.29,0,0,1-1.62,4.91,11.33,11.33,0,0,1-.74.94c.09-.11-.32.32-.34.29-.14-.2,1.25.07,1-.3a8,8,0,0,0-1.33-.45c-.43-.19-.85-.41-1.28-.6a7.23,7.23,0,0,0-6.4.47,8.64,8.64,0,0,0-2,1.78,5.83,5.83,0,0,0-.48.5c0,.31,1.39-.47,1.4-.28a4.71,4.71,0,0,1-.81-.18c-2.55-.94-4.32-3.43-7.11-3.85a7.9,7.9,0,0,0-5.44,1.31c-1.33.92-1.85,2.39-2.61,3.74-.14.26-.38.5-.5.77s-1.1.5.57,0,.82-.1.4-.37c-.78-.49-1.66-1-2.48-1.39a7.71,7.71,0,0,0-5.82-.3c-.54.14-1.06.33-1.59.49-.14.05-.28.08-.42.14-.41.17-.33-.11,0,0a4.83,4.83,0,0,1-2-1.6c-1.35-1.67-3.1-1.71-5.09-1.14a14.1,14.1,0,0,0-2.85,1.23c-.58.31-.79.59-1.32.44a1.94,1.94,0,0,1-1.37-1.51,3.66,3.66,0,0,0-2.16-2.56c-1.74-.56-3.86.15-5.46.84-.52.22-1,.47-1.54.74-.25.14-.51.27-.74.43l-.33.2c1.3,0,1.69-.11,1.15-.24-.22-.21-.63-.34-.89-.55a9.63,9.63,0,0,1-.84-.85c-1.11-1.24-2.06-2.42-3.84-2.5a8.64,8.64,0,0,0-4.1,1,5.2,5.2,0,0,0-.69.38c-.55.42,1.11.16.62-.15-.34-.23-.78-.3-1.13-.55a3.75,3.75,0,0,1-1.41-4.75c.24-.44-.53-.54-.75-.55-3.37-.19-6-3.81-5.58-7.07.12-.95-2-.45-2.37-.34.38-.1-.39-.05-.59-.08a5.32,5.32,0,0,1-.94-.28,6.51,6.51,0,0,1-1.82-1.19,5.65,5.65,0,0,1-1.84-4c0-.53-1.59-.3-1.8-.26-1.34.27-3.2-1.16-4-2.39a5.33,5.33,0,0,1-.72-5c.37-.9-2.17-.39-2.37-.34.35-.1-.26-.06-.52-.13a4.3,4.3,0,0,1-1.31-.68,4.56,4.56,0,0,1-1.7-2.22c-.61-1.79.76-3.92-.21-5.57-1.12-1.92-3.55-.52-5.11-1.42a3.68,3.68,0,0,1-1.49-4.63c.36-.76-1.61-.51-1.78-.48-1.4.25-3-1.74-3.49-2.78a4.58,4.58,0,0,1,.24-4.92c.51-.68-1.74-.47-1.77-.47.43-.06-.3-.17-.46-.25a4.22,4.22,0,0,1-1.92-2.06,3.55,3.55,0,0,1,.26-3.71c.3-.42-.59-.54-.76-.55-4.1-.4-5.92-6.13-3.77-9.23l-4.26,1.14,7.12,7.85,15.81,17.47,16.47,18.18,6,6.62c1,1.13,2,2.36,3.1,3.42a2,2,0,0,0,.6.43c1.4.75,2.85,1.43,4.28,2.14l5.5,2.76a23.44,23.44,0,0,0,2.8,1.38,23.12,23.12,0,0,0,4.63.61q5.32.61,10.66,1.14c9.15.91,18.34,1.7,27.54,1.79a64.7,64.7,0,0,0,11.13-.6,15.39,15.39,0,0,0,8-3.79,58.91,58.91,0,0,0,7.55-8.68c2.82-3.72,5.45-7.57,8-11.48q5.88-9,11.26-18.33l.58-1c.41-.72-1.56-.51-1.77-.47-.81.14-2.13.44-2.58,1.23-2.54,4.47-5.21,8.87-7.94,13.23-4.72,7.56-9.59,15.19-15.41,21.95a40.74,40.74,0,0,1-3.51,3.69c-.55.49-.95.83-1.41,1.17l-.69.44c.4-.24-.69.28,0,0-.08,0-.3.06-.35.13-.19.23.12,0,.13,0-.24,0-1,.23-.35.1l-.86.16-.54.08c-.48.07.18,0-.19,0-1.65.19-3.3.27-5,.32a234.22,234.22,0,0,1-26.55-1.36q-9.3-.85-18.55-2a1.65,1.65,0,0,0-.49-.06c.35-.07.87.33.23,0-1.35-.76-2.79-1.39-4.17-2.08L358,338.42a17.12,17.12,0,0,1-2.84-1.42,15.06,15.06,0,0,1-1.82-2l-4.94-5.45-15.42-17-16.4-18.11-9.67-10.68-.46-.51c-.4-.44-1.82-.07-2.26.05a3.39,3.39,0,0,0-2,1.09,6.49,6.49,0,0,0-.25,6.58,6.77,6.77,0,0,0,5.54,3.75l-.76-.55a4.33,4.33,0,0,0,.27,5.11c1.34,1.81,3.29,2.16,5.41,1.86l-1.78-.47a5.32,5.32,0,0,0,.3,6.31,6.24,6.24,0,0,0,6.5,2.34l-1.78-.48a4.29,4.29,0,0,0,1.45,5.24,4.93,4.93,0,0,0,3.06.81c.67,0,1.48-.23,2,.36a2.35,2.35,0,0,1,.35,1.6,15.72,15.72,0,0,0-.25,3.42,5,5,0,0,0,1.5,2.66c1.86,1.84,4.61,1.94,7,1.25l-2.37-.34a6,6,0,0,0,1.39,6.39,7.19,7.19,0,0,0,6.93,2l-1.81-.26a6.41,6.41,0,0,0,3.16,5.14,8.73,8.73,0,0,0,6.83.68l-2.37-.34a7.35,7.35,0,0,0,7.08,8.16l-.75-.54a4,4,0,0,0,.59,4.53,5.2,5.2,0,0,0,4.66,1.87,9.41,9.41,0,0,0,3.41-1,5.2,5.2,0,0,0,.69-.38c1.05-.79-.95.43-1,.11,0,.07.74.41.86.51,1.19,1,1.9,2.46,3.35,3.1,2.21,1,4.73-.27,6.65-1.34.32-.19.68-.32,1-.52.63-.4-.33.14-.36,0,0,.06.59.39.67.48a4,4,0,0,1,.78,1.42,3.24,3.24,0,0,0,.88,1.58c1.33,1.15,3.54.83,5.1.48a14,14,0,0,0,3.39-1.23,9.94,9.94,0,0,0,1.21-.64c.95-.65-.92.37-.86.13a5.15,5.15,0,0,1,.75.61c.63.65,1.05,1.49,1.86,2a4.9,4.9,0,0,0,3,.45,15.88,15.88,0,0,0,3.52-.86,2.12,2.12,0,0,1,2,.28c1.9,1,3.34,2.07,5.62,1.67a6.33,6.33,0,0,0,4.75-3.07c.39-.7.69-1.47,1.13-2.15.11-.16.55-.64.57-.7-.25,1.09-1.92,0-.89.46,2.61,1.13,4.78,3.74,7.74,4a7.8,7.8,0,0,0,6.26-2.49c.15-.18.3-.36.46-.53,1-1.1-1,.33-1,0,0,0,1.5.58,1.64.65a8.29,8.29,0,0,0,3.26.95,8.11,8.11,0,0,0,6.32-2.58,12,12,0,0,0,2.31-5.88l-4.25,1.14c2.14,1.65,6.16.62,8-1.12,1-1,.89-2,1.2-3.33s1.41-1.25,2.37-1.79,1.8-1.23,1.63-2.37c-.1-.66-.63-1.18-.77-1.83a2,2,0,0,1,.68-1.86c1.32-1.38,5.17-3.57,2.91-5.85L439,331.41c1.81-.44,4-1.15,5.22-2.61a2.58,2.58,0,0,0,.67-2.05c-.15-1-.88-1.69-.44-2.75.67-1.64,2.72-2.29,3.59-3.84.64-1.14.89-2.86-.52-3.51l.1.39a47.55,47.55,0,0,0,5.77-12.41C453.62,303.7,449.34,304.24,449,305.39Z"/><path class="cls-18" d="M293.61,202.89c4.72-4.36-.7-13.16,3-18.4.86-1.22,2.15-2.11,2.88-3.41,2.05-3.66-1.2-8.51.52-12.32.77-1.72,2.44-2.93,3.07-4.7,1.19-3.38-1.9-6.95-1.41-10.5.55-4,5.46-7.23,4.05-11-.69-1.85-2.75-2.94-3.33-4.82-1-3.27,2.76-7.4.37-9.86-.82-.86-2.18-1.12-2.85-2.1-1.35-2,1.1-4.25,2.1-6.43s.43-4.89.8-7.33,2.75-5.07,5-4c-1.2-3.92,1.52-14.38,5.57-13.79,2,.29,4.55,1.35,5.67-.34.79-1.2,0-2.92.68-4.19,1.7-3.25,7.2,1.86,10.19-.27.81-.58,1.2-1.57,1.89-2.29,1.57-1.61,4.22-1.39,6.36-.69s4.31,1.75,6.54,1.42,4.21-3,2.9-4.83c2.25,1.4,4.61,2.84,7.25,3.11s5.65-1,6.45-3.54c.57,3.75,6.23,5.39,8.72,2.53,1-1.14,1.7-2.88,3.2-3a3.39,3.39,0,0,1,1.9.6c2.6,1.53,5.9,9.77,7.25,12.46l-.64-16.48-45.7-8L297.51,92.13l-15.69,47.32L295.42,206"/><path class="cls-2" d="M295.6,202.69c5-4.84-.16-12.27,2.72-17.83.84-1.62,2.48-2.61,3.36-4.19a8,8,0,0,0,.63-4.86,31.73,31.73,0,0,1-.59-5.32c.09-2,1.24-3.36,2.42-4.91a6.2,6.2,0,0,0,1.34-5c-.3-1.87-1.16-3.6-1.5-5.46-.67-3.69,2-6.08,3.51-9.15a5.06,5.06,0,0,0,.38-4.21c-.68-1.63-2.33-2.59-3.07-4.18-1.41-3,1.62-6,.9-9-.45-2-2.54-2-3.56-3.42-1.25-1.71.71-3.88,1.55-5.31,1.19-2,1.17-4.11,1.21-6.38a8.35,8.35,0,0,1,.48-3.22,5.63,5.63,0,0,1,.85-1.39c.11-.13.28-.26.38-.4.47-.33.31-.34-.49,0-.86.07-1,.17-.4.32s4.58-.29,4.29-1.32c-.94-3.28.12-7.47,1.61-10.43a8.41,8.41,0,0,1,1.23-1.89c.15-.17.36-.3.5-.47.6-.71-.22,1-1.8.4a5.45,5.45,0,0,0,1,.18c2.56.53,5.19.7,7.55-.71A3,3,0,0,0,321.62,92c.05-.6-.05-1.22,0-1.83a2.46,2.46,0,0,1,.24-.84c.33-.61.84-.62-.64-.17s-.94.27-.23.43a12.35,12.35,0,0,1,1.23.33,26,26,0,0,0,2.84.78,9.28,9.28,0,0,0,6.49-1.22,5.4,5.4,0,0,0,1.27-1.21A13.74,13.74,0,0,0,334,86.73l.13-.09c.35-.24.13-.19-.67.15,0,0,.79,0,.89,0a11.1,11.1,0,0,1,2.12.51,23.74,23.74,0,0,0,4.82,1.39,10.74,10.74,0,0,0,5.25-.78c2-.83,4.71-3.08,3.22-5.48l-4.29,1.32c3,1.89,6.18,3.57,9.88,3.19,3-.32,6.95-1.62,8.08-4.76l-4.37,1c.51,2.74,3.28,4.17,5.87,4.23a11.36,11.36,0,0,0,5.45-1.31,10,10,0,0,0,3-3,3.89,3.89,0,0,1,.46-.53c-1.58.13-2,.34-1.35.6.23.2.58.3.83.49a5.73,5.73,0,0,1,1.08,1.12,25.39,25.39,0,0,1,2.3,3.76C378,91,379,93.43,380.17,95.82c.43.86,4.45-.23,4.41-1.18l-.65-16.48a.43.43,0,0,0-.38-.23l-18.81-3.28-25.17-4.39c-.56-.1-1.14-.24-1.71-.3a7.26,7.26,0,0,0-4.25,1.22l-8.31,4.61L300.56,89.5l-3.57,2c-.46.26-1.35.59-1.65,1.06a7,7,0,0,0-.5,1.5l-1.29,3.88-8.82,26.63-3.83,11.54-1,3.08a3,3,0,0,0-.24,1,8.32,8.32,0,0,0,.33,1.62l.71,3.5,2.26,11.08,6,29.21,4.09,20,.21,1c.17.81,4.61-.22,4.41-1.18l-6.1-29.86-7.3-35.74a7.3,7.3,0,0,1-.19-.93c0-.13,0,.29,0,.07a3.16,3.16,0,0,1,.17-.52L286,133l6.78-20.46,6-18.19.68-2c0-.11.19-.39.16-.5-.06-.31-.51.3-.42.29.36,0,.94-.52,1.24-.69L303.05,90l33.84-18.76.82-.45-3.5.8,15.47,2.7,24.54,4.29,5.69,1-.39-.22.65,16.48,4.41-1.18c-1.19-2.4-2.21-4.87-3.46-7.24-1.07-2.05-2.37-4.78-4.64-5.73a6.92,6.92,0,0,0-5.8.77c-1.33.79-2,2.21-3,3.32-.65.7.07-.37.55,0a4.17,4.17,0,0,0-.5,0,4.67,4.67,0,0,1-1.81-.57,4.39,4.39,0,0,1-2.38-3.14c-.17-.87-4.12.28-4.38,1a4.31,4.31,0,0,1-1.51,2.1,1.66,1.66,0,0,1-.41.23l.08,0a3.45,3.45,0,0,1-1.24-.08,18.39,18.39,0,0,1-6.37-2.94c-.63-.4-4.69.66-4.29,1.32a2.48,2.48,0,0,1-.17,2.92c-.18.25-.61.49-.73.74-.21.41-1.22-1.15.76-.2a6.79,6.79,0,0,0-1.16-.15,12.46,12.46,0,0,1-1.69-.47c-2.6-.88-4.95-1.7-7.73-1.23a10.79,10.79,0,0,0-4,1.44,5.61,5.61,0,0,0-1.28,1.15c-.23.29-.43.62-.65.92s-.6.55-.69.8c.75-2,2.19-.22,1.32-.43-.2-.05-.42-.05-.62-.08-.44-.08-.87-.2-1.29-.32-.89-.25-1.76-.57-2.66-.77a8,8,0,0,0-6.37,1.17,3,3,0,0,0-1.18,2.19c-.06.61,0,1.23,0,1.84A2.43,2.43,0,0,1,317,94a1.4,1.4,0,0,1-.38.55c1.88-.36,2.44-.55,1.68-.56a10.15,10.15,0,0,0-1.48-.24c-.55-.11-1.1-.25-1.65-.33a8.24,8.24,0,0,0-3.61.48,7.11,7.11,0,0,0-3.88,3.15,17.82,17.82,0,0,0-2.06,5.89,12.67,12.67,0,0,0,0,5.68l4.29-1.32c-1.93-.81-4.39-.18-6.14.81a6.16,6.16,0,0,0-3.06,4.14c-.43,2.15.08,4.41-.49,6.53-.5,1.87-2,3.23-2.62,5s.24,3,1.78,3.86a3.36,3.36,0,0,1,1.9,4c-.32,1.58-1,3.07-1.19,4.68-.21,1.89.66,3.16,1.88,4.51s2.18,2.8,1.7,4.69a17.15,17.15,0,0,1-2.46,4.5,9.46,9.46,0,0,0-1.76,4.8c0,2,.84,3.81,1.35,5.67a6.06,6.06,0,0,1-.87,5.7c-1.13,1.51-2.28,2.79-2.54,4.74-.48,3.64,2,7.84-.43,11.12-1.24,1.66-2.84,2.76-3.46,4.83a15.11,15.11,0,0,0-.38,5.36c.23,3.45,1.33,8.07-1.47,10.8-.69.67.62.64,1,.61a5.44,5.44,0,0,0,3-1Z"/><path class="cls-15" d="M292,232.72l3.89.56a1.88,1.88,0,0,0,1.2-.09c.88-.5.44-1.82.21-2.81-.54-2.29.81-4.55,1.88-6.65s1.83-4.83.35-6.67c-.78-1-2.15-1.63-2.25-2.88-.13-1.62,1.91-2.38,3-3.56a3.94,3.94,0,0,0-1.57-6.16s2.94-3,2.13-9.2-2.4-12.82-2.4-12.82l-9-5.46Z"/><path class="cls-2" d="M290.61,233.71c2.43.35,4.91,1,7.29.1a2.7,2.7,0,0,0,1.91-1.9,6.4,6.4,0,0,0-.3-2.12c-.83-4.26,4-7.53,2.93-11.88a4.5,4.5,0,0,0-1.26-2.1c-.55-.54-1.33-1-1.58-1.78-.53-1.61,1.72-2.47,2.62-3.4a4.36,4.36,0,0,0-1.68-7.09l.22.81c4-4.16,2.21-11.17,1.28-16.1-.31-1.63-.65-3.26-1-4.88a4.13,4.13,0,0,0-.5-1.73,6.28,6.28,0,0,0-1.39-.84l-2.88-1.75-4.7-2.85c-.87-.53-4.34,0-4.28,1.37l.86,18.91,1.36,30,.31,6.87c0,1,4.47.19,4.41-1.18l-.86-18.9-1.36-30-.31-6.87-4.27,1.37c2.86,1.74,5.67,3.62,8.6,5.23a1.33,1.33,0,0,1,.38.23c-.28-.28-.06.1,0,.35.29,1.24.55,2.48.81,3.73.39,1.93.76,3.88,1.07,5.83a25,25,0,0,1,.5,5.91,9.65,9.65,0,0,1-2,5.52c-.34.35-.2.66.21.81a3.5,3.5,0,0,1,1,5.65c-.89.79-2,1.36-2.62,2.45a2.49,2.49,0,0,0,.72,3c1,1,1.93,1.73,2.05,3.28a8.45,8.45,0,0,1-1.13,4.29,16.28,16.28,0,0,0-2,4.95,6.31,6.31,0,0,0,.14,2.25c.06.27.14.53.18.8.09.68-.25.88.57.61l1.72-.37a26.4,26.4,0,0,1-4.23-.58,4.62,4.62,0,0,0-3.12.83C289.61,233.11,289.72,233.58,290.61,233.71Z"/><path class="cls-18" d="M449.52,91.08c-.59,1.26,1.12,2.34,2.49,2.54s3.16.54,3.35,1.91c.11.85-.53,1.66-.41,2.51.34,2.6,5.39.59,6.68,2.86,1,1.71-1.24,4.32.23,5.63.69.63,1.76.43,2.69.54a4,4,0,0,1,3.35,3c.25,1.17,0,2.49.59,3.52.75,1.25,2.42,1.48,3.73,2.13,3.41,1.72,4,6.28,4,10.1s-.18,8.21,2.64,10.8c2.77-2.21,0-4.68-2.08-7.57a21.55,21.55,0,0,1-1.91-2.56,2.39,2.39,0,0,1,.38-2.93c.42-.32,1-.45,1.26-.91.74-1.31-1.79-1.73-2.95-2.68-1.46-1.19-.48-3.56.71-5s2.61-3.38,1.69-5c-.82-1.45-3-1.63-3.85-3.07-1-1.62.4-3.7,0-5.54-.49-2.46-3.53-3.27-6-3.58a3.92,3.92,0,0,0-1.5-6c-.93-.33-2.08-.35-2.67-1.14-.88-1.17.16-3.18-.92-4.18-.91-.83-2.54-.16-3.52-.91-1.55-1.2.48-3.84-.35-5.62-1.09-2.37-6.23-1.63-5.88-4.21"/><path class="cls-2" d="M447.31,91.36c-.83,2.51,2.57,3.25,4.27,3.61,1,.21,1.75.58,1.47,1.74-.23,1-.61,2,.14,2.92,1.06,1.28,3.17,1.1,4.65,1.27a2.22,2.22,0,0,1,1.49.52c.63.69.25,1.78.06,2.58a4.29,4.29,0,0,0-.06,2.72c.51,1.12,1.8,1.43,2.93,1.52s1.93.1,2.75,1.06c1,1.12.67,2.47.9,3.81.47,2.7,3.06,2.72,5,4s2.53,3.34,2.87,5.35c.86,5-1.05,11.12,3.07,15.11.94.91,3,.23,3.81-.5,1.39-1.21,2-2.74,1.2-4.48a26.57,26.57,0,0,0-3.49-4.94,5.82,5.82,0,0,1-1.52-2.43c-.23-1.18.38-1.12,1.15-1.79,1.36-1.17.94-2.41-.47-3.23s-2.9-1.16-2.29-3.15,2.28-3.09,3-4.9-.1-3.36-1.7-4.34a8.67,8.67,0,0,1-2-1.24,3,3,0,0,1-.38-2.78c.34-1.93.48-3.82-1.18-5.19a10.84,10.84,0,0,0-5.49-2l.7,1.24a4.63,4.63,0,0,0-1.8-7.12c-.63-.25-1.62-.26-2.15-.7s-.45-1.47-.45-2.14a2.78,2.78,0,0,0-2.85-3.09c-.7-.08-1.52.12-1.76-.71a4.71,4.71,0,0,1,.24-2c.26-1.32.33-2.68-.71-3.68a8,8,0,0,0-3.3-1.55c-.65-.21-2-.47-1.91-1.38.14-1.77-4.29-.93-4.41.56-.2,2.61,2.84,2.79,4.63,3.57,3.12,1.37-.35,4.73,1.66,6.75a3.71,3.71,0,0,0,2.31.85c.81.07,1.37-.1,1.62.79.44,1.54-.4,3,1.23,4.07,1.24.83,2.81.54,3.69,1.92a3.24,3.24,0,0,1-.15,3.8c-.47.58.13,1.17.71,1.24a8.22,8.22,0,0,1,4.2,1.4c1.45,1.22.9,2.88.66,4.5a3.76,3.76,0,0,0,1.81,4.15c1.3.82,3,1.38,2.46,3.28-.53,1.73-2.14,2.94-2.86,4.6-.62,1.43-.68,3.1.66,4.13.5.37,2.71,1.1,2.69,1.73,0-.27-.55.2-.72.33a3.74,3.74,0,0,0-.9.92,3.19,3.19,0,0,0-.37,2.34,6,6,0,0,0,1.45,2.51c.7.85,1.35,1.74,2,2.62,1,1.29,2.89,3.36,1.22,4.82l3.81-.5c-3.51-3.41-2.17-8.87-2.58-13.22a11.58,11.58,0,0,0-1.94-5.85,6.76,6.76,0,0,0-2.41-2c-1-.49-2.24-.66-3-1.42s-.61-2.25-.77-3.37a4.57,4.57,0,0,0-1.69-2.93,5.63,5.63,0,0,0-3.08-1.16c-1.12-.1-1.95,0-1.81-1.37.17-1.75,1.22-3.68-.49-5-1.31-1-3.14-.93-4.67-1.1-.62-.07-1.2-.14-1.28-.87s.39-1.34.42-2a2.1,2.1,0,0,0-.49-1.54,5.25,5.25,0,0,0-3.11-1.4c-.87-.16-2.67-.45-2.25-1.72.5-1.49-3.91-.93-4.41.56Z"/><path class="cls-19" d="M334,197.42l2.49,8.78c1.36,6.79,7.37,20.22,9.53,24,3,5.25,39.25,9.24,46.59,5.56S405,212,407.11,207.34L421.6,209c1,6.17,4.53,25.74,7.15,28.5s19.3,3.23,21.18,3.29c1.57,0,3.75.06,6.13,0,6.32-.09,14-.7,16.48-2.85,3.67-3.18,8.16-15.9,12.07-27.95l.64-1.88c.14-.46.31-.77.32-.91h0l.7-2.17c-20.41-10.95-47.94-10.88-65.22.18l.12.22L407,203.74c-15.45-11.32-42.83-18.55-63-12.14h0l-56.1,12.23-.46,5.32Zm96.56,38.15c-1.63-1.72-4.54-15.45-6.44-26.12,15-9.31,39.82-9.34,58.12-.6l0,.27c-2.1,6.46-7.69,23.64-11.29,26.78-4.27,3.7-37.48,2.4-40.36-.27ZM350.39,229c-5.4-8.12-9.54-20.81-12.05-31.52,18-6.86,50.08-.54,65.21,10.23-2.95,8.37-6.87,23.06-12.14,25.67-7.56,3.79-39.12-1.07-41-4.38Z"/><path class="cls-2" d="M367.63,273.3c-1.88,1.43-3.9,3.1-4.24,5.44a9.18,9.18,0,0,0,.12,2.56l.55,3.95a1.58,1.58,0,0,0,.24.74,1.47,1.47,0,0,0,.75.42,6.29,6.29,0,0,0,2.7.47,2.14,2.14,0,0,0,1.94-1.67,3.39,3.39,0,0,1,.14-1.11c.35-.65,1.29-.5,2-.64,1.82-.33,2.35-2.6,3.25-4.21a9.5,9.5,0,0,1,6-4.14,18.61,18.61,0,0,0,3.64-1.07,3.63,3.63,0,0,0,2.17-2.89"/><path class="cls-2" d="M446.77,278.15c1.64,1.7,3.4,3.65,3.38,6a9.1,9.1,0,0,1-.5,2.51l-1.13,3.82a1.5,1.5,0,0,1-.35.7,1.47,1.47,0,0,1-.8.3,6.34,6.34,0,0,1-2.74.07,2.16,2.16,0,0,1-1.68-1.94,3.08,3.08,0,0,0,0-1.13c-.24-.69-1.2-.68-1.89-.92-1.75-.61-1.94-2.93-2.59-4.66a9.52,9.52,0,0,0-5.35-5,18.27,18.27,0,0,1-3.44-1.6,3.62,3.62,0,0,1-1.71-3.18"/><path class="cls-2" d="M371.13,270.66a2.9,2.9,0,0,1,1.58-1.16c.79-.15,1.67.11,2.48,0a5.2,5.2,0,0,0,3-1.38c.49-.5.76-1.17,1.25-1.66.63-.65.3-.07,0-.26a9.33,9.33,0,0,0,.83.43,7.32,7.32,0,0,0,2.27,1,7.13,7.13,0,0,0,5.17-1.34c.07,0,.71-.41.7-.43l-.37.05c-.42,0-.45.06-.08.24a3.65,3.65,0,0,0,2.43,1.19,7,7,0,0,0,5.44-2.24c.19-.17.85-.62.9-.85-.05.26-.86-.14.08.22a11.13,11.13,0,0,0,2.6.9,5.24,5.24,0,0,0,5.07-2c.62-.88-.53-1.46-1.25-1.5a3.34,3.34,0,0,0-2.89,1.26q1.65-.36.9-.57a4.47,4.47,0,0,1-.6-.25c-.38-.17-.75-.35-1.14-.48a5.91,5.91,0,0,0-2.92-.27,8.2,8.2,0,0,0-4.76,3c-.46.26-.3.25.46,0-.13-.1-.26-.2-.38-.31a3.4,3.4,0,0,0-1-.72,4.51,4.51,0,0,0-2.59-.27,10.56,10.56,0,0,0-3.83,1.77q.72,0,.21-.15l-.31-.16c-.41-.22-.79-.49-1.21-.69a5.42,5.42,0,0,0-2.23-.61,6.91,6.91,0,0,0-5.35,2.39,7.89,7.89,0,0,0-.71.93c-.74,1.09.47-.16.55,0-.14-.37-2.66.06-3.08.14a8.67,8.67,0,0,0-4.85,2.81c-1.71,2.06,2.52,2.23,3.59.94Z"/><path class="cls-2" d="M420.34,267.52c.72-.24-.1,0-.06,0,.19.11.42.2.61.32.54.33,1.05.72,1.58,1.05a7.74,7.74,0,0,0,1.81.87,20.29,20.29,0,0,0,2.44.22c.42.08.23-.07.5.15s.36.55.55.77a3.32,3.32,0,0,0,1.8,1,5.28,5.28,0,0,0,2.56-.1,6.33,6.33,0,0,0,2.31-.9c.29-.32-.33-.26-.34-.09s.29.48.37.62a8.5,8.5,0,0,0,.92,1.57c1.09,1.23,2.8,1.32,4.33,1.25.38,0,1.07-.18,1.39.12s.25,1.11.42,1.5a2.31,2.31,0,0,0,1.4,1.23,4.21,4.21,0,0,0,.88.23.36.36,0,0,1,.25.06c.39.12.31.06-.22-.19.23,1.88,4.66.82,4.41-1.18a1.82,1.82,0,0,0-1.37-1.39,5.52,5.52,0,0,0-1-.21,1,1,0,0,0-.27-.09c.24.18.28.12.14-.19.17-1.65-1.69-2.63-3-2.86-1.14-.2-2.95.47-3.64-.62-.81-1.25-1.13-2.47-2.78-2.83a5.75,5.75,0,0,0-3.29.45c-.34.14-.67.31-1,.47-.85.37-.3,0-.2.24-.89-1.7-2.48-2.11-4.26-2.08-1.31,0-2.17-.87-3.25-1.53a5.51,5.51,0,0,0-4.73-.69c-.81.28-2.09.92-1.83,2s1.83,1.07,2.58.81Z"/><path class="cls-2" d="M407,267l-1.66,6a2.21,2.21,0,0,1-2,1.62c-6.55.38-31.47,1.75-37.34,1.19-.14,0,.32,2.48.18,2.45l-1.37-.21c-2.15-.61,0-7.85,2.18-8.49a124.15,124.15,0,0,1,15.95-3.78c4.48-.67,16.84-2.12,22.14-1.63A2.24,2.24,0,0,1,407,267Z"/><path class="cls-11" d="M407.53,278.69C395.2,277.8,375,277.5,375,277.5s1.85,27.81,30.45,29.88,31.35-26.05,31.35-26.05S419.86,279.58,407.53,278.69Z"/><path class="cls-20" d="M407.65,278.7c-5.86-.42-29.32-1.65-29.32-1.65s8,18.18,29.18,19.71c23,1.66,27.05-14.71,27.05-14.71Z"/><path class="cls-13" d="M407.84,279.67c-5.86-.43-23.53-1.24-23.53-1.24s5.82,5.83,23.41,7.1,23.76-3.5,23.76-3.5Z"/><path class="cls-11" d="M437.09,281.49c0-.65,0-.6-2.6-2.05-4.28-2.35-7.85-3.93-11.35-4.47-6-.93-10,1.34-12.57,1.15s-6.24-3-12.28-2.95a85.5,85.5,0,0,0-17.13,2.42c-2.79.83-6.62,1.71-7.26,1.83-.88.17.56,2.66,33.38,4.84C435.35,284.13,437.06,281.91,437.09,281.49Z"/><path class="cls-2" d="M405.67,267.28l-1,5.71a2.07,2.07,0,0,1-1.72,1.7c-6,1-29,4.56-34.47,4.59-.13,0,.53,2.27.4,2.25l-1.28-.06c-2.06-.37-.71-7.27,1.22-8.07a115.45,115.45,0,0,1,14.42-5c4.08-1,15.39-3.54,20.34-3.58A2.08,2.08,0,0,1,405.67,267.28Z"/><path class="cls-2" d="M414.73,267.85l-.39,5.65a2.23,2.23,0,0,0,1.59,2c5.93,1.55,25.34,6.69,30.79,7.21a1.61,1.61,0,0,0,.38,0l1.77-.18c2.07-.2,1.39-4.87-.48-5.89a95.19,95.19,0,0,0-12.46-6.12c-4-1.47-14.07-4.59-19-5.07A2.13,2.13,0,0,0,414.73,267.85Z"/></g><g id="Layer_11" data-name="Layer 11"><path class="cls-21" d="M454.52,375.54c15.38,5.65,62.64,25.47,81,78.11,19.89,57.09,13.34,206.53,12,254.43-.84,55.94,6.43,146,0,217.17L534,991.2l-50.34-9.39s-11.56-257.62-23.61-336.19S454.52,375.54,454.52,375.54Z"/><path class="cls-22" d="M1201.89,752.49s5.78,34.89-.82,59.4-37.18,38-56.61,36-20-55.05-20-55.05Z"/><path class="cls-22" d="M1174.65,939.72l-25.77-84.45L1142,821.93l10.83-257.31-26.34-20.13-47.25-20-6.46,15.59c-11.42,14.17-25.59,28.16-44.47,28.56-5.52.11-20.37-.21-26.27-.89-14-1.61-18-15.37-18.57-28.84-12,6.2-13.77,6.57-26.26,11.58-13.72,5.5-42.54,32.94-53.89,42.05-2.33,27.28-8.77,103.87-8.82,120.36-.05,13.6,12.71,46.17,12.11,127.74-.19,25.28-23.22,52.25-8.8,76.07,20.46,33.79,60.05,41,96.52,40.78,32.93-.15,65.69-4.14,98.18-9.23,14.72-2.31,29.88-6.37,44.61-5.7C1139.39,942.7,1176,943.83,1174.65,939.72Z"/><path class="cls-21" d="M528.22,481.53l-4-47.32s-11.77-31.5-53.57-51.32c-14.39-6.82-49.54-20.79-58.38-24.09,1.69,12.08,6.6,25.72-2,31.8-12,8.51-23.19,14.51-37.87,14.13-14.09-.37-28.12-4.3-41.09-9.65-24.26-10-51.37-39.8-55.72-67l-9.91,3.46s-79.06,27.62-91.35,31.88-21.92,321-21.92,321L118.19,815.29c-3.42,12.64-75.79,93.87-38.32,196.78,0,0,271.61-68.11,299.65-67.06,32.56,1.24,93.89,4.58,102.94-10.51S528.22,481.53,528.22,481.53Z"/><path class="cls-23" d="M513.47,515.22l-.37,7.09-1,19.29-1.49,28.31-1.83,34.76-2,38.08-2,38.31-1.88,35.72-1.59,30.28-1.14,21.71c-.18,3.43-.43,6.86-.54,10.29l0,.45c-.1,2,3.66,1.56,3.75-.23l.37-7.09,1-19.29,1.49-28.31L508,689.83l2-38.08,2-38.3,1.88-35.72,1.59-30.29,1.14-21.7c.18-3.43.43-6.87.54-10.3,0-.15,0-.3,0-.45.11-2-3.65-1.56-3.75.23Z"/><path class="cls-22" d="M976,544.1c-13.42,2.76-72.08,24.42-83,69.77S879.2,770.39,874.39,810.19c-6.24,46.39-23.45,120-27,179.7l2.92,56.23,42.82-1.52s41.55-211.72,61.28-275.24S976,544.1,976,544.1Z"/><path class="cls-24" d="M912.92,617.56a9.47,9.47,0,0,1,1.61,2.58,25.06,25.06,0,0,1,2.1,8.64c.38,4.69-.7,9-2,13.49-3.42,11.74-8,23.13-11.84,34.72a109,109,0,0,0-4.13,14.58,48.81,48.81,0,0,0,.4,17.91,67.17,67.17,0,0,0,7.4,20.16,66.07,66.07,0,0,0,6.4,9.41c.58.71,1.18,1.41,1.8,2.09a16.37,16.37,0,0,1,2,2.1c.1.17.07.18.11.39a13.88,13.88,0,0,1,.09,2.14l.15,3.9.47,11.62,1.14,28.61.45,11.14c.07,1.74.25,3.52.21,5.26,0,.25,0-.16,0,0a4.71,4.71,0,0,1-.12.54l-.55,2.53-2.13,9.6-6.13,27.64L906,866.29l-.23,1c-.17.76,2.7.32,2.87-.47l3.21-14.48L918,824.54l4-18.26a9.27,9.27,0,0,0,.06-2.47l-.35-8.66-1.11-27.76-.9-22.5a13.37,13.37,0,0,0-.09-2.1,1,1,0,0,0-.1-.38,12.83,12.83,0,0,0-1.91-2c-.67-.73-1.31-1.48-1.94-2.24a65.84,65.84,0,0,1-11.13-19.87,60.72,60.72,0,0,1-3.65-19.68,51.22,51.22,0,0,1,2.49-15c3.51-11.85,8.1-23.35,12-35.08,3.13-9.47,6.7-20,1.82-29.59a10,10,0,0,0-1.57-2.39c-.56-.58-3.27.48-2.73,1Z"/><path class="cls-21" d="M201.31,354.71S114,370,91.82,427.06c-16.95,43.69-22,218-21.79,239.55.3,24.57-2.22,95.45,15.62,133.87,18.43,39.67,54,41.83,143.29,66.52s192.43-1.93,192.43-1.93l25.13-63.8L213,706.33S207.54,430,204.57,407.21C199.13,365.42,201.31,354.71,201.31,354.71Z"/><path class="cls-25" d="M347.63,570.89a.66.66,0,0,1,.28.05c0,.37.18.75-.14,1.08Z"/><path class="cls-25" d="M360,698.44a.83.83,0,0,1-.27.12l-.09-.72Z"/><path class="cls-26" d="M434.51,560.35l-.4-.05.39-.19A.23.23,0,0,1,434.51,560.35Z"/><path class="cls-26" d="M378.72,567.1l.37-.25.12.2Z"/><path class="cls-26" d="M433.32,560.41l-.53.06A.35.35,0,0,1,433.32,560.41Z"/><path class="cls-26" d="M348.85,570.78a.27.27,0,0,1,.44-.06Z"/><polyline class="cls-27" points="-246.22 917.03 -104.61 867.59 1386.05 867.59 1527.67 917.03 -246.22 917.03"/><path class="cls-23" d="M431.45,801.63l-23.73-8.25-57-19.81-68.89-23.94-59.22-20.58L203,722.22l-6.11-2.12a13.36,13.36,0,0,0-3.2-1.11,2.12,2.12,0,0,1-.4-.14l.36.6c.23-3,.45-5.89.67-8.84q.87-11.86,1.74-23.72,1.24-17.16,2.46-34.34,1.44-20.35,2.81-40.72,1.44-21.35,2.78-42.67,1.29-20.4,2.42-40.8c.63-11.49,1.22-23,1.67-34.48.32-8,.61-16,.57-24-.07-11.37-2.49-22.76-6.07-33.52-3.16-9.53-7.74-20-15.38-26.93-.32-.29-.65-.58-1-.84-1-.72-4.35.75-3.43,1.41a22.55,22.55,0,0,1,3.77,3.73A59,59,0,0,1,195,427.09a111.9,111.9,0,0,1,8.12,26A89.76,89.76,0,0,1,205,467.2c.24,6.95,0,13.92-.25,20.86-.37,10.78-.89,21.57-1.45,32.34q-1.05,19.89-2.28,39.75-1.31,21.29-2.73,42.57-1.38,20.7-2.83,41.39-1.26,18-2.56,36-1,13.25-1.94,26.49c-.31,4.25-.67,8.51-1,12.76,0,.19,0,.38,0,.56a.52.52,0,0,0,.36.61l23.73,8.25,57,19.8,68.89,23.95,59.22,20.58c9.63,3.35,19.21,7,28.94,10.06l.41.14a3.19,3.19,0,0,0,2.6-.37c.39-.26,1.21-1,.35-1.34Z"/><path class="cls-23" d="M195,717.48a31.15,31.15,0,0,0-10.57-1.67A46.5,46.5,0,0,0,159.29,723a57.32,57.32,0,0,0-14.73,13.78c-.65.84.57.94,1.18.9.94-.06,2.65-.38,3.29-1.2a56.35,56.35,0,0,1,12.18-12,41.44,41.44,0,0,1,5.94-3.46c.83-.39,1.61-.72,2.47-1,1.06-.4,1.59-.57,2.57-.85a32,32,0,0,1,8.86-1.23,35.09,35.09,0,0,1,4,.23,22.87,22.87,0,0,1,2.82.45,21.3,21.3,0,0,1,3.13.85c1,.39,2.54-.15,3.44-.6.54-.27,1.59-1,.58-1.37Z"/><path class="cls-25" d="M702.62,823.38a.68.68,0,0,0,.24.08l0-.64Z"/><path class="cls-25" d="M666.42,972.57a.83.83,0,0,1-.27.07V972Z"/><path class="cls-28" d="M571.54,995.34s10.14-53.12-43.33-68.29c-72.83-20.66-390.68,18.65-390.68,18.65l434,49.64"/><path class="cls-29" d="M565.2,995.34s14.41-54.76-56.13-70.57c0,0,73,4.46,62.47,70.57Z"/><rect class="cls-30" x="-88.74" y="954.3" width="1512.57" height="167.2" transform="translate(1335.08 2075.79) rotate(180)"/><polyline class="cls-27" points="-195.51 991.25 1527.67 991.25 1527.67 906.86 -195.51 906.86"/><polyline class="cls-30" points="-185.92 937.64 1527.67 937.64 1527.67 941.66 -185.92 941.66"/><path class="cls-23" d="M102.66,827.3A152.83,152.83,0,0,0,120.59,837c4.27,1.88,8.71,3.33,13.12,4.84,6.85,2.35,13.58,5,20.21,7.88a137,137,0,0,0,13.29,5.12,214.11,214.11,0,0,0,29.92,6.8c11.8,1.93,23.7,3.24,35.61,4.23,12.88,1.07,25.78,1.76,38.69,2.21s26.06.67,39.1.72q18.25.06,36.51-.27,15.61-.27,31.23-.74c7.72-.22,15.44-.48,23.17-.69,2.57-.07,5.14-.13,7.71-.16h3.35l.82,0c.36,0,1.31.22.61,0a2.49,2.49,0,0,0,2.6-.69,1.11,1.11,0,0,0-.49-1.84,13.68,13.68,0,0,0-3.56-.29c-2,0-4,0-6,0-6.75.13-13.49.37-20.24.57-9.73.29-19.46.57-29.19.78q-17.62.38-35.27.46c-12.79,0-25.58-.06-38.37-.38-13-.32-26-.86-38.95-1.74-12.28-.83-24.54-2-36.74-3.62a262.71,262.71,0,0,1-31.34-6c-4.37-1.16-8.71-2.47-13-4.06-6.32-2.37-12.42-5.33-18.72-7.75-9.81-3.78-19.86-6.57-29.15-11.58-3.41-1.84-6.75-3.81-10.06-5.83-1.42-.87-4.63,1.07-2.83,2.16Z"/><path class="cls-22" d="M1158.33,799.68c10.87-5.54,20.1-13.69,29.89-20.85,4.86-3.56,10-6.69,15.16-9.79-1.27-15.21-2.71-28.75-2.71-28.75s-8.74-101.13-10.8-121.29c-5.44-53.17-65.57-75.53-65.57-75.53s17.6,81.69,3.79,103.21-8,49.75-8,49.75l1.66,26.1,3.32,59.81c5.55,3.8,3.06,3.37,7.87,8,5.45,5.28,15.15,6.38,20.58,11.51A51.5,51.5,0,0,0,1158.33,799.68Z"/><path class="cls-24" d="M1130.88,584.7c-4.19,1.35-8,4.74-10.85,7.92-8.6,9.52-12.57,22.52-14.44,35a176.61,176.61,0,0,0-1.41,29.35c.18,9.75.75,19.49,1.55,29.2,1.47,17.88,3.7,35.7,6.41,53.44q1.41,9.2,3,18.38c.51,2.94.85,6,1.61,8.91,0,.13,0,.27.08.4l2.9-.77c-.17-.71-1-1.12-1.62-1.42a25.84,25.84,0,0,0-3.6-1.41c-3.48-1.12-7-2-10.61-2.75a198.23,198.23,0,0,0-22.31-3.63c-13.9-1.45-27.9-2-41.86-2.53-14.15-.53-28.32-.8-42.47-1.22-15.89-.48-31.79-1.17-47.62-2.64-.6,0-2.37.21-2.38,1.05l0,5.57c0,.6,2.9.16,2.91-.78l0-5.57-2.37,1c27.89,2.58,55.91,2.73,83.88,3.64,13.75.45,27.53,1,41.24,2.11a211.21,211.21,0,0,1,25.31,3.47c4,.83,8,1.72,12,2.86a40.42,40.42,0,0,1,4.69,1.59c.6.27,1.79.7,2,1.39s3.06,0,2.9-.77c-1.41-7.3-2.63-14.64-3.79-22-2.68-16.83-4.93-33.74-6.55-50.7-.92-9.62-1.64-19.26-2-28.92a245.66,245.66,0,0,1,.14-29.1c1.08-13.94,4.2-28.89,12.74-40.31a35.57,35.57,0,0,1,7.57-7.63c.51-.36,1-.7,1.56-1l.17-.11.27-.16.64-.35,1-.48c-.44.21.08,0,.3-.11l.21-.08c.37-.12,1.12-.47.84-.93s-1.59,0-1.89.1Z"/><path class="cls-4" d="M942.44,793.26l-25-8.53s-28.9,8.17-42.74,6.43A108.78,108.78,0,0,1,846,782.23l-31.56-3.38s-14.33,6.28-16.62,1.94,2.46-8.09,7.06-11.74,81.78-30,81.78-30a147.92,147.92,0,0,0-23.4-9.61c-12.41-3.8-16.34-12.44-10.32-16.19,3.72-2.31,22.55-1,27.33,4.84S902,720.23,914,725.81,933,748,933,748c6,3.76,15.44,7.21,15.44,7.21Z"/><path class="cls-24" d="M939.39,793.65c0,4.87-1.64,9.63-1.61,14.51,0,.23.42.37.57.4a130,130,0,0,1,12.59,3.92c5.88,2,11.77,3.9,17.74,5.58a173.43,173.43,0,0,0,19.9,4.23q11.37,1.8,22.67,3.89c28.52,5.23,56.82,11.63,85.42,16.41,16.68,2.79,33.45,5,50.31,6.33,1.11.09,3.08-1.49,1.13-1.64-29.45-2.35-58.52-7.54-87.47-13.32-14.19-2.83-28.37-5.75-42.59-8.42q-11.2-2.12-22.46-4c-7-1.14-13.89-2.14-20.73-3.89s-13.8-4-20.61-6.26c-4.65-1.55-9.32-3.34-14.12-4.42l.56.39c0-4.87,1.64-9.63,1.6-14.51,0-.9-2.91-.35-2.9.78Z"/><path class="cls-24" d="M1116.88,766.85A39.3,39.3,0,0,1,1136.23,786c.49,1,3.34.16,2.91-.78a40.6,40.6,0,0,0-20-19.8,2.28,2.28,0,0,0-2.07.26c-.37.25-.88.9-.23,1.2Z"/><path class="cls-4" d="M428.25,808.67,415,860.76s35.6,11.35,46.83,11.48,37.5,3.69,37.5,3.69a14.9,14.9,0,0,0-1.83,10,14.6,14.6,0,0,0,6.85,9.25l13.63-16c2.2,8.44,10.17,3.29,10.17,3.29l10.22-14.28c2.25,10.58,12.75,4.12,12.75,4.12l7.42-20.84a34,34,0,0,0,8.77,9.88c4.67,2.93,7.35-5.36,7.35-5.36L560,820.27,511.51,799l-83.26,9.64"/><path class="cls-5" d="M529.05,814a75.26,75.26,0,0,1,9.09,4.61c3.28,1.91,6.94,4,10.55,6.6a57,57,0,0,1,9.5,8.18,7.8,7.8,0,0,1,2.32,5.48,36.38,36.38,0,0,1-.37,4.79,21.67,21.67,0,0,1-2.12,9.09c-.3-.08.24-3.4.47-9.1,0-1.42.14-3,.08-4.59a6,6,0,0,0-2-4.1,67.46,67.46,0,0,0-9.29-7.75c-3.51-2.48-7-4.59-10.28-6.58s-6.12-3.8-8.62-5a27.27,27.27,0,0,0-8.64-2.23A11.87,11.87,0,0,1,529.05,814Z"/><path class="cls-5" d="M518.18,831.71c4.79,2.48,11.78,5.21,19,9.52a14.87,14.87,0,0,1,5,4.17,26.69,26.69,0,0,1,1,15.7,38.45,38.45,0,0,1-3.18,5.72,16.74,16.74,0,0,1-1.38,1.95,8.46,8.46,0,0,1,.6-2.33,41.42,41.42,0,0,0,2.43-5.83,19.55,19.55,0,0,0,0-9.22,21.44,21.44,0,0,0-1.35-5,14.1,14.1,0,0,0-4.3-3.32c-7-4.16-13.95-7.2-18.59-10.11a22.4,22.4,0,0,1-7-5.42A69.19,69.19,0,0,1,518.18,831.71Z"/><path class="cls-5" d="M520.78,873.8a10.8,10.8,0,0,0,1.89-6,7.83,7.83,0,0,0-3.75-6.18,25.25,25.25,0,0,0-7.54-3.11l-6.76-2c-1.71-.53-3.25-1.16-4.24-1.42a7,7,0,0,0-1.62-.14c-.17-.09.42-.77,1.71-.76a29.27,29.27,0,0,1,4.74.77l6.88,1.55a23.52,23.52,0,0,1,8.37,3.27,9.82,9.82,0,0,1,4.59,8.1,12,12,0,0,1-2.69,7c-2.72,3.21-4.82,4.38-5,4.32C517,878.87,518.87,877.09,520.78,873.8Z"/><polygon class="cls-31" points="597.03 714.63 782.54 711.66 782.54 720.02 782.54 884.17 597.03 873 597.03 714.63"/><polygon class="cls-32" points="597.03 714.63 500.38 717.87 499.18 725.8 499.18 886.1 597.03 873 597.03 714.63"/><polygon class="cls-33" points="684.69 895.34 499.18 889.91 499.18 725.8 684.69 731.19 684.69 895.34"/><polygon class="cls-34" points="684.69 895.34 782.54 884.17 782.54 720.02 684.69 731.19 684.69 895.34"/><polygon class="cls-35" points="571.33 677.25 783.36 684.4 786.46 716.45 574.43 709.3 571.33 677.25"/><polygon class="cls-33" points="684.17 726.44 491.24 719.29 491.01 687.27 683.94 694.42 684.17 726.44"/><polygon class="cls-34" points="684.17 726.44 786.46 716.45 787.17 684.4 683.94 694.42 684.17 726.44"/><polygon class="cls-36" points="491.01 687.27 571.33 677.25 787.17 684.4 683.94 694.42 491.01 687.27"/></g></svg>