<svg xmlns="http://www.w3.org/2000/svg" viewBox="0 0 637.33 635.77"><defs><style>.cls-1{fill:#c3e6f7;}.cls-2{fill:#9b5524;}.cls-3{fill:#aa6333;}.cls-4{fill:#e79731;}.cls-5{fill:#d67d28;}.cls-6{fill:#2b2119;}.cls-7{fill:#fbad57;}</style></defs><g id="Layer_10" data-name="Layer 10"><circle class="cls-1" cx="318.06" cy="317.88" r="288.85"/></g><g id="Layer_11" data-name="Layer 11"><polygon class="cls-2" points="254.95 224.66 496.27 214.8 496.27 231.67 496.27 445.19 254.95 430.66 254.95 224.66"/><polygon class="cls-3" points="254.95 224.66 127.67 222.14 127.67 239.19 127.67 447.7 254.95 430.66 254.95 224.66"/><polygon class="cls-4" points="368.99 476.73 127.67 452.67 127.67 239.19 368.99 256.2 368.99 476.73"/><polygon class="cls-5" points="368.99 476.73 496.27 445.19 496.27 231.67 368.99 256.2 368.99 476.73"/><polygon class="cls-4" points="371.83 240.93 118.48 225.12 118.48 189.98 371.83 202.59 371.83 240.93"/><polygon class="cls-5" points="371.83 240.93 505.46 218.32 505.46 183.13 371.83 203.64 371.83 240.93"/><path class="cls-6" d="M227.63,367.09c.09-.29-.92-.18-1.09-.23C226.76,367.35,227.89,367.08,227.63,367.09Z"/><polygon class="cls-6" points="229.9 371.91 229.49 371.82 230.49 372.53 229.9 371.91"/><path class="cls-6" d="M229.88,376.41c1.7-.43-.28-1.63.33-2.44l.39-.13-1.37-.36C229.45,374.45,230.36,375.72,229.88,376.41Z"/><path class="cls-6" d="M226.19,378.81c.67-.15.57.51.21-.56l-.17.1A1.42,1.42,0,0,1,226.19,378.81Z"/><path class="cls-6" d="M226.23,378.35c0-.48-.55.31,0,0Z"/><path class="cls-6" d="M226.57,379.77c-.18-.16-.37-.31-.55-.45-.4,0-.52.37-.79.21C225.51,379.93,225.9,379.93,226.57,379.77Z"/><path class="cls-6" d="M227.75,380.32l-.22-.26C227.37,380.08,227.3,380.13,227.75,380.32Z"/><path class="cls-6" d="M227.06,379.54l.47.52c.29,0,.84,0-.16-.23C227.87,379.92,227.4,379.77,227.06,379.54Z"/><path class="cls-6" d="M227.33,379.38c.38-.08.61-.31,1.2,0a1,1,0,0,0-.13-.2.88.88,0,0,0-.19-.26.52.52,0,0,0-.45-.16C227.46,378.74,227.22,379.3,227.33,379.38Z"/><path class="cls-6" d="M231.64,376.64l.5-.47-.57-.41C231.85,376,231.11,376.67,231.64,376.64Z"/><path class="cls-6" d="M230.72,383a5.18,5.18,0,0,0-.63-.46,16.21,16.21,0,0,0-1.47-.76,5.18,5.18,0,0,1,.72.35l.39.22c.1,0,.2.1.3.15A4.29,4.29,0,0,1,230.72,383Z"/><path class="cls-6" d="M230.09,382.54c.29.15.62.47.78.56a1.54,1.54,0,0,1,.26.25l.12.15.06.06a4.62,4.62,0,0,0-1-.86C230.09,382.53,230,382.51,230.09,382.54Z"/><path class="cls-6" d="M229.61,380.68c-.39-.36-.78-.71-1.19-1,.41.37.8.78,1.18,1.18Z"/><path class="cls-6" d="M233.69,382.84a7.63,7.63,0,0,0-1.2.35A2.84,2.84,0,0,1,233,383c.17,0,.33-.07.55-.14a12.7,12.7,0,0,1,1.31-.24C234.41,382.71,234.07,382.74,233.69,382.84Z"/><path class="cls-6" d="M237.92,382.27c.69.11,1.18,0,1.6.08a2.06,2.06,0,0,0-.45-.24,5.08,5.08,0,0,0-.71-1.21,2.13,2.13,0,0,1,.08,1.15A1,1,0,0,1,237.92,382.27Z"/><path class="cls-6" d="M237.63,379.78a8.07,8.07,0,0,0,.67,1l.06.08,0-.08A2.66,2.66,0,0,0,237.63,379.78Z"/><path class="cls-6" d="M231.47,383.79l.13-.13a1.61,1.61,0,0,0,.19-.13,2.17,2.17,0,0,1,.46-.24,1.82,1.82,0,0,0-.51.28A.93.93,0,0,0,231.47,383.79Z"/><path class="cls-6" d="M231.72,383.59l0,0a2.26,2.26,0,0,1,.38-.23l.17-.06.22-.1a3,3,0,0,1,.61-.19A4.33,4.33,0,0,0,231.72,383.59Z"/><path class="cls-6" d="M231.44,383.83s0,0,0,0S231.44,383.84,231.44,383.83Z"/><path class="cls-6" d="M228.47,381.59l.38.24a1.76,1.76,0,0,0,.42.24,2.19,2.19,0,0,0,1.07.38C229.74,382.08,229.22,382.05,228.47,381.59Z"/><path class="cls-6" d="M231.44,383.79a.26.26,0,0,0,0-.15v0h0v.18h0s0,0,0,0a.57.57,0,0,0-.1-.19l0,0c.1.09.15.32.14.24h0v-.18h0A.3.3,0,0,1,231.44,383.79Z"/><path class="cls-6" d="M231.45,383.83l0,0v0a.32.32,0,0,0,0-.09c0,.14,0,0,0,0Z"/><path class="cls-6" d="M236.56,381.85a2,2,0,0,1-.39-1.12c0-.19,0-.39,0-.6l-.18.59a5.94,5.94,0,0,0-.17.7c0,.16-.05.31-.08.46C236,381.94,236.57,382.09,236.56,381.85Z"/><path class="cls-6" d="M236.24,382.46h-.06C236.1,382.47,236.07,382.47,236.24,382.46Z"/><path class="cls-6" d="M235.86,375.93l-.18.07h.18Z"/><path class="cls-6" d="M235.5,381.9c-.21.17,0,.29.34.39a.56.56,0,0,1-.15-.41C235.55,381.85,235.45,381.84,235.5,381.9Z"/><path class="cls-6" d="M237.05,378.36a4.07,4.07,0,0,0-.52.58C236.84,378.75,237.32,378.4,237.05,378.36Z"/><path class="cls-6" d="M236.46,382.44h0C236.73,382.42,236.62,382.42,236.46,382.44Z"/><path class="cls-6" d="M236.46,382.44c-.14-.05-.39-.09-.62-.15a.58.58,0,0,0,.34.17Z"/><path class="cls-6" d="M229.26,375.15c1,0,1.86.78.9,1.56.75.66,3.83,0,5.52-.71a1.52,1.52,0,0,1-1.39-.65c-.51.27-1.11,1.65-2,1.1-.55-.92.29-.79.76-1.28-1.16.46-1.78-1.11-3.5-.82l.66.81C229.94,375.19,229.49,374.91,229.26,375.15Z"/><path class="cls-6" d="M235.67,377.34l.14.29c.14-.35.5-.61,1.21-1.09a1.67,1.67,0,0,0-1.16-.54l0,1.43Z"/><path class="cls-6" d="M235.91,378.94c-1-.15-1.53-.83-2.61-.32.12.79.81.62,1.31,1.17a.36.36,0,0,1,.08.12v-.12c-.34-1.81.65.66,1.11-.83a3.08,3.08,0,0,1,.29.8l0,.37a3.19,3.19,0,0,1,.13-.37,5.62,5.62,0,0,1,.28-.82l-.06,0h0c-.12.11-.19.14-.13,0a.11.11,0,0,1,0,0,2.5,2.5,0,0,1-.4,0c.19-.42.27-.08.4,0l.15,0h0l-.66-1.35A2.15,2.15,0,0,0,235.91,378.94Z"/><path class="cls-6" d="M232.09,383.87a.74.74,0,0,1-.22-.1C231.94,383.9,232,384,232.09,383.87Z"/><path class="cls-6" d="M231.42,383.72l-.18-.27c-.07-.11-.13-.1-.05-.15.33.05.41.27.68.47a1.26,1.26,0,0,0-.33-.48c-.16-.17-.4-.17-.67-.25l.1.11-.08,0,0,0,0,0,0,0a2.2,2.2,0,0,1,.33.35,1,1,0,0,1,.15.19c0,.06.07.19.06.14s0,0,0,0h0v-.18h0v0c0,.05,0,.07,0,.05v-.07h0v.18h0s0,0,0,0a.61.61,0,0,0,0-.12l0-.06A.55.55,0,0,0,231.42,383.72Z"/><path class="cls-6" d="M233.28,382.49a4.92,4.92,0,0,1-.46-.89c-.31.14-.62.28-.92.44h.53C232.21,382.56,232.88,382.44,233.28,382.49Z"/><polygon class="cls-6" points="236.37 375.76 237.46 375.85 235.89 375.29 236.37 375.76"/><polygon class="cls-6" points="236.16 374.31 237.1 374.31 236.51 373.96 236.16 374.31"/><path class="cls-6" d="M265.49,308.51l-.29-.3A1.19,1.19,0,0,0,265.49,308.51Z"/><path class="cls-6" d="M265.54,310.78l.47,0C265.75,310.72,265.56,310.69,265.54,310.78Z"/><path class="cls-6" d="M245.45,346c.78.52,1.84,1.52,1.26.62l-.62-.83A.46.46,0,0,1,245.45,346Z"/><path class="cls-6" d="M265,329.31l-.32-.14.39,1C265,329.88,265,329.61,265,329.31Z"/><path class="cls-6" d="M262.26,325.94l.81.12A2.34,2.34,0,0,0,262.26,325.94Z"/><path class="cls-6" d="M262.91,295l-1.08-.3C261.87,295.26,262.39,295,262.91,295Z"/><path class="cls-6" d="M236.47,360.14a2.06,2.06,0,0,0,.81-.76C236.59,359.65,235.65,359.85,236.47,360.14Z"/><path class="cls-6" d="M276.53,308.8a.76.76,0,0,0-.65-.28A.65.65,0,0,0,276.53,308.8Z"/><path class="cls-6" d="M237.52,358.37a2.36,2.36,0,0,0-.28.12,1.11,1.11,0,0,1,0,.89C237.79,359.16,238.14,358.89,237.52,358.37Z"/><path class="cls-6" d="M232.47,290.84l-.14-.06C232.39,290.91,232.43,290.89,232.47,290.84Z"/><path class="cls-6" d="M215,292.92a2.34,2.34,0,0,1,.3-.75C215.2,292.25,215.09,292.47,215,292.92Z"/><path class="cls-6" d="M236.49,368.56c.06.29.11,0,0,0Z"/><path class="cls-6" d="M232.38,370a1.1,1.1,0,0,0-.5-.12A1.28,1.28,0,0,1,232.38,370Z"/><path class="cls-6" d="M232.3,353.6v0C232.09,353.6,232.13,353.59,232.3,353.6Z"/><path class="cls-6" d="M236,369a1.37,1.37,0,0,0,.31-.38A1.37,1.37,0,0,0,236,369Z"/><path class="cls-6" d="M236.5,368.94a1.24,1.24,0,0,0-.1.26C236.57,369.23,236.68,369.2,236.5,368.94Z"/><path class="cls-6" d="M236.44,368.14a.9.9,0,0,1-.12.48c.07-.06.13-.08.17-.06A2.37,2.37,0,0,1,236.44,368.14Z"/><path class="cls-6" d="M255.12,282.93a1,1,0,0,0-.05-.11C254.74,283.23,254.88,283.17,255.12,282.93Z"/><path class="cls-6" d="M248.17,332.87s0,0,0,.06h.06Z"/><path class="cls-6" d="M249,331.73c0,1.38-.34,1.33-.8,1.21l1.42,2.66Z"/><path class="cls-6" d="M264.61,302.9c-.27.3-.54.61-.82.9-1.64-.75-1.21-1.52-2.41-.61,3.24-.26.7,2.95,3.91,2.7l-.63.57c0-.15-.17-.15-.15-.3-1.46,1.12,2.42.51,2.05,1.82-.22.46-.67.79-1.07.53l.87.91c-.05.29-.61.25-.57,0,.13.49.21,1,.31,1.44H266a9.39,9.39,0,0,1,1.65.89c-.45.38-.35-.19-.75-.09.28.27.54.54.79.81-.86.32-1.63-.33-1.54-.89-1.61.4-1.4.54-1,.8s.9.66-.06,1.39l-.4-.72c-1.85.39-1.17,1-2.4,1.6.31-.06,1.07-.36,1.83-.59s1.53-.37,1.93.08c-.26.22-.41.5.21,1-1.15-.09-.91.35-.88.89l-1.52-.21c.38.58,1.14.63,1.77,1.05-.25.6-1.43.52-2.43.46-.38.87,2-.29,2.06.88a.89.89,0,0,0-.35,1,15,15,0,0,0,.64,1.46c-.69.33-.85-.4-1.33-.37.33.28.66.57,1,.87-.07.1-.4-.08-.57-.16.3.55,1.41.58,1.55,1.4.73.42,0,.5-.73.6s-1.35.25-.81,1.05c-.47-.08-.73-.58-1.26-.85.24.73.29,1.06.4,1.39s.32.71.61,1.59c-.45,0-.88-.06-1.29-.11,1.22.37,1.72,1.82,1.89,3.25a9.6,9.6,0,0,0,1.32.47l-.21.8-.26.75c-.3-.09-.52-.58-.78-1.2,0,.16,0,.31.05.44-.73-.13-1.09-1-1.41-1.82l1,.42a7.15,7.15,0,0,0-1.58-2.44.87.87,0,0,1,.05.55,1.55,1.55,0,0,0-.37-.52c-.13-.09,0,.23.13.64l-1.32-1.13.4.56c-.61,0-1.18.05-1.75.05.1,1,.3,2.11.31,3.24a4.46,4.46,0,0,1-.89,3c-.19-1.33-.89-1.83-1.58-3.15,1.17,1.11.85-1.21,1.69-1.42-.46.12-.75-.54-.8-.81-.14.68-.36,1.32-.57,2-.57-1.07-.72-.61-1.31-.87,1.4,2-.33,1.95-.62,2.9-.37-.71-.57-1.52.21-1.7-1.52-1.24.15,3-1.31,2,.17-.1.32,0,.23-.44-.14.85-1.45.79-1.46,0l.19-.09c-1.35.25-3.94,1.5-3.47,3.49-.1-.25-.67-2.37-.73-2.78,0,2.44,0,4.87,0,7.3-.4-1.71-2.74-5.26-1.93-6.63a1.09,1.09,0,0,0-1.43.63c.32.14,1.48,2.13,1.24,2.4-1.56-1.48-1-.74-2.67-1.82.49.2,1.17,2.88.61,3a21.48,21.48,0,0,1-1-2.8c-.1,1-.19,2.05-.24,3.07.12-.6-.91-2.09-1.56-2.62.38.39-1.24.54-1.5,1l.89.22c-1.78.54.32,4.09-1,4.84-.16-.55-1.45-3.13-2.42-2.89.22.68.78,2.28,1.36,3.91a14.3,14.3,0,0,1,1.07,3.94l-.7-.41c0,.43,0,.85,0,1.27a21.28,21.28,0,0,1-1.83-4.09,17.16,17.16,0,0,1-.84-4.35c-.93-.06-.72-.62-1.52.12-.78-.32-.24-1.25,0-1.49a25.46,25.46,0,0,0-2.35,1.36c1.16,1.1-.3,2.56.75,3.4.23-1,.47-2.06.81-3.09a5.73,5.73,0,0,1,1.21,2.75,2.55,2.55,0,0,1-.48,2.52c-.74-.11-1.93-2.14-2.34-2.49.25.56-.25,2-.65,1.83l-.19-1.12c-.55.19-.4.84-.33,1.42s.09,1.08-.85,1.1c-.3.25-2.38-.17-1.63.4,1.92.44,6.64,3.58,7.61,4.59-.07,0-.68.08-1.35.18a9.37,9.37,0,0,1-2,.15,4,4,0,0,1-2-1.31c-.61-.6-1.18-1.23-1.84-1.31a2.61,2.61,0,0,1,.75,1c-.52.16-1.11-.8-1.36.05,1.37.88-.87,1.49,1,1,.07.93-.67.63-1,1.53a4.23,4.23,0,0,1,1.89,1.26,4.76,4.76,0,0,1,1.25,1.74,3.18,3.18,0,0,0-1.19-.24,12.73,12.73,0,0,1-1.1,1.67,4.44,4.44,0,0,0-.9,1.71c-.41,0-1.05.62-1.66.16.23.28.72.59.65,1.05-1.56.58,0-1.06-1.78-.76.89.27,1,1.47,1.49,2.21,1.49.07.52-1.39.13-2.18a7,7,0,0,1,2.7,1.36,5.94,5.94,0,0,1,1.76,2.12c.33,1.16-1.36.27-1.1.51-.65,2.08,3.27,2.15,1.66,3.7-1.32.59-2.55-.15-3.48-.06-.41-1,.94-1.38.94-2l-.67.72c-.4-.34-.67-1-.25-1.32-.63.23-.75,1.17-.89,2.24a7.6,7.6,0,0,1-.76,3.13c.42.32.86.85,1.38.61l-.17-.54c1-.46,1.42,1,1.91.37.71.72,1.85,1.48,1.28,2.47L232,371c.43,0,.87-.66.42-.93.65.4-2,1.56,0,2l1-.72c.75.69,2.34,1.49,1.91,2.37,1.43-.46-.18-.2,1.49-.87-2.08.6,0-2.18-2.17-1.28,2-.66.83-1.09,2.49-1.9-.48,0-.93.28-.68-.41A3,3,0,0,1,236,369l0,0-.06,0c-.07,0-.09,0,0,0a1.81,1.81,0,0,1-.74.35c-1.1-.35-1.05-1.49-1.61-1.9.23-.41.55.2,1.06,0l-.83-.6c1.08,0,1.84-1,2.42,0l.09-.85c.61-.48.92-1.11.51-1.57.26-.36-1.1-1.12-.29-.68-.19-.47-.33-.91-.5-1.38l.27,0a6.87,6.87,0,0,0-.26-2,1.59,1.59,0,0,1,1.19-1.86,1.35,1.35,0,0,1,.15-1.55l.92.16c-.17-.63,1.39-1.09.56-1.65,1.24.21,1.59-.24,1.75-.84s.14-1.36.54-1.61l-1-.63a4,4,0,0,0,.42-2.06l-.91-.58c-.17-.55.25-.82.78-1a3,3,0,0,0,1.42-.72c.25.33,0,.42-.29.4,1.28.36,1.37-.27,1.44-1.11s.25-1.65,1.2-1.28c0-.47.25-.47.56-.36,0,0,0,.05,0,.09l.1,0c.2.08.42.19.62.26a2.27,2.27,0,0,0-.57-.3,1.88,1.88,0,0,0,.49-.83l.72.92s0,0,0-.07c.49.22,0-.59-.63-1.25a2.77,2.77,0,0,0,.05-.83c1.13,1.5.5-1,1.76.6-.22-1,1.27-1.41.69-3.35.12.24.27.31.09.41.49,0,1,.1,1.1-.58l.71,1.29.17-2.18a2.07,2.07,0,0,1,1.14,2.28c.67-2.11.83-1,1.36-3l.27.91c.39-.18.62-1.62,1.14-1,1.57,1.34,4.73-1.5,8-1.41-.89-1.09-.46-1,.08-.84s1.23.28.73-.68c.47.49,1,.6.91,1.33a3.07,3.07,0,0,1,1.59-.95c.49-.2.86-.5.75-1.53.54.43.3,1,.66,1.19,0-.18.06-.74.42-.53s.17.59.12,1c1.25-1.11.06-2.79-1.08-4.31,1.14.23,1.39-.14.9-1.45.61.26,1.41.37.87,1.25a11.9,11.9,0,0,0,1.57-1.2c.61-.55.84-1.31.26-1.77.41.09.53-.56.47-.78a5.27,5.27,0,0,0,1.35-2.1l-.38.17c-1.43-1.26.11-1,.27-2l.16.1c1-.73.93-1,.87-1.28s0-.47.95-1.26l-1.13-.21c-1.16-.44-.7-.74,0-1.15s1.58-.95,1.19-1.62l-.71.29c-.36-.38.53-.65,1.57-.95s2.25-.64,2.43-1c.22-.12.33.28.44.51,1.64-1.64-1.46-.41-1.69-1.74.83-.17,2,.51,2.25-.39.34-.2-.23-.92-.78-1.65s-.93-1.55-.15-2.14c-.63.27-1.25.51-1.72-.06-.25-.83,2.32-2.47.28-3.15a.87.87,0,0,1,.48-.18c-.55-.64-1-2.09-2.1-2.36,1.94-.47,1.38-1.46.75-2.3s-1.27-1.61.54-1.83l-.45-1.89H275c.08-1.24-.84-1.54-1.76-1.86.21-.31.57-.15.76-.15.53-1.81.35-1.91-1.58-3.14l1.17-.23c-.36-.13.07-.85.37-1.76a2.93,2.93,0,0,0-.41-3,.93.93,0,0,1,.56.14c-.88-1.05-.42-2.67-.53-4.23s-.77-2.87-2.86-2.11a11.78,11.78,0,0,0-1.87-.75c.54.93.07,1.14-.46,1.27s-1.18.22-1.25.72a1.13,1.13,0,0,1-.24-1.16c.1-.45.37-.81.77-.54l-.06.25c1-.6.69-1.21.28-1.8s-1-1-.5-1.61c-.85-.71-1.75-1.24-2.61-1.88s-1.76-1.14-2.66-1.56a17.42,17.42,0,0,0-5.48-1.91l.2,1.8a10.38,10.38,0,0,0-1.19-.23c-.28-.43-.33-1.39.56-1.25-.39-1-1.56.71-1.59,1.09-.82-.41-.65-.89-.31-1.31s.85-.71.57-.75-.5,0-.74.08l.15.21c-.62.7-.68,1.46-1.71,1.36-.65-.36-.35-1.08-.61-1.15,0-.12-.09-.18-.4,0l-1.55-.08.68,1.35c-.63.7-1.39,0-.62,1.51-.56-1.16-2-1.28-3.28-1.1s-2.53.6-2.9.29a3,3,0,0,1-2.65,1.45c.34.22.84,1.68-.08,1.73-.46-3.18-2-.93-3.4-2.89.56.63-.08.92-.63,1.27s-1,.79-.15,1.65c-.82,0-.43-1.12-1.24-1.64-1.35,1.77-4.2.65-6.25,2.06.15.4.77.82.58,1.6-.67-.48-1.35-.91-2-1.35-.35.4.7,2.35-.74,1.45.28.25.68.64.47.91-2.53.17-4.46,1.86-6.28,3.58-.93.87-1.84,1.75-2.89,2.59-.55.39-1.09.83-1.74,1.22s-1.33.8-2.14,1.2c1.12-.27.9.24.62.76.37-.23.9.52,1.43.74a15.8,15.8,0,0,0-2.45,1.46c.66.51.49,1.12.32,1.73s-.23,1.22.47,1.46l-.13-.78c.79.69,1.79.51,2.91.44a7.86,7.86,0,0,1,3.38.32c-.43-.3-.45-.53-.23-.67a3.09,3.09,0,0,1,1-.29c.74-.16,1.48-.2.53-1.48.51.06.5.58,1,.78-.68-.77-.58-1.18.13-1.4l.14.21a3.14,3.14,0,0,1,1.78-1.33c.68-.25,1.51-.37,2.53-.72l-.8-.83c.48-.15.76.09,1.1.2-.53-1.72-1.13.66-1.83-1.15,1,.76,1.59.27,2.33-.11s1.47-.72,2.29.33c.65-.34-.82-1-.16-1.39l.5.53-.26-.9c.52-.08,1.14.6,1.42,1.13-.13,0-.22.29-.31.39.92.47,1.44-1,1.78-.86l-.84-.1c1.58-1.49,4.27-1.55,5.75-3.54l-.31-.46c1.2-1.43,1.36.17,2.87-.73l0,.13a1.36,1.36,0,0,1,1-1c-.26.71,1.08,1,.69,1.8,1.38-1.39.6-1,1.31-3.17l.42.83c.23-.86.19-1.28,1-1.67-.58.88.76,1.23.15,2.37,1,.8,1.57.26,2.06-.2s.89-.73,1.4.64c.61-2.52-1.64-1.21-1.24-1.78-.49-.76.49-1.88,1.11-1.69.61,0,1.21,3.06,2.54,2.95-.14,0-.14.18-.28.18.51.6,1-.84,1.59.17.41-1.49.77.13,1-1.75a12.58,12.58,0,0,0-1.29.38c.7-.5,1.57-2.64,2.73-1.47a3.86,3.86,0,0,1-.82,1.1c.29.57.71-.32,1,.31-.31,1.83-1.54.26-2.35,1.65.29.82,1.44-1.27.93.75.35-1.27.7-1.2,1-1s.66.49,1.26-.43l-.25,1.11c.16-.17.52-.62.75-.54-.24.45-.47.89-.69,1.34.86-1.06.92,1.3,1.53.83-.51-.17-.52-.49-.38-.93s.4-.94.22-1.4c1-.54,1,.3,1,1.17a7.92,7.92,0,0,0,0,1.27c0,.37.15.62.51.63-.22.08-.35-.91.12-1.26a1.91,1.91,0,0,1,.14,1.46c.38.1.52-.16.62-.51s.15-.79.5-1c-.21.68-.05.61.26.37s.79-.66,1.09-.68l-.69.92c.28,1.22,1.85-1.69,2-.24a16.15,16.15,0,0,0-1.41.81l.61.06-1,.82c1-.34,1,0,.87.51.63-.52,1.81-1.07,2.1-.59-.46.63-1.05.32-.62.88-.72.11-1.59.42-.76-.3-.34.15-.7.24-1,.4-.57.57.12.64.21.85a.47.47,0,0,1,.17-.3,6.72,6.72,0,0,1,1.82.41,1.39,1.39,0,0,1-1.1.21c.17.17.73.17.9.5a5.33,5.33,0,0,1-2.39.08,6.42,6.42,0,0,1,1.22.71c-.38.14-1,.73-1.38.64-.23.32.27.64.75,1s.92.91.6,1.47a.77.77,0,0,1,.52.39c-.06.61-.35,1.22-.44,1.85a1.76,1.76,0,0,0,.73,1.76l-1.57.94c.5.95,2-1.25,2.81.33.68,1.11-1.36.63-1.77,1.1.91.45,2.75,1.24,1.52,2.43C264.57,303.5,264.78,303.21,264.61,302.9ZM266,314.08c-.24-.23-1-.66-.29-.79C267.06,313.57,266.43,313.74,266,314.08Zm-3.82,14.63c-.11-.41.19-.41.69-.25C262.81,328.66,262.6,328.78,262.22,328.71ZM235.68,365.3l-.06,0C236.11,364.84,235.92,365,235.68,365.3Zm-.55,1a.53.53,0,0,0,.47.07c-.28-.08-.29-.31-.2-.56C235.1,365.83,234.88,366,235.13,366.27Zm16.71-91.2.25.3C251.55,275.71,251.7,275.41,251.84,275.07Z"/><path class="cls-6" d="M262.58,326.33a2.55,2.55,0,0,1,.48.4A.62.62,0,0,0,262.58,326.33Z"/><path class="cls-6" d="M263.1,295l0,0-.21,0Z"/><path class="cls-6" d="M230.16,347.41a1.22,1.22,0,0,1,.77-.14A.54.54,0,0,0,230.16,347.41Z"/><path class="cls-6" d="M237,371.63l-.31-.64c.06.31-.19.43-.37.6C236.61,371.56,237,371.43,237,371.63Z"/><path class="cls-6" d="M230.21,377.92c.14.09,0,.21.18.3l.53-.06C230.85,377.73,230.4,377.45,230.21,377.92Z"/><path class="cls-6" d="M233.22,372.36c-1,.09-.62.51-.43,1a.22.22,0,0,1,0-.08C234.15,373.34,233.68,372.86,233.22,372.36Z"/><path class="cls-6" d="M232.83,373.45a.78.78,0,0,1,0,.45C233.42,373.93,233,373.71,232.83,373.45Z"/><path class="cls-6" d="M235.71,367.56c-.25.21,1.24.17.84.28C237.77,368.12,235.1,366.38,235.71,367.56Z"/><polygon class="cls-6" points="230.04 372.87 231.23 372.65 230.26 372.4 230.04 372.87"/><path class="cls-6" d="M230.86,369c-.12.26-.23.52-.34.78a.46.46,0,0,1,.41.21C231,369.49,231.21,369,230.86,369Z"/><path class="cls-6" d="M230.93,370a.62.62,0,0,0,.21.62A1.3,1.3,0,0,0,230.93,370Z"/><polygon class="cls-6" points="229.65 371.8 229.89 371.56 229.97 371 229.65 371.8"/><path class="cls-6" d="M231.72,360.73l-.18-.88c-.39-.16-.68,0-.57.36S231.31,360.79,231.72,360.73Z"/><path class="cls-6" d="M228.13,362.9c.27-.22.54-.2,1-.29l-1.47-.2Z"/><path class="cls-6" d="M228.13,360.24c-.39-.14-.92-1.52-1-.34C227.46,360.07,227.69,361,228.13,360.24Z"/><polygon class="cls-6" points="234.39 348.2 234.3 348.41 236.39 349.64 234.39 348.2"/><path class="cls-6" d="M239.61,335c-1.39.16.53,1.42-.8,1.43.07.64,1.08,0,1.1.57C240.2,336.09,240.73,336.24,239.61,335Z"/><path class="cls-6" d="M239.91,337a2.37,2.37,0,0,0-.11.52A1.45,1.45,0,0,0,239.91,337Z"/><path class="cls-6" d="M212.59,295.67a8.62,8.62,0,0,0-.73.87c.31-.16.61-.32.93-.46Z"/><path class="cls-6" d="M214,297.82h-1.57c.43.26.87.5,1.3.73C213.68,298.34,213.62,297.92,214,297.82Z"/><path class="cls-6" d="M262.8,315.31l.37.08c.41,0,.45-.16.53-.39Z"/><polygon class="cls-6" points="263.93 307.88 263.91 308.01 265.29 307.64 263.93 307.88"/><path class="cls-6" d="M261.34,301.05c0,.32.34.63.32.93C261.33,301.38,263.06,300.73,261.34,301.05Z"/><path class="cls-6" d="M229.64,411l-1,.34Z"/><polygon class="cls-6" points="231.85 410.43 231.46 410.54 232.43 410.29 231.85 410.43"/><path class="cls-6" d="M231.86,410.55c1.66-.38-.28,0,.3-.14l.38-.1-1.33.33C231.42,410.59,232.32,410.43,231.86,410.55Z"/><path class="cls-6" d="M230.8,410.78l-.1,0h.1Z"/><path class="cls-6" d="M230.71,410.79Z"/><path class="cls-6" d="M231.11,410.73l-.11,0,.08,0Z"/><path class="cls-6" d="M231.21,410.72h0Z"/><path class="cls-6" d="M231,410.74h0Z"/><path class="cls-6" d="M231,410.75c-.06,0-.14,0,0,0C230.72,410.79,230.75,410.79,231,410.75Z"/><path class="cls-6" d="M233.58,410.19l.49-.13-.57.1C233.78,410.11,233.06,410.3,233.58,410.19Z"/><path class="cls-6" d="M231.65,410.67h0Z"/><path class="cls-6" d="M231.61,410.67h0Z"/><polygon class="cls-6" points="231.74 410.64 231.03 410.74 231.76 410.64 231.74 410.64"/><polygon class="cls-6" points="231.91 410.65 231.88 410.65 231.94 410.65 231.91 410.65"/><path class="cls-6" d="M232.07,410.65h0Z"/><path class="cls-6" d="M232.17,410.65h0Z"/><path class="cls-6" d="M231.82,410.66h0Z"/><path class="cls-6" d="M231.84,410.65Z"/><path class="cls-6" d="M231.81,410.66h0Z"/><path class="cls-6" d="M231.46,410.68l1.41-.13Z"/><path class="cls-6" d="M231.79,410.66h0Z"/><polygon class="cls-6" points="231.82 410.65 231.79 410.66 231.81 410.66 231.82 410.65"/><path class="cls-6" d="M232.12,410.65h0Z"/><path class="cls-6" d="M232.1,410.65h0Z"/><path class="cls-6" d="M232.22,410.65h0Z"/><path class="cls-6" d="M232,410.65h0Z"/><path class="cls-6" d="M236.26,411.3c-.93-.16-1.79-.33-.78-.24-.35-.07-1.29-.18-2.37-.3l-.82-.1h0l1.07.14c.47.09-.34,0-.83-.1,1.16.16,1.68.3,3.39.61l-.59-.16C235.59,411.19,236,411.28,236.26,411.3Z"/><path class="cls-6" d="M232.28,410.66h0Z"/><path class="cls-6" d="M232.2,410.65l.3,0-.33,0Z"/><path class="cls-6" d="M235.07,410.38l-.23,0A.57.57,0,0,0,235.07,410.38Z"/><path class="cls-6" d="M234.46,410.46c-.15,0-.56,0-.45,0,.3,0,.49,0,.83-.07a12,12,0,0,0-1.24.1h.14c-.35.06-1.63.14-1.77.15C232.9,410.59,233.55,410.55,234.46,410.46Z"/><path class="cls-6" d="M232.46,410.65l.5,0h.36A6.43,6.43,0,0,0,232.46,410.65Z"/><polygon class="cls-6" points="232.29 410.66 232.29 410.66 232.29 410.66 232.29 410.66"/><polygon class="cls-6" points="232.3 410.66 232.3 410.66 232.3 410.66 232.3 410.66"/><path class="cls-6" d="M226.86,413.43l-.26.07A1.45,1.45,0,0,0,226.86,413.43Z"/><path class="cls-6" d="M226.94,413.76l.42-.2A2.3,2.3,0,0,0,226.94,413.76Z"/><path class="cls-6" d="M229.54,409.76c-.7-.55-1.76-1.41-.95-.73l.8.66C229.26,409.56,229.36,409.62,229.54,409.76Z"/><path class="cls-6" d="M232.69,412.68l-.25.2.81-.59Z"/><path class="cls-6" d="M229.25,415.24l.49-.46C229.56,414.93,229.4,415.09,229.25,415.24Z"/><path class="cls-6" d="M225.19,412.06l-1,.22C224.19,412.38,224.69,412.19,225.19,412.06Z"/><path class="cls-6" d="M230.89,410.08l-.18-.1Z"/><path class="cls-6" d="M236.9,409l-.57.26Z"/><path class="cls-6" d="M230.42,409.82l.06,0,.23.13Z"/><path class="cls-6" d="M226,405.08l.13,0C226,405.06,226,405.06,226,405.08Z"/><path class="cls-6" d="M236.15,407.69l.07,0C236.29,407.76,236.28,407.76,236.15,407.69Z"/><path class="cls-6" d="M232.06,410.6Z"/><path class="cls-6" d="M233,410.86l.48.14Z"/><path class="cls-6" d="M235,412.68Z"/><path class="cls-6" d="M232.1,410.61h0Z"/><path class="cls-6" d="M232.09,410.61h0Z"/><path class="cls-6" d="M232,410.59h0Z"/><path class="cls-6" d="M228.31,408.66h.1C228,408.62,228.05,408.64,228.31,408.66Z"/><path class="cls-6" d="M230.41,417l0,0,0,0Z"/><path class="cls-6" d="M229.77,417.41c.94-.88.85-.75.69-.52l2-2.2Z"/><path class="cls-6" d="M226.28,412.82l-.83.43a7.38,7.38,0,0,0-2.21.69c3-1.13.49.36,3.5-.85l-.6.33s-.16,0-.14,0c-1.37.74,2.21-.81,1.84-.49a3.87,3.87,0,0,1-1,.5l.78-.21c0,.06-.55.29-.51.23l.32.07-.09,0,1.52-.6a6.66,6.66,0,0,1-.68.32L229,413c-.74.41-1.51.7-1.43.58-2.86,1.53.77-.29-.81.77l-.42.09a9.21,9.21,0,0,0-1.9,1.36,22.68,22.68,0,0,1,3.2-1.85c-.2.14-.28.24.32,0-1,.55-.73.48-.63.52l-1.34.73a18.75,18.75,0,0,0,1.73-.81,15,15,0,0,1-1.95,1.3c-.12.27,1.58-1.06,1.93-1-.44.41.15.18,1-.19a13,13,0,0,1-1.15.75l1.07-.59a3.45,3.45,0,0,1-.49.32c.43-.2,1.28-.82,1.68-1,1.41-.92-1.94,1.53-.29.55-.34.28-.77.53-1.25.87a18.65,18.65,0,0,0,2.26-1.29l-.74.68c.87-.74,2-1.47,2.95-2.1l1-.8.7-.44c-.19.16-.61.47-1.12.85l.3-.21c-.43.37-1.14.9-1.83,1.4l.72-.6c-.75.54-1.59,1.14-2.3,1.68l.36-.22c-.21.15-.39.28-.51.38s.16-.09.48-.31l-1.33,1.06.54-.41-.72.82c1.44-1,3.44-2.48,4.06-2.85-1,.79-1.55,1.33-2.67,2.3,1.15-1.06-.61.31-.44,0a5.21,5.21,0,0,1-.84.74c.41-.25.82-.5,1.22-.76a4.9,4.9,0,0,0-1,1,5.68,5.68,0,0,1,1.89-1.38c-.59.55-1.21,1.08-1.13.88-1.26,1.29,2.17-1.78,1.1-.69,0,0,.06-.09-.25.18.56-.45.23,0-.3.49h0c-.1.32.33.37,1.75-1.09l-2,2c1.66-1.56,3.29-3.16,4.87-4.8-1.21,1.26-4,4.37-4.74,5-.14.2-.3.45.18.06.15-.21,1.67-1.9,1.8-2-1.25,1.49-.67.81-1.68,2.12.22-.31,2.07-2.32,2-2.22-.27.3-1.78,2-2,2.22.63-.63,1.25-1.27,1.87-1.92-.34.34-1.5,1.71-2,2.31.12-.14.16-.17.17-.15l1.88,2.65,4.87-3.19s.2,0,.08-.08l-.51-.36c.41.15-2.81-2.53-2.63-2.52.42.36,2.61,2.19,2.92,2.35l-5.85-5,.63.48-.67-.6c1.62,1.28,5,4.1,6.2,5.25.52.35.73.57.73.45a3.12,3.12,0,0,1,.85.79l.52.12c-1.27-1-1.16-1.13-2.23-1.94l1.17,1.21a26.82,26.82,0,0,1-3.21-2.84c.53.37,2.26,1.76,2.68,2.09-.43-.36-.76-.75-.43-.53l.64.57c.54.3-1.62-1.39-.33-.55.1,0,1.74,1.12,1,.55-1.53-1-6.11-4.35-7.22-5.16.11.06,1.48.95,2.24,1.44,1.21.78,2.77,2,3.8,2.69-.36-.26-.78-.59-.92-.7.33.18,1.11.79,1,.6-1.33-.93.21-.06-1.11-.8-.35-.33.32.12.31,0-.89-.56-3-2-3.33-2.29l1,.63c.18,0,.85.3.93.2.34.18.8.36,1.39.72a6,6,0,0,1-.73-.5c1.29.58.15.2,1.67.94a18,18,0,0,1-1.59-1.06c-1.31-.64-.3,0,.18.34-1.76-1-3.58-2.06-4.41-2.49-.44-.24,1.18.56.92.43a5.56,5.56,0,0,0-1.29-.65l-.45-.2,0,0,.13.05,2.95,1.17c.42.24-.79-.23-.75-.19l.57.2c.39.18.66.36.32.23,1.07.42.3-.14,1.35.07a13.1,13.1,0,0,0-1.31-.47l.16.09c-1-.31-1.35-.49-1.82-.61s-.79-.27-1.07-.35l.06,0,1.2.31c-.41-.1-.84-.21-.41-.09-.63-.16,1.92.45.07,0l-.84-.19h0l-.08,0h0l-.15-.05s0,0,0,0l0,0s-.08,0,0,0l-.09,0-.22-.09-.08,0-.2-.09h0l-.39-.19-.46-.26-.41-.24,0,0-.27-.17-.28-.17-.57-.37-.53-.37,1,.69c-.07,0,.21.18.59.49l.86.63c.69.55-.65-.39-.59-.29-.33-.26-.23-.2,0-.06-1.94-1.44,1.31,1.19-.12.15.29.26.18.18,0,0l-.05,0h0l-.45-.34.45.35a2.6,2.6,0,0,0,.29.3l-.89-.72,0,0a11.2,11.2,0,0,0,1.08.91l.51.46c-1.43-1.18.44.45-1.08-.81l0,0h0l7.42-.59v0l0,.06-.1.1-.16.18-.29.31c-.22.23-.53.55-1.21,1.3.17-.19.25-.29.27-.3.14-.18.28-.37-.11,0l1-1.08-1.37,1.42c.59-.68.94-1.05,1.72-1.86-1.22,1.23-.46.45-1.7,1.65l.67-.68s-1,.9-.41.34c1.25-1.29,0-.33,1.23-1.5-2.1,1.83.92-.83-.72.57l1.22-1c-.51.39.8-.68-.63.44l1.06-.84c-.11.09-.45.35-.15.1l.66-.52c-.19.16-1.7,1.32-3.2,2.48.7-.58.6-.5-.42.23.49-.38,1-.78,1.2-.9s.68-.6-.56.28c.32-.23.08-.08-.06,0,.05-.08.16-.16,0-.12l-.2.15c-1.54,1-.36.2-.57.29l.16-.1c1.07-.79-.56.3.68-.57l-1,.61c-2.11,1.27,1.19-.83.37-.37l-.55.34c-.75.39,2.86-1.73,3.14-1.87l.44-.24c1.26-.72-1.31.73-1.63.87l1.94-1.06c.58-.29-2.35,1.19-1,.47-.56.28-1.11.56-1.54.76-.21.05,2.11-1.07.32-.25l.45-.21-1.78.7c1.81-.79,1.36-.61.87-.45s-1,.33.68-.32l-.2,0,.35-.12a12.07,12.07,0,0,0-1.45.43l.74-.24c.68-.29.54-.21-1.22.24l1.14-.33c-.67.16,1.78-.55.43-.24l.52-.12c-.68.14.1-.08.55-.18s.54-.11-1.59.27l-1.05.13c-.32.14-1.85.31-2.54.46a6.28,6.28,0,0,1,1.49-.3l-.22,0c2.22-.35.77-.22,2.29-.44-.12-.1,1.11-.29,1.2-.31l-1.74.07.1,0c.4,0,1.36,0,1.29,0,1,0-.83,0-1.21,0,.71,0,2,0,2.08,0h-.33a11.11,11.11,0,0,1-1.39,0h1.15c.12,0,.18,0,0,0h.15l-1.38,0a14.46,14.46,0,0,0-1.49-.07c2.4.06.88-.12,1.62-.09-1-.12-1-.16-.85-.18a12.58,12.58,0,0,1-1.64-.24c3.17.44,1.4.12,3.67.46-1.51-.22-.36-.11-2.5-.46.26,0,1.18.21,1.92.33-1.21-.29.8.09.4,0l-1.63-.43,2,.52c-.2-.06-2.34-.67-.93-.28-.34-.1-.85-.24-1-.29,1,.23.61.08.45-.06s-.09-.21,1.67.58a8.35,8.35,0,0,1-.84-.4l-1.45-.68c.48.21,1,.42,1.44.64-1.41-.71-.08-.08-1.41-.79l.23.15c-1.57-.86-3.55-1.76-5.6-2.78.89.5.19.21-.42,0s-1.13-.35.16.31c-.44-.16-.66-.33-1.15-.53.87.45,1,.56.6.47l-.22-.1c.13.33-.8.06-1.53.16l1.08.36a4.58,4.58,0,0,1-.79-.16c1.6.63.16-.14,1.92.56-2.21-.69-.18.37-2.68-.34-.05.1,1.26.35,1.22.44l-.69-.17.87.28a10.58,10.58,0,0,1-1.6-.34c.07,0-.15-.1-.2-.13-.83-.13.2.34-.07.3h.45c.56.44-.43.62,1,1.16l.52.07c.94.36-.6.06-.19.35l-.12,0c.52.12.77.21.71.25-.62-.13-1.22-.05-1.9-.21a11.9,11.9,0,0,0,2.78.56l-.88-.06a7.53,7.53,0,0,1,1.43.27c-.75-.14-1.35-.05-2.34-.22-2,.11,1.92.44-.91.4,2.44.21,1.37-.12,1.89,0,.8,0,1.82.17,1.57.21,0,0-3.13,0-3.08.19,0,0-.18,0-.17,0-.62.07.85.15-.17.24a17.2,17.2,0,0,0,1.81.1l-.44-.16c.5.1,2.71.12,1.64.27-.39,0-.89,0-1.17,0-.55.06.37.07-.2.13-1.89.06-.41-.18-1.85-.27-.8.08,1.37.19-.68.18,2.6,0-.33.22,1.67.27l-1.14,0a4,4,0,0,1,.7.07h-1.48c1.26,0-1.07.3-.38.38-.06-.24,1.35-.16,2.17-.31,1.53.12-2.94.38-2.37.69-.16,0,.66-.24,1.19-.23a7.24,7.24,0,0,1-1.23.32c.25.2,1.15-.17,1.85-.16-1.36.24.57,0,1,.05l-1.14.15c-.7.34,2.38-.28,1.53,0l-1.59.16.42,0-1.3.19c1,0,.74,0,.4.22a10.26,10.26,0,0,1,2.11-.29c-.66.2-1.08.18-.9.28-.71.11-1.6.25-.57,0l-1.08.17c-.76.23-.14.24-.12.29a.69.69,0,0,1,.25-.12c.54,0,1.07-.07,1.6-.12a7.79,7.79,0,0,1-1.09.22c.13,0,.65-.07.76,0a15.46,15.46,0,0,1-2.31.42l1.07,0c-.4.11-1.06.38-1.4.43-.5.28,1.83-.15,1.17.18a3.54,3.54,0,0,1,.49-.08c-.17.2-1.22.68.06.45l-1.56.63c.4,0,2-.8,2.63-.79s-1.33.52-1.76.73c.83-.19,2.49-.69,1.26-.07C226.2,412.94,226.41,412.81,226.28,412.82Zm1.33,1.13c-.23.09-.92.38-.33.05C228.47,413.42,227.92,413.73,227.61,414Zm3.42.2c-.31.23-.18.09.15-.2C231.27,413.9,231.25,414,231,414.15Zm.71-3.67Zm.14,0h0l-.07,0Zm4.18-2.14h0Z"/><path class="cls-6" d="M229.65,415l.49-.39A3.49,3.49,0,0,0,229.65,415Z"/><path class="cls-6" d="M225.38,412h0l-.2.06Z"/><path class="cls-6" d="M238.51,415.54l-.52-.3A1.9,1.9,0,0,0,238.51,415.54Z"/><path class="cls-6" d="M232.24,410.65h0Z"/><path class="cls-6" d="M235.52,411l-.15,0-.54-.05A2.58,2.58,0,0,0,235.52,411Z"/><path class="cls-6" d="M232.26,410.65c.9.21.61.13.43.09h0Z"/><path class="cls-6" d="M232.66,410.73h0C232.1,410.63,232.53,410.7,232.66,410.73Z"/><path class="cls-6" d="M232,410.57h0S231.89,410.54,232,410.57Z"/><polygon class="cls-6" points="235.36 411.32 234.19 411.08 235.13 411.3 235.36 411.32"/><path class="cls-6" d="M234.45,411.33l.33.05-.39-.12S234.11,411.23,234.45,411.33Z"/><path class="cls-6" d="M234.39,411.26s0,0-.18-.08A.59.59,0,0,0,234.39,411.26Z"/><polygon class="cls-6" points="235.69 411.48 235.44 411.44 235.35 411.45 235.69 411.48"/><path class="cls-6" d="M234.07,411.66l.28.19c.37.2.6.3.46.2A6.89,6.89,0,0,0,234.07,411.66Z"/><path class="cls-6" d="M237.13,412.85c-.24-.08-.48-.18-.85-.33l1.35.61Z"/><path class="cls-6" d="M237.32,413.25c.37.19,1,.67,1,.5A3.9,3.9,0,0,0,237.32,413.25Z"/><polygon class="cls-6" points="235.11 413.3 235.1 413.28 233.12 411.87 235.11 413.3"/><path class="cls-6" d="M239.05,417.7c.52.29-1.14-1-.52-.58-.43-.39-.5-.33-.87-.66A8.59,8.59,0,0,0,239.05,417.7Z"/><path class="cls-6" d="M237.66,416.46l-.27-.26Z"/><polygon class="cls-6" points="237.34 408.24 237.73 408.44 237.06 408.1 237.34 408.24"/><path class="cls-6" d="M235.74,407.39l1.37.72-1.23-.66C235.94,407.48,236.05,407.55,235.74,407.39Z"/><path class="cls-6" d="M225,415.65l.33-.17c.34-.21.36-.24.39-.31Z"/><polygon class="cls-6" points="225.43 413.94 225.41 413.98 226.68 413.38 225.43 413.94"/><path class="cls-6" d="M223.34,413.52c0,.06.28,0,.24.08C223.3,413.58,225,412.93,223.34,413.52Z"/><polygon class="cls-7" points="118.48 189.98 282.44 167.7 505.46 183.13 371.83 203.64 118.48 189.98"/></g></svg>