<svg xmlns="http://www.w3.org/2000/svg" viewBox="0 0 637.33 635.77"><defs><style>.cls-1{fill:#c3e6f7;}.cls-2{fill:#969696;}.cls-3{fill:#a38166;}.cls-4{fill:#87654d;}.cls-5{fill:#a66e53;}.cls-6{fill:#361b10;}.cls-7{fill:#4c2713;}.cls-8{fill:#683721;}.cls-9{fill:#22110b;}.cls-10{fill:#5c0e0b;}.cls-11{fill:#c95744;}.cls-12{fill:#4f2e25;}.cls-13{fill:#b15e27;}.cls-14{fill:#df8c26;}.cls-15{fill:#8a8a8a;}.cls-16{fill:#653c29;}.cls-17{fill:#f5f5f5;}.cls-18{fill:#ad7b98;}.cls-19{fill:#606cb2;}.cls-20{fill:#a66f54;}.cls-21{fill:#475a66;}.cls-22{fill:#803868;}.cls-23,.cls-28,.cls-29{fill:#161412;}.cls-23,.cls-28,.cls-29,.cls-30{stroke:#171413;stroke-miterlimit:10;}.cls-23{stroke-width:0.23px;}.cls-24{fill:#010101;}.cls-25{fill:#231f1f;}.cls-26{fill:#151312;}.cls-27{fill:#cd8c2a;}.cls-28{stroke-width:0.23px;}.cls-29{stroke-width:0.24px;}.cls-30{fill:none;stroke-width:0.57px;}.cls-31{fill:#643c2a;}.cls-32{fill:#311811;}.cls-33{fill:#f1edf6;}.cls-34{fill:#4d2770;}.cls-35{fill:#283975;}</style></defs><g id="Layer_10" data-name="Layer 10"><circle class="cls-1" cx="318.06" cy="317.88" r="288.85"/></g><g id="Layer_11" data-name="Layer 11"><path class="cls-2" d="M383.53,471.77l-1.14-1.7a12.34,12.34,0,0,1,1-.71A11.36,11.36,0,0,0,383.53,471.77Z"/><path class="cls-3" d="M515.3,429.22q31.69,0,63.39-.12c4.59,0,8.81.94,9.17,5,.92,10.5,2.21,21.86-13.68,20.73-1.21-.08-2.47.13-3.65,0-5.54-.77-6.39,1.51-5.66,5.54,2.36,13.06,4.52,23,6.69,36.12,5.09,30.76,10.22,61.52,15.16,92.29,1.36,8.49,1.08,8.42-9.53,8.25-3.27,0-4.65-.89-5.1-3.7-4.88-30.28-9.94-60.53-14.77-90.8-.56-3.53-1.88-4.91-6.4-4.88q-35.35.3-70.7,0c-4.64,0-6.23,1.14-6.85,5q-6.84,43.12-14.21,86.18c-1.43,8.43-1.64,8.23-11.93,8.1-4.12-.05-4.59-1.26-4.07-4.33,7.61-45,15.06-86.93,22.69-131.94.78-4.61-.41-6.82-6.38-6a45.77,45.77,0,0,1-6.09.05c-9,0-10.79-4.69-10.8-12.63,0-8.65,1.64-12.86,10.55-12.87q31.1,0,62.17,0Zm34.59,58.19c4.57.1,5.51-1.26,4.86-4.78-1.85-10.16-3.52-13-5.08-23.24-.52-3.38-1.8-4.86-6.43-4.79-18.66.29-37.34.25-56,0-4.27-.06-5.59,1.29-6.09,4.48-1.63,10.54-3.36,13.76-5.25,24.26-.62,3.4,1,4.06,4.6,4,11.76-.15,23.53-.06,35.3-.06C527.17,487.32,538.54,487.15,549.89,487.41Z"/><path class="cls-4" d="M571.51,496.51q1.18,7.13,2.36,14.24c-4.94,1-9.84,2.12-14.74,3.3q-.93-5.74-1.85-11.5c-.57-3.53-1.88-4.91-6.41-4.87q-35.34.29-70.7,0c-4.64,0-6.23,1.14-6.85,5.05q-.88,5.58-1.79,11.16A135.55,135.55,0,0,1,457.69,508c2.69-15.55,5.39-31.21,8.12-47.27a9,9,0,0,0,0-3.73q4.83.31,9.68.5l5.94.18a8.16,8.16,0,0,0-.34,1.47c-1.64,10.53-3.36,13.75-5.26,24.26-.61,3.39,1,4.06,4.6,4,11.77-.14,23.54-.05,35.31-.05,11.36,0,22.73-.17,34.09.08,4.56.1,5.5-1.26,4.86-4.78-1.85-10.16-3.52-13-5.09-23.24a6.52,6.52,0,0,0-1.16-3.16c5.6-.17,11.19-.31,16.79-.37-.76,1-.79,2.53-.43,4.5C567.18,473.45,569.34,483.43,571.51,496.51Z"/><polygon class="cls-5" points="419.77 556.97 421.95 529.44 395.81 530.04 400.07 556 419.77 556.97"/><polygon class="cls-5" points="447.29 563.84 450.31 536.11 424.17 536.7 427.82 563.84 447.29 563.84"/><path class="cls-5" d="M401.52,554.29s-18.6,12.71-28.45,22.6h0s4.87,10.39,10.75,9.7,38.12-20.8,38.12-20.8l-2.62-11.37Z"/><polygon class="cls-6" points="408.95 586 416.29 588.07 415.81 567.66 409.83 571.69 408.95 586"/><polygon class="cls-7" points="415.74 567.09 416.29 588.07 423.59 585.24 421.22 567.66 415.74 567.09"/><path class="cls-6" d="M354.68,593.65a6.82,6.82,0,0,0,4,1c6.78-.39,28-.05,32.58-1.6,6.63-2.27,5.66-.88,12-6.32s17.1-6.73,19.47-8.12-.92-11.57-.92-11.57-.26-2-2.16-1.65l-.3,0-5.71,5.69-15.74,8.75L389,588.72l-17.91.26-14.41-.62s-3.26.88-3.8,1.45a2.07,2.07,0,0,0-.09,2.42A10.31,10.31,0,0,0,354.68,593.65Z"/><path class="cls-8" d="M421.15,562.35c-9.37,1-15.95,10.41-23.53,15.15-3.39,2.13-10.36,6.37-14.37,3.76a13.69,13.69,0,0,1-3.49-1.71c-4.74-3.06-7.45-2.84-7.45-2.84a14.2,14.2,0,0,1-4,3.33c-2.84,1.74-9,4.09-12.26,6.39s-1.95,3.74-1.95,3.74,2.67,1.8,4.77,1.86,6,.08,10.93-.29,19.8-.22,23.41-2.11c2.66-1.39,5.92-1.66,11.2-7.21,4.84-5.09,19.1-5.64,19.68-7.49a15.7,15.7,0,0,0-1-9Z"/><path class="cls-5" d="M429.31,562s-18.6,12.71-28.46,22.6h0s4.88,10.39,10.75,9.69,38.13-20.79,38.13-20.79l-2.63-11.37Z"/><polygon class="cls-9" points="436.94 593.36 444.28 595.43 443.8 575.02 437.82 579.05 436.94 593.36"/><polygon class="cls-6" points="443.73 574.45 444.28 595.43 451.58 592.6 449.21 575.02 443.73 574.45"/><path class="cls-6" d="M382.67,601a6.66,6.66,0,0,0,4,1c5.8-.33,11.64-.23,17.45-.37,6.6-.16,13.31-.08,19.47-2.64,5.59-2.33,9.38-6.84,15-9.09a71.1,71.1,0,0,1,7.45-2.41,20.5,20.5,0,0,0,4.7-1.52c2.38-1.39-.92-11.58-.92-11.58s-.26-2-2.16-1.65l-.3,0-5.71,5.7-15.75,8.74L417,596.08l-17.91.26-14.41-.62s-3.26.89-3.8,1.45a2.07,2.07,0,0,0-.09,2.42A9.88,9.88,0,0,0,382.67,601Z"/><path class="cls-8" d="M449.13,569.71c-9.36,1-15.94,10.41-23.52,15.16-3.39,2.12-10.36,6.36-14.37,3.75a13.81,13.81,0,0,1-3.5-1.7c-4.73-3.07-7.44-2.85-7.44-2.85a14.4,14.4,0,0,1-4,3.33c-2.84,1.74-9,4.1-12.26,6.39s-1.95,3.75-1.95,3.75,2.66,1.79,4.77,1.85a107.79,107.79,0,0,0,10.92-.29c4.92-.38,19.81-.22,23.41-2.1,2.66-1.4,5.93-1.66,11.21-7.22,4.83-5.08,19.1-5.64,19.68-7.49a15.7,15.7,0,0,0-1-9C450.89,573,449.46,570.31,449.13,569.71Z"/><path class="cls-10" d="M566.71,336.19s23.7,50,5.23,85c-8.8,16.66-35.13,16.64-35.13,16.64l-27-34V347.67Z"/><path class="cls-10" d="M370.71,400.54c1.37,40.91,4.67,103.61,11.17,145.36,0,0,40.1,10.54,44.76,1.39,0,0,3.5-73.11,19-123.25,13.65-44.15,96.29-47,86-51.53-34-14.78-90.64-29.14-139.08-12.65C378.84,364.52,369.81,373.42,370.71,400.54Z"/><path class="cls-10" d="M404.29,417.67c-.22-2.64-.58-5.26-1-7.85a113,113,0,0,0-4.49-17.18A118,118,0,0,0,391.59,376a98.84,98.84,0,0,0-6.34-10.45c51.74-8.55,157.87,3.9,157.87,3.9s39.12,12.35,27.73,46.63c-15.1,45.42-127.46,15.9-166,1.78Z"/><path class="cls-10" d="M396.93,367.11a66.54,66.54,0,0,1,13.91,2.28,39.53,39.53,0,0,1-.68-7.15c.95-.78,1.95-1.58,3-2.38A89.1,89.1,0,0,1,425.6,368a111.68,111.68,0,0,1,12.95,11.79,101.13,101.13,0,0,1,10.65,13.39c.9,1.36,13.82,2.75,14.64,4.16-.15,0,0,8.14-.17,8.16,11.69,22.09-6.68,54.78-5.54,94.07,1,34.5,1.1,28.71,2.95,47-5.51,8.3-48.36,4.41-48.36,4.41C407.35,497.8,396.93,367.11,396.93,367.11Z"/><path class="cls-5" d="M522.23,155s-1.64,18.45,3.83,30.67c.76,1.7,9.41,7.82,9.41,7.82l-30.24,21.15c-9.05,2.61-12.86-.36-21.89-3.05l-4.24-13.41s9.54-5.24,9.87-7.41-2.21-18.36-2.21-18.36"/><path class="cls-5" d="M383.69,231.93l9.07,5.35-5.63-.3a28.7,28.7,0,0,0-6.91-2c-1.54.18-1.72,2.44-1.72,2.44l17.35,7,13.08,7.48,17.43-10.08-1.9-9.5-1-10.09L422,216.81l-4.51-7s-2.83.18-2,3.87,1.45,5.83,1.45,5.83l-.26,5.87-2.6.63-15.53-8.09-4-4.3s-2.1-6-6.34-6.91a.86.86,0,0,0-1,1.17l4.26,10.56,4.66,4.26-6.19-3.17s-5.45-7.34-8.69-8.55-2.61,1.25-2.61,1.25l5.63,10.57,8,6.41-6.4-3-7.2-5.63s-2.32-1.65-3.48,0a1.68,1.68,0,0,0,0,2Z"/><path class="cls-11" d="M471.71,239.2l-22.19,60.88L432.08,278.5c7.88-32.39,13.62-64.85,32.52-72.6Z"/><path class="cls-11" d="M426.36,241.78l-20.79,12,11.21,22.9c4.79,10.09,11.07,29.89,19.54,37.17,3.53,3,7,5.78,9.54,6,19.65,1.58,37.24-21.1,37.24-21.1Z"/><path class="cls-11" d="M487.76,192.46c-6.44,3-14.33,7.76-26.29,14.78-5,2.92-5.71,50.12-5.71,50.12l6.39,36.34.12,32.84L451.89,353.6c45.91,3.95,83.81,27.35,126,17.59.55.47,2.19-14.92.47-18.84l-15.32-38.82,7.14-63.95.57-35.18L544.1,194.33,528.43,187s-17.88,22.17-34.07,18.37S487.76,192.46,487.76,192.46Z"/><path class="cls-11" d="M556.94,201.14c-7-4.08-13.12-6.94-13.12-6.94-6.05,3.09-42.42,76.13-42.42,76.13l-54.63-17-12.1,26.88s68,33.36,78.65,33.36c8-.08,41.09-36.66,56.9-61.56,6.41-10.05,8-19.64,4.85-31.13-.58-2.64-3.54-6.85-5.92-10.17C566.55,207,560.81,203.41,556.94,201.14Z"/><path class="cls-10" d="M562.71,263.18c-5.82,9.16-11.77,18.26-18.11,27.09-5.75,8-11.8,16-18.92,22.86-4.39,4.23-9.37,8.3-15.64,8.89-4.65.44-9.58-1.57-13.78-3.33-12.93-5.44-24.91-13.35-36.46-21.24q-12.19-8.32-23.92-17.33a3.41,3.41,0,0,1-.73-.57c-.11-.18-.08.09,0-.28.67-2,1.76-3.91,2.62-5.81l7.29-16.2.49-1.08-.73.23,19.3,8.94,30.75,14.25,7,3.27a.7.7,0,0,0,.72-.23q7.1-14,14.57-27.78c3.73-6.9,7.53-13.77,11.57-20.49,1.59-2.66,3.22-5.3,5-7.84a22.5,22.5,0,0,1,3.58-4.43c1.46-1.22,2.68-2.71,4.21-3.9a23.86,23.86,0,0,1,16.62-4.89c.2,0,.93-.34.51-.38a25.75,25.75,0,0,0-21.22,8.5c-.24.25-.48.37-.92.76a14.19,14.19,0,0,0-1.64,1.82,73.6,73.6,0,0,0-4.56,6.64c-8.32,13.21-15.55,27.15-22.76,41-1.93,3.7-3.85,7.4-5.73,11.12l.72-.23-19.29-8.95-30.75-14.25-7.05-3.26a.69.69,0,0,0-.73.23l-9.21,20.46-1.31,2.92a.06.06,0,0,0,0,.08c4.44,3.47,9,6.81,13.54,10.1,9.51,6.87,19.21,13.49,29.28,19.51,4.89,2.91,9.88,5.7,15,8.12A55.55,55.55,0,0,0,504.9,322a18.53,18.53,0,0,0,9.79-.69c5.4-1.94,9.91-6.31,13.82-10.35a178.51,178.51,0,0,0,16-19.64c5.38-7.42,10.47-15.06,15.44-22.77l3.48-5.44c.16-.27-.62-.16-.74,0Z"/><path class="cls-5" d="M435.73,276.32l-17.9-16.07L410.37,250a102.57,102.57,0,0,1-8.25-8.43c-.87-1.53,0-2.07.66-2.44s10.55,8.22,10.55,8.22-1.87-2.43-4.84-5.61-7.23-6.42-7.49-7.52c-.53-2.2.14-3.16,1.29-3.34s16,13.44,16,13.44l-4.66-6.94s-8.91-6.47-9.94-9.12,1.28-3,1.28-3l11.21,7.44,7,6.19-6.19-7.4s-7.56-6-7.92-8.61S412,220.3,412,220.3l11.05,9,9.59,11.06c-.52-1.94-1.72-4.44-1.68-6.45.14-2.9,2.59-1.61,2.59-1.61l8.59,10.49,2.18,14.72"/><path class="cls-12" d="M436.13,276.17,419,260.75a10,10,0,0,1-1.5-1.72l-4.29-5.87a26.56,26.56,0,0,0-3.08-3.9q-2.77-2.58-5.34-5.34c-.79-.85-2.24-2-2.51-3.16a1.34,1.34,0,0,1,.36-1.23c.19-.24-.18-.22.18-.1a9.73,9.73,0,0,1,2.42,1.68c1.15.89,2.28,1.81,3.4,2.74q2.19,1.83,4.34,3.69c.15.14.95-.11.81-.29a68.88,68.88,0,0,0-7.6-8.32,38.79,38.79,0,0,1-4.3-4.1c-.6-.76-1.06-4.05.48-3.61a7.86,7.86,0,0,1,2,1.46c1,.79,2,1.61,3,2.44,2.25,1.91,4.45,3.85,6.64,5.81q2,1.78,4,3.58c.14.13.92-.13.83-.27l-2.46-3.67a25,25,0,0,0-2.22-3.3,32.66,32.66,0,0,0-3.24-2.48,48.44,48.44,0,0,1-5.26-4.65c-1.11-1.2-2.8-3.65-.66-4.71-.33.17-.33-.16-.14.1a2.85,2.85,0,0,0,.6.4l1.95,1.29c2.8,1.86,5.77,3.58,8.45,5.61,2.48,1.88,4.73,4.15,7.07,6.21.16.14.95-.12.81-.3l-3.26-3.89c-1-1.15-1.87-2.46-2.95-3.52-1.29-1.27-2.79-2.35-4.11-3.61s-4.47-3.81-3.7-6a2.37,2.37,0,0,1,2.07-1.28c.21,0-.19-.07,0,0a7.52,7.52,0,0,1,1.21,1l5.14,4.17a45.3,45.3,0,0,1,6,5.36l8.2,9.47c.12.14.89-.06.84-.26-.36-1.28-.86-2.51-1.23-3.79-.31-1-.84-2.75-.2-3.77.51-.82,1.32-.42,1.79.12,1.78,2.06,3.45,4.21,5.17,6.32l2.47,3a3.13,3.13,0,0,1,.67,1,23.55,23.55,0,0,1,.41,2.76l.68,4.63,1.06,7.12c0,.18.89,0,.86-.23l-1.06-7.12-.74-5a10.84,10.84,0,0,0-.38-2.55,6.71,6.71,0,0,0-1.09-1.36l-3.08-3.76-3.16-3.87a8.24,8.24,0,0,0-1.34-1.59,2.48,2.48,0,0,0-2.84.3c-.75.78-.57,2.13-.38,3.08.33,1.7,1.06,3.3,1.53,5l.83-.26-7.83-9a20.53,20.53,0,0,0-2-2.24c-1.52-1.31-3.12-2.53-4.68-3.79l-5.32-4.32c-.27-.21-.58-.58-.91-.66a3.9,3.9,0,0,0-1.92.36c-5.23,2,3.39,8.74,5.2,10.27,2.78,2.35,4.93,5.5,7.27,8.29l.81-.3c-2.33-2-4.57-4.3-7-6.18-2.73-2.09-5.8-3.85-8.67-5.76l-2-1.31a1.73,1.73,0,0,0-.78-.41c-1.41-.12-2.32,1.49-2.09,2.67.38,1.93,2.42,3.5,3.8,4.73,1.74,1.54,3.56,3,5.42,4.38a10.08,10.08,0,0,1,2.38,2.85l3.2,4.76.84-.26c-3.77-3.45-7.57-6.86-11.49-10.13-1-.83-2-1.65-3-2.41a4,4,0,0,0-1.6-.93,2.14,2.14,0,0,0-2.23,1.83c-.28,2,1,3,2.27,4.23a91.24,91.24,0,0,1,10.25,10.74l.81-.29q-2-1.71-4-3.38a49.69,49.69,0,0,0-5.81-4.52,1.67,1.67,0,0,0-2.25,2.41,20.39,20.39,0,0,0,2.54,2.8c1,1,2,2.05,3,3a26.72,26.72,0,0,1,3.07,3l4.25,5.82a48.57,48.57,0,0,0,2.89,3.94c.75.83,1.72,1.54,2.55,2.29l5.66,5.08,9.69,8.7c.17.15.95-.17.8-.3Z"/><path d="M387.91,185.15a57.65,57.65,0,0,1,.43-10.75,58.35,58.35,0,0,1,.6,10.73,57.72,57.72,0,0,1-.42,10.75A57.54,57.54,0,0,1,387.91,185.15Z"/><path d="M370.67,188.8a101.16,101.16,0,0,1,6.8,12.48,97.75,97.75,0,0,1-7.66-11.95,100.1,100.1,0,0,1-6.8-12.51A98.1,98.1,0,0,1,370.67,188.8Z"/><path d="M359.43,205.33a42.18,42.18,0,0,1,8.47,3.55,41.12,41.12,0,0,1-8.82-2.58,73.88,73.88,0,0,1-7.11-3.39Z"/><path d="M340.88,220.4c3.32-.69,9.88-.28,9.88-.28a77.19,77.19,0,0,1,12.25.62,73.35,73.35,0,0,1-12.31.41Z"/><path d="M357.14,235a73,73,0,0,1,10.93-4.54A65.74,65.74,0,0,1,357.55,236a68.59,68.59,0,0,1-10.93,4.53A72,72,0,0,1,357.14,235Z"/><path d="M488.81,186.83a33.86,33.86,0,0,1,6.2-3.38c2.56-.89,7-1,18.4-12.11,0,0-2.77,13-17.91,16.64,0,0-3.91,1.06-6.54.59Z"/><path class="cls-5" d="M470.65,109.22a1.75,1.75,0,0,1-.13.28l.16-.14Zm-6.59,2.58,0,.12c.09-.1.19-.2.27-.3S464.06,111.8,464.06,111.8ZM522,157.87l.49-2.49c3.64,3.94,8.5,0,8.13-6.16,1.32-3.24,2.43-13.63-.43-16.5l-.35-.43c-1.92-1.17-5.13-1.42-6.19,1.07-.32,1.07.18,2.3-.13,3.37a28.21,28.21,0,0,1-2.31,4.72,66.9,66.9,0,0,1-1.9-8.46c-.25-2.73-3.28-10.29-8.67-13.42,0,0-1.27-9.57-3.86-12.09l-.82-.17c-.47.07-.76.26-1.22.33,0-.15.11-.31.07-.6a5.29,5.29,0,0,1-2,.45c.13-.17.42-.36.4-.5a9,9,0,0,1-1.86.28c.13-.17.4-.5.38-.64-.73.4-1.24.18-1.86.28a1.11,1.11,0,0,0,.22-.62,4.13,4.13,0,0,1-1.84.42c.13-.17.25-.47.38-.64-.73.4-1.24.19-1.86.28-.16,0,.27-.33.24-.48a5.45,5.45,0,0,1-1.53.38c0-.14.27-.33.25-.47a5,5,0,0,1-2,.3l.38-.64a2.22,2.22,0,0,1-1.82.56c.14-.17.4-.5.38-.64a3.15,3.15,0,0,1-2.44.66c.16,0,.4-.5.38-.64a3.1,3.1,0,0,1-2.11.75c.14-.17.25-.48.52-.81a3.22,3.22,0,0,1-2.89.87c.16,0,.25-.47.23-.62-.54.67.52-.22-.28-.25,0,0-1.7.84-1.72.7-.56.52,1.28-2.66.5-2.55.11-.31-4.41.93-4.14.6-.7.68-.58.37-1.53.36,0,0-3,2.19-2.84,2-.67.82-1.11.28-2.06.27.13-.16.65.52.78.35-.54.66-.44-.08-1.21,0,0-.14-2.68-.55-2.7-.69-.71.54-.45.56-1.38.7,0-.14-.35,1.66-.22,1.49-.53.67-.57.2-1.37.17l-.69.64c-.67.83.35.36-.6.36,0-.1,3.57-.08,3.68-.29a5.55,5.55,0,0,1-1.87,1.18c0-.14.09-.45.07-.59a3.11,3.11,0,0,1-2.35,1.22c.15,0,.26-.33.24-.47a2.41,2.41,0,0,1-2.53,1.11v0a4.9,4.9,0,0,1-2,1.35.61.61,0,0,1,.22-.62l-.62.1a10,10,0,0,0-1.33,3.83s-4.22,9-3.27,14.23,3.24,14.09,3.73,16.35a45.47,45.47,0,0,1,.78,7.18c.15,4.67.31,5.89,2.14,10.33a29.77,29.77,0,0,0,6.35,10c3.24,3.62,7.55,6.53,11.64,9.42a15,15,0,0,0,9.76,2.87c9.68-1,18.25-8.92,23.47-16"/><path class="cls-13" d="M460,122.24c2.53-8.86,11.5-14.9,30.77-20.22a71,71,0,0,1,35.68-.42C513.17,74.85,484.79,80,478.43,81s-35.49,30.61-21.28,52.32l.85,2.12S459.57,123.85,460,122.24Z"/><path class="cls-13" d="M530.65,95s-.27-18-14-22c-18.35-5.34-42.3-5.34-48,14Z"/><path class="cls-14" d="M535.25,138c1.21-1.65.22-5.66,1.2-7.46,5.14-9.38,1.87-17.33-1.3-21.88-1.38-2-.44-5.94-.82-7.8-2-9.73-3.17-9.87-19.26-17.77C502,76.67,489.15,79,481.76,80.47c-11.84,2.41-17,3.94-19.9,13-.38,1.18.34,2,.08,3.38-.37,2-3.29,2.62-3.42,5.08,0,0,16.23,3.88,30.42,9s41.62,29.14,41.89,37.52C530.84,148.76,533.92,139.83,535.25,138Z"/><path class="cls-13" d="M539,118.43s-26.66-24.43-51.32-21c0,0,30.91-8.81,48.28,11.85l.46.86a21.75,21.75,0,0,1,2.43,7.27Z"/><path class="cls-15" d="M524.85,153.5a3,3,0,0,1,3.08,2.38,2.94,2.94,0,0,1-.34,2,2.12,2.12,0,0,1-.9.88,2.67,2.67,0,0,1-2.56,0c-.17-.08-.78.18-.53.3a3.64,3.64,0,0,0,2.91.09,3.51,3.51,0,0,0,1.31-.79,3.14,3.14,0,0,0-.09-4.32,3.45,3.45,0,0,0-2.61-1c-.13,0-.37,0-.44.17s.06.17.17.17Z"/><path d="M517.17,130.41l2.89,13.74,4-6.85S519.14,132.36,517.17,130.41Z"/><path d="M523.51,143.5c.45-.07,1.13-.17,1.27.4a3.37,3.37,0,0,1-.18,1.44c-.25,1-.64,2.34.28,3.11,1.16,1,2.34-.8,2.72-1.72a6.34,6.34,0,0,0,.35-3.89c-.3-1.33-.9-3.1-2.38-3.5-.28-.08-.78.33-.38.44,1.23.33,1.75,1.84,2,2.94a6.07,6.07,0,0,1-.08,3.48,3.79,3.79,0,0,1-1.17,1.92c-.4.27-.73-.11-.89-.48-.38-.95.17-2.1.34-3a1.53,1.53,0,0,0-.17-1.26c-.39-.46-1.15-.4-1.68-.32-.36,0-.51.54-.06.48Z"/><path d="M481.31,160.23a4.45,4.45,0,0,0,4-.86c.23-.19,1.11-.17.78.11a6.36,6.36,0,0,1-5.46,1.08c-.16-.06-.15-.18,0-.26a1,1,0,0,1,.66-.07"/><path d="M486.54,159.08a7.13,7.13,0,0,1,2.4-1,.55.55,0,0,1,.4.06c.08.06.11.14,0,.21a2.77,2.77,0,0,1-1.32.51.49.49,0,0,1-.44-.1c-.1-.1,0-.2.15-.21a2.24,2.24,0,0,0,1.06-.42l.43.27a6.36,6.36,0,0,0-2.15.89.57.57,0,0,1-.46,0c-.1,0-.22-.16-.09-.24"/><path d="M490,158.67a3.47,3.47,0,0,0,2.51-1.61c.58-1.25-.39-2.95-1.75-3.49-.15-.06-.09-.17,0-.22a.8.8,0,0,1,.55,0,3.54,3.54,0,0,1,2.12,2.94,2.81,2.81,0,0,1-2,2.33,5.7,5.7,0,0,1-1.09.32c-.15,0-.43,0-.53-.09s0-.18.18-.21"/><path d="M479.39,160a.13.13,0,0,0-.16-.17,1.2,1.2,0,0,1-.82-.14c-.07.12-.14.24-.22.36a3.58,3.58,0,0,1,1.66.33.29.29,0,0,0,.32-.1c.06-.06.11-.2,0-.25"/><path d="M480.17,160a4.07,4.07,0,0,0-1.86-.36.35.35,0,0,0-.25.16.15.15,0,0,0,0,.21"/><path d="M477.31,160.45a2.07,2.07,0,0,1-1.92-1,3,3,0,0,1,.3-3.33.12.12,0,0,0-.08-.21.39.39,0,0,0-.33.17,3.3,3.3,0,0,0-.66,2.89,2.35,2.35,0,0,0,1.8,1.76,2.38,2.38,0,0,0,.75,0c.1,0,.28-.08.31-.21s-.07-.17-.17-.15"/><path d="M466.45,142.45a2.48,2.48,0,0,0-2.47.8,2.37,2.37,0,0,0-.4,1.12,2.29,2.29,0,0,0,.84,2,2.1,2.1,0,0,0,2.45.06,2.33,2.33,0,0,0,.74-2.85,2.13,2.13,0,0,0-1.16-1.1"/><path d="M475.89,143.7S471.2,141,469,141.13c-3.18.15-6.78,2.46-7.65,4.18,0,0,4.71-3.35,7-3.4S475.89,143.7,475.89,143.7Z"/><path d="M493.9,138.14a3,3,0,0,1,2.84-.25,2.21,2.21,0,0,1,.81.93,2.27,2.27,0,0,1-.23,2.12,2.11,2.11,0,0,1-2.33.77,2.31,2.31,0,0,1-1.53-2.51c0-.17-.2-.47.44-.94"/><path d="M489.37,141.26s4.29-3.72,6.61-4.14c3.39-.61,7.74.78,9.09,2.24,0,0-5.79-2.13-8.17-1.64S489.37,141.26,489.37,141.26Z"/><path d="M474.36,132.88l.15,1.93c0,.48.07,1,.11,1.46-1.67-.28-3.09-.44-4.16-.53a13.76,13.76,0,0,0-4.7,0,13,13,0,0,0-2.89,1.17,8.75,8.75,0,0,0-1.5.95c-1,.89-1.41,1.82-1.6,1.75s0-.86.06-.95a7.58,7.58,0,0,1,2.08-3.43,8.9,8.9,0,0,1,2.91-1.62,31.75,31.75,0,0,1,9.54-.76"/><path d="M488.13,130.05l.3,1.91.24,1.45c1.7-.68,3.16-1.18,4.28-1.53a16.32,16.32,0,0,1,5-1.11,14.7,14.7,0,0,1,3.35.44,9.36,9.36,0,0,1,1.81.56c1.3.61,1.92,1.42,2.1,1.32s-.24-.84-.28-.91a7.77,7.77,0,0,0-3-2.84,10,10,0,0,0-3.46-.87,37.82,37.82,0,0,0-10.3,1.58"/><path class="cls-16" d="M485.43,166.16c4.94-.74,12.86-2.54,12.86-2.54s.79,12.68-10.67,14.39-15.23-10.53-15.23-10.53S480.49,166.89,485.43,166.16Z"/><path d="M485.38,166.16c2.35-.35,11.76-2.17,11.76-2.17s-1.56,8.15-10.06,9.42a13.48,13.48,0,0,1-13.47-5.83Z"/><path class="cls-17" d="M485.34,166.54c2.34-.35,9.43-1.83,9.43-1.83s-2.17,3.06-9.22,4.11-9.67-1.21-9.67-1.21Z"/><path class="cls-16" d="M471.76,166.81a17.44,17.44,0,0,0,2.83-.11c1.92-.47,3.06-1.18,4.45-1.5,2.38-.55,4,.21,5.1.05s2.42-1.37,4.86-1.54c1.42-.1,5-.08,7-.2a17.19,17.19,0,0,0,2.74-.72c.36,0,.08,2.79-13.06,4.75S471.43,167,471.76,166.81Z"/><path d="M432.52,240.45a2.27,2.27,0,0,1,1.11.75c.34.32.67.66,1,1a15.53,15.53,0,0,1,1.66,2.29c.11.19.76-.07.69-.18a15.27,15.27,0,0,0-1.75-2.41c-.33-.36-.67-.71-1-1a2.28,2.28,0,0,0-1.21-.71.72.72,0,0,0-.49.13c-.11.08-.09.15,0,.17Z"/><path class="cls-10" d="M452.84,230.8c.23,3.71,1.16,7.39.57,11.11a75.82,75.82,0,0,1-1.85,7.38,49,49,0,0,0-1.33,7.79c0,.26.77.1.79-.12a50.27,50.27,0,0,1,1.34-7.8,73.28,73.28,0,0,0,1.91-7.73c.51-3.63-.4-7.23-.63-10.85,0-.19-.82,0-.8.22Z"/><path class="cls-10" d="M499.68,282.58c4.83.67,7.55,5.29,8.19,9.75,0,.25.84.07.8-.22-.65-4.62-3.53-9.26-8.5-9.95a.69.69,0,0,0-.56.15c-.1.12-.13.25.07.27Z"/><path class="cls-10" d="M462.47,315.2c.09-2.76-.07-5.54-.17-8.3-.05-1.31-.1-2.62-.16-3.93a7.78,7.78,0,0,0-.31-2.3,6.92,6.92,0,0,0-1.71-2.21c-.14-.14-.87.16-.76.27a6,6,0,0,1,1.75,2.44,9.63,9.63,0,0,1,.23,2.15c.06,1.33.12,2.67.16,4,.1,2.69.25,5.4.17,8.09,0,.11.79,0,.8-.21Z"/><path class="cls-18" d="M249.12,196.67s-18.9,22.18-17,39.1-14.35-9.85-14.35-9.85l5.19-21L236.68,201"/><path class="cls-18" d="M239.24,188.41c2.66-.55,5.15,1.37,7,3.34,1.48,1.57,12.19-15.38,11.7-13.28-.35,1.48-18.65,30.27-19.74,31.33-4.56,4.45,0,1.64-5.41,5-1.7,1-3.92,1.78-5.65.78s-2.13-3-2.46-4.87c-.82-4.66-1.46-9.43-.85-14.13s2.57-9.38,6.2-12.42"/></g><g id="Layer_12" data-name="Layer 12"><path class="cls-19" d="M174.24,191.27S226.12,242.2,226,307.84s-40.32,140.37-47.53,148c0,0,27.45-22.38-9.76-8.17s-65.51,16.15-74.45,4.59S88.13,417.21,64,414.67s-32.09-1.61-54-9.47c0,0,26.93-9.51,49-30.93s86.1-115,79.9-160.11"/><path class="cls-20" d="M297.13,83.32l-16.87-2.58s-3.34-15.48-2.66-17.28l26.06-4.71-1.4,18.6C302.11,79.39,299.18,83.35,297.13,83.32Z"/><path class="cls-20" d="M303.9,60.45A1.32,1.32,0,0,1,304,61c0,2.48-1.1,13.21-2.46,13.55s-5.1-.79-5.23-2.24,1.87-13.45,1.87-13.45.45-1.89,3.69-2C303.78,56.69,303.9,60.45,303.9,60.45Z"/><path class="cls-20" d="M297.81,56a1.24,1.24,0,0,1,.07.51c0,2.48-1.11,13.21-2.47,13.54s-5.11-.78-5.22-2.23,1.87-13.46,1.87-13.46.43-1.87,3.67-2C297.71,52.23,297.81,56,297.81,56Z"/><path class="cls-20" d="M291.67,53.45a1.47,1.47,0,0,1,.06.51c0,2.48-1.11,13.2-2.46,13.55s-5.1-.81-5.24-2.25,1.87-13.45,1.87-13.45.44-1.88,3.68-2.05C291.68,49.75,291.67,53.45,291.67,53.45Z"/><path class="cls-20" d="M285.58,51.11a1.09,1.09,0,0,1,.06.51c0,2.48-1.1,13.21-2.46,13.55s-5.1-.81-5.22-2.24,1.87-13.45,1.87-13.45.43-1.88,3.66-2.06C285.49,47.32,285.58,51.11,285.58,51.11Z"/><path class="cls-12" d="M296.94,67.63a4.23,4.23,0,0,0-.44-.51,20.55,20.55,0,0,1,.36-3.13,20.79,20.79,0,0,1,1-5.19,20.54,20.54,0,0,1-.31,5.19A21.25,21.25,0,0,1,296.94,67.63Z"/><path class="cls-12" d="M290.17,68.58a39.11,39.11,0,0,0,1.28-7.36,39.87,39.87,0,0,0,.63-7.47,41.6,41.6,0,0,0-1.25,7.44A43.66,43.66,0,0,0,290.17,68.58Z"/><path class="cls-12" d="M283.79,67.47a43,43,0,0,0,1.28-7.39,44.39,44.39,0,0,0,.63-7.47A41.11,41.11,0,0,0,284.42,60,38.91,38.91,0,0,0,283.79,67.47Z"/><path class="cls-20" d="M283.86,82l-4.64-7.61a15.09,15.09,0,0,1-1.85-11.11l.66-2.92,21.08,3s-2.52,7.36-8.2,5.42l5.68,6Z"/><path class="cls-12" d="M295.1,76.08a25.77,25.77,0,0,0-1-2.5,9.59,9.59,0,0,0-5.13-4.6l-1.88-.71h2l5.16-.05-.08,0a5.81,5.81,0,0,0,4.7-4.09,3,3,0,0,0,.07-.51l.4.44c-6-.61-11.37-1.22-15.24-1.91-2-.31-3.48-.64-4.56-.88a6.56,6.56,0,0,1-1.62-.48,57.19,57.19,0,0,1,6.26.76c3.91.5,9.27,1,15.27,1.64l.4,0v.41a5.16,5.16,0,0,1-.1.67,5.71,5.71,0,0,1-2.1,3.26,8.27,8.27,0,0,1-3.28,1.48l-.07,0-5.19,0,.13-.72a9.61,9.61,0,0,1,5.26,5.11,7.11,7.11,0,0,1,.59,2C295.16,75.73,295.18,76.05,295.1,76.08Z"/><path class="cls-12" d="M297.23,67c.15-.06.1,1,1,2.12a1.71,1.71,0,0,0,2,.54,3.24,3.24,0,0,0,1.56-2.33c.53-2.26,1.14-4.3,1.34-5.73a7.69,7.69,0,0,1,.52-2.44,5.33,5.33,0,0,1,.11,2.51,49.24,49.24,0,0,1-1.17,5.9,3.93,3.93,0,0,1-2.09,2.87,2.16,2.16,0,0,1-1.69,0,2.52,2.52,0,0,1-1.09-.9,3.38,3.38,0,0,1-.63-1.81C297.12,67.26,297.17,67,297.23,67Z"/><polygon class="cls-20" points="298.59 79.4 295.85 88.84 278.66 82.2 280.82 74.73 298.59 79.4"/><path class="cls-20" d="M169,521.38s25.13-44.46,37.39-61.06c8.43-11.41,15.6-19.86,19.25-24,10.24,7.85-.07,34.2,9.71,42.61-15.23,13.8-55,49-56,49.84C176.24,531.23,166.88,525.08,169,521.38Z"/><path class="cls-20" d="M171,523.2c3.2.66,6.42,1.72,8.26,3.44,1.21,1.14,4.81-5,5.21-3.57-1.34.82-4.95,8.79-4.8,9.26,3.1,9.62,1,31.8,1,31.8s-5.08,1.49-9.24-4.31c-3.42-4.76-6.11-28.91-7-37.42A45.63,45.63,0,0,1,171,523.2Z"/><path d="M156.05,522.29a99.46,99.46,0,0,1,10.41.26,36.78,36.78,0,0,1-.08,4.89c.07,5.39,2.87,15.2,4.64,20.22,2.36,6.69,5.14,10,7.17,12s2.25,1.24,3,.81c.83,1,2.86,11.08,3.27,13.57s-3.25,3-3.25,3l-5-3.31-3.92-3.39-2.69-4.51-5.69-11.08-3.94-12.91s-6.48-13.46-6.37-16.4C153.6,524.37,154.62,523.28,156.05,522.29Z"/><path d="M153.77,524.52A52.55,52.55,0,0,0,158.1,535c5.73,10.51,6.46,14.69,7.45,18.78a51.89,51.89,0,0,0,2.07,7c5,13.22,14.32,15.77,14.63,15.92a1.28,1.28,0,0,1-.37.64,32.21,32.21,0,0,1-3.27-1.26c-2.85-1.31-8.75-4.74-12.77-14.88a47.75,47.75,0,0,1-2.37-6.62A53,53,0,0,0,159,542.3l-1.66,1s-6.68-10.82-7.48-16.92C152.26,524.55,153.77,524.52,153.77,524.52Z"/><path d="M151.33,525.39a84,84,0,0,0,7.5,17l-1.46.84s-6.68-10.82-7.48-16.92A12.37,12.37,0,0,1,151.33,525.39Z"/><path class="cls-18" d="M206.09,181.9c2.66,1.44,24.46-3,24.46-3s6.81,57.66,6.85,73.9c0,8.85-9.09,16-9.09,16l-1.17,27.93-30.91,16.19-46.45-16.05a240.83,240.83,0,0,0-2-47.8c-3.73-26.52-1.42-27.09.28-37.86s2-23.61,4-22.87l25.57-7.69C187.34,200.14,199.07,183.46,206.09,181.9Z"/><path class="cls-20" d="M189.17,385.22c.3,1.09-6.67,53.41-9.12,66.6s.92,29.61.66,35-14,69.73-14.3,90c-6,5.41-9.74-8.82-16.31-16.22-.92-.82-10.92-44.7-6.27-82.93,1.09-9-2-56.9-2.2-53.27,0,0-3-37.71-2.84-41.3s8.75-16.31,8.75-16.31Z"/><path class="cls-20" d="M147.07,547.4c7.35,1.49,16.38,2.53,22.7-1.33-1.51,9.47-2.78,22.88-3.2,29.1.25,2.07.67,3.42,1.34,3.6,9.78,2.54,25.66,14.3,25.66,14.3s-1.5,5.38-8.63,5.78-38-15.54-38-15.54l3-5.17Z"/><path class="cls-21" d="M213.21,348.33a40.14,40.14,0,0,1-4.15,1.56,59.33,59.33,0,0,0-18.17,10.88c-2,1.79-3.24,3-3.33,2.92s.22-.38.72-1a30.86,30.86,0,0,1,2.25-2.35,48.64,48.64,0,0,1,18.35-11,31.41,31.41,0,0,1,3.15-.87A3.48,3.48,0,0,1,213.21,348.33Z"/><path class="cls-21" d="M189.34,324.65a8.78,8.78,0,0,1,0,1.84c0,1.18-.12,2.89-.27,5-.29,4.22-.86,10-1.79,16.42s-2.06,12.13-3,16.25c-.47,2.07-.87,3.73-1.18,4.87a9.25,9.25,0,0,1-.55,1.76,8.32,8.32,0,0,1,.26-1.82c.25-1.32.56-3,.94-4.92.79-4.14,1.82-9.88,2.75-16.25s1.58-12.16,2-16.36c.2-2,.37-3.64.51-5A8.23,8.23,0,0,1,189.34,324.65Z"/><path class="cls-22" d="M125,372c-.83-4.5-2.79-19.93,4-40.08,4.92-14.53,26.36-42.91,26.36-42.91l69,9.58.71,1.81s1.35,24.49.44,35.29c0,0,32.9,75,34.4,88.24,3.41,30.14.53,19.19-15.11,48.44-8.63,10.43-21.51,30.52-21.51,30.52-15.7,2.1-15.71-5.25-22-9.19-4.85-3-6.73-4.66-12.42-4.7-5.21,0-14.92,4.94-20,6a74.25,74.25,0,0,1-15.67,1.42c-8.81-.07-14-1.16-21.78-5.42l-.64-.46s6.15-35.26,7.7-54.26C139.82,419.51,125.68,399.92,125,372Z"/><path class="cls-18" d="M150.14,279.5s-8.42,24.38-10.88,28.45,22.55,19.46,33.07,21.59,51,4.76,58.06-2l-5-45.44Z"/><path d="M204.53,599.82s1.56-3.34-.76-4.33-12.44-5.16-13.74-5c0,.86,2.26,1-.52,1.62a35.21,35.21,0,0,1-15.72.11c-5.19-1.2-14.44-3.62-19-6.45-1.53-.95-4.82-4.15-7.94-3.3-1.63,2.16-3.11,11.32-.68,13s17.26,3.43,17.26,3.43l13,3.59,12.41,1.15,5.24.14,5-1.49Z"/><path d="M145.54,594.85a52.09,52.09,0,0,0,11.19,2c11.94.81,15.86,2.44,19.84,3.79a51.79,51.79,0,0,0,7,2c13.82,2.9,21-3.63,21.29-3.81a1.26,1.26,0,0,1,.33.65,28,28,0,0,1-2.81,2.08c-2.63,1.71-8.69,4.85-19.41,2.81a51.29,51.29,0,0,1-6.85-1.55A52.45,52.45,0,0,0,163.37,600l-.09,1.91s-12.72-.16-18.29-2.77A7.63,7.63,0,0,1,145.54,594.85Z"/><path d="M145,597.38a84.41,84.41,0,0,0,18.4,2.8l-.08,1.68s-12.72-.16-18.29-2.77A12.58,12.58,0,0,1,145,597.38Z"/><path class="cls-20" d="M174.09,155.57s6.13,12.76,4.11,23.86a8.49,8.49,0,0,1-1,2.93s6.79,12.62,22.28,13,9.27-8.41,9.27-8.41v-6.32c-.27-2.33-3.67-22.52-3.67-22.52"/><path class="cls-12" d="M183.15,170.34s7.63,10.49,20.21,12.36c0,0,4.66.76,5.38.25l-.37-3.47Z"/><path class="cls-23" d="M226.38,155.85c-4.57-2.82-5.78-8.37-5.57-13.4.2-4.81-3.9-11.9,2-12,.11,0-2.38-4-.63-3.72-1.23-2.57,2.66-2.57,3-5.58.07-.61.57-6-3.25-6.07-14.92-18.14-33-12.89-43.14-10.81-20,4.07-30.87,8.54-23.85,40.11,4.71,21.19,26.37,23.06,46.65,21.07,8.67-.85,19-1.21,25-9.44Z"/><path class="cls-23" d="M179.07,85.74c-.66-1.1-6.38-4.93-9.63-4.35-2.32.42-4.95,1.64-8.64,5.42-3.78-.8-8.39-1.19-10.47.88a13,13,0,0,0-2.11,3h0l0,.07a26.25,26.25,0,0,0-1.44,3.34c-2.32,3.68-7.08,11.52-7.81,14.9-.36,1.69,2.29,5,5.75,8.57a6.53,6.53,0,0,0-1.46,3.25c-.45,3.15,3.45,9.59,11.37,5.84,2.33,2,4,3.28,4,3.28l2.22-2.16-.6-1.15,2.71-2.57-2.14-1.63a16.76,16.76,0,0,1,2-2c2.63-2.64,5.41-6.29,7.93-9,1.16-1.26,4.46-2.14,5.68-3.36a6.13,6.13,0,0,0-2.16-.75l1-1c1.22.4,2.25.76,2.58.93,1.08-1.05,4-2.18,5-3.24.24.31.46.64.68,1,1-1,3.1-2.16,4.06-3.14-.64-5.24-3.23-9.57-8.29-11.56C179.38,88.34,179.4,86.27,179.07,85.74Zm-32.35,35.79a7.06,7.06,0,0,1-.59-2.5c1.45,1.42,3,2.84,4.47,4.17C149.06,123.3,147.36,123,146.72,121.53Zm29.06-35.61a8.85,8.85,0,0,1-1,3.33l-.39,0a61.18,61.18,0,0,0-6.19-.47,25.32,25.32,0,0,1,2.12-3.51C171.82,83.85,175.73,84.36,175.78,85.92Z"/><path class="cls-20" d="M211.16,114.72l.16.08a1.18,1.18,0,0,1-.18-.21Zm5.84.56.3.2v-.1S217,115.16,217,115.28Zm-30.6,57.84c5.94,4.92,15.16,8.54,21.39,8.76,3.05.11,6.14-.13,9-2.6,7.09-6.2,12.86-16.91,10.75-26.6-.39-1.79-1.79-5.05-1.84-6.8-.06-2-.17-11.71-2.59-17.63a52.14,52.14,0,0,0-5.57-10.67c-.39-1.23,2.81-1,2-1.91l-.55,0a.53.53,0,0,1,.32.47,4.19,4.19,0,0,1-2-.71v0a2.1,2.1,0,0,1-2.38-.39c0,.12.17.36.31.35a2.76,2.76,0,0,1-2.26-.54c0,.12.17.36.18.49a5.14,5.14,0,0,1-1.83-.61c.14.16,3.18-.63,3.19-.54-.81.21.15.39-.59-.17l-.73-.4c-.67.19-.6.6-1.2.15.15.11-.51-1.34-.5-1.22-.82.08-.6,0-1.32-.3,0,.12-2.15,1-2.14,1.16-.68.06-.44.67-1,.23.15.11.44-.58.59-.47-.81.21-1.06.77-1.81.21.15.11-2.83-1.11-2.83-1.11-.81.2-.65.45-1.38,0,.3.23-3.81.14-3.65.38-.68.07,1.55,2.37,1,2a6.93,6.93,0,0,1-1.61-.22c-.67.19.42.72-.18.27,0,.13.19.49.33.48a2.82,2.82,0,0,1-2.64-.13c.3.23.46.47.61.58a2.69,2.69,0,0,1-1.95-.19c0,.13.32.47.46.46a2.74,2.74,0,0,1-2.21,0c0,.12.31.35.46.46a2,2,0,0,1-1.67-.09l.46.46a4.24,4.24,0,0,1-1.77.17c0,.13.29.23.31.35a4.91,4.91,0,0,1-1.38,0c0,.13.44.34.31.35-.55.05-.94.35-1.64.16.15.11.31.35.46.46a3.57,3.57,0,0,1-1.66,0,1,1,0,0,0,.33.47c-.55.06-.94.35-1.64.17,0,.12.31.34.46.46a7.6,7.6,0,0,1-1.64.16c0,.12.29.22.44.33a4.23,4.23,0,0,1-1.79.05c0,.25.18.37.19.49-.41,0-.7-.06-1.11,0l-.65.32c-1.67,2.7-6.23,8.21-6.23,8.21-3.9,3.8-3.41,9.69-3,12.06s4.26,11.63,4.26,11.63a20.07,20.07,0,0,1-2.08-3.74c-.5-.83-1.22-1.76-1.72-2.6-1.42-1.89-4.1-1-5.47.41l-.21.44c-1.82,3-.49,10,3.89,14.36,1,5.28,6.58,7.28,7.47,3.23l.95,2"/><path class="cls-24" d="M214.32,158.39a3.61,3.61,0,0,1-3.16.15c-.21-.1-.86.09-.56.22a5,5,0,0,0,4.29-.27c.11-.07.08-.15-.07-.18a.76.76,0,0,0-.5.08"/><path class="cls-24" d="M210.19,158.56a5.8,5.8,0,0,0-2-.26.46.46,0,0,0-.28.13c-.06,0-.06.12,0,.15a2.18,2.18,0,0,0,1.08.12.42.42,0,0,0,.32-.16c0-.09-.07-.14-.16-.13a1.62,1.62,0,0,1-.87-.1l-.27.28a5.22,5.22,0,0,1,1.77.23.42.42,0,0,0,.35-.07c.07-.05.14-.15,0-.19"/><path class="cls-24" d="M207.54,158.93a2.79,2.79,0,0,1-2.18-.69,2.21,2.21,0,0,1,.64-3c.09-.07,0-.14-.08-.15a.61.61,0,0,0-.41.13,2.74,2.74,0,0,0-1,2.61,2.11,2.11,0,0,0,2,1.3,4.32,4.32,0,0,0,.88,0c.12,0,.33-.07.38-.17s-.07-.12-.18-.11"/><path class="cls-24" d="M215.71,157.85a.1.1,0,0,1,.08-.15,1,1,0,0,0,.59-.26l.23.22a2.74,2.74,0,0,0-1.18.56.23.23,0,0,1-.25,0c-.06,0-.12-.12-.05-.18"/><path class="cls-24" d="M215.13,158a3.07,3.07,0,0,1,1.32-.61.24.24,0,0,1,.22.07.1.1,0,0,1,0,.15"/><path class="cls-24" d="M217.34,157.78a1.62,1.62,0,0,0,1.26-1.07,2.17,2.17,0,0,0-.87-2.35.1.1,0,0,1,0-.17.32.32,0,0,1,.28.06,2.42,2.42,0,0,1,1.05,2,1.78,1.78,0,0,1-1,1.62,1.76,1.76,0,0,1-.55.17c-.08,0-.22,0-.27-.09s0-.13.09-.14"/><path class="cls-25" d="M173.91,155.29a28.25,28.25,0,0,0-3.12-4.4,9.68,9.68,0,0,0-2.11-1.88,3.08,3.08,0,0,0-1.13-.45c-.38,0-.51.24-.64.56a7,7,0,0,0,.15,4.89c.08.21.54.09.46-.12a7.5,7.5,0,0,1-.43-3.78,4.24,4.24,0,0,1,.29-1l.12-.27,0-.06-.22.1c.07,0,0,0,0,0a1.25,1.25,0,0,0,.19,0l.09,0,.18.06.41.2a10.58,10.58,0,0,1,2.9,2.76,32.62,32.62,0,0,1,2.39,3.53c.11.18.55,0,.42-.21Z"/><path class="cls-26" d="M225.05,134.13c-3.27-.94-5.36-.9-10.89,0v.13c-.05.72,0,.32-.08,1L214,137c1.8-.32,3.11-.73,4.27-.83,2.19-.2,4.71-.69,6.9-.26C225.08,135.29,225.06,134.71,225.05,134.13Z"/><path class="cls-26" d="M201.87,135.83l.13,1c.07.55.14,1.1.2,1.65-1.82-.24-3.14-.58-4.31-.62-2.3-.1-5-.5-7.21.14-1.07.31-2.6.79-3.25,1.87-.18.29-.45,1.29-.9,1.15-.19-.06,0-1,0-1.07.36-1.87,1.8-2.81,3.63-3.48,3.72-1.37,5.68-1.49,11.69-.81"/><path class="cls-27" d="M172.94,164.22a2.94,2.94,0,0,0,1.61,5.25,3.41,3.41,0,0,0,1.27-.24,3.18,3.18,0,0,0,1.94-1.84c.13-.34-.54-.29-.64,0a2.53,2.53,0,0,1-1.39,1.48l-.32.11-.17,0-.07,0c-.09,0,0,0,0,0a1,1,0,0,1-.25,0s-.21,0-.07,0a2.69,2.69,0,0,1-1.62-.8,2.65,2.65,0,0,1-.7-1.81,2.74,2.74,0,0,1,1-2,.16.16,0,0,0-.08-.28.5.5,0,0,0-.48.13Z"/><path class="cls-25" d="M173.81,155.36c-.8.08-1.83.35-1.53,1.36s1,1.64,1.11,2.59a1.49,1.49,0,0,1,0,.63,1.51,1.51,0,0,1-.16.31c-.08.12-.15.18-.2.18-.51,0-1.11-.62-1.4-1a5.46,5.46,0,0,1-1.29-3.22c-.06-1.18,0-3,1.16-3.62.1-.06,0-.08,0-.11s-.25.05-.33.09c-1.09.62-1.27,2.08-1.28,3.21a5.64,5.64,0,0,0,.91,3.23c.49.77,1.56,2,2.6,1.44s.46-1.79.09-2.51a7.56,7.56,0,0,1-.69-1.47c-.16-.66.3-.89.89-.95.12,0,.5-.22.2-.19Z"/><path class="cls-26" d="M221.1,141.08a1.81,1.81,0,0,1,2.1.19,2,2,0,0,1,.65.87,2.2,2.2,0,0,1-.28,1.91,1.71,1.71,0,0,1-2,.59,2.15,2.15,0,0,1-1.19-2.34,1.92,1.92,0,0,1,.72-1.22"/><path class="cls-26" d="M214.55,144.33s3.33-3.39,5.16-3.77a5.94,5.94,0,0,1,5.84,2s-3.23-2-5.1-1.5S214.55,144.33,214.55,144.33Z"/><path class="cls-26" d="M198.27,143.23a2.06,2.06,0,0,0-2.18.62,1.92,1.92,0,0,0,.16,2.8,1.9,1.9,0,0,0,2.22.17,2.12,2.12,0,0,0,.8-2.55,1.92,1.92,0,0,0-1-1"/><path class="cls-26" d="M203.38,145.49s-4.44-2.59-6.58-2.59a10.63,10.63,0,0,0-8.14,4s5.22-3.4,7.42-3.36S203.38,145.49,203.38,145.49Z"/><path class="cls-28" d="M217.76,116.93c.87,3.39,5.27,0,2.62-.57.15-1.7-2.28-2.16-2.38-3.87a2.46,2.46,0,0,0-.14.29s-.26-2-1-2.47-4-1.68-4-1.68l-.87.8c0-.06.29-.76-.23-1.12s-6-2.57-9.29-2l-.33.07-1.31.85,0,0,0,0c.23-.16.72-.57.43-.84a1.27,1.27,0,0,0-.65-.21,12.36,12.36,0,0,0-2,0h0l-.23,0-.22,0h0a12.5,12.5,0,0,0-2,.4,1.31,1.31,0,0,0-.59.33c-.24.32.32.63.58.75l.06,0,0,0-1.45-.58h-.34c-3.34.12-8.27,3.35-8.71,3.81s-.05,1.09,0,1.14l-1-.61a48.88,48.88,0,0,0-4.47,2.5,3.57,3.57,0,0,0-.83,1.77,4.37,4.37,0,0,1-1.62.47c-.45-.1-2.59,1.3-3.39,2.73-.52.92-.22,1.71-.45,2.49h0c-.13.44-.2.73-.2.73l-2.26,1c-1.79,1.09-.94,4.91-.94,4.91-3.24,4.88-3,8.75-1,12.74.79,1.54-3.62,3.6-.69,3.25s6.31,8.69,6.31,8.69,2.16-3.86,2.12-5.56a48.26,48.26,0,0,0-1.36-6.59l1.41-.35a4.93,4.93,0,0,0,1.7-2.44c.86-2-1.39-5.21-1.39-5.21l-.76-2,2.8-.09c2.65-.72,2.51-3.66,2.51-3.66l-.94-4.81,1.78,1.47a2,2,0,0,0,1.62.55c4.15-.73,4.38-3.38,4.38-3.38l.32-2.5,1.13.6c1.21.81,4.77,1.89,6.44,1,.44-.24,2.22-1.92,2.52-2.16a3.88,3.88,0,0,0,1-3.07c-.18-.15-.35-.33-.52-.48-.66-.59-.92-.29-.26.3,1.14,1,3,2.42,4.57,2.33s4.62-1,5-1.73c.22-.49-.26-.5.29-.53a1.87,1.87,0,0,1,1.25.59c.79.75,1.38,1.89,2.42,2.3,1.52.6,2.32-.28,3.74-.73A.69.69,0,0,1,217.76,116.93Z"/><path class="cls-29" d="M221,113.9s.69-3.24-1.31-4.87A29,29,0,0,0,198,102Z"/><path class="cls-30" d="M155.84,127.72s-8.73,6.18-13.44-.87S148,116.12,148,116.12"/><path class="cls-30" d="M158.31,86.38s3.9-8,10.29-7.35S172,90.41,172,90.41"/><path class="cls-31" d="M212,163.93c-3.75.29-9.86.3-9.86.3s2.14,8.73,10.83,8.06,7.94-9.66,7.94-9.66S215.72,163.64,212,163.93Z"/><path class="cls-32" d="M212,163.93c-1.78.14-9,.38-9,.38a11.14,11.14,0,0,0,9.77,4.47c7-.54,7.22-5.88,7.22-5.88Z"/><path class="cls-33" d="M212.11,164.2c-1.78.14-7.23.24-7.23.24s2.11,1.88,7.46,1.47,6.89-2.51,6.89-2.51Z"/><path class="cls-31" d="M220.76,162.53c-.2,0-.39.08-1.28.07-1.49,0-1.9-.44-3-.44-1.83,0-2.93.83-3.73.89s-2-.6-3.82-.31c-1.06.17-3.67.78-5.14,1a12.68,12.68,0,0,1-2.13-.07c-.26.09.41,2.06,10.38,1.29S221,162.57,220.76,162.53Z"/><path class="cls-18" d="M219.08,183.13l39.5-33.57,20.05-68.87,19.6,6.39L288,158.26a29.48,29.48,0,0,1-5.67,12l-45.55,41.67Z"/><path class="cls-18" d="M140.06,302.07l1.92-4-.75-.06.23-.56-27.6-32.73,35.69-31.36L155.84,187s-15.42,4.91-22,11.9c-23,24.22-50.9,49.45-49.14,69.66,2.43,18.67,32.85,37.43,41.91,47.14,4.18,4.49,5.79,9.06,8.13,10.92a77.37,77.37,0,0,0-9.49.69c-3,.6,6.18,4.3,8.43,5.05.88.29,2.9-.91,5.11-2.57l1.27-1a65.26,65.26,0,0,0,6.66-6.1c.58-.7,1-4.07,1.24-7.64Z"/><path class="cls-20" d="M147.89,306.78l-7.83-4.71L126.65,315.7l7.61,10.51.52.41a77.38,77.38,0,0,0-9.49.7c-3,.59,6.18,4.29,8.43,5,.88.29,2.9-.91,5.11-2.57l1.27-1a64.13,64.13,0,0,0,6.66-6.1c.58-.69,1-4.07,1.24-7.64l1.4-2.43A4.29,4.29,0,0,0,147.89,306.78Z"/><path class="cls-34" d="M151.11,199.46c4.36,5.15,6.49,12,4.72,18.59a34.28,34.28,0,0,1-4.36,9.53c-1,1.55-2.14,3-3.16,4.52a37.64,37.64,0,0,0-2.51,4.52c-.25.51.76.51.95.11a35.2,35.2,0,0,1,2.86-5c1-1.45,2.1-2.87,3-4.38a33.59,33.59,0,0,0,4.29-9.75c1.63-6.6-.59-13.44-4.92-18.55-.29-.34-1.24.06-.91.44Z"/><path class="cls-34" d="M241.29,196.05a34.24,34.24,0,0,0-5,18.89c0,.22,1,.05,1-.27a34.08,34.08,0,0,1,5-18.77c.11-.17-.82-.11-1,.15Z"/><path class="cls-12" d="M170.65,547.09q2.13-20.87,6.2-41.46c.06-.32-.75-.19-.81.1q-4.06,20.57-6.2,41.46c0,.34.78.19.81-.1Z"/><path class="cls-19" d="M207,188.21c.28-1,.44-2,.74-3,.36-1.17.42-2.36,1.17-3.33.86-.1,2.25-.15,3.1-.32l1-.19c.18,0,.65-.24.74-.25a9.31,9.31,0,0,0,1.88-1c1.39-1.08,2.15-1.78,2.15-1.78.35.07.63-.1,1-.1.22,0,1.88,1,2.09.94l.38,1.25c-.26,1.61-1.94,1.91-2.92,3.21l-5.64,7.5c-1.46,1.95-3.21,4.06-5.63,4.27a1.23,1.23,0,0,1-1.51-1.35C205.37,192.08,206.43,190.18,207,188.21Z"/><path class="cls-19" d="M205.16,194.74a87.5,87.5,0,0,1-14.35-8.93c-3.81-2.92-7.52-6.22-12.09-7.68-8.26-2.64-17.57,1.64-22.91,8.47-.38.49-.72,1.25-.25,1.64a29.78,29.78,0,0,1,7-1.16c4,0,7.76,1.58,11.45,3.06,10.2,4.09,21.24,7.56,32,5.48"/><path class="cls-19" d="M206.68,195.13c1.93-.34,3.73,1,5.13,2.39a19.4,19.4,0,0,1,4.15,5.54,9.9,9.9,0,0,1,.72,6.78c-1-2-3.19-3-5-4.41a13.92,13.92,0,0,1-5.25-9.71,23.41,23.41,0,0,1,.6,5.59,7.92,7.92,0,0,1-2,5.14,10.9,10.9,0,0,1-3.33,2.11,75.82,75.82,0,0,1-8.87,3.47,18.53,18.53,0,0,1,13-16.89"/><path class="cls-35" d="M203.82,193.85c-4,.41-7.33-2.55-10.37-4.74a21.75,21.75,0,0,0-10.1-4.11c-.68-.09-1.78.87-.64,1,4.21.54,7.55,2.57,10.89,5,3,2.18,6.17,4.16,10,3.78.86-.09,1.4-1.12.22-1Z"/><path class="cls-35" d="M203.82,194.27c-3.7.8-7.38-.36-10.76-1.83s-6.87-3.31-10.29-5a1.46,1.46,0,0,0-1.1.08c-.07,0-.78.38-.49.52,3.71,1.83,7.4,3.82,11.23,5.4,3.54,1.46,7.31,2.33,11.12,1.52.21-.05,1-.19,1-.49s-.51-.25-.7-.21Z"/><path class="cls-35" d="M207.94,195.31a19.22,19.22,0,0,0,3.77-7.59c.14-.57-1.56-.31-1.69.23a18.66,18.66,0,0,1-3.65,7.36c-.25.31.22.45.45.45a1.51,1.51,0,0,0,1.12-.45Z"/></g></svg>