<svg xmlns="http://www.w3.org/2000/svg" viewBox="0 0 637.33 635.77"><defs><style>.cls-1{fill:#c3e6f7;}.cls-2{fill:#639fb0;}.cls-3{fill:#865823;stroke:#865823;stroke-width:1.13px;}.cls-21,.cls-23,.cls-24,.cls-25,.cls-3{stroke-miterlimit:10;}.cls-4{fill:#735344;}.cls-5{fill:#3a5558;}.cls-6{fill:#a66f54;}.cls-7{fill:#161412;}.cls-8{fill:#221f20;}.cls-9{fill:#010101;}.cls-10{fill:#171414;}.cls-11{fill:#181615;}.cls-12{fill:#191716;}.cls-13{fill:#1a1716;}.cls-14{fill:#040505;}.cls-15{fill:#412319;}.cls-16{fill:#633d26;}.cls-17{fill:#f0ecf6;}.cls-18{fill:#c95744;}.cls-19{fill:#a67056;}.cls-20{fill:#4f2f25;}.cls-21,.cls-23,.cls-24{fill:#181514;}.cls-21,.cls-23,.cls-24,.cls-25{stroke:#181514;}.cls-21{stroke-width:0.45px;}.cls-22{fill:#161413;}.cls-23{stroke-width:0.44px;}.cls-24{stroke-width:0.47px;}.cls-25{fill:none;stroke-width:1.08px;}.cls-26{fill:#868686;}.cls-27{fill:#5a2010;}.cls-28{fill:#653c2b;}.cls-29{fill:#161210;}</style></defs><g id="Layer_14" data-name="Layer 14"><circle class="cls-1" cx="319.75" cy="319.09" r="288.85"/><path class="cls-2" d="M292.94,606.49c-47.87-.43-171.5-41.71-221.78-124.48,10.34-20.37-4.82-48.93-4.82-48.93l61.42-221.22,39.82-10.18s14.09,35.76,56.95,41.5c0,0,9.08,3.95,9.11,3.94,34.15-5.81,6.27-21.32,4.71-24.8l55.18,26.33,40.29,104.09c4.82,9.41.87,65.85-12.19,87.33l.5,20-3.48,57.49a40.16,40.16,0,0,1,3.52,30.68c-11.28-1.45-5.57,33.7-3.5,59.73C310.38,608.66,306.08,606.6,292.94,606.49Z"/><path class="cls-2" d="M273.71,241.5s48.61,11.87,62.39,40.14S380.66,418,380.66,418l73.12-23.91,83.91.6s-42.26,65.86-73.93,82.19c-35.35,21.13-84.57,40.8-103.48,34.48-15.69-5.23-77.19-32.26-86.73-67.46l-7.64-27Z"/><line class="cls-3" x1="147.12" y1="397.16" x2="148.55" y2="396.52"/><path class="cls-2" d="M240.48,220.32s82.11,32.41,88.47,52.85c9.66,31.06,7.14,91.08,7.14,91.08l-28.88-1.88Z"/><path class="cls-4" d="M41.6,378.75l-.23,0,.22-.11A.12.12,0,0,1,41.6,378.75Z"/><path class="cls-4" d="M40.92,378.8l-.29,0A.19.19,0,0,1,40.92,378.8Z"/><path class="cls-5" d="M333.91,328.89l-1.47,16.19-3.52,38.61-4.24,46.66L321,470.7l-1.23,13.43c-.18,2.07-.5,4.18-.57,6.27a2.11,2.11,0,0,1,0,.26c-.09,1,2.71.49,2.79-.38l1.47-16.19L327,435.48l4.25-46.67,3.67-40.35L336.1,335c.19-2.08.51-4.19.57-6.27l0-.27c.09-1-2.71-.49-2.79.39Z"/><path class="cls-6" d="M244.62,238a36.62,36.62,0,0,1-10.22,7.2,37.63,37.63,0,0,1-15.06,2.72l-5.76-.26a49,49,0,0,1-12.06-2.09l-9.69-3a48,48,0,0,1-5.19-2.4c-13.63-7.38-25.15-18.87-27.71-33.28,16.1-20.09,14.48-62.37,14.48-62.37l84.25,37.69s-3.49,36.95-8.6,36.53c-5.45-.44-.39,10.67,0,11.12C248.14,233.66,247.4,235.38,244.62,238Z"/><path class="cls-6" d="M226.57,211.61l28.88,3.93,14.91-.76c1.46.28,10.35-13.33,11.66-15,4.09-5.25,9.43-12.14,12.42-18.1,3.21-6.39,8.48-11.49,10.92-19.43,1.78-5.81,2.53-10,1-20.21a13.83,13.83,0,0,1,1.09-7.59c2.26-5.35,3.86-11.78,6.73-19,.23-.56,1.41-3.28,1.29-4,0,0,6.75-30.88,3.08-43s-11.18-18.68-19-22.22S267.35,40,267.35,40L235.76,25.63,204,38.43,183.55,70.37l-4.93,40.36-2,36.48"/><path class="cls-7" d="M187,110.16c-.38,3.12.81,19.21.63,22.29l-15.94-3.09c-3-11.44-6.6-24.91-7.94-28.07-2.09-4.94,5.48-26.56,6.71-34.69l.27-1.76C171.84,57,181.42,46,196.29,35.27c27.64-19.92,26-18.59,62.12-9.65,2.27.57,4.53,1.22,6.7,1.93,20.54,6.77,41.61,12.25,52,32.22,7.5,14.4,4.69,4.72,2.34,13.44,2.45-17.59-1.88-12.92-3.33-15.28-8.51-13.86-15.95-1.93-21-3.59a17.76,17.76,0,0,0-8.73-.68c-5.32.26-10.14-1.25-15.41-3-3.92-1.29-13.72-5.36-14.55-5.7-2.39-2.36,1.78-12.48-3.09-14.08-11.33-3.74-27.75-6.35-34.16.27-5.16,5.33-24.18,5.88-25,24"/><path class="cls-7" d="M266.24,211.18a1.36,1.36,0,0,1-.51-.29c-2.69-2.56-2.73-3.74-4.16-4.36a8.74,8.74,0,0,0-1.53-.64c-4.19-1.36-6.73-2.27-19.56,3-.25.11-15-4.47-15.31-4.55L218,199.29c-1.16-1-26-30.79-26-30.79-.3-.9-4.55-7.68-4.62-8.51-.09-.06-.17-.13-.26-.18l-.17-.11a1.07,1.07,0,0,1-.07.15,5.14,5.14,0,0,0-.21,1,17.15,17.15,0,0,0,0,4.47c.29,2.29.29,4.57.5,6.85q.12,1.22.33,2.4c3,2.66,19.45,33.08,30.48,41.19a53.17,53.17,0,0,0,9.58,3.2c12.19,3.22,24.15,5.31,37,3.92a11.13,11.13,0,0,0,8.1-4.9c5.12-7.77,17.61-24.14,21.8-36.35-4.65,6.69-15.67,20.11-22.45,29.86-.2.3-4.95-.27-5.36-.23"/><path class="cls-6" d="M177.8,152.62C163.68,162.21,163.88,141,163.88,141c-7-12.51-4.81-24-3-31.86s10.46-6.07,10.46-6.07c7.22,2.18,9.77,6.76,11.26,32.75"/><path class="cls-7" d="M163.7,101.29s-3.47-27.35,6.85-52.51S211,16.21,225.21,16.37s62.6,14,73.63,21.64,27.64,13.72,20.38,44.39c0,0,6.26-29.56-27.54-35.94-12-2.25-42.06-16-58.17-19.77C226.84,25.11,201.59,38,198,41.27c-8.17,7.56,3.83,30.2-12.44,56-5.37,8.52-8-8.45-13.8-3.27S163.7,101.29,163.7,101.29Z"/><path class="cls-8" d="M177.45,130.05a63.49,63.49,0,0,0-4.08-11.84,19.34,19.34,0,0,0-3.32-5.09,5.12,5.12,0,0,0-1.91-1.38c-1-.29-1.65.61-2.16,1.3-2.16,2.91-2.74,6.65-2.55,10.19,0,.28,1.29.06,1.27-.33a16.53,16.53,0,0,1,1.48-8.35,9.88,9.88,0,0,1,1.25-1.94,4.91,4.91,0,0,1,.43-.48s.3-.28.11-.12l-.89.24c-.22,0,.31.14.38.18a6.19,6.19,0,0,1,1.4,1.14,23.19,23.19,0,0,1,4.42,7.64,75.28,75.28,0,0,1,2.91,9.18c.08.33,1.34,0,1.26-.34Z"/><path class="cls-8" d="M174.26,130.85c-4.87-1.13-3.47,6.47-4.2,9-.08.28-.3.5-.38.74l.3,0,0,0s-.14-.17-.16-.23c-.09-.28-.24-.54-.32-.83a19.69,19.69,0,0,1-.54-4.9,20.68,20.68,0,0,1,.72-6.52c.69-2.3,1.92-5.59,4.56-6.19.79-.18.55-1.05-.23-.87-2.62.59-4.12,3.11-5,5.43a17.71,17.71,0,0,0-1.27,5.81,34.6,34.6,0,0,0,.25,6.19c.13.88.28,2.42,1.17,2.92s1.69-.2,2-.91a7.55,7.55,0,0,0,.48-2.79,32.5,32.5,0,0,1,.32-4.06c.22-1.13.6-2.15,1.91-1.84.62.14,1.26-.73.43-.93Z"/><path class="cls-7" d="M244.57,117.66a4.86,4.86,0,0,0-5.35-.07,4.74,4.74,0,0,0-1.81,1.89,4.86,4.86,0,0,0,.29,4.56,4.5,4.5,0,0,0,4.91,1.88,5,5,0,0,0,3.51-5.23,4.4,4.4,0,0,0-1.55-3"/><path class="cls-7" d="M297.28,128.25a4.88,4.88,0,0,1,5,1.94,4.74,4.74,0,0,1,1,2.43,4.81,4.81,0,0,1-2,4.12,4.51,4.51,0,0,1-5.25-.09,5,5,0,0,1-1.31-6.16,4.44,4.44,0,0,1,2.57-2.24"/><path class="cls-7" d="M280.71,132.23s8.8-5.93,14.29-5.39c8,.81,9.68,3,11.77,7.12,0,0-4.42-4.77-10.08-5.18C291.28,128.38,280.71,132.23,280.71,132.23Z"/><path class="cls-7" d="M255.53,125.37s-9.69-9.1-15.07-10.29c-7.86-1.74-18.18,1.1-21.45,4.39,0,0,13.73-4.45,19.24-3.08C243.51,117.7,255.53,125.37,255.53,125.37Z"/><path class="cls-7" d="M261.32,101.2q-.56,2.8-1.13,5.64c-.29,1.43-.85,4.72-1.15,6.15-4.27-2.11-8-4.73-10.8-5.83C242.66,105,237,102.35,231,102.1a19.93,19.93,0,0,0-8.12,1.1c-.83.31-3.21,1.89-4.21,1.16-.42-.3.79-2.46.91-2.68,2.44-4.36,6.78-5.51,11.83-5.66,10.31-.3,20.17,1.91,29.93,5.18"/><path class="cls-7" d="M315,113.52l-3.12-1.41c-8.65-4-17.82-5.45-27.29-5.91q-.53,2.82-1.06,5.65c-.26,1.44-.83,4-1.09,5.45,4.39-.43,8.25-1.19,11-1.2,5.53,0,11.36-.11,16.58,1.81.42.16,2.64,1,3,1.19C315.25,116.82,315.63,114.08,315,113.52Z"/><path class="cls-7" d="M245.14,190.24l21.39,3.89s-6.1,4.83-11.25,3.83C252.06,197.33,248,194.12,245.14,190.24Z"/><path class="cls-9" d="M268.64,161.93a8.9,8.9,0,0,1-8.06-2.11c-.46-.43-2.24-.44-1.6.16a12.57,12.57,0,0,0,11,2.68c.32-.1.32-.34,0-.54a2,2,0,0,0-1.32-.19"/><path class="cls-9" d="M258.1,159.11a14.12,14.12,0,0,0-4.78-2.26,1.11,1.11,0,0,0-.82.1c-.17.1-.24.28-.06.42a5.46,5.46,0,0,0,2.63,1.19,1.06,1.06,0,0,0,.92-.18c.2-.21-.06-.42-.29-.46a4.38,4.38,0,0,1-2.12-1l-.89.53a12.83,12.83,0,0,1,4.27,2,1,1,0,0,0,.94.07c.21-.07.46-.3.2-.48"/><path class="cls-9" d="M251.16,158c-2-.45-4.24-1.82-4.93-3.57-1-2.66,1.06-6,3.89-7.07.31-.11.21-.35-.06-.46a1.63,1.63,0,0,0-1.13,0,7.31,7.31,0,0,0-4.58,5.89c-.09,2.13,1.57,4,3.89,5a10.49,10.49,0,0,0,2.19.75,1.41,1.41,0,0,0,1.08-.13c.2-.22-.06-.39-.35-.45"/><path class="cls-9" d="M272.57,161.59a.27.27,0,0,1,.33-.34,2.44,2.44,0,0,0,1.68-.22l.4.77a7.11,7.11,0,0,0-3.4.55.57.57,0,0,1-.64-.23c-.1-.14-.19-.42,0-.52"/><path class="cls-9" d="M271,161.6a7.92,7.92,0,0,1,3.81-.6.69.69,0,0,1,.5.36.3.3,0,0,1-.1.42"/><path class="cls-9" d="M276.73,162.69a4.22,4.22,0,0,0,4-1.84,6.31,6.31,0,0,0-.29-7,.25.25,0,0,1,.18-.42.76.76,0,0,1,.66.36,7,7,0,0,1,1.06,6.09,4.91,4.91,0,0,1-5.37,3.57c-.21,0-.55-.2-.6-.46s.15-.35.34-.32"/><path class="cls-7" d="M232.72,166.12c-1.4.84-2.92,1.84-3.33,3.42a6.47,6.47,0,0,0-.12,1.76l.08,2.75a1,1,0,0,0,.11.53,1.05,1.05,0,0,0,.48.35,4.39,4.39,0,0,0,1.82.53,1.49,1.49,0,0,0,1.46-1,2.29,2.29,0,0,1,.18-.75c.29-.42.93-.25,1.43-.29,1.28-.09,1.82-1.61,2.56-2.64a6.55,6.55,0,0,1,4.46-2.38,13.29,13.29,0,0,0,2.58-.46,2.51,2.51,0,0,0,1.71-1.82"/><path class="cls-7" d="M286.69,175.49c1,1.29,2.05,2.77,1.86,4.39a6.38,6.38,0,0,1-.53,1.69L287,184.1a1,1,0,0,1-.3.46,1,1,0,0,1-.57.14,4.26,4.26,0,0,1-1.88-.16,1.5,1.5,0,0,1-1-1.46,2.08,2.08,0,0,0,.11-.77c-.12-.5-.78-.56-1.23-.78-1.16-.55-1.11-2.16-1.43-3.4a6.59,6.59,0,0,0-3.29-3.83,12.74,12.74,0,0,1-2.24-1.36,2.51,2.51,0,0,1-.93-2.32"/><path class="cls-7" d="M297.2,52.57a7.46,7.46,0,0,0-3.29-1.81l-1.29-.68Q286.56,49,280.44,48.2a8.82,8.82,0,0,0-3,0l-.3.09c-3-.63-6-1.22-9-1.74l-1.44.13a8.28,8.28,0,0,0-3.69.4,1.18,1.18,0,0,0-.1,2.23c1.16.6,3.09.27,3.81,1.11s-1.18,1.76-.78,2.76c.25.63,1.3,1,1.93,1.54s.9,1.47,1.6,2.13a4.27,4.27,0,0,0,3.1,1c1.12.28,2.72.09,2.94.93a1.24,1.24,0,0,1-.09.66,2.32,2.32,0,0,0,1.37,2.38,3.76,3.76,0,0,0,3.27.1c.89-.45,1.34-1.31,2.28-1.71a5.5,5.5,0,0,1,1-.29,3,3,0,0,0,.95.8,3.76,3.76,0,0,0,3.27.1c.89-.45,1.34-1.31,2.28-1.71s1.91-.36,2.38-.95c.74-.94-.8-2.57.29-3.28s2.67.43,4,.21A1.44,1.44,0,0,0,297.2,52.57Z"/><path class="cls-7" d="M242.17,211a6.18,6.18,0,0,0,2.78,1.24l1.09.46c3.3.35,6.62.59,9.94.74a7.42,7.42,0,0,0,2.46-.18l.23-.09c2.44.31,4.89.6,7.35.82l1.15-.19a6.82,6.82,0,0,0,2.95-.57,1,1,0,0,0-.06-1.81c-1-.41-2.51,0-3.15-.65s.83-1.49.45-2.27c-.24-.5-1.11-.73-1.66-1.12s-.82-1.13-1.42-1.61a3.43,3.43,0,0,0-2.57-.58c-.92-.16-2.2.1-2.44-.57a1.1,1.1,0,0,1,0-.54,1.86,1.86,0,0,0-1.25-1.82,3,3,0,0,0-2.65.12c-.69.43-1,1.15-1.73,1.54a5.36,5.36,0,0,1-.77.29,2.34,2.34,0,0,0-.81-.58,3.06,3.06,0,0,0-2.65.12c-.69.43-1,1.15-1.73,1.54s-1.52.41-1.86.92c-.53.8.81,2,0,2.67s-2.18-.18-3.22.08A1.17,1.17,0,0,0,242.17,211Z"/><path class="cls-10" d="M165,103.2a7.78,7.78,0,0,1-3.46-1.33,2.66,2.66,0,0,1-.79-3.32c1.08-1.66,4.39-1.45,4.49-3.42-1.3-2.15-5.23-2-5.78-4.47-.44-2,1.83-3.4,3.73-4.15-1-1.34-.84-.24-2.39-.91s-1.85-4.73-.71-6,1.66,0,1.33-1.94c-1.22-.6,1.79-1.25,1-2.34a3.1,3.1,0,0,1-.18-3.79c1.08-1.25,3.49-1.36,3.71-3,.2-1.39-1.48-2.25-2.14-3.49-1.19-2.28,1.27-4.68,3.42-6.08a9.59,9.59,0,0,1-2.53-3.11,3.24,3.24,0,0,1,.65-3.72,13.4,13.4,0,0,1,2.22-1.08c3-1.68,2-6.12.71-9.25a4.88,4.88,0,0,0,5.65-3.15,15,15,0,0,1,.85-3.23c.56-1,2.17-1.44,2.74-.47"/><path class="cls-7" d="M165.52,102.12c-1.24-.26-2.76-.6-3.34-1.88s.1-1.69,1.09-2.11c1.27-.54,4.1-1.64,3.42-3.54-.61-1.74-3.31-2.2-4.69-3.07a1.74,1.74,0,0,1-.94-2.15c.44-1,1.81-1.59,2.78-2,.53-.21,1.2-.95.73-1.53a2.82,2.82,0,0,0-1.26-1,7.28,7.28,0,0,0-1.16-.07c-1-.17-1.17-1.65-1.22-2.47a5.12,5.12,0,0,1,.16-1.7c.06-.18.16-.34.23-.51a1.18,1.18,0,0,1,.26-.24c-.07,0-.29.14-.06,0,1.1-.52,1.71-.92,1.48-2.24a1.63,1.63,0,0,0-.13-.48c-.22-.43-.18-.38-.32,0-.23.65-.06.31.12.23a3,3,0,0,0,1-.9c.92-1.24-.28-1.93-.47-3.15-.27-1.71,1.34-2,2.49-2.67a3,3,0,0,0,1.73-3c-.27-1.56-2.06-2.24-2.38-3.72-.4-1.89,1.82-3.46,3.15-4.35.34-.22.81-.94.39-1.33-1.27-1.18-3.24-2.93-2.58-4.91.31-1,1.39-1,2.18-1.48A5.34,5.34,0,0,0,170,50.43c2-2.57.9-6.34-.21-9l-2.06,1.49A7.06,7.06,0,0,0,173.87,41a5.66,5.66,0,0,0,1.54-2.5c.2-.68.25-1.38.43-2.07.07-.28.26-.57.31-.85.21-.13.22-.17,0-.12s-.15,0-.14.12c.82,1.07,3.72-.11,2.8-1.33-1.54-2-4.89-.62-5.77,1.35-.59,1.32-.37,2.9-1.3,4.06a2.9,2.9,0,0,1-3,1c-.66-.14-2.45.52-2.06,1.49a13.4,13.4,0,0,1,1.24,5,4.45,4.45,0,0,1-.48,2.24,3.13,3.13,0,0,1-1.75,1.19,4.18,4.18,0,0,0-2.89,4c0,2.11,1.52,3.64,3,5l.39-1.33c-2.54,1.69-5.8,4.92-3.38,8,.61.79,2.39,2,1,2.91s-2.75,1.2-3.44,2.69a3.61,3.61,0,0,0-.25,2,15.6,15.6,0,0,0,.84,1.92c0-.26-.42.25-.63.43a1.75,1.75,0,0,0-.75,1.18c0,.34.13.39.24.68,0-.07.37.51.17.51s1.45-.8.86-.84a2.12,2.12,0,0,0-.36.13,4.12,4.12,0,0,0-2.63,3.84,5.81,5.81,0,0,0,1,4,3.09,3.09,0,0,0,1.83,1,2.77,2.77,0,0,0,1.07.08,1.8,1.8,0,0,1,.22,0c.08.16-.85-.54-.19.28l.73-1.53c-2.19.89-5.53,2.93-4.47,5.79a4.33,4.33,0,0,0,2.33,2.2c.94.46,2.51.83,3.15,1.72.19.27.2.17-.14.41a8,8,0,0,1-1.56.67,4.93,4.93,0,0,0-2.69,2.24c-1.55,3.45,2.86,5.08,5.32,5.6,1.47.31,3.09-1.73,1.07-2.16Z"/><path class="cls-11" d="M175.64,40.19c.57-1.43,3-8.26,3.6-9.69A3.36,3.36,0,0,0,184,28.4c.21-1,.09-2.29,1-2.74s1.94.48,3,.59c2.29.25,3.18-3.39,5.44-3.85,1.42-.28,2.82.82,4.25.59,2.15-.34,3-3.36,5.08-3.91,1.46-.38,3,.6,4.47.43,3.25-.36,4.68-5.63,7.92-5.16,1.18.17,2.15,1.15,3.35,1.23,2.14.14-.66-2.56,1.48-2.53,2,0,3.19,2.31,5.09,2.82,3.09.84,6.39-3.26,9.13-1.6,1.18.71,1.64,2.25,2.79,3,2.68,1.77,6.33-1.92,9.31-.7,1.5.62,2.36,2.34,3.92,2.79,2.41.7,4.78-2.05,7.22-1.47,1.95.46,3.07,2.86,5.06,3.06,1.39.14,2.67-.88,4.07-.87,2.39,0,3.73,2.89,6,3.74,1.88.71,3.94-.12,5.94-.29s5.63,4.24,5.38,6.23"/><path class="cls-7" d="M177.15,40c1.26-3.2,2.35-6.48,3.6-9.68l-2.74.88c2,1,4.71.28,6.3-1.1a3.75,3.75,0,0,0,1.28-2.35,6.92,6.92,0,0,0,.29-1.54l.05-.13c-1,.13-1.19.27-.56.43a4.89,4.89,0,0,0,1,.38,5.55,5.55,0,0,0,5.43-2c.33-.37,1.23-1.83,1.77-1.88,0,0,.78.37.9.4s.51.15.77.21a5.92,5.92,0,0,0,2.14.08c2.36-.36,3.43-1.94,5-3.5.46-.45.51-.47,1.13-.35s1.26.32,1.91.39a6.82,6.82,0,0,0,3.66-.66c1.68-.81,2.77-2.28,4-3.59.29-.31.68-.55.95-.86s.34,0-.07-.07a2.36,2.36,0,0,1,.58.15c1.22.42,2.14,1.17,3.51,1.11a3.62,3.62,0,0,0,2.53-.95c.39-.52.18-1,.08-1.56a1.28,1.28,0,0,0-.07-.39v-.07c.1-.56-.34-.41-1.33.46.12.12.58.2.75.3a6.15,6.15,0,0,1,.68.45,12.08,12.08,0,0,0,2.65,1.84c2.1.84,4.45,0,6.39-.9a5.38,5.38,0,0,1,2.39-.87c1.13.12,1.8,1.5,2.41,2.27,1.49,1.89,3.75,1.82,5.9,1.24,1-.26,1.9-.66,2.88-.91a3,3,0,0,1,2.93.92A7.57,7.57,0,0,0,249,20a6.28,6.28,0,0,0,3.59-.19c1-.29,1.91-.85,2.9-1.15,1.2-.36,2.08.54,2.93,1.29a5.71,5.71,0,0,0,3,1.67,6,6,0,0,0,2-.1c.75-.15,1.5-.59,2.25-.68,1.14-.15,2.16,1,2.93,1.67a8.22,8.22,0,0,0,3.16,2.08,9.87,9.87,0,0,0,4.36-.06,6,6,0,0,1,1.91-.26,3.53,3.53,0,0,1,1.27.77c1.39,1.13,3.22,3.18,3.09,5.11,0,.62,3,.21,3-.81.12-1.69-1.34-3.48-2.44-4.62a5.14,5.14,0,0,0-4.85-1.8c-1.39.19-2.94.76-4.31.24A10.4,10.4,0,0,1,270.89,21a5.79,5.79,0,0,0-6.2-1.14,2.57,2.57,0,0,1-1.73.27,4.58,4.58,0,0,1-1.37-.94A8.64,8.64,0,0,0,259,17.35a5.72,5.72,0,0,0-3.28,0c-1.23.3-2.32,1-3.54,1.34s-1.89-.63-2.62-1.31a5.59,5.59,0,0,0-2.84-1.67c-2.3-.41-4.36.69-6.53,1.23-2.47.61-3-2.42-4.8-3.36-2-1-4.37-.09-6.22.75a6.65,6.65,0,0,1-2.53.94c-1.12,0-2.06-1.11-2.89-1.74-1.54-1.17-4-1.83-5.64-.42a1.35,1.35,0,0,0-.41,1.49,3.81,3.81,0,0,0,.16.79c-.09-.08,1.21-.36,1.2-.61,0,0-1.2-.54-1.31-.6a5.85,5.85,0,0,0-5.82.53c-1.57,1-2.46,2.87-4,3.89-.77.5-2-.17-3-.28a6.41,6.41,0,0,0-3.6.65,9.07,9.07,0,0,0-2.59,2.31c-.32.38-.71,1-1.19,1.15.39-.15.47-.08-.19-.24-.39-.09-.76-.23-1.15-.33-2.69-.67-4.9.46-6.61,2.46-.33.39-.69.75-1,1.14l-.18.16c-.33.21-.15.19.55-.07,0,0-1-.37-1.08-.39a4.46,4.46,0,0,0-3.9.29c-1.15.68-1.18,1.68-1.39,2.88a2.46,2.46,0,0,1-.84,1.66c-.46.27-.74.11-1.23-.14-.66-.33-2.46.15-2.75.89-1.26,3.21-2.34,6.48-3.6,9.69-.28.72,2.68.39,3-.48Z"/><path class="cls-12" d="M283.46,27.12a11,11,0,0,0,8.36.35,4.57,4.57,0,0,0,4.34,5.21,19.8,19.8,0,0,1,3-.24c3.43.47,4.88,6.32,8.25,5.52-1.58.83-.73,3.36.69,4.44s3.36,1.85,3.86,3.56c.18.61.15,1.26.38,1.85a5.11,5.11,0,0,0,1.51,1.8,19.21,19.21,0,0,1,5.32,8c1.83,5.34,3.11,9.93.57,22.46,3.2-15-2.62-18.11-5.74-23-2.64-4.11-8.46-5.85-12.41-8.73s-8.57-4.31-13.19-5.62c-14.13-4-28.66-13.8-43.26-15.46-12.4-1.41-22.68-3.43-34.87-.72s-17.51,6.06-24.87,16.15c0,0,17.48-22.74,33.26-23.09S260,26,260,26Z"/><path class="cls-7" d="M282.58,28.15a13.07,13.07,0,0,0,9.53.38l-1.83-1A5.45,5.45,0,0,0,292.93,33a5.69,5.69,0,0,0,3.1.81c1.11,0,2.27-.55,3.31,0,1.46.81,2.36,2.43,3.52,3.58A5,5,0,0,0,307.65,39l-1.29-1.77a3,3,0,0,0-1.17,3.68,6.73,6.73,0,0,0,3.13,3.32,5.93,5.93,0,0,1,1.79,1.51c.51.8.38,1.78.75,2.63a6,6,0,0,0,1.63,2,19.37,19.37,0,0,1,2.15,2.29c3.24,4.1,4.84,10,4.94,15.15a58.5,58.5,0,0,1-1.42,12.43c-.31,1.52,2.8,1.14,3.09-.23,1-4.75,1.57-10-.14-14.65-1.07-2.9-3-5.14-4.82-7.56A21.21,21.21,0,0,0,312,53.1a74.76,74.76,0,0,0-6.92-4c-2.69-1.55-5.1-3.39-8-4.63a85.59,85.59,0,0,0-9.09-3c-12.56-3.84-23.86-11.09-36.69-14.16a89,89,0,0,0-9.75-1.51c-3.39-.42-6.78-.86-10.18-1.17a70.11,70.11,0,0,0-20,.7c-5.47,1.07-11,2.64-15.8,5.58s-8.27,7.07-11.49,11.46c-1.15,1.57,1.7,2,2.56.92a85,85,0,0,1,11.91-12.45,51.41,51.41,0,0,1,11.39-7.73,23.73,23.73,0,0,1,6.08-2,30.74,30.74,0,0,1,6.78-.16c9.92.48,19.8,2.38,29.47,4.55,2.26.5,4.51,1.06,6.76,1.61a25,25,0,0,0,4.65.3l19.25.89a2,2,0,0,0,2-.94A1,1,0,0,0,284,26l-17.36-.79a49.42,49.42,0,0,0-6.07-.28c.49,0,.33.08,0,0s-.81-.21-1.21-.3c-1.45-.36-2.9-.71-4.36-1a188.65,188.65,0,0,0-29.47-4.83c-4.81-.33-9.47-.37-14.05,1.31a45.41,45.41,0,0,0-12.32,7.17,86.38,86.38,0,0,0-15,15.1l2.56.92c2.73-3.73,5.71-7.37,9.54-10a36,36,0,0,1,12.11-5,62.24,62.24,0,0,1,19-1.64c3.28.21,6.54.58,9.8,1s6.4.68,9.56,1.2c12.45,2,23.53,8.88,35.22,13.23,5.81,2.16,12.16,3.19,17.44,6.59,2.3,1.48,4.58,2.86,7,4.19a18,18,0,0,1,5.91,4.5c1.84,2.44,4,4.9,5.36,7.65,2.29,4.76,1.66,10.32.62,15.31l3.09-.23c1.18-5.9,2.08-12.09.79-18a32,32,0,0,0-2.23-6.77,19.68,19.68,0,0,0-3-4.66,23.25,23.25,0,0,0-1.78-1.8,3.82,3.82,0,0,1-1.43-2.61c-.32-1.84-1.72-2.87-3.19-3.83a5.34,5.34,0,0,1-1.84-1.59c-.33-.53-.81-1.6-.15-2a1,1,0,0,0,.38-1.39c-.36-.52-1.14-.49-1.67-.38-.91.17-2-1.44-2.52-2a12.07,12.07,0,0,0-3.1-2.95,5.1,5.1,0,0,0-2.25-.66c-1.06-.06-2.16.41-3.21.21a3.68,3.68,0,0,1-2.64-4.15c.14-.93-1.21-1.16-1.83-1a9.58,9.58,0,0,1-7.21-.32C283,25.5,280.8,27.37,282.58,28.15Z"/><path class="cls-10" d="M287.66,194.27a32.23,32.23,0,0,1-4.91,8.08c1.07.53.34,2.21-.66,2.86s-2.34,1.34-2.26,2.53c0,.41.24.8.26,1.21.06,1.31-1.61,1.86-2.91,2,.75.79-.17,2.05-1.12,2.59s-2.15,1.23-2,2.31c.06.53.47,1,.38,1.54-.2,1.1-2,.83-2.74,1.67-.43.48-.39,1.21-.63,1.81a2.07,2.07,0,0,1-3.29.6c-.58,2.2-2,4.95-4.21,4.5-1.38-.28-2.51-1.82-3.86-1.44-.84.24-1.33,1.13-2.13,1.49-2.68,1.21-4.95-4.37-7.63-3.16-1.44.65-1.74,3-3.29,3.25s-2.47-1.56-3.92-1.93-3.43.95-4.75,0c-.57-.41-.81-1.14-1.27-1.67-1.05-1.22-2.51.17-4.1.42-2.85.44-2.8-1.55-2.8-1.55-.52-2-1.6-2-3.55-1.29a4.52,4.52,0,0,1-2,.61c-1.69-.17-2.07-3-3.77-3.14a5.57,5.57,0,0,0-1.78.52c-2.18.64-4.29-2.45-2.9-4.25a4.74,4.74,0,0,1-3.77-5.71,4.29,4.29,0,0,1-4.77-4.49c-2.91.36-5.37-3.39-3.89-5.92a3.39,3.39,0,0,1-3.86-3.73c.19-1.06.85-2.35,0-3.08-.53-.48-1.35-.33-2.06-.44a2.72,2.72,0,0,1-1.72-4c-2.87.28-4.87-4-2.83-6-2.25.16-3.77-3.16-2.18-4.76-3-.54-4.42-4.84-2.37-7.06l29.34,40.64,8.33,5.39s31.19,7.54,37.55,5.73S287.66,194.27,287.66,194.27Z"/><path class="cls-7" d="M286.15,194.53a32.59,32.59,0,0,1-4.78,7.92c-.1.11-.24.3-.05.42,1.81,1.23-1.72,3-2.37,3.73a2.09,2.09,0,0,0-.57,2c.16,1,.24,1.66-.92,1.82-.1,0-2.12.55-1.8,1,1,1.45-1.28,2.31-2.14,3-1.17,1-1,1.77-.61,3.11.18.61-.48.52-1.11.76a4,4,0,0,0-1.49.91,3.33,3.33,0,0,0-.61,1.51,3.5,3.5,0,0,1-.14.46c-.22.25-.17.34.15.26s.37,0-.07-.11a1.58,1.58,0,0,1-.43-.34c-.5-.46-2.76.13-2.94.79a8.46,8.46,0,0,1-1.56,3.32l-.21.22c-.39.29-.29.32.31.1-.05.1-.93-.39-1-.45a10.31,10.31,0,0,0-1.63-.89,4.91,4.91,0,0,0-3.64.39,4.15,4.15,0,0,0-1.28.91l-.24.23c.65,0,.78,0,.38-.08-.12-.15-.53-.26-.71-.38-1.48-1-2.61-2.67-4.44-3a5.46,5.46,0,0,0-3.17.54,6,6,0,0,0-2.3,2.37,3.31,3.31,0,0,0-.38.52l-.19.19c1-.09,1.17-.24.55-.44a12.12,12.12,0,0,0-1.36-1,4.58,4.58,0,0,0-3.41-.76,6.92,6.92,0,0,1-2.14.33c-.7-.18-1-1-1.37-1.48-.81-1.14-2-1.12-3.25-.83-1,.23-2.37,1.23-3.31.54-.42-.3-.43-.66-.56-1.1-.68-2.47-2.92-2.17-5-1.5a5.83,5.83,0,0,0-1,.38c-.45.12-.52.17-.23.17s.22,0-.07-.08c-.32-.47-.86-.88-1.21-1.37a3.18,3.18,0,0,0-2.12-1.64,5.23,5.23,0,0,0-2.28.29,4.53,4.53,0,0,1-.9.35c.73,0-.29-.35-.49-.51a2.64,2.64,0,0,1-.73-3.51c.12-.17-.13-.32-.26-.34a4.51,4.51,0,0,1-3.5-5.37c.09-.42-.61-.41-.86-.38-2.29.28-4-2.17-3.9-4.25,0-.29-.76-.24-.87-.23-2.65.2-4.1-3.53-3-5.55.27-.52-1.13-.34-1.23-.33-1.36.21-2.59-1.77-2.65-2.89s.94-2.51.24-3.56-2.34-.45-3.32-1.19a2.57,2.57,0,0,1-.63-3.3c.24-.4-.73-.38-.85-.37-1.15.05-2.12-1.22-2.49-2.16a3.11,3.11,0,0,1,.39-3.3c.31-.35,0-.55-.4-.54-1.9,0-3-2.86-1.78-4.22.19-.22.19-.43-.13-.51a4.24,4.24,0,0,1-2.23-6.55l-2.91.51,14,19.41,9.93,13.75c1.75,2.42,3.38,5.06,5.31,7.35a15.61,15.61,0,0,0,3.51,2.41l3.53,2.28a10,10,0,0,0,1.65,1A22.09,22.09,0,0,0,228,216q3.74.85,7.48,1.65c6.27,1.32,12.59,2.56,19,3.3,4.43.51,9,.95,12.83-1.79,4.73-3.42,8.58-8.23,12.27-12.7q4.74-5.76,9.15-11.77l.49-.67c.34-.47-1.11-.35-1.23-.33a2.78,2.78,0,0,0-1.78.85c-2.07,2.86-4.23,5.67-6.43,8.44a125.9,125.9,0,0,1-12.13,13.77A28,28,0,0,1,265,219a9.75,9.75,0,0,1-1.14.75c-.05,0-.23.11-.38.2.11-.07-.09,0,0,0-.24.07.29,0-.16,0l-.27,0c-.45,0-.89.05-1.33.05-1.16,0-2.31-.08-3.46-.19a165.8,165.8,0,0,1-18.26-3c-4.1-.84-8.17-1.95-12.28-2.72-.51-.09,0,.11-.44-.2-.91-.64-1.88-1.22-2.82-1.82l-3.39-2.2-1.3-.83c-.07-.05-.66-.45-.41-.22a10.2,10.2,0,0,1-1.16-1.6l-3-4.18-9.25-12.82q-7.81-10.81-15.63-21.64c-.09-.14-.19-.27-.28-.4-.49-.67-2.48,0-2.91.51a4.72,4.72,0,0,0,2.5,7.56l-.13-.5a3.25,3.25,0,0,0,2.58,5.3l-.4-.54a3.72,3.72,0,0,0-.44,4.41,4,4,0,0,0,4,2.12l-.85-.38a2.93,2.93,0,0,0,2.25,4.4c1.1.15,2.05.16,1.86,1.56-.23,1.65-.81,2.83.38,4.29a4.4,4.4,0,0,0,4.33,1.35L201.9,198c-1.71,3.26,1.47,6.54,4.74,6.3l-.87-.23c-.18,3.09,2.81,5.06,5.65,4.71l-.85-.37a5,5,0,0,0,4,6.06l-.26-.35c-1.39,2.09.61,4.65,2.86,4.72a6.11,6.11,0,0,0,2.08-.36l.36-.12c.43-.18.47-.19.11-.05a2.09,2.09,0,0,1,.54.44c.75.76,1.12,1.91,2.13,2.39,1.24.6,2.78,0,4-.45.6-.26.81-.53,1.23-.2a2.46,2.46,0,0,1,.69,1.38c.55,2,2.63,2,4.41,1.6.75-.16,1.46-.58,2.2-.72l.33-.13c-.29.15-.27.3,0,.44a6.54,6.54,0,0,0,.71,1.06c.91,1.19,2.28,1.18,3.65.95a5.38,5.38,0,0,1,1.85-.26,4.69,4.69,0,0,1,1.64,1,4,4,0,0,0,3.66.79,4.56,4.56,0,0,0,2.82-1.88c.11-.15,1.07-1.43,1.05-1.48l-.72.11a1.88,1.88,0,0,1,.42.14c.24.19.55.31.79.49,1.64,1.19,2.91,3,5.15,2.84a6.08,6.08,0,0,0,2.17-.58c.3-.14,1.83-1,1.83-1.36l-.93.26a2.46,2.46,0,0,1,.68.31c.4.21.77.48,1.17.69a4.31,4.31,0,0,0,2,.52c3.35,0,5.28-2.49,6.11-5.45l-2.94.78c1.28,1.18,3.52.7,4.89-.06a2.8,2.8,0,0,0,1.47-1.79c.11-.36.12-1,.43-1.24s.91-.28,1.22-.41c.62-.26,1.41-.64,1.58-1.36.23-.95-.79-1.66,0-2.57s4.16-2.13,2.81-4l-1.8,1a8.18,8.18,0,0,0,3.78-1.33,2.3,2.3,0,0,0,.87-1.1c.21-.7-.27-1.32-.16-2,.19-1.26,2-1.71,2.76-2.64s1-2,0-2.64l-.05.43a34.29,34.29,0,0,0,5-8.24C289.39,193.47,286.5,193.73,286.15,194.53Z"/><path class="cls-7" d="M235.14,164.83c1-1,1.83-.48,3.1-.52a3.31,3.31,0,0,0,1.89-.64c.41-.31.69-.91,1.13-1.15s.57.06,1,.38a4.34,4.34,0,0,0,1.41.74A4.64,4.64,0,0,0,247,163c.12-.06.48-.14.32-.17s.32.44.31.42a2.65,2.65,0,0,0,1.41.74,4.49,4.49,0,0,0,3.4-1c.17-.12.63-.6.83-.63,0,0,.32.2.36.22a11.38,11.38,0,0,0,1.7.78,3.39,3.39,0,0,0,3.33-1,.91.91,0,0,0-.4-1.51,2.07,2.07,0,0,0-2.15.58c.48-.5.58-.24,0-.55-.25-.15-.5-.3-.77-.43a3.76,3.76,0,0,0-1.74-.39,4.22,4.22,0,0,0-1.93.58c-.42.24-1,.89-1.4,1-.25.06-.49-.39-.84-.63a2.68,2.68,0,0,0-1.48-.45,4.47,4.47,0,0,0-1.8.38c-.28.12-.84.56-1.11.53s-.88-.67-1.14-.83a3.72,3.72,0,0,0-1.54-.56,4.62,4.62,0,0,0-3.33,1.11,5.11,5.11,0,0,0-.73.74c-.33.51,0-.05.21.07a4.14,4.14,0,0,0-1.95-.14,5.79,5.79,0,0,0-3.5,1.53c-1.51,1.41.88,2.5,2,1.43Z"/><path class="cls-7" d="M269.46,166.15c-.49.11,0,.14.26.37s.64.54,1,.8a4.51,4.51,0,0,0,2.52,1.05c.53,0,.58,0,.84.47a2.39,2.39,0,0,0,.95,1,4.45,4.45,0,0,0,3.36-.12l.24-.09c.36-.07.32-.12-.13-.15,0,0,.17.24.19.29.19.37.28.79.48,1.17a2.93,2.93,0,0,0,2.49,1.37,3.44,3.44,0,0,1,1.28.14c.36.19.28.51.32.88a1.47,1.47,0,0,0,.72,1.15,2.84,2.84,0,0,0,.62.27l.26.09c.27.13.26,0-.05-.3,0,1.51,3.09,1,3.07-.27a1.19,1.19,0,0,0-.62-1.13c-.22-.13-.49-.16-.7-.28s-.18,0-.24-.22c-.2-.56,0-1-.52-1.51a3,3,0,0,0-1.29-.7,11.71,11.71,0,0,0-1.76-.2c-.51-.06-.62-.27-.81-.72-.41-1-.77-1.85-2-2a4.72,4.72,0,0,0-2.07.29,3,3,0,0,1-.79.24q-.14,0,.12,0a1.13,1.13,0,0,1-.21-.31,2.42,2.42,0,0,0-1.17-1.17,6.72,6.72,0,0,0-1.61-.29c-.82-.14-1.44-1-2.08-1.43a3.62,3.62,0,0,0-3.15-.62c-.57.13-1.44.68-1.26,1.37s1.24.68,1.78.56Z"/><path class="cls-13" d="M187.25,112.13c3.58-2.64.53-9.09,3.48-12.41A28.15,28.15,0,0,0,193,97.6c1.68-2.35-.18-5.93,1.3-8.42.66-1.12,1.9-1.82,2.46-3,1.08-2.23-.77-4.92-.17-7.32.68-2.7,4.3-4.55,3.62-7.25-.33-1.32-1.66-2.23-1.92-3.56-.45-2.32,2.46-4.87,1-6.74-.51-.65-1.42-.93-1.8-1.66-.78-1.46,1.07-2.84,1.93-4.25s.67-3.33,1.11-5,2.27-3.27,3.71-2.35c-.52-2.78,2.14-9.76,4.88-9,1.35.35,3,1.27,3.91.2.64-.76.24-2,.8-2.83,1.41-2.1,4.8,1.83,7,.6.6-.34.94-1,1.47-1.43,1.2-1,3-.63,4.43,0s.86-1.4,2.42-1.46,3.22-2.84,2.46-4.19c1.44,1.13,5.07,3.78,6.87,4.17s4.41-2.79,5.16-4.47c.1,2.62,3.13,9.25,5.06,7.48.77-.71,1.39-1.85,2.43-1.82a2.36,2.36,0,0,1,1.26.56c1.67,1.25,3.3,7.16,4,9.11l.81-11.37-30.77-9L193.94,35.33,184,67.67l4.26,46.74"/><path class="cls-7" d="M188.22,112.66a6.83,6.83,0,0,0,2.49-5.4c.13-2.07-.18-4.44.74-6.38.55-1.17,1.68-1.73,2.52-2.66a5.16,5.16,0,0,0,1.28-3.35c.06-1.18-.12-2.37-.06-3.56a4.85,4.85,0,0,1,1.71-3.42,5.32,5.32,0,0,0,1.67-2.9,12.54,12.54,0,0,0-.45-3.94,4.79,4.79,0,0,1,.48-3.48c.6-1,1.42-1.8,2.09-2.73a5.13,5.13,0,0,0,1.1-2.54,4.65,4.65,0,0,0-1.19-3.07,3.22,3.22,0,0,1-.64-3.11,29.6,29.6,0,0,0,1.19-3.18A2.79,2.79,0,0,0,200,60.05c-.59-.46-1.29-.83-1.09-1.71A5.18,5.18,0,0,1,200,56.61a7.49,7.49,0,0,0,1.67-4,12.71,12.71,0,0,1,.37-2.37,3.48,3.48,0,0,1,.31-.72,2.75,2.75,0,0,1,.48-.6c.27-.27.34-.3.19-.07.77.4,2.91,0,2.73-1.19a10,10,0,0,1,2.47-7.48,3.71,3.71,0,0,0,.42-.35c-.19.26-.73-.07-.11.18a8.24,8.24,0,0,0,2.8.66A3.34,3.34,0,0,0,215,37.85a5.64,5.64,0,0,0,.21-1.18l.08-.18q-.88,0-.63.24s.07,0,.09,0a4.23,4.23,0,0,0,.87.3l1,.43a6.25,6.25,0,0,0,4.07.55,4.45,4.45,0,0,0,2-1.14c.25-.24.58-.84.92-1a2.29,2.29,0,0,1,1.26.17c1.47.43,2.94,1,4.17-.36a2.12,2.12,0,0,0,.46-.71c0,.15.13-.25.14-.24s-1.14.35-.15.2a4.53,4.53,0,0,0,2.35-1.22c1-1,2-2.8,1.38-4.24l-2.72,1.19a44.33,44.33,0,0,0,3.74,2.65,9.25,9.25,0,0,0,4,1.72c3,.19,5.76-2.88,6.94-5.37l-3,.33a13.51,13.51,0,0,0,2.11,5.83c1,1.71,2.6,3.07,4.7,2.2a3.86,3.86,0,0,0,1.25-.87,3.49,3.49,0,0,0,.66-.73l.22-.23c-.55-.06-.6,0-.15.19.24.35.64.6.88,1a10,10,0,0,1,.79,1.52c.93,2.09,1.54,4.29,2.32,6.44.39,1.06,3,.47,3.06-.58l.81-11.36c0-.42-.24-.63-.61-.73l-30-8.75a4.53,4.53,0,0,0-2.93.16l-6.84,2.25-19.3,6.34-5.13,1.69c-1.57.52-1.64,1.49-2.07,2.88L186.38,55.1l-2.76,9a23.73,23.73,0,0,0-1.15,3.74,16.1,16.1,0,0,0,.27,3.17l.68,7.46,3.25,35.62.07.74c.1,1.13,3.16.45,3-.82l-3.17-34.84-.78-8.58-.23-2.51-.06-.6c0-.26.06-.23,0,0,1.3-5.08,3.1-10.08,4.64-15.08l5.3-17.25-1.3,1,28.54-9.38,4-1.3-1.14,0,26.95,7.85,3.82,1.12-.62-.73-.81,11.36,3.05-.57c-.78-2.15-1.39-4.35-2.32-6.44s-2.24-4.18-4.81-3.69a4.9,4.9,0,0,0-3.12,2.14c-.4.32-.28.34.35.07.57,0,.76-.06.57-.17,0,0-.41-.3-.4-.28a5.88,5.88,0,0,1-.89-1.1,12.54,12.54,0,0,1-2.16-5.86c-.07-1.15-2.65-.32-3,.33a9.84,9.84,0,0,1-1.87,2.66,4.24,4.24,0,0,1-1.25,1c-.24.11.35.07.11,0s-.45-.16-.67-.26a29.16,29.16,0,0,1-5.71-3.75c-.61-.47-3.18.17-2.72,1.19a2.17,2.17,0,0,1-.2,2,4.28,4.28,0,0,1-.62.83c-.07.08-.41.27.06.06a5.07,5.07,0,0,1-.68.11,3.29,3.29,0,0,0-1.8,1.12,1.94,1.94,0,0,0-.4.62c-.1.93,1.32-.82,1.44-.26,0-.1-.67-.26-.75-.3a6.38,6.38,0,0,0-5.35.27,5,5,0,0,0-1,.75c-.11.11-.62.81-.64.82.18-.09-.2-.07-.38-.11a7.41,7.41,0,0,1-1.08-.4,7.43,7.43,0,0,0-3.73-1,3.22,3.22,0,0,0-3,2.65,5.62,5.62,0,0,0-.19,1.33c0-.24.66.24.19-.1a2.74,2.74,0,0,0-.72-.21,6.32,6.32,0,0,0-2.42-.47,5,5,0,0,0-3.33,1.77,11.74,11.74,0,0,0-2.8,8.66l2.72-1.19c-2.45-1.27-5.49.52-6.34,3-.43,1.25-.35,2.59-.66,3.87-.37,1.52-1.59,2.39-2.29,3.73a2.34,2.34,0,0,0,.37,3c.93.91,1.9,1.26,1.52,2.73-.63,2.4-2.15,4.09-.54,6.5.65,1,1.48,1.87,1.16,3.11a9,9,0,0,1-2,3,7.89,7.89,0,0,0-1.58,2.75A8.81,8.81,0,0,0,195.3,83c.29,1.47.44,2.81-.63,4a9.32,9.32,0,0,0-2.23,3c-.87,2.48.76,5.84-1.21,7.9-1,1-2.1,1.68-2.71,3a9.74,9.74,0,0,0-.77,3.61c-.12,2.09.42,5.64-1.46,7.14-1.62,1.28.91,1.88,1.93,1.06Z"/><path class="cls-10" d="M183.88,132.49l2.63.68a1.32,1.32,0,0,0,.83,0c.65-.28.44-1.21.36-1.91-.19-1.62.91-3.06,1.8-4.43s1.63-3.18.75-4.55c-.47-.72-1.35-1.29-1.33-2.14,0-1.13,1.49-1.5,2.35-2.22a2.72,2.72,0,0,0-.61-4.35s2.25-1.85,2.17-6.16-.67-9-.67-9L186.4,94Z"/><path class="cls-7" d="M183,133.37c1.45.37,3.1,1.1,4.6.66a2.2,2.2,0,0,0,1.74-2.51,6.19,6.19,0,0,1,1.4-4.25,7.11,7.11,0,0,0,1.47-3.88,3.16,3.16,0,0,0-.51-1.69c-.32-.5-.92-.9-1.11-1.46-.35-1,1.47-1.52,2.06-2.09a3.33,3.33,0,0,0-.74-5.32l0,1.06a7.91,7.91,0,0,0,2.33-4.67c.52-3.24-.07-6.85-.42-10.09a2.24,2.24,0,0,0-.38-1.39,11.38,11.38,0,0,0-1.78-1.37l-3.84-3c-.67-.52-2.86-.34-2.94.79l-2.2,33.71-.32,4.76c-.08,1.32,3,.75,3.06-.35l2.21-33.71.31-4.76-2.94.79,3.46,2.66c.63.49,1.24,1,1.91,1.47a1.53,1.53,0,0,1,.38.29c-.24-.34-.06.21,0,.45a47.12,47.12,0,0,1,.55,9.33c-.14,1.54-.66,3.48-1.83,4.46a.62.62,0,0,0,0,1.07,2.16,2.16,0,0,1,1.11,2c0,.92-.52,1.28-1.24,1.72-1.4.85-2.58,2.08-1.43,3.68.63.89,1.32,1.42,1.17,2.63a6.92,6.92,0,0,1-1.34,2.91,10.18,10.18,0,0,0-1.43,2.78,4.48,4.48,0,0,0-.14,1.41c0,.23.08,1.29.22,1.19l1.15-.4a9.65,9.65,0,0,1-2.73-.67,2.41,2.41,0,0,0-2.15.58C182.19,132.67,182.31,133.2,183,133.37Z"/><path class="cls-13" d="M304.24,49.76c-.5.82.59,1.7,1.52,1.94s2.13.61,2.15,1.56c0,.6-.49,1.11-.47,1.7,0,1.81,3.66.81,4.37,2.47.53,1.25-1.18,2.87-.28,3.89.43.48,1.18.43,1.81.57a2.74,2.74,0,0,1,2.07,2.34c.08.83-.21,1.71.14,2.47s1.55,1.2,2.39,1.74c2.22,1.45,2.31,4.62,2,7.24s-.75,5.63,1,7.62a5,5,0,0,0,1.65-6.45,14.14,14.14,0,0,1-1.11-1.91,1.66,1.66,0,0,1,.47-2c.32-.18.73-.23.95-.52.6-.84-1.11-1.33-1.83-2.07-.91-.93-.06-2.48.87-3.39s2-2.12,1.54-3.32-1.94-1.35-2.41-2.4.56-2.51.45-3.8c-.15-1.73-2.18-2.51-3.86-2.92a2.71,2.71,0,0,0-.57-4.25c-.61-.3-1.4-.4-1.74-1-.52-.88.35-2.18-.32-2.94s-1.73-.31-2.34-.9c-1-.94.62-2.6.19-3.89-.57-1.7-4.16-1.59-3.73-3.33"/><path class="cls-7" d="M302.72,50c-.62,1.55,1.26,2.28,2.39,2.65.71.23,1.4.5,1.17,1.37-.17.64-.55,1.19-.25,1.86.42,1,1.74,1.11,2.65,1.29a2.89,2.89,0,0,1,1.34.42c.59.49.29,1.23.09,1.84-.4,1.18-.68,2.4.73,3,.76.33,1.58.17,2.25.72a2.86,2.86,0,0,1,.77,2.58c-.05,2,1.08,2.43,2.58,3.33a4.76,4.76,0,0,1,2,3.85c.38,3.71-1.6,7.78,1,11,.47.59,1.89.18,2.36-.14a6.11,6.11,0,0,0,2.7-3.88,6,6,0,0,0-1.17-4.56,3.09,3.09,0,0,1-.5-1.09,1.55,1.55,0,0,1,0-.74q-.33,0,.12-.12c.5-.43,1.29-.57,1.46-1.33.35-1.54-2.3-1.6-2.3-3.06,0-1,.93-1.71,1.51-2.33a4.51,4.51,0,0,0,1.4-2.46c.18-1.91-1.87-2-2.53-3.34-.45-.91.26-2,.4-2.88a2.84,2.84,0,0,0-.33-2c-.84-1.38-2.61-1.9-4.08-2.28l.29,1.08a3.26,3.26,0,0,0-.13-5,13,13,0,0,0-1.42-.66c-.7-.39-.62-.85-.56-1.57.09-1.06,0-1.89-1.12-2.32-.42-.16-1-.1-1.41-.34s-.32-.83-.18-1.33c.26-.94.69-1.9.15-2.83a4,4,0,0,0-1.9-1.38c-.55-.25-1.76-.54-1.63-1.35.19-1.17-2.88-.65-3,.39-.28,1.76,1.79,2.07,2.94,2.76,2,1.2-.65,3.24.62,4.76a2.14,2.14,0,0,0,1,.62c.38.11,1.12.07,1.39.38.6.71-.29,2.08.31,2.94s2,.79,2.58,1.69a2.26,2.26,0,0,1-.07,2.7c-.45.45-.36.91.29,1.08,1.28.32,3.16.91,3.27,2.49s-1.22,2.84-.19,4.26,3.13,1.62,1.81,3.61c-.85,1.27-2.36,2.11-2.46,3.8-.08,1.38,1.14,1.9,2.11,2.59.39.28.3,0,.08.22s-.7.39-.95.68a2.19,2.19,0,0,0-.57,1.71c.12,1.52,1.54,2.55,1.75,4.1a4.33,4.33,0,0,1-1.59,4l2.36-.15c-2.22-2.76-.66-6.62-.74-9.8a7,7,0,0,0-1.19-4.07,4.91,4.91,0,0,0-1.53-1.3c-.74-.42-1.7-.68-1.92-1.63-.17-.78.12-1.61-.06-2.41a3.3,3.3,0,0,0-1.22-1.79,4.75,4.75,0,0,0-1.88-.72c-.94-.23-1.1-.53-.82-1.44.33-1.09.89-2.27-.11-3.2-.8-.74-2-.75-3-1-1.72-.44.08-1.9-.6-3.07a2.82,2.82,0,0,0-1.68-1.13c-.7-.24-2.2-.53-1.79-1.56s-2.64-.62-3,.38Z"/><path class="cls-14" d="M215.4,111.45l1,6.22c.42,4.77,3.52,14.45,4.72,17.19,1.68,3.83,26.24,9.33,31.56,7.37s10.31-15.39,12.14-18.39l9.82,2.21c.2,4.31,1.15,18,2.73,20.12s13,3.69,14.3,3.87c1.08.14,2.57.33,4.21.47,4.35.42,9.68.59,11.53-.7,2.77-1.91,6.82-10.3,10.43-18.27l.58-1.25a5.63,5.63,0,0,0,.28-.6h0l.65-1.43c-13.18-9.08-32.09-11.13-44.8-4.86l.07.17-9.58-2.21c-9.75-9-28-16-42.34-13.14h0l-39.46,4.12-.72,3.62ZM278.8,145c-1-1.3-1.94-10.95-2.43-18.42,11-5.26,28.05-3.38,39.95,4l0,.18c-1.93,4.28-7.08,15.65-9.8,17.53-3.21,2.21-25.91-1.21-27.69-3.27Zm-54.54-10.65c-3.1-6-5-15-5.87-22.56,12.89-3.33,34.43,3.45,44,12-2.66,5.52-6.47,15.31-10.29,16.7-5.48,2-26.78-3.71-27.83-6.14Z"/><path class="cls-6" d="M164,206.72S176.53,249,224.37,252.1c38.69,2.5,23.43-23.62,23.43-23.62Z"/><path class="cls-15" d="M173.36,154.85s5.14-.12,6.8-2.89a6.9,6.9,0,0,1-6.55,6.07Z"/><path class="cls-16" d="M260.17,173.07c-9.21-1.64-24-5.41-24-5.41S233.7,191,255.08,194.78s25.39-19.32,25.39-19.32S269.39,174.71,260.17,173.07Z"/><path class="cls-7" d="M260.26,173.09c-4.38-.78-21.91-4.69-21.91-4.69s2.12,15,18,17.79c17.19,3.05,22.4-9.83,22.4-9.83Z"/><path class="cls-17" d="M260.33,173.81c-4.38-.78-17.58-3.92-17.58-3.92s3.91,5.84,17.06,8.18S278,176.3,278,176.3Z"/><path class="cls-16" d="M280.47,175.46c-.44-.2,2.13-.23,0-.81-3.57-1-5.67-2.36-8.26-3-4.42-1.16-7.6.18-9.55-.17s-4.47-2.69-9-3.13c-2.66-.26-9.35-.42-13-.74-2.21-.19-4.61-1.52-5.09-1.49-.68,0-.3,5.22,24.22,9.57S281.09,175.74,280.47,175.46Z"/><path class="cls-7" d="M260.23,164.77l-1.59,4a1.54,1.54,0,0,1-1.51,1c-4.53-.24-21.75-1.2-25.74-2-.1,0,0,1.73-.06,1.69l-.92-.24c-1.44-.59.62-5.39,2.14-5.67a84.68,84.68,0,0,1,11.24-1.37c3.13-.12,11.72-.18,15.33.57A1.54,1.54,0,0,1,260.23,164.77Z"/><path class="cls-7" d="M265.35,166.23l-.61,3.86a1.51,1.51,0,0,0,1,1.45c4,1.44,17,6.15,20.75,6.84a1.14,1.14,0,0,0,.26,0l1.23,0c1.44,0,1.26-3.27,0-4.08a67,67,0,0,0-8.21-5c-2.66-1.26-9.41-4-12.76-4.64A1.46,1.46,0,0,0,265.35,166.23Z"/><path class="cls-2" d="M137.84,209.93s-85.74,16-96.35,65.5c-3.22,15-6.31,123-.12,215.67.94,14,.24,26.32,27.14,44.47,15,10.15,76.59,24.78,110.71,27.58Z"/><path class="cls-5" d="M107.65,253.3c-.27-.07.23.08.51.18a18.29,18.29,0,0,1,1.88.8,28.13,28.13,0,0,1,6,3.88c6.45,5.4,10.32,13.12,12.11,21.24,1.62,7.39,1.42,15,1.38,22.5q-.08,10.78-.3,21.55-.53,27.39-1.35,54.77-.73,25.74-1.58,51.48-.28,8.81-.58,17.62c-.1,2.83-.32,5.69-.29,8.52,0,.12,0,.25,0,.38a.41.41,0,0,0,.27.47l15.56,5.55,37.2,13.26,45,16,39,13.92L275.26,510l4,1.44a7.61,7.61,0,0,0,2.11.75,1.25,1.25,0,0,1,.25.09l-.18-.67A55.67,55.67,0,0,0,275,522a115.39,115.39,0,0,0-10.43,30.61,149.84,149.84,0,0,0-2.71,26.47l2.25-.92-13.93-2.5-33.48-6-40.5-7.25-35-6.28c-5.67-1-11.35-2.29-17.06-3.05l-.25,0a2.41,2.41,0,0,0-2,.53c-.38.39-.38.83.25.94L136.07,557l33.48,6,40.5,7.25,35,6.27c5.66,1,11.35,2.32,17.06,3.06l.25,0c.51.09,2.24-.14,2.26-.92.38-21.86,4.84-45.29,17.1-63.82a34.75,34.75,0,0,1,2.32-3.2.42.42,0,0,0-.18-.68l-15.56-5.54-37.2-13.27-45-16-39-13.91-12.79-4.56-4-1.44a7.58,7.58,0,0,0-2.1-.76.62.62,0,0,1-.26-.09l.28.48q.38-11,.73-22,.84-25.25,1.57-50.49.81-27.88,1.42-55.78.24-11.39.36-22.78c.06-6.49.33-13.11-.31-19.58-1.32-13.37-8.13-28.41-21.75-33.16-.28-.1-.57-.19-.86-.27-.85-.23-3.27,1-1.72,1.47Z"/><path class="cls-5" d="M127.42,455.48a67.36,67.36,0,0,0-10.25,1.94c-6.28,1.64-12.63,4.05-17.78,8.09a20.25,20.25,0,0,0-6.54,8.5c-.18.46,2.48.21,2.76-.5C99.7,462.83,113,458.76,123.22,457l1.31-.21.57-.08.23,0,.87-.11c.49,0,1.59-.19,1.88-.66s-.25-.48-.66-.44Z"/><path class="cls-18" d="M436.88,333c-4.61.91-18.93,11.28-20.18,12.49-20.95,20.16-19.24,24-21.53,39.47-6.84,46.45.49,91.29-6,116.92-.35,1.37-6.17,19.72-9.25,38.09-.33,2-2.34,35-3.16,60.93,21.14-3.71,37.76-8,56.64-17.41,10.5-51,14.91-155.72,29.75-185.09C463.16,398.43,447.19,331,436.88,333Z"/><path class="cls-18" d="M595.24,371l-125-14c-1.93-.37-16.82-15.12-21.41-19.37-.54-.51,7.86-10.61,8-11.18-1.51,2.16-10.74,10-11.76,12.28-6.39,14.17-8.91,24.08-14.24,38.7C425.08,393.26,419.18,410,417.7,427c-.85,9.29-15.17,26.58,3.52,46.64,0,0-7.67,91.15-14.5,120C504.57,562.69,585.69,479,595.24,371Z"/><path class="cls-19" d="M472.18,257.93s-3.83,40-4,44.46l.07,9.43-23.19,25.81c12.66,3.07,53.83,22.93,76,12.81l11.18-41.65s-3.39-5.74-4.4-9.41c-5.74-20.86,4.78-51.3,4.78-51.3"/><path class="cls-20" d="M517.32,278.5s-12.9,21.22-36.6,26.79c0,0-11.09,2.2-12.53,1.33l.14-6.68Z"/><path class="cls-21" d="M432.52,257.12c8.28-6.12,9.71-16.9,8.52-26.46-1.14-9.16,5.56-23.34-5.69-22.7-.21,0,3.91-7.92.61-7.18,1.94-5.11-5.48-4.5-6.62-10.19-.23-1.15-2-11.28,5.23-12.09,25.61-37,60.89-29.82,80.64-27.47,38.76,4.61,59.21,14.38,50.82,75.75C560.39,268,520.39,272,481.36,271.41c-16.67-.25-36.46.69-49.18-14.06Z"/><path class="cls-21" d="M512,124.58c-9.35,4.61-13.61,13.28-14,23.38,2,1.73,6.24,3.63,8.25,5.35.36-.67.74-1.32,1.13-2,2.19,1.87,7.92,3.55,10.14,5.38.61-.37,2.51-1.22,4.77-2.17.69.56,1.36,1.13,2,1.7a11.65,11.65,0,0,0-4,1.79c2.52,2.12,9,3.28,11.37,5.51,5.25,4.85,11.13,11.37,16.57,16a32,32,0,0,1,4.17,3.43l-3.82,3.44,5.59,4.47c-.61,1.47-1,2.31-1,2.31l4.58,3.75s2.91-2.74,7-6.88c15.71,5.91,22.14-7,20.78-12.94a12.44,12.44,0,0,0-3.3-6c6-7.3,10.58-14.12,9.62-17.28-1.94-6.34-12.26-20.55-17.27-27.21a49.65,49.65,0,0,0-3.26-6.13l-.06-.13h0a24.14,24.14,0,0,0-4.51-5.43c-4.28-3.64-13-2.15-20.13,0-7.62-6.62-12.84-8.54-17.33-9-6.3-.6-16.61,7.62-17.7,9.81C511.19,116.87,511.54,120.82,512,124.58Zm60,58.21c2.61-2.76,5.32-5.71,7.88-8.66a14.2,14.2,0,0,1-.73,4.87C578.15,182,574.94,182.74,572,182.79Zm-43.56-69.35a51,51,0,0,1,4.6,6.37,112.22,112.22,0,0,0-11.75,1.88l-.74.13c-1.11-1.9-2.43-4.48-2.51-6.19C517.88,112.64,525.27,111.06,528.43,113.44Z"/><path class="cls-19" d="M455.08,176a3,3,0,0,1-.3.43,2.9,2.9,0,0,0,.29-.19Zm-11.61,2.48v.2c.19-.14.38-.29.54-.43C444,178,443.47,178.43,443.47,178.43Zm83.17,91.93,1.5-4c2.33,7.6,12.69,2.89,13.73-7.35,7.69-8.94,9.11-22.5,5.17-28l-.47-.8c-2.86-2.46-8.1-3.75-10.52.08-.82,1.68-2,3.56-2.86,5.24-.82,1.92-2,5.79-3.38,7.46,0,0,6-18.28,6.28-22.86s.35-15.91-7.71-22.55c0,0-9.57-9.8-13.18-14.68l-1.31-.5c-.78,0-1.31.22-2.1.21,0-.24.27-.48.28-1a8.51,8.51,0,0,1-3.43.18c.27-.23.8-.47.8-.71a13.28,13.28,0,0,1-3.15-.05c.26-.23.8-.71.8-.95-1.32.46-2.1,0-3.16-.05a1.81,1.81,0,0,0,.55-.95,7.22,7.22,0,0,1-3.16.19c.26-.24.53-.72.8-.95-1.32.46-2.1,0-3.15-.05-.27,0,.53-.48.53-.72a9.35,9.35,0,0,1-2.63.2c0-.24.53-.47.54-.71-1.59.46-2.37,0-3.42-.05l.8-1a3.75,3.75,0,0,1-3.16.44c.26-.24.8-.72.8-1a5.18,5.18,0,0,1-4.21.42c.26,0,.8-.71.8-.95-1.33.94-2.38.69-3.69.67.26-.24.54-.72,1.07-1.2a5.36,5.36,0,0,1-5,.65c.27,0,.54-.71.54-.95-1.06.95.93-.23-.38-.49,0,0-3,.92-3,.67-1.06.71,2.84-4.05,1.52-4.07.27-.48-7.55.34-7-.14-1.32,1-1.05.45-2.62.19,0,0-5.51,2.81-5.25,2.57-1.33,1.18-1.91.16-3.48-.1.27-.24.93,1,1.2.78-1.07,1-.7-.25-2-.27,0-.24-4.28-1.63-4.28-1.87-1.32.7-.89.81-2.47.79,0-.24-1,2.64-.76,2.41-1.07,1-1,.15-2.32-.11l-1.32.88c-1.33,1.19.48.69-1.09.42,0-.17,5.92.85,6.17.53a9.82,9.82,0,0,1-3.41,1.45c0-.25.27-.72.28-1a5.31,5.31,0,0,1-4.23,1.39c.26,0,.53-.48.53-.72-1.33,1.19-2.92,1.89-4.49,1.14v0a8.12,8.12,0,0,1-3.7,1.67,1,1,0,0,1,.54-1l-1.05,0c-1.35,1.91,4.73.92,4.16,3.32,0,0-4.42,7-8.92,21.26-3.7,11.67-2.37,30.19-2.17,34.06.18,3.34-2,9.8-2.43,13.27-2.5,18.82,10.22,38.36,24.72,49.07,5.78,4.27,11.72,4.24,17.52,3.54,11.86-1.41,28.87-9.78,39.44-20.11"/><path class="cls-9" d="M456,260a6.79,6.79,0,0,0,6.05-.21c.39-.22,1.65,0,1.11.34a9.58,9.58,0,0,1-8.23.16c-.22-.11-.18-.27.1-.35a1.51,1.51,0,0,1,1,.06"/><path class="cls-9" d="M463.87,259.72a11,11,0,0,1,3.74-.81,1,1,0,0,1,.57.19c.1.1.12.23,0,.3a4.23,4.23,0,0,1-2.06.4.81.81,0,0,1-.62-.25c-.11-.17.1-.28.27-.27a3.22,3.22,0,0,0,1.66-.33l.55.49a9.54,9.54,0,0,0-3.35.73.83.83,0,0,1-.67-.09c-.14-.09-.28-.27-.07-.36"/><path class="cls-9" d="M469,260a5.25,5.25,0,0,0,4-1.66c1.16-1.62.18-4.42-1.67-5.52-.21-.12-.09-.27.11-.31a1.27,1.27,0,0,1,.8.18,5.29,5.29,0,0,1,2.35,4.84c-.27,1.44-1.73,2.42-3.54,2.79a8.45,8.45,0,0,1-1.67.18c-.23,0-.64-.08-.75-.25s.1-.25.32-.25"/><path class="cls-9" d="M453.21,259.24A.19.19,0,0,0,453,259a1.8,1.8,0,0,1-1.16-.4l-.41.46a5.43,5.43,0,0,1,2.34.87.43.43,0,0,0,.48-.06c.1-.07.21-.25.07-.35"/><path class="cls-9" d="M454.35,259.48a6,6,0,0,0-2.62-1,.52.52,0,0,0-.41.17.19.19,0,0,0,0,.29"/><path class="cls-9" d="M450.08,259.36a3.12,3.12,0,0,1-2.57-1.83,4.19,4.19,0,0,1,1.29-4.64.17.17,0,0,0-.07-.31.6.6,0,0,0-.52.15,4.65,4.65,0,0,0-1.69,3.92,3.37,3.37,0,0,0,2.18,2.94,4.13,4.13,0,0,0,1.08.25c.15,0,.42,0,.5-.22s-.06-.26-.2-.26"/><path class="cls-8" d="M533.43,248A46.7,46.7,0,0,1,540,237.45a14.31,14.31,0,0,1,2.24-2.09,5.79,5.79,0,0,1,.79-.49l.32-.16a1.54,1.54,0,0,1,.22-.09l.25-.08c.1,0,.17-.07.07,0a.38.38,0,0,1,.15,0l-.37-.14a7,7,0,0,1,1.1,2.46,14.14,14.14,0,0,1-.22,7.33c-.12.43.8.33.9-.06a13.64,13.64,0,0,0-.19-8.68c-.22-.54-.54-1.63-1.26-1.57a4.42,4.42,0,0,0-2,.82,15.53,15.53,0,0,0-3.55,3.41,52.24,52.24,0,0,0-5.92,9.77c-.22.46.68.48.86.11Z"/><path class="cls-22" d="M431.62,215.45c6.1-2.31,10.1-2.57,20.79-1.73l0,.24c.23,1.37.1.61.33,2,.16,1.05.33,2.1.5,3.14-3.5-.32-6.06-.88-8.29-.9-4.22,0-9.09-.56-13.21.59C431.75,217.66,431.7,216.55,431.62,215.45Z"/><path class="cls-22" d="M476,214.92c0,1.39,0,.62,0,2l0,3.18c3.4-.91,5.83-1.9,8-2.29,4.35-.78,9.31-2.23,13.72-1.58,2.11.32,5.14.83,6.66,2.71.41.51,1.18,2.33,2,2,.34-.16-.23-1.86-.29-2-1.16-3.44-4.14-4.86-7.78-5.66-7.42-1.64-11.15-1.37-22.4,1.48"/><path class="cls-8" d="M532.71,248.2c.86,0,2.16.11,2.36,1.17a4.73,4.73,0,0,1-.64,2.47c-.66,1.57-1.85,3.8-.53,5.36,1.44,1.72,3.84-.67,4.68-1.85a10.69,10.69,0,0,0,2-6.58c-.11-2.31-.54-5.63-2.92-6.72-.24-.11-1,.26-.84.31,2.07.95,2.6,3.65,2.8,5.69a10.72,10.72,0,0,1-1,5.89,7.73,7.73,0,0,1-2.48,3.19c-.86.56-1.52-.15-1.79-1-.56-1.72.69-3.62,1.28-5.18a2.74,2.74,0,0,0,.2-2.23c-.47-.82-1.71-.87-2.53-.89-.19,0-1,.36-.57.37Z"/><path class="cls-22" d="M440.27,228.09a3.47,3.47,0,0,0-4,.69,3.87,3.87,0,0,0-1.1,1.76,4.2,4.2,0,0,0,.83,3.61,3.27,3.27,0,0,0,3.91.81,4.14,4.14,0,0,0,1.91-4.67,3.67,3.67,0,0,0-1.57-2.2"/><path class="cls-22" d="M453.28,233.24s-6.89-5.93-10.44-6.37a11.36,11.36,0,0,0-10.82,4.8s5.86-4.23,9.5-3.66C445,228.56,453.28,233.24,453.28,233.24Z"/><path class="cls-22" d="M484.18,228.58a3.94,3.94,0,0,1,4.25.83,3.87,3.87,0,0,1,1.13,1.81,4,4,0,0,1-1,3.57,3.67,3.67,0,0,1-4.21.67,4.05,4.05,0,0,1-1.92-4.73,3.59,3.59,0,0,1,1.74-2.15"/><path class="cls-22" d="M474.79,233.7s8.06-5.65,12.14-6c7.35-.6,14.11,3.66,16.18,6.42,0,0-10.51-5.66-14.69-5.23C484.42,229.32,474.79,233.7,474.79,233.7Z"/><path class="cls-23" d="M442.82,181.46c-1.12,6.62-10.05.88-5.09-.68-.56-3.22,4-4.47,3.93-7.75.19.29.31.52.31.52s.18-3.93,1.51-4.86,7.29-3.83,7.29-3.83l1.77,1.38c-.05-.1-.66-1.4.27-2.17s11-5.85,17.42-5.36c.21,0,.42,0,.63.07l2.63,1.42.1.05-.1-.06c-.47-.28-1.47-1-.94-1.54a2.37,2.37,0,0,1,1.19-.51,23,23,0,0,1,3.88-.32v0h.87v0a24.32,24.32,0,0,1,3.87.44,2.37,2.37,0,0,1,1.18.55c.5.57-.52,1.24-1,1.51l-.1,0,.09,0,2.68-1.34a4.46,4.46,0,0,1,.63-.05c6.4-.3,16.33,5.08,17.25,5.89s.25,2.07.2,2.17l1.82-1.33s7.62,3.11,8.92,4.08A6.72,6.72,0,0,1,515.9,173s2.33.89,3.17.63,5.16,2.07,6.92,4.68c1.12,1.67.68,3.22,1.23,4.69h0c.31.82.49,1.37.49,1.37l4.48,1.57c3.58,1.78,2.56,9.2,2.56,9.2,7,8.81,7.2,16.23,3.9,24.17-1.27,3.06,7.46,6.29,1.83,6.09S529.81,243,529.81,243s-4.74-7-4.92-10.27,1.54-12.81,1.54-12.81l-2.75-.43s-1.66-.7-3.62-4.4,1.83-10.16,1.83-10.16L523,201l-5.37.29c-5.17-1-5.38-6.59-5.38-6.59l1-9.33-3.16,3.09a3.81,3.81,0,0,1-3,1.3c-8-.73-8.9-5.75-8.9-5.75l-1-4.72-2.06,1.32c-2.18,1.74-8.81,4.36-12.15,2.87-.87-.39-4.54-3.31-5.13-3.72-2.14-1.6-2.4-4.6-2.43-5.71.32-.3.63-.68.93-1,1.16-1.23,1.71-.7.54.54-2,2.12-5.4,5.09-8.36,5.18s-9-1.2-9.71-2.53c-.5-.89.41-1-.63-1a3.43,3.43,0,0,0-2.3,1.32c-1.39,1.55-2.34,3.83-4.27,4.78-2.8,1.38-4.46-.18-7.25-.82A1.32,1.32,0,0,0,442.82,181.46Z"/><path class="cls-24" d="M436.24,176.19s-1.83-6.08,1.72-9.5,17.17-17.18,40.26-16.86Z"/><path class="cls-25" d="M562.71,192.26s17.63,10.41,25.51-3.8-12.41-19.58-12.41-19.58"/><path class="cls-25" d="M551.45,113.74s-8.71-14.74-20.81-12.4-4.72,22.26-4.72,22.26"/><path class="cls-18" d="M543.76,312.39,532,306.81s-15,36-50.44,34c-26.26-1.46-13.93-28.36-13.93-28.36l-40.31,25.21,42.3,48.52,64.73-20.8Z"/><path d="M456.23,425.94a109.31,109.31,0,0,1-17.17,3.57,109.12,109.12,0,0,1-17.37,2.18,106.75,106.75,0,0,1,17.14-3.58A108.33,108.33,0,0,1,456.23,425.94Z"/><path d="M453.4,418.21c0,.39-7.61,1-16.91,2.41s-16.8,2.92-16.9,2.53a68.38,68.38,0,0,1,16.68-4A66.91,66.91,0,0,1,453.4,418.21Z"/><path d="M511.14,499.11l.17.05,0-.43Z"/><path d="M429.73,455.53a.7.7,0,0,1-.19.06v-.49Z"/><path d="M395.61,375.89a.51.51,0,0,1-.16.09l-.12-.45Z"/><path class="cls-26" d="M506.08,476.92a77.87,77.87,0,0,0-8.6-31.1"/><path class="cls-18" d="M539.64,311.22s44.21,17,61.51,38.92c21.25,26.91-10.32,85.26-10.32,85.26s-48.08-7.39-69.37-21.27Z"/><path class="cls-27" d="M412.53,396.56a217.21,217.21,0,0,0-5,26.65c-.64,4.65-1.19,9.33-1.41,14a34,34,0,0,0,1.12,11.23,76.64,76.64,0,0,0,5.51,13.13q1.29,2.51,2.68,5a26.08,26.08,0,0,0,1.62,2.75c.41.53-.15-.07,0-.17a5.7,5.7,0,0,0-.13,1.4l-.5,5L416,479.8q-1.27,13-2.67,26c-1.68,15.72-3.46,31.43-5.49,47.11-.94,7.3-1.94,14.6-3.09,21.87-.82,5.22-1.66,10.47-2.93,15.6-.2.77-.45,1.71-.63,2.28-.47,1.54,2.31,1.51,2.68.32a104.11,104.11,0,0,0,2.91-13.53c1.17-6.84,2.15-13.71,3.08-20.58,2.14-15.88,4-31.81,5.7-47.74q1.67-15.19,3.17-30.42l1-10.37a3.75,3.75,0,0,0-.05-2.05c-.36-.78-.91-1.51-1.34-2.26a111.46,111.46,0,0,1-5.66-11c-1.77-4.05-3.5-8.43-3.79-12.88a70.69,70.69,0,0,1,.54-11.81,254.43,254.43,0,0,1,4.67-28.78q.56-2.58,1.23-5.13c.35-1.34-2.51-1-2.83.21Z"/><path class="cls-18" d="M391.77,402.16s52.05,89.52,100.33,117.52c15.12,8.77,24.86,7.41,40.5-2.55,32.91-20.95,63.6-94.29,63.6-94.29l-55-31.88L506,457.69l-35.83-94.95"/><path class="cls-27" d="M510,450.46a23.52,23.52,0,0,1,3.36,5.94,29.79,29.79,0,0,1,2,15.7c-.16,1.12,2.66.64,2.8-.34a30.7,30.7,0,0,0-2-16.11,25,25,0,0,0-3.56-6.3c-.63-.77-3.31.23-2.59,1.11Z"/><path class="cls-27" d="M418.68,376.11l9.33,7.64L450.33,402l27,22.08,23.41,19.15c3.77,3.09,7.47,6.31,11.34,9.27l.16.14a1.91,1.91,0,0,0,2.6-.49l7-14.44,13.8-28.4,9.72-20c.18-.38.37-.76.54-1.14,0,0,.13-.35,0-.12l.1-.26.53-1.34c1.55-3.79,3.28-7.51,5.17-11.13a85,85,0,0,1,9.31-14.6c3.16-3.87,7.13-8,12.07-9.48a12.21,12.21,0,0,1,3.18-.51c1.48-.06,2.24-1.85.32-1.78-5.33.19-10.06,3.21-13.83,6.77a63.81,63.81,0,0,0-10.65,14,124.37,124.37,0,0,0-6.92,13.56c-.58,1.32-1.13,2.64-1.66,4l-.39,1c-.12.28.14-.33,0,0-2.69,5.57-5.41,11.12-8.11,16.68l-14.07,29-5.74,11.81c-1,2-2.13,4-2.93,6,0,.09-.09.18-.13.28l2.61-.49-9.34-7.64-22.32-18.26-27-22.08-23.41-19.15c-3.77-3.09-7.47-6.31-11.33-9.28l-.17-.13a1.77,1.77,0,0,0-1.87-.11c-.32.14-1.24.83-.7,1.27Z"/><path class="cls-27" d="M520.93,523.13A24.69,24.69,0,0,1,506,524.81a36.27,36.27,0,0,1-10.35-4.36,132.82,132.82,0,0,1-17.41-12c-12.49-10.16-23.57-22-33.93-34.33-10.12-12-19.56-24.61-28.54-37.5q-9.57-13.72-18.4-27.94c-1.29-2.08-2.57-4.17-3.82-6.27-.06-.11-.2-.48-.31-.53s0-.08-.06-.1c.14.08-.28.58.15,0,1.56-2.16,2.93-4.49,4.39-6.72l1.18-1.8c.67-1-2.12-.73-2.59,0l-5.82,8.91a.45.45,0,0,0-.11.38c2.37,4,4.86,8,7.37,12q9.31,14.7,19.42,28.88c8.68,12.16,17.79,24,27.55,35.34s20.25,22.27,32,31.64a135.53,135.53,0,0,0,16.15,11c6.79,4,14,6.42,22,5a35.33,35.33,0,0,0,7.19-2.19c.4-.17,1.09-.55.77-1.06s-1.49-.13-1.84,0Z"/><path class="cls-19" d="M395.36,397.71l-12.79-10.5s-12.4.54-21-3.71a75.14,75.14,0,0,1-16.65-12.3l-19.7-9.32s-10.72.83-11.22-2.5,3.42-4.69,7.23-6,59.82-1,59.82-1a100.85,100.85,0,0,0-13-11.52c-7.19-5.27-7-12.68-2.34-14.05,2.1-.61,9.91,6.26,15.31,12,3.55,3.75,14.25,4.87,20.76,11.2s7.33,18.67,7.33,18.67c2.25,2.83,8.52,9.58,8.52,9.58"/><path class="cls-28" d="M462.53,270c7.73,0,20.24-1,20.24-1s-2.61,19.6-20.51,19.6-20-19.6-20-19.6S454.81,270,462.53,270Z"/><path class="cls-29" d="M462.46,270c3.67,0,18.47-.66,18.47-.66s-4.93,12.26-18.21,12.26a19.43,19.43,0,0,1-18.59-12.14Z"/><path class="cls-17" d="M462.3,270.62c3.67,0,14.84-.66,14.84-.66s-4,4.26-15,4.26-14.51-4.13-14.51-4.13Z"/><path class="cls-28" d="M441.49,267.88c.39-.1,2.53.65,4.35.48,3-.27,4.94-1.12,7.14-1.3,3.76-.31,6.15,1.26,7.78,1.26s4-1.57,7.78-1.26c2.2.18,7.65,1,10.69,1.3,1.82.17,4-.58,4.35-.48.54.14-.51,4.36-21.05,4.36S441,268,441.49,267.88Z"/><path class="cls-5" d="M379.4,417.25c-2.84,1.24-4.83,3.84-6.86,6.07a91.32,91.32,0,0,0-6.61,7.95c-3.77,5.24-6.69,11.24-7.07,17.78-.08,1.43,2.76,1,2.83-.22.36-6.15,3-11.82,6.58-16.76a84.24,84.24,0,0,1,5.83-7.1c1.89-2.11,3.86-4.94,6.53-6.1.52-.23,1.05-.86.66-1.42s-1.36-.43-1.89-.2Z"/><path class="cls-6" d="M263.26,556l23.36,2.33s18.46,12.63,31.21,18.54a121.6,121.6,0,0,0,29.84,8.21L376.38,599s8.16,12.27,12.8,10.15,3-7.46,1.39-12.65-50.19-65.61-50.19-65.61c8.74,1,14.2,0,22.58,2.29,12.83,3.58,22.43.45,22.89-6.11.32-4.61-14.89-8.64-27-8.85-7.87-.14-19.69-9.72-33.28-11.72s-29.86,7-29.86,7c-5.51-.19-19.43-1.57-19.43-1.57C275.5,512.62,263.26,556,263.26,556Z"/></g></svg>