<svg xmlns="http://www.w3.org/2000/svg" viewBox="0 0 1303.15 1057.31"><defs><style>.cls-1{fill:#f2ebd1;}.cls-2{fill:#a66f54;}.cls-3{fill:#4f2e25;}.cls-4{fill:#bb997a;}.cls-5{fill:#639fb0;}.cls-6{fill:#a38166;}.cls-7{fill:#59341c;}.cls-8{fill:#231f20;}.cls-9{fill:#eb9944;}.cls-10{fill:#010101;}.cls-11{fill:#1c3b53;}.cls-12{fill:#87654d;}.cls-13{fill:#513835;}.cls-14{fill:#4163ae;}.cls-15,.cls-32,.cls-35,.cls-36{fill:#151210;}.cls-16{fill:#161312;}.cls-17{fill:#171514;}.cls-18{fill:#181615;}.cls-19{fill:#714534;}.cls-20{fill:#191716;}.cls-21{fill:#040404;}.cls-22{fill:#745245;}.cls-23{fill:#653c29;}.cls-24{fill:#090706;}.cls-25{fill:#f1eef7;}.cls-26{fill:#374f51;}.cls-27{fill:#0f1f28;}.cls-28{fill:#c95744;}.cls-29{fill:#4d2f15;}.cls-30{fill:#1b120c;}.cls-31{fill:#193044;}.cls-32,.cls-35,.cls-36,.cls-37{stroke:#161311;stroke-miterlimit:10;}.cls-32{stroke-width:0.44px;}.cls-33{fill:#13110f;}.cls-34{fill:#ce8d2a;}.cls-35{stroke-width:0.43px;}.cls-36{stroke-width:0.46px;}.cls-37{fill:none;stroke-width:1.06px;}.cls-38{fill:#31160e;}.cls-39{fill:#5a2010;}.cls-40{fill:#653c2a;}</style></defs><g id="Layer_11" data-name="Layer 11"><polyline class="cls-1" points="-27.87 1079.77 -27.87 -13.02 1319.01 -13.02 1319.01 1079.77"/><path class="cls-2" d="M667,407.76a13.09,13.09,0,0,1-3.54-8.34,12.83,12.83,0,0,1,3-7.94l8.2-4.27s8.63-10.36,12.52-12.83,21.47-7.76,22.36-7.72,17.53-15.81,21.22-13.57,5.26,6.14,2,11-16.33,11.73-14.63,14.45a19.14,19.14,0,0,0,5.38,5s3.58-5.6,7.69-6.19,6.58,4.21,6.58,4.21l-1,2.65,4.52-1.65s8.45-10.73,13.64-8.52a22.78,22.78,0,0,1,8-4.81,4.86,4.86,0,0,1,5.94,3.48,4.67,4.67,0,0,1,.16,1.4l-20.7,23.68-37.49,17.8s-14-.33-17.67-.17c-1.14,0-5.73,2.63-11.56,6.14a63.88,63.88,0,0,1-7.14-5.1,41.06,41.06,0,0,1-7.14-7.52A1.35,1.35,0,0,0,667,407.76Z"/><path class="cls-3" d="M710.86,371.89c-1.84-1.31-3.44-2.21-3.33-2.59s2.13,0,4.15,1.4,3,3.23,2.72,3.45S712.69,373.2,710.86,371.89Z"/><path class="cls-3" d="M749.25,391.32c2.3-3.34,5.44-8.07,9-13.57l.34-.5-.4-.44a30.75,30.75,0,0,0-2.5-2.73,5.49,5.49,0,0,0-4-1.13,10,10,0,0,0-5.7,3,30.24,30.24,0,0,0-3.79,4.36c-2,3-3.65,5.81-5,8.17-2.69,4.77-4.17,7.78-4,7.87a56.09,56.09,0,0,0,4.95-7.27c1.44-2.23,3.17-5,5.23-7.91a29.88,29.88,0,0,1,3.65-4.05,8.69,8.69,0,0,1,4.78-2.55,3.85,3.85,0,0,1,2.89.78c.71.6,1.54,1.7,2.28,2.49l-.07-.93c-3.49,5.53-6.46,10.37-8.53,13.86a30.62,30.62,0,0,0-3.06,5.73A31,31,0,0,0,749.25,391.32Z"/><path class="cls-3" d="M705.39,402.81a49.51,49.51,0,0,1,10.85-6.39l.13-.07.06-.14a29.45,29.45,0,0,0,2.88-4.14c.89-1.59,1.6-3.1,2.58-4.68a49.32,49.32,0,0,1,3.16-4.6,12.22,12.22,0,0,1,4.14-3.72,5.11,5.11,0,0,1,4.51-.15,8.51,8.51,0,0,1,3.45,3l0-.79c-4,7.35-7.49,13.75-9.88,18.33a14.31,14.31,0,0,1-3.46,4.8,10.68,10.68,0,0,0-1.55,1.53c0,.16.72-.17,1.86-1a13.49,13.49,0,0,0,4-4.69c2.64-4.45,6.27-10.76,10.41-18.1l.17-.42-.24-.37a9.69,9.69,0,0,0-4.12-3.67,6.71,6.71,0,0,0-5.88.17c-7.59,4.86-9.11,13.17-13.08,17.71l.26-.18a44,44,0,0,0-10.85,7.08,18.55,18.55,0,0,0-2.37,2.64,10.25,10.25,0,0,0-.61,1.13C701.9,406.18,702.88,404.69,705.39,402.81Z"/><path class="cls-3" d="M674.65,387.21s.12,7.41,8.41,13.17C683.06,400.38,670.86,396.29,674.65,387.21Z"/><rect class="cls-4" x="-47.08" y="975.29" width="1366.08" height="104.48"/><path class="cls-2" d="M338.25,187.92s8.86,24.89-5.05,51.68c-1.34,2.57-15.5,8.1-15.5,8.1l22.43,7.88c15.38,3.92,50,4.73,65.06.45l12.69-6.72s-15.69-3.83-16.36-7.18,2.78-28.38,2.78-28.38"/><path class="cls-2" d="M405.18,245.08l-74-1.87-11,23.51s19.46,17.47,21.49,18.33,49.09,11.72,49.09,11.72,53.46-16.71,52.74-16.59S405.18,245.08,405.18,245.08Z"/><path class="cls-5" d="M493.56,329.73l-8.7-37.26S469,276.36,453.13,271.25c-9.47-3-26.06-10.72-31.68-12.49,1.44,7.48-.41,14.25-5.56,18.33a42.81,42.81,0,0,1-25.36,9.13c-8.81.23-17.69-1.76-26-4.68-15.47-5.46-33.36-23.17-37-40L321.53,244s-57.32,25-64.85,28.09,8.94,196.53,8.94,196.53L241,534.6c-1.73,8-36.69,77.88-9.95,140.89,0,0,167.31-51.37,184.84-51.63,20.37-.29,52.85-.45,58-10.16S493.56,329.73,493.56,329.73Z"/><path class="cls-5" d="M520.33,511.44c20.22,11.12,27.24-45.25,42.9-62.2-5.37-5.4-13-23.61-16.2-30.32-6.49-13.61-12.7-27.36-18.85-41.12-7.72-17.27-14.86-34.81-23.34-51.73a264.52,264.52,0,0,0-14-24.88c-4.42-6.86-8.73-13.52-15.44-18.3a101.43,101.43,0,0,0-22.22-11.64l-38.68,76s22.74,54.25,42,66.53c.62.4,8.17,18.23,10.71,23.23a9.79,9.79,0,0,1,1,3.43C469.2,449.7,475.28,486.68,520.33,511.44Z"/><path class="cls-5" d="M664.6,389l-29,15.73s-71.33,31.5-87.87,35.35q-.33,5.26-.55,10.53c-.82,20-26.86,60.85-26.86,60.85,42.4,27.43,111.7-35.55,124-46.19,13.36-11.56,47.76-38,47.76-38Z"/><path class="cls-6" d="M349.7,721.45q52.94,0,105.87,0c15.17,0,18,7,18,21.43,0,13.24-3,21-18.4,21.05-3.46,0-7,.37-10.36-.07-10.16-1.34-12.2,2.33-10.87,10,13,75,25.68,144.84,38.64,219.82.88,5.11.08,7.13-6.94,7.21-17.52.21-17.88.56-20.31-13.49-8.27-47.83-16.43-95.68-24.19-143.58-1.06-6.5-3.76-8.47-11.66-8.41q-60.19.49-120.39,0c-7.7-.06-9.94,2.24-10.9,8.12C269.93,894,261.31,944.4,253,994.83c-.78,4.7-3.12,6.1-8.7,6.18-18,.27-18.54.4-16.22-13.75,8.41-51.27,17.15-102.51,25.82-153.76,3.69-21.79,7.37-38.42,11.39-60.17,1.24-6.72-.21-10.52-9.63-9.24-2,.28-4.16-.08-6.22.06-27.07,1.87-24.86-17-23.29-34.54.61-6.79,7.79-8.39,15.6-8.35,36,.17,72,4.38,107.93,4.38Zm-.85,96.81c20,0,40.09-.15,60.12.09,6.14.08,8.88-1,7.84-6.69-3.23-17.5-6.17-22.86-9-40.41-.84-5.32-3.08-7.57-10.35-7.48-31.78.39-63.58.45-95.36,0-7.88-.12-10.06,2.35-10.95,8-2.66,17-5.5,21.79-8.66,38.72-1.09,5.86.51,8.13,8.28,8C310.15,818,329.51,818.26,348.85,818.26Z"/><rect class="cls-2" x="450.22" y="938.55" width="62.07" height="25.53"/><rect class="cls-2" x="535.86" y="909.78" width="52.63" height="25.53"/><path class="cls-7" d="M686.38,969.51s1.58-10.19-7.23-13.57-28.64-8.83-43.41-15.76c-20.5-9.63-32.92-24.73-41.86-25.11s-6.77,14.46-26.53,15.64c-19.6,1.17-34.75-8.72-35.68-9-4.35,2.82-11.25,33.79-5.66,41.28s53.56,9.27,53.56,9.27l38.61,6.38,38.38.12Z"/><path class="cls-8" d="M562.84,971.07c0-6.17-1-14.58-7.36-17.45a68.45,68.45,0,0,0-7.13-2.37c-2.1-.67-4.2-1.33-6.27-2.08-3.54-1.29-7.2-2.91-9.7-5.84-3.42-4-3.76-9.31-3.16-14.32.08-.66-1.31-.46-1.38.12-.52,4.36-.38,8.88,1.86,12.78a17.06,17.06,0,0,0,7.88,6.62,101.33,101.33,0,0,0,12.16,4.29c2.17.7,4.59,1.21,6.44,2.59a10.8,10.8,0,0,1,3.31,4.31,27.56,27.56,0,0,1,2,11.47c0,.68,1.37.45,1.37-.12Z"/><path class="cls-8" d="M529.27,924.34c6.55,4.43,13.65,7.79,21.53,9a63.09,63.09,0,0,0,14.6.21A80.6,80.6,0,0,0,577,931.83c6.51-1.53,12.87-5.44,19.71-5,4.66.31,9.08,2.5,13.11,4.72,4.67,2.57,9.13,5.5,13.7,8.26,2.57,1.55,5.17,3,7.83,4.45,1.15.61,2.12,1.37,3.44,1.19a4.31,4.31,0,0,0,2.62-1.27c1.11-1.25.89-3.07.51-4.56-.11-.44-1.47-.09-1.36.36.34,1.35.67,3.3-.56,4.33a2,2,0,0,1-1.47.45,13.21,13.21,0,0,1-2.3-1.24c-1.24-.66-2.46-1.34-3.68-2q-3.13-1.8-6.22-3.71c-4.28-2.62-8.5-5.37-12.95-7.69-3.62-1.89-7.52-3.59-11.64-4-6.54-.57-12.53,2.7-18.63,4.46a58.85,58.85,0,0,1-9.4,1.8,75.06,75.06,0,0,1-14.6.59c-9-.68-17.11-4.16-24.52-9.17-.39-.25-1.61.29-1.27.52Z"/><path class="cls-8" d="M592,973.81l-8-1.33.31.62a31.54,31.54,0,0,1,14.38-8.88c6.2-1.8,12.81-1.71,19.2-2.11s12.83-.82,19.2-1.67c4.51-.6,9.34-1.26,13.48-3.27a8.07,8.07,0,0,0,3.64-3c1.4-2.45,0-5.46-1.23-7.65-.27-.46-1.59,0-1.26.57,1.21,2.08,2.62,5.22.91,7.41a8.72,8.72,0,0,1-3.76,2.43c-4.59,1.83-9.74,2.4-14.61,2.95-6.3.7-12.64,1.08-19,1.47-6,.36-12,.45-17.73,2.29a33.38,33.38,0,0,0-14.37,9.09c-.3.32,0,.56.31.61l8,1.33c.61.1,1.41-.74.5-.9Z"/><path class="cls-9" d="M586.7,973.25l.19.21-.33-.06Z"/><path class="cls-8" d="M586.06,973.48l.18.2,1.21-.47-.29-.05h0l0,.19.15-.15a.11.11,0,0,0,.06-.09s0-.05,0-.07a.35.35,0,0,0-.14,0,.66.66,0,0,0-.2,0,2.48,2.48,0,0,0-.54.12l-.15.06a1,1,0,0,0-.23.13l-.14.15a.13.13,0,0,0-.07.12.11.11,0,0,0,.11.06l.29.05h.23a1,1,0,0,0,.24,0,2.23,2.23,0,0,0,.44-.13l.15-.06.16-.1.06-.06a.07.07,0,0,0,0-.1l-.18-.2a.35.35,0,0,0-.14,0,.66.66,0,0,0-.2,0l-.26,0-.28.08-.15.06a1,1,0,0,0-.23.13l-.06.06A.07.07,0,0,0,586.06,973.48Z"/><path class="cls-9" d="M573.14,969.16l1.58,0A21.25,21.25,0,0,0,575,972l-1.62-.09A22.07,22.07,0,0,1,573.14,969.16Z"/><path class="cls-8" d="M572.69,969.43l1.58-.06-.23-.08a19,19,0,0,0,.31,2.92l1.12-.45-1.62-.09.24.08a23.19,23.19,0,0,1-.27-2.77c0-.07-.21-.08-.24-.08a1.61,1.61,0,0,0-.49.07,1.93,1.93,0,0,0-.47.19c-.07,0-.17.09-.16.19a21.47,21.47,0,0,0,.27,2.77c0,.08.19.08.23.08l1.62.1a2,2,0,0,0,.76-.16c.09,0,.4-.15.37-.29a22.23,22.23,0,0,1-.31-2.93c0-.07-.21-.08-.24-.08l-1.58.06a1.92,1.92,0,0,0-1,.26s-.18.1-.16.19S572.64,969.43,572.69,969.43Z"/><path class="cls-9" d="M566,967.63c.09,1.23.13,2.51.11,3.8h-.23l-1.36-.11c0-1.21,0-2.41-.1-3.57Z"/><path class="cls-8" d="M565.32,967.81c.09,1.27.12,2.54.11,3.81l1-.54h-.19c-.12,0,.11,0,0,0l-.25,0-1-.08.26.16c0-1.19,0-2.38-.11-3.57l-1,.53,1.58-.12a1.2,1.2,0,0,0,.9-.36c.18-.24-.16-.36-.35-.34l-1.58.12c-.28,0-1,.13-1,.53.08,1.19.12,2.38.1,3.58,0,.09.2.15.26.15.58.05,1.16.12,1.74.12.29,0,.95-.14.95-.53,0-1.27,0-2.54-.11-3.8,0-.1-.19-.15-.25-.16a1.25,1.25,0,0,0-.51,0C565.71,967.39,565.3,967.53,565.32,967.81Z"/><path class="cls-10" d="M521.52,963.44l1.5.13.27-1.44c5.92.5,26.3,2.24,38.76,4,3.81.53,8.61,1.48,14.16,2.59,12.9,2.56,30.55,6.07,49.16,6.86,3.34.14,6.64.19,9.81.15a228.88,228.88,0,0,0,52.91-7.06l.24,1.44,1.09-.3s.48,2,.91,3.73h0c0,.17.07.31.11.47.16.63.3,1.22.4,1.65-12.8,7.91-69.17,9.88-82,6.68l-2.59-.62-1.18-.26-1.84-.4c-13.74-2.95-34.13-6.19-34.13-6.19s.15,2,.2,4.36h0v.08c0,1,0,2.05,0,3.05-23.82.69-48.65-2.78-48.65-2.78Z"/><path class="cls-8" d="M521.25,963.82l1.5.12c.26,0,.89-.14,1-.46L524,962l-1,.47c9.23.76,18.46,1.61,27.67,2.63,5.08.56,10.16,1.14,15.2,2,6,1.06,11.91,2.33,17.87,3.47a292,292,0,0,0,39.39,5.22,210.93,210.93,0,0,0,40-2,206.19,206.19,0,0,0,25-4.91l-.77-.14.24,1.43c0,.28.62.19.77.15l1.09-.31-.77-.14c.31,1.25.61,2.49.91,3.74.08.32.77.16,1,.08h0l-1-.08.51,2.11.26-.37a28.36,28.36,0,0,1-7.6,2.9,101.2,101.2,0,0,1-11,2.2,259.13,259.13,0,0,1-27.11,2.52c-8.41.39-16.85.53-25.26.08a71.11,71.11,0,0,1-8.5-.84c-4.79-.85-9.53-2.14-14.31-3.07-9-1.75-18-3.31-27.08-4.75-.32,0-1.13.09-1.1.54.11,1.45.16,2.91.19,4.37,0,.16.32.19.42.19h0l-.41-.19c0,1,0,2,0,3l.95-.46a310.49,310.49,0,0,1-45.2-2.35c-1.1-.13-2.19-.27-3.29-.42l.26.27.89-16.14c0-.53-1.34-.26-1.36.18L520,979.67c0,.16.1.25.26.27a318.57,318.57,0,0,0,33.08,2.72c5.24.18,10.48.22,15.72.07.21,0,.93-.12,1-.46,0-1.07,0-2.14,0-3.22,0-.16-.32-.19-.41-.19h0l.42.19c0-1.45-.09-2.91-.19-4.37l-1.11.55q11.91,1.89,23.75,4.11c5.56,1,11.06,2.3,16.58,3.5a55.43,55.43,0,0,0,7.92,1,230.72,230.72,0,0,0,25,.13,275.59,275.59,0,0,0,27.82-2.35,117.42,117.42,0,0,0,12.88-2.45,31.65,31.65,0,0,0,8.68-3.28c.11-.07.3-.2.26-.37l-.51-2.12c-.08-.33-.77-.17-.94-.08h0l1,.08-.9-3.73c-.07-.28-.61-.2-.77-.15l-1.1.31.77.14-.23-1.44c0-.28-.62-.18-.77-.14a196.54,196.54,0,0,1-21.09,4.31,213.76,213.76,0,0,1-38.9,2.63,266.18,266.18,0,0,1-40.68-4.85c-11-2-21.81-4.41-32.9-5.69-10.27-1.19-20.58-2.13-30.88-3-.25,0-.89.14-.95.46l-.27,1.44.95-.47-1.5-.12C521.28,963,520.33,963.74,521.25,963.82Z"/><path class="cls-10" d="M600,923.87a1.18,1.18,0,0,1-1.08.6,1.09,1.09,0,0,1-.54-.16,1.22,1.22,0,0,1-.43-1.66l3.69-6.54c.66.38,1.34.79,2,1.24Z"/><path class="cls-8" d="M599.31,923.85c-.16.26-.21.29-.49.09a1,1,0,0,1-.39-.71,1.1,1.1,0,0,1,.16-.66c.24-.44.49-.87.74-1.31l2.31-4.09.58-1-1.17.32c.69.39,1.37.81,2,1.24l-.1-.36L599.78,923l-.47.83c-.32.57,1.05.45,1.28,0l3.21-5.7.47-.82a.24.24,0,0,0-.1-.36c-.67-.43-1.35-.84-2-1.24a1,1,0,0,0-1.18.32l-2,3.45-1.27,2.26a4.46,4.46,0,0,0-.65,1.31,1.48,1.48,0,0,0,1.1,1.7,2.25,2.25,0,0,0,2.41-.92c.17-.27-.15-.41-.38-.42A1.07,1.07,0,0,0,599.31,923.85Z"/><path class="cls-10" d="M605.91,927.4a1.21,1.21,0,0,1-1.08.61,1.14,1.14,0,0,1-.55-.17,1.23,1.23,0,0,1-.43-1.66l3.54-6.27,2,1.41Z"/><path class="cls-8" d="M605.23,927.52a1.84,1.84,0,0,0-.17.22l0,0c-.14.1,0,.08.25,0,0,0-.2-.05-.25-.08a1,1,0,0,1-.23-.13,1.16,1.16,0,0,1-.22-1.53c.22-.41.45-.81.68-1.21l2.23-4,.58-1-1.31.35c.56.4,1.1.88,1.7,1.23.22.13.24,0,.12.24l-.73,1.29-2.09,3.7-.52.92c-.12.22.48.14.55.13.24,0,.66-.13.8-.37l3-5.31.44-.77a.08.08,0,0,0,0-.11l-2-1.41a1.31,1.31,0,0,0-1.31.35l-1.89,3.35-1.23,2.17a3.57,3.57,0,0,0-.58,1.27,1.33,1.33,0,0,0,1.23,1.45,2.5,2.5,0,0,0,2.33-1c.13-.21-.49-.14-.55-.13A1.2,1.2,0,0,0,605.23,927.52Z"/><path class="cls-10" d="M615,925.46l-3.09,5.47a1.17,1.17,0,0,1-1.08.61,1.1,1.1,0,0,1-.54-.17,1.22,1.22,0,0,1-.43-1.66L613,924C613.64,924.5,614.28,925,615,925.46Z"/><path class="cls-8" d="M614.27,925.56l-2.94,5.21-.14.25-.05.06a1.06,1.06,0,0,0-.1.12c-.08.13,0,0,.06,0a1.31,1.31,0,0,1-.53-.34,1.23,1.23,0,0,1,0-1.44l1.62-2.87,1.48-2.62-1.32.36,1.94,1.42a1,1,0,0,0,.89,0c.11,0,.62-.31.38-.49l-1.93-1.42a1.09,1.09,0,0,0-1.32.35l-3.13,5.55a1.43,1.43,0,0,0,.16,1.76,2.19,2.19,0,0,0,3.15-.56c.49-.84,1-1.68,1.43-2.52l1.69-3c.14-.26-.48-.25-.58-.23A1,1,0,0,0,614.27,925.56Z"/><path class="cls-10" d="M617.81,934.46a1.16,1.16,0,0,1-1.07.61,1.21,1.21,0,0,1-.55-.16,1.24,1.24,0,0,1-.43-1.67l2.89-5.12,2,1.37Z"/><path class="cls-8" d="M617.14,934.59c-.06.11-.17.18-.23.28l0,0c.33,0,.41-.08.25-.1a1.06,1.06,0,0,0-.19-.06,1.11,1.11,0,0,1-.54-.55,1.18,1.18,0,0,1,0-1.08c.15-.29.32-.57.48-.85l1.89-3.36.51-.91-1.31.36,2,1.37,0-.1-2.81,5c-.11.2.48.11.54.1.22,0,.68-.13.8-.35l2.81-5a.07.07,0,0,0,0-.1l-2-1.36a1.43,1.43,0,0,0-1.32.35l-1.65,2.92-1,1.76a1.8,1.8,0,0,0-.37,1.46c.45,1.51,2.86,1,3.51,0,.12-.2-.48-.11-.53-.1C617.71,934.28,617.28,934.36,617.14,934.59Z"/><path class="cls-10" d="M623.77,938a1.18,1.18,0,0,1-1.08.6,1.2,1.2,0,0,1-.54-.16,1.24,1.24,0,0,1-.44-1.66l2.7-4.78c.67.43,1.33.86,2,1.28Z"/><path class="cls-8" d="M623.1,938.12c-.05.08-.18.18-.21.25s-.27.11.09,0,.14,0,0-.06a1.13,1.13,0,0,1-.64-1.66c.13-.25.27-.49.41-.73l1.79-3.18.49-.86-1.31.35c.67.43,1.34.86,2,1.28l0-.11-2.66,4.72c-.12.21.48.13.54.12.23,0,.67-.13.8-.37l2.66-4.72a.07.07,0,0,0,0-.1c-.68-.42-1.35-.85-2-1.28a1.38,1.38,0,0,0-1.31.35l-1.58,2.79-.91,1.63A1.63,1.63,0,0,0,621,938c.57,1.38,2.82.88,3.47-.17.13-.2-.49-.13-.54-.12C623.66,937.8,623.24,937.88,623.1,938.12Z"/><path class="cls-9" d="M515.08,945.87h0v0Z"/><path class="cls-8" d="M514.78,945.5h0l1,.19v0l-1.09.62,0,0a1,1,0,0,0,.24,0,.84.84,0,0,0,.27,0,.69.69,0,0,0,.25-.1.75.75,0,0,0,.2-.15l.08-.12a.3.3,0,0,0,0-.24l-.06-.11a.48.48,0,0,0-.22-.15h0l-.15,0h-.18l-.18,0a.71.71,0,0,0-.25.11.36.36,0,0,0-.14.1.27.27,0,0,0-.1.11.23.23,0,0,0-.06.12.22.22,0,0,0,0,.18v0a.38.38,0,0,0,.15.2.58.58,0,0,0,.21.07.71.71,0,0,0,.25,0,1.2,1.2,0,0,0,.37-.1h0a.6.6,0,0,0,.21-.14.46.46,0,0,0,.14-.17.24.24,0,0,0,0-.18.18.18,0,0,0-.06-.17l-.09-.09a.75.75,0,0,0-.29-.09h-.18A1.21,1.21,0,0,0,514.78,945.5Z"/><path class="cls-11" d="M626.49,666.53c-10,55.18-22.75,175.88-38,243.09,0,0-76,14.45-83.78-.67,0,0-85-308.61-43.4-321,30.64-9.15,125-7.29,143.3,3.46C626.53,604.28,634.4,623.07,626.49,666.53Z"/><path class="cls-12" d="M254,833.57l-4,23.73c8.41,1.61,16.76,3.52,25.1,5.5,1.05-6.39,2.12-12.78,3.16-19.17,1-5.88,3.2-8.18,10.9-8.12q60.19.5,120.39,0c7.9-.07,10.6,1.9,11.66,8.41,1,6.2,2,12.39,3.05,18.59a232,232,0,0,0,23.56-9.8c-4.58-25.91-9.18-52-13.81-78.76a14.47,14.47,0,0,1,0-6.23q-8.24.54-16.48.84c-3.37.13-6.74.22-10.11.3a15.26,15.26,0,0,1,.57,2.45c2.79,17.56,5.72,22.91,8.95,40.41,1.05,5.67-1.69,6.77-7.83,6.7-20-.25-40.08-.1-60.12-.1-19.35,0-38.7-.28-58,.14-7.78.17-9.37-2.09-8.28-8,3.15-16.93,6-21.72,8.66-38.71a10.77,10.77,0,0,1,2-5.27c-9.53-.29-19.06-.52-28.59-.63,1.29,1.64,1.34,4.22.73,7.5C261.37,795.15,257.69,811.78,254,833.57Z"/><path class="cls-6" d="M970.55,721.45q52.92,0,105.86,0c15.18,0,18,7,18,21.43,0,13.24-3,21-18.39,21.05-3.46,0-7,.37-10.37-.07-10.16-1.34-12.2,2.33-10.87,10,13,75,25.68,144.84,38.64,219.82.89,5.11.08,7.13-6.94,7.21-17.52.21-17.88.56-20.31-13.49-8.27-47.83-16.43-95.68-24.19-143.58-1-6.5-3.76-8.47-11.66-8.41q-60.19.49-120.39,0c-7.7-.06-9.94,2.24-10.9,8.12C890.77,894,882.16,944.4,873.86,994.83c-.78,4.7-3.12,6.1-8.69,6.18-18.06.27-18.55.4-16.23-13.75,8.41-51.27,17.15-102.51,25.83-153.76,3.68-21.79,7.36-38.42,11.39-60.17,1.24-6.72-.22-10.52-9.64-9.24-2,.28-4.16-.08-6.22.06-27.07,1.87-24.86-17-23.29-34.54.61-6.79,7.79-8.39,15.6-8.35,36,.17,72,4.38,107.94,4.38Zm-.85,96.81c20,0,40.08-.15,60.12.09,6.13.08,8.87-1,7.83-6.69-3.23-17.5-6.17-22.86-9-40.41-.85-5.32-3.09-7.57-10.36-7.48-31.78.39-63.58.45-95.36,0-7.88-.12-10.06,2.35-10.94,8-2.67,17-5.51,21.79-8.67,38.72-1.09,5.86.51,8.13,8.28,8C931,818,950.35,818.26,969.7,818.26Z"/><path class="cls-12" d="M874.84,833.57l-4,23.73c8.41,1.61,16.76,3.52,25.1,5.5q1.59-9.59,3.16-19.17c1-5.88,3.2-8.18,10.9-8.12q60.19.5,120.39,0c7.9-.07,10.6,1.9,11.66,8.41,1,6.2,2,12.39,3,18.59a233.14,233.14,0,0,0,23.57-9.8c-4.59-25.91-9.18-52-13.82-78.76a14.47,14.47,0,0,1,0-6.23q-8.24.54-16.48.84c-3.37.13-6.74.22-10.11.3a15.26,15.26,0,0,1,.57,2.45c2.79,17.56,5.73,22.91,9,40.41,1,5.67-1.7,6.77-7.84,6.7-20-.25-40.08-.1-60.12-.1-19.34,0-38.7-.28-58,.14-7.77.17-9.37-2.09-8.28-8,3.16-16.93,6-21.72,8.67-38.71a10.67,10.67,0,0,1,2-5.27c-9.53-.29-19.06-.52-28.59-.63,1.29,1.64,1.34,4.22.73,7.5C882.21,795.15,878.53,811.78,874.84,833.57Z"/><path class="cls-13" d="M637.91,623.05a.49.49,0,0,1-.16.05v-.41Z"/><path class="cls-11" d="M540.62,706.44c.76-4.58,1.75-9.11,2.93-13.58a189.36,189.36,0,0,1,10.56-29.49,202.54,202.54,0,0,1,15.46-28.25,173.73,173.73,0,0,1,13.13-17.54C487.77,597,289.17,607.22,289.17,607.22s-67.42-6.87-57.48,78.36c8.05,69,234.51,41.6,307.9,21.16Z"/><path class="cls-11" d="M576.7,636.82a138.14,138.14,0,0,0-26.11,2.33,58.64,58.64,0,0,0,2.19-11.75c-1.66-1.39-3.42-2.81-5.24-4.25a174.13,174.13,0,0,0-24.16,12.2,207,207,0,0,0-25.56,18.16,178.94,178.94,0,0,0-21.5,21c-1.85,2.15-3.62,4.35-5.33,6.61l.81.12c-24.55,35.32-13,103.72-20.22,168.57-5.28,47.56-12.85,86.84-12.85,86.84C447.89,951,528.14,944,528.14,944,545,856.57,576.7,636.82,576.7,636.82Z"/><path class="cls-14" d="M446.84,834.76s0,0-.08,0S446.69,834.57,446.84,834.76Z"/><path class="cls-7" d="M604.92,998.28s1.59-10.19-7.22-13.56-28.64-8.84-43.41-15.77c-20.5-9.62-32.92-24.72-41.86-25.1s-6.77,14.46-26.53,15.64c-19.6,1.17-34.75-8.72-35.68-9-4.35,2.82-11.25,33.79-5.66,41.28s53.56,9.26,53.56,9.26l38.61,6.39,38.38.12Z"/><path class="cls-8" d="M481.39,999.83c0-6.18-1-14.72-7.5-17.47-4.27-1.79-8.9-2.8-13.25-4.38-3.55-1.3-7.2-2.93-9.71-5.86-3.42-4-3.77-9.33-3.16-14.34.07-.61-1.31-.39-1.37.14-.53,4.35-.4,8.86,1.85,12.75a17,17,0,0,0,7.87,6.61,102.58,102.58,0,0,0,12.16,4.29c2.17.69,4.59,1.21,6.45,2.59A11,11,0,0,1,478,988.5a27.56,27.56,0,0,1,2,11.47c0,.64,1.37.38,1.37-.14Z"/><path class="cls-8" d="M447.82,953.12c6.56,4.43,13.65,7.8,21.53,9a63.09,63.09,0,0,0,14.6.2,78.8,78.8,0,0,0,11.55-1.68c6.51-1.53,12.87-5.44,19.71-5,4.66.3,9.08,2.49,13.11,4.71,4.67,2.57,9.14,5.51,13.7,8.26,2.57,1.55,5.17,3.06,7.83,4.46,1.15.61,2.12,1.36,3.44,1.18a4.26,4.26,0,0,0,2.62-1.27c1.11-1.25.89-3.07.51-4.57-.11-.45-1.48-.1-1.36.37.33,1.34.67,3.3-.56,4.31a2,2,0,0,1-1.47.46,13.92,13.92,0,0,1-2.3-1.24c-1.24-.66-2.47-1.33-3.68-2-2.1-1.2-4.16-2.44-6.22-3.71-4.28-2.62-8.5-5.37-13-7.69-3.57-1.86-7.4-3.54-11.45-3.94-6.61-.65-12.66,2.66-18.83,4.44a59.86,59.86,0,0,1-9.39,1.8,76.66,76.66,0,0,1-14.6.59c-9-.67-17.11-4.16-24.53-9.16-.39-.27-1.62.28-1.26.52Z"/><path class="cls-8" d="M510.87,1002.77l-4.63-.76-2.7-.45c-.09,0-.6,0-.65-.11.08.14,1.16-1,1.4-1.23a32.55,32.55,0,0,1,19.11-8.66c4-.45,8.07-.55,12.1-.8s8.06-.51,12.08-.87c6.24-.55,12.68-1.13,18.67-3a13.66,13.66,0,0,0,5.79-3.08c2.28-2.39,1-5.83-.49-8.32-.2-.34-1.48.17-1.36.37,1.22,2.08,2.59,5.08,1.14,7.39a7.76,7.76,0,0,1-3.74,2.67c-4.68,2-10,2.49-15,3-6.32.69-12.67,1.07-19,1.45-5.88.36-11.77.5-17.44,2.29a33.39,33.39,0,0,0-14.48,9.11c-.08.09-.09.19.06.21l8,1.33c.32.06,1.49-.46,1.12-.53Z"/><path class="cls-9" d="M505.25,1002l.19.2-.33-.05Z"/><path class="cls-8" d="M504.61,1002.26l.18.21,1.21-.5-.29-.05h0l.06.21.14-.15a.12.12,0,0,0,.06-.1.06.06,0,0,0,0-.08.23.23,0,0,0-.14,0h-.2l-.17,0a2.12,2.12,0,0,0-.36.1l-.16.06a1.18,1.18,0,0,0-.22.14l-.15.15a.14.14,0,0,0-.06.13.12.12,0,0,0,.12.08l.28,0h.24l.24,0,.18,0a1.14,1.14,0,0,0,.26-.09.59.59,0,0,0,.14-.06.91.91,0,0,0,.16-.11l.06-.07a.08.08,0,0,0,0-.11l-.19-.2a.23.23,0,0,0-.14,0h-.2l-.26,0-.27.08-.16.06a1.18,1.18,0,0,0-.22.14l-.06.07A.08.08,0,0,0,504.61,1002.26Z"/><path class="cls-9" d="M491.69,997.94l1.58-.06a21.44,21.44,0,0,0,.31,2.93l-1.62-.1A21.88,21.88,0,0,1,491.69,997.94Z"/><path class="cls-8" d="M491.41,998.27l1.58-.06-.4-.15a19.29,19.29,0,0,0,.31,2.93l1.11-.5-1.62-.1.25.14a23.4,23.4,0,0,1-.27-2.77c0-.1-.2-.13-.25-.14a1.4,1.4,0,0,0-.5,0c-.2.06-.62.19-.61.45a23.55,23.55,0,0,0,.26,2.78c0,.09.19.13.26.13l1.62.1a1.67,1.67,0,0,0,.76-.15c.12-.05.38-.18.35-.36a21.9,21.9,0,0,1-.31-2.92c0-.15-.32-.15-.4-.14l-1.58.06a1.3,1.3,0,0,0-.91.34C490.87,998.21,491.24,998.27,491.41,998.27Z"/><path class="cls-9" d="M484.55,996.41c.09,1.23.13,2.51.11,3.8h-.23l-1.36-.11c0-1.21,0-2.42-.1-3.57Z"/><path class="cls-8" d="M483.87,996.59c.09,1.23.12,2.47.11,3.7l.94-.47c-.53,0-1.05-.07-1.58-.11l.42.3c0-1.22,0-2.45-.11-3.67l-.77.57,1.58-.12c.25,0,.71-.18.77-.47s-.41-.31-.59-.3l-1.58.12c-.27,0-.8.22-.77.57.08,1.15.11,2.31.1,3.47,0,.24.21.29.42.31.53,0,1.06.1,1.59.11a1.31,1.31,0,0,0,.61-.15c.11-.05.33-.18.33-.33,0-1.3,0-2.6-.11-3.9,0-.11-.19-.17-.26-.19a1.25,1.25,0,0,0-.51,0C484.22,996.13,483.85,996.28,483.87,996.59Z"/><path class="cls-10" d="M440.07,992.22l1.5.12.27-1.43c5.91.49,26.3,2.24,38.76,4,3.8.54,8.6,1.49,14.16,2.59,12.89,2.57,30.55,6.08,49.16,6.86,3.34.15,6.64.2,9.8.15a228.54,228.54,0,0,0,52.92-7l.24,1.44,1.09-.31s.48,2,.91,3.74h0c0,.16.07.31.11.47.15.63.29,1.22.4,1.65-12.8,7.91-69.17,9.88-82,6.68l-2.6-.62-1.17-.26-1.84-.41c-13.74-3-34.13-6.19-34.13-6.19s.15,2,.19,4.37h0v.08c0,1,0,2,0,3-23.81.68-48.64-2.78-48.64-2.78Z"/><path class="cls-8" d="M439.83,992.71l1.5.12c.36,0,.86-.14.93-.54l.27-1.43-.93.54c9.16.76,18.32,1.6,27.45,2.61,5.08.56,10.16,1.12,15.19,2,6,1,11.91,2.32,17.87,3.47a290.63,290.63,0,0,0,39.62,5.27,210.91,210.91,0,0,0,40-1.93,206.35,206.35,0,0,0,25-4.91l-.81-.28.24,1.44c0,.33.57.34.8.28l1.1-.3-.81-.28c.31,1.24.61,2.49.91,3.73.09.4.71.35,1,.22h0l-1-.22c.17.71.34,1.41.5,2.12l.24-.49a28.25,28.25,0,0,1-7.61,2.88,106,106,0,0,1-11,2.21,259.86,259.86,0,0,1-27.29,2.53c-8.35.38-16.73.53-25.08.08a72.46,72.46,0,0,1-8.58-.85c-4.82-.83-9.58-2.14-14.39-3.07q-13.49-2.62-27.07-4.76c-.42-.06-.95.22-.92.68.1,1.41.15,2.82.18,4.23a.45.45,0,0,0,.46.44h0l-.45-.44c0,1.05,0,2.09,0,3.13l.76-.55a308.75,308.75,0,0,1-45.18-2.36c-1.1-.13-2.2-.26-3.29-.41l.45.44.89-16.14c0-.71-1.35-.51-1.38.1l-.89,16.14c0,.27.22.41.46.44a315.93,315.93,0,0,0,33.38,2.72c5.14.17,10.29.2,15.43.06.28,0,.74-.22.75-.55,0-1,0-2.08,0-3.12a.45.45,0,0,0-.46-.44h0l.45.44c0-1.5-.09-3-.19-4.5l-.92.67q11.9,1.9,23.74,4.12c5.56,1,11.06,2.31,16.59,3.5a56,56,0,0,0,8,1,235.22,235.22,0,0,0,24.77.13,271.91,271.91,0,0,0,27.79-2.36,117.53,117.53,0,0,0,12.89-2.43,32,32,0,0,0,8.67-3.3.49.49,0,0,0,.23-.49l-.51-2.12c-.09-.4-.72-.35-1-.22h0l1,.22-.9-3.74c-.08-.32-.56-.35-.81-.28l-1.09.31.8.27-.23-1.43c-.06-.33-.58-.34-.81-.28a196.87,196.87,0,0,1-21.08,4.31,213,213,0,0,1-38.9,2.65,265.51,265.51,0,0,1-40.44-4.79c-11-2-21.84-4.43-32.94-5.72-10.34-1.21-20.71-2.16-31.08-3-.36,0-.85.14-.93.54l-.27,1.44.93-.55-1.51-.12C439.64,991.67,438.91,992.64,439.83,992.71Z"/><path class="cls-10" d="M518.5,952.64a1.17,1.17,0,0,1-1.08.61,1.2,1.2,0,0,1-.54-.16,1.23,1.23,0,0,1-.43-1.66l3.69-6.54c.66.38,1.34.79,2,1.24Z"/><path class="cls-8" d="M517.86,952.6c-.15.24-.24.27-.49.1A1,1,0,0,1,517,952a1.1,1.1,0,0,1,.17-.64c.24-.44.49-.88.74-1.31l2.3-4.09.59-1-1.18.32c.69.39,1.37.81,2,1.24l-.11-.41-3.22,5.7-.46.82c-.16.29.14.46.39.48a1,1,0,0,0,.89-.39l3.22-5.7.46-.82a.28.28,0,0,0-.11-.4c-.67-.43-1.35-.85-2-1.24a1,1,0,0,0-1.18.31l-1.94,3.45-1.28,2.27a4.72,4.72,0,0,0-.65,1.31,1.55,1.55,0,0,0,1.12,1.75,2.19,2.19,0,0,0,2.4-.93c.18-.28-.15-.46-.39-.48A1,1,0,0,0,517.86,952.6Z"/><path class="cls-10" d="M524.45,956.18a1.16,1.16,0,0,1-1.07.6,1.2,1.2,0,0,1-1-1.82l3.54-6.27c.64.45,1.28.92,1.94,1.41Z"/><path class="cls-8" d="M523.81,956.12c-.15.24-.24.27-.49.1a.91.91,0,0,1-.38-.62,1,1,0,0,1,.15-.67c.23-.41.46-.82.7-1.23l2.23-4,.56-1-1.17.32c.65.46,1.3.93,1.94,1.41l-.11-.43-3,5.31-.44.77c-.16.29.14.48.4.51a1,1,0,0,0,.89-.4l3-5.31.44-.77a.31.31,0,0,0-.11-.42l-1.95-1.41a.94.94,0,0,0-1.18.32L523.41,952l-1.23,2.17a4,4,0,0,0-.62,1.33,1.58,1.58,0,0,0,1.14,1.68,2.18,2.18,0,0,0,2.4-.93c.18-.29-.16-.48-.4-.51A1,1,0,0,0,523.81,956.12Z"/><path class="cls-10" d="M533.5,954.24l-3.09,5.47a1.18,1.18,0,0,1-1.08.6,1.09,1.09,0,0,1-.54-.16,1.22,1.22,0,0,1-.43-1.66l3.2-5.68Z"/><path class="cls-8" d="M532.85,954.17l-2.94,5.21c-.18.31-.35.63-.74.29a1,1,0,0,1-.06-1.31l1.63-2.87,1.47-2.61-1.18.31,1.94,1.43c.47.34,1.67-.32,1-.77l-1.93-1.42a.9.9,0,0,0-1.18.31l-3.13,5.55a1.64,1.64,0,0,0,.08,1.9,2,2,0,0,0,3.17-.37c.51-.81,1-1.68,1.43-2.52l1.69-3c.16-.29-.15-.51-.41-.54A.92.92,0,0,0,532.85,954.17Z"/><path class="cls-10" d="M536.36,963.24a1.19,1.19,0,0,1-1.07.61,1.11,1.11,0,0,1-.55-.17,1.22,1.22,0,0,1-.43-1.66l2.89-5.12,2,1.37Z"/><path class="cls-8" d="M535.71,963.17c-.21.35-.56.13-.73-.16a.91.91,0,0,1,0-.93c.15-.29.32-.57.48-.85l1.9-3.36.51-.91-1.18.32,2,1.37-.12-.45-2.81,5c-.16.3.15.52.41.55a.94.94,0,0,0,.89-.41l2.81-5a.35.35,0,0,0-.12-.45c-.66-.45-1.32-.9-2-1.37a.91.91,0,0,0-1.18.32l-1.65,2.92-1,1.76a2.11,2.11,0,0,0-.41,1.57,1.64,1.64,0,0,0,1.43,1.23,2.13,2.13,0,0,0,2.08-1c.18-.29-.16-.52-.41-.55A1,1,0,0,0,535.71,963.17Z"/><path class="cls-10" d="M542.32,966.77a1.17,1.17,0,0,1-1.08.61,1.14,1.14,0,0,1-.55-.17,1.24,1.24,0,0,1-.43-1.66l2.7-4.77c.67.42,1.33.85,2,1.27Z"/><path class="cls-8" d="M541.68,966.75a1.24,1.24,0,0,1-.17.23c-.17,0-.42-.2-.51-.32a1,1,0,0,1-.1-1.09c.12-.25.28-.49.41-.73l1.8-3.18.49-.86-1.18.31c.67.43,1.34.86,2,1.28l-.1-.36-2.66,4.72c-.15.28.14.41.38.42a1,1,0,0,0,.89-.38l2.67-4.72a.23.23,0,0,0-.1-.35c-.68-.42-1.35-.85-2-1.28a1,1,0,0,0-1.18.32l-1.57,2.78-.92,1.63a1.85,1.85,0,0,0-.34,1.57c.5,1.51,2.75,1.21,3.46,0,.17-.27-.14-.41-.37-.41A1.06,1.06,0,0,0,541.68,966.75Z"/><path class="cls-9" d="M433.62,974.65h0v0Z"/><path class="cls-8" d="M433.23,974.54h0l1.07-.08v0l-1.23.45,0,0a.59.59,0,0,0,.19,0,.65.65,0,0,0,.24,0,1.19,1.19,0,0,0,.27-.07,1.06,1.06,0,0,0,.25-.09l.13-.07a.54.54,0,0,0,.15-.15v-.07a.18.18,0,0,0-.13-.09h0l-.12,0a.9.9,0,0,0-.23,0l-.18,0a1.34,1.34,0,0,0-.27.07l-.15.07-.13.07a.43.43,0,0,0-.12.11.14.14,0,0,0,0,.11v0a.18.18,0,0,0,.12.09.82.82,0,0,0,.27,0,2.11,2.11,0,0,0,.69-.18h0a1.08,1.08,0,0,0,.18-.11.52.52,0,0,0,.1-.11.07.07,0,0,0,0-.09.16.16,0,0,0-.11-.07h-.12a1.08,1.08,0,0,0-.31,0l-.19,0Z"/><path class="cls-11" d="M560.9,634.82s6.54-37.3-25.79-46.47c-44-12.5-260,19.65-260,19.65L560.9,634.82"/><path class="cls-2" d="M336.64,196.66c0,.09,0,.16,0,.24A.33.33,0,0,1,336.64,196.66Z"/><path class="cls-2" d="M391.72,246.52l27.13-.09,13.66-2.62c1.37.08,7.82-13.62,8.82-15.35,3.09-5.37,7.13-12.4,9.13-18.29,2.13-6.3,6.34-11.68,7.57-19.31.9-5.59,1.05-9.52-1.64-18.77a12.88,12.88,0,0,1,0-7.15c1.4-5.22,2.05-11.35,3.77-18.35.13-.55.88-3.2.68-3.82,0,0,2.26-29.34-2.68-40s-12.71-15.79-20.37-18S407.29,83,407.29,83L375.92,77.4,348.66,89.72,333.91,121.8l.64,37.85,2.85,33.89"/><path class="cls-15" d="M343.6,157.16c.06,2.93,3.22,17.61,3.45,20.47l-15.1-.8C327.74,166.66,322.67,154.7,321,152c-2.56-4.28,5.87-24.8,6-32.46l0-1.65c.07-7.35,7.48-18.78,19.82-30.56C368.06,67,367.05,66.73,398.64,70c2.18.23,4.34.54,6.44.92,19.8,3.6,36.43,3.86,48.58,20.94,8.75,12.32,2.32-3,1.28,5.33,0-16.53,2.7-2.81,1.06-4.81-9.63-11.69-15,.27-19.83-.61a16.43,16.43,0,0,0-8.13.49c-4.88.93-9.51.15-14.59-.77-3.79-.69-13.34-3.18-14.16-3.4-2.5-1.86,0-11.73-4.65-12.58-10.93-2-26.09,2.34-31.46,4.63-6.36,2.71-21.55,8.53-20,25.39"/><path class="cls-15" d="M429.69,240.14a1.45,1.45,0,0,1-.51-.21c-2.81-2-3-3.1-4.39-3.49a8.57,8.57,0,0,0-1.49-.39c-4.05-.71-6.51-1.23-17.66,5.29-.22.13-14.43-2.2-14.7-2.23l-7.24-3.75c-1.21-.81-28-25.05-28-25.05-.39-.79-5.18-6.5-5.35-7.25l-.26-.14-.17-.08-.05.15a5.27,5.27,0,0,0-.06,1,16,16,0,0,0,.61,4.12c.57,2.07.87,4.17,1.35,6.24.17.74.38,1.46.61,2.18,3.08,2.07,22.19,28,33.39,34.07a50.82,50.82,0,0,0,9.25,1.71c11.66,1.41,22.95,1.8,34.57-1.12a10.35,10.35,0,0,0,6.84-5.56c3.73-7.82,12-25.22,14.26-37C447.29,215.34,440,229.83,435,239.7c-.15.3-4.6.38-5,.48"/><path class="cls-2" d="M340.62,197.48c-12.63,11.46-14.33-8.88-14.33-8.88-8-10.64-7.51-21.55-6.85-29s8.87-6.94,8.87-6.94c6.93,1.09,9.87,5,14.58,28.76"/><path class="cls-15" d="M432,85c-11.33-.55-40.84-9.32-56.19-10.77-6.35-.6-28,14.5-30.85,18-6.55,8,7.42,27.36-4.27,53.23-3.86,8.54-8.43-6.77-13.15-1.25S321,152,321,152c-2.57-25.19-2.51-24.31,3.8-48.91s33.58-34.51,46.69-36.18,54.85,3.77,66,9.39"/><path class="cls-8" d="M337.42,176.8a59.25,59.25,0,0,0-5.21-10.3,18.61,18.61,0,0,0-3.7-4.31,5.24,5.24,0,0,0-2-1.09c-.95-.19-1.41.49-1.82,1.2-1.71,2.95-1.76,6.6-1.13,9.85.06.28,1.24,0,1.17-.31a15.35,15.35,0,0,1,.32-8,7.66,7.66,0,0,1,1.36-2.59l-.91.29c.12,0-.07,0,0,0s.26.07.38.12a5.66,5.66,0,0,1,1.39.84,21.63,21.63,0,0,1,5.08,6.5,68.7,68.7,0,0,1,3.85,8.08c.13.31,1.28-.07,1.17-.32Z"/><path class="cls-8" d="M334.62,177.89c-4.83-.43-2.33,6.37-2.81,9,0,.13-.09.27-.11.4s-.13.18-.12.19.25.08.25,0a4,4,0,0,0-.29-.33,4.33,4.33,0,0,1-.38-.78,21.85,21.85,0,0,1-1.11-4.73,18.26,18.26,0,0,1-.08-5.76c.36-2.24,1.1-5.33,3.47-6.23.75-.29.09-.94-.52-.7-2.26.85-3.28,3.3-3.83,5.48a15.53,15.53,0,0,0-.5,5,33.48,33.48,0,0,0,1,6c.24.87.56,2.28,1.42,2.77a1.36,1.36,0,0,0,1.83-.77,5.47,5.47,0,0,0,.18-2.61c-.1-1.3-1.16-6.23,1.21-6,.58.05,1.2-.79.4-.86Z"/><path class="cls-15" d="M397.7,156.67a4.53,4.53,0,0,0-4.94.63,4.38,4.38,0,0,0-1.43,2,4.53,4.53,0,0,0,.85,4.16,4.18,4.18,0,0,0,4.77,1.1,4.64,4.64,0,0,0,2.57-5.27,4.15,4.15,0,0,0-1.82-2.6"/><path class="cls-15" d="M447.67,159.68a4.53,4.53,0,0,1,4.84,1.14,4.31,4.31,0,0,1,1.21,2.12,4.48,4.48,0,0,1-1.28,4.05,4.19,4.19,0,0,1-4.86.59,4.65,4.65,0,0,1-2-5.51,4.14,4.14,0,0,1,2.09-2.39"/><path class="cls-15" d="M432.9,165.47s7.35-6.6,12.48-6.8c7.49-.29,9.31,1.49,11.77,5.05,0,0-4.69-3.83-10-3.48C442.15,160.57,432.9,165.47,432.9,165.47Z"/><path class="cls-15" d="M408.79,162.38s-10.09-7.15-15.21-7.56c-7.47-.59-16.62,3.35-19.22,6.81,0,0,12.1-5.87,17.35-5.31C396.73,156.85,408.79,162.38,408.79,162.38Z"/><path class="cls-15" d="M412.64,136.94l-.51,5.33c-.14,1.36-.34,4.46-.48,5.81-4.16-1.55-7.85-3.62-10.56-4.37-5.38-1.48-10.84-3.39-16.46-3.05a18.79,18.79,0,0,0-7.42,1.79c-.74.37-2.8,2.06-3.79,1.48-.41-.24.49-2.35.59-2.57,1.85-4.27,5.76-5.75,10.42-6.37,9.52-1.26,18.86-.14,28.21,1.95"/><path class="cls-15" d="M462,141.74l-3-1.07c-8.33-3-17-3.67-25.78-3.36l-.54,5.32c-.14,1.36-.47,3.79-.6,5.14,4-.73,7.57-1.74,10.15-2,5.13-.45,10.53-1,15.52.4l2.91.86C462.54,144.78,462.69,142.2,462,141.74Z"/><path class="cls-15" d="M408.79,221.36l19.25,0s-4.92,7.21-9.61,7C415.5,228.19,411.74,224.82,408.79,221.36Z"/><path class="cls-10" d="M425.58,194.41a8.34,8.34,0,0,1-7.71-.91c-.47-.34-2.11-.12-1.45.35a11.7,11.7,0,0,0,10.5,1.06c.28-.14.25-.36-.1-.5a1.82,1.82,0,0,0-1.24,0"/><path class="cls-10" d="M415.5,193.16a13.23,13.23,0,0,0-4.7-1.47,1,1,0,0,0-.74.2.23.23,0,0,0,0,.4,5.17,5.17,0,0,0,2.58.75,1,1,0,0,0,.83-.28c.16-.22-.11-.38-.33-.39a4,4,0,0,1-2.08-.61l-.75.6a11.86,11.86,0,0,1,4.2,1.33,1,1,0,0,0,.88-.06c.18-.09.38-.33.12-.47"/><path class="cls-10" d="M409,193c-1.93-.15-4.14-1.13-5-2.66-1.31-2.32.2-5.71,2.68-7,.27-.14.14-.35-.12-.42a1.6,1.6,0,0,0-1,.16,6.79,6.79,0,0,0-3.46,6c.19,2,2,3.45,4.23,4.14a10.74,10.74,0,0,0,2.12.41c.29,0,.82,0,1-.26s-.1-.35-.37-.37"/><path class="cls-10" d="M429.16,193.59a.24.24,0,0,1,.26-.35,2.2,2.2,0,0,0,1.52-.43l.47.67a6.58,6.58,0,0,0-3.07.94.53.53,0,0,1-.61-.13c-.12-.11-.24-.37-.05-.49"/><path class="cls-10" d="M427.68,193.8a7.38,7.38,0,0,1,3.44-1,.63.63,0,0,1,.51.26.28.28,0,0,1,0,.4"/><path class="cls-10" d="M433.14,194.07a3.94,3.94,0,0,0,3.47-2.21,5.87,5.87,0,0,0-1.17-6.4.24.24,0,0,1,.12-.41.72.72,0,0,1,.66.25,6.57,6.57,0,0,1,1.75,5.48,4.55,4.55,0,0,1-3.09,3.75,4.89,4.89,0,0,1-1.41.23.71.71,0,0,1-.61-.35c-.08-.24.1-.34.28-.34"/><path class="cls-15" d="M437.88,89.89a7.15,7.15,0,0,0-3.27-1.24l-1.28-.46c-3.82-.17-7.65-.23-11.47-.17a8.08,8.08,0,0,0-2.8.37,1.59,1.59,0,0,0-.27.12c-2.82-.2-5.65-.37-8.48-.46l-1.31.3a8,8,0,0,0-3.35.84,1.11,1.11,0,0,0,.19,2.08c1.15.41,2.88-.15,3.66.53s-.86,1.77-.37,2.65c.31.55,1.33.76,2,1.16s1,1.24,1.74,1.76a4,4,0,0,0,3,.5c1.07.12,2.52-.26,2.83.48a1.22,1.22,0,0,1,0,.63,2.14,2.14,0,0,0,1.56,2,3.52,3.52,0,0,0,3-.32c.77-.54,1.07-1.39,1.88-1.88a6.79,6.79,0,0,1,.86-.39,2.79,2.79,0,0,0,1,.62,3.49,3.49,0,0,0,3-.33c.76-.53,1.06-1.38,1.88-1.87s1.72-.57,2.07-1.18c.57-1-1.06-2.27-.15-3.07s2.52.07,3.69-.3A1.35,1.35,0,0,0,437.88,89.89Z"/><path class="cls-15" d="M407.47,243a5.72,5.72,0,0,0,2.72.8l1.06.28q4.65-.17,9.27-.6a6.59,6.59,0,0,0,2.24-.48l.2-.11c2.3,0,4.59-.08,6.88-.19l1-.32a6.35,6.35,0,0,0,2.65-.9.9.9,0,0,0-.29-1.67c-.95-.25-2.32.31-3-.19s.58-1.48.13-2.16c-.29-.42-1.12-.52-1.68-.81s-.9-.93-1.52-1.31a3.18,3.18,0,0,0-2.44-.2c-.87,0-2,.37-2.32-.21a.94.94,0,0,1,0-.5,1.75,1.75,0,0,0-1.39-1.53,2.9,2.9,0,0,0-2.43.46c-.58.48-.77,1.19-1.4,1.64a5.16,5.16,0,0,1-.66.37,2.26,2.26,0,0,0-.83-.43,2.86,2.86,0,0,0-2.43.45c-.58.48-.77,1.19-1.4,1.64s-1.34.57-1.59,1.08c-.39.82,1,1.77.32,2.47s-2,.11-3,.49A1.08,1.08,0,0,0,407.47,243Z"/><path class="cls-16" d="M322.46,153.56a7.25,7.25,0,0,1-3.36-.78,2.5,2.5,0,0,1-1.16-3c.79-1.66,3.86-1.89,3.71-3.72-1.48-1.82-5.09-1.19-5.91-3.38-.66-1.77,1.26-3.37,2.91-4.3-1.12-1.11-.8-.12-2.33-.54s-2.31-4.13-1.42-5.43c1-1.47,1.53-.26,1-2-1.21-.4,1.48-1.39.57-2.28a2.91,2.91,0,0,1-.66-3.48c.84-1.28.71-2.26.71-3.79,0-1.31,2.57-1.5,1.8-2.56-1.38-1.94.57-4.48,2.38-6-1-.72.24-.91-.4-2a3,3,0,0,1,.12-3.52,14.13,14.13,0,0,1,1.91-1.28c2.51-1.92,1.09-5.9-.53-8.62a4.53,4.53,0,0,0,4.8-3.62,14.45,14.45,0,0,1,.37-3.1c.4-1,1.82-1.6,2.47-.78"/><path class="cls-15" d="M323,152.79c-1.3-.1-2.79-.25-3.51-1.49a1.65,1.65,0,0,1,.69-2.42c.93-.6,3.46-1.72,2.82-3.26s-3.29-1.6-4.49-2.1a2,2,0,0,1-1.49-2c.09-1.28,1.49-2.18,2.48-2.75.26-.15.8-.61.45-.94a2.32,2.32,0,0,0-1.65-.77c-.34,0-.67.16-1,.15.48,0-.19-.21-.35-.34a4.66,4.66,0,0,1-1-3.86c.17-.75.38-.81.9-1.16a1,1,0,0,0,.57-1.15c0-.23-.47-.84-.47-.92,0,.2.05.11.17-.08.27-.42.76-.66.86-1.19.12-.7-.49-1-.8-1.57a2.66,2.66,0,0,1,.17-2.78,5.06,5.06,0,0,0,.51-2.3c0-.77-.16-1.32.45-1.83.86-.71,1.81-1,1.25-2.24-.95-2.1.67-3.93,2.19-5.28.18-.16.47-.53.19-.76-.48-.39-.12-.59-.12-1.11,0-.7-.55-1.3-.64-2-.29-2.14,2-2.34,3-3.76,1.85-2.49.27-6-1.09-8.35l-2,1.16a7,7,0,0,0,5.51-2.15A5,5,0,0,0,328,93.11c.1-.59.06-1.2.11-1.79a3.58,3.58,0,0,1,.21-1.12.62.62,0,0,1,.18-.36c.23-.25.1-.21-.4.12.68.67,3.36-.39,2.64-1.09-1.43-1.38-4.29-.27-5.1,1.32-.6,1.18-.21,2.56-.6,3.8a2.78,2.78,0,0,1-2.7,2.16c-.34,0-2.39.45-2,1.15a13.12,13.12,0,0,1,1.84,4.77,4.34,4.34,0,0,1-.22,2.23c-.37.87-1.1,1.17-1.86,1.65a3.41,3.41,0,0,0-1.65,3.81c.18.69.59,1.11.48,1.82s-.13.86.41,1.3l.19-.76a10.09,10.09,0,0,0-2.82,3.6,3.66,3.66,0,0,0-.28,2c.05.3.62,1.17.59,1.33s-.94.62-1.12.77a2.26,2.26,0,0,0-.82,1.13,20,20,0,0,0-.06,2.2,8.84,8.84,0,0,1-.83,2.1,3,3,0,0,0,0,2,4.22,4.22,0,0,0,.43.88c.13.18.57.54.58.76,0,.63-1.27.93-1.07,1.73.06.22.26.25.34.4.21.37-.05.5.49.26.78-.35,0-.08-.21,0a3.82,3.82,0,0,0-.85.7,3.69,3.69,0,0,0-.77,3,4.64,4.64,0,0,0,1.5,3.22,3.14,3.14,0,0,0,1.74.49,2.75,2.75,0,0,0,1.14-.13c.12-.05.65-.09-.24,0-.59,0-.32,0,0,.37l.45-.93c-1.78,1-4.82,3.35-3.12,5.69a4.43,4.43,0,0,0,2.38,1.42c.8.24,2.53.44,3,1.21s-1,1.41-1.6,1.76a4.1,4.1,0,0,0-2,2.22c-.76,3.14,3.37,3.86,5.49,4,1.05.08,3-1.41,1.12-1.54Z"/><path class="cls-17" d="M328.42,94.48c.34-1.39,1.74-8,2.08-9.4a3.13,3.13,0,0,0,4.12-2.55c.07-.94-.22-2.12.56-2.65s1.85.2,2.81.17c2.14-.07,2.5-3.54,4.53-4.25,1.26-.45,2.7.39,4,0,1.94-.59,2.3-3.49,4.18-4.27,1.3-.53,2.82.17,4.18-.18,2.95-.75,4-5.07,7.08-5,1.12,0,2.14.78,3.25.7,2-.14-.93-2.27,1.05-2.51,1.82-.23,3.23,1.71,5.05,1.94,3,.38,5-4.54,7.77-3.37,1.17.51,1.8,1.87,2.95,2.42,2.71,1.3,5.6-2.57,8.5-1.83,1.46.37,2.48,1.85,4,2.07,2.31.34,4.15-2.5,6.48-2.29,1.85.18,3.19,2.25,5,2.18,1.3,0-1.88-1.55-.58-1.71,2.2-.28,3.8,2.18,6,2.67,1.82.42,3.62-.61,5.44-1s5.73,3.19,5.76,5.06"/><path class="cls-15" d="M329.83,94.26c.75-3.12,1.33-6.28,2.08-9.4l-2.56.83a5.83,5.83,0,0,0,5.83-1.55,3.58,3.58,0,0,0,.87-2.48,6.54,6.54,0,0,1,0-1s.2-.64.2-.64l-1,.33.84.2a5.26,5.26,0,0,0,1,.14,5,5,0,0,0,4.54-2.64c.24-.37.46-.75.72-1.1.16-.2.87-.79.36-.63.5-.16,1.56.22,2.11.23a6,6,0,0,0,2-.28c2.15-.65,2.65-2.43,4-3.94.49-.53.39-.35,1.19-.29a10.49,10.49,0,0,0,1.86,0A6.94,6.94,0,0,0,357,71a9.67,9.67,0,0,0,2-1.78c.59-.66,1.26-1.77,2.08-2.16s1.75.38,2.49.51a4.67,4.67,0,0,0,3.17-.56,1.06,1.06,0,0,0,.53-1.33,3.3,3.3,0,0,0-.29-.78,2.6,2.6,0,0,0,0-.26c-1,.28-1.17.47-.55.59l.31.13a21,21,0,0,0,3.1,1.58,5.41,5.41,0,0,0,2.85-.13c1.88-.55,3.11-1.95,4.66-3a2.17,2.17,0,0,1,.37-.25c.31-.13-.35-.1,0,0a3.53,3.53,0,0,1,1.3.93,5.18,5.18,0,0,0,2.69,1.82c2.05.4,4-.61,5.8-1.49,1-.48,1.64-.83,2.67-.27A15.87,15.87,0,0,0,393,66.25c2.14.63,4.21-.54,6-1.6a2,2,0,0,1,2.63.1,8.18,8.18,0,0,0,2.88,1.46,3.78,3.78,0,0,0,2.95-.57c.57-.5.21-.83-.24-1.25a4,4,0,0,0-.61-.56l0,0c-1.54.45-1.88.72-1,.83.32.17.66.27,1,.46A23.8,23.8,0,0,0,409.63,67a6.72,6.72,0,0,0,4,.11c1.17-.27,2.49-1.12,3.48-.69,1.63.71,3.92,2.69,4.06,4.59.06.68,2.91.14,2.84-.76-.13-1.64-1.78-3.18-3-4.09a5.29,5.29,0,0,0-5.17-.91c-1.3.39-2.57,1.08-3.93.54a31.87,31.87,0,0,1-3.2-2,4.88,4.88,0,0,0-2.7-.57c-.61.05-2.15.28-2.31,1.06-.09.45.4.76.68,1,.1.09.39.43.5.46l.66-.45c.78-.27.91-.46.37-.57a5.61,5.61,0,0,0-1-.56c-2-1.27-3.67-1.84-6-1a18.84,18.84,0,0,0-2.65,1.44,1.73,1.73,0,0,1-1,.37c-.66,0-1.4-.76-1.92-1.12a6,6,0,0,0-5.85-.44c-1,.36-1.83.87-2.75,1.29-1.07.48-1.71.17-2.54-.64a5.64,5.64,0,0,0-2.5-1.82,5,5,0,0,0-2.78.26c-1.78.63-2.82,2.18-4.43,3-.71.37-1.55-.3-2.29-.74a5.81,5.81,0,0,0-3.08-1.07c-1.4,0-3.48.56-2.89,2.29a2.37,2.37,0,0,0,.23.68v.1c.91-.39,1-.63.4-.73a3.38,3.38,0,0,0-.72-.24,5.68,5.68,0,0,0-3.19,0c-2,.52-3.2,1.93-4.5,3.39-.55.63-1.17,1.46-2,1.53-1.37.11-2.57-.24-3.94.21a5.25,5.25,0,0,0-2.63,1.91c-.32.45-.59.93-.9,1.39-.14.2-.28.4-.44.59s-.48.38-.34.35a12.27,12.27,0,0,1-2.14-.23,6.16,6.16,0,0,0-2.08.37,5,5,0,0,0-2.33,1.81A18.74,18.74,0,0,1,338,79.53l.54-.16c-.28-.06-.57-.13-.85-.21a7.77,7.77,0,0,0-.95-.14,4.73,4.73,0,0,0-1.75.28,2.41,2.41,0,0,0-1.76,2.46c0,.92-.12,3.21-1.56,2.72-.59-.2-2.37.06-2.56.82-.74,3.12-1.33,6.28-2.07,9.4-.19.79,2.62.37,2.81-.44Z"/><path class="cls-18" d="M358.58,77.54c-10.89,4.07-15.37,7.83-20.86,18.08L400,74.9a55.39,55.39,0,0,0-13.38-1.57C375,73.62,369.47,73.46,358.58,77.54Z"/><path class="cls-15" d="M358,76.85c-4.6,1.74-9.14,3.79-12.92,7s-6.38,7.39-8.69,11.67c-.5.94,1,1.09,1.56.9l21.1-7,33.47-11.14,7.69-2.56c.63-.2,2-1.35.63-1.65a59.09,59.09,0,0,0-12.77-1.63c-3.56,0-7.15.11-10.71.3A65,65,0,0,0,358,76.85c-.46.18-1.1.75-.72,1.27s1.41.28,1.9.1A59.34,59.34,0,0,1,377,74.5c3.32-.17,6.66-.28,10-.29a56.26,56.26,0,0,1,12.12,1.53l.63-1.65-21.1,7L345.19,92.25,337.5,94.8l1.55.9c2.18-4,4.63-8,8.13-11s7.74-4.84,12-6.44c.46-.17,1.1-.75.72-1.27S358.48,76.67,358,76.85Z"/><path class="cls-18" d="M447.46,79.57l-.87-.44c-1.46-.82-2.56-3-1.21-4-3,1.17-5.09-4-8.32-4a18.39,18.39,0,0,0-2.7.6,4.23,4.23,0,0,1-4.66-4.25,10.25,10.25,0,0,1-7.77.75L400,74.9c9.57,2.15,19.29,5.86,28.49,7.14,4.43.61,8.94,1.37,12.88,3.49,2.87,1.53,6.55,2.41,9.49,4C449.73,86.23,448.63,82.89,447.46,79.57Z"/><path class="cls-15" d="M448.59,78.87c-.92-.43-3.49-2.28-2.07-3.51,1-.86-.72-1.17-1.34-1-.89.31-2.2-1.09-2.88-1.7a9.86,9.86,0,0,0-3.1-2.13,4.74,4.74,0,0,0-1.94-.27c-.95,0-1.79.5-2.7.59-1.89.19-3.46-1.9-3.45-3.63,0-.9-1.46-.67-2-.41a8.4,8.4,0,0,1-3.05.94,13.37,13.37,0,0,1-3.28-.38,3.47,3.47,0,0,0-1.57.22L416.67,69l-13.45,4.12-3.43,1c-.61.19-2,1.2-.68,1.5,8.9,2,17.51,5.26,26.51,6.82,4.32.75,8.71,1.13,12.8,2.85,1.87.8,3.63,1.76,5.54,2.48a48.5,48.5,0,0,1,5.76,2.44c.55.3,2.87-.1,2.54-1.07-1.11-3.35-2.21-6.69-3.38-10-.35-1-3.17-.19-2.84.76,1.17,3.32,2.27,6.66,3.38,10L452,88.89a46.26,46.26,0,0,0-5.76-2.44c-2-.75-3.8-1.76-5.74-2.56-4.07-1.68-8.38-2.15-12.67-2.87-9.16-1.51-17.91-4.85-26.95-6.89l-.68,1.49,19.21-5.87,2.75-.84-1.06.06a12.69,12.69,0,0,0,9.19-.94l-2-.41a4.79,4.79,0,0,0,3,4.5,5.55,5.55,0,0,0,2.93.36c1-.14,2-.79,3-.44,1.51.52,2.6,2,3.85,2.94a4.76,4.76,0,0,0,4.53.86l-1.33-1c-2.23,2,.16,4.46,2.1,5.38a2.26,2.26,0,0,0,2-.27C448.72,79.75,449.21,79.17,448.59,78.87Z"/><path class="cls-19" d="M393,120.61s29.8-2.86,49.9,2.17"/><path class="cls-16" d="M447.27,221.79a30.19,30.19,0,0,1-3.49,8.08c1.05.35.6,2-.24,2.72s-2,1.54-1.76,2.62c.08.38.33.71.4,1.09.22,1.2-1.25,1.92-2.43,2.22.79.63.1,1.91-.7,2.53s-1.83,1.41-1.56,2.39c.12.48.56.87.55,1.37,0,1-1.74,1-2.32,1.89-.33.5-.19,1.17-.34,1.75a1.94,1.94,0,0,1-3,1c-.25,2.11-1.18,4.82-3.3,4.69-1.31-.08-2.55-1.35-3.75-.83-.75.33-1.08,1.22-1.77,1.65-2.32,1.46-5.13-3.39-7.45-1.93-1.24.78-1.21,2.95-2.61,3.41s-2.48-1.11-3.86-1.27-3.05,1.32-4.38.61c-.58-.31-.9-.95-1.39-1.38-1.13-1-2.29.48-3.73.91-2.56.77-2.78-1.06-2.78-1.06-.73-1.8-1.73-1.68-3.44-.74a4.18,4.18,0,0,1-1.73.82c-1.58.06-2.3-2.55-3.88-2.42a5.23,5.23,0,0,0-1.58.72c-1.92.86-4.27-1.72-3.22-3.55a4.43,4.43,0,0,1-4.21-4.79,4,4,0,0,1-5-3.52c-2.64.7-5.39-2.44-4.35-5a3.16,3.16,0,0,1-4-2.94c0-1,.48-2.28-.35-2.85-.55-.38-1.29-.13-1.95-.15a2.53,2.53,0,0,1-2.11-3.48c-2.6.63-5-3-3.37-5.16-2.06.43-3.89-2.43-2.62-4.11-2.82-.11-4.7-3.9-3.09-6.21l32.27,33.72,8.37,3.89s29.73,3,35.36.47S447.27,221.79,447.27,221.79Z"/><path class="cls-15" d="M445.87,222a31.32,31.32,0,0,1-3.49,8.08.19.19,0,0,0,.06.25c1.88.91-1.14,3-1.67,3.77a1.84,1.84,0,0,0-.29,1.83c.31,1,.38,1.75-.86,2.1-.2.05-1.64.5-1.21.95,1,1.1-1,2.29-1.59,2.94a2.5,2.5,0,0,0-.76,1.26c-.11.68.37,1,.5,1.62.2,1-1.38,1.16-2,1.76a2.18,2.18,0,0,0-.53,1.34c-.05.34-.14.69-.18,1l-.2.31c.38-.1.4-.21.07-.34-.48-.32-2.65.06-2.74.74a8.67,8.67,0,0,1-.95,3.18,7.76,7.76,0,0,0-.5.67l-.22.19c.76-.1.92-.18.45-.25-.19-.19-.81-.28-1.09-.4a7.85,7.85,0,0,0-1-.38,4.74,4.74,0,0,0-3.41.55,2.82,2.82,0,0,0-1.22,1.07l-.11.13q-.4.38.51.18c0,.09-.72-.22-.79-.26-1.61-.73-2.87-2.22-4.76-2.22a5.33,5.33,0,0,0-2.85.81,5.49,5.49,0,0,0-1.68,2.39c-.07.14-.21.34-.27.49l-.2.27c1-.08,1.19-.2.49-.36a10.29,10.29,0,0,0-1.46-.79,4.94,4.94,0,0,0-3.43-.17,7.75,7.75,0,0,1-1.72.58c-.42-.07-.84-.7-1.09-1a2.72,2.72,0,0,0-3-.77,6.57,6.57,0,0,0-1.53.57c-.39.19-1,.72-1.43.71s-.76-.59-.95-1c-.9-2.09-2.9-1.81-4.74-1-.22.09-1.85.72-1.88,1l.72-.17a1.64,1.64,0,0,1-.46-.27,4.07,4.07,0,0,1-.57-.53,3.84,3.84,0,0,0-2.38-1.58,4.82,4.82,0,0,0-2,.32,5.24,5.24,0,0,0-.65.27l-.57.32c.36-.06.32-.13-.12-.22-1-.86-1.9-1.76-1.23-3.18.14-.28-.32-.34-.48-.35a4.16,4.16,0,0,1-3.71-4.57c0-.43-1.46-.1-1.54-.08-.77.2-1.82-.54-2.34-1a3.65,3.65,0,0,1-1.1-2.4c0-.34-1-.2-1.16-.17-1.06.23-2.22-.78-2.76-1.6a3.36,3.36,0,0,1-.44-3.05c.21-.59-1.38-.27-1.53-.22-1.06.31-2.28-1.44-2.44-2.26-.21-1,.45-2.2-.11-3.15-.69-1.15-2.07-.42-3.08-.73a2.37,2.37,0,0,1-1.29-3.06c.21-.49-1-.33-1.14-.31-1,.18-2-1.13-2.39-1.89a2.9,2.9,0,0,1,.16-3c.3-.45-1.11-.31-1.14-.3-.38,0-1.33-.89-1.6-1.46a2.33,2.33,0,0,1,.12-2.35c.18-.27-.37-.34-.49-.35-2.66-.22-3.91-3.77-2.6-5.85l-2.74.73,15.37,16,10.9,11.39,3.93,4.1a21.31,21.31,0,0,0,2,2.06,16.45,16.45,0,0,0,3.4,1.65l3.59,1.67a8.52,8.52,0,0,0,1.9.8c.92.17,1.9.18,2.82.26,2.34.2,4.67.39,7,.55,6,.42,12,.75,17.94.63,4-.09,8.54-.12,11.66-3,4-3.65,6.88-8.67,9.68-13.22,2.44-3.95,4.75-8,7-12.05.12-.24.25-.48.38-.71.25-.48-1-.33-1.15-.31-.5.08-1.38.29-1.65.79-1.55,2.9-3.17,5.76-4.83,8.59A116.18,116.18,0,0,1,431.52,245a16.26,16.26,0,0,1-3.85,3.72c.33-.19-.31.06.06,0l-.51.13c.27-.06-.3.06-.35.06-.24.05-.49.09-.73.12-1,.13-2.07.2-3.1.24a153.4,153.4,0,0,1-17.15-.44q-3.75-.24-7.49-.55c-1.35-.12-2.74-.34-4.09-.37a2.28,2.28,0,0,0-.26,0c.53,0,.42.13,0-.09-.94-.48-1.92-.89-2.88-1.34l-3.51-1.63a9.69,9.69,0,0,1-1.56-.74,9.92,9.92,0,0,1-1.31-1.36l-3.32-3.47L371.25,228.6l-10.79-11.27c-2.1-2.2-4.15-4.5-6.34-6.62l-.3-.32c-.52-.54-2.41.21-2.73.73-1.76,2.79.5,6.3,3.57,6.56l-.48-.35a2.8,2.8,0,0,0,.29,3.33,3.47,3.47,0,0,0,3.47,1.08l-1.14-.3a3.47,3.47,0,0,0,.38,4.16,4.1,4.1,0,0,0,4.14,1.31l-1.15-.3a2.77,2.77,0,0,0,1.32,3.51,4.21,4.21,0,0,0,2,.3c1.08,0,1.29.47,1.22,1.52-.1,1.49-.17,2.72,1.12,3.75a4.68,4.68,0,0,0,4.32.55l-1.52-.22c-1.21,3.43,2.4,5.92,5.49,5.27l-1.16-.17c.26,3.29,3.76,4.34,6.52,3.6l-1.54-.08a4.75,4.75,0,0,0,4.71,5l-.49-.35c-1.08,2.27,1.3,4.25,3.46,4.05a6,6,0,0,0,1.66-.4,7.54,7.54,0,0,0,.9-.45h-.51a1.41,1.41,0,0,1,.45.25c.83.58,1.29,1.58,2.26,2a4.43,4.43,0,0,0,3.41-.41c.38-.19,1.23-1,1.65-.94-.53-.08.26.64.25.62a4.12,4.12,0,0,1,.32.67c.75,1.76,2.69,1.56,4.31,1.09a9,9,0,0,0,1.92-.82c.08,0,.61-.32.61-.35l-.61.07a1.82,1.82,0,0,1,.58.45c.45.44.72,1,1.33,1.22a3.45,3.45,0,0,0,1.86.17,13.68,13.68,0,0,0,2.09-.55,1.89,1.89,0,0,1,1.77.31,4.57,4.57,0,0,0,3.42.72,3.89,3.89,0,0,0,2.63-1.63c.31-.48.49-1,.77-1.53l.14-.25c.4-.41.23-.48-.53-.23a5.42,5.42,0,0,1,.79.25c1.82.82,3.12,2.43,5.29,2.2a4.62,4.62,0,0,0,3.49-1.93c.46-.82-.19.64-.33,0a9,9,0,0,0,1.37.56,4.57,4.57,0,0,0,2.26.26c3-.39,4.29-2.69,4.66-5.48l-2.73.73c1.3.89,3.28.44,4.53-.34a2.36,2.36,0,0,0,1.22-1.72c.07-.46,0-1.08.34-1.45a4.58,4.58,0,0,1,1.1-.57c.52-.29,1.13-.68,1.16-1.33.07-1.15-1.08-1.62-.05-2.74.87-.94,3.08-2.27,1.69-3.73l-1.21.95c1.26-.35,3.56-1,3.73-2.63.11-1-.81-1.65-.05-2.67.48-.65,1.24-1,1.72-1.69a2.48,2.48,0,0,0,.52-1.8c-.05-.25-.42-.52-.44-.7-.06-.37.54-1.07.72-1.39a31.05,31.05,0,0,0,2.6-6.55C448.84,220.92,446.07,221.29,445.87,222Z"/><path class="cls-20" d="M344.14,158.94c2.95-2.89-.68-8.46,1.61-11.89a27.15,27.15,0,0,0,1.79-2.25c1.25-2.38-.92-5.44.12-7.93.46-1.11,1.52-1.92,1.89-3.07.71-2.2-1.35-4.44-1.1-6.73.28-2.58,3.38-4.74,2.41-7.15-.48-1.17-1.82-1.84-2.23-3-.72-2.08,1.64-4.8.07-6.34-.55-.54-1.42-.68-1.87-1.3-.91-1.24.63-2.75,1.23-4.17s.19-3.15.39-4.73,1.68-3.31,3.12-2.64c-.84-2.5.72-9.28,3.34-9,1.29.15,2.95.79,3.63-.32.49-.78,0-1.87.37-2.71,1-2.12,4.66,1.07,6.55-.35.51-.38.74-1,1.17-1.5,1-1.07,2.69-1,4.08-.56s2.8,1,4.23.79,2.65-2,1.77-3.16a11.32,11.32,0,0,0,4.73,1.88c1.7.13,3.61-.75,4.08-2.39.43,2.39,4.1,3.35,5.65,1.46.62-.75,1-1.87,2-2a2.19,2.19,0,0,1,1.23.35c1.7.94,4,6.18,4.88,7.88l-.71-10.58-29.52-4.32L344.67,87.64l-9.24,30.71,9.93,42.56"/><path class="cls-15" d="M345.43,158.87c3-3.21-.25-7.76,1.36-11.38.46-1,1.39-1.67,2-2.61a4.76,4.76,0,0,0,.53-3.14c-.12-1.08-.43-2.13-.5-3.21a5.1,5.1,0,0,1,1.35-3.54c1.53-2.12.7-3.88,0-6.15-.75-2.47.48-4,1.61-6.06a4.41,4.41,0,0,0,.68-2.52,4.85,4.85,0,0,0-1.64-2.61c-1.72-1.89-.23-3.72-.15-5.86a2.37,2.37,0,0,0-1.45-2.3c-.7-.39-1.33-.76-1.22-1.69a4.69,4.69,0,0,1,.75-1.64,7.19,7.19,0,0,0,1.09-4,10.5,10.5,0,0,1,.08-2.38,3.69,3.69,0,0,1,.31-.84,2.72,2.72,0,0,1,.37-.58c.46-.39.4-.41-.17-.07.44.16,2.81-.19,2.57-1a10.11,10.11,0,0,1,.9-6.78c.16-.33.81-1,.85-1.28,0-.14.77-.25-.32,0-.8.18-.33.06-.09.14a7.13,7.13,0,0,0,1.21.21,5,5,0,0,0,4.11-1,2.31,2.31,0,0,0,.53-1.72c0-.4.09-.85.08-1.23,0-.06.2-.35.19-.37.15.31-1.3,0-.64.36a7.86,7.86,0,0,0,1.7.44,7.6,7.6,0,0,0,1.84.29,5,5,0,0,0,3.54-1.21c.54-.53.75-1.48,1.57-1.5a10,10,0,0,1,2.77.75,6.93,6.93,0,0,0,5.27-.34c1.22-.65,2.49-2.11,1.63-3.52l-2.75.89c2.1,1.22,4.28,2.31,6.78,1.93,1.92-.28,4.08-1.23,4.76-3.18l-2.82.61c.91,3.84,6.77,3.21,8.66.61.12-.16.22-.33.34-.5.58-.81,0-.11,0-.15.18.23.54.41.75.64a11.94,11.94,0,0,1,1.58,2.33c.89,1.56,1.62,3.2,2.46,4.78.37.7,2.89,0,2.84-.76L400,77.16c0-.19-.41-.24-.51-.25L371,72.75a4.56,4.56,0,0,0-3.27.5l-5.3,3.13-15.69,9.28L344.51,87a4.21,4.21,0,0,0-1.19.8,13.09,13.09,0,0,0-1,3.34l-5.23,17.37-2.28,7.56a10.43,10.43,0,0,0-.76,2.71,16.43,16.43,0,0,0,.73,3.14L336.4,129l7.37,31.61.17.7c.16.71,3,0,2.83-.76l-7.48-32.1-1.8-7.68-.5-2.14a4.87,4.87,0,0,1-.12-.52c0-.25,0,.12,0,0a8.94,8.94,0,0,1,.47-1.58l1-3.3,2.88-9.59,4.87-16.19-.57.49,21.32-12.6,3.07-1.82-1.74.38L394,77.63l3.73.54-.51-.25.7,10.58,2.84-.76c-.79-1.49-1.48-3-2.3-4.5s-1.61-3-3.06-3.69a4.15,4.15,0,0,0-5,1.73c-.16.23-.41.51-.56.76s-.46.27-.07.19a2.2,2.2,0,0,1-1.16-.26A2.77,2.77,0,0,1,386.94,80c-.18-.78-2.63,0-2.82.61-1,2.92-4.31.81-6.07-.22-.43-.25-3.15.23-2.75.88a1.55,1.55,0,0,1-.19,2c-.69.56-2.26-.29-3-.52a7.92,7.92,0,0,0-4.5-.11,5.25,5.25,0,0,0-1.9,1,4.17,4.17,0,0,0-.63.69c-.1.12-.18.27-.27.4l-.33.46c.54,0,.67-.07.41-.07a7.72,7.72,0,0,0-1.7-.38,10.48,10.48,0,0,0-1.75-.37,4.58,4.58,0,0,0-3.38.93,2.06,2.06,0,0,0-.68,1.4c0,.38,0,.76,0,1.14l0,.26c-.12.26,0,.36.26.3s.39,0,.12,0l-.34-.05a6.64,6.64,0,0,0-3.8.14,4.6,4.6,0,0,0-2.24,2.07,10.62,10.62,0,0,0-1.16,7.52l2.58-1a4.58,4.58,0,0,0-5.53,2.78c-.42,1.25-.13,2.6-.21,3.89-.11,1.53-1,2.49-1.59,3.83a2,2,0,0,0,.57,2.57c1.09.79,2,1.07,1.82,2.65-.31,2.24-1.4,3.9.36,5.83.78.86,1.62,1.65,1.46,2.91a8.65,8.65,0,0,1-1.48,3.07,6.75,6.75,0,0,0-1.1,2.81,9.57,9.57,0,0,0,.84,3.75,4.11,4.11,0,0,1,0,3.48c-.66,1.18-1.66,2-1.85,3.42-.32,2.33,1.37,5,0,7.15-.7,1.1-1.76,1.83-2.18,3.12a8.85,8.85,0,0,0-.24,3.4c.18,2.34,1.08,5.31-.74,7.23-.45.48.4.58.7.57a2.89,2.89,0,0,0,1.89-.7Z"/><path class="cls-16" d="M343.64,178.15l2.51.28a1.18,1.18,0,0,0,.77-.08c.56-.34.25-1.17.09-1.8-.39-1.47.44-2.94,1.09-4.32s1.09-3.14.11-4.29c-.52-.61-1.42-1-1.5-1.81-.12-1,1.18-1.57,1.88-2.34a2.54,2.54,0,0,0-1.12-3.94s1.84-2,1.21-5.95-1.78-8.2-1.78-8.2L341,142.35Z"/><path class="cls-15" d="M342.74,178.78c1.51.17,6.19,1,5.9-1.74a8.45,8.45,0,0,1-.27-2,7.23,7.23,0,0,1,.77-2.28,8.3,8.3,0,0,0,1.06-3.48c0-1.31-.76-1.82-1.58-2.68-1.2-1.26.34-1.91,1.15-2.77a2.8,2.8,0,0,0-1.15-4.57l.14.52a6.91,6.91,0,0,0,1.46-4.45c.07-3.05-1-6.3-1.7-9.24a1.65,1.65,0,0,0-.44-1,11,11,0,0,0-1.83-1l-3.89-2.22c-.55-.31-2.82,0-2.75.89l2.29,31.36.32,4.44c0,.63,2.9.1,2.84-.76l-2.29-31.37-.33-4.43-2.74.88,3.47,2c.66.38,1.32.8,2,1.14.5.25.31.09.47.68a51.41,51.41,0,0,1,1.72,8.48,6.78,6.78,0,0,1-1.18,4.79c-.21.22-.14.42.14.52a2.23,2.23,0,0,1,1.38,1.89c.12,1.07-.46,1.59-1.21,2.22-1.24,1-1.6,2.08-.29,3.26,1.65,1.51,1.17,3.2.31,5a8.77,8.77,0,0,0-1,2.89c-.06.64.6,2.24.11,2.69l1.15-.59c.67-.18-.53-.12-.77-.15l-1.46-.17a2.93,2.93,0,0,0-2,.54C342.15,178.4,342.12,178.71,342.74,178.78Z"/><path class="cls-20" d="M442.39,84.26c-.35.82.77,1.49,1.65,1.59s2,.29,2.19,1.17c.09.54-.31,1.08-.22,1.62.26,1.66,3.48.28,4.35,1.72.65,1.08-.72,2.8.24,3.62.46.38,1.14.24,1.74.29a2.56,2.56,0,0,1,2.21,1.9c.19.75,0,1.6.44,2.25s1.59.91,2.44,1.31c2.23,1,2.72,4,2.75,6.42s0,5.28,1.89,6.89c1.74-1.47-.11-3-1.47-4.82a12.31,12.31,0,0,1-1.28-1.62,1.54,1.54,0,0,1,.19-1.89c.26-.21.64-.31.8-.61.45-.85-1.19-1.08-1.95-1.67-1-.74-.37-2.28.37-3.24s1.62-2.22,1-3.26-2-1-2.53-1.9.2-2.38-.07-3.56c-.36-1.57-2.33-2-3.94-2.2a2.51,2.51,0,0,0-1.07-3.84c-.6-.2-1.34-.19-1.73-.69-.59-.74,0-2-.67-2.67s-1.63,0-2.27-.52c-1-.75.23-2.48-.33-3.61-.74-1.5-4-.94-3.86-2.6"/><path class="cls-15" d="M441,84.44c-.33,1.33,1.11,2,2.19,2.18.69.13,1.63.09,1.61,1,0,.64-.38,1.15,0,1.78.48.92,1.78.94,2.67,1,.45,0,1.08,0,1.43.29s.22,1.22.11,1.78c-.24,1.27,0,2.29,1.43,2.55.88.16,1.63-.08,2.3.67s.46,1.56.65,2.43c.36,1.65,1.86,1.7,3.12,2.38a4.88,4.88,0,0,1,2.1,3.58c.6,3.21-.45,7,2.21,9.54.6.56,1.94.17,2.46-.33,1.22-1.18,1.16-2.31.23-3.67-.46-.67-1-1.3-1.53-1.94s-1.64-1.54-1.38-2.39c.18-.63,1.05-.74,1.23-1.44a1,1,0,0,0-.44-1.09c-.48-.4-1.16-.46-1.63-.85-.7-.59-.33-1.57.07-2.24.72-1.2,2.17-2.58,1.38-4.1-.61-1.18-2.54-1.16-2.76-2.55s.72-2.81-.48-4.07a6.29,6.29,0,0,0-3.85-1.43l.46.8a3,3,0,0,0-.87-4.37,8.56,8.56,0,0,0-1.46-.47c-.63-.24-.64-.69-.67-1.31-.05-1.05-.25-1.77-1.37-2.06-.42-.1-1.3.06-1.58-.28s0-1,0-1.41a2.63,2.63,0,0,0-.39-2.36,4.12,4.12,0,0,0-1.89-.94c-.47-.14-1.64-.27-1.62-.94,0-1.17-2.82-.58-2.84.36,0,1.56,1.54,1.72,2.73,2.12.86.29,1.33.67,1.25,1.65-.06.82-.48,1.76.05,2.51.65,1,1.88.37,2.55,1s0,1.88.76,2.62,1.79.47,2.47,1.12a2.11,2.11,0,0,1,.22,2.72c-.27.37.06.76.46.8,1.14.13,2.78.31,3.29,1.52s-.6,2.76.27,4c.67,1,2.67,1.12,2.63,2.51s-1.64,2.46-2,3.82a2.11,2.11,0,0,0,1.39,2.6c.23.11,1,.36,1,.6s-.66.48-.74.58a1.82,1.82,0,0,0-.42.66c-.82,2.48,5.15,5.55,3.17,7.46l2.46-.32c-2.33-2.19-1.55-5.68-1.91-8.53a7.61,7.61,0,0,0-1.32-3.63c-.88-1.15-2.06-1.27-3.23-1.92-.81-.45-.78-1.23-.87-2a3.13,3.13,0,0,0-.87-1.92,3.47,3.47,0,0,0-1.81-.91c-.73-.14-1.73.15-1.7-.88s.69-2.19-.22-3.1c-.74-.74-2-.72-2.95-.77-.61,0-1.08,0-1.05-.74s.42-1.29-.07-2a2.84,2.84,0,0,0-1.71-.88c-.6-.13-2.11-.15-1.87-1.12s-2.6-.61-2.83.36Z"/><path class="cls-21" d="M370,154.69l1.76,5.61c1,4.34,5.1,12.87,6.56,15.24,2.05,3.32,25.4,5.24,30.05,2.75s7.53-15.52,8.83-18.52l9.34.78c.74,3.95,3.37,16.47,5.11,18.2s12.47,1.73,13.68,1.73c1,0,2.41,0,3.94-.1,4.06-.17,9-.7,10.55-2.13,2.3-2.11,5-10.37,7.26-18.19l.38-1.22c.08-.3.18-.5.18-.59h0l.42-1.41c-13.32-6.68-31-6.14-41.94,1.28l.08.14-9.11-.8c-10.14-7-27.87-11.17-40.73-6.69h0l-35.86,8.87-.2,3.43Zm62.78,22.82c-1.09-1.08-3.2-9.86-4.61-16.68,9.48-6.26,25.43-6.72,37.35-1.42v.17c-1.23,4.19-4.52,15.34-6.78,17.42-2.68,2.45-24.05,2.21-26,.54Zm-51.67-2.82c-3.62-5.13-6.5-13.21-8.31-20.05,11.46-4.73,32.19-1.24,42.11,5.41-1.74,5.44-4,14.95-7.34,16.73-4.8,2.57-25.18,0-26.46-2.09Z"/><path class="cls-5" d="M477.8,556.83l-34.33,31.76s2,.26,4.87.62c5.48-1.05,11.06-.74,16.6-1,5.24-.24,10.45-.91,15.68-1.1a23.16,23.16,0,0,1,9.51-2.07,2.51,2.51,0,0,0,2.82-2.27C493.67,578.1,477.8,556.83,477.8,556.83Z"/><path class="cls-5" d="M231.37,509.18c4.47-7,12.38-1.92,17.31-8.53,5.35-7.2,16.64-6.66,23.17-12.57,5.14-4.65,2.35-11.58,8.15-15.2l4.08-59.29,8.8-28.81s-1.62-31-13.28-56.56S262.42,270,262.42,270s-36.14,5.27-44.75,51.95c-4.09,22.2-5.69,94.16-5.69,94.16s-5.56,70.31-3,84.3c1.94,10.81,5.6,31.91,19.93,42.22"/><path class="cls-5" d="M425.79,566.19l-79.64-16.48-44.67-33.17c-7.28-1.8-5.16,3.66-12.63,3.27a139.05,139.05,0,0,0-24.39,1c-7.79,1,6.22-36.16-1.46-34.55-7.93,1.66-23.38,8.5-30.92,11.47-1,.38-16.48,10.75-17.43,11.16,1.23,4.51,4.43,21.66,7,26.89,15.35,31.45,111.75,48.29,111.75,48.29l75.11,15.2Z"/><path class="cls-13" d="M383.76,391.39l.18,0c0,.23.13.47-.06.68Z"/><path class="cls-13" d="M395.61,457.5a.53.53,0,0,1-.17.08l-.08-.44Z"/><path class="cls-22" d="M437.64,382l-.25,0,.24-.13A.14.14,0,0,1,437.64,382Z"/><path class="cls-22" d="M403,388l.22-.17.08.13Z"/><path class="cls-22" d="M436.9,382.06l-.33.05A.22.22,0,0,1,436.9,382.06Z"/><path class="cls-22" d="M384.52,391.28a.18.18,0,0,1,.27,0Z"/><path class="cls-1" d="M733.75,940l.22-.17c.42-.33.18-1.25-.54-2L729.17,933c-.71-.8-1.64-1.19-2.06-.87l-.22.17c-.43.33-.18,1.25.53,2.05l4.26,4.75C732.4,939.9,733.33,940.28,733.75,940Z"/><path class="cls-1" d="M726.77,942.66l.38-.29c.38-.29.16-1.12-.48-1.84l-3-3.39c-.65-.72-1.48-1.07-1.86-.78l-.38.29c-.38.3-.16,1.12.48,1.84l3,3.39C725.56,942.6,726.39,943,726.77,942.66Z"/><path class="cls-1" d="M721,945.82l.44-.35c.44-.34.27-1.21-.37-1.93l-3-3.38c-.65-.72-1.53-1-2-.68l-.44.35c-.44.34-.27,1.21.37,1.93l3,3.38C719.67,945.86,720.55,946.16,721,945.82Z"/><path class="cls-23" d="M418.41,205.16c-8.71,0-22.84-1-22.84-1s2.59,21,22.8,20.91,22.88-21,22.88-21S427.13,205.13,418.41,205.16Z"/><path class="cls-24" d="M418.5,205.16c-4.15,0-20.85-.64-20.85-.64s5.46,12.87,20.45,12.83c16.25,0,21.08-12.82,21.08-12.82Z"/><path class="cls-25" d="M418.68,205.78c-4.14,0-16.76-.66-16.76-.66s4.56,4.52,17,4.49,16.36-4.45,16.36-4.45Z"/><path class="cls-23" d="M442.16,202.79c-.44-.1-2.85.7-4.91.53-3.43-.28-5.57-1.18-8.06-1.36-4.24-.32-6.93,1.36-8.78,1.37s-4.54-1.66-8.78-1.32c-2.49.2-8.64,1.11-12.07,1.42-2.06.18-4.47-.61-4.91-.5-.61.15.59,4.63,23.77,4.57S442.78,202.94,442.16,202.79Z"/><path class="cls-15" d="M393,202.88c-1.18,1-2.46,2.07-2.63,3.58a6.13,6.13,0,0,0,.12,1.65l.43,2.52a1,1,0,0,0,.16.48,1,1,0,0,0,.49.25,4,4,0,0,0,1.74.26,1.4,1.4,0,0,0,1.23-1.11,1.92,1.92,0,0,1,.07-.72c.21-.42.82-.34,1.28-.44,1.16-.25,1.47-1.72,2-2.77a6.13,6.13,0,0,1,3.8-2.77,12.09,12.09,0,0,0,2.32-.75,2.36,2.36,0,0,0,1.35-1.9"/><path class="cls-15" d="M444,204.59c1.09,1.07,2.25,2.29,2.28,3.81A6,6,0,0,1,446,210l-.66,2.47a.94.94,0,0,1-.22.46,1,1,0,0,1-.5.21,4,4,0,0,1-1.76.09,1.38,1.38,0,0,1-1.12-1.22,1.94,1.94,0,0,0,0-.72c-.17-.44-.78-.42-1.23-.56-1.14-.36-1.3-1.85-1.75-2.95a6.14,6.14,0,0,0-3.53-3.11,11.75,11.75,0,0,1-2.24-1,2.33,2.33,0,0,1-1.16-2"/><path class="cls-15" d="M395.21,201.24c.84-1.06,1.68-.64,2.86-.88a3,3,0,0,0,1.49-.74c.38-.36.57-1,1-1.28.21-.16-.06-.16.31-.05a7.68,7.68,0,0,1,.79.43,3.67,3.67,0,0,0,1.42.39,4.28,4.28,0,0,0,3-1.14s.46-.34,0-.12c-.29,0-.29,0,0,.16l.21.18a2.85,2.85,0,0,0,1.54.55,4.28,4.28,0,0,0,3.14-1.43c.1-.1.52-.64.67-.66s.4.24.51.29a4.71,4.71,0,0,0,1.56.39,3.17,3.17,0,0,0,2.87-1.37c.42-.59-.36-1.05-.84-1.12a2,2,0,0,0-1.85.85c.39-.57.84-.22.08-.52-.26-.1-.52-.23-.79-.31a3.86,3.86,0,0,0-1.88-.1,4.11,4.11,0,0,0-1.52.69c-.31.23-1.17.83-1.29,1.2-.22.14-.14.18.22.11l-.22-.16a2.19,2.19,0,0,0-.67-.45,2.77,2.77,0,0,0-1.42-.25,4.29,4.29,0,0,0-1.52.48c-.31.17-.85.72-1.21.76.36,0-.06-.13-.22-.21s-.43-.25-.66-.35a3.59,3.59,0,0,0-1.64-.38,4.45,4.45,0,0,0-3.6,2.23l-.14.25c.37-.17.41-.25.14-.23-.36-.21-1.42.07-1.8.17a5.47,5.47,0,0,0-2.89,1.86c-1.11,1.38,1.59,1.71,2.36.76Z"/><path class="cls-15" d="M427.12,198.11c-.9.33-.39,0-.28.14s.33.18.44.25c.34.2.66.43,1,.62a5.12,5.12,0,0,0,1.13.48,9.25,9.25,0,0,0,1.49.1c.56.05,0-.18.38.12a3.54,3.54,0,0,1,.38.47,2.29,2.29,0,0,0,1.3.64,4.83,4.83,0,0,0,3-.79c.52-.33-.31.06-.3,0,0,.06.19.28.23.36a5.88,5.88,0,0,0,.63,1,3.31,3.31,0,0,0,2.75.78c.23,0,.64-.15.86,0s.25.58.34.86a1.49,1.49,0,0,0,.91.89,2,2,0,0,0,.67.17c.39,0,0,.15,0-.11.21,1.21,3.06.51,2.84-.76a1.18,1.18,0,0,0-.88-.88c-.18-.06-.64,0-.75-.15s0,.05,0-.25a2.09,2.09,0,0,0-2-1.7,7.68,7.68,0,0,0-1.59,0c-.52,0-.63-.06-.9-.51-.5-.87-.9-1.53-2-1.63a4,4,0,0,0-2,.47c-.16.07-.64.21-.72.34l-.11.05c.31.06.35,0,.11-.2-.55-1.21-1.88-1-2.92-1-.76-.07-1.4-.74-2.06-1.08a3.7,3.7,0,0,0-3.15-.11c-.51.19-1.07.84-.69,1.38s1.38.35,1.91.16Z"/><path class="cls-15" d="M418.19,198.11l-1,3.89a1.42,1.42,0,0,1-1.27,1.08c-4.2.36-20.21,1.69-24,1.43-.09,0,.25,1.59.16,1.57l-.88-.11c-1.4-.35-.12-5,1.25-5.5a79.48,79.48,0,0,1,10.19-2.71c2.86-.51,10.79-1.66,14.2-1.44A1.44,1.44,0,0,1,418.19,198.11Z"/><path class="cls-15" d="M423.1,198.8l-.07,3.64a1.42,1.42,0,0,0,1.08,1.21c3.86.81,16.5,3.48,20,3.64a1,1,0,0,0,.24,0l1.13-.17c1.32-.2.74-3.17-.49-3.77a61.83,61.83,0,0,0-8.21-3.53c-2.61-.82-9.19-2.49-12.36-2.64A1.36,1.36,0,0,0,423.1,198.8Z"/><path class="cls-26" d="M277.23,297.39a8.92,8.92,0,0,1,3.31,1.84,26,26,0,0,1,7,8.9c3.34,6.51,5,13.83,5.91,21,1.27,9.72,1.11,19.53.76,29.3-.63,18-1.94,36-3.4,53.91q-2.08,25.65-4.67,51.24-.88,8.82-1.8,17.62c-.3,2.84-.75,5.7-.92,8.55,0,.12,0,.24,0,.36s.05.31.26.4c8,3.41,15.94,7.19,23.79,11q12.6,6.17,24.94,12.8c5.65,3,11.17,6.31,16.91,9.17,9.52,4.74,19.27,9,29,13.33q16.53,7.3,33.16,14.38l12.06,5.14,4,1.67a9.21,9.21,0,0,0,2.08.88,1.13,1.13,0,0,1,.28.12l-.16-.57-5.19,7.75c-.62.93,2.21.56,2.66-.1l5.19-7.75c.17-.26.16-.44-.15-.57q-7.53-3.17-15-6.38-16.15-6.88-32.23-13.93c-10.23-4.49-20.47-9-30.52-13.86-4.51-2.18-8.84-4.61-13.22-7q-12.84-7.06-26-13.62-9.58-4.78-19.31-9.27-3.11-1.43-6.22-2.82c-1.06-.47-2.14-1.06-3.24-1.42-.15-.05-.29-.12-.43-.18l.26.39q1.22-10.9,2.29-21.83,2.54-25,4.66-50c1.53-18.22,2.91-36.46,3.7-54.73A244.44,244.44,0,0,0,297,335c-.6-8.22-1.9-16.6-5-24.27a32.17,32.17,0,0,0-7.24-11.26,13.34,13.34,0,0,0-4.9-3.21l-.24-.08a2.91,2.91,0,0,0-2,.33c-.27.15-1,.74-.31.91Z"/><path class="cls-26" d="M487.07,482.11c1.07-14.8,1.82-29.62,2.54-44.44q1.26-25.92,2.18-51.85c.26-7.56.5-15.12.63-22.68,0-.73-2.88-.25-2.9.78-.25,14.83-.85,29.66-1.46,44.48q-1.08,25.91-2.48,51.79c-.42,7.45-.85,14.89-1.39,22.33-.08,1,2.82.45,2.88-.41Z"/><path class="cls-26" d="M285.67,489.88a35.09,35.09,0,0,0-32.46,10.57c-.45.5.39.6.72.6a2.86,2.86,0,0,0,1.93-.73,29.33,29.33,0,0,1,27.45-9.22,3.22,3.22,0,0,0,2-.34c.24-.13,1-.74.32-.88Z"/><path class="cls-26" d="M235.82,555.87c6.39,4,13.6,6.65,20.7,9.06,9.52,3.24,19.24,5.9,29,8.36,21.48,5.43,43.21,9.83,64.88,14.41,9.85,2.07,19.7,4.14,29.46,6.58a2.47,2.47,0,0,0,2-.55c.45-.43.34-.85-.26-1-18.9-4.73-38.09-8.33-57.13-12.43-21-4.5-42.05-9.07-62.47-15.69-8.17-2.65-16.57-5.55-23.9-10.12-.78-.48-3.46.67-2.31,1.38Z"/><path class="cls-27" d="M495.89,590.19c21.94-2.14,48-1.58,65.58,13.72,5.69,5,9.86,11.27,13.23,18a39.81,39.81,0,0,1,4.49,17.21,116.89,116.89,0,0,1-1.14,16.82c-1.45,11.67-3.5,23.28-5.67,34.84-2,10.48-4,21-6.82,31.29a953.28,953.28,0,0,0-21.93,99.53c-5.52,33.18-9.58,66.57-13.6,100q-.79,6.57-1.58,13.14c-.17,1.39,2.78,1,2.92-.26,4.13-34.31,8.13-68.65,13.52-102.79a975.43,975.43,0,0,1,21-100.25c3.07-11.48,5.94-22.88,8.23-34.54,2.38-12.13,4.55-24.32,6.27-36.56,1.52-10.81,3.43-22.69-.22-33.24a60.27,60.27,0,0,0-13.25-21.73C552,590,529.13,586.84,508.74,587.41c-4.19.12-8.38.41-12.55.82-1.56.15-2.29,2.15-.3,2Z"/><path class="cls-27" d="M458.16,721.38a42.26,42.26,0,0,1,18.31-30.89.88.88,0,0,0,.17-1.47,1.92,1.92,0,0,0-2.08.18,44.54,44.54,0,0,0-19.34,32.41c-.14,1.47,2.81,1.06,2.94-.23Z"/><path class="cls-26" d="M556.89,436.68c-6.33.48-11.37,5.31-14.89,10.21-3.4,4.74-6.38,10.43-7.26,16.26-.21,1.42,2.75,1,2.93-.24.79-5.23,3.39-10.37,6.36-14.68s7.16-9.09,12.58-9.5c1.61-.13,2.26-2.21.28-2.05Z"/><path class="cls-1" d="M729.64,934.56l.19-.15c.38-.29.16-1.12-.48-1.84l-3.83-4.27c-.64-.72-1.48-1.07-1.86-.78l-.2.16c-.37.29-.16,1.12.49,1.83l3.82,4.27C728.42,934.5,729.26,934.85,729.64,934.56Z"/><path class="cls-13" d="M857.55,525.21l.16,0,0-.4Z"/><path class="cls-13" d="M773,451.7l-.15.08-.1-.41Z"/><path class="cls-28" d="M929.09,376.37c-7.69,4.23-15.59,16.19-21,29.09l-16.39,48.2c.11.15-15.07,39.18-15.13,39.37,0,0-.58.59,3.5,15.67,2.75,10.12,20.51,21.94,20.41,32.67,27.82-3,36.48-50.43,41.34-64.07l1.74,5.22c.73-12.4.94-24.83.75-37.26-.4-26.39,17.89-60.36,15.63-86.64Z"/><path class="cls-2" d="M799,485.8l-17.29-8.65s-15.07,8.76-25.06,8.35a74.49,74.49,0,0,1-20.88-4.69L713,480.3s-10.16,5.41-11.9,2.42,1.59-6,4.82-8.92,58.16-26.7,58.16-26.7a100.63,100.63,0,0,0-17-5.51c-9-2-10.17-8-7.53-12.54s16-.61,19.52,3.3,15.69.22,24.42,3.52,14.13,14.86,14.13,14.86c3.26,1.75,11.91,5.57,11.91,5.57C809.66,457.05,799,485.8,799,485.8Z"/><path class="cls-3" d="M724.94,475.94a6.22,6.22,0,0,1,1.94-3.64c2.61-2.48,7.27-4,12.28-4.21a39.65,39.65,0,0,1,12.42,1.8,17.28,17.28,0,0,1,4.8,1.81,20.93,20.93,0,0,1-5-.85,51.14,51.14,0,0,0-12.18-1.38c-4.75.18-9.21,1.55-11.62,3.56a6.32,6.32,0,0,0-2,3c-.26.84-.28,1.31-.33,1.37S724.86,476.93,724.94,475.94Z"/><path class="cls-3" d="M750,463.51c4.5-1.74,8.24-2.87,8.35-2.52s-3.44,2.06-7.93,3.79-8.22,2.87-8.34,2.51S745.47,465.25,750,463.51Z"/><path class="cls-3" d="M763.35,460.7c-1.8,4.13-1.59,7.69-1.92,7.86s-1.24-3.77.69-8.33,5.51-6.78,5.63-6.46S765.16,456.57,763.35,460.7Z"/><path class="cls-28" d="M889.45,485.24l-85.76-34.33s-.38,23.49-17.67,30.91c0,0,83.42,79.9,122.09,57.48Z"/><path class="cls-2" d="M845.22,924.68s-43.45,31.28-60.74,45.8l.14,2.08s3.77,12.52,13.18,12.32,63.57-30.47,63.57-30.47l9.16-26.54Z"/><path class="cls-29" d="M753.43,997.52s-3.52-5.72,1.1-8.41,28.84-19.54,31.59-19.49c.27,1.87,3.12,3.91,9.08,4.64s12.63,1.82,26.71-3.3c10.55-3.83,32.33-11.23,41.23-18.46,3-2.42,6.65-9.51,6.7-10.47,13.7,10.92,12.57,25.09,7.91,29.3s-35.24,11.54-35.24,11.54l-26.32,10.9-25.66,5.44-10.92,1.56-13.37.26Z"/><path class="cls-30" d="M878.87,969.81c-3.18,1.69-13.68,5.25-22.91,7-24.76,4.59-32.57,9.06-40.56,12.94a107,107,0,0,1-14.13,6c-28.19,9.58-46.9,2.09-47.57,1.77a2.8,2.8,0,0,0-.54,1.51,23.67,23.67,0,0,0,6.66,2.87c8.8,2.24,21.21,4.43,43.12-2.54,6.21-2,10-3,13.95-5,6-2.91,12.14-5.91,25.94-9.2l.65,4.13S870,985.87,881,978.89C880.82,972.42,878.87,969.81,878.87,969.81Z"/><path class="cls-30" d="M880.68,975.16c-15.14,6.59-32.31,9.53-37.77,10.45l.57,3.63S870,985.87,881,978.89A28.44,28.44,0,0,0,880.68,975.16Z"/><path class="cls-2" d="M920.88,639.11s-90.37,6.86-110.44,9.81c-29.41,4.34-42.74,13.5-45.29,30.91-5.33,36.25,79.15,252.6,79.15,252.6l29.33-3L839.38,719.46l113.81,7.24Z"/><path class="cls-2" d="M923,669.17s-106.6-7.39-128.62,5.1-15.83,30.85-11.92,51.84,82.08,219.82,82.08,219.82l28.24-6s-12.63-146.24-18.16-168.13S857.77,700,857.77,700s88.7,2.26,105.24.19S923,669.17,923,669.17Z"/><path class="cls-3" d="M823.79,696.47a17.73,17.73,0,0,1,3.9,2.84,87.37,87.37,0,0,1,15.48,17,15.63,15.63,0,0,1,2.38,4.08c-.29.19-4.42-5.75-10.45-12.35S823.55,696.73,823.79,696.47Z"/><path class="cls-31" d="M1071.21,614.8c-6,1.59-7.38-.89-13.32-2.07-5.32-1.07-11.82,3.34-16.87,1.38s-6.94-.87-11.91-3.1c-10.2-4.58-20.81-16.59-30.3-22.63-17.67-11.24-21.64,11.92-34.1-5.78-3.7,6.83-17.42.81-24.56,0l-57.38,9.33s-98.84,14.14-104.64,24.26l4-.93S806,620,819.38,654c11,28.06,31,80.19,31,80.19H963.32c28.31,8.55,82-8.14,103.65-32.07,15.83-21.55,18.26-77.6,19.22-84.16C1082.17,620,1075.44,613.69,1071.21,614.8Z"/><path class="cls-2" d="M858.45,943.68l-40.11,33.11c-2.68,3.33,46.47,18.66,82-28L893,938.09Z"/><path class="cls-29" d="M785,1005s-3.75-5.61.75-8.45,28-20.45,30.74-20.49c.35,1.86,3.28,3.81,9.27,4.36s12.68,1.41,26.53-4.16c10.38-4.16,31.83-12.25,40.41-19.77,2.87-2.51,6.26-9.71,6.27-10.68,14.12,10.49,13.59,24.69,9.1,29s-34.72,12.66-34.72,12.66l-25.83,11.73-25.4,6.26-10.85,1.9-13.33.69Z"/><path class="cls-30" d="M909.14,973.32c-3.1,1.79-13.45,5.68-22.59,7.67-24.54,5.38-32.16,10.09-40,14.23a105.52,105.52,0,0,1-13.86,6.44c-27.75,10.47-46.76,3.58-47.43,3.28a2.74,2.74,0,0,0-.48,1.52,23.65,23.65,0,0,0,6.77,2.66c8.88,2,21.36,3.77,42.95-3.9,6.12-2.17,9.82-3.37,13.73-5.44,5.86-3.1,11.89-6.29,25.53-10l.82,4.11s26.36-4.22,37.08-11.54C911.19,975.87,909.14,973.32,909.14,973.32Z"/><path class="cls-30" d="M911.17,978.61c-14.85,7.07-31.88,10.55-37.29,11.65l.72,3.61s26.36-4.22,37.08-11.54A27.68,27.68,0,0,0,911.17,978.61Z"/><path class="cls-2" d="M959,308.11s-1.92,43.39-1.91,47.77l-.87,15.48-1.87,1.54c12.12,2.6,24.27,12.82,44.9,2.24L1020,352.65s-5.33-7.33-6.42-10.88c-6.23-20.16,2.34-45.22,2.34-45.22"/><path class="cls-3" d="M994.67,332.62s-3.94,14.8-26.87,21.07c0,0-6.66,1.72-10.61.47l.2-5.92Z"/><path class="cls-32" d="M918.91,308.68c7.86-6.26,8.87-16.83,7.37-26.12-1.44-8.89,4.61-23-6.35-21.95-.21,0,3.54-7.87.34-7,1.71-5.05-5.51-4.19-6.82-9.7-.26-1.12-2.38-10.95,4.68-12,23.68-37,58.36-31.26,77.72-29.66,38,3.13,56.45,4.37,50.42,64.55-4,40.4-41.09,53.33-79.2,54.13-16.28.34-35.55,2-48.49-12Z"/><path class="cls-32" d="M991.82,176.53c-9,4.84-12.82,13.45-12.84,23.31,2,1.62,6.23,3.32,8.24,4.93.33-.66.68-1.31,1-2,2.21,1.74,7.85,3.18,10.09,4.9.58-.39,2.41-1.29,4.58-2.3L1005,207a11.41,11.41,0,0,0-3.84,1.89c2.54,2,8.86,2.88,11.3,5,5.29,4.54,11.26,10.69,16.73,15a30.72,30.72,0,0,1,4.19,3.19l-3.61,3.5,5.62,4.16c-.55,1.46-.87,2.29-.87,2.29l4.61,3.5s2.74-2.78,6.62-7c15.54,5.21,21.35-7.62,19.82-13.36a12.23,12.23,0,0,0-3.43-5.71c5.64-7.34,9.82-14.15,8.77-17.2-2.11-6.12-12.69-19.62-17.81-25.94a48.86,48.86,0,0,0-3.4-5.87l-.07-.13h0a23.8,23.8,0,0,0-4.59-5.14c-4.31-3.4-12.79-1.63-19.64.69-7.67-6.2-12.83-7.89-17.24-8.15-6.16-.36-15.93,8-16.92,10.21C990.72,169,991.2,172.88,991.82,176.53Zm60.57,54.69c2.45-2.79,5-5.76,7.37-8.73a13.75,13.75,0,0,1-.53,4.78C1058.37,230.19,1055.26,231.07,1052.39,231.22Zm-45-66.14a50.6,50.6,0,0,1,4.72,6,112.9,112.9,0,0,0-11.41,2.25l-.71.16c-1.15-1.82-2.53-4.29-2.67-6C997.1,164.67,1004.25,162.87,1007.42,165.08Z"/><path class="cls-2" d="M938.05,228.68c-.08.14-.18.29-.28.43l.28-.2Zm-11.24,2.83v.19c.18-.14.35-.29.51-.44C927.31,231,926.81,231.51,926.81,231.51Zm84.42,86.77,1.31-3.93c2.55,7.33,12.49,2.37,13.15-7.66,7.18-9,8.09-22.29,4-27.53l-.49-.77c-2.87-2.29-8-3.36-10.26.46-.74,1.66-1.87,3.54-2.61,5.21-.73,1.9-1.78,5.72-3,7.4,0,0,5.16-18,5.32-22.54s-.22-15.53-8.32-21.72c0,0-9.69-9.23-13.38-13.87l-1.29-.44c-.77,0-1.28.26-2,.28,0-.24.24-.48.23-.95a8.42,8.42,0,0,1-3.33.31c.25-.24.76-.49.76-.73a13.3,13.3,0,0,1-3.09.07c.26-.24.76-.73.76-1-1.28.5-2.06,0-3.09.06a1.7,1.7,0,0,0,.5-.95,6.9,6.9,0,0,1-3.08.3c.25-.24.5-.72.75-1-1.27.5-2,0-3.08.07-.26,0,.51-.49.5-.72a9.68,9.68,0,0,1-2.56.29c0-.24.5-.48.5-.72-1.54.5-2.31.05-3.34.07l.75-1a3.66,3.66,0,0,1-3.07.54c.25-.24.75-.73.75-1a5.13,5.13,0,0,1-4.1.56c.26,0,.75-.73.75-1-1.26,1-2.29.75-3.58.78.25-.24.5-.72,1-1.2a5.25,5.25,0,0,1-4.86.81c.26,0,.5-.72.49-1-1,1,.9-.26-.39-.47,0,0-2.93,1-2.94.77-1,.73,2.63-4.05,1.34-4,.25-.47-7.36.6-6.85.11-1.27,1-1,.48-2.56.28,0,0-5.28,2.93-5,2.69-1.26,1.21-1.86.23-3.41,0,.25-.24.95,1,1.2.72-1,1-.69-.22-2-.19,0-.23-4.23-1.44-4.23-1.68-1.27.73-.85.83-2.39.86,0-.23-.91,2.62-.66,2.38-1,1-1,.19-2.26,0l-1.26.9c-1.26,1.2.49.65-1,.45,0-.16,5.81.62,6,.3a9.39,9.39,0,0,1-3.28,1.53c0-.24.25-.71.24-.95a5.14,5.14,0,0,1-4.08,1.5c.26,0,.51-.48.5-.72-1.26,1.21-2.78,1.95-4.34,1.27v0a8.09,8.09,0,0,1-3.56,1.77,1,1,0,0,1,.5-.95l-1,0c-1.25,1.91,4.65.73,4.18,3.09,0,0-4.06,7-8,21.06-3.2,11.52-2.88,29.69-2.55,33.46.3,3.26-1.58,9.63-1.9,13-1.77,18.46,13,36.93,27.5,46.87,5.79,4,10.68,2.32,16.32,1.44,11.52-1.81,28.73-9.17,38.68-19.62"/><path class="cls-10" d="M941.87,310.71a6.63,6.63,0,0,0,5.9-.42c.37-.23,1.61,0,1.1.3a9.42,9.42,0,0,1-8,.45c-.22-.11-.18-.27.08-.36a1.53,1.53,0,0,1,1,0"/><path class="cls-10" d="M949.59,310.12a10.61,10.61,0,0,1,3.62-.92.9.9,0,0,1,.56.16c.11.09.13.22,0,.29a4.09,4.09,0,0,1-2,.47.78.78,0,0,1-.62-.23c-.11-.16.1-.27.26-.27a3.19,3.19,0,0,0,1.61-.38l.55.46a9.45,9.45,0,0,0-3.24.83.8.8,0,0,1-.66-.07c-.14-.07-.28-.25-.08-.34"/><path class="cls-10" d="M954.57,310.21a5.13,5.13,0,0,0,3.9-1.76c1.08-1.63,0-4.32-1.83-5.33-.2-.11-.1-.26.11-.3a1.16,1.16,0,0,1,.78.15A5.14,5.14,0,0,1,960,307.6c-.21,1.42-1.6,2.42-3.35,2.85a8,8,0,0,1-1.63.23c-.22,0-.62-.05-.73-.22s.09-.24.29-.25"/><path class="cls-10" d="M939.17,310a.18.18,0,0,0-.19-.26,1.79,1.79,0,0,1-1.14-.35l-.38.46a5.37,5.37,0,0,1,2.31.77.43.43,0,0,0,.47-.07c.09-.08.19-.26,0-.35"/><path class="cls-10" d="M940.29,310.22a5.75,5.75,0,0,0-2.59-.85.5.5,0,0,0-.39.17c-.08.1-.09.22,0,.29"/><path class="cls-10" d="M936.12,310.25a3,3,0,0,1-2.57-1.69,4.07,4.07,0,0,1,1.09-4.57.17.17,0,0,0-.08-.3.56.56,0,0,0-.5.16,4.57,4.57,0,0,0-1.51,3.89,3.27,3.27,0,0,0,2.24,2.78,3.5,3.5,0,0,0,1.06.21c.14,0,.4-.06.47-.23s-.06-.25-.2-.25"/><path class="cls-8" d="M1017.07,296.07a57.09,57.09,0,0,1,4.54-8.48,19.07,19.07,0,0,1,3.43-4,6.74,6.74,0,0,1,1.13-.79,2.93,2.93,0,0,1,.56-.24s0-.06.08,0-.25-.06-.25,0,.14.19.16.22a7.34,7.34,0,0,1,.42.71,12.92,12.92,0,0,1,.65,8.67c0,.21.8.08.86-.15a13.21,13.21,0,0,0-.52-8.49,3.37,3.37,0,0,0-.73-1.24.69.69,0,0,0-.49,0c-2.21.35-4,2.63-5.26,4.28a50.35,50.35,0,0,0-5.45,9.75c-.07.16.76.09.87-.15Z"/><path class="cls-33" d="M916.55,268.05c5.87-2.47,9.77-2.86,20.23-2.42l0,.24c.27,1.32.12.58.39,1.92l.6,3c-3.43-.19-5.95-.65-8.12-.58-4.12.12-8.89-.23-12.87,1Q916.73,269.67,916.55,268.05Z"/><path class="cls-33" d="M960,266.06c0,1.36,0,.6,0,2,0,1,0,2.07,0,3.11,3.33-.84,5.72-1.77,7.86-2.11,4.26-.7,9.13-2,13.43-1.33,2.06.34,5,.88,6.46,2.75.39.5,1.11,2.29,1.93,1.93.33-.15-.2-1.82-.25-2-1.08-3.38-4-4.81-7.51-5.65-7.22-1.72-10.87-1.51-21.89,1.1"/><path class="cls-34" d="M1019,312.89a5.06,5.06,0,0,1,1.79,6.56,4.57,4.57,0,0,1-2.76,2.2c-.18.06,0,0-.17,0h-.24a5.46,5.46,0,0,1-1.21-.12,5.08,5.08,0,0,1-3.49-2.64c-.23-.42-1.46,0-1.17.53a6.1,6.1,0,0,0,6.07,3,5.58,5.58,0,0,0,2.18-10.27c-.4-.27-1.55.3-1,.67Z"/><path class="cls-8" d="M1016.36,296.44c.83,0,2.1,0,2.34,1a4.58,4.58,0,0,1-.53,2.45c-.58,1.53-1.63,3.68-.41,5.17,1.44,1.75,3.72-.55,4.54-1.79a10.34,10.34,0,0,0,1.73-6.47c-.17-2.27-.7-5.55-3.09-6.54-.24-.1-.92.26-.82.3,2.06.86,2.67,3.48,2.94,5.48a10.43,10.43,0,0,1-.73,5.72A7.63,7.63,0,0,1,1020,305c-.35.26-.64.43-1,.18a2,2,0,0,1-.78-1.05c-.6-1.69.58-3.59,1.1-5.15a2.68,2.68,0,0,0,.11-2.11c-.48-.8-1.71-.81-2.51-.8-.19,0-1,.37-.56.37Z"/><path class="cls-33" d="M923.85,279.77a3.84,3.84,0,0,0-4.15.84,3.76,3.76,0,0,0-1.09,1.77,3.86,3.86,0,0,0,1,3.48,3.56,3.56,0,0,0,4.11.63,4,4,0,0,0,1.85-4.63,3.49,3.49,0,0,0-1.71-2.09"/><path class="cls-33" d="M938.32,284.66s-7.4-5.51-11.13-5.8c-5.44-.42-10.44,2.66-12.3,5.36,0,0,7.12-4.59,11-4.19C929.5,280.42,938.32,284.66,938.32,284.66Z"/><path class="cls-33" d="M968.31,279a3.85,3.85,0,0,1,4.18.66,3.76,3.76,0,0,1,1.16,1.72,3.84,3.84,0,0,1-.83,3.52,3.58,3.58,0,0,1-4.09.81,4,4,0,0,1-2-4.55,3.52,3.52,0,0,1,1.62-2.16"/><path class="cls-33" d="M959.33,284.34s7.66-5.8,11.63-6.27c7.16-.85,13.91,3.07,16,5.68,0,0-10.46-5.15-14.52-4.57C968.57,279.72,959.33,284.34,959.33,284.34Z"/><path class="cls-35" d="M926.28,234.49c-.86,6.5-9.78,1.21-5-.48-.66-3.12,3.76-4.51,3.56-7.7a4.7,4.7,0,0,1,.32.49s0-3.84,1.31-4.8,7-4,7-4l1.78,1.28c-.05-.09-.69-1.34.19-2.12s10.55-6.11,16.8-5.85c.21,0,.42,0,.62,0l2.62,1.3.1,0-.1,0c-.47-.26-1.47-.91-1-1.47a2.16,2.16,0,0,1,1.14-.54,22.11,22.11,0,0,1,3.78-.45v0h.84v0a22.51,22.51,0,0,1,3.8.29,2.31,2.31,0,0,1,1.17.49c.51.54-.46,1.23-.91,1.51l-.1.06.09-.05,2.57-1.4a4.07,4.07,0,0,1,.61-.07c6.24-.52,16.12,4.38,17,5.14s.32,2,.28,2.11l1.72-1.36s7.55,2.76,8.85,3.66a6.5,6.5,0,0,1,1.93,3.1s2.3.79,3.12.5,5.11,1.84,6.91,4.32c1.16,1.59.79,3.13,1.37,4.54h0c.34.79.53,1.31.53,1.31l4.42,1.38c3.56,1.62,2.83,8.89,2.83,8.89,7.1,8.35,7.6,15.59,4.66,23.45-1.13,3,7.5,5.88,2,5.88s-9.79,17.54-9.79,17.54-4.87-6.7-5.17-9.85,1.05-12.55,1.05-12.55l-2.69-.32s-1.65-.63-3.69-4.17,1.42-10,1.42-10l1-3.87-5.24.47c-5.07-.76-5.47-6.24-5.47-6.24l.68-9.15-3,3.13a3.74,3.74,0,0,1-2.9,1.37c-7.86-.42-8.88-5.29-8.88-5.29l-1.15-4.58-2,1.37c-2.07,1.77-8.45,4.57-11.75,3.23-.87-.36-4.55-3.08-5.15-3.45-2.14-1.49-2.5-4.4-2.57-5.49.3-.3.59-.68.87-1,1.1-1.24,1.65-.74.55.51-1.89,2.14-5.09,5.16-8,5.35s-8.8-.85-9.57-2.13c-.52-.85.36-1-.65-.91a3.4,3.4,0,0,0-2.2,1.37c-1.3,1.56-2.14,3.82-4,4.81-2.69,1.45-4.37,0-7.11-.53A1.29,1.29,0,0,0,926.28,234.49Z"/><path class="cls-36" d="M919.67,229.57s-2-5.86,1.34-9.33,16.16-17.37,38.7-17.88Z"/><path class="cls-37" d="M1043.66,240.79s17.57,9.53,24.77-4.61-12.81-18.67-12.81-18.67"/><path class="cls-37" d="M1029.9,164.56s-9-14.08-20.75-11.37-3.82,21.89-3.82,21.89"/><path class="cls-28" d="M929.08,583.83a188.27,188.27,0,0,1,30.56,3.89,184.83,184.83,0,0,1,34.19,11c5.83,2.51,11.45,5.4,17.13,8.22a123.74,123.74,0,0,0,16.85,6.87,131.3,131.3,0,0,0,33.24,5.89,292,292,0,0,0,30.17-.23c-4.56-16-12.12-61.76-15.7-87.26-7.69-54.79-8.09-135.65-19.21-157.85-8.42-16.8-36.52-27.72-39.71-29.18,0,0-.26-.29-1.37,4-1.44,4.38-3.45,5.23-6.68,8.45-3.74,3.73-8.13,6.12-12.72,8.75a51.66,51.66,0,0,1-28.58,6.5c-5.57-.38-11.22-2.08-15.43-5.88a1.48,1.48,0,0,1-.48-1.53c-1.38,1.92-9.86,9-10.79,11-5.86,12.67-8.18,21.55-13.07,34.63-5.31,14.2-10.73,29.19-12.09,44.39-.78,8.32-5.84,22.32,11.31,40.27C946.2,525.77,936.13,562.32,929.08,583.83Z"/><path class="cls-28" d="M1033.15,430.68l20.59,84.3L1027.2,647.7l33.48,14.63,24.76-65.4c5.71-15.1,10.62-40.65,13.17-56.66,5.34-33.46-3.84-90.63-14.77-140.89-6.55-30.12-66.31-50.92-66.31-50.92Z"/><path class="cls-2" d="M1003.16,716.89a1.8,1.8,0,0,0,1-.37s-1.12,6.2,8,2.2c0,0,7.43,2.64,11.68-1.18,0,0,9.57-.27,13.22-2.59s14.38-29.89,14.38-29.89l2.81-18.91L1027.64,657l-.69,1.8s-10.73,4.13-14.77,7.4a49.37,49.37,0,0,0-8,9.5l-5.33,11.58c5.27,4.23,14.16-7.69,14.91-7.39a5.63,5.63,0,0,1,3.08,7.34c-2,5.74-4.33,12.3-4.51,13.32s-6.66,5.89-11.55,9.45C997.81,712.12,999.44,717.26,1003.16,716.89Z"/><path class="cls-3" d="M1023.52,696.38a30.84,30.84,0,0,1-5.21,10.84,27,27,0,0,1-9.81,6.7,23.13,23.13,0,0,0-4.56,2.21,16.24,16.24,0,0,0,4.93-1.33,24.11,24.11,0,0,0,10.48-6.68,27.25,27.25,0,0,0,5.06-11.42,17.66,17.66,0,0,0,.71-5.16A22.9,22.9,0,0,0,1023.52,696.38Z"/><path class="cls-3" d="M1029.93,700.15a46.06,46.06,0,0,1-1.78,4.66,15.52,15.52,0,0,1-3.24,5,31,31,0,0,1-4.88,3.47c-1.62,1-3.06,1.89-4.25,2.68a16,16,0,0,0-3.74,2.78,16.09,16.09,0,0,0,4.23-2l4.39-2.43a27.31,27.31,0,0,0,5.17-3.56,15.62,15.62,0,0,0,3.34-5.48,34,34,0,0,0,1.55-4.93,9.74,9.74,0,0,0,.4-4.76A38,38,0,0,1,1029.93,700.15Z"/><path class="cls-3" d="M1036.17,704.05c-1,1.87-2.25,4.42-3.58,7.37a4.2,4.2,0,0,1-1.29,1.49c-.54.44-1.09.86-1.67,1.25a33.19,33.19,0,0,1-3,1.81c-1.79.95-3,1.36-3,1.53s1.37.09,3.35-.67a19.47,19.47,0,0,0,3.32-1.67,18.91,18.91,0,0,0,1.82-1.25,5.24,5.24,0,0,0,1.69-2c2.66-5.75,4.56-10.69,4-10.87A15.28,15.28,0,0,0,1036.17,704.05Z"/><polygon class="cls-2" points="1053.83 668.36 1057 660.58 1029.75 650.49 1026.95 658.82 1053.83 668.36"/><path class="cls-23" d="M947.45,320.49c7-.29,18.37-1.63,18.37-1.63s-1.51,14.54-17.8,15.23-19-13.68-19-13.68S940.43,320.79,947.45,320.49Z"/><path class="cls-38" d="M947.39,320.5c3.33-.14,16.77-1.3,16.77-1.3S960,327.06,948,327.57c-13.09.55-17.26-6.85-17.26-6.85Z"/><path class="cls-25" d="M947.26,321c3.34-.14,13.48-1.15,13.48-1.15s-3.5,3.95-13.52,4.38-13.35-3.14-13.35-3.14Z"/><path class="cls-23" d="M928.23,319.37c.35-.1,2.32.48,4,.27,2.76-.37,4.45-1.2,6.45-1.44,3.41-.42,5.64.89,7.12.83s3.6-1.55,7-1.42c2,.07,7,.62,9.78.75,1.66.08,3.58-.67,3.94-.6s-.3,3.91-19,4.7S927.74,319.52,928.23,319.37Z"/><path class="cls-39" d="M1058,386.67a28.52,28.52,0,0,0-11.35,7c-7.69,7.37-10.88,17.93-11.25,28.35-.25,6.85.71,13.72,1.49,20.52s1.63,13.56,2.54,20.34c1.82,13.52,3.81,27,5.89,40.52q2,13.1,4.18,26.18c.12.75.23,1.51.37,2.26.09.46.08,0,0,.35-.22,1.44-.61,2.88-.92,4.31l-4.48,21-6.25,29.26-5.81,27.18-3.25,15.18-.15.71c-.16.76,2.7.31,2.87-.47l2.25-10.54,5.34-25,6.28-29.38,5.14-24.09,1.48-6.9a9.35,9.35,0,0,0,.41-2.22,47.68,47.68,0,0,0-.93-5.66q-1-6.27-2-12.56-3-18.75-5.67-37.55c-1.91-13.44-3.73-26.91-5.13-40.42-.72-7-1.23-14,0-20.95a39.91,39.91,0,0,1,5.64-15,30.84,30.84,0,0,1,7.68-8.14,25.92,25.92,0,0,1,3.25-2c.45-.24.92-.47,1.38-.69s-.1,0,.27-.11l.5-.21c.22-.08.45-.15.67-.24s-.44.13-.12,0,1.44-.41,1.31-.91-1.33-.2-1.59-.13Z"/><path class="cls-39" d="M1077.83,624.39c.11-4.84,2.41-9.64,4.11-14.09q2.67-7,5.68-13.9c.3-.68-2.51-.4-2.87.44q-3.11,7.11-5.86,14.35c-1.7,4.46-3.84,9.13-4,14,0,.65,2.88.21,2.9-.78Z"/><path class="cls-39" d="M923.56,421.86c-.24-.1,0,0,.11.11a2.66,2.66,0,0,1,.51.8,7.75,7.75,0,0,1-.2,4.71c-.71,2.61-1.85,5.15-2.74,7.71a128,128,0,0,0-5.91,23.28C914,467.73,914,477.17,917,486.1c2.2,6.41,5.14,12.75,10.45,17.15,1.31,1.09,2.85,2.1,3.63,3.66a44.8,44.8,0,0,1,2.1,6.27c.25.79,3.13,0,2.89-.78-.61-1.91-1.13-3.89-1.87-5.76a8.86,8.86,0,0,0-2.9-3.5,32.19,32.19,0,0,1-4.63-4.41,38.31,38.31,0,0,1-5.63-10.29,50.74,50.74,0,0,1-3.53-14.29,68.49,68.49,0,0,1,.42-14.31,123.64,123.64,0,0,1,5.8-24c1-3,2.42-6,3.2-9.14.41-1.63,1.07-5.12-1-6-.71-.3-3.35.81-2.35,1.22Z"/><path class="cls-40" d="M801.73,636.07c-9,1.59-18.62,5.62-25.05,12.17a21.08,21.08,0,0,0-6.09,17.54,74.78,74.78,0,0,0,1.95,9.36c2.72,10.74,6.06,21.33,9.4,31.89,4.46,14.06,9.12,28,13.84,42q7.31,21.62,14.84,43.17,6.09,17.5,12.27,35c2.06,5.84,4.2,11.67,6.16,17.54,2.7,8.06,4.9,16.31,7.28,24.47q6,20.68,12,41.4,4.06,14.14,8.14,28.29c.14.48.27,1,.41,1.44l.25-.57-28.47,26-4.07,3.71c-.76.7.44,1.27,1,.73l28.47-26,4.07-3.71a.57.57,0,0,0,.25-.57l-5.76-20q-5.88-20.37-11.78-40.74c-3.06-10.56-6.09-21.13-9.3-31.66-1.4-4.6-3.07-9.12-4.67-13.66q-5.4-15.3-10.77-30.61-7.25-20.67-14.34-41.39-7.32-21.43-14.38-42.94c-3.86-11.86-7.66-23.74-11.06-35.74-1.17-4.1-2.3-8.22-3.23-12.39s-1.62-8.1-.7-12.24c2.68-12,16.22-18.08,27.05-20.78.84-.21,1.7-.41,2.55-.56s.67-1.26-.29-1.09Z"/><path class="cls-31" d="M881.06,710.3l-6-.93s2.85,42.46,1.85,53.24-97.68,7.14-109.28-2.82c0,0-14-52-11.46-80,4.27-46.43,5.68-65,53-74.72s57.35-6,57.35-6Z"/><path class="cls-2" d="M426,563.76l-5.4,12-8,15.86s29,15,35.62,15.24,23.31-.32,23.31-.32a8.72,8.72,0,0,0-1.26,5.79,8.55,8.55,0,0,0,3.84,5.56l8.3-9.11c1.12,5,5.89,2.12,5.89,2.12l6.27-8.17c1.11,6.24,7.39,2.66,7.39,2.66l4.75-12.07a19.89,19.89,0,0,0,5,6c2.67,1.81,4.4-3,4.4-3l-7.88-21.2-28-13.38-49,4Z"/><path class="cls-3" d="M490.07,570.87a43.71,43.71,0,0,1,5.24,2.88c1.89,1.18,4,2.48,6.06,4.07a34.06,34.06,0,0,1,5.41,5,4.57,4.57,0,0,1,1.25,3.26,22.18,22.18,0,0,1-.3,2.8,12.83,12.83,0,0,1-1.42,5.28c-.18,0,.2-2,.44-5.32.06-.83.15-1.79.14-2.69a3.49,3.49,0,0,0-1.08-2.45,39,39,0,0,0-5.3-4.72c-2-1.52-4-2.82-5.9-4.05s-3.51-2.34-4.95-3.1a16,16,0,0,0-5-1.47A7,7,0,0,1,490.07,570.87Z"/><path class="cls-3" d="M483.36,581c2.76,1.55,6.81,3.29,11,6a8.79,8.79,0,0,1,2.88,2.54A12.05,12.05,0,0,1,498,593a11.71,11.71,0,0,1-.47,5.78,23.34,23.34,0,0,1-2,3.29,8.73,8.73,0,0,1-.84,1.11,4.74,4.74,0,0,1,.39-1.35,23.21,23.21,0,0,0,1.54-3.37,11.38,11.38,0,0,0,.17-5.41,12.37,12.37,0,0,0-.69-2.93,8.3,8.3,0,0,0-2.46-2c-4-2.57-8-4.49-10.7-6.28a13.25,13.25,0,0,1-4-3.31A40.19,40.19,0,0,1,483.36,581Z"/><path class="cls-3" d="M484.07,605.75a6.37,6.37,0,0,0,1.23-3.51,4.61,4.61,0,0,0-2.08-3.7,14.64,14.64,0,0,0-4.36-2l-3.93-1.32c-1-.34-1.88-.74-2.46-.91a5.27,5.27,0,0,0-.94-.12c-.1-.05.26-.44,1-.41a18.69,18.69,0,0,1,2.76.54l4,1a13.93,13.93,0,0,1,4.85,2.08,5.76,5.76,0,0,1,2.53,4.84,7,7,0,0,1-1.71,4,8.41,8.41,0,0,1-3,2.44C481.77,608.65,482.89,607.64,484.07,605.75Z"/></g></svg>