<svg xmlns="http://www.w3.org/2000/svg" xmlns:xlink="http://www.w3.org/1999/xlink" viewBox="0 0 637.33 635.77"><defs><style>.cls-1,.cls-10{fill:none;}.cls-2{clip-path:url(#clip-path);}.cls-3{fill:#c3e6f7;}.cls-4{fill:#c95744;}.cls-5{fill:#a66f54;}.cls-6{fill:#97a07f;}.cls-7{fill:#4f2f25;}.cls-8{fill:#161412;stroke:#171514;stroke-width:0.49px;}.cls-10,.cls-8{stroke-miterlimit:10;}.cls-9{fill:#010101;}.cls-10{stroke:#010101;stroke-width:1.11px;}.cls-11{fill:#273520;}.cls-12{fill:#653c2b;}.cls-13{fill:#311811;}.cls-14{fill:#f0ecf6;}.cls-15{fill:#523835;}.cls-16{fill:#6a2811;}.cls-17{fill:#b25226;}.cls-18{fill:#151312;}.cls-19{fill:#221f20;}.cls-20{fill:#833a1d;}.cls-21{fill:#241910;}.cls-22{fill:#582212;}</style><clipPath id="clip-path"><path class="cls-1" d="M318.9,30.15a292.91,292.91,0,0,0-30.37,1.58V-6.64H101.46V127.71h1A287.71,287.71,0,0,0,30.05,319c0,159.53,129.32,288.85,288.85,288.85S607.75,478.52,607.75,319,478.43,30.15,318.9,30.15Z"/></clipPath></defs><g id="Layer_14" data-name="Layer 14"><g class="cls-2"><circle class="cls-3" cx="319.75" cy="319.09" r="288.85"/><path class="cls-4" d="M348.14,458.34c-4.58,3.11-9.1,4.46-13.88,7.19a1.19,1.19,0,0,1-1.49-.26l1-11.31c-11.34,1.4-22.23,4.74-31.83,11.6-12.68,9.06-20.59,22.22-28.4,35.35,4.89,7.49,11.19,14,18.43,16.38,1.39.46,17.21,5.84,18.66,6.26,25.57,7.45,133.58,27.89,133.58,27.89l6-48.87Z"/><path class="cls-4" d="M267.28,404.52c-.62-13.51-1.33-19.8-1.13-33.33.52-33.71-10.34-60.18-7.46-93.76l26.93,5.76c9.83,5.4,19.16,8.35,26.05,24.83l21.69,73.91c-.14.18,19.26,50,19.33,50.29,0,0,12.52,25.43,5.71,38.46-6.2,11.87-30.09,24.51-29.95,38.22-50.86-1.78-67.7-79.35-73.92-96.78"/><path class="cls-5" d="M510.27,225.48s-.76,44.06,5.31,58.71c1.47,3.55,25,13.24,25,13.24L476.4,331.66l-88.06-19.57s48.48-18.86,49.61-23.25-1.54-37-1.54-37"/><path class="cls-6" d="M609.55,467.66c4.68-22.29,16.22-24.7,16.22-48.37,0-15.31-4.44-40.54-6.43-55.3-.1-.22-12.35-26.76-12.45-27-4.55-9.81-23.8-25.69-33.64-30.17-25.64-11.65-52-21.58-52-21.58-26.3,39.53-92.51,47.42-86.12,5.55l-26.12,7.05-18.42,6.87c-.09,0-25.12,7.4-42.32,57.36-14.38,41.73-48.8,115-48.8,115s14.13,13.44,44.44,23.95c8.81,2.76,28.12-48.15,32-46.36.46.95,4.33,80.19,4.33,81.47-.1,22.53-5.37,44.93-5.95,67.43-.36,14-.22,28.34-2.87,42.13,5.64,4.72,7.66,7.82,18.05,12.87,14.67,7.13,28.4,8.31,44.93,10.36,0,0,5.83,0,15.24-.2A336.13,336.13,0,0,0,584.38,512S606,490.42,609.55,467.66Z"/><path class="cls-6" d="M331.51,470.31c-21.23-3.53-41.67,1.34-62.44,5.24l-93.75,20.76,4.52,41s98.41,10.19,123.84,5.65c20.72-3.71,57-.55,67.86-40.86,1.57-5.84,2.4-11.69,1.17-17.91C361,476.36,344.59,472.48,331.51,470.31Z"/><path class="cls-6" d="M348.71,395.45l4-18.79-29,45.86c9.66,19.75,19.72,38.79,21.81,61.12,1.13,12.06,2.93,32.81-.18,45.21,32-12.66,44.28-61.44,44.28-61.44Z"/><path class="cls-7" d="M419,256c2.89,4,5.57,8.22,8.64,12.12a1,1,0,0,1,.09.17.55.55,0,0,1,.81.09c2.15,2.62,6.21,3.95,8.13,6.76,1.65,2.42,1.3,6,1.53,8.92,2.18.28,4.63-.16,7.38-.05,18.56-.72,18.06-3.6,43.23-18.31,7.89-4.6,6-10.62,7.52-11.75C470.85,253.87,445.61,255.42,419,256Z"/><path class="cls-8" d="M529.5,193.6s3.25-11.22,6.84-37.92c3.21-23.91-34.77-42.72-57.48-45.72-12.48-1.65-54,4.6-64.59,9.92s-15.9,20-16.67,41c0,0,6.08-20.89,19.32-20.72,10.8.13,45.46-6.08,54.67-2.41s29.49,11.35,31.15,44.09c.46,8.92,16.08-.87,20.56,4.4S529.5,193.6,529.5,193.6Z"/><path class="cls-5" d="M512.44,232.32l2.79-32.27.69-36.06-14.8-27-25.94-11.79L446.1,126.9s-23.16,6.36-30.46,8.5-12.26,11.25-17,21.43-2.16,26.8-2.16,26.8c-.19.59.51,3.12.64,3.64,1.62,6.67,2.23,12.52,3.55,17.49a12.38,12.38,0,0,1,0,6.8c-2.59,8.81-2.45,12.55-1.61,17.88,1.16,7.27,2.67,13.45,5.5,19.12,3,6,6.76,12.49,7.52,13.76,0,0,8.36,13.43,10.13,14.72a14.74,14.74,0,0,0,5.63,2.57c1.22.1,17.26.71,17.26.71l7.43-.38a19,19,0,0,0,7.28-1.85c6.19-3,23.83-11.79,28.62-15.35,6.46-4.79,13.77-24.19,13.77-24.19"/><path class="cls-8" d="M504.55,201.44c-.06,2.78.34,13.83.12,16.56l14.37-.73c4-9.68,8.9-21.06,10.46-23.67,2.45-4.07,2.25-23.45,2.18-30.75l0-1.57c0-7-7.08-17.9-18.81-29.15-12.91-12.39-35.32-18.95-57.11-16.73-2.07.22-4.13.51-6.13.86-18.87,3.4-34.33,13.36-45.93,29.6-8.36,11.72-8.54,24.8-7.56,32.75a70.62,70.62,0,0,1,5.43-27.46c4.89-10.87,11.45-14.14,16.09-15a15.71,15.71,0,0,1,7.74.48c4.65.9,11.38.05,16.22-.82,3.61-.65,6.46-1.37,7.24-1.57,2.39-1.77,6-3.13,10.5-3.94,10.41-1.87,25.62-.5,28.89,4,3.63,5,12,22.93,12.19,27.17"/><path class="cls-5" d="M511.1,233.08c8.75,8.27,13.66-8.43,13.66-8.43,7.68-10.12,7.21-20.51,6.59-27.6s-8.43-6.64-8.43-6.64c-6.61,1-9.41,4.72-13.95,27.37"/><path class="cls-8" d="M403.43,143.27c4.53-8,13.54-18.12,18.6-25.77,2.54-.35,15.16-1.15,17.81-1.36,27-2.21,63.91,11.87,67.79,21.56,2.42,6.05,2.33,39.51,1.28,42.59-2.89,8.47-3.73,19.44-3.73,19.44-1.62-12.48-11.15-26.08-12.45-30.34s3.61-24.86,2.18-25.67-26.41-7.35-54-5.79a203.63,203.63,0,0,0-23.44,2.76C417.56,140.61,403.38,143.36,403.43,143.27Z"/><path class="cls-8" d="M457.2,193.6a4.3,4.3,0,0,1,4.68-.06,4.13,4.13,0,0,1,1.36,1.89,4.3,4.3,0,0,1-.82,4,4,4,0,0,1-4.55,1,4.42,4.42,0,0,1-2.43-5c.08-.33.46-1,1.76-1.81"/><path class="cls-8" d="M410.06,196.22a4.33,4.33,0,0,0-4.62,1.08,4.21,4.21,0,0,0-1.16,2,4.34,4.34,0,0,0,1.22,3.87,4,4,0,0,0,4.63.57A4.43,4.43,0,0,0,412,198.5a3.91,3.91,0,0,0-2-2.28"/><path class="cls-8" d="M424.54,202.14s-7-6.31-11.87-6.51c-7.14-.29-8.87,1.4-11.22,4.79,0,0,4.47-3.64,9.49-3.3C415.74,197.45,424.54,202.14,424.54,202.14Z"/><path class="cls-8" d="M446.83,198.86s9.75-6.62,14.63-6.91c7.13-.43,15.77,3.49,18.18,6.83,0,0-11.41-5.81-16.42-5.38C458.43,193.82,446.83,198.86,446.83,198.86Z"/><path class="cls-8" d="M443.15,175.43l.3,5.09c.08,1.3.17,4.25.25,5.54,4.07-1.32,7.71-3.17,10.35-3.79,5.25-1.23,10.59-2.85,16-2.34a18.19,18.19,0,0,1,7.1,2c.7.37,2.62,2.06,3.6,1.54.41-.21-.39-2.26-.47-2.47-1.63-4.13-5.35-5.67-9.83-6.42-9.14-1.52-18.2-.78-27.3.89"/><path class="cls-8" d="M397.34,182.3l-2.64,1.21s0,0,0,.05,0,.11,0,.17a5.4,5.4,0,0,0,0,.8.77.77,0,0,0,0,.15h0c0,.14.07.28.11.42a6.64,6.64,0,0,0,.3.81h0a1.14,1.14,0,0,1,.08.16c.07.13.15.26.23.38a3.75,3.75,0,0,0,.24.36l.15.19a.57.57,0,0,0,.1.13l.15.16.31.28.3.24.17.1a1.27,1.27,0,0,0,.12.1c.9-.26,1.75-.5,1.91-.56,4.45-1.64,9.41-1.49,14.11-1.4,2.37.05,4.25.42,8,.86-.22-1.27.08-3.44-.15-4.72-.3-1.68,0-3.13-.28-4.8C412.5,177.7,404.7,178.89,397.34,182.3Z"/><path class="cls-9" d="M429.81,229.8a7.9,7.9,0,0,0,7.34-.85c.45-.32,2-.11,1.38.33a11.11,11.11,0,0,1-10,1c-.27-.13-.23-.34.09-.47a1.74,1.74,0,0,1,1.19,0"/><path class="cls-9" d="M439.41,228.63a12.72,12.72,0,0,1,4.48-1.39,1,1,0,0,1,.71.19c.13.11.17.27,0,.38a4.89,4.89,0,0,1-2.46.71.91.91,0,0,1-.78-.27c-.15-.2.1-.36.3-.37a3.82,3.82,0,0,0,2-.58l.72.58a11.38,11.38,0,0,0-4,1.25.9.9,0,0,1-.83,0c-.17-.09-.37-.32-.12-.45"/><path class="cls-9" d="M445.64,228.51c1.84-.14,3.95-1.07,4.78-2.53,1.25-2.2-.19-5.49-2.55-6.73-.25-.14-.13-.34.12-.41a1.46,1.46,0,0,1,1,.16,6.55,6.55,0,0,1,3.29,5.79c-.18,1.88-1.87,3.28-4,3.93a9,9,0,0,1-2,.39c-.28,0-.78,0-.93-.25s.1-.33.36-.35"/><path class="cls-9" d="M426.4,229a.25.25,0,0,0-.25-.35,2.08,2.08,0,0,1-1.44-.4l-.46.63a6.34,6.34,0,0,1,2.93.9.48.48,0,0,0,.58-.12c.11-.11.23-.35,0-.46"/><path class="cls-9" d="M427.8,229.22a7,7,0,0,0-3.27-1,.59.59,0,0,0-.48.25.26.26,0,0,0,0,.38"/><path class="cls-9" d="M422.61,229.46a3.74,3.74,0,0,1-3.3-2.11,5.6,5.6,0,0,1,1.12-6.1.23.23,0,0,0-.11-.39.72.72,0,0,0-.63.24,6.27,6.27,0,0,0-1.68,5.22,4.32,4.32,0,0,0,2.94,3.57,4.09,4.09,0,0,0,1.34.22.64.64,0,0,0,.58-.33c.08-.23-.09-.32-.26-.32"/><path class="cls-10" d="M515.77,211.71c6-14.5,10.31-14.65,10.31-14.65s3,3.31,1.6,10"/><path class="cls-10" d="M518,213c3.89-.44,1,6.89,2.08,8.59s2.47-2.87,2.89-8.38c0,0-.08-7.42-3.79-8.74"/><path class="cls-11" d="M581.23,331.12a45.19,45.19,0,0,0-8.16,5,58.16,58.16,0,0,0-14.53,15.51,56.58,56.58,0,0,0-8.6,28.29,138.82,138.82,0,0,0,.75,18.12c1.53,16.85,4.25,33.61,7.15,50.28s6,33,9.41,49.49q1.75,8.58,3.58,17.13c.59,2.77,1.07,5.61,1.81,8.34,0,.13.05.26.08.38.19.85,3,.14,2.85-.76-1.53-6.89-3-13.79-4.41-20.69-3.24-15.67-6.32-31.37-9.14-47.12-3-16.94-5.89-34-7.79-51.07-.74-6.62-1.36-13.27-1.48-19.92a60.26,60.26,0,0,1,4.82-25.81,54.81,54.81,0,0,1,24.48-26.06l.4-.2c.18-.08-.41.19-.14.07s1.11-.51.79-1-1.54-.1-1.87,0Z"/><path class="cls-11" d="M379.24,495.59q-.06-25.12-1.19-50.22c-.78-17.38-1.94-34.76-3.73-52.08-.94-9.12-2.07-18.21-3.49-27.27-.21-1.34-3.06-.63-2.85.76,2.57,16.39,4.22,32.91,5.45,49.44,1.29,17.4,2.09,34.83,2.53,52.26q.35,13.65.39,27.31c0,1.51,2.89,1.11,2.89-.2Z"/><path class="cls-12" d="M437.42,240.94C446,240.59,460,239,460,239s-1.91,21.16-21.91,22-21.87-20.12-21.87-20.12S428.79,241.3,437.42,240.94Z"/><path class="cls-13" d="M437.33,241c4.1-.17,20.61-1.54,20.61-1.54s-5.1,14-19.93,14.6c-16.08.66-19-12.79-19-12.79Z"/><path class="cls-14" d="M437.18,241.57c4.1-.17,16.55-1.38,16.55-1.38s-4.31,4.67-16.61,5.18-16.39-3.69-16.39-3.69Z"/><path class="cls-12" d="M416,240.35a20.27,20.27,0,0,1,2.74-.4c3.38-.43,5.47-1.41,7.92-1.7,4.19-.5,6.92,1.05,8.75,1s4.42-1.84,8.64-1.69c2.46.09,8.59.73,12,.88,2,.09,4.39-.79,4.84-.71.61.13-.39,4.62-23.33,5.56S415.35,240.52,416,240.35Z"/><path class="cls-4" d="M75.18,514l7.06-7.75-3.67-226,31.93-18.85,39.11-11.78,5.84,13.52c8.82,12.66,21.32,20,37.25,21.5,4.67.42,14.09-.14,19.12-.36,14-.62,19-14.09,20.86-23.63.09-.47,23.34,9.59,30.07,12.24,10.38,4.09,30.72,10.86,33.07,15.19,0,0-10.14,130.39-9.08,173.7.29,11.52-1.28-2.69-5.61,66.28-1,15.8-1.89,28,1,43.31,1.76,9.31,5.92,48.19,7.57,57.48A235.35,235.35,0,0,1,248,622.71,295,295,0,0,1,75.18,514Z"/><path class="cls-15" d="M358.08,388.07a.75.75,0,0,0,.2.1l.12-.54Z"/><path class="cls-5" d="M230.22,257.56c.2,1.3,2.27,3,5.1,4.69,1.08.66-.51,9.54-.75,10.79-.69,3.66-1.92,7.39-4.91,9.82-2.35,1.92-7.79,5.28-10.76,5.9-15.39,3.21-31.2,2-45.59-5.49-11.37-5.91-19.82-17.3-23.2-29.58-1.47-5.32,1.44-2.82,3.18-6.71,11.34-25.34,7.94-63.6,7.94-63.6l73.57,36.11S229.52,253.05,230.22,257.56Z"/><path class="cls-7" d="M230.8,246.71s-7.8-3.56-13.1-5.4-14.57-2.05-38.17-25.1c0,0,5.74,26.95,37.15,34.51,0,0,8.1,2.2,13.57,1.21Z"/><path class="cls-5" d="M268.17,88.63l.32.29a3.52,3.52,0,0,1-.28-.59Zm13.12,4.68c.17.21.37.42.57.64l0-.25S281.34,93,281.29,93.31Zm-104.91,123c10.82,14.74,34.08,31.38,54.21,32.94,12.88,1,13.87-3,19.46-7,8.49-6,12.66-10.71,19.4-18.21,6.46-7.19,9.5-11.8,13.17-20.71,3.79-9.22,4.12-11.74,4.43-21.44A95.3,95.3,0,0,1,288.67,167c1-4.69,5.79-23,7.75-33.92s-6.79-29.5-6.79-29.5c-.21-3-1.51-5.36-2.76-8l-1.29-.19a1.29,1.29,0,0,1,.47,1.28A10.31,10.31,0,0,1,281.86,94v0c-2.07.6-3.87-.57-5.26-2.29,0,.3.19.93.52,1a6.5,6.5,0,0,1-4.89-2.54c-.05.3.19.94.15,1.23a11.83,11.83,0,0,1-3.88-2.45c.24.44,7.67.39,7.64.6-2,0,.14,1-1.25-.74l-1.43-1.34c-1.66.06-1.74,1-2.85-.34.28.35-.4-3.38-.45-3.09-1.93-.29-1.38-.34-2.86-1.46-.05.29-5.55,1.13-5.6,1.43-1.61-.24-1.4,1.3-2.51-.08.27.35,1.34-1.06,1.62-.72-2,0-2.89,1.14-4.27-.58.27.35-5.89-4.19-5.89-4.19-2,0-1.74.67-3.17-.76.55.69-8.84-1.88-8.6-1.24-1.61-.24,2.19,6.36,1,5.28,0,.3-3.58-1.44-3.58-1.44-1.65.06.55,1.9-.57.53,0,.29.15,1.22.47,1.27-2.06.6-4.23-.32-6-1.8.55.69.79,1.33,1.07,1.67-1.62-.24-2.95-.13-4.38-1.56,0,.3.47,1.28.79,1.33a6.42,6.42,0,0,1-5.06-1.36c0,.3.51,1,.78,1.33a4.62,4.62,0,0,1-3.77-1.17l.79,1.33c-1.29-.2-2.34.25-4.19-.63,0,.3.56.69.52,1a12.23,12.23,0,0,1-3.18-.78c0,.29.83,1,.51,1-1.29-.19-2.34.26-3.86-.58.27.35.51,1,.79,1.33-1.29-.19-2.62-.09-3.82-.87a2.18,2.18,0,0,0,.47,1.28c-1.29-.19-2.35.25-3.87-.58,0,.3.51,1,.79,1.33a17.32,17.32,0,0,1-3.86-.58c-.05.3.55.69.83,1a10.49,10.49,0,0,1-4.14-.92c-.09.59.19.94.14,1.23-1-.14-1.56-.53-2.53-.68l-1.7.35c-5.39,5.24-8,25.09-8,25.09-11.17,6.49-17.45,22.17-18,27.83s-3.94,17.54-3.94,17.54c-1.3-2.31-4.18-7.27-4.79-9.78-.66-2.21.38-4.77-.28-7-2.19-5.16-8.85-4.64-12.83-2.21l-.73.88c-5.93,5.95-3.63,27.51-.89,34.22-.78,12.72,9.31,20.95,16.86,12.79l1,5.15"/><path class="cls-16" d="M290.24,115.34C285,97,266.4,84.44,226.43,73.41s-74-.87-74-.87C180,17,238.9,27.77,252.09,29.74s73.6,63.49,44.14,108.51l-1.77,4.41S291.19,118.68,290.24,115.34Z"/><path class="cls-16" d="M143.76,58.86s.56-37.26,29.06-45.55C210.89,2.24,260.57,2.25,272.4,42.38Z"/><path class="cls-17" d="M134.22,148.05c-2.5-3.41-.46-11.75-2.49-15.46-10.65-19.46-3.87-36,2.71-45.38,2.86-4.1.91-12.34,1.7-16.19,4.14-20.19,6.57-20.47,40-36.85,27.16-13.34,53.76-8.6,69.09-5.47,24.56,5,35.24,8.18,41.28,27,.79,2.46-.7,4.13-.17,7,.76,4.09,6.81,5.43,7.09,10.52,0,0-33.67,8-63.1,18.71S144,152.43,143.4,169.81C143.38,170.35,137,151.83,134.22,148.05Z"/><path class="cls-16" d="M159.1,82.06c15.24-7.27,32.29-17.41,63.43-20.34,0,0-53.74-16.12-89.77,26.75l-1,1.78c-2.55,4.69-4.73,10.34-5.58,20.13l9.5-10.78C141.68,92.57,150.79,86,159.1,82.06Z"/><path class="cls-18" d="M171.74,132.29l-6,28.49-8.21-14.19A81.88,81.88,0,0,1,171.74,132.29Z"/><path class="cls-19" d="M153.89,155.55c-3.69,1-5,5.72-5.51,9.1a12.93,12.93,0,0,0,1.29,7c.7,1.47,2.09,3.66,4,3.38,1.65-.24,2.54-2,2.57-3.52,0-1.78-.65-3.45-.95-5.18-.09-.54-.27-1.47.16-1.93.62-.67,1.75,0,2.49-.23a1.41,1.41,0,0,0,.87-1,7.18,7.18,0,0,0-.12-3.79,40.32,40.32,0,0,0-3.8-9.31c-.28-.53-1.59,0-1.26.61,1.69,3.24,3.62,6.91,3.95,10.63a4.88,4.88,0,0,1-.1,1.79c0,.12-.12.42-.13.3,0,.06-.26.23,0,0l.69-.18c-1.73-.24-4.12-.07-4.25,2.14-.12,2.06,1,4,1,6.07,0,.74-.19,2.45-1.17,2.62s-2.13-1.75-2.51-2.47a12.17,12.17,0,0,1-1.25-8c.48-2.42,1.46-6.33,4.2-7.1.84-.23.6-1.16-.25-.93Z"/><path class="cls-9" d="M247.69,194.14a9.32,9.32,0,0,1-8.31-1.77c-.48-.41-2.29-.36-1.62.21a13.12,13.12,0,0,0,11.34,2.24c.33-.12.31-.36,0-.54a2.1,2.1,0,0,0-1.36-.14"/><path class="cls-9" d="M236.83,191.75a14.86,14.86,0,0,0-5-2.05,1.17,1.17,0,0,0-.82.13c-.17.11-.23.29-.05.43a5.77,5.77,0,0,0,2.74,1.07,1.1,1.1,0,0,0,.92-.21c.2-.22-.07-.42-.31-.45a4.46,4.46,0,0,1-2.21-.87l-.88.56a13.33,13.33,0,0,1,4.45,1.85,1.15,1.15,0,0,0,1,0c.2-.09.45-.32.18-.5"/><path class="cls-9" d="M229.71,190.92c-2.08-.37-4.4-1.64-5.19-3.36-1.2-2.59.8-6.11,3.63-7.23.31-.12.19-.36-.09-.46a1.74,1.74,0,0,0-1.15.06,7.32,7.32,0,0,0-4.38,6.1c0,2.11,1.79,3.86,4.2,4.83a11,11,0,0,0,2.27.66c.31.06.9,0,1.09-.18s-.08-.37-.38-.42"/><path class="cls-9" d="M251.67,193.66a.28.28,0,0,1,.33-.35,2.53,2.53,0,0,0,1.69-.29c.16.25.31.5.46.75a7.5,7.5,0,0,0-3.45.68.6.6,0,0,1-.65-.21c-.12-.13-.22-.41,0-.52"/><path class="cls-9" d="M250.05,193.72a8.29,8.29,0,0,1,3.85-.73.68.68,0,0,1,.52.33.29.29,0,0,1-.07.42"/><path class="cls-9" d="M256,194.59a4.32,4.32,0,0,0,4-2,6.16,6.16,0,0,0-.63-6.92.25.25,0,0,1,.16-.42.81.81,0,0,1,.69.34,6.82,6.82,0,0,1,1.37,6,4.84,4.84,0,0,1-3.74,3.65,5.13,5.13,0,0,1-1.56.1c-.2,0-.56-.18-.62-.44s.14-.34.33-.32"/><path class="cls-18" d="M276,156.27a4.5,4.5,0,0,1,6,4,4.72,4.72,0,0,1-1.73,4.07,4.39,4.39,0,0,1-5.1.13,4.83,4.83,0,0,1-1.52-5.91,4.26,4.26,0,0,1,2.39-2.27"/><path class="cls-18" d="M257.35,159.85s9.72-5.55,14.23-5.33c6.59.32,14.05,5.11,15.87,8.68,0,0-9.78-7-14.43-7.06C268.58,156.06,257.35,159.85,257.35,159.85Z"/><path class="cls-18" d="M219.67,148.32c-1.64-1.19-4.56-1.37-5.88-.51a4.67,4.67,0,0,0-1.68,1.91,4.74,4.74,0,0,0,.47,4.41,4.37,4.37,0,0,0,4.84,1.6,4.83,4.83,0,0,0,3.18-5.2c0-.37.41-1-.93-1.95"/><path class="cls-18" d="M229.38,154.79s-8.89-7.72-13.7-8.58c-7-1.26-16.06,1.62-18.85,4.65,0,0,12-4.43,16.93-3.41C218.47,148.42,229.38,154.79,229.38,154.79Z"/><path class="cls-18" d="M262.86,137.88c-.12,1.32-.25,2.65-.37,4-.1,1-.19,2-.28,3,3.47-.52,6.42-.79,8.64-.94,4.7-.32,7.1-.46,9.74.25a25.79,25.79,0,0,1,6,2.54,16.59,16.59,0,0,1,3.06,2c2.11,1.87,2.86,3.81,3.25,3.69s0-1.8-.08-2a15.68,15.68,0,0,0-4.19-7.2,18.33,18.33,0,0,0-6-3.48c-2.59-.93-9.89-2.14-19.77-1.93"/><path class="cls-18" d="M232.18,134.32,231,138.13c-.32,1-.63,1.93-.95,2.89-3.27-1.93-6.11-3.42-8.28-4.5-4.58-2.27-6.93-3.41-9.86-3.87a30.08,30.08,0,0,0-7-.18A18.48,18.48,0,0,0,201,133c-2.87.82-4.4,2.29-4.74,2s.77-1.63.88-1.77a15.86,15.86,0,0,1,7.09-4.83,20.78,20.78,0,0,1,7.38-.68c3,.23,10.77,2.2,20.59,6.55"/><path class="cls-20" d="M78.09,436c4.79-14.3,10.19-39,12.58-50.36.8-3.78,1.26-6.11,1.26-6.11,7.91-39.65-4-66.58-4-66.58s14.59,22.55,8.12,61.53-18,61.52-18,61.52"/><path class="cls-12" d="M236.69,206.73c-9.6-1.92-24.92-6.24-24.92-6.24s-1.19,23.58,21.06,28,27-18.68,27-18.68S246.29,208.64,236.69,206.73Z"/><path class="cls-21" d="M236.78,206.75c-4.56-.91-22.79-5.42-22.79-5.42s3.9,15.81,20.41,19.1c17.9,3.57,22.79-10.24,22.79-10.24Z"/><path class="cls-14" d="M236.83,207.52c-4.56-.91-18.28-4.51-18.28-4.51s3.92,6.4,17.61,9.13,19.09-1.65,19.09-1.65Z"/><path class="cls-12" d="M259.55,209.34c-.46-.23.54.07-1.68-.6-3.71-1.1-5.86-2.65-8.55-3.42-4.6-1.32-8,.08-10-.33s-4.6-3-9.36-3.53c-2.78-.32-9.77-.6-13.62-1-2.3-.24-4.77-1.72-5.28-1.69-.71,0-.47,5.66,25.07,10.75S260.19,209.65,259.55,209.34Z"/><path class="cls-4" d="M96.42,445l-3,35a1.18,1.18,0,0,0,1.49.25c4.78-2.72,9.31-4.07,13.89-7.18l102,44.23-7.77,63.35S119.59,560.44,94,553c-1.45-.43-25.53-8.15-26.92-8.64-33.59-11.8-43-39.8-41.77-62.74C26.47,460.35,29,436.18,31.25,415c2-19.3,4.9-42.58,7.8-61.76,4.39-29,11.45-73.1,43-81.65L110,261.76"/><path class="cls-22" d="M102.38,466.48c-4.56-1-9,0-13.32,1.57-2,.73-4,1.53-5.91,2.43a12.29,12.29,0,0,0-4.71,3.41c-1.18,1.51,1.77,1.75,2.55.75A9.17,9.17,0,0,1,84.62,472c1.63-.75,3.3-1.43,5-2.07,3.47-1.32,7.24-2.32,10.94-1.54a2.32,2.32,0,0,0,2.19-.59.75.75,0,0,0-.35-1.33Z"/><path class="cls-22" d="M233.72,557l-2.62,8.92,2.17-1c-7.8.21-15.61.26-23.41.28-17.82,0-35.65-.26-53.46-1-11.29-.5-22.58-1.21-33.83-2.25a3,3,0,0,0-2.19.58c-.43.39-.42.91.26,1,19.77,1.83,39.62,2.68,59.47,3.08q21.91.45,43.86.13c2.68,0,5.37-.08,8.05-.16.62,0,1.95-.27,2.16-1l2.63-8.91c.28-1-2.8-.53-3.09.43Z"/><path class="cls-22" d="M243,512.48c-4.84-.63-9.67-1.44-14.48-2.28-11.23-2-22.4-4.29-33.43-7.14-12.51-3.24-25-7.06-36.76-12.41-7.17-3.26-14.13-7-21.25-10.37q-8.82-4.18-17.79-8.08-5.76-2.51-11.61-4.82c-1.12-.44-2.25-.88-3.38-1.3a9.77,9.77,0,0,0-1.71-.63,1,1,0,0,1-.22-.08l.69,1q1.48-8.19,2.91-16.39,3.3-18.84,6.42-37.71c2.35-14.24,4.62-28.5,6.65-42.79,1.45-10.18,3-20.47,3.48-30.76.25-6.26-.87-12.64-2.19-18.73a62.12,62.12,0,0,0-4.52-13.82c-1.75-3.61-4.1-7.19-7.54-9.39a13.85,13.85,0,0,0-4.91-1.95c-1.59-.31-3.1,1.94-1,2.34,3.61.7,6.36,3.37,8.36,6.32a42.68,42.68,0,0,1,5.4,12.62,100.17,100.17,0,0,1,2.9,15.26,38.18,38.18,0,0,1,.44,6.22c-.17,9.62-1.73,19.29-3,28.8-1.94,14-4.15,28-6.43,41.91q-3.15,19.28-6.52,38.51-1.14,6.58-2.31,13.17c-.37,2.1-.88,4.21-1.13,6.32,0,.1,0,.19,0,.28a1,1,0,0,0,.69,1c4.58,1.59,9.07,3.49,13.54,5.38,13,5.52,25.8,11.7,38.49,18,11.57,5.77,24,9.78,36.47,13.16,11.47,3.12,23.1,5.67,34.79,7.81,5.89,1.07,11.84,2.22,17.8,2.88l.26,0c1.58.2,3.12-2.08,1-2.35Z"/><path class="cls-22" d="M301.27,344.24c-1.75,3.85-3.21,8.32-2.48,12.57.68,4,1.59,7.89,2.43,11.82,2.39,11.28,5,22.61,6.34,34.07a45.44,45.44,0,0,1-.86,15.93,75.05,75.05,0,0,1-8.09,20.45,47.79,47.79,0,0,1-5.83,8.22,25.32,25.32,0,0,1-3.08,3c-.45.35-1,.59-1.18,1.12a18.54,18.54,0,0,0-.5,3l-1,5.76-4.11,24.28-.08.51c-.14.79,2.92.27,3.06-.52l3.6-21.35,1.89-11.15c0-.35.09-.71.17-1.05,0,0,0-.12,0-.17-.16.42.17,0,.37-.18s.62-.48.92-.74a34.61,34.61,0,0,0,5.83-6.6,71.13,71.13,0,0,0,9.55-19.67c1.84-5.78,3.12-11.9,2.72-18a137.86,137.86,0,0,0-2.14-15.12c-1.09-6-2.32-12-3.57-18-1-4.68-2-9.34-3-14-.23-1.2-.51-2.41-.63-3.62-.31-3.05.76-6.26,1.83-9.07.25-.66.51-1.32.8-2s-1.05-.38-1.25-.35c-.52.08-1.55.31-1.81.87Z"/><path class="cls-5" d="M234.22,555.47l21.76.14S274.1,565.68,286.39,570a112.33,112.33,0,0,0,28.25,5l27.7,10.36S350.93,596,355,593.68s2.11-7.15.19-11.8-52-56.25-52-56.25c8.16.14,13.11-1.2,21,.18,12.16,2.2,20.75-1.52,20.61-7.62-.1-4.28-14.49-6.69-25.68-5.84-7.28.55-19-7.28-31.72-8s-27,9-27,9c-5.1.31-18.07.22-18.07.22C241.78,514.38,234.22,555.47,234.22,555.47Z"/><path class="cls-1" d="M570.45,174.9A109.92,109.92,0,1,0,399.76,40.46a289,289,0,0,0-80.28-11.31C160,29.15,30.63,158.47,30.63,318S160,606.84,319.48,606.84,608.33,477.52,608.33,318A287.58,287.58,0,0,0,570.45,174.9Z"/></g></g></svg>