<svg xmlns="http://www.w3.org/2000/svg" viewBox="0 0 1303.15 1057.31"><defs><style>.cls-1{fill:#f2ebd1;}.cls-2{fill:#a66f54;}.cls-3{fill:#dbad63;}.cls-35,.cls-36,.cls-4{fill:#151210;}.cls-5{fill:#161311;}.cls-6{fill:#a66e53;}.cls-7{fill:#bb997a;}.cls-8{fill:#a38166;}.cls-9{fill:#87654d;}.cls-10{fill:#361b10;}.cls-11{fill:#4c2713;}.cls-12{fill:#683721;}.cls-13{fill:#22110b;}.cls-14{fill:#681941;stroke:#681941;stroke-width:1.42px;}.cls-14,.cls-34,.cls-35,.cls-36{stroke-miterlimit:10;}.cls-15{fill:#ad7b98;}.cls-16{fill:#4f2e25;}.cls-17{fill:#683b8c;}.cls-18{fill:#966eb0;}.cls-19{fill:#ce8d2a;}.cls-20{fill:#13110f;}.cls-21{fill:#231f20;}.cls-22{fill:#010101;}.cls-23{fill:#8e6528;}.cls-24{fill:#653c29;}.cls-25{fill:#31160e;}.cls-26{fill:#f1eef7;}.cls-27{fill:#582212;}.cls-28{fill:#513835;}.cls-29{fill:#4d2f15;}.cls-30{fill:#1b120c;}.cls-31{fill:#c47c2b;}.cls-32{fill:#a06c29;}.cls-33{fill:#653c2a;}.cls-34{fill:none;stroke-width:1.05px;}.cls-34,.cls-35,.cls-36{stroke:#161311;}.cls-35{stroke-width:0.45px;}.cls-36{stroke-width:0.45px;}.cls-37{fill:#090706;}</style></defs><g id="Layer_11" data-name="Layer 11"><polyline class="cls-1" points="1313.23 1069.13 1313.23 -16.77 -10 -16.77 -10 1069.13"/><path class="cls-2" d="M375.43,351.35c7.69,4.23,15.45,12.88,20.84,25.78l17,57.85c-.1.12,11.32,27,15.63,34.22,1,1.65,3.12-1.15,2.74.73-.45,2.24-1.34,6-3.09,12.48-2.74,10.12-20.51,21.94-20.4,32.67-27.83-3-36.48-50.43-41.35-64.07l-1.74,5.22c-.72-12.4-.94-24.83-.75-37.26.4-26.39,12.7-64.51-11.89-83.4Z"/><path class="cls-3" d="M389.37,432.11l22.93-15.82s-13.68-43.81-24.74-56.61-35.15-24.11-35.15-24.11S368,367.12,365,381.88,389.37,432.11,389.37,432.11Z"/><path class="cls-4" d="M235.66,281.23l-.6,1.18c-.61,8,1.5,13.76,7.91,16.59,0,.07-1.19,15.85,14.74,20.23,13.82,3.79,20-1,20-1s5.1,5.06,8.65,5.38c8,.72,16.3-7.56,15.78-13.61s-2-14.79-2-14.79.55-6.32-.85-11-8.7-10.15-8.7-10.15,4.51-7.77.91-10.05-12.28-4.52-12.28-4.52-4.8-7.34-13.42-4.64c0,0-6.37-2.23-10.53,4.87a22,22,0,0,0-2.31,6s-3.15-1-9.48,2.13C240.74,269.24,236.13,275.15,235.66,281.23Z"/><path class="cls-5" d="M235,281.21a10,10,0,0,0-.58,1.13,8.42,8.42,0,0,0-.17,2.41,24,24,0,0,0,.41,4.86,13.2,13.2,0,0,0,4.17,7.49,13.41,13.41,0,0,0,1.56,1.16c.32.2.64.38,1,.56.14.07,1,.35.9.27.07.08,0,.57,0,.67a22.1,22.1,0,0,0,.32,3.81,19.76,19.76,0,0,0,6,11.43c5,4.5,12.43,6.11,19,6.08,3.47,0,7.78-.51,10.65-2.71l-1.17.16c2.27,2.24,5.36,4.94,8.62,5.45,4.69.73,9.67-1.86,12.9-5.08a15.51,15.51,0,0,0,3.67-5.48c.84-2.24.49-4.45.23-6.78-.3-2.57-.66-5.15-1-7.71-.19-1.27-.52-2.58-.6-3.86s.13-3.2.07-4.62a19.49,19.49,0,0,0-1.44-7.71,21,21,0,0,0-4.19-5.41c-.69-.69-1.41-1.35-2.15-2a7.81,7.81,0,0,0-1.64-1.35,1.08,1.08,0,0,1-.24-.18c.2.21-.12.35.15,0a7.49,7.49,0,0,0,.75-1.53,13.24,13.24,0,0,0,1.44-5.46,3.84,3.84,0,0,0-2.4-3.64,40,40,0,0,0-6.32-2.51c-1.65-.54-3.48-.84-5.08-1.5-.31-.13.19.19,0,0l-.26-.34a12,12,0,0,0-1.16-1.3,12.57,12.57,0,0,0-12.67-3h.63a9.47,9.47,0,0,0-6.36.33c-4.49,1.8-6.6,6.58-7.7,11l1.1-.45a7.34,7.34,0,0,0-2.8-.11,20.25,20.25,0,0,0-7.61,2.45,14.49,14.49,0,0,0-4.77,4.89,19.07,19.07,0,0,0-3.2,8.69c-.05.55,1.31.3,1.35-.17a18.28,18.28,0,0,1,2.61-7.7,15,15,0,0,1,4.48-5.09,16.94,16.94,0,0,1,6.84-2.31,6,6,0,0,1,2.27.09c.31.1,1-.09,1.09-.46,1.19-4.79,4-10.92,9.8-10.75a17.86,17.86,0,0,0,2.45.28,18.24,18.24,0,0,1,4.17-.52,10.27,10.27,0,0,1,3.6.95,12.82,12.82,0,0,1,4.05,3c.41.46.68,1,1.23,1.25,1.54.64,3.31.92,4.89,1.44a33.86,33.86,0,0,1,6.72,2.74c3.41,2,.9,7.38-.59,10,0,.08-.09.21,0,.28,3.08,2.32,6.4,5.27,8.12,8.78,1.29,2.61,1.43,5.86,1.47,8.73,0,1.25-.18,2.56-.07,3.8.46,4.87,1.66,9.66,1.95,14.57.32,5.47-5,10.47-9.72,12.27a11.23,11.23,0,0,1-4.79.8,8.88,8.88,0,0,1-4-1.56A27.36,27.36,0,0,1,278.3,318c-.3-.29-.91-.05-1.18.16.2-.15-.08.05-.17.1a8.6,8.6,0,0,1-.84.47,15.27,15.27,0,0,1-3.56,1.15c-4.87,1-10.06.26-14.78-1.11A19.13,19.13,0,0,1,244,303.63a18.25,18.25,0,0,1-.37-4.72.22.22,0,0,0-.14-.24,12.49,12.49,0,0,1-6.89-7.32,18.75,18.75,0,0,1-.94-5.08,31.56,31.56,0,0,1,0-3.37,3.79,3.79,0,0,1,.6-1.66C236.59,280.67,235.24,280.81,235,281.21Z"/><path class="cls-4" d="M389.06,268.6l-.85-1c-7.06-3.81-13.08-4.39-18-.15-.07,0-9.31-5.14-19.13,6.5-8.52,10.11-6.42,17.25-6.42,17.25s-6.48,2.23-8.07,5.09c-3.58,6.43-4,19.13,1.73,21.19s6.05,4.85,6.05,4.85,8.77,3.24,13.56,4,12.36-3.63,12.36-3.63,10.61,2.21,14,.12,5.83-9.59,5.83-9.59,11.23,0,11.92-8.34c0,0,4.36-4.46-.58-10.9a23.56,23.56,0,0,0-4.65-4.43s2.08-2.24,1.54-8.87C398.12,277.82,394.43,271.5,389.06,268.6Z"/><path class="cls-5" d="M389.68,268.37a9.15,9.15,0,0,0-.85-1,13.59,13.59,0,0,0-3.19-1.53,20.42,20.42,0,0,0-6.09-1.58,13.46,13.46,0,0,0-9.85,3.15l1.12-.18c-3.54-2-8.29-1.4-11.84.13-4.22,1.81-7.57,5.18-10.24,8.85A25.17,25.17,0,0,0,344,286.59a11.21,11.21,0,0,0,0,4.79l.42-.36a24.51,24.51,0,0,0-6.23,3.1c-2.56,1.82-3.56,4.75-4.22,7.72a24.37,24.37,0,0,0-.33,9.77c.47,2.43,1.54,5,3.95,6.07,2,.86,5.76,2.19,6.13,4.84a.14.14,0,0,0,.12.09c4.4,1.63,9,3.35,13.68,4,4.42.63,9.41-1.64,13.16-3.81l-.92.15c4.15.86,9,1.71,13.19.65,4.37-1.12,6.56-6.61,7.82-10.5l-.92.41A18.33,18.33,0,0,0,397,312a10.36,10.36,0,0,0,4.16-3.08,7.75,7.75,0,0,0,1.26-2.52,6.57,6.57,0,0,1,.54-1.92,8.4,8.4,0,0,0,1.54-4.52c0-2.9-1.61-5.51-3.53-7.56a22.73,22.73,0,0,0-1.73-1.67c-.17-.14-1.79-1.3-1.78-1.24,0-.17.47-.72.55-.89a14.47,14.47,0,0,0-1.32-13.6,20.43,20.43,0,0,0-7-6.66c-.35-.19-1.46.34-1.23.47,4.05,2.25,8,6.57,9.11,11.17a15.26,15.26,0,0,1-.26,7.17,5.84,5.84,0,0,1-1.07,2.41c-.05.06-.09.15,0,.21,4.64,3.52,9.24,9.11,5.47,14.85a5.65,5.65,0,0,0-.54,1.86,7.32,7.32,0,0,1-1.72,3.12,10.71,10.71,0,0,1-5.55,2.88,16.22,16.22,0,0,1-3.47.42c-.23,0-.83.12-.92.4a26.61,26.61,0,0,1-3.52,7.25,5.69,5.69,0,0,1-3.77,2.67,22.25,22.25,0,0,1-5.47,0c-1.47-.13-2.94-.32-4.39-.57a6,6,0,0,0-2-.26,9.73,9.73,0,0,0-2.2,1.07,30.82,30.82,0,0,1-5.12,2,11.93,11.93,0,0,1-6,.23c-1.94-.41-3.84-1-5.73-1.56-1.6-.5-3.18-1-4.76-1.58-.44-.15-.88-.29-1.31-.46s-.07.05-.18-.14a9.65,9.65,0,0,0-1.24-2,14.42,14.42,0,0,0-5-2.9c-3-1.26-3.84-5-4.08-7.91a24.3,24.3,0,0,1,2.19-12.35c1.44-3,5.06-4.48,8-5.51.11,0,.47-.19.42-.37-1.07-3.73.74-8.31,2.48-11.5,3.47-6.35,10-13.58,17.93-12.86a10.2,10.2,0,0,1,3.87,1,1.19,1.19,0,0,0,1.12-.19,11.16,11.16,0,0,1,9.75-2.41,23.51,23.51,0,0,1,4.72,1.55,11.79,11.79,0,0,1,2.46,1.23,8.38,8.38,0,0,1,.81,1C388.68,269.11,389.93,268.66,389.68,268.37Z"/><path class="cls-6" d="M296.36,274.45s6.49,34.67.2,46.19c-1.64,3-6.27,5.46-6.27,5.46l16.46,14c22.24,12.51,16.85,21.34,40.68,12.2l20.06-7.6s-15.69-7.2-16.16-11.23-1.56-31.6-1.56-31.6"/><polyline class="cls-7" points="-10 1069.13 1313.23 1069.13 1313.23 975.49 -10 975.49"/><path class="cls-8" d="M340.75,693.68c37.92,0,75.84-4.65,113.76-4.84,8.22,0,15.79,1.72,16.44,9.22,1.65,19.32,4,40.2-24.55,38.13-2.17-.15-4.42.24-6.55-.06-9.94-1.42-11.47,2.78-10.16,10.2,4.24,24,8.12,42.37,12,66.43,9.15,56.58,18.36,113.15,27.22,169.76,2.45,15.61,1.93,15.47-17.1,15.17-5.87-.09-8.34-1.63-9.16-6.82-8.74-55.68-17.83-111.32-26.5-167-1-6.5-3.37-9-11.48-9q-63.43.54-126.88,0c-8.33-.07-11.18,2.11-12.29,9.29Q253.23,903.51,240,982.71c-2.57,15.5-2.94,15.12-21.41,14.89-7.4-.09-8.24-2.33-7.31-8C225,906.85,238.31,829.73,252,747c1.4-8.49-.75-12.55-11.45-11.07-3.56.5-7.28.09-10.93.08-16.18,0-19.36-8.62-19.38-23.23,0-15.9,2.94-23.65,18.94-23.66q55.77,0,111.56,0Zm62.07,102.41c8.19.18,9.88-2.32,8.73-8.79-3.33-18.69-6.32-24-9.13-42.74-.94-6.22-3.24-8.95-11.54-8.82-33.49.53-67,.47-100.49,0-7.66-.09-10,2.39-10.92,8.26-2.94,19.38-6,25.3-9.43,44.62-1.1,6.25,1.78,7.47,8.25,7.39,21.12-.27,42.24-.1,63.36-.1C362,795.94,382.44,795.63,402.82,796.09Z"/><path class="cls-9" d="M441.61,812.84q2.11,13.1,4.24,26.19c-8.86,1.79-17.66,3.89-26.45,6.07q-1.66-10.58-3.33-21.15c-1-6.5-3.37-9-11.49-9q-63.43.54-126.87,0c-8.33-.07-11.18,2.11-12.29,9.29q-1.59,10.28-3.21,20.53A236.49,236.49,0,0,1,237.37,834c4.83-28.6,9.67-57.41,14.56-86.94a16.7,16.7,0,0,0,0-6.88q8.68.6,17.37.93c3.55.14,7.1.24,10.66.33a17.12,17.12,0,0,0-.61,2.7c-2.94,19.38-6,25.3-9.44,44.62-1.1,6.25,1.79,7.47,8.26,7.39,21.11-.27,42.24-.1,63.36-.1,20.39,0,40.79-.31,61.17.15,8.19.19,9.88-2.31,8.72-8.79-3.32-18.69-6.32-24-9.13-42.74a12.11,12.11,0,0,0-2.08-5.82c10.05-.31,20.09-.57,30.13-.69-1.36,1.81-1.41,4.66-.77,8.28C433.85,770.42,437.72,788.78,441.61,812.84Z"/><polygon class="cls-2" points="783.43 911.69 787.29 860.37 740.96 861.48 748.52 909.87 783.43 911.69"/><polygon class="cls-2" points="832.19 924.5 837.53 872.79 791.21 873.9 797.67 924.5 832.19 924.5"/><path class="cls-2" d="M751.08,906.69s-33,23.7-50.42,42.13h0s8.63,19.37,19.05,18.08,67.55-38.77,67.55-38.77l-4.65-21.2Z"/><polygon class="cls-10" points="764.24 965.8 777.25 969.66 776.41 931.61 765.8 939.13 764.24 965.8"/><polygon class="cls-11" points="776.28 930.55 777.25 969.66 790.18 964.39 785.99 931.61 776.28 930.55"/><path class="cls-10" d="M668.08,980.07a11.53,11.53,0,0,0,7,1.93c12-.71,49.69-.08,57.74-3,11.74-4.23,10-1.63,21.31-11.78,11.13-10,30.29-12.55,34.51-15.13s-1.64-21.57-1.64-21.57-.47-3.8-3.82-3.09l-.54.07-10.11,10.61-27.91,16.3-15.83,16.45-31.74.48-25.52-1.16s-5.78,1.65-6.74,2.71a4,4,0,0,0-.17,4.51A18.5,18.5,0,0,0,668.08,980.07Z"/><path class="cls-12" d="M785.85,921.72c-16.59,1.84-28.25,19.4-41.68,28.25-6,3.95-18.37,11.87-25.46,7a23.65,23.65,0,0,1-6.2-3.17c-8.39-5.71-13.18-5.31-13.18-5.31a25.85,25.85,0,0,1-7.05,6.21c-5,3.24-15.89,7.64-21.73,11.92s-3.44,7-3.44,7,4.72,3.35,8.45,3.45a182.29,182.29,0,0,0,19.36-.54c8.71-.7,35.09-.41,41.48-3.92,4.71-2.59,10.5-3.09,19.85-13.45,8.57-9.48,33.85-10.52,34.87-14s.39-12.3-1.84-16.71C789,927.83,786.43,922.83,785.85,921.72Z"/><path class="cls-2" d="M800.32,921.06s-33,23.7-50.42,42.13h0s8.63,19.38,19.05,18.08S836.5,942.5,836.5,942.5l-4.65-21.2Z"/><polygon class="cls-13" points="813.84 979.52 826.85 983.39 826 945.33 815.4 952.86 813.84 979.52"/><polygon class="cls-10" points="825.87 944.27 826.85 983.39 839.78 978.12 835.59 945.33 825.87 944.27"/><path class="cls-10" d="M717.68,993.8a11.42,11.42,0,0,0,7,1.92c10.29-.6,20.64-.42,30.94-.68,11.68-.29,23.58-.15,34.5-4.93,9.9-4.34,16.62-12.75,26.58-17a120.59,120.59,0,0,1,13.2-4.48c2.72-.8,5.9-1.35,8.34-2.85,4.22-2.58-1.63-21.57-1.63-21.57s-.47-3.79-3.83-3.09l-.53.07-10.12,10.61-27.9,16.3L778.43,984.6l-31.73.49-25.53-1.16s-5.78,1.65-6.73,2.7a4.06,4.06,0,0,0-.17,4.52A19,19,0,0,0,717.68,993.8Z"/><path class="cls-12" d="M835.45,935.44c-16.6,1.85-28.26,19.41-41.69,28.25-6,4-18.36,11.87-25.45,7a23.57,23.57,0,0,1-6.2-3.18c-8.4-5.7-13.19-5.3-13.19-5.3a25.84,25.84,0,0,1-7,6.21c-5,3.24-15.88,7.63-21.72,11.91s-3.45,7-3.45,7,4.72,3.35,8.46,3.45a178.67,178.67,0,0,0,19.35-.53c8.72-.7,35.1-.41,41.48-3.92,4.72-2.6,10.51-3.1,19.86-13.45,8.57-9.48,33.85-10.52,34.87-14s.39-12.31-1.84-16.72Z"/><path class="cls-8" d="M981.75,694.9c37.3,0,74.59-4.57,111.88-4.76,8.09,0,15.54,1.7,16.17,9.07,1.63,19,3.92,39.54-24.14,37.51-2.14-.16-4.35.23-6.44-.07-9.77-1.39-11.28,2.74-10,10,4.16,23.62,8,41.68,11.8,65.34,9,55.65,18.06,111.28,26.77,167,2.41,15.36,1.9,15.22-16.82,14.93-5.77-.09-8.21-1.61-9-6.71-8.6-54.76-17.53-109.48-26.06-164.25-1-6.39-3.31-8.89-11.3-8.82q-62.38.52-124.78,0c-8.19-.07-11,2.07-12.09,9.13q-12.07,78-25.07,155.91c-2.52,15.25-2.89,14.87-21.06,14.65-7.27-.1-8.1-2.29-7.19-7.84,13.44-81.42,26.58-157.27,40.05-238.69,1.38-8.34-.73-12.34-11.26-10.88-3.5.49-7.16.09-10.75.08-15.91,0-19-8.48-19.06-22.85,0-15.64,2.89-23.26,18.62-23.27q54.87,0,109.73,0Zm61,100.72c8.06.19,9.71-2.27,8.58-8.64-3.27-18.38-6.22-23.59-9-42-.92-6.11-3.18-8.8-11.35-8.67-32.93.52-65.89.46-98.83,0-7.54-.09-9.86,2.35-10.74,8.13-2.89,19.06-5.93,24.87-9.28,43.88-1.08,6.15,1.76,7.34,8.12,7.26,20.77-.26,41.54-.1,62.31-.1C1002.69,795.47,1022.76,795.17,1042.8,795.62Z"/><path class="cls-9" d="M1081,812.1l4.17,25.76c-8.71,1.76-17.37,3.82-26,6q-1.63-10.4-3.27-20.8c-1-6.4-3.31-8.89-11.3-8.82q-62.38.52-124.78,0c-8.2-.07-11,2.07-12.09,9.13-1,6.73-2.11,13.46-3.16,20.19a234.63,234.63,0,0,1-24.43-10.64c4.75-28.14,9.52-56.47,14.32-85.52a16.49,16.49,0,0,0,.05-6.76c5.68.39,11.38.69,17.07.91,3.5.14,7,.24,10.49.32a17.92,17.92,0,0,0-.6,2.67c-2.89,19.06-5.93,24.87-9.28,43.88-1.08,6.15,1.76,7.34,8.12,7.26,20.77-.26,41.54-.1,62.31-.1,20.06,0,40.12-.3,60.17.15,8.06.19,9.71-2.27,8.58-8.64-3.27-18.38-6.22-23.59-9-42a12,12,0,0,0-2-5.72c9.88-.31,19.76-.56,29.64-.68-1.35,1.78-1.39,4.58-.76,8.14C1073.31,770.38,1077.13,788.44,1081,812.1Z"/><path class="cls-14" d="M1050.11,510.83s56.12,86.76,21.7,152c-16.41,31.05-65.49,31-65.49,31L956,630.49V525.78Z"/><path class="cls-14" d="M707,624.35c2.54,76.27,8.7,188.65,20.81,266.5,0,0,74.77,19.64,83.46,2.58,0,0,6.52-131.79,35.42-225.27,25.45-82.32,179.87-88.6,160.27-96.06-30.87-11.75-228.92-37.38-267.17-23.6C714.43,557.65,705.33,573.79,707,624.35Z"/><path class="cls-14" d="M759.26,656.28c-.41-4.92-1.08-9.8-1.92-14.63a209.75,209.75,0,0,0-8.38-32,218.62,218.62,0,0,0-13.37-31,183.88,183.88,0,0,0-11.83-19.47c96.45-15.94,294.33,7.26,294.33,7.26s72.92,23,51.68,86.93C1041.62,738,832.15,683,760.27,656.66Z"/><path class="cls-14" d="M745.54,562a123.38,123.38,0,0,1,25.94,4.25,74.45,74.45,0,0,1-1.28-13.34q2.67-2.19,5.58-4.44A166.28,166.28,0,0,1,799,563.7a206.89,206.89,0,0,1,24.14,22,189.14,189.14,0,0,1,19.86,25c1.67,2.53,25.75,5.11,27.29,7.75-.28,0-1.18,15.18-1.45,15.21,21.8,41.18-12.45,102.12-10.31,175.37,1.87,64.31,2,49,5.5,83.2-10.29,15.45-89,8.22-89,8.22C765,801.16,745.54,562,745.54,562Z"/><path class="cls-15" d="M818.27,476.67a43.88,43.88,0,0,0-3.38-19.17,92.61,92.61,0,0,0-8.78-16.09,86.1,86.1,0,0,0-12.35-14.91,35.32,35.32,0,0,0-9.43-6.73l18.37-65.83,56.57,66.82S841,468.12,818.69,481.41c-.37.22-.75.42-1.13.63A38.3,38.3,0,0,0,818.27,476.67Z"/><path class="cls-15" d="M704.09,366.63l87.18,47,1.58-1.49c2.55,3.66,4,8.18,5,12.43a91,91,0,0,1,2.37,18.89,85.25,85.25,0,0,1-1.06,17.41,42.08,42.08,0,0,1-7.91,18.1,37.28,37.28,0,0,1-2.45,2.86c-36.62-3.26-93.71-75.79-110.28-86C684.36,382.82,692.7,383.13,704.09,366.63Z"/><path class="cls-1" d="M585,911.27l-.2-.15c-.38-.29-.16-1.12.48-1.84l3.83-4.27c.65-.72,1.48-1.07,1.86-.78l.2.16c.38.29.16,1.12-.48,1.84l-3.83,4.27C586.21,911.21,585.38,911.56,585,911.27Z"/><path class="cls-1" d="M591.27,913.7l-.34-.26c-.34-.27-.14-1,.44-1.66l2.73-3c.58-.64,1.33-1,1.67-.69l.34.26c.34.26.14,1-.43,1.65l-2.74,3C592.36,913.65,591.61,914,591.27,913.7Z"/><path class="cls-1" d="M596.47,916.54l-.4-.31c-.39-.31-.24-1.09.34-1.74l2.74-3c.58-.65,1.38-.92,1.78-.61l.39.31c.4.31.24,1.1-.34,1.74l-2.74,3C597.66,916.58,596.86,916.85,596.47,916.54Z"/><path class="cls-15" d="M855.55,458.17l-6-26.12-.92-.45c-.61-1-1.73-3-3.29-2.74-7.15,1.1-13.12-1.79-17.9-6.39s-9-9.21-13.86-13.53c-5.51-5-11.6-9.32-18.33-11.85.75-4.65,1.39-9.36,1.93-14,4.39-18.87,6.59-40.16,11.89-58.79,2.31-8.14,5-17.11,9.33-24.88a90.5,90.5,0,0,1,13.54-12.62l36.19-18.89,17.74-7.81,44.77-24.19,31.86,10.53s44.22,10.43,53.3,16.4c11.11,7.28,9.39,154.72,9.39,154.72s5.33,57.52,44.22,113.82c.26.37,1.37,3,1.54,3.46.5,1.33-7.68,7.67-8.76,8.45-3.35,2.43-9.12,3.37-12.93,5-7.75,3.25-14.4,3-22.6,4.71a337.63,337.63,0,0,1-33.73,5.38c-10.57,1.07-11.46,4.27-37.14,3.11l-114-14,9.77-40.38A148.52,148.52,0,0,0,855.55,458.17Z"/><path class="cls-2" d="M937.05,186.53s-.69,33,10.49,54c1.56,2.94,22.53,8.95,22.53,8.95l-25.3,12.94c-12.26,4.46-33.3,9.82-51.38,9.3-7.9-.23-19,.94-25.28-3.83h0s13.78-6.32,14.12-10.23-6.09-36-6.09-36"/><path class="cls-16" d="M880.88,247.13s6.79-5,11.23-6.86,12.36-2.61,31.23-23.71c0,0-3.35,23.41-29.81,31.7,0,0-7.38,2.62-12.12,2.09Z"/><path class="cls-2" d="M839.92,111.34a2.78,2.78,0,0,1-.2.52l.26-.27Zm-11.4,5.38,0,.21c.16-.19.32-.39.45-.58C829,116.1,828.52,116.72,828.52,116.72Zm108.39,74.87.57-4.47c6.94,6.55,15.11-1.08,13.7-11.93,2-5.9,2.68-24.51-2.74-29.26l-.68-.71c-3.55-1.85-9.29-1.91-10.87,2.64-.43,1.93.61,4.07.17,6-.37,2.19-2.55,6.6-3.53,8.65,0,0-3.62-10-4.39-14.79s-7.07-17.88-17-22.79c0,0-3.4-16.85-8.32-21l-1.48-.21c-.82.18-1.31.55-2.12.73-.06-.25.16-.56,0-1.06a9.07,9.07,0,0,1-3.5,1c.22-.31.71-.68.66-.93a14.67,14.67,0,0,1-3.28.72c.22-.31.66-.94.6-1.19-1.25.8-2.18.48-3.27.72a1.89,1.89,0,0,0,.32-1.12,7.48,7.48,0,0,1-3.22,1c.22-.31.38-.87.6-1.18-1.25.8-2.18.47-3.27.71-.28.06.43-.62.38-.87a10.44,10.44,0,0,1-2.68.85c-.05-.25.44-.62.38-.87-1.53.86-2.45.54-3.54.78l.59-1.18a3.92,3.92,0,0,1-3.16,1.21c.22-.31.65-.93.6-1.18a5.55,5.55,0,0,1-4.26,1.46c.27-.06.65-.93.6-1.18-1.15,1.3-2.29,1.29-3.66,1.59.22-.31.38-.87.82-1.5-1.42,1.37-3.22,2.29-5,1.89.27-.06.38-.87.33-1.12-.88,1.24.9-.46-.52-.41,0,0-2.92,1.69-3,1.44-.93,1,2-4.88.59-4.58.16-.57-7.74,2.18-7.3,1.56-1.14,1.3-1,.72-2.67.83,0,0-5,4.24-4.8,3.93-1.09,1.55-1.94.64-3.63.74.22-.31,1.22.84,1.44.53-.88,1.24-.79-.09-2.16.21,0-.25-4.82-.66-4.87-.91-1.2,1.06-.73,1.07-2.37,1.43,0-.26-.42,3-.2,2.67-.87,1.24-1,.41-2.42.46l-1.15,1.22c-1.09,1.56.66.6-1,.71,0-.18,6.33-.57,6.51-1a10.42,10.42,0,0,1-3.18,2.32c0-.25.11-.81.06-1.06a5.64,5.64,0,0,1-4,2.46c.27-.06.43-.63.38-.88-1.09,1.56-2.56,2.67-4.37,2.27v0a8.7,8.7,0,0,1-3.42,2.63,1.09,1.09,0,0,1,.32-1.12l-1.09.24c-.93,2.31-1.9,4.36-1.9,7,0,0-6.41,16.45-4.11,25.66s7.45,24.65,8.6,28.6a81.06,81.06,0,0,1,2.25,12.66c.83,8.29,1.26,10.43,5,18.1,3.66,7.42,6.53,11.2,12.48,17,6.2,6,14.2,10.7,21.82,15.33,5,3,11.55,5,17.67,3.93,17.09-2.91,31.36-18,39.77-31.29"/><path class="cls-17" d="M822.62,135.74c3.43-16.05,18.63-27.85,52.22-39.61s63.34-5,63.34-5c-26.87-45.93-76.66-33.33-87.84-30.88s-54.61,60.42-31.52,95.49l1.78,3.67S822,138.65,822.62,135.74Z"/><path class="cls-17" d="M944.8,78.89S942.16,47,917.27,41.56c-33.24-7.28-75.79-4.4-83.6,30.66Z"/><path class="cls-18" d="M958.14,154.72c2-3.07-.29-10.09,1.24-13.39,8-17.29,1.23-31-5-38.71-2.69-3.35-1.5-10.51-2.4-13.76-4.71-17.06-6.81-17.16-36.35-29.26-24-9.84-46.53-4.24-59.49-.67-20.74,5.71-29.7,9.05-33.79,25.53-.53,2.15.85,3.49.56,6-.41,3.55-4.3,7.58-4.25,12,0,0,28.09,2.41,53.91,9.83s77.43,46.77,78.92,61.62C951.59,174.35,956,158.11,958.14,154.72Z"/><path class="cls-17" d="M962.44,119.48s-50.29-40.2-93.68-31.14c0,0,53.84-19.36,87.18,15.26l.93,1.47a39,39,0,0,1,5.19,12.63Z"/><path class="cls-19" d="M941.65,183.45a5.25,5.25,0,0,1,5.11,7.81,6.24,6.24,0,0,1-.46.68h0l-.11.11a5.84,5.84,0,0,1-.9.67,4.69,4.69,0,0,1-4.39.35,1,1,0,0,0-.83.13c-.14.08-.38.3-.12.41a6.61,6.61,0,0,0,5.09-.1,6.79,6.79,0,0,0,2.34-1.57,5.57,5.57,0,0,0-.66-7.68,6.34,6.34,0,0,0-4.89-1.39c-.17,0-.67.15-.68.37s.33.23.5.21Z"/><path class="cls-20" d="M925.09,143.39l6.79,24.06,6.21-12.64S928.83,146.62,925.09,143.39Z"/><path class="cls-21" d="M938.07,165.84c.79-.16,1.9-.36,2.18.63a6.06,6.06,0,0,1-.18,2.57c-.31,1.79-.82,4.17.88,5.45,2.24,1.69,4.14-1.78,4.69-3.48a11.36,11.36,0,0,0,.08-6.92c-.73-2.38-2-5.32-4.73-5.86-.57-.12-1.18.69-.4.85,2.18.44,3.27,3.2,3.87,5.07a10.7,10.7,0,0,1,.18,6.29,6.13,6.13,0,0,1-1.91,3.44c-.72.49-1.4-.49-1.61-1.11-.57-1.71.23-3.63.37-5.35a2.39,2.39,0,0,0-.59-2.12c-.83-.68-2.1-.45-3-.26-.74.16-.51,1,.22.8Z"/><path class="cls-22" d="M865,200.67a8,8,0,0,0,7-2c.39-.37,1.94-.43,1.4.09a11.24,11.24,0,0,1-9.58,2.57c-.29-.08-.29-.28,0-.46a1.78,1.78,0,0,1,1.16-.2"/><path class="cls-22" d="M874.14,198a13,13,0,0,1,4.14-2.05,1.1,1.1,0,0,1,.72.06c.15.09.21.24.07.37a4.9,4.9,0,0,1-2.29,1.07.89.89,0,0,1-.8-.12c-.18-.18,0-.36.24-.4a3.85,3.85,0,0,0,1.84-.88l.79.43a11.56,11.56,0,0,0-3.7,1.84,1,1,0,0,1-.83.09c-.18-.06-.4-.24-.18-.41"/><path class="cls-22" d="M880.19,196.87c1.76-.43,3.67-1.66,4.25-3.17.88-2.29-1-5.19-3.53-6-.27-.08-.18-.29.05-.4a1.53,1.53,0,0,1,1,0,6.26,6.26,0,0,1,4.11,5c.11,1.82-1.31,3.41-3.32,4.39a9.84,9.84,0,0,1-1.9.7c-.27.06-.77.09-1-.09s.05-.33.3-.39"/><path class="cls-22" d="M861.54,200.49a.24.24,0,0,0-.3-.28,2.16,2.16,0,0,1-1.47-.15l-.34.67a6.45,6.45,0,0,1,3,.38.5.5,0,0,0,.54-.21c.1-.12.17-.37,0-.45"/><path class="cls-22" d="M862.93,200.45a7.26,7.26,0,0,0-3.34-.41.62.62,0,0,0-.43.32.26.26,0,0,0,.09.36"/><path class="cls-22" d="M857.91,201.54a3.73,3.73,0,0,1-3.54-1.47,5.29,5.29,0,0,1,.14-6,.21.21,0,0,0-.16-.35.72.72,0,0,0-.58.33,5.93,5.93,0,0,0-.82,5.21,4.16,4.16,0,0,0,3.42,2.91,4.3,4.3,0,0,0,1.34,0c.17,0,.47-.18.51-.41s-.14-.29-.31-.25"/><path class="cls-20" d="M834.39,171a4.35,4.35,0,0,0-4.3,1.71,4.28,4.28,0,0,0-.57,2,4,4,0,0,0,1.72,3.39,3.74,3.74,0,0,0,4.37-.19,4.15,4.15,0,0,0,1-5.14,3.69,3.69,0,0,0-2.18-1.81"/><path class="cls-20" d="M851.13,172.1s-8.65-4.19-12.5-3.74c-5.62.66-11.74,5.2-13.09,8.36,0,0,8-6.53,12-6.88C841.29,169.51,851.13,172.1,851.13,172.1Z"/><path class="cls-20" d="M880.48,161.15a5.24,5.24,0,0,1,5-.77,3.84,3.84,0,0,1,1.55,1.54,4,4,0,0,1-.15,3.79,3.74,3.74,0,0,1-4,1.66,4.14,4.14,0,0,1-3-4.27c0-.32-.41-.83.67-1.73"/><path class="cls-20" d="M874.79,166.15S882,159,886,158c5.94-1.49,13.85.45,16.41,2.89,0,0-10.54-3.1-14.7-1.94C883.76,160.07,874.79,166.15,874.79,166.15Z"/><path class="cls-20" d="M822.33,167.77a2.22,2.22,0,0,0,0-.45c-.11-.45-.22-.9-.31-1.35a3.54,3.54,0,0,0-.15-.92v0a6.46,6.46,0,0,0,.4-1.14,11.92,11.92,0,0,1,1-1.24,15.85,15.85,0,0,1,4.89-3.34c2.15-1,8.33-2.45,16.8-2.88l.57,3.39c.14.86.29,1.72.42,2.58-3-.24-5.54-.29-7.45-.28-4,0-6.11.05-8.33.82a22.3,22.3,0,0,0-4.94,2.54,13.81,13.81,0,0,0-2.49,1.93C822.55,167.52,822.44,167.64,822.33,167.77Z"/><path class="cls-20" d="M869.33,149.39c.35,1.08.71,2.17,1.07,3.26l.84,2.48c3-1.76,5.64-3.11,7.64-4.09,4.23-2.08,6.39-3.12,9.09-3.59a29.29,29.29,0,0,1,6.41-.32,17.08,17.08,0,0,1,3.56.4c2.62.64,4,1.87,4.32,1.62s-.68-1.39-.78-1.51a13.77,13.77,0,0,0-6.45-4,19.79,19.79,0,0,0-6.75-.41c-2.72.27-9.9,2.16-18.95,6.16"/><path class="cls-15" d="M1015.78,262.84s22.18,1,34.57,26.75,44.87,107.85,45.51,158.75c.47,37.41-61.08,69.79-61.08,69.79l-44.71-14.6,42.31-73.07s-15.87-49.35-21.19-71S1015.78,262.84,1015.78,262.84Z"/><line class="cls-23" x1="884.18" y1="388.84" x2="884.26" y2="390.08"/><path class="cls-24" d="M874.53,211.53c8.38-2.08,21.72-6.42,21.72-6.42s1.57,20.19-17.86,25S852.32,216,852.32,216,866.15,213.6,874.53,211.53Z"/><path class="cls-25" d="M874.45,211.55c4-1,19.87-5.64,19.87-5.64a24.21,24.21,0,0,1-17.54,16.68c-15.63,3.87-22.36-6.66-22.36-6.66Z"/><path class="cls-26" d="M874.42,212.19c4-1,15.94-4.66,15.94-4.66s-3.28,5.43-15.24,8.39-16.79-.33-16.79-.33Z"/><path class="cls-24" d="M851.14,215c.4-.21,2.91,0,4.84-.68,3.23-1.1,5.08-2.48,7.42-3.25,4-1.33,7-.36,8.77-.8s4-2.69,8.12-3.38c2.44-.41,8.57-1,11.93-1.54,2-.32,4.15-1.67,4.6-1.67.63,0,.55,4.6-21.74,10.12S850.59,215.27,851.14,215Z"/><path class="cls-27" d="M999.93,280.39a25.35,25.35,0,0,0-4.5,7.72,50,50,0,0,0-3.11,22.9c1,13.21,6.31,25.46,10.73,37.81q6.38,17.83,12.64,35.7,3.07,8.78,6.13,17.56c.48,1.4,3.37.61,2.89-.78q-8.21-23.74-16.68-47.41-3.6-10.09-7.24-20.18a97.32,97.32,0,0,1-5-18.5c-1.23-8.19-1-16.83,1.69-24.72a34.51,34.51,0,0,1,3.2-6.81,16.42,16.42,0,0,1,1.71-2.33.94.94,0,0,0-.4-1.51,1.9,1.9,0,0,0-2.05.55Z"/><path class="cls-27" d="M1026.53,438.28l-8.43,7.15L998,462.5l-24.44,20.73-21,17.86-10.28,8.72-.15.12c-1.49,1.27.86,2,1.88,1.16l8.42-7.14,20.13-17.08,24.44-20.73L1018,448.29c3.42-2.91,6.86-5.81,10.28-8.73l.14-.12c1.5-1.27-.85-2-1.87-1.16Z"/><path class="cls-27" d="M818.19,337.39c1.33,2.31,2.56,4.7,3.68,7.12,1.66,3.56,3.72,7.74,3.79,11.75.06,3.52-1,7.17-1.77,10.58-1.16,5.52-2.27,11.06-3,16.67-1.37,11-1.17,22.54,3.69,32.74a42.17,42.17,0,0,0,14.71,16.85,37.62,37.62,0,0,0,10.57,5.17,2,2,0,0,0,2.05-.55.91.91,0,0,0-.39-1.49,33.46,33.46,0,0,1-8.51-3.9,41,41,0,0,1-14.71-15.27c-5.29-9.68-5.83-20.93-4.7-31.69a170.27,170.27,0,0,1,2.82-16.93c.78-3.77,1.85-7.62,2.11-11.48.29-4.26-1.71-8.63-3.43-12.42-1.3-2.88-2.73-5.72-4.31-8.46-.68-1.19-3.43-.06-2.64,1.31Z"/><path class="cls-2" d="M942.15,510.83,948.47,521l7.5,10.51s-24.17,16.95-30,18-19.26,5.28-19.26,5.28a7.9,7.9,0,0,1,1.84,5,7.71,7.71,0,0,1-2.76,5.45l-8.54-7.13c-.4,4.6-5,2.62-5,2.62l-6.62-6.55c-.23,5.73-6.29,3.29-6.29,3.29l-5.74-10.22a18,18,0,0,1-3.71,5.94c-2.17,1.95-4.31-2.15-4.31-2.15L870,531.1l23.46-15.43,44.37-2.39Z"/><path class="cls-16" d="M885.62,525.08a39,39,0,0,0-4.34,3.22c-1.55,1.29-3.27,2.71-4.93,4.39a30.15,30.15,0,0,0-4.23,5.12,4.09,4.09,0,0,0-.72,3.07,17.5,17.5,0,0,0,.62,2.47,11.5,11.5,0,0,0,1.91,4.56c.15-.07-.42-1.76-1-4.71-.15-.74-.35-1.59-.45-2.4a3.14,3.14,0,0,1,.67-2.32,35.17,35.17,0,0,1,4.16-4.88c1.61-1.6,3.26-3,4.78-4.35s2.86-2.53,4.06-3.38a14.5,14.5,0,0,1,4.32-1.94A6.27,6.27,0,0,0,885.62,525.08Z"/><path class="cls-16" d="M892.88,533.34c-2.29,1.73-5.7,3.78-9.09,6.68a7.84,7.84,0,0,0-2.27,2.62,11,11,0,0,0-.26,3.18,10.44,10.44,0,0,0,1.14,5.12,20.14,20.14,0,0,0,2.17,2.71,8.9,8.9,0,0,0,.9.89,4.58,4.58,0,0,0-.53-1.17,22.55,22.55,0,0,1-1.79-2.82,10.34,10.34,0,0,1-.81-4.82,10.74,10.74,0,0,1,.26-2.71,7.31,7.31,0,0,1,1.95-2.12c3.28-2.8,6.64-5,8.81-6.95a11.93,11.93,0,0,0,3.19-3.45A34.57,34.57,0,0,0,892.88,533.34Z"/><path class="cls-16" d="M895.27,555.57a5.64,5.64,0,0,1-1.52-3,4.13,4.13,0,0,1,1.4-3.56,13.31,13.31,0,0,1,3.67-2.29l3.35-1.66c.84-.43,1.59-.9,2.09-1.12a3.68,3.68,0,0,1,.83-.22c.08-.06-.29-.37-1-.25a16,16,0,0,0-2.41.83l-3.46,1.42a12.44,12.44,0,0,0-4.08,2.46,5.2,5.2,0,0,0-1.67,4.64,6.32,6.32,0,0,0,2,3.42,7.32,7.32,0,0,0,3,1.81C897.69,557.88,896.56,557.12,895.27,555.57Z"/><path class="cls-27" d="M954.78,534.25A73.4,73.4,0,0,0,960,539.6a24.6,24.6,0,0,0,3.51,2.38,2.32,2.32,0,0,0,1.88.1c3.85-1,7.65-2.27,11.44-3.48a400.82,400.82,0,0,0,49.6-18.9c8.81-4.15,17.64-8.73,25.26-14.86.5-.39.29-.75-.24-.89a2.69,2.69,0,0,0-2,.54,103,103,0,0,1-17.57,11c-7,3.63-14.28,6.82-21.61,9.79-12.37,5-25,9.4-37.76,13.34-2.54.78-5.09,1.56-7.66,2.28l1.52.09a25,25,0,0,1-4.18-3l-4.67-4.79c-.64-.65-3.37.4-2.71,1.09Z"/><path class="cls-28" d="M457.08,501.92l-.15.05,0-.4Z"/><path class="cls-28" d="M541.64,428.41a.48.48,0,0,0,.16.08l.09-.41Z"/><path class="cls-2" d="M510.24,454.31l15.42-7.73S539.11,454.4,548,454a67,67,0,0,0,18.63-4.19L587,449.4s9.07,4.83,10.62,2.16-1.42-5.36-4.31-8-51.9-23.83-51.9-23.83a90.18,90.18,0,0,1,15.2-4.92c8-1.77,9.07-7.13,6.72-11.19s-14.25-.54-17.42,2.94-14,.2-21.79,3.15S511.48,423,511.48,423c-2.91,1.57-10.63,5-10.63,5C500.72,428.65,510.24,454.31,510.24,454.31Z"/><path class="cls-16" d="M576.32,445.5a5.54,5.54,0,0,0-1.73-3.24c-2.33-2.21-6.49-3.57-11-3.76a35.35,35.35,0,0,0-11.08,1.61,15.54,15.54,0,0,0-4.29,1.61,19,19,0,0,0,4.51-.75,45.49,45.49,0,0,1,10.87-1.24c4.24.16,8.22,1.39,10.37,3.18a5.67,5.67,0,0,1,1.83,2.69c.22.74.24,1.16.29,1.22S576.39,446.39,576.32,445.5Z"/><path class="cls-16" d="M554,434.41c-4-1.55-7.35-2.56-7.44-2.24s3.07,1.83,7.07,3.38,7.34,2.56,7.44,2.24S558,436,554,434.41Z"/><path class="cls-16" d="M542,431.9c1.62,3.69,1.42,6.87,1.72,7s1.1-3.37-.62-7.43-4.91-6.06-5-5.76S540.43,428.22,542,431.9Z"/><path class="cls-2" d="M416.5,466.74l95-43.73s-2.48,10.86,14.81,18.27c0,0-101.12,93.42-125.76,71.73Z"/><path class="cls-2" d="M480.86,876.75s20.73,41.37,29.64,60.8l-1,1.72s-8.29,9.18-16.27,5.2-42-51.81-42-51.81l8.19-13.12Z"/><path class="cls-29" d="M526.12,973.25s5.33-3.47,2.47-7.64-16.77-28.4-19.14-29.47c-1,1.49-4.25,2.08-9.65.3s-11.54-3.56-21.51-13.64c-7.48-7.55-23.12-22.7-27.8-32.49-1.57-3.27-1.85-10.83-1.51-11.67-16.13,3.8-20.91,16.37-18.62,21.87s25.48,24.14,25.48,24.14l18.11,20,19.74,15,8.72,5.76,11.33,5.63Z"/><path class="cls-30" d="M430,898.75c2,2.74,9.58,10,16.78,15.22,19.33,14,24.2,20.94,29.47,27.5a101.41,101.41,0,0,0,9.66,10.85c20.24,19.6,39.28,20.77,40,20.77a2.68,2.68,0,0,1-.14,1.51,22.56,22.56,0,0,1-6.86-.25c-8.44-1.64-19.95-4.79-35.87-19.62-4.51-4.2-7.29-6.64-9.91-9.92-3.95-4.92-8-10-18.48-18.37l-2.23,3.27s-21.33-13.63-27.94-24.06C427.29,900.2,430,898.75,430,898.75Z"/><path class="cls-30" d="M426.3,902.6c10.28,11.76,23.79,21.23,28.09,24.24l-2,2.87s-21.33-13.63-27.94-24.06A27,27,0,0,1,426.3,902.6Z"/><path class="cls-2" d="M409.71,606.51s85.54,6.5,104.54,9.29c27.84,4.1,40.46,12.77,42.87,29.25,5,34.32-76.2,233.87-76.2,233.87l-26.48,2.34,32.42-198.7-107.72,6.86Z"/><path class="cls-2" d="M407.71,635s100.9-7,121.74,4.82,15,29.2,11.28,49.07S463,896.93,463,896.93L437.6,881.26s10.66-128.4,15.9-149.12,15.95-39.57,15.95-39.57-84,2.13-99.62.17S407.71,635,407.71,635Z"/><path class="cls-16" d="M490.85,673.18a17.79,17.79,0,0,0-3.91,2.84,88,88,0,0,0-15.48,17,15.63,15.63,0,0,0-2.38,4.08c.3.19,4.42-5.75,10.45-12.35S491.08,673.44,490.85,673.18Z"/><path class="cls-31" d="M237.28,590.76c5.78,2.42,14.24-10.12,20.29-10.46,5.42-.31,11.24,5,16.51,3.72s6.44,4.07,11.67,2.55c10.74-3.12,19.47,5.55,29.71.89,19.07-8.67,23.78-8.22,38.58-24,2.71,7.28,21.5,6.5,28.68,6.69l51.16,14s127.82,22.4,123.3,59.08l-3.86-1.48S529,643,511.06,674.9c-14.79,26.26-46.71,27.73-46.71,27.73l-151.36,1c-29.22,4.51-58.83-9.39-76.88-36.1-12.67-23.55-9-71-9-77.59C230.83,592.52,233.25,589.08,237.28,590.76Z"/><path class="cls-2" d="M469.34,899.07l17.8,48.87c.62,4.23-49.51-7.46-56.55-65.7l11.81-5.49Z"/><path class="cls-29" d="M498.55,983.82s5.74-2.79,3.43-7.26-13-30.12-15.26-31.47c-1.17,1.35-4.5,1.54-9.64-.89s-11-4.93-19.66-16.11c-6.47-8.38-20.09-25.27-23.5-35.52-1.13-3.42-.44-10.93,0-11.72-16.55,1.78-22.93,13.63-21.36,19.34s22.26,27,22.26,27l15.45,22L468,966.42l7.94,6.76,10.55,7Z"/><path class="cls-30" d="M412.46,898.41c1.67,3,8.24,11.09,14.75,17.1,17.45,16.16,21.4,23.66,25.79,30.79a98.88,98.88,0,0,0,8.23,11.9c17.62,21.86,36.43,25.35,37.13,25.43a2.71,2.71,0,0,1-.34,1.47,22.62,22.62,0,0,1-6.8-1.08C483,981.36,472,976.85,458,960.24c-4-4.71-6.4-7.47-8.59-11-3.3-5.35-6.68-10.84-16-20.43l-2.64,3s-19.49-16.08-24.73-27.2C409.56,899.51,412.46,898.41,412.46,898.41Z"/><path class="cls-30" d="M408.26,901.76c8.72,12.88,20.95,23.9,24.84,27.39l-2.32,2.6s-19.49-16.08-24.73-27.2A27.49,27.49,0,0,1,408.26,901.76Z"/><path class="cls-3" d="M385.87,479.38C403,461.43,396.76,433.64,396,425.32c-1.36-15.2-3.52-23.31-8.84-37.51-4.89-13.08-5.86-23.78-11.72-36.46-.93-2-7.94-6.69-12.14-9.16.13.51-11.22-7.21-10.88-6.62,3.37,5.85.55,13.65-5,14a51.67,51.67,0,0,1-28.59-6.5c-4.58-2.63-9-5-12.71-8.75-3.23-3.22-8-6.82-9.41-11.21-1.11-4.25-.47-1.84-.47-1.84-3.19,1.46-29.47,13-37.89,29.82C247.2,373.32,246.8,454.18,239.12,509c-3.71,26.39-11.67,74.49-16.17,88.82,14,5.4,23.81,3.48,38.63,6.47a108.11,108.11,0,0,0,22,2.16A143.85,143.85,0,0,0,309,603.55a196.62,196.62,0,0,0,39-11.45c12.83-5.3,25.1-12.05,35.76-20.75q2.14-1.76,4.2-3.62C381.41,548.07,370.3,504.16,385.87,479.38Z"/><path class="cls-15" d="M844.93,450.42s-13.24,31.82-35.08,37.06-52.2-19.5-52.2-19.5l42.63-45.6Z"/><path class="cls-27" d="M785.47,411.77a35.11,35.11,0,0,1,8.16,4.55,51.08,51.08,0,0,1,6.81,5.35,18.06,18.06,0,0,1,4.21,7.71c1,3.17,2,6.34,3,9.51.18.59,3.06-.24,2.89-.77-1-3.17-2-6.35-3-9.51a18.72,18.72,0,0,0-4.08-7.6,46.69,46.69,0,0,0-6.92-5.52,35.83,35.83,0,0,0-8.34-4.68,3,3,0,0,0-1.85.21c-.1,0-1.3.6-.89.75Z"/><path class="cls-32" d="M390.6,388.41a37.69,37.69,0,0,0-2.4,7.85,20.26,20.26,0,0,0,.71,11.39,150.27,150.27,0,0,1,6.36,21.27c2,9.55,3.07,19.77.76,29.37a52.84,52.84,0,0,1-5.6,14.12A25.33,25.33,0,0,1,385,479c-1.49,1.27-3.22,2.39-4.2,4.12-1.13,2-1.57,4.43-2.27,6.59-.25.79,2.6.42,2.88-.44a57.07,57.07,0,0,1,2-6c.68-1.51,2-2.4,3.24-3.42,5.74-4.7,8.86-11.35,11.17-18.27,3.13-9.39,2.78-19.51,1.14-29.15a135.2,135.2,0,0,0-6.43-23.53c-.46-1.26-1-2.52-1.39-3.81a17.52,17.52,0,0,1-.35-7.59,36.87,36.87,0,0,1,2.68-9.49c.3-.69-2.51-.4-2.88.44Z"/><path class="cls-33" d="M550.56,650.16c-.69,6.42-2.78,12.8-4.56,19-3,10.44-6.32,20.8-9.68,31.14q-6.06,18.66-12.43,37.23-6.2,18.19-12.55,36.35Q506.2,788.62,501,803.37c-1.86,5.28-3.75,10.54-5.57,15.83-2.43,7.09-5.45,14-8.33,20.9q-7.06,17-14.31,33.95c-1.55,3.65-3.11,7.31-4.67,11a11.47,11.47,0,0,0-.85,2,4.67,4.67,0,0,0,.44,2l8.62,28.94.76,2.58c.21.68,1.66.29,1.45-.39l-7.7-25.87-1.71-5.77c-.14-.44-.23-.93-.41-1.36s-.15.3,0,0c1-2.34,2-4.68,3-7q6.85-16.08,13.63-32.19C489,839,493,830.1,496.25,821c1.49-4.16,2.91-8.35,4.38-12.51q4.75-13.47,9.47-26.94,6.21-17.7,12.3-35.45,6.42-18.72,12.65-37.52c3.63-11,7.2-22,10.53-33.13a229.09,229.09,0,0,0,5.95-22.27c.2-1,.38-2.08.5-3.13.08-.76-1.4-.58-1.47.1Z"/><path class="cls-16" d="M312.11,301.25s4.79,14.76,31.4,19.64c0,0,6.17,1.48,7.13.82l-.6-7.79Z"/><path class="cls-34" d="M387.34,266.66s16.59,5.41,16.59,16.51l-1,7.7s7.73,2,7,7.43"/><path class="cls-35" d="M272.81,236.85s-19.53-52.52,13.54-54.1a22.25,22.25,0,0,1,9-9.52c8-4.67,15.9.38,15.9.38s7.22-6.4,14.39-5.18,9.89,5.36,9.89,5.36,8.54-4,14.78-.95,10.6,9.36,10.6,9.36,5.27-.79,8.56.8c7.86,3.81,8.55,21.35,9.51,27.57,0,0-6.29-21-13.28-21.88s-68.36,12.64-68.36,12.64l-18.27,54.6Z"/><path class="cls-6" d="M297.81,291.32c11,11.25,34.33,24.53,49.08,26.85,14.46,2.28,19.07-2.7,21-4.9,10.43-12.12,17-24.24,20.53-38a33.47,33.47,0,0,0,.45-11.81c-.65-6.1-2.33-17.79-2.51-23.65-.45-14.92-7.63-27.52-16.4-39.67-18.28-25.33-54.08-23.8-68.88-15.92-17.29,9.2-24.5,26.64-24.76,44.84a49.2,49.2,0,0,0,2.47,16.51,52.42,52.42,0,0,1,6.94,8.69"/><path class="cls-4" d="M369.21,194.13s4.29,8.83,12.85,26.63c-2.16-5.68-3.56-14.31-8.82-22.15-18.35-27.37-69.13-21.3-83.91-12.85-17.27,9.88-23,28.36-23.21,48-.08,8-.19,13.07,2.47,19.56.12.08,1.58,1.48,1.58,1.48s16.14,2.35,21.87,11.82l-.16-8.47s.23-5.22,3.67-24.79c0,0,.21-3.09,5.13-15.65s10.43-16.32,10.43-16.32S337,196,343.18,195.73,369.21,194.13,369.21,194.13Z"/><path class="cls-5" d="M368.56,194.31q6.45,13.31,12.85,26.63c.2.42,1.46.07,1.3-.35-1.56-4.19-2.56-8.57-4.12-12.76a39.43,39.43,0,0,0-23-24c-12.83-5.52-27.52-6.39-41.27-5a88.58,88.58,0,0,0-17.54,3.47,41,41,0,0,0-15.35,8.7,46.32,46.32,0,0,0-12.94,21.24c-2.65,8.79-3.12,18-3,27.09a38.15,38.15,0,0,0,2.2,13.4,4.69,4.69,0,0,0,2.13,2.41,8.46,8.46,0,0,0,1.24.22c6,1.19,12.33,3.41,17,7.5a17.68,17.68,0,0,1,3.42,4c.23.37,1.27,0,1.27-.43-.05-2.74-.26-6-.16-8.48.1-2.27.48-4.56.79-6.81.83-6,1.89-12,2.88-18a58.54,58.54,0,0,1,3-10c2.44-6.73,5.08-13.64,9.79-19.14a21.33,21.33,0,0,1,1.68-1.75c.12-.11.82-.56.85-.72,0,.13-.64.2,0,.09s1-.21,1.52-.31c9.27-1.91,18.63-4,28-5.07,4.38-.49,8.84-.52,13.24-.79q6.94-.44,13.91-.92l.86,0c.64-.05,1.09-.77.18-.71q-13.05.9-26.1,1.6a105.56,105.56,0,0,0-13.46,2c-5,.91-10,1.9-15,2.91-1.83.38-3.62.43-5,1.72-4,3.68-6.76,8.85-8.88,13.81a95.05,95.05,0,0,0-5.74,16.55c-1.09,5-1.74,10-2.5,15.05-.51,3.36-1,6.74-1.31,10.14a71.44,71.44,0,0,0,.08,7.46l0,1.76,1.26-.43c-3.53-5.7-10.21-8.75-16.41-10.59-1.79-.53-3.6-.93-5.43-1.28-.28-.06-.18-.06-.09,0a7.41,7.41,0,0,1-1.38-1.3,9.26,9.26,0,0,1-1.1-2.83,33.08,33.08,0,0,1-.84-3.4c-.86-4.6-.7-9.37-.61-14a87.17,87.17,0,0,1,1.19-13.2c1.43-8.22,4.31-16.29,9.39-23a38.71,38.71,0,0,1,16.29-12.65,71.66,71.66,0,0,1,15.82-4c13.39-2,27.72-1.71,40.66,2.63a46.37,46.37,0,0,1,17.25,9.93c6.53,6.16,9.72,14.28,12.24,22.72.55,1.85,1.1,3.71,1.78,5.53l1.3-.35q-6.4-13.32-12.84-26.63C369.65,193.52,368.38,193.93,368.56,194.31Z"/><path class="cls-6" d="M295.45,283.88c-7.19,8.1-14-3.76-14-3.76a36.76,36.76,0,0,1-9.91-24.27c0-6.4,7-6.61,7-6.61,6,.4,5.19,1.14,14,17.79"/><path class="cls-21" d="M287.08,267.12a51.22,51.22,0,0,0-4.51-8.46,15.71,15.71,0,0,0-3.29-3.71,4.75,4.75,0,0,0-1.78-.93c-.77-.16-1.13.47-1.45,1.07a12.2,12.2,0,0,0-.76,8.35c.08.34,1.07.1,1-.26a12.94,12.94,0,0,1,.12-6.71,6.64,6.64,0,0,1,1.1-2.19l-.65.27c-.15,0,.24.06.26.07a5.09,5.09,0,0,1,1.2.68,18.56,18.56,0,0,1,4.36,5.33,57,57,0,0,1,3.41,6.76c.15.34,1.13,0,1-.27Z"/><path class="cls-21" d="M286.89,270.13c-4.22.44-.6,5.7-.86,8,0,.08-.11.31-.11.38l0,0c-.11.14,0,.12.31,0,0,0-.13-.11-.11-.07-.16-.3-.53-.59-.73-.89a19.2,19.2,0,0,1-1.66-3.77,15.23,15.23,0,0,1-1-4.59c-.07-1.94,0-4.75,1.89-5.9.57-.35-.28-.54-.62-.33-1.74,1.08-2.19,3.25-2.26,5.15a13.55,13.55,0,0,0,.45,4.35,27,27,0,0,0,1.73,4.54c.33.67.78,1.7,1.52,2a1.13,1.13,0,0,0,1.49-.68,3.8,3.8,0,0,0-.19-2.13c-.28-1.08-2.05-5.24,0-5.46.5-.05.81-.67.12-.59Z"/><path class="cls-4" d="M332.33,247.9a4.49,4.49,0,0,0-4.78,1.3,4.32,4.32,0,0,0-1.13,2.14,4.5,4.5,0,0,0,1.41,4,4.18,4.18,0,0,0,4.86.42,4.63,4.63,0,0,0,1.8-5.55,4.13,4.13,0,0,0-2.16-2.3"/><path class="cls-4" d="M341.63,254.28s-6.8-8.4-13.22-7.85c-9,.79-10.7,6.22-12.42,9.12,0,0,5.3-6.92,12.29-7.35C334.63,247.81,341.63,254.28,341.63,254.28Z"/><path class="cls-4" d="M376.2,244a4.53,4.53,0,0,1,4.94.46,4.42,4.42,0,0,1,1.48,1.92,4.5,4.5,0,0,1-.7,4.17,4.17,4.17,0,0,1-4.71,1.25,4.62,4.62,0,0,1-2.73-5.15A4.14,4.14,0,0,1,376.2,244"/><path class="cls-4" d="M363.65,252.35s4.8-9.41,10.74-9.93c8.37-.72,10.79,4.36,12.85,6.93,0,0-6-5.94-12.44-5.21C369,244.81,363.65,252.35,363.65,252.35Z"/><path class="cls-4" d="M387.16,233.24a.51.51,0,0,1,0-.13,13.18,13.18,0,0,0-3.57-1.36c-6.53-1.59-9.83-1.38-19.8,1.11v.23c0,1.28,0,.56,0,1.85,0,1,0,1.95,0,2.92,3-.8,5.16-1.68,7.1-2,3.85-.67,8.26-1.95,12.14-1.3a12.11,12.11,0,0,1,4,1.26C387.1,235,387.13,234.1,387.16,233.24Z"/><path class="cls-4" d="M339.88,236.07c.1,1.28,0,.56.15,1.84.07,1,.15,2,.22,2.92-3.19-.55-5.5-1.26-7.54-1.44-4.06-.36-8.73-1.29-12.72-.33-1.91.46-4.47.83-5.71,2.68-.33.5-1.07,2.58-1.86,2.3-.33-.11.05-1.73.09-1.89.79-3.25,3.4-4.8,6.68-5.83,6.67-2.11,10.13-2.17,20.68-.47"/><path class="cls-22" d="M360.71,275.32a6.5,6.5,0,0,1-5.95.07c-.39-.21-1.62.11-1.07.4a9.12,9.12,0,0,0,8.08-.23c.21-.13.16-.29-.12-.36a1.43,1.43,0,0,0-.94.12"/><path class="cls-22" d="M352.93,275.36a10.61,10.61,0,0,0-3.71-.64.9.9,0,0,0-.55.22c-.1.11-.11.24,0,.3a4,4,0,0,0,2,.32.79.79,0,0,0,.6-.29c.1-.18-.12-.28-.28-.26a3.18,3.18,0,0,1-1.65-.26l-.51.52a9.55,9.55,0,0,1,3.32.58.75.75,0,0,0,.66-.12c.13-.09.26-.29.05-.37"/><path class="cls-22" d="M347.94,275.9a5.05,5.05,0,0,1-4.06-1.5c-1.22-1.6-.4-4.5,1.36-5.71.19-.13.08-.27-.13-.3a1.2,1.2,0,0,0-.77.22,5.46,5.46,0,0,0-2.06,5c.34,1.46,1.82,2.38,3.62,2.67a8.18,8.18,0,0,0,1.65.11c.22,0,.62-.11.71-.3s-.11-.25-.32-.23"/><path class="cls-22" d="M363.35,274.36a.19.19,0,0,1,.17-.29,1.72,1.72,0,0,0,1.11-.46l.43.45a5.11,5.11,0,0,0-2.25,1,.43.43,0,0,1-.48,0c-.1-.07-.21-.25-.08-.36"/><path class="cls-22" d="M362.25,274.66a5.87,5.87,0,0,1,2.52-1.11.52.52,0,0,1,.41.15.21.21,0,0,1,0,.3"/><path class="cls-22" d="M366.43,274.33a3,3,0,0,0,2.42-2,4.36,4.36,0,0,0-1.49-4.66.18.18,0,0,1,.05-.32.57.57,0,0,1,.52.13,4.86,4.86,0,0,1,1.86,3.91,3.43,3.43,0,0,1-2,3.09,3.53,3.53,0,0,1-1.05.31c-.14,0-.41,0-.49-.2s0-.26.18-.28"/><path class="cls-36" d="M373.89,188.78A29.85,29.85,0,0,0,360,183.65c-.21,0-.43,0-.64,0l-2.84,1.06-.1,0,.11,0c.51-.22,1.61-.78,1.16-1.41a2.4,2.4,0,0,0-1.12-.68,24.29,24.29,0,0,0-3.84-.87v0l-.44,0-.43-.07v0a23.78,23.78,0,0,0-3.94-.1,2.39,2.39,0,0,0-1.25.38c-.59.5.33,1.32.77,1.65l.1.07-.09-.06-2.5-1.72a6.19,6.19,0,0,0-.62-.13c-6.37-1.2-17.06,2.79-18.09,3.47s-.55,2-.51,2.14l-1.63-1.58s-8.06,2-9.5,2.82a6.86,6.86,0,0,0-2.32,3s-2.45.57-3.26.19-5.46,1.34-7.58,3.71c-1.36,1.51-1.14,3.13-1.9,4.51h0c-.42.78-.68,1.3-.68,1.3l-4.7.94c-3.83,1.28-3.86,8.85-3.86,8.85-8.2,7.84-9.49,15.23-7.3,23.64.85,3.24-8.35,5.25-2.69,5.84s11,20.68,11,20.68A115.84,115.84,0,0,0,294.89,250c.65-3.22.26-13,.26-13l2.81,0s1.76-.47,4.24-3.9-.4-10.43-.4-10.43l-.59-4.08,5.34,1c5.3-.24,6.3-5.84,6.3-5.84l.27-9.49,2.73,3.54a3.87,3.87,0,0,0,2.84,1.72c8.13.4,9.71-4.5,9.71-4.5l1.67-4.59,1.87,1.62c1.94,2,8.21,5.6,11.75,4.58.94-.28,5-2.68,5.67-3a7,7,0,0,0,3-4.46c1.73,2.11,4.08,4.37,6.42,4.77,2.85.48,9.15.06,10.08-1.17.62-.82-.27-1,.77-.87a3.47,3.47,0,0,1,2.11,1.65s2,8,8.91,11.71,8.51-13.79,2.09-17C382.78,198.21,382.77,188.81,373.89,188.78Z"/><path class="cls-35" d="M271.72,205.25s-7.83,1.82-10.44,5.94c-6.72,10.64-3.71,37.52,2.54,43.19l6.32,1.51Z"/><path class="cls-34" d="M264.64,251.5s-11-1.78-13.35,4.91l-1.06,3.18s-12.11-3.64-16.25,2-5.71,17-5.71,17"/><path class="cls-24" d="M355.48,286c-7.19.19-18.87-.33-18.87-.33s2,16.84,18.68,16.42,19-17.38,19-17.38S362.67,285.86,355.48,286Z"/><path class="cls-37" d="M355.55,286c-3.42.09-17.22-.12-17.22-.12A19.86,19.86,0,0,0,356,295.77c13.41-.34,16.61-10.62,16.61-10.62Z"/><path class="cls-26" d="M355.71,286.53c-3.42.09-13.84-.2-13.84-.2s3.84,3.51,14.1,3.25,13.42-3.85,13.42-3.85Z"/><path class="cls-24" d="M375,283.71a27.48,27.48,0,0,1-4.05.52c-2.83-.17-4.62-.84-6.68-.94-3.5-.17-5.69,1.22-7.22,1.26s-3.78-1.24-7.27-.89c-2.05.2-7.11,1-9.93,1.36a27.27,27.27,0,0,1-4.06-.31c-.5.14.57,3.69,19.7,3.2S375.54,283.82,375,283.71Z"/><path class="cls-2" d="M235,540.67a102.26,102.26,0,0,1,24.8-2.57l-1.64-3.52,8.22-131.85,15.9-69.5s-60.59,11-63.42,43.63c-4.6,53-13.65,136.39-4.7,172.48A68.09,68.09,0,0,1,235,540.67Z"/><path class="cls-2" d="M252.75,529.7c-2.64,1.89-5.22,3.88-7.7,6-8.65,7.35-16.3,16.15-21.06,26.53-.56,1.22-1.07,2.45-1.54,3.7l1.29,1c13.68,10.43,33.54,18.79,49,26.21,22.29,10.71,46.44,8.92,68.74,19.63l12.74-19.32Z"/><path class="cls-2" d="M348.92,590.75l-4.51,10.08-5.55,10.57s24.27,12.49,29.77,12.74,18.31,2.41,18.31,2.41a7.35,7.35,0,0,0-1.06,4.84,7.16,7.16,0,0,0,3.21,4.64l6.94-7.61c.94,4.17,4.92,1.78,4.92,1.78l5.24-6.83c.93,5.21,6.18,2.22,6.18,2.22l4-10.09a16.58,16.58,0,0,0,4.14,5c2.24,1.51,3.69-2.51,3.69-2.51l-6.59-17.72-23.43-11.18-40.95,3.38Z"/><path class="cls-16" d="M402.5,596.7a38.77,38.77,0,0,1,4.38,2.4c1.58,1,3.33,2.08,5.06,3.41a27.43,27.43,0,0,1,4.52,4.16,3.77,3.77,0,0,1,1.05,2.72,18.39,18.39,0,0,1-.25,2.34,10.67,10.67,0,0,1-1.19,4.42,42.9,42.9,0,0,1,.37-4.45c.05-.7.12-1.49.12-2.25a2.93,2.93,0,0,0-.91-2,32.49,32.49,0,0,0-4.42-3.95c-1.68-1.27-3.37-2.36-4.93-3.39s-2.94-2-4.14-2.58a13.46,13.46,0,0,0-4.2-1.24A5.85,5.85,0,0,1,402.5,596.7Z"/><path class="cls-16" d="M396.89,605.18c2.31,1.3,5.69,2.75,9.16,5a7.32,7.32,0,0,1,2.41,2.12,10.11,10.11,0,0,1,.64,2.88,9.79,9.79,0,0,1-.4,4.83,18.72,18.72,0,0,1-1.65,2.75,8,8,0,0,1-.71.93,4.24,4.24,0,0,1,.33-1.13,19,19,0,0,0,1.29-2.82,9.56,9.56,0,0,0,.14-4.51,10.29,10.29,0,0,0-.58-2.45,6.71,6.71,0,0,0-2-1.7c-3.36-2.15-6.72-3.76-9-5.25a11.08,11.08,0,0,1-3.36-2.77A33.61,33.61,0,0,1,396.89,605.18Z"/><path class="cls-16" d="M397.49,625.85a5.3,5.3,0,0,0,1-2.94,3.85,3.85,0,0,0-1.74-3.09,12.45,12.45,0,0,0-3.64-1.64l-3.28-1.1c-.83-.29-1.57-.62-2.05-.76a4.79,4.79,0,0,0-.8-.1c-.08,0,.22-.37.86-.34a14.84,14.84,0,0,1,2.3.45l3.35.87a11.76,11.76,0,0,1,4.05,1.74,4.82,4.82,0,0,1,2.12,4,6,6,0,0,1-1.43,3.39,6.86,6.86,0,0,1-2.54,2C395.57,628.27,396.5,627.43,397.49,625.85Z"/><path class="cls-2" d="M211.71,529.39s.25,24.7,6.37,32.24,18.45,13.64,18.45,13.64L266,538.05l-12.2-12.26Z"/><path class="cls-3" d="M284.72,327.13s-44.6,13.38-61.77,32.66-16.8,73.12-16.8,73.12,38.57,5.82,62.39,2.91S284.72,327.13,284.72,327.13Z"/><path class="cls-32" d="M263.58,436.53c1.2,1.79,3.92,1.26,5.54.35,2.21-1.25,2.31-3.8,2.4-6.07q.42-10.26.82-20.53c.27-6.75.57-13.49.81-20.24.21-6.08.24-12.42-2-18.19-2-5.23-5.8-9.86-11.19-11.75a2.84,2.84,0,0,0-2,.33c-.31.17-1,.66-.32.89,9.78,3.43,12.54,14.71,12.68,23.94.09,5.69-.31,11.4-.54,17.09l-.7,17.66-.4,9.86a23.76,23.76,0,0,1-.34,4.54c-.12.5-.38,1.51-.87,1.81-.3.18-.68,0-1-.47-.52-.79-3.21.3-2.9.78Z"/></g><g id="Layer_13" data-name="Layer 13"><path class="cls-6" d="M703.93,368.15l-10.33-8.61s-6.86-11.58-10.31-14.62-19.94-11-20.82-11.14-14.77-18.35-18.77-16.72-6.15,5.22-3.69,10.48,14.25,14.13,12.14,16.55a19.28,19.28,0,0,1-6.09,4.08s-2.64-6.09-6.6-7.32-7.14,3.11-7.14,3.11l.55,2.77-4.19-2.34s-6.64-11.91-12.1-10.56a23,23,0,0,0-7.13-6,4.86,4.86,0,0,0-6.41,2.49,4.94,4.94,0,0,0-.38,1.35h0l16.66,26.61,34.14,23.46s17.21,1.59,20.8,2.32l7.82,6.86Z"/><path class="cls-16" d="M652,344.91c-.28-.25.88-1.93,3-3.17s4.18-1.4,4.26-1-1.61,1.14-3.55,2.27S652.23,345.2,652,344.91Z"/><path class="cls-16" d="M622.51,357.53a30.25,30.25,0,0,0-2.12-6.13c-1.49-3.77-3.65-9-6.21-15l-.22.91c.86-.66,1.85-1.62,2.65-2.1a3.77,3.77,0,0,1,3-.3,8.53,8.53,0,0,1,4.31,3.26,30.94,30.94,0,0,1,3,4.56c1.57,3.17,2.84,6.2,3.91,8.63a55.68,55.68,0,0,0,3.72,7.94c.21-.05-.77-3.25-2.66-8.38-1-2.54-2.1-5.55-3.65-8.84a29.36,29.36,0,0,0-3-4.89,9.93,9.93,0,0,0-5.14-3.85,5.43,5.43,0,0,0-4.16.48,30.38,30.38,0,0,0-2.9,2.29l-.46.37.25.54c2.65,6,5,11.15,6.73,14.8A30.28,30.28,0,0,0,622.51,357.53Z"/><path class="cls-16" d="M663.92,373.83a10.73,10.73,0,0,0-.42-1.2,17.61,17.61,0,0,0-1.92-3A44.19,44.19,0,0,0,652,361l.22.22c-3.19-5.1-3.38-13.54-10.09-19.52a6.69,6.69,0,0,0-5.77-1.1,9.77,9.77,0,0,0-4.64,3l-.3.33.11.44c2.92,7.89,5.5,14.68,7.4,19.48A13.48,13.48,0,0,0,642.1,369c1,1,1.62,1.48,1.67,1.33a10.61,10.61,0,0,0-1.29-1.76,14.37,14.37,0,0,1-2.65-5.28c-1.63-4.88-4-11.73-6.84-19.62l-.14.78a8.44,8.44,0,0,1,3.87-2.43,5.13,5.13,0,0,1,4.43.87,12.22,12.22,0,0,1,3.49,4.32,49.14,49.14,0,0,1,2.38,5c.72,1.71,1.18,3.31,1.81,5a28.58,28.58,0,0,0,2.18,4.53l0,.15.13.09a49.89,49.89,0,0,1,9.68,8C663,372.31,663.75,373.93,663.92,373.83Z"/><path class="cls-16" d="M693.6,359.54s-1.29,7.29-10.37,11.65C683.23,371.19,695.9,369.08,693.6,359.54Z"/></g></svg>