<?xml version="1.0" encoding="utf-8"?>
<!-- Generator: Adobe Illustrator 26.0.1, SVG Export Plug-In . SVG Version: 6.00 Build 0)  -->
<svg version="1.1" id="Layer_1" xmlns="http://www.w3.org/2000/svg" xmlns:xlink="http://www.w3.org/1999/xlink" x="0px" y="0px"
	 viewBox="0 0 637.3 635.8" style="enable-background:new 0 0 637.3 635.8;" xml:space="preserve">
<style type="text/css">
	.st0{fill:#C3E6F7;}
	.st1{fill:#161412;}
	.st2{fill:#171413;}
	.st3{fill:#A66F54;}
	.st4{fill:none;stroke:#171413;stroke-width:1.19;stroke-miterlimit:10;}
	.st5{fill:#161412;stroke:#171413;stroke-width:0.51;stroke-miterlimit:10;}
	.st6{fill:#412319;}
	.st7{fill:#221F20;}
	.st8{fill:#010101;}
	.st9{fill:#639FB0;}
	.st10{fill:#865823;stroke:#865823;stroke-width:1.14;stroke-miterlimit:10;}
	.st11{fill:none;stroke:#865823;stroke-width:1.14;stroke-miterlimit:10;}
	.st12{fill:#735344;}
	.st13{fill:#C1B2D7;}
	.st14{fill:#273339;}
	.st15{fill:#3A5558;}
	.st16{fill:#171414;}
	.st17{fill:#181615;}
	.st18{fill:#191716;}
	.st19{fill:#1A1716;}
	.st20{fill:#040505;}
	.st21{fill:#633D26;}
	.st22{fill:#F0ECF6;}
	.st23{fill:#623594;}
</style>
<g id="Layer_10">
	<circle class="st0" cx="319.8" cy="319.1" r="288.9"/>
</g>
<g id="Layer_11">
	<path class="st1" d="M60.5,296.1l-0.4,1.4c0.9,9.1,4.2,15.1,11.4,17c0,0.1,1.9,17.9,19.1,19.7c14.9,1.5,20.3-5,20.3-5
		s6.2,4.6,9.9,4.3c8.3-0.8,13.7-11.3,12-18s-3.4-16.4-3.4-16.4s-0.7-7.2-3-12.1s-10.9-9.6-10.9-9.6s3.1-9.6-1-11.4
		s-13.5-2.6-13.5-2.6s-6.4-7.3-14.7-2.5c0,0-7-1.2-9.8,7.5c-0.7,2.3-1.1,4.8-1.2,7.2c0,0-3.4-0.5-9.3,4.2
		C63.3,281.8,59.8,289.3,60.5,296.1z"/>
	<path class="st2" d="M59.7,296.2c-0.2,0.5-0.3,0.9-0.4,1.4c0,0.9,0.1,1.9,0.3,2.8c0.3,1.8,0.8,3.6,1.4,5.3c1,2.9,2.9,5.5,5.5,7.3
		c0.6,0.4,1.3,0.8,2,1.1c0.4,0.2,0.7,0.3,1.1,0.5c0.2,0.1,1.1,0.3,1,0.2c0.1,0.1,0.1,0.5,0.1,0.7c0.2,1.4,0.6,2.8,1.1,4.1
		c1.5,4.7,4.4,8.8,8.4,11.7c5.9,4,14,4.4,20.8,3.1c3.6-0.7,8-2.1,10.4-5l-1.4,0.3c2.8,2.1,6.6,4.6,10.3,4.5
		c4.8-0.2,8.9-3.8,11.2-7.9c1.2-2.1,1.9-4.5,2.2-6.9c0.2-2.4-0.5-4.7-1-7c-1-4.4-2-8.8-2.6-13.2c-0.6-4.3-1.2-8.8-3.3-12.7
		s-6.3-6.7-10-8.9c-0.2-0.1-0.4-0.3-0.6-0.4c-0.3-0.1,0.1-0.2,0,0.1c0.1-0.4,0.2-0.8,0.3-1.2c0.5-1.8,0.8-3.7,0.8-5.5
		c0-1.7-0.3-3.7-1.9-4.7c-1.8-1.1-4.3-1.5-6.4-1.9c-2.3-0.4-4.7-0.7-7-1c-0.2,0-0.5-0.1-0.7-0.1c0,0,0.3,0.3,0.2,0s-0.9-0.9-1.2-1.1
		c-4.1-3.4-9.9-4-14.5-1.3l0.9-0.2c-2.2-0.3-4.5,0.2-6.4,1.5c-4.5,2.9-5.6,8.8-5.8,13.7l1.2-0.5c-1-0.1-2,0-3,0.4
		c-2.7,0.9-5.3,2.3-7.4,4.2c-1.8,1.8-3.2,4-4,6.4C60,289.3,59.5,292.8,59.7,296.2c0,0.5,1.5,0.2,1.5-0.3c-0.2-3.1,0.2-6.3,1.2-9.2
		c0.7-2.3,1.9-4.5,3.5-6.4c1.8-1.8,4-3.2,6.5-4c0.6-0.2,1.3-0.4,1.9-0.4c0.1,0,0.7,0,0.4,0c0.3,0,1.2-0.1,1.2-0.5
		c0.2-5,1.5-12.3,7.2-14c0.9-0.2,1.8-0.3,2.6-0.2c1.2,0,2.2-0.9,3.3-1.2c1.5-0.4,3.1-0.5,4.6-0.2c2.1,0.5,4,1.4,5.6,2.8
		c0.7,0.6,0.9,1.1,1.8,1.1c2,0.2,4,0.5,6,0.8c1.3,0.2,2.7,0.5,4,0.8c1.1,0.2,2.2,0.6,3.2,1.1c2,1.3,1.7,4.5,1.5,6.5
		c-0.2,1.5-0.5,3-1,4.4c0,0.1,0.1,0.2,0.2,0.3c3.8,2.1,7.9,4.9,10.3,8.6c2.4,3.9,2.9,8.9,3.6,13.3c0.9,5.5,2.2,10.9,3.4,16.3
		s-1.5,11.5-5.6,14.8c-1.3,1.1-2.8,1.9-4.4,2.3c-1.6,0.3-3.2,0-4.7-0.7c-2.1-0.9-4-2-5.8-3.4c-0.5-0.2-1-0.1-1.4,0.3
		c-0.3,0.3-0.7,0.6-1,0.9c-1,0.8-2.1,1.4-3.3,1.9c-4.8,2.1-10.4,2.4-15.6,1.7c-8.2-1.1-14.2-6.7-16.8-14.3c-0.6-1.7-1-3.4-1.3-5.1
		c0-0.1-0.2-0.2-0.3-0.2c-3.7-1-6.8-3.5-8.5-7c-0.9-1.8-1.5-3.7-1.9-5.7c-0.2-1.1-0.4-2.2-0.5-3.3c0-0.7,0.1-1.4,0.3-2.1
		C61.3,295.5,59.9,295.7,59.7,296.2z"/>
	<path class="st3" d="M138.5,324.1l-20.8,14.7c0,0,57.4,72.6,86.9-1.7l-38-19.5L138.5,324.1z"/>
	<path class="st1" d="M229.2,250.6l-1.2-0.9c-8.7-2.8-15.5-2.2-20.1,3.5c-0.1,0-11.4-3.8-20,11.2c-7.4,13-3.6,20.6-3.6,20.6
		s-6.8,3.8-8,7.3c-2.7,7.9-0.5,22.2,6.3,23.3s7.7,4.2,7.7,4.2s10.4,1.8,16,1.7s13-6.6,13-6.6s12.3,0.3,15.7-2.7s4.5-11.9,4.5-11.9
		s12.6-2.2,11.6-11.8c0,0,4-5.9-2.9-12c-1.8-1.6-3.9-3-6.1-4c0,0,1.9-2.9-0.1-10.2C241.2,259.1,235.8,252.8,229.2,250.6z"/>
	<path class="st2" d="M229.9,250.4c-0.4-0.4-0.8-0.7-1.2-1c-1.2-0.5-2.5-0.8-3.7-1c-2.3-0.5-4.7-0.7-7.1-0.6
		c-4.1,0.3-8,2.3-10.6,5.5l1.3-0.3c-4.1-1.4-9.1-0.1-12.7,2.1c-4.1,2.6-7.1,6.5-9.3,10.7c-2.4,4.2-3.7,8.8-3.9,13.6
		c-0.1,2,0.2,3.9,1,5.8l0.3-0.4c-2.4,1.3-4.6,3-6.5,4.9c-2.4,2.5-2.8,6.2-2.9,9.5c-0.2,3.8,0.5,7.6,1.9,11.2
		c1.1,2.6,2.9,4.9,5.8,5.5c2.2,0.5,4.5,1,6.3,2.5c0.5,0.4,0.9,0.9,1.2,1.5c0,0.1,0.2,0.1,0.3,0.2c4,0.7,8,1.2,12,1.5
		c2.4,0.3,4.8,0.2,7.1-0.4c2.4-0.8,4.8-1.9,6.9-3.4c1.4-0.9,2.8-1.9,4.1-3l-0.9,0.3c3.7,0.1,7.4-0.2,11.1-0.8
		c1.9-0.4,4.2-0.9,5.7-2.4c1.7-1.7,2.6-4.2,3.3-6.4c0.5-1.8,1-3.6,1.2-5.5l-0.9,0.5c3.8-0.6,7.3-2.4,10.1-5.1c0.9-1,1.6-2.1,2-3.3
		c0.2-0.7,0.4-1.4,0.4-2.2c0-0.5,0-1,0-1.6c0.1-0.7,0.7-1.3,0.8-2c0.4-1.3,0.4-2.7,0.1-4c-1-5-5.9-8.1-10.1-10.2l0.1,0.3
		c0.5-0.9,0.7-1.9,0.8-2.9c0.3-2.8-0.1-5.7-1.1-8.3c-1.1-2.3-2.6-4.3-4.5-5.9C235.7,253.1,232.9,251.4,229.9,250.4
		c-0.4-0.1-1.7,0.5-1.2,0.6c2.9,1,5.6,2.6,7.8,4.8c1.9,1.6,3.5,3.6,4.6,5.9c1,2.5,1.4,5.3,1.2,8c-0.1,1-0.3,1.9-0.7,2.9
		c-0.1,0.1-0.1,0.2,0.1,0.3c5.7,2.9,12.4,8.4,9.1,15.4c-0.2,0.8-0.3,1.6-0.2,2.4c-0.1,1.3-0.6,2.6-1.3,3.7c-1.4,1.9-3.3,3.5-5.6,4.3
		c-0.9,0.4-1.8,0.7-2.8,1c-0.4,0.1-1,0.2-1.1,0.3s-0.8,0.2-0.9,0.5c-0.4,3-1.1,5.8-2.3,8.6c-0.6,1.7-1.9,3.2-3.5,4
		c-1.8,0.7-3.7,1.1-5.6,1.2c-1.8,0.2-3.6,0.3-5.4,0.4c-0.8,0-1.6-0.1-2.4,0s-1.6,0.9-2.3,1.4c-1.6,1.2-3.3,2.3-5.1,3.3
		c-2,1.2-4.2,1.8-6.5,1.9c-2.3,0-4.6-0.2-6.8-0.5c-2-0.2-4-0.5-6-0.8c-0.6-0.1-1.1-0.2-1.7-0.3s-0.2-0.1-0.1,0
		c-1.2-2.6-4.6-3.6-7.1-4.1c-1.8-0.2-3.4-1.1-4.5-2.5c-1.2-1.6-2-3.4-2.5-5.2c-1.4-4.7-1.4-9.7-0.2-14.5c1-3.7,4.8-6.2,7.9-8
		c0.1,0,0.4-0.2,0.3-0.4c-0.5-1.2-0.8-2.5-0.9-3.8c-0.2-3.8,0.4-7.6,1.8-11.1c2.8-7.4,8.5-16,17.1-16.7c1.4-0.2,2.9,0,4.3,0.4
		c0.5,0.1,0.9,0,1.3-0.4c2.3-2.9,5.8-4.7,9.6-4.8c2,0,3.9,0.2,5.8,0.6c1.2,0.2,2.3,0.5,3.4,0.9c0.4,0.3,0.8,0.6,1.1,0.9
		C228.8,251.2,230.2,250.6,229.9,250.4z"/>
	<path class="st4" d="M226.9,248.8c0,0,19.6,2.6,21.9,15l0.5,8.8c0,0,9,0.6,9.4,6.9"/>
	<path class="st3" d="M122.3,277.1c0,0,13.6,27.5,5.6,46.4c-1.5,3.6-10.2,15.3-10.2,15.3l22.8,10.5c27.4,9.4,23.4,3.5,48.1-11.6
		l7.2-1.5c0,0,0.7,1.6-0.6-2.8s1.2-38.9,1.2-38.9"/>
	<path class="st5" d="M92.9,239c0,0-32.6-54.6,4-63.2c1.4-4.9,4.2-9.2,8.1-12.5c8-6.8,17.8-2.8,17.8-2.8s6.8-8.6,15-8.7
		s12.1,4,12.1,4s8.7-6.3,16.3-4.1s13.8,8.3,13.8,8.3s5.7-2,9.7-0.9c9.6,2.6,13.9,22.1,16.3,28.8c0,0-11.3-22.2-19.3-21.7
		S113,194.3,113,194.3l-9.2,64.7L92.9,239z"/>
	<path class="st6" d="M150.3,303.7c0,0,5.5,7.6,36,14.3c0,0,7.8,0.2,8.8-0.7l0.1-7.2L150.3,303.7z"/>
	<path class="st3" d="M132,294.7c14.6,10.3,43.3,20.4,60.3,19.9c16.6-0.4,20.8-6.9,22.4-9.8c9.2-15.7,14-30.5,15.1-46.7
		c0.1-4.5-0.5-9-1.9-13.3c-2-6.7-6.3-19.4-7.6-25.9c-3.6-16.6-14.1-29.2-26.4-40.9c-25.6-24.5-65.2-15.5-80.2-3.7
		c-17.4,13.8-21.9,34.8-18.5,55.1c1,6.3,3.1,12.3,6.1,17.9c3.5,2.4,6.6,5.2,9.5,8.3"/>
	<path class="st1" d="M191.8,171.6c0,0,6.6,9,19.8,27.1c-3.6-5.9-6.9-15.2-14.4-22.9c-26.1-26.8-81.5-9.6-96.3,2.8
		C83.6,193.1,81,215,84.8,236.9c1.5,8.9,2.5,14.6,6.8,21.3c0.2,0.1,2.1,1.3,2.1,1.3s18.5-0.7,26.8,8.7l-1.9-9.4c0,0-0.8-5.9-1-28.4
		c0,0-0.4-3.5,2.5-18.5s8.3-20.4,8.3-20.4s27.8-11.4,34.6-12.9S191.8,171.6,191.8,171.6z"/>
	<path class="st2" d="M191.1,171.9c4,5.4,8,10.9,12,16.4l7.8,10.8c0.3,0.4,1.7-0.1,1.4-0.6c-2.4-4-4.3-8.3-6.6-12.4
		c-2.5-4.5-5.7-8.6-9.5-12.2c-5.9-5.2-13-8.9-20.7-10.6c-15.7-3.9-32.8-1.9-48.2,2.6c-6.6,1.9-13.1,4.4-19.2,7.6
		c-6.2,3.3-11.6,7.9-15.8,13.6c-12.2,16.8-11,38.8-6.8,58.1c1,4.5,2.4,9.2,5.1,13.1c0.7,0.9,1.6,1.5,2.7,1.8c0.5,0,1,0,1.6,0
		c6.8,0.1,14.1,1.3,20,4.7c1.8,1,3.4,2.3,4.8,3.9c0.3,0.3,1.5,0,1.4-0.5c-0.6-3.1-1.5-6.3-1.9-9.5c-0.4-2.5-0.4-5.1-0.5-7.6
		c-0.3-6.9-0.3-13.9-0.5-20.8c0.1-4.1,0.6-8.2,1.4-12.2c1.3-7.9,2.9-16.1,7-23.1c0.4-0.7,0.9-1.4,1.4-2.1c0.3-0.3,0.6-0.6,0.8-1
		c0-0.1-0.1,0.1-0.2,0.1c0.1,0,0.2-0.1,0.3-0.1c0.5-0.2,1-0.4,1.6-0.6c10-4,20-8.3,30.3-11.4c4.8-1.4,9.7-2.4,14.5-3.6
		c5.2-1.3,10.3-2.6,15.5-3.9l0.9-0.2c0.9-0.2,0.7-1-0.2-0.7c-9.6,2.5-19.3,4.9-29,7.2c-4.9,1.3-9.7,3-14.4,4.9
		c-5.4,2-10.8,4.2-16.2,6.3c-1.3,0.5-2.6,1-3.9,1.6c-0.6,0.3-1,0.8-1.4,1.3c-3.8,4.9-5.7,11.3-7.1,17.2c-1,4.4-1.7,8.8-2.4,13.3
		c-0.3,2.1-0.5,4.2-0.6,6.2c-0.2,5.7,0.1,11.4,0.3,17c0.1,4,0.2,7.9,0.6,11.9c0.4,2.8,0.9,5.6,1.6,8.3l0.4,2l1.4-0.5
		c-5-5.6-13-7.7-20.3-8.5c-2.2-0.3-4.4-0.4-6.6-0.4c-0.1,0-0.3,0-0.4,0c0.5,0.1,0.1-0.1-0.1-0.2c-0.4-0.3-0.7-0.5-1.1-0.7
		c-0.8-0.7-1.4-1.5-1.8-2.5c-0.6-1.1-1.1-2.1-1.6-3.2c-1.9-4.5-2.7-9.3-3.5-14c-0.9-5.1-1.5-10.2-1.8-15.4c-0.3-9.7,1-19.7,5.2-28.5
		c3.5-7.5,9-13.9,15.9-18.5c5.3-3.3,11-5.9,17-7.9c14.8-5.1,31.3-7.8,46.9-5.4c7.8,1.1,15.3,3.9,21.8,8.3
		c8.1,5.7,12.9,14.1,17.3,22.7c0.9,1.7,1.8,3.4,2.8,5.1l1.4-0.6c-6.3-8.6-12.5-17.2-18.8-25.8l-1-1.3
		C192.1,170.9,190.7,171.4,191.1,171.9z"/>
	<path class="st3" d="M127.8,286.9c-6.4,10.5-16.4-1.3-16.4-1.3c-8.2-6.1-13.9-15-16-25.1c-1.3-7.1,6.5-8.8,6.5-8.8
		c6.8-0.8,6,0.2,19.3,17"/>
	<path class="st7" d="M115.1,270c-1.9-3-4.1-5.8-6.6-8.4c-1.3-1.4-2.8-2.6-4.5-3.5c-0.7-0.4-1.4-0.7-2.2-0.7c-0.2,0-0.3,0-0.5,0
		c-0.7,0.1-0.8,0.4-1,1c-1.2,3.1-0.5,6.7,0.8,9.7c0.1,0.2,1.2-0.1,1.1-0.3c-1.1-2.4-1.5-4.9-1.3-7.5c0.1-1,0.4-1.9,0.8-2.8l-0.7,0.3
		c-0.1,0-0.3,0-0.1,0s0.1,0,0.3,0c0.5,0.1,1,0.3,1.5,0.5c2.3,1.3,4.3,3.1,6,5.1c1.9,2.1,3.6,4.4,5.1,6.8c0.2,0.2,1.2-0.2,1.1-0.3
		L115.1,270z"/>
	<path class="st7" d="M115.3,273.3c-4.4,1.3,0.4,6.4,0.7,8.9c0,0.1,0,0.3,0,0.4s-0.1,0.2,0,0.2s0.3,0,0.3-0.1
		c-0.4-0.2-0.7-0.5-1-0.8c-0.9-1-1.7-2.2-2.4-3.4c-1-1.6-1.8-3.4-2.3-5.3c-0.5-2.2-1-5.4,0.9-7.2c0.5-0.5-0.6-0.6-0.9-0.3
		c-1.8,1.6-1.7,4.3-1.4,6.5c0.3,1.9,0.9,3.7,1.8,5.4c0.8,1.5,1.7,2.9,2.7,4.3c0.5,0.6,1.2,1.5,2,1.5c2.2,0.2,0.9-2.8,0.5-3.7
		c-0.6-1.2-3.2-5.1-0.9-5.8C116.2,273.8,116,273.1,115.3,273.3L115.3,273.3z"/>
	<path class="st1" d="M161.7,239.1c-2-0.3-4,0.7-5.1,2.4c-0.5,0.8-0.8,1.7-0.8,2.6c0.1,1.7,1,3.3,2.4,4.2c1.8,1,4,0.8,5.5-0.5
		c1.8-1.7,2.2-4.4,0.9-6.6C163.9,240.2,162.9,239.4,161.7,239.1"/>
	<path class="st1" d="M173.3,244.4c0,0-9.3-8-16.4-6.1c-9.9,2.7-10.7,9.1-12,12.7c0,0,4.5-8.8,12.2-10.7
		C164.1,238.6,173.3,244.4,173.3,244.4z"/>
	<path class="st1" d="M209.8,224.8c1.6-1.3,3.8-1.5,5.6-0.5c0.8,0.4,1.6,1,2.1,1.8c0.8,1.5,0.8,3.3,0.1,4.8c-1,1.8-3,2.7-5,2.4
		c-2.4-0.5-4.1-2.7-4.1-5.2C208.4,226.9,208.9,225.7,209.8,224.8"/>
	<path class="st1" d="M197.5,237.7c0,0,3.4-11.5,10-13.3c9.2-2.5,12.9,2.6,15.8,5.1c0,0-7.9-5.4-14.9-3.3
		C201.8,228.2,197.5,237.7,197.5,237.7z"/>
	<path class="st1" d="M217.9,209c0-0.1-1.1-1.2-1.1-1.2c-1-0.2-2-0.2-2.9,0c-7.6,0.6-11.1,1.9-21,8.1l0.1,0.2c0.4,1.4,0.2,0.6,0.6,2
		c0.3,1.1,0.7,2.1,1,3.2c3-1.9,5-3.6,7-4.7c3.9-2.1,8.2-5,12.7-5.6c1.7-0.3,3.4-0.4,5.1-0.1C219.1,209.9,218.2,209.9,217.9,209z"/>
	<path class="st1" d="M166.4,221.9c0.6,1.3,0.3,0.6,0.9,1.9c0.5,1,0.9,2,1.4,3c-3.6,0.7-6.4,0.8-8.6,1.4c-4.5,1.2-9.8,2.1-13.7,4.7
		c-1.9,1.2-4.4,2.6-5,5.1c-0.1,0.7-0.1,3.2-1.1,3.2c-0.4,0-0.6-1.9-0.6-2.1c-0.4-3.8,1.7-6.4,4.8-8.8c6.3-4.9,9.9-6.3,21.8-8.6"/>
	<path class="st8" d="M198.9,263.9c-1.9,1.5-4.3,2-6.6,1.3c-0.5-0.1-1.8,0.5-1.1,0.7c3.1,0.8,6.5,0.1,9-1.9c0.2-0.2,0.1-0.4-0.2-0.4
		C199.6,263.6,199.2,263.7,198.9,263.9"/>
	<path class="st8" d="M190.2,265.6c-1.4-0.3-2.9-0.3-4.3,0c-0.2,0.1-0.4,0.2-0.6,0.4c-0.1,0.1-0.1,0.3,0.1,0.3
		c0.8,0.2,1.6,0.2,2.3-0.1c0.3-0.1,0.5-0.2,0.6-0.5c0.1-0.2-0.2-0.3-0.4-0.2c-0.6,0.2-1.3,0.2-1.9,0l-0.5,0.7c1.3-0.2,2.6-0.2,3.8,0
		c0.3,0,0.5-0.1,0.7-0.3C190.4,265.9,190.5,265.6,190.2,265.6"/>
	<path class="st8" d="M184.8,267.2c-1.7,0.5-3.4,0.2-4.8-0.8c-1.7-1.5-1.4-4.9,0.4-6.6c0.2-0.2,0-0.3-0.2-0.3
		c-0.3,0-0.6,0.2-0.8,0.4c-1.5,1.6-1.9,3.9-1.3,6c0.7,1.6,2.5,2.3,4.6,2.2c0.6,0,1.2-0.1,1.9-0.2c0.2-0.1,0.7-0.2,0.7-0.5
		S185,267.1,184.8,267.2"/>
	<path class="st8" d="M201.6,262.3c-0.1-0.1-0.1-0.2,0-0.3c0,0,0.1,0,0.1,0c0.5-0.1,0.9-0.4,1.1-0.7l0.6,0.4
		c-0.9,0.3-1.7,0.9-2.3,1.6c-0.1,0.1-0.4,0.2-0.5,0.1c-0.1-0.1-0.3-0.2-0.2-0.4"/>
	<path class="st8" d="M200.5,262.9c0.7-0.8,1.6-1.4,2.6-1.8c0.2,0,0.3,0,0.5,0.1c0.1,0.1,0.2,0.2,0.1,0.3c0,0,0,0,0,0"/>
	<path class="st8" d="M205.1,261.7c1.2-0.4,2.1-1.5,2.3-2.7c0.2-2-0.8-3.9-2.6-4.9c-0.1,0-0.1-0.2-0.1-0.3c0,0,0.1-0.1,0.1-0.1
		c0.2-0.1,0.4-0.1,0.6,0c1.5,0.8,2.6,2.3,2.9,4c0.3,1.5-0.4,3-1.6,3.9c-0.3,0.2-0.7,0.4-1.1,0.6c-0.2,0.1-0.4,0-0.6-0.1
		C204.8,261.8,204.9,261.7,205.1,261.7"/>
	<path class="st5" d="M195.9,164.6c-3.7-1.8-10.6-3.6-16.6-2.9c-0.2,0-0.5,0.1-0.7,0.1l-3,1.8l-0.1,0.1l0.1-0.1
		c0.5-0.4,1.6-1.2,1-1.8c-0.4-0.3-0.9-0.5-1.4-0.5c-1.5-0.2-3-0.2-4.5-0.2l0,0h-0.5h-0.5l0,0c-1.5,0.1-3,0.3-4.4,0.7
		c-0.5,0.1-1,0.3-1.3,0.7c-0.6,0.7,0.6,1.4,1.2,1.7l0.1,0.1h-0.1l-3.1-1.4c-0.2,0-0.5,0-0.7,0c-7.4,0-18.5,6.6-19.5,7.6
		s-0.2,2.4-0.1,2.5l-2.1-1.4c0,0-8.6,3.9-10,5.1s-2,3.8-2,3.8s-2.6,1.1-3.6,0.9s-5.8,2.6-7.7,5.7c-1.2,2-0.6,3.7-1.2,5.4l0,0
		c-0.3,1-0.5,1.6-0.5,1.6l-5.1,2c-4,2.2-2.5,10.7-2.5,10.7c-7.6,10.4-7.5,18.9-3.3,27.9c1.6,3.4-8.2,7.6-1.8,7.1
		s16.5,20.8,16.5,20.8s1.7-9.5,1.7-13.2s-2.4-14.6-2.4-14.6l3.1-0.6c0,0,1.9-0.9,3.9-5.2s-2.6-11.6-2.6-11.6l-1.5-4.4l6.2,0.1
		c5.9-1.4,5.9-7.8,5.9-7.8l-1.6-10.6l3.8,3.4c0.9,1,2.2,1.4,3.5,1.3c9.2-1.2,9.9-7,9.9-7l0.9-5.5l2.4,1.4c2.6,1.9,10.3,4.6,14.1,2.7
		c1-0.5,5-4,5.7-4.5c1.5-1.5,2.4-3.5,2.5-5.6c2.4,2,5.5,4.1,8.1,4c3.3,0,10.2-1.8,11-3.4c0.5-1-0.5-1.1,0.7-1.1
		c1.1,0.1,2,0.6,2.7,1.4c0,0,3.9,8.6,12.3,11.2s6.7-17.1-1.1-19.5C207.7,173.4,205.8,162.9,195.9,164.6z"/>
	<path class="st5" d="M85.2,204c0,0-8.4,3.6-10.4,8.8c-5.3,13.2,3.5,42.6,11.7,47.6l7.4,0.4L85.2,204z"/>
	<path class="st4" d="M86.8,257c0,0-12.7,0.3-13.9,8.2l-0.5,3.8c0,0-14.3-1.6-17.7,5.5s-2.9,20.2-2.9,20.2"/>
	<path class="st9" d="M324.2,607.9c104.8,0,195.6-61.9,246.3-145.4c-10.4-20.5-18.3-32.1-18.3-32.1l-61.9-223l-40.1-10.3
		c0,0-14.2,36-57.4,41.8c0,0-9.1,4-9.2,4c-34.4-5.9-6.3-21.5-4.8-25l-55.6,26.5l-40.6,105c-4.9,9.5-0.9,66.4,12.3,88l19.1,21
		l-9.1,50.9c0,0-15.7,20-10.6,37.1c11.4-1.5,5.5,34.3,3.4,60.5C306,607.8,315.7,607.9,324.2,607.9z"/>
	<path class="st9" d="M343.1,237.3c0,0-47.8,3.3-61.7,31.8s-49,124.2-49,124.2l-70.9-2.1l-84.6,0.6c0,0,73.1,59,105,75.4
		c35.6,21.3,89.7,35.2,108.7,28.9c15.8-5.3,43-19.2,52.6-54.7l7.7-27.2L343.1,237.3z"/>
	<path class="st10" d="M231,377.4c0,0,13.3,13.8,21.9,25.8C252.8,403.1,240.5,379.9,231,377.4z"/>
	<line class="st11" x1="470.7" y1="394.3" x2="469.3" y2="393.6"/>
	<path class="st9" d="M376.6,216c0,0-80.8,25.2-87.2,45.8c-9.7,31.3-9.2,99.3-9.2,99.3l29.1-1.9L376.6,216z"/>
	<path class="st12" d="M577.1,375.7h0.2l-0.2-0.1C577.1,375.6,577.1,375.7,577.1,375.7z"/>
	<path class="st12" d="M577.8,375.8h0.3C578,375.7,577.9,375.7,577.8,375.8C577.8,375.7,577.8,375.8,577.8,375.8z"/>
	<path class="st13" d="M265.8,602.9l-0.6-98.7c3.5-12.1,5.8-24.5,6.7-37c1.7-23.7-15.1-46.5-15.1-46.5l-10.6-71.3
		c-5.2-0.3-44.7-15.2-44.7-15.2s-3.9,27.3-32.1,30s-46.7-34.5-46.7-34.5c-18.8,5-49.4,19.3-49.4,19.3l9.7,61.5l0.1,69.8
		C123.4,537.8,163,577.5,265.8,602.9z"/>
	<g id="freepik--character-3--inject-2">
		<path class="st14" d="M248.1,411.2c-5.4-9.4-7.2-20.5-5.2-31.2c0.6,0,0.3,7.1,1.7,15.7S248.6,410.9,248.1,411.2z"/>
	</g>
	<g id="freepik--Character--inject-2">
		<path class="st13" d="M281,385.3c-6.7-14.1-12-23.7-20.5-30.2c-4-3.1-27.9-8.8-27.9-8.8l3,66.7l12.8,63.5l58.9-18.6
			C307.3,457.8,289.7,403.9,281,385.3z"/>
		<path class="st3" d="M134,494.4c0,0-32.4-16.5-40-18.4s-31.7,3.4-31.9,9.2c-0.2,3.1-0.2,6.1,0,9.2c0,0-7.1,5-4.1,10.2s6,5.2,6,5.2
			s-4.4,3.8-1.9,7.3c2.5,3.5,5,7.9,5,7.9s-1,4.6,1.8,6.5s22.2,4.9,36.1,4.1s20.7-2.8,20.7-2.8L134,494.4z"/>
		<path class="st3" d="M301.3,459.7c1.3,2.9,12.1,45.7,12.9,64.5c0.8,19.3-8.3,30.2-28,30S177.1,543.5,149,529l-11-3.2l8.2-27.4
			c0.4-1.4,28.7-0.9,30.8-0.9c18.4-0.7,36.6-2.1,54.9-3.8c10.2-1,21.6-0.8,31.6,1.7l1.7-16.3v-8.8l19.9-5.5L301.3,459.7z"/>
		<path class="st3" d="M146.9,354.7l-31.3,114.1l-8.4-15.7l-53.1,21.4c4,10.7,8.5,21.1,13.7,31.2c15.9,61.9,55.5,56.5,74.3,50.6
			s28.2-79.3,32.2-106.2c4.7-31.1,5.4-98.2,5.4-98.2L146.9,354.7z"/>
		<path class="st3" d="M179.4,374.2c0,0,0.8-19.3,1.2-26.9s-12-37.6-12.2-38.3s-1.7-10.1-1.7-10.1s2.7,1.4,5.3-2.2
			c1.5-2.1-1-8.9-3.2-10.3s-6.1-0.1-6.1-0.1s0-4.4-6.6-4.2c0,0-0.9-6.7-14.6-4.5c0,0,0.1-1.7-4-1.5s-15.8,2.8-16.6,5.5
			s2.5,19.2,2.5,23.8s0.1,5,2.1,9.1s18,30.2,21.8,35.9l-4.4,18.9"/>
		<path class="st6" d="M165.8,293c0.3,0.2,0.5,0.5,0.7,0.8c0.4,0.7,0.6,1.6,0.6,2.4c0.2,1.1,0.1,2.3-0.2,3.4
			c-0.3-1.1-0.5-2.2-0.5-3.3C166.3,295.1,166.1,294.1,165.8,293z"/>
		<path class="st6" d="M162.7,286.2c-0.9,0.7-1.9,1.3-3,1.7c-1.1,0.4-2.2,1.1-3.1,1.9c-1,1.1-1.5,2.5-1.4,4
			c-0.1,2.7,0.2,5.5,0.8,8.2c0.4,2.1,0.8,3.3,0.7,3.4c-0.5-1-0.9-2.1-1.1-3.3c-0.7-2.7-1.1-5.5-1-8.3c0-0.8,0.2-1.6,0.4-2.4
			c0.2-0.7,0.7-1.4,1.2-2c1-0.9,2.1-1.5,3.3-1.9C161.6,286.8,162.7,286.1,162.7,286.2z"/>
		<path class="st6" d="M156.1,282c-0.4,0.2-0.8,0.3-1.2,0.4l-3.4,0.8l-5,1.2c-0.9,0.2-1.8,0.6-2.4,1.4c-0.6,0.9-0.8,1.9-0.8,3
			c0,1.1,0.1,2.2,0.2,3.2s0.1,2.1,0.2,3c0.1,1.9,0.2,3.6,0.4,5.2s0.2,2.7,0.2,3.5c0.1,0.4,0.1,0.9,0,1.3c-0.1-0.4-0.2-0.8-0.2-1.3
			c-0.1-0.8-0.2-2-0.4-3.5l-0.5-5.1c-0.1-1-0.2-2-0.3-3.1c-0.1-1.1-0.2-2.2-0.2-3.3c0-1.2,0.3-2.3,0.9-3.3c0.7-0.8,1.7-1.4,2.8-1.6
			l5.1-1c1.4-0.3,2.6-0.5,3.4-0.6C155.3,282.1,155.7,282,156.1,282z"/>
		<path class="st6" d="M142.1,277.5c-0.4,0.2-0.8,0.3-1.2,0.4c-0.8,0.3-1.9,0.7-3.2,1.3l-2.2,1c-0.8,0.3-1.6,0.8-2.3,1.4
			c-1.6,1.3-2.5,3.3-2.3,5.4c0.3,2.2,0.8,4.3,1.1,6.3s0.6,3.6,0.9,5.1s0.4,2.7,0.6,3.5c0.1,0.4,0.1,0.9,0.1,1.3
			c-0.2-0.4-0.3-0.8-0.4-1.2c-0.2-0.8-0.4-2-0.7-3.4s-0.6-3.2-1-5.1s-0.8-4-1.1-6.3c-0.1-1.2,0-2.3,0.5-3.4c0.5-1,1.2-1.8,2-2.5
			c0.7-0.6,1.6-1.1,2.5-1.4l2.2-0.9C138.9,278.1,140.5,277.7,142.1,277.5z"/>
		<path class="st13" d="M73.3,348.8c0,0-34.1,12.6-33.6,59.7c0.4,24.8,3.8,49.5,10,73.5l64.2-20.4l-22.2-70.6
			C91.7,389.8,73.3,348.8,73.3,348.8z"/>
	</g>
	<path class="st6" d="M181.3,360.3c-0.1-2-0.2-3.9-0.2-5.9c0-2.9,0.4-6,0.1-8.9c-0.5-4.4-2-8.7-3.3-12.9c-2.6-8-5.9-15.6-8.7-23.5
		c-0.4-1.5-0.7-3-0.9-4.5c-0.3-1.9-0.6-3.9-0.9-5.8l-1.3,0.5c1.6,0.6,3.3,0.4,4.6-0.6c2.4-1.6,2.7-3.8,2-6.5
		c-0.5-2.1-1.6-5.2-3.7-6.3c-1.9-1-4.5-0.7-6.4,0l0.8,0.3c0-3.5-4.2-4.6-7-4.6l0.4,0.2c-0.3-1.4-1.2-2.5-2.4-3.3
		c-3.6-2.5-8.8-2.1-12.8-1.4l0.6,0.4c0-1-1.1-1.5-1.8-1.6c-1.9-0.3-3.9-0.2-5.8,0.2c-4.1,0.7-8.5,1.5-12.2,3.6
		c-1.1,0.6-2.1,1.3-2.2,2.6c-0.1,1.4,0,2.9,0.2,4.3c0.5,4.4,1.2,8.8,1.8,13.1c0.2,1.8,0.5,3.6,0.6,5.4c0.1,2.1-0.1,4.2,0.6,6.2
		c1,2.7,2.3,5.3,3.9,7.7c4.2,7.3,8.7,14.5,13.1,21.7c2,3.2,3.9,6.4,6,9.5c0.4,0.5,0.4,0.3,0.2,1l-0.8,2.6l-1.4,4.4
		c-0.2,0.5,1.3,0.4,1.4-0.2l1-3.3l0.8-2.5c0.2-0.5,0.4-1.1,0.5-1.6c0-0.7-0.9-1.7-1.3-2.4l-2.4-3.9c-4.4-7-8.7-14.1-12.9-21.2
		c-1.5-2.5-3.1-5.1-4.5-7.7c-0.7-1.3-1.4-2.7-2-4.1c-0.8-2-0.7-4.1-0.7-6.2c-0.2-7.4-2.6-14.7-2.6-22.2c0-1.5,0.5-2.1,1.9-2.9
		c2.1-1,4.3-1.7,6.6-2.2c1.3-0.3,10.9-2.7,10.8-0.2c0,0.3,0.4,0.4,0.6,0.4c3.8-0.6,8.7-1.1,12,1.4c1,0.7,1.7,1.7,2,2.9
		c0,0.2,0.3,0.2,0.4,0.2c1.9,0,4.2,0.3,5.4,2c0.3,0.4,0.5,0.8,0.6,1.3c0,0.1,0.1,0.7,0.1,0.6c0,0.4,0.5,0.4,0.8,0.3
		c1.6-0.5,3.6-0.8,5.1,0s2.5,3.1,3.1,4.7s1.2,3.7,0.3,5.2c-0.7,1.3-2.6,2.7-4.1,2c-0.4-0.2-1.4,0-1.3,0.5c0.2,1.6,0.5,3.2,0.8,4.8
		c0.2,1.8,0.5,3.6,1,5.3c0.8,2.4,1.9,4.8,2.8,7.1c1.9,4.8,3.7,9.7,5.3,14.6c1.6,4.4,2.9,9,3.8,13.6c0.5,3,0.1,6.1,0.1,9.1
		c0,2.3,0,4.6,0.2,6.9C179.9,361.3,181.4,361,181.3,360.3L181.3,360.3z"/>
	<path class="st6" d="M114.6,468.9c-1.2,2-2.1,4.1-2.8,6.3c-2.2,6.5-3.6,13.3-4.3,20.2c-0.1,0.6,2,0.2,2.1-0.4
		c0.7-6.9,2.1-13.6,4.3-20.2c0.7-2.2,1.6-4.3,2.8-6.3c0.2-0.4-0.8-0.3-0.9-0.3C115.4,468.3,115,468.5,114.6,468.9L114.6,468.9z"/>
	<path class="st15" d="M284.4,325.6l2.6,28.6l4.1,45.3l1,10.5c0.1,0.8,2.9,0.2,2.8-0.8l-2.6-28.6l-4.1-45.3l-1-10.5
		C287.2,324,284.4,324.6,284.4,325.6L284.4,325.6z"/>
	<path class="st3" d="M372.4,233.8c3,3,6.5,5.4,10.3,7.3c4.8,2,10,2.9,15.2,2.7l5.8-0.3c4.1-0.2,8.2-0.9,12.1-2.1l9.8-3
		c1.8-0.7,3.5-1.5,5.2-2.4c13.8-7.4,25.4-19,27.9-33.6c-16.2-20.3-14.6-62.9-14.6-62.9l-84.9,38c0,0,3.5,37.3,8.7,36.8
		c5.5-0.4,0.4,10.8,0,11.2C368.9,229.4,369.6,231.2,372.4,233.8z"/>
	<path class="st3" d="M390.6,207.2l-29.1,4l-15-0.8c-1.5,0.2-10.5-13.4-11.8-15.2c-4.1-5.3-9.5-12.2-12.5-18.2
		c-3.2-6.4-8.5-11.6-11-19.6c-1.8-5.9-2.6-10.1-1-20.4c0.4-2.6,0-5.3-1.1-7.7c-2.3-5.4-3.9-11.9-6.8-19.1c-0.2-0.6-1.4-3.3-1.3-4
		c0,0-6.8-31.1-3.1-43.3s11.2-18.8,19.1-22.4s32.5-6.3,32.5-6.3l31.9-14.5l32,12.9L434,64.8l5,40.7l2,36.8"/>
	<path class="st1" d="M430.5,104.9c0.4,3.2-0.8,19.4-0.6,22.5l16.1-3.1c3-11.5,6.7-25.1,8-28.3c2.1-5-5.5-26.8-6.8-35l-0.2-1.7
		c-1.2-7.9-10.8-19-25.8-29.8c-27.9-20.1-26.2-18.7-62.7-9.7c-2.3,0.6-4.6,1.2-6.8,1.9C331,28.5,309.8,34,299.3,54.1
		c-7.6,14.5-4.7,4.8-2.4,13.6c-2.5-17.7,1.9-13,3.4-15.4c8.6-14,16.1-2,21.2-3.6c2.8-1,5.9-1.2,8.8-0.7c5.4,0.3,10.2-1.3,15.5-3
		c4-1.3,13.8-5.4,14.7-5.8c2.4-2.4-1.8-12.6,3.1-14.2c11.4-3.8,28-6.4,34.4,0.3c5.2,5.4,24.4,5.9,25.3,24.2"/>
	<path class="st1" d="M350.6,206.8c0.2-0.1,0.4-0.2,0.5-0.3c2.7-2.6,2.8-3.8,4.2-4.4c0.5-0.3,1-0.5,1.5-0.6c4.2-1.4,6.8-2.3,19.7,3
		c0.3,0.1,15.1-4.5,15.4-4.6l7.2-5.1c1.2-1,26.2-31,26.2-31c0.3-0.9,4.6-7.8,4.7-8.6c0.1-0.1,0.2-0.1,0.3-0.2l0.2-0.1l0.1,0.1
		c0.1,0.3,0.2,0.7,0.2,1c0.2,1.5,0.2,3,0,4.5c-0.3,2.3-0.3,4.6-0.5,6.9c-0.1,0.8-0.2,1.6-0.3,2.4c-3,2.7-19.6,33.4-30.7,41.5
		c-3.1,1.4-6.4,2.5-9.7,3.2c-12.3,3.2-24.3,5.4-37.2,4c-3.3-0.4-6.3-2.2-8.2-4.9c-5.2-7.8-17.8-24.3-22-36.6
		c4.7,6.7,15.8,20.3,22.6,30.1c0.2,0.3,5-0.3,5.4-0.2"/>
	<path class="st3" d="M439.8,147.7c14.2,9.7,14-11.7,14-11.7c7-12.6,4.9-24.2,3-32.1s-10.5-6.1-10.5-6.1c-7.3,2.2-9.9,6.8-11.4,33"
		/>
	<path class="st1" d="M454,96c0,0,3.5-27.6-6.9-52.9S406.3,10.2,392,10.4s-63.1,14.1-74.2,21.8S289.9,46,297.2,76.9
		c0,0-6.3-29.8,27.8-36.2c12-2.3,42.4-16.1,58.7-19.9c6.7-1.6,32.2,11.4,35.8,14.7c8.2,7.6-3.9,30.5,12.5,56.5
		c5.4,8.6,8-8.5,13.9-3.3S454,96,454,96z"/>
	<path class="st7" d="M441.4,125c1.1-4.7,2.7-9.2,4.9-13.5c0.8-1.7,2.1-3.3,3.6-4.4l0.3-0.2c0.1-0.1,0,0-0.1,0h-0.5
		c0.8,0.8,1.5,1.7,1.9,2.7c1.2,2.7,1.7,5.6,1.5,8.5c0,0.2,1.2,0.1,1.3-0.3c0.3-3.4-0.5-6.8-2.3-9.7c-0.6-0.8-1-1.8-2.1-1.4
		c-2.5,0.8-4.1,3.8-5.2,5.9c-2,4.1-3.5,8.4-4.5,12.8C440.1,125.6,441.3,125.4,441.4,125L441.4,125z"/>
	<path class="st7" d="M443.7,126.7c2.4-0.6,2.2,3.7,2.3,5.1s-0.2,4.9,1.9,4.8c1-0.1,1.4-1.2,1.6-2c0.4-1.9,0.6-3.8,0.5-5.6
		c0.1-2.3-0.3-4.5-0.9-6.7c-0.9-2.7-2.4-5.7-5.4-6.4c-0.6-0.1-1.3,0.7-0.4,0.9c2.4,0.6,3.7,3.4,4.4,5.5c0.6,1.8,1,3.7,1,5.6
		c0.1,1.9,0,3.8-0.3,5.8c-0.1,0.6-0.2,1.1-0.4,1.6c0,0.1-0.1,0.2-0.1,0.3l0,0c-0.1,0.1,0,0.1,0.2,0c0,0.2,0-0.1,0-0.1
		s-0.2-0.2-0.2-0.2c-0.4-0.8-0.5-1.7-0.5-2.6c-0.1-1.1-0.1-2.2-0.2-3.4c-0.2-2.2-1.2-4.1-3.7-3.5C442.7,126,442.9,126.9,443.7,126.7
		L443.7,126.7z"/>
	<path class="st1" d="M372.5,112.5c1.6-1.1,3.7-1.1,5.4-0.1c0.8,0.4,1.4,1.1,1.8,1.9c0.7,1.5,0.6,3.2-0.3,4.6
		c-1.1,1.6-3.1,2.4-5,1.9c-2.3-0.7-3.8-2.9-3.5-5.3C370.9,114.3,371.5,113.2,372.5,112.5"/>
	<path class="st1" d="M319.3,123.2c-1.9-0.4-3.9,0.4-5,1.9c-0.6,0.7-0.9,1.6-1,2.4c-0.1,1.6,0.7,3.2,2,4.2c1.6,1.1,3.7,1.1,5.3-0.1
		c1.9-1.5,2.4-4.1,1.3-6.2C321.4,124.3,320.5,123.5,319.3,123.2"/>
	<path class="st1" d="M336,127.2c0,0-8.9-6-14.4-5.4c-8.1,0.8-9.8,3-11.9,7.2c0,0,4.5-4.8,10.2-5.2C325.4,123.3,336,127.2,336,127.2
		z"/>
	<path class="st1" d="M361.4,120.2c0,0,9.8-9.2,15.2-10.4c7.9-1.8,18.3,1.1,21.6,4.4c0,0-13.9-4.5-19.4-3.1
		C373.5,112.5,361.4,120.2,361.4,120.2z"/>
	<path class="st1" d="M355.6,95.9c0.4,1.9,0.8,3.8,1.1,5.7c0.3,1.4,0.9,4.8,1.2,6.2c4.3-2.1,8-4.8,10.9-5.9
		c5.6-2.2,11.3-4.8,17.4-5.1c2.8-0.2,5.6,0.2,8.2,1.1c0.8,0.3,3.2,1.9,4.2,1.2c0.4-0.3-0.8-2.5-0.9-2.7c-2.5-4.4-6.8-5.6-11.9-5.7
		C375.3,90.3,365.4,92.6,355.6,95.9"/>
	<path class="st1" d="M301.5,108.3l3.1-1.4c8.7-4,18-5.5,27.5-6c0.4,1.9,0.7,3.8,1.1,5.7c0.3,1.4,0.9,4,1.1,5.5
		c-4.4-0.4-8.3-1.2-11.1-1.2c-5.6,0-11.5-0.1-16.7,1.8c-0.4,0.2-2.6,1-3,1.2C301.2,111.6,300.8,108.9,301.5,108.3z"/>
	<path class="st1" d="M371.9,185.6l-21.6,3.9c0,0,6.1,4.9,11.3,3.9C364.9,192.8,369,189.6,371.9,185.6z"/>
	<path class="st8" d="M348.2,157.1c2.9,0.7,5.9-0.1,8.1-2.1c0.5-0.4,2.2-0.4,1.6,0.2c-3.1,2.6-7.2,3.6-11.1,2.7
		c-0.3-0.1-0.3-0.4,0-0.6C347.2,157.1,347.7,157,348.2,157.1"/>
	<path class="st8" d="M358.8,154.3c1.5-1,3.1-1.8,4.8-2.3c0.3-0.1,0.6,0,0.8,0.1c0.2,0.1,0.2,0.3,0.1,0.4c-0.8,0.6-1.7,1-2.7,1.2
		c-0.3,0.1-0.7,0-0.9-0.2c-0.2-0.2,0.1-0.4,0.3-0.5c0.8-0.1,1.5-0.5,2.1-1l0.9,0.5c-1.6,0.4-3,1.1-4.3,2.1c-0.3,0.2-0.6,0.2-0.9,0.1
		C358.8,154.6,358.6,154.4,358.8,154.3"/>
	<path class="st8" d="M365.8,153.1c2-0.4,4.3-1.8,5-3.6c1.1-2.7-1.1-6.1-3.9-7.1c-0.3-0.1-0.2-0.4,0.1-0.5c0.4-0.1,0.8-0.1,1.1,0
		c2.5,1,4.3,3.3,4.6,5.9c0.1,2.1-1.6,4-3.9,5.1c-0.7,0.3-1.4,0.6-2.2,0.8c-0.3,0.1-0.9,0.1-1.1-0.1S365.5,153.2,365.8,153.1"/>
	<path class="st8" d="M344.2,156.8c0-0.1,0-0.3-0.2-0.3c0,0-0.1,0-0.1,0c-0.6,0.1-1.2,0.1-1.7-0.2l-0.4,0.8c1.2-0.1,2.4,0.1,3.4,0.6
		c0.2,0.1,0.5,0,0.6-0.2c0.1-0.1,0.2-0.4,0-0.5"/>
	<path class="st8" d="M345.8,156.8c-1.2-0.5-2.5-0.7-3.8-0.6c-0.2,0-0.4,0.2-0.5,0.4c-0.1,0.1-0.1,0.3,0.1,0.4c0,0,0,0,0,0"/>
	<path class="st8" d="M340,157.9c-1.6,0.2-3.1-0.5-4-1.9c-1.3-2.2-1.2-4.9,0.3-7c0.1-0.1,0.1-0.3,0-0.4c0,0-0.1-0.1-0.2-0.1
		c-0.3,0-0.5,0.1-0.7,0.4c-1.3,1.8-1.7,4-1.1,6.1c0.5,1.8,2,3.2,3.9,3.6c0.5,0.1,1,0.1,1.5,0c0.2,0,0.5-0.2,0.6-0.5
		S340.2,157.8,340,157.9"/>
	<path class="st1" d="M384.4,161.3c1.4,0.9,2.9,1.9,3.4,3.4c0.1,0.6,0.2,1.2,0.1,1.8l-0.1,2.8c0,0.2,0,0.4-0.1,0.5
		c-0.1,0.2-0.3,0.3-0.5,0.4c-0.6,0.3-1.2,0.5-1.8,0.5c-0.7,0-1.3-0.4-1.5-1c0-0.3-0.1-0.5-0.2-0.8c-0.3-0.4-0.9-0.2-1.5-0.3
		c-1.3-0.1-1.8-1.6-2.6-2.7c-1.1-1.4-2.7-2.2-4.5-2.4c-0.9-0.1-1.8-0.2-2.6-0.5c-0.9-0.3-1.5-1-1.7-1.8"/>
	<path class="st1" d="M330,170.8c-1,1.3-2.1,2.8-1.9,4.4c0.1,0.6,0.3,1.2,0.5,1.7l1.1,2.6c0.1,0.2,0.2,0.3,0.3,0.5
		c0.2,0.1,0.4,0.2,0.6,0.1c0.6,0.1,1.3,0,1.9-0.2c0.6-0.2,1-0.8,1-1.5c-0.1-0.3-0.1-0.5-0.1-0.8c0.1-0.5,0.8-0.6,1.2-0.8
		c1.2-0.6,1.1-2.2,1.4-3.4c0.5-1.7,1.7-3.1,3.3-3.9c0.8-0.4,1.5-0.8,2.2-1.4c0.7-0.6,1.1-1.4,0.9-2.3"/>
	<path class="st1" d="M319.4,46.8c0.9-0.9,2.1-1.5,3.3-1.8l1.3-0.7c4.1-0.8,8.2-1.4,12.3-1.9c1-0.2,2-0.2,3.1,0l0.3,0.1
		c3-0.7,6-1.3,9-1.8l1.4,0.1c1.3-0.1,2.5,0,3.7,0.4c0.6,0.2,1,0.9,0.8,1.5c-0.1,0.3-0.4,0.6-0.7,0.8c-1.2,0.6-3.1,0.3-3.9,1.1
		s1.2,1.8,0.8,2.8c-0.2,0.6-1.3,1-2,1.5s-0.9,1.5-1.6,2.1c-0.9,0.7-2,1.1-3.1,1c-1.1,0.3-2.8,0.1-3,1c0,0.2,0,0.5,0.1,0.7
		c0.1,1-0.4,2-1.4,2.4c-1,0.5-2.2,0.6-3.3,0.1c-0.9-0.5-1.4-1.3-2.3-1.7c-0.3-0.1-0.7-0.2-1-0.3c-0.3,0.3-0.6,0.6-1,0.8
		c-1,0.5-2.2,0.6-3.3,0.1c-0.9-0.5-1.4-1.3-2.3-1.7c-0.8-0.3-1.9-0.3-2.4-1c-0.8-1,0.8-2.6-0.3-3.3s-2.7,0.4-4,0.2
		c-0.8-0.2-1.3-1-1.1-1.8C319,47.3,319.2,47,319.4,46.8z"/>
	<path class="st1" d="M374.9,206.6c-0.8,0.6-1.8,1.1-2.8,1.2l-1.1,0.5c-3.3,0.3-6.7,0.6-10,0.7c-0.8,0.1-1.7,0-2.5-0.2
		c-0.1,0-0.2,0-0.2-0.1c-2.5,0.3-4.9,0.6-7.4,0.8l-1.2-0.2c-1,0-2.1-0.2-3-0.6c-0.5-0.2-0.7-0.8-0.5-1.3c0.1-0.2,0.3-0.4,0.5-0.5
		c1-0.4,2.5,0,3.2-0.6s-0.9-1.5-0.5-2.3c0.2-0.5,1.1-0.7,1.7-1.1s0.8-1.1,1.4-1.6c0.8-0.5,1.7-0.7,2.6-0.6c0.9-0.2,2.2,0.1,2.5-0.6
		c0-0.2,0-0.4,0-0.6c0-0.8,0.5-1.6,1.3-1.8c0.9-0.4,1.8-0.3,2.7,0.1c0.7,0.4,1,1.2,1.7,1.6c0.2,0.1,0.5,0.2,0.8,0.3
		c0.2-0.3,0.5-0.5,0.8-0.6c0.9-0.4,1.8-0.3,2.7,0.1c0.7,0.4,1,1.2,1.7,1.6s1.5,0.4,1.9,0.9c0.5,0.8-0.8,2.1,0,2.7s2.2-0.2,3.2,0.1
		c0.6,0.2,1,0.8,0.9,1.4C375.2,206.2,375.1,206.4,374.9,206.6z"/>
	<path class="st16" d="M452.7,97.9c1.3-0.2,2.5-0.6,3.5-1.3c1-0.8,1.4-2.2,0.8-3.3c-1.1-1.7-4.4-1.5-4.5-3.4c1.3-2.2,5.3-2,5.8-4.5
		c0.4-2-1.9-3.4-3.8-4.2c1-1.4,0.8-0.2,2.4-0.9s1.9-4.8,0.7-6c-1.3-1.4-1.7,0-1.3-2c1.2-0.6-1.8-1.3-1-2.4c0.9-1.1,1-2.7,0.2-3.8
		c-1.1-1.3-3.5-1.4-3.8-3c-0.2-1.4,1.5-2.3,2.2-3.5c1.2-2.3-1.3-4.7-3.5-6.1c1.1-0.9,1.9-1.9,2.6-3.2c0.6-1.3,0.3-2.8-0.6-3.8
		c-0.7-0.4-1.5-0.8-2.2-1.1c-3-1.7-2-6.2-0.7-9.3c-2.4,0.5-4.9-0.8-5.7-3.2c-0.3-1.1-0.3-2.3-0.9-3.3s-2.2-1.5-2.8-0.5"/>
	<path class="st1" d="M453,98.9c2.5-0.5,7-2.3,5.7-5.8c-0.5-1.1-1.5-1.9-2.7-2.2c-0.5-0.2-0.9-0.4-1.4-0.6c-0.2-0.1-0.3-0.2-0.5-0.4
		c-0.1-0.1-0.1-0.2-0.1-0.3c0,0.2,0,0.2,0.1,0.1c0.6-0.8,2-1.1,2.9-1.5c1.1-0.5,2-1.3,2.6-2.3c1.4-2.9-2-4.9-4.2-5.8l0.4,1.4
		c0.6-0.8-1.4-0.1-0.4,0c0.3,0,0.5,0,0.8,0c0.8-0.1,1.5-0.4,2.1-0.8c1-0.9,1.5-2.1,1.6-3.4c0.2-1.2,0-2.5-0.6-3.6
		c-0.4-0.5-0.9-0.9-1.4-1.2c-0.1,0-0.5-0.2-0.5-0.2c0.4,0.7,0.5,0.8,0.5,0.4c0-0.2,0.1-0.4,0.1-0.6l-0.5,0.8c0.7-0.3,1-1,0.7-1.6
		c-0.1-0.1-0.1-0.3-0.2-0.4c-0.2-0.3-0.5-0.5-0.8-0.7c-0.4-0.3-0.3-0.1,0-0.5c0.7-1,0.9-2.4,0.4-3.5c-0.5-1-1.4-1.8-2.5-2.2
		c-0.8-0.4-2-0.9-1.4-2s1.7-1.7,2.1-2.9c0.9-2.8-1.9-5.2-4-6.5l0.1,1.3c1.4-1.3,3-2.9,3.1-5c0.1-1.8-1-3.4-2.7-3.9
		c-1.5-0.5-2.5-2-2.5-3.6c0-1.8,0.4-3.5,1.2-5.1c0.5-1.1-1-1.3-1.7-1.2c-1.1,0.1-2.3-0.3-3-1.2c-1.1-1.2-0.9-2.7-1.5-4.1
		c-0.9-2.3-4.2-3.2-5.8-1.1c-1.2,1.5,1.7,2,2.6,0.9c-0.5,0-0.7,0.1-0.4,0.2c0.1,0,0.2,0.1,0.2,0.1c0.2,0.3,0.3,0.5,0.5,0.8
		c0.2,0.7,0.2,1.4,0.4,2.1c0.3,1,0.8,1.9,1.5,2.7c1.7,1.4,3.9,2,6.1,1.4l-1.7-1.2c-1.1,2.7-2.3,6.5-0.4,9.1c0.5,0.6,1,1.1,1.7,1.4
		c0.8,0.4,1.8,0.5,2.2,1.4c1.1,2-1,3.9-2.3,5.1c-0.3,0.3-0.4,0.8,0,1.2c0,0,0.1,0.1,0.1,0.1c1.3,0.9,2.9,2.1,3.3,3.7
		s-1.2,2.4-1.9,3.6c-0.7,1-0.6,2.4,0.3,3.2c0.9,0.8,2.3,1,3.1,2c0.5,0.6,0.6,1.5,0.2,2.2c-0.2,0.5-0.7,0.9-0.7,1.5
		c0,0.5,0.2,0.9,0.6,1.2c0.1,0.1,0.7,0.7,0.8,0.7s0.4-1.2,0-0.5c-0.1,0.1-0.2,0.3-0.2,0.4c-0.1,0.3-0.1,0.6-0.1,0.9
		c-0.1,0.5,0.2,1,0.6,1.2c0.3,0.1,0.6,0.3,0.9,0.4c0.4,0.4,0.6,0.9,0.6,1.4c0.1,0.6,0.1,1.3-0.1,1.9c0,0.3-0.1,0.6-0.2,0.8
		c0,0.1-0.1,0.2-0.2,0.3s-0.2,0.1,0,0.1c-0.2,0.1-0.9,0-1.2,0.1c-0.7,0.2-1.4,0.7-1.8,1.3c-0.3,0.3-0.4,0.9,0,1.2
		c0.1,0.1,0.3,0.2,0.4,0.2c1.4,0.6,4.8,2.7,2.3,4.2c-1.6,1-3.8,1.3-4.8,3.1s1.7,3,3,3.5c0.9,0.4,1.9,0.9,1.6,2.1
		c-0.3,1.5-2,1.7-3.3,1.9c-0.6,0.1-1.5,0.7-1.3,1.4S452.4,99.1,453,98.9L453,98.9z"/>
	<path class="st17" d="M442,34.4c-0.6-1.4-3.1-8.3-3.6-9.8c-1.7,0.8-3.7,0.2-4.6-1.5c-0.1-0.2-0.2-0.4-0.2-0.6c-0.2-1-0.1-2.3-1-2.8
		s-2,0.5-3,0.6c-2.3,0.2-3.2-3.4-5.5-3.9c-1.4-0.3-2.9,0.8-4.3,0.6c-2.2-0.3-3-3.4-5.1-3.9c-1.5-0.4-3,0.6-4.5,0.4
		c-3.3-0.4-4.7-5.7-8-5.2c-1.2,0.2-2.2,1.1-3.4,1.2c-2.2,0.1,0.7-2.6-1.5-2.5c-2,0-3.2,2.3-5.1,2.8c-3.1,0.9-6.4-3.3-9.2-1.6
		c-1.2,0.7-1.6,2.3-2.8,3c-2.7,1.8-6.4-1.9-9.4-0.7c-1.5,0.6-2.4,2.4-4,2.8c-2.4,0.7-4.8-2.1-7.3-1.5c-2,0.5-3.1,2.9-5.1,3.1
		c-1.4,0.1-2.7-0.9-4.1-0.9c-2.4,0-3.8,2.9-6,3.8c-1.9,0.7-4-0.1-6-0.3s-5.7,4.3-5.4,6.3"/>
	<path class="st1" d="M443.5,34c-1.3-3.2-2.4-6.5-3.6-9.8c-0.3-0.8-2-0.1-2.5,0.1c0.3-0.2-0.3-0.1-0.5-0.2c-0.2-0.1-0.4-0.2-0.6-0.3
		c-0.5-0.3-0.8-0.7-1.1-1.2c-0.5-1-0.1-2.2-0.9-3.1s-2-0.7-3-0.5c-0.5,0.2-0.9,0.4-1.4,0.5c-0.4,0-0.8-0.5-1.1-0.7
		c-1.4-1.3-2.2-3-4.3-3.2c-0.6,0-1.3,0-1.9,0.2c-0.6,0.3-1.3,0.4-2,0.5c-1-0.1-1.7-1.3-2.3-2c-0.6-0.8-1.3-1.4-2.1-1.8
		c-1.3-0.4-2.6-0.4-3.8,0c-1,0.3-2.1,0.1-2.9-0.6c-0.8-0.7-1.5-1.4-2.1-2.2c-1.2-1.3-2.5-2.3-4.4-2.3c-1.2,0.1-2.4,0.4-3.5,1.1
		c-0.7,0.5-0.1,0-0.1,0.1c0-0.1-0.1-0.2,0-0.2c0.1-0.3,0.2-0.7,0.2-1c0.2-1.9-2.8-1.3-3.8-0.9c-1,0.4-1.9,1-2.7,1.7
		c-0.3,0.2-0.8,0.8-1.1,0.8c-0.5,0-1.1-0.2-1.6-0.4c-2-0.8-3.8-1.9-6-1.7c-1.1,0.1-2.2,0.6-3.1,1.3c-0.9,0.7-1.4,2.2-2.4,2.7
		c0.4-0.2,0,0-0.2-0.1s-0.5-0.1-0.8-0.1c-0.5-0.1-1-0.3-1.5-0.5c-1.1-0.4-2.2-0.7-3.3-0.8c-2.5-0.1-4.2,1.1-5.9,2.6
		c-0.5,0.5-0.6,0.6-1.1,0.5c-0.5-0.1-1.1-0.3-1.6-0.6c-1.1-0.6-2.3-0.9-3.5-1c-2.5-0.1-4.1,1.4-6,2.8c-0.6,0.5-1,0.2-1.7-0.1
		c-0.7-0.3-1.4-0.4-2.1-0.5c-1.3,0-2.5,0.3-3.6,0.9c-1.1,0.7-2.1,1.5-3,2.4c-0.5,0.5-1.3,0.8-2,0.6c-0.8-0.1-1.6-0.2-2.4-0.4
		c-2.3-0.4-4.6,0.4-6.2,2.1c-1.3,1.3-2.9,3.2-2.8,5.2c0,0.7,3.1,0.2,3.1-0.8c-0.1-1.7,1.6-3.6,2.8-4.7c0.2-0.1,1.2-0.9,0.6-0.6
		s0.1,0.1,0.4,0.2l0.9,0.1c1.5,0.3,3,0.4,4.6,0.1c2.5-0.5,3.7-2.2,5.7-3.6c0.6-0.4,0.5-0.3,1.3,0c0.6,0.2,1.1,0.4,1.8,0.5
		c1.2,0.2,2.4,0.1,3.6-0.4c1-0.5,1.9-1.1,2.7-1.9c0.3-0.3,0.6-0.6,1-0.8c0.5-0.1,1.5,0.4,1.9,0.6c2.2,0.9,4.3,1.5,6.6,0.4
		c0.9-0.5,1.8-1.2,2.5-1.9c0.9-0.8,1.2-0.6,2.5-0.3c2.1,0.6,4.1,1.5,6.3,0.9c1-0.2,2-0.8,2.7-1.5c0.4-0.4,0.7-0.9,1.1-1.4
		c0.2-0.2,0.4-0.5,0.6-0.7c0.2-0.1,0.2-0.2-0.1-0.1c0.2,0,0.3,0,0.5,0.1c2,0.4,3.7,1.9,5.9,2.1c2.4,0.2,4.2-1,6-2.4
		c0.1-0.1,0.6-0.6,0.7-0.5c0,0-0.2,0-0.2,0c0,0.2,0,0.4,0,0.6c-0.1,0.5-0.4,1.1,0,1.5s1.7,0.4,2.3,0.3c0.6-0.1,1.3-0.3,1.9-0.6
		c0.3-0.1,0.6-0.4,1-0.5S402,9,401.9,9c1.6,0.1,2.9,2.4,3.9,3.4c1.3,1.5,3.3,2.1,5.3,1.8c1.4-0.2,2.4-0.7,3.5,0.4
		c0.8,0.7,1.4,1.7,2.2,2.4c0.9,0.7,2,1,3,0.9c1.3-0.1,2.7-1.1,3.8-0.2c1.6,1.2,2.3,3.4,4.6,3.5c0.7,0,1.4-0.1,2.1-0.3
		c0.2-0.1,0.5-0.2,0.8-0.3c0.4-0.1,0.2-0.1,0.5,0.4c0.5,1.1,0.2,2.2,1,3.2c1.6,2.1,4.6,1.9,6.7,0.8l-2.4,0.1
		c1.3,3.2,2.4,6.5,3.6,9.8C440.7,35.6,443.7,34.7,443.5,34L443.5,34z"/>
	<path class="st18" d="M333.2,21.2c-2.7,1.2-5.7,1.3-8.4,0.4c0.4,2.5-1.4,4.8-3.9,5.2c-0.2,0-0.3,0-0.5,0c-1-0.2-2-0.2-3-0.2
		c-3.5,0.5-4.9,6.4-8.3,5.6c1.6,0.8,0.7,3.4-0.7,4.5s-3.4,1.9-3.9,3.6c-0.2,0.6-0.1,1.3-0.4,1.9c-0.4,0.7-0.9,1.3-1.5,1.8
		c-2.4,2.2-4.3,5-5.4,8.1c-1.8,5.4-3.1,10-0.6,22.7c-3.2-15.2,2.6-18.3,5.8-23.1c2.7-4.2,8.5-5.9,12.5-8.8s8.6-4.3,13.3-5.7
		c14.2-4,28.9-13.9,43.6-15.6c12.5-1.4,22.9-3.5,35.2-0.7s17.7,6.1,25.1,16.3c0,0-17.6-22.9-33.5-23.3s-41.7,6.4-41.7,6.4
		L333.2,21.2z"/>
	<path class="st1" d="M332.6,20.3c-2.2,1-4.6,1-6.9,0.2c-0.9-0.3-2.6,0.2-2.4,1.5c0.2,1.7-0.9,3.7-2.7,3.7c-1.1-0.2-2.2-0.2-3.4-0.1
		c-0.8,0.1-1.5,0.4-2.1,0.9c-1.2,0.8-2.2,1.9-3.1,3c-0.6,0.7-1.3,1.8-2.3,1.6s-3.1,1.2-1.7,2c1.2,0.8,0,2.5-0.8,3.1
		c-1.3,1-2.9,1.7-3.7,3.2c-0.3,0.8-0.6,1.6-0.7,2.4c-0.3,0.9-1.2,1.5-1.9,2.2c-1.4,1.4-2.6,2.9-3.6,4.6c-2.4,4.4-3.6,9.3-3.6,14.3
		c0.1,4.1,0.6,8.2,1.5,12.3l3.1-0.8c-1-4.6-1.6-9.7,0.2-14.2c1-2.6,2.9-4.7,4.5-6.9c1.1-1.7,2.6-3.2,4.2-4.5
		c2.1-1.5,4.5-2.5,6.7-3.8c2.4-1.6,4.9-3,7.5-4.3c2.9-1.2,5.9-2,8.9-2.9c12.1-3.8,23.1-10.7,35.4-13.9c3-0.7,6-1.2,9.1-1.5
		c3.4-0.4,6.7-0.9,10.1-1.2c6.5-0.8,13-0.7,19.4,0.3c5.3,1,10.9,2.4,15.6,5.3c4.5,2.8,7.9,6.8,11,11l2.8-1.4
		c-3.7-4.7-7.8-9-12.4-12.9c-3.6-3.2-7.7-6-12-8.1c-4.2-2-8.8-2.9-13.5-2.7C385.4,12.9,375,14.8,365,17c-2.7,0.6-5.4,1.1-8,1.9
		c-0.4,0.1-0.5,0,0.1,0c-0.2,0-0.4,0-0.6,0l-3.3,0.1l-19.8,1c-1.8,0.1-2.4,2.4-0.3,2.3l17.1-0.8c2.1-0.1,4.3-0.1,6.5-0.3
		c1.7-0.3,3.4-0.7,5.1-1.2c9.3-2.3,18.8-3.9,28.4-4.9c4.6-0.4,9.2-0.8,13.7,0.7c4.4,1.6,8.5,4,12.2,7c5.5,4.3,10.5,9.3,14.8,14.8
		c0.9,1.1,3.8-0.1,2.8-1.4c-2.9-4-6.1-7.9-10.2-10.7c-3.9-2.5-8.2-4.3-12.8-5.4c-6.6-1.7-13.4-2.3-20.2-1.9c-3.5,0.2-6.9,0.6-10.3,1
		s-6.9,0.7-10.3,1.3c-13.2,2.2-24.7,9.4-37.1,13.8c-6.1,2.2-12.5,3.3-17.9,7c-2.3,1.5-4.7,2.8-7.1,4.2c-2.3,1.2-4.4,2.9-6.1,4.9
		c-2,2.7-4.3,5.3-5.7,8.3c-2.3,5.1-1.7,10.8-0.6,16.1c0.3,1.4,3.4,0.6,3.1-0.8c-1.2-6.1-2.1-12.4-0.6-18.5c0.6-2.7,1.7-5.4,3.2-7.8
		c1.2-1.6,2.6-3,4-4.4c1.3-1.4,0.8-3.5,2.4-4.6s3-1.8,3.9-3.5c0.7-1.4,0.8-3.2-0.7-4.2l-1.7,2c1.8,0.3,3.7-0.4,4.9-1.8
		c1.1-1.1,2-2.8,3.5-3.6c1-0.5,2.3,0.1,3.3,0.1c1.1,0,2.3-0.4,3.2-1c2-1.2,3.2-3.5,2.8-5.8l-2.4,1.5c3.3,1.1,6.9,1,10-0.5
		c0.6-0.3,1.1-1,0.7-1.6S333.2,20,332.6,20.3z"/>
	<path class="st16" d="M329,189.7c1.2,2.9,2.9,5.7,5,8.1c-1.1,0.5-0.3,2.2,0.7,2.9s2.4,1.4,2.3,2.6c0,0.4-0.2,0.8-0.3,1.2
		c-0.1,1.3,1.6,1.9,2.9,2c-0.8,0.8,0.2,2.1,1.1,2.6s2.2,1.2,2,2.3c-0.1,0.5-0.5,1-0.4,1.6c0.2,1.1,2,0.8,2.8,1.7
		c0.4,0.5,0.4,1.2,0.6,1.8c0.5,1,1.7,1.5,2.8,1c0.2-0.1,0.4-0.2,0.5-0.4c0.6,2.2,2,5,4.2,4.5c1.4-0.3,2.5-1.8,3.9-1.4
		c0.8,0.2,1.3,1.1,2.1,1.5c2.7,1.2,5-4.4,7.7-3.2c1.5,0.6,1.7,3,3.3,3.3s2.5-1.6,4-1.9s3.5,1,4.8,0c0.6-0.4,0.8-1.1,1.3-1.7
		c1.1-1.2,2.5,0.2,4.1,0.4c2.9,0.4,2.8-1.6,2.8-1.6c0.5-2,1.6-2.1,3.6-1.3c0.6,0.4,1.3,0.6,2,0.6c1.7-0.2,2.1-3.1,3.8-3.2
		c0.6,0.1,1.2,0.2,1.8,0.5c2.2,0.6,4.3-2.5,2.9-4.3c2.6-0.5,4.3-3,3.8-5.6c0-0.1,0-0.1,0-0.2c2.4,0.3,4.5-1.4,4.8-3.8
		c0-0.2,0-0.5,0-0.7c2.9,0.4,5.4-3.4,3.9-6c1.9,0.3,3.6-1,3.9-2.9c0-0.3,0-0.6,0-0.9c-0.2-1.1-0.9-2.4,0-3.1
		c0.5-0.5,1.4-0.3,2.1-0.4c1.5-0.3,2.4-1.8,2-3.3c-0.1-0.3-0.2-0.5-0.3-0.8c2.9,0.3,4.9-4,2.9-6c2.3,0.2,3.8-3.2,2.2-4.8
		c3-0.5,4.5-4.9,2.4-7.1l-29.6,41l-8.4,5.4c0,0-31.5,7.6-37.9,5.8S329,189.7,329,189.7z"/>
	<path class="st1" d="M327.5,190.1c1.3,3,2.9,5.8,5,8.3l0.3-0.6c-0.8,0.4-1.1,1.4-0.7,2.2c0,0.1,0.1,0.1,0.1,0.2
		c0.6,1.1,1.8,1.4,2.6,2.3c1,1.1-0.2,2.3,0.6,3.4c0.7,1,2.1,1.2,3.2,1.3l-0.5-0.4c-1.3,1.8,1.7,2.9,2.6,3.8s0.1,1.6,0.1,2.6
		c0.1,0.8,0.8,1.1,1.5,1.3c1.1,0.4,1.5,0.6,1.8,1.7c0.1,0.8,0.6,1.4,1.3,1.8c1.8,0.6,3.7,0.2,5.1-1l-2.9,0.5c0.7,2.5,2.1,5.1,5,4.8
		c0.7-0.1,1.4-0.3,2.1-0.6c0.3-0.1,1.9-0.8,1.9-1.1c0,0.4-0.8-0.3-0.5,0.2c0.1,0.1,0.4,0.2,0.5,0.3c0.3,0.2,0.5,0.5,0.8,0.7
		c0.4,0.3,1,0.6,1.5,0.6c2.5,0.3,4.4-1.3,6.1-2.8c0.1-0.1,1.1-0.8,1.1-0.8c0,0.3-0.9-0.2-0.6,0.2c0.1,0.1,0.2,0.1,0.4,0.2
		c0.3,0.2,0.5,0.4,0.7,0.7c0.7,0.9,1.2,2.1,2.4,2.4c1.4,0.2,2.8,0,3.9-0.8c0.5-0.3,1-0.7,1.5-1.1c0.2-0.1,0.4-0.1,0.1-0.1
		c-0.5,0,0.3,0.1,0.3,0.1c0.4,0.1,0.8,0.2,1.2,0.2c1.5,0.3,3.1-0.1,4.3-0.9c0.5-0.4,1-0.9,1.2-1.6l0.1-0.2l-1,0.3l0.5,0.2
		c0.4,0.1,0.8,0.3,1.2,0.5c1.8,0.6,5.5,0.4,6.2-1.8c0.1-0.2,0-0.4,0.1-0.6s0.2-0.4,0.2-0.6c0,0,0.2-0.3,0.2-0.3
		c0.2,0.2-1.5-0.1-0.8,0.3c0.7,0.3,1.3,0.5,2,0.7c0.7,0.3,1.5,0.4,2.3,0.2c1.4-0.2,2.6-1,3.4-2.1c0.2-0.3,0.4-0.5,0.5-0.8
		c0.1-0.1,0.2-0.2,0.2-0.3c0.3-0.7-0.6,0.5-0.7,0.2c0.2,0.4,1.8,0.5,2.2,0.5c2.4-0.1,6.5-2.6,4.5-5.4l-1.8,1
		c3.2-0.6,6.5-3.1,5.6-6.8l-2.5,1.1c3.3,0.4,7.6-1.8,7.3-5.6l-2.5,1.1c3.5,0.3,8.5-3,6.4-7l-2.8,1c1.8,0.3,3.7-0.2,5.1-1.3
		c1.6-1.3,1.7-2.8,1.2-4.6c-0.1-0.2-0.1-0.4-0.1-0.7c0-0.1,0-0.3,0-0.4c0.1-0.2,0-0.3-0.2-0.2h-0.1h0.4c0.3,0,0.5-0.1,0.8-0.1
		c0.9-0.1,1.7-0.5,2.4-1c1.3-0.9,1.7-2.6,1-4l-2.5,1.1c2.1,0.2,4.1-0.7,5.4-2.3c1.1-1.4,1.1-3.5-0.1-4.9l-2.4,1.2
		c1.8,0.1,3.5-0.6,4.7-2c1-1.2,1-2.8,0-4l-1.3,1c1.9-0.3,3.5-1.6,4.3-3.3c0.7-1.6,0.5-3.5-0.6-4.9c-0.5-0.6-2.6,0.3-3,0.8
		l-13.5,18.7l-15.8,21.9c-0.5,0.7-0.1,0,0,0.1c-0.2-0.1-1.8,1.1-2,1.3c-2.1,1.3-4.3,2.6-6.2,4c-0.6,0.4,1.2-0.4,0.8-0.3
		c-0.1,0-0.3,0.1-0.4,0.1c-0.6,0.1-1.2,0.3-1.8,0.4c-2.1,0.5-4.3,1-6.4,1.4c-6.2,1.3-12.4,2.6-18.6,3.4c-2.4,0.4-4.7,0.6-7.1,0.6
		c-1.6,0-3.1-0.6-4.3-1.5c-4.7-3.4-8.5-8.2-12.2-12.7c-3.1-3.7-6.1-7.5-9-11.4c-0.2-0.2-0.3-0.4-0.5-0.7
		C330,188.6,327.2,189.8,327.5,190.1c2.1,3,4.4,6,6.7,8.8c3.8,5.1,8.1,9.9,12.7,14.3c1.5,1.3,3.1,2.9,5.1,3.5c2,0.4,4,0.5,5.9,0.2
		c6.3-0.6,12.7-1.6,18.9-2.9c4.6-0.9,9.2-1.9,13.8-3c1.3-0.4,2.4-1,3.5-1.8c2.1-1.4,4.3-2.7,6.4-4.1c0.5-0.4,1-0.9,1.3-1.5l2.8-3.9
		l9.3-12.9l16.4-22.8l0.3-0.4l-3,0.8c0.8,1,1.1,2.3,0.8,3.5c-0.2,0.9-0.9,2.4-1.8,2.6c-0.2,0.1-1.8,0.5-1.3,1
		c0.5,0.6,0.7,1.4,0.5,2.2c-0.1,0.4-0.2,0.7-0.4,1c-0.1,0.2-0.2,0.3-0.4,0.5c-0.4,0.3-0.2,0.3,0.5,0c-0.3,0-3.1,0.5-2.4,1.2
		c0.7,0.8,0.9,1.9,0.6,2.9c-0.1,0.4-0.3,0.9-0.5,1.3c-0.1,0.2-0.3,0.4-0.5,0.6l-0.2,0.2c-0.3,0.2-0.3,0.2,0.2,0
		c-0.3,0-2.9,0.5-2.5,1.1c0.7,1.2,0.3,2.1-0.4,3.1c0.6-0.1,0.6-0.1,0.1-0.1h-0.4c-0.4,0-0.8,0.1-1.1,0.2c-0.6,0.1-1.3,0.4-1.8,0.8
		c-1,0.8-0.6,1.9-0.3,3c0.2,0.7,0.2,1.4,0,2c-0.1,0.3-0.3,0.7-0.6,0.9l-0.2,0.2c-0.4,0.3-0.4,0.3-0.1,0.1c-0.4,0-3.2,0.3-2.8,1
		c0.5,0.9,0.6,2,0.2,3c-0.2,0.4-0.4,0.8-0.7,1.2c-0.2,0.2-0.4,0.4-0.6,0.6l-0.3,0.2c0.3,0,0.2,0-0.1,0c-0.5,0-2.6,0.2-2.5,1.1
		c0.1,1.2-0.7,3.7-2.3,3.5c-0.4-0.1-2.7,0.3-2.5,1.1c0.2,1,0.1,2-0.3,2.8c-0.3,0.6-1,1.8-1.7,1.9c-0.1,0-2.1,0.5-1.8,1
		c0.6,1,0.5,2.2-0.2,3.1l-0.2,0.2c-0.4,0.3-0.3,0.3,0.3,0l-1.1-0.4c-0.6-0.2-1.3-0.2-1.9-0.1c-1.1,0.2-2.1,0.7-2.8,1.5
		c-0.3,0.4-0.6,0.8-0.9,1.2c-0.1,0.1-0.2,0.3-0.4,0.4c-0.4,0.4-0.2,0.3,0.6-0.1l-1-0.4c-1.9-0.8-4.6-0.9-6,0.8
		c-0.3,0.5-0.5,1.1-0.6,1.6c0,0.1-0.3,0.6-0.3,0.6l0.8-0.3c-0.3,0-0.6,0-0.8-0.1c-0.4-0.1-0.8-0.3-1.2-0.4c-1.1-0.5-2.3-0.5-3.4-0.2
		c-0.7,0.2-1.3,0.5-1.8,1c-0.2,0.2-0.4,0.5-0.5,0.8l-0.2,0.3c-0.5,0.5-0.4,0.5,0.1,0.2c-1.3-0.3-2.5-0.4-3.8-0.2
		c-1.3,0.3-2.6,0.9-3.5,1.8l-0.2,0.2c0.6-0.1,0.7-0.2,0.3-0.3c-0.1-0.1-0.3-0.3-0.4-0.4c-0.4-0.5-0.7-1-1.1-1.5
		c-0.5-0.8-1.4-1.3-2.4-1.3c-2.2-0.1-3.9,1.2-5.5,2.6c-0.3,0.2-1.1,0.7-1.3,1l-0.1,0.1c0.8,0,0.9-0.1,0.5-0.2
		c-0.1-0.2-0.6-0.4-0.8-0.6c-1-1-2.5-1.4-3.8-0.9c-0.7,0.2-1.3,0.5-1.9,0.8c-0.8,0.5-0.8,0.6-1.6,0c-1-1.1-1.7-2.4-2-3.8
		c-0.2-0.8-2.6,0.2-2.9,0.5c1-0.1,1.1-0.2,0.6-0.2l-0.3-0.1c-0.3-0.2-0.5-0.4-0.6-0.7c-0.3-0.6-0.2-1.3-0.6-1.8
		c-0.6-0.8-2.4-0.6-2.7-1.6c-0.2-0.6,0.4-1.2,0.3-1.8c-0.1-0.6-0.4-1.1-0.8-1.4c-0.8-0.7-3.4-1.7-2.4-3.2c0.2-0.3-0.4-0.4-0.5-0.4
		c-0.8-0.1-2.1-0.4-2.3-1.4s0.6-1.8-0.2-2.8c-0.6-0.6-1.3-1.1-2-1.5c-0.4-0.3-1.7-1.8-0.9-2.3c0.2-0.1,0.5-0.3,0.3-0.6
		c-2-2.4-3.6-5.1-4.9-8C330.2,188.5,327.2,189.5,327.5,190.1z"/>
	<path class="st1" d="M384.2,158.4c-0.9-0.8-2-1.3-3.2-1.4c-0.5,0-1.5,0.3-1.9,0.1s-0.8-0.8-1-1.1c-0.9-0.7-2.1-1-3.3-0.8
		c-0.6,0.2-1.2,0.4-1.7,0.8c-0.2,0.1-0.3,0.3-0.5,0.4c-0.4,0.2,0.1,0.1-0.4-0.1c-0.9-0.5-1.9-0.8-2.9-0.8c-0.6,0.1-1.2,0.3-1.7,0.7
		c0,0-0.6,0.5-0.6,0.6c-0.2,0.2-0.1,0.2,0.3-0.1l-0.3-0.2c-0.8-0.9-2-1.4-3.2-1.5c-0.6,0-1.3,0.2-1.9,0.4c-0.3,0.1-0.5,0.3-0.8,0.4
		s-0.4,0.1-0.2,0.3c-1-1-3.9,0.2-2.8,1.4c0.8,0.8,2.1,1.1,3.2,0.7c0.6-0.2,1.1-0.6,1.6-0.8c0.3-0.1,0.2-0.1,0.5,0
		c0.3,0.2,0.6,0.4,0.8,0.6c0.9,0.8,2.2,1.1,3.4,0.8c0.6-0.2,1.1-0.5,1.5-0.9c0.1-0.1,0.2-0.2,0.3-0.3c0.3-0.2,0.1-0.2-0.5,0.1
		c0,0.1,0.5,0.2,0.6,0.3c0.9,0.6,2.1,0.8,3.1,0.6c0.6-0.2,1.2-0.4,1.7-0.8c0.6-0.4,0.5-0.6,1-0.2c1,0.7,1.3,1.6,2.7,1.7
		c0.7,0,1.3-0.2,1.9-0.2c0.7,0.1,1.3,0.4,1.7,0.9C382.8,161.1,385.5,159.6,384.2,158.4L384.2,158.4z"/>
	<path class="st1" d="M348.5,159.4c-1.2-0.3-2.5,0-3.5,0.7c-0.4,0.3-0.8,0.6-1.1,0.9c-0.2,0.1-0.4,0.2-0.5,0.4
		c-0.1,0.1-0.1,0.1-0.2,0.1c0.3-0.1,0.3-0.1,0,0c-1.3-0.1-2.5,0.5-3.2,1.6c-0.1,0.1-0.1,0.2-0.2,0.4c0.8-0.1,0.9-0.2,0.5-0.2
		c-0.2-0.1-0.5-0.2-0.8-0.2c-0.7-0.3-1.5-0.4-2.3-0.2c-1.1,0.2-2,1.1-2.4,2.2c-0.1,0.2-0.2,0.4-0.3,0.6c0,0,0.2-0.1,0.1-0.1
		c-0.6,0.2-1.2,0.1-1.8,0.2c-1,0.2-2.8,1.2-2.5,2.5c-0.1,0.3,0,0.3,0.2,0.1s0.3-0.2,0.1-0.1c-0.4,0.1-0.7,0.2-1.1,0.5
		c-0.5,0.2-0.8,0.7-0.8,1.2c0,1.5,3.1,1,3.1-0.3c-0.8,0.5-1,0.7-0.5,0.5l0.2-0.1c0.3-0.1,0.6-0.2,0.9-0.4c0.4-0.3,0.8-0.7,0.9-1.2
		c0.1-0.2,0.1-0.5,0.1-0.7c-0.1-0.3,0-0.1-0.1,0c0.4-0.1,0.8-0.1,1.3-0.1c1.2-0.1,2.2-0.7,2.9-1.6c0.2-0.4,0.4-0.7,0.5-1.1
		c0.2-0.4,0.5-0.5-0.2-0.2s-0.3,0.2,0.2,0.4c1.1,0.4,2.3,0.5,3.4,0.1c0.5-0.2,1-0.6,1.3-1.1c0.1-0.2,0.2-0.4,0.3-0.6
		c-0.5,0.2-0.7,0.3-0.4,0.3h0.4c1.1-0.1,2.1-0.5,2.9-1.1c0.3-0.2,0.6-0.5,0.9-0.8c0.1-0.1,0.5-0.2,0.5-0.4s0.1-0.1,0.1,0
		c-0.2,0.1-0.3,0.1-0.5,0.1c0.8,0.2,1.6,0,2.2-0.6c0.3-0.3,0.4-0.8,0.1-1.1c-0.1-0.1-0.3-0.2-0.4-0.3L348.5,159.4z"/>
	<path class="st19" d="M430.2,106.9c-3.6-2.7-0.5-9.2-3.5-12.5c-0.8-0.7-1.5-1.4-2.3-2.1c-1.7-2.4,0.2-6-1.3-8.5
		c-0.7-1.1-1.9-1.8-2.5-3c-1.1-2.2,0.8-5,0.2-7.4c-0.7-2.7-4.3-4.6-3.6-7.3c0.3-1.3,1.7-2.2,1.9-3.6c0.5-2.3-2.5-4.9-1-6.8
		c0.5-0.7,1.4-0.9,1.8-1.7c0.8-1.5-1.1-2.9-2-4.3s-0.7-3.3-1.1-5s-2.3-3.3-3.8-2.4c0.5-2.8-2.1-9.8-4.9-9.1c-1.4,0.4-3,1.3-4,0.2
		c-0.6-0.8-0.2-2-0.8-2.9c-1.4-2.1-4.8,1.8-7.1,0.6c-0.6-0.3-1-1-1.5-1.4c-1.2-1-3-0.6-4.5,0s-0.9-1.4-2.4-1.5s-3.3-2.9-2.5-4.2
		c-1.5,1.1-5.1,3.8-6.9,4.2s-4.5-2.8-5.2-4.5c-0.1,2.6-3.2,9.3-5.1,7.5c-0.8-0.7-1.4-1.9-2.5-1.8c-0.5,0.1-0.9,0.2-1.3,0.6
		c-1.7,1.2-3.3,7.2-4.1,9.2l-0.8-11.5l31-9l32.8,10.8l10,32.6l-4.3,47.1"/>
	<path class="st1" d="M431.7,106.3c-1.9-1.5-1.8-4.1-1.9-6.3s-0.1-4.5-1.6-6.2c-1-1.1-2.3-1.7-2.7-3.2c-0.2-1.4-0.3-2.8-0.1-4.2
		c0.1-1.2-0.2-2.3-0.8-3.3c-0.8-1.2-2.2-2-2.6-3.5s0.2-2.8,0.5-4.2c0.2-1.2,0.1-2.5-0.5-3.6c-0.9-1.8-3.8-3.7-3.2-5.9
		c0.3-1.1,1.3-1.9,1.7-3c0.4-1.2,0.3-2.5-0.3-3.6c-0.4-0.9-1.2-2.2-0.9-3.1s1.8-1.4,2.2-2.5c0.5-1.4-0.5-2.5-1.2-3.6
		c-1-1.3-1.5-2.8-1.6-4.4c0-1.6-0.8-3-2-4c-1.3-0.9-2.9-1-4.2-0.2l2.2,0.5c0.4-2.6-0.7-5.6-2.1-7.7c-0.6-1-1.5-1.8-2.6-2.2
		c-0.6-0.2-1.3-0.2-2,0c-0.6,0.1-1.8,0.9-2.3,0.4s-0.3-1.7-0.5-2.4c-0.2-0.6-0.8-1.1-1.4-1.3c-1.3-0.3-2.7-0.1-3.9,0.6
		c-0.5,0.3-1.1,0.5-1.7,0.7c-0.7,0.1-1-0.5-1.4-0.9c-1.3-1.2-3.2-1.6-4.9-1.1c-0.6,0.1-1.1,0.3-1.6,0.5c-0.3,0.2-0.7,0.1,0.2,0.1
		s0.5,0.1,0.4-0.2c0-0.5-0.8-1.1-1.2-1.3c-0.8-0.4-1.3-0.2-1.9-1c-0.5-0.6-1-1.6-0.7-2.4c0.6-1.4-1.8-1.1-2.4-0.6
		c-1.7,1.4-3.6,2.7-5.6,3.8c-0.1,0.1-0.3,0.1-0.4,0.2c0.3,0-0.1-0.1-0.2-0.1c-0.5-0.3-0.9-0.6-1.4-1c-0.9-0.8-1.6-1.8-2.1-2.8
		c-0.5-1-3-0.5-3.1,0.6c-0.2,2.1-0.9,4-2.1,5.8c-0.2,0.4-0.6,0.7-0.8,1s0.1,0,0.4-0.1c0.7-0.1,0.4,0.2,0.2-0.2
		c-0.7-1.2-1.9-1.9-3.3-1.9c-2.6,0.1-4,2.3-5,4.4s-1.5,4.3-2.3,6.4l3.1-0.6l-0.8-11.5l-1.3,1.3l27.1-7.9l3.9-1.1h-1.2l28.7,9.4
		l4.1,1.4l-0.6-0.5l4.5,14.8l3.3,10.7c0.7,2.2,1.3,4.5,2.1,6.7c0,0.1,0.1,0.3,0.1,0.4c0-0.2,0-0.3,0,0c0,0.6-0.1,1.1-0.2,1.7
		l-0.7,7.7l-2.1,22.6l-1.4,15c-0.1,1.4,3,0.8,3.1-0.3l2.9-31.9l1.3-14.5c0.1-0.7,0-1.4-0.3-2l-2.1-6.9l-6-19.4
		c-0.4-1.7-0.9-3.4-1.6-5.1c-0.4-0.9-2-1.1-2.9-1.4l-18.2-6l-8.7-2.8c-1.2-0.5-2.4-0.9-3.7-1.2c-1.4-0.3-3.4,0.7-4.7,1.1l-9.1,2.6
		l-17.3,5l-1.1,0.3c-0.6,0.2-1.4,0.6-1.3,1.3l0.9,11.5c0.1,1.3,2.8,0.2,3.1-0.6c0.8-2.2,1.4-4.4,2.4-6.5c0.2-0.5,0.5-1.1,0.8-1.5
		c0.1-0.1,0.2-0.3,0.3-0.4l0.1-0.1c0.3-0.2,0.2-0.1-0.2,0c0.4,0.5,0.9,1,1.4,1.4c0.3,0.3,0.6,0.5,1,0.6c4.1,1,6.8-5.8,7-8.9
		l-3.1,0.6c1.2,2.5,3.7,5.6,6.8,5c2.9-0.5,5.6-2.8,7.9-4.6l-2.4-0.6c-0.5,1.3-0.2,2.8,0.7,3.8c0.4,0.6,1,1,1.7,1.3
		c0.7,0.3,0.9,0.1,1.3,0.8c0.8,1.3,2.1,1.1,3.5,0.6c0.8-0.5,1.8-0.4,2.5,0.2c0.7,0.6,1.1,1.3,1.9,1.6c1.4,0.3,2.9,0.2,4.2-0.5
		c0.6-0.2,1.1-0.5,1.7-0.7c0.3-0.1,0.3,0,0.1-0.1c0.2,0.2,0.4,0.4,0.4,0.7c0.2,0.8,0.1,1.6,0.6,2.3c0.5,0.6,1.3,1,2.1,1
		c0.8,0,1.7-0.1,2.4-0.4c0.4-0.2,0.8-0.3,1.1-0.4c-0.6,0,0,0.1,0.1,0.2c1,1.1,1.8,2.4,2.4,3.8c0.6,1.4,0.8,2.9,0.7,4.4
		c-0.2,1,1.7,0.8,2.2,0.5c0.2-0.1,1,0.9,1.2,1.1c0.3,0.6,0.5,1.2,0.6,1.9c0.1,1.4,0.4,2.8,1,4.1c0.5,1,1.8,1.9,2,3s-1.5,1.7-2,2.6
		c-1.1,2,0.8,4,1.1,5.9c0.2,1.3-0.6,2.1-1.2,3.1c-0.7,0.9-0.9,2-0.7,3.1c0.5,2.1,2.6,3.4,3.5,5.3c1.1,2.6-1.2,5.3,0,8
		c0.6,1,1.4,1.9,2.2,2.7c0.8,1.1,1.1,2.5,0.9,3.9c-0.1,1.1-0.1,2.3,0.1,3.4c0.3,1.3,1.1,2.4,2.2,3.1c2.2,1.9,2.2,4.3,2.3,7
		c0,2.3,0.2,4.8,2.1,6.3c0.6,0.4,1.4,0.5,2.1,0.1C431.2,107.5,432.2,106.8,431.7,106.3L431.7,106.3z"/>
	<path class="st16" d="M433.6,127.4l-2.6,0.7c-0.3,0.1-0.6,0.1-0.8,0c-0.6-0.3-0.5-1.2-0.4-1.9c0.2-1.6-0.9-3.1-1.8-4.5
		s-1.6-3.2-0.8-4.6c0.5-0.7,1.4-1.3,1.3-2.2c0-1.1-1.5-1.5-2.4-2.2c-1.1-1.1-1.1-2.8,0-3.9c0.2-0.2,0.4-0.4,0.7-0.5
		c0,0-2.3-1.9-2.2-6.2s0.7-9.1,0.7-9.1l5.8-4.5L433.6,127.4z"/>
	<path class="st1" d="M433.4,126.6l-2,0.5l-0.4,0.1c-0.3,0.1-0.3,0.1,0,0s0.3-0.1,0.2-0.3c0-0.1,0-0.2,0-0.4c0.2-1.1,0-2.2-0.5-3.2
		c-0.9-1.8-3.4-4.3-1.9-6.4c0.5-0.7,1.2-1.3,1.2-2.2c-0.1-0.7-0.5-1.4-1.2-1.8c-0.7-0.5-1.6-0.8-1.9-1.7c-0.2-0.5-0.2-1.8,0.4-2.2
		c0.3-0.2,1.4-0.8,0.8-1.3c-1.7-1.4-2.1-4-2.1-6c0.1-3,0.3-5.9,0.7-8.8l-0.6,0.7l5.8-4.5l-2.5-0.1l2.2,34l0.3,4.8
		c0.1,1.1,3.1,0.4,3.1-0.8L433,93l-0.3-4.8c-0.1-1-2.1-0.4-2.5-0.1l-3.9,3c-0.6,0.5-1.2,0.9-1.8,1.4c-0.5,0.3-0.8,0.9-0.8,1.5
		c-0.4,3.3-0.9,6.9-0.5,10.2c0.2,1.8,0.9,3.5,2.2,4.8l0.8-1.3c-1.9,1-3.2,3.2-1.9,5.2c0.6,0.9,2,1.1,2.5,2s-1.2,2.2-1.5,3.1
		c-0.8,3.1,2.6,5,2.9,7.8c0.1,1-0.6,2.5,0.7,3.1c1.4,0.7,3.5-0.3,4.9-0.6c0.5-0.1,1.5-0.6,1.3-1.2S433.9,126.5,433.4,126.6z"/>
	<path class="st19" d="M312.3,44c0.5,0.8-0.6,1.7-1.5,2s-2.1,0.6-2.2,1.6c0,0.6,0.5,1.1,0.5,1.7c0,1.8-3.7,0.8-4.4,2.5
		c-0.5,1.3,1.2,2.9,0.3,3.9c-0.4,0.5-1.2,0.4-1.8,0.6c-1.1,0.3-2,1.2-2.1,2.3c-0.1,0.8,0.2,1.7-0.1,2.5c-0.4,0.9-1.6,1.2-2.4,1.8
		c-2.2,1.4-2.3,4.7-2,7.3s0.8,5.7-1,7.7c-2.1-1.4-2.8-4.2-1.7-6.5c0.5-0.6,0.9-1.2,1.2-1.9c0.3-0.7,0.1-1.5-0.5-2
		c-0.3-0.2-0.7-0.2-0.9-0.5c-0.6-0.8,1.1-1.3,1.8-2.1c0.9-0.9,0.1-2.5-0.9-3.4s-2.1-2.1-1.6-3.3c0.5-1.1,2-1.3,2.4-2.4
		s-0.6-2.5-0.5-3.8c0.1-1.7,2.2-2.5,3.9-2.9c-1.1-1.1-1-2.8,0-3.9c0.2-0.2,0.4-0.3,0.6-0.4c0.6-0.3,1.4-0.4,1.8-1
		c0.5-0.9-0.4-2.2,0.3-3s1.8-0.3,2.4-0.9c1-1-0.6-2.6-0.2-3.9c0.6-1.7,4.2-1.6,3.8-3.4"/>
	<path class="st1" d="M310.8,44.4c0.3,0.8-0.8,0.9-1.3,1.1c-0.7,0.2-1.3,0.6-1.9,1.1c-0.4,0.4-0.6,1-0.5,1.6
		c0.1,0.4,0.2,0.8,0.4,1.2c0.1,0.2-0.1,0.4,0.2,0.1c-0.5,0.2-1,0.3-1.5,0.3c-0.6,0.1-1.3,0.4-1.8,0.7c-1.1,0.5-1.6,1.8-1.2,2.9
		c0.1,0.3,0.2,0.6,0.3,1c0,0.3,0.1,0.5,0.1,0.8c0.1,0.1,0.1,0.1,0.3,0c-0.2,0.1-0.4,0.1-0.7,0.1c-0.4,0.1-0.9,0.2-1.3,0.4
		c-1.5,0.5-2.5,1.9-2.6,3.4c0,0.9,0.3,1.9-0.6,2.4c-0.7,0.4-1.4,0.8-2,1.2c-1.1,1-1.7,2.3-1.9,3.7c-0.6,3.6,1.6,8.1-0.9,11.2
		l2.6-0.7c-1.2-0.9-1.9-2.2-1.9-3.7c0-1.7,1.2-2.7,1.7-4.2c0.3-0.7,0.2-1.4-0.2-2c-0.2-0.3-1.4-0.8-1.4-1s1.3-0.9,1.4-1
		c0.5-0.4,0.8-1,0.9-1.6c0.1-1.7-1.5-2.7-2.4-3.9c-0.6-0.8-0.9-1.6,0-2.3c0.5-0.4,1-0.8,1.5-1.2c1.1-1.3,0.4-2.5,0.1-4
		c-0.4-1.8,1.1-2.3,2.5-2.7c0.4-0.1,1.8-0.8,1.2-1.4c-0.7-0.7-0.9-1.8-0.4-2.7c0.5-0.9,2-0.9,2.6-1.8c0.3-0.4,0.4-0.9,0.4-1.3
		c0-0.3,0-0.5-0.1-0.8c0-0.2,0-0.3,0-0.5c0.1-0.2,0-0.3-0.2-0.2s-0.2,0,0,0h0.3c0.4-0.1,0.7-0.2,1.1-0.3c0.5-0.2,1-0.5,1.3-0.9
		c1.2-1.4-1.1-3.7,0.5-4.6c1.2-0.7,3.5-1.2,3.2-3.1c-0.2-1-3.3-0.3-3.1,0.8c0.1,0.6-0.8,0.7-1.4,1c-0.8,0.3-1.5,0.9-2.1,1.5
		c-0.6,0.9-0.3,1.9,0,2.9c0.1,0.2,0.1,0.5,0.2,0.7c0.1,0.5-0.2,0.5,0.4,0.3c-0.6,0.1-1.2,0.3-1.8,0.5c-1,0.4-1.6,1.3-1.5,2.4
		c0,0.3,0.3,1.2,0.1,1.4s-1.3,0.5-1.7,0.8c-1.6,1-2,3.1-1,4.6c0.1,0.2,0.2,0.3,0.4,0.5l1.2-1.4c-1.6,0.3-3.1,1-4.4,2.2
		c-1.4,1.5-0.6,2.8-0.4,4.5s-2,2-2.5,3.5c-0.8,2.1,1.7,3.3,2.5,4.9c1.1,2.1-1.6,1.8-2,3.5c-0.2,0.7,0.3,1.1,0.9,1.3
		c1,0.6,0.9,1.3,0.4,2.3c-0.9,1.5-1.5,2.7-1.3,4.5c0.2,1.6,1.1,3,2.5,3.9c0.7,0.5,2.2-0.1,2.6-0.7c2.3-2.8,1.1-6.4,1-9.7
		c0-1.5,0.1-3.4,1.2-4.6s2.9-1.2,3.4-2.9c0.3-0.9-0.1-1.8,0.1-2.6c0.3-1,0.8-1,1.7-1.2c1.4-0.3,2.7-1.2,2.4-2.8
		c-0.1-0.6-0.5-1.2-0.5-1.8s0-0.7,0.4-0.8c1.2-0.3,2.5-0.4,3.4-1.2c0.5-0.4,0.7-1,0.6-1.6c-0.1-0.8-0.9-1.5,0.1-1.9
		c1.2-0.5,3.9-1.3,3.1-3.2c-0.4-1.1-3.5-0.2-3.1,0.8L310.8,44.4z"/>
	<path class="st20" d="M435,110.8l-0.7-3.7l-39.8-4.1l0,0c-14.5-2.9-32.9,4.2-42.7,13.2l-9.7,2.2l0.1-0.2
		c-12.8-6.3-31.9-4.3-45.2,4.9l0.6,1.4l0,0c0,0.1,0.2,0.3,0.3,0.6l0.6,1.2c3.6,8,7.7,16.5,10.5,18.4c1.9,1.3,7.2,1.1,11.6,0.7
		c1.7-0.1,3.2-0.3,4.2-0.5c1.3-0.2,12.8-1.8,14.4-3.9s2.6-15.9,2.8-20.3l9.9-2.2c1.8,3,6.9,16.6,12.2,18.5s30.1-3.6,31.8-7.4
		c1.2-2.8,4.3-12.5,4.8-17.3l1-6.3L435,110.8z M338,140.1c-1.8,2.1-24.7,5.5-27.9,3.3c-2.7-1.9-7.9-13.4-9.9-17.7v-0.2
		c12-7.4,29.2-9.3,40.3-4C340,129,339,138.8,338,140.1L338,140.1z M393,129.3c-1.1,2.4-22.5,8.2-28.1,6.2
		c-3.8-1.4-7.7-11.3-10.4-16.8c9.6-8.6,31.4-15.5,44.4-12.1C398,114.2,396.1,123.3,393,129.3z"/>
	<path class="st3" d="M453.6,202.3c0,0-12.6,42.6-60.8,45.7c-39,2.5-23.6-23.8-23.6-23.8L453.6,202.3z"/>
	<path class="st6" d="M444.3,150c0,0-5.2-0.1-6.9-2.9c0.4,3.4,3.2,6,6.6,6.1L444.3,150z"/>
	<path class="st21" d="M356.7,168.3c9.3-1.6,24.2-5.5,24.2-5.5s2.5,23.5-19,27.3s-25.6-19.5-25.6-19.5S347.4,170,356.7,168.3z"/>
	<path class="st1" d="M356.6,168.4c4.4-0.8,22.1-4.7,22.1-4.7s-2.1,15.1-18.1,17.9c-17.3,3.1-22.6-9.9-22.6-9.9L356.6,168.4z"/>
	<path class="st22" d="M356.6,169.1c4.4-0.8,17.7-4,17.7-4s-4,5.9-17.2,8.2s-18.3-1.8-18.3-1.8L356.6,169.1z"/>
	<path class="st21" d="M336.3,170.7c0.5-0.2-2.1-0.2,0-0.8c3.6-1,5.7-2.4,8.3-3.1c4.5-1.2,7.7,0.2,9.6-0.2s4.5-2.7,9.1-3.2
		c2.7-0.3,9.4-0.4,13.1-0.8c2.2-0.2,4.6-1.5,5.1-1.5c0.7,0.1,0.3,5.3-24.4,9.6S335.6,171,336.3,170.7z"/>
	<path class="st1" d="M356.7,160l1.6,4c0.2,0.6,0.8,1,1.5,1c4.6-0.2,21.9-1.2,25.9-2.1c0.1,0,0,1.8,0.1,1.7l0.9-0.2
		c1.4-0.6-0.6-5.4-2.2-5.7c-3.7-0.7-7.5-1.2-11.3-1.4c-3.1-0.1-11.8-0.2-15.5,0.6c-0.8,0.2-1.4,1-1.2,1.8
		C356.6,159.8,356.6,159.9,356.7,160z"/>
	<path class="st1" d="M351.5,161.4l0.6,3.9c0,0.6-0.4,1.2-1,1.5c-4,1.4-17.2,6.2-20.9,6.9c-0.1,0-0.2,0-0.3,0h-1.2
		c-1.4,0-1.3-3.3,0-4.1c2.6-1.9,5.4-3.5,8.3-5c2.7-1.3,9.5-4,12.9-4.7c0.8-0.1,1.6,0.5,1.7,1.3C351.5,161.3,351.5,161.3,351.5,161.4
		z"/>
	<path class="st9" d="M480.1,205.5c0,0,80.7,11.3,91.4,61.2c3.2,15.1,12.1,128.9,5.8,222.3c-1,14.1-0.2,26.6-27.4,44.8
		c-15.2,10.2-77.2,25-111.6,27.8L480.1,205.5z"/>
	<path class="st15" d="M503,244.9c-2.8,1.8-5.3,4.2-7.2,7c-5.5,7.4-8.2,16.5-9.4,25.5c-1,7.3-0.8,14.7-0.8,22s0.2,14.6,0.3,21.9
		c0.4,18.3,0.8,36.6,1.4,54.8c0.5,17.2,1,34.4,1.6,51.6c0.2,5.8,0.4,11.7,0.6,17.5c0.1,1.9,0.1,3.7,0.2,5.6c-0.1,1,0,1.9,0.1,2.9
		c0,0.1,0,0.2,0,0.4l0.9-0.9l-15.6,5.5l-37.6,13.4L392,488.2l-39.4,14c-6.3,2.2-12.8,4.2-19,6.8l-0.3,0.1c-0.4,0.1-1.1,0.6-0.8,1.1
		c2.5,3.2,4.6,6.6,6.4,10.2c4.9,9.7,8.4,20.1,10.5,30.7c1.7,8.8,2.6,17.7,2.7,26.7c0,0.4,1,0.4,1.2,0.4l13.2-2.4l31.7-5.7l38.4-6.9
		l33.2-5.9c5.4-1,10.8-1.8,16.2-2.9l0.2,0c0.4-0.1,1.6-0.3,1.6-0.9s-0.8-0.6-1.2-0.6l-13.2,2.4l-31.7,5.8l-38.4,6.9l-33.2,6l-11,2
		c-1.7,0.1-3.5,0.5-5.2,0.9c-0.1,0-0.2,0-0.2,0l1.2,0.4c-0.4-22.2-5-45.8-17.4-64.7c-0.7-1.1-1.5-2.2-2.4-3.3l-0.8,1.1l15.6-5.6
		l37.6-13.4l45.4-16.2l39.4-14c6.3-2.2,12.8-4.2,19-6.8l0.3-0.1c0.4-0.1,0.9-0.5,0.9-0.9c-0.2-7-0.5-14-0.7-21
		c-0.5-16.3-1.1-32.6-1.5-48.9c-0.5-18.4-1-36.8-1.4-55.2c-0.3-13.4-0.6-26.8-0.5-40.2c0.1-10.6,1.7-21.6,6.8-31
		c1.5-2.8,3.3-5.4,5.4-7.7c0.7-0.8,1.4-1.5,2.2-2.1c0.3-0.2,0.6-0.5,0.9-0.7l0.4-0.3c0.3-0.2,0,0,0.1-0.1c0.2-0.1,0.4-0.2,0.5-0.4
		c0.5-0.3,0.7-0.7,0.3-1S503.5,244.7,503,244.9L503,244.9z"/>
	<path class="st15" d="M490.3,454.2C490.5,454.2,490.2,454.2,490.3,454.2l0.6,0.1c0.7,0.1,1.4,0.2,2,0.3c2.2,0.4,4.5,0.8,6.7,1.4
		c5.9,1.5,11.9,3.8,16.7,7.6c2.8,2.1,5,5,6.3,8.3c0.2,0.6,3-0.2,2.8-0.8c-2.3-6.1-7.9-10.1-13.7-12.8c-5.1-2.3-10.5-3.9-16-4.8
		c-1.2-0.2-2.4-0.4-3.6-0.5c-0.7,0-1.4,0.1-2,0.5C489.7,453.9,489.7,454.1,490.3,454.2L490.3,454.2z"/>
	<path class="st3" d="M353.6,554.4l-23.5,2.3c0,0-18.6,12.7-31.5,18.7c-9.6,4-19.7,6.8-30.1,8.3l-28.9,14c0,0-8.2,12.4-12.9,10.2
		s-3-7.5-1.4-12.8s50.6-66.2,50.6-66.2c-8.8,1-14.3,0-22.8,2.3c-12.9,3.6-22.6,0.5-23.1-6.2c-0.3-4.7,15-8.7,27.2-8.9
		c7.9-0.1,19.9-9.8,33.5-11.8s30.1,7.1,30.1,7.1c5.5-0.2,19.6-1.6,19.6-1.6C341.3,510.7,353.6,554.4,353.6,554.4z"/>
	<path class="st6" d="M260.3,551.4c0.6-1.5,1.3-2.9,2.3-4.2c1.2-1.9,2.6-3.8,4-5.6c2.6-3.5,5.4-6.9,8.2-10.3l1.8-2.2
		c0.5-0.5-0.6-0.6-0.8-0.6c-5.8,0.6-11.8,0.3-17.6,1.2c-3.1,0.5-6.1,1.5-9.2,2c-2.7,0.5-5.5,0.7-8.2,0.5c-3.6-0.3-8-1.7-9.5-5.3
		c-0.6-1.1-0.5-2.6,0.3-3.6c1.3-1.2,2.8-2.1,4.5-2.7c4.9-1.8,10.1-3,15.4-3.4c2.4-0.2,5-0.1,7.4-0.5c2-0.4,3.9-1,5.8-1.8
		c10.1-4.1,19.8-10.5,31.1-10.1c5.7,0.4,11.4,1.7,16.7,3.9c2.5,1,5,2.1,7.4,3.4c0.6,0.3,2.5-0.5,1.7-1c-6.9-3.8-14.4-6.2-22.1-7.2
		c-5.8-0.6-11.7,0.2-17.1,2.2c-5.4,1.9-10.5,4.5-15.7,6.8c-2.1,1-4.3,1.9-6.6,2.5c-2.4,0.6-4.9,0.4-7.3,0.6
		c-5.6,0.4-11.2,1.6-16.6,3.5c-2.4,0.9-7.2,2.7-7.2,5.9c0,3.7,3.5,6.2,6.7,7.2c6.1,1.9,12.5,0.6,18.5-0.9c7.1-1.8,14.4-1.2,21.6-2
		l-0.8-0.6c-5,5.6-9.6,11.5-13.8,17.7c-1.1,1.5-2,3.2-2.7,4.9C258,552.4,260.1,552.1,260.3,551.4L260.3,551.4z"/>
	<path class="st6" d="M61,494.7c3.4,10.3,7.3,20.4,11.7,30.3c1.3,3.1,2.9,6,4.6,8.8c0.5,0.8,2.5,0,1.9-0.9
		c-3.5-5.4-5.9-11.5-8.3-17.5s-4.5-11.7-6.6-17.6c-0.4-1.2-0.9-2.5-1.3-3.7C62.8,493.1,60.7,493.7,61,494.7L61,494.7z"/>
	<path class="st6" d="M160.3,533.1c3.7-11.6,6.1-23.5,7.4-35.6c0.1-0.6-2-0.2-2.1,0.3c-1.3,12.1-3.7,24-7.4,35.6
		C158.1,534,160.1,533.7,160.3,533.1L160.3,533.1z"/>
	<path class="st23" d="M84.7,361.5c6.2,1.1,11.1,6.8,14.2,12c3.1,5.4,5.5,11.1,7.2,17.1c3.6,12.1,6.4,24.3,8.5,36.7
		c1.3,7.5,2.3,15.1,3.4,22.6c0.2,1.2,3,0.5,2.8-0.8c-1.8-13-3.7-26-6.6-38.9c-1.5-6.8-3.2-13.5-5.2-20.2c-1.7-6.2-4.2-12.1-7.3-17.6
		c-3.5-5.9-8.9-11.8-15.9-13C84.3,359.3,82.8,361.2,84.7,361.5L84.7,361.5z"/>
	<path class="st23" d="M266.6,476.7c2.8-10.2,0.3-20.9-2.3-30.9c-2.8-10.8-5.5-21.5-6.5-32.7c-0.6-6.6-0.4-13.2,0.6-19.7
		c0.1-0.9-2.7-0.4-2.8,0.4c-1.9,11.3-0.8,22.6,1.4,33.8c1,5.4,2.3,10.7,3.7,16c1.5,5.2,2.7,10.5,3.6,15.8c0.9,5.9,1.1,11.9-0.5,17.7
		C263.6,477.9,266.4,477.5,266.6,476.7L266.6,476.7z"/>
	<path class="st21" d="M198.6,275c-8,2.8-21.2,6.4-21.2,6.4s8.4,19.4,26.9,12.9s11.3-26.5,11.3-26.5S206.6,272.2,198.6,275z"/>
	<path class="st1" d="M198.7,275c-3.8,1.3-19.3,6.1-19.3,6.1s8.3,10.8,22,6c14.9-5.2,13.2-17.7,13.2-17.7L198.7,275z"/>
	<path class="st22" d="M199,275.5c-3.8,1.3-15.6,4.8-15.6,4.8s5.7,2.9,17-1.2s13.6-9.5,13.6-9.5L199,275.5z"/>
	<path class="st21" d="M215.6,267.8c-1.2,0.2-2.4,0.2-3.6,0.2c-3.3,0-2.3-0.2-4.6,0.5c-4,1.1-5.9,3.5-7.6,4.1s-4.7-0.1-8.5,1.6
		c-2.2,1-7.5,3.8-10.6,5.2c-1.8,0.8-4.3,0.9-4.7,1.1s2.1,4.2,23.3-3.3S216.2,267.8,215.6,267.8z"/>
</g>
</svg>
