<svg xmlns="http://www.w3.org/2000/svg" xmlns:xlink="http://www.w3.org/1999/xlink" viewBox="0 0 637.33 635.77"><defs><style>.cls-1,.cls-14{fill:none;}.cls-2{clip-path:url(#clip-path);}.cls-3{fill:#c3e6f7;}.cls-4{fill:#a66e53;}.cls-5{fill:#6a2811;}.cls-6{fill:#dc9b34;}.cls-7{fill:#ccb631;}.cls-8{fill:#343535;}.cls-9{fill:#5e5f5f;}.cls-10{fill:#4f2e25;}.cls-11{fill:#010101;}.cls-12{fill:#13110f;}.cls-13{fill:#ababab;}.cls-14{stroke:#010101;stroke-width:1.23px;}.cls-14,.cls-24{stroke-miterlimit:10;}.cls-15{fill:#b25226;}.cls-16{fill:#323e1a;}.cls-17{fill:#653c29;}.cls-18{fill:#31160e;}.cls-19{fill:#f1eef7;}.cls-20{fill:#0b0d0e;}.cls-21{fill:#513835;}.cls-22{fill:#745245;}.cls-23{fill:#794d1f;}.cls-24,.cls-25{fill:#151210;}.cls-24{stroke:#161311;stroke-width:0.47px;}.cls-26{fill:#161311;}.cls-27{fill:#231f20;}</style><clipPath id="clip-path"><path class="cls-1" d="M631.4,215.63a108,108,0,0,0-108-108c-1.63,0-3.26,0-4.87.11A289.25,289.25,0,0,0,242,38.17a108,108,0,1,0-171.33,131A287.43,287.43,0,0,0,30.16,316.61c0,159.53,129.32,288.85,288.85,288.85S607.86,476.14,607.86,316.61A291.53,291.53,0,0,0,606.13,285,107.5,107.5,0,0,0,631.4,215.63Z"/></clipPath></defs><g id="Layer_13" data-name="Layer 13"><g class="cls-2"><circle class="cls-3" cx="318.06" cy="317.88" r="288.85"/><path class="cls-4" d="M203.51,99.2l.32.26a3.14,3.14,0,0,1-.29-.54Zm12.61,3.62c.17.19.37.38.57.57l0-.24S216.14,102.54,216.12,102.82ZM124.81,224.6c11,13.21,34,27.65,53,28.38,6.81.26,13.32,0,18.75-8s10.3-11.16,16.18-18.6c5.64-7.14,8.23-11.65,11.15-20.24,3-8.89,3.18-11.28,2.9-20.41a89.83,89.83,0,0,1,.64-14.09c.69-4.46,4.08-22,5.27-32.32s-5.49-30.58-5.49-30.58c-.38-2.85-4.36-1.68-5.69-4.06l-1.22-.1a1.21,1.21,0,0,1,.51,1.17,9.65,9.65,0,0,1-4.1-2.37v0c-1.91.69-3.67-.31-5.08-1.84,0,.28.23.87.54.89a6.12,6.12,0,0,1-4.74-2.1c0,.28.23.87.21,1.15a11.22,11.22,0,0,1-3.79-2.07c.25.39,7.24-.09,7.22.1-1.85.13.19.92-1.22-.61l-1.42-1.18c-1.56.16-1.58,1.08-2.7-.15.28.31-.58-3.15-.6-2.87-1.84-.16-1.33-.24-2.78-1.21,0,.28-5.15,1.39-5.18,1.67-1.52-.13-1.24,1.31-2.36.08.28.31,1.2-1.08,1.48-.77-1.86.12-2.65,1.24-4.05-.29.28.31-5.78-3.59-5.78-3.59-1.86.12-1.59.72-3-.53.57.62-8.41-1.24-8.15-.65-1.52-.13,2.44,5.84,1.29,4.9,0,.28-3.44-1.15-3.44-1.15-1.55.16.62,1.75-.51.53,0,.28.21,1.14.52,1.17-1.91.68-4-.06-5.73-1.34.56.62.82,1.2,1.1,1.51-1.53-.13-2.77,0-4.2-1.21,0,.28.51,1.18.82,1.2a6.07,6.07,0,0,1-4.84-1c0,.27.54.89.82,1.19a4.3,4.3,0,0,1-3.61-.87l.81,1.2c-1.22-.1-2.18.38-4-.34,0,.28.57.61.54.89a11,11,0,0,1-3-.54c0,.28.85.92.54.89-1.22-.1-2.18.38-3.66-.31.28.31.54.89.82,1.2-1.22-.1-2.47.07-3.64-.59A2,2,0,0,0,146.4,98c-1.22-.1-2.18.38-3.66-.31,0,.28.54.89.82,1.2a16.17,16.17,0,0,1-3.67-.32c0,.28.57.62.85.92a9.88,9.88,0,0,1-4-.62c0,.56.24.87.21,1.15-.91-.08-1.5-.41-2.42-.49L133,100c-4.76,5.24-20.41-.65-20.41-.65-10.11,6.75-.74,46.56-.89,51.91s-3.3,6.57-3.3,6.57c-1.36-2.09-3.72,3.56-4.44,1.24-.75-2,.08-4.51-.67-6.55-2.37-4.72-8.6-3.85-12.19-1.33l-.64.87c-5.22,5.94-1.78,26.07,1.19,32.21,0,12,10,19.13,16.59,11l1.27,4.78"/><path class="cls-5" d="M71.78,100s34.09-17.35,78.35-12.92,66.11,31.29,74,50.63-.09,39.85-.09,39.85,11.08,2.88,18-37c10.1-58.09-49.52-92.43-63.82-92.09S90.74,34.87,71.78,100Z"/><path class="cls-6" d="M494.71,336.5c-5.12.59-21.6,10.5-23.07,11.69-24.51,19.8-22.95,24-26.67,40.35-9.68,42.5-7.6,84.56-12.83,112.47-.26,15.77-.21,31.54.81,47.31A295.88,295.88,0,0,0,441,600.5c1.24,5,2.68,10,4.19,14.88,2.12-19.14,3.1-46.81,9.22-43.8C482.18,568,493.91,448,518.28,408.39,518.28,408.39,506.14,335.17,494.71,336.5Z"/><path class="cls-7" d="M183.08,369C218.2,405.46,246,499.47,311.64,498.11c38.07-4.54,4.8-55.45,12.73-64.1,2.48-2.7-8.57-1.8-8.78-5.46-.09-1.65,14.16,9,13.31,7.54-15.94-26.4-34.58-68.91-59-114.13-8.66-16.07-9.71-30.16-40.38-45.53-1.84-.92-52.83-13.83-58.4-13.27C158.69,264.4,183.08,369,183.08,369Z"/><path class="cls-7" d="M356.22,449.75q9-22.87,16.09-46.46c1.35-4.49,16.84-58.61,16.57-58.75-11.34-5.69-26.2-11.2-37.27-17-20.14,35.9-42,62.4-66,96.08-3.52,4.94-11.41,11.74-8.22,18.68S289.56,455.2,294,462.07l26.33,32.57c2.37,2.93,15.32-7.89,17.27-9.78,6.27-6.07,10-14.36,13.37-22.28Q353.67,456.21,356.22,449.75Z"/><path class="cls-8" d="M176.93,617.62l1,6.62c.21,1.43,1.19,2.48,2.19,2.33s1.59-1.45,1.37-2.87l-1-6.62a6.4,6.4,0,0,0,1.5-5.66c-.53-3.16-2.72-5.39-4.89-5s-3.52,3.27-3,6.43A6.57,6.57,0,0,0,176.93,617.62Z"/><path class="cls-9" d="M81.72,94.24c4.68-6.77,12-11.34,19.93-9.3-.51-15.34,14.26-24.55,29.61-25.15,7.88.05,16,3.52,23.43.84,4.63-1.67,8.1-5.35,12-8.43,16.48-12.49,42.72,1.53,57,16.53s10.94,31.94,3.94,51.39c-3.25,9-2.66,13.94-3.58,23.58-.87,9.09-6.18,26-6.19,35.05s14.19,18.31,5.09,19.12l-99.21-10.63c-14.7,3.06-24.15-1.29-31.82-14.19-5-8.77-3.37-9.19-4.13-19.23C86.49,140.69,73,131,73.68,117.77,73.83,109.5,77.44,101.33,81.72,94.24Z"/><path class="cls-5" d="M69.41,93.82S103.5,76.47,147.75,80.9s66.12,31.3,74,50.64-.09,39.85-.09,39.85,11.09,2.88,18-37c10.1-58.1-49.52-92.44-63.81-92.09S88.36,28.66,69.41,93.82Z"/><path class="cls-4" d="M108.5,191.86s-1.27,35-10.43,59.45c-1.27,3.41-22.84,19-22.84,19l32,8c18,4,63.93,21.2,81.2,14.84l9.31-22.32s-19.11-9.16-20-13.35,2.06-36,2.06-36"/><path class="cls-7" d="M52.84,684.66C97.49,698.72,146.19,697.71,192.5,696a585.43,585.43,0,0,0,86-9.37c2.13-36.17,4.37-91.54.46-120.67-6.12-45.56-7.52-46.19-7.52-46.19l-6.08-19.7-4.07-26.44c4-20.61,13.07-90.21,7.81-98.51L228.5,288l-47.69-27c1.49,2.64,16.4,17.58-.37,26.1a39.86,39.86,0,0,1-17.36,4.13l-1.35,0c-40.16-1.64-69.08-35.43-69.08-35.43L55.83,268,31,466.69s-33.83,85-35.39,123c-1,24,1,16,1.21,40.11C16.87,635.47,32.93,678.4,52.84,684.66Z"/><path class="cls-10" d="M177.66,251.61s-7.39-1.18-12.49-2.59-13.8-1.08-37.34-21.34c0,0,7,25,37,30.24,0,0,7.74,1.58,12.82.33Z"/><path class="cls-4" d="M203.38,99.43l.32.26a4.1,4.1,0,0,1-.3-.54Zm12.6,3.62q.27.28.57.57l0-.24S216,102.77,216,103.05Zm-91.3,121.78c11,13.21,34,27.65,53,28.38,6.81.26,13.31,0,18.75-8s10.29-11.16,16.17-18.6c5.65-7.14,8.24-11.65,11.16-20.24,3-8.89,3.18-11.28,2.89-20.41a89.82,89.82,0,0,1,.65-14.09c.68-4.46,4.07-22,5.27-32.32s-5.5-30.58-5.5-30.58c-.37-2.85-4.35-1.68-5.69-4.06l-1.22-.1a1.19,1.19,0,0,1,.51,1.17,9.71,9.71,0,0,1-4.1-2.37v0c-1.91.69-3.67-.31-5.07-1.84,0,.28.23.87.53.89a6.12,6.12,0,0,1-4.74-2.1c0,.28.24.87.21,1.15a11.17,11.17,0,0,1-3.78-2.07c.25.39,7.23-.09,7.21.11-1.85.12.19.91-1.21-.62L208.27,98c-1.55.15-1.57,1.07-2.7-.15.28.3-.58-3.16-.6-2.88-1.83-.16-1.32-.24-2.78-1.21,0,.28-5.15,1.39-5.17,1.67-1.53-.13-1.24,1.31-2.37.08.28.31,1.2-1.08,1.48-.77-1.85.12-2.64,1.24-4-.29.28.31-5.77-3.59-5.77-3.59-1.86.12-1.6.73-3-.53.56.62-8.41-1.24-8.16-.65-1.52-.13,2.44,5.84,1.29,4.9,0,.28-3.44-1.15-3.44-1.15-1.55.16.62,1.75-.5.53,0,.28.21,1.14.51,1.17-1.9.69-4-.06-5.73-1.34.57.62.82,1.2,1.1,1.51-1.52-.13-2.77,0-4.2-1.21,0,.28.52,1.18.82,1.2a6.08,6.08,0,0,1-4.84-1c0,.28.54.89.82,1.19a4.31,4.31,0,0,1-3.61-.87l.82,1.2c-1.22-.1-2.19.38-4-.34,0,.28.56.61.54.89a10.91,10.91,0,0,1-3-.54c0,.28.84.92.54.9-1.23-.11-2.19.37-3.67-.32.28.31.54.89.82,1.2-1.22-.1-2.46.07-3.64-.59a2.12,2.12,0,0,0,.52,1.17c-1.22-.1-2.19.38-3.67-.31,0,.28.54.89.82,1.2a16,16,0,0,1-3.66-.32c0,.28.56.62.84.92a9.66,9.66,0,0,1-3.94-.62c0,.56.23.87.21,1.15-.92-.08-1.51-.41-2.42-.49l-1.58.43c-4.75,5.24-20.41-.65-20.41-.65-10.11,6.75-.73,46.56-.89,51.91s-3.3,6.57-3.3,6.57c-1.36-2.09-3.71,3.56-4.44,1.24-.75-2,.08-4.51-.67-6.55-2.36-4.72-8.59-3.85-12.19-1.33l-.64.87c-5.21,5.94-1.78,26.07,1.2,32.21,0,12,10,19.13,16.59,11l1.26,4.78"/><path class="cls-11" d="M188.89,199.87a8.74,8.74,0,0,1-7.9-1.17c-.48-.36-2.18-.2-1.52.29a12.36,12.36,0,0,0,10.79,1.43c.3-.12.27-.35-.08-.5a2,2,0,0,0-1.29,0"/><path class="cls-11" d="M178.55,198.27a14.31,14.31,0,0,0-4.8-1.64,1.11,1.11,0,0,0-.77.18c-.15.11-.2.28,0,.4a5.38,5.38,0,0,0,2.64.84,1,1,0,0,0,.86-.25c.17-.21-.1-.38-.32-.4a4.17,4.17,0,0,1-2.13-.69l-.79.58a12.38,12.38,0,0,1,4.28,1.48,1,1,0,0,0,.91,0c.19-.09.4-.32.14-.47"/><path class="cls-11" d="M171.81,197.9c-2-.21-4.23-1.27-5.08-2.84-1.28-2.36.4-5.79,3-7,.28-.13.16-.35-.11-.43a1.66,1.66,0,0,0-1.08.13,6.88,6.88,0,0,0-3.76,6c.14,2,1.91,3.53,4.24,4.3a11.21,11.21,0,0,0,2.17.49c.3,0,.84,0,1-.24s-.1-.35-.38-.38"/><path class="cls-11" d="M192.61,199.18a.26.26,0,0,1,.28-.35,2.33,2.33,0,0,0,1.58-.37l.47.69a7,7,0,0,0-3.2.83.55.55,0,0,1-.62-.15c-.12-.12-.24-.38,0-.49"/><path class="cls-11" d="M191.08,199.34a7.84,7.84,0,0,1,3.58-.92.65.65,0,0,1,.51.28.27.27,0,0,1,0,.4"/><path class="cls-11" d="M196.7,199.8a4.08,4.08,0,0,0,3.64-2.09,5.78,5.78,0,0,0-1-6.46.24.24,0,0,1,.13-.41.75.75,0,0,1,.67.28,6.49,6.49,0,0,1,1.64,5.55,4.59,4.59,0,0,1-3.31,3.65,4.77,4.77,0,0,1-1.45.18c-.2,0-.54-.13-.61-.37s.11-.34.29-.33"/><path class="cls-12" d="M213,162.63a4.23,4.23,0,0,1,5.83,3.38,4.42,4.42,0,0,1-1.39,3.93,4.1,4.1,0,0,1-4.78.42,4.56,4.56,0,0,1-1.78-5.46,4.08,4.08,0,0,1,2.12-2.27"/><path class="cls-12" d="M197.42,167s8.81-5.79,13.06-5.85c6.21-.09,13.5,4,15.42,7.21,0,0-9.6-6-14-5.77C207.75,162.76,197.42,167,197.42,167Z"/><path class="cls-12" d="M161.6,158.87c-1.61-1-4.36-1-5.56-.13a4.12,4.12,0,0,0-.76,6,4.11,4.11,0,0,0,4.64,1.23,4.54,4.54,0,0,0,2.68-5.08c-.06-.34.33-.95-1-1.78"/><path class="cls-12" d="M171.93,164.32s-8.82-6.72-13.39-7.25c-6.67-.77-15,2.47-17.43,5.48,0,0,11-4.87,15.71-4.2C161.3,159,171.93,164.32,171.93,164.32Z"/><path class="cls-13" d="M200.48,143.7l-.18,3.77-.12,2.86c3.24-.65,6-1,8.09-1.28,4.4-.52,6.65-.76,9.17-.21a24.29,24.29,0,0,1,5.71,2.12,15.14,15.14,0,0,1,3,1.77c2.07,1.66,2.86,3.45,3.22,3.32s-.12-1.69-.17-1.85a14.53,14.53,0,0,0-4.26-6.58,17.24,17.24,0,0,0-5.76-3c-2.48-.76-9.4-1.57-18.68-.92"/><path class="cls-13" d="M176,142.16c-.26,1.23-.53,2.46-.79,3.69-.2.93-.41,1.87-.61,2.8-3.24-1.51-6.05-2.63-8.18-3.43-4.51-1.69-6.82-2.54-9.61-2.69a29.13,29.13,0,0,0-6.56.5,17.61,17.61,0,0,0-3.59.91c-2.61,1-3.91,2.56-4.25,2.33s.56-1.6.65-1.74a14.91,14.91,0,0,1,6.19-5.2A19.44,19.44,0,0,1,156,138c2.8-.06,10.3,1,19.91,4.17"/><path class="cls-14" d="M105,174.92c-6.42-16.12-11.23-16.34-11.23-16.34s-3.33,3.63-1.89,11.07"/><path class="cls-14" d="M102.48,176.31c-4.3-.53-1.17,7.62-2.41,9.49s-2.7-3.21-3.09-9.31c0,0,.18-8.22,4.29-9.62"/><path class="cls-10" d="M214,127.21s-13.19,1.45-23.89,1.51S169,123.28,169,123.28s16.8,4.19,21.22,4.32S214,127.21,214,127.21Z"/><path class="cls-13" d="M221.33,96.55c-.13-.19.06.08,0,0-2.63-3.76-4.29-7.76-7.08-11.39s-5.42-6.8-8.35-10.2c-.17-.2-3.67-.32-3.85-.52l-.18-.21-.28-.32-.66-.73c-16.56-7.35-36.6-8.51-54.73-3.07A66.58,66.58,0,0,0,101.54,153c.9,3-.92,6.65,2,8.36s3.29.88,6.1-1a22.13,22.13,0,0,0,6.31-7.86c7.73-14.47,9.73-37.58,6.39-53.65,1.93,3,15.48,0,18.48,2a25.79,25.79,0,0,0,35.76-7.15,39.37,39.37,0,0,0,4.06,5c13.63,14.37,31.48,21.41,46.51,11.42C227.72,109.74,223,98.94,221.33,96.55Z"/><path class="cls-15" d="M84.13,159.63s-33.37-24.2-20.65-50.18c2.44-5,2.71-3.35,2.85-7.67.76-22.6-7.15-17.22,26-43.65s38-26,88.52-22.21c26.06,1.94,40.33,12.84,47.45,29.35,3.2,7.43,5,16,5.69,25.38,0,0-53.26-15.19-85,1.91s-65,72.78-58.25,90.63C92.63,188.21,84.13,159.63,84.13,159.63Z"/><path class="cls-5" d="M63.56,134.9S108.76,69.05,169,67c0,0-74.42-8-107.35,45.2l-.49,6.24a34.21,34.21,0,0,0,1.08,11.57Z"/><path class="cls-7" d="M-26.17,484.61l60.58,3.12L51.82,377.55l8.7-110.88s-36.8,4.4-53.83,36.47S-24.24,425.91-25.7,445.23C-26.71,458.6-26.39,483.05-26.17,484.61Z"/><path class="cls-16" d="M254,326.27a46.5,46.5,0,0,0-2.23,5.66c-.71,2.18-1.63,4.89-1.29,7.22s1.61,4.59,2.51,6.68c4,9.28,8.24,18.45,12,27.82,4.57,11.26,8.83,22.81,11.24,34.74a60.49,60.49,0,0,1,1.43,15.23,64,64,0,0,1-4.58,20.61,127.94,127.94,0,0,1-7.42,14.16c-2.16,3.8-4.24,7.76-5,12.11a22.06,22.06,0,0,0-.3,3.25c0,.81,1.81.45,1.83-.2.09-4.47,1.67-8.57,3.73-12.47,2.36-4.46,5.09-8.7,7.28-13.24a61,61,0,0,0,5.67-35.24c-1.72-11.75-5.71-23.15-10-34.18-3.9-10.09-8.33-19.95-12.7-29.84-1.24-2.8-2.55-5.61-3.53-8.51a6.13,6.13,0,0,1-.34-3,33.19,33.19,0,0,1,2.6-9c.24-.57.48-1.15.75-1.71.4-.83-1.43-.67-1.71-.08Z"/><path class="cls-17" d="M182.14,211.11c-8.69-.65-22.69-2.83-22.69-2.83s-2.87,22,22,24.13c20.13,1.73,21.9-20.71,21.9-20.71S190.83,211.76,182.14,211.11Z"/><path class="cls-18" d="M182.22,211.12c-4.13-.31-20.73-2.33-20.73-2.33s5.88,15,20.83,16.14c16.2,1.22,18.9-12.89,18.9-12.89Z"/><path class="cls-19" d="M182.35,211.81c-4.13-.31-16.65-2-16.65-2s4.16,5.32,16.55,6.25,16.7-3.61,16.7-3.61Z"/><path class="cls-17" d="M204.34,210.37c-.43-.15-2.9.54-4.94.2-3.39-.58-3.78-1.73-6.25-2.13-4.2-.67-7,1-8.86.82s-4.39-2.17-8.65-2.13c-2.49,0-8.7.55-12.15.62-2.06,0-4.4-1-4.85-.94-.62.12.19,5.14,23.31,6.87S204.94,210.58,204.34,210.37Z"/><path class="cls-4" d="M159.73,483.88c.12,2.09-.16,14.68-.08,16.77.44,11.68.73,12.88.35,24.56l22.55-2.74L182,487.68Z"/><path class="cls-4" d="M173.53,523.12l23.87-2.4s12.42,4.48,22.49,2.88a79.45,79.45,0,0,0,20.8-7.21l23-3.22s10.61,4.25,12.18,1-2-5.86-5.43-8.41-60.44-20-60.44-20a108.91,108.91,0,0,1,16.86-7.58c9-3.07,9.78-9.25,6.83-13.52s-16.17,1.28-19.52,5.64-15.84,2.09-24.46,6.45-13.35,16.64-13.35,16.64C162.11,503.08,173.53,523.12,173.53,523.12Z"/><path class="cls-7" d="M-26.24,467c-.79,10.48-.86,21.18,2,31.3,3.59,12.8,4.6,17.9,15.71,25.2s32.38,11,45.56,9.19c1.39-.19-4.74,5.36-3.55,4.62,1.67-1,2.65-2.88,3.55-4.62l11.1-21.59c3.72-7.24,7.51-14.68,8.51-22.77a5.74,5.74,0,0,0-.3-3.34,6.22,6.22,0,0,0-3.15-2.43A150.5,150.5,0,0,0,9.25,470"/><path class="cls-16" d="M293.86,444.74c-2.38-5-2-10.92-1-16.18a57.35,57.35,0,0,1,2.12-8.07,19.52,19.52,0,0,1,1.17-2.88l8.9-16.44,3.11-5.73c.38-.71-1.43-.48-1.69,0L298.7,409.8l-4.09,7.56a37.47,37.47,0,0,0-3.22,9.75c-1.26,5.79-2,12.6.64,18.12.28.58,2.06,0,1.83-.49Z"/><path class="cls-20" d="M484.83,368.62c-8.1,8.5-16.09,13.81-15.84,14.16a21.49,21.49,0,0,0,5.38-3.33,80.9,80.9,0,0,0,11.45-9.95,84.63,84.63,0,0,0,9.38-11.88,23.72,23.72,0,0,0,3-5.53C497.83,351.87,492.93,360.12,484.83,368.62Z"/><path class="cls-4" d="M502.49,258.3s16.77,55.36,13.56,68.35c-.78,3.15-38.94,24.11-38.94,24.11l99.2,18.06,38.9-22.89s-35.54-18.28-37-21.82C568,299.81,585.64,272,585.64,272"/><path class="cls-6" d="M621.13,343.06c1,.47,15.66,7.57,16.56,8,5.65,2.94-15,150.29-15,150.29l20.55,56.16c9.39,62.29-14,80.81-39.1,101.16,0,0-111-55.63-124.85-57.39-16.05-2-14.13.06-17.27-7.58-1.14-2.77-22-53.62-8.85-81.6,9.57-20.3,5-30.74,5.92-54.74,1.69-42.64,4.62-80.3,4.62-80.3l1.59-18.49c8.28-2.05,14.6-13.89,23.58-19.12,2.54-1.47,13-6.4,15.73-7.5,2.52-1,4.85-2.52,7.44-3.36-.19.37,3.67-2.1,3.41-1.34-6.21,17.89,7,33.4,25.5,29.5,22.27-4.69,32.7-14.43,43.2-30,2.7,1,24,10.41,27.33,11.75Z"/><path class="cls-21" d="M527,439.77h-.15c0,.18-.15.35,0,.54Z"/><path class="cls-21" d="M512.4,478.75a.57.57,0,0,0,.13.08l.11-.35Z"/><path class="cls-22" d="M485.35,427.17h.19a1.09,1.09,0,0,0-.17-.13A.1.1,0,0,0,485.35,427.17Z"/><path class="cls-22" d="M512.08,435.25l-.16-.16-.07.09Z"/><path class="cls-22" d="M485.92,427.3l.26.07A.18.18,0,0,0,485.92,427.3Z"/><path class="cls-23" d="M454.3,394.61c-.24,11.6-.14,23.21,0,34.81.14,14.91.39,29.81.85,44.71.19,6.25.41,12.51.74,18.76.12,2.38.26,4.77.44,7.15a22.41,22.41,0,0,1,.16,3.06q-.76,14.64-1.06,29.3c-.31,14.4-.5,28.9.68,43.27.12,1.43.26,2.85.42,4.27,0,.27,1.68,0,1.64-.44-1.59-14-1.41-28.16-1.2-42.18q.26-16.61,1.09-33.2a72.61,72.61,0,0,0-.32-7.93c-.36-5.83-.59-11.66-.79-17.49-.51-14.77-.78-29.54-.95-44.31-.15-12.42-.26-24.86-.09-37.28,0-1,0-2,.05-2.94,0-.21-1.63,0-1.63.44Z"/><path class="cls-6" d="M671.4,537.59,579.91,501.7,596.53,412l38-62.53s21.38,8.41,25.76,37.78,13.69,117.37,14,133.21C674.56,533.64,672,536.44,671.4,537.59Z"/><path class="cls-6" d="M615.12,500.45l0-.46,57.59,30.54c4.43,40.53-130.48,59.14-130.48,59.14L525.69,546.2Z"/><path class="cls-23" d="M614.69,506.14q-1.1-8-2.13-15.9-2.35-18.12-4.48-36.25c-1.52-13.09-3-26.19-4-39.32-.42-5.19-.79-10.39-1-15.59s-.11-10.51,1.46-15.59c3.19-10.33,11.38-19.1,20.88-24.09l.55-.28c1-.48.11-1.44-.75-1a42.44,42.44,0,0,0-7.36,4.72A45.24,45.24,0,0,0,605.62,377a38.18,38.18,0,0,0-4.22,18.32c0,4.76.29,9.53.62,14.29.91,12.93,2.28,25.84,3.73,38.72,1.43,12.73,3,25.44,4.63,38.14q.87,6.66,1.75,13.32c.29,2.12.39,4.39.88,6.47a2.7,2.7,0,0,1,0,.28c.11.8,1.75.39,1.64-.43Z"/><path class="cls-23" d="M643.88,562.57c-7.69,3-15.39,5.92-23.13,8.76-2.09.76-4.18,1.53-6.3,2.21-1,.31-.75,1.22.24.9,9.07-2.92,17.95-6.54,26.84-10l3-1.17c1.06-.41.1-1-.67-.74Z"/><path class="cls-23" d="M627.9,513.21c.63,0,1.74-1,.63-1-.63,0-1.73,1-.63,1Z"/><path class="cls-23" d="M613.73,506.62c.63,0,1.74-.94.63-.94-.62,0-1.73.94-.63.94Z"/><path class="cls-10" d="M516.58,316.47s10.57,2.34,14.84,1.68,11.33.43,32.37-13.82c0,0-3.72,11.37-32.34,19.17,0,0-11.73,1.88-15.74.38Z"/><path class="cls-24" d="M488.8,203.69h0c-1.14-7.29-1.4-11.75,1-16.49,1.73-3.35,8.15-6.37,8.15-6.37s2.39-10.31,7-8.38c0,0,6.05-13.46,19.47-8.47,0,0,4.3-.63,6.38,2.21,0,0,7.71-11.33,18.72-1.8,0,0,4.88-2.46,6.05,1.31,0,0,8.73-6.71,15.95.18,0,0,20.38-1.89,24,11.12,0,0,10.19-3.91,14.25,5.79,0,0,5,.92,4.28,7.87,0,0,7.26,3,7.49,7.6,0,0,4,3.86,2.92,11.1-.3,2.07-.94,1.44-1.9,4.19,3.27,8.72-3.13,9.07-3.13,9.07,5.63,8.36-3.44,17.11-3.44,17.11s2.58,6.3.43,9.94c-2.92,5-13.57,9.67-13.57,9.67s-1-14.29.51-23.14-4.21-25.12-6.27-28.72-20,.68-46.39-2-31.28-7.91-34.52-7.38c-6.72,1.09-14.56,23.7-15.09,30.72s-4,20-4,20-13.44-7.41-8.48-18.79c0,0-3.76-8.94-1.44-13.87a5.26,5.26,0,0,1,1.88-3S484.79,207.46,488.8,203.69Z"/><path class="cls-4" d="M568.06,301.42c-11.66,11.13-28.3,17.89-43.5,19.74-14.91,1.82-19.46-3.45-21.33-5.78-10.25-12.79-16.58-25.45-19.67-39.72a34.48,34.48,0,0,1,0-12.12c.89-6.24,3-18.16,3.42-24.16,1-15.27,3.8-29,13.23-41.11,19.64-25.3,61.3-21.41,76.19-12.81,17.39,10,24.15,28.19,23.77,46.86A50.55,50.55,0,0,1,597,249.15a53.94,53.94,0,0,0-7.42,8.66"/><path class="cls-25" d="M500,200.84s-1.3,1-10.72,18.94c2.41-5.76,4.17-14.55,9.84-22.39,19.79-27.4,74.39-19.07,89.23-9.88,17.35,10.74,22.55,29.89,22.07,50-.2,8.18-.28,13.4-3.24,20-.12.08-1.67,1.46-1.67,1.46s-16.63,1.83-22.84,11.33l.47-8.67s-3.21-11.15-4.93-30.06c0,0,.78-10.23,1.17-13.29,1.2-9.43-7.45-8.14-13.45-7.11a78.28,78.28,0,0,1-15.46.19c-9.61-1-21.68-3.41-26.2-3.74C517.88,207.15,500,200.84,500,200.84Z"/><path class="cls-26" d="M499.36,200.9a10.22,10.22,0,0,0-1.85,2.75c-3.2,5.29-6.06,10.79-8.93,16.25l1.32-.25c1.41-3.4,2.41-7,3.7-10.41a49.88,49.88,0,0,1,6.14-12,38.34,38.34,0,0,1,13.1-11.2c10.88-5.82,23.75-7.34,35.93-7.06,10.79.25,21.91,1.83,32.08,5.55,11.78,4.31,20.55,13.93,24.89,25.61a69.7,69.7,0,0,1,4,22.3c.11,4.11,0,8.26-.25,12.36A36.36,36.36,0,0,1,607,256.34a3.94,3.94,0,0,1-1.09,1.74l-1.07.95.9-.31A47.84,47.84,0,0,0,596,261c-5.36,1.81-10.84,4.61-14.06,9.44l1.33-.31.23-4.34a28.58,28.58,0,0,0,.24-4.33,14.85,14.85,0,0,0-.47-1.77q-.62-2.51-1.12-5c-1.27-6.2-2.2-12.48-2.89-18.78a33.13,33.13,0,0,1-.29-6.44c.18-2.38.38-4.77.59-7.15.34-3.84,1.84-9.5-2.71-11.4-4-1.65-8.52-.1-12.57.27-12.92,1.2-25.43-2.18-38.16-3.65-8.55-1-16.8-3.85-24.9-6.65l-.66-.23c-.36-.13-1.32.42-1.26.44,2.86,1,5.75,2,8.65,2.87a101.16,101.16,0,0,0,14,3.71c2,.33,4,.45,6,.75,3.21.48,6.41,1,9.62,1.53a124.69,124.69,0,0,0,19.36,2,55.14,55.14,0,0,0,8.43-.46,38.63,38.63,0,0,1,6.77-.73c2,.05,4.31.52,5.57,2.29s1,4.35.77,6.53c-.25,2.38-.44,4.76-.64,7.15-.13,1.65-.38,3.34-.39,5a40.29,40.29,0,0,0,.47,4.78q.32,2.91.71,5.8c.43,3.12.92,6.24,1.49,9.34.6,3.29,1.35,6.54,2.13,9.79a6.15,6.15,0,0,1,0,1.82l-.32,6-.07,1.31c0,.24,1.22-.14,1.33-.31,4.1-6.14,11.82-9,18.77-10.43,1.16-.24,3-.19,4-.86a9.27,9.27,0,0,0,1.37-1.21,6.6,6.6,0,0,0,1.23-2.47,32.48,32.48,0,0,0,1.64-6.36,92.21,92.21,0,0,0,.74-14.86,83.23,83.23,0,0,0-1.27-14.09c-1.61-8.78-5-17.3-10.89-24.11a40.07,40.07,0,0,0-16-11.34A87.72,87.72,0,0,0,565.63,180c-14.2-2.3-29.35-2.34-43.22,1.81a49.5,49.5,0,0,0-18.22,9.48c-7,6-10.6,14.18-13.48,22.72-.67,2-1.33,4-2.13,5.92-.07.18,1.16,0,1.32-.25,2.85-5.42,5.69-10.88,8.85-16.13a13.94,13.94,0,0,1,1.81-2.75C500.81,200.58,499.6,200.71,499.36,200.9Z"/><path class="cls-4" d="M578.52,287.87c7.08,8.55,16.39-3.35,16.39-3.35,8.18-8.4,8.92-18,9.15-24.53s-7-7-7-7c-6.16.19-5.35,1-15,17.73"/><path class="cls-27" d="M588.68,271.16a44.48,44.48,0,0,1,6-9.86,9.7,9.7,0,0,1,3.36-2.76c-.13,0,.42-.14.2-.06.1,0,.19,0,0,0l-.27-.1a6.66,6.66,0,0,1,1,2.3,13.23,13.23,0,0,1-.12,6.87c-.1.39.93.24,1-.12a12.85,12.85,0,0,0-.27-8.13c-.24-.58-.51-1.49-1.26-1.4a4.5,4.5,0,0,0-1.91.81,14.71,14.71,0,0,0-3.33,3.26,48.54,48.54,0,0,0-5.42,9.16c-.22.46.8.36.95,0Z"/><path class="cls-27" d="M587.65,274.7c3.6.51-2.39,8.44.56,8.59.76,0,1.33-.66,1.72-1.21a17.85,17.85,0,0,0,1.88-3.79A16.45,16.45,0,0,0,593.1,273c.11-2.17-.05-4.94-2-6.28-.32-.21-1.24.24-.8.53,1.68,1.13,1.88,3.56,1.83,5.4a13.11,13.11,0,0,1-.7,4.13,27.62,27.62,0,0,1-1.81,4.27,9,9,0,0,1-.74,1.18c-.05.07-.37.33-.39.42l0,0c-.1.06,0,.07.19,0,0,0-.1-.07-.1-.13a2.85,2.85,0,0,1-.11-.79,6.71,6.71,0,0,1,.26-1.18c.26-.9.59-1.77.85-2.66.46-1.65.63-3.55-1.48-3.85-.44-.06-1.06.55-.38.65Z"/><path class="cls-27" d="M542.48,249.52a4.63,4.63,0,0,1,4.86,1.5,4.53,4.53,0,0,1,1.09,2.25,4.62,4.62,0,0,1-1.6,4,4.29,4.29,0,0,1-5,.26,4.74,4.74,0,0,1-1.64-5.75,4.22,4.22,0,0,1,2.28-2.29"/><path class="cls-27" d="M532.24,255.86s7.28-8.37,13.83-7.57c9.23,1.13,10.75,6.76,12.41,9.8,0,0-5.18-7.29-12.34-8C539.65,249.48,532.24,255.86,532.24,255.86Z"/><path class="cls-27" d="M497.21,244a4.12,4.12,0,0,0-4.74.32,4.49,4.49,0,0,0-1.5,1.93,4.84,4.84,0,0,0,.51,4.29,3.79,3.79,0,0,0,4.45,1.42c2.13-.75,3.09-3.26,2.82-5.2a4.19,4.19,0,0,0-1.54-2.76"/><path class="cls-27" d="M507.9,252.91s-4.22-9.78-9.89-10.48c-8-1-10.5,4.14-12.57,6.72,0,0,6-5.91,12.11-5C503.13,245,507.9,252.91,507.9,252.91Z"/><path class="cls-11" d="M511.93,276.74A6.63,6.63,0,0,0,518,277c.41-.2,1.66.17,1.09.45a9.35,9.35,0,0,1-8.28-.53c-.21-.14-.15-.3.14-.36a1.42,1.42,0,0,1,1,.15"/><path class="cls-11" d="M519.9,277.07a10.54,10.54,0,0,1,3.83-.52.8.8,0,0,1,.55.24c.1.11.11.24,0,.31a4.14,4.14,0,0,1-2.1.24.78.78,0,0,1-.6-.31c-.1-.19.13-.28.3-.26a3.34,3.34,0,0,0,1.69-.2l.51.55a9.39,9.39,0,0,0-3.42.48.82.82,0,0,1-.68-.15c-.13-.1-.25-.31,0-.38"/><path class="cls-11" d="M525,277.79a5.19,5.19,0,0,0,4.22-1.39c1.3-1.59.56-4.59-1.2-5.89-.19-.15-.06-.29.15-.31a1.19,1.19,0,0,1,.78.26,5.56,5.56,0,0,1,1.93,5.23c-.4,1.48-2,2.37-3.8,2.61a8,8,0,0,1-1.7.05c-.22,0-.63-.14-.72-.33s.12-.25.34-.23"/><path class="cls-11" d="M509.26,275.67a.2.2,0,0,0-.16-.31,1.76,1.76,0,0,1-1.13-.51l-.45.44a5.35,5.35,0,0,1,2.27,1.11.44.44,0,0,0,.49,0c.1-.07.23-.25.09-.37"/><path class="cls-11" d="M510.37,276a5.93,5.93,0,0,0-2.54-1.22.49.49,0,0,0-.42.13.21.21,0,0,0,0,.31"/><path class="cls-11" d="M506.1,275.53a3.13,3.13,0,0,1-2.41-2.12,4.48,4.48,0,0,1,1.7-4.73.18.18,0,0,0,0-.32.57.57,0,0,0-.54.11,5,5,0,0,0-2,3.94,3.56,3.56,0,0,0,3,3.59c.15,0,.43,0,.52-.19s0-.26-.18-.28"/><path class="cls-25" d="M536.4,233.23c-.14,1.46-.27,2.94-.41,4.42l-.3,3.37c3.39-.64,6.28-1,8.46-1.19a37.31,37.31,0,0,1,13,.63,14,14,0,0,1,5.37,2.57c.5.41,1.81,2.1,2.66,1.78.35-.13,0-2-.06-2.19-.77-3.75-3.51-5.54-7-6.75-7-2.45-14.31-3-21.74-2.64"/><path class="cls-25" d="M487.13,232.24a11.51,11.51,0,0,0,1-2.67,16.43,16.43,0,0,1,2.28-.47c7.28-1,14.39-.08,21.49,1.67-.15,1.47-.31,2.94-.47,4.42-.12,1.12-.24,2.24-.37,3.36-3.15-1.29-5.87-2.2-7.92-2.82a36.16,36.16,0,0,0-12.66-1.94,15.42,15.42,0,0,0-3.52.6Z"/><path class="cls-17" d="M516.48,288c7.32.58,21.42.9,21.42.9s-6,18.41-23,17.06-16.46-20.23-16.46-20.23S509.16,287.39,516.48,288Z"/><path class="cls-18" d="M516.41,288c3.48.28,18.63.92,18.63.92s-6.81,11.55-19.38,10.55c-13.64-1.08-15.49-13.21-15.49-13.21Z"/><path class="cls-19" d="M516.22,288.47c3.47.27,14.1.53,14.1.53s-4.11,3.5-14.54,2.67-13.45-4.78-13.45-4.78Z"/><path class="cls-17" d="M497.78,284.57c.38-.06,2.35.77,4.09.76,2.9,0,3.67-.75,5.77-.74,3.58,0,5.73,1.59,7.28,1.71s3.92-1.1,7.46-.54c2.07.32,9.36,1.73,12.22,2.2,1.71.29,3.79-.22,4.15-.1s-3,3.62-22.43,2.07S497.26,284.66,497.78,284.57Z"/><path class="cls-4" d="M353.15,328.71l6.24-11.91s1.89-13.33,3.91-17.47,14.17-17.84,14.95-18.27,6.6-22.61,10.91-22.64,7.68,2.46,7.43,8.26-7.73,18.52-4.86,19.94a19.32,19.32,0,0,0,7.19,1.43s.1-6.63,3.29-9.29,7.79.13,7.79.13l.55,2.77,3-3.77s1.55-13.54,7.12-14.39a22.88,22.88,0,0,1,4.28-8.28,4.86,4.86,0,0,1,6.87-.16,5.2,5.2,0,0,1,.87,1.11h0l-5.17,31L405,321.89S389.68,330,386.65,332l-4.59,9.33Z"/><path class="cls-10" d="M392.23,287.3c.17-.33-1.55-1.44-4-1.76s-4.4.31-4.32.7,1.92.43,4.15.73S392.09,287.68,392.23,287.3Z"/><path class="cls-10" d="M424.27,287.66a29.87,29.87,0,0,1-.4-6.47c-.07-4.05-.09-9.72,0-16.25l.54.76a31.91,31.91,0,0,0-3.24-.92,3.8,3.8,0,0,0-2.86.85,8.55,8.55,0,0,0-2.72,4.66,30.65,30.65,0,0,0-1,5.36c-.23,3.53-.24,6.81-.29,9.46a57.12,57.12,0,0,1-.4,8.77c-.21,0-.54-3.3-.76-8.77-.08-2.71-.19-5.92,0-9.56a30.32,30.32,0,0,1,.93-5.68,10,10,0,0,1,3.28-5.53,5.44,5.44,0,0,1,4-1.15,28.78,28.78,0,0,1,3.55,1l.57.16,0,.59c-.15,6.54-.34,12.21-.54,16.26A30.41,30.41,0,0,1,424.27,287.66Z"/><path class="cls-10" d="M392.28,318.61a9.26,9.26,0,0,1-.07-1.28,17.28,17.28,0,0,1,.63-3.49,43.78,43.78,0,0,1,5.5-11.7l-.12.29c1-5.93-2.08-13.79,1.83-21.89a6.67,6.67,0,0,1,4.9-3.23,9.77,9.77,0,0,1,5.42,1l.41.19.07.44c.33,8.41.55,15.67.63,20.84a13.17,13.17,0,0,1-.9,6.05c-.51,1.34-.93,2-1,1.86a10.82,10.82,0,0,1,.51-2.11,14.48,14.48,0,0,0,.43-5.89c-.37-5.14-.79-12.38-1.22-20.74l.43.65a8.59,8.59,0,0,0-4.5-.75,5.14,5.14,0,0,0-3.76,2.5,12.19,12.19,0,0,0-1.56,5.33,49.3,49.3,0,0,0-.28,5.56c0,1.85.19,3.51.27,5.33a30.19,30.19,0,0,1-.28,5l0,.15-.08.13a49.81,49.81,0,0,0-5.86,11.11C392.52,316.86,392.47,318.63,392.28,318.61Z"/><path class="cls-10" d="M359.39,316.8s4,6.23,14,6.77C373.43,323.57,360.92,326.49,359.39,316.8Z"/><path class="cls-13" d="M223.71,102.76c-.14-.19.06.09,0,0-2.63-3.75-4.29-7.75-7.09-11.39s-5.41-6.79-8.34-10.2c-.18-.2-3.68-.32-3.85-.52l-.19-.21c-.09-.1-.18-.21-.28-.31l-.66-.74c-16.55-7.35-36.6-8.5-54.73-3.07-35.22,10.56-59.25,44.54-48.7,79.76.91,3,3.13,9.78,6.07,11.5s3.29.87,6.1-1.05a22,22,0,0,0,6.3-7.86c7.74-14.47,9.74-37.58,6.39-53.64,1.93,3,15.49,0,18.49,2A25.78,25.78,0,0,0,179,99.86a40.25,40.25,0,0,0,4.06,5c13.63,14.36,31.49,21.4,46.52,11.41C230.1,116,225.35,105.15,223.71,102.76Z"/><path class="cls-15" d="M86.5,165.84s-33.37-24.2-20.65-50.18c2.45-5,2.72-3.35,2.86-7.66.75-22.61-7.16-17.22,26-43.66s38-26,88.51-22.21c26.07,1.95,40.33,12.84,47.45,29.36,3.21,7.42,5,16,5.7,25.37,0,0-53.26-15.19-85,1.91s-65,72.78-58.24,90.64C95,194.42,86.5,165.84,86.5,165.84Z"/><path class="cls-5" d="M65.94,141.11s45.19-65.84,105.44-67.85c0,0-74.42-8-107.36,45.19l-.48,6.25a33.88,33.88,0,0,0,1.08,11.56Z"/><path class="cls-7" d="M-26.32,484.94l60.58,3.12L51.68,377.88,60.38,267s-36.81,4.4-53.84,36.47S-24.39,426.24-25.85,445.56C-26.86,458.93-26.53,483.38-26.32,484.94Z"/><path class="cls-7" d="M-26.38,467.3c-.79,10.48-.87,21.18,2,31.29,3.59,12.81,4.61,17.91,15.72,25.21s32.37,11,45.55,9.19c1.39-.19-4.73,5.36-3.54,4.62,1.67-1,2.64-2.88,3.54-4.62L48,511.4c3.73-7.24,7.51-14.68,8.52-22.77a5.74,5.74,0,0,0-.31-3.34A6.17,6.17,0,0,0,53,482.86,150.35,150.35,0,0,0,9.11,470.33"/><path class="cls-24" d="M619.57,221.75s6.4-.35,3.12-9.07c1-2.75,1.6-2.12,1.9-4.19,1-7.25-2.92-11.1-2.92-11.1-.22-4.63-7.49-7.6-7.49-7.6.7-6.95-4.28-7.87-4.28-7.87-4.06-9.7-14.24-5.79-14.24-5.79-3.61-13-24-11.13-24-11.13-7.22-6.89-15.95-.17-15.95-.17-1.18-3.78-6.05-1.31-6.05-1.31-11-9.53-18.73,1.8-18.73,1.8-2.07-2.84-6.38-2.21-6.38-2.21-13.42-5-19.47,8.47-19.47,8.47-4.58-1.93-7,8.38-7,8.38s-6.42,3-8.14,6.36c-2.44,4.75-2.19,9.21-1.05,16.5h0a5.43,5.43,0,0,0-1.62,5.09,37.8,37.8,0,0,1,30.31-12.4,9,9,0,0,1,7.57,4.36c4.93,1.56,12.69,3.48,25.64,4.77,26.45,2.65,29.55,2.27,31.61,5.88s2.64,17.15,8.44,24c17.62,20.77,12.62,32.24,12.62,32.24s8.81-.83,13.06-18c1-4.1-.43-9.94-.43-9.94S625.19,230.1,619.57,221.75Z"/><path class="cls-16" d="M161.93,483.86V476a.18.18,0,0,0-.16-.1l-10.66-1.42-26-3.45L93.2,466.77l-28.79-3.83-16.47-2.19c-.24,0-.92,0-1.12-.14.15.11.26-.17.39-.49.22-.5.4-1,.58-1.53,1.2-3.48,2.07-7.09,2.93-10.66,2.82-11.63,5.2-23.36,7.65-35.07,2.77-13.23,5.5-26.48,8.5-39.66,1.24-5.47,2.53-10.93,4-16.36.65-2.43,1.41-4.83,2-7.26a46.48,46.48,0,0,0,1.51-12.37c-.15-11.62-4.73-23.21-11.88-32.32-.41-.52-.83-1.05-1.28-1.54-.3-.33-2,.33-1.73.61a41.64,41.64,0,0,1,4.4,6,57.72,57.72,0,0,1,6.94,15.67,47.17,47.17,0,0,1,.58,22.89c-1.14,5-2.73,9.83-3.94,14.78-2.95,12-5.49,24-8,36.1-2.6,12.36-5.13,24.74-7.84,37.08-1,4.8-2.13,9.6-3.34,14.37a76.51,76.51,0,0,1-2.64,9c-.16.42-.33.83-.52,1.23,0,.1.05.16.14.17l13,1.72,30.33,4L124,471.75l27.8,3.69,7.21,1a4,4,0,0,1,1.25.17c.11.07-.16-.2-.12,0a5.72,5.72,0,0,1,0,1.17v6.64c0,.25,1.82,0,1.82-.49Z"/><path class="cls-16" d="M46.75,461c-9.94-1.38-20.56,3.27-25.93,11.81-.11.18,1.51.12,1.79-.33A23.31,23.31,0,0,1,45.24,461.7a2.2,2.2,0,0,0,1.28-.24c.11-.06.65-.39.23-.45Z"/><path class="cls-16" d="M15.4,532.94c3.61.79,7.28,1.35,10.93,1.88,9.63,1.4,19.33,2.28,29,2.75a326.82,326.82,0,0,0,41.87-.6A288.19,288.19,0,0,0,139,530.63L159.25,526l.57-.13c1.15-.27.78-1.61-.36-1.35l-18.88,4.34A295.21,295.21,0,0,1,103,535a323.72,323.72,0,0,1-42.81,1.3c-10.27-.36-20.54-1.2-30.72-2.58-3.05-.41-6.1-.87-9.13-1.4-1.38-.24-2.76-.61-4.14-.79a.58.58,0,0,1-.18,0c-1-.2-1.82,1.15-.61,1.41Z"/></g><path class="cls-20" d="M138.26,154.94l1.48,5.82c.78,4.49,3.48,13.47,4.82,16,1.89,3.49,25.24,6.45,30,4.1s8.35-15.57,9.8-18.59l9.34,1.2c.54,4.08,2.55,17,4.21,18.86s12.43,2.31,13.65,2.37c1,0,2.42.07,4,.06,4.09,0,9.07-.33,10.7-1.73,2.41-2.07,5.5-10.41,8.2-18.32l.44-1.24c.1-.3.21-.5.22-.59h0l.49-1.43c-13-7.41-30.84-7.62-42.17-.49l.07.15-9.11-1.22c-9.83-7.61-27.42-12.63-40.56-8.6h0L103.69,155l-.37,3.5Zm60.88,26.14c-1-1.15-2.71-10.24-3.78-17.29,9.84-6,25.87-5.79,37.58.15l0,.18c-1.46,4.24-5.32,15.52-7.69,17.55-2.81,2.4-24.26,1.23-26.09-.55ZM147.41,176a121,121,0,0,1-6.28-20.75c11.74-4.35,31.33,0,41,7.21-2,5.49-4.78,15.14-8.22,16.82-5,2.43-25.28-1.07-26.46-3.28Z"/></g></svg>