<svg xmlns="http://www.w3.org/2000/svg" viewBox="0 0 1303.15 1057.31"><defs><style>.cls-1{fill:#f2ebd1;}.cls-2{fill:#bb997a;}.cls-3{fill:#28160e;}.cls-4{fill:#55463e;}.cls-5{fill:#dc9b34;}.cls-6{fill:#a66e53;}.cls-7{fill:#535454;}.cls-8{fill:#565353;}.cls-9{fill:#1b1b1b;}.cls-10{fill:#3a2e29;}.cls-11{fill:#0b0d0e;}.cls-12{fill:#ccb631;}.cls-13{fill:#343535;}.cls-14{fill:#5e5f5f;}.cls-15{fill:#6a2811;}.cls-16{fill:#4f2e25;}.cls-17{fill:#010101;}.cls-18{fill:#13110f;}.cls-19{fill:#ababab;}.cls-20{fill:none;stroke:#010101;stroke-width:1.19px;}.cls-20,.cls-30{stroke-miterlimit:10;}.cls-21{fill:#b25226;}.cls-22{fill:#323e1a;}.cls-23{fill:#653c29;}.cls-24{fill:#31160e;}.cls-25{fill:#f1eef7;}.cls-26{fill:#513835;}.cls-27{fill:#745245;}.cls-28{fill:#163f51;}.cls-29{fill:#794d1f;}.cls-30,.cls-31{fill:#151210;}.cls-30{stroke:#161311;stroke-width:0.48px;}.cls-32{fill:#161311;}.cls-33{fill:#231f20;}.cls-34{fill:#11243e;}</style></defs><g id="Layer_11" data-name="Layer 11"><polyline class="cls-1" points="-12.69 1081.98 -12.69 -12.53 1318.83 -12.53 1318.83 1081.98"/><polyline class="cls-2" points="-12.69 1075.98 1318.83 1075.98 1318.83 967.68 -12.69 967.68"/><polygon class="cls-3" points="1166.1 911.07 1224.97 911.07 1224.97 984.91 1190.55 984.91 1166.1 911.07"/><polygon class="cls-3" points="110.12 911.07 168.99 911.07 144.54 984.91 110.12 984.91 110.12 911.07"/><path class="cls-4" d="M155.38,519.84c-23.23,0-67.33.29-77.9,37.82V691.8c-13.07,11.34-20.82,23.34-20.83,42.61V813.2c0,15.77,10.72,28.54,23.94,28.54H77.51v94.44l771.36-2.45v-89c13.12-4.29,22.24-18.47,22.31-34.7V744.79c0-25-10.63-41.31-29.35-52.56l-1.11-.43-2.45-97.34c-2.91-59-7.3-83.07-41.25-86.39l-11.08.38c-23.11,0-51.17-1.07-59,4.91-2.16-102.51-72.47-184.28-158.48-184.3H451c-188.55,0-241.58,84.67-241.58,189.1h0v17.27c-5.92-11.23-15.2-15.57-49.45-15.59"/><path class="cls-4" d="M532.69,518.15c-23.23,0-59.56,10.12-59.56,37.82V690.11c-13.08,11.34-20.82,23.33-20.83,42.61v78.79c0,15.76,10.72,28.54,23.93,28.54h-3.08v94.44h767.7V843c13.12-4.29,22.24-18.48,22.31-34.7V743.1c0-25-10.63-41.31-29.35-52.57l-1.11-.42-2.45-97.34c-2.91-59-22-83.07-55.92-86.4l-11.08.39c-23.12,0-51.17-1.07-59,4.91-2.16-102.51-72.47-184.28-158.48-184.3H668.73c-188.55,0-82,84.66-82,189.1h0v17.27c-5.92-11.23-15.2-15.57-49.45-15.59"/><path class="cls-5" d="M940.65,424.3c-24.93,40.47-36.93,163.26-65.32,166.92-9.9-4.86-40.35,15.42-49.36,9.08-2.82-2,11.86-47,13.74-49.92,3.68-5.64,9.28-17.84,9.78-19.31,9.33-27.43,4.76-77,16.17-127.08,3.81-16.73,2.21-21,27.28-41.28,1.5-1.21,18.36-11.34,23.59-11.95C928.23,349.4,940.65,424.3,940.65,424.3Z"/><polygon class="cls-6" points="913.52 912.46 876.6 928.32 867.45 907.52 904.38 891.66 913.52 912.46"/><path d="M932.08,936.54s7.78,6.58,6.84,11S920,957.84,915.33,959.63s-64.69,25.68-70.83,27.44-39.76,8.82-46.45,2.63c0,0-11.33-10.43-1.36-17.68s18.64-7.88,27.62-16a114.34,114.34,0,0,0,25.06-33.57s7.66-11.92,12.86-11.79,13.18,8.28,17.72,9.53,24.1-.84,26.4-11.69,4.63-7.58,8.68-7.16,14.61,15.52,15.23,23.69S932.08,936.54,932.08,936.54Z"/><path class="cls-7" d="M932.08,936.54s-27.05,10.29-37.93,17.8-40.86,23-57.51,27.57-41.7,4-41.7,4-.84,3.07,7.62,5.68,31.79-.41,50.78-7.74,46.92-17.66,52.85-19.61,30.48-10.48,32.53-16.19C940.44,943.3,932.08,936.54,932.08,936.54Z"/><path class="cls-8" d="M895.31,954a47.54,47.54,0,0,1,1.17-16.68,26,26,0,0,1,5.95-11.64,39.76,39.76,0,0,1,7-5.36,83.36,83.36,0,0,1,7.46-4.4,55,55,0,0,1,5.52-2.52c.52-.2,1.05-.39,1.58-.57l.15-.05.16,0c.16,0,1.2-.33,1.08-.63s-1.07,0-1.25,0a42.33,42.33,0,0,0-6.66,2.64,82.4,82.4,0,0,0-15.16,9.36c-7,5.48-9.18,15.1-9.51,23.58a44.67,44.67,0,0,0,.16,6.94c0,.38,2.39-.06,2.33-.62Z"/><path class="cls-8" d="M880.88,921.33a45.15,45.15,0,0,1-12,8c-5.17,2.49-11.13,4.22-14.69,9a54.23,54.23,0,0,0-3.9,7,33.42,33.42,0,0,1-4.87,7,22.29,22.29,0,0,1-7.71,5.5c-3.69,1.54-7.58,1.68-11.51,1.92l-8.44.52c-1.15.07-1.93,1.39-.32,1.3l6.5-.41c3.93-.24,7.91-.26,11.72-1.34a25.15,25.15,0,0,0,8.79-4.47,29.07,29.07,0,0,0,6-6.68c1.64-2.45,2.81-5.14,4.24-7.71a16.27,16.27,0,0,1,4.4-5.38c2.59-1.93,5.68-3.11,8.62-4.39,5.33-2.33,10.86-5.4,15-9.52,1-.94-1.31-.93-1.86-.38Z"/><path class="cls-8" d="M799.13,969.94a4.3,4.3,0,0,0,2.53,2.78c3.15,1.38,6.67-.06,9.76-.87a58.52,58.52,0,0,1,11.65-2,20.08,20.08,0,0,1,5.36.34,12.3,12.3,0,0,1,5,2.58,45.08,45.08,0,0,1,7.26,6.82c.61.73,2.83-.14,2.14-1a43.73,43.73,0,0,0-5.44-5.36,23.68,23.68,0,0,0-5.1-3.69,15,15,0,0,0-4.57-1.16,38.25,38.25,0,0,0-11.33.85c-1.89.36-3.76.81-5.63,1.3a24.24,24.24,0,0,1-5.3,1.21c-1.6,0-3.58-.63-4-2.4-.21-1-2.54-.37-2.33.62Z"/><path class="cls-1" d="M859.84,924.22l0-.08c.33-.65-.27-1.54-1.32-2l-7.6-3.23c-1.06-.45-2.19-.29-2.51.36l0,.08c-.33.64.27,1.54,1.32,2l7.6,3.24C858.39,925,859.52,924.86,859.84,924.22Z"/><path class="cls-1" d="M853.62,929.92l.12-.23c.24-.46-.35-1.17-1.3-1.58l-5.65-2.43c-.95-.4-1.93-.37-2.16.09l-.13.24c-.23.45.35,1.16,1.3,1.57l5.66,2.43C852.41,930.42,853.38,930.38,853.62,929.92Z"/><path class="cls-1" d="M848.61,935.12l.21-.41c.21-.41-.32-1-1.17-1.41l-4-1.74c-.85-.37-1.73-.33-1.94.08l-.21.4c-.21.41.31,1.05,1.17,1.42l4,1.73C847.52,935.56,848.39,935.53,848.61,935.12Z"/><path class="cls-1" d="M844.83,940.23l.24-.48c.25-.48-.25-1.17-1.11-1.54l-4-1.73c-.86-.36-1.76-.27-2,.22l-.25.47c-.24.49.26,1.18,1.11,1.54l4.05,1.73C843.68,940.8,844.58,940.71,844.83,940.23Z"/><rect class="cls-6" x="842" y="908.78" width="46" height="27.67" transform="translate(-87.24 90.33) rotate(-5.69)"/><path d="M907.45,955.07s7.18,7.23,5.85,11.57-19.77,8.58-24.56,10-66.69,19.9-73,21.11-40.38,5.3-46.5-1.46c0,0-10.38-11.38.19-17.72S788.73,972.3,798.4,965a114.62,114.62,0,0,0,27.91-31.25s8.67-11.2,13.84-10.61,12.41,9.4,16.82,11.05,24.07,1.28,27.32-9.32,5.28-7.15,9.28-6.38,13.19,16.75,13.08,24.94S907.45,955.07,907.45,955.07Z"/><path class="cls-7" d="M907.45,955.07s-27.85,7.86-39.35,14.39-42.72,19.36-59.7,22.41-41.89.35-41.89.35-1.11,3,7.09,6.34,31.7,2.38,51.26-3.26,48.29-13.47,54.37-14.88,31.29-7.77,33.83-13.27C915.19,962.53,907.45,955.07,907.45,955.07Z"/><path class="cls-8" d="M869.27,969.15A47.61,47.61,0,0,1,871.78,953a26.49,26.49,0,0,1,6.7-11.08,36.76,36.76,0,0,1,7.47-4.84,81.7,81.7,0,0,1,7.84-3.76,51.74,51.74,0,0,1,5.79-2.06c.54-.16,1.09-.31,1.64-.44.1,0-.19,0,.15,0l.16,0c.24,0,1.35-.27,1.37-.6s-.71-.21-.92-.17a42.94,42.94,0,0,0-7.15,2.16,77.75,77.75,0,0,0-16.24,8.24c-7.25,5-10.14,14.15-11.21,22.47a45.65,45.65,0,0,0-.44,6.91c0,.32,2.34,0,2.33-.62Z"/><path class="cls-8" d="M858,935.23A45.39,45.39,0,0,1,845.61,942c-5.39,2.1-11.61,3.22-15.68,7.68a45.87,45.87,0,0,0-4.51,6.55,33.53,33.53,0,0,1-5.5,6.72,21.89,21.89,0,0,1-8.17,4.87c-3.82,1.23-7.69,1.06-11.65,1l-8.46-.23c-.5,0-1.29.15-1.52.69s.19.85.68.86l6.35.17c4,.1,8,.45,11.87-.26a25,25,0,0,0,9.39-3.76,29.45,29.45,0,0,0,6.72-6.32c1.78-2.26,3.17-4.76,4.77-7.14a16,16,0,0,1,4.85-4.93c2.76-1.69,6-2.59,9-3.62,5.46-1.85,11.19-4.39,15.68-8.09,1.22-1-.68-1.6-1.5-.92Z"/><path class="cls-8" d="M772.11,976.76a4.31,4.31,0,0,0,2.3,3c3,1.65,6.62.49,9.76,0a57.76,57.76,0,0,1,11.51-1c3.6.11,6.93.78,9.67,3.23a45.33,45.33,0,0,1,7.3,8c.6.87,2.81,0,2.13-1a45.15,45.15,0,0,0-5.43-6.29,20.5,20.5,0,0,0-4.63-3.83,15.44,15.44,0,0,0-4.6-1.46,40,40,0,0,0-11.35,0c-1.79.21-3.57.48-5.35.79a20.55,20.55,0,0,1-5.56.67c-1.51-.16-3.22-1-3.43-2.71-.13-1.07-2.46-.5-2.32.62Z"/><path class="cls-1" d="M836.58,936.45l0-.08c.38-.62-.14-1.56-1.15-2.1l-7.29-3.89c-1-.54-2.15-.47-2.53.14l0,.08c-.38.61.13,1.55,1.14,2.09l7.29,3.89C835.06,937.12,836.2,937.06,836.58,936.45Z"/><path class="cls-1" d="M829.88,941.58l.14-.22c.28-.44-.24-1.19-1.16-1.68l-5.41-2.92c-.91-.49-1.89-.54-2.16-.11l-.15.23c-.27.43.25,1.19,1.16,1.68l5.42,2.92C828.63,942,829.6,942,829.88,941.58Z"/><path class="cls-1" d="M824.43,946.31l.25-.38c.24-.39-.22-1.07-1-1.51l-3.87-2.09c-.82-.44-1.7-.48-1.94-.09l-.25.39c-.25.39.22,1.06,1,1.51l3.87,2.08C823.31,946.66,824.18,946.7,824.43,946.31Z"/><path class="cls-1" d="M820.22,951.07l.28-.45c.29-.46-.15-1.19-1-1.63l-3.87-2.08c-.82-.44-1.73-.42-2,0l-.28.45c-.29.46.15,1.2,1,1.63l3.88,2.08C819,951.55,819.93,951.53,820.22,951.07Z"/><path class="cls-9" d="M904.12,896.79q-2.79-20.4-4-41c-.1-1.66-3.15-1.26-3.07.19q1.22,20.87,4.05,41.6c.2,1.49,3.22.73,3-.81Z"/><path class="cls-10" d="M145.46,521.2c9.81-.38,18.68,4.93,25.27,11.83,7.71,8.07,12.46,18.29,15.21,29,3.1,12.12,3.84,24.7,4.1,37.16.28,13.31.28,26.63.4,39.94l.42,46.24c0,1,4.14.34,4.12-1.11-.25-27.65-.34-55.3-.76-82.95-.35-23.53-1.89-49.78-18.25-68.31-7.32-8.3-17.5-14.33-28.84-13.89-.85,0-2.22.29-2.74,1.08s.44,1,1.07,1Z"/><path class="cls-10" d="M205.39,534.15c6.81,6.18,10.36,15,13,23.61a252.08,252.08,0,0,1,7.08,30.59c3.66,21.12,5.18,42.56,5.94,64,.43,12.15.62,24.31.8,36.46,0,1.07,4.14.34,4.12-1.11-.32-21.67-.65-43.36-2.38-65-1.7-21.33-4.75-42.66-10.62-63.27-2.75-9.68-6.44-19.87-14.08-26.81-1-.89-4.8.67-3.85,1.54Z"/><path class="cls-10" d="M1173.64,508.52c-10.16-.35-20.78.49-30.42,3.92a33.22,33.22,0,0,0-12.41,7.26c-3.88,3.81-5.94,9.37-7.44,14.48-3.51,12.06-3.29,24.88-3.65,37.35l-1.07,37.14-1.25,43.54c-.24,8-.61,16-.7,24,0,.11,0,.23,0,.34-.06,2,3.88,1.45,3.93-.29l.56-19.46,1.21-41.8,1.13-39.23c.27-9.35.31-18.79,1.24-28.1a65.17,65.17,0,0,1,4.25-18.64,26.63,26.63,0,0,1,3.74-6.82,19.72,19.72,0,0,1,4.54-4,40.17,40.17,0,0,1,13.09-5.06,82.61,82.61,0,0,1,15.11-1.89c2.27-.08,4.54-.1,6.81,0a2.57,2.57,0,0,0,2.52-1.19,1.19,1.19,0,0,0-1.18-1.62Z"/><path class="cls-10" d="M1100.92,513c-7.73,10.27-15.65,20.79-19.92,33-4.18,12-4.45,25-4.91,37.59-.74,20.51-1.1,41-1.51,61.56-.22,10.59-.41,21.18-.65,31.76,0,.73,3.84.18,3.87-1,.45-20,.79-39.92,1.24-59.88.23-9.91.47-19.82.8-29.72.39-11.89.47-24,3.42-35.63,3.63-14.32,12.45-26.29,21.19-37.9.51-.68-.45-.77-1-.75a3.85,3.85,0,0,0-2.58,1Z"/><path class="cls-10" d="M109.33,694.61l22.11-.1,56.53-.2q38.53-.13,77.07-.22,41.41-.09,82.82-.12,37.32,0,74.64.09c17.47.06,34.95.11,52.43.39,11.73.19,22.47.76,34.38,1.08,25,.66,50.06,1.08,75.09,1.5q41.6.68,83.19,1.24,25,.33,50,.64l2.46,0c1.29,0,4.18-1.89,1.59-1.92l-35.76-.45Q646.43,696,607,695.44c-27-.42-54-.86-81-1.47-13.94-.31-27.87-.92-41.81-1.28-14.87-.39-29.75-.42-44.62-.49q-35.38-.18-70.76-.15-41.06,0-82.13.08-39.93.07-79.85.2-31.37.09-62.73.22l-31.75.13h-1.44c-1.28,0-4.17,1.94-1.58,1.93Z"/><path class="cls-10" d="M87.77,846.65l41.14-.1,105.15-.2q71.69-.14,143.37-.22,77-.09,154.05-.12,69.42,0,138.84.09c32.51.06,65,.11,97.54.4,21.32.18,42.63.77,63.95,1.07,46.56.66,93.13,1.08,139.69,1.5q77.37.69,154.74,1.24,46.53.33,93.06.64l4.59,0c1.75,0,5.69-2.59,2.16-2.62q-33.25-.21-66.51-.45-73.44-.52-146.87-1.13-75.3-.63-150.6-1.47c-25.93-.31-51.85-.92-77.78-1.28-27.66-.38-55.33-.41-83-.49q-65.82-.18-131.62-.15-76.39,0-152.79.08-74.26.07-148.53.2-58.35.09-116.69.22L92.6,844H89.93c-1.75,0-5.69,2.63-2.16,2.62Z"/><path class="cls-10" d="M1220.44,687.9l-5.77-.16-15.94-.44-23.76-.62-29.41-.74q-16.43-.41-32.86-.77-17.12-.39-34.23-.74-16.68-.33-33.37-.62-15-.24-30-.42c-8.19-.08-16.39-.15-24.58-.14-5.67,0-11.34,0-17,.21-.92,0-1.84.06-2.76.11s-2,.62-2.14,1.57,1,1.3,1.79,1.26c4.93-.25,9.86-.27,14.79-.3,7.64-.05,15.28,0,22.92.06q14.43.12,28.85.36,16.15.26,32.32.57,17,.33,34.07.71,16.62.38,33.22.77,15.23.36,30.44.75l25.3.66,18,.49,8.4.23h.37a2.58,2.58,0,0,0,2.53-1.19,1.2,1.2,0,0,0-1.19-1.62Z"/><path class="cls-11" d="M616.22,627.26c-.41,0-.71,0-.71-.19s.3-.2.71-.2.72,0,.72.2S616.61,627.26,616.22,627.26Z"/><path class="cls-12" d="M429,386.15C463.12,421.52,508.4,510,554,507.64c8.93-7.08,4.51-50,12.22-58.38,2.41-2.62-8.33-1.76-8.53-5.31-.08-1.6,20.89,1.17,20.06-.21-15.47-25.64-41.56-71.37-67-111.88-9.42-15-6.87-20.74-36.66-35.66-1.79-.9-51.32-13.44-56.73-12.9C405.32,284.51,429,386.15,429,386.15Z"/><path class="cls-12" d="M597,476.29q15-18.63,28.29-38.48c2.54-3.78,32.47-49.54,32.26-49.75-8.88-8.54-21.09-17.92-29.7-26.45-29,27.51-56.86,45.83-88.83,70.18-4.69,3.57-14,7.61-13,15s7.56,15.43,9.7,23.08l15.08,37.8c1.35,3.4,16.47-2.93,18.83-4.12,7.56-3.82,13.43-10.44,18.81-16.82Q592.79,481.54,597,476.29Z"/><path class="cls-13" d="M423,627.6l1,6.43c.21,1.39,1.16,2.41,2.13,2.26s1.55-1.4,1.34-2.78l-1-6.43a6.23,6.23,0,0,0,1.46-5.51c-.51-3.06-2.64-5.23-4.75-4.84s-3.42,3.18-2.91,6.24A6.35,6.35,0,0,0,423,627.6Z"/><path class="cls-14" d="M330.56,119.23c4.54-6.58,11.7-11,19.35-9-.49-14.9,13.86-23.85,28.76-24.42,7.66,0,15.56,3.41,22.76.8,4.5-1.62,7.87-5.19,11.69-8.18,16-12.13,41.49,1.49,55.34,16.06s10.63,31,3.83,49.91c-3.15,8.79-2.58,13.55-3.47,22.91-.85,8.83-6,25.28-6,34s13.78,17.78,4.94,18.57l-96.37-10.32c-14.28,3-23.46-1.26-30.91-13.79-4.86-8.51-3.28-8.92-4-18.67-1.27-12.76-14.34-22.22-13.71-35C322.89,134,326.4,126.11,330.56,119.23Z"/><path class="cls-15" d="M318.6,118.82s33.11-16.85,76.09-12.55,64.22,30.39,71.92,49.18-.08,38.71-.08,38.71S477.29,197,484,158.25c9.81-56.43-48.1-89.78-62-89.45S337,55.52,318.6,118.82Z"/><path class="cls-6" d="M356.57,214.05s-1.24,34-10.13,57.74c-1.24,3.32-22.19,18.44-22.19,18.44l31.07,7.8c17.45,3.87,62.1,20.59,78.87,14.41l9.05-21.68s-18.56-8.9-19.46-13,2-35,2-35"/><path class="cls-12" d="M302.5,692.72c43.37,13.66,90.67,12.67,135.66,11a568.32,568.32,0,0,0,83.54-9.1c2.07-35.13,4.25-88.91.45-117.21-5.94-44.26-7.31-44.86-7.31-44.86l-5.9-19.14L505,487.76c3.91-20,12.69-87.63,7.58-95.69l-39.45-84.61-46.31-26.23c1.44,2.56,15.93,17.07-.37,25.34a38.62,38.62,0,0,1-16.86,4l-1.3,0c-39-1.59-67.1-34.41-67.1-34.41L305.41,288,281.29,481s-32.86,82.53-34.37,119.47c-1,23.36,1,15.54,1.17,39C267.57,644.94,283.17,686.64,302.5,692.72Z"/><path class="cls-16" d="M423.74,272.09s-7.17-1.15-12.12-2.52-13.41-1.05-36.27-20.73c0,0,6.78,24.28,35.88,29.37,0,0,7.52,1.54,12.46.33Z"/><path class="cls-6" d="M448.72,124.27l.32.25a3.39,3.39,0,0,1-.29-.52ZM461,127.78c.17.19.36.37.55.55l0-.22S461,127.51,461,127.78ZM372.28,246.07c10.72,12.83,33,26.86,51.46,27.57,6.62.25,12.94,0,18.21-7.76s10-10.84,15.72-18.07c5.48-6.94,8-11.32,10.83-19.66,2.93-8.63,3.09-11,2.81-19.82a88.38,88.38,0,0,1,.63-13.69c.67-4.33,4-21.35,5.12-31.4s-5.34-29.69-5.34-29.69c-.36-2.78-4.23-1.64-5.53-4l-1.18-.1a1.17,1.17,0,0,1,.5,1.14,9.31,9.31,0,0,1-4-2.31v0c-1.85.66-3.56-.31-4.93-1.79,0,.27.23.84.52.86a6,6,0,0,1-4.6-2c0,.27.23.84.2,1.11a11,11,0,0,1-3.67-2c.24.38,7-.09,7,.1-1.81.12.18.89-1.19-.6l-1.38-1.14c-1.51.15-1.53,1.05-2.62-.14.27.29-.57-3.07-.59-2.8-1.78-.15-1.28-.23-2.7-1.17,0,.27-5,1.35-5,1.62-1.48-.12-1.21,1.27-2.3.08.27.3,1.17-1,1.44-.75-1.8.12-2.57,1.21-3.94-.28.28.3-5.61-3.49-5.61-3.49-1.8.12-1.55.71-2.94-.51.55.6-8.17-1.21-7.92-.64-1.48-.12,2.37,5.68,1.25,4.76,0,.27-3.34-1.11-3.34-1.11-1.51.15.6,1.7-.49.51,0,.27.2,1.11.5,1.14-1.85.66-3.88-.06-5.56-1.3.54.6.79,1.17,1.07,1.46-1.49-.12-2.7,0-4.09-1.17,0,.27.5,1.14.8,1.17a5.94,5.94,0,0,1-4.7-1c0,.27.53.87.8,1.16a4.21,4.21,0,0,1-3.51-.85l.79,1.17c-1.18-.1-2.12.37-3.85-.33,0,.27.54.59.52.87a11,11,0,0,1-2.94-.53c0,.27.82.89.52.87-1.19-.1-2.12.37-3.56-.31.27.3.52.87.8,1.17-1.19-.1-2.4.07-3.54-.58a2.07,2.07,0,0,0,.5,1.14c-1.19-.1-2.12.37-3.56-.3,0,.27.53.87.8,1.16a15.72,15.72,0,0,1-3.56-.3c0,.27.55.59.82.89a9.59,9.59,0,0,1-3.83-.6c-.05.54.22.84.2,1.11-.89-.07-1.46-.4-2.35-.47l-1.53.42c-4.62,5.09-19.82-.64-19.82-.64-9.83,6.56-.72,45.23-.87,50.42s-3.2,6.39-3.2,6.39c-1.32-2-3.61,3.45-4.32,1.2-.72-2,.08-4.38-.65-6.37-2.3-4.58-8.34-3.73-11.84-1.28l-.62.85c-5.06,5.76-1.73,25.31,1.16,31.28,0,11.65,9.69,18.58,16.11,10.7l1.23,4.65"/><path class="cls-17" d="M434.66,221.83a8.55,8.55,0,0,1-7.69-1.14c-.46-.35-2.11-.2-1.46.29A12,12,0,0,0,436,222.36c.3-.12.26-.34-.08-.48a1.83,1.83,0,0,0-1.24,0"/><path class="cls-17" d="M424.61,220.27a13.77,13.77,0,0,0-4.66-1.59,1.09,1.09,0,0,0-.75.17c-.15.11-.19.27,0,.39a5.2,5.2,0,0,0,2.56.82,1,1,0,0,0,.84-.24c.16-.21-.1-.38-.31-.39a4.13,4.13,0,0,1-2.07-.67l-.77.56a12.31,12.31,0,0,1,4.16,1.43,1,1,0,0,0,.88,0c.18-.09.39-.31.14-.46"/><path class="cls-17" d="M418.06,219.92c-1.92-.22-4.11-1.24-4.93-2.76-1.24-2.3.38-5.63,2.9-6.81.28-.13.16-.34-.11-.42a1.61,1.61,0,0,0-1,.12,6.71,6.71,0,0,0-3.66,5.82c.14,1.93,1.86,3.42,4.12,4.17a10.59,10.59,0,0,0,2.11.47c.29,0,.82,0,1-.22s-.09-.34-.37-.37"/><path class="cls-17" d="M438.26,221.16a.25.25,0,0,1,.28-.34,2.23,2.23,0,0,0,1.53-.36l.46.66a6.88,6.88,0,0,0-3.11.82.57.57,0,0,1-.61-.15c-.11-.12-.22-.37,0-.48"/><path class="cls-17" d="M436.78,221.31a7.62,7.62,0,0,1,3.48-.89.62.62,0,0,1,.49.27.26.26,0,0,1,0,.39"/><path class="cls-17" d="M442.24,221.76a4,4,0,0,0,3.54-2,5.62,5.62,0,0,0-1-6.27.23.23,0,0,1,.13-.39.74.74,0,0,1,.65.26,6.29,6.29,0,0,1,1.59,5.4,4.4,4.4,0,0,1-3.21,3.54,4.52,4.52,0,0,1-1.41.18.7.7,0,0,1-.6-.37c-.07-.23.11-.32.29-.31"/><path class="cls-18" d="M458.11,185.65a4.11,4.11,0,0,1,5.66,3.29,4.33,4.33,0,0,1-1.34,3.82,4,4,0,0,1-4.65.41,4.41,4.41,0,0,1-1.72-5.31,3.93,3.93,0,0,1,2.05-2.21"/><path class="cls-18" d="M442.94,189.89s8.55-5.63,12.68-5.69c6-.08,13.12,3.87,15,7,0,0-9.33-5.79-13.58-5.6C453,185.78,442.94,189.89,442.94,189.89Z"/><path class="cls-18" d="M408.15,182c-1.57-1-4.24-1-5.4-.12a4.17,4.17,0,0,0-1.42,1.84,4.28,4.28,0,0,0,.68,4,4,4,0,0,0,4.51,1.19,4.42,4.42,0,0,0,2.6-4.94c-.07-.33.31-.92-1-1.72"/><path class="cls-18" d="M418.17,187.3s-8.56-6.53-13-7.05c-6.48-.74-14.56,2.4-16.93,5.33,0,0,10.71-4.73,15.26-4.09C407.85,182.11,418.17,187.3,418.17,187.3Z"/><path class="cls-19" d="M445.65,169c0,1.21,0,2.43,0,3.65,0,.93,0,1.86,0,2.79,3.11-.78,5.77-1.29,7.78-1.62,4.25-.71,6.42-1.05,8.89-.63a23.49,23.49,0,0,1,5.64,1.78,14.89,14.89,0,0,1,3,1.58c2.09,1.51,2.94,3.22,3.28,3.07s-.2-1.63-.25-1.79a14.21,14.21,0,0,0-4.44-6.18,16.86,16.86,0,0,0-5.73-2.64c-2.44-.62-9.2-1.08-18.17,0"/><path class="cls-19" d="M421.92,165.58c-.17,1.2-.34,2.41-.5,3.62-.13.92-.26,1.84-.4,2.76-3.24-1.22-6-2.11-8.17-2.73-4.48-1.32-6.78-2-9.49-1.92a27.88,27.88,0,0,0-6.32.95,16.34,16.34,0,0,0-3.42,1.14c-2.45,1.19-3.6,2.76-3.95,2.56s.44-1.59.51-1.73a14.39,14.39,0,0,1,5.62-5.48,19,19,0,0,1,6.53-1.79c2.72-.26,10.06.26,19.59,2.62"/><path class="cls-20" d="M353.17,197.59c-6.24-15.66-10.92-15.87-10.92-15.87s-3.23,3.52-1.83,10.75"/><path class="cls-20" d="M350.72,198.94c-4.18-.51-1.14,7.4-2.34,9.22s-2.62-3.12-3-9c0,0,.18-8,4.18-9.35"/><path class="cls-16" d="M459.06,151.25s-12.81,1.4-23.2,1.46-20.53-5.27-20.53-5.27,16.31,4.06,20.61,4.18S459.06,151.25,459.06,151.25Z"/><path class="cls-19" d="M466.17,121.47c-.13-.19.05.08,0,0-2.56-3.65-4.17-7.54-6.89-11.07s-5.26-6.6-8.11-9.91c-.16-.19-3.56-.3-3.73-.5l-.18-.2a4.12,4.12,0,0,0-.28-.31l-.63-.71c-16.08-7.14-35.56-8.26-53.17-3a64.66,64.66,0,0,0-43.37,80.51c.87,2.93-.9,6.46,2,8.12s3.2.85,5.93-1a21.42,21.42,0,0,0,6.12-7.63c7.51-14.06,9.46-36.51,6.21-52.11,1.87,3,15,0,18,1.92a25,25,0,0,0,34.73-7,38.07,38.07,0,0,0,4,4.91c13.24,14,30.58,20.79,45.18,11.09C472.37,134.28,467.76,123.79,466.17,121.47Z"/><path class="cls-11" d="M384.2,178.17l1.44,5.65c.76,4.36,3.38,13.09,4.68,15.51,1.84,3.39,24.52,6.27,29.18,4s8.11-15.12,9.52-18.06l9.07,1.17c.53,4,2.48,16.53,4.09,18.32s12.08,2.25,13.26,2.3c1,0,2.35.08,3.85.06,4,0,8.8-.32,10.38-1.68,2.35-2,5.35-10.11,8-17.79l.43-1.2c.09-.29.2-.49.21-.58h0l.47-1.39c-12.66-7.2-29.95-7.4-41-.48l.07.15L429,183c-9.54-7.4-26.64-12.27-39.4-8.35h0l-39,3.64-.36,3.41Zm59.14,25.39c-1-1.12-2.64-9.94-3.68-16.8,9.56-5.83,25.14-5.62,36.5.15v.17c-1.42,4.12-5.17,15.08-7.47,17-2.74,2.33-23.57,1.2-25.34-.54Zm-50.25-5a117,117,0,0,1-6.1-20.15c11.41-4.23,30.43,0,39.78,7-2,5.33-4.63,14.71-8,16.34-4.81,2.36-24.55-1-25.7-3.19Z"/><path class="cls-21" d="M332.89,182.74S300.48,159.23,312.84,134c2.37-4.84,2.63-3.25,2.77-7.44.73-22-6.95-16.72,25.21-42.4s36.89-25.23,86-21.57c25.32,1.88,39.18,12.47,46.09,28.51,3.11,7.21,4.82,15.52,5.53,24.64,0,0-51.73-14.75-82.53,1.86s-63.15,70.69-56.58,88C341.16,210.5,332.89,182.74,332.89,182.74Z"/><path class="cls-15" d="M312.92,158.72s43.9-64,102.42-65.91c0,0-72.29-7.74-104.28,43.89l-.48,6.07A33,33,0,0,0,311.64,154Z"/><path class="cls-12" d="M225.76,498.4l58.84,3,16.92-107L310,286.71s-35.74,4.27-52.28,35.43-30.05,119.25-31.47,138C225.23,473.14,225.54,496.89,225.76,498.4Z"/><path class="cls-22" d="M407.49,495l1-6.93a.21.21,0,0,0-.16-.1l-11.46-1.32-27.38-3.17-32.83-3.8-27.77-3.22-8.72-1-2.52-.29c-.18,0-.87,0-1-.12.25.23.46-.57.57-.83.23-.59.43-1.18.63-1.78.52-1.61,1-3.23,1.4-4.86,1.27-4.81,2.36-9.66,3.43-14.51,2.9-13.12,5.56-26.29,8.32-39.43,2.65-12.55,5.27-25.12,8.52-37.54,1.69-6.48,3.84-12.82,4.76-19.49a57.3,57.3,0,0,0-.93-21.48c-1.92-7.71-5.77-15.34-11.61-20.85-.29-.28-.59-.55-.91-.81s-1.9.42-1.67.6c4.57,3.62,7.89,9.29,10.11,14.57a50.89,50.89,0,0,1,3.81,18.38c.21,8.27-1.56,16.15-3.84,24.05-3.38,11.67-5.87,23.61-8.41,35.48-2.91,13.62-5.67,27.28-8.6,40.9-1.18,5.48-2.38,11-3.7,16.4a89.84,89.84,0,0,1-2.92,10.32,12.79,12.79,0,0,1-.58,1.37c-.05.1.06.16.14.17l12.43,1.44,29.29,3.39,34.21,4,27.16,3.15,7.2.83a4.35,4.35,0,0,1,1.35.16s.05,0,.07,0c-.25-.24-.22.36-.24.53l-.55,3.91-.34,2.39c0,.17,1.7.05,1.77-.47Z"/><path class="cls-22" d="M497.89,344.6a45.77,45.77,0,0,0-2.13,5.37c-.71,2.15-1.63,4.82-1.29,7.12s1.55,4.46,2.42,6.48c3.87,9,8,17.87,11.66,26.93,4.42,10.92,8.56,22.12,10.92,33.69a59,59,0,0,1,1.44,14.74A61.79,61.79,0,0,1,516.52,459a119.59,119.59,0,0,1-7.25,13.88c-2.11,3.71-4.15,7.58-4.88,11.83a20.73,20.73,0,0,0-.29,3.15c0,.78,1.76.44,1.78-.2a27.13,27.13,0,0,1,3.67-12.19c2.29-4.32,4.94-8.44,7.05-12.85a59.22,59.22,0,0,0,5.45-34.35c-1.69-11.38-5.56-22.44-9.71-33.14-3.78-9.76-8.07-19.31-12.3-28.89-1.2-2.72-2.48-5.44-3.42-8.26a5.9,5.9,0,0,1-.32-3,32.24,32.24,0,0,1,2.52-8.68c.23-.56.47-1.12.73-1.66.38-.81-1.39-.65-1.66-.08Z"/><path class="cls-23" d="M428.09,232.75c-8.44-.64-22-2.76-22-2.76s-2.79,21.37,21.34,23.44c19.56,1.68,21.28-20.12,21.28-20.12S436.54,233.38,428.09,232.75Z"/><path class="cls-24" d="M428.18,232.75c-4-.3-20.14-2.26-20.14-2.26s5.71,14.59,20.23,15.68c15.74,1.18,18.36-12.52,18.36-12.52Z"/><path class="cls-25" d="M428.3,233.43c-4-.31-16.17-2-16.17-2s4,5.16,16.08,6.07,16.21-3.5,16.21-3.5Z"/><path class="cls-23" d="M449.66,232c-.42-.14-2.82.53-4.8.2-3.3-.57-3.67-1.68-6.07-2.07-4.08-.65-6.82.93-8.61.8s-4.26-2.11-8.4-2.08c-2.42,0-8.45.54-11.8.61-2,0-4.28-1-4.71-.91-.61.11.18,5,22.64,6.67S450.24,232.23,449.66,232Z"/><path class="cls-6" d="M406.33,497.7c.11,2-.16,14.25-.08,16.28.43,11.35.71,12.51.34,23.86l21.91-2.66-.5-33.79Z"/><path class="cls-6" d="M419.73,535.81l23.19-2.33s12.06,4.35,21.84,2.8a77.76,77.76,0,0,0,20.21-7l22.31-3.13s10.31,4.12,11.83,1-1.93-5.69-5.28-8.17-58.7-19.39-58.7-19.39a104.6,104.6,0,0,1,16.38-7.36c8.71-3,9.49-9,6.63-13.13s-15.71,1.24-19,5.47-15.39,2-23.76,6.27-13,16.16-13,16.16C408.64,516.35,419.73,535.81,419.73,535.81Z"/><path class="cls-12" d="M225.69,481.27c-.77,10.18-.84,20.57,1.92,30.4,3.49,12.43,4.47,17.38,15.26,24.48s31.45,10.64,44.25,8.92c1.35-.18-4.6,5.21-3.44,4.49,1.62-1,2.57-2.79,3.44-4.49l10.78-21c3.62-7,7.3-14.27,8.28-22.12a5.69,5.69,0,0,0-.3-3.25,6,6,0,0,0-3.06-2.35,146.2,146.2,0,0,0-42.66-12.18"/><path class="cls-22" d="M296.58,475.48A26.06,26.06,0,0,0,271.4,487c-.11.17,1.47.12,1.74-.32a22.66,22.66,0,0,1,22-10.48,2.21,2.21,0,0,0,1.24-.23c.11-.07.64-.38.22-.44Z"/><path class="cls-22" d="M258.57,544c3.93.85,7.91,1.47,11.89,2.06,10.24,1.52,20.56,2.56,30.9,3.17a341.83,341.83,0,0,0,43.18-.09,268,268,0,0,0,41.63-6l19.7-4.54.54-.12c1.12-.26.76-1.56-.35-1.31l-18.34,4.22a270.54,270.54,0,0,1-37.21,5.9,327,327,0,0,1-44.16.8c-10.91-.51-21.81-1.5-32.63-3q-4.94-.69-9.86-1.54c-1.49-.27-3-.66-4.5-.86a.71.71,0,0,1-.2,0c-.92-.2-1.76,1.12-.59,1.37Z"/><path class="cls-22" d="M544.25,451.18a27.75,27.75,0,0,1,6-21.93c2.83-3.31,5.72-6.56,8.58-9.84l3.11-3.57c.47-.53-1.28-.39-1.64,0l-7.8,8.95c-3.4,3.89-6.67,7.52-8.53,12.48a28.86,28.86,0,0,0-1.48,14.38c.09.53,1.87.13,1.78-.48Z"/><path class="cls-16" d="M746.86,645.59a6.28,6.28,0,0,1-2.59-2.64,4.53,4.53,0,0,1,.3-4.2,14.62,14.62,0,0,1,3.08-3.62l3-2.85c.74-.73,1.37-1.47,1.82-1.86a4.92,4.92,0,0,1,.8-.51c.06-.09-.42-.28-1.09.07a17.33,17.33,0,0,0-2.25,1.65l-3.16,2.64a13.9,13.9,0,0,0-3.47,3.93,5.73,5.73,0,0,0-.22,5.42,7,7,0,0,0,3.26,2.91c2.27,1,3.66,1,3.76.9S748.73,646.79,746.86,645.59Z"/><path class="cls-11" d="M906.43,383.62c-8.28,8.69-16.46,14.12-16.2,14.48a22.18,22.18,0,0,0,5.5-3.41,83.42,83.42,0,0,0,11.72-10.17A86.42,86.42,0,0,0,917,372.36a23.48,23.48,0,0,0,3.08-5.65C919.73,366.48,914.72,374.92,906.43,383.62Z"/><path class="cls-6" d="M924.5,270.77s17.15,56.62,13.87,69.91c-.8,3.23-39.84,24.66-39.84,24.66L1000,383.81l39.8-23.41s-36.36-18.69-37.87-22.31c-10.41-24.86-1.43-56.22-1.43-56.22"/><path class="cls-5" d="M1045.85,357.47c1.05.48,16,7.74,16.94,8.22,5.78,3-15.31,153.72-15.31,153.72l21,57.45c9.61,63.71-14.32,82.66-40,103.48,0,0-113.58-56.91-127.71-58.71-16.42-2.09-31.25-26.35-34.46-34.16-1.16-2.83-5.75-28.44,7.74-57.06,9.79-20.77,5.08-31.44,6-56,1.73-43.62,4.72-82.14,4.72-82.14l1.63-18.91c8.48-2.1,14.94-14.21,24.13-19.56,2.59-1.51,13.31-6.55,16.09-7.68,2.57-1,4.95-2.57,7.6-3.43-.19.38,3.76-2.15,3.49-1.37-6.35,18.3,7.14,34.16,26.09,30.17,22.77-4.79,33.44-14.76,44.19-30.69,2.75,1,24.54,10.65,28,12Z"/><path class="cls-26" d="M949.54,456.39h-.14c0,.18-.16.36,0,.55Z"/><path class="cls-26" d="M934.64,496.26a.3.3,0,0,0,.13.09l.11-.36Z"/><path class="cls-27" d="M907,443.5h.2l-.18-.13A.11.11,0,0,0,907,443.5Z"/><path class="cls-27" d="M934.3,451.77l-.16-.16-.07.09Z"/><path class="cls-27" d="M907.55,443.64l.26.07A.18.18,0,0,0,907.55,443.64Z"/><path class="cls-28" d="M750.07,701c19.43,47.11,67.74,166.33,97.14,210.87,0,0,67.41-9.54,67.84-24.76,0,0-30.41-68.84-39.73-98-6.5-20.33-12.7-82.29-51.05-88.83-41.69-7.11,55.39-59.76,93.89-94.52,19.42-17.54-7-30.75-11-30.8-42.17-.58-120.52,38.34-143.4,53C745.29,639.71,733.59,661,750.07,701Z"/><path class="cls-28" d="M848.16,703.57c-2.12-3.28-7.08,21.62-9.48,18.55a162.51,162.51,0,0,0-18-19.26,171.47,171.47,0,0,0-21.32-16.67A145.36,145.36,0,0,0,783.43,677c25.39-75,200.06-88,200.06-88s72.72-14.89,80.66,37.84c10.52,69.87-119.44,73.29-182.16,81.94C881.69,708.88,848.46,703.54,848.16,703.57Z"/><path class="cls-28" d="M792.66,686s16.3-42.43,28.76-39.51A55.76,55.76,0,0,1,820,636q2.15-1.77,4.5-3.6A141.2,141.2,0,0,1,844.13,644a171.85,171.85,0,0,1,20.54,17,154.24,154.24,0,0,1,17.08,19.44c1.45,2-23.12,4.08-21.78,6.15-.23,0,10.78,0,10.56,0,19.09,32.24,21.78,92.67,25.41,150.58C899.13,888,899.48,884,903.21,911c-8.12,12.39-74.51,5.42-74.51,5.42C817.89,838,792.66,686,792.66,686Z"/><path class="cls-9" d="M910.67,600.41c-6.57,1.56-13.11,3.23-19.65,4.93-14.36,3.74-28.66,7.7-42.85,12.06s-28.38,8.91-41.88,15a69.09,69.09,0,0,0-13.6,7.58c-4.86,3.72-7.28,9.84-9.12,15.51-2.94,9.08-3.88,18.73-3.94,28.23a173.19,173.19,0,0,0,2,26.62,189.77,189.77,0,0,0,3.87,19.35l6.39,25.06L802.42,796,812.86,837l5.95,23.32.27,1.08c.25,1,3.27.18,3-.81l-4.18-16.38-9.61-37.68L797.4,763.75l-7.83-30.7c-1.1-4.29-2.2-8.57-3.08-12.91-3.29-16.32-5-33.4-3.08-50,1.07-9.09,3.3-18.69,8.41-26.44,2-3,5.53-5,8.76-6.76a140.24,140.24,0,0,1,16.5-7.42c7-2.72,14.07-5.17,21.2-7.49,14.62-4.75,29.42-9,44.27-13,9-2.42,18.1-4.76,27.19-7l1.31-.31c.41-.1,1.48-.51,1.32-1.11s-1.32-.38-1.7-.29Z"/><path class="cls-29" d="M875.2,410.19c-.22,10.41-.14,20.82-.06,31.23q.15,20.67.66,41.34c.28,11.32.57,22.65,1.35,33.94.09,1.19.52,2.81.21,3.95a26.89,26.89,0,0,1-1.19,3c-1.8,4.59-3.45,9.25-4.94,13.94-4.26,13.36-7.85,27.57-7.52,41.68,0,1.7.15,3.39.34,5.07,0,.28,1.72,0,1.67-.45a79.71,79.71,0,0,1,.93-21.31,168.07,168.07,0,0,1,5-21.36q2.37-8,5.33-15.73c.54-1.42,1.09-2.84,1.67-4.25a3.61,3.61,0,0,0,.38-2.15c-.88-10.59-1.14-21.25-1.44-31.88q-.57-20.68-.75-41.39c-.1-11.09-.18-22.19,0-33.28,0-.92,0-1.84,0-2.76,0-.21-1.66,0-1.67.45Z"/><path class="cls-5" d="M1097.27,556.45l-93.58-36.71,17-91.74,38.91-63.95s21.87,8.6,26.35,38.64,14,120.06,14.3,136.26C1100.5,552.41,1097.88,555.28,1097.27,556.45Z"/><path class="cls-5" d="M1039.71,518.46l0-.47,58.9,31.23c4.53,41.47-133.46,60.5-133.46,60.5l-17-44.47Z"/><path class="cls-29" d="M954.49,570.41l-1.38-7.16-.46.75q12.15-5.18,24.24-10.47c14.84-6.47,29.66-13,44.34-19.84,5.91-2.76,11.86-5.5,17.57-8.66a.74.74,0,0,0,.46-.75q-1.12-8.09-2.16-16.19-2.41-18.52-4.59-37.07c-1.55-13.4-3-26.81-4.1-40.26-.43-5.29-.8-10.6-1-15.92s-.12-10.89,1.53-16.16c3.3-10.5,11.65-19.43,21.34-24.51l.54-.28c1-.49.12-1.47-.76-1.05a43.06,43.06,0,0,0-7.53,4.83A46.12,46.12,0,0,0,1030,392.22a39,39,0,0,0-4.32,18.8c0,4.83.3,9.67.63,14.48.93,13.29,2.34,26.54,3.83,39.77q2.19,19.51,4.74,39,.87,6.78,1.78,13.57c.19,1.44.39,2.87.58,4.31a14.38,14.38,0,0,0,.31,2.28,1.45,1.45,0,0,1,0,.3l.46-.76c-5,2.75-10.1,5.15-15.22,7.56-7.09,3.34-14.24,6.57-21.39,9.78q-20.37,9.12-40.87,17.92L951.89,563a.72.72,0,0,0-.46.75l1.39,7.16c.16.81,1.83.38,1.67-.45Z"/><path class="cls-29" d="M1069.12,582c-7.87,3-15.77,6.07-23.7,9-2.12.78-4.25,1.56-6.4,2.26-1,.32-.76,1.24.25.92,9.28-3,18.37-6.7,27.47-10.21l3.07-1.18c1.08-.42.1-1.07-.69-.76Z"/><path class="cls-29" d="M1038.28,524.77a17.71,17.71,0,0,1,14,6.59c.37.45,2-.14,1.56-.66a18.83,18.83,0,0,0-15-6.89c-.34,0-.94.1-1.11.46s.14.51.46.5Z"/><path class="cls-5" d="M865.34,581.21c1.24,5.14,5.24,6.64,11.18,7.55s12.06.19,18.05.76c4.58.44,9.06,1.63,13.66,1.69a4.72,4.72,0,0,0,2.19-.33c1.18-.56,1.57-1.85,1.85-3l1.51-6.32a1.64,1.64,0,0,0-.15-1.54c-.31-.34,8.82-14.77,2-13.13-12.86,3.08-29.75,9.89-43,10.93"/><path class="cls-6" d="M952.89,571.59l4.42,13.62,4,13.92s-18.43,5.35-24,6-18.4,3.71-18.4,3.71a7.42,7.42,0,0,1,1.41,4.84,7.3,7.3,0,0,1-2.93,4.93l-7.56-7.24c-.66,4.3-4.87,2.14-4.87,2.14l-5.78-6.56c-.58,5.36-6.11,2.69-6.11,2.69l-4.72-10a17,17,0,0,1-3.85,5.34c-2.17,1.68-3.91-2.29-3.91-2.29l5.45-18.41,23-13,41.73.59Z"/><path class="cls-16" d="M901.08,579.65a38.22,38.22,0,0,0-4.27,2.74c-1.53,1.11-3.23,2.33-4.89,3.8a28.35,28.35,0,0,0-4.3,4.53,3.83,3.83,0,0,0-.87,2.83,19.13,19.13,0,0,0,.42,2.36,10.79,10.79,0,0,0,1.51,4.39c.14,0-.29-1.67-.69-4.48-.09-.7-.23-1.51-.27-2.27a3,3,0,0,1,.77-2.14,32.9,32.9,0,0,1,4.21-4.3c1.62-1.41,3.25-2.63,4.77-3.78s2.84-2.19,4-2.91a13.43,13.43,0,0,1,4.17-1.54A5.91,5.91,0,0,0,901.08,579.65Z"/><path class="cls-16" d="M907.36,587.86c-2.25,1.47-5.58,3.17-8.94,5.67a7.6,7.6,0,0,0-2.3,2.32,10.25,10.25,0,0,0-.44,3,9.89,9.89,0,0,0,.73,4.87,19.78,19.78,0,0,0,1.87,2.68,7.23,7.23,0,0,0,.78.89,4,4,0,0,0-.42-1.12,21.21,21.21,0,0,1-1.49-2.77,9.71,9.71,0,0,1-.46-4.57,9.84,9.84,0,0,1,.42-2.52,6.82,6.82,0,0,1,2-1.86c3.25-2.42,6.55-4.27,8.7-5.95a11.18,11.18,0,0,0,3.21-3A32.67,32.67,0,0,0,907.36,587.86Z"/><path class="cls-16" d="M908.18,608.84a5.44,5.44,0,0,1-1.24-2.9,3.92,3.92,0,0,1,1.55-3.25,12.5,12.5,0,0,1,3.58-1.92l3.25-1.34c.82-.35,1.55-.74,2-.92a4.4,4.4,0,0,1,.79-.15c.08-.05-.25-.36-.88-.29a15.13,15.13,0,0,0-2.31.62l-3.33,1.11a11.82,11.82,0,0,0-4,2.05,4.89,4.89,0,0,0-1.86,4.24,6,6,0,0,0,1.68,3.33,6.91,6.91,0,0,0,2.71,1.89C910.3,611.17,909.3,610.38,908.18,608.84Z"/><path class="cls-16" d="M937.86,333.71s11,1.21,15.28.06,11.57-.81,31.4-17.61c0,0-2.54,12-30.78,23,0,0-11.72,3.2-16,2.12Z"/><path class="cls-30" d="M897.19,222.07h0c-2-7.29-2.72-11.8-.76-16.89,1.39-3.59,7.58-7.37,7.58-7.37s1.3-10.75,6.17-9.29c0,0,4.67-14.35,18.87-10.75,0,0,4.31-1.12,6.73,1.54,0,0,6.59-12.37,18.84-3.89,0,0,4.69-3,6.3.67,0,0,8.14-7.8,16.24-1.58,0,0,20.52-4.16,25.62,8.67,0,0,9.93-5.1,15.12,4.32,0,0,5.17.38,5.22,7.53,0,0,7.72,2.22,8.45,6.9,0,0,4.45,3.49,4.2,11-.08,2.14-.8,1.57-1.47,4.47,4.29,8.51-2.19,9.57-2.19,9.57,6.64,7.88-1.61,17.77-1.61,17.77s3.31,6.13,1.53,10.06c-2.43,5.38-12.73,11.33-12.73,11.33s-2.56-14.42-2-23.59-7-25.07-9.53-28.51-20.21,2.89-47.4,3.11-32.68-4.59-35.91-3.7c-6.71,1.85-12.2,25.7-12,32.9s-1.87,20.8-1.87,20.8-14.49-6.05-10.7-18.17c0,0-4.81-8.68-3-13.95a5.37,5.37,0,0,1,1.57-3.3S893.53,226.34,897.19,222.07Z"/><path class="cls-6" d="M988.56,312.73c-10.63,12.6-26.81,21.31-42.06,24.87-15,3.49-20.17-1.37-22.33-3.53-11.83-11.88-19.67-24.06-24.38-38.24a35.09,35.09,0,0,1-1.37-12.32c.21-6.44,1.08-18.8.82-24.94-.67-15.64.67-29.88,8.92-43.27,17.19-27.89,60-28.52,76.07-21.41,18.8,8.31,27.67,26,29.33,45a51.67,51.67,0,0,1-1.32,17.47,54.36,54.36,0,0,0-6.6,9.62"/><path class="cls-31" d="M908.23,217.94s-1.21,1.16-8.82,20.44c1.83-6.12,2.64-15.25,7.54-23.85,17.12-30,73.56-27.59,89.66-19.87,18.83,9,26.23,27.92,27.95,48.45.7,8.34,1.2,13.66-1.09,20.65-.12.09-1.54,1.67-1.54,1.67s-16.71,3.69-22,14l-.48-8.88s-4.49-11-8.32-30c0,0-.34-10.49-.28-13.64.19-9.73-8.47-7.46-14.46-5.75a79.45,79.45,0,0,1-15.69,1.89c-9.89.07-22.43-1.08-27.06-.92C927.15,222.39,908.23,217.94,908.23,217.94Z"/><path class="cls-32" d="M907.62,218a10.35,10.35,0,0,0-1.59,3c-2.67,5.73-5,11.63-7.29,17.51l1.35-.26c1.12-3.81,1.76-7.74,2.77-11.58a49.5,49.5,0,0,1,5-12.74A39.77,39.77,0,0,1,920,201.33c10.4-7,23.19-10,35.53-11a103,103,0,0,1,32.9,2.05c12.35,3,22.32,11.6,28.09,22.84a70.06,70.06,0,0,1,6.62,21.92c.62,4.22,1,8.49,1.2,12.75a38.45,38.45,0,0,1-1.21,12.82,3.79,3.79,0,0,1-.92,1.79l-1,1.08.82-.35a47.86,47.86,0,0,0-9.54,3.3c-5.25,2.4-10.52,5.83-13.26,11.09l1.36-.32-.24-4.56a29.51,29.51,0,0,0-.24-4.31,13.86,13.86,0,0,0-.69-1.82c-.61-1.66-1.17-3.35-1.71-5-2-6.3-3.67-12.71-5.08-19.17a33.71,33.71,0,0,1-.9-6.37q-.12-3.72-.19-7.46c-.07-4,.66-9.62-4.31-10.88-4.28-1.09-8.68,1-12.81,1.77-13,2.56-26,.52-39,.44-8.76,0-17.45-2.08-26-4l-.71-.16c-.3-.07-1.47.42-1.14.5,3,.7,6,1.34,9,1.94a104.89,104.89,0,0,0,14.72,2.25c2.05.11,4.1,0,6.15.09,3.27.13,6.54.33,9.82.49a129.68,129.68,0,0,0,19.71-.07,63.3,63.3,0,0,0,8.55-1.32,53.61,53.61,0,0,1,6.86-1.56c2-.23,4.37-.11,5.94,1.39,1.78,1.7,1.76,4.32,1.76,6.59s.07,4.85.13,7.27c0,1.78,0,3.6.15,5.37a39.83,39.83,0,0,0,.94,4.57q.63,2.88,1.34,5.75,1.17,4.76,2.55,9.45,1.5,5,3.32,10a6.07,6.07,0,0,1,.25,1.82l.33,6.09.07,1.39c0,.25,1.26-.12,1.36-.31,3.49-6.69,11-10.47,17.86-12.73.94-.31,1.88-.6,2.84-.84l.51-.13a4,4,0,0,0,.8-.37,8.72,8.72,0,0,0,1.26-1.38,8.43,8.43,0,0,0,1.08-3.2,33.69,33.69,0,0,0,.85-6.94,102.28,102.28,0,0,0-1.13-15.92,80.9,80.9,0,0,0-3-13.59c-2.66-8.47-7.07-16.44-13.64-22.5a41,41,0,0,0-17.45-9.61,89,89,0,0,0-17.94-2.58c-14.52-.78-29.68.81-43.24,6.3a50.81,50.81,0,0,0-17.63,11.42,37.65,37.65,0,0,0-6.45,9c-2.52,5-3.9,10.36-5.1,15.77-.47,2.15-.93,4.32-1.55,6.44-.06.22,1.23.05,1.35-.26,2.3-5.83,4.59-11.69,7.23-17.38.4-.86.79-1.73,1.26-2.55.06-.1.38-.56.27-.45C909.1,217.63,907.84,217.78,907.62,218Z"/><path class="cls-6" d="M997.7,297.79c8.14,7.93,16.3-5.2,16.3-5.2,7.39-9.44,7.09-19.25,6.61-26s-7.86-6.37-7.86-6.37c-6.25.87-5.34,1.58-13.3,19.67"/><path class="cls-33" d="M1006.23,279.66a44.77,44.77,0,0,1,5-10.68,14.15,14.15,0,0,1,1.89-2.27,6.33,6.33,0,0,1,.69-.57,2.9,2.9,0,0,1,.29-.19,1.34,1.34,0,0,1,.19-.11l.23-.11c.14-.06,0,.08.06,0s0,0,0,0l-.41-.09a6.63,6.63,0,0,1,1.32,2.21,13.48,13.48,0,0,1,.64,7c-.06.42,1,.24,1-.13a13.11,13.11,0,0,0-1.1-8.14c-.34-.62-.74-1.61-1.58-1.42-2.11.49-3.72,2.92-4.78,4.6a49.71,49.71,0,0,0-4.57,10c-.13.37.91.24,1-.12Z"/><path class="cls-33" d="M1005.5,283.38c3.79.12-1.54,8.87,1.59,8.68.82-.05,1.31-.85,1.65-1.49a20,20,0,0,0,1.52-4.23,16.51,16.51,0,0,0,.64-5.26c-.11-2.21-.59-5-2.74-6.16-.35-.18-1.29.3-.82.55,1.8.94,2.28,3.25,2.46,5.11a12.91,12.91,0,0,1-.15,4,32.44,32.44,0,0,1-1.28,4.53,10.89,10.89,0,0,1-.77,1.66c-.09.16-.22.31-.31.47,0,0-.15.14-.15.15s.18,0,.19-.05a2.74,2.74,0,0,0-.18-.32,1.69,1.69,0,0,1-.07-.45,5.83,5.83,0,0,1,.13-1.25c.16-.92.4-1.83.56-2.76.3-1.69.33-3.79-1.88-3.86-.45,0-1.09.64-.39.66Z"/><path class="cls-33" d="M956.84,262.76a4.74,4.74,0,0,1,5.1,1,4.51,4.51,0,0,1,1.35,2.16,4.74,4.74,0,0,1-1.17,4.28,4.4,4.4,0,0,1-5,.81,4.85,4.85,0,0,1-2.31-5.67,4.32,4.32,0,0,1,2.08-2.58"/><path class="cls-33" d="M947.12,270.34s6.47-9.31,13.23-9.22c9.51.13,11.67,5.69,13.7,8.6,0,0-6.08-6.84-13.43-6.76C954,263,947.12,270.34,947.12,270.34Z"/><path class="cls-33" d="M910.18,262.1a4.2,4.2,0,0,0-4.78.85,4.6,4.6,0,0,0-1.32,2.13,5,5,0,0,0,1,4.31,3.9,3.9,0,0,0,4.69.95c2.08-1,2.79-3.65,2.3-5.6a4.39,4.39,0,0,0-1.88-2.64"/><path class="cls-33" d="M922,270s-5.37-9.48-11.21-9.57c-8.22-.13-10.22,5.37-12,8.22,0,0,5.41-6.67,11.77-6.39C916.32,262.53,922,270,922,270Z"/><path class="cls-17" d="M928.76,293.81a6.79,6.79,0,0,0,6.23-.38c.39-.24,1.7,0,1.15.34a9.56,9.56,0,0,1-8.47.38c-.23-.12-.19-.3.09-.39a1.48,1.48,0,0,1,1,.05"/><path class="cls-17" d="M936.91,293.26a10.9,10.9,0,0,1,3.83-.95.87.87,0,0,1,.59.19c.11.1.13.24,0,.32a4.23,4.23,0,0,1-2.11.48.82.82,0,0,1-.65-.26c-.11-.18.1-.29.28-.29a3.33,3.33,0,0,0,1.7-.39l.58.5a9.79,9.79,0,0,0-3.43.86.79.79,0,0,1-.7-.08c-.14-.08-.3-.28-.08-.38"/><path class="cls-17" d="M942.17,293.44a5.28,5.28,0,0,0,4.13-1.88c1.15-1.76.07-4.73-1.86-5.86-.21-.12-.1-.28.11-.33a1.25,1.25,0,0,1,.83.18,5.67,5.67,0,0,1,2.53,5.11c-.23,1.55-1.72,2.63-3.57,3.07a8.19,8.19,0,0,1-1.72.23c-.24,0-.66-.06-.77-.25s.1-.26.32-.27"/><path class="cls-17" d="M925.92,293a.2.2,0,0,0-.19-.29,1.8,1.8,0,0,1-1.2-.4l-.41.5a5.43,5.43,0,0,1,2.42.88.45.45,0,0,0,.5-.08c.1-.08.21-.28.06-.38"/><path class="cls-17" d="M927.1,293.24a6.16,6.16,0,0,0-2.72-1,.53.53,0,0,0-.42.19.23.23,0,0,0,0,.32"/><path class="cls-17" d="M922.7,293.22a3.18,3.18,0,0,1-2.69-1.89,4.58,4.58,0,0,1,1.21-5,.18.18,0,0,0-.07-.33.59.59,0,0,0-.54.17,5.07,5.07,0,0,0-1.64,4.23,3.58,3.58,0,0,0,2.32,3.09,3.93,3.93,0,0,0,1.12.24c.15,0,.43-.07.5-.25s-.06-.27-.21-.27"/><path class="cls-31" d="M948.86,246.86l.06,4.55c0,1.15,0,2.3.07,3.45,3.38-1,6.28-1.69,8.47-2.13a38.08,38.08,0,0,1,13.28-.79,14.19,14.19,0,0,1,5.75,2c.55.36,2.07,1.94,2.9,1.52.34-.18-.25-2-.31-2.22-1.19-3.73-4.18-5.25-7.82-6.1-7.43-1.72-14.89-1.42-22.4-.3"/><path class="cls-31" d="M898.65,251.28a11.72,11.72,0,0,0,.67-2.82,19.44,19.44,0,0,1,2.27-.73c7.29-1.84,14.63-1.66,22-.66,0,1.51,0,3,0,4.54,0,1.16,0,2.31,0,3.46-3.34-1-6.21-1.59-8.37-2a37.14,37.14,0,0,0-13.08-.57,16.45,16.45,0,0,0-3.52,1Z"/><path class="cls-23" d="M934.62,304.72c7.51-.21,21.88-1.44,21.88-1.44s-4.08,19.39-21.48,19.88-19-18.75-19-18.75S927.12,304.94,934.62,304.72Z"/><path class="cls-24" d="M934.55,304.73c3.57-.11,19.05-1.12,19.05-1.12s-5.65,12.5-18.55,12.87c-14,.4-17.2-11.73-17.2-11.73Z"/><path class="cls-25" d="M934.41,305.27c3.57-.11,14.4-1,14.4-1s-3.79,4-14.49,4.32-14.21-3.39-14.21-3.39Z"/><path class="cls-23" d="M915.24,303.33c.37-.1,2.47.53,4.24.33,2.94-.34,3.65-1.17,5.78-1.4,3.65-.38,6,1,7.59.95s3.87-1.56,7.53-1.38c2.14.1,9.71.73,12.67.9,1.77.1,3.83-.65,4.21-.57s-2.62,4-22.58,4.58S914.71,303.48,915.24,303.33Z"/><path class="cls-6" d="M629,363.1l9.21-9.25s5.59-11.82,8.65-15.09,18.28-12.48,19.12-12.65,12.63-19.08,16.64-17.87,6.42,4.49,4.52,9.8-12.5,14.95-10.24,17.1a18.52,18.52,0,0,0,6.26,3.4s2-6.13,5.72-7.68,7.19,2.36,7.19,2.36l-.28,2.73,3.84-2.64s5.33-12.12,10.74-11.3a22.21,22.21,0,0,1,6.35-6.46,4.71,4.71,0,0,1,6.42,1.83,4.52,4.52,0,0,1,.49,1.28h0l-13.7,27.23L679,371.68s-16.5,3.09-19.91,4.12l-6.94,7.35Z"/><path class="cls-16" d="M677.12,335.92c.24-.26-1-1.78-3.22-2.79s-4.17-1-4.21-.59,1.65.95,3.64,1.87S676.88,336.23,677.12,335.92Z"/><path class="cls-16" d="M706.73,345.46a29.88,29.88,0,0,1,1.49-6.12c1.1-3.78,2.72-9,4.65-15.08l.29.86a30.37,30.37,0,0,0-2.75-1.79,3.72,3.72,0,0,0-2.89,0,8.38,8.38,0,0,0-3.87,3.55,28.55,28.55,0,0,0-2.45,4.68c-1.23,3.21-2.18,6.25-3,8.7a54.24,54.24,0,0,1-2.88,8c-.21,0,.45-3.21,1.82-8.34.69-2.54,1.52-5.56,2.72-8.88a29.28,29.28,0,0,1,2.5-5,9.72,9.72,0,0,1,4.63-4.19,5.29,5.29,0,0,1,4.06.09,27.24,27.24,0,0,1,3,2l.48.31-.19.55c-2,6-3.82,11.23-5.17,14.92A29.68,29.68,0,0,1,706.73,345.46Z"/><path class="cls-16" d="M668.16,365a8.34,8.34,0,0,1,.3-1.21,16.68,16.68,0,0,1,1.59-3,42.91,42.91,0,0,1,8.46-9.28l-.2.24c2.63-5.22,2.05-13.4,8-19.79a6.45,6.45,0,0,1,5.48-1.58,9.51,9.51,0,0,1,4.75,2.44l.32.29-.06.44c-2.11,7.89-4,14.69-5.4,19.51a13,13,0,0,1-2.58,5.36c-.85,1.09-1.43,1.57-1.49,1.43a10.2,10.2,0,0,1,1.09-1.82,14,14,0,0,0,2.08-5.34c1.14-4.87,2.83-11.71,4.84-19.59l.21.73a8.32,8.32,0,0,0-4-2,5,5,0,0,0-4.2,1.23,11.75,11.75,0,0,0-3,4.5,50.73,50.73,0,0,0-1.86,5.09c-.53,1.71-.83,3.3-1.28,5a30,30,0,0,1-1.7,4.58l0,.14-.12.1a48.29,48.29,0,0,0-8.63,8.63C668.88,363.42,668.33,365.05,668.16,365Z"/><path class="cls-16" d="M638.16,353.85s1.9,6.92,11.08,10.32C649.24,364.17,636.8,363.28,638.16,353.85Z"/><path class="cls-6" d="M487.26,850.9c17.52,5.85,39.24,3.29,55.83-3.71-6.53,21.69-13.74,58.31-16.62,72.72,0,4.92-2,3.51-.42,4.13,23.15,9.12,61,46.51,61,46.51s-5.29,12.12-22.82,10.76-88.17-48.67-88.17-48.67l8.95-11.13Z"/><path d="M611.86,989.91s4.82-7.32-.56-10.38-28.87-16.11-32.09-16.14c-.33,2,5.23,3-1.75,3.64A90.86,90.86,0,0,1,539,962.19c-12.32-4.49-34.21-13.15-44.55-21.26-3.46-2.71-10.55-11.26-18.43-10.27-4.62,4.51-11,25.5-5.55,30.21s41.15,13.6,41.15,13.6l30.71,12.63,30,6.7,12.77,2L597.68,994Z"/><path d="M469.18,959.18c3.7,1.94,16,6.12,26.75,8.25,28.95,5.75,38,10.83,47.36,15.29a133.62,133.62,0,0,0,16.49,6.93c32.9,11.26,52.38-1.71,53.16-2a3,3,0,0,1,.62,1.65,76.57,76.57,0,0,1-7.49,4c-7,3.14-22.69,8.53-48.27.29-7.25-2.33-11.64-3.62-16.29-5.85-7-3.34-14.16-6.78-30.28-10.77l-.8,4.45s-31-4.49-43.87-12.39C466.88,962,469.18,959.18,469.18,959.18Z"/><path d="M467,964.92c17.65,7.61,37.73,11.34,44.11,12.51l-.7,3.91s-31-4.49-43.87-12.39A28.11,28.11,0,0,1,467,964.92Z"/><path class="cls-6" d="M430.89,860.86c17.24,6.64,39.05,5.06,55.94-1.18-7.51,21.37-16.37,57.63-19.9,71.9-.24,4.91-2.16,3.41-.6,4.1,5.68,2.54,12.19,6.89,18.78,12,19.75,15.27,40.08,37.25,40.08,37.25s-5.82,11.87-23.28,9.72S416,942,416,942l9.44-10.72Z"/><path d="M549.06,1005.38s5.15-7.1-.08-10.4-27.09-18.17-30.3-18.34c-.43,2,4.06,4-2.95,4.31a90.67,90.67,0,0,1-38.19-6.57c-12.1-5-33.57-14.69-43.54-23.26-3.33-2.86-10-11.72-17.95-11.1-4.81,4.3-12.11,25-6.91,29.93s40.49,15.46,40.49,15.46l30.11,14,29.64,8.05,12.67,2.61,12.66-1.31Z"/><path d="M407.92,968.21c3.61,2.1,15.68,6.83,26.35,9.45,28.66,7.05,37.51,12.55,46.62,17.42a133.3,133.3,0,0,0,16.16,7.68c32.36,12.73,52.4.66,53.2.37a2.87,2.87,0,0,1,.54,1.67,75.3,75.3,0,0,1-7.66,3.62c-7.09,2.82-23.06,7.49-48.24-1.9-7.14-2.66-11.46-4.14-16-6.58-6.83-3.65-13.85-7.42-29.77-12.14l-1,4.41s-30.79-5.89-43.26-14.36C405.5,970.87,407.92,968.21,407.92,968.21Z"/><path d="M405.5,973.84c17.29,8.41,37.18,13,43.5,14.5l-.88,3.87s-30.79-5.89-43.26-14.36A28.37,28.37,0,0,1,405.5,973.84Z"/><path class="cls-34" d="M443.62,899.48c9.66-26.44,20.71-44.62,25.73-62.67C476.8,810,483.4,729,528.83,718.3c74.33-17.5-201-152.41-186.89-153.3C392,561.84,550.66,580.78,578,598.5,600.09,612.81,636,662,616.92,715c-17,47.09-68.95,96.1-99.12,166.48C486.75,877.1,473.63,908.17,443.62,899.48Z"/><path class="cls-34" d="M520.59,714.94c2.85-4.28,9.52,28.21,12.76,24.21A213,213,0,0,1,557.57,714a229.81,229.81,0,0,1,28.68-21.75,197.62,197.62,0,0,1,21.42-12c-34.16-97.84-269.14-114.79-269.14-114.79s-85.09-9.93-95.78,58.88c-14.15,91.19,112.3,94.4,234.77,74.64C477.93,699,520.19,714.89,520.59,714.94Z"/><path class="cls-34" d="M610.27,644.77s19.88,35.83,8,96.09S584.6,919.12,584.6,919.12s-39.22,15.88-68.68,5.41-42.85-20-60.39-13.23-48.24,8.52-63,2.51l-21.88-8L417.1,686.62Z"/></g></svg>