<svg xmlns="http://www.w3.org/2000/svg" xmlns:xlink="http://www.w3.org/1999/xlink" viewBox="0 0 1303.15 1057.31"><defs><style>.cls-1,.cls-12,.cls-13,.cls-19,.cls-33,.cls-36{fill:none;}.cls-2,.cls-41{isolation:isolate;}.cls-3{fill:#f2ebd1;}.cls-4{fill:#a66e53;}.cls-43,.cls-5{fill:#4f2e25;}.cls-10,.cls-11,.cls-12,.cls-13,.cls-6{stroke:#000;}.cls-10,.cls-11,.cls-12,.cls-13,.cls-17,.cls-18,.cls-19,.cls-33,.cls-36,.cls-43,.cls-6{stroke-miterlimit:10;}.cls-6{stroke-width:0.6px;}.cls-41,.cls-7{fill:#010101;}.cls-8{fill:#13110f;}.cls-9{fill:#ce8d2a;}.cls-10{stroke-width:0.59px;}.cls-11{stroke-width:0.62px;}.cls-12{stroke-width:1.44px;}.cls-13{stroke-width:1.51px;}.cls-14{fill:#653c29;}.cls-15{fill:#26120d;}.cls-16{fill:#f1eef7;}.cls-17{fill:#a7a7a8;stroke-width:2.32px;}.cls-17,.cls-18{stroke:#939393;}.cls-18{fill:#dba829;stroke-width:1.76px;}.cls-19{stroke:#131429;stroke-width:0.9px;}.cls-20{fill:#513835;}.cls-21{fill:#c95744;}.cls-22{fill:#b15e27;}.cls-23{fill:#df8c26;}.cls-24{fill:#c86b28;}.cls-25{fill:#5a190c;}.cls-26{fill:#ad7b98;}.cls-27{fill:#565656;}.cls-28{fill:#a38166;}.cls-29,.cls-31{fill:#cfcfcf;}.cls-29{mix-blend-mode:multiply;opacity:0.27;}.cls-30{fill:#4b2a15;}.cls-32{fill:#282b2b;}.cls-33,.cls-36{stroke:#282b2b;}.cls-33{stroke-width:6.88px;}.cls-34{fill:#f47920;}.cls-35{fill:#ad3624;}.cls-36{stroke-width:6.56px;}.cls-37{fill:#61686c;}.cls-38{fill:#777;}.cls-39{fill:#383838;}.cls-40{fill:#a09f9f;}.cls-41{opacity:0.4;}.cls-42{fill:#273339;}.cls-43{stroke:#4f2e25;stroke-width:0.41px;}.cls-44{fill:#681941;}.cls-45{clip-path:url(#clip-path);}.cls-46{fill:#488c41;}.cls-47{fill:#2c5f2f;}</style><clipPath id="clip-path"><ellipse class="cls-1" cx="213.3" cy="835.42" rx="94.57" ry="15.74"/></clipPath></defs><g class="cls-2"><g id="Layer_10" data-name="Layer 10"><polyline class="cls-3" points="-122.78 1190.79 -122.78 -52.07 1384.52 -52.07 1384.52 1190.79"/><path class="cls-4" d="M502.83,602.1l18.92-11.29s17.86,8.69,29.18,7.39a85.09,85.09,0,0,0,23.33-7.09l25.82-2.49s12,5.3,13.73,1.75-2.31-6.69-6.23-9.73-68.33-25.45-68.33-25.45a115,115,0,0,1,18.88-7.7c10.06-3,11.3-7.14,7.92-12.08s-16.8,1.82-21.87,4.19c-5.46,2.55-18.26,0-27.91,4.45s-14.81,18.07-14.81,18.07c-3.55,2.27-13.06,7.34-13.06,7.34C488.29,570.32,502.83,602.1,502.83,602.1Z"/><path class="cls-5" d="M586.16,584.67a7.06,7.06,0,0,0-2.51-4c-3.18-2.6-8.6-3.94-14.31-3.75a44.71,44.71,0,0,0-14,3.08,20.06,20.06,0,0,0-5.31,2.46,24.22,24.22,0,0,0,5.67-1.38,58.36,58.36,0,0,1,13.73-2.6c5.42-.2,10.59,1,13.5,3.07a7.22,7.22,0,0,1,2.58,3.25c.36.93.42,1.46.48,1.53S586.33,585.78,586.16,584.67Z"/><path class="cls-5" d="M556.68,572.65c-5.26-1.61-9.61-2.58-9.69-2.17s4.08,2,9.33,3.64,9.58,2.57,9.68,2.15S561.94,574.25,556.68,572.65Z"/><path class="cls-5" d="M541.23,570.57c2.4,4.55,2.45,8.62,2.84,8.77s1.09-4.38-1.48-9.4-6.83-7.25-6.94-6.86C535.38,563.44,538.82,566,541.23,570.57Z"/><path class="cls-4" d="M295.61,380.5c-.91,20.31-1.84,44.16-2.07,64.48a3.52,3.52,0,0,0,.42,2.1,3.84,3.84,0,0,0,1.13.94c1.52,1,6.82,2.36,8.34,3.33-.39,4.21,14.57,7.15,11.84,10.51-5.4,6.66-15.53,45.37-24,46.76-22.23,3.65-66-42.56-82.21-55.29-2-1.52-12.58-7.1-12.27-9.4s7.56-6,9.09-8.26c10.23-15-2.19-58.74-2.19-58.74"/><path class="cls-5" d="M234,415.67s9.54,18.84,46,21.84c0,0,7.44.36,13.27-2.27l-.09-7.36Z"/><path class="cls-6" d="M328.4,364.81C316.51,358,313,343.94,313.09,331.1c.11-12.29-10.93-30,4.05-30.9.28,0-6.38-9.89-1.89-9.42-3.36-6.46,6.56-6.78,7.2-14.49.12-1.55,1-15.24-8.78-15.2-39.53-45-85.12-30.16-110.9-24-50.58,12-76.17,26.51-55.69,106.43,13.75,53.65,67.32,54.45,118.87,47.71,22-2.88,48.36-4.65,62.94-26.11Z"/><path class="cls-6" d="M202,189.91c-1.78-2.73-16.68-12-24.92-10.29-5.88,1.26-12.5,4.59-21.57,14.53-9.71-1.72-21.52-2.36-26.63,3.11a31.86,31.86,0,0,0-5.13,7.87h0l-.06.17a68.62,68.62,0,0,0-3.39,8.62c-5.6,9.58-17.1,30-18.69,38.65-.79,4.32,6.24,12.65,15.37,21.38a16.63,16.63,0,0,0-3.46,8.41c-.89,8.05,9.59,24.16,29.47,13.95,6.09,4.84,10.36,8,10.36,8l5.49-5.66s-.6-1.06-1.63-2.91L163.9,289l-5.59-4a43,43,0,0,1,5-5.17c6.48-6.95,13.28-16.47,19.47-23.69,2.86-3.33,11.2-5.84,14.22-9a15.75,15.75,0,0,0-5.57-1.75l2.44-2.57a69.73,69.73,0,0,1,6.65,2.16c2.66-2.77,10-5.87,12.6-8.68.61.79,1.22,1.59,1.8,2.42,2.38-2.58,7.73-5.75,10.1-8.34-2.06-13.3-9-24.12-22.1-28.8C203,196.52,202.88,191.24,202,189.91Zm-79.57,93.93a18.8,18.8,0,0,1-1.7-6.33c3.83,3.5,7.86,7,11.74,10.25C128.58,288.14,124.21,287.6,122.44,283.84Zm71.19-93.2c.15,2.27-1.2,5.89-2.38,8.58l-1-.07a151.79,151.79,0,0,0-15.84-.68c2.18-4.29,4.38-8.44,5.12-9.14C183.36,185.7,193.37,186.67,193.63,190.64Z"/><path class="cls-4" d="M286.19,261.17l.43.21a4.58,4.58,0,0,1-.47-.53Zm15,1c.23.17.5.33.77.49l0-.26S301.11,261.81,301.16,262.13Zm-73.29,150c15.55,12.05,40.28,18.45,56.18,18.52,7.79,0,14.71,1.24,21.71-5.3C323.32,409,339.41,381,333.23,356.49c-1.14-4.52-5-12.73-5.25-17.19-.32-5.15-3.63-29.71-10.31-44.6-8.14-18.14-15.06-26.76-15.06-26.76-1.11-3.1,7.08-2.71,5-5l-1.39.18a1.39,1.39,0,0,1,.86,1.18,11,11,0,0,1-5.16-1.65v.06c-2,1.23-4.17.54-6.12-.82,0,.31.47.91.82.86a7.05,7.05,0,0,1-5.81-1.18c0,.31.48.91.52,1.23a13,13,0,0,1-4.73-1.39c.37.38,8.05-1.87,8.08-1.65-2,.59.43,1-1.51-.39l-1.88-1c-1.7.55-1.49,1.58-3.05.49.39.27-1.42-3.39-1.38-3.07-2.08.28-1.53.06-3.39-.67,0,.32-5.41,2.82-5.37,3.14-1.74.22-1.07,1.76-2.63.66.39.28,1.08-1.5,1.47-1.22-2,.59-2.65,2-4.59.66.39.28-7.33-2.59-7.33-2.59-2,.59-1.61,1.2-3.51.15.78.55-9.69.66-9.26,1.26-1.74.23,4.15,5.93,2.63,5.15,0,.32-4.12-.43-4.12-.43-1.7.55,1.12,1.8-.44.71,0,.32.52,1.23.87,1.18-2,1.23-4.48.91-6.73-.09.78.55,1.21,1.14,1.6,1.41-1.74.23-3.08.73-5-.32,0,.32.86,1.19,1.21,1.14a7,7,0,0,1-5.64.09c0,.32.82.87,1.21,1.14a5,5,0,0,1-4.25-.09l1.21,1.14c-1.39.18-2.35.95-4.52.59,0,.31.78.54.82.86a12.86,12.86,0,0,1-3.51.14c0,.32,1.16.82.81.86-1.39.18-2.34,1-4.16.55.38.27.82.86,1.21,1.14-1.39.18-2.74.68-4.21.22a2.38,2.38,0,0,0,.86,1.19c-1.39.18-2.35,1-4.17.54,0,.32.82.87,1.21,1.14A18.93,18.93,0,0,1,215,276c0,.32.78.55,1.17.82-1.39.18-2.74.68-4.56.27.08.64.47.91.51,1.23-1,.14-1.77-.09-2.82.05l-1.65.86c-4,7-15.2,21.44-15.2,21.44-9.64,10-7.9,25-6.76,31S197.5,361,197.5,361c-2-2-4.23-6.94-5.61-9.36-1.33-2.09-3.25-4.4-4.59-6.49-3.79-4.7-10.53-2.19-13.93,1.5l-.5,1.13c-4.37,7.9-.42,25.64,11.11,36.29,3,13.39,17.38,18,19.31,7.63L210.41,403"/><path class="cls-7" d="M299.57,371.9a9.08,9.08,0,0,1-8,.64c-.55-.23-2.19.29-1.42.62a12.82,12.82,0,0,0,10.92-1c.27-.19.18-.4-.19-.46a2,2,0,0,0-1.28.24"/><path class="cls-7" d="M289.05,372.67a14.63,14.63,0,0,0-5.08-.49,1.19,1.19,0,0,0-.72.34c-.12.14-.13.31.07.39a5.67,5.67,0,0,0,2.78.22,1.06,1.06,0,0,0,.79-.44c.12-.24-.18-.34-.4-.31a4.39,4.39,0,0,1-2.25-.18l-.65.73a13,13,0,0,1,4.54.45,1.08,1.08,0,0,0,.88-.22c.17-.13.33-.4,0-.49"/><path class="cls-7" d="M282.34,373.83c-2,.23-4.44-.28-5.62-1.58-1.78-2-.91-5.83,1.38-7.57.25-.19.08-.36-.21-.38a1.73,1.73,0,0,0-1,.36,7,7,0,0,0-2.37,6.76c.57,1.87,2.66,2.93,5.11,3.15a11.19,11.19,0,0,0,2.24,0c.3,0,.83-.2.95-.44s-.17-.32-.46-.28"/><path class="cls-7" d="M303.08,370.41a.25.25,0,0,1,.19-.4,2.42,2.42,0,0,0,1.48-.7l.61.54a7.16,7.16,0,0,0-3,1.52.59.59,0,0,1-.65,0c-.14-.09-.31-.31-.14-.46"/><path class="cls-7" d="M301.61,370.9a8,8,0,0,1,3.31-1.67.64.64,0,0,1,.57.15.26.26,0,0,1,0,.39"/><path class="cls-7" d="M307.24,370.09a4.1,4.1,0,0,0,3.11-2.81,5.55,5.55,0,0,0-2.4-5.94.23.23,0,0,1,0-.42.76.76,0,0,1,.72.12,6.22,6.22,0,0,1,2.83,4.93,4.49,4.49,0,0,1-2.45,4.21,4.92,4.92,0,0,1-1.39.5c-.19,0-.56,0-.68-.22s0-.34.22-.37"/><path d="M194.58,367.74a73.53,73.53,0,0,0-8.33-11,24.13,24.13,0,0,0-5.51-4.56,7,7,0,0,0-2.91-1,1.93,1.93,0,0,0-.48,0c-.72.11-.9.76-1.13,1.37-1.54,4-.77,8.55.75,12.42.16.4,1.34,0,1.19-.32a18.9,18.9,0,0,1-1.41-9.7,9.32,9.32,0,0,1,1.07-3.45l-.64.31h0c.18.05.1,0,.38.05a7.11,7.11,0,0,1,1.86.7c3,1.57,5.44,4.21,7.59,6.76a84.94,84.94,0,0,1,6.44,8.87c.2.32,1.36-.06,1.1-.46Z"/><path class="cls-8" d="M324.09,308.63c-8.61-1.2-13.88-.36-27.52,3.87l0,.32c.11,1.85,0,.82.16,2.67l.27,4.23c4.45-1.45,7.61-2.93,10.5-3.61,5.48-1.28,11.65-3.4,17.34-3.11C324.57,311.55,324.31,310.1,324.09,308.63Z"/><path class="cls-8" d="M270.79,317.06c.22,1.83.09.81.31,2.65.17,1.41.33,2.81.49,4.21-4.92-.59-8.5-1.46-11.65-1.58-6.25-.24-13.47-1.26-19.56.39-2.91.8-7.08,2-8.9,4.78-.49.75-1.26,3.29-2.49,2.94-.5-.15,0-2.5.06-2.75,1-4.75,5-7.16,10-8.88,3.85-1.33,21.76-3.15,31.74-2.08"/><path class="cls-9" d="M192.82,390.5a7.49,7.49,0,0,0,4.73,13.27,9.88,9.88,0,0,0,3.07-.71,8.23,8.23,0,0,0,4.8-5c.14-.4-.54-.49-.77-.47a1.1,1.1,0,0,0-1,.65,6.41,6.41,0,0,1-3.47,3.78,7,7,0,0,1-1.63.51c-.16,0,.2,0,0,0l-.14,0-.26,0-.36,0s-.1,0,0,0a3.72,3.72,0,0,1-.57-.08,6,6,0,0,1-1.39-.41,6.24,6.24,0,0,1-2.12-1.46,6.77,6.77,0,0,1-1.86-4.46,7,7,0,0,1,2.38-5.34c.29-.27.14-.61-.2-.72a1.33,1.33,0,0,0-1.22.33Z"/><path d="M194.16,367.89c-1.91.27-4.44,1-3.68,3.43.67,2.14,2.31,3.85,2.93,6a3.58,3.58,0,0,1-.36,3.09c-.34.5-.4.52-1,.36a5.11,5.11,0,0,1-1.67-.9,12.68,12.68,0,0,1-3.35-4.1,16.83,16.83,0,0,1-1.23-2.9,6.1,6.1,0,0,0-.42-1.13c-1.34-2.39-2.89-6.58.09-8.39.49-.3-.69-.18-.92,0-2.86,1.73-2,5.26-.84,7.81.18.39.41.75.59,1.14.3.61.42,1.31.67,2a15.17,15.17,0,0,0,3.16,5c1.45,1.5,4.39,3.32,6,1,1.48-2.08-.06-4.66-1.14-6.54a9.73,9.73,0,0,1-1.51-3.31c-.22-1.52,1.17-1.91,2.41-2.08.49-.07,1.06-.57.22-.46Z"/><path class="cls-8" d="M297.83,335.61s9.53-9.61,14.5-10.77c7.26-1.68,12.2,2.36,15.27,5.62,0,0-8.8-5-13.88-3.64C308.86,328.09,297.83,335.61,297.83,335.61Z"/><path class="cls-8" d="M257.24,335.56a5.28,5.28,0,0,0-5.51,1.76,5.1,5.1,0,0,0-1.21,2.56,5.26,5.26,0,0,0,1.85,4.58,4.87,4.87,0,0,0,5.67.24,5.38,5.38,0,0,0,1.82-6.56,4.81,4.81,0,0,0-2.62-2.58"/><path class="cls-8" d="M268.88,340.28s-11.52-6.25-17-6.07c-9.82.33-18.12,7-20.43,11,0,0,13-9.09,18.64-9.15C255.48,336,268.88,340.28,268.88,340.28Z"/><path class="cls-10" d="M303.21,266.27c2.49,8.59,13.44-.38,6.64-1.67.25-4.35-6-5.31-6.38-9.66a6.68,6.68,0,0,0-.34.73s-.84-5.17-2.74-6.21-10.23-4-10.23-4l-2.13,2.1c0-.14.65-2-.7-2.82s-15.48-6.07-23.86-4.44a7,7,0,0,0-.82.19l-3.27,2.28-.12.08.12-.09c.58-.45,1.79-1.53,1-2.18a3.15,3.15,0,0,0-1.66-.5,31.07,31.07,0,0,0-5.18.17v0l-.57.09-.57.06v0a30.82,30.82,0,0,0-5.05,1.17,3,3,0,0,0-1.47.91c-.59.83.86,1.56,1.53,1.84l.14.06-.13-.05L243.67,243c-.27,0-.56,0-.84,0-8.52.58-20.83,9.23-21.92,10.43s0,2.78.06,2.91l-2.6-1.48s-9.61,5.27-11.19,6.75-2,4.58-2,4.58-2.94,1.53-4.1,1.32-6.51,3.53-8.43,7.24c-1.24,2.39-.42,4.38-.92,6.4h0c-.29,1.13-.44,1.88-.44,1.88l-5.68,2.76c-4.47,2.92-2,12.58-2,12.58-7.86,12.72-7.05,22.57-1.47,32.57,2.15,3.86-8.91,9.47-1.49,8.34S197.5,361,197.5,361s5.19-10,4.94-14.35-4-16.7-4-16.7l3.56-1s2.1-1.19,4.13-6.38-4-13.17-4-13.17l-2.1-5,7.15-.44c6.69-2.07,6.1-9.54,6.1-9.54l-2.8-12.19,4.66,3.61a5.11,5.11,0,0,0,4.18,1.26c10.51-2.2,10.9-9,10.9-9l.61-6.41,2.92,1.44c3.15,2,12.33,4.43,16.51,1.94,1.1-.65,5.51-5.08,6.23-5.7,2.58-2.45,2.48-6.46,2.34-7.93-.47-.35-.93-.8-1.38-1.18-1.73-1.45-2.37-.67-.63.79,3,2.5,7.92,5.92,11.85,5.58s11.69-3,12.46-4.83c.53-1.26-.69-1.25.7-1.37a4.54,4.54,0,0,1,3.23,1.4c2.08,1.84,3.68,4.71,6.38,5.67,3.92,1.39,5.88-.92,9.47-2.19A1.75,1.75,0,0,1,303.21,266.27Z"/><path class="cls-11" d="M311.12,258.28s1.5-8.31-3.73-12.3S282,225.87,251.54,229.81Z"/><path class="cls-12" d="M146.22,298.88s-21.75,16.46-34.35-1.13,13.43-27.81,13.43-27.81"/><path class="cls-13" d="M129.6,204.57s9.74-21.89,26.92-20.58,10.14,30.18,10.14,30.18"/><path class="cls-8" d="M316.54,326.28c1.86-1.3,4.32-.71,5.78.28a5.07,5.07,0,0,1,1.82,2.16,5.22,5.22,0,0,1-.61,4.9,4.87,4.87,0,0,1-5.42,1.69,5.38,5.38,0,0,1-3.44-5.86,4.79,4.79,0,0,1,1.87-3.17"/><path class="cls-14" d="M293.7,385.69c-10.19,1.28-26.85,2.13-26.85,2.13s5.69,23,29.3,20,22.58-26.31,22.58-26.31S303.88,384.4,293.7,385.69Z"/><path class="cls-15" d="M293.8,385.67c-4.84.62-21.05,2.89-21.05,2.89s5.64,13.29,23.15,11.07c19-2.4,19-16.86,19-16.86Z"/><path class="cls-16" d="M294.11,386.4c-4.85.61-19.69,1.63-19.69,1.63s6,4.84,20.53,3,18.46-7.77,18.46-7.77Z"/><path class="cls-14" d="M318.77,380.25a24.93,24.93,0,0,1-3.32.48c-4.06.15-6.7-.63-9.64-.49-5,.23-7.89,2.66-10.05,2.93s-5.56-1.36-10.47-.34c-2.87.6-9.92,2.61-13.89,3.47-2.37.52-5.32-.09-5.81.1-.7.27,1.38,5.56,28.48,2.13S319.51,380.34,318.77,380.25Z"/><path class="cls-4" d="M592,735a12.3,12.3,0,0,1,2.41-3.2l-3-2.34a49.49,49.49,0,0,1-8.7,6.66,3.25,3.25,0,0,0,.23-2.39c-2.3-8.44-8-14-14.94-18.9l-.09-.05c7.29-3.55,15.64-6.95,15.64-6.95s-22.57,6.32-27,7.7,4.11-9.58,4.22-15.84c.19-9.71,9.78-.24,16-3.41s22.68-11.8,22.68-11.8c-19.19,1-16.62-11.92-3.25-13.82s43.31-.36,49.61,5.39l9.57-2.56s3.29,5.19,7.09,18.92c3.61,13,3.45,19,3.45,19l-16.83,3.72c-12.39,20.19-27.71,16.46-34.6,19.85-8.6,4.23-7.93,6.19-14.9,8.57C594,745.49,588.86,739.93,592,735Z"/><path class="cls-17" d="M577.49,669.57c-2-3.64-.66-5.88-2.62-7.5l-18.59-15.35c-2.51-2.08-4.35-3.41-6.26-3.33s-14.67,2.41-18.07,2.73-3.86.67-5.17-.41l-4-3.34s-4.21,4.65-8.09,9.13l0,0c-.15.19-.31.38-.46.58l-.48.56,0,0c-3.67,4.65-7.43,9.67-7.43,9.67l4.05,3.34c1.31,1.08,1.06,1.61,1.38,5s.46,16.37.74,18.26,1.94,3.44,4.45,5.52l18.58,15.34c2,1.63,3.92-.07,7.87,1.16s8.41,1.62,10.89,3.29,4.11,3,5.51,6,5.41,12.38,7.87,15,12.88,10.45,14.41,11.72c.49.4,1.36-.53,2.34.28s.3,1.53.59,1.95,14.43,11.92,15.36,12.69,2.15-.71,3.09.16.15,2.15,1.35,3.14,13,11.2,13.61,11.69,1.18-.31,2-.14,1.12.64,1.56,2.11.49,1.42,1.75,2.45,6.75,5.4,8,5.69,2.39.22,3.46.92,7.07-4.55,9.44-8.2A85.61,85.61,0,0,0,655,769.34h0c.16-.19.31-.38.46-.58l.48-.56h0A86,86,0,0,0,664.14,756c3.14-3,7.16-9.9,6.27-10.82s-1-2.06-1.57-3.23-5.83-5.73-7.09-6.77-1.21-1.09-2.74-1.25-2-.31-2.37-1.13.36-1.55-.24-2-12.86-10.16-14.06-11.15-2.31,0-3.34-.74.19-2.23-.74-3-14.89-12.47-15.36-12.68-1,.6-2-.21-.22-1.84-.71-2.25c-1.53-1.26-11.23-10-14.23-11.93s-13-4.1-16.18-4.9-4.84-2.16-7-4.27S579.45,673.21,577.49,669.57Z"/><path class="cls-18" d="M607.29,703.76a6,6,0,0,0,1.53-2.16,14,14,0,0,1,2.81,1.2c2.28,1.46,9.63,8.09,10.79,9.05.37.31-.2,1.09.54,1.71s1.19,0,1.55.15,10.94,9,11.64,9.62-.22,1.7.56,2.28,1.63-.2,2.54.56,10.2,8.07,10.66,8.45-.06.92.19,1.55.64.74,1.8.86,1.12.16,2.07.94,5,4.26,5.38,5.14a7.35,7.35,0,0,0,1.19,2.45c.68.7-2.38,5.91-4.76,8.2a64.24,64.24,0,0,1-6.19,9.25h0l-.36.42-.35.44h0A65.23,65.23,0,0,1,641,771.7c-1.8,2.77-6.34,6.75-7.16,6.22a7.22,7.22,0,0,0-2.62-.7c-.94-.22-5.11-3.53-6.06-4.31s-1-.75-1.33-1.86-.52-1.48-1.18-1.61-1.1.49-1.56.11-9.4-8.11-10.31-8.86-.32-1.73-1-2.39-1.64.46-2.34-.12-11.43-9.29-11.65-9.62.3-.86-.45-1.48-1.4.1-1.78-.21c-1.16-1-9.06-6.93-10.92-8.89a10.44,10.44,0,0,1-1.13-1.55C592,728.32,597.42,712.74,607.29,703.76Z"/><path class="cls-4" d="M555,725.13c4-2.16,14.34-7.61,17.65-5.48,3,1.93,2.71,7.27-4.07,12.61,0,0,12-3.62,14.72,1,2.19,3.74-2,6.94-3.48,7.71-1.74.89-8,3.93-8,3.93Z"/><path class="cls-4" d="M645.77,676c-6.3-5.75-36.23-7.29-49.61-5.39s-20.57,22.56-21,25.69,3.32,12.6,20.48-9.72l4,.7s11.94,9.83,20.71,12.66a76.47,76.47,0,0,0,16.07,3.41l16-28.32"/><path class="cls-4" d="M555.55,724.53c11.57-5,11.4-18.43-7.14-12.2C537,716.18,543.84,729.64,555.55,724.53Z"/><path class="cls-4" d="M576.3,743.55c-3.82,3.85-.47,10,5,9.46,6.84-.62,15.15-7.29,12.06-11.64C593.36,741.37,586.52,733.25,576.3,743.55Z"/><rect class="cls-17" x="496.89" y="645.59" width="30.57" height="9.28" transform="translate(1339.78 664.09) rotate(129.19)"/><path class="cls-4" d="M1050,254.75s-4.16,46.75,9.7,77.72c1.93,4.31,39.58,18,39.59,18-1-.37-6,3-6.88,3.5-17.77,9-35.16,19.48-54.58,24.61a134.62,134.62,0,0,1-63.13,1.42c-14.58-3.21-25.56-10.68-38.12-18.16,0,0,28.27-11,29.13-16.5s-5.61-46.52-5.61-46.52"/><line class="cls-19" x1="1059.45" y1="183.86" x2="1041.82" y2="203.76"/><path class="cls-20" d="M841.85,519.09a.92.92,0,0,1-.24.13l-.15-.67Z"/><path class="cls-21" d="M898,376.7c-12,6.6-23.4,10.22-31.82,30.35l-26.51,90.31c.17.22-40.48,110.74-40.57,111,0,0,7.46-4.11,13.84,19.43,4.28,15.8,34.9,37.11,34.73,53.87,43.44-4.61,76.24-92,83.84-113.3l-10.89-26c1.13-19.36,1.47-38.77,1.18-58.16-.63-41.2,12.63-73.53,9.11-114.57Z"/><path class="cls-21" d="M801.9,599.77l-155.2,66.6s21.2,32,10.61,59.39c0,0,218.41-16.38,235.59-84Z"/><path class="cls-4" d="M1061.6,712.32s-8.68,210.84-22.76,427.89c-11.65,178.55,22.43,408,22.43,408l44.75,6.51s43.07-254.31,67.81-414.89c22.76-148.09,20.68-233.75,20.68-233.75l7.68-214.67Z"/><g id="freepik--character-2--inject-2"><path class="cls-21" d="M909.55,673.17c1.21,19.3-3.2,37.43-6.72,56.11-2.15,11.38-2.88,23.47-4.9,34.82,22.13,11.79,40.57,27.16,64.22,36.07,33,12.42,68.71,16,103.71,16.84,32.83.8,66.4,1.4,97.8-9.52a183.82,183.82,0,0,0,38-18.66c-21.84-74.41-47.38-125-47.38-125l-7.18-14.15,19.16-278.26-67-20.91-30.89-12.58L1065.2,352c-10.77,15.46-25.14,24.88-44.6,26.66a133.1,133.1,0,0,1-17.86.41c-17.14-.76-41.87-9.43-41.53-29.12,0-.58-32.21,14.07-34.71,14.59-13.34,2.81-37.53,13.27-40.41,18.56,0,0,.36,138.81,1.71,159C888.74,556.18,904.27,588.9,909.55,673.17Z"/><path class="cls-21" d="M1224.48,892.49c-8-64.38-28.08-121.52-43.37-162.43-32,11.33-64,22.19-98.1,25.26-60.89,5.49-121.48-9.2-182.33-11.8-4.25,22.72-4.62,32.8-7.9,55.65.75,1.78-2,55.8-2,58.12l4,324.2c0,40.4,1.23,113.65,5.15,153.9,2.82,28.89.42,42.65,2.79,71.56,22.41,14.29,58.31,30.51,78.07,31.42,112.08,5.15,202.06-33.33,202.06-33.33S1226.28,907,1224.48,892.49Z"/></g><path class="cls-5" d="M964.94,334.63s9.53-4.35,16-6.6,17.79-2.52,46.63-30.68c0,0-7,32.94-45.39,42.17,0,0-9.9,2.69-16.59,1.48Z"/><path class="cls-4" d="M919.23,138.61a4.28,4.28,0,0,1-.34.72l.39-.36Zm-16.72,6.56,0,.3c.24-.26.48-.52.69-.78C903.19,144.33,902.51,145.17,902.51,145.17Zm146.75,116.75,1.24-6.31c9.23,10,21.56-.08,20.6-15.62,3.35-8.2,6.16-34.55-1.08-41.82l-.9-1.08c-4.86-3-13-3.59-15.68,2.71-.8,2.71.47,5.84-.34,8.54-.74,3.07-4.26,9.13-5.85,11.95,0,0-4.18-14.51-4.81-21.43s-8.32-26.08-22-34c0,0-3.21-24.25-9.8-30.65l-2.07-.43c-1.18.18-1.91.65-3.09.83-.06-.36.28-.78.17-1.5-1.86,1-3.48.89-5.06,1.12.34-.42,1.08-.9,1-1.26-1.52.6-3.15.47-4.72.71.34-.42,1-1.26,1-1.62-1.86,1-3.14.47-4.72.7a2.64,2.64,0,0,0,.57-1.56c-1.46,1-3.09.83-4.66,1.07.34-.43.62-1.21,1-1.63-1.86,1-3.14.47-4.72.71-.39.06.68-.84.63-1.2a14.75,14.75,0,0,1-3.89,1c0-.36.69-.84.63-1.2-2.25,1.07-3.54.52-5.11.76l1-1.62a5.62,5.62,0,0,1-4.61,1.42c.34-.41,1-1.26,1-1.61a7.92,7.92,0,0,1-6.18,1.66c.39-.06,1-1.26,1-1.63-1.75,1.74-3.38,1.62-5.35,1.91.34-.42.63-1.2,1.31-2-2.14,1.8-4.79,2.93-7.32,2.2.4-.06.63-1.2.58-1.56-1.36,1.67,1.32-.57-.7-.64,0,0-4.31,2.12-4.36,1.76-1.42,1.32,3.23-6.75,1.27-6.45.28-.78-11.19,2.35-10.51,1.51-1.75,1.74-1.46.94-3.88.93,0,0-7.53,5.54-7.19,5.12-1.7,2.1-2.81.72-5.22.71.33-.42,1.64,1.3,2,.88-1.36,1.68-1.11-.2-3.07.09-.06-.36-6.79-1.39-6.84-1.75-1.81,1.38-1.14,1.44-3.5,1.79-.06-.36-.89,4.2-.55,3.78-1.36,1.68-1.46.48-3.48.41l-1.75,1.64c-1.7,2.1.88.91-1.53.9,0-.25,9.05-.2,9.34-.73a14.43,14.43,0,0,1-4.74,3c0-.36.24-1.14.19-1.5a8,8,0,0,1-6,3.11c.4-.06.68-.84.63-1.2-1.7,2.09-3.9,3.53-6.42,2.8v-.06a12.45,12.45,0,0,1-5.12,3.41,1.56,1.56,0,0,1,.57-1.56l-1.57.23c-1.54,3.18-3.13,6-3.38,9.73,0,0-10.68,22.74-8.29,36.05s8.21,35.72,9.46,41.44a116.26,116.26,0,0,1,2,18.19c.38,11.86.78,14.94,5.42,26.2,4.48,10.89,8.2,16.53,16.09,25.31,8.23,9.16,19.13,16.56,29.51,23.87,6.83,4.81,15.92,8.17,24.72,7.28,24.55-2.48,46.27-22.61,59.5-40.62"/><path class="cls-22" d="M892.32,171.61c6.4-22.46,29.12-37.76,78-51.23s90.43-1.07,90.43-1.07C1027,51.5,955,64.61,938.93,67S849,144.6,885,199.61l2.17,5.38S891.15,175.69,892.32,171.61Z"/><path class="cls-22" d="M1071.3,102.6s-.69-45.53-35.51-55.66C989.27,33.41,928.57,33.42,914.11,82.46Z"/><path class="cls-23" d="M1083,211.58c3.07-4.17.56-14.35,3-18.89,13-23.78,4.73-43.94-3.31-55.45-3.5-5-1.12-15.07-2.08-19.78-5.06-24.67-8-25-48.81-45-33.2-16.29-65.69-10.5-84.43-6.68-30,6.12-43.06,10-50.44,33-1,3,.86,5,.21,8.59-.93,5-8.32,6.63-8.67,12.86,0,0,41.14,9.83,77.11,22.86s105.47,73.87,106.16,95.1C1071.76,238.83,1079.56,216.2,1083,211.58Z"/><path class="cls-22" d="M1052.21,123c-18.62-8.89-50.76-19.72-89.82-14.29,0,0,78.33-22.32,122.35,30.06l1.18,2.17a55.46,55.46,0,0,1,6.15,18.43l-13.46-15.87A79.88,79.88,0,0,0,1052.21,123Z"/><path class="cls-22" d="M896.4,108.29l4-2.21A109.66,109.66,0,0,1,930,94.9l17.38-3.82s-43.5-1.11-51.33,11Z"/><path class="cls-24" d="M1056.59,250.83a7.62,7.62,0,0,1,7.8,6,7.47,7.47,0,0,1-.85,5.15,5.53,5.53,0,0,1-2.29,2.23,6.85,6.85,0,0,1-6.49.1c-.44-.21-2,.46-1.35.76a9.29,9.29,0,0,0,7.38.23,9.18,9.18,0,0,0,3.33-2,8,8,0,0,0-.24-10.94,8.81,8.81,0,0,0-6.61-2.42c-.33,0-.94.11-1.11.44s.14.43.43.42Z"/><path class="cls-8" d="M1037.11,192.32l7.33,34.82,10-17.35S1042.1,197.26,1037.11,192.32Z"/><path class="cls-5" d="M1053.19,225.49c1.14-.16,2.87-.42,3.22,1a8.1,8.1,0,0,1-.47,3.64c-.62,2.52-1.61,5.92.72,7.89,2.95,2.49,5.94-2,6.9-4.36a16.2,16.2,0,0,0,.88-9.86c-.76-3.37-2.29-7.87-6-8.89-.72-.19-2,.85-1,1.12,3.12.86,4.42,4.67,5.14,7.47a15.26,15.26,0,0,1-.2,8.8c-.55,1.71-1.44,3.81-3,4.88-1,.69-1.85-.28-2.24-1.23-1-2.4.43-5.32.85-7.7a3.89,3.89,0,0,0-.43-3.2c-1-1.16-2.92-1-4.26-.81-.92.13-1.29,1.37-.15,1.22Z"/><path class="cls-22" d="M1056.09,173.15s25.57,19.6,28.61,28.41l1.3-8.87A46.56,46.56,0,0,0,1056.09,173.15Z"/><path class="cls-7" d="M944.31,267.9c3.12,1.08,7.49.07,10.14-2.17.59-.5,2.81-.43,2,.26-3.51,3-9.83,4.13-13.86,2.73-.4-.14-.37-.43.07-.65a2.48,2.48,0,0,1,1.66-.17"/><path class="cls-7" d="M957.57,265a18.28,18.28,0,0,1,6.08-2.51,1.5,1.5,0,0,1,1,.16c.21.14.28.35.06.52a7,7,0,0,1-3.35,1.31,1.32,1.32,0,0,1-1.13-.26c-.24-.26.09-.5.38-.54a5.52,5.52,0,0,0,2.7-1.07l1.07.68a16.48,16.48,0,0,0-5.43,2.27,1.37,1.37,0,0,1-1.17,0c-.25-.1-.55-.38-.23-.6"/><path class="cls-7" d="M966.27,264c2.55-.45,5.38-2,6.35-4.1,1.47-3.16-1-7.47-4.44-8.84-.38-.15-.23-.43.11-.56a2,2,0,0,1,1.4.08c3,1.19,5.38,4.67,5.36,7.44,0,2.59-2.19,4.72-5.13,5.91a14.46,14.46,0,0,1-2.77.81c-.39.06-1.1.05-1.34-.22s.1-.46.46-.52"/><path class="cls-7" d="M939.44,267.31a.33.33,0,0,0-.39-.43,3.07,3.07,0,0,1-2.08-.35c-.19.3-.37.61-.55.92a9,9,0,0,1,4.2.82.72.72,0,0,0,.8-.25c.15-.16.28-.5,0-.63"/><path class="cls-7" d="M941.43,267.39a10.15,10.15,0,0,0-4.71-.9.84.84,0,0,0-.64.4.36.36,0,0,0,.09.52"/><path class="cls-7" d="M934.19,268.44A5.27,5.27,0,0,1,929.3,266a7.52,7.52,0,0,1,.77-8.45.3.3,0,0,0-.2-.52,1,1,0,0,0-.84.41,8.43,8.43,0,0,0-1.68,7.33,6,6,0,0,0,4.58,4.46,6.42,6.42,0,0,0,1.9.11c.25,0,.69-.21.77-.53s-.17-.42-.41-.4"/><path class="cls-8" d="M911.92,221.62c-2.36-.81-5,.54-6.28,2a6.3,6.3,0,0,0-1,2.85,5.74,5.74,0,0,0,2.12,5,5.33,5.33,0,0,0,6.22.16,5.91,5.91,0,0,0,1.86-7.22,5.27,5.27,0,0,0-2.92-2.78"/><path class="cls-8" d="M932.5,226s-11.88-6.78-17.39-6.51c-8.05.4-17.17,6.25-19.39,10.61,0,0,11.95-8.51,17.63-8.62C918.78,221.36,932.5,226,932.5,226Z"/><path class="cls-8" d="M979.6,211.91c2-1.46,5.57-1.67,7.19-.62a5.64,5.64,0,0,1,2.05,2.34,5.75,5.75,0,0,1-.57,5.37,5.35,5.35,0,0,1-5.91,2,5.91,5.91,0,0,1-3.89-6.36c.06-.45-.49-1.21,1.13-2.39"/><path class="cls-8" d="M966.68,219.81s10.86-9.43,16.74-10.48c8.58-1.54,19.62,2,23,5.68,0,0-14.68-5.41-20.69-4.17C980,212,966.68,219.81,966.68,219.81Z"/><path class="cls-8" d="M928.63,198.59c.13,1.62.25,3.24.37,4.87l.27,3.72c-4.22-.72-7.82-1.12-10.53-1.35-5.74-.5-8.67-.73-11.91.08a31.45,31.45,0,0,0-7.33,3,20,20,0,0,0-3.79,2.41c-2.63,2.24-3.58,4.6-4.06,4.43s.1-2.19.15-2.4a19,19,0,0,1,5.28-8.7,22.2,22.2,0,0,1,7.36-4.11c3.18-1.09,12.13-2.4,24.19-1.92"/><path class="cls-8" d="M963.53,191.41c.25,1.61.5,3.22.76,4.83.2,1.23.39,2.45.6,3.67,4.3-1.72,8-3,10.84-3.86,5.95-1.87,9-2.81,12.64-2.81a36.84,36.84,0,0,1,8.47,1.11,22.57,22.57,0,0,1,4.58,1.43c3.31,1.53,4.89,3.59,5.35,3.32s-.62-2.11-.73-2.3a19.28,19.28,0,0,0-7.65-7.18,25.24,25.24,0,0,0-8.77-2.21c-3.63-.29-13.42.61-26.09,4"/><path class="cls-14" d="M956.68,282.92c12.53-1.87,32.59-6.43,32.59-6.43s.91,29.17-28.12,33.51-35.59-23.72-35.59-23.72S944.16,284.78,956.68,282.92Z"/><path class="cls-15" d="M956.56,282.93c6-.88,26-3.59,26-3.59s-1.9,18.93-23.44,22.14c-23.34,3.48-28.51-15-28.51-15Z"/><path class="cls-16" d="M956.44,283.9c5.95-.89,23.91-4.64,23.91-4.64S974.84,287,957,289.68s-24.51-3.07-24.51-3.07Z"/><path class="cls-14" d="M925.1,284.82c.61-.25,1.19.18,4.11-.53,4.86-1.17,7.74-3,11.27-3.8,6-1.4,10.27.53,12.92.13s6.15-3.47,12.32-3.9c3.61-.24,12.65-.21,17.64-.51,3-.17,6.28-1.89,6.94-1.82.91.09.21,7.06-33.1,12S924.25,285.18,925.1,284.82Z"/><path class="cls-21" d="M1141.25,523.72l12.4-156.21s35.45,5.13,52.7,57.25c14.52,47.69,56.38,189.36,55.68,220.47s-27.63,223.34-27.63,223.34l-57.64-7.41L1172,638.76Z"/><path class="cls-21" d="M910.9,687.12s-8.16,82.61-14.76,103.71c0,0,52.43,4.87,150.48-15.41s145.12-48.5,145.12-48.5l-44.68-77.23.53-37.37L908.9,687.12"/><path class="cls-25" d="M1169,696.74l.63,16.51,1.51,39.35,1.83,47.56,1.57,41.1.53,13.6.16,4.19a12.54,12.54,0,0,0,.08,2.21,1.29,1.29,0,0,1,0,.28c0,.3.66.28.82.28h8.68c.52,0,1.59-.21,1.87-.71s-.25-.6-.7-.6h-8.68l.82.28-.63-16.51L1176,804.93l-1.83-47.55-1.58-41.11-.52-13.6-.16-4.19a14.62,14.62,0,0,0-.08-2.2,2.83,2.83,0,0,1,0-.29c0-.64-2.84-.15-2.8.75Z"/><path class="cls-25" d="M1145,400.87c-4.69,2-8.81,6.07-11.85,10-8.48,11-10.94,25.34-10.39,38.92a175.67,175.67,0,0,0,3,23.87c1.47,8.25,3.27,16.43,5.25,24.57,3.69,15.23,8,30.3,12.67,45.26,2.43,7.81,4.79,15.7,7.65,23.37l.12.34c.43,1.22,3.23.43,2.81-.75-2.18-6.2-4.21-12.45-6.2-18.71-4.51-14.2-8.71-28.51-12.41-42.94-4-15.58-7.6-31.4-9.37-47.41-1.6-14.41-.8-30,7.06-42.6a37.59,37.59,0,0,1,7.89-9.1,28.88,28.88,0,0,1,3.21-2.3l.31-.19.55-.31c.23-.13.48-.24.72-.37l.25-.11c.5-.21,1.06-.83.68-1.38s-1.38-.4-1.9-.18Z"/><path class="cls-25" d="M876.73,453.25c1.71,6.88,3.16,14.17,3.15,21.27a41,41,0,0,1-.88,7.07c-.64,3.56-1.37,7.1-2.07,10.64-1.79,9-3.49,18.1-4.43,27.27a100.47,100.47,0,0,0,.83,28.24c2.43,13.61,7.32,28,17.33,38a29.84,29.84,0,0,0,6.56,5.11c.13.07.44.31.6.31s-.08-.34-.16-.06a4.78,4.78,0,0,0,.22,1.43l.44,2.79,4.88,31.2.12.76c.14.89,3,.24,2.81-.75L901.68,598l-1-6.3c-.1-.65,0-1.51-.59-1.91s-1-.55-1.53-.86a28.43,28.43,0,0,1-3.11-2.32c-9.63-8.19-14.9-20.7-17.85-32.7A95.83,95.83,0,0,1,874.82,525a219.5,219.5,0,0,1,3.87-27.82c1.3-6.81,3-13.62,3.81-20.52a41.4,41.4,0,0,0-.35-10.19c-.51-4-1.25-8-2.14-12-.15-.67-.31-1.34-.47-2-.23-.91-3-.18-2.81.75Z"/><path class="cls-26" d="M507.3,582.84,496,562.51l-60.28,32.6c-35.91,13.8-35.88,15.44-58.38,25.55l-.29-.29c-3.62,4.43-5.6,11.88-7,16.45-3.17,10.52-27.35,22.24-28.15,33.29-.52,7.15-9.61,8-7.41,19.44,4,2.05,10.71,7.48,29.49,11.79,19.46,4.47,49.81-10.24,49.81-10.24,57.49-40.2,86.45-70.59,106.78-94.79Z"/><path class="cls-26" d="M347.43,722.67c.07,0,.68,2.49.76,2.47,20.52-5.65,38.35-4.58,57.74-13.45-2.51-10.2,1.94-13.72.19-26.36-5-40.32-10.21-113.5-21.44-159.41s-17.2-56.26-65-70.88c0,0-.66,176.39,19.58,240.69C343.84,710.15,342.79,706.1,347.43,722.67Z"/><path class="cls-4" d="M387.28,672.29l.82-.69c2.95-2.42,12.79-10.3,15.51-9.49,3.18,1,25.8,7.49,25.8,7.49s-.32,6.21-12.19,6.59S387.28,672.29,387.28,672.29Z"/><path class="cls-26" d="M189.27,443.21c-17.32,7-17.33,7.78-25.78,11.61-4.1,1.86-29.19,16.1-29.19,16.1L137,542.84l9.75,171L124.39,765.1a194.18,194.18,0,0,0-14,48.5l-7.82,51.48c13.7,3.64,48.74-22.2,62.58-20,22,3.45,44.58,3.83,66.78,4.73,27.48,1.11,55.07,1.84,82.5-.74,27.21-2.55,38.93,9.29,65.16,1.75L363,737.89s-6.2-61.17-2.67-71.37c4.48-13,16.43-18.64,16.69-36.9.45-32.18-15.87-66.47-15.87-66.47L353.55,469c-6.23-6.76-59.95-22.58-59.95-22.58s11.44,18.25-2.27,31.88-72.3-5.13-88.27-40.5Z"/><path class="cls-27" d="M355.92,785.42Z"/><rect class="cls-28" x="-40.5" y="835.67" width="1393.94" height="237.39"/><path class="cls-29" d="M327.66,832.93l-.16-.1Z"/><path class="cls-1" d="M186.61,661.86q.75,3.64,1.74,7.22a.7.7,0,0,0-.14-.5C187.84,667.18,187.27,664.87,186.61,661.86Z"/><path class="cls-30" d="M401.33,638.54,436.94,827l-8.38,2.24-41.42-186.6S388.11,620.44,401.33,638.54Z"/><path class="cls-31" d="M428,766.06c-.16.1-.33.24-.52.37C427.68,766.3,427.85,766.16,428,766.06Z"/><path class="cls-31" d="M426.8,766.92c-.38.27-.76.53-1.19.81C426,767.45,426.42,767.19,426.8,766.92Z"/><path class="cls-31" d="M427.38,766.5a3.29,3.29,0,0,1-.46.33A3.29,3.29,0,0,0,427.38,766.5Z"/><path class="cls-31" d="M425.51,767.78c-.15.11-.36.22-.54.33C425.15,768,425.36,767.89,425.51,767.78Z"/><path class="cls-31" d="M429.56,764.78c-.13.11-.25.21-.37.33C429.31,765,429.43,764.89,429.56,764.78Z"/><path class="cls-31" d="M430.55,763.85c-.28.29-.59.56-.89.85C430,764.41,430.27,764.14,430.55,763.85Z"/><path class="cls-31" d="M429.06,765.21a2.71,2.71,0,0,0-.41.35A2.71,2.71,0,0,1,429.06,765.21Z"/><path class="cls-31" d="M428.57,765.6,428,766Z"/><path class="cls-31" d="M424.86,768.2a5.66,5.66,0,0,0-.59.34A5.66,5.66,0,0,1,424.86,768.2Z"/><path class="cls-31" d="M422.69,769.42l-.61.33Z"/><path class="cls-31" d="M424.19,768.58c-.44.27-.91.52-1.39.78C423.28,769.1,423.75,768.85,424.19,768.58Z"/><path class="cls-31" d="M433.32,760.2l-.19.33Z"/><path class="cls-31" d="M434.4,756.84a2.11,2.11,0,0,1,0,.33A2.11,2.11,0,0,0,434.4,756.84Z"/><path class="cls-31" d="M433.79,759.2c-.07.14-.12.29-.19.44C433.67,759.49,433.72,759.34,433.79,759.2Z"/><path class="cls-31" d="M431.79,762.47c-.11.15-.24.29-.37.44C431.55,762.76,431.68,762.62,431.79,762.47Z"/><path class="cls-31" d="M432.79,761.1c-.08.14-.17.26-.26.39C432.62,761.36,432.71,761.24,432.79,761.1Z"/><path class="cls-31" d="M431.37,763a3.59,3.59,0,0,0-.32.35A3.59,3.59,0,0,1,431.37,763Z"/><path class="cls-31" d="M432.13,762.05c-.1.13-.21.24-.3.37C431.92,762.29,432,762.18,432.13,762.05Z"/><path class="cls-31" d="M434.35,757.29c0,.16-.05.29-.09.43C434.3,757.58,434.32,757.45,434.35,757.29Z"/><path class="cls-31" d="M434.47,756.36a1.86,1.86,0,0,0,0,.33A1.86,1.86,0,0,1,434.47,756.36Z"/><path class="cls-31" d="M434.1,758.31l-.1.31Z"/><path class="cls-31" d="M434,758.75c0,.14-.11.27-.14.39C433.85,759,433.92,758.89,434,758.75Z"/><path class="cls-31" d="M432.45,761.62a3.65,3.65,0,0,0-.24.31A3.65,3.65,0,0,1,432.45,761.62Z"/><path class="cls-31" d="M434.23,757.82a1.64,1.64,0,0,0-.08.35A1.64,1.64,0,0,1,434.23,757.82Z"/><path class="cls-31" d="M433.06,760.64a2.86,2.86,0,0,1-.25.44A2.86,2.86,0,0,0,433.06,760.64Z"/><path class="cls-31" d="M433.55,759.74a3.18,3.18,0,0,1-.16.32A3.18,3.18,0,0,0,433.55,759.74Z"/><path class="cls-31" d="M431,763.44l-.33.32Z"/><path class="cls-29" d="M422.08,769.75l-.13,0Z"/><path class="cls-29" d="M432.81,761.08l0,0Z"/><path class="cls-29" d="M432.53,761.49l-.08.13Z"/><path class="cls-29" d="M430.63,763.76s-.05.07-.08.09S430.59,763.79,430.63,763.76Z"/><path class="cls-29" d="M428,766s0,0,0,0S428,766,428,766Z"/><path class="cls-29" d="M428.65,765.56l-.08,0Z"/><path class="cls-29" d="M431.05,763.33l-.09.11Z"/><path class="cls-29" d="M433.13,760.53a.14.14,0,0,1-.07.11A.14.14,0,0,0,433.13,760.53Z"/><path class="cls-29" d="M429.19,765.11l-.13.1Z"/><path class="cls-29" d="M427.49,766.43a.52.52,0,0,1-.11.07A.52.52,0,0,0,427.49,766.43Z"/><path class="cls-29" d="M429.66,764.7a.27.27,0,0,0-.1.08A.27.27,0,0,1,429.66,764.7Z"/><path class="cls-29" d="M432.21,761.93a.42.42,0,0,0-.08.12A.42.42,0,0,1,432.21,761.93Z"/><path class="cls-29" d="M424.27,768.54s0,0-.08,0S424.25,768.54,424.27,768.54Z"/><path class="cls-29" d="M422.8,769.36l-.11.06Z"/><path class="cls-29" d="M431.83,762.42a.1.1,0,0,0,0,.05A.1.1,0,0,1,431.83,762.42Z"/><path class="cls-29" d="M425,768.11l-.11.09Z"/><path class="cls-29" d="M431.42,762.91s0,.05-.05.07S431.42,762.93,431.42,762.91Z"/><path class="cls-29" d="M426.92,766.83a.29.29,0,0,1-.12.09A.29.29,0,0,0,426.92,766.83Z"/><path class="cls-29" d="M425.61,767.73l-.1,0Z"/><path class="cls-29" d="M433.82,759.14a.06.06,0,0,0,0,.06A.06.06,0,0,1,433.82,759.14Z"/><path class="cls-29" d="M434.43,756.69a.66.66,0,0,1,0,.15A.66.66,0,0,0,434.43,756.69Z"/><path class="cls-29" d="M434.36,757.17a.45.45,0,0,0,0,.12A.45.45,0,0,1,434.36,757.17Z"/><path class="cls-29" d="M434.26,757.72s0,.07,0,.1S434.26,757.75,434.26,757.72Z"/><path class="cls-29" d="M433.6,759.64a.24.24,0,0,0-.05.1A.24.24,0,0,1,433.6,759.64Z"/><path class="cls-29" d="M433.39,760.06c0,.07-.05.1-.07.14S433.36,760.13,433.39,760.06Z"/><path class="cls-29" d="M434.15,758.17a.58.58,0,0,0,0,.14A.58.58,0,0,1,434.15,758.17Z"/><path class="cls-29" d="M434,758.62a.38.38,0,0,0,0,.13A.38.38,0,0,1,434,758.62Z"/><rect class="cls-32" x="339.45" y="909.58" width="24.21" height="9.5"/><rect class="cls-32" x="555.51" y="909.58" width="24.21" height="9.5"/><line class="cls-33" x1="457.28" y1="852.05" x2="457.28" y2="867.08"/><path class="cls-34" d="M415.12,861.8c0,6.86-3.77,5.54-8.41,5.54s-8.41,1.32-8.41-5.54,8.41-19.31,8.41-19.31S415.12,854.94,415.12,861.8Z"/><path class="cls-34" d="M433.47,861.8c0,6.86-3.76,5.54-8.41,5.54s-8.41,1.32-8.41-5.54,8.41-19.31,8.41-19.31S433.47,854.94,433.47,861.8Z"/><path class="cls-34" d="M452.39,861.8c0,6.86-3.77,5.54-8.41,5.54s-8.41,1.32-8.41-5.54S444,842.49,444,842.49,452.39,854.94,452.39,861.8Z"/><path class="cls-34" d="M479.74,861.8c0,6.86-3.77,5.54-8.41,5.54s-8.41,1.32-8.41-5.54,8.41-19.31,8.41-19.31S479.74,854.94,479.74,861.8Z"/><path class="cls-34" d="M499.22,861.8c0,6.86-3.76,5.54-8.41,5.54s-8.41,1.32-8.41-5.54,8.41-19.31,8.41-19.31S499.22,854.94,499.22,861.8Z"/><path class="cls-34" d="M518.42,861.8c0,6.86-3.77,5.54-8.41,5.54s-8.41,1.32-8.41-5.54S510,842.49,510,842.49,518.42,854.94,518.42,861.8Z"/><path class="cls-35" d="M412.22,864c0,4.5-2.47,3.63-5.51,3.63s-5.51.87-5.51-3.63,5.51-12.65,5.51-12.65S412.22,859.54,412.22,864Z"/><path class="cls-35" d="M430.57,864.7c0,4.5-2.46,3.63-5.51,3.63s-5.51.87-5.51-3.63,5.51-12.65,5.51-12.65S430.57,860.21,430.57,864.7Z"/><path class="cls-35" d="M449.49,864c0,4.5-2.47,3.63-5.51,3.63s-5.51.87-5.51-3.63S444,851.39,444,851.39,449.49,859.54,449.49,864Z"/><path class="cls-35" d="M477.14,864c0,4.5-2.47,3.63-5.51,3.63s-5.51.87-5.51-3.63,5.51-12.65,5.51-12.65S477.14,859.54,477.14,864Z"/><path class="cls-35" d="M496.18,864c0,4.5-2.47,3.63-5.51,3.63s-5.51.87-5.51-3.63,5.51-12.65,5.51-12.65S496.18,859.54,496.18,864Z"/><path class="cls-35" d="M515.52,864c0,4.5-2.47,3.63-5.51,3.63s-5.51.87-5.51-3.63S510,851.39,510,851.39,515.52,859.54,515.52,864Z"/><polyline class="cls-36" points="391.91 867.08 391.91 852.39 523.84 852.39 523.84 867.08"/><rect class="cls-37" x="339.45" y="867.08" width="240.27" height="42.5"/><circle class="cls-32" cx="459.58" cy="888.33" r="14.34"/><path class="cls-38" d="M356.09,740.51a5.05,5.05,0,0,0-1.87-3.75,16.5,16.5,0,0,0,3.31-.87h0c-.71-4.91-1.26-9.13,7.48-9.09,58.82.28,117.64.29,176.46.39,13.93-.73,13.93-.73,14.77,9.84h0l-.18,20.5c0,22.27,0,44.54-.22,66.81-.14,11.92-7.06,18.22-20.59,19.55l-158.47,0c-12-1.63-16.53-5.41-18.72-15.65-2.82-20.49-.48-50.89-1.26-71.41"/><path class="cls-38" d="M534.29,843.47a5.09,5.09,0,0,1,1,.42C534.94,843.73,534.61,843.6,534.29,843.47Z"/><path class="cls-39" d="M357.23,735.87a20.13,20.13,0,0,0-2.94-.22H335.62c-7.69,0-14,4.14-14,9.2s6.29,9.21,14,9.21h18.67a20.13,20.13,0,0,0,2.94-.22Z"/><path class="cls-39" d="M555.78,735.87a20.27,20.27,0,0,1,3-.22h18.66c7.69,0,14,4.14,14,9.2s-6.29,9.21-14,9.21H558.73a20.27,20.27,0,0,1-3-.22Z"/><path class="cls-40" d="M120.49,835.42s-10.24,94.44,100.34,91.69C311,924.87,309.41,837,309.41,837Z"/><ellipse class="cls-40" cx="213.3" cy="836.31" rx="103.04" ry="24.91"/><ellipse class="cls-41" cx="214.83" cy="835.42" rx="94.57" ry="15.74"/><path class="cls-42" d="M312.84,843.43l-.45.27-1.27.8c-1.12.7-2.83,1.67-5.07,2.81a102.33,102.33,0,0,1-20,7.5,254.18,254.18,0,0,1-31.1,5.81,306.79,306.79,0,0,1-38.69,1.9c-13.73-.12-26.83-.57-38.7-1.62A220,220,0,0,1,146.31,856,139,139,0,0,1,126,849.7c-2.36-.89-4.12-1.77-5.34-2.3l-1.35-.64c-.32-.14-.47-.23-.45-.25a4,4,0,0,1,.49.17l1.41.55c1.23.48,3,1.27,5.37,2.11a152.31,152.31,0,0,0,20.39,6A227.64,227.64,0,0,0,177.66,860c11.85,1,24.91,1.43,38.64,1.54a312.37,312.37,0,0,0,38.56-1.9,259.12,259.12,0,0,0,31-5.58,107.36,107.36,0,0,0,20-7.16c2.24-1.1,4-2,5.12-2.64l1.33-.72A4.8,4.8,0,0,0,312.84,843.43Z"/><path class="cls-4" d="M436.12,690c-2.34-3.65-18.18-15.29-18.18-15.29s-7.06-5.62-13.62-4.17-37.73,2.9-37.73,2.9l-26.45,14.28-11.25,3.15c-.35,13.17,2.05,23.29,0,36.31,3.58-1.33,6.28-2.37,7.55-2.93,7.45-3.3,46.57.31,53.32-.77a128.69,128.69,0,0,0,13.62-3.09s28.61-13.61,28.7-15.51,1.94-2.52-3.54-6.54A61.45,61.45,0,0,0,417.76,692s11.9,4.94,14,4.17S438.46,693.64,436.12,690Z"/><path class="cls-43" d="M429.26,683.8a7.8,7.8,0,0,1-1.58-1.09l-4.1-3.21c-1.61-1.27-3.8-3-6-4.83a15.25,15.25,0,0,0-8.05-4.15,24.06,24.06,0,0,0-4.8,0l-4.53.34c-2.9.24-5.49.5-7.66.71l-5.24.56a9.32,9.32,0,0,1-1.9.1,9.09,9.09,0,0,1,1.87-.44c1.2-.2,3-.49,5.11-.78s4.79-.61,7.69-.89l4.53-.38a22.41,22.41,0,0,1,5,0,15.83,15.83,0,0,1,8.45,4.41c2.19,1.83,4.17,3.51,5.89,5s2.86,2.48,3.94,3.41A9.28,9.28,0,0,1,429.26,683.8Z"/><path class="cls-43" d="M395.65,683.45a15.43,15.43,0,0,1,3.88.64,65.33,65.33,0,0,1,9,2.9A64.33,64.33,0,0,1,417,691.1a14.79,14.79,0,0,1,3.25,2.18,22.84,22.84,0,0,1-3.54-1.66c-2.15-1.07-5.15-2.5-8.56-3.85s-6.54-2.37-8.85-3.06A21.38,21.38,0,0,1,395.65,683.45Z"/><path class="cls-43" d="M427.75,707.77a3.65,3.65,0,0,1-1.32.15,21.85,21.85,0,0,1-3.61-.19,53,53,0,0,1-11.45-3.17c-4.33-1.63-8.23-3.15-11-4.29a30.51,30.51,0,0,1-4.49-2,27.93,27.93,0,0,1,4.69,1.43c2.87,1,6.84,2.41,11.12,4a65.91,65.91,0,0,0,11.25,3.38C425.87,707.67,427.76,707.64,427.75,707.77Z"/><path class="cls-43" d="M412.41,716a11.9,11.9,0,0,1-3.37.11,70.9,70.9,0,0,1-8.11-.79,77.06,77.06,0,0,1-8-1.67,13.9,13.9,0,0,1-3.21-1.06c.06-.26,5.09.94,11.31,1.9S412.43,715.77,412.41,716Z"/><path class="cls-26" d="M136.87,469.45s-34.66,17.54-36.7,57.72-14.88,176.7,8.17,215.91,216.24-3.41,216.24-3.41l-.53-52.39-149.24-8.91s11.9-128,3.23-150.52-19-30.65-19-30.65"/><path class="cls-44" d="M327.28,686.85l-15.26-.7-36.65-1.67-44.34-2-38.32-1.75-12.62-.58-3.93-.18a9.51,9.51,0,0,0-2.06-.09,2.26,2.26,0,0,1-.26,0l.49.47q.82-9.11,1.53-18.23,1.68-21.3,2.94-42.62c.94-16.19,1.69-32.4,1.88-48.62.08-7.08.06-14.17-.23-21.25a129.08,129.08,0,0,0-1.4-15.84c-1.18-7.15-4.51-13.81-8-20.1-3.23-5.87-7.07-11.78-12-16.32-.21-.19-.42-.38-.64-.56-.5-.4-1.77.32-1.12.84,3.57,2.84,6.41,6.93,8.89,10.69a98.79,98.79,0,0,1,8.09,15.2,44.87,44.87,0,0,1,2.9,8.17,93,93,0,0,1,1.68,14.61c.37,6.64.45,13.31.43,20-.06,16.09-.75,32.18-1.63,48.24q-1.2,21.87-2.92,43.71-.57,7.42-1.2,14.84c-.2,2.34-.59,4.74-.61,7.09l0,.3a.47.47,0,0,0,.48.47l15.26.7,36.65,1.67,44.34,2L307.91,687c6.2.28,12.41.71,18.61.85h.26c.7,0,1.48-1,.5-1Z"/><path class="cls-44" d="M123.79,754.71c13.42,3.23,27.52,3.66,41.25,3.63,17.26,0,34.5-1.17,51.68-2.76s34.4-3.67,51.53-6.07q20.28-2.84,40.45-6.24c6.23-1,12.5-2,18.69-3.3l.26-.05c.16,0,.87-.17.87-.44V727.73c0-.19-1.45,0-1.45.39v11.75l.86-.44c-5,1-10,1.83-15.05,2.69q-19,3.27-38.13,6c-16.77,2.42-33.59,4.55-50.45,6.24-17.35,1.73-34.78,3-52.22,3.35-14.27.25-28.82,0-42.88-2.65-1.41-.27-2.81-.57-4.21-.9-.32-.08-1.56.44-1.2.53Z"/><path class="cls-44" d="M174,679.93c-10.77-2.73-20.75,5.65-26.63,13.81-.42.58,1.05.54,1.37.1,5.35-7.43,14.51-15.53,24.4-13,.54.13,1.71-.67.86-.89Z"/><g class="cls-45"><path class="cls-46" d="M171,842c-1.38-3,0-6.71,2.49-8.85s5.86-3,9.13-3.31,6.59-.28,9.81-.91,6.27-2,9.52-2.42a17.61,17.61,0,0,1,14.49,4.76,16.85,16.85,0,0,1,4.79,14.42,12.23,12.23,0,0,1-2.28,5.57c-3.1,4-8.65,5-13.68,5.54-5.76.66-11.58,1.17-17.33.44s-11.46-2.8-15.71-6.74"/><path class="cls-47" d="M148.12,849.58a8.45,8.45,0,0,1-5.39-4.49,6.26,6.26,0,0,1,1-6.74,8.61,8.61,0,0,1,5.65-2.19c5.78-.46,11.44,1.49,17.17,2.33,3.5.51,7.25.67,10.2,2.63,3.68,2.45,5.17,7,6.4,11.3q-17.55-.95-35.1-2.29"/><path class="cls-46" d="M235.34,847.39a26.24,26.24,0,0,1,18.38-8.93,51,51,0,0,0,6.19-.3c1.9-.32,3.8-1.08,5.7-.74a6.88,6.88,0,0,1,4.61,3.72,20.09,20.09,0,0,1,1.72,5.86,4.6,4.6,0,0,1,.05,2.21c-.39,1.27-1.74,1.94-3,2.4-7.95,3-16.68,2.85-25.17,2.7"/><path class="cls-47" d="M209.64,855.05a9,9,0,0,1-4.88-7.14,3.65,3.65,0,0,1,.77-2.9c1.35-1.38,3.63-.57,5.55-.52,3.92.11,7-3.28,9-6.67a16.67,16.67,0,0,1,2.76-4,4.37,4.37,0,0,1,4.47-1.14c2,.82,2.56,3.3,3.81,5.06,1.82,2.56,5.14,3.56,7.4,5.74a9.39,9.39,0,0,1,2.83,7.09,3.39,3.39,0,0,1-.54,1.89,4,4,0,0,1-2.61,1.2,79.38,79.38,0,0,1-27.84.15"/></g><path class="cls-40" d="M610.44,874.09s-5.63,52,55.24,50.47c49.62-1.23,48.75-49.6,48.75-49.6Z"/><ellipse class="cls-40" cx="661.53" cy="874.59" rx="56.72" ry="13.71"/><ellipse class="cls-41" cx="662.37" cy="874.09" rx="52.06" ry="8.66"/><path class="cls-42" d="M716.32,878.5l-.25.15-.7.44c-.62.39-1.56.92-2.79,1.55a56.05,56.05,0,0,1-11,4.12,138.18,138.18,0,0,1-17.11,3.2,168.45,168.45,0,0,1-21.3,1c-7.56-.07-14.77-.32-21.3-.89a120.3,120.3,0,0,1-17.21-2.68A75.77,75.77,0,0,1,613.45,882c-1.29-.49-2.27-1-2.93-1.26l-.75-.36c-.17-.07-.26-.12-.25-.13a1.07,1.07,0,0,1,.27.09l.78.3c.68.27,1.65.7,3,1.16a82.54,82.54,0,0,0,11.22,3.32,127.27,127.27,0,0,0,17.16,2.55c6.52.54,13.71.78,21.27.84a172.82,172.82,0,0,0,21.22-1,143.11,143.11,0,0,0,17.08-3.07,59.69,59.69,0,0,0,11-3.94c1.23-.61,2.19-1.1,2.82-1.46l.73-.39A2.52,2.52,0,0,0,716.32,878.5Z"/><path class="cls-20" d="M663.61,536.19a.61.61,0,0,0,.16.12l.19-.47Z"/><path class="cls-44" d="M361.86,533.34a15.11,15.11,0,0,0-1.29,4.81,45.79,45.79,0,0,0,.73,14.72,149.83,149.83,0,0,0,3.44,15.24c.9,3,1.86,6.06,2.78,9.1,1.62,5.37,3.65,10.79,4.25,16.39,1,9.71-1.9,19.43-6.41,27.94a79,79,0,0,1-5.44,8.76,7.28,7.28,0,0,0-1.19,1.69c-.23.82.8.71,1.28.32l-1.2-.2a345.06,345.06,0,0,0,.55,36c.22,2.73.35,5.75,1.35,8.33.22.58,1.66.17,1.45-.38a26.8,26.8,0,0,1-1.25-7.11c-.34-3.63-.49-7.27-.6-10.91-.21-7.13-.21-14.27-.12-21.4,0-1.55,0-3.09.08-4.63,0-.57-.91-.44-1.19-.2s1,.28,1.06.25.3-.44.42-.6l1.61-2.28a76.42,76.42,0,0,0,4.94-8.24c4.15-8.06,6.85-17.09,6.23-26.22-.37-5.54-2.25-10.82-3.84-16.1-1-3.25-2-6.49-3-9.74-1.31-4.29-2.24-8.65-3.12-13.05-1.09-5.48-2-11-1.51-16.6a16.25,16.25,0,0,1,1.33-5.75c.36-.67-1.1-.59-1.36-.1Z"/><path class="cls-25" d="M801.24,602.63a18.41,18.41,0,0,1,16,2.58,19.39,19.39,0,0,1,7.8,13.15c.17,1.23,3,.55,2.81-.75a20.73,20.73,0,0,0-9.06-14.41,21.7,21.7,0,0,0-18-2.41c-.52.16-1.34.62-1.16,1.3s1.14.69,1.65.54Z"/></g></g></svg>