<svg xmlns="http://www.w3.org/2000/svg" viewBox="0 0 1303.15 1057.31"><defs><style>.cls-1{fill:#f2ebd1;}.cls-2,.cls-20,.cls-25{fill:#151210;}.cls-3{fill:#161311;}.cls-4{fill:#a66e53;}.cls-5{fill:#ccb631;}.cls-6{fill:#132e38;}.cls-7{fill:#535a27;}.cls-16,.cls-17,.cls-24,.cls-8{fill:none;}.cls-8{stroke:#131429;stroke-width:0.81px;}.cls-10,.cls-14,.cls-15,.cls-16,.cls-17,.cls-19,.cls-20,.cls-24,.cls-25,.cls-8{stroke-miterlimit:10;}.cls-9{fill:#4f2e25;}.cls-10,.cls-14,.cls-15,.cls-16,.cls-17{stroke:#000;}.cls-10{stroke-width:0.56px;}.cls-11{fill:#010101;}.cls-12{fill:#13110f;}.cls-13{fill:#ce8d2a;}.cls-14{stroke-width:0.55px;}.cls-15{stroke-width:0.58px;}.cls-16{stroke-width:1.35px;}.cls-17{stroke-width:1.42px;}.cls-18{fill:#ad7b98;}.cls-19,.cls-35{fill:#681941;}.cls-19{stroke:#681941;stroke-width:0.52px;}.cls-20,.cls-24,.cls-25{stroke:#161311;}.cls-20{stroke-width:0.56px;}.cls-21{fill:#24180f;}.cls-22{fill:#fff;}.cls-23{fill:#231f20;}.cls-24{stroke-width:1.3px;}.cls-25{stroke-width:0.56px;}.cls-26{fill:#513835;}.cls-27{fill:#c95744;}.cls-28{fill:#5a190c;}.cls-29{fill:#b15e27;}.cls-30{fill:#df8c26;}.cls-31{fill:#c86b28;}.cls-32{fill:#653c29;}.cls-33{fill:#26120d;}.cls-34{fill:#f1eef7;}</style></defs><g id="Layer_10" data-name="Layer 10"><polyline class="cls-1" points="-122.78 1151.79 -122.78 -91.07 1384.52 -91.07 1384.52 1151.79"/><path class="cls-2" d="M101.88,483l-.59,1.51c0,10,2.85,16.89,10.38,19.79,0,.1,0,19.73,18.45,23.66,16,3.4,22.64-3.06,22.64-3.06s6.23,5.78,10.29,5.84c9.14.15,10.83-4.66,14.53-11.21,10.6-18.78,1.28-31.14,1.28-31.14s-2.34-1.95-4.33-7.64S163.8,469,163.8,469s4.48-10,.2-12.53S149.64,452,149.64,452s-6.07-8.64-15.65-4.48c0,0-7.44-2.17-11.59,7a29.07,29.07,0,0,0-2.12,7.68s-3.67-1-10.62,3.52C106.67,467.65,101.91,475.4,101.88,483Z"/><path class="cls-3" d="M101.08,483.08a9.76,9.76,0,0,0-.58,1.47,11.93,11.93,0,0,0,0,2.86,30.81,30.81,0,0,0,.9,6,16.36,16.36,0,0,0,5.27,8.73,15.53,15.53,0,0,0,1.79,1.25c.4.23.8.45,1.21.65.13.06,1.13.39,1.15.42s0,.62,0,.77a28.62,28.62,0,0,0,.65,4.52,24.86,24.86,0,0,0,7.64,13.54c5.85,5.06,14.43,6.48,21.94,5.93a25.55,25.55,0,0,0,9.17-2.3,11.91,11.91,0,0,0,3.11-2l-1.39.19c3,2.78,7,6,11.31,6a14.87,14.87,0,0,0,7.86-2,15.37,15.37,0,0,0,4.75-5.38c3.55-6,6.77-12.33,7.4-19.41a26.84,26.84,0,0,0-2.17-13.59,13.5,13.5,0,0,0-1.45-2.6c-.56-.72-1.21-1.35-1.73-2.13-1.78-2.69-2.42-5.92-4.24-8.58a33.08,33.08,0,0,0-6.21-6.52c-.76-.63-1.54-1.25-2.34-1.84a3.54,3.54,0,0,1-.54-.39c-.17-.18-.07.26,0,0,.51-1.75,1.27-3.38,1.65-5.19.42-2,.75-4.57-.48-6.37s-4.46-2.61-6.51-3.26c-2.49-.78-5-1.42-7.58-2a7.65,7.65,0,0,1-1.58-.33c.5.23-.13-.37-.3-.56a13.86,13.86,0,0,0-11.59-5,15.49,15.49,0,0,0-4.59,1.21l.95-.08a10.31,10.31,0,0,0-7.15.88c-5.26,2.64-7.16,8.91-8,14.29l1.31-.52a8.36,8.36,0,0,0-3.52.16,22.63,22.63,0,0,0-8.4,3.77,17.75,17.75,0,0,0-4.92,6.45,25.21,25.21,0,0,0-2.87,11c0,.44,1.61.17,1.62-.43A24.47,24.47,0,0,1,105,473a19.3,19.3,0,0,1,4.59-6.65,18.18,18.18,0,0,1,7.6-3.6,6.11,6.11,0,0,1,2.55-.12c.32.08,1.23-.1,1.3-.53.86-5.47,3.17-13.61,9.8-14.32a7.26,7.26,0,0,1,1.92,0l.51.09c.3.05-.11.05.27.05a7.82,7.82,0,0,0,2.13-.65,11,11,0,0,1,2.54-.46,10.79,10.79,0,0,1,4.32.68,14.15,14.15,0,0,1,5.22,3.52c.56.57.88,1.26,1.66,1.45,2,.48,4,.88,6,1.42,2.61.7,5.62,1.42,7.9,2.92s1.79,5,1.27,7.31a26.09,26.09,0,0,1-1.63,4.95.18.18,0,0,0,.06.19,44.81,44.81,0,0,1,4.85,4,31.66,31.66,0,0,1,3.77,4.08,20,20,0,0,1,2.55,4.94,22.57,22.57,0,0,0,3.87,6.4,9.93,9.93,0,0,1,1.22,2.09,27.08,27.08,0,0,1,2,16.79,43.07,43.07,0,0,1-5,13c-1.47,2.65-2.85,5.63-5.22,7.61a10.42,10.42,0,0,1-10.82,1.23,28.55,28.55,0,0,1-6.73-4.77c-.32-.3-1.12-.07-1.39.2a12.69,12.69,0,0,1-5,2.61c-5.5,1.75-11.66,1.31-17.2,0-8.77-2.1-14.66-9-16.69-17.57a24.63,24.63,0,0,1-.77-5.73.25.25,0,0,0-.16-.16,14.81,14.81,0,0,1-8.54-8.62,25.21,25.21,0,0,1-1.47-6.47,34.85,34.85,0,0,1-.21-3.95,5.49,5.49,0,0,1,.59-2C102.87,482.38,101.28,482.57,101.08,483.08Z"/><path class="cls-2" d="M290.64,453.24l-1.15-1.16c-9.09-4.06-16.6-4.23-22.3,1.48-.08,0-12-5.51-23.07,9.8-9.62,13.29-6.37,21.94-6.37,21.94s-7.81,3.35-9.52,7c-3.83,8.29-3.15,24.05,4.1,26.07s7.93,5.45,7.93,5.45,11.15,3.2,17.15,3.69,15-5.63,15-5.63,13.33,1.76,17.34-1.14,6.33-12.41,6.33-12.41,13.91-1,14-11.42c0,0,5-5.92-1.71-13.43a29.48,29.48,0,0,0-6.16-5s2.36-3,1.08-11.13C302.7,463.82,297.54,456.33,290.64,453.24Z"/><path class="cls-3" d="M291.39,452.94a8.29,8.29,0,0,0-1.19-1.18,16.81,16.81,0,0,0-4.14-1.62,25.83,25.83,0,0,0-7.44-1.39,16.55,16.55,0,0,0-12.18,4.83l1.4-.38c-4.44-2-10.2-1-14.38,1.12-5.1,2.55-9,7.05-11.94,11.81a31.35,31.35,0,0,0-5,13.42,14,14,0,0,0,.43,6l.51-.49a30.25,30.25,0,0,0-7.65,4.57c-3,2.55-3.88,6.48-4.38,10.22a29.52,29.52,0,0,0,.67,12.09c.9,3.07,2.59,5.94,5.8,6.92a14.29,14.29,0,0,1,6.36,3.36,4.26,4.26,0,0,1,1.2,1.89.23.23,0,0,0,.15.14c4.19,1.2,8.45,2.26,12.73,3.06a21.37,21.37,0,0,0,8,.44,30,30,0,0,0,8-3A42.72,42.72,0,0,0,273,522l-1.14.31a55.67,55.67,0,0,0,12.1.39c2.23-.2,4.76-.56,6.58-2,2.1-1.64,3.38-4.29,4.38-6.69a39.2,39.2,0,0,0,1.93-5.78l-1.14.52a22.7,22.7,0,0,0,8.68-2.44,12.51,12.51,0,0,0,5.09-4.5,9.61,9.61,0,0,0,1.24-3.44c.12-.78,0-1.29.39-1.91,3.4-5.17.47-11.11-3.63-14.86a26.19,26.19,0,0,0-2.31-1.9c-.42-.31-.84-.61-1.27-.9-.11-.08-1-.54-1-.4,0-.26.49-.89.6-1.14a17.34,17.34,0,0,0,.78-8.12,16.21,16.21,0,0,0-3.72-8.68,25.17,25.17,0,0,0-9.31-7.6c-.41-.19-1.9.44-1.31.72a24.26,24.26,0,0,1,7.92,6,20.1,20.1,0,0,1,4.28,6.89,19.09,19.09,0,0,1,.35,8.89,7.34,7.34,0,0,1-1.11,3.07c-.05.06-.11.21,0,.28,3.83,2.47,7.92,5.74,9.22,10.32a9.16,9.16,0,0,1-1.06,7.51A6.31,6.31,0,0,0,309,499a8.94,8.94,0,0,1-1.85,4,13.41,13.41,0,0,1-6.52,4.06,21,21,0,0,1-3,.73l-1,.14-.22,0c-.3,0-1.05.14-1.14.52a33.17,33.17,0,0,1-3.67,9.27,7.32,7.32,0,0,1-4.24,3.68,24.47,24.47,0,0,1-6.33.61c-2,0-3.93-.11-5.88-.28a12.25,12.25,0,0,0-2.63-.23c-.94.12-2,1.07-2.75,1.53a38.52,38.52,0,0,1-6.09,3,14.5,14.5,0,0,1-7.1,1c-2.44-.32-4.87-.82-7.27-1.37-2.16-.5-4.3-1-6.44-1.62a13.4,13.4,0,0,0-1.62-.44,1,1,0,0,1-.29-.08s.2.22.09,0c-1.6-3.26-5-4.41-8.25-5.5-3.8-1.28-5.16-5.9-5.71-9.45a30.24,30.24,0,0,1,1.55-15.34c1.51-3.82,5.83-6.08,9.43-7.63.13-.06.6-.26.51-.49a11.58,11.58,0,0,1-.53-4A26.5,26.5,0,0,1,241,469.83c3.85-8,11.14-17.1,20.9-16.85a12.11,12.11,0,0,1,4.68.94,1.5,1.5,0,0,0,1.41-.38,13.69,13.69,0,0,1,11.27-3.91,27.08,27.08,0,0,1,6.34,1.49,13.56,13.56,0,0,1,3.26,1.34,10.92,10.92,0,0,1,1.07,1.08C290.23,453.89,291.75,453.3,291.39,452.94Z"/><path class="cls-4" d="M172,476.49s12.91,21.87,4.14,46.34c-1.13,3.15-10.72,22.59-10.73,22.59.58-.5,10.75,6.41,11.43,6.66,12.1,4.4,15.16,24.12,29.32,22.7,15-1.5,37.85-1.64,50.5-9.84,8.87-5.75,5-22.76,11.44-30.84,0,0-18.6-7.36-20.54-10.8s-7.66-34.67-7.66-34.67"/><path class="cls-5" d="M343.07,758s10.11,64.27,9.44,104.43l1.14,16.83H323.37L294.1,751.61Z"/><path class="cls-4" d="M313.52,878.56l28.72.77s2.2-.77,5.2,21.65a228.61,228.61,0,0,0,6.19,27.74l-8.79,35.1-10.43,10.63-11.57,3-14,.93c-.74-8.8,14.6-14.27,14.6-14.27l.82-19.83-4.63-3.62a93.51,93.51,0,0,1-2.72,20.87c-2.58,8.66-8.75,6.51-8.75,6.51s-.14-23.24-.25-38.18,8.65-30.91,8.69-32Z"/><path class="cls-5" d="M342.83,759.75c-9.19,1-9.93,3.69-19.23,3.79-6.1.06-12.2.21-18.3.36-5.66-28.39-11.39-55-15.61-69.65-12.11-42-5.81-153.34-5.81-153.34,3.67,1.64,37.93,6.87,44.49,36.84s-1.31,119.8,6.3,146.74Q339.37,742,342.83,759.75Z"/><path class="cls-4" d="M256.44,813.61s44.06,159.23,39.75,321.54c-10.49,111.79-44.58,285.65-44.58,285.65l-36.33,5s-10.65-157.4-10.3-297c-7-111.63-22.26-178.94-22.26-178.94l4.89-160.29Z"/><path class="cls-4" d="M180.21,828.58s48.51,158,48.77,320.34c-3.09,47.1-10,105.27-17,156.89-9.67,71.17-19.48,129.86-19.48,129.86l-36.18,6s-15.13-185-22.39-303.78c-10.17-111.39-23.54-171.12-23.54-171.12l.39-160.35Z"/><g id="freepik--character-2--inject-2"><path class="cls-5" d="M309.51,737.12c-.93,6.22.76,42.47,2.43,48.58.84,3.06,1.79,6.1,2.76,9.13.58,9.88,6.55,25.17,12.27,39.84a197.4,197.4,0,0,1-38.55,15.42,271.14,271.14,0,0,1-53,9.7,265.43,265.43,0,0,1-54.86-.95c-17.36-2.17-34.67-6.3-50.72-13.21-5.12-2.21-20-4.72-24.84-7.53,10.92-45.53,22.55-71.23,22.55-71.24l4.8-10.72-15.83-203L156.4,533.5l9.1-4.22,7.34-3.15c8.17,11.28,30,27.37,43.5,31.47,9.59,2.92,20.35,1.09,24.78.73,12.37-1,15-16.73,9.3-32.62l11,3.76L290.85,543l19.21,9.76s20.43,101.56,20,116.66C329.75,679.89,320.08,666.83,309.51,737.12Z"/></g><path class="cls-6" d="M327.67,826.06s-57.55,25-114.83,17.12-109.35-27.74-109.35-27.74-41.42,21.26-7.24,193.09c14.09,70.82,25.52,336.9,25.52,336.9s7.2,24.36,96.6,18.48,79.39-10.33,79.39-10.33S328.31,1041,331.87,997.2,327,834.67,327,834.67"/><path class="cls-5" d="M122.58,773.43,125,785.62c2.43,11.4,11.15,23.07,10.51,34.7L141,909.88l-51.34,6.45S71.24,806.69,71.24,775.05c0-.44.82-12.09.84-12.6Z"/><path class="cls-5" d="M134.62,545s-42.08,13.18-49.1,43C79.43,614,71.24,768.36,71.24,768.36s46.77,12.58,60.18,12.58c0,0,23.48-161.74,23.48-186.3S134.62,545,134.62,545Z"/><path class="cls-5" d="M309.51,749.86l27.69,95.08S280,860.22,230.65,860.14,127,851.62,127,851.62l1-32.7Z"/><path class="cls-4" d="M153.24,1002.07a165.85,165.85,0,0,0-18.9-15.18l-7.68-19.22,2.71-10,5.84-.43s2.69,25.53,7.74,29.61,7.52,3.94,7.52,3.94l3.77-6.08-8.15-37.45s-6.33-15.79-8.36-19.38c-2.46-3.43-6.06-4.6-9.12-7.65l-.61-9.33-28.6,4.38c1.52,5.12-.68,1.26,1.45,7.07l-2.4,41.25,11,16.76,13.67,14.7,32,15.46S159.4,1008.42,153.24,1002.07Z"/><path class="cls-7" d="M319.77,596.19a73.4,73.4,0,0,0-.74,20,130,130,0,0,0,3.5,18.25c3,12,6.09,23.83,6.78,36.19.63,11.39-.06,23.54-4.56,34.17a54.5,54.5,0,0,1-4,7.18,39.36,39.36,0,0,0-3.57,7.94c-1,3-2.16,5.92-3.3,8.87a37.26,37.26,0,0,0-2.23,9.77c-1.16,12,1.61,24.25,3.52,36l7,43.1,3.09,19.11c.55,3.38,1,6.78,1.65,10.14,0,.16.05.32.07.49.08.44,1.7.07,1.62-.44l-4-24.65-7.07-43.61c-1.64-10.19-3.71-20.46-4.35-30.78-.42-6.84,0-13.85,2.64-20.24,2.42-5.8,3.87-11.88,7.33-17.19,5.95-9.12,7.61-20.58,7.89-31.27.31-12-1.6-23.74-4.45-35.38-3-12.28-6.64-24.5-6.34-37.26a74,74,0,0,1,1.09-10.71c.09-.51-1.52-.23-1.6.25Z"/><path class="cls-7" d="M121,573.57c4.3,2.16,8.78,4.25,12.37,7.52a30.33,30.33,0,0,1,8,12.18c4.06,11.5,5.39,24.12,5.64,36.24.57,27.88-6,55.19-9.76,82.66-1,7.22-1.71,14.41-2,21.69s-.41,14.72-.47,22.08q-.21,27.15.57,54.3c.39,14.24.7,28.6,2.28,42.77.11,1,.24,2,.39,3.07.11.75,1.73.35,1.61-.43-.78-5.38-1.12-10.83-1.44-16.25-.48-8-.79-16-1.05-23.95q-.85-27.41-.75-54.84c.06-13.76,0-27.65,1.58-41.33,3.25-27.82,10.2-55.28,10.68-83.39a138.52,138.52,0,0,0-4-37.62,39.92,39.92,0,0,0-6.06-13.69,30.31,30.31,0,0,0-9.81-8.55c-2.23-1.27-4.53-2.4-6.82-3.55-.67-.34-1.85.63-.93,1.09Z"/></g><g id="Layer_11" data-name="Layer 11"><path class="cls-4" d="M709.21,530.51s-11-23-20.57-29.89c-2.7-1.93-33.76-21.57-33.76-21.57s-7.38,3.91,1,13a173.54,173.54,0,0,0,17.31,16.44l-.87,1.44L652.08,505s-23.48-5-29.23-5.74-18-2.76-21.19,4c0,0-9-2.18-10.45,2a6.59,6.59,0,0,0,0,6.12l4,2.11s-2.6.5-2,4.94,38.15,16.91,38.15,16.91l1.53,2s-26.44-4.21-27.63-2-2.51,3.86,1.25,6.06,73.51,23.35,81.94,24.13c2.21.21,6.25-1.2,7.64-1,3.93.44,11.21,3,11.21,3l14.07-33.15Z"/><path class="cls-4" d="M1073.65,260.77s-3.73,41.92,8.7,69.69c1.73,3.87,35.49,16.19,35.5,16.19-.91-.33-5.35,2.72-6.17,3.14-15.94,8.09-31.53,17.46-49,22.06a120.76,120.76,0,0,1-56.6,1.28c-13.07-2.88-22.92-9.58-34.18-16.29,0,0,25.35-9.85,26.12-14.79s-5-41.71-5-41.71"/><line class="cls-8" x1="1082.17" y1="197.21" x2="1066.36" y2="215.05"/><path class="cls-4" d="M576.79,386.86c-.85,19-1.72,41.33-1.93,60.35a3.28,3.28,0,0,0,.39,2,3.37,3.37,0,0,0,1.06.88c1.42.91,6.38,2.22,7.8,3.12-.37,3.94,13.64,6.7,11.08,9.84-5.05,6.23-14.53,42.46-22.47,43.76-20.8,3.42-61.75-39.83-76.94-51.74-1.83-1.43-11.78-6.65-11.48-8.8s7.07-5.63,8.5-7.73c9.58-14.08-2.05-55-2.05-55"/><path class="cls-9" d="M519.13,419.78s8.93,17.63,43.1,20.44c0,0,6.95.33,12.41-2.13l-.08-6.89Z"/><path class="cls-10" d="M607.48,372.18c-11.12-6.39-14.43-19.54-14.33-31.56.11-11.5-10.23-28.1,3.79-28.92.27,0-6-9.25-1.77-8.81-3.14-6,6.15-6.35,6.74-13.56.12-1.46.9-14.27-8.21-14.23C556.7,233,514,246.87,489.9,252.61c-47.34,11.25-71.29,24.8-52.12,99.6,12.87,50.22,63,51,111.25,44.65,20.62-2.69,45.26-4.35,58.91-24.44Z"/><path class="cls-10" d="M489.19,208.48c-1.67-2.56-15.62-11.27-23.32-9.63-5.51,1.18-11.7,4.3-20.19,13.6-9.09-1.61-20.14-2.21-24.92,2.91a30,30,0,0,0-4.81,7.36h0l-.05.17A62.49,62.49,0,0,0,412.7,231c-5.25,9-16,28-17.5,36.17-.74,4.05,5.85,11.85,14.39,20a15.56,15.56,0,0,0-3.24,7.87c-.83,7.54,9,22.61,27.59,13.05,5.7,4.53,9.69,7.51,9.69,7.51l5.14-5.3-1.53-2.72,6.28-6.34-5.23-3.71a40.48,40.48,0,0,1,4.68-4.84c6.08-6.51,12.44-15.42,18.24-22.17,2.67-3.12,10.47-5.47,13.3-8.46a14.59,14.59,0,0,0-5.21-1.64l2.28-2.41c2.94.86,5.42,1.64,6.23,2,2.49-2.59,9.34-5.49,11.79-8.12.57.74,1.14,1.49,1.68,2.26,2.23-2.41,7.23-5.37,9.45-7.8-1.92-12.45-8.43-22.58-20.68-27C490.13,214.67,490,209.73,489.19,208.48ZM414.72,296.4a17.54,17.54,0,0,1-1.59-5.93c3.58,3.28,7.36,6.55,11,9.59C420.46,300.42,416.37,299.91,414.72,296.4Zm66.63-87.24c.14,2.13-1.12,5.52-2.23,8l-.93-.07a143.72,143.72,0,0,0-14.82-.64c2-4,4.1-7.89,4.79-8.55C471.73,204.54,481.1,205.45,481.35,209.16Z"/><path class="cls-4" d="M568,275.18l.4.19a4,4,0,0,1-.44-.49Zm14,.89c.23.16.47.32.73.47l0-.25S582,275.78,582,276.07ZM513.39,416.46c14.56,11.27,37.7,17.27,52.58,17.33,7.29,0,13.78,1.15,20.33-5,16.43-15.33,31.48-41.48,25.7-64.44-1.06-4.23-4.65-11.92-4.91-16.09-.3-4.82-3.4-27.81-9.65-41.74-7.61-17-14.09-25.05-14.09-25.05-1-2.9,6.62-2.53,4.68-4.71l-1.3.17a1.29,1.29,0,0,1,.81,1.11,10.39,10.39,0,0,1-4.83-1.54v0c-1.83,1.15-3.9.51-5.72-.77,0,.3.44.85.77.81a6.61,6.61,0,0,1-5.44-1.11c0,.3.45.85.48,1.15a12,12,0,0,1-4.42-1.3c.35.35,7.53-1.75,7.56-1.54-1.91.55.41.91-1.41-.37l-1.76-.9c-1.59.52-1.4,1.49-2.86.46.37.26-1.32-3.17-1.28-2.87-2,.26-1.44.06-3.18-.62,0,.29-5.07,2.63-5,2.93-1.62.21-1,1.65-2.45.62.36.26,1-1.4,1.37-1.14-1.91.55-2.48,1.9-4.3.62.36.26-6.86-2.43-6.86-2.43-1.91.55-1.5,1.12-3.28.14.73.51-9.08.62-8.67,1.18-1.63.21,3.88,5.55,2.46,4.83,0,.29-3.85-.41-3.85-.41-1.59.51,1,1.68-.41.66,0,.3.48,1.15.81,1.11-1.84,1.15-4.19.85-6.3-.09.73.51,1.13,1.07,1.5,1.32-1.63.22-2.89.68-4.67-.3,0,.3.8,1.11,1.13,1.07a6.46,6.46,0,0,1-5.28.08c0,.3.77.81,1.13,1.07a4.64,4.64,0,0,1-4-.09l1.13,1.07c-1.3.17-2.19.89-4.22.55,0,.3.73.51.77.81a12.12,12.12,0,0,1-3.3.13c0,.3,1.1.77.77.81-1.3.17-2.2.89-3.9.51.36.26.77.81,1.13,1.07-1.3.17-2.56.63-3.94.21A2.21,2.21,0,0,0,508,287c-1.3.17-2.2.89-3.9.51,0,.3.76.81,1.13,1.06a17.1,17.1,0,0,1-3.9.51c0,.3.73.52,1.09.77a10.69,10.69,0,0,1-4.27.26c.08.59.45.85.48,1.15-1,.12-1.66-.09-2.63,0l-1.55.81c-3.77,6.56-14.23,20.07-14.23,20.07-9,9.37-7.39,23.4-6.32,29S485,368.59,485,368.59c-1.9-1.88-4-6.5-5.25-8.76-1.25-2-3.05-4.12-4.3-6.08-3.55-4.39-9.85-2.05-13,1.41l-.47,1.06c-4.09,7.39-.39,24,10.41,34,2.76,12.54,16.27,16.89,18.06,7.14L497.05,408"/><path class="cls-11" d="M580.5,378.81a8.51,8.51,0,0,1-7.52.6c-.51-.22-2,.28-1.33.58a12,12,0,0,0,10.22-1c.25-.17.18-.37-.18-.43a1.91,1.91,0,0,0-1.19.23"/><path class="cls-11" d="M570.65,379.54a13.52,13.52,0,0,0-4.75-.46,1,1,0,0,0-.67.31c-.12.14-.13.29.06.37a5.31,5.31,0,0,0,2.6.2,1,1,0,0,0,.74-.4c.11-.23-.17-.33-.38-.3a4,4,0,0,1-2.1-.17c-.2.23-.4.46-.61.68a12.37,12.37,0,0,1,4.25.43,1,1,0,0,0,.83-.21c.15-.12.3-.37,0-.45"/><path class="cls-11" d="M564.38,380.62c-1.87.21-4.16-.26-5.26-1.48-1.67-1.85-.85-5.45,1.28-7.08.24-.18.08-.34-.19-.36a1.54,1.54,0,0,0-1,.34,6.57,6.57,0,0,0-2.21,6.32c.53,1.75,2.48,2.75,4.78,2.95a10.53,10.53,0,0,0,2.1,0c.28,0,.77-.19.88-.42s-.16-.3-.42-.26"/><path class="cls-11" d="M583.78,377.42a.23.23,0,0,1,.19-.37,2.27,2.27,0,0,0,1.37-.66l.58.51a6.64,6.64,0,0,0-2.77,1.41.56.56,0,0,1-.61,0c-.13-.08-.29-.29-.13-.43"/><path class="cls-11" d="M582.41,377.88a7.48,7.48,0,0,1,3.1-1.57.62.62,0,0,1,.53.14.25.25,0,0,1,0,.37"/><path class="cls-11" d="M587.67,377.12a3.84,3.84,0,0,0,2.92-2.63,5.19,5.19,0,0,0-2.25-5.56.21.21,0,0,1,0-.39.74.74,0,0,1,.67.1,5.86,5.86,0,0,1,2.65,4.62,4.2,4.2,0,0,1-2.29,3.95,4.69,4.69,0,0,1-1.3.46.68.68,0,0,1-.64-.2c-.12-.21,0-.32.2-.35"/><path d="M482.24,374.92a69.62,69.62,0,0,0-7.8-10.29,22.45,22.45,0,0,0-5.16-4.26,6.48,6.48,0,0,0-2.72-1,1.7,1.7,0,0,0-.45,0c-.67.1-.84.71-1.06,1.28-1.44,3.73-.72,8,.71,11.62.15.38,1.24,0,1.11-.3a17.58,17.58,0,0,1-1.32-9.08,8.76,8.76,0,0,1,1-3.22l-.6.29h0c.16.05.09,0,.36,0a6.7,6.7,0,0,1,1.74.66,25.37,25.37,0,0,1,7.1,6.32,80.59,80.59,0,0,1,6,8.31c.2.3,1.28-.06,1-.43Z"/><path class="cls-12" d="M603.45,319.6c-8.06-1.13-13-.34-25.76,3.62l0,.3c.1,1.73,0,.76.15,2.5.08,1.32.17,2.64.25,4,4.17-1.35,7.13-2.74,9.83-3.37,5.12-1.2,10.9-3.19,16.23-2.91C603.9,322.33,603.65,321,603.45,319.6Z"/><path class="cls-12" d="M553.56,327.48c.21,1.72.09.76.3,2.49l.45,3.93c-4.6-.55-8-1.36-10.9-1.47-5.85-.23-12.61-1.19-18.31.37-2.73.74-6.63,1.88-8.33,4.47-.45.69-1.18,3.08-2.33,2.75-.47-.14,0-2.34.06-2.57,1-4.45,4.67-6.71,9.33-8.32,3.6-1.24,20.36-2.94,29.7-1.95"/><path class="cls-13" d="M480.59,396.22A7,7,0,0,0,485,408.64a8.7,8.7,0,0,0,2.88-.67,7.66,7.66,0,0,0,4.49-4.64c.14-.37-.5-.45-.72-.43a1,1,0,0,0-.91.6,6,6,0,0,1-3.24,3.54,6.81,6.81,0,0,1-1.53.47c-.15,0,.19,0,0,0l-.13,0-.25,0-.33,0s-.09,0,0,0a5,5,0,0,1-.54-.07,6.66,6.66,0,0,1-1.3-.38,6.17,6.17,0,0,1-2-1.37,6.33,6.33,0,0,1-1.74-4.18,6.54,6.54,0,0,1,2.22-5c.28-.25.14-.57-.18-.68a1.26,1.26,0,0,0-1.14.31Z"/><path d="M481.84,375.06c-1.78.25-4.15.95-3.44,3.21.63,2,2.16,3.6,2.74,5.64a3.35,3.35,0,0,1-.33,2.89c-.32.46-.38.49-.92.34a4.79,4.79,0,0,1-1.55-.85,11.83,11.83,0,0,1-3.15-3.84,15.38,15.38,0,0,1-1.14-2.71,6.1,6.1,0,0,0-.4-1.06c-1.25-2.23-2.7-6.16.08-7.85.47-.28-.64-.17-.85,0-2.68,1.62-1.91,4.93-.79,7.31.17.36.38.71.56,1.07.27.57.39,1.23.62,1.82a14,14,0,0,0,3,4.73c1.35,1.4,4.1,3.1,5.64.94,1.38-2-.07-4.36-1.08-6.13a9.37,9.37,0,0,1-1.41-3.1c-.2-1.42,1.1-1.78,2.26-1.94.45-.07,1-.54.2-.43Z"/><path class="cls-12" d="M578.87,344.85s8.92-9,13.57-10.08c6.79-1.57,11.42,2.2,14.3,5.25,0,0-8.25-4.65-13-3.4C589.2,337.81,578.87,344.85,578.87,344.85Z"/><path class="cls-12" d="M540.88,344.8a4.94,4.94,0,0,0-5.16,1.65,4.82,4.82,0,0,0-1.13,2.39,5,5,0,0,0,1.73,4.29,4.56,4.56,0,0,0,5.31.22,5,5,0,0,0,1.7-6.13,4.49,4.49,0,0,0-2.45-2.42"/><path class="cls-12" d="M551.78,349.22s-10.79-5.85-15.89-5.68c-9.19.3-17,6.55-19.12,10.26,0,0,12.21-8.51,17.45-8.57C539.23,345.17,551.78,349.22,551.78,349.22Z"/><path class="cls-14" d="M583.91,280c2.33,8,12.58-.35,6.21-1.57.23-4.07-5.61-5-6-9-.2.39-.32.69-.32.69s-.78-4.84-2.57-5.81-9.57-3.7-9.57-3.7l-2,2c0-.13.61-1.83-.65-2.65s-14.49-5.68-22.34-4.15l-.77.17L542.88,258l-.11.08.12-.09c.53-.42,1.67-1.43.94-2a2.87,2.87,0,0,0-1.55-.46,28.94,28.94,0,0,0-4.85.15v0l-.53.09-.54.05v0a28.86,28.86,0,0,0-4.73,1.1,2.87,2.87,0,0,0-1.38.85c-.55.78.81,1.46,1.43,1.73l.14.05-.13,0-3.51-1.28a7,7,0,0,0-.79,0c-8,.54-19.49,8.63-20.51,9.76s0,2.6.05,2.72l-2.43-1.38s-9,4.93-10.47,6.31-1.84,4.29-1.84,4.29-2.76,1.44-3.84,1.23-6.09,3.31-7.9,6.79c-1.15,2.23-.39,4.09-.86,6h0c-.26,1.06-.4,1.76-.4,1.76l-5.32,2.59C469.69,301,472,310,472,310c-7.36,11.91-6.6,21.13-1.38,30.49,2,3.6-8.34,8.86-1.39,7.8S485,368.59,485,368.59s4.86-9.39,4.63-13.43-3.74-15.63-3.74-15.63l3.33-.93s2-1.11,3.86-6-3.72-12.32-3.72-12.32l-2-4.7,6.7-.41c6.26-1.94,5.71-8.93,5.71-8.93l-2.62-11.41,4.35,3.37a4.78,4.78,0,0,0,3.92,1.18c9.84-2.05,10.2-8.39,10.2-8.39l.57-6,2.74,1.34c3,1.84,11.53,4.14,15.45,1.82,1-.62,5.15-4.76,5.83-5.34,2.41-2.29,2.32-6,2.19-7.42-.44-.33-.87-.75-1.29-1.11-1.62-1.35-2.22-.62-.6.74,2.8,2.34,7.42,5.54,11.1,5.23s10.94-2.77,11.66-4.53c.49-1.17-.65-1.16.65-1.28a4.3,4.3,0,0,1,3,1.32c1.94,1.71,3.44,4.4,6,5.3,3.67,1.31,5.5-.86,8.86-2A1.64,1.64,0,0,1,583.91,280Z"/><path class="cls-15" d="M591.31,272.47s1.4-7.78-3.49-11.51-23.73-18.82-52.27-15.13Z"/><path class="cls-16" d="M437,310.47s-20.35,15.41-32.14-1.06,12.57-26,12.57-26"/><path class="cls-17" d="M421.41,222.2s9.12-20.49,25.21-19.26,9.49,28.25,9.49,28.25"/><path class="cls-18" d="M489.72,439s21.14,43.2,59.49,39.28,27.54-29.75,27.54-29.75c7.19,2.85,58.74,23,58.74,23s14.89,49.38,18.49,90.72S639.8,630,639.8,630l9.76,90L576,770.45,453.26,743.78s-2.05-54.54-19.57-120.7-11.82-68.32-10.77-96.18,9.18-56.64,14.5-55.36l46-29.8"/><path class="cls-19" d="M652,741.6,661.74,781c10.6,43.94,11.12,142.31,7.14,261.37l2.19,165.78s-4.47,23.8-.13,23.95c14.79.53-60-.2-75.45-3.36a188.54,188.54,0,0,0-68.71-1.4l-11.72,1.87a127.88,127.88,0,0,1-68.81-8.1l-36.12-20s32.51-179.4,3.75-297c-20.61-84.27,23.19-141.27,46.8-177.2Z"/><path class="cls-18" d="M448.53,704.16s-13.6,60-18.6,71,63.13,42.56,90.48,44.77,136.13,22.5,152.09,3.26l-27.3-141.7Z"/><path class="cls-18" d="M438.12,747.43c-7.83,23.25-27.85,80.6-27.85,80.6a539.39,539.39,0,0,0,137.27,16.73c40.89-.38,87.28-1.88,125-19.21-7.29-23.13-9.52-50.12-15.93-73.56Z"/><path class="cls-18" d="M486,440.87s-11.61,5-29.2,12.27c-12.81,5.32-44.74,23.12-55,45.46s-4,62.6,10.32,87.44,15.55,34.42,15.55,34.42l62-76.41L486,439.64"/><path class="cls-12" d="M596.38,336.11a5,5,0,0,1,5.41.26,4.84,4.84,0,0,1,1.71,2,4.91,4.91,0,0,1-.57,4.58,4.57,4.57,0,0,1-5.08,1.59,5.06,5.06,0,0,1-3.22-5.49,4.53,4.53,0,0,1,1.75-3"/><path class="cls-4" d="M185.19,469.14s6.88,32.52-.25,55.47"/><path class="cls-2" d="M233.88,434.66c-2.21-1-4.65.18-6,1.52a5.44,5.44,0,0,0-1.44,2.65,5.56,5.56,0,0,0,1.68,5,5.18,5.18,0,0,0,6,.62,5.73,5.73,0,0,0,2.34-6.85,5.11,5.11,0,0,0-2.63-2.91"/><path class="cls-2" d="M245.3,442.76S237,432.2,229,432.77c-11.22.8-13.39,7.52-15.59,11.08,0,0,6.71-8.49,15.4-8.89C236.73,434.59,245.3,442.76,245.3,442.76Z"/><path class="cls-2" d="M241.2,413.46c.63,1.46.28.64.9,2.11l1.41,3.35c-4,.59-7,.67-9.45,1.26-4.91,1.16-10.78,1.9-15.11,4.6-2.07,1.29-4.93,2.72-5.66,5.39-.2.72-.25,3.46-1.3,3.44-.42,0-.61-2.05-.63-2.26-.35-4.14,2.13-7,5.58-9.49,7-5.1,11.07-6.52,24.16-8.66"/><path class="cls-11" d="M268.57,469.23a8,8,0,0,1-7.37,0c-.49-.26-2,.12-1.34.48a11.32,11.32,0,0,0,10-.13c.26-.15.2-.36-.14-.45a1.81,1.81,0,0,0-1.18.13"/><path class="cls-11" d="M258.92,469.14a12.82,12.82,0,0,0-4.6-.86,1,1,0,0,0-.68.26c-.12.12-.14.28,0,.37a5,5,0,0,0,2.51.43.93.93,0,0,0,.75-.35c.13-.22-.13-.34-.34-.33a3.79,3.79,0,0,1-2-.35l-.65.64a11.73,11.73,0,0,1,4.11.79,1,1,0,0,0,.82-.15c.16-.1.32-.35.07-.45"/><path class="cls-11" d="M252.72,469.7c-1.84.07-4-.6-5-1.93-1.47-2-.4-5.58,1.81-7,.24-.16.09-.34-.16-.38a1.47,1.47,0,0,0-1,.26,6.76,6.76,0,0,0-2.64,6.21c.39,1.81,2.21,3,4.43,3.38a9.31,9.31,0,0,0,2.05.16c.27,0,.77-.12.89-.34s-.13-.31-.39-.31"/><path class="cls-11" d="M271.87,468.1a.24.24,0,0,1,.21-.36,2.18,2.18,0,0,0,1.4-.56l.51.57a6.37,6.37,0,0,0-2.8,1.2.52.52,0,0,1-.6-.06c-.12-.09-.26-.31-.09-.44"/><path class="cls-11" d="M270.5,468.45a7.08,7.08,0,0,1,3.14-1.33.61.61,0,0,1,.51.19.26.26,0,0,1,0,.38"/><path class="cls-11" d="M275.69,468.12a3.77,3.77,0,0,0,3.05-2.42,5.42,5.42,0,0,0-1.77-5.81.22.22,0,0,1,.07-.39.7.7,0,0,1,.64.16,6.07,6.07,0,0,1,2.23,4.89,4.24,4.24,0,0,1-2.53,3.8,4.06,4.06,0,0,1-1.31.36.64.64,0,0,1-.61-.25c-.1-.22.06-.33.23-.34"/><path class="cls-20" d="M159.22,379.44s-9.75,2.11-13.06,7.18c-8.55,13.07-5.33,46.49,2.32,53.65l12.87,3.26Z"/><path class="cls-21" d="M266.12,482.59c-6.95.38-22.06,5.43-25,8.28,0,0,8.75,8.5,24.87,7.62s18-9.95,18-9.95S275,482.11,266.12,482.59Z"/><path class="cls-22" d="M247.51,487.54s8.23-1.11,14.83-1.47,14.9-.14,14.9-.14.8-5-11.17-4.32S247.51,487.54,247.51,487.54Z"/><path class="cls-4" d="M187.43,478.62c-9.09,9.91-17.34-4.94-17.34-4.94-9.37-10.64-12-22.36-11.84-30.31s8.85-8.06,8.85-8.06c7.44.6,6.42,1.5,17.05,22.34"/><path class="cls-23" d="M177.35,457.65A62.81,62.81,0,0,0,171.88,447a20,20,0,0,0-4-4.69,5.64,5.64,0,0,0-2.26-1.21c-.9-.18-1.32.69-1.7,1.37-1.74,3.15-1.77,7-1.07,10.43.12.6,1.36.28,1.23-.33a15.74,15.74,0,0,1,.28-8.23,7.71,7.71,0,0,1,1.36-2.6l-.57.27c-.37,0-.06,0,0,0s-.05,0,0,0l.23.08a5.85,5.85,0,0,1,1.41.83,22.35,22.35,0,0,1,5.23,6.59,71.81,71.81,0,0,1,4.12,8.46c.24.58,1.46.23,1.23-.33Z"/><path class="cls-23" d="M177.24,461.45c-5.38.49-1.14,6.76-1.38,9.75,0,.17-.1.34-.11.5a2.18,2.18,0,0,0-.12.22l.48-.14-.1,0c0-.06-.36-.33-.41-.4a5.62,5.62,0,0,1-.62-.91,24.83,24.83,0,0,1-1.93-4.61,18.83,18.83,0,0,1-1.1-5.72c-.06-2.39.13-6,2.44-7.35.71-.42-.39-.47-.74-.26-2.15,1.29-2.76,3.85-2.9,6.21a16.29,16.29,0,0,0,.42,5.3,35.22,35.22,0,0,0,2.05,5.73c.38.82.94,2.19,1.85,2.58a1.51,1.51,0,0,0,1.85-.68,4,4,0,0,0-.11-2.65c-.28-1.16-2.43-6.71-.08-6.92.21,0,.72-.08.82-.32s-.08-.3-.31-.28Z"/><path class="cls-9" d="M198.39,500.72s7.28,17.83,40.66,21.42c0,0,7.78,1.27,8.91.36l-1.46-9.59Z"/><path class="cls-24" d="M279.51,434.17s21.33,3.68,23.32,17.31l.19,9.62s9.85,1.06,10,7.87"/><path class="cls-20" d="M143.12,422.4s-29-63.2,11.79-68.2a27.55,27.55,0,0,1,10.3-12.61c9.44-6.52,19.72-1,19.72-1s8.34-8.6,17.32-7.74S215,338.59,215,338.59s10.2-5.8,18.21-2.54,14,10.61,14,10.61,6.45-1.46,10.66.21c10.09,4,12.55,25.63,14.32,33.25,0,0-9.73-25.42-18.45-25.86s-83.45,21.92-83.45,21.92l-17.6,69.26Z"/><path class="cls-4" d="M179.78,489.75c14.63,12.9,44.74,27.2,63.21,28.72,18.12,1.49,23.36-5.09,25.51-8,11.79-16,18.86-31.56,21.91-49a41.8,41.8,0,0,0-.52-14.66c-1.37-7.49-4.53-21.81-5.29-29-1.92-18.42-12-33.36-23.94-47.6-25-29.66-69.13-24.47-86.72-13.37-20.56,13-27.87,35.23-26.53,57.78A60.91,60.91,0,0,0,152,434.82a65.09,65.09,0,0,1,9.39,10.12"/><path class="cls-2" d="M258.51,360.67s6.12,10.54,18.36,31.78c-3.2-6.84-5.73-17.39-13-26.6-25.23-32.19-87.53-20-105-8.2-20.46,13.82-25.85,37.22-24.31,61.55.63,9.87,1,16.19,4.86,24,.15.09,2.09,1.69,2.09,1.69s20.19,1.43,28.15,12.62l-1-10.47s-.2-6.48,2.25-31c0,0,0-3.86,4.91-19.84S187.26,375,187.26,375s31.52-9.1,39.18-9.95S258.51,360.67,258.51,360.67Z"/><path class="cls-3" d="M257.7,360.89q5.57,9.57,11.08,19.16l7.27,12.62c.26.45,1.82,0,1.63-.44-2.24-4.83-3.81-9.93-6-14.78a53.86,53.86,0,0,0-9.26-14.55,52.22,52.22,0,0,0-21.28-13.54c-16.5-5.8-35-5.56-52-2.5a110,110,0,0,0-21.6,6,50.54,50.54,0,0,0-18.34,12.42c-15.57,16.58-16.9,40.29-14.91,61.76a44.24,44.24,0,0,0,4.14,16A4.86,4.86,0,0,0,140,444.5a3.44,3.44,0,0,0,1.07.76,11.28,11.28,0,0,0,1.75.18c7.5.95,15.45,3.12,21.56,7.73a21.71,21.71,0,0,1,4.57,4.61c.26.36,1.62,0,1.57-.52-.32-3.5-.83-7-1-10.56a81.44,81.44,0,0,1,.34-8.41c.48-7.51,1.27-15.25,1.92-22.56.38-4.39,1.72-8.76,2.91-13,2.39-8.45,5-17.17,10.29-24.33a27.71,27.71,0,0,1,1.88-2.3c.26-.28.82-.64,1-1s-.85.25-.11.08c.56-.14,1.11-.32,1.66-.48q8.09-2.31,16.21-4.48c6-1.61,12-3.26,18.1-4.43,5.37-1,10.9-1.46,16.31-2.2q8.72-1.2,17.41-2.45l1-.15c.72-.1,1.39-.93.25-.77-10.76,1.55-21.52,3-32.31,4.4-5.5.7-11,2.3-16.32,3.69-6.15,1.6-12.27,3.29-18.39,5-1.43.4-2.88.76-4.3,1.22A4.3,4.3,0,0,0,185.5,376c-4.73,5-7.65,11.84-9.8,18.27-1.56,4.63-2.89,9.35-4.07,14.09a65,65,0,0,0-1.36,6.49c-.88,6.21-1.23,12.56-1.7,18.83-.32,4.22-.65,8.46-.69,12.7a89.11,89.11,0,0,0,.77,9.21l.2,2.12,1.57-.52c-4.9-6.77-13.52-9.93-21.39-11.63a31.45,31.45,0,0,0-6.74-1.06c-.38,0-.18-.05-.11,0a13.41,13.41,0,0,1-1.76-1.43,10.09,10.09,0,0,1-1.63-3.32,35.55,35.55,0,0,1-1.29-3.81c-1.53-5.5-1.78-11.28-2.13-16.95a110,110,0,0,1,.17-16.83c1-10.35,3.73-20.7,9.38-29.52A48.47,48.47,0,0,1,164,355.2a88.18,88.18,0,0,1,19.21-6.42c16.53-3.78,34.51-4.71,51-.4a57,57,0,0,1,22.31,11,45.77,45.77,0,0,1,9.59,11.08,91.5,91.5,0,0,1,7.26,15.73c.83,2.18,1.65,4.37,2.63,6.49l1.63-.44Q269,377.13,260.24,362c-.31-.52-.61-1-.91-1.57S257.5,360.54,257.7,360.89Z"/><path class="cls-2" d="M219.07,435.54a7,7,0,0,0-5.84,1.86,4.46,4.46,0,0,0-1.32,2.22,3.62,3.62,0,0,0,1.89,3.67,6.32,6.32,0,0,0,6-.21,4.19,4.19,0,0,0,2-5.58,4.11,4.11,0,0,0-2.73-2"/><path class="cls-2" d="M230.74,440.53s-8.68-7.25-16.56-5.9c-11.08,1.89-12.94,7.35-15,10.36,0,0,6.27-7.34,14.86-8.64C221.89,435.17,230.74,440.53,230.74,440.53Z"/><path class="cls-2" d="M272.91,426.2A6.83,6.83,0,0,1,279,426a4.24,4.24,0,0,1,1.9,1.67,3.73,3.73,0,0,1-.71,4.11,6.35,6.35,0,0,1-5.75,1.8,4,4,0,0,1-3.55-4.63,4.32,4.32,0,0,1,2-2.77"/><path class="cls-2" d="M257.77,435.89s5.57-9.68,12.86-10.93c10.27-1.76,13.44,2.84,16.07,5.06,0,0-7.59-5-15.5-3.45C264,428,257.77,435.89,257.77,435.89Z"/><path class="cls-2" d="M285.09,409.57a.86.86,0,0,1,0-.16,17,17,0,0,0-4.54-1.35c-8.23-1.37-12.3-.81-24.41,3.21l0,.27c.11,1.59.05.7.16,2.29.08,1.21.17,2.42.25,3.63,3.65-1.27,6.24-2.56,8.62-3.16,4.7-1.18,10-3.17,14.9-2.73a15.39,15.39,0,0,1,5.12,1.19C285.16,411.7,285.13,410.64,285.09,409.57Z"/><path class="cls-2" d="M226.05,415.24c.36,1.54.16.68.51,2.24.27,1.18.53,2.36.79,3.54-4-.12-7-.58-9.52-.44-5,.27-11,0-15.69,1.84-2.26.9-5.33,1.8-6.53,4.3-.32.67-.87,3.36-1.89,3.15-.42-.08-.23-2.13-.21-2.34.39-4.13,3.33-6.49,7.17-8.34,7.83-3.77,12.06-4.45,25.32-4.22"/><path class="cls-11" d="M256.16,464.15a8,8,0,0,1-7.35.64c-.51-.22-2,.29-1.29.59a11.31,11.31,0,0,0,10-1c.24-.18.16-.38-.18-.44a1.8,1.8,0,0,0-1.16.23"/><path class="cls-11" d="M246.53,464.93a12.76,12.76,0,0,0-4.65-.45,1,1,0,0,0-.66.32c-.11.14-.11.3.07.37a5,5,0,0,0,2.55.2,1,1,0,0,0,.71-.42c.11-.23-.16-.32-.37-.29a3.89,3.89,0,0,1-2.06-.17l-.59.7a11.45,11.45,0,0,1,4.17.41,1,1,0,0,0,.8-.21c.15-.13.3-.38,0-.46"/><path class="cls-11" d="M240.41,466c-1.82.23-4.07-.24-5.17-1.47-1.65-1.87-.9-5.53,1.17-7.19.22-.18.06-.35-.2-.36a1.4,1.4,0,0,0-.93.34,6.76,6.76,0,0,0-2.08,6.43c.55,1.77,2.47,2.77,4.72,3a10,10,0,0,0,2.05,0c.27,0,.75-.2.86-.43s-.16-.3-.42-.27"/><path class="cls-11" d="M259.34,462.73a.24.24,0,0,1,.18-.38,2.16,2.16,0,0,0,1.34-.67l.56.52a6.37,6.37,0,0,0-2.69,1.44.51.51,0,0,1-.59,0c-.13-.08-.29-.29-.13-.44"/><path class="cls-11" d="M258,463.2a7.11,7.11,0,0,1,3-1.6.6.6,0,0,1,.52.14.26.26,0,0,1,0,.38"/><path class="cls-11" d="M263.14,462.41a3.73,3.73,0,0,0,2.82-2.68,5.42,5.42,0,0,0-2.27-5.63.21.21,0,0,1,0-.39.67.67,0,0,1,.65.1,6,6,0,0,1,2.66,4.67,4.26,4.26,0,0,1-2.18,4,4.53,4.53,0,0,1-1.27.47.66.66,0,0,1-.63-.2c-.12-.21,0-.33.19-.36"/><path class="cls-25" d="M263.81,353.62c-3.85-2.34-11.13-5.16-17.66-5.08a6.87,6.87,0,0,0-.79,0l-3.42,1.56-.12.06.13-.07c.61-.31,1.91-1.11,1.3-1.85a2.87,2.87,0,0,0-1.45-.73,28.26,28.26,0,0,0-4.83-.73v0l-.54,0-.55,0v0A29.87,29.87,0,0,0,231,347a3,3,0,0,0-1.52.59c-.68.67.54,1.6,1.11,2l.13.08-.12-.07-3.24-1.89c-.26-.05-.52-.09-.79-.12-8-.9-20.85,5-22.07,6s-.49,2.58-.43,2.7l-2.16-1.8s-9.8,3.26-11.5,4.36-2.6,3.91-2.6,3.91-3,.93-4,.53-6.63,2.17-9,5.29c-1.55,2-1.13,4-1.93,5.77h0c-.46,1-.72,1.67-.72,1.67l-5.74,1.6c-4.62,1.94-4,11.31-4,11.31-9.44,10.46-10.34,19.73-6.86,29.93,1.34,3.94-9.86,7.27-2.79,7.48s15.48,24.58,15.48,24.58,2.94-10.11,3.44-14.14-.88-16.16-.88-16.16l3.47-.31s2.14-.75,4.89-5.21-1.45-12.88-1.45-12.88l-1.11-5,6.7.8c6.55-.79,7.27-7.81,7.27-7.81L190,378.36l3.7,4.13a4.78,4.78,0,0,0,3.67,1.87c10.11-.25,11.61-6.46,11.61-6.46l1.64-5.83,2.47,1.82c2.59,2.36,10.67,6.18,15,4.59,1.13-.42,5.95-3.78,6.73-4.24,2.22-1.44,3-4.07,3.35-5.8,2.34,2.47,5.46,5.05,8.4,5.32,3.56.34,11.33-.76,12.36-2.37.7-1.07-.43-1.27.87-1.15a4.36,4.36,0,0,1,2.77,1.85s3.21,9.77,12.1,13.68,9.27-17.86,1-21.3C275.68,364.47,274.81,352.84,263.81,353.62Z"/><path class="cls-20" d="M139.22,384.5s-9.52,3-12.37,8.31C119.5,406.6,125.7,439.6,134,446l13.11,2.1Z"/><path class="cls-24" d="M135.06,443.5s-13.82-1.19-16.07,7.31l-1,4s-15.33-3.4-19.94,3.9-5.49,21.63-5.49,21.63"/><path class="cls-4" d="M176.17,480.76c-8.16,10.68-17.71-3.37-17.71-3.37-10.28-9.76-13.9-21.2-14.5-29.13s8.1-8.82,8.1-8.82c7.46-.07,6.52.92,19,20.72"/><path class="cls-23" d="M164.23,460.74a62.54,62.54,0,0,0-6.3-10,20.57,20.57,0,0,0-4.37-4.27,6.06,6.06,0,0,0-2.41-1.06c-.91-.11-1.27.59-1.61,1.32-1.51,3.3-1.22,7.14-.21,10.53.15.51,1.38.17,1.23-.33a16,16,0,0,1-.47-8.29,7.92,7.92,0,0,1,1.16-2.8l-.65.35c-.32,0-.07,0,0,0s0,0,0,0l.24.06a5.88,5.88,0,0,1,1.52.73,23.08,23.08,0,0,1,5.94,6.32,73,73,0,0,1,4.76,7.93c.22.42,1.41,0,1.13-.51Z"/><path class="cls-23" d="M164.36,464.58c-5.25,1-.25,7-.39,9.89,0,.16-.1.35-.09.49a1.6,1.6,0,0,1-.11.19l.53-.16-.06,0a3.88,3.88,0,0,0-.44-.33,5.19,5.19,0,0,1-.61-.71,21.48,21.48,0,0,1-2.35-4.35,19.39,19.39,0,0,1-1.72-5.82c-.28-2.48-.39-6,1.87-7.64.23-.17.09-.3-.11-.38a1.13,1.13,0,0,0-.87.24c-2,1.49-2.33,4.28-2.24,6.63a17,17,0,0,0,1.2,5.77,31,31,0,0,0,2.5,5.15c.45.72,1.07,1.84,2,2.06a1.44,1.44,0,0,0,1.72-1,5.07,5.07,0,0,0-.49-2.64c-.42-1.21-3-6.3-.51-6.75.55-.1,1-.76.19-.61Z"/><path class="cls-9" d="M749.54,584.76s-1.33,15.79,22.2,28.45C771.74,613.21,743.72,603.19,749.54,584.76Z"/><path class="cls-26" d="M887.05,497.8a.57.57,0,0,1-.22.11l-.13-.59Z"/><path class="cls-27" d="M937.36,370.12c-10.77,5.92-21,9.16-28.54,27.22l-23.77,81c.16.21-26.93,80.82-27,81.08,0,0,3,.91,8.72,22,3.84,14.17,19.68,40,19.53,55,39-4.13,74.3-75.3,81.11-94.4l-9.76-23.31c1-17.36,1.32-34.76,1.05-52.15-.56-36.94,11.33-65.94,8.17-102.73Z"/><path class="cls-27" d="M861.46,550l-149-27s0,34.42-21.45,49.66c0,0,171.43,95.82,217.74,53.75Z"/><path class="cls-28" d="M860.57,550.66a22.59,22.59,0,0,1,5.15,4.5,38.68,38.68,0,0,1,8.2,15.4,54,54,0,0,1,1.89,14.53c0,.38,2.52,0,2.52-.67,0-12.12-3.74-25.24-13.45-33.2a16.73,16.73,0,0,0-1.93-1.41c-.43-.25-1.19,0-1.62.16-.12,0-1.13.48-.76.69Z"/><path class="cls-4" d="M1084.1,671.07s-7.79,189-20.41,383.68c-10.45,160.1,20.11,365.82,20.11,365.82l40.13,5.83s38.61-228,60.8-372c20.41-132.79,18.55-209.6,18.55-209.6l6.88-192.49Z"/><g id="freepik--character-2--inject-2-2" data-name="freepik--character-2--inject-2"><path class="cls-27" d="M947.76,636c1.08,17.31-2.87,33.56-6,50.31-1.92,10.21-2.58,21.05-4.4,31.22,19.85,10.58,36.38,24.36,57.59,32.35,29.58,11.13,61.61,14.33,93,15.1,29.45.72,59.54,1.25,87.7-8.54a165,165,0,0,0,34-16.73c-19.59-66.72-42.48-112.08-42.49-112.08l-6.43-12.68L1177.9,365.4l-60.05-18.75-27.7-11.29L1087.33,348c-9.66,13.87-22.55,22.31-40,23.9a117.46,117.46,0,0,1-16,.37c-15.36-.68-37.53-8.45-37.23-26.11,0-.52-28.89,12.61-31.13,13.09-12,2.51-33.65,11.9-36.23,16.64,0,0,.32,124.46,1.53,142.58C929.09,531.06,943,560.39,947.76,636Z"/><path class="cls-27" d="M1230.14,832.62c-7.19-57.73-25.17-109-38.88-145.65-28.67,10.16-57.42,19.9-88,22.65-54.61,4.92-108.94-8.25-163.5-10.58-3.81,20.38-4.14,29.41-7.08,49.9.67,1.6-1.8,50-1.8,52.12l3.63,290.7c0,36.22,1.1,101.91,4.62,138,2.52,25.9.38,38.24,2.5,64.17,20.09,12.81,52.28,27.35,70,28.17,100.5,4.62,181.18-29.89,181.18-29.89S1231.76,845.61,1230.14,832.62Z"/></g><path class="cls-9" d="M997.42,332.4s8.55-3.91,14.36-5.92,16-2.25,41.82-27.51c0,0-6.28,29.54-40.7,37.82,0,0-8.88,2.41-14.87,1.32Z"/><path class="cls-4" d="M956.44,156.63a4.29,4.29,0,0,1-.31.65l.35-.32Zm-15,5.88,0,.27c.22-.23.43-.47.61-.7C942.06,161.76,941.45,162.51,941.45,162.51ZM1073,267.2l1.12-5.65c8.27,8.94,19.32-.07,18.46-14,3-7.35,5.53-31-1-37.5l-.81-1c-4.36-2.66-11.66-3.22-14.06,2.43-.72,2.43.42,5.24-.3,7.66-.67,2.75-3.83,8.18-5.26,10.71,0,0-3.74-13-4.31-19.21s-7.45-23.39-19.69-30.5c0,0-2.88-21.74-8.79-27.48l-1.86-.39c-1.06.16-1.71.59-2.77.75,0-.33.25-.7.16-1.35-1.67.91-3.13.8-4.54,1,.3-.38,1-.81.91-1.13a18.88,18.88,0,0,1-4.23.63c.3-.38.91-1.13.86-1.45-1.66.91-2.82.42-4.23.63a2.44,2.44,0,0,0,.51-1.4c-1.31.86-2.77.74-4.18,1,.3-.37.56-1.07.86-1.45-1.66.91-2.82.42-4.23.63-.35,0,.61-.75.56-1.07a13.31,13.31,0,0,1-3.48.85c0-.33.61-.76.56-1.08-2,1-3.17.47-4.59.68l.87-1.45a5.08,5.08,0,0,1-4.13,1.28c.3-.38.91-1.13.86-1.45a7.11,7.11,0,0,1-5.55,1.49c.35-.06.91-1.13.86-1.46-1.57,1.56-3,1.45-4.79,1.71.31-.37.56-1.08,1.17-1.83-1.92,1.61-4.29,2.63-6.56,2,.36-.05.57-1.08.52-1.4-1.22,1.51,1.19-.51-.63-.57,0,0-3.86,1.9-3.91,1.58-1.27,1.18,2.9-6.05,1.14-5.79.25-.7-10,2.12-9.43,1.36-1.57,1.56-1.31.84-3.47.83,0,0-6.75,5-6.45,4.6-1.52,1.88-2.52.64-4.68.63.3-.38,1.47,1.16,1.78.79-1.22,1.5-1-.18-2.76.08-.05-.32-6.08-1.25-6.13-1.57-1.62,1.24-1,1.29-3.14,1.61,0-.33-.79,3.76-.49,3.39-1.22,1.5-1.31.43-3.12.37l-1.57,1.46c-1.53,1.88.79.82-1.37.81,0-.23,8.11-.17,8.37-.65a13,13,0,0,1-4.25,2.68c0-.32.21-1,.17-1.35a7.16,7.16,0,0,1-5.36,2.79c.35-.05.61-.75.56-1.08-1.52,1.88-3.49,3.17-5.76,2.52v-.06a11.29,11.29,0,0,1-4.6,3.06,1.41,1.41,0,0,1,.52-1.4l-1.41.21c-1.38,2.85-2.81,5.38-3,8.73,0,0-9.58,20.39-7.44,32.31s7.36,32,8.49,37.16a104.77,104.77,0,0,1,1.78,16.32c.33,10.63.7,13.39,4.85,23.49,4,9.77,7.35,14.82,14.43,22.7,7.38,8.21,17.16,14.85,26.46,21.4,6.13,4.31,14.28,7.33,22.17,6.53,22-2.23,41.49-20.28,53.35-36.43"/><path class="cls-29" d="M932.3,186.22c5.75-20.14,26.12-33.86,69.92-45.94s81.09-.95,81.09-.95C1053,78.53,988.55,90.28,974.1,92.43S893.46,162,925.74,211.33l1.94,4.82S931.26,189.88,932.3,186.22Z"/><path class="cls-29" d="M1092.79,124.35s-.61-40.83-31.84-49.91c-41.71-12.14-96.14-12.13-109.1,31.84Z"/><path class="cls-30" d="M1103.24,222.06c2.75-3.74.5-12.87,2.73-16.94,11.67-21.32,4.24-39.4-3-49.72-3.14-4.49-1-13.51-1.87-17.73-4.54-22.13-7.2-22.43-43.77-40.39-29.76-14.61-58.9-9.41-75.7-6-26.91,5.49-38.61,9-45.23,29.61-.87,2.7.77,4.52.19,7.7-.83,4.49-7.47,6-7.77,11.53,0,0,36.89,8.82,69.14,20.5s94.57,66.23,95.19,85.27C1093.21,246.5,1100.2,226.2,1103.24,222.06Z"/><path class="cls-29" d="M1075.67,142.64c-16.69-8-45.51-17.68-80.53-12.81,0,0,70.23-20,109.7,26.95l1.06,1.95a49.64,49.64,0,0,1,5.52,16.53L1099.35,161A71.53,71.53,0,0,0,1075.67,142.64Z"/><path class="cls-29" d="M936,129.44l3.58-2a98.79,98.79,0,0,1,26.58-10L981.71,114s-39-1-46,9.89Z"/><path class="cls-31" d="M1079.6,257.26a6.81,6.81,0,0,1,7,5.42,6.64,6.64,0,0,1-.76,4.61,4.94,4.94,0,0,1-2,2,6.13,6.13,0,0,1-5.82.09c-.39-.19-1.77.41-1.21.68a8.37,8.37,0,0,0,6.62.21,8.13,8.13,0,0,0,3-1.8,7.13,7.13,0,0,0-.21-9.81,7.87,7.87,0,0,0-5.93-2.17c-.29,0-.84.1-1,.39s.13.39.39.38Z"/><path class="cls-12" d="M1062.14,204.8l6.57,31.21,9-15.55S1066.61,209.23,1062.14,204.8Z"/><path class="cls-9" d="M1076.55,234.53c1-.14,2.58-.37,2.89.93a7.2,7.2,0,0,1-.42,3.27c-.55,2.26-1.44,5.3.65,7.07,2.64,2.23,5.32-1.84,6.18-3.91a14.47,14.47,0,0,0,.79-8.85c-.68-3-2.05-7-5.4-8-.64-.18-1.77.76-.86,1,2.79.77,4,4.19,4.6,6.7a13.61,13.61,0,0,1-.18,7.89c-.49,1.53-1.28,3.42-2.66,4.37-.9.62-1.66-.24-2-1.1-.87-2.15.39-4.77.76-6.91a3.45,3.45,0,0,0-.38-2.86c-.89-1-2.62-.9-3.82-.73-.83.12-1.16,1.23-.14,1.09Z"/><path class="cls-29" d="M1079.15,187.61s22.93,17.57,25.66,25.47l1.16-8A41.74,41.74,0,0,0,1079.15,187.61Z"/><path class="cls-11" d="M978.92,272.56a10.2,10.2,0,0,0,9.1-1.94c.53-.45,2.52-.39,1.78.23-3.15,2.65-8.81,3.7-12.43,2.45-.35-.12-.33-.39.06-.59a2.3,2.3,0,0,1,1.49-.15"/><path class="cls-11" d="M990.82,269.94a16.67,16.67,0,0,1,5.45-2.25,1.31,1.31,0,0,1,.91.15c.18.12.25.31.05.46a6.26,6.26,0,0,1-3,1.18,1.22,1.22,0,0,1-1-.23c-.21-.24.09-.46.35-.49a4.9,4.9,0,0,0,2.42-1l1,.62a14.74,14.74,0,0,0-4.87,2,1.18,1.18,0,0,1-1.05,0c-.23-.09-.49-.34-.2-.54"/><path class="cls-11" d="M998.62,269c2.28-.4,4.82-1.79,5.69-3.67,1.31-2.84-.88-6.7-4-7.93-.34-.13-.21-.39.09-.5a1.93,1.93,0,0,1,1.26.06,8,8,0,0,1,4.81,6.68c0,2.32-2,4.23-4.6,5.3a13.18,13.18,0,0,1-2.49.72c-.34.06-1,.05-1.19-.19s.08-.42.41-.47"/><path class="cls-11" d="M974.56,272a.3.3,0,0,0-.36-.38,2.74,2.74,0,0,1-1.86-.32l-.49.83a8.12,8.12,0,0,1,3.77.74.68.68,0,0,0,.72-.22c.12-.15.24-.46,0-.58"/><path class="cls-11" d="M976.34,272.1a9.1,9.1,0,0,0-4.22-.8.75.75,0,0,0-.58.36c-.09.17-.09.37.08.46"/><path class="cls-11" d="M969.85,273.05a4.7,4.7,0,0,1-4.38-2.17,6.74,6.74,0,0,1,.69-7.57.28.28,0,0,0-.18-.47.91.91,0,0,0-.76.37,7.55,7.55,0,0,0-1.5,6.57,5.31,5.31,0,0,0,4.1,4,5.79,5.79,0,0,0,1.71.1c.22,0,.61-.19.68-.47s-.15-.38-.36-.36"/><path class="cls-12" d="M949.88,231.06a4.93,4.93,0,0,0-6.53,4.37,5.16,5.16,0,0,0,1.9,4.46,4.79,4.79,0,0,0,5.58.14,5.3,5.3,0,0,0,1.67-6.48,4.76,4.76,0,0,0-2.62-2.49"/><path class="cls-12" d="M968.34,235s-10.65-6.08-15.6-5.84c-7.22.35-15.39,5.6-17.39,9.51,0,0,10.72-7.63,15.82-7.73C956,230.83,968.34,235,968.34,235Z"/><path class="cls-12" d="M1010.57,222.36c1.8-1.31,5-1.5,6.45-.56a5.06,5.06,0,0,1,1.83,2.1,5.16,5.16,0,0,1-.51,4.82,4.79,4.79,0,0,1-5.3,1.76,5.28,5.28,0,0,1-3.48-5.7c.05-.4-.45-1.09,1-2.14"/><path class="cls-12" d="M999,229.44s9.74-8.45,15-9.4c7.69-1.37,17.59,1.78,20.64,5.1,0,0-13.16-4.86-18.55-3.74C1010.94,222.47,999,229.44,999,229.44Z"/><path class="cls-12" d="M964.87,210.41l.33,4.37q.12,1.68.24,3.33c-3.79-.64-7-1-9.45-1.21-5.14-.44-7.77-.65-10.67.08a28.62,28.62,0,0,0-6.58,2.66,18.65,18.65,0,0,0-3.4,2.16c-2.35,2-3.21,4.12-3.63,4s.08-2,.13-2.16a17,17,0,0,1,4.73-7.8,20.16,20.16,0,0,1,6.6-3.69c2.85-1,10.88-2.15,21.7-1.72"/><path class="cls-12" d="M996.15,204l.69,4.33c.17,1.1.35,2.2.53,3.29,3.86-1.54,7.2-2.67,9.73-3.46,5.34-1.68,8.07-2.52,11.33-2.52a33,33,0,0,1,7.59,1,20.53,20.53,0,0,1,4.12,1.28c3,1.38,4.38,3.23,4.79,3s-.56-1.89-.65-2.06a17.29,17.29,0,0,0-6.86-6.44,22.75,22.75,0,0,0-7.87-2c-3.25-.26-12,.54-23.4,3.59"/><path class="cls-32" d="M990,286c11.23-1.68,29.22-5.76,29.22-5.76s.81,26.16-25.22,30-31.91-21.26-31.91-21.26S978.79,287.7,990,286Z"/><path class="cls-33" d="M989.91,286c5.34-.79,23.27-3.22,23.27-3.22s-1.71,17-21,19.85c-20.93,3.13-25.57-13.41-25.57-13.41Z"/><path class="cls-34" d="M989.8,286.91c5.34-.8,21.44-4.16,21.44-4.16s-4.94,6.95-21,9.34-22-2.75-22-2.75Z"/><path class="cls-32" d="M961.7,287.74c.54-.23,1.07.15,3.68-.48,4.36-1.05,7-2.68,10.11-3.41,5.4-1.25,9.21.47,11.58.12s5.52-3.12,11-3.49c3.24-.23,11.34-.2,15.82-.46,2.69-.16,5.63-1.7,6.22-1.64.82.09.19,6.33-29.68,10.79S960.94,288.06,961.7,287.74Z"/><path class="cls-27" d="M1155.52,502l11.12-140.07s31.78,4.61,47.25,51.34c13,42.76,50.56,169.79,49.92,197.68S1239,811.17,1239,811.17l-51.69-6.64-4.29-199.43Z"/><path class="cls-4" d="M1176.93,923a174.34,174.34,0,0,1,17.84-18.72l6.42-22.72-3.32-11.42L1192,870s-1.07,29.73-5.83,34.76-7.23,5-7.23,5l-4.14-6.81,5.74-43.86s5.3-18.67,7.1-23a89.2,89.2,0,0,1,7.64-11.78l-.17-19.86,37.15,5c-1.2,6-2.59,11.58-4.34,18.43l1.06,47.23-9.86,20.07-12.67,17.84-30.85,19.84S1171.19,930.75,1176.93,923Z"/><path class="cls-27" d="M947.18,648.47s-5.53,74.07-11.45,93c0,0,47,4.36,134.93-13.82s130.13-43.49,130.13-43.49l-40.06-69.25.47-33.51-214,67.07"/><path class="cls-28" d="M1180.42,657.1l.57,14.8,1.35,35.26,1.64,42.61,1.42,36.94.46,12.13.15,3.77a10.34,10.34,0,0,0,.08,2,2.09,2.09,0,0,1,0,.25c0,.27.6.25.74.25h7.78c.46,0,1.44-.19,1.68-.64s-.22-.54-.63-.54h-7.78l.73.25-.56-14.79-1.36-35.26-1.63-42.62-1.42-36.93-.47-12.14-.14-3.77a11.23,11.23,0,0,0-.08-2,1,1,0,0,1,0-.25c0-.58-2.55-.14-2.52.68Z"/><path class="cls-4" d="M804.8,565.12l15.19-16s19.54,3.57,30.09-.72a85.45,85.45,0,0,0,20.57-13.09l24.2-9.34s13,1.88,13.7-2-4-5.82-8.62-7.7-72.66-6.17-72.66-6.17a115.29,115.29,0,0,1,16.13-12.48c8.88-5.6,9-9.91,4.38-13.77s-15.69,6.27-19.94,9.92c-4.57,3.92-17.6,4.87-25.68,11.78S792.74,527,792.74,527c-2.81,3.14-10.62,10.58-10.62,10.58C782.26,538.41,804.8,565.12,804.8,565.12Z"/><path class="cls-9" d="M880.38,526a7,7,0,0,0-3.48-3.14c-3.76-1.66-9.34-1.49-14.79.22a45.09,45.09,0,0,0-12.63,6.72,20,20,0,0,0-4.44,3.8,24.13,24.13,0,0,0,5.08-2.86,57.73,57.73,0,0,1,12.53-6.18c5.17-1.65,10.47-1.9,13.83-.68a7.27,7.27,0,0,1,3.36,2.44c.59.8.8,1.3.87,1.34S880.85,527,880.38,526Z"/><path class="cls-9" d="M848.76,522.29c-5.5-.13-10,.1-9.92.52s4.48.88,10,1,9.92-.1,9.9-.53S854.25,522.42,848.76,522.29Z"/><path class="cls-9" d="M833.31,524.44c3.54,3.73,4.68,7.64,5.1,7.69s-.13-4.52-3.95-8.67-8.53-5.14-8.53-4.74C825.77,519.15,829.78,520.71,833.31,524.44Z"/><path class="cls-18" d="M679.05,549.27l32.49,57.31,73.56-74.39,36.14,29.28s-40.12,68.76-66.32,95.44c-17.25,17.57-34.08,43-60,39.32-42.2-6-59.41-68.22-59.41-68.22l40-89.89"/><path class="cls-18" d="M665.2,511.49c-9.11-15.75-18.78-33.09-29.71-39.94-37.69-17.63-59.16-22.09-59.16-22.09l42.89,89.91,20.13,73.18h74.53S677.08,532.21,665.2,511.49Z"/><path class="cls-35" d="M710.66,604.85A51.29,51.29,0,0,0,693,632.71,52.84,52.84,0,0,0,691.59,645c0,.28,1.45.06,1.45-.39a51.77,51.77,0,0,1,13.27-34.48,44.56,44.56,0,0,1,5.47-5.17c.59-.47-.84-.3-1.12-.09Z"/><path class="cls-28" d="M1158.84,391.8c-4.2,1.77-7.88,5.42-10.6,8.95-7.59,9.84-9.82,22.64-9.34,34.79a157.46,157.46,0,0,0,2.64,21.53c1.32,7.39,2.93,14.72,4.7,22,3.33,13.69,7.2,27.24,11.39,40.69,2.18,7,4.27,14,6.85,20.88l.1.31c.39,1.09,2.9.39,2.52-.68-1.94-5.53-3.76-11.11-5.53-16.7-4-12.69-7.79-25.47-11.11-38.37-3.58-13.95-6.81-28.1-8.42-42.43-1.46-13-.8-27,6.25-38.41a33.44,33.44,0,0,1,7.1-8.21,26.22,26.22,0,0,1,2.86-2.06,6.51,6.51,0,0,1,.8-.47l.65-.33.23-.11c.46-.19,1-.75.61-1.24s-1.23-.35-1.7-.15Z"/><path class="cls-28" d="M918.33,438.77a84.33,84.33,0,0,1,2.82,18.53,33.65,33.65,0,0,1-.71,6.41c-.53,3-1.15,6-1.75,9.05-3.13,15.77-6.32,32-3.85,48.1,1.95,12.66,6.08,26,15,35.61a29.92,29.92,0,0,0,6.35,5.31c.37.23.78.41,1.16.63-.36-.21-.24-.24-.16.25l.31,1.79,4.59,26.9.12.73c.14.8,2.67.21,2.52-.67l-4.25-24.92-.77-4.5a1,1,0,0,0-.61-.89,23.85,23.85,0,0,1-4.88-3.57c-8.64-7.95-13.17-19.67-15.63-30.89a86.8,86.8,0,0,1-1.81-25.36,213.08,213.08,0,0,1,3.56-24.23c1.13-5.86,2.61-11.73,3.25-17.67a39.48,39.48,0,0,0-.41-9.15c-.46-3.48-1.11-6.93-1.88-10.35-.13-.6-.27-1.19-.42-1.79-.2-.82-2.72-.17-2.51.68Z"/><path class="cls-35" d="M644.58,519a14.84,14.84,0,0,0-1.28,4.81,45.8,45.8,0,0,0,.72,14.72,153.19,153.19,0,0,0,3.44,15.24c.91,3,1.86,6.06,2.78,9.1,1.63,5.36,3.65,10.79,4.25,16.39,1,9.71-1.9,19.42-6.41,27.94a78.39,78.39,0,0,1-5.44,8.76,7.28,7.28,0,0,0-1.19,1.69c-.22.82.8.71,1.28.32l-1.2-.2c-.55,3.77-.93,7.58-1.19,11.38a88.24,88.24,0,0,0-.22,9.2,22.69,22.69,0,0,0,1.13,7.27c.22.57,1.66.16,1.45-.39a22.61,22.61,0,0,1-1.13-7.31,88.52,88.52,0,0,1,.25-9.21c.26-3.7.63-7.41,1.17-11.09.09-.57-.94-.4-1.19-.2s1,.29,1.06.26.3-.44.42-.6l1.61-2.28a76.63,76.63,0,0,0,5-8.25c4.14-8,6.84-17.08,6.22-26.21-.37-5.54-2.25-10.82-3.84-16.1-1-3.25-2-6.49-3-9.74-1.31-4.3-2.25-8.65-3.13-13.05-1.08-5.48-2-11-1.5-16.6a15.93,15.93,0,0,1,1.33-5.76c.35-.66-1.11-.59-1.37-.09Z"/><path class="cls-32" d="M575,391.71c-9.53,1.21-25.12,2-25.12,2s5.32,21.5,27.42,18.71,21.13-24.63,21.13-24.63S584.54,390.51,575,391.71Z"/><path class="cls-33" d="M575.1,391.7c-4.53.58-19.7,2.7-19.7,2.7s5.28,12.44,21.67,10.37c17.77-2.25,17.76-15.79,17.76-15.79Z"/><path class="cls-34" d="M575.38,392.38C570.85,393,557,393.9,557,393.9s5.62,4.54,19.21,2.82,17.28-7.28,17.28-7.28Z"/><path class="cls-32" d="M598.47,386.63a22.87,22.87,0,0,1-3.11.45c-3.79.14-6.27-.59-9-.46-4.68.21-7.39,2.49-9.41,2.74s-5.2-1.27-9.8-.32c-2.69.56-9.28,2.44-13,3.25-2.23.49-5-.09-5.45.09-.64.26,1.3,5.21,26.66,2S599.16,386.71,598.47,386.63Z"/><path class="cls-32" d="M250.49,477.18c-9.84,1.1-25.93,1.69-25.93,1.69s5.18,22.23,28,19.67,22.13-25.07,22.13-25.07S260.33,476.07,250.49,477.18Z"/><path class="cls-33" d="M250.58,477.17c-4.68.52-20.33,2.5-20.33,2.5s5.24,13.92,22.16,12c18.35-2.06,18.55-17,18.55-17Z"/><path class="cls-34" d="M250.87,477.87c-4.68.53-19,1.3-19,1.3s5.72,4.76,19.76,3.18,17.91-7.25,17.91-7.25Z"/><path class="cls-32" d="M274.74,472.27a23.91,23.91,0,0,1-3.21.42c-3.91.09-6.45-.69-9.28-.6-4.84.15-7.66,2.46-9.74,2.69s-5.35-1.39-10.09-.47c-2.79.54-9.61,2.38-13.45,3.16-2.3.47-5.12-.16-5.61,0-.67.25,1.26,5.38,27.44,2.44S275.45,472.37,274.74,472.27Z"/><path class="cls-18" d="M453.92,588.22,431.69,468.76s-26.92,6.83-36,48.43c-7.33,37.95-28.13,150.6-25.06,174.54s39.42,170,39.42,170l43.85-10.38L439.56,679.43Z"/><path class="cls-4" d="M473.59,952.32a151.75,151.75,0,0,0-17-14.48l-7.58-19,1.83-10.13,5-.65s3.6,25.47,8.15,29.36,6.68,3.66,6.68,3.66l2.94-6.23-8.91-37.21s-6.24-15.57-8.18-19.09a76.9,76.9,0,0,0-7.64-9.44l-1.64-17.1-31.5,7.64c1.57,5.07,3.27,9.73,5.39,15.46l3.37,40.72,10.29,16.37,12.51,14.2,28.33,14.27S479.22,958.45,473.59,952.32Z"/><path class="cls-35" d="M444.68,723.79l.85,12.7,2,30.5L450,803.88l2.12,31.87.69,10.43.22,3.28a7.58,7.58,0,0,0,.11,1.72,1.5,1.5,0,0,1,0,.22l.79-.6-6.69.7c-.82.09-1.1,1.21-.12,1.1l6.69-.7c.28,0,.82-.23.8-.6l-.85-12.7-2-30.5-2.46-36.89-2.12-31.87-.69-10.44c-.11-1.65-.13-3.34-.33-5,0-.07,0-.15,0-.22,0-.78-1.51-.57-1.47.1Z"/><path class="cls-35" d="M440.27,494.9a19.07,19.07,0,0,1,5.55,3.06,33.29,33.29,0,0,1,10.24,13.15c6,13.36,4.74,28.55,3.32,42.74-1.54,15.25-3.84,30.42-6.3,45.54q-3.54,21.76-7.66,43.44-1.41,7.47-2.86,14.93c-.47,2.39-1.12,4.81-1.43,7.23,0,.11-.05.21-.07.32-.14.68,1.34.49,1.47-.13q1.88-9.28,3.63-18.61,4-21.27,7.61-42.61c2.57-15.46,5-31,6.68-46.57,1.54-14,3.21-29-1.36-42.61a37,37,0,0,0-9.83-15.72,24,24,0,0,0-7.73-4.95c-.14-.05-.27-.11-.41-.15-.59-.18-1.71.68-.85.94Z"/></g></svg>