<?xml version="1.0" encoding="utf-8"?>
<!-- Generator: Adobe Illustrator 26.0.1, SVG Export Plug-In . SVG Version: 6.00 Build 0)  -->
<svg version="1.1" id="Layer_1" xmlns="http://www.w3.org/2000/svg" xmlns:xlink="http://www.w3.org/1999/xlink" x="0px" y="0px"
	 viewBox="0 0 298.8 825.5" style="enable-background:new 0 0 298.8 825.5;" xml:space="preserve">
<style type="text/css">
	.st0{fill:#956243;}
	.st1{fill:#C95744;}
	.st2{fill:#653C2A;}
	.st3{fill:#642B11;}
	.st4{fill:#4C2713;}
	.st5{fill:#361B10;}
	.st6{fill:#9C4B23;}
	.st7{fill:#A93924;}
	.st8{fill:#794C36;}
	.st9{fill:#CE8D2A;}
	.st10{fill:#010101;}
	.st11{fill:#13110F;}
	.st12{fill:#B15E27;}
	.st13{fill:#DF8C26;}
	.st14{fill:#FFFFFF;}
	.st15{fill:#653C29;}
	.st16{fill:#31160E;}
	.st17{fill:#F1EEF7;}
</style>
<path class="st0" d="M65.3,464.7c-3.2-4.6-6.8-8.9-10.7-13l-3.1-15.1l2.7-7.3l3.8,0.2c0,0-0.7,19.4,2.1,22.9
	c2.9,3.5,4.5,3.6,4.5,3.6l3-4.2L66,423c0,0-2.6-12.4-3.5-15.3c-1.3-2.8-2.7-5.5-4.4-8l0.9-11.4l-25.5-2.8c0.8,4.7,1.9,7.6,3.2,14.9
	l-2.9,30.7l5.5,13.5l7.4,12.2l19.1,14.4C65.8,471.3,68.7,470,65.3,464.7z"/>
<path class="st1" d="M60.9,309.5L79.8,244l-6.6-77c0,0-14.3,0-23.7,22.4c-8.6,24-27.8,106-28.3,121.9c-0.1,4.8,10.8,73.1,11.7,86.8
	h29.3L60.9,309.5z"/>
<path class="st1" d="M248.4,200.8l-11,36.5l-15.7-50.7c-1.8-6.8-10.5-15.9-17.2-18.2l-12.5-4.1l-11.2,59.8l24.6,60.2
	c2.3,5.6,10.1,14.6,15.5,17.2c10,4.9,22.4,7.6,31.5,1.5c2.5-1.7,6.7-7.6,8.4-10.8c4.1-7.8,8.6-30.4,9.3-39.2l6.1-48.3L248.4,200.8z"
	/>
<path class="st0" d="M251.6,199.1c0,0-8-10.7-8.8-16.8c-0.2-1.7-7.8-15.9-7.8-15.9s2.8-3.3,6.8,1.8c4,5.1,5.6,7.3,5.6,7.3l1.7,0.9
	l4.6-9.9c0,0,3.4-12.1,4.5-14.9c1.1-2.8,3.1-9.1,7-8.8c0,0,1.2-4.7,3.5-4.3c1.1,0,2.2,0.6,2.8,1.5v2.3c0,0,0.9-1.1,2.8,0.3
	c1.9,1.3-1.5,21.7-1.5,21.7l0.5,1.2c0,0,4.5-13.2,5.8-13.3c1.3,0,2.4-0.2,2.5,2.1c0.1,2.3-5,30.9-11,43.5l-0.6,6l-18.6-2.7
	L251.6,199.1z"/>
<path class="st2" d="M270.8,143c-0.3,3.5-0.9,7.1-1.8,10.5c-0.6,3.5-1.5,7-2.7,10.3c0.3-3.5,0.9-7.1,1.8-10.5
	C268.7,149.8,269.6,146.4,270.8,143z"/>
<path class="st2" d="M265.8,142.9c0.2,0-1.1,4.5-2.5,10.1c-1.3,5.6-2.1,10.2-2.4,10.1c0.1-3.5,0.6-7,1.5-10.3
	C263.1,149.3,264.2,146,265.8,142.9z"/>
<path class="st2" d="M252.3,175.9c6.3,1.9,11.4,6.6,13.9,12.7C266.2,188.6,262.2,173.6,252.3,175.9z"/>
<path class="st3" d="M237.9,236.6c0,0-10,22.4-10.8,33l-1.3-2.6C225.8,267,230.7,243.7,237.9,236.6z"/>
<path class="st0" d="M169.7,353c0,0,42.5,45.6,43.3,96.3c0.5,30.3-45,314.9-45,314.9l-22.5,1.1l-22.2-297L104,375.9L169.7,353z"/>
<polygon class="st4" points="145.2,777.6 147.4,794.4 142.8,792 143.2,772.4 "/>
<path class="st5" d="M184.8,808c-0.6-4.4-6.7-16.7-6.7-16.7l-27.6,10.4l-5.7-33.8c-1.2,1.7-1.7,3.8-1.4,5.9
	c0.5,3.4,1.6,14.3,2.5,18.2c0.6,2.7,0.4,15.5,0.4,15.5l0.1,0.6c0.4,2.3,1.2,4.5,2.3,6.6c2.2,5,27.7,4.8,31,2.7
	C183.1,815.3,185.7,814.8,184.8,808z"/>
<path class="st6" d="M145.5,765.2c0,0-3.1,3.3-1,9.7c3.9,12.1,4.6,33.1,5.9,36.2c2.2,5,29.7,3.7,32.5,1c4.9-4.6-0.3-13.4-1.8-16.5
	c-6.7-13.5-13.6-27.7-13.6-27.7L145.5,765.2z"/>
<path class="st0" d="M167.7,761.2l0.6,7.5l8.3,18.3c2.2,5.4,2.3,10.7-3.4,11.2c-0.1,0-3.9,0.8-3.9,0.8c-3.4,0.3-6.9,0-10.2-0.8
	c-4.1-1-5.7-1.6-7-5.6l-7.6-24.3l1.4-7.2C153.8,761.4,159.8,761.6,167.7,761.2z"/>
<path class="st0" d="M93.8,353c0,0-39.4,45.6-40.2,96.3c-0.5,30.3,42,314.9,42,314.9l22.5,1.1l22.2-297l19.3-92.4L93.8,353z"/>
<g id="freepik--character-2--inject-2">
	<path class="st7" d="M215.5,364.1c-2.4-18.5-10.8-5.3-15.4-22.6c-0.5-2-1.1-4.1-1.5-6.1c-0.8-4.1-0.8-8.4,0-12.5l-3.1-0.3
		c-13-0.9-26.1-1.8-39.1-2.7c-13-0.9-26.1-1.8-39.1-2.6c-10.4-0.6-20.8-1.2-31.3-1.7l-1,1.9c1.3-3-19.7,7.6-31.6,74
		c-11.1,61.9,16.7,335.6,16.7,335.6s16.2,6.2,68.8,6.8c19.3,0.2,38.8-5.3,57.5-9.8c10.9-70.1,14.1-122.9,22.5-205.7
		c3.5-34.6,4.1-90.4,0.4-125.1C219.3,392.8,215.6,364.6,215.5,364.1z"/>
</g>
<polygon class="st4" points="118.3,777.6 116.1,794.4 120.6,792 120.3,772.4 "/>
<path class="st5" d="M78.7,808c0.6-4.4,6.7-16.7,6.7-16.7l27.6,10.4l5.8-33.8c1.2,1.7,1.7,3.8,1.4,5.9c-0.5,3.4-1.6,14.3-2.5,18.2
	c-0.6,2.7-0.4,15.5-0.4,15.5l-0.1,0.6c-0.4,2.3-1.2,4.5-2.3,6.6c-2.2,5-27.6,4.8-30.9,2.7C80.5,815.3,77.8,814.8,78.7,808z"/>
<path class="st6" d="M118,765.2c0,0,3.1,3.3,1,9.7c-3.9,12.1-4.6,33.1-6,36.2c-2.2,5-29.7,3.7-32.5,1c-4.9-4.6,0.3-13.4,1.8-16.5
	c6.7-13.5,13.6-27.7,13.6-27.7L118,765.2z"/>
<path class="st0" d="M95.8,761.2l-0.6,7.5l-8.3,18.3c-2.2,5.4-2.3,10.7,3.4,11.2c0.1,0,3.9,0.8,3.9,0.8c3.4,0.3,6.9,0,10.2-0.8
	c4.1-1,5.7-1.6,7-5.6l7.6-24.3l-1.4-7.2C109.7,761.4,103.7,761.6,95.8,761.2z"/>
<path class="st1" d="M197.4,310.9c-0.9-11.3-0.7-22.6,0.6-33.8c0.8-6,11.4-7.3,14.9-18.6c3-10-12-90.1-12-90.1l-28-11l-7.6-1.5
	l-0.6-0.3c-0.1,0.5-0.1,0.9,0,1.4l0.1,0.7c-4.1,7.3-11.6,12.2-20,12.9c-2.9,0.2-5.8,0.2-8.7,0c-9.5-0.6-16.7-5.2-22.2-13l-0.2-3.1
	l-17.8,5.1l-22.5,7.1l-10.9,78.7c0.8,14-0.3,6.6,5.5,19.3l11.6,11.4l-1.8,35.1c-7.6,17.7-22.2,56.3-22.2,56.3l28.4,8.7
	c32.5,9.3,66.8,9.9,99.6,1.8l34.3-8.8C216.4,355,197.5,311.1,197.4,310.9z"/>
<path class="st0" d="M161.8,152.2c-0.5-1.5,0-17.1,0-17.1l-23.1,3.6l-23.1-3.6c0,0,0.6,15.8,0.1,17.3c-0.5,1.5-15.9,6.4-15.9,6.4
	s8.9,15,38.9,15s40.2-13.5,40.2-13.5S162.3,153.7,161.8,152.2z"/>
<path class="st8" d="M115.5,136.1c0.4,0.3,3,3.8,3.4,4.1c9.5,6.7,10.9,8.6,19.1,8.9c8.2-0.3,11.7-1.5,20.5-9.7c3-2.8,2.3-3.6,3-4.2
	C146.8,135.1,130.3,136,115.5,136.1z"/>
<path class="st3" d="M153.4,271.6c-5.7-2.6-11.8-3.8-18.1-3.6c-10,0.5-13.1,1.8-13.1,1.8s13.6-0.1,17.6-0.7
	C143.8,268.6,153.4,271.6,153.4,271.6z"/>
<path class="st0" d="M99.4,87c0,0-4.6-7.1-7.3-6.8c-1.6,0.2,2.1,3.7,2.5,7.8c0.6,5.5-3.4,6.1-2.1,9.2c1.3,3.1,2.9,13.8,7.1,13.3
	c1.7-0.2,3.4-3.9,3.4-3.9S100.8,91.8,99.4,87z"/>
<path class="st9" d="M98,106.9c-1.9,0.1-3.4,1.6-3.7,3.4c-0.1,0.9,0.1,1.7,0.7,2.4c0.4,0.5,0.9,0.9,1.5,1.1c1.3,0.5,2.8,0.3,3.9-0.5
	c0.2-0.1,0.2-0.3,0.1-0.5c0-0.1-0.1-0.1-0.1-0.1c-0.3-0.2-0.7-0.1-0.9,0.1c-0.7,0.4-1.5,0.5-2.3,0.2l-0.4-0.2c0.1,0,0,0,0,0h-0.1
	c-0.2-0.1-0.4-0.3-0.5-0.5c-0.8-1-0.8-2.5,0-3.5c0.1-0.1,0.2-0.2,0.3-0.3l0.2-0.2l0.2-0.1c0.3-0.2,0.7-0.3,1-0.3
	c0.3,0,0.7-0.2,0.7-0.5s-0.3-0.4-0.6-0.4L98,106.9z"/>
<path class="st0" d="M176.3,86.8c0,0,3.9-7.5,6.5-7.5c1.6,0-1.7,3.9-1.8,8c0,5.5,4,5.8,3.1,8.9s-1.5,14-5.7,14
	c-1.7,0-3.7-3.5-3.7-3.5S175.4,91.7,176.3,86.8z"/>
<path class="st0" d="M182,91.2L182,91.2c-0.9,4.8-2.1,9.7-2.9,15.5c-2.1,15.1-6.6,22.1-16.9,28.8c-10.8,7-14,9.7-23.3,10.1
	c-9.3-0.4-12.5-3.1-23.3-10.1c-10.3-6.7-14.8-13.6-16.9-28.8c-0.5-3.4-1.1-6.5-1.7-9.4c-0.4-2.2-0.9-4.3-1.3-6.4l0,0l0,0
	c-1.5-7.6-2.4-14.6-0.3-23.1c2.1-8.8,9.3-19.6,20.3-26.5l0,0c6.9-4.4,14.9-6.7,23.1-6.7c23.9,0,40.2,19.2,43.5,33.2
	C184.5,76.4,183.5,83.5,182,91.2z"/>
<path class="st10" d="M142,110.9c-1.4,0.8-3.1,0.7-4.4-0.2c-0.3-0.2-1.2,0-0.8,0.3c1.8,1.2,4.1,1.2,6,0.2c0.2-0.1,0.1-0.3,0-0.3
	C142.6,110.7,142.3,110.7,142,110.9"/>
<path class="st10" d="M136.2,110.5c-1-0.5-2.1-0.7-3.2-0.8c-0.2,0-0.4,0.1-0.5,0.2c-0.1,0-0.1,0.1-0.1,0.2c0,0,0,0,0.1,0.1
	c0.6,0.3,1.2,0.4,1.8,0.4c0.2,0,0.4-0.1,0.5-0.2c0.1-0.1,0-0.3-0.2-0.3c-0.5,0-1-0.1-1.4-0.3l-0.5,0.4c1,0.1,2,0.3,2.9,0.7
	c0.2,0.1,0.4,0.1,0.6,0C136.3,110.9,136.4,110.7,136.2,110.5"/>
<path class="st10" d="M131.8,110.7c-1.2,0-2.3-0.6-2.9-1.6c-0.7-1.5-0.1-3.3,1.3-4.2c0.1-0.1,0-0.2-0.1-0.3c-0.2,0-0.4,0-0.6,0.1
	c-1.2,0.7-1.9,2.1-1.8,3.5c0.2,1.3,1.3,2.3,2.5,2.6c0.4,0.1,0.8,0.2,1.2,0.2c0.2,0,0.5,0,0.5-0.2C132.1,110.7,132,110.7,131.8,110.7
	"/>
<path class="st10" d="M143.3,110.5c1-0.5,2.1-0.7,3.2-0.8c0.2,0,0.4,0.1,0.5,0.2c0.1,0,0.1,0.1,0.1,0.2c0,0,0,0-0.1,0.1
	c-0.6,0.3-1.2,0.4-1.8,0.4c-0.2,0-0.5,0-0.5-0.2s0-0.3,0.2-0.3c0.5,0,1-0.1,1.4-0.3l0.5,0.4c-1,0.1-2,0.3-2.9,0.7
	c-0.2,0.1-0.4,0.1-0.6,0C143.2,110.9,143.1,110.7,143.3,110.5"/>
<path class="st10" d="M147.7,110.7c1.2,0,2.3-0.6,2.9-1.6c0.7-1.5,0.1-3.3-1.3-4.2c-0.1-0.1,0-0.2,0-0.3c0.2,0,0.4,0,0.6,0.1
	c1.2,0.7,1.9,2.1,1.8,3.5c-0.2,1.3-1.2,2.3-2.5,2.6c-0.4,0.1-0.8,0.2-1.2,0.2c-0.2,0-0.5,0-0.6-0.2S147.4,110.7,147.7,110.7"/>
<path class="st11" d="M150.2,77.2c0,0.9,0,1.7,0,2.6c0,0.9,0,1.3,0,2c2.4-0.6,4.4-0.9,6-1.2c2.2-0.5,4.5-0.7,6.8-0.5
	c1.5,0.2,3,0.6,4.4,1.2c0.8,0.3,1.6,0.7,2.3,1.1c1.6,1.1,2.3,2.3,2.5,2.1s-0.2-1.1-0.2-1.3c-0.7-1.7-1.9-3.2-3.4-4.4
	c-1.4-0.9-2.9-1.5-4.4-1.8C159.5,76.5,154.8,76.5,150.2,77.2"/>
<path class="st11" d="M158.5,87.6c1.5-0.6,3.3,0.1,3.9,1.7c0,0.1,0,0.1,0.1,0.2c0.2,0.9,0,1.9-0.7,2.7c-0.8,0.8-2.1,1-3.1,0.5
	c-1.3-0.7-1.9-2.1-1.5-3.5C157.4,88.4,157.9,87.8,158.5,87.6"/>
<path class="st11" d="M149.7,91.6c0,0,5.9-4.3,8.9-4.6c4.4-0.4,9.8,1.8,11.4,3.9c0,0-7.2-3.4-10.3-3C156.3,88.8,152.9,90,149.7,91.6
	z"/>
<path class="st11" d="M129,77.3c0,0.9,0,1.7,0,2.6c0,0.9,0,1.3,0,2c-2.4-0.6-4.4-0.9-6-1.2c-2.2-0.5-4.5-0.7-6.8-0.5
	c-1.5,0.2-3,0.6-4.4,1.2c-0.8,0.3-1.6,0.7-2.3,1.1c-1.6,1.1-2.3,2.3-2.5,2.1c-0.3-0.1,0.2-1.1,0.2-1.3c0.7-1.7,1.9-3.2,3.4-4.4
	c1.4-0.9,2.8-1.5,4.4-1.8C119.7,76.6,124.4,76.6,129,77.3"/>
<path class="st11" d="M120.7,87.7c-1.4-0.7-3.1-0.1-3.8,1.3c-0.5,1.1-0.3,2.4,0.5,3.2c0.8,0.8,2.1,1,3.1,0.5
	c1.3-0.7,1.9-2.1,1.5-3.5C121.8,88.6,121.3,88,120.7,87.7"/>
<path class="st11" d="M129.5,91.7c0,0-5.9-4.3-8.9-4.6c-4.4-0.4-9.8,1.8-11.4,3.9c0,0,7.2-3.4,10.3-3
	C122.9,88.9,126.3,90.1,129.5,91.7z"/>
<path class="st12" d="M88.6,51.3c14.1-6.1,29.6-8.3,44.8-6.4c25.2,3.2,37.2,19.1,41.5,30.4c2.6,7.3,4.2,15,4.7,22.7
	c0,0,6.2,3.1,10.7-19.9C196.7,44.6,160,15,152,15C143.9,15,100.3,13.8,88.6,51.3z"/>
<path class="st12" d="M93.1,41.5c0,0-4.2-26.5,14-31.4s56.6-13.8,67.8,10.3L93.1,41.5z"/>
<path class="st13" d="M92.2,95.9c-1.9-1.9-3.3-4.3-4-6.9c-2-7.2-5.6-21.8-2.3-28.5c1.4-2.8,2-11.4,2.1-13.9c0.7-13.1-2.4-9.1,16-24
	s21.6-10.8,49.1-9s35.5,10.7,33.4,36.6c0,0-37.2-10.7-54.7-1.2s-36.4,40-35.1,51C95,98.8,93.5,97.4,92.2,95.9z"/>
<path class="st12" d="M84.9,73.7c0,0,28.1-35.9,61-36.3c0,0-42.1-5.5-60.7,24.9L84.9,73.7z"/>
<path class="st12" d="M186.3,38.3c0,0-32.5-11.8-44.9-12.9c-12.5-1,39.4,1,44.3,6.6L186.3,38.3z"/>
<ellipse class="st14" cx="139.7" cy="121.8" rx="10.9" ry="2.3"/>
<path class="st9" d="M179.8,108c1.5,0,2.8,1.1,3.1,2.5c0.2,0.7,0,1.4-0.3,2.1c-0.1,0.3-0.3,0.5-0.5,0.8l-0.1,0.1l0,0l-0.2,0.1
	l-0.3,0.1h-0.1c0.1,0-0.1,0,0,0h-0.2c-0.6,0-1.1-0.1-1.6-0.4c-0.2-0.1-0.6,0-0.8,0c-0.2,0-0.6,0.3-0.4,0.3c1.1,0.5,2.3,0.6,3.5,0.2
	c0.6-0.2,1.2-0.5,1.6-0.9c1.2-1.3,1.2-3.2,0-4.5c-0.7-0.7-1.7-1.1-2.7-1.1c-0.3,0-0.6,0.1-0.9,0.2c-0.2,0.1-0.2,0.3,0,0.3L179.8,108
	z"/>
<path class="st15" d="M140,119.5c-6.3,0-16.4-0.7-16.4-0.7s1.8,12.1,16.4,12.1s16.5-12.1,16.5-12.1S146.3,119.5,140,119.5z"/>
<path class="st16" d="M140.1,119.5c-3,0-15-0.5-15-0.5s4,6.4,14.8,6.4c11.7,0,15.2-6.3,15.2-6.3L140.1,119.5z"/>
<path class="st17" d="M140.2,119.9c-3,0-12.1-0.5-12.1-0.5s3.3,3.2,12.2,3.2c9,0,11.8-3.1,11.8-3.1L140.2,119.9z"/>
<path class="st15" d="M157.1,117.9c-1.2,0.2-2.4,0.3-3.5,0.4c-2.5-0.2-5.5-0.8-7.3-1c-3.1-0.2-5,0.9-6.3,0.9c-1.3,0-3.3-1.2-6.3-0.9
	c-1.8,0.1-4.8,0.8-7.3,1c-1.2,0-2.4-0.2-3.5-0.4c-0.4,0.1,0.4,3.3,17.1,3.3S157.6,118,157.1,117.9z"/>
<path class="st3" d="M196.6,275.9c1.3-2.7,4.6-4.8,6.6-7.1c3.6-4.2,5.8-9.4,6.3-14.9c0.1-5.3-0.5-10.6-1.9-15.8
	c-1.2-4.6-2.6-7.8-3.7-12.4c-1.3-4.3-2.3-8.8-3-13.3c-0.5-4,0.4-8.1,2.4-11.6c-3.4,5.6-1.5,13.9,0.3,19.7c1.9,6,4.4,13.7,5.5,17.9
	c1.9,7.5,3.8,21.1-2.3,28.4c-6.1,7.2-7.5,7.3-8.3,9.2c-0.7,1.5-0.9,8.1-0.9,10.8C197.1,281.7,195.1,278.8,196.6,275.9z"/>
<path class="st3" d="M197.4,286.7c0.1,1.2,0.1,2.4,0,3.6v-2.5C197.4,287.9,197.4,287.4,197.4,286.7z"/>
<path class="st3" d="M79.1,286.8c0.1,1.5,0.1,2.6,0.1,2.6C79.1,288.5,79.1,287.7,79.1,286.8z"/>
<path class="st3" d="M67.3,238.6c1.8-6.8,4.5-13.3,6.2-20c1.5-5.8,2.5-12.7-0.6-18.2c2.4,3.8,3.3,8.3,2.6,12.7
	c-1.6,10.9-5.3,17.9-7.8,28.7c-1.1,5.4-1.2,11.1-0.2,16.5c1.5,5.9,5.2,10.5,9.5,14.8c1,0.8,1.9,1.8,2.7,3c1.5,3.1-0.5,5.3-0.6,10.6
	c-0.1-3.6-0.5-7.1-1.2-10.6c-0.8-1.8-2.2-2-8.3-9.2C63.5,259.8,65.3,246.1,67.3,238.6z"/>
</svg>
