<svg xmlns="http://www.w3.org/2000/svg" viewBox="0 0 637.33 635.77"><defs><style>.cls-1{fill:#c1e7f6;}.cls-2{fill:#d16152;}.cls-3{fill:#a86e57;}.cls-4{fill:#e2a86d;}.cls-5{fill:#42221a;}.cls-6{fill:#b05e27;}.cls-7{fill:#de8b26;}.cls-8{fill:#cd8c2a;}.cls-9{fill:#12100e;}.cls-10{fill:#221e1f;}.cls-11{fill:#643b29;}.cls-12,.cls-15,.cls-16,.cls-17,.cls-20{fill:#14110f;}.cls-13{fill:#f0edf6;}.cls-14{fill:#812a23;}.cls-15,.cls-16,.cls-17,.cls-18,.cls-20{stroke:#151210;stroke-miterlimit:10;}.cls-15{stroke-width:0.51px;}.cls-16{stroke-width:0.51px;}.cls-17{stroke-width:0.53px;}.cls-18{fill:none;stroke-width:1.23px;}.cls-19{fill:#966336;}.cls-20{stroke-width:0.53px;}</style></defs><g id="Layer_1" data-name="Layer 1"><circle class="cls-1" cx="319.06" cy="340.56" r="288.85"/><path class="cls-2" d="M535.66,379.18c-4.1,1.14-113.18,40.58-113.18,40.58l-62.09-66C354,347,353.06,343.25,347,336.21c-15.29-17.72-30.89-49.52-74.79-50.5l-8.76,112.23s114.12,93.28,135.84,105.15,160.56-67.62,160.56-67.62Z"/><path class="cls-3" d="M374.09,546c-.84,30.09-2.58,55.78-3.69,78.85,10.93-1.06,20.7-5.44,31.27-7.61l12.83-81,12.08-85.77-44.86-10.76S375.26,504.07,374.09,546Z"/><path class="cls-4" d="M570.8,482.46l-1.34-101,3.8-39.27s-30.88-20-62.25-31.72c-21-7.86-40.14.52-64.18,7.41-2.69.64-40.87,20.13-52.51,25.8-3.68,1.8-10.21,11.57-11.83,15.33L333.32,470.9l60.92,12.74s16.56,51.82-7.13,137.71C471.07,600.69,530,552.16,570.8,482.46Z"/><path class="cls-4" d="M388.5,421s-12.19,47.52-5.94,65.17,29,28,29,28Z"/><path class="cls-3" d="M444.63,322.34s-11.85,13.45-4.68,22.83,36.77,10.77,55.48,0,23.68-30.38,23.68-30.38Z"/><path class="cls-3" d="M579.33,384.76c-2.91-3.55-6-7-9.14-10.25a117.75,117.75,0,0,0-21.85-18.22c-16.65,27.53-15.32,56-19,91.31-1.4,13.46-5.51,53.72-6.93,67.18-1.12,10.66,7,11.36,8.82,21.56.24,1.36.5,2.72.76,4.07a38.9,38.9,0,0,0,5.39,8.6,20.72,20.72,0,0,0,2.75,2.72,22,22,0,0,0,5.86.58c4.47-.14,6,3.22,7.82,4.61-8.32,7.41,12.34,5,18.72-4.45,6.12-9.07,4.49-10.06,7.44-22.92,2.25-9.76,7.66-52.1,9.86-61.8,1.63-7.22,2.78-27.61,3-35.13C593.86,402.12,572.67,410.5,579.33,384.76Z"/><path class="cls-3" d="M552.94,544.73c.77-5.4,2.19-20-2.62-23.1-15.24-9.69-16.08-8.07-34.85-17.91C487.33,489,449.2,483.44,410.32,463.49c-2.14-1.1-14.06-4.66-19.87-11.05-5-5.48-21.7,15.95-12.67,24.46,13.41,12.64,94.5,70.8,101.82,76.18a12.22,12.22,0,0,0,1,.68c12.21,7.38,35.2,22.09,65.57,21.11,16.58-.53,28.81-16.59,30.54-33.78Z"/><path class="cls-4" d="M573.26,342.19s-19.32-5.12-27-.3c-6,3.76-3.24,6.18-8.64,13.07-12.33,15.72-21.91,103.86-21.91,103.86l79.93,9.07s6.09-53.93-.88-87.94C588.78,350.93,573.26,342.19,573.26,342.19Z"/><path class="cls-2" d="M314.35,495.11c9.85-15.87,17.1-41,17.33-49,.51-17.77-25.52-147.86-25.52-147.86l-28.67-10.05-17.24-5.49-1.13-.28s-3.59.22-3.4,1.13l-2.92-3.2c-6.76,12-12.83,15.81-27.58,17a106,106,0,0,1-14.87.15c-16.25-1-28.49-8.85-37.92-22.11l-.93-8.74-29.56,7.67L94.59,290.76c-1.34,2.09,14.8-1.89,13.38.15C99.51,303,90,314.34,81.06,326.15c-8.59,11.41-25.35,49.13-30.82,62.37-15.42,108.79,112.14,240.92,265,241.19-5.37-26.68-13.57-59.6-13.82-60.51-1.92-7.18-2.64-10.6-1.56-17.92C304.2,521.9,312.37,498.29,314.35,495.11Z"/><path class="cls-3" d="M182.9,199.12s3.93,35.79-8.3,63.11c-1.74,3.88-10.24,5.69-13.81,6.88-1.5.51-6,1.08-6.66,2.62-.94,2.24,5.31,9.87,6.76,11.44,10.36,11.28,31,16.68,45.53,19.19a122.06,122.06,0,0,0,43.17-.25A36.25,36.25,0,0,0,268.67,292l5.89-5.93s-16.56-2.16-17.31-7,4.95-41,4.95-41"/><path class="cls-5" d="M257.61,270.18s-8.13-5.58-13.85-7.56-15.7-2.22-41.13-27.05c0,0,6.18,29.05,40,37.19,0,0,8.74,2.37,14.63,1.31Z"/><path class="cls-3" d="M298.15,97l.35.32a6.13,6.13,0,0,1-.3-.64Zm14.15,5c.18.23.39.46.61.69l0-.27S312.35,101.73,312.3,102.05ZM199.23,234.63c11.66,15.88,30.82,33.63,52.47,35.83,7.76.78,15.78-2.18,21.81-6.43,9.15-6.44,18.77-13,26-21,7-7.75,10.25-12.71,14.2-22.32,4.08-9.93,4.44-12.66,4.77-23.11a103.86,103.86,0,0,1,1.75-16.05c1.11-5,6.24-24.82,8.35-36.55s-7.32-31.79-7.32-31.79c-.22-3.29-1.62-5.78-3-8.58l-1.39-.21a1.39,1.39,0,0,1,.5,1.38,11,11,0,0,1-4.51-3v.05c-2.23.65-4.17-.62-5.66-2.47-.05.32.2,1,.55,1.06a7,7,0,0,1-5.27-2.74c0,.32.21,1,.16,1.33a13,13,0,0,1-4.18-2.64c.26.47,8.27.42,8.24.64-2.13,0,.15,1-1.35-.8l-1.54-1.44c-1.79.06-1.88,1.12-3.08-.36.3.37-.43-3.66-.48-3.34-2.08-.31-1.49-.36-3.08-1.58,0,.32-6,1.23-6,1.55-1.74-.26-1.52,1.4-2.72-.08.3.37,1.46-1.15,1.75-.78-2.12,0-3.11,1.23-4.6-.62.3.37-6.35-4.52-6.35-4.52-2.13,0-1.87.72-3.42-.82.61.74-9.52-2-9.26-1.33-1.74-.26,2.36,6.85,1.12,5.69-.05.32-3.85-1.56-3.85-1.56-1.79.07.58,2-.62.57-.05.31.16,1.32.51,1.37-2.23.65-4.56-.35-6.45-1.94.59.75.85,1.44,1.15,1.8-1.74-.26-3.17-.14-4.72-1.68-.05.32.5,1.38.85,1.43a6.94,6.94,0,0,1-5.45-1.46c-.05.32.55,1.06.84,1.43a5,5,0,0,1-4.06-1.26l.85,1.43c-1.39-.21-2.53.27-4.51-.67-.05.31.6.74.55,1.06a13.27,13.27,0,0,1-3.42-.84c-.05.32.89,1.11.55,1.06-1.39-.21-2.53.27-4.17-.62.3.37.55,1,.85,1.43-1.38-.21-2.82-.1-4.11-.94a2.34,2.34,0,0,0,.5,1.37c-1.39-.2-2.52.28-4.16-.62-.05.32.55,1.06.85,1.43a18.35,18.35,0,0,1-4.17-.62c0,.32.6.74.9,1.11-1.39-.21-2.82-.09-4.46-1-.1.64.2,1,.15,1.32-1-.15-1.68-.57-2.72-.73l-1.83.38c-5.81,5.65-8.65,27-8.65,27-12,7-18.81,23.89-19.37,30s-4.24,18.9-4.24,18.9c-1.4-2.48-4.51-7.83-5.17-10.53-.71-2.39.42-5.15-.29-7.54-2.37-5.56-9.54-5-13.83-2.39l-.8,1c-6.38,6.41-3.9,29.65-.95,36.88-.84,13.71,10,22.57,18.17,13.78l1.1,5.56"/><path class="cls-6" d="M321.94,125.79c-5.65-19.8-25.69-33.3-68.77-45.18s-79.77-.94-79.77-.94c29.77-59.81,93.21-48.25,107.43-46.13S348.2,96,328.4,150.49l-1.91,4.75S323,129.4,321.94,125.79Z"/><path class="cls-6" d="M164.08,64.93s-.45-45.34,31.31-49.09S284.88,5.5,297.63,48.75Z"/><path class="cls-7" d="M153.8,161.05c-2.71-3.68-.5-12.66-2.69-16.66-11.47-21-4.17-38.76,2.92-48.91,3.08-4.42,1-13.29,1.84-17.45,4.46-21.76,7.07-22.06,43-39.72,29.27-14.37,57.93-9.26,74.46-5.89,26.47,5.4,38,8.82,44.49,29.13.85,2.65-.76,4.44-.18,7.57.81,4.41,7.34,5.85,7.64,11.34,0,0-36.29,8.67-68,20.16s-93,65.15-93.64,83.88C163.66,185.09,156.79,165.12,153.8,161.05Z"/><path class="cls-6" d="M145.42,117.28S205,62.67,260.13,70.33c0,0-69.08-19.69-107.91,26.51l-1,1.92A49,49,0,0,0,145.75,115Z"/><path class="cls-6" d="M318.33,69.94,314.81,68a96.74,96.74,0,0,0-26.15-9.87l-15.32-3.36s38.36-1,45.28,9.72Z"/><path class="cls-8" d="M177.05,194.91c-3.78-.14-7.62,2.18-8.36,6.06a7,7,0,0,0,1.11,5.23,6.28,6.28,0,0,0,2.72,2.13,8.37,8.37,0,0,0,7.18-.22c.24-.11.41-.35.15-.51s-.79,0-1,.15a6,6,0,0,1-5.22-.14,5.8,5.8,0,0,1-2.13-1.56,6.65,6.65,0,0,1,.33-8.53,5.84,5.84,0,0,1,4.66-1.85c.28,0,.84-.11,1-.39s-.13-.36-.38-.37Z"/><path class="cls-9" d="M194.23,144.07l-6.46,30.7-8.86-15.29S189.83,148.42,194.23,144.07Z"/><path class="cls-10" d="M180.24,172.25c-2.08-.29-4.66.06-4.58,2.67.07,2.29,1.29,4.44,1.11,6.75-.06.72-.47,2.27-1.42,2.25-1.14,0-2.21-2-2.63-2.84a13.22,13.22,0,0,1-1.24-8.49c.52-2.58,1.58-6.77,4.52-7.58.9-.24.64-1.25-.27-1-3,.83-4.46,4-5.27,6.74a14.44,14.44,0,0,0-.21,8.06c.57,2.18,2.55,7.14,5.69,6.07,2.7-.91,2.48-4.16,2-6.38a17.28,17.28,0,0,1-.78-3.95c0-1.55,1.32-1.41,2.58-1.24.72.1,1.5-.93.51-1.06Z"/><path class="cls-6" d="M177.49,127.16s-22.55,17.28-25.24,25.06l-1.14-7.83A41.07,41.07,0,0,1,177.49,127.16Z"/><path d="M274.39,210.73a10,10,0,0,1-8.95-1.92c-.52-.44-2.48-.38-1.75.23,3.09,2.61,8.66,3.64,12.22,2.41.35-.12.33-.38-.06-.58a2.26,2.26,0,0,0-1.46-.14"/><path d="M262.69,208.15a16.05,16.05,0,0,0-5.37-2.21,1.2,1.2,0,0,0-.89.14c-.18.12-.25.31-.05.46a6.19,6.19,0,0,0,2.95,1.15,1.2,1.2,0,0,0,1-.22c.21-.24-.08-.45-.34-.49a4.91,4.91,0,0,1-2.38-.93l-.95.6a14.35,14.35,0,0,1,4.79,2,1.22,1.22,0,0,0,1,0c.22-.09.48-.34.2-.53"/><path d="M255,207.25c-2.24-.39-4.74-1.76-5.6-3.61-1.29-2.8.87-6.59,3.92-7.8.33-.13.21-.38-.09-.5a1.94,1.94,0,0,0-1.24.07,7.88,7.88,0,0,0-4.73,6.57c0,2.28,1.93,4.16,4.53,5.21a12,12,0,0,0,2.44.71c.34.06,1,0,1.18-.19s-.09-.41-.41-.46"/><path d="M278.68,210.2a.3.3,0,0,1,.35-.38,2.65,2.65,0,0,0,1.83-.31c.16.28.32.55.49.82a7.83,7.83,0,0,0-3.71.73.66.66,0,0,1-.71-.22c-.13-.15-.24-.45,0-.57"/><path d="M276.93,210.27a9.06,9.06,0,0,1,4.15-.79.72.72,0,0,1,.56.36.3.3,0,0,1-.08.45"/><path d="M283.31,211.21a4.65,4.65,0,0,0,4.31-2.14,6.61,6.61,0,0,0-.68-7.45.27.27,0,0,1,.18-.46.89.89,0,0,1,.75.37,7.4,7.4,0,0,1,1.47,6.46,5.21,5.21,0,0,1-4,3.93,5.53,5.53,0,0,1-1.67.1c-.22,0-.61-.18-.68-.47s.15-.37.36-.34"/><path class="cls-9" d="M304.65,169.91a4.85,4.85,0,0,1,6.42,4.29,5.08,5.08,0,0,1-1.87,4.38,4.7,4.7,0,0,1-5.49.14,5.21,5.21,0,0,1-1.64-6.37,4.65,4.65,0,0,1,2.58-2.44"/><path class="cls-9" d="M286.49,173.76s10.48-6,15.35-5.74c7.1.35,15.14,5.51,17.1,9.35,0,0-10.54-7.5-15.55-7.6C298.6,169.68,286.49,173.76,286.49,173.76Z"/><path class="cls-9" d="M245,161.34c-1.77-1.29-4.91-1.47-6.34-.54a4.8,4.8,0,0,0-1.8,2.06,5.06,5.06,0,0,0,.5,4.74,4.71,4.71,0,0,0,5.21,1.73,5.2,5.2,0,0,0,3.43-5.61c0-.39.44-1.06-1-2.1"/><path class="cls-9" d="M256.35,168.31s-9.58-8.31-14.77-9.24c-7.57-1.36-17.3,1.74-20.31,5,0,0,12.95-4.77,18.25-3.67C244.59,161.45,256.35,168.31,256.35,168.31Z"/><path class="cls-9" d="M291.81,150.85l-.33,4.3c-.08,1.09-.16,2.19-.23,3.27,3.72-.63,6.9-1,9.29-1.18,5-.44,7.64-.64,10.5.07a27.92,27.92,0,0,1,6.47,2.62,17.52,17.52,0,0,1,3.34,2.13c2.31,2,3.16,4.05,3.58,3.9s-.09-1.93-.14-2.12a16.74,16.74,0,0,0-4.65-7.67,19.7,19.7,0,0,0-6.49-3.63c-2.81-1-10.7-2.11-21.34-1.69"/><path class="cls-9" d="M259.13,143.26c-.22,1.42-.44,2.84-.67,4.26-.17,1.08-.35,2.16-.53,3.24-3.79-1.52-7.07-2.63-9.56-3.41-5.25-1.65-8-2.47-11.15-2.47a32.06,32.06,0,0,0-7.47,1,19.74,19.74,0,0,0-4,1.25c-2.92,1.36-4.31,3.18-4.72,2.93s.55-1.86.64-2a17.19,17.19,0,0,1,6.75-6.33,22.17,22.17,0,0,1,7.74-2c3.2-.25,11.84.54,23,3.53"/><path class="cls-11" d="M266.08,223.63c-10.21-1.52-26.57-5.34-26.57-5.34s-1.83,27.74,21.86,31.28,30.26-23.39,30.26-23.39S276.3,225.16,266.08,223.63Z"/><path class="cls-12" d="M266.18,223.65c-4.86-.73-24.3-4.57-24.3-4.57S246,236,263.53,238.65c19.05,2.84,25.43-12.32,25.43-12.32Z"/><path class="cls-13" d="M266.27,224.5c-4.85-.73-19.5-3.86-19.5-3.86s4.43,6.78,19,9,20.07-2.94,20.07-2.94Z"/><path class="cls-11" d="M291.63,225.76a9.49,9.49,0,0,0-3.11-1.18c-4-1-6.3-2.56-9.17-3.24-4.91-1.17-8.4.56-10.56.24s-5-3-10-3.31c-2.95-.19-10.34-.07-14.42-.28-2.44-.13-5.11-1.61-5.65-1.54-.75.09-.24,6.22,26.94,10.27S292.32,226.06,291.63,225.76Z"/><path class="cls-14" d="M90.11,470.61c3.81-19,11.65-77.95,11.65-77.95,2.77-38.88-14.63-56.79-14.63-56.79s11.93,17.24,12.14,49.8c.1,16-12.08,79.08-12.08,79.08Z"/><path class="cls-2" d="M237.39,512l-107.18.24c-3.58,4.55-7.69,7.43-11.6,11.69a1.4,1.4,0,0,1-2.32-.51c-1.05.94-2.09,1.88-3.16,2.8-1.59,1.35-3.2,2.66-4.84,4L113,491.22s18.23-102.63,16.69-131.71c-1.77-33.57,11-73.33-20-72.49-23.88.65-38.87,18.87-48.88,40.94C53.6,343.69,47,361.76,43.85,379c-7.72,43-10.34,78.18-13.58,120.48C28.25,525.91,26.8,553,48,572.76c6.56,6.11,12.51,8.67,21,11.42,6.38,2.06,13,3.65,25,2.78.65,0,1.22,0,1.6,0,28.31-2,152.07-26.75,152.07-26.75Z"/><path class="cls-3" d="M452.54,259.64s-6.66,50.2-7.09,55.29l-2.59,17.88-2.33,1.6c13.82,4.25,26.88,17.36,51.92,7.18l26.66-26.81s-5.65-6.24-6.56-10.48c-5.17-24,7.33-52.27,7.33-52.27"/><path class="cls-5" d="M491.19,292.6s-6.08,16.78-33.35,21.72c0,0-7.91,1.33-12.37-.53l.84-6.86Z"/><path class="cls-15" d="M406,256.22c9.77-6.46,12-18.64,11.23-29.58-.76-10.47,7.69-26.2-5.13-26.13-.25,0,4.9-8.78,1.1-8.13,2.51-5.69-6-5.43-6.92-12-.2-1.32-1.65-12.95,6.65-13.44,31.28-40.55,71-30.34,93.28-26.51,43.79,7.51,65.1,10.83,52,80.1-8.82,46.5-53.15,57.73-97.48,54.77-18.94-1.26-41.49-1.34-55.09-18.85Z"/><path class="cls-15" d="M504.1,110.2c-10.91,4.7-16.25,14.31-17.29,25.77,2.17,2.08,6.9,4.49,9.07,6.56.45-.74.92-1.46,1.4-2.16,2.39,2.25,8.8,4.5,11.22,6.71.71-.39,2.93-1.24,5.55-2.2l2.22,2.06a13.44,13.44,0,0,0-4.65,1.8c2.75,2.56,10,4.25,12.61,6.94,5.68,5.81,12,13.56,17.9,19.14a36.87,36.87,0,0,1,4.54,4.14l-4.55,3.69,6.1,5.41c-.78,1.63-1.24,2.57-1.24,2.57l5,4.53s3.47-2.95,8.4-7.41c17.51,7.64,25.57-6.67,24.38-13.49a14.19,14.19,0,0,0-3.41-7c7.31-7.94,12.86-15.43,11.95-19.07-1.83-7.33-12.74-24.08-18-31.95a57.9,57.9,0,0,0-3.35-7.16l-.06-.15h0a27.2,27.2,0,0,0-4.81-6.43c-4.65-4.39-14.68-3.2-22.87-1.21-8.28-8-14.1-10.46-19.19-11.21-7.11-1.06-19.32,7.69-20.69,10.12C503.58,101.39,503.75,105.9,504.1,110.2Zm64.75,69.69c3.13-3,6.39-6.18,9.46-9.38A16,16,0,0,1,577.2,176C575.9,179.3,572.2,180,568.85,179.89ZM523.39,98.5c.66.56,2.77,4,4.85,7.51a128.67,128.67,0,0,0-13.47,1.45l-.84.11c-1.15-2.23-2.5-5.25-2.49-7.19C511.44,97,519.93,95.61,523.39,98.5Z"/><path class="cls-3" d="M436.34,165.27a2.8,2.8,0,0,1-.37.48l.35-.2ZM423,167.41l0,.23c.22-.15.44-.31.63-.46C423.63,166.9,423,167.41,423,167.41Zm89.18,109.37,1.93-4.43c2.2,8.77,14.26,4,16-7.55,9.26-9.71,11.67-25.05,7.51-31.56l-.48-.93c-3.1-3-9-4.73-12-.53-1,1.86-2.54,3.93-3.56,5.79-1,2.14-2.66,6.47-4.28,8.29,0,0,7.84-20.44,8.49-25.63s1.32-18.06-7.45-26.08c0,0-10.31-11.7-14.12-17.46l-1.46-.65c-.9-.06-1.51.18-2.41.12,0-.28.34-.53.37-1.08a9.64,9.64,0,0,1-3.9,0c.32-.25.93-.48.95-.76a15.34,15.34,0,0,1-3.58-.24c.31-.25.95-.76,1-1-1.53.44-2.39-.16-3.59-.24a2.06,2.06,0,0,0,.67-1.06c-1.23.47-2.41.11-3.6,0,.32-.26.65-.79,1-1-1.53.45-2.39-.16-3.58-.24-.3,0,.63-.51.65-.78a11.26,11.26,0,0,1-3,.07c0-.27.64-.51.65-.78-1.83.43-2.68-.18-3.88-.26l1-1a4.2,4.2,0,0,1-3.62.31c.32-.25.95-.76,1-1a5.94,5.94,0,0,1-4.82.22c.3,0,.95-.76,1-1-1.56,1-2.74.64-4.23.54.31-.25.65-.78,1.28-1.29-1.86,1-4,1.39-5.73.44.3,0,.66-.78.67-1-1.26,1,1.07-.21-.41-.58,0,0-3.51.87-3.49.59-1.25.75,3.46-4.44,2-4.54.34-.53-8.61-.06-8-.57-1.57,1-1.22.45-3,.06,0,0-6.42,2.87-6.11,2.61-1.58,1.28-2.18.08-3.95-.32.31-.25,1,1.23,1.32,1-1.27,1-.79-.33-2.28-.43,0-.27-4.76-2.1-4.75-2.38-1.54.73-1.06.88-2.86.76,0-.28-1.32,2.94-1,2.69-1.27,1-1.16.12-2.63-.26l-1.55.93c-1.59,1.27.5.81-1.27.41,0-.19,6.68,1.31,7,1a10.91,10.91,0,0,1-4,1.44c0-.28.36-.8.38-1.08a6,6,0,0,1-4.89,1.33c.3,0,.63-.51.65-.79-1.59,1.27-3.43,2-5.17,1v-.05a9.33,9.33,0,0,1-4.31,1.69,1.18,1.18,0,0,1,.67-1.06l-1.19-.08c-1.64,2.09,5.32,1.32,4.54,4,0,0-5.44,7.73-11.4,23.64-4.88,13.06-6.37,34.19-6.37,38.59,0,3.82-2.81,11-3.54,14.95-3.94,21.25,11.29,44.21,27.16,57.23,6.32,5.19,12.16,3.79,18.8,3.34,13.56-.92,34.3-7.72,46.91-18.84"/><path d="M432.41,260.92a7.76,7.76,0,0,0,6.89.11c.46-.22,1.88.14,1.25.46a11,11,0,0,1-9.37-.3c-.24-.15-.18-.33.13-.4a1.75,1.75,0,0,1,1.1.13"/><path d="M441.43,261a12.47,12.47,0,0,1,4.3-.7,1,1,0,0,1,.64.25c.11.12.13.26,0,.33a4.6,4.6,0,0,1-2.36.34.93.93,0,0,1-.7-.32c-.11-.2.14-.31.33-.29a3.75,3.75,0,0,0,1.91-.28l.59.59a10.79,10.79,0,0,0-3.84.63,1,1,0,0,1-.77-.14c-.15-.1-.3-.32-.06-.41"/><path d="M447.21,261.64c1.72.09,3.78-.48,4.71-1.65,1.41-1.78.46-5-1.58-6.38-.22-.15-.09-.31.15-.34a1.46,1.46,0,0,1,.9.25,6,6,0,0,1,2.38,5.64c-.39,1.62-2.11,2.64-4.19,3a9.3,9.3,0,0,1-1.91.11c-.26,0-.72-.13-.83-.33s.13-.28.37-.26"/><path d="M429.35,259.85a.22.22,0,0,0-.19-.33,2.13,2.13,0,0,1-1.3-.52l-.49.5a6,6,0,0,1,2.6,1.12.5.5,0,0,0,.56,0c.12-.08.25-.27.09-.4"/><path d="M430.62,260.18a6.81,6.81,0,0,0-2.91-1.24.56.56,0,0,0-.48.16.23.23,0,0,0,0,.34"/><path d="M425.78,259.8a3.51,3.51,0,0,1-2.81-2.23,4.75,4.75,0,0,1,1.73-5.2c.16-.11.09-.29-.06-.35a.64.64,0,0,0-.6.14,5.31,5.31,0,0,0-2.15,4.36A3.83,3.83,0,0,0,424.2,260a4.37,4.37,0,0,0,1.22.35.62.62,0,0,0,.57-.23c.1-.19-.05-.29-.21-.3"/><path class="cls-10" d="M521.22,251.56a65.32,65.32,0,0,1,6.18-9.42,22.09,22.09,0,0,1,4.31-4.22,8.12,8.12,0,0,1,1.32-.76l.23-.09.14-.06.21,0,.07,0,.13,0c.11,0,0,0,0,0s.3-.1,0,0-.19-.13,0,.18a7.77,7.77,0,0,1,.4.82c1.34,3.25,1,6.94-.1,10.2-.09.28.91.15,1-.15a15.38,15.38,0,0,0,.24-10c-.15-.39-.37-1.22-.73-1.48a.82.82,0,0,0-.58-.06c-2.64.29-5,2.76-6.6,4.61a59.24,59.24,0,0,0-7.21,10.66c-.12.21.85.13,1-.15Z"/><path class="cls-9" d="M407.36,208.8c7.07-2.27,11.63-2.32,23.74-.74l0,.27c.18,1.57.08.69.25,2.27l.39,3.6c-4-.57-6.84-1.36-9.37-1.51-4.79-.28-10.3-1.17-15.05-.1C407.38,211.33,407.39,210.07,407.36,208.8Z"/><path class="cls-9" d="M458,210.92c-.16,1.57-.07.7-.22,2.28l-.33,3.6c3.94-.63,6.81-1.46,9.34-1.65,5-.37,10.81-1.43,15.73-.17,2.35.6,5.72,1.54,7.22,3.85.4.62,1.06,2.77,2,2.44.4-.14,0-2.13-.09-2.34-.9-4-4.11-6-8.14-7.33-8.21-2.72-12.47-2.86-25.54-.95"/><path class="cls-8" d="M521.79,271.37a5.9,5.9,0,0,1,1.33,7.87,5,5,0,0,1-1.53,1.47,4.78,4.78,0,0,1-.88.43c-.34.12-.76.13-1.08.27.09,0,.19,0,0,0l-.46,0a6.21,6.21,0,0,1-1.36-.28,5.83,5.83,0,0,1-3.7-3.33c-.25-.58-1.71-.14-1.48.4a7,7,0,0,0,6.79,4.18A6.53,6.53,0,0,0,523,270.59c-.43-.35-1.77.29-1.16.78Z"/><path class="cls-10" d="M520.38,252c1,.08,2.47.26,2.61,1.49a5.6,5.6,0,0,1-.87,2.75c-.85,1.75-2.33,4.22-.91,6.07s4.33-.52,5.34-1.8a12.2,12.2,0,0,0,2.68-7.32c0-2.67-.25-6.54-2.93-7.94-.27-.14-1.09.28-1,.35,2.33,1.21,2.76,4.37,2.85,6.72a12.22,12.22,0,0,1-1.51,6.65,8.56,8.56,0,0,1-2.92,3.36c-1,.59-1.75-.26-2-1.25-.54-2,1-4.05,1.74-5.76a3.34,3.34,0,0,0,.41-2.53c-.45-1-1.91-1.14-2.86-1.21-.22,0-1.16.38-.65.42Z"/><path class="cls-9" d="M414.64,223.15a4.5,4.5,0,0,0-4.9.55,4.35,4.35,0,0,0-1.44,2,4.46,4.46,0,0,0,.78,4.14,4.16,4.16,0,0,0,4.72,1.15,4.6,4.6,0,0,0,2.61-5.19,4.08,4.08,0,0,0-1.77-2.6"/><path class="cls-9" d="M431,230.3s-8-7.15-12.34-7.86c-6.28-1-12.39,2-14.83,5,0,0,8.74-4.61,13.14-3.75C421.13,224.49,431,230.3,431,230.3Z"/><path class="cls-9" d="M466.34,226.8a4.5,4.5,0,0,1,4.79,1.2,4.32,4.32,0,0,1,1.17,2.12,4.48,4.48,0,0,1-1.32,4,4.17,4.17,0,0,1-4.83.52,4.61,4.61,0,0,1-1.9-5.5,4.1,4.1,0,0,1,2.09-2.34"/><path class="cls-9" d="M455.38,232.07s9.49-5.95,14.14-6.09c8.4-.25,15.83,5,18,8.24,0,0-11.62-7.05-16.4-6.8C466.57,227.66,455.38,232.07,455.38,232.07Z"/><path class="cls-16" d="M422.08,170.82c-1.65,7.46-11.48.41-5.74-1.07-.45-3.69,4.82-4.85,4.91-8.58a5.7,5.7,0,0,1,.33.61s.43-4.46,2-5.45,8.51-3.92,8.51-3.92l1.93,1.67c0-.11-.66-1.62.44-2.44s12.88-6,20.11-5.08l.71.11,2.92,1.77.1.07-.11-.08c-.51-.35-1.61-1.2-1-1.8a2.68,2.68,0,0,1,1.39-.51A25.89,25.89,0,0,1,463,146v0l.49.05.5,0v0a27.1,27.1,0,0,1,4.38.73,2.62,2.62,0,0,1,1.3.69c.55.68-.65,1.38-1.2,1.66l-.12.06.11-.05,3.12-1.37c.24,0,.48,0,.72,0,7.3,0,18.27,6.74,19.26,7.71s.17,2.37.11,2.48l2.14-1.4s8.48,4,9.9,5.15,1.93,3.8,1.93,3.8,2.59,1.15,3.57.9,5.74,2.66,7.58,5.72c1.18,2,.6,3.71,1.14,5.41h0c.31,1,.48,1.58.48,1.58l5,2c4,2.25,2.38,10.62,2.38,10.62,7.4,10.43,7.24,18.87,3,27.7-1.63,3.41,8.12,7.59,1.73,7s-13.17,19.38-13.17,19.38-5-8.28-5-12,2.5-14.46,2.5-14.46l-3.09-.66s-1.85-.89-3.86-5.21,2.67-11.45,2.67-11.45l1.52-4.39H506c-5.82-1.4-5.72-7.8-5.72-7.8L502,179.38l-3.77,3.33a4.36,4.36,0,0,1-3.5,1.3C485.65,182.71,485,177,485,177l-.86-5.43-2.42,1.39c-2.58,1.84-10.27,4.44-14,2.55-1-.5-5-4-5.62-4.53-2.33-2-2.46-5.37-2.42-6.64.38-.32.75-.73,1.11-1.08,1.4-1.33,2-.69.58.64-2.41,2.3-6.44,5.48-9.8,5.4s-10.13-1.88-10.9-3.44c-.51-1,.53-1.1-.66-1.13a3.92,3.92,0,0,0-2.68,1.37c-1.67,1.68-2.88,4.21-5.13,5.18-3.28,1.4-5.07-.46-8.2-1.35A1.51,1.51,0,0,0,422.08,170.82Z"/><path class="cls-17" d="M414.91,164.44s-1.73-7,2.51-10.7,20.53-18.52,46.76-16.81Z"/><path class="cls-18" d="M557.74,190.11S577.18,203,587,187.29s-13-23-13-23"/><path class="cls-18" d="M549.54,100.19s-9-17.27-22.93-15.32-6.68,25-6.68,25"/><path class="cls-11" d="M437.9,272.85c8.18.37,21.49,0,21.49,0s-3.24,20.73-22.22,19.86-19.68-21.82-19.68-21.82S429.71,272.47,437.9,272.85Z"/><path class="cls-12" d="M437.82,272.84c3.89.18,19.61.21,19.61.21s-5.6,12.71-19.68,12.07c-15.26-.7-18.34-13.72-18.34-13.72Z"/><path class="cls-13" d="M437.62,273.44c3.89.18,15.76,0,15.76,0s-4.46,4.23-16.14,3.7-15.18-5-15.18-5Z"/><path class="cls-11" d="M417.78,270.11c.42-.09,2.09.15,4,.06,3.23-.14,3.75-.8,6.1-.88,4-.14,6.45,1.61,8.19,1.69s4.33-1.44,8.3-.94c2.33.29,8.07,1.44,11.27,1.87,1.93.27,4.23-.41,4.64-.29.57.17-.75,4.51-22.52,3.52S417.2,270.23,417.78,270.11Z"/><path class="cls-5" d="M524.63,507.58a48.56,48.56,0,0,1,22,17.57c.24.35,1.56-.22,1.45-.39A48.8,48.8,0,0,0,526,507.09a1.42,1.42,0,0,0-.93.08c-.05,0-.66.32-.44.41Z"/><path class="cls-19" d="M551.83,355.57a15.14,15.14,0,0,0-6.44,1.95c-5.19,2.63-9.35,7.12-12.71,11.79-4.24,5.91-6.06,13.14-7.74,20.12-2.28,9.45-4,19.06-5.44,28.66q-2.1,13.47-3.71,27-.56,4.61-1.06,9.21a42.84,42.84,0,0,0-.48,4.51,1.5,1.5,0,0,1,0,.2c0,.33.23.46.53.49l10.42,1.18a2.81,2.81,0,0,0,2.05-.54c.4-.37.41-.79-.23-.87l-10.42-1.18.53.49c.36-3.59.77-7.19,1.19-10.78,1-8.34,2.06-16.67,3.29-25,1.41-9.58,3-19.13,5-28.59,1.54-7.12,3.11-14.62,6.35-21.19a31.8,31.8,0,0,1,3.46-5.28,40,40,0,0,1,6.73-7,20.94,20.94,0,0,1,5-3.07,10.36,10.36,0,0,1,1.54-.52l.38-.09c-.21.05-.21,0,0,0l.52-.08c.37-.06-.34,0,.06,0,.55,0,1.64-.21,1.93-.75s-.26-.7-.75-.7Z"/><path class="cls-19" d="M379.35,387.93a118.1,118.1,0,0,1-6.16,48.12c-.14.4,2.61.15,2.85-.55a118.87,118.87,0,0,0,6.21-48.35c0-.42-3,.07-2.9.78Z"/><path class="cls-14" d="M262.07,545.38v16.29l1.73-.9-10.54,1.77L228,566.81,197.3,572l-26.6,4.48c-4.29.72-8.59,1.37-12.87,2.17l-.18,0c-.3.05-1.7.35-1.7.77s.85.3,1.15.25l10.54-1.77L193,573.64l30.64-5.17L250.21,564c4.28-.72,8.59-1.37,12.86-2.17l.18,0c.35-.06,1.73-.34,1.73-.9V544.6c0-.42-2.9,0-2.9.78Z"/><path class="cls-14" d="M113.87,318.85l.32.1.2.08.5.22a14,14,0,0,1,2.88,1.94c3.53,3.06,5.76,7.44,7.27,11.79,3.11,8.89,3.69,18.61,3.53,27.95-.11,7.06-.68,14.11-1.33,21.14-1.56,16.86-3.79,33.67-6.16,50.43q-3.39,23.94-7.29,47.79-1.32,8.18-2.69,16.35c-.44,2.64-1.08,5.31-1.35,8l-.06.34c-.07.39.56.31.79.3l14.93-.7,35.85-1.68,43.35-2,37.45-1.76c6-.29,12.08-.43,18.1-.85l.27,0c.49,0,1.66-.21,1.94-.68s-.26-.46-.68-.44l-14.92.7-35.85,1.69-43.36,2-37.44,1.76-12.27.57a45.59,45.59,0,0,0-5.84.28h-.26l.79.3q1.75-10.12,3.39-20.26,3.78-23.13,7.17-46.33c2.47-17.11,4.8-34.26,6.54-51.47.71-7,1.33-14,1.66-21.07.45-9.6.28-19.43-2.07-28.79-1.34-5.3-3.43-10.65-7.15-14.75a12.86,12.86,0,0,0-5.53-3.93l-.3-.09a3.48,3.48,0,0,0-2,.38c-.24.12-1,.57-.36.72Z"/><path class="cls-14" d="M111.92,505.19a30.87,30.87,0,0,0-16.47,5.61,71.2,71.2,0,0,0-7,5.45c-2,1.74-5.09,3.73-5.74,6.46-.14.59,2.69.2,2.86-.51.56-2.37,3-4,4.73-5.51a76.89,76.89,0,0,1,6-4.9c4.05-2.9,8.62-5.36,13.72-5.44a3.62,3.62,0,0,0,2-.55c.36-.3.47-.62-.17-.61Z"/><path class="cls-14" d="M333.35,359.7c-1.42,8.89-2.86,18-1.67,27a95.12,95.12,0,0,0,3.06,13A88.46,88.46,0,0,1,337.45,413a80,80,0,0,1,.33,15.55c-.07,1,2.82.37,2.88-.44a81.77,81.77,0,0,0-2.28-26.44c-1.11-4.3-2.5-8.54-3.34-12.91a55.33,55.33,0,0,1-.79-13.72,154.94,154.94,0,0,1,2-15.78c.14-.91-2.75-.4-2.88.44Z"/><g id="freepik--Character--inject-2"><path class="cls-20" d="M385.52,499.63a2.4,2.4,0,0,1,.24,1,2.49,2.49,0,0,1-2.38,2.59l-56.76,3a2.46,2.46,0,0,1-2.41-1.5L289.06,423a4.77,4.77,0,0,1-.32-1.44,4.85,4.85,0,0,1,4.5-5.17L341,413.81a6.76,6.76,0,0,1,6.6,3.92L359,442.66Z"/></g><path class="cls-3" d="M365.71,490.64c-7.46,4.31-17.59,9.94-19.11,9.64s-12-.81-21.08-1.22c-4.66,0-8.62-3.45-8.86-7.68-.06-1.1.23-.28.68-1.28l-4.15-10.84c-1,.17-.74-.11-1.65,0-4.79.68-8.86,1-13.49,3.07-6.63,3.39-17.81,14.74-17.81,14.74l-18,1.93v42.66l43-.27s44.35.78,49.44-2.61,10.22-15.3,10.22-15.3c7.52-3.37,7.49-14.09,7.49-14.09,10.17-9.35.83-11.16.83-11.16a2.33,2.33,0,0,0,1-1C376.6,492.75,370.14,488,365.71,490.64Z"/><path class="cls-5" d="M327.45,511.76a29.65,29.65,0,0,0,7.65,1.77,44.29,44.29,0,0,0,18.67-.45,33.59,33.59,0,0,0,14.67-9.72,20.94,20.94,0,0,0,4.33-5.53,32.73,32.73,0,0,0-5.4,4.6A38,38,0,0,1,353,511.31a49.91,49.91,0,0,1-17.93.93A38.42,38.42,0,0,0,327.45,511.76Z"/><path class="cls-5" d="M330.29,521.43a16.29,16.29,0,0,0,6.93,2,55.92,55.92,0,0,0,7.74.6,25,25,0,0,0,9.41-1.36A39.24,39.24,0,0,0,362,518l5.61-4.27a21.47,21.47,0,0,0,4.87-4.32,22.74,22.74,0,0,0-5.8,3.27c-1.71,1.09-3.72,2.43-5.9,4a43.75,43.75,0,0,1-7.34,4.34,24.51,24.51,0,0,1-8.71,1.49c-2.49.06-5,0-7.48-.17A61.79,61.79,0,0,1,330.29,521.43Z"/><path class="cls-5" d="M334.61,532.74c0,.75,7.93.91,17.39.54a7.84,7.84,0,0,0,3.61-1.11,23.4,23.4,0,0,0,2.68-1.64,26.24,26.24,0,0,0,4-3.31c2.07-2.1,2.85-3.75,2.62-3.87s-1.4,1.17-3.64,2.92a43.79,43.79,0,0,1-4.07,2.88,26.23,26.23,0,0,1-2.6,1.45,6.17,6.17,0,0,1-2.75.86c-4.83.14-9.08.46-12.2.68A25,25,0,0,0,334.61,532.74Z"/><path class="cls-3" d="M401.31,487.52c-.82-.15-12.71-3.18-19.94-2.5s-21.67-2.34-21.67-2.34-22.83-9.13-25-11.49-2.74-8.47-2.74-8.47a25,25,0,0,0-5.24-3.36c-4.92-2.81-3.65-9.36-3.65-9.36l7.58,1.34a204.12,204.12,0,0,1-21.18-4.44c-1.91-.82-1.54-2.06-.59-3.32a8.8,8.8,0,0,1,6.3-3.1l39.48-2.91A73.29,73.29,0,0,1,349,423.31c-1.43-5,2.86-5.92,4.23-6s10.89,10.34,10.89,10.34,18.86,9.83,22.22,12.76S406.7,459.9,406.7,459.9L419.59,468S402.12,487.67,401.31,487.52Z"/><path class="cls-5" d="M362.09,437.29a52.09,52.09,0,0,1,11.16,1.17,49,49,0,0,1-11.22.09,86.37,86.37,0,0,1-11.15-.52A35.21,35.21,0,0,1,362.09,437.29Z"/><path class="cls-5" d="M340.59,452.65c-4.53-.26-8.64-.55-11.6-.93a15.05,15.05,0,0,1-4.76-1,25.35,25.35,0,0,1,4.85.08c3,.14,7.1.28,11.63.55,9.08.46,16.39,1.84,16.28,2.23S349.67,453.11,340.59,452.65Z"/><path class="cls-5" d="M344.65,465.46a37,37,0,0,1-12.57-2.87c.15-.22,5.74,1,12.75,1.75s12.76.58,12.78.94A38.37,38.37,0,0,1,344.65,465.46Z"/></g></svg>