<svg id="Layer_1" data-name="Layer 1" xmlns="http://www.w3.org/2000/svg" xmlns:xlink="http://www.w3.org/1999/xlink" viewBox="0 0 1303.15 1057.31"><defs><style>.cls-1,.cls-20,.cls-27,.cls-34,.cls-44{fill:none;}.cls-2{clip-path:url(#clip-path);}.cls-3{fill:#f2ebd1;}.cls-4{fill:#d8d8d8;}.cls-28,.cls-5{fill:#fff;}.cls-6{fill:#956243;}.cls-7{fill:#995935;}.cls-8{fill:#c68257;}.cls-9{fill:#273238;}.cls-10{fill:#50853d;}.cls-11{fill:#684134;}.cls-12{fill:#714533;}.cls-13{fill:#273339;}.cls-14{fill:#a56530;}.cls-15{fill:#8c542a;}.cls-16,.cls-21{fill:#a99231;}.cls-17{fill:#937f2f;}.cls-18{fill:#513835;}.cls-19{fill:#ccb631;}.cls-20{stroke:#132b3a;stroke-width:0.98px;}.cls-20,.cls-21,.cls-27,.cls-34,.cls-35,.cls-39,.cls-44{stroke-miterlimit:10;}.cls-21{stroke:#a99231;stroke-width:1.25px;}.cls-22{fill:#5e5f5f;}.cls-23{fill:#853324;}.cls-24{fill:#010101;}.cls-25{fill:#13110f;}.cls-26{fill:#878787;}.cls-27,.cls-44{stroke:#010101;}.cls-27{stroke-width:1.42px;}.cls-28{opacity:0.14;}.cls-29{fill:#622515;}.cls-30{fill:#31160e;}.cls-31{fill:#653c29;}.cls-32{fill:#609d42;}.cls-33,.cls-35{fill:#6e4731;}.cls-34{stroke:#381e10;stroke-width:0.56px;stroke-dasharray:2.21 2.21;}.cls-35{stroke:#432f25;stroke-width:1.01px;}.cls-36{fill:#daa327;}.cls-37{fill:#82a4d6;}.cls-38{fill:#3666a0;}.cls-39,.cls-40{fill:#151210;}.cls-39{stroke:#161311;stroke-width:0.34px;}.cls-41{fill:#161311;}.cls-42{fill:#231f20;}.cls-43{fill:#b35b95;}.cls-44{stroke-width:0.84px;}.cls-45{fill:#8c2063;}</style><clipPath id="clip-path"><rect class="cls-1" width="1303.15" height="1057.31"/></clipPath></defs><g class="cls-2"><polyline class="cls-3" points="-190.83 1255.58 -190.83 -19.29 1380.45 -19.29 1380.45 1255.58"/><path class="cls-4" d="M617,488.16a86.94,86.94,0,0,0-3,22.6c0,55,51.36,99.5,114.72,99.5a131.52,131.52,0,0,0,27.18-2.84c32.18,51.19,94.78,85.92,166.74,85.92,91.76,0,168.3-56.48,186-131.54,86.46-5.34,154.7-67.82,154.7-144.17,0-50.95-30.42-95.71-76.33-121.46A129.22,129.22,0,0,0,1189,273c0-81.51-76.19-147.59-170.18-147.59-35.49,0-68.44,9.43-95.71,25.55-21-21.5-52.41-35.15-87.48-35.15-57.84,0-105.66,37.13-113.55,85.4-4.58-.3-9.19-.51-13.86-.51C609.79,200.74,530,270,530,355.35,530,411.8,564.88,461.17,617,488.16ZM887.54,366.94l-1.6.26c0-.62.12-1.23.16-1.85C886.59,365.87,887.05,366.42,887.54,366.94Z"/><path class="cls-5" d="M631.31,463.75a87.05,87.05,0,0,0-3,22.6c0,54.95,51.36,99.5,114.72,99.5A132.29,132.29,0,0,0,770.2,583c32.18,51.18,96,83.62,168,83.62,91.76,0,164.88-57.84,182.54-132.9,86.46-5.35,156.88-64.17,156.88-140.51,0-51-30.42-95.72-76.33-121.47a129,129,0,0,0,2.1-23.12c0-81.52-76.19-147.6-170.18-147.6-35.49,0-68.44,5.72-95.71,21.84-21.05-21.5-52.41-31.44-87.48-31.44-57.84,0-105.66,37.13-113.55,85.41-4.58-.31-9.19-.51-13.86-.51-98.46,0-178.27,69.22-178.27,154.61C544.32,387.4,579.22,436.76,631.31,463.75ZM901.88,342.53l-1.6.27c.05-.62.12-1.24.16-1.86C900.93,341.47,901.39,342,901.88,342.53Z"/><path class="cls-6" d="M1138.63,174.42s.25,25,7.59,41.43c1,2.29,16.39,10.4,16.39,10.4l-24.4,23.51c-12.16,3.51-35.62,7.46-47.74,3.84L1079,229.89s12.4-3.45,12.85-6.36-3-24.65-3-24.65"/><path class="cls-7" d="M1120.57,533.32c30.3-1.87,58.62-10.32,82.63-23.77L1191,453.7H1032.13l-9.54,78.21,10.24,111.33C1077.49,619.6,1109.65,579.76,1120.57,533.32Z"/><path class="cls-8" d="M1214.46,450.42c-1.52-26.13-15.9-84.14-15.9-84.14L1164.92,226.2l-12.19-6.43s-18.53,27.51-46.12,29.11h-5.28c-21.49-5.34-13.72-21.07-12.56-23.21l-26.19,12.18-32.67,64.94c-3.52,5.76-3.2,16.1-.18,30.22l-.52,50.16L1026.5,398s-6.08,37.69-9.74,69.09,5.82,94.3,5.82,94.3l86.86-2.37,3-.17-.43,1a155.1,155.1,0,0,0,8.56-25.88c35-2.16,67.3-13.07,93.42-30.34C1214.69,482.88,1215.11,461.56,1214.46,450.42Z"/><path class="cls-9" d="M860.73,501,730.45,490.31l-3.23,12.23,2.37,81.86c4.28.42,8.63.65,13,.65a131.52,131.52,0,0,0,27.18-2.84,155.14,155.14,0,0,0,18.57,23.87c2.22-29.66,4.1-54.56,4.1-54.56l3.18,61.84a188,188,0,0,0,59.77,37.22C858.09,575.87,860.72,502.17,860.73,501Z"/><rect class="cls-10" x="475.48" y="612.25" width="87.31" height="55.64" rx="3.15" transform="translate(-222.97 281.64) rotate(-25.18)"/><g id="freepik--Character--inject-2"><path class="cls-6" d="M442.74,484.79,447.88,471s.26-14.7,1.89-19.46,13-21.25,13.74-21.82,4.1-25.4,8.77-26,8.66,1.64,9.17,7.95-5.88,21.11-2.58,22.27a21.12,21.12,0,0,0,8,.58s-.79-7.21,2.31-10.51,8.46-.91,8.46-.91l1,2.92,2.72-4.48s-.14-14.89,5.78-16.56a24.85,24.85,0,0,1,3.52-9.55,5.29,5.29,0,0,1,7.42-1.1,5.07,5.07,0,0,1,1.09,1.08h0l-1.43,34.25L498,470.41s-12.12,9.28-15.13,11.91-3.91,14.9-5.61,14C463,488.9,442.74,484.79,442.74,484.79Z"/><path class="cls-11" d="M479.51,434.64c.13-.38-1.88-1.35-4.59-1.37s-4.73.93-4.59,1.35,2.14.21,4.6.22S479.41,435.07,479.51,434.64Z"/><path class="cls-11" d="M514.27,430.7a32.78,32.78,0,0,1-1.3-6.95c-.62-4.38-1.4-10.53-2.21-17.61l.69.75c-1.17-.17-2.63-.54-3.64-.57a4.14,4.14,0,0,0-3,1.32,9.36,9.36,0,0,0-2.33,5.42,32.74,32.74,0,0,0-.34,5.94c.22,3.85.66,7.41.95,10.29a61.09,61.09,0,0,1,.76,9.55c-.23.07-1-3.5-2-9.39-.46-2.93-1-6.4-1.32-10.36a33.05,33.05,0,0,1,.24-6.29,10.88,10.88,0,0,1,2.81-6.43,6,6,0,0,1,4.2-1.79,31.78,31.78,0,0,1,4,.61l.64.1.05.65c.73,7.11,1.29,13.27,1.61,17.69A32.14,32.14,0,0,1,514.27,430.7Z"/><path class="cls-11" d="M483.78,468.56a9.25,9.25,0,0,1-.25-1.37,19.16,19.16,0,0,1,.21-3.86,48.19,48.19,0,0,1,4.39-13.43l-.1.33c.28-6.56-4.1-14.67-1-24a7.31,7.31,0,0,1,4.88-4.15,10.7,10.7,0,0,1,6,.3l.46.15.14.48c1.49,9.07,2.71,16.9,3.5,22.49a14.68,14.68,0,0,1-.16,6.69c-.37,1.51-.74,2.27-.87,2.15a11.78,11.78,0,0,1,.27-2.36,15.72,15.72,0,0,0-.33-6.44c-1.09-5.52-2.53-13.31-4.11-22.32l.55.66a9.2,9.2,0,0,0-5-.21,5.58,5.58,0,0,0-3.73,3.21,13.37,13.37,0,0,0-1,6,53.55,53.55,0,0,0,.46,6.07c.24,2,.67,3.77,1,5.73a32.51,32.51,0,0,1,.38,5.48l0,.16-.07.15a54.74,54.74,0,0,0-4.85,12.84C483.81,466.64,484,468.56,483.78,468.56Z"/></g><path class="cls-11" d="M447.88,471s5.16,6.22,16.14,5.45C464,476.49,450.86,481.34,447.88,471Z"/><g id="freepik--character-2--inject-2"><path class="cls-6" d="M473.82,935.89q-13.95-7.27-28.27-13.75c-11.57,62.6-26.12,185.16-26.12,185.16l44.25-6s14.28-71.68,48.11-138.2C493.15,951.32,493.4,946.1,473.82,935.89Z"/><path class="cls-12" d="M505.54,800.25c-10.05,9.34-17.17,18-17.58,17.62a25.3,25.3,0,0,1,4.22-6A135.66,135.66,0,0,1,518,787.74a26.45,26.45,0,0,1,6.27-3.82C524.6,784.37,515.6,790.91,505.54,800.25Z"/><path class="cls-13" d="M233.89,686.24l6.27.24c5.42.27,13.29.71,23,1.36,19.43,1.23,46.18,3.44,75.84,5.11s56.51,1.67,76,1.4l23-.51h6.27a16.45,16.45,0,0,1,2.22,0,9,9,0,0,1-2.19.27l-6.27.44c-5.42.34-13.29.68-23,1-19.47.64-46.46.78-76.12-.86s-56.44-4.09-75.83-5.62l-23-1.94-6.24-.58a11.87,11.87,0,0,1-2.14-.31A9.93,9.93,0,0,1,233.89,686.24Z"/></g><g id="freepik--character-2--inject-2-2" data-name="freepik--character-2--inject-2"><path class="cls-6" d="M529.42,877.43v8.93l.57-3.23q-.06-3.58-.21-7.15Z"/><path class="cls-6" d="M521.77,931.52l3.23-6.2c0-.9,0-1.8,0-2.7"/><path class="cls-6" d="M525.58,894.77c0,.14-.05.29-.08.43"/><path class="cls-6" d="M512.5,936.2a160.62,160.62,0,0,1,.47-16.71,238.09,238.09,0,0,1,3.78-26.71c1.85-16.3,3.59-32.63,3.85-49v-8.88c0-2.48,3.8-2.47,3.84,0,.06,2.88,0,5.75,0,8.63v17.09a2,2,0,0,1,3.38,1.3c.08.86.14,1.72.21,2.57.18-1,.35-2.07.53-3.11-2.19-18.65-3.58-37.4-4.44-56.15-1.06-23.38-1.33-46.77-1.39-70.17-54.13-12-145.3-14.81-145.3-14.81S291.6,829,314.47,834.68s144.28-9.92,144.28-9.92-34,42.34-45.43,75.53-33.15,215.9-33.15,215.9l47.79-8.38s43.56-91.78,84.88-170.52C493.41,937.28,512.51,936.64,512.5,936.2Z"/><path class="cls-12" d="M480.74,809.14c-10.05,9.34-17.18,18-17.59,17.62a25.63,25.63,0,0,1,4.23-6,135.66,135.66,0,0,1,25.84-24.13,26.09,26.09,0,0,1,6.27-3.81C499.8,793.26,490.8,799.8,480.74,809.14Z"/><path class="cls-13" d="M209.09,695.13l6.27.24c5.42.27,13.29.71,23,1.36,19.42,1.23,46.18,3.44,75.83,5.11s56.52,1.67,76,1.4l23-.51h6.27a16.3,16.3,0,0,1,2.21,0,8.86,8.86,0,0,1-2.18.27l-6.27.45c-5.42.34-13.29.68-23,1-19.46.65-46.45.78-76.11-.85s-56.44-4.09-75.84-5.63l-23-1.94-6.24-.58a11.87,11.87,0,0,1-2.14-.31A9.93,9.93,0,0,1,209.09,695.13Z"/></g><polygon class="cls-12" points="430.9 1108.55 474.16 958.29 431.79 1109.33 430.9 1108.55"/><path class="cls-14" d="M196,818.16q71.55,0,143.1,0c20.51,0,24.31,9.5,24.29,29,0,17.89-4.11,28.4-24.87,28.44-4.67,0-9.45.51-14-.09-13.73-1.81-16.49,3.16-14.69,13.55,17.57,101.35,34.71,195.77,52.23,297.13,1.2,6.9.11,9.63-9.38,9.74-23.68.29-24.17.75-27.45-18.23q-16.79-97-32.7-194.07c-1.43-8.8-5.08-11.46-15.76-11.37q-81.36.64-162.73,0c-10.41-.08-13.44,3-14.73,11-11.13,68.18-22.77,136.3-34,204.47-1,6.35-4.22,8.24-11.75,8.35-24.41.37-25.07.54-21.93-18.58C43,1108.14,54.78,1038.88,66.51,969.61c5-29.45,10-51.93,15.39-81.33,1.68-9.08-.29-14.22-13-12.49-2.73.37-5.61-.11-8.4.08-36.59,2.53-33.6-23-31.48-46.69.82-9.18,10.53-11.34,21.08-11.29,48.64.24,97.27,5.92,145.9,5.92ZM194.82,949c27.09,0,54.18-.2,81.26.13,8.3.1,12-1.4,10.59-9-4.36-23.65-8.33-30.9-12.1-54.62-1.14-7.19-4.17-10.24-14-10.11-42.95.53-85.94.6-128.89,0-10.65-.16-13.6,3.18-14.79,10.79-3.61,23-7.45,29.44-11.72,52.33-1.47,7.93.69,11,11.2,10.76C142.5,948.63,168.67,949,194.82,949Z"/><path class="cls-15" d="M66.61,969.71l-5.43,32.07c11.36,2.18,22.65,4.75,33.92,7.43q2.15-12.94,4.27-25.9c1.3-8,4.32-11.06,14.73-11q81.36.66,162.74,0c10.68-.09,14.33,2.57,15.75,11.37q2,12.56,4.13,25.13a313,313,0,0,0,31.85-13.26c-6.19-35-12.41-70.29-18.67-106.45-.59-3.41-.68-6.22-.06-8.41q-11.13.72-22.27,1.13-6.84.25-13.67.4a21.36,21.36,0,0,1,.78,3.32c3.77,23.72,7.73,31,12.1,54.62,1.41,7.65-2.3,9.15-10.59,9-27.08-.32-54.17-.12-81.26-.12-26.16,0-52.32-.38-78.46.19-10.51.23-12.67-2.83-11.19-10.76,4.27-22.89,8.11-29.37,11.71-52.33.48-3.05,1.25-5.4,2.67-7.12-12.88-.39-25.76-.7-38.65-.85,1.76,2.21,1.82,5.7,1,10.14C76.57,917.77,71.6,940.26,66.61,969.71Z"/><path class="cls-15" d="M28.56,834s155.34,28,222.33,19.49S363,837.8,360.3,827.66s-50.13-31.92-97.86-33.46-178.6,10.21-178.6,10.21-43.93,7.23-48.53,13.48S28.56,834,28.56,834Z"/><path class="cls-16" d="M51.5,722.77s-18.35,85.82,29.57,99.55,251.34,17,251.34,17-.79,66.57,6.95,122.27c7.12,51.25,15.91,119.35,15.91,119.35s132.81,21.19,149.15-8.48c0,0,53-261.26,29.12-342-8.91-30.18-115.55-56.47-144.76-63.77s-83.64,0-83.64,0S150.23,679.65,51.5,722.77Z"/><path class="cls-17" d="M467.7,729.36s31.52,2.71,36.95,21.73-4.89,45.1-4.89,45.1,8.07-41.36-4.89-52.6A67.28,67.28,0,0,0,467.7,729.36Z"/><path class="cls-18" d="M490.54,677.69a.36.36,0,0,1-.17.07l-.06-.46Z"/><path class="cls-19" d="M487.28,489.4s-27.61-.3-45.58-8.17c0,0-25.62,58.54-57.21,105.49-.45-34.86,1.83-77-3.15-106.35A37.47,37.47,0,0,0,368.46,458l-61-51.26s-28.53,59.81-38.89,98.15,90.27,157.59,124.88,164c36.12,6.67,28.58-3.2,47.05-16.67C445.92,643.24,480.64,577,487.28,489.4Z"/><path class="cls-20" d="M394.6,693.35c-2.06-1.36-4.23-2.75-6.48-4.14a198.1,198.1,0,0,0-25.85,16.87"/><path class="cls-6" d="M234.26,384s39,88.89,84.51,104.68c0,0,4.14,1.71-5.22-18.76,5.22-5,6.84-6.5,10.84-10.64,13.3-13.83,38.5-45.82,38.5-45.82l-30.25-54.05-7.75-30c-6.13,8.83-13.44,15.48-19.29,22.44C273.45,390.08,234.26,384,234.26,384Z"/><path class="cls-19" d="M323.89,630.31c-14.09,47.44-17.72,1.46-19.59,5.5-6.73,14.54-19.88,3.37-26.76,15.19l-.65,1.12C263.33,675.35,239.61,684,241,689.26c2.73,10.62-71.54,5.59-115.2,22.07C75.1,730.45,59,741,47.15,753.92c-5.31,5.81-7.79-8.35-8.73-21.95-2.06-28.63,31.17-147.45,31.17-147.45C110.3,392,276,372.44,276,372.44s-3.45,86.12,68.25,98.87c.06.07,15.06,117.24,6,165.25C348.86,643.5,325.27,625.68,323.89,630.31Z"/><path class="cls-16" d="M245.61,687.63c-8,4.14-29.38,12.39-39.18,6.29-60.93-66.7-34.92-236.18-34.92-236.18l92.1,194.67C249.76,676.22,250.54,685.08,245.61,687.63Z"/><path class="cls-19" d="M437.92,649.37s-104.95-19-168.4-26.92c-2.67-73.54,8.16-295.56-94.34-194.8,0,0-29.52,211.42,39.15,265.53,0,0,184.13,21.89,217.17,16.15,0,0,1.93,2,4-1.69C442.05,696,437.92,649.37,437.92,649.37Z"/><path class="cls-21" d="M233.85,413.94s25.47,14.34,37,45.37l3.53,163.76,50.71,7.79,1.17-1.11-50.14-8.91s-2-154.52-3.67-162.28C269.77,445.6,252.53,425.44,233.85,413.94Z"/><polyline class="cls-21" points="384.29 587.93 379.17 624.85 384.43 572.39 384.39 585.86"/><polygon class="cls-21" points="323.79 630.65 438.15 651.44 437.92 649.37 325.5 629.6 323.79 630.65"/><path class="cls-19" d="M81.11,543s23.08-89.6,90.48-142.85a83.32,83.32,0,0,1,38-16.73l66.32-11L201,422.76Z"/><path class="cls-21" d="M359,524.79s8.66,37.26,6,54.05-17.21,27.39-18.77,33.56-.17,22.3-.17,22.3l-2.55-.46s-1.07-18.87,2.33-25.29,15.88-18.22,17.89-32.11c0,0,.57-13.17,0-18.6S359,524.79,359,524.79Z"/><path class="cls-22" d="M324.66,218.09c8.29-4.79,18.3-5.93,25.57.13,7.1-16.39,27.2-18.72,43.63-11.72,8.26,4,15.09,11.66,24.22,12.52,5.69.55,11.17-1.59,16.83-2.87,23.54-4.94,44.15,22.85,51.68,45.7s-4.37,39-21.4,56c-7.91,7.9-9.72,13.34-15.48,23-5.43,9.13-19.44,24.29-23.93,33.77s5.81,26.3-4.16,22.63l-99-60.49c-17-4.09-24.74-13.37-26.39-30.75-.9-11.7,1-11.33,5.22-22.26,5.15-14.45-4.15-31.38,3.08-44.91C308.78,230.2,316.64,223.41,324.66,218.09Z"/><path class="cls-23" d="M311.93,211.52s44.45-1.29,88.77,25.37,53.95,65.77,52.67,90-19.91,41.85-19.91,41.85,10.22,8.53,37.32-29.92c39.49-56-6.11-121.78-21.31-128.53S364.24,152.45,311.93,211.52Z"/><path class="cls-11" d="M347.28,431.22s-7.18-4.92-11.84-8.94-14-8-28.65-41c0,0-5.08,29.74,23.81,50.15,0,0,7.35,5.52,13.32,6.73Z"/><path class="cls-6" d="M450,284c.06.15.14.29.21.44a5.94,5.94,0,0,1-.05-.72Zm11.45,10.08c.09.28.2.58.32.88l.14-.24S461.59,293.81,461.42,294.1ZM304.89,376.73c5,19.37,16.45,43.32,36.06,53.53,7,3.66,15.72,3.87,23,2.13,11.06-2.64,22.59-5.19,32.47-10.09a82.8,82.8,0,0,0,11.4-6.57,72.86,72.86,0,0,0,10.39-9.16c7.58-7.84,8.94-10.27,13.18-20a105,105,0,0,1,7.69-14.49c2.94-4.35,15.21-21.08,21.61-31.36s9.42-34.88,9.42-34.88c1-3.18-3.74-3.93-4-7.09l-1.24-.72a1.39,1.39,0,0,1,0,1.49,11.22,11.22,0,0,1-3.13-4.53l0,0c-2.34-.23-3.7-2.15-4.41-4.46-.17.28-.19,1,.12,1.21a7.16,7.16,0,0,1-3.94-4.57c-.17.28-.19,1-.35,1.31a13.07,13.07,0,0,1-2.95-4.05c.07.53,7.65,3.5,7.53,3.69-2-.79-.25,1.06-1-1.25l-.92-1.94c-1.7-.62-2.18.34-2.76-1.5.14.46,1-3.61.8-3.33-1.85-1.08-1.27-.9-2.32-2.65-.16.28-6.11-1.09-6.27-.81-1.54-.9-2,.75-2.53-1.09.14.46,1.8-.54,1.94-.08-2-.79-3.39,0-4.11-2.32.14.46-4.29-6.65-4.29-6.65-2-.79-2,0-2.92-2,.29.92-8.22-5.49-8.25-4.75-1.53-.89-.34,7.36-1.08,5.8-.16.28-3-2.92-3-2.92-1.7-.61-.21,2.15-.79.3-.16.28-.35,1.31,0,1.49-2.34-.22-4.17-2-5.36-4.25.29.92.27,1.67.41,2.13-1.54-.9-2.93-1.33-3.82-3.36-.16.28,0,1.49.27,1.67a7.07,7.07,0,0,1-4.6-3.43c-.16.28.12,1.2.26,1.66a5.06,5.06,0,0,1-3.36-2.71l.26,1.67c-1.23-.72-2.48-.69-4-2.33-.16.28.29.92.12,1.21a13.35,13.35,0,0,1-2.91-2.08c-.17.28.43,1.38.12,1.2-1.23-.71-2.49-.68-3.7-2.14.15.46.13,1.2.27,1.66-1.23-.71-2.63-1.15-3.53-2.43a2.33,2.33,0,0,0,0,1.49c-1.24-.72-2.49-.69-3.7-2.15-.17.28.12,1.21.27,1.67a18.46,18.46,0,0,1-3.7-2.16c-.17.29.29.93.43,1.39-1.23-.72-2.63-1.15-3.84-2.61-.33.56-.19,1-.35,1.31-.93-.54-1.38-1.18-2.3-1.72l-1.87-.33c-7.6,3.15-21.13-10.84-21.13-10.84-14,2.08-23.92,48.59-26.74,54.14s-6.74,5.27-6.74,5.27c-.39-2.88-5.68,1.88-5.28-.92.22-2.51,2.32-4.7,2.55-7.21-.14-6.14-7.12-8.31-12.16-7.46l-1.1.6c-8.44,3.65-14.83,26.52-14.76,34.45-5.95,12.63,1,25.08,12,19.83L301,343.28"/><path class="cls-24" d="M384.81,382.41a10.2,10.2,0,0,1-7.73-5.17c-.32-.61-2.19-1.29-1.73-.43,1.94,3.61,6.81,6.68,10.62,6.86.38,0,.46-.24.17-.57a2.3,2.3,0,0,0-1.33-.69"/><path class="cls-24" d="M374.74,375.58a16.39,16.39,0,0,0-4.24-4.1,1.27,1.27,0,0,0-.89-.2c-.22,0-.35.2-.22.41a6.22,6.22,0,0,0,2.35,2.2,1.19,1.19,0,0,0,1,.16c.28-.14.09-.45-.14-.58a4.91,4.91,0,0,1-1.89-1.78l-1.13.21a14.87,14.87,0,0,1,3.78,3.68,1.21,1.21,0,0,0,1,.43c.24,0,.58-.14.39-.43"/><path class="cls-24" d="M367.83,371.85c-2-1.21-3.81-3.45-3.92-5.51-.17-3.12,3.29-5.9,6.62-5.89.37,0,.34-.28.1-.5a1.87,1.87,0,0,0-1.2-.4A8,8,0,0,0,362.5,364c-.84,2.15.26,4.65,2.32,6.61a12.31,12.31,0,0,0,2,1.6c.3.18.9.41,1.18.26s.07-.42-.21-.59"/><path class="cls-24" d="M389.06,383.53a.3.3,0,0,1,.47-.23,2.71,2.71,0,0,0,1.84.4c.06.32.11.63.16.95a8.13,8.13,0,0,0-3.78-.71.64.64,0,0,1-.58-.47c-.07-.18-.06-.51.21-.53"/><path class="cls-24" d="M387.38,382.94a9,9,0,0,1,4.21.81.75.75,0,0,1,.4.55.32.32,0,0,1-.24.4"/><path class="cls-24" d="M393.05,386.22a4.73,4.73,0,0,0,4.87-.39,6.75,6.75,0,0,0,2.16-7.29.28.28,0,0,1,.34-.37.91.91,0,0,1,.57.63,7.56,7.56,0,0,1-1,6.65,5.31,5.31,0,0,1-5.29,2.19,5.7,5.7,0,0,1-1.62-.53c-.2-.11-.5-.41-.46-.7s.28-.29.47-.19"/><path class="cls-25" d="M428.71,355.26a4.94,4.94,0,0,1,4.45,6.46,5.17,5.17,0,0,1-3.42,3.44,4.79,4.79,0,0,1-5.23-1.93,5.29,5.29,0,0,1,.85-6.63,4.66,4.66,0,0,1,3.35-1.34"/><path class="cls-25" d="M410.12,352.08s12.14-1.71,16.64.34c6.57,3,12.22,10.9,12.63,15.26,0,0-7.13-11-11.82-13C423.08,352.77,410.12,352.08,410.12,352.08Z"/><path class="cls-25" d="M376.51,325.74c-1.2-1.88-4.09-3.24-5.78-2.9a5.05,5.05,0,0,0-2.48,1.27,5.16,5.16,0,0,0-1.31,4.66,4.79,4.79,0,0,0,4.27,3.6,5.28,5.28,0,0,0,5.34-4c.1-.39.82-.84-.15-2.36"/><path class="cls-25" d="M384.65,336.6s-5.92-11.45-10.47-14.27c-6.63-4.13-17-4.86-21.05-2.91,0,0,14,.36,18.6,3.39C376.13,325.71,384.65,336.6,384.65,336.6Z"/><path class="cls-26" d="M427,327.25l-3,3.16c-.77.8-1.54,1.6-2.3,2.41,3.32,1.91,6,3.69,8,5.08,4.24,2.93,6.4,4.44,8.18,6.85a28.77,28.77,0,0,1,3.37,6.24,18.24,18.24,0,0,1,1.24,3.82c.54,3.05-.15,5.22.27,5.38s1.19-1.57,1.27-1.75a17,17,0,0,0,1.32-9,20.11,20.11,0,0,0-2.74-7c-1.57-2.56-7-8.58-15.62-15.13"/><path class="cls-26" d="M401.71,312.44c-.56,1.35-1.11,2.69-1.68,4.05-.42,1-.85,2.05-1.28,3.07-3.4-2.4-6.37-4.28-8.64-5.64-4.8-2.88-7.26-4.33-10.42-5.09a32.55,32.55,0,0,0-7.61-.8,20.44,20.44,0,0,0-4.3.27c-3.2.65-5,2.12-5.35,1.78s1-1.71,1.11-1.85a17.33,17.33,0,0,1,8.17-4.65,22.48,22.48,0,0,1,8.11-.09c3.22.51,11.56,3.34,21.89,8.95"/><path class="cls-27" d="M309,314.47c1.25-20.14-3.7-22.76-3.7-22.76s-5.29,2.16-7.48,10.7"/><path class="cls-27" d="M305.69,314.68c-4.27-2.69-5,7.43-7.25,8.78s-1.25-4.72,1.37-11.32c0,0,4.27-8.55,9.3-8"/><path class="cls-11" d="M397,293.52s8.24,11,19.52,16.21S442.39,320,442.39,320"/><path class="cls-26" d="M470.28,289.92c0-.27,0,.12,0,0-.9-5.26-.66-10.29-1.78-15.5s-2.32-9.83-3.71-14.87c-.08-.3-3.7-2.16-3.79-2.46l-.09-.31c0-.16-.09-.32-.14-.47-.1-.37-.21-.73-.32-1.1-13.75-16-34.25-27.14-56-30.44a77.41,77.41,0,0,0-88.15,64.94c-.56,3.62-4.28,6.53-2,9.8s3,2.55,6.93,1.93a25.57,25.57,0,0,0,10.54-5.13c15.33-11.37,28.92-34.66,33.39-53.21.51,4.15,16.29,7.68,18.44,11.27a30,30,0,0,0,41.15,10.25,46,46,0,0,0,1.75,7.33c7.19,21.88,22.46,38.16,43.23,35.13C470.44,307,470.82,293.25,470.28,289.92Z"/><path class="cls-13" d="M352.55,309.34l-1.33,6.85c-1.41,5.11-3,15.89-2.87,19.18.25,4.61,23.32,19.34,29.54,19.25s16.51-12.23,19.54-14.68l9.22,5.91c-1.46,4.56-5.77,19.16-4.95,21.92s11.92,8.61,13.17,9.27c1.05.54,2.51,1.29,4.14,2,4.29,2,9.69,4.16,12.1,3.5,3.57-1,11-8.21,17.73-15.18l1.08-1.08c.25-.27.47-.43.53-.52h0l1.22-1.26c-10-14.27-28.63-23.34-44.09-21.48v.19l-9-5.8c-6.54-12.89-22.54-26.92-38.36-29.21h0l-44.07-16-2.14,3.5Zm51,57.74c-.51-1.72,2.24-12.11,4.61-20.06,13.33-1.42,30.09,6.78,39.44,18.84l-.11.18c-3.64,3.73-13.3,13.67-16.81,14.63-4.15,1.13-26.12-10.76-27.15-13.55ZM351.72,336a140.07,140.07,0,0,1,3.71-24.94c14.51,1.27,33,15.55,39.47,27.95-4.85,4.76-12.54,13.54-17,13.59-6.41.09-26-13.69-26.18-16.6Z"/><path class="cls-28" d="M403.9,367c-.52-1.73,2.23-12.11,4.61-20.06,13.33-1.42,30.08,6.78,39.43,18.84l-.11.18c-3.63,3.73-13.3,13.67-16.81,14.63-4.15,1.12-26.11-10.77-27.15-13.56Z"/><path class="cls-28" d="M351.72,336a140.07,140.07,0,0,1,3.71-24.94c14.51,1.27,33,15.55,39.47,27.95-4.85,4.76-12.54,13.54-17,13.59-6.41.09-26-13.69-26.18-16.6Z"/><path class="cls-29" d="M294.68,288s-23.05-42,3.25-63c5-4,4.51-2.17,6.81-6.64,12-23.38,1-21.65,49-33S406.56,177,457.82,206c26.43,15,36,33.54,35.29,54.44-.33,9.4-2.73,19.27-6.63,29.51,0,0-48.44-42.45-90.28-40.23s-104.52,44.18-106.29,66.32C289.42,322.29,294.68,288,294.68,288Z"/><path class="cls-23" d="M285.36,251.8s80.24-46.75,144.58-18.91c0,0-74.28-45.37-135.33-5.87L291,233.35a39.7,39.7,0,0,0-4.61,12.7Z"/><path class="cls-11" d="M407.6,316.67s8.24,11.82-6.86,10.34C400.74,327,407.75,324.41,407.6,316.67Z"/><path class="cls-11" d="M422.24,324.92s-13.86-4-7.57,9.84C414.67,334.76,414.86,327.29,422.24,324.92Z"/><path class="cls-30" d="M373.5,389.53c-7.74-4.62-27.47-10.36-32.59-9.59,0,0,5.39,11,23.33,21.75s24.35,6.72,24.35,6.72S383.35,395.41,373.5,389.53Z"/><path class="cls-5" d="M350.61,380.55s9.42,5.19,16.57,9.88,15.67,11.24,15.67,11.24,4.45-4.28-8.52-12.78S350.61,380.55,350.61,380.55Z"/><path class="cls-31" d="M365.38,399.44c-7.46-6.47-14-14.8-23.87-20.5,0,0-4.08,12.08,16.47,25.54s30,4.91,30,4.91C378.78,402.57,374.28,403.7,365.38,399.44Z"/><path class="cls-31" d="M385.12,391.9c-4.12-3.13-7.86-3.38-9.74-4.61s-3.6-4.56-8.11-7.09c-4.23-2.37-27.43-4.26-26.31-1.8s18.85,4.31,31.84,12.82,13.16,18.41,15.87,18.45S389,394.83,385.12,391.9Z"/><rect class="cls-32" x="477.85" y="618.66" width="87.31" height="55.64" rx="3.15" transform="translate(-166.33 180.87) rotate(-17.01)"/><rect class="cls-33" x="471.88" y="625.41" width="101.45" height="64.65" rx="6.11" transform="translate(-116.95 113.03) rotate(-11.11)"/><path class="cls-34" d="M570.81,676.23,487,692.69a2.76,2.76,0,0,1-3.25-2.19l-9.57-48.7a2.77,2.77,0,0,1,2.19-3.25l83.81-16.46a2.76,2.76,0,0,1,3.25,2.19L573,673a2.77,2.77,0,0,1-2.19,3.25Z"/><path class="cls-6" d="M534.21,673c2.09-2.61,3.2-3.9,2.14-7.32-.41-1.34-1.71-2.38-2.78-3.63l-32.73-11.7c4-5.14,19.76-1.23,22.73-7s-4.34-5.34-5.87-5.77-27.14-1.17-27.14-1.17-21.78,6.91-26.43,9.74-16.51,12.72-16.51,12.72l-9.54,5.65s1.81,25.63-1.36,38.62c-.23.94,12.22-2.47,20.22.16s25.21,2.41,25.21,2.41,28.5-5.83,31.64-8.25,5.54-9.93,5.54-9.93a28.74,28.74,0,0,1,6.9-2.92c6.38-2.32,6.82-10.84,6.82-10.84H533C533.26,673.76,533.94,673,534.21,673Z"/><path class="cls-11" d="M505,651.9a90.31,90.31,0,0,1-12.78-2.09,51.12,51.12,0,0,1-12.69-2.88,55,55,0,0,1,13,1.28A36.91,36.91,0,0,1,505,651.9Z"/><path class="cls-11" d="M493.58,669.94c0-.52,8.67-.45,19.07,1.21,5.22.78,9.94,1.62,13.34,2.18a25.36,25.36,0,0,1,5.52,1.1,16.12,16.12,0,0,1-5.67,0c-3.46-.25-8.2-.9-13.41-1.69C502,671.11,493.57,670.32,493.58,669.94Z"/><path class="cls-11" d="M489.52,684.4c.13-.45,6.61,1.14,14.76,2s14.83.63,14.94,1a39.56,39.56,0,0,1-15.06.5A40.23,40.23,0,0,1,489.52,684.4Z"/><rect class="cls-35" x="550.09" y="637.47" width="31.25" height="17.57" rx="4.35" transform="translate(-113.93 121.12) rotate(-11.11)"/><circle class="cls-36" cx="559.7" cy="647.43" r="4.86"/><path class="cls-4" d="M573.92,114.22c13.54,1.86,23.39,14.49,21.77,27.9-1.69,14-15.22,23.94-29.45,21.55a25,25,0,0,1,7.68-49.45Z"/><path class="cls-5" d="M577.54,106.15c13.54,1.86,23.39,14.48,21.77,27.9-1.7,14-15.23,23.93-29.45,21.55a25,25,0,0,1,7.68-49.45Z"/><path class="cls-4" d="M671.76,87.59c18.55,2.55,32,19.84,29.83,38.22-2.33,19.24-20.86,32.8-40.36,29.53a34.28,34.28,0,0,1,10.53-67.75Z"/><path class="cls-5" d="M678.43,80c18.55,2.56,32.05,19.85,29.83,38.23-2.33,19.24-20.86,32.8-40.36,29.53A34.29,34.29,0,0,1,678.43,80Z"/><path class="cls-4" d="M515.76,164.87a17.62,17.62,0,1,1-5.41,34.81,17.61,17.61,0,0,1,5.41-34.81Z"/><path class="cls-5" d="M520.06,161a17.62,17.62,0,1,1-5.41,34.81A17.61,17.61,0,0,1,520.06,161Z"/><path class="cls-6" d="M762.5,254.8s6.44,31.5,4.32,40.79c-.52,2.26-29,19.22-29,19.22l57.63,6.94,47.64-16S814.31,293.54,813.2,291s-3-20.48-3-20.48"/><g id="freepik--Character--inject-2-2" data-name="freepik--Character--inject-2"><path class="cls-6" d="M735.21,374.53l-29.44-7c-1.58,3.52-7.2,41.4-7.2,41.4-8.23,9.24-21.54,15.58-26.51,17.28-3.75,1.28-16.55,4.71-16.55,4.71l4.14,20,10.77-.14c31.48,2.52,45.79-12.85,50.32-16.28s16-49.94,16-49.94Z"/><path class="cls-6" d="M684,450.29l-5.14,7.38s-9,5.89-11.54,6.3-5.26-3.73-5.26-3.73,1.36-2.49-.67-.43-5-2.52-5-2.52l-4.81,1.21a7.21,7.21,0,0,1-6.15-1.56c-2.6-2.42,1.27-6.4,2.11-7.46s-1-1.38-1-1.38a79.13,79.13,0,0,1-10.56,2.07c-3.47.22-5.51.72-5.66-2.36s6.51-4.38,8.66-5.16,9.27-6.37,9.63-9-2.15-3.36-8.3-5-12.19-3.41-11.49-6.68,10.18-1.93,13.63-.21,12.43.4,19.52,2.8,11.92,11.14,11.92,11.14Z"/><path class="cls-11" d="M653.49,451.9a9.35,9.35,0,0,0,1.6-2.47,3,3,0,0,0-.27-3.11,3,3,0,0,0-3.06-.72,5.82,5.82,0,0,0-2.42,1.5c-1.2,1.23-1.81,2.16-1.93,2.07a6.58,6.58,0,0,1,1.48-2.47,6,6,0,0,1,2.65-1.79,3.79,3.79,0,0,1,3.91.9,3,3,0,0,1,.78,2.07,4.35,4.35,0,0,1-.41,1.91,9,9,0,0,1-1.8,2.52c-1.24,1.25-1.83,2.05-1.92,2.05S652.43,453.25,653.49,451.9Z"/><path class="cls-11" d="M665.53,450.24a49.62,49.62,0,0,0,2.65-6.8,14,14,0,0,0,.74-4.11,2.39,2.39,0,0,0-.84-1.69,1.9,1.9,0,0,0-2-.11c-1.34.49-2.05,2-2.7,3.28l-1.87,3.95-3.35,6.56a13.87,13.87,0,0,0-1.83,4.51,5.43,5.43,0,0,0,.1,1.75s-.13-.11-.25-.41a3.06,3.06,0,0,1-.21-1.37,12.32,12.32,0,0,1,1.62-4.74l3.18-6.7,1.91-3.91a6.47,6.47,0,0,1,3.14-3.71,2.8,2.8,0,0,1,2.67.27,3.27,3.27,0,0,1,1.15,2.31,14.16,14.16,0,0,1-.82,4.41,42.37,42.37,0,0,1-2.83,6.83c-1,1.86-1.83,3.33-2.43,4.35a7.75,7.75,0,0,1-1,1.51C662.42,456.34,663.66,454.07,665.53,450.24Z"/><path class="cls-11" d="M671.23,458c.31-1.06,1-2.55,1.73-4.41l2.66-6.49a8.3,8.3,0,0,0,.72-3.84,3.13,3.13,0,0,0-.75-1.76A1.52,1.52,0,0,0,674,441c-1.13.38-1.81,2-2.59,3.11l-2.12,3.55-3.48,6.09-2.28,4.16a7.41,7.41,0,0,1-1,1.46,7.74,7.74,0,0,1,.66-1.67c.48-1,1.2-2.45,2.12-4.23s2-3.89,3.32-6.2c.62-1.16,1.34-2.36,2.09-3.59.37-.63.74-1.23,1.16-1.88a3.64,3.64,0,0,1,1.91-1.61,2.39,2.39,0,0,1,2.45.82,4,4,0,0,1,.93,2.22,8.91,8.91,0,0,1-.81,4.23c-1.07,2.44-2,4.6-2.86,6.43s-1.49,3.3-2,4.3a7.79,7.79,0,0,1-.83,1.53A7.31,7.31,0,0,1,671.23,458Z"/><path class="cls-11" d="M640.9,425.12c-.52,1.41-1.67,1.94-1.82,1.74s.6-.93,1-2.05.28-2.18.53-2.2S641.41,423.7,640.9,425.12Z"/><path class="cls-11" d="M703.27,409.78a13.64,13.64,0,0,1,6.07,4.12,22,22,0,0,1,3.64,6.28,9.52,9.52,0,0,1,.83,2.91,12.92,12.92,0,0,1-1.38-2.66,27.15,27.15,0,0,0-3.76-6,15.05,15.05,0,0,0-5.62-4.11c-1.69-.68-2.83-.75-2.84-.88A5.44,5.44,0,0,1,703.27,409.78Z"/><path class="cls-6" d="M856.1,374.88s-2.37,45.35,0,55.5,9.33,12.65,11.3,14.81,6.51,2.33,16.74,1.47,42.49-10.85,42.49-10.85l-.31-22.47s-20.52,3.89-24.18,3.66-18.23-6.86-18.23-6.86l-3.08-36.79Z"/><path class="cls-11" d="M867.44,425.11a24,24,0,0,1,11-12.84,9.59,9.59,0,0,1,3.3-1.29,29.51,29.51,0,0,0-15.06,17.61A9.27,9.27,0,0,1,867.44,425.11Z"/><path class="cls-6" d="M915.55,431.35l6,6.69s9.63,4.73,12.22,4.82,4.76-4.34,4.76-4.34-1.66-2.31.62-.51,4.69-3.12,4.69-3.12l4.92.6a7.23,7.23,0,0,0,5.91-2.3c2.27-2.73-2.05-6.2-3-7.15s.81-1.48.81-1.48a80.16,80.16,0,0,0,10.73.75c3.47-.22,5.57.06,5.33-3s-7-3.56-9.23-4.07-10-5.17-10.67-7.72,1.72-3.6,7.62-6,11.68-4.89,10.59-8-10.35-.66-13.57,1.47-12.27,1.93-19,5.18-10.45,12.53-10.45,12.53Z"/><path class="cls-11" d="M945.59,429.72a8.91,8.91,0,0,1-2.18-2.32,4.37,4.37,0,0,1-.65-1.85,3.09,3.09,0,0,1,.52-2.15,3.78,3.78,0,0,1,3.77-1.37,6,6,0,0,1,2.85,1.45,6.44,6.44,0,0,1,1.77,2.27c-.11.1-.83-.75-2.16-1.81a5.8,5.8,0,0,0-2.6-1.2,3,3,0,0,0-2.94,1.09,2.93,2.93,0,0,0,.11,3.12,9.36,9.36,0,0,0,1.9,2.26c1.29,1.2,1.9,2.24,1.77,2.25S947,430.74,945.59,429.72Z"/><path class="cls-11" d="M936.31,433.42c-.72-.9-1.76-2.28-2.95-4a42.42,42.42,0,0,1-3.65-6.43,13.64,13.64,0,0,1-1.35-4.27,3.23,3.23,0,0,1,.86-2.43,2.76,2.76,0,0,1,2.61-.6A6.47,6.47,0,0,1,935.4,419l2.53,3.57,4,6.26a12.84,12.84,0,0,1,2.2,4.5,3.11,3.11,0,0,1,0,1.39,1,1,0,0,1-.2.43,5.17,5.17,0,0,0-.11-1.75,13.83,13.83,0,0,0-2.37-4.24L937.25,423l-2.42-3.63c-.81-1.23-1.69-2.59-3.08-2.91a1.89,1.89,0,0,0-1.81.38,2.44,2.44,0,0,0-.63,1.78,13.23,13.23,0,0,0,1.24,4,48.61,48.61,0,0,0,3.48,6.43c2.2,3.52,3.72,5.71,3.61,5.71A7.14,7.14,0,0,1,936.31,433.42Z"/><path class="cls-11" d="M928.91,437.62c-.67-.89-1.44-2.32-2.49-4s-2.3-3.73-3.63-6a9,9,0,0,1-1.33-4.1,4.06,4.06,0,0,1,.65-2.32,2.44,2.44,0,0,1,2.33-1.12,3.69,3.69,0,0,1,2.1,1.37c.49.58.93,1.14,1.37,1.72.9,1.13,1.74,2.25,2.52,3.31,1.58,2.13,2.94,4.08,4.07,5.73s2,3,2.62,3.94a7.33,7.33,0,0,1,.86,1.58,7.17,7.17,0,0,1-1.14-1.33l-2.82-3.8-4.13-5.67-2.55-3.26c-.91-1.05-1.75-2.52-3-2.76a1.54,1.54,0,0,0-1.58.77,3.13,3.13,0,0,0-.52,1.84,8.25,8.25,0,0,0,1.17,3.71l3.46,6.12c1,1.75,1.74,3.16,2.26,4.16a7.33,7.33,0,0,1,.73,1.58A8.26,8.26,0,0,1,928.91,437.62Z"/><path class="cls-11" d="M956,400.65c.53,1.07,1.3,1.66,1.25,1.89s-1.33-.16-2-1.5-.26-2.59,0-2.51S955.47,399.57,956,400.65Z"/><path class="cls-11" d="M917.76,433.54a9.48,9.48,0,0,1-1.17-3.85,12.11,12.11,0,0,1,.64-4.92,21.69,21.69,0,0,1,4.66-7.45,13.27,13.27,0,0,1,2.63-2.5,19,19,0,0,1-2.16,2.88A24.81,24.81,0,0,0,918,425a12.36,12.36,0,0,0-.67,4.55,10.43,10.43,0,0,0,.91,3.64,15.65,15.65,0,0,0,2,2.88A5.37,5.37,0,0,1,917.76,433.54Z"/><path class="cls-37" d="M733.46,374.05l.68,63.45-8.78,71.94s139.38-5.63,141.31-6.09l-4.81-44.72-5.72-83.8,28.13-1.74s-8.68-46.88-12.62-55.2-23.65-14-23.65-14l-31.18-11.31s-1,15.67-20.42,17.17c-19.84,1.52-30.29-17.17-30.29-17.17-14.94,5.84-48.05,15.52-48.05,15.52-6.85,3.15-19.4,57.72-19.4,57.72Z"/></g><path class="cls-38" d="M856.14,374.83a42.09,42.09,0,0,1,.31-8.68c.54-3.32,7.92-36.26,7.92-36.26s-4.4,29.69-5.11,33-.54,11.87-.54,11.87Z"/><path class="cls-38" d="M733.46,374.05c-.49-5.73-7.1-41.63-7.1-41.63l4.8,41.09Z"/><path class="cls-11" d="M667.16,428.06s3.51,4.49,3.51,6.22a12.21,12.21,0,0,0-2.28-6.49Z"/><path class="cls-39" d="M825.6,199.77h0c.46-5.28.42-8.48-1.56-11.76-1.4-2.31-6.14-4.15-6.14-4.15s-2.22-7.26-5.41-5.66c0,0-5-9.34-14.35-5.1,0,0-3.11-.24-4.45,1.89,0,0-6.08-7.73-13.5-.37,0,0-3.61-1.52-4.26,1.24,0,0-6.58-4.38-11.41.9,0,0-14.68-.34-16.63,9.15,0,0-7.48-2.3-9.91,4.84,0,0-3.52.9-2.68,5.84,0,0-5,2.48-5,5.81,0,0-2.64,3-1.54,8.09.31,1.47.74,1,1.56,2.91-1.91,6.4,2.69,6.33,2.69,6.33-3.62,6.26,3.3,12.08,3.3,12.08s-1.54,4.64.18,7.14c2.34,3.41,10.19,6.26,10.19,6.26s0-10.28-1.5-16.55,1.78-18.18,3.07-20.86,14.32-.49,33.12-3.68,22-7.2,24.34-7c4.86.45,11.59,16.25,12.31,21.25s3.86,14.13,3.86,14.13,9.25-6,5.14-13.86c0,0,2.26-6.59.36-10a3.8,3.8,0,0,0-1.5-2.09S828.65,202.27,825.6,199.77Z"/><path class="cls-6" d="M773.66,273.62c8.89,7.39,21.13,11.42,32.11,12,10.76.57,13.76-3.43,15-5.19,6.71-9.66,10.62-19,12.13-29.4a24.71,24.71,0,0,0-.57-8.68c-.94-4.42-3.06-12.85-3.63-17.12-1.46-10.89-4.14-20.55-11.49-28.78C801.89,179.3,772.26,184.13,762,191c-12,8-15.91,21.36-14.72,34.71a36,36,0,0,0,3.07,11.89,38.57,38.57,0,0,1,5.73,5.84"/><path class="cls-40" d="M817.47,198.28s1,.65,8.6,13c-2-4-3.7-10.21-8.14-15.55-15.52-18.63-54.19-10-64.36-2.69-11.89,8.55-14.68,22.51-13.34,36.9.54,5.84.85,9.58,3.3,14.13.09.05,1.26,1,1.26,1s12,.5,16.91,7l-.76-6.19a127.37,127.37,0,0,0,2-21.75s-1.06-7.29-1.49-9.46c-1.32-6.69,4.94-6.19,9.28-5.75a56.23,56.23,0,0,0,11.07-.62c6.84-1.17,15.36-3.51,18.58-4C805,203.67,817.47,198.28,817.47,198.28Z"/><path class="cls-41" d="M817,198.43a7.57,7.57,0,0,1,1.46,1.91c2.52,3.6,4.82,7.36,7.12,11.1.12.19,1-.14,1-.26-1.4-2.84-2.44-5.85-3.83-8.7a31.34,31.34,0,0,0-5.75-8.43,30.66,30.66,0,0,0-13.07-7.55c-10-3-21-2.55-31.1-.56-8.29,1.63-17.08,4.17-23.28,10.21-9.93,9.67-10.83,23.78-9.5,36.78a31,31,0,0,0,2.32,9.88c.59,1.29,1.31,2.35,2.77,2.48,4.47.37,9.2,1.49,13,4a12.85,12.85,0,0,1,3.14,2.88c.12.16,1-.05,1-.26l-.38-3.09a20.37,20.37,0,0,1-.38-3.09c.07-1.6.58-3.28.8-4.87.59-4.42.95-8.88,1.14-13.34a25.22,25.22,0,0,0-.05-4.68c-.25-1.63-.49-3.27-.75-4.91-.45-2.87-2.08-7.68,1.81-8.81a14.69,14.69,0,0,1,5.29-.13,35.76,35.76,0,0,0,5.28.1c8.7-.41,16.91-3.2,25.44-4.64a53.21,53.21,0,0,0,10.15-3.21c2.42-.93,4.83-1.9,7.21-2.93.58-.25-.33-.18-.55-.09-2.07.9-4.17,1.75-6.28,2.57a53.64,53.64,0,0,1-10,3.3c-8.87,1.57-17.46,4.46-26.53,4.69-3.24.08-6.61-.77-9.81,0a5,5,0,0,0-3,1.73c-1,1.33-.76,3-.49,4.55.54,3,1.15,6,1.4,9a48.2,48.2,0,0,1-.26,7c-.14,2.32-.34,4.65-.59,7-.2,1.83-.44,3.66-.72,5.47-.13.78-.37,1.59-.42,2.37a13.16,13.16,0,0,0,.26,2.49l.47,3.82,1-.26c-3-3.86-8-5.6-12.64-6.48-1.37-.26-2.86-.23-4.21-.55a3.19,3.19,0,0,1-1.22-.86c-1-1-1.5-3.05-1.9-4.39a50.15,50.15,0,0,1-1.52-10,64.1,64.1,0,0,1-.17-9.8,38.76,38.76,0,0,1,5.31-18.12A28.49,28.49,0,0,1,757,191.27a56.42,56.42,0,0,1,11.73-4.15c10-2.5,21-3.38,31.14-1.13a34.11,34.11,0,0,1,13.64,6.08c5.13,4,8,9.64,10.42,15.52.54,1.29,1.08,2.59,1.7,3.85l1-.26c-2.33-3.78-4.64-7.58-7.2-11.22a7.29,7.29,0,0,0-1.43-1.84C817.71,198,816.91,198.37,817,198.43Z"/><path class="cls-6" d="M765.51,264.43c-4.65,6.48-11.9-1.59-11.9-1.59-6.27-5.61-7.27-12.42-7.76-17.11s4.65-5.37,4.65-5.37c4.42-.17,3.88.43,11.6,11.95"/><path class="cls-42" d="M758.09,252.78a36.75,36.75,0,0,0-3.92-5.81,12,12,0,0,0-2.64-2.44,3.41,3.41,0,0,0-1.46-.6c-.53-.06-.73.31-.92.75a8.88,8.88,0,0,0,0,6.28c.09.29.82.09.73-.19a9.56,9.56,0,0,1-.43-4.91,4.65,4.65,0,0,1,.64-1.68l-.39.2s-.08,0,0,0h.09c-.13,0,0,0,.08,0a3.42,3.42,0,0,1,.92.41,13.55,13.55,0,0,1,3.6,3.6,43.43,43.43,0,0,1,3,4.66c.13.24.84,0,.67-.31Z"/><path class="cls-42" d="M758.11,255c-2.92.62,0,4.26,0,5.84,0,.08,0,.21,0,.28s0,.09,0,.09l.2-.05h0L758,261a2.47,2.47,0,0,1-.37-.42,13.24,13.24,0,0,1-1.45-2.5,11.42,11.42,0,0,1-1.09-3.33c-.21-1.42-.37-3.51.91-4.5.39-.31-.2-.53-.48-.32-1.22.95-1.37,2.6-1.27,4a10.37,10.37,0,0,0,.84,3.52,18.78,18.78,0,0,0,1.54,2.95c.29.45.71,1.12,1.28,1.25a.8.8,0,0,0,.95-.69,3.35,3.35,0,0,0-.39-1.66c-.32-.83-1.81-3.5-.26-3.83.46-.09.32-.57-.13-.48Z"/><path class="cls-42" d="M791.42,235.16a3.25,3.25,0,0,0-2.73,5.78,3.08,3.08,0,0,0,3.59-.06,3.4,3.4,0,0,0,.89-4.2,3,3,0,0,0-1.75-1.52"/><path class="cls-42" d="M797.06,239.25s-5.62-5.64-10.27-4.74c-6.55,1.26-7.36,5.37-8.4,7.62,0,0,3.35-5.47,8.44-6.32C791.44,235,797.06,239.25,797.06,239.25Z"/><path class="cls-42" d="M822.54,229.14a2.94,2.94,0,0,1,3.41,0,3.15,3.15,0,0,1,1.17,1.3,3.5,3.5,0,0,1-.15,3.1,2.73,2.73,0,0,1-3.12,1.24,3.51,3.51,0,0,1-2.28-3.59,3,3,0,0,1,1-2.05"/><path class="cls-42" d="M814.34,235.94s2.54-7.21,6.56-8c5.66-1.1,7.72,2.45,9.33,4.2,0,0-4.56-3.94-8.91-3C817.37,230.06,814.34,235.94,814.34,235.94Z"/><path class="cls-24" d="M812.62,253.2a4.77,4.77,0,0,1-4.34.5c-.3-.12-1.18.21-.75.38a6.7,6.7,0,0,0,5.89-.79c.14-.11.1-.22-.11-.25a1.06,1.06,0,0,0-.69.16"/><path class="cls-24" d="M806.93,253.82a7.52,7.52,0,0,0-2.76-.18.55.55,0,0,0-.38.2c-.07.08-.07.18,0,.22a3,3,0,0,0,1.52.07.55.55,0,0,0,.41-.26c.06-.14-.1-.19-.22-.17a2.23,2.23,0,0,1-1.23-.06l-.33.42a6.82,6.82,0,0,1,2.47.18.57.57,0,0,0,.48-.15c.08-.07.16-.22,0-.27"/><path class="cls-24" d="M803.32,254.59a3.68,3.68,0,0,1-3.08-.79c-1-1.07-.64-3.26.56-4.28.13-.11,0-.2-.12-.21a1,1,0,0,0-.55.22,4,4,0,0,0-1.12,3.85,3,3,0,0,0,2.85,1.68,6.13,6.13,0,0,0,1.21-.05c.17,0,.45-.13.51-.27s-.1-.17-.26-.15"/><path class="cls-24" d="M814.49,252.3a.14.14,0,0,1,.1-.23,1.26,1.26,0,0,0,.78-.42l.34.29a3.92,3.92,0,0,0-1.57.91.32.32,0,0,1-.35,0c-.08-.05-.18-.17-.08-.26"/><path class="cls-24" d="M813.71,252.6a4.23,4.23,0,0,1,1.75-1,.35.35,0,0,1,.31.07.15.15,0,0,1,0,.22"/><path class="cls-24" d="M816.74,252a2.23,2.23,0,0,0,1.62-1.64,3.19,3.19,0,0,0-1.45-3.29.13.13,0,0,1,0-.24.44.44,0,0,1,.4,0,3.61,3.61,0,0,1,1.65,2.73,2.51,2.51,0,0,1-1.22,2.41,2.59,2.59,0,0,1-.75.31.4.4,0,0,1-.37-.11c-.08-.12,0-.2.11-.22"/><path class="cls-40" d="M797.67,227.11c-.26,1-.53,2-.8,3.08l-.63,2.35c-2.13-1.26-4-2.21-5.41-2.88a26.75,26.75,0,0,0-8.92-2.76,10,10,0,0,0-4.25.41c-.44.16-1.74,1-2.23.55-.2-.18.51-1.34.58-1.46,1.44-2.34,3.73-2.88,6.35-2.84a41.41,41.41,0,0,1,15.31,3.55"/><path class="cls-40" d="M827.43,217.56A8.19,8.19,0,0,1,826.1,216a14.3,14.3,0,0,0-1.65.29,40.2,40.2,0,0,0-13.92,6.76c.49.93,1,1.88,1.48,2.82l1.12,2.15c1.77-1.69,3.35-3,4.56-4a25.81,25.81,0,0,1,7.94-4.6,10.82,10.82,0,0,1,2.51-.53Z"/><path class="cls-11" d="M812,285s-4.37.45-7.48.42-8,1.48-24.41-6.45c0,0,7.75,13.12,25.54,11.56,0,0,4.44.39,7.13-1.09Z"/><path class="cls-11" d="M808.35,221s-4.11,4.2-.31,6.77l1.6.82S807.15,224.31,808.35,221Z"/><path class="cls-11" d="M799.91,222.47s5.27,2.61,2.53,6.29l-1.24,1.3S802.13,225.16,799.91,222.47Z"/><path class="cls-30" d="M811.09,260.71c-4.45.8-13.82,5.12-15.51,7.1,0,0,5.68,2.41,16,.56S823,262.9,823,262.9,816.76,259.7,811.09,260.71Z"/><path class="cls-5" d="M799.46,264.84s5.28-1.13,9.53-1.71,9.64-.9,9.64-.9.28-3.09-7.43-2S799.46,264.84,799.46,264.84Z"/><path class="cls-31" d="M810.94,268.53c-5,0-11.2-2-15.46-1.29,0,0,2.81,6.94,15,5.28s12.6-9,12.6-9C819,264.44,815.72,267.22,810.94,268.53Z"/><path class="cls-31" d="M816.28,257.78c-2.59.17-4.1,1.31-5.21,1.46s-2.87-.54-5.41,0c-2.39.49-11.8,7.42-10.57,8s8.57-4.58,16.3-5.63,11.05,2.64,12.09,1.77S818.7,257.62,816.28,257.78Z"/><path class="cls-8" d="M1152.88,221.65s11.72,3.31,20.37,8.16,32.43,9.27,39.75,25.22,2.86,53.48-7.37,71.23-11.11,24.6-11.11,24.6l-44.29-54.6,2.65-74.61"/><path class="cls-8" d="M998.3,390.07s-15.63-7.13-15.63-21.06,6.91-32.09,11.53-41.18c3-6,30.89-52.94,49.17-76.12a44.84,44.84,0,0,1,17.16-13.23l4.47-2L1027.51,350.3l36.16,10-15.44,40.18Z"/><path class="cls-7" d="M1026.62,320.88c.51-4.79,2.25-9.45,3.75-14q2.51-7.54,5.64-14.87c4.32-10.11,9.4-19.87,14.7-29.5,2.55-4.63,5.15-9.22,7.75-13.82-4.25,8.75-8.07,17.7-12.54,26.33-4.59,8.85-9,17.47-12.31,26.87-3.95,11.07-6.5,15.92-4.76,25.58s8.23,21.35,8.23,21.35l-1,.71S1025.62,330.21,1026.62,320.88Z"/><path class="cls-6" d="M1048.54,355.29l-6.37-20.61-1.08-14-15-10s-4,.45-2.77,3.58,7.31,8.72,7.31,8.72l3.58,10-5.82-10.15-8.51-4.2-8.4.62s-1.55,3.75,2.39,3.89h4.2l6.38,5.13,4,9.56-6-9.34-8.86-3.18-5.61,1.46s-1.56,2.39,1.24,2.79a27,27,0,0,0,4.77.31l5.09,3.11,4.51,9.55-7.93-6.54-10.29-1.24s-1.69,2.38,1,3.41a86.89,86.89,0,0,1,7.93,3.75l5.75,7Z"/><path class="cls-8" d="M1197.71,252.5s14.93,1,15.29,40.07-45.53,104.65-53.35,111.09-16.73,10.81-40.28,7.31c-29.53-4.38-50.09-8.32-50.09-8.32L1073.4,367l52.66-2.39,42.8-88S1183.09,250.8,1197.71,252.5Z"/><path class="cls-6" d="M1135.14,379.82a23.67,23.67,0,0,0-4.45.21,29.85,29.85,0,0,0,4.43.36,106.38,106.38,0,0,1,10.6,1.11c3.91.61,7.35,1.34,10,2a3.05,3.05,0,0,1,.27.61c.78,2.1-1.29,3.51-3.13,4.48s-26.27-1.17-26.27-1.17l7.17,2.92a66.32,66.32,0,0,1,10.24,2.15c2,1,1.77,3.12,0,4.37s-13.87-3.18-27.53-2.8c-9.08-.09-18.69-3.9-26.52-8.5l7.89-24a115.38,115.38,0,0,1,11.47-5.28,86.21,86.21,0,0,1,17.19-5.47,104.31,104.31,0,0,0,13.87-4.49,6.33,6.33,0,0,1,1,6.38c-1.39,4.08-14.66,6-14.66,6l17.19,1.17s13.49,4.13,14.47,7.83-3.44,3.2-3.44,3.2l-11-3.08-12.66.5,13.18,2.63s10.24,4.15,11,4.56a6.73,6.73,0,0,1,2.92,4.49c.21,2.15-5.07,2-5.07,2"/><path class="cls-7" d="M1129.76,349.53l33.4-75.28s9.18-21.78,23.85-20.6c0,0-8.83,1.38-17.48,12.29-4.75,6-19.3,43.08-19.3,43.08l-18.1,39.81Z"/><path class="cls-7" d="M1194,355.29c-4.66,10.18-28.32,41.07-28.32,41.07-16.73,14.26-23.54,16.57-47.2,13.9-29.65-3.33-50.34-6.54-50.34-6.54l.93-11.67.26-3.79-2.91,17.32s56.15,7.72,62.73,7.58,20.62,4.17,40.51-19.36C1181.13,380.19,1194,355.29,1194,355.29Z"/><path class="cls-7" d="M1049.5,403.4,1065,359l-17.32-6.51.86,2.78,15.13,5-15.44,40.18L1027,396.07Z"/><polygon class="cls-6" points="1097.87 361.5 1097.04 361.5 1063.49 360.02 1052.52 389.35 1092.39 385.98 1097.87 361.5"/><path class="cls-22" d="M1156.23,108.27c-3.21-4.62-8.24-7.73-13.62-6.32.32-10.49-9.79-16.75-20.27-17.13-5.38,0-10.93,2.43-16,.6-3.16-1.13-5.54-3.63-8.23-5.73-11.28-8.51-29.18,1.11-38.89,11.38s-7.42,21.83-2.61,35.1c2.23,6.18,1.84,9.52,2.48,16.1.61,6.21,4.26,17.77,4.28,23.93s-9.66,12.53-3.44,13.07l67.75-7.42c10,2.07,16.49-.92,21.71-9.74,3.4-6,2.28-6.28,2.78-13.14.88-9,10-15.64,9.59-24.64C1161.65,118.67,1159.17,113.1,1156.23,108.27Z"/><path class="cls-43" d="M1164.64,108s-23.31-11.79-53.53-8.7S1066,120.74,1060.62,134s.13,27.22.13,27.22-7.57,2-12.36-25.22c-7-39.66,33.67-63.21,43.44-63S1151.59,63.48,1164.64,108Z"/><path class="cls-11" d="M1091,215.91s5-.82,8.52-1.8,9.43-.75,25.47-14.63c0,0-4.73,17.08-25.18,20.71,0,0-5.29,1.1-8.76.25Z"/><path class="cls-6" d="M1073.13,111.81a1.9,1.9,0,0,1-.2.37l.22-.17Zm-9,2.92v.16q.21-.19.39-.39C1064.53,114.31,1064.14,114.73,1064.14,114.73Zm73.37,66,.85-3.27c4.53,5.53,11.33.64,11.32-7.55,2-4.2,4.33-18,.76-22l-.44-.6c-2.46-1.71-6.71-2.3-8.32.93-.51,1.39.06,3.08-.45,4.47-.49,1.59-2.11-2.27-3-.83,0,0-2.16-.84-2.27-4.49s6.23-30.86-.69-35.46c0,0-10.68,4.06-13.94.48l-1.07-.29c-.63.06-1,.29-1.65.34,0-.19.17-.4.14-.78a7,7,0,0,1-2.7.43c.19-.21.6-.44.58-.63a11.69,11.69,0,0,1-2.5.22c.19-.21.57-.63.55-.82-1,.47-1.66.14-2.5.22a1.4,1.4,0,0,0,.35-.8,5.76,5.76,0,0,1-2.48.41c.19-.21.36-.61.55-.82-1,.47-1.66.14-2.5.22-.21,0,.39-.42.37-.62a7.79,7.79,0,0,1-2.07.38c0-.19.38-.42.37-.61a6.58,6.58,0,0,1-2.71.24l.55-.82a3,3,0,0,1-2.46.6c.19-.21.57-.63.55-.82a4.12,4.12,0,0,1-3.3.67c.21,0,.58-.63.56-.82-1,.86-1.83.74-2.87.83.19-.2.37-.61.75-1a4.29,4.29,0,0,1-3.91.93c.21,0,.37-.62.35-.81-.77.84.72-.25-.35-.35,0,0-2.33,1-2.34.78-.79.65,1.91-3.44.87-3.35.17-.4-6,.89-5.57.47-1,.85-.8.44-2.07.36,0,0-4.13,2.67-3.94,2.46-.95,1-1.5.29-2.76.21.19-.21.82.73,1,.52-.76.84-.57-.14-1.62,0,0-.19-3.51-.94-3.53-1.13-1,.66-.65.71-1.9.82,0-.19-.59,2.18-.4,2-.77.84-.79.21-1.85.11l-1,.8c-1,1,.44.51-.83.43,0-.14,4.76.18,4.93-.09a7.59,7.59,0,0,1-2.58,1.42c0-.19.16-.59.14-.78a4.21,4.21,0,0,1-3.24,1.44c.21,0,.39-.42.37-.61-1,1-2.16,1.73-3.46,1.27v0a6.53,6.53,0,0,1-2.79,1.62.83.83,0,0,1,.35-.8l-.84.07c-.91,1.63-3.63.84-3.88,2.79,0,0-4.53,13.82-3.7,20.89s3.17,19,3.65,22.07a61.06,61.06,0,0,1,.46,9.62c-.18,6.24-.06,7.87,2,13.93a43.36,43.36,0,0,0,3.23,7.46,49.07,49.07,0,0,0,4.42,6.35c4,5.07,9.53,9.31,14.74,13.47a20,20,0,0,0,12.76,4.62c13-.53,25-10.41,32.54-19.45"/><path class="cls-24" d="M1083.2,180.58a6,6,0,0,0,5.4-.81c.32-.24,1.49-.14,1,.2a8.43,8.43,0,0,1-7.36,1c-.21-.08-.19-.24,0-.34a1.34,1.34,0,0,1,.88,0"/><path class="cls-24" d="M1090.26,179.47a9.81,9.81,0,0,1,3.28-1.12.73.73,0,0,1,.52.11c.11.08.14.2,0,.28a3.69,3.69,0,0,1-1.8.58.72.72,0,0,1-.59-.17c-.12-.15.07-.26.22-.27a2.94,2.94,0,0,0,1.45-.48l.54.39a8.54,8.54,0,0,0-2.92,1,.75.75,0,0,1-.62,0c-.13-.07-.28-.22-.1-.33"/><path class="cls-24" d="M1094.86,179.21a4.69,4.69,0,0,0,3.47-2c.87-1.61-.28-3.95-2-4.78-.2-.09-.11-.24.07-.29a1.1,1.1,0,0,1,.74.08,4.72,4.72,0,0,1,2.58,4.08c-.09,1.36-1.3,2.41-2.89,2.94a7.4,7.4,0,0,1-1.48.34c-.21,0-.58,0-.69-.16s.06-.24.25-.26"/><path class="cls-24" d="M1080.66,180.12a.18.18,0,0,0-.19-.24,1.61,1.61,0,0,1-1.08-.25l-.32.47a4.74,4.74,0,0,1,2.18.56.37.37,0,0,0,.43-.1c.08-.08.16-.26,0-.34"/><path class="cls-24" d="M1081.7,180.22a5.32,5.32,0,0,0-2.44-.62.46.46,0,0,0-.35.2.19.19,0,0,0,0,.27"/><path class="cls-24" d="M1077.87,180.55a2.78,2.78,0,0,1-2.49-1.43,4,4,0,0,1,.67-4.41.16.16,0,0,0-.09-.28.51.51,0,0,0-.45.19,4.42,4.42,0,0,0-1.12,3.8,3.12,3.12,0,0,0,2.27,2.48,3,3,0,0,0,1,.12.48.48,0,0,0,.42-.25c0-.17-.08-.23-.2-.22"/><path class="cls-25" d="M1066.65,155.18a3.28,3.28,0,0,0-3.36.86,3.44,3.44,0,0,0-.62,1.47,3,3,0,0,0,1,2.68,2.8,2.8,0,0,0,3.26.28,3.11,3.11,0,0,0,1.21-3.74,2.8,2.8,0,0,0-1.45-1.55"/><path class="cls-25" d="M1077.32,158.14s-6-3.94-8.93-4c-4.24,0-9.21,2.74-10.52,5,0,0,6.55-4.09,9.54-4S1077.32,158.14,1077.32,158.14Z"/><path class="cls-25" d="M1101.77,152.53a4,4,0,0,1,3.8-.09,3,3,0,0,1,1,1.29,3,3,0,0,1-.47,2.81,2.82,2.82,0,0,1-3.17.84,3.1,3.1,0,0,1-1.84-3.46c.05-.24-.22-.65.67-1.22"/><path class="cls-25" d="M1094.73,156.27s6-4.6,9.13-5c4.56-.53,10.25,1.66,11.92,3.72,0,0-7.54-3.31-10.74-2.85S1094.73,156.27,1094.73,156.27Z"/><path class="cls-26" d="M1074.55,140.72c.28.81.55,1.62.83,2.44.21.62.42,1.24.62,1.85-2.25.19-4.13.46-5.54.69-3,.5-4.52.77-6.06,1.6a16.4,16.4,0,0,0-3.35,2.48,10.37,10.37,0,0,0-1.62,1.72c-1,1.48-1.22,2.81-1.48,2.79s-.24-1.13-.24-1.25a10,10,0,0,1,1.55-5.12,11.7,11.7,0,0,1,3.21-3.06c1.48-1,5.87-2.81,12.08-4.14"/><path class="cls-26" d="M1091.7,139.17l-.12,2.57c0,.65-.06,1.3-.08,1.95,2.4-.42,4.45-.68,6-.83,3.27-.34,4.94-.49,6.81-.11a19,19,0,0,1,4.25,1.48,11.61,11.61,0,0,1,2.21,1.22c1.54,1.14,2.13,2.37,2.4,2.28s-.1-1.15-.13-1.26a10.22,10.22,0,0,0-3.18-4.52,13.31,13.31,0,0,0-4.29-2.07c-1.84-.53-7-1.11-13.87-.71"/><path class="cls-44" d="M1140.46,163.4c4.36-11,7.65-11.17,7.65-11.17s2.28,2.47,1.3,7.56"/><path class="cls-44" d="M1142.18,164.35c2.94-.36.81,5.2,1.66,6.48s1.84-2.2,2.1-6.36c0,0-.13-5.61-3-6.57"/><path class="cls-11" d="M1098.93,130.28s-7.12,3.77-14.43,3.75-16.32-1-16.32-1"/><path class="cls-26" d="M1060.88,110.07c.09-.14,0,.05,0,0,1.79-2.57,2.92-5.31,4.82-7.8s3.69-4.65,5.69-7c.11-.13,2.5-.22,2.62-.36l.13-.14.19-.22.45-.5a54.81,54.81,0,0,1,37.38-2.18,45.47,45.47,0,0,1,30.63,56.54c-.61,2.06.64,4.54-1.37,5.72s-2.25.6-4.17-.71a15.12,15.12,0,0,1-4.32-5.36c-5.3-9.87-6.71-25.65-4.45-36.63-1.31,2.08-10.57,0-12.62,1.39a17.61,17.61,0,0,1-24.43-4.83,27,27,0,0,1-2.77,3.45c-9.28,9.84-21.47,14.68-31.75,7.87C1056.53,119.09,1059.76,111.7,1060.88,110.07Z"/><path class="cls-13" d="M1142.48,152.19l-.26-2.39-27.43-2.5h0c-9-2.74-21,.72-27.69,5.94l-6.22.84,0-.1c-7.75-4.86-19.91-4.68-28.8.4l.33,1h0c0,.06.08.2.15.4l.3.85c1.86,5.39,4,11.09,5.64,12.5,1.11.95,4.52,1.16,7.31,1.16,1.05,0,2,0,2.7-.05s8.2-.37,9.32-1.64,2.48-10.1,2.85-12.89l6.38-.83c1,2.06,3.43,11.08,6.72,12.68s19.22-.46,20.51-2.85a56.44,56.44,0,0,0,3.26-10.91l1-4Zm-65.41,15.59c-1.25,1.22-15.9,2.05-17.82.42-1.63-1.39-4.28-9.09-5.28-12v-.12c8-4.08,18.93-4.25,25.66-.16-.72,4.82-1.85,11-2.56,11.81Zm35.32-3.6c-.8,1.51-14.68,3.93-18.07,2.28-2.35-1.14-4.24-7.73-5.64-11.47,6.57-5,19.94-8,28-5a82.48,82.48,0,0,1-4.26,14.19Z"/><path class="cls-28" d="M1076.9,167.64c.7-.79,1.84-7,2.56-11.82-6.73-4.08-17.69-3.91-25.67.16v.13c1,2.89,3.66,10.59,5.28,12,1.93,1.64,16.58.81,17.82-.42Z"/><path class="cls-28" d="M1112.39,164.18a82.48,82.48,0,0,0,4.26-14.19c-8-3-21.4,0-28,5,1.4,3.74,3.29,10.33,5.64,11.47,3.39,1.65,17.27-.77,18.07-2.28Z"/><path class="cls-45" d="M1154.69,152.93s22.75-16.58,14-34.31c-1.67-3.4-1.85-2.28-2-5.23-.55-15.44,4.86-11.77-17.8-29.77s-26-17.68-60.49-15c-17.8,1.37-27.52,8.83-32.36,20.12a54.54,54.54,0,0,0-3.85,17.34s36.35-10.45,58,1.18,44.52,49.6,39.93,61.8C1148.93,172.46,1154.69,152.93,1154.69,152.93Z"/><path class="cls-43" d="M1168.7,136s-31-44.9-72.13-46.18c0,0,50.82-5.56,73.4,30.69l.34,4.27a23.11,23.11,0,0,1-.72,7.9Z"/><path class="cls-11" d="M1087.51,139.94s-7.33,4.23,1.07,7.21A6.47,6.47,0,0,1,1087.51,139.94Z"/><path class="cls-11" d="M1077.67,140.68s8.36,1.34,1.56,7.12A6.47,6.47,0,0,0,1077.67,140.68Z"/><path class="cls-30" d="M1087.44,187.19c5.26-.52,17.18,1.36,19.71,3.05,0,0-5.62,4.52-17.83,5.73s-14.62-2.51-14.62-2.51S1080.73,187.86,1087.44,187.19Z"/><path class="cls-5" d="M1101.84,188.14s-6.3.41-11.27,1.11-11.14,2.06-11.14,2.06-1.29-3.39,7.72-4.66S1101.84,188.14,1101.84,188.14Z"/><path class="cls-31" d="M1089.28,194.49c5.58-1.57,11.11-4.38,17.8-4.93,0,0-.85,7.44-15.13,9.46s-17.16-4.88-17.16-4.88C1081.37,192.81,1083.48,194.53,1089.28,194.49Z"/><path class="cls-31" d="M1080.66,185.55c3-.63,5,.17,6.33,0s3.06-1.52,6.09-1.74c2.84-.2,15.64,4.59,14.43,5.62s-11.1-2.42-20.13-1.14-11.59,6.49-13,5.84S1077.88,186.14,1080.66,185.55Z"/></g></svg>