<svg xmlns="http://www.w3.org/2000/svg" xmlns:xlink="http://www.w3.org/1999/xlink" viewBox="0 0 1303.15 1057.31"><defs><style>.cls-1,.cls-22,.cls-40{fill:none;}.cls-2{fill:#f2ebd1;}.cls-3{fill:#bb997a;}.cls-4{fill:#55463e;}.cls-5{fill:#a66e53;}.cls-6{fill:#4f2e25;}.cls-7{fill:#dc9b34;}.cls-8{fill:#3a2e29;}.cls-9{fill:#0b0d0e;}.cls-10{fill:#513835;}.cls-11{fill:#745245;}.cls-12{fill:#163f51;}.cls-13{fill:#1b1b1b;}.cls-14{fill:#ad7b98;}.cls-15{fill:#794d1f;}.cls-16{fill:#343535;}.cls-17{fill:#5e5f5f;}.cls-18{fill:#6a2811;}.cls-19{fill:#010101;}.cls-20{fill:#13110f;}.cls-21{fill:#ababab;}.cls-22{stroke:#010101;stroke-width:1.73px;}.cls-22,.cls-28,.cls-33,.cls-34,.cls-35,.cls-43{stroke-miterlimit:10;}.cls-23{fill:#b25226;}.cls-24{fill:#341a41;}.cls-25{fill:#653c29;}.cls-26{fill:#31160e;}.cls-27{fill:#f1eef7;}.cls-28,.cls-29{fill:#151210;}.cls-28{stroke:#161311;stroke-width:0.69px;}.cls-30{fill:#161311;}.cls-31{fill:#231f20;}.cls-32{fill:#11243e;}.cls-33{fill:#f2e8c1;}.cls-33,.cls-34,.cls-35,.cls-39{stroke:#231f20;}.cls-33,.cls-34,.cls-43{stroke-width:0.97px;}.cls-34{fill:#daedec;}.cls-35{fill:#0b3834;stroke-width:1.16px;}.cls-36{clip-path:url(#clip-path);}.cls-37{fill:#ae2628;}.cls-38{fill:#c95744;}.cls-39,.cls-40{stroke-linecap:round;stroke-linejoin:round;stroke-width:0.97px;}.cls-40{stroke:#000;}.cls-41{fill:#8abcb8;}.cls-42{fill:#050606;}.cls-43{fill:#e1b824;stroke:#21211f;}</style><clipPath id="clip-path"><rect class="cls-1" x="394.49" y="462.2" width="160.01" height="204.2" transform="translate(-111.84 117.32) rotate(-12.62)"/></clipPath></defs><g id="Layer_10" data-name="Layer 10"><polyline class="cls-2" points="1374.23 1031.64 1374.23 -88.12 -46.68 -88.12 -46.68 1031.64"/><polyline class="cls-3" points="-89.27 1122.67 1397.33 1122.67 1397.33 990.91 -89.27 990.91"/><path class="cls-4" d="M415.09,718.13c-33.14,0-85,14.1-85,52.71v187c-18.65,15.8-29.7,32.52-29.71,59.39V1127c0,22,15.28,39.78,34.14,39.78h-4.39v131.62H1425.28V1170.94c18.72-6,31.73-25.75,31.83-48.36v-90.92c-.06-34.84-15.16-57.58-41.87-73.26l-1.58-.59-3.49-135.68c-4.15-82.25-31.34-115.78-79.77-120.41l-15.81.53c-33,0-73-1.49-84.1,6.85-3.07-142.88-103.38-256.85-226.06-256.88H609.16c-269,0-116.92,118-116.92,263.57h0v24.07c-8.45-15.65-21.69-21.71-70.54-21.73"/><path class="cls-4" d="M-19.8,720.49c-33.14,0-96,.4-111.11,52.71v187c-18.66,15.79-29.7,32.51-29.72,59.38v109.82c0,22,15.29,39.78,34.14,39.78h-4.39v131.62l1100.35-3.41V1173.3c18.71-6,31.72-25.75,31.82-48.36V1034c0-34.84-15.16-57.58-41.86-73.27l-1.59-.58-3.49-135.68c-4.15-82.26-10.41-115.78-58.84-120.42l-15.81.54c-33,0-73-1.5-84.1,6.85C792.53,568.57,692.22,454.6,569.54,454.58H402c-269,0-344.62,118-344.62,263.57h0v24.06c-8.45-15.64-21.69-21.7-70.54-21.72"/><path class="cls-5" d="M834.89,798.08l9.65,20.67,9.64,20.63s-22.83,22.72-31.09,27.08-26.34,17-26.34,17a12.39,12.39,0,0,1,5.13,6.66,12.14,12.14,0,0,1-1.55,9.45l-16.16-6.64c1.58,7.08-6.27,6.29-6.27,6.29l-13-6.68c2.35,8.68-7.87,7.89-7.87,7.89l-13.41-12.6a28.25,28.25,0,0,1-2.74,10.64c-2.33,3.94-7.47-1.17-7.47-1.17l-2.74-31.95,27.83-34.15,65.25-24.5Z"/><path class="cls-6" d="M751.62,862.2c-2.61,3.66-6.74,8.33-10.45,14.27a12.48,12.48,0,0,0-2.16,5,17,17,0,0,0,1.11,4.88,16.64,16.64,0,0,0,4.11,7.12,32.74,32.74,0,0,0,4.53,3,14.34,14.34,0,0,0,1.76.92,7.12,7.12,0,0,0-1.33-1.5,33.61,33.61,0,0,1-4-3.38,16.29,16.29,0,0,1-3.49-6.83,17,17,0,0,1-.89-4.18,11.81,11.81,0,0,1,1.92-4.09c3.59-5.73,7.58-10.63,9.91-14.54a18.72,18.72,0,0,0,3.14-6.68A55,55,0,0,0,751.62,862.2Z"/><path class="cls-6" d="M765.68,894.33a9.06,9.06,0,0,1-3.7-3.76,6.54,6.54,0,0,1,.43-6,20.92,20.92,0,0,1,4.4-5.16l4.23-4.06c1.06-1.05,2-2.1,2.6-2.67a7.23,7.23,0,0,1,1.15-.72c.08-.13-.61-.4-1.56.1a24.77,24.77,0,0,0-3.21,2.36l-4.51,3.76a19.66,19.66,0,0,0-5,5.6,8.17,8.17,0,0,0-.31,7.74,10,10,0,0,0,4.65,4.16c3.23,1.34,5.22,1.4,5.36,1.28C770.39,896.65,768.34,896,765.68,894.33Z"/><path class="cls-7" d="M948.13,788c-10.33-10.14-21.62-18.82-33-27.65-8.43-6.51-16.73-14.75-26.89-18.57-.17.34,10.26-28.48,9.91-28.13-39,39.12-74.42,66.54-116.43,102.29,8.43,10.47-.77,33.6,7.66,44.07,1,1.3-16,21.48-14.5,21.9A5.56,5.56,0,0,0,779,881c40.7-21.71,68.54-28.07,106.54-53.75,10.4-7,47.87-12.83,78.78-21.72C959.16,799.37,953.76,793.51,948.13,788Z"/><path class="cls-7" d="M928.72,740.27c11.87,9.42,23.95,18.31,34.9,28.85a271.3,271.3,0,0,1,25.06,27.76c11.05-5,18.74-11,19.9-18.19L923.76,736.3C925.42,737.64,927.07,739,928.72,740.27Z"/><path class="cls-8" d="M-14.69,727.66c13.22-.5,25.53,5.7,35.06,14.52,10.66,9.86,17.77,22.64,22,36.44,4.85,15.94,6.12,32.7,6.57,49.27.48,17.82.44,35.66.61,53.49l.54,55.23.07,6.75c0,1.48,5.67.49,5.65-1.52q-.27-27.86-.55-55.73c-.17-18.23-.23-36.47-.56-54.71-.31-16.9-1.19-34-5.58-50.41-3.82-14.32-10.5-27.8-20.93-38.47-9.36-9.58-21.74-16.72-35.3-17.66a48.92,48.92,0,0,0-5.28-.1c-1.2,0-3,.4-3.74,1.48s.62,1.45,1.46,1.42Z"/><path class="cls-8" d="M58.31,744.63c9.39,7.84,14.6,19.24,18.4,30.6a305.5,305.5,0,0,1,10.13,40.06c5.3,27.92,7.49,56.33,8.58,84.7.62,15.94.88,31.89,1.14,47.83,0,1.47,5.68.48,5.65-1.51-.46-28.57-.94-57.16-3.42-85.64-2.45-28.13-6.85-56.27-15.25-83.28-4-12.8-9.4-26.06-20-34.87-.94-.78-2.7-.33-3.71.08-.5.2-2.5,1.25-1.57,2Z"/><path class="cls-8" d="M1329.55,701.67c-14.76-.52-30.08.93-44.06,5.9-6.27,2.24-12.57,5.41-17.3,10.19-5.67,5.71-8.72,13.88-10.81,21.5-3.62,13.13-4.12,27-4.51,40.54l-.34,11.81-.67,23.17-.86,29.83-.93,32.14-.85,29.77-.66,22.74c-.11,3.78-.23,7.56-.33,11.34,0,.17,0,.33,0,.5,0,1.19,1.47,1.22,2.36,1.11s3.12-.71,3.16-1.84l.22-7.67.58-20.06.81-28,.91-31.57.88-30.69.74-25.39.45-15.65c.24-8.35.52-16.7,1.38-25,1-9.08,2.68-18.17,6.22-26.63a37.93,37.93,0,0,1,5.54-9.85,27.68,27.68,0,0,1,6.48-5.52c5.69-3.58,11.88-5.56,18.52-7a117.26,117.26,0,0,1,21-2.55c3.28-.12,6.57-.12,9.85,0,1.18,0,3-.43,3.66-1.49s-.6-1.51-1.48-1.54Z"/><path class="cls-8" d="M1225.68,707.59c-11,14.62-22.3,29.61-28.39,47.08-6,17.21-6.39,35.77-7,53.79-.5,13.78-.85,27.57-1.17,41.36q-.55,23.34-1,46.69-.4,20.43-.83,40.86l-.09,4.11c0,1,5.49.25,5.53-1.48q.45-19.59.8-39.18.46-23.21,1-46.39c.32-14.1.66-28.2,1.13-42.29.56-17,.67-34.31,4.89-50.85,4.61-18.11,15.07-33.69,26.09-48.5,1.37-1.84,2.75-3.67,4.12-5.5.73-1-.63-1.1-1.34-1.06-1.07,0-3,.42-3.69,1.36Z"/><path class="cls-8" d="M-85.5,954.14l31.55-.77q40.32-1,80.64-1.91,55-1.28,109.94-2.48,59.07-1.28,118.14-2.43,53.23-1,106.47-1.83c24.93-.35,49.86-.71,74.79-.62,16.6,0,32.17.91,49.05,1.35,35.7.95,71.41,1.55,107.12,2.14q59.32,1,118.67,1.77,35.67.48,71.36.92l3.52,0c1.79,0,6-2.63,2.27-2.68q-25.5-.3-51-.64-56.32-.75-112.63-1.61c-38.5-.6-77-1.23-115.49-2.1-19.88-.44-39.76-1.46-59.64-1.78-21.21-.35-42.44,0-63.65.24q-50.48.6-100.93,1.59-58.59,1.08-117.17,2.35-57,1.2-113.9,2.52-44.74,1-89.48,2.1-22.65.54-45.3,1.1l-2.06.05c-1.77,0-6,2.77-2.27,2.68Z"/><path class="cls-8" d="M1043,951l8.25,0,22.66-.1,33.75-.14,42-.13q23.35-.06,46.71-.1,24.35,0,48.68,0,23.57,0,47.13.07,21.42.06,42.82.2c11.71.09,23.42.19,35.14.37l7.19.12c.23,0,.8,0,.25,0l.85,0,1.67,0,3.18.07q5.27.12,10.52.31l3.93.18c1.31.06,3-.37,3.6-1.7a1.71,1.71,0,0,0-1.68-2.32c-7.2-.37-14.41-.5-21.62-.63-10.88-.21-21.77-.32-32.65-.42q-20.58-.18-41.15-.24-23.24-.09-46.46-.1-24.32,0-48.64,0l-47.64.09q-21.73,0-43.48.13-18.09.06-36.18.14l-25.7.11c-4,0-8.06-.07-12.08.06h-.52c-1.2,0-2.91.91-3,2.23s1.47,1.81,2.56,1.81Z"/><path class="cls-9" d="M609.07,860.09c-.59,0-1,0-1-.27s.43-.27,1-.27,1,0,1,.27S609.62,860.09,609.07,860.09Z"/><path class="cls-9" d="M964.78,520.63C953,533,941.3,540.77,941.68,541.28a31.55,31.55,0,0,0,7.83-4.86,119.69,119.69,0,0,0,16.72-14.51,123.76,123.76,0,0,0,13.68-17.34,34.31,34.31,0,0,0,4.39-8.07C983.75,496.18,976.6,508.22,964.78,520.63Z"/><path class="cls-5" d="M990.56,359.65s24.46,80.77,19.78,99.73c-1.14,4.6-56.83,35.18-56.83,35.18l144.75,26.34L1155,487.51s-52.39-26.48-54-31.83c-8-26.21,6.69-75.6,6.69-75.6"/><path class="cls-7" d="M1163.66,483.32c1.5.69,22.85,11,24.16,11.73,8.25,4.28-21.84,219.28-21.84,219.28l30,82c13.7,90.87-20.42,117.91-57,147.6,0,0-162-81.17-182.18-83.74-23.41-3-35.24-7.41-39.82-18.55-1.66-4.05-33.26-22.66-17.53-88.28,7.64-31.85,26.49-68.15,27.87-103.17C929.73,587.93,934,533,934,533l20.4-35.19c12.09-3,3.23-12.06,16.34-19.69,3.7-2.15,19-9.34,23-11,3.67-1.49,10.5-4,14.29-5.26-.28.55-2.7,2.26-3.08,3.37-9.06,26.1,14.8,43.77,41.83,38.08,32.49-6.84,47.71-21.06,63-43.78,3.93,1.4,35,15.19,39.89,17.14Z"/><path class="cls-10" d="M1026.28,624.43h-.21c-.07.26-.22.52,0,.79Z"/><path class="cls-10" d="M1005,681.31a.76.76,0,0,0,.19.12l.16-.51Z"/><path class="cls-11" d="M965.53,606.05h.29l-.25-.18A.15.15,0,0,0,965.53,606.05Z"/><path class="cls-11" d="M1004.54,617.84l-.23-.23-.11.13Z"/><path class="cls-11" d="M966.38,606.24l.36.11A.24.24,0,0,0,966.38,606.24Z"/><path class="cls-12" d="M735.62,943.89c16.66,70.76,53.71,240.48,85,309.88,0,0,101,11,105.07-10.29,0,0-27.19-103.86-33.69-147-4.54-30.1.79-118.77-51.72-136.69-85.92-29.32,172.3-134.37,155.54-137.3-59.25-10.39-188.76,6.26-224.31,21.65C742.8,856.56,721.49,883.89,735.62,943.89Z"/><path class="cls-12" d="M881.66,977c-3-4.68-10.1,30.83-13.53,26.46A231.1,231.1,0,0,0,842.44,976,244.45,244.45,0,0,0,812,952.25a209.18,209.18,0,0,0-22.71-13.1c36.21-106.94,285.38-125.46,285.38-125.46s90.23-10.85,101.56,64.35c15,99.68-156.88,94.18-246.35,106.52C929.49,984.62,882.08,977,881.66,977Z"/><path class="cls-12" d="M802.48,952s23.25-60.52,41-56.37a80.37,80.37,0,0,1-2-15q3.06-2.52,6.42-5.13a201.57,201.57,0,0,1,28,16.63,246.65,246.65,0,0,1,29.3,24.27,220.4,220.4,0,0,1,24.36,27.73c2.07,2.82-33,5.83-31.07,8.77-.32,0,15.39,0,15.07,0,27.23,46,31.06,132.19,36.24,214.8,4.56,72.54,5.05,66.76,10.37,105.23-11.58,17.68-106.28,7.73-106.28,7.73C838.47,1168.84,802.48,952,802.48,952Z"/><path class="cls-13" d="M970.83,829.87c-12.13,2.88-24.21,6-36.26,9.2-24.46,6.5-48.84,13.42-72.86,21.41-11.46,3.82-22.87,7.85-34,12.54-8.25,3.48-16.65,7.23-24,12.45-8.31,5.93-12.16,15.94-15,25.45-4.44,15.12-5.31,31.18-4.74,46.85a284.88,284.88,0,0,0,7.62,54.13c2,8.83,3.78,17.73,5.67,26.59l12.79,60,15.35,71.94L839,1233.91l7.35,34.45.33,1.55c.3,1.37,4.62.3,4.3-1.16l-5.09-23.86-12.36-58-15.22-71.33-13.76-64.55-8-37.45c-2.31-10.8-4.68-21.51-6.13-32.48a220.89,220.89,0,0,1-1.76-45.39c1.13-15,4.18-31,12.48-43.88,3.43-5.31,10.13-8.62,15.67-11.46A261.76,261.76,0,0,1,846.42,868c24-8.76,48.65-16,73.31-22.76q24.48-6.74,49.17-12.76l2.47-.6c.59-.14,2.11-.73,1.88-1.57s-1.88-.55-2.42-.43Z"/><path class="cls-7" d="M938.1,736.53c28.78-27.52,45.5-109.19,75.49-157.88,0,0-6.62-111.81-23.3-109.87-7.46.87-42.62,20.29-44.76,22-35.76,28.91-33.48,35-38.91,58.88-15,65.9-21.4,172.45-32.72,214.19C895.44,764.13,916.88,732.25,938.1,736.53Z"/><path class="cls-14" d="M356.48,512.74c49.74,51.58,115.76,180.53,182.29,177.14,13-10.33,6.58-72.89,17.82-85.13,3.51-3.82-12.15-2.55-12.44-7.73-.13-2.34,30.46,1.7,29.25-.3-22.57-37.39-60.6-104.06-97.63-163.13-13.73-21.9-10-30.23-53.45-52-2.61-1.31-74.82-19.59-82.71-18.81C322,364.55,356.48,512.74,356.48,512.74Z"/><path class="cls-14" d="M534.8,660.89c33.59,6.88,65-30.63,81.4-47,34.38-34.39,53.89-50.3,83.78-89.67.92-1.21,7.28-7.6,6.93-9.59s.82-1-.63-2.82C694.6,497,675,476.58,663.35,461.84c-46.78,34.78-81.66,46.32-132.18,76-7.4,4.35-15.17,9.79-15,20.6s8.26,23.66,10,35.1"/><path class="cls-15" d="M920.21,558.32c-.34,16.7-.19,33.41,0,50.11.2,21.43.56,42.86,1.19,64.28.27,9.16.59,18.32,1,27.48.19,3.58.39,7.17.64,10.75a27.08,27.08,0,0,0,.35,4.42c.14.58.15-.08.06.16s-.13.3-.19.44c-5.44,12.33-10.18,25-14.39,37.79a299.27,299.27,0,0,0-8.51,30.69c-2.09,9.68-3.67,19.63-3.47,29.56.05,2,.17,4.09.4,6.12.12,1,2.52.44,2.39-.64-1.06-9.46.08-19.13,1.75-28.45a257.23,257.23,0,0,1,7.69-30.71A419.51,419.51,0,0,1,925,717.53a5.73,5.73,0,0,0,.82-3c-.27-3.19-.48-6.38-.67-9.57-.5-8.54-.83-17.09-1.11-25.64-.7-21.27-1.09-42.55-1.33-63.83-.2-17.75-.35-35.5-.1-53.25,0-1.39,0-2.77.07-4.15,0-1.19-2.39-.79-2.42.21Z"/><path class="cls-16" d="M333.48,860.59l1.39,9.17c.29,2,1.65,3.43,3,3.22s2.2-2,1.91-4l-1.38-9.17c1.78-1.62,2.6-4.7,2.08-7.85-.73-4.37-3.76-7.47-6.78-6.92s-4.87,4.54-4.15,8.91A9.11,9.11,0,0,0,333.48,860.59Z"/><path class="cls-17" d="M213,123.58c6.63-9.59,17.06-16.06,28.22-13.17-.72-21.73,20.2-34.77,41.93-35.62,11.16.07,22.69,5,33.19,1.18,6.55-2.36,11.46-7.56,17-11.93,23.34-17.69,60.5,2.17,80.69,23.41s15.49,45.23,5.59,72.77C415,173,415.83,180,414.53,193.62c-1.23,12.87-8.76,36.86-8.77,49.63s20.1,25.93,7.21,27.08l-140.51-15c-20.81,4.34-34.19-1.83-45.06-20.1-7.09-12.41-4.77-13-5.84-27.23-1.85-18.59-20.91-32.38-20-51C201.77,145.18,206.88,133.61,213,123.58Z"/><path class="cls-18" d="M195.51,123s48.27-24.56,111-18.29S400.09,149,411.32,176.4s-.13,56.43-.13,56.43,15.69,4.08,25.5-52.36C451,98.21,366.56,49.57,346.32,50.06S222.35,30.7,195.51,123Z"/><path class="cls-5" d="M250.87,261.82s-1.8,49.52-14.76,84.19c-1.81,4.84-32.36,26.88-32.36,26.88l45.31,11.38c25.44,5.65,90.54,30,115,21l13.19-31.62s-27.06-13-28.37-18.91,2.92-51,2.92-51"/><path class="cls-14" d="M172,959.72c63.24,19.91,132.2,18.48,197.8,16.08a830.3,830.3,0,0,0,121.79-13.26c3-51.22,6.2-129.64.66-170.89-8.67-64.53-10.65-65.41-10.65-65.41L473,698.33l-5.75-37.44c5.7-29.19,18.51-127.76,11.05-139.51L420.81,398l-67.53-38.26c2.1,3.73,23.23,24.89-.53,37a56.3,56.3,0,0,1-24.59,5.86l-1.9,0c-56.87-2.32-97.83-50.18-97.83-50.18l-52.14,17.2L141.12,651S93.21,771.36,91,825.22c-1.39,34,1.49,22.66,1.72,56.8C121.11,890.06,143.86,950.85,172,959.72Z"/><path class="cls-6" d="M348.81,346.44s-10.46-1.67-17.68-3.67-19.55-1.52-52.88-30.21c0,0,9.89,35.39,52.32,42.81,0,0,11,2.25,18.16.48Z"/><path class="cls-5" d="M385.23,130.93l.46.37a5.28,5.28,0,0,1-.42-.77Zm17.86,5.13c.24.26.52.53.8.8l0-.33S403.12,135.66,403.09,136.06ZM273.78,308.52c15.64,18.7,48.13,39.16,75,40.18,9.64.37,18.86,0,26.55-11.31s14.58-15.8,22.91-26.34c8-10.11,11.66-16.5,15.8-28.67,4.27-12.58,4.5-16,4.1-28.9a126.49,126.49,0,0,1,.91-19.95c1-6.32,5.78-31.13,7.46-45.78s-7.78-43.29-7.78-43.29c-.53-4.05-6.17-2.39-8.06-5.75l-1.72-.15a1.72,1.72,0,0,1,.72,1.66,13.69,13.69,0,0,1-5.81-3.36v.06c-2.7,1-5.19-.44-7.19-2.61,0,.4.33,1.23.77,1.27a8.73,8.73,0,0,1-6.72-3c0,.4.33,1.23.3,1.63a16,16,0,0,1-5.36-2.93c.35.55,10.24-.13,10.22.14-2.63.18.27,1.3-1.73-.87l-2-1.66c-2.19.21-2.22,1.52-3.82-.21.4.43-.82-4.48-.85-4.08-2.6-.22-1.87-.34-3.93-1.71,0,.39-7.3,2-7.33,2.37-2.16-.18-1.76,1.85-3.35.11.39.44,1.7-1.53,2.1-1.09-2.63.17-3.75,1.76-5.74-.41.4.43-8.18-5.09-8.18-5.09-2.63.17-2.26,1-4.29-.74.8.87-11.91-1.76-11.55-.93-2.16-.19,3.46,8.28,1.83,6.94,0,.4-4.87-1.62-4.87-1.62-2.2.21.88,2.48-.72.74,0,.4.3,1.63.73,1.66-2.7,1-5.66-.08-8.11-1.89.79.87,1.16,1.7,1.56,2.13-2.17-.18-3.93.07-5.95-1.71,0,.4.72,1.67,1.16,1.7A8.6,8.6,0,0,1,324,123.7c0,.39.76,1.26,1.15,1.69a6.13,6.13,0,0,1-5.11-1.23l1.16,1.7c-1.73-.15-3.1.53-5.62-.48,0,.39.79.86.76,1.26a15.87,15.87,0,0,1-4.29-.77c0,.4,1.19,1.31.76,1.27-1.73-.15-3.09.53-5.19-.44.4.43.76,1.26,1.16,1.69-1.73-.14-3.49.1-5.15-.84a2.91,2.91,0,0,0,.73,1.67c-1.73-.15-3.1.53-5.19-.45,0,.4.76,1.27,1.16,1.7-1.73-.15-3.5.1-5.19-.44,0,.39.8.86,1.2,1.3-1.73-.15-3.5.1-5.59-.88-.07.79.33,1.23.29,1.62-1.29-.11-2.12-.58-3.42-.69l-2.23.61c-6.74,7.42-28.91-.93-28.91-.93-14.32,9.57-1,65.94-1.25,73.52s-4.68,9.31-4.68,9.31c-1.92-3-5.26,5-6.29,1.75-1.06-2.89.11-6.39-.95-9.28-3.35-6.68-12.17-5.44-17.26-1.88l-.91,1.24c-7.38,8.41-2.52,36.92,1.69,45.61,0,17,14.14,27.1,23.5,15.6l1.79,6.78"/><path class="cls-19" d="M364.72,273.17c-3.32,1.39-8.15.59-11.2-1.67-.67-.5-3.08-.27-2.13.43,4,3,11,3.81,15.27,2,.42-.18.38-.5-.12-.71a2.79,2.79,0,0,0-1.82-.07"/><path class="cls-19" d="M350.08,270.9a20.16,20.16,0,0,0-6.8-2.32,1.6,1.6,0,0,0-1.09.25c-.22.16-.28.4,0,.57a7.63,7.63,0,0,0,3.74,1.2,1.47,1.47,0,0,0,1.21-.36c.24-.3-.13-.55-.45-.57a6.06,6.06,0,0,1-3-1l-1.13.81a18.08,18.08,0,0,1,6.07,2.09,1.44,1.44,0,0,0,1.28,0c.27-.13.57-.45.21-.67"/><path class="cls-19" d="M340.53,270.38c-2.8-.31-6-1.8-7.19-4-1.81-3.35.56-8.21,4.23-9.93.4-.19.22-.49-.16-.61a2.32,2.32,0,0,0-1.52.18c-3.2,1.51-5.53,5.46-5.33,8.48.19,2.81,2.71,5,6,6.08a15.88,15.88,0,0,0,3.07.69c.43.05,1.2,0,1.44-.33s-.14-.49-.54-.54"/><path class="cls-19" d="M370,272.19a.36.36,0,0,1,.4-.49,3.31,3.31,0,0,0,2.24-.53l.66,1a9.84,9.84,0,0,0-4.52,1.19.82.82,0,0,1-.89-.22c-.17-.17-.33-.53,0-.69"/><path class="cls-19" d="M367.83,272.42a11,11,0,0,1,5.06-1.31.94.94,0,0,1,.72.4.39.39,0,0,1-.06.57"/><path class="cls-19" d="M375.78,273.07a5.75,5.75,0,0,0,5.16-3,8.23,8.23,0,0,0-1.42-9.15.33.33,0,0,1,.18-.57,1.09,1.09,0,0,1,.95.39,9.2,9.2,0,0,1,2.32,7.86,6.46,6.46,0,0,1-4.68,5.17,6.86,6.86,0,0,1-2.06.26c-.27,0-.76-.19-.87-.53s.16-.47.42-.46"/><path class="cls-20" d="M398.92,220.42c2.5-1,5.51.24,7,1.77a6.8,6.8,0,0,1,1.29,3,6.27,6.27,0,0,1-2,5.57,5.82,5.82,0,0,1-6.77.59,6.46,6.46,0,0,1-2.52-7.73,5.77,5.77,0,0,1,3-3.23"/><path class="cls-20" d="M376.8,226.6s12.47-8.2,18.5-8.28c8.79-.13,19.12,5.62,21.84,10.22,0,0-13.6-8.45-19.8-8.18C391.42,220.61,376.8,226.6,376.8,226.6Z"/><path class="cls-20" d="M326.08,215.1c-2.3-1.45-6.19-1.43-7.88-.18a6.17,6.17,0,0,0-2.06,2.69,6.24,6.24,0,0,0,1,5.81,5.84,5.84,0,0,0,6.57,1.74,6.45,6.45,0,0,0,3.79-7.2c-.09-.48.46-1.34-1.39-2.52"/><path class="cls-20" d="M340.69,222.82s-12.48-9.52-18.95-10.26c-9.45-1.09-21.23,3.49-24.69,7.76,0,0,15.61-6.9,22.25-6C325.64,215.27,340.69,222.82,340.69,222.82Z"/><path class="cls-21" d="M384.9,187.42l-1.95,5c-.5,1.26-1,2.53-1.48,3.79,4.64.61,8.52,1.35,11.42,2,6.13,1.33,9.26,2,12.38,3.93a34.56,34.56,0,0,1,6.69,5.45,21.58,21.58,0,0,1,3.17,3.74c2,3.17,2.26,5.94,2.8,5.92s.61-2.32.62-2.55a20.72,20.72,0,0,0-2.69-10.77,24.51,24.51,0,0,0-6.35-6.66c-3-2.15-11.88-6.41-24.61-9.79"/><path class="cls-21" d="M343.81,182.81c.3,1.74.59,3.5.89,5.25.23,1.34.45,2.68.67,4-5.05-.28-9.34-.28-12.56-.21-6.81.14-10.29.24-14,1.51a40,40,0,0,0-8.37,4.1,24.32,24.32,0,0,0-4.25,3.08c-2.88,2.74-3.79,5.42-4.36,5.3s-.1-2.4-.06-2.64a21.11,21.11,0,0,1,5.41-10.09,27.74,27.74,0,0,1,8.29-5.35c3.66-1.56,14.09-4.05,28.38-5"/><path class="cls-22" d="M245.92,237.83C236.82,215,230,214.7,230,214.7s-4.72,5.13-2.67,15.67"/><path class="cls-22" d="M242.35,239.8c-6.09-.74-1.66,10.79-3.41,13.44s-3.82-4.55-4.39-13.18c0,0,.26-11.64,6.09-13.63"/><path class="cls-6" d="M400.31,170.27s-18.68,2-33.84,2.13-29.93-7.69-29.93-7.69,23.78,5.93,30,6.11S400.31,170.27,400.31,170.27Z"/><path class="cls-21" d="M410.66,126.85c-.19-.28.09.12,0,0-3.72-5.32-6.07-11-10-16.14s-7.67-9.62-11.82-14.44c-.25-.28-5.2-.45-5.45-.73l-.26-.3-.4-.45-.93-1c-23.45-10.41-51.83-12-77.51-4.35A94.29,94.29,0,0,0,241,206.79c1.27,4.27-1.31,9.42,2.86,11.85s4.66,1.24,8.64-1.49A31.16,31.16,0,0,0,261.45,206c10.95-20.5,13.79-53.22,9.05-76,2.73,4.3,21.93,0,26.17,2.8a36.52,36.52,0,0,0,50.64-10.13,55.72,55.72,0,0,0,5.75,7.15c19.3,20.35,44.59,30.32,65.87,16.17C419.72,145.53,413,130.23,410.66,126.85Z"/><path class="cls-9" d="M291.16,209.52l2.1,8.24c1.11,6.36,4.93,19.07,6.83,22.61,2.67,4.94,35.74,9.14,42.54,5.81s11.82-22.06,13.87-26.33l13.23,1.7c.77,5.77,3.62,24.1,6,26.71s17.61,3.28,19.33,3.35c1.43,0,3.43.11,5.61.09,5.79,0,12.85-.47,15.15-2.45,3.42-2.92,7.79-14.74,11.62-25.94l.63-1.76c.13-.42.29-.71.31-.84h0l.68-2c-18.46-10.5-43.66-10.8-59.72-.7l.11.21-12.9-1.72c-13.92-10.78-38.84-17.89-57.44-12.17h0l-56.86,5.31-.53,5Zm86.22,37c-1.46-1.63-3.84-14.49-5.36-24.48,13.94-8.51,36.65-8.2,53.22.21l0,.25c-2,6-7.52,22-10.89,24.86-4,3.4-34.35,1.75-36.94-.79Zm-73.26-7.23a170.44,170.44,0,0,1-8.89-29.39c16.63-6.16,44.37,0,58,10.21-2.87,7.77-6.76,21.44-11.64,23.82-7,3.44-35.8-1.52-37.47-4.64Z"/><path class="cls-23" d="M216.36,216.18s-47.26-34.27-29.24-71.07c3.46-7.07,3.83-4.74,4-10.85,1.07-32-10.13-24.39,36.76-61.82S281.7,35.65,353.27,41c36.91,2.76,57.12,18.18,67.2,41.57,4.54,10.52,7,22.64,8.06,35.94,0,0-75.42-21.51-120.33,2.71s-92.07,103.06-82.49,128.35C228.4,256.65,216.36,216.18,216.36,216.18Z"/><path class="cls-18" d="M187.23,181.15s64-93.24,149.33-96.09c0,0-105.39-11.27-152,64l-.69,8.85a48.13,48.13,0,0,0,1.54,16.38Z"/><path class="cls-14" d="M60.15,676.41l85.79,4.42,24.67-156,12.32-157s-52.12,6.23-76.24,51.65S62.89,593.28,60.82,620.64C59.39,639.58,59.85,674.2,60.15,676.41Z"/><path class="cls-24" d="M356.51,682l1.42-10.11a.26.26,0,0,0-.23-.14l-5-.75-13.64-2.06-20.07-3-24.62-3.71-26.84-4L240.33,654l-25.27-3.82L193.6,647l-15.37-2.31-4.83-.73a11.29,11.29,0,0,0-2.49-.38,1.19,1.19,0,0,1-.32,0l.21.25c1.23-4.09,1.93-8.38,2.76-12.57,1.53-7.76,3-15.54,4.39-23.32,3.79-20.7,7.44-41.41,11.14-62.12,3.32-18.61,6.6-37.23,10.22-55.78,2.31-11.82,3.63-23.74,2.21-35.77a74.93,74.93,0,0,0-8.23-26.77,64.72,64.72,0,0,0-11.79-15.67,41.47,41.47,0,0,0-7.84-6.26l-.38-.23c-.44-.25-1.22,0-1.66.17-.12,0-1.15.48-.78.69a35.78,35.78,0,0,1,5.56,4.08A61.35,61.35,0,0,1,188,423.53c11.54,17.83,13.38,39.84,10,60.39-1.4,8.46-3.21,16.86-4.76,25.29q-2.67,14.55-5.27,29.13c-3.78,21.09-7.5,42.19-11.33,63.28-1.53,8.48-3.08,17-4.71,25.42-1,5.14-1.94,10.31-3.18,15.39-.15.59-.3,1.19-.48,1.77,0,.16.05.23.21.25l5.52.83,14.93,2.26,22,3.32,26.47,4L266,659.17l28.23,4.26,25.58,3.86L340,670.34l12.59,1.9a21.78,21.78,0,0,0,2.67.41c.49,0,.05,0,0,.05a41.08,41.08,0,0,0-.76,5.45l-.64,4.51c0,.25,2.48.06,2.59-.69Z"/><path class="cls-24" d="M456.83,452.39a65.83,65.83,0,0,0-3.21,8.23,38.15,38.15,0,0,0-1.58,6.76,10.46,10.46,0,0,0-.09,3.11,20.86,20.86,0,0,0,1.18,3.69c.77,2,1.61,4,2.46,5.94,5.71,13.22,11.74,26.3,17.14,39.65,6.38,15.81,12.35,32,15.72,48.78a85,85,0,0,1,2,21.51A90.41,90.41,0,0,1,484,619.3c-2.88,7-6.75,13.45-10.48,20-3.07,5.41-6.05,11.05-7.09,17.25a29.51,29.51,0,0,0-.41,4.49c0,1,2.56.5,2.58-.33.12-6.29,2.35-12.13,5.26-17.63,3.33-6.3,7.17-12.3,10.29-18.71a86.33,86.33,0,0,0,8-50.44c-2.52-16.64-8.19-32.8-14.26-48.44-5.53-14.23-11.8-28.15-18-42.12-1.73-3.92-3.58-7.85-4.92-11.93a9.38,9.38,0,0,1-.34-4.57,50.17,50.17,0,0,1,3.79-12.6c.32-.75.64-1.49,1-2.22.26-.54-.86-.56-1.1-.53a1.84,1.84,0,0,0-1.48.86Z"/><path class="cls-25" d="M355.16,289.09c-12.31-.93-32.14-4-32.14-4s-4.06,31.15,31.12,34.17c28.51,2.45,31-29.32,31-29.32S367.47,290,355.16,289.09Z"/><path class="cls-26" d="M355.28,289.1c-5.86-.44-29.36-3.3-29.36-3.3s8.33,21.27,29.49,22.86c22.95,1.72,26.78-18.26,26.78-18.26Z"/><path class="cls-27" d="M355.46,290.08c-5.85-.44-23.58-2.86-23.58-2.86s5.88,7.52,23.44,8.84S379,291,379,291Z"/><path class="cls-25" d="M386.6,288c-.61-.21-4.11.78-7,.28-4.81-.82-5.37-2.44-8.85-3-6-1-10,1.35-12.56,1.16s-6.22-3.08-12.25-3c-3.53,0-12.32.79-17.2.88-2.92.06-6.24-1.44-6.87-1.32-.88.17.27,7.27,33,9.73S387.45,288.33,386.6,288Z"/><path class="cls-5" d="M354.27,681.32c.18,3.18-.24,22.36-.12,25.55.68,17.81,1.1,19.63.53,37.43l34.37-4.18-.78-53Z"/><path class="cls-14" d="M60.06,651.43c-1.12,14.84-1.22,30,2.8,44.32,5.08,18.13,12,31.67,27.76,42s28.33,14.73,47,12.23c2-.27,5.31,2,7,1,2.36-1.47,3.74-4.06,5-6.54q7.85-15.29,15.71-30.56c5.28-10.27,10.64-20.8,12.07-32.25a8.08,8.08,0,0,0-.44-4.73c-.87-1.71-2.72-2.64-4.46-3.44a213,213,0,0,0-62.19-17.76"/><path class="cls-24" d="M170.58,643.46a50.82,50.82,0,0,0-18.82,1.27,51.29,51.29,0,0,0-18.28,8,25.88,25.88,0,0,0-6.79,7c-.25.4.93.28,1,.26a2.29,2.29,0,0,0,1.51-.71c2.95-4.7,7.78-8,12.72-10.26a52.56,52.56,0,0,1,17.31-4.65,39.79,39.79,0,0,1,9.19.12,3.14,3.14,0,0,0,1.81-.32c.18-.09.92-.6.31-.69Z"/><path class="cls-7" d="M1233.44,760.87,1103.52,714.8l24.25-130.86,55.51-91.23s31.19,12.27,37.58,55.12,15.7,154.94,16.13,178C1237.35,745.08,1234.3,759.2,1233.44,760.87Z"/><path class="cls-7" d="M1154.9,713l.07-.67,79.06,46.8c-16.55,67.63-185.42,84-185.42,84l-24.2-63.43Z"/><path class="cls-15" d="M1033.34,787.08l-2-10.21-.77.65c3.31-1.41,6.62-2.84,9.93-4.26q12.43-5.35,24.85-10.77,15.93-6.94,31.81-14c10.52-4.69,21-9.43,31.46-14.3,7.78-3.62,15.58-7.27,23.16-11.31l2-1.06c.18-.1.53-.27.49-.53-1.08-7.79-2.1-15.59-3.12-23.4q-3.45-26.45-6.55-52.94c-2.21-19.13-4.3-38.28-5.84-57.48-.6-7.53-1.13-15.07-1.37-22.62-.25-7.78-.13-15.5,2.22-23,4.71-15.07,16.69-27.91,30.57-35.2.26-.14.52-.28.78-.4s.63-.42.28-.7-1.36.13-1.68.29a60,60,0,0,0-10.77,6.91,65.34,65.34,0,0,0-17.94,20.84c-4.37,8.32-6,17.31-5.95,26.63,0,6.93.44,13.85.93,20.75,1.32,18.84,3.32,37.64,5.44,56.4q3.13,27.79,6.76,55.55,1.24,9.64,2.53,19.29.4,3,.82,6.07a19.94,19.94,0,0,0,.45,3.27c0,.13,0,.28,0,.4l.49-.52c-7,3.89-14.32,7.3-21.58,10.72-10.14,4.77-20.34,9.39-30.56,14q-16.07,7.18-32.2,14.23-13,5.67-26,11.28c-4,1.74-8.12,3.39-12.13,5.2l-.17.08c-.21.09-.84.31-.77.65l2,10.2c.11.58,2.52,0,2.39-.64Z"/><path class="cls-15" d="M1196,800.82q-7.89,3.79-15.83,7.52c-9.44,4.45-18.91,8.88-28.47,13.07-3.44,1.51-6.9,3.1-10.47,4.26-.26.08-.94.35-.71.7s1.31,0,1.54-.13c3.13-1,6.16-2.37,9.17-3.67,4.58-2,9.13-4.05,13.67-6.13q13.41-6.15,26.72-12.52c1.92-.92,3.85-1.83,5.77-2.76.37-.18.64-.37.29-.64s-1.37.15-1.68.3Z"/><path class="cls-15" d="M1153.2,722.1a25,25,0,0,1,19.7,9.31c.62.77,2.91-.13,2.2-1a27.13,27.13,0,0,0-21.65-9.91c-1.3,0-1.89,1.64-.25,1.61Z"/><path class="cls-7" d="M899.39,817.75c1.78,7.34,7.48,9.47,16,10.77s17.21.27,25.76,1.09c6.53.62,12.92,2.31,19.49,2.41a7,7,0,0,0,3.12-.47c1.68-.81,2.23-2.65,2.63-4.29l2.16-9a2.37,2.37,0,0,0-.21-2.2,3.28,3.28,0,0,0-1.91-.76,235.46,235.46,0,0,0-56.58-2.37"/><path class="cls-5" d="M1031.06,788.76l6.3,19.44,5.69,19.86s-26.28,7.62-34.21,8.52-26.24,5.3-26.24,5.3a10.62,10.62,0,0,1,2,6.9,10.46,10.46,0,0,1-4.18,7l-10.78-10.32c-.95,6.12-6.95,3-6.95,3l-8.25-9.35c-.83,7.63-8.71,3.82-8.71,3.82L939,828.81a24,24,0,0,1-5.5,7.61c-3.08,2.41-5.57-3.26-5.57-3.26l7.77-26.27,32.77-18.49,59.54.84Z"/><path class="cls-6" d="M957.15,800.26a53.87,53.87,0,0,0-6.09,3.91c-2.19,1.59-4.62,3.33-7,5.42a41.12,41.12,0,0,0-6.12,6.46,5.49,5.49,0,0,0-1.25,4,26.84,26.84,0,0,0,.6,3.36,15.56,15.56,0,0,0,2.15,6.27c.21-.07-.41-2.38-1-6.39-.13-1-.32-2.15-.38-3.24a4.28,4.28,0,0,1,1.1-3.05,48.43,48.43,0,0,1,6-6.14c2.3-2,4.63-3.74,6.8-5.38s4-3.13,5.73-4.15a19.18,19.18,0,0,1,5.94-2.2A8.41,8.41,0,0,0,957.15,800.26Z"/><path class="cls-6" d="M966.1,812c-3.21,2.1-8,4.53-12.75,8.1a10.65,10.65,0,0,0-3.27,3.31,18.88,18.88,0,0,0,.41,11.17,27.94,27.94,0,0,0,2.66,3.81,12.61,12.61,0,0,0,1.11,1.28,6.07,6.07,0,0,0-.59-1.61,27.79,27.79,0,0,1-2.13-3.94,13.88,13.88,0,0,1-.66-6.52,14.66,14.66,0,0,1,.6-3.6,10,10,0,0,1,2.8-2.66c4.64-3.44,9.34-6.09,12.41-8.47a16.19,16.19,0,0,0,4.59-4.33A48.63,48.63,0,0,0,966.1,812Z"/><path class="cls-6" d="M967.28,841.91a7.67,7.67,0,0,1-1.77-4.14,5.56,5.56,0,0,1,2.21-4.64,18,18,0,0,1,5.11-2.73l4.63-1.92c1.16-.5,2.21-1.05,2.89-1.31a5.3,5.3,0,0,1,1.14-.21c.11-.08-.36-.51-1.27-.41a19.72,19.72,0,0,0-3.29.88L972.18,829a16.77,16.77,0,0,0-5.68,2.92,7,7,0,0,0-2.67,6.05,8.6,8.6,0,0,0,2.41,4.76c2.15,2.07,3.72,2.74,3.86,2.69C970.3,845.22,968.87,844.1,967.28,841.91Z"/><path class="cls-6" d="M1009.61,446.55s15.47,3.2,21.69,2.14,16.54.39,47-20.83c0,0-5.21,16.67-46.79,28.63,0,0-17.08,3-23,.88Z"/><path class="cls-28" d="M966.75,282.57h0c-1.81-10.62-2.27-17.12,1.19-24.08,2.44-4.92,11.75-9.46,11.75-9.46s3.27-15.09,10-12.37c0,0,8.55-19.76,28.23-12.75,0,0,6.27-1,9.35,3.08,0,0,11-16.68,27.28-3,0,0,7.07-3.71,8.86,1.78,0,0,12.6-10,23.27-.08,0,0,29.7-3.17,35.24,15.75,0,0,14.77-5.92,20.89,8.15,0,0,7.29,1.23,6.42,11.39,0,0,10.65,4.18,11.08,10.93,0,0,5.85,5.55,4.48,16.13-.38,3-1.33,2.13-2.68,6.16,5,12.66-4.37,13.3-4.37,13.3,8.38,12.07-4.67,25-4.67,25s3.89,9.14.84,14.5c-4.17,7.31-19.6,14.39-19.6,14.39s-1.71-20.83.26-33.77-6.66-36.56-9.74-41.78-29.09,1.41-67.73-1.9-45.8-10.89-50.51-10c-9.78,1.73-20.76,34.87-21.38,45.13s-5.44,29.29-5.44,29.29S960,337.8,967,321.1c0,0-5.67-13-2.39-20.22,0,0,.58-3.07,2.68-4.47C967.27,296.37,961,288.15,966.75,282.57Z"/><path class="cls-5" d="M1084.41,423.52c-16.78,16.48-40.92,26.69-63.06,29.71-21.72,3-28.46-4.63-31.23-8-15.22-18.45-24.73-36.79-29.52-57.55-1.31-5.63-1.09-11.61-.31-17.69,1.16-9.11,4.05-26.55,4.49-35.31,1.14-22.3,4.94-42.34,18.45-60.26,28.14-37.31,89-32.49,110.89-20.25,25.59,14.31,35.83,40.62,35.65,67.87a73.33,73.33,0,0,1-4.21,24.62,79,79,0,0,0-10.65,12.79"/><path class="cls-29" d="M983,278.18s-1.88,1.49-15.25,27.85c3.4-8.44,5.78-21.3,13.89-32.86,28.32-40.38,108.15-29.37,130-16.26,25.53,15.32,33.52,43.15,33.22,72.54-.11,11.94-.12,19.56-4.3,29.19-.18.12-2.41,2.16-2.41,2.16s-24.23,3-33.1,17l.51-12.66s-4.91-16.2-7.8-43.75c0,0,.92-14.94,1.42-19.42,1.56-13.78-11-11.71-19.77-10.09-5.43,1-17,1.08-22.54.6-14.06-1.24-31.71-4.54-38.31-4.92C1009.25,287,983,278.18,983,278.18Z"/><path class="cls-30" d="M982.1,278.28a8.53,8.53,0,0,0-1.49,2.12c-2.36,3.79-4.45,7.75-6.54,11.69q-3.72,7-7.3,14.13l1.92-.37c2-5.05,3.42-10.33,5.25-15.45a72,72,0,0,1,8.8-17.64,56.24,56.24,0,0,1,18.88-16.48c15.58-8.57,34-11.08,51.6-11,15.83.09,32.17,2.15,47.18,7.35A57.63,57.63,0,0,1,1118.83,263a64.78,64.78,0,0,1,18.49,26.11c4.06,10.29,5.88,21.34,6.39,32.35.29,6.13.23,12.32-.07,18.45a53.79,53.79,0,0,1-3.3,17,8.09,8.09,0,0,1-.81,1.88,6,6,0,0,1-.7.62l-1.59,1.45,1.31-.45a64.66,64.66,0,0,0-9.32,2,57.3,57.3,0,0,0-17.29,7.66,28.63,28.63,0,0,0-7.88,7.9l1.94-.45.26-6.45.17-4.28a12.46,12.46,0,0,0,.07-1.93,22.27,22.27,0,0,0-.72-2.63c-.64-2.44-1.22-4.9-1.76-7.36-2-9.26-3.52-18.63-4.67-28a44.91,44.91,0,0,1-.63-6c0-1,.13-2,.19-3,.23-3.53.46-7.05.73-10.57.43-5.64,2.31-13.72-4.55-16.18-6.06-2.17-12.74.29-18.86.85a127.69,127.69,0,0,1-27.7-.86c-9.19-1.16-18.33-2.91-27.55-3.8a107.43,107.43,0,0,1-18.93-3.88c-5.77-1.62-11.5-3.39-17.19-5.27l-1-.32a2.1,2.1,0,0,0-1.26.14c-.06,0-.87.41-.6.5,4.14,1.39,8.32,2.7,12.5,3.95,6.78,2,13.69,4.16,20.71,5.2,2.91.43,5.87.56,8.79,1,4.67.63,9.33,1.35,14,2,9.42,1.35,18.81,2.6,28.35,2.49a79.92,79.92,0,0,0,12.55-.88,53,53,0,0,1,9.71-1.16c2.81,0,6,.61,7.84,2.89,2.2,2.67,1.85,6.28,1.55,9.49-.33,3.43-.56,6.87-.79,10.3-.17,2.56-.47,5.14-.5,7.7a50.79,50.79,0,0,0,.72,6.61q.52,4.24,1.15,8.47c.69,4.6,1.47,9.18,2.37,13.75,1,4.86,2,9.73,3.37,14.5a7.71,7.71,0,0,1,.1,2.54l-.35,8.8-.07,1.94c0,.34,1.78-.2,1.94-.45,5.69-8.84,16.57-13.17,26.41-15.46,1.41-.33,2.83-.61,4.26-.85a5.85,5.85,0,0,0,2.27-.56,18.2,18.2,0,0,0,1.91-1.72,7.64,7.64,0,0,0,1.77-3.38,47.62,47.62,0,0,0,2.39-9.56c1-7.27,1-14.83.78-22.16a119.52,119.52,0,0,0-2.14-20.23c-2.51-12.67-7.59-24.94-16.18-34.71a58.46,58.46,0,0,0-23.62-16.41,126.13,126.13,0,0,0-25.2-6.14,166.4,166.4,0,0,0-31.3-1.75,124.66,124.66,0,0,0-31.69,5.12c-9.72,3-19.12,7.57-26.77,14.36A53.74,53.74,0,0,0,978.32,277c-3.87,6.5-6.35,13.64-8.65,20.82-.91,2.83-1.8,5.67-2.9,8.43-.11.26,1.7.06,1.92-.37,3.54-7,7.11-14,10.93-20.81a62.17,62.17,0,0,1,3.93-6.56c.11-.15.4-.47.31-.4.35-.28-.31-.26-.44-.25A2.41,2.41,0,0,0,982.1,278.28Z"/><path class="cls-5" d="M1099.39,403.53c10.51,12.35,23.85-5.21,23.85-5.21,11.75-12.42,12.63-26.4,12.85-36s-10.32-10.11-10.32-10.11c-9,.4-7.79,1.53-21.52,26.17"/><path class="cls-31" d="M1113.87,379c2.34-5.07,5-10.2,8.55-14.52a14.34,14.34,0,0,1,4.82-4.08s.53-.21.29-.1c.1-.05.4,0,0,0l-.4-.15a9.62,9.62,0,0,1,1.57,3.33,19.28,19.28,0,0,1,0,10c-.14.57,1.36.35,1.48-.17.94-3.88,1.09-8.15-.55-11.87-.37-.81-.78-2.15-1.85-2a6.44,6.44,0,0,0-2.77,1.21,21.44,21.44,0,0,0-4.73,4.73,70.23,70.23,0,0,0-7.81,13.59c-.3.66,1.18.51,1.39,0Z"/><path class="cls-31" d="M1112.45,384.18c3.16.4,1.16,5.19.59,7-.36,1.15-2.08,5.7.59,5.56,1.11-.06,1.88-1.17,2.43-2a28.81,28.81,0,0,0,2.67-5.74,23.22,23.22,0,0,0,1.63-7.56c.11-3.14-.21-7.15-3.11-9-.53-.34-1.84.39-1.15.83,2.44,1.59,2.8,5,2.78,7.67a19.54,19.54,0,0,1-.9,6,41.6,41.6,0,0,1-2.46,6.12,13,13,0,0,1-1.11,1.87c-.13.19-.44.43-.53.64s-.15.12-.21.16c.11-.07.29.1.24-.05-.65-2.17.7-4.61,1.28-6.73.66-2.41.94-5.36-2.22-5.76-.71-.09-1.52.92-.52,1Z"/><path class="cls-31" d="M1046,348.33c2.71-1.06,5.59.42,7.11,2.09a6.51,6.51,0,0,1,1.63,3.25,6.72,6.72,0,0,1-2.24,5.92,6.25,6.25,0,0,1-7.28.48c-3-1.8-3.59-5.69-2.51-8.36a6.16,6.16,0,0,1,3.29-3.38"/><path class="cls-31" d="M1031.22,357.8s10.43-12.37,20-11.34c13.48,1.46,15.81,9.65,18.3,14,0,0-7.71-10.52-18.17-11.39C1041.89,348.32,1031.22,357.8,1031.22,357.8Z"/><path class="cls-31" d="M979.86,341.17c-2.26-1.6-5.19-.75-6.91.56a6.52,6.52,0,0,0-2.15,2.84,7.06,7.06,0,0,0,.83,6.26,5.57,5.57,0,0,0,6.53,2c3.08-1.15,4.44-4.82,4-7.65a6.12,6.12,0,0,0-2.3-4"/><path class="cls-31" d="M995.64,354S989.28,339.8,981,338.9c-11.66-1.28-15.24,6.26-18.21,10.06,0,0,8.59-8.74,17.57-7.5C988.51,342.59,995.64,354,995.64,354Z"/><path class="cls-19" d="M1002,388.67a9.67,9.67,0,0,0,8.89.3c.59-.3,2.42.22,1.59.63a13.61,13.61,0,0,1-12.08-.6c-.31-.2-.23-.44.19-.53a2.16,2.16,0,0,1,1.41.2"/><path class="cls-19" d="M1013.65,389a15.41,15.41,0,0,1,5.58-.84,1.19,1.19,0,0,1,.8.34c.15.16.16.35,0,.45a5.89,5.89,0,0,1-3.06.4,1.12,1.12,0,0,1-.89-.45c-.14-.27.18-.4.43-.38a4.72,4.72,0,0,0,2.47-.33l.75.8a14,14,0,0,0-5,.76,1.17,1.17,0,0,1-1-.2c-.19-.14-.38-.44-.06-.55"/><path class="cls-19" d="M1021.1,389.94c2.2.16,4.88-.56,6.12-2.11,1.87-2.35.74-6.72-1.86-8.58-.28-.21-.1-.42.21-.45a1.74,1.74,0,0,1,1.15.36,8.14,8.14,0,0,1,2.91,7.6c-.54,2.16-2.79,3.5-5.49,3.88a11.94,11.94,0,0,1-2.47.1c-.33,0-.92-.18-1.06-.46s.17-.36.49-.34"/><path class="cls-19" d="M998.08,387.16a.28.28,0,0,0-.23-.44,2.59,2.59,0,0,1-1.66-.73l-.65.66a7.68,7.68,0,0,1,3.33,1.57.64.64,0,0,0,.72,0c.15-.11.33-.37.13-.54"/><path class="cls-19" d="M999.72,387.64a8.55,8.55,0,0,0-3.73-1.73.7.7,0,0,0-.61.21.3.3,0,0,0,0,.45"/><path class="cls-19" d="M993.48,387a4.51,4.51,0,0,1-3.56-3,6.52,6.52,0,0,1,2.38-6.93.26.26,0,0,0-.06-.47.86.86,0,0,0-.79.17,7.29,7.29,0,0,0-2.9,5.79,5.12,5.12,0,0,0,2.89,4.69,5.06,5.06,0,0,0,1.56.49.77.77,0,0,0,.74-.28c.13-.26,0-.39-.26-.42"/><path class="cls-29" d="M1036.81,324.68q-.25,3.22-.5,6.46c-.13,1.64-.25,3.28-.37,4.92,4.94-1,9.14-1.56,12.31-1.9,6.28-.68,12.79-.89,19,.65a20.14,20.14,0,0,1,7.89,3.64c.74.59,2.69,3,3.92,2.54.5-.2-.08-2.91-.14-3.19-1.19-5.46-5.24-8-10.3-9.71-10.33-3.43-20.95-4-31.78-3.41"/><path class="cls-29" d="M964.91,324.25a16.58,16.58,0,0,0,1.34-3.91,26.35,26.35,0,0,1,3.32-.73c10.6-1.65,21-.42,31.39,2q-.29,3.21-.59,6.45c-.16,1.64-.31,3.28-.47,4.91-4.63-1.81-8.61-3.08-11.63-4-6-1.73-12.25-3-18.5-2.56a22.94,22.94,0,0,0-5.13.94Z"/><path class="cls-25" d="M1008.88,405c10.68.7,28.08.57,28.08.57s-4.61,27.19-29.38,25.57S981,401.88,981,401.88,998.19,404.26,1008.88,405Z"/><path class="cls-26" d="M1008.77,405c5.08.33,25.62.81,25.62.81s-7.51,17.05-25.88,15.85c-19.92-1.3-25-19-25-19Z"/><path class="cls-27" d="M1008.5,405.7c5.08.33,20.6.48,20.6.48s-5.93,5.19-21.17,4.2-19.73-6.71-19.73-6.71Z"/><path class="cls-25" d="M979.94,400.25c.55-.1,3.44,1.07,6,1,4.22-.09,6.93-1,10-1.06,5.23-.06,8.4,2.21,10.66,2.35s5.7-1.68,10.87-.94c3,.43,10.5,2,14.68,2.66,2.51.38,5.53-.4,6.06-.24.74.24-1.07,5.64-29.5,3.79S979.18,400.38,979.94,400.25Z"/><path class="cls-24" d="M113.56,751.75c5.21.48,10.43.87,15.64,1.24q20.15,1.44,40.31,2.25,28,1.15,56,1.1c20.87-.08,41.74-.71,62.55-2.25A481.89,481.89,0,0,0,348,746.35q3.45-.69,6.88-1.47c.35-.07,1.27-.43,1.14-.92s-1.13-.31-1.45-.24c-19.27,4.33-38.94,6.81-58.6,8.48-20.74,1.76-41.57,2.53-62.38,2.74-19,.19-38-.12-56.95-.82q-21.26-.76-42.49-2.21-9.34-.64-18.68-1.45l-.25,0a2.43,2.43,0,0,0-1.83.49c-.32.34-.38.77.22.83Z"/><path class="cls-24" d="M558.22,571.4A42.51,42.51,0,0,0,535.73,597c-.25.81,2.32.46,2.58-.36a40.23,40.23,0,0,1,20.9-24.33c1.63-.77.12-1.46-1-.94Z"/></g><g id="Layer_4" data-name="Layer 4"><path class="cls-32" d="M377.8,1261.16c14.07-38.54,30.18-65,37.5-91.37C426.17,1130.7,435.79,1012.62,502,997,610.4,971.5,197.1,775,217.73,773.72c73-4.61,316.12,22.79,356,48.62,32.2,20.87,84.51,92.65,56.73,169.82-24.71,68.65-100.52,140.1-144.5,242.71C440.67,1228.54,421.55,1273.83,377.8,1261.16Z"/><path class="cls-32" d="M490,992.11c4.16-6.24,13.89,41.13,18.61,35.3a312,312,0,0,1,35.32-36.66A336.1,336.1,0,0,1,585.74,959,288,288,0,0,1,617,941.58c-49.8-142.65-392.39-167.36-392.39-167.36S100.51,759.75,84.94,860.07C64.3,993,248.66,997.7,427.22,968.89,427.81,968.8,489.43,992,490,992.11Z"/><path class="cls-32" d="M620.76,889.81s29,52.24,11.61,140.1-49,259.89-49,259.89-57.18,23.15-100.13,7.9-62.48-29.16-88-19.29-70.34,12.41-91.85,3.65l-31.91-11.72,67.73-319.51Z"/></g><g id="Layer_11" data-name="Layer 11"><path class="cls-5" d="M663.35,461.84l13.89-12.7s10.49-17.35,15.72-21.9,30.18-16.36,31.51-16.5S747,383.29,753,385.8s9.19,7.95,5.42,15.83-21.65,21.1-18.51,24.77a28.94,28.94,0,0,0,9.13,6.23s4-9.14,10-10.94,10.72,4.78,10.72,4.78l-.87,4.17,6.35-3.48s10.15-17.85,18.36-15.73a34.52,34.52,0,0,1,10.82-9,7.32,7.32,0,0,1,9.62,3.84,7.23,7.23,0,0,1,.55,2.05h0l-25.44,39.86-51.74,34.89s-26,2.16-31.37,3.22l-11.92,11Z"/><path class="cls-6" d="M740.18,427.64c.42-.36-1.31-2.91-4.52-4.81s-6.29-2.16-6.41-1.57,2.4,1.73,5.32,3.45S739.76,428.08,740.18,427.64Z"/><path class="cls-6" d="M784.37,447a45,45,0,0,1,3.26-9.2c2.29-5.66,5.62-13.52,9.56-22.53l.31,1.37c-1.28-1-2.76-2.46-4-3.2a5.76,5.76,0,0,0-4.47-.49,12.85,12.85,0,0,0-6.52,4.85,45,45,0,0,0-4.53,6.84c-2.41,4.75-4.35,9.3-6,12.94a85.85,85.85,0,0,1-5.72,11.92c-.32-.08,1.2-4.89,4.12-12.59,1.48-3.81,3.23-8.33,5.61-13.27a45.1,45.1,0,0,1,4.64-7.33,15.11,15.11,0,0,1,7.81-5.73,8.24,8.24,0,0,1,6.26.78,43.93,43.93,0,0,1,4.32,3.49l.7.56-.39.81c-4.06,9-7.67,16.73-10.33,22.22A45.92,45.92,0,0,1,784.37,447Z"/><path class="cls-6" d="M721.77,471.06a13,13,0,0,1,.65-1.81,25.8,25.8,0,0,1,2.93-4.46,66,66,0,0,1,14.53-13l-.34.33c4.87-7.64,5.26-20.34,15.46-29.27a10.08,10.08,0,0,1,8.7-1.58,14.66,14.66,0,0,1,6.95,4.53l.45.5-.16.66c-4.51,11.85-8.49,22-11.42,29.25a20.08,20.08,0,0,1-4.83,7.86c-1.49,1.55-2.45,2.2-2.53,2a15.75,15.75,0,0,1,2-2.62,21.7,21.7,0,0,0,4.06-7.92c2.52-7.34,6.21-17.63,10.56-29.46l.21,1.16a12.82,12.82,0,0,0-5.8-3.7,7.67,7.67,0,0,0-6.68,1.24,18.33,18.33,0,0,0-5.32,6.47,76.08,76.08,0,0,0-3.66,7.55c-1.09,2.55-1.81,5-2.78,7.53a44.23,44.23,0,0,1-3.35,6.8l0,.22-.19.13a75,75,0,0,0-14.69,11.95C723.13,468.78,722,471.2,721.77,471.06Z"/><path class="cls-6" d="M677.24,449.14s1.84,11,15.46,17.68C692.7,466.82,673.65,463.48,677.24,449.14Z"/></g><g id="Layer_12" data-name="Layer 12"><polygon class="cls-33" points="583.16 679 406.08 718.65 347 454.82 522.6 408.52 583.16 679"/><rect class="cls-34" x="374.07" y="431.17" width="187.77" height="277.17" transform="matrix(0.98, -0.22, 0.22, 0.98, -113.19, 116.02)"/><rect class="cls-35" x="370.84" y="450.9" width="18.01" height="277.17" transform="translate(-119.63 97.24) rotate(-12.62)"/><g class="cls-36"><path class="cls-5" d="M450.47,629.86a22.48,22.48,0,0,0-.91,19.64c.59,1.35,1.46,2.76,2.88,3.15a4.37,4.37,0,0,0,1.8,0,5.16,5.16,0,0,0,3-1.27c1.41-1.4,1.33-3.67,1.07-5.64a67.6,67.6,0,0,0-2-9.54,17.2,17.2,0,0,0-2.62-5.91"/><path class="cls-37" d="M413.69,494.91l-1.47,2.32L406.66,506l-8.8-5.58L395.54,499a5.21,5.21,0,0,1,1.65-9.47,5.14,5.14,0,0,1,3.92.68l2.32,1.48,1.47-2.33a5.22,5.22,0,0,1,7.18-1.61h0a5.2,5.2,0,0,1,1.63,7.17Z"/><path class="cls-38" d="M477.61,530.83a99.44,99.44,0,0,1-16.09,5.67c-9.57,2.53-16.16,4.94-22.44,8.41s-10.83,11.32-11.33,17c-.3,3.44,4.43,10.29,11.92,16l-2.42,3.58s16.87,37.52,17.45,48-3.18,35.71-2.05,43.37,11.19,31.62,11.19,31.62,19.09-.16,26.09-1.73a72.43,72.43,0,0,0,12.35-3.94s.3-14.48-1.77-38.14-13.7-77-13.7-77l-1.6-8.46-2,.24C480.64,555.22,477.61,530.83,477.61,530.83Z"/><path class="cls-12" d="M476.22,544.86s8.87-10.75,13.38-14.43,8-2.73,8.38-3.59,12.51,8.86,22.57,22.06,11.94,28.76,12.47,34.33,3.53,20.51,3.53,20.51l20.71,52s-19.62,2.79-34.3,7-28,14.8-28,14.8a354,354,0,0,1-6.62-36.7c-2.27-19-3.6-24.94-3.6-24.94l-8.31-69.72Z"/><path class="cls-5" d="M454.13,491.57s-1.76,9.05-.42,10.58,1.66,4.45.65,7.34-2.82,3.79-1.59,4.85,2.83,2.2,2.83,2.2,6.14,14.09,7.48,15.62,7.41-1.83,8-2.13,4.41,7.84,4.41,7.84l19.8-13.4s-3.3-6.58-3.44-7.2,6.87-13.18,6.66-17.8,1.89-10.91-8.88-18.15-20.58-5.7-27.5-1.66-10.67,9.67-9.71,11S454.13,491.57,454.13,491.57Z"/><path class="cls-39" d="M462.1,479.63c-6.91,4.05-10.63,9.7-9.68,11,.7.95,1.3,1,1.56,1l.15,0s4.5-5.17,5-3.78-2.31,7.49-.37,8,6-2.18,6.34.08-.09,4,1.25,4.05,2.24.33,3.16-2.21,7.66-6.7,8.63,1.39-3.36,8.07-3.36,8.07,6.64,8,12,9.48a10,10,0,0,0,5.18.21c.73-2,6.78-13.2,6.59-17.49-.2-4.62,1.89-10.91-8.89-18.15S469,475.59,462.1,479.63Z"/><path class="cls-40" d="M475.19,507.72s1.68,7.38-1.47,10.41"/><path class="cls-40" d="M455.06,501.68a2.68,2.68,0,0,1,2.35-2.86"/><path class="cls-40" d="M456.28,506.39s1,.11,1.91-1.92"/><path class="cls-5" d="M452,539s10.74,8.17,13,16.58-17.56-1.45-17.56-1.45-10.66-6.4-9.2-8.23C443.6,539.18,452,539,452,539Z"/><path class="cls-5" d="M456.74,543.28c-3.19-4.51-1-6.48-1-6.48a9.27,9.27,0,0,1,1.75-.68c1.4-.44,3.4-.76,3.33-2.91s-2.74-12.45-2.74-12.45a4.53,4.53,0,0,0,1.58-3.83c-.28-2.36-1.88-1.85-4.56-1.92s-4.58-3.87-4.58-3.87.12-2.91-3.86-5.33-8.2-1.35-14.29,5-2.84,7.26.08,12.34,6.59,21.78,6.59,21.78"/><path class="cls-31" d="M459.56,523.32c-.49-.85-.94-1.73-1.36-2.62l-.14.37c1.44-1.16,2.3-3.53,1.42-5.24a2.54,2.54,0,0,0-2.39-1.13c-.59,0-1.18,0-1.76,0a2.81,2.81,0,0,0-.29,0s-.3,0-.07,0,.07,0,0,0a2.27,2.27,0,0,0-.35-.26l-1.95-1.52c-.44-.34-1.82.3-1.2.79l1.54,1.19a8.77,8.77,0,0,0,.75.58,2.7,2.7,0,0,0,1.39.14c.73,0,1.89-.2,2.52.3.78.63.66,2.11.39,2.95a4.12,4.12,0,0,1-1.27,1.86c-.07.06-.19.25-.14.36.46,1,.95,1.91,1.47,2.83.28.48,1.75,0,1.41-.62Z"/><path class="cls-31" d="M454.82,537.42c.62,0,1.59-.94.56-.94-.62,0-1.59.94-.56.94Z"/><path class="cls-40" d="M450.83,514.69s-1,2.39-4.44,2.4"/><path class="cls-40" d="M447.33,509.87a4.28,4.28,0,0,0-3.68,3.5"/><path class="cls-5" d="M467.22,565.72s5-31.26,6.19-34.85,2.39-4.19,2.91-7.81.4-6,2-5.94c1.15,0,2.06,3.3,1.62,5.07s0,2,0,2l6-3.18s6.15,1.45,7.92,1.9,4.14,2.89,4,3.91-2.74,1.12-4.17,1.44-17.57,16.61-17.57,16.61,6.27,42.86,6,45.57-4.09,4.74-6.37,4.92-15.42-2.7-15.42-2.7"/><path class="cls-5" d="M475.74,544.85s6.27,42.86,6,45.57-4.09,4.74-6.37,4.92-15.42-2.7-15.42-2.7"/><path class="cls-31" d="M475,545.05q1.8,12.29,3.5,24.58c.72,5.24,1.44,10.48,2.07,15.74.18,1.5.39,3,.46,4.52.13,2.71-3.05,4.77-5.53,4.93a15.3,15.3,0,0,1-3.23-.36c-1.67-.26-3.34-.58-5-.9q-3.42-.66-6.82-1.41c-.61-.14-1.79.78-.88,1a113.62,113.62,0,0,0,14.62,2.71,8.86,8.86,0,0,0,7.77-3.77c.83-1.33.6-2.68.46-4.15-1.1-11-2.83-21.94-4.39-32.87q-.75-5.2-1.51-10.41c-.09-.65-1.62-.28-1.52.41Z"/><path class="cls-5" d="M472.93,530.85c1.19-3.59,2.39-4.19,2.91-7.8s.41-6,2-5.95c1.15,0,2.06,3.31,1.62,5.08s0,2,0,2l6-3.17s6.15,1.45,7.92,1.89"/><path class="cls-31" d="M473.65,530.92c.88-2.58,2.44-4.84,2.9-7.56.25-1.45.32-2.93.59-4.38.05-.26.15-1.15.44-1.3s0,0,.06,0,.39.45.46.58a6.07,6.07,0,0,1,.67,3.57c-.09.72-.59,1.92,0,2.6s2.27-.44,2.89-.77l4.25-2.23-.77.07c2.64.62,5.28,1.24,7.91,1.89.62.16,1.8-.75.89-1-1.65-.41-3.3-.8-4.95-1.19l-2.36-.56a2.33,2.33,0,0,0-1.28-.1,20.61,20.61,0,0,0-3,1.57l-3.11,1.64h.92c.08,0,0-.24,0-.46a9.7,9.7,0,0,1,.26-1.6,7.08,7.08,0,0,0-.38-3.13,2.85,2.85,0,0,0-1.38-1.87,2.1,2.1,0,0,0-2.06.44,3.61,3.61,0,0,0-.91,2.11c-.24,1.35-.32,2.72-.53,4.07-.43,2.7-2,4.93-2.84,7.48-.28.81,1.24.74,1.44.14Z"/><polyline class="cls-40" points="495.23 523.93 487.51 523.13 481.27 526.75"/><polyline class="cls-40" points="496.48 525.15 488.45 525.97 483.46 529.05"/><polyline class="cls-40" points="485.75 531.1 490.09 527.57 497.36 526.01"/><line class="cls-40" x1="479.98" y1="524.18" x2="476.43" y2="527.1"/><path class="cls-38" d="M443.08,591.93s23.17,11.05,34.05,10c8-.77,4.92-8.81,5.12-11.52.12-1.34-1.36-12.51-2.89-23.46-5,1.31-10.22-2.1-12.53-3-.21,1-.29.66-.29.66"/><path class="cls-31" d="M466.15,564.64c.67,0,1.58-1,.55-1-.66,0-1.57,1-.55,1Z"/><path class="cls-38" d="M443,591.43s23.17,11.05,34,10c8-.76,4.92-8.81,5.12-11.52.12-1.34-1.37-12.51-2.89-23.45"/><path class="cls-31" d="M442.37,591.84a124.15,124.15,0,0,0,24.5,9,39.34,39.34,0,0,0,7.62,1.17c2.36.08,5-.11,6.89-1.72,3.13-2.69,1.55-7.12,1.53-10.62a69.45,69.45,0,0,0-.86-8.26c-.64-5-1.34-10.1-2-15.14-.09-.62-1.61-.26-1.52.41,1,7.21,2.13,14.43,2.8,21.68.12,1.36.1,2.71.27,4.07.23,1.91.53,4-.23,5.86-1,2.38-3.62,2.75-5.93,2.72a34.93,34.93,0,0,1-7.34-1,108.93,108.93,0,0,1-15.54-5.08c-3-1.2-6-2.46-9-3.86-.53-.25-1.89.49-1.19.82Z"/><path class="cls-12" d="M488.46,535.37c-7.83-.91-14.82,7.16-14.93,9.85s8.08,55.9,8.29,57.64,0,3.15.19,4-3.26,1.35-3.24,2.22l-28.5,15.26s.71,12.09,1.47,13.71a27.25,27.25,0,0,0,3.34,4.58s28.83-9.8,34.72-12,15.47-7,16-9.61.76-44.22-.8-52.75"/><path class="cls-31" d="M482,608.16c0,.39-1.66.83-2,1-.51.26-1.14.6-1.23,1.22l.44-.48-24.92,13.35-3.58,1.92a.64.64,0,0,0-.44.61c.16,2.7.36,5.4.62,8.1a46.85,46.85,0,0,0,.61,4.72c.44,2.1,2.26,4,3.65,5.58a.84.84,0,0,0,.82.16q8.56-2.91,17.12-5.86c7.24-2.49,14.68-4.74,21.68-7.87a69.5,69.5,0,0,0,7.58-3.9c1.59-1,3.5-2.07,4.54-3.67.88-1.36.58-3.64.62-5.17.21-8,.2-16.1.11-24.14,0-4.89-.14-9.78-.35-14.67a74.82,74.82,0,0,0-.78-9.8c-.12-.65-1.64-.27-1.52.41a63.42,63.42,0,0,1,.71,8.15c.19,4.12.29,8.25.36,12.37.13,8.36.15,16.72,0,25.08,0,2.18,0,4.41-.22,6.58a4.12,4.12,0,0,1-2,2.6,41.51,41.51,0,0,1-6.82,4c-7,3.44-14.47,5.74-21.79,8.27q-9.74,3.36-19.48,6.67l.82.16c-1.37-1.55-3.14-3.41-3.55-5.5-.31-1.59-.45-3.22-.6-4.83-.25-2.61-.44-5.22-.6-7.84l-.43.61,27.44-14.69a7.22,7.22,0,0,0,1.3-.73c.29-.25.26-.43.66-.63s.88-.36,1.32-.56,1.45-.63,1.46-1.35-1.52-.49-1.53.14Z"/><path class="cls-38" d="M459.18,597.56s-24.1-9.63-28.48-16.7c-8.31-13.45-1.94-23.26-1.94-23.26"/><path class="cls-38" d="M430.54,563.13s2.47-2.24,7.36-.62,27.5,18.63,27.5,18.63l1.14-16.51"/><path class="cls-31" d="M431,563.45c2-1.73,5.38-1,7.49,0a59.56,59.56,0,0,1,6.66,4.07c5.39,3.58,10.64,7.39,15.85,11.23q1.89,1.4,3.77,2.8c.36.27,1.32,0,1.36-.49l1.14-16.51c.05-.76-1.49-.52-1.54.13l-1.14,16.51,1.36-.49q-5.58-4.19-11.26-8.24c-2.89-2.06-5.81-4.1-8.77-6.07a51.52,51.52,0,0,0-6.82-4.06c-2.61-1.18-6.74-1.61-9.1.46-.77.67.45,1.12,1,.64Z"/><path class="cls-38" d="M465.4,581.14a11.27,11.27,0,0,0,1.68,4.3c.79,1.54,3.69,2.64,5.19,3.51"/><path class="cls-31" d="M464.64,581.35a8.94,8.94,0,0,0,1,3,7.69,7.69,0,0,0,1.47,2.28,24.47,24.47,0,0,0,4.48,2.63,1.23,1.23,0,0,0,1-.05c.08,0,.7-.35.43-.5a26.09,26.09,0,0,1-4.4-2.57,6.8,6.8,0,0,1-1.47-2.25,8.42,8.42,0,0,1-.95-2.92c-.05-.38-1.58-.07-1.52.41Z"/><path d="M444.27,502.92c-3.81-3.41-10.93-2.87-15.92-1.76-3.64.81-8.71,3.61-11.06,6.51-2,2.41-2.42,5.71-2.4,8.81a37,37,0,0,0,2.83,14.08c1.51,3.64,3.66,7.52,2.48,11.29-.39,1.25-1.14,2.47-1,3.77.26,1.9,2.35,3,2.89,4.89.5,1.67-.4,3.39-.65,5.12a7.06,7.06,0,0,0,4.28,7.35c2.13-4.25,2.95-5.38,5.08-9.63.91-1.82,3.34-4.21,4.8-5.62a12,12,0,0,0,2.53-2.92c.55-.62,1.72-.95,2-1.71,1.86-4.46-3.61-13.27-5.68-19.3-.95-2.78-2.07-5.71-1.47-8.59.55-2.66,2.47-4.8,4.32-6.79,1.43-1.55,5.14-2.15,6.58-3.7"/><path class="cls-31" d="M445.35,502.07c-4.26-3.66-10.85-3.17-16-2.21a24.31,24.31,0,0,0-7.67,2.88,17,17,0,0,0-6.45,5.72c-1.67,2.84-1.89,6.29-1.75,9.51a37.91,37.91,0,0,0,1.85,10.34c1.11,3.38,3.14,6.57,3.67,10.13a9.06,9.06,0,0,1-.72,4.71,4.83,4.83,0,0,0,.1,4.35c.73,1.27,2.21,2.27,2.42,3.8.26,1.84-.87,3.63-.83,5.47a8.08,8.08,0,0,0,5,7.21,1.79,1.79,0,0,0,2.16-.81c1.11-2.2,2.31-4.36,3.48-6.54.59-1.11,1.11-2.26,1.74-3.35a16.87,16.87,0,0,1,2.41-3c1.35-1.44,3.05-2.71,4.17-4.35.12-.16.2-.35.31-.51s-.18.14.06-.07c.79-.71,1.8-1,2.27-2.06a8.53,8.53,0,0,0,.11-5.29,39.06,39.06,0,0,0-2.33-6.53c-.95-2.19-2-4.34-2.85-6.56-1-2.6-2.27-5.58-2.16-8.42a8.49,8.49,0,0,1,1.83-4.79,13.45,13.45,0,0,1,2.77-3.1c2-1.38,4.45-1.66,6.22-3.41a.91.91,0,0,0-.39-1.46,1.85,1.85,0,0,0-2,.53,8.11,8.11,0,0,1-2.59,1.35A16,16,0,0,0,437,507.2a16.46,16.46,0,0,0-4.68,5.91c-1.27,2.71-1,5.61-.12,8.4a63.89,63.89,0,0,0,2.8,7.35c1,2.23,2,4.44,2.85,6.72a15,15,0,0,1,1.26,6,3.19,3.19,0,0,1-.2,1.14c-.22.44-.62.6-1,.87a4.52,4.52,0,0,0-1.38,1.44c-.15.24.1-.12-.1.15a5.68,5.68,0,0,1-.5.6c-.84.94-1.78,1.78-2.66,2.67a20.34,20.34,0,0,0-5,7c-1.29,2.46-2.66,4.87-3.9,7.35l2.15-.81a6.19,6.19,0,0,1-3.67-6.27c.17-1.5.87-2.92.82-4.45a5.45,5.45,0,0,0-1.41-3.27c-.77-1-1.74-1.89-1.63-3.23s1.06-2.78,1.25-4.26c.39-3-.9-6-2.08-8.69-2.52-5.79-4.22-12.32-3.31-18.68a10.21,10.21,0,0,1,3.93-6.89,21.89,21.89,0,0,1,6.91-3.71,26.76,26.76,0,0,1,8.2-1.12,11.56,11.56,0,0,1,7.63,2.36c1,.87,3.42-.6,2.16-1.7Z"/><path class="cls-5" d="M436.8,526a6,6,0,0,0-3.19-1.47.94.94,0,0,0-.5,0c-.32.14-.4.55-.42.9a10.51,10.51,0,0,0,1.39,5.85c.19.34.58.53.76.87a5.88,5.88,0,0,0,2.49,1.92c.87.08,2.12-1.17,2.72-1.79"/><path class="cls-31" d="M437.39,525.59a6.72,6.72,0,0,0-2.14-1.26,3.6,3.6,0,0,0-2.39-.23,1.76,1.76,0,0,0-1,1.8,11.5,11.5,0,0,0,.26,2.68A11.17,11.17,0,0,0,433,531a3.58,3.58,0,0,0,.6,1,5.09,5.09,0,0,1,.6.72,5.65,5.65,0,0,0,1.34,1.24,5,5,0,0,0,1.27.71c1.46.46,3-1.15,3.85-2.07a.47.47,0,0,0-.2-.77,1,1,0,0,0-1.08.29,8.3,8.3,0,0,1-1.45,1.26s-.44.26-.47.2c.21,0,.26,0,.15,0l-.12-.05a1.67,1.67,0,0,0-.23-.12,6.66,6.66,0,0,1-1.38-1,3.7,3.7,0,0,1-.44-.6c-.19-.26-.48-.44-.66-.7a9.34,9.34,0,0,1-1.37-4.94c0-.23,0-.45,0-.68,0-.05.09-.42.08-.43q-.41.09-.18.12l.15,0a3.75,3.75,0,0,1,.58.13,5.55,5.55,0,0,1,2.13,1.19c.53.46,1.84-.32,1.17-.9Z"/><path class="cls-31" d="M443.94,535.14l2.63,1.26a13.22,13.22,0,0,0,2.54,1,14.49,14.49,0,0,0,5.53,0c.24,0,.83-.17.88-.47s-.46-.27-.64-.24a11.27,11.27,0,0,1-5.07-.07,38.92,38.92,0,0,1-4.64-2.13,1.35,1.35,0,0,0-1.07.16c-.2.12-.47.36-.16.51Z"/><path d="M475.88,498.25a2.24,2.24,0,0,0-2.51-1.6,2.64,2.64,0,0,0-2.1,2.48,9.47,9.47,0,0,0,.05,1.92c0,.33.08.67.15,1a1.09,1.09,0,0,0,.34.8,2.45,2.45,0,0,0,1.57.29,1.46,1.46,0,0,0,1.28-1,2.05,2.05,0,0,0,0-1.81,2.19,2.19,0,0,0-1.53-.7,1,1,0,0,0-.72.19c-.15.13-.13.27.08.3a2,2,0,0,1,1,.38,1.17,1.17,0,0,1,.31,1.11c0,.09-.32,1.19-.4,1.13s.1-.05.1-.05h-.08l-.29-.05c-.2,0-.45-.1-.55-.29a2.29,2.29,0,0,1-.14-.64c0-.23-.08-.47-.11-.71a12.08,12.08,0,0,1-.09-1.47,2.6,2.6,0,0,1,.9-2.29c.31-.19.69,0,.94.22a2.65,2.65,0,0,1,.77,1.12c.12.31,1.12,0,1-.28Z"/><path class="cls-37" d="M526.11,514.8l-.77,1.21-2.92,4.6-4.6-2.92-1.2-.76a2.72,2.72,0,0,1,2.92-4.6h0l1.2.76.77-1.2a2.72,2.72,0,0,1,4.6,2.91Z"/><path class="cls-37" d="M524.72,470.12l-1,1.52-3.68,5.8-5.81-3.68-1.52-1a3.44,3.44,0,0,1,3.68-5.81h0l1.52,1,1-1.52a3.43,3.43,0,1,1,5.8,3.68Z"/><rect class="cls-1" x="353.72" y="459.54" width="258.73" height="144.63" transform="translate(-104.54 118.41) rotate(-12.62)"/></g><path class="cls-37" d="M421,584.81l-1,1.52-3.68,5.8-5.81-3.68-1.52-1a3.44,3.44,0,0,1,3.68-5.81h0l1.52,1,1-1.53a3.44,3.44,0,1,1,5.8,3.69Z"/><path class="cls-37" d="M400.93,527l-.77,1.21-2.92,4.6-4.6-2.92-1.2-.76a2.72,2.72,0,0,1,2.92-4.6h0l1.2.76.77-1.2a2.72,2.72,0,1,1,4.6,2.91Z"/><rect class="cls-41" x="420.87" y="664.11" width="151.47" height="11.41" transform="translate(-134.36 124.7) rotate(-12.62)"/><rect class="cls-41" x="372.56" y="444.37" width="151.47" height="18.22" transform="translate(-88.25 108.91) rotate(-12.62)"/><rect class="cls-41" x="425.15" y="686.22" width="86.87" height="12.56" transform="translate(-139.99 119.12) rotate(-12.62)"/><path class="cls-42" d="M385.16,463.79l.52,4.17a9.16,9.16,0,0,0,.62,3.16c.72,1.37,2.23,1.51,3.59,1.09a6,6,0,0,0,3.41-3.45,21.21,21.21,0,0,0,2-7.23l-1.36.37a8.07,8.07,0,0,0,4,6,1.27,1.27,0,0,0,1.3-.35l4-6.4-1.3.35c1.12,1.13.65,3.06,2.09,4a3.54,3.54,0,0,0,3.17,0c2.28-1,2.19-4.28,4.48-5.09l-.87.07,2.61,2.57a3.91,3.91,0,0,0,2.37,1.41,4.55,4.55,0,0,0,3.59-1.44,7.4,7.4,0,0,0,1.21-1.87c.58-1.18,1.77-3.1,3.33-2.19.71.41,1.18,1.12,2,1.42a3.79,3.79,0,0,0,1.86.17,7,7,0,0,0,4.51-2.49c.6-.74,1.05-1.59,1.61-2.36a2,2,0,0,1,2.58-.91,3.74,3.74,0,0,1,1.17,1.07,4,4,0,0,0,4,1.83,8.66,8.66,0,0,0,4.27-1.86c1.81-1.46,2.63-3.79,4.41-5.28,1.46-1.23,3.12-.35,4.73.1l4.53,1.27c.32.09,1.51-.42,1.11-.53-2.36-.67-4.73-1.47-7.13-2a4.88,4.88,0,0,0-4.15,1c-1.67,1.28-2.5,3.21-3.89,4.74-1.62,1.78-4.39,3-6.19.81-1.06-1.27-2-2.25-3.83-2s-2.7,1.58-3.61,3a7.37,7.37,0,0,1-2.37,2.59c-1.62.92-2.61.33-3.82-.66a3.5,3.5,0,0,0-3.75-.35c-1.73.77-2.22,2.32-3.16,3.8a4.07,4.07,0,0,1-1.25,1.36c-1,.53-1.73,0-2.38-.64-1-1-2-2-3-3-.18-.17-.71,0-.88.07-1.82.64-2.48,2.07-3.36,3.66a3.81,3.81,0,0,1-.76,1.09,1.67,1.67,0,0,1-2.56-.67c-.57-1.06-.41-2.24-1.32-3.15-.25-.25-1.15.1-1.31.35l-4,6.4,1.31-.35a7.86,7.86,0,0,1-3.88-5.92c0-.28-1.32,0-1.36.37a19.83,19.83,0,0,1-1.28,5.42c-.52,1.37-1.19,3.23-2.43,4.11-1.8,1.27-2.79-.67-3-2.12-.29-1.95-.48-3.92-.72-5.88,0-.27-1.4,0-1.36.36Z"/><path class="cls-42" d="M430,683.06c.42.9,1.79,1.36,2.7,1.52a3.28,3.28,0,0,0,2.29-.44c.28-.18.54-.45.83-.61l1.59-.43a3.93,3.93,0,0,1,.66.43,4.58,4.58,0,0,0,1.13.66,3.13,3.13,0,0,0,2.25-.21,6.36,6.36,0,0,0,2.18-2,3.22,3.22,0,0,1,3.7-1,11.15,11.15,0,0,0,1.77.68,5.6,5.6,0,0,0,4.85-1.4c.13-.13-.39-.08-.49,0a4.52,4.52,0,0,1-4.55,1,10.25,10.25,0,0,0-2.26-.78,4.1,4.1,0,0,0-3.6,1.7,9.47,9.47,0,0,1-.88,1,3.23,3.23,0,0,1-.49.41l-2.19.35a2.74,2.74,0,0,1-.7-.41,2.57,2.57,0,0,0-1.72-.72,3.29,3.29,0,0,0-1.52.6,4.05,4.05,0,0,1-3.17.77,2.82,2.82,0,0,1-1.85-1.23c-.07-.16-.59,0-.53.14Z"/><path class="cls-42" d="M462.09,678.24c0-1.87,2.23-1.43,3.29-.9a14.68,14.68,0,0,0,2.14,1.06,3.18,3.18,0,0,0,2.68-.2c.58-.4.79-1,1.2-1.56a2.58,2.58,0,0,1,3.38-.62c1,.51,2,1.37,3.27,1.27a2.84,2.84,0,0,0,2.1-1.45c.34-.52.6-1.08.93-1.6a2.84,2.84,0,0,1,3.28-1.18c1.44.3,2.87,1.07,4.37.65a2.55,2.55,0,0,0,2-2c.07-.36-.65-.29-.71,0-.55,2.89-4.42.76-6.21.63a3.43,3.43,0,0,0-2.78.94c-.9.93-1.19,2.63-2.39,3.22-1.5.73-3-1.11-4.43-1.41a3.44,3.44,0,0,0-2.86.71c-.69.58-.9,1.41-1.69,1.87-1.2.7-2.28-.06-3.38-.63a4.34,4.34,0,0,0-3.17-.74,2.07,2.07,0,0,0-1.7,1.92c0,.38.71.29.71,0Z"/><path class="cls-42" d="M436.43,701.87a3,3,0,0,1,2.66-2.3,16.51,16.51,0,0,0,2.11,0,2.21,2.21,0,0,0,1.28-.76,11.24,11.24,0,0,1,.64-1,1.94,1.94,0,0,1,2.41,0c.92.47,2,1.09,3.05.69,1.57-.58.86-3.09,3-2.74,1.39.23,2.42,1.54,3.93,1.31a1.93,1.93,0,0,0,1.1-.55c.3-.29.48-.81.77-1.06a2.6,2.6,0,0,1,2.52-.34c1.34.48,2.58,1.33,4.05.85s2.3-2.19,3.78-2.14c.34,0,.72-.49.25-.5-1.4-.05-2.19.84-3.25,1.62-2.11,1.54-3.8-.61-6-.59a2.62,2.62,0,0,0-1.37.35c-1.19.74-1.11,2.29-3.09,1.63-1.28-.42-2.45-1.6-3.9-1.06a1.84,1.84,0,0,0-1,.83c-.22.39-.21.88-.43,1.26-.68,1.21-1.8.6-2.55.23-1.14-.58-2.48-1.27-3.6-.26a5.09,5.09,0,0,0-.46.58,2.9,2.9,0,0,1-2.29,1.14,5.19,5.19,0,0,0-2,.2,3.78,3.78,0,0,0-2.38,2.64c-.09.32.62.24.71-.06Z"/><polygon class="cls-43" points="541.09 638.83 546.06 626.4 548.62 639.54 559.94 632.4 554.29 644.54 567.65 645.42 555.95 651.92 566.23 660.48 552.95 658.86 556.23 671.84 546.44 662.71 541.47 675.14 538.9 662 527.58 669.14 533.23 657 519.88 656.12 531.58 649.62 521.29 641.06 534.58 642.68 531.29 629.71 541.09 638.83"/><path class="cls-42" d="M538.61,648.16c0,1,.19,2.68,1.52,2.74,1.52.07,1.84-1.66,2.32-2.72a1.32,1.32,0,0,1,2.32-.59,5.09,5.09,0,0,0,2,.86,3.33,3.33,0,0,0,3.29-1.74c.12-.25-.42-.21-.5,0a2.56,2.56,0,0,1-3.61,1.06c-1-.53-2-1.38-3.13-.65s-1,2-1.62,2.93a.92.92,0,0,1-1.7-.15,4,4,0,0,1-.31-1.77c0-.24-.53-.14-.53.06Z"/><path class="cls-42" d="M539.31,654.58a3.55,3.55,0,0,0,2,1.35,1.81,1.81,0,0,0,1.69-.61c.25-.35.18-.78.35-1.16a1.21,1.21,0,0,1,.63-.61,4.07,4.07,0,0,1,2.05-.14c.22,0,.56-.28.2-.33-1.06-.12-2.64-.13-3.29.89a3,3,0,0,0-.29,1,.87.87,0,0,1-.75.64c-.86.1-1.53-.69-2-1.26-.14-.14-.64,0-.5.22Z"/><path class="cls-5" d="M375.29,741.12l36.39-3.66s18.92,6.82,34.27,4.39a120.8,120.8,0,0,0,31.7-11l35-4.9s16.17,6.46,18.57,1.56-3-8.93-8.29-12.82-92.09-30.43-92.09-30.43a165.31,165.31,0,0,1,25.69-11.54c13.67-4.68,14.9-14.11,10.4-20.6s-24.64,1.94-29.74,8.58-24.14,3.19-37.27,9.83-20.35,25.37-20.35,25.37C357.9,710.58,375.29,741.12,375.29,741.12Z"/></g></svg>