<?xml version="1.0" encoding="utf-8"?>
<!-- Generator: Adobe Illustrator 26.0.1, SVG Export Plug-In . SVG Version: 6.00 Build 0)  -->
<svg version="1.1" id="Layer_1" xmlns="http://www.w3.org/2000/svg" xmlns:xlink="http://www.w3.org/1999/xlink" x="0px" y="0px"
	 viewBox="0 0 1303.2 1057.3" style="enable-background:new 0 0 1303.2 1057.3;" xml:space="preserve">
<style type="text/css">
	.st0{fill:#F2EBD1;}
	.st1{fill:#BB997A;}
	.st2{fill:#28160E;}
	.st3{fill:#2A4E73;}
	.st4{fill:#E19A31;}
	.st5{fill:#A66E53;}
	.st6{fill:#859B7B;}
	.st7{fill:#4F2E25;}
	.st8{fill:#101230;}
	.st9{fill:#0B0D0E;}
	.st10{fill:#535454;}
	.st11{fill:#565353;}
	.st12{fill:#513835;}
	.st13{fill:#745245;}
	.st14{fill:#163F51;}
	.st15{fill:#1A3F1D;}
	.st16{fill:#0C2A35;}
	.st17{fill:#240435;}
	.st18{fill:#A95B26;}
	.st19{fill:#111E43;}
	.st20{fill:#D2CAB2;}
	.st21{fill:#A38166;}
	.st22{fill:#87654D;}
	.st23{fill:#5F6161;}
	.st24{fill:#343535;}
	.st25{fill:none;stroke:#131429;stroke-width:0.93;stroke-miterlimit:10;}
	.st26{fill:#653C2A;}
	.st27{fill:#C95744;}
	.st28{fill:#361B10;}
	.st29{fill:#4C2713;}
	.st30{fill:#543021;}
	.st31{fill:#1D3942;}
	.st32{fill:#47150E;}
	.st33{fill:#B15E27;}
	.st34{fill:#DF8C26;}
	.st35{fill:#CE8D2A;}
	.st36{fill:#13110F;}
	.st37{fill:#231F20;}
	.st38{fill:#010101;}
	.st39{fill:#24180F;}
	.st40{fill:#FFFFFF;}
	.st41{fill:#653C29;}
	.st42{fill:#151210;stroke:#161311;stroke-width:0.33;stroke-miterlimit:10;}
	.st43{fill:#151210;stroke:#161311;stroke-width:0.34;stroke-miterlimit:10;}
	.st44{fill:none;stroke:#161311;stroke-width:0.79;stroke-miterlimit:10;}
	.st45{fill:#140E0C;}
	.st46{fill:#F1EEF7;}
	.st47{fill:#465B65;}
	.st48{fill:url(#SVGID_1_);}
	.st49{fill:#151210;}
</style>
<g id="Layer_11">
	<polyline class="st0" points="-34.2,1058.4 -34.2,-64.1 1388.4,-64.1 1388.4,1058.4 	"/>
	<polyline class="st1" points="1368.9,1072.8 -57.8,1072.8 -57.8,830.8 1368.9,830.8 	"/>
	<polygon class="st2" points="846.2,932.2 804,932.2 812.6,985.2 846.2,985.2 	"/>
	<polygon class="st2" points="90,932.2 47.8,932.2 47.8,985.2 81.4,985.2 	"/>
	<path class="st3" d="M533.8,650.1c16.7,0,42.8,7.3,42.8,27.1v96.3c9.4,8.1,14.9,16.7,15,30.6v56.5c0,11.3-7.7,20.5-17.2,20.5h2.2
		V949H36.1v-65.7c-9.4-3.1-16-13.3-16-24.9v-46.8c0-17.9,7.6-29.7,21.1-37.7l0.8-0.3l1.4-56.1c2.1-42.3,13.5-73.1,37.9-75.5l0,0
		c16.6,0,72.7-0.8,78.3,3.5c1.6-73.6,52-132.3,116.3-132.3l256.9,1c132.8,0,3.3,16.8,3.3,91.7l3.6,15l24.1,13.8
		c4.2-8.1-57.8,15.6-33.2,15.5"/>
	<path class="st3" d="M355.6,650.1c-16.7,0-42.8,7.3-42.8,27.1v96.3c-9.4,8.1-14.9,16.7-15,30.6v56.5c0,11.3,7.7,20.5,17.2,20.5
		h-2.2V949h540.5v-65.7c9.4-3.1,16-13.3,16-24.9v-46.8c0-17.9-7.6-29.7-21.1-37.7l-0.8-0.3l-1.4-56.1c-2.1-42.3-13.5-73.1-37.9-75.4
		l0,0c-16.6,0-72.7-0.8-78.3,3.5c-1.5-73.6-52-132.3-113.7-132.3l-256.9,1c-135.3,0,35.1,59.8,35.1,134.8l0,0v12.4
		c-4.2-8.1-10.9-11.2-35.5-11.2"/>
	<path class="st4" d="M424.8,626.5l72.7-33.3c0,0,4.5,23.3,18.7,28.9c0,0-69.4,62.4-101.2,45.2L424.8,626.5z"/>
	<path class="st5" d="M373.4,880.5c11.7,4,26.2,2.5,37.4-2.1c-4.5,14.5-9.6,38.9-11.6,48.6c0,3.3-1.4,2.3-0.3,2.8
		c15.4,6.2,40.5,31.5,40.5,31.5s-3.6,8.1-15.3,7s-58.7-33.1-58.7-33.1l6.1-7.4L373.4,880.5z"/>
	<path d="M455.9,974.3c0,0,3.3-4.9-0.3-7s-19.2-11-21.4-11c-0.2,1.3,3.5,2.1-1.2,2.4c-8.7,0.7-17.5-0.5-25.7-3.5
		c-8.2-3.1-22.8-9-29.7-14.5c-2.3-1.8-7-7.6-12.3-7c-3.1,3-7.5,17-3.9,20.2s27.4,9.4,27.4,9.4l20.5,8.7l20,4.7l8.5,1.4l8.4-1.2
		L455.9,974.3z"/>
	<path d="M360.6,952.9c2.5,1.3,10.6,4.2,17.9,5.7c19.3,4,25.4,7.5,31.6,10.5c3.6,1.8,7.2,3.4,11,4.7c21.9,7.7,35-0.8,35.6-1
		c0.2,0.3,0.4,0.7,0.4,1.1c-1.6,1-3.3,1.8-5,2.6c-4.7,2-15.2,5.5-32.3-0.1c-3.7-1.1-7.3-2.4-10.9-4c-6.4-3.3-13.2-5.7-20.2-7.4
		l-0.6,3c0,0-20.7-3.2-29.3-8.6C359,954.7,360.6,952.9,360.6,952.9z"/>
	<path d="M359.1,956.7c11.8,5.2,25.2,7.8,29.4,8.7L388,968c0,0-20.7-3.2-29.3-8.6C358.8,958.5,358.9,957.6,359.1,956.7z"/>
	<path class="st4" d="M376.8,538.6c6.9,1.9,16.4,9.7,23,18.9l14.7,38.2c-0.1,0.1,27.3,45.4,27.4,45.5s-4.8,3.9-5.2,16.5
		c-0.3,8.5-15.3,6.7-13.2,15.2c-22.5,2.8-37.4-27.8-43.8-37.7l-0.8-7.2c-2.9-9.7-5.3-19.4-7.4-29.3c-4.5-20.9-28.1-46.1-31.2-67.3
		L376.8,538.6z"/>
	<path class="st6" d="M469.8,526c-3.3,1.4-6.2,3.7-8.3,6.6c-8.1,10.9-11.1,23.3-14.7,36c-2.4,8.3-4.7,16.6-7.1,24.9
		c0.1,0.1-13.6,50.9-19.5,55.6c0,0,5-3.2,7.4,9.2c1.6,8.3,18.4,11.7,17.7,20.3c22.7-0.8,33-37.8,37.7-48.6l-3-10.2
		c1.3-10,2.2-20,2.7-30.1c1.2-21.4,22.2-49.1,21.9-70.5l-18.1,3.1C480.6,523.4,474.8,523.8,469.8,526z"/>
	<path class="st6" d="M433.8,633.1l-77.2,21c0,0,10.9,15.3,3.6,28.6c0,0,97.4,4.3,110.8-29.3L433.8,633.1z"/>
	<path class="st5" d="M440.1,710.4c0,0-9.8,11.1-10.6,12s0.8,3.8,1.5,4.9s3.8,1.1,3.8,1.1l9.4-8.4L440.1,710.4z"/>
	<path class="st5" d="M436.4,701.8c0,0-13.7,15.1-14.2,15.9s1.3,3.2,2.1,4.6s5.6,0.5,5.6,0.5l10.7-9.6L436.4,701.8z"/>
	<path class="st5" d="M457.9,716c1.6-0.3,2.9-4,2.9-4s-0.6-6.3-1.8-7.3l-3.8-2.9c0,0-4.8-3.8-6.3-2.5s1.8,6.3,1.8,6.3l3.5,3.2
		c-0.5,1,0.3,3.6,1.1,6.3C456,715.9,457,716.2,457.9,716z"/>
	<path class="st5" d="M452.9,721.5c1-0.4,3.6-2.6,3.2-4.8c-0.2-1.4-1.9-7.1-3.9-8l-7.9-3.3c0,0-4.8-1.9-5.8-0.4s1,3.7,3,5.8
		c1.6,1.4,3.6,2.5,5.7,3l2.5,6.4C449.7,720.3,451.9,721.9,452.9,721.5z"/>
	<path class="st5" d="M436.7,725.8c0.6,0.5,1.4,0.6,2.2,0.5c1-0.4,3.4-1,2.9-3.8c-0.3-0.6-1.4-0.8-1.9-1.3l-3.7-2.7
		c0,0-2.4-2.4-3.4-0.9s1.4,5.3,1.4,5.3L436.7,725.8z"/>
	<path class="st5" d="M447,723.8c1.5-1.1,1.5-3.6,1.5-3.6s-1.8-6.3-3.5-6.8l-6.5-1.8c0,0-2.5-1-3.4,0.1s3.4,5.4,3.4,5.4l3.1,1.5
		l0.8,4.4C442.4,723.1,445.6,725,447,723.8z"/>
	<path class="st7" d="M455.9,717.8c0.7-1.6,0.8-3.5,0.1-5.2c-0.5-1.8-1.4-3.9-2.9-5c-0.8-0.5-1.8-1-2.7-1.3l-4.4-1.9
		c-2-0.8-4.3-1.9-6.4-1.5c-1.9,0.3-2,1.9-1.1,3.4c1.3,2.2,3.2,4,5.5,5.2c0.8,0.4,1.7,0.7,2.5,1c0.1,0,0.2,0,0.2,0.1c0,0-0.1-0.1,0,0
		c0.1,0.2,0.2,0.5,0.3,0.7l1.6,4c0.1,0.2,0.8-0.1,0.8-0.2l-1.2-3.1c-0.1-0.5-0.3-1.1-0.6-1.5c-0.1-0.2-0.2-0.2-0.5-0.3
		c-1.8-0.5-3.5-1.3-4.9-2.5c-1.1-1-2-2.1-2.8-3.2c-0.5-0.7-1.2-2-0.5-2.9c0.5-0.6,1.9-0.3,2.5-0.1c0.7,0.2,1.4,0.3,2.1,0.6
		c0.6,0.2,1.1,0.5,1.7,0.7c2.2,0.9,4.5,1.7,6.6,2.7c1.8,0.8,2.7,3.1,3.3,4.9s1,3.8,0.1,5.6C455.2,718.1,455.9,718,455.9,717.8
		L455.9,717.8z"/>
	<path class="st7" d="M441.9,724.6c0.3-0.6,0.4-1.3,0.3-1.9c0-0.3-0.1-0.6-0.3-0.9c-0.1-0.1-0.2-0.2-0.3-0.2l-0.8-0.6
		c-1.2-0.9-2.4-1.7-3.5-2.6s-2.2-2-3.5-1.3c-1.6,0.7-0.6,3.1-0.2,4.2c0.5,1.4,1.2,2.8,1.9,4.1c0.1,0.3,0.9,0,0.8-0.2
		c-0.5-1-1-2-1.5-3c-0.4-0.8-0.7-1.6-0.9-2.5c-0.2-0.6-0.3-1.3-0.1-1.9c0.5-1.2,2.2,0.5,2.7,0.9c1,0.8,2,1.5,3,2.2
		c0.5,0.4,1,0.8,1.6,1.2c0,0,0.1,0.1,0.1,0c0.1,0.1,0.1,0.3,0.2,0.4c0.3,0.7,0.2,1.5-0.1,2.1C440.9,724.9,441.7,724.8,441.9,724.6
		L441.9,724.6z"/>
	<path class="st7" d="M448.9,721.3c0.7-1.6,0-3.3-0.9-4.7c-0.1-0.1-0.2-0.2-0.1-0.2c-0.1-0.2-0.2-0.4-0.2-0.6
		c-0.3-0.7-0.7-1.3-1.3-1.8c-0.8-0.6-1.7-1-2.6-1.1l-4-1.1c-0.7-0.2-1.4-0.5-2.2-0.6c-1-0.2-3.1-0.2-3.1,1.3c0.1,1.2,1.2,2.5,2,3.3
		c0.5,0.7,1.1,1.3,1.8,1.8c0.5,0.3,1.2,0.6,1.7,0.9l1,0.5c0.1,0.1,0.2,0.1,0.3,0.1c0.2,0-0.1,0-0.1-0.1c0,0.2,0.1,0.5,0.1,0.7
		l0.2,1.2l0.3,1.6c0.1,0.4,0.9,0.2,0.8-0.2l-0.6-3c-0.1-0.3,0-0.5-0.3-0.7c-0.4-0.2-0.9-0.5-1.3-0.7c-0.5-0.3-1-0.5-1.6-0.8
		c-0.2-0.1-0.1-0.1-0.1,0l-0.2-0.2c-0.9-0.9-1.6-1.8-2.4-2.7c-0.4-0.5-0.7-1-0.8-1.6c-0.1-0.7,0.6-0.9,1.2-0.9
		c0.8,0.1,1.5,0.3,2.2,0.5c2,0.6,4,1.1,6,1.7c1.4,0.4,1.9,1.8,2.5,3c0.7,1.4,1.7,2.9,1,4.5c-0.2,0.4,0.6,0.4,0.8,0.1L448.9,721.3z"
		/>
	<path class="st5" d="M331.5,490c0,0,8.4,15.7,1.5,29.2c-1,1.9-11.1,5.2-13.3,5.5c0.5-0.1,7.4,6,7.8,6.3c5.9,5.6,2.7,17.7,11.2,20.4
		c9,2.9,22.2,8.5,31.6,7c6.5-1.1,8.6-11.9,14.3-14.9c0,0-8.9-8.9-9.1-11.4s4.3-21.9,4.3-21.9"/>
	<path class="st7" d="M468.9,715.8c-1.5,2-3.8,4.6-5.8,8c-0.6,0.8-1,1.8-1.2,2.8c0.1,0.9,0.3,1.8,0.6,2.7c0.4,1.5,1.2,2.9,2.3,4
		c0.8,0.6,1.6,1.2,2.5,1.7c0.3,0.2,0.7,0.4,1,0.5c-0.2-0.3-0.5-0.6-0.7-0.8c-0.8-0.6-1.5-1.2-2.2-1.9c-0.9-1.1-1.6-2.4-2-3.8
		c-0.3-0.8-0.4-1.5-0.5-2.3c0.2-0.8,0.6-1.6,1.1-2.3c2-3.2,4.2-5.9,5.5-8.1c0.8-1.1,1.4-2.4,1.8-3.7
		C470.4,713.6,469.6,714.7,468.9,715.8z"/>
	<path class="st7" d="M413.5,733.7c-0.9-0.5-1.6-1.2-2.1-2.1c-0.5-1.1-0.4-2.3,0.2-3.3c0.7-1.1,1.5-2.1,2.5-2.9l2.4-2.3
		c0.6-0.6,1.1-1.2,1.5-1.5c0.2-0.2,0.4-0.3,0.6-0.4c0-0.1-0.3-0.2-0.9,0c-0.6,0.4-1.2,0.8-1.8,1.3l-2.5,2.1
		c-1.1,0.8-2.1,1.9-2.8,3.1c-0.8,1.3-0.8,2.9-0.2,4.3c0.6,1,1.5,1.8,2.6,2.3c0.9,0.5,2,0.7,3,0.7C416.1,735,414.9,734.7,413.5,733.7
		z"/>
	<path class="st8" d="M805.2,874.4c-12.5-0.4-25-0.5-37.5-0.6c-21.6-0.2-43.2-0.4-64.8-0.4c-28.5-0.1-56.9-0.2-85.4-0.3
		c-32.9-0.1-65.7-0.1-98.6-0.1c-34.9,0-69.8,0-104.6,0c-34.5,0-69,0-103.5,0l-95.1,0.1l-79.5,0.1l-56.5,0.1c-8.9,0-17.9-0.3-26.8,0
		h-1.1c-1.4,0-2,1.8-0.2,1.8h18.3l50.1-0.1l74.3-0.1l91.5-0.1c34,0,68,0,102,0c35,0,70,0,105,0c33.5,0,66.9,0,100.4,0.1
		c29.7,0,59.4,0.1,89.1,0.2c23.6,0.1,47.2,0.2,70.8,0.4c15,0.1,30,0.2,44.9,0.6c2,0,4.1,0.1,6.1,0.2
		C805.4,876.2,806.8,874.5,805.2,874.4L805.2,874.4z"/>
	<path class="st8" d="M771,650.7c-15.9-0.6-27,14.2-31.2,27.9c-2.7,8.9-3.4,18.3-3.7,27.5c-0.3,9.8-0.2,19.7-0.3,29.5l-0.3,34.3
		c0,1.2,3,0.6,3-0.4c0.2-19.3,0.3-38.5,0.5-57.8c0.2-16.5,0.8-35,11.4-48.6c4.7-6,11.5-11.1,19.5-10.8c0.6,0,1.7-0.2,2-0.8
		s-0.2-0.9-0.8-0.9L771,650.7z"/>
	<path class="st8" d="M732,643.8c-1.7,1.7-3,3.6-4.1,5.7c-1.6,2.8-3,5.8-4.3,8.8c-2.8,6.2-5.2,12.5-7.3,19c-2.7,8.4-4.7,17.1-6,25.8
		c-1.7,10.8-2.8,21.8-3.3,32.7c-0.7,12.3-0.9,24.5-1,36.8c0,0.8,2.9,0.2,3-0.8c0.3-21.7,0.7-43.5,3.7-65c1.2-9.5,3.2-18.8,5.9-28
		c1.9-6,4.1-11.9,6.6-17.7c1.5-3.5,3-7,4.8-10.3c1.2-2.3,2.5-4.9,4.5-6.7C735.6,643,732.7,643.2,732,643.8L732,643.8z"/>
	<path class="st8" d="M109.7,644.9c7.1-0.2,14.6,0.4,21.3,3c3.1,1.1,5.8,2.9,8,5.3c2.6,3.2,4,7.8,4.8,11.8c1.7,8,1.6,16.4,1.9,24.6
		l0.8,26.7l0.9,30.6l0.3,11.3l0.1,3.7c0,0.6,0,1.3,0.1,1.9c0,0.1,0,0.2,0,0.3c0,0.6,2.8,0.1,2.8-0.8l-0.4-14.3l-0.9-30.5l-0.8-28.1
		c-0.2-7.4-0.2-14.9-1.2-22.3c-0.5-4.6-1.9-9.1-3.9-13.3c-1.5-2.9-3.8-5.2-6.7-6.7c-6.3-3.4-13.8-4.5-20.8-4.7c-1.7-0.1-3.3-0.1-5,0
		c-0.5,0-1.6,0.2-1.8,0.7S109.3,644.9,109.7,644.9L109.7,644.9z"/>
	<path class="st8" d="M159.4,646.9c5.6,7.5,11.3,15.1,14.3,24c2.8,8.5,3,17.6,3.3,26.4c0.5,14.7,0.8,29.5,1.1,44.2
		c0.1,7.5,0.3,15.1,0.5,22.6c0,0.5,2.8,0.1,2.8-0.8c-0.3-14.5-0.6-28.9-0.9-43.4c-0.2-7.1-0.3-14.3-0.6-21.4
		c-0.3-8.6-0.4-17.4-2.6-25.8c-2.7-10.2-9.1-18.7-15.3-26.9C161.6,645.3,158.9,646.2,159.4,646.9L159.4,646.9z"/>
	<path class="st8" d="M841.2,775.4l-9.9-0.1l-25.6-0.2l-34.8-0.2c-12.7,0-25.4-0.1-38.2-0.1c-11.6,0-23.3,0-34.9,0.1
		c-8.6,0-17.1,0.1-25.7,0.3c-7.1,0.2-14.2,0.6-21.2,0.8c-12.5,0.4-25,0.7-37.5,1c-12.8,0.3-25.6,0.6-38.4,0.9l-22.2,0.5h-1.1
		c-0.5,0-1.6,0.2-1.8,0.7s0.2,0.7,0.7,0.7l15.8-0.3c12-0.2,24-0.5,36-0.8c13.1-0.3,26.2-0.6,39.2-1c8.4-0.3,16.9-0.7,25.3-1
		c7.5-0.3,14.9-0.3,22.4-0.4c11.1-0.1,22.2-0.1,33.3-0.1c12.7,0,25.3,0,38,0l36.2,0.2l28.5,0.2l14.3,0.1h0.6c0.5,0,1.6-0.2,1.8-0.7
		s-0.2-0.7-0.7-0.7L841.2,775.4z"/>
	<path class="st8" d="M50.5,774l12.3-0.1l33.7-0.3l50-0.5l61.3-0.5l67.7-0.5c23-0.2,46-0.4,69-0.5c21.8-0.2,43.6-0.3,65.3-0.4
		c18.9-0.1,37.8-0.2,56.7-0.3c14.3-0.1,28.7-0.1,43-0.1c4.9,0,9.9,0,14.8,0h5.5c1.3,0,2.8,0,3.8,0.1s1.7,0,2.5,0.1
		c1.3,0.1,2.8-1.9,1-2c-6.3-0.3-12.7-0.2-19.1-0.2c-12.9,0-25.8,0-38.7,0c-17.9,0.1-35.9,0.1-53.9,0.2l-63.6,0.4l-68.6,0.5
		c-22.8,0.2-45.7,0.3-68.5,0.5l-63.6,0.5l-53.5,0.5l-38.1,0.3c-6,0.1-12,0-18,0.2h-0.8c-1.6,0-2.1,2-0.2,2L50.5,774z"/>
	<path class="st9" d="M486.5,536c-5.1,8-10.7,13.5-10.4,13.8c1.4-1,2.7-2.1,3.8-3.5c2.8-3,5.4-6.3,7.6-9.7c2.2-3.5,0.9-6.9,2.5-10.7
		c0.7-1.5-1-1.9-0.7-3.6C488.9,522.1,491.7,528,486.5,536z"/>
	<polygon class="st5" points="491.8,949 459.9,947 460.9,929 492.8,931 	"/>
	<path d="M509.7,962.5c0,0,5.6,5.8,4.5,9.3s-15.8,6.6-19.6,7.7s-53.2,15.2-58.2,16.1s-32.2,3.8-37-1.6c0,0-8.1-9.1,0.3-14.1
		s15.4-4.8,23.1-10.5c8.9-6.7,16.6-15.1,22.5-24.6c0,0,7-8.8,11.1-8.3s9.8,7.6,13.3,8.9s19.1,1.2,21.8-7.2s4.3-5.6,7.4-5
		s10.3,13.4,10.2,20S509.7,962.5,509.7,962.5z"/>
	<path class="st10" d="M509.7,962.5c0,0-22.2,6-31.4,11.1s-34.2,15-47.7,17.3s-33.3-0.1-33.3-0.1s-0.9,2.4,5.6,5.1
		s25.2,2.2,40.8-2.1s38.5-10.3,43.4-11.3s25-5.9,27-10.2C515.7,968.5,509.7,962.5,509.7,962.5z"/>
	<path class="st11" d="M479.2,973.5c0-4.3,0.7-8.5,2.1-12.6c1-3.4,2.9-6.4,5.5-8.8c1.9-1.5,3.9-2.8,6.1-3.8c2-1.1,4.1-2,6.3-2.9
		c1.5-0.6,3-1.1,4.6-1.6c0.4-0.1,0.9-0.2,1.3-0.3c0.1,0,0.8-0.2,0.3-0.1c0.4-0.1,1-0.2,1-0.7s-0.5-0.6-0.8-0.5
		c-1.9,0.4-3.8,0.9-5.5,1.6c-4.6,1.6-9,3.8-13.1,6.5c-5.7,4-8.2,11.3-9.1,17.9c-0.3,1.8-0.4,3.6-0.4,5.5
		C477.3,974.5,479.2,974.2,479.2,973.5L479.2,973.5z"/>
	<path class="st11" d="M470.5,946.2c-3,2.3-6.4,4.1-10,5.3c-4.3,1.6-9.2,2.5-12.4,6c-1.3,1.6-2.5,3.2-3.5,5c-1.2,2-2.7,3.7-4.5,5.3
		c-1.9,1.8-4.2,3.1-6.7,3.8c-3.1,0.9-6.2,0.7-9.4,0.6l-6.4-0.2c-0.8,0-1.9,1.2-0.7,1.2l5,0.2c3.1,0.3,6.3,0.3,9.4-0.1
		c2.6-0.4,5.1-1.4,7.4-2.8c4.1-2.6,6.6-6.5,9.2-10.4c1-1.6,2.4-3,4-4.1c2.3-1.2,4.8-2.2,7.3-2.8c4.5-1.3,8.8-3.5,12.6-6.3
		C472.7,946.2,471.1,945.7,470.5,946.2z"/>
	<path class="st11" d="M401.8,978.5c0.2,1,0.8,1.8,1.7,2.3c2.2,1.3,5.1,0.5,7.5,0.1c5.6-0.9,12.9-2.1,17.4,2.2
		c2.1,1.9,3.9,4,5.5,6.3c0.4,0.6,2.2-0.1,1.7-0.8c-1.3-1.8-2.7-3.5-4.2-5c-2.1-2.1-4.1-3.7-7.1-4.2c-2.9-0.5-5.9-0.5-8.9-0.1
		c-1.5,0.1-2.9,0.3-4.4,0.6c-1.4,0.3-2.9,0.5-4.3,0.5c-1.3-0.1-2.9-0.8-3-2.3C403.6,977.4,401.8,977.8,401.8,978.5L401.8,978.5z"/>
	<path class="st0" d="M453.5,947L453.5,947c0.3-0.5-0.1-1.3-0.9-1.7l-5.8-3.2c-0.8-0.4-1.7-0.4-2,0.1v0.1c-0.3,0.5,0.1,1.2,0.9,1.7
		l5.8,3.2C452.2,947.5,453.2,947.5,453.5,947z"/>
	<path class="st0" d="M448.1,951l0.1-0.2c0.2-0.3-0.2-1-0.9-1.3l-4.3-2.4c-0.7-0.4-1.5-0.5-1.7-0.1l-0.1,0.2c-0.2,0.3,0.2,1,0.9,1.3
		l4.3,2.4C447.1,951.3,447.9,951.4,448.1,951z"/>
	<path class="st0" d="M443.7,954.8l0.2-0.3c0.2-0.3-0.2-0.8-0.8-1.2l-3.1-1.7c-0.6-0.4-1.3-0.4-1.5-0.1l-0.2,0.3
		c-0.2,0.3,0.2,0.8,0.8,1.2l3.1,1.7C442.8,955,443.5,955.1,443.7,954.8z"/>
	<path class="st0" d="M440.3,958.5l0.2-0.4c0.2-0.4-0.1-1-0.8-1.3l-3.1-1.7c-0.6-0.4-1.4-0.3-1.6,0l-0.2,0.4c-0.2,0.4,0.1,1,0.8,1.3
		l3.1,1.7C439.4,958.9,440.1,958.9,440.3,958.5z"/>
	<path class="st5" d="M470.4,454.5c0,0,21.1,42.5,20.6,52.6c-0.1,2.5-15.8,22.5-15.8,22.5l66.6-3.3l31-24.3c0,0-33.8-10.4-34.8-13.1
		c-4.9-12.3-7.2-25.5-6.7-38.8"/>
	<path class="st6" d="M482.3,696.6c0.8-18.2-10.6-64.3-13.6-83.6c-3.2-21.2-4.7-42.7-4.4-64.2l-2.6-7.8c-2.2-5.6-0.5-8.8,4.2-13.9
		c2.5-1.5,9.4-7.8,12.7-10.2c3.1-2.3,8.7-6.7,12.1-8.6c-1.1,14.3,13,19.6,26.8,13.8c17-7.2,21.5-15,27.5-29.1l31.9,10
		c0.9,0.2,13.6,9.2,14.4,9.4c5,1.5,19.4,110.8,19.4,110.8l12.9,37.8c17.2,48.3,8.4,76.3-8.5,96.4c0,0-92-32.8-103.3-32
		c-13.1,0.9-6-10.3-9.6-16C500.8,707.4,480.7,734.2,482.3,696.6z"/>
	
		<rect x="418" y="947.8" transform="matrix(0.1862 -0.9825 0.9825 0.1862 -600.0109 1207.7163)" class="st5" width="22" height="36.6"/>
	<path class="st12" d="M530.8,619.6h0.1v-0.3L530.8,619.6z"/>
	<path class="st13" d="M496.1,582.7h0.2H496.1C496.1,582.6,496.1,582.6,496.1,582.7z"/>
	<path class="st13" d="M518.7,584.9l-0.2-0.1v0.1L518.7,584.9z"/>
	<path class="st14" d="M396.7,761.3c9.3,39.5,29.9,134.1,47.4,172.8c0,0,56.3,6.2,58.6-5.7c0,0-15.1-57.9-18.8-82
		c-2.5-16.8,0.5-66.2-28.8-76.2c-47.9-16.3,96.1-74.9,86.7-76.5c-33-5.8-105.2,3.5-125.1,12.1C400.7,712.7,388.8,727.9,396.7,761.3z
		"/>
	<path class="st15" d="M460.3,570.4c1.7,9.7,3.1,19.5,4.6,29.3c1.8,11.7,3.6,23.3,5.9,34.9c0.9,4.9,1.9,9.7,3.3,14.5
		c0.2,0.5,1.3,0.2,1.1-0.3c-2.7-9.5-4.3-19.3-5.9-29c-2-11.7-3.7-23.3-5.5-35c-0.8-4.9-1.5-9.8-2.4-14.7
		C461.3,569.5,460.2,569.8,460.3,570.4L460.3,570.4z"/>
	<path class="st12" d="M428,639.5C428,639.6,428,639.6,428,639.5l-0.3-0.1L428,639.5z"/>
	<path class="st16" d="M467.1,934c1.8-8.2,3.7-16.3,5.6-24.5c2.7-11.6,5.6-23.1,9.1-34.5c1.8-5.8,3.6-11.5,5.5-17.3
		c0.2-0.5-2.4-0.2-2.6,0.5c-3.5,10.7-7.1,21.4-9.9,32.3c-3,11.5-5.6,23-8.2,34.6c-0.7,3.1-1.4,6.2-2.1,9.3
		C464.3,935,466.9,934.7,467.1,934L467.1,934z"/>
	<path class="st7" d="M395.9,744.6c0.8-0.5,1.5-1.2,1.9-2c0.4-1,0.4-2.2-0.2-3.1c-0.6-1-1.4-1.9-2.3-2.7l-2.2-2.1
		c-0.5-0.5-1-1.1-1.4-1.4s-0.5-0.3-0.6-0.4s0.3-0.2,0.8,0c0.6,0.4,1.2,0.8,1.7,1.2l2.3,2c1,0.8,1.9,1.8,2.6,2.9
		c0.7,1.2,0.8,2.7,0.2,4c-0.6,1-1.4,1.7-2.4,2.2c-0.9,0.4-1.8,0.7-2.8,0.7C393.5,745.8,394.5,745.5,395.9,744.6z"/>
	<path class="st4" d="M327,521c5.3,13.2,11.1,26.1,26.9,33.1c13.1,5.8,24.9-5.4,23.1-19.7c-0.1-0.6,0,0-0.1-0.3
		c1.8,1,6.2,6.2,7.9,7.4s6.5,6.4,8.1,7.9c5.8,5.3,7.2,8.9,7.8,11.2l4.9,20.7c0,0-2.8-2.5-8.3,29.4c-1.6,9.2-4.6,23.4-9.9,36.4
		c-0.8,1.9-4.6,1.2-5.4,3.2c-4.1,11-7.2,22.9-6.5,35.2c2,35-1.5,51.1-2.7,53c-3.5,5.2-2.1,7.8-14.4,6.8
		c-10.5-0.9-101.8,22.8-101.8,22.8c-15.4-19.1-36.7-37.1-4.8-90.3l16-29.4c0,0,17.1-112.1,21.7-113.4c0.7-0.2,14.4-6.7,15.2-6.9
		L327,521z"/>
	<path class="st17" d="M372.7,717.6c0.6,0,1.4-0.9,0.5-0.9C372.6,716.7,371.8,717.6,372.7,717.6z"/>
	<path class="st18" d="M400,582c-0.4,1.1-0.6,2.2-0.7,3.3c-0.6,4.9-0.8,9.8-0.8,14.7c-0.1,5.8,0.3,11.6,0.5,17.5
		c0.2,5.3,0.3,10.7-1.3,15.8c-1.9,6.1-6.4,11.1-12.4,13.6c-0.8,0.4,0.5,0.3,0.8,0.2c5.1-2.2,9.4-5.8,11.8-10.9
		c2.2-4.7,2.6-10.1,2.6-15.2c0-5.3-0.6-10.7-0.7-16c-0.1-6,0.1-12.1,0.6-18.1c0.1-1.7,0.3-3.4,0.9-5
		C401.4,581.6,400.2,581.7,400,582L400,582z"/>
	<path class="st5" d="M339.3,890.5c11.5,4.6,26.1,3.8,37.4-0.2c-5.2,14.2-11.5,38.4-14,47.9c-0.2,3.3-1.5,2.3-0.5,2.7
		c4.4,2.3,8.6,5,12.4,8.2c13.1,10.4,26.5,25.3,26.5,25.3s-4,7.9-15.7,6.3s-56.9-36.1-56.9-36.1l6.4-7.1L339.3,890.5z"/>
	<path d="M416.9,988.3c0,0,3.5-4.7,0-7s-18.6-11.9-20.8-12.1c-0.3,1.3,3.4,2.2-1.3,2.3c-8.7,0.3-17.4-1.4-25.5-4.8
		c-8-3.5-22.3-10.2-28.9-16c-2.2-2-6.6-8-11.9-7.6c-3.3,2.8-8.4,16.6-4.9,20s27,10.8,27,10.8l20,9.7l19.8,5.7l8.5,1.9l8.5-0.8
		L416.9,988.3z"/>
	<path d="M322.8,962.1c2.4,1.4,10.4,4.7,17.5,6.6c19.1,5,25,8.8,31,12.1c3.5,2,7,3.8,10.7,5.3c21.5,8.8,35,1,35.6,0.8
		c0.2,0.3,0.4,0.7,0.4,1.1c-1.7,0.9-3.4,1.7-5.2,2.3c-4.8,1.8-15.5,4.8-32.3-1.8c-3.6-1.3-7.2-2.8-10.6-4.6
		c-6.2-3.6-12.9-6.4-19.8-8.4l-0.7,2.9c0,0-20.5-4.2-28.8-10C321.2,963.8,322.8,962.1,322.8,962.1z"/>
	<path d="M321.1,965.8c11.5,5.8,24.8,9.1,29,10.1l-0.6,2.6c0,0-20.5-4.2-28.8-10C320.8,967.6,320.9,966.7,321.1,965.8z"/>
	<path class="st19" d="M361.4,893.4c3.8-15.6,7.7-33.1,9.3-43.7c2.4-15.7-0.4-61.8,26.9-71.1c44.7-15.2-130.6-74.5-121.9-76
		c30.8-5.4,123.8-3.1,142.3,4.9c14.9,6.5,41.4,31.6,34,62.8c-6.5,27.8-19.1,84.8-31.9,126.7C400.5,896.8,380.7,896.1,361.4,893.4z"
		/>
	<path class="st19" d="M381.7,787.6c1.6-2.4,5.2,16,7,13.8c4.1-5.1,8.5-9.9,13.4-14.3c4.9-4.5,10.2-8.7,15.9-12.4
		c3.8-2.5,0.6-39.8,4.7-41.9c-18.8-55.6-141.5-36.8-141.5-36.8s-44.3-2.7-50.2,36.4c-7.8,51.8,59.5,57.3,127,46
		C358.2,778.5,381.5,787.6,381.7,787.6z"/>
	<path class="st7" d="M374.3,947.4c-1.5-1.3-3-2.6-4.5-3.8c-1.9-1.5-4.1-3.5-6.5-4l0.4,0.4l8.8-30.6l1.2-4.3
		c0.2-0.7-1.6-0.4-1.8,0.2l-8.8,30.6l-1.2,4.3c-0.1,0.2,0.2,0.4,0.4,0.4c2.3,0.5,4.6,2.6,6.4,4.1c1.4,1.1,2.8,2.3,4.1,3.5
		C373.1,948.5,374.8,947.8,374.3,947.4L374.3,947.4z"/>
	<path class="st19" d="M452.1,749.2c0,0,3.7,22.5-2.6,57.7s-17.8,104-17.8,104s-21.6,9.4-37.9,3.4s-23.7-11.5-33.4-7.5
		s-26.6,5.2-34.7,1.7l-12.1-4.6l24.7-127.9L452.1,749.2z"/>
	<path class="st12" d="M330.2,644.4h-0.1v-0.3L330.2,644.4z"/>
	<path d="M453,999.8c0,0,3.8,7.2,1.8,10.2s-17,2-21,2s-55.4-0.1-60.4-0.6s-32-5.2-35.1-11.8c0,0-5.3-11,4.2-13.5s16.1-0.3,25.1-3.7
		c10.5-4,20.1-9.9,28.4-17.5c0,0,9.2-6.5,13-4.9s7.3,10,10.3,12.3s18,6.5,22.9-0.8s5.7-4.2,8.5-2.7s6.2,15.8,4.2,22
		S453,999.8,453,999.8z"/>
	<path class="st10" d="M453,999.8c0,0-23-0.4-33.3,1.9s-37,5-50.6,3.4s-32-9.3-32-9.3s-1.5,2,3.9,6.5s23.6,9.1,39.8,9.3
		s39.9,0.8,44.8,1.1s25.6,1.3,28.8-2.3C457.2,1007.3,453,999.8,453,999.8z"/>
	<path class="st11" d="M420.7,1001.6c1.1-4,2.9-7.8,5.3-11.3c1.9-3,4.5-5.4,7.6-7.1c2.2-1,4.5-1.6,6.9-2c2.2-0.4,4.5-0.8,6.7-1
		c2.2-0.3,4.3-0.3,6.5-0.1c0.4,0,2.1-0.7,1.2-0.8c-2-0.2-3.9-0.2-5.9,0c-4.9,0.3-9.8,1.2-14.5,2.7c-6.7,2.3-11.1,8.5-13.8,14.7
		c-0.8,1.7-1.4,3.4-1.9,5.2C418.8,1002.3,420.6,1002.1,420.7,1001.6L420.7,1001.6z"/>
	<path class="st11" d="M420,973.4c-3.5,1.3-7.1,2.1-10.8,2.3c-4.5,0.3-9.4-0.2-13.5,2.1c-1.7,1.1-3.3,2.3-4.7,3.7
		c-1.8,1.7-3.9,3.1-6.1,4.2c-2.6,1.3-5.4,1.9-8.3,1.8c-3.2-0.1-6.3-1.3-9.3-2.3l-5.4-1.8c-0.8-0.3-2.2,0.9-1.1,1.2l4.2,1.4
		c2.9,1.1,5.9,2,8.9,2.6c2.9,0.4,5.8,0.2,8.6-0.6c2.5-0.8,4.9-2,7-3.5c2-1.4,3.6-3.1,5.5-4.6c3.7-2.9,8-2.7,12.5-2.9
		c4.6-0.1,9.1-1,13.4-2.6C422,974,421,973,420,973.4L420,973.4z"/>
	<path class="st11" d="M345,985.5c-0.7,4.1,5.7,4.3,8.2,4.6c5.5,0.7,12.7,1.7,15.8,6.8c1.5,2.4,2.8,5.1,3.7,7.8c0.1,0.5,2,0,1.9-0.5
		c-0.7-2.1-1.7-4.2-2.8-6.2c-0.7-1.4-1.5-2.6-2.6-3.8c-1-0.9-2.1-1.6-3.2-2.1c-2.6-1.2-5.4-2-8.2-2.4c-1.4-0.2-2.8-0.4-4.1-0.6
		c-1.5-0.1-3-0.3-4.4-0.8c-1.3-0.5-2.7-1.8-2.4-3.3C347,984.7,345.1,985,345,985.5L345,985.5z"/>
	<path class="st0" d="M403.3,969.4L403.3,969.4c0.5-0.4,0.3-1.2-0.3-1.8l-4.7-4.6c-0.6-0.6-1.5-0.8-2-0.5l-0.1,0
		c-0.4,0.4-0.2,1.2,0.4,1.8l4.7,4.6C402,969.6,402.9,969.8,403.3,969.4z"/>
	<path class="st0" d="M397.1,971.8l0.2-0.1c0.3-0.3,0.1-1-0.5-1.5l-3.5-3.5c-0.6-0.6-1.3-0.8-1.6-0.6l-0.2,0.1
		c-0.3,0.3-0.1,1,0.5,1.5l3.5,3.5C396,971.8,396.8,972,397.1,971.8z"/>
	<path class="st0" d="M391.8,974.1l0.3-0.2c0.3-0.2,0.1-0.9-0.4-1.4l-2.5-2.5c-0.5-0.5-1.2-0.8-1.5-0.5l-0.3,0.2
		c-0.3,0.2-0.1,0.9,0.4,1.4l2.5,2.5C390.9,974.2,391.5,974.4,391.8,974.1z"/>
	<path class="st0" d="M387.5,976.8l0.3-0.3c0.3-0.3,0.2-0.9-0.4-1.5l-2.5-2.5c-0.5-0.5-1.2-0.7-1.5-0.4l-0.3,0.3
		c-0.3,0.3-0.2,1,0.4,1.5l2.5,2.5C386.5,976.9,387.2,977.1,387.5,976.8z"/>
	<path class="st14" d="M474.2,772.5c-1.4-2.8-7.7,16.4-9.3,13.7c-3.7-6-7.8-11.6-12.4-16.9c-4.7-5.5-9.8-10.6-15.2-15.3
		c-3.7-3.2-7.6-6.1-11.7-8.8c27.6-69.2,166.4-54.1,166.4-54.1s38.5-1,39.6,41.4c1.6,56.2-81,46.6-131.3,47.4
		C500.2,779.9,474.5,772.5,474.2,772.5z"/>
	<path class="st14" d="M425.7,745.3c0,0,26.4-14,35.2-9c0.2-2.8,0.6-5.6,1.4-8.3c1.4-0.6,2.8-1.1,4.3-1.7c4.4,4.1,8.5,8.6,12.2,13.4
		c4.4,5.6,8.3,11.5,11.7,17.7c3.4,6,6.2,12.3,8.5,18.8c0.7,1.8,1.3,3.7,1.8,5.6l-0.5-0.1c7.1,28.9-15.9,72.2-26.4,117.1
		c-9.2,39.5-10.4,44.4-13.8,65.8c-9,7.6-58-13-58-13C411.9,889.3,425.7,745.3,425.7,745.3z"/>
	<path class="st16" d="M503.6,699.2c-9.5,3.6-19.5,6.2-29.2,9.4c-5.2,1.7-10.5,3.5-15.5,5.7c-2.1,0.9-4.1,1.8-6.1,2.9
		c-2.3,1.2-4.4,2.8-6.6,4.1c-1.8,1-3.8,1.8-5.6,2.7c-1.9,1.1-3.6,2.6-5,4.3c-0.4,0.5,0.4,0.7,0.7,0.8c0.7,0,1.3-0.2,1.8-0.7
		c1.2-1.4,2.6-2.6,4.1-3.5c1.5-0.8,3.1-1.4,4.6-2.2c2.4-1.2,4.5-2.8,6.8-4.2c1.8-1,3.7-2,5.6-2.8c10.1-4.3,20.7-7.4,31.2-10.6
		c4.8-1.5,9.7-2.9,14.4-4.7c0.4-0.2,1-0.6,0.7-1S504,699,503.6,699.2L503.6,699.2z"/>
	<path class="st6" d="M526.5,641.7l0.4,4.5c-0.2,0.3-0.6,0.3-0.9,0.2c-2.8-1.7-5.1,2.5-7.8,0.5l-58.6,20.2l3.6,33.9
		c0,0,61.8-12.8,76.9-17.6c0.9-0.3,10.2-3.7,11-4c6.6-2.3,11.8-10.8,14.7-18.4C558.2,647.7,542.1,643.2,526.5,641.7z"/>
	<path class="st5" d="M461,672.6l1.2,11.7l1.4,11.7c0,0-19.2,3.8-23.7,2.8s-15.6-3.5-15.6-3.5c0.5,1.4,0.5,3,0,4.4
		c-0.6,1.6-1.9,2.8-3.4,3.4l-4.3-8c-1.5,3.4-4.3,0.5-4.3,0.5l-3-7c-1.7,4.3-5.4,0.7-5.4,0.7l-1.4-9.6c-1.2,1.4-2.6,2.6-4.2,3.5
		c-2.1,0.9-2.5-2.9-2.5-2.9l8.5-14.1l21-5l32.6,11.3L461,672.6z"/>
	<path class="st7" d="M422.1,666.2c-1.4,0.3-2.7,0.7-4,1.2c-1.6,0.6-3.2,1.2-4.7,1.9c-1.6,0.7-3,1.6-4.4,2.7
		c-0.7,0.5-1.2,1.3-1.3,2.2c-0.1,0.7-0.2,1.4-0.2,2.1c-0.2,1.4-0.2,2.7,0.2,4.1c0.1,0,0.2-1.5,0.5-4c0.1-0.6,0.2-1.3,0.3-2
		c0.1-0.7,0.5-1.2,1.1-1.6c1.4-1,2.8-1.8,4.3-2.5c1.6-0.8,3.1-1.4,4.6-1.9s2.7-1.1,3.8-1.4c1.2-0.3,2.4-0.4,3.6-0.2
		C424.7,665.9,423.3,665.8,422.1,666.2z"/>
	<path class="st7" d="M425.1,674.7c-2.1,0.7-5.1,1.2-8.3,2.5c-0.9,0.3-1.7,0.7-2.3,1.3c-0.4,0.7-0.8,1.5-1,2.4
		c-0.5,1.4-0.7,2.8-0.5,4.3c0.2,0.9,0.5,1.8,0.9,2.7c0.1,0.3,0.2,0.7,0.4,1c0-0.4,0-0.7-0.1-1c-0.2-0.9-0.4-1.8-0.5-2.7
		c0-2.1,0.6-4.2,1.6-6c0.6-0.5,1.3-0.8,2-1.1c3.1-1.2,6.1-1.9,8.2-2.8c1.2-0.3,2.3-0.9,3.2-1.7C427.4,673.9,426.2,674.3,425.1,674.7
		z"/>
	<path class="st7" d="M430.1,683.9c-1.6,0.6-3.9,1-6.3,2.1c-0.7,0.2-1.3,0.6-1.8,1.2c-0.3,0.6-0.6,1.3-0.8,2
		c-0.4,1.2-0.5,2.5-0.4,3.7c0.2,0.8,0.4,1.6,0.7,2.4c0.1,0.3,0.2,0.6,0.3,0.8c0-0.3,0-0.6-0.1-0.9c-0.2-0.8-0.3-1.6-0.4-2.4
		c-0.1-1.2,0.1-2.3,0.5-3.4c0.2-0.6,0.4-1.2,0.7-1.7c0.4-0.4,0.9-0.7,1.5-0.9c2.4-1,4.6-1.6,6.2-2.3c0.9-0.3,1.8-0.8,2.5-1.5
		C431.8,683.1,430.9,683.5,430.1,683.9z"/>
	<path class="st5" d="M393.5,677.8l-1.1,10.9l-1.3,10.9c0,0,17.9,3.5,22,2.7s14.6-3.2,14.6-3.2c-0.4,1.3-0.4,2.8,0,4.1
		c0.6,1.5,1.7,2.6,3.2,3.2l4-7.5c1.4,3.2,4,0.5,4,0.5l2.8-6.5c1.6,4,5,0.6,5,0.6l1.3-8.9c1.1,1.3,2.5,2.5,4,3.3
		c1.9,0.8,2.4-2.7,2.4-2.7l-7.9-13.1l-19.6-4.6l-30.4,10.5L393.5,677.8z"/>
	<path class="st7" d="M439.1,699.2l2.8-6.5l-0.6,0c0.7,1.7,2,2.6,3.8,1.8c0.7-0.3,1.6-0.8,1.9-1.5c0.3-1.6,0.6-3.2,0.7-4.8l0.6-3.9
		l-0.5,0.2c1,1.2,2.3,2.3,3.6,3.1c0.6,0.4,1.3,0.4,1.9,0.1c0.9-0.7,1.3-1.8,1.3-2.9c-0.1-0.3-0.3-0.6-0.5-0.9l-1.2-1.9l-3.2-5.3
		l-2.6-4.3c-0.3-0.6-0.4-0.7-1-0.9c-3.3-0.8-6.5-1.5-9.8-2.3l-9.3-2.2c-0.2,0-0.7,0.3-0.3,0.4l16.9,4c0.9,0.1,1.8,0.3,2.6,0.6
		c0.1,0.1-0.1-0.1,0,0c0.1,0.1,0.1,0.2,0.2,0.3c0.3,0.4,0.5,0.9,0.8,1.3l5.4,9l1.1,1.8c0.1,0.1,0.4,0.8,0.4,0.6
		c0,0.8-0.3,1.6-0.8,2.2c-1.2,1.3-4.2-2-5-2.9c-0.2-0.1-0.4-0.1-0.5,0.1c0,0,0,0.1-0.1,0.1l-1,7.1c-0.1,0.5-0.1,1-0.2,1.5
		s0,0.2-0.2,0.4c-0.5,0.5-1,0.8-1.7,1c-1.4,0.4-2.2-0.6-2.7-1.8c-0.1-0.2-0.5-0.1-0.6,0l-2.8,6.5C438.4,699.5,439,699.5,439.1,699.2
		L439.1,699.2z"/>
	<path class="st7" d="M376.9,677.7c-0.6,5.8-1.2,11.5-1.9,17.3l-0.5,4.5c-0.1,0.6,1.1,0.4,1.2-0.1c0.7-5.8,1.4-11.5,2-17.3l0.4-4.5
		C378.1,677,377,677.2,376.9,677.7L376.9,677.7z"/>
	<path class="st7" d="M434.4,671.8c1.3,0.3,2.5,0.7,3.7,1.1c1.4,0.5,2.9,1,4.4,1.8c1.5,0.7,2.8,1.5,4.1,2.5c0.7,0.5,1.1,1.2,1.2,2
		c0.1,0.6,0.2,1.3,0.2,1.9c0.2,1.3,0.1,2.6-0.2,3.8c-0.1,0-0.1-1.4-0.5-3.7c-0.1-0.6-0.2-1.2-0.3-1.8c-0.1-0.6-0.5-1.1-1-1.5
		c-1.3-0.9-2.6-1.7-4-2.4c-1.5-0.7-2.9-1.3-4.3-1.8s-2.5-1-3.6-1.3c-1.1-0.3-2.2-0.3-3.4-0.2C432,671.7,433.2,671.5,434.4,671.8z"/>
	<path class="st7" d="M431.6,679.8c2,0.6,4.8,1.2,7.8,2.3c0.8,0.3,1.6,0.7,2.2,1.3c0.4,0.7,0.8,1.4,1,2.2c0.5,1.3,0.7,2.6,0.5,4
		c-0.2,0.9-0.5,1.7-0.8,2.5c-0.1,0.3-0.2,0.6-0.4,0.9c0-0.3,0-0.7,0.1-1c0.2-0.8,0.4-1.7,0.5-2.5c0.1-1.3-0.2-2.5-0.6-3.7
		c-0.2-0.7-0.5-1.3-0.9-1.9c-0.5-0.5-1.2-0.8-1.8-1c-2.9-1.1-5.7-1.8-7.6-2.6c-1.1-0.3-2.1-0.9-3-1.6
		C429.5,679,430.6,679.4,431.6,679.8z"/>
	<path class="st7" d="M427,688.3c1.5,0.5,3.6,1,5.9,1.9c0.6,0.2,1.2,0.6,1.6,1.1c0.3,0.6,0.6,1.3,0.7,1.9c0.4,1.1,0.5,2.3,0.4,3.5
		c-0.2,0.7-0.4,1.5-0.6,2.2c-0.1,0.3-0.2,0.5-0.3,0.8c0-0.3,0-0.6,0.1-0.8c0.2-0.7,0.3-1.5,0.4-2.2c0.1-1.1-0.1-2.2-0.5-3.2
		c-0.2-0.6-0.4-1.1-0.6-1.6c-0.4-0.4-0.9-0.7-1.4-0.8c-2.2-0.9-4.3-1.5-5.8-2.2c-0.9-0.3-1.6-0.8-2.3-1.4
		C425.4,687.7,426.2,688,427,688.3z"/>
	<path class="st6" d="M572.6,503.5c0,0,16.8-0.6,32.5,18.9s-3,90.2-3,90.2l-24.7-107.2"/>
	<path class="st15" d="M582.8,515.9c-2.1-0.9-4.8-0.3-6.7,0.6c-6.7,3.2-10,11.5-12.2,18c-2.3,6.9-3.6,14-5,21.1s-2.7,14.2-4,21.3
		c-2.3,12.8-4.4,25.6-6.5,38.5c-0.7,4.3-1.3,8.7-2,13l-0.6,4.2c-0.2,0.7-0.3,1.4-0.3,2.2c0,0.1,0,0.2,0,0.3l0.3-0.3l-8.6,3.2
		l-20.6,7.7l-25.1,9.3l-21.6,8l-7.1,2.7c-1.2,0.4-2.3,0.8-3.4,1.3l-0.1,0.1c-0.2,0.1-0.3,0.2-0.3,0.4l0.5,4.6c0,0.5,1.2,0.2,1.1-0.3
		l-0.5-4.6l-0.3,0.4l8.6-3.2l20.6-7.6l25-9.3l21.6-8l7.1-2.6c1.2-0.4,2.3-0.8,3.4-1.3l0.2,0c0.1,0,0.3-0.2,0.3-0.3
		c0.7-5,1.5-10,2.3-15c1.8-11.7,3.8-23.5,5.8-35.2c1.2-6.8,2.4-13.7,3.7-20.5c1.3-7,2.5-13.9,4.1-20.8c1.2-5.9,3.2-11.6,5.8-17
		c1.4-3.1,3.5-5.8,6.1-8c2-1.8,4.8-2.5,7.4-1.9l0,0C582.2,516.6,583.2,516.1,582.8,515.9L582.8,515.9z"/>
	<path class="st15" d="M605.9,593c-1.3,8.1-2.8,16.1-4.3,24.1c-2.6,13.4-5.3,27-9.8,39.9c-1.3,3.6-2.6,7.9-5.6,10.5
		c-3.6,3.1-8.2,5-12.5,6.7c-12.4,5-25.5,8.4-38.4,11.6c-8.4,2.1-16.9,3.8-25.3,5.7l-0.4,0.1c-0.7,0.1-0.5,0.9,0.2,0.8
		c7.2-1.4,14.5-3,21.7-4.8c13.2-3.1,26.5-6.6,39.2-11.3c5-1.7,9.8-3.9,14.2-6.7c1.5-0.9,2.8-2,3.8-3.4c1.1-1.6,2-3.3,2.7-5.2
		c2.2-5.6,4-11.4,5.4-17.3c1.8-7,3.4-14,4.8-21.1c2-9.7,4-19.4,5.4-29.2c0-0.2,0-0.3,0.1-0.5C607.2,592.4,606,592.5,605.9,593
		L605.9,593z"/>
	<path class="st15" d="M546.5,635.6c5-1.2,10.2,0.3,13.7,3.9c0.3,0.3,1.3-0.2,1.1-0.4c-3.9-3.9-9.6-5.4-14.9-4
		C545.6,635.3,545.8,635.8,546.5,635.6L546.5,635.6z"/>
	<path class="st4" d="M340.2,655.6l-0.5,3.8c0.2,0.2,0.5,0.3,0.7,0.2c2.5-1.3,4.2,2.4,6.6,0.8l53.7,14.4l-4.5,26.9
		c0,0-57-6.5-69.6-11.3c-0.7-0.3-8.5-3.7-9.2-4c-5.5-2.3-9.5-9.8-11.6-16.3C312.9,659.2,326.8,656.1,340.2,655.6z"/>
	<path class="st4" d="M325.4,521.5c-12.2,8-39.8,9.4-48.3,23.6c-11,18.3-4.6,78.7-4.6,78.7l32-95.8"/>
	<path class="st18" d="M296.2,542.5c2.6,0.5,5.1,2.5,7,4.3c6.1,5.8,9,14.3,10.5,22.3c1.9,11,3.2,22.1,3.7,33.2
		c0.6,9.7,0.9,19.4,1,29.1c0,4.9,0.1,9.8-0.1,14.6c0,0.1,0.1,0.1,0.1,0.1l20,7.8l31.8,12.5l7.3,2.9c0.3,0.1,1.6-0.4,1.1-0.6
		l-22.3-8.7L324,647.2l-3.6-1.4c-0.1-0.1-0.5-0.1-0.6-0.2c0.2,0.2,0.1-0.3,0.1-0.4c0.1-4.9,0.1-9.8,0-14.6
		c-0.2-19.7-1.1-39.5-4.3-58.9c-1.4-8.3-3.7-16.8-9.3-23.3c-2.2-2.8-5.1-4.9-8.5-6.1c-0.2-0.1-0.3-0.1-0.5-0.1
		C297,541.8,295.8,542.4,296.2,542.5L296.2,542.5z"/>
	<path class="st18" d="M271.8,623.9c0.4,10.3,1.5,20.6,3.2,30.8c0.5,3.3,1.2,6.6,2.1,9.8c0.6,2.5,1.5,4.9,2.8,7.2
		c2,3.3,5.4,5.7,8.7,7.6c10.1,5.8,21.8,9,33,11.7c12.2,3,24.6,5.3,37,7.2c6.7,1,13.4,2.2,20.1,2.7h0.3c0.6,0.1,1.4-0.9,0.5-1
		c-5.5-0.6-10.9-1.3-16.3-2.1c-11.9-1.8-23.8-3.8-35.6-6.5s-23.6-5.7-34.3-10.9c-3.8-1.8-7.7-4-10.5-7.2c-3.3-3.7-4.4-9.1-5.3-13.8
		c-2.2-11.5-3.6-23.2-4-34.9c0-0.2,0-0.5,0-0.7C273.3,623,271.9,623.2,271.8,623.9L271.8,623.9z"/>
	<path class="st18" d="M319.3,645.8c-4.6-1.7-9.8-0.9-13.6,2.2c-0.2,0.2-0.1,0.4,0.1,0.5c0.4,0.1,0.7,0,1-0.3
		c3.2-2.6,7.6-3.3,11.4-1.8c0.3,0.1,0.7,0,1-0.1C319.4,646.2,319.7,646,319.3,645.8L319.3,645.8z"/>
	<path class="st15" d="M427.3,636.1c5.6,0.1,11,2.6,14.7,6.9c0.2,0.2,1.3-0.2,1.1-0.4c-3.8-4.4-9.4-7-15.2-7
		C427.5,635.6,426.6,636.1,427.3,636.1L427.3,636.1z"/>
	<rect x="983" y="56" class="st20" width="326.5" height="774.3"/>
	<rect x="975.2" y="50.9" class="st1" width="18.3" height="780.6"/>
	<rect x="975.2" y="46.2" class="st1" width="363.3" height="19.3"/>
	<polygon class="st21" points="1124.4,40.1 1320.6,66.4 1320.6,831.5 1124.4,860.1 	"/>
	<rect x="1103.2" y="40" class="st22" width="21.1" height="819.3"/>
	<path class="st23" d="M1156.5,448.2h33.9c2.2,0,4.1,2.7,4.1,6.1l0,0c0,3.4-1.8,6.1-4.1,6.1h-33.9c-2.2,0-4.1-2.7-4.1-6.1l0,0
		C1152.4,450.9,1154.3,448.2,1156.5,448.2z"/>
	<path class="st23" d="M1156.4,461.6c-0.2,0-0.5,0-0.7,0c-1.7-0.2-3.1-1.2-3.9-2.7c-0.5-1.1-0.8-2.2-0.8-3.4c-0.2-1.4-0.1-2.7,0.2-4
		c0.5-1.9,2-3.4,3.9-3.9c0.4-0.1,5-0.8,5-0.4v-21.9c0-6.3-3.6-11.5-8-11.5l0,0c-4.4,0-8,5.1-8,11.5v79.2c0,6.4,3.6,11.5,8,11.5l0,0
		c4.4,0,8-5.1,8-11.5V467c0-1.9,0-3.7,0-5.6C1158.9,461.4,1157.7,461.6,1156.4,461.6z M1154,494.3v4.5c0,1-0.6,1.8-1.2,1.8
		s-1.2-0.8-1.2-1.8v-4.5c-1.1-0.9-1.7-2.2-1.6-3.6c0-2.1,1.3-3.8,2.8-3.8s2.7,1.8,2.6,4C1155.5,492.2,1154.9,493.4,1154,494.3z"/>
	<rect x="1110.2" y="421.3" class="st23" width="8.2" height="83.9"/>
	<path class="st24" d="M1154,494.3v4.5c0,1-0.6,1.8-1.2,1.8s-1.2-0.8-1.2-1.8v-4.5c-1.1-0.9-1.7-2.2-1.6-3.6c0-2.1,1.3-3.8,2.8-3.8
		s2.7,1.8,2.6,4C1155.5,492.2,1154.9,493.4,1154,494.3z"/>
	<line class="st25" x1="975.2" y1="46.2" x2="993.5" y2="65.5"/>
	<path class="st5" d="M942.9,241.1c0,0-4.9,20.1,3.1,34.4c1,1.8,11.8,7,11.8,7l-10.4,7.1c-8.4,5.8-18.6,8.5-28.7,7.6
		c-5.4-0.4-10.8-1.5-16-3.2l-6.7-5.9c0,0,7.9-5.9,8.3-8.3s-1.8-20.6-1.8-20.6"/>
	<path class="st5" d="M801.7,258.3c-1.2-3.7-1.8-13.2-3.7-13.3s-3.9,0.9-4.5,4s2.6,10.6,0.1,13.1c-1.8,1.8-3.8-0.2-3.8-0.2
		s-10.9-11.2-14.1-15.7s-7.2-7.6-8.3-6.2s-1.2,2.8,1.5,6.5s7.7,9.1,7.2,10c-0.5,0.9-1.9,0.2-3.5-1.9s-9.8-11.6-11.3-11.4
		c-1.4,0.3-2.3,1.6-2.1,3c0,0.2,0.1,0.4,0.2,0.7l0,0c0.5,1.3,1.3,2.4,2.3,3.3c3.6,3.4,8.6,8.2,10.8,11.2c0.1,0.1,0.1,0.3,0,0.4
		c-0.1,0.1-0.3,0.1-0.4,0l0,0c-2.5-2.1-5-4.4-7.3-6.8l-3.4-4.1c-0.7-0.9-2-1.1-2.9-0.5c-0.1,0.1-0.2,0.1-0.2,0.2
		c-0.3,0.3-0.4,0.7-0.4,1.1c0,1.9,2.4,4,2.4,4l11.1,12.3c0,0-0.1,1.3-0.9,1.4s-8.6-10.3-9.6-9.5s-2.3,0.3-0.4,3.9s8.9,10.2,11.2,13
		s8.5,8.1,11.7,11.4c1.8,1.9,4.5,2.8,7.1,2.4l8.1-1.6c4.5-2.6,7.2-7.6,7.1-12.8C805.4,267.8,802.9,262,801.7,258.3z"/>
	<polygon class="st5" points="788.3,289 791.4,295.6 806.7,284.5 804.3,278.5 	"/>
	<path class="st26" d="M787.8,267.4c-4.1,2.3-4.1,8.3-3.4,12.3c0.1,0.4,1,0.2,0.9-0.2c-0.5-2.3-0.5-4.6,0-6.9
		c0.4-1.8,1.2-3.7,2.9-4.7C788.7,267.6,788.2,267.2,787.8,267.4L787.8,267.4z"/>
	<path class="st5" d="M1043.4,249.4c-0.2-3.6-3-12.1-1.3-12.8s3.7-0.6,5.4,1.9s1.3,10.1,4.4,11.4c2.2,0.9,3.3-1.5,3.3-1.5
		s5.8-13.5,7.1-18.5s4.4-11,5.9-10.2s2,2,0.9,6.1s-4.4,12.6-3.6,13.2s1.8-0.5,2.4-2.9s5.3-15.4,6.7-15.8c1.3-0.3,2.6,0.6,2.8,1.8
		c0,0.2,0.1,0.4,0,0.7l0,0c0,1.3-0.3,2.5-0.9,3.7c-2.2,4.4-5.7,12.6-6.5,16c0,0.1,0,0.2,0.1,0.3s0.2,0,0.3-0.1l0,0
		c0.9-1.4,3.3-6.8,5-10.9l1.6-4.7c0.3-1.1,1.4-1.7,2.5-1.4c0.1,0,0.2,0.1,0.3,0.1c0.3,0.2,0.6,0.4,0.7,0.8c0.6,1.6-0.8,4.4-0.8,4.4
		l-6.3,16.5c0,0,0.5,1.1,1.2,0.9s4.7-13.9,5.9-13.6s2.1-0.5,1.7,3.2s-5,13.9-6.1,17.1s-4.7,10-6.4,14c-1,2.3-3,4.1-5.5,4.6l-7.7,1.5
		c-4.9-0.7-9-4-10.6-8.6C1043.3,258.9,1043.6,253,1043.4,249.4z"/>
	<polygon class="st5" points="1064.9,272.9 1063.7,279.7 1045.2,276.8 1047.7,267.6 	"/>
	<path class="st26" d="M1058.6,253c1.8,0.4,3.4,1.5,4.3,3.1c1.1,1.8,1.9,3.8,2.3,5.9c0.1,0.4,0.9,0.2,0.8-0.2
		c-0.4-2.2-1.2-4.4-2.5-6.2c-1-1.7-2.7-2.8-4.6-3.1C1058.5,252.4,1058,252.9,1058.6,253L1058.6,253z"/>
	<path class="st27" d="M1031.8,368.7c-2.6-6.3-3.7-13.2-3.3-20c0.3-6.1,1-12.1,0.6-18.2l15.2-58.9l22.6,5.1c0,0-3.8,93.5-9.7,101.1
		c-2.8,3.6-9.7,7.9-15.8,9.2C1035.9,382.9,1034.5,375.4,1031.8,368.7z"/>
	<path class="st27" d="M947,274.2c0,0,35,1.4,50.3,17.1c7,7.2,30.3,36,34.9,42.7c-1.2,5.9-0.9,11.5-1.8,17.5
		c-1.1,6.6,2.4,10.1,4,16.6c1.3,5.6,6.8,13.5,10,17.9c-5.6,3.8-21-3-28-8.7c-9.3-7.7-32.1-26.5-47.8-45.5c-1.5-1.8-5.9-8.9-9.7-16
		C953.6,308.7,945,278.9,947,274.2z"/>
	<path class="st27" d="M885.5,293.5c-3.1-0.8-4.6-1.5-7.1,0.4c-6.7,4.9-10.3,6.8-18.6,20.8c-16.6,27.9-33,41.2-33,41.2l19.5,34.8
		c0,0,45.2-22.8,56.5-64.8C911.3,294.4,894.6,296,885.5,293.5z"/>
	<path class="st27" d="M855.2,385.5c0,0-5.3-8.8-12.2-29.3c-4.3-12.9-15.2-33.4-20.9-43.6c-14.8-26.4-15.8-29-15.8-29l-20,11.4
		c0,0,13,46.9,27.5,78.6C830,409.1,855.2,385.5,855.2,385.5z"/>
	<path class="st5" d="M922.6,812.6c0,0-19.3,13-29.7,23.2l0,0c0,0,4.6,11.3,10.6,10.7s39.5-21,39.5-21l-4-12.3L922.6,812.6z"/>
	<polygon class="st28" points="929.2,846.8 937,849.2 937.2,827.4 930.7,831.5 	"/>
	<polygon class="st29" points="937.1,826.8 937,849.2 944.8,846.4 943,827.5 	"/>
	<path class="st28" d="M871,854.9c1.2,0.8,2.7,1.3,4.2,1.2c7.2-0.2,30-0.9,34.8-2.4c7.2-2.2,6.1-0.8,13-6.4s18.5-6.6,21-8
		s-0.6-12.4-0.6-12.4s-0.2-2.2-2.2-1.8h-0.3l-6.3,5.9l-17.1,8.8l-9.7,9.1l-19.2,1.5l-15.3-1.1c0,0-3.5,0.8-4.1,1.4
		c-0.6,0.7-0.7,1.8-0.2,2.6C869.6,853.9,870.3,854.5,871,854.9z"/>
	<path class="st30" d="M943.1,821.9c-5,0.6-7.5,6.8-15.7,11.7c-3.7,2.2-21.2,10.3-25.3,7.3c-1.3-0.5-2.5-1.1-3.7-1.9
		c-4.9-3.4-7.8-3.3-7.8-3.3c-1.9,1.6-3.9,3.1-6,4.4c-3.1,1.8-8.1,4.9-11.7,7.2s-2.2,3.9-2.2,3.9s2.8,2,5,2.1c3.9,0.2,7.8,0.2,11.7,0
		c5.3-0.2,21.2-1.3,25.1-3.2c2.9-1.4,6.4-1.6,12.2-7.3c5.3-5.3,20.6-5.4,21.2-7.4c0.7-3.2,0.4-6.6-0.8-9.6L943.1,821.9z"/>
	<path class="st5" d="M898.5,447.8c0,0-1.8,101.2-5.8,191.3c-3.3,74.1,26.7,177.4,26.7,177.4l19.9-0.3c0,0-0.9-103.6-0.1-181
		c8.2-61.6,16-108.2,16-108.2l1.3-89.1L898.5,447.8z"/>
	<path class="st5" d="M936.5,453.3c0,0-1.8,101.2-5.8,191.3c-3.3,74.1,26.7,177.4,26.7,177.4l20.2-0.8c0,0-1.2-103.1-0.4-180.5
		c4.8-36.4,11.7-72.6,20.8-108.2l-6.4-65.5L936.5,453.3z"/>
	<path class="st5" d="M960.1,817.1c0,0-19.3,13-29.7,23.2l0,0c0,0,4.6,11.3,10.6,10.7s39.5-21,39.5-21l-3.6-12.2L960.1,817.1z"/>
	<polygon class="st28" points="965.8,851.3 973.5,853.7 973.8,831.9 967.2,836 	"/>
	<polygon class="st29" points="973.7,831.2 973.5,853.7 981.4,850.9 979.5,832 	"/>
	<path class="st28" d="M907.6,859.4c1.2,0.8,2.7,1.3,4.2,1.2c7.2-0.2,30-0.9,34.8-2.4c7.2-2.2,6.1-0.8,13-6.4s18.5-6.6,21-8
		s-0.6-12.4-0.6-12.4s-0.2-2.2-2.2-1.8h-0.3l-6.3,5.9l-17.1,8.8l-9.8,9.2l-19.1,1.5l-15.3-1.1c0,0-3.5,0.8-4.1,1.4
		c-0.6,0.7-0.7,1.8-0.2,2.6C906.2,858.5,906.9,859,907.6,859.4z"/>
	<path class="st30" d="M979.6,826.4c-4.5,0.1-5.6,5.2-13.8,10c-3.7,2.2-23,11.9-27.2,8.9c-1.3-0.5-2.5-1.1-3.7-1.9
		c-4.9-3.4-7.8-3.3-7.8-3.3c-1.9,1.6-3.9,3.1-6,4.4c-3.1,1.8-8.1,4.9-11.7,7.2s-2.2,3.9-2.2,3.9s2.8,2,5,2.1s6.4,0.3,11.7,0
		s21.2-1.3,25.1-3.2c2.9-1.4,6.4-1.6,12.2-7.3c5.3-5.3,20.6-5.4,21.2-7.4s0.5-7.1-0.8-9.6L979.6,826.4z"/>
	<path class="st31" d="M889,695.4c-0.2-5-0.4-8.4-0.5-9.7c-3.5-46.4-7-93-8.7-139.6c-1-26.9-6.7-58.7-2.5-85.2
		c0.3-2.2,3-3.5,3.3-5.7c2.7,0.5-1.8-11.6,0.9-11.4c8.9,0.8,17.9,0.5,26.8-1c18.3-2.9,35.7-9.7,52.4-17.3c6.6-3,13.1-6.2,19.6-9.4
		l-4,2.5c0,0,30.2,24.8,41.1,78.3c11,53.4-26.8,308.8-26.8,308.8s-5.1,9-50.1,6.6c-10-0.5-43-6.5-43-6.5
		C894.3,805.3,890.5,724.5,889,695.4z"/>
	<path class="st27" d="M883.7,411.6c0.2,4.5,2.3,22.2,1.5,26.5c3.9,1.1,1.9,0.5,5.9,1c17.7,2.3,35.5-0.8,52.5-5.7
		c18.7-5.5,32.5-11.5,42.5-15.7l-0.5-1l6-127.3l-22.8-6.7l-22.4-8.5l-0.1,0.5c-1.6,8.5-7.2,15.7-14.9,19.5c-2.6,1.3-5.4,2-8.3,2.2
		c-3.3,0.2-6.7,0.3-10,0.1c-7.5-0.6-13.4-7.5-9.9-15.2c0.1-0.2-12.8,6.2-13.9,6.7c-7.3,3.1-11.1,6.4-12.8,8.2c0,0-1.9,7.8-1.8,29.2
		c0,6.9-5.8,30.1-5.8,36.6c0.1,13.6,8.1,18.9,11.7,23C881.4,385.9,882.6,386.7,883.7,411.6z"/>
	<path class="st32" d="M868.3,327c1.4,7.1,1.7,14.4,0.9,21.7c-0.4,4.2-1.3,8.5-1.2,12.7c0.1,3.3,0.6,6.5,1.7,9.6c0.1,0.3,1,0,1-0.2
		c-1.5-4.5-2-9.2-1.5-13.9c0.8-5.6,1.2-11.3,1.4-17c0-4.4-0.5-8.8-1.3-13.1C869.2,326.5,868.2,326.7,868.3,327L868.3,327z"/>
	<path class="st7" d="M904.2,275c0,0,4.3-1.8,7.2-2.7s7.9-0.8,21-12.8c0,0-3.6,14.4-20.7,17.9c0,0-4.4,1-7.3,0.4L904.2,275z"/>
	<path class="st5" d="M887,187.8c0,0.1-0.1,0.2-0.2,0.3l0.2-0.1V187.8z M879.5,190.5v0.1c0.1-0.1,0.2-0.2,0.3-0.3
		S879.5,190.5,879.5,190.5L879.5,190.5z M942.4,244.2l0.7-2.8c3.9,4.5,9.5,0.3,9.3-6.6c1.6-3.6,3.2-15.1,0.2-18.5l-0.4-0.5
		c-2.1-1.4-5.7-1.8-7,0.9c-0.4,1.2,0.1,2.6-0.3,3.8c-0.8,1.8-1.7,3.5-2.8,5.2c-0.8-3.1-1.4-6.3-1.8-9.5c-0.2-3.1-3.3-11.6-9.2-15.3
		c0,0-1-10.7-3.8-13.7l-0.9-0.2c-0.5,0.1-0.8,0.3-1.4,0.3c0-0.2,0.1-0.3,0.1-0.7c-0.7,0.3-1.5,0.4-2.2,0.4c0.2-0.2,0.5-0.4,0.5-0.5
		c-0.7,0.2-1.4,0.2-2.1,0.2c0.2-0.2,0.5-0.5,0.5-0.7c-0.8,0.4-1.4,0.2-2.1,0.2c0.2-0.2,0.3-0.4,0.3-0.7c-0.7,0.3-1.4,0.4-2.1,0.4
		c0.2-0.2,0.3-0.5,0.5-0.7c-0.8,0.4-1.4,0.2-2.1,0.2c-0.2,0,0.3-0.4,0.3-0.5c-0.6,0.2-1.1,0.3-1.7,0.4c0-0.2,0.3-0.4,0.3-0.5
		c-0.7,0.2-1.5,0.3-2.3,0.3l0.5-0.7c-0.6,0.5-1.3,0.7-2.1,0.6c0.2-0.2,0.5-0.5,0.5-0.7c-0.8,0.6-1.7,0.8-2.7,0.6
		c0.2,0,0.5-0.5,0.5-0.7c-0.7,0.5-1.5,0.8-2.4,0.8c0.2-0.2,0.3-0.5,0.6-0.9c-0.9,0.8-2.1,1.1-3.3,0.9c0.2,0,0.3-0.5,0.3-0.7
		c-0.6,0.7,0.6-0.2-0.3-0.3c0,0-1.9,0.9-2,0.7c-0.7,0.6,1.5-2.9,0.7-2.8c0.1-0.3-5,0.9-4.7,0.5c-0.8,0.7-0.7,0.4-1.7,0.3
		c0,0-3.4,2.3-3.2,2.1c-0.8,0.9-1.3,0.3-2.3,0.2c0.2-0.2,0.7,0.6,0.9,0.4c-0.6,0.7-0.5-0.1-1.3,0c0-0.2-3-0.7-3-0.9
		c-0.8,0.6-0.5,0.6-1.6,0.7c0-0.2-0.5,1.8-0.3,1.7c-0.6,0.7-0.7,0.2-1.5,0.1l-0.8,0.7c-0.8,0.9,0.4,0.4-0.7,0.4c0-0.1,4,0.1,4.1-0.2
		c-0.6,0.5-1.3,1-2.1,1.2c0-0.2,0.1-0.5,0.1-0.7c-0.7,0.8-1.6,1.3-2.7,1.3c0.2,0,0.3-0.4,0.3-0.5c-0.6,0.9-1.8,1.4-2.9,1.1l0,0
		c-0.6,0.7-1.4,1.2-2.3,1.4c0-0.3,0.1-0.5,0.3-0.7l-0.7,0.1c-0.8,1.3-1.4,2.7-1.6,4.2c0,0-5.1,9.9-4.2,15.8s3.1,15.9,3.5,18.4
		c0.4,2.7,0.6,5.4,0.6,8.1c0,5.2,0.1,6.6,2,11.6c1.5,4.2,3.7,8.1,6.7,11.4c3.5,4.2,8.2,7.6,12.7,11c3.1,2.4,6.9,3.7,10.8,3.6
		c10.9-0.7,20.8-9.3,26.9-17"/>
	<path class="st33" d="M874.6,202c3.2-9.8,13.4-16.2,35.2-21.4c13.2-3.1,26.9-2.8,39.9,0.9c-13.8-30.4-45.8-25.8-52.9-24.9
		S856,189.4,871,214.2l0.9,2.4C871.9,216.6,874.1,203.7,874.6,202z"/>
	<path class="st33" d="M954.6,174.3c0,0,0.4-20.1-14.8-25.1c-20.3-6.7-47.1-7.6-54.2,13.8L954.6,174.3z"/>
	<path class="st34" d="M958.1,222.5c1.4-1.8,0.5-6.3,1.6-8.3c6.1-10.3,2.8-19.3-0.6-24.5c-1.5-2.3-0.3-6.7-0.6-8.8
		c-1.8-11-3.2-11.1-20.8-20.6c-14.4-7.7-28.8-5.6-37.1-4.2c-13.3,2.2-19.2,3.7-22.8,13.8c-0.5,1.3,0.3,2.2,0,3.8
		c-0.5,2.2-3.8,2.8-4,5.5c0,0,18,5,33.7,11.3s45.4,34.2,45.3,43.6C952.7,234.4,956.5,224.5,958.1,222.5z"/>
	<path class="st33" d="M963,200.8c0,0-28.8-28.3-56.5-25.5c0,0,34.9-8.6,53.5,15.1l0.5,1c1.3,2.6,2.1,5.4,2.4,8.2L963,200.8z"/>
	<path class="st33" d="M877.4,174.1l1.8-0.9c4.2-2.1,8.6-3.6,13.2-4.5l7.7-1.4c0,0-19.2-1.2-22.8,4.1L877.4,174.1z"/>
	<path class="st35" d="M945.9,239.4c1.6,0,3,1.1,3.3,2.7c0.2,0.8,0,1.6-0.4,2.2c-0.2,0.4-0.6,0.8-1,1c-0.9,0.5-2,0.5-2.9,0
		c-0.2-0.1-0.9,0.2-0.6,0.3c1,0.5,2.2,0.6,3.3,0.2c0.5-0.2,1-0.5,1.4-0.9c1.3-1.3,1.3-3.5,0-4.8c-0.8-0.8-1.8-1.2-2.8-1.1
		c-0.1,0-0.4,0.1-0.5,0.2S945.7,239.4,945.9,239.4L945.9,239.4z"/>
	<path class="st36" d="M938.2,213.3l2.7,15.5l4.7-7.5C945.6,221.3,940.3,215.6,938.2,213.3z"/>
	<path class="st37" d="M944.8,228.2c0.5-0.1,1.3-0.1,1.4,0.5c0,0.6-0.1,1.1-0.3,1.6c-0.3,1.1-0.8,2.6,0.3,3.5c1.3,1,2.6-1,3.1-1.9
		c0.6-1.3,0.8-2.8,0.5-4.3c-0.3-1.5-0.9-3.5-2.5-4c-0.3-0.1-0.9,0.4-0.4,0.5c1.4,0.4,1.9,2.2,2.2,3.4c0.3,1.3,0.2,2.7-0.3,3.9
		c-0.2,0.8-0.7,1.5-1.3,2c-0.5,0.3-0.8-0.1-1-0.6c-0.4-1.1,0.3-2.3,0.5-3.4c0.2-0.5,0.1-1-0.1-1.4c-0.4-0.5-1.3-0.5-1.9-0.4
		C944.4,227.7,944.3,228.3,944.8,228.2L944.8,228.2z"/>
	<path class="st33" d="M946.8,205.2c0,0,11,9,12.2,13l0.7-3.9C956.8,209.6,952.2,206.4,946.8,205.2z"/>
	<path class="st38" d="M896.9,245.3c1.5,0.5,3.2,0.2,4.5-0.8c0.3-0.2,1.2-0.1,0.9,0.1c-1.8,1.3-4.1,1.6-6.2,1
		c-0.2-0.1-0.2-0.2,0-0.3C896.4,245.2,896.6,245.2,896.9,245.3"/>
	<path class="st38" d="M902.8,244.2c0.8-0.5,1.8-0.8,2.7-1c0.2,0,0.3,0,0.4,0.1c0.1,0.1,0.1,0.2,0,0.2c-0.4,0.3-1,0.5-1.5,0.5
		c-0.2,0-0.4,0-0.5-0.1c-0.1-0.1,0-0.2,0.2-0.2c0.4,0,0.9-0.2,1.2-0.4l0.5,0.3c-0.9,0.2-1.7,0.5-2.4,0.9c-0.2,0.1-0.3,0.1-0.5,0
		C902.8,244.4,902.7,244.3,902.8,244.2"/>
	<path class="st38" d="M906.7,243.9c1.2-0.1,2.2-0.7,2.9-1.7c0.7-1.4-0.3-3.3-1.8-4c-0.2-0.1-0.1-0.2,0-0.2c0.2-0.1,0.4,0,0.6,0.1
		c1.3,0.6,2.2,1.9,2.2,3.4c-0.2,1.2-1.1,2.2-2.3,2.5c-0.4,0.2-0.8,0.3-1.2,0.3c-0.2,0-0.5,0-0.6-0.1S906.4,243.9,906.7,243.9"/>
	<path class="st38" d="M894.8,244.9c0-0.1,0-0.2-0.1-0.2c0,0-0.1,0-0.1,0c-0.3,0-0.6,0-0.9-0.2c-0.1,0.1-0.2,0.3-0.3,0.4
		c0.6,0,1.3,0.1,1.8,0.4c0.1,0,0.3,0,0.4-0.1c0.1-0.1,0.1-0.2,0-0.3"/>
	<path class="st38" d="M895.7,245c-0.6-0.3-1.3-0.5-2.1-0.5c-0.1,0-0.2,0.1-0.3,0.2c-0.1,0.1-0.1,0.2,0,0.2c0,0,0,0,0,0"/>
	<path class="st38" d="M892.5,245.3c-0.9,0-1.7-0.4-2.1-1.1c-0.6-1.2-0.4-2.7,0.5-3.7c0.1-0.1,0-0.2-0.1-0.2c-0.1,0-0.3,0.1-0.4,0.2
		c-0.8,0.9-1.1,2.1-0.8,3.2c0.2,1,1,1.8,2,2c0.3,0.1,0.6,0.1,0.8,0.1c0.1,0,0.3-0.1,0.3-0.2S892.6,245.3,892.5,245.3"/>
	<path class="st36" d="M882.3,224.2c-1-0.3-2.1,0-2.8,0.8c-0.3,0.4-0.4,0.8-0.5,1.2c-0.1,0.8,0.2,1.7,0.9,2.2
		c0.8,0.6,1.9,0.7,2.7,0.2c1-0.7,1.4-2,0.9-3.1C883.3,224.9,882.9,224.4,882.3,224.2"/>
	<path class="st36" d="M891.5,226.6c0,0-5.1-3.2-7.6-3.1c-3.5,0-7.7,2.5-8.7,4.4c0,0,5.4-3.6,7.9-3.5S891.5,226.6,891.5,226.6z"/>
	<path class="st36" d="M913.5,220.7c1-0.6,2.2-0.7,3.2-0.2c0.4,0.3,0.7,0.6,0.9,1.1c0.3,0.8,0.2,1.7-0.3,2.4
		c-0.6,0.8-1.7,1.1-2.6,0.8c-1.1-0.5-1.8-1.7-1.6-2.9c0-0.2-0.2-0.5,0.5-1"/>
	<path class="st36" d="M906.7,224.4c0,0,4.9-4,7.5-4.4c3.8-0.5,8.6,1.2,10.1,2.9c0,0-6.4-2.6-9.1-2.1S906.7,224.4,906.7,224.4z"/>
	<path class="st36" d="M891.2,218.9c-0.3,0.7-0.6,1.3-0.9,2l-0.7,1.5c-1.4-1.1-2.7-2-3.6-2.6c-1.3-1-2.8-1.8-4.5-2.4
		c-1.1-0.3-2.2-0.4-3.3-0.3c-0.6,0-1.3,0-1.9,0.2c-1.4,0.3-2.3,1.1-2.4,0.9s0.5-0.8,0.5-0.9c1-1.1,2.3-1.9,3.8-2.3
		c1.2-0.3,2.4-0.3,3.6-0.1C885.1,215.7,888.3,217.1,891.2,218.9"/>
	<path class="st36" d="M901.9,217.1l1.3,1.7l1,1.3c1.4-1.7,2.7-3,3.7-4c1.3-1.6,2.9-2.9,4.6-4c1.2-0.6,2.4-1.2,3.7-1.5
		c0.7-0.2,1.4-0.4,2.2-0.5c1.7-0.2,2.8,0.3,2.9,0.1s-0.7-0.7-0.8-0.7c-1.4-0.8-3-1.1-4.7-1c-1.4,0.2-2.8,0.5-4.1,1.2
		C908.2,211.7,904.8,214.3,901.9,217.1"/>
	<path class="st27" d="M883.7,411.6c0,0-4.2,37.9-7.2,54c0,0,24.7,19.6,91.1,3.9c43-10.2,39.5-11.5,39.5-11.5l-21.3-42l-1.8-18.6
		l-95,9.9"/>
	<path class="st7" d="M897.4,215.9c0,0-1.3,2.3-0.5,4.3c0.5,1.6,2.2,2.5,3.8,2c0,0-2.9-0.6-3.3-3.1S897.4,215.9,897.4,215.9z"/>
	<path class="st32" d="M981.2,294.5c-4.8,1.5-7.8,6.8-8.7,11.4c-1.3,6.5,0.2,13.2,1.9,19.5c1.8,6.5,4.1,12.8,6.9,18.8
		c1.4,3.1,2.9,6,4.6,8.9c0.2,0.4,1.1,0,0.9-0.4c-4.3-7.4-7.8-15.3-10.3-23.5c-2-6.5-3.9-13.5-3.5-20.3c0.1-4,1.6-7.8,4.2-10.8
		c1.1-1.3,2.6-2.3,4.1-2.9C981.9,294.9,981.7,294.3,981.2,294.5L981.2,294.5z"/>
	<path class="st32" d="M1028.7,329.5c-0.7,2.6-1.5,5.2-2.4,7.7c-0.8,2.6-1.4,5.2-1.8,7.8c-0.7,5.2-0.5,10.4,0.4,15.6
		c0.1,0.3,1,0.1,1-0.3c-1.5-7.7-1.1-15.7,1.3-23.3c0.9-2.5,1.7-5.1,2.4-7.7C1029.8,329,1028.8,329.1,1028.7,329.5L1028.7,329.5z"/>
	<path class="st32" d="M836.7,341.3c1.6,3,4,5.6,5.6,8.6c1.8,3.7,2.7,7.8,2.7,11.9c0,0.1,1,0,1-0.2c0-4.1-0.9-8.2-2.7-11.9
		c-1.6-3-4-5.6-5.6-8.6C837.6,340.8,836.7,341.2,836.7,341.3L836.7,341.3z"/>
	<path class="st39" d="M901.1,251.6c4.5-0.9,14.9,0,17.2,1.4c0,0-3.7,5.8-14.1,7.8s-13.5-2.5-13.5-2.5S895.4,252.6,901.1,251.6z"/>
	<path class="st40" d="M913.7,251.8c0,0-5.4,0.6-9.7,1.4s-9.5,2.2-9.5,2.2s-1.3-3,6.4-4.5S913.7,251.8,913.7,251.8z"/>
	<path class="st41" d="M904.2,260.7c4.7-1.6,8.4-7,14.1-7.8c0,0-1.3,9.9-13.5,12.2s-14.1-7-14.1-7
		C896.3,256.7,899.2,260.9,904.2,260.7z"/>
	<path class="st41" d="M895.4,250.2c2.5-0.7,4.3,0,5.5-0.2s2.6-1.5,5.2-1.8c2.4-0.3,13.7,3.6,12.7,4.6s-9.7-1.8-17.4-0.4
		s-9.7,6.3-11,5.7S893,250.8,895.4,250.2z"/>
	<path class="st7" d="M344.6,510.2c0,0,2.4,13.5,25,20.9c0,0,5.2,2,6.1,1.6l0.4-6.9L344.6,510.2z"/>
	<path class="st42" d="M404.5,495.6c-5.7-4.9-6.2-12.9-4.8-19.8c1.4-6.6-2.8-17.4,5.4-16.3c0.2,0-2.4-6,0-5.3
		c-1.1-3.9,4.3-3,5.4-7.1c0.2-0.8,2.1-8.1-3.2-9.1c-16.7-28.5-42.9-25.2-57.5-24.6c-28.6,1.2-46,1.4-43.3,46.7
		c1.8,30.5,15,35.3,43.5,37c12.2,0.8,44.5,8.7,54.6-1.3L404.5,495.6z"/>
	<path class="st42" d="M354.4,387.8c-0.7-1.7-7.8-8.2-12.4-8.2c-3.3,0.1-7.2,1.2-13.2,5.6c-5.1-2-11.4-3.5-14.7-1.1
		c-1.4,1.1-2.6,2.3-3.6,3.7l0,0l0,0.1c-1,1.4-1.9,2.8-2.7,4.3c-4,4.6-12.4,14.4-14.1,18.9c-0.9,2.3,2,7.5,6.1,13.2
		c-1.3,1.1-2.2,2.6-2.7,4.2c-1.3,4.3,2.7,14.1,14.5,10.6c2.8,3.2,4.8,5.4,4.8,5.4l3.6-2.5l-0.6-1.7l4.3-3l-2.6-2.7
		c1-0.8,2.1-1.6,3.2-2.3c4.2-3.1,8.9-7.5,13-10.8c1.9-1.5,6.7-2,8.6-3.4c-0.8-0.7-1.8-1.2-2.8-1.5l1.6-1.1c1.6,0.8,2.9,1.5,3.4,1.9
		c1.7-1.2,6-2.1,7.7-3.4c0.2,0.5,0.5,1,0.7,1.5c1.6-1.1,4.8-2.3,6.3-3.5c0.3-7.4-2.4-14-8.9-17.9
		C354.3,391.5,354.7,388.6,354.4,387.8z M301.6,430.3c-0.3-1.2-0.4-2.4-0.3-3.6c1.7,2.3,3.5,4.6,5.3,6.8
		C304.4,433.2,302.1,432.5,301.6,430.3z M349.8,387.3c-0.4,1.6-1.2,3.1-2.2,4.4l-0.5-0.1c-2.8-0.8-5.6-1.5-8.5-2
		c1.1-1.6,2.4-3,3.7-4.4C344.8,383.6,350.1,385.1,349.8,387.3L349.8,387.3z"/>
	<path class="st5" d="M392.5,435.1l0.2,0.2c-0.1-0.1-0.1-0.2-0.2-0.3L392.5,435.1z M400.5,437.2c0.1,0.1,0.2,0.2,0.4,0.4v-0.1
		C400.9,437.4,400.5,437,400.5,437.2L400.5,437.2z M345.2,510.6c7.2,8.1,19.9,14.2,28.5,15.9c4.2,0.8,7.8,2.2,12.3-0.6
		c11.2-7,22.8-20.5,22-34.4c-0.1-2.6-1.4-7.4-1-9.9c0.4-2.8,1.1-16.4-0.9-25.2c-2.5-10.7-5.4-16-5.4-16c-0.3-1.8,4.1-0.7,3.2-2.2
		l-0.8,0c0.2,0.2,0.4,0.4,0.4,0.7c-1-0.3-1.9-0.7-2.6-1.4l0,0c-1.2,0.3-2.5-0.1-3.2-1.1c0,0.2,0.2,0.5,0.4,0.5c-1.1,0-2.2-0.4-3-1.2
		c0,0.2,0.2,0.5,0.1,0.7c-0.9-0.3-1.7-0.7-2.4-1.2c0.2,0.2,4.5-0.2,4.5,0c-1.2,0.1,0.1,0.6-0.8-0.4l-0.9-0.7c-1,0.1-1,0.7-1.7,0
		c0.2,0.2-0.4-2-0.4-1.8c-1.1-0.1-0.8-0.1-1.8-0.7c0,0.2-3.2,1-3.2,1.1c-1-0.1-0.8,0.8-1.5,0.1c0.2,0.2,0.7-0.7,0.9-0.5
		c-1.2,0.1-1.6,0.8-2.6-0.1c0.2,0.2-3.7-2.2-3.7-2.2c-1.2,0.1-1,0.5-1.9-0.3c0.4,0.4-5.3-0.6-5.1-0.3c-1,0,1.6,3.6,0.9,3.1
		c-0.8-0.1-1.5-0.4-2.2-0.7c-1,0.1,0.4,1.1-0.3,0.3c0,0.2,0.1,0.7,0.4,0.7c-1.3,0.4-2.6,0.1-3.6-0.8c0.4,0.4,0.5,0.7,0.7,0.9
		c-0.9,0.1-1.9-0.1-2.7-0.7c0,0.2,0.3,0.7,0.5,0.8c-1.1,0.3-2.2,0.1-3.1-0.5c0,0.2,0.4,0.5,0.5,0.7c-0.8,0.2-1.6,0-2.3-0.5l0.5,0.8
		c-0.8,0.1-1.7,0.1-2.5-0.2c0,0.2,0.4,0.4,0.4,0.6c-0.7,0-1.3-0.1-1.9-0.3c0,0.2,0.5,0.6,0.4,0.6c-0.8,0-1.4,0.3-2.3-0.1
		c0.2,0.2,0.4,0.5,0.5,0.7c-0.8,0.1-1.6,0-2.3-0.3c0,0.3,0.2,0.5,0.3,0.7c-0.8,0-1.4,0.3-2.3-0.1c0,0.2,0.4,0.6,0.5,0.7
		c-0.8,0-1.5,0-2.3-0.1c0,0.2,0.4,0.4,0.5,0.6c-0.8,0.1-1.7-0.1-2.5-0.3c0,0.4,0.2,0.5,0.1,0.7c-0.6,0-1-0.2-1.5-0.3l-1,0.3
		c-2.9,3.4-10.5,10-10.5,10c-6.3,4.4-6.9,12.7-6.9,16.1s3.3,17.1,3.3,17.1c-0.9-1.3-1.6-4.2-2-5.6c-0.5-1.3-1.3-2.7-1.8-4
		c-1.6-2.9-5.5-2.3-7.7-0.6l-0.4,0.6c-3.2,3.8-2.9,13.8,2.2,20.8c0.2,7.5,7.5,11.6,9.6,6.1l0.9,3"/>
	<path class="st38" d="M387.2,496.4c-1.5,0.5-3.1,0.3-4.4-0.5c-0.3-0.2-1.2-0.1-0.8,0.2c1.8,1.1,4,1.3,6,0.6
		c0.2-0.1,0.1-0.2-0.1-0.3C387.7,496.3,387.4,496.3,387.2,496.4"/>
	<path class="st38" d="M381.4,495.7c-0.8-0.4-1.8-0.7-2.7-0.8c-0.1,0-0.3,0-0.4,0.1c-0.1,0.1-0.1,0.1,0,0.2c0.5,0.3,1,0.4,1.5,0.4
		c0.2,0,0.3,0,0.5-0.1c0.1-0.1-0.1-0.2-0.2-0.2c-0.4,0-0.8-0.1-1.2-0.3c-0.1,0.1-0.3,0.2-0.4,0.3c0.8,0.1,1.7,0.3,2.4,0.7
		c0.2,0.1,0.3,0.1,0.5,0C381.5,496,381.6,495.8,381.4,495.7"/>
	<path class="st38" d="M377.7,495.6c-1.1,0-2.2-0.6-2.9-1.4c-0.8-1.2,0.1-3.2,1.5-4c0.1-0.1,0.1-0.2-0.1-0.2c-0.2,0-0.4,0-0.6,0.1
		c-1.2,0.7-2,2-2,3.4c0.1,1.1,1.1,1.9,2.4,2.2c0.4,0.1,0.8,0.2,1.2,0.2c0.2,0,0.5,0,0.5-0.1S377.8,495.7,377.7,495.6"/>
	<path class="st38" d="M389.2,496c-0.1-0.1,0.1-0.2,0.1-0.2c0.3,0,0.6,0,0.9-0.2l0.3,0.4c-0.6,0-1.2,0.2-1.8,0.5
		c-0.1,0.1-0.3,0-0.4-0.1c-0.1-0.1-0.1-0.2,0-0.3"/>
	<path class="st38" d="M388.4,496.1c0.6-0.3,1.3-0.5,2-0.6c0.1,0,0.2,0.1,0.3,0.1c0.1,0.1,0.1,0.2,0,0.2c0,0,0,0,0,0"/>
	<path class="st38" d="M391.5,496.2c0.8,0,1.6-0.5,2-1.2c0.5-1.2,0.3-2.6-0.7-3.5c-0.1,0-0.1-0.1,0-0.2c0,0,0.1-0.1,0.1-0.1
		c0.1,0,0.3,0,0.4,0.1c0.8,0.8,1.2,1.9,1,3c-0.1,1-0.8,1.7-1.8,2c-0.3,0.1-0.5,0.1-0.8,0.1c-0.1,0-0.3-0.1-0.4-0.2
		S391.4,496.3,391.5,496.2"/>
	<path class="st37" d="M331.8,483.2c-0.9-2.4-2.1-4.7-3.4-6.9c-0.7-1.1-1.6-2.1-2.6-3c-0.4-0.4-0.9-0.6-1.4-0.8
		c-0.6-0.1-0.8,0.4-1.1,0.8c-1,2.1-1.3,4.4-0.8,6.6c0,0.2,0.7,0,0.6-0.2c-0.4-1.8-0.3-3.6,0.3-5.4c0.2-0.6,0.5-1.2,0.9-1.8l-0.4,0.2
		c-0.1,0,0,0,0,0s0.1,0,0.2,0.1c0.4,0.1,0.7,0.3,1,0.6c1.4,1.3,2.6,2.8,3.4,4.4c1,1.8,1.8,3.6,2.5,5.5
		C331.3,483.6,331.9,483.4,331.8,483.2L331.8,483.2z"/>
	<path class="st36" d="M409.1,465c-4.4-2-7.3-2.3-15.1-2.2v0.2l-0.3,1.4c-0.2,0.8-0.4,1.5-0.5,2.3c2.6-0.1,4.5-0.4,6.1-0.3
		c3.1,0.2,6.7,0,9.6,1C408.9,466.6,409,465.8,409.1,465z"/>
	<path class="st36" d="M374.6,460.5c0.1,1,0,0.5,0.2,1.5c0.1,0.8,0.2,1.5,0.3,2.3c-2.6-0.3-4.4-0.8-6-0.9c-3.2-0.1-7-0.7-10.1,0.2
		c-1.5,0.4-3.6,1.1-4.6,2.6c-0.2,0.4-0.6,1.8-1.3,1.6c-0.3-0.1,0-1.4,0-1.5c0.5-2.6,2.5-4,5.1-4.9c5.2-1.9,8-2.1,16.4-1.2"/>
	<path class="st35" d="M328.5,495.3c-2,1.1-2.7,3.6-1.7,5.6c0.8,1.6,2.6,2.4,4.4,2c1.4-0.2,2.6-1,3.3-2.2c0.2-0.4-0.7-0.4-0.9-0.1
		c-0.5,0.9-1.3,1.5-2.3,1.7c-0.4,0.1-0.9,0.1-1.3,0c-1.9-0.6-3.1-2.6-2.5-4.6c0.3-0.9,0.9-1.7,1.7-2.2c0.2-0.1,0.2-0.3,0.1-0.4
		C329,495.1,328.7,495.1,328.5,495.3L328.5,495.3z"/>
	<path class="st37" d="M331.7,483.2c-1,0-2.6,0.1-2.5,1.5s0.9,2.5,1,3.8c0,0.5-0.2,1.6-0.8,1.6c-0.7,0-1.5-1.1-1.8-1.6
		c-0.9-1.4-1.3-3.1-1.1-4.7c0.2-1.6,0.6-4.1,2.3-4.8c0.4-0.2,0-0.2-0.2-0.2c-1.7,0.6-2.3,2.4-2.6,4c-0.3,1.5-0.2,3.1,0.4,4.6
		c0.5,1.2,1.7,3.5,3.3,2.8c1.4-0.6,1.1-2.3,0.8-3.5c-0.3-0.7-0.5-1.4-0.6-2.2c-0.1-0.3,0-0.6,0.1-0.8c0.3-0.4,0.8-0.3,1.2-0.3
		C331.5,483.4,332,483.2,331.7,483.2L331.7,483.2z"/>
	<path class="st36" d="M400.2,473.5c1.1-0.4,2.3-0.1,3.1,0.8c0.4,0.4,0.7,0.8,0.8,1.4c0.2,0.9-0.2,1.9-0.9,2.6
		c-0.8,0.8-2.1,0.9-3.1,0.4c-1.2-0.7-1.7-2.2-1.2-3.5C399.1,474.4,399.5,473.8,400.2,473.5"/>
	<path class="st36" d="M390.6,477c0,0,5.7-3.9,8.5-4c3.6-0.1,6.9,1.5,9.1,4.4c0,0-5.2-3.7-8.1-3.5S390.6,477,390.6,477z"/>
	<path class="st36" d="M368.3,471.8c-1-0.5-2.3-0.4-3.2,0.4c-0.4,0.3-0.7,0.8-0.9,1.3c-0.3,0.9-0.1,1.9,0.5,2.7
		c0.7,0.9,1.9,1.1,3,0.7c1.3-0.6,2-2,1.7-3.4C369.3,472.8,368.8,472.2,368.3,471.8"/>
	<path class="st36" d="M374.9,476.1c0,0-5.6-4.6-8.5-5c-5.3-0.9-10.5,1.9-12.2,3.8c0,0,8-3.5,11-3S374.9,476.1,374.9,476.1z"/>
	<path class="st42" d="M401.2,439.6c0.5,4.9,7.3,1.2,3.8-0.2c0.6-2.3-2.7-3.5-2.4-5.9c-0.1,0.1-0.2,0.2-0.3,0.4c0,0,0.1-2.9-0.8-3.6
		s-5.1-3.2-5.1-3.2l-1.4,0.9c0-0.1,0.6-1-0.1-1.6s-7.7-4.9-12.4-4.9c-0.2,0-0.3,0-0.5,0l-2,0.9h-0.1h0.1c0.4-0.2,1.1-0.6,0.8-1.1
		c-0.2-0.2-0.5-0.4-0.8-0.4c-0.9-0.2-1.9-0.4-2.8-0.5h-0.3h-0.3l0,0c-1-0.1-1.9,0-2.9,0.1c-0.3,0-0.6,0.1-0.9,0.3
		c-0.4,0.4,0.3,0.9,0.6,1.2h0.1h-0.1l-1.9-1.1l-0.5-0.1c-4.7-0.6-12.2,2.8-12.9,3.4s-0.3,1.5-0.3,1.6l-1.3-1.1
		c-2.3,0.7-4.5,1.5-6.8,2.5c-0.7,0.6-1.3,1.4-1.5,2.3c-0.8,0.3-1.6,0.3-2.4,0.3c-0.6-0.2-3.9,1.2-5.3,3c-0.9,1.2-0.7,2.3-1.2,3.4
		l0,0c-0.3,0.6-0.4,1-0.4,1l-3.4,0.9c-2.7,1.1-2.4,6.6-2.4,6.6c-5.6,6-6.2,11.4-4.2,17.4c0.8,2.3-5.8,4.2-1.7,4.4s6.8,13.5,6.8,13.5
		s3.9-4.9,4.2-7.2s-0.4-9.5-0.4-9.5l2-0.2c0,0,1.3-0.4,2.9-3s-0.8-7.5-0.8-7.5l-0.6-2.9l3.9,0.5c3.8-0.4,4.3-4.5,4.3-4.5l-0.2-6.9
		l2.1,2.4c0.5,0.7,1.3,1.1,2.1,1.1c5.9-0.1,6.8-3.7,6.8-3.7l1-3.4l1.4,1.1c1.5,1.4,6.2,3.7,8.7,2.8c0.7-0.2,3.5-2.2,4-2.4
		c1.6-1,2-3.2,2.1-4c-0.2-0.2-0.4-0.5-0.6-0.8c-0.8-1-1.2-0.6-0.4,0.4c1.4,1.7,3.7,4,5.8,4.3s6.6-0.4,7.2-1.3
		c0.4-0.6-0.2-0.7,0.5-0.7c0.7,0.1,1.2,0.5,1.6,1.1c0.9,1.2,1.5,2.9,2.9,3.7c2,1.2,3.3,0.1,5.4-0.2
		C400.6,438.9,401,439.2,401.2,439.6z"/>
	<path class="st43" d="M406.3,436.1c0,0,1.7-4.3-0.7-7s-11.6-13.6-28.5-14.6L406.3,436.1z"/>
	<path class="st44" d="M312.9,440.9c0,0-13.5,6.6-18.5-4.2s10.2-13.6,10.2-13.6"/>
	<path class="st44" d="M325.5,384.1c0,0,7.2-10.3,15.9-7.9s2.2,16.5,2.2,16.5"/>
	<path class="st41" d="M382.4,502.7c-5.4-0.2-14.1-1.3-14.1-1.3s1.2,13.8,13.7,14.3s14.5-13.1,14.5-13.1S387.8,503,382.4,502.7z"/>
	<path class="st45" d="M382.5,502.7c-2.6-0.1-12.9-1-12.9-1s3.3,8.7,12.6,9.1c5.6,0.5,10.9-2.7,13.1-7.9L382.5,502.7z"/>
	<path class="st46" d="M382.6,503.1c-2.6-0.1-10.4-0.9-10.4-0.9s2.7,3.1,10.4,3.4s10.3-2.5,10.3-2.5L382.6,503.1z"/>
	<path class="st41" d="M397.2,501.8c-1,0.2-2,0.2-3,0.2c-2.1-0.3-3.4-0.9-5-1.1c-2.6-0.3-4.3,0.7-5.5,0.6s-2.8-1.2-5.4-1.1
		c-1.5,0.1-5.4,0.5-7.5,0.6c-1-0.1-2-0.2-3-0.5c-0.4,0.1,0.2,3.1,14.6,3.7S397.6,502,397.2,501.8z"/>
	<path class="st47" d="M512,383.7l0.1,0.5l0.1,0.5c-0.1-0.2-0.1-0.3-0.1-0.5C512,384,512,383.8,512,383.7z"/>
	<path class="st7" d="M475.4,488.7c2.4,2.3,4.6,4.7,7.1,6.9c0,0,0.1,0.1,0.1,0.1c0.1-0.2,0.3-0.2,0.5-0.1c0,0,0,0,0,0
		c1.7,1.5,4.5,1.8,6.1,3.5c1.4,1.4,1.2,3.7,1.7,5.6c1.4-0.1,3.4-0.6,5.1-0.9c11.8-2.8,11.2-4.6,25.5-17.4c4.5-4,2.5-7.7,3.3-8.7
		C508.5,480.9,492.4,485,475.4,488.7z"/>
	<path class="st5" d="M532.8,461.5l-2.2-21.6l-4.1-23.8l-13.2-15.9l-18.6-4.5l-18.9,4.8c0,0-14.5,7.1-19,9.4s-8.6,3.3-10.5,10.6
		s4,23.6,4,23.6c0.2,0.8,0.5,1.6,0.9,2.3c1.9,4.2,3,8,4.5,11.1c0.7,1.4,1,2.9,0.9,4.5c-0.6,6.1,0,8.6,1.2,12c1.4,4.3,3.4,8.3,6,11.9
		c2.7,3.6,6,7.4,6.7,8.1c0,0,7.2,7.8,8.5,8.4c1.2,0.6,2.6,0.9,4,1c0.8-0.1,11.5-1.7,11.5-1.7l4.8-1.2c1.6-0.4,3.2-1.1,4.6-2.1
		c3.7-2.7,14.2-10.8,16.9-13.7c3.6-4,6-17.7,6-17.7"/>
	<path class="st5" d="M532,462.2c6.8,4.3,7.9-7.3,7.9-7.3c3.8-7.6,2.2-14.4,0.9-19s-6.2-4.1-6.2-4.1c-4.2,1.5-5.8,5.1-6,20.6"/>
	<path d="M449.7,413.7c2-5.8,6.6-10.6,9-16.3c1.6-0.5,9.8-2.7,11.5-3.1c17.5-4.9,43.6-0.3,47.4,5.6c2.4,3.7,6.5,25.7,6.2,27.9
		c-0.5,4.4-0.5,8.9,0,13.3c-2.6-8-10.6-15.8-12-18.4s-0.8-16.8-1.8-17.2c-11.9-2.7-24.2-2.6-36.1,0.2c-5.3,1.3-10.7,1.8-15.2,3.5
		C458.7,409,449.7,413.7,449.7,413.7z"/>
	<path d="M491.5,443c0.8-0.8,2-1,3.1-0.6c0.5,0.2,0.9,0.6,1.1,1.1c0.4,0.9,0.4,1.9,0,2.7c-0.6,1-1.7,1.5-2.9,1.2
		c-1.4-0.4-2.3-1.6-2.2-3C490.7,443.8,491,443.3,491.5,443"/>
	<path d="M460.8,450.7c-1.1-0.2-2.3,0.3-2.9,1.3c-0.3,0.4-0.5,0.9-0.5,1.5c0,1,0.5,1.9,1.3,2.4c1,0.6,2.2,0.5,3.1-0.2
		c1-0.9,1.3-2.5,0.6-3.7C462,451.3,461.4,450.9,460.8,450.7"/>
	<path d="M471,452.8c0,0-5.4-3.3-8.6-2.8c-4.7,0.7-5.7,2-6.8,4.6c0,0,2.5-3,5.8-3.4S471,452.8,471,452.8z"/>
	<path d="M485.3,447.8c0,0,5.6-5.6,8.8-6.4c4.6-1.2,10.8,0.3,12.8,2.2c0,0-8.2-2.4-11.5-1.5S485.3,447.8,485.3,447.8z"/>
	<path d="M478.7,432.6c0.4,1.1,0.8,2.1,1.1,3.2c0.3,0.8,0.9,2.7,1.2,3.5c2.4-1.6,4.4-3.4,6-4.3c3.2-1.8,6.3-3.8,9.9-4.4
		c1.6-0.3,3.3-0.3,4.9,0c0.5,0.1,2.1,0.9,2.6,0.3c0.2-0.2-0.7-1.4-0.8-1.5c-1.8-2.4-4.5-2.7-7.5-2.4
		C490,427.9,484.1,429.8,478.7,432.6"/>
	<path class="st38" d="M478,470.3c1.7,0.3,3.5-0.2,4.7-1.5c0.2-0.3,1.3-0.3,1,0c-1.7,1.6-4.1,2.3-6.5,1.9c-0.2,0-0.2-0.2,0-0.3
		C477.5,470.3,477.7,470.3,478,470.3"/>
	<path class="st38" d="M484.2,468.3c0.8-0.7,1.8-1.2,2.8-1.5c0.2-0.1,0.3-0.1,0.5,0c0.1,0.1,0.1,0.2,0,0.2c-0.4,0.4-1,0.7-1.5,0.8
		c-0.2,0.1-0.4,0-0.5-0.1c-0.1-0.1,0-0.2,0.2-0.3c0.5-0.1,0.9-0.3,1.2-0.6l0.5,0.3c-0.9,0.3-1.7,0.7-2.5,1.3
		c-0.2,0.1-0.4,0.1-0.6,0.1C484.2,468.6,484,468.4,484.2,468.3"/>
	<path class="st38" d="M488.3,467.5c1.2-0.3,2.3-1.1,2.8-2.3c0.5-1.6-0.8-3.6-2.5-4.1c-0.2-0.1-0.1-0.2,0-0.3c0.2-0.1,0.5-0.1,0.7,0
		c1.5,0.5,2.6,1.8,2.9,3.4c0,1.4-0.9,2.6-2.2,3.1c-0.4,0.2-0.8,0.4-1.3,0.5c-0.2,0-0.5,0.1-0.6,0S488.1,467.5,488.3,467.5"/>
	<path class="st38" d="M475.7,470.2c0-0.1,0-0.2-0.1-0.2c0,0-0.1,0-0.1,0c-0.3,0.1-0.7,0.1-1-0.1c-0.1,0.2-0.1,0.3-0.2,0.5
		c0.7-0.1,1.4,0,2,0.2c0.1,0,0.3,0,0.4-0.1c0.1-0.1,0.1-0.3,0-0.3"/>
	<path class="st38" d="M476.6,470.2c-0.7-0.3-1.5-0.4-2.3-0.2c-0.1,0-0.2,0.1-0.3,0.2c-0.1,0.1,0,0.2,0.1,0.2c0,0,0,0,0,0"/>
	<path class="st38" d="M473.2,471c-0.9,0.2-1.9-0.2-2.4-1c-0.8-1.3-0.8-2.9,0-4.2c0.1-0.1,0-0.2-0.1-0.2c-0.2,0-0.3,0.1-0.4,0.2
		c-0.7,1.1-0.9,2.4-0.5,3.6c0.3,1.1,1.3,1.9,2.4,2c0.3,0,0.6,0,0.9,0c0.2,0,0.3-0.1,0.3-0.3C473.5,471,473.4,471,473.2,471"/>
	<path class="st38" d="M534.2,443.7c1.6,0.3,2,2,2,3.5c0.1,1.5,0,3.1-0.4,4.6c-0.2,0.6-0.7,2.4-1.5,2.4s-0.8-1.4-0.8-1.9
		c0.1-0.7,0.2-1.4,0.3-2c0.1-0.5,0.2-1,0.1-1.5c-0.4-1-1.8-0.1-2.3,0.2h0.4c-0.1-0.3-0.1-0.7-0.2-1c0-0.7,0.1-1.4,0.3-2.1
		c0.2-1.3,0.5-2.7,0.8-4c0.3-1.4,0.8-2.8,1.5-4.1c0.1-0.3,0.3-0.5,0.6-0.6c0.1-0.1,0.1-0.1,0.2,0c0.2,0.1,0.4,0.2,0.6,0.4
		c1.8,1.4,2.9,3.6,2.8,5.8c0,0.3,0.5,0.2,0.5,0c0.1-2.2-0.8-4.3-2.5-5.8c-0.3-0.3-0.6-0.5-1-0.7c-1.6-0.5-2.4,2.8-2.7,3.7
		c-0.4,1.5-0.8,3-1.1,4.6c-0.2,0.9-0.4,1.9-0.5,2.8c0,0.4,0.1,0.8,0.2,1.2c0,0.2,0.3,0.1,0.5,0c0.3-0.2,1.1-0.8,1.4-0.4
		s0,1.4-0.1,1.9c-0.2,1-0.7,3.2,0.6,3.8s2.2-1.5,2.5-2.3c0.5-1.7,0.7-3.5,0.5-5.2c0-1.5-0.6-3.3-2.3-3.6c-0.2,0-0.6,0.3-0.3,0.3
		L534.2,443.7z"/>
	<path class="st41" d="M484.7,477.4c5.4-1.5,14-4.5,14-4.5s1.9,14.2-10.6,17.7s-17.7-9.9-17.7-9.9S479.2,478.9,484.7,477.4z"/>
	<path class="st45" d="M484.6,477.4c2.6-0.7,12.8-4,12.8-4s-1.1,9.6-10.4,12.1c-5.7,1.7-11.8-0.3-15.4-5L484.6,477.4z"/>
	<path class="st46" d="M484.6,477.9c2.6-0.7,10.3-3.3,10.3-3.3s-2,3.8-9.7,5.9s-11-0.1-11-0.1L484.6,477.9z"/>
	<path class="st41" d="M469.5,479.9c1.1-0.1,2.1-0.2,3.1-0.5c2.1-0.8,3.2-1.7,4.8-2.3c2.6-0.9,4.5-0.3,5.7-0.6s2.5-1.9,5.2-2.4
		c1.6-0.3,5.6-0.7,7.7-1.1c1-0.3,2-0.7,3-1.2c0.4,0,0.5,3.1-13.9,7.1S469.1,480.1,469.5,479.9z"/>
	
		<linearGradient id="SVGID_1_" gradientUnits="userSpaceOnUse" x1="11679.3174" y1="624.4521" x2="11690.3174" y2="720.4122" gradientTransform="matrix(0.99 -0.23 -0.23 -0.97 -10918.457 3785.7473)">
		<stop  offset="0.16" style="stop-color:#A66E53"/>
		<stop  offset="0.53" style="stop-color:#A66E53"/>
		<stop  offset="0.62" style="stop-color:#7C523E"/>
		<stop  offset="0.75" style="stop-color:#472F23"/>
		<stop  offset="0.86" style="stop-color:#201510"/>
		<stop  offset="0.94" style="stop-color:#090604"/>
		<stop  offset="0.99" style="stop-color:#000000"/>
	</linearGradient>
	<path class="st48" d="M539.5,423.3c-0.6-3.8-1.5-8.6-2-14.5c-1.4-15.3-29.9-21.1-44.6-19.6c-8.1,0.8-33.4,10.8-39.4,15.7
		c-5.7,4.7-10.9,2.2-8.8,14.4c-0.4,5.2,3,16.6,4.2,19.8c-0.8-2.9-2.1-6-1.8-8.8c0,0-2.2-7.9,0.6-11.8c2.1-2.9,2.5-2.6,5.7-4
		c0.2-0.1,0.4-0.2,0.5-0.2c1.1-0.5,2.2-0.9,3.3-1.3c3.2-1,12.2-3.9,16.5-5.4c10-2.9,16.3-3.8,20.8-4.1c3.9,0.6,9.5,6.3,14.4,10.5
		c0.3,4,0.6,8.6,1.4,9.9c1.2,2,6.8,7.1,10.4,13.1l1.7,5c0.2,1,1,3.9,1.6,6.4c0.5,0.2,2.6,4,3.5,3.7c2.3-0.6,1.1-6,1.2-8.3
		c0.3-3.5,0.6-6.5,2.8-9.5c1-1.1,2.4-1.7,3.9-1.9c1.6-0.4,3.1,0.6,4.1,1.5L539.5,423.3z"/>
	<path class="st49" d="M535.4,399.8c-0.8-4.3-6.1-11.3-9.9-13.8c-9-5.9-24.5-5.8-34.8-5c-14.9,1.1-37.5,5.6-44,21.1
		c-1.5,3.3-2.5,6.8-2.8,10.4c0.4,0.9,1.3,1.4,2.2,1.3l50.3-15.2c8.3-1.9,17.4-3.7,25.1-0.2c3.5,1.6,6.6,4.2,10.4,4.8
		c1.3,0.2,4.2,6,4.8,4.9C536.9,407.3,535.5,400.5,535.4,399.8z"/>
	<path d="M448.1,441.9l1.5-1.2c4.2-3.1,8.9-5.3,14-6.5c0.5,1,0.5,2,0.9,3.1c0.3,0.8,0.5,2.3,0.8,3.1c-2.4,0.2-3.7,0.3-5.2,0.6
		c-3,0.6-6.2,1.2-8.7,2.9c-0.2,0.1-1,0.5-1.2,0.7C448.1,444,447.9,442.3,448.1,441.9z"/>
	<path d="M446.1,451.9l0.4,0.8c2.4,4.8,5.1,9.9,6.9,11c1.2,0.7,3.4,0.5,6.1,0.1c1-0.1,1.9-0.3,2.6-0.4s7.8-1.4,8.7-2.8
		s1.1-9.8,1.1-12.4l6-1.6c1.2,1.8,4.6,9.9,8,11s18.3-3,19.2-5.4c1.2-3.5,2-7,2.4-10.7l0.5-3.9l21.8,0.1l1.1-2.2l-23.5,0.3l0,0
		c-11.9-1.3-23.9,3.5-29.7,9.3l-5.8,1.6v-0.1c-8-3.5-18.5-1.7-26.4,4.2l0.4,0.9 M469.9,459.9c-1,1.3-13.9,4-15.9,2.8
		c-1.7-1.1-5.2-7.9-6.5-10.5v-0.1c7.1-4.9,16.5-6.5,23.4-3.5C470.8,453.1,470.5,459.1,469.9,459.9L469.9,459.9z M503.1,451.9
		c-0.6,1.5-13.5,5.6-16.9,4.5c-2.4-0.8-5-6.7-6.8-10c5.6-5.5,18.7-10.3,26.7-8.6C505.8,442.5,504.9,448.1,503.1,451.9L503.1,451.9z"
		/>
</g>
</svg>
