<svg xmlns="http://www.w3.org/2000/svg" viewBox="0 0 1303.15 1057.31"><defs><style>.cls-1{fill:#f2ebd1;}.cls-2{fill:#956243;}.cls-3{fill:#82a8b3;}.cls-4{fill:#684133;}.cls-5{fill:#151210;}.cls-6{fill:#010101;}.cls-26,.cls-7{fill:none;}.cls-7{stroke:#010101;stroke-width:1.88px;}.cls-23,.cls-25,.cls-26,.cls-7{stroke-miterlimit:10;}.cls-8{fill:#653c29;}.cls-9{fill:#31160e;}.cls-10{fill:#f1eef7;}.cls-11,.cls-23{fill:#557c81;}.cls-12{fill:#825639;}.cls-13{fill:#231f20;}.cls-14{fill:#161312;}.cls-15{fill:#171514;}.cls-16{fill:#181615;}.cls-17{fill:#714534;}.cls-18{fill:#191716;}.cls-19{fill:#040404;}.cls-20{fill:#fff;opacity:0.14;}.cls-21{fill:#513835;}.cls-22{fill:#745245;}.cls-23{stroke:#557c81;}.cls-24{fill:#df8c26;}.cls-25{fill:#b26b29;stroke:#b26b29;}.cls-26{stroke:#684133;stroke-width:2px;}</style></defs><g id="Layer_11" data-name="Layer 11"><polyline class="cls-1" points="0 1057.31 0 0 1303.15 0 1303.15 1057.31"/><path class="cls-2" d="M374.71,287.89S385.9,337.68,354.56,384c-3,4.45-26.28,21.44-26.28,21.44l29.74,10C385.48,425.87,449,434.8,477.6,430.15l24.78-9.62s-28-10.42-28.56-16.73S485,352.21,485,352.21"/><path class="cls-2" d="M479.92,410,354.56,399l-35.62,32.54s32.05,36.31,35.6,38.32S442.31,502,442.31,502s101.92-19.26,100.56-19.19S479.92,410,479.92,410Z"/><g id="freepik--Character--inject-2"><path class="cls-3" d="M623,583.34l-4.39-83.82s-17.82-25.91-46-38.72c-16.77-7.63-55.72-17.67-65.69-22.14,1.06,14.08-3.82,26.14-14.16,32.53a79.24,79.24,0,0,1-48.61,11.35c-16.24-1.47-32.15-7-46.74-14.18-27.28-13.36-53.26-45.9-56.27-77.67L314.5,401.14S213,430.1,201,439.19c-21.29,16.13-41.18,362.93-41.18,362.93L144.11,914.53c-4.9,14.34-30.5,53.91-18.12,142.78,0,0,237.82-3.3,270.12,0,37.52,3.83,184.95,0,184.95,0C592.63,1040.55,623,583.34,623,583.34Z"/><path class="cls-2" d="M877.93,665.91s2.27-41.57,12.53-57.88c2.88-4.58,13-53.68,13-53.68s13.27-2.19,12.78,18.06-1.17,28.52-1.17,28.52l2.44,5.55L948.39,592s32.33-22.16,40.59-26.79,25.52-15.36,34.46-7.09c0,0,12.19-8.84,17-3.52a10.79,10.79,0,0,1,3.73,9.28l-4.68,5.64s4.24-.86,6.15,6.19-47.12,49.19-47.12,49.19l-1.08,4s37.31-22.76,40.47-20.19,6.18,4.26,1.87,9.92S943.28,699.44,931,705.85s-14.84,8.26-14.84,8.26l-46-40.92Z"/><path class="cls-4" d="M1036.07,569.51a207.68,207.68,0,0,1-25.46,21.55,207.53,207.53,0,0,1-27.07,19.4A204.78,204.78,0,0,1,1009,588.92,206.5,206.5,0,0,1,1036.07,569.51Z"/><path class="cls-4" d="M1024.32,559.16c.37.65-11.79,8.61-26.08,19.37s-25.44,20.13-26,19.56a130.19,130.19,0,0,1,24.3-21.75A126.16,126.16,0,0,1,1024.32,559.16Z"/><path class="cls-3" d="M774.35,771c39.95,15.15,43.73-91.71,52.73-133.48-13.63-3.55-27.61-16.16-39-23.84-23.17-15.59-46-31.67-68.79-47.82-28.58-20.25-56.47-41.51-85.93-60.49a492.71,492.71,0,0,0-45.83-26.44c-13.5-6.77-26.65-13.33-41.86-14.63s-11.18-.79-26.34,1.75L509.19,639.27s87.34,65.08,129.57,66.55c1.58.06,43.12,19.78,44.94,19.72C683.82,724.43,730,754.16,774.35,771Z"/></g><path class="cls-2" d="M561.34,966.18l58.41,32.19,43.56,11.78a357.08,357.08,0,0,0,38.77,17.13c6.2.87,6.87-2.91,7.15-5.87s-26.38-21.78-26.38-21.78,38.87,20.66,46.8,19.36,8-8.31,7.07-12.65-65.31-32.59-65.31-32.59l29.06,6.55s33.21,22.29,43.29,22.14,10.59-12.94,10.59-12.94l-41.73-25-13.87-9.65,16.72,4.91s29.95,18.14,38.94,15.72,4.65-13.93,4.65-13.93L716.8,933.32l-50.48-20.5a72.35,72.35,0,0,0,20.56-6c9.38-4.68,3.31-7,3.31-7l-46-15.39-62.66,12.75Z"/><path class="cls-4" d="M560.32,967c13.49,7.68,32.82,18.55,57.14,32.24L661.29,1011A382.38,382.38,0,0,0,699,1027.81a10.7,10.7,0,0,0,6.24-.06,7,7,0,0,0,3.81-5.9,4.64,4.64,0,0,0-.18-2.34,9.54,9.54,0,0,0-1.1-1.68c-.72-.69-.75-.76-2.19-2.12s-2.9-2.57-4.38-3.84c-1.24-1-2.76-2-4.38-3.1,5,2.34,9.73,4.5,13.48,6.12a61.27,61.27,0,0,0,16.65,5.22,9.86,9.86,0,0,0,8.79-4.58,13.71,13.71,0,0,0,.94-10.65,5.58,5.58,0,0,0-2.2-2.36,18.07,18.07,0,0,0-2-1.31c-.77-.53-1.57-1-2.37-1.4,2.52,1.11,5.06,2.17,7.64,3.09a11.29,11.29,0,0,0,11.85-2,19,19,0,0,0,4.69-11.78l.11-1.13-1.08-.62-36-21.59c-5.17-3.08-10-5.7-14.74-8.24l10.45,3.62A182.51,182.51,0,0,0,740,974.38a44.28,44.28,0,0,0,7.17,2.2A15.67,15.67,0,0,0,751,977a9.72,9.72,0,0,0,4.12-1,9.22,9.22,0,0,0,5-7.33,18.86,18.86,0,0,0-.9-7.93l-.18-.5-.16-.43-42.3-28.14-45.92-18.5a65.87,65.87,0,0,0,17.6-6.18,20.59,20.59,0,0,0,2.51-1.76,4.78,4.78,0,0,0,1.77-3.52,4,4,0,0,0-2.41-3.11l-2.64-.85-9.79-3.21c-12.61-3.91-24.08-7.89-34-11.22-16.47,4.52-29.45,5.65-38.34,8.11-4.11,1.21-7.53,1.79-9.78,2.77a13.31,13.31,0,0,0-3.19,1.39,24.71,24.71,0,0,0,3.39-.65c2.42-.55,5.66-1.38,9.85-2.38,9-2.18,22-3.14,38.5-7.27l-.33.15,33.76,11.65,9.76,3.31c1.73.5,3.41,1.26,3.47,1.82s-1.58,2.18-3,2.82a64.4,64.4,0,0,1-21.34,6.43l-.33-.14,0,.2h0l-5.14.75,4.84,2L716.13,935l40.66,28.74c1.1,3.91.92,8.55-2.43,10.17-3.6,1.73-8.3-.29-12.66-1.8a190.08,190.08,0,0,1-26.47-13.42l-17.93-6.25a34.32,34.32,0,0,1-2.16,5.5c7.26,4,14.63,8.18,21.59,12.33l35.07,21.05a14.43,14.43,0,0,1-3.32,7.62,8,8,0,0,1-8.51,1.21,114.49,114.49,0,0,1-20.06-9.72c-6.48-3.66-12.75-7.59-18.77-11.45-10-2.3-19.86-4.49-29.06-6.55l-2.62,2.48c11.39,5,24.3,11.37,35.27,16.48,5.54,2.58,10.94,5.22,16.27,7.88l7.9,4.13c1.26.7,2.53,1.39,3.76,2.19l1.75,1.15c.34.21,1,1,1,.82a10.24,10.24,0,0,1-.67,7.2,6.5,6.5,0,0,1-6,2.63,62.1,62.1,0,0,1-15.46-4.9c-10.36-4.31-27.25-11.46-36.8-16.29l-3.94.58c3.09,1.64,7.12,3.67,11.46,5.8,5.89,4.17,11.64,8.45,17,12.74,1.48,1.27,3.07,2.41,4.33,3.69s3.1,2.89,2.43,3.18c-.23,1.85-.73,3-1.86,3.48a7.75,7.75,0,0,1-4.5,0,385.11,385.11,0,0,1-37.33-17l-43.89-11.23L560.32,965"/><path class="cls-4" d="M667.51,913.71a36.69,36.69,0,0,0-39.06-7c.21,1.16,9-.2,19.78,1.61s18.72,6.39,19.28,5.4Z"/><path class="cls-2" d="M993.21,339.3s-1.49,69.22,10.58,93.29c2.93,5.84,44.27,39.53,44.27,39.53L942.9,523.58,833.78,500.86s38.37-42,39.73-49.55-5.44-58.24-5.44-58.24"/><path class="cls-4" d="M838.79,394.61c5.29,6.47,10.23,13.24,15.8,19.48a.88.88,0,0,1,.17.29.9.9,0,0,1,1.35,0c3.89,4.19,10.78,5.94,14.3,10.47,3,3.9,1.9,9.64,2.65,14.63,3.65.21,8.64-.53,13.2-.68,30.62-3.47,30.85-7.4,69.26-36.27,12.19-9.16,8.66-18.73,11-20.83C924.34,384.68,882.76,390.37,838.79,394.61Z"/><path class="cls-5" d="M1017.26,275.2s4.1-19.42,6.86-65.12c2.47-40.91-64.23-68.05-103.07-70.32-21.36-1.24-90.87,14.5-108.22,24.85s-24.45,35.93-23.16,71.46c0,0,7.7-36.17,30.16-37.53,18.32-1.11,76.28-15.94,92.34-10.87s51.38,15.57,58.27,70.83c1.88,15.06,27.14-3.48,35.39,4.91S1017.26,275.2,1017.26,275.2Z"/><path class="cls-2" d="M993.16,342.92l.71-55-3.32-61.17-28.42-43.84-45.42-16.76-49.06,6.43s-38.46,13.66-50.57,18.19S797.71,211.32,791,229.15s-.33,45.69-.33,45.69c-.25,1,1.25,5.21,1.53,6.08,3.59,11.1,5.34,20.93,8.2,29.19a20.85,20.85,0,0,1,.87,11.53c-3.29,15.25-2.59,21.57-.49,30.49,2.86,12.18,6.18,22.46,11.69,31.71,5.84,9.82,13,20.33,14.46,22.39,0,0,15.83,21.72,19,23.69s7.75,3.64,9.84,3.65,29.34-.95,29.34-.95l12.54-1.56a32.49,32.49,0,0,0,12.11-4c10.12-5.79,38.91-22.94,46.59-29.57,10.34-8.93,20.33-42.71,20.33-42.71"/><path class="cls-5" d="M975.94,291.57c.25,4.73,2.31,23.41,2.26,28.05l24.28-3c5.63-16.89,12.44-36.78,14.78-41.39,3.64-7.21.89-40-.14-52.39l-.22-2.66c-1-11.85-14.24-29.44-35.51-47.05-23.41-19.39-62.21-27.73-98.84-21.24-3.48.62-6.95,1.37-10.28,2.22-31.56,8.1-56.51,26.89-74.15,55.86-12.72,20.9-11.38,43.09-8.74,56.43-1.9-26.68,5.47-46.38,5.79-47.21,6.93-19,17.64-25.37,25.4-27.37a26.69,26.69,0,0,1,13.18-.13c8,.93,19.27-1.34,27.37-3.42,6-1.54,10.79-3.11,12.08-3.55,3.83-3.3,9.81-6.06,17.3-8,17.41-4.47,43.35-4,49.45,3.18,6.77,8,23.19,37.36,24,44.53"/><path class="cls-2" d="M991,344.38c15.86,12.92,22.1-16,22.1-16,11.76-18.1,9.66-35.65,7.73-47.59s-15.11-10.19-15.11-10.19c-11.07,2.55-15.36,9.17-20.23,48.1"/><path class="cls-5" d="M797.38,205.58c6.68-14.07,20.69-32.38,28.3-46,4.27-.9,25.55-3.82,30-4.52,45.46-7.09,109.78,12.17,117.56,28.11,4.85,9.94,8.85,66.65,7.45,72-3.84,14.71-3.9,33.4-3.9,33.4-4.3-21-22.13-42.81-24.87-49.85s3-42.59.51-43.77-45.66-9.18-92.16-3.12a349.39,349.39,0,0,0-39.37,7.6C821,199.31,797.3,205.73,797.38,205.58Z"/><path class="cls-5" d="M895.05,282.64c2.6-1.79,6-.95,8.05.44a7.12,7.12,0,0,1,2.53,3,7.32,7.32,0,0,1-.89,6.82,6.8,6.8,0,0,1-7.58,2.32c-3.6-1.16-5.22-5.12-4.75-8.21a6.66,6.66,0,0,1,2.64-4.4"/><path class="cls-5" d="M816.14,294.48c-3-1.1-6.07.56-7.69,2.4a7,7,0,0,0-1.71,3.56,7.32,7.32,0,0,0,2.54,6.4,6.78,6.78,0,0,0,7.91.38c3.21-2,3.81-6.25,2.59-9.12a6.66,6.66,0,0,0-3.64-3.62"/><path class="cls-5" d="M840.46,302.71s-12.62-9.82-20.93-9.55c-12.12.4-14.85,3.48-18.41,9.5,0,0,7.13-6.72,15.67-6.76C825,295.85,840.46,302.71,840.46,302.71Z"/><path class="cls-5" d="M877.83,294.38s15.69-12.43,23.93-13.53c12-1.61,27.14,3.95,31.65,9.31,0,0-20.06-8.43-28.5-7.07C896.84,284.39,877.83,294.38,877.83,294.38Z"/><path class="cls-5" d="M874.48,253.74l1,8.61c.24,2.19.64,7.2.9,9.38,6.79-2.6,12.8-6.05,17.23-7.32,8.8-2.54,17.73-5.75,26.95-5.34a30.94,30.94,0,0,1,12.21,2.71c1.22.57,4.63,3.26,6.25,2.3.67-.4-.86-3.8-1-4.15-3.12-6.86-9.56-9.16-17.23-10-15.63-1.81-30.94.23-46.25,3.85"/><path class="cls-5" d="M790.07,270.17,794.5,268c12.29-6.21,25.48-8.68,39.14-9.64l1.83,8.47c.46,2.16,1.42,6,1.87,8.17-6.36-.53-12-1.56-16-1.5-8,.11-16.42.14-23.87,3.18-.59.24-3.76,1.6-4.32,1.87C789.83,275.13,789.12,271,790.07,270.17Z"/><path class="cls-6" d="M852.83,348.92c3.75,1.45,9.07.34,12.33-2.35.72-.6,3.4-.44,2.39.39-4.31,3.55-12,4.79-16.82,2.92-.48-.18-.45-.55.09-.81a3,3,0,0,1,2-.15"/><path class="cls-6" d="M869,345.74a21.71,21.71,0,0,1,7.42-2.91,1.74,1.74,0,0,1,1.22.23c.25.18.33.45.06.65a8.35,8.35,0,0,1-4.08,1.52,1.66,1.66,0,0,1-1.37-.36c-.28-.34.13-.63.48-.67A6.45,6.45,0,0,0,876,343l1.29.89a19.22,19.22,0,0,0-6.63,2.62,1.61,1.61,0,0,1-1.42,0c-.3-.14-.66-.5-.26-.76"/><path class="cls-6" d="M879.5,344.77c3.09-.47,6.55-2.3,7.78-4.87,1.85-3.89-1-9.29-5.15-11.11-.45-.2-.27-.55.14-.69a2.53,2.53,0,0,1,1.7.14c3.62,1.59,6.38,6,6.3,9.4-.08,3.22-2.77,5.79-6.36,7.17a17.46,17.46,0,0,1-3.37.91c-.47.07-1.33,0-1.61-.32s.13-.57.57-.63"/><path class="cls-6" d="M847,348a.42.42,0,0,0-.47-.55A3.59,3.59,0,0,1,844,347l-.69,1.13a10.7,10.7,0,0,1,5.07,1.17.86.86,0,0,0,1-.28c.18-.2.34-.62,0-.79"/><path class="cls-6" d="M849.36,348.19a11.86,11.86,0,0,0-5.67-1.28,1,1,0,0,0-.78.48.45.45,0,0,0,.09.64"/><path class="cls-6" d="M840.58,349.25a6.39,6.39,0,0,1-5.85-3.17,9.54,9.54,0,0,1,1.14-10.48.38.38,0,0,0-.23-.64,1.15,1.15,0,0,0-1,.48,10.66,10.66,0,0,0-2.21,9.05,7.35,7.35,0,0,0,5.43,5.69,7.42,7.42,0,0,0,2.29.21c.31,0,.84-.24.94-.63s-.19-.53-.48-.51"/><path class="cls-7" d="M996.24,307.59c8.3-25.32,15.65-26.11,15.65-26.11s5.45,5.23,4,16.78"/><path class="cls-7" d="M1000.24,309.48c6.54-1.22,2.53,11.56,4.6,14.3s3.83-5.17,3.85-14.55c0,0-1.06-12.58-7.51-14.34"/><path class="cls-8" d="M866.29,367.05c15.41-2.14,40.14-7.42,40.14-7.42s-.43,31.11-36.15,36.08-44.62-24.85-44.62-24.85S850.88,369.2,866.29,367.05Z"/><path class="cls-9" d="M866.14,367.07c7.33-1,36.69-6.36,36.69-6.36s-7.52,17.53-34,21.21c-28.73,4-39.39-10.76-39.39-10.76Z"/><path class="cls-10" d="M866,368.22c7.33-1,29.46-5.36,29.46-5.36s-6.92,9.13-28.9,12.19-30-3.76-30-3.76Z"/><path class="cls-8" d="M823.72,368.83c.76-.3,5.22.52,8.81-.29,6-1.37,9.57-3.49,13.91-4.44,7.43-1.62,12.6.68,15.86.22s7.62-4.07,15.2-4.53c4.44-.28,15.54-.2,21.68-.52,3.68-.19,7.75-2.2,8.55-2.12,1.12.12.13,8.35-40.87,14.05S822.68,369.25,823.72,368.83Z"/><path class="cls-4" d="M946.16,617s16.36,28.31,2.36,58.86C948.52,675.82,972.84,633.78,946.16,617Z"/><path class="cls-11" d="M710.34,780.84s-21.18,13.54-25.07,36.47C685.27,817.31,689.89,782.36,710.34,780.84Z"/><path class="cls-12" d="M366.72,303.3c0,.16,0,.3,0,.45A.59.59,0,0,1,366.72,303.3Z"/><path class="cls-2" d="M460.41,410.34,512,416.2l26.55-1.94c2.6.44,17.91-24.18,20.19-27.25,7.08-9.52,16.32-22,21.42-32.75,5.46-11.52,14.66-20.82,18.69-35.06,3-10.43,4.12-17.87,1-36.07a24.76,24.76,0,0,1,1.64-13.58c3.83-9.61,6.42-21.14,11.25-34.07.38-1,2.38-5.9,2.14-7.11,0,0,10.82-55.31,3.79-76.75S598.09,118.77,584,112.77s-57.69-10-57.69-10L467.9,85.17l-54.59,17.38-35.16,57.74L371,232.43l-2.1,65.1"/><path class="cls-5" d="M388.73,229.7c-.55,5.58,2.2,34.21,2,39.7l-28.53-4.87c-5.77-20.27-12.76-44.14-15.27-49.72-3.92-8.71,16.68-45.87,18.55-60.42l.41-3.14c1.76-14,18.39-34,44.48-53.73,44.88-33.87,43-34.61,102.37-21.32,4.09.92,8.14,2,12,3.18C561.66,90.63,593.23,94.8,612.54,130c13.92,25.37,5.09-5.21,1.25,10.42,3.67-31.43,5.77-4.74,3.09-8.9-15.72-24.37-28.51-2.81-37.58-5.58a31.51,31.51,0,0,0-15.57-.86c-9.48.68-18.13-1.83-27.59-4.71-7-2.15-24.66-9-26.17-9.6-4.35-4.11,2.7-22.3-6.06-25-20.34-6.21-50.13-1.33-60.87,1.83-12.69,3.73-42.87,11.43-43.71,43.84"/><path class="cls-5" d="M534,406.64a2.41,2.41,0,0,1-.91-.51c-4.9-4.46-5-6.56-7.59-7.61a15.24,15.24,0,0,0-2.75-1.07c-7.53-2.26-12.09-3.78-34.74,6.13-.46.21-27-7.38-27.48-7.5l-12.94-8.73c-2.12-1.81-47.64-53.86-47.64-53.86-.56-1.59-8.41-13.51-8.57-15a3.7,3.7,0,0,0-.46-.31l-.31-.19-.12.27a10.22,10.22,0,0,0-.33,1.82,30.4,30.4,0,0,0,.26,8c.61,4.06.71,8.13,1.17,12.18.17,1.44.4,2.86.68,4.27,5.39,4.62,36,58.2,55.95,72.22,1.35.59,5.57,2.51,17.21,5.31,21.86,5.26,43.24,8.52,66,5.54a19.85,19.85,0,0,0,14.24-9.06c8.83-14,28.34-45.32,35.34-67.26-8,12.11-25,38.07-36.74,55.72-.36.54-8.84-.29-9.57-.19"/><path class="cls-2" d="M374.11,305.74c-26.57,19-25.28-20.08-25.28-20.08-12.93-22-9.51-42.66-6.6-56.67s18.4-11.24,18.4-11.24c12.95,3.61,17.67,11.66,21.35,57.94"/><path class="cls-5" d="M572.89,112c-21.42-3.56-75.6-26.79-104.47-32.95-12-2.55-56.45,21.36-62.67,27.39-14.25,13.8,8,53.67-19.94,100.29-9.25,15.4-14.53-14.75-24.73-5.29s-14.14,13.33-14.14,13.33c.71-48.49.64-46.8,18.1-92.19s71.51-58.18,96.82-58.45S565.35,83.52,585.31,96.68"/><path class="cls-13" d="M372.59,265.56A113.44,113.44,0,0,0,365,244.88a35.7,35.7,0,0,0-6.16-9.15,9.75,9.75,0,0,0-3.54-2.49c-1.77-.59-2.92,1.07-3.82,2.33-3.74,5.28-4.63,12-4.13,18.34.05.68,2.31.22,2.24-.6a29.47,29.47,0,0,1,2.34-14.93,15.68,15.68,0,0,1,3.09-4.53l-1.59.43c.26,0-.12-.09.07,0s.46.18.68.3a10,10,0,0,1,2.43,1.88c3.75,3.68,6.18,8.7,8.21,13.47a132,132,0,0,1,5.54,16.23c.2.73,2.45.13,2.25-.61Z"/><path class="cls-13" d="M367,267.1c-9.13-2-5.55,12.27-7.32,16.81-.09.24-.26.43-.36.65s-.23.05-.08.13c0,0,.5-.09.48,0s-.46-.6-.5-.68a6.92,6.92,0,0,1-.48-1.27,36.23,36.23,0,0,1-1.16-9.16,37.63,37.63,0,0,1,.13-7,40.73,40.73,0,0,1,.93-4.22c1.12-4.06,3.22-10,7.84-11.14,1.4-.34,1-1.9-.41-1.55-4.67,1.13-7.27,5.74-8.79,9.94a31.24,31.24,0,0,0-2,10.1,61.35,61.35,0,0,0,.67,11.17c.27,1.6.62,4.55,2.37,5.32,1.55.69,3.07-.7,3.58-2.08a17.47,17.47,0,0,0,.64-5.49,38,38,0,0,1,.52-7.07,4.71,4.71,0,0,1,1.12-2.47,2.15,2.15,0,0,1,2.06-.26c1.11.24,2.26-1.33.77-1.65Z"/><path class="cls-5" d="M491.73,240.79c-3-2.26-7.07-1.44-9.54.09a8.42,8.42,0,0,0-3.15,3.45,8.64,8.64,0,0,0,.69,8.11,8,8,0,0,0,8.83,3.15c4.32-1.19,6.45-5.78,6.05-9.45a7.91,7.91,0,0,0-2.88-5.35"/><path class="cls-5" d="M586.1,257.59c3.56-1.13,7.15,1,9,3.25a8.47,8.47,0,0,1,1.83,4.3,8.67,8.67,0,0,1-3.35,7.43,8,8,0,0,1-9.37,0c-3.69-2.56-4.17-7.6-2.57-10.93a7.88,7.88,0,0,1,4.49-4.09"/><path class="cls-5" d="M556.73,265.34s15.44-10.93,25.24-10.17c14.31,1.12,17.38,4.91,21.27,12.22,0,0-8.07-8.33-18.17-8.84C575.41,258.06,556.73,265.34,556.73,265.34Z"/><path class="cls-5" d="M511.56,254.1s-17.62-15.84-27.26-17.74C470.22,233.58,452,239,446.23,245c0,0,24.31-8.48,34.18-6.25C489.84,240.91,511.56,254.1,511.56,254.1Z"/><path class="cls-5" d="M524.53,206.58c-.71,3.33-1.44,6.67-2.16,10-.56,2.54-1.64,8.39-2.2,10.93-7.57-3.86-14.12-8.62-19.11-10.65-9.9-4-19.88-8.85-30.64-9.45a35.58,35.58,0,0,0-14.5,1.75c-1.49.53-5.78,3.3-7.55,2-.72-.54,1.47-4.36,1.7-4.76,4.46-7.71,12.22-9.65,21.24-9.79,18.37-.29,35.9,3.91,53.22,10"/><path class="cls-5" d="M617.38,226.67S612,224,611.91,224c-15.18-7.59-31.44-10.75-48.29-12.12q-1.11,5-2.21,10c-.56,2.55-1.72,7.11-2.27,9.65,7.84-.51,14.77-1.64,19.74-1.5,9.84.28,20.24.46,29.43,4.2.73.29,4.64,2,5.33,2.29C617.7,232.56,618.55,227.69,617.38,226.67Z"/><path class="cls-5" d="M498.78,363.47l36.61,4.32s-10.95,12.62-19.82,11.1C510,378,503.63,370.71,498.78,363.47Z"/><path class="cls-6" d="M536.37,318.75c-4.51,1.51-10.73-.09-14.44-3.44-.83-.74-4-.7-2.85.34C524,320.08,533,322,538.81,320c.58-.2.56-.63-.07-1a3.48,3.48,0,0,0-2.37-.29"/><path class="cls-6" d="M517.49,314.13a25.77,25.77,0,0,0-8.62-3.84,2,2,0,0,0-1.45.22c-.3.19-.41.5-.1.76a9.77,9.77,0,0,0,4.74,2,1.91,1.91,0,0,0,1.63-.35c.35-.38-.11-.75-.53-.82a7.67,7.67,0,0,1-3.82-1.63l-1.57,1a22.77,22.77,0,0,1,7.69,3.46,1.91,1.91,0,0,0,1.68.09c.37-.14.8-.55.35-.88"/><path class="cls-6" d="M505.07,312.42c-3.62-.72-7.62-3.07-8.93-6.18-2-4.69,1.65-10.81,6.66-12.74.54-.21.34-.64-.14-.83a2.89,2.89,0,0,0-2,.08c-4.36,1.68-7.84,6.6-7.93,10.67-.07,3.8,3,7,7.14,8.81a19.59,19.59,0,0,0,3.93,1.26c.55.1,1.57.11,1.92-.29s-.12-.68-.64-.78"/><path class="cls-6" d="M543.36,318a.49.49,0,0,1,.58-.63,4.24,4.24,0,0,0,3-.46l.75,1.37a12.55,12.55,0,0,0-6,1.11,1,1,0,0,1-1.14-.39c-.2-.24-.37-.75,0-.93"/><path class="cls-6" d="M540.52,318.07a14.13,14.13,0,0,1,6.77-1.21,1.2,1.2,0,0,1,.9.61.55.55,0,0,1-.15.76"/><path class="cls-6" d="M550.84,319.79a7.55,7.55,0,0,0,7.08-3.43,11.3,11.3,0,0,0-.79-12.45.45.45,0,0,1,.31-.75,1.38,1.38,0,0,1,1.19.63,12.55,12.55,0,0,1,2.12,10.81A8.65,8.65,0,0,1,554,321a8.36,8.36,0,0,1-2.73.12c-.36-.05-1-.32-1.07-.8s.26-.61.6-.57"/><path class="cls-5" d="M583,122.69c-1.36-1.54-3.73-2.36-6-3.09l-2.33-1.15c-7.22-1.18-14.49-2.14-21.76-2.88a15.61,15.61,0,0,0-5.42.08,3.27,3.27,0,0,0-.53.17c-5.33-1-10.67-1.95-16-2.76l-2.55.29c-2.33,0-4.83,0-6.56.85s-2.1,3-.1,4,5.52.35,6.84,1.82c1.46,1.63-2,3.18-1.29,5,.47,1.12,2.36,1.74,3.51,2.66,1.37,1.09,1.66,2.58,2.93,3.73a7.53,7.53,0,0,0,5.56,1.61c2,.47,4.86.06,5.29,1.55a2.56,2.56,0,0,1-.13,1.19c-.32,1.53.72,3.26,2.52,4.17a6.67,6.67,0,0,0,5.83.06c1.58-.85,2.34-2.39,4-3.15a11.16,11.16,0,0,1,1.72-.55,5.42,5.42,0,0,0,1.72,1.39,6.76,6.76,0,0,0,5.84.06c1.57-.85,2.33-2.4,4-3.15,1.39-.64,3.38-.71,4.19-1.78,1.29-1.71-1.52-4.56.4-5.87,1.74-1.19,4.78.68,7.09.23S584.33,124.24,583,122.69Z"/><path class="cls-5" d="M491.14,407.24c1.2,1.15,3.16,1.66,5,2.11l2,.78q8.86.71,17.75.91a12.86,12.86,0,0,0,4.37-.42l.42-.17c4.36.47,8.74.88,13.12,1.18l2-.39c1.88-.13,3.9-.3,5.24-1.12s1.5-2.57-.18-3.23-4.48.07-5.64-1,1.43-2.69.72-4.08c-.45-.87-2-1.25-3-1.92-1.19-.79-1.51-2-2.61-2.82a6.11,6.11,0,0,0-4.6-.93c-1.65-.25-3.92.26-4.36-.91a2,2,0,0,1,0-1,3.3,3.3,0,0,0-2.3-3.2,5.41,5.41,0,0,0-4.71.33c-1.22.78-1.73,2.08-3,2.8a10.45,10.45,0,0,1-1.36.56,4.18,4.18,0,0,0-1.48-1,5.41,5.41,0,0,0-4.71.33c-1.22.79-1.73,2.08-3,2.8-1.09.6-2.69.79-3.27,1.71-.93,1.46,1.52,3.58.06,4.76s-3.9-.23-5.74.28S489.94,406.08,491.14,407.24Z"/><path class="cls-14" d="M349.31,218.17c-2.18-.41-4.47-.86-6.21-2.24s-2.72-4-1.55-5.89c1.86-3,7.77-2.75,7.88-6.27C347,200,340,200.4,338.94,196c-.87-3.52,3.14-6.14,6.48-7.54-1.88-2.36-1.49-.41-4.3-1.53s-3.47-8.37-1.49-10.65c2.23-2.58,2.95-.16,2.3-3.51-2.21-1,3.13-2.31,1.6-4.22s-2-4.87-.48-6.75c1.87-2.26,1.84-4.14,2.18-7.06.29-2.49,5.22-2.27,4-4.47-2.21-4,2.07-8.39,5.86-10.95-1.81-1.6.66-1.69-.31-3.89s-.83-5.09,1-6.65c1.12-1,2.65-1.26,3.91-2,5.21-3.1,3.38-11,.9-16.51a8.7,8.7,0,0,0,9.95-5.83c.55-1.92.43-4,1.39-5.8s3.81-2.65,4.86-1"/><path class="cls-5" d="M351.55,217.12c-2.05-.38-4.22-.76-5.89-2.11-1.33-1.07-2.34-3.12-1.73-4.83a3.93,3.93,0,0,1,2.53-2.19,22.74,22.74,0,0,0,3.66-1.83c.87-.59,2.23-1.77,2-3s-2-2.15-2.9-2.64c-2.2-1.17-5.42-1.71-7-3.84-2.6-3.6,1.83-6.62,4.7-7.85.46-.19,1.47-.7,1-1.26a3,3,0,0,0-2.47-1.41,5.61,5.61,0,0,0-.71,0l-.14,0-.3,0c-.58-.13.22.13,0,0s-.7-.18-1-.36c-1.6-1-2-3.55-2.11-5.24a9.9,9.9,0,0,1,.22-3,5.53,5.53,0,0,1,.41-1.09c.18-.36.93-.88,1-1.17-.05.23-1.57.52-.93.38a7.81,7.81,0,0,0,.82-.26,4.77,4.77,0,0,0,1.75-.93,2.43,2.43,0,0,0,.15-2.46c-.37-.58-.79-.32-.34-.76s1.16-.89,1.64-1.45a1.62,1.62,0,0,0,.41-1.84c-.65-1.28-1.42-2.22-1.53-3.72s.57-2.41,1.38-3.59a8.92,8.92,0,0,0,1.41-3.87c.15-1,0-2.54.59-3.38.37-.48.9-.55,1.71-1s2.09-1,2.2-2.09a2.1,2.1,0,0,0-.33-1.15,4.82,4.82,0,0,1-.43-2.3c.24-3.21,3.37-5.85,5.81-7.54.31-.21.9-.58.49-1-1-.92-.08-1.33,0-2.39a3.78,3.78,0,0,0-.4-1.79,7,7,0,0,1-.4-2.22,4,4,0,0,1,2-3.8,16.67,16.67,0,0,0,4.49-2.57c4.31-4.17,2-11.41-.05-16.1l-4.95,1.77c4.41.92,10.07-.74,13.05-4.2a10.31,10.31,0,0,0,2.27-5.57,8.88,8.88,0,0,1,1-3.51c.12-.17.49-.43.53-.59l-1.91.42.16,0c.19.22.43.25.61.51.94,1.31,5.84-.88,5.44-1.45-1.44-2-4.56-1.3-6.53-.57a6.29,6.29,0,0,0-4.47,5c-.44,2.25-.56,4.49-2.12,6.31a6.14,6.14,0,0,1-2.17,1.68c.31-.13,0,0-.14,0a6,6,0,0,1-1.26-.14c-.66-.14-5.48.57-4.95,1.77a25.58,25.58,0,0,1,2.43,9c.12,2.48-.46,5.55-2.88,6.8-1.65.85-3.45,1.34-4.69,2.82a5.84,5.84,0,0,0-1.25,4.19c.08,1.29,1.17,2.76.63,4s-.53,1.57.42,2.47l.48-1c-2.53,1.74-5.18,3.89-6.48,6.75a6,6,0,0,0-.52,3.69c.13.57.59,1.12.65,1.67a.73.73,0,0,1-.09.53c.09-.16-.39.21,0,0l-.58.28c-.51.25-1,.49-1.51.78a3.78,3.78,0,0,0-2,2.3c-.27,1.29-.21,2.64-.55,3.93a8,8,0,0,1-.75,1.87c-.42.74-1.07,1.34-1.42,2.12a5.6,5.6,0,0,0-.27,3.61,6.89,6.89,0,0,0,.84,1.95c.22.35.73.79.71,1.25-.06,1.24-2.65,1.58-2.44,3,0,.26.26.37.39.57.31.43.22.89.38,1.39-.07-.22,0,.36,0,.23-.37-.79,3-1.33,1.82-1a9.06,9.06,0,0,0-2.53,1.06,6.33,6.33,0,0,0-2.92,5.44c-.12,2.22.26,5.06,1.95,6.67a5.07,5.07,0,0,0,3.31,1.12c.31,0,.64,0,.95,0,2-.18-.15-.19-.23-.09.06-.07,1,.92,1.09,1.1l1-1.27c-3,1.3-7.47,3.59-7.74,7.34-.24,3.32,3.12,4.77,5.67,5.82a15,15,0,0,1,3.93,2.1c.5.42,1.07.86.92,1.54a2.11,2.11,0,0,1-.86,1.21,34.13,34.13,0,0,1-3.55,1.67,7.12,7.12,0,0,0-3.59,3.16,5.11,5.11,0,0,0,1.5,5.51c1.82,1.76,4.55,2.26,6.94,2.71a6.58,6.58,0,0,0,3.79-.7c.42-.2,1.9-1.16.68-1.39Z"/><path class="cls-15" d="M373.77,107.11c1-2.56,5.09-14.84,6-17.4a6,6,0,0,0,8.4-3.94c.33-1.78.05-4.08,1.65-4.92s3.47.78,5.31.94c4.09.35,5.54-6.18,9.55-7.08,2.51-.56,5.06,1.34,7.59.89,3.83-.69,5.16-6.12,8.91-7.18,2.59-.73,5.32.94,8,.59,5.78-.78,8.81-8.75,14.59-8,2.12.26,3.9,2,6,2.05,3.82.17-1.28-4.52,2.55-4.55,3.51,0,5.76,4,9.17,4.82,5.54,1.37,10.57-7.53,15.52-4.69,2.14,1.22,3,4,5.09,5.27,4.85,3.06,11.22-3.67,16.57-1.61,2.69,1,4.31,4.07,7.09,4.82,4.33,1.16,8.45-3.84,12.83-2.91,3.49.74,5.57,5,9.12,5.26,2.49.2-3.22-3.36-.72-3.38,4.26,0,6.76,5,10.77,6.41,3.37,1.2,7-.36,10.56-.75s10.21,7.34,9.85,10.89"/><path class="cls-5" d="M376.46,106.69c2.12-5.76,3.92-11.64,6-17.4l-4.9,1.58c3.87,2,10.09.06,12.43-3.51,1.16-1.77.71-3.71,1.42-5.58a4.59,4.59,0,0,0,.24-.5c.05-.2-3,.11-2,.64a11.59,11.59,0,0,0,1.43.52,8.63,8.63,0,0,0,3.54.62,10,10,0,0,0,6.27-2.73c1.2-1.14,2.1-2.54,3.23-3.74a5.87,5.87,0,0,1,.82-.76c.26-.2.73-.34-.24,0s-.39,0-.24.06a5.28,5.28,0,0,0,.84.13c.64.14,1.27.35,1.9.5a11.1,11.1,0,0,0,8-.85,14.14,14.14,0,0,0,4.22-3.86,17.31,17.31,0,0,1,1.8-2c.19-.17.52-.31.63-.46.33-.44-.49.38-.64.18a4.54,4.54,0,0,0,1,.09c1.14.17,2.26.51,3.41.64a12.18,12.18,0,0,0,4.38-.29,15,15,0,0,0,5.65-2.75c1.49-1.14,2.79-2.51,4.24-3.71a12.87,12.87,0,0,1,1.68-1.2c.08,0,.58-.32.23-.12.08,0,.48-.26,0,0a2.67,2.67,0,0,1-.35.05c0-.05.52,0,.53,0a11.76,11.76,0,0,1,3,1.23,8.55,8.55,0,0,0,3.58.84c1.61,0,4.93-.53,5.33-2.52a8.3,8.3,0,0,0-.45-3c0,.11,0-.11,0-.1-.23-.79-1.73,1.41-2.27,1-.05,0-.08,0,.09.06s.43.13.6.2a10.47,10.47,0,0,1,2.56,1.65c1.67,1.3,3.36,2.61,5.5,3a11.8,11.8,0,0,0,6.33-1,31.29,31.29,0,0,0,5.23-3c.63-.41,1.16-.76,1.8-1.1-.06,0,.71-.38.41-.21s.45-.11,0,0,.58.09-.13,0c-.46,0,.23.11-.08,0,1.8.62,2.77,2.08,3.93,3.57a7.25,7.25,0,0,0,5.12,3,16.85,16.85,0,0,0,7-1.12c.87-.29,1.73-.61,2.6-.92a18.85,18.85,0,0,1,2.09-.65c1.63-.29,3.14.65,4.49,1.84,1.67,1.46,3.24,3,5.52,3.35a13.44,13.44,0,0,0,7.19-1.17c1-.4,1.9-.87,2.86-1.29a11.83,11.83,0,0,1,1.28-.52,2.91,2.91,0,0,1,.48-.1c1.81.07,3.36,1.76,4.65,2.84A9.53,9.53,0,0,0,526,70.69c1.14.11,5.57-.41,5.05-2.36-.21-.8-1.3-1.7-1.85-2.29,0,0-.08-.22-.12-.27-.68-.84-4.17,1.2-3.19,1.56.13,0,.29,0,.43.08a8.63,8.63,0,0,1,2.36,1.25c1.62,1.21,3,2.73,4.7,3.84a11.12,11.12,0,0,0,7.15,1.63,37.6,37.6,0,0,0,4.23-.67c.6-.12,1.19-.25,1.79-.35.28,0,.61-.07.89-.14-.22.06-.4-.06-.1,0a10.76,10.76,0,0,1,3.49,2.28,18.46,18.46,0,0,1,3.42,4.21,7.12,7.12,0,0,1,1.21,3.85c-.08,1.1,5.31.37,5.43-1.46.21-3-2.65-6.3-4.65-8.26a12.3,12.3,0,0,0-4.09-2.79c-2.1-.79-4.38-.21-6.49.22-2.33.48-4.6,1-6.79-.25-1.8-1-3.22-2.63-4.85-3.9a9.1,9.1,0,0,0-5.58-2.11c-1.17,0-5.24.55-4.77,2.49.2.83,1.29,1.71,1.84,2.32.11.12,0,.11.13.27.77.82,5.17-1.2,3.65-1.7-.17-.06-.38-.08-.56-.14a7.51,7.51,0,0,1-2.43-1.51c-1.53-1.24-3-2.69-4.9-3.33-2.39-.81-5-.3-7.36.5-1.77.6-3.91,2.05-5.5,2.29-.17,0,.1.11-.4,0a5.23,5.23,0,0,1-1.25-.46,14.75,14.75,0,0,1-2.54-2,9.65,9.65,0,0,0-5.55-2.81,17.36,17.36,0,0,0-7.12,1.11c-.93.31-1.85.65-2.77,1-.18.07-1,.35-.81.29l-.61.18s-.9.21-.46.12a2.65,2.65,0,0,1-1.65-.1,5.68,5.68,0,0,1-2.49-2c-1.29-1.59-2.34-3.36-4.37-4.1a9.69,9.69,0,0,0-6.41.46A25.31,25.31,0,0,0,467,60.41c-.66.44-1.31.87-2,1.25a5.58,5.58,0,0,0-.64.34c.05,0-.77.34-.4.17.14-.06-.34-.08.06,0s-.28,0-.34,0a4.57,4.57,0,0,1-1.23-.46,17.38,17.38,0,0,1-2.71-1.9,10.19,10.19,0,0,0-5.39-2.56c-1.82-.15-5.4.26-6.17,2.3-.37,1,.2,2,.36,3,0,.21,0,.33,0,.3-.2-.45,3.49-.62,2.55-1.08a6,6,0,0,0-.6-.16c-1.15-.37-2.17-1-3.3-1.44a10.74,10.74,0,0,0-7.16.31c-3.71,1.34-6,4.44-9.12,6.65a4.62,4.62,0,0,1-1.31.73c.57-.13-.15,0-.36-.07a14.32,14.32,0,0,1-1.94-.34,12.61,12.61,0,0,0-8.45.72A13.52,13.52,0,0,0,414.5,72a21.44,21.44,0,0,1-1.77,2c-.12.11-.73.49-.73.58,0-.3.92.09.51-.25a8.6,8.6,0,0,0-1.8-.42c-.51-.13-1-.26-1.52-.37a10.3,10.3,0,0,0-4.75.08,10.73,10.73,0,0,0-5.24,3.12c-1.13,1.2-2,2.67-3.24,3.75-.22.19-.37.37-.52.36a6.9,6.9,0,0,1,1.36-.37s-.13,0-.35-.08a22.72,22.72,0,0,0-3.52-1.08c-2.5-.28-6.05.79-6.91,3.41-.61,1.85-.1,3.94-1.5,5.51a6.24,6.24,0,0,1-.77.68c-.36.29-.31.11,0,.07a3.46,3.46,0,0,1-1.78-.48c-1.16-.59-4.41.25-4.9,1.58-2.12,5.76-3.91,11.64-6,17.41-.39,1,1.78.85,2.24.78.93-.14,2.76-.58,3.14-1.63Z"/><path class="cls-16" d="M434.89,81.59c-21.61,5.32-31,11.48-43.69,29.75l123-25.58a106.1,106.1,0,0,0-25.11-6C466.94,77.79,456.5,76.26,434.89,81.59Z"/><path class="cls-5" d="M434.62,80.59c-7.5,1.85-15,4.1-21.88,7.74A57.32,57.32,0,0,0,397,100.78a109.9,109.9,0,0,0-8.3,10.69c-.87,1.24,1.32,1.17,2,1L402.94,110l29.43-6.12,35.5-7.38,30.79-6.4c5-1,9.93-2,14.89-3.1l.2,0a5.71,5.71,0,0,0,2.76-1.12c.44-.41.64-.92-.08-1.17a124.49,124.49,0,0,0-17.68-4.9c-5.73-1.09-11.56-1.49-17.36-2-9.43-.86-18.9-1.47-28.35-.48a138.68,138.68,0,0,0-18.42,3.35c-.59.14-2.69.8-2.45,1.72s2.48.4,3,.28a107.23,107.23,0,0,1,27.56-3.41c4.59.09,9.18.45,13.76.85,5.49.48,11,.82,16.47,1.72A115.41,115.41,0,0,1,512,86.9l2.67-2.29-12.2,2.53L473,93.26l-35.5,7.39-30.79,6.4-10,2.09a46.67,46.67,0,0,0-4.84,1l-.21,0,2,1c4-5.81,8.43-11.53,13.83-16.15a50.63,50.63,0,0,1,15.68-8.95,112.23,112.23,0,0,1,12-3.53c.59-.15,2.69-.8,2.44-1.73S435.13,80.46,434.62,80.59Z"/><path class="cls-16" d="M603.49,105.17c-.54-.33-1.07-.67-1.57-1-2.58-1.87-4.19-6.33-1.41-7.88-6,1.56-8.78-8.81-14.91-9.51-1.77-.2-3.51.47-5.28.53a8.12,8.12,0,0,1-7.93-9.11,19.65,19.65,0,0,1-14.93-.3l-43.24,7.89c17.73,6.21,35.38,15.42,52.6,19.9,8.29,2.15,16.7,4.6,23.73,9.5,5.12,3.56,11.91,6,17.15,9.8C606.33,118.36,605,111.75,603.49,105.17Z"/><path class="cls-5" d="M605.65,103.85a7.78,7.78,0,0,1-3.45-3.63c-.31-.79-.79-2.65,0-3.15.61-.37,1.43-1.15.83-1.88s-2.11-.49-2.89-.31c.33,0,.34,0,0,0,.3,0,.29,0,0,0,.44,0-.39-.09-.48-.12.25.08-.29-.14-.34-.16a7.83,7.83,0,0,1-.79-.47,16.08,16.08,0,0,1-2.63-2.52c-1.77-2-3.46-4.09-5.8-5.38a9.15,9.15,0,0,0-5-1c-1.67.1-3.47.86-5.13.36a7.27,7.27,0,0,1-4.84-7.73c.27-1.83-3-1.11-3.8-.79a15.44,15.44,0,0,1-10.9-.16,5.9,5.9,0,0,0-3.59-.34l-8.92,1.63L521.25,83l-6.67,1.22a4.44,4.44,0,0,0-2.72,1.25c-.4.49-.6,1.31.2,1.59,13.12,4.61,25.7,10.62,38.74,15.45,6.25,2.31,12.6,4,19,5.85a64.22,64.22,0,0,1,17.33,7.24c2.89,1.86,5.77,3.61,8.84,5.19a75.14,75.14,0,0,1,9.21,5.21,3.53,3.53,0,0,0,3.24.19c.77-.27,2.21-.94,2-2-1.38-6.61-2.73-13.21-4.21-19.79-.43-1.89-5.88-.52-5.43,1.45,1.48,6.58,2.83,13.19,4.21,19.79l5.23-1.79c-5.14-3.65-11.05-5.91-16.34-9.29a69.73,69.73,0,0,0-8.34-4.82,77,77,0,0,0-9.06-3.37c-6.23-2-12.59-3.4-18.75-5.58-6.51-2.31-12.89-5-19.26-7.64-7.31-3-14.61-6.13-22.09-8.76l-2.53,2.84,14.61-2.66,23.29-4.25,5.34-1-1.79-.2a24.15,24.15,0,0,0,18.17.11l-3.79-.8a8.8,8.8,0,0,0,3,7.91c2.82,2.46,6.18,2.67,9.72,2.06a4.65,4.65,0,0,1,3.2.26,10.18,10.18,0,0,1,2.52,2c1.62,1.61,3,3.48,4.71,5a8.57,8.57,0,0,0,8.08,1.95l-2.06-2.19a4.75,4.75,0,0,0-2.25,5.66c.75,2.53,2.61,4.06,4.76,5.4C602.85,107.44,607.86,105.23,605.65,103.85Z"/><path class="cls-17" d="M490.74,171.15s57.32,1.16,94.42,15.2"/><path class="cls-14" d="M571.55,375.64a56.76,56.76,0,0,1-8.42,14.59c1.92.91.69,3.93-1.06,5.14s-4.12,2.47-3.93,4.59c.06.74.46,1.42.51,2.15.16,2.33-2.81,3.38-5.11,3.69,1.37,1.36-.23,3.65-1.89,4.66s-3.79,2.26-3.51,4.18c.14.95.89,1.79.74,2.74-.3,2-3.53,1.55-4.81,3.08-.74.88-.64,2.18-1,3.26a3.72,3.72,0,0,1-5.85,1.19c-.95,3.94-3.32,8.9-7.32,8.18-2.47-.44-4.54-3.13-7-2.4-1.49.45-2.32,2.07-3.73,2.73-4.73,2.26-9-7.59-13.73-5.32-2.54,1.21-3,5.35-5.73,5.91s-4.47-2.67-7.06-3.28c-2.82-.66-6.09,1.83-8.47.19-1-.72-1.49-2-2.33-2.93-1.93-2.13-4.47.4-7.29.91-5.06.9-5.05-2.65-5.05-2.65-1-3.58-2.94-3.56-6.39-2.16-1.15.47-2.24,1.27-3.48,1.17-3-.24-3.81-5.36-6.84-5.46-1.11,0-2.09.67-3.16,1-3.85,1.22-7.73-4.21-5.34-7.46a8.46,8.46,0,0,1-6.93-10c-4.43.87-9.08-3.31-8.69-7.8-5.17.75-9.71-5.84-7.17-10.41-3.66.88-7.61-2.77-7-6.49.3-1.91,1.43-4.22,0-5.49-1-.84-2.42-.54-3.68-.71a4.84,4.84,0,0,1-3.23-7.09c-5.1.61-8.83-6.87-5.28-10.57-4,.37-6.84-5.48-4.07-8.4-5.33-.84-8.07-8.45-4.5-12.49l53.91,71.29,15,9.27s55.89,12.21,67.17,8.73S571.55,375.64,571.55,375.64Z"/><path class="cls-5" d="M568.87,376.11a57.12,57.12,0,0,1-8.21,14.3c-.14.19-.44.56-.09.76,1.48.83.65,2.83-.29,3.79-1.16,1.2-2.81,1.8-3.91,3.11a3.7,3.7,0,0,0-.93,2c-.1,1,.46,1.8.5,2.76a1.86,1.86,0,0,1-.88,1.68c-.29.18-.44.14-1,.23s-3.92.95-3,2c1.89,2.23-2.83,4.38-4,5.43a4,4,0,0,0-1.55,2.9c0,1.22,1,2.09.62,3.33a1.14,1.14,0,0,0,.19-.07c.11-.13-.33.11-.45.15-.66.22-1.31.43-2,.71a5.14,5.14,0,0,0-2.81,2.39,10.62,10.62,0,0,0-.45,1.87,8.84,8.84,0,0,1-.66,1.5s-.13.16-.13.14c0-.32,1.37-.31,1.34-.35s-.62-.2-.7-.25a3,3,0,0,1-.66-.51c-.86-.82-5,.23-5.24,1.4a15.31,15.31,0,0,1-2.59,5.93c-.27.34-.6.61-.9.92-.62.67.92-.36,1.14-.2-.29-.22-1-.26-1.36-.45-.65-.31-1.25-.71-1.87-1.06a8.38,8.38,0,0,0-8,0,12,12,0,0,0-2.82,2.15,3.69,3.69,0,0,0-.39.35c-.48.69,1.4-.38,1.4-.35h.21c-.13-.1-.45-.1-.62-.16-3.15-1.14-5-4.5-8.24-5.55a9.19,9.19,0,0,0-6.67.85c-2,1-2.91,2.72-4.08,4.5a10,10,0,0,1-.81,1c.16-.19-.22.17-.24.2,1.21-1.67,3-.17,1.61-.72a14.39,14.39,0,0,1-2.71-1.81,8.67,8.67,0,0,0-7.17-1.19,16,16,0,0,1-2.56.57c-1.31,0-2-1.41-2.64-2.34a4.08,4.08,0,0,0-2.41-1.9,8.75,8.75,0,0,0-4.27.4c-1.51.44-3.36,1.95-5,1.13a2.56,2.56,0,0,1-1.27-2,4.36,4.36,0,0,0-2.37-3.27c-2.19-.83-4.94,0-7,.8a15,15,0,0,0-2.43,1.06c-1,.6.52-.75,1-.1,0-.08-.25-.08-.33-.15a10.32,10.32,0,0,1-2-2c-1.2-1.64-2.33-3.21-4.55-3.31a9.87,9.87,0,0,0-3.19.47,6,6,0,0,0-2.27.88c.87-1.07,1.06,0,.83-.19s-.51-.14-.71-.23a5.08,5.08,0,0,1-1.26-.9,4.58,4.58,0,0,1-1-5.81c.36-.53-.71-.64-.92-.67-4.12-.58-6.89-5.52-6-9.37.22-1-1.77-.65-2.19-.58-1.57.26-3.43-1.09-4.46-2.14a7,7,0,0,1-2-5.34c0-.5-1.35-.43-1.55-.41-2.09.25-4.14-1.5-5.17-3.18a6.58,6.58,0,0,1-.48-6.55c.48-.91-2-.62-2.19-.58-.85.17.25.11-.26,0a4.56,4.56,0,0,1-.81-.2,6,6,0,0,1-3.58-3.84,6.73,6.73,0,0,1,.21-3.64c.26-1.11.62-2.47,0-3.52-1.3-2.29-4.31-.83-6.12-2.19a4.56,4.56,0,0,1-1.24-5.84c.43-.71-1.31-.68-1.52-.66-1.85.17-3.69-1.87-4.45-3.52-.88-1.94-1-4.43.48-6.11.81-.89-.73-1-1.3-.95-1.29.08-2.66-1.68-3.14-2.81a4.35,4.35,0,0,1,.37-4.63c.32-.37.34-.79-.24-.9-4.8-.87-7.46-7.8-4.26-11.59l-5.18.9L398.83,345l17.53,23.19,18.26,24.16,10,13.26a3.05,3.05,0,0,0,.77.75c1.57,1.07,3.25,2,4.87,3l6.48,4a37.89,37.89,0,0,0,3.32,2,7,7,0,0,0,1.62.42l3.72.78q6.51,1.35,13,2.58c11.22,2.12,22.51,4.1,33.88,5.22a75.49,75.49,0,0,0,13.19.46,19.63,19.63,0,0,0,10.6-4,75.6,75.6,0,0,0,10.38-9.94c3.87-4.29,7.54-8.77,11.12-13.32q8.18-10.38,15.78-21.23l.83-1.18c.58-.84-2-.62-2.19-.59a4.94,4.94,0,0,0-3.18,1.52c-3.6,5.2-7.35,10.31-11.17,15.36-6.6,8.73-13.41,17.53-21.27,25.19a53.63,53.63,0,0,1-4.48,4c-.66.49-1.34.95-2,1.39-.52.33.23-.1-.09.06-.16.07-.32.16-.47.24s-.6.24-.15.07-.11,0-.23.07c1-.32.43-.14.2-.08-.6.16.53-.07.16,0s-.67.11-1,.16c.84-.13-.24,0-.54,0l-1.35.07H524c-1.1,0-2.19-.08-3.29-.15-10.85-.68-21.64-2.55-32.33-4.48q-11.44-2.06-22.83-4.49c-.21-.05-.43-.11-.65-.14s0,0,.26.11c-.12-.07-.25-.14-.36-.22-1.53-1-3.12-1.92-4.67-2.87-3.33-2.05-6.62-4.18-10-6.16.16.1.21.27,0,0s-.26-.34-.38-.5l-1.49-2-5.52-7.3-17-22.53L407.67,348l-10.73-14.2-.52-.68c-.89-1.18-4.4,0-5.18.91-3.84,4.56-1.23,12.3,4.74,13.39l-.24-.9a5.34,5.34,0,0,0-.63,6.22,6,6,0,0,0,6,3.13l-1.3-.95a6.57,6.57,0,0,0-.73,7.69,7.2,7.2,0,0,0,7.3,3.83l-1.51-.66a5.25,5.25,0,0,0,1.15,6.49,5.79,5.79,0,0,0,3.71,1.33c1.41.07,2.68.16,2.74,1.91.06,1.41-.63,2.76-.73,4.16a5.64,5.64,0,0,0,1.16,3.75c1.91,2.61,5.07,3.34,8.13,2.72l-2.19-.58a7.34,7.34,0,0,0,.93,7.82,8.23,8.23,0,0,0,7.75,3.25l-1.55-.4a7.76,7.76,0,0,0,3.1,6.45,9.68,9.68,0,0,0,7.81,1.67l-2.19-.59c-1.19,5.28,2.72,10,7.87,10.72l-.93-.68a4.94,4.94,0,0,0,.21,5.55,6.12,6.12,0,0,0,5.53,2.76A12.1,12.1,0,0,0,452,420.9l.39-.17c-1.4,0-1.76.12-1.1.27a2.34,2.34,0,0,0,.31.16,4.47,4.47,0,0,1,1.09,1c1.2,1.37,2,3.24,3.8,3.94,2.88,1.14,6-.66,8.57-1.72-.29.12.17-.05.19-.05s-.35.09-.43,0c.15.11.38.07.62.24a4,4,0,0,1,1.35,2.4,3.71,3.71,0,0,0,1,2.1c1.57,1.48,4.35,1.19,6.26.85a21.9,21.9,0,0,0,4.56-1.48c.12,0,.27-.1.38-.16,1-.56-.58.63-.53,0,0,0,1.16,1.07,1.24,1.17a7,7,0,0,0,2.35,2.63,6.8,6.8,0,0,0,3.81.46c1.35-.15,2.73-.7,4-.78a4.16,4.16,0,0,1,2.51,1.06,19.28,19.28,0,0,0,2.7,1.81,6.67,6.67,0,0,0,4.11.41,8.52,8.52,0,0,0,6.13-4.23c.26-.41.5-.84.78-1.25s.78-.74.87-1,.56-.13-.67.21a5,5,0,0,0-.93.15,3.79,3.79,0,0,1,.87.28c3.2,1.41,5.16,5,8.78,5.63a10,10,0,0,0,8.19-2.78,5.4,5.4,0,0,0,.74-.69c.42-.3.14-.25-.86.13-1,.12-1.33.21-.84.26.48.34,1.29.53,1.83.84a11.11,11.11,0,0,0,3.83,1.64,10.27,10.27,0,0,0,8.5-2.82,15.08,15.08,0,0,0,3.43-6.95l-5.24,1.4c2.49,2.37,7.58,1,9.88-1a4.23,4.23,0,0,0,1.2-1.61c.33-.84.27-1.8.66-2.62a3.28,3.28,0,0,1,.36-.55c-.3.26.31-.09.4-.12a17,17,0,0,0,2.16-.81c1.27-.62,2.6-1.6,2.27-3.19-.16-.81-.75-1.51-.73-2.36a2.6,2.6,0,0,1,1-1.8c1.26-1.07,2.78-1.64,3.85-3s1.47-2.66.36-4l-3.05,2c2.47-.35,5.43-1.12,7.27-2.92a3.26,3.26,0,0,0,1.06-2.39c0-1.18-.84-2.16-.32-3.35.81-1.87,3.33-2.49,4.57-4.05,1.07-1.36,2-3.76.06-4.83l-.09.75a60,60,0,0,0,8.65-14.87c.37-.94-1.83-.65-2.19-.59C571.19,374.74,569.26,375.14,568.87,376.11Z"/><path class="cls-18" d="M389.35,233.2c6.26-4.84.58-16.22,5.71-22.25,1.19-1.4,2.87-2.35,3.91-3.87,2.9-4.26-.55-10.57,2-15.06,1.13-2,3.32-3.32,4.28-5.43,1.83-4-1.57-8.73-.59-13,1.11-4.84,7.48-8.27,6.16-13.06-.64-2.33-3-3.9-3.56-6.27-.9-4.13,4.19-8.77,1.54-12.06-.92-1.14-2.55-1.6-3.27-2.88-1.45-2.57,1.8-5.1,3.27-7.66s1.07-6,1.78-8.92,3.93-5.92,6.53-4.32c-1-4.94,3.43-17.48,8.34-16.32,2.42.58,5.44,2.15,7,.21,1.1-1.39.35-3.58,1.3-5.07,2.44-3.81,8.63,3.06,12.53.78,1.06-.62,1.64-1.81,2.57-2.6,2.1-1.82,5.33-1.25,7.88-.17s5.09,2.63,7.86,2.46,5.5-3.23,4.09-5.61c2.61,2,5.35,4,8.56,4.61s7-.63,8.3-3.65c.29,4.66,7.05,7.29,10.42,4,1.34-1.29,2.4-3.34,4.26-3.32a4.08,4.08,0,0,1,2.26.94c3,2.15,6.17,12.62,7.54,16.07l1-20.29-55.2-14.76-49.59,22-24.4,56.36,9.44,83.14"/><path class="cls-5" d="M391.8,233c6.47-5.22,1.35-14.82,5.07-21.29,1.19-2.06,3.44-3.14,4.77-5.09a9.78,9.78,0,0,0,1.27-5.86c-.06-2.26-.47-4.57-.11-6.82.38-2.42,2-3.87,3.54-5.61a7.63,7.63,0,0,0,2.11-6c-.2-2.37-1.09-4.63-1.26-7-.3-4.41,3.26-7.09,5.34-10.53a6.43,6.43,0,0,0,1-5c-.59-2.11-2.48-3.48-3.3-5.47-1.58-3.84,2.39-7.18,2-11a3.87,3.87,0,0,0-1.38-2.55c-.84-.76-2.06-1.2-2.65-2.22-1.34-2.3,1.44-4.79,2.64-6.51,1.69-2.41,1.74-5.17,2.07-8a9,9,0,0,1,1.12-3.76,5.7,5.7,0,0,1,1.12-1.37c.47-.4.9-.44-.46-.13s-.83.15-.18.5c.84.46,2.3,0,3.13-.25.46-.14,2.29-.65,2.15-1.38a14.33,14.33,0,0,1,.49-6.17,23.14,23.14,0,0,1,2.71-6.54,9.14,9.14,0,0,1,1.72-2.1c.4-.35.62-.29,0-.14,1.14-.28-1.51.48-1.73.34a5.72,5.72,0,0,0,1.2.32c3.32,1,7.26,1.56,10.2-.89a4.36,4.36,0,0,0,1.41-3.24,6.41,6.41,0,0,1,.4-2.22c.09-.2.28-.38.36-.58.5-1.07-1.61,1-2.46.64.87.35,1.86.49,2.74.85a31.11,31.11,0,0,0,3.38,1.25,10.6,10.6,0,0,0,8.37-1.37,8.31,8.31,0,0,0,1.64-1.55,10.15,10.15,0,0,1,.74-.86c.31-.31.94-.59-.13-.21-.62.21-.25,0,.13.09s.66.09,1,.16a13.24,13.24,0,0,1,2.53.86,42.16,42.16,0,0,0,5,2,11.52,11.52,0,0,0,6.27-.08c2.72-.76,7.43-3.39,5.6-6.92L466.06,93c3.45,2.59,7.12,5.09,11.62,4.9,3.78-.16,8.78-1.59,10.48-5.33l-5.38,1.22a6.49,6.49,0,0,0,4.63,5.32,12.09,12.09,0,0,0,9.7-1.3,18.59,18.59,0,0,0,3.18-3.09,3.39,3.39,0,0,0,.48-.44c.36-.54-2.26.8-2.44.56.13.18.95.4,1.19.56a5.32,5.32,0,0,1,1.23,1.09,27.26,27.26,0,0,1,3.6,7.12c1,2.62,1.88,5.3,2.91,7.92.45,1.14,5.37-.26,5.43-1.46l1-20.29a.56.56,0,0,0-.47-.29L490.3,83.33l-30.21-8.08c-.68-.18-1.37-.43-2.07-.55-1.72-.31-3.43.55-5,1.24l-11,4.9-31.65,14-4.46,2c-.73.32-2,.71-2.39,1.37a12,12,0,0,0-.83,1.91l-2,4.71-13.79,31.86L381,150.21l-1.57,3.63a2.77,2.77,0,0,0-.35,1.11,17.64,17.64,0,0,0,.25,2.16l.5,4.44,1.58,13.9,4.12,36.34,2.83,24.88.14,1.28c.11.93,5.59-.11,5.44-1.45l-2.51-22.08-4.6-40.53-1.72-15.16-.48-4.23c0-.32-.06-.64-.11-1s-.08.12,0,0c.32-1,.83-1.91,1.23-2.85l2.6-6L396,126.89l12.61-29.14.23-.52-1.13.79,16.72-7.42,26.77-11.88L457.33,76l-3.79.72,18.69,5,29.66,7.94,6.84,1.83-.47-.29-1,20.29,5.43-1.46c-1.86-4.72-3.11-9.86-5.89-14.16a7.89,7.89,0,0,0-2-2.21c-1.87-1.3-4.12-1.09-6.2-.39a9.18,9.18,0,0,0-4.14,2.9c-.26.31-.51.62-.79.91-.1.11-.63.46-.65.59,0-.16,1.34,0,.69-.22a8.32,8.32,0,0,1-3.63-1.52,5.26,5.26,0,0,1-1.89-3.63c-.1-1.12-5,.38-5.39,1.22a4.32,4.32,0,0,1-2,2.27c.31-.14.13,0-.13,0a10.49,10.49,0,0,1-1.47-.16c-3-.64-5.61-2.64-8-4.46-.77-.58-5.75.72-5.28,1.63a3,3,0,0,1-.53,3.53c-.2.22-.5.37-.68.58l-.08.06c1.43-.24,1.72-.35.87-.34a20.79,20.79,0,0,1-2.78-.76c-3.16-1.27-6-2.9-9.49-2.67a11.37,11.37,0,0,0-8.86,4.6c-.78,1.15,1.67-.87,1.85-.39,0,0-.53,0-.5,0A8,8,0,0,1,444.2,97c-1.09-.36-2.13-.86-3.21-1.26a9.79,9.79,0,0,0-7.93.3,4.3,4.3,0,0,0-2.33,2.3,8,8,0,0,0-.32,2,10.14,10.14,0,0,1-.11,1.08c-.09.5-.45.9-.56,1.35.28-1.2,3.4-.4,1.74-.65a9.26,9.26,0,0,1-1-.25c-.71-.19-1.4-.43-2.1-.62a8.18,8.18,0,0,0-4.39.06,9.88,9.88,0,0,0-5.63,3.68,20.88,20.88,0,0,0-3.3,7.22,15.61,15.61,0,0,0-.65,6.91l5.28-1.63c-2.45-1.33-6-.31-8.19,1a8,8,0,0,0-3.75,5.5c-.49,2.63-.23,5.49-1.52,7.92-1.08,2-3.22,3.65-3.68,6-.5,2.5,1.72,3.27,3.23,4.66s1.06,3.66.36,5.49-1.64,3.67-1.69,5.67c-.06,2.37,1.68,3.92,2.86,5.77,2.56,4-.91,7.29-3.19,10.4a10.3,10.3,0,0,0-2.34,5.85c-.07,2.46.85,4.8,1.19,7.21a7.31,7.31,0,0,1-2.23,6.6c-1.66,1.73-3,3.34-3.33,5.77-.66,4.4,1.67,9.79-2,13.29-1.85,1.75-3.7,3.16-4.56,5.64a20.8,20.8,0,0,0-.88,6.7c-.05,4.14.61,9.54-3,12.46-1,.78.86.83,1.26.79A7,7,0,0,0,391.8,233Z"/><path class="cls-14" d="M384.14,269.63l4.72,1.1a2.28,2.28,0,0,0,1.48,0c1.14-.51.73-2.18.56-3.41-.41-2.88,1.49-5.5,3-8s2.78-5.73,1.16-8.15c-.86-1.27-2.46-2.24-2.45-3.77,0-2,2.59-2.72,4.1-4a4.87,4.87,0,0,0-1.25-7.74s3.93-3.37,3.61-11.05-1.55-16-1.55-16L387.11,201Z"/><path class="cls-5" d="M381.93,270.76c2.13.5,4.52,1.43,6.73,1.32,1.83-.08,4.86-.86,5.13-3.06.21-1.69-.46-3.21.06-4.92a24.31,24.31,0,0,1,2.88-5.33,11.41,11.41,0,0,0,1.83-5.37c.07-1.92-.9-3.2-2.13-4.54-1-1.11-1.55-2.45-.19-3.49,1.19-.91,2.63-1.48,3.56-2.72a5.4,5.4,0,0,0-2.1-8.1l.26,1a11.75,11.75,0,0,0,3.07-5.18c1.47-4.6.67-9.74.2-14.44q-.3-3.06-.7-6.09c-.08-.64,0-1.66-.44-2.18a9.52,9.52,0,0,0-1.62-1.19l-3.29-2.42L389.66,200c-1.1-.82-5.19.08-5.26,1.69l-1,23.17-1.6,37-.37,8.53c-.05,1,5.35.3,5.43-1.46l1-23.17,1.6-37,.37-8.54-5.26,1.7c3.34,2.46,6.59,5.18,10.09,7.42.32.2.28.38.18,0a8.85,8.85,0,0,1,.12.88c.22,1.59.42,3.18.59,4.78.28,2.45.51,4.91.67,7.38a26.25,26.25,0,0,1-.17,7.3c-.45,2.15-1.35,4.62-3,6.1-.49.42-.17.8.26,1a4.3,4.3,0,0,1,2.15,3.73,3.77,3.77,0,0,1-2.06,3.6c-1.31.83-3.08,1.79-3.39,3.47s1.29,2.91,2.27,4.19c2.9,3.77-1.58,8.38-3.15,11.65a9.83,9.83,0,0,0-.73,5.83,10.82,10.82,0,0,1-.05,1.15q-.44,1.59,2.76-.82l-.94-.23-3.78-.88a5.83,5.83,0,0,0-3.81.64C382.06,269.39,380.68,270.47,381.93,270.76Z"/><path class="cls-18" d="M592.81,113c-.86,1.47,1.12,3,2.78,3.39s3.82,1,3.9,2.7c0,1.06-.82,2-.78,3,.14,3.22,6.56,1.3,7.89,4.24,1,2.2-2,5.16-.33,6.93.78.84,2.11.72,3.24.95a4.9,4.9,0,0,1,3.78,4.09c.18,1.47-.31,3.06.34,4.39.79,1.62,2.82,2.08,4.34,3,4,2.49,4.3,8.14,3.8,12.83s-1.1,10.05,2.07,13.53c3.64-2.41.47-5.74-1.73-9.51a25.75,25.75,0,0,1-2.06-3.35c-.48-1.23-.34-2.86.77-3.56.55-.34,1.29-.44,1.66-1,1-1.53-2-2.32-3.34-3.61-1.66-1.63-.2-4.42,1.43-6.08s3.57-3.87,2.61-6c-.84-1.87-3.51-2.33-4.39-4.18-1-2.1.9-4.5.65-6.8-.33-3.07-4-4.39-7-5.05a4.81,4.81,0,0,0-1.18-7.54c-1.1-.51-2.51-.66-3.15-1.69-1-1.54.54-3.89-.68-5.23-1-1.13-3.09-.47-4.21-1.5-1.78-1.65,1-4.66.19-6.94-1.09-3-7.48-2.68-6.77-5.8"/><path class="cls-5" d="M590.09,113.32c-.61,1.35.24,2.6,1.33,3.38s2.63,1,4,1.57,1.52,1.23,1.05,2.5-.78,2.34.06,3.39c1.24,1.56,3.71,1.53,5.49,1.9a2.7,2.7,0,0,1,1.73.81c.7.93.15,2.2-.17,3.16a5.75,5.75,0,0,0-.48,3.08c.37,1.56,1.92,2.18,3.35,2.4s2.28.31,3.19,1.37c1.18,1.36.91,3,.94,4.62a4.26,4.26,0,0,0,1.59,3.5c1.17.93,2.64,1.31,3.84,2.17,2.18,1.56,2.92,4.37,3.15,6.91.58,6.34-2.55,13.66,2.17,19.07.88,1,3.34.36,4.21-.26,1.89-1.34,3.23-3.06,2.46-5.47-.71-2.22-2.32-4.29-3.56-6.23a12.47,12.47,0,0,1-1.77-3,3.89,3.89,0,0,1-.07-1.44,1.43,1.43,0,0,1,.15-.44l-.25.19a6.28,6.28,0,0,0,.59-.27c1-.48,2.2-1.28,2.33-2.48.11-1-.7-1.67-1.44-2.18-1.58-1.08-3.42-1.73-2.57-4s3.2-3.64,4.24-5.85a4.12,4.12,0,0,0-1.59-5.48,9.55,9.55,0,0,1-2.33-1.8,3.41,3.41,0,0,1-.22-3c.63-2.42,1.23-4.76-.69-6.77-1.71-1.79-4.36-2.54-6.7-3.07l.51,1.92a5.89,5.89,0,0,0,.69-7.81c-1-1.29-2.39-1.58-3.79-2.21-1.57-.71-.85-2.54-.87-3.9,0-1.78-1.19-2.75-2.85-3.12-1.15-.27-2.56,0-2.44-1.64.11-1.43.9-2.71.91-4.16a3.62,3.62,0,0,0-1.61-3.09A19.38,19.38,0,0,0,601,95.69c-.8-.36-1.77-.74-1.6-1.74.37-2.07-5.1-1.17-5.43.69-.44,2.5,2.09,3.42,4,4.2a5.64,5.64,0,0,1,2.56,1.56c.74,1,.2,2.36-.12,3.45-.37,1.25-.77,2.66,0,3.83,1,1.49,2.66,1.13,4.11,1.67,1.25.47.6,2.43.59,3.43a3.41,3.41,0,0,0,2.45,3.4c1.44.57,2.65.92,3.23,2.51.43,1.19.5,2.9-.47,3.87-.79.78-.66,1.65.51,1.91a10.92,10.92,0,0,1,4.54,1.85,3.8,3.8,0,0,1,1.16,4.27c-.43,1.72-1.17,3.55-.26,5.25.82,1.52,2.44,2,3.63,3.17,1.61,1.53.49,3.37-.71,4.76s-2.62,2.73-3.23,4.63a3.63,3.63,0,0,0,1.37,4.28c.51.37,3.11,1.48,2.46,2.2l.85-.75a14.62,14.62,0,0,0-2.42,1.52,3.77,3.77,0,0,0-1.09,2.27c-.18,1.92.95,3.39,2,4.89a47,47,0,0,1,3,4.85c.5,1,1.31,2.78.12,3.63l4.21-.26c-4-4.62-1.57-11.53-1.71-17a13.25,13.25,0,0,0-2.07-7.36,8.52,8.52,0,0,0-3.05-2.57c-1.07-.58-2.55-1-3.19-2.1-.74-1.29-.15-3-.34-4.4a5.71,5.71,0,0,0-2.38-3.76,8.36,8.36,0,0,0-3.86-1.26c-1.27-.2-1.42-1-1.13-2.09.54-2.08,1.78-4.48-.32-6.15-1.66-1.32-3.89-1.21-5.85-1.74-.45-.12-1-.32-1-1.17a10.49,10.49,0,0,1,.68-2,2.76,2.76,0,0,0-.33-2.21c-.77-1.22-2.31-1.71-3.62-2.08-1.12-.32-3.36-.92-2.65-2.5.52-1.13-1.8-1.22-2.34-1.15a3.76,3.76,0,0,0-3.09,1.84Z"/><path class="cls-19" d="M439.49,230.88l2.1,11.05c.93,8.48,6.85,25.61,9.08,30.45,3.16,6.77,47.16,15.6,56.56,11.89S525,256.43,528.13,251l17.6,3.56c.53,7.67,2.75,32.06,5.67,35.74s23.33,6.07,25.63,6.34c1.92.2,4.59.48,7.53.67,7.76.58,17.26.66,20.52-1.7,4.85-3.52,11.74-18.63,17.86-33l1-2.25c.22-.54.46-.91.49-1.07h0l1.1-2.59c-23.85-15.66-57.63-18.57-80-6.88l.12.28-17.16-3.55c-17.73-15.57-50.53-27.41-76-21.75h0l-70.16,8.9-1.14,6.48ZM553.82,288.2c-1.82-2.29-3.89-19.45-5.06-32.75,19.43-9.8,49.87-7.13,71.37,5.59l-.06.33c-3.29,7.69-12,28.17-16.77,31.62-5.64,4.08-46.24-1.13-49.49-4.72Zm-97.64-16.83c-5.75-10.55-9.44-26.56-11.35-40,22.85-6.45,61.5,4.79,78.89,19.65C519.2,261,512.78,278.58,506,281.22c-9.7,3.82-47.89-5.57-49.86-9.85Z"/><path class="cls-20" d="M554.3,287.93c-1.82-2.29-3.9-19.46-5.07-32.75,19.44-9.8,49.87-7.13,71.37,5.59l-.05.32c-3.29,7.7-12,28.17-16.78,31.63-5.63,4.07-46.23-1.13-49.48-4.72Z"/><path class="cls-20" d="M456.18,271.37c-6.09-11.49-9.44-26.56-11.35-40,22.85-6.45,61.5,4.79,78.89,19.65C519.2,261,512.78,278.58,506,281.22c-9.7,3.82-47.89-5.57-49.86-9.85Z"/><path class="cls-3" d="M254.86,858.07c4.24-14.78,21-9.94,26.22-24.28,5.72-15.58,26-20.59,34.52-34.51,6.67-11-1.93-21.8,6.46-31.27l-24-107.42.44-55.78s-19.21-54.23-53.37-93.41-38.77-74.87-38.77-74.87-76.09,29-66.77,116.4c4.44,41.55,18.63,140.66,18.63,140.66S188.73,824.51,200.55,848c9.14,18.18,26.76,53.7,57.63,64.46"/><path class="cls-3" d="M567.19,886.57,480,869.52l-96.79-35.33c-13.87.64-7.23,9.21-20.7,12.45a257.14,257.14,0,0,0-42.75,14.67c-13.31,5.82-8-67.47-20.81-60.57-13.2,7.12-37,27.41-48.84,36.67-1.5,1.17-23.59,27.76-25.06,29,4.56,7.36,17.45,38.29,26.56,44.05,43.48,27.49,239,62,239,62l52.52,2.78Z"/><path class="cls-21" d="M389.11,673.2a1,1,0,0,1,.33.07c0,.43.15.89-.25,1.24Z"/><path class="cls-21" d="M396.72,797.33a1.21,1.21,0,0,1-.32.11c0-.28,0-.55,0-.83Z"/><path class="cls-22" d="M490.23,667.45l-.45-.08.46-.2A.24.24,0,0,1,490.23,667.45Z"/><path class="cls-22" d="M425.31,671.12l.44-.26a2.56,2.56,0,0,1,.11.24Z"/><path class="cls-22" d="M488.85,667.43l-.61,0A.41.41,0,0,1,488.85,667.43Z"/><path class="cls-22" d="M390.53,673.16a.33.33,0,0,1,.52,0Z"/><path class="cls-23" d="M323.53,698.66c-2.07-11.89-13.2-62-14.74-70.92-1.9-10.36-3.27-18.3-4.42-24.38-.45-2.37-.65-4.57-1.14-6.08a12.41,12.41,0,0,0-.71-2.16,11,11,0,0,0,.32,2.15c.2,1.42.5,3.52.85,6.18,1,6.14,2.19,14.2,3.78,24.59,1.29,7.87,10.58,55,12.26,65.15C320.49,694.51,322.77,697.34,323.53,698.66Z"/><path class="cls-23" d="M581.08,909.21c2.56-8,5.09-16,7.4-23.45l.83-1.49-1.61-.39L492.76,863,392.17,818.52a5.73,5.73,0,0,0,0,1.21l0,1.41,99.4,44.75,93.26,20.6c-2.2,7-4.54,14.41-6.92,21.86L556.7,978.16c-57-5.79-75.57-3.88-135.13-12.43-.39.72.35,1.61-.05,2.32,62.06,9.54,78.2,7.66,135.94,13.57l1.32.16.64-1.16C566.56,958,573.29,933.74,581.08,909.21Z"/><path class="cls-23" d="M248.82,861a58.71,58.71,0,0,1,9.28-13.41,156.92,156.92,0,0,1,63.08-45.85,59.08,59.08,0,0,1,15.6-4.61,139,139,0,0,1-14.71,6.68,198.18,198.18,0,0,0-33.52,19.44A202.56,202.56,0,0,0,259.69,849,149.33,149.33,0,0,1,248.82,861Z"/><path class="cls-23" d="M274.82,808.06a69.6,69.6,0,0,1,29.86-12.29,69.48,69.48,0,0,1,32.47-.54c-.08.95-14.59,0-31.8,3.68S275.23,808.92,274.82,808.06Z"/><polygon class="cls-23" points="387.79 815.5 340.7 791.13 321.3 687.37 317.89 685.75 337.7 792.98 392.06 820.25 387.79 815.5"/><path class="cls-23" d="M306.58,936.76S422,965.63,426.07,966.23l-1,2.17S310.2,942.1,306.24,938.82Z"/><path class="cls-8" d="M520.36,337.6c-16.58-1.88-43.23-6.89-43.23-6.89s1.28,33.35,39.72,37.73S564,340.61,564,340.61,537,339.49,520.36,337.6Z"/><path class="cls-9" d="M520.53,337.62c-7.89-.9-39.52-5.84-39.52-5.84s8.53,18.59,37,21.84C549,357.14,560,341,560,341Z"/><path class="cls-10" d="M520.74,338.84c-7.89-.9-31.73-5-31.73-5s7.66,9.61,31.31,12.3,32.11-4.82,32.11-4.82Z"/><path class="cls-8" d="M566.06,338.38c-.81-.3-5.57.7-9.45-.08-6.46-1.31-10.35-3.49-15-4.39-8-1.54-13.49,1.06-17,.66s-8.27-4.16-16.42-4.46c-4.77-.18-16.67.21-23.26,0-3.95-.11-8.37-2.15-9.23-2-1.2.15.09,9,44.21,14S567.2,338.8,566.06,338.38Z"/><path class="cls-5" d="M472.52,327.64c-2.47,1.55-5.14,3.39-5.8,6.22a11.13,11.13,0,0,0-.14,3.16l.25,4.9a1.85,1.85,0,0,0,.22.93,1.82,1.82,0,0,0,.86.6,7.73,7.73,0,0,0,3.26.87,2.65,2.65,0,0,0,2.58-1.83,3.6,3.6,0,0,1,.29-1.36c.49-.76,1.64-.47,2.54-.56,2.27-.21,3.17-2.94,4.45-4.82,1.74-2.55,4.81-3.89,7.85-4.41a22.68,22.68,0,0,0,4.58-.92,4.48,4.48,0,0,0,3-3.32"/><path class="cls-5" d="M569.08,342.2c1.83,2.26,3.77,4.86,3.5,7.76a11.21,11.21,0,0,1-.89,3l-1.8,4.56a1.84,1.84,0,0,1-.51.82,1.77,1.77,0,0,1-1,.28,7.64,7.64,0,0,1-3.37-.22,2.64,2.64,0,0,1-1.85-2.56,3.6,3.6,0,0,0,.16-1.37c-.23-.88-1.4-1-2.23-1.35-2.08-.93-2.06-3.8-2.67-6-.83-3-3.31-5.23-6-6.7a23.48,23.48,0,0,1-4-2.34,4.49,4.49,0,0,1-1.76-4.1"/><path class="cls-5" d="M477.43,323.92c1-1,1.32-.7,2.66-.54a8.07,8.07,0,0,0,6.13-1.64c.6-.52,1-1.23,1.57-1.77.36-.33,1-.53,0-.28s-.33.19.17.49c1.35.81,2.4,1.85,4.05,2a10.64,10.64,0,0,0,5.64-1.33,6.78,6.78,0,0,0,1-.53c.8-.58-1.24.36-1.21.1a19.63,19.63,0,0,0,1.78,1.49c1.68,1.12,4.1.64,5.86,0a11.4,11.4,0,0,0,2.66-1.49c.31-.24.6-.49.9-.74l.47-.36c.23-.2.33-.11.19-.18s-1.39,0-1.13.26a3.39,3.39,0,0,0,.65.26c.41.19.79.43,1.19.65a7,7,0,0,0,2.42.86c2.14.32,5-.34,6.43-2.09.77-1-.67-1.21-1.37-1.19a5.23,5.23,0,0,0-3.61,1.38c0-.06,2.07-.56,2-.62s-.14,0-.19-.06a10.35,10.35,0,0,0-1.11-.54,10.47,10.47,0,0,0-2.25-1,8.76,8.76,0,0,0-6.33,1.09,17.59,17.59,0,0,0-2.21,1.61c-.09.07-.66.41-.67.51,0,.51,1.32-.6,1.33-.17l-.59-.4a6.7,6.7,0,0,0-1.89-1.46,5.58,5.58,0,0,0-2.75-.2,10.54,10.54,0,0,0-2.75.78,8.26,8.26,0,0,0-2.25,1.1c.64-.64,1.14,0,.86-.27a6.49,6.49,0,0,0-.82-.47,18.21,18.21,0,0,0-1.9-1.24,7.62,7.62,0,0,0-6.12.08,10.62,10.62,0,0,0-2.45,1.34,6.5,6.5,0,0,0-2,2c-.27.68,1.54-.67,1.84-.44-.11-.09-.39-.07-.52-.09a11.74,11.74,0,0,0-1.31-.17,12.64,12.64,0,0,0-3.67.35,11.76,11.76,0,0,0-5.72,3.14c-.89.91.77,1.21,1.37,1.19a5.49,5.49,0,0,0,3.61-1.38Z"/><path class="cls-5" d="M538,326.26c-.41.11-.51-.17-.23.1.11.11.5.33.7.47.66.48,1.27,1,1.92,1.53a8.88,8.88,0,0,0,5,1.69c.8.07.79.82,1.3,1.46a4.09,4.09,0,0,0,2.58,1.43,8,8,0,0,0,3.44-.29,10.47,10.47,0,0,1,2.57-.75l-1.31-.13c.47.15.52.13.15-.07a2.59,2.59,0,0,1,.32.42,4.29,4.29,0,0,1,.26.58,10.11,10.11,0,0,0,.94,2c1.1,1.63,3.21,2,5,2,.52,0,1.33-.09,1.77.28s.28,1.33.46,1.93a2.79,2.79,0,0,0,1.71,1.74,8.29,8.29,0,0,0,1,.35c.87.25,0,.15,0-.53,0,1.31,1.34,1.72,2.46,1.62s3-.81,3-2.1c0-1.68-1.22-2-2.56-2.53-.12-.05-.31-.14-.18,0-.18-.22-.13-.66-.15-.92a3.25,3.25,0,0,0-1-2.13,6.63,6.63,0,0,0-4.43-1.45,3.81,3.81,0,0,1-1.78-.2,2.43,2.43,0,0,1-.77-1.3c-.53-1.33-1.11-2.57-2.56-3.08-2-.69-3.82.13-5.72.71-.11,0-.58.09-.46.13.43.13.14,0,.09-.23a4.23,4.23,0,0,0-1.4-1.84,5.22,5.22,0,0,0-2.67-.86,6.59,6.59,0,0,1-1.66-.16c-1.3-.46-2.31-1.77-3.44-2.53a6.48,6.48,0,0,0-5.38-.85c-1,.26-2.56,1.18-2.25,2.45s2.23,1.25,3.18,1Z"/><path class="cls-5" d="M521.5,324.15l-2.68,7.19a2.76,2.76,0,0,1-2.66,1.78c-8.08-.26-38.81-1.29-45.95-2.61-.17,0,.13,3.08,0,3l-1.65-.4c-2.59-1,.89-9.63,3.59-10.19a154.33,154.33,0,0,1,20-2.89c5.56-.34,20.88-.77,27.33.41A2.74,2.74,0,0,1,521.5,324.15Z"/><path class="cls-5" d="M530.69,326.55l-1,6.91a2.75,2.75,0,0,0,1.8,2.54c7.16,2.4,30.61,10.29,37.26,11.37a2.36,2.36,0,0,0,.46,0l2.2-.07c2.55-.09,2.1-5.88-.11-7.29-6.73-4.29-11-6.83-14.83-8.54-4.77-2.13-16.91-6.78-22.92-7.76A2.61,2.61,0,0,0,530.69,326.55Z"/><path class="cls-23" d="M301.25,934.09s-65.31-15.18-81.56-30.73-61.48-209.77-61.48-209.77l1,19.21s41.65,181.1,61.75,195.33C243.48,924.1,306,938,306,938l-4.79-3.95"/><path class="cls-23" d="M235.63,448.62s41.49,7,51.94,53A757.94,757.94,0,0,1,301.83,590s-2.36-103.07-30.65-124.43S235.63,448.62,235.63,448.62Z"/><g id="freepik--Character--inject-2-2" data-name="freepik--Character--inject-2"><path class="cls-24" d="M763.28,581.15l4.55-83.68s33.88-16.21,59.92-25.48c15.51-5.53,30.81-10.55,40-13.77-2,13-3.48,23,5.22,29.95a69.39,69.39,0,0,0,42.34,15.21c14.56.17,29.15-3.51,42.68-8.78,25.3-9.86,40.62-32.67,45.77-62l37.87,15.14s85,35.26,94.94,44.88c17.67,17.06,14.15,336.51,14.15,336.51L1144,935.45c3.24,13.84,20.56,51.23,8.79,121.86H780.38C771.39,1040.58,763.28,581.15,763.28,581.15Z"/><path class="cls-24" d="M602.64,861l4.22-65.11,4.39-76,17.88-10.82C649.06,683,707.9,572.78,729,547.55c10.62-12.71,21.39-33.36,33.31-44.85,10.21-9.84,20.51-11,33.77-16.45a175.54,175.54,0,0,1,42.2-10.84l35.17,144s-52,91.33-89.4,104.44c-1.41.5-83.09,91.2-99.21,99C668.92,833.74,602.64,861,602.64,861Z"/><path class="cls-25" d="M769.78,822.21c-.87.09-.39-11.82-1.25-11.73-.77-22.24-7.16-152.76-7.57-169.84-.37-18.32-.69-33.21-.65-43.42a129.38,129.38,0,0,1,.34-16,107.36,107.36,0,0,1,1.61,15.91c.09,11.1,1,25.42,2,43.43.75,17.08,4.58,160.87,5.56,183.11C769.34,823.51,770.31,822.16,769.78,822.21Z"/></g><path class="cls-24" d="M1020.66,852.44c-2.65-14.18-18.71-11.14-22.35-25-3.95-15.07-22.49-21.54-29.18-35.3-5.26-10.83,3.74-20.19-3.26-29.79l32-98.2,4.54-52.15s22.75-49,58.13-82.52,22.38-60,22.38-60,101.49,19.23,85,100c-7.82,38.43-24.26,154.91-24.26,154.91S1085.41,827,1072.28,847.89c-10.15,16.16-29.76,47.78-59.55,55.09"/><path class="cls-24" d="M747.45,932.14l66.92-27.94,123.46-66.43c13,.65,6.76,8.67,19.39,11.76a239.49,239.49,0,0,1,40.06,13.91c12.48,5.5,7.74-63.29,19.73-56.77,12.36,6.72,34.65,25.84,45.7,34.56,1.41,1.11,22,26.13,23.42,27.29-4.3,6.89-16.5,35.87-25.06,41.25-40.9,25.64-211.37,86.45-211.37,86.45l-65.77,15.63Z"/><path class="cls-21" d="M926.32,687.86a.8.8,0,0,0-.31,0c0,.4-.22.81.11,1.18Z"/><path class="cls-21" d="M908.2,803.14a1.08,1.08,0,0,0,.29.13l.12-.77Z"/><path class="cls-22" d="M832.36,673.52l.43,0-.41-.22A.25.25,0,0,0,832.36,673.52Z"/><path class="cls-22" d="M892.69,682.7l-.39-.28-.13.21Z"/><path class="cls-22" d="M833.66,673.63l.56.08A.37.37,0,0,0,833.66,673.63Z"/><path class="cls-22" d="M925,687.7a.31.31,0,0,0-.48-.09Z"/><path class="cls-25" d="M753.56,952.33c-3.28-7-6.52-13.89-9.5-20.36l-.94-1.25,1.44-.57,72.86-30.29,87.68-54.38a4.92,4.92,0,0,1,.12,1.1l.12,1.3-86.55,54.48-71.34,29.78c2.83,6.1,5.83,12.51,8.88,19l27.6,60.73c51.93-13.13,57-12.1,110.9-28.1.44.6-.14,1.52.31,2.11-56.14,17.24-58.93,15.91-111.51,29.25l-1.2.32-.72-1C772.55,994.85,763.55,973.62,753.56,952.33Z"/><path class="cls-25" d="M998.49,812.72c-15.76-4.94-29.39-5.37-29.38-6.27A81.82,81.82,0,0,1,1026.2,824C1025.74,824.73,1014.25,817.66,998.49,812.72Z"/><polygon class="cls-25" points="897.3 851.37 971.48 803.83 991.25 705.84 994.4 704.2 974.36 805.45 899.84 852.27 897.3 851.37"/><path class="cls-25" d="M969.84,956.4s73-28.4,89.58-41.49,88-215.84,88-215.84l-2.6,17.86s-67,190.81-87,202.33c-22.49,12.92-92.83,40.4-92.83,40.4"/><path class="cls-25" d="M1087.67,495.24s-39.36,3.15-52.88,45.3A709.51,709.51,0,0,0,1014.23,622s10.63-96.16,38.83-113.81S1087.67,495.24,1087.67,495.24Z"/><path class="cls-4" d="M668.5,926.62c.1-.89,14.74,1.2,31.94,6.36,8.63,2.51,16.41,5,22,6.72a42.8,42.8,0,0,1,9.07,3.1,27.77,27.77,0,0,1-9.58-1.24c-5.78-1.22-13.63-3.39-22.26-5.9C682.49,930.51,668.4,927.26,668.5,926.62Z"/><path class="cls-25" d="M657.16,722.64c-13.41-9.64-26.22-14.33-25.92-15.17A81.92,81.92,0,0,1,679.94,742C679.26,742.6,670.57,732.28,657.16,722.64Z"/><path class="cls-4" d="M660.42,979.91c-.2,1.27,12,2.93,26.8,4a12,12,0,0,0,5.91-1.25,40,40,0,0,0,4.63-2.32,44.77,44.77,0,0,0,7.14-4.91c3.8-3.2,5.48-5.86,5.15-6.11s-2.5,1.74-6.47,4.32a75.51,75.51,0,0,1-7.11,4.17,44.57,44.57,0,0,1-4.45,2,9.32,9.32,0,0,1-4.5,1c-7.53-.6-14.21-.79-19.11-1A36.18,36.18,0,0,0,660.42,979.91Z"/><polygon class="cls-25" points="991.25 705.84 1018.25 595.18 1019.87 595.18 991.25 718.25 991.25 705.84"/><polygon class="cls-25" points="892.48 986.68 979.44 953.93 978.75 952.86 889.26 985.39 892.48 986.68"/><path class="cls-2" d="M985.84,428.64s.89,8.61,8.48,10.35,23.82,3.09,30.65,3.19l3.45.24s-11.45,14.63-11.05,19.26,3.58,11.8,6.11,11.9,7.89-2.92,7.89-2.92-3.19,9.15,1.34,12.7,9.35.89,12.79-.43,10.56-6.76,10.56-6.76,1.3,9.8,7.11,10.23,26.63-11.86,26.63-11.86-1,11.2,5.72,11.57,12.79-4.74,17.64-9.45,11-11,10.4-14.42a12.65,12.65,0,0,0-5.69-8.63l-9.43-5.4s-.19-5.61-2.73-9.34-15.3-16-15.3-16,.61-8.82-3.24-12.36-13.78-7-13.78-7-8.3-12.56-11.72-12.61-4.76-1.44-17.75,2.68-37.31,16-37.31,16-7.22-.19-11.86,3.78S983,421.38,985.84,428.64Z"/><path class="cls-4" d="M1108.3,448.88s-.32,5.71-2,8.14-13.23,13.31-13.23,13.31,13.55-9.63,15.16-12.17-.07-10.07-.07-10.07"/><path class="cls-4" d="M1090,423.61s4.16,14.25-.74,20.42-29.88,26.51-29.88,26.51,27-25.71,28.66-30.66S1090,423.61,1090,423.61Z"/><path class="cls-4" d="M1072.85,407s.54,21.49-2.63,25.51-32.4,30.56-34.4,32.39l-3.14,2.19s33.34-33.94,35.42-37.61S1072.85,407,1072.85,407Z"/><path class="cls-4" d="M1010.13,430.71s8.36,9.87,14.84,11.47,14.79-4.67,13.93-11.1-4.08-10.94-6.85-12.9-5.25-5.28-9.93-7c0,0,12.89,12.5,13.65,15.28s2.28,11.1-3.25,12.91-7.81,1.47-13.89-2.27S1010.13,430.71,1010.13,430.71Z"/><path class="cls-4" d="M1038.26,435.2s7.65-8,7.46-11a101.49,101.49,0,0,0-2-11.65s1.49,9.15-.37,12.67S1038.26,435.2,1038.26,435.2Z"/><path class="cls-4" d="M997.33,409.64s-1.27,25.56,4.8,30.82Z"/><path class="cls-2" d="M613.94,967.76a3.85,3.85,0,0,0,1.68,1.41s-13,4.35,4.12,17.4c0,0,2.74,16.86,14.43,20.94,0,0,10.49,17.9,18.7,22.41s71.75-3.88,71.75-3.88l52.15-19.32-23.64-54.93-4.13.54s-19-16-29.46-20.3a106.05,106.05,0,0,0-26.44-5.35l-27.53,2c-2.54,14.42,29.37,18.86,29.57,20.61a12.19,12.19,0,0,1-10.72,13.5c-13,2.12-27.87,4.6-30,5.32s-18.14-6.5-30-12.07C617.4,952.61,609.35,961.07,613.94,967.76Z"/><path class="cls-26" d="M614.61,967a3.92,3.92,0,0,0,1.68,1.42s-12.95,4.35,4.12,17.4c0,0,2.75,16.86,14.44,20.94,0,0,10.48,17.9,18.69,22.41s71.75-3.88,71.75-3.88L777.45,1006l-23.64-54.94-4.14.55s-19-16.05-29.45-20.3a106.16,106.16,0,0,0-26.44-5.36l-27.53,2c-2.55,14.42,29.37,18.86,29.57,20.6A12.2,12.2,0,0,1,685.1,962c-13,2.12-27.88,4.6-30,5.31s-18.14-6.5-30-12.06C618.08,951.88,610,960.34,614.61,967Z"/><path class="cls-4" d="M674.1,985a66.49,66.49,0,0,1-26,1.44,58.7,58.7,0,0,1-23-11.65,51.16,51.16,0,0,0-9-6.35,35.47,35.47,0,0,0,7.68,8,52.11,52.11,0,0,0,23.62,12.92,58.54,58.54,0,0,0,27-2.32A37.57,37.57,0,0,0,685,983,50.19,50.19,0,0,0,674.1,985Z"/><path class="cls-4" d="M673.64,1001.12a104.65,104.65,0,0,1-10.72,1.49,33.62,33.62,0,0,1-12.9-.93A67.21,67.21,0,0,1,638.34,996c-3.55-2.06-6.78-3.84-9.52-5.27a34.45,34.45,0,0,0-9.19-4.2,34.81,34.81,0,0,0,8.12,6l9.19,5.81a59.62,59.62,0,0,0,12.16,6.09,33.89,33.89,0,0,0,13.89.62,73.45,73.45,0,0,0,11-2.19,21,21,0,0,0,9.45-4.21A82.16,82.16,0,0,1,673.64,1001.12Z"/><path class="cls-4" d="M672.73,1017c-4.54.16-10.73.34-17.72.9a8.75,8.75,0,0,1-4.17-.9,41.26,41.26,0,0,1-4.12-1.87,66.75,66.75,0,0,1-6.59-3.86c-3.69-2.4-5.69-4.23-6-4s1.25,2.7,4.77,5.66a40.92,40.92,0,0,0,6.62,4.55,36.63,36.63,0,0,0,4.29,2.16,11.1,11.1,0,0,0,5.49,1.16c13.69-.95,25-2.49,24.85-3.67A34.09,34.09,0,0,0,672.73,1017Z"/></g><g id="Layer_12" data-name="Layer 12"><path class="cls-23" d="M604.27,834.09c.92.12.78-12.59,1.7-12.47,1.5-23.67,12.34-162.51,13.32-180.69,1-19.51,1.75-35.35,2-46.23a136.81,136.81,0,0,0,.13-17.06,114.44,114.44,0,0,0-2.2,16.9c-.45,11.82-1.8,27.05-3.51,46.2-1.33,18.17-9.86,171.23-11.58,194.9C604.7,835.48,603.71,834,604.27,834.09Z"/></g></svg>