<svg xmlns="http://www.w3.org/2000/svg" viewBox="0 0 121.68 121.1"><defs><style>.cls-1{fill:#ffce00;}.cls-2{fill:#000305;}</style></defs><g id="Layer_2" data-name="Layer 2"><path class="cls-1" d="M60.84,16.33A44.77,44.77,0,1,0,105.61,61.1,44.82,44.82,0,0,0,60.84,16.33Z"/></g><g id="Layer_1" data-name="Layer 1"><g id="Layer_2-2" data-name="Layer 2"><circle class="cls-2" cx="44.76" cy="54.34" r="4.49"/><circle class="cls-2" cx="78.04" cy="54.34" r="4.49"/></g><rect class="cls-2" x="36.69" y="72.75" width="49.36" height="6.33" rx="3.17"/><rect class="cls-2" x="31.69" y="41.49" width="17.36" height="4.95" rx="2.47" transform="translate(-16.58 26.08) rotate(-30)"/><rect class="cls-2" x="69.36" y="39.49" width="17.36" height="4.95" rx="2.47"/><path class="cls-2" d="M104.31,22.74q0,.51,0,.81a1,1,0,0,1-.13.45.43.43,0,0,1-.28.19,3.26,3.26,0,0,1-.5,0h-3a.54.54,0,0,1-.44-.2.71.71,0,0,1-.15-.44c0-.46,0-.86,0-1.21s0-.65,0-.91a5.77,5.77,0,0,1,.11-.65,1.43,1.43,0,0,1,.17-.43,3.94,3.94,0,0,1,.82-1,8.36,8.36,0,0,1,.94-.69l1-.54a4.48,4.48,0,0,0,.82-.54,2.48,2.48,0,0,0,.58-.71,2.2,2.2,0,0,0,.22-1,1.91,1.91,0,0,0-.18-.81,2.62,2.62,0,0,0-.49-.69A2.31,2.31,0,0,0,103,14a2.13,2.13,0,0,0-.85-.18,1.92,1.92,0,0,0-.85.19,2.39,2.39,0,0,0-1.2,1.2A2,2,0,0,0,100,16v.3a.33.33,0,0,1-.16.31.86.86,0,0,1-.39.13,2.73,2.73,0,0,1-.5,0H96.19a.5.5,0,0,1-.45-.18.6.6,0,0,1-.12-.36v-.42a5.79,5.79,0,0,1,.53-2.51,6.1,6.1,0,0,1,1.45-1.95A6.53,6.53,0,0,1,99.69,10a6.94,6.94,0,0,1,2.48-.45,6.57,6.57,0,0,1,2.52.48,6.4,6.4,0,0,1,2.07,1.33A6.19,6.19,0,0,1,108.68,16a6,6,0,0,1-.19,1.62,4.7,4.7,0,0,1-.49,1.2,4.52,4.52,0,0,1-.7.89q-.4.36-.81.66l-.8.54a4.78,4.78,0,0,0-.69.52,2.35,2.35,0,0,0-.5.6A1.53,1.53,0,0,0,104.31,22.74Zm-4.55,4.77a.56.56,0,0,1,.15-.41.51.51,0,0,1,.42-.16h3.43a.58.58,0,0,1,.4.16.49.49,0,0,1,.19.41v3.15a.64.64,0,0,1-.15.42.54.54,0,0,1-.44.18h-3.43q-.57,0-.57-.6Z"/></g></svg>