<svg xmlns="http://www.w3.org/2000/svg" viewBox="0 0 121.68 121.1"><defs><style>.cls-1{fill:#ffe600;}.cls-2{fill:#ffce00;}.cls-3{fill:#000305;}.cls-4{fill:#a32a13;}</style></defs><g id="Layer_1" data-name="Layer 1"><circle class="cls-1" cx="60.73" cy="61.24" r="44.77"/><g id="Layer_2-2" data-name="Layer 2"><path class="cls-2" d="M60.73,16.33A44.77,44.77,0,1,0,105.5,61.1,44.82,44.82,0,0,0,60.73,16.33Z"/></g><g id="Layer_2-3" data-name="Layer 2"><path class="cls-3" d="M84.07,49.41h0a2.58,2.58,0,0,1-2.39-1.48,3.73,3.73,0,0,0-6.85,0,2.58,2.58,0,0,1-2.4,1.48h0A2.69,2.69,0,0,1,70,45.58a9.09,9.09,0,0,1,16.5,0A2.69,2.69,0,0,1,84.07,49.41Z"/></g><path class="cls-3" d="M88.51,64.93a2.69,2.69,0,0,0-2.69-2.69H37.35a2.69,2.69,0,0,0-2.69,2.69,14.09,14.09,0,0,0,0,1.74,3.57,3.57,0,0,0,.1.72,28.73,28.73,0,0,0,5.4,10c3.7,4.45,10.48,9.75,21.75,9.75h.76c11.37,0,21.62-7.75,25.64-19.51a3.72,3.72,0,0,0,.16-.72A9.7,9.7,0,0,0,88.51,64.93ZM62,80.69c-13.63,0-19.07-9-20.85-13.07H81.91C78.2,75.77,70.49,81,62,80.69Z"/><path class="cls-3" d="M50.43,48.92h0A2.58,2.58,0,0,1,48,47.44a3.73,3.73,0,0,0-6.85,0,2.58,2.58,0,0,1-2.39,1.48h0a2.69,2.69,0,0,1-2.44-3.83,9.1,9.1,0,0,1,16.51,0A2.69,2.69,0,0,1,50.43,48.92Z"/><path class="cls-4" d="M62.06,80.69c-13.63,0-19.07-9-20.85-13.07H82C78.26,75.77,70.55,81,62.06,80.69Z"/></g></svg>