<svg xmlns="http://www.w3.org/2000/svg" viewBox="0 0 121.68 121.1"><defs><style>.cls-1{fill:#ffce00;}.cls-2{fill:#000305;}.cls-3{fill:#317da3;}.cls-4{fill:#a32a13;}</style></defs><g id="Layer_2" data-name="Layer 2"><g id="Layer_2-2" data-name="Layer 2"><path class="cls-1" d="M60.5,16.33A44.77,44.77,0,1,0,105.27,61.1,44.82,44.82,0,0,0,60.5,16.33Z"/></g></g><g id="Layer_1" data-name="Layer 1"><path class="cls-2" d="M48.43,39.24,35,44.24a2.58,2.58,0,0,1-3.28-1.43h0a2.46,2.46,0,0,1,1.47-3.2l13.42-5A2.56,2.56,0,0,1,49.9,36h0A2.46,2.46,0,0,1,48.43,39.24Z"/><path class="cls-2" d="M38,80.36a2.27,2.27,0,0,0,2.28,2.26l10-2.45a44.14,44.14,0,0,1,20.85,0l10.29,2.49a2.27,2.27,0,0,0,2.28-2.26,14.11,14.11,0,0,0,0-1.46,3.11,3.11,0,0,0-.09-.6A23.87,23.87,0,0,0,79,69.89c-3.14-3.74-8.9-8.2-18.46-8.2h-.64c-9.66,0-18.35,6.52-21.76,16.4a3.26,3.26,0,0,0-.14.6A8.25,8.25,0,0,0,38,80.36ZM60.5,66.28c11.22,0,15.7,7.26,17.16,10.13l-4.32-1.09a51.23,51.23,0,0,0-25.27.07l-4,1C47.17,70.72,53.52,66.08,60.5,66.28Z"/><path class="cls-2" d="M73.25,39.24l13.42,5A2.58,2.58,0,0,0,90,42.81h0a2.46,2.46,0,0,0-1.47-3.2l-13.42-5A2.56,2.56,0,0,0,71.78,36h0A2.46,2.46,0,0,0,73.25,39.24Z"/><path class="cls-2" d="M84.67,54.55h0a2.67,2.67,0,0,1-2.46-1.48,3.87,3.87,0,0,0-7,0,2.66,2.66,0,0,1-2.46,1.48h0a2.7,2.7,0,0,1-2.5-3.83,9.45,9.45,0,0,1,17,0A2.7,2.7,0,0,1,84.67,54.55Z"/><path class="cls-2" d="M49.1,54.05h0a2.66,2.66,0,0,1-2.46-1.47,3.86,3.86,0,0,0-7,0,2.65,2.65,0,0,1-2.46,1.47h0a2.69,2.69,0,0,1-2.5-3.82,9.45,9.45,0,0,1,17,0A2.69,2.69,0,0,1,49.1,54.05Z"/><path class="cls-3" d="M33.16,57.89c1.22-.53,2-.16,1.93,1.17-.11,3.58-.41,9.57-2.55,12.36-3.12,4-10.78,2.15-10.75-4.06C21.81,62.75,29.08,59.64,33.16,57.89Z"/><path class="cls-3" d="M87.88,57.89c-1.22-.53-2-.16-1.93,1.17.11,3.58.41,9.57,2.55,12.36,3.12,4,10.79,2.15,10.75-4.06C99.23,62.75,92,59.64,87.88,57.89Z"/><path class="cls-4" d="M60.5,66.28c11.22,0,15.7,7.26,17.16,10.13l-4.32-1.09a51.23,51.23,0,0,0-25.27.07l-4,1C47.17,70.72,53.52,66.08,60.5,66.28Z"/></g></svg>