<svg xmlns="http://www.w3.org/2000/svg" viewBox="0 0 1303.15 1057.31"><defs><style>.cls-1{fill:#f2ebd1;}.cls-2{fill:#956243;}.cls-3{fill:#684134;}.cls-4{fill:#bb997a;}.cls-5{fill:#714533;}.cls-6{fill:#273339;}.cls-7{fill:#361b10;}.cls-8{fill:#4c2713;}.cls-9{fill:#753e1a;}.cls-10{fill:#a56530;}.cls-11{fill:#8c542a;}.cls-12,.cls-17{fill:#a99231;}.cls-13{fill:#937f2f;}.cls-14{fill:#513835;}.cls-15{fill:#ccb631;}.cls-16,.cls-23,.cls-31,.cls-39,.cls-41,.cls-42,.cls-43,.cls-44,.cls-45,.cls-46,.cls-47,.cls-48,.cls-49,.cls-50,.cls-51,.cls-52,.cls-53,.cls-54,.cls-55,.cls-56,.cls-57,.cls-58,.cls-59,.cls-60,.cls-61,.cls-62,.cls-67,.cls-70,.cls-71{fill:none;}.cls-16{stroke:#132b3a;stroke-width:0.85px;}.cls-16,.cls-17,.cls-23,.cls-31,.cls-32,.cls-39,.cls-41,.cls-42,.cls-43,.cls-44,.cls-45,.cls-46,.cls-47,.cls-48,.cls-49,.cls-50,.cls-51,.cls-52,.cls-53,.cls-54,.cls-55,.cls-56,.cls-57,.cls-58,.cls-59,.cls-60,.cls-61,.cls-62,.cls-67,.cls-70,.cls-71{stroke-miterlimit:10;}.cls-17{stroke:#a99231;}.cls-18{fill:#5e5f5f;}.cls-19{fill:#853324;}.cls-20{fill:#010101;}.cls-21{fill:#13110f;}.cls-22{fill:#878787;}.cls-23{stroke:#010101;stroke-width:1.24px;}.cls-24,.cls-27{fill:#fff;}.cls-24{opacity:0.14;}.cls-25{fill:#622515;}.cls-26{fill:#31160e;}.cls-28{fill:#653c29;}.cls-29{fill:#609d42;}.cls-30,.cls-32{fill:#6e4731;}.cls-31{stroke:#4d2b18;stroke-width:0.48px;stroke-dasharray:1.93 1.93;}.cls-32{stroke:#432f25;stroke-width:0.97px;}.cls-33{fill:#daa327;}.cls-34{fill:#d8d8d8;}.cls-35{fill:#f9e8b9;}.cls-36{fill:#e5d3a5;}.cls-37{fill:#a72e23;}.cls-38{fill:#8e231c;}.cls-39{stroke:#711d12;stroke-width:1.39px;}.cls-40{fill:#3b150f;}.cls-41{stroke:#c7b386;stroke-width:2.81px;}.cls-42,.cls-43,.cls-44,.cls-45,.cls-46,.cls-47,.cls-48,.cls-49,.cls-50,.cls-51,.cls-52,.cls-53,.cls-54,.cls-55,.cls-56,.cls-57,.cls-58,.cls-59,.cls-60,.cls-61,.cls-62{stroke:#0aa0cc;stroke-width:0.63px;}.cls-43{stroke-dasharray:5.56 5.56;}.cls-44{stroke-dasharray:5.69 5.69;}.cls-45{stroke-dasharray:5.79 5.79;}.cls-46{stroke-dasharray:5.73 5.73;}.cls-47{stroke-dasharray:5.71 5.71;}.cls-48{stroke-dasharray:5.86 5.86;}.cls-49{stroke-dasharray:5.68 5.68;}.cls-50{stroke-dasharray:5.92 5.92;}.cls-51{stroke-dasharray:5.93 5.93;}.cls-52{stroke-dasharray:5.79 5.79;}.cls-53{stroke-dasharray:5.64 5.64;}.cls-54{stroke-dasharray:5.77 5.77;}.cls-55{stroke-dasharray:5.82 5.82;}.cls-56{stroke-dasharray:5.51 5.51;}.cls-57{stroke-dasharray:6.23 6.23;}.cls-58{stroke-dasharray:6.26 6.26;}.cls-59{stroke-dasharray:6.34 6.34;}.cls-60{stroke-dasharray:5.66 5.66;}.cls-61{stroke-dasharray:5.73 5.73;}.cls-62{stroke-dasharray:5.98 5.98;}.cls-63{fill:#fbeb09;}.cls-64{fill:#fdcd08;}.cls-65{fill:#d2d2d2;}.cls-66{fill:#e5e5e5;}.cls-67{stroke:#84a8b0;stroke-width:1.08px;}.cls-68{fill:#629442;}.cls-69{fill:#70a44f;}.cls-70,.cls-71{stroke:#547d39;}.cls-70{stroke-width:0.56px;}.cls-71{stroke-width:0.7px;}.cls-72{fill:#e3e9b7;}.cls-73{fill:#d7dda0;}.cls-74{fill:#5f605f;}.cls-75{fill:#787876;}</style></defs><g id="Layer_1" data-name="Layer 1"><polyline class="cls-1" points="0 1040.65 0 0 1303.15 0 1303.15 1040.65"/><g id="freepik--Character--inject-2"><path class="cls-2" d="M718.49,389.71l2.59-12.51s-1.74-12.69-1-17,8.31-20,8.91-20.61.15-22.4,4.08-23.55,7.67.25,8.95,5.62-2.24,18.95.76,19.5a18.25,18.25,0,0,0,6.94-.56s-1.63-6.1.59-9.36,7.16-1.91,7.16-1.91l1.23,2.39,1.73-4.22s-2.1-12.8,2.77-15a21.64,21.64,0,0,1,1.76-8.69,4.62,4.62,0,0,1,6.24-1.94,4.69,4.69,0,0,1,1.08.79h0l3.34,29.67L764.11,370s-9.2,9.6-11.44,12.27-1.37,13.34-3,12.81C736.45,390.55,718.49,389.71,718.49,389.71Z"/><path class="cls-3" d="M743.44,341.65c.07-.34-1.8-.91-4.13-.56s-3.94,1.43-3.77,1.77,1.87-.11,4-.42S743.41,342,743.44,341.65Z"/><path class="cls-3" d="M772.83,333.63a28.45,28.45,0,0,1-2.05-5.81c-1.12-3.69-2.61-8.87-4.25-14.86l.7.55c-1,0-2.34-.11-3.21,0a3.58,3.58,0,0,0-2.39,1.52,8.19,8.19,0,0,0-1.28,5,27.83,27.83,0,0,0,.5,5.15c.7,3.29,1.55,6.3,2.19,8.73A54.15,54.15,0,0,1,765,342c-.19.09-1.36-2.87-3-7.81-.79-2.46-1.72-5.38-2.52-8.74a29.37,29.37,0,0,1-.63-5.45,9.54,9.54,0,0,1,1.56-5.91,5.22,5.22,0,0,1,3.38-2.1,29.36,29.36,0,0,1,3.51,0h.56l.14.55c1.57,6,2.87,11.25,3.74,15A28.36,28.36,0,0,1,772.83,333.63Z"/><path class="cls-3" d="M751.64,370.28a9,9,0,0,1-.4-1.15,17.24,17.24,0,0,1-.33-3.36,42,42,0,0,1,2-12.13l0,.3c-.64-5.69-5.49-12.08-4-20.51a6.36,6.36,0,0,1,3.65-4.23,9.28,9.28,0,0,1,5.21-.53l.42.06.18.39c2.49,7.61,4.59,14.19,6,18.89a12.78,12.78,0,0,1,.75,5.78c-.12,1.35-.33,2-.46,2a10.25,10.25,0,0,1-.08-2.07,13.7,13.7,0,0,0-1.15-5.5c-1.67-4.6-4-11.12-6.51-18.66l.56.49a8.14,8.14,0,0,0-4.31.49,4.85,4.85,0,0,0-2.79,3.26,11.67,11.67,0,0,0,0,5.29,45.93,45.93,0,0,0,1.2,5.16c.48,1.69,1.08,3.16,1.63,4.8a28.56,28.56,0,0,1,1,4.66l.06.13,0,.14a47.27,47.27,0,0,0-2.46,11.7C751.41,368.61,751.82,370.24,751.64,370.28Z"/></g><path class="cls-3" d="M721.08,377.2s5.27,4.66,14.61,2.53C735.69,379.73,725,385.66,721.08,377.2Z"/><path class="cls-3" d="M742.28,328s-8.38,6.92-12.94,9.19l-.07,1.25s11.85-6,13-8.06Z"/><rect class="cls-4" y="968.23" width="1303.15" height="89.07"/><g id="freepik--character-2--inject-2"><path class="cls-2" d="M756.78,762.85q-12.13-6.35-24.62-12C722.1,805.38,709.42,912.1,709.42,912.1L748,906.91s12.44-62.41,41.9-120.34C773.61,776.28,773.83,771.74,756.78,762.85Z"/><path class="cls-5" d="M784.41,644.73c-8.75,8.14-15,15.64-15.31,15.35a21.87,21.87,0,0,1,3.68-5.23,118.25,118.25,0,0,1,22.49-21,22.79,22.79,0,0,1,5.46-3.32C801,630.9,793.17,636.6,784.41,644.73Z"/><path class="cls-6" d="M547.86,545.45l5.46.21c4.72.24,11.58.62,20,1.19,16.91,1.07,40.21,3,66,4.45s49.21,1.45,66.16,1.22l20-.45h5.47a15.54,15.54,0,0,1,1.93,0,7.67,7.67,0,0,1-1.9.24l-5.47.39c-4.71.29-11.57.59-20,.89-17,.56-40.45.68-66.28-.75s-49.15-3.56-66-4.89l-20-1.7-5.43-.5a9.81,9.81,0,0,1-1.87-.27A8.62,8.62,0,0,1,547.86,545.45Z"/></g><path class="cls-2" d="M747.64,903.15s31.24,21.79,51.26,41.36c23.54,23,.84-1.9.84-1.9s-8.7,21.72-20.23,20.73-74.2-41.9-74.2-41.9l5.34-17.71Z"/><polygon class="cls-7" points="719.66 976.77 705.94 979.74 701.72 959.03 714.23 958.45 719.66 976.77"/><polygon class="cls-8" points="701.72 958.45 705.94 979.74 691.07 977.75 691.26 955.66 701.72 958.45"/><path class="cls-7" d="M844.43,976.22a13.34,13.34,0,0,1-7.69,3.06c-13.7.84-59.19,4.1-68.69,2-13.87-3-9.61-1.86-24.95-9.45-21.94-10.86-30.53-12.3-35.66-14.55s-6.56-3.45-6.56-3.45-1.24-7.78,2.66-7.46l1.58-10.71,13.41,14.89,35.29,4.58L774,971l36.38-.41,28.71-4.71s5.51.43,6.74,1.46,2,4.25,1.15,5.69A10.28,10.28,0,0,1,844.43,976.22Z"/><path class="cls-9" d="M801,942.51s-5.3.21-13.72,7.59-20.21,4.34-27.94.92c-11.61-5.14-20.84-8.8-32.09-17.46C714.74,924,708.38,914.49,708,913.05a4.61,4.61,0,0,0-1.84-2.31s-3.67,11.1-5.52,16.23-.27,17.51,1.31,21.14,17.67,8.62,30.27,14.94c15.72,7.9,19.13,8.45,31.18,13.66,7.38,3.19,37.83.64,47.46.23s21.21-1.71,25.29-2.33,8.32-6.06,8.32-6.06,2.25-3.28-4.72-7.17-21.12-8.61-27.06-11.48A74.9,74.9,0,0,1,801,942.51Z"/><g id="freepik--character-2--inject-2-2" data-name="freepik--character-2--inject-2"><path class="cls-2" d="M805.2,711.94v7.78c.17-.94.33-1.88.5-2.82q-.06-3.1-.19-6.23C805.41,711.1,805.3,711.52,805.2,711.94Z"/><path class="cls-2" d="M798.54,759l2.81-5.4c0-.78,0-1.57,0-2.35"/><path class="cls-2" d="M801.86,727c0,.12-.05.25-.07.37"/><path class="cls-2" d="M790.46,763.11a141.13,141.13,0,0,1,.42-14.54,207,207,0,0,1,3.29-23.26c1.61-14.2,3.12-28.42,3.35-42.7v-7.73a1.68,1.68,0,0,1,3.35,0c0,2.5,0,5,0,7.51v14.89a1.74,1.74,0,0,1,2.94,1.13c.07.75.12,1.49.18,2.24.16-.9.31-1.81.46-2.71-1.9-16.24-3.12-32.57-3.86-48.9-.93-20.35-1.16-40.73-1.22-61.1-47.13-10.41-126.52-12.89-126.52-12.89S598.11,669.73,618,674.71s125.64-8.63,125.64-8.63-29.59,36.86-39.57,65.77-28.87,188-28.87,188l41.62-7.3s37.94-79.92,73.91-148.49C773.85,764.05,790.47,763.5,790.46,763.11Z"/><path class="cls-5" d="M762.81,652.48c-8.75,8.13-15,15.64-15.31,15.34a21.62,21.62,0,0,1,3.68-5.22,118.06,118.06,0,0,1,22.5-21,23,23,0,0,1,5.46-3.32C779.4,638.65,771.57,644.34,762.81,652.48Z"/><path class="cls-6" d="M526.26,553.2l5.46.2c4.72.24,11.58.63,20,1.19,16.92,1.07,40.21,3,66,4.45S667,560.5,684,560.26l20-.45h5.46a15.54,15.54,0,0,1,1.93,0,7.61,7.61,0,0,1-1.9.24l-5.46.39c-4.72.29-11.58.59-20,.89-16.94.56-40.45.68-66.27-.74s-49.15-3.57-66-4.9l-20-1.69-5.43-.51a10.79,10.79,0,0,1-1.87-.26A7.55,7.55,0,0,1,526.26,553.2Z"/></g><path class="cls-2" d="M708.19,906s36.5,26.64,56.52,46.22c23.54,23,.84-1.91.84-1.91s-8.7,21.72-20.23,20.73-74.2-41.9-74.2-41.9l5.34-17.7Z"/><polygon class="cls-7" points="698.06 984.52 684.34 987.49 680.13 966.78 692.63 966.19 698.06 984.52"/><polygon class="cls-8" points="680.12 966.19 684.34 987.49 669.47 985.49 669.67 963.4 680.12 966.19"/><path class="cls-7" d="M810.24,984a13.25,13.25,0,0,1-7.69,3.06c-13.7.85-59.19,4.11-68.69,2-13.87-3-9.61-1.86-25-9.45C687,968.73,678.38,967.3,673.25,965s-6.56-3.44-6.56-3.44-1.24-7.79,2.66-7.46l1.59-10.71,13.4,14.88,35.29,4.58,20.2,15.87,36.38-.41,28.71-4.72s5.51.43,6.74,1.46,2,4.25,1.16,5.69A10.52,10.52,0,0,1,810.24,984Z"/><path class="cls-9" d="M766.78,950.26s-5.29.2-13.72,7.58-20.21,4.35-27.94.92C713.51,953.62,704.29,950,693,941.3c-12.48-9.61-18.84-19.07-19.25-20.5a4.61,4.61,0,0,0-1.84-2.32s-3.67,11.11-5.51,16.23-.28,17.52,1.3,21.15S685.4,964.47,698,970.8c15.72,7.89,19.14,8.44,31.18,13.65,7.38,3.19,37.83.64,47.47.23s21.21-1.71,25.28-2.33,8.32-6.06,8.32-6.06,2.25-3.28-4.72-7.17-21.11-8.61-27.06-11.48A74.41,74.41,0,0,1,766.78,950.26Z"/><polygon class="cls-5" points="719.41 913.19 757.08 782.35 720.19 913.88 719.41 913.19"/><path class="cls-7" d="M800.9,966c-1.76-.74-12.88-5.84-15.19-6.34s-11-4.69-13.32-5.71a11.4,11.4,0,0,1-2.3-1.56l-.6.34c5.27,4,14.25,7.12,18.55,8.83,5.18,2,20.13,9.29,20.13,9.29S802.67,966.78,800.9,966Z"/><path class="cls-10" d="M514.84,660.33q62.31,0,124.61,0c17.86,0,21.17,8.27,21.15,25.22,0,15.59-3.58,24.73-21.65,24.77-4.08,0-8.23.45-12.2-.08-12-1.58-14.36,2.75-12.8,11.8,15.3,88.25,30.22,170.47,45.48,258.73,1,6,.1,8.39-8.16,8.49-20.63.25-21,.65-23.91-15.88-9.74-56.3-19.34-112.62-28.47-169-1.25-7.66-4.43-10-13.73-9.91q-70.85.59-141.7,0c-9.06-.07-11.7,2.63-12.83,9.56C421,863.42,410.81,922.74,401,982.1c-.91,5.53-3.67,7.17-10.23,7.27-21.25.32-21.83.47-19.1-16.18,9.9-60.35,20.19-120.66,30.4-181,4.34-25.65,8.67-45.23,13.4-70.83,1.46-7.9-.25-12.38-11.34-10.87-2.38.33-4.89-.1-7.32.07-31.86,2.2-29.26-20.06-27.41-40.66.71-8,9.17-9.87,18.36-9.82,42.35.2,84.69,5.15,127,5.15Zm-1,113.94c23.59,0,47.18-.18,70.76.11,7.22.09,10.45-1.21,9.22-7.88-3.8-20.6-7.25-26.9-10.53-47.56-1-6.26-3.64-8.91-12.19-8.81-37.41.47-74.84.53-112.24,0-9.28-.14-11.84,2.77-12.88,9.4-3.14,20-6.49,25.64-10.2,45.57-1.29,6.9.59,9.56,9.75,9.36C468.28,773.94,491.07,774.27,513.84,774.27Z"/><path class="cls-11" d="M402.2,792.29q-2.37,14-4.73,27.93c9.89,1.9,19.72,4.14,29.54,6.47q1.86-11.28,3.72-22.55c1.13-6.93,3.76-9.64,12.83-9.56q70.84.57,141.7,0c9.3-.07,12.48,2.24,13.72,9.9q1.77,10.95,3.59,21.88a272.91,272.91,0,0,0,27.74-11.53c-5.4-30.5-10.81-61.21-16.26-92.7a17,17,0,0,1,0-7.33q-9.69.63-19.4,1-6,.21-11.9.35a17.93,17.93,0,0,1,.68,2.88c3.28,20.66,6.73,27,10.53,47.57,1.23,6.66-2,8-9.21,7.88-23.59-.29-47.18-.11-70.77-.11-22.77,0-45.55-.33-68.31.16-9.15.2-11-2.47-9.75-9.37,3.71-19.93,7.06-25.57,10.2-45.57a12.54,12.54,0,0,1,2.32-6.2c-11.22-.33-22.43-.6-33.65-.74,1.53,1.93,1.58,5,.87,8.83C410.87,747.07,406.54,766.65,402.2,792.29Z"/><path class="cls-11" d="M369.06,674.13s135.27,24.34,193.6,17,97.64-13.65,95.28-22.49-43.65-27.79-85.22-29.13-155.52,8.89-155.52,8.89S379,654.65,374.94,660.1,369.06,674.13,369.06,674.13Z"/><path class="cls-12" d="M389,577.27S373.06,652,414.79,664s218.86,14.84,218.86,14.84-.69,58,6.05,106.47c6.2,44.63,13.85,103.93,13.85,103.93s115.65,18.45,129.88-7.38c0,0,46.12-227.51,25.36-297.79-7.76-26.28-100.62-49.17-126.06-55.53s-72.82,0-72.82,0S475,539.72,389,577.27Z"/><path class="cls-13" d="M751.46,589.54s27.44,2.37,32.17,18.93-4.26,39.27-4.26,39.27,7-36-4.25-45.8A58.67,58.67,0,0,0,751.46,589.54Z"/><path class="cls-14" d="M777.11,571.81a.47.47,0,0,1-.16,0v-.41Z"/><path class="cls-15" d="M757.42,394.28s-27.56-11.83-45.6-6.49c0,0-.75,17-15.8,74.95-2.82-11.62,7.06-46.32,5.57-72.22a32.63,32.63,0,0,0-9-20.62l-47.87-50.23s-30.45,49-43.1,81.2,63,145.07,92.28,153.94c30.62,9.24,25.05,0,42.32-9.91C741.8,537.69,747,564.14,757.42,394.28Z"/><path class="cls-16" d="M692.57,576.12q-2.49-2.07-5.21-4.21a173.44,173.44,0,0,0-24,12.11"/><path class="cls-2" d="M583.59,292.92s25.21,80.68,63.06,98.73c0,0,3.42,1.87-2.71-16.74,5-3.83,6.54-5,10.41-8.17,12.84-10.68,37.72-35.94,37.72-35.94l-21-49.69-3.82-26.69c-6.16,7.05-13.12,12.1-18.85,17.56C616.91,302,583.59,292.92,583.59,292.92Z"/><path class="cls-15" d="M637.45,514.75c-16.77,39.71-15.49-.44-17.49,2.87-7.23,11.94-17.53,1-24.62,10.58-.23.3-.45.6-.67.91-14,18.79-35.33,24-34.67,28.68,1.33,9.45-62.45-2-101.83,8C412.49,577.47,397.53,585,386,595.09c-5.15,4.52-5.94-8-5.44-19.84,1-25,41.17-124.61,41.17-124.61,53.77-162.73,199-163.67,199-163.67s-11.28,74.2,49.55,92.13c0,.07,1.74,102.92-10.74,143.59C657.78,528.57,639.08,510.88,637.45,514.75Z"/><path class="cls-12" d="M564.26,557c-7.31,2.81-26.62,7.89-34.51,1.67-46.31-63.59-7.49-207.77-7.49-207.77l61,177.35C569,547.47,568.78,555.22,564.26,557Z"/><path class="cls-15" d="M734.29,542.23s-89-26.59-143.15-39.51c4.78-63.9,35.52-255-62.88-177.67,0,0-45.91,180.13,8.31,233.57,0,0,157.25,36.66,186.39,34.88,0,0,1.48,1.88,3.61-1.07C733.37,583,734.29,542.23,734.29,542.23Z"/><path class="cls-17" d="M580.35,318.83A80.8,80.8,0,0,1,608,361.66l-12.7,142.07,43.13,11.62,1.12-.85L597.06,502S610.16,368,609.5,361.17C608.39,349.69,595.4,330.58,580.35,318.83Z"/><polyline class="cls-17" points="695.73 464.52 685.81 515.35 695.45 452.94 696.02 462.74"/><polygon class="cls-17" points="637.32 515.04 734.29 544.04 734.29 542.23 638.9 514.3 637.32 515.04"/><path class="cls-15" d="M435.74,415.81s28.6-75.32,92.06-114.92a72.49,72.49,0,0,1,34.52-10.81L620.78,287,551.1,323.3Z"/><path class="cls-17" d="M678,426.81s3.91,33.08,0,47.35-17.54,22.06-19.48,27.25-2.29,19.28-2.29,19.28L654,520s.9-16.43,4.46-21.66,15.49-14.24,18.57-26.07c0,0,1.76-11.34,1.76-16.09S678,426.81,678,426.81Z"/><path class="cls-18" d="M677.79,158.08c7.64-3.35,16.41-3.37,22.12,2.57,7.72-13.5,25.35-13.58,38.89-5.94,6.77,4.23,11.94,11.55,19.75,13.17,4.88,1,9.82-.3,14.85-.87,20.84-2,36,24,40.32,44.53s-7.54,33.34-23.91,46.39c-7.61,6.07-9.7,10.61-15.61,18.42-5.58,7.38-19.16,19.15-24,26.92s2.5,23.32-5.78,19.19l-79.87-61.89c-14.29-5.17-20.12-13.95-19.88-29.15.34-10.21,2-9.71,6.66-18.76,5.85-12-.57-27.56,7-38.57C662.88,167,670.34,161.91,677.79,158.08Z"/><path class="cls-19" d="M667.4,151.17s38.6,3.16,74.39,30.5,40.36,62.11,36.92,83S757.45,299,757.45,299s8,8.38,35.17-22.29c39.58-44.71,6.44-106-6.06-113.29S718.37,105.08,667.4,151.17Z"/><path class="cls-3" d="M676.85,344.7s-5.74-4.94-9.38-8.87-11.33-8.26-20.85-38.23c0,0-7.26,25.25,15.78,45.69,0,0,5.83,5.48,10.87,7.11Z"/><path class="cls-2" d="M779.89,227.2c.05.13.1.26.14.4a4.16,4.16,0,0,1,0-.62Zm9,9.82c0,.26.11.53.19.8l.14-.2S789,236.8,788.84,237ZM645.41,293.47c2.5,17.25,10.07,39.07,26.06,49.8,5.73,3.84,13.22,4.86,19.69,4.05,9.83-1.22,20.05-2.31,29.08-5.6a73,73,0,0,0,10.5-4.59,63.91,63.91,0,0,0,9.87-6.93c7.32-6.05,8.73-8,13.34-16.05a90.66,90.66,0,0,1,8-11.8c3-3.48,15.2-16.78,21.72-25.06S795.22,248,795.22,248c1.2-2.66-2.85-3.77-2.74-6.53l-1-.73a1.21,1.21,0,0,1-.18,1.28,9.77,9.77,0,0,1-2.27-4.22l0,0c-2-.42-3-2.22-3.39-4.28-.17.23-.26.87,0,1.05a6.22,6.22,0,0,1-3-4.33c-.17.23-.25.87-.42,1.1A11.37,11.37,0,0,1,780,227.6c0,.47,6.29,3.76,6.17,3.92-1.67-.88-.33.89-.72-1.18l-.61-1.77c-1.42-.69-1.93.1-2.25-1.56.08.41,1.18-3,1-2.8-1.5-1.11-1-.91-1.76-2.52-.17.23-5.18-1.53-5.35-1.3-1.24-.93-1.76.46-2.08-1.19.08.41,1.61-.29,1.69.12-1.67-.88-2.94-.34-3.34-2.41.08.42-3.07-6.16-3.07-6.16-1.66-.88-1.76-.22-2.33-2.06.16.83-6.59-5.54-6.68-4.9-1.24-.92-1,6.33-1.49,4.91-.17.23-2.36-2.82-2.36-2.82-1.42-.69-.39,1.84-.71.19-.17.23-.43,1.1-.18,1.28-2-.42-3.41-2.17-4.23-4.2.16.83.07,1.48.15,1.89-1.25-.93-2.41-1.44-3-3.27-.17.22-.18,1.28.07,1.46a6.09,6.09,0,0,1-3.65-3.41c-.17.23,0,1.06.06,1.47a4.43,4.43,0,0,1-2.65-2.67l.07,1.47c-1-.74-2.08-.84-3.24-2.41-.17.23.16.83,0,1.06a11.42,11.42,0,0,1-2.32-2.08c-.17.23.24,1.24,0,1.06-1-.74-2.09-.84-3-2.22.07.41,0,1.06.07,1.47-1-.74-2.17-1.25-2.83-2.45a2.1,2.1,0,0,0-.18,1.29c-1-.74-2.08-.84-3-2.22-.17.23,0,1.06.07,1.47a16.22,16.22,0,0,1-3-2.22c-.17.23.16.83.24,1.24a9.69,9.69,0,0,1-3.07-2.63c-.34.46-.26.87-.43,1.1-.75-.55-1.08-1.15-1.83-1.7l-1.58-.47c-6.89,2-17.25-11.41-17.25-11.41-12.3.45-25.38,39.74-28.35,44.27s-6.34,3.91-6.34,3.91c-.06-2.52-5.09,1.09-4.49-1.29.44-2.16,2.47-3.85,2.91-6,.47-5.32-5.37-7.87-9.8-7.62l-1,.42C646.74,215,639,234.17,638.3,241c-6.36,10.35-1.56,21.8,8.45,18.31l-1.46,4.8"/><path class="cls-20" d="M714,306.08a8.87,8.87,0,0,1-6.19-5.22c-.22-.56-1.77-1.33-1.46-.54a12.5,12.5,0,0,0,8.54,7c.32.05.41-.16.19-.48a1.93,1.93,0,0,0-1.08-.72"/><path class="cls-20" d="M706,299.2a14.27,14.27,0,0,0-3.27-4A1.16,1.16,0,0,0,702,295c-.2,0-.32.14-.24.34a5.51,5.51,0,0,0,1.83,2.13,1.05,1.05,0,0,0,.87.24c.26-.1.13-.39-.06-.52a4.42,4.42,0,0,1-1.47-1.72l-1,.07a12.71,12.71,0,0,1,2.91,3.55,1.05,1.05,0,0,0,.79.46c.21,0,.52-.06.38-.33"/><path class="cls-20" d="M700.35,295.3c-1.58-1.24-3-3.35-2.86-5.14.15-2.72,3.41-4.79,6.3-4.46.31,0,.32-.22.13-.43a1.68,1.68,0,0,0-1-.46A7,7,0,0,0,696.5,288c-.94,1.78-.22,4,1.37,5.95a10.88,10.88,0,0,0,1.61,1.57c.24.19.74.44,1,.34s.1-.35-.13-.53"/><path class="cls-20" d="M717.6,307.46a.26.26,0,0,1,.43-.15,2.41,2.41,0,0,0,1.56.52c0,.28,0,.56,0,.84a7,7,0,0,0-3.2-1,.57.57,0,0,1-.46-.47c0-.16,0-.45.23-.43"/><path class="cls-20" d="M716.2,306.79a7.72,7.72,0,0,1,3.57,1.1.63.63,0,0,1,.29.52.28.28,0,0,1-.25.32"/><path class="cls-20" d="M720.8,310.17a4.12,4.12,0,0,0,4.25.13,5.87,5.87,0,0,0,2.57-6.1.24.24,0,0,1,.33-.29.8.8,0,0,1,.43.6,6.58,6.58,0,0,1-1.54,5.66,4.61,4.61,0,0,1-4.79,1.38,5.14,5.14,0,0,1-1.35-.61.74.74,0,0,1-.33-.65c.07-.25.27-.23.43-.12"/><path class="cls-21" d="M754.64,286.81a4.28,4.28,0,0,1,3.22,6,4.5,4.5,0,0,1-3.28,2.65,4.18,4.18,0,0,1-4.34-2.18,4.6,4.6,0,0,1,1.36-5.65,4.07,4.07,0,0,1,3-.84"/><path class="cls-21" d="M738.86,282.26s10.67-.31,14.36,1.91c5.4,3.22,9.53,10.6,9.46,14.41,0,0-5.11-10.24-9-12.4C750,284.11,738.86,282.26,738.86,282.26Z"/><path class="cls-21" d="M712.3,256.23c-.85-1.74-3.22-3.19-4.72-3.06a4.3,4.3,0,0,0-2.27.86,4.49,4.49,0,0,0-1.58,3.91,4.16,4.16,0,0,0,3.35,3.52,4.6,4.6,0,0,0,5-2.95c.12-.33.78-.65.1-2.06"/><path class="cls-21" d="M718.3,266.42s-4-10.48-7.68-13.36c-5.35-4.21-14.24-5.84-17.94-4.54,0,0,12.09,1.66,15.77,4.72C712,256.17,718.3,266.42,718.3,266.42Z"/><path class="cls-22" d="M755.86,262.4l-2.93,2.44-2.23,1.87c2.69,2,4.87,3.78,6.47,5.17,3.39,2.94,5.11,4.46,6.42,6.72a24.18,24.18,0,0,1,2.31,5.72,15.31,15.31,0,0,1,.71,3.43c.17,2.68-.63,4.5-.28,4.68s1.18-1.25,1.27-1.39a14.89,14.89,0,0,0,2-7.68,17.54,17.54,0,0,0-1.69-6.36c-1.12-2.37-5.24-8.1-12.06-14.6"/><path class="cls-22" d="M735.39,247.15l-1.84,3.34L732.14,253c-2.7-2.41-5.1-4.32-6.93-5.71-3.87-3-5.87-4.45-8.53-5.41a28.27,28.27,0,0,0-6.51-1.43,17.18,17.18,0,0,0-3.74-.17c-2.84.24-4.54,1.34-4.81,1s1-1.39,1.15-1.5a15.15,15.15,0,0,1,7.51-3.24,19.79,19.79,0,0,1,7,.7c2.74.76,9.69,4,18.08,9.86"/><path class="cls-23" d="M655,240c3-17.3-1-20-1-20s-4.79,1.36-7.51,8.54"/><path class="cls-23" d="M652.07,239.85c-3.43-2.74-5.05,5.94-7.11,6.89s-.63-4.2,2.27-9.66c0,0,4.52-7,8.82-6"/><path class="cls-3" d="M733.15,230.32s6.07,10.28,15.33,15.91,21.39,11.4,21.39,11.4"/><path class="cls-22" d="M796.9,234.26c0-.24,0,.1,0,0-.27-4.63.43-9,0-13.58s-1.06-8.74-1.77-13.23c-.05-.27-3-2.23-3-2.49l0-.28c0-.14,0-.28-.08-.42,0-.33-.12-.66-.18-1-10.36-15.14-27-26.79-45.54-31.74a67.41,67.41,0,0,0-82.54,47.71c-.82,3.08-4.33,5.25-2.7,8.29s2.37,2.5,5.81,2.34a22.44,22.44,0,0,0,9.61-3.42c14.36-8.37,28.37-27.22,34-42.85.05,3.65,13.36,8.22,14.88,11.53A26.1,26.1,0,0,0,759.89,208a39.54,39.54,0,0,0,.81,6.51c4.12,19.63,15.77,35.19,34,34.56C795.4,249,797.05,237.19,796.9,234.26Z"/><path class="cls-6" d="M693.15,239.73l-1.82,5.81c-1.71,4.28-4.16,13.45-4.33,16.32-.22,4,18.33,19,23.71,19.5s15.47-9,18.33-10.82l7.41,6c-1.7,3.8-6.84,16-6.4,18.49s9.49,8.61,10.51,9.3c.86.56,2.05,1.35,3.38,2.16,3.53,2.17,8,4.53,10.14,4.19,3.18-.5,10.28-6.05,16.81-11.43l1-.83c.24-.21.45-.32.5-.4h0l1.18-1c-7.3-13.32-22.52-23-36.08-22.83l0,.16-7.21-5.88c-4.42-11.79-16.92-25.47-30.39-29h0l-36.6-18.11-2.18,2.83Zm38.58,54.89c-.28-1.55,3.1-10.27,5.93-16.92,11.67.06,25.38,8.77,32.31,20.1l-.11.15c-3.51,2.88-12.83,10.55-16,11-3.7.57-21.57-11.83-22.19-14.34Zm-41.87-31.9a122.74,122.74,0,0,1,5.61-21.23c12.44,2.5,27,16.63,31.47,28-4.66,3.65-12.16,10.51-16,10.13-5.55-.54-21.22-14.36-21.06-16.89Z"/><path class="cls-24" d="M732,294.6c-.28-1.54,3.1-10.26,5.92-16.91,11.68.05,25.38,8.76,32.32,20.1l-.11.14c-3.51,2.88-12.83,10.55-16,11.05-3.7.57-21.57-11.84-22.19-14.35Z"/><path class="cls-24" d="M689.86,262.72a122.74,122.74,0,0,1,5.61-21.23c12.44,2.5,27,16.63,31.47,28-4.66,3.65-12.16,10.51-16,10.13-5.55-.54-21.22-14.36-21.06-16.89Z"/><path class="cls-25" d="M645.12,215.71s-15.9-38.59,8.87-54.22c4.76-3,4.12-1.45,6.53-5.09,12.67-19.08,3-18.64,45.58-23.83s46.54-2.21,88.09,27.9C815.63,176,822.13,193,819.5,211c-1.19,8.1-4.23,16.41-8.59,24.9,0,0-37.83-41.4-74.25-43.51S642,220.55,638.29,239.53C637.26,244.87,645.12,215.71,645.12,215.71Z"/><path class="cls-19" d="M640.53,183.47s74-32.73,127-2.45c0,0-59.91-46.41-116.55-18.1L647.19,168A34.42,34.42,0,0,0,642,178.59Z"/><path class="cls-3" d="M740.08,251.38s6,11-6.93,8.28A9.57,9.57,0,0,0,740.08,251.38Z"/><path class="cls-3" d="M752,259.93s-11.6-4.77-7.49,7.79A9.59,9.59,0,0,1,752,259.93Z"/><path class="cls-26" d="M703.55,311.15c-6.25-4.74-22.77-11.61-27.28-11.44,0,0,3.61,10.08,18.1,21.08S714.8,329,714.8,329,711.51,317.19,703.55,311.15Z"/><path class="cls-27" d="M684.62,301.17s7.64,5.41,13.38,10.15,12.48,11.24,12.48,11.24,4.26-3.28-6.14-11.88S684.62,301.17,684.62,301.17Z"/><path class="cls-28" d="M695.57,318.94c-5.83-6.31-10.65-14.15-18.68-20,0,0-4.69,10,11.79,23.68s25.48,7.14,25.48,7.14C706.87,323,702.87,323.49,695.57,318.94Z"/><path class="cls-28" d="M713.39,314.32c-3.27-3.1-6.49-3.68-8-4.93s-2.68-4.29-6.34-6.91c-3.43-2.46-23.33-6.33-22.6-4.09s15.91,5.54,26.33,14.16,9.62,17.19,12,17.49S716.44,317.23,713.39,314.32Z"/><path class="cls-5" d="M719.67,912.84s31.48,22.52,46.42,37.51h-.54s-17.16-14.71-26.72-22-19.67-14.46-19.67-14.46Z"/><rect class="cls-29" x="768.89" y="523.55" width="76.03" height="48.45" rx="2.74" transform="translate(-87.44 158.8) rotate(-10.67)"/><rect class="cls-30" x="762.6" y="529.47" width="88.34" height="56.3" rx="5.32" transform="translate(-43.51 68.91) rotate(-4.76)"/><path class="cls-31" d="M846.71,578.27l-74.11,6.17a2.41,2.41,0,0,1-2.61-2.2l-3.59-43.07a2.42,2.42,0,0,1,2.21-2.61l74.11-6.17a2.41,2.41,0,0,1,2.61,2.2l3.59,43.07a2.42,2.42,0,0,1-2.21,2.61Z"/><path class="cls-2" d="M815.34,572c2.06-2.06,3.15-3.06,2.57-6.13-.23-1.2-1.26-2.22-2.07-3.4l-27.19-13.28c4-4.06,17.22.83,20.34-3.91s-3.23-5-4.51-5.57-23.38-3.62-23.38-3.62S761.58,540,757.29,542s-15.52,9.42-15.52,9.42l-8.79,4s-.9,22.35-4.9,33.29c-.29.79,10.81-1,17.48,2.08s21.59,4.52,21.59,4.52,25.22-2.3,28.17-4.1,5.75-8.06,5.75-8.06a25.35,25.35,0,0,1,6.26-1.86c5.74-1.4,6.95-8.72,6.95-8.72h-.06C814.45,572.51,815.11,572,815.34,572Z"/><path class="cls-3" d="M792.08,550.88a80.71,80.71,0,0,1-10.86-3,44.22,44.22,0,0,1-10.7-3.71,48,48,0,0,1,11.11,2.35A32.05,32.05,0,0,1,792.08,550.88Z"/><path class="cls-3" d="M780.48,565.39c0-.46,7.55.44,16.39,2.88,4.44,1.18,8.45,2.36,11.33,3.17a22.54,22.54,0,0,1,4.68,1.48,14.1,14.1,0,0,1-4.92-.52c-3-.55-7-1.57-11.44-2.75C787.67,567.21,780.43,565.72,780.48,565.39Z"/><path class="cls-3" d="M775.58,577.51c.15-.38,5.6,1.62,12.58,3.13s12.78,2,12.84,2.26a50.06,50.06,0,0,1-25.42-5.39Z"/><rect class="cls-32" x="827.23" y="544.82" width="29.95" height="16.83" rx="4.17" transform="matrix(1, -0.08, 0.08, 1, -43.02, 71.83)"/><circle class="cls-33" cx="836.35" cy="553.72" r="4.65"/><path class="cls-34" d="M851.91,194.33A102.25,102.25,0,0,0,964,294.79c4.91-.45,12,2.79,15.2,6.68,43.45,52.89,120.34,48.61,156-9.43,5-8.24,9.21-9.05,17.85-5.33,40.82,17.6,86.14,2.82,108.29-34.53,22-37.14,12.49-83.67-22.32-111.48a26.87,26.87,0,0,1-8.84-13.8c-8.67-36.69-42.69-57.34-78.76-46.3-8.86,2.71-13.14,1.12-18.25-6.48-42.63-63.38-134.05-59.63-171.55,7-4.16,7.4-8.55,10.37-17.15,11C891.75,96.31,850.94,141.77,851.91,194.33Z"/><path class="cls-27" d="M852.12,184.39c1.1,60.32,51.48,106,110.08,100.47,4.82-.46,11.79,2.79,14.92,6.67,42.68,52.9,118.18,48.62,153.16-9.42,5-8.24,9-9.05,17.54-5.33,40.08,17.59,84.59,2.81,106.34-34.53,21.63-37.14,12.26-83.68-21.92-111.48a26.91,26.91,0,0,1-8.68-13.8c-8.51-36.69-41.92-57.34-77.34-46.3-8.7,2.71-12.9,1.12-17.93-6.49-28.44-45.33-139.34-46.66-168.45,7-4.09,7.39-8.41,10.36-16.85,11C891.24,86.38,851.16,131.83,852.12,184.39Z"/><path class="cls-34" d="M896.22,312.74a18.59,18.59,0,1,1-9.73,35.87,18.58,18.58,0,0,1,9.73-35.87Z"/><path class="cls-27" d="M901.2,309.13A18.92,18.92,0,0,1,915,331.52c-2.4,10.22-13.2,16.41-23.51,13.48a18.58,18.58,0,0,1,9.74-35.87Z"/><path class="cls-34" d="M853.69,346.69a13.09,13.09,0,1,1-6.85,25.25,13.08,13.08,0,0,1,6.85-25.25Z"/><path class="cls-27" d="M857.19,344.15a13.09,13.09,0,1,1-6.85,25.25,13.08,13.08,0,0,1,6.85-25.25Z"/><path class="cls-34" d="M814.23,355a7.84,7.84,0,1,1-4.11,15.13A7.84,7.84,0,0,1,814.23,355Z"/><path class="cls-27" d="M816.32,353.47a7.84,7.84,0,1,1-4.1,15.13,7.84,7.84,0,0,1,4.1-15.13Z"/><path class="cls-34" d="M461.18,253.77a102.25,102.25,0,0,1-112.1,100.46c-4.91-.45-12,2.79-15.2,6.68-43.45,52.89-120.34,48.62-156-9.43-5-8.24-9.21-9.05-17.85-5.32C119.24,363.75,73.92,349,51.77,311.63c-22-37.14-12.49-83.68,22.32-111.48a27,27,0,0,0,8.84-13.81c8.67-36.69,42.69-57.34,78.76-46.29,8.86,2.71,13.13,1.12,18.25-6.49,42.63-63.37,134.05-59.62,171.54,7,4.16,7.39,8.56,10.36,17.16,11C421.34,155.75,462.15,201.21,461.18,253.77Z"/><path class="cls-27" d="M461,241.68c-1.1,60.32-51.48,106-110.08,100.46-4.82-.45-11.79,2.8-14.92,6.68-42.68,52.89-118.18,48.62-153.16-9.43-5-8.23-9.05-9.05-17.54-5.32-40.08,17.59-84.59,2.81-106.34-34.53C37.3,262.4,46.67,215.86,80.85,188.06a27,27,0,0,0,8.68-13.81C98,137.56,131.45,116.92,166.87,128c8.7,2.71,12.9,1.12,17.93-6.49,28.44-45.33,139.34-46.66,168.45,7,4.09,7.39,8.41,10.36,16.85,11C421.85,143.66,461.93,189.12,461,241.68Z"/><path class="cls-34" d="M501.24,144.53A18.59,18.59,0,1,0,495,181.17a18.58,18.58,0,0,0,6.24-36.64Z"/><path class="cls-27" d="M501.51,139.39a18.91,18.91,0,0,0-21.9,14.52c-2.12,10.28,5.08,20.44,15.66,22.12a18.58,18.58,0,0,0,6.24-36.64Z"/><path class="cls-34" d="M552.63,137.5a13.09,13.09,0,1,0-4.4,25.79,13.08,13.08,0,0,0,4.4-25.79Z"/><path class="cls-27" d="M553.44,134.25A13.09,13.09,0,1,0,549,160a13.08,13.08,0,0,0,4.4-25.79Z"/><path class="cls-34" d="M588.19,153.68a7.84,7.84,0,1,0-2.63,15.45,7.84,7.84,0,0,0,2.63-15.45Z"/><path class="cls-27" d="M588.91,149.37a7.85,7.85,0,1,0-2.64,15.46,7.84,7.84,0,0,0,2.64-15.46Z"/></g><g id="Layer_4" data-name="Layer 4"><polygon class="cls-35" points="1202.54 214.9 914.33 214.9 914.33 158.79 970.51 104.34 1146.36 104.34 1202.54 172.15 1202.54 214.9"/><polyline class="cls-36" points="1202.54 175.73 1202.54 215.67 1076.45 215.67 1076.45 103.57 1154.57 103.57"/><polygon class="cls-37" points="1076.49 98.72 1069.54 103.57 1058.43 101.55 1048.22 104.18 1046.05 98.72 964.28 98.72 960.03 103.28 962.97 106.6 953.75 111.89 948.75 122.8 936.26 128.79 920.87 145.3 922.47 150.9 915.34 155.72 912.85 164.74 902.76 164.74 883.43 185.48 902.12 185.58 907.49 180.1 944.22 186.93 948.98 180.9 951 181.15 951 185.48 968.58 182.09 970.07 185.48 1072.85 185.48 1082.85 175.09 1082.85 167.37 1088.46 162.73 1100.68 156.57 1104.4 144.57 1115.31 131.85 1125.39 130.89 1156.35 98.72 1076.49 98.72"/><polygon class="cls-38" points="1202.68 163.92 1196.57 161.22 1196.57 155.32 1190 146.07 1183.69 144.57 1175.54 136.35 1171.95 129.43 1174.01 123.56 1156.35 98.72 1149.39 105.87 1205.74 185.48 1218 185.48 1202.68 163.92"/><polygon class="cls-37" points="981.37 189.91 1052.69 111.89 1094.68 112.7 1024.22 189.91 981.37 189.91"/><polygon class="cls-37" points="911.53 177.56 976.46 104.91 1022.6 100.35 952.89 177.56 911.53 177.56"/><line class="cls-39" x1="980.62" y1="100.35" x2="903.54" y2="184.41"/><line class="cls-39" x1="999.14" y1="100.35" x2="927.25" y2="181.69"/><line class="cls-39" x1="1023.3" y1="98.72" x2="952.96" y2="175.85"/><line class="cls-39" x1="1043.94" y1="99.41" x2="969.44" y2="181.14"/><line class="cls-39" x1="1059.16" y1="104.34" x2="981.37" y2="189.91"/><line class="cls-39" x1="1084.78" y1="99.6" x2="1003.99" y2="189.55"/><line class="cls-39" x1="1106.11" y1="99.7" x2="1024.22" y2="189.91"/><line class="cls-39" x1="1127.33" y1="99.79" x2="1049.59" y2="185.09"/><path class="cls-40" d="M977.86,138.68a140.18,140.18,0,0,1,.33-17.63l18.75,12.45a4.83,4.83,0,0,0,2.22,1,4.93,4.93,0,0,0,2.48-.71c4.94-2.46,10.26-2.18,15.21-4.64-1.73,2.9-.64,9.35-.84,12.72,0,0,3.56,7.29,10,11.55q-9.22-1.6-18.57-2.34a22.59,22.59,0,0,0-8.08.4c-2.92.84-5.4,2.74-7.8,4.6L980.9,164.3c-3.13-3.15.71-10-3-12.39a6.59,6.59,0,0,0-3.44-.72l-20.68-.48,25.37-12.63"/><polyline class="cls-41" points="1169.34 134.06 1163.92 142.1 1156.35 142.68 1146.08 140.27"/><polyline class="cls-41" points="1155.35 142.44 1149.39 153.65 1152.37 160.69"/><polyline class="cls-41" points="1076.45 191.27 1096.16 199.79 1103.47 195.53"/><line class="cls-41" x1="1086.31" y1="195.53" x2="1086.31" y2="203.44"/><line class="cls-41" x1="1163.92" y1="142.1" x2="1163.92" y2="150.9"/><polyline class="cls-41" points="1076.45 181.74 1076.45 189.91 1065.16 201.45"/><line class="cls-41" x1="1070.11" y1="196.39" x2="1060.66" y2="193.47"/><line class="cls-41" x1="1084.36" y1="199.49" x2="1079.28" y2="206.53"/><polyline class="cls-41" points="931.04 185.48 936.11 197.9 931.04 203.44"/><line class="cls-41" x1="932.85" y1="189.91" x2="948.4" y2="194.46"/><polygon class="cls-40" points="1088.46 117 1094.68 109.61 1100.5 114.96 1115.01 113.31 1105.24 124.03 1104.32 134.06 1090.3 126.95 1077.54 123.89 1088.46 117"/><line class="cls-42" x1="247.46" y1="240.46" x2="246.1" y2="243.09"/><line class="cls-43" x1="243.54" y1="248.02" x2="208.97" y2="314.6"/><line class="cls-42" x1="207.69" y1="317.07" x2="206.33" y2="319.69"/><line class="cls-42" x1="249.09" y1="248.4" x2="247.73" y2="251.03"/><line class="cls-44" x1="245.11" y1="256.07" x2="209.74" y2="324.2"/><line class="cls-42" x1="208.43" y1="326.73" x2="207.07" y2="329.35"/><line class="cls-42" x1="251.52" y1="255.79" x2="250.19" y2="258.43"/><line class="cls-45" x1="247.57" y1="263.6" x2="222.68" y2="312.67"/><line class="cls-42" x1="221.37" y1="315.26" x2="220.03" y2="317.89"/><line class="cls-42" x1="266.79" y1="238.78" x2="265.45" y2="241.42"/><line class="cls-46" x1="262.86" y1="246.53" x2="227.87" y2="315.52"/><line class="cls-42" x1="226.57" y1="318.08" x2="225.23" y2="320.72"/><line class="cls-42" x1="268.42" y1="246.72" x2="267.09" y2="249.36"/><line class="cls-46" x1="264.49" y1="254.47" x2="229.5" y2="323.46"/><line class="cls-42" x1="228.21" y1="326.01" x2="226.87" y2="328.65"/><line class="cls-42" x1="270.85" y1="254.11" x2="269.52" y2="256.75"/><line class="cls-46" x1="266.92" y1="261.86" x2="231.93" y2="330.85"/><line class="cls-42" x1="230.64" y1="333.41" x2="229.3" y2="336.05"/><line class="cls-42" x1="287.82" y1="231.84" x2="286.48" y2="234.48"/><line class="cls-47" x1="283.9" y1="239.58" x2="243.84" y2="318.57"/><line class="cls-42" x1="242.54" y1="321.12" x2="241.21" y2="323.76"/><line class="cls-42" x1="295.91" y1="227.06" x2="294.57" y2="229.7"/><line class="cls-48" x1="291.92" y1="234.93" x2="245.51" y2="326.44"/><line class="cls-42" x1="244.18" y1="329.06" x2="242.84" y2="331.69"/><line class="cls-42" x1="298.9" y1="233.34" x2="297.57" y2="235.98"/><line class="cls-49" x1="295" y1="241.05" x2="255.17" y2="319.57"/><line class="cls-42" x1="253.89" y1="322.1" x2="252.55" y2="324.74"/><line class="cls-42" x1="304.45" y1="233.33" x2="303.12" y2="235.97"/><line class="cls-46" x1="300.52" y1="241.08" x2="265.53" y2="310.08"/><line class="cls-42" x1="264.24" y1="312.63" x2="262.9" y2="315.27"/><line class="cls-42" x1="306.09" y1="241.27" x2="304.75" y2="243.91"/><line class="cls-46" x1="302.16" y1="249.02" x2="267.17" y2="318.01"/><line class="cls-42" x1="265.87" y1="320.57" x2="264.53" y2="323.21"/><line class="cls-42" x1="308.52" y1="248.66" x2="307.18" y2="251.3"/><line class="cls-46" x1="304.59" y1="256.41" x2="269.6" y2="325.4"/><line class="cls-42" x1="268.3" y1="327.96" x2="266.96" y2="330.6"/><line class="cls-42" x1="328.17" y1="223.86" x2="326.79" y2="226.48"/><line class="cls-50" x1="324.04" y1="231.72" x2="281.32" y2="312.97"/><line class="cls-42" x1="279.94" y1="315.59" x2="278.57" y2="318.21"/><line class="cls-42" x1="339.71" y1="209.22" x2="338.37" y2="211.86"/><line class="cls-51" x1="335.69" y1="217.14" x2="288.76" y2="309.68"/><line class="cls-42" x1="287.42" y1="312.33" x2="286.08" y2="314.96"/><line class="cls-42" x1="345.26" y1="209.21" x2="343.92" y2="211.85"/><line class="cls-46" x1="341.33" y1="216.96" x2="306.34" y2="285.95"/><line class="cls-42" x1="305.04" y1="288.51" x2="303.71" y2="291.15"/><line class="cls-42" x1="346.9" y1="217.15" x2="345.51" y2="219.76"/><line class="cls-52" x1="342.79" y1="224.87" x2="300.61" y2="304.13"/><line class="cls-42" x1="299.25" y1="306.69" x2="297.86" y2="309.3"/><line class="cls-42" x1="348.48" y1="224.54" x2="347.14" y2="227.18"/><line class="cls-46" x1="344.55" y1="232.29" x2="309.56" y2="301.28"/><line class="cls-42" x1="308.26" y1="303.84" x2="306.93" y2="306.48"/><line class="cls-42" x1="360.97" y1="211.42" x2="359.63" y2="214.06"/><line class="cls-46" x1="357.04" y1="219.17" x2="322.05" y2="288.16"/><line class="cls-42" x1="320.75" y1="290.72" x2="319.41" y2="293.35"/><line class="cls-42" x1="198.13" y1="208.02" x2="196.71" y2="210.61"/><line class="cls-53" x1="193.99" y1="215.55" x2="162.7" y2="272.36"/><line class="cls-42" x1="161.34" y1="274.83" x2="159.91" y2="277.42"/><line class="cls-42" x1="201.53" y1="191.53" x2="200.11" y2="194.12"/><line class="cls-53" x1="197.38" y1="199.06" x2="166.1" y2="255.86"/><line class="cls-42" x1="164.74" y1="258.33" x2="163.31" y2="260.92"/><line class="cls-42" x1="188.13" y1="202.51" x2="186.7" y2="205.11"/><line class="cls-53" x1="183.98" y1="210.04" x2="152.7" y2="266.85"/><line class="cls-42" x1="151.34" y1="269.32" x2="149.91" y2="271.91"/><line class="cls-42" x1="189.95" y1="185.15" x2="188.52" y2="187.74"/><line class="cls-53" x1="185.8" y1="192.68" x2="154.52" y2="249.48"/><line class="cls-42" x1="153.16" y1="251.95" x2="151.73" y2="254.54"/><line class="cls-42" x1="200.56" y1="215.42" x2="199.14" y2="218.01"/><line class="cls-54" x1="196.35" y1="223.06" x2="169.92" y2="271.05"/><line class="cls-42" x1="168.53" y1="273.58" x2="167.1" y2="276.17"/><line class="cls-42" x1="202.94" y1="222.61" x2="201.51" y2="225.2"/><line class="cls-55" x1="198.71" y1="230.3" x2="166.42" y2="288.91"/><line class="cls-42" x1="165.02" y1="291.46" x2="163.59" y2="294.05"/><line class="cls-42" x1="204.58" y1="230.54" x2="203.15" y2="233.13"/><line class="cls-54" x1="200.37" y1="238.19" x2="173.93" y2="286.18"/><line class="cls-42" x1="172.54" y1="288.71" x2="171.11" y2="291.3"/><line class="cls-42" x1="207.01" y1="237.94" x2="205.63" y2="240.56"/><line class="cls-56" x1="203.07" y1="245.43" x2="173.59" y2="301.53"/><line class="cls-42" x1="172.3" y1="303.97" x2="170.93" y2="306.59"/><line class="cls-42" x1="218.91" y1="225.65" x2="217.57" y2="228.28"/><line class="cls-57" x1="214.74" y1="233.84" x2="182.22" y2="297.72"/><line class="cls-42" x1="180.81" y1="300.49" x2="179.46" y2="303.13"/><line class="cls-42" x1="220.55" y1="233.58" x2="219.18" y2="236.21"/><line class="cls-58" x1="216.3" y1="241.77" x2="183.06" y2="305.66"/><line class="cls-42" x1="181.62" y1="308.44" x2="180.26" y2="311.06"/><line class="cls-42" x1="224.25" y1="236.61" x2="222.9" y2="239.24"/><line class="cls-59" x1="220.02" y1="244.89" x2="192.68" y2="298.5"/><line class="cls-42" x1="191.24" y1="301.33" x2="189.9" y2="303.96"/><line class="cls-42" x1="240.61" y1="217.16" x2="239.23" y2="219.78"/><line class="cls-60" x1="236.6" y1="224.79" x2="190.53" y2="312.56"/><line class="cls-42" x1="189.22" y1="315.07" x2="187.84" y2="317.69"/><line class="cls-42" x1="242.24" y1="225.1" x2="240.89" y2="227.73"/><line class="cls-61" x1="238.28" y1="232.83" x2="203.05" y2="301.73"/><line class="cls-42" x1="201.75" y1="304.28" x2="200.4" y2="306.92"/><line class="cls-42" x1="244.67" y1="232.49" x2="243.31" y2="235.11"/><line class="cls-62" x1="240.55" y1="240.42" x2="197.86" y2="322.67"/><line class="cls-42" x1="196.48" y1="325.33" x2="195.11" y2="327.95"/><path class="cls-63" d="M263.29,234c1.26,1.17,2.3,2.56,3.59,3.71a29.59,29.59,0,0,0,8,5.25c.43.18.82.44,1.23.66.09,2.49.49,4.95.75,7.42.21,1.9.25,1.84,2.13,1.29,3.73-1.1,7.48-2.14,11.22-3.2.59-.16,1.06-.23,1.13.7.17,2.31.46,4.61.7,6.92.32,3.11.63,6.23,1,9.34.24,2.24.51,4.48.76,6.72a15.65,15.65,0,0,1,.17,1.8c0,.82.52.84,1.08.77,3.67-.48,7.33-.94,11-1.47,2.2-.31,2.21-.35,2.38,1.78.35,4.36.56,8.73.76,13.1.14,2.92.41,5.84.57,8.76.27,4.91.49,9.83.75,14.74.16,3,.36,5.91.52,8.87q.31,5.75.58,11.49c0,.52.3,1.05-.05,1.72-.21-.76-.7-1.29-.58-2a32.76,32.76,0,0,0-1.3-5.89c-.38-1.44-.73-2.88-1-4.33s-.83-2.63-1-4a42.68,42.68,0,0,0-1.05-4.26c-.34-1.36-.64-2.72-1-4.08s-.74-2.69-1.07-4-.58-2.72-.92-4.07a41.54,41.54,0,0,1-1.05-4.05c-.2-1.42-.65-2.78-1-4.17s-.77-3-1.07-4.55c-.4-2-.46-2-2.47-1.51-1.07.25-2.11.65-3.18.85a46.6,46.6,0,0,0-5.61,1.44c-.71.22-1.12.2-1.29-.59-.07-.29-.16-.58-.21-.88-.29-1.46-.45-3-.87-4.38-.61-2.12-.9-4.31-1.42-6.45-.43-1.76-.73-3.57-1.07-5.36a9.39,9.39,0,0,1-.49-2.13,13.17,13.17,0,0,0-.5-2.72c-.17-1.07-.49-2.12-.6-3.21-.07-.57-.16-1.22-.81-1.34a5.18,5.18,0,0,0-1.7.12c-2.56.42-5.11.86-7.67,1.29-1.08.19-2.18.32-3.24.61s-1.21.16-1.29-.85c0-.2-.09-.39-.13-.59-.32-1.67-.66-3.33-.95-5-.21-1.24-.27-2.51-.55-3.74-.34-1.51-.52-3.06-.83-4.58-.26-1.26-.43-2.55-.63-3.83-.26-1.67-.44-3.36-.81-5-.23-1-.32-2-.49-3C263.46,236.7,263,235.37,263.29,234Z"/><path class="cls-64" d="M263.29,234c-.33,1.4.17,2.73.4,4.07.17,1,.26,2,.49,3,.37,1.65.55,3.34.81,5,.2,1.28.37,2.57.63,3.83.31,1.52.49,3.07.83,4.58.28,1.23.34,2.5.55,3.74.29,1.67.63,3.33.95,5,0,.2.11.39.13.59.08,1,.33,1.11,1.29.85s2.16-.42,3.24-.61c2.56-.43,5.11-.87,7.67-1.29a5.18,5.18,0,0,1,1.7-.12c.65.12.74.77.81,1.34.11,1.09.43,2.14.6,3.21a13.17,13.17,0,0,1,.5,2.72,9.39,9.39,0,0,0,.49,2.13c.34,1.79.64,3.6,1.07,5.36.52,2.14.81,4.33,1.42,6.45.42,1.42.58,2.92.87,4.38.05.3.14.59.21.88.17.79.58.81,1.29.59a46.6,46.6,0,0,1,5.61-1.44c1.07-.2,2.11-.6,3.18-.85,2-.46,2.07-.44,2.47,1.51.3,1.53.73,3,1.07,4.55s.76,2.75,1,4.17a41.54,41.54,0,0,0,1.05,4.05c.34,1.35.59,2.72.92,4.07s.72,2.69,1.07,4,.64,2.72,1,4.08a42.68,42.68,0,0,1,1.05,4.26c.19,1.39.77,2.65,1,4s.62,2.89,1,4.33a32.76,32.76,0,0,1,1.3,5.89,10.79,10.79,0,0,1-1.3-3.23c-1.82-5.06-3.55-10.14-5.31-15.22s-3.42-9.95-5.13-14.93c-.77-2.22-1.55-4.43-2.32-6.65-.21-.63-.46-.73-1.14-.47-3.64,1.42-7.32,2.75-11,4.13-.57.21-.64-.1-.71-.5-.52-3-1-6-1.57-9L280.84,277c-.48-2.77-1-5.54-1.42-8.32-.12-.66-.25-.89-1-.52-4.47,2.14-9,4.19-13.47,6.32-.66.31-.68-.1-.77-.46q-1-3.75-1.88-7.5c-.74-3-1.46-6.07-2.19-9.11q-1.33-5.5-2.68-11l-2.58-10.56q-.62-2.53-1.25-5.08a34,34,0,0,0,5.17-1.58c1.19-.6,1.6-.11,2.11.88.64,1.27,1.49,2.44,2.25,3.66l.18.31Z"/><path class="cls-63" d="M312.56,230.68c.78.79,1.42,1.71,2.22,2.48a18.7,18.7,0,0,0,5,3.58c.27.13.51.31.77.46,0,1.61.19,3.2.3,4.8.09,1.23.12,1.19,1.34.88,2.43-.62,4.87-1.2,7.31-1.78.38-.1.69-.13.71.47,0,1.49.18,3,.28,4.48.13,2,.25,4,.39,6,.1,1.45.22,2.9.33,4.35a9.11,9.11,0,0,1,.06,1.16c0,.53.32.56.68.52,2.37-.21,4.75-.42,7.12-.67,1.42-.15,1.43-.18,1.49,1.2.12,2.82.14,5.64.16,8.46,0,1.89.12,3.77.16,5.66.05,3.17.07,6.34.12,9.51,0,1.91.08,3.82.11,5.74q.06,3.71.09,7.41c0,.34.17.68-.07,1.11-.12-.5-.42-.85-.33-1.33a20.8,20.8,0,0,0-.69-3.83c-.21-.93-.4-1.87-.54-2.81s-.46-1.71-.55-2.61a26.2,26.2,0,0,0-.58-2.77c-.18-.89-.34-1.77-.53-2.66s-.41-1.75-.59-2.63-.31-1.76-.49-2.64a26.87,26.87,0,0,1-.58-2.63c-.09-.93-.34-1.81-.51-2.71s-.42-2-.58-3c-.21-1.27-.24-1.28-1.55-1-.7.14-1.38.37-2.07.47a30,30,0,0,0-3.65.79c-.46.13-.73.1-.82-.41,0-.19-.08-.38-.11-.57-.15-.95-.22-1.92-.45-2.85-.35-1.38-.48-2.79-.76-4.18-.24-1.15-.38-2.32-.56-3.49a5.9,5.9,0,0,1-.26-1.38,8.9,8.9,0,0,0-.26-1.77c-.08-.69-.26-1.37-.31-2.07,0-.37-.07-.8-.48-.89a3.14,3.14,0,0,0-1.1,0c-1.66.2-3.32.42-5,.64-.7.09-1.41.15-2.1.31s-.78.07-.81-.58a2.53,2.53,0,0,0-.07-.38c-.16-1.08-.34-2.16-.49-3.25-.1-.8-.11-1.62-.26-2.42-.18-1-.26-2-.42-3-.14-.82-.21-1.66-.31-2.49-.13-1.08-.2-2.17-.4-3.24-.12-.64-.16-1.28-.24-1.91A6.35,6.35,0,0,1,312.56,230.68Z"/><path class="cls-64" d="M312.56,230.68a6.35,6.35,0,0,0,.16,2.64c.08.63.12,1.27.24,1.91.2,1.07.27,2.16.4,3.24.1.83.17,1.67.31,2.49.16,1,.24,2,.42,3,.15.8.16,1.62.26,2.42.15,1.09.33,2.17.49,3.25a2.53,2.53,0,0,1,.07.38c0,.65.19.72.81.58s1.4-.22,2.1-.31c1.66-.22,3.32-.44,5-.64a3.14,3.14,0,0,1,1.1,0c.41.09.46.52.48.89.05.7.23,1.38.31,2.07a8.9,8.9,0,0,1,.26,1.77,5.9,5.9,0,0,0,.26,1.38c.18,1.17.32,2.34.56,3.49.28,1.39.41,2.8.76,4.18.23.93.3,1.9.45,2.85,0,.19.08.38.11.57.09.51.36.54.82.41a30,30,0,0,1,3.65-.79c.69-.1,1.37-.33,2.07-.47,1.31-.24,1.34-.23,1.55,1,.16,1,.4,2,.58,3s.42,1.78.51,2.71a26.87,26.87,0,0,0,.58,2.63c.18.88.31,1.77.49,2.64s.4,1.75.59,2.63.35,1.77.53,2.66A26.2,26.2,0,0,1,339,286c.09.9.43,1.73.55,2.61s.33,1.88.54,2.81a20.8,20.8,0,0,1,.69,3.83,7.21,7.21,0,0,1-.76-2.11c-1-3.3-2-6.62-3-9.93l-2.94-9.75c-.44-1.45-.89-2.89-1.33-4.34-.12-.41-.28-.48-.72-.33-2.38.82-4.79,1.59-7.18,2.39-.37.12-.41-.08-.44-.34-.26-2-.53-3.91-.79-5.86l-.81-6.12-.72-5.39c0-.44-.13-.58-.64-.36-2.93,1.27-5.89,2.47-8.83,3.73-.43.19-.44-.08-.49-.31-.35-1.63-.69-3.25-1-4.88-.41-2-.79-4-1.19-5.92-.48-2.39-1-4.78-1.45-7.17l-1.41-6.87c-.22-1.1-.45-2.2-.68-3.3a21.42,21.42,0,0,0,3.37-.89c.78-.36,1,0,1.34.62.38.84.9,1.61,1.36,2.41l.11.21Z"/><path class="cls-65" d="M372.6,187.54a29.41,29.41,0,0,0-2.2-4.93,30.55,30.55,0,0,0-18.54-14.48,29,29,0,0,0-10.38-.87,16.64,16.64,0,0,0-3.08.39c-1.79.49-3.55,1-5.32,1.6,0,0-6.39-6.69-6.4-6.68a28.61,28.61,0,0,0-7.72-6.78A29.55,29.55,0,0,0,306,151.47a30.51,30.51,0,0,0-15.82,2.77c-.51.24-1.05.77-1.51.7-.64-.1-.54-1-.8-1.5a31.67,31.67,0,0,0-7-9.72,30.34,30.34,0,0,0-13.12-7.2,29.39,29.39,0,0,0-13.1-.34,30.08,30.08,0,0,0-9.47,3.5,29.23,29.23,0,0,0-11.25,11.46.8.8,0,0,1-1.24.38,27.13,27.13,0,0,0-7.29-2.45c-4.27-.92-8.38-.25-12.43,1a19.16,19.16,0,0,0-3.5,1.46c-11.93,4.24-13.76,19.5-13.76,19.5l.47,0c-.09.1-.23.14-.47,0-8.85-3.9-20.45-.93-27.51,5.2a28.26,28.26,0,0,0-7.94,30.64,28.79,28.79,0,0,0,12.95,14.93,28.12,28.12,0,0,0,9.79,3.28,23.24,23.24,0,0,0,5.27.19c1.59-.15,3.59-1,5.05,0a4.68,4.68,0,0,1,1.13,1.37,29.85,29.85,0,0,0,33.33,12.62c1.86-.53,4.76-2.69,6.56-2.69s2.53,2.23,3.54,3.33a30.27,30.27,0,0,0,6.24,5.21c14.55,9.16,34.69,4.12,42.77-11.2a1.58,1.58,0,0,1,.74-.84c.6-.22,2.58,1.8,3.13,2.16a30.18,30.18,0,0,0,6.14,3.15,30.23,30.23,0,0,0,35.5-10.84c.35-.5.6-.85.81-1.09.44-.5,4.19.61,4.75.71a31.19,31.19,0,0,0,19.73-2.88C369.49,218.22,379.73,200.58,372.6,187.54Zm-46.4-18.63c.18.3.34.61.5.91a1.15,1.15,0,0,1-.14-.17C326.4,169.44,326.07,169.2,326.2,168.91Z"/><path class="cls-66" d="M205.15,219.07a24.73,24.73,0,0,0,10.43,2.67,25,25,0,0,0,5.25-.38c.44-.09,3.42-1,3.77-.57a10.57,10.57,0,0,1,.64.87,24.05,24.05,0,0,0,28.21,8.61,24.7,24.7,0,0,0,4.88-2.5c.44-.29,2-1.9,2.48-1.72a1.22,1.22,0,0,1,.59.67c6.42,12.17,22.42,16.17,34,8.89a24.2,24.2,0,0,0,4.95-4.13c.8-.88,1.42-2.65,2.81-2.65s3.74,1.72,5.22,2.13a23.71,23.71,0,0,0,26.48-10,3.65,3.65,0,0,1,.9-1.09c1.16-.82,2.74-.13,4,0a17.71,17.71,0,0,0,4.18-.15,22.41,22.41,0,0,0,7.79-2.6A22.79,22.79,0,0,0,362,205.22a22.45,22.45,0,0,0-6.3-24.34c-5.61-4.87-14.83-7.23-21.86-4.13-.19.08-.3.05-.37,0l.37,0s-1.46-12.12-10.94-15.5a16.39,16.39,0,0,0-2.77-1.16,19.38,19.38,0,0,0-9.88-.77,21.54,21.54,0,0,0-5.8,1.94.62.62,0,0,1-1-.3,23.28,23.28,0,0,0-8.93-9.11,24.47,24.47,0,0,0-7.53-2.78,23.43,23.43,0,0,0-10.41.28,24.07,24.07,0,0,0-10.42,5.71,25.08,25.08,0,0,0-5.59,7.73c-.2.42-.13,1.11-.64,1.19-.36.05-.79-.37-1.2-.56a24.28,24.28,0,0,0-12.56-2.2,23.58,23.58,0,0,0-10.29,3.43,22.9,22.9,0,0,0-6.14,5.39s-5.08,5.31-5.08,5.31c-1.41-.44-2.81-.89-4.23-1.27a13.35,13.35,0,0,0-2.45-.31,23.09,23.09,0,0,0-8.24.69,24.66,24.66,0,0,0-9.26,4.88A24.19,24.19,0,0,0,195,186a22.54,22.54,0,0,0-1.75,3.92C187.62,200.24,195.75,214.25,205.15,219.07Zm24.72-43.4-.11.13q.18-.36.39-.72C230.25,175.31,230,175.5,229.87,175.67Z"/><path class="cls-67" d="M177.8,263.35c3.9-4.65,2.7-11-2.66-14.62-8.89-5.94-21.71-.57-24.39,10.18-1.59,6.39.07,11.84,4.56,16.5,8.29,8.59,18.17,8.89,28.72,5.35a25.44,25.44,0,0,0,4.16-1.87c7.76-4.37,35.21-7.46,44.41-5.52-7-2.05-33.06-1.26-39.64,1.53-5,2.14-10.08,4.78-15.37,5.62-10.31,1.64-19.87-1.27-24.17-11.73a15.08,15.08,0,0,1,15-20.92C177,248.43,181.29,255.47,177.8,263.35Z"/><path class="cls-67" d="M194.33,262.15c4,1,6.3.14,8-2.48,1.88-2.9,2-6.8-.32-9.06a12.36,12.36,0,0,0-5.66-3.19c-3.92-.88-7.22.79-9.46,4.1a11.32,11.32,0,0,0-.73,12.41,8.72,8.72,0,0,0,9.13,4.77,21.52,21.52,0,0,0,2.41-.35c14-3.06,25.84-3.44,39.29.83-7.53-4.55-26.71-5.28-34.48-3.86-2.49.46-5,1.14-7.47,1.42a6.7,6.7,0,0,1-7.16-4.11A9.47,9.47,0,0,1,189.09,252a7.37,7.37,0,0,1,7.89-2.73,6.37,6.37,0,0,1,5.27,6.54C202,259.67,199.75,261.67,194.33,262.15Z"/><path class="cls-67" d="M201.17,285.51c4.08-.66,6.3.33,7.8,3.08,1.65,3,1.47,6.93-1,9a12.53,12.53,0,0,1-5.88,2.76c-4,.58-7.15-1.33-9.14-4.8a11.33,11.33,0,0,1,.21-12.43c2.19-3.43,5.44-4.74,9.46-4.07a19.42,19.42,0,0,1,2.38.52c13.71,4.1,25.51,5.38,39.24,2.12-7.85,4-27,3.26-34.67,1.26-2.45-.64-4.86-1.5-7.34-2a6.71,6.71,0,0,0-7.46,3.56,9.5,9.5,0,0,0,.42,10.65,7.35,7.35,0,0,0,7.66,3.31,6.35,6.35,0,0,0,5.74-6.12C208.67,288.56,206.54,286.4,201.17,285.51Z"/><path class="cls-67" d="M178.44,273.63c-5.85.66-11.12-.19-15.45-4.18-4.69-4.33-4.25-10.86.83-14.06,1.13-.71,2.6-.88,4.35-1.44a6.79,6.79,0,0,0-6.9,1.28c-4.76,3.66-4.73,11,.08,15.58a13.38,13.38,0,0,0,11.17,3.75C174.5,274.33,176.47,274,178.44,273.63Z"/><polygon class="cls-68" points="1185.8 198.07 1185.8 222.79 1158.58 244.2 1040.31 244.2 1040.31 219.88 1185.8 198.07"/><polygon class="cls-69" points="1157.7 220.23 1040.31 220.23 1074.02 198.07 1185.8 198.07 1157.7 220.23"/><polygon class="cls-70" points="1152.79 216.74 1051.99 216.74 1076.11 200.26 1176.91 200.26 1152.79 216.74"/><polyline class="cls-71" points="1040.31 236.18 1158.55 236.18 1185.8 214.44"/><polyline class="cls-71" points="1040.31 232.61 1158.55 232.61 1185.8 210.86"/><polyline class="cls-71" points="1040.31 228.3 1158.55 228.3 1185.8 206.55"/><polyline class="cls-71" points="1040.31 224.59 1158.55 224.59 1185.8 202.84"/><polyline class="cls-71" points="1040.31 239.97 1158.55 239.97 1185.8 218.23"/><polygon class="cls-72" points="1108.28 198.07 1082.94 220.53 1082.94 242.99 1110.23 242.99 1110.23 220.53 1134.02 198.07 1108.28 198.07"/><rect class="cls-73" x="1082.94" y="220.53" width="27.29" height="23.67"/><path class="cls-74" d="M1144.18,250.17a39.22,39.22,0,0,0-11.09-1.43,39.86,39.86,0,0,0-11.16,1.43h-5v3.5h.08c0,.07-.08.15-.08.23,0,2.85,7.26,5.16,16.21,5.16s16.07-2.31,16.07-5.16v-3.73Z"/><ellipse class="cls-75" cx="1133.09" cy="250.17" rx="16.2" ry="5.16"/><path class="cls-74" d="M1181.14,249.3a38.91,38.91,0,0,0-11.1-1.44,39.56,39.56,0,0,0-11.16,1.44h-5v3.49h.08c0,.08-.08.15-.08.23,0,2.85,7.26,5.16,16.2,5.16s16.07-2.31,16.07-5.16V249.3Z"/><ellipse class="cls-75" cx="1170.04" cy="249.3" rx="16.2" ry="5.16"/><path class="cls-74" d="M1184.73,243.29a39.25,39.25,0,0,0-11.1-1.43,40,40,0,0,0-11.16,1.43h-5v3.5h.08c0,.08-.08.15-.08.23,0,2.85,7.26,5.16,16.2,5.16s16.08-2.31,16.08-5.16v-3.73Z"/><ellipse class="cls-75" cx="1173.63" cy="243.29" rx="16.2" ry="5.16"/><path class="cls-74" d="M1142.43,243.14a39.3,39.3,0,0,0-11.1-1.43,39.91,39.91,0,0,0-11.16,1.43h-5v3.5h.07c0,.08-.07.15-.07.23,0,2.85,7.25,5.16,16.2,5.16s16.07-2.31,16.07-5.16v-3.73Z"/><ellipse class="cls-75" cx="1131.33" cy="243.14" rx="16.2" ry="5.16"/><path class="cls-74" d="M1147.27,238.38a39.3,39.3,0,0,0-11.1-1.43,40,40,0,0,0-11.16,1.43h-5v3.5h.08c0,.08-.08.15-.08.23,0,2.85,7.26,5.16,16.2,5.16s16.07-2.31,16.07-5.16v-3.73Z"/><ellipse class="cls-75" cx="1136.17" cy="238.38" rx="16.2" ry="5.16"/><path class="cls-74" d="M1145.26,231.36a38.91,38.91,0,0,0-11.1-1.44,39.51,39.51,0,0,0-11.16,1.44h-5v3.49h.07c0,.08-.07.16-.07.23,0,2.86,7.25,5.17,16.2,5.17s16.07-2.31,16.07-5.17v-3.72Z"/><ellipse class="cls-75" cx="1134.16" cy="231.36" rx="16.2" ry="5.16"/></g></svg>